999
SOURCE:MBS   PROGRAM:ANDWG   CELL:ANDWG-1   CLASS:PLAN   MODE:---
  0
SECTION
  2
HEADER
  9
$ACADVER
  1
AC1009
  9
$EXTMIN
 10
 0.00     
 20
 0.00     
  9
$EXTMAX
 10
 63437.855
 20
 44859.633
  9
$LIMMIN
 10
 0.00     
 20
 0.00     
  9
$LIMMAX
 10
 63437.855
 20
 44859.633
  9
$FILLMODE
 70
     1
  9
$HANDLING
 70
     0
  0
ENDSEC
  0
SECTION
  2
TABLES
  0
TABLE
  2
LTYPE
 70
1
  0
LTYPE
  2
CONTIN
 70
    64
  3
SOLID LINE
 72
    65
 73
     0
 40
0.0
  0
LTYPE
  2
CONTINUOUS
 70
    64
  3
SOLID LINE
 72
    65
 73
     0
 40
0.0
  0
LTYPE
  2
CENTER
 70
    64
  3
____ _ ____ _ ____ _ ____ _ ____ _ ____ _ ____
 72
    65
 73
     4
 40
     5.080
 49
     3.175
 49
    -0.635
 49
     0.635
 49
    -0.635
  0
LTYPE
  2
DASHED
 70
    64
  3
__ __ __ __ __ __ __ __ __ __ __ __ __ __ __ 
 72
    65
 73
     2
 40
    4.762
 49
    3.175
 49
   -1.587
  0
ENDTAB
  0
TABLE
  2
LAYER
 70
50
  0
LAYER
  2
0
 70
     0
 62
     7
  6
CONTIN
  0
LAYER
  2
1
 70
     0
 62
     7
  6
CONTIN
  0
LAYER
  2
2
 70
     0
 62
     6
  6
CONTIN
  0
LAYER
  2
3
 70
     0
 62
     7
  6
CONTIN
  0
LAYER
  2
4
 70
     0
 62
     7
  6
CENTER
  0
LAYER
  2
5
 70
     0
 62
     5
  6
DASHED
  0
LAYER
  2
6
 70
     0
 62
     6
  6
CONTIN
  0
LAYER
  2
7
 70
     0
 62
     7
  6
CONTIN
  0
LAYER
  2
8
 70
     0
 62
     8
  6
CENTER
  0
LAYER
  2
9
 70
     0
 62
     9
  6
DASHED
  0
LAYER
  2
10
 70
     0
 62
    10
  6
CONTIN
  0
LAYER
  2
11
 70
     0
 62
     7
  6
CONTIN
  0
LAYER
  2
12
 70
     0
 62
     6
  6
CONTIN
  0
LAYER
  2
13
 70
     0
 62
     1
  6
CONTIN
  0
LAYER
  2
14
 70
     0
 62
     7
  6
CONTIN
  0
LAYER
  2
15
 70
     0
 62
     7
  6
CONTIN
  0
LAYER
  2
16
 70
     0
 62
     7
  6
CONTIN
  0
LAYER
  2
17
 70
     0
 62
     5
  6
CONTIN
  0
LAYER
  2
18
 70
     0
 62
     7
  6
CONTIN
  0
LAYER
  2
19
 70
     0
 62
     7
  6
CONTIN
  0
LAYER
  2
20
 70
     0
 62
     7
  6
CONTIN
  0
LAYER
  2
21
 70
     0
 62
     7
  6
CONTIN
  0
LAYER
  2
22
 70
     0
 62
     7
  6
CONTIN
  0
LAYER
  2
23
 70
     0
 62
     7
  6
DASHED
  0
LAYER
  2
24
 70
     0
 62
     7
  6
CONTIN
  0
LAYER
  2
25
 70
     0
 62
     7
  6
CONTIN
  0
LAYER
  2
26
 70
     0
 62
     7
  6
CONTIN
  0
LAYER
  2
27
 70
     0
 62
     1
  6
CENTER
  0
LAYER
  2
28
 70
     0
 62
     7
  6
CONTIN
  0
LAYER
  2
29
 70
     0
 62
     7
  6
CONTIN
  0
LAYER
  2
30
 70
     0
 62
     7
  6
CONTIN
  0
LAYER
  2
31
 70
     0
 62
     7
  6
CONTIN
  0
LAYER
  2
32
 70
     0
 62
     7
  6
CONTIN
  0
LAYER
  2
33
 70
     0
 62
     7
  6
CONTIN
  0
LAYER
  2
34
 70
     0
 62
     7
  6
CONTIN
  0
LAYER
  2
35
 70
     0
 62
     7
  6
CONTIN
  0
LAYER
  2
36
 70
     0
 62
     7
  6
CONTIN
  0
LAYER
  2
37
 70
     0
 62
     7
  6
CONTIN
  0
LAYER
  2
38
 70
     0
 62
     7
  6
CONTIN
  0
LAYER
  2
39
 70
     0
 62
     7
  6
CONTIN
  0
LAYER
  2
40
 70
     0
 62
     7
  6
CONTIN
  0
LAYER
  2
41
 70
     0
 62
     7
  6
CONTIN
  0
LAYER
  2
42
 70
     0
 62
     7
  6
CONTIN
  0
LAYER
  2
43
 70
     0
 62
     7
  6
CONTIN
  0
LAYER
  2
44
 70
     0
 62
     7
  6
CONTIN
  0
LAYER
  2
45
 70
     0
 62
     7
  6
CONTIN
  0
LAYER
  2
46
 70
     0
 62
     7
  6
CONTIN
  0
LAYER
  2
47
 70
     0
 62
     7
  6
CONTIN
  0
LAYER
  2
48
 70
     0
 62
     7
  6
CONTIN
  0
LAYER
  2
49
 70
     0
 62
     7
  6
CONTIN
  0
ENDTAB
  0
TABLE
  2
STYLE
 70
  0
  0
STYLE
  2
SIMPLEX
 70
  0
 40
  0.000
 41
  1.000
 42
  1.000
 50
  0.000
 71
  0
  3
SIMPLEX
  0
STYLE
  2
ROMANS
 70
  0
 40
  0.000
 41
  1.000
 42
  1.000
 50
  0.000
 71
  0
  3
ROMANS
  0
STYLE
  2
OPEN
 70
  0
 40
  0.000
 41
  1.000
 42
  1.000
 50
  0.000
 71
  0
  3
SIMPLEX
  0
STYLE
  2
ARIAL
 70
  0
 40
  0.000
 41
  1.000
 42
  1.000
 50
  0.000
 71
  0
  3
ARIAL.TTF
  0
STYLE
  2
VERDANAB
 70
  0
 40
  0.000
 41
  1.000
 42
  1.000
 50
  0.000
 71
  0
  3
VERDANAB.TTF
  0
ENDTAB
  0
ENDSEC
  0
SECTION
  2
BLOCKS
  0
BLOCK
  8
2
  2
ARROW
 70
     0
 10
 0.00     
 20
 0.00     
  0
LINE
  8
2
 10
 0.00     
 20
 0.00     
 11
  -299.245
 21
   -49.874
  0
LINE
  8
2
 10
 0.00     
 20
 0.00     
 11
  -299.245
 21
    49.874
  0
LINE
  8
2
 10
  -299.245
 20
    49.874
 11
  -299.245
 21
   -49.874
  0
LINE
  8
2
 10
 0.00     
 20
 0.00     
 11
  -418.944
 21
 0.00     
  0
ENDBLK
  8
2
  0
BLOCK
  8
2
  2
ARROWP
 70
     0
 10
 0.00     
 20
 0.00     
  0
LINE
  8
2
 10
 0.00     
 20
 0.00     
 11
  -199.497
 21
   -33.249
  0
LINE
  8
2
 10
 0.00     
 20
 0.00     
 11
  -199.497
 21
    33.249
  0
LINE
  8
2
 10
  -199.497
 20
    33.249
 11
  -199.497
 21
   -33.249
  0
ENDBLK
  8
2
  0
BLOCK
  8
2
  2
ARROWA
 70
     0
 10
 0.00     
 20
 0.00     
  0
LINE
  8
3
 10
   199.497
 20
 0.00     
 11
 0.00     
 21
   -33.249
  0
LINE
  8
3
 10
   199.497
 20
 0.00     
 11
 0.00     
 21
    33.249
  0
LINE
  8
3
 10
 0.00     
 20
    33.249
 11
 0.00     
 21
   -33.249
  0
ENDBLK
  8
2
  0
BLOCK
  8
0
  2
ARROWB
 70
     0
 10
 0.00     
 20
 0.00     
  0
LINE
  8
0
 10
 0.00     
 20
 0.00     
 11
   -25.400
 21
    -4.233
  0
LINE
  8
0
 10
 0.00     
 20
 0.00     
 11
   -25.400
 21
     4.233
  0
LINE
  8
0
 10
   -25.400
 20
     4.233
 11
   -25.400
 21
    -4.233
  0
LINE
  8
0
 10
 0.00     
 20
 0.00     
 11
   -43.180
 21
 0.00     
  0
ENDBLK
  8
0
  0
BLOCK
  8
2
  2
TICK
 70
     0
 10
 0.00     
 20
 0.00     
  0
LINE
  8
2
 10
   -38.365
 20
   -38.365
 11
    38.365
 21
    38.365
  0
ENDBLK
  8
2
  0
BLOCK
  8
0
  2
CIRCLE
 70
     0
 10
 0.00     
 20
 0.00     
  0
CIRCLE
  8
1
 10
    0.000
 20
    0.000
 40
   25.400
  0
ENDBLK
  8
3
  0
BLOCK
  8
1
  2
BRACE
 70
     0
 10
 0.00     
 20
 0.00     
  0
LINE
  8
1
 10
   -12.700
 20
   -12.700
 11
   -12.700
 21
    12.700
  0
LINE
  8
1
 10
   -12.700
 20
    12.700
 11
    12.700
 21
    12.700
  0
LINE
  8
1
 10
    12.700
 20
    12.700
 11
    12.700
 21
   -12.700
  0
LINE
  8
1
 10
    12.700
 20
   -12.700
 11
   -12.700
 21
   -12.700
  0
ENDBLK
  8
1
  0
BLOCK
  8
0
  2
WCOL
 70
     0
 10
 0.00     
 20
 0.00     
  0
LINE
  8
0
 10
  -184.151
 20
   414.340
 11
   184.151
 21
   414.340
  0
LINE
  8
0
 10
 0.00     
 20
   414.340
 11
 0.00     
 21
 0.00     
  0
LINE
  8
0
 10
  -184.151
 20
 0.00     
 11
   184.151
 21
 0.00     
  0
ENDBLK
  8
0
  0
BLOCK
  8
0
  2
WCOL2
 70
     0
 10
 0.00     
 20
 0.00     
  0
LINE
  8
0
 10
  -184.151
 20
 0.00     
 11
   184.151
 21
 0.00     
  0
LINE
  8
0
 10
 0.00     
 20
   414.340
 11
 0.00     
 21
 0.00     
  0
ENDBLK
  8
0
  0
BLOCK
  8
0
  2
PCOL
 70
     0
 10
 0.00     
 20
 0.00     
  0
CIRCLE
  8
0
 10
 0.00     
 20
 0.00     
 40
   122.767
  0
ENDBLK
  8
0
  0
BLOCK
  8
0
  2
ZCOL
 70
     0
 10
 0.00     
 20
 0.00     
  0
LINE
  8
0
 10
   184.151
 20
   383.648
 11
   184.151
 21
   414.340
  0
LINE
  8
0
 10
   184.151
 20
   414.340
 11
 0.00     
 21
   414.340
  0
LINE
  8
0
 10
 0.00     
 20
   414.340
 11
 0.00     
 21
 0.00     
  0
LINE
  8
0
 10
 0.00     
 20
 0.00     
 11
  -184.151
 21
 0.00     
  0
LINE
  8
0
 10
  -184.151
 20
 0.00     
 11
  -184.151
 21
    30.692
  0
ENDBLK
  8
0
  0
BLOCK
  8
0
  2
TCOL
 70
     0
 10
 0.00     
 20
 0.00     
  0
LINE
  8
0
 10
  -107.421
 20
  -107.421
 11
   107.421
 21
  -107.421
  0
LINE
  8
0
 10
   107.421
 20
  -107.421
 11
   107.421
 21
   107.421
  0
LINE
  8
0
 10
   107.421
 20
   107.421
 11
  -107.421
 21
   107.421
  0
LINE
  8
0
 10
  -107.421
 20
   107.421
 11
  -107.421
 21
  -107.421
  0
ENDBLK
  8
0
  0
BLOCK
  8
0
  2
TCOL2
 70
     0
 10
 0.00     
 20
 0.00     
  0
LINE
  8
0
 10
  -138.113
 20
 0.00     
 11
   138.113
 21
 0.00     
  0
LINE
  8
0
 10
   138.113
 20
 0.00     
 11
   138.113
 21
   414.340
  0
LINE
  8
0
 10
   138.113
 20
   414.340
 11
  -138.113
 21
   414.340
  0
LINE
  8
0
 10
  -138.113
 20
   414.340
 11
  -138.113
 21
 0.00     
  0
ENDBLK
  8
0
  0
BLOCK
  8
0
  2
SCCOL
 70
     0
 10
 0.00     
 20
 0.00     
  0
LINE
  8
0
 10
   184.151
 20
   383.648
 11
   184.151
 21
   414.340
  0
LINE
  8
0
 10
   184.151
 20
   414.340
 11
 0.00     
 21
   414.340
  0
LINE
  8
0
 10
 0.00     
 20
   414.340
 11
 0.00     
 21
 0.00     
  0
LINE
  8
0
 10
 0.00     
 20
 0.00     
 11
   184.151
 21
 0.00     
  0
LINE
  8
0
 10
   184.151
 20
 0.00     
 11
   184.151
 21
    30.692
  0
ENDBLK
  8
0
  0
BLOCK
  8
0
  2
GCOL
 70
     0
 10
 0.00     
 20
 0.00     
  0
LINE
  8
0
 10
   276.227
 20
   230.189
 11
   245.535
 21
   230.189
  0
LINE
  8
0
 10
   276.227
 20
   414.340
 11
   276.227
 21
   230.189
  0
LINE
  8
0
 10
   276.227
 20
   414.340
 11
 0.00     
 21
   414.340
  0
LINE
  8
0
 10
 0.00     
 20
   414.340
 11
 0.00     
 21
 0.00     
  0
LINE
  8
0
 10
 0.00     
 20
 0.00     
 11
   184.151
 21
 0.00     
  0
LINE
  8
0
 10
   184.151
 20
 0.00     
 11
   184.151
 21
    30.692
  0
ENDBLK
  8
0
  0
BLOCK
  8
0
  2
UCOL
 70
     0
 10
 0.00     
 20
 0.00     
  0
LINE
  8
0
 10
   184.151
 20
   414.340
 11
 0.00     
 21
   414.340
  0
LINE
  8
0
 10
 0.00     
 20
   414.340
 11
 0.00     
 21
 0.00     
  0
LINE
  8
0
 10
 0.00     
 20
 0.00     
 11
   184.151
 21
 0.00     
  0
ENDBLK
  8
0
  0
BLOCK
  8
0
  2
DCCOL
 70
     0
 10
 0.00     
 20
 0.00     
  0
INSERT
  8
0
  2
SCCOL
 10
 0.00     
 20
 0.00     
 41
     1.000
 42
     1.000
 43
     1.000
 50
    0.000
  0
INSERT
  8
0
  2
SCCOL
 10
 0.00     
 20
 0.00     
 41
    -1.000
 42
     1.000
 43
     1.000
 50
    0.000
  0
ENDBLK
  8
0
  0
BLOCK
  8
0
  2
XCOL
 70
     0
 10
 0.00     
 20
 0.00     
  0
LINE
  8
0
 10
  -184.151
 20
   414.340
 11
   184.151
 21
   414.340
  0
LINE
  8
0
 10
  -184.151
 20
   414.340
 11
  -184.151
 21
 0.00     
  0
LINE
  8
0
 10
   184.151
 20
   414.340
 11
   184.151
 21
 0.00     
  0
LINE
  8
0
 10
  -184.151
 20
 0.00     
 11
   184.151
 21
 0.00     
  0
ENDBLK
  8
0
  0
BLOCK
  8
1
  2
BOLT_0
 70
     0
 10
 0.00     
 20
 0.00     
  0
CIRCLE
  8
1
 10
 0.00     
 20
 0.00     
 40
    25.400
  0
ENDBLK
  8
1
  0
BLOCK
  8
1
  2
BOLT_1
 70
     0
 10
 0.00     
 20
 0.00     
  0
CIRCLE
  8
1
 10
 0.00     
 20
 0.00     
 40
    25.400
  0
ENDBLK
  8
1
  0
BLOCK
  8
1
  2
BOLT_2
 70
     0
 10
 0.00     
 20
 0.00     
  0
CIRCLE
  8
1
 10
 0.00     
 20
 0.00     
 40
    25.400
  0
LINE
  8
1
 10
    25.400
 20
    25.400
 11
   -25.400
 21
   -25.400
  0
LINE
  8
1
 10
   -25.400
 20
    25.400
 11
    25.400
 21
   -25.400
  0
ENDBLK
  8
1
  0
BLOCK
  8
1
  2
BOLT_3
 70
     0
 10
 0.00     
 20
 0.00     
  0
CIRCLE
  8
1
 10
 0.00     
 20
 0.00     
 40
    25.400
  0
LINE
  8
1
 10
    31.750
 20
 0.00     
 11
   -31.750
 21
 0.00     
  0
LINE
  8
1
 10
 0.00     
 20
    25.400
 11
 0.00     
 21
   -25.400
  0
ENDBLK
  8
1
  0
BLOCK
  8
1
  2
BOLT_4
 70
     0
 10
 0.00     
 20
 0.00     
  0
LINE
  8
1
 10
    25.400
 20
    25.400
 11
   -25.400
 21
   -25.400
  0
LINE
  8
1
 10
   -25.400
 20
    25.400
 11
    25.400
 21
   -25.400
  0
ENDBLK
  8
1
  0
BLOCK
  8
1
  2
BOLT_5
 70
     0
 10
 0.00     
 20
 0.00     
  0
LINE
  8
1
 10
    31.750
 20
 0.00     
 11
   -31.750
 21
 0.00     
  0
LINE
  8
1
 10
 0.00     
 20
    25.400
 11
 0.00     
 21
   -25.400
  0
ENDBLK
  8
1
  0
BLOCK
  8
1
  2
BOLT_6
 70
     0
 10
 0.00     
 20
 0.00     
  0
CIRCLE
  8
1
 10
 0.00     
 20
 0.00     
 40
    25.400
  0
LINE
  8
1
 10
    31.750
 20
 0.00     
 11
   -31.750
 21
 0.00     
  0
LINE
  8
1
 10
 0.00     
 20
    31.750
 11
 0.00     
 21
 0.00     
  0
ENDBLK
  8
1
  0
BLOCK
  8
1
  2
BOLT_7
 70
     0
 10
 0.00     
 20
 0.00     
  0
CIRCLE
  8
1
 10
 0.00     
 20
 0.00     
 40
    25.400
  0
LINE
  8
1
 10
    25.400
 20
    25.400
 11
 0.00     
 21
 0.00     
  0
LINE
  8
1
 10
   -25.400
 20
    25.400
 11
 0.00     
 21
 0.00     
  0
ENDBLK
  8
1
  0
BLOCK
  8
9
  2
HILIGHT
 70
     0
 10
 0.00     
 20
 0.00     
  0
LINE
  8
9
 10
  -337.610
 20
  -153.459
 11
   337.610
 21
  -153.459
  0
LINE
  8
9
 10
  -337.610
 20
   567.799
 11
   337.610
 21
   567.799
  0
LINE
  8
9
 10
  -337.610
 20
  -153.459
 11
  -337.610
 21
   567.799
  0
LINE
  8
9
 10
   337.610
 20
  -153.459
 11
   337.610
 21
   567.799
  0
ENDBLK
  8
9
  0
BLOCK
  8
9
  2
HILIGHT2
 70
     0
 10
 0.00     
 20
 0.00     
  0
LINE
  8
9
 10
  -337.610
 20
  -230.189
 11
   337.610
 21
  -230.189
  0
LINE
  8
9
 10
  -337.610
 20
   644.529
 11
   337.610
 21
   644.529
  0
LINE
  8
9
 10
  -337.610
 20
  -230.189
 11
  -337.610
 21
   644.529
  0
LINE
  8
9
 10
   337.610
 20
  -230.189
 11
   337.610
 21
   644.529
  0
ENDBLK
  8
9
  0
BLOCK
  8
0
  2
DTBLKA
 70
     0
 10
 0.00     
 20
 0.00     
  0
LINE
  8
24
 10
 0.00     
 20
 0.00     
 11
    25.400
 21
 0.00     
  0
LINE
  8
24
 10
    25.400
 20
 0.00     
 11
    25.400
 21
    25.400
  0
LINE
  8
24
 10
    25.400
 20
    25.400
 11
 0.00     
 21
    25.400
  0
LINE
  8
24
 10
 0.00     
 20
    25.400
 11
 0.00     
 21
 0.00     
  0
LINE
  8
19
 10
     2.032
 20
     6.350
 11
     3.302
 21
     6.350
  0
CIRCLE
  8
19
 10
     1.270
 20
     6.350
 40
0.76200000
  0
LINE
  8
19
 10
    12.700
 20
     4.318
 11
    12.700
 21
     3.556
  0
CIRCLE
  8
19
 10
    12.700
 20
     2.794
 40
0.76200000
  0
LINE
  8
19
 10
     2.540
 20
     6.350
 11
    22.860
 21
     6.350
  0
LINE
  8
19
 10
     9.779
 20
    11.430
 11
    15.621
 21
    11.430
  0
LINE
  8
19
 10
     9.779
 20
    20.320
 11
    15.621
 21
    20.320
  0
LINE
  8
19
 10
    15.621
 20
    11.430
 11
    15.621
 21
    20.320
  0
LINE
  8
19
 10
     9.779
 20
    11.430
 11
     9.779
 21
    20.320
  0
INSERT
  8
17
  2
ARROWB
 10
    15.621
 20
    22.963
 41
0.00889000
 42
0.00889000
 43
0.00889000
 50
  360.000
  0
INSERT
  8
17
  2
ARROWB
 10
     9.779
 20
    22.963
 41
0.00889000
 42
0.00889000
 43
0.00889000
 50
  180.000
  0
LINE
  8
17
 10
    15.621
 20
    21.082
 11
    15.621
 21
    23.114
  0
LINE
  8
17
 10
     9.779
 20
    21.082
 11
     9.779
 21
    23.114
  0
LINE
  8
17
 10
    15.621
 20
    22.963
 11
     9.779
 21
    22.963
  0
TEXT
  8
17
 7
SIMPLEX
 10
    13.377
 20
    23.528
 40
    0.452
  1
200
 50
  180.000
  0
INSERT
  8
17
  2
ARROWB
 10
     7.136
 20
    11.430
 41
0.00889000
 42
0.00889000
 43
0.00889000
 50
  270.000
  0
INSERT
  8
17
  2
ARROWB
 10
     7.136
 20
    20.320
 41
0.00889000
 42
0.00889000
 43
0.00889000
 50
   90.000
  0
LINE
  8
17
 10
     9.017
 20
    11.430
 11
     6.985
 21
    11.430
  0
LINE
  8
17
 10
     9.017
 20
    20.320
 11
     6.985
 21
    20.320
  0
LINE
  8
17
 10
     7.136
 20
    11.430
 11
     7.136
 21
    20.320
  0
TEXT
  8
17
 7
SIMPLEX
 10
     7.023
 20
    15.198
 40
    0.452
  1
400
 50
   90.000
  0
INSERT
  8
17
  2
ARROWB
 10
    12.700
 20
     8.787
 41
0.00889000
 42
0.00889000
 43
0.00889000
 50
  360.000
  0
INSERT
  8
17
  2
ARROWB
 10
    11.367
 20
     8.787
 41
0.00889000
 42
0.00889000
 43
0.00889000
 50
  180.000
  0
LINE
  8
17
 10
    12.700
 20
    10.668
 11
    12.700
 21
     8.636
  0
LINE
  8
17
 10
    11.367
 20
    10.668
 11
    11.367
 21
     8.636
  0
LINE
  8
17
 10
    12.700
 20
     8.787
 11
    11.367
 21
     8.787
  0
TEXT
  8
17
 7
SIMPLEX
 10
    11.141
 20
     8.674
 40
    0.452
  1
50
 50
  180.000
  0
INSERT
  8
17
  2
ARROWB
 10
    14.034
 20
     8.787
 41
0.00889000
 42
0.00889000
 43
0.00889000
 50
  360.000
  0
INSERT
  8
17
  2
ARROWB
 10
    12.700
 20
     8.787
 41
0.00889000
 42
0.00889000
 43
0.00889000
 50
  180.000
  0
LINE
  8
17
 10
    14.034
 20
    10.668
 11
    14.034
 21
     8.636
  0
LINE
  8
17
 10
    12.700
 20
    10.668
 11
    12.700
 21
     8.636
  0
LINE
  8
17
 10
    14.034
 20
     8.787
 11
    12.700
 21
     8.787
  0
TEXT
  8
17
 7
SIMPLEX
 10
    15.163
 20
     8.674
 40
    0.452
  1
50
 50
  180.000
  0
INSERT
  8
0
  2
BOLT_0
 10
    11.366
 20
    14.393
 41
0.01600000
 42
0.01600000
 43
0.01600000
 50
    0.000
  0
INSERT
  8
0
  2
BOLT_0
 10
    14.033
 20
    14.393
 41
0.01600000
 42
0.01600000
 43
0.01600000
 50
    0.000
  0
INSERT
  8
0
  2
BOLT_0
 10
    11.366
 20
    17.357
 41
0.01600000
 42
0.01600000
 43
0.01600000
 50
    0.000
  0
INSERT
  8
0
  2
BOLT_0
 10
    14.033
 20
    17.357
 41
0.01600000
 42
0.01600000
 43
0.01600000
 50
    0.000
  0
INSERT
  8
17
  2
ARROWB
 10
    18.264
 20
    11.430
 41
0.00889000
 42
0.00889000
 43
0.00889000
 50
  270.000
  0
INSERT
  8
17
  2
ARROWB
 10
    18.264
 20
    14.393
 41
0.00889000
 42
0.00889000
 43
0.00889000
 50
   90.000
  0
LINE
  8
17
 10
    16.383
 20
    11.430
 11
    18.415
 21
    11.430
  0
LINE
  8
17
 10
    16.383
 20
    14.393
 11
    18.415
 21
    14.393
  0
LINE
  8
17
 10
    18.264
 20
    11.430
 11
    18.264
 21
    14.393
  0
TEXT
  8
17
 7
SIMPLEX
 10
    19.845
 20
    13.137
 40
    0.452
  1
150
 50
  180.000
  0
INSERT
  8
17
  2
ARROWB
 10
    18.264
 20
    14.393
 41
0.00889000
 42
0.00889000
 43
0.00889000
 50
  270.000
  0
INSERT
  8
17
  2
ARROWB
 10
    18.264
 20
    17.357
 41
0.00889000
 42
0.00889000
 43
0.00889000
 50
   90.000
  0
LINE
  8
17
 10
    16.383
 20
    14.393
 11
    18.415
 21
    14.393
  0
LINE
  8
17
 10
    16.383
 20
    17.357
 11
    18.415
 21
    17.357
  0
LINE
  8
17
 10
    18.264
 20
    14.393
 11
    18.264
 21
    17.357
  0
TEXT
  8
17
 7
SIMPLEX
 10
    19.845
 20
    16.101
 40
    0.452
  1
100
 50
  180.000
  0
INSERT
  8
17
  2
ARROWB
 10
    18.264
 20
    17.357
 41
0.00889000
 42
0.00889000
 43
0.00889000
 50
  270.000
  0
INSERT
  8
17
  2
ARROWB
 10
    18.264
 20
    20.320
 41
0.00889000
 42
0.00889000
 43
0.00889000
 50
   90.000
  0
LINE
  8
17
 10
    16.383
 20
    17.357
 11
    18.415
 21
    17.357
  0
LINE
  8
17
 10
    16.383
 20
    20.320
 11
    18.415
 21
    20.320
  0
LINE
  8
17
 10
    18.264
 20
    17.357
 11
    18.264
 21
    20.320
  0
TEXT
  8
17
 7
SIMPLEX
 10
    19.845
 20
    19.064
 40
    0.452
  1
150
 50
  180.000
  0
INSERT
  8
17
  2
ARROWB
 10
    21.200
 20
     6.350
 41
0.00889000
 42
0.00889000
 43
0.00889000
 50
  270.000
  0
INSERT
  8
17
  2
ARROWB
 10
    21.200
 20
    15.875
 41
0.00889000
 42
0.00889000
 43
0.00889000
 50
   90.000
  0
LINE
  8
17
 10
    18.867
 20
     6.350
 11
    21.350
 21
     6.350
  0
LINE
  8
17
 10
    18.867
 20
    15.875
 11
    21.350
 21
    15.875
  0
LINE
  8
17
 10
    21.200
 20
     6.350
 11
    21.200
 21
    15.875
  0
TEXT
  8
17
 7
SIMPLEX
 10
    21.087
 20
    10.435
 40
    0.452
  1
415
 50
   90.000
  0
INSERT
  8
17
  2
ARROWB
 10
    18.264
 20
     6.350
 41
0.00889000
 42
0.00889000
 43
0.00889000
 50
  270.000
  0
INSERT
  8
17
  2
ARROWB
 10
    18.264
 20
    11.430
 41
0.00889000
 42
0.00889000
 43
0.00889000
 50
   90.000
  0
LINE
  8
17
 10
    16.383
 20
     6.350
 11
    18.415
 21
     6.350
  0
LINE
  8
17
 10
    16.383
 20
    11.430
 11
    18.415
 21
    11.430
  0
LINE
  8
17
 10
    18.264
 20
     6.350
 11
    18.264
 21
    11.430
  0
TEXT
  8
17
 7
SIMPLEX
 10
    19.845
 20
     9.116
 40
    0.452
  1
215
 50
  180.000
  0
LINE
  8
1
 10
    10.287
 20
    12.027
 11
    10.287
 21
    12.281
  0
LINE
  8
1
 10
    10.287
 20
    12.281
 11
    15.113
 21
    12.281
  0
LINE
  8
1
 10
    15.113
 20
    12.281
 11
    15.113
 21
    12.027
  0
LINE
  8
1
 10
    15.113
 20
    12.027
 11
    10.287
 21
    12.027
  0
LINE
  8
1
 10
    10.287
 20
    19.723
 11
    10.287
 21
    19.469
  0
LINE
  8
1
 10
    10.287
 20
    19.469
 11
    15.113
 21
    19.469
  0
LINE
  8
1
 10
    15.113
 20
    19.469
 11
    15.113
 21
    19.723
  0
LINE
  8
1
 10
    15.113
 20
    19.723
 11
    10.287
 21
    19.723
  0
LINE
  8
1
 10
    12.573
 20
    12.281
 11
    12.573
 21
    19.469
  0
LINE
  8
1
 10
    12.573
 20
    19.469
 11
    12.827
 21
    19.469
  0
LINE
  8
1
 10
    12.827
 20
    19.469
 11
    12.827
 21
    12.281
  0
LINE
  8
1
 10
    12.827
 20
    12.281
 11
    12.573
 21
    12.281
  0
TEXT
  8
16
 7
SIMPLEX
 10
    24.271
 20
     5.447
 40
    0.452
  1
EW
 50
  180.000
  0
TEXT
  8
18
 7
SIMPLEX
 10
    24.638
 20
0.22580600
 40
    0.452
  1
DETAIL
 50
   90.000
  0
TEXT
  8
13
 7
SIMPLEX
 10
    24.638
 20
     3.161
 40
    0.452
  1
A
 50
   90.000
  0
TEXT
  8
17
 7
SIMPLEX
 10
     1.355
 20
0.22580600
 40
    0.452
  1
Thk=
 50
   90.000
  0
TEXT
  8
16
 7
SIMPLEX
 10
     1.355
 20
     2.032
 40
    0.452
  1
16
 50
   90.000
  0
TEXT
  8
17
 7
SIMPLEX
 10
0.67741808
 20
0.22580600
 40
    0.452
  1
Dia=
 50
   90.000
  0
TEXT
  8
16
 7
SIMPLEX
 10
0.67741808
 20
     2.032
 40
    0.452
  1
20
 50
   90.000
  0
ENDBLK
  8
0
  0
BLOCK
  8
0
  2
DTBLKB
 70
     0
 10
 0.00     
 20
 0.00     
  0
LINE
  8
24
 10
 0.00     
 20
 0.00     
 11
    25.400
 21
 0.00     
  0
LINE
  8
24
 10
    25.400
 20
 0.00     
 11
    25.400
 21
    25.400
  0
LINE
  8
24
 10
    25.400
 20
    25.400
 11
 0.00     
 21
    25.400
  0
LINE
  8
24
 10
 0.00     
 20
    25.400
 11
 0.00     
 21
 0.00     
  0
LINE
  8
19
 10
     2.032
 20
     7.620
 11
     3.302
 21
     7.620
  0
CIRCLE
  8
19
 10
     1.270
 20
     7.620
 40
0.76200000
  0
LINE
  8
19
 10
     8.255
 20
     4.318
 11
     8.255
 21
     3.556
  0
CIRCLE
  8
19
 10
     8.255
 20
     2.794
 40
0.76200000
  0
LINE
  8
19
 10
     3.810
 20
     7.620
 11
    22.860
 21
     7.620
  0
LINE
  8
19
 10
     3.810
 20
     7.620
 11
     3.810
 21
    22.860
  0
INSERT
  8
17
  2
ARROWB
 10
     3.810
 20
     3.707
 41
0.00889000
 42
0.00889000
 43
0.00889000
 50
  180.000
  0
INSERT
  8
17
  2
ARROWB
 10
    12.700
 20
     3.707
 41
0.00889000
 42
0.00889000
 43
0.00889000
 50
    0.000
  0
LINE
  8
17
 10
     3.810
 20
     4.318
 11
     3.810
 21
     3.556
  0
LINE
  8
17
 10
    12.700
 20
     4.318
 11
    12.700
 21
     3.556
  0
LINE
  8
17
 10
     3.810
 20
     3.707
 11
    12.700
 21
     3.707
  0
TEXT
  8
17
 7
SIMPLEX
 10
     7.578
 20
     3.142
 40
    0.452
  1
415
 50
    0.000
  0
LINE
  8
19
 10
     9.779
 20
     8.297
 11
    15.621
 21
     8.297
  0
LINE
  8
19
 10
     9.779
 20
     8.297
 11
     9.779
 21
    22.267
  0
LINE
  8
19
 10
    15.621
 20
     8.297
 11
    15.621
 21
    22.267
  0
LINE
  8
19
 10
     9.779
 20
    22.267
 11
    15.621
 21
    22.267
  0
INSERT
  8
17
  2
ARROWB
 10
     9.779
 20
    23.641
 41
0.00889000
 42
0.00889000
 43
0.00889000
 50
  180.000
  0
INSERT
  8
17
  2
ARROWB
 10
    15.621
 20
    23.641
 41
0.00889000
 42
0.00889000
 43
0.00889000
 50
    0.000
  0
LINE
  8
17
 10
     9.779
 20
    23.029
 11
     9.779
 21
    23.791
  0
LINE
  8
17
 10
    15.621
 20
    23.029
 11
    15.621
 21
    23.791
  0
LINE
  8
17
 10
     9.779
 20
    23.641
 11
    15.621
 21
    23.641
  0
TEXT
  8
17
 7
SIMPLEX
 10
    12.023
 20
    23.754
 40
    0.452
  1
200
 50
    0.000
  0
INSERT
  8
17
  2
ARROWB
 10
     8.406
 20
     8.297
 41
0.00889000
 42
0.00889000
 43
0.00889000
 50
  270.000
  0
INSERT
  8
17
  2
ARROWB
 10
     8.406
 20
    22.267
 41
0.00889000
 42
0.00889000
 43
0.00889000
 50
   90.000
  0
LINE
  8
17
 10
     9.017
 20
     8.297
 11
     8.255
 21
     8.297
  0
LINE
  8
17
 10
     9.017
 20
    22.267
 11
     8.255
 21
    22.267
  0
LINE
  8
17
 10
     8.406
 20
     8.297
 11
     8.406
 21
    22.267
  0
TEXT
  8
17
 7
SIMPLEX
 10
     8.293
 20
    14.605
 40
    0.452
  1
706
 50
   90.000
  0
INSERT
  8
17
  2
ARROWB
 10
    11.366
 20
     6.247
 41
0.00889000
 42
0.00889000
 43
0.00889000
 50
  180.000
  0
INSERT
  8
17
  2
ARROWB
 10
    12.700
 20
     6.247
 41
0.00889000
 42
0.00889000
 43
0.00889000
 50
    0.000
  0
LINE
  8
17
 10
    11.366
 20
     6.858
 11
    11.366
 21
     6.096
  0
LINE
  8
17
 10
    12.700
 20
     6.858
 11
    12.700
 21
     6.096
  0
LINE
  8
17
 10
    11.366
 20
     6.247
 11
    12.700
 21
     6.247
  0
TEXT
  8
17
 7
SIMPLEX
 10
    10.237
 20
     5.569
 40
    0.452
  1
50
 50
    0.000
  0
INSERT
  8
17
  2
ARROWB
 10
    12.700
 20
     6.247
 41
0.00889000
 42
0.00889000
 43
0.00889000
 50
  180.000
  0
INSERT
  8
17
  2
ARROWB
 10
    14.033
 20
     6.247
 41
0.00889000
 42
0.00889000
 43
0.00889000
 50
    0.000
  0
LINE
  8
17
 10
    12.700
 20
     6.858
 11
    12.700
 21
     6.096
  0
LINE
  8
17
 10
    14.033
 20
     6.858
 11
    14.033
 21
     6.096
  0
LINE
  8
17
 10
    12.700
 20
     6.247
 11
    14.033
 21
     6.247
  0
TEXT
  8
17
 7
SIMPLEX
 10
    14.259
 20
     5.569
 40
    0.452
  1
50
 50
    0.000
  0
INSERT
  8
0
  2
BOLT_0
 10
    11.366
 20
     9.125
 41
0.01600000
 42
0.01600000
 43
0.01600000
 50
    0.000
  0
INSERT
  8
0
  2
BOLT_0
 10
    14.033
 20
     9.125
 41
0.01600000
 42
0.01600000
 43
0.01600000
 50
    0.000
  0
INSERT
  8
0
  2
BOLT_0
 10
    11.366
 20
    10.533
 41
0.01600000
 42
0.01600000
 43
0.01600000
 50
    0.000
  0
INSERT
  8
0
  2
BOLT_0
 10
    14.033
 20
    10.533
 41
0.01600000
 42
0.01600000
 43
0.01600000
 50
    0.000
  0
INSERT
  8
0
  2
BOLT_0
 10
    11.366
 20
    20.032
 41
0.01600000
 42
0.01600000
 43
0.01600000
 50
    0.000
  0
INSERT
  8
0
  2
BOLT_0
 10
    14.033
 20
    20.032
 41
0.01600000
 42
0.01600000
 43
0.01600000
 50
    0.000
  0
INSERT
  8
0
  2
BOLT_0
 10
    11.366
 20
    21.439
 41
0.01600000
 42
0.01600000
 43
0.01600000
 50
    0.000
  0
INSERT
  8
0
  2
BOLT_0
 10
    14.033
 20
    21.439
 41
0.01600000
 42
0.01600000
 43
0.01600000
 50
    0.000
  0
INSERT
  8
17
  2
ARROWB
 10
    16.994
 20
     9.125
 41
0.00889000
 42
0.00889000
 43
0.00889000
 50
   90.000
  0
INSERT
  8
17
  2
ARROWB
 10
    16.994
 20
     8.297
 41
0.00889000
 42
0.00889000
 43
0.00889000
 50
  -90.000
  0
LINE
  8
17
 10
    16.383
 20
     9.125
 11
    17.145
 21
     9.125
  0
LINE
  8
17
 10
    16.383
 20
     8.297
 11
    17.145
 21
     8.297
  0
LINE
  8
17
 10
    16.994
 20
     9.125
 11
    16.994
 21
     8.297
  0
TEXT
  8
17
 7
SIMPLEX
 10
    17.220
 20
     8.486
 40
    0.452
  1
75
 50
    0.000
  0
INSERT
  8
17
  2
ARROWB
 10
    16.994
 20
    10.533
 41
0.00889000
 42
0.00889000
 43
0.00889000
 50
   90.000
  0
INSERT
  8
17
  2
ARROWB
 10
    16.994
 20
     9.125
 41
0.00889000
 42
0.00889000
 43
0.00889000
 50
  -90.000
  0
LINE
  8
17
 10
    16.383
 20
    10.533
 11
    17.145
 21
    10.533
  0
LINE
  8
17
 10
    16.383
 20
     9.125
 11
    17.145
 21
     9.125
  0
LINE
  8
17
 10
    16.994
 20
    10.533
 11
    16.994
 21
     9.125
  0
TEXT
  8
17
 7
SIMPLEX
 10
    17.220
 20
     9.603
 40
    0.452
  1
150
 50
    0.000
  0
INSERT
  8
17
  2
ARROWB
 10
    16.994
 20
    20.032
 41
0.00889000
 42
0.00889000
 43
0.00889000
 50
   90.000
  0
INSERT
  8
17
  2
ARROWB
 10
    16.994
 20
    10.533
 41
0.00889000
 42
0.00889000
 43
0.00889000
 50
  -90.000
  0
LINE
  8
17
 10
    16.383
 20
    20.032
 11
    17.145
 21
    20.032
  0
LINE
  8
17
 10
    16.383
 20
    10.533
 11
    17.145
 21
    10.533
  0
LINE
  8
17
 10
    16.994
 20
    20.032
 11
    16.994
 21
    10.533
  0
TEXT
  8
17
 7
SIMPLEX
 10
    17.220
 20
    15.057
 40
    0.452
  1
256
 50
    0.000
  0
INSERT
  8
17
  2
ARROWB
 10
    16.994
 20
    21.439
 41
0.00889000
 42
0.00889000
 43
0.00889000
 50
   90.000
  0
INSERT
  8
17
  2
ARROWB
 10
    16.994
 20
    20.032
 41
0.00889000
 42
0.00889000
 43
0.00889000
 50
  -90.000
  0
LINE
  8
17
 10
    16.383
 20
    21.439
 11
    17.145
 21
    21.439
  0
LINE
  8
17
 10
    16.383
 20
    20.032
 11
    17.145
 21
    20.032
  0
LINE
  8
17
 10
    16.994
 20
    21.439
 11
    16.994
 21
    20.032
  0
TEXT
  8
17
 7
SIMPLEX
 10
    17.220
 20
    20.510
 40
    0.452
  1
150
 50
    0.000
  0
INSERT
  8
17
  2
ARROWB
 10
    16.994
 20
    22.267
 41
0.00889000
 42
0.00889000
 43
0.00889000
 50
   90.000
  0
INSERT
  8
17
  2
ARROWB
 10
    16.994
 20
    21.439
 41
0.00889000
 42
0.00889000
 43
0.00889000
 50
  -90.000
  0
LINE
  8
17
 10
    16.383
 20
    22.267
 11
    17.145
 21
    22.267
  0
LINE
  8
17
 10
    16.383
 20
    21.439
 11
    17.145
 21
    21.439
  0
LINE
  8
17
 10
    16.994
 20
    22.267
 11
    16.994
 21
    21.439
  0
TEXT
  8
17
 7
SIMPLEX
 10
    17.220
 20
    21.628
 40
    0.452
  1
75
 50
    0.000
  0
INSERT
  8
17
  2
ARROWB
 10
    19.574
 20
     7.620
 41
0.00889000
 42
0.00889000
 43
0.00889000
 50
  270.000
  0
INSERT
  8
17
  2
ARROWB
 10
    19.574
 20
    15.282
 41
0.00889000
 42
0.00889000
 43
0.00889000
 50
   90.000
  0
LINE
  8
17
 10
    18.511
 20
     7.620
 11
    19.725
 21
     7.620
  0
LINE
  8
17
 10
    18.511
 20
    15.282
 11
    19.725
 21
    15.282
  0
LINE
  8
17
 10
    19.574
 20
     7.620
 11
    19.574
 21
    15.282
  0
TEXT
  8
17
 7
SIMPLEX
 10
    20.139
 20
    10.774
 40
    0.452
  1
435
 50
   90.000
  0
INSERT
  8
17
  2
ARROWB
 10
    16.994
 20
     8.297
 41
0.00889000
 42
0.00889000
 43
0.00889000
 50
   90.000
  0
INSERT
  8
17
  2
ARROWB
 10
    16.994
 20
     7.620
 41
0.00889000
 42
0.00889000
 43
0.00889000
 50
  -90.000
  0
LINE
  8
17
 10
    16.383
 20
     8.297
 11
    17.145
 21
     8.297
  0
LINE
  8
17
 10
    16.383
 20
     7.620
 11
    17.145
 21
     7.620
  0
LINE
  8
17
 10
    16.994
 20
     8.297
 11
    16.994
 21
     7.620
  0
TEXT
  8
17
 7
SIMPLEX
 10
    17.220
 20
     7.733
 40
    0.452
  1
83
 50
    0.000
  0
LINE
  8
1
 10
    10.287
 20
     9.705
 11
    15.113
 21
     9.705
  0
LINE
  8
1
 10
    10.287
 20
    20.860
 11
    15.113
 21
    20.860
  0
LINE
  8
1
 10
    10.287
 20
     9.705
 11
    10.287
 21
     9.959
  0
LINE
  8
1
 10
    15.113
 20
     9.705
 11
    15.113
 21
     9.959
  0
LINE
  8
1
 10
    10.287
 20
    20.860
 11
    10.287
 21
    20.606
  0
LINE
  8
1
 10
    15.113
 20
    20.860
 11
    15.113
 21
    20.606
  0
LINE
  8
1
 10
    10.287
 20
     9.959
 11
    15.113
 21
     9.959
  0
LINE
  8
1
 10
    10.287
 20
    20.606
 11
    15.113
 21
    20.606
  0
LINE
  8
1
 10
    12.573
 20
     9.959
 11
    12.573
 21
    20.606
  0
LINE
  8
1
 10
    12.827
 20
     9.959
 11
    12.827
 21
    20.606
  0
TEXT
  8
16
 7
SIMPLEX
 10
    24.271
 20
     6.943
 40
    0.452
  1
SW
 50
    0.000
  0
TEXT
  8
16
 7
SIMPLEX
 10
     3.697
 20
    21.957
 40
    0.452
  1
EW
 50
   90.000
  0
TEXT
  8
18
 7
SIMPLEX
 10
0.22580600
 20
0.76200000
 40
    0.452
  1
DETAIL
 50
    0.000
  0
TEXT
  8
13
 7
SIMPLEX
 10
     3.161
 20
0.76200000
 40
    0.452
  1
B
 50
    0.000
  0
TEXT
  8
16
 7
SIMPLEX
 10
0.22580600
 20
    24.723
 40
    0.452
  1
Dia=
 50
    0.000
  0
TEXT
  8
17
 7
SIMPLEX
 10
     2.032
 20
    24.723
 40
    0.452
  1
24
 50
    0.000
  0
TEXT
  8
16
 7
SIMPLEX
 10
0.22580600
 20
    24.045
 40
    0.452
  1
Thk=
 50
    0.000
  0
TEXT
  8
17
 7
SIMPLEX
 10
     2.032
 20
    24.045
 40
    0.452
  1
16
 50
    0.000
  0
LINE
  8
19
 10
    12.598
 20
     8.805
 11
    12.598
 21
     9.705
  0
LINE
  8
19
 10
    12.802
 20
     8.805
 11
    12.802
 21
     9.705
  0
LINE
  8
19
 10
    12.598
 20
     8.805
 11
    12.802
 21
     8.805
  0
LINE
  8
19
 10
    12.598
 20
    21.759
 11
    12.598
 21
    20.860
  0
LINE
  8
19
 10
    12.802
 20
    21.759
 11
    12.802
 21
    20.860
  0
LINE
  8
19
 10
    12.598
 20
    21.759
 11
    12.802
 21
    21.759
  0
ENDBLK
  8
0
  0
BLOCK
  8
0
  2
DTBLKC
 70
     0
 10
 0.00     
 20
 0.00     
  0
LINE
  8
24
 10
 0.00     
 20
 0.00     
 11
    25.400
 21
 0.00     
  0
LINE
  8
24
 10
    25.400
 20
 0.00     
 11
    25.400
 21
    25.400
  0
LINE
  8
24
 10
    25.400
 20
    25.400
 11
 0.00     
 21
    25.400
  0
LINE
  8
24
 10
 0.00     
 20
    25.400
 11
 0.00     
 21
 0.00     
  0
LINE
  8
19
 10
     2.032
 20
     7.620
 11
     3.302
 21
     7.620
  0
CIRCLE
  8
19
 10
     1.270
 20
     7.620
 40
0.76200000
  0
LINE
  8
19
 10
    12.700
 20
     4.318
 11
    12.700
 21
     3.556
  0
CIRCLE
  8
19
 10
    12.700
 20
     2.794
 40
0.76200000
  0
LINE
  8
19
 10
     2.540
 20
     7.620
 11
    22.860
 21
     7.620
  0
LINE
  8
19
 10
     9.779
 20
     8.297
 11
    15.621
 21
     8.297
  0
LINE
  8
19
 10
     9.779
 20
     8.297
 11
     9.779
 21
    22.267
  0
LINE
  8
19
 10
    15.621
 20
     8.297
 11
    15.621
 21
    22.267
  0
LINE
  8
19
 10
     9.779
 20
    22.267
 11
    15.621
 21
    22.267
  0
INSERT
  8
17
  2
ARROWB
 10
     9.779
 20
    23.641
 41
0.00889000
 42
0.00889000
 43
0.00889000
 50
  180.000
  0
INSERT
  8
17
  2
ARROWB
 10
    15.621
 20
    23.641
 41
0.00889000
 42
0.00889000
 43
0.00889000
 50
    0.000
  0
LINE
  8
17
 10
     9.779
 20
    23.029
 11
     9.779
 21
    23.791
  0
LINE
  8
17
 10
    15.621
 20
    23.029
 11
    15.621
 21
    23.791
  0
LINE
  8
17
 10
     9.779
 20
    23.641
 11
    15.621
 21
    23.641
  0
TEXT
  8
17
 7
SIMPLEX
 10
    12.023
 20
    23.754
 40
    0.452
  1
200
 50
    0.000
  0
INSERT
  8
17
  2
ARROWB
 10
     8.406
 20
     8.297
 41
0.00889000
 42
0.00889000
 43
0.00889000
 50
  270.000
  0
INSERT
  8
17
  2
ARROWB
 10
     8.406
 20
    22.267
 41
0.00889000
 42
0.00889000
 43
0.00889000
 50
   90.000
  0
LINE
  8
17
 10
     9.017
 20
     8.297
 11
     8.255
 21
     8.297
  0
LINE
  8
17
 10
     9.017
 20
    22.267
 11
     8.255
 21
    22.267
  0
LINE
  8
17
 10
     8.406
 20
     8.297
 11
     8.406
 21
    22.267
  0
TEXT
  8
17
 7
SIMPLEX
 10
     8.293
 20
    14.605
 40
    0.452
  1
706
 50
   90.000
  0
INSERT
  8
17
  2
ARROWB
 10
    11.366
 20
     6.247
 41
0.00889000
 42
0.00889000
 43
0.00889000
 50
  180.000
  0
INSERT
  8
17
  2
ARROWB
 10
    12.700
 20
     6.247
 41
0.00889000
 42
0.00889000
 43
0.00889000
 50
    0.000
  0
LINE
  8
17
 10
    11.366
 20
     6.858
 11
    11.366
 21
     6.096
  0
LINE
  8
17
 10
    12.700
 20
     6.858
 11
    12.700
 21
     6.096
  0
LINE
  8
17
 10
    11.366
 20
     6.247
 11
    12.700
 21
     6.247
  0
TEXT
  8
17
 7
SIMPLEX
 10
    10.237
 20
     5.569
 40
    0.452
  1
50
 50
    0.000
  0
INSERT
  8
17
  2
ARROWB
 10
    12.700
 20
     6.247
 41
0.00889000
 42
0.00889000
 43
0.00889000
 50
  180.000
  0
INSERT
  8
17
  2
ARROWB
 10
    14.033
 20
     6.247
 41
0.00889000
 42
0.00889000
 43
0.00889000
 50
    0.000
  0
LINE
  8
17
 10
    12.700
 20
     6.858
 11
    12.700
 21
     6.096
  0
LINE
  8
17
 10
    14.033
 20
     6.858
 11
    14.033
 21
     6.096
  0
LINE
  8
17
 10
    12.700
 20
     6.247
 11
    14.033
 21
     6.247
  0
TEXT
  8
17
 7
SIMPLEX
 10
    14.259
 20
     5.569
 40
    0.452
  1
50
 50
    0.000
  0
INSERT
  8
0
  2
BOLT_0
 10
    11.366
 20
     9.125
 41
0.01600000
 42
0.01600000
 43
0.01600000
 50
    0.000
  0
INSERT
  8
0
  2
BOLT_0
 10
    14.033
 20
     9.125
 41
0.01600000
 42
0.01600000
 43
0.01600000
 50
    0.000
  0
INSERT
  8
0
  2
BOLT_0
 10
    11.366
 20
    10.533
 41
0.01600000
 42
0.01600000
 43
0.01600000
 50
    0.000
  0
INSERT
  8
0
  2
BOLT_0
 10
    14.033
 20
    10.533
 41
0.01600000
 42
0.01600000
 43
0.01600000
 50
    0.000
  0
INSERT
  8
0
  2
BOLT_0
 10
    11.366
 20
    20.032
 41
0.01600000
 42
0.01600000
 43
0.01600000
 50
    0.000
  0
INSERT
  8
0
  2
BOLT_0
 10
    14.033
 20
    20.032
 41
0.01600000
 42
0.01600000
 43
0.01600000
 50
    0.000
  0
INSERT
  8
0
  2
BOLT_0
 10
    11.366
 20
    21.439
 41
0.01600000
 42
0.01600000
 43
0.01600000
 50
    0.000
  0
INSERT
  8
0
  2
BOLT_0
 10
    14.033
 20
    21.439
 41
0.01600000
 42
0.01600000
 43
0.01600000
 50
    0.000
  0
INSERT
  8
17
  2
ARROWB
 10
    16.994
 20
     9.125
 41
0.00889000
 42
0.00889000
 43
0.00889000
 50
   90.000
  0
INSERT
  8
17
  2
ARROWB
 10
    16.994
 20
     8.297
 41
0.00889000
 42
0.00889000
 43
0.00889000
 50
  -90.000
  0
LINE
  8
17
 10
    16.383
 20
     9.125
 11
    17.145
 21
     9.125
  0
LINE
  8
17
 10
    16.383
 20
     8.297
 11
    17.145
 21
     8.297
  0
LINE
  8
17
 10
    16.994
 20
     9.125
 11
    16.994
 21
     8.297
  0
TEXT
  8
17
 7
SIMPLEX
 10
    17.220
 20
     8.486
 40
    0.452
  1
75
 50
    0.000
  0
INSERT
  8
17
  2
ARROWB
 10
    16.994
 20
    10.533
 41
0.00889000
 42
0.00889000
 43
0.00889000
 50
   90.000
  0
INSERT
  8
17
  2
ARROWB
 10
    16.994
 20
     9.125
 41
0.00889000
 42
0.00889000
 43
0.00889000
 50
  -90.000
  0
LINE
  8
17
 10
    16.383
 20
    10.533
 11
    17.145
 21
    10.533
  0
LINE
  8
17
 10
    16.383
 20
     9.125
 11
    17.145
 21
     9.125
  0
LINE
  8
17
 10
    16.994
 20
    10.533
 11
    16.994
 21
     9.125
  0
TEXT
  8
17
 7
SIMPLEX
 10
    17.220
 20
     9.603
 40
    0.452
  1
150
 50
    0.000
  0
INSERT
  8
17
  2
ARROWB
 10
    16.994
 20
    20.032
 41
0.00889000
 42
0.00889000
 43
0.00889000
 50
   90.000
  0
INSERT
  8
17
  2
ARROWB
 10
    16.994
 20
    10.533
 41
0.00889000
 42
0.00889000
 43
0.00889000
 50
  -90.000
  0
LINE
  8
17
 10
    16.383
 20
    20.032
 11
    17.145
 21
    20.032
  0
LINE
  8
17
 10
    16.383
 20
    10.533
 11
    17.145
 21
    10.533
  0
LINE
  8
17
 10
    16.994
 20
    20.032
 11
    16.994
 21
    10.533
  0
TEXT
  8
17
 7
SIMPLEX
 10
    17.220
 20
    15.057
 40
    0.452
  1
256
 50
    0.000
  0
INSERT
  8
17
  2
ARROWB
 10
    16.994
 20
    21.439
 41
0.00889000
 42
0.00889000
 43
0.00889000
 50
   90.000
  0
INSERT
  8
17
  2
ARROWB
 10
    16.994
 20
    20.032
 41
0.00889000
 42
0.00889000
 43
0.00889000
 50
  -90.000
  0
LINE
  8
17
 10
    16.383
 20
    21.439
 11
    17.145
 21
    21.439
  0
LINE
  8
17
 10
    16.383
 20
    20.032
 11
    17.145
 21
    20.032
  0
LINE
  8
17
 10
    16.994
 20
    21.439
 11
    16.994
 21
    20.032
  0
TEXT
  8
17
 7
SIMPLEX
 10
    17.220
 20
    20.510
 40
    0.452
  1
150
 50
    0.000
  0
INSERT
  8
17
  2
ARROWB
 10
    16.994
 20
    22.267
 41
0.00889000
 42
0.00889000
 43
0.00889000
 50
   90.000
  0
INSERT
  8
17
  2
ARROWB
 10
    16.994
 20
    21.439
 41
0.00889000
 42
0.00889000
 43
0.00889000
 50
  -90.000
  0
LINE
  8
17
 10
    16.383
 20
    22.267
 11
    17.145
 21
    22.267
  0
LINE
  8
17
 10
    16.383
 20
    21.439
 11
    17.145
 21
    21.439
  0
LINE
  8
17
 10
    16.994
 20
    22.267
 11
    16.994
 21
    21.439
  0
TEXT
  8
17
 7
SIMPLEX
 10
    17.220
 20
    21.628
 40
    0.452
  1
75
 50
    0.000
  0
INSERT
  8
17
  2
ARROWB
 10
    19.574
 20
     7.620
 41
0.00889000
 42
0.00889000
 43
0.00889000
 50
  270.000
  0
INSERT
  8
17
  2
ARROWB
 10
    19.574
 20
    15.282
 41
0.00889000
 42
0.00889000
 43
0.00889000
 50
   90.000
  0
LINE
  8
17
 10
    18.511
 20
     7.620
 11
    19.725
 21
     7.620
  0
LINE
  8
17
 10
    18.511
 20
    15.282
 11
    19.725
 21
    15.282
  0
LINE
  8
17
 10
    19.574
 20
     7.620
 11
    19.574
 21
    15.282
  0
TEXT
  8
17
 7
SIMPLEX
 10
    20.139
 20
    10.774
 40
    0.452
  1
435
 50
   90.000
  0
INSERT
  8
17
  2
ARROWB
 10
    16.994
 20
     8.297
 41
0.00889000
 42
0.00889000
 43
0.00889000
 50
   90.000
  0
INSERT
  8
17
  2
ARROWB
 10
    16.994
 20
     7.620
 41
0.00889000
 42
0.00889000
 43
0.00889000
 50
  -90.000
  0
LINE
  8
17
 10
    16.383
 20
     8.297
 11
    17.145
 21
     8.297
  0
LINE
  8
17
 10
    16.383
 20
     7.620
 11
    17.145
 21
     7.620
  0
LINE
  8
17
 10
    16.994
 20
     8.297
 11
    16.994
 21
     7.620
  0
TEXT
  8
17
 7
SIMPLEX
 10
    17.220
 20
     7.733
 40
    0.452
  1
83
 50
    0.000
  0
LINE
  8
1
 10
    10.287
 20
     9.705
 11
    15.113
 21
     9.705
  0
LINE
  8
1
 10
    10.287
 20
    20.860
 11
    15.113
 21
    20.860
  0
LINE
  8
1
 10
    10.287
 20
     9.705
 11
    10.287
 21
     9.959
  0
LINE
  8
1
 10
    15.113
 20
     9.705
 11
    15.113
 21
     9.959
  0
LINE
  8
1
 10
    10.287
 20
    20.860
 11
    10.287
 21
    20.606
  0
LINE
  8
1
 10
    15.113
 20
    20.860
 11
    15.113
 21
    20.606
  0
LINE
  8
1
 10
    10.287
 20
     9.959
 11
    15.113
 21
     9.959
  0
LINE
  8
1
 10
    10.287
 20
    20.606
 11
    15.113
 21
    20.606
  0
LINE
  8
1
 10
    12.573
 20
     9.959
 11
    12.573
 21
    20.606
  0
LINE
  8
1
 10
    12.827
 20
     9.959
 11
    12.827
 21
    20.606
  0
TEXT
  8
16
 7
SIMPLEX
 10
    24.271
 20
     6.943
 40
    0.452
  1
SW
 50
    0.000
  0
TEXT
  8
18
 7
SIMPLEX
 10
0.22580600
 20
0.76200000
 40
    0.452
  1
DETAIL
 50
    0.000
  0
TEXT
  8
13
 7
SIMPLEX
 10
     3.161
 20
0.76200000
 40
    0.452
  1
C
 50
    0.000
  0
TEXT
  8
16
 7
SIMPLEX
 10
0.22580600
 20
    24.723
 40
    0.452
  1
Dia=
 50
    0.000
  0
TEXT
  8
17
 7
SIMPLEX
 10
     2.032
 20
    24.723
 40
    0.452
  1
24
 50
    0.000
  0
TEXT
  8
16
 7
SIMPLEX
 10
0.22580600
 20
    24.045
 40
    0.452
  1
Thk=
 50
    0.000
  0
TEXT
  8
17
 7
SIMPLEX
 10
     2.032
 20
    24.045
 40
    0.452
  1
16
 50
    0.000
  0
LINE
  8
19
 10
    12.598
 20
     8.805
 11
    12.598
 21
     9.705
  0
LINE
  8
19
 10
    12.802
 20
     8.805
 11
    12.802
 21
     9.705
  0
LINE
  8
19
 10
    12.598
 20
     8.805
 11
    12.802
 21
     8.805
  0
LINE
  8
19
 10
    12.598
 20
    21.759
 11
    12.598
 21
    20.860
  0
LINE
  8
19
 10
    12.802
 20
    21.759
 11
    12.802
 21
    20.860
  0
LINE
  8
19
 10
    12.598
 20
    21.759
 11
    12.802
 21
    21.759
  0
ENDBLK
  8
0
  0
ENDSEC
  0
SECTION
  2
ENTITIES
  0
LINE
  8
22
 10
 0.00     
 20
 0.00     
 11
 63437.855
 21
 0.00     
  0
LINE
  8
22
 10
 63437.855
 20
 0.00     
 11
 63437.855
 21
 44859.633
  0
LINE
  8
22
 10
 63437.855
 20
 44859.633
 11
 0.00     
 21
 44859.633
  0
LINE
  8
22
 10
 0.00     
 20
 44859.633
 11
 0.00     
 21
 0.00     
  0
LINE
  8
0
 10
 39268.035
 20
 0.00     
 11
 39268.035
 21
  4028.304
  0
LINE
  8
0
 10
 39268.035
 20
  4028.304
 11
 63437.855
 21
  4028.304
  0
LINE
  8
0
 10
 39268.035
 20
  1534.592
 11
 63437.855
 21
  1534.592
  0
LINE
  8
0
 10
 39268.035
 20
  2301.888
 11
 63437.855
 21
  2301.888
  0
LINE
  8
0
 10
 39268.035
 20
  3069.184
 11
 63437.855
 21
  3069.184
  0
LINE
  8
0
 10
 42720.863
 20
 0.00     
 11
 42720.863
 21
  3069.184
  0
LINE
  8
0
 10
 51352.945
 20
 0.00     
 11
 51352.945
 21
  3069.184
  0
LINE
  8
0
 10
 51352.945
 20
   767.296
 11
 63437.855
 21
   767.296
  0
LINE
  8
0
 10
 55573.070
 20
  2301.888
 11
 55573.070
 21
  1534.592
  0
LINE
  8
0
 10
 59409.551
 20
  2301.888
 11
 59409.551
 21
  1534.592
  0
LINE
  8
0
 10
 57491.313
 20
  1534.592
 11
 57491.313
 21
   767.296
  0
TEXT
  8
14
 7
SIMPLEX
 10
 43488.160
 20
  3261.008
 40
  575.472
  1
Sivoko Steel Structures Ltd.
 50
    0.000
  0
TEXT
  8
14
 7
SIMPLEX
 10
 39651.680
 20
  2493.712
 40
  383.648
  1
PROJECT
 50
    0.000
  0
TEXT
  8
14
 7
SIMPLEX
 10
 39651.680
 20
  1726.416
 40
  383.648
  1
ID
 50
    0.000
  0
TEXT
  8
14
 7
SIMPLEX
 10
 39651.680
 20
   959.120
 40
  383.648
  1
PROJECT
 50
    0.000
  0
TEXT
  8
14
 7
SIMPLEX
 10
 39651.680
 20
   191.824
 40
  383.648
  1
ADDRESS
 50
    0.000
  0
TEXT
  8
14
 7
SIMPLEX
 10
 43104.512
 20
  2493.712
 40
  383.648
  1
Proposed Warehouse
 50
    0.000
  0
TEXT
  8
14
 7
SIMPLEX
 10
 43104.512
 20
  1726.416
 40
  383.648
  1
111
 50
    0.000
  0
TEXT
  8
14
 7
SIMPLEX
 10
 43104.512
 20
   959.120
 40
  383.648
  1
Proposed Warehouse
 50
    0.000
  0
TEXT
  8
14
 7
SIMPLEX
 10
 43104.512
 20
   191.824
 40
  383.648
  1
 
 50
    0.000
  0
TEXT
  8
14
 7
SIMPLEX
 10
 51736.594
 20
  2493.712
 40
  383.648
  1
ANCHOR BOLT DETAILS
 50
    0.000
  0
TEXT
  8
14
 7
SIMPLEX
 10
 51736.594
 20
  1726.416
 40
  383.648
  1
DESIGN:
 50
    0.000
  0
TEXT
  8
14
 7
SIMPLEX
 10
 51736.594
 20
   959.120
 40
  383.648
  1
DATE:
 50
    0.000
  0
TEXT
  8
14
 7
SIMPLEX
 10
 53693.199
 20
   959.120
 40
  383.648
  1
19/JAN/2026
 50
    0.000
  0
TEXT
  8
14
 7
SIMPLEX
 10
 55956.719
 20
  1726.416
 40
  383.648
  1
DRAFT:
 50
    0.000
  0
TEXT
  8
14
 7
SIMPLEX
 10
 59793.199
 20
  1726.416
 40
  383.648
  1
CHECK:
 50
    0.000
  0
TEXT
  8
14
 7
SIMPLEX
 10
 57683.141
 20
   959.120
 40
  383.648
  1
SHEET
 50
    0.000
  0
TEXT
  8
14
 7
SIMPLEX
 10
 61135.969
 20
   959.120
 40
  383.648
  1
OF
 50
    0.000
  0
TEXT
  8
14
 7
SIMPLEX
 10
 59601.379
 20
   959.120
 40
  383.648
  1
 
 50
    0.000
999
FIELD:@PAGE_ID
  0
TEXT
  8
14
 7
SIMPLEX
 10
 61903.266
 20
   959.120
 40
  383.648
  1
 
 50
    0.000
999
FIELD:@PAGE_TOTAL
  0
INSERT
  8
0
  2
DTBLKA
 10
 0.00     
 20
 44859.633
 41
   475.724
 42
   475.724
 43
   475.724
 50
  -90.000
  0
INSERT
  8
0
  2
DTBLKB
 10
 12083.401
 20
 32776.230
 41
   475.724
 42
   475.724
 43
   475.724
 50
    0.000
  0
INSERT
  8
0
  2
DTBLKC
 10
 24166.805
 20
 32776.230
 41
   475.724
 42
   475.724
 43
   475.724
 50
    0.000
  0
ENDSEC
  0
EOF
