999
SOURCE:MBS   PROGRAM:ROOFDWG   CELL:RoofDwg2   CLASS:PLAN   MODE:
  0
SECTION
  2
HEADER
  9
$ACADVER
  1
AC1009
  9
$EXTMIN
 10
0.00000000
 20
0.00000000
  9
$EXTMAX
 10
69089.8750
 20
48856.4141
  9
$LIMMIN
 10
0.00000000
 20
0.00000000
  9
$LIMMAX
 10
69089.8750
 20
48856.4141
  9
$FILLMODE
 70
     1
  9
$HANDLING
 70
     0
  0
ENDSEC
  0
SECTION
  2
TABLES
  0
TABLE
  2
LTYPE
 70
4
  0
LTYPE
  2
CONTIN
 70
   64
  3
SOLID LINE
  72
   65
 73
    0
 40
 0.000
  0
LTYPE
  2
CENTER
 70
   64
  3
____ _ ____ _ _
  72
   65
 73
    4
 40
4178.3
 49
2611.4
 49
-522.3
 49
522.29
 49
-522.3
  0
LTYPE
  2
DASHED
 70
   64
  3
__ __ __ __ __
  72
   65
 73
    2
 40
783.43
 49
522.29
 49
-259.1
  0
LTYPE
  2
CONTINUOUS
 70
   64
  3
SOLID LINE
  72
   65
 73
    0
 40
 0.000
  0
ENDTAB
  0
TABLE
  2
LAYER
 70
27
  0
LAYER
  2
0
 70
     0
 62
     7
  6
CONTIN
  0
LAYER
  2
1
 70
     0
 62
     7
  6
CONTIN
  0
LAYER
  2
2
 70
     0
 62
     6
  6
CONTIN
  0
LAYER
  2
3
 70
     0
 62
     7
  6
CONTIN
  0
LAYER
  2
4
 70
     0
 62
     7
  6
CONTIN
  0
LAYER
  2
5
 70
     0
 62
     5
  6
DASHED
  0
LAYER
  2
6
 70
     0
 62
     6
  6
CONTIN
  0
LAYER
  2
7
 70
     0
 62
     7
  6
CONTIN
  0
LAYER
  2
8
 70
     0
 62
     8
  6
DASHED
  0
LAYER
  2
9
 70
     0
 62
     9
  6
DASHED
  0
LAYER
  2
10
 70
     0
 62
    10
  6
CONTIN
  0
LAYER
  2
11
 70
     0
 62
     7
  6
CONTIN
  0
LAYER
  2
12
 70
     0
 62
     6
  6
CONTIN
  0
LAYER
  2
13
 70
     0
 62
     1
  6
CONTIN
  0
LAYER
  2
14
 70
     0
 62
     7
  6
CONTIN
  0
LAYER
  2
15
 70
     0
 62
     7
  6
CONTIN
  0
LAYER
  2
16
 70
     0
 62
     7
  6
CONTIN
  0
LAYER
  2
17
 70
     0
 62
     5
  6
CONTIN
  0
LAYER
  2
18
 70
     0
 62
     7
  6
CONTIN
  0
LAYER
  2
19
 70
     0
 62
     7
  6
CONTIN
  0
LAYER
  2
20
 70
     0
 62
     7
  6
CONTIN
  0
LAYER
  2
21
 70
     0
 62
     7
  6
CONTIN
  0
LAYER
  2
22
 70
     0
 62
     7
  6
CONTIN
  0
LAYER
  2
23
 70
     0
 62
     7
  6
DASHED
  0
LAYER
  2
24
 70
     0
 62
     7
  6
CONTIN
  0
LAYER
  2
25
 70
     0
 62
     7
  6
CONTIN
  0
LAYER
  2
26
 70
     0
 62
     7
  6
CONTIN
  0
LAYER
  2
27
 70
     0
 62
     1
  6
CENTER
  0
ENDTAB
  0
TABLE
  2
STYLE
 70
  0
  0
STYLE
  2
SIMPLEX
 70
  0
 40
  0.000
 41
  1.000
 42
  1.000
 50
  0.000
 71
  0
  3
SIMPLEX
  0
STYLE
  2
ROMANS
 70
  0
 40
  0.000
 41
  1.000
 42
  1.000
 50
  0.000
 71
  0
  3
ROMANS
  0
STYLE
  2
OPEN
 70
  0
 40
  0.000
 41
  1.000
 42
  1.000
 50
  0.000
 71
  0
  3
SIMPLEX
  0
STYLE
  2
ARIAL
 70
  0
 40
  0.000
 41
  1.000
 42
  1.000
 50
  0.000
 71
  0
  3
ARIAL.TTF
  0
STYLE
  2
VERDANAB
 70
  0
 40
  0.000
 41
  1.000
 42
  1.000
 50
  0.000
 71
  0
  3
VERDANAB.TTF
  0
ENDTAB
  0
ENDSEC
  0
SECTION
  2
BLOCKS
  0
BLOCK
  8
0
  2
ARROWP
 70
     0
 10
0.00000000
 20
0.00000000
  0
LINE
  8
0
 10
0.00000000
 20
0.00000000
 11
-298.74792
 21
-49.791317
  0
LINE
  8
0
 10
0.00000000
 20
0.00000000
 11
-298.74792
 21
49.7913170
  0
LINE
  8
0
 10
-298.74792
 20
49.7913170
 11
-298.74792
 21
-49.791317
  0
ENDBLK
  8
0
  0
BLOCK
  8
0
  2
ARROW
 70
     0
 10
0.00000000
 20
0.00000000
  0
LINE
  8
0
 10
0.00000000
 20
0.00000000
 11
-298.74792
 21
-49.791317
  0
LINE
  8
0
 10
0.00000000
 20
0.00000000
 11
-298.74792
 21
49.7913170
  0
LINE
  8
0
 10
-298.74792
 20
49.7913170
 11
-298.74792
 21
-49.791317
  0
ENDBLK
  8
0
  0
BLOCK
  8
0
  2
HEXAGON
 70
     0
 10
0.00000000
 20
0.00000000
  0
LINE
  8
0
 10
0.00000000
 20
0.00000000
 11
7.62000084
 21
-10.160000
  0
LINE
  8
0
 10
7.62000084
 20
-10.160000
 11
17.7799988
 21
-10.160000
  0
LINE
  8
0
 10
17.7799988
 20
-10.160000
 11
25.3999996
 21
0.00000000
  0
LINE
  8
0
 10
25.3999996
 20
0.00000000
 11
17.7799988
 21
10.1599999
  0
LINE
  8
0
 10
17.7799988
 20
10.1599999
 11
7.62000084
 21
10.1599999
  0
LINE
  8
0
 10
7.62000084
 20
10.1599999
 11
0.00000000
 21
0.00000000
  0
ENDBLK
  8
0
  0
BLOCK
  8
0
  2
DIAMOND
 70
     0
 10
0.00000000
 20
0.00000000
  0
LINE
  8
0
 10
0.00000000
 20
0.00000000
 11
12.6999998
 21
12.6999998
  0
LINE
  8
0
 10
12.6999998
 20
12.6999998
 11
0.00000000
 21
25.3999996
  0
LINE
  8
0
 10
0.00000000
 20
25.3999996
 11
-12.700000
 21
12.6999998
  0
LINE
  8
0
 10
-12.700000
 20
12.6999998
 11
0.00000000
 21
0.00000000
  0
ENDBLK
  8
0
  0
BLOCK
  8
0
  2
SKYLITE
 70
     0
 10
0.00000000
 20
0.00000000
  0
LINE
  8
0
 10
25.3999996
 20
0.00000000
 11
0.00000000
 21
0.00000000
  0
LINE
  8
0
 10
0.00000000
 20
0.00000000
 11
0.00000000
 21
-25.400000
  0
LINE
  8
0
 10
0.00000000
 20
-25.400000
 11
25.3999996
 21
-25.400000
  0
LINE
  8
0
 10
25.3999996
 20
-25.400000
 11
25.3999996
 21
0.00000000
  0
LINE
  8
0
 10
0.00000000
 20
-25.400000
 11
0.00000000
 21
0.00000000
  0
LINE
  8
0
 10
6.34999992
 20
-25.400000
 11
6.34999992
 21
0.00000000
  0
LINE
  8
0
 10
12.6999998
 20
-25.400000
 11
12.6999998
 21
0.00000000
  0
LINE
  8
0
 10
19.0499992
 20
-25.400000
 11
19.0499992
 21
0.00000000
  0
ENDBLK
  8
0
  0
BLOCK
  8
0
  2
CIRCLE
 70
     0
 10
0.00000000
 20
0.00000000
  0
CIRCLE
  8
1
 10
   0.000
 20
   0.000
 40
  25.400
  0
ENDBLK
  8
0
  0
BLOCK
  8
0
  2
CCOL
 70
     0
 10
0.00000000
 20
0.00000000
  0
LINE
  8
0
 10
10.1599999
 20
-2.5400000
 11
10.1599999
 21
0.00000000
  0
LINE
  8
0
 10
10.1599999
 20
0.00000000
 11
0.00000000
 21
0.00000000
  0
LINE
  8
0
 10
0.00000000
 20
0.00000000
 11
0.00000000
 21
-25.400000
  0
LINE
  8
0
 10
0.00000000
 20
-25.400000
 11
10.1599999
 21
-25.400000
  0
LINE
  8
0
 10
10.1599999
 20
-25.400000
 11
10.1599999
 21
-22.859999
  0
ENDBLK
  8
0
  0
BLOCK
  8
0
  2
UCOL
 70
     0
 10
0.00000000
 20
0.00000000
  0
LINE
  8
0
 10
10.1599999
 20
0.00000000
 11
0.00000000
 21
0.00000000
  0
LINE
  8
0
 10
0.00000000
 20
0.00000000
 11
0.00000000
 21
-25.400000
  0
LINE
  8
0
 10
0.00000000
 20
-25.400000
 11
10.1599999
 21
-25.400000
  0
ENDBLK
  8
0
  0
BLOCK
  8
0
  2
WCOL
 70
     0
 10
0.00000000
 20
0.00000000
  0
LINE
  8
0
 10
-10.160000
 20
0.00000000
 11
10.1599999
 21
0.00000000
  0
LINE
  8
0
 10
0.00000000
 20
0.00000000
 11
0.00000000
 21
-25.400000
  0
LINE
  8
0
 10
-10.160000
 20
-25.400000
 11
10.1599999
 21
-25.400000
  0
ENDBLK
  8
0
  0
BLOCK
  8
0
  2
TCOL
 70
     0
 10
0.00000000
 20
0.00000000
  0
LINE
  8
0
 10
-12.700000
 20
-12.700000
 11
12.6999998
 21
-12.700000
  0
LINE
  8
0
 10
12.6999998
 20
-12.700000
 11
12.6999998
 21
12.6999998
  0
LINE
  8
0
 10
12.6999998
 20
12.6999998
 11
-12.700000
 21
12.6999998
  0
LINE
  8
0
 10
-12.700000
 20
12.6999998
 11
-12.700000
 21
-12.700000
  0
ENDBLK
  8
0
  0
BLOCK
  8
0
  2
TCOL2
 70
     0
 10
0.00000000
 20
0.00000000
  0
LINE
  8
0
 10
-6.3499999
 20
-12.700000
 11
6.34999992
 21
-12.700000
  0
LINE
  8
0
 10
6.34999992
 20
-12.700000
 11
6.34999992
 21
12.6999998
  0
LINE
  8
0
 10
6.34999992
 20
12.6999998
 11
-6.3499999
 21
12.6999998
  0
LINE
  8
0
 10
-6.3499999
 20
12.6999998
 11
-6.3499999
 21
-12.700000
  0
ENDBLK
  8
0
  0
BLOCK
  8
1
  2
PCOL
 70
     0
 10
0.00000000
 20
0.00000000
  0
CIRCLE
  8
1
 10
0.00000000
 20
0.00000000
 40
12.6999998
  0
ENDBLK
  8
1
  0
BLOCK
  8
0
  2
DCOL
 70
     0
 10
0.00000000
 20
0.00000000
  0
INSERT
  8
0
  2
CCOL
 10
2.53999996
 20
0.00000000
 41
1.00000000
 42
1.00000000
 43
1.00000000
 50
   0.000
  0
INSERT
  8
0
  2
CCOL
 10
-2.5400000
 20
0.00000000
 41
-1.0000000
 42
1.00000000
 43
1.00000000
 50
   0.000
  0
ENDBLK
  8
0
  0
BLOCK
  8
0
  2
GCOL
 70
     0
 10
0.00000000
 20
0.00000000
  0
LINE
  8
0
 10
10.1599999
 20
-2.5400000
 11
10.1599999
 21
0.00000000
  0
LINE
  8
0
 10
10.1599999
 20
0.00000000
 11
0.00000000
 21
0.00000000
  0
LINE
  8
0
 10
0.00000000
 20
0.00000000
 11
0.00000000
 21
-25.400000
  0
LINE
  8
0
 10
0.00000000
 20
-25.400000
 11
25.3999996
 21
-25.400000
  0
LINE
  8
0
 10
25.3999996
 20
-25.400000
 11
25.3999996
 21
-15.240001
  0
LINE
  8
0
 10
25.3999996
 20
-15.240001
 11
22.8599987
 21
-15.240001
  0
ENDBLK
  8
0
  0
BLOCK
  8
0
  2
ZCOL
 70
     0
 10
0.00000000
 20
0.00000000
  0
LINE
  8
0
 10
10.1599999
 20
-2.5400000
 11
10.1599999
 21
0.00000000
  0
LINE
  8
0
 10
10.1599999
 20
0.00000000
 11
0.00000000
 21
0.00000000
  0
LINE
  8
0
 10
0.00000000
 20
0.00000000
 11
0.00000000
 21
-25.400000
  0
LINE
  8
0
 10
0.00000000
 20
-25.400000
 11
-10.160000
 21
-25.400000
  0
LINE
  8
0
 10
-10.160000
 20
-25.400000
 11
-10.160000
 21
-22.859999
  0
ENDBLK
  8
0
  0
BLOCK
  8
0
  2
XCOL
 70
     0
 10
0.00000000
 20
0.00000000
  0
LINE
  8
0
 10
-14.287499
 20
1.58749996
 11
14.2874994
 21
1.58749996
  0
LINE
  8
0
 10
14.2874994
 20
1.58749996
 11
14.2874994
 21
-26.987499
  0
LINE
  8
0
 10
14.2874994
 20
-26.987499
 11
-14.287499
 21
-26.987499
  0
LINE
  8
0
 10
-14.287499
 20
-26.987499
 11
-14.287499
 21
1.58749996
  0
ENDBLK
  8
0
  0
BLOCK
  8
0
  2
SHIELD
 70
     0
 10
0.00000000
 20
0.00000000
  0
ARC
  8
0
 10
0.00000000
 20
38.0999985
 40
12.6999998
 50
   0.000
 51
 180.000
  0
LINE
  8
0
 10
-12.700000
 20
38.0999985
 11
-12.700000
 21
12.6999998
  0
LINE
  8
0
 10
-12.700000
 20
12.6999998
 11
0.00000000
 21
0.00000000
  0
LINE
  8
0
 10
0.00000000
 20
0.00000000
 11
12.6999998
 21
12.6999998
  0
LINE
  8
0
 10
12.6999998
 20
12.6999998
 11
12.6999998
 21
38.0999985
  0
ENDBLK
  8
0
  0
BLOCK
  8
7
  2
CUTSEC
 70
     0
 10
0.00000000
 20
0.00000000
  0
LINE
  8
7
 10
-344.70917
 20
0.00000000
 11
-114.90305
 21
0.00000000
  0
LINE
  8
7
 10
114.903053
 20
0.00000000
 11
344.709137
 21
0.00000000
  0
LINE
  8
7
 10
344.709137
 20
0.00000000
 11
344.709137
 21
137.883667
  0
INSERT
  8
7
  2
ARROWP
 10
344.709137
 20
436.631592
 41
1.00000000
 42
1.00000000
 43
1.00000000
 50
  90.000
  0
ENDBLK
  8
7
  0
BLOCK
  8
7
  2
DETAIL
 70
     0
 10
0.00000000
 20
0.00000000
  0
CIRCLE
  8
7
 10
0.00000000
 20
0.00000000
 40
114.903053
  0
LINE
  8
7
 10
114.903053
 20
0.00000000
 11
505.573395
 21
0.00000000
  0
ENDBLK
  8
7
  0
BLOCK
  8
0
  2
ROFSHT
 70
     0
 10
0.00000000
 20
0.00000000
  0
LINE
  8
5
 10
0.00000000
 20
0.00000000
 11
0.00000000
 21
12200.0000
  0
LINE
  8
5
 10
0.00000000
 20
0.00000000
 11
0.00000000
 21
0.00000000
  0
LINE
  8
5
 10
0.00000000
 20
0.00000000
 11
45730.0000
 21
0.00000000
  0
LINE
  8
5
 10
45730.0000
 20
0.00000000
 11
45730.0000
 21
12200.0000
  0
LINE
  8
5
 10
45730.0000
 20
0.00000000
 11
45730.0000
 21
0.00000000
  0
LINE
  8
5
 10
0.00000000
 20
12200.0000
 11
45730.0000
 21
12200.0000
999
START:   AREA=Extension OutLines
  0
LINE
  8
5
 10
-2527.8672
 20
6100.00000
 11
-2527.8672
 21
0.00000000
  0
LINE
  8
5
 10
-5527.8672
 20
6100.00000
 11
-2527.8672
 21
6100.00000
  0
LINE
  8
5
 10
-5527.8672
 20
0.00000000
 11
-5527.8672
 21
6100.00000
  0
LINE
  8
5
 10
-2527.8672
 20
0.00000000
 11
-5527.8672
 21
0.00000000
  0
LINE
  8
5
 10
48257.8672
 20
6100.00000
 11
48257.8672
 21
12200.0000
  0
LINE
  8
5
 10
51257.8672
 20
6100.00000
 11
48257.8672
 21
6100.00000
  0
LINE
  8
5
 10
51257.8672
 20
12200.0000
 11
51257.8672
 21
6100.00000
  0
LINE
  8
5
 10
48257.8672
 20
12200.0000
 11
51257.8672
 21
12200.0000
999
END:     AREA=Extension OutLines
  0
LINE
  8
1
 10
-135.00105
 20
12349.2549
 11
-135.00105
 21
6428.56152
  0
LINE
  8
1
 10
-135.00105
 20
6428.56152
 11
864.998962
 21
6428.56152
  0
LINE
  8
1
 10
864.998962
 20
6428.56152
 11
864.998962
 21
12349.2549
  0
LINE
  8
1
 10
864.998962
 20
12349.2549
 11
-135.00105
 21
12349.2549
  0
TEXT
  8
3
 7
SIMPLEX
 10
508.627777
 20
8814.39258
 40
287.257629
  1
RS-1
 50
  90.000
  0
LINE
  8
1
 10
864.998962
 20
12349.2549
 11
864.998962
 21
6428.56152
  0
LINE
  8
1
 10
864.998962
 20
6428.56152
 11
1864.99890
 21
6428.56152
  0
LINE
  8
1
 10
1864.99890
 20
6428.56152
 11
1864.99890
 21
12349.2549
  0
LINE
  8
1
 10
1864.99890
 20
12349.2549
 11
864.998962
 21
12349.2549
  0
TEXT
  8
3
 7
SIMPLEX
 10
1508.62781
 20
8814.39258
 40
287.257629
  1
RS-1
 50
  90.000
  0
LINE
  8
1
 10
1864.99890
 20
12349.2549
 11
1864.99890
 21
6428.56152
  0
LINE
  8
1
 10
1864.99890
 20
6428.56152
 11
2864.99902
 21
6428.56152
  0
LINE
  8
1
 10
2864.99902
 20
6428.56152
 11
2864.99902
 21
12349.2549
  0
LINE
  8
1
 10
2864.99902
 20
12349.2549
 11
1864.99890
 21
12349.2549
  0
TEXT
  8
3
 7
SIMPLEX
 10
2508.62793
 20
8814.39258
 40
287.257629
  1
RS-1
 50
  90.000
  0
LINE
  8
1
 10
2864.99902
 20
12349.2549
 11
2864.99902
 21
6428.56152
  0
LINE
  8
1
 10
2864.99902
 20
6428.56152
 11
3864.99902
 21
6428.56152
  0
LINE
  8
1
 10
3864.99902
 20
6428.56152
 11
3864.99902
 21
12349.2549
  0
LINE
  8
1
 10
3864.99902
 20
12349.2549
 11
2864.99902
 21
12349.2549
  0
TEXT
  8
3
 7
SIMPLEX
 10
3508.62793
 20
8814.39258
 40
287.257629
  1
RS-1
 50
  90.000
  0
LINE
  8
1
 10
3864.99902
 20
12349.2549
 11
3864.99902
 21
6428.56152
  0
LINE
  8
1
 10
3864.99902
 20
6428.56152
 11
4864.99902
 21
6428.56152
  0
LINE
  8
1
 10
4864.99902
 20
6428.56152
 11
4864.99902
 21
12349.2549
  0
LINE
  8
1
 10
4864.99902
 20
12349.2549
 11
3864.99902
 21
12349.2549
  0
TEXT
  8
3
 7
SIMPLEX
 10
4508.62793
 20
8814.39258
 40
287.257629
  1
RS-1
 50
  90.000
  0
LINE
  8
1
 10
4864.99902
 20
12349.2549
 11
4864.99902
 21
6428.56152
  0
LINE
  8
1
 10
4864.99902
 20
6428.56152
 11
5864.99951
 21
6428.56152
  0
LINE
  8
1
 10
5864.99951
 20
6428.56152
 11
5864.99951
 21
12349.2549
  0
LINE
  8
1
 10
5864.99951
 20
12349.2549
 11
4864.99902
 21
12349.2549
  0
TEXT
  8
3
 7
SIMPLEX
 10
5508.62793
 20
8814.39258
 40
287.257629
  1
RS-1
 50
  90.000
  0
LINE
  8
1
 10
5864.99902
 20
12349.2549
 11
5864.99902
 21
6428.56152
  0
LINE
  8
1
 10
5864.99902
 20
6428.56152
 11
6864.99854
 21
6428.56152
  0
LINE
  8
1
 10
6864.99854
 20
6428.56152
 11
6864.99854
 21
12349.2549
  0
LINE
  8
1
 10
6864.99854
 20
12349.2549
 11
5864.99902
 21
12349.2549
  0
TEXT
  8
3
 7
SIMPLEX
 10
6508.62744
 20
8814.39258
 40
287.257629
  1
RS-1
 50
  90.000
  0
LINE
  8
1
 10
6864.99854
 20
12349.2549
 11
6864.99854
 21
6428.56152
  0
LINE
  8
1
 10
6864.99854
 20
6428.56152
 11
7864.99902
 21
6428.56152
  0
LINE
  8
1
 10
7864.99902
 20
6428.56152
 11
7864.99902
 21
12349.2549
  0
LINE
  8
1
 10
7864.99902
 20
12349.2549
 11
6864.99854
 21
12349.2549
  0
TEXT
  8
3
 7
SIMPLEX
 10
7508.62744
 20
8814.39258
 40
287.257629
  1
RS-1
 50
  90.000
  0
LINE
  8
1
 10
7864.99902
 20
12349.2549
 11
7864.99902
 21
6428.56152
  0
LINE
  8
1
 10
7864.99902
 20
6428.56152
 11
8864.99902
 21
6428.56152
  0
LINE
  8
1
 10
8864.99902
 20
6428.56152
 11
8864.99902
 21
12349.2549
  0
LINE
  8
1
 10
8864.99902
 20
12349.2549
 11
7864.99902
 21
12349.2549
  0
TEXT
  8
3
 7
SIMPLEX
 10
8508.62695
 20
8814.39258
 40
287.257629
  1
RS-1
 50
  90.000
  0
LINE
  8
1
 10
8864.99902
 20
12349.2549
 11
8864.99902
 21
6428.56152
  0
LINE
  8
1
 10
8864.99902
 20
6428.56152
 11
9864.99902
 21
6428.56152
  0
LINE
  8
1
 10
9864.99902
 20
6428.56152
 11
9864.99902
 21
12349.2549
  0
LINE
  8
1
 10
9864.99902
 20
12349.2549
 11
8864.99902
 21
12349.2549
  0
TEXT
  8
3
 7
SIMPLEX
 10
9508.62695
 20
8814.39258
 40
287.257629
  1
RS-1
 50
  90.000
  0
LINE
  8
1
 10
9864.99902
 20
12349.2549
 11
9864.99902
 21
6428.56152
  0
LINE
  8
1
 10
9864.99902
 20
6428.56152
 11
10864.9990
 21
6428.56152
  0
LINE
  8
1
 10
10864.9990
 20
6428.56152
 11
10864.9990
 21
12349.2549
  0
LINE
  8
1
 10
10864.9990
 20
12349.2549
 11
9864.99902
 21
12349.2549
  0
TEXT
  8
3
 7
SIMPLEX
 10
10508.6270
 20
8814.39258
 40
287.257629
  1
RS-1
 50
  90.000
  0
LINE
  8
1
 10
10864.9990
 20
12349.2549
 11
10864.9990
 21
6428.56152
  0
LINE
  8
1
 10
10864.9990
 20
6428.56152
 11
11864.9990
 21
6428.56152
  0
LINE
  8
1
 10
11864.9990
 20
6428.56152
 11
11864.9990
 21
12349.2549
  0
LINE
  8
1
 10
11864.9990
 20
12349.2549
 11
10864.9990
 21
12349.2549
  0
TEXT
  8
3
 7
SIMPLEX
 10
11508.6270
 20
8814.39258
 40
287.257629
  1
RS-1
 50
  90.000
  0
LINE
  8
1
 10
11864.9990
 20
12349.2549
 11
11864.9990
 21
6428.56152
  0
LINE
  8
1
 10
11864.9990
 20
6428.56152
 11
12864.9990
 21
6428.56152
  0
LINE
  8
1
 10
12864.9990
 20
6428.56152
 11
12864.9990
 21
12349.2549
  0
LINE
  8
1
 10
12864.9990
 20
12349.2549
 11
11864.9990
 21
12349.2549
  0
TEXT
  8
3
 7
SIMPLEX
 10
12508.6270
 20
8814.39258
 40
287.257629
  1
RS-1
 50
  90.000
  0
LINE
  8
1
 10
12864.9990
 20
12349.2549
 11
12864.9990
 21
6428.56152
  0
LINE
  8
1
 10
12864.9990
 20
6428.56152
 11
13864.9980
 21
6428.56152
  0
LINE
  8
1
 10
13864.9980
 20
6428.56152
 11
13864.9980
 21
12349.2549
  0
LINE
  8
1
 10
13864.9980
 20
12349.2549
 11
12864.9990
 21
12349.2549
  0
TEXT
  8
3
 7
SIMPLEX
 10
13508.6270
 20
8814.39258
 40
287.257629
  1
RS-1
 50
  90.000
  0
LINE
  8
1
 10
13864.9980
 20
12349.2549
 11
13864.9980
 21
6428.56152
  0
LINE
  8
1
 10
13864.9980
 20
6428.56152
 11
14864.9980
 21
6428.56152
  0
LINE
  8
1
 10
14864.9980
 20
6428.56152
 11
14864.9980
 21
12349.2549
  0
LINE
  8
1
 10
14864.9980
 20
12349.2549
 11
13864.9980
 21
12349.2549
  0
TEXT
  8
3
 7
SIMPLEX
 10
14508.6270
 20
8814.39258
 40
287.257629
  1
RS-1
 50
  90.000
  0
LINE
  8
1
 10
14864.9980
 20
12349.2549
 11
14864.9980
 21
6428.56152
  0
LINE
  8
1
 10
14864.9980
 20
6428.56152
 11
15864.9980
 21
6428.56152
  0
LINE
  8
1
 10
15864.9980
 20
6428.56152
 11
15864.9980
 21
12349.2549
  0
LINE
  8
1
 10
15864.9980
 20
12349.2549
 11
14864.9980
 21
12349.2549
  0
TEXT
  8
3
 7
SIMPLEX
 10
15508.6270
 20
8814.39258
 40
287.257629
  1
RS-1
 50
  90.000
  0
LINE
  8
1
 10
15864.9980
 20
12349.2549
 11
15864.9980
 21
6428.56152
  0
LINE
  8
1
 10
15864.9980
 20
6428.56152
 11
16864.9980
 21
6428.56152
  0
LINE
  8
1
 10
16864.9980
 20
6428.56152
 11
16864.9980
 21
12349.2549
  0
LINE
  8
1
 10
16864.9980
 20
12349.2549
 11
15864.9980
 21
12349.2549
  0
TEXT
  8
3
 7
SIMPLEX
 10
16508.6270
 20
8814.39258
 40
287.257629
  1
RS-1
 50
  90.000
  0
LINE
  8
1
 10
16864.9980
 20
12349.2549
 11
16864.9980
 21
6428.56152
  0
LINE
  8
1
 10
16864.9980
 20
6428.56152
 11
17864.9980
 21
6428.56152
  0
LINE
  8
1
 10
17864.9980
 20
6428.56152
 11
17864.9980
 21
12349.2549
  0
LINE
  8
1
 10
17864.9980
 20
12349.2549
 11
16864.9980
 21
12349.2549
  0
TEXT
  8
3
 7
SIMPLEX
 10
17508.6270
 20
8814.39258
 40
287.257629
  1
RS-1
 50
  90.000
  0
LINE
  8
1
 10
17865.0000
 20
12349.2549
 11
17865.0000
 21
6428.56152
  0
LINE
  8
1
 10
17865.0000
 20
6428.56152
 11
18864.9980
 21
6428.56152
  0
LINE
  8
1
 10
18864.9980
 20
6428.56152
 11
18864.9980
 21
12349.2549
  0
LINE
  8
1
 10
18864.9980
 20
12349.2549
 11
17865.0000
 21
12349.2549
  0
TEXT
  8
3
 7
SIMPLEX
 10
18508.6289
 20
8814.39258
 40
287.257629
  1
RS-1
 50
  90.000
  0
LINE
  8
1
 10
18864.9980
 20
12349.2549
 11
18864.9980
 21
6428.56152
  0
LINE
  8
1
 10
18864.9980
 20
6428.56152
 11
19864.9980
 21
6428.56152
  0
LINE
  8
1
 10
19864.9980
 20
6428.56152
 11
19864.9980
 21
12349.2549
  0
LINE
  8
1
 10
19864.9980
 20
12349.2549
 11
18864.9980
 21
12349.2549
  0
TEXT
  8
3
 7
SIMPLEX
 10
19508.6270
 20
8814.39258
 40
287.257629
  1
RS-1
 50
  90.000
  0
LINE
  8
1
 10
19865.0000
 20
12349.2549
 11
19865.0000
 21
6428.56152
  0
LINE
  8
1
 10
19865.0000
 20
6428.56152
 11
20864.9980
 21
6428.56152
  0
LINE
  8
1
 10
20864.9980
 20
6428.56152
 11
20864.9980
 21
12349.2549
  0
LINE
  8
1
 10
20864.9980
 20
12349.2549
 11
19865.0000
 21
12349.2549
  0
TEXT
  8
3
 7
SIMPLEX
 10
20508.6289
 20
8814.39258
 40
287.257629
  1
RS-1
 50
  90.000
  0
LINE
  8
1
 10
20864.9980
 20
12349.2549
 11
20864.9980
 21
6428.56152
  0
LINE
  8
1
 10
20864.9980
 20
6428.56152
 11
21864.9980
 21
6428.56152
  0
LINE
  8
1
 10
21864.9980
 20
6428.56152
 11
21864.9980
 21
12349.2549
  0
LINE
  8
1
 10
21864.9980
 20
12349.2549
 11
20864.9980
 21
12349.2549
  0
TEXT
  8
3
 7
SIMPLEX
 10
21508.6270
 20
8814.39258
 40
287.257629
  1
RS-1
 50
  90.000
  0
LINE
  8
1
 10
21864.9980
 20
12349.2549
 11
21864.9980
 21
6428.56152
  0
LINE
  8
1
 10
21864.9980
 20
6428.56152
 11
22864.9980
 21
6428.56152
  0
LINE
  8
1
 10
22864.9980
 20
6428.56152
 11
22864.9980
 21
12349.2549
  0
LINE
  8
1
 10
22864.9980
 20
12349.2549
 11
21864.9980
 21
12349.2549
  0
TEXT
  8
3
 7
SIMPLEX
 10
22508.6270
 20
8814.39258
 40
287.257629
  1
RS-1
 50
  90.000
  0
LINE
  8
1
 10
22865.0000
 20
12349.2549
 11
22865.0000
 21
6428.56152
  0
LINE
  8
1
 10
22865.0000
 20
6428.56152
 11
23864.9980
 21
6428.56152
  0
LINE
  8
1
 10
23864.9980
 20
6428.56152
 11
23864.9980
 21
12349.2549
  0
LINE
  8
1
 10
23864.9980
 20
12349.2549
 11
22865.0000
 21
12349.2549
  0
TEXT
  8
3
 7
SIMPLEX
 10
23508.6289
 20
8814.39258
 40
287.257629
  1
RS-1
 50
  90.000
  0
LINE
  8
1
 10
23864.9980
 20
12349.2549
 11
23864.9980
 21
6428.56152
  0
LINE
  8
1
 10
23864.9980
 20
6428.56152
 11
24864.9980
 21
6428.56152
  0
LINE
  8
1
 10
24864.9980
 20
6428.56152
 11
24864.9980
 21
12349.2549
  0
LINE
  8
1
 10
24864.9980
 20
12349.2549
 11
23864.9980
 21
12349.2549
  0
TEXT
  8
3
 7
SIMPLEX
 10
24508.6270
 20
8814.39258
 40
287.257629
  1
RS-1
 50
  90.000
  0
LINE
  8
1
 10
24864.9980
 20
12349.2549
 11
24864.9980
 21
6428.56152
  0
LINE
  8
1
 10
24864.9980
 20
6428.56152
 11
25864.9980
 21
6428.56152
  0
LINE
  8
1
 10
25864.9980
 20
6428.56152
 11
25864.9980
 21
12349.2549
  0
LINE
  8
1
 10
25864.9980
 20
12349.2549
 11
24864.9980
 21
12349.2549
  0
TEXT
  8
3
 7
SIMPLEX
 10
25508.6270
 20
8814.39258
 40
287.257629
  1
RS-1
 50
  90.000
  0
LINE
  8
1
 10
25865.0000
 20
12349.2549
 11
25865.0000
 21
6428.56152
  0
LINE
  8
1
 10
25865.0000
 20
6428.56152
 11
26864.9980
 21
6428.56152
  0
LINE
  8
1
 10
26864.9980
 20
6428.56152
 11
26864.9980
 21
12349.2549
  0
LINE
  8
1
 10
26864.9980
 20
12349.2549
 11
25865.0000
 21
12349.2549
  0
TEXT
  8
3
 7
SIMPLEX
 10
26508.6270
 20
8814.39258
 40
287.257629
  1
RS-1
 50
  90.000
  0
LINE
  8
1
 10
26865.0020
 20
12349.2549
 11
26865.0020
 21
6428.56152
  0
LINE
  8
1
 10
26865.0020
 20
6428.56152
 11
27865.0020
 21
6428.56152
  0
LINE
  8
1
 10
27865.0020
 20
6428.56152
 11
27865.0020
 21
12349.2549
  0
LINE
  8
1
 10
27865.0020
 20
12349.2549
 11
26865.0020
 21
12349.2549
  0
TEXT
  8
3
 7
SIMPLEX
 10
27508.6309
 20
8814.39258
 40
287.257629
  1
RS-1
 50
  90.000
  0
LINE
  8
1
 10
27864.9961
 20
12349.2549
 11
27864.9961
 21
6428.56152
  0
LINE
  8
1
 10
27864.9961
 20
6428.56152
 11
28864.9980
 21
6428.56152
  0
LINE
  8
1
 10
28864.9980
 20
6428.56152
 11
28864.9980
 21
12349.2549
  0
LINE
  8
1
 10
28864.9980
 20
12349.2549
 11
27864.9961
 21
12349.2549
  0
TEXT
  8
3
 7
SIMPLEX
 10
28508.6230
 20
8814.39258
 40
287.257629
  1
RS-1
 50
  90.000
  0
LINE
  8
1
 10
28864.9980
 20
12349.2549
 11
28864.9980
 21
6428.56152
  0
LINE
  8
1
 10
28864.9980
 20
6428.56152
 11
29864.9980
 21
6428.56152
  0
LINE
  8
1
 10
29864.9980
 20
6428.56152
 11
29864.9980
 21
12349.2549
  0
LINE
  8
1
 10
29864.9980
 20
12349.2549
 11
28864.9980
 21
12349.2549
  0
TEXT
  8
3
 7
SIMPLEX
 10
29508.6270
 20
8814.39258
 40
287.257629
  1
RS-1
 50
  90.000
  0
LINE
  8
1
 10
29864.9980
 20
12349.2549
 11
29864.9980
 21
6428.56152
  0
LINE
  8
1
 10
29864.9980
 20
6428.56152
 11
30864.9980
 21
6428.56152
  0
LINE
  8
1
 10
30864.9980
 20
6428.56152
 11
30864.9980
 21
12349.2549
  0
LINE
  8
1
 10
30864.9980
 20
12349.2549
 11
29864.9980
 21
12349.2549
  0
TEXT
  8
3
 7
SIMPLEX
 10
30508.6270
 20
8814.39258
 40
287.257629
  1
RS-1
 50
  90.000
  0
LINE
  8
1
 10
30864.9980
 20
12349.2549
 11
30864.9980
 21
6428.56152
  0
LINE
  8
1
 10
30864.9980
 20
6428.56152
 11
31864.9980
 21
6428.56152
  0
LINE
  8
1
 10
31864.9980
 20
6428.56152
 11
31864.9980
 21
12349.2549
  0
LINE
  8
1
 10
31864.9980
 20
12349.2549
 11
30864.9980
 21
12349.2549
  0
TEXT
  8
3
 7
SIMPLEX
 10
31508.6309
 20
8814.39258
 40
287.257629
  1
RS-1
 50
  90.000
  0
LINE
  8
1
 10
31864.9980
 20
12349.2549
 11
31864.9980
 21
6428.56152
  0
LINE
  8
1
 10
31864.9980
 20
6428.56152
 11
32865.0000
 21
6428.56152
  0
LINE
  8
1
 10
32865.0000
 20
6428.56152
 11
32865.0000
 21
12349.2549
  0
LINE
  8
1
 10
32865.0000
 20
12349.2549
 11
31864.9980
 21
12349.2549
  0
TEXT
  8
3
 7
SIMPLEX
 10
32508.6309
 20
8814.39258
 40
287.257629
  1
RS-1
 50
  90.000
  0
LINE
  8
1
 10
32865.0000
 20
12349.2549
 11
32865.0000
 21
6428.56152
  0
LINE
  8
1
 10
32865.0000
 20
6428.56152
 11
33865.0039
 21
6428.56152
  0
LINE
  8
1
 10
33865.0039
 20
6428.56152
 11
33865.0039
 21
12349.2549
  0
LINE
  8
1
 10
33865.0039
 20
12349.2549
 11
32865.0000
 21
12349.2549
  0
TEXT
  8
3
 7
SIMPLEX
 10
33508.6289
 20
8814.39258
 40
287.257629
  1
RS-1
 50
  90.000
  0
LINE
  8
1
 10
33864.9961
 20
12349.2549
 11
33864.9961
 21
6428.56152
  0
LINE
  8
1
 10
33864.9961
 20
6428.56152
 11
34864.9961
 21
6428.56152
  0
LINE
  8
1
 10
34864.9961
 20
6428.56152
 11
34864.9961
 21
12349.2549
  0
LINE
  8
1
 10
34864.9961
 20
12349.2549
 11
33864.9961
 21
12349.2549
  0
TEXT
  8
3
 7
SIMPLEX
 10
34508.6250
 20
8814.39258
 40
287.257629
  1
RS-1
 50
  90.000
  0
LINE
  8
1
 10
34864.9961
 20
12349.2549
 11
34864.9961
 21
6428.56152
  0
LINE
  8
1
 10
34864.9961
 20
6428.56152
 11
35864.9961
 21
6428.56152
  0
LINE
  8
1
 10
35864.9961
 20
6428.56152
 11
35864.9961
 21
12349.2549
  0
LINE
  8
1
 10
35864.9961
 20
12349.2549
 11
34864.9961
 21
12349.2549
  0
TEXT
  8
3
 7
SIMPLEX
 10
35508.6250
 20
8814.39258
 40
287.257629
  1
RS-1
 50
  90.000
  0
LINE
  8
1
 10
35864.9961
 20
12349.2549
 11
35864.9961
 21
6428.56152
  0
LINE
  8
1
 10
35864.9961
 20
6428.56152
 11
36865.0000
 21
6428.56152
  0
LINE
  8
1
 10
36865.0000
 20
6428.56152
 11
36865.0000
 21
12349.2549
  0
LINE
  8
1
 10
36865.0000
 20
12349.2549
 11
35864.9961
 21
12349.2549
  0
TEXT
  8
3
 7
SIMPLEX
 10
36508.6250
 20
8814.39258
 40
287.257629
  1
RS-1
 50
  90.000
  0
LINE
  8
1
 10
36865.0000
 20
12349.2549
 11
36865.0000
 21
6428.56152
  0
LINE
  8
1
 10
36865.0000
 20
6428.56152
 11
37865.0000
 21
6428.56152
  0
LINE
  8
1
 10
37865.0000
 20
6428.56152
 11
37865.0000
 21
12349.2549
  0
LINE
  8
1
 10
37865.0000
 20
12349.2549
 11
36865.0000
 21
12349.2549
  0
TEXT
  8
3
 7
SIMPLEX
 10
37508.6289
 20
8814.39258
 40
287.257629
  1
RS-1
 50
  90.000
  0
LINE
  8
1
 10
37865.0000
 20
12349.2549
 11
37865.0000
 21
6428.56152
  0
LINE
  8
1
 10
37865.0000
 20
6428.56152
 11
38865.0000
 21
6428.56152
  0
LINE
  8
1
 10
38865.0000
 20
6428.56152
 11
38865.0000
 21
12349.2549
  0
LINE
  8
1
 10
38865.0000
 20
12349.2549
 11
37865.0000
 21
12349.2549
  0
TEXT
  8
3
 7
SIMPLEX
 10
38508.6289
 20
8814.39258
 40
287.257629
  1
RS-1
 50
  90.000
  0
LINE
  8
1
 10
38865.0000
 20
12349.2549
 11
38865.0000
 21
6428.56152
  0
LINE
  8
1
 10
38865.0000
 20
6428.56152
 11
39865.0000
 21
6428.56152
  0
LINE
  8
1
 10
39865.0000
 20
6428.56152
 11
39865.0000
 21
12349.2549
  0
LINE
  8
1
 10
39865.0000
 20
12349.2549
 11
38865.0000
 21
12349.2549
  0
TEXT
  8
3
 7
SIMPLEX
 10
39508.6289
 20
8814.39258
 40
287.257629
  1
RS-1
 50
  90.000
  0
LINE
  8
1
 10
39865.0000
 20
12349.2549
 11
39865.0000
 21
6428.56152
  0
LINE
  8
1
 10
39865.0000
 20
6428.56152
 11
40865.0039
 21
6428.56152
  0
LINE
  8
1
 10
40865.0039
 20
6428.56152
 11
40865.0039
 21
12349.2549
  0
LINE
  8
1
 10
40865.0039
 20
12349.2549
 11
39865.0000
 21
12349.2549
  0
TEXT
  8
3
 7
SIMPLEX
 10
40508.6289
 20
8814.39258
 40
287.257629
  1
RS-1
 50
  90.000
  0
LINE
  8
1
 10
40864.9961
 20
12349.2549
 11
40864.9961
 21
6428.56152
  0
LINE
  8
1
 10
40864.9961
 20
6428.56152
 11
41864.9961
 21
6428.56152
  0
LINE
  8
1
 10
41864.9961
 20
6428.56152
 11
41864.9961
 21
12349.2549
  0
LINE
  8
1
 10
41864.9961
 20
12349.2549
 11
40864.9961
 21
12349.2549
  0
TEXT
  8
3
 7
SIMPLEX
 10
41508.6250
 20
8814.39258
 40
287.257629
  1
RS-1
 50
  90.000
  0
LINE
  8
1
 10
41864.9961
 20
12349.2549
 11
41864.9961
 21
6428.56152
  0
LINE
  8
1
 10
41864.9961
 20
6428.56152
 11
42865.0000
 21
6428.56152
  0
LINE
  8
1
 10
42865.0000
 20
6428.56152
 11
42865.0000
 21
12349.2549
  0
LINE
  8
1
 10
42865.0000
 20
12349.2549
 11
41864.9961
 21
12349.2549
  0
TEXT
  8
3
 7
SIMPLEX
 10
42508.6250
 20
8814.39258
 40
287.257629
  1
RS-1
 50
  90.000
  0
LINE
  8
1
 10
42865.0000
 20
12349.2549
 11
42865.0000
 21
6428.56152
  0
LINE
  8
1
 10
42865.0000
 20
6428.56152
 11
43865.0000
 21
6428.56152
  0
LINE
  8
1
 10
43865.0000
 20
6428.56152
 11
43865.0000
 21
12349.2549
  0
LINE
  8
1
 10
43865.0000
 20
12349.2549
 11
42865.0000
 21
12349.2549
  0
TEXT
  8
3
 7
SIMPLEX
 10
43508.6289
 20
8814.39258
 40
287.257629
  1
RS-1
 50
  90.000
  0
LINE
  8
1
 10
43865.0000
 20
12349.2549
 11
43865.0000
 21
6428.56152
  0
LINE
  8
1
 10
43865.0000
 20
6428.56152
 11
44865.0000
 21
6428.56152
  0
LINE
  8
1
 10
44865.0000
 20
6428.56152
 11
44865.0000
 21
12349.2549
  0
LINE
  8
1
 10
44865.0000
 20
12349.2549
 11
43865.0000
 21
12349.2549
  0
TEXT
  8
3
 7
SIMPLEX
 10
44508.6289
 20
8814.39258
 40
287.257629
  1
RS-1
 50
  90.000
  0
LINE
  8
1
 10
44865.0000
 20
12349.2549
 11
44865.0000
 21
6428.56152
  0
LINE
  8
1
 10
44865.0000
 20
6428.56152
 11
45865.0000
 21
6428.56152
  0
LINE
  8
1
 10
45865.0000
 20
6428.56152
 11
45865.0000
 21
12349.2549
  0
LINE
  8
1
 10
45865.0000
 20
12349.2549
 11
44865.0000
 21
12349.2549
  0
TEXT
  8
3
 7
SIMPLEX
 10
45508.6289
 20
8814.39258
 40
287.257629
  1
RS-1
 50
  90.000
  0
LINE
  8
1
 10
-135.00105
 20
5771.43848
 11
-135.00105
 21
6431.83887
  0
LINE
  8
1
 10
864.998962
 20
5771.43848
 11
864.998962
 21
6431.83887
  0
TEXT
  8
2
 7
SIMPLEX
 10
294.979889
 20
5993.91699
 40
215.443222
  1
1
 50
   0.000
  0
INSERT
  8
2
  2
DIAMOND
 10
364.998932
 20
5778.47412
 41
25.4460488
 42
25.4460488
 43
25.4460488
 50
   0.000
  0
LINE
  8
1
 10
-135.00105
 20
5771.43848
 11
-135.00105
 21
-149.25562
  0
LINE
  8
1
 10
-135.00105
 20
-149.25562
 11
864.998962
 21
-149.25562
  0
LINE
  8
1
 10
864.998962
 20
-149.25562
 11
864.998962
 21
5771.43848
  0
LINE
  8
1
 10
864.998962
 20
5771.43848
 11
-135.00105
 21
5771.43848
  0
TEXT
  8
3
 7
SIMPLEX
 10
508.627777
 20
2236.57617
 40
287.257629
  1
RS-1
 50
  90.000
  0
LINE
  8
1
 10
864.998962
 20
5771.43848
 11
864.998962
 21
6431.83887
  0
LINE
  8
1
 10
1864.99890
 20
5771.43848
 11
1864.99890
 21
6431.83887
  0
LINE
  8
1
 10
864.998962
 20
5771.43848
 11
864.998962
 21
-149.25562
  0
LINE
  8
1
 10
864.998962
 20
-149.25562
 11
1864.99890
 21
-149.25562
  0
LINE
  8
1
 10
1864.99890
 20
-149.25562
 11
1864.99890
 21
5771.43848
  0
LINE
  8
1
 10
1864.99890
 20
5771.43848
 11
864.998962
 21
5771.43848
  0
TEXT
  8
3
 7
SIMPLEX
 10
1508.62781
 20
2236.57617
 40
287.257629
  1
RS-1
 50
  90.000
  0
LINE
  8
1
 10
1864.99890
 20
5771.43848
 11
1864.99890
 21
6431.83887
  0
LINE
  8
1
 10
2864.99902
 20
5771.43848
 11
2864.99902
 21
6431.83887
  0
LINE
  8
1
 10
1864.99890
 20
5771.43848
 11
1864.99890
 21
-149.25562
  0
LINE
  8
1
 10
1864.99890
 20
-149.25562
 11
2864.99902
 21
-149.25562
  0
LINE
  8
1
 10
2864.99902
 20
-149.25562
 11
2864.99902
 21
5771.43848
  0
LINE
  8
1
 10
2864.99902
 20
5771.43848
 11
1864.99890
 21
5771.43848
  0
TEXT
  8
3
 7
SIMPLEX
 10
2508.62793
 20
2236.57617
 40
287.257629
  1
RS-1
 50
  90.000
  0
LINE
  8
1
 10
2864.99902
 20
5771.43848
 11
2864.99902
 21
6431.83887
  0
LINE
  8
1
 10
3864.99902
 20
5771.43848
 11
3864.99902
 21
6431.83887
  0
LINE
  8
1
 10
2864.99902
 20
5771.43848
 11
2864.99902
 21
-149.25562
  0
LINE
  8
1
 10
2864.99902
 20
-149.25562
 11
3864.99902
 21
-149.25562
  0
LINE
  8
1
 10
3864.99902
 20
-149.25562
 11
3864.99902
 21
5771.43848
  0
LINE
  8
1
 10
3864.99902
 20
5771.43848
 11
2864.99902
 21
5771.43848
  0
TEXT
  8
3
 7
SIMPLEX
 10
3508.62793
 20
2236.57617
 40
287.257629
  1
RS-1
 50
  90.000
  0
LINE
  8
1
 10
3864.99902
 20
5771.43848
 11
3864.99902
 21
6431.83887
  0
LINE
  8
1
 10
4864.99902
 20
5771.43848
 11
4864.99902
 21
6431.83887
  0
LINE
  8
1
 10
3864.99902
 20
5771.43848
 11
3864.99902
 21
-149.25562
  0
LINE
  8
1
 10
3864.99902
 20
-149.25562
 11
4864.99902
 21
-149.25562
  0
LINE
  8
1
 10
4864.99902
 20
-149.25562
 11
4864.99902
 21
5771.43848
  0
LINE
  8
1
 10
4864.99902
 20
5771.43848
 11
3864.99902
 21
5771.43848
  0
TEXT
  8
3
 7
SIMPLEX
 10
4508.62793
 20
2236.57617
 40
287.257629
  1
RS-1
 50
  90.000
  0
LINE
  8
1
 10
4864.99902
 20
5771.43848
 11
4864.99902
 21
6431.83887
  0
LINE
  8
1
 10
5864.99951
 20
5771.43848
 11
5864.99951
 21
6431.83887
  0
LINE
  8
1
 10
4864.99902
 20
5771.43848
 11
4864.99902
 21
-149.25562
  0
LINE
  8
1
 10
4864.99902
 20
-149.25562
 11
5864.99951
 21
-149.25562
  0
LINE
  8
1
 10
5864.99951
 20
-149.25562
 11
5864.99951
 21
5771.43848
  0
LINE
  8
1
 10
5864.99951
 20
5771.43848
 11
4864.99902
 21
5771.43848
  0
TEXT
  8
3
 7
SIMPLEX
 10
5508.62793
 20
2236.57617
 40
287.257629
  1
RS-1
 50
  90.000
  0
LINE
  8
1
 10
5864.99902
 20
5771.43848
 11
5864.99902
 21
6431.83887
  0
LINE
  8
1
 10
6864.99854
 20
5771.43848
 11
6864.99854
 21
6431.83887
  0
LINE
  8
1
 10
5864.99902
 20
5771.43848
 11
5864.99902
 21
-149.25562
  0
LINE
  8
1
 10
5864.99902
 20
-149.25562
 11
6864.99854
 21
-149.25562
  0
LINE
  8
1
 10
6864.99854
 20
-149.25562
 11
6864.99854
 21
5771.43848
  0
LINE
  8
1
 10
6864.99854
 20
5771.43848
 11
5864.99902
 21
5771.43848
  0
TEXT
  8
3
 7
SIMPLEX
 10
6508.62744
 20
2236.57617
 40
287.257629
  1
RS-1
 50
  90.000
  0
LINE
  8
1
 10
6864.99854
 20
5771.43848
 11
6864.99854
 21
6431.83887
  0
LINE
  8
1
 10
7864.99902
 20
5771.43848
 11
7864.99902
 21
6431.83887
  0
LINE
  8
1
 10
6864.99854
 20
5771.43848
 11
6864.99854
 21
-149.25562
  0
LINE
  8
1
 10
6864.99854
 20
-149.25562
 11
7864.99902
 21
-149.25562
  0
LINE
  8
1
 10
7864.99902
 20
-149.25562
 11
7864.99902
 21
5771.43848
  0
LINE
  8
1
 10
7864.99902
 20
5771.43848
 11
6864.99854
 21
5771.43848
  0
TEXT
  8
3
 7
SIMPLEX
 10
7508.62744
 20
2236.57617
 40
287.257629
  1
RS-1
 50
  90.000
  0
LINE
  8
1
 10
7864.99902
 20
5771.43848
 11
7864.99902
 21
6431.83887
  0
LINE
  8
1
 10
8864.99902
 20
5771.43848
 11
8864.99902
 21
6431.83887
  0
LINE
  8
1
 10
7864.99902
 20
5771.43848
 11
7864.99902
 21
-149.25562
  0
LINE
  8
1
 10
7864.99902
 20
-149.25562
 11
8864.99902
 21
-149.25562
  0
LINE
  8
1
 10
8864.99902
 20
-149.25562
 11
8864.99902
 21
5771.43848
  0
LINE
  8
1
 10
8864.99902
 20
5771.43848
 11
7864.99902
 21
5771.43848
  0
TEXT
  8
3
 7
SIMPLEX
 10
8508.62695
 20
2236.57617
 40
287.257629
  1
RS-1
 50
  90.000
  0
LINE
  8
1
 10
8864.99902
 20
5771.43848
 11
8864.99902
 21
6431.83887
  0
LINE
  8
1
 10
9864.99902
 20
5771.43848
 11
9864.99902
 21
6431.83887
  0
LINE
  8
1
 10
8864.99902
 20
5771.43848
 11
8864.99902
 21
-149.25562
  0
LINE
  8
1
 10
8864.99902
 20
-149.25562
 11
9864.99902
 21
-149.25562
  0
LINE
  8
1
 10
9864.99902
 20
-149.25562
 11
9864.99902
 21
5771.43848
  0
LINE
  8
1
 10
9864.99902
 20
5771.43848
 11
8864.99902
 21
5771.43848
  0
TEXT
  8
3
 7
SIMPLEX
 10
9508.62695
 20
2236.57617
 40
287.257629
  1
RS-1
 50
  90.000
  0
LINE
  8
1
 10
9864.99902
 20
5771.43848
 11
9864.99902
 21
6431.83887
  0
LINE
  8
1
 10
10864.9990
 20
5771.43848
 11
10864.9990
 21
6431.83887
  0
LINE
  8
1
 10
9864.99902
 20
5771.43848
 11
9864.99902
 21
-149.25562
  0
LINE
  8
1
 10
9864.99902
 20
-149.25562
 11
10864.9990
 21
-149.25562
  0
LINE
  8
1
 10
10864.9990
 20
-149.25562
 11
10864.9990
 21
5771.43848
  0
LINE
  8
1
 10
10864.9990
 20
5771.43848
 11
9864.99902
 21
5771.43848
  0
TEXT
  8
3
 7
SIMPLEX
 10
10508.6270
 20
2236.57617
 40
287.257629
  1
RS-1
 50
  90.000
  0
LINE
  8
1
 10
10864.9990
 20
5771.43848
 11
10864.9990
 21
6431.83887
  0
LINE
  8
1
 10
11864.9990
 20
5771.43848
 11
11864.9990
 21
6431.83887
  0
LINE
  8
1
 10
10864.9990
 20
5771.43848
 11
10864.9990
 21
-149.25562
  0
LINE
  8
1
 10
10864.9990
 20
-149.25562
 11
11864.9990
 21
-149.25562
  0
LINE
  8
1
 10
11864.9990
 20
-149.25562
 11
11864.9990
 21
5771.43848
  0
LINE
  8
1
 10
11864.9990
 20
5771.43848
 11
10864.9990
 21
5771.43848
  0
TEXT
  8
3
 7
SIMPLEX
 10
11508.6270
 20
2236.57617
 40
287.257629
  1
RS-1
 50
  90.000
  0
LINE
  8
1
 10
11864.9990
 20
5771.43848
 11
11864.9990
 21
6431.83887
  0
LINE
  8
1
 10
12864.9990
 20
5771.43848
 11
12864.9990
 21
6431.83887
  0
LINE
  8
1
 10
11864.9990
 20
5771.43848
 11
11864.9990
 21
-149.25562
  0
LINE
  8
1
 10
11864.9990
 20
-149.25562
 11
12864.9990
 21
-149.25562
  0
LINE
  8
1
 10
12864.9990
 20
-149.25562
 11
12864.9990
 21
5771.43848
  0
LINE
  8
1
 10
12864.9990
 20
5771.43848
 11
11864.9990
 21
5771.43848
  0
TEXT
  8
3
 7
SIMPLEX
 10
12508.6270
 20
2236.57617
 40
287.257629
  1
RS-1
 50
  90.000
  0
LINE
  8
1
 10
12864.9990
 20
5771.43848
 11
12864.9990
 21
6431.83887
  0
LINE
  8
1
 10
13864.9980
 20
5771.43848
 11
13864.9980
 21
6431.83887
  0
LINE
  8
1
 10
12864.9990
 20
5771.43848
 11
12864.9990
 21
-149.25562
  0
LINE
  8
1
 10
12864.9990
 20
-149.25562
 11
13864.9980
 21
-149.25562
  0
LINE
  8
1
 10
13864.9980
 20
-149.25562
 11
13864.9980
 21
5771.43848
  0
LINE
  8
1
 10
13864.9980
 20
5771.43848
 11
12864.9990
 21
5771.43848
  0
TEXT
  8
3
 7
SIMPLEX
 10
13508.6270
 20
2236.57617
 40
287.257629
  1
RS-1
 50
  90.000
  0
LINE
  8
1
 10
13864.9980
 20
5771.43848
 11
13864.9980
 21
6431.83887
  0
LINE
  8
1
 10
14864.9980
 20
5771.43848
 11
14864.9980
 21
6431.83887
  0
LINE
  8
1
 10
13864.9980
 20
5771.43848
 11
13864.9980
 21
-149.25562
  0
LINE
  8
1
 10
13864.9980
 20
-149.25562
 11
14864.9980
 21
-149.25562
  0
LINE
  8
1
 10
14864.9980
 20
-149.25562
 11
14864.9980
 21
5771.43848
  0
LINE
  8
1
 10
14864.9980
 20
5771.43848
 11
13864.9980
 21
5771.43848
  0
TEXT
  8
3
 7
SIMPLEX
 10
14508.6270
 20
2236.57617
 40
287.257629
  1
RS-1
 50
  90.000
  0
LINE
  8
1
 10
14864.9980
 20
5771.43848
 11
14864.9980
 21
6431.83887
  0
LINE
  8
1
 10
15864.9980
 20
5771.43848
 11
15864.9980
 21
6431.83887
  0
LINE
  8
1
 10
14864.9980
 20
5771.43848
 11
14864.9980
 21
-149.25562
  0
LINE
  8
1
 10
14864.9980
 20
-149.25562
 11
15864.9980
 21
-149.25562
  0
LINE
  8
1
 10
15864.9980
 20
-149.25562
 11
15864.9980
 21
5771.43848
  0
LINE
  8
1
 10
15864.9980
 20
5771.43848
 11
14864.9980
 21
5771.43848
  0
TEXT
  8
3
 7
SIMPLEX
 10
15508.6270
 20
2236.57617
 40
287.257629
  1
RS-1
 50
  90.000
  0
LINE
  8
1
 10
15864.9980
 20
5771.43848
 11
15864.9980
 21
6431.83887
  0
LINE
  8
1
 10
16864.9980
 20
5771.43848
 11
16864.9980
 21
6431.83887
  0
LINE
  8
1
 10
15864.9980
 20
5771.43848
 11
15864.9980
 21
-149.25562
  0
LINE
  8
1
 10
15864.9980
 20
-149.25562
 11
16864.9980
 21
-149.25562
  0
LINE
  8
1
 10
16864.9980
 20
-149.25562
 11
16864.9980
 21
5771.43848
  0
LINE
  8
1
 10
16864.9980
 20
5771.43848
 11
15864.9980
 21
5771.43848
  0
TEXT
  8
3
 7
SIMPLEX
 10
16508.6270
 20
2236.57617
 40
287.257629
  1
RS-1
 50
  90.000
  0
LINE
  8
1
 10
16864.9980
 20
5771.43848
 11
16864.9980
 21
6431.83887
  0
LINE
  8
1
 10
17864.9980
 20
5771.43848
 11
17864.9980
 21
6431.83887
  0
LINE
  8
1
 10
16864.9980
 20
5771.43848
 11
16864.9980
 21
-149.25562
  0
LINE
  8
1
 10
16864.9980
 20
-149.25562
 11
17864.9980
 21
-149.25562
  0
LINE
  8
1
 10
17864.9980
 20
-149.25562
 11
17864.9980
 21
5771.43848
  0
LINE
  8
1
 10
17864.9980
 20
5771.43848
 11
16864.9980
 21
5771.43848
  0
TEXT
  8
3
 7
SIMPLEX
 10
17508.6270
 20
2236.57617
 40
287.257629
  1
RS-1
 50
  90.000
  0
LINE
  8
1
 10
17865.0000
 20
5771.43848
 11
17865.0000
 21
6431.83887
  0
LINE
  8
1
 10
18864.9980
 20
5771.43848
 11
18864.9980
 21
6431.83887
  0
LINE
  8
1
 10
17865.0000
 20
5771.43848
 11
17865.0000
 21
-149.25562
  0
LINE
  8
1
 10
17865.0000
 20
-149.25562
 11
18864.9980
 21
-149.25562
  0
LINE
  8
1
 10
18864.9980
 20
-149.25562
 11
18864.9980
 21
5771.43848
  0
LINE
  8
1
 10
18864.9980
 20
5771.43848
 11
17865.0000
 21
5771.43848
  0
TEXT
  8
3
 7
SIMPLEX
 10
18508.6289
 20
2236.57617
 40
287.257629
  1
RS-1
 50
  90.000
  0
LINE
  8
1
 10
18864.9980
 20
5771.43848
 11
18864.9980
 21
6431.83887
  0
LINE
  8
1
 10
19864.9980
 20
5771.43848
 11
19864.9980
 21
6431.83887
  0
LINE
  8
1
 10
18864.9980
 20
5771.43848
 11
18864.9980
 21
-149.25562
  0
LINE
  8
1
 10
18864.9980
 20
-149.25562
 11
19864.9980
 21
-149.25562
  0
LINE
  8
1
 10
19864.9980
 20
-149.25562
 11
19864.9980
 21
5771.43848
  0
LINE
  8
1
 10
19864.9980
 20
5771.43848
 11
18864.9980
 21
5771.43848
  0
TEXT
  8
3
 7
SIMPLEX
 10
19508.6270
 20
2236.57617
 40
287.257629
  1
RS-1
 50
  90.000
  0
LINE
  8
1
 10
19865.0000
 20
5771.43848
 11
19865.0000
 21
6431.83887
  0
LINE
  8
1
 10
20864.9980
 20
5771.43848
 11
20864.9980
 21
6431.83887
  0
LINE
  8
1
 10
19865.0000
 20
5771.43848
 11
19865.0000
 21
-149.25562
  0
LINE
  8
1
 10
19865.0000
 20
-149.25562
 11
20864.9980
 21
-149.25562
  0
LINE
  8
1
 10
20864.9980
 20
-149.25562
 11
20864.9980
 21
5771.43848
  0
LINE
  8
1
 10
20864.9980
 20
5771.43848
 11
19865.0000
 21
5771.43848
  0
TEXT
  8
3
 7
SIMPLEX
 10
20508.6289
 20
2236.57617
 40
287.257629
  1
RS-1
 50
  90.000
  0
LINE
  8
1
 10
20864.9980
 20
5771.43848
 11
20864.9980
 21
6431.83887
  0
LINE
  8
1
 10
21864.9980
 20
5771.43848
 11
21864.9980
 21
6431.83887
  0
LINE
  8
1
 10
20864.9980
 20
5771.43848
 11
20864.9980
 21
-149.25562
  0
LINE
  8
1
 10
20864.9980
 20
-149.25562
 11
21864.9980
 21
-149.25562
  0
LINE
  8
1
 10
21864.9980
 20
-149.25562
 11
21864.9980
 21
5771.43848
  0
LINE
  8
1
 10
21864.9980
 20
5771.43848
 11
20864.9980
 21
5771.43848
  0
TEXT
  8
3
 7
SIMPLEX
 10
21508.6270
 20
2236.57617
 40
287.257629
  1
RS-1
 50
  90.000
  0
LINE
  8
1
 10
21864.9980
 20
5771.43848
 11
21864.9980
 21
6431.83887
  0
LINE
  8
1
 10
22864.9980
 20
5771.43848
 11
22864.9980
 21
6431.83887
  0
LINE
  8
1
 10
21864.9980
 20
5771.43848
 11
21864.9980
 21
-149.25562
  0
LINE
  8
1
 10
21864.9980
 20
-149.25562
 11
22864.9980
 21
-149.25562
  0
LINE
  8
1
 10
22864.9980
 20
-149.25562
 11
22864.9980
 21
5771.43848
  0
LINE
  8
1
 10
22864.9980
 20
5771.43848
 11
21864.9980
 21
5771.43848
  0
TEXT
  8
3
 7
SIMPLEX
 10
22508.6270
 20
2236.57617
 40
287.257629
  1
RS-1
 50
  90.000
  0
LINE
  8
1
 10
22865.0000
 20
5771.43848
 11
22865.0000
 21
6431.83887
  0
LINE
  8
1
 10
23864.9980
 20
5771.43848
 11
23864.9980
 21
6431.83887
  0
LINE
  8
1
 10
22865.0000
 20
5771.43848
 11
22865.0000
 21
-149.25562
  0
LINE
  8
1
 10
22865.0000
 20
-149.25562
 11
23864.9980
 21
-149.25562
  0
LINE
  8
1
 10
23864.9980
 20
-149.25562
 11
23864.9980
 21
5771.43848
  0
LINE
  8
1
 10
23864.9980
 20
5771.43848
 11
22865.0000
 21
5771.43848
  0
TEXT
  8
3
 7
SIMPLEX
 10
23508.6289
 20
2236.57617
 40
287.257629
  1
RS-1
 50
  90.000
  0
LINE
  8
1
 10
23864.9980
 20
5771.43848
 11
23864.9980
 21
6431.83887
  0
LINE
  8
1
 10
24864.9980
 20
5771.43848
 11
24864.9980
 21
6431.83887
  0
LINE
  8
1
 10
23864.9980
 20
5771.43848
 11
23864.9980
 21
-149.25562
  0
LINE
  8
1
 10
23864.9980
 20
-149.25562
 11
24864.9980
 21
-149.25562
  0
LINE
  8
1
 10
24864.9980
 20
-149.25562
 11
24864.9980
 21
5771.43848
  0
LINE
  8
1
 10
24864.9980
 20
5771.43848
 11
23864.9980
 21
5771.43848
  0
TEXT
  8
3
 7
SIMPLEX
 10
24508.6270
 20
2236.57617
 40
287.257629
  1
RS-1
 50
  90.000
  0
LINE
  8
1
 10
24864.9980
 20
5771.43848
 11
24864.9980
 21
6431.83887
  0
LINE
  8
1
 10
25864.9980
 20
5771.43848
 11
25864.9980
 21
6431.83887
  0
LINE
  8
1
 10
24864.9980
 20
5771.43848
 11
24864.9980
 21
-149.25562
  0
LINE
  8
1
 10
24864.9980
 20
-149.25562
 11
25864.9980
 21
-149.25562
  0
LINE
  8
1
 10
25864.9980
 20
-149.25562
 11
25864.9980
 21
5771.43848
  0
LINE
  8
1
 10
25864.9980
 20
5771.43848
 11
24864.9980
 21
5771.43848
  0
TEXT
  8
3
 7
SIMPLEX
 10
25508.6270
 20
2236.57617
 40
287.257629
  1
RS-1
 50
  90.000
  0
LINE
  8
1
 10
25865.0000
 20
5771.43848
 11
25865.0000
 21
6431.83887
  0
LINE
  8
1
 10
26864.9980
 20
5771.43848
 11
26864.9980
 21
6431.83887
  0
LINE
  8
1
 10
25865.0000
 20
5771.43848
 11
25865.0000
 21
-149.25562
  0
LINE
  8
1
 10
25865.0000
 20
-149.25562
 11
26864.9980
 21
-149.25562
  0
LINE
  8
1
 10
26864.9980
 20
-149.25562
 11
26864.9980
 21
5771.43848
  0
LINE
  8
1
 10
26864.9980
 20
5771.43848
 11
25865.0000
 21
5771.43848
  0
TEXT
  8
3
 7
SIMPLEX
 10
26508.6270
 20
2236.57617
 40
287.257629
  1
RS-1
 50
  90.000
  0
LINE
  8
1
 10
26865.0020
 20
5771.43848
 11
26865.0020
 21
6431.83887
  0
LINE
  8
1
 10
27865.0020
 20
5771.43848
 11
27865.0020
 21
6431.83887
  0
LINE
  8
1
 10
26865.0020
 20
5771.43848
 11
26865.0020
 21
-149.25562
  0
LINE
  8
1
 10
26865.0020
 20
-149.25562
 11
27865.0020
 21
-149.25562
  0
LINE
  8
1
 10
27865.0020
 20
-149.25562
 11
27865.0020
 21
5771.43848
  0
LINE
  8
1
 10
27865.0020
 20
5771.43848
 11
26865.0020
 21
5771.43848
  0
TEXT
  8
3
 7
SIMPLEX
 10
27508.6309
 20
2236.57617
 40
287.257629
  1
RS-1
 50
  90.000
  0
LINE
  8
1
 10
27864.9961
 20
5771.43848
 11
27864.9961
 21
6431.83887
  0
LINE
  8
1
 10
28864.9980
 20
5771.43848
 11
28864.9980
 21
6431.83887
  0
LINE
  8
1
 10
27864.9961
 20
5771.43848
 11
27864.9961
 21
-149.25562
  0
LINE
  8
1
 10
27864.9961
 20
-149.25562
 11
28864.9980
 21
-149.25562
  0
LINE
  8
1
 10
28864.9980
 20
-149.25562
 11
28864.9980
 21
5771.43848
  0
LINE
  8
1
 10
28864.9980
 20
5771.43848
 11
27864.9961
 21
5771.43848
  0
TEXT
  8
3
 7
SIMPLEX
 10
28508.6230
 20
2236.57617
 40
287.257629
  1
RS-1
 50
  90.000
  0
LINE
  8
1
 10
28864.9980
 20
5771.43848
 11
28864.9980
 21
6431.83887
  0
LINE
  8
1
 10
29864.9980
 20
5771.43848
 11
29864.9980
 21
6431.83887
  0
LINE
  8
1
 10
28864.9980
 20
5771.43848
 11
28864.9980
 21
-149.25562
  0
LINE
  8
1
 10
28864.9980
 20
-149.25562
 11
29864.9980
 21
-149.25562
  0
LINE
  8
1
 10
29864.9980
 20
-149.25562
 11
29864.9980
 21
5771.43848
  0
LINE
  8
1
 10
29864.9980
 20
5771.43848
 11
28864.9980
 21
5771.43848
  0
TEXT
  8
3
 7
SIMPLEX
 10
29508.6270
 20
2236.57617
 40
287.257629
  1
RS-1
 50
  90.000
  0
LINE
  8
1
 10
29864.9980
 20
5771.43848
 11
29864.9980
 21
6431.83887
  0
LINE
  8
1
 10
30864.9980
 20
5771.43848
 11
30864.9980
 21
6431.83887
  0
LINE
  8
1
 10
29864.9980
 20
5771.43848
 11
29864.9980
 21
-149.25562
  0
LINE
  8
1
 10
29864.9980
 20
-149.25562
 11
30864.9980
 21
-149.25562
  0
LINE
  8
1
 10
30864.9980
 20
-149.25562
 11
30864.9980
 21
5771.43848
  0
LINE
  8
1
 10
30864.9980
 20
5771.43848
 11
29864.9980
 21
5771.43848
  0
TEXT
  8
3
 7
SIMPLEX
 10
30508.6270
 20
2236.57617
 40
287.257629
  1
RS-1
 50
  90.000
  0
LINE
  8
1
 10
30864.9980
 20
5771.43848
 11
30864.9980
 21
6431.83887
  0
LINE
  8
1
 10
31864.9980
 20
5771.43848
 11
31864.9980
 21
6431.83887
  0
LINE
  8
1
 10
30864.9980
 20
5771.43848
 11
30864.9980
 21
-149.25562
  0
LINE
  8
1
 10
30864.9980
 20
-149.25562
 11
31864.9980
 21
-149.25562
  0
LINE
  8
1
 10
31864.9980
 20
-149.25562
 11
31864.9980
 21
5771.43848
  0
LINE
  8
1
 10
31864.9980
 20
5771.43848
 11
30864.9980
 21
5771.43848
  0
TEXT
  8
3
 7
SIMPLEX
 10
31508.6309
 20
2236.57617
 40
287.257629
  1
RS-1
 50
  90.000
  0
LINE
  8
1
 10
31864.9980
 20
5771.43848
 11
31864.9980
 21
6431.83887
  0
LINE
  8
1
 10
32865.0000
 20
5771.43848
 11
32865.0000
 21
6431.83887
  0
LINE
  8
1
 10
31864.9980
 20
5771.43848
 11
31864.9980
 21
-149.25562
  0
LINE
  8
1
 10
31864.9980
 20
-149.25562
 11
32865.0000
 21
-149.25562
  0
LINE
  8
1
 10
32865.0000
 20
-149.25562
 11
32865.0000
 21
5771.43848
  0
LINE
  8
1
 10
32865.0000
 20
5771.43848
 11
31864.9980
 21
5771.43848
  0
TEXT
  8
3
 7
SIMPLEX
 10
32508.6309
 20
2236.57617
 40
287.257629
  1
RS-1
 50
  90.000
  0
LINE
  8
1
 10
32865.0000
 20
5771.43848
 11
32865.0000
 21
6431.83887
  0
LINE
  8
1
 10
33865.0039
 20
5771.43848
 11
33865.0039
 21
6431.83887
  0
LINE
  8
1
 10
32865.0000
 20
5771.43848
 11
32865.0000
 21
-149.25562
  0
LINE
  8
1
 10
32865.0000
 20
-149.25562
 11
33865.0039
 21
-149.25562
  0
LINE
  8
1
 10
33865.0039
 20
-149.25562
 11
33865.0039
 21
5771.43848
  0
LINE
  8
1
 10
33865.0039
 20
5771.43848
 11
32865.0000
 21
5771.43848
  0
TEXT
  8
3
 7
SIMPLEX
 10
33508.6289
 20
2236.57617
 40
287.257629
  1
RS-1
 50
  90.000
  0
LINE
  8
1
 10
33864.9961
 20
5771.43848
 11
33864.9961
 21
6431.83887
  0
LINE
  8
1
 10
34864.9961
 20
5771.43848
 11
34864.9961
 21
6431.83887
  0
LINE
  8
1
 10
33864.9961
 20
5771.43848
 11
33864.9961
 21
-149.25562
  0
LINE
  8
1
 10
33864.9961
 20
-149.25562
 11
34864.9961
 21
-149.25562
  0
LINE
  8
1
 10
34864.9961
 20
-149.25562
 11
34864.9961
 21
5771.43848
  0
LINE
  8
1
 10
34864.9961
 20
5771.43848
 11
33864.9961
 21
5771.43848
  0
TEXT
  8
3
 7
SIMPLEX
 10
34508.6250
 20
2236.57617
 40
287.257629
  1
RS-1
 50
  90.000
  0
LINE
  8
1
 10
34864.9961
 20
5771.43848
 11
34864.9961
 21
6431.83887
  0
LINE
  8
1
 10
35864.9961
 20
5771.43848
 11
35864.9961
 21
6431.83887
  0
LINE
  8
1
 10
34864.9961
 20
5771.43848
 11
34864.9961
 21
-149.25562
  0
LINE
  8
1
 10
34864.9961
 20
-149.25562
 11
35864.9961
 21
-149.25562
  0
LINE
  8
1
 10
35864.9961
 20
-149.25562
 11
35864.9961
 21
5771.43848
  0
LINE
  8
1
 10
35864.9961
 20
5771.43848
 11
34864.9961
 21
5771.43848
  0
TEXT
  8
3
 7
SIMPLEX
 10
35508.6250
 20
2236.57617
 40
287.257629
  1
RS-1
 50
  90.000
  0
LINE
  8
1
 10
35864.9961
 20
5771.43848
 11
35864.9961
 21
6431.83887
  0
LINE
  8
1
 10
36865.0000
 20
5771.43848
 11
36865.0000
 21
6431.83887
  0
LINE
  8
1
 10
35864.9961
 20
5771.43848
 11
35864.9961
 21
-149.25562
  0
LINE
  8
1
 10
35864.9961
 20
-149.25562
 11
36865.0000
 21
-149.25562
  0
LINE
  8
1
 10
36865.0000
 20
-149.25562
 11
36865.0000
 21
5771.43848
  0
LINE
  8
1
 10
36865.0000
 20
5771.43848
 11
35864.9961
 21
5771.43848
  0
TEXT
  8
3
 7
SIMPLEX
 10
36508.6250
 20
2236.57617
 40
287.257629
  1
RS-1
 50
  90.000
  0
LINE
  8
1
 10
36865.0000
 20
5771.43848
 11
36865.0000
 21
6431.83887
  0
LINE
  8
1
 10
37865.0000
 20
5771.43848
 11
37865.0000
 21
6431.83887
  0
LINE
  8
1
 10
36865.0000
 20
5771.43848
 11
36865.0000
 21
-149.25562
  0
LINE
  8
1
 10
36865.0000
 20
-149.25562
 11
37865.0000
 21
-149.25562
  0
LINE
  8
1
 10
37865.0000
 20
-149.25562
 11
37865.0000
 21
5771.43848
  0
LINE
  8
1
 10
37865.0000
 20
5771.43848
 11
36865.0000
 21
5771.43848
  0
TEXT
  8
3
 7
SIMPLEX
 10
37508.6289
 20
2236.57617
 40
287.257629
  1
RS-1
 50
  90.000
  0
LINE
  8
1
 10
37865.0000
 20
5771.43848
 11
37865.0000
 21
6431.83887
  0
LINE
  8
1
 10
38865.0000
 20
5771.43848
 11
38865.0000
 21
6431.83887
  0
LINE
  8
1
 10
37865.0000
 20
5771.43848
 11
37865.0000
 21
-149.25562
  0
LINE
  8
1
 10
37865.0000
 20
-149.25562
 11
38865.0000
 21
-149.25562
  0
LINE
  8
1
 10
38865.0000
 20
-149.25562
 11
38865.0000
 21
5771.43848
  0
LINE
  8
1
 10
38865.0000
 20
5771.43848
 11
37865.0000
 21
5771.43848
  0
TEXT
  8
3
 7
SIMPLEX
 10
38508.6289
 20
2236.57617
 40
287.257629
  1
RS-1
 50
  90.000
  0
LINE
  8
1
 10
38865.0000
 20
5771.43848
 11
38865.0000
 21
6431.83887
  0
LINE
  8
1
 10
39865.0000
 20
5771.43848
 11
39865.0000
 21
6431.83887
  0
LINE
  8
1
 10
38865.0000
 20
5771.43848
 11
38865.0000
 21
-149.25562
  0
LINE
  8
1
 10
38865.0000
 20
-149.25562
 11
39865.0000
 21
-149.25562
  0
LINE
  8
1
 10
39865.0000
 20
-149.25562
 11
39865.0000
 21
5771.43848
  0
LINE
  8
1
 10
39865.0000
 20
5771.43848
 11
38865.0000
 21
5771.43848
  0
TEXT
  8
3
 7
SIMPLEX
 10
39508.6289
 20
2236.57617
 40
287.257629
  1
RS-1
 50
  90.000
  0
LINE
  8
1
 10
39865.0000
 20
5771.43848
 11
39865.0000
 21
6431.83887
  0
LINE
  8
1
 10
40865.0039
 20
5771.43848
 11
40865.0039
 21
6431.83887
  0
LINE
  8
1
 10
39865.0000
 20
5771.43848
 11
39865.0000
 21
-149.25562
  0
LINE
  8
1
 10
39865.0000
 20
-149.25562
 11
40865.0039
 21
-149.25562
  0
LINE
  8
1
 10
40865.0039
 20
-149.25562
 11
40865.0039
 21
5771.43848
  0
LINE
  8
1
 10
40865.0039
 20
5771.43848
 11
39865.0000
 21
5771.43848
  0
TEXT
  8
3
 7
SIMPLEX
 10
40508.6289
 20
2236.57617
 40
287.257629
  1
RS-1
 50
  90.000
  0
LINE
  8
1
 10
40864.9961
 20
5771.43848
 11
40864.9961
 21
6431.83887
  0
LINE
  8
1
 10
41864.9961
 20
5771.43848
 11
41864.9961
 21
6431.83887
  0
LINE
  8
1
 10
40864.9961
 20
5771.43848
 11
40864.9961
 21
-149.25562
  0
LINE
  8
1
 10
40864.9961
 20
-149.25562
 11
41864.9961
 21
-149.25562
  0
LINE
  8
1
 10
41864.9961
 20
-149.25562
 11
41864.9961
 21
5771.43848
  0
LINE
  8
1
 10
41864.9961
 20
5771.43848
 11
40864.9961
 21
5771.43848
  0
TEXT
  8
3
 7
SIMPLEX
 10
41508.6250
 20
2236.57617
 40
287.257629
  1
RS-1
 50
  90.000
  0
LINE
  8
1
 10
41864.9961
 20
5771.43848
 11
41864.9961
 21
6431.83887
  0
LINE
  8
1
 10
42865.0000
 20
5771.43848
 11
42865.0000
 21
6431.83887
  0
LINE
  8
1
 10
41864.9961
 20
5771.43848
 11
41864.9961
 21
-149.25562
  0
LINE
  8
1
 10
41864.9961
 20
-149.25562
 11
42865.0000
 21
-149.25562
  0
LINE
  8
1
 10
42865.0000
 20
-149.25562
 11
42865.0000
 21
5771.43848
  0
LINE
  8
1
 10
42865.0000
 20
5771.43848
 11
41864.9961
 21
5771.43848
  0
TEXT
  8
3
 7
SIMPLEX
 10
42508.6250
 20
2236.57617
 40
287.257629
  1
RS-1
 50
  90.000
  0
LINE
  8
1
 10
42865.0000
 20
5771.43848
 11
42865.0000
 21
6431.83887
  0
LINE
  8
1
 10
43865.0000
 20
5771.43848
 11
43865.0000
 21
6431.83887
  0
LINE
  8
1
 10
42865.0000
 20
5771.43848
 11
42865.0000
 21
-149.25562
  0
LINE
  8
1
 10
42865.0000
 20
-149.25562
 11
43865.0000
 21
-149.25562
  0
LINE
  8
1
 10
43865.0000
 20
-149.25562
 11
43865.0000
 21
5771.43848
  0
LINE
  8
1
 10
43865.0000
 20
5771.43848
 11
42865.0000
 21
5771.43848
  0
TEXT
  8
3
 7
SIMPLEX
 10
43508.6289
 20
2236.57617
 40
287.257629
  1
RS-1
 50
  90.000
  0
LINE
  8
1
 10
43865.0000
 20
5771.43848
 11
43865.0000
 21
6431.83887
  0
LINE
  8
1
 10
44865.0000
 20
5771.43848
 11
44865.0000
 21
6431.83887
  0
LINE
  8
1
 10
43865.0000
 20
5771.43848
 11
43865.0000
 21
-149.25562
  0
LINE
  8
1
 10
43865.0000
 20
-149.25562
 11
44865.0000
 21
-149.25562
  0
LINE
  8
1
 10
44865.0000
 20
-149.25562
 11
44865.0000
 21
5771.43848
  0
LINE
  8
1
 10
44865.0000
 20
5771.43848
 11
43865.0000
 21
5771.43848
  0
TEXT
  8
3
 7
SIMPLEX
 10
44508.6289
 20
2236.57617
 40
287.257629
  1
RS-1
 50
  90.000
  0
LINE
  8
1
 10
44865.0000
 20
5771.43848
 11
44865.0000
 21
6431.83887
  0
LINE
  8
1
 10
45865.0000
 20
5771.43848
 11
45865.0000
 21
6431.83887
  0
LINE
  8
1
 10
44865.0000
 20
5771.43848
 11
44865.0000
 21
-149.25562
  0
LINE
  8
1
 10
44865.0000
 20
-149.25562
 11
45865.0000
 21
-149.25562
  0
LINE
  8
1
 10
45865.0000
 20
-149.25562
 11
45865.0000
 21
5771.43848
  0
LINE
  8
1
 10
45865.0000
 20
5771.43848
 11
44865.0000
 21
5771.43848
  0
TEXT
  8
3
 7
SIMPLEX
 10
45508.6289
 20
2236.57617
 40
287.257629
  1
RS-1
 50
  90.000
999
START:   AREA=Roof Soffit
999
END:     AREA=Roof Soffit
999
START:   AREA=Panel Start Dim
  0
LINE
  8
12
 10
-135.00105
 20
-1263.9336
 11
-135.00105
 21
-1623.0056
  0
LINE
  8
12
 10
0.00000000
 20
-1263.9336
 11
0.00000000
 21
-1623.0056
  0
LINE
  8
2
 10
-135.00105
 20
-1551.1913
 11
-709.51630
 21
-1551.1913
  0
LINE
  8
2
 10
0.00000000
 20
-1551.1913
 11
574.515259
 21
-1551.1913
  0
INSERT
  8
2
  2
ARROW
 10
-135.00105
 20
-1551.1913
 41
1.00000000
 42
1.00000000
 43
1.00000000
 50
   0.000
  0
INSERT
  8
2
  2
ARROW
 10
0.00000000
 20
-1551.1913
 41
1.00000000
 42
1.00000000
 43
1.00000000
 50
 180.000
  0
TEXT
  8
11
 7
SIMPLEX
 10
143.628815
 20
-1455.4386
 40
287.257629
  1
135
 50
   0.000
  0
TEXT
  8
15
 7
SIMPLEX
 10
0.00000000
 20
-1982.0776
 40
287.257629
  1
Panel Start
 50
   0.000
  0
LINE
  8
12
 10
44865.0000
 20
-1263.9336
 11
44865.0000
 21
-1623.0056
  0
LINE
  8
12
 10
45730.0000
 20
-1263.9336
 11
45730.0000
 21
-1623.0056
  0
LINE
  8
2
 10
44865.0000
 20
-1551.1913
 11
45730.0000
 21
-1551.1913
  0
INSERT
  8
2
  2
ARROW
 10
44865.0000
 20
-1551.1913
 41
1.00000000
 42
1.00000000
 43
1.00000000
 50
 180.000
  0
INSERT
  8
2
  2
ARROW
 10
45730.0000
 20
-1551.1913
 41
1.00000000
 42
1.00000000
 43
1.00000000
 50
   0.000
  0
TEXT
  8
11
 7
SIMPLEX
 10
44866.6133
 20
-1455.4386
 40
287.257629
  1
865
 50
   0.000
  0
TEXT
  8
15
 7
SIMPLEX
 10
41920.6094
 20
-1982.0776
 40
287.257629
  1
Panel Start
 50
   0.000
999
END:     AREA=Panel Start Dim
999
START:   AREA=Match Line
999
END:     AREA=Match Line
  0
LINE
  8
5
 10
0.00000000
 20
6100.00000
 11
45730.0000
 21
6100.00000
  0
LINE
  8
1
 10
0.00000000
 20
6404.79980
 11
45730.0000
 21
6404.79980
  0
LINE
  8
1
 10
45730.0000
 20
5795.20020
 11
0.00000000
 21
5795.20020
  0
LINE
  8
1
 10
0.00000000
 20
6404.79980
 11
0.00000000
 21
5795.20020
  0
LINE
  8
1
 10
45730.0000
 20
6404.79980
 11
45730.0000
 21
5795.20020
  0
INSERT
  8
2
  2
SHIELD
 10
415.000000
 20
-1189.2466
 41
12.7230253
 42
12.7230253
 43
12.7230253
 50
 180.000
  0
INSERT
  8
2
  2
SHIELD
 10
45314.9961
 20
13389.2461
 41
12.7230253
 42
12.7230253
 43
12.7230253
 50
   0.000
  0
INSERT
  8
2
  2
SHIELD
 10
40326.0977
 20
13389.2461
 41
12.7230253
 42
12.7230253
 43
12.7230253
 50
   0.000
  0
INSERT
  8
2
  2
SHIELD
 10
35337.1992
 20
13389.2461
 41
12.7230253
 42
12.7230253
 43
12.7230253
 50
   0.000
  0
INSERT
  8
2
  2
SHIELD
 10
30348.2969
 20
13389.2461
 41
12.7230253
 42
12.7230253
 43
12.7230253
 50
   0.000
  0
INSERT
  8
2
  2
SHIELD
 10
25359.3984
 20
13389.2461
 41
12.7230253
 42
12.7230253
 43
12.7230253
 50
   0.000
  0
INSERT
  8
2
  2
SHIELD
 10
20370.4980
 20
13389.2461
 41
12.7230253
 42
12.7230253
 43
12.7230253
 50
   0.000
  0
INSERT
  8
2
  2
SHIELD
 10
15381.6963
 20
13389.2461
 41
12.7230253
 42
12.7230253
 43
12.7230253
 50
   0.000
  0
INSERT
  8
2
  2
SHIELD
 10
10392.7979
 20
13389.2461
 41
12.7230253
 42
12.7230253
 43
12.7230253
 50
   0.000
  0
INSERT
  8
2
  2
SHIELD
 10
5403.89648
 20
13389.2461
 41
12.7230253
 42
12.7230253
 43
12.7230253
 50
   0.000
  0
INSERT
  8
2
  2
SHIELD
 10
414.997925
 20
13389.2461
 41
12.7230253
 42
12.7230253
 43
12.7230253
 50
   0.000
  0
LINE
  8
1
 10
-2577.8672
 20
6100.00000
 11
-2577.8672
 21
5100.00049
  0
LINE
  8
1
 10
-2577.8672
 20
5100.00049
 11
-5627.8672
 21
5100.00049
  0
LINE
  8
1
 10
-5627.8672
 20
5100.00049
 11
-5627.8672
 21
6100.00000
  0
LINE
  8
1
 10
-5627.8672
 20
6100.00000
 11
-2577.8672
 21
6100.00000
  0
TEXT
  8
3
 7
SIMPLEX
 10
-4661.6675
 20
5456.37109
 40
287.257629
  1
RS-2
 50
   0.000
  0
LINE
  8
1
 10
-2577.8672
 20
5100.00049
 11
-2577.8672
 21
4100.00049
  0
LINE
  8
1
 10
-2577.8672
 20
4100.00049
 11
-5627.8672
 21
4100.00049
  0
LINE
  8
1
 10
-5627.8672
 20
4100.00049
 11
-5627.8672
 21
5100.00049
  0
LINE
  8
1
 10
-5627.8672
 20
5100.00049
 11
-2577.8672
 21
5100.00049
  0
TEXT
  8
3
 7
SIMPLEX
 10
-4661.6675
 20
4456.37158
 40
287.257629
  1
RS-2
 50
   0.000
  0
LINE
  8
1
 10
-2577.8672
 20
4100.00049
 11
-2577.8672
 21
3100.00073
  0
LINE
  8
1
 10
-2577.8672
 20
3100.00073
 11
-5627.8672
 21
3100.00073
  0
LINE
  8
1
 10
-5627.8672
 20
3100.00073
 11
-5627.8672
 21
4100.00049
  0
LINE
  8
1
 10
-5627.8672
 20
4100.00049
 11
-2577.8672
 21
4100.00049
  0
TEXT
  8
3
 7
SIMPLEX
 10
-4661.6675
 20
3456.37158
 40
287.257629
  1
RS-2
 50
   0.000
  0
LINE
  8
1
 10
-2577.8672
 20
3100.00073
 11
-2577.8672
 21
2100.00098
  0
LINE
  8
1
 10
-2577.8672
 20
2100.00098
 11
-5627.8672
 21
2100.00098
  0
LINE
  8
1
 10
-5627.8672
 20
2100.00098
 11
-5627.8672
 21
3100.00073
  0
LINE
  8
1
 10
-5627.8672
 20
3100.00073
 11
-2577.8672
 21
3100.00073
  0
TEXT
  8
3
 7
SIMPLEX
 10
-4661.6675
 20
2456.37183
 40
287.257629
  1
RS-2
 50
   0.000
  0
LINE
  8
1
 10
-2577.8672
 20
2100.00098
 11
-2577.8672
 21
1100.00110
  0
LINE
  8
1
 10
-2577.8672
 20
1100.00110
 11
-5627.8672
 21
1100.00110
  0
LINE
  8
1
 10
-5627.8672
 20
1100.00110
 11
-5627.8672
 21
2100.00098
  0
LINE
  8
1
 10
-5627.8672
 20
2100.00098
 11
-2577.8672
 21
2100.00098
  0
TEXT
  8
3
 7
SIMPLEX
 10
-4661.6675
 20
1456.37195
 40
287.257629
  1
RS-2
 50
   0.000
  0
LINE
  8
1
 10
-2577.8672
 20
1100.00110
 11
-2577.8672
 21
100.001259
  0
LINE
  8
1
 10
-2577.8672
 20
100.001259
 11
-5627.8672
 21
100.001259
  0
LINE
  8
1
 10
-5627.8672
 20
100.001259
 11
-5627.8672
 21
1100.00110
  0
LINE
  8
1
 10
-5627.8672
 20
1100.00110
 11
-2577.8672
 21
1100.00110
  0
TEXT
  8
3
 7
SIMPLEX
 10
-4661.6675
 20
456.372345
 40
287.257629
  1
RS-2
 50
   0.000
  0
LINE
  8
1
 10
-2577.8672
 20
100.001259
 11
-2577.8672
 21
-899.99890
  0
LINE
  8
1
 10
-2577.8672
 20
-899.99890
 11
-5627.8672
 21
-899.99890
  0
LINE
  8
1
 10
-5627.8672
 20
-899.99890
 11
-5627.8672
 21
100.001259
  0
LINE
  8
1
 10
-5627.8672
 20
100.001259
 11
-2577.8672
 21
100.001259
  0
TEXT
  8
3
 7
SIMPLEX
 10
-4661.6675
 20
-543.62769
 40
287.257629
  1
RS-2
 50
   0.000
999
START:   AREA=Extension Trim
  0
LINE
  8
1
 10
-6030.0278
 20
-899.99890
 11
-6030.0278
 21
6100.00000
  0
LINE
  8
1
 10
-6030.0278
 20
6100.00000
 11
-5915.1250
 21
6100.00000
  0
LINE
  8
1
 10
-5915.1250
 20
6100.00000
 11
-5915.1250
 21
-899.99890
  0
LINE
  8
1
 10
-5915.1250
 20
-899.99890
 11
-6030.0278
 21
-899.99890
  0
TEXT
  8
2
 7
SIMPLEX
 10
-6529.8564
 20
2492.27905
 40
215.443222
  1
2
 50
   0.000
  0
INSERT
  8
2
  2
DIAMOND
 10
-6422.1348
 20
2276.83569
 41
25.4460488
 42
25.4460488
 43
25.4460488
 50
   0.000
  0
LINE
  8
1
 10
-2240.6096
 20
-899.99890
 11
-2240.6096
 21
6100.00000
  0
LINE
  8
1
 10
-2240.6096
 20
6100.00000
 11
-2125.7065
 21
6100.00000
  0
LINE
  8
1
 10
-2125.7065
 20
6100.00000
 11
-2125.7065
 21
-899.99890
  0
LINE
  8
1
 10
-2125.7065
 20
-899.99890
 11
-2240.6096
 21
-899.99890
  0
TEXT
  8
2
 7
SIMPLEX
 10
-1841.3217
 20
2492.27905
 40
215.443222
  1
3
 50
   0.000
  0
INSERT
  8
2
  2
DIAMOND
 10
-1733.6000
 20
2276.83569
 41
25.4460488
 42
25.4460488
 43
25.4460488
 50
   0.000
  0
LINE
  8
1
 10
-5627.8672
 20
6387.25781
 11
-5627.8672
 21
6502.16064
  0
LINE
  8
1
 10
-5627.8672
 20
6502.16064
 11
-2527.8672
 21
6502.16064
  0
LINE
  8
1
 10
-2527.8672
 20
6502.16064
 11
-2527.8672
 21
6387.25781
  0
LINE
  8
1
 10
-2527.8672
 20
6387.25781
 11
-5627.8672
 21
6387.25781
  0
TEXT
  8
2
 7
SIMPLEX
 10
-4185.5889
 20
6786.54590
 40
215.443222
  1
4
 50
   0.000
  0
INSERT
  8
2
  2
DIAMOND
 10
-4077.8672
 20
6571.10254
 41
25.4460488
 42
25.4460488
 43
25.4460488
 50
   0.000
  0
LINE
  8
1
 10
-5627.8672
 20
-1302.1597
 11
-5627.8672
 21
-1187.2566
  0
LINE
  8
1
 10
-5627.8672
 20
-1187.2566
 11
-2527.8672
 21
-1187.2566
  0
LINE
  8
1
 10
-2527.8672
 20
-1187.2566
 11
-2527.8672
 21
-1302.1597
  0
LINE
  8
1
 10
-2527.8672
 20
-1302.1597
 11
-5627.8672
 21
-1302.1597
  0
TEXT
  8
2
 7
SIMPLEX
 10
-4185.5889
 20
-1801.9878
 40
215.443222
  1
4
 50
   0.000
  0
INSERT
  8
2
  2
DIAMOND
 10
-4077.8672
 20
-2017.4312
 41
25.4460488
 42
25.4460488
 43
25.4460488
 50
   0.000
999
END:     AREA=Extension Trim
  0
LINE
  8
1
 10
48307.8672
 20
6100.00000
 11
48307.8672
 21
7100.00000
  0
LINE
  8
1
 10
48307.8672
 20
7100.00000
 11
51357.8672
 21
7100.00000
  0
LINE
  8
1
 10
51357.8672
 20
7100.00000
 11
51357.8672
 21
6100.00000
  0
LINE
  8
1
 10
51357.8672
 20
6100.00000
 11
48307.8672
 21
6100.00000
  0
TEXT
  8
3
 7
SIMPLEX
 10
49274.0664
 20
6456.37109
 40
287.257629
  1
RS-2
 50
   0.000
  0
LINE
  8
1
 10
48307.8672
 20
7100.00000
 11
48307.8672
 21
8100.00000
  0
LINE
  8
1
 10
48307.8672
 20
8100.00000
 11
51357.8672
 21
8100.00000
  0
LINE
  8
1
 10
51357.8672
 20
8100.00000
 11
51357.8672
 21
7100.00000
  0
LINE
  8
1
 10
51357.8672
 20
7100.00000
 11
48307.8672
 21
7100.00000
  0
TEXT
  8
3
 7
SIMPLEX
 10
49274.0664
 20
7456.37109
 40
287.257629
  1
RS-2
 50
   0.000
  0
LINE
  8
1
 10
48307.8672
 20
8100.00000
 11
48307.8672
 21
9099.99902
  0
LINE
  8
1
 10
48307.8672
 20
9099.99902
 11
51357.8672
 21
9099.99902
  0
LINE
  8
1
 10
51357.8672
 20
9099.99902
 11
51357.8672
 21
8100.00000
  0
LINE
  8
1
 10
51357.8672
 20
8100.00000
 11
48307.8672
 21
8100.00000
  0
TEXT
  8
3
 7
SIMPLEX
 10
49274.0664
 20
8456.37109
 40
287.257629
  1
RS-2
 50
   0.000
  0
LINE
  8
1
 10
48307.8672
 20
9099.99902
 11
48307.8672
 21
10099.9990
  0
LINE
  8
1
 10
48307.8672
 20
10099.9990
 11
51357.8672
 21
10099.9990
  0
LINE
  8
1
 10
51357.8672
 20
10099.9990
 11
51357.8672
 21
9099.99902
  0
LINE
  8
1
 10
51357.8672
 20
9099.99902
 11
48307.8672
 21
9099.99902
  0
TEXT
  8
3
 7
SIMPLEX
 10
49274.0664
 20
9456.37109
 40
287.257629
  1
RS-2
 50
   0.000
  0
LINE
  8
1
 10
48307.8672
 20
10099.9990
 11
48307.8672
 21
11099.9990
  0
LINE
  8
1
 10
48307.8672
 20
11099.9990
 11
51357.8672
 21
11099.9990
  0
LINE
  8
1
 10
51357.8672
 20
11099.9990
 11
51357.8672
 21
10099.9990
  0
LINE
  8
1
 10
51357.8672
 20
10099.9990
 11
48307.8672
 21
10099.9990
  0
TEXT
  8
3
 7
SIMPLEX
 10
49274.0664
 20
10456.3711
 40
287.257629
  1
RS-2
 50
   0.000
  0
LINE
  8
1
 10
48307.8672
 20
11099.9990
 11
48307.8672
 21
12099.9990
  0
LINE
  8
1
 10
48307.8672
 20
12099.9990
 11
51357.8672
 21
12099.9990
  0
LINE
  8
1
 10
51357.8672
 20
12099.9990
 11
51357.8672
 21
11099.9990
  0
LINE
  8
1
 10
51357.8672
 20
11099.9990
 11
48307.8672
 21
11099.9990
  0
TEXT
  8
3
 7
SIMPLEX
 10
49274.0664
 20
11456.3701
 40
287.257629
  1
RS-2
 50
   0.000
  0
LINE
  8
1
 10
48307.8672
 20
12099.9990
 11
48307.8672
 21
13099.9990
  0
LINE
  8
1
 10
48307.8672
 20
13099.9990
 11
51357.8672
 21
13099.9990
  0
LINE
  8
1
 10
51357.8672
 20
13099.9990
 11
51357.8672
 21
12099.9990
  0
LINE
  8
1
 10
51357.8672
 20
12099.9990
 11
48307.8672
 21
12099.9990
  0
TEXT
  8
3
 7
SIMPLEX
 10
49274.0664
 20
12456.3701
 40
287.257629
  1
RS-2
 50
   0.000
999
START:   AREA=Extension Trim
  0
LINE
  8
1
 10
47855.7070
 20
6100.00000
 11
47855.7070
 21
13099.9990
  0
LINE
  8
1
 10
47855.7070
 20
13099.9990
 11
47970.6094
 21
13099.9990
  0
LINE
  8
1
 10
47970.6094
 20
13099.9990
 11
47970.6094
 21
6100.00000
  0
LINE
  8
1
 10
47970.6094
 20
6100.00000
 11
47855.7070
 21
6100.00000
  0
TEXT
  8
2
 7
SIMPLEX
 10
47355.8789
 20
9492.27734
 40
215.443222
  1
3
 50
   0.000
  0
INSERT
  8
2
  2
DIAMOND
 10
47463.6016
 20
9276.83398
 41
25.4460488
 42
25.4460488
 43
25.4460488
 50
   0.000
  0
LINE
  8
1
 10
51645.1211
 20
6100.00000
 11
51645.1211
 21
13099.9990
  0
LINE
  8
1
 10
51645.1211
 20
13099.9990
 11
51760.0234
 21
13099.9990
  0
LINE
  8
1
 10
51760.0234
 20
13099.9990
 11
51760.0234
 21
6100.00000
  0
LINE
  8
1
 10
51760.0234
 20
6100.00000
 11
51645.1211
 21
6100.00000
  0
TEXT
  8
2
 7
SIMPLEX
 10
52044.4063
 20
9492.27734
 40
215.443222
  1
2
 50
   0.000
  0
INSERT
  8
2
  2
DIAMOND
 10
52152.1289
 20
9276.83398
 41
25.4460488
 42
25.4460488
 43
25.4460488
 50
   0.000
  0
LINE
  8
1
 10
48257.8672
 20
13387.2559
 11
48257.8672
 21
13502.1582
  0
LINE
  8
1
 10
48257.8672
 20
13502.1582
 11
51357.8672
 21
13502.1582
  0
LINE
  8
1
 10
51357.8672
 20
13502.1582
 11
51357.8672
 21
13387.2559
  0
LINE
  8
1
 10
51357.8672
 20
13387.2559
 11
48257.8672
 21
13387.2559
  0
TEXT
  8
2
 7
SIMPLEX
 10
49700.1484
 20
13786.5420
 40
215.443222
  1
4
 50
   0.000
  0
INSERT
  8
2
  2
DIAMOND
 10
49807.8672
 20
13571.1006
 41
25.4460488
 42
25.4460488
 43
25.4460488
 50
   0.000
  0
LINE
  8
1
 10
48257.8672
 20
5697.83936
 11
48257.8672
 21
5812.74219
  0
LINE
  8
1
 10
48257.8672
 20
5812.74219
 11
51357.8672
 21
5812.74219
  0
LINE
  8
1
 10
51357.8672
 20
5812.74219
 11
51357.8672
 21
5697.83936
  0
LINE
  8
1
 10
51357.8672
 20
5697.83936
 11
48257.8672
 21
5697.83936
  0
TEXT
  8
2
 7
SIMPLEX
 10
49700.1484
 20
5198.01074
 40
215.443222
  1
4
 50
   0.000
  0
INSERT
  8
2
  2
DIAMOND
 10
49807.8672
 20
4982.56787
 41
25.4460488
 42
25.4460488
 43
25.4460488
 50
   0.000
999
END:     AREA=Extension Trim
999
START:   AREA=Dimensions
  0
LINE
  8
12
 10
-7366.3159
 20
12200.0000
 11
-11008.743
 21
12200.0000
  0
LINE
  8
12
 10
-7366.3159
 20
0.00000000
 11
-11008.743
 21
0.00000000
  0
LINE
  8
2
 10
-10721.485
 20
12200.0000
 11
-10721.485
 21
0.00000000
  0
INSERT
  8
2
  2
ARROW
 10
-10721.485
 20
12200.0000
 41
1.00000000
 42
1.00000000
 43
1.00000000
 50
  90.000
  0
INSERT
  8
2
  2
ARROW
 10
-10721.485
 20
0.00000000
 41
1.00000000
 42
1.00000000
 43
1.00000000
 50
 270.000
  0
CIRCLE
  8
13
 10
-11353.452
 20
12200.0000
 40
344.709137
  0
TEXT
  8
13
 7
SIMPLEX
 10
-11508.571
 20
12044.8809
 40
310.238220
  1
C
 72
           1
 11
-11353.452
 21
12200.0000
 73
           2
 50
   0.000
  0
CIRCLE
  8
13
 10
-11353.452
 20
0.00000000
 40
344.709137
  0
TEXT
  8
13
 7
SIMPLEX
 10
-11508.571
 20
-155.11911
 40
310.238220
  1
A
 72
           1
 11
-11353.452
 21
0.00000000
 73
           2
 50
   0.000
  0
LINE
  8
12
 10
-11008.743
 20
6100.00000
 11
-7366.3159
 21
6100.00000
  0
INSERT
  8
2
  2
ARROW
 10
-10721.485
 20
6100.00000
 41
1.00000000
 42
1.00000000
 43
1.00000000
 50
  90.000
  0
INSERT
  8
2
  2
ARROW
 10
-10721.485
 20
6100.00000
 41
1.00000000
 42
1.00000000
 43
1.00000000
 50
 270.000
  0
TEXT
  8
15
 7
SIMPLEX
 10
-10290.599
 20
7282.82520
 40
287.257629
  1
ROOF SURFACE 2
 50
  90.000
  0
TEXT
  8
11
 7
SIMPLEX
 10
-10817.237
 20
8625.75488
 40
287.257629
  1
6100
 50
  90.000
  0
TEXT
  8
15
 7
SIMPLEX
 10
-10290.599
 20
1182.82544
 40
287.257629
  1
ROOF SURFACE 3
 50
  90.000
  0
TEXT
  8
11
 7
SIMPLEX
 10
-10817.237
 20
2525.75488
 40
287.257629
  1
6100
 50
  90.000
  0
LINE
  8
12
 10
0.00000000
 20
14253.8926
 11
0.00000000
 21
17896.3203
  0
LINE
  8
12
 10
45730.0000
 20
14253.8926
 11
45730.0000
 21
17896.3203
  0
LINE
  8
2
 10
0.00000000
 20
17609.0605
 11
45730.0000
 21
17609.0605
  0
LINE
  8
2
 10
0.00000000
 20
15885.5156
 11
45730.0000
 21
15885.5156
  0
INSERT
  8
2
  2
ARROW
 10
0.00000000
 20
15885.5156
 41
1.00000000
 42
1.00000000
 43
1.00000000
 50
 180.000
  0
INSERT
  8
2
  2
ARROW
 10
0.00000000
 20
17609.0605
 41
1.00000000
 42
1.00000000
 43
1.00000000
 50
 180.000
  0
INSERT
  8
2
  2
ARROW
 10
45730.0000
 20
15885.5156
 41
1.00000000
 42
1.00000000
 43
1.00000000
 50
   0.000
  0
INSERT
  8
2
  2
ARROW
 10
45730.0000
 20
17609.0605
 41
1.00000000
 42
1.00000000
 43
1.00000000
 50
   0.000
  0
CIRCLE
  8
13
 10
0.00000000
 20
18241.0293
 40
344.709137
  0
TEXT
  8
13
 7
SIMPLEX
 10
-100.82742
 20
18085.9102
 40
310.238220
  1
1
 72
           1
 11
0.00000000
 21
18241.0293
 73
           2
 50
   0.000
  0
CIRCLE
  8
13
 10
45730.0000
 20
18241.0293
 40
344.709137
  0
TEXT
  8
13
 7
SIMPLEX
 10
45574.8789
 20
18085.9102
 40
310.238220
  1
7
 72
           1
 11
45730.0000
 21
18241.0293
 73
           2
 50
   0.000
  0
INSERT
  8
2
  2
ARROW
 10
7804.99951
 20
15885.5156
 41
1.00000000
 42
1.00000000
 43
1.00000000
 50
   0.000
  0
INSERT
  8
2
  2
ARROW
 10
7804.99951
 20
15885.5156
 41
1.00000000
 42
1.00000000
 43
1.00000000
 50
 180.000
  0
CIRCLE
  8
13
 10
7804.99951
 20
16804.7402
 40
344.709137
  0
TEXT
  8
13
 7
SIMPLEX
 10
7649.88037
 20
16649.6211
 40
310.238220
  1
2
 72
           1
 11
7804.99951
 21
16804.7402
 73
           2
 50
   0.000
  0
LINE
  8
12
 10
7804.99951
 20
16460.0313
 11
7804.99951
 21
15196.0957
  0
INSERT
  8
2
  2
ARROW
 10
15334.9980
 20
15885.5156
 41
1.00000000
 42
1.00000000
 43
1.00000000
 50
   0.000
  0
INSERT
  8
2
  2
ARROW
 10
15334.9980
 20
15885.5156
 41
1.00000000
 42
1.00000000
 43
1.00000000
 50
 180.000
  0
CIRCLE
  8
13
 10
15334.9980
 20
16804.7402
 40
344.709137
  0
TEXT
  8
13
 7
SIMPLEX
 10
15179.8799
 20
16649.6211
 40
310.238220
  1
3
 72
           1
 11
15334.9980
 21
16804.7402
 73
           2
 50
   0.000
  0
LINE
  8
12
 10
15334.9980
 20
16460.0313
 11
15334.9980
 21
15196.0957
  0
INSERT
  8
2
  2
ARROW
 10
22864.9980
 20
15885.5156
 41
1.00000000
 42
1.00000000
 43
1.00000000
 50
   0.000
  0
INSERT
  8
2
  2
ARROW
 10
22864.9980
 20
15885.5156
 41
1.00000000
 42
1.00000000
 43
1.00000000
 50
 180.000
  0
CIRCLE
  8
13
 10
22864.9980
 20
16804.7402
 40
344.709137
  0
TEXT
  8
13
 7
SIMPLEX
 10
22709.8789
 20
16649.6211
 40
310.238220
  1
4
 72
           1
 11
22864.9980
 21
16804.7402
 73
           2
 50
   0.000
  0
LINE
  8
12
 10
22864.9980
 20
16460.0313
 11
22864.9980
 21
15196.0957
  0
INSERT
  8
2
  2
ARROW
 10
30395.0020
 20
15885.5156
 41
1.00000000
 42
1.00000000
 43
1.00000000
 50
   0.000
  0
INSERT
  8
2
  2
ARROW
 10
30395.0020
 20
15885.5156
 41
1.00000000
 42
1.00000000
 43
1.00000000
 50
 180.000
  0
CIRCLE
  8
13
 10
30395.0020
 20
16804.7402
 40
344.709137
  0
TEXT
  8
13
 7
SIMPLEX
 10
30239.8809
 20
16649.6211
 40
310.238220
  1
5
 72
           1
 11
30395.0020
 21
16804.7402
 73
           2
 50
   0.000
  0
LINE
  8
12
 10
30395.0020
 20
16460.0313
 11
30395.0020
 21
15196.0957
  0
INSERT
  8
2
  2
ARROW
 10
37925.0000
 20
15885.5156
 41
1.00000000
 42
1.00000000
 43
1.00000000
 50
   0.000
  0
INSERT
  8
2
  2
ARROW
 10
37925.0000
 20
15885.5156
 41
1.00000000
 42
1.00000000
 43
1.00000000
 50
 180.000
  0
CIRCLE
  8
13
 10
37925.0000
 20
16804.7402
 40
344.709137
  0
TEXT
  8
13
 7
SIMPLEX
 10
37769.8789
 20
16649.6211
 40
310.238220
  1
6
 72
           1
 11
37925.0000
 21
16804.7402
 73
           2
 50
   0.000
  0
LINE
  8
12
 10
37925.0000
 20
16460.0313
 11
37925.0000
 21
15196.0957
  0
TEXT
  8
11
 7
SIMPLEX
 10
3327.98438
 20
15981.2676
 40
287.257629
  1
7805
 50
   0.000
  0
TEXT
  8
11
 7
SIMPLEX
 10
10995.4834
 20
15981.2676
 40
287.257629
  1
7530
 50
   0.000
  0
TEXT
  8
11
 7
SIMPLEX
 10
18525.4824
 20
15981.2676
 40
287.257629
  1
7530
 50
   0.000
  0
TEXT
  8
11
 7
SIMPLEX
 10
26055.4824
 20
15981.2676
 40
287.257629
  1
7530
 50
   0.000
  0
TEXT
  8
11
 7
SIMPLEX
 10
33585.4844
 20
15981.2676
 40
287.257629
  1
7530
 50
   0.000
  0
TEXT
  8
11
 7
SIMPLEX
 10
41252.9844
 20
15981.2676
 40
287.257629
  1
7805
 50
   0.000
  0
LINE
  8
12
 10
574.515259
 20
14253.8926
 11
574.515259
 21
14857.1328
  0
LINE
  8
12
 10
0.00000000
 20
14253.8926
 11
0.00000000
 21
14857.1328
  0
LINE
  8
2
 10
0.00000000
 20
14713.5059
 11
-574.51526
 21
14713.5059
  0
LINE
  8
2
 10
574.515259
 20
14713.5059
 11
1149.03052
 21
14713.5059
  0
INSERT
  8
2
  2
ARROW
 10
0.00000000
 20
14713.5059
 41
1.00000000
 42
1.00000000
 43
1.00000000
 50
   0.000
  0
INSERT
  8
2
  2
ARROW
 10
574.515259
 20
14713.5059
 41
1.00000000
 42
1.00000000
 43
1.00000000
 50
 180.000
  0
TEXT
  8
11
 7
SIMPLEX
 10
718.144104
 20
14809.2578
 40
287.257629
  1
415
 50
   0.000
  0
LINE
  8
12
 10
45155.4844
 20
14253.8926
 11
45155.4844
 21
14857.1328
  0
LINE
  8
12
 10
45730.0000
 20
14253.8926
 11
45730.0000
 21
14857.1328
  0
LINE
  8
2
 10
45155.4844
 20
14713.5059
 11
44580.9727
 21
14713.5059
  0
LINE
  8
2
 10
45730.0000
 20
14713.5059
 11
46304.5117
 21
14713.5059
  0
INSERT
  8
2
  2
ARROW
 10
45155.4844
 20
14713.5059
 41
1.00000000
 42
1.00000000
 43
1.00000000
 50
   0.000
  0
INSERT
  8
2
  2
ARROW
 10
45730.0000
 20
14713.5059
 41
1.00000000
 42
1.00000000
 43
1.00000000
 50
 180.000
  0
TEXT
  8
11
 7
SIMPLEX
 10
44250.6211
 20
14809.2578
 40
287.257629
  1
415
 50
   0.000
  0
TEXT
  8
11
 7
SIMPLEX
 10
19410.7266
 20
17746.9453
 40
287.257629
  1
45730
 50
   0.000
  0
TEXT
  8
15
 7
SIMPLEX
 10
20847.0137
 20
17746.9453
 40
287.257629
  1
 OUT-TO-OUT OF STEEL
 50
   0.000
  0
TEXT
  8
15
 7
SIMPLEX
 10
18958.2949
 20
-4150.8730
 40
459.612213
  1
ROOF SHEETING PLAN
 72
           1
 11
22865.0000
 21
-4150.8730
 50
   0.000
999
END:     AREA=Dimensions
  0
TEXT
  8
15
 7
SIMPLEX
 10
18958.2949
 20
-4150.8730
 40
459.612213
  1
ROOF SHEETING PLAN
 72
           1
 11
22865.0000
 21
-4150.8730
 50
   0.000
  0
ENDBLK
  8
0
  0
BLOCK
  8
1
  2
RW2TBL
 70
     0
 10
0.00000000
 20
0.00000000
  0
TEXT
  8
14
 7
SIMPLEX
 10
-7755.9561
 20
-359.07205
 40
287.257629
  1
MEMBER TABLE
 50
   0.000
  0
TEXT
  8
14
 7
SIMPLEX
 10
-7755.9561
 20
-789.95837
 40
287.257629
  1
ROOF PLAN
 50
   0.000
  0
TEXT
  8
14
 7
SIMPLEX
 10
-7755.9561
 20
-1220.8448
 40
287.257629
  1
MARK
 50
   0.000
  0
TEXT
  8
14
 7
SIMPLEX
 10
-5745.1523
 20
-1220.8448
 40
287.257629
  1
PART
 50
   0.000
  0
TEXT
  8
14
 7
SIMPLEX
 10
-2872.5759
 20
-1220.8448
 40
287.257629
  1
LENGTH
 50
   0.000
  0
LINE
  8
0
 10
-8043.2134
 20
-1292.6593
 11
0.00000000
 21
-1292.6593
  0
LINE
  8
0
 10
-8043.2134
 20
-1292.6593
 11
-8043.2134
 21
-1292.6593
  0
LINE
  8
0
 10
-6032.4102
 20
-1292.6593
 11
-6032.4102
 21
-1292.6593
  0
LINE
  8
0
 10
-3159.8337
 20
-1292.6593
 11
-3159.8337
 21
-1292.6593
  0
LINE
  8
0
 10
-8043.2134
 20
0.00000000
 11
0.00000000
 21
0.00000000
  0
LINE
  8
0
 10
-8043.2134
 20
0.00000000
 11
-8043.2134
 21
-1292.6593
  0
LINE
  8
0
 10
0.00000000
 20
0.00000000
 11
0.00000000
 21
-1292.6593
  0
LINE
  8
0
 10
-8043.2134
 20
-861.77289
 11
0.00000000
 21
-861.77289
  0
LINE
  8
0
 10
-8043.2134
 20
-861.77289
 11
-8043.2134
 21
-1292.6593
  0
LINE
  8
0
 10
-6032.4102
 20
-861.77289
 11
-6032.4102
 21
-1292.6593
  0
LINE
  8
0
 10
-3159.8337
 20
-861.77289
 11
-3159.8337
 21
-1292.6593
  0
LINE
  8
0
 10
-8043.2134
 20
-1292.6593
 11
0.00000000
 21
-1292.6593
  0
ENDBLK
  8
1
  0
BLOCK
  8
1
  2
RW2TRIM
 70
     0
 10
63.5000000
 20
26.6699982
  0
LINE
  8
3
 10
0.00000000
 20
26.6699982
 11
63.5000000
 21
26.6699982
  0
LINE
  8
3
 10
0.00000000
 20
17.7799988
 11
63.5000000
 21
17.7799988
  0
LINE
  8
3
 10
0.00000000
 20
14.2239981
 11
63.5000000
 21
14.2239981
  0
LINE
  8
3
 10
0.00000000
 20
-0.0000015
 11
63.5000000
 21
-0.0000015
  0
LINE
  8
3
 10
0.00000000
 20
0.00000000
 11
63.5000000
 21
0.00000000
  0
LINE
  8
3
 10
0.00000000
 20
26.6699982
 11
0.00000000
 21
0.00000000
  0
LINE
  8
3
 10
63.5000000
 20
0.00000000
 11
63.5000000
 21
26.6699982
  0
LINE
  8
3
 10
7.11199999
 20
17.7799988
 11
7.11199999
 21
-0.0000015
  0
LINE
  8
3
 10
19.5579987
 20
17.7799988
 11
19.5579987
 21
-0.0000015
  0
TEXT
  8
1
 7
SIMPLEX
 10
2.53999996
 20
22.8599987
 40
2.53999996
  1
TRIM TABLE
 50
   0.000
  0
TEXT
  8
1
 7
SIMPLEX
 10
2.53999996
 20
19.0499973
 40
2.53999996
  1
FRAME LINE
 50
   0.000
  0
TEXT
  8
1
 7
SIMPLEX
 10
30.4799996
 20
19.0499973
 40
2.53999996
  1
 
 50
   0.000
  0
INSERT
  8
1
  2
DIAMOND
 10
3.55600000
 20
16.0019989
 41
0.07000000
 42
0.07000000
 43
0.07000000
 50
  90.000
  0
TEXT
  8
1
 7
SIMPLEX
 10
3.55600000
 20
15.1129971
 40
1.77800000
  1
ID
 50
   0.000
  0
TEXT
  8
1
 7
SIMPLEX
 10
8.88999936
 20
15.1129971
 40
1.77800000
  1
MARK
 50
   0.000
  0
TEXT
  8
1
 7
SIMPLEX
 10
21.3360005
 20
15.1129971
 40
1.77800000
  1
LENGTH
 50
   0.000
  0
LINE
  8
3
 10
0.00000000
 20
10.6679983
 11
63.5000000
 21
10.6679983
  0
TEXT
  8
1
 7
SIMPLEX
 10
3.55600000
 20
11.5569983
 40
1.77800000
  1
1
 50
   0.000
  0
TEXT
  8
1
 7
SIMPLEX
 10
8.88999936
 20
11.5569983
 40
1.77800000
  1
RC-01
 50
   0.000
  0
TEXT
  8
1
 7
SIMPLEX
 10
21.3360005
 20
11.5569983
 40
1.77800000
  1
700
 50
   0.000
  0
LINE
  8
3
 10
0.00000000
 20
7.11199856
 11
63.5000000
 21
7.11199856
  0
TEXT
  8
1
 7
SIMPLEX
 10
3.55600000
 20
8.00099850
 40
1.77800000
  1
2
 50
   0.000
  0
TEXT
  8
1
 7
SIMPLEX
 10
8.88999936
 20
8.00099850
 40
1.77800000
  1
ET-01
 50
   0.000
  0
TEXT
  8
1
 7
SIMPLEX
 10
21.3360005
 20
8.00099850
 40
1.77800000
  1
5600
 50
   0.000
  0
LINE
  8
3
 10
0.00000000
 20
3.55599880
 11
63.5000000
 21
3.55599880
  0
TEXT
  8
1
 7
SIMPLEX
 10
3.55600000
 20
4.44499876
 40
1.77800000
  1
3
 50
   0.000
  0
TEXT
  8
1
 7
SIMPLEX
 10
8.88999936
 20
4.44499876
 40
1.77800000
  1
CT-05
 50
   0.000
  0
TEXT
  8
1
 7
SIMPLEX
 10
21.3360005
 20
4.44499876
 40
1.77800000
  1
5600
 50
   0.000
  0
TEXT
  8
1
 7
SIMPLEX
 10
3.55600000
 20
0.88899920
 40
1.77800000
  1
4
 50
   0.000
  0
TEXT
  8
1
 7
SIMPLEX
 10
8.88999936
 20
0.88899920
 40
1.77800000
  1
GT-01
 50
   0.000
  0
TEXT
  8
1
 7
SIMPLEX
 10
21.3360005
 20
0.88899920
 40
1.77800000
  1
5600
 50
   0.000
  0
ENDBLK
  8
1
  0
BLOCK
  8
1
  2
TBL_DOWN
 70
     0
 10
0.00000000
 20
0.00000000
  0
INSERT
  8
2
  2
SHIELD
 10
574.515259
 20
-789.95837
 41
11.3093557
 42
11.3093557
 43
11.3093557
 50
   0.000
  0
TEXT
  8
14
 7
SIMPLEX
 10
1005.40167
 20
-646.32965
 40
287.257629
  1
DOWNSPOUT LOCATIONS
 50
   0.000
  0
ENDBLK
  8
1
  0
ENDSEC
  0
SECTION
  2
ENTITIES
  0
LINE
  8
22
 10
0.00000000
 20
0.00000000
 11
69089.8750
 21
0.00000000
  0
LINE
  8
22
 10
69089.8750
 20
0.00000000
 11
69089.8750
 21
48856.4141
  0
LINE
  8
22
 10
69089.8750
 20
48856.4141
 11
0.00000000
 21
48856.4141
  0
LINE
  8
22
 10
0.00000000
 20
48856.4141
 11
0.00000000
 21
0.00000000
  0
LINE
  8
0
 10
42766.6328
 20
0.00000000
 11
42766.6328
 21
4387.20752
  0
LINE
  8
0
 10
42766.6328
 20
4387.20752
 11
69089.8750
 21
4387.20752
  0
LINE
  8
0
 10
42766.6328
 20
0.00000000
 11
69089.8750
 21
0.00000000
  0
LINE
  8
0
 10
69089.8750
 20
0.00000000
 11
69089.8750
 21
4387.20752
  0
LINE
  8
0
 10
42766.6328
 20
1671.31714
 11
69089.8750
 21
1671.31714
  0
LINE
  8
0
 10
42766.6328
 20
2506.97559
 11
69089.8750
 21
2506.97559
  0
LINE
  8
0
 10
42766.6328
 20
3342.63428
 11
69089.8750
 21
3342.63428
  0
LINE
  8
0
 10
46527.0938
 20
0.00000000
 11
46527.0938
 21
3342.63428
  0
LINE
  8
0
 10
55928.2578
 20
0.00000000
 11
55928.2578
 21
3342.63428
  0
LINE
  8
0
 10
55928.2578
 20
835.658569
 11
69089.8750
 21
835.658569
  0
LINE
  8
0
 10
60524.3789
 20
2506.97559
 11
60524.3789
 21
1671.31714
  0
LINE
  8
0
 10
64702.6680
 20
2506.97559
 11
64702.6680
 21
1671.31714
  0
LINE
  8
0
 10
62613.5234
 20
1671.31714
 11
62613.5234
 21
835.658569
  0
TEXT
  8
14
 7
SIMPLEX
 10
43184.4648
 20
2715.89014
 40
417.829285
  1
PROJECT
 50
   0.000
  0
TEXT
  8
14
 7
SIMPLEX
 10
43184.4648
 20
1880.23169
 40
417.829285
  1
ID
 50
   0.000
  0
TEXT
  8
14
 7
SIMPLEX
 10
43184.4648
 20
1044.57324
 40
417.829285
  1
PROJECT
 50
   0.000
  0
TEXT
  8
14
 7
SIMPLEX
 10
43184.4648
 20
208.914642
 40
417.829285
  1
ADDRESS
 50
   0.000
  0
TEXT
  8
14
 7
SIMPLEX
 10
46944.9258
 20
2715.89014
 40
417.829285
  1
Proposed Warehouse
 50
   0.000
  0
TEXT
  8
14
 7
SIMPLEX
 10
46944.9258
 20
1880.23169
 40
417.829285
  1
111
 50
   0.000
  0
TEXT
  8
14
 7
SIMPLEX
 10
46944.9258
 20
1044.57324
 40
417.829285
  1
Proposed Warehouse
 50
   0.000
  0
TEXT
  8
14
 7
SIMPLEX
 10
46944.9258
 20
208.914642
 40
417.829285
  1
 
 50
   0.000
  0
TEXT
  8
14
 7
SIMPLEX
 10
48198.4141
 20
3551.54907
 40
626.743897
  1
Sivoko Steel Structures Ltd.
 50
   0.000
  0
TEXT
  8
14
 7
SIMPLEX
 10
56346.0859
 20
2715.89014
 40
417.829285
  1
ROOF SHEETING
 50
   0.000
  0
TEXT
  8
14
 7
SIMPLEX
 10
56346.0859
 20
1880.23169
 40
417.829285
  1
DESIGN:
 50
   0.000
  0
TEXT
  8
14
 7
SIMPLEX
 10
56346.0859
 20
1044.57324
 40
417.829285
  1
DATE:
 50
   0.000
  0
TEXT
  8
14
 7
SIMPLEX
 10
58477.0117
 20
1044.57324
 40
417.829285
  1
19/JAN/2026
 50
   0.000
  0
TEXT
  8
14
 7
SIMPLEX
 10
60942.2070
 20
1880.23169
 40
417.829285
  1
DRAFT:
 50
   0.000
  0
TEXT
  8
14
 7
SIMPLEX
 10
65120.5000
 20
1880.23169
 40
417.829285
  1
CHECK:
 50
   0.000
  0
TEXT
  8
14
 7
SIMPLEX
 10
62822.4375
 20
1044.57324
 40
417.829285
  1
SHEET
 50
   0.000
  0
TEXT
  8
14
 7
SIMPLEX
 10
66582.9063
 20
1044.57324
 40
417.829285
  1
OF
 50
   0.000
  0
TEXT
  8
14
 7
SIMPLEX
 10
64911.5859
 20
1044.57324
 40
417.829285
  1
 
 50
   0.000
999
FIELD:@PAGE_ID
  0
TEXT
  8
14
 7
SIMPLEX
 10
67418.5625
 20
1044.57324
 40
417.829285
  1
 
 50
   0.000
999
FIELD:@PAGE_TOTAL
  0
INSERT
  8
0
  2
ROFSHT
 10
13343.1543
 20
20022.9785
 41
1.00000000
 42
1.00000000
 43
1.00000000
 50
   0.000
  0
INSERT
  8
0
  2
RW2TRIM
 10
69089.8750
 20
48856.4141
 41
113.093559
 42
113.093559
 43
113.093559
 50
   0.000
  0
INSERT
  8
0
  2
TBL_DOWN
 10
0.00000000
 20
48856.4141
 41
1.00000000
 42
1.00000000
 43
1.00000000
 50
   0.000
  0
ENDSEC
  0
EOF
