999
SOURCE:MBS   PROGRAM:ASM_DXF   CELL:ASM_DWG   CLASS:SHOP   MODE:---
  0
SECTION
  2
HEADER
  9
$EXTMIN
 10
   0.000
 20
   0.000
  9
$EXTMAX
 10
 841.000
 20
 594.000
  9
$LIMMIN
 10
   0.000
 20
   0.000
  9
$LIMMAX
 10
 841.000
 20
 594.000
  9
$HANDLING
 70
     0
999
BORDER_EXTENTS: 0.000      0.000      841.000    594.000
  0
ENDSEC
  0
SECTION
  2
TABLES
  0
TABLE
  2
LTYPE
 70
     3
  0
LTYPE
  2
CONTIN
 70
    64
  3
SOLID LINE
 72
    65
 73
     0
 40
0.0
  0
LTYPE
  2
CENTER
 70
    64
  3
____ _ ____ _ ____ _ ____ _ ____ _ ____ _ ____
 72
    65
 73
     4
 40
2.0
 49
1.25
 49
-0.25
 49
0.25
 49
-0.25
  0
LTYPE
  2
DASHED
 70
    64
  3
__ __ __ __ __ __ __ __ __ __ __ __ __ __ __ 
 72
    65
 73
     2
 40
2.3812
 49
1.5875
 49
-0.7937
  0
ENDTAB
  0
TABLE
  2
LAYER
 70
    50
  0
LAYER
  2
0
 70
     0
 62
     7
  6
CONTIN
  0
LAYER
  2
1
 70
     0
 62
     7
  6
CONTIN
  0
LAYER
  2
2
 70
     0
 62
     7
  6
CONTIN
  0
LAYER
  2
3
 70
     0
 62
     1
  6
CONTIN
  0
LAYER
  2
4
 70
     0
 62
     1
  6
CONTIN
  0
LAYER
  2
5
 70
     0
 62
     7
  6
CONTIN
  0
LAYER
  2
6
 70
     0
 62
     6
  6
CONTIN
  0
LAYER
  2
7
 70
     0
 62
     3
  6
DASHED
  0
LAYER
  2
8
 70
     0
 62
     3
  6
DASHED
  0
LAYER
  2
9
 70
     0
 62
     7
  6
CONTIN
  0
LAYER
  2
10
 70
     0
 62
     7
  6
CONTIN
  0
LAYER
  2
11
 70
     0
 62
     7
  6
CONTIN
  0
LAYER
  2
12
 70
     0
 62
     3
  6
CONTIN
  0
LAYER
  2
13
 70
     0
 62
     3
  6
CONTIN
  0
LAYER
  2
14
 70
     0
 62
     7
  6
CONTIN
  0
LAYER
  2
15
 70
     0
 62
     6
  6
CONTIN
  0
LAYER
  2
16
 70
     0
 62
     7
  6
CONTIN
  0
LAYER
  2
17
 70
     0
 62
     7
  6
CONTIN
  0
LAYER
  2
18
 70
     0
 62
     6
  6
CONTIN
  0
LAYER
  2
19
 70
     0
 62
     7
  6
CONTIN
  0
LAYER
  2
20
 70
     0
 62
     7
  6
CONTIN
  0
LAYER
  2
21
 70
     0
 62
     7
  6
CONTIN
  0
LAYER
  2
22
 70
     0
 62
     7
  6
CONTIN
  0
LAYER
  2
23
 70
     0
 62
     7
  6
CONTIN
  0
LAYER
  2
24
 70
     0
 62
     7
  6
CONTIN
  0
LAYER
  2
25
 70
     0
 62
     7
  6
CONTIN
  0
LAYER
  2
26
 70
     0
 62
     7
  6
CONTIN
  0
LAYER
  2
27
 70
     0
 62
     7
  6
CONTIN
  0
LAYER
  2
28
 70
     0
 62
     7
  6
CONTIN
  0
LAYER
  2
29
 70
     0
 62
     7
  6
CONTIN
  0
LAYER
  2
30
 70
     0
 62
     7
  6
CONTIN
  0
LAYER
  2
31
 70
     0
 62
     7
  6
CONTIN
  0
LAYER
  2
32
 70
     0
 62
     7
  6
CONTIN
  0
LAYER
  2
33
 70
     0
 62
     7
  6
CONTIN
  0
LAYER
  2
34
 70
     0
 62
     7
  6
CONTIN
  0
LAYER
  2
35
 70
     0
 62
     7
  6
CONTIN
  0
LAYER
  2
36
 70
     0
 62
     7
  6
CONTIN
  0
LAYER
  2
37
 70
     0
 62
     7
  6
CONTIN
  0
LAYER
  2
38
 70
     0
 62
     7
  6
CONTIN
  0
LAYER
  2
39
 70
     0
 62
     7
  6
CONTIN
  0
LAYER
  2
40
 70
     0
 62
     7
  6
CONTIN
  0
LAYER
  2
41
 70
     0
 62
     7
  6
CONTIN
  0
LAYER
  2
42
 70
     0
 62
     7
  6
CONTIN
  0
LAYER
  2
43
 70
     0
 62
     7
  6
CONTIN
  0
LAYER
  2
44
 70
     0
 62
     7
  6
CONTIN
  0
LAYER
  2
45
 70
     0
 62
     7
  6
CONTIN
  0
LAYER
  2
46
 70
     0
 62
     7
  6
CONTIN
  0
LAYER
  2
47
 70
     0
 62
     7
  6
CONTIN
  0
LAYER
  2
48
 70
     0
 62
     7
  6
CONTIN
  0
LAYER
  2
49
 70
     0
 62
     7
  6
CONTIN
  0
ENDTAB
  0
TABLE
  2
STYLE
 70
  0
  0
STYLE
  2
SIMPLEX
 70
  0
 40
  0.000
 41
  1.000
 42
  1.000
 50
  0.000
 71
  0
  3
SIMPLEX
  0
STYLE
  2
ROMANS
 70
  0
 40
  0.000
 41
  1.000
 42
  1.000
 50
  0.000
 71
  0
  3
ROMANS
  0
STYLE
  2
OPEN
 70
  0
 40
  0.000
 41
  1.000
 42
  1.000
 50
  0.000
 71
  0
  3
SIMPLEX
  0
STYLE
  2
ARIAL
 70
  0
 40
  0.000
 41
  1.000
 42
  1.000
 50
  0.000
 71
  0
  3
ARIAL.TTF
  0
STYLE
  2
VERDANAB
 70
  0
 40
  0.000
 41
  1.000
 42
  1.000
 50
  0.000
 71
  0
  3
VERDANAB.TTF
  0
ENDTAB
  0
ENDSEC
  0
SECTION
  2
BLOCKS
  0
BLOCK
  8
2
  2
ARROW
 70
     0
 10
0.000     
 20
0.000     
  0
LINE
  8
2
 10
-0.635    
 20
-0.635    
 11
0.635     
 21
0.635     
  0
ENDBLK
  8
2
  0
BLOCK
  8
0
  2
ARROWP
 70
     0
 10
0.000     
 20
0.000     
  0
LINE
  8
0
 10
0.000     
 20
0.000     
 11
-1.270    
 21
0.317     
  0
LINE
  8
0
 10
-1.270    
 20
0.317     
 11
-1.270    
 21
-0.317    
  0
LINE
  8
0
 10
-1.270    
 20
-0.317    
 11
0.000     
 21
0.000     
  0
ENDBLK
  8
0
  0
BLOCK
  8
3
  2
CIRCLE
 70
     0
 10
0.000     
 20
0.000     
  0
CIRCLE
  8
1
 10
     0.000
 20
     0.000
 40
    10.160
  0
ENDBLK
  8
3
  0
BLOCK
  8
3
  2
SLOTTD
 70
     0
 10
0.000     
 20
0.000     
  0
ARC
  8
6
 10
-25.400   
 20
0.000     
 40
  12.700
 50
  90.000
 51
 270.000
  0
ARC
  8
6
 10
25.400    
 20
0.000     
 40
  12.700
 50
 270.000
 51
  90.000
  0
LINE
  8
6
 10
-25.400   
 20
-12.700   
 11
25.400    
 21
-12.700   
  0
LINE
  8
6
 10
-25.400   
 20
12.700    
 11
25.400    
 21
12.700    
  0
ENDBLK
  8
3
  0
BLOCK
  8
3
  2
FLGHOL
 70
     0
 10
0.000     
 20
0.000     
  0
SOLID
  8
6
 10
-6.350    
 20
0.000     
 11
6.350     
 21
0.000     
 12
-6.350    
 22
25.400    
 13
6.350     
 23
25.400    
  0
ENDBLK
  8
3
  0
BLOCK
  8
2
  2
BRCCLP
 70
     0
 10
12.700    
 20
0.000     
  0
LINE
  8
2
 10
12.700    
 20
0.000     
 11
12.700    
 21
101.600   
  0
LINE
  8
2
 10
-12.700   
 20
101.600   
 11
12.700    
 21
101.600   
  0
SOLID
  8
1
 10
-12.700   
 20
68.580    
 11
12.700    
 21
68.580    
 12
-12.700   
 22
83.820    
 13
12.700    
 23
83.820    
  0
ENDBLK
  8
3
  0
BLOCK
  8
2
  2
BRCCLPB
 70
     0
 10
12.700    
 20
0.000     
  0
LINE
  8
7
 10
12.700    
 20
0.000     
 11
12.700    
 21
101.600   
  0
LINE
  8
7
 10
-12.700   
 20
101.600   
 11
12.700    
 21
101.600   
  0
SOLID
  8
1
 10
-12.700   
 20
68.580    
 11
12.700    
 21
68.580    
 12
-12.700   
 22
83.820    
 13
12.700    
 23
83.820    
  0
ENDBLK
  8
3
  0
BLOCK
  8
2
  2
GRTANGC
 70
     0
 10
0.000     
 20
0.000     
  0
LINE
  8
13
 10
88.900    
 20
0.000     
 11
-12.700   
 21
0.000     
  0
LINE
  8
13
 10
88.900    
 20
0.000     
 11
88.900    
 21
152.400   
  0
LINE
  8
13
 10
-12.700   
 20
0.000     
 11
-12.700   
 21
152.400   
  0
LINE
  8
13
 10
88.900    
 20
152.400   
 11
-12.700   
 21
152.400   
  0
LINE
  8
13
 10
12.700    
 20
0.000     
 11
12.700    
 21
152.400   
  0
SOLID
  8
6
 10
-12.700   
 20
119.380   
 11
12.700    
 21
119.380   
 12
-12.700   
 22
134.620   
 13
12.700    
 23
134.620   
  0
SOLID
  8
6
 10
-12.700   
 20
68.580    
 11
12.700    
 21
68.580    
 12
-12.700   
 22
83.820    
 13
12.700    
 23
83.820    
  0
ENDBLK
  8
3
  0
BLOCK
  8
2
  2
GRTCLPB
 70
     0
 10
0.000     
 20
0.000     
  0
LINE
  8
13
 10
-12.700   
 20
0.000     
 11
-12.700   
 21
152.400   
  0
LINE
  8
13
 10
-12.700   
 20
0.000     
 11
12.700    
 21
0.000     
  0
LINE
  8
13
 10
-12.700   
 20
152.400   
 11
12.700    
 21
152.400   
  0
LINE
  8
13
 10
12.700    
 20
0.000     
 11
12.700    
 21
152.400   
  0
SOLID
  8
6
 10
-12.700   
 20
119.380   
 11
12.700    
 21
119.380   
 12
-12.700   
 22
134.620   
 13
12.700    
 23
134.620   
  0
SOLID
  8
6
 10
-12.700   
 20
68.580    
 11
12.700    
 21
68.580    
 12
-12.700   
 22
83.820    
 13
12.700    
 23
83.820    
  0
ENDBLK
  8
3
  0
BLOCK
  8
2
  2
GRTCLP1
 70
     0
 10
0.000     
 20
0.000     
  0
LINE
  8
13
 10
-12.700   
 20
0.000     
 11
-12.700   
 21
101.600   
  0
LINE
  8
13
 10
-12.700   
 20
0.000     
 11
12.700    
 21
0.000     
  0
LINE
  8
13
 10
-12.700   
 20
101.600   
 11
12.700    
 21
101.600   
  0
LINE
  8
13
 10
12.700    
 20
0.000     
 11
12.700    
 21
101.600   
  0
SOLID
  8
6
 10
-12.700   
 20
68.580    
 11
12.700    
 21
68.580    
 12
-12.700   
 22
83.820    
 13
12.700    
 23
83.820    
  0
ENDBLK
  8
3
  0
BLOCK
  8
2
  2
GRTCLP0
 70
     0
 10
0.000     
 20
0.000     
  0
LINE
  8
13
 10
-12.700   
 20
0.000     
 11
-12.700   
 21
101.600   
  0
LINE
  8
13
 10
-12.700   
 20
0.000     
 11
12.700    
 21
0.000     
  0
LINE
  8
13
 10
-12.700   
 20
101.600   
 11
12.700    
 21
101.600   
  0
LINE
  8
13
 10
12.700    
 20
0.000     
 11
12.700    
 21
101.600   
  0
ENDBLK
  8
3
  0
BLOCK
  8
2
  2
GRTCLPZ
 70
     0
 10
0.000     
 20
0.000     
  0
LINE
  8
13
 10
-12.700   
 20
0.000     
 11
-12.700   
 21
63.500    
  0
LINE
  8
13
 10
-12.700   
 20
63.500    
 11
38.100    
 21
63.500    
  0
LINE
  8
13
 10
38.100    
 20
63.500    
 11
38.100    
 21
152.400   
  0
LINE
  8
13
 10
38.100    
 20
152.400   
 11
63.500    
 21
152.400   
  0
LINE
  8
13
 10
63.500    
 20
152.400   
 11
63.500    
 21
38.100    
  0
LINE
  8
13
 10
63.500    
 20
38.100    
 11
12.700    
 21
38.100    
  0
LINE
  8
13
 10
12.700    
 20
38.100    
 11
12.700    
 21
0.000     
  0
SOLID
  8
6
 10
38.100    
 20
119.380   
 11
63.500    
 21
119.380   
 12
38.100    
 22
134.620   
 13
63.500    
 23
134.620   
  0
SOLID
  8
6
 10
38.100    
 20
68.580    
 11
63.500    
 21
68.580    
 12
38.100    
 22
83.820    
 13
63.500    
 23
83.820    
  0
ENDBLK
  8
3
  0
BLOCK
  8
2
  2
WEBCLP2
 70
     0
 10
0.000     
 20
152.400   
  0
LINE
  8
13
 10
-12.700   
 20
0.000     
 11
-12.700   
 21
203.200   
  0
LINE
  8
13
 10
-12.700   
 20
0.000     
 11
12.700    
 21
0.000     
  0
LINE
  8
13
 10
-12.700   
 20
203.200   
 11
12.700    
 21
203.200   
  0
LINE
  8
13
 10
12.700    
 20
0.000     
 11
12.700    
 21
203.200   
  0
SOLID
  8
6
 10
-12.700   
 20
43.180    
 11
12.700    
 21
43.180    
 12
-12.700   
 22
58.420    
 13
12.700    
 23
58.420    
  0
SOLID
  8
6
 10
-12.700   
 20
144.780   
 11
12.700    
 21
144.780   
 12
-12.700   
 22
160.020   
 13
12.700    
 23
160.020   
  0
ENDBLK
  8
3
  0
BLOCK
  8
2
  2
WEBCLPL
 70
     0
 10
0.000     
 20
152.400   
  0
LINE
  8
13
 10
0.000     
 20
0.000     
 11
-25.400   
 21
0.000     
  0
LINE
  8
13
 10
0.000     
 20
203.200   
 11
-25.400   
 21
203.200   
  0
LINE
  8
13
 10
-25.400   
 20
0.000     
 11
-25.400   
 21
203.200   
  0
ENDBLK
  8
3
  0
BLOCK
  8
2
  2
WEBCLP3
 70
     0
 10
0.000     
 20
144.780   
  0
LINE
  8
13
 10
-12.700   
 20
0.000     
 11
-12.700   
 21
187.960   
  0
LINE
  8
13
 10
-12.700   
 20
0.000     
 11
12.700    
 21
0.000     
  0
LINE
  8
13
 10
-12.700   
 20
187.960   
 11
12.700    
 21
187.960   
  0
LINE
  8
13
 10
12.700    
 20
0.000     
 11
12.700    
 21
187.960   
  0
SOLID
  8
6
 10
-12.700   
 20
35.560    
 11
12.700    
 21
35.560    
 12
-12.700   
 22
50.800    
 13
12.700    
 23
50.800    
  0
SOLID
  8
6
 10
-12.700   
 20
86.360    
 11
12.700    
 21
86.360    
 12
-12.700   
 22
101.600   
 13
12.700    
 23
101.600   
  0
SOLID
  8
6
 10
-12.700   
 20
137.160   
 11
12.700    
 21
137.160   
 12
-12.700   
 22
152.400   
 13
12.700    
 23
152.400   
  0
ENDBLK
  8
3
  0
BLOCK
  8
2
  2
WEBCLP4
 70
     0
 10
0.000     
 20
195.580   
  0
LINE
  8
13
 10
-12.700   
 20
0.000     
 11
-12.700   
 21
238.760   
  0
LINE
  8
13
 10
-12.700   
 20
0.000     
 11
12.700    
 21
0.000     
  0
LINE
  8
13
 10
-12.700   
 20
238.760   
 11
12.700    
 21
238.760   
  0
LINE
  8
13
 10
12.700    
 20
0.000     
 11
12.700    
 21
238.760   
  0
SOLID
  8
6
 10
-12.700   
 20
35.560    
 11
12.700    
 21
35.560    
 12
-12.700   
 22
50.800    
 13
12.700    
 23
50.800    
  0
SOLID
  8
6
 10
-12.700   
 20
86.360    
 11
12.700    
 21
86.360    
 12
-12.700   
 22
101.600   
 13
12.700    
 23
101.600   
  0
SOLID
  8
6
 10
-12.700   
 20
137.160   
 11
12.700    
 21
137.160   
 12
-12.700   
 22
152.400   
 13
12.700    
 23
152.400   
  0
SOLID
  8
6
 10
-12.700   
 20
187.960   
 11
12.700    
 21
187.960   
 12
-12.700   
 22
203.200   
 13
12.700    
 23
203.200   
  0
ENDBLK
  8
4
  0
BLOCK
  8
2
  2
WEBCLP1
 70
     0
 10
0.000     
 20
76.200    
  0
LINE
  8
13
 10
-12.700   
 20
0.000     
 11
-12.700   
 21
152.400   
  0
LINE
  8
13
 10
-12.700   
 20
0.000     
 11
12.700    
 21
0.000     
  0
LINE
  8
13
 10
-12.700   
 20
152.400   
 11
12.700    
 21
152.400   
  0
LINE
  8
13
 10
12.700    
 20
0.000     
 11
12.700    
 21
152.400   
  0
SOLID
  8
6
 10
-12.700   
 20
68.580    
 11
12.700    
 21
68.580    
 12
-12.700   
 22
83.820    
 13
12.700    
 23
83.820    
  0
ENDBLK
  8
3
  0
BLOCK
  8
2
  2
WEBCLP2B
 70
     0
 10
0.000     
 20
152.400   
  0
LINE
  8
7
 10
-12.700   
 20
0.000     
 11
-12.700   
 21
203.200   
  0
LINE
  8
7
 10
-12.700   
 20
0.000     
 11
12.700    
 21
0.000     
  0
LINE
  8
7
 10
-12.700   
 20
203.200   
 11
12.700    
 21
203.200   
  0
LINE
  8
7
 10
12.700    
 20
0.000     
 11
12.700    
 21
203.200   
  0
SOLID
  8
6
 10
-12.700   
 20
43.180    
 11
12.700    
 21
43.180    
 12
-12.700   
 22
58.420    
 13
12.700    
 23
58.420    
  0
SOLID
  8
6
 10
-12.700   
 20
144.780   
 11
12.700    
 21
144.780   
 12
-12.700   
 22
160.020   
 13
12.700    
 23
160.020   
  0
ENDBLK
  8
3
  0
BLOCK
  8
2
  2
WEBCLPLB
 70
     0
 10
0.000     
 20
152.400   
  0
LINE
  8
7
 10
0.000     
 20
0.000     
 11
-25.400   
 21
0.000     
  0
LINE
  8
7
 10
0.000     
 20
203.200   
 11
-25.400   
 21
203.200   
  0
LINE
  8
7
 10
-25.400   
 20
0.000     
 11
-25.400   
 21
203.200   
  0
ENDBLK
  8
3
  0
BLOCK
  8
2
  2
WEBCLP3B
 70
     0
 10
0.000     
 20
144.780   
  0
LINE
  8
7
 10
-12.700   
 20
0.000     
 11
-12.700   
 21
187.960   
  0
LINE
  8
7
 10
-12.700   
 20
0.000     
 11
12.700    
 21
0.000     
  0
LINE
  8
7
 10
-12.700   
 20
187.960   
 11
12.700    
 21
187.960   
  0
LINE
  8
7
 10
12.700    
 20
0.000     
 11
12.700    
 21
187.960   
  0
SOLID
  8
6
 10
-12.700   
 20
35.560    
 11
12.700    
 21
35.560    
 12
-12.700   
 22
50.800    
 13
12.700    
 23
50.800    
  0
SOLID
  8
6
 10
-12.700   
 20
86.360    
 11
12.700    
 21
86.360    
 12
-12.700   
 22
101.600   
 13
12.700    
 23
101.600   
  0
SOLID
  8
6
 10
-12.700   
 20
137.160   
 11
12.700    
 21
137.160   
 12
-12.700   
 22
152.400   
 13
12.700    
 23
152.400   
  0
ENDBLK
  8
3
  0
BLOCK
  8
2
  2
WEBCLP4B
 70
     0
 10
0.000     
 20
195.580   
  0
LINE
  8
7
 10
-12.700   
 20
0.000     
 11
-12.700   
 21
238.760   
  0
LINE
  8
7
 10
-12.700   
 20
0.000     
 11
12.700    
 21
0.000     
  0
LINE
  8
7
 10
-12.700   
 20
238.760   
 11
12.700    
 21
238.760   
  0
LINE
  8
7
 10
12.700    
 20
0.000     
 11
12.700    
 21
238.760   
  0
SOLID
  8
6
 10
-12.700   
 20
35.560    
 11
12.700    
 21
35.560    
 12
-12.700   
 22
50.800    
 13
12.700    
 23
50.800    
  0
SOLID
  8
6
 10
-12.700   
 20
86.360    
 11
12.700    
 21
86.360    
 12
-12.700   
 22
101.600   
 13
12.700    
 23
101.600   
  0
SOLID
  8
6
 10
-12.700   
 20
137.160   
 11
12.700    
 21
137.160   
 12
-12.700   
 22
152.400   
 13
12.700    
 23
152.400   
  0
SOLID
  8
6
 10
-12.700   
 20
187.960   
 11
12.700    
 21
187.960   
 12
-12.700   
 22
203.200   
 13
12.700    
 23
203.200   
  0
ENDBLK
  8
4
  0
BLOCK
  8
2
  2
WEBCLP1B
 70
     0
 10
0.000     
 20
76.200    
  0
LINE
  8
7
 10
-12.700   
 20
0.000     
 11
-12.700   
 21
152.400   
  0
LINE
  8
7
 10
-12.700   
 20
0.000     
 11
12.700    
 21
0.000     
  0
LINE
  8
7
 10
-12.700   
 20
152.400   
 11
12.700    
 21
152.400   
  0
LINE
  8
7
 10
12.700    
 20
0.000     
 11
12.700    
 21
152.400   
  0
SOLID
  8
6
 10
-12.700   
 20
68.580    
 11
12.700    
 21
68.580    
 12
-12.700   
 22
83.820    
 13
12.700    
 23
83.820    
  0
ENDBLK
  8
3
  0
BLOCK
  8
2
  2
FC_CLIP2
 70
     0
 10
0.000     
 20
0.000     
  0
LINE
  8
2
 10
-50.800   
 20
0.000     
 11
-50.800   
 21
152.400   
  0
LINE
  8
2
 10
-50.800   
 20
0.000     
 11
50.800    
 21
0.000     
  0
LINE
  8
2
 10
-50.800   
 20
152.400   
 11
50.800    
 21
152.400   
  0
LINE
  8
2
 10
50.800    
 20
0.000     
 11
50.800    
 21
152.400   
  0
CIRCLE
  8
1
 10
     0.000
 20
   101.600
 40
    12.700
  0
CIRCLE
  8
1
 10
     0.000
 20
    50.800
 40
    12.700
  0
ENDBLK
  8
3
  0
BLOCK
  8
2
  2
FC_CLIP3
 70
     0
 10
0.000     
 20
0.000     
  0
LINE
  8
2
 10
-50.800   
 20
0.000     
 11
-50.800   
 21
152.400   
  0
LINE
  8
2
 10
-50.800   
 20
0.000     
 11
50.800    
 21
0.000     
  0
LINE
  8
2
 10
-50.800   
 20
152.400   
 11
50.800    
 21
152.400   
  0
LINE
  8
2
 10
50.800    
 20
0.000     
 11
50.800    
 21
152.400   
  0
CIRCLE
  8
1
 10
     0.000
 20
   101.600
 40
    12.700
  0
CIRCLE
  8
1
 10
     0.000
 20
    76.200
 40
    12.700
  0
CIRCLE
  8
1
 10
     0.000
 20
    50.800
 40
    12.700
  0
ENDBLK
  8
3
  0
BLOCK
  8
2
  2
EAVCLP
 70
     0
 10
0.000     
 20
0.000     
  0
LINE
  8
2
 10
-25.400   
 20
0.000     
 11
-25.400   
 21
304.800   
  0
LINE
  8
2
 10
-25.400   
 20
0.000     
 11
0.000     
 21
0.000     
  0
LINE
  8
2
 10
-25.400   
 20
304.800   
 11
0.000     
 21
304.800   
  0
LINE
  8
2
 10
0.000     
 20
0.000     
 11
0.000     
 21
304.800   
  0
SOLID
  8
1
 10
-25.400   
 20
271.780   
 11
0.000     
 21
271.780   
 12
-25.400   
 22
287.020   
 13
0.000     
 23
287.020   
  0
SOLID
  8
1
 10
-25.400   
 20
220.980   
 11
0.000     
 21
220.980   
 12
-25.400   
 22
236.220   
 13
0.000     
 23
236.220   
  0
ENDBLK
  8
3
  0
BLOCK
  8
2
  2
ASMPIECE
 70
     0
 10
5460.439  
 20
8449.954  
  0
LINE
  8
1
 10
5460.441  
 20
8449.954  
 11
5460.439  
 21
8099.271  
  0
LINE
  8
1
 10
10935.37  
 20
8094.019  
 11
10846.38  
 21
8449.954  
  0
TEXT
  8
3
 7
SIMPLEX
 10
7238.649  
 20
8354.768  
 40
   21.153
  1
WB2
 50
    0.000
  0
LINE
  8
1
 10
5460.441  
 20
8449.954  
 11
5460.440  
 21
8458.452  
  0
LINE
  8
1
 10
5460.441  
 20
8449.954  
 11
11046.13  
 21
8449.954  
  0
LINE
  8
1
 10
11046.13  
 20
8449.954  
 11
11046.13  
 21
8458.452  
  0
LINE
  8
1
 10
5460.440  
 20
8458.452  
 11
11046.13  
 21
8458.452  
  0
TEXT
  8
3
 7
SIMPLEX
 10
8253.287  
 20
8463.740  
 40
   21.153
  1
OF2
 50
    0.000
  0
LINE
  8
1
 10
10846.90  
 20
8447.893  
 11
10855.14  
 21
8449.954  
  0
LINE
  8
1
 10
10846.90  
 20
8447.893  
 11
10935.37  
 21
8094.019  
  0
LINE
  8
1
 10
10935.37  
 20
8094.019  
 11
10943.61  
 21
8096.080  
  0
LINE
  8
1
 10
10855.14  
 20
8449.954  
 11
10943.61  
 21
8096.080  
  0
TEXT
  8
3
 7
SIMPLEX
 10
10889.83  
 20
8332.996  
 40
   21.153
  1
OF3
 50
  -75.964
  0
LINE
  8
1
 10
5460.782  
 20
8099.256  
 11
5460.440  
 21
8090.764  
  0
LINE
  8
1
 10
5460.782  
 20
8099.256  
 11
10154.24  
 21
7898.739  
  0
LINE
  8
1
 10
10154.24  
 20
7898.739  
 11
10153.88  
 21
7890.248  
  0
LINE
  8
1
 10
5460.440  
 20
8090.764  
 11
10153.88  
 21
7890.248  
  0
TEXT
  8
3
 7
SIMPLEX
 10
7805.803  
 20
7958.806  
 40
   21.153
  1
IF2
 50
   -2.446
  0
LINE
  8
12
 10
5460.440  
 20
8512.372  
 11
5450.997  
 21
8512.372  
  0
LINE
  8
12
 10
5460.440  
 20
8512.372  
 11
5460.440  
 21
8036.852  
  0
LINE
  8
12
 10
5460.440  
 20
8036.852  
 11
5450.997  
 21
8036.852  
  0
LINE
  8
12
 10
5450.997  
 20
8512.372  
 11
5450.997  
 21
8036.852  
  0
TEXT
  8
3
 7
SIMPLEX
 10
5445.709  
 20
8242.884  
 40
   21.153
  1
EP3
 50
   90.000
  0
LINE
  8
12
 10
10995.92  
 20
8109.158  
 11
10998.21  
 21
8099.996  
  0
LINE
  8
12
 10
10995.92  
 20
8109.158  
 11
10158.13  
 21
7899.710  
  0
LINE
  8
12
 10
10158.13  
 20
7899.710  
 11
10160.42  
 21
7890.548  
  0
LINE
  8
12
 10
10998.21  
 20
8099.996  
 11
10160.42  
 21
7890.548  
  0
TEXT
  8
3
 7
SIMPLEX
 10
10554.95  
 20
7961.925  
 40
   21.153
  1
EP2
 50
   14.036
  0
INSERT
  8
6
  2
SLOTTD
 10
10671.38  
 20
8374.954  
 41
   0.223
 42
   0.223
 43
   0.223
 50
   0.000
  0
TEXT
  8
3
 7
SIMPLEX
 10
10660.81  
 20
8343.225  
 40
   21.153
  1
S1
 50
    0.000
  0
INSERT
  8
6
  2
SLOTTD
 10
10834.25  
 20
8189.228  
 41
   0.223
 42
   0.223
 43
   0.223
 50
 -75.964
  0
TEXT
  8
3
 7
SIMPLEX
 10
10800.91  
 20
8191.793  
 40
   21.153
  1
S1
 50
  -75.964
  0
LINE
  8
8
 10
8366.150  
 20
8318.392  
 11
8333.257  
 21
8449.954  
  0
INSERT
  8
2
  2
CIRCLE
 10
8409.527  
 20
8351.040  
 41
   0.223
 42
   0.223
 43
   0.223
 50
   0.000
  0
INSERT
  8
2
  2
CIRCLE
 10
8312.513  
 20
8326.784  
 41
   0.223
 42
   0.223
 43
   0.223
 50
   0.000
  0
LINE
  8
2
 10
6132.709  
 20
8449.954  
 11
6108.157  
 21
8449.954  
  0
LINE
  8
2
 10
6132.709  
 20
8095.562  
 11
6108.157  
 21
8095.562  
  0
LINE
  8
2
 10
6113.823  
 20
8449.954  
 11
6113.823  
 21
8095.562  
  0
INSERT
  8
2
  2
ARROW
 10
6113.823  
 20
8449.954  
 41
   7.436
 42
   7.436
 43
   7.436
 50
  90.000
  0
INSERT
  8
2
  2
ARROW
 10
6113.823  
 20
8095.562  
 41
   7.436
 42
   7.436
 43
   7.436
 50
 -90.000
  0
TEXT
  8
11
 7
SIMPLEX
 10
6120.874  
 20
8258.656  
 40
   21.153
  1
330
 50
    0.000
  0
LINE
  8
2
 10
9396.973  
 20
8449.954  
 11
9421.524  
 21
8449.954  
  0
LINE
  8
2
 10
9396.973  
 20
7957.070  
 11
9421.524  
 21
7957.070  
  0
LINE
  8
2
 10
9415.859  
 20
8449.954  
 11
9415.859  
 21
7957.070  
  0
INSERT
  8
2
  2
ARROW
 10
9415.859  
 20
8449.954  
 41
   7.436
 42
   7.436
 43
   7.436
 50
  90.000
  0
INSERT
  8
2
  2
ARROW
 10
9415.859  
 20
7957.070  
 41
   7.436
 42
   7.436
 43
   7.436
 50
 -90.000
  0
TEXT
  8
11
 7
SIMPLEX
 10
9428.575  
 20
8189.410  
 40
   21.153
  1
468
 50
    0.000
  0
INSERT
  8
6
  2
FLGHOL
 10
5450.997  
 20
8480.644  
 41
   0.335
 42
   0.372
 43
   0.372
 50
 -90.000
  0
INSERT
  8
6
  2
FLGHOL
 10
5450.997  
 20
8427.762  
 41
   0.335
 42
   0.372
 43
   0.372
 50
 -90.000
  0
INSERT
  8
6
  2
FLGHOL
 10
5450.997  
 20
8121.461  
 41
   0.335
 42
   0.372
 43
   0.372
 50
 -90.000
  0
INSERT
  8
6
  2
FLGHOL
 10
5450.997  
 20
8068.580  
 41
   0.335
 42
   0.372
 43
   0.372
 50
 -90.000
  0
INSERT
  8
6
  2
FLGHOL
 10
10965.14  
 20
8101.462  
 41
   0.335
 42
   0.372
 43
   0.372
 50
-165.964
  0
INSERT
  8
6
  2
FLGHOL
 10
10913.84  
 20
8088.636  
 41
   0.335
 42
   0.372
 43
   0.372
 50
-165.964
  0
INSERT
  8
6
  2
FLGHOL
 10
10601.63  
 20
8010.585  
 41
   0.335
 42
   0.372
 43
   0.372
 50
-165.964
  0
INSERT
  8
6
  2
FLGHOL
 10
10312.20  
 20
7938.229  
 41
   0.335
 42
   0.372
 43
   0.372
 50
-165.964
  0
INSERT
  8
6
  2
FLGHOL
 10
10215.73  
 20
7914.110  
 41
   0.335
 42
   0.372
 43
   0.372
 50
-165.964
  0
INSERT
  8
1
  2
GRTCLPB
 10
6141.207  
 20
8458.452  
 41
  -0.223
 42
   0.223
 43
   0.223
 50
   0.000
  0
CIRCLE
  8
15
 10
  6144.040
 20
  8458.452
 40
     6.346
  0
INSERT
  8
1
  2
GRTCLPB
 10
7762.007  
 20
8458.452  
 41
  -0.223
 42
   0.223
 43
   0.223
 50
   0.000
  0
CIRCLE
  8
15
 10
  7764.841
 20
  8458.452
 40
     6.346
  0
TEXT
  8
3
 7
SIMPLEX
 10
7788.825  
 20
8487.474  
 40
   21.153
  1
CLF3(typ)
 50
    0.000
  0
LINE
  8
3
 10
7767.673  
 20
8483.948  
 11
7814.889  
 21
8483.948  
  0
INSERT
  8
3
  2
ARROWP
 10
7767.673  
 20
8483.948  
 41
   7.436
 42
   7.436
 43
   7.436
 50
 180.000
  0
INSERT
  8
1
  2
GRTCLPB
 10
9382.808  
 20
8458.452  
 41
  -0.223
 42
   0.223
 43
   0.223
 50
   0.000
  0
CIRCLE
  8
15
 10
  9385.641
 20
  8458.452
 40
     6.346
  0
INSERT
  8
1
  2
GRTCLPB
 10
10929.27  
 20
8458.452  
 41
   0.223
 42
   0.223
 43
   0.223
 50
   0.000
  0
CIRCLE
  8
15
 10
 10926.439
 20
  8458.452
 40
     6.346
  0
LINE
  8
1
 10
11046.13  
 20
8449.954  
 11
10892.10  
 21
8302.104  
  0
TEXT
  8
3
 7
SIMPLEX
 10
10918.92  
 20
8305.629  
 40
   21.153
  1
ES1
 50
    0.000
  0
LINE
  8
3
 10
10897.77  
 20
8302.104  
 11
10944.99  
 21
8302.104  
  0
INSERT
  8
3
  2
ARROWP
 10
10897.77  
 20
8302.104  
 41
   7.436
 42
   7.436
 43
   7.436
 50
 180.000
  0
INSERT
  8
7
  2
BRCCLP
 10
6144.041  
 20
8070.065  
 41
  -0.335
 42
   0.335
 43
   0.335
 50
   0.000
  0
CIRCLE
  8
15
 10
  6144.041
 20
  8070.065
 40
     6.346
  0
LINE
  8
1
 10
6152.540  
 20
8104.060  
 11
6152.540  
 21
8069.702  
  0
TEXT
  8
3
 7
SIMPLEX
 10
6171.348  
 20
8106.317  
 40
   21.153
  1
CLF1 (typ)
 50
   -2.446
  0
TEXT
  8
3
 7
SIMPLEX
 10
6169.994  
 20
8074.617  
 40
   21.153
  1
NS/FS
 50
   -2.446
  0
LINE
  8
3
 10
6150.064  
 20
8103.697  
 11
6197.237  
 21
8101.682  
  0
INSERT
  8
3
  2
ARROWP
 10
6150.064  
 20
8103.697  
 41
   7.436
 42
   7.436
 43
   7.436
 50
 177.554
  0
INSERT
  8
7
  2
BRCCLP
 10
9385.641  
 20
7931.574  
 41
  -0.335
 42
   0.335
 43
   0.335
 50
   0.000
  0
CIRCLE
  8
15
 10
  9385.641
 20
  7931.574
 40
     6.346
  0
LINE
  8
1
 10
9394.140  
 20
7965.569  
 11
9394.140  
 21
7931.211  
  0
LINE
  8
9
 10
10261.13  
 20
7926.169  
 11
10261.14  
 21
8449.954  
  0
LINE
  8
9
 10
10261.14  
 20
8449.954  
 11
10266.81  
 21
8449.954  
  0
LINE
  8
9
 10
10266.81  
 20
8449.954  
 11
10266.80  
 21
7926.169  
  0
CIRCLE
  8
15
 10
 10261.133
 20
  7926.169
 40
     6.346
  0
TEXT
  8
3
 7
SIMPLEX
 10
10153.47  
 20
8048.987  
 40
   21.153
  1
ST1
 50
    0.004
  0
TEXT
  8
3
 7
SIMPLEX
 10
10153.47  
 20
8017.258  
 40
   21.153
  1
NS/FS
 50
    0.004
  0
LINE
  8
3
 10
10259.24  
 20
8045.469  
 11
10212.02  
 21
8045.465  
  0
INSERT
  8
3
  2
ARROWP
 10
10259.24  
 20
8045.469  
 41
   7.436
 42
   7.436
 43
   7.436
 50
   0.004
  0
LINE
  8
9
 10
5460.440  
 20
8512.372  
 11
5580.440  
 21
8458.452  
  0
TEXT
  8
3
 7
SIMPLEX
 10
5603.481  
 20
8494.746  
 40
   21.153
  1
SS1
 50
    0.000
  0
LINE
  8
3
 10
5582.329  
 20
8491.221  
 11
5629.544  
 21
8491.221  
  0
INSERT
  8
3
  2
ARROWP
 10
5582.329  
 20
8491.221  
 41
   7.436
 42
   7.436
 43
   7.436
 50
 180.000
  0
LINE
  8
9
 10
5580.331  
 20
8085.642  
 11
5460.440  
 21
8036.852  
  0
TEXT
  8
3
 7
SIMPLEX
 10
5603.501  
 20
8039.391  
 40
   21.153
  1
SS3
 50
   -2.446
  0
LINE
  8
3
 10
5582.218  
 20
8036.771  
 11
5629.390  
 21
8034.756  
  0
INSERT
  8
3
  2
ARROWP
 10
5582.218  
 20
8036.771  
 41
   7.436
 42
   7.436
 43
   7.436
 50
 177.554
  0
LINE
  8
9
 10
10930.33  
 20
8149.186  
 11
10995.92  
 21
8109.158  
  0
TEXT
  8
3
 7
SIMPLEX
 10
10958.95  
 20
8223.697  
 40
   21.153
  1
SS1
 50
  -75.964
  0
LINE
  8
3
 10
10970.92  
 20
8161.279  
 11
10959.47  
 21
8207.085  
  0
INSERT
  8
3
  2
ARROWP
 10
10970.92  
 20
8161.279  
 41
   7.436
 42
   7.436
 43
   7.436
 50
 -75.964
  0
LINE
  8
2
 10
5460.440  
 20
8522.637  
 11
5460.440  
 21
8751.188  
  0
LINE
  8
2
 10
11046.13  
 20
8522.637  
 11
11046.13  
 21
8751.188  
  0
LINE
  8
2
 10
5460.440  
 20
8745.523  
 11
11046.13  
 21
8745.523  
  0
INSERT
  8
2
  2
ARROW
 10
5460.440  
 20
8745.523  
 41
   7.436
 42
   7.436
 43
   7.436
 50
 180.000
  0
INSERT
  8
2
  2
ARROW
 10
11046.13  
 20
8745.523  
 41
   7.436
 42
   7.436
 43
   7.436
 50
   0.000
  0
TEXT
  8
11
 7
SIMPLEX
 10
8210.981  
 20
8752.574  
 40
   21.153
  1
5586
 50
    0.000
  0
LINE
  8
2
 10
10917.41  
 20
8465.521  
 11
11139.14  
 21
8520.952  
  0
LINE
  8
2
 10
11005.88  
 20
8111.646  
 11
11227.61  
 21
8167.079  
  0
LINE
  8
2
 10
11133.64  
 20
8519.578  
 11
11222.11  
 21
8165.705  
  0
INSERT
  8
2
  2
ARROW
 10
11133.64  
 20
8519.578  
 41
   7.436
 42
   7.436
 43
   7.436
 50
 104.036
  0
INSERT
  8
2
  2
ARROW
 10
11222.11  
 20
8165.705  
 41
   7.436
 42
   7.436
 43
   7.436
 50
 -75.964
  0
TEXT
  8
11
 7
SIMPLEX
 10
11177.02  
 20
8375.133  
 40
   21.153
  1
366
 50
  -75.964
  0
LINE
  8
3
 10
5458.022  
 20
8034.158  
 11
5454.555  
 21
7953.021  
  0
INSERT
  8
3
  2
ARROW
 10
5454.797  
 20
7958.682  
 41
   7.436
 42
   7.436
 43
   7.436
 50
 177.554
  0
LINE
  8
2
 10
5454.797  
 20
7958.682  
 11
10148.23  
 21
7758.165  
  0
LINE
  8
2
 10
10151.46  
 20
7833.641  
 11
10147.99  
 21
7752.504  
  0
INSERT
  8
2
  2
ARROW
 10
10148.23  
 20
7758.165  
 41
   7.436
 42
   7.436
 43
   7.436
 50
  -2.446
  0
TEXT
  8
11
 7
SIMPLEX
 10
7751.062  
 20
7867.636  
 40
   21.153
  1
4698
 50
   -2.446
  0
TEXT
  8
21
 7
SIMPLEX
 10
5231.917  
 20
8544.102  
 40
   21.153
  1
G=100
 50
    0.000
  0
TEXT
  8
21
 7
SIMPLEX
 10
5231.917  
 20
8575.831  
 40
   21.153
  1
D=22
 50
    0.000
  0
LINE
  8
2
 10
5424.557  
 20
8512.372  
 11
5394.338  
 21
8512.372  
  0
LINE
  8
2
 10
5424.557  
 20
8480.644  
 11
5394.338  
 21
8480.644  
  0
LINE
  8
2
 10
5400.004  
 20
8512.372  
 11
5400.004  
 21
8480.644  
  0
INSERT
  8
2
  2
ARROW
 10
5400.004  
 20
8512.372  
 41
   7.436
 42
   7.436
 43
   7.436
 50
  90.000
  0
INSERT
  8
2
  2
ARROW
 10
5400.004  
 20
8480.644  
 41
   7.436
 42
   7.436
 43
   7.436
 50
 -90.000
  0
TEXT
  8
11
 7
SIMPLEX
 10
5344.982  
 20
8482.406  
 40
   21.153
  1
50
 50
    0.000
  0
LINE
  8
2
 10
5424.557  
 20
8427.762  
 11
5394.338  
 21
8427.762  
  0
LINE
  8
2
 10
5400.004  
 20
8446.648  
 11
5400.004  
 21
8427.762  
  0
INSERT
  8
2
  2
ARROW
 10
5400.004  
 20
8427.762  
 41
   7.436
 42
   7.436
 43
   7.436
 50
 -90.000
  0
TEXT
  8
11
 7
SIMPLEX
 10
5334.406  
 20
8434.813  
 40
   21.153
  1
150
 50
    0.000
  0
LINE
  8
2
 10
5424.557  
 20
8121.461  
 11
5394.338  
 21
8121.461  
  0
LINE
  8
2
 10
5400.004  
 20
8140.348  
 11
5400.004  
 21
8121.461  
  0
INSERT
  8
2
  2
ARROW
 10
5400.004  
 20
8121.461  
 41
   7.436
 42
   7.436
 43
   7.436
 50
 -90.000
  0
TEXT
  8
11
 7
SIMPLEX
 10
5323.830  
 20
8128.512  
 40
   21.153
  1
400
 50
    0.000
  0
LINE
  8
2
 10
5424.557  
 20
8068.580  
 11
5394.338  
 21
8068.580  
  0
LINE
  8
2
 10
5400.004  
 20
8087.467  
 11
5400.004  
 21
8068.580  
  0
INSERT
  8
2
  2
ARROW
 10
5400.004  
 20
8068.580  
 41
   7.436
 42
   7.436
 43
   7.436
 50
 -90.000
  0
TEXT
  8
11
 7
SIMPLEX
 10
5323.830  
 20
8075.631  
 40
   21.153
  1
500
 50
    0.000
  0
TEXT
  8
21
 7
SIMPLEX
 10
11047.31  
 20
8034.402  
 40
   21.153
  1
G=100
 50
  -75.964
  0
TEXT
  8
21
 7
SIMPLEX
 10
11078.10  
 20
8042.098  
 40
   21.153
  1
D=22
 50
  -75.964
  0
LINE
  8
2
 10
11004.62  
 20
8074.345  
 11
11011.95  
 21
8045.029  
  0
LINE
  8
2
 10
10973.84  
 20
8066.649  
 11
10981.17  
 21
8037.333  
  0
LINE
  8
2
 10
11010.58  
 20
8050.525  
 11
10979.80  
 21
8042.830  
  0
INSERT
  8
2
  2
ARROW
 10
11010.58  
 20
8050.525  
 41
   7.436
 42
   7.436
 43
   7.436
 50
  14.036
  0
INSERT
  8
2
  2
ARROW
 10
10979.80  
 20
8042.830  
 41
   7.436
 42
   7.436
 43
   7.436
 50
-165.964
  0
TEXT
  8
11
 7
SIMPLEX
 10
10984.59  
 20
8030.921  
 40
   21.153
  1
50
 50
  -75.964
  0
LINE
  8
2
 10
10922.54  
 20
8053.824  
 11
10929.87  
 21
8024.508  
  0
LINE
  8
2
 10
10946.82  
 20
8034.584  
 11
10928.49  
 21
8030.004  
  0
INSERT
  8
2
  2
ARROW
 10
10928.49  
 20
8030.004  
 41
   7.436
 42
   7.436
 43
   7.436
 50
-165.964
  0
TEXT
  8
11
 7
SIMPLEX
 10
10938.42  
 20
8019.378  
 40
   21.153
  1
150
 50
  -75.964
  0
LINE
  8
2
 10
10610.33  
 20
7975.773  
 11
10617.66  
 21
7946.457  
  0
LINE
  8
2
 10
10634.61  
 20
7956.534  
 11
10616.29  
 21
7951.953  
  0
INSERT
  8
2
  2
ARROW
 10
10616.29  
 20
7951.953  
 41
   7.436
 42
   7.436
 43
   7.436
 50
-165.964
  0
TEXT
  8
11
 7
SIMPLEX
 10
10626.21  
 20
7941.327  
 40
   21.153
  1
450
 50
  -75.964
  0
LINE
  8
2
 10
10320.91  
 20
7903.416  
 11
10328.24  
 21
7874.100  
  0
LINE
  8
2
 10
10345.18  
 20
7884.177  
 11
10326.86  
 21
7879.597  
  0
INSERT
  8
2
  2
ARROW
 10
10326.86  
 20
7879.597  
 41
   7.436
 42
   7.436
 43
   7.436
 50
-165.964
  0
TEXT
  8
11
 7
SIMPLEX
 10
10336.79  
 20
7868.970  
 40
   21.153
  1
750
 50
  -75.964
  0
LINE
  8
2
 10
10224.43  
 20
7879.297  
 11
10231.76  
 21
7849.981  
  0
LINE
  8
2
 10
10248.71  
 20
7860.058  
 11
10230.39  
 21
7855.478  
  0
INSERT
  8
2
  2
ARROW
 10
10230.39  
 20
7855.478  
 41
   7.436
 42
   7.436
 43
   7.436
 50
-165.964
  0
TEXT
  8
11
 7
SIMPLEX
 10
10240.31  
 20
7844.851  
 40
   21.153
  1
850
 50
  -75.964
  0
LINE
  8
2
 10
5471.772  
 20
8480.644  
 11
5500.102  
 21
8480.644  
  0
LINE
  8
2
 10
5471.772  
 20
8458.452  
 11
5500.102  
 21
8458.452  
  0
LINE
  8
2
 10
5494.436  
 20
8480.644  
 11
5494.436  
 21
8458.452  
  0
INSERT
  8
2
  2
ARROW
 10
5494.436  
 20
8480.644  
 41
   7.436
 42
   7.436
 43
   7.436
 50
  90.000
  0
INSERT
  8
2
  2
ARROW
 10
5494.436  
 20
8458.452  
 41
   7.436
 42
   7.436
 43
   7.436
 50
 -90.000
  0
TEXT
  8
11
 7
SIMPLEX
 10
5507.152  
 20
8460.215  
 40
   21.153
  1
45
 50
    0.000
  0
LINE
  8
2
 10
10940.86  
 20
8107.073  
 11
10933.99  
 21
8134.557  
  0
LINE
  8
2
 10
10962.39  
 20
8112.455  
 11
10955.52  
 21
8139.938  
  0
LINE
  8
2
 10
10935.37  
 20
8129.060  
 11
10956.89  
 21
8134.442  
  0
INSERT
  8
2
  2
ARROW
 10
10935.37  
 20
8129.060  
 41
   7.436
 42
   7.436
 43
   7.436
 50
 374.036
  0
INSERT
  8
2
  2
ARROW
 10
10956.89  
 20
8134.442  
 41
   7.436
 42
   7.436
 43
   7.436
 50
 194.036
  0
TEXT
  8
11
 7
SIMPLEX
 10
10962.02  
 20
8142.993  
 40
   21.153
  1
45
 50
   14.036
  0
LINE
  8
2
 10
8322.264  
 20
8447.205  
 11
8201.431  
 21
8416.995  
  0
LINE
  8
2
 10
8350.026  
 20
8336.163  
 11
8229.193  
 21
8305.952  
  0
LINE
  8
2
 10
8206.928  
 20
8418.369  
 11
8234.690  
 21
8307.327  
  0
INSERT
  8
2
  2
ARROW
 10
8206.928  
 20
8418.369  
 41
   7.436
 42
   7.436
 43
   7.436
 50
 104.037
  0
INSERT
  8
2
  2
ARROW
 10
8234.690  
 20
8307.327  
 41
   7.436
 42
   7.436
 43
   7.436
 50
 -75.963
  0
TEXT
  8
11
 7
SIMPLEX
 10
8170.851  
 20
8335.821  
 40
   21.153
  1
114
 50
   14.037
  0
TEXT
  8
21
 7
SIMPLEX
 10
8248.646  
 20
8622.196  
 40
   21.153
  1
D=14
 50
    0.000
  0
LINE
  8
2
 10
8315.262  
 20
8315.791  
 11
8321.217  
 21
8291.972  
  0
LINE
  8
2
 10
8412.275  
 20
8340.047  
 11
8418.231  
 21
8316.228  
  0
LINE
  8
2
 10
8319.843  
 20
8297.469  
 11
8416.856  
 21
8321.725  
  0
INSERT
  8
2
  2
ARROW
 10
8319.843  
 20
8297.469  
 41
   7.436
 42
   7.436
 43
   7.436
 50
 194.037
  0
INSERT
  8
2
  2
ARROW
 10
8416.856  
 20
8321.725  
 41
   7.436
 42
   7.436
 43
   7.436
 50
  14.037
  0
TEXT
  8
11
 7
SIMPLEX
 10
8349.539  
 20
8275.822  
 40
   21.153
  1
100
 50
   14.037
  0
LINE
  8
2
 10
5460.441  
 20
8625.596  
 11
5460.441  
 21
8653.925  
  0
LINE
  8
2
 10
5509.545  
 20
8648.260  
 11
5460.441  
 21
8648.260  
  0
INSERT
  8
2
  2
ARROW
 10
5460.441  
 20
8648.260  
 41
   7.436
 42
   7.436
 43
   7.436
 50
 180.000
  0
LINE
  8
2
 10
8333.257  
 20
8625.596  
 11
8333.257  
 21
8653.925  
  0
LINE
  8
2
 10
8284.153  
 20
8648.260  
 11
8333.257  
 21
8648.260  
  0
INSERT
  8
2
  2
ARROW
 10
8333.257  
 20
8648.260  
 41
   7.436
 42
   7.436
 43
   7.436
 50
   0.000
  0
TEXT
  8
11
 7
SIMPLEX
 10
8241.596  
 20
8655.311  
 40
   21.153
  1
2873
 50
    0.000
  0
LINE
  8
2
 10
10660.05  
 20
8449.954  
 11
10635.50  
 21
8449.954  
  0
LINE
  8
2
 10
10660.05  
 20
8374.954  
 11
10635.50  
 21
8374.954  
  0
LINE
  8
2
 10
10641.16  
 20
8449.954  
 11
10641.16  
 21
8374.954  
  0
INSERT
  8
2
  2
ARROW
 10
10641.16  
 20
8449.954  
 41
   7.436
 42
   7.436
 43
   7.436
 50
  90.000
  0
INSERT
  8
2
  2
ARROW
 10
10641.16  
 20
8374.954  
 41
   7.436
 42
   7.436
 43
   7.436
 50
 -90.000
  0
TEXT
  8
11
 7
SIMPLEX
 10
10586.14  
 20
8398.353  
 40
   21.153
  1
75
 50
    0.000
  0
LINE
  8
2
 10
5460.441  
 20
8563.271  
 11
5460.441  
 21
8601.043  
  0
LINE
  8
2
 10
10671.38  
 20
8563.271  
 11
10671.38  
 21
8601.043  
  0
LINE
  8
2
 10
5460.441  
 20
8595.378  
 11
10671.38  
 21
8595.378  
  0
INSERT
  8
2
  2
ARROW
 10
5460.441  
 20
8595.378  
 41
   7.436
 42
   7.436
 43
   7.436
 50
 180.000
  0
INSERT
  8
2
  2
ARROW
 10
10671.38  
 20
8595.378  
 41
   7.436
 42
   7.436
 43
   7.436
 50
   0.000
  0
TEXT
  8
11
 7
SIMPLEX
 10
10600.87  
 20
8602.429  
 40
   21.153
  1
5211
 50
    0.000
  0
LINE
  8
2
 10
10909.76  
 20
8196.425  
 11
10915.72  
 21
8172.606  
  0
LINE
  8
2
 10
10837.00  
 20
8178.235  
 11
10842.96  
 21
8154.416  
  0
LINE
  8
2
 10
10914.34  
 20
8178.103  
 11
10841.58  
 21
8159.913  
  0
INSERT
  8
2
  2
ARROW
 10
10914.34  
 20
8178.103  
 41
   7.436
 42
   7.436
 43
   7.436
 50
  14.036
  0
INSERT
  8
2
  2
ARROW
 10
10841.58  
 20
8159.913  
 41
   7.436
 42
   7.436
 43
   7.436
 50
-165.964
  0
TEXT
  8
11
 7
SIMPLEX
 10
10867.37  
 20
8153.251  
 40
   21.153
  1
75
 50
  -75.964
  0
LINE
  8
2
 10
10956.31  
 20
8477.438  
 11
10992.96  
 21
8486.599  
  0
LINE
  8
2
 10
11016.95  
 20
8234.902  
 11
11053.59  
 21
8244.063  
  0
LINE
  8
2
 10
10987.46  
 20
8485.225  
 11
11048.10  
 21
8242.689  
  0
INSERT
  8
2
  2
ARROW
 10
10987.46  
 20
8485.225  
 41
   7.436
 42
   7.436
 43
   7.436
 50
 104.036
  0
INSERT
  8
2
  2
ARROW
 10
11048.10  
 20
8242.689  
 41
   7.436
 42
   7.436
 43
   7.436
 50
 -75.964
  0
TEXT
  8
11
 7
SIMPLEX
 10
11037.83  
 20
8312.803  
 40
   21.153
  1
250
 50
  -75.964
  0
LINE
  8
2
 10
5460.440  
 20
8509.445  
 11
5460.440  
 21
8529.276  
  0
LINE
  8
2
 10
6144.041  
 20
8509.445  
 11
6144.041  
 21
8529.276  
  0
LINE
  8
2
 10
5460.440  
 20
8523.610  
 11
6144.041  
 21
8523.610  
  0
INSERT
  8
2
  2
ARROW
 10
5460.440  
 20
8523.610  
 41
   7.436
 42
   7.436
 43
   7.436
 50
 180.000
  0
INSERT
  8
2
  2
ARROW
 10
6144.041  
 20
8523.610  
 41
   7.436
 42
   7.436
 43
   7.436
 50
   0.000
  0
TEXT
  8
11
 7
SIMPLEX
 10
5770.512  
 20
8530.661  
 40
   21.153
  1
684
 50
    0.000
  0
LINE
  8
2
 10
7764.840  
 20
8509.445  
 11
7764.840  
 21
8529.276  
  0
LINE
  8
2
 10
7717.624  
 20
8523.610  
 11
7764.840  
 21
8523.610  
  0
INSERT
  8
2
  2
ARROW
 10
7764.840  
 20
8523.610  
 41
   7.436
 42
   7.436
 43
   7.436
 50
   0.000
  0
TEXT
  8
11
 7
SIMPLEX
 10
7673.179  
 20
8530.661  
 40
   21.153
  1
2304
 50
    0.000
  0
LINE
  8
2
 10
9385.641  
 20
8509.445  
 11
9385.641  
 21
8529.276  
  0
LINE
  8
2
 10
9338.425  
 20
8523.610  
 11
9385.641  
 21
8523.610  
  0
INSERT
  8
2
  2
ARROW
 10
9385.641  
 20
8523.610  
 41
   7.436
 42
   7.436
 43
   7.436
 50
   0.000
  0
TEXT
  8
11
 7
SIMPLEX
 10
9293.979  
 20
8530.661  
 40
   21.153
  1
3925
 50
    0.000
  0
LINE
  8
2
 10
10926.44  
 20
8509.445  
 11
10926.44  
 21
8529.276  
  0
LINE
  8
2
 10
10879.22  
 20
8523.610  
 11
10926.44  
 21
8523.610  
  0
INSERT
  8
2
  2
ARROW
 10
10926.44  
 20
8523.610  
 41
   7.436
 42
   7.436
 43
   7.436
 50
   0.000
  0
TEXT
  8
11
 7
SIMPLEX
 10
10834.78  
 20
8530.661  
 40
   21.153
  1
5466
 50
    0.000
  0
INSERT
  8
15
  2
CIRCLE
 10
5450.997  
 20
8458.452  
 41
   0.372
 42
   0.372
 43
   0.372
 50
   0.000
  0
INSERT
  8
15
  2
CIRCLE
 10
5450.997  
 20
8091.167  
 41
   0.372
 42
   0.372
 43
   0.372
 50
   0.000
  0
INSERT
  8
15
  2
CIRCLE
 10
10160.42  
 20
7890.548  
 41
   0.372
 42
   0.372
 43
   0.372
 50
   0.000
  0
INSERT
  8
15
  2
CIRCLE
 10
10945.90  
 20
8086.918  
 41
   0.372
 42
   0.372
 43
   0.372
 50
   0.000
  0
INSERT
  8
15
  2
CIRCLE
 10
10853.02  
 20
8458.452  
 41
   0.372
 42
   0.372
 43
   0.372
 50
   0.000
  0
LINE
  8
2
 10
5450.997  
 20
8522.637  
 11
5450.997  
 21
8798.404  
  0
LINE
  8
2
 10
10853.02  
 20
8522.637  
 11
10853.02  
 21
8798.404  
  0
LINE
  8
2
 10
5450.997  
 20
8792.738  
 11
10853.02  
 21
8792.738  
  0
INSERT
  8
2
  2
ARROW
 10
5450.997  
 20
8792.738  
 41
   7.436
 42
   7.436
 43
   7.436
 50
 180.000
  0
INSERT
  8
2
  2
ARROW
 10
10853.02  
 20
8792.738  
 41
   7.436
 42
   7.436
 43
   7.436
 50
   0.000
  0
TEXT
  8
11
 7
SIMPLEX
 10
8109.702  
 20
8799.789  
 40
   21.153
  1
5406
 50
    0.000
  0
LINE
  8
2
 10
5460.441  
 20
8514.138  
 11
5460.441  
 21
8625.596  
  0
LINE
  8
2
 10
5507.656  
 20
8619.931  
 11
5460.441  
 21
8619.931  
  0
INSERT
  8
2
  2
ARROW
 10
5460.441  
 20
8619.931  
 41
   7.436
 42
   7.436
 43
   7.436
 50
 180.000
  0
LINE
  8
2
 10
10261.13  
 20
8497.170  
 11
10261.13  
 21
8625.596  
  0
LINE
  8
2
 10
10213.92  
 20
8619.931  
 11
10261.13  
 21
8619.931  
  0
INSERT
  8
2
  2
ARROW
 10
10261.13  
 20
8619.931  
 41
   7.436
 42
   7.436
 43
   7.436
 50
   0.000
  0
TEXT
  8
11
 7
SIMPLEX
 10
10180.05  
 20
8626.981  
 40
   21.153
  1
4791
 50
    0.000
  0
LINE
  8
3
 10
5460.440  
 20
8515.111  
 11
5460.440  
 21
8703.974  
  0
LINE
  8
3
 10
5460.440  
 20
8647.314  
 11
5333.525  
 21
8647.314  
  0
INSERT
  8
3
  2
ARROW
 10
5460.440  
 20
8647.314  
 41
   7.436
 42
   7.436
 43
   7.436
 50
   0.000
  0
TEXT
  8
3
 7
SIMPLEX
 10
5354.677  
 20
8652.603  
 40
   21.153
  1
Tape
 50
    0.000
  0
TEXT
  8
3
 7
SIMPLEX
 10
5354.677  
 20
8620.874  
 40
   21.153
  1
(Typ)
 50
    0.000
  0
ENDBLK
  8
2
  0
BLOCK
  8
0
  2
ASMPLATE
 70
     0
 10
0.000     
 20
0.000     
  0
LINE
  8
14
 10
0.000     
 20
0.000     
 11
124.460   
 21
0.000     
  0
LINE
  8
14
 10
0.000     
 20
5.398     
 11
124.460   
 21
5.398     
  0
LINE
  8
14
 10
0.000     
 20
0.000     
 11
0.000     
 21
66.040    
  0
LINE
  8
14
 10
0.000     
 20
66.040    
 11
124.460   
 21
66.040    
  0
LINE
  8
14
 10
30.480    
 20
5.398     
 11
30.480    
 21
66.040    
  0
LINE
  8
14
 10
40.640    
 20
5.398     
 11
40.640    
 21
66.040    
  0
LINE
  8
14
 10
104.140   
 20
5.398     
 11
104.140   
 21
66.040    
  0
LINE
  8
14
 10
104.140   
 20
5.398     
 11
104.140   
 21
66.040    
  0
LINE
  8
14
 10
124.460   
 20
5.398     
 11
124.460   
 21
66.040    
  0
LINE
  8
14
 10
124.460   
 20
0.000     
 11
124.460   
 21
66.040    
  0
LINE
  8
14
 10
0.000     
 20
59.690    
 11
124.460   
 21
59.690    
  0
TEXT
  8
14
 7
SIMPLEX
 10
0.762     
 20
61.214    
 40
    2.540
  1
MARK
 50
    0.000
  0
TEXT
  8
14
 7
SIMPLEX
 10
31.750    
 20
61.214    
 40
    2.540
  1
QNT
 50
    0.000
  0
TEXT
  8
14
 7
SIMPLEX
 10
48.260    
 20
61.214    
 40
    2.540
  1
DESCRIPTION
 50
    0.000
  0
TEXT
  8
14
 7
SIMPLEX
 10
105.410   
 20
61.214    
 40
    2.540
  1
WEIGHT
 50
    0.000
  0
LINE
  8
14
 10
0.000     
 20
55.245    
 11
124.460   
 21
55.245    
  0
TEXT
  8
14
 7
SIMPLEX
 10
1.778     
 20
55.880    
 40
    2.540
  1
WB2
 50
    0.000
  0
TEXT
  8
14
 7
SIMPLEX
 10
30.607    
 20
55.880    
 40
    2.540
  1
  1
 50
    0.000
  0
TEXT
  8
14
 7
SIMPLEX
 10
42.418    
 20
55.880    
 40
    2.540
  1
4    x 551 x 5475
 50
    0.000
  0
TEXT
  8
14
 7
SIMPLEX
 10
121.920   
 20
55.880    
 40
    2.540
 72
  2
 11
121.920   
 21
55.880    
  1
   78.6
 50
    0.000
  0
LINE
  8
14
 10
0.000     
 20
51.435    
 11
124.460   
 21
51.435    
  0
TEXT
  8
14
 7
SIMPLEX
 10
1.778     
 20
52.070    
 40
    2.540
  1
OF2
 50
    0.000
  0
TEXT
  8
14
 7
SIMPLEX
 10
30.607    
 20
52.070    
 40
    2.540
  1
  1
 50
    0.000
  0
TEXT
  8
14
 7
SIMPLEX
 10
42.418    
 20
52.070    
 40
    2.540
  1
5    x 125 x 5586
 50
    0.000
  0
TEXT
  8
14
 7
SIMPLEX
 10
121.920   
 20
52.070    
 40
    2.540
 72
  2
 11
121.920   
 21
52.070    
  1
   27.9
 50
    0.000
  0
LINE
  8
14
 10
0.000     
 20
47.625    
 11
124.460   
 21
47.625    
  0
TEXT
  8
14
 7
SIMPLEX
 10
1.778     
 20
48.260    
 40
    2.540
  1
OF3
 50
    0.000
  0
TEXT
  8
14
 7
SIMPLEX
 10
30.607    
 20
48.260    
 40
    2.540
  1
  1
 50
    0.000
  0
TEXT
  8
14
 7
SIMPLEX
 10
42.418    
 20
48.260    
 40
    2.540
  1
5    x 125 x 366
 50
    0.000
  0
TEXT
  8
14
 7
SIMPLEX
 10
121.920   
 20
48.260    
 40
    2.540
 72
  2
 11
121.920   
 21
48.260    
  1
    1.8
 50
    0.000
  0
LINE
  8
14
 10
0.000     
 20
43.815    
 11
124.460   
 21
43.815    
  0
TEXT
  8
14
 7
SIMPLEX
 10
1.778     
 20
44.450    
 40
    2.540
  1
IF2
 50
    0.000
  0
TEXT
  8
14
 7
SIMPLEX
 10
30.607    
 20
44.450    
 40
    2.540
  1
  1
 50
    0.000
  0
TEXT
  8
14
 7
SIMPLEX
 10
42.418    
 20
44.450    
 40
    2.540
  1
8    x 125 x 4698
 50
    0.000
  0
TEXT
  8
14
 7
SIMPLEX
 10
121.920   
 20
44.450    
 40
    2.540
 72
  2
 11
121.920   
 21
44.450    
  1
   37.6
 50
    0.000
  0
LINE
  8
14
 10
0.000     
 20
40.005    
 11
124.460   
 21
40.005    
  0
TEXT
  8
14
 7
SIMPLEX
 10
1.778     
 20
40.640    
 40
    2.540
  1
EP3
 50
    0.000
  0
TEXT
  8
14
 7
SIMPLEX
 10
30.607    
 20
40.640    
 40
    2.540
  1
  1
 50
    0.000
  0
TEXT
  8
14
 7
SIMPLEX
 10
42.418    
 20
40.640    
 40
    2.540
  1
16   x 200 x 550
 50
    0.000
  0
TEXT
  8
14
 7
SIMPLEX
 10
121.920   
 20
40.640    
 40
    2.540
 72
  2
 11
121.920   
 21
40.640    
  1
   14.1
 50
    0.000
  0
LINE
  8
14
 10
0.000     
 20
36.195    
 11
124.460   
 21
36.195    
  0
TEXT
  8
14
 7
SIMPLEX
 10
1.778     
 20
36.830    
 40
    2.540
  1
EP2
 50
    0.000
  0
TEXT
  8
14
 7
SIMPLEX
 10
30.607    
 20
36.830    
 40
    2.540
  1
  1
 50
    0.000
  0
TEXT
  8
14
 7
SIMPLEX
 10
42.418    
 20
36.830    
 40
    2.540
  1
16   x 200 x 901
 50
    0.000
  0
TEXT
  8
14
 7
SIMPLEX
 10
121.920   
 20
36.830    
 40
    2.540
 72
  2
 11
121.920   
 21
36.830    
  1
   23.1
 50
    0.000
  0
LINE
  8
14
 10
0.000     
 20
32.385    
 11
124.460   
 21
32.385    
  0
TEXT
  8
14
 7
SIMPLEX
 10
1.778     
 20
33.020    
 40
    2.540
  1
ST1
 50
    0.000
  0
TEXT
  8
14
 7
SIMPLEX
 10
30.607    
 20
33.020    
 40
    2.540
  1
  2
 50
    0.000
  0
TEXT
  8
14
 7
SIMPLEX
 10
42.418    
 20
33.020    
 40
    2.540
  1
6    x 60  x 500
 50
    0.000
  0
TEXT
  8
14
 7
SIMPLEX
 10
121.920   
 20
33.020    
 40
    2.540
 72
  2
 11
121.920   
 21
33.020    
  1
    2.9
 50
    0.000
  0
LINE
  8
14
 10
0.000     
 20
28.575    
 11
124.460   
 21
28.575    
  0
TEXT
  8
14
 7
SIMPLEX
 10
1.778     
 20
29.210    
 40
    2.540
  1
ES1
 50
    0.000
  0
TEXT
  8
14
 7
SIMPLEX
 10
30.607    
 20
29.210    
 40
    2.540
  1
  1
 50
    0.000
  0
TEXT
  8
14
 7
SIMPLEX
 10
42.418    
 20
29.210    
 40
    2.540
  1
5    x 200 x 100
 50
    0.000
  0
TEXT
  8
14
 7
SIMPLEX
 10
121.920   
 20
29.210    
 40
    2.540
 72
  2
 11
121.920   
 21
29.210    
  1
    0.8
 50
    0.000
  0
LINE
  8
14
 10
0.000     
 20
24.765    
 11
124.460   
 21
24.765    
  0
TEXT
  8
14
 7
SIMPLEX
 10
1.778     
 20
25.400    
 40
    2.540
  1
SS1
 50
    0.000
  0
TEXT
  8
14
 7
SIMPLEX
 10
30.607    
 20
25.400    
 40
    2.540
  1
  2
 50
    0.000
  0
TEXT
  8
14
 7
SIMPLEX
 10
42.418    
 20
25.400    
 40
    2.540
  1
5    x 120 x 95
 50
    0.000
  0
TEXT
  8
14
 7
SIMPLEX
 10
121.920   
 20
25.400    
 40
    2.540
 72
  2
 11
121.920   
 21
25.400    
  1
    0.9
 50
    0.000
  0
LINE
  8
14
 10
0.000     
 20
20.955    
 11
124.460   
 21
20.955    
  0
TEXT
  8
14
 7
SIMPLEX
 10
1.778     
 20
21.590    
 40
    2.540
  1
SS3
 50
    0.000
  0
TEXT
  8
14
 7
SIMPLEX
 10
30.607    
 20
21.590    
 40
    2.540
  1
  1
 50
    0.000
  0
TEXT
  8
14
 7
SIMPLEX
 10
42.418    
 20
21.590    
 40
    2.540
  1
5    x 120 x 91
 50
    0.000
  0
TEXT
  8
14
 7
SIMPLEX
 10
121.920   
 20
21.590    
 40
    2.540
 72
  2
 11
121.920   
 21
21.590    
  1
    0.4
 50
    0.000
  0
LINE
  8
14
 10
0.000     
 20
17.145    
 11
124.460   
 21
17.145    
  0
TEXT
  8
14
 7
SIMPLEX
 10
1.778     
 20
17.780    
 40
    2.540
  1
CLF1
 50
    0.000
  0
TEXT
  8
14
 7
SIMPLEX
 10
30.607    
 20
17.780    
 40
    2.540
  1
  4
 50
    0.000
  0
TEXT
  8
14
 7
SIMPLEX
 10
42.418    
 20
17.780    
 40
    2.540
  1
5    x 75  x 75
 50
    0.000
  0
TEXT
  8
14
 7
SIMPLEX
 10
121.920   
 20
17.780    
 40
    2.540
 72
  2
 11
121.920   
 21
17.780    
  1
    0.9
 50
    0.000
  0
LINE
  8
14
 10
0.000     
 20
13.335    
 11
124.460   
 21
13.335    
  0
TEXT
  8
14
 7
SIMPLEX
 10
1.778     
 20
13.970    
 40
    2.540
  1
CLF3
 50
    0.000
  0
TEXT
  8
14
 7
SIMPLEX
 10
30.607    
 20
13.970    
 40
    2.540
  1
  4
 50
    0.000
  0
TEXT
  8
14
 7
SIMPLEX
 10
42.418    
 20
13.970    
 40
    2.540
  1
5    x 150 x 175
 50
    0.000
  0
TEXT
  8
14
 7
SIMPLEX
 10
121.920   
 20
13.970    
 40
    2.540
 72
  2
 11
121.920   
 21
13.970    
  1
    4.2
 50
    0.000
  0
LINE
  8
14
 10
0.000     
 20
9.525     
 11
124.460   
 21
9.525     
  0
LINE
  8
14
 10
0.000     
 20
5.715     
 11
124.460   
 21
5.715     
  0
TEXT
  8
14
 7
SIMPLEX
 10
42.418    
 20
1.524     
 40
    2.540
  1
Weight Sum
 50
    0.000
  0
TEXT
  8
14
 7
SIMPLEX
 10
121.920   
 20
1.524     
 40
    2.540
 72
  2
 11
121.920   
 21
1.524     
  1
  193.2
 50
    0.000
  0
ENDBLK
  8
0
  0
BLOCK
  8
2
  2
ASMTITLE
 70
     0
 10
0.000     
 20
0.000     
  0
LINE
  8
0
 10
0.000     
 20
10.160    
 11
91.440    
 21
10.160    
  0
LINE
  8
0
 10
0.000     
 20
20.320    
 11
91.440    
 21
20.320    
  0
LINE
  8
0
 10
0.000     
 20
30.480    
 11
91.440    
 21
30.480    
  0
LINE
  8
0
 10
91.440    
 20
0.000     
 11
91.440    
 21
30.480    
  0
LINE
  8
0
 10
0.000     
 20
30.480    
 11
0.000     
 21
0.000     
  0
LINE
  8
0
 10
30.480    
 20
20.320    
 11
30.480    
 21
0.000     
  0
LINE
  8
0
 10
60.960    
 20
20.320    
 11
60.960    
 21
0.000     
  0
LINE
  8
0
 10
0.000     
 20
0.000     
 11
91.440    
 21
0.000     
  0
TEXT
  8
0
 7
SIMPLEX
 10
7.620     
 20
17.780    
 40
    1.143
  1
JOB
 50
    0.000
  0
TEXT
  8
0
 7
SIMPLEX
 10
7.620     
 20
7.620     
 40
    1.143
  1
QUANTITY
 50
    0.000
  0
TEXT
  8
0
 7
SIMPLEX
 10
38.100    
 20
27.940    
 40
    1.143
  1
CUSTOMER
 50
    0.000
  0
TEXT
  8
0
 7
SIMPLEX
 10
38.100    
 20
17.780    
 40
    1.143
  1
CHECKED BY
 50
    0.000
  0
TEXT
  8
0
 7
SIMPLEX
 10
38.100    
 20
7.620     
 40
    1.143
  1
PART
 50
    0.000
  0
TEXT
  8
0
 7
SIMPLEX
 10
68.580    
 20
17.780    
 40
    1.143
  1
DATE
 50
    0.000
  0
TEXT
  8
0
 7
SIMPLEX
 10
68.580    
 20
7.620     
 40
    1.143
  1
DRAWING
 50
    0.000
  0
TEXT
  8
0
 7
SIMPLEX
 10
46.457    
 20
22.860    
 40
    3.607
  1
 
 50
    0.000
  0
TEXT
  8
0
 7
SIMPLEX
 10
2.540     
 20
12.700    
 40
    3.607
  1
Q-1467
 50
    0.000
  0
TEXT
  8
0
 7
SIMPLEX
 10
2.540     
 20
2.540     
 40
    3.607
  1
  4
 50
    0.000
  0
TEXT
  8
0
 7
SIMPLEX
 10
33.020    
 20
2.540     
 40
    3.607
  1
RF1-2
 50
    0.000
  0
TEXT
  8
0
 7
SIMPLEX
 10
62.230    
 20
12.700    
 40
    3.607
  1
15/DEC/2025
 50
    0.000
  0
TEXT
  8
0
 7
SIMPLEX
 10
62.230    
 20
2.540     
 40
    3.607
  1
RF1-2
 50
    0.000
  0
ENDBLK
  8
2
  0
BLOCK
  8
2
  2
ASMSECTN
 70
     0
 10
0.000     
 20
0.000     
  0
LINE
  8
1
 10
-6.350    
 20
0.000     
 11
6.350     
 21
0.000     
  0
LINE
  8
1
 10
-6.350    
 20
0.000     
 11
-6.350    
 21
1.270     
  0
LINE
  8
1
 10
6.350     
 20
0.000     
 11
6.350     
 21
1.270     
  0
LINE
  8
1
 10
-6.350    
 20
1.270     
 11
6.350     
 21
1.270     
  0
LINE
  8
1
 10
-6.350    
 20
27.940    
 11
6.350     
 21
27.940    
  0
LINE
  8
1
 10
-6.350    
 20
27.940    
 11
-6.350    
 21
26.670    
  0
LINE
  8
1
 10
6.350     
 20
27.940    
 11
6.350     
 21
26.670    
  0
LINE
  8
1
 10
-6.350    
 20
26.670    
 11
6.350     
 21
26.670    
  0
LINE
  8
1
 10
-0.508    
 20
1.270     
 11
-0.508    
 21
26.670    
  0
LINE
  8
1
 10
0.508     
 20
1.270     
 11
0.508     
 21
26.670    
  0
TEXT
  8
3
 7
SIMPLEX
 10
-24.841   
 20
6.858     
 40
    2.845
  1
NS
 50
    0.000
  0
TEXT
  8
3
 7
SIMPLEX
 10
21.996    
 20
6.858     
 40
    2.845
  1
FS
 50
    0.000
  0
LINE
  8
13
 10
0.762     
 20
6.604     
 11
5.842     
 21
6.604     
  0
LINE
  8
13
 10
5.842     
 20
6.604     
 11
5.842     
 21
1.524     
  0
LINE
  8
13
 10
5.842     
 20
1.524     
 11
1.524     
 21
1.524     
  0
LINE
  8
13
 10
0.762     
 20
2.286     
 11
0.762     
 21
6.604     
  0
LINE
  8
13
 10
0.762     
 20
2.286     
 11
1.524     
 21
1.524     
  0
LINE
  8
13
 10
-0.762    
 20
6.604     
 11
-5.842    
 21
6.604     
  0
LINE
  8
13
 10
-5.842    
 20
6.604     
 11
-5.842    
 21
1.524     
  0
LINE
  8
13
 10
-5.842    
 20
1.524     
 11
-1.524    
 21
1.524     
  0
LINE
  8
13
 10
-0.762    
 20
2.286     
 11
-0.762    
 21
6.604     
  0
LINE
  8
13
 10
-0.762    
 20
2.286     
 11
-1.524    
 21
1.524     
  0
INSERT
  8
1
  2
CIRCLE
 10
3.302     
 20
4.064     
 41
   0.060
 42
   0.060
 43
   0.060
 50
   0.000
  0
INSERT
  8
1
  2
CIRCLE
 10
-3.302    
 20
4.064     
 41
   0.060
 42
   0.060
 43
   0.060
 50
   0.000
  0
LINE
  8
3
 10
-7.112    
 20
4.064     
 11
-12.192   
 21
4.064     
  0
LINE
  8
3
 10
-7.112    
 20
1.524     
 11
-12.192   
 21
1.524     
  0
LINE
  8
3
 10
-10.922   
 20
1.524     
 11
-10.922   
 21
4.064     
  0
INSERT
  8
1
  2
ARROW
 10
-10.922   
 20
1.524     
 41
   1.000
 42
   1.000
 43
   1.000
 50
  90.000
  0
INSERT
  8
1
  2
ARROW
 10
-10.922   
 20
4.064     
 41
   1.000
 42
   1.000
 43
   1.000
 50
 270.000
  0
TEXT
  8
3
 7
SIMPLEX
 10
-18.068   
 20
1.964     
 40
    2.845
  1
50
 50
    0.000
  0
LINE
  8
3
 10
-3.302    
 20
7.112     
 11
-3.302    
 21
9.144     
  0
LINE
  8
3
 10
-0.508    
 20
7.874     
 11
-0.508    
 21
9.144     
  0
LINE
  8
3
 10
-3.302    
 20
7.874     
 11
-0.508    
 21
7.874     
  0
INSERT
  8
1
  2
ARROW
 10
-3.302    
 20
7.874     
 41
   1.000
 42
   1.000
 43
   1.000
 50
   0.000
  0
INSERT
  8
1
  2
ARROW
 10
-0.508    
 20
7.874     
 41
   1.000
 42
   1.000
 43
   1.000
 50
 180.000
  0
TEXT
  8
3
 7
SIMPLEX
 10
-9.940    
 20
8.568     
 40
    2.845
  1
50
 50
    0.000
  0
LINE
  8
3
 10
7.112     
 20
3.810     
 11
17.272    
 21
3.810     
  0
INSERT
  8
3
  2
ARROWP
 10
7.112     
 20
3.810     
 41
   1.000
 42
   1.000
 43
   1.000
 50
 180.000
  0
TEXT
  8
1
 7
SIMPLEX
 10
10.160    
 20
4.572     
 40
    2.845
  1
CLF1
 50
    0.000
  0
TEXT
  8
21
 7
SIMPLEX
 10
9.550     
 20
-0.457    
 40
    2.845
  1
D=14
 50
    0.000
  0
LINE
  8
13
 10
-5.080    
 20
28.194    
 11
5.080     
 21
28.194    
  0
LINE
  8
13
 10
5.080     
 20
28.194    
 11
5.080     
 21
43.434    
  0
LINE
  8
13
 10
5.080     
 20
43.434    
 11
-5.080    
 21
43.434    
  0
LINE
  8
13
 10
-5.080    
 20
43.434    
 11
-5.080    
 21
28.194    
  0
INSERT
  8
1
  2
CIRCLE
 10
-2.540    
 20
33.274    
 41
   0.060
 42
   0.060
 43
   0.060
 50
   0.000
  0
INSERT
  8
1
  2
CIRCLE
 10
2.540     
 20
33.274    
 41
   0.060
 42
   0.060
 43
   0.060
 50
   0.000
  0
INSERT
  8
1
  2
CIRCLE
 10
-2.540    
 20
40.894    
 41
   0.060
 42
   0.060
 43
   0.060
 50
   0.000
  0
INSERT
  8
1
  2
CIRCLE
 10
2.540     
 20
40.894    
 41
   0.060
 42
   0.060
 43
   0.060
 50
   0.000
  0
LINE
  8
3
 10
-2.540    
 20
44.704    
 11
-2.540    
 21
47.244    
  0
LINE
  8
3
 10
2.540     
 20
44.704    
 11
2.540     
 21
47.244    
  0
LINE
  8
3
 10
-2.540    
 20
45.974    
 11
2.540     
 21
45.974    
  0
INSERT
  8
1
  2
ARROW
 10
-2.540    
 20
45.974    
 41
   1.000
 42
   1.000
 43
   1.000
 50
 180.000
  0
INSERT
  8
1
  2
ARROW
 10
2.540     
 20
45.974    
 41
   1.000
 42
   1.000
 43
   1.000
 50
   0.000
  0
TEXT
  8
3
 7
SIMPLEX
 10
-1.592    
 20
46.922    
 40
    2.845
  1
100
 50
    0.000
  0
LINE
  8
3
 10
7.620     
 20
27.940    
 11
12.700    
 21
27.940    
  0
LINE
  8
3
 10
6.350     
 20
33.274    
 11
12.700    
 21
33.274    
  0
LINE
  8
3
 10
11.430    
 20
27.940    
 11
11.430    
 21
40.894    
  0
LINE
  8
3
 10
6.350     
 20
40.894    
 11
12.700    
 21
40.894    
  0
INSERT
  8
1
  2
ARROW
 10
11.430    
 20
40.894    
 41
   1.000
 42
   1.000
 43
   1.000
 50
  90.000
  0
INSERT
  8
1
  2
ARROW
 10
11.430    
 20
33.274    
 41
   1.000
 42
   1.000
 43
   1.000
 50
 270.000
  0
INSERT
  8
1
  2
ARROW
 10
11.430    
 20
33.274    
 41
   1.000
 42
   1.000
 43
   1.000
 50
  90.000
  0
INSERT
  8
1
  2
ARROW
 10
11.430    
 20
27.940    
 41
   1.000
 42
   1.000
 43
   1.000
 50
 270.000
  0
TEXT
  8
3
 7
SIMPLEX
 10
12.378    
 20
30.158    
 40
    2.845
  1
50
 50
    0.000
  0
TEXT
  8
3
 7
SIMPLEX
 10
12.378    
 20
36.508    
 40
    2.845
  1
100
 50
    0.000
  0
LINE
  8
3
 10
-6.350    
 20
38.100    
 11
-16.510   
 21
38.100    
  0
INSERT
  8
3
  2
ARROWP
 10
-6.350    
 20
38.100    
 41
   1.000
 42
   1.000
 43
   1.000
 50
   0.000
  0
TEXT
  8
1
 7
SIMPLEX
 10
-17.780   
 20
38.862    
 40
    2.845
  1
CLF3
 50
    0.000
  0
TEXT
  8
21
 7
SIMPLEX
 10
-23.571   
 20
33.833    
 40
    2.845
  1
D=14
 50
    0.000
  0
INSERT
  8
4
  2
ARROWP
 10
9.195     
 20
-1.422    
 41
   1.500
 42
   1.500
 43
   1.500
 50
 135.000
  0
LINE
  8
4
 10
9.195     
 20
-1.422    
 11
14.315    
 21
-6.543    
  0
LINE
  8
4
 10
14.315    
 20
-6.543    
 11
33.091    
 21
-6.543    
  0
TEXT
  8
5
 7
SIMPLEX
 10
17.160    
 20
-5.595    
 40
    2.845
  1
4
 50
    0.000
  0
LINE
  8
4
 10
33.091    
 20
-6.543    
 11
33.945    
 21
-6.543    
  0
LINE
  8
4
 10
33.945    
 20
-6.543    
 11
37.358    
 21
-4.552    
  0
LINE
  8
4
 10
33.945    
 20
-6.543    
 11
37.358    
 21
-8.534    
  0
TEXT
  8
4
 7
SIMPLEX
 10
36.647    
 20
-7.965    
 40
    2.845
  1
Clips
 50
    0.000
  0
LINE
  8
4
 10
29.535    
 20
-3.698    
 11
32.380    
 21
-6.543    
  0
LINE
  8
4
 10
29.535    
 20
-6.543    
 11
29.535    
 21
-3.698    
  0
ENDBLK
  8
2
  0
BLOCK
  8
2
  2
ASMBOLT
 70
     0
 10
0.000     
 20
0.000     
  0
TEXT
  8
21
 7
SIMPLEX
 10
0.000     
 20
3.810     
 40
    2.540
  1
D=DIAMETER
 50
    0.000
  0
TEXT
  8
21
 7
SIMPLEX
 10
0.000     
 20
0.000     
 40
    2.540
  1
G=GAGE
 50
    0.000
  0
ENDBLK
  8
2
  0
BLOCK
  8
2
  2
ASMVIEW
 70
     0
 10
0.000     
 20
0.000     
  0
LINE
  8
21
 10
0.000     
 20
0.000     
 11
20.320    
 21
0.000     
  0
INSERT
  8
21
  2
ARROWP
 10
0.000     
 20
0.000     
 41
   1.000
 42
   1.000
 43
   1.000
 50
 180.000
  0
TEXT
  8
21
 7
SIMPLEX
 10
0.000     
 20
0.635     
 40
    2.540
  1
View for
 50
    0.000
  0
TEXT
  8
21
 7
SIMPLEX
 10
0.000     
 20
-3.175    
 40
    2.540
  1
Section
 50
    0.000
  0
ENDBLK
  8
2
  0
BLOCK
  8
0
  2
ASMSLOT
 70
     0
 10
0.000     
 20
0.000     
  0
LINE
  8
0
 10
0.000     
 20
0.000     
 11
38.100    
 21
0.000     
  0
LINE
  8
0
 10
38.100    
 20
0.000     
 11
38.100    
 21
15.240    
  0
LINE
  8
0
 10
38.100    
 20
15.240    
 11
0.000     
 21
15.240    
  0
LINE
  8
0
 10
0.000     
 20
15.240    
 11
0.000     
 21
0.000     
  0
LINE
  8
0
 10
0.000     
 20
10.160    
 11
38.100    
 21
10.160    
  0
LINE
  8
0
 10
0.000     
 20
5.080     
 11
38.100    
 21
5.080     
  0
LINE
  8
0
 10
6.985     
 20
0.000     
 11
6.985     
 21
10.160    
  0
LINE
  8
0
 10
38.100    
 20
0.000     
 11
38.100    
 21
10.160    
  0
TEXT
  8
0
 7
SIMPLEX
 10
0.635     
 20
11.430    
 40
    2.540
  1
SLOT TABLE
 50
    0.000
  0
TEXT
  8
0
 7
SIMPLEX
 10
0.635     
 20
6.350     
 40
    2.540
  1
ID
 50
    0.000
  0
TEXT
  8
0
 7
SIMPLEX
 10
7.620     
 20
6.350     
 40
    2.540
  1
SIZE
 50
    0.000
  0
TEXT
  8
0
 7
SIMPLEX
 10
0.635     
 20
1.270     
 40
    2.540
  1
S1
 50
    0.000
  0
TEXT
  8
0
 7
SIMPLEX
 10
7.620     
 20
1.270     
 40
    2.540
  1
24x50
 50
    0.000
  0
ENDBLK
  8
0
  0
BLOCK
  8
0
  2
ASM_WELD
 70
     0
 10
0.000     
 20
80.010    
  0
LINE
  8
20
 10
0.000     
 20
80.010    
 11
77.978    
 21
80.010    
  0
LINE
  8
20
 10
0.000     
 20
0.000     
 11
77.978    
 21
0.000     
  0
LINE
  8
20
 10
77.978    
 20
0.000     
 11
77.978    
 21
80.010    
  0
LINE
  8
20
 10
0.000     
 20
0.000     
 11
0.000     
 21
80.010    
  0
TEXT
  8
14
 7
SIMPLEX
 10
0.762     
 20
76.835    
 40
    2.540
  1
WELD TABLE
 50
    0.000
  0
LINE
  8
20
 10
0.000     
 20
76.200    
 11
77.978    
 21
76.200    
  0
LINE
  8
20
 10
22.098    
 20
0.000     
 11
22.098    
 21
76.200    
  0
LINE
  8
20
 10
37.338    
 20
0.000     
 11
37.338    
 21
76.200    
  0
LINE
  8
20
 10
52.578    
 20
0.000     
 11
52.578    
 21
76.200    
  0
LINE
  8
20
 10
67.818    
 20
0.000     
 11
67.818    
 21
76.200    
  0
TEXT
  8
14
 7
SIMPLEX
 10
0.762     
 20
73.025    
 40
    2.540
  1
Plate1
 50
    0.000
  0
TEXT
  8
14
 7
SIMPLEX
 10
22.606    
 20
73.025    
 40
    2.540
  1
Plate2
 50
    0.000
  0
TEXT
  8
14
 7
SIMPLEX
 10
37.846    
 20
73.025    
 40
    2.540
  1
Type
 50
    0.000
  0
TEXT
  8
14
 7
SIMPLEX
 10
53.086    
 20
73.025    
 40
    2.540
  1
Size
 50
    0.000
  0
TEXT
  8
14
 7
SIMPLEX
 10
68.326    
 20
73.025    
 40
    2.540
  1
Side
 50
    0.000
  0
LINE
  8
20
 10
0.000     
 20
72.390    
 11
77.978    
 21
72.390    
  0
TEXT
  8
14
 7
SIMPLEX
 10
0.762     
 20
69.215    
 40
    2.540
  1
WB2
 50
    0.000
  0
TEXT
  8
14
 7
SIMPLEX
 10
23.622    
 20
69.215    
 40
    2.540
  1
OF
 50
    0.000
  0
TEXT
  8
14
 7
SIMPLEX
 10
38.354    
 20
69.215    
 40
    2.540
  1
Fillet
 50
    0.000
  0
TEXT
  8
14
 7
SIMPLEX
 10
53.086    
 20
69.215    
 40
    2.540
  1
4
 50
    0.000
  0
TEXT
  8
14
 7
SIMPLEX
 10
69.342    
 20
69.215    
 40
    2.540
  1
  1
 50
    0.000
  0
TEXT
  8
14
 7
SIMPLEX
 10
0.762     
 20
65.405    
 40
    2.540
  1
WB2
 50
    0.000
  0
TEXT
  8
14
 7
SIMPLEX
 10
23.622    
 20
65.405    
 40
    2.540
  1
IF
 50
    0.000
  0
TEXT
  8
14
 7
SIMPLEX
 10
38.354    
 20
65.405    
 40
    2.540
  1
Fillet
 50
    0.000
  0
TEXT
  8
14
 7
SIMPLEX
 10
53.086    
 20
65.405    
 40
    2.540
  1
4
 50
    0.000
  0
TEXT
  8
14
 7
SIMPLEX
 10
69.342    
 20
65.405    
 40
    2.540
  1
  1
 50
    0.000
  0
TEXT
  8
14
 7
SIMPLEX
 10
0.762     
 20
61.595    
 40
    2.540
  1
EP3
 50
    0.000
  0
TEXT
  8
14
 7
SIMPLEX
 10
23.622    
 20
61.595    
 40
    2.540
  1
OF
 50
    0.000
  0
TEXT
  8
14
 7
SIMPLEX
 10
38.354    
 20
61.595    
 40
    2.540
  1
Fillet
 50
    0.000
  0
TEXT
  8
14
 7
SIMPLEX
 10
53.086    
 20
61.595    
 40
    2.540
  1
4
 50
    0.000
  0
TEXT
  8
14
 7
SIMPLEX
 10
69.342    
 20
61.595    
 40
    2.540
  1
  2
 50
    0.000
  0
TEXT
  8
14
 7
SIMPLEX
 10
0.762     
 20
57.785    
 40
    2.540
  1
EP3
 50
    0.000
  0
TEXT
  8
14
 7
SIMPLEX
 10
23.622    
 20
57.785    
 40
    2.540
  1
IF
 50
    0.000
  0
TEXT
  8
14
 7
SIMPLEX
 10
38.354    
 20
57.785    
 40
    2.540
  1
Fillet
 50
    0.000
  0
TEXT
  8
14
 7
SIMPLEX
 10
53.086    
 20
57.785    
 40
    2.540
  1
4
 50
    0.000
  0
TEXT
  8
14
 7
SIMPLEX
 10
69.342    
 20
57.785    
 40
    2.540
  1
  2
 50
    0.000
  0
TEXT
  8
14
 7
SIMPLEX
 10
0.762     
 20
53.975    
 40
    2.540
  1
EP3
 50
    0.000
  0
TEXT
  8
14
 7
SIMPLEX
 10
23.622    
 20
53.975    
 40
    2.540
  1
WB
 50
    0.000
  0
TEXT
  8
14
 7
SIMPLEX
 10
38.354    
 20
53.975    
 40
    2.540
  1
Fillet
 50
    0.000
  0
TEXT
  8
14
 7
SIMPLEX
 10
53.086    
 20
53.975    
 40
    2.540
  1
4
 50
    0.000
  0
TEXT
  8
14
 7
SIMPLEX
 10
69.342    
 20
53.975    
 40
    2.540
  1
  2
 50
    0.000
  0
TEXT
  8
14
 7
SIMPLEX
 10
0.762     
 20
50.165    
 40
    2.540
  1
EP2
 50
    0.000
  0
TEXT
  8
14
 7
SIMPLEX
 10
23.622    
 20
50.165    
 40
    2.540
  1
OF
 50
    0.000
  0
TEXT
  8
14
 7
SIMPLEX
 10
38.354    
 20
50.165    
 40
    2.540
  1
Fillet
 50
    0.000
  0
TEXT
  8
14
 7
SIMPLEX
 10
53.086    
 20
50.165    
 40
    2.540
  1
4
 50
    0.000
  0
TEXT
  8
14
 7
SIMPLEX
 10
69.342    
 20
50.165    
 40
    2.540
  1
  2
 50
    0.000
  0
TEXT
  8
14
 7
SIMPLEX
 10
0.762     
 20
46.355    
 40
    2.540
  1
EP2
 50
    0.000
  0
TEXT
  8
14
 7
SIMPLEX
 10
23.622    
 20
46.355    
 40
    2.540
  1
WB
 50
    0.000
  0
TEXT
  8
14
 7
SIMPLEX
 10
38.354    
 20
46.355    
 40
    2.540
  1
Fillet
 50
    0.000
  0
TEXT
  8
14
 7
SIMPLEX
 10
53.086    
 20
46.355    
 40
    2.540
  1
4
 50
    0.000
  0
TEXT
  8
14
 7
SIMPLEX
 10
69.342    
 20
46.355    
 40
    2.540
  1
  2
 50
    0.000
  0
TEXT
  8
14
 7
SIMPLEX
 10
0.762     
 20
42.545    
 40
    2.540
  1
EP2
 50
    0.000
  0
TEXT
  8
14
 7
SIMPLEX
 10
23.622    
 20
42.545    
 40
    2.540
  1
IF
 50
    0.000
  0
TEXT
  8
14
 7
SIMPLEX
 10
38.354    
 20
42.545    
 40
    2.540
  1
Fillet
 50
    0.000
  0
TEXT
  8
14
 7
SIMPLEX
 10
53.086    
 20
42.545    
 40
    2.540
  1
5
 50
    0.000
  0
TEXT
  8
14
 7
SIMPLEX
 10
69.342    
 20
42.545    
 40
    2.540
  1
  1
 50
    0.000
  0
TEXT
  8
14
 7
SIMPLEX
 10
0.762     
 20
38.735    
 40
    2.540
  1
ST1
 50
    0.000
  0
TEXT
  8
14
 7
SIMPLEX
 10
23.622    
 20
38.735    
 40
    2.540
  1
WB
 50
    0.000
  0
TEXT
  8
14
 7
SIMPLEX
 10
38.354    
 20
38.735    
 40
    2.540
  1
Fillet
 50
    0.000
  0
TEXT
  8
14
 7
SIMPLEX
 10
53.086    
 20
38.735    
 40
    2.540
  1
4
 50
    0.000
  0
TEXT
  8
14
 7
SIMPLEX
 10
69.342    
 20
38.735    
 40
    2.540
  1
  2
 50
    0.000
  0
TEXT
  8
14
 7
SIMPLEX
 10
0.762     
 20
34.925    
 40
    2.540
  1
ST1
 50
    0.000
  0
TEXT
  8
14
 7
SIMPLEX
 10
23.622    
 20
34.925    
 40
    2.540
  1
EP
 50
    0.000
  0
TEXT
  8
14
 7
SIMPLEX
 10
38.354    
 20
34.925    
 40
    2.540
  1
Fillet
 50
    0.000
  0
TEXT
  8
14
 7
SIMPLEX
 10
53.086    
 20
34.925    
 40
    2.540
  1
4
 50
    0.000
  0
TEXT
  8
14
 7
SIMPLEX
 10
69.342    
 20
34.925    
 40
    2.540
  1
  2
 50
    0.000
  0
TEXT
  8
14
 7
SIMPLEX
 10
0.762     
 20
31.115    
 40
    2.540
  1
CLF1
 50
    0.000
  0
TEXT
  8
14
 7
SIMPLEX
 10
23.622    
 20
31.115    
 40
    2.540
  1
WB
 50
    0.000
  0
TEXT
  8
14
 7
SIMPLEX
 10
38.354    
 20
31.115    
 40
    2.540
  1
Fillet
 50
    0.000
  0
TEXT
  8
14
 7
SIMPLEX
 10
53.086    
 20
31.115    
 40
    2.540
  1
4
 50
    0.000
  0
TEXT
  8
14
 7
SIMPLEX
 10
69.342    
 20
31.115    
 40
    2.540
  1
  1
 50
    0.000
  0
TEXT
  8
14
 7
SIMPLEX
 10
0.762     
 20
27.305    
 40
    2.540
  1
CLF1
 50
    0.000
  0
TEXT
  8
14
 7
SIMPLEX
 10
23.622    
 20
27.305    
 40
    2.540
  1
IF
 50
    0.000
  0
TEXT
  8
14
 7
SIMPLEX
 10
38.354    
 20
27.305    
 40
    2.540
  1
Fillet
 50
    0.000
  0
TEXT
  8
14
 7
SIMPLEX
 10
53.086    
 20
27.305    
 40
    2.540
  1
4
 50
    0.000
  0
TEXT
  8
14
 7
SIMPLEX
 10
69.342    
 20
27.305    
 40
    2.540
  1
  1
 50
    0.000
  0
TEXT
  8
14
 7
SIMPLEX
 10
0.762     
 20
23.495    
 40
    2.540
  1
CLF3
 50
    0.000
  0
TEXT
  8
14
 7
SIMPLEX
 10
23.622    
 20
23.495    
 40
    2.540
  1
OF
 50
    0.000
  0
TEXT
  8
14
 7
SIMPLEX
 10
38.354    
 20
23.495    
 40
    2.540
  1
Fillet
 50
    0.000
  0
TEXT
  8
14
 7
SIMPLEX
 10
53.086    
 20
23.495    
 40
    2.540
  1
4
 50
    0.000
  0
TEXT
  8
14
 7
SIMPLEX
 10
69.342    
 20
23.495    
 40
    2.540
  1
  1
 50
    0.000
  0
TEXT
  8
14
 7
SIMPLEX
 10
0.762     
 20
19.685    
 40
    2.540
  1
CLF3
 50
    0.000
  0
TEXT
  8
14
 7
SIMPLEX
 10
23.622    
 20
19.685    
 40
    2.540
  1
OF
 50
    0.000
  0
TEXT
  8
14
 7
SIMPLEX
 10
38.354    
 20
19.685    
 40
    2.540
  1
Fillet
 50
    0.000
  0
TEXT
  8
14
 7
SIMPLEX
 10
53.086    
 20
19.685    
 40
    2.540
  1
4
 50
    0.000
  0
TEXT
  8
14
 7
SIMPLEX
 10
69.342    
 20
19.685    
 40
    2.540
  1
  1
 50
    0.000
  0
TEXT
  8
14
 7
SIMPLEX
 10
0.762     
 20
15.875    
 40
    2.540
  1
ES1
 50
    0.000
  0
TEXT
  8
14
 7
SIMPLEX
 10
23.622    
 20
15.875    
 40
    2.540
  1
OF
 50
    0.000
  0
TEXT
  8
14
 7
SIMPLEX
 10
38.354    
 20
15.875    
 40
    2.540
  1
Fillet
 50
    0.000
  0
TEXT
  8
14
 7
SIMPLEX
 10
53.086    
 20
15.875    
 40
    2.540
  1
4
 50
    0.000
  0
TEXT
  8
14
 7
SIMPLEX
 10
69.342    
 20
15.875    
 40
    2.540
  1
  1
 50
    0.000
  0
TEXT
  8
14
 7
SIMPLEX
 10
0.762     
 20
12.065    
 40
    2.540
  1
SS1
 50
    0.000
  0
TEXT
  8
14
 7
SIMPLEX
 10
23.622    
 20
12.065    
 40
    2.540
  1
EP
 50
    0.000
  0
TEXT
  8
14
 7
SIMPLEX
 10
38.354    
 20
12.065    
 40
    2.540
  1
Fillet
 50
    0.000
  0
TEXT
  8
14
 7
SIMPLEX
 10
53.086    
 20
12.065    
 40
    2.540
  1
4
 50
    0.000
  0
TEXT
  8
14
 7
SIMPLEX
 10
69.342    
 20
12.065    
 40
    2.540
  1
  1
 50
    0.000
  0
TEXT
  8
14
 7
SIMPLEX
 10
0.762     
 20
8.255     
 40
    2.540
  1
SS1
 50
    0.000
  0
TEXT
  8
14
 7
SIMPLEX
 10
23.622    
 20
8.255     
 40
    2.540
  1
OF
 50
    0.000
  0
TEXT
  8
14
 7
SIMPLEX
 10
38.354    
 20
8.255     
 40
    2.540
  1
Fillet
 50
    0.000
  0
TEXT
  8
14
 7
SIMPLEX
 10
53.086    
 20
8.255     
 40
    2.540
  1
4
 50
    0.000
  0
TEXT
  8
14
 7
SIMPLEX
 10
69.342    
 20
8.255     
 40
    2.540
  1
  1
 50
    0.000
  0
TEXT
  8
14
 7
SIMPLEX
 10
0.762     
 20
4.445     
 40
    2.540
  1
SS3
 50
    0.000
  0
TEXT
  8
14
 7
SIMPLEX
 10
23.622    
 20
4.445     
 40
    2.540
  1
EP
 50
    0.000
  0
TEXT
  8
14
 7
SIMPLEX
 10
38.354    
 20
4.445     
 40
    2.540
  1
Fillet
 50
    0.000
  0
TEXT
  8
14
 7
SIMPLEX
 10
53.086    
 20
4.445     
 40
    2.540
  1
4
 50
    0.000
  0
TEXT
  8
14
 7
SIMPLEX
 10
69.342    
 20
4.445     
 40
    2.540
  1
  1
 50
    0.000
  0
TEXT
  8
14
 7
SIMPLEX
 10
0.762     
 20
0.635     
 40
    2.540
  1
SS3
 50
    0.000
  0
TEXT
  8
14
 7
SIMPLEX
 10
23.622    
 20
0.635     
 40
    2.540
  1
IF
 50
    0.000
  0
TEXT
  8
14
 7
SIMPLEX
 10
38.354    
 20
0.635     
 40
    2.540
  1
Fillet
 50
    0.000
  0
TEXT
  8
14
 7
SIMPLEX
 10
53.086    
 20
0.635     
 40
    2.540
  1
4
 50
    0.000
  0
TEXT
  8
14
 7
SIMPLEX
 10
69.342    
 20
0.635     
 40
    2.540
  1
  1
 50
    0.000
  0
ENDBLK
  8
0
  0
ENDSEC
  0
SECTION
  2
ENTITIES
  0
LINE
  8
22
 10
0.000     
 20
0.000     
 11
841.000   
 21
0.000     
  0
LINE
  8
22
 10
841.000   
 20
0.000     
 11
841.000   
 21
594.000   
  0
LINE
  8
22
 10
841.000   
 20
594.000   
 11
0.000     
 21
594.000   
  0
LINE
  8
22
 10
0.000     
 20
594.000   
 11
0.000     
 21
0.000     
  0
INSERT
  8
0
  2
ASMPIECE
 10
43.000    
 20
292.000   
 41
   0.132
 42
   0.132
 43
   0.132
 50
   0.000
  0
INSERT
  8
0
  2
ASMPLATE
 10
0.000     
 20
0.000     
 41
   1.000
 42
   1.000
 43
   1.000
 50
   0.000
  0
INSERT
  8
0
  2
ASMTITLE
 10
703.840   
 20
0.000     
 41
   1.500
 42
   1.500
 43
   1.500
 50
   0.000
  0
INSERT
  8
0
  2
ASMSECTN
 10
225.000   
 20
430.000   
 41
   1.240
 42
   1.240
 43
   1.240
 50
   0.000
  0
INSERT
  8
0
  2
ASMBOLT
 10
385.000   
 20
40.000    
 41
   0.984
 42
   0.984
 43
   0.984
 50
   0.000
  0
INSERT
  8
0
  2
ASMVIEW
 10
225.000   
 20
385.000   
 41
   0.984
 42
   0.984
 43
   0.984
 50
   0.000
  0
INSERT
  8
0
  2
ASMSLOT
 10
445.000   
 20
0.000     
 41
   0.984
 42
   0.984
 43
   0.984
 50
   0.000
  0
INSERT
  8
0
  2
ASM_WELD
 10
764.269   
 20
594.000   
 41
   0.984
 42
   0.984
 43
   0.984
 50
   0.000
  0
ENDSEC
  0
EOF
