999
SOURCE:MBS   PROGRAM:CLP_DXF   CELL:CLP_BOLT   CLASS:SHOP   MODE:
  0
SECTION
  2
HEADER
  9
$EXTMIN
 10
   0.000
 20
   0.000
  9
$EXTMAX
 10
 297.000
 20
 210.000
  9
$LIMMIN
 10
   0.000
 20
   0.000
  9
$LIMMAX
 10
 297.000
 20
 210.000
  9
$FILLMODE
 70
     1
  9
$LTSCALE
 40
  0.125
  9
$HANDLING
 70
     0
  0
ENDSEC
  0
SECTION
  2
TABLES
  0
TABLE
  2
LTYPE
 70
     4
  0
LTYPE
  2
CONTIN
 70
    64
  3
SOLID LINE
 72
    65
 73
     0
 40
0.0
  0
LTYPE
  2
CONTINUOUS
 70
    64
  3
SOLID LINE
 72
    65
 73
     0
 40
0.0
  0
LTYPE
  2
CENTER
 70
    64
  3
____ _ ____ _ ____ _ ____ _ ____ _ ____ _ ____
 72
    65
 73
     4
 40
 50.80
 49
 31.75
 49
 -6.35
 49
  6.35
 49
 -6.35
  0
LTYPE
  2
DASHED
 70
    64
  3
__ __ __ __ __ __ __ __ __ __ __ __ __ __ __ 
 72
    65
 73
     2
 40
 38.10
 49
 25.40
 49
-12.70
  0
ENDTAB
  0
TABLE
  2
LAYER
 70
    50
  0
LAYER
  2
0
 70
     0
 62
     7
  6
CONTIN
  0
LAYER
  2
1
 70
     0
 62
     7
  6
CONTIN
  0
LAYER
  2
2
 70
     0
 62
     7
  6
CONTIN
  0
LAYER
  2
3
 70
     0
 62
     1
  6
CONTIN
  0
LAYER
  2
4
 70
     0
 62
     1
  6
CONTIN
  0
LAYER
  2
5
 70
     0
 62
     7
  6
DASHED
  0
LAYER
  2
6
 70
     0
 62
     4
  6
CONTIN
  0
LAYER
  2
7
 70
     0
 62
     3
  6
DASHED
  0
LAYER
  2
8
 70
     0
 62
     3
  6
DASHED
  0
LAYER
  2
9
 70
     0
 62
     7
  6
CONTIN
  0
LAYER
  2
10
 70
     0
 62
     7
  6
CONTIN
  0
LAYER
  2
11
 70
     0
 62
     7
  6
CONTIN
  0
LAYER
  2
12
 70
     0
 62
     2
  6
CONTIN
  0
LAYER
  2
13
 70
     0
 62
     2
  6
CONTIN
  0
LAYER
  2
14
 70
     0
 62
     7
  6
CONTIN
  0
LAYER
  2
15
 70
     0
 62
     6
  6
CONTIN
  0
LAYER
  2
16
 70
     0
 62
     7
  6
CONTIN
  0
LAYER
  2
17
 70
     0
 62
     7
  6
CONTIN
  0
LAYER
  2
18
 70
     0
 62
     4
  6
CONTIN
  0
LAYER
  2
19
 70
     0
 62
     7
  6
CONTIN
  0
LAYER
  2
20
 70
     0
 62
     7
  6
CONTIN
  0
LAYER
  2
21
 70
     0
 62
     7
  6
CONTIN
  0
LAYER
  2
22
 70
     0
 62
     7
  6
CONTIN
  0
LAYER
  2
23
 70
     0
 62
     7
  6
CONTIN
  0
LAYER
  2
24
 70
     0
 62
     7
  6
CONTIN
  0
LAYER
  2
25
 70
     0
 62
     7
  6
CONTIN
  0
LAYER
  2
26
 70
     0
 62
     7
  6
CONTIN
  0
LAYER
  2
27
 70
     0
 62
     7
  6
CONTIN
  0
LAYER
  2
28
 70
     0
 62
     7
  6
CONTIN
  0
LAYER
  2
29
 70
     0
 62
     7
  6
CONTIN
  0
LAYER
  2
30
 70
     0
 62
     7
  6
CONTIN
  0
LAYER
  2
31
 70
     0
 62
     7
  6
DASHED
  0
LAYER
  2
32
 70
     0
 62
     7
  6
CONTIN
  0
LAYER
  2
33
 70
     0
 62
     7
  6
DASHED
  0
LAYER
  2
34
 70
     0
 62
     7
  6
DASHED
  0
LAYER
  2
35
 70
     0
 62
     7
  6
CONTIN
  0
LAYER
  2
36
 70
     0
 62
     7
  6
CONTIN
  0
LAYER
  2
37
 70
     0
 62
     7
  6
CONTIN
  0
LAYER
  2
38
 70
     0
 62
     7
  6
CONTIN
  0
LAYER
  2
39
 70
     0
 62
     7
  6
CONTIN
  0
LAYER
  2
40
 70
     0
 62
     7
  6
CONTIN
  0
LAYER
  2
41
 70
     0
 62
     7
  6
CONTIN
  0
LAYER
  2
42
 70
     0
 62
     7
  6
CONTIN
  0
LAYER
  2
43
 70
     0
 62
     7
  6
CONTIN
  0
LAYER
  2
44
 70
     0
 62
     7
  6
CONTIN
  0
LAYER
  2
45
 70
     0
 62
     7
  6
CONTIN
  0
LAYER
  2
46
 70
     0
 62
     7
  6
CONTIN
  0
LAYER
  2
47
 70
     0
 62
     7
  6
CONTIN
  0
LAYER
  2
48
 70
     0
 62
     7
  6
CONTIN
  0
LAYER
  2
49
 70
     0
 62
     7
  6
CONTIN
  0
LAYER
  2
50
 70
     0
 62
     7
  6
CONTIN
  0
ENDTAB
  0
TABLE
  2
STYLE
 70
  0
  0
STYLE
  2
SIMPLEX
 70
  0
 40
  0.000
 41
  1.000
 42
  1.000
 50
  0.000
 71
  0
  3
SIMPLEX
  0
STYLE
  2
ROMANS
 70
  0
 40
  0.000
 41
  1.000
 42
  1.000
 50
  0.000
 71
  0
  3
ROMANS
  0
STYLE
  2
OPEN
 70
  0
 40
  0.000
 41
  1.000
 42
  1.000
 50
  0.000
 71
  0
  3
SIMPLEX
  0
STYLE
  2
ARIAL
 70
  0
 40
  0.000
 41
  1.000
 42
  1.000
 50
  0.000
 71
  0
  3
ARIAL.TTF
  0
STYLE
  2
VERDANAB
 70
  0
 40
  0.000
 41
  1.000
 42
  1.000
 50
  0.000
 71
  0
  3
VERDANAB.TTF
  0
ENDTAB
  0
ENDSEC
  0
SECTION
  2
BLOCKS
  0
BLOCK
  8
0
  2
ARROWP
 70
     0
 10
   0.000
 20
   0.000
  0
LINE
  8
0
 10
   0.000
 20
   0.000
 11
  -7.042
 21
  -1.174
  0
LINE
  8
0
 10
   0.000
 20
   0.000
 11
  -7.042
 21
   1.174
  0
LINE
  8
0
 10
  -7.042
 20
   1.174
 11
  -7.042
 21
  -1.174
  0
ENDBLK
  8
0
  0
BLOCK
  8
0
  2
ARROW
 70
     0
 10
   0.000
 20
   0.000
  0
LINE
  8
0
 10
   0.000
 20
   0.000
 11
  -7.042
 21
  -1.174
  0
LINE
  8
0
 10
   0.000
 20
   0.000
 11
  -7.042
 21
   1.174
  0
LINE
  8
0
 10
  -7.042
 20
   1.174
 11
  -7.042
 21
  -1.174
  0
ENDBLK
  8
0
  0
BLOCK
  8
3
  2
CIRCLE
 70
     0
 10
   0.000
 20
   0.000
  0
CIRCLE
  8
0
 10
   0.000
 20
   0.000
 40
  25.400
  0
ENDBLK
  8
3
  0
BLOCK
  8
1
  2
PCROSS
 70
     0
 10
   0.000
 20
   0.000
  0
LINE
  8
10
 10
   0.000
 20
   0.000
 11
   0.000
 21
  12.243
  0
LINE
  8
10
 10
  -0.635
 20
   7.031
 11
   0.635
 21
   7.031
  0
LINE
  8
2
 10
   0.000
 20
   3.061
 11
   4.572
 21
   3.061
  0
INSERT
  8
2
  2
ARROWP
 10
   0.000
 20
   3.061
 41
   0.469
 42
   0.469
 43
   0.469
 50
 180.000
  0
LINE
  8
10
 10
   0.000
 20
   0.000
 11
  35.456
 21
   0.000
  0
LINE
  8
10
 10
  30.244
 20
   0.635
 11
  30.244
 21
  -0.635
  0
LINE
  8
2
 10
  -5.601
 20
   0.000
 11
  -0.521
 21
   0.000
  0
LINE
  8
2
 10
  -3.061
 20
   0.000
 11
  -3.061
 21
  -4.572
  0
INSERT
  8
2
  2
ARROWP
 10
  -3.061
 20
   0.000
 41
   0.469
 42
   0.469
 43
   0.469
 50
  90.000
  0
ARC
  8
2
 10
   0.000
 20
   0.000
 40
   3.061
 50
  90.000
 51
 180.000
  0
TEXT
  8
21
 7
SIMPLEX
 10
  -15.196
 20
  -11.157
 40
    5.065
  1
 90.0
 50
    0.000
  0
ENDBLK
  8
1
  0
BLOCK
  8
1
  2
PLATE
 70
     0
 10
 148.500
 20
 105.000
  0
LINE
  8
13
 10
  46.775
 20
 177.225
 11
  46.775
 21
  32.775
  0
LINE
  8
13
 10
  46.775
 20
  32.775
 11
 250.225
 21
  32.775
  0
LINE
  8
13
 10
 250.225
 20
  32.775
 11
 250.225
 21
 177.225
  0
LINE
  8
13
 10
 250.225
 20
 177.225
 11
  46.775
 21
 177.225
  0
LINE
  8
2
 10
  44.608
 20
  32.775
 11
  -9.560
 21
  32.780
  0
LINE
  8
2
 10
  44.622
 20
 177.225
 11
  -9.547
 21
 177.230
  0
LINE
  8
2
 10
  -8.290
 20
  32.780
 11
  -8.277
 21
 177.230
  0
INSERT
  8
2
  2
ARROW
 10
  -8.290
 20
  32.780
 41
   1.000
 42
   1.000
 43
   1.000
 50
 269.994
  0
INSERT
  8
2
  2
ARROW
 10
  -8.277
 20
 177.230
 41
   1.000
 42
   1.000
 43
   1.000
 50
  89.994
  0
TEXT
  8
11
 7
SIMPLEX
 10
  -11.535
 20
   96.068
 40
    6.500
  1
144
 50
   89.994
  0
LINE
  8
2
 10
  46.775
 20
 179.392
 11
  46.775
 21
 233.561
  0
LINE
  8
2
 10
 250.225
 20
 179.392
 11
 250.225
 21
 233.561
  0
LINE
  8
2
 10
  46.775
 20
 232.290
 11
 250.225
 21
 232.290
  0
INSERT
  8
2
  2
ARROW
 10
  46.775
 20
 232.290
 41
   1.000
 42
   1.000
 43
   1.000
 50
 180.000
  0
INSERT
  8
2
  2
ARROW
 10
 250.225
 20
 232.290
 41
   1.000
 42
   1.000
 43
   1.000
 50
   0.000
  0
TEXT
  8
11
 7
SIMPLEX
 10
  138.750
 20
  235.541
 40
    6.500
  1
203
 50
    0.000
  0
LINE
  8
7
 10
  98.995
 20
  32.775
 11
  98.995
 21
 177.225
  0
TEXT
  8
11
 7
SIMPLEX
 10
   95.745
 20
  105.000
 40
    6.500
  1
 
 50
   90.000
  0
LINE
  8
2
 10
  46.775
 20
  17.066
 11
  46.775
 21
 -16.789
  0
LINE
  8
2
 10
  98.995
 20
  17.066
 11
  98.995
 21
 -16.789
  0
LINE
  8
2
 10
  46.775
 20
 -15.519
 11
  98.995
 21
 -15.519
  0
INSERT
  8
2
  2
ARROW
 10
  46.775
 20
 -15.519
 41
   1.000
 42
   1.000
 43
   1.000
 50
 180.000
  0
INSERT
  8
2
  2
ARROW
 10
  98.995
 20
 -15.519
 41
   1.000
 42
   1.000
 43
   1.000
 50
   0.000
  0
TEXT
  8
11
 7
SIMPLEX
 10
   66.385
 20
  -12.269
 40
    6.500
  1
52
 50
    0.000
  0
INSERT
  8
6
  2
CIRCLE
 10
  69.005
 20
  55.005
 41
   0.276
 42
   0.276
 43
   0.276
 50
   0.000
  0
INSERT
  8
6
  2
CIRCLE
 10
  69.005
 20
 155.005
 41
   0.276
 42
   0.276
 43
   0.276
 50
   0.000
  0
INSERT
  8
6
  2
CIRCLE
 10
 227.995
 20
  55.005
 41
   0.276
 42
   0.276
 43
   0.276
 50
   0.000
  0
INSERT
  8
6
  2
CIRCLE
 10
 227.995
 20
 155.005
 41
   0.276
 42
   0.276
 43
   0.276
 50
   0.000
  0
LINE
  8
2
 10
  44.608
 20
  32.775
 11
  24.295
 21
  32.777
  0
LINE
  8
2
 10
  44.610
 20
  55.005
 11
  24.297
 21
  55.007
  0
LINE
  8
2
 10
  25.565
 20
  32.777
 11
  25.567
 21
  55.007
  0
INSERT
  8
2
  2
ARROW
 10
  25.565
 20
  32.777
 41
   1.000
 42
   1.000
 43
   1.000
 50
 269.994
  0
INSERT
  8
2
  2
ARROW
 10
  25.567
 20
  55.007
 41
   1.000
 42
   1.000
 43
   1.000
 50
  89.994
  0
TEXT
  8
11
 7
SIMPLEX
 10
   22.315
 20
   37.392
 40
    6.500
  1
22
 50
   89.994
  0
LINE
  8
2
 10
  44.608
 20
  55.005
 11
  24.295
 21
  55.007
  0
LINE
  8
2
 10
  44.618
 20
 155.005
 11
  24.305
 21
 155.007
  0
LINE
  8
2
 10
  25.565
 20
  55.007
 11
  25.575
 21
 155.007
  0
INSERT
  8
2
  2
ARROW
 10
  25.565
 20
  55.007
 41
   1.000
 42
   1.000
 43
   1.000
 50
 269.994
  0
INSERT
  8
2
  2
ARROW
 10
  25.575
 20
 155.007
 41
   1.000
 42
   1.000
 43
   1.000
 50
  89.994
  0
TEXT
  8
11
 7
SIMPLEX
 10
   22.319
 20
   96.070
 40
    6.500
  1
100
 50
   89.994
  0
LINE
  8
2
 10
  44.608
 20
 155.005
 11
  24.295
 21
 155.007
  0
LINE
  8
2
 10
  44.610
 20
 177.225
 11
  24.297
 21
 177.227
  0
LINE
  8
2
 10
  25.565
 20
 155.007
 11
  25.567
 21
 177.227
  0
INSERT
  8
2
  2
ARROW
 10
  25.565
 20
 155.007
 41
   1.000
 42
   1.000
 43
   1.000
 50
 269.994
  0
INSERT
  8
2
  2
ARROW
 10
  25.567
 20
 177.227
 41
   1.000
 42
   1.000
 43
   1.000
 50
  89.994
  0
TEXT
  8
11
 7
SIMPLEX
 10
   22.315
 20
  159.617
 40
    6.500
  1
22
 50
   89.994
  0
LINE
  8
2
 10
  46.775
 20
 179.392
 11
  46.775
 21
 190.225
  0
LINE
  8
2
 10
  69.005
 20
 179.392
 11
  69.005
 21
 190.225
  0
LINE
  8
2
 10
  46.775
 20
 188.955
 11
  69.005
 21
 188.955
  0
INSERT
  8
2
  2
ARROW
 10
  46.775
 20
 188.955
 41
   1.000
 42
   1.000
 43
   1.000
 50
 180.000
  0
INSERT
  8
2
  2
ARROW
 10
  69.005
 20
 188.955
 41
   1.000
 42
   1.000
 43
   1.000
 50
   0.000
  0
TEXT
  8
11
 7
SIMPLEX
 10
   51.390
 20
  192.206
 40
    6.500
  1
22
 50
    0.000
  0
LINE
  8
2
 10
  46.775
 20
  30.608
 11
  46.775
 21
  10.295
  0
LINE
  8
2
 10
  69.005
 20
  30.608
 11
  69.005
 21
  10.295
  0
LINE
  8
2
 10
  46.775
 20
  11.565
 11
  69.005
 21
  11.565
  0
INSERT
  8
2
  2
ARROW
 10
  46.775
 20
  11.565
 41
   1.000
 42
   1.000
 43
   1.000
 50
 180.000
  0
INSERT
  8
2
  2
ARROW
 10
  69.005
 20
  11.565
 41
   1.000
 42
   1.000
 43
   1.000
 50
   0.000
  0
TEXT
  8
11
 7
SIMPLEX
 10
   51.390
 20
   14.815
 40
    6.500
  1
22
 50
    0.000
  0
LINE
  8
2
 10
 227.995
 20
 179.392
 11
 227.995
 21
 190.225
  0
LINE
  8
2
 10
 219.328
 20
 188.955
 11
 227.995
 21
 188.955
  0
INSERT
  8
2
  2
ARROW
 10
 227.995
 20
 188.955
 41
   1.000
 42
   1.000
 43
   1.000
 50
   0.000
  0
TEXT
  8
11
 7
SIMPLEX
 10
  208.494
 20
  192.206
 40
    6.500
  1
181
 50
    0.000
  0
LINE
  8
2
 10
  69.005
 20
  30.608
 11
  69.005
 21
  10.295
  0
LINE
  8
2
 10
 227.995
 20
  30.608
 11
 227.995
 21
  10.295
  0
LINE
  8
2
 10
  69.005
 20
  11.565
 11
 227.995
 21
  11.565
  0
INSERT
  8
2
  2
ARROW
 10
  69.005
 20
  11.565
 41
   1.000
 42
   1.000
 43
   1.000
 50
 180.000
  0
INSERT
  8
2
  2
ARROW
 10
 227.995
 20
  11.565
 41
   1.000
 42
   1.000
 43
   1.000
 50
   0.000
  0
TEXT
  8
11
 7
SIMPLEX
 10
  139.562
 20
   14.815
 40
    6.500
  1
159
 50
    0.000
  0
LINE
  8
2
 10
 227.995
 20
  30.608
 11
 227.995
 21
  10.295
  0
LINE
  8
2
 10
 250.225
 20
  30.608
 11
 250.225
 21
  10.295
  0
LINE
  8
2
 10
 227.995
 20
  11.565
 11
 250.225
 21
  11.565
  0
INSERT
  8
2
  2
ARROW
 10
 227.995
 20
  11.565
 41
   1.000
 42
   1.000
 43
   1.000
 50
 180.000
  0
INSERT
  8
2
  2
ARROW
 10
 250.225
 20
  11.565
 41
   1.000
 42
   1.000
 43
   1.000
 50
   0.000
  0
TEXT
  8
11
 7
SIMPLEX
 10
  232.610
 20
   14.815
 40
    6.500
  1
22
 50
    0.000
  0
ENDBLK
  8
1
  0
ENDSEC
  0
SECTION
  2
ENTITIES
  0
LINE
  8
22
 10
   0.000
 20
   0.000
 11
 297.000
 21
   0.000
  0
LINE
  8
22
 10
 297.000
 20
   0.000
 11
 297.000
 21
 210.000
  0
LINE
  8
22
 10
 297.000
 20
 210.000
 11
   0.000
 21
 210.000
  0
LINE
  8
22
 10
   0.000
 20
 210.000
 11
   0.000
 21
   0.000
  0
LINE
  8
0
 10
 175.080
 20
  10.160
 11
 297.000
 21
  10.160
  0
LINE
  8
0
 10
 175.080
 20
  20.320
 11
 297.000
 21
  20.320
  0
LINE
  8
0
 10
 175.080
 20
  20.320
 11
 175.080
 21
   0.000
  0
LINE
  8
0
 10
 205.560
 20
  10.160
 11
 205.560
 21
   0.000
  0
LINE
  8
0
 10
 236.040
 20
  10.160
 11
 236.040
 21
   0.000
  0
LINE
  8
0
 10
 266.520
 20
  10.160
 11
 266.520
 21
   0.000
  0
TEXT
  8
0
 10
  182.700
 20
    7.620
 40
    2.286
  1
JOB
 50
    0.000
  0
TEXT
  8
0
 10
  228.420
 20
   17.780
 40
    2.286
  1
CUSTOMER
 50
    0.000
  0
TEXT
  8
0
 10
  213.180
 20
    7.620
 40
    2.286
  1
CHECKED BY
 50
    0.000
  0
TEXT
  8
0
 10
  243.660
 20
    7.620
 40
    2.286
  1
DATE
 50
    0.000
  0
TEXT
  8
0
 10
  271.600
 20
    7.620
 40
    2.286
  1
DRAWING
 50
    0.000
  0
TEXT
  8
0
 10
  215.720
 20
   12.700
 40
    2.857
  1
 
 50
    0.000
  0
TEXT
  8
0
 10
  177.620
 20
    2.540
 40
    2.857
  1
C163-127
 50
    0.000
  0
TEXT
  8
0
 10
  238.580
 20
    2.540
 40
    2.857
  1
29/JAN/2026
 50
    0.000
  0
TEXT
  8
21
 7
SIMPLEX
 10
    3.048
 20
  203.904
 40
    3.048
  1
MARK
 50
    0.000
  0
TEXT
  8
21
 7
SIMPLEX
 10
   30.480
 20
  203.904
 40
    3.048
  1
:
 50
    0.000
  0
TEXT
  8
21
 7
SIMPLEX
 10
   33.528
 20
  203.904
 40
    3.048
  1
b1
 50
    0.000
  0
TEXT
  8
21
 7
SIMPLEX
 10
    3.048
 20
  197.808
 40
    3.048
  1
QUANTITY
 50
    0.000
  0
TEXT
  8
21
 7
SIMPLEX
 10
   30.480
 20
  197.808
 40
    3.048
  1
:
 50
    0.000
  0
TEXT
  8
21
 7
SIMPLEX
 10
   33.528
 20
  197.808
 40
    3.048
  1
8
 50
    0.000
  0
TEXT
  8
21
 7
SIMPLEX
 10
    3.048
 20
  191.712
 40
    3.048
  1
SIZE
 50
    0.000
  0
TEXT
  8
21
 7
SIMPLEX
 10
   30.480
 20
  191.712
 40
    3.048
  1
:
 50
    0.000
  0
TEXT
  8
21
 7
SIMPLEX
 10
   33.528
 20
  191.712
 40
    3.048
  1
5 x 144 x 203
 50
    0.000
  0
INSERT
  8
6
  2
CIRCLE
 10
 252.731
 20
 205.428
 41
   0.060
 42
   0.060
 43
   0.060
 50
   0.000
  0
TEXT
  8
21
 7
SIMPLEX
 10
  257.147
 20
  203.904
 40
    3.048
  1
Dia=14
 50
    0.000
  0
INSERT
  8
1
  2
PLATE
 10
 148.500
 20
 105.000
 41
   0.703
 42
   0.703
 43
   0.703
 50
   0.000
  0
INSERT
  8
1
  2
PCROSS
 10
 246.635
 20
 182.568
 41
   0.602
 42
   0.602
 43
   0.602
 50
   0.000
  0
ENDSEC
  0
EOF
