999
SOURCE:MBS   PROGRAM:CLP_DXF   CELL:CLP_BOLT   CLASS:SHOP   MODE:
  0
SECTION
  2
HEADER
  9
$EXTMIN
 10
   0.000
 20
   0.000
  9
$EXTMAX
 10
 297.000
 20
 210.000
  9
$LIMMIN
 10
   0.000
 20
   0.000
  9
$LIMMAX
 10
 297.000
 20
 210.000
  9
$FILLMODE
 70
     1
  9
$LTSCALE
 40
  0.125
  9
$HANDLING
 70
     0
  0
ENDSEC
  0
SECTION
  2
TABLES
  0
TABLE
  2
LTYPE
 70
     4
  0
LTYPE
  2
CONTIN
 70
    64
  3
SOLID LINE
 72
    65
 73
     0
 40
0.0
  0
LTYPE
  2
CONTINUOUS
 70
    64
  3
SOLID LINE
 72
    65
 73
     0
 40
0.0
  0
LTYPE
  2
CENTER
 70
    64
  3
____ _ ____ _ ____ _ ____ _ ____ _ ____ _ ____
 72
    65
 73
     4
 40
 50.80
 49
 31.75
 49
 -6.35
 49
  6.35
 49
 -6.35
  0
LTYPE
  2
DASHED
 70
    64
  3
__ __ __ __ __ __ __ __ __ __ __ __ __ __ __ 
 72
    65
 73
     2
 40
 38.10
 49
 25.40
 49
-12.70
  0
ENDTAB
  0
TABLE
  2
LAYER
 70
    50
  0
LAYER
  2
0
 70
     0
 62
     7
  6
CONTIN
  0
LAYER
  2
1
 70
     0
 62
     7
  6
CONTIN
  0
LAYER
  2
2
 70
     0
 62
     7
  6
CONTIN
  0
LAYER
  2
3
 70
     0
 62
     1
  6
CONTIN
  0
LAYER
  2
4
 70
     0
 62
     1
  6
CONTIN
  0
LAYER
  2
5
 70
     0
 62
     7
  6
DASHED
  0
LAYER
  2
6
 70
     0
 62
     4
  6
CONTIN
  0
LAYER
  2
7
 70
     0
 62
     3
  6
DASHED
  0
LAYER
  2
8
 70
     0
 62
     3
  6
DASHED
  0
LAYER
  2
9
 70
     0
 62
     7
  6
CONTIN
  0
LAYER
  2
10
 70
     0
 62
     7
  6
CONTIN
  0
LAYER
  2
11
 70
     0
 62
     7
  6
CONTIN
  0
LAYER
  2
12
 70
     0
 62
     2
  6
CONTIN
  0
LAYER
  2
13
 70
     0
 62
     2
  6
CONTIN
  0
LAYER
  2
14
 70
     0
 62
     7
  6
CONTIN
  0
LAYER
  2
15
 70
     0
 62
     6
  6
CONTIN
  0
LAYER
  2
16
 70
     0
 62
     7
  6
CONTIN
  0
LAYER
  2
17
 70
     0
 62
     7
  6
CONTIN
  0
LAYER
  2
18
 70
     0
 62
     4
  6
CONTIN
  0
LAYER
  2
19
 70
     0
 62
     7
  6
CONTIN
  0
LAYER
  2
20
 70
     0
 62
     7
  6
CONTIN
  0
LAYER
  2
21
 70
     0
 62
     7
  6
CONTIN
  0
LAYER
  2
22
 70
     0
 62
     7
  6
CONTIN
  0
LAYER
  2
23
 70
     0
 62
     7
  6
CONTIN
  0
LAYER
  2
24
 70
     0
 62
     7
  6
CONTIN
  0
LAYER
  2
25
 70
     0
 62
     7
  6
CONTIN
  0
LAYER
  2
26
 70
     0
 62
     7
  6
CONTIN
  0
LAYER
  2
27
 70
     0
 62
     7
  6
CONTIN
  0
LAYER
  2
28
 70
     0
 62
     7
  6
CONTIN
  0
LAYER
  2
29
 70
     0
 62
     7
  6
CONTIN
  0
LAYER
  2
30
 70
     0
 62
     7
  6
CONTIN
  0
LAYER
  2
31
 70
     0
 62
     7
  6
DASHED
  0
LAYER
  2
32
 70
     0
 62
     7
  6
CONTIN
  0
LAYER
  2
33
 70
     0
 62
     7
  6
DASHED
  0
LAYER
  2
34
 70
     0
 62
     7
  6
DASHED
  0
LAYER
  2
35
 70
     0
 62
     7
  6
CONTIN
  0
LAYER
  2
36
 70
     0
 62
     7
  6
CONTIN
  0
LAYER
  2
37
 70
     0
 62
     7
  6
CONTIN
  0
LAYER
  2
38
 70
     0
 62
     7
  6
CONTIN
  0
LAYER
  2
39
 70
     0
 62
     7
  6
CONTIN
  0
LAYER
  2
40
 70
     0
 62
     7
  6
CONTIN
  0
LAYER
  2
41
 70
     0
 62
     7
  6
CONTIN
  0
LAYER
  2
42
 70
     0
 62
     7
  6
CONTIN
  0
LAYER
  2
43
 70
     0
 62
     7
  6
CONTIN
  0
LAYER
  2
44
 70
     0
 62
     7
  6
CONTIN
  0
LAYER
  2
45
 70
     0
 62
     7
  6
CONTIN
  0
LAYER
  2
46
 70
     0
 62
     7
  6
CONTIN
  0
LAYER
  2
47
 70
     0
 62
     7
  6
CONTIN
  0
LAYER
  2
48
 70
     0
 62
     7
  6
CONTIN
  0
LAYER
  2
49
 70
     0
 62
     7
  6
CONTIN
  0
LAYER
  2
50
 70
     0
 62
     7
  6
CONTIN
  0
ENDTAB
  0
TABLE
  2
STYLE
 70
  0
  0
STYLE
  2
SIMPLEX
 70
  0
 40
  0.000
 41
  1.000
 42
  1.000
 50
  0.000
 71
  0
  3
SIMPLEX
  0
STYLE
  2
ROMANS
 70
  0
 40
  0.000
 41
  1.000
 42
  1.000
 50
  0.000
 71
  0
  3
ROMANS
  0
STYLE
  2
OPEN
 70
  0
 40
  0.000
 41
  1.000
 42
  1.000
 50
  0.000
 71
  0
  3
SIMPLEX
  0
STYLE
  2
ARIAL
 70
  0
 40
  0.000
 41
  1.000
 42
  1.000
 50
  0.000
 71
  0
  3
ARIAL.TTF
  0
STYLE
  2
VERDANAB
 70
  0
 40
  0.000
 41
  1.000
 42
  1.000
 50
  0.000
 71
  0
  3
VERDANAB.TTF
  0
ENDTAB
  0
ENDSEC
  0
SECTION
  2
BLOCKS
  0
BLOCK
  8
0
  2
ARROWP
 70
     0
 10
   0.000
 20
   0.000
  0
LINE
  8
0
 10
   0.000
 20
   0.000
 11
 -11.357
 21
  -1.893
  0
LINE
  8
0
 10
   0.000
 20
   0.000
 11
 -11.357
 21
   1.893
  0
LINE
  8
0
 10
 -11.357
 20
   1.893
 11
 -11.357
 21
  -1.893
  0
ENDBLK
  8
0
  0
BLOCK
  8
0
  2
ARROW
 70
     0
 10
   0.000
 20
   0.000
  0
LINE
  8
0
 10
   0.000
 20
   0.000
 11
 -11.357
 21
  -1.893
  0
LINE
  8
0
 10
   0.000
 20
   0.000
 11
 -11.357
 21
   1.893
  0
LINE
  8
0
 10
 -11.357
 20
   1.893
 11
 -11.357
 21
  -1.893
  0
ENDBLK
  8
0
  0
BLOCK
  8
3
  2
CIRCLE
 70
     0
 10
   0.000
 20
   0.000
  0
CIRCLE
  8
0
 10
   0.000
 20
   0.000
 40
  25.400
  0
ENDBLK
  8
3
  0
BLOCK
  8
1
  2
PCROSS
 70
     0
 10
   0.000
 20
   0.000
  0
ENDBLK
  8
1
  0
BLOCK
  8
1
  2
PLATE
 70
     0
 10
 148.500
 20
 105.000
  0
LINE
  8
13
 10
 -26.225
 20
 177.225
 11
 -26.225
 21
  32.775
  0
LINE
  8
13
 10
 -26.225
 20
  32.775
 11
 323.225
 21
  32.775
  0
LINE
  8
13
 10
 323.225
 20
  32.775
 11
 323.225
 21
 177.225
  0
LINE
  8
13
 10
 323.225
 20
 177.225
 11
 -26.225
 21
 177.225
  0
LINE
  8
2
 10
 -29.719
 20
  32.775
 11
-117.082
 21
  32.784
  0
LINE
  8
2
 10
 -29.706
 20
 177.225
 11
-117.068
 21
 177.234
  0
LINE
  8
2
 10
-115.812
 20
  32.784
 11
-115.798
 21
 177.234
  0
INSERT
  8
2
  2
ARROW
 10
-115.812
 20
  32.784
 41
   1.000
 42
   1.000
 43
   1.000
 50
 269.994
  0
INSERT
  8
2
  2
ARROW
 10
-115.798
 20
 177.234
 41
   1.000
 42
   1.000
 43
   1.000
 50
  89.994
  0
TEXT
  8
11
 7
SIMPLEX
 10
 -121.048
 20
   90.594
 40
   10.484
  1
144
 50
   89.994
  0
LINE
  8
2
 10
 -26.225
 20
 180.719
 11
 -26.225
 21
 268.082
  0
LINE
  8
2
 10
 323.225
 20
 180.719
 11
 323.225
 21
 268.082
  0
LINE
  8
2
 10
 -26.225
 20
 266.812
 11
 323.225
 21
 266.812
  0
INSERT
  8
2
  2
ARROW
 10
 -26.225
 20
 266.812
 41
   1.000
 42
   1.000
 43
   1.000
 50
 180.000
  0
INSERT
  8
2
  2
ARROW
 10
 323.225
 20
 266.812
 41
   1.000
 42
   1.000
 43
   1.000
 50
   0.000
  0
TEXT
  8
11
 7
SIMPLEX
 10
  132.775
 20
  272.054
 40
   10.484
  1
349
 50
    0.000
  0
INSERT
  8
6
  2
CIRCLE
 10
  -4.005
 20
  55.005
 41
   0.276
 42
   0.276
 43
   0.276
 50
   0.000
  0
INSERT
  8
6
  2
CIRCLE
 10
  -4.005
 20
 155.005
 41
   0.276
 42
   0.276
 43
   0.276
 50
   0.000
  0
INSERT
  8
6
  2
CIRCLE
 10
  95.995
 20
  55.005
 41
   0.276
 42
   0.276
 43
   0.276
 50
   0.000
  0
INSERT
  8
6
  2
CIRCLE
 10
  95.995
 20
 155.005
 41
   0.276
 42
   0.276
 43
   0.276
 50
   0.000
  0
INSERT
  8
6
  2
CIRCLE
 10
 201.005
 20
  55.005
 41
   0.276
 42
   0.276
 43
   0.276
 50
   0.000
  0
INSERT
  8
6
  2
CIRCLE
 10
 201.005
 20
 155.005
 41
   0.276
 42
   0.276
 43
   0.276
 50
   0.000
  0
INSERT
  8
6
  2
CIRCLE
 10
 301.005
 20
  55.005
 41
   0.276
 42
   0.276
 43
   0.276
 50
   0.000
  0
INSERT
  8
6
  2
CIRCLE
 10
 301.005
 20
 155.005
 41
   0.276
 42
   0.276
 43
   0.276
 50
   0.000
  0
LINE
  8
2
 10
 -29.719
 20
  32.775
 11
 -62.480
 21
  32.778
  0
LINE
  8
2
 10
 -29.717
 20
  55.005
 11
 -62.478
 21
  55.008
  0
LINE
  8
2
 10
 -61.210
 20
  32.778
 11
 -61.208
 21
  55.008
  0
INSERT
  8
2
  2
ARROW
 10
 -61.210
 20
  32.778
 41
   1.000
 42
   1.000
 43
   1.000
 50
 269.994
  0
INSERT
  8
2
  2
ARROW
 10
 -61.208
 20
  55.008
 41
   1.000
 42
   1.000
 43
   1.000
 50
  89.994
  0
TEXT
  8
11
 7
SIMPLEX
 10
  -66.452
 20
   33.410
 40
   10.484
  1
22
 50
   89.994
  0
LINE
  8
2
 10
 -29.719
 20
  55.005
 11
 -62.480
 21
  55.008
  0
LINE
  8
2
 10
 -29.710
 20
 155.005
 11
 -62.471
 21
 155.008
  0
LINE
  8
2
 10
 -61.210
 20
  55.008
 11
 -61.201
 21
 155.008
  0
INSERT
  8
2
  2
ARROW
 10
 -61.210
 20
  55.008
 41
   1.000
 42
   1.000
 43
   1.000
 50
 269.994
  0
INSERT
  8
2
  2
ARROW
 10
 -61.201
 20
 155.008
 41
   1.000
 42
   1.000
 43
   1.000
 50
  89.994
  0
TEXT
  8
11
 7
SIMPLEX
 10
  -66.449
 20
   90.594
 40
   10.484
  1
100
 50
   89.994
  0
LINE
  8
2
 10
 -29.719
 20
 155.005
 11
 -62.480
 21
 155.008
  0
LINE
  8
2
 10
 -29.717
 20
 177.225
 11
 -62.478
 21
 177.228
  0
LINE
  8
2
 10
 -61.210
 20
 155.008
 11
 -61.208
 21
 177.228
  0
INSERT
  8
2
  2
ARROW
 10
 -61.210
 20
 155.008
 41
   1.000
 42
   1.000
 43
   1.000
 50
 269.994
  0
INSERT
  8
2
  2
ARROW
 10
 -61.208
 20
 177.228
 41
   1.000
 42
   1.000
 43
   1.000
 50
  89.994
  0
TEXT
  8
11
 7
SIMPLEX
 10
  -66.452
 20
  155.635
 40
   10.484
  1
22
 50
   89.994
  0
LINE
  8
2
 10
 -26.225
 20
 180.719
 11
 -26.225
 21
 198.192
  0
LINE
  8
2
 10
  -4.005
 20
 180.719
 11
  -4.005
 21
 198.192
  0
LINE
  8
2
 10
 -26.225
 20
 196.922
 11
  -4.005
 21
 196.922
  0
INSERT
  8
2
  2
ARROW
 10
 -26.225
 20
 196.922
 41
   1.000
 42
   1.000
 43
   1.000
 50
 180.000
  0
INSERT
  8
2
  2
ARROW
 10
  -4.005
 20
 196.922
 41
   1.000
 42
   1.000
 43
   1.000
 50
   0.000
  0
TEXT
  8
11
 7
SIMPLEX
 10
  -25.598
 20
  202.164
 40
   10.484
  1
22
 50
    0.000
  0
LINE
  8
2
 10
 -26.225
 20
  29.280
 11
 -26.225
 21
  -3.480
  0
LINE
  8
2
 10
  -4.005
 20
  29.280
 11
  -4.005
 21
  -3.480
  0
LINE
  8
2
 10
 -26.225
 20
  -2.210
 11
  -4.005
 21
  -2.210
  0
INSERT
  8
2
  2
ARROW
 10
 -26.225
 20
  -2.210
 41
   1.000
 42
   1.000
 43
   1.000
 50
 180.000
  0
INSERT
  8
2
  2
ARROW
 10
  -4.005
 20
  -2.210
 41
   1.000
 42
   1.000
 43
   1.000
 50
   0.000
  0
TEXT
  8
11
 7
SIMPLEX
 10
  -25.598
 20
    3.031
 40
   10.484
  1
22
 50
    0.000
  0
LINE
  8
2
 10
  95.995
 20
 180.719
 11
  95.995
 21
 198.192
  0
LINE
  8
2
 10
  82.017
 20
 196.922
 11
  95.995
 21
 196.922
  0
INSERT
  8
2
  2
ARROW
 10
  95.995
 20
 196.922
 41
   1.000
 42
   1.000
 43
   1.000
 50
   0.000
  0
TEXT
  8
11
 7
SIMPLEX
 10
   61.924
 20
  202.164
 40
   10.484
  1
122
 50
    0.000
  0
LINE
  8
2
 10
  -4.005
 20
  29.280
 11
  -4.005
 21
  -3.480
  0
LINE
  8
2
 10
  95.995
 20
  29.280
 11
  95.995
 21
  -3.480
  0
LINE
  8
2
 10
  -4.005
 20
  -2.210
 11
  95.995
 21
  -2.210
  0
INSERT
  8
2
  2
ARROW
 10
  -4.005
 20
  -2.210
 41
   1.000
 42
   1.000
 43
   1.000
 50
 180.000
  0
INSERT
  8
2
  2
ARROW
 10
  95.995
 20
  -2.210
 41
   1.000
 42
   1.000
 43
   1.000
 50
   0.000
  0
TEXT
  8
11
 7
SIMPLEX
 10
   31.580
 20
    3.031
 40
   10.484
  1
100
 50
    0.000
  0
LINE
  8
2
 10
 201.005
 20
 180.719
 11
 201.005
 21
 229.643
  0
LINE
  8
2
 10
 187.027
 20
 228.372
 11
 201.005
 21
 228.372
  0
INSERT
  8
2
  2
ARROW
 10
 201.005
 20
 228.372
 41
   1.000
 42
   1.000
 43
   1.000
 50
   0.000
  0
TEXT
  8
11
 7
SIMPLEX
 10
  164.313
 20
  233.614
 40
   10.484
  1
227
 50
    0.000
  0
LINE
  8
2
 10
  95.995
 20
  29.280
 11
  95.995
 21
  -3.480
  0
LINE
  8
2
 10
 201.005
 20
  29.280
 11
 201.005
 21
  -3.480
  0
LINE
  8
2
 10
  95.995
 20
  -2.210
 11
 201.005
 21
  -2.210
  0
INSERT
  8
2
  2
ARROW
 10
  95.995
 20
  -2.210
 41
   1.000
 42
   1.000
 43
   1.000
 50
 180.000
  0
INSERT
  8
2
  2
ARROW
 10
 201.005
 20
  -2.210
 41
   1.000
 42
   1.000
 43
   1.000
 50
   0.000
  0
TEXT
  8
11
 7
SIMPLEX
 10
  134.085
 20
    3.031
 40
   10.484
  1
105
 50
    0.000
  0
LINE
  8
2
 10
 301.005
 20
 180.719
 11
 301.005
 21
 198.192
  0
LINE
  8
2
 10
 287.027
 20
 196.922
 11
 301.005
 21
 196.922
  0
INSERT
  8
2
  2
ARROW
 10
 301.005
 20
 196.922
 41
   1.000
 42
   1.000
 43
   1.000
 50
   0.000
  0
TEXT
  8
11
 7
SIMPLEX
 10
  264.313
 20
  202.164
 40
   10.484
  1
327
 50
    0.000
  0
LINE
  8
2
 10
 201.005
 20
  29.280
 11
 201.005
 21
  -3.480
  0
LINE
  8
2
 10
 301.005
 20
  29.280
 11
 301.005
 21
  -3.480
  0
LINE
  8
2
 10
 201.005
 20
  -2.210
 11
 301.005
 21
  -2.210
  0
INSERT
  8
2
  2
ARROW
 10
 201.005
 20
  -2.210
 41
   1.000
 42
   1.000
 43
   1.000
 50
 180.000
  0
INSERT
  8
2
  2
ARROW
 10
 301.005
 20
  -2.210
 41
   1.000
 42
   1.000
 43
   1.000
 50
   0.000
  0
TEXT
  8
11
 7
SIMPLEX
 10
  236.590
 20
    3.031
 40
   10.484
  1
100
 50
    0.000
  0
LINE
  8
2
 10
 301.005
 20
  29.280
 11
 301.005
 21
  -3.480
  0
LINE
  8
2
 10
 323.225
 20
  29.280
 11
 323.225
 21
  -3.480
  0
LINE
  8
2
 10
 301.005
 20
  -2.210
 11
 323.225
 21
  -2.210
  0
INSERT
  8
2
  2
ARROW
 10
 301.005
 20
  -2.210
 41
   1.000
 42
   1.000
 43
   1.000
 50
 180.000
  0
INSERT
  8
2
  2
ARROW
 10
 323.225
 20
  -2.210
 41
   1.000
 42
   1.000
 43
   1.000
 50
   0.000
  0
TEXT
  8
11
 7
SIMPLEX
 10
  301.632
 20
    3.031
 40
   10.484
  1
22
 50
    0.000
  0
ENDBLK
  8
1
  0
ENDSEC
  0
SECTION
  2
ENTITIES
  0
LINE
  8
22
 10
   0.000
 20
   0.000
 11
 297.000
 21
   0.000
  0
LINE
  8
22
 10
 297.000
 20
   0.000
 11
 297.000
 21
 210.000
  0
LINE
  8
22
 10
 297.000
 20
 210.000
 11
   0.000
 21
 210.000
  0
LINE
  8
22
 10
   0.000
 20
 210.000
 11
   0.000
 21
   0.000
  0
LINE
  8
0
 10
 175.080
 20
  10.160
 11
 297.000
 21
  10.160
  0
LINE
  8
0
 10
 175.080
 20
  20.320
 11
 297.000
 21
  20.320
  0
LINE
  8
0
 10
 175.080
 20
  20.320
 11
 175.080
 21
   0.000
  0
LINE
  8
0
 10
 205.560
 20
  10.160
 11
 205.560
 21
   0.000
  0
LINE
  8
0
 10
 236.040
 20
  10.160
 11
 236.040
 21
   0.000
  0
LINE
  8
0
 10
 266.520
 20
  10.160
 11
 266.520
 21
   0.000
  0
TEXT
  8
0
 10
  182.700
 20
    7.620
 40
    2.286
  1
JOB
 50
    0.000
  0
TEXT
  8
0
 10
  228.420
 20
   17.780
 40
    2.286
  1
CUSTOMER
 50
    0.000
  0
TEXT
  8
0
 10
  213.180
 20
    7.620
 40
    2.286
  1
CHECKED BY
 50
    0.000
  0
TEXT
  8
0
 10
  243.660
 20
    7.620
 40
    2.286
  1
DATE
 50
    0.000
  0
TEXT
  8
0
 10
  271.600
 20
    7.620
 40
    2.286
  1
DRAWING
 50
    0.000
  0
TEXT
  8
0
 10
  215.720
 20
   12.700
 40
    2.857
  1
 
 50
    0.000
  0
TEXT
  8
0
 10
  177.620
 20
    2.540
 40
    2.857
  1
C163-127
 50
    0.000
  0
TEXT
  8
0
 10
  238.580
 20
    2.540
 40
    2.857
  1
29/JAN/2026
 50
    0.000
  0
TEXT
  8
21
 7
SIMPLEX
 10
    3.048
 20
  203.904
 40
    3.048
  1
MARK
 50
    0.000
  0
TEXT
  8
21
 7
SIMPLEX
 10
   30.480
 20
  203.904
 40
    3.048
  1
:
 50
    0.000
  0
TEXT
  8
21
 7
SIMPLEX
 10
   33.528
 20
  203.904
 40
    3.048
  1
r1
 50
    0.000
  0
TEXT
  8
21
 7
SIMPLEX
 10
    3.048
 20
  197.808
 40
    3.048
  1
QUANTITY
 50
    0.000
  0
TEXT
  8
21
 7
SIMPLEX
 10
   30.480
 20
  197.808
 40
    3.048
  1
:
 50
    0.000
  0
TEXT
  8
21
 7
SIMPLEX
 10
   33.528
 20
  197.808
 40
    3.048
  1
20
 50
    0.000
  0
TEXT
  8
21
 7
SIMPLEX
 10
    3.048
 20
  191.712
 40
    3.048
  1
SIZE
 50
    0.000
  0
TEXT
  8
21
 7
SIMPLEX
 10
   30.480
 20
  191.712
 40
    3.048
  1
:
 50
    0.000
  0
TEXT
  8
21
 7
SIMPLEX
 10
   33.528
 20
  191.712
 40
    3.048
  1
5 x 144 x 349
 50
    0.000
  0
INSERT
  8
6
  2
CIRCLE
 10
 252.731
 20
 205.428
 41
   0.060
 42
   0.060
 43
   0.060
 50
   0.000
  0
TEXT
  8
21
 7
SIMPLEX
 10
  257.147
 20
  203.904
 40
    3.048
  1
Dia=14
 50
    0.000
  0
INSERT
  8
1
  2
PLATE
 10
 148.500
 20
 105.000
 41
   0.436
 42
   0.436
 43
   0.436
 50
   0.000
  0
ENDSEC
  0
EOF
