999
SOURCE:MBS   PROGRAM:PLT_DXF   CELL:RF_STF   CLASS:SCALED   MODE:---
  0
SECTION
  2
HEADER
  9
$EXTMIN
 10
          0.000
 20
          0.000
  9
$EXTMAX
 10
        644.445
 20
        405.556
  9
$LIMMIN
 10
          0.000
 20
          0.000
  9
$LIMMAX
 10
        644.445
 20
        405.556
  9
$FILLMODE
 70
     1
  9
$LTSCALE
 40
  0.125
  9
$HANDLING
 70
     0
  0
ENDSEC
  0
SECTION
  2
TABLES
  0
TABLE
  2
LTYPE
 70
     3
  0
LTYPE
  2
CONTINUOUS
 70
    64
  3
SOLID LINE
 72
    65
 73
     0
 40
0.0
  0
LTYPE
  2
CENTER
 70
    64
  3
____ _ ____ _ ____ _ ____ _ ____ _ ____ _ ____
 72
    65
 73
     4
 40
2.0
 49
1.25
 49
-0.25
 49
0.25
 49
-0.25
  0
LTYPE
  2
DASHED
 70
    64
  3
__ __ __ __ __ __ __ __ __ __ __ __ __ __ __ 
 72
    65
 73
     2
 40
0.75
 49
0.5
 49
-0.25
  0
ENDTAB
  0
TABLE
  2
LAYER
 70
    51
  0
LAYER
  2
0
 70
     0
 62
     7
  6
CONTINUOUS
  0
LAYER
  2
1
 70
     0
 62
     7
  6
CONTINUOUS
  0
LAYER
  2
2
 70
     0
 62
     7
  6
CONTINUOUS
  0
LAYER
  2
3
 70
     0
 62
     1
  6
CONTINUOUS
  0
LAYER
  2
4
 70
     0
 62
     1
  6
CONTINUOUS
  0
LAYER
  2
5
 70
     0
 62
     7
  6
CONTINUOUS
  0
LAYER
  2
6
 70
     0
 62
     6
  6
CONTINUOUS
  0
LAYER
  2
7
 70
     0
 62
     3
  6
CONTINUOUS
  0
LAYER
  2
8
 70
     0
 62
     3
  6
CONTINUOUS
  0
LAYER
  2
9
 70
     0
 62
     7
  6
CONTINUOUS
  0
LAYER
  2
10
 70
     0
 62
     7
  6
CONTINUOUS
  0
LAYER
  2
11
 70
     0
 62
     7
  6
CONTINUOUS
  0
LAYER
  2
12
 70
     0
 62
     3
  6
CONTINUOUS
  0
LAYER
  2
13
 70
     0
 62
     3
  6
CONTINUOUS
  0
LAYER
  2
14
 70
     0
 62
     7
  6
CONTINUOUS
  0
LAYER
  2
15
 70
     0
 62
     6
  6
CONTINUOUS
  0
LAYER
  2
16
 70
     0
 62
     7
  6
CONTINUOUS
  0
LAYER
  2
17
 70
     0
 62
     7
  6
CONTINUOUS
  0
LAYER
  2
18
 70
     0
 62
     6
  6
CONTINUOUS
  0
LAYER
  2
19
 70
     0
 62
     7
  6
CONTINUOUS
  0
LAYER
  2
20
 70
     0
 62
     7
  6
CONTINUOUS
  0
LAYER
  2
21
 70
     0
 62
     7
  6
CONTINUOUS
  0
LAYER
  2
22
 70
     0
 62
     7
  6
CONTINUOUS
  0
LAYER
  2
23
 70
     0
 62
     7
  6
CONTINUOUS
  0
LAYER
  2
24
 70
     0
 62
     7
  6
CONTINUOUS
  0
LAYER
  2
25
 70
     0
 62
     7
  6
CONTINUOUS
  0
LAYER
  2
26
 70
     0
 62
     7
  6
CONTINUOUS
  0
LAYER
  2
27
 70
     0
 62
     7
  6
CONTINUOUS
  0
LAYER
  2
28
 70
     0
 62
     7
  6
CONTINUOUS
  0
LAYER
  2
29
 70
     0
 62
     7
  6
CONTINUOUS
  0
LAYER
  2
30
 70
     0
 62
     7
  6
CONTINUOUS
  0
LAYER
  2
31
 70
     0
 62
     7
  6
CONTINUOUS
  0
LAYER
  2
32
 70
     0
 62
     7
  6
CONTINUOUS
  0
LAYER
  2
33
 70
     0
 62
     7
  6
CONTINUOUS
  0
LAYER
  2
34
 70
     0
 62
     7
  6
CONTINUOUS
  0
LAYER
  2
35
 70
     0
 62
     7
  6
CONTINUOUS
  0
LAYER
  2
36
 70
     0
 62
     7
  6
CONTINUOUS
  0
LAYER
  2
37
 70
     0
 62
     7
  6
CONTINUOUS
  0
LAYER
  2
38
 70
     0
 62
     7
  6
CONTINUOUS
  0
LAYER
  2
39
 70
     0
 62
     7
  6
CONTINUOUS
  0
LAYER
  2
40
 70
     0
 62
     7
  6
CONTINUOUS
  0
LAYER
  2
41
 70
     0
 62
     7
  6
CONTINUOUS
  0
LAYER
  2
42
 70
     0
 62
     7
  6
CONTINUOUS
  0
LAYER
  2
43
 70
     0
 62
     7
  6
CONTINUOUS
  0
LAYER
  2
44
 70
     0
 62
     7
  6
CONTINUOUS
  0
LAYER
  2
45
 70
     0
 62
     7
  6
CONTINUOUS
  0
LAYER
  2
46
 70
     0
 62
     7
  6
CONTINUOUS
  0
LAYER
  2
47
 70
     0
 62
     7
  6
CONTINUOUS
  0
LAYER
  2
48
 70
     0
 62
     7
  6
CONTINUOUS
  0
LAYER
  2
49
 70
     0
 62
     7
  6
CONTINUOUS
  0
LAYER
  2
50
 70
     0
 62
     7
  6
CONTINUOUS
  0
ENDTAB
  0
ENDSEC
  0
SECTION
  2
BLOCKS
  0
BLOCK
  8
2
  2
ARROW
 70
     0
 10
  0.000000
 20
  0.000000
  0
LINE
  6
CONTINUOUS
  8
2
 10
  0.000000
 20
  0.000000
 11
 -1.000000
 21
  0.166667
  0
LINE
  6
CONTINUOUS
  8
2
 10
 -1.000000
 20
  0.166667
 11
 -1.000000
 21
 -0.166667
  0
LINE
  6
CONTINUOUS
  8
2
 10
 -1.000000
 20
 -0.166667
 11
  0.000000
 21
  0.000000
  0
ENDBLK
  8
2
  0
BLOCK
  8
3
  2
CIRCLE
 70
     0
 10
  0.000000
 20
  0.000000
  0
CIRCLE
  8
1
 10
   0.000
 20
   0.000
 40
   1.000
  0
ENDBLK
  8
3
  0
BLOCK
  8
2
  2
PLATE
 70
     0
 10
  0.000000
 20
  0.000000
  0
CIRCLE
  6
CONTINUOUS
  8
5
 10
  0.000000
 20
-30.000000
 40
  0.100000
  0
LINE
  6
CONTINUOUS
  8
5
 10
 -0.100000
 20
-30.000000
 11
  0.100000
 21
-30.000000
  0
LINE
  6
CONTINUOUS
  8
5
 10
  0.000000
 20
-30.100000
 11
  0.000000
 21
-29.900000
  0
TEXT
  8
5
 10
  0.000000
 20
-30.000000
 40
   0.015
  1
ZERO
 50
   0.000
  0
LINE
  6
CONTINUOUS
  8
3
 10
  0.000000
 20
  0.000000
 11
  0.000000
 21
-60.000000
  0
LINE
  6
CONTINUOUS
  8
3
 10
  0.000000
 20
-60.000000
 11
 500.00000
 21
-60.000000
  0
LINE
  6
CONTINUOUS
  8
3
 10
 500.00000
 20
-60.000000
 11
 500.00000
 21
-15.000000
  0
LINE
  6
CONTINUOUS
  8
3
 10
 500.00000
 20
-15.000000
 11
 485.00000
 21
  0.000000
  0
LINE
  6
CONTINUOUS
  8
3
 10
 485.00000
 20
  0.000000
 11
  0.000000
 21
  0.000000
  0
LINE
  6
CONTINUOUS
  8
6
 10
 -3.333333
 20
-60.000000
 11
-24.166668
 21
-60.000000
  0
LINE
  6
CONTINUOUS
  8
6
 10
 -3.333329
 20
  0.000000
 11
-24.166662
 21
  0.000002
  0
LINE
  6
CONTINUOUS
  8
6
 10
-24.116669
 20
-60.000000
 11
-24.116663
 21
  0.000002
  0
INSERT
  8
6
  2
ARROW
 10
-24.116669
 20
-60.000000
 41
  2.222222
 42
  2.222222
 43
  2.222222
 50
 270.000
  0
INSERT
  8
6
  2
ARROW
 10
-24.116663
 20
  0.000002
 41
  2.222222
 42
  2.222222
 43
  2.222222
 50
  90.000
  0
TEXT
  8
6
 10
-26.338888
 20
-34.444443
 40
   4.444
  1
60
 50
  90.000
  0
LINE
  6
CONTINUOUS
  8
6
 10
  0.000000
 20
  3.333333
 11
  0.000000
 21
 24.166668
  0
LINE
  6
CONTINUOUS
  8
6
 10
 500.00000
 20
  3.333333
 11
 500.00000
 21
 24.166668
  0
LINE
  6
CONTINUOUS
  8
6
 10
  0.000000
 20
 24.116669
 11
 500.00000
 21
 24.116669
  0
INSERT
  8
6
  2
ARROW
 10
  0.000000
 20
 24.116669
 41
  2.222222
 42
  2.222222
 43
  2.222222
 50
 180.000
  0
INSERT
  8
6
  2
ARROW
 10
 500.00000
 20
 24.116669
 41
  2.222222
 42
  2.222222
 43
  2.222222
 50
   0.000
  0
TEXT
  8
6
 10
 243.33333
 20
 26.338890
 40
   4.444
  1
500
 50
   0.000
  0
ENDBLK
  8
2
  0
ENDSEC
  0
SECTION
  2
ENTITIES
  0
LINE
  6
CONTINUOUS
  8
5
 10
  0.000000
 20
  0.000000
 11
 644.44452
 21
  0.000000
  0
LINE
  6
CONTINUOUS
  8
5
 10
 644.44452
 20
  0.000000
 11
 644.44452
 21
 405.55557
  0
LINE
  6
CONTINUOUS
  8
5
 10
 644.44452
 20
 405.55557
 11
  0.000000
 21
 405.55557
  0
LINE
  6
CONTINUOUS
  8
5
 10
  0.000000
 20
 405.55557
 11
  0.000000
 21
  0.000000
  0
TEXT
  8
5
 10
  8.888888
 20
  4.444444
 40
   8.889
  1
YIELD:345.0
 50
   0.000
  0
TEXT
  8
5
 10
  8.888888
 20
 17.777777
 40
   8.889
  1
THICKNESS:6
 50
   0.000
  0
TEXT
  8
5
 10
  8.888888
 20
 31.111109
 40
   8.889
  1
QUANTITY:20
 50
   0.000
  0
TEXT
  8
5
 10
  8.888888
 20
 44.444443
 40
   8.889
  1
DRAWING:ST1
 50
   0.000
  0
TEXT
  8
5
 10
  8.888888
 20
 57.777775
 40
   8.889
  1
MARK:ST1
 50
   0.000
  0
TEXT
  8
5
 10
  8.888888
 20
 71.111107
 40
   8.889
  1
JOB:Q-1467
 50
   0.000
  0
INSERT
  8
2
  2
PLATE
 10
 72.222260
 20
 232.77779
 41
  1.000000
 42
  1.000000
 43
  1.000000
 50
   0.000
  0
ENDSEC
  0
EOF
