999
SOURCE:MBS   PROGRAM:PLT_DXF   CELL:RF_WEB   CLASS:SCALED   MODE:---
  0
SECTION
  2
HEADER
  9
$EXTMIN
 10
          0.000
 20
          0.000
  9
$EXTMAX
 10
       8023.403
 20
       5049.210
  9
$LIMMIN
 10
          0.000
 20
          0.000
  9
$LIMMAX
 10
       8023.403
 20
       5049.210
  9
$FILLMODE
 70
     1
  9
$LTSCALE
 40
  0.125
  9
$HANDLING
 70
     0
  0
ENDSEC
  0
SECTION
  2
TABLES
  0
TABLE
  2
LTYPE
 70
     3
  0
LTYPE
  2
CONTINUOUS
 70
    64
  3
SOLID LINE
 72
    65
 73
     0
 40
0.0
  0
LTYPE
  2
CENTER
 70
    64
  3
____ _ ____ _ ____ _ ____ _ ____ _ ____ _ ____
 72
    65
 73
     4
 40
2.0
 49
1.25
 49
-0.25
 49
0.25
 49
-0.25
  0
LTYPE
  2
DASHED
 70
    64
  3
__ __ __ __ __ __ __ __ __ __ __ __ __ __ __ 
 72
    65
 73
     2
 40
0.75
 49
0.5
 49
-0.25
  0
ENDTAB
  0
TABLE
  2
LAYER
 70
    51
  0
LAYER
  2
0
 70
     0
 62
     7
  6
CONTINUOUS
  0
LAYER
  2
1
 70
     0
 62
     7
  6
CONTINUOUS
  0
LAYER
  2
2
 70
     0
 62
     7
  6
CONTINUOUS
  0
LAYER
  2
3
 70
     0
 62
     1
  6
CONTINUOUS
  0
LAYER
  2
4
 70
     0
 62
     1
  6
CONTINUOUS
  0
LAYER
  2
5
 70
     0
 62
     7
  6
CONTINUOUS
  0
LAYER
  2
6
 70
     0
 62
     6
  6
CONTINUOUS
  0
LAYER
  2
7
 70
     0
 62
     3
  6
CONTINUOUS
  0
LAYER
  2
8
 70
     0
 62
     3
  6
CONTINUOUS
  0
LAYER
  2
9
 70
     0
 62
     7
  6
CONTINUOUS
  0
LAYER
  2
10
 70
     0
 62
     7
  6
CONTINUOUS
  0
LAYER
  2
11
 70
     0
 62
     7
  6
CONTINUOUS
  0
LAYER
  2
12
 70
     0
 62
     3
  6
CONTINUOUS
  0
LAYER
  2
13
 70
     0
 62
     3
  6
CONTINUOUS
  0
LAYER
  2
14
 70
     0
 62
     7
  6
CONTINUOUS
  0
LAYER
  2
15
 70
     0
 62
     6
  6
CONTINUOUS
  0
LAYER
  2
16
 70
     0
 62
     7
  6
CONTINUOUS
  0
LAYER
  2
17
 70
     0
 62
     7
  6
CONTINUOUS
  0
LAYER
  2
18
 70
     0
 62
     6
  6
CONTINUOUS
  0
LAYER
  2
19
 70
     0
 62
     7
  6
CONTINUOUS
  0
LAYER
  2
20
 70
     0
 62
     7
  6
CONTINUOUS
  0
LAYER
  2
21
 70
     0
 62
     7
  6
CONTINUOUS
  0
LAYER
  2
22
 70
     0
 62
     7
  6
CONTINUOUS
  0
LAYER
  2
23
 70
     0
 62
     7
  6
CONTINUOUS
  0
LAYER
  2
24
 70
     0
 62
     7
  6
CONTINUOUS
  0
LAYER
  2
25
 70
     0
 62
     7
  6
CONTINUOUS
  0
LAYER
  2
26
 70
     0
 62
     7
  6
CONTINUOUS
  0
LAYER
  2
27
 70
     0
 62
     7
  6
CONTINUOUS
  0
LAYER
  2
28
 70
     0
 62
     7
  6
CONTINUOUS
  0
LAYER
  2
29
 70
     0
 62
     7
  6
CONTINUOUS
  0
LAYER
  2
30
 70
     0
 62
     7
  6
CONTINUOUS
  0
LAYER
  2
31
 70
     0
 62
     7
  6
CONTINUOUS
  0
LAYER
  2
32
 70
     0
 62
     7
  6
CONTINUOUS
  0
LAYER
  2
33
 70
     0
 62
     7
  6
CONTINUOUS
  0
LAYER
  2
34
 70
     0
 62
     7
  6
CONTINUOUS
  0
LAYER
  2
35
 70
     0
 62
     7
  6
CONTINUOUS
  0
LAYER
  2
36
 70
     0
 62
     7
  6
CONTINUOUS
  0
LAYER
  2
37
 70
     0
 62
     7
  6
CONTINUOUS
  0
LAYER
  2
38
 70
     0
 62
     7
  6
CONTINUOUS
  0
LAYER
  2
39
 70
     0
 62
     7
  6
CONTINUOUS
  0
LAYER
  2
40
 70
     0
 62
     7
  6
CONTINUOUS
  0
LAYER
  2
41
 70
     0
 62
     7
  6
CONTINUOUS
  0
LAYER
  2
42
 70
     0
 62
     7
  6
CONTINUOUS
  0
LAYER
  2
43
 70
     0
 62
     7
  6
CONTINUOUS
  0
LAYER
  2
44
 70
     0
 62
     7
  6
CONTINUOUS
  0
LAYER
  2
45
 70
     0
 62
     7
  6
CONTINUOUS
  0
LAYER
  2
46
 70
     0
 62
     7
  6
CONTINUOUS
  0
LAYER
  2
47
 70
     0
 62
     7
  6
CONTINUOUS
  0
LAYER
  2
48
 70
     0
 62
     7
  6
CONTINUOUS
  0
LAYER
  2
49
 70
     0
 62
     7
  6
CONTINUOUS
  0
LAYER
  2
50
 70
     0
 62
     7
  6
CONTINUOUS
  0
ENDTAB
  0
ENDSEC
  0
SECTION
  2
BLOCKS
  0
BLOCK
  8
2
  2
ARROW
 70
     0
 10
  0.000000
 20
  0.000000
  0
LINE
  6
CONTINUOUS
  8
2
 10
  0.000000
 20
  0.000000
 11
 -1.000000
 21
  0.166667
  0
LINE
  6
CONTINUOUS
  8
2
 10
 -1.000000
 20
  0.166667
 11
 -1.000000
 21
 -0.166667
  0
LINE
  6
CONTINUOUS
  8
2
 10
 -1.000000
 20
 -0.166667
 11
  0.000000
 21
  0.000000
  0
ENDBLK
  8
2
  0
BLOCK
  8
3
  2
CIRCLE
 70
     0
 10
  0.000000
 20
  0.000000
  0
CIRCLE
  8
1
 10
   0.000
 20
   0.000
 40
   1.000
  0
ENDBLK
  8
3
  0
BLOCK
  8
2
  2
PLATE
 70
     0
 10
  0.000000
 20
  0.000000
  0
CIRCLE
  6
CONTINUOUS
  8
5
 10
  0.000015
 20
  0.000000
 40
  0.100000
  0
LINE
  6
CONTINUOUS
  8
5
 10
 -0.099985
 20
  0.000000
 11
  0.100015
 21
  0.000000
  0
LINE
  6
CONTINUOUS
  8
5
 10
  0.000015
 20
 -0.100000
 11
  0.000015
 21
  0.100000
  0
TEXT
  8
5
 10
  0.000015
 20
  0.000000
 40
   0.015
  1
ZERO
 50
   0.000
  0
LINE
  6
CONTINUOUS
  8
3
 10
  0.000015
 20
  0.000000
 11
  0.000000
 21
-250.00000
  0
LINE
  6
CONTINUOUS
  8
3
 10
  0.000000
 20
-250.00000
 11
 6225.0532
 21
-700.00024
  0
LINE
  6
CONTINUOUS
  8
3
 10
 6225.0532
 20
-700.00024
 11
 6225.0532
 21
 -0.000244
  0
LINE
  6
CONTINUOUS
  8
3
 10
 6225.0532
 20
 -0.000244
 11
  0.000015
 21
  0.000000
  0
LINE
  6
CONTINUOUS
  8
4
 10
 263.000016
 20
-63.0000081
 11
 237.000016
 21
-63.0000071
  0
LINE
  6
CONTINUOUS
  8
4
 10
 263.000015
 20
-87.0000081
 11
 237.000015
 21
-87.0000071
  0
ARC
  6
CONTINUOUS
  8
4
 10
 263.000015
 20
-75.0000081
 40
 12.0000000
 50
 -90.000002
 51
  89.999998
  0
ARC
  6
CONTINUOUS
  8
4
 10
 237.000015
 20
-75.0000071
 40
 12.0000000
 50
  89.999998
 51
 -90.000002
  0
LINE
  6
CONTINUOUS
  8
4
 10
 4697.00000
 20
-63.0001836
 11
 4671.00000
 21
-63.0001826
  0
LINE
  6
CONTINUOUS
  8
4
 10
 4697.00000
 20
-87.0001836
 11
 4671.00000
 21
-87.0001826
  0
ARC
  6
CONTINUOUS
  8
4
 10
 4697.00000
 20
-75.0001836
 40
 12.0000000
 50
 -90.000002
 51
  89.999998
  0
ARC
  6
CONTINUOUS
  8
4
 10
 4671.00000
 20
-75.0001826
 40
 12.0000000
 50
  89.999998
 51
 -90.000002
  0
LINE
  6
CONTINUOUS
  8
4
 10
 4997.00000
 20
-63.0001989
 11
 4971.00000
 21
-63.0001979
  0
LINE
  6
CONTINUOUS
  8
4
 10
 4997.00000
 20
-87.0001989
 11
 4971.00000
 21
-87.0001979
  0
ARC
  6
CONTINUOUS
  8
4
 10
 4997.00000
 20
-75.0001989
 40
 12.0000000
 50
 -90.000002
 51
  89.999998
  0
ARC
  6
CONTINUOUS
  8
4
 10
 4971.00000
 20
-75.0001979
 40
 12.0000000
 50
  89.999998
 51
 -90.000002
  0
LINE
  6
CONTINUOUS
  8
6
 10
  0.000000
 20
 41.500359
 11
  0.000000
 21
 300.87759
  0
LINE
  6
CONTINUOUS
  8
6
 10
 6225.0532
 20
 41.500359
 11
 6225.0532
 21
 300.87759
  0
LINE
  6
CONTINUOUS
  8
6
 10
  0.000000
 20
 300.82761
 11
 6225.0532
 21
 300.82761
  0
INSERT
  8
6
  2
ARROW
 10
  0.000000
 20
 300.82761
 41
 27.666903
 42
 27.666903
 43
 27.666903
 50
 180.000
  0
INSERT
  8
6
  2
ARROW
 10
 6225.0532
 20
 300.82761
 41
 27.666903
 42
 27.666903
 43
 27.666903
 50
   0.000
  0
TEXT
  8
6
 10
 3001.8589
 20
 328.49451
 40
  55.334
  1
6225
 50
   0.000
  0
LINE
  6
CONTINUOUS
  8
6
 10
-41.500359
 20
-700.00024
 11
-466.87900
 21
-700.00018
  0
LINE
  6
CONTINUOUS
  8
6
 10
-41.500305
 20
  0.000003
 11
-466.87894
 21
  0.000035
  0
LINE
  6
CONTINUOUS
  8
6
 10
-466.82901
 20
-700.00018
 11
-466.82895
 21
  0.000035
  0
INSERT
  8
6
  2
ARROW
 10
-466.82901
 20
-700.00018
 41
 27.666903
 42
 27.666903
 43
 27.666903
 50
 270.000
  0
INSERT
  8
6
  2
ARROW
 10
-466.82895
 20
  0.000035
 41
 27.666903
 42
 27.666903
 43
 27.666903
 50
  90.000
  0
TEXT
  8
6
 10
-494.49588
 20
-433.00076
 40
  55.334
  1
700
 50
  90.000
  0
LINE
  6
CONTINUOUS
  8
6
 10
-41.500359
 20
-250.00000
 11
-300.87759
 21
-249.99998
  0
LINE
  6
CONTINUOUS
  8
6
 10
-41.500340
 20
  0.000003
 11
-300.87756
 21
  0.000023
  0
LINE
  6
CONTINUOUS
  8
6
 10
-300.82761
 20
-249.99998
 11
-300.82758
 21
  0.000023
  0
INSERT
  8
6
  2
ARROW
 10
-300.82761
 20
-249.99998
 41
 27.666903
 42
 27.666903
 43
 27.666903
 50
 270.000
  0
INSERT
  8
6
  2
ARROW
 10
-300.82758
 20
  0.000023
 41
 27.666903
 42
 27.666903
 43
 27.666903
 50
  90.000
  0
TEXT
  8
6
 10
-328.49451
 20
-208.00069
 40
  55.334
  1
250
 50
  90.000
  0
LINE
  6
CONTINUOUS
  8
6
 10
 6266.5537
 20
-700.00024
 11
 6525.9312
 21
-700.00024
  0
LINE
  6
CONTINUOUS
  8
6
 10
 6266.5537
 20
 -0.000247
 11
 6525.9312
 21
 -0.000267
  0
LINE
  6
CONTINUOUS
  8
6
 10
 6525.8813
 20
-700.00024
 11
 6525.8813
 21
 -0.000267
  0
INSERT
  8
6
  2
ARROW
 10
 6525.8813
 20
-700.00024
 41
 27.666903
 42
 27.666903
 43
 27.666903
 50
 270.000
  0
INSERT
  8
6
  2
ARROW
 10
 6525.8813
 20
 -0.000267
 41
 27.666903
 42
 27.666903
 43
 27.666903
 50
  90.000
  0
TEXT
  8
6
 10
 6498.2144
 20
-433.00095
 40
  55.334
  1
700
 50
  90.000
  0
ENDBLK
  8
2
  0
ENDSEC
  0
SECTION
  2
ENTITIES
  0
LINE
  6
CONTINUOUS
  8
5
 10
  0.000000
 20
  0.000000
 11
 8023.4028
 21
  0.000000
  0
LINE
  6
CONTINUOUS
  8
5
 10
 8023.4028
 20
  0.000000
 11
 8023.4028
 21
 5049.2104
  0
LINE
  6
CONTINUOUS
  8
5
 10
 8023.4028
 20
 5049.2104
 11
  0.000000
 21
 5049.2104
  0
LINE
  6
CONTINUOUS
  8
5
 10
  0.000000
 20
 5049.2104
 11
  0.000000
 21
  0.000000
  0
TEXT
  8
5
 10
 110.66761
 20
 55.333805
 40
 110.668
  1
YIELD:345.0
 50
   0.000
  0
TEXT
  8
5
 10
 110.66761
 20
 221.33522
 40
 110.668
  1
THICKNESS:5
 50
   0.000
  0
TEXT
  8
5
 10
 110.66761
 20
 387.33664
 40
 110.668
  1
QUANTITY:10
 50
   0.000
  0
TEXT
  8
5
 10
 110.66761
 20
 553.33807
 40
 110.668
  1
DRAWING:WB1
 50
   0.000
  0
TEXT
  8
5
 10
 110.66761
 20
 719.33948
 40
 110.668
  1
MARK:WB1
 50
   0.000
  0
TEXT
  8
5
 10
 110.66761
 20
 885.34088
 40
 110.668
  1
JOB:Q-1467
 50
   0.000
  0
INSERT
  8
2
  2
PLATE
 10
 899.17480
 20
 2874.6055
 41
  1.000000
 42
  1.000000
 43
  1.000000
 50
   0.000
  0
ENDSEC
  0
EOF
