999
SOURCE:MBS   PROGRAM:PLT_DXF   CELL:RF_WEB   CLASS:SCALED   MODE:---
  0
SECTION
  2
HEADER
  9
$EXTMIN
 10
          0.000
 20
          0.000
  9
$EXTMAX
 10
       6049.785
 20
       3807.192
  9
$LIMMIN
 10
          0.000
 20
          0.000
  9
$LIMMAX
 10
       6049.785
 20
       3807.192
  9
$FILLMODE
 70
     1
  9
$LTSCALE
 40
  0.125
  9
$HANDLING
 70
     0
  0
ENDSEC
  0
SECTION
  2
TABLES
  0
TABLE
  2
LTYPE
 70
     3
  0
LTYPE
  2
CONTINUOUS
 70
    64
  3
SOLID LINE
 72
    65
 73
     0
 40
0.0
  0
LTYPE
  2
CENTER
 70
    64
  3
____ _ ____ _ ____ _ ____ _ ____ _ ____ _ ____
 72
    65
 73
     4
 40
2.0
 49
1.25
 49
-0.25
 49
0.25
 49
-0.25
  0
LTYPE
  2
DASHED
 70
    64
  3
__ __ __ __ __ __ __ __ __ __ __ __ __ __ __ 
 72
    65
 73
     2
 40
0.75
 49
0.5
 49
-0.25
  0
ENDTAB
  0
TABLE
  2
LAYER
 70
    51
  0
LAYER
  2
0
 70
     0
 62
     7
  6
CONTINUOUS
  0
LAYER
  2
1
 70
     0
 62
     7
  6
CONTINUOUS
  0
LAYER
  2
2
 70
     0
 62
     7
  6
CONTINUOUS
  0
LAYER
  2
3
 70
     0
 62
     1
  6
CONTINUOUS
  0
LAYER
  2
4
 70
     0
 62
     1
  6
CONTINUOUS
  0
LAYER
  2
5
 70
     0
 62
     7
  6
CONTINUOUS
  0
LAYER
  2
6
 70
     0
 62
     6
  6
CONTINUOUS
  0
LAYER
  2
7
 70
     0
 62
     3
  6
CONTINUOUS
  0
LAYER
  2
8
 70
     0
 62
     3
  6
CONTINUOUS
  0
LAYER
  2
9
 70
     0
 62
     7
  6
CONTINUOUS
  0
LAYER
  2
10
 70
     0
 62
     7
  6
CONTINUOUS
  0
LAYER
  2
11
 70
     0
 62
     7
  6
CONTINUOUS
  0
LAYER
  2
12
 70
     0
 62
     3
  6
CONTINUOUS
  0
LAYER
  2
13
 70
     0
 62
     3
  6
CONTINUOUS
  0
LAYER
  2
14
 70
     0
 62
     7
  6
CONTINUOUS
  0
LAYER
  2
15
 70
     0
 62
     6
  6
CONTINUOUS
  0
LAYER
  2
16
 70
     0
 62
     7
  6
CONTINUOUS
  0
LAYER
  2
17
 70
     0
 62
     7
  6
CONTINUOUS
  0
LAYER
  2
18
 70
     0
 62
     6
  6
CONTINUOUS
  0
LAYER
  2
19
 70
     0
 62
     7
  6
CONTINUOUS
  0
LAYER
  2
20
 70
     0
 62
     7
  6
CONTINUOUS
  0
LAYER
  2
21
 70
     0
 62
     7
  6
CONTINUOUS
  0
LAYER
  2
22
 70
     0
 62
     7
  6
CONTINUOUS
  0
LAYER
  2
23
 70
     0
 62
     7
  6
CONTINUOUS
  0
LAYER
  2
24
 70
     0
 62
     7
  6
CONTINUOUS
  0
LAYER
  2
25
 70
     0
 62
     7
  6
CONTINUOUS
  0
LAYER
  2
26
 70
     0
 62
     7
  6
CONTINUOUS
  0
LAYER
  2
27
 70
     0
 62
     7
  6
CONTINUOUS
  0
LAYER
  2
28
 70
     0
 62
     7
  6
CONTINUOUS
  0
LAYER
  2
29
 70
     0
 62
     7
  6
CONTINUOUS
  0
LAYER
  2
30
 70
     0
 62
     7
  6
CONTINUOUS
  0
LAYER
  2
31
 70
     0
 62
     7
  6
CONTINUOUS
  0
LAYER
  2
32
 70
     0
 62
     7
  6
CONTINUOUS
  0
LAYER
  2
33
 70
     0
 62
     7
  6
CONTINUOUS
  0
LAYER
  2
34
 70
     0
 62
     7
  6
CONTINUOUS
  0
LAYER
  2
35
 70
     0
 62
     7
  6
CONTINUOUS
  0
LAYER
  2
36
 70
     0
 62
     7
  6
CONTINUOUS
  0
LAYER
  2
37
 70
     0
 62
     7
  6
CONTINUOUS
  0
LAYER
  2
38
 70
     0
 62
     7
  6
CONTINUOUS
  0
LAYER
  2
39
 70
     0
 62
     7
  6
CONTINUOUS
  0
LAYER
  2
40
 70
     0
 62
     7
  6
CONTINUOUS
  0
LAYER
  2
41
 70
     0
 62
     7
  6
CONTINUOUS
  0
LAYER
  2
42
 70
     0
 62
     7
  6
CONTINUOUS
  0
LAYER
  2
43
 70
     0
 62
     7
  6
CONTINUOUS
  0
LAYER
  2
44
 70
     0
 62
     7
  6
CONTINUOUS
  0
LAYER
  2
45
 70
     0
 62
     7
  6
CONTINUOUS
  0
LAYER
  2
46
 70
     0
 62
     7
  6
CONTINUOUS
  0
LAYER
  2
47
 70
     0
 62
     7
  6
CONTINUOUS
  0
LAYER
  2
48
 70
     0
 62
     7
  6
CONTINUOUS
  0
LAYER
  2
49
 70
     0
 62
     7
  6
CONTINUOUS
  0
LAYER
  2
50
 70
     0
 62
     7
  6
CONTINUOUS
  0
ENDTAB
  0
ENDSEC
  0
SECTION
  2
BLOCKS
  0
BLOCK
  8
2
  2
ARROW
 70
     0
 10
  0.000000
 20
  0.000000
  0
LINE
  6
CONTINUOUS
  8
2
 10
  0.000000
 20
  0.000000
 11
 -1.000000
 21
  0.166667
  0
LINE
  6
CONTINUOUS
  8
2
 10
 -1.000000
 20
  0.166667
 11
 -1.000000
 21
 -0.166667
  0
LINE
  6
CONTINUOUS
  8
2
 10
 -1.000000
 20
 -0.166667
 11
  0.000000
 21
  0.000000
  0
ENDBLK
  8
2
  0
BLOCK
  8
3
  2
CIRCLE
 70
     0
 10
  0.000000
 20
  0.000000
  0
CIRCLE
  8
1
 10
   0.000
 20
   0.000
 40
   1.000
  0
ENDBLK
  8
3
  0
BLOCK
  8
2
  2
PLATE
 70
     0
 10
  0.000000
 20
  0.000000
  0
CIRCLE
  6
CONTINUOUS
  8
5
 10
  0.001044
 20
  0.000000
 40
  0.100000
  0
LINE
  6
CONTINUOUS
  8
5
 10
 -0.098956
 20
  0.000000
 11
  0.101044
 21
  0.000000
  0
LINE
  6
CONTINUOUS
  8
5
 10
  0.001044
 20
 -0.100000
 11
  0.001044
 21
  0.100000
  0
TEXT
  8
5
 10
  0.001044
 20
  0.000000
 40
   0.015
  1
ZERO
 50
   0.000
  0
LINE
  6
CONTINUOUS
  8
3
 10
  0.001044
 20
  0.000000
 11
  0.000000
 21
-350.68359
  0
LINE
  6
CONTINUOUS
  8
3
 10
  0.000000
 20
-350.68359
 11
 4693.7983
 21
-551.21680
  0
LINE
  6
CONTINUOUS
  8
3
 10
 4693.7983
 20
-551.21680
 11
 4693.7974
 21
  0.000000
  0
LINE
  6
CONTINUOUS
  8
3
 10
 4693.7974
 20
  0.000000
 11
  0.001044
 21
  0.000000
  0
LINE
  6
CONTINUOUS
  8
6
 10
  0.000000
 20
 31.291988
 11
  0.000000
 21
 226.86693
  0
LINE
  6
CONTINUOUS
  8
6
 10
 4693.7983
 20
 31.291988
 11
 4693.7983
 21
 226.86693
  0
LINE
  6
CONTINUOUS
  8
6
 10
  0.000000
 20
 226.81693
 11
 4693.7983
 21
 226.81693
  0
INSERT
  8
6
  2
ARROW
 10
  0.000000
 20
 226.81693
 41
 20.861324
 42
 20.861324
 43
 20.861324
 50
 180.000
  0
INSERT
  8
6
  2
ARROW
 10
 4693.7983
 20
 226.81693
 41
 20.861324
 42
 20.861324
 43
 20.861324
 50
   0.000
  0
TEXT
  8
6
 10
 2263.4539
 20
 247.67825
 40
  41.723
  1
4694
 50
   0.000
  0
LINE
  6
CONTINUOUS
  8
6
 10
-31.291988
 20
-551.21680
 11
-352.03488
 21
-551.21680
  0
LINE
  6
CONTINUOUS
  8
6
 10
-31.291946
 20
  0.000002
 11
-352.03485
 21
  0.000027
  0
LINE
  6
CONTINUOUS
  8
6
 10
-351.98489
 20
-551.21680
 11
-351.98486
 21
  0.000027
  0
INSERT
  8
6
  2
ARROW
 10
-351.98489
 20
-551.21680
 41
 20.861324
 42
 20.861324
 43
 20.861324
 50
 270.000
  0
INSERT
  8
6
  2
ARROW
 10
-351.98486
 20
  0.000027
 41
 20.861324
 42
 20.861324
 43
 20.861324
 50
  90.000
  0
TEXT
  8
6
 10
-372.84619
 20
-332.97702
 40
  41.723
  1
551
 50
  90.000
  0
LINE
  6
CONTINUOUS
  8
6
 10
-31.291988
 20
-350.68359
 11
-226.86693
 21
-350.68359
  0
LINE
  6
CONTINUOUS
  8
6
 10
-31.291962
 20
  0.000002
 11
-226.86690
 21
  0.000017
  0
LINE
  6
CONTINUOUS
  8
6
 10
-226.81693
 20
-350.68359
 11
-226.81689
 21
  0.000017
  0
INSERT
  8
6
  2
ARROW
 10
-226.81693
 20
-350.68359
 41
 20.861324
 42
 20.861324
 43
 20.861324
 50
 270.000
  0
INSERT
  8
6
  2
ARROW
 10
-226.81689
 20
  0.000017
 41
 20.861324
 42
 20.861324
 43
 20.861324
 50
  90.000
  0
TEXT
  8
6
 10
-247.67824
 20
-232.71043
 40
  41.723
  1
351
 50
  90.000
  0
LINE
  6
CONTINUOUS
  8
6
 10
 4725.0903
 20
-551.21680
 11
 4920.6650
 21
-551.21680
  0
LINE
  6
CONTINUOUS
  8
6
 10
 4725.0903
 20
 -0.000002
 11
 4920.6650
 21
 -0.000017
  0
LINE
  6
CONTINUOUS
  8
6
 10
 4920.6152
 20
-551.21680
 11
 4920.6152
 21
 -0.000017
  0
INSERT
  8
6
  2
ARROW
 10
 4920.6152
 20
-551.21680
 41
 20.861324
 42
 20.861324
 43
 20.861324
 50
 270.000
  0
INSERT
  8
6
  2
ARROW
 10
 4920.6152
 20
 -0.000017
 41
 20.861324
 42
 20.861324
 43
 20.861324
 50
  90.000
  0
TEXT
  8
6
 10
 4899.7539
 20
-332.97702
 40
  41.723
  1
551
 50
  90.000
  0
ENDBLK
  8
2
  0
ENDSEC
  0
SECTION
  2
ENTITIES
  0
LINE
  6
CONTINUOUS
  8
5
 10
  0.000000
 20
  0.000000
 11
 6049.7847
 21
  0.000000
  0
LINE
  6
CONTINUOUS
  8
5
 10
 6049.7847
 20
  0.000000
 11
 6049.7847
 21
 3807.1919
  0
LINE
  6
CONTINUOUS
  8
5
 10
 6049.7847
 20
 3807.1919
 11
  0.000000
 21
 3807.1919
  0
LINE
  6
CONTINUOUS
  8
5
 10
  0.000000
 20
 3807.1919
 11
  0.000000
 21
  0.000000
  0
TEXT
  8
5
 10
 83.445297
 20
 41.722649
 40
  83.445
  1
YIELD:345.0
 50
   0.000
  0
TEXT
  8
5
 10
 83.445297
 20
 166.89059
 40
  83.445
  1
THICKNESS:4
 50
   0.000
  0
TEXT
  8
5
 10
 83.445297
 20
 292.05853
 40
  83.445
  1
QUANTITY:6
 50
   0.000
  0
TEXT
  8
5
 10
 83.445297
 20
 417.22647
 40
  83.445
  1
DRAWING:WB4
 50
   0.000
  0
TEXT
  8
5
 10
 83.445297
 20
 542.39441
 40
  83.445
  1
MARK:WB4
 50
   0.000
  0
TEXT
  8
5
 10
 83.445297
 20
 667.56238
 40
  83.445
  1
JOB:Q-1467
 50
   0.000
  0
INSERT
  8
2
  2
PLATE
 10
 677.99310
 20
 2179.2043
 41
  1.000000
 42
  1.000000
 43
  1.000000
 50
   0.000
  0
ENDSEC
  0
EOF
