999
SOURCE:MBS   PROGRAM:PLT_DXF   CELL:CWI_FLG   CLASS:SCALED   MODE:---
  0
SECTION
  2
HEADER
  9
$EXTMIN
 10
          0.000
 20
          0.000
  9
$EXTMAX
 10
      10458.045
 20
       6581.355
  9
$LIMMIN
 10
          0.000
 20
          0.000
  9
$LIMMAX
 10
      10458.045
 20
       6581.355
  9
$FILLMODE
 70
     1
  9
$LTSCALE
 40
  0.125
  9
$HANDLING
 70
     0
  0
ENDSEC
  0
SECTION
  2
TABLES
  0
TABLE
  2
LTYPE
 70
     3
  0
LTYPE
  2
CONTINUOUS
 70
    64
  3
SOLID LINE
 72
    65
 73
     0
 40
0.0
  0
LTYPE
  2
CENTER
 70
    64
  3
____ _ ____ _ ____ _ ____ _ ____ _ ____ _ ____
 72
    65
 73
     4
 40
2.0
 49
1.25
 49
-0.25
 49
0.25
 49
-0.25
  0
LTYPE
  2
DASHED
 70
    64
  3
__ __ __ __ __ __ __ __ __ __ __ __ __ __ __ 
 72
    65
 73
     2
 40
0.75
 49
0.5
 49
-0.25
  0
ENDTAB
  0
TABLE
  2
LAYER
 70
    51
  0
LAYER
  2
0
 70
     0
 62
     7
  6
CONTINUOUS
  0
LAYER
  2
1
 70
     0
 62
     7
  6
CONTINUOUS
  0
LAYER
  2
2
 70
     0
 62
     7
  6
CONTINUOUS
  0
LAYER
  2
3
 70
     0
 62
     1
  6
CONTINUOUS
  0
LAYER
  2
4
 70
     0
 62
     1
  6
CONTINUOUS
  0
LAYER
  2
5
 70
     0
 62
     7
  6
CONTINUOUS
  0
LAYER
  2
6
 70
     0
 62
     4
  6
CONTINUOUS
  0
LAYER
  2
7
 70
     0
 62
     3
  6
CONTINUOUS
  0
LAYER
  2
8
 70
     0
 62
     3
  6
CONTINUOUS
  0
LAYER
  2
9
 70
     0
 62
     7
  6
CONTINUOUS
  0
LAYER
  2
10
 70
     0
 62
     7
  6
CONTINUOUS
  0
LAYER
  2
11
 70
     0
 62
     7
  6
CONTINUOUS
  0
LAYER
  2
12
 70
     0
 62
     2
  6
CONTINUOUS
  0
LAYER
  2
13
 70
     0
 62
     2
  6
CONTINUOUS
  0
LAYER
  2
14
 70
     0
 62
     7
  6
CONTINUOUS
  0
LAYER
  2
15
 70
     0
 62
     6
  6
CONTINUOUS
  0
LAYER
  2
16
 70
     0
 62
     7
  6
CONTINUOUS
  0
LAYER
  2
17
 70
     0
 62
     7
  6
CONTINUOUS
  0
LAYER
  2
18
 70
     0
 62
     4
  6
CONTINUOUS
  0
LAYER
  2
19
 70
     0
 62
     7
  6
CONTINUOUS
  0
LAYER
  2
20
 70
     0
 62
     7
  6
CONTINUOUS
  0
LAYER
  2
21
 70
     0
 62
     7
  6
CONTINUOUS
  0
LAYER
  2
22
 70
     0
 62
     7
  6
CONTINUOUS
  0
LAYER
  2
23
 70
     0
 62
     7
  6
CONTINUOUS
  0
LAYER
  2
24
 70
     0
 62
     7
  6
CONTINUOUS
  0
LAYER
  2
25
 70
     0
 62
     7
  6
CONTINUOUS
  0
LAYER
  2
26
 70
     0
 62
     7
  6
CONTINUOUS
  0
LAYER
  2
27
 70
     0
 62
     7
  6
CONTINUOUS
  0
LAYER
  2
28
 70
     0
 62
     7
  6
CONTINUOUS
  0
LAYER
  2
29
 70
     0
 62
     7
  6
CONTINUOUS
  0
LAYER
  2
30
 70
     0
 62
     7
  6
CONTINUOUS
  0
LAYER
  2
31
 70
     0
 62
     7
  6
CONTINUOUS
  0
LAYER
  2
32
 70
     0
 62
     7
  6
CONTINUOUS
  0
LAYER
  2
33
 70
     0
 62
     7
  6
CONTINUOUS
  0
LAYER
  2
34
 70
     0
 62
     7
  6
CONTINUOUS
  0
LAYER
  2
35
 70
     0
 62
     7
  6
CONTINUOUS
  0
LAYER
  2
36
 70
     0
 62
     7
  6
CONTINUOUS
  0
LAYER
  2
37
 70
     0
 62
     7
  6
CONTINUOUS
  0
LAYER
  2
38
 70
     0
 62
     7
  6
CONTINUOUS
  0
LAYER
  2
39
 70
     0
 62
     7
  6
CONTINUOUS
  0
LAYER
  2
40
 70
     0
 62
     7
  6
CONTINUOUS
  0
LAYER
  2
41
 70
     0
 62
     7
  6
CONTINUOUS
  0
LAYER
  2
42
 70
     0
 62
     7
  6
CONTINUOUS
  0
LAYER
  2
43
 70
     0
 62
     7
  6
CONTINUOUS
  0
LAYER
  2
44
 70
     0
 62
     7
  6
CONTINUOUS
  0
LAYER
  2
45
 70
     0
 62
     7
  6
CONTINUOUS
  0
LAYER
  2
46
 70
     0
 62
     7
  6
CONTINUOUS
  0
LAYER
  2
47
 70
     0
 62
     7
  6
CONTINUOUS
  0
LAYER
  2
48
 70
     0
 62
     7
  6
CONTINUOUS
  0
LAYER
  2
49
 70
     0
 62
     7
  6
CONTINUOUS
  0
LAYER
  2
50
 70
     0
 62
     7
  6
CONTINUOUS
  0
ENDTAB
  0
ENDSEC
  0
SECTION
  2
BLOCKS
  0
BLOCK
  8
2
  2
ARROW
 70
     0
 10
  0.000000
 20
  0.000000
  0
LINE
  6
CONTINUOUS
  8
2
 10
  0.000000
 20
  0.000000
 11
 -1.000000
 21
  0.166667
  0
LINE
  6
CONTINUOUS
  8
2
 10
 -1.000000
 20
  0.166667
 11
 -1.000000
 21
 -0.166667
  0
LINE
  6
CONTINUOUS
  8
2
 10
 -1.000000
 20
 -0.166667
 11
  0.000000
 21
  0.000000
  0
ENDBLK
  8
2
  0
BLOCK
  8
3
  2
CIRCLE
 70
     0
 10
  0.000000
 20
  0.000000
  0
CIRCLE
  8
1
 10
   0.000
 20
   0.000
 40
   1.000
  0
ENDBLK
  8
3
  0
BLOCK
  8
2
  2
PLATE
 70
     0
 10
  0.000000
 20
  0.000000
  0
CIRCLE
  6
CONTINUOUS
  8
5
 10
  0.000000
 20
-100.00000
 40
  0.100000
  0
LINE
  6
CONTINUOUS
  8
5
 10
 -0.100000
 20
-100.00000
 11
  0.100000
 21
-100.00000
  0
LINE
  6
CONTINUOUS
  8
5
 10
  0.000000
 20
-100.10000
 11
  0.000000
 21
-99.900002
  0
TEXT
  8
5
 10
  0.000000
 20
-100.00000
 40
   0.015
  1
ZERO
 50
   0.000
  0
LINE
  6
CONTINUOUS
  8
3
 10
  0.000000
 20
  0.000000
 11
  0.000000
 21
-200.00000
  0
LINE
  6
CONTINUOUS
  8
3
 10
  0.000000
 20
-200.00000
 11
 8114.0000
 21
-200.00000
  0
LINE
  6
CONTINUOUS
  8
3
 10
 8114.0000
 20
-200.00000
 11
 8114.0000
 21
  0.000000
  0
LINE
  6
CONTINUOUS
  8
3
 10
 8114.0000
 20
  0.000000
 11
  0.000000
 21
  0.000000
  0
LINE
  6
CONTINUOUS
  8
6
 10
-54.093334
 20
-200.00000
 11
-392.17667
 21
-199.99997
  0
LINE
  6
CONTINUOUS
  8
6
 10
-54.093319
 20
  0.000004
 11
-392.17667
 21
  0.000030
  0
LINE
  6
CONTINUOUS
  8
6
 10
-392.12668
 20
-199.99997
 11
-392.12668
 21
  0.000030
  0
INSERT
  8
6
  2
ARROW
 10
-392.12668
 20
-199.99997
 41
 36.062222
 42
 36.062222
 43
 36.062222
 50
 270.000
  0
INSERT
  8
6
  2
ARROW
 10
-392.12668
 20
  0.000030
 41
 36.062222
 42
 36.062222
 43
 36.062222
 50
  90.000
  0
TEXT
  8
6
 10
-428.18890
 20
-199.99997
 40
  66.667
  1
200
 50
  90.000
  0
LINE
  6
CONTINUOUS
  8
6
 10
  0.000000
 20
 54.093334
 11
  0.000000
 21
 392.17667
  0
LINE
  6
CONTINUOUS
  8
6
 10
 8114.0000
 20
 54.093334
 11
 8114.0000
 21
 392.17667
  0
LINE
  6
CONTINUOUS
  8
6
 10
  0.000000
 20
 392.12668
 11
 8114.0000
 21
 392.12668
  0
INSERT
  8
6
  2
ARROW
 10
  0.000000
 20
 392.12668
 41
 36.062222
 42
 36.062222
 43
 36.062222
 50
 180.000
  0
INSERT
  8
6
  2
ARROW
 10
 8114.0000
 20
 392.12668
 41
 36.062222
 42
 36.062222
 43
 36.062222
 50
   0.000
  0
TEXT
  8
6
 10
 3930.7822
 20
 428.18890
 40
  72.124
  1
8114
 50
   0.000
  0
ENDBLK
  8
2
  0
ENDSEC
  0
SECTION
  2
ENTITIES
  0
LINE
  6
CONTINUOUS
  8
5
 10
  0.000000
 20
  0.000000
 11
 10458.045
 21
  0.000000
  0
LINE
  6
CONTINUOUS
  8
5
 10
 10458.045
 20
  0.000000
 11
 10458.045
 21
 6581.3555
  0
LINE
  6
CONTINUOUS
  8
5
 10
 10458.045
 20
 6581.3555
 11
  0.000000
 21
 6581.3555
  0
LINE
  6
CONTINUOUS
  8
5
 10
  0.000000
 20
 6581.3555
 11
  0.000000
 21
  0.000000
  0
TEXT
  8
5
 10
 144.24889
 20
 72.124443
 40
 144.249
  1
YIELD:345.0
 50
   0.000
  0
TEXT
  8
5
 10
 144.24889
 20
 288.49777
 40
 144.249
  1
THICKNESS:8
 50
   0.000
  0
TEXT
  8
5
 10
 144.24889
 20
 504.87109
 40
 144.249
  1
QUANTITY:1
 50
   0.000
  0
TEXT
  8
5
 10
 144.24889
 20
 721.24445
 40
 144.249
  1
DRAWING:OFE2
 50
   0.000
  0
TEXT
  8
5
 10
 144.24889
 20
 937.61780
 40
 144.249
  1
MARK:OFE2
 50
   0.000
  0
TEXT
  8
5
 10
 144.24889
 20
 1153.9911
 40
 144.249
  1
JOB:C463-002
 50
   0.000
  0
INSERT
  8
2
  2
PLATE
 10
 1172.0225
 20
 3390.6777
 41
  1.000000
 42
  1.000000
 43
  1.000000
 50
   0.000
  0
ENDSEC
  0
EOF
