  0
SECTION
  2
HEADER
  9
$ACADVER
  1
AC1009
  9
$EXTMIN
 10
 -1522.329
 20
  -548.404
  9
$EXTMAX
 10
 13722.328
 20
 10885.089
  9
$LIMMIN
 10
 -1522.329
 20
  -548.404
  9
$LIMMAX
 10
 13722.328
 20
 10885.089
  9
$FILLMODE
 70
     1
  9
$HANDLING
 70
     0
  0
ENDSEC
  0
SECTION
  2
TABLES
  0
TABLE
  2
LTYPE
 70
1
  0
LTYPE
  2
CONTIN
 70
    64
  3
SOLID LINE
 72
    65
 73
     0
 40
0.0
  0
LTYPE
  2
CONTINUOUS
 70
    64
  3
SOLID LINE
 72
    65
 73
     0
 40
0.0
  0
LTYPE
  2
CENTER
 70
    64
  3
____ _ ____ _ ____ _ ____ _ ____ _ ____ _ ____
 72
    65
 73
     4
 40
    27.085
 49
    16.928
 49
    -3.386
 49
     3.386
 49
    -3.386
  0
LTYPE
  2
DASHED
 70
    64
  3
__ __ __ __ __ __ __ __ __ __ __ __ __ __ __ 
 72
    65
 73
     2
 40
   182.93
 49
   121.95
 49
   -60.97
  0
ENDTAB
  0
TABLE
  2
LAYER
 70
30
  0
LAYER
  2
0
 70
     0
 62
     7
  6
CONTIN
  0
LAYER
  2
1
 70
     0
 62
     7
  6
CONTIN
  0
LAYER
  2
2
 70
     0
 62
     7
  6
CONTIN
  0
LAYER
  2
3
 70
     0
 62
     7
  6
CONTIN
  0
LAYER
  2
4
 70
     0
 62
     5
  6
CONTIN
  0
LAYER
  2
5
 70
     0
 62
     5
  6
DASHED
  0
LAYER
  2
6
 70
     0
 62
     5
  6
DASHED
  0
LAYER
  2
7
 70
     0
 62
     5
  6
CONTIN
  0
LAYER
  2
8
 70
     0
 62
     5
  6
DASHED
  0
LAYER
  2
9
 70
     0
 62
     7
  6
CONTIN
  0
LAYER
  2
10
 70
     0
 62
     7
  6
CONTIN
  0
LAYER
  2
11
 70
     0
 62
     6
  6
DASHED
  0
LAYER
  2
12
 70
     0
 62
     7
  6
DASHED
  0
LAYER
  2
13
 70
     0
 62
     5
  6
DASHED
  0
LAYER
  2
14
 70
     0
 62
     7
  6
CONTIN
  0
LAYER
  2
15
 70
     0
 62
     5
  6
CONTIN
  0
LAYER
  2
16
 70
     0
 62
     7
  6
CONTIN
  0
LAYER
  2
17
 70
     0
 62
     7
  6
CONTIN
  0
LAYER
  2
18
 70
     0
 62
     7
  6
CONTIN
  0
LAYER
  2
19
 70
     0
 62
     7
  6
CONTIN
  0
LAYER
  2
20
 70
     0
 62
     1
  6
CONTIN
  0
LAYER
  2
21
 70
     0
 62
     7
  6
CONTIN
  0
LAYER
  2
22
 70
     0
 62
     7
  6
DASHED
  0
LAYER
  2
23
 70
     0
 62
     7
  6
DASHED
  0
LAYER
  2
24
 70
     0
 62
     7
  6
CONTIN
  0
LAYER
  2
25
 70
     0
 62
     7
  6
CONTIN
  0
LAYER
  2
26
 70
     0
 62
     7
  6
CONTIN
  0
LAYER
  2
27
 70
     0
 62
     1
  6
CENTER
  0
LAYER
  2
28
 70
     0
 62
     7
  6
CONTIN
  0
LAYER
  2
29
 70
     0
 62
     3
  6
DASHED
  0
ENDTAB
  0
TABLE
  2
STYLE
 70
  0
  0
ENDTAB
  0
ENDSEC
  0
SECTION
  2
ENTITIES
  0
LINE
  8
5
 10
  1450.366
 20
  9745.037
 11
  1470.267
 21
  9546.029
  0
LINE
  8
5
 10
  2900.732
 20
  9890.073
 11
  2920.633
 21
  9691.066
  0
LINE
  8
5
 10
  4351.098
 20
 10035.110
 11
  4370.999
 21
  9836.104
  0
LINE
  8
5
 10
  5801.464
 20
 10180.146
 11
  5821.365
 21
  9981.140
  0
LINE
  8
5
 10
  6398.511
 20
 10180.148
 11
  6378.610
 21
  9981.141
  0
LINE
  8
5
 10
  7848.877
 20
 10035.112
 11
  7828.976
 21
  9836.104
  0
LINE
  8
5
 10
  9299.243
 20
  9890.075
 11
  9279.342
 21
  9691.068
  0
LINE
  8
5
 10
 10749.609
 20
  9745.038
 11
 10729.708
 21
  9546.031
  0
LINE
  8
5
 10
   571.500
 20
  3080.000
 11
   635.000
 21
  3080.000
  0
LINE
  8
5
 10
   571.500
 20
  6080.000
 11
   635.000
 21
  6080.000
  0
LINE
  8
5
 10
   571.500
 20
  3080.000
 11
   635.000
 21
  3080.000
  0
LINE
  8
5
 10
   571.500
 20
  6080.000
 11
   635.000
 21
  6080.000
  0
LINE
  8
5
 10
  1497.888
 20
  9269.813
 11
  1504.207
 21
  9206.629
  0
LINE
  8
5
 10
  4393.204
 20
  9614.052
 11
  4399.522
 21
  9550.867
  0
LINE
  8
5
 10
  5840.862
 20
  9786.171
 11
  5847.181
 21
  9722.986
  0
LINE
  8
5
 10
  1497.888
 20
  9269.813
 11
  1504.207
 21
  9206.629
  0
LINE
  8
5
 10
  4393.204
 20
  9614.052
 11
  4399.522
 21
  9550.867
  0
LINE
  8
5
 10
  5840.862
 20
  9786.171
 11
  5847.181
 21
  9722.986
  0
LINE
  8
5
 10
  6359.114
 20
  9786.173
 11
  6352.795
 21
  9722.988
  0
LINE
  8
5
 10
  7806.771
 20
  9614.055
 11
  7800.453
 21
  9550.870
  0
LINE
  8
5
 10
 10702.088
 20
  9269.817
 11
 10695.770
 21
  9206.633
  0
LINE
  8
5
 10
  6359.114
 20
  9786.173
 11
  6352.795
 21
  9722.988
  0
LINE
  8
5
 10
  7806.771
 20
  9614.055
 11
  7800.453
 21
  9550.870
  0
LINE
  8
5
 10
 10702.088
 20
  9269.817
 11
 10695.770
 21
  9206.633
  0
LINE
  8
5
 10
 11628.499
 20
  3080.000
 11
 11564.999
 21
  3080.000
  0
LINE
  8
5
 10
 11628.499
 20
  6080.000
 11
 11564.999
 21
  6080.000
  0
LINE
  8
5
 10
 11628.499
 20
  3080.000
 11
 11564.999
 21
  3080.000
  0
LINE
  8
5
 10
 11628.499
 20
  6080.000
 11
 11564.999
 21
  6080.000
  0
CIRCLE
  8
5
 10
 11707.500
 20
  5832.480
 40
     9.000
  0
CIRCLE
  8
5
 10
 11632.500
 20
  5832.480
 40
     9.000
  0
CIRCLE
  8
5
 10
 11707.500
 20
  5732.480
 40
     9.000
  0
CIRCLE
  8
5
 10
 11632.500
 20
  5732.480
 40
     9.000
  0
CIRCLE
  8
5
 10
   492.500
 20
  5832.480
 40
     9.000
  0
CIRCLE
  8
5
 10
   567.500
 20
  5832.480
 40
     9.000
  0
CIRCLE
  8
5
 10
   492.500
 20
  5732.480
 40
     9.000
  0
CIRCLE
  8
5
 10
   567.500
 20
  5732.480
 40
     9.000
  0
LINE
  8
8
 10
     0.000
 20
     0.000
 11
     0.000
 21
  9600.000
  0
LINE
  8
8
 10
     0.000
 20
  9600.000
 11
  6100.000
 21
 10210.000
  0
LINE
  8
8
 10
  6100.000
 20
 10210.000
 11
 12200.000
 21
  9600.000
  0
LINE
  8
8
 10
 12200.000
 20
  9600.000
 11
 12200.000
 21
     0.000
  0
LINE
  8
1
 10
   235.000
 20
    16.000
 11
   635.000
 21
    16.000
  0
LINE
  8
1
 10
   635.000
 20
    16.000
 11
   635.000
 21
  9083.532
  0
LINE
  8
1
 10
   635.000
 20
  9083.532
 11
   635.000
 21
  9083.532
  0
LINE
  8
1
 10
   635.000
 20
  9083.532
 11
   235.000
 21
  9083.532
  0
LINE
  8
1
 10
   235.000
 20
    16.000
 11
   235.000
 21
  9083.532
  0
LINE
  8
5
 10
   298.000
 20
   279.000
 11
   298.000
 21
   253.000
  0
LINE
  8
5
 10
   322.000
 20
   279.000
 11
   322.000
 21
   253.000
  0
ARC
  8
5
 10
   310.000
 20
   279.000
 40
    12.000
 50
     0.000
 51
   180.000
  0
ARC
  8
5
 10
   310.000
 20
   253.000
 40
    12.000
 50
   180.000
 51
     0.000
  0
LINE
  8
5
 10
   298.000
 20
  4793.000
 11
   298.000
 21
  4767.000
  0
LINE
  8
5
 10
   322.000
 20
  4793.000
 11
   322.000
 21
  4767.000
  0
ARC
  8
5
 10
   310.000
 20
  4793.000
 40
    12.000
 50
     0.000
 51
   180.000
  0
ARC
  8
5
 10
   310.000
 20
  4767.000
 40
    12.000
 50
   180.000
 51
     0.000
  0
LINE
  8
5
 10
   298.000
 20
  5093.000
 11
   298.000
 21
  5067.000
  0
LINE
  8
5
 10
   322.000
 20
  5093.000
 11
   322.000
 21
  5067.000
  0
ARC
  8
5
 10
   310.000
 20
  5093.000
 40
    12.000
 50
     0.000
 51
   180.000
  0
ARC
  8
5
 10
   310.000
 20
  5067.000
 40
    12.000
 50
   180.000
 51
     0.000
  0
LINE
  8
1
 10
   235.000
 20
    16.000
 11
   235.000
 21
  9083.532
  0
LINE
  8
1
 10
   235.000
 20
  9083.532
 11
   230.000
 21
  9083.532
  0
LINE
  8
1
 10
   230.000
 20
  9083.532
 11
   230.000
 21
    16.000
  0
LINE
  8
1
 10
   235.000
 20
    16.000
 11
   230.000
 21
    16.000
  0
LINE
  8
5
 10
   209.600
 20
  3080.000
 11
   247.700
 21
  3080.000
  0
LINE
  8
5
 10
   209.600
 20
  4580.000
 11
   247.700
 21
  4580.000
  0
LINE
  8
5
 10
   209.600
 20
  6080.000
 11
   247.700
 21
  6080.000
  0
LINE
  8
5
 10
   209.600
 20
  7580.000
 11
   247.700
 21
  7580.000
  0
LINE
  8
5
 10
   209.600
 20
  8980.000
 11
   247.700
 21
  8980.000
  0
LINE
  8
1
 10
   635.000
 20
    16.000
 11
   635.000
 21
  9083.532
  0
LINE
  8
1
 10
   635.000
 20
  9083.532
 11
   641.000
 21
  9083.532
  0
LINE
  8
1
 10
   641.000
 20
  9083.532
 11
   641.000
 21
    16.000
  0
LINE
  8
1
 10
   635.000
 20
    16.000
 11
   641.000
 21
    16.000
  0
LINE
  8
1
 10
   157.500
 20
   -28.700
 11
   157.500
 21
    28.700
  0
LINE
  8
1
 10
   307.500
 20
   -28.700
 11
   307.500
 21
    28.700
  0
LINE
  8
1
 10
   563.000
 20
   -28.700
 11
   563.000
 21
    28.700
  0
LINE
  8
1
 10
   713.000
 20
   -28.700
 11
   713.000
 21
    28.700
  0
LINE
  8
1
 10
    82.500
 20
     0.000
 11
   788.000
 21
     0.000
  0
LINE
  8
1
 10
   788.000
 20
     0.000
 11
   788.000
 21
    16.000
  0
LINE
  8
1
 10
   788.000
 20
    16.000
 11
    82.500
 21
    16.000
  0
LINE
  8
1
 10
    82.500
 20
     0.000
 11
    82.500
 21
    16.000
  0
LINE
  8
1
 10
   185.000
 20
  9070.832
 11
   185.000
 21
  9128.231
  0
LINE
  8
1
 10
   285.000
 20
  9070.832
 11
   285.000
 21
  9128.231
  0
LINE
  8
1
 10
   585.000
 20
  9070.832
 11
   585.000
 21
  9128.231
  0
LINE
  8
1
 10
   685.000
 20
  9070.832
 11
   685.000
 21
  9128.231
  0
LINE
  8
1
 10
   135.000
 20
  9099.532
 11
   735.000
 21
  9099.532
  0
LINE
  8
1
 10
   735.000
 20
  9099.532
 11
   735.000
 21
  9083.532
  0
LINE
  8
1
 10
   735.000
 20
  9083.532
 11
   135.000
 21
  9083.532
  0
LINE
  8
1
 10
   135.000
 20
  9099.532
 11
   135.000
 21
  9083.532
  0
LINE
  8
1
 10
   230.000
 20
    16.000
 11
   230.000
 21
   213.500
  0
LINE
  8
1
 10
   230.000
 20
   213.500
 11
    82.500
 21
    66.000
  0
LINE
  8
1
 10
    82.500
 20
    66.000
 11
    82.500
 21
    16.000
  0
LINE
  8
1
 10
   230.000
 20
    16.000
 11
    82.500
 21
    16.000
  0
LINE
  8
1
 10
   641.000
 20
    16.000
 11
   641.000
 21
   213.000
  0
LINE
  8
1
 10
   641.000
 20
   213.000
 11
   788.000
 21
    66.000
  0
LINE
  8
1
 10
   788.000
 20
    66.000
 11
   788.000
 21
    16.000
  0
LINE
  8
1
 10
   641.000
 20
    16.000
 11
   788.000
 21
    16.000
  0
LINE
  8
1
 10
   230.000
 20
  9083.532
 11
   230.000
 21
  8963.532
  0
LINE
  8
1
 10
   230.000
 20
  8963.532
 11
   135.000
 21
  9083.532
  0
LINE
  8
1
 10
   135.000
 20
  9083.532
 11
   135.000
 21
  9083.532
  0
LINE
  8
1
 10
   230.000
 20
  9083.532
 11
   135.000
 21
  9083.532
  0
LINE
  8
1
 10
   641.000
 20
  9083.532
 11
   641.000
 21
  8963.532
  0
LINE
  8
1
 10
   641.000
 20
  8963.532
 11
   735.000
 21
  9083.532
  0
LINE
  8
1
 10
   735.000
 20
  9083.532
 11
   735.000
 21
  9083.532
  0
LINE
  8
1
 10
   641.000
 20
  9083.532
 11
   735.000
 21
  9083.532
  0
CIRCLE
  8
1
 10
   230.000
 20
     0.000
 40
     6.350
  0
LINE
  8
17
 10
   223.650
 20
     0.000
 11
   236.350
 21
     0.000
  0
LINE
  8
17
 10
   230.000
 20
    -6.350
 11
   230.000
 21
     6.350
  0
CIRCLE
  8
1
 10
   641.000
 20
     0.000
 40
     6.350
  0
LINE
  8
17
 10
   634.650
 20
     0.000
 11
   647.350
 21
     0.000
  0
LINE
  8
17
 10
   641.000
 20
    -6.350
 11
   641.000
 21
     6.350
  0
CIRCLE
  8
1
 10
   641.000
 20
  9099.532
 40
     6.350
  0
LINE
  8
17
 10
   634.650
 20
  9099.532
 11
   647.350
 21
  9099.532
  0
LINE
  8
17
 10
   641.000
 20
  9093.182
 11
   641.000
 21
  9105.882
  0
CIRCLE
  8
1
 10
   230.000
 20
  9099.532
 40
     6.350
  0
LINE
  8
17
 10
   223.650
 20
  9099.532
 11
   236.350
 21
  9099.532
  0
LINE
  8
17
 10
   230.000
 20
  9093.182
 11
   230.000
 21
  9105.882
  0
LINE
  8
1
 10
  6084.000
 20
 10002.377
 11
  6084.000
 21
  9751.143
  0
LINE
  8
1
 10
  6084.000
 20
  9751.143
 11
   738.000
 21
  9115.532
  0
LINE
  8
1
 10
   738.000
 20
  9115.532
 11
   235.000
 21
  9115.532
  0
LINE
  8
1
 10
   235.000
 20
  9115.532
 11
   235.000
 21
  9417.478
  0
LINE
  8
1
 10
  6084.000
 20
 10002.377
 11
   235.000
 21
  9417.478
  0
LINE
  8
5
 10
  5920.197
 20
  9922.684
 11
  5894.326
 21
  9920.096
  0
LINE
  8
5
 10
  5922.585
 20
  9898.803
 11
  5896.714
 21
  9896.215
  0
ARC
  8
5
 10
  5921.391
 20
  9910.743
 40
    12.000
 50
   -84.289
 51
    95.711
  0
ARC
  8
5
 10
  5895.520
 20
  9908.155
 40
    12.000
 50
    95.711
 51
   -84.289
  0
LINE
  8
5
 10
   428.336
 20
  9373.497
 11
   402.465
 21
  9370.910
  0
LINE
  8
5
 10
   430.724
 20
  9349.617
 11
   404.853
 21
  9347.029
  0
ARC
  8
5
 10
   429.530
 20
  9361.557
 40
    12.000
 50
   -84.289
 51
    95.711
  0
ARC
  8
5
 10
   403.659
 20
  9358.970
 40
    12.000
 50
    95.711
 51
   -84.289
  0
LINE
  8
5
 10
   298.000
 20
  9180.478
 11
   298.000
 21
  9154.478
  0
LINE
  8
5
 10
   322.000
 20
  9180.478
 11
   322.000
 21
  9154.478
  0
ARC
  8
5
 10
   310.000
 20
  9180.478
 40
    12.000
 50
     0.000
 51
   180.000
  0
ARC
  8
5
 10
   310.000
 20
  9154.478
 40
    12.000
 50
   180.000
 51
     0.000
  0
LINE
  8
1
 10
   610.139
 20
  9424.292
 11
   640.985
 21
  9115.830
  0
LINE
  8
1
 10
   604.169
 20
  9423.695
 11
   635.015
 21
  9115.233
  0
LINE
  8
1
 10
   610.139
 20
  9424.292
 11
   604.169
 21
  9423.695
  0
LINE
  8
1
 10
   640.985
 20
  9115.830
 11
   635.015
 21
  9115.233
  0
LINE
  8
1
 10
  6084.000
 20
 10002.377
 11
    10.498
 21
  9395.027
  0
LINE
  8
1
 10
    10.498
 20
  9395.027
 11
    10.000
 21
  9400.002
  0
LINE
  8
1
 10
    10.000
 20
  9400.002
 11
  6083.502
 21
 10007.352
  0
LINE
  8
1
 10
  6084.000
 20
 10002.377
 11
  6083.502
 21
 10007.352
  0
LINE
  8
5
 10
    97.474
 20
  9429.251
 11
   101.265
 21
  9391.341
  0
LINE
  8
1
 10
   235.000
 20
  9115.532
 11
   235.000
 21
  9416.978
  0
LINE
  8
1
 10
   235.000
 20
  9416.978
 11
   230.000
 21
  9416.978
  0
LINE
  8
1
 10
   230.000
 20
  9416.978
 11
   230.000
 21
  9115.532
  0
LINE
  8
1
 10
   235.000
 20
  9115.532
 11
   230.000
 21
  9115.532
  0
LINE
  8
1
 10
   230.000
 20
  9416.978
 11
     0.000
 21
  9393.978
  0
LINE
  8
1
 10
     0.000
 20
  9393.978
 11
   230.000
 21
  9301.978
  0
LINE
  8
1
 10
  6083.410
 20
  9751.072
 11
   738.000
 21
  9115.532
  0
LINE
  8
1
 10
   738.000
 20
  9115.532
 11
   738.590
 21
  9110.567
  0
LINE
  8
1
 10
   738.590
 20
  9110.567
 11
  6084.000
 21
  9746.107
  0
LINE
  8
1
 10
  6083.410
 20
  9751.072
 11
  6084.000
 21
  9746.107
  0
LINE
  8
1
 10
  6071.300
 20
 10053.977
 11
  6128.700
 21
 10053.977
  0
LINE
  8
1
 10
  6071.300
 20
  9953.977
 11
  6128.700
 21
  9953.977
  0
LINE
  8
1
 10
  6071.300
 20
  9803.977
 11
  6128.700
 21
  9803.977
  0
LINE
  8
1
 10
  6071.300
 20
  9703.977
 11
  6128.700
 21
  9703.977
  0
LINE
  8
1
 10
  6100.000
 20
 10103.977
 11
  6100.000
 21
  9653.045
  0
LINE
  8
1
 10
  6100.000
 20
  9653.045
 11
  6084.000
 21
  9653.045
  0
LINE
  8
1
 10
  6084.000
 20
  9653.045
 11
  6084.000
 21
 10103.977
  0
LINE
  8
1
 10
  6100.000
 20
 10103.977
 11
  6084.000
 21
 10103.977
  0
LINE
  8
1
 10
   185.000
 20
  9070.832
 11
   185.000
 21
  9128.231
  0
LINE
  8
1
 10
   285.000
 20
  9070.832
 11
   285.000
 21
  9128.231
  0
LINE
  8
1
 10
   585.000
 20
  9070.832
 11
   585.000
 21
  9128.231
  0
LINE
  8
1
 10
   685.000
 20
  9070.832
 11
   685.000
 21
  9128.231
  0
LINE
  8
1
 10
   135.000
 20
  9099.532
 11
   735.000
 21
  9099.532
  0
LINE
  8
1
 10
   735.000
 20
  9099.532
 11
   735.000
 21
  9115.532
  0
LINE
  8
1
 10
   735.000
 20
  9115.532
 11
   135.000
 21
  9115.532
  0
LINE
  8
1
 10
   135.000
 20
  9099.532
 11
   135.000
 21
  9115.532
  0
LINE
  8
1
 10
  6084.000
 20
 10007.401
 11
  5964.000
 21
  9995.401
  0
LINE
  8
1
 10
  5964.000
 20
  9995.401
 11
  6084.000
 21
 10104.028
  0
LINE
  8
1
 10
  6084.000
 20
 10104.028
 11
  6084.000
 21
 10104.028
  0
LINE
  8
1
 10
  6084.000
 20
 10007.401
 11
  6084.000
 21
 10104.028
  0
LINE
  8
1
 10
  6084.000
 20
  9746.107
 11
  5964.000
 21
  9731.840
  0
LINE
  8
1
 10
  5964.000
 20
  9731.840
 11
  6084.000
 21
  9653.045
  0
LINE
  8
1
 10
  6084.000
 20
  9653.045
 11
  6084.000
 21
  9653.045
  0
LINE
  8
1
 10
  6084.000
 20
  9746.107
 11
  6084.000
 21
  9653.045
  0
LINE
  8
1
 10
   230.000
 20
  9115.532
 11
   230.000
 21
  9235.531
  0
LINE
  8
1
 10
   230.000
 20
  9235.531
 11
   135.000
 21
  9115.532
  0
LINE
  8
1
 10
   135.000
 20
  9115.532
 11
   135.000
 21
  9115.532
  0
LINE
  8
1
 10
   230.000
 20
  9115.532
 11
   135.000
 21
  9115.532
  0
CIRCLE
  8
1
 10
   230.000
 20
  9099.532
 40
     6.350
  0
LINE
  8
17
 10
   223.650
 20
  9099.532
 11
   236.350
 21
  9099.532
  0
LINE
  8
17
 10
   230.000
 20
  9093.182
 11
   230.000
 21
  9105.882
  0
CIRCLE
  8
1
 10
   735.000
 20
  9099.532
 40
     6.350
  0
LINE
  8
17
 10
   728.650
 20
  9099.532
 11
   741.350
 21
  9099.532
  0
LINE
  8
17
 10
   735.000
 20
  9093.182
 11
   735.000
 21
  9105.882
  0
CIRCLE
  8
1
 10
  6100.000
 20
  9748.010
 40
     6.350
  0
LINE
  8
17
 10
  6093.650
 20
  9748.010
 11
  6106.350
 21
  9748.010
  0
LINE
  8
17
 10
  6100.000
 20
  9741.659
 11
  6100.000
 21
  9754.359
  0
CIRCLE
  8
1
 10
  6100.000
 20
 10009.002
 40
     6.350
  0
LINE
  8
17
 10
  6093.650
 20
 10009.002
 11
  6106.350
 21
 10009.002
  0
LINE
  8
17
 10
  6100.000
 20
 10002.652
 11
  6100.000
 21
 10015.353
  0
CIRCLE
  8
1
 10
   230.000
 20
  9422.003
 40
     6.350
  0
LINE
  8
17
 10
   223.650
 20
  9422.003
 11
   236.350
 21
  9422.003
  0
LINE
  8
17
 10
   230.000
 20
  9415.653
 11
   230.000
 21
  9428.354
  0
LINE
  8
1
 10
  6116.000
 20
 10002.377
 11
  6116.000
 21
  9751.143
  0
LINE
  8
1
 10
  6116.000
 20
  9751.143
 11
 11461.999
 21
  9115.532
  0
LINE
  8
1
 10
 11461.999
 20
  9115.532
 11
 11965.000
 21
  9115.532
  0
LINE
  8
1
 10
 11965.000
 20
  9115.532
 11
 11965.000
 21
  9417.478
  0
LINE
  8
1
 10
  6116.000
 20
 10002.377
 11
 11965.000
 21
  9417.478
  0
LINE
  8
5
 10
  6305.674
 20
  9920.095
 11
  6279.803
 21
  9922.683
  0
LINE
  8
5
 10
  6303.286
 20
  9896.215
 11
  6277.415
 21
  9898.802
  0
ARC
  8
5
 10
  6304.480
 20
  9908.154
 40
    12.000
 50
   -95.711
 51
    84.289
  0
ARC
  8
5
 10
  6278.609
 20
  9910.742
 40
    12.000
 50
    84.289
 51
   -95.711
  0
LINE
  8
5
 10
 11797.535
 20
  9370.909
 11
 11771.664
 21
  9373.497
  0
LINE
  8
5
 10
 11795.146
 20
  9347.028
 11
 11769.276
 21
  9349.616
  0
ARC
  8
5
 10
 11796.341
 20
  9358.969
 40
    12.000
 50
   -95.711
 51
    84.289
  0
ARC
  8
5
 10
 11770.470
 20
  9361.557
 40
    12.000
 50
    84.289
 51
   -95.711
  0
LINE
  8
5
 10
 11902.000
 20
  9154.478
 11
 11902.000
 21
  9180.478
  0
LINE
  8
5
 10
 11878.000
 20
  9154.478
 11
 11878.000
 21
  9180.478
  0
ARC
  8
5
 10
 11890.000
 20
  9154.478
 40
    12.000
 50
  -180.000
 51
     0.000
  0
ARC
  8
5
 10
 11890.000
 20
  9180.478
 40
    12.000
 50
     0.000
 51
  -180.000
  0
LINE
  8
1
 10
 11595.831
 20
  9423.695
 11
 11564.984
 21
  9115.233
  0
LINE
  8
1
 10
 11589.860
 20
  9424.292
 11
 11559.015
 21
  9115.830
  0
LINE
  8
1
 10
 11595.831
 20
  9423.695
 11
 11589.860
 21
  9424.292
  0
LINE
  8
1
 10
 11564.984
 20
  9115.233
 11
 11559.015
 21
  9115.830
  0
LINE
  8
1
 10
  6116.000
 20
 10002.377
 11
 12189.502
 21
  9395.027
  0
LINE
  8
1
 10
 12189.502
 20
  9395.027
 11
 12190.000
 21
  9400.002
  0
LINE
  8
1
 10
 12190.000
 20
  9400.002
 11
  6116.498
 21
 10007.352
  0
LINE
  8
1
 10
  6116.000
 20
 10002.377
 11
  6116.498
 21
 10007.352
  0
LINE
  8
5
 10
 12102.526
 20
  9429.251
 11
 12098.735
 21
  9391.340
  0
LINE
  8
1
 10
 11965.000
 20
  9416.978
 11
 11965.000
 21
  9115.532
  0
LINE
  8
1
 10
 11965.000
 20
  9115.532
 11
 11969.999
 21
  9115.532
  0
LINE
  8
1
 10
 11969.999
 20
  9115.532
 11
 11969.999
 21
  9416.978
  0
LINE
  8
1
 10
 11965.000
 20
  9416.978
 11
 11969.999
 21
  9416.978
  0
LINE
  8
1
 10
 11969.999
 20
  9416.978
 11
 12199.999
 21
  9393.978
  0
LINE
  8
1
 10
 12199.999
 20
  9393.978
 11
 11969.999
 21
  9301.978
  0
LINE
  8
1
 10
  6116.590
 20
  9751.072
 11
 11461.999
 21
  9115.532
  0
LINE
  8
1
 10
 11461.999
 20
  9115.532
 11
 11461.409
 21
  9110.567
  0
LINE
  8
1
 10
 11461.409
 20
  9110.567
 11
  6116.000
 21
  9746.107
  0
LINE
  8
1
 10
  6116.590
 20
  9751.072
 11
  6116.000
 21
  9746.107
  0
LINE
  8
1
 10
  6071.300
 20
 10053.977
 11
  6128.700
 21
 10053.977
  0
LINE
  8
1
 10
  6071.300
 20
  9953.977
 11
  6128.700
 21
  9953.977
  0
LINE
  8
1
 10
  6071.300
 20
  9803.977
 11
  6128.700
 21
  9803.977
  0
LINE
  8
1
 10
  6071.300
 20
  9703.977
 11
  6128.700
 21
  9703.977
  0
LINE
  8
1
 10
  6100.000
 20
 10103.977
 11
  6100.000
 21
  9653.045
  0
LINE
  8
1
 10
  6100.000
 20
  9653.045
 11
  6116.000
 21
  9653.045
  0
LINE
  8
1
 10
  6116.000
 20
  9653.045
 11
  6116.000
 21
 10103.977
  0
LINE
  8
1
 10
  6100.000
 20
 10103.977
 11
  6116.000
 21
 10103.977
  0
LINE
  8
1
 10
 12015.000
 20
  9128.231
 11
 12015.000
 21
  9070.832
  0
LINE
  8
1
 10
 11915.000
 20
  9128.231
 11
 11915.000
 21
  9070.832
  0
LINE
  8
1
 10
 11615.000
 20
  9128.231
 11
 11615.000
 21
  9070.832
  0
LINE
  8
1
 10
 11515.000
 20
  9128.231
 11
 11515.000
 21
  9070.832
  0
LINE
  8
1
 10
 12065.000
 20
  9099.532
 11
 11464.999
 21
  9099.532
  0
LINE
  8
1
 10
 11464.999
 20
  9099.532
 11
 11464.999
 21
  9115.532
  0
LINE
  8
1
 10
 11464.999
 20
  9115.532
 11
 12065.000
 21
  9115.532
  0
LINE
  8
1
 10
 12065.000
 20
  9099.532
 11
 12065.000
 21
  9115.532
  0
LINE
  8
1
 10
  6116.000
 20
 10007.401
 11
  6236.000
 21
  9995.401
  0
LINE
  8
1
 10
  6236.000
 20
  9995.401
 11
  6116.000
 21
 10104.028
  0
LINE
  8
1
 10
  6116.000
 20
 10104.028
 11
  6116.000
 21
 10104.028
  0
LINE
  8
1
 10
  6116.000
 20
 10007.401
 11
  6116.000
 21
 10104.028
  0
LINE
  8
1
 10
  6116.000
 20
  9746.107
 11
  6236.000
 21
  9731.840
  0
LINE
  8
1
 10
  6236.000
 20
  9731.840
 11
  6116.000
 21
  9653.045
  0
LINE
  8
1
 10
  6116.000
 20
  9653.045
 11
  6116.000
 21
  9653.045
  0
LINE
  8
1
 10
  6116.000
 20
  9746.107
 11
  6116.000
 21
  9653.045
  0
LINE
  8
1
 10
 11969.999
 20
  9115.532
 11
 11969.999
 21
  9235.531
  0
LINE
  8
1
 10
 11969.999
 20
  9235.531
 11
 12065.000
 21
  9115.532
  0
LINE
  8
1
 10
 12065.000
 20
  9115.532
 11
 12065.000
 21
  9115.532
  0
LINE
  8
1
 10
 11969.999
 20
  9115.532
 11
 12065.000
 21
  9115.532
  0
CIRCLE
  8
1
 10
  6100.000
 20
 10009.002
 40
     6.350
  0
LINE
  8
17
 10
  6093.650
 20
 10009.002
 11
  6106.350
 21
 10009.002
  0
LINE
  8
17
 10
  6100.000
 20
 10002.652
 11
  6100.000
 21
 10015.353
  0
CIRCLE
  8
1
 10
  6100.000
 20
  9748.010
 40
     6.350
  0
LINE
  8
17
 10
  6093.650
 20
  9748.010
 11
  6106.350
 21
  9748.010
  0
LINE
  8
17
 10
  6100.000
 20
  9741.659
 11
  6100.000
 21
  9754.359
  0
CIRCLE
  8
1
 10
 11464.999
 20
  9099.532
 40
     6.350
  0
LINE
  8
17
 10
 11458.649
 20
  9099.532
 11
 11471.350
 21
  9099.532
  0
LINE
  8
17
 10
 11464.999
 20
  9093.182
 11
 11464.999
 21
  9105.882
  0
CIRCLE
  8
1
 10
 11969.999
 20
  9099.532
 40
     6.350
  0
LINE
  8
17
 10
 11963.649
 20
  9099.532
 11
 11976.350
 21
  9099.532
  0
LINE
  8
17
 10
 11969.999
 20
  9093.182
 11
 11969.999
 21
  9105.882
  0
CIRCLE
  8
1
 10
 11969.999
 20
  9422.003
 40
     6.350
  0
LINE
  8
17
 10
 11963.649
 20
  9422.003
 11
 11976.350
 21
  9422.003
  0
LINE
  8
17
 10
 11969.999
 20
  9415.653
 11
 11969.999
 21
  9428.354
  0
LINE
  8
1
 10
 11965.000
 20
    16.000
 11
 11564.999
 21
    16.000
  0
LINE
  8
1
 10
 11564.999
 20
    16.000
 11
 11564.999
 21
  9083.532
  0
LINE
  8
1
 10
 11564.999
 20
  9083.532
 11
 11564.999
 21
  9083.532
  0
LINE
  8
1
 10
 11564.999
 20
  9083.532
 11
 11965.000
 21
  9083.532
  0
LINE
  8
1
 10
 11965.000
 20
    16.000
 11
 11965.000
 21
  9083.532
  0
LINE
  8
5
 10
 11902.000
 20
   253.000
 11
 11902.000
 21
   279.000
  0
LINE
  8
5
 10
 11878.000
 20
   253.000
 11
 11878.000
 21
   279.000
  0
ARC
  8
5
 10
 11890.000
 20
   253.000
 40
    12.000
 50
  -180.000
 51
     0.000
  0
ARC
  8
5
 10
 11890.000
 20
   279.000
 40
    12.000
 50
     0.000
 51
  -180.000
  0
LINE
  8
5
 10
 11902.000
 20
  4767.000
 11
 11902.000
 21
  4793.000
  0
LINE
  8
5
 10
 11878.000
 20
  4767.000
 11
 11878.000
 21
  4793.000
  0
ARC
  8
5
 10
 11890.000
 20
  4767.000
 40
    12.000
 50
  -180.000
 51
     0.000
  0
ARC
  8
5
 10
 11890.000
 20
  4793.000
 40
    12.000
 50
     0.000
 51
  -180.000
  0
LINE
  8
5
 10
 11902.000
 20
  5067.000
 11
 11902.000
 21
  5093.000
  0
LINE
  8
5
 10
 11878.000
 20
  5067.000
 11
 11878.000
 21
  5093.000
  0
ARC
  8
5
 10
 11890.000
 20
  5067.000
 40
    12.000
 50
  -180.000
 51
     0.000
  0
ARC
  8
5
 10
 11890.000
 20
  5093.000
 40
    12.000
 50
     0.000
 51
  -180.000
  0
LINE
  8
1
 10
 11965.000
 20
    16.000
 11
 11965.000
 21
  9083.532
  0
LINE
  8
1
 10
 11965.000
 20
  9083.532
 11
 11969.999
 21
  9083.532
  0
LINE
  8
1
 10
 11969.999
 20
  9083.532
 11
 11969.999
 21
    16.000
  0
LINE
  8
1
 10
 11965.000
 20
    16.000
 11
 11969.999
 21
    16.000
  0
LINE
  8
5
 10
 11990.400
 20
  8980.000
 11
 11952.301
 21
  8980.000
  0
LINE
  8
5
 10
 11990.399
 20
  7580.000
 11
 11952.300
 21
  7580.000
  0
LINE
  8
5
 10
 11990.399
 20
  6080.000
 11
 11952.300
 21
  6080.000
  0
LINE
  8
5
 10
 11990.399
 20
  4580.000
 11
 11952.300
 21
  4580.000
  0
LINE
  8
5
 10
 11990.399
 20
  3080.000
 11
 11952.300
 21
  3080.000
  0
LINE
  8
1
 10
 11564.999
 20
    16.000
 11
 11564.999
 21
  9083.532
  0
LINE
  8
1
 10
 11564.999
 20
  9083.532
 11
 11559.000
 21
  9083.532
  0
LINE
  8
1
 10
 11559.000
 20
  9083.532
 11
 11559.000
 21
    16.000
  0
LINE
  8
1
 10
 11564.999
 20
    16.000
 11
 11559.000
 21
    16.000
  0
LINE
  8
1
 10
 12042.500
 20
    28.700
 11
 12042.500
 21
   -28.700
  0
LINE
  8
1
 10
 11892.499
 20
    28.700
 11
 11892.499
 21
   -28.700
  0
LINE
  8
1
 10
 11637.000
 20
    28.700
 11
 11637.000
 21
   -28.700
  0
LINE
  8
1
 10
 11486.999
 20
    28.700
 11
 11486.999
 21
   -28.700
  0
LINE
  8
1
 10
 12117.500
 20
     0.000
 11
 11411.999
 21
     0.000
  0
LINE
  8
1
 10
 11411.999
 20
     0.000
 11
 11411.999
 21
    16.000
  0
LINE
  8
1
 10
 11411.999
 20
    16.000
 11
 12117.500
 21
    16.000
  0
LINE
  8
1
 10
 12117.500
 20
     0.000
 11
 12117.500
 21
    16.000
  0
LINE
  8
1
 10
 12015.000
 20
  9128.231
 11
 12015.000
 21
  9070.832
  0
LINE
  8
1
 10
 11915.000
 20
  9128.231
 11
 11915.000
 21
  9070.832
  0
LINE
  8
1
 10
 11615.000
 20
  9128.231
 11
 11615.000
 21
  9070.832
  0
LINE
  8
1
 10
 11515.000
 20
  9128.231
 11
 11515.000
 21
  9070.832
  0
LINE
  8
1
 10
 12065.000
 20
  9099.532
 11
 11464.999
 21
  9099.532
  0
LINE
  8
1
 10
 11464.999
 20
  9099.532
 11
 11464.999
 21
  9083.532
  0
LINE
  8
1
 10
 11464.999
 20
  9083.532
 11
 12065.000
 21
  9083.532
  0
LINE
  8
1
 10
 12065.000
 20
  9099.532
 11
 12065.000
 21
  9083.532
  0
LINE
  8
1
 10
 11969.999
 20
    16.000
 11
 11969.999
 21
   213.500
  0
LINE
  8
1
 10
 11969.999
 20
   213.500
 11
 12117.500
 21
    66.000
  0
LINE
  8
1
 10
 12117.500
 20
    66.000
 11
 12117.500
 21
    16.000
  0
LINE
  8
1
 10
 11969.999
 20
    16.000
 11
 12117.500
 21
    16.000
  0
LINE
  8
1
 10
 11559.000
 20
    16.000
 11
 11559.000
 21
   213.000
  0
LINE
  8
1
 10
 11559.000
 20
   213.000
 11
 11411.999
 21
    66.000
  0
LINE
  8
1
 10
 11411.999
 20
    66.000
 11
 11411.999
 21
    16.000
  0
LINE
  8
1
 10
 11559.000
 20
    16.000
 11
 11411.999
 21
    16.000
  0
LINE
  8
1
 10
 11969.999
 20
  9083.532
 11
 11969.999
 21
  8963.532
  0
LINE
  8
1
 10
 11969.999
 20
  8963.532
 11
 12065.000
 21
  9083.532
  0
LINE
  8
1
 10
 12065.000
 20
  9083.532
 11
 12065.000
 21
  9083.532
  0
LINE
  8
1
 10
 11969.999
 20
  9083.532
 11
 12065.000
 21
  9083.532
  0
LINE
  8
1
 10
 11559.000
 20
  9083.532
 11
 11559.000
 21
  8963.532
  0
LINE
  8
1
 10
 11559.000
 20
  8963.532
 11
 11464.999
 21
  9083.532
  0
LINE
  8
1
 10
 11464.999
 20
  9083.532
 11
 11464.999
 21
  9083.532
  0
LINE
  8
1
 10
 11559.000
 20
  9083.532
 11
 11464.999
 21
  9083.532
  0
CIRCLE
  8
1
 10
 11969.999
 20
  9099.532
 40
     6.350
  0
LINE
  8
17
 10
 11963.649
 20
  9099.532
 11
 11976.350
 21
  9099.532
  0
LINE
  8
17
 10
 11969.999
 20
  9093.182
 11
 11969.999
 21
  9105.882
  0
CIRCLE
  8
1
 10
 11559.000
 20
  9099.532
 40
     6.350
  0
LINE
  8
17
 10
 11552.649
 20
  9099.532
 11
 11565.350
 21
  9099.532
  0
LINE
  8
17
 10
 11559.000
 20
  9093.182
 11
 11559.000
 21
  9105.882
  0
CIRCLE
  8
1
 10
 11559.000
 20
     0.000
 40
     6.350
  0
LINE
  8
17
 10
 11552.649
 20
     0.000
 11
 11565.350
 21
     0.000
  0
LINE
  8
17
 10
 11559.000
 20
    -6.350
 11
 11559.000
 21
     6.350
  0
CIRCLE
  8
1
 10
 11969.999
 20
     0.000
 40
     6.350
  0
LINE
  8
17
 10
 11963.649
 20
     0.000
 11
 11976.350
 21
     0.000
  0
LINE
  8
17
 10
 11969.999
 20
    -6.350
 11
 11969.999
 21
     6.350
  0
LINE
  8
3
 10
     0.000
 20
  3080.000
 11
  -175.915
 21
  2978.293
  0
LINE
  8
3
 10
     0.000
 20
  3080.000
 11
  -176.007
 21
  3181.547
  0
LINE
  8
3
 10
  -176.007
 20
  3181.547
 11
  -175.915
 21
  2978.293
  0
LINE
  8
3
 10
     0.000
 20
  6080.000
 11
  -175.915
 21
  5978.293
  0
LINE
  8
3
 10
     0.000
 20
  6080.000
 11
  -176.007
 21
  6181.547
  0
LINE
  8
3
 10
  -176.007
 20
  6181.547
 11
  -175.915
 21
  5978.293
  0
LINE
  8
3
 10
     0.000
 20
  3080.000
 11
  -175.915
 21
  2978.293
  0
LINE
  8
3
 10
     0.000
 20
  3080.000
 11
  -176.007
 21
  3181.547
  0
LINE
  8
3
 10
  -176.007
 20
  3181.547
 11
  -175.915
 21
  2978.293
  0
LINE
  8
3
 10
     0.000
 20
  6080.000
 11
  -175.915
 21
  5978.293
  0
LINE
  8
3
 10
     0.000
 20
  6080.000
 11
  -176.007
 21
  6181.547
  0
LINE
  8
3
 10
  -176.007
 20
  6181.547
 11
  -175.915
 21
  5978.293
  0
LINE
  8
3
 10
  1450.366
 20
  9745.037
 11
  1331.660
 21
  9909.959
  0
LINE
  8
3
 10
  1450.366
 20
  9745.037
 11
  1533.896
 21
  9930.274
  0
LINE
  8
3
 10
  1533.896
 20
  9930.274
 11
  1331.660
 21
  9909.959
  0
LINE
  8
3
 10
  4351.098
 20
 10035.110
 11
  4232.393
 21
 10200.032
  0
LINE
  8
3
 10
  4351.098
 20
 10035.110
 11
  4434.628
 21
 10220.348
  0
LINE
  8
3
 10
  4434.628
 20
 10220.348
 11
  4232.393
 21
 10200.032
  0
LINE
  8
3
 10
  5801.464
 20
 10180.146
 11
  5682.758
 21
 10345.068
  0
LINE
  8
3
 10
  5801.464
 20
 10180.146
 11
  5884.994
 21
 10365.384
  0
LINE
  8
3
 10
  5884.994
 20
 10365.384
 11
  5682.758
 21
 10345.068
  0
LINE
  8
3
 10
  1450.366
 20
  9745.037
 11
  1331.660
 21
  9909.959
  0
LINE
  8
3
 10
  1450.366
 20
  9745.037
 11
  1533.896
 21
  9930.274
  0
LINE
  8
3
 10
  1533.896
 20
  9930.274
 11
  1331.660
 21
  9909.959
  0
LINE
  8
3
 10
  4351.098
 20
 10035.110
 11
  4232.393
 21
 10200.032
  0
LINE
  8
3
 10
  4351.098
 20
 10035.110
 11
  4434.628
 21
 10220.348
  0
LINE
  8
3
 10
  4434.628
 20
 10220.348
 11
  4232.393
 21
 10200.032
  0
LINE
  8
3
 10
  5801.464
 20
 10180.146
 11
  5682.758
 21
 10345.068
  0
LINE
  8
3
 10
  5801.464
 20
 10180.146
 11
  5884.994
 21
 10365.384
  0
LINE
  8
3
 10
  5884.994
 20
 10365.384
 11
  5682.758
 21
 10345.068
  0
LINE
  8
3
 10
  6398.511
 20
 10180.148
 11
  6314.813
 21
 10365.311
  0
LINE
  8
3
 10
  6398.511
 20
 10180.148
 11
  6517.067
 21
 10345.178
  0
LINE
  8
3
 10
  6517.067
 20
 10345.178
 11
  6314.813
 21
 10365.311
  0
LINE
  8
3
 10
  7848.877
 20
 10035.112
 11
  7765.180
 21
 10220.274
  0
LINE
  8
3
 10
  7848.877
 20
 10035.112
 11
  7967.434
 21
 10200.142
  0
LINE
  8
3
 10
  7967.434
 20
 10200.142
 11
  7765.180
 21
 10220.274
  0
LINE
  8
3
 10
 10749.609
 20
  9745.038
 11
 10665.912
 21
  9930.201
  0
LINE
  8
3
 10
 10749.609
 20
  9745.038
 11
 10868.166
 21
  9910.067
  0
LINE
  8
3
 10
 10868.166
 20
  9910.067
 11
 10665.912
 21
  9930.201
  0
LINE
  8
3
 10
  6398.511
 20
 10180.148
 11
  6314.813
 21
 10365.311
  0
LINE
  8
3
 10
  6398.511
 20
 10180.148
 11
  6517.067
 21
 10345.178
  0
LINE
  8
3
 10
  6517.067
 20
 10345.178
 11
  6314.813
 21
 10365.311
  0
LINE
  8
3
 10
  7848.877
 20
 10035.112
 11
  7765.180
 21
 10220.274
  0
LINE
  8
3
 10
  7848.877
 20
 10035.112
 11
  7967.434
 21
 10200.142
  0
LINE
  8
3
 10
  7967.434
 20
 10200.142
 11
  7765.180
 21
 10220.274
  0
LINE
  8
3
 10
 10749.609
 20
  9745.038
 11
 10665.912
 21
  9930.201
  0
LINE
  8
3
 10
 10749.609
 20
  9745.038
 11
 10868.166
 21
  9910.067
  0
LINE
  8
3
 10
 10868.166
 20
  9910.067
 11
 10665.912
 21
  9930.201
  0
LINE
  8
3
 10
 12200.000
 20
  3080.000
 11
 12375.915
 21
  3181.706
  0
LINE
  8
3
 10
 12200.000
 20
  3080.000
 11
 12376.007
 21
  2978.453
  0
LINE
  8
3
 10
 12376.007
 20
  2978.453
 11
 12375.915
 21
  3181.706
  0
LINE
  8
3
 10
 12200.000
 20
  6080.000
 11
 12375.915
 21
  6181.707
  0
LINE
  8
3
 10
 12200.000
 20
  6080.000
 11
 12376.007
 21
  5978.453
  0
LINE
  8
3
 10
 12376.007
 20
  5978.453
 11
 12375.915
 21
  6181.707
  0
LINE
  8
3
 10
 12200.000
 20
  3080.000
 11
 12375.915
 21
  3181.706
  0
LINE
  8
3
 10
 12200.000
 20
  3080.000
 11
 12376.007
 21
  2978.453
  0
LINE
  8
3
 10
 12376.007
 20
  2978.453
 11
 12375.915
 21
  3181.706
  0
LINE
  8
3
 10
 12200.000
 20
  6080.000
 11
 12375.915
 21
  6181.707
  0
LINE
  8
3
 10
 12200.000
 20
  6080.000
 11
 12376.007
 21
  5978.453
  0
LINE
  8
3
 10
 12376.007
 20
  5978.453
 11
 12375.915
 21
  6181.707
  0
LINE
  8
5
 10
  1450.366
 20
  9745.037
 11
  1470.267
 21
  9546.029
  0
LINE
  8
5
 10
  2900.732
 20
  9890.073
 11
  2920.633
 21
  9691.066
  0
LINE
  8
5
 10
  4351.098
 20
 10035.110
 11
  4370.999
 21
  9836.104
  0
LINE
  8
5
 10
  5801.464
 20
 10180.146
 11
  5821.365
 21
  9981.140
  0
LINE
  8
5
 10
  6398.511
 20
 10180.148
 11
  6378.610
 21
  9981.141
  0
LINE
  8
5
 10
  7848.877
 20
 10035.112
 11
  7828.976
 21
  9836.104
  0
LINE
  8
5
 10
  9299.243
 20
  9890.075
 11
  9279.342
 21
  9691.068
  0
LINE
  8
5
 10
 10749.609
 20
  9745.038
 11
 10729.708
 21
  9546.031
  0
LINE
  8
5
 10
   571.500
 20
  3080.000
 11
   635.000
 21
  3080.000
  0
LINE
  8
5
 10
   571.500
 20
  6080.000
 11
   635.000
 21
  6080.000
  0
LINE
  8
5
 10
   571.500
 20
  3080.000
 11
   635.000
 21
  3080.000
  0
LINE
  8
5
 10
   571.500
 20
  6080.000
 11
   635.000
 21
  6080.000
  0
LINE
  8
5
 10
  1497.888
 20
  9269.813
 11
  1504.207
 21
  9206.629
  0
LINE
  8
5
 10
  4393.204
 20
  9614.052
 11
  4399.522
 21
  9550.867
  0
LINE
  8
5
 10
  5840.862
 20
  9786.171
 11
  5847.181
 21
  9722.986
  0
LINE
  8
5
 10
  1497.888
 20
  9269.813
 11
  1504.207
 21
  9206.629
  0
LINE
  8
5
 10
  4393.204
 20
  9614.052
 11
  4399.522
 21
  9550.867
  0
LINE
  8
5
 10
  5840.862
 20
  9786.171
 11
  5847.181
 21
  9722.986
  0
LINE
  8
5
 10
  6359.114
 20
  9786.173
 11
  6352.795
 21
  9722.988
  0
LINE
  8
5
 10
  7806.771
 20
  9614.055
 11
  7800.453
 21
  9550.870
  0
LINE
  8
5
 10
 10702.088
 20
  9269.817
 11
 10695.770
 21
  9206.633
  0
LINE
  8
5
 10
  6359.114
 20
  9786.173
 11
  6352.795
 21
  9722.988
  0
LINE
  8
5
 10
  7806.771
 20
  9614.055
 11
  7800.453
 21
  9550.870
  0
LINE
  8
5
 10
 10702.088
 20
  9269.817
 11
 10695.770
 21
  9206.633
  0
LINE
  8
5
 10
 11628.499
 20
  3080.000
 11
 11564.999
 21
  3080.000
  0
LINE
  8
5
 10
 11628.499
 20
  6080.000
 11
 11564.999
 21
  6080.000
  0
LINE
  8
5
 10
 11628.499
 20
  3080.000
 11
 11564.999
 21
  3080.000
  0
LINE
  8
5
 10
 11628.499
 20
  6080.000
 11
 11564.999
 21
  6080.000
  0
LINE
  8
17
 10
   223.650
 20
     0.000
 11
   236.350
 21
     0.000
  0
LINE
  8
17
 10
   230.000
 20
    -6.350
 11
   230.000
 21
     6.350
  0
LINE
  8
17
 10
   634.650
 20
     0.000
 11
   647.350
 21
     0.000
  0
LINE
  8
17
 10
   641.000
 20
    -6.350
 11
   641.000
 21
     6.350
  0
LINE
  8
17
 10
   634.650
 20
  9099.532
 11
   647.350
 21
  9099.532
  0
LINE
  8
17
 10
   641.000
 20
  9093.182
 11
   641.000
 21
  9105.882
  0
LINE
  8
17
 10
   223.650
 20
  9099.532
 11
   236.350
 21
  9099.532
  0
LINE
  8
17
 10
   230.000
 20
  9093.182
 11
   230.000
 21
  9105.882
  0
LINE
  8
1
 10
   610.139
 20
  9424.292
 11
   640.985
 21
  9115.830
  0
LINE
  8
1
 10
   604.169
 20
  9423.695
 11
   635.015
 21
  9115.233
  0
LINE
  8
1
 10
   610.139
 20
  9424.292
 11
   604.169
 21
  9423.695
  0
LINE
  8
1
 10
   640.985
 20
  9115.830
 11
   635.015
 21
  9115.233
  0
LINE
  8
17
 10
   223.650
 20
  9099.532
 11
   236.350
 21
  9099.532
  0
LINE
  8
17
 10
   230.000
 20
  9093.182
 11
   230.000
 21
  9105.882
  0
LINE
  8
17
 10
   728.650
 20
  9099.532
 11
   741.350
 21
  9099.532
  0
LINE
  8
17
 10
   735.000
 20
  9093.182
 11
   735.000
 21
  9105.882
  0
LINE
  8
17
 10
  6093.650
 20
  9748.010
 11
  6106.350
 21
  9748.010
  0
LINE
  8
17
 10
  6100.000
 20
  9741.659
 11
  6100.000
 21
  9754.359
  0
LINE
  8
17
 10
  6093.650
 20
 10009.002
 11
  6106.350
 21
 10009.002
  0
LINE
  8
17
 10
  6100.000
 20
 10002.652
 11
  6100.000
 21
 10015.353
  0
LINE
  8
17
 10
   223.650
 20
  9422.003
 11
   236.350
 21
  9422.003
  0
LINE
  8
17
 10
   230.000
 20
  9415.653
 11
   230.000
 21
  9428.354
  0
LINE
  8
1
 10
 11595.831
 20
  9423.695
 11
 11564.984
 21
  9115.233
  0
LINE
  8
1
 10
 11589.860
 20
  9424.292
 11
 11559.015
 21
  9115.830
  0
LINE
  8
1
 10
 11595.831
 20
  9423.695
 11
 11589.860
 21
  9424.292
  0
LINE
  8
1
 10
 11564.984
 20
  9115.233
 11
 11559.015
 21
  9115.830
  0
LINE
  8
17
 10
  6093.650
 20
 10009.002
 11
  6106.350
 21
 10009.002
  0
LINE
  8
17
 10
  6100.000
 20
 10002.652
 11
  6100.000
 21
 10015.353
  0
LINE
  8
17
 10
  6093.650
 20
  9748.010
 11
  6106.350
 21
  9748.010
  0
LINE
  8
17
 10
  6100.000
 20
  9741.659
 11
  6100.000
 21
  9754.359
  0
LINE
  8
17
 10
 11458.649
 20
  9099.532
 11
 11471.350
 21
  9099.532
  0
LINE
  8
17
 10
 11464.999
 20
  9093.182
 11
 11464.999
 21
  9105.882
  0
LINE
  8
17
 10
 11963.649
 20
  9099.532
 11
 11976.350
 21
  9099.532
  0
LINE
  8
17
 10
 11969.999
 20
  9093.182
 11
 11969.999
 21
  9105.882
  0
LINE
  8
17
 10
 11963.649
 20
  9422.003
 11
 11976.350
 21
  9422.003
  0
LINE
  8
17
 10
 11969.999
 20
  9415.653
 11
 11969.999
 21
  9428.354
  0
LINE
  8
17
 10
 11963.649
 20
  9099.532
 11
 11976.350
 21
  9099.532
  0
LINE
  8
17
 10
 11969.999
 20
  9093.182
 11
 11969.999
 21
  9105.882
  0
LINE
  8
17
 10
 11552.649
 20
  9099.532
 11
 11565.350
 21
  9099.532
  0
LINE
  8
17
 10
 11559.000
 20
  9093.182
 11
 11559.000
 21
  9105.882
  0
LINE
  8
17
 10
 11552.649
 20
     0.000
 11
 11565.350
 21
     0.000
  0
LINE
  8
17
 10
 11559.000
 20
    -6.350
 11
 11559.000
 21
     6.350
  0
LINE
  8
17
 10
 11963.649
 20
     0.000
 11
 11976.350
 21
     0.000
  0
LINE
  8
17
 10
 11969.999
 20
    -6.350
 11
 11969.999
 21
     6.350
  0
LINE
  8
5
 10
  1450.366
 20
  9745.037
 11
  1470.267
 21
  9546.029
  0
LINE
  8
5
 10
  2900.732
 20
  9890.073
 11
  2920.633
 21
  9691.066
  0
LINE
  8
5
 10
  4351.098
 20
 10035.110
 11
  4370.999
 21
  9836.104
  0
LINE
  8
5
 10
  5801.464
 20
 10180.146
 11
  5821.365
 21
  9981.140
  0
LINE
  8
5
 10
  6398.511
 20
 10180.148
 11
  6378.610
 21
  9981.141
  0
LINE
  8
5
 10
  7848.877
 20
 10035.112
 11
  7828.976
 21
  9836.104
  0
LINE
  8
5
 10
  9299.243
 20
  9890.075
 11
  9279.342
 21
  9691.068
  0
LINE
  8
5
 10
 10749.609
 20
  9745.038
 11
 10729.708
 21
  9546.031
  0
LINE
  8
5
 10
   571.500
 20
  3080.000
 11
   635.000
 21
  3080.000
  0
LINE
  8
5
 10
   571.500
 20
  6080.000
 11
   635.000
 21
  6080.000
  0
LINE
  8
5
 10
   571.500
 20
  3080.000
 11
   635.000
 21
  3080.000
  0
LINE
  8
5
 10
   571.500
 20
  6080.000
 11
   635.000
 21
  6080.000
  0
LINE
  8
5
 10
  1497.888
 20
  9269.813
 11
  1504.207
 21
  9206.629
  0
LINE
  8
5
 10
  4393.204
 20
  9614.052
 11
  4399.522
 21
  9550.867
  0
LINE
  8
5
 10
  5840.862
 20
  9786.171
 11
  5847.181
 21
  9722.986
  0
LINE
  8
5
 10
  1497.888
 20
  9269.813
 11
  1504.207
 21
  9206.629
  0
LINE
  8
5
 10
  4393.204
 20
  9614.052
 11
  4399.522
 21
  9550.867
  0
LINE
  8
5
 10
  5840.862
 20
  9786.171
 11
  5847.181
 21
  9722.986
  0
LINE
  8
5
 10
  6359.114
 20
  9786.173
 11
  6352.795
 21
  9722.988
  0
LINE
  8
5
 10
  7806.771
 20
  9614.055
 11
  7800.453
 21
  9550.870
  0
LINE
  8
5
 10
 10702.088
 20
  9269.817
 11
 10695.770
 21
  9206.633
  0
LINE
  8
5
 10
  6359.114
 20
  9786.173
 11
  6352.795
 21
  9722.988
  0
LINE
  8
5
 10
  7806.771
 20
  9614.055
 11
  7800.453
 21
  9550.870
  0
LINE
  8
5
 10
 10702.088
 20
  9269.817
 11
 10695.770
 21
  9206.633
  0
LINE
  8
5
 10
 11628.499
 20
  3080.000
 11
 11564.999
 21
  3080.000
  0
LINE
  8
5
 10
 11628.499
 20
  6080.000
 11
 11564.999
 21
  6080.000
  0
LINE
  8
5
 10
 11628.499
 20
  3080.000
 11
 11564.999
 21
  3080.000
  0
LINE
  8
5
 10
 11628.499
 20
  6080.000
 11
 11564.999
 21
  6080.000
  0
LINE
  8
17
 10
   223.650
 20
     0.000
 11
   236.350
 21
     0.000
  0
LINE
  8
17
 10
   230.000
 20
    -6.350
 11
   230.000
 21
     6.350
  0
LINE
  8
17
 10
   634.650
 20
     0.000
 11
   647.350
 21
     0.000
  0
LINE
  8
17
 10
   641.000
 20
    -6.350
 11
   641.000
 21
     6.350
  0
LINE
  8
17
 10
   634.650
 20
  9099.532
 11
   647.350
 21
  9099.532
  0
LINE
  8
17
 10
   641.000
 20
  9093.182
 11
   641.000
 21
  9105.882
  0
LINE
  8
17
 10
   223.650
 20
  9099.532
 11
   236.350
 21
  9099.532
  0
LINE
  8
17
 10
   230.000
 20
  9093.182
 11
   230.000
 21
  9105.882
  0
LINE
  8
1
 10
   610.139
 20
  9424.292
 11
   640.985
 21
  9115.830
  0
LINE
  8
1
 10
   604.169
 20
  9423.695
 11
   635.015
 21
  9115.233
  0
LINE
  8
1
 10
   610.139
 20
  9424.292
 11
   604.169
 21
  9423.695
  0
LINE
  8
1
 10
   640.985
 20
  9115.830
 11
   635.015
 21
  9115.233
  0
LINE
  8
17
 10
   223.650
 20
  9099.532
 11
   236.350
 21
  9099.532
  0
LINE
  8
17
 10
   230.000
 20
  9093.182
 11
   230.000
 21
  9105.882
  0
LINE
  8
17
 10
   728.650
 20
  9099.532
 11
   741.350
 21
  9099.532
  0
LINE
  8
17
 10
   735.000
 20
  9093.182
 11
   735.000
 21
  9105.882
  0
LINE
  8
17
 10
  6093.650
 20
  9748.010
 11
  6106.350
 21
  9748.010
  0
LINE
  8
17
 10
  6100.000
 20
  9741.659
 11
  6100.000
 21
  9754.359
  0
LINE
  8
17
 10
  6093.650
 20
 10009.002
 11
  6106.350
 21
 10009.002
  0
LINE
  8
17
 10
  6100.000
 20
 10002.652
 11
  6100.000
 21
 10015.353
  0
LINE
  8
17
 10
   223.650
 20
  9422.003
 11
   236.350
 21
  9422.003
  0
LINE
  8
17
 10
   230.000
 20
  9415.653
 11
   230.000
 21
  9428.354
  0
LINE
  8
1
 10
 11595.831
 20
  9423.695
 11
 11564.984
 21
  9115.233
  0
LINE
  8
1
 10
 11589.860
 20
  9424.292
 11
 11559.015
 21
  9115.830
  0
LINE
  8
1
 10
 11595.831
 20
  9423.695
 11
 11589.860
 21
  9424.292
  0
LINE
  8
1
 10
 11564.984
 20
  9115.233
 11
 11559.015
 21
  9115.830
  0
LINE
  8
17
 10
  6093.650
 20
 10009.002
 11
  6106.350
 21
 10009.002
  0
LINE
  8
17
 10
  6100.000
 20
 10002.652
 11
  6100.000
 21
 10015.353
  0
LINE
  8
17
 10
  6093.650
 20
  9748.010
 11
  6106.350
 21
  9748.010
  0
LINE
  8
17
 10
  6100.000
 20
  9741.659
 11
  6100.000
 21
  9754.359
  0
LINE
  8
17
 10
 11458.649
 20
  9099.532
 11
 11471.350
 21
  9099.532
  0
LINE
  8
17
 10
 11464.999
 20
  9093.182
 11
 11464.999
 21
  9105.882
  0
LINE
  8
17
 10
 11963.649
 20
  9099.532
 11
 11976.350
 21
  9099.532
  0
LINE
  8
17
 10
 11969.999
 20
  9093.182
 11
 11969.999
 21
  9105.882
  0
LINE
  8
17
 10
 11963.649
 20
  9422.003
 11
 11976.350
 21
  9422.003
  0
LINE
  8
17
 10
 11969.999
 20
  9415.653
 11
 11969.999
 21
  9428.354
  0
LINE
  8
17
 10
 11963.649
 20
  9099.532
 11
 11976.350
 21
  9099.532
  0
LINE
  8
17
 10
 11969.999
 20
  9093.182
 11
 11969.999
 21
  9105.882
  0
LINE
  8
17
 10
 11552.649
 20
  9099.532
 11
 11565.350
 21
  9099.532
  0
LINE
  8
17
 10
 11559.000
 20
  9093.182
 11
 11559.000
 21
  9105.882
  0
LINE
  8
17
 10
 11552.649
 20
     0.000
 11
 11565.350
 21
     0.000
  0
LINE
  8
17
 10
 11559.000
 20
    -6.350
 11
 11559.000
 21
     6.350
  0
LINE
  8
17
 10
 11963.649
 20
     0.000
 11
 11976.350
 21
     0.000
  0
LINE
  8
17
 10
 11969.999
 20
    -6.350
 11
 11969.999
 21
     6.350
  0
LINE
  8
5
 10
  1450.366
 20
  9745.037
 11
  1470.267
 21
  9546.029
  0
LINE
  8
5
 10
  2900.732
 20
  9890.073
 11
  2920.633
 21
  9691.066
  0
LINE
  8
5
 10
  4351.098
 20
 10035.110
 11
  4370.999
 21
  9836.104
  0
LINE
  8
5
 10
  5801.464
 20
 10180.146
 11
  5821.365
 21
  9981.140
  0
LINE
  8
5
 10
  6398.511
 20
 10180.148
 11
  6378.610
 21
  9981.141
  0
LINE
  8
5
 10
  7848.877
 20
 10035.112
 11
  7828.976
 21
  9836.104
  0
LINE
  8
5
 10
  9299.243
 20
  9890.075
 11
  9279.342
 21
  9691.068
  0
LINE
  8
5
 10
 10749.609
 20
  9745.038
 11
 10729.708
 21
  9546.031
  0
LINE
  8
5
 10
   571.500
 20
  3080.000
 11
   635.000
 21
  3080.000
  0
LINE
  8
5
 10
   571.500
 20
  6080.000
 11
   635.000
 21
  6080.000
  0
LINE
  8
5
 10
   571.500
 20
  3080.000
 11
   635.000
 21
  3080.000
  0
LINE
  8
5
 10
   571.500
 20
  6080.000
 11
   635.000
 21
  6080.000
  0
LINE
  8
5
 10
  1497.888
 20
  9269.813
 11
  1504.207
 21
  9206.629
  0
LINE
  8
5
 10
  4393.204
 20
  9614.052
 11
  4399.522
 21
  9550.867
  0
LINE
  8
5
 10
  5840.862
 20
  9786.171
 11
  5847.181
 21
  9722.986
  0
LINE
  8
5
 10
  1497.888
 20
  9269.813
 11
  1504.207
 21
  9206.629
  0
LINE
  8
5
 10
  4393.204
 20
  9614.052
 11
  4399.522
 21
  9550.867
  0
LINE
  8
5
 10
  5840.862
 20
  9786.171
 11
  5847.181
 21
  9722.986
  0
LINE
  8
5
 10
  6359.114
 20
  9786.173
 11
  6352.795
 21
  9722.988
  0
LINE
  8
5
 10
  7806.771
 20
  9614.055
 11
  7800.453
 21
  9550.870
  0
LINE
  8
5
 10
 10702.088
 20
  9269.817
 11
 10695.770
 21
  9206.633
  0
LINE
  8
5
 10
  6359.114
 20
  9786.173
 11
  6352.795
 21
  9722.988
  0
LINE
  8
5
 10
  7806.771
 20
  9614.055
 11
  7800.453
 21
  9550.870
  0
LINE
  8
5
 10
 10702.088
 20
  9269.817
 11
 10695.770
 21
  9206.633
  0
LINE
  8
5
 10
 11628.499
 20
  3080.000
 11
 11564.999
 21
  3080.000
  0
LINE
  8
5
 10
 11628.499
 20
  6080.000
 11
 11564.999
 21
  6080.000
  0
LINE
  8
5
 10
 11628.499
 20
  3080.000
 11
 11564.999
 21
  3080.000
  0
LINE
  8
5
 10
 11628.499
 20
  6080.000
 11
 11564.999
 21
  6080.000
  0
LINE
  8
17
 10
   223.650
 20
     0.000
 11
   236.350
 21
     0.000
  0
LINE
  8
17
 10
   230.000
 20
    -6.350
 11
   230.000
 21
     6.350
  0
LINE
  8
17
 10
   634.650
 20
     0.000
 11
   647.350
 21
     0.000
  0
LINE
  8
17
 10
   641.000
 20
    -6.350
 11
   641.000
 21
     6.350
  0
LINE
  8
17
 10
   634.650
 20
  9099.532
 11
   647.350
 21
  9099.532
  0
LINE
  8
17
 10
   641.000
 20
  9093.182
 11
   641.000
 21
  9105.882
  0
LINE
  8
17
 10
   223.650
 20
  9099.532
 11
   236.350
 21
  9099.532
  0
LINE
  8
17
 10
   230.000
 20
  9093.182
 11
   230.000
 21
  9105.882
  0
LINE
  8
1
 10
   610.139
 20
  9424.292
 11
   640.985
 21
  9115.830
  0
LINE
  8
1
 10
   604.169
 20
  9423.695
 11
   635.015
 21
  9115.233
  0
LINE
  8
1
 10
   610.139
 20
  9424.292
 11
   604.169
 21
  9423.695
  0
LINE
  8
1
 10
   640.985
 20
  9115.830
 11
   635.015
 21
  9115.233
  0
LINE
  8
17
 10
   223.650
 20
  9099.532
 11
   236.350
 21
  9099.532
  0
LINE
  8
17
 10
   230.000
 20
  9093.182
 11
   230.000
 21
  9105.882
  0
LINE
  8
17
 10
   728.650
 20
  9099.532
 11
   741.350
 21
  9099.532
  0
LINE
  8
17
 10
   735.000
 20
  9093.182
 11
   735.000
 21
  9105.882
  0
LINE
  8
17
 10
  6093.650
 20
  9748.010
 11
  6106.350
 21
  9748.010
  0
LINE
  8
17
 10
  6100.000
 20
  9741.659
 11
  6100.000
 21
  9754.359
  0
LINE
  8
17
 10
  6093.650
 20
 10009.002
 11
  6106.350
 21
 10009.002
  0
LINE
  8
17
 10
  6100.000
 20
 10002.652
 11
  6100.000
 21
 10015.353
  0
LINE
  8
17
 10
   223.650
 20
  9422.003
 11
   236.350
 21
  9422.003
  0
LINE
  8
17
 10
   230.000
 20
  9415.653
 11
   230.000
 21
  9428.354
  0
LINE
  8
1
 10
 11595.831
 20
  9423.695
 11
 11564.984
 21
  9115.233
  0
LINE
  8
1
 10
 11589.860
 20
  9424.292
 11
 11559.015
 21
  9115.830
  0
LINE
  8
1
 10
 11595.831
 20
  9423.695
 11
 11589.860
 21
  9424.292
  0
LINE
  8
1
 10
 11564.984
 20
  9115.233
 11
 11559.015
 21
  9115.830
  0
LINE
  8
17
 10
  6093.650
 20
 10009.002
 11
  6106.350
 21
 10009.002
  0
LINE
  8
17
 10
  6100.000
 20
 10002.652
 11
  6100.000
 21
 10015.353
  0
LINE
  8
17
 10
  6093.650
 20
  9748.010
 11
  6106.350
 21
  9748.010
  0
LINE
  8
17
 10
  6100.000
 20
  9741.659
 11
  6100.000
 21
  9754.359
  0
LINE
  8
17
 10
 11458.649
 20
  9099.532
 11
 11471.350
 21
  9099.532
  0
LINE
  8
17
 10
 11464.999
 20
  9093.182
 11
 11464.999
 21
  9105.882
  0
LINE
  8
17
 10
 11963.649
 20
  9099.532
 11
 11976.350
 21
  9099.532
  0
LINE
  8
17
 10
 11969.999
 20
  9093.182
 11
 11969.999
 21
  9105.882
  0
LINE
  8
17
 10
 11963.649
 20
  9422.003
 11
 11976.350
 21
  9422.003
  0
LINE
  8
17
 10
 11969.999
 20
  9415.653
 11
 11969.999
 21
  9428.354
  0
LINE
  8
17
 10
 11963.649
 20
  9099.532
 11
 11976.350
 21
  9099.532
  0
LINE
  8
17
 10
 11969.999
 20
  9093.182
 11
 11969.999
 21
  9105.882
  0
LINE
  8
17
 10
 11552.649
 20
  9099.532
 11
 11565.350
 21
  9099.532
  0
LINE
  8
17
 10
 11559.000
 20
  9093.182
 11
 11559.000
 21
  9105.882
  0
LINE
  8
17
 10
 11552.649
 20
     0.000
 11
 11565.350
 21
     0.000
  0
LINE
  8
17
 10
 11559.000
 20
    -6.350
 11
 11559.000
 21
     6.350
  0
LINE
  8
17
 10
 11963.649
 20
     0.000
 11
 11976.350
 21
     0.000
  0
LINE
  8
17
 10
 11969.999
 20
    -6.350
 11
 11969.999
 21
     6.350
  0
LINE
  8
5
 10
  1450.366
 20
  9745.037
 11
  1470.267
 21
  9546.029
  0
LINE
  8
5
 10
  2900.732
 20
  9890.073
 11
  2920.633
 21
  9691.066
  0
LINE
  8
5
 10
  4351.098
 20
 10035.110
 11
  4370.999
 21
  9836.104
  0
LINE
  8
5
 10
  5801.464
 20
 10180.146
 11
  5821.365
 21
  9981.140
  0
LINE
  8
5
 10
  6398.511
 20
 10180.148
 11
  6378.610
 21
  9981.141
  0
LINE
  8
5
 10
  7848.877
 20
 10035.112
 11
  7828.976
 21
  9836.104
  0
LINE
  8
5
 10
  9299.243
 20
  9890.075
 11
  9279.342
 21
  9691.068
  0
LINE
  8
5
 10
 10749.609
 20
  9745.038
 11
 10729.708
 21
  9546.031
  0
LINE
  8
5
 10
   571.500
 20
  3080.000
 11
   635.000
 21
  3080.000
  0
LINE
  8
5
 10
   571.500
 20
  6080.000
 11
   635.000
 21
  6080.000
  0
LINE
  8
5
 10
   571.500
 20
  3080.000
 11
   635.000
 21
  3080.000
  0
LINE
  8
5
 10
   571.500
 20
  6080.000
 11
   635.000
 21
  6080.000
  0
LINE
  8
5
 10
  1497.888
 20
  9269.813
 11
  1504.207
 21
  9206.629
  0
LINE
  8
5
 10
  4393.204
 20
  9614.052
 11
  4399.522
 21
  9550.867
  0
LINE
  8
5
 10
  5840.862
 20
  9786.171
 11
  5847.181
 21
  9722.986
  0
LINE
  8
5
 10
  1497.888
 20
  9269.813
 11
  1504.207
 21
  9206.629
  0
LINE
  8
5
 10
  4393.204
 20
  9614.052
 11
  4399.522
 21
  9550.867
  0
LINE
  8
5
 10
  5840.862
 20
  9786.171
 11
  5847.181
 21
  9722.986
  0
LINE
  8
5
 10
  6359.114
 20
  9786.173
 11
  6352.795
 21
  9722.988
  0
LINE
  8
5
 10
  7806.771
 20
  9614.055
 11
  7800.453
 21
  9550.870
  0
LINE
  8
5
 10
 10702.088
 20
  9269.817
 11
 10695.770
 21
  9206.633
  0
LINE
  8
5
 10
  6359.114
 20
  9786.173
 11
  6352.795
 21
  9722.988
  0
LINE
  8
5
 10
  7806.771
 20
  9614.055
 11
  7800.453
 21
  9550.870
  0
LINE
  8
5
 10
 10702.088
 20
  9269.817
 11
 10695.770
 21
  9206.633
  0
LINE
  8
5
 10
 11628.499
 20
  3080.000
 11
 11564.999
 21
  3080.000
  0
LINE
  8
5
 10
 11628.499
 20
  6080.000
 11
 11564.999
 21
  6080.000
  0
LINE
  8
5
 10
 11628.499
 20
  3080.000
 11
 11564.999
 21
  3080.000
  0
LINE
  8
5
 10
 11628.499
 20
  6080.000
 11
 11564.999
 21
  6080.000
  0
LINE
  8
17
 10
   223.650
 20
     0.000
 11
   236.350
 21
     0.000
  0
LINE
  8
17
 10
   230.000
 20
    -6.350
 11
   230.000
 21
     6.350
  0
LINE
  8
17
 10
   634.650
 20
     0.000
 11
   647.350
 21
     0.000
  0
LINE
  8
17
 10
   641.000
 20
    -6.350
 11
   641.000
 21
     6.350
  0
LINE
  8
17
 10
   634.650
 20
  9099.532
 11
   647.350
 21
  9099.532
  0
LINE
  8
17
 10
   641.000
 20
  9093.182
 11
   641.000
 21
  9105.882
  0
LINE
  8
17
 10
   223.650
 20
  9099.532
 11
   236.350
 21
  9099.532
  0
LINE
  8
17
 10
   230.000
 20
  9093.182
 11
   230.000
 21
  9105.882
  0
LINE
  8
1
 10
   610.139
 20
  9424.292
 11
   640.985
 21
  9115.830
  0
LINE
  8
1
 10
   604.169
 20
  9423.695
 11
   635.015
 21
  9115.233
  0
LINE
  8
1
 10
   610.139
 20
  9424.292
 11
   604.169
 21
  9423.695
  0
LINE
  8
1
 10
   640.985
 20
  9115.830
 11
   635.015
 21
  9115.233
  0
LINE
  8
17
 10
   223.650
 20
  9099.532
 11
   236.350
 21
  9099.532
  0
LINE
  8
17
 10
   230.000
 20
  9093.182
 11
   230.000
 21
  9105.882
  0
LINE
  8
17
 10
   728.650
 20
  9099.532
 11
   741.350
 21
  9099.532
  0
LINE
  8
17
 10
   735.000
 20
  9093.182
 11
   735.000
 21
  9105.882
  0
LINE
  8
17
 10
  6093.650
 20
  9748.010
 11
  6106.350
 21
  9748.010
  0
LINE
  8
17
 10
  6100.000
 20
  9741.659
 11
  6100.000
 21
  9754.359
  0
LINE
  8
17
 10
  6093.650
 20
 10009.002
 11
  6106.350
 21
 10009.002
  0
LINE
  8
17
 10
  6100.000
 20
 10002.652
 11
  6100.000
 21
 10015.353
  0
LINE
  8
17
 10
   223.650
 20
  9422.003
 11
   236.350
 21
  9422.003
  0
LINE
  8
17
 10
   230.000
 20
  9415.653
 11
   230.000
 21
  9428.354
  0
LINE
  8
1
 10
 11595.831
 20
  9423.695
 11
 11564.984
 21
  9115.233
  0
LINE
  8
1
 10
 11589.860
 20
  9424.292
 11
 11559.015
 21
  9115.830
  0
LINE
  8
1
 10
 11595.831
 20
  9423.695
 11
 11589.860
 21
  9424.292
  0
LINE
  8
1
 10
 11564.984
 20
  9115.233
 11
 11559.015
 21
  9115.830
  0
LINE
  8
17
 10
  6093.650
 20
 10009.002
 11
  6106.350
 21
 10009.002
  0
LINE
  8
17
 10
  6100.000
 20
 10002.652
 11
  6100.000
 21
 10015.353
  0
LINE
  8
17
 10
  6093.650
 20
  9748.010
 11
  6106.350
 21
  9748.010
  0
LINE
  8
17
 10
  6100.000
 20
  9741.659
 11
  6100.000
 21
  9754.359
  0
LINE
  8
17
 10
 11458.649
 20
  9099.532
 11
 11471.350
 21
  9099.532
  0
LINE
  8
17
 10
 11464.999
 20
  9093.182
 11
 11464.999
 21
  9105.882
  0
LINE
  8
17
 10
 11963.649
 20
  9099.532
 11
 11976.350
 21
  9099.532
  0
LINE
  8
17
 10
 11969.999
 20
  9093.182
 11
 11969.999
 21
  9105.882
  0
LINE
  8
17
 10
 11963.649
 20
  9422.003
 11
 11976.350
 21
  9422.003
  0
LINE
  8
17
 10
 11969.999
 20
  9415.653
 11
 11969.999
 21
  9428.354
  0
LINE
  8
17
 10
 11963.649
 20
  9099.532
 11
 11976.350
 21
  9099.532
  0
LINE
  8
17
 10
 11969.999
 20
  9093.182
 11
 11969.999
 21
  9105.882
  0
LINE
  8
17
 10
 11552.649
 20
  9099.532
 11
 11565.350
 21
  9099.532
  0
LINE
  8
17
 10
 11559.000
 20
  9093.182
 11
 11559.000
 21
  9105.882
  0
LINE
  8
17
 10
 11552.649
 20
     0.000
 11
 11565.350
 21
     0.000
  0
LINE
  8
17
 10
 11559.000
 20
    -6.350
 11
 11559.000
 21
     6.350
  0
LINE
  8
17
 10
 11963.649
 20
     0.000
 11
 11976.350
 21
     0.000
  0
LINE
  8
17
 10
 11969.999
 20
    -6.350
 11
 11969.999
 21
     6.350
  0
TEXT
  8
16
 10
  -254.000
 20
  4232.266
 40
   127.000
  1
RF2-1
 50
    90.000
  0
TEXT
  8
16
 10
  2803.901
 20
 10135.657
 40
   127.000
  1
RF2-2
 50
     5.711
  0
TEXT
  8
16
 10
  8764.250
 20
 10198.842
 40
   127.000
  1
RF2-2
 50
    -5.711
  0
TEXT
  8
16
 10
 12453.999
 20
  4867.266
 40
   127.000
  1
RF2-3
 50
   -90.000
  0
LINE
  8
0
 10
 -1522.329
 20
  -548.404
 11
 13722.328
 21
  -548.404
  0
LINE
  8
0
 10
 13722.328
 20
  -548.404
 11
 13722.328
 21
 10885.089
  0
LINE
  8
0
 10
 13722.328
 20
 10885.089
 11
 -1522.329
 21
 10885.089
  0
LINE
  8
0
 10
 -1522.329
 20
 10885.089
 11
 -1522.329
 21
  -548.404
  0
LINE
  8
0
 10
 -1522.329
 20
  -171.099
 11
 13722.328
 21
  -171.099
  0
TEXT
  8
0
 10
  3207.326
 20
  -485.520
 40
   251.537
  1
Rigid Frame Detailing 2
 50
     0.000
  0
TEXT
  8
0
 10
 -1396.560
 20
  -485.520
 40
   251.537
  1
C163-027
 50
     0.000
  0
TEXT
  8
0
 10
 10829.654
 20
  -485.520
 40
   251.537
  1
19/JAN/2026
 50
     0.000
  0
ENDSEC
  0
EOF
