  0
SECTION
  2
HEADER
  9
$ACADVER
  1
AC1009
  9
$EXTMIN
 10
-59755.633
 20
 -329974.1
  9
$EXTMAX
 10
 1226462.4
 20
634689.438
  9
$LIMMIN
 10
-59755.633
 20
 -329974.1
  9
$LIMMAX
 10
 1226462.4
 20
634689.438
  9
$FILLMODE
 70
     1
  9
$HANDLING
 70
     0
  0
ENDSEC
  0
SECTION
  2
TABLES
  0
TABLE
  2
LTYPE
 70
1
  0
LTYPE
  2
CONTIN
 70
    64
  3
SOLID LINE
 72
    65
 73
     0
 40
0.0
  0
LTYPE
  2
CONTINUOUS
 70
    64
  3
SOLID LINE
 72
    65
 73
     0
 40
0.0
  0
LTYPE
  2
CENTER
 70
    64
  3
____ _ ____ _ ____ _ ____ _ ____ _ ____ _ ____
 72
    65
 73
     4
 40
     0.321
 49
     0.201
 49
    -0.040
 49
     0.040
 49
    -0.040
  0
LTYPE
  2
DASHED
 70
    64
  3
__ __ __ __ __ __ __ __ __ __ __ __ __ __ __ 
 72
    65
 73
     2
 40
 15434.61
 49
 10289.74
 49
 -5144.87
  0
ENDTAB
  0
TABLE
  2
LAYER
 70
30
  0
LAYER
  2
0
 70
     0
 62
     7
  6
CONTIN
  0
LAYER
  2
1
 70
     0
 62
     7
  6
CONTIN
  0
LAYER
  2
2
 70
     0
 62
     7
  6
CONTIN
  0
LAYER
  2
3
 70
     0
 62
     7
  6
CONTIN
  0
LAYER
  2
4
 70
     0
 62
     5
  6
CONTIN
  0
LAYER
  2
5
 70
     0
 62
     5
  6
DASHED
  0
LAYER
  2
6
 70
     0
 62
     5
  6
DASHED
  0
LAYER
  2
7
 70
     0
 62
     5
  6
CONTIN
  0
LAYER
  2
8
 70
     0
 62
     5
  6
DASHED
  0
LAYER
  2
9
 70
     0
 62
     7
  6
CONTIN
  0
LAYER
  2
10
 70
     0
 62
     7
  6
CONTIN
  0
LAYER
  2
11
 70
     0
 62
     6
  6
DASHED
  0
LAYER
  2
12
 70
     0
 62
     7
  6
DASHED
  0
LAYER
  2
13
 70
     0
 62
     5
  6
DASHED
  0
LAYER
  2
14
 70
     0
 62
     7
  6
CONTIN
  0
LAYER
  2
15
 70
     0
 62
     5
  6
CONTIN
  0
LAYER
  2
16
 70
     0
 62
     7
  6
CONTIN
  0
LAYER
  2
17
 70
     0
 62
     7
  6
CONTIN
  0
LAYER
  2
18
 70
     0
 62
     7
  6
CONTIN
  0
LAYER
  2
19
 70
     0
 62
     7
  6
CONTIN
  0
LAYER
  2
20
 70
     0
 62
     1
  6
CONTIN
  0
LAYER
  2
21
 70
     0
 62
     7
  6
CONTIN
  0
LAYER
  2
22
 70
     0
 62
     7
  6
DASHED
  0
LAYER
  2
23
 70
     0
 62
     7
  6
DASHED
  0
LAYER
  2
24
 70
     0
 62
     7
  6
CONTIN
  0
LAYER
  2
25
 70
     0
 62
     7
  6
CONTIN
  0
LAYER
  2
26
 70
     0
 62
     7
  6
CONTIN
  0
LAYER
  2
27
 70
     0
 62
     1
  6
CENTER
  0
LAYER
  2
28
 70
     0
 62
     7
  6
CONTIN
  0
LAYER
  2
29
 70
     0
 62
     3
  6
DASHED
  0
ENDTAB
  0
TABLE
  2
STYLE
 70
  0
  0
ENDTAB
  0
ENDSEC
  0
SECTION
  2
ENTITIES
  0
LINE
  8
2
 10
     0.000
 20
309880.000
 11
     0.000
 21
     0.000
  0
LINE
  8
2
 10
     0.000
 20
     0.000
 11
 1161542.0
 21
     0.000
  0
LINE
  8
2
 10
 1161542.0
 20
     0.000
 11
 1161542.0
 21
309880.000
  0
LINE
  8
2
 10
 1161542.0
 20
309880.000
 11
     0.000
 21
309880.000
  0
TEXT
  8
2
 10
 -1291.167
 20
153648.828
 40
  5164.667
  1
LEW
 50
  -270.000
  0
TEXT
  8
2
 10
575606.312
 20
 -6455.833
 40
  5164.667
  1
FSW
 50
     0.000
  0
TEXT
  8
2
 10
 1167997.9
 20
161395.828
 40
  5164.667
  1
REW
 50
    90.000
  0
TEXT
  8
2
 10
575606.312
 20
311171.156
 40
  5164.667
  1
BSW
 50
     0.000
  0
LINE
  8
13
 10
 10541.000
 20
    12.700
 11
 10541.000
 21
309867.281
  0
TEXT
  8
2
 10
 16996.834
 20
 61983.621
 40
  5164.667
  1
RF 1
 50
    90.000
  0
LINE
  8
13
 10
 1151001.0
 20
    12.700
 11
 1151001.0
 21
309867.281
  0
TEXT
  8
2
 10
 1149709.9
 20
 61983.621
 40
  5164.667
  1
RF 1
 50
    90.000
  0
LINE
  8
13
 10
198247.000
 20
    12.700
 11
198247.000
 21
309867.281
  0
TEXT
  8
2
 10
196955.828
 20
 61983.621
 40
  5164.667
  1
RF 2
 50
    90.000
  0
LINE
  8
13
 10
389509.000
 20
    12.700
 11
389509.000
 21
309867.281
  0
TEXT
  8
2
 10
388217.844
 20
 61983.621
 40
  5164.667
  1
RF 2
 50
    90.000
  0
LINE
  8
13
 10
580771.000
 20
    12.700
 11
580771.000
 21
309867.281
  0
TEXT
  8
2
 10
579479.812
 20
 61983.621
 40
  5164.667
  1
RF 2
 50
    90.000
  0
LINE
  8
13
 10
772033.000
 20
    12.700
 11
772033.000
 21
309867.281
  0
TEXT
  8
2
 10
770741.812
 20
 61983.621
 40
  5164.667
  1
RF 2
 50
    90.000
  0
LINE
  8
13
 10
963295.000
 20
    12.700
 11
963295.000
 21
309867.281
  0
TEXT
  8
2
 10
962003.875
 20
 61983.621
 40
  5164.667
  1
RF 2
 50
    90.000
  0
LINE
  8
0
 10
-59755.633
 20
 -329974.1
 11
 1226462.4
 21
 -329974.1
  0
LINE
  8
0
 10
 1226462.4
 20
 -329974.1
 11
 1226462.4
 21
634689.438
  0
LINE
  8
0
 10
 1226462.4
 20
634689.438
 11
-59755.633
 21
634689.438
  0
LINE
  8
0
 10
-59755.633
 20
634689.438
 11
-59755.633
 21
 -329974.1
  0
LINE
  8
0
 10
-59755.633
 20
 -298140.2
 11
 1226462.4
 21
 -298140.2
  0
TEXT
  8
0
 10
456017.750
 20
 -324668.4
 40
 21222.598
  1
Frame Layout
 50
     0.000
  0
TEXT
  8
0
 10
-49144.332
 20
 -324668.4
 40
 21222.598
  1
C163-027
 50
     0.000
  0
TEXT
  8
0
 10
982402.562
 20
 -324668.4
 40
 21222.598
  1
19/JAN/2026
 50
     0.000
  0
ENDSEC
  0
EOF
