  0
SECTION
  2
HEADER
  9
$ACADVER
  1
AC1009
  9
$EXTMIN
 10
 -2461.460
 20
-12421.096
  9
$EXTMAX
 10
 46661.461
 20
 24421.096
  9
$LIMMIN
 10
 -2461.460
 20
-12421.096
  9
$LIMMAX
 10
 46661.461
 20
 24421.096
  9
$FILLMODE
 70
     1
  9
$HANDLING
 70
     0
  0
ENDSEC
  0
SECTION
  2
TABLES
  0
TABLE
  2
LTYPE
 70
1
  0
LTYPE
  2
CONTIN
 70
    64
  3
SOLID LINE
 72
    65
 73
     0
 40
0.0
  0
LTYPE
  2
CONTINUOUS
 70
    64
  3
SOLID LINE
 72
    65
 73
     0
 40
0.0
  0
LTYPE
  2
CENTER
 70
    64
  3
____ _ ____ _ ____ _ ____ _ ____ _ ____ _ ____
 72
    65
 73
     4
 40
     8.405
 49
     5.253
 49
    -1.051
 49
     1.051
 49
    -1.051
  0
LTYPE
  2
DASHED
 70
    64
  3
__ __ __ __ __ __ __ __ __ __ __ __ __ __ __ 
 72
    65
 73
     2
 40
   589.47
 49
   392.98
 49
  -196.49
  0
ENDTAB
  0
TABLE
  2
LAYER
 70
30
  0
LAYER
  2
0
 70
     0
 62
     7
  6
CONTIN
  0
LAYER
  2
1
 70
     0
 62
     7
  6
CONTIN
  0
LAYER
  2
2
 70
     0
 62
     7
  6
CONTIN
  0
LAYER
  2
3
 70
     0
 62
     7
  6
CONTIN
  0
LAYER
  2
4
 70
     0
 62
     5
  6
CONTIN
  0
LAYER
  2
5
 70
     0
 62
     5
  6
DASHED
  0
LAYER
  2
6
 70
     0
 62
     5
  6
DASHED
  0
LAYER
  2
7
 70
     0
 62
     5
  6
CONTIN
  0
LAYER
  2
8
 70
     0
 62
     5
  6
DASHED
  0
LAYER
  2
9
 70
     0
 62
     7
  6
CONTIN
  0
LAYER
  2
10
 70
     0
 62
     7
  6
CONTIN
  0
LAYER
  2
11
 70
     0
 62
     6
  6
DASHED
  0
LAYER
  2
12
 70
     0
 62
     7
  6
DASHED
  0
LAYER
  2
13
 70
     0
 62
     5
  6
DASHED
  0
LAYER
  2
14
 70
     0
 62
     7
  6
CONTIN
  0
LAYER
  2
15
 70
     0
 62
     5
  6
CONTIN
  0
LAYER
  2
16
 70
     0
 62
     7
  6
CONTIN
  0
LAYER
  2
17
 70
     0
 62
     7
  6
CONTIN
  0
LAYER
  2
18
 70
     0
 62
     7
  6
CONTIN
  0
LAYER
  2
19
 70
     0
 62
     7
  6
CONTIN
  0
LAYER
  2
20
 70
     0
 62
     1
  6
CONTIN
  0
LAYER
  2
21
 70
     0
 62
     7
  6
CONTIN
  0
LAYER
  2
22
 70
     0
 62
     7
  6
DASHED
  0
LAYER
  2
23
 70
     0
 62
     7
  6
DASHED
  0
LAYER
  2
24
 70
     0
 62
     7
  6
CONTIN
  0
LAYER
  2
25
 70
     0
 62
     7
  6
CONTIN
  0
LAYER
  2
26
 70
     0
 62
     7
  6
CONTIN
  0
LAYER
  2
27
 70
     0
 62
     1
  6
CENTER
  0
LAYER
  2
28
 70
     0
 62
     7
  6
CONTIN
  0
LAYER
  2
29
 70
     0
 62
     3
  6
DASHED
  0
ENDTAB
  0
TABLE
  2
STYLE
 70
  0
  0
ENDTAB
  0
ENDSEC
  0
SECTION
  2
ENTITIES
  0
LINE
  8
7
 10
     0.000
 20
 12000.000
 11
     0.000
 21
     0.000
  0
LINE
  8
7
 10
     0.000
 20
     0.000
 11
 44200.000
 21
     0.000
  0
LINE
  8
7
 10
 44200.000
 20
     0.000
 11
 44200.000
 21
 12000.000
  0
LINE
  8
7
 10
 44200.000
 20
 12000.000
 11
     0.000
 21
 12000.000
  0
LINE
  8
17
 10
   152.400
 20
 12152.400
 11
  -152.400
 21
 11847.600
  0
LINE
  8
17
 10
   152.400
 20
 11847.600
 11
  -152.400
 21
 12152.400
  0
LINE
  8
17
 10
   152.400
 20
  6152.400
 11
  -152.400
 21
  5847.600
  0
LINE
  8
17
 10
   152.400
 20
  5847.600
 11
  -152.400
 21
  6152.400
  0
LINE
  8
17
 10
  -152.400
 20
   152.400
 11
   152.400
 21
  -152.400
  0
LINE
  8
17
 10
   152.400
 20
   152.400
 11
  -152.400
 21
  -152.400
  0
LINE
  8
17
 10
  6947.600
 20
   152.400
 11
  7252.400
 21
  -152.400
  0
LINE
  8
17
 10
  7252.400
 20
   152.400
 11
  6947.600
 21
  -152.400
  0
LINE
  8
17
 10
 14447.600
 20
   152.400
 11
 14752.400
 21
  -152.400
  0
LINE
  8
17
 10
 14752.400
 20
   152.400
 11
 14447.600
 21
  -152.400
  0
LINE
  8
17
 10
 21947.600
 20
   152.400
 11
 22252.400
 21
  -152.400
  0
LINE
  8
17
 10
 22252.400
 20
   152.400
 11
 21947.600
 21
  -152.400
  0
LINE
  8
17
 10
 29447.600
 20
   152.400
 11
 29752.400
 21
  -152.400
  0
LINE
  8
17
 10
 29752.400
 20
   152.400
 11
 29447.600
 21
  -152.400
  0
LINE
  8
17
 10
 36947.602
 20
   152.400
 11
 37252.402
 21
  -152.400
  0
LINE
  8
17
 10
 37252.402
 20
   152.400
 11
 36947.602
 21
  -152.400
  0
LINE
  8
17
 10
 44047.598
 20
  -152.400
 11
 44352.398
 21
   152.400
  0
LINE
  8
17
 10
 44047.598
 20
   152.400
 11
 44352.398
 21
  -152.400
  0
LINE
  8
17
 10
 44047.598
 20
  5847.600
 11
 44352.398
 21
  6152.400
  0
LINE
  8
17
 10
 44047.598
 20
  6152.400
 11
 44352.398
 21
  5847.600
  0
LINE
  8
17
 10
 44352.398
 20
 11847.600
 11
 44047.598
 21
 12152.400
  0
LINE
  8
17
 10
 44047.598
 20
 11847.600
 11
 44352.398
 21
 12152.400
  0
LINE
  8
17
 10
 37252.398
 20
 11847.600
 11
 36947.598
 21
 12152.399
  0
LINE
  8
17
 10
 36947.598
 20
 11847.600
 11
 37252.398
 21
 12152.399
  0
LINE
  8
17
 10
 29752.396
 20
 11847.599
 11
 29447.598
 21
 12152.398
  0
LINE
  8
17
 10
 29447.598
 20
 11847.599
 11
 29752.396
 21
 12152.398
  0
LINE
  8
17
 10
 22252.400
 20
 11847.599
 11
 21947.600
 21
 12152.397
  0
LINE
  8
17
 10
 21947.600
 20
 11847.598
 11
 22252.400
 21
 12152.398
  0
LINE
  8
17
 10
 14752.398
 20
 11847.598
 11
 14447.599
 21
 12152.397
  0
LINE
  8
17
 10
 14447.599
 20
 11847.598
 11
 14752.398
 21
 12152.397
  0
LINE
  8
17
 10
  7252.397
 20
 11847.597
 11
  6947.598
 21
 12152.396
  0
LINE
  8
17
 10
  6947.598
 20
 11847.597
 11
  7252.397
 21
 12152.396
  0
LINE
  8
8
 10
  -228.600
 20
 11128.600
 11
  -228.600
 21
   771.399
  0
LINE
  8
8
 10
  -228.600
 20
   771.399
 11
 44428.598
 21
   771.399
  0
LINE
  8
8
 10
 44428.598
 20
   771.399
 11
 44428.598
 21
 11128.600
  0
LINE
  8
8
 10
 44428.598
 20
 11128.600
 11
  -228.600
 21
 11128.600
  0
TEXT
  8
21
 10
 21189.854
 20
  5950.000
 40
   127.000
  1
Crane System  1
 50
     0.000
  0
LINE
  8
1
 10
   517.400
 20
 10900.000
 11
  6947.600
 21
 10900.000
  0
TEXT
  8
16
 10
  3457.354
 20
 10741.250
 40
   127.000
  1
Beam1
 50
     0.000
  0
LINE
  8
1
 10
   517.400
 20
   999.999
 11
  6947.600
 21
   999.999
  0
TEXT
  8
16
 10
  3436.146
 20
  1031.749
 40
   127.000
  1
Beam2
 50
     0.000
  0
LINE
  8
1
 10
  7252.400
 20
 10900.000
 11
 14447.600
 21
 10900.000
  0
TEXT
  8
16
 10
 10553.645
 20
 10741.250
 40
   127.000
  1
Beam3
 50
     0.000
  0
LINE
  8
1
 10
  7252.400
 20
   999.999
 11
 14447.600
 21
   999.999
  0
TEXT
  8
16
 10
 10553.645
 20
  1031.749
 40
   127.000
  1
Beam4
 50
     0.000
  0
LINE
  8
1
 10
 14752.400
 20
 10900.000
 11
 21947.600
 21
 10900.000
  0
TEXT
  8
16
 10
 18053.645
 20
 10741.250
 40
   127.000
  1
Beam5
 50
     0.000
  0
LINE
  8
1
 10
 14752.400
 20
   999.999
 11
 21947.600
 21
   999.999
  0
TEXT
  8
16
 10
 18053.645
 20
  1031.749
 40
   127.000
  1
Beam6
 50
     0.000
  0
LINE
  8
1
 10
 22252.400
 20
 10900.000
 11
 29447.600
 21
 10900.000
  0
TEXT
  8
16
 10
 25553.646
 20
 10741.250
 40
   127.000
  1
Beam7
 50
     0.000
  0
LINE
  8
1
 10
 22252.400
 20
   999.999
 11
 29447.600
 21
   999.999
  0
TEXT
  8
16
 10
 25553.646
 20
  1031.749
 40
   127.000
  1
Beam8
 50
     0.000
  0
LINE
  8
1
 10
 29752.400
 20
 10900.000
 11
 36947.602
 21
 10900.000
  0
TEXT
  8
16
 10
 33053.648
 20
 10741.250
 40
   127.000
  1
Beam9
 50
     0.000
  0
LINE
  8
1
 10
 29752.400
 20
   999.999
 11
 36947.602
 21
   999.999
  0
TEXT
  8
16
 10
 33021.961
 20
  1031.749
 40
   127.000
  1
Beam10
 50
     0.000
  0
LINE
  8
1
 10
 37252.402
 20
 10900.000
 11
 43682.602
 21
 10900.000
  0
TEXT
  8
16
 10
 40150.062
 20
 10741.250
 40
   127.000
  1
Beam11
 50
     0.000
  0
LINE
  8
1
 10
 37252.402
 20
   999.999
 11
 43682.602
 21
   999.999
  0
TEXT
  8
16
 10
 40128.855
 20
  1031.749
 40
   127.000
  1
Beam12
 50
     0.000
  0
LINE
  8
3
 10
   669.800
 20
 11204.800
 11
   365.000
 21
 11509.600
  0
LINE
  8
3
 10
   365.000
 20
 11509.600
 11
   974.600
 21
 11509.600
  0
LINE
  8
3
 10
   974.600
 20
 11509.600
 11
   669.800
 21
 11204.800
  0
LINE
  8
3
 10
  6795.200
 20
 11204.800
 11
  6490.400
 21
 11509.600
  0
LINE
  8
3
 10
  6490.400
 20
 11509.600
 11
  7100.000
 21
 11509.600
  0
LINE
  8
3
 10
  7100.000
 20
 11509.600
 11
  6795.200
 21
 11204.800
  0
LINE
  8
3
 10
  7404.800
 20
 11204.800
 11
  7100.000
 21
 11509.600
  0
LINE
  8
3
 10
  7100.000
 20
 11509.600
 11
  7709.600
 21
 11509.600
  0
LINE
  8
3
 10
  7709.600
 20
 11509.600
 11
  7404.800
 21
 11204.800
  0
LINE
  8
3
 10
 14295.200
 20
 11204.800
 11
 13990.400
 21
 11509.600
  0
LINE
  8
3
 10
 13990.400
 20
 11509.600
 11
 14600.000
 21
 11509.600
  0
LINE
  8
3
 10
 14600.000
 20
 11509.600
 11
 14295.200
 21
 11204.800
  0
LINE
  8
3
 10
 14904.800
 20
 11204.800
 11
 14600.000
 21
 11509.600
  0
LINE
  8
3
 10
 14600.000
 20
 11509.600
 11
 15209.600
 21
 11509.600
  0
LINE
  8
3
 10
 15209.600
 20
 11509.600
 11
 14904.800
 21
 11204.800
  0
LINE
  8
3
 10
 21795.199
 20
 11204.800
 11
 21490.400
 21
 11509.600
  0
LINE
  8
3
 10
 21490.400
 20
 11509.600
 11
 22100.000
 21
 11509.600
  0
LINE
  8
3
 10
 22100.000
 20
 11509.600
 11
 21795.199
 21
 11204.800
  0
LINE
  8
3
 10
 22404.799
 20
 11204.800
 11
 22100.000
 21
 11509.600
  0
LINE
  8
3
 10
 22100.000
 20
 11509.600
 11
 22709.600
 21
 11509.600
  0
LINE
  8
3
 10
 22709.600
 20
 11509.600
 11
 22404.799
 21
 11204.800
  0
LINE
  8
3
 10
 29295.201
 20
 11204.800
 11
 28990.400
 21
 11509.600
  0
LINE
  8
3
 10
 28990.400
 20
 11509.600
 11
 29600.000
 21
 11509.600
  0
LINE
  8
3
 10
 29600.000
 20
 11509.600
 11
 29295.201
 21
 11204.800
  0
LINE
  8
3
 10
 29904.801
 20
 11204.800
 11
 29600.000
 21
 11509.600
  0
LINE
  8
3
 10
 29600.000
 20
 11509.600
 11
 30209.600
 21
 11509.600
  0
LINE
  8
3
 10
 30209.600
 20
 11509.600
 11
 29904.801
 21
 11204.800
  0
LINE
  8
3
 10
 36795.203
 20
 11204.800
 11
 36490.402
 21
 11509.600
  0
LINE
  8
3
 10
 36490.402
 20
 11509.600
 11
 37100.000
 21
 11509.600
  0
LINE
  8
3
 10
 37100.000
 20
 11509.600
 11
 36795.203
 21
 11204.800
  0
LINE
  8
3
 10
 37404.801
 20
 11204.800
 11
 37100.000
 21
 11509.600
  0
LINE
  8
3
 10
 37100.000
 20
 11509.600
 11
 37709.602
 21
 11509.600
  0
LINE
  8
3
 10
 37709.602
 20
 11509.600
 11
 37404.801
 21
 11204.800
  0
LINE
  8
3
 10
 43530.203
 20
 11204.800
 11
 43225.402
 21
 11509.600
  0
LINE
  8
3
 10
 43225.402
 20
 11509.600
 11
 43835.000
 21
 11509.600
  0
LINE
  8
3
 10
 43835.000
 20
 11509.600
 11
 43530.203
 21
 11204.800
  0
LINE
  8
3
 10
   669.800
 20
   695.199
 11
   365.000
 21
   390.399
  0
LINE
  8
3
 10
   365.000
 20
   390.399
 11
   974.600
 21
   390.399
  0
LINE
  8
3
 10
   974.600
 20
   390.399
 11
   669.800
 21
   695.199
  0
LINE
  8
3
 10
  6795.200
 20
   695.199
 11
  6490.400
 21
   390.399
  0
LINE
  8
3
 10
  6490.400
 20
   390.399
 11
  7100.000
 21
   390.399
  0
LINE
  8
3
 10
  7100.000
 20
   390.399
 11
  6795.200
 21
   695.199
  0
LINE
  8
3
 10
  7404.800
 20
   695.199
 11
  7100.000
 21
   390.399
  0
LINE
  8
3
 10
  7100.000
 20
   390.399
 11
  7709.600
 21
   390.399
  0
LINE
  8
3
 10
  7709.600
 20
   390.399
 11
  7404.800
 21
   695.199
  0
LINE
  8
3
 10
 14295.200
 20
   695.199
 11
 13990.400
 21
   390.399
  0
LINE
  8
3
 10
 13990.400
 20
   390.399
 11
 14600.000
 21
   390.399
  0
LINE
  8
3
 10
 14600.000
 20
   390.399
 11
 14295.200
 21
   695.199
  0
LINE
  8
3
 10
 14904.800
 20
   695.199
 11
 14600.000
 21
   390.399
  0
LINE
  8
3
 10
 14600.000
 20
   390.399
 11
 15209.600
 21
   390.399
  0
LINE
  8
3
 10
 15209.600
 20
   390.399
 11
 14904.800
 21
   695.199
  0
LINE
  8
3
 10
 21795.199
 20
   695.199
 11
 21490.400
 21
   390.399
  0
LINE
  8
3
 10
 21490.400
 20
   390.399
 11
 22100.000
 21
   390.399
  0
LINE
  8
3
 10
 22100.000
 20
   390.399
 11
 21795.199
 21
   695.199
  0
LINE
  8
3
 10
 22404.799
 20
   695.199
 11
 22100.000
 21
   390.399
  0
LINE
  8
3
 10
 22100.000
 20
   390.399
 11
 22709.600
 21
   390.399
  0
LINE
  8
3
 10
 22709.600
 20
   390.399
 11
 22404.799
 21
   695.199
  0
LINE
  8
3
 10
 29295.201
 20
   695.199
 11
 28990.400
 21
   390.399
  0
LINE
  8
3
 10
 28990.400
 20
   390.399
 11
 29600.000
 21
   390.399
  0
LINE
  8
3
 10
 29600.000
 20
   390.399
 11
 29295.201
 21
   695.199
  0
LINE
  8
3
 10
 29904.801
 20
   695.199
 11
 29600.000
 21
   390.399
  0
LINE
  8
3
 10
 29600.000
 20
   390.399
 11
 30209.600
 21
   390.399
  0
LINE
  8
3
 10
 30209.600
 20
   390.399
 11
 29904.801
 21
   695.199
  0
LINE
  8
3
 10
 36795.203
 20
   695.199
 11
 36490.402
 21
   390.399
  0
LINE
  8
3
 10
 36490.402
 20
   390.399
 11
 37100.000
 21
   390.399
  0
LINE
  8
3
 10
 37100.000
 20
   390.399
 11
 36795.203
 21
   695.199
  0
LINE
  8
3
 10
 37404.801
 20
   695.199
 11
 37100.000
 21
   390.399
  0
LINE
  8
3
 10
 37100.000
 20
   390.399
 11
 37709.602
 21
   390.399
  0
LINE
  8
3
 10
 37709.602
 20
   390.399
 11
 37404.801
 21
   695.199
  0
LINE
  8
3
 10
 43530.203
 20
   695.199
 11
 43225.402
 21
   390.399
  0
LINE
  8
3
 10
 43225.402
 20
   390.399
 11
 43835.000
 21
   390.399
  0
LINE
  8
3
 10
 43835.000
 20
   390.399
 11
 43530.203
 21
   695.199
  0
LINE
  8
0
 10
 -2461.460
 20
-12421.096
 11
 46661.461
 21
-12421.096
  0
LINE
  8
0
 10
 46661.461
 20
-12421.096
 11
 46661.461
 21
 24421.096
  0
LINE
  8
0
 10
 46661.461
 20
 24421.096
 11
 -2461.460
 21
 24421.096
  0
LINE
  8
0
 10
 -2461.460
 20
 24421.096
 11
 -2461.460
 21
-12421.096
  0
LINE
  8
0
 10
 -2461.460
 20
-11205.304
 11
 46661.461
 21
-11205.304
  0
TEXT
  8
0
 10
 17236.830
 20
-12218.464
 40
   810.528
  1
Crane Design
 50
     0.000
  0
TEXT
  8
0
 10
 -2056.197
 20
-12218.464
 40
   810.528
  1
C163-027_Crane
 50
     0.000
  0
TEXT
  8
0
 10
 37340.387
 20
-12218.464
 40
   810.528
  1
28/NOV/2025
 50
     0.000
  0
ENDSEC
  0
EOF
