999
SOURCE:MBS   PROGRAM:CRANEDWG   CELL:CrnDwg1   CLASS:PLAN   MODE:
  0
SECTION
  2
HEADER
  9
$ACADVER
  1
AC1009
  9
$EXTMIN
 10
0.00000000
 20
0.00000000
  9
$EXTMAX
 10
420.000000
 20
297.000000
  9
$LIMMIN
 10
0.00000000
 20
0.00000000
  9
$LIMMAX
 10
420.000000
 20
297.000000
  9
$FILLMODE
 70
     1
  9
$HANDLING
 70
     0
  0
ENDSEC
  0
SECTION
  2
TABLES
  0
TABLE
  2
LTYPE
 70
4
  0
LTYPE
  2
CONTIN
 70
   64
  3
SOLID LINE
  72
   65
 73
    0
 40
 0.000
  0
LTYPE
  2
CENTER
 70
   64
  3
____ _ ____ _ _
  72
   65
 73
    4
 40
25.400
 49
15.875
 49
-3.175
 49
 3.175
 49
-3.175
  0
LTYPE
  2
DASHED
 70
   64
  3
__ __ __ __ __
  72
   65
 73
    2
 40
 4.763
 49
 3.175
 49
-1.575
  0
LTYPE
  2
CONTINUOUS
 70
   64
  3
SOLID LINE
  72
   65
 73
    0
 40
 0.000
  0
ENDTAB
  0
TABLE
  2
LAYER
 70
27
  0
LAYER
  2
0
 70
     0
 62
     7
  6
CONTIN
  0
LAYER
  2
1
 70
     0
 62
     7
  6
CONTIN
  0
LAYER
  2
2
 70
     0
 62
     6
  6
CONTIN
  0
LAYER
  2
3
 70
     0
 62
     7
  6
CONTIN
  0
LAYER
  2
4
 70
     0
 62
     7
  6
CONTIN
  0
LAYER
  2
5
 70
     0
 62
     5
  6
DASHED
  0
LAYER
  2
6
 70
     0
 62
     6
  6
CONTIN
  0
LAYER
  2
7
 70
     0
 62
     7
  6
CONTIN
  0
LAYER
  2
8
 70
     0
 62
     8
  6
DASHED
  0
LAYER
  2
9
 70
     0
 62
     9
  6
DASHED
  0
LAYER
  2
10
 70
     0
 62
    10
  6
CONTIN
  0
LAYER
  2
11
 70
     0
 62
     7
  6
CONTIN
  0
LAYER
  2
12
 70
     0
 62
     6
  6
CONTIN
  0
LAYER
  2
13
 70
     0
 62
     1
  6
CONTIN
  0
LAYER
  2
14
 70
     0
 62
     7
  6
CONTIN
  0
LAYER
  2
15
 70
     0
 62
     7
  6
CONTIN
  0
LAYER
  2
16
 70
     0
 62
     7
  6
CONTIN
  0
LAYER
  2
17
 70
     0
 62
     5
  6
CONTIN
  0
LAYER
  2
18
 70
     0
 62
     7
  6
CONTIN
  0
LAYER
  2
19
 70
     0
 62
     7
  6
CONTIN
  0
LAYER
  2
20
 70
     0
 62
     7
  6
CONTIN
  0
LAYER
  2
21
 70
     0
 62
     7
  6
CONTIN
  0
LAYER
  2
22
 70
     0
 62
     7
  6
CONTIN
  0
LAYER
  2
23
 70
     0
 62
     7
  6
DASHED
  0
LAYER
  2
24
 70
     0
 62
     7
  6
CONTIN
  0
LAYER
  2
25
 70
     0
 62
     7
  6
CONTIN
  0
LAYER
  2
26
 70
     0
 62
     7
  6
CONTIN
  0
LAYER
  2
27
 70
     0
 62
     1
  6
CENTER
  0
ENDTAB
  0
TABLE
  2
STYLE
 70
  0
  0
STYLE
  2
SIMPLEX
 70
  0
 40
  0.000
 41
  1.000
 42
  1.000
 50
  0.000
 71
  0
  3
SIMPLEX
  0
STYLE
  2
ROMANS
 70
  0
 40
  0.000
 41
  1.000
 42
  1.000
 50
  0.000
 71
  0
  3
ROMANS
  0
STYLE
  2
OPEN
 70
  0
 40
  0.000
 41
  1.000
 42
  1.000
 50
  0.000
 71
  0
  3
SIMPLEX
  0
STYLE
  2
ARIAL
 70
  0
 40
  0.000
 41
  1.000
 42
  1.000
 50
  0.000
 71
  0
  3
ARIAL.TTF
  0
STYLE
  2
VERDANAB
 70
  0
 40
  0.000
 41
  1.000
 42
  1.000
 50
  0.000
 71
  0
  3
VERDANAB.TTF
  0
ENDTAB
  0
ENDSEC
  0
SECTION
  2
BLOCKS
  0
BLOCK
  8
0
  2
ARROW
 70
     0
 10
0.00000000
 20
0.00000000
  0
LINE
  8
0
 10
0.00000000
 20
0.00000000
 11
-289.65689
 21
-48.276150
  0
LINE
  8
0
 10
0.00000000
 20
0.00000000
 11
-289.65689
 21
48.2761498
  0
LINE
  8
0
 10
-289.65689
 20
48.2761498
 11
-289.65689
 21
-48.276150
  0
LINE
  8
0
 10
0.00000000
 20
0.00000000
 11
-405.51968
 21
0.00000000
  0
ENDBLK
  8
0
  0
BLOCK
  8
0
  2
ARROWP
 70
     0
 10
0.00000000
 20
0.00000000
  0
LINE
  8
0
 10
0.00000000
 20
0.00000000
 11
-289.65689
 21
-48.276150
  0
LINE
  8
0
 10
0.00000000
 20
0.00000000
 11
-289.65689
 21
48.2761498
  0
LINE
  8
0
 10
-289.65689
 20
48.2761498
 11
-289.65689
 21
-48.276150
  0
ENDBLK
  8
0
  0
BLOCK
  8
0
  2
ARROWA
 70
     0
 10
0.00000000
 20
0.00000000
  0
LINE
  8
3
 10
289.656891
 20
0.00000000
 11
0.00000000
 21
-48.276150
  0
LINE
  8
3
 10
289.656891
 20
0.00000000
 11
0.00000000
 21
48.2761498
  0
LINE
  8
3
 10
0.00000000
 20
48.2761498
 11
0.00000000
 21
-48.276150
  0
ENDBLK
  8
0
  0
BLOCK
  8
0
  2
ARROWB
 70
     0
 10
0.00000000
 20
0.00000000
  0
LINE
  8
0
 10
0.00000000
 20
0.00000000
 11
-25.400000
 21
-4.2333317
  0
LINE
  8
0
 10
0.00000000
 20
0.00000000
 11
-25.400000
 21
4.23333168
  0
LINE
  8
0
 10
-25.400000
 20
4.23333168
 11
-25.400000
 21
-4.2333317
  0
LINE
  8
0
 10
0.00000000
 20
0.00000000
 11
-27.940001
 21
0.00000000
  0
ENDBLK
  8
0
  0
BLOCK
  8
0
  2
TICK
 70
     0
 10
0.00000000
 20
0.00000000
  0
LINE
  8
0
 10
-55.703255
 20
-55.703255
 11
55.7032585
 21
55.7032585
  0
ENDBLK
  8
0
  0
BLOCK
  8
0
  2
CIRCLE
 70
     0
 10
0.00000000
 20
0.00000000
  0
CIRCLE
  8
1
 10
    0.000
 20
    0.000
 40
   25.400
  0
ENDBLK
  8
3
  0
BLOCK
  8
0
  2
DIAMOND
 70
     0
 10
0.00000000
 20
0.00000000
  0
LINE
  8
0
 10
0.00000000
 20
0.00000000
 11
12.6999998
 21
12.6999998
  0
LINE
  8
0
 10
12.6999998
 20
12.6999998
 11
0.00000000
 21
25.3999996
  0
LINE
  8
0
 10
0.00000000
 20
25.3999996
 11
-12.700000
 21
12.6999998
  0
LINE
  8
0
 10
-12.700000
 20
12.6999998
 11
0.00000000
 21
0.00000000
  0
ENDBLK
  8
0
  0
BLOCK
  8
0
  2
WCOL
 70
     0
 10
0.00000000
 20
0.00000000
  0
LINE
  8
0
 10
-178.25043
 20
401.063416
 11
178.250412
 21
401.063416
  0
LINE
  8
0
 10
0.00000000
 20
401.063416
 11
0.00000000
 21
0.00000000
  0
LINE
  8
0
 10
-178.25043
 20
0.00000000
 11
178.250412
 21
0.00000000
  0
ENDBLK
  8
0
  0
BLOCK
  8
0
  2
WCOL2
 70
     0
 10
0.00000000
 20
0.00000000
  0
LINE
  8
0
 10
-178.25043
 20
0.00000000
 11
178.250412
 21
0.00000000
  0
LINE
  8
0
 10
0.00000000
 20
401.063416
 11
0.00000000
 21
0.00000000
  0
ENDBLK
  8
0
  0
BLOCK
  8
0
  2
PCOL
 70
     0
 10
0.00000000
 20
0.00000000
  0
CIRCLE
  8
0
 10
0.00000000
 20
0.00000000
 40
178.250412
  0
ENDBLK
  8
0
  0
BLOCK
  8
0
  2
ZCOL
 70
     0
 10
0.00000000
 20
0.00000000
  0
LINE
  8
0
 10
178.250412
 20
401.063416
 11
11.1406508
 21
401.063416
  0
LINE
  8
0
 10
11.1406508
 20
401.063416
 11
11.1406508
 21
0.00000000
  0
LINE
  8
0
 10
11.1406508
 20
0.00000000
 11
-178.25043
 21
0.00000000
  0
ENDBLK
  8
0
  0
BLOCK
  8
0
  2
TCOL
 70
     0
 10
0.00000000
 20
0.00000000
  0
LINE
  8
0
 10
-155.96910
 20
-155.96910
 11
155.969101
 21
-155.96910
  0
LINE
  8
0
 10
155.969101
 20
-155.96910
 11
155.969101
 21
155.969101
  0
LINE
  8
0
 10
155.969101
 20
155.969101
 11
-155.96910
 21
155.969101
  0
LINE
  8
0
 10
-155.96910
 20
155.969101
 11
-155.96910
 21
-155.96910
  0
ENDBLK
  8
0
  0
BLOCK
  8
0
  2
TCOL2
 70
     0
 10
0.00000000
 20
0.00000000
  0
LINE
  8
0
 10
-77.984551
 20
-155.96910
 11
77.9845505
 21
-155.96910
  0
LINE
  8
0
 10
77.9845505
 20
-155.96910
 11
77.9845505
 21
155.969101
  0
LINE
  8
0
 10
77.9845505
 20
155.969101
 11
-77.984551
 21
155.969101
  0
LINE
  8
0
 10
-77.984551
 20
155.969101
 11
-77.984551
 21
-155.96910
  0
ENDBLK
  8
0
  0
BLOCK
  8
0
  2
SCCOL
 70
     0
 10
0.00000000
 20
0.00000000
  0
LINE
  8
0
 10
178.250412
 20
356.500824
 11
178.250412
 21
401.063416
  0
LINE
  8
0
 10
178.250412
 20
401.063416
 11
11.1406508
 21
401.063416
  0
LINE
  8
0
 10
11.1406508
 20
401.063416
 11
11.1406508
 21
0.00000000
  0
LINE
  8
0
 10
11.1406508
 20
0.00000000
 11
178.250412
 21
0.00000000
  0
LINE
  8
0
 10
178.250412
 20
0.00000000
 11
178.250412
 21
44.5626030
  0
ENDBLK
  8
0
  0
BLOCK
  8
0
  2
GCOL
 70
     0
 10
0.00000000
 20
0.00000000
  0
LINE
  8
0
 10
401.063416
 20
133.687820
 11
356.500824
 21
133.687820
  0
LINE
  8
0
 10
401.063416
 20
401.063416
 11
401.063416
 21
133.687820
  0
LINE
  8
0
 10
401.063416
 20
401.063416
 11
0.00000000
 21
401.063416
  0
LINE
  8
0
 10
0.00000000
 20
401.063416
 11
0.00000000
 21
0.00000000
  0
LINE
  8
0
 10
0.00000000
 20
0.00000000
 11
267.375610
 21
0.00000000
  0
LINE
  8
0
 10
267.375610
 20
0.00000000
 11
267.375610
 21
44.5626030
  0
ENDBLK
  8
0
  0
BLOCK
  8
0
  2
UCOL
 70
     0
 10
0.00000000
 20
0.00000000
  0
LINE
  8
0
 10
178.250412
 20
401.063416
 11
11.1406508
 21
401.063416
  0
LINE
  8
0
 10
11.1406508
 20
401.063416
 11
11.1406508
 21
0.00000000
  0
LINE
  8
0
 10
11.1406508
 20
0.00000000
 11
178.250412
 21
0.00000000
  0
ENDBLK
  8
0
  0
BLOCK
  8
0
  2
DCCOL
 70
     0
 10
0.00000000
 20
0.00000000
  0
INSERT
  8
0
  2
SCCOL
 10
0.00000000
 20
0.00000000
 41
1.00000000
 42
1.00000000
 43
1.00000000
 50
    0.000
  0
INSERT
  8
0
  2
SCCOL
 10
0.00000000
 20
0.00000000
 41
-1.0000000
 42
1.00000000
 43
1.00000000
 50
    0.000
  0
ENDBLK
  8
0
  0
BLOCK
  8
0
  2
XCOL
 70
     0
 10
0.00000000
 20
0.00000000
  0
LINE
  8
0
 10
-267.37561
 20
401.063416
 11
267.375610
 21
401.063416
  0
LINE
  8
0
 10
-267.37561
 20
401.063416
 11
-267.37561
 21
0.00000000
  0
LINE
  8
0
 10
267.375610
 20
401.063416
 11
267.375610
 21
0.00000000
  0
LINE
  8
0
 10
-267.37561
 20
0.00000000
 11
267.375610
 21
0.00000000
  0
ENDBLK
  8
0
  0
BLOCK
  8
0
  2
HILIGHT
 70
     0
 10
0.00000000
 20
0.00000000
  0
LINE
  8
0
 10
-401.06339
 20
-222.81302
 11
401.063416
 21
-222.81302
  0
LINE
  8
0
 10
-401.06339
 20
623.876465
 11
401.063416
 21
623.876465
  0
LINE
  8
0
 10
-401.06339
 20
-222.81302
 11
-401.06339
 21
623.876465
  0
LINE
  8
0
 10
401.063416
 20
-222.81302
 11
401.063416
 21
623.876465
  0
ENDBLK
  8
0
  0
BLOCK
  8
0
  2
ANCHOR
 70
     0
 10
0.00000000
 20
0.00000000
  0
LINE
  8
0
 10
0.00000000
 20
22470.0000
 11
0.00000000
 21
0.00000000
  0
LINE
  8
0
 10
36285.0000
 20
0.00000000
 11
36285.0000
 21
22470.0000
  0
LINE
  8
0
 10
0.00000000
 20
0.00000000
 11
36285.0000
 21
0.00000000
  0
LINE
  8
0
 10
36285.0000
 20
22470.0000
 11
0.00000000
 21
22470.0000
  0
INSERT
  8
10
  2
WCOL
 10
230.000015
 20
11235.0000
 41
1.00000000
 42
1.00000000
 43
1.00000000
 50
 -90.000
  0
INSERT
  8
10
  2
WCOL
 10
36055.0000
 20
11235.0000
 41
1.00000000
 42
1.00000000
 43
1.00000000
 50
  90.000
  0
INSERT
  8
10
  2
WCOL
 10
439.999970
 20
230.000015
 41
1.00000000
 42
1.00000000
 43
1.00000000
 50
   0.000
  0
INSERT
  8
10
  2
WCOL
 10
6200.00000
 20
230.000015
 41
1.00000000
 42
1.00000000
 43
1.00000000
 50
   0.000
  0
INSERT
  8
10
  2
WCOL
 10
12190.0000
 20
230.000015
 41
1.00000000
 42
1.00000000
 43
1.00000000
 50
   0.000
  0
INSERT
  8
10
  2
WCOL
 10
18335.0000
 20
230.000015
 41
1.00000000
 42
1.00000000
 43
1.00000000
 50
   0.000
  0
INSERT
  8
10
  2
WCOL
 10
24035.0000
 20
230.000015
 41
1.00000000
 42
1.00000000
 43
1.00000000
 50
   0.000
  0
INSERT
  8
10
  2
WCOL
 10
30035.0020
 20
230.000015
 41
1.00000000
 42
1.00000000
 43
1.00000000
 50
   0.000
  0
INSERT
  8
10
  2
WCOL
 10
35845.0000
 20
230.000015
 41
1.00000000
 42
1.00000000
 43
1.00000000
 50
   0.000
  0
INSERT
  8
10
  2
WCOL
 10
439.999970
 20
22240.0000
 41
1.00000000
 42
1.00000000
 43
1.00000000
 50
 180.000
  0
INSERT
  8
10
  2
WCOL
 10
6200.00000
 20
22240.0000
 41
1.00000000
 42
1.00000000
 43
1.00000000
 50
 180.000
  0
INSERT
  8
10
  2
WCOL
 10
12190.0000
 20
22240.0000
 41
1.00000000
 42
1.00000000
 43
1.00000000
 50
 180.000
  0
INSERT
  8
10
  2
WCOL
 10
18335.0000
 20
22240.0000
 41
1.00000000
 42
1.00000000
 43
1.00000000
 50
 180.000
  0
INSERT
  8
10
  2
WCOL
 10
24035.0000
 20
22240.0000
 41
1.00000000
 42
1.00000000
 43
1.00000000
 50
 180.000
  0
INSERT
  8
10
  2
WCOL
 10
30035.0020
 20
22240.0000
 41
1.00000000
 42
1.00000000
 43
1.00000000
 50
 180.000
  0
INSERT
  8
10
  2
WCOL
 10
35845.0000
 20
22240.0000
 41
1.00000000
 42
1.00000000
 43
1.00000000
 50
 180.000
  0
LINE
  8
1
 10
121.534355
 20
21643.9746
 11
6159.48877
 21
21643.9746
  0
LINE
  8
1
 10
121.534355
 20
826.024780
 11
6159.48877
 21
826.024780
  0
LINE
  8
1
 10
6240.51221
 20
21643.9746
 11
12149.4883
 21
21643.9746
  0
LINE
  8
1
 10
6240.51221
 20
826.024780
 11
12149.4883
 21
826.024780
  0
LINE
  8
1
 10
12230.5117
 20
21643.9746
 11
18294.4883
 21
21643.9746
  0
LINE
  8
1
 10
12230.5117
 20
826.024780
 11
18294.4883
 21
826.024780
  0
LINE
  8
1
 10
18375.5098
 20
21643.9746
 11
23994.4902
 21
21643.9746
  0
LINE
  8
1
 10
18375.5098
 20
826.024780
 11
23994.4902
 21
826.024780
  0
LINE
  8
1
 10
24075.5117
 20
21643.9746
 11
29994.4902
 21
21643.9746
  0
LINE
  8
1
 10
24075.5117
 20
826.024780
 11
29994.4902
 21
826.024780
  0
LINE
  8
1
 10
30075.5098
 20
21643.9746
 11
36163.4648
 21
21643.9746
  0
LINE
  8
1
 10
30075.5098
 20
826.024780
 11
36163.4648
 21
826.024780
  0
LINE
  8
10
 10
342.519287
 20
21838.9355
 11
342.519287
 21
21490.7910
  0
LINE
  8
10
 10
342.519287
 20
21490.7910
 11
537.480652
 21
21490.7910
  0
LINE
  8
10
 10
537.480652
 20
21490.7910
 11
537.480652
 21
21838.9355
  0
LINE
  8
10
 10
537.480652
 20
21838.9355
 11
342.519287
 21
21838.9355
  0
LINE
  8
10
 10
342.519287
 20
631.063416
 11
342.519287
 21
979.208740
  0
LINE
  8
10
 10
342.519287
 20
979.208740
 11
537.480652
 21
979.208740
  0
LINE
  8
10
 10
537.480652
 20
979.208740
 11
537.480652
 21
631.063416
  0
LINE
  8
10
 10
537.480652
 20
631.063416
 11
342.519287
 21
631.063416
  0
LINE
  8
10
 10
6102.51904
 20
21838.9355
 11
6102.51904
 21
21490.7910
  0
LINE
  8
10
 10
6102.51904
 20
21490.7910
 11
6297.48096
 21
21490.7910
  0
LINE
  8
10
 10
6297.48096
 20
21490.7910
 11
6297.48096
 21
21838.9355
  0
LINE
  8
10
 10
6297.48096
 20
21838.9355
 11
6102.51904
 21
21838.9355
  0
LINE
  8
10
 10
6102.51904
 20
631.063416
 11
6102.51904
 21
979.208740
  0
LINE
  8
10
 10
6102.51904
 20
979.208740
 11
6297.48096
 21
979.208740
  0
LINE
  8
10
 10
6297.48096
 20
979.208740
 11
6297.48096
 21
631.063416
  0
LINE
  8
10
 10
6297.48096
 20
631.063416
 11
6102.51904
 21
631.063416
  0
LINE
  8
10
 10
12092.5195
 20
21838.9355
 11
12092.5195
 21
21490.7910
  0
LINE
  8
10
 10
12092.5195
 20
21490.7910
 11
12287.4805
 21
21490.7910
  0
LINE
  8
10
 10
12287.4805
 20
21490.7910
 11
12287.4805
 21
21838.9355
  0
LINE
  8
10
 10
12287.4805
 20
21838.9355
 11
12092.5195
 21
21838.9355
  0
LINE
  8
10
 10
12092.5195
 20
631.063416
 11
12092.5195
 21
979.208740
  0
LINE
  8
10
 10
12092.5195
 20
979.208740
 11
12287.4805
 21
979.208740
  0
LINE
  8
10
 10
12287.4805
 20
979.208740
 11
12287.4805
 21
631.063416
  0
LINE
  8
10
 10
12287.4805
 20
631.063416
 11
12092.5195
 21
631.063416
  0
LINE
  8
10
 10
18237.5195
 20
21838.9355
 11
18237.5195
 21
21490.7910
  0
LINE
  8
10
 10
18237.5195
 20
21490.7910
 11
18432.4805
 21
21490.7910
  0
LINE
  8
10
 10
18432.4805
 20
21490.7910
 11
18432.4805
 21
21838.9355
  0
LINE
  8
10
 10
18432.4805
 20
21838.9355
 11
18237.5195
 21
21838.9355
  0
LINE
  8
10
 10
18237.5195
 20
631.063416
 11
18237.5195
 21
979.208740
  0
LINE
  8
10
 10
18237.5195
 20
979.208740
 11
18432.4805
 21
979.208740
  0
LINE
  8
10
 10
18432.4805
 20
979.208740
 11
18432.4805
 21
631.063416
  0
LINE
  8
10
 10
18432.4805
 20
631.063416
 11
18237.5195
 21
631.063416
  0
LINE
  8
10
 10
23937.5195
 20
21838.9355
 11
23937.5195
 21
21490.7910
  0
LINE
  8
10
 10
23937.5195
 20
21490.7910
 11
24132.4824
 21
21490.7910
  0
LINE
  8
10
 10
24132.4824
 20
21490.7910
 11
24132.4824
 21
21838.9355
  0
LINE
  8
10
 10
24132.4824
 20
21838.9355
 11
23937.5195
 21
21838.9355
  0
LINE
  8
10
 10
23937.5195
 20
631.063416
 11
23937.5195
 21
979.208740
  0
LINE
  8
10
 10
23937.5195
 20
979.208740
 11
24132.4824
 21
979.208740
  0
LINE
  8
10
 10
24132.4824
 20
979.208740
 11
24132.4824
 21
631.063416
  0
LINE
  8
10
 10
24132.4824
 20
631.063416
 11
23937.5195
 21
631.063416
  0
LINE
  8
10
 10
29937.5195
 20
21838.9355
 11
29937.5195
 21
21490.7910
  0
LINE
  8
10
 10
29937.5195
 20
21490.7910
 11
30132.4805
 21
21490.7910
  0
LINE
  8
10
 10
30132.4805
 20
21490.7910
 11
30132.4805
 21
21838.9355
  0
LINE
  8
10
 10
30132.4805
 20
21838.9355
 11
29937.5195
 21
21838.9355
  0
LINE
  8
10
 10
29937.5195
 20
631.063416
 11
29937.5195
 21
979.208740
  0
LINE
  8
10
 10
29937.5195
 20
979.208740
 11
30132.4805
 21
979.208740
  0
LINE
  8
10
 10
30132.4805
 20
979.208740
 11
30132.4805
 21
631.063416
  0
LINE
  8
10
 10
30132.4805
 20
631.063416
 11
29937.5195
 21
631.063416
  0
LINE
  8
10
 10
35747.5195
 20
21838.9355
 11
35747.5195
 21
21490.7910
  0
LINE
  8
10
 10
35747.5195
 20
21490.7910
 11
35942.4766
 21
21490.7910
  0
LINE
  8
10
 10
35942.4766
 20
21490.7910
 11
35942.4766
 21
21838.9355
  0
LINE
  8
10
 10
35942.4766
 20
21838.9355
 11
35747.5195
 21
21838.9355
  0
LINE
  8
10
 10
35747.5195
 20
631.063416
 11
35747.5195
 21
979.208740
  0
LINE
  8
10
 10
35747.5195
 20
979.208740
 11
35942.4766
 21
979.208740
  0
LINE
  8
10
 10
35942.4766
 20
979.208740
 11
35942.4766
 21
631.063416
  0
LINE
  8
10
 10
35942.4766
 20
631.063416
 11
35747.5195
 21
631.063416
  0
LINE
  8
9
 10
14705.4668
 20
21838.9355
 11
14705.4668
 21
631.063416
  0
LINE
  8
9
 10
14705.4668
 20
631.063416
 11
15819.5332
 21
631.063416
  0
LINE
  8
9
 10
15819.5332
 20
631.063416
 11
15819.5332
 21
21838.9355
  0
LINE
  8
9
 10
15819.5332
 20
21838.9355
 11
14705.4668
 21
21838.9355
  0
TEXT
  8
9
 7
SIMPLEX
 10
15123.2412
 20
10260.1934
 40
278.516266
  1
Crane # 1
 50
  90.000
  0
TEXT
  8
9
 7
SIMPLEX
 10
15541.0156
 20
8728.35352
 40
278.516266
  1
     50.0kN
 50
  90.000
  0
LINE
  8
2
 10
-2471.1987
 20
0.00000000
 11
-2471.1987
 21
22470.0000
  0
LINE
  8
12
 10
-243.06873
 20
0.00000000
 11
-2714.2673
 21
0.00000000
  0
LINE
  8
12
 10
-243.06873
 20
1200.00110
 11
-2714.2673
 21
1200.00110
  0
LINE
  8
12
 10
-243.06873
 20
21270.0000
 11
-2714.2673
 21
21270.0000
  0
LINE
  8
12
 10
-243.06873
 20
22470.0000
 11
-2714.2673
 21
22470.0000
  0
LINE
  8
2
 10
-2471.1987
 20
0.00000000
 11
-2471.1987
 21
-810.22906
  0
INSERT
  8
2
  2
ARROW
 10
-2471.1987
 20
0.00000000
 41
1.00000000
 42
1.00000000
 43
1.00000000
 50
  90.000
  0
INSERT
  8
2
  2
ARROW
 10
-2471.1987
 20
1200.00110
 41
1.00000000
 42
1.00000000
 43
1.00000000
 50
 270.000
  0
TEXT
  8
11
 7
SIMPLEX
 10
-2540.8279
 20
139.258133
 40
278.516266
  1
1200
 50
  90.000
  0
INSERT
  8
2
  2
ARROW
 10
-2471.1987
 20
1200.00110
 41
1.00000000
 42
1.00000000
 43
1.00000000
 50
 270.000
  0
INSERT
  8
2
  2
ARROW
 10
-2471.1987
 20
21270.0000
 41
1.00000000
 42
1.00000000
 43
1.00000000
 50
  90.000
  0
TEXT
  8
11
 7
SIMPLEX
 10
-2540.8271
 20
10538.7100
 40
278.516266
  1
20070
 50
  90.000
  0
LINE
  8
2
 10
-2471.1987
 20
22470.0000
 11
-2471.1987
 21
23280.2305
  0
INSERT
  8
2
  2
ARROW
 10
-2471.1987
 20
21270.0000
 41
1.00000000
 42
1.00000000
 43
1.00000000
 50
  90.000
  0
INSERT
  8
2
  2
ARROW
 10
-2471.1987
 20
22470.0000
 41
1.00000000
 42
1.00000000
 43
1.00000000
 50
 270.000
  0
TEXT
  8
11
 7
SIMPLEX
 10
-2540.8279
 20
21355.9355
 40
278.516266
  1
1200
 50
  90.000
  0
TEXT
  8
9
 7
SIMPLEX
 10
24381.1680
 20
11235.0010
 40
278.516266
  1
Crane System  1
 50
   0.000
  0
TEXT
  8
9
 7
SIMPLEX
 10
24381.1680
 20
10817.2266
 40
278.516266
  1
Elevation: 6200
 50
   0.000
  0
LINE
  8
12
 10
0.00000000
 20
-243.06873
 11
0.00000000
 21
-6370.4268
  0
LINE
  8
2
 10
0.00000000
 20
-5813.3940
 11
36285.0000
 21
-5813.3940
  0
LINE
  8
12
 10
36285.0000
 20
-243.06873
 11
36285.0000
 21
-6370.4268
  0
LINE
  8
12
 10
6200.00000
 20
-3585.2639
 11
6200.00000
 21
-6370.4268
  0
LINE
  8
12
 10
12190.0000
 20
-3585.2639
 11
12190.0000
 21
-6370.4268
  0
LINE
  8
12
 10
18335.0000
 20
-3585.2639
 11
18335.0000
 21
-6370.4268
  0
LINE
  8
12
 10
24035.0000
 20
-3585.2639
 11
24035.0000
 21
-6370.4268
  0
LINE
  8
12
 10
30035.0020
 20
-3585.2639
 11
30035.0020
 21
-6370.4268
  0
INSERT
  8
2
  2
ARROW
 10
0.00000000
 20
-5813.3940
 41
1.00000000
 42
1.00000000
 43
1.00000000
 50
 180.000
  0
INSERT
  8
2
  2
ARROW
 10
6200.00000
 20
-5813.3940
 41
1.00000000
 42
1.00000000
 43
1.00000000
 50
   0.000
  0
INSERT
  8
2
  2
ARROW
 10
6200.00000
 20
-5813.3940
 41
1.00000000
 42
1.00000000
 43
1.00000000
 50
 180.000
  0
INSERT
  8
2
  2
ARROW
 10
12190.0000
 20
-5813.3940
 41
1.00000000
 42
1.00000000
 43
1.00000000
 50
   0.000
  0
INSERT
  8
2
  2
ARROW
 10
12190.0000
 20
-5813.3940
 41
1.00000000
 42
1.00000000
 43
1.00000000
 50
 180.000
  0
INSERT
  8
2
  2
ARROW
 10
18335.0000
 20
-5813.3940
 41
1.00000000
 42
1.00000000
 43
1.00000000
 50
   0.000
  0
INSERT
  8
2
  2
ARROW
 10
18335.0000
 20
-5813.3940
 41
1.00000000
 42
1.00000000
 43
1.00000000
 50
 180.000
  0
INSERT
  8
2
  2
ARROW
 10
24035.0000
 20
-5813.3940
 41
1.00000000
 42
1.00000000
 43
1.00000000
 50
   0.000
  0
INSERT
  8
2
  2
ARROW
 10
24035.0000
 20
-5813.3940
 41
1.00000000
 42
1.00000000
 43
1.00000000
 50
 180.000
  0
INSERT
  8
2
  2
ARROW
 10
30035.0020
 20
-5813.3940
 41
1.00000000
 42
1.00000000
 43
1.00000000
 50
   0.000
  0
INSERT
  8
2
  2
ARROW
 10
30035.0020
 20
-5813.3940
 41
1.00000000
 42
1.00000000
 43
1.00000000
 50
 180.000
  0
INSERT
  8
2
  2
ARROW
 10
36285.0000
 20
-5813.3940
 41
1.00000000
 42
1.00000000
 43
1.00000000
 50
   0.000
  0
CIRCLE
  8
13
 10
0.00000000
 20
-6704.6465
 40
334.219513
  0
TEXT
  8
13
 7
SIMPLEX
 10
-97.759201
 20
-6855.0449
 40
300.797546
  1
1
 72
      1
 11
0.00000000
 21
-6855.0449
 50
   0.000
  0
CIRCLE
  8
13
 10
36285.0000
 20
-6704.6465
 40
334.219513
  0
TEXT
  8
13
 7
SIMPLEX
 10
36134.6016
 20
-6855.0449
 40
300.797546
  1
7
 72
      1
 11
36285.0000
 21
-6855.0449
 50
   0.000
  0
CIRCLE
  8
13
 10
6200.00000
 20
-6704.6465
 40
334.219513
  0
TEXT
  8
13
 7
SIMPLEX
 10
6049.60107
 20
-6855.0449
 40
300.797546
  1
2
 72
      1
 11
6200.00000
 21
-6855.0449
 50
   0.000
  0
CIRCLE
  8
13
 10
12190.0000
 20
-6704.6465
 40
334.219513
  0
TEXT
  8
13
 7
SIMPLEX
 10
12039.6016
 20
-6855.0449
 40
300.797546
  1
3
 72
      1
 11
12190.0000
 21
-6855.0449
 50
   0.000
  0
CIRCLE
  8
13
 10
18335.0000
 20
-6704.6465
 40
334.219513
  0
TEXT
  8
13
 7
SIMPLEX
 10
18184.6016
 20
-6855.0449
 40
300.797546
  1
4
 72
      1
 11
18335.0000
 21
-6855.0449
 50
   0.000
  0
CIRCLE
  8
13
 10
24035.0000
 20
-6704.6465
 40
334.219513
  0
TEXT
  8
13
 7
SIMPLEX
 10
23884.6016
 20
-6855.0449
 40
300.797546
  1
5
 72
      1
 11
24035.0000
 21
-6855.0449
 50
   0.000
  0
CIRCLE
  8
13
 10
30035.0020
 20
-6704.6465
 40
334.219513
  0
TEXT
  8
13
 7
SIMPLEX
 10
29884.5977
 20
-6855.0449
 40
300.797546
  1
6
 72
      1
 11
30035.0020
 21
-6855.0449
 50
   0.000
  0
TEXT
  8
11
 7
SIMPLEX
 10
2762.96777
 20
-5743.7646
 40
278.516266
  1
6200
 50
   0.000
  0
TEXT
  8
11
 7
SIMPLEX
 10
8637.96680
 20
-5743.7646
 40
278.516266
  1
5990
 50
   0.000
  0
TEXT
  8
11
 7
SIMPLEX
 10
14775.0957
 20
-5743.7646
 40
278.516266
  1
6145
 50
   0.000
  0
TEXT
  8
11
 7
SIMPLEX
 10
20627.9688
 20
-5743.7646
 40
278.516266
  1
5700
 50
   0.000
  0
TEXT
  8
11
 7
SIMPLEX
 10
26477.9688
 20
-5743.7646
 40
278.516266
  1
6000
 50
   0.000
  0
TEXT
  8
11
 7
SIMPLEX
 10
32382.9688
 20
-5743.7646
 40
278.516266
  1
6250
 50
   0.000
  0
TEXT
  8
15
 7
SIMPLEX
 10
15970.0732
 20
-7930.1167
 40
445.626038
  1
CRANE PLAN
 72
      1
 11
18142.5000
 21
-7930.1167
 50
   0.000
  0
LINE
  8
12
 10
0.00000000
 20
22713.0684
 11
0.00000000
 21
30433.5352
  0
LINE
  8
2
 10
0.00000000
 20
28394.8008
 11
36285.0000
 21
28394.8008
  0
LINE
  8
12
 10
36285.0000
 20
22713.0684
 11
36285.0000
 21
30433.5352
  0
LINE
  8
12
 10
6200.00000
 20
26166.6699
 11
6200.00000
 21
28951.8340
  0
LINE
  8
12
 10
12190.0000
 20
26166.6699
 11
12190.0000
 21
28951.8340
  0
LINE
  8
12
 10
18335.0000
 20
26166.6699
 11
18335.0000
 21
28951.8340
  0
LINE
  8
12
 10
24035.0000
 20
26166.6699
 11
24035.0000
 21
28951.8340
  0
LINE
  8
12
 10
30035.0020
 20
26166.6699
 11
30035.0020
 21
28951.8340
  0
INSERT
  8
2
  2
ARROW
 10
0.00000000
 20
28394.8008
 41
1.00000000
 42
1.00000000
 43
1.00000000
 50
 180.000
  0
INSERT
  8
2
  2
ARROW
 10
6200.00000
 20
28394.8008
 41
1.00000000
 42
1.00000000
 43
1.00000000
 50
   0.000
  0
INSERT
  8
2
  2
ARROW
 10
6200.00000
 20
28394.8008
 41
1.00000000
 42
1.00000000
 43
1.00000000
 50
 180.000
  0
INSERT
  8
2
  2
ARROW
 10
12190.0000
 20
28394.8008
 41
1.00000000
 42
1.00000000
 43
1.00000000
 50
   0.000
  0
INSERT
  8
2
  2
ARROW
 10
12190.0000
 20
28394.8008
 41
1.00000000
 42
1.00000000
 43
1.00000000
 50
 180.000
  0
INSERT
  8
2
  2
ARROW
 10
18335.0000
 20
28394.8008
 41
1.00000000
 42
1.00000000
 43
1.00000000
 50
   0.000
  0
INSERT
  8
2
  2
ARROW
 10
18335.0000
 20
28394.8008
 41
1.00000000
 42
1.00000000
 43
1.00000000
 50
 180.000
  0
INSERT
  8
2
  2
ARROW
 10
24035.0000
 20
28394.8008
 41
1.00000000
 42
1.00000000
 43
1.00000000
 50
   0.000
  0
INSERT
  8
2
  2
ARROW
 10
24035.0000
 20
28394.8008
 41
1.00000000
 42
1.00000000
 43
1.00000000
 50
 180.000
  0
INSERT
  8
2
  2
ARROW
 10
30035.0020
 20
28394.8008
 41
1.00000000
 42
1.00000000
 43
1.00000000
 50
   0.000
  0
INSERT
  8
2
  2
ARROW
 10
30035.0020
 20
28394.8008
 41
1.00000000
 42
1.00000000
 43
1.00000000
 50
 180.000
  0
INSERT
  8
2
  2
ARROW
 10
36285.0000
 20
28394.8008
 41
1.00000000
 42
1.00000000
 43
1.00000000
 50
   0.000
  0
CIRCLE
  8
13
 10
0.00000000
 20
30767.7559
 40
334.219513
  0
TEXT
  8
13
 7
SIMPLEX
 10
-97.759201
 20
30617.3574
 40
300.797546
  1
1
 72
      1
 11
0.00000000
 21
30617.3574
 50
   0.000
  0
CIRCLE
  8
13
 10
36285.0000
 20
30767.7559
 40
334.219513
  0
TEXT
  8
13
 7
SIMPLEX
 10
36134.6016
 20
30617.3574
 40
300.797546
  1
7
 72
      1
 11
36285.0000
 21
30617.3574
 50
   0.000
  0
CIRCLE
  8
13
 10
6200.00000
 20
29286.0508
 40
334.219513
  0
TEXT
  8
13
 7
SIMPLEX
 10
6049.60107
 20
29135.6504
 40
300.797546
  1
2
 72
      1
 11
6200.00000
 21
29135.6504
 50
   0.000
  0
CIRCLE
  8
13
 10
12190.0000
 20
29286.0508
 40
334.219513
  0
TEXT
  8
13
 7
SIMPLEX
 10
12039.6016
 20
29135.6504
 40
300.797546
  1
3
 72
      1
 11
12190.0000
 21
29135.6504
 50
   0.000
  0
CIRCLE
  8
13
 10
18335.0000
 20
29286.0508
 40
334.219513
  0
TEXT
  8
13
 7
SIMPLEX
 10
18184.6016
 20
29135.6504
 40
300.797546
  1
4
 72
      1
 11
18335.0000
 21
29135.6504
 50
   0.000
  0
CIRCLE
  8
13
 10
24035.0000
 20
29286.0508
 40
334.219513
  0
TEXT
  8
13
 7
SIMPLEX
 10
23884.6016
 20
29135.6504
 40
300.797546
  1
5
 72
      1
 11
24035.0000
 21
29135.6504
 50
   0.000
  0
CIRCLE
  8
13
 10
30035.0020
 20
29286.0508
 40
334.219513
  0
TEXT
  8
13
 7
SIMPLEX
 10
29884.5977
 20
29135.6504
 40
300.797546
  1
6
 72
      1
 11
30035.0020
 21
29135.6504
 50
   0.000
  0
TEXT
  8
11
 7
SIMPLEX
 10
2762.96777
 20
28464.4297
 40
278.516266
  1
6200
 50
   0.000
  0
TEXT
  8
11
 7
SIMPLEX
 10
8637.96680
 20
28464.4297
 40
278.516266
  1
5990
 50
   0.000
  0
TEXT
  8
11
 7
SIMPLEX
 10
14775.0957
 20
28464.4297
 40
278.516266
  1
6145
 50
   0.000
  0
TEXT
  8
11
 7
SIMPLEX
 10
20627.9688
 20
28464.4297
 40
278.516266
  1
5700
 50
   0.000
  0
TEXT
  8
11
 7
SIMPLEX
 10
26477.9688
 20
28464.4297
 40
278.516266
  1
6000
 50
   0.000
  0
TEXT
  8
11
 7
SIMPLEX
 10
32382.9688
 20
28464.4297
 40
278.516266
  1
6250
 50
   0.000
  0
LINE
  8
2
 10
0.00000000
 20
30177.3047
 11
36285.0000
 21
30177.3047
  0
INSERT
  8
2
  2
ARROW
 10
0.00000000
 20
30177.3047
 41
1.00000000
 42
1.00000000
 43
1.00000000
 50
 180.000
  0
INSERT
  8
2
  2
ARROW
 10
36285.0000
 20
30177.3047
 41
1.00000000
 42
1.00000000
 43
1.00000000
 50
   0.000
  0
TEXT
  8
11
 7
SIMPLEX
 10
14688.8994
 20
30310.9922
 40
278.516266
  1
36285 OUT-TO-OUT OF STEEL
 50
   0.000
  0
LINE
  8
2
 10
-835.54883
 20
-6231.1685
 11
0.00000000
 21
-5813.3940
  0
TEXT
  8
2
 7
SIMPLEX
 10
-3342.1951
 20
-6231.1685
 40
278.516266
  1
FRAME LINE
 50
   0.000
  0
TEXT
  8
2
 7
SIMPLEX
 10
-3342.1951
 20
-6648.9429
 40
278.516266
  1
DIMENSIONS
 50
   0.000
  0
LINE
  8
12
 10
-243.06873
 20
0.00000000
 11
-7852.1328
 21
0.00000000
  0
LINE
  8
12
 10
-243.06873
 20
22470.0000
 11
-7852.1328
 21
22470.0000
  0
CIRCLE
  8
13
 10
-8186.3530
 20
0.00000000
 40
334.219513
  0
TEXT
  8
13
 7
SIMPLEX
 10
-8336.7520
 20
-150.39877
 40
300.797546
  1
A
 72
      1
 11
-8186.3530
 21
-150.39877
 50
   0.000
  0
CIRCLE
  8
13
 10
-8186.3530
 20
22470.0000
 40
334.219513
  0
TEXT
  8
13
 7
SIMPLEX
 10
-8336.7520
 20
22319.6016
 40
300.797546
  1
C
 72
      1
 11
-8186.3530
 21
22319.6016
 50
   0.000
  0
CIRCLE
  8
13
 10
-6704.6465
 20
11235.0000
 40
334.219513
  0
TEXT
  8
13
 7
SIMPLEX
 10
-6855.0449
 20
11084.6016
 40
300.797546
  1
B
 72
      1
 11
-6704.6465
 21
11084.6016
 50
   0.000
  0
LINE
  8
2
 10
-5813.3940
 20
0.00000000
 11
-5813.3940
 21
22470.0000
  0
LINE
  8
12
 10
-3585.2639
 20
11235.0000
 11
-6370.4268
 21
11235.0000
  0
INSERT
  8
2
  2
ARROW
 10
-5813.3940
 20
0.00000000
 41
1.00000000
 42
1.00000000
 43
1.00000000
 50
 270.000
  0
INSERT
  8
2
  2
ARROW
 10
-5813.3940
 20
11235.0000
 41
1.00000000
 42
1.00000000
 43
1.00000000
 50
 270.000
  0
INSERT
  8
2
  2
ARROW
 10
-5813.3940
 20
11235.0000
 41
1.00000000
 42
1.00000000
 43
1.00000000
 50
  90.000
  0
INSERT
  8
2
  2
ARROW
 10
-5813.3940
 20
22470.0000
 41
1.00000000
 42
1.00000000
 43
1.00000000
 50
  90.000
  0
TEXT
  8
11
 7
SIMPLEX
 10
-5883.0225
 20
5060.46729
 40
278.516266
  1
11235
 50
  90.000
  0
TEXT
  8
11
 7
SIMPLEX
 10
-5883.0225
 20
16295.4668
 40
278.516266
  1
11235
 50
  90.000
  0
LINE
  8
2
 10
-7595.8984
 20
0.00000000
 11
-7595.8984
 21
22470.0000
  0
INSERT
  8
2
  2
ARROW
 10
-7595.8984
 20
0.00000000
 41
1.00000000
 42
1.00000000
 43
1.00000000
 50
 270.000
  0
INSERT
  8
2
  2
ARROW
 10
-7595.8984
 20
22470.0000
 41
1.00000000
 42
1.00000000
 43
1.00000000
 50
  90.000
  0
TEXT
  8
11
 7
SIMPLEX
 10
-7729.5864
 20
7781.39844
 40
278.516266
  1
22470 OUT-TO-OUT OF STEEL
 50
  90.000
  0
LINE
  8
12
 10
36528.0664
 20
0.00000000
 11
42655.4258
 21
0.00000000
  0
LINE
  8
12
 10
36528.0664
 20
22470.0000
 11
42655.4258
 21
22470.0000
  0
CIRCLE
  8
13
 10
42989.6445
 20
0.00000000
 40
334.219513
  0
TEXT
  8
13
 7
SIMPLEX
 10
42839.2461
 20
-150.39877
 40
300.797546
  1
A
 72
      1
 11
42989.6445
 21
-150.39877
 50
   0.000
  0
CIRCLE
  8
13
 10
42989.6445
 20
22470.0000
 40
334.219513
  0
TEXT
  8
13
 7
SIMPLEX
 10
42839.2461
 20
22319.6016
 40
300.797546
  1
C
 72
      1
 11
42989.6445
 21
22319.6016
 50
   0.000
  0
CIRCLE
  8
13
 10
42989.6445
 20
11235.0000
 40
334.219513
  0
TEXT
  8
13
 7
SIMPLEX
 10
42839.2461
 20
11084.6016
 40
300.797546
  1
B
 72
      1
 11
42989.6445
 21
11084.6016
 50
   0.000
  0
LINE
  8
2
 10
42098.3945
 20
0.00000000
 11
42098.3945
 21
22470.0000
  0
LINE
  8
12
 10
39870.2617
 20
11235.0000
 11
42655.4258
 21
11235.0000
  0
INSERT
  8
2
  2
ARROW
 10
42098.3945
 20
0.00000000
 41
1.00000000
 42
1.00000000
 43
1.00000000
 50
 270.000
  0
INSERT
  8
2
  2
ARROW
 10
42098.3945
 20
11235.0000
 41
1.00000000
 42
1.00000000
 43
1.00000000
 50
 270.000
  0
INSERT
  8
2
  2
ARROW
 10
42098.3945
 20
11235.0000
 41
1.00000000
 42
1.00000000
 43
1.00000000
 50
  90.000
  0
INSERT
  8
2
  2
ARROW
 10
42098.3945
 20
22470.0000
 41
1.00000000
 42
1.00000000
 43
1.00000000
 50
  90.000
  0
TEXT
  8
11
 7
SIMPLEX
 10
42028.7656
 20
5060.46729
 40
278.516266
  1
11235
 50
  90.000
  0
TEXT
  8
11
 7
SIMPLEX
 10
42028.7656
 20
16295.4668
 40
278.516266
  1
11235
 50
  90.000
  0
LINE
  8
1
 10
439.999970
 20
22240.0000
 11
1036.02563
 21
21643.9746
  0
TEXT
  8
3
 7
SIMPLEX
 10
1036.02563
 20
21922.4902
 40
278.516266
  1
CA-1
 50
   0.000
  0
LINE
  8
1
 10
6200.00000
 20
22240.0000
 11
5603.97461
 21
21643.9746
  0
TEXT
  8
3
 7
SIMPLEX
 10
4615.24170
 20
21922.4902
 40
278.516266
  1
CA-1
 50
   0.000
  0
LINE
  8
1
 10
6200.00000
 20
22240.0000
 11
6796.02539
 21
21643.9746
  0
TEXT
  8
3
 7
SIMPLEX
 10
6796.02539
 20
21922.4902
 40
278.516266
  1
CA-1
 50
   0.000
  0
LINE
  8
1
 10
12190.0000
 20
22240.0000
 11
11593.9746
 21
21643.9746
  0
TEXT
  8
3
 7
SIMPLEX
 10
10605.2412
 20
21922.4902
 40
278.516266
  1
CA-1
 50
   0.000
  0
LINE
  8
1
 10
12190.0000
 20
22240.0000
 11
12786.0254
 21
21643.9746
  0
TEXT
  8
3
 7
SIMPLEX
 10
12786.0254
 20
21922.4902
 40
278.516266
  1
CA-1
 50
   0.000
  0
LINE
  8
1
 10
18335.0000
 20
22240.0000
 11
17738.9746
 21
21643.9746
  0
TEXT
  8
3
 7
SIMPLEX
 10
16750.2402
 20
21922.4902
 40
278.516266
  1
CA-1
 50
   0.000
  0
LINE
  8
1
 10
18335.0000
 20
22240.0000
 11
18931.0254
 21
21643.9746
  0
TEXT
  8
3
 7
SIMPLEX
 10
18931.0254
 20
21922.4902
 40
278.516266
  1
CA-1
 50
   0.000
  0
LINE
  8
1
 10
24035.0000
 20
22240.0000
 11
23438.9727
 21
21643.9746
  0
TEXT
  8
3
 7
SIMPLEX
 10
22450.2402
 20
21922.4902
 40
278.516266
  1
CA-1
 50
   0.000
  0
LINE
  8
1
 10
24035.0000
 20
22240.0000
 11
24631.0254
 21
21643.9746
  0
TEXT
  8
3
 7
SIMPLEX
 10
24631.0254
 20
21922.4902
 40
278.516266
  1
CA-1
 50
   0.000
  0
LINE
  8
1
 10
30035.0020
 20
22240.0000
 11
29438.9766
 21
21643.9746
  0
TEXT
  8
3
 7
SIMPLEX
 10
28450.2441
 20
21922.4902
 40
278.516266
  1
CA-1
 50
   0.000
  0
LINE
  8
1
 10
30035.0020
 20
22240.0000
 11
30631.0234
 21
21643.9746
  0
TEXT
  8
3
 7
SIMPLEX
 10
30631.0234
 20
21922.4902
 40
278.516266
  1
CA-1
 50
   0.000
  0
LINE
  8
1
 10
35845.0000
 20
22240.0000
 11
35248.9727
 21
21643.9746
  0
TEXT
  8
3
 7
SIMPLEX
 10
34260.2383
 20
21922.4902
 40
278.516266
  1
CA-1
 50
   0.000
  0
LINE
  8
1
 10
439.999970
 20
230.000015
 11
1036.02478
 21
826.024780
  0
TEXT
  8
3
 7
SIMPLEX
 10
1036.02478
 20
268.992279
 40
278.516266
  1
CA-1
 50
   0.000
  0
LINE
  8
1
 10
6200.00000
 20
230.000015
 11
5603.97510
 21
826.024780
  0
TEXT
  8
3
 7
SIMPLEX
 10
4615.24268
 20
268.992279
 40
278.516266
  1
CA-1
 50
   0.000
  0
LINE
  8
1
 10
6200.00000
 20
230.000015
 11
6796.02441
 21
826.024780
  0
TEXT
  8
3
 7
SIMPLEX
 10
6796.02441
 20
268.992279
 40
278.516266
  1
CA-1
 50
   0.000
  0
LINE
  8
1
 10
12190.0000
 20
230.000015
 11
11593.9746
 21
826.024780
  0
TEXT
  8
3
 7
SIMPLEX
 10
10605.2422
 20
268.992279
 40
278.516266
  1
CA-1
 50
   0.000
  0
LINE
  8
1
 10
12190.0000
 20
230.000015
 11
12786.0244
 21
826.024780
  0
TEXT
  8
3
 7
SIMPLEX
 10
12786.0244
 20
268.992279
 40
278.516266
  1
CA-1
 50
   0.000
  0
LINE
  8
1
 10
18335.0000
 20
230.000015
 11
17738.9766
 21
826.024780
  0
TEXT
  8
3
 7
SIMPLEX
 10
16750.2422
 20
268.992279
 40
278.516266
  1
CA-1
 50
   0.000
  0
LINE
  8
1
 10
18335.0000
 20
230.000015
 11
18931.0234
 21
826.024780
  0
TEXT
  8
3
 7
SIMPLEX
 10
18931.0234
 20
268.992279
 40
278.516266
  1
CA-1
 50
   0.000
  0
LINE
  8
1
 10
24035.0000
 20
230.000015
 11
23438.9746
 21
826.024780
  0
TEXT
  8
3
 7
SIMPLEX
 10
22450.2422
 20
268.992279
 40
278.516266
  1
CA-1
 50
   0.000
  0
LINE
  8
1
 10
24035.0000
 20
230.000015
 11
24631.0234
 21
826.024780
  0
TEXT
  8
3
 7
SIMPLEX
 10
24631.0234
 20
268.992279
 40
278.516266
  1
CA-1
 50
   0.000
  0
LINE
  8
1
 10
30035.0020
 20
230.000015
 11
29438.9766
 21
826.024780
  0
TEXT
  8
3
 7
SIMPLEX
 10
28450.2441
 20
268.992279
 40
278.516266
  1
CA-1
 50
   0.000
  0
LINE
  8
1
 10
30035.0020
 20
230.000015
 11
30631.0234
 21
826.024780
  0
TEXT
  8
3
 7
SIMPLEX
 10
30631.0234
 20
268.992279
 40
278.516266
  1
CA-1
 50
   0.000
  0
LINE
  8
1
 10
35845.0000
 20
230.000015
 11
35248.9727
 21
826.024780
  0
TEXT
  8
3
 7
SIMPLEX
 10
34260.2383
 20
268.992279
 40
278.516266
  1
CA-1
 50
   0.000
  0
TEXT
  8
3
 7
SIMPLEX
 10
-103.10674
 20
20933.7598
 40
278.516266
  1
CA-2
 50
   0.000
  0
TEXT
  8
3
 7
SIMPLEX
 10
5134.67578
 20
20933.7598
 40
278.516266
  1
CA-2 (2)
 50
   0.000
  0
TEXT
  8
3
 7
SIMPLEX
 10
11124.6748
 20
20933.7598
 40
278.516266
  1
CA-2 (2)
 50
   0.000
  0
TEXT
  8
3
 7
SIMPLEX
 10
17269.6758
 20
20933.7598
 40
278.516266
  1
CA-2 (2)
 50
   0.000
  0
TEXT
  8
3
 7
SIMPLEX
 10
22969.6758
 20
20933.7598
 40
278.516266
  1
CA-2 (2)
 50
   0.000
  0
TEXT
  8
3
 7
SIMPLEX
 10
28969.6777
 20
20933.7598
 40
278.516266
  1
CA-2 (2)
 50
   0.000
  0
TEXT
  8
3
 7
SIMPLEX
 10
35301.8906
 20
20933.7598
 40
278.516266
  1
CA-2
 50
   0.000
  0
TEXT
  8
3
 7
SIMPLEX
 10
-103.10674
 20
1257.72510
 40
278.516266
  1
CA-2
 50
   0.000
  0
TEXT
  8
3
 7
SIMPLEX
 10
5134.67578
 20
1257.72510
 40
278.516266
  1
CA-2 (2)
 50
   0.000
  0
TEXT
  8
3
 7
SIMPLEX
 10
11124.6748
 20
1257.72510
 40
278.516266
  1
CA-2 (2)
 50
   0.000
  0
TEXT
  8
3
 7
SIMPLEX
 10
17269.6758
 20
1257.72510
 40
278.516266
  1
CA-2 (2)
 50
   0.000
  0
TEXT
  8
3
 7
SIMPLEX
 10
22969.6758
 20
1257.72510
 40
278.516266
  1
CA-2 (2)
 50
   0.000
  0
TEXT
  8
3
 7
SIMPLEX
 10
28969.6777
 20
1257.72510
 40
278.516266
  1
CA-2 (2)
 50
   0.000
  0
TEXT
  8
3
 7
SIMPLEX
 10
35301.8906
 20
1257.72510
 40
278.516266
  1
CA-2
 50
   0.000
  0
ENDBLK
  8
0
  0
BLOCK
  8
1
  2
CRANETBL
 70
     0
 10
0.00000000
 20
0.00000000
  0
TEXT
  8
14
 7
SIMPLEX
 10
-43.656246
 20
-2.1828127
 40
1.74625000
  1
MEMBER TABLE
 50
   0.000
  0
TEXT
  8
14
 7
SIMPLEX
 10
-43.656246
 20
-4.8021875
 40
1.74625000
  1
Mark
 50
   0.000
  0
TEXT
  8
14
 7
SIMPLEX
 10
-31.432499
 20
-4.8021875
 40
1.74625000
  1
Part
 50
   0.000
  0
TEXT
  8
14
 7
SIMPLEX
 10
-13.969998
 20
-4.8021875
 40
1.74625000
  1
Length
 50
   0.000
  0
LINE
  8
0
 10
-33.178749
 20
-2.6193753
 11
-33.178749
 21
-5.2387505
  0
LINE
  8
0
 10
-15.716249
 20
-2.6193753
 11
-15.716249
 21
-5.2387505
  0
LINE
  8
0
 10
-45.402500
 20
-2.6193753
 11
-45.402500
 21
-5.2387505
  0
LINE
  8
0
 10
-45.402500
 20
-2.6193753
 11
0.00000000
 21
-2.6193753
  0
LINE
  8
0
 10
-45.402500
 20
-5.2387505
 11
0.00000000
 21
-5.2387505
  0
LINE
  8
0
 10
-33.178749
 20
-5.2387505
 11
-33.178749
 21
-5.2387505
  0
LINE
  8
0
 10
-15.716249
 20
-5.2387505
 11
-15.716249
 21
-5.2387505
  0
LINE
  8
0
 10
-45.402500
 20
-5.2387505
 11
-45.402500
 21
-5.2387505
  0
LINE
  8
0
 10
-45.402500
 20
0.00000000
 11
-45.402500
 21
-5.2387505
  0
LINE
  8
0
 10
-45.402500
 20
-5.2387505
 11
0.00000000
 21
-5.2387505
  0
LINE
  8
0
 10
-45.402500
 20
0.00000000
 11
0.00000000
 21
0.00000000
  0
LINE
  8
0
 10
0.00000000
 20
0.00000000
 11
0.00000000
 21
-5.2387505
  0
ENDBLK
  8
1
  0
BLOCK
  8
1
  2
CRANEANG
 70
     0
 10
0.00000000
 20
0.00000000
  0
TEXT
  8
14
 7
SIMPLEX
 10
-19.208750
 20
-2.1828127
 40
1.74625000
  1
ANGLE TABLE
 50
   0.000
  0
TEXT
  8
14
 7
SIMPLEX
 10
-18.335627
 20
-4.8021875
 40
1.74625000
  1
ID
 50
   0.000
  0
TEXT
  8
14
 7
SIMPLEX
 10
-13.970000
 20
-4.8021875
 40
1.74625000
  1
Mark
 50
   0.000
  0
LINE
  8
0
 10
-15.716250
 20
-2.6193753
 11
-15.716250
 21
-5.2387505
  0
LINE
  8
0
 10
0.00000000
 20
-2.6193753
 11
0.00000000
 21
-5.2387505
  0
LINE
  8
0
 10
-20.955002
 20
-2.6193753
 11
0.00000000
 21
-2.6193753
  0
LINE
  8
14
 10
-19.645313
 20
-4.8021875
 11
-20.518438
 21
-3.9290628
  0
LINE
  8
14
 10
-20.518438
 20
-3.9290628
 11
-19.645313
 21
-3.0559378
  0
LINE
  8
14
 10
-19.645313
 20
-3.0559378
 11
-18.772188
 21
-3.9290628
  0
LINE
  8
14
 10
-18.772188
 20
-3.9290628
 11
-19.645313
 21
-4.8021875
  0
LINE
  8
0
 10
-20.955002
 20
-5.2387505
 11
0.00000000
 21
-5.2387505
  0
TEXT
  8
26
 7
SIMPLEX
 10
-20.081875
 20
-7.4215622
 40
1.74625000
  1
1
 50
   0.000
  0
TEXT
  8
26
 7
SIMPLEX
 10
-14.843125
 20
-7.4215622
 40
1.74625000
  1
CA-1
 50
   0.000
  0
TEXT
  8
26
 7
SIMPLEX
 10
-20.081875
 20
-10.040937
 40
1.74625000
  1
2
 50
   0.000
  0
TEXT
  8
26
 7
SIMPLEX
 10
-14.843125
 20
-10.040937
 40
1.74625000
  1
CA-2
 50
   0.000
  0
LINE
  8
0
 10
-15.716250
 20
-5.2387505
 11
-15.716250
 21
-10.477501
  0
LINE
  8
0
 10
0.00000000
 20
-5.2387505
 11
0.00000000
 21
-10.477501
  0
LINE
  8
0
 10
-20.955002
 20
0.00000000
 11
-20.955002
 21
-10.477501
  0
LINE
  8
0
 10
0.00000000
 20
0.00000000
 11
0.00000000
 21
-10.477501
  0
LINE
  8
0
 10
-20.955002
 20
0.00000000
 11
0.00000000
 21
0.00000000
  0
LINE
  8
0
 10
-20.955002
 20
-10.477501
 11
0.00000000
 21
-10.477501
  0
ENDBLK
  8
1
  0
ENDSEC
  0
SECTION
  2
ENTITIES
  0
LINE
  8
22
 10
0.00000000
 20
0.00000000
 11
420.000000
 21
0.00000000
  0
LINE
  8
22
 10
420.000000
 20
0.00000000
 11
420.000000
 21
297.000000
  0
LINE
  8
22
 10
420.000000
 20
297.000000
 11
0.00000000
 21
297.000000
  0
LINE
  8
22
 10
0.00000000
 20
297.000000
 11
0.00000000
 21
0.00000000
  0
LINE
  8
0
 10
259.979981
 20
0.00000000
 11
259.979981
 21
26.6700020
  0
LINE
  8
0
 10
259.979981
 20
26.6700020
 11
420.000000
 21
26.6700020
  0
LINE
  8
0
 10
259.979981
 20
0.00000000
 11
420.000000
 21
0.00000000
  0
LINE
  8
0
 10
420.000000
 20
0.00000000
 11
420.000000
 21
26.6700020
  0
LINE
  8
0
 10
259.979981
 20
10.1599999
 11
420.000000
 21
10.1599999
  0
LINE
  8
0
 10
259.979981
 20
15.2399998
 11
420.000000
 21
15.2399998
  0
LINE
  8
0
 10
259.979981
 20
20.3199997
 11
420.000000
 21
20.3199997
  0
LINE
  8
0
 10
282.839996
 20
0.00000000
 11
282.839996
 21
20.3199997
  0
LINE
  8
0
 10
339.989990
 20
0.00000000
 11
339.989990
 21
20.3199997
  0
LINE
  8
0
 10
339.989990
 20
5.07999993
 11
420.000000
 21
5.07999993
  0
LINE
  8
0
 10
367.929993
 20
15.2399998
 11
367.929993
 21
10.1599999
  0
LINE
  8
0
 10
393.329987
 20
15.2399998
 11
393.329987
 21
10.1599999
  0
LINE
  8
0
 10
380.629974
 20
10.1599999
 11
380.629974
 21
5.07999993
  0
TEXT
  8
14
 7
SIMPLEX
 10
262.519959
 20
16.5100003
 40
2.53999996
  1
PROJECT
 50
   0.000
  0
TEXT
  8
14
 7
SIMPLEX
 10
262.519959
 20
11.4300003
 40
2.53999996
  1
ID
 50
   0.000
  0
TEXT
  8
14
 7
SIMPLEX
 10
262.519959
 20
6.34999992
 40
2.53999996
  1
PROJECT
 50
   0.000
  0
TEXT
  8
14
 7
SIMPLEX
 10
262.519959
 20
1.26999998
 40
2.53999996
  1
ADDRESS
 50
   0.000
  0
TEXT
  8
14
 7
SIMPLEX
 10
285.379974
 20
16.5100003
 40
2.53999996
  1
Proposed Warehouse
 50
   0.000
  0
TEXT
  8
14
 7
SIMPLEX
 10
285.379974
 20
11.4300003
 40
2.53999996
  1
C323-153
 50
   0.000
  0
TEXT
  8
14
 7
SIMPLEX
 10
285.379974
 20
6.34999992
 40
2.53999996
  1
Proposed Warehouse
 50
   0.000
  0
TEXT
  8
14
 7
SIMPLEX
 10
285.379974
 20
1.26999998
 40
2.53999996
  1
PINE
 50
   0.000
  0
TEXT
  8
14
 7
SIMPLEX
 10
279.664978
 20
21.5900002
 40
3.81000040
  1
RECLA INTERNATIONAL PRIVATE LIMITED
 50
   0.000
  0
TEXT
  8
14
 7
SIMPLEX
 10
342.529999
 20
16.5100003
 40
2.53999996
  1
CRANE PLAN
 50
   0.000
  0
TEXT
  8
14
 7
SIMPLEX
 10
342.529999
 20
11.4300003
 40
2.53999996
  1
DESIGN:
 50
   0.000
  0
TEXT
  8
14
 7
SIMPLEX
 10
342.529999
 20
6.34999992
 40
2.53999996
  1
DATE:
 50
   0.000
  0
TEXT
  8
14
 7
SIMPLEX
 10
355.483978
 20
6.34999992
 40
2.53999996
  1
 7/AUG/2025
 50
   0.000
  0
TEXT
  8
14
 7
SIMPLEX
 10
370.470001
 20
11.4300003
 40
2.53999996
  1
DRAFT:
 50
   0.000
  0
TEXT
  8
14
 7
SIMPLEX
 10
395.869995
 20
11.4300003
 40
2.53999996
  1
CHECK:
 50
   0.000
  0
TEXT
  8
14
 7
SIMPLEX
 10
381.899994
 20
6.34999992
 40
2.53999996
  1
SHEET
 50
   0.000
  0
TEXT
  8
14
 7
SIMPLEX
 10
407.299988
 20
6.34999992
 40
2.53999996
  1
OF
 50
   0.000
  0
TEXT
  8
14
 7
SIMPLEX
 10
394.599976
 20
6.34999992
 40
2.53999996
  1
 
 50
   0.000
999
FIELD:@PAGE_ID
  0
TEXT
  8
14
 7
SIMPLEX
 10
409.839996
 20
6.34999992
 40
2.53999996
  1
 
 50
   0.000
999
FIELD:@PAGE_TOTAL
  0
INSERT
  8
0
  2
ANCHOR
 10
106.194046
 20
91.2862091
 41
0.00626983
 42
0.00626983
 43
0.00626983
 50
    0.000
  0
INSERT
  8
0
  2
CRANETBL
 10
420.000000
 20
297.000000
 41
1.00000000
 42
1.00000000
 43
1.00000000
 50
    0.000
  0
INSERT
  8
0
  2
CRANEANG
 10
420.000000
 20
291.324707
 41
1.00000000
 42
1.00000000
 43
1.00000000
 50
    0.000
  0
ENDSEC
  0
EOF
