  0
SECTION
  2
HEADER
  9
$ACADVER
  1
AC1009
  9
$EXTMIN
 10
 -1274.551
 20
 -1705.307
  9
$EXTMAX
 10
  5769.868
 20
  3578.006
  9
$LIMMIN
 10
 -1274.551
 20
 -1705.307
  9
$LIMMAX
 10
  5769.868
 20
  3578.006
  9
$FILLMODE
 70
     1
  9
$HANDLING
 70
     0
  0
ENDSEC
  0
SECTION
  2
TABLES
  0
TABLE
  2
LTYPE
 70
1
  0
LTYPE
  2
CONTIN
 70
    64
  3
SOLID LINE
 72
    65
 73
     0
 40
0.0
  0
LTYPE
  2
CONTINUOUS
 70
    64
  3
SOLID LINE
 72
    65
 73
     0
 40
0.0
  0
LTYPE
  2
CENTER
 70
    64
  3
____ _ ____ _ ____ _ ____ _ ____ _ ____ _ ____
 72
    65
 73
     4
 40
    58.614
 49
    36.634
 49
    -7.327
 49
     7.327
 49
    -7.327
  0
LTYPE
  2
DASHED
 70
    64
  3
__ __ __ __ __ __ __ __ __ __ __ __ __ __ __ 
 72
    65
 73
     2
 40
    84.53
 49
    56.35
 49
   -28.17
  0
ENDTAB
  0
TABLE
  2
LAYER
 70
30
  0
LAYER
  2
0
 70
     0
 62
     7
  6
CONTIN
  0
LAYER
  2
1
 70
     0
 62
     7
  6
CONTIN
  0
LAYER
  2
2
 70
     0
 62
     7
  6
CONTIN
  0
LAYER
  2
3
 70
     0
 62
     7
  6
CONTIN
  0
LAYER
  2
4
 70
     0
 62
     5
  6
CONTIN
  0
LAYER
  2
5
 70
     0
 62
     5
  6
DASHED
  0
LAYER
  2
6
 70
     0
 62
     5
  6
DASHED
  0
LAYER
  2
7
 70
     0
 62
     5
  6
CONTIN
  0
LAYER
  2
8
 70
     0
 62
     5
  6
DASHED
  0
LAYER
  2
9
 70
     0
 62
     7
  6
CONTIN
  0
LAYER
  2
10
 70
     0
 62
     7
  6
CONTIN
  0
LAYER
  2
11
 70
     0
 62
     6
  6
DASHED
  0
LAYER
  2
12
 70
     0
 62
     7
  6
DASHED
  0
LAYER
  2
13
 70
     0
 62
     5
  6
DASHED
  0
LAYER
  2
14
 70
     0
 62
     7
  6
CONTIN
  0
LAYER
  2
15
 70
     0
 62
     5
  6
CONTIN
  0
LAYER
  2
16
 70
     0
 62
     7
  6
CONTIN
  0
LAYER
  2
17
 70
     0
 62
     7
  6
CONTIN
  0
LAYER
  2
18
 70
     0
 62
     7
  6
CONTIN
  0
LAYER
  2
19
 70
     0
 62
     7
  6
CONTIN
  0
LAYER
  2
20
 70
     0
 62
     1
  6
CONTIN
  0
LAYER
  2
21
 70
     0
 62
     7
  6
CONTIN
  0
LAYER
  2
22
 70
     0
 62
     7
  6
DASHED
  0
LAYER
  2
23
 70
     0
 62
     7
  6
DASHED
  0
LAYER
  2
24
 70
     0
 62
     7
  6
CONTIN
  0
LAYER
  2
25
 70
     0
 62
     7
  6
CONTIN
  0
LAYER
  2
26
 70
     0
 62
     7
  6
CONTIN
  0
LAYER
  2
27
 70
     0
 62
     1
  6
CENTER
  0
LAYER
  2
28
 70
     0
 62
     7
  6
CONTIN
  0
LAYER
  2
29
 70
     0
 62
     3
  6
DASHED
  0
ENDTAB
  0
TABLE
  2
STYLE
 70
  0
  0
ENDTAB
  0
ENDSEC
  0
SECTION
  2
ENTITIES
  0
LINE
  8
1
 10
     0.000
 20
     0.000
 11
  3023.750
 21
     0.000
  0
LINE
  8
1
 10
  3023.750
 20
     0.000
 11
  3023.750
 21
  1872.500
  0
LINE
  8
1
 10
  3023.750
 20
  1872.500
 11
     0.000
 21
  1872.500
  0
LINE
  8
1
 10
     0.000
 20
  1872.500
 11
     0.000
 21
     0.000
  0
LINE
  8
8
 10
     0.000
 20
   936.250
 11
  3023.750
 21
   936.250
  0
LINE
  8
1
 10
     0.000
 20
   936.250
 11
  3023.750
 21
   936.250
  0
LINE
  8
1
 10
  3023.750
 20
  1872.500
 11
     0.000
 21
  1872.500
  0
LINE
  8
1
 10
  3023.750
 20
   936.250
 11
  3023.750
 21
  1872.500
  0
LINE
  8
1
 10
     0.000
 20
  1872.500
 11
     0.000
 21
   936.250
  0
TEXT
  8
1
 10
  1475.936
 20
  1404.375
 40
    35.939
  1
 1
 50
     0.000
  0
LINE
  8
1
 10
     0.000
 20
     0.000
 11
  3023.750
 21
     0.000
  0
LINE
  8
1
 10
  3023.750
 20
   936.250
 11
     0.000
 21
   936.250
  0
LINE
  8
1
 10
  3023.750
 20
     0.000
 11
  3023.750
 21
   936.250
  0
LINE
  8
1
 10
     0.000
 20
   936.250
 11
     0.000
 21
     0.000
  0
TEXT
  8
1
 10
  1475.936
 20
   468.125
 40
    35.939
  1
 1
 50
     0.000
  0
LINE
  8
1
 10
  -954.350
 20
  1872.500
 11
  -252.683
 21
  1872.500
  0
LINE
  8
1
 10
  -252.683
 20
  1872.500
 11
  -159.058
 21
   936.250
  0
LINE
  8
1
 10
  -159.058
 20
   936.250
 11
  -252.683
 21
     0.000
  0
LINE
  8
1
 10
  -252.683
 20
     0.000
 11
  -954.350
 21
     0.000
  0
LINE
  8
1
 10
  -954.350
 20
  1872.500
 11
  -954.350
 21
     0.000
  0
TEXT
  8
1
 10
  -628.583
 20
   936.250
 40
    35.939
  1
 2
 50
     0.000
  0
LINE
  8
2
 10
  -954.350
 20
  1685.250
 11
  -252.683
 21
  1685.250
  0
TEXT
  8
1
 10
  -675.396
 20
  1778.875
 40
    35.939
  1
 3
 50
     0.000
  0
LINE
  8
1
 10
  -954.350
 20
   187.250
 11
  -233.958
 21
   187.250
  0
TEXT
  8
1
 10
  -666.033
 20
    93.625
 40
    35.939
  1
 3
 50
     0.000
  0
LINE
  8
1
 10
     0.000
 20
  -860.725
 11
     0.000
 21
  -159.058
  0
LINE
  8
1
 10
     0.000
 20
  -159.058
 11
  3023.750
 21
  -159.058
  0
LINE
  8
1
 10
  3023.750
 20
  -159.058
 11
  3023.750
 21
  -860.725
  0
LINE
  8
1
 10
     0.000
 20
  -860.725
 11
  3023.750
 21
  -860.725
  0
TEXT
  8
1
 10
  1475.935
 20
  -509.892
 40
    35.939
  1
 4
 50
     0.000
  0
LINE
  8
2
 10
   187.250
 20
  -860.725
 11
   187.250
 21
  -159.058
  0
TEXT
  8
1
 10
    57.686
 20
  -509.892
 40
    35.939
  1
 5
 50
     0.000
  0
LINE
  8
1
 10
  2836.500
 20
  -860.725
 11
  2836.500
 21
  -159.058
  0
TEXT
  8
1
 10
  2894.185
 20
  -509.892
 40
    35.939
  1
 5
 50
     0.000
  0
LINE
  8
1
 10
  3978.100
 20
     0.000
 11
  3276.433
 21
     0.000
  0
LINE
  8
1
 10
  3276.433
 20
     0.000
 11
  3182.808
 21
   936.250
  0
LINE
  8
1
 10
  3182.808
 20
   936.250
 11
  3276.433
 21
  1872.500
  0
LINE
  8
1
 10
  3276.433
 20
  1872.500
 11
  3978.100
 21
  1872.500
  0
LINE
  8
1
 10
  3978.100
 20
     0.000
 11
  3978.100
 21
  1872.500
  0
TEXT
  8
1
 10
  3508.575
 20
   936.250
 40
    35.939
  1
 2
 50
     0.000
  0
LINE
  8
2
 10
  3978.100
 20
   187.250
 11
  3276.433
 21
   187.250
  0
TEXT
  8
1
 10
  3555.388
 20
    93.625
 40
    35.939
  1
 3
 50
     0.000
  0
LINE
  8
1
 10
  3978.100
 20
  1685.250
 11
  3257.708
 21
  1685.250
  0
TEXT
  8
1
 10
  3546.025
 20
  1778.875
 40
    35.939
  1
 3
 50
     0.000
  0
LINE
  8
1
 10
  3023.750
 20
  2733.225
 11
  3023.704
 21
  2031.558
  0
LINE
  8
1
 10
  3023.704
 20
  2031.558
 11
    -0.046
 21
  2031.758
  0
LINE
  8
1
 10
    -0.046
 20
  2031.758
 11
     0.000
 21
  2733.424
  0
LINE
  8
1
 10
  3023.750
 20
  2733.225
 11
     0.000
 21
  2733.424
  0
TEXT
  8
1
 10
  1475.912
 20
  2382.494
 40
    35.939
  1
 4
 50
     0.000
  0
LINE
  8
2
 10
  2836.500
 20
  2733.237
 11
  2836.454
 21
  2031.571
  0
TEXT
  8
1
 10
  2894.162
 20
  2382.400
 40
    35.939
  1
 5
 50
     0.000
  0
LINE
  8
1
 10
   187.250
 20
  2733.412
 11
   187.203
 21
  2031.745
  0
TEXT
  8
1
 10
    57.662
 20
  2382.587
 40
    35.939
  1
 5
 50
     0.000
  0
TEXT
  8
21
 10
  4101.935
 20
  2733.225
 40
    44.924
  1
Components & Cladding
 50
     0.000
  0
TEXT
  8
21
 10
  3383.145
 20
  2620.914
 40
    44.924
  1
 Width
 50
     0.000
  0
TEXT
  8
21
 10
  3742.540
 20
  2620.914
 40
    44.924
  1
Length
 50
     0.000
  0
TEXT
  8
21
 10
  4101.935
 20
  2620.914
 40
    44.924
  1
Pressure(kN/m2)
 50
     0.000
  0
TEXT
  8
21
 10
  4820.725
 20
  2620.914
 40
    44.924
  1
Suction(kN/m2)
 50
     0.000
  0
TEXT
  8
21
 10
  3113.599
 20
  2553.527
 40
    44.924
  1
Zone
 50
     0.000
  0
TEXT
  8
21
 10
  3517.918
 20
  2553.527
 40
    44.924
  1
(mm)
 50
     0.000
  0
TEXT
  8
21
 10
  3877.313
 20
  2553.527
 40
    44.924
  1
(mm)
 50
     0.000
  0
TEXT
  8
21
 10
  4101.935
 20
  2553.527
 40
    44.924
  1
Member
 50
     0.000
  0
TEXT
  8
21
 10
  4461.330
 20
  2553.527
 40
    44.924
  1
 Panel
 50
     0.000
  0
TEXT
  8
21
 10
  4820.725
 20
  2553.527
 40
    44.924
  1
Member
 50
     0.000
  0
TEXT
  8
21
 10
  5180.120
 20
  2553.527
 40
    44.924
  1
 Panel
 50
     0.000
  0
LINE
  8
21
 10
  3113.599
 20
  2508.603
 11
  3293.296
 21
  2508.603
  0
LINE
  8
21
 10
  3383.145
 20
  2508.603
 11
  3652.691
 21
  2508.603
  0
LINE
  8
21
 10
  3742.540
 20
  2508.603
 11
  4012.086
 21
  2508.603
  0
LINE
  8
21
 10
  4101.935
 20
  2508.603
 11
  4371.481
 21
  2508.603
  0
LINE
  8
21
 10
  4461.330
 20
  2508.603
 11
  4730.876
 21
  2508.603
  0
LINE
  8
21
 10
  4820.725
 20
  2508.603
 11
  5090.271
 21
  2508.603
  0
LINE
  8
21
 10
  5180.120
 20
  2508.603
 11
  5449.667
 21
  2508.603
  0
TEXT
  8
21
 10
  3158.523
 20
  2418.754
 40
    44.924
  1
 1
 50
     0.000
  0
TEXT
  8
21
 10
  4101.935
 20
  2418.754
 40
    44.924
  1
 0.479
 50
     0.000
  0
TEXT
  8
21
 10
  4461.330
 20
  2418.754
 40
    44.924
  1
 0.479
 50
     0.000
  0
TEXT
  8
21
 10
  4820.725
 20
  2418.754
 40
    44.924
  1
-0.599
 50
     0.000
  0
TEXT
  8
21
 10
  5180.120
 20
  2418.754
 40
    44.924
  1
-0.654
 50
     0.000
  0
TEXT
  8
21
 10
  3158.523
 20
  2351.368
 40
    44.924
  1
 2
 50
     0.000
  0
TEXT
  8
21
 10
  4101.935
 20
  2351.368
 40
    44.924
  1
 0.484
 50
     0.000
  0
TEXT
  8
21
 10
  4461.330
 20
  2351.368
 40
    44.924
  1
 0.599
 50
     0.000
  0
TEXT
  8
21
 10
  4820.725
 20
  2351.368
 40
    44.924
  1
-0.534
 50
     0.000
  0
TEXT
  8
21
 10
  5180.120
 20
  2351.368
 40
    44.924
  1
-0.649
 50
     0.000
  0
TEXT
  8
21
 10
  3158.523
 20
  2283.981
 40
    44.924
  1
 3
 50
     0.000
  0
TEXT
  8
21
 10
  3383.145
 20
  2283.981
 40
    44.924
  1
  2247
 50
     0.000
  0
TEXT
  8
21
 10
  4101.935
 20
  2283.981
 40
    44.924
  1
 0.484
 50
     0.000
  0
TEXT
  8
21
 10
  4461.330
 20
  2283.981
 40
    44.924
  1
 0.599
 50
     0.000
  0
TEXT
  8
21
 10
  4820.725
 20
  2283.981
 40
    44.924
  1
-0.571
 50
     0.000
  0
TEXT
  8
21
 10
  5180.120
 20
  2283.981
 40
    44.924
  1
-0.649
 50
     0.000
  0
TEXT
  8
21
 10
  3158.523
 20
  2216.594
 40
    44.924
  1
 4
 50
     0.000
  0
TEXT
  8
21
 10
  4101.935
 20
  2216.594
 40
    44.924
  1
 0.484
 50
     0.000
  0
TEXT
  8
21
 10
  4461.330
 20
  2216.594
 40
    44.924
  1
 0.599
 50
     0.000
  0
TEXT
  8
21
 10
  4820.725
 20
  2216.594
 40
    44.924
  1
-0.534
 50
     0.000
  0
TEXT
  8
21
 10
  5180.120
 20
  2216.594
 40
    44.924
  1
-0.649
 50
     0.000
  0
TEXT
  8
21
 10
  3158.523
 20
  2149.208
 40
    44.924
  1
 5
 50
     0.000
  0
TEXT
  8
21
 10
  3383.145
 20
  2149.208
 40
    44.924
  1
  2247
 50
     0.000
  0
TEXT
  8
21
 10
  4101.935
 20
  2149.208
 40
    44.924
  1
 0.484
 50
     0.000
  0
TEXT
  8
21
 10
  4461.330
 20
  2149.208
 40
    44.924
  1
 0.599
 50
     0.000
  0
TEXT
  8
21
 10
  4820.725
 20
  2149.208
 40
    44.924
  1
-0.572
 50
     0.000
  0
TEXT
  8
21
 10
  5180.120
 20
  2149.208
 40
    44.924
  1
-0.649
 50
     0.000
  0
TEXT
  8
21
 10
  4101.935
 20
  2059.359
 40
    44.924
  1
(+) wind towards surface
 50
     0.000
  0
TEXT
  8
21
 10
  4101.935
 20
  1991.973
 40
    44.924
  1
(-) wind away from surface
 50
     0.000
  0
LINE
  8
0
 10
 -1274.551
 20
 -1705.307
 11
  5769.868
 21
 -1705.307
  0
LINE
  8
0
 10
  5769.868
 20
 -1705.307
 11
  5769.868
 21
  3578.006
  0
LINE
  8
0
 10
  5769.868
 20
  3578.006
 11
 -1274.551
 21
  3578.006
  0
LINE
  8
0
 10
 -1274.551
 20
  3578.006
 11
 -1274.551
 21
 -1705.307
  0
LINE
  8
0
 10
 -1274.551
 20
 -1530.958
 11
  5769.868
 21
 -1530.958
  0
TEXT
  8
0
 10
  1201.562
 20
 -1676.249
 40
   116.233
  1
Panel Zone: Wind 2
 50
     0.000
  0
TEXT
  8
0
 10
 -1216.435
 20
 -1676.249
 40
   116.233
  1
C323-153
 50
     0.000
  0
TEXT
  8
0
 10
  4433.189
 20
 -1676.249
 40
   116.233
  1
 6/AUG/2025
 50
     0.000
  0
ENDSEC
  0
EOF
