999
SOURCE:MBS   PROGRAM:PLT_DXF   CELL:RF_STF   CLASS:SCALED   MODE:---
  0
SECTION
  2
HEADER
  9
$EXTMIN
 10
          0.000
 20
          0.000
  9
$EXTMAX
 10
        592.889
 20
        373.111
  9
$LIMMIN
 10
          0.000
 20
          0.000
  9
$LIMMAX
 10
        592.889
 20
        373.111
  9
$FILLMODE
 70
     1
  9
$LTSCALE
 40
  0.125
  9
$HANDLING
 70
     0
  0
ENDSEC
  0
SECTION
  2
TABLES
  0
TABLE
  2
LTYPE
 70
     3
  0
LTYPE
  2
CONTINUOUS
 70
    64
  3
SOLID LINE
 72
    65
 73
     0
 40
0.0
  0
LTYPE
  2
CENTER
 70
    64
  3
____ _ ____ _ ____ _ ____ _ ____ _ ____ _ ____
 72
    65
 73
     4
 40
2.0
 49
1.25
 49
-0.25
 49
0.25
 49
-0.25
  0
LTYPE
  2
DASHED
 70
    64
  3
__ __ __ __ __ __ __ __ __ __ __ __ __ __ __ 
 72
    65
 73
     2
 40
0.75
 49
0.5
 49
-0.25
  0
ENDTAB
  0
TABLE
  2
LAYER
 70
    51
  0
LAYER
  2
0
 70
     0
 62
     7
  6
CONTINUOUS
  0
LAYER
  2
1
 70
     0
 62
     7
  6
CONTINUOUS
  0
LAYER
  2
2
 70
     0
 62
     7
  6
CONTINUOUS
  0
LAYER
  2
3
 70
     0
 62
     1
  6
CONTINUOUS
  0
LAYER
  2
4
 70
     0
 62
     1
  6
CONTINUOUS
  0
LAYER
  2
5
 70
     0
 62
     7
  6
CONTINUOUS
  0
LAYER
  2
6
 70
     0
 62
     4
  6
CONTINUOUS
  0
LAYER
  2
7
 70
     0
 62
     3
  6
CONTINUOUS
  0
LAYER
  2
8
 70
     0
 62
     3
  6
CONTINUOUS
  0
LAYER
  2
9
 70
     0
 62
     7
  6
CONTINUOUS
  0
LAYER
  2
10
 70
     0
 62
     7
  6
CONTINUOUS
  0
LAYER
  2
11
 70
     0
 62
     7
  6
CONTINUOUS
  0
LAYER
  2
12
 70
     0
 62
     2
  6
CONTINUOUS
  0
LAYER
  2
13
 70
     0
 62
     2
  6
CONTINUOUS
  0
LAYER
  2
14
 70
     0
 62
     7
  6
CONTINUOUS
  0
LAYER
  2
15
 70
     0
 62
     6
  6
CONTINUOUS
  0
LAYER
  2
16
 70
     0
 62
     7
  6
CONTINUOUS
  0
LAYER
  2
17
 70
     0
 62
     7
  6
CONTINUOUS
  0
LAYER
  2
18
 70
     0
 62
     4
  6
CONTINUOUS
  0
LAYER
  2
19
 70
     0
 62
     7
  6
CONTINUOUS
  0
LAYER
  2
20
 70
     0
 62
     7
  6
CONTINUOUS
  0
LAYER
  2
21
 70
     0
 62
     7
  6
CONTINUOUS
  0
LAYER
  2
22
 70
     0
 62
     7
  6
CONTINUOUS
  0
LAYER
  2
23
 70
     0
 62
     7
  6
CONTINUOUS
  0
LAYER
  2
24
 70
     0
 62
     7
  6
CONTINUOUS
  0
LAYER
  2
25
 70
     0
 62
     7
  6
CONTINUOUS
  0
LAYER
  2
26
 70
     0
 62
     7
  6
CONTINUOUS
  0
LAYER
  2
27
 70
     0
 62
     7
  6
CONTINUOUS
  0
LAYER
  2
28
 70
     0
 62
     7
  6
CONTINUOUS
  0
LAYER
  2
29
 70
     0
 62
     7
  6
CONTINUOUS
  0
LAYER
  2
30
 70
     0
 62
     7
  6
CONTINUOUS
  0
LAYER
  2
31
 70
     0
 62
     7
  6
CONTINUOUS
  0
LAYER
  2
32
 70
     0
 62
     7
  6
CONTINUOUS
  0
LAYER
  2
33
 70
     0
 62
     7
  6
CONTINUOUS
  0
LAYER
  2
34
 70
     0
 62
     7
  6
CONTINUOUS
  0
LAYER
  2
35
 70
     0
 62
     7
  6
CONTINUOUS
  0
LAYER
  2
36
 70
     0
 62
     7
  6
CONTINUOUS
  0
LAYER
  2
37
 70
     0
 62
     7
  6
CONTINUOUS
  0
LAYER
  2
38
 70
     0
 62
     7
  6
CONTINUOUS
  0
LAYER
  2
39
 70
     0
 62
     7
  6
CONTINUOUS
  0
LAYER
  2
40
 70
     0
 62
     7
  6
CONTINUOUS
  0
LAYER
  2
41
 70
     0
 62
     7
  6
CONTINUOUS
  0
LAYER
  2
42
 70
     0
 62
     7
  6
CONTINUOUS
  0
LAYER
  2
43
 70
     0
 62
     7
  6
CONTINUOUS
  0
LAYER
  2
44
 70
     0
 62
     7
  6
CONTINUOUS
  0
LAYER
  2
45
 70
     0
 62
     7
  6
CONTINUOUS
  0
LAYER
  2
46
 70
     0
 62
     7
  6
CONTINUOUS
  0
LAYER
  2
47
 70
     0
 62
     7
  6
CONTINUOUS
  0
LAYER
  2
48
 70
     0
 62
     7
  6
CONTINUOUS
  0
LAYER
  2
49
 70
     0
 62
     7
  6
CONTINUOUS
  0
LAYER
  2
50
 70
     0
 62
     7
  6
CONTINUOUS
  0
ENDTAB
  0
ENDSEC
  0
SECTION
  2
BLOCKS
  0
BLOCK
  8
2
  2
ARROW
 70
     0
 10
  0.000000
 20
  0.000000
  0
LINE
  6
CONTINUOUS
  8
2
 10
  0.000000
 20
  0.000000
 11
 -1.000000
 21
  0.166667
  0
LINE
  6
CONTINUOUS
  8
2
 10
 -1.000000
 20
  0.166667
 11
 -1.000000
 21
 -0.166667
  0
LINE
  6
CONTINUOUS
  8
2
 10
 -1.000000
 20
 -0.166667
 11
  0.000000
 21
  0.000000
  0
ENDBLK
  8
2
  0
BLOCK
  8
3
  2
CIRCLE
 70
     0
 10
  0.000000
 20
  0.000000
  0
CIRCLE
  8
1
 10
   0.000
 20
   0.000
 40
   1.000
  0
ENDBLK
  8
3
  0
BLOCK
  8
2
  2
PLATE
 70
     0
 10
  0.000000
 20
  0.000000
  0
CIRCLE
  6
CONTINUOUS
  8
5
 10
  0.000000
 20
-115.00000
 40
  0.100000
  0
LINE
  6
CONTINUOUS
  8
5
 10
 -0.100000
 20
-115.00000
 11
  0.100000
 21
-115.00000
  0
LINE
  6
CONTINUOUS
  8
5
 10
  0.000000
 20
-115.10000
 11
  0.000000
 21
-114.90000
  0
TEXT
  8
5
 10
  0.000000
 20
-115.00000
 40
   0.015
  1
ZERO
 50
   0.000
  0
LINE
  6
CONTINUOUS
  8
3
 10
 23.000000
 20
  0.000000
 11
  0.000000
 21
-230.00000
  0
LINE
  6
CONTINUOUS
  8
3
 10
  0.000000
 20
-230.00000
 11
 115.00000
 21
-230.00000
  0
LINE
  6
CONTINUOUS
  8
3
 10
 115.00000
 20
-230.00000
 11
 23.000000
 21
  0.000000
  0
LINE
  6
CONTINUOUS
  8
3
 10
 23.000000
 20
  0.000000
 11
 23.000000
 21
  0.000000
  0
LINE
  6
CONTINUOUS
  8
6
 10
 -3.066667
 20
-230.00000
 11
-22.233335
 21
-230.00000
  0
LINE
  6
CONTINUOUS
  8
6
 10
 -3.066649
 20
  0.000000
 11
-22.233318
 21
  0.000002
  0
LINE
  6
CONTINUOUS
  8
6
 10
-22.183336
 20
-230.00000
 11
-22.183319
 21
  0.000002
  0
INSERT
  8
6
  2
ARROW
 10
-22.183336
 20
-230.00000
 41
  2.044444
 42
  2.044444
 43
  2.044444
 50
 270.000
  0
INSERT
  8
6
  2
ARROW
 10
-22.183319
 20
  0.000002
 41
  2.044444
 42
  2.044444
 43
  2.044444
 50
  90.000
  0
TEXT
  8
6
 10
-24.227772
 20
-121.13333
 40
   4.089
  1
230
 50
  90.000
  0
LINE
  6
CONTINUOUS
  8
6
 10
  0.000000
 20
  3.066667
 11
  0.000000
 21
 22.233335
  0
LINE
  6
CONTINUOUS
  8
6
 10
 115.00000
 20
  3.066667
 11
 115.00000
 21
 22.233335
  0
LINE
  6
CONTINUOUS
  8
6
 10
  0.000000
 20
 22.183336
 11
 115.00000
 21
 22.183336
  0
INSERT
  8
6
  2
ARROW
 10
  0.000000
 20
 22.183336
 41
  2.044444
 42
  2.044444
 43
  2.044444
 50
 180.000
  0
INSERT
  8
6
  2
ARROW
 10
 115.00000
 20
 22.183336
 41
  2.044444
 42
  2.044444
 43
  2.044444
 50
   0.000
  0
TEXT
  8
6
 10
 52.388889
 20
 24.227781
 40
   4.089
  1
115
 50
   0.000
  0
ENDBLK
  8
2
  0
ENDSEC
  0
SECTION
  2
ENTITIES
  0
LINE
  6
CONTINUOUS
  8
5
 10
  0.000000
 20
  0.000000
 11
 592.88898
 21
  0.000000
  0
LINE
  6
CONTINUOUS
  8
5
 10
 592.88898
 20
  0.000000
 11
 592.88898
 21
 373.11111
  0
LINE
  6
CONTINUOUS
  8
5
 10
 592.88898
 20
 373.11111
 11
  0.000000
 21
 373.11111
  0
LINE
  6
CONTINUOUS
  8
5
 10
  0.000000
 20
 373.11111
 11
  0.000000
 21
  0.000000
  0
TEXT
  8
5
 10
  8.177777
 20
  4.088889
 40
   8.178
  1
YIELD:345.0
 50
   0.000
  0
TEXT
  8
5
 10
  8.177777
 20
 16.355555
 40
   8.178
  1
THICKNESS:5
 50
   0.000
  0
TEXT
  8
5
 10
  8.177777
 20
 28.622221
 40
   8.178
  1
QUANTITY:10
 50
   0.000
  0
TEXT
  8
5
 10
  8.177777
 20
 40.888885
 40
   8.178
  1
DRAWING:ES1
 50
   0.000
  0
TEXT
  8
5
 10
  8.177777
 20
 53.155552
 40
   8.178
  1
MARK:ES1
 50
   0.000
  0
TEXT
  8
5
 10
  8.177777
 20
 65.422218
 40
   8.178
  1
JOB:C463-002
 50
   0.000
  0
INSERT
  8
2
  2
PLATE
 10
 238.94449
 20
 301.55554
 41
  1.000000
 42
  1.000000
 43
  1.000000
 50
   0.000
  0
ENDSEC
  0
EOF
