999
SOURCE:MBS   PROGRAM:CRANEDWG   CELL:CrnDwg2   CLASS:PLAN   MODE:
  0
SECTION
  2
HEADER
  9
$ACADVER
  1
AC1009
  9
$EXTMIN
 10
0.00000000
 20
0.00000000
  9
$EXTMAX
 10
420.000000
 20
297.000000
  9
$LIMMIN
 10
0.00000000
 20
0.00000000
  9
$LIMMAX
 10
420.000000
 20
297.000000
  9
$FILLMODE
 70
     1
  9
$HANDLING
 70
     0
  0
ENDSEC
  0
SECTION
  2
TABLES
  0
TABLE
  2
LTYPE
 70
4
  0
LTYPE
  2
CONTIN
 70
   64
  3
SOLID LINE
  72
   65
 73
    0
 40
 0.000
  0
LTYPE
  2
CENTER
 70
   64
  3
____ _ ____ _ _
  72
   65
 73
    4
 40
25.400
 49
15.875
 49
-3.175
 49
 3.175
 49
-3.175
  0
LTYPE
  2
DASHED
 70
   64
  3
__ __ __ __ __
  72
   65
 73
    2
 40
 4.763
 49
 3.175
 49
-1.575
  0
LTYPE
  2
CONTINUOUS
 70
   64
  3
SOLID LINE
  72
   65
 73
    0
 40
 0.000
  0
ENDTAB
  0
TABLE
  2
LAYER
 70
27
  0
LAYER
  2
0
 70
     0
 62
     7
  6
CONTIN
  0
LAYER
  2
1
 70
     0
 62
     7
  6
CONTIN
  0
LAYER
  2
2
 70
     0
 62
     6
  6
CONTIN
  0
LAYER
  2
3
 70
     0
 62
     7
  6
CONTIN
  0
LAYER
  2
4
 70
     0
 62
     7
  6
CONTIN
  0
LAYER
  2
5
 70
     0
 62
     5
  6
DASHED
  0
LAYER
  2
6
 70
     0
 62
     6
  6
CONTIN
  0
LAYER
  2
7
 70
     0
 62
     7
  6
CONTIN
  0
LAYER
  2
8
 70
     0
 62
     8
  6
DASHED
  0
LAYER
  2
9
 70
     0
 62
     9
  6
DASHED
  0
LAYER
  2
10
 70
     0
 62
    10
  6
CONTIN
  0
LAYER
  2
11
 70
     0
 62
     7
  6
CONTIN
  0
LAYER
  2
12
 70
     0
 62
     6
  6
CONTIN
  0
LAYER
  2
13
 70
     0
 62
     1
  6
CONTIN
  0
LAYER
  2
14
 70
     0
 62
     7
  6
CONTIN
  0
LAYER
  2
15
 70
     0
 62
     7
  6
CONTIN
  0
LAYER
  2
16
 70
     0
 62
     7
  6
CONTIN
  0
LAYER
  2
17
 70
     0
 62
     5
  6
CONTIN
  0
LAYER
  2
18
 70
     0
 62
     7
  6
CONTIN
  0
LAYER
  2
19
 70
     0
 62
     7
  6
CONTIN
  0
LAYER
  2
20
 70
     0
 62
     7
  6
CONTIN
  0
LAYER
  2
21
 70
     0
 62
     7
  6
CONTIN
  0
LAYER
  2
22
 70
     0
 62
     7
  6
CONTIN
  0
LAYER
  2
23
 70
     0
 62
     7
  6
DASHED
  0
LAYER
  2
24
 70
     0
 62
     7
  6
CONTIN
  0
LAYER
  2
25
 70
     0
 62
     7
  6
CONTIN
  0
LAYER
  2
26
 70
     0
 62
     7
  6
CONTIN
  0
LAYER
  2
27
 70
     0
 62
     1
  6
CENTER
  0
ENDTAB
  0
TABLE
  2
STYLE
 70
  0
  0
STYLE
  2
SIMPLEX
 70
  0
 40
  0.000
 41
  1.000
 42
  1.000
 50
  0.000
 71
  0
  3
SIMPLEX
  0
STYLE
  2
ROMANS
 70
  0
 40
  0.000
 41
  1.000
 42
  1.000
 50
  0.000
 71
  0
  3
ROMANS
  0
STYLE
  2
OPEN
 70
  0
 40
  0.000
 41
  1.000
 42
  1.000
 50
  0.000
 71
  0
  3
SIMPLEX
  0
STYLE
  2
ARIAL
 70
  0
 40
  0.000
 41
  1.000
 42
  1.000
 50
  0.000
 71
  0
  3
ARIAL.TTF
  0
STYLE
  2
VERDANAB
 70
  0
 40
  0.000
 41
  1.000
 42
  1.000
 50
  0.000
 71
  0
  3
VERDANAB.TTF
  0
ENDTAB
  0
ENDSEC
  0
SECTION
  2
BLOCKS
  0
BLOCK
  8
0
  2
ARROW
 70
     0
 10
0.00000000
 20
0.00000000
  0
LINE
  8
0
 10
0.00000000
 20
0.00000000
 11
-198.53902
 21
-33.089836
  0
LINE
  8
0
 10
0.00000000
 20
0.00000000
 11
-198.53902
 21
33.0898361
  0
LINE
  8
0
 10
-198.53902
 20
33.0898361
 11
-198.53902
 21
-33.089836
  0
LINE
  8
0
 10
0.00000000
 20
0.00000000
 11
-277.95462
 21
0.00000000
  0
ENDBLK
  8
0
  0
BLOCK
  8
0
  2
ARROWP
 70
     0
 10
0.00000000
 20
0.00000000
  0
LINE
  8
0
 10
0.00000000
 20
0.00000000
 11
-198.53902
 21
-33.089836
  0
LINE
  8
0
 10
0.00000000
 20
0.00000000
 11
-198.53902
 21
33.0898361
  0
LINE
  8
0
 10
-198.53902
 20
33.0898361
 11
-198.53902
 21
-33.089836
  0
ENDBLK
  8
0
  0
BLOCK
  8
0
  2
ARROWA
 70
     0
 10
0.00000000
 20
0.00000000
  0
LINE
  8
3
 10
198.539017
 20
0.00000000
 11
0.00000000
 21
-33.089836
  0
LINE
  8
3
 10
198.539017
 20
0.00000000
 11
0.00000000
 21
33.0898361
  0
LINE
  8
3
 10
0.00000000
 20
33.0898361
 11
0.00000000
 21
-33.089836
  0
ENDBLK
  8
0
  0
BLOCK
  8
0
  2
ARROWB
 70
     0
 10
0.00000000
 20
0.00000000
  0
LINE
  8
0
 10
0.00000000
 20
0.00000000
 11
-25.400000
 21
-4.2333317
  0
LINE
  8
0
 10
0.00000000
 20
0.00000000
 11
-25.400000
 21
4.23333168
  0
LINE
  8
0
 10
-25.400000
 20
4.23333168
 11
-25.400000
 21
-4.2333317
  0
LINE
  8
0
 10
0.00000000
 20
0.00000000
 11
-27.940001
 21
0.00000000
  0
ENDBLK
  8
0
  0
BLOCK
  8
0
  2
TICK
 70
     0
 10
0.00000000
 20
0.00000000
  0
LINE
  8
0
 10
-38.180580
 20
-38.180580
 11
38.1805801
 21
38.1805801
  0
ENDBLK
  8
0
  0
BLOCK
  8
0
  2
CIRCLE
 70
     0
 10
0.00000000
 20
0.00000000
  0
CIRCLE
  8
1
 10
    0.000
 20
    0.000
 40
   25.400
  0
ENDBLK
  8
3
  0
BLOCK
  8
0
  2
DIAMOND
 70
     0
 10
0.00000000
 20
0.00000000
  0
LINE
  8
0
 10
0.00000000
 20
0.00000000
 11
12.6999998
 21
12.6999998
  0
LINE
  8
0
 10
12.6999998
 20
12.6999998
 11
0.00000000
 21
25.3999996
  0
LINE
  8
0
 10
0.00000000
 20
25.3999996
 11
-12.700000
 21
12.6999998
  0
LINE
  8
0
 10
-12.700000
 20
12.6999998
 11
0.00000000
 21
0.00000000
  0
ENDBLK
  8
0
  0
BLOCK
  8
0
  2
WCOL
 70
     0
 10
0.00000000
 20
0.00000000
  0
LINE
  8
0
 10
-122.17786
 20
274.900177
 11
122.177864
 21
274.900177
  0
LINE
  8
0
 10
0.00000000
 20
274.900177
 11
0.00000000
 21
0.00000000
  0
LINE
  8
0
 10
-122.17786
 20
0.00000000
 11
122.177864
 21
0.00000000
  0
ENDBLK
  8
0
  0
BLOCK
  8
0
  2
WCOL2
 70
     0
 10
0.00000000
 20
0.00000000
  0
LINE
  8
0
 10
-122.17786
 20
0.00000000
 11
122.177864
 21
0.00000000
  0
LINE
  8
0
 10
0.00000000
 20
274.900177
 11
0.00000000
 21
0.00000000
  0
ENDBLK
  8
0
  0
BLOCK
  8
0
  2
PCOL
 70
     0
 10
0.00000000
 20
0.00000000
  0
CIRCLE
  8
0
 10
0.00000000
 20
0.00000000
 40
122.177864
  0
ENDBLK
  8
0
  0
BLOCK
  8
0
  2
ZCOL
 70
     0
 10
0.00000000
 20
0.00000000
  0
LINE
  8
0
 10
122.177864
 20
274.900177
 11
7.63611652
 21
274.900177
  0
LINE
  8
0
 10
7.63611652
 20
274.900177
 11
7.63611652
 21
0.00000000
  0
LINE
  8
0
 10
7.63611652
 20
0.00000000
 11
-122.17786
 21
0.00000000
  0
ENDBLK
  8
0
  0
BLOCK
  8
0
  2
TCOL
 70
     0
 10
0.00000000
 20
0.00000000
  0
LINE
  8
0
 10
-106.90562
 20
-106.90562
 11
106.905624
 21
-106.90562
  0
LINE
  8
0
 10
106.905624
 20
-106.90562
 11
106.905624
 21
106.905624
  0
LINE
  8
0
 10
106.905624
 20
106.905624
 11
-106.90562
 21
106.905624
  0
LINE
  8
0
 10
-106.90562
 20
106.905624
 11
-106.90562
 21
-106.90562
  0
ENDBLK
  8
0
  0
BLOCK
  8
0
  2
TCOL2
 70
     0
 10
0.00000000
 20
0.00000000
  0
LINE
  8
0
 10
-53.452812
 20
-106.90562
 11
53.4528122
 21
-106.90562
  0
LINE
  8
0
 10
53.4528122
 20
-106.90562
 11
53.4528122
 21
106.905624
  0
LINE
  8
0
 10
53.4528122
 20
106.905624
 11
-53.452812
 21
106.905624
  0
LINE
  8
0
 10
-53.452812
 20
106.905624
 11
-53.452812
 21
-106.90562
  0
ENDBLK
  8
0
  0
BLOCK
  8
0
  2
SCCOL
 70
     0
 10
0.00000000
 20
0.00000000
  0
LINE
  8
0
 10
122.177864
 20
244.355728
 11
122.177864
 21
274.900177
  0
LINE
  8
0
 10
122.177864
 20
274.900177
 11
7.63611652
 21
274.900177
  0
LINE
  8
0
 10
7.63611652
 20
274.900177
 11
7.63611652
 21
0.00000000
  0
LINE
  8
0
 10
7.63611652
 20
0.00000000
 11
122.177864
 21
0.00000000
  0
LINE
  8
0
 10
122.177864
 20
0.00000000
 11
122.177864
 21
30.5444680
  0
ENDBLK
  8
0
  0
BLOCK
  8
0
  2
GCOL
 70
     0
 10
0.00000000
 20
0.00000000
  0
LINE
  8
0
 10
274.900177
 20
91.6334229
 11
244.355728
 21
91.6334229
  0
LINE
  8
0
 10
274.900177
 20
274.900177
 11
274.900177
 21
91.6334229
  0
LINE
  8
0
 10
274.900177
 20
274.900177
 11
0.00000000
 21
274.900177
  0
LINE
  8
0
 10
0.00000000
 20
274.900177
 11
0.00000000
 21
0.00000000
  0
LINE
  8
0
 10
0.00000000
 20
0.00000000
 11
183.266785
 21
0.00000000
  0
LINE
  8
0
 10
183.266785
 20
0.00000000
 11
183.266785
 21
30.5444680
  0
ENDBLK
  8
0
  0
BLOCK
  8
0
  2
UCOL
 70
     0
 10
0.00000000
 20
0.00000000
  0
LINE
  8
0
 10
122.177864
 20
274.900177
 11
7.63611652
 21
274.900177
  0
LINE
  8
0
 10
7.63611652
 20
274.900177
 11
7.63611652
 21
0.00000000
  0
LINE
  8
0
 10
7.63611652
 20
0.00000000
 11
122.177864
 21
0.00000000
  0
ENDBLK
  8
0
  0
BLOCK
  8
0
  2
DCCOL
 70
     0
 10
0.00000000
 20
0.00000000
  0
INSERT
  8
0
  2
SCCOL
 10
0.00000000
 20
0.00000000
 41
1.00000000
 42
1.00000000
 43
1.00000000
 50
    0.000
  0
INSERT
  8
0
  2
SCCOL
 10
0.00000000
 20
0.00000000
 41
-1.0000000
 42
1.00000000
 43
1.00000000
 50
    0.000
  0
ENDBLK
  8
0
  0
BLOCK
  8
0
  2
XCOL
 70
     0
 10
0.00000000
 20
0.00000000
  0
LINE
  8
0
 10
-183.26678
 20
274.900177
 11
183.266785
 21
274.900177
  0
LINE
  8
0
 10
-183.26678
 20
274.900177
 11
-183.26678
 21
0.00000000
  0
LINE
  8
0
 10
183.266785
 20
274.900177
 11
183.266785
 21
0.00000000
  0
LINE
  8
0
 10
-183.26678
 20
0.00000000
 11
183.266785
 21
0.00000000
  0
ENDBLK
  8
0
  0
BLOCK
  8
0
  2
HILIGHT
 70
     0
 10
0.00000000
 20
0.00000000
  0
LINE
  8
0
 10
-274.90018
 20
-152.72232
 11
274.900177
 21
-152.72232
  0
LINE
  8
0
 10
-274.90018
 20
427.622528
 11
274.900177
 21
427.622528
  0
LINE
  8
0
 10
-274.90018
 20
-152.72232
 11
-274.90018
 21
427.622528
  0
LINE
  8
0
 10
274.900177
 20
-152.72232
 11
274.900177
 21
427.622528
  0
ENDBLK
  8
0
  0
BLOCK
  8
0
  2
ANCHOR
 70
     0
 10
0.00000000
 20
0.00000000
  0
LINE
  8
0
 10
0.00000000
 20
12800.0000
 11
0.00000000
 21
0.00000000
  0
LINE
  8
0
 10
30500.0039
 20
0.00000000
 11
30500.0039
 21
12800.0000
  0
LINE
  8
0
 10
0.00000000
 20
0.00000000
 11
30500.0039
 21
0.00000000
  0
LINE
  8
0
 10
30500.0039
 20
12800.0000
 11
0.00000000
 21
12800.0000
  0
INSERT
  8
10
  2
WCOL
 10
230.000015
 20
5115.00000
 41
1.00000000
 42
1.00000000
 43
1.00000000
 50
 -90.000
  0
INSERT
  8
10
  2
WCOL
 10
30270.0000
 20
5115.00000
 41
1.00000000
 42
1.00000000
 43
1.00000000
 50
  90.000
  0
INSERT
  8
10
  2
WCOL
 10
390.000000
 20
230.000015
 41
1.00000000
 42
1.00000000
 43
1.00000000
 50
   0.000
  0
INSERT
  8
10
  2
WCOL
 10
8535.00000
 20
230.000015
 41
1.00000000
 42
1.00000000
 43
1.00000000
 50
   0.000
  0
INSERT
  8
10
  2
WCOL
 10
16745.0000
 20
230.000015
 41
1.00000000
 42
1.00000000
 43
1.00000000
 50
   0.000
  0
INSERT
  8
10
  2
WCOL
 10
23460.0000
 20
230.000015
 41
1.00000000
 42
1.00000000
 43
1.00000000
 50
   0.000
  0
INSERT
  8
10
  2
WCOL
 10
30110.0000
 20
230.000015
 41
1.00000000
 42
1.00000000
 43
1.00000000
 50
   0.000
  0
INSERT
  8
10
  2
WCOL
 10
390.000000
 20
12570.0000
 41
1.00000000
 42
1.00000000
 43
1.00000000
 50
 180.000
  0
INSERT
  8
10
  2
WCOL
 10
8535.00000
 20
12570.0000
 41
1.00000000
 42
1.00000000
 43
1.00000000
 50
 180.000
  0
INSERT
  8
10
  2
WCOL
 10
16745.0000
 20
12570.0000
 41
1.00000000
 42
1.00000000
 43
1.00000000
 50
 180.000
  0
INSERT
  8
10
  2
WCOL
 10
23460.0000
 20
12570.0000
 41
1.00000000
 42
1.00000000
 43
1.00000000
 50
 180.000
  0
INSERT
  8
10
  2
WCOL
 10
30110.0000
 20
12570.0000
 41
1.00000000
 42
1.00000000
 43
1.00000000
 50
 180.000
  0
LINE
  8
1
 10
83.3030777
 20
12161.4678
 11
8507.23145
 21
12161.4678
  0
TEXT
  8
3
 7
SIMPLEX
 10
3970.73291
 20
11922.8389
 40
190.902908
  1
RB-1
 50
   0.000
  0
LINE
  8
1
 10
83.3030777
 20
638.532227
 11
8507.23145
 21
638.532227
  0
TEXT
  8
3
 7
SIMPLEX
 10
3923.00708
 20
686.257935
 40
190.902908
  1
RB-2
 50
   0.000
  0
LINE
  8
1
 10
8562.76758
 20
12161.4678
 11
16717.2324
 21
12161.4678
  0
TEXT
  8
3
 7
SIMPLEX
 10
12267.7393
 20
11922.8389
 40
190.902908
  1
RB-3
 50
   0.000
  0
LINE
  8
1
 10
8562.76758
 20
638.532227
 11
16717.2324
 21
638.532227
  0
TEXT
  8
3
 7
SIMPLEX
 10
12267.7393
 20
686.257935
 40
190.902908
  1
RB-3
 50
   0.000
  0
LINE
  8
1
 10
16772.7676
 20
12161.4678
 11
23432.2324
 21
12161.4678
  0
TEXT
  8
3
 7
SIMPLEX
 10
19730.2383
 20
11922.8389
 40
190.902908
  1
RB-4
 50
   0.000
  0
LINE
  8
1
 10
16772.7676
 20
638.532227
 11
23432.2324
 21
638.532227
  0
TEXT
  8
3
 7
SIMPLEX
 10
19730.2383
 20
686.257935
 40
190.902908
  1
RB-4
 50
   0.000
  0
LINE
  8
1
 10
23487.7676
 20
12161.4678
 11
30416.6953
 21
12161.4678
  0
TEXT
  8
3
 7
SIMPLEX
 10
26579.9707
 20
11922.8389
 40
190.902908
  1
RB-5
 50
   0.000
  0
LINE
  8
1
 10
23487.7676
 20
638.532227
 11
30416.6953
 21
638.532227
  0
TEXT
  8
3
 7
SIMPLEX
 10
26579.9707
 20
686.257935
 40
190.902908
  1
RB-6
 50
   0.000
  0
LINE
  8
10
 10
323.183990
 20
12295.0996
 11
323.183990
 21
12056.4707
  0
LINE
  8
10
 10
323.183990
 20
12056.4707
 11
456.816010
 21
12056.4707
  0
LINE
  8
10
 10
456.816010
 20
12056.4707
 11
456.816010
 21
12295.0996
  0
LINE
  8
10
 10
456.816010
 20
12295.0996
 11
323.183990
 21
12295.0996
  0
LINE
  8
10
 10
323.183990
 20
504.900177
 11
323.183990
 21
743.528809
  0
LINE
  8
10
 10
323.183990
 20
743.528809
 11
456.816010
 21
743.528809
  0
LINE
  8
10
 10
456.816010
 20
743.528809
 11
456.816010
 21
504.900177
  0
LINE
  8
10
 10
456.816010
 20
504.900177
 11
323.183990
 21
504.900177
  0
LINE
  8
10
 10
8468.18359
 20
12295.0996
 11
8468.18359
 21
12056.4707
  0
LINE
  8
10
 10
8468.18359
 20
12056.4707
 11
8601.81543
 21
12056.4707
  0
LINE
  8
10
 10
8601.81543
 20
12056.4707
 11
8601.81543
 21
12295.0996
  0
LINE
  8
10
 10
8601.81543
 20
12295.0996
 11
8468.18359
 21
12295.0996
  0
LINE
  8
10
 10
8468.18359
 20
504.900177
 11
8468.18359
 21
743.528809
  0
LINE
  8
10
 10
8468.18359
 20
743.528809
 11
8601.81543
 21
743.528809
  0
LINE
  8
10
 10
8601.81543
 20
743.528809
 11
8601.81543
 21
504.900177
  0
LINE
  8
10
 10
8601.81543
 20
504.900177
 11
8468.18359
 21
504.900177
  0
LINE
  8
10
 10
16678.1836
 20
12295.0996
 11
16678.1836
 21
12056.4707
  0
LINE
  8
10
 10
16678.1836
 20
12056.4707
 11
16811.8164
 21
12056.4707
  0
LINE
  8
10
 10
16811.8164
 20
12056.4707
 11
16811.8164
 21
12295.0996
  0
LINE
  8
10
 10
16811.8164
 20
12295.0996
 11
16678.1836
 21
12295.0996
  0
LINE
  8
10
 10
16678.1836
 20
504.900177
 11
16678.1836
 21
743.528809
  0
LINE
  8
10
 10
16678.1836
 20
743.528809
 11
16811.8164
 21
743.528809
  0
LINE
  8
10
 10
16811.8164
 20
743.528809
 11
16811.8164
 21
504.900177
  0
LINE
  8
10
 10
16811.8164
 20
504.900177
 11
16678.1836
 21
504.900177
  0
LINE
  8
10
 10
23393.1836
 20
12295.0996
 11
23393.1836
 21
12056.4707
  0
LINE
  8
10
 10
23393.1836
 20
12056.4707
 11
23526.8164
 21
12056.4707
  0
LINE
  8
10
 10
23526.8164
 20
12056.4707
 11
23526.8164
 21
12295.0996
  0
LINE
  8
10
 10
23526.8164
 20
12295.0996
 11
23393.1836
 21
12295.0996
  0
LINE
  8
10
 10
23393.1836
 20
504.900177
 11
23393.1836
 21
743.528809
  0
LINE
  8
10
 10
23393.1836
 20
743.528809
 11
23526.8164
 21
743.528809
  0
LINE
  8
10
 10
23526.8164
 20
743.528809
 11
23526.8164
 21
504.900177
  0
LINE
  8
10
 10
23526.8164
 20
504.900177
 11
23393.1836
 21
504.900177
  0
LINE
  8
10
 10
30043.1836
 20
12295.0996
 11
30043.1836
 21
12056.4707
  0
LINE
  8
10
 10
30043.1836
 20
12056.4707
 11
30176.8164
 21
12056.4707
  0
LINE
  8
10
 10
30176.8164
 20
12056.4707
 11
30176.8164
 21
12295.0996
  0
LINE
  8
10
 10
30176.8164
 20
12295.0996
 11
30043.1836
 21
12295.0996
  0
LINE
  8
10
 10
30043.1836
 20
504.900177
 11
30043.1836
 21
743.528809
  0
LINE
  8
10
 10
30043.1836
 20
743.528809
 11
30176.8164
 21
743.528809
  0
LINE
  8
10
 10
30176.8164
 20
743.528809
 11
30176.8164
 21
504.900177
  0
LINE
  8
10
 10
30176.8164
 20
504.900177
 11
30043.1836
 21
504.900177
  0
LINE
  8
9
 10
12258.1943
 20
12295.0996
 11
12258.1943
 21
504.900177
  0
LINE
  8
9
 10
12258.1943
 20
504.900177
 11
13021.8066
 21
504.900177
  0
LINE
  8
9
 10
13021.8066
 20
504.900177
 11
13021.8066
 21
12295.0996
  0
LINE
  8
9
 10
13021.8066
 20
12295.0996
 11
12258.1943
 21
12295.0996
  0
TEXT
  8
9
 7
SIMPLEX
 10
12544.5488
 20
5731.83984
 40
190.902908
  1
Crane # 1
 50
  90.000
  0
TEXT
  8
9
 7
SIMPLEX
 10
12830.9033
 20
4681.87402
 40
190.902908
  1
     75.0kN
 50
  90.000
  0
LINE
  8
2
 10
-1693.8293
 20
0.00000000
 11
-1693.8293
 21
12800.0000
  0
LINE
  8
12
 10
-166.60616
 20
0.00000000
 11
-1860.4354
 21
0.00000000
  0
LINE
  8
12
 10
-166.60616
 20
1200.00037
 11
-1860.4354
 21
1200.00037
  0
LINE
  8
12
 10
-166.60616
 20
11600.0000
 11
-1860.4354
 21
11600.0000
  0
LINE
  8
12
 10
-166.60616
 20
12800.0000
 11
-1860.4354
 21
12800.0000
  0
LINE
  8
2
 10
-1693.8293
 20
0.00000000
 11
-1693.8293
 21
-555.35388
  0
INSERT
  8
2
  2
ARROW
 10
-1693.8293
 20
0.00000000
 41
1.00000000
 42
1.00000000
 43
1.00000000
 50
  90.000
  0
INSERT
  8
2
  2
ARROW
 10
-1693.8293
 20
1200.00037
 41
1.00000000
 42
1.00000000
 43
1.00000000
 50
 270.000
  0
TEXT
  8
11
 7
SIMPLEX
 10
-1741.5551
 20
95.4514542
 40
190.902908
  1
1200
 50
  90.000
  0
INSERT
  8
2
  2
ARROW
 10
-1693.8293
 20
1200.00037
 41
1.00000000
 42
1.00000000
 43
1.00000000
 50
 270.000
  0
INSERT
  8
2
  2
ARROW
 10
-1693.8293
 20
11600.0000
 41
1.00000000
 42
1.00000000
 43
1.00000000
 50
  90.000
  0
TEXT
  8
11
 7
SIMPLEX
 10
-1741.5546
 20
5970.46826
 40
190.902908
  1
10400
 50
  90.000
  0
LINE
  8
2
 10
-1693.8293
 20
12800.0000
 11
-1693.8293
 21
13355.3535
  0
INSERT
  8
2
  2
ARROW
 10
-1693.8293
 20
11600.0000
 41
1.00000000
 42
1.00000000
 43
1.00000000
 50
  90.000
  0
INSERT
  8
2
  2
ARROW
 10
-1693.8293
 20
12800.0000
 41
1.00000000
 42
1.00000000
 43
1.00000000
 50
 270.000
  0
TEXT
  8
11
 7
SIMPLEX
 10
-1741.5551
 20
12036.3887
 40
190.902908
  1
1200
 50
  90.000
  0
TEXT
  8
9
 7
SIMPLEX
 10
20615.4863
 20
6400.00049
 40
190.902908
  1
Crane System  1
 50
   0.000
  0
TEXT
  8
9
 7
SIMPLEX
 10
20615.4863
 20
6113.64600
 40
190.902908
  1
Elevation: 7000
 50
   0.000
  0
LINE
  8
12
 10
0.00000000
 20
-166.60616
 11
0.00000000
 21
-4366.4697
  0
LINE
  8
2
 10
0.00000000
 20
-3984.6643
 11
30500.0039
 21
-3984.6643
  0
LINE
  8
12
 10
30500.0039
 20
-166.60616
 11
30500.0039
 21
-4366.4697
  0
LINE
  8
12
 10
8535.00000
 20
-2457.4412
 11
8535.00000
 21
-4366.4697
  0
LINE
  8
12
 10
16745.0000
 20
-2457.4412
 11
16745.0000
 21
-4366.4697
  0
LINE
  8
12
 10
23460.0000
 20
-2457.4412
 11
23460.0000
 21
-4366.4697
  0
INSERT
  8
2
  2
ARROW
 10
0.00000000
 20
-3984.6643
 41
1.00000000
 42
1.00000000
 43
1.00000000
 50
 180.000
  0
INSERT
  8
2
  2
ARROW
 10
8535.00000
 20
-3984.6643
 41
1.00000000
 42
1.00000000
 43
1.00000000
 50
   0.000
  0
INSERT
  8
2
  2
ARROW
 10
8535.00000
 20
-3984.6643
 41
1.00000000
 42
1.00000000
 43
1.00000000
 50
 180.000
  0
INSERT
  8
2
  2
ARROW
 10
16745.0000
 20
-3984.6643
 41
1.00000000
 42
1.00000000
 43
1.00000000
 50
   0.000
  0
INSERT
  8
2
  2
ARROW
 10
16745.0000
 20
-3984.6643
 41
1.00000000
 42
1.00000000
 43
1.00000000
 50
 180.000
  0
INSERT
  8
2
  2
ARROW
 10
23460.0000
 20
-3984.6643
 41
1.00000000
 42
1.00000000
 43
1.00000000
 50
   0.000
  0
INSERT
  8
2
  2
ARROW
 10
23460.0000
 20
-3984.6643
 41
1.00000000
 42
1.00000000
 43
1.00000000
 50
 180.000
  0
INSERT
  8
2
  2
ARROW
 10
30500.0039
 20
-3984.6643
 41
1.00000000
 42
1.00000000
 43
1.00000000
 50
   0.000
  0
CIRCLE
  8
13
 10
0.00000000
 20
-4595.5537
 40
229.083511
  0
TEXT
  8
13
 7
SIMPLEX
 10
-67.006912
 20
-4698.6411
 40
206.175125
  1
1
 72
      1
 11
0.00000000
 21
-4698.6411
 50
   0.000
  0
CIRCLE
  8
13
 10
30500.0039
 20
-4595.5537
 40
229.083511
  0
TEXT
  8
13
 7
SIMPLEX
 10
30396.9160
 20
-4698.6411
 40
206.175125
  1
5
 72
      1
 11
30500.0039
 21
-4698.6411
 50
   0.000
  0
CIRCLE
  8
13
 10
8535.00000
 20
-4595.5537
 40
229.083511
  0
TEXT
  8
13
 7
SIMPLEX
 10
8431.91211
 20
-4698.6411
 40
206.175125
  1
2
 72
      1
 11
8535.00000
 21
-4698.6411
 50
   0.000
  0
CIRCLE
  8
13
 10
16745.0000
 20
-4595.5537
 40
229.083511
  0
TEXT
  8
13
 7
SIMPLEX
 10
16641.9102
 20
-4698.6411
 40
206.175125
  1
3
 72
      1
 11
16745.0000
 21
-4698.6411
 50
   0.000
  0
CIRCLE
  8
13
 10
23460.0000
 20
-4595.5537
 40
229.083511
  0
TEXT
  8
13
 7
SIMPLEX
 10
23356.9121
 20
-4698.6411
 40
206.175125
  1
4
 72
      1
 11
23460.0000
 21
-4698.6411
 50
   0.000
  0
TEXT
  8
11
 7
SIMPLEX
 10
4080.69385
 20
-3936.9387
 40
190.902908
  1
8535
 50
   0.000
  0
TEXT
  8
11
 7
SIMPLEX
 10
12305.9199
 20
-3936.9387
 40
190.902908
  1
8210
 50
   0.000
  0
TEXT
  8
11
 7
SIMPLEX
 10
19768.4199
 20
-3936.9387
 40
190.902908
  1
6715
 50
   0.000
  0
TEXT
  8
11
 7
SIMPLEX
 10
26403.1934
 20
-3936.9387
 40
190.902908
  1
7040
 50
   0.000
  0
TEXT
  8
15
 7
SIMPLEX
 10
13760.9580
 20
-5435.5264
 40
305.444641
  1
CRANE PLAN
 72
      1
 11
15250.0020
 21
-5435.5264
 50
   0.000
  0
LINE
  8
12
 10
0.00000000
 20
12966.6064
 11
0.00000000
 21
18258.4336
  0
LINE
  8
2
 10
0.00000000
 20
16861.0254
 11
30500.0039
 21
16861.0254
  0
LINE
  8
12
 10
30500.0039
 20
12966.6064
 11
30500.0039
 21
18258.4336
  0
LINE
  8
12
 10
8535.00000
 20
15333.8018
 11
8535.00000
 21
17242.8301
  0
LINE
  8
12
 10
16745.0000
 20
15333.8018
 11
16745.0000
 21
17242.8301
  0
LINE
  8
12
 10
23460.0000
 20
15333.8018
 11
23460.0000
 21
17242.8301
  0
INSERT
  8
2
  2
ARROW
 10
0.00000000
 20
16861.0254
 41
1.00000000
 42
1.00000000
 43
1.00000000
 50
 180.000
  0
INSERT
  8
2
  2
ARROW
 10
8535.00000
 20
16861.0254
 41
1.00000000
 42
1.00000000
 43
1.00000000
 50
   0.000
  0
INSERT
  8
2
  2
ARROW
 10
8535.00000
 20
16861.0254
 41
1.00000000
 42
1.00000000
 43
1.00000000
 50
 180.000
  0
INSERT
  8
2
  2
ARROW
 10
16745.0000
 20
16861.0254
 41
1.00000000
 42
1.00000000
 43
1.00000000
 50
   0.000
  0
INSERT
  8
2
  2
ARROW
 10
16745.0000
 20
16861.0254
 41
1.00000000
 42
1.00000000
 43
1.00000000
 50
 180.000
  0
INSERT
  8
2
  2
ARROW
 10
23460.0000
 20
16861.0254
 41
1.00000000
 42
1.00000000
 43
1.00000000
 50
   0.000
  0
INSERT
  8
2
  2
ARROW
 10
23460.0000
 20
16861.0254
 41
1.00000000
 42
1.00000000
 43
1.00000000
 50
 180.000
  0
INSERT
  8
2
  2
ARROW
 10
30500.0039
 20
16861.0254
 41
1.00000000
 42
1.00000000
 43
1.00000000
 50
   0.000
  0
CIRCLE
  8
13
 10
0.00000000
 20
18487.5176
 40
229.083511
  0
TEXT
  8
13
 7
SIMPLEX
 10
-67.006912
 20
18384.4297
 40
206.175125
  1
1
 72
      1
 11
0.00000000
 21
18384.4297
 50
   0.000
  0
CIRCLE
  8
13
 10
30500.0039
 20
18487.5176
 40
229.083511
  0
TEXT
  8
13
 7
SIMPLEX
 10
30396.9160
 20
18384.4297
 40
206.175125
  1
5
 72
      1
 11
30500.0039
 21
18384.4297
 50
   0.000
  0
CIRCLE
  8
13
 10
8535.00000
 20
17471.9141
 40
229.083511
  0
TEXT
  8
13
 7
SIMPLEX
 10
8431.91211
 20
17368.8262
 40
206.175125
  1
2
 72
      1
 11
8535.00000
 21
17368.8262
 50
   0.000
  0
CIRCLE
  8
13
 10
16745.0000
 20
17471.9141
 40
229.083511
  0
TEXT
  8
13
 7
SIMPLEX
 10
16641.9102
 20
17368.8262
 40
206.175125
  1
3
 72
      1
 11
16745.0000
 21
17368.8262
 50
   0.000
  0
CIRCLE
  8
13
 10
23460.0000
 20
17471.9141
 40
229.083511
  0
TEXT
  8
13
 7
SIMPLEX
 10
23356.9121
 20
17368.8262
 40
206.175125
  1
4
 72
      1
 11
23460.0000
 21
17368.8262
 50
   0.000
  0
TEXT
  8
11
 7
SIMPLEX
 10
4080.69385
 20
16908.7500
 40
190.902908
  1
8535
 50
   0.000
  0
TEXT
  8
11
 7
SIMPLEX
 10
12305.9199
 20
16908.7500
 40
190.902908
  1
8210
 50
   0.000
  0
TEXT
  8
11
 7
SIMPLEX
 10
19768.4199
 20
16908.7500
 40
190.902908
  1
6715
 50
   0.000
  0
TEXT
  8
11
 7
SIMPLEX
 10
26403.1934
 20
16908.7500
 40
190.902908
  1
7040
 50
   0.000
  0
LINE
  8
2
 10
0.00000000
 20
18082.8027
 11
30500.0039
 21
18082.8027
  0
INSERT
  8
2
  2
ARROW
 10
0.00000000
 20
18082.8027
 41
1.00000000
 42
1.00000000
 43
1.00000000
 50
 180.000
  0
INSERT
  8
2
  2
ARROW
 10
30500.0039
 20
18082.8027
 41
1.00000000
 42
1.00000000
 43
1.00000000
 50
   0.000
  0
TEXT
  8
11
 7
SIMPLEX
 10
12882.8047
 20
18174.4355
 40
190.902908
  1
30500 OUT-TO-OUT OF STEEL
 50
   0.000
  0
LINE
  8
2
 10
-572.70874
 20
-4271.0186
 11
0.00000000
 21
-3984.6643
  0
TEXT
  8
2
 7
SIMPLEX
 10
-2290.8350
 20
-4271.0186
 40
190.902908
  1
FRAME LINE
 50
   0.000
  0
TEXT
  8
2
 7
SIMPLEX
 10
-2290.8350
 20
-4557.3730
 40
190.902908
  1
DIMENSIONS
 50
   0.000
  0
LINE
  8
12
 10
-166.60616
 20
0.00000000
 11
-5382.0737
 21
0.00000000
  0
LINE
  8
12
 10
-166.60616
 20
12800.0000
 11
-5382.0737
 21
12800.0000
  0
CIRCLE
  8
13
 10
-5611.1572
 20
0.00000000
 40
229.083511
  0
TEXT
  8
13
 7
SIMPLEX
 10
-5714.2451
 20
-103.08756
 40
206.175125
  1
A
 72
      1
 11
-5611.1572
 21
-103.08756
 50
   0.000
  0
CIRCLE
  8
13
 10
-5611.1572
 20
12800.0000
 40
229.083511
  0
TEXT
  8
13
 7
SIMPLEX
 10
-5714.2451
 20
12696.9121
 40
206.175125
  1
C
 72
      1
 11
-5611.1572
 21
12696.9121
 50
   0.000
  0
CIRCLE
  8
13
 10
-4595.5537
 20
5115.00000
 40
229.083511
  0
TEXT
  8
13
 7
SIMPLEX
 10
-4698.6411
 20
5011.91260
 40
206.175125
  1
B
 72
      1
 11
-4595.5537
 21
5011.91260
 50
   0.000
  0
LINE
  8
2
 10
-3984.6643
 20
0.00000000
 11
-3984.6643
 21
12800.0000
  0
LINE
  8
12
 10
-2457.4412
 20
5115.00000
 11
-4366.4697
 21
5115.00000
  0
INSERT
  8
2
  2
ARROW
 10
-3984.6643
 20
0.00000000
 41
1.00000000
 42
1.00000000
 43
1.00000000
 50
 270.000
  0
INSERT
  8
2
  2
ARROW
 10
-3984.6643
 20
5115.00000
 41
1.00000000
 42
1.00000000
 43
1.00000000
 50
 270.000
  0
INSERT
  8
2
  2
ARROW
 10
-3984.6643
 20
5115.00000
 41
1.00000000
 42
1.00000000
 43
1.00000000
 50
  90.000
  0
INSERT
  8
2
  2
ARROW
 10
-3984.6643
 20
12800.0000
 41
1.00000000
 42
1.00000000
 43
1.00000000
 50
  90.000
  0
TEXT
  8
11
 7
SIMPLEX
 10
-4032.3899
 20
2271.14575
 40
190.902908
  1
5115
 50
  90.000
  0
TEXT
  8
11
 7
SIMPLEX
 10
-4032.3899
 20
8575.69434
 40
190.902908
  1
7685
 50
  90.000
  0
LINE
  8
2
 10
-5206.4429
 20
0.00000000
 11
-5206.4429
 21
12800.0000
  0
INSERT
  8
2
  2
ARROW
 10
-5206.4429
 20
0.00000000
 41
1.00000000
 42
1.00000000
 43
1.00000000
 50
 270.000
  0
INSERT
  8
2
  2
ARROW
 10
-5206.4429
 20
12800.0000
 41
1.00000000
 42
1.00000000
 43
1.00000000
 50
  90.000
  0
TEXT
  8
11
 7
SIMPLEX
 10
-5298.0767
 20
4080.53003
 40
190.902908
  1
12800 OUT-TO-OUT OF STEEL
 50
  90.000
  0
LINE
  8
12
 10
30666.6074
 20
0.00000000
 11
34866.4688
 21
0.00000000
  0
LINE
  8
12
 10
30666.6074
 20
12800.0000
 11
34866.4688
 21
12800.0000
  0
CIRCLE
  8
13
 10
35095.5547
 20
0.00000000
 40
229.083511
  0
TEXT
  8
13
 7
SIMPLEX
 10
34992.4648
 20
-103.08756
 40
206.175125
  1
A
 72
      1
 11
35095.5547
 21
-103.08756
 50
   0.000
  0
CIRCLE
  8
13
 10
35095.5547
 20
12800.0000
 40
229.083511
  0
TEXT
  8
13
 7
SIMPLEX
 10
34992.4648
 20
12696.9121
 40
206.175125
  1
C
 72
      1
 11
35095.5547
 21
12696.9121
 50
   0.000
  0
CIRCLE
  8
13
 10
35095.5547
 20
5115.00000
 40
229.083511
  0
TEXT
  8
13
 7
SIMPLEX
 10
34992.4648
 20
5011.91260
 40
206.175125
  1
B
 72
      1
 11
35095.5547
 21
5011.91260
 50
   0.000
  0
LINE
  8
2
 10
34484.6680
 20
0.00000000
 11
34484.6680
 21
12800.0000
  0
LINE
  8
12
 10
32957.4414
 20
5115.00000
 11
34866.4688
 21
5115.00000
  0
INSERT
  8
2
  2
ARROW
 10
34484.6680
 20
0.00000000
 41
1.00000000
 42
1.00000000
 43
1.00000000
 50
 270.000
  0
INSERT
  8
2
  2
ARROW
 10
34484.6680
 20
5115.00000
 41
1.00000000
 42
1.00000000
 43
1.00000000
 50
 270.000
  0
INSERT
  8
2
  2
ARROW
 10
34484.6680
 20
5115.00000
 41
1.00000000
 42
1.00000000
 43
1.00000000
 50
  90.000
  0
INSERT
  8
2
  2
ARROW
 10
34484.6680
 20
12800.0000
 41
1.00000000
 42
1.00000000
 43
1.00000000
 50
  90.000
  0
TEXT
  8
11
 7
SIMPLEX
 10
34436.9414
 20
2271.14575
 40
190.902908
  1
5115
 50
  90.000
  0
TEXT
  8
11
 7
SIMPLEX
 10
34436.9414
 20
8575.69434
 40
190.902908
  1
7685
 50
  90.000
  0
LINE
  8
1
 10
390.000000
 20
12570.0000
 11
798.532471
 21
12161.4678
  0
TEXT
  8
3
 7
SIMPLEX
 10
798.532471
 20
12352.3711
 40
190.902908
  1
CA-1
 50
   0.000
  0
LINE
  8
1
 10
8535.00000
 20
12570.0000
 11
8126.46729
 21
12161.4678
  0
TEXT
  8
3
 7
SIMPLEX
 10
7448.76221
 20
12352.3711
 40
190.902908
  1
CA-1
 50
   0.000
  0
LINE
  8
1
 10
8535.00000
 20
12570.0000
 11
8943.53223
 21
12161.4678
  0
TEXT
  8
3
 7
SIMPLEX
 10
8943.53223
 20
12352.3711
 40
190.902908
  1
CA-1
 50
   0.000
  0
LINE
  8
1
 10
16745.0000
 20
12570.0000
 11
16336.4658
 21
12161.4678
  0
TEXT
  8
3
 7
SIMPLEX
 10
15658.7598
 20
12352.3711
 40
190.902908
  1
CA-1
 50
   0.000
  0
LINE
  8
1
 10
16745.0000
 20
12570.0000
 11
17153.5332
 21
12161.4678
  0
TEXT
  8
3
 7
SIMPLEX
 10
17153.5332
 20
12352.3711
 40
190.902908
  1
CA-1
 50
   0.000
  0
LINE
  8
1
 10
23460.0000
 20
12570.0000
 11
23051.4668
 21
12161.4678
  0
TEXT
  8
3
 7
SIMPLEX
 10
22373.7617
 20
12352.3711
 40
190.902908
  1
CA-1
 50
   0.000
  0
LINE
  8
1
 10
23460.0000
 20
12570.0000
 11
23868.5332
 21
12161.4678
  0
TEXT
  8
3
 7
SIMPLEX
 10
23868.5332
 20
12352.3711
 40
190.902908
  1
CA-1
 50
   0.000
  0
LINE
  8
1
 10
30110.0000
 20
12570.0000
 11
29701.4648
 21
12161.4678
  0
TEXT
  8
3
 7
SIMPLEX
 10
29023.7637
 20
12352.3711
 40
190.902908
  1
CA-1
 50
   0.000
  0
LINE
  8
1
 10
390.000000
 20
230.000015
 11
798.532227
 21
638.532227
  0
TEXT
  8
3
 7
SIMPLEX
 10
798.532227
 20
256.726440
 40
190.902908
  1
CA-1
 50
   0.000
  0
LINE
  8
1
 10
8535.00000
 20
230.000015
 11
8126.46729
 21
638.532227
  0
TEXT
  8
3
 7
SIMPLEX
 10
7448.76221
 20
256.726440
 40
190.902908
  1
CA-1
 50
   0.000
  0
LINE
  8
1
 10
8535.00000
 20
230.000015
 11
8943.53223
 21
638.532227
  0
TEXT
  8
3
 7
SIMPLEX
 10
8943.53223
 20
256.726440
 40
190.902908
  1
CA-1
 50
   0.000
  0
LINE
  8
1
 10
16745.0000
 20
230.000015
 11
16336.4668
 21
638.532227
  0
TEXT
  8
3
 7
SIMPLEX
 10
15658.7617
 20
256.726440
 40
190.902908
  1
CA-1
 50
   0.000
  0
LINE
  8
1
 10
16745.0000
 20
230.000015
 11
17153.5313
 21
638.532227
  0
TEXT
  8
3
 7
SIMPLEX
 10
17153.5313
 20
256.726440
 40
190.902908
  1
CA-1
 50
   0.000
  0
LINE
  8
1
 10
23460.0000
 20
230.000015
 11
23051.4688
 21
638.532227
  0
TEXT
  8
3
 7
SIMPLEX
 10
22373.7617
 20
256.726440
 40
190.902908
  1
CA-1
 50
   0.000
  0
LINE
  8
1
 10
23460.0000
 20
230.000015
 11
23868.5313
 21
638.532227
  0
TEXT
  8
3
 7
SIMPLEX
 10
23868.5313
 20
256.726440
 40
190.902908
  1
CA-1
 50
   0.000
  0
LINE
  8
1
 10
30110.0000
 20
230.000015
 11
29701.4648
 21
638.532227
  0
TEXT
  8
3
 7
SIMPLEX
 10
29023.7637
 20
256.726440
 40
190.902908
  1
CA-1
 50
   0.000
  0
TEXT
  8
3
 7
SIMPLEX
 10
17.7393246
 20
11674.6650
 40
190.902908
  1
CA-2
 50
   0.000
  0
TEXT
  8
3
 7
SIMPLEX
 10
7804.79639
 20
11674.6650
 40
190.902908
  1
CA-2 (2)
 50
   0.000
  0
TEXT
  8
3
 7
SIMPLEX
 10
16014.7949
 20
11674.6650
 40
190.902908
  1
CA-2 (2)
 50
   0.000
  0
TEXT
  8
3
 7
SIMPLEX
 10
22729.7969
 20
11674.6650
 40
190.902908
  1
CA-2 (2)
 50
   0.000
  0
TEXT
  8
3
 7
SIMPLEX
 10
29737.7402
 20
11674.6650
 40
190.902908
  1
CA-2
 50
   0.000
  0
TEXT
  8
3
 7
SIMPLEX
 10
17.7393246
 20
934.431702
 40
190.902908
  1
CA-2
 50
   0.000
  0
TEXT
  8
3
 7
SIMPLEX
 10
7804.79639
 20
934.431702
 40
190.902908
  1
CA-2 (2)
 50
   0.000
  0
TEXT
  8
3
 7
SIMPLEX
 10
16014.7949
 20
934.431702
 40
190.902908
  1
CA-2 (2)
 50
   0.000
  0
TEXT
  8
3
 7
SIMPLEX
 10
22729.7969
 20
934.431702
 40
190.902908
  1
CA-2 (2)
 50
   0.000
  0
TEXT
  8
3
 7
SIMPLEX
 10
29737.7402
 20
934.431702
 40
190.902908
  1
CA-2
 50
   0.000
  0
ENDBLK
  8
0
  0
BLOCK
  8
1
  2
CRANETBL
 70
     0
 10
0.00000000
 20
0.00000000
  0
TEXT
  8
14
 7
SIMPLEX
 10
-43.656246
 20
-2.1828127
 40
1.74625000
  1
MEMBER TABLE
 50
   0.000
  0
TEXT
  8
14
 7
SIMPLEX
 10
-43.656246
 20
-4.8021875
 40
1.74625000
  1
Mark
 50
   0.000
  0
TEXT
  8
14
 7
SIMPLEX
 10
-31.432499
 20
-4.8021875
 40
1.74625000
  1
Part
 50
   0.000
  0
TEXT
  8
14
 7
SIMPLEX
 10
-13.969998
 20
-4.8021875
 40
1.74625000
  1
Length
 50
   0.000
  0
LINE
  8
0
 10
-33.178749
 20
-2.6193753
 11
-33.178749
 21
-5.2387505
  0
LINE
  8
0
 10
-15.716249
 20
-2.6193753
 11
-15.716249
 21
-5.2387505
  0
LINE
  8
0
 10
-45.402500
 20
-2.6193753
 11
-45.402500
 21
-5.2387505
  0
LINE
  8
0
 10
-45.402500
 20
-2.6193753
 11
0.00000000
 21
-2.6193753
  0
LINE
  8
0
 10
-45.402500
 20
-5.2387505
 11
0.00000000
 21
-5.2387505
  0
TEXT
  8
26
 7
SIMPLEX
 10
-43.656246
 20
-7.4215622
 40
1.74625000
  1
RB-1
 50
   0.000
  0
TEXT
  8
26
 7
SIMPLEX
 10
-31.432499
 20
-7.4215622
 40
1.74625000
  1
W50b3010
 50
   0.000
  0
TEXT
  8
26
 7
SIMPLEX
 10
-13.969998
 20
-7.4215622
 40
1.74625000
  1
   8300
 50
   0.000
  0
TEXT
  8
26
 7
SIMPLEX
 10
-43.656246
 20
-10.040937
 40
1.74625000
  1
RB-2
 50
   0.000
  0
TEXT
  8
26
 7
SIMPLEX
 10
-31.432499
 20
-10.040937
 40
1.74625000
  1
W50b3010
 50
   0.000
  0
TEXT
  8
26
 7
SIMPLEX
 10
-13.969998
 20
-10.040937
 40
1.74625000
  1
   8300
 50
   0.000
  0
TEXT
  8
26
 7
SIMPLEX
 10
-43.656246
 20
-12.660312
 40
1.74625000
  1
RB-3
 50
   0.000
  0
TEXT
  8
26
 7
SIMPLEX
 10
-31.432499
 20
-12.660312
 40
1.74625000
  1
W50b3010
 50
   0.000
  0
TEXT
  8
26
 7
SIMPLEX
 10
-13.969998
 20
-12.660312
 40
1.74625000
  1
   8200
 50
   0.000
  0
TEXT
  8
26
 7
SIMPLEX
 10
-43.656246
 20
-15.279687
 40
1.74625000
  1
RB-4
 50
   0.000
  0
TEXT
  8
26
 7
SIMPLEX
 10
-31.432499
 20
-15.279687
 40
1.74625000
  1
W50b2510
 50
   0.000
  0
TEXT
  8
26
 7
SIMPLEX
 10
-13.969998
 20
-15.279687
 40
1.74625000
  1
   6705
 50
   0.000
  0
TEXT
  8
26
 7
SIMPLEX
 10
-43.656246
 20
-17.899061
 40
1.74625000
  1
RB-5
 50
   0.000
  0
TEXT
  8
26
 7
SIMPLEX
 10
-31.432499
 20
-17.899061
 40
1.74625000
  1
W50b2510
 50
   0.000
  0
TEXT
  8
26
 7
SIMPLEX
 10
-13.969998
 20
-17.899061
 40
1.74625000
  1
   6805
 50
   0.000
  0
TEXT
  8
26
 7
SIMPLEX
 10
-43.656246
 20
-20.518436
 40
1.74625000
  1
RB-6
 50
   0.000
  0
TEXT
  8
26
 7
SIMPLEX
 10
-31.432499
 20
-20.518436
 40
1.74625000
  1
W50b2510
 50
   0.000
  0
TEXT
  8
26
 7
SIMPLEX
 10
-13.969998
 20
-20.518436
 40
1.74625000
  1
   6805
 50
   0.000
  0
LINE
  8
0
 10
-33.178749
 20
-5.2387505
 11
-33.178749
 21
-20.954998
  0
LINE
  8
0
 10
-15.716249
 20
-5.2387505
 11
-15.716249
 21
-20.954998
  0
LINE
  8
0
 10
-45.402500
 20
-5.2387505
 11
-45.402500
 21
-20.954998
  0
LINE
  8
0
 10
-45.402500
 20
0.00000000
 11
-45.402500
 21
-20.954998
  0
LINE
  8
0
 10
-45.402500
 20
-20.954998
 11
0.00000000
 21
-20.954998
  0
LINE
  8
0
 10
-45.402500
 20
0.00000000
 11
0.00000000
 21
0.00000000
  0
LINE
  8
0
 10
0.00000000
 20
0.00000000
 11
0.00000000
 21
-20.954998
  0
ENDBLK
  8
1
  0
BLOCK
  8
1
  2
CRANEANG
 70
     0
 10
0.00000000
 20
0.00000000
  0
TEXT
  8
14
 7
SIMPLEX
 10
-19.208750
 20
-2.1828127
 40
1.74625000
  1
ANGLE TABLE
 50
   0.000
  0
TEXT
  8
14
 7
SIMPLEX
 10
-18.335627
 20
-4.8021875
 40
1.74625000
  1
ID
 50
   0.000
  0
TEXT
  8
14
 7
SIMPLEX
 10
-13.970000
 20
-4.8021875
 40
1.74625000
  1
Mark
 50
   0.000
  0
LINE
  8
0
 10
-15.716250
 20
-2.6193753
 11
-15.716250
 21
-5.2387505
  0
LINE
  8
0
 10
0.00000000
 20
-2.6193753
 11
0.00000000
 21
-5.2387505
  0
LINE
  8
0
 10
-20.955002
 20
-2.6193753
 11
0.00000000
 21
-2.6193753
  0
LINE
  8
14
 10
-19.645313
 20
-4.8021875
 11
-20.518438
 21
-3.9290628
  0
LINE
  8
14
 10
-20.518438
 20
-3.9290628
 11
-19.645313
 21
-3.0559378
  0
LINE
  8
14
 10
-19.645313
 20
-3.0559378
 11
-18.772188
 21
-3.9290628
  0
LINE
  8
14
 10
-18.772188
 20
-3.9290628
 11
-19.645313
 21
-4.8021875
  0
LINE
  8
0
 10
-20.955002
 20
-5.2387505
 11
0.00000000
 21
-5.2387505
  0
TEXT
  8
26
 7
SIMPLEX
 10
-20.081875
 20
-7.4215622
 40
1.74625000
  1
1
 50
   0.000
  0
TEXT
  8
26
 7
SIMPLEX
 10
-14.843125
 20
-7.4215622
 40
1.74625000
  1
CA-1
 50
   0.000
  0
TEXT
  8
26
 7
SIMPLEX
 10
-20.081875
 20
-10.040937
 40
1.74625000
  1
2
 50
   0.000
  0
TEXT
  8
26
 7
SIMPLEX
 10
-14.843125
 20
-10.040937
 40
1.74625000
  1
CA-2
 50
   0.000
  0
LINE
  8
0
 10
-15.716250
 20
-5.2387505
 11
-15.716250
 21
-10.477501
  0
LINE
  8
0
 10
0.00000000
 20
-5.2387505
 11
0.00000000
 21
-10.477501
  0
LINE
  8
0
 10
-20.955002
 20
0.00000000
 11
-20.955002
 21
-10.477501
  0
LINE
  8
0
 10
0.00000000
 20
0.00000000
 11
0.00000000
 21
-10.477501
  0
LINE
  8
0
 10
-20.955002
 20
0.00000000
 11
0.00000000
 21
0.00000000
  0
LINE
  8
0
 10
-20.955002
 20
-10.477501
 11
0.00000000
 21
-10.477501
  0
ENDBLK
  8
1
  0
ENDSEC
  0
SECTION
  2
ENTITIES
  0
LINE
  8
22
 10
0.00000000
 20
0.00000000
 11
420.000000
 21
0.00000000
  0
LINE
  8
22
 10
420.000000
 20
0.00000000
 11
420.000000
 21
297.000000
  0
LINE
  8
22
 10
420.000000
 20
297.000000
 11
0.00000000
 21
297.000000
  0
LINE
  8
22
 10
0.00000000
 20
297.000000
 11
0.00000000
 21
0.00000000
  0
LINE
  8
0
 10
259.979981
 20
0.00000000
 11
259.979981
 21
26.6700020
  0
LINE
  8
0
 10
259.979981
 20
26.6700020
 11
420.000000
 21
26.6700020
  0
LINE
  8
0
 10
259.979981
 20
0.00000000
 11
420.000000
 21
0.00000000
  0
LINE
  8
0
 10
420.000000
 20
0.00000000
 11
420.000000
 21
26.6700020
  0
LINE
  8
0
 10
259.979981
 20
10.1599999
 11
420.000000
 21
10.1599999
  0
LINE
  8
0
 10
259.979981
 20
15.2399998
 11
420.000000
 21
15.2399998
  0
LINE
  8
0
 10
259.979981
 20
20.3199997
 11
420.000000
 21
20.3199997
  0
LINE
  8
0
 10
282.839996
 20
0.00000000
 11
282.839996
 21
20.3199997
  0
LINE
  8
0
 10
339.989990
 20
0.00000000
 11
339.989990
 21
20.3199997
  0
LINE
  8
0
 10
339.989990
 20
5.07999993
 11
420.000000
 21
5.07999993
  0
LINE
  8
0
 10
367.929993
 20
15.2399998
 11
367.929993
 21
10.1599999
  0
LINE
  8
0
 10
393.329987
 20
15.2399998
 11
393.329987
 21
10.1599999
  0
LINE
  8
0
 10
380.629974
 20
10.1599999
 11
380.629974
 21
5.07999993
  0
TEXT
  8
14
 7
SIMPLEX
 10
262.519959
 20
16.5100003
 40
2.53999996
  1
PROJECT
 50
   0.000
  0
TEXT
  8
14
 7
SIMPLEX
 10
262.519959
 20
11.4300003
 40
2.53999996
  1
ID
 50
   0.000
  0
TEXT
  8
14
 7
SIMPLEX
 10
262.519959
 20
6.34999992
 40
2.53999996
  1
PROJECT
 50
   0.000
  0
TEXT
  8
14
 7
SIMPLEX
 10
262.519959
 20
1.26999998
 40
2.53999996
  1
ADDRESS
 50
   0.000
  0
TEXT
  8
14
 7
SIMPLEX
 10
285.379974
 20
16.5100003
 40
2.53999996
  1
Proposed Warehouse
 50
   0.000
  0
TEXT
  8
14
 7
SIMPLEX
 10
285.379974
 20
11.4300003
 40
2.53999996
  1
C463-002
 50
   0.000
  0
TEXT
  8
14
 7
SIMPLEX
 10
285.379974
 20
6.34999992
 40
2.53999996
  1
Warehouse
 50
   0.000
  0
TEXT
  8
14
 7
SIMPLEX
 10
285.379974
 20
1.26999998
 40
2.53999996
  1
Vapi
 50
   0.000
  0
TEXT
  8
14
 7
SIMPLEX
 10
312.049988
 20
21.5900002
 40
3.81000040
  1
INFINITI SOLUTIONS
 50
   0.000
  0
TEXT
  8
14
 7
SIMPLEX
 10
342.529999
 20
16.5100003
 40
2.53999996
  1
CRANE PLAN
 50
   0.000
  0
TEXT
  8
14
 7
SIMPLEX
 10
342.529999
 20
11.4300003
 40
2.53999996
  1
DESIGN:
 50
   0.000
  0
TEXT
  8
14
 7
SIMPLEX
 10
342.529999
 20
6.34999992
 40
2.53999996
  1
DATE:
 50
   0.000
  0
TEXT
  8
14
 7
SIMPLEX
 10
355.483978
 20
6.34999992
 40
2.53999996
  1
18/DEC/2025
 50
   0.000
  0
TEXT
  8
14
 7
SIMPLEX
 10
370.470001
 20
11.4300003
 40
2.53999996
  1
DRAFT:
 50
   0.000
  0
TEXT
  8
14
 7
SIMPLEX
 10
395.869995
 20
11.4300003
 40
2.53999996
  1
CHECK:
 50
   0.000
  0
TEXT
  8
14
 7
SIMPLEX
 10
381.899994
 20
6.34999992
 40
2.53999996
  1
SHEET
 50
   0.000
  0
TEXT
  8
14
 7
SIMPLEX
 10
407.299988
 20
6.34999992
 40
2.53999996
  1
OF
 50
   0.000
  0
TEXT
  8
14
 7
SIMPLEX
 10
394.599976
 20
6.34999992
 40
2.53999996
  1
 
 50
   0.000
999
FIELD:@PAGE_ID
  0
TEXT
  8
14
 7
SIMPLEX
 10
409.839996
 20
6.34999992
 40
2.53999996
  1
 
 50
   0.000
999
FIELD:@PAGE_TOTAL
  0
INSERT
  8
0
  2
ANCHOR
 10
80.4480896
 20
103.184715
 41
0.00914732
 42
0.00914732
 43
0.00914732
 50
    0.000
  0
INSERT
  8
0
  2
CRANETBL
 10
420.000000
 20
297.000000
 41
1.00000000
 42
1.00000000
 43
1.00000000
 50
    0.000
  0
INSERT
  8
0
  2
CRANEANG
 10
420.000000
 20
275.608460
 41
1.00000000
 42
1.00000000
 43
1.00000000
 50
    0.000
  0
ENDSEC
  0
EOF
