  0
SECTION
  2
HEADER
  9
$ACADVER
  1
AC1009
  9
$EXTMIN
 10
 -3358.701
 20
 -4681.650
  9
$EXTMAX
 10
 41591.703
 20
 29031.150
  9
$LIMMIN
 10
 -3358.701
 20
 -4681.650
  9
$LIMMAX
 10
 41591.703
 20
 29031.150
  9
$FILLMODE
 70
     1
  9
$HANDLING
 70
     0
  0
ENDSEC
  0
SECTION
  2
TABLES
  0
TABLE
  2
LTYPE
 70
1
  0
LTYPE
  2
CONTIN
 70
    64
  3
SOLID LINE
 72
    65
 73
     0
 40
0.0
  0
LTYPE
  2
CONTINUOUS
 70
    64
  3
SOLID LINE
 72
    65
 73
     0
 40
0.0
  0
LTYPE
  2
CENTER
 70
    64
  3
____ _ ____ _ ____ _ ____ _ ____ _ ____ _ ____
 72
    65
 73
     4
 40
     0.014
 49
     0.009
 49
    -0.002
 49
     0.002
 49
    -0.002
  0
LTYPE
  2
DASHED
 70
    64
  3
__ __ __ __ __ __ __ __ __ __ __ __ __ __ __ 
 72
    65
 73
     2
 40
   539.40
 49
   359.60
 49
  -179.80
  0
ENDTAB
  0
TABLE
  2
LAYER
 70
30
  0
LAYER
  2
0
 70
     0
 62
     7
  6
CONTIN
  0
LAYER
  2
1
 70
     0
 62
     7
  6
CONTIN
  0
LAYER
  2
2
 70
     0
 62
     7
  6
CONTIN
  0
LAYER
  2
3
 70
     0
 62
     7
  6
CONTIN
  0
LAYER
  2
4
 70
     0
 62
     5
  6
CONTIN
  0
LAYER
  2
5
 70
     0
 62
     5
  6
DASHED
  0
LAYER
  2
6
 70
     0
 62
     5
  6
DASHED
  0
LAYER
  2
7
 70
     0
 62
     5
  6
CONTIN
  0
LAYER
  2
8
 70
     0
 62
     5
  6
DASHED
  0
LAYER
  2
9
 70
     0
 62
     7
  6
CONTIN
  0
LAYER
  2
10
 70
     0
 62
     7
  6
CONTIN
  0
LAYER
  2
11
 70
     0
 62
     6
  6
DASHED
  0
LAYER
  2
12
 70
     0
 62
     7
  6
DASHED
  0
LAYER
  2
13
 70
     0
 62
     5
  6
DASHED
  0
LAYER
  2
14
 70
     0
 62
     7
  6
CONTIN
  0
LAYER
  2
15
 70
     0
 62
     5
  6
CONTIN
  0
LAYER
  2
16
 70
     0
 62
     7
  6
CONTIN
  0
LAYER
  2
17
 70
     0
 62
     7
  6
CONTIN
  0
LAYER
  2
18
 70
     0
 62
     7
  6
CONTIN
  0
LAYER
  2
19
 70
     0
 62
     7
  6
CONTIN
  0
LAYER
  2
20
 70
     0
 62
     1
  6
CONTIN
  0
LAYER
  2
21
 70
     0
 62
     7
  6
CONTIN
  0
LAYER
  2
22
 70
     0
 62
     7
  6
DASHED
  0
LAYER
  2
23
 70
     0
 62
     7
  6
DASHED
  0
LAYER
  2
24
 70
     0
 62
     7
  6
CONTIN
  0
LAYER
  2
25
 70
     0
 62
     7
  6
CONTIN
  0
LAYER
  2
26
 70
     0
 62
     7
  6
CONTIN
  0
LAYER
  2
27
 70
     0
 62
     1
  6
CENTER
  0
LAYER
  2
28
 70
     0
 62
     7
  6
CONTIN
  0
LAYER
  2
29
 70
     0
 62
     3
  6
DASHED
  0
ENDTAB
  0
TABLE
  2
STYLE
 70
  0
  0
ENDTAB
  0
ENDSEC
  0
SECTION
  2
ENTITIES
  0
LINE
  8
1
 10
     0.000
 20
     0.000
 11
     0.000
 21
  9100.000
  0
LINE
  8
1
 10
     0.000
 20
  9100.000
 11
  6400.000
 21
  9740.000
  0
LINE
  8
1
 10
  6400.000
 20
  9740.000
 11
 12800.000
 21
  9100.000
  0
LINE
  8
1
 10
 12800.000
 20
  9100.000
 11
 12800.000
 21
     0.000
  0
LINE
  8
1
 10
     0.000
 20
  8200.000
 11
  7685.000
 21
  8200.000
  0
LINE
  8
1
 10
     0.000
 20
  8200.000
 11
 -1315.500
 21
  7331.500
  0
LINE
  8
1
 10
  7685.000
 20
  8200.000
 11
  6369.500
 21
  7331.500
  0
LINE
  8
1
 10
 -1315.500
 20
  7331.500
 11
  6369.500
 21
  7331.500
  0
LINE
  8
1
 10
 27485.365
 20
 13220.855
 11
 33374.418
 21
 16437.340
  0
LINE
  8
1
 10
 27485.365
 20
 13220.855
 11
 28985.365
 21
 13070.855
  0
LINE
  8
1
 10
 33374.418
 20
 16437.340
 11
 34874.418
 21
 16287.340
  0
LINE
  8
1
 10
 28985.365
 20
 13070.855
 11
 34874.418
 21
 16287.340
  0
LINE
  8
22
 10
 34433.500
 20
 19809.500
 11
 26748.500
 21
 19809.500
  0
LINE
  8
22
 10
 34433.500
 20
 19809.500
 11
 35749.000
 21
 20378.000
  0
LINE
  8
22
 10
 26748.500
 20
 19809.500
 11
 28064.000
 21
 20378.000
  0
LINE
  8
22
 10
 35749.000
 20
 20378.000
 11
 28064.000
 21
 20378.000
  0
LINE
  8
22
 10
   267.310
 20
   145.999
 11
   267.310
 21
  9245.999
  0
LINE
  8
1
 10
   267.310
 20
  9245.999
 11
  6667.310
 21
  9885.999
  0
LINE
  8
1
 10
  6667.310
 20
  9885.999
 11
 13067.310
 21
  9245.999
  0
LINE
  8
1
 10
 13067.310
 20
  9245.999
 11
 13067.310
 21
   145.999
  0
LINE
  8
22
 10
  7485.195
 20
  4088.265
 11
  7485.195
 21
 13188.266
  0
LINE
  8
1
 10
  7485.195
 20
 13188.266
 11
 13885.195
 21
 13828.266
  0
LINE
  8
1
 10
 13885.195
 20
 13828.266
 11
 20285.195
 21
 13188.266
  0
LINE
  8
1
 10
 20285.195
 20
 13188.266
 11
 20285.195
 21
  4088.265
  0
LINE
  8
22
 10
 14685.364
 20
  8020.855
 11
 14685.364
 21
 17120.855
  0
LINE
  8
1
 10
 14685.364
 20
 17120.855
 11
 21085.363
 21
 17760.855
  0
LINE
  8
1
 10
 21085.363
 20
 17760.855
 11
 27485.363
 21
 17120.855
  0
LINE
  8
1
 10
 27485.363
 20
 17120.855
 11
 27485.363
 21
  8020.855
  0
LINE
  8
22
 10
 20574.420
 20
 11237.340
 11
 20574.420
 21
 20337.340
  0
LINE
  8
1
 10
 20574.420
 20
 20337.340
 11
 26974.420
 21
 20977.340
  0
LINE
  8
1
 10
 26974.420
 20
 20977.340
 11
 33374.422
 21
 20337.340
  0
LINE
  8
1
 10
 33374.422
 20
 20337.340
 11
 33374.422
 21
 11237.340
  0
LINE
  8
22
 10
 26481.189
 20
 14463.501
 11
 26481.189
 21
 23563.500
  0
LINE
  8
1
 10
 26481.189
 20
 23563.500
 11
 32881.188
 21
 24203.500
  0
LINE
  8
1
 10
 32881.188
 20
 24203.500
 11
 39281.188
 21
 23563.500
  0
LINE
  8
1
 10
 39281.188
 20
 23563.500
 11
 39281.188
 21
 14463.501
  0
LINE
  8
1
 10
     0.000
 20
  9100.000
 11
 26748.500
 21
 23709.500
  0
LINE
  8
1
 10
  6400.000
 20
  9740.000
 11
 33148.500
 21
 24349.500
  0
LINE
  8
1
 10
 12800.000
 20
  9100.000
 11
 39548.500
 21
 23709.500
  0
LINE
  8
22
 10
 26748.500
 20
 14609.500
 11
 26748.500
 21
 23709.500
  0
LINE
  8
1
 10
 26748.500
 20
 23709.500
 11
 33148.500
 21
 24349.500
  0
LINE
  8
1
 10
 33148.500
 20
 24349.500
 11
 39548.500
 21
 23709.500
  0
LINE
  8
1
 10
 39548.500
 20
 23709.500
 11
 39548.500
 21
 14609.500
  0
LINE
  8
1
 10
  7685.000
 20
     0.000
 11
  7685.000
 21
  9611.500
  0
LINE
  8
22
 10
 34433.500
 20
 14609.500
 11
 34433.500
 21
 24221.000
  0
LINE
  8
1
 10
   843.000
 20
     0.000
 11
   843.000
 21
  7000.000
  0
LINE
  8
1
 10
   843.000
 20
  7000.000
 11
  6843.000
 21
  7000.000
  0
LINE
  8
1
 10
  6843.000
 20
     0.000
 11
  6843.000
 21
  7000.000
  0
LINE
  8
1
 10
 28676.330
 20
  8671.337
 11
 28676.330
 21
 12671.337
  0
LINE
  8
1
 10
 28676.330
 20
 12671.337
 11
 32184.330
 21
 14587.337
  0
LINE
  8
1
 10
 32184.330
 20
 10587.337
 11
 32184.330
 21
 14587.337
  0
LINE
  8
22
 10
 32590.500
 20
 14609.500
 11
 32590.500
 21
 18609.500
  0
LINE
  8
22
 10
 32590.500
 20
 18609.500
 11
 28590.500
 21
 18609.500
  0
LINE
  8
22
 10
 28590.500
 20
 14609.500
 11
 28590.500
 21
 18609.500
  0
LINE
  8
1
 10
     0.000
 20
  3000.000
 11
   843.000
 21
  3000.000
  0
LINE
  8
1
 10
  6843.000
 20
  3000.000
 11
  7685.000
 21
  3000.000
  0
LINE
  8
1
 10
  7685.000
 20
  3000.000
 11
 12800.000
 21
  3000.000
  0
LINE
  8
1
 10
 12800.000
 20
  3000.000
 11
 20285.195
 21
  7088.265
  0
LINE
  8
1
 10
 20285.195
 20
  7088.265
 11
 27485.365
 21
 11020.855
  0
LINE
  8
1
 10
 27485.365
 20
 11020.855
 11
 28676.330
 21
 11671.337
  0
LINE
  8
1
 10
 32184.330
 20
 13587.337
 11
 33374.418
 21
 14237.340
  0
LINE
  8
1
 10
 33374.418
 20
 14237.340
 11
 39548.500
 21
 17609.500
  0
LINE
  8
22
 10
 39548.500
 20
 17609.500
 11
 34433.500
 21
 17609.500
  0
LINE
  8
22
 10
 34433.500
 20
 17609.500
 11
 32590.500
 21
 17609.500
  0
LINE
  8
22
 10
 28590.500
 20
 17609.500
 11
 26748.500
 21
 17609.500
  0
LINE
  8
22
 10
 26748.500
 20
 17609.500
 11
 20574.420
 21
 14237.340
  0
LINE
  8
22
 10
 20574.420
 20
 14237.340
 11
 14685.365
 21
 11020.854
  0
LINE
  8
22
 10
 14685.365
 20
 11020.854
 11
  7485.196
 21
  7088.265
  0
LINE
  8
22
 10
  7485.196
 20
  7088.265
 11
     0.001
 21
  3000.000
  0
LINE
  8
1
 10
     0.000
 20
     0.000
 11
   843.000
 21
     0.000
  0
LINE
  8
1
 10
  6843.000
 20
     0.000
 11
 12800.000
 21
     0.000
  0
LINE
  8
1
 10
 12800.000
 20
     0.000
 11
 28676.330
 21
  8671.337
  0
LINE
  8
1
 10
 32184.330
 20
 10587.337
 11
 39548.500
 21
 14609.500
  0
LINE
  8
22
 10
 39548.500
 20
 14609.500
 11
 32590.500
 21
 14609.500
  0
LINE
  8
22
 10
 28590.500
 20
 14609.500
 11
 26748.500
 21
 14609.500
  0
LINE
  8
22
 10
 26748.500
 20
 14609.500
 11
     0.001
 21
     0.000
  0
LINE
  8
0
 10
 -3358.701
 20
 -4681.650
 11
 41591.703
 21
 -4681.650
  0
LINE
  8
0
 10
 41591.703
 20
 -4681.650
 11
 41591.703
 21
 29031.150
  0
LINE
  8
0
 10
 41591.703
 20
 29031.150
 11
 -3358.701
 21
 29031.150
  0
LINE
  8
0
 10
 -3358.701
 20
 29031.150
 11
 -3358.701
 21
 -4681.650
  0
LINE
  8
0
 10
 -3358.701
 20
 -3569.128
 11
 41591.703
 21
 -3569.128
  0
TEXT
  8
0
 10
 13553.888
 20
 -4496.230
 40
   741.682
  1
Building Layout
 50
     0.000
  0
TEXT
  8
0
 10
 -2987.860
 20
 -4496.230
 40
   741.682
  1
C463-002
 50
     0.000
  0
TEXT
  8
0
 10
 33062.363
 20
 -4496.230
 40
   741.682
  1
18/DEC/2025
 50
     0.000
  0
ENDSEC
  0
EOF
