  0
SECTION
  2
HEADER
  9
$ACADVER
  1
AC1009
  9
$EXTMIN
 10
  -854.427
 20
  -647.020
  9
$EXTMAX
 10
 13654.427
 20
 10234.620
  9
$LIMMIN
 10
  -854.427
 20
  -647.020
  9
$LIMMAX
 10
 13654.427
 20
 10234.620
  9
$FILLMODE
 70
     1
  9
$HANDLING
 70
     0
  0
ENDSEC
  0
SECTION
  2
TABLES
  0
TABLE
  2
LTYPE
 70
1
  0
LTYPE
  2
CONTIN
 70
    64
  3
SOLID LINE
 72
    65
 73
     0
 40
0.0
  0
LTYPE
  2
CONTINUOUS
 70
    64
  3
SOLID LINE
 72
    65
 73
     0
 40
0.0
  0
LTYPE
  2
CENTER
 70
    64
  3
____ _ ____ _ ____ _ ____ _ ____ _ ____ _ ____
 72
    65
 73
     4
 40
  4098.045
 49
  2561.278
 49
  -512.256
 49
   512.256
 49
  -512.256
  0
LTYPE
  2
DASHED
 70
    64
  3
__ __ __ __ __ __ __ __ __ __ __ __ __ __ __ 
 72
    65
 73
     2
 40
   174.10
 49
   116.07
 49
   -58.03
  0
ENDTAB
  0
TABLE
  2
LAYER
 70
30
  0
LAYER
  2
0
 70
     0
 62
     7
  6
CONTIN
  0
LAYER
  2
1
 70
     0
 62
     7
  6
CONTIN
  0
LAYER
  2
2
 70
     0
 62
     7
  6
CONTIN
  0
LAYER
  2
3
 70
     0
 62
     7
  6
CONTIN
  0
LAYER
  2
4
 70
     0
 62
     5
  6
CONTIN
  0
LAYER
  2
5
 70
     0
 62
     5
  6
DASHED
  0
LAYER
  2
6
 70
     0
 62
     5
  6
DASHED
  0
LAYER
  2
7
 70
     0
 62
     5
  6
CONTIN
  0
LAYER
  2
8
 70
     0
 62
     5
  6
DASHED
  0
LAYER
  2
9
 70
     0
 62
     7
  6
CONTIN
  0
LAYER
  2
10
 70
     0
 62
     7
  6
CONTIN
  0
LAYER
  2
11
 70
     0
 62
     6
  6
DASHED
  0
LAYER
  2
12
 70
     0
 62
     7
  6
DASHED
  0
LAYER
  2
13
 70
     0
 62
     5
  6
DASHED
  0
LAYER
  2
14
 70
     0
 62
     7
  6
CONTIN
  0
LAYER
  2
15
 70
     0
 62
     5
  6
CONTIN
  0
LAYER
  2
16
 70
     0
 62
     7
  6
CONTIN
  0
LAYER
  2
17
 70
     0
 62
     7
  6
CONTIN
  0
LAYER
  2
18
 70
     0
 62
     7
  6
CONTIN
  0
LAYER
  2
19
 70
     0
 62
     7
  6
CONTIN
  0
LAYER
  2
20
 70
     0
 62
     1
  6
CONTIN
  0
LAYER
  2
21
 70
     0
 62
     7
  6
CONTIN
  0
LAYER
  2
22
 70
     0
 62
     7
  6
DASHED
  0
LAYER
  2
23
 70
     0
 62
     7
  6
DASHED
  0
LAYER
  2
24
 70
     0
 62
     7
  6
CONTIN
  0
LAYER
  2
25
 70
     0
 62
     7
  6
CONTIN
  0
LAYER
  2
26
 70
     0
 62
     7
  6
CONTIN
  0
LAYER
  2
27
 70
     0
 62
     1
  6
CENTER
  0
LAYER
  2
28
 70
     0
 62
     7
  6
CONTIN
  0
LAYER
  2
29
 70
     0
 62
     3
  6
DASHED
  0
ENDTAB
  0
TABLE
  2
STYLE
 70
  0
  0
ENDTAB
  0
ENDSEC
  0
SECTION
  2
ENTITIES
  0
LINE
  8
1
 10
  5064.200
 20
     0.000
 11
  5064.200
 21
  9081.595
  0
LINE
  8
1
 10
  5165.800
 20
     0.000
 11
  5165.800
 21
  9081.595
  0
LINE
  8
1
 10
  5064.200
 20
     0.000
 11
  5165.800
 21
     0.000
  0
LINE
  8
1
 10
  5064.200
 20
  9081.595
 11
  5165.800
 21
  9081.595
  0
TEXT
  8
16
 10
  4871.160
 20
  -152.400
 40
   121.920
  1
Col2
 50
     0.000
  0
LINE
  8
9
 10
  5064.200
 20
     0.000
 11
  5165.800
 21
     0.000
  0
LINE
  8
9
 10
  5064.200
 20
    25.400
 11
  5165.800
 21
    25.400
  0
LINE
  8
9
 10
  5064.200
 20
     0.000
 11
  5064.200
 21
    25.400
  0
LINE
  8
9
 10
  5165.800
 20
     0.000
 11
  5165.800
 21
    25.400
  0
LINE
  8
8
 10
     0.000
 20
     0.000
 11
     0.000
 21
  9100.000
  0
LINE
  8
8
 10
     0.000
 20
  9100.000
 11
  6400.000
 21
  9740.000
  0
LINE
  8
8
 10
  6400.000
 20
  9740.000
 11
 12800.000
 21
  9100.000
  0
LINE
  8
8
 10
 12800.000
 20
  9100.000
 11
 12800.000
 21
     0.000
  0
LINE
  8
8
 10
   636.000
 20
     0.000
 11
   636.000
 21
  8555.600
  0
LINE
  8
8
 10
   636.000
 20
  8555.600
 11
   636.000
 21
  8555.600
  0
LINE
  8
8
 10
   636.000
 20
  8555.600
 11
  6400.000
 21
  9232.500
  0
LINE
  8
8
 10
  6400.000
 20
  9232.500
 11
  6400.000
 21
  9232.500
  0
LINE
  8
8
 10
  6400.000
 20
  9232.500
 11
 12164.000
 21
  8555.600
  0
LINE
  8
8
 10
 12164.000
 20
  8555.600
 11
 12164.000
 21
  8555.600
  0
LINE
  8
8
 10
 12164.000
 20
  8555.600
 11
 12164.000
 21
     0.000
  0
LINE
  8
2
 10
  6958.000
 20
    91.440
 11
  6958.000
 21
  4188.560
  0
LINE
  8
2
 10
 10957.999
 20
    91.440
 11
 10957.999
 21
  4188.560
  0
LINE
  8
2
 10
  7049.439
 20
  4000.000
 11
 10866.560
 21
  4000.000
  0
TEXT
  8
21
 10
  8836.079
 20
  2000.000
 40
   121.920
  1
  3
 50
     0.000
  0
LINE
  8
2
 10
     0.001
 20
  3080.000
 11
  5023.560
 21
  3080.000
  0
LINE
  8
2
 10
  5115.000
 20
  3080.000
 11
  6866.560
 21
  3080.000
  0
LINE
  8
2
 10
 11049.439
 20
  3080.000
 11
 12800.000
 21
  3080.000
  0
LINE
  8
2
 10
     0.001
 20
  4280.000
 11
  5115.000
 21
  4280.000
  0
LINE
  8
2
 10
  5115.000
 20
  4280.000
 11
 12800.000
 21
  4280.000
  0
LINE
  8
2
 10
  5115.000
 20
  5250.000
 11
 12800.000
 21
  5250.000
  0
LINE
  8
2
 10
     0.002
 20
  5780.000
 11
  5115.000
 21
  5780.000
  0
LINE
  8
2
 10
  5115.000
 20
  5780.000
 11
 12800.000
 21
  5780.000
  0
LINE
  8
2
 10
     0.002
 20
  7280.000
 11
  5115.000
 21
  7280.000
  0
LINE
  8
2
 10
  5115.000
 20
  7280.000
 11
 12800.000
 21
  7280.000
  0
LINE
  8
2
 10
     0.003
 20
  8280.000
 11
  5115.000
 21
  8280.000
  0
LINE
  8
2
 10
  5115.000
 20
  8280.000
 11
 12800.000
 21
  8280.000
  0
LINE
  8
8
 10
     0.000
 20
  3000.000
 11
  5115.000
 21
  3000.000
  0
LINE
  8
8
 10
  5115.000
 20
  3000.000
 11
  6958.000
 21
  3000.000
  0
LINE
  8
8
 10
 10957.999
 20
  3000.000
 11
 12800.000
 21
  3000.000
  0
LINE
  8
5
 10
  1328.275
 20
  9232.827
 11
  1348.176
 21
  9033.819
  0
LINE
  8
5
 10
  2919.339
 20
  9391.934
 11
  2939.240
 21
  9192.927
  0
LINE
  8
5
 10
  4510.404
 20
  9551.040
 11
  4530.305
 21
  9352.033
  0
LINE
  8
5
 10
  6101.469
 20
  9710.147
 11
  6121.369
 21
  9511.140
  0
LINE
  8
5
 10
  6698.511
 20
  9710.148
 11
  6678.611
 21
  9511.142
  0
LINE
  8
5
 10
  8289.575
 20
  9551.042
 11
  8269.675
 21
  9352.034
  0
LINE
  8
5
 10
  9880.640
 20
  9391.936
 11
  9860.738
 21
  9192.928
  0
LINE
  8
5
 10
 11471.704
 20
  9232.830
 11
 11451.803
 21
  9033.822
  0
LINE
  8
6
 10
  1705.000
 20
  3080.000
 11
  1705.000
 21
  8965.700
  0
LINE
  8
6
 10
  3410.000
 20
  3080.000
 11
  3410.000
 21
  9136.200
  0
LINE
  8
6
 10
  7036.250
 20
  4000.000
 11
  7036.250
 21
  9371.574
  0
LINE
  8
6
 10
  8957.499
 20
  4000.000
 11
  8957.499
 21
  9179.450
  0
LINE
  8
6
 10
 10878.749
 20
  4000.000
 11
 10878.749
 21
  8987.325
  0
LINE
  8
3
 10
  5318.200
 20
  3080.000
 11
  5165.800
 21
  3232.400
  0
LINE
  8
3
 10
  5318.200
 20
  3080.000
 11
  5470.600
 21
  3232.400
  0
LINE
  8
3
 10
  5165.800
 20
  3232.400
 11
  5470.600
 21
  3232.400
  0
LINE
  8
3
 10
  5318.200
 20
  5250.000
 11
  5165.800
 21
  5402.400
  0
LINE
  8
3
 10
  5318.200
 20
  5250.000
 11
  5470.600
 21
  5402.400
  0
LINE
  8
3
 10
  5165.800
 20
  5402.400
 11
  5470.600
 21
  5402.400
  0
LINE
  8
0
 10
  -854.427
 20
  -647.020
 11
 13654.427
 21
  -647.020
  0
LINE
  8
0
 10
 13654.427
 20
  -647.020
 11
 13654.427
 21
 10234.620
  0
LINE
  8
0
 10
 13654.427
 20
 10234.620
 11
  -854.427
 21
 10234.620
  0
LINE
  8
0
 10
  -854.427
 20
 10234.620
 11
  -854.427
 21
  -647.020
  0
LINE
  8
0
 10
  -854.427
 20
  -287.926
 11
 13654.427
 21
  -287.926
  0
TEXT
  8
0
 10
  4006.039
 20
  -587.171
 40
   239.396
  1
Right Endwall Design
 50
     0.000
  0
TEXT
  8
0
 10
  -734.729
 20
  -587.171
 40
   239.396
  1
C463-002
 50
     0.000
  0
TEXT
  8
0
 10
 10901.371
 20
  -587.171
 40
   239.396
  1
18/DEC/2025
 50
     0.000
  0
ENDSEC
  0
EOF
