  0
SECTION
  2
HEADER
  9
$ACADVER
  1
AC1009
  9
$EXTMIN
 10
  -919.400
 20
  -633.900
  9
$EXTMAX
 10
 13719.401
 20
 10345.200
  9
$LIMMIN
 10
  -919.400
 20
  -633.900
  9
$LIMMAX
 10
 13719.401
 20
 10345.200
  9
$FILLMODE
 70
     1
  9
$HANDLING
 70
     0
  0
ENDSEC
  0
SECTION
  2
TABLES
  0
TABLE
  2
LTYPE
 70
1
  0
LTYPE
  2
CONTIN
 70
    64
  3
SOLID LINE
 72
    65
 73
     0
 40
0.0
  0
LTYPE
  2
CONTINUOUS
 70
    64
  3
SOLID LINE
 72
    65
 73
     0
 40
0.0
  0
LTYPE
  2
CENTER
 70
    64
  3
____ _ ____ _ ____ _ ____ _ ____ _ ____ _ ____
 72
    65
 73
     4
 40
    28.206
 49
    17.629
 49
    -3.526
 49
     3.526
 49
    -3.526
  0
LTYPE
  2
DASHED
 70
    64
  3
__ __ __ __ __ __ __ __ __ __ __ __ __ __ __ 
 72
    65
 73
     2
 40
   175.66
 49
   117.11
 49
   -58.55
  0
ENDTAB
  0
TABLE
  2
LAYER
 70
30
  0
LAYER
  2
0
 70
     0
 62
     7
  6
CONTIN
  0
LAYER
  2
1
 70
     0
 62
     7
  6
CONTIN
  0
LAYER
  2
2
 70
     0
 62
     7
  6
CONTIN
  0
LAYER
  2
3
 70
     0
 62
     7
  6
CONTIN
  0
LAYER
  2
4
 70
     0
 62
     5
  6
CONTIN
  0
LAYER
  2
5
 70
     0
 62
     5
  6
DASHED
  0
LAYER
  2
6
 70
     0
 62
     5
  6
DASHED
  0
LAYER
  2
7
 70
     0
 62
     5
  6
CONTIN
  0
LAYER
  2
8
 70
     0
 62
     5
  6
DASHED
  0
LAYER
  2
9
 70
     0
 62
     7
  6
CONTIN
  0
LAYER
  2
10
 70
     0
 62
     7
  6
CONTIN
  0
LAYER
  2
11
 70
     0
 62
     6
  6
DASHED
  0
LAYER
  2
12
 70
     0
 62
     7
  6
DASHED
  0
LAYER
  2
13
 70
     0
 62
     5
  6
DASHED
  0
LAYER
  2
14
 70
     0
 62
     7
  6
CONTIN
  0
LAYER
  2
15
 70
     0
 62
     5
  6
CONTIN
  0
LAYER
  2
16
 70
     0
 62
     7
  6
CONTIN
  0
LAYER
  2
17
 70
     0
 62
     7
  6
CONTIN
  0
LAYER
  2
18
 70
     0
 62
     7
  6
CONTIN
  0
LAYER
  2
19
 70
     0
 62
     7
  6
CONTIN
  0
LAYER
  2
20
 70
     0
 62
     1
  6
CONTIN
  0
LAYER
  2
21
 70
     0
 62
     7
  6
CONTIN
  0
LAYER
  2
22
 70
     0
 62
     7
  6
DASHED
  0
LAYER
  2
23
 70
     0
 62
     7
  6
DASHED
  0
LAYER
  2
24
 70
     0
 62
     7
  6
CONTIN
  0
LAYER
  2
25
 70
     0
 62
     7
  6
CONTIN
  0
LAYER
  2
26
 70
     0
 62
     7
  6
CONTIN
  0
LAYER
  2
27
 70
     0
 62
     1
  6
CENTER
  0
LAYER
  2
28
 70
     0
 62
     7
  6
CONTIN
  0
LAYER
  2
29
 70
     0
 62
     3
  6
DASHED
  0
ENDTAB
  0
TABLE
  2
STYLE
 70
  0
  0
ENDTAB
  0
ENDSEC
  0
SECTION
  2
ENTITIES
  0
LINE
  8
5
 10
  1328.275
 20
  9232.828
 11
  1348.176
 21
  9033.821
  0
LINE
  8
5
 10
  2919.340
 20
  9391.935
 11
  2939.240
 21
  9192.927
  0
LINE
  8
5
 10
  4510.404
 20
  9551.041
 11
  4530.305
 21
  9352.033
  0
LINE
  8
5
 10
  6101.469
 20
  9710.147
 11
  6121.369
 21
  9511.141
  0
LINE
  8
5
 10
  6698.510
 20
  9710.148
 11
  6678.609
 21
  9511.141
  0
LINE
  8
5
 10
  8289.575
 20
  9551.042
 11
  8269.674
 21
  9352.035
  0
LINE
  8
5
 10
  9880.641
 20
  9391.936
 11
  9860.739
 21
  9192.929
  0
LINE
  8
5
 10
 11471.704
 20
  9232.829
 11
 11451.803
 21
  9033.822
  0
LINE
  8
5
 10
   572.500
 20
  3080.000
 11
   636.000
 21
  3080.000
  0
LINE
  8
5
 10
   572.500
 20
  5780.000
 11
   636.000
 21
  5780.000
  0
LINE
  8
5
 10
   572.500
 20
  3080.000
 11
   636.000
 21
  3080.000
  0
LINE
  8
5
 10
   572.500
 20
  5780.000
 11
   636.000
 21
  5780.000
  0
LINE
  8
5
 10
  1381.059
 20
  8704.991
 11
  1387.377
 21
  8641.807
  0
LINE
  8
5
 10
  4557.559
 20
  9079.490
 11
  4563.877
 21
  9016.306
  0
LINE
  8
5
 10
  1381.059
 20
  8704.991
 11
  1387.377
 21
  8641.807
  0
LINE
  8
5
 10
  4557.559
 20
  9079.490
 11
  4563.877
 21
  9016.306
  0
LINE
  8
5
 10
  8242.421
 20
  9079.493
 11
  8236.103
 21
  9016.309
  0
LINE
  8
5
 10
 11418.921
 20
  8704.993
 11
 11412.603
 21
  8641.809
  0
LINE
  8
5
 10
  8242.421
 20
  9079.493
 11
  8236.103
 21
  9016.309
  0
LINE
  8
5
 10
 11418.921
 20
  8704.993
 11
 11412.603
 21
  8641.809
  0
LINE
  8
5
 10
 12227.499
 20
  3080.000
 11
 12163.999
 21
  3080.000
  0
LINE
  8
5
 10
 12227.499
 20
  5780.000
 11
 12163.999
 21
  5780.000
  0
LINE
  8
5
 10
 12227.499
 20
  3080.000
 11
 12163.999
 21
  3080.000
  0
LINE
  8
5
 10
 12227.499
 20
  5780.000
 11
 12163.999
 21
  5780.000
  0
CIRCLE
  8
1
 10
 12800.000
 20
  4943.728
 40
    12.700
  0
CIRCLE
  8
1
 10
 12800.000
 20
  4596.528
 40
    12.700
  0
LINE
  8
1
 10
 12569.999
 20
  4948.753
 11
 12784.000
 21
  4948.753
  0
LINE
  8
1
 10
 12569.999
 20
  4943.753
 11
 12784.000
 21
  4943.753
  0
LINE
  8
1
 10
 12784.000
 20
  4948.753
 11
 12784.000
 21
  4594.868
  0
LINE
  8
1
 10
 12784.000
 20
  4594.868
 11
 12569.999
 21
  4594.868
  0
LINE
  8
1
 10
 12784.000
 20
  4599.868
 11
 12569.999
 21
  4599.868
  0
LINE
  8
1
 10
 12800.000
 20
  5043.753
 11
 12800.000
 21
  4495.753
  0
LINE
  8
1
 10
 12800.000
 20
  5043.753
 11
 12784.000
 21
  5043.753
  0
LINE
  8
1
 10
 12800.000
 20
  4495.753
 11
 12784.000
 21
  4495.753
  0
LINE
  8
1
 10
 12784.000
 20
  5043.753
 11
 12784.000
 21
  4495.753
  0
LINE
  8
5
 10
 12739.300
 20
  4998.800
 11
 12812.700
 21
  4998.800
  0
LINE
  8
5
 10
 12739.300
 20
  4898.800
 11
 12812.700
 21
  4898.800
  0
LINE
  8
5
 10
 12739.300
 20
  4641.580
 11
 12812.700
 21
  4641.580
  0
LINE
  8
5
 10
 12739.300
 20
  4541.580
 11
 12812.700
 21
  4541.580
  0
LINE
  8
1
 10
   644.000
 20
  6480.000
 11
  1400.000
 21
  6480.000
  0
LINE
  8
1
 10
   644.000
 20
  6472.000
 11
  1400.000
 21
  6472.000
  0
LINE
  8
1
 10
  1400.000
 20
  6480.000
 11
  1400.000
 21
  6114.000
  0
LINE
  8
1
 10
  1400.000
 20
  6114.000
 11
   644.000
 21
  6114.000
  0
LINE
  8
1
 10
  1400.000
 20
  6122.000
 11
   644.000
 21
  6122.000
  0
LINE
  8
1
 10
  1400.000
 20
  6114.000
 11
  1400.000
 21
  6014.000
  0
LINE
  8
1
 10
  1400.000
 20
  6014.000
 11
   644.000
 21
  5577.522
  0
LINE
  8
1
 10
 12155.999
 20
  6480.000
 11
 11400.000
 21
  6480.000
  0
LINE
  8
1
 10
 12155.999
 20
  6472.000
 11
 11400.000
 21
  6472.000
  0
LINE
  8
1
 10
 11400.000
 20
  6480.000
 11
 11400.000
 21
  6114.000
  0
LINE
  8
1
 10
 11400.000
 20
  6114.000
 11
 12155.999
 21
  6114.000
  0
LINE
  8
1
 10
 11400.000
 20
  6122.000
 11
 12155.999
 21
  6122.000
  0
LINE
  8
1
 10
 11400.000
 20
  6114.000
 11
 11400.000
 21
  6014.000
  0
LINE
  8
1
 10
 11400.000
 20
  6014.000
 11
 12155.999
 21
  5577.523
  0
LINE
  8
8
 10
     0.000
 20
     0.000
 11
     0.000
 21
  9100.000
  0
LINE
  8
8
 10
     0.000
 20
  9100.000
 11
  6400.000
 21
  9740.000
  0
LINE
  8
8
 10
  6400.000
 20
  9740.000
 11
 12800.000
 21
  9100.000
  0
LINE
  8
8
 10
 12800.000
 20
  9100.000
 11
 12800.000
 21
     0.000
  0
LINE
  8
1
 10
   236.000
 20
    16.000
 11
   636.000
 21
    16.000
  0
LINE
  8
1
 10
   636.000
 20
    16.000
 11
   636.000
 21
  8533.482
  0
LINE
  8
1
 10
   636.000
 20
  8533.482
 11
   636.000
 21
  8533.482
  0
LINE
  8
1
 10
   636.000
 20
  8533.482
 11
   236.000
 21
  8533.482
  0
LINE
  8
1
 10
   236.000
 20
    16.000
 11
   236.000
 21
  8533.482
  0
LINE
  8
1
 10
   336.000
 20
  6120.000
 11
   636.000
 21
  6120.000
  0
LINE
  8
1
 10
   336.000
 20
  6114.000
 11
   636.000
 21
  6114.000
  0
LINE
  8
1
 10
   336.000
 20
  6120.000
 11
   336.000
 21
  6114.000
  0
LINE
  8
1
 10
   636.000
 20
  6120.000
 11
   636.000
 21
  6114.000
  0
LINE
  8
1
 10
   336.000
 20
  6480.000
 11
   636.000
 21
  6480.000
  0
LINE
  8
1
 10
   336.000
 20
  6474.000
 11
   636.000
 21
  6474.000
  0
LINE
  8
1
 10
   336.000
 20
  6480.000
 11
   336.000
 21
  6474.000
  0
LINE
  8
1
 10
   636.000
 20
  6480.000
 11
   636.000
 21
  6474.000
  0
LINE
  8
1
 10
   236.000
 20
  6850.000
 11
   536.000
 21
  6850.000
  0
LINE
  8
1
 10
   236.000
 20
  6844.000
 11
   536.000
 21
  6844.000
  0
LINE
  8
1
 10
   236.000
 20
  6850.000
 11
   236.000
 21
  6844.000
  0
LINE
  8
1
 10
   536.000
 20
  6850.000
 11
   536.000
 21
  6844.000
  0
LINE
  8
1
 10
   236.000
 20
    16.000
 11
   236.000
 21
  8533.482
  0
LINE
  8
1
 10
   236.000
 20
  8533.482
 11
   230.000
 21
  8533.482
  0
LINE
  8
1
 10
   230.000
 20
  8533.482
 11
   230.000
 21
    16.000
  0
LINE
  8
1
 10
   236.000
 20
    16.000
 11
   230.000
 21
    16.000
  0
LINE
  8
5
 10
   210.600
 20
  3080.000
 11
   248.700
 21
  3080.000
  0
LINE
  8
5
 10
   210.600
 20
  4280.000
 11
   248.700
 21
  4280.000
  0
LINE
  8
5
 10
   210.600
 20
  5780.000
 11
   248.700
 21
  5780.000
  0
LINE
  8
5
 10
   210.600
 20
  7280.000
 11
   248.700
 21
  7280.000
  0
LINE
  8
5
 10
   210.600
 20
  8280.000
 11
   248.700
 21
  8280.000
  0
LINE
  8
1
 10
   636.000
 20
    16.000
 11
   636.000
 21
  8533.482
  0
LINE
  8
1
 10
   636.000
 20
  8533.482
 11
   644.000
 21
  8533.482
  0
LINE
  8
1
 10
   644.000
 20
  8533.482
 11
   644.000
 21
    16.000
  0
LINE
  8
1
 10
   636.000
 20
    16.000
 11
   644.000
 21
    16.000
  0
CIRCLE
  8
1
 10
   644.000
 20
  6122.000
 40
    12.700
  0
CIRCLE
  8
1
 10
   644.000
 20
  6472.000
 40
    12.700
  0
LINE
  8
1
 10
   158.000
 20
   -28.700
 11
   158.000
 21
    28.700
  0
LINE
  8
1
 10
   308.000
 20
   -28.700
 11
   308.000
 21
    28.700
  0
LINE
  8
1
 10
   565.000
 20
   -28.700
 11
   565.000
 21
    28.700
  0
LINE
  8
1
 10
   715.000
 20
   -28.700
 11
   715.000
 21
    28.700
  0
LINE
  8
1
 10
    83.000
 20
     0.000
 11
   790.000
 21
     0.000
  0
LINE
  8
1
 10
   790.000
 20
     0.000
 11
   790.000
 21
    16.000
  0
LINE
  8
1
 10
   790.000
 20
    16.000
 11
    83.000
 21
    16.000
  0
LINE
  8
1
 10
    83.000
 20
     0.000
 11
    83.000
 21
    16.000
  0
LINE
  8
1
 10
   186.000
 20
  8520.783
 11
   186.000
 21
  8578.183
  0
LINE
  8
1
 10
   286.000
 20
  8520.783
 11
   286.000
 21
  8578.183
  0
LINE
  8
1
 10
   586.000
 20
  8520.783
 11
   586.000
 21
  8578.183
  0
LINE
  8
1
 10
   686.000
 20
  8520.783
 11
   686.000
 21
  8578.183
  0
LINE
  8
1
 10
   136.000
 20
  8549.482
 11
   736.000
 21
  8549.482
  0
LINE
  8
1
 10
   736.000
 20
  8549.482
 11
   736.000
 21
  8533.482
  0
LINE
  8
1
 10
   736.000
 20
  8533.482
 11
   136.000
 21
  8533.482
  0
LINE
  8
1
 10
   136.000
 20
  8549.482
 11
   136.000
 21
  8533.482
  0
LINE
  8
1
 10
   230.000
 20
    16.000
 11
   230.000
 21
   213.000
  0
LINE
  8
1
 10
   230.000
 20
   213.000
 11
    83.000
 21
    66.000
  0
LINE
  8
1
 10
    83.000
 20
    66.000
 11
    83.000
 21
    16.000
  0
LINE
  8
1
 10
   230.000
 20
    16.000
 11
    83.000
 21
    16.000
  0
LINE
  8
1
 10
   644.000
 20
    16.000
 11
   644.000
 21
   212.000
  0
LINE
  8
1
 10
   644.000
 20
   212.000
 11
   790.000
 21
    66.000
  0
LINE
  8
1
 10
   790.000
 20
    66.000
 11
   790.000
 21
    16.000
  0
LINE
  8
1
 10
   644.000
 20
    16.000
 11
   790.000
 21
    16.000
  0
LINE
  8
1
 10
   230.000
 20
  8533.482
 11
   230.000
 21
  8413.483
  0
LINE
  8
1
 10
   230.000
 20
  8413.483
 11
   136.000
 21
  8533.482
  0
LINE
  8
1
 10
   136.000
 20
  8533.482
 11
   136.000
 21
  8533.482
  0
LINE
  8
1
 10
   230.000
 20
  8533.482
 11
   136.000
 21
  8533.482
  0
LINE
  8
1
 10
   644.000
 20
  8533.482
 11
   644.000
 21
  8413.483
  0
LINE
  8
1
 10
   644.000
 20
  8413.483
 11
   736.000
 21
  8533.482
  0
LINE
  8
1
 10
   736.000
 20
  8533.482
 11
   736.000
 21
  8533.482
  0
LINE
  8
1
 10
   644.000
 20
  8533.482
 11
   736.000
 21
  8533.482
  0
CIRCLE
  8
1
 10
   230.000
 20
     0.000
 40
     6.350
  0
LINE
  8
17
 10
   223.650
 20
     0.000
 11
   236.350
 21
     0.000
  0
LINE
  8
17
 10
   230.000
 20
    -6.350
 11
   230.000
 21
     6.350
  0
CIRCLE
  8
1
 10
   644.000
 20
     0.000
 40
     6.350
  0
LINE
  8
17
 10
   637.650
 20
     0.000
 11
   650.350
 21
     0.000
  0
LINE
  8
17
 10
   644.000
 20
    -6.350
 11
   644.000
 21
     6.350
  0
CIRCLE
  8
1
 10
   644.000
 20
  8549.482
 40
     6.350
  0
LINE
  8
17
 10
   637.650
 20
  8549.482
 11
   650.350
 21
  8549.482
  0
LINE
  8
17
 10
   644.000
 20
  8543.133
 11
   644.000
 21
  8555.833
  0
CIRCLE
  8
1
 10
   230.000
 20
  8549.482
 40
     6.350
  0
LINE
  8
17
 10
   223.650
 20
  8549.482
 11
   236.350
 21
  8549.482
  0
LINE
  8
17
 10
   230.000
 20
  8543.133
 11
   230.000
 21
  8555.833
  0
LINE
  8
1
 10
  6384.000
 20
  9532.377
 11
  6384.000
 21
  9230.893
  0
LINE
  8
1
 10
  6384.000
 20
  9230.893
 11
   740.000
 21
  8565.482
  0
LINE
  8
1
 10
   740.000
 20
  8565.482
 11
   236.000
 21
  8565.482
  0
LINE
  8
1
 10
   236.000
 20
  8565.482
 11
   236.000
 21
  8917.578
  0
LINE
  8
1
 10
  6384.000
 20
  9532.377
 11
   236.000
 21
  8917.578
  0
LINE
  8
1
 10
   609.154
 20
  8924.193
 11
   644.975
 21
  8565.980
  0
LINE
  8
1
 10
   599.203
 20
  8923.198
 11
   635.024
 21
  8564.984
  0
LINE
  8
1
 10
   609.154
 20
  8924.193
 11
   599.203
 21
  8923.198
  0
LINE
  8
1
 10
   644.975
 20
  8565.980
 11
   635.024
 21
  8564.984
  0
LINE
  8
1
 10
  6384.000
 20
  9532.377
 11
    10.498
 21
  8895.027
  0
LINE
  8
1
 10
    10.498
 20
  8895.027
 11
    10.000
 21
  8900.002
  0
LINE
  8
1
 10
    10.000
 20
  8900.002
 11
  6383.502
 21
  9537.352
  0
LINE
  8
1
 10
  6384.000
 20
  9532.377
 11
  6383.502
 21
  9537.352
  0
LINE
  8
5
 10
    97.474
 20
  8929.252
 11
   101.265
 21
  8891.341
  0
LINE
  8
1
 10
   236.000
 20
  8565.482
 11
   236.000
 21
  8917.078
  0
LINE
  8
1
 10
   236.000
 20
  8917.078
 11
   231.000
 21
  8917.078
  0
LINE
  8
1
 10
   231.000
 20
  8917.078
 11
   231.000
 21
  8565.482
  0
LINE
  8
1
 10
   236.000
 20
  8565.482
 11
   231.000
 21
  8565.482
  0
LINE
  8
1
 10
   231.000
 20
  8917.078
 11
     1.000
 21
  8894.078
  0
LINE
  8
1
 10
     1.000
 20
  8894.078
 11
   231.000
 21
  8802.078
  0
LINE
  8
1
 10
  6383.415
 20
  9230.823
 11
   740.000
 21
  8565.482
  0
LINE
  8
1
 10
   740.000
 20
  8565.482
 11
   740.585
 21
  8560.517
  0
LINE
  8
1
 10
   740.585
 20
  8560.517
 11
  6384.000
 21
  9225.857
  0
LINE
  8
1
 10
  6383.415
 20
  9230.823
 11
  6384.000
 21
  9225.857
  0
LINE
  8
1
 10
  6371.300
 20
  9583.977
 11
  6428.700
 21
  9583.977
  0
LINE
  8
1
 10
  6371.300
 20
  9483.977
 11
  6428.700
 21
  9483.977
  0
LINE
  8
1
 10
  6371.300
 20
  9283.977
 11
  6428.700
 21
  9283.977
  0
LINE
  8
1
 10
  6371.300
 20
  9183.978
 11
  6428.700
 21
  9183.978
  0
LINE
  8
1
 10
  6400.000
 20
  9633.977
 11
  6400.000
 21
  9132.779
  0
LINE
  8
1
 10
  6400.000
 20
  9132.779
 11
  6384.000
 21
  9132.779
  0
LINE
  8
1
 10
  6384.000
 20
  9132.779
 11
  6384.000
 21
  9633.977
  0
LINE
  8
1
 10
  6400.000
 20
  9633.977
 11
  6384.000
 21
  9633.977
  0
LINE
  8
1
 10
   186.000
 20
  8520.783
 11
   186.000
 21
  8578.183
  0
LINE
  8
1
 10
   286.000
 20
  8520.783
 11
   286.000
 21
  8578.183
  0
LINE
  8
1
 10
   586.000
 20
  8520.783
 11
   586.000
 21
  8578.183
  0
LINE
  8
1
 10
   686.000
 20
  8520.783
 11
   686.000
 21
  8578.183
  0
LINE
  8
1
 10
   136.000
 20
  8549.482
 11
   736.000
 21
  8549.482
  0
LINE
  8
1
 10
   736.000
 20
  8549.482
 11
   736.000
 21
  8565.482
  0
LINE
  8
1
 10
   736.000
 20
  8565.482
 11
   136.000
 21
  8565.482
  0
LINE
  8
1
 10
   136.000
 20
  8549.482
 11
   136.000
 21
  8565.482
  0
LINE
  8
1
 10
  6384.000
 20
  9537.401
 11
  6264.000
 21
  9525.401
  0
LINE
  8
1
 10
  6264.000
 20
  9525.401
 11
  6384.000
 21
  9634.028
  0
LINE
  8
1
 10
  6384.000
 20
  9634.028
 11
  6384.000
 21
  9634.028
  0
LINE
  8
1
 10
  6384.000
 20
  9537.401
 11
  6384.000
 21
  9634.028
  0
LINE
  8
1
 10
  6384.000
 20
  9225.857
 11
  6264.000
 21
  9211.710
  0
LINE
  8
1
 10
  6264.000
 20
  9211.710
 11
  6384.000
 21
  9132.779
  0
LINE
  8
1
 10
  6384.000
 20
  9132.779
 11
  6384.000
 21
  9132.779
  0
LINE
  8
1
 10
  6384.000
 20
  9225.857
 11
  6384.000
 21
  9132.779
  0
LINE
  8
1
 10
   231.000
 20
  8565.482
 11
   231.000
 21
  8685.482
  0
LINE
  8
1
 10
   231.000
 20
  8685.482
 11
   136.000
 21
  8565.482
  0
LINE
  8
1
 10
   136.000
 20
  8565.482
 11
   136.000
 21
  8565.482
  0
LINE
  8
1
 10
   231.000
 20
  8565.482
 11
   136.000
 21
  8565.482
  0
CIRCLE
  8
1
 10
   231.000
 20
  8549.482
 40
     6.350
  0
LINE
  8
17
 10
   224.650
 20
  8549.482
 11
   237.350
 21
  8549.482
  0
LINE
  8
17
 10
   231.000
 20
  8543.133
 11
   231.000
 21
  8555.833
  0
CIRCLE
  8
1
 10
   736.000
 20
  8549.482
 40
     6.350
  0
LINE
  8
17
 10
   729.650
 20
  8549.482
 11
   742.350
 21
  8549.482
  0
LINE
  8
17
 10
   736.000
 20
  8543.133
 11
   736.000
 21
  8555.833
  0
CIRCLE
  8
1
 10
  6400.000
 20
  9227.744
 40
     6.350
  0
LINE
  8
17
 10
  6393.650
 20
  9227.744
 11
  6406.350
 21
  9227.744
  0
LINE
  8
17
 10
  6400.000
 20
  9221.395
 11
  6400.000
 21
  9234.095
  0
CIRCLE
  8
1
 10
  6400.000
 20
  9539.002
 40
     6.350
  0
LINE
  8
17
 10
  6393.650
 20
  9539.002
 11
  6406.350
 21
  9539.002
  0
LINE
  8
17
 10
  6400.000
 20
  9532.652
 11
  6400.000
 21
  9545.353
  0
CIRCLE
  8
1
 10
   231.000
 20
  8922.104
 40
     6.350
  0
LINE
  8
17
 10
   224.650
 20
  8922.104
 11
   237.350
 21
  8922.104
  0
LINE
  8
17
 10
   231.000
 20
  8915.753
 11
   231.000
 21
  8928.453
  0
LINE
  8
1
 10
  6416.000
 20
  9532.377
 11
  6416.000
 21
  9230.893
  0
LINE
  8
1
 10
  6416.000
 20
  9230.893
 11
 12059.999
 21
  8565.482
  0
LINE
  8
1
 10
 12059.999
 20
  8565.482
 11
 12564.000
 21
  8565.482
  0
LINE
  8
1
 10
 12564.000
 20
  8565.482
 11
 12564.000
 21
  8917.578
  0
LINE
  8
1
 10
  6416.000
 20
  9532.377
 11
 12564.000
 21
  8917.578
  0
LINE
  8
1
 10
 12200.796
 20
  8923.198
 11
 12164.975
 21
  8564.984
  0
LINE
  8
1
 10
 12190.847
 20
  8924.193
 11
 12155.024
 21
  8565.980
  0
LINE
  8
1
 10
 12200.796
 20
  8923.198
 11
 12190.847
 21
  8924.193
  0
LINE
  8
1
 10
 12164.975
 20
  8564.984
 11
 12155.024
 21
  8565.980
  0
LINE
  8
1
 10
  6416.000
 20
  9532.377
 11
 12789.502
 21
  8895.027
  0
LINE
  8
1
 10
 12789.502
 20
  8895.027
 11
 12790.000
 21
  8900.002
  0
LINE
  8
1
 10
 12790.000
 20
  8900.002
 11
  6416.498
 21
  9537.352
  0
LINE
  8
1
 10
  6416.000
 20
  9532.377
 11
  6416.498
 21
  9537.352
  0
LINE
  8
5
 10
 12702.526
 20
  8929.251
 11
 12698.735
 21
  8891.340
  0
LINE
  8
1
 10
 12564.000
 20
  8917.078
 11
 12564.000
 21
  8565.482
  0
LINE
  8
1
 10
 12564.000
 20
  8565.482
 11
 12568.999
 21
  8565.482
  0
LINE
  8
1
 10
 12568.999
 20
  8565.482
 11
 12568.999
 21
  8917.078
  0
LINE
  8
1
 10
 12564.000
 20
  8917.078
 11
 12568.999
 21
  8917.078
  0
LINE
  8
1
 10
 12568.999
 20
  8917.078
 11
 12798.999
 21
  8894.078
  0
LINE
  8
1
 10
 12798.999
 20
  8894.078
 11
 12568.999
 21
  8802.078
  0
LINE
  8
1
 10
  6416.585
 20
  9230.823
 11
 12059.999
 21
  8565.482
  0
LINE
  8
1
 10
 12059.999
 20
  8565.482
 11
 12059.414
 21
  8560.517
  0
LINE
  8
1
 10
 12059.414
 20
  8560.517
 11
  6416.000
 21
  9225.857
  0
LINE
  8
1
 10
  6416.585
 20
  9230.823
 11
  6416.000
 21
  9225.857
  0
LINE
  8
1
 10
  6371.300
 20
  9583.977
 11
  6428.700
 21
  9583.977
  0
LINE
  8
1
 10
  6371.300
 20
  9483.977
 11
  6428.700
 21
  9483.977
  0
LINE
  8
1
 10
  6371.300
 20
  9283.977
 11
  6428.700
 21
  9283.977
  0
LINE
  8
1
 10
  6371.300
 20
  9183.978
 11
  6428.700
 21
  9183.978
  0
LINE
  8
1
 10
  6400.000
 20
  9633.977
 11
  6400.000
 21
  9132.779
  0
LINE
  8
1
 10
  6400.000
 20
  9132.779
 11
  6416.000
 21
  9132.779
  0
LINE
  8
1
 10
  6416.000
 20
  9132.779
 11
  6416.000
 21
  9633.977
  0
LINE
  8
1
 10
  6400.000
 20
  9633.977
 11
  6416.000
 21
  9633.977
  0
LINE
  8
1
 10
 12614.000
 20
  8578.183
 11
 12614.000
 21
  8520.783
  0
LINE
  8
1
 10
 12514.000
 20
  8578.183
 11
 12514.000
 21
  8520.783
  0
LINE
  8
1
 10
 12214.000
 20
  8578.183
 11
 12214.000
 21
  8520.783
  0
LINE
  8
1
 10
 12114.000
 20
  8578.183
 11
 12114.000
 21
  8520.783
  0
LINE
  8
1
 10
 12664.000
 20
  8549.482
 11
 12063.999
 21
  8549.482
  0
LINE
  8
1
 10
 12063.999
 20
  8549.482
 11
 12063.999
 21
  8565.482
  0
LINE
  8
1
 10
 12063.999
 20
  8565.482
 11
 12664.000
 21
  8565.482
  0
LINE
  8
1
 10
 12664.000
 20
  8549.482
 11
 12664.000
 21
  8565.482
  0
LINE
  8
1
 10
  6416.000
 20
  9537.401
 11
  6536.000
 21
  9525.401
  0
LINE
  8
1
 10
  6536.000
 20
  9525.401
 11
  6416.000
 21
  9634.028
  0
LINE
  8
1
 10
  6416.000
 20
  9634.028
 11
  6416.000
 21
  9634.028
  0
LINE
  8
1
 10
  6416.000
 20
  9537.401
 11
  6416.000
 21
  9634.028
  0
LINE
  8
1
 10
  6416.000
 20
  9225.857
 11
  6536.000
 21
  9211.710
  0
LINE
  8
1
 10
  6536.000
 20
  9211.710
 11
  6416.000
 21
  9132.779
  0
LINE
  8
1
 10
  6416.000
 20
  9132.779
 11
  6416.000
 21
  9132.779
  0
LINE
  8
1
 10
  6416.000
 20
  9225.857
 11
  6416.000
 21
  9132.779
  0
LINE
  8
1
 10
 12568.999
 20
  8565.482
 11
 12568.999
 21
  8685.482
  0
LINE
  8
1
 10
 12568.999
 20
  8685.482
 11
 12664.000
 21
  8565.482
  0
LINE
  8
1
 10
 12664.000
 20
  8565.482
 11
 12664.000
 21
  8565.482
  0
LINE
  8
1
 10
 12568.999
 20
  8565.482
 11
 12664.000
 21
  8565.482
  0
CIRCLE
  8
1
 10
  6400.000
 20
  9539.002
 40
     6.350
  0
LINE
  8
17
 10
  6393.650
 20
  9539.002
 11
  6406.350
 21
  9539.002
  0
LINE
  8
17
 10
  6400.000
 20
  9532.652
 11
  6400.000
 21
  9545.353
  0
CIRCLE
  8
1
 10
  6400.000
 20
  9227.744
 40
     6.350
  0
LINE
  8
17
 10
  6393.650
 20
  9227.744
 11
  6406.350
 21
  9227.744
  0
LINE
  8
17
 10
  6400.000
 20
  9221.395
 11
  6400.000
 21
  9234.095
  0
CIRCLE
  8
1
 10
 12063.999
 20
  8549.482
 40
     6.350
  0
LINE
  8
17
 10
 12057.649
 20
  8549.482
 11
 12070.349
 21
  8549.482
  0
LINE
  8
17
 10
 12063.999
 20
  8543.133
 11
 12063.999
 21
  8555.833
  0
CIRCLE
  8
1
 10
 12568.999
 20
  8549.482
 40
     6.350
  0
LINE
  8
17
 10
 12562.649
 20
  8549.482
 11
 12575.350
 21
  8549.482
  0
LINE
  8
17
 10
 12568.999
 20
  8543.133
 11
 12568.999
 21
  8555.833
  0
CIRCLE
  8
1
 10
 12568.999
 20
  8922.104
 40
     6.350
  0
LINE
  8
17
 10
 12562.649
 20
  8922.104
 11
 12575.350
 21
  8922.104
  0
LINE
  8
17
 10
 12568.999
 20
  8915.753
 11
 12568.999
 21
  8928.453
  0
LINE
  8
1
 10
 12564.000
 20
    16.000
 11
 12164.000
 21
    16.000
  0
LINE
  8
1
 10
 12164.000
 20
    16.000
 11
 12163.999
 21
  8533.482
  0
LINE
  8
1
 10
 12163.999
 20
  8533.482
 11
 12163.999
 21
  8533.482
  0
LINE
  8
1
 10
 12163.999
 20
  8533.482
 11
 12564.000
 21
  8533.482
  0
LINE
  8
1
 10
 12564.000
 20
    16.000
 11
 12564.000
 21
  8533.482
  0
LINE
  8
1
 10
 12463.999
 20
  6120.000
 11
 12163.999
 21
  6120.000
  0
LINE
  8
1
 10
 12463.999
 20
  6114.000
 11
 12163.999
 21
  6114.000
  0
LINE
  8
1
 10
 12463.999
 20
  6120.000
 11
 12463.999
 21
  6114.000
  0
LINE
  8
1
 10
 12163.999
 20
  6120.000
 11
 12163.999
 21
  6114.000
  0
LINE
  8
1
 10
 12463.999
 20
  6480.000
 11
 12163.999
 21
  6480.000
  0
LINE
  8
1
 10
 12463.999
 20
  6474.000
 11
 12163.999
 21
  6474.000
  0
LINE
  8
1
 10
 12463.999
 20
  6480.000
 11
 12463.999
 21
  6474.000
  0
LINE
  8
1
 10
 12163.999
 20
  6480.000
 11
 12163.999
 21
  6474.000
  0
LINE
  8
1
 10
 12564.000
 20
  6850.000
 11
 12263.999
 21
  6850.000
  0
LINE
  8
1
 10
 12564.000
 20
  6844.000
 11
 12263.999
 21
  6844.000
  0
LINE
  8
1
 10
 12564.000
 20
  6850.000
 11
 12564.000
 21
  6844.000
  0
LINE
  8
1
 10
 12263.999
 20
  6850.000
 11
 12263.999
 21
  6844.000
  0
LINE
  8
1
 10
 12564.000
 20
    16.000
 11
 12564.000
 21
  8533.482
  0
LINE
  8
1
 10
 12564.000
 20
  8533.482
 11
 12569.999
 21
  8533.482
  0
LINE
  8
1
 10
 12569.999
 20
  8533.482
 11
 12569.999
 21
    16.000
  0
LINE
  8
1
 10
 12564.000
 20
    16.000
 11
 12569.999
 21
    16.000
  0
LINE
  8
5
 10
 12589.399
 20
  8280.000
 11
 12551.300
 21
  8280.000
  0
LINE
  8
5
 10
 12589.399
 20
  7280.000
 11
 12551.300
 21
  7280.000
  0
LINE
  8
5
 10
 12589.399
 20
  5780.000
 11
 12551.300
 21
  5780.000
  0
LINE
  8
5
 10
 12589.399
 20
  4280.000
 11
 12551.300
 21
  4280.000
  0
LINE
  8
5
 10
 12589.399
 20
  3080.000
 11
 12551.300
 21
  3080.000
  0
LINE
  8
5
 10
 12589.399
 20
  8280.000
 11
 12551.300
 21
  8280.000
  0
LINE
  8
5
 10
 12589.399
 20
  7280.000
 11
 12551.300
 21
  7280.000
  0
LINE
  8
5
 10
 12589.399
 20
  5780.000
 11
 12551.300
 21
  5780.000
  0
LINE
  8
5
 10
 12589.399
 20
  5280.000
 11
 12551.300
 21
  5280.000
  0
LINE
  8
5
 10
 12589.399
 20
  4280.000
 11
 12551.300
 21
  4280.000
  0
LINE
  8
5
 10
 12589.399
 20
  3080.000
 11
 12551.300
 21
  3080.000
  0
LINE
  8
1
 10
 12164.000
 20
    16.000
 11
 12163.999
 21
  8533.482
  0
LINE
  8
1
 10
 12163.999
 20
  8533.482
 11
 12155.999
 21
  8533.482
  0
LINE
  8
1
 10
 12155.999
 20
  8533.482
 11
 12156.000
 21
    16.000
  0
LINE
  8
1
 10
 12164.000
 20
    16.000
 11
 12156.000
 21
    16.000
  0
CIRCLE
  8
1
 10
 12155.999
 20
  6122.000
 40
    12.700
  0
CIRCLE
  8
1
 10
 12155.999
 20
  6472.000
 40
    12.700
  0
LINE
  8
1
 10
 12641.999
 20
    28.700
 11
 12641.999
 21
   -28.700
  0
LINE
  8
1
 10
 12491.999
 20
    28.700
 11
 12491.999
 21
   -28.700
  0
LINE
  8
1
 10
 12235.000
 20
    28.700
 11
 12235.000
 21
   -28.700
  0
LINE
  8
1
 10
 12085.000
 20
    28.700
 11
 12085.000
 21
   -28.700
  0
LINE
  8
1
 10
 12717.000
 20
     0.000
 11
 12010.000
 21
     0.000
  0
LINE
  8
1
 10
 12010.000
 20
     0.000
 11
 12010.000
 21
    16.000
  0
LINE
  8
1
 10
 12010.000
 20
    16.000
 11
 12717.000
 21
    16.000
  0
LINE
  8
1
 10
 12717.000
 20
     0.000
 11
 12717.000
 21
    16.000
  0
LINE
  8
1
 10
 12614.000
 20
  8578.183
 11
 12614.000
 21
  8520.783
  0
LINE
  8
1
 10
 12514.000
 20
  8578.183
 11
 12514.000
 21
  8520.783
  0
LINE
  8
1
 10
 12214.000
 20
  8578.183
 11
 12214.000
 21
  8520.783
  0
LINE
  8
1
 10
 12114.000
 20
  8578.183
 11
 12114.000
 21
  8520.783
  0
LINE
  8
1
 10
 12664.000
 20
  8549.482
 11
 12063.999
 21
  8549.482
  0
LINE
  8
1
 10
 12063.999
 20
  8549.482
 11
 12063.999
 21
  8533.482
  0
LINE
  8
1
 10
 12063.999
 20
  8533.482
 11
 12664.000
 21
  8533.482
  0
LINE
  8
1
 10
 12664.000
 20
  8549.482
 11
 12664.000
 21
  8533.482
  0
LINE
  8
1
 10
 12569.999
 20
    16.000
 11
 12569.999
 21
   213.000
  0
LINE
  8
1
 10
 12569.999
 20
   213.000
 11
 12717.000
 21
    66.000
  0
LINE
  8
1
 10
 12717.000
 20
    66.000
 11
 12717.000
 21
    16.000
  0
LINE
  8
1
 10
 12569.999
 20
    16.000
 11
 12717.000
 21
    16.000
  0
LINE
  8
1
 10
 12156.000
 20
    16.000
 11
 12156.000
 21
   212.000
  0
LINE
  8
1
 10
 12156.000
 20
   212.000
 11
 12010.000
 21
    66.000
  0
LINE
  8
1
 10
 12010.000
 20
    66.000
 11
 12010.000
 21
    16.000
  0
LINE
  8
1
 10
 12156.000
 20
    16.000
 11
 12010.000
 21
    16.000
  0
LINE
  8
1
 10
 12569.999
 20
  8533.482
 11
 12569.999
 21
  8413.483
  0
LINE
  8
1
 10
 12569.999
 20
  8413.483
 11
 12664.000
 21
  8533.482
  0
LINE
  8
1
 10
 12664.000
 20
  8533.482
 11
 12664.000
 21
  8533.482
  0
LINE
  8
1
 10
 12569.999
 20
  8533.482
 11
 12664.000
 21
  8533.482
  0
LINE
  8
1
 10
 12155.999
 20
  8533.482
 11
 12155.999
 21
  8413.483
  0
LINE
  8
1
 10
 12155.999
 20
  8413.483
 11
 12063.999
 21
  8533.482
  0
LINE
  8
1
 10
 12063.999
 20
  8533.482
 11
 12063.999
 21
  8533.482
  0
LINE
  8
1
 10
 12155.999
 20
  8533.482
 11
 12063.999
 21
  8533.482
  0
CIRCLE
  8
1
 10
 12569.999
 20
  8549.482
 40
     6.350
  0
LINE
  8
17
 10
 12563.649
 20
  8549.482
 11
 12576.350
 21
  8549.482
  0
LINE
  8
17
 10
 12569.999
 20
  8543.133
 11
 12569.999
 21
  8555.833
  0
CIRCLE
  8
1
 10
 12155.999
 20
  8549.482
 40
     6.350
  0
LINE
  8
17
 10
 12149.648
 20
  8549.482
 11
 12162.349
 21
  8549.482
  0
LINE
  8
17
 10
 12155.999
 20
  8543.133
 11
 12155.999
 21
  8555.833
  0
CIRCLE
  8
1
 10
 12156.000
 20
     0.000
 40
     6.350
  0
LINE
  8
17
 10
 12149.649
 20
     0.000
 11
 12162.350
 21
     0.000
  0
LINE
  8
17
 10
 12156.000
 20
    -6.350
 11
 12156.000
 21
     6.350
  0
CIRCLE
  8
1
 10
 12569.999
 20
     0.000
 40
     6.350
  0
LINE
  8
17
 10
 12563.649
 20
     0.000
 11
 12576.350
 21
     0.000
  0
LINE
  8
17
 10
 12569.999
 20
    -6.350
 11
 12569.999
 21
     6.350
  0
LINE
  8
3
 10
     0.000
 20
  3080.000
 11
  -175.915
 21
  2978.293
  0
LINE
  8
3
 10
     0.000
 20
  3080.000
 11
  -176.007
 21
  3181.547
  0
LINE
  8
3
 10
  -176.007
 20
  3181.547
 11
  -175.915
 21
  2978.293
  0
LINE
  8
3
 10
     0.000
 20
  5780.000
 11
  -175.915
 21
  5678.293
  0
LINE
  8
3
 10
     0.000
 20
  5780.000
 11
  -176.007
 21
  5881.547
  0
LINE
  8
3
 10
  -176.007
 20
  5881.547
 11
  -175.915
 21
  5678.293
  0
LINE
  8
3
 10
     0.000
 20
  3080.000
 11
  -175.915
 21
  2978.293
  0
LINE
  8
3
 10
     0.000
 20
  3080.000
 11
  -176.007
 21
  3181.547
  0
LINE
  8
3
 10
  -176.007
 20
  3181.547
 11
  -175.915
 21
  2978.293
  0
LINE
  8
3
 10
     0.000
 20
  5780.000
 11
  -175.915
 21
  5678.293
  0
LINE
  8
3
 10
     0.000
 20
  5780.000
 11
  -176.007
 21
  5881.547
  0
LINE
  8
3
 10
  -176.007
 20
  5881.547
 11
  -175.915
 21
  5678.293
  0
LINE
  8
3
 10
  1328.275
 20
  9232.828
 11
  1209.569
 21
  9397.750
  0
LINE
  8
3
 10
  1328.275
 20
  9232.828
 11
  1411.805
 21
  9418.066
  0
LINE
  8
3
 10
  1411.805
 20
  9418.066
 11
  1209.569
 21
  9397.750
  0
LINE
  8
3
 10
  4510.404
 20
  9551.041
 11
  4391.698
 21
  9715.963
  0
LINE
  8
3
 10
  4510.404
 20
  9551.041
 11
  4593.934
 21
  9736.278
  0
LINE
  8
3
 10
  4593.934
 20
  9736.278
 11
  4391.698
 21
  9715.963
  0
LINE
  8
3
 10
  1328.275
 20
  9232.828
 11
  1209.569
 21
  9397.750
  0
LINE
  8
3
 10
  1328.275
 20
  9232.828
 11
  1411.805
 21
  9418.066
  0
LINE
  8
3
 10
  1411.805
 20
  9418.066
 11
  1209.569
 21
  9397.750
  0
LINE
  8
3
 10
  4510.404
 20
  9551.041
 11
  4391.698
 21
  9715.963
  0
LINE
  8
3
 10
  4510.404
 20
  9551.041
 11
  4593.934
 21
  9736.278
  0
LINE
  8
3
 10
  4593.934
 20
  9736.278
 11
  4391.698
 21
  9715.963
  0
LINE
  8
3
 10
  8289.575
 20
  9551.042
 11
  8205.878
 21
  9736.205
  0
LINE
  8
3
 10
  8289.575
 20
  9551.042
 11
  8408.132
 21
  9716.072
  0
LINE
  8
3
 10
  8408.132
 20
  9716.072
 11
  8205.878
 21
  9736.205
  0
LINE
  8
3
 10
 11471.704
 20
  9232.829
 11
 11388.007
 21
  9417.991
  0
LINE
  8
3
 10
 11471.704
 20
  9232.829
 11
 11590.261
 21
  9397.858
  0
LINE
  8
3
 10
 11590.261
 20
  9397.858
 11
 11388.007
 21
  9417.991
  0
LINE
  8
3
 10
  8289.575
 20
  9551.042
 11
  8205.878
 21
  9736.205
  0
LINE
  8
3
 10
  8289.575
 20
  9551.042
 11
  8408.132
 21
  9716.072
  0
LINE
  8
3
 10
  8408.132
 20
  9716.072
 11
  8205.878
 21
  9736.205
  0
LINE
  8
3
 10
 11471.704
 20
  9232.829
 11
 11388.007
 21
  9417.991
  0
LINE
  8
3
 10
 11471.704
 20
  9232.829
 11
 11590.261
 21
  9397.858
  0
LINE
  8
3
 10
 11590.261
 20
  9397.858
 11
 11388.007
 21
  9417.991
  0
LINE
  8
3
 10
 12800.000
 20
  3080.000
 11
 12975.915
 21
  3181.706
  0
LINE
  8
3
 10
 12800.000
 20
  3080.000
 11
 12976.007
 21
  2978.453
  0
LINE
  8
3
 10
 12976.007
 20
  2978.453
 11
 12975.915
 21
  3181.706
  0
LINE
  8
3
 10
 12800.000
 20
  5780.000
 11
 12975.915
 21
  5881.707
  0
LINE
  8
3
 10
 12800.000
 20
  5780.000
 11
 12976.007
 21
  5678.453
  0
LINE
  8
3
 10
 12976.007
 20
  5678.453
 11
 12975.915
 21
  5881.707
  0
LINE
  8
3
 10
 12800.000
 20
  3080.000
 11
 12975.915
 21
  3181.706
  0
LINE
  8
3
 10
 12800.000
 20
  3080.000
 11
 12976.007
 21
  2978.453
  0
LINE
  8
3
 10
 12976.007
 20
  2978.453
 11
 12975.915
 21
  3181.706
  0
LINE
  8
3
 10
 12800.000
 20
  5780.000
 11
 12975.915
 21
  5881.707
  0
LINE
  8
3
 10
 12800.000
 20
  5780.000
 11
 12976.007
 21
  5678.453
  0
LINE
  8
3
 10
 12976.007
 20
  5678.453
 11
 12975.915
 21
  5881.707
  0
LINE
  8
3
 10
  1200.000
 20
  6505.400
 11
  1200.000
 21
  6974.600
  0
LINE
  8
3
 10
  1050.000
 20
  6974.600
 11
  1350.000
 21
  6974.600
  0
LINE
  8
3
 10
  1050.000
 20
  6505.400
 11
  1350.000
 21
  6505.400
  0
LINE
  8
3
 10
 11600.000
 20
  6505.400
 11
 11600.000
 21
  6974.600
  0
LINE
  8
3
 10
 11450.000
 20
  6974.600
 11
 11750.000
 21
  6974.600
  0
LINE
  8
3
 10
 11450.000
 20
  6505.400
 11
 11750.000
 21
  6505.400
  0
LINE
  8
3
 10
  1200.000
 20
  7000.000
 11
  1200.000
 21
  7000.000
  0
LINE
  8
3
 10
 11600.000
 20
  7000.000
 11
 11600.000
 21
  7000.000
  0
LINE
  8
3
 10
  1200.000
 20
  7000.000
 11
 11600.000
 21
  7000.000
  0
LINE
  8
3
 10
 11600.000
 20
  7000.000
 11
  1200.000
 21
  7000.000
  0
TEXT
  8
16
 10
  -254.000
 20
  3957.241
 40
   127.000
  1
RF3-1
 50
    90.000
  0
TEXT
  8
16
 10
  2954.401
 20
  9650.707
 40
   127.000
  1
RF3-2
 50
     5.711
  0
TEXT
  8
16
 10
  9213.750
 20
  9713.893
 40
   127.000
  1
RF3-2
 50
    -5.711
  0
TEXT
  8
16
 10
 13054.000
 20
  4592.241
 40
   127.000
  1
RF3-3
 50
   -90.000
  0
LINE
  8
0
 10
  -919.400
 20
  -633.900
 11
 13719.401
 21
  -633.900
  0
LINE
  8
0
 10
 13719.401
 20
  -633.900
 11
 13719.401
 21
 10345.200
  0
LINE
  8
0
 10
 13719.401
 20
 10345.200
 11
  -919.400
 21
 10345.200
  0
LINE
  8
0
 10
  -919.400
 20
 10345.200
 11
  -919.400
 21
  -633.900
  0
LINE
  8
0
 10
  -919.400
 20
  -271.590
 11
 13719.401
 21
  -271.590
  0
TEXT
  8
0
 10
  3622.288
 20
  -573.515
 40
   241.540
  1
Rigid Frame Detailing 3
 50
     0.000
  0
TEXT
  8
0
 10
  -798.630
 20
  -573.515
 40
   241.540
  1
C463-002
 50
     0.000
  0
TEXT
  8
0
 10
 10941.688
 20
  -573.515
 40
   241.540
  1
18/DEC/2025
 50
     0.000
  0
ENDSEC
  0
EOF
