  0
SECTION
  2
HEADER
  9
$ACADVER
  1
AC1009
  9
$EXTMIN
 10
  -919.400
 20
  -635.900
  9
$EXTMAX
 10
 13719.401
 20
 10343.199
  9
$LIMMIN
 10
  -919.400
 20
  -635.900
  9
$LIMMAX
 10
 13719.401
 20
 10343.199
  9
$FILLMODE
 70
     1
  9
$HANDLING
 70
     0
  0
ENDSEC
  0
SECTION
  2
TABLES
  0
TABLE
  2
LTYPE
 70
1
  0
LTYPE
  2
CONTIN
 70
    64
  3
SOLID LINE
 72
    65
 73
     0
 40
0.0
  0
LTYPE
  2
CONTINUOUS
 70
    64
  3
SOLID LINE
 72
    65
 73
     0
 40
0.0
  0
LTYPE
  2
CENTER
 70
    64
  3
____ _ ____ _ ____ _ ____ _ ____ _ ____ _ ____
 72
    65
 73
     4
 40
    28.206
 49
    17.629
 49
    -3.526
 49
     3.526
 49
    -3.526
  0
LTYPE
  2
DASHED
 70
    64
  3
__ __ __ __ __ __ __ __ __ __ __ __ __ __ __ 
 72
    65
 73
     2
 40
   175.66
 49
   117.11
 49
   -58.55
  0
ENDTAB
  0
TABLE
  2
LAYER
 70
30
  0
LAYER
  2
0
 70
     0
 62
     7
  6
CONTIN
  0
LAYER
  2
1
 70
     0
 62
     7
  6
CONTIN
  0
LAYER
  2
2
 70
     0
 62
     7
  6
CONTIN
  0
LAYER
  2
3
 70
     0
 62
     7
  6
CONTIN
  0
LAYER
  2
4
 70
     0
 62
     5
  6
CONTIN
  0
LAYER
  2
5
 70
     0
 62
     5
  6
DASHED
  0
LAYER
  2
6
 70
     0
 62
     5
  6
DASHED
  0
LAYER
  2
7
 70
     0
 62
     5
  6
CONTIN
  0
LAYER
  2
8
 70
     0
 62
     5
  6
DASHED
  0
LAYER
  2
9
 70
     0
 62
     7
  6
CONTIN
  0
LAYER
  2
10
 70
     0
 62
     7
  6
CONTIN
  0
LAYER
  2
11
 70
     0
 62
     6
  6
DASHED
  0
LAYER
  2
12
 70
     0
 62
     7
  6
DASHED
  0
LAYER
  2
13
 70
     0
 62
     5
  6
DASHED
  0
LAYER
  2
14
 70
     0
 62
     7
  6
CONTIN
  0
LAYER
  2
15
 70
     0
 62
     5
  6
CONTIN
  0
LAYER
  2
16
 70
     0
 62
     7
  6
CONTIN
  0
LAYER
  2
17
 70
     0
 62
     7
  6
CONTIN
  0
LAYER
  2
18
 70
     0
 62
     7
  6
CONTIN
  0
LAYER
  2
19
 70
     0
 62
     7
  6
CONTIN
  0
LAYER
  2
20
 70
     0
 62
     1
  6
CONTIN
  0
LAYER
  2
21
 70
     0
 62
     7
  6
CONTIN
  0
LAYER
  2
22
 70
     0
 62
     7
  6
DASHED
  0
LAYER
  2
23
 70
     0
 62
     7
  6
DASHED
  0
LAYER
  2
24
 70
     0
 62
     7
  6
CONTIN
  0
LAYER
  2
25
 70
     0
 62
     7
  6
CONTIN
  0
LAYER
  2
26
 70
     0
 62
     7
  6
CONTIN
  0
LAYER
  2
27
 70
     0
 62
     1
  6
CENTER
  0
LAYER
  2
28
 70
     0
 62
     7
  6
CONTIN
  0
LAYER
  2
29
 70
     0
 62
     3
  6
DASHED
  0
ENDTAB
  0
TABLE
  2
STYLE
 70
  0
  0
ENDTAB
  0
ENDSEC
  0
SECTION
  2
ENTITIES
  0
LINE
  8
5
 10
  1328.275
 20
  9232.827
 11
  1348.176
 21
  9033.819
  0
LINE
  8
5
 10
  2919.340
 20
  9391.934
 11
  2939.240
 21
  9192.927
  0
LINE
  8
5
 10
  4510.404
 20
  9551.040
 11
  4530.305
 21
  9352.033
  0
LINE
  8
5
 10
  6101.469
 20
  9710.146
 11
  6121.370
 21
  9511.140
  0
LINE
  8
5
 10
  6698.511
 20
  9710.148
 11
  6678.610
 21
  9511.141
  0
LINE
  8
5
 10
  8289.575
 20
  9551.042
 11
  8269.674
 21
  9352.034
  0
LINE
  8
5
 10
  9880.641
 20
  9391.936
 11
  9860.739
 21
  9192.929
  0
LINE
  8
5
 10
 11471.705
 20
  9232.829
 11
 11451.804
 21
  9033.822
  0
LINE
  8
5
 10
   572.500
 20
  3080.000
 11
   636.000
 21
  3080.000
  0
LINE
  8
5
 10
   572.500
 20
  5780.000
 11
   636.000
 21
  5780.000
  0
LINE
  8
5
 10
   572.500
 20
  3080.000
 11
   636.000
 21
  3080.000
  0
LINE
  8
5
 10
   572.500
 20
  5780.000
 11
   636.000
 21
  5780.000
  0
LINE
  8
5
 10
  1381.158
 20
  8703.997
 11
  1387.477
 21
  8640.812
  0
LINE
  8
5
 10
  4557.658
 20
  9078.497
 11
  4563.977
 21
  9015.312
  0
LINE
  8
5
 10
  1381.158
 20
  8703.997
 11
  1387.477
 21
  8640.812
  0
LINE
  8
5
 10
  4557.658
 20
  9078.497
 11
  4563.977
 21
  9015.312
  0
LINE
  8
5
 10
  8242.321
 20
  9078.499
 11
  8236.003
 21
  9015.314
  0
LINE
  8
5
 10
 11418.821
 20
  8704.000
 11
 11412.503
 21
  8640.815
  0
LINE
  8
5
 10
  8242.321
 20
  9078.499
 11
  8236.003
 21
  9015.314
  0
LINE
  8
5
 10
 11418.821
 20
  8704.000
 11
 11412.503
 21
  8640.815
  0
LINE
  8
5
 10
 12227.499
 20
  3080.000
 11
 12163.999
 21
  3080.000
  0
LINE
  8
5
 10
 12227.499
 20
  5780.000
 11
 12163.999
 21
  5780.000
  0
LINE
  8
5
 10
 12227.499
 20
  3080.000
 11
 12163.999
 21
  3080.000
  0
LINE
  8
5
 10
 12227.499
 20
  5780.000
 11
 12163.999
 21
  5780.000
  0
LINE
  8
1
 10
   644.000
 20
  6480.000
 11
  1400.000
 21
  6480.000
  0
LINE
  8
1
 10
   644.000
 20
  6472.000
 11
  1400.000
 21
  6472.000
  0
LINE
  8
1
 10
  1400.000
 20
  6480.000
 11
  1400.000
 21
  6114.000
  0
LINE
  8
1
 10
  1400.000
 20
  6114.000
 11
   644.000
 21
  6114.000
  0
LINE
  8
1
 10
  1400.000
 20
  6122.000
 11
   644.000
 21
  6122.000
  0
LINE
  8
1
 10
  1400.000
 20
  6114.000
 11
  1400.000
 21
  6014.000
  0
LINE
  8
1
 10
  1400.000
 20
  6014.000
 11
   644.000
 21
  5577.522
  0
LINE
  8
1
 10
 12155.999
 20
  6480.000
 11
 11400.000
 21
  6480.000
  0
LINE
  8
1
 10
 12155.999
 20
  6472.000
 11
 11400.000
 21
  6472.000
  0
LINE
  8
1
 10
 11400.000
 20
  6480.000
 11
 11400.000
 21
  6114.000
  0
LINE
  8
1
 10
 11400.000
 20
  6114.000
 11
 12155.999
 21
  6114.000
  0
LINE
  8
1
 10
 11400.000
 20
  6122.000
 11
 12155.999
 21
  6122.000
  0
LINE
  8
1
 10
 11400.000
 20
  6114.000
 11
 11400.000
 21
  6014.000
  0
LINE
  8
1
 10
 11400.000
 20
  6014.000
 11
 12155.999
 21
  5577.523
  0
CIRCLE
  8
5
 10
   492.500
 20
  7854.780
 40
     9.000
  0
CIRCLE
  8
5
 10
   567.500
 20
  7854.780
 40
     9.000
  0
CIRCLE
  8
5
 10
   492.500
 20
  7754.780
 40
     9.000
  0
CIRCLE
  8
5
 10
   567.500
 20
  7754.780
 40
     9.000
  0
LINE
  8
8
 10
     0.000
 20
     0.000
 11
     0.000
 21
  9100.000
  0
LINE
  8
8
 10
     0.000
 20
  9100.000
 11
  6400.000
 21
  9740.000
  0
LINE
  8
8
 10
  6400.000
 20
  9740.000
 11
 12800.000
 21
  9100.000
  0
LINE
  8
8
 10
 12800.000
 20
  9100.000
 11
 12800.000
 21
     0.000
  0
LINE
  8
1
 10
   236.000
 20
    20.000
 11
   636.000
 21
    20.000
  0
LINE
  8
1
 10
   636.000
 20
    20.000
 11
   636.000
 21
  8532.478
  0
LINE
  8
1
 10
   636.000
 20
  8532.478
 11
   636.000
 21
  8532.478
  0
LINE
  8
1
 10
   636.000
 20
  8532.478
 11
   236.000
 21
  8532.478
  0
LINE
  8
1
 10
   236.000
 20
    20.000
 11
   236.000
 21
  8532.478
  0
LINE
  8
5
 10
   299.000
 20
   283.000
 11
   299.000
 21
   257.000
  0
LINE
  8
5
 10
   323.000
 20
   283.000
 11
   323.000
 21
   257.000
  0
ARC
  8
5
 10
   311.000
 20
   283.000
 40
    12.000
 50
     0.000
 51
   180.000
  0
ARC
  8
5
 10
   311.000
 20
   257.000
 40
    12.000
 50
   180.000
 51
     0.000
  0
LINE
  8
5
 10
   299.000
 20
  7293.000
 11
   299.000
 21
  7267.000
  0
LINE
  8
5
 10
   323.000
 20
  7293.000
 11
   323.000
 21
  7267.000
  0
ARC
  8
5
 10
   311.000
 20
  7293.000
 40
    12.000
 50
     0.000
 51
   180.000
  0
ARC
  8
5
 10
   311.000
 20
  7267.000
 40
    12.000
 50
   180.000
 51
     0.000
  0
LINE
  8
5
 10
   299.000
 20
  7593.000
 11
   299.000
 21
  7567.000
  0
LINE
  8
5
 10
   323.000
 20
  7593.000
 11
   323.000
 21
  7567.000
  0
ARC
  8
5
 10
   311.000
 20
  7593.000
 40
    12.000
 50
     0.000
 51
   180.000
  0
ARC
  8
5
 10
   311.000
 20
  7567.000
 40
    12.000
 50
   180.000
 51
     0.000
  0
LINE
  8
1
 10
   336.000
 20
  6120.000
 11
   636.000
 21
  6120.000
  0
LINE
  8
1
 10
   336.000
 20
  6114.000
 11
   636.000
 21
  6114.000
  0
LINE
  8
1
 10
   336.000
 20
  6120.000
 11
   336.000
 21
  6114.000
  0
LINE
  8
1
 10
   636.000
 20
  6120.000
 11
   636.000
 21
  6114.000
  0
LINE
  8
1
 10
   336.000
 20
  6480.000
 11
   636.000
 21
  6480.000
  0
LINE
  8
1
 10
   336.000
 20
  6474.000
 11
   636.000
 21
  6474.000
  0
LINE
  8
1
 10
   336.000
 20
  6480.000
 11
   336.000
 21
  6474.000
  0
LINE
  8
1
 10
   636.000
 20
  6480.000
 11
   636.000
 21
  6474.000
  0
LINE
  8
1
 10
   236.000
 20
  6850.000
 11
   536.000
 21
  6850.000
  0
LINE
  8
1
 10
   236.000
 20
  6844.000
 11
   536.000
 21
  6844.000
  0
LINE
  8
1
 10
   236.000
 20
  6850.000
 11
   236.000
 21
  6844.000
  0
LINE
  8
1
 10
   536.000
 20
  6850.000
 11
   536.000
 21
  6844.000
  0
LINE
  8
1
 10
   236.000
 20
    20.000
 11
   236.000
 21
  8532.478
  0
LINE
  8
1
 10
   236.000
 20
  8532.478
 11
   230.000
 21
  8532.478
  0
LINE
  8
1
 10
   230.000
 20
  8532.478
 11
   230.000
 21
    20.000
  0
LINE
  8
1
 10
   236.000
 20
    20.000
 11
   230.000
 21
    20.000
  0
LINE
  8
5
 10
   210.600
 20
  3080.000
 11
   248.700
 21
  3080.000
  0
LINE
  8
5
 10
   210.600
 20
  4280.000
 11
   248.700
 21
  4280.000
  0
LINE
  8
5
 10
   210.600
 20
  5780.000
 11
   248.700
 21
  5780.000
  0
LINE
  8
5
 10
   210.600
 20
  7280.000
 11
   248.700
 21
  7280.000
  0
LINE
  8
5
 10
   210.600
 20
  8280.000
 11
   248.700
 21
  8280.000
  0
LINE
  8
1
 10
   636.000
 20
    20.000
 11
   636.000
 21
  8532.478
  0
LINE
  8
1
 10
   636.000
 20
  8532.478
 11
   644.000
 21
  8532.478
  0
LINE
  8
1
 10
   644.000
 20
  8532.478
 11
   644.000
 21
    20.000
  0
LINE
  8
1
 10
   636.000
 20
    20.000
 11
   644.000
 21
    20.000
  0
CIRCLE
  8
1
 10
   644.000
 20
  6122.000
 40
    12.700
  0
CIRCLE
  8
1
 10
   644.000
 20
  6472.000
 40
    12.700
  0
LINE
  8
1
 10
   158.000
 20
   -32.700
 11
   158.000
 21
    32.700
  0
LINE
  8
1
 10
   308.000
 20
   -32.700
 11
   308.000
 21
    32.700
  0
LINE
  8
1
 10
   565.000
 20
   -32.700
 11
   565.000
 21
    32.700
  0
LINE
  8
1
 10
   715.000
 20
   -32.700
 11
   715.000
 21
    32.700
  0
LINE
  8
1
 10
    83.000
 20
     0.000
 11
   790.000
 21
     0.000
  0
LINE
  8
1
 10
   790.000
 20
     0.000
 11
   790.000
 21
    20.000
  0
LINE
  8
1
 10
   790.000
 20
    20.000
 11
    83.000
 21
    20.000
  0
LINE
  8
1
 10
    83.000
 20
     0.000
 11
    83.000
 21
    20.000
  0
LINE
  8
1
 10
   186.000
 20
  8519.777
 11
   186.000
 21
  8577.177
  0
LINE
  8
1
 10
   286.000
 20
  8519.777
 11
   286.000
 21
  8577.177
  0
LINE
  8
1
 10
   586.000
 20
  8519.777
 11
   586.000
 21
  8577.177
  0
LINE
  8
1
 10
   686.000
 20
  8519.777
 11
   686.000
 21
  8577.177
  0
LINE
  8
1
 10
   136.000
 20
  8548.478
 11
   736.000
 21
  8548.478
  0
LINE
  8
1
 10
   736.000
 20
  8548.478
 11
   736.000
 21
  8532.478
  0
LINE
  8
1
 10
   736.000
 20
  8532.478
 11
   136.000
 21
  8532.478
  0
LINE
  8
1
 10
   136.000
 20
  8548.478
 11
   136.000
 21
  8532.478
  0
LINE
  8
1
 10
   230.000
 20
    20.000
 11
   230.000
 21
   217.000
  0
LINE
  8
1
 10
   230.000
 20
   217.000
 11
    83.000
 21
    70.000
  0
LINE
  8
1
 10
    83.000
 20
    70.000
 11
    83.000
 21
    20.000
  0
LINE
  8
1
 10
   230.000
 20
    20.000
 11
    83.000
 21
    20.000
  0
LINE
  8
1
 10
   644.000
 20
    20.000
 11
   644.000
 21
   216.000
  0
LINE
  8
1
 10
   644.000
 20
   216.000
 11
   790.000
 21
    70.000
  0
LINE
  8
1
 10
   790.000
 20
    70.000
 11
   790.000
 21
    20.000
  0
LINE
  8
1
 10
   644.000
 20
    20.000
 11
   790.000
 21
    20.000
  0
LINE
  8
1
 10
   230.000
 20
  8532.478
 11
   230.000
 21
  8412.478
  0
LINE
  8
1
 10
   230.000
 20
  8412.478
 11
   136.000
 21
  8532.478
  0
LINE
  8
1
 10
   136.000
 20
  8532.478
 11
   136.000
 21
  8532.478
  0
LINE
  8
1
 10
   230.000
 20
  8532.478
 11
   136.000
 21
  8532.478
  0
LINE
  8
1
 10
   644.000
 20
  8532.478
 11
   644.000
 21
  8412.478
  0
LINE
  8
1
 10
   644.000
 20
  8412.478
 11
   736.000
 21
  8532.478
  0
LINE
  8
1
 10
   736.000
 20
  8532.478
 11
   736.000
 21
  8532.478
  0
LINE
  8
1
 10
   644.000
 20
  8532.478
 11
   736.000
 21
  8532.478
  0
CIRCLE
  8
1
 10
   230.000
 20
     0.000
 40
     6.350
  0
LINE
  8
17
 10
   223.650
 20
     0.000
 11
   236.350
 21
     0.000
  0
LINE
  8
17
 10
   230.000
 20
    -6.350
 11
   230.000
 21
     6.350
  0
CIRCLE
  8
1
 10
   644.000
 20
     0.000
 40
     6.350
  0
LINE
  8
17
 10
   637.650
 20
     0.000
 11
   650.350
 21
     0.000
  0
LINE
  8
17
 10
   644.000
 20
    -6.350
 11
   644.000
 21
     6.350
  0
CIRCLE
  8
1
 10
   644.000
 20
  8548.478
 40
     6.350
  0
LINE
  8
17
 10
   637.650
 20
  8548.478
 11
   650.350
 21
  8548.478
  0
LINE
  8
17
 10
   644.000
 20
  8542.127
 11
   644.000
 21
  8554.827
  0
CIRCLE
  8
1
 10
   230.000
 20
  8548.478
 40
     6.350
  0
LINE
  8
17
 10
   223.650
 20
  8548.478
 11
   236.350
 21
  8548.478
  0
LINE
  8
17
 10
   230.000
 20
  8542.127
 11
   230.000
 21
  8554.827
  0
LINE
  8
1
 10
  6384.000
 20
  9531.372
 11
  6384.000
 21
  9229.888
  0
LINE
  8
1
 10
  6384.000
 20
  9229.888
 11
   740.000
 21
  8564.478
  0
LINE
  8
1
 10
   740.000
 20
  8564.478
 11
   236.000
 21
  8564.478
  0
LINE
  8
1
 10
   236.000
 20
  8564.478
 11
   236.000
 21
  8916.572
  0
LINE
  8
1
 10
  6384.000
 20
  9531.372
 11
   236.000
 21
  8916.572
  0
LINE
  8
5
 10
  6220.197
 20
  9451.678
 11
  6194.326
 21
  9449.091
  0
LINE
  8
5
 10
  6222.585
 20
  9427.797
 11
  6196.714
 21
  9425.210
  0
ARC
  8
5
 10
  6221.391
 20
  9439.737
 40
    12.000
 50
   -84.289
 51
    95.711
  0
ARC
  8
5
 10
  6195.520
 20
  9437.150
 40
    12.000
 50
    95.711
 51
   -84.289
  0
LINE
  8
5
 10
   429.336
 20
  8872.593
 11
   403.465
 21
  8870.005
  0
LINE
  8
5
 10
   431.724
 20
  8848.712
 11
   405.853
 21
  8846.124
  0
ARC
  8
5
 10
   430.530
 20
  8860.652
 40
    12.000
 50
   -84.289
 51
    95.711
  0
ARC
  8
5
 10
   404.659
 20
  8858.064
 40
    12.000
 50
    95.711
 51
   -84.289
  0
LINE
  8
5
 10
   299.000
 20
  8679.572
 11
   299.000
 21
  8653.572
  0
LINE
  8
5
 10
   323.000
 20
  8679.572
 11
   323.000
 21
  8653.572
  0
ARC
  8
5
 10
   311.000
 20
  8679.572
 40
    12.000
 50
     0.000
 51
   180.000
  0
ARC
  8
5
 10
   311.000
 20
  8653.572
 40
    12.000
 50
   180.000
 51
     0.000
  0
LINE
  8
1
 10
   609.154
 20
  8923.188
 11
   644.975
 21
  8564.975
  0
LINE
  8
1
 10
   599.203
 20
  8922.192
 11
   635.024
 21
  8563.979
  0
LINE
  8
1
 10
   609.154
 20
  8923.188
 11
   599.203
 21
  8922.192
  0
LINE
  8
1
 10
   644.975
 20
  8564.975
 11
   635.024
 21
  8563.979
  0
LINE
  8
1
 10
  6384.000
 20
  9531.372
 11
    10.597
 21
  8894.032
  0
LINE
  8
1
 10
    10.597
 20
  8894.032
 11
    10.000
 21
  8900.002
  0
LINE
  8
1
 10
    10.000
 20
  8900.002
 11
  6383.403
 21
  9537.343
  0
LINE
  8
1
 10
  6384.000
 20
  9531.372
 11
  6383.403
 21
  9537.343
  0
LINE
  8
5
 10
    97.573
 20
  8928.257
 11
   101.364
 21
  8890.346
  0
LINE
  8
1
 10
   236.000
 20
  8564.478
 11
   236.000
 21
  8915.973
  0
LINE
  8
1
 10
   236.000
 20
  8915.973
 11
   230.000
 21
  8915.973
  0
LINE
  8
1
 10
   230.000
 20
  8915.973
 11
   230.000
 21
  8564.478
  0
LINE
  8
1
 10
   236.000
 20
  8564.478
 11
   230.000
 21
  8564.478
  0
LINE
  8
1
 10
   230.000
 20
  8915.973
 11
     0.000
 21
  8892.973
  0
LINE
  8
1
 10
     0.000
 20
  8892.973
 11
   230.000
 21
  8800.973
  0
LINE
  8
1
 10
  6383.297
 20
  9229.806
 11
   740.000
 21
  8564.478
  0
LINE
  8
1
 10
   740.000
 20
  8564.478
 11
   740.703
 21
  8558.519
  0
LINE
  8
1
 10
   740.703
 20
  8558.519
 11
  6384.000
 21
  9223.847
  0
LINE
  8
1
 10
  6383.297
 20
  9229.806
 11
  6384.000
 21
  9223.847
  0
LINE
  8
1
 10
  6371.300
 20
  9582.973
 11
  6428.700
 21
  9582.973
  0
LINE
  8
1
 10
  6371.300
 20
  9482.973
 11
  6428.700
 21
  9482.973
  0
LINE
  8
1
 10
  6371.300
 20
  9282.972
 11
  6428.700
 21
  9282.972
  0
LINE
  8
1
 10
  6371.300
 20
  9182.973
 11
  6428.700
 21
  9182.973
  0
LINE
  8
1
 10
  6400.000
 20
  9632.973
 11
  6400.000
 21
  9131.774
  0
LINE
  8
1
 10
  6400.000
 20
  9131.774
 11
  6384.000
 21
  9131.774
  0
LINE
  8
1
 10
  6384.000
 20
  9131.774
 11
  6384.000
 21
  9632.973
  0
LINE
  8
1
 10
  6400.000
 20
  9632.973
 11
  6384.000
 21
  9632.973
  0
LINE
  8
1
 10
   186.000
 20
  8519.777
 11
   186.000
 21
  8577.177
  0
LINE
  8
1
 10
   286.000
 20
  8519.777
 11
   286.000
 21
  8577.177
  0
LINE
  8
1
 10
   586.000
 20
  8519.777
 11
   586.000
 21
  8577.177
  0
LINE
  8
1
 10
   686.000
 20
  8519.777
 11
   686.000
 21
  8577.177
  0
LINE
  8
1
 10
   136.000
 20
  8548.478
 11
   736.000
 21
  8548.478
  0
LINE
  8
1
 10
   736.000
 20
  8548.478
 11
   736.000
 21
  8564.478
  0
LINE
  8
1
 10
   736.000
 20
  8564.478
 11
   136.000
 21
  8564.478
  0
LINE
  8
1
 10
   136.000
 20
  8548.478
 11
   136.000
 21
  8564.478
  0
LINE
  8
1
 10
  6384.000
 20
  9537.402
 11
  6264.000
 21
  9525.402
  0
LINE
  8
1
 10
  6264.000
 20
  9525.402
 11
  6384.000
 21
  9633.033
  0
LINE
  8
1
 10
  6384.000
 20
  9633.033
 11
  6384.000
 21
  9633.033
  0
LINE
  8
1
 10
  6384.000
 20
  9537.402
 11
  6384.000
 21
  9633.033
  0
LINE
  8
1
 10
  6384.000
 20
  9223.847
 11
  6264.000
 21
  9209.699
  0
LINE
  8
1
 10
  6264.000
 20
  9209.699
 11
  6384.000
 21
  9131.774
  0
LINE
  8
1
 10
  6384.000
 20
  9131.774
 11
  6384.000
 21
  9131.774
  0
LINE
  8
1
 10
  6384.000
 20
  9223.847
 11
  6384.000
 21
  9131.774
  0
LINE
  8
1
 10
   230.000
 20
  8564.478
 11
   230.000
 21
  8684.477
  0
LINE
  8
1
 10
   230.000
 20
  8684.477
 11
   136.000
 21
  8564.478
  0
LINE
  8
1
 10
   136.000
 20
  8564.478
 11
   136.000
 21
  8564.478
  0
LINE
  8
1
 10
   230.000
 20
  8564.478
 11
   136.000
 21
  8564.478
  0
CIRCLE
  8
1
 10
   230.000
 20
  8548.478
 40
     6.350
  0
LINE
  8
17
 10
   223.650
 20
  8548.478
 11
   236.350
 21
  8548.478
  0
LINE
  8
17
 10
   230.000
 20
  8542.127
 11
   230.000
 21
  8554.827
  0
CIRCLE
  8
1
 10
   736.000
 20
  8548.478
 40
     6.350
  0
LINE
  8
17
 10
   729.650
 20
  8548.478
 11
   742.350
 21
  8548.478
  0
LINE
  8
17
 10
   736.000
 20
  8542.127
 11
   736.000
 21
  8554.827
  0
CIRCLE
  8
1
 10
  6400.000
 20
  9225.732
 40
     6.350
  0
LINE
  8
17
 10
  6393.650
 20
  9225.732
 11
  6406.350
 21
  9225.732
  0
LINE
  8
17
 10
  6400.000
 20
  9219.383
 11
  6400.000
 21
  9232.083
  0
CIRCLE
  8
1
 10
  6400.000
 20
  9539.002
 40
     6.350
  0
LINE
  8
17
 10
  6393.650
 20
  9539.002
 11
  6406.350
 21
  9539.002
  0
LINE
  8
17
 10
  6400.000
 20
  9532.652
 11
  6400.000
 21
  9545.353
  0
CIRCLE
  8
1
 10
   230.000
 20
  8922.003
 40
     6.350
  0
LINE
  8
17
 10
   223.650
 20
  8922.003
 11
   236.350
 21
  8922.003
  0
LINE
  8
17
 10
   230.000
 20
  8915.652
 11
   230.000
 21
  8928.353
  0
LINE
  8
1
 10
  6416.000
 20
  9531.372
 11
  6416.000
 21
  9229.888
  0
LINE
  8
1
 10
  6416.000
 20
  9229.888
 11
 12059.999
 21
  8564.478
  0
LINE
  8
1
 10
 12059.999
 20
  8564.478
 11
 12564.000
 21
  8564.478
  0
LINE
  8
1
 10
 12564.000
 20
  8564.478
 11
 12564.000
 21
  8916.572
  0
LINE
  8
1
 10
  6416.000
 20
  9531.372
 11
 12564.000
 21
  8916.572
  0
LINE
  8
5
 10
  6605.674
 20
  9449.091
 11
  6579.804
 21
  9451.678
  0
LINE
  8
5
 10
  6603.286
 20
  9425.210
 11
  6577.416
 21
  9427.797
  0
ARC
  8
5
 10
  6604.480
 20
  9437.150
 40
    12.000
 50
   -95.711
 51
    84.289
  0
ARC
  8
5
 10
  6578.609
 20
  9439.737
 40
    12.000
 50
    84.289
 51
   -95.711
  0
LINE
  8
5
 10
 12396.534
 20
  8870.005
 11
 12370.664
 21
  8872.593
  0
LINE
  8
5
 10
 12394.146
 20
  8846.124
 11
 12368.275
 21
  8848.712
  0
ARC
  8
5
 10
 12395.341
 20
  8858.064
 40
    12.000
 50
   -95.711
 51
    84.289
  0
ARC
  8
5
 10
 12369.470
 20
  8860.652
 40
    12.000
 50
    84.289
 51
   -95.711
  0
LINE
  8
5
 10
 12501.000
 20
  8653.572
 11
 12501.000
 21
  8679.572
  0
LINE
  8
5
 10
 12476.999
 20
  8653.572
 11
 12476.999
 21
  8679.572
  0
ARC
  8
5
 10
 12489.000
 20
  8653.572
 40
    12.000
 50
  -180.000
 51
     0.000
  0
ARC
  8
5
 10
 12489.000
 20
  8679.572
 40
    12.000
 50
     0.000
 51
  -180.000
  0
LINE
  8
1
 10
 12200.796
 20
  8922.192
 11
 12164.975
 21
  8563.979
  0
LINE
  8
1
 10
 12190.847
 20
  8923.188
 11
 12155.024
 21
  8564.975
  0
LINE
  8
1
 10
 12200.796
 20
  8922.192
 11
 12190.847
 21
  8923.188
  0
LINE
  8
1
 10
 12164.975
 20
  8563.979
 11
 12155.024
 21
  8564.975
  0
LINE
  8
1
 10
  6416.000
 20
  9531.372
 11
 12789.403
 21
  8894.032
  0
LINE
  8
1
 10
 12789.403
 20
  8894.032
 11
 12790.000
 21
  8900.002
  0
LINE
  8
1
 10
 12790.000
 20
  8900.002
 11
  6416.597
 21
  9537.343
  0
LINE
  8
1
 10
  6416.000
 20
  9531.372
 11
  6416.597
 21
  9537.343
  0
LINE
  8
5
 10
 12702.427
 20
  8928.257
 11
 12698.636
 21
  8890.346
  0
LINE
  8
1
 10
 12564.000
 20
  8915.973
 11
 12564.000
 21
  8564.478
  0
LINE
  8
1
 10
 12564.000
 20
  8564.478
 11
 12569.999
 21
  8564.478
  0
LINE
  8
1
 10
 12569.999
 20
  8564.478
 11
 12569.999
 21
  8915.973
  0
LINE
  8
1
 10
 12564.000
 20
  8915.973
 11
 12569.999
 21
  8915.973
  0
LINE
  8
1
 10
 12569.999
 20
  8915.973
 11
 12799.999
 21
  8892.973
  0
LINE
  8
1
 10
 12799.999
 20
  8892.973
 11
 12569.999
 21
  8800.973
  0
LINE
  8
1
 10
  6416.703
 20
  9229.806
 11
 12059.999
 21
  8564.478
  0
LINE
  8
1
 10
 12059.999
 20
  8564.478
 11
 12059.297
 21
  8558.519
  0
LINE
  8
1
 10
 12059.297
 20
  8558.519
 11
  6416.000
 21
  9223.847
  0
LINE
  8
1
 10
  6416.703
 20
  9229.806
 11
  6416.000
 21
  9223.847
  0
LINE
  8
1
 10
  6371.300
 20
  9582.973
 11
  6428.700
 21
  9582.973
  0
LINE
  8
1
 10
  6371.300
 20
  9482.973
 11
  6428.700
 21
  9482.973
  0
LINE
  8
1
 10
  6371.300
 20
  9282.972
 11
  6428.700
 21
  9282.972
  0
LINE
  8
1
 10
  6371.300
 20
  9182.973
 11
  6428.700
 21
  9182.973
  0
LINE
  8
1
 10
  6400.000
 20
  9632.973
 11
  6400.000
 21
  9131.774
  0
LINE
  8
1
 10
  6400.000
 20
  9131.774
 11
  6416.000
 21
  9131.774
  0
LINE
  8
1
 10
  6416.000
 20
  9131.774
 11
  6416.000
 21
  9632.973
  0
LINE
  8
1
 10
  6400.000
 20
  9632.973
 11
  6416.000
 21
  9632.973
  0
LINE
  8
1
 10
 12614.000
 20
  8577.177
 11
 12614.000
 21
  8519.777
  0
LINE
  8
1
 10
 12514.000
 20
  8577.177
 11
 12514.000
 21
  8519.777
  0
LINE
  8
1
 10
 12214.000
 20
  8577.177
 11
 12214.000
 21
  8519.777
  0
LINE
  8
1
 10
 12114.000
 20
  8577.177
 11
 12114.000
 21
  8519.777
  0
LINE
  8
1
 10
 12664.000
 20
  8548.478
 11
 12063.999
 21
  8548.478
  0
LINE
  8
1
 10
 12063.999
 20
  8548.478
 11
 12063.999
 21
  8564.478
  0
LINE
  8
1
 10
 12063.999
 20
  8564.478
 11
 12664.000
 21
  8564.478
  0
LINE
  8
1
 10
 12664.000
 20
  8548.478
 11
 12664.000
 21
  8564.478
  0
LINE
  8
1
 10
  6416.000
 20
  9537.402
 11
  6536.000
 21
  9525.402
  0
LINE
  8
1
 10
  6536.000
 20
  9525.402
 11
  6416.000
 21
  9633.033
  0
LINE
  8
1
 10
  6416.000
 20
  9633.033
 11
  6416.000
 21
  9633.033
  0
LINE
  8
1
 10
  6416.000
 20
  9537.402
 11
  6416.000
 21
  9633.033
  0
LINE
  8
1
 10
  6416.000
 20
  9223.847
 11
  6536.000
 21
  9209.699
  0
LINE
  8
1
 10
  6536.000
 20
  9209.699
 11
  6416.000
 21
  9131.774
  0
LINE
  8
1
 10
  6416.000
 20
  9131.774
 11
  6416.000
 21
  9131.774
  0
LINE
  8
1
 10
  6416.000
 20
  9223.847
 11
  6416.000
 21
  9131.774
  0
LINE
  8
1
 10
 12569.999
 20
  8564.478
 11
 12569.999
 21
  8684.477
  0
LINE
  8
1
 10
 12569.999
 20
  8684.477
 11
 12664.000
 21
  8564.478
  0
LINE
  8
1
 10
 12664.000
 20
  8564.478
 11
 12664.000
 21
  8564.478
  0
LINE
  8
1
 10
 12569.999
 20
  8564.478
 11
 12664.000
 21
  8564.478
  0
CIRCLE
  8
1
 10
  6400.000
 20
  9539.002
 40
     6.350
  0
LINE
  8
17
 10
  6393.650
 20
  9539.002
 11
  6406.350
 21
  9539.002
  0
LINE
  8
17
 10
  6400.000
 20
  9532.652
 11
  6400.000
 21
  9545.353
  0
CIRCLE
  8
1
 10
  6400.000
 20
  9225.732
 40
     6.350
  0
LINE
  8
17
 10
  6393.650
 20
  9225.732
 11
  6406.350
 21
  9225.732
  0
LINE
  8
17
 10
  6400.000
 20
  9219.383
 11
  6400.000
 21
  9232.083
  0
CIRCLE
  8
1
 10
 12063.999
 20
  8548.478
 40
     6.350
  0
LINE
  8
17
 10
 12057.649
 20
  8548.478
 11
 12070.349
 21
  8548.478
  0
LINE
  8
17
 10
 12063.999
 20
  8542.127
 11
 12063.999
 21
  8554.827
  0
CIRCLE
  8
1
 10
 12569.999
 20
  8548.478
 40
     6.350
  0
LINE
  8
17
 10
 12563.649
 20
  8548.478
 11
 12576.350
 21
  8548.478
  0
LINE
  8
17
 10
 12569.999
 20
  8542.127
 11
 12569.999
 21
  8554.827
  0
CIRCLE
  8
1
 10
 12569.999
 20
  8922.003
 40
     6.350
  0
LINE
  8
17
 10
 12563.649
 20
  8922.003
 11
 12576.350
 21
  8922.003
  0
LINE
  8
17
 10
 12569.999
 20
  8915.652
 11
 12569.999
 21
  8928.353
  0
LINE
  8
1
 10
 12564.000
 20
    20.000
 11
 12164.000
 21
    20.000
  0
LINE
  8
1
 10
 12164.000
 20
    20.000
 11
 12163.999
 21
  8532.478
  0
LINE
  8
1
 10
 12163.999
 20
  8532.478
 11
 12163.999
 21
  8532.478
  0
LINE
  8
1
 10
 12163.999
 20
  8532.478
 11
 12564.000
 21
  8532.478
  0
LINE
  8
1
 10
 12564.000
 20
    20.000
 11
 12564.000
 21
  8532.478
  0
LINE
  8
5
 10
 12501.000
 20
   257.001
 11
 12501.000
 21
   283.001
  0
LINE
  8
5
 10
 12476.999
 20
   257.001
 11
 12476.999
 21
   283.001
  0
ARC
  8
5
 10
 12489.000
 20
   257.001
 40
    12.000
 50
  -180.000
 51
     0.000
  0
ARC
  8
5
 10
 12489.000
 20
   283.001
 40
    12.000
 50
     0.000
 51
  -180.000
  0
LINE
  8
5
 10
 12501.000
 20
  7267.000
 11
 12501.000
 21
  7293.000
  0
LINE
  8
5
 10
 12476.999
 20
  7267.000
 11
 12476.999
 21
  7293.000
  0
ARC
  8
5
 10
 12489.000
 20
  7267.000
 40
    12.000
 50
  -180.000
 51
     0.000
  0
ARC
  8
5
 10
 12489.000
 20
  7293.000
 40
    12.000
 50
     0.000
 51
  -180.000
  0
LINE
  8
5
 10
 12501.000
 20
  7567.000
 11
 12501.000
 21
  7593.000
  0
LINE
  8
5
 10
 12476.999
 20
  7567.000
 11
 12476.999
 21
  7593.000
  0
ARC
  8
5
 10
 12489.000
 20
  7567.000
 40
    12.000
 50
  -180.000
 51
     0.000
  0
ARC
  8
5
 10
 12489.000
 20
  7593.000
 40
    12.000
 50
     0.000
 51
  -180.000
  0
LINE
  8
1
 10
 12463.999
 20
  6120.000
 11
 12163.999
 21
  6120.000
  0
LINE
  8
1
 10
 12463.999
 20
  6114.000
 11
 12163.999
 21
  6114.000
  0
LINE
  8
1
 10
 12463.999
 20
  6120.000
 11
 12463.999
 21
  6114.000
  0
LINE
  8
1
 10
 12163.999
 20
  6120.000
 11
 12163.999
 21
  6114.000
  0
LINE
  8
1
 10
 12463.999
 20
  6480.000
 11
 12163.999
 21
  6480.000
  0
LINE
  8
1
 10
 12463.999
 20
  6474.000
 11
 12163.999
 21
  6474.000
  0
LINE
  8
1
 10
 12463.999
 20
  6480.000
 11
 12463.999
 21
  6474.000
  0
LINE
  8
1
 10
 12163.999
 20
  6480.000
 11
 12163.999
 21
  6474.000
  0
LINE
  8
1
 10
 12564.000
 20
  6850.000
 11
 12263.999
 21
  6850.000
  0
LINE
  8
1
 10
 12564.000
 20
  6844.000
 11
 12263.999
 21
  6844.000
  0
LINE
  8
1
 10
 12564.000
 20
  6850.000
 11
 12564.000
 21
  6844.000
  0
LINE
  8
1
 10
 12263.999
 20
  6850.000
 11
 12263.999
 21
  6844.000
  0
LINE
  8
1
 10
 12564.000
 20
    20.000
 11
 12564.000
 21
  8532.478
  0
LINE
  8
1
 10
 12564.000
 20
  8532.478
 11
 12569.999
 21
  8532.478
  0
LINE
  8
1
 10
 12569.999
 20
  8532.478
 11
 12569.999
 21
    20.000
  0
LINE
  8
1
 10
 12564.000
 20
    20.000
 11
 12569.999
 21
    20.000
  0
LINE
  8
5
 10
 12589.399
 20
  8280.000
 11
 12551.300
 21
  8280.000
  0
LINE
  8
5
 10
 12589.399
 20
  7280.000
 11
 12551.300
 21
  7280.000
  0
LINE
  8
5
 10
 12589.399
 20
  5780.000
 11
 12551.300
 21
  5780.000
  0
LINE
  8
5
 10
 12589.399
 20
  4280.000
 11
 12551.300
 21
  4280.000
  0
LINE
  8
5
 10
 12589.399
 20
  3080.000
 11
 12551.300
 21
  3080.000
  0
LINE
  8
1
 10
 12164.000
 20
    20.000
 11
 12163.999
 21
  8532.478
  0
LINE
  8
1
 10
 12163.999
 20
  8532.478
 11
 12155.999
 21
  8532.478
  0
LINE
  8
1
 10
 12155.999
 20
  8532.478
 11
 12156.000
 21
    20.000
  0
LINE
  8
1
 10
 12164.000
 20
    20.000
 11
 12156.000
 21
    20.000
  0
CIRCLE
  8
1
 10
 12155.999
 20
  6122.000
 40
    12.700
  0
CIRCLE
  8
1
 10
 12155.999
 20
  6472.000
 40
    12.700
  0
LINE
  8
1
 10
 12641.999
 20
    32.700
 11
 12641.999
 21
   -32.700
  0
LINE
  8
1
 10
 12491.999
 20
    32.700
 11
 12491.999
 21
   -32.700
  0
LINE
  8
1
 10
 12235.000
 20
    32.700
 11
 12235.000
 21
   -32.700
  0
LINE
  8
1
 10
 12085.000
 20
    32.700
 11
 12085.000
 21
   -32.700
  0
LINE
  8
1
 10
 12717.000
 20
     0.000
 11
 12010.000
 21
     0.000
  0
LINE
  8
1
 10
 12010.000
 20
     0.000
 11
 12010.000
 21
    20.000
  0
LINE
  8
1
 10
 12010.000
 20
    20.000
 11
 12717.000
 21
    20.000
  0
LINE
  8
1
 10
 12717.000
 20
     0.000
 11
 12717.000
 21
    20.000
  0
LINE
  8
1
 10
 12614.000
 20
  8577.177
 11
 12614.000
 21
  8519.777
  0
LINE
  8
1
 10
 12514.000
 20
  8577.177
 11
 12514.000
 21
  8519.777
  0
LINE
  8
1
 10
 12214.000
 20
  8577.177
 11
 12214.000
 21
  8519.777
  0
LINE
  8
1
 10
 12114.000
 20
  8577.177
 11
 12114.000
 21
  8519.777
  0
LINE
  8
1
 10
 12664.000
 20
  8548.478
 11
 12063.999
 21
  8548.478
  0
LINE
  8
1
 10
 12063.999
 20
  8548.478
 11
 12063.999
 21
  8532.478
  0
LINE
  8
1
 10
 12063.999
 20
  8532.478
 11
 12664.000
 21
  8532.478
  0
LINE
  8
1
 10
 12664.000
 20
  8548.478
 11
 12664.000
 21
  8532.478
  0
LINE
  8
1
 10
 12569.999
 20
    20.000
 11
 12569.999
 21
   217.000
  0
LINE
  8
1
 10
 12569.999
 20
   217.000
 11
 12717.000
 21
    70.000
  0
LINE
  8
1
 10
 12717.000
 20
    70.000
 11
 12717.000
 21
    20.000
  0
LINE
  8
1
 10
 12569.999
 20
    20.000
 11
 12717.000
 21
    20.000
  0
LINE
  8
1
 10
 12156.000
 20
    20.000
 11
 12156.000
 21
   216.000
  0
LINE
  8
1
 10
 12156.000
 20
   216.000
 11
 12010.000
 21
    70.000
  0
LINE
  8
1
 10
 12010.000
 20
    70.000
 11
 12010.000
 21
    20.000
  0
LINE
  8
1
 10
 12156.000
 20
    20.000
 11
 12010.000
 21
    20.000
  0
LINE
  8
1
 10
 12569.999
 20
  8532.478
 11
 12569.999
 21
  8412.478
  0
LINE
  8
1
 10
 12569.999
 20
  8412.478
 11
 12664.000
 21
  8532.478
  0
LINE
  8
1
 10
 12664.000
 20
  8532.478
 11
 12664.000
 21
  8532.478
  0
LINE
  8
1
 10
 12569.999
 20
  8532.478
 11
 12664.000
 21
  8532.478
  0
LINE
  8
1
 10
 12155.999
 20
  8532.478
 11
 12155.999
 21
  8412.478
  0
LINE
  8
1
 10
 12155.999
 20
  8412.478
 11
 12063.999
 21
  8532.478
  0
LINE
  8
1
 10
 12063.999
 20
  8532.478
 11
 12063.999
 21
  8532.478
  0
LINE
  8
1
 10
 12155.999
 20
  8532.478
 11
 12063.999
 21
  8532.478
  0
CIRCLE
  8
1
 10
 12569.999
 20
  8548.478
 40
     6.350
  0
LINE
  8
17
 10
 12563.649
 20
  8548.478
 11
 12576.350
 21
  8548.478
  0
LINE
  8
17
 10
 12569.999
 20
  8542.127
 11
 12569.999
 21
  8554.827
  0
CIRCLE
  8
1
 10
 12155.999
 20
  8548.478
 40
     6.350
  0
LINE
  8
17
 10
 12149.648
 20
  8548.478
 11
 12162.349
 21
  8548.478
  0
LINE
  8
17
 10
 12155.999
 20
  8542.127
 11
 12155.999
 21
  8554.827
  0
CIRCLE
  8
1
 10
 12156.000
 20
     0.000
 40
     6.350
  0
LINE
  8
17
 10
 12149.649
 20
     0.000
 11
 12162.350
 21
     0.000
  0
LINE
  8
17
 10
 12156.000
 20
    -6.350
 11
 12156.000
 21
     6.350
  0
CIRCLE
  8
1
 10
 12569.999
 20
     0.000
 40
     6.350
  0
LINE
  8
17
 10
 12563.649
 20
     0.000
 11
 12576.350
 21
     0.000
  0
LINE
  8
17
 10
 12569.999
 20
    -6.350
 11
 12569.999
 21
     6.350
  0
LINE
  8
3
 10
     0.000
 20
  3080.000
 11
  -175.915
 21
  2978.293
  0
LINE
  8
3
 10
     0.000
 20
  3080.000
 11
  -176.007
 21
  3181.547
  0
LINE
  8
3
 10
  -176.007
 20
  3181.547
 11
  -175.915
 21
  2978.293
  0
LINE
  8
3
 10
     0.000
 20
  5780.000
 11
  -175.915
 21
  5678.293
  0
LINE
  8
3
 10
     0.000
 20
  5780.000
 11
  -176.007
 21
  5881.547
  0
LINE
  8
3
 10
  -176.007
 20
  5881.547
 11
  -175.915
 21
  5678.293
  0
LINE
  8
3
 10
     0.000
 20
  3080.000
 11
  -175.915
 21
  2978.293
  0
LINE
  8
3
 10
     0.000
 20
  3080.000
 11
  -176.007
 21
  3181.547
  0
LINE
  8
3
 10
  -176.007
 20
  3181.547
 11
  -175.915
 21
  2978.293
  0
LINE
  8
3
 10
     0.000
 20
  5780.000
 11
  -175.915
 21
  5678.293
  0
LINE
  8
3
 10
     0.000
 20
  5780.000
 11
  -176.007
 21
  5881.547
  0
LINE
  8
3
 10
  -176.007
 20
  5881.547
 11
  -175.915
 21
  5678.293
  0
LINE
  8
3
 10
  1328.275
 20
  9232.827
 11
  1209.569
 21
  9397.749
  0
LINE
  8
3
 10
  1328.275
 20
  9232.827
 11
  1411.805
 21
  9418.064
  0
LINE
  8
3
 10
  1411.805
 20
  9418.064
 11
  1209.569
 21
  9397.749
  0
LINE
  8
3
 10
  4510.404
 20
  9551.040
 11
  4391.698
 21
  9715.962
  0
LINE
  8
3
 10
  4510.404
 20
  9551.040
 11
  4593.934
 21
  9736.277
  0
LINE
  8
3
 10
  4593.934
 20
  9736.277
 11
  4391.698
 21
  9715.962
  0
LINE
  8
3
 10
  1328.275
 20
  9232.827
 11
  1209.569
 21
  9397.749
  0
LINE
  8
3
 10
  1328.275
 20
  9232.827
 11
  1411.805
 21
  9418.064
  0
LINE
  8
3
 10
  1411.805
 20
  9418.064
 11
  1209.569
 21
  9397.749
  0
LINE
  8
3
 10
  4510.404
 20
  9551.040
 11
  4391.698
 21
  9715.962
  0
LINE
  8
3
 10
  4510.404
 20
  9551.040
 11
  4593.934
 21
  9736.277
  0
LINE
  8
3
 10
  4593.934
 20
  9736.277
 11
  4391.698
 21
  9715.962
  0
LINE
  8
3
 10
  8289.575
 20
  9551.042
 11
  8205.878
 21
  9736.204
  0
LINE
  8
3
 10
  8289.575
 20
  9551.042
 11
  8408.132
 21
  9716.071
  0
LINE
  8
3
 10
  8408.132
 20
  9716.071
 11
  8205.878
 21
  9736.204
  0
LINE
  8
3
 10
 11471.705
 20
  9232.829
 11
 11388.008
 21
  9417.991
  0
LINE
  8
3
 10
 11471.705
 20
  9232.829
 11
 11590.262
 21
  9397.858
  0
LINE
  8
3
 10
 11590.262
 20
  9397.858
 11
 11388.008
 21
  9417.991
  0
LINE
  8
3
 10
  8289.575
 20
  9551.042
 11
  8205.878
 21
  9736.204
  0
LINE
  8
3
 10
  8289.575
 20
  9551.042
 11
  8408.132
 21
  9716.071
  0
LINE
  8
3
 10
  8408.132
 20
  9716.071
 11
  8205.878
 21
  9736.204
  0
LINE
  8
3
 10
 11471.705
 20
  9232.829
 11
 11388.008
 21
  9417.991
  0
LINE
  8
3
 10
 11471.705
 20
  9232.829
 11
 11590.262
 21
  9397.858
  0
LINE
  8
3
 10
 11590.262
 20
  9397.858
 11
 11388.008
 21
  9417.991
  0
LINE
  8
3
 10
 12800.000
 20
  3080.000
 11
 12975.915
 21
  3181.706
  0
LINE
  8
3
 10
 12800.000
 20
  3080.000
 11
 12976.007
 21
  2978.453
  0
LINE
  8
3
 10
 12976.007
 20
  2978.453
 11
 12975.915
 21
  3181.706
  0
LINE
  8
3
 10
 12800.000
 20
  5780.000
 11
 12975.915
 21
  5881.707
  0
LINE
  8
3
 10
 12800.000
 20
  5780.000
 11
 12976.007
 21
  5678.453
  0
LINE
  8
3
 10
 12976.007
 20
  5678.453
 11
 12975.915
 21
  5881.707
  0
LINE
  8
3
 10
 12800.000
 20
  3080.000
 11
 12975.915
 21
  3181.706
  0
LINE
  8
3
 10
 12800.000
 20
  3080.000
 11
 12976.007
 21
  2978.453
  0
LINE
  8
3
 10
 12976.007
 20
  2978.453
 11
 12975.915
 21
  3181.706
  0
LINE
  8
3
 10
 12800.000
 20
  5780.000
 11
 12975.915
 21
  5881.707
  0
LINE
  8
3
 10
 12800.000
 20
  5780.000
 11
 12976.007
 21
  5678.453
  0
LINE
  8
3
 10
 12976.007
 20
  5678.453
 11
 12975.915
 21
  5881.707
  0
LINE
  8
3
 10
  1200.000
 20
  6505.400
 11
  1200.000
 21
  6974.600
  0
LINE
  8
3
 10
  1050.000
 20
  6974.600
 11
  1350.000
 21
  6974.600
  0
LINE
  8
3
 10
  1050.000
 20
  6505.400
 11
  1350.000
 21
  6505.400
  0
LINE
  8
3
 10
 11600.000
 20
  6505.400
 11
 11600.000
 21
  6974.600
  0
LINE
  8
3
 10
 11450.000
 20
  6974.600
 11
 11750.000
 21
  6974.600
  0
LINE
  8
3
 10
 11450.000
 20
  6505.400
 11
 11750.000
 21
  6505.400
  0
LINE
  8
3
 10
  1200.000
 20
  7000.000
 11
  1200.000
 21
  7000.000
  0
LINE
  8
3
 10
 11600.000
 20
  7000.000
 11
 11600.000
 21
  7000.000
  0
LINE
  8
3
 10
  1200.000
 20
  7000.000
 11
 11600.000
 21
  7000.000
  0
LINE
  8
3
 10
 11600.000
 20
  7000.000
 11
  1200.000
 21
  7000.000
  0
TEXT
  8
16
 10
  -254.000
 20
  3956.739
 40
   127.000
  1
RF2-1
 50
    90.000
  0
TEXT
  8
16
 10
  2953.901
 20
  9650.656
 40
   127.000
  1
RF2-2
 50
     5.711
  0
TEXT
  8
16
 10
  9214.250
 20
  9713.842
 40
   127.000
  1
RF2-2
 50
    -5.711
  0
TEXT
  8
16
 10
 13054.000
 20
  4591.739
 40
   127.000
  1
RF2-3
 50
   -90.000
  0
LINE
  8
0
 10
  -919.400
 20
  -635.900
 11
 13719.401
 21
  -635.900
  0
LINE
  8
0
 10
 13719.401
 20
  -635.900
 11
 13719.401
 21
 10343.199
  0
LINE
  8
0
 10
 13719.401
 20
 10343.199
 11
  -919.400
 21
 10343.199
  0
LINE
  8
0
 10
  -919.400
 20
 10343.199
 11
  -919.400
 21
  -635.900
  0
LINE
  8
0
 10
  -919.400
 20
  -273.590
 11
 13719.401
 21
  -273.590
  0
TEXT
  8
0
 10
  3622.288
 20
  -575.515
 40
   241.540
  1
Rigid Frame Detailing 2
 50
     0.000
  0
TEXT
  8
0
 10
  -798.630
 20
  -575.515
 40
   241.540
  1
C463-002
 50
     0.000
  0
TEXT
  8
0
 10
 10941.688
 20
  -575.515
 40
   241.540
  1
18/DEC/2025
 50
     0.000
  0
ENDSEC
  0
EOF
