  0
SECTION
  2
HEADER
  9
$ACADVER
  1
AC1009
  9
$EXTMIN
 10
-11403.306
 20
-13633.000
  9
$EXTMAX
 10
 40018.031
 20
 24933.000
  9
$LIMMIN
 10
-11403.306
 20
-13633.000
  9
$LIMMAX
 10
 40018.031
 20
 24933.000
  9
$FILLMODE
 70
     1
  9
$HANDLING
 70
     0
  0
ENDSEC
  0
SECTION
  2
TABLES
  0
TABLE
  2
LTYPE
 70
1
  0
LTYPE
  2
CONTIN
 70
    64
  3
SOLID LINE
 72
    65
 73
     0
 40
0.0
  0
LTYPE
  2
CONTINUOUS
 70
    64
  3
SOLID LINE
 72
    65
 73
     0
 40
0.0
  0
LTYPE
  2
CENTER
 70
    64
  3
____ _ ____ _ ____ _ ____ _ ____ _ ____ _ ____
 72
    65
 73
     4
 40
  1156.289
 49
   722.681
 49
  -144.536
 49
   144.536
 49
  -144.536
  0
LTYPE
  2
DASHED
 70
    64
  3
__ __ __ __ __ __ __ __ __ __ __ __ __ __ __ 
 72
    65
 73
     2
 40
   617.05
 49
   411.37
 49
  -205.68
  0
ENDTAB
  0
TABLE
  2
LAYER
 70
30
  0
LAYER
  2
0
 70
     0
 62
     7
  6
CONTIN
  0
LAYER
  2
1
 70
     0
 62
     7
  6
CONTIN
  0
LAYER
  2
2
 70
     0
 62
     7
  6
CONTIN
  0
LAYER
  2
3
 70
     0
 62
     7
  6
CONTIN
  0
LAYER
  2
4
 70
     0
 62
     5
  6
CONTIN
  0
LAYER
  2
5
 70
     0
 62
     5
  6
DASHED
  0
LAYER
  2
6
 70
     0
 62
     5
  6
DASHED
  0
LAYER
  2
7
 70
     0
 62
     5
  6
CONTIN
  0
LAYER
  2
8
 70
     0
 62
     5
  6
DASHED
  0
LAYER
  2
9
 70
     0
 62
     7
  6
CONTIN
  0
LAYER
  2
10
 70
     0
 62
     7
  6
CONTIN
  0
LAYER
  2
11
 70
     0
 62
     6
  6
DASHED
  0
LAYER
  2
12
 70
     0
 62
     7
  6
DASHED
  0
LAYER
  2
13
 70
     0
 62
     5
  6
DASHED
  0
LAYER
  2
14
 70
     0
 62
     7
  6
CONTIN
  0
LAYER
  2
15
 70
     0
 62
     5
  6
CONTIN
  0
LAYER
  2
16
 70
     0
 62
     7
  6
CONTIN
  0
LAYER
  2
17
 70
     0
 62
     7
  6
CONTIN
  0
LAYER
  2
18
 70
     0
 62
     7
  6
CONTIN
  0
LAYER
  2
19
 70
     0
 62
     7
  6
CONTIN
  0
LAYER
  2
20
 70
     0
 62
     1
  6
CONTIN
  0
LAYER
  2
21
 70
     0
 62
     7
  6
CONTIN
  0
LAYER
  2
22
 70
     0
 62
     7
  6
DASHED
  0
LAYER
  2
23
 70
     0
 62
     7
  6
DASHED
  0
LAYER
  2
24
 70
     0
 62
     7
  6
CONTIN
  0
LAYER
  2
25
 70
     0
 62
     7
  6
CONTIN
  0
LAYER
  2
26
 70
     0
 62
     7
  6
CONTIN
  0
LAYER
  2
27
 70
     0
 62
     1
  6
CENTER
  0
LAYER
  2
28
 70
     0
 62
     7
  6
CONTIN
  0
LAYER
  2
29
 70
     0
 62
     3
  6
DASHED
  0
ENDTAB
  0
TABLE
  2
STYLE
 70
  0
  0
ENDTAB
  0
ENDSEC
  0
SECTION
  2
ENTITIES
  0
LINE
  8
8
 10
     0.000
 20
  6400.000
 11
 30500.000
 21
  6400.000
  0
LINE
  8
23
 10
     0.000
 20
     0.000
 11
     0.000
 21
 12800.000
  0
LINE
  8
23
 10
  8535.000
 20
     0.000
 11
  8535.000
 21
 12800.000
  0
LINE
  8
23
 10
 16745.000
 20
     0.000
 11
 16745.000
 21
 12800.000
  0
LINE
  8
23
 10
 23460.000
 20
     0.000
 11
 23460.000
 21
 12800.000
  0
LINE
  8
23
 10
 30500.000
 20
     0.000
 11
 30500.000
 21
 12800.000
  0
LINE
  8
7
 10
     0.000
 20
-11880.000
 11
     0.000
 21
 -2780.000
  0
LINE
  8
7
 10
  8535.000
 20
-11880.000
 11
  8535.000
 21
 -2780.000
  0
LINE
  8
7
 10
 16745.000
 20
-11880.000
 11
 16745.000
 21
 -2780.000
  0
LINE
  8
7
 10
 23460.000
 20
-11880.000
 11
 23460.000
 21
 -2780.000
  0
LINE
  8
7
 10
 30500.000
 20
-11880.000
 11
 30500.000
 21
 -2780.000
  0
LINE
  8
5
 10
 18103.000
 20
-11880.000
 11
 18103.000
 21
 -7880.000
  0
LINE
  8
5
 10
 22102.998
 20
-11880.000
 11
 22102.998
 21
 -7880.000
  0
LINE
  8
5
 10
 18103.000
 20
 -7880.000
 11
 22102.998
 21
 -7880.000
  0
LINE
  8
8
 10
     0.000
 20
 -2780.000
 11
 30500.000
 21
 -2780.000
  0
LINE
  8
7
 10
     0.000
 20
 23180.000
 11
     0.000
 21
 14080.000
  0
LINE
  8
7
 10
  8535.000
 20
 23180.000
 11
  8535.000
 21
 14080.000
  0
LINE
  8
7
 10
 16745.000
 20
 23180.000
 11
 16745.000
 21
 14080.000
  0
LINE
  8
7
 10
 23460.000
 20
 23180.000
 11
 23460.000
 21
 14080.000
  0
LINE
  8
7
 10
 30500.000
 20
 23180.000
 11
 30500.000
 21
 14080.000
  0
LINE
  8
8
 10
     0.000
 20
 14080.000
 11
 30500.000
 21
 14080.000
  0
LINE
  8
22
 10
 -2627.680
 20
 12800.000
 11
 -1987.680
 21
  6400.000
  0
LINE
  8
22
 10
 -1987.680
 20
  6400.000
 11
 -2627.680
 21
     0.000
  0
LINE
  8
22
 10
 -3537.680
 20
 12800.000
 11
 -2627.680
 21
 12800.000
  0
LINE
  8
22
 10
 -3537.680
 20
     0.000
 11
 -2627.680
 21
     0.000
  0
LINE
  8
2
 10
     0.000
 20
     0.000
 11
  8382.601
 21
     0.000
  0
LINE
  8
2
 10
  8687.400
 20
     0.000
 11
 16592.600
 21
     0.000
  0
LINE
  8
2
 10
 16897.400
 20
     0.000
 11
 23307.600
 21
     0.000
  0
LINE
  8
2
 10
 23612.400
 20
     0.000
 11
 30500.000
 21
     0.000
  0
LINE
  8
2
 10
     0.000
 20
 12800.000
 11
  8382.601
 21
 12800.000
  0
LINE
  8
2
 10
  8687.400
 20
 12800.000
 11
 16592.600
 21
 12800.000
  0
LINE
  8
2
 10
 16897.400
 20
 12800.000
 11
 23307.600
 21
 12800.000
  0
LINE
  8
2
 10
 23612.400
 20
 12800.000
 11
 30500.000
 21
 12800.000
  0
LINE
  8
2
 10
     0.000
 20
 11471.705
 11
  8535.000
 21
 11471.705
  0
LINE
  8
2
 10
  8535.000
 20
 11471.705
 11
 16745.000
 21
 11471.705
  0
LINE
  8
2
 10
 16745.000
 20
 11471.705
 11
 23460.000
 21
 11471.705
  0
LINE
  8
2
 10
 23460.000
 20
 11471.705
 11
 30500.000
 21
 11471.705
  0
LINE
  8
2
 10
     0.000
 20
  9880.640
 11
  8535.000
 21
  9880.640
  0
LINE
  8
2
 10
  8535.000
 20
  9880.640
 11
 16745.000
 21
  9880.640
  0
LINE
  8
2
 10
 16745.000
 20
  9880.640
 11
 23460.000
 21
  9880.640
  0
LINE
  8
2
 10
 23460.000
 20
  9880.640
 11
 30500.000
 21
  9880.640
  0
LINE
  8
2
 10
     0.000
 20
  8289.575
 11
  8535.000
 21
  8289.575
  0
LINE
  8
2
 10
  8535.000
 20
  8289.575
 11
 16745.000
 21
  8289.575
  0
LINE
  8
2
 10
 16745.000
 20
  8289.575
 11
 23460.000
 21
  8289.575
  0
LINE
  8
2
 10
 23460.000
 20
  8289.575
 11
 30500.000
 21
  8289.575
  0
LINE
  8
2
 10
     0.000
 20
  6698.511
 11
  8535.000
 21
  6698.511
  0
LINE
  8
2
 10
  8535.000
 20
  6698.511
 11
 16745.000
 21
  6698.511
  0
LINE
  8
2
 10
 16745.000
 20
  6698.511
 11
 23460.000
 21
  6698.511
  0
LINE
  8
2
 10
 23460.000
 20
  6698.511
 11
 30500.000
 21
  6698.511
  0
LINE
  8
2
 10
     0.000
 20
  6101.488
 11
  8535.000
 21
  6101.488
  0
LINE
  8
2
 10
  8535.000
 20
  6101.488
 11
 16745.000
 21
  6101.488
  0
LINE
  8
2
 10
 16745.000
 20
  6101.488
 11
 23460.000
 21
  6101.488
  0
LINE
  8
2
 10
 23460.000
 20
  6101.488
 11
 30500.000
 21
  6101.488
  0
LINE
  8
2
 10
     0.000
 20
  4510.424
 11
  8535.000
 21
  4510.424
  0
LINE
  8
2
 10
  8535.000
 20
  4510.424
 11
 16745.000
 21
  4510.424
  0
LINE
  8
2
 10
 16745.000
 20
  4510.424
 11
 23460.000
 21
  4510.424
  0
LINE
  8
2
 10
 23460.000
 20
  4510.424
 11
 30500.000
 21
  4510.424
  0
LINE
  8
2
 10
     0.000
 20
  2919.359
 11
  8535.000
 21
  2919.359
  0
LINE
  8
2
 10
  8535.000
 20
  2919.359
 11
 16745.000
 21
  2919.359
  0
LINE
  8
2
 10
 16745.000
 20
  2919.359
 11
 23460.000
 21
  2919.359
  0
LINE
  8
2
 10
 23460.000
 20
  2919.359
 11
 30500.000
 21
  2919.359
  0
LINE
  8
2
 10
     0.000
 20
  1328.295
 11
  8535.000
 21
  1328.295
  0
LINE
  8
2
 10
  8535.000
 20
  1328.295
 11
 16745.000
 21
  1328.295
  0
LINE
  8
2
 10
 16745.000
 20
  1328.295
 11
 23460.000
 21
  1328.295
  0
LINE
  8
2
 10
 23460.000
 20
  1328.295
 11
 30500.000
 21
  1328.295
  0
LINE
  8
6
 10
  2133.750
 20
     0.000
 11
  2133.750
 21
 12800.000
  0
LINE
  8
6
 10
  4267.500
 20
     0.000
 11
  4267.500
 21
 12800.000
  0
LINE
  8
6
 10
  6401.250
 20
     0.000
 11
  6401.250
 21
 12800.000
  0
LINE
  8
6
 10
 10587.500
 20
     0.000
 11
 10587.500
 21
 12800.000
  0
LINE
  8
6
 10
 12640.000
 20
     0.000
 11
 12640.000
 21
 12800.000
  0
LINE
  8
6
 10
 14692.500
 20
     0.000
 11
 14692.500
 21
 12800.000
  0
LINE
  8
6
 10
 18983.334
 20
     0.000
 11
 18983.334
 21
 12800.000
  0
LINE
  8
6
 10
 21221.666
 20
     0.000
 11
 21221.666
 21
 12800.000
  0
LINE
  8
6
 10
 25220.000
 20
     0.000
 11
 25220.000
 21
 12800.000
  0
LINE
  8
6
 10
 26979.998
 20
     0.000
 11
 26979.998
 21
 12800.000
  0
LINE
  8
6
 10
 28740.000
 20
     0.000
 11
 28740.000
 21
 12800.000
  0
LINE
  8
6
 10
 18983.334
 20
     0.000
 11
 18983.334
 21
 -1500.000
  0
LINE
  8
6
 10
 21221.666
 20
     0.000
 11
 21221.666
 21
 -1500.000
  0
LINE
  8
2
 10
     0.000
 20
 -4450.000
 11
  8535.000
 21
 -4450.000
  0
LINE
  8
2
 10
 23460.000
 20
 -4450.000
 11
 30500.000
 21
 -4450.000
  0
LINE
  8
2
 10
 23460.000
 20
 15750.001
 11
 30500.000
 21
 15750.001
  0
LINE
  8
2
 10
     0.000
 20
 15750.001
 11
  8535.000
 21
 15750.001
  0
LINE
  8
3
 10
     0.000
 20
 12800.000
 11
  8535.000
 21
  6400.000
  0
LINE
  8
3
 10
  8535.000
 20
 12800.000
 11
     0.000
 21
  6400.000
  0
LINE
  8
3
 10
     0.000
 20
  6400.000
 11
  8535.000
 21
     0.000
  0
LINE
  8
3
 10
  8535.000
 20
  6400.000
 11
     0.000
 21
     0.000
  0
LINE
  8
3
 10
 23460.000
 20
 12800.000
 11
 30500.000
 21
  6400.000
  0
LINE
  8
3
 10
 30500.000
 20
 12800.000
 11
 23460.000
 21
  6400.000
  0
LINE
  8
3
 10
 23460.000
 20
  6400.000
 11
 30500.000
 21
     0.000
  0
LINE
  8
3
 10
 30500.000
 20
  6400.000
 11
 23460.000
 21
     0.000
  0
LINE
  8
3
 10
     0.000
 20
-11880.000
 11
  8535.000
 21
 -4450.000
  0
LINE
  8
3
 10
  8535.000
 20
-11880.000
 11
     0.000
 21
 -4450.000
  0
LINE
  8
3
 10
     0.000
 20
 -4450.000
 11
  8535.000
 21
 -2780.000
  0
LINE
  8
3
 10
  8535.000
 20
 -4450.000
 11
     0.000
 21
 -2780.000
  0
LINE
  8
3
 10
 23460.000
 20
-11880.000
 11
 30500.000
 21
 -4450.000
  0
LINE
  8
3
 10
 30500.000
 20
-11880.000
 11
 23460.000
 21
 -4450.000
  0
LINE
  8
3
 10
 23460.000
 20
 -4450.000
 11
 30500.000
 21
 -2780.000
  0
LINE
  8
3
 10
 30500.000
 20
 -4450.000
 11
 23460.000
 21
 -2780.000
  0
LINE
  8
3
 10
 23460.000
 20
 23180.000
 11
 30500.000
 21
 15750.001
  0
LINE
  8
3
 10
 30500.000
 20
 23180.000
 11
 23460.000
 21
 15750.001
  0
LINE
  8
3
 10
 23460.000
 20
 15750.001
 11
 30500.000
 21
 14080.000
  0
LINE
  8
3
 10
 30500.000
 20
 15750.001
 11
 23460.000
 21
 14080.000
  0
LINE
  8
3
 10
     0.000
 20
 23180.000
 11
  8535.000
 21
 15750.001
  0
LINE
  8
3
 10
  8535.000
 20
 23180.000
 11
     0.000
 21
 15750.001
  0
LINE
  8
3
 10
     0.000
 20
 15750.001
 11
  8535.000
 21
 14080.000
  0
LINE
  8
3
 10
  8535.000
 20
 15750.001
 11
     0.000
 21
 14080.000
  0
LINE
  8
8
 10
     0.000
 20
 12800.000
 11
 -1500.000
 21
 12800.000
  0
LINE
  8
10
 10
 -1500.000
 20
 12800.000
 11
 -1499.997
 21
  5114.999
  0
LINE
  8
8
 10
 -1499.997
 20
  5114.999
 11
     0.002
 21
  5115.000
  0
LINE
  8
2
 10
  -300.000
 20
 12800.000
 11
  -299.998
 21
  5115.000
  0
TEXT
  8
21
 10
 -1530.478
 20
  7006.778
 40
   121.920
  1
CANOPY: EXT ID 1
 50
    90.000
  0
LINE
  8
8
 10
 16745.000
 20
     0.000
 11
 16745.000
 21
 -1500.000
  0
LINE
  8
10
 10
 16745.000
 20
 -1500.000
 11
 23460.000
 21
 -1500.000
  0
LINE
  8
8
 10
 23460.000
 20
 -1500.000
 11
 23460.000
 21
     0.000
  0
LINE
  8
2
 10
 16745.000
 20
  -300.000
 11
 23460.000
 21
  -300.000
  0
TEXT
  8
21
 10
 19127.141
 20
 -1652.400
 40
   121.920
  1
CANOPY: EXT ID 2
 50
     0.000
  0
LINE
  8
8
 10
 30500.002
 20
  5115.000
 11
 32000.002
 21
  5114.999
  0
LINE
  8
10
 10
 32000.002
 20
  5114.999
 11
 32000.004
 21
 12800.000
  0
LINE
  8
8
 10
 32000.004
 20
 12800.000
 11
 30500.004
 21
 12800.000
  0
LINE
  8
2
 10
 30800.002
 20
  5115.000
 11
 30800.004
 21
 12800.000
  0
TEXT
  8
21
 10
 32152.400
 20
  7982.139
 40
   121.920
  1
CANOPY: EXT ID 3
 50
    90.000
  0
LINE
  8
0
 10
-11403.306
 20
-13633.000
 11
 40018.031
 21
-13633.000
  0
LINE
  8
0
 10
 40018.031
 20
-13633.000
 11
 40018.031
 21
 24933.000
  0
LINE
  8
0
 10
 40018.031
 20
 24933.000
 11
-11403.306
 21
 24933.000
  0
LINE
  8
0
 10
-11403.306
 20
 24933.000
 11
-11403.306
 21
-13633.000
  0
LINE
  8
0
 10
-11403.306
 20
-12360.322
 11
 40018.031
 21
-12360.322
  0
TEXT
  8
0
 10
  9640.876
 20
-13420.888
 40
   848.452
  1
Roof Design
 50
     0.000
  0
TEXT
  8
0
 10
-10979.079
 20
-13420.888
 40
   848.452
  1
C463-002
 50
     0.000
  0
TEXT
  8
0
 10
 30260.830
 20
-13420.888
 40
   848.452
  1
18/DEC/2025
 50
     0.000
  0
ENDSEC
  0
EOF
