  0
SECTION
  2
HEADER
  9
$ACADVER
  1
AC1009
  9
$EXTMIN
 10
 -1525.000
 20
 -8153.170
  9
$EXTMAX
 10
 32025.000
 20
 17009.330
  9
$LIMMIN
 10
 -1525.000
 20
 -8153.170
  9
$LIMMAX
 10
 32025.000
 20
 17009.330
  9
$FILLMODE
 70
     1
  9
$HANDLING
 70
     0
  0
ENDSEC
  0
SECTION
  2
TABLES
  0
TABLE
  2
LTYPE
 70
1
  0
LTYPE
  2
CONTIN
 70
    64
  3
SOLID LINE
 72
    65
 73
     0
 40
0.0
  0
LTYPE
  2
CONTINUOUS
 70
    64
  3
SOLID LINE
 72
    65
 73
     0
 40
0.0
  0
LTYPE
  2
CENTER
 70
    64
  3
____ _ ____ _ ____ _ ____ _ ____ _ ____ _ ____
 72
    65
 73
     4
 40
  1772.219
 49
  1107.637
 49
  -221.527
 49
   221.527
 49
  -221.527
  0
LTYPE
  2
DASHED
 70
    64
  3
__ __ __ __ __ __ __ __ __ __ __ __ __ __ __ 
 72
    65
 73
     2
 40
   402.60
 49
   268.40
 49
  -134.20
  0
ENDTAB
  0
TABLE
  2
LAYER
 70
30
  0
LAYER
  2
0
 70
     0
 62
     7
  6
CONTIN
  0
LAYER
  2
1
 70
     0
 62
     7
  6
CONTIN
  0
LAYER
  2
2
 70
     0
 62
     7
  6
CONTIN
  0
LAYER
  2
3
 70
     0
 62
     7
  6
CONTIN
  0
LAYER
  2
4
 70
     0
 62
     5
  6
CONTIN
  0
LAYER
  2
5
 70
     0
 62
     5
  6
DASHED
  0
LAYER
  2
6
 70
     0
 62
     5
  6
DASHED
  0
LAYER
  2
7
 70
     0
 62
     5
  6
CONTIN
  0
LAYER
  2
8
 70
     0
 62
     5
  6
DASHED
  0
LAYER
  2
9
 70
     0
 62
     7
  6
CONTIN
  0
LAYER
  2
10
 70
     0
 62
     7
  6
CONTIN
  0
LAYER
  2
11
 70
     0
 62
     6
  6
DASHED
  0
LAYER
  2
12
 70
     0
 62
     7
  6
DASHED
  0
LAYER
  2
13
 70
     0
 62
     5
  6
DASHED
  0
LAYER
  2
14
 70
     0
 62
     7
  6
CONTIN
  0
LAYER
  2
15
 70
     0
 62
     5
  6
CONTIN
  0
LAYER
  2
16
 70
     0
 62
     7
  6
CONTIN
  0
LAYER
  2
17
 70
     0
 62
     7
  6
CONTIN
  0
LAYER
  2
18
 70
     0
 62
     7
  6
CONTIN
  0
LAYER
  2
19
 70
     0
 62
     7
  6
CONTIN
  0
LAYER
  2
20
 70
     0
 62
     1
  6
CONTIN
  0
LAYER
  2
21
 70
     0
 62
     7
  6
CONTIN
  0
LAYER
  2
22
 70
     0
 62
     7
  6
DASHED
  0
LAYER
  2
23
 70
     0
 62
     7
  6
DASHED
  0
LAYER
  2
24
 70
     0
 62
     7
  6
CONTIN
  0
LAYER
  2
25
 70
     0
 62
     7
  6
CONTIN
  0
LAYER
  2
26
 70
     0
 62
     7
  6
CONTIN
  0
LAYER
  2
27
 70
     0
 62
     1
  6
CENTER
  0
LAYER
  2
28
 70
     0
 62
     7
  6
CONTIN
  0
LAYER
  2
29
 70
     0
 62
     3
  6
DASHED
  0
ENDTAB
  0
TABLE
  2
STYLE
 70
  0
  0
ENDTAB
  0
ENDSEC
  0
SECTION
  2
ENTITIES
  0
LINE
  8
4
 10
   339.200
 20
     0.000
 11
   339.200
 21
  9100.000
  0
LINE
  8
4
 10
   440.800
 20
     0.000
 11
   440.800
 21
  9100.000
  0
LINE
  8
4
 10
   339.200
 20
     0.000
 11
   440.800
 21
     0.000
  0
LINE
  8
4
 10
   339.200
 20
  9100.000
 11
   440.800
 21
  9100.000
  0
LINE
  8
4
 10
  6989.200
 20
     0.000
 11
  6989.200
 21
  9100.000
  0
LINE
  8
4
 10
  7090.800
 20
     0.000
 11
  7090.800
 21
  9100.000
  0
LINE
  8
4
 10
  6989.200
 20
     0.000
 11
  7090.800
 21
     0.000
  0
LINE
  8
4
 10
  6989.200
 20
  9100.000
 11
  7090.800
 21
  9100.000
  0
LINE
  8
4
 10
 13704.199
 20
     0.000
 11
 13704.199
 21
  9100.000
  0
LINE
  8
4
 10
 13805.800
 20
     0.000
 11
 13805.800
 21
  9100.000
  0
LINE
  8
4
 10
 13704.199
 20
     0.000
 11
 13805.800
 21
     0.000
  0
LINE
  8
4
 10
 13704.199
 20
  9100.000
 11
 13805.800
 21
  9100.000
  0
LINE
  8
4
 10
 21914.201
 20
     0.000
 11
 21914.201
 21
  9100.000
  0
LINE
  8
4
 10
 22015.799
 20
     0.000
 11
 22015.799
 21
  9100.000
  0
LINE
  8
4
 10
 21914.201
 20
     0.000
 11
 22015.799
 21
     0.000
  0
LINE
  8
4
 10
 21914.201
 20
  9100.000
 11
 22015.799
 21
  9100.000
  0
LINE
  8
4
 10
 30059.201
 20
     0.000
 11
 30059.201
 21
  9100.000
  0
LINE
  8
4
 10
 30160.799
 20
     0.000
 11
 30160.799
 21
  9100.000
  0
LINE
  8
4
 10
 30059.201
 20
     0.000
 11
 30160.799
 21
     0.000
  0
LINE
  8
4
 10
 30059.201
 20
  9100.000
 11
 30160.799
 21
  9100.000
  0
TEXT
  8
21
 10
  3398.080
 20
  -243.840
 40
   121.920
  1
  1
 50
     0.000
  0
TEXT
  8
21
 10
 10275.579
 20
  -243.840
 40
   121.920
  1
  2
 50
     0.000
  0
TEXT
  8
21
 10
 17738.080
 20
  -243.840
 40
   121.920
  1
  3
 50
     0.000
  0
TEXT
  8
21
 10
 26110.580
 20
  -243.840
 40
   121.920
  1
  4
 50
     0.000
  0
LINE
  8
8
 10
     0.000
 20
  3000.000
 11
  7040.000
 21
  3000.000
  0
LINE
  8
8
 10
  7040.000
 20
  3000.000
 11
 13754.999
 21
  3000.000
  0
LINE
  8
8
 10
 13754.999
 20
  3000.000
 11
 21965.000
 21
  3000.000
  0
LINE
  8
8
 10
 21965.000
 20
  3000.000
 11
 30500.000
 21
  3000.000
  0
LINE
  8
2
 10
   390.000
 20
  3080.000
 11
  7040.000
 21
  3080.000
  0
LINE
  8
2
 10
  7040.000
 20
  3080.000
 11
 13754.999
 21
  3080.000
  0
LINE
  8
2
 10
 13754.999
 20
  3080.000
 11
 21965.000
 21
  3080.000
  0
LINE
  8
2
 10
 21965.000
 20
  3080.000
 11
 30110.000
 21
  3080.000
  0
LINE
  8
2
 10
   390.000
 20
  4280.000
 11
  7040.000
 21
  4280.000
  0
LINE
  8
2
 10
  7040.000
 20
  4280.000
 11
 13754.999
 21
  4280.000
  0
LINE
  8
2
 10
 13754.999
 20
  4280.000
 11
 21965.000
 21
  4280.000
  0
LINE
  8
2
 10
 21965.000
 20
  4280.000
 11
 30110.000
 21
  4280.000
  0
LINE
  8
2
 10
   390.000
 20
  5780.000
 11
  7040.000
 21
  5780.000
  0
LINE
  8
2
 10
  7040.000
 20
  5780.000
 11
 13754.999
 21
  5780.000
  0
LINE
  8
2
 10
 13754.999
 20
  5780.000
 11
 21965.000
 21
  5780.000
  0
LINE
  8
2
 10
 21965.000
 20
  5780.000
 11
 30110.000
 21
  5780.000
  0
LINE
  8
2
 10
   390.000
 20
  7280.000
 11
  7040.000
 21
  7280.000
  0
LINE
  8
2
 10
  7040.000
 20
  7280.000
 11
 13754.999
 21
  7280.000
  0
LINE
  8
2
 10
 13754.999
 20
  7280.000
 11
 21965.000
 21
  7280.000
  0
LINE
  8
2
 10
 21965.000
 20
  7280.000
 11
 30110.000
 21
  7280.000
  0
LINE
  8
2
 10
   390.000
 20
  8280.000
 11
  7040.000
 21
  8280.000
  0
LINE
  8
2
 10
  7040.000
 20
  8280.000
 11
 13754.999
 21
  8280.000
  0
LINE
  8
2
 10
 13754.999
 20
  8280.000
 11
 21965.000
 21
  8280.000
  0
LINE
  8
2
 10
 21965.000
 20
  8280.000
 11
 30110.000
 21
  8280.000
  0
LINE
  8
6
 10
  1760.000
 20
  3080.000
 11
  1760.000
 21
  9100.000
  0
LINE
  8
6
 10
  3520.000
 20
  3080.000
 11
  3520.000
 21
  9100.000
  0
LINE
  8
6
 10
  5280.000
 20
  3080.000
 11
  5280.000
 21
  9100.000
  0
LINE
  8
6
 10
  9278.333
 20
  3080.000
 11
  9278.333
 21
  9100.000
  0
LINE
  8
6
 10
 11516.666
 20
  3080.000
 11
 11516.666
 21
  9100.000
  0
LINE
  8
6
 10
 15807.500
 20
  3080.000
 11
 15807.500
 21
  9100.000
  0
LINE
  8
6
 10
 17860.000
 20
  3080.000
 11
 17860.000
 21
  9100.000
  0
LINE
  8
6
 10
 19912.500
 20
  3080.000
 11
 19912.500
 21
  9100.000
  0
LINE
  8
6
 10
 24098.752
 20
  3080.000
 11
 24098.752
 21
  9100.000
  0
LINE
  8
6
 10
 26232.500
 20
  3080.000
 11
 26232.500
 21
  9100.000
  0
LINE
  8
6
 10
 28366.248
 20
  3080.000
 11
 28366.248
 21
  9100.000
  0
LINE
  8
8
 10
     0.000
 20
  9100.000
 11
 30500.000
 21
  9100.000
  0
LINE
  8
0
 10
 -1525.000
 20
 -8153.170
 11
 32025.000
 21
 -8153.170
  0
LINE
  8
0
 10
 32025.000
 20
 -8153.170
 11
 32025.000
 21
 17009.330
  0
LINE
  8
0
 10
 32025.000
 20
 17009.330
 11
 -1525.000
 21
 17009.330
  0
LINE
  8
0
 10
 -1525.000
 20
 17009.330
 11
 -1525.000
 21
 -8153.170
  0
LINE
  8
0
 10
 -1525.000
 20
 -7322.808
 11
 32025.000
 21
 -7322.808
  0
TEXT
  8
0
 10
  9714.250
 20
 -8014.776
 40
   553.575
  1
Back Sidewall Design
 50
     0.000
  0
TEXT
  8
0
 10
 -1248.212
 20
 -8014.776
 40
   553.575
  1
C463-002
 50
     0.000
  0
TEXT
  8
0
 10
 25658.887
 20
 -8014.776
 40
   553.575
  1
18/DEC/2025
 50
     0.000
  0
ENDSEC
  0
EOF
