999
SOURCE:MBS   PROGRAM:PLT_DXF   CELL:CLIP   CLASS:SCALED   MODE:---
  0
SECTION
  2
HEADER
  9
$EXTMIN
 10
          0.000
 20
          0.000
  9
$EXTMAX
 10
        193.333
 20
        121.667
  9
$LIMMIN
 10
          0.000
 20
          0.000
  9
$LIMMAX
 10
        193.333
 20
        121.667
  9
$FILLMODE
 70
     1
  9
$LTSCALE
 40
  0.125
  9
$HANDLING
 70
     0
  0
ENDSEC
  0
SECTION
  2
TABLES
  0
TABLE
  2
LTYPE
 70
     3
  0
LTYPE
  2
CONTINUOUS
 70
    64
  3
SOLID LINE
 72
    65
 73
     0
 40
0.0
  0
LTYPE
  2
CENTER
 70
    64
  3
____ _ ____ _ ____ _ ____ _ ____ _ ____ _ ____
 72
    65
 73
     4
 40
2.0
 49
1.25
 49
-0.25
 49
0.25
 49
-0.25
  0
LTYPE
  2
DASHED
 70
    64
  3
__ __ __ __ __ __ __ __ __ __ __ __ __ __ __ 
 72
    65
 73
     2
 40
0.75
 49
0.5
 49
-0.25
  0
ENDTAB
  0
TABLE
  2
LAYER
 70
    51
  0
LAYER
  2
0
 70
     0
 62
     7
  6
CONTINUOUS
  0
LAYER
  2
1
 70
     0
 62
     7
  6
CONTINUOUS
  0
LAYER
  2
2
 70
     0
 62
     7
  6
CONTINUOUS
  0
LAYER
  2
3
 70
     0
 62
     1
  6
CONTINUOUS
  0
LAYER
  2
4
 70
     0
 62
     1
  6
CONTINUOUS
  0
LAYER
  2
5
 70
     0
 62
     7
  6
CONTINUOUS
  0
LAYER
  2
6
 70
     0
 62
     4
  6
CONTINUOUS
  0
LAYER
  2
7
 70
     0
 62
     3
  6
CONTINUOUS
  0
LAYER
  2
8
 70
     0
 62
     3
  6
CONTINUOUS
  0
LAYER
  2
9
 70
     0
 62
     7
  6
CONTINUOUS
  0
LAYER
  2
10
 70
     0
 62
     7
  6
CONTINUOUS
  0
LAYER
  2
11
 70
     0
 62
     7
  6
CONTINUOUS
  0
LAYER
  2
12
 70
     0
 62
     2
  6
CONTINUOUS
  0
LAYER
  2
13
 70
     0
 62
     2
  6
CONTINUOUS
  0
LAYER
  2
14
 70
     0
 62
     7
  6
CONTINUOUS
  0
LAYER
  2
15
 70
     0
 62
     6
  6
CONTINUOUS
  0
LAYER
  2
16
 70
     0
 62
     7
  6
CONTINUOUS
  0
LAYER
  2
17
 70
     0
 62
     7
  6
CONTINUOUS
  0
LAYER
  2
18
 70
     0
 62
     4
  6
CONTINUOUS
  0
LAYER
  2
19
 70
     0
 62
     7
  6
CONTINUOUS
  0
LAYER
  2
20
 70
     0
 62
     7
  6
CONTINUOUS
  0
LAYER
  2
21
 70
     0
 62
     7
  6
CONTINUOUS
  0
LAYER
  2
22
 70
     0
 62
     7
  6
CONTINUOUS
  0
LAYER
  2
23
 70
     0
 62
     7
  6
CONTINUOUS
  0
LAYER
  2
24
 70
     0
 62
     7
  6
CONTINUOUS
  0
LAYER
  2
25
 70
     0
 62
     7
  6
CONTINUOUS
  0
LAYER
  2
26
 70
     0
 62
     7
  6
CONTINUOUS
  0
LAYER
  2
27
 70
     0
 62
     7
  6
CONTINUOUS
  0
LAYER
  2
28
 70
     0
 62
     7
  6
CONTINUOUS
  0
LAYER
  2
29
 70
     0
 62
     7
  6
CONTINUOUS
  0
LAYER
  2
30
 70
     0
 62
     7
  6
CONTINUOUS
  0
LAYER
  2
31
 70
     0
 62
     7
  6
CONTINUOUS
  0
LAYER
  2
32
 70
     0
 62
     7
  6
CONTINUOUS
  0
LAYER
  2
33
 70
     0
 62
     7
  6
CONTINUOUS
  0
LAYER
  2
34
 70
     0
 62
     7
  6
CONTINUOUS
  0
LAYER
  2
35
 70
     0
 62
     7
  6
CONTINUOUS
  0
LAYER
  2
36
 70
     0
 62
     7
  6
CONTINUOUS
  0
LAYER
  2
37
 70
     0
 62
     7
  6
CONTINUOUS
  0
LAYER
  2
38
 70
     0
 62
     7
  6
CONTINUOUS
  0
LAYER
  2
39
 70
     0
 62
     7
  6
CONTINUOUS
  0
LAYER
  2
40
 70
     0
 62
     7
  6
CONTINUOUS
  0
LAYER
  2
41
 70
     0
 62
     7
  6
CONTINUOUS
  0
LAYER
  2
42
 70
     0
 62
     7
  6
CONTINUOUS
  0
LAYER
  2
43
 70
     0
 62
     7
  6
CONTINUOUS
  0
LAYER
  2
44
 70
     0
 62
     7
  6
CONTINUOUS
  0
LAYER
  2
45
 70
     0
 62
     7
  6
CONTINUOUS
  0
LAYER
  2
46
 70
     0
 62
     7
  6
CONTINUOUS
  0
LAYER
  2
47
 70
     0
 62
     7
  6
CONTINUOUS
  0
LAYER
  2
48
 70
     0
 62
     7
  6
CONTINUOUS
  0
LAYER
  2
49
 70
     0
 62
     7
  6
CONTINUOUS
  0
LAYER
  2
50
 70
     0
 62
     7
  6
CONTINUOUS
  0
ENDTAB
  0
ENDSEC
  0
SECTION
  2
BLOCKS
  0
BLOCK
  8
2
  2
ARROW
 70
     0
 10
  0.000000
 20
  0.000000
  0
LINE
  6
CONTINUOUS
  8
2
 10
  0.000000
 20
  0.000000
 11
 -1.000000
 21
  0.166667
  0
LINE
  6
CONTINUOUS
  8
2
 10
 -1.000000
 20
  0.166667
 11
 -1.000000
 21
 -0.166667
  0
LINE
  6
CONTINUOUS
  8
2
 10
 -1.000000
 20
 -0.166667
 11
  0.000000
 21
  0.000000
  0
ENDBLK
  8
2
  0
BLOCK
  8
3
  2
CIRCLE
 70
     0
 10
  0.000000
 20
  0.000000
  0
CIRCLE
  8
1
 10
   0.000
 20
   0.000
 40
   1.000
  0
ENDBLK
  8
3
  0
BLOCK
  8
2
  2
PLATE
 70
     0
 10
  0.000000
 20
  0.000000
  0
CIRCLE
  6
CONTINUOUS
  8
5
 10
  0.000000
 20
-37.500000
 40
  0.100000
  0
LINE
  6
CONTINUOUS
  8
5
 10
 -0.100000
 20
-37.500000
 11
  0.100000
 21
-37.500000
  0
LINE
  6
CONTINUOUS
  8
5
 10
  0.000000
 20
-37.599998
 11
  0.000000
 21
-37.400002
  0
TEXT
  8
5
 10
  0.000000
 20
-37.500000
 40
   0.015
  1
ZERO
 50
   0.000
  0
LINE
  6
CONTINUOUS
  8
3
 10
  0.000000
 20
  0.000000
 11
  0.000000
 21
-75.000000
  0
LINE
  6
CONTINUOUS
  8
3
 10
  0.000000
 20
-75.000000
 11
 75.000000
 21
-75.000000
  0
LINE
  6
CONTINUOUS
  8
3
 10
 75.000000
 20
-75.000000
 11
 75.000000
 21
  0.000000
  0
LINE
  6
CONTINUOUS
  8
3
 10
 75.000000
 20
  0.000000
 11
  0.000000
 21
  0.000000
  0
CIRCLE
  6
CONTINUOUS
  8
4
 10
 25.000000
 20
-25.000000
 40
  7.000000
  0
LINE
  6
CONTINUOUS
  8
6
 10
 -1.000000
 20
-75.000000
 11
 -7.250000
 21
-75.000000
  0
LINE
  6
CONTINUOUS
  8
6
 10
 -0.999994
 20
  0.000000
 11
 -7.249995
 21
  0.000001
  0
LINE
  6
CONTINUOUS
  8
6
 10
 -7.200000
 20
-75.000000
 11
 -7.199995
 21
  0.000001
  0
INSERT
  8
6
  2
ARROW
 10
 -7.200000
 20
-75.000000
 41
  0.666667
 42
  0.666667
 43
  0.666667
 50
 270.000
  0
INSERT
  8
6
  2
ARROW
 10
 -7.199995
 20
  0.000001
 41
  0.666667
 42
  0.666667
 43
  0.666667
 50
  90.000
  0
TEXT
  8
6
 10
 -7.866664
 20
-38.833332
 40
   1.333
  1
75
 50
  90.000
  0
LINE
  6
CONTINUOUS
  8
6
 10
  0.000000
 20
  1.000000
 11
  0.000000
 21
  7.250000
  0
LINE
  6
CONTINUOUS
  8
6
 10
 75.000000
 20
  1.000000
 11
 75.000000
 21
  7.250000
  0
LINE
  6
CONTINUOUS
  8
6
 10
  0.000000
 20
  7.200000
 11
 75.000000
 21
  7.200000
  0
INSERT
  8
6
  2
ARROW
 10
  0.000000
 20
  7.200000
 41
  0.666667
 42
  0.666667
 43
  0.666667
 50
 180.000
  0
INSERT
  8
6
  2
ARROW
 10
 75.000000
 20
  7.200000
 41
  0.666667
 42
  0.666667
 43
  0.666667
 50
   0.000
  0
TEXT
  8
6
 10
 36.166668
 20
  7.866667
 40
   1.333
  1
75
 50
   0.000
  0
LINE
  6
CONTINUOUS
  8
6
 10
 76.000000
 20
-25.000000
 11
 82.250000
 21
-25.000000
  0
LINE
  6
CONTINUOUS
  8
6
 10
 76.000000
 20
  0.000000
 11
 82.250000
 21
 -0.000001
  0
LINE
  6
CONTINUOUS
  8
6
 10
 82.199997
 20
-25.000000
 11
 82.199997
 21
 -0.000001
  0
INSERT
  8
6
  2
ARROW
 10
 82.199997
 20
-25.000000
 41
  0.666667
 42
  0.666667
 43
  0.666667
 50
 270.000
  0
INSERT
  8
6
  2
ARROW
 10
 82.199997
 20
 -0.000001
 41
  0.666667
 42
  0.666667
 43
  0.666667
 50
  90.000
  0
TEXT
  8
6
 10
 81.533333
 20
-13.833333
 40
   1.333
  1
25
 50
  90.000
  0
LINE
  6
CONTINUOUS
  8
6
 10
  0.000000
 20
-76.000000
 11
  0.000000
 21
-79.333336
  0
LINE
  6
CONTINUOUS
  8
6
 10
 25.000000
 20
-76.000000
 11
 25.000000
 21
-79.333336
  0
LINE
  6
CONTINUOUS
  8
6
 10
  0.000000
 20
-79.283333
 11
 25.000000
 21
-79.283333
  0
INSERT
  8
6
  2
ARROW
 10
  0.000000
 20
-79.283333
 41
  0.666667
 42
  0.666667
 43
  0.666667
 50
 180.000
  0
INSERT
  8
6
  2
ARROW
 10
 25.000000
 20
-79.283333
 41
  0.666667
 42
  0.666667
 43
  0.666667
 50
   0.000
  0
TEXT
  8
6
 10
 11.166667
 20
-78.616669
 40
   1.333
  1
25
 50
   0.000
  0
TEXT
  8
6
 10
 25.000000
 20
  2.666667
 40
   1.333
  1
DIA:14
 50
   0.000
  0
ENDBLK
  8
2
  0
ENDSEC
  0
SECTION
  2
ENTITIES
  0
LINE
  6
CONTINUOUS
  8
5
 10
  0.000000
 20
  0.000000
 11
 193.33336
 21
  0.000000
  0
LINE
  6
CONTINUOUS
  8
5
 10
 193.33336
 20
  0.000000
 11
 193.33336
 21
 121.66667
  0
LINE
  6
CONTINUOUS
  8
5
 10
 193.33336
 20
 121.66667
 11
  0.000000
 21
 121.66667
  0
LINE
  6
CONTINUOUS
  8
5
 10
  0.000000
 20
 121.66667
 11
  0.000000
 21
  0.000000
  0
TEXT
  8
5
 10
  2.666667
 20
  1.333333
 40
   2.667
  1
YIELD:345.0
 50
   0.000
  0
TEXT
  8
5
 10
  2.666667
 20
  5.333333
 40
   2.667
  1
THICKNESS:5
 50
   0.000
  0
TEXT
  8
5
 10
  2.666667
 20
  9.333333
 40
   2.667
  1
QUANTITY:4
 50
   0.000
  0
TEXT
  8
5
 10
  2.666667
 20
 13.333333
 40
   2.667
  1
DRAWING:CLE2
 50
   0.000
  0
TEXT
  8
5
 10
  2.666667
 20
 17.333332
 40
   2.667
  1
MARK:CLE2
 50
   0.000
  0
TEXT
  8
5
 10
  2.666667
 20
 21.333332
 40
   2.667
  1
JOB:C323-153-Final
 50
   0.000
  0
INSERT
  8
2
  2
PLATE
 10
 59.166679
 20
 98.333336
 41
  1.000000
 42
  1.000000
 43
  1.000000
 50
   0.000
  0
ENDSEC
  0
EOF
