  0
SECTION
  2
HEADER
  9
$ACADVER
  1
AC1009
  9
$EXTMIN
 10
 -1916.443
 20
 -4545.167
  9
$EXTMAX
 10
 40245.281
 20
 27076.127
  9
$LIMMIN
 10
 -1916.443
 20
 -4545.167
  9
$LIMMAX
 10
 40245.281
 20
 27076.127
  9
$FILLMODE
 70
     1
  9
$HANDLING
 70
     0
  0
ENDSEC
  0
SECTION
  2
TABLES
  0
TABLE
  2
LTYPE
 70
1
  0
LTYPE
  2
CONTIN
 70
    64
  3
SOLID LINE
 72
    65
 73
     0
 40
0.0
  0
LTYPE
  2
CONTINUOUS
 70
    64
  3
SOLID LINE
 72
    65
 73
     0
 40
0.0
  0
LTYPE
  2
CENTER
 70
    64
  3
____ _ ____ _ ____ _ ____ _ ____ _ ____ _ ____
 72
    65
 73
     4
 40
     9.793
 49
     6.121
 49
    -1.224
 49
     1.224
 49
    -1.224
  0
LTYPE
  2
DASHED
 70
    64
  3
__ __ __ __ __ __ __ __ __ __ __ __ __ __ __ 
 72
    65
 73
     2
 40
   505.94
 49
   337.29
 49
  -168.64
  0
ENDTAB
  0
TABLE
  2
LAYER
 70
30
  0
LAYER
  2
0
 70
     0
 62
     7
  6
CONTIN
  0
LAYER
  2
1
 70
     0
 62
     7
  6
CONTIN
  0
LAYER
  2
2
 70
     0
 62
     7
  6
CONTIN
  0
LAYER
  2
3
 70
     0
 62
     7
  6
CONTIN
  0
LAYER
  2
4
 70
     0
 62
     5
  6
CONTIN
  0
LAYER
  2
5
 70
     0
 62
     5
  6
DASHED
  0
LAYER
  2
6
 70
     0
 62
     5
  6
DASHED
  0
LAYER
  2
7
 70
     0
 62
     5
  6
CONTIN
  0
LAYER
  2
8
 70
     0
 62
     5
  6
DASHED
  0
LAYER
  2
9
 70
     0
 62
     7
  6
CONTIN
  0
LAYER
  2
10
 70
     0
 62
     7
  6
CONTIN
  0
LAYER
  2
11
 70
     0
 62
     6
  6
DASHED
  0
LAYER
  2
12
 70
     0
 62
     7
  6
DASHED
  0
LAYER
  2
13
 70
     0
 62
     5
  6
DASHED
  0
LAYER
  2
14
 70
     0
 62
     7
  6
CONTIN
  0
LAYER
  2
15
 70
     0
 62
     5
  6
CONTIN
  0
LAYER
  2
16
 70
     0
 62
     7
  6
CONTIN
  0
LAYER
  2
17
 70
     0
 62
     7
  6
CONTIN
  0
LAYER
  2
18
 70
     0
 62
     7
  6
CONTIN
  0
LAYER
  2
19
 70
     0
 62
     7
  6
CONTIN
  0
LAYER
  2
20
 70
     0
 62
     1
  6
CONTIN
  0
LAYER
  2
21
 70
     0
 62
     7
  6
CONTIN
  0
LAYER
  2
22
 70
     0
 62
     7
  6
DASHED
  0
LAYER
  2
23
 70
     0
 62
     7
  6
DASHED
  0
LAYER
  2
24
 70
     0
 62
     7
  6
CONTIN
  0
LAYER
  2
25
 70
     0
 62
     7
  6
CONTIN
  0
LAYER
  2
26
 70
     0
 62
     7
  6
CONTIN
  0
LAYER
  2
27
 70
     0
 62
     1
  6
CENTER
  0
LAYER
  2
28
 70
     0
 62
     7
  6
CONTIN
  0
LAYER
  2
29
 70
     0
 62
     3
  6
DASHED
  0
ENDTAB
  0
TABLE
  2
STYLE
 70
  0
  0
ENDTAB
  0
ENDSEC
  0
SECTION
  2
ENTITIES
  0
LINE
  8
8
 10
     0.000
 20
     0.000
 11
 36285.000
 21
     0.000
  0
LINE
  8
8
 10
     0.000
 20
     0.000
 11
     0.000
 21
 22470.000
  0
LINE
  8
8
 10
 36285.000
 20
     0.000
 11
 36285.000
 21
 22470.000
  0
LINE
  8
8
 10
     0.000
 20
 22470.000
 11
 36285.000
 21
 22470.000
  0
LINE
  8
23
 10
  6200.000
 20
     0.000
 11
  6200.000
 21
 22470.000
  0
LINE
  8
23
 10
 12190.000
 20
     0.000
 11
 12190.000
 21
 22470.000
  0
LINE
  8
23
 10
 18335.000
 20
     0.000
 11
 18335.000
 21
 22470.000
  0
LINE
  8
23
 10
 24035.000
 20
     0.000
 11
 24035.000
 21
 22470.000
  0
LINE
  8
23
 10
 30035.000
 20
     0.000
 11
 30035.000
 21
 22470.000
  0
LINE
  8
1
 10
 36285.000
 20
     0.000
 11
 38085.000
 21
     0.000
  0
TEXT
  8
16
 10
 37185.000
 20
    60.960
 40
   121.920
  1
EB-1
 50
     0.000
  0
LINE
  8
1
 10
 36285.000
 20
     0.000
 11
 30480.000
 21
     0.000
  0
TEXT
  8
16
 10
 33382.500
 20
    60.960
 40
   121.920
  1
EB-2
 50
     0.000
  0
LINE
  8
1
 10
 36285.000
 20
 11235.000
 11
 38085.000
 21
 11235.000
  0
TEXT
  8
16
 10
 37185.000
 20
 11295.960
 40
   121.920
  1
EB-3
 50
     0.000
  0
LINE
  8
1
 10
 36285.000
 20
 22470.000
 11
 38085.000
 21
 22470.000
  0
TEXT
  8
16
 10
 37185.000
 20
 22530.961
 40
   121.920
  1
EB-4
 50
     0.000
  0
LINE
  8
1
 10
 36285.000
 20
 22470.000
 11
 30480.000
 21
 22470.000
  0
TEXT
  8
16
 10
 33382.500
 20
 22530.961
 40
   121.920
  1
EB-2
 50
     0.000
  0
LINE
  8
8
 10
 36285.000
 20
     0.000
 11
 36285.000
 21
     0.000
  0
LINE
  8
8
 10
 36285.000
 20
 22470.000
 11
 36285.000
 21
 22470.000
  0
LINE
  8
8
 10
 38085.000
 20
     0.000
 11
 38085.000
 21
 22470.000
  0
LINE
  8
8
 10
 38085.000
 20
     0.000
 11
 36285.000
 21
     0.000
  0
LINE
  8
8
 10
 38085.000
 20
 22470.000
 11
 36285.000
 21
 22470.000
  0
TEXT
  8
21
 10
 38328.840
 20
 10869.240
 40
   121.920
  1
CANOPY1
 50
    90.000
  0
LINE
  8
0
 10
 -1916.443
 20
 -4545.167
 11
 40245.281
 21
 -4545.167
  0
LINE
  8
0
 10
 40245.281
 20
 -4545.167
 11
 40245.281
 21
 27076.127
  0
LINE
  8
0
 10
 40245.281
 20
 27076.127
 11
 -1916.443
 21
 27076.127
  0
LINE
  8
0
 10
 -1916.443
 20
 27076.127
 11
 -1916.443
 21
 -4545.167
  0
LINE
  8
0
 10
 -1916.443
 20
 -3501.664
 11
 40245.281
 21
 -3501.664
  0
TEXT
  8
0
 10
 12555.570
 20
 -4371.250
 40
   695.668
  1
Component Detailing
 50
     0.000
  0
TEXT
  8
0
 10
 -1568.609
 20
 -4371.250
 40
   695.668
  1
C323-153-Final
 50
     0.000
  0
TEXT
  8
0
 10
 32245.096
 20
 -4371.250
 40
   695.668
  1
11/AUG/2025
 50
     0.000
  0
ENDSEC
  0
EOF
