  0
SECTION
  2
HEADER
  9
$ACADVER
  1
AC1009
  9
$EXTMIN
 10
 -2793.529
 20
 -9584.594
  9
$EXTMAX
 10
 58664.078
 20
 36508.609
  9
$LIMMIN
 10
 -2793.529
 20
 -9584.594
  9
$LIMMAX
 10
 58664.078
 20
 36508.609
  9
$FILLMODE
 70
     1
  9
$HANDLING
 70
     0
  0
ENDSEC
  0
SECTION
  2
TABLES
  0
TABLE
  2
LTYPE
 70
1
  0
LTYPE
  2
CONTIN
 70
    64
  3
SOLID LINE
 72
    65
 73
     0
 40
0.0
  0
LTYPE
  2
CONTINUOUS
 70
    64
  3
SOLID LINE
 72
    65
 73
     0
 40
0.0
  0
LTYPE
  2
CENTER
 70
    64
  3
____ _ ____ _ ____ _ ____ _ ____ _ ____ _ ____
 72
    65
 73
     4
 40
     0.010
 49
     0.007
 49
    -0.001
 49
     0.001
 49
    -0.001
  0
LTYPE
  2
DASHED
 70
    64
  3
__ __ __ __ __ __ __ __ __ __ __ __ __ __ __ 
 72
    65
 73
     2
 40
   737.49
 49
   491.66
 49
  -245.83
  0
ENDTAB
  0
TABLE
  2
LAYER
 70
30
  0
LAYER
  2
0
 70
     0
 62
     7
  6
CONTIN
  0
LAYER
  2
1
 70
     0
 62
     7
  6
CONTIN
  0
LAYER
  2
2
 70
     0
 62
     7
  6
CONTIN
  0
LAYER
  2
3
 70
     0
 62
     7
  6
CONTIN
  0
LAYER
  2
4
 70
     0
 62
     5
  6
CONTIN
  0
LAYER
  2
5
 70
     0
 62
     5
  6
DASHED
  0
LAYER
  2
6
 70
     0
 62
     5
  6
DASHED
  0
LAYER
  2
7
 70
     0
 62
     5
  6
CONTIN
  0
LAYER
  2
8
 70
     0
 62
     5
  6
DASHED
  0
LAYER
  2
9
 70
     0
 62
     7
  6
CONTIN
  0
LAYER
  2
10
 70
     0
 62
     7
  6
CONTIN
  0
LAYER
  2
11
 70
     0
 62
     6
  6
DASHED
  0
LAYER
  2
12
 70
     0
 62
     7
  6
DASHED
  0
LAYER
  2
13
 70
     0
 62
     5
  6
DASHED
  0
LAYER
  2
14
 70
     0
 62
     7
  6
CONTIN
  0
LAYER
  2
15
 70
     0
 62
     5
  6
CONTIN
  0
LAYER
  2
16
 70
     0
 62
     7
  6
CONTIN
  0
LAYER
  2
17
 70
     0
 62
     7
  6
CONTIN
  0
LAYER
  2
18
 70
     0
 62
     7
  6
CONTIN
  0
LAYER
  2
19
 70
     0
 62
     7
  6
CONTIN
  0
LAYER
  2
20
 70
     0
 62
     1
  6
CONTIN
  0
LAYER
  2
21
 70
     0
 62
     7
  6
CONTIN
  0
LAYER
  2
22
 70
     0
 62
     7
  6
DASHED
  0
LAYER
  2
23
 70
     0
 62
     7
  6
DASHED
  0
LAYER
  2
24
 70
     0
 62
     7
  6
CONTIN
  0
LAYER
  2
25
 70
     0
 62
     7
  6
CONTIN
  0
LAYER
  2
26
 70
     0
 62
     7
  6
CONTIN
  0
LAYER
  2
27
 70
     0
 62
     1
  6
CENTER
  0
LAYER
  2
28
 70
     0
 62
     7
  6
CONTIN
  0
LAYER
  2
29
 70
     0
 62
     3
  6
DASHED
  0
ENDTAB
  0
TABLE
  2
STYLE
 70
  0
  0
ENDTAB
  0
ENDSEC
  0
SECTION
  2
ENTITIES
  0
LINE
  8
1
 10
     0.000
 20
     0.000
 11
     0.000
 21
  8420.000
  0
LINE
  8
1
 10
     0.000
 20
  8420.000
 11
 11235.000
 21
  9543.500
  0
LINE
  8
1
 10
 11235.000
 20
  9543.500
 11
 22470.000
 21
  8420.000
  0
LINE
  8
1
 10
 22470.000
 20
  8420.000
 11
 22470.000
 21
     0.000
  0
LINE
  8
22
 10
 54291.945
 20
 23080.516
 11
 31821.945
 21
 23080.516
  0
LINE
  8
22
 10
 54291.945
 20
 23080.516
 11
 55870.547
 21
 23762.715
  0
LINE
  8
22
 10
 31821.945
 20
 23080.516
 11
 33400.547
 21
 23762.715
  0
LINE
  8
22
 10
 55870.547
 20
 23762.715
 11
 33400.547
 21
 23762.715
  0
LINE
  8
22
 10
 43056.945
 20
 23080.516
 11
 44635.547
 21
 23762.715
  0
LINE
  8
22
 10
   267.310
 20
   145.999
 11
   267.310
 21
  8565.999
  0
LINE
  8
1
 10
   267.310
 20
  8565.999
 11
 11502.310
 21
  9689.499
  0
LINE
  8
1
 10
 11502.310
 20
  9689.499
 11
 22737.309
 21
  8565.999
  0
LINE
  8
1
 10
 22737.309
 20
  8565.999
 11
 22737.309
 21
   145.999
  0
LINE
  8
22
 10
  5437.400
 20
  2969.800
 11
  5437.400
 21
 11389.800
  0
LINE
  8
1
 10
  5437.400
 20
 11389.800
 11
 16672.400
 21
 12513.300
  0
LINE
  8
1
 10
 16672.400
 20
 12513.300
 11
 27907.400
 21
 11389.800
  0
LINE
  8
1
 10
 27907.400
 20
 11389.800
 11
 27907.400
 21
  2969.800
  0
LINE
  8
22
 10
 10690.630
 20
  5839.010
 11
 10690.630
 21
 14259.010
  0
LINE
  8
1
 10
 10690.630
 20
 14259.010
 11
 21925.629
 21
 15382.510
  0
LINE
  8
1
 10
 21925.629
 20
 15382.510
 11
 33160.629
 21
 14259.010
  0
LINE
  8
1
 10
 33160.629
 20
 14259.010
 11
 33160.629
 21
  5839.010
  0
LINE
  8
22
 10
 21078.695
 20
 11512.765
 11
 21078.695
 21
 19932.766
  0
LINE
  8
1
 10
 21078.695
 20
 19932.766
 11
 32313.695
 21
 21056.266
  0
LINE
  8
1
 10
 32313.695
 20
 21056.266
 11
 43548.695
 21
 19932.766
  0
LINE
  8
1
 10
 43548.695
 20
 19932.766
 11
 43548.695
 21
 11512.765
  0
LINE
  8
22
 10
 16079.795
 20
  8782.465
 11
 16079.795
 21
 17202.465
  0
LINE
  8
1
 10
 16079.795
 20
 17202.465
 11
 27314.795
 21
 18325.965
  0
LINE
  8
1
 10
 27314.795
 20
 18325.965
 11
 38549.797
 21
 17202.465
  0
LINE
  8
1
 10
 38549.797
 20
 17202.465
 11
 38549.797
 21
  8782.465
  0
LINE
  8
22
 10
 26340.693
 20
 14386.765
 11
 26340.693
 21
 22806.766
  0
LINE
  8
1
 10
 26340.693
 20
 22806.766
 11
 37575.695
 21
 23930.266
  0
LINE
  8
1
 10
 37575.695
 20
 23930.266
 11
 48810.695
 21
 22806.766
  0
LINE
  8
1
 10
 48810.695
 20
 22806.766
 11
 48810.695
 21
 14386.765
  0
LINE
  8
22
 10
 31554.633
 20
 17234.516
 11
 31554.633
 21
 25654.516
  0
LINE
  8
1
 10
 31554.633
 20
 25654.516
 11
 42789.633
 21
 26778.016
  0
LINE
  8
1
 10
 42789.633
 20
 26778.016
 11
 54024.633
 21
 25654.516
  0
LINE
  8
1
 10
 54024.633
 20
 25654.516
 11
 54024.633
 21
 17234.516
  0
LINE
  8
1
 10
     0.000
 20
  8420.000
 11
 31821.943
 21
 25800.516
  0
LINE
  8
1
 10
 11235.000
 20
  9543.500
 11
 43056.945
 21
 26924.016
  0
LINE
  8
1
 10
 22470.000
 20
  8420.000
 11
 54291.945
 21
 25800.516
  0
LINE
  8
22
 10
 31821.943
 20
 17380.516
 11
 31821.943
 21
 25800.516
  0
LINE
  8
1
 10
 31821.943
 20
 25800.516
 11
 43056.945
 21
 26924.016
  0
LINE
  8
1
 10
 43056.945
 20
 26924.016
 11
 54291.945
 21
 25800.516
  0
LINE
  8
1
 10
 54291.945
 20
 25800.516
 11
 54291.945
 21
 17380.516
  0
LINE
  8
1
 10
 11235.000
 20
     0.000
 11
 11235.000
 21
  9543.500
  0
LINE
  8
22
 10
 43056.945
 20
 17380.516
 11
 43056.945
 21
 26924.016
  0
LINE
  8
22
 10
 50923.945
 20
 17380.516
 11
 50923.945
 21
 21880.516
  0
LINE
  8
22
 10
 50923.945
 20
 21880.516
 11
 46423.945
 21
 21880.516
  0
LINE
  8
22
 10
 46423.945
 20
 17380.516
 11
 46423.945
 21
 21880.516
  0
LINE
  8
1
 10
     0.000
 20
  2500.000
 11
 11235.000
 21
  2500.000
  0
LINE
  8
1
 10
 11235.000
 20
  2500.000
 11
 22470.000
 21
  2500.000
  0
LINE
  8
1
 10
 22470.000
 20
  2500.000
 11
 27907.400
 21
  5469.800
  0
LINE
  8
1
 10
 27907.400
 20
  5469.800
 11
 33160.629
 21
  8339.010
  0
LINE
  8
1
 10
 33160.629
 20
  8339.010
 11
 38549.793
 21
 11282.465
  0
LINE
  8
1
 10
 38549.793
 20
 11282.465
 11
 43548.695
 21
 14012.765
  0
LINE
  8
1
 10
 43548.695
 20
 14012.765
 11
 48810.695
 21
 16886.766
  0
LINE
  8
1
 10
 48810.695
 20
 16886.766
 11
 54291.945
 21
 19880.516
  0
LINE
  8
22
 10
 54291.945
 20
 19880.516
 11
 50923.945
 21
 19880.516
  0
LINE
  8
22
 10
 46423.945
 20
 19880.516
 11
 43056.945
 21
 19880.516
  0
LINE
  8
22
 10
 43056.945
 20
 19880.516
 11
 31821.945
 21
 19880.516
  0
LINE
  8
22
 10
 31821.943
 20
 19880.516
 11
 26340.693
 21
 16886.766
  0
LINE
  8
22
 10
 26340.693
 20
 16886.766
 11
 21078.693
 21
 14012.766
  0
LINE
  8
22
 10
 21078.693
 20
 14012.766
 11
 16079.794
 21
 11282.466
  0
LINE
  8
22
 10
 16079.794
 20
 11282.466
 11
 10690.629
 21
  8339.011
  0
LINE
  8
22
 10
 10690.629
 20
  8339.011
 11
  5437.399
 21
  5469.801
  0
LINE
  8
22
 10
  5437.399
 20
  5469.801
 11
    -0.001
 21
  2500.000
  0
LINE
  8
1
 10
     0.000
 20
     0.000
 11
 22470.000
 21
     0.000
  0
LINE
  8
1
 10
 22470.000
 20
     0.000
 11
 54291.945
 21
 17380.516
  0
LINE
  8
22
 10
 54291.945
 20
 17380.516
 11
 50923.945
 21
 17380.516
  0
LINE
  8
22
 10
 46423.945
 20
 17380.516
 11
 31821.945
 21
 17380.516
  0
LINE
  8
22
 10
 31821.943
 20
 17380.516
 11
    -0.001
 21
     0.001
  0
LINE
  8
22
 10
 11235.000
 20
     0.000
 11
 11235.000
 21
  9543.500
  0
LINE
  8
22
 10
 43056.945
 20
 17380.516
 11
 43056.945
 21
 26924.016
  0
LINE
  8
0
 10
 -2793.529
 20
 -9584.594
 11
 58664.078
 21
 -9584.594
  0
LINE
  8
0
 10
 58664.078
 20
 -9584.594
 11
 58664.078
 21
 36508.609
  0
LINE
  8
0
 10
 58664.078
 20
 36508.609
 11
 -2793.529
 21
 36508.609
  0
LINE
  8
0
 10
 -2793.529
 20
 36508.609
 11
 -2793.529
 21
 -9584.594
  0
LINE
  8
0
 10
 -2793.529
 20
 -8063.518
 11
 58664.078
 21
 -8063.518
  0
TEXT
  8
0
 10
 20329.895
 20
 -9331.081
 40
  1014.050
  1
Building Layout
 50
     0.000
  0
TEXT
  8
0
 10
 -2286.504
 20
 -9331.081
 40
  1014.050
  1
C323-153-Final
 50
     0.000
  0
TEXT
  8
0
 10
 47002.496
 20
 -9331.081
 40
  1014.050
  1
12/AUG/2025
 50
     0.000
  0
ENDSEC
  0
EOF
