  0
SECTION
  2
HEADER
  9
$ACADVER
  1
AC1009
  9
$EXTMIN
 10
-49173.457
 20
 -105449.0
  9
$EXTMAX
 10
980324.688
 20
666674.688
  9
$LIMMIN
 10
-49173.457
 20
 -105449.0
  9
$LIMMAX
 10
980324.688
 20
666674.688
  9
$FILLMODE
 70
     1
  9
$HANDLING
 70
     0
  0
ENDSEC
  0
SECTION
  2
TABLES
  0
TABLE
  2
LTYPE
 70
1
  0
LTYPE
  2
CONTIN
 70
    64
  3
SOLID LINE
 72
    65
 73
     0
 40
0.0
  0
LTYPE
  2
CONTINUOUS
 70
    64
  3
SOLID LINE
 72
    65
 73
     0
 40
0.0
  0
LTYPE
  2
CENTER
 70
    64
  3
____ _ ____ _ ____ _ ____ _ ____ _ ____ _ ____
 72
    65
 73
     4
 40
     0.401
 49
     0.251
 49
    -0.050
 49
     0.050
 49
    -0.050
  0
LTYPE
  2
DASHED
 70
    64
  3
__ __ __ __ __ __ __ __ __ __ __ __ __ __ __ 
 72
    65
 73
     2
 40
 12353.97
 49
  8235.98
 49
 -4117.99
  0
ENDTAB
  0
TABLE
  2
LAYER
 70
30
  0
LAYER
  2
0
 70
     0
 62
     7
  6
CONTIN
  0
LAYER
  2
1
 70
     0
 62
     7
  6
CONTIN
  0
LAYER
  2
2
 70
     0
 62
     7
  6
CONTIN
  0
LAYER
  2
3
 70
     0
 62
     7
  6
CONTIN
  0
LAYER
  2
4
 70
     0
 62
     5
  6
CONTIN
  0
LAYER
  2
5
 70
     0
 62
     5
  6
DASHED
  0
LAYER
  2
6
 70
     0
 62
     5
  6
DASHED
  0
LAYER
  2
7
 70
     0
 62
     5
  6
CONTIN
  0
LAYER
  2
8
 70
     0
 62
     5
  6
DASHED
  0
LAYER
  2
9
 70
     0
 62
     7
  6
CONTIN
  0
LAYER
  2
10
 70
     0
 62
     7
  6
CONTIN
  0
LAYER
  2
11
 70
     0
 62
     6
  6
DASHED
  0
LAYER
  2
12
 70
     0
 62
     7
  6
DASHED
  0
LAYER
  2
13
 70
     0
 62
     5
  6
DASHED
  0
LAYER
  2
14
 70
     0
 62
     7
  6
CONTIN
  0
LAYER
  2
15
 70
     0
 62
     5
  6
CONTIN
  0
LAYER
  2
16
 70
     0
 62
     7
  6
CONTIN
  0
LAYER
  2
17
 70
     0
 62
     7
  6
CONTIN
  0
LAYER
  2
18
 70
     0
 62
     7
  6
CONTIN
  0
LAYER
  2
19
 70
     0
 62
     7
  6
CONTIN
  0
LAYER
  2
20
 70
     0
 62
     1
  6
CONTIN
  0
LAYER
  2
21
 70
     0
 62
     7
  6
CONTIN
  0
LAYER
  2
22
 70
     0
 62
     7
  6
DASHED
  0
LAYER
  2
23
 70
     0
 62
     7
  6
DASHED
  0
LAYER
  2
24
 70
     0
 62
     7
  6
CONTIN
  0
LAYER
  2
25
 70
     0
 62
     7
  6
CONTIN
  0
LAYER
  2
26
 70
     0
 62
     7
  6
CONTIN
  0
LAYER
  2
27
 70
     0
 62
     1
  6
CENTER
  0
LAYER
  2
28
 70
     0
 62
     7
  6
CONTIN
  0
LAYER
  2
29
 70
     0
 62
     3
  6
DASHED
  0
ENDTAB
  0
TABLE
  2
STYLE
 70
  0
  0
ENDTAB
  0
ENDSEC
  0
SECTION
  2
ENTITIES
  0
LINE
  8
2
 10
     0.000
 20
570738.000
 11
     0.000
 21
     0.000
  0
LINE
  8
2
 10
     0.000
 20
     0.000
 11
921639.000
 21
     0.000
  0
LINE
  8
2
 10
921639.000
 20
     0.000
 11
921639.000
 21
570738.000
  0
LINE
  8
2
 10
921639.000
 20
570738.000
 11
     0.000
 21
570738.000
  0
TEXT
  8
2
 10
 -2378.075
 20
282990.906
 40
  9512.300
  1
LEW
 50
  -270.000
  0
TEXT
  8
2
 10
451307.188
 20
-11890.375
 40
  9512.300
  1
FSW
 50
     0.000
  0
TEXT
  8
2
 10
933529.375
 20
297259.375
 40
  9512.300
  1
REW
 50
    90.000
  0
TEXT
  8
2
 10
451307.188
 20
573116.062
 40
  9512.300
  1
BSW
 50
     0.000
  0
LINE
  8
13
 10
 11176.000
 20
    12.700
 11
 11176.000
 21
570725.312
  0
TEXT
  8
2
 10
 23066.375
 20
114155.211
 40
  9512.300
  1
RF 1
 50
    90.000
  0
LINE
  8
13
 10
157480.000
 20
    12.700
 11
157480.000
 21
570725.312
  0
TEXT
  8
2
 10
155101.922
 20
114155.211
 40
  9512.300
  1
RF 2
 50
    90.000
  0
LINE
  8
13
 10
309626.000
 20
    12.700
 11
309626.000
 21
570725.312
  0
TEXT
  8
2
 10
307247.906
 20
114155.211
 40
  9512.300
  1
RF 2
 50
    90.000
  0
LINE
  8
13
 10
610489.000
 20
    12.700
 11
610489.000
 21
570725.312
  0
TEXT
  8
2
 10
608110.938
 20
114155.211
 40
  9512.300
  1
RF 2
 50
    90.000
  0
LINE
  8
13
 10
465709.000
 20
    12.700
 11
465709.000
 21
570725.312
  0
TEXT
  8
2
 10
463330.906
 20
114155.211
 40
  9512.300
  1
RF 3
 50
    90.000
  0
LINE
  8
13
 10
762889.000
 20
    12.700
 11
762889.000
 21
570725.312
  0
TEXT
  8
2
 10
760510.938
 20
114155.211
 40
  9512.300
  1
RF 4
 50
    90.000
  0
LINE
  8
13
 10
910463.000
 20
    12.700
 11
910463.000
 21
570725.312
  0
TEXT
  8
2
 10
908084.938
 20
114155.211
 40
  9512.300
  1
RF 5
 50
    90.000
  0
LINE
  8
0
 10
-49173.457
 20
 -105449.0
 11
980324.688
 21
 -105449.0
  0
LINE
  8
0
 10
980324.688
 20
 -105449.0
 11
980324.688
 21
666674.688
  0
LINE
  8
0
 10
980324.688
 20
666674.688
 11
-49173.457
 21
666674.688
  0
LINE
  8
0
 10
-49173.457
 20
666674.688
 11
-49173.457
 21
 -105449.0
  0
LINE
  8
0
 10
-49173.457
 20
-79968.906
 11
980324.688
 21
-79968.906
  0
TEXT
  8
0
 10
363655.312
 20
 -101202.3
 40
 16986.721
  1
Frame Layout
 50
     0.000
  0
TEXT
  8
0
 10
-40680.098
 20
 -101202.3
 40
 16986.721
  1
C323-153-Final
 50
     0.000
  0
TEXT
  8
0
 10
784977.438
 20
 -101202.3
 40
 16986.721
  1
12/AUG/2025
 50
     0.000
  0
ENDSEC
  0
EOF
