  0
SECTION
  2
HEADER
  9
$ACADVER
  1
AC1009
  9
$EXTMIN
 10
 -1385.124
 20
 -4616.584
  9
$EXTMAX
 10
 23855.125
 20
 14313.603
  9
$LIMMIN
 10
 -1385.124
 20
 -4616.584
  9
$LIMMAX
 10
 23855.125
 20
 14313.603
  9
$FILLMODE
 70
     1
  9
$HANDLING
 70
     0
  0
ENDSEC
  0
SECTION
  2
TABLES
  0
TABLE
  2
LTYPE
 70
1
  0
LTYPE
  2
CONTIN
 70
    64
  3
SOLID LINE
 72
    65
 73
     0
 40
0.0
  0
LTYPE
  2
CONTINUOUS
 70
    64
  3
SOLID LINE
 72
    65
 73
     0
 40
0.0
  0
LTYPE
  2
CENTER
 70
    64
  3
____ _ ____ _ ____ _ ____ _ ____ _ ____ _ ____
 72
    65
 73
     4
 40
  2355.680
 49
  1472.300
 49
  -294.460
 49
   294.460
 49
  -294.460
  0
LTYPE
  2
DASHED
 70
    64
  3
__ __ __ __ __ __ __ __ __ __ __ __ __ __ __ 
 72
    65
 73
     2
 40
   302.88
 49
   201.92
 49
  -100.96
  0
ENDTAB
  0
TABLE
  2
LAYER
 70
30
  0
LAYER
  2
0
 70
     0
 62
     7
  6
CONTIN
  0
LAYER
  2
1
 70
     0
 62
     7
  6
CONTIN
  0
LAYER
  2
2
 70
     0
 62
     7
  6
CONTIN
  0
LAYER
  2
3
 70
     0
 62
     7
  6
CONTIN
  0
LAYER
  2
4
 70
     0
 62
     5
  6
CONTIN
  0
LAYER
  2
5
 70
     0
 62
     5
  6
DASHED
  0
LAYER
  2
6
 70
     0
 62
     5
  6
DASHED
  0
LAYER
  2
7
 70
     0
 62
     5
  6
CONTIN
  0
LAYER
  2
8
 70
     0
 62
     5
  6
DASHED
  0
LAYER
  2
9
 70
     0
 62
     7
  6
CONTIN
  0
LAYER
  2
10
 70
     0
 62
     7
  6
CONTIN
  0
LAYER
  2
11
 70
     0
 62
     6
  6
DASHED
  0
LAYER
  2
12
 70
     0
 62
     7
  6
DASHED
  0
LAYER
  2
13
 70
     0
 62
     5
  6
DASHED
  0
LAYER
  2
14
 70
     0
 62
     7
  6
CONTIN
  0
LAYER
  2
15
 70
     0
 62
     5
  6
CONTIN
  0
LAYER
  2
16
 70
     0
 62
     7
  6
CONTIN
  0
LAYER
  2
17
 70
     0
 62
     7
  6
CONTIN
  0
LAYER
  2
18
 70
     0
 62
     7
  6
CONTIN
  0
LAYER
  2
19
 70
     0
 62
     7
  6
CONTIN
  0
LAYER
  2
20
 70
     0
 62
     1
  6
CONTIN
  0
LAYER
  2
21
 70
     0
 62
     7
  6
CONTIN
  0
LAYER
  2
22
 70
     0
 62
     7
  6
DASHED
  0
LAYER
  2
23
 70
     0
 62
     7
  6
DASHED
  0
LAYER
  2
24
 70
     0
 62
     7
  6
CONTIN
  0
LAYER
  2
25
 70
     0
 62
     7
  6
CONTIN
  0
LAYER
  2
26
 70
     0
 62
     7
  6
CONTIN
  0
LAYER
  2
27
 70
     0
 62
     1
  6
CENTER
  0
LAYER
  2
28
 70
     0
 62
     7
  6
CONTIN
  0
LAYER
  2
29
 70
     0
 62
     3
  6
DASHED
  0
ENDTAB
  0
TABLE
  2
STYLE
 70
  0
  0
ENDTAB
  0
ENDSEC
  0
SECTION
  2
ENTITIES
  0
LINE
  8
1
 10
   236.000
 20
     0.000
 11
   636.000
 21
     0.000
  0
LINE
  8
1
 10
   236.000
 20
     0.000
 11
   236.000
 21
  8287.827
  0
LINE
  8
1
 10
   636.000
 20
     0.000
 11
   936.001
 21
  4000.000
  0
LINE
  8
1
 10
   936.001
 20
  4000.000
 11
   936.000
 21
  7955.832
  0
LINE
  8
1
 10
   236.000
 20
  8287.827
 11
 11235.000
 21
  9387.728
  0
LINE
  8
1
 10
   936.000
 20
  7955.832
 11
  4721.949
 21
  8434.926
  0
LINE
  8
1
 10
  4721.949
 20
  8434.926
 11
  8602.594
 21
  8822.990
  0
LINE
  8
1
 10
  8602.594
 20
  8822.990
 11
 11235.000
 21
  8834.984
  0
LINE
  8
1
 10
 11235.000
 20
  9387.728
 11
 22234.000
 21
  8287.827
  0
LINE
  8
1
 10
 11235.000
 20
  8834.984
 11
 13867.370
 21
  8822.994
  0
LINE
  8
1
 10
 13867.370
 20
  8822.994
 11
 17748.016
 21
  8434.929
  0
LINE
  8
1
 10
 17748.016
 20
  8434.929
 11
 21534.002
 21
  7955.832
  0
LINE
  8
1
 10
 22234.000
 20
  8287.827
 11
 22234.000
 21
     0.000
  0
LINE
  8
1
 10
 21534.002
 20
  7955.832
 11
 21534.002
 21
  4000.000
  0
LINE
  8
1
 10
 21534.002
 20
  4000.000
 11
 21834.002
 21
     0.000
  0
LINE
  8
1
 10
   236.000
 20
     0.000
 11
   636.000
 21
     0.000
  0
LINE
  8
1
 10
 22234.000
 20
     0.000
 11
 21834.002
 21
     0.000
  0
TEXT
  8
16
 10
  -237.839
 20
  2000.000
 40
   121.920
  1
M1
 50
     0.000
  0
TEXT
  8
16
 10
  -237.839
 20
  6143.914
 40
   121.920
  1
M2
 50
     0.000
  0
TEXT
  8
16
 10
  2424.860
 20
  8902.518
 40
   121.920
  1
M3
 50
     0.000
  0
TEXT
  8
16
 10
  6593.231
 20
  9319.354
 40
   121.920
  1
M4
 50
     0.000
  0
TEXT
  8
16
 10
  9864.683
 20
  9646.500
 40
   121.920
  1
M5
 50
     0.000
  0
TEXT
  8
16
 10
 12605.300
 20
  9646.502
 40
   121.920
  1
M6
 50
     0.000
  0
TEXT
  8
16
 10
 15876.732
 20
  9319.358
 40
   121.920
  1
M7
 50
     0.000
  0
TEXT
  8
16
 10
 20045.123
 20
  8902.519
 40
   121.920
  1
M8
 50
     0.000
  0
TEXT
  8
16
 10
 22707.842
 20
  6143.914
 40
   121.920
  1
M9
 50
     0.000
  0
TEXT
  8
16
 10
 22707.842
 20
  2000.000
 40
   121.920
  1
M10
 50
     0.000
  0
TEXT
  8
16
 10
  1029.841
 20
  2000.000
 40
   121.920
  1
S1
 50
     0.000
  0
TEXT
  8
16
 10
  1179.841
 20
  5977.916
 40
   121.920
  1
S2
 50
     0.000
  0
TEXT
  8
16
 10
  2853.237
 20
  7952.749
 40
   121.920
  1
S3
 50
     0.000
  0
TEXT
  8
16
 10
  6686.535
 20
  8386.328
 40
   121.920
  1
S4
 50
     0.000
  0
TEXT
  8
16
 10
  9943.061
 20
  8586.357
 40
   121.920
  1
S5
 50
     0.000
  0
TEXT
  8
16
 10
 12526.922
 20
  8586.359
 40
   121.920
  1
S6
 50
     0.000
  0
TEXT
  8
16
 10
 15783.430
 20
  8386.331
 40
   121.920
  1
S7
 50
     0.000
  0
TEXT
  8
16
 10
 19616.746
 20
  7952.751
 40
   121.920
  1
S8
 50
     0.000
  0
TEXT
  8
16
 10
 21143.857
 20
  5977.916
 40
   121.920
  1
S9
 50
     0.000
  0
TEXT
  8
16
 10
 21293.857
 20
  2000.000
 40
   121.920
  1
S10
 50
     0.000
  0
LINE
  8
9
 10
   236.000
 20
  7955.832
 11
   936.000
 21
  7955.832
  0
LINE
  8
9
 10
   236.000
 20
  7925.352
 11
   236.000
 21
  7986.312
  0
LINE
  8
9
 10
   936.000
 20
  7925.352
 11
   936.000
 21
  7986.312
  0
LINE
  8
9
 10
   936.000
 20
  7925.352
 11
   236.000
 21
  7925.352
  0
LINE
  8
9
 10
   936.000
 20
  7986.312
 11
   236.000
 21
  7986.312
  0
TEXT
  8
16
 10
   954.197
 20
  7772.952
 40
   121.920
  1
SP1
 50
     0.000
  0
LINE
  8
9
 10
  4692.098
 20
  8733.437
 11
  4721.949
 21
  8434.926
  0
LINE
  8
9
 10
  4661.770
 20
  8730.404
 11
  4722.427
 21
  8736.470
  0
LINE
  8
9
 10
  4691.621
 20
  8431.893
 11
  4752.278
 21
  8437.958
  0
LINE
  8
9
 10
  4691.621
 20
  8431.893
 11
  4661.770
 21
  8730.404
  0
LINE
  8
9
 10
  4752.278
 20
  8437.958
 11
  4722.427
 21
  8736.470
  0
TEXT
  8
16
 10
  4740.146
 20
  8252.045
 40
   121.920
  1
SP2
 50
     0.000
  0
LINE
  8
9
 10
  8572.742
 20
  9121.502
 11
  8602.594
 21
  8822.990
  0
LINE
  8
9
 10
  8542.414
 20
  9118.469
 11
  8603.071
 21
  9124.534
  0
LINE
  8
9
 10
  8572.265
 20
  8819.957
 11
  8632.923
 21
  8826.023
  0
LINE
  8
9
 10
  8572.265
 20
  8819.957
 11
  8542.414
 21
  9118.469
  0
LINE
  8
9
 10
  8632.923
 20
  8826.023
 11
  8603.071
 21
  9124.534
  0
TEXT
  8
16
 10
  8620.791
 20
  8640.110
 40
   121.920
  1
SP3
 50
     0.000
  0
LINE
  8
9
 10
 13897.222
 20
  9121.505
 11
 13867.370
 21
  8822.994
  0
LINE
  8
9
 10
 13866.894
 20
  9124.538
 11
 13927.551
 21
  9118.472
  0
LINE
  8
9
 10
 13837.042
 20
  8826.026
 11
 13897.699
 21
  8819.961
  0
LINE
  8
9
 10
 13837.042
 20
  8826.026
 11
 13866.894
 21
  9124.538
  0
LINE
  8
9
 10
 13897.699
 20
  8819.961
 11
 13927.551
 21
  9118.472
  0
TEXT
  8
16
 10
 13849.173
 20
  8640.113
 40
   121.920
  1
SP4
 50
     0.000
  0
LINE
  8
9
 10
 17777.867
 20
  8733.440
 11
 17748.016
 21
  8434.929
  0
LINE
  8
9
 10
 17747.539
 20
  8736.474
 11
 17808.195
 21
  8730.407
  0
LINE
  8
9
 10
 17717.686
 20
  8437.962
 11
 17778.344
 21
  8431.896
  0
LINE
  8
9
 10
 17717.686
 20
  8437.962
 11
 17747.539
 21
  8736.474
  0
LINE
  8
9
 10
 17778.344
 20
  8431.896
 11
 17808.195
 21
  8730.407
  0
TEXT
  8
16
 10
 17729.816
 20
  8252.049
 40
   121.920
  1
SP5
 50
     0.000
  0
LINE
  8
9
 10
 22234.000
 20
  7955.832
 11
 21534.002
 21
  7955.832
  0
LINE
  8
9
 10
 22234.000
 20
  7986.312
 11
 22234.000
 21
  7925.352
  0
LINE
  8
9
 10
 21534.002
 20
  7986.312
 11
 21534.002
 21
  7925.352
  0
LINE
  8
9
 10
 21534.002
 20
  7986.312
 11
 22234.000
 21
  7986.312
  0
LINE
  8
9
 10
 21534.002
 20
  7925.352
 11
 22234.000
 21
  7925.352
  0
TEXT
  8
16
 10
 21168.242
 20
  7772.952
 40
   121.920
  1
SP6
 50
     0.000
  0
LINE
  8
1
 10
 11160.000
 20
     0.000
 11
 11160.002
 21
  8834.643
  0
LINE
  8
1
 10
 11310.000
 20
     0.000
 11
 11310.002
 21
  8834.643
  0
TEXT
  8
16
 10
 11356.920
 20
  4417.492
 40
   121.920
  1
C1
 50
     1.000
  0
LINE
  8
9
 10
   236.000
 20
     0.000
 11
   636.000
 21
     0.000
  0
LINE
  8
9
 10
   236.000
 20
    30.480
 11
   636.000
 21
    30.480
  0
LINE
  8
9
 10
   236.000
 20
     0.000
 11
   236.000
 21
    30.480
  0
LINE
  8
9
 10
   636.000
 20
     0.000
 11
   636.000
 21
    30.480
  0
LINE
  8
9
 10
 22234.000
 20
     0.000
 11
 21834.002
 21
     0.000
  0
LINE
  8
9
 10
 22234.000
 20
    30.480
 11
 21834.002
 21
    30.480
  0
LINE
  8
9
 10
 22234.000
 20
     0.000
 11
 22234.000
 21
    30.480
  0
LINE
  8
9
 10
 21834.002
 20
     0.000
 11
 21834.002
 21
    30.480
  0
LINE
  8
9
 10
 11160.000
 20
     0.000
 11
 11310.000
 21
     0.000
  0
LINE
  8
9
 10
 11160.000
 20
    30.480
 11
 11310.000
 21
    30.480
  0
LINE
  8
9
 10
 11160.000
 20
     0.000
 11
 11160.000
 21
    30.480
  0
LINE
  8
9
 10
 11310.000
 20
     0.000
 11
 11310.000
 21
    30.480
  0
LINE
  8
9
 10
 11160.002
 20
  8834.643
 11
 11310.002
 21
  8834.643
  0
LINE
  8
5
 10
    30.001
 20
  2580.000
 11
   230.001
 21
  2580.000
  0
LINE
  8
5
 10
    30.001
 20
  3580.000
 11
   230.001
 21
  3580.000
  0
LINE
  8
3
 10
    30.001
 20
  3580.000
 11
  -144.216
 21
  3680.584
  0
LINE
  8
3
 10
    30.001
 20
  3580.000
 11
  -144.225
 21
  3479.433
  0
LINE
  8
3
 10
  -144.216
 20
  3680.584
 11
  -144.225
 21
  3479.433
  0
LINE
  8
5
 10
    30.001
 20
  4580.000
 11
   230.001
 21
  4580.000
  0
LINE
  8
5
 10
    30.002
 20
  5780.000
 11
   230.002
 21
  5780.000
  0
LINE
  8
5
 10
    30.002
 20
  7280.000
 11
   230.002
 21
  7280.000
  0
LINE
  8
5
 10
 22440.000
 20
  2580.000
 11
 22240.000
 21
  2580.000
  0
LINE
  8
5
 10
 22440.000
 20
  3580.000
 11
 22240.000
 21
  3580.000
  0
LINE
  8
3
 10
 22440.000
 20
  3580.000
 11
 22614.217
 21
  3479.417
  0
LINE
  8
3
 10
 22440.000
 20
  3580.000
 11
 22614.227
 21
  3680.567
  0
LINE
  8
3
 10
 22614.217
 20
  3479.417
 11
 22614.227
 21
  3680.567
  0
LINE
  8
5
 10
 22439.996
 20
  4580.000
 11
 22239.998
 21
  4580.000
  0
LINE
  8
5
 10
 22439.996
 20
  5780.000
 11
 22239.998
 21
  5780.000
  0
LINE
  8
5
 10
 22439.996
 20
  7280.000
 11
 22239.998
 21
  7280.000
  0
LINE
  8
5
 10
  1367.082
 20
  8556.708
 11
  1387.301
 21
  8354.517
  0
LINE
  8
3
 10
  1367.082
 20
  8556.708
 11
  1449.831
 21
  8740.069
  0
LINE
  8
3
 10
  1367.082
 20
  8556.708
 11
  1249.677
 21
  8720.062
  0
LINE
  8
3
 10
  1449.831
 20
  8740.069
 11
  1249.677
 21
  8720.062
  0
LINE
  8
5
 10
  2734.164
 20
  8693.417
 11
  2754.383
 21
  8491.225
  0
LINE
  8
5
 10
  4101.146
 20
  8830.114
 11
  4121.365
 21
  8627.923
  0
LINE
  8
3
 10
  4101.146
 20
  8830.114
 11
  4183.895
 21
  9013.476
  0
LINE
  8
3
 10
  4101.146
 20
  8830.114
 11
  3983.741
 21
  8993.470
  0
LINE
  8
3
 10
  4183.895
 20
  9013.476
 11
  3983.741
 21
  8993.470
  0
LINE
  8
5
 10
  5468.227
 20
  8966.822
 11
  5488.446
 21
  8764.631
  0
LINE
  8
5
 10
  6835.309
 20
  9103.531
 11
  6855.528
 21
  8901.340
  0
LINE
  8
3
 10
  6835.309
 20
  9103.531
 11
  6918.058
 21
  9286.892
  0
LINE
  8
3
 10
  6835.309
 20
  9103.531
 11
  6717.904
 21
  9266.886
  0
LINE
  8
3
 10
  6918.058
 20
  9286.892
 11
  6717.904
 21
  9266.886
  0
LINE
  8
5
 10
  8202.391
 20
  9240.239
 11
  8222.609
 21
  9038.048
  0
LINE
  8
5
 10
  9569.472
 20
  9376.947
 11
  9589.691
 21
  9174.756
  0
LINE
  8
3
 10
  9569.472
 20
  9376.947
 11
  9652.221
 21
  9560.309
  0
LINE
  8
3
 10
  9569.472
 20
  9376.947
 11
  9452.067
 21
  9540.302
  0
LINE
  8
3
 10
  9652.221
 20
  9560.309
 11
  9452.067
 21
  9540.302
  0
LINE
  8
5
 10
 10936.453
 20
  9513.646
 11
 10956.673
 21
  9311.454
  0
LINE
  8
3
 10
 10936.453
 20
  9513.646
 11
 11019.202
 21
  9697.007
  0
LINE
  8
3
 10
 10936.453
 20
  9513.646
 11
 10819.049
 21
  9677.000
  0
LINE
  8
3
 10
 11019.202
 20
  9697.007
 11
 10819.049
 21
  9677.000
  0
LINE
  8
5
 10
 11533.511
 20
  9513.649
 11
 11513.291
 21
  9311.457
  0
LINE
  8
3
 10
 11533.511
 20
  9513.649
 11
 11650.931
 21
  9676.992
  0
LINE
  8
3
 10
 11533.511
 20
  9513.649
 11
 11450.778
 21
  9697.018
  0
LINE
  8
3
 10
 11650.931
 20
  9676.992
 11
 11450.778
 21
  9697.018
  0
LINE
  8
5
 10
 12900.592
 20
  9376.941
 11
 12880.373
 21
  9174.749
  0
LINE
  8
3
 10
 12900.592
 20
  9376.941
 11
 13018.012
 21
  9540.285
  0
LINE
  8
3
 10
 12900.592
 20
  9376.941
 11
 12817.860
 21
  9560.310
  0
LINE
  8
3
 10
 13018.012
 20
  9540.285
 11
 12817.860
 21
  9560.310
  0
LINE
  8
5
 10
 14267.674
 20
  9240.232
 11
 14247.454
 21
  9038.041
  0
LINE
  8
5
 10
 15634.656
 20
  9103.534
 11
 15614.437
 21
  8901.343
  0
LINE
  8
3
 10
 15634.656
 20
  9103.534
 11
 15752.076
 21
  9266.878
  0
LINE
  8
3
 10
 15634.656
 20
  9103.534
 11
 15551.925
 21
  9286.903
  0
LINE
  8
3
 10
 15752.076
 20
  9266.878
 11
 15551.925
 21
  9286.903
  0
LINE
  8
5
 10
 17001.738
 20
  8966.826
 11
 16981.520
 21
  8764.635
  0
LINE
  8
5
 10
 18368.820
 20
  8830.118
 11
 18348.600
 21
  8627.927
  0
LINE
  8
3
 10
 18368.820
 20
  8830.118
 11
 18486.240
 21
  8993.462
  0
LINE
  8
3
 10
 18368.820
 20
  8830.118
 11
 18286.088
 21
  9013.486
  0
LINE
  8
3
 10
 18486.240
 20
  8993.462
 11
 18286.088
 21
  9013.486
  0
LINE
  8
5
 10
 19735.902
 20
  8693.410
 11
 19715.682
 21
  8491.219
  0
LINE
  8
5
 10
 21102.982
 20
  8556.702
 11
 21082.764
 21
  8354.510
  0
LINE
  8
3
 10
 21102.982
 20
  8556.702
 11
 21220.404
 21
  8720.045
  0
LINE
  8
3
 10
 21102.982
 20
  8556.702
 11
 21020.252
 21
  8740.070
  0
LINE
  8
3
 10
 21220.404
 20
  8720.045
 11
 21020.252
 21
  8740.070
  0
LINE
  8
8
 10
     0.000
 20
     0.000
 11
     0.000
 21
  8420.000
  0
LINE
  8
8
 10
     0.000
 20
  8420.000
 11
 11235.000
 21
  9543.500
  0
LINE
  8
8
 10
 11235.000
 20
  9543.500
 11
 22470.000
 21
  8420.000
  0
LINE
  8
8
 10
 22470.000
 20
  8420.000
 11
 22470.000
 21
     0.000
  0
LINE
  8
10
 10
   936.000
 20
  7955.832
 11
   936.000
 21
  8317.627
  0
LINE
  8
10
 10
 21534.002
 20
  7955.832
 11
 21534.002
 21
  8317.627
  0
LINE
  8
10
 10
 11235.002
 20
  8834.984
 11
 11235.002
 21
  9332.453
  0
LINE
  8
10
 10
  1606.200
 20
  5834.000
 11
   942.002
 21
  5834.000
  0
LINE
  8
10
 10
  1606.200
 20
  5834.000
 11
  1606.200
 21
  5630.800
  0
LINE
  8
10
 10
  1606.200
 20
  5630.800
 11
   942.002
 21
  5630.800
  0
LINE
  8
8
 10
  1530.000
 20
  6174.600
 11
  1530.000
 21
  5834.000
  0
LINE
  8
8
 10
  1630.000
 20
  6174.600
 11
  1430.000
 21
  6174.600
  0
LINE
  8
8
 10
  1530.000
 20
  6200.000
 11
 20940.000
 21
  6200.000
  0
LINE
  8
8
 10
 20940.000
 20
  6200.000
 11
 20940.000
 21
  6200.000
  0
LINE
  8
8
 10
 20940.000
 20
  6200.000
 11
  1530.000
 21
  6200.000
  0
LINE
  8
8
 10
  1530.000
 20
  6200.000
 11
  1530.000
 21
  6200.000
  0
TEXT
  8
21
 10
 10930.200
 20
  6017.120
 40
   121.920
  1
Crane
 50
     0.000
  0
LINE
  8
10
 10
 20863.801
 20
  5834.000
 11
 21528.002
 21
  5834.000
  0
LINE
  8
10
 10
 20863.801
 20
  5834.000
 11
 20863.801
 21
  5630.800
  0
LINE
  8
10
 10
 20863.801
 20
  5630.800
 11
 21528.002
 21
  5630.800
  0
LINE
  8
8
 10
 20940.000
 20
  6174.600
 11
 20940.000
 21
  5834.000
  0
LINE
  8
8
 10
 21040.000
 20
  6174.600
 11
 20840.000
 21
  6174.600
  0
LINE
  8
8
 10
  1530.000
 20
  6200.000
 11
 20940.000
 21
  6200.000
  0
LINE
  8
8
 10
 20940.000
 20
  6200.000
 11
 20940.000
 21
  6200.000
  0
LINE
  8
8
 10
 20940.000
 20
  6200.000
 11
  1530.000
 21
  6200.000
  0
LINE
  8
8
 10
  1530.000
 20
  6200.000
 11
  1530.000
 21
  6200.000
  0
TEXT
  8
21
 10
 10930.200
 20
  6017.120
 40
   121.920
  1
Crane
 50
     0.000
  0
LINE
  8
0
 10
 -1385.124
 20
 -4616.584
 11
 23855.125
 21
 -4616.584
  0
LINE
  8
0
 10
 23855.125
 20
 -4616.584
 11
 23855.125
 21
 14313.603
  0
LINE
  8
0
 10
 23855.125
 20
 14313.603
 11
 -1385.124
 21
 14313.603
  0
LINE
  8
0
 10
 -1385.124
 20
 14313.603
 11
 -1385.124
 21
 -4616.584
  0
LINE
  8
0
 10
 -1385.124
 20
 -3991.888
 11
 23855.125
 21
 -3991.888
  0
TEXT
  8
0
 10
  7070.358
 20
 -4512.469
 40
   416.464
  1
Rigid Frame 1 Design
 50
     0.000
  0
TEXT
  8
0
 10
 -1176.891
 20
 -4512.469
 40
   416.464
  1
C323-153-Final
 50
     0.000
  0
TEXT
  8
0
 10
 19065.787
 20
 -4512.469
 40
   416.464
  1
11/AUG/2025
 50
     0.000
  0
ENDSEC
  0
EOF
