  0
SECTION
  2
HEADER
  9
$ACADVER
  1
AC1009
  9
$EXTMIN
 10
 -1402.900
 20
 -4643.333
  9
$EXTMAX
 10
 23872.900
 20
 14313.517
  9
$LIMMIN
 10
 -1402.900
 20
 -4643.333
  9
$LIMMAX
 10
 23872.900
 20
 14313.517
  9
$FILLMODE
 70
     1
  9
$HANDLING
 70
     0
  0
ENDSEC
  0
SECTION
  2
TABLES
  0
TABLE
  2
LTYPE
 70
1
  0
LTYPE
  2
CONTIN
 70
    64
  3
SOLID LINE
 72
    65
 73
     0
 40
0.0
  0
LTYPE
  2
CONTINUOUS
 70
    64
  3
SOLID LINE
 72
    65
 73
     0
 40
0.0
  0
LTYPE
  2
CENTER
 70
    64
  3
____ _ ____ _ ____ _ ____ _ ____ _ ____ _ ____
 72
    65
 73
     4
 40
    16.336
 49
    10.210
 49
    -2.042
 49
     2.042
 49
    -2.042
  0
LTYPE
  2
DASHED
 70
    64
  3
__ __ __ __ __ __ __ __ __ __ __ __ __ __ __ 
 72
    65
 73
     2
 40
   303.31
 49
   202.20
 49
  -101.10
  0
ENDTAB
  0
TABLE
  2
LAYER
 70
30
  0
LAYER
  2
0
 70
     0
 62
     7
  6
CONTIN
  0
LAYER
  2
1
 70
     0
 62
     7
  6
CONTIN
  0
LAYER
  2
2
 70
     0
 62
     7
  6
CONTIN
  0
LAYER
  2
3
 70
     0
 62
     7
  6
CONTIN
  0
LAYER
  2
4
 70
     0
 62
     5
  6
CONTIN
  0
LAYER
  2
5
 70
     0
 62
     5
  6
DASHED
  0
LAYER
  2
6
 70
     0
 62
     5
  6
DASHED
  0
LAYER
  2
7
 70
     0
 62
     5
  6
CONTIN
  0
LAYER
  2
8
 70
     0
 62
     5
  6
DASHED
  0
LAYER
  2
9
 70
     0
 62
     7
  6
CONTIN
  0
LAYER
  2
10
 70
     0
 62
     7
  6
CONTIN
  0
LAYER
  2
11
 70
     0
 62
     6
  6
DASHED
  0
LAYER
  2
12
 70
     0
 62
     7
  6
DASHED
  0
LAYER
  2
13
 70
     0
 62
     5
  6
DASHED
  0
LAYER
  2
14
 70
     0
 62
     7
  6
CONTIN
  0
LAYER
  2
15
 70
     0
 62
     5
  6
CONTIN
  0
LAYER
  2
16
 70
     0
 62
     7
  6
CONTIN
  0
LAYER
  2
17
 70
     0
 62
     7
  6
CONTIN
  0
LAYER
  2
18
 70
     0
 62
     7
  6
CONTIN
  0
LAYER
  2
19
 70
     0
 62
     7
  6
CONTIN
  0
LAYER
  2
20
 70
     0
 62
     1
  6
CONTIN
  0
LAYER
  2
21
 70
     0
 62
     7
  6
CONTIN
  0
LAYER
  2
22
 70
     0
 62
     7
  6
DASHED
  0
LAYER
  2
23
 70
     0
 62
     7
  6
DASHED
  0
LAYER
  2
24
 70
     0
 62
     7
  6
CONTIN
  0
LAYER
  2
25
 70
     0
 62
     7
  6
CONTIN
  0
LAYER
  2
26
 70
     0
 62
     7
  6
CONTIN
  0
LAYER
  2
27
 70
     0
 62
     1
  6
CENTER
  0
LAYER
  2
28
 70
     0
 62
     7
  6
CONTIN
  0
LAYER
  2
29
 70
     0
 62
     3
  6
DASHED
  0
ENDTAB
  0
TABLE
  2
STYLE
 70
  0
  0
ENDTAB
  0
ENDSEC
  0
SECTION
  2
ENTITIES
  0
LINE
  8
5
 10
  1367.082
 20
  8556.709
 11
  1382.007
 21
  8407.452
  0
LINE
  8
5
 10
  2734.163
 20
  8693.417
 11
  2749.089
 21
  8544.160
  0
LINE
  8
5
 10
  4101.145
 20
  8830.115
 11
  4116.070
 21
  8680.859
  0
LINE
  8
5
 10
  5468.227
 20
  8966.823
 11
  5483.152
 21
  8817.567
  0
LINE
  8
5
 10
  6835.308
 20
  9103.531
 11
  6850.234
 21
  8954.276
  0
LINE
  8
5
 10
  8202.390
 20
  9240.239
 11
  8217.315
 21
  9090.984
  0
LINE
  8
5
 10
  9569.473
 20
  9376.947
 11
  9584.397
 21
  9227.692
  0
LINE
  8
5
 10
 10936.454
 20
  9513.646
 11
 10951.380
 21
  9364.391
  0
LINE
  8
5
 10
 11533.512
 20
  9513.648
 11
 11518.586
 21
  9364.395
  0
LINE
  8
5
 10
 12900.592
 20
  9376.940
 11
 12885.667
 21
  9227.687
  0
LINE
  8
5
 10
 14267.675
 20
  9240.232
 11
 14252.748
 21
  9090.979
  0
LINE
  8
5
 10
 15634.658
 20
  9103.534
 11
 15619.731
 21
  8954.279
  0
LINE
  8
5
 10
 17001.738
 20
  8966.826
 11
 16986.812
 21
  8817.571
  0
LINE
  8
5
 10
 18368.820
 20
  8830.118
 11
 18353.895
 21
  8680.862
  0
LINE
  8
5
 10
 19735.902
 20
  8693.410
 11
 19720.977
 21
  8544.154
  0
LINE
  8
5
 10
 21102.982
 20
  8556.702
 11
 21088.057
 21
  8407.446
  0
LINE
  8
5
 10
   839.800
 20
  3580.000
 11
   903.300
 21
  3580.000
  0
LINE
  8
5
 10
   839.800
 20
  3580.000
 11
   903.300
 21
  3580.000
  0
LINE
  8
5
 10
  1432.249
 20
  7905.037
 11
  1438.567
 21
  7841.852
  0
LINE
  8
5
 10
  4140.631
 20
  8435.255
 11
  4146.950
 21
  8372.070
  0
LINE
  8
5
 10
  6876.017
 20
  8696.457
 11
  6882.335
 21
  8633.272
  0
LINE
  8
5
 10
  9618.574
 20
  8885.930
 11
  9624.893
 21
  8822.745
  0
LINE
  8
5
 10
 10989.752
 20
  8980.658
 11
 10996.070
 21
  8917.475
  0
LINE
  8
5
 10
  1432.249
 20
  7905.037
 11
  1438.567
 21
  7841.852
  0
LINE
  8
5
 10
  4140.631
 20
  8435.255
 11
  4146.950
 21
  8372.070
  0
LINE
  8
5
 10
  6876.017
 20
  8696.457
 11
  6882.335
 21
  8633.272
  0
LINE
  8
5
 10
  9618.574
 20
  8885.930
 11
  9624.893
 21
  8822.745
  0
LINE
  8
5
 10
 10989.752
 20
  8980.658
 11
 10996.070
 21
  8917.475
  0
LINE
  8
5
 10
 11480.212
 20
  8980.661
 11
 11473.895
 21
  8917.477
  0
LINE
  8
5
 10
 12851.490
 20
  8885.925
 11
 12845.172
 21
  8822.740
  0
LINE
  8
5
 10
 15593.950
 20
  8696.460
 11
 15587.631
 21
  8633.275
  0
LINE
  8
5
 10
 18329.336
 20
  8435.258
 11
 18323.016
 21
  8372.073
  0
LINE
  8
5
 10
 21037.816
 20
  7905.023
 11
 21031.498
 21
  7841.839
  0
LINE
  8
5
 10
 11480.212
 20
  8980.661
 11
 11473.895
 21
  8917.477
  0
LINE
  8
5
 10
 12851.490
 20
  8885.925
 11
 12845.172
 21
  8822.740
  0
LINE
  8
5
 10
 15593.950
 20
  8696.460
 11
 15587.631
 21
  8633.275
  0
LINE
  8
5
 10
 18329.336
 20
  8435.258
 11
 18323.016
 21
  8372.073
  0
LINE
  8
5
 10
 21037.816
 20
  7905.023
 11
 21031.498
 21
  7841.839
  0
LINE
  8
5
 10
 21630.201
 20
  3580.000
 11
 21566.701
 21
  3580.000
  0
LINE
  8
5
 10
 21630.201
 20
  3580.000
 11
 21566.701
 21
  3580.000
  0
LINE
  8
1
 10
   942.000
 20
  6204.000
 11
  1730.000
 21
  6204.000
  0
LINE
  8
1
 10
   942.000
 20
  6196.000
 11
  1730.000
 21
  6196.000
  0
LINE
  8
1
 10
  1730.000
 20
  6204.000
 11
  1730.000
 21
  5838.000
  0
LINE
  8
1
 10
  1730.000
 20
  5838.000
 11
   942.000
 21
  5838.000
  0
LINE
  8
1
 10
  1730.000
 20
  5846.000
 11
   942.000
 21
  5846.000
  0
LINE
  8
1
 10
  1730.000
 20
  5838.000
 11
  1730.000
 21
  5738.000
  0
LINE
  8
1
 10
  1730.000
 20
  5738.000
 11
   942.000
 21
  5283.047
  0
LINE
  8
1
 10
 21528.000
 20
  6204.000
 11
 20740.000
 21
  6204.000
  0
LINE
  8
1
 10
 21528.000
 20
  6196.000
 11
 20740.000
 21
  6196.000
  0
LINE
  8
1
 10
 20740.000
 20
  6204.000
 11
 20740.000
 21
  5838.000
  0
LINE
  8
1
 10
 20740.000
 20
  5838.000
 11
 21528.000
 21
  5838.000
  0
LINE
  8
1
 10
 20740.000
 20
  5846.000
 11
 21528.000
 21
  5846.000
  0
LINE
  8
1
 10
 20740.000
 20
  5838.000
 11
 20740.000
 21
  5738.000
  0
LINE
  8
1
 10
 20740.000
 20
  5738.000
 11
 21528.000
 21
  5283.047
  0
LINE
  8
8
 10
     0.000
 20
     0.000
 11
     0.000
 21
  8420.000
  0
LINE
  8
8
 10
     0.000
 20
  8420.000
 11
 11235.000
 21
  9543.500
  0
LINE
  8
8
 10
 11235.000
 20
  9543.500
 11
 22470.000
 21
  8420.000
  0
LINE
  8
8
 10
 22470.000
 20
  8420.000
 11
 22470.000
 21
     0.000
  0
LINE
  8
1
 10
   236.000
 20
    16.000
 11
   636.000
 21
    16.000
  0
LINE
  8
1
 10
   636.000
 20
    16.000
 11
   936.000
 21
  4016.000
  0
LINE
  8
1
 10
   936.000
 20
  4016.000
 11
   936.000
 21
  4016.000
  0
LINE
  8
1
 10
   936.000
 20
  4016.000
 11
   236.000
 21
  4016.000
  0
LINE
  8
1
 10
   236.000
 20
    16.000
 11
   236.000
 21
  4016.000
  0
LINE
  8
1
 10
   236.000
 20
  4016.000
 11
   936.000
 21
  4016.000
  0
LINE
  8
1
 10
   936.000
 20
  4016.000
 11
   936.000
 21
  7731.629
  0
LINE
  8
1
 10
   936.000
 20
  7731.629
 11
   936.000
 21
  7731.629
  0
LINE
  8
1
 10
   936.000
 20
  7731.629
 11
   236.000
 21
  7731.629
  0
LINE
  8
1
 10
   236.000
 20
  4016.000
 11
   236.000
 21
  7731.629
  0
LINE
  8
1
 10
   336.000
 20
  5844.000
 11
   936.000
 21
  5844.000
  0
LINE
  8
1
 10
   336.000
 20
  5838.000
 11
   936.000
 21
  5838.000
  0
LINE
  8
1
 10
   336.000
 20
  5844.000
 11
   336.000
 21
  5838.000
  0
LINE
  8
1
 10
   936.000
 20
  5844.000
 11
   936.000
 21
  5838.000
  0
LINE
  8
1
 10
   336.000
 20
  6204.000
 11
   936.000
 21
  6204.000
  0
LINE
  8
1
 10
   336.000
 20
  6198.000
 11
   936.000
 21
  6198.000
  0
LINE
  8
1
 10
   336.000
 20
  6204.000
 11
   336.000
 21
  6198.000
  0
LINE
  8
1
 10
   936.000
 20
  6204.000
 11
   936.000
 21
  6198.000
  0
LINE
  8
1
 10
   236.000
 20
  6420.000
 11
   836.000
 21
  6420.000
  0
LINE
  8
1
 10
   236.000
 20
  6414.000
 11
   836.000
 21
  6414.000
  0
LINE
  8
1
 10
   236.000
 20
  6420.000
 11
   236.000
 21
  6414.000
  0
LINE
  8
1
 10
   836.000
 20
  6420.000
 11
   836.000
 21
  6414.000
  0
LINE
  8
1
 10
   236.000
 20
    16.000
 11
   236.000
 21
  7731.629
  0
LINE
  8
1
 10
   236.000
 20
  7731.629
 11
   230.000
 21
  7731.629
  0
LINE
  8
1
 10
   230.000
 20
  7731.629
 11
   230.000
 21
    16.000
  0
LINE
  8
1
 10
   236.000
 20
    16.000
 11
   230.000
 21
    16.000
  0
LINE
  8
5
 10
   210.600
 20
  2580.000
 11
   248.700
 21
  2580.000
  0
LINE
  8
5
 10
   210.600
 20
  3580.000
 11
   248.700
 21
  3580.000
  0
LINE
  8
5
 10
   210.600
 20
  4580.000
 11
   248.700
 21
  4580.000
  0
LINE
  8
5
 10
   210.600
 20
  5780.000
 11
   248.700
 21
  5780.000
  0
LINE
  8
5
 10
   210.600
 20
  7280.000
 11
   248.700
 21
  7280.000
  0
LINE
  8
1
 10
   636.034
 20
    16.449
 11
   936.000
 21
  4016.000
  0
LINE
  8
1
 10
   936.000
 20
  4016.000
 11
   941.983
 21
  4015.551
  0
LINE
  8
1
 10
   941.983
 20
  4015.551
 11
   642.017
 21
    16.000
  0
LINE
  8
1
 10
   636.034
 20
    16.449
 11
   642.017
 21
    16.000
  0
LINE
  8
1
 10
   936.000
 20
  4016.000
 11
   936.000
 21
  7731.629
  0
LINE
  8
1
 10
   936.000
 20
  7731.629
 11
   942.000
 21
  7731.629
  0
LINE
  8
1
 10
   942.000
 20
  7731.629
 11
   942.000
 21
  4016.000
  0
LINE
  8
1
 10
   936.000
 20
  4016.000
 11
   942.000
 21
  4016.000
  0
CIRCLE
  8
1
 10
   942.000
 20
  5846.000
 40
    12.700
  0
CIRCLE
  8
1
 10
   942.000
 20
  6196.000
 40
    12.700
  0
LINE
  8
1
 10
   158.000
 20
   -28.700
 11
   158.000
 21
    28.700
  0
LINE
  8
1
 10
   308.000
 20
   -28.700
 11
   308.000
 21
    28.700
  0
LINE
  8
1
 10
   562.808
 20
   -28.700
 11
   562.808
 21
    28.700
  0
LINE
  8
1
 10
   712.808
 20
   -28.700
 11
   712.808
 21
    28.700
  0
LINE
  8
1
 10
    83.000
 20
     0.000
 11
   787.808
 21
     0.000
  0
LINE
  8
1
 10
   787.808
 20
     0.000
 11
   787.808
 21
    16.000
  0
LINE
  8
1
 10
   787.808
 20
    16.000
 11
    83.000
 21
    16.000
  0
LINE
  8
1
 10
    83.000
 20
     0.000
 11
    83.000
 21
    16.000
  0
LINE
  8
1
 10
   186.000
 20
  7718.930
 11
   186.000
 21
  7776.329
  0
LINE
  8
1
 10
   286.000
 20
  7718.930
 11
   286.000
 21
  7776.329
  0
LINE
  8
1
 10
   586.000
 20
  7718.930
 11
   586.000
 21
  7776.329
  0
LINE
  8
1
 10
   886.000
 20
  7718.930
 11
   886.000
 21
  7776.329
  0
LINE
  8
1
 10
   986.000
 20
  7718.930
 11
   986.000
 21
  7776.329
  0
LINE
  8
1
 10
   136.000
 20
  7747.629
 11
  1036.000
 21
  7747.629
  0
LINE
  8
1
 10
  1036.000
 20
  7747.629
 11
  1036.000
 21
  7731.629
  0
LINE
  8
1
 10
  1036.000
 20
  7731.629
 11
   136.000
 21
  7731.629
  0
LINE
  8
1
 10
   136.000
 20
  7747.629
 11
   136.000
 21
  7731.629
  0
LINE
  8
1
 10
   230.000
 20
    16.000
 11
   230.000
 21
   213.000
  0
LINE
  8
1
 10
   230.000
 20
   213.000
 11
    83.000
 21
    66.000
  0
LINE
  8
1
 10
    83.000
 20
    66.000
 11
    83.000
 21
    16.000
  0
LINE
  8
1
 10
   230.000
 20
    16.000
 11
    83.000
 21
    16.000
  0
LINE
  8
1
 10
   642.017
 20
    16.000
 11
   656.701
 21
   211.792
  0
LINE
  8
1
 10
   656.701
 20
   211.792
 11
   787.808
 21
    66.000
  0
LINE
  8
1
 10
   787.808
 20
    66.000
 11
   787.808
 21
    16.000
  0
LINE
  8
1
 10
   642.017
 20
    16.000
 11
   787.808
 21
    16.000
  0
LINE
  8
1
 10
   230.000
 20
  7731.629
 11
   230.000
 21
  7611.630
  0
LINE
  8
1
 10
   230.000
 20
  7611.630
 11
   136.000
 21
  7731.629
  0
LINE
  8
1
 10
   136.000
 20
  7731.629
 11
   136.000
 21
  7731.629
  0
LINE
  8
1
 10
   230.000
 20
  7731.629
 11
   136.000
 21
  7731.629
  0
LINE
  8
1
 10
   942.000
 20
  7731.629
 11
   942.000
 21
  7611.630
  0
LINE
  8
1
 10
   942.000
 20
  7611.630
 11
  1036.000
 21
  7731.629
  0
LINE
  8
1
 10
  1036.000
 20
  7731.629
 11
  1036.000
 21
  7731.629
  0
LINE
  8
1
 10
   942.000
 20
  7731.629
 11
  1036.000
 21
  7731.629
  0
CIRCLE
  8
1
 10
   230.000
 20
     0.000
 40
     6.350
  0
LINE
  8
17
 10
   223.650
 20
     0.000
 11
   236.350
 21
     0.000
  0
LINE
  8
17
 10
   230.000
 20
    -6.350
 11
   230.000
 21
     6.350
  0
CIRCLE
  8
1
 10
   640.817
 20
     0.000
 40
     6.350
  0
LINE
  8
17
 10
   634.467
 20
     0.000
 11
   647.167
 21
     0.000
  0
LINE
  8
17
 10
   640.817
 20
    -6.350
 11
   640.817
 21
     6.350
  0
CIRCLE
  8
1
 10
   942.000
 20
  7747.629
 40
     6.350
  0
LINE
  8
17
 10
   935.650
 20
  7747.629
 11
   948.350
 21
  7747.629
  0
LINE
  8
17
 10
   942.000
 20
  7741.279
 11
   942.000
 21
  7753.979
  0
CIRCLE
  8
1
 10
   230.000
 20
  7747.629
 40
     6.350
  0
LINE
  8
17
 10
   223.650
 20
  7747.629
 11
   236.350
 21
  7747.629
  0
LINE
  8
17
 10
   230.000
 20
  7741.279
 11
   230.000
 21
  7753.979
  0
LINE
  8
1
 10
  4676.276
 20
  8730.850
 11
  4701.302
 21
  8480.596
  0
LINE
  8
1
 10
  4701.302
 20
  8480.596
 11
  1039.000
 21
  7763.629
  0
LINE
  8
1
 10
  1039.000
 20
  7763.629
 11
  1039.000
 21
  7763.629
  0
LINE
  8
1
 10
  1039.000
 20
  7763.629
 11
   979.248
 21
  8361.146
  0
LINE
  8
1
 10
  4676.276
 20
  8730.850
 11
   979.248
 21
  8361.146
  0
LINE
  8
1
 10
   979.248
 20
  8361.146
 11
  1039.000
 21
  7763.629
  0
LINE
  8
1
 10
  1039.000
 20
  7763.629
 11
  1039.000
 21
  7763.629
  0
LINE
  8
1
 10
  1039.000
 20
  7763.629
 11
   236.000
 21
  7763.629
  0
LINE
  8
1
 10
   236.000
 20
  7763.629
 11
   236.000
 21
  8286.822
  0
LINE
  8
1
 10
   979.248
 20
  8361.146
 11
   236.000
 21
  8286.822
  0
LINE
  8
1
 10
   886.263
 20
  8321.148
 11
   941.985
 21
  7763.928
  0
LINE
  8
1
 10
   880.292
 20
  8320.552
 11
   936.015
 21
  7763.331
  0
LINE
  8
1
 10
   886.263
 20
  8321.148
 11
   880.292
 21
  8320.552
  0
LINE
  8
1
 10
   941.985
 20
  7763.928
 11
   936.015
 21
  7763.331
  0
LINE
  8
1
 10
  4676.276
 20
  8730.850
 11
    10.597
 21
  8264.281
  0
LINE
  8
1
 10
    10.597
 20
  8264.281
 11
    10.000
 21
  8270.252
  0
LINE
  8
1
 10
    10.000
 20
  8270.252
 11
  4675.680
 21
  8736.820
  0
LINE
  8
1
 10
  4676.276
 20
  8730.850
 11
  4675.680
 21
  8736.820
  0
LINE
  8
5
 10
    92.598
 20
  8298.008
 11
    96.389
 21
  8260.098
  0
LINE
  8
1
 10
   236.000
 20
  7763.629
 11
   236.000
 21
  8286.222
  0
LINE
  8
1
 10
   236.000
 20
  8286.222
 11
   230.000
 21
  8286.222
  0
LINE
  8
1
 10
   230.000
 20
  8286.222
 11
   230.000
 21
  7763.629
  0
LINE
  8
1
 10
   236.000
 20
  7763.629
 11
   230.000
 21
  7763.629
  0
LINE
  8
1
 10
   230.000
 20
  8286.222
 11
     0.000
 21
  8263.222
  0
LINE
  8
1
 10
     0.000
 20
  8263.222
 11
   230.000
 21
  8171.222
  0
LINE
  8
1
 10
  4700.564
 20
  8480.451
 11
  1039.000
 21
  7763.629
  0
LINE
  8
1
 10
  1039.000
 20
  7763.629
 11
  1040.537
 21
  7755.778
  0
LINE
  8
1
 10
  1040.537
 20
  7755.778
 11
  4702.102
 21
  8472.601
  0
LINE
  8
1
 10
  4700.564
 20
  8480.451
 11
  4702.102
 21
  8472.601
  0
LINE
  8
1
 10
  4658.665
 20
  8779.339
 11
  4715.779
 21
  8785.050
  0
LINE
  8
1
 10
  4668.615
 20
  8679.835
 11
  4725.730
 21
  8685.547
  0
LINE
  8
1
 10
  4683.541
 20
  8530.579
 11
  4740.656
 21
  8536.290
  0
LINE
  8
1
 10
  4693.491
 20
  8431.076
 11
  4750.606
 21
  8436.787
  0
LINE
  8
1
 10
  4682.247
 20
  8831.946
 11
  4727.024
 21
  8384.179
  0
LINE
  8
1
 10
  4727.024
 20
  8384.179
 11
  4711.103
 21
  8382.587
  0
LINE
  8
1
 10
  4711.103
 20
  8382.587
 11
  4666.326
 21
  8830.354
  0
LINE
  8
1
 10
  4682.247
 20
  8831.946
 11
  4666.326
 21
  8830.354
  0
LINE
  8
1
 10
   186.000
 20
  7718.930
 11
   186.000
 21
  7776.329
  0
LINE
  8
1
 10
   286.000
 20
  7718.930
 11
   286.000
 21
  7776.329
  0
LINE
  8
1
 10
   586.000
 20
  7718.930
 11
   586.000
 21
  7776.329
  0
LINE
  8
1
 10
   886.000
 20
  7718.930
 11
   886.000
 21
  7776.329
  0
LINE
  8
1
 10
   986.000
 20
  7718.930
 11
   986.000
 21
  7776.329
  0
LINE
  8
1
 10
   136.000
 20
  7747.629
 11
  1036.000
 21
  7747.629
  0
LINE
  8
1
 10
  1036.000
 20
  7747.629
 11
  1036.000
 21
  7763.629
  0
LINE
  8
1
 10
  1036.000
 20
  7763.629
 11
   136.000
 21
  7763.629
  0
LINE
  8
1
 10
   136.000
 20
  7747.629
 11
   136.000
 21
  7763.629
  0
LINE
  8
1
 10
  4675.679
 20
  8736.820
 11
  4556.275
 21
  8724.880
  0
LINE
  8
1
 10
  4556.275
 20
  8724.880
 11
  4666.326
 21
  8830.354
  0
LINE
  8
1
 10
  4666.326
 20
  8830.354
 11
  4666.326
 21
  8830.354
  0
LINE
  8
1
 10
  4675.679
 20
  8736.820
 11
  4666.326
 21
  8830.354
  0
LINE
  8
1
 10
  4702.102
 20
  8472.601
 11
  4583.819
 21
  8449.444
  0
LINE
  8
1
 10
  4583.819
 20
  8449.444
 11
  4711.103
 21
  8382.587
  0
LINE
  8
1
 10
  4711.103
 20
  8382.587
 11
  4711.103
 21
  8382.587
  0
LINE
  8
1
 10
  4702.102
 20
  8472.601
 11
  4711.103
 21
  8382.587
  0
LINE
  8
1
 10
   230.000
 20
  7763.629
 11
   230.000
 21
  7883.629
  0
LINE
  8
1
 10
   230.000
 20
  7883.629
 11
   136.000
 21
  7763.629
  0
LINE
  8
1
 10
   136.000
 20
  7763.629
 11
   136.000
 21
  7763.629
  0
LINE
  8
1
 10
   230.000
 20
  7763.629
 11
   136.000
 21
  7763.629
  0
CIRCLE
  8
1
 10
   230.000
 20
  7747.629
 40
     6.350
  0
LINE
  8
17
 10
   223.650
 20
  7747.629
 11
   236.350
 21
  7747.629
  0
LINE
  8
17
 10
   230.000
 20
  7741.279
 11
   230.000
 21
  7753.979
  0
CIRCLE
  8
1
 10
  1036.000
 20
  7747.629
 40
     6.350
  0
LINE
  8
17
 10
  1029.650
 20
  7747.629
 11
  1042.350
 21
  7747.629
  0
LINE
  8
17
 10
  1036.000
 20
  7741.279
 11
  1036.000
 21
  7753.979
  0
CIRCLE
  8
1
 10
  4717.873
 20
  8475.688
 40
     6.350
  0
LINE
  8
17
 10
  4711.523
 20
  8475.688
 11
  4724.223
 21
  8475.688
  0
LINE
  8
17
 10
  4717.873
 20
  8469.337
 11
  4717.873
 21
  8482.037
  0
CIRCLE
  8
1
 10
  4691.601
 20
  8738.412
 40
     6.350
  0
LINE
  8
17
 10
  4685.250
 20
  8738.412
 11
  4697.950
 21
  8738.412
  0
LINE
  8
17
 10
  4691.601
 20
  8732.062
 11
  4691.601
 21
  8744.763
  0
CIRCLE
  8
1
 10
   230.000
 20
  8292.252
 40
     6.350
  0
LINE
  8
17
 10
   223.650
 20
  8292.252
 11
   236.350
 21
  8292.252
  0
LINE
  8
17
 10
   230.000
 20
  8285.902
 11
   230.000
 21
  8298.602
  0
LINE
  8
1
 10
 11219.000
 20
  9385.122
 11
 11219.000
 21
  8932.876
  0
LINE
  8
1
 10
 11219.000
 20
  8932.876
 11
  4733.043
 21
  8484.786
  0
LINE
  8
1
 10
  4733.043
 20
  8484.786
 11
  4733.043
 21
  8484.786
  0
LINE
  8
1
 10
  4733.043
 20
  8484.786
 11
  4708.118
 21
  8734.034
  0
LINE
  8
1
 10
 11219.000
 20
  9385.122
 11
  4708.118
 21
  8734.034
  0
LINE
  8
1
 10
 11219.000
 20
  9385.122
 11
  4708.118
 21
  8734.034
  0
LINE
  8
1
 10
  4708.118
 20
  8734.034
 11
  4707.620
 21
  8739.009
  0
LINE
  8
1
 10
  4707.620
 20
  8739.009
 11
 11218.503
 21
  9390.098
  0
LINE
  8
1
 10
 11219.000
 20
  9385.122
 11
 11218.503
 21
  9390.098
  0
LINE
  8
1
 10
 11218.655
 20
  8932.852
 11
  4733.196
 21
  8484.797
  0
LINE
  8
1
 10
  4733.196
 20
  8484.797
 11
  4733.541
 21
  8479.809
  0
LINE
  8
1
 10
  4733.541
 20
  8479.809
 11
 11219.000
 21
  8927.863
  0
LINE
  8
1
 10
 11218.655
 20
  8932.852
 11
 11219.000
 21
  8927.863
  0
LINE
  8
1
 10
 11206.301
 20
  9436.723
 11
 11263.700
 21
  9436.723
  0
LINE
  8
1
 10
 11206.301
 20
  9336.723
 11
 11263.700
 21
  9336.723
  0
LINE
  8
1
 10
 11206.301
 20
  8981.723
 11
 11263.700
 21
  8981.723
  0
LINE
  8
1
 10
 11206.301
 20
  8881.722
 11
 11263.700
 21
  8881.722
  0
LINE
  8
1
 10
 11235.000
 20
  9486.723
 11
 11235.000
 21
  8833.980
  0
LINE
  8
1
 10
 11235.000
 20
  8833.980
 11
 11219.000
 21
  8833.980
  0
LINE
  8
1
 10
 11219.000
 20
  8833.980
 11
 11219.000
 21
  9486.723
  0
LINE
  8
1
 10
 11235.000
 20
  9486.723
 11
 11219.000
 21
  9486.723
  0
LINE
  8
1
 10
  4658.665
 20
  8779.339
 11
  4715.779
 21
  8785.050
  0
LINE
  8
1
 10
  4668.615
 20
  8679.835
 11
  4725.730
 21
  8685.547
  0
LINE
  8
1
 10
  4683.541
 20
  8530.579
 11
  4740.656
 21
  8536.290
  0
LINE
  8
1
 10
  4693.491
 20
  8431.076
 11
  4750.606
 21
  8436.787
  0
LINE
  8
1
 10
  4682.247
 20
  8831.946
 11
  4727.024
 21
  8384.179
  0
LINE
  8
1
 10
  4727.024
 20
  8384.179
 11
  4742.944
 21
  8385.771
  0
LINE
  8
1
 10
  4742.944
 20
  8385.771
 11
  4698.167
 21
  8833.538
  0
LINE
  8
1
 10
  4682.247
 20
  8831.946
 11
  4698.167
 21
  8833.538
  0
LINE
  8
1
 10
 11219.000
 20
  9390.146
 11
 11099.001
 21
  9378.146
  0
LINE
  8
1
 10
 11099.001
 20
  9378.146
 11
 11219.000
 21
  9486.773
  0
LINE
  8
1
 10
 11219.000
 20
  9486.773
 11
 11219.000
 21
  9486.773
  0
LINE
  8
1
 10
 11219.000
 20
  9390.146
 11
 11219.000
 21
  9486.773
  0
LINE
  8
1
 10
 11219.000
 20
  8927.863
 11
 11099.001
 21
  8919.573
  0
LINE
  8
1
 10
 11099.001
 20
  8919.573
 11
 11219.000
 21
  8833.980
  0
LINE
  8
1
 10
 11219.000
 20
  8833.980
 11
 11219.000
 21
  8833.980
  0
LINE
  8
1
 10
 11219.000
 20
  8927.863
 11
 11219.000
 21
  8833.980
  0
LINE
  8
1
 10
  4707.620
 20
  8739.009
 11
  4827.025
 21
  8750.949
  0
LINE
  8
1
 10
  4827.025
 20
  8750.949
 11
  4698.167
 21
  8833.538
  0
LINE
  8
1
 10
  4698.167
 20
  8833.538
 11
  4698.167
 21
  8833.538
  0
LINE
  8
1
 10
  4707.620
 20
  8739.009
 11
  4698.167
 21
  8833.538
  0
LINE
  8
1
 10
  4733.541
 20
  8479.809
 11
  4853.312
 21
  8488.083
  0
LINE
  8
1
 10
  4853.312
 20
  8488.083
 11
  4742.944
 21
  8385.771
  0
LINE
  8
1
 10
  4742.944
 20
  8385.771
 11
  4742.944
 21
  8385.771
  0
LINE
  8
1
 10
  4733.541
 20
  8479.809
 11
  4742.944
 21
  8385.771
  0
CIRCLE
  8
1
 10
  4691.700
 20
  8737.417
 40
     6.350
  0
LINE
  8
17
 10
  4685.350
 20
  8737.417
 11
  4698.050
 21
  8737.417
  0
LINE
  8
17
 10
  4691.700
 20
  8731.067
 11
  4691.700
 21
  8743.767
  0
CIRCLE
  8
1
 10
  4717.571
 20
  8478.706
 40
     6.350
  0
LINE
  8
17
 10
  4711.221
 20
  8478.706
 11
  4723.921
 21
  8478.706
  0
LINE
  8
17
 10
  4717.571
 20
  8472.355
 11
  4717.571
 21
  8485.056
  0
CIRCLE
  8
1
 10
 11235.000
 20
  8928.969
 40
     6.350
  0
LINE
  8
17
 10
 11228.650
 20
  8928.969
 11
 11241.351
 21
  8928.969
  0
LINE
  8
17
 10
 11235.000
 20
  8922.619
 11
 11235.000
 21
  8935.318
  0
CIRCLE
  8
1
 10
 11235.000
 20
  9391.747
 40
     6.350
  0
LINE
  8
17
 10
 11228.650
 20
  9391.747
 11
 11241.351
 21
  9391.747
  0
LINE
  8
17
 10
 11235.000
 20
  9385.397
 11
 11235.000
 21
  9398.098
  0
LINE
  8
1
 10
 11251.000
 20
  9385.122
 11
 11251.000
 21
  8932.876
  0
LINE
  8
1
 10
 11251.000
 20
  8932.876
 11
 17736.922
 21
  8484.789
  0
LINE
  8
1
 10
 17736.922
 20
  8484.789
 11
 17736.922
 21
  8484.789
  0
LINE
  8
1
 10
 17736.922
 20
  8484.789
 11
 17761.848
 21
  8734.037
  0
LINE
  8
1
 10
 11251.000
 20
  9385.122
 11
 17761.848
 21
  8734.037
  0
LINE
  8
1
 10
 11251.000
 20
  9385.122
 11
 17761.848
 21
  8734.037
  0
LINE
  8
1
 10
 17761.848
 20
  8734.037
 11
 17762.346
 21
  8739.012
  0
LINE
  8
1
 10
 17762.346
 20
  8739.012
 11
 11251.497
 21
  9390.098
  0
LINE
  8
1
 10
 11251.000
 20
  9385.122
 11
 11251.497
 21
  9390.098
  0
LINE
  8
1
 10
 11251.345
 20
  8932.852
 11
 17736.768
 21
  8484.800
  0
LINE
  8
1
 10
 17736.768
 20
  8484.800
 11
 17736.424
 21
  8479.812
  0
LINE
  8
1
 10
 17736.424
 20
  8479.812
 11
 11251.000
 21
  8927.863
  0
LINE
  8
1
 10
 11251.345
 20
  8932.852
 11
 11251.000
 21
  8927.863
  0
LINE
  8
1
 10
 11206.301
 20
  9436.723
 11
 11263.700
 21
  9436.723
  0
LINE
  8
1
 10
 11206.301
 20
  9336.723
 11
 11263.700
 21
  9336.723
  0
LINE
  8
1
 10
 11206.301
 20
  8981.723
 11
 11263.700
 21
  8981.723
  0
LINE
  8
1
 10
 11206.301
 20
  8881.722
 11
 11263.700
 21
  8881.722
  0
LINE
  8
1
 10
 11235.000
 20
  9486.723
 11
 11235.000
 21
  8833.980
  0
LINE
  8
1
 10
 11235.000
 20
  8833.980
 11
 11251.000
 21
  8833.980
  0
LINE
  8
1
 10
 11251.000
 20
  8833.980
 11
 11251.000
 21
  9486.723
  0
LINE
  8
1
 10
 11235.000
 20
  9486.723
 11
 11251.000
 21
  9486.723
  0
LINE
  8
1
 10
 17754.184
 20
  8785.053
 11
 17811.301
 21
  8779.342
  0
LINE
  8
1
 10
 17744.234
 20
  8685.550
 11
 17801.350
 21
  8679.838
  0
LINE
  8
1
 10
 17729.309
 20
  8536.294
 11
 17786.424
 21
  8530.582
  0
LINE
  8
1
 10
 17719.359
 20
  8436.790
 11
 17776.475
 21
  8431.078
  0
LINE
  8
1
 10
 17787.717
 20
  8831.949
 11
 17742.941
 21
  8384.182
  0
LINE
  8
1
 10
 17742.941
 20
  8384.182
 11
 17727.021
 21
  8385.774
  0
LINE
  8
1
 10
 17727.021
 20
  8385.774
 11
 17771.797
 21
  8833.541
  0
LINE
  8
1
 10
 17787.717
 20
  8831.949
 11
 17771.797
 21
  8833.541
  0
LINE
  8
1
 10
 11251.000
 20
  9390.146
 11
 11371.000
 21
  9378.146
  0
LINE
  8
1
 10
 11371.000
 20
  9378.146
 11
 11251.000
 21
  9486.773
  0
LINE
  8
1
 10
 11251.000
 20
  9486.773
 11
 11251.000
 21
  9486.773
  0
LINE
  8
1
 10
 11251.000
 20
  9390.146
 11
 11251.000
 21
  9486.773
  0
LINE
  8
1
 10
 11251.000
 20
  8927.863
 11
 11371.000
 21
  8919.573
  0
LINE
  8
1
 10
 11371.000
 20
  8919.573
 11
 11251.000
 21
  8833.980
  0
LINE
  8
1
 10
 11251.000
 20
  8833.980
 11
 11251.000
 21
  8833.980
  0
LINE
  8
1
 10
 11251.000
 20
  8927.863
 11
 11251.000
 21
  8833.980
  0
LINE
  8
1
 10
 17762.346
 20
  8739.012
 11
 17642.939
 21
  8750.952
  0
LINE
  8
1
 10
 17642.939
 20
  8750.952
 11
 17771.797
 21
  8833.541
  0
LINE
  8
1
 10
 17771.797
 20
  8833.541
 11
 17771.797
 21
  8833.541
  0
LINE
  8
1
 10
 17762.346
 20
  8739.012
 11
 17771.797
 21
  8833.541
  0
LINE
  8
1
 10
 17736.426
 20
  8479.812
 11
 17616.654
 21
  8488.086
  0
LINE
  8
1
 10
 17616.654
 20
  8488.086
 11
 17727.021
 21
  8385.774
  0
LINE
  8
1
 10
 17727.021
 20
  8385.774
 11
 17727.021
 21
  8385.774
  0
LINE
  8
1
 10
 17736.426
 20
  8479.812
 11
 17727.021
 21
  8385.774
  0
CIRCLE
  8
1
 10
 11235.000
 20
  9391.747
 40
     6.350
  0
LINE
  8
17
 10
 11228.650
 20
  9391.747
 11
 11241.351
 21
  9391.747
  0
LINE
  8
17
 10
 11235.000
 20
  9385.397
 11
 11235.000
 21
  9398.098
  0
CIRCLE
  8
1
 10
 11235.000
 20
  8928.969
 40
     6.350
  0
LINE
  8
17
 10
 11228.650
 20
  8928.969
 11
 11241.351
 21
  8928.969
  0
LINE
  8
17
 10
 11235.000
 20
  8922.619
 11
 11235.000
 21
  8935.318
  0
CIRCLE
  8
1
 10
 17752.395
 20
  8478.709
 40
     6.350
  0
LINE
  8
17
 10
 17746.043
 20
  8478.709
 11
 17758.744
 21
  8478.709
  0
LINE
  8
17
 10
 17752.395
 20
  8472.358
 11
 17752.395
 21
  8485.059
  0
CIRCLE
  8
1
 10
 17778.266
 20
  8737.420
 40
     6.350
  0
LINE
  8
17
 10
 17771.914
 20
  8737.420
 11
 17784.615
 21
  8737.420
  0
LINE
  8
17
 10
 17778.266
 20
  8731.070
 11
 17778.266
 21
  8743.771
  0
LINE
  8
1
 10
 17793.688
 20
  8730.853
 11
 17768.662
 21
  8480.599
  0
LINE
  8
1
 10
 17768.662
 20
  8480.599
 11
 21431.000
 21
  7763.629
  0
LINE
  8
1
 10
 21431.000
 20
  7763.629
 11
 21431.000
 21
  7763.629
  0
LINE
  8
1
 10
 21431.000
 20
  7763.629
 11
 21490.752
 21
  8361.146
  0
LINE
  8
1
 10
 17793.688
 20
  8730.853
 11
 21490.752
 21
  8361.146
  0
LINE
  8
1
 10
 21490.752
 20
  8361.146
 11
 21431.000
 21
  7763.629
  0
LINE
  8
1
 10
 21431.000
 20
  7763.629
 11
 21431.000
 21
  7763.629
  0
LINE
  8
1
 10
 21431.000
 20
  7763.629
 11
 22234.000
 21
  7763.629
  0
LINE
  8
1
 10
 22234.000
 20
  7763.629
 11
 22234.000
 21
  8286.822
  0
LINE
  8
1
 10
 21490.752
 20
  8361.146
 11
 22234.000
 21
  8286.822
  0
LINE
  8
1
 10
 21589.709
 20
  8320.552
 11
 21533.986
 21
  7763.331
  0
LINE
  8
1
 10
 21583.736
 20
  8321.148
 11
 21528.014
 21
  7763.928
  0
LINE
  8
1
 10
 21589.709
 20
  8320.552
 11
 21583.736
 21
  8321.148
  0
LINE
  8
1
 10
 21533.986
 20
  7763.331
 11
 21528.014
 21
  7763.928
  0
LINE
  8
1
 10
 17793.688
 20
  8730.853
 11
 22459.404
 21
  8264.281
  0
LINE
  8
1
 10
 22459.404
 20
  8264.281
 11
 22460.000
 21
  8270.252
  0
LINE
  8
1
 10
 22460.000
 20
  8270.252
 11
 17794.283
 21
  8736.823
  0
LINE
  8
1
 10
 17793.688
 20
  8730.853
 11
 17794.283
 21
  8736.823
  0
LINE
  8
5
 10
 22377.400
 20
  8298.008
 11
 22373.611
 21
  8260.098
  0
LINE
  8
1
 10
 22234.000
 20
  8286.222
 11
 22234.000
 21
  7763.629
  0
LINE
  8
1
 10
 22234.000
 20
  7763.629
 11
 22240.000
 21
  7763.629
  0
LINE
  8
1
 10
 22240.000
 20
  7763.629
 11
 22240.000
 21
  8286.222
  0
LINE
  8
1
 10
 22234.000
 20
  8286.222
 11
 22240.000
 21
  8286.222
  0
LINE
  8
1
 10
 22240.000
 20
  8286.222
 11
 22470.000
 21
  8263.222
  0
LINE
  8
1
 10
 22470.000
 20
  8263.222
 11
 22240.000
 21
  8171.222
  0
LINE
  8
1
 10
 17769.400
 20
  8480.454
 11
 21431.000
 21
  7763.629
  0
LINE
  8
1
 10
 21431.000
 20
  7763.629
 11
 21429.463
 21
  7755.778
  0
LINE
  8
1
 10
 21429.463
 20
  7755.778
 11
 17767.863
 21
  8472.604
  0
LINE
  8
1
 10
 17769.400
 20
  8480.454
 11
 17767.863
 21
  8472.604
  0
LINE
  8
1
 10
 17754.184
 20
  8785.053
 11
 17811.301
 21
  8779.342
  0
LINE
  8
1
 10
 17744.234
 20
  8685.550
 11
 17801.350
 21
  8679.838
  0
LINE
  8
1
 10
 17729.309
 20
  8536.294
 11
 17786.424
 21
  8530.582
  0
LINE
  8
1
 10
 17719.359
 20
  8436.790
 11
 17776.475
 21
  8431.078
  0
LINE
  8
1
 10
 17787.717
 20
  8831.949
 11
 17742.941
 21
  8384.182
  0
LINE
  8
1
 10
 17742.941
 20
  8384.182
 11
 17758.861
 21
  8382.590
  0
LINE
  8
1
 10
 17758.861
 20
  8382.590
 11
 17803.637
 21
  8830.357
  0
LINE
  8
1
 10
 17787.717
 20
  8831.949
 11
 17803.637
 21
  8830.357
  0
LINE
  8
1
 10
 22284.000
 20
  7776.329
 11
 22284.000
 21
  7718.930
  0
LINE
  8
1
 10
 22184.000
 20
  7776.329
 11
 22184.000
 21
  7718.930
  0
LINE
  8
1
 10
 21884.000
 20
  7776.329
 11
 21884.000
 21
  7718.930
  0
LINE
  8
1
 10
 21584.000
 20
  7776.329
 11
 21584.000
 21
  7718.930
  0
LINE
  8
1
 10
 21484.002
 20
  7776.329
 11
 21484.002
 21
  7718.930
  0
LINE
  8
1
 10
 22334.000
 20
  7747.629
 11
 21434.000
 21
  7747.629
  0
LINE
  8
1
 10
 21434.000
 20
  7747.629
 11
 21434.000
 21
  7763.629
  0
LINE
  8
1
 10
 21434.000
 20
  7763.629
 11
 22334.000
 21
  7763.629
  0
LINE
  8
1
 10
 22334.000
 20
  7747.629
 11
 22334.000
 21
  7763.629
  0
LINE
  8
1
 10
 17794.283
 20
  8736.823
 11
 17913.689
 21
  8724.883
  0
LINE
  8
1
 10
 17913.689
 20
  8724.883
 11
 17803.637
 21
  8830.357
  0
LINE
  8
1
 10
 17803.637
 20
  8830.357
 11
 17803.637
 21
  8830.357
  0
LINE
  8
1
 10
 17794.283
 20
  8736.823
 11
 17803.637
 21
  8830.357
  0
LINE
  8
1
 10
 17767.863
 20
  8472.604
 11
 17886.145
 21
  8449.447
  0
LINE
  8
1
 10
 17886.145
 20
  8449.447
 11
 17758.861
 21
  8382.590
  0
LINE
  8
1
 10
 17758.861
 20
  8382.590
 11
 17758.861
 21
  8382.590
  0
LINE
  8
1
 10
 17767.863
 20
  8472.604
 11
 17758.861
 21
  8382.590
  0
LINE
  8
1
 10
 22240.000
 20
  7763.629
 11
 22240.000
 21
  7883.629
  0
LINE
  8
1
 10
 22240.000
 20
  7883.629
 11
 22334.000
 21
  7763.629
  0
LINE
  8
1
 10
 22334.000
 20
  7763.629
 11
 22334.000
 21
  7763.629
  0
LINE
  8
1
 10
 22240.000
 20
  7763.629
 11
 22334.000
 21
  7763.629
  0
CIRCLE
  8
1
 10
 17778.363
 20
  8738.415
 40
     6.350
  0
LINE
  8
17
 10
 17772.014
 20
  8738.415
 11
 17784.715
 21
  8738.415
  0
LINE
  8
17
 10
 17778.363
 20
  8732.065
 11
 17778.363
 21
  8744.766
  0
CIRCLE
  8
1
 10
 17752.092
 20
  8475.690
 40
     6.350
  0
LINE
  8
17
 10
 17745.742
 20
  8475.690
 11
 17758.441
 21
  8475.690
  0
LINE
  8
17
 10
 17752.092
 20
  8469.340
 11
 17752.092
 21
  8482.040
  0
CIRCLE
  8
1
 10
 21434.000
 20
  7747.629
 40
     6.350
  0
LINE
  8
17
 10
 21427.650
 20
  7747.629
 11
 21440.350
 21
  7747.629
  0
LINE
  8
17
 10
 21434.000
 20
  7741.279
 11
 21434.000
 21
  7753.979
  0
CIRCLE
  8
1
 10
 22240.000
 20
  7747.629
 40
     6.350
  0
LINE
  8
17
 10
 22233.650
 20
  7747.629
 11
 22246.350
 21
  7747.629
  0
LINE
  8
17
 10
 22240.000
 20
  7741.279
 11
 22240.000
 21
  7753.979
  0
CIRCLE
  8
1
 10
 22240.000
 20
  8292.252
 40
     6.350
  0
LINE
  8
17
 10
 22233.650
 20
  8292.252
 11
 22246.350
 21
  8292.252
  0
LINE
  8
17
 10
 22240.000
 20
  8285.902
 11
 22240.000
 21
  8298.602
  0
LINE
  8
1
 10
 22234.000
 20
    16.000
 11
 21834.000
 21
    16.000
  0
LINE
  8
1
 10
 21834.000
 20
    16.000
 11
 21534.000
 21
  4016.000
  0
LINE
  8
1
 10
 21534.000
 20
  4016.000
 11
 21534.000
 21
  4016.000
  0
LINE
  8
1
 10
 21534.000
 20
  4016.000
 11
 22234.000
 21
  4016.000
  0
LINE
  8
1
 10
 22234.000
 20
    16.000
 11
 22234.000
 21
  4016.000
  0
LINE
  8
1
 10
 22234.000
 20
  4016.000
 11
 21534.000
 21
  4016.000
  0
LINE
  8
1
 10
 21534.000
 20
  4016.000
 11
 21534.000
 21
  7731.629
  0
LINE
  8
1
 10
 21534.000
 20
  7731.629
 11
 21534.000
 21
  7731.629
  0
LINE
  8
1
 10
 21534.000
 20
  7731.629
 11
 22234.000
 21
  7731.629
  0
LINE
  8
1
 10
 22234.000
 20
  4016.000
 11
 22234.000
 21
  7731.629
  0
LINE
  8
1
 10
 22134.000
 20
  5844.000
 11
 21534.000
 21
  5844.000
  0
LINE
  8
1
 10
 22134.000
 20
  5838.000
 11
 21534.000
 21
  5838.000
  0
LINE
  8
1
 10
 22134.000
 20
  5844.000
 11
 22134.000
 21
  5838.000
  0
LINE
  8
1
 10
 21534.000
 20
  5844.000
 11
 21534.000
 21
  5838.000
  0
LINE
  8
1
 10
 22134.000
 20
  6204.000
 11
 21534.000
 21
  6204.000
  0
LINE
  8
1
 10
 22134.000
 20
  6198.000
 11
 21534.000
 21
  6198.000
  0
LINE
  8
1
 10
 22134.000
 20
  6204.000
 11
 22134.000
 21
  6198.000
  0
LINE
  8
1
 10
 21534.000
 20
  6204.000
 11
 21534.000
 21
  6198.000
  0
LINE
  8
1
 10
 22234.000
 20
  6420.000
 11
 21634.000
 21
  6420.000
  0
LINE
  8
1
 10
 22234.000
 20
  6414.000
 11
 21634.000
 21
  6414.000
  0
LINE
  8
1
 10
 22234.000
 20
  6420.000
 11
 22234.000
 21
  6414.000
  0
LINE
  8
1
 10
 21634.000
 20
  6420.000
 11
 21634.000
 21
  6414.000
  0
LINE
  8
1
 10
 22234.000
 20
    16.000
 11
 22234.000
 21
  7731.629
  0
LINE
  8
1
 10
 22234.000
 20
  7731.629
 11
 22240.000
 21
  7731.629
  0
LINE
  8
1
 10
 22240.000
 20
  7731.629
 11
 22240.000
 21
    16.000
  0
LINE
  8
1
 10
 22234.000
 20
    16.000
 11
 22240.000
 21
    16.000
  0
LINE
  8
5
 10
 22259.400
 20
  7280.000
 11
 22221.301
 21
  7280.000
  0
LINE
  8
5
 10
 22259.400
 20
  5780.000
 11
 22221.301
 21
  5780.000
  0
LINE
  8
5
 10
 22259.400
 20
  4580.000
 11
 22221.301
 21
  4580.000
  0
LINE
  8
5
 10
 22259.400
 20
  3580.000
 11
 22221.301
 21
  3580.000
  0
LINE
  8
5
 10
 22259.400
 20
  2580.000
 11
 22221.301
 21
  2580.000
  0
LINE
  8
1
 10
 21833.967
 20
    16.449
 11
 21534.000
 21
  4016.000
  0
LINE
  8
1
 10
 21534.000
 20
  4016.000
 11
 21528.018
 21
  4015.551
  0
LINE
  8
1
 10
 21528.018
 20
  4015.551
 11
 21827.984
 21
    16.000
  0
LINE
  8
1
 10
 21833.967
 20
    16.449
 11
 21827.984
 21
    16.000
  0
LINE
  8
1
 10
 21534.000
 20
  4016.000
 11
 21534.000
 21
  7731.629
  0
LINE
  8
1
 10
 21534.000
 20
  7731.629
 11
 21528.000
 21
  7731.629
  0
LINE
  8
1
 10
 21528.000
 20
  7731.629
 11
 21528.000
 21
  4016.000
  0
LINE
  8
1
 10
 21534.000
 20
  4016.000
 11
 21528.000
 21
  4016.000
  0
CIRCLE
  8
1
 10
 21528.000
 20
  5846.000
 40
    12.700
  0
CIRCLE
  8
1
 10
 21528.000
 20
  6196.000
 40
    12.700
  0
LINE
  8
1
 10
 22312.000
 20
    28.700
 11
 22312.000
 21
   -28.700
  0
LINE
  8
1
 10
 22162.000
 20
    28.700
 11
 22162.000
 21
   -28.700
  0
LINE
  8
1
 10
 21907.193
 20
    28.700
 11
 21907.193
 21
   -28.700
  0
LINE
  8
1
 10
 21757.193
 20
    28.700
 11
 21757.193
 21
   -28.700
  0
LINE
  8
1
 10
 22387.000
 20
     0.000
 11
 21682.193
 21
     0.000
  0
LINE
  8
1
 10
 21682.193
 20
     0.000
 11
 21682.193
 21
    16.000
  0
LINE
  8
1
 10
 21682.193
 20
    16.000
 11
 22387.000
 21
    16.000
  0
LINE
  8
1
 10
 22387.000
 20
     0.000
 11
 22387.000
 21
    16.000
  0
LINE
  8
1
 10
 22284.000
 20
  7776.329
 11
 22284.000
 21
  7718.930
  0
LINE
  8
1
 10
 22184.000
 20
  7776.329
 11
 22184.000
 21
  7718.930
  0
LINE
  8
1
 10
 21884.000
 20
  7776.329
 11
 21884.000
 21
  7718.930
  0
LINE
  8
1
 10
 21584.000
 20
  7776.329
 11
 21584.000
 21
  7718.930
  0
LINE
  8
1
 10
 21484.002
 20
  7776.329
 11
 21484.002
 21
  7718.930
  0
LINE
  8
1
 10
 22334.000
 20
  7747.629
 11
 21434.000
 21
  7747.629
  0
LINE
  8
1
 10
 21434.000
 20
  7747.629
 11
 21434.000
 21
  7731.629
  0
LINE
  8
1
 10
 21434.000
 20
  7731.629
 11
 22334.000
 21
  7731.629
  0
LINE
  8
1
 10
 22334.000
 20
  7747.629
 11
 22334.000
 21
  7731.629
  0
LINE
  8
1
 10
 22240.000
 20
    16.000
 11
 22240.000
 21
   213.000
  0
LINE
  8
1
 10
 22240.000
 20
   213.000
 11
 22387.000
 21
    66.000
  0
LINE
  8
1
 10
 22387.000
 20
    66.000
 11
 22387.000
 21
    16.000
  0
LINE
  8
1
 10
 22240.000
 20
    16.000
 11
 22387.000
 21
    16.000
  0
LINE
  8
1
 10
 21827.984
 20
    16.000
 11
 21813.299
 21
   211.791
  0
LINE
  8
1
 10
 21813.299
 20
   211.791
 11
 21682.193
 21
    66.000
  0
LINE
  8
1
 10
 21682.193
 20
    66.000
 11
 21682.193
 21
    16.000
  0
LINE
  8
1
 10
 21827.984
 20
    16.000
 11
 21682.193
 21
    16.000
  0
LINE
  8
1
 10
 22240.000
 20
  7731.629
 11
 22240.000
 21
  7611.630
  0
LINE
  8
1
 10
 22240.000
 20
  7611.630
 11
 22334.000
 21
  7731.629
  0
LINE
  8
1
 10
 22334.000
 20
  7731.629
 11
 22334.000
 21
  7731.629
  0
LINE
  8
1
 10
 22240.000
 20
  7731.629
 11
 22334.000
 21
  7731.629
  0
LINE
  8
1
 10
 21528.000
 20
  7731.629
 11
 21528.000
 21
  7611.630
  0
LINE
  8
1
 10
 21528.000
 20
  7611.630
 11
 21434.000
 21
  7731.629
  0
LINE
  8
1
 10
 21434.000
 20
  7731.629
 11
 21434.000
 21
  7731.629
  0
LINE
  8
1
 10
 21528.000
 20
  7731.629
 11
 21434.000
 21
  7731.629
  0
CIRCLE
  8
1
 10
 22240.000
 20
  7747.629
 40
     6.350
  0
LINE
  8
17
 10
 22233.650
 20
  7747.629
 11
 22246.350
 21
  7747.629
  0
LINE
  8
17
 10
 22240.000
 20
  7741.279
 11
 22240.000
 21
  7753.979
  0
CIRCLE
  8
1
 10
 21528.000
 20
  7747.629
 40
     6.350
  0
LINE
  8
17
 10
 21521.650
 20
  7747.629
 11
 21534.350
 21
  7747.629
  0
LINE
  8
17
 10
 21528.000
 20
  7741.279
 11
 21528.000
 21
  7753.979
  0
CIRCLE
  8
1
 10
 21829.184
 20
     0.000
 40
     6.350
  0
LINE
  8
17
 10
 21822.834
 20
     0.000
 11
 21835.533
 21
     0.000
  0
LINE
  8
17
 10
 21829.184
 20
    -6.350
 11
 21829.184
 21
     6.350
  0
CIRCLE
  8
1
 10
 22240.000
 20
     0.000
 40
     6.350
  0
LINE
  8
17
 10
 22233.650
 20
     0.000
 11
 22246.350
 21
     0.000
  0
LINE
  8
17
 10
 22240.000
 20
    -6.350
 11
 22240.000
 21
     6.350
  0
LINE
  8
3
 10
     0.000
 20
  3580.000
 11
  -175.915
 21
  3478.293
  0
LINE
  8
3
 10
     0.000
 20
  3580.000
 11
  -176.007
 21
  3681.547
  0
LINE
  8
3
 10
  -176.007
 20
  3681.547
 11
  -175.915
 21
  3478.293
  0
LINE
  8
3
 10
     0.000
 20
  3580.000
 11
  -175.915
 21
  3478.293
  0
LINE
  8
3
 10
     0.000
 20
  3580.000
 11
  -176.007
 21
  3681.547
  0
LINE
  8
3
 10
  -176.007
 20
  3681.547
 11
  -175.915
 21
  3478.293
  0
LINE
  8
3
 10
  1367.082
 20
  8556.709
 11
  1248.376
 21
  8721.630
  0
LINE
  8
3
 10
  1367.082
 20
  8556.709
 11
  1450.611
 21
  8741.946
  0
LINE
  8
3
 10
  1450.611
 20
  8741.946
 11
  1248.376
 21
  8721.630
  0
LINE
  8
3
 10
  4101.145
 20
  8830.115
 11
  3982.439
 21
  8995.037
  0
LINE
  8
3
 10
  4101.145
 20
  8830.115
 11
  4184.674
 21
  9015.353
  0
LINE
  8
3
 10
  4184.674
 20
  9015.353
 11
  3982.439
 21
  8995.037
  0
LINE
  8
3
 10
  6835.308
 20
  9103.532
 11
  6716.603
 21
  9268.453
  0
LINE
  8
3
 10
  6835.308
 20
  9103.532
 11
  6918.838
 21
  9288.770
  0
LINE
  8
3
 10
  6918.838
 20
  9288.770
 11
  6716.603
 21
  9268.453
  0
LINE
  8
3
 10
  9569.473
 20
  9376.947
 11
  9450.767
 21
  9541.869
  0
LINE
  8
3
 10
  9569.473
 20
  9376.947
 11
  9653.002
 21
  9562.186
  0
LINE
  8
3
 10
  9653.002
 20
  9562.186
 11
  9450.767
 21
  9541.869
  0
LINE
  8
3
 10
 10936.454
 20
  9513.646
 11
 10817.748
 21
  9678.568
  0
LINE
  8
3
 10
 10936.454
 20
  9513.646
 11
 11019.983
 21
  9698.884
  0
LINE
  8
3
 10
 11019.983
 20
  9698.884
 11
 10817.748
 21
  9678.568
  0
LINE
  8
3
 10
  1367.082
 20
  8556.709
 11
  1248.376
 21
  8721.630
  0
LINE
  8
3
 10
  1367.082
 20
  8556.709
 11
  1450.611
 21
  8741.946
  0
LINE
  8
3
 10
  1450.611
 20
  8741.946
 11
  1248.376
 21
  8721.630
  0
LINE
  8
3
 10
  4101.145
 20
  8830.115
 11
  3982.439
 21
  8995.037
  0
LINE
  8
3
 10
  4101.145
 20
  8830.115
 11
  4184.674
 21
  9015.353
  0
LINE
  8
3
 10
  4184.674
 20
  9015.353
 11
  3982.439
 21
  8995.037
  0
LINE
  8
3
 10
  6835.308
 20
  9103.532
 11
  6716.603
 21
  9268.453
  0
LINE
  8
3
 10
  6835.308
 20
  9103.532
 11
  6918.838
 21
  9288.770
  0
LINE
  8
3
 10
  6918.838
 20
  9288.770
 11
  6716.603
 21
  9268.453
  0
LINE
  8
3
 10
  9569.473
 20
  9376.947
 11
  9450.767
 21
  9541.869
  0
LINE
  8
3
 10
  9569.473
 20
  9376.947
 11
  9653.002
 21
  9562.186
  0
LINE
  8
3
 10
  9653.002
 20
  9562.186
 11
  9450.767
 21
  9541.869
  0
LINE
  8
3
 10
 10936.454
 20
  9513.646
 11
 10817.748
 21
  9678.568
  0
LINE
  8
3
 10
 10936.454
 20
  9513.646
 11
 11019.983
 21
  9698.884
  0
LINE
  8
3
 10
 11019.983
 20
  9698.884
 11
 10817.748
 21
  9678.568
  0
LINE
  8
3
 10
 11533.512
 20
  9513.649
 11
 11449.814
 21
  9698.812
  0
LINE
  8
3
 10
 11533.512
 20
  9513.649
 11
 11652.067
 21
  9678.679
  0
LINE
  8
3
 10
 11652.067
 20
  9678.679
 11
 11449.814
 21
  9698.812
  0
LINE
  8
3
 10
 12900.592
 20
  9376.941
 11
 12816.895
 21
  9562.104
  0
LINE
  8
3
 10
 12900.592
 20
  9376.941
 11
 13019.147
 21
  9541.971
  0
LINE
  8
3
 10
 13019.147
 20
  9541.971
 11
 12816.895
 21
  9562.104
  0
LINE
  8
3
 10
 15634.658
 20
  9103.535
 11
 15550.961
 21
  9288.697
  0
LINE
  8
3
 10
 15634.658
 20
  9103.535
 11
 15753.214
 21
  9268.564
  0
LINE
  8
3
 10
 15753.214
 20
  9268.564
 11
 15550.961
 21
  9288.697
  0
LINE
  8
3
 10
 18368.820
 20
  8830.118
 11
 18285.123
 21
  9015.280
  0
LINE
  8
3
 10
 18368.820
 20
  8830.118
 11
 18487.377
 21
  8995.147
  0
LINE
  8
3
 10
 18487.377
 20
  8995.147
 11
 18285.123
 21
  9015.280
  0
LINE
  8
3
 10
 21102.982
 20
  8556.702
 11
 21019.285
 21
  8741.864
  0
LINE
  8
3
 10
 21102.982
 20
  8556.702
 11
 21221.539
 21
  8721.731
  0
LINE
  8
3
 10
 21221.539
 20
  8721.731
 11
 21019.285
 21
  8741.864
  0
LINE
  8
3
 10
 11533.512
 20
  9513.649
 11
 11449.814
 21
  9698.812
  0
LINE
  8
3
 10
 11533.512
 20
  9513.649
 11
 11652.067
 21
  9678.679
  0
LINE
  8
3
 10
 11652.067
 20
  9678.679
 11
 11449.814
 21
  9698.812
  0
LINE
  8
3
 10
 12900.592
 20
  9376.941
 11
 12816.895
 21
  9562.104
  0
LINE
  8
3
 10
 12900.592
 20
  9376.941
 11
 13019.147
 21
  9541.971
  0
LINE
  8
3
 10
 13019.147
 20
  9541.971
 11
 12816.895
 21
  9562.104
  0
LINE
  8
3
 10
 15634.658
 20
  9103.535
 11
 15550.961
 21
  9288.697
  0
LINE
  8
3
 10
 15634.658
 20
  9103.535
 11
 15753.214
 21
  9268.564
  0
LINE
  8
3
 10
 15753.214
 20
  9268.564
 11
 15550.961
 21
  9288.697
  0
LINE
  8
3
 10
 18368.820
 20
  8830.118
 11
 18285.123
 21
  9015.280
  0
LINE
  8
3
 10
 18368.820
 20
  8830.118
 11
 18487.377
 21
  8995.147
  0
LINE
  8
3
 10
 18487.377
 20
  8995.147
 11
 18285.123
 21
  9015.280
  0
LINE
  8
3
 10
 21102.982
 20
  8556.702
 11
 21019.285
 21
  8741.864
  0
LINE
  8
3
 10
 21102.982
 20
  8556.702
 11
 21221.539
 21
  8721.731
  0
LINE
  8
3
 10
 21221.539
 20
  8721.731
 11
 21019.285
 21
  8741.864
  0
LINE
  8
3
 10
 22470.000
 20
  3580.000
 11
 22645.916
 21
  3681.707
  0
LINE
  8
3
 10
 22470.000
 20
  3580.000
 11
 22646.006
 21
  3478.453
  0
LINE
  8
3
 10
 22646.006
 20
  3478.453
 11
 22645.916
 21
  3681.707
  0
LINE
  8
3
 10
 22470.000
 20
  3580.000
 11
 22645.916
 21
  3681.707
  0
LINE
  8
3
 10
 22470.000
 20
  3580.000
 11
 22646.006
 21
  3478.453
  0
LINE
  8
3
 10
 22646.006
 20
  3478.453
 11
 22645.916
 21
  3681.707
  0
LINE
  8
3
 10
  1530.000
 20
  6229.399
 11
  1530.000
 21
  6544.600
  0
LINE
  8
3
 10
  1430.000
 20
  6544.600
 11
  1630.000
 21
  6544.600
  0
LINE
  8
3
 10
  1430.000
 20
  6229.399
 11
  1630.000
 21
  6229.399
  0
LINE
  8
3
 10
 20940.000
 20
  6229.399
 11
 20940.000
 21
  6544.600
  0
LINE
  8
3
 10
 20840.000
 20
  6544.600
 11
 21040.000
 21
  6544.600
  0
LINE
  8
3
 10
 20840.000
 20
  6229.399
 11
 21040.000
 21
  6229.399
  0
LINE
  8
3
 10
  1530.000
 20
  6570.000
 11
  1530.000
 21
  6570.000
  0
LINE
  8
3
 10
 20940.000
 20
  6570.000
 11
 20940.000
 21
  6570.000
  0
LINE
  8
3
 10
  1530.000
 20
  6570.000
 11
 20940.000
 21
  6570.000
  0
LINE
  8
3
 10
 20940.000
 20
  6570.000
 11
  1530.000
 21
  6570.000
  0
TEXT
  8
16
 10
  -254.000
 20
  3556.315
 40
   127.000
  1
RF3-1
 50
    90.000
  0
TEXT
  8
16
 10
  2104.676
 20
  8885.734
 40
   127.000
  1
RF3-2
 50
     5.711
  0
TEXT
  8
16
 10
  7607.226
 20
  9434.984
 40
   127.000
  1
RF3-3
 50
     5.711
  0
TEXT
  8
16
 10
 14230.908
 20
  9498.171
 40
   127.000
  1
RF3-3
 50
    -5.711
  0
TEXT
  8
16
 10
 19733.457
 20
  8948.921
 40
   127.000
  1
RF3-2
 50
    -5.711
  0
TEXT
  8
16
 10
 22724.000
 20
  4191.314
 40
   127.000
  1
RF3-1
 50
   -90.000
  0
LINE
  8
0
 10
 -1402.900
 20
 -4643.333
 11
 23872.900
 21
 -4643.333
  0
LINE
  8
0
 10
 23872.900
 20
 -4643.333
 11
 23872.900
 21
 14313.517
  0
LINE
  8
0
 10
 23872.900
 20
 14313.517
 11
 -1402.900
 21
 14313.517
  0
LINE
  8
0
 10
 -1402.900
 20
 14313.517
 11
 -1402.900
 21
 -4643.333
  0
LINE
  8
0
 10
 -1402.900
 20
 -4017.757
 11
 23872.900
 21
 -4017.757
  0
TEXT
  8
0
 10
  6438.917
 20
 -4539.070
 40
   417.051
  1
Rigid Frame Detailing 3
 50
     0.000
  0
TEXT
  8
0
 10
 -1194.375
 20
 -4539.070
 40
   417.051
  1
C323-153-Final
 50
     0.000
  0
TEXT
  8
0
 10
 19076.818
 20
 -4539.070
 40
   417.051
  1
11/AUG/2025
 50
     0.000
  0
ENDSEC
  0
EOF
