  0
SECTION
  2
HEADER
  9
$ACADVER
  1
AC1009
  9
$EXTMIN
 10
 -1402.900
 20
 -4643.333
  9
$EXTMAX
 10
 23872.900
 20
 14313.517
  9
$LIMMIN
 10
 -1402.900
 20
 -4643.333
  9
$LIMMAX
 10
 23872.900
 20
 14313.517
  9
$FILLMODE
 70
     1
  9
$HANDLING
 70
     0
  0
ENDSEC
  0
SECTION
  2
TABLES
  0
TABLE
  2
LTYPE
 70
1
  0
LTYPE
  2
CONTIN
 70
    64
  3
SOLID LINE
 72
    65
 73
     0
 40
0.0
  0
LTYPE
  2
CONTINUOUS
 70
    64
  3
SOLID LINE
 72
    65
 73
     0
 40
0.0
  0
LTYPE
  2
CENTER
 70
    64
  3
____ _ ____ _ ____ _ ____ _ ____ _ ____ _ ____
 72
    65
 73
     4
 40
    16.336
 49
    10.210
 49
    -2.042
 49
     2.042
 49
    -2.042
  0
LTYPE
  2
DASHED
 70
    64
  3
__ __ __ __ __ __ __ __ __ __ __ __ __ __ __ 
 72
    65
 73
     2
 40
   303.31
 49
   202.20
 49
  -101.10
  0
ENDTAB
  0
TABLE
  2
LAYER
 70
30
  0
LAYER
  2
0
 70
     0
 62
     7
  6
CONTIN
  0
LAYER
  2
1
 70
     0
 62
     7
  6
CONTIN
  0
LAYER
  2
2
 70
     0
 62
     7
  6
CONTIN
  0
LAYER
  2
3
 70
     0
 62
     7
  6
CONTIN
  0
LAYER
  2
4
 70
     0
 62
     5
  6
CONTIN
  0
LAYER
  2
5
 70
     0
 62
     5
  6
DASHED
  0
LAYER
  2
6
 70
     0
 62
     5
  6
DASHED
  0
LAYER
  2
7
 70
     0
 62
     5
  6
CONTIN
  0
LAYER
  2
8
 70
     0
 62
     5
  6
DASHED
  0
LAYER
  2
9
 70
     0
 62
     7
  6
CONTIN
  0
LAYER
  2
10
 70
     0
 62
     7
  6
CONTIN
  0
LAYER
  2
11
 70
     0
 62
     6
  6
DASHED
  0
LAYER
  2
12
 70
     0
 62
     7
  6
DASHED
  0
LAYER
  2
13
 70
     0
 62
     5
  6
DASHED
  0
LAYER
  2
14
 70
     0
 62
     7
  6
CONTIN
  0
LAYER
  2
15
 70
     0
 62
     5
  6
CONTIN
  0
LAYER
  2
16
 70
     0
 62
     7
  6
CONTIN
  0
LAYER
  2
17
 70
     0
 62
     7
  6
CONTIN
  0
LAYER
  2
18
 70
     0
 62
     7
  6
CONTIN
  0
LAYER
  2
19
 70
     0
 62
     7
  6
CONTIN
  0
LAYER
  2
20
 70
     0
 62
     1
  6
CONTIN
  0
LAYER
  2
21
 70
     0
 62
     7
  6
CONTIN
  0
LAYER
  2
22
 70
     0
 62
     7
  6
DASHED
  0
LAYER
  2
23
 70
     0
 62
     7
  6
DASHED
  0
LAYER
  2
24
 70
     0
 62
     7
  6
CONTIN
  0
LAYER
  2
25
 70
     0
 62
     7
  6
CONTIN
  0
LAYER
  2
26
 70
     0
 62
     7
  6
CONTIN
  0
LAYER
  2
27
 70
     0
 62
     1
  6
CENTER
  0
LAYER
  2
28
 70
     0
 62
     7
  6
CONTIN
  0
LAYER
  2
29
 70
     0
 62
     3
  6
DASHED
  0
ENDTAB
  0
TABLE
  2
STYLE
 70
  0
  0
ENDTAB
  0
ENDSEC
  0
SECTION
  2
ENTITIES
  0
LINE
  8
5
 10
  1367.082
 20
  8556.708
 11
  1382.007
 21
  8407.452
  0
LINE
  8
5
 10
  2734.163
 20
  8693.417
 11
  2749.089
 21
  8544.161
  0
LINE
  8
5
 10
  4101.145
 20
  8830.114
 11
  4116.070
 21
  8680.859
  0
LINE
  8
5
 10
  5468.227
 20
  8966.822
 11
  5483.152
 21
  8817.567
  0
LINE
  8
5
 10
  6835.308
 20
  9103.531
 11
  6850.234
 21
  8954.275
  0
LINE
  8
5
 10
  8202.390
 20
  9240.239
 11
  8217.315
 21
  9090.983
  0
LINE
  8
5
 10
  9569.473
 20
  9376.947
 11
  9584.397
 21
  9227.692
  0
LINE
  8
5
 10
 10936.454
 20
  9513.646
 11
 10951.380
 21
  9364.391
  0
LINE
  8
5
 10
 11533.512
 20
  9513.648
 11
 11518.586
 21
  9364.394
  0
LINE
  8
5
 10
 12900.593
 20
  9376.940
 11
 12885.668
 21
  9227.686
  0
LINE
  8
5
 10
 14267.673
 20
  9240.232
 11
 14252.747
 21
  9090.978
  0
LINE
  8
5
 10
 15634.656
 20
  9103.534
 11
 15619.730
 21
  8954.279
  0
LINE
  8
5
 10
 17001.736
 20
  8966.826
 11
 16986.811
 21
  8817.571
  0
LINE
  8
5
 10
 18368.820
 20
  8830.117
 11
 18353.893
 21
  8680.862
  0
LINE
  8
5
 10
 19735.900
 20
  8693.409
 11
 19720.975
 21
  8544.154
  0
LINE
  8
5
 10
 21102.982
 20
  8556.701
 11
 21088.057
 21
  8407.446
  0
LINE
  8
1
 10
 11160.000
 20
  8813.980
 11
 11160.000
 21
    16.000
  0
LINE
  8
1
 10
 11310.000
 20
  8813.980
 11
 11310.000
 21
    16.000
  0
LINE
  8
5
 10
   839.800
 20
  3580.000
 11
   903.300
 21
  3580.000
  0
LINE
  8
5
 10
  1414.996
 20
  8077.564
 11
  1421.315
 21
  8014.380
  0
LINE
  8
5
 10
  4141.633
 20
  8425.235
 11
  4147.951
 21
  8362.051
  0
LINE
  8
5
 10
  6874.264
 20
  8713.974
 11
  6880.582
 21
  8650.789
  0
LINE
  8
5
 10
  9617.350
 20
  8898.165
 11
  9623.668
 21
  8834.980
  0
LINE
  8
5
 10
 10998.002
 20
  8898.165
 11
 11004.320
 21
  8834.980
  0
LINE
  8
5
 10
 11471.963
 20
  8898.165
 11
 11465.645
 21
  8834.980
  0
LINE
  8
5
 10
 12852.715
 20
  8898.165
 11
 12846.397
 21
  8834.980
  0
LINE
  8
5
 10
 15595.702
 20
  8713.978
 11
 15589.383
 21
  8650.793
  0
LINE
  8
5
 10
 18328.334
 20
  8425.239
 11
 18322.016
 21
  8362.055
  0
LINE
  8
5
 10
 21055.068
 20
  8077.557
 11
 21048.748
 21
  8014.372
  0
LINE
  8
5
 10
 21630.201
 20
  3580.000
 11
 21566.701
 21
  3580.000
  0
LINE
  8
8
 10
 11160.000
 20
  8829.981
 11
 11160.000
 21
     0.000
  0
LINE
  8
8
 10
 11310.000
 20
  8829.981
 11
 11310.000
 21
     0.000
  0
LINE
  8
1
 10
   942.000
 20
  6204.000
 11
  1730.000
 21
  6204.000
  0
LINE
  8
1
 10
   942.000
 20
  6196.000
 11
  1730.000
 21
  6196.000
  0
LINE
  8
1
 10
  1730.000
 20
  6204.000
 11
  1730.000
 21
  5838.000
  0
LINE
  8
1
 10
  1730.000
 20
  5838.000
 11
   942.000
 21
  5838.000
  0
LINE
  8
1
 10
  1730.000
 20
  5846.000
 11
   942.000
 21
  5846.000
  0
LINE
  8
1
 10
  1730.000
 20
  5838.000
 11
  1730.000
 21
  5738.000
  0
LINE
  8
1
 10
  1730.000
 20
  5738.000
 11
   942.000
 21
  5283.047
  0
LINE
  8
1
 10
 21528.000
 20
  6204.000
 11
 20740.000
 21
  6204.000
  0
LINE
  8
1
 10
 21528.000
 20
  6196.000
 11
 20740.000
 21
  6196.000
  0
LINE
  8
1
 10
 20740.000
 20
  6204.000
 11
 20740.000
 21
  5838.000
  0
LINE
  8
1
 10
 20740.000
 20
  5838.000
 11
 21528.000
 21
  5838.000
  0
LINE
  8
1
 10
 20740.000
 20
  5846.000
 11
 21528.000
 21
  5846.000
  0
LINE
  8
1
 10
 20740.000
 20
  5838.000
 11
 20740.000
 21
  5738.000
  0
LINE
  8
1
 10
 20740.000
 20
  5738.000
 11
 21528.000
 21
  5283.047
  0
LINE
  8
1
 10
 11135.000
 20
  8829.980
 11
 11135.000
 21
  8813.980
  0
LINE
  8
1
 10
 11135.000
 20
  8813.980
 11
 11335.000
 21
  8813.980
  0
LINE
  8
1
 10
 11335.000
 20
  8813.980
 11
 11335.000
 21
  8829.980
  0
CIRCLE
  8
5
 10
 21990.000
 20
  5542.800
 40
    11.000
  0
CIRCLE
  8
5
 10
 21890.000
 20
  5542.800
 40
    11.000
  0
CIRCLE
  8
5
 10
 21990.000
 20
  5442.800
 40
    11.000
  0
CIRCLE
  8
5
 10
 21890.000
 20
  5442.800
 40
    11.000
  0
CIRCLE
  8
5
 10
 21990.000
 20
  5116.180
 40
    11.000
  0
CIRCLE
  8
5
 10
 21890.000
 20
  5116.180
 40
    11.000
  0
CIRCLE
  8
5
 10
 21990.000
 20
  5016.180
 40
    11.000
  0
CIRCLE
  8
5
 10
 21890.000
 20
  5016.180
 40
    11.000
  0
CIRCLE
  8
5
 10
   480.000
 20
  5542.800
 40
    11.000
  0
CIRCLE
  8
5
 10
   580.000
 20
  5542.800
 40
    11.000
  0
CIRCLE
  8
5
 10
   480.000
 20
  5442.800
 40
    11.000
  0
CIRCLE
  8
5
 10
   580.000
 20
  5442.800
 40
    11.000
  0
CIRCLE
  8
5
 10
   480.000
 20
  5116.180
 40
    11.000
  0
CIRCLE
  8
5
 10
   580.000
 20
  5116.180
 40
    11.000
  0
CIRCLE
  8
5
 10
   480.000
 20
  5016.180
 40
    11.000
  0
CIRCLE
  8
5
 10
   580.000
 20
  5016.180
 40
    11.000
  0
LINE
  8
8
 10
     0.000
 20
     0.000
 11
     0.000
 21
  8420.000
  0
LINE
  8
8
 10
     0.000
 20
  8420.000
 11
 11235.000
 21
  9543.500
  0
LINE
  8
8
 10
 11235.000
 20
  9543.500
 11
 22470.000
 21
  8420.000
  0
LINE
  8
8
 10
 22470.000
 20
  8420.000
 11
 22470.000
 21
     0.000
  0
LINE
  8
1
 10
   236.000
 20
    16.000
 11
   636.000
 21
    16.000
  0
LINE
  8
1
 10
   636.000
 20
    16.000
 11
   936.000
 21
  4016.000
  0
LINE
  8
1
 10
   936.000
 20
  4016.000
 11
   936.000
 21
  4016.000
  0
LINE
  8
1
 10
   936.000
 20
  4016.000
 11
   236.000
 21
  4016.000
  0
LINE
  8
1
 10
   236.000
 20
    16.000
 11
   236.000
 21
  4016.000
  0
LINE
  8
1
 10
   236.000
 20
  4016.000
 11
   936.000
 21
  4016.000
  0
LINE
  8
1
 10
   936.000
 20
  4016.000
 11
   936.000
 21
  7933.632
  0
LINE
  8
1
 10
   936.000
 20
  7933.632
 11
   936.000
 21
  7933.632
  0
LINE
  8
1
 10
   936.000
 20
  7933.632
 11
   236.000
 21
  7933.632
  0
LINE
  8
1
 10
   236.000
 20
  4016.000
 11
   236.000
 21
  7933.632
  0
LINE
  8
1
 10
   336.000
 20
  5844.000
 11
   936.000
 21
  5844.000
  0
LINE
  8
1
 10
   336.000
 20
  5838.000
 11
   936.000
 21
  5838.000
  0
LINE
  8
1
 10
   336.000
 20
  5844.000
 11
   336.000
 21
  5838.000
  0
LINE
  8
1
 10
   936.000
 20
  5844.000
 11
   936.000
 21
  5838.000
  0
LINE
  8
1
 10
   336.000
 20
  6204.000
 11
   936.000
 21
  6204.000
  0
LINE
  8
1
 10
   336.000
 20
  6198.000
 11
   936.000
 21
  6198.000
  0
LINE
  8
1
 10
   336.000
 20
  6204.000
 11
   336.000
 21
  6198.000
  0
LINE
  8
1
 10
   936.000
 20
  6204.000
 11
   936.000
 21
  6198.000
  0
LINE
  8
1
 10
   236.000
 20
  6420.000
 11
   836.000
 21
  6420.000
  0
LINE
  8
1
 10
   236.000
 20
  6414.000
 11
   836.000
 21
  6414.000
  0
LINE
  8
1
 10
   236.000
 20
  6420.000
 11
   236.000
 21
  6414.000
  0
LINE
  8
1
 10
   836.000
 20
  6420.000
 11
   836.000
 21
  6414.000
  0
LINE
  8
1
 10
   236.000
 20
    16.000
 11
   236.000
 21
  7933.632
  0
LINE
  8
1
 10
   236.000
 20
  7933.632
 11
   230.000
 21
  7933.632
  0
LINE
  8
1
 10
   230.000
 20
  7933.632
 11
   230.000
 21
    16.000
  0
LINE
  8
1
 10
   236.000
 20
    16.000
 11
   230.000
 21
    16.000
  0
LINE
  8
5
 10
   210.600
 20
  2580.000
 11
   248.700
 21
  2580.000
  0
LINE
  8
5
 10
   210.600
 20
  3580.000
 11
   248.700
 21
  3580.000
  0
LINE
  8
5
 10
   210.600
 20
  4580.000
 11
   248.700
 21
  4580.000
  0
LINE
  8
5
 10
   210.600
 20
  5780.000
 11
   248.700
 21
  5780.000
  0
LINE
  8
5
 10
   210.600
 20
  7280.000
 11
   248.700
 21
  7280.000
  0
LINE
  8
1
 10
   636.034
 20
    16.449
 11
   936.000
 21
  4016.000
  0
LINE
  8
1
 10
   936.000
 20
  4016.000
 11
   941.983
 21
  4015.551
  0
LINE
  8
1
 10
   941.983
 20
  4015.551
 11
   642.017
 21
    16.000
  0
LINE
  8
1
 10
   636.034
 20
    16.449
 11
   642.017
 21
    16.000
  0
LINE
  8
1
 10
   936.000
 20
  4016.000
 11
   936.000
 21
  7933.632
  0
LINE
  8
1
 10
   936.000
 20
  7933.632
 11
   942.000
 21
  7933.632
  0
LINE
  8
1
 10
   942.000
 20
  7933.632
 11
   942.000
 21
  4016.000
  0
LINE
  8
1
 10
   936.000
 20
  4016.000
 11
   942.000
 21
  4016.000
  0
CIRCLE
  8
1
 10
   942.000
 20
  5846.000
 40
    12.700
  0
CIRCLE
  8
1
 10
   942.000
 20
  6196.000
 40
    12.700
  0
LINE
  8
1
 10
   158.000
 20
   -28.700
 11
   158.000
 21
    28.700
  0
LINE
  8
1
 10
   308.000
 20
   -28.700
 11
   308.000
 21
    28.700
  0
LINE
  8
1
 10
   562.808
 20
   -28.700
 11
   562.808
 21
    28.700
  0
LINE
  8
1
 10
   712.808
 20
   -28.700
 11
   712.808
 21
    28.700
  0
LINE
  8
1
 10
    83.000
 20
     0.000
 11
   787.808
 21
     0.000
  0
LINE
  8
1
 10
   787.808
 20
     0.000
 11
   787.808
 21
    16.000
  0
LINE
  8
1
 10
   787.808
 20
    16.000
 11
    83.000
 21
    16.000
  0
LINE
  8
1
 10
    83.000
 20
     0.000
 11
    83.000
 21
    16.000
  0
LINE
  8
1
 10
   186.000
 20
  7920.932
 11
   186.000
 21
  7978.332
  0
LINE
  8
1
 10
   286.000
 20
  7920.932
 11
   286.000
 21
  7978.332
  0
LINE
  8
1
 10
   586.000
 20
  7920.932
 11
   586.000
 21
  7978.332
  0
LINE
  8
1
 10
   886.000
 20
  7920.932
 11
   886.000
 21
  7978.332
  0
LINE
  8
1
 10
   986.000
 20
  7920.932
 11
   986.000
 21
  7978.332
  0
LINE
  8
1
 10
   136.000
 20
  7949.632
 11
  1036.000
 21
  7949.632
  0
LINE
  8
1
 10
  1036.000
 20
  7949.632
 11
  1036.000
 21
  7933.632
  0
LINE
  8
1
 10
  1036.000
 20
  7933.632
 11
   136.000
 21
  7933.632
  0
LINE
  8
1
 10
   136.000
 20
  7949.632
 11
   136.000
 21
  7933.632
  0
LINE
  8
1
 10
   230.000
 20
    16.000
 11
   230.000
 21
   213.000
  0
LINE
  8
1
 10
   230.000
 20
   213.000
 11
    83.000
 21
    66.000
  0
LINE
  8
1
 10
    83.000
 20
    66.000
 11
    83.000
 21
    16.000
  0
LINE
  8
1
 10
   230.000
 20
    16.000
 11
    83.000
 21
    16.000
  0
LINE
  8
1
 10
   642.017
 20
    16.000
 11
   656.701
 21
   211.792
  0
LINE
  8
1
 10
   656.701
 20
   211.792
 11
   787.808
 21
    66.000
  0
LINE
  8
1
 10
   787.808
 20
    66.000
 11
   787.808
 21
    16.000
  0
LINE
  8
1
 10
   642.017
 20
    16.000
 11
   787.808
 21
    16.000
  0
LINE
  8
1
 10
   230.000
 20
  7933.632
 11
   230.000
 21
  7813.632
  0
LINE
  8
1
 10
   230.000
 20
  7813.632
 11
   136.000
 21
  7933.632
  0
LINE
  8
1
 10
   136.000
 20
  7933.632
 11
   136.000
 21
  7933.632
  0
LINE
  8
1
 10
   230.000
 20
  7933.632
 11
   136.000
 21
  7933.632
  0
LINE
  8
1
 10
   942.000
 20
  7933.632
 11
   942.000
 21
  7813.632
  0
LINE
  8
1
 10
   942.000
 20
  7813.632
 11
  1036.000
 21
  7933.632
  0
LINE
  8
1
 10
  1036.000
 20
  7933.632
 11
  1036.000
 21
  7933.632
  0
LINE
  8
1
 10
   942.000
 20
  7933.632
 11
  1036.000
 21
  7933.632
  0
CIRCLE
  8
1
 10
   230.000
 20
     0.000
 40
     6.350
  0
LINE
  8
17
 10
   223.650
 20
     0.000
 11
   236.350
 21
     0.000
  0
LINE
  8
17
 10
   230.000
 20
    -6.350
 11
   230.000
 21
     6.350
  0
CIRCLE
  8
1
 10
   640.817
 20
     0.000
 40
     6.350
  0
LINE
  8
17
 10
   634.467
 20
     0.000
 11
   647.167
 21
     0.000
  0
LINE
  8
17
 10
   640.817
 20
    -6.350
 11
   640.817
 21
     6.350
  0
CIRCLE
  8
1
 10
   942.000
 20
  7949.632
 40
     6.350
  0
LINE
  8
17
 10
   935.650
 20
  7949.632
 11
   948.350
 21
  7949.632
  0
LINE
  8
17
 10
   942.000
 20
  7943.282
 11
   942.000
 21
  7955.982
  0
CIRCLE
  8
1
 10
   230.000
 20
  7949.632
 40
     6.350
  0
LINE
  8
17
 10
   223.650
 20
  7949.632
 11
   236.350
 21
  7949.632
  0
LINE
  8
17
 10
   230.000
 20
  7943.282
 11
   230.000
 21
  7955.982
  0
LINE
  8
1
 10
  4664.734
 20
  8730.700
 11
  4694.629
 21
  8431.757
  0
LINE
  8
1
 10
  4694.629
 20
  8431.757
 11
  1039.000
 21
  7965.631
  0
LINE
  8
1
 10
  1039.000
 20
  7965.631
 11
   236.000
 21
  7965.631
  0
LINE
  8
1
 10
   236.000
 20
  7965.631
 11
   236.000
 21
  8287.826
  0
LINE
  8
1
 10
  4664.734
 20
  8730.700
 11
   236.000
 21
  8287.826
  0
LINE
  8
1
 10
   906.163
 20
  8324.143
 11
   941.985
 21
  7965.930
  0
LINE
  8
1
 10
   900.193
 20
  8323.546
 11
   936.015
 21
  7965.333
  0
LINE
  8
1
 10
   906.163
 20
  8324.143
 11
   900.193
 21
  8323.546
  0
LINE
  8
1
 10
   941.985
 20
  7965.930
 11
   936.015
 21
  7965.333
  0
LINE
  8
1
 10
  4664.734
 20
  8730.700
 11
    10.498
 21
  8265.276
  0
LINE
  8
1
 10
    10.498
 20
  8265.276
 11
    10.000
 21
  8270.251
  0
LINE
  8
1
 10
    10.000
 20
  8270.251
 11
  4664.237
 21
  8735.675
  0
LINE
  8
1
 10
  4664.734
 20
  8730.700
 11
  4664.237
 21
  8735.675
  0
LINE
  8
5
 10
    92.499
 20
  8299.003
 11
    96.290
 21
  8261.092
  0
LINE
  8
1
 10
   236.000
 20
  7965.631
 11
   236.000
 21
  8287.326
  0
LINE
  8
1
 10
   236.000
 20
  8287.326
 11
   231.000
 21
  8287.326
  0
LINE
  8
1
 10
   231.000
 20
  8287.326
 11
   231.000
 21
  7965.631
  0
LINE
  8
1
 10
   236.000
 20
  7965.631
 11
   231.000
 21
  7965.631
  0
LINE
  8
1
 10
   231.000
 20
  8287.326
 11
     1.000
 21
  8264.326
  0
LINE
  8
1
 10
     1.000
 20
  8264.326
 11
   231.000
 21
  8172.327
  0
LINE
  8
1
 10
  4694.495
 20
  8431.739
 11
  1039.000
 21
  7965.631
  0
LINE
  8
1
 10
  1039.000
 20
  7965.631
 11
  1039.633
 21
  7960.671
  0
LINE
  8
1
 10
  1039.633
 20
  7960.671
 11
  4695.127
 21
  8426.779
  0
LINE
  8
1
 10
  4694.495
 20
  8431.739
 11
  4695.127
 21
  8426.779
  0
LINE
  8
1
 10
  4647.123
 20
  8779.188
 11
  4704.238
 21
  8784.900
  0
LINE
  8
1
 10
  4657.073
 20
  8679.686
 11
  4714.188
 21
  8685.396
  0
LINE
  8
1
 10
  4676.974
 20
  8480.678
 11
  4734.089
 21
  8486.389
  0
LINE
  8
1
 10
  4686.924
 20
  8381.175
 11
  4744.040
 21
  8386.886
  0
LINE
  8
1
 10
  4670.705
 20
  8831.797
 11
  4720.457
 21
  8334.277
  0
LINE
  8
1
 10
  4720.457
 20
  8334.277
 11
  4704.537
 21
  8332.685
  0
LINE
  8
1
 10
  4704.537
 20
  8332.685
 11
  4654.784
 21
  8830.204
  0
LINE
  8
1
 10
  4670.705
 20
  8831.797
 11
  4654.784
 21
  8830.204
  0
LINE
  8
1
 10
   186.000
 20
  7920.932
 11
   186.000
 21
  7978.332
  0
LINE
  8
1
 10
   286.000
 20
  7920.932
 11
   286.000
 21
  7978.332
  0
LINE
  8
1
 10
   586.000
 20
  7920.932
 11
   586.000
 21
  7978.332
  0
LINE
  8
1
 10
   886.000
 20
  7920.932
 11
   886.000
 21
  7978.332
  0
LINE
  8
1
 10
   986.000
 20
  7920.932
 11
   986.000
 21
  7978.332
  0
LINE
  8
1
 10
   136.000
 20
  7949.632
 11
  1036.000
 21
  7949.632
  0
LINE
  8
1
 10
  1036.000
 20
  7949.632
 11
  1036.000
 21
  7965.631
  0
LINE
  8
1
 10
  1036.000
 20
  7965.631
 11
   136.000
 21
  7965.631
  0
LINE
  8
1
 10
   136.000
 20
  7949.632
 11
   136.000
 21
  7965.631
  0
LINE
  8
1
 10
  4664.237
 20
  8735.675
 11
  4544.833
 21
  8723.734
  0
LINE
  8
1
 10
  4544.833
 20
  8723.734
 11
  4654.784
 21
  8830.204
  0
LINE
  8
1
 10
  4654.784
 20
  8830.204
 11
  4654.784
 21
  8830.204
  0
LINE
  8
1
 10
  4664.237
 20
  8735.675
 11
  4654.784
 21
  8830.204
  0
LINE
  8
1
 10
  4695.127
 20
  8426.779
 11
  4576.047
 21
  8411.596
  0
LINE
  8
1
 10
  4576.047
 20
  8411.596
 11
  4704.537
 21
  8332.685
  0
LINE
  8
1
 10
  4704.537
 20
  8332.685
 11
  4704.537
 21
  8332.685
  0
LINE
  8
1
 10
  4695.127
 20
  8426.779
 11
  4704.537
 21
  8332.685
  0
LINE
  8
1
 10
   231.000
 20
  7965.631
 11
   231.000
 21
  8085.631
  0
LINE
  8
1
 10
   231.000
 20
  8085.631
 11
   136.000
 21
  7965.631
  0
LINE
  8
1
 10
   136.000
 20
  7965.631
 11
   136.000
 21
  7965.631
  0
LINE
  8
1
 10
   231.000
 20
  7965.631
 11
   136.000
 21
  7965.631
  0
CIRCLE
  8
1
 10
   231.000
 20
  7949.632
 40
     6.350
  0
LINE
  8
17
 10
   224.650
 20
  7949.632
 11
   237.350
 21
  7949.632
  0
LINE
  8
17
 10
   231.000
 20
  7943.282
 11
   231.000
 21
  7955.982
  0
CIRCLE
  8
1
 10
  1036.000
 20
  7949.632
 40
     6.350
  0
LINE
  8
17
 10
  1029.650
 20
  7949.632
 11
  1042.350
 21
  7949.632
  0
LINE
  8
17
 10
  1036.000
 20
  7943.282
 11
  1036.000
 21
  7955.982
  0
CIRCLE
  8
1
 10
  4711.004
 20
  8428.804
 40
     6.350
  0
LINE
  8
17
 10
  4704.654
 20
  8428.804
 11
  4717.354
 21
  8428.804
  0
LINE
  8
17
 10
  4711.004
 20
  8422.454
 11
  4711.004
 21
  8435.154
  0
CIRCLE
  8
1
 10
  4680.158
 20
  8737.268
 40
     6.350
  0
LINE
  8
17
 10
  4673.808
 20
  8737.268
 11
  4686.508
 21
  8737.268
  0
LINE
  8
17
 10
  4680.158
 20
  8730.917
 11
  4680.158
 21
  8743.617
  0
CIRCLE
  8
1
 10
   231.000
 20
  8292.352
 40
     6.350
  0
LINE
  8
17
 10
   224.650
 20
  8292.352
 11
   237.350
 21
  8292.352
  0
LINE
  8
17
 10
   231.000
 20
  8286.002
 11
   231.000
 21
  8298.702
  0
LINE
  8
1
 10
  8676.725
 20
  9131.899
 11
  8706.575
 21
  8833.389
  0
LINE
  8
1
 10
  8706.575
 20
  8833.389
 11
  4726.427
 21
  8435.373
  0
LINE
  8
1
 10
  4726.427
 20
  8435.373
 11
  4726.427
 21
  8435.373
  0
LINE
  8
1
 10
  4726.427
 20
  8435.373
 11
  4696.576
 21
  8733.885
  0
LINE
  8
1
 10
  8676.725
 20
  9131.899
 11
  4696.576
 21
  8733.885
  0
LINE
  8
1
 10
  8676.725
 20
  9131.899
 11
  4696.576
 21
  8733.885
  0
LINE
  8
1
 10
  4696.576
 20
  8733.885
 11
  4696.079
 21
  8738.859
  0
LINE
  8
1
 10
  4696.079
 20
  8738.859
 11
  8676.227
 21
  9136.875
  0
LINE
  8
1
 10
  8676.725
 20
  9131.899
 11
  8676.227
 21
  9136.875
  0
LINE
  8
1
 10
  8706.575
 20
  8833.389
 11
  4726.427
 21
  8435.373
  0
LINE
  8
1
 10
  4726.427
 20
  8435.373
 11
  4726.925
 21
  8430.398
  0
LINE
  8
1
 10
  4726.925
 20
  8430.398
 11
  8707.073
 21
  8828.414
  0
LINE
  8
1
 10
  8706.575
 20
  8833.389
 11
  8707.073
 21
  8828.414
  0
LINE
  8
1
 10
  8659.111
 20
  9180.389
 11
  8716.228
 21
  9186.100
  0
LINE
  8
1
 10
  8669.062
 20
  9080.885
 11
  8726.178
 21
  9086.597
  0
LINE
  8
1
 10
  8688.963
 20
  8881.877
 11
  8746.079
 21
  8887.589
  0
LINE
  8
1
 10
  8698.914
 20
  8782.374
 11
  8756.029
 21
  8788.085
  0
LINE
  8
1
 10
  8682.694
 20
  9232.996
 11
  8732.446
 21
  8735.477
  0
LINE
  8
1
 10
  8732.446
 20
  8735.477
 11
  8716.526
 21
  8733.885
  0
LINE
  8
1
 10
  8716.526
 20
  8733.885
 11
  8666.774
 21
  9231.404
  0
LINE
  8
1
 10
  8682.694
 20
  9232.996
 11
  8666.774
 21
  9231.404
  0
LINE
  8
1
 10
  4647.123
 20
  8779.188
 11
  4704.238
 21
  8784.900
  0
LINE
  8
1
 10
  4657.073
 20
  8679.686
 11
  4714.188
 21
  8685.396
  0
LINE
  8
1
 10
  4676.974
 20
  8480.678
 11
  4734.089
 21
  8486.389
  0
LINE
  8
1
 10
  4686.924
 20
  8381.175
 11
  4744.040
 21
  8386.886
  0
LINE
  8
1
 10
  4670.705
 20
  8831.797
 11
  4720.457
 21
  8334.277
  0
LINE
  8
1
 10
  4720.457
 20
  8334.277
 11
  4736.378
 21
  8335.869
  0
LINE
  8
1
 10
  4736.378
 20
  8335.869
 11
  4686.625
 21
  8833.389
  0
LINE
  8
1
 10
  4670.705
 20
  8831.797
 11
  4686.625
 21
  8833.389
  0
LINE
  8
1
 10
  8676.227
 20
  9136.875
 11
  8556.822
 21
  9124.935
  0
LINE
  8
1
 10
  8556.822
 20
  9124.935
 11
  8666.774
 21
  9231.404
  0
LINE
  8
1
 10
  8666.774
 20
  9231.404
 11
  8666.774
 21
  9231.404
  0
LINE
  8
1
 10
  8676.227
 20
  9136.875
 11
  8666.774
 21
  9231.404
  0
LINE
  8
1
 10
  8707.073
 20
  8828.414
 11
  8587.669
 21
  8816.474
  0
LINE
  8
1
 10
  8587.669
 20
  8816.474
 11
  8716.526
 21
  8733.885
  0
LINE
  8
1
 10
  8716.526
 20
  8733.885
 11
  8716.526
 21
  8733.885
  0
LINE
  8
1
 10
  8707.073
 20
  8828.414
 11
  8716.526
 21
  8733.885
  0
LINE
  8
1
 10
  4696.079
 20
  8738.859
 11
  4815.483
 21
  8750.800
  0
LINE
  8
1
 10
  4815.483
 20
  8750.800
 11
  4686.625
 21
  8833.389
  0
LINE
  8
1
 10
  4686.625
 20
  8833.389
 11
  4686.625
 21
  8833.389
  0
LINE
  8
1
 10
  4696.079
 20
  8738.859
 11
  4686.625
 21
  8833.389
  0
LINE
  8
1
 10
  4726.925
 20
  8430.398
 11
  4846.329
 21
  8442.339
  0
LINE
  8
1
 10
  4846.329
 20
  8442.339
 11
  4736.378
 21
  8335.869
  0
LINE
  8
1
 10
  4736.378
 20
  8335.869
 11
  4736.378
 21
  8335.869
  0
LINE
  8
1
 10
  4726.925
 20
  8430.398
 11
  4736.378
 21
  8335.869
  0
CIRCLE
  8
1
 10
  4680.158
 20
  8737.268
 40
     6.350
  0
LINE
  8
17
 10
  4673.808
 20
  8737.268
 11
  4686.508
 21
  8737.268
  0
LINE
  8
17
 10
  4680.158
 20
  8730.917
 11
  4680.158
 21
  8743.617
  0
CIRCLE
  8
1
 10
  4711.004
 20
  8428.807
 40
     6.350
  0
LINE
  8
17
 10
  4704.654
 20
  8428.807
 11
  4717.354
 21
  8428.807
  0
LINE
  8
17
 10
  4711.004
 20
  8422.456
 11
  4711.004
 21
  8435.156
  0
CIRCLE
  8
1
 10
  8722.994
 20
  8830.006
 40
     6.350
  0
LINE
  8
17
 10
  8716.644
 20
  8830.006
 11
  8729.344
 21
  8830.006
  0
LINE
  8
17
 10
  8722.994
 20
  8823.656
 11
  8722.994
 21
  8836.355
  0
CIRCLE
  8
1
 10
  8692.147
 20
  9138.467
 40
     6.350
  0
LINE
  8
17
 10
  8685.798
 20
  9138.467
 11
  8698.498
 21
  9138.467
  0
LINE
  8
17
 10
  8692.147
 20
  9132.117
 11
  8692.147
 21
  9144.816
  0
LINE
  8
1
 10
  8738.576
 20
  8834.980
 11
  8708.566
 21
  9135.084
  0
LINE
  8
1
 10
  8708.566
 20
  9135.084
 11
 11235.000
 21
  9387.727
  0
LINE
  8
1
 10
 11235.000
 20
  9387.727
 11
 13761.400
 21
  9135.087
  0
LINE
  8
1
 10
 13761.400
 20
  9135.087
 11
 13731.390
 21
  8834.980
  0
LINE
  8
1
 10
  8738.576
 20
  8834.980
 11
 13731.390
 21
  8834.980
  0
LINE
  8
1
 10
  8708.566
 20
  9135.084
 11
 11235.000
 21
  9387.727
  0
LINE
  8
1
 10
 11235.000
 20
  9387.727
 11
 11234.503
 21
  9392.702
  0
LINE
  8
1
 10
 11234.503
 20
  9392.702
 11
  8708.068
 21
  9140.059
  0
LINE
  8
1
 10
  8708.566
 20
  9135.084
 11
  8708.068
 21
  9140.059
  0
LINE
  8
1
 10
 11235.000
 20
  9387.727
 11
 13761.400
 21
  9135.087
  0
LINE
  8
1
 10
 13761.400
 20
  9135.087
 11
 13761.897
 21
  9140.062
  0
LINE
  8
1
 10
 13761.897
 20
  9140.062
 11
 11235.498
 21
  9392.702
  0
LINE
  8
1
 10
 11235.000
 20
  9387.727
 11
 11235.498
 21
  9392.702
  0
LINE
  8
1
 10
  8739.076
 20
  8834.980
 11
 13730.889
 21
  8834.980
  0
LINE
  8
1
 10
 13730.889
 20
  8834.980
 11
 13730.889
 21
  8829.981
  0
LINE
  8
1
 10
 13730.889
 20
  8829.981
 11
  8739.076
 21
  8829.981
  0
LINE
  8
1
 10
  8739.076
 20
  8834.980
 11
  8739.076
 21
  8829.981
  0
LINE
  8
5
 10
 11185.000
 20
  8847.681
 11
 11185.000
 21
  8809.581
  0
LINE
  8
5
 10
 11285.000
 20
  8847.681
 11
 11285.000
 21
  8809.581
  0
LINE
  8
1
 10
 11238.000
 20
  9284.980
 11
 11238.000
 21
  8834.980
  0
LINE
  8
1
 10
 11232.000
 20
  9284.980
 11
 11232.000
 21
  8834.980
  0
LINE
  8
1
 10
 11238.000
 20
  9284.980
 11
 11232.000
 21
  9284.980
  0
LINE
  8
1
 10
 11238.000
 20
  8834.980
 11
 11232.000
 21
  8834.980
  0
LINE
  8
1
 10
  8659.111
 20
  9180.389
 11
  8716.228
 21
  9186.100
  0
LINE
  8
1
 10
  8669.062
 20
  9080.885
 11
  8726.178
 21
  9086.597
  0
LINE
  8
1
 10
  8688.963
 20
  8881.877
 11
  8746.079
 21
  8887.589
  0
LINE
  8
1
 10
  8698.914
 20
  8782.374
 11
  8756.029
 21
  8788.085
  0
LINE
  8
1
 10
  8682.694
 20
  9232.996
 11
  8732.446
 21
  8735.477
  0
LINE
  8
1
 10
  8732.446
 20
  8735.477
 11
  8748.367
 21
  8737.069
  0
LINE
  8
1
 10
  8748.367
 20
  8737.069
 11
  8698.615
 21
  9234.588
  0
LINE
  8
1
 10
  8682.694
 20
  9232.996
 11
  8698.615
 21
  9234.588
  0
LINE
  8
1
 10
 13753.737
 20
  9186.103
 11
 13810.853
 21
  9180.392
  0
LINE
  8
1
 10
 13743.787
 20
  9086.599
 11
 13800.903
 21
  9080.888
  0
LINE
  8
1
 10
 13723.886
 20
  8887.592
 11
 13781.002
 21
  8881.880
  0
LINE
  8
1
 10
 13713.937
 20
  8788.088
 11
 13771.053
 21
  8782.376
  0
LINE
  8
1
 10
 13787.270
 20
  9232.999
 11
 13737.520
 21
  8735.479
  0
LINE
  8
1
 10
 13737.520
 20
  8735.479
 11
 13721.600
 21
  8737.070
  0
LINE
  8
1
 10
 13721.600
 20
  8737.070
 11
 13771.350
 21
  9234.591
  0
LINE
  8
1
 10
 13787.270
 20
  9232.999
 11
 13771.350
 21
  9234.591
  0
LINE
  8
1
 10
  8708.068
 20
  9140.059
 11
  8827.473
 21
  9151.999
  0
LINE
  8
1
 10
  8827.473
 20
  9151.999
 11
  8698.615
 21
  9234.588
  0
LINE
  8
1
 10
  8698.615
 20
  9234.588
 11
  8698.615
 21
  9234.588
  0
LINE
  8
1
 10
  8708.068
 20
  9140.059
 11
  8698.615
 21
  9234.588
  0
LINE
  8
1
 10
  8739.076
 20
  8829.981
 11
  8859.676
 21
  8829.981
  0
LINE
  8
1
 10
  8859.676
 20
  8829.981
 11
  8748.367
 21
  8737.069
  0
LINE
  8
1
 10
  8748.367
 20
  8737.069
 11
  8748.367
 21
  8737.069
  0
LINE
  8
1
 10
  8739.076
 20
  8829.981
 11
  8748.367
 21
  8737.069
  0
LINE
  8
1
 10
 13761.897
 20
  9140.062
 11
 13642.492
 21
  9152.003
  0
LINE
  8
1
 10
 13642.492
 20
  9152.003
 11
 13771.350
 21
  9234.591
  0
LINE
  8
1
 10
 13771.350
 20
  9234.591
 11
 13771.350
 21
  9234.591
  0
LINE
  8
1
 10
 13761.897
 20
  9140.062
 11
 13771.350
 21
  9234.591
  0
LINE
  8
1
 10
 13730.891
 20
  8829.981
 11
 13610.292
 21
  8829.981
  0
LINE
  8
1
 10
 13610.292
 20
  8829.981
 11
 13721.600
 21
  8737.070
  0
LINE
  8
1
 10
 13721.600
 20
  8737.070
 11
 13721.600
 21
  8737.070
  0
LINE
  8
1
 10
 13730.891
 20
  8829.981
 11
 13721.600
 21
  8737.070
  0
CIRCLE
  8
1
 10
  8692.147
 20
  9138.467
 40
     6.350
  0
LINE
  8
17
 10
  8685.798
 20
  9138.467
 11
  8698.498
 21
  9138.467
  0
LINE
  8
17
 10
  8692.147
 20
  9132.117
 11
  8692.147
 21
  9144.816
  0
CIRCLE
  8
1
 10
  8722.996
 20
  8829.981
 40
     6.350
  0
LINE
  8
17
 10
  8716.646
 20
  8829.981
 11
  8729.346
 21
  8829.981
  0
LINE
  8
17
 10
  8722.996
 20
  8823.631
 11
  8722.996
 21
  8836.331
  0
CIRCLE
  8
1
 10
 13746.969
 20
  8829.981
 40
     6.350
  0
LINE
  8
17
 10
 13740.618
 20
  8829.981
 11
 13753.318
 21
  8829.981
  0
LINE
  8
17
 10
 13746.969
 20
  8823.631
 11
 13746.969
 21
  8836.331
  0
CIRCLE
  8
1
 10
 13777.817
 20
  9138.470
 40
     6.350
  0
LINE
  8
17
 10
 13771.468
 20
  9138.470
 11
 13784.168
 21
  9138.470
  0
LINE
  8
17
 10
 13777.817
 20
  9132.120
 11
 13777.817
 21
  9144.820
  0
LINE
  8
1
 10
 13793.240
 20
  9131.903
 11
 13763.389
 21
  8833.392
  0
LINE
  8
1
 10
 13763.389
 20
  8833.392
 11
 17743.539
 21
  8435.377
  0
LINE
  8
1
 10
 17743.539
 20
  8435.377
 11
 17743.539
 21
  8435.377
  0
LINE
  8
1
 10
 17743.539
 20
  8435.377
 11
 17773.391
 21
  8733.889
  0
LINE
  8
1
 10
 13793.240
 20
  9131.903
 11
 17773.391
 21
  8733.889
  0
LINE
  8
1
 10
 13793.240
 20
  9131.903
 11
 17773.391
 21
  8733.889
  0
LINE
  8
1
 10
 17773.391
 20
  8733.889
 11
 17773.889
 21
  8738.863
  0
LINE
  8
1
 10
 17773.889
 20
  8738.863
 11
 13793.737
 21
  9136.878
  0
LINE
  8
1
 10
 13793.240
 20
  9131.903
 11
 13793.737
 21
  9136.878
  0
LINE
  8
1
 10
 13763.389
 20
  8833.392
 11
 17743.539
 21
  8435.377
  0
LINE
  8
1
 10
 17743.539
 20
  8435.377
 11
 17743.043
 21
  8430.402
  0
LINE
  8
1
 10
 17743.043
 20
  8430.402
 11
 13762.892
 21
  8828.417
  0
LINE
  8
1
 10
 13763.389
 20
  8833.392
 11
 13762.892
 21
  8828.417
  0
LINE
  8
1
 10
 13753.737
 20
  9186.103
 11
 13810.853
 21
  9180.392
  0
LINE
  8
1
 10
 13743.787
 20
  9086.599
 11
 13800.903
 21
  9080.888
  0
LINE
  8
1
 10
 13723.886
 20
  8887.592
 11
 13781.002
 21
  8881.880
  0
LINE
  8
1
 10
 13713.937
 20
  8788.088
 11
 13771.053
 21
  8782.376
  0
LINE
  8
1
 10
 13787.270
 20
  9232.999
 11
 13737.520
 21
  8735.479
  0
LINE
  8
1
 10
 13737.520
 20
  8735.479
 11
 13753.439
 21
  8733.886
  0
LINE
  8
1
 10
 13753.439
 20
  8733.886
 11
 13803.189
 21
  9231.407
  0
LINE
  8
1
 10
 13787.270
 20
  9232.999
 11
 13803.189
 21
  9231.407
  0
LINE
  8
1
 10
 17765.729
 20
  8784.904
 11
 17822.844
 21
  8779.192
  0
LINE
  8
1
 10
 17755.777
 20
  8685.400
 11
 17812.895
 21
  8679.688
  0
LINE
  8
1
 10
 17735.877
 20
  8486.393
 11
 17792.992
 21
  8480.682
  0
LINE
  8
1
 10
 17725.928
 20
  8386.889
 11
 17783.043
 21
  8381.178
  0
LINE
  8
1
 10
 17799.260
 20
  8831.801
 11
 17749.510
 21
  8334.281
  0
LINE
  8
1
 10
 17749.510
 20
  8334.281
 11
 17733.590
 21
  8335.873
  0
LINE
  8
1
 10
 17733.590
 20
  8335.873
 11
 17783.340
 21
  8833.393
  0
LINE
  8
1
 10
 17799.260
 20
  8831.801
 11
 17783.340
 21
  8833.393
  0
LINE
  8
1
 10
 13793.737
 20
  9136.878
 11
 13913.143
 21
  9124.938
  0
LINE
  8
1
 10
 13913.143
 20
  9124.938
 11
 13803.189
 21
  9231.407
  0
LINE
  8
1
 10
 13803.189
 20
  9231.407
 11
 13803.189
 21
  9231.407
  0
LINE
  8
1
 10
 13793.737
 20
  9136.878
 11
 13803.189
 21
  9231.407
  0
LINE
  8
1
 10
 13762.892
 20
  8828.417
 11
 13882.297
 21
  8816.477
  0
LINE
  8
1
 10
 13882.297
 20
  8816.477
 11
 13753.439
 21
  8733.886
  0
LINE
  8
1
 10
 13753.439
 20
  8733.886
 11
 13753.439
 21
  8733.886
  0
LINE
  8
1
 10
 13762.892
 20
  8828.417
 11
 13753.439
 21
  8733.886
  0
LINE
  8
1
 10
 17773.889
 20
  8738.863
 11
 17654.482
 21
  8750.804
  0
LINE
  8
1
 10
 17654.482
 20
  8750.804
 11
 17783.340
 21
  8833.393
  0
LINE
  8
1
 10
 17783.340
 20
  8833.393
 11
 17783.340
 21
  8833.393
  0
LINE
  8
1
 10
 17773.889
 20
  8738.863
 11
 17783.340
 21
  8833.393
  0
LINE
  8
1
 10
 17743.043
 20
  8430.402
 11
 17623.637
 21
  8442.343
  0
LINE
  8
1
 10
 17623.637
 20
  8442.343
 11
 17733.590
 21
  8335.873
  0
LINE
  8
1
 10
 17733.590
 20
  8335.873
 11
 17733.590
 21
  8335.873
  0
LINE
  8
1
 10
 17743.043
 20
  8430.402
 11
 17733.590
 21
  8335.873
  0
CIRCLE
  8
1
 10
 13777.817
 20
  9138.470
 40
     6.350
  0
LINE
  8
17
 10
 13771.468
 20
  9138.470
 11
 13784.168
 21
  9138.470
  0
LINE
  8
17
 10
 13777.817
 20
  9132.120
 11
 13777.817
 21
  9144.820
  0
CIRCLE
  8
1
 10
 13746.972
 20
  8830.009
 40
     6.350
  0
LINE
  8
17
 10
 13740.621
 20
  8830.009
 11
 13753.321
 21
  8830.009
  0
LINE
  8
17
 10
 13746.972
 20
  8823.659
 11
 13746.972
 21
  8836.359
  0
CIRCLE
  8
1
 10
 17758.963
 20
  8428.811
 40
     6.350
  0
LINE
  8
17
 10
 17752.611
 20
  8428.811
 11
 17765.312
 21
  8428.811
  0
LINE
  8
17
 10
 17758.963
 20
  8422.460
 11
 17758.963
 21
  8435.160
  0
CIRCLE
  8
1
 10
 17789.809
 20
  8737.271
 40
     6.350
  0
LINE
  8
17
 10
 17783.459
 20
  8737.271
 11
 17796.158
 21
  8737.271
  0
LINE
  8
17
 10
 17789.809
 20
  8730.921
 11
 17789.809
 21
  8743.621
  0
LINE
  8
1
 10
 17805.230
 20
  8730.704
 11
 17775.338
 21
  8431.761
  0
LINE
  8
1
 10
 17775.338
 20
  8431.761
 11
 21431.000
 21
  7965.631
  0
LINE
  8
1
 10
 21431.000
 20
  7965.631
 11
 22234.000
 21
  7965.631
  0
LINE
  8
1
 10
 22234.000
 20
  7965.631
 11
 22234.000
 21
  8287.826
  0
LINE
  8
1
 10
 17805.230
 20
  8730.704
 11
 22234.000
 21
  8287.826
  0
LINE
  8
1
 10
 21569.807
 20
  8323.546
 11
 21533.986
 21
  7965.333
  0
LINE
  8
1
 10
 21563.836
 20
  8324.143
 11
 21528.014
 21
  7965.930
  0
LINE
  8
1
 10
 21569.807
 20
  8323.546
 11
 21563.836
 21
  8324.143
  0
LINE
  8
1
 10
 21533.986
 20
  7965.333
 11
 21528.014
 21
  7965.930
  0
LINE
  8
1
 10
 17805.230
 20
  8730.704
 11
 22459.504
 21
  8265.276
  0
LINE
  8
1
 10
 22459.504
 20
  8265.276
 11
 22460.000
 21
  8270.251
  0
LINE
  8
1
 10
 22460.000
 20
  8270.251
 11
 17805.729
 21
  8735.679
  0
LINE
  8
1
 10
 17805.230
 20
  8730.704
 11
 17805.729
 21
  8735.679
  0
LINE
  8
5
 10
 22377.502
 20
  8299.003
 11
 22373.711
 21
  8261.092
  0
LINE
  8
1
 10
 22234.000
 20
  8287.326
 11
 22234.000
 21
  7965.631
  0
LINE
  8
1
 10
 22234.000
 20
  7965.631
 11
 22239.000
 21
  7965.631
  0
LINE
  8
1
 10
 22239.000
 20
  7965.631
 11
 22239.000
 21
  8287.326
  0
LINE
  8
1
 10
 22234.000
 20
  8287.326
 11
 22239.000
 21
  8287.326
  0
LINE
  8
1
 10
 22239.000
 20
  8287.326
 11
 22469.000
 21
  8264.326
  0
LINE
  8
1
 10
 22469.000
 20
  8264.326
 11
 22239.000
 21
  8172.327
  0
LINE
  8
1
 10
 17775.471
 20
  8431.743
 11
 21431.000
 21
  7965.631
  0
LINE
  8
1
 10
 21431.000
 20
  7965.631
 11
 21430.367
 21
  7960.671
  0
LINE
  8
1
 10
 21430.367
 20
  7960.671
 11
 17774.838
 21
  8426.783
  0
LINE
  8
1
 10
 17775.471
 20
  8431.743
 11
 17774.838
 21
  8426.783
  0
LINE
  8
1
 10
 17765.729
 20
  8784.904
 11
 17822.844
 21
  8779.192
  0
LINE
  8
1
 10
 17755.777
 20
  8685.400
 11
 17812.895
 21
  8679.688
  0
LINE
  8
1
 10
 17735.877
 20
  8486.393
 11
 17792.992
 21
  8480.682
  0
LINE
  8
1
 10
 17725.928
 20
  8386.889
 11
 17783.043
 21
  8381.178
  0
LINE
  8
1
 10
 17799.260
 20
  8831.801
 11
 17749.510
 21
  8334.281
  0
LINE
  8
1
 10
 17749.510
 20
  8334.281
 11
 17765.430
 21
  8332.688
  0
LINE
  8
1
 10
 17765.430
 20
  8332.688
 11
 17815.180
 21
  8830.208
  0
LINE
  8
1
 10
 17799.260
 20
  8831.801
 11
 17815.180
 21
  8830.208
  0
LINE
  8
1
 10
 22284.000
 20
  7978.332
 11
 22284.000
 21
  7920.932
  0
LINE
  8
1
 10
 22184.000
 20
  7978.332
 11
 22184.000
 21
  7920.932
  0
LINE
  8
1
 10
 21884.000
 20
  7978.332
 11
 21884.000
 21
  7920.932
  0
LINE
  8
1
 10
 21584.000
 20
  7978.332
 11
 21584.000
 21
  7920.932
  0
LINE
  8
1
 10
 21484.002
 20
  7978.332
 11
 21484.002
 21
  7920.932
  0
LINE
  8
1
 10
 22334.000
 20
  7949.632
 11
 21434.000
 21
  7949.632
  0
LINE
  8
1
 10
 21434.000
 20
  7949.632
 11
 21434.000
 21
  7965.631
  0
LINE
  8
1
 10
 21434.000
 20
  7965.631
 11
 22334.000
 21
  7965.631
  0
LINE
  8
1
 10
 22334.000
 20
  7949.632
 11
 22334.000
 21
  7965.631
  0
LINE
  8
1
 10
 17805.729
 20
  8735.679
 11
 17925.133
 21
  8723.738
  0
LINE
  8
1
 10
 17925.133
 20
  8723.738
 11
 17815.180
 21
  8830.208
  0
LINE
  8
1
 10
 17815.180
 20
  8830.208
 11
 17815.180
 21
  8830.208
  0
LINE
  8
1
 10
 17805.729
 20
  8735.679
 11
 17815.180
 21
  8830.208
  0
LINE
  8
1
 10
 17774.838
 20
  8426.783
 11
 17893.918
 21
  8411.600
  0
LINE
  8
1
 10
 17893.918
 20
  8411.600
 11
 17765.430
 21
  8332.688
  0
LINE
  8
1
 10
 17765.430
 20
  8332.688
 11
 17765.430
 21
  8332.688
  0
LINE
  8
1
 10
 17774.838
 20
  8426.783
 11
 17765.430
 21
  8332.688
  0
LINE
  8
1
 10
 22239.000
 20
  7965.631
 11
 22239.000
 21
  8085.631
  0
LINE
  8
1
 10
 22239.000
 20
  8085.631
 11
 22334.000
 21
  7965.631
  0
LINE
  8
1
 10
 22334.000
 20
  7965.631
 11
 22334.000
 21
  7965.631
  0
LINE
  8
1
 10
 22239.000
 20
  7965.631
 11
 22334.000
 21
  7965.631
  0
CIRCLE
  8
1
 10
 17789.809
 20
  8737.271
 40
     6.350
  0
LINE
  8
17
 10
 17783.459
 20
  8737.271
 11
 17796.158
 21
  8737.271
  0
LINE
  8
17
 10
 17789.809
 20
  8730.921
 11
 17789.809
 21
  8743.621
  0
CIRCLE
  8
1
 10
 17758.963
 20
  8428.808
 40
     6.350
  0
LINE
  8
17
 10
 17752.611
 20
  8428.808
 11
 17765.312
 21
  8428.808
  0
LINE
  8
17
 10
 17758.963
 20
  8422.458
 11
 17758.963
 21
  8435.158
  0
CIRCLE
  8
1
 10
 21434.000
 20
  7949.632
 40
     6.350
  0
LINE
  8
17
 10
 21427.650
 20
  7949.632
 11
 21440.350
 21
  7949.632
  0
LINE
  8
17
 10
 21434.000
 20
  7943.282
 11
 21434.000
 21
  7955.982
  0
CIRCLE
  8
1
 10
 22239.000
 20
  7949.632
 40
     6.350
  0
LINE
  8
17
 10
 22232.650
 20
  7949.632
 11
 22245.350
 21
  7949.632
  0
LINE
  8
17
 10
 22239.000
 20
  7943.282
 11
 22239.000
 21
  7955.982
  0
CIRCLE
  8
1
 10
 22239.000
 20
  8292.352
 40
     6.350
  0
LINE
  8
17
 10
 22232.650
 20
  8292.352
 11
 22245.350
 21
  8292.352
  0
LINE
  8
17
 10
 22239.000
 20
  8286.002
 11
 22239.000
 21
  8298.702
  0
LINE
  8
1
 10
 22234.000
 20
    16.000
 11
 21834.000
 21
    16.000
  0
LINE
  8
1
 10
 21834.000
 20
    16.000
 11
 21534.000
 21
  4016.000
  0
LINE
  8
1
 10
 21534.000
 20
  4016.000
 11
 21534.000
 21
  4016.000
  0
LINE
  8
1
 10
 21534.000
 20
  4016.000
 11
 22234.000
 21
  4016.000
  0
LINE
  8
1
 10
 22234.000
 20
    16.000
 11
 22234.000
 21
  4016.000
  0
LINE
  8
1
 10
 22234.000
 20
  4016.000
 11
 21534.000
 21
  4016.000
  0
LINE
  8
1
 10
 21534.000
 20
  4016.000
 11
 21534.000
 21
  7933.632
  0
LINE
  8
1
 10
 21534.000
 20
  7933.632
 11
 21534.000
 21
  7933.632
  0
LINE
  8
1
 10
 21534.000
 20
  7933.632
 11
 22234.000
 21
  7933.632
  0
LINE
  8
1
 10
 22234.000
 20
  4016.000
 11
 22234.000
 21
  7933.632
  0
LINE
  8
1
 10
 22134.000
 20
  5844.000
 11
 21534.000
 21
  5844.000
  0
LINE
  8
1
 10
 22134.000
 20
  5838.000
 11
 21534.000
 21
  5838.000
  0
LINE
  8
1
 10
 22134.000
 20
  5844.000
 11
 22134.000
 21
  5838.000
  0
LINE
  8
1
 10
 21534.000
 20
  5844.000
 11
 21534.000
 21
  5838.000
  0
LINE
  8
1
 10
 22134.000
 20
  6204.000
 11
 21534.000
 21
  6204.000
  0
LINE
  8
1
 10
 22134.000
 20
  6198.000
 11
 21534.000
 21
  6198.000
  0
LINE
  8
1
 10
 22134.000
 20
  6204.000
 11
 22134.000
 21
  6198.000
  0
LINE
  8
1
 10
 21534.000
 20
  6204.000
 11
 21534.000
 21
  6198.000
  0
LINE
  8
1
 10
 22234.000
 20
  6420.000
 11
 21634.000
 21
  6420.000
  0
LINE
  8
1
 10
 22234.000
 20
  6414.000
 11
 21634.000
 21
  6414.000
  0
LINE
  8
1
 10
 22234.000
 20
  6420.000
 11
 22234.000
 21
  6414.000
  0
LINE
  8
1
 10
 21634.000
 20
  6420.000
 11
 21634.000
 21
  6414.000
  0
LINE
  8
1
 10
 22234.000
 20
    16.000
 11
 22234.000
 21
  7933.632
  0
LINE
  8
1
 10
 22234.000
 20
  7933.632
 11
 22240.000
 21
  7933.632
  0
LINE
  8
1
 10
 22240.000
 20
  7933.632
 11
 22240.000
 21
    16.000
  0
LINE
  8
1
 10
 22234.000
 20
    16.000
 11
 22240.000
 21
    16.000
  0
LINE
  8
5
 10
 22259.400
 20
  7280.000
 11
 22221.301
 21
  7280.000
  0
LINE
  8
5
 10
 22259.400
 20
  5780.000
 11
 22221.301
 21
  5780.000
  0
LINE
  8
5
 10
 22259.400
 20
  4580.000
 11
 22221.301
 21
  4580.000
  0
LINE
  8
5
 10
 22259.400
 20
  3580.000
 11
 22221.301
 21
  3580.000
  0
LINE
  8
5
 10
 22259.400
 20
  2580.000
 11
 22221.301
 21
  2580.000
  0
LINE
  8
1
 10
 21833.967
 20
    16.449
 11
 21534.000
 21
  4016.000
  0
LINE
  8
1
 10
 21534.000
 20
  4016.000
 11
 21528.018
 21
  4015.551
  0
LINE
  8
1
 10
 21528.018
 20
  4015.551
 11
 21827.984
 21
    16.000
  0
LINE
  8
1
 10
 21833.967
 20
    16.449
 11
 21827.984
 21
    16.000
  0
LINE
  8
1
 10
 21534.000
 20
  4016.000
 11
 21534.000
 21
  7933.632
  0
LINE
  8
1
 10
 21534.000
 20
  7933.632
 11
 21528.000
 21
  7933.632
  0
LINE
  8
1
 10
 21528.000
 20
  7933.632
 11
 21528.000
 21
  4016.000
  0
LINE
  8
1
 10
 21534.000
 20
  4016.000
 11
 21528.000
 21
  4016.000
  0
CIRCLE
  8
1
 10
 21528.000
 20
  5846.000
 40
    12.700
  0
CIRCLE
  8
1
 10
 21528.000
 20
  6196.000
 40
    12.700
  0
LINE
  8
1
 10
 22312.000
 20
    28.700
 11
 22312.000
 21
   -28.700
  0
LINE
  8
1
 10
 22162.000
 20
    28.700
 11
 22162.000
 21
   -28.700
  0
LINE
  8
1
 10
 21907.193
 20
    28.700
 11
 21907.193
 21
   -28.700
  0
LINE
  8
1
 10
 21757.193
 20
    28.700
 11
 21757.193
 21
   -28.700
  0
LINE
  8
1
 10
 22387.000
 20
     0.000
 11
 21682.193
 21
     0.000
  0
LINE
  8
1
 10
 21682.193
 20
     0.000
 11
 21682.193
 21
    16.000
  0
LINE
  8
1
 10
 21682.193
 20
    16.000
 11
 22387.000
 21
    16.000
  0
LINE
  8
1
 10
 22387.000
 20
     0.000
 11
 22387.000
 21
    16.000
  0
LINE
  8
1
 10
 22284.000
 20
  7978.332
 11
 22284.000
 21
  7920.932
  0
LINE
  8
1
 10
 22184.000
 20
  7978.332
 11
 22184.000
 21
  7920.932
  0
LINE
  8
1
 10
 21884.000
 20
  7978.332
 11
 21884.000
 21
  7920.932
  0
LINE
  8
1
 10
 21584.000
 20
  7978.332
 11
 21584.000
 21
  7920.932
  0
LINE
  8
1
 10
 21484.002
 20
  7978.332
 11
 21484.002
 21
  7920.932
  0
LINE
  8
1
 10
 22334.000
 20
  7949.632
 11
 21434.000
 21
  7949.632
  0
LINE
  8
1
 10
 21434.000
 20
  7949.632
 11
 21434.000
 21
  7933.632
  0
LINE
  8
1
 10
 21434.000
 20
  7933.632
 11
 22334.000
 21
  7933.632
  0
LINE
  8
1
 10
 22334.000
 20
  7949.632
 11
 22334.000
 21
  7933.632
  0
LINE
  8
1
 10
 22240.000
 20
    16.000
 11
 22240.000
 21
   213.000
  0
LINE
  8
1
 10
 22240.000
 20
   213.000
 11
 22387.000
 21
    66.000
  0
LINE
  8
1
 10
 22387.000
 20
    66.000
 11
 22387.000
 21
    16.000
  0
LINE
  8
1
 10
 22240.000
 20
    16.000
 11
 22387.000
 21
    16.000
  0
LINE
  8
1
 10
 21827.984
 20
    16.000
 11
 21813.299
 21
   211.791
  0
LINE
  8
1
 10
 21813.299
 20
   211.791
 11
 21682.193
 21
    66.000
  0
LINE
  8
1
 10
 21682.193
 20
    66.000
 11
 21682.193
 21
    16.000
  0
LINE
  8
1
 10
 21827.984
 20
    16.000
 11
 21682.193
 21
    16.000
  0
LINE
  8
1
 10
 22240.000
 20
  7933.632
 11
 22240.000
 21
  7813.632
  0
LINE
  8
1
 10
 22240.000
 20
  7813.632
 11
 22334.000
 21
  7933.632
  0
LINE
  8
1
 10
 22334.000
 20
  7933.632
 11
 22334.000
 21
  7933.632
  0
LINE
  8
1
 10
 22240.000
 20
  7933.632
 11
 22334.000
 21
  7933.632
  0
LINE
  8
1
 10
 21528.000
 20
  7933.632
 11
 21528.000
 21
  7813.632
  0
LINE
  8
1
 10
 21528.000
 20
  7813.632
 11
 21434.000
 21
  7933.632
  0
LINE
  8
1
 10
 21434.000
 20
  7933.632
 11
 21434.000
 21
  7933.632
  0
LINE
  8
1
 10
 21528.000
 20
  7933.632
 11
 21434.000
 21
  7933.632
  0
CIRCLE
  8
1
 10
 22240.000
 20
  7949.632
 40
     6.350
  0
LINE
  8
17
 10
 22233.650
 20
  7949.632
 11
 22246.350
 21
  7949.632
  0
LINE
  8
17
 10
 22240.000
 20
  7943.282
 11
 22240.000
 21
  7955.982
  0
CIRCLE
  8
1
 10
 21528.000
 20
  7949.632
 40
     6.350
  0
LINE
  8
17
 10
 21521.650
 20
  7949.632
 11
 21534.350
 21
  7949.632
  0
LINE
  8
17
 10
 21528.000
 20
  7943.282
 11
 21528.000
 21
  7955.982
  0
CIRCLE
  8
1
 10
 21829.184
 20
     0.000
 40
     6.350
  0
LINE
  8
17
 10
 21822.834
 20
     0.000
 11
 21835.533
 21
     0.000
  0
LINE
  8
17
 10
 21829.184
 20
    -6.350
 11
 21829.184
 21
     6.350
  0
CIRCLE
  8
1
 10
 22240.000
 20
     0.000
 40
     6.350
  0
LINE
  8
17
 10
 22233.650
 20
     0.000
 11
 22246.350
 21
     0.000
  0
LINE
  8
17
 10
 22240.000
 20
    -6.350
 11
 22240.000
 21
     6.350
  0
LINE
  8
1
 10
 11135.000
 20
     0.000
 11
 11335.000
 21
     0.000
  0
LINE
  8
1
 10
 11135.000
 20
    16.000
 11
 11335.000
 21
    16.000
  0
LINE
  8
1
 10
 11135.000
 20
     0.000
 11
 11135.000
 21
    16.000
  0
LINE
  8
1
 10
 11335.000
 20
     0.000
 11
 11335.000
 21
    16.000
  0
LINE
  8
1
 10
 11185.000
 20
    25.400
 11
 11185.000
 21
   -25.400
  0
LINE
  8
1
 10
 11285.000
 20
    25.400
 11
 11285.000
 21
   -25.400
  0
CIRCLE
  8
1
 10
 11160.000
 20
     0.000
 40
    19.050
  0
CIRCLE
  8
1
 10
 11310.000
 20
     0.000
 40
    19.050
  0
CIRCLE
  8
1
 10
 11310.000
 20
  8829.980
 40
    19.050
  0
CIRCLE
  8
1
 10
 11160.000
 20
  8829.980
 40
    19.050
  0
CIRCLE
  8
1
 10
     0.000
 20
     0.000
 40
    19.050
  0
LINE
  8
3
 10
     0.000
 20
  3580.000
 11
  -175.915
 21
  3478.293
  0
LINE
  8
3
 10
     0.000
 20
  3580.000
 11
  -176.007
 21
  3681.547
  0
LINE
  8
3
 10
  -176.007
 20
  3681.547
 11
  -175.915
 21
  3478.293
  0
LINE
  8
3
 10
  1367.082
 20
  8556.708
 11
  1248.376
 21
  8721.630
  0
LINE
  8
3
 10
  1367.082
 20
  8556.708
 11
  1450.611
 21
  8741.945
  0
LINE
  8
3
 10
  1450.611
 20
  8741.945
 11
  1248.376
 21
  8721.630
  0
LINE
  8
3
 10
  4101.145
 20
  8830.114
 11
  3982.439
 21
  8995.036
  0
LINE
  8
3
 10
  4101.145
 20
  8830.114
 11
  4184.674
 21
  9015.352
  0
LINE
  8
3
 10
  4184.674
 20
  9015.352
 11
  3982.439
 21
  8995.036
  0
LINE
  8
3
 10
  6835.308
 20
  9103.531
 11
  6716.603
 21
  9268.453
  0
LINE
  8
3
 10
  6835.308
 20
  9103.531
 11
  6918.838
 21
  9288.769
  0
LINE
  8
3
 10
  6918.838
 20
  9288.769
 11
  6716.603
 21
  9268.453
  0
LINE
  8
3
 10
  9569.473
 20
  9376.947
 11
  9450.767
 21
  9541.869
  0
LINE
  8
3
 10
  9569.473
 20
  9376.947
 11
  9653.002
 21
  9562.186
  0
LINE
  8
3
 10
  9653.002
 20
  9562.186
 11
  9450.767
 21
  9541.869
  0
LINE
  8
3
 10
 10936.454
 20
  9513.646
 11
 10817.748
 21
  9678.567
  0
LINE
  8
3
 10
 10936.454
 20
  9513.646
 11
 11019.983
 21
  9698.883
  0
LINE
  8
3
 10
 11019.983
 20
  9698.883
 11
 10817.748
 21
  9678.567
  0
LINE
  8
3
 10
 11533.512
 20
  9513.648
 11
 11449.814
 21
  9698.811
  0
LINE
  8
3
 10
 11533.512
 20
  9513.648
 11
 11652.067
 21
  9678.678
  0
LINE
  8
3
 10
 11652.067
 20
  9678.678
 11
 11449.814
 21
  9698.811
  0
LINE
  8
3
 10
 12900.593
 20
  9376.940
 11
 12816.896
 21
  9562.103
  0
LINE
  8
3
 10
 12900.593
 20
  9376.940
 11
 13019.149
 21
  9541.970
  0
LINE
  8
3
 10
 13019.149
 20
  9541.970
 11
 12816.896
 21
  9562.103
  0
LINE
  8
3
 10
 15634.656
 20
  9103.534
 11
 15550.959
 21
  9288.696
  0
LINE
  8
3
 10
 15634.656
 20
  9103.534
 11
 15753.212
 21
  9268.563
  0
LINE
  8
3
 10
 15753.212
 20
  9268.563
 11
 15550.959
 21
  9288.696
  0
LINE
  8
3
 10
 18368.820
 20
  8830.117
 11
 18285.123
 21
  9015.280
  0
LINE
  8
3
 10
 18368.820
 20
  8830.117
 11
 18487.375
 21
  8995.146
  0
LINE
  8
3
 10
 18487.375
 20
  8995.146
 11
 18285.123
 21
  9015.280
  0
LINE
  8
3
 10
 21102.982
 20
  8556.701
 11
 21019.285
 21
  8741.864
  0
LINE
  8
3
 10
 21102.982
 20
  8556.701
 11
 21221.539
 21
  8721.731
  0
LINE
  8
3
 10
 21221.539
 20
  8721.731
 11
 21019.285
 21
  8741.864
  0
LINE
  8
3
 10
 22470.000
 20
  3580.000
 11
 22645.916
 21
  3681.707
  0
LINE
  8
3
 10
 22470.000
 20
  3580.000
 11
 22646.006
 21
  3478.453
  0
LINE
  8
3
 10
 22646.006
 20
  3478.453
 11
 22645.916
 21
  3681.707
  0
LINE
  8
1
 10
 11135.000
 20
  8829.980
 11
 11135.000
 21
  8813.980
  0
LINE
  8
1
 10
 11135.000
 20
  8813.980
 11
 11335.000
 21
  8813.980
  0
LINE
  8
1
 10
 11335.000
 20
  8813.980
 11
 11335.000
 21
  8829.980
  0
LINE
  8
3
 10
  1530.000
 20
  6229.399
 11
  1530.000
 21
  6544.600
  0
LINE
  8
3
 10
  1430.000
 20
  6544.600
 11
  1630.000
 21
  6544.600
  0
LINE
  8
3
 10
  1430.000
 20
  6229.399
 11
  1630.000
 21
  6229.399
  0
LINE
  8
3
 10
 20940.000
 20
  6229.399
 11
 20940.000
 21
  6544.600
  0
LINE
  8
3
 10
 20840.000
 20
  6544.600
 11
 21040.000
 21
  6544.600
  0
LINE
  8
3
 10
 20840.000
 20
  6229.399
 11
 21040.000
 21
  6229.399
  0
LINE
  8
3
 10
  1530.000
 20
  6570.000
 11
  1530.000
 21
  6570.000
  0
LINE
  8
3
 10
 20940.000
 20
  6570.000
 11
 20940.000
 21
  6570.000
  0
LINE
  8
3
 10
  1530.000
 20
  6570.000
 11
 20940.000
 21
  6570.000
  0
LINE
  8
3
 10
 20940.000
 20
  6570.000
 11
  1530.000
 21
  6570.000
  0
TEXT
  8
16
 10
  -254.000
 20
  3657.316
 40
   127.000
  1
RF5-1
 50
    90.000
  0
TEXT
  8
16
 10
  2099.455
 20
  8885.213
 40
   127.000
  1
RF5-2
 50
     5.711
  0
TEXT
  8
16
 10
  6330.029
 20
  9308.270
 40
   127.000
  1
RF5-3
 50
     5.711
  0
TEXT
  8
16
 10
 10917.482
 20
  9542.469
 40
   127.000
  1
RF5-4
 50
     0.000
  0
TEXT
  8
16
 10
 15508.089
 20
  9371.458
 40
   127.000
  1
RF5-3
 50
    -5.711
  0
TEXT
  8
16
 10
 19738.680
 20
  8948.398
 40
   127.000
  1
RF5-2
 50
    -5.711
  0
TEXT
  8
16
 10
 22724.000
 20
  4292.316
 40
   127.000
  1
RF5-5
 50
   -90.000
  0
LINE
  8
0
 10
 -1402.900
 20
 -4643.333
 11
 23872.900
 21
 -4643.333
  0
LINE
  8
0
 10
 23872.900
 20
 -4643.333
 11
 23872.900
 21
 14313.517
  0
LINE
  8
0
 10
 23872.900
 20
 14313.517
 11
 -1402.900
 21
 14313.517
  0
LINE
  8
0
 10
 -1402.900
 20
 14313.517
 11
 -1402.900
 21
 -4643.333
  0
LINE
  8
0
 10
 -1402.900
 20
 -4017.757
 11
 23872.900
 21
 -4017.757
  0
TEXT
  8
0
 10
  6438.917
 20
 -4539.071
 40
   417.051
  1
Rigid Frame Detailing 5
 50
     0.000
  0
TEXT
  8
0
 10
 -1194.375
 20
 -4539.071
 40
   417.051
  1
C323-153-Final
 50
     0.000
  0
TEXT
  8
0
 10
 19076.818
 20
 -4539.071
 40
   417.051
  1
11/AUG/2025
 50
     0.000
  0
ENDSEC
  0
EOF
