999
SOURCE:MBS   PROGRAM:RFDWG   CELL:RFDWG   CLASS:ELEVATION   MODE:---
  0
SECTION
  2
HEADER
 9
$ACADVER
 1
AC1009
  9
$EXTMIN
 10
0.00000000
 20
0.00000000
  9
$EXTMAX
 10
29618.3711
 20
20944.4219
  9
$LIMMIN
 10
0.00000000
 20
0.00000000
  9
$LIMMAX
 10
29618.3711
 20
20944.4219
  9
$FILLMODE
 70
     1
  9
$HANDLING
 70
     0
  0
ENDSEC
  0
SECTION
  2
TABLES
  0
TABLE
  2
LTYPE
 70
 4
  0
LTYPE
  2
CONTIN
 70
   64
  3
SOLID LINE
  72
   65
 73
    0
 40
 0.000
  0
LTYPE
  2
CENTER
 70
   64
  3
____ _ ____ _ _
  72
   65
 73
    4
 40
1791.2
 49
1119.5
 49
-223.9
 49
223.90
 49
-223.9
  0
LTYPE
  2
DASHED
 70
   64
  3
__ __ __ __ __
  72
   65
 73
    2
 40
335.85
 49
223.90
 49
-112.0
  0
LTYPE
  2
CONTINUOUS
 70
   64
  3
SOLID LINE
  72
   65
 73
    0
 40
 0.000
  0
ENDTAB
  0
TABLE
  2
LAYER
 70
    30
  0
LAYER
  2
0
 70
     0
 62
     7
  6
CONTIN
  0
LAYER
  2
1
 70
     0
 62
     7
  6
CONTIN
  0
LAYER
  2
2
 70
     0
 62
     6
  6
CONTIN
  0
LAYER
  2
3
 70
     0
 62
     7
  6
CONTIN
  0
LAYER
  2
4
 70
     0
 62
     7
  6
CENTER
  0
LAYER
  2
5
 70
     0
 62
     5
  6
DASHED
  0
LAYER
  2
6
 70
     0
 62
     6
  6
CONTIN
  0
LAYER
  2
7
 70
     0
 62
     7
  6
CONTIN
  0
LAYER
  2
8
 70
     0
 62
     8
  6
DASHED
  0
LAYER
  2
9
 70
     0
 62
     9
  6
DASHED
  0
LAYER
  2
10
 70
     0
 62
    10
  6
CONTIN
  0
LAYER
  2
11
 70
     0
 62
     7
  6
CONTIN
  0
LAYER
  2
12
 70
     0
 62
     6
  6
CONTIN
  0
LAYER
  2
13
 70
     0
 62
     1
  6
CONTIN
  0
LAYER
  2
14
 70
     0
 62
     7
  6
CONTIN
  0
LAYER
  2
15
 70
     0
 62
     7
  6
CONTIN
  0
LAYER
  2
16
 70
     0
 62
     7
  6
CONTIN
  0
LAYER
  2
17
 70
     0
 62
     5
  6
CONTIN
  0
LAYER
  2
18
 70
     0
 62
     7
  6
CONTIN
  0
LAYER
  2
19
 70
     0
 62
     7
  6
CONTIN
  0
LAYER
  2
20
 70
     0
 62
     7
  6
CONTIN
  0
LAYER
  2
21
 70
     0
 62
     7
  6
CONTIN
  0
LAYER
  2
22
 70
     0
 62
     7
  6
CONTIN
  0
LAYER
  2
23
 70
     0
 62
     7
  6
DASHED
  0
LAYER
  2
24
 70
     0
 62
     7
  6
CONTIN
  0
LAYER
  2
25
 70
     0
 62
     7
  6
CONTIN
  0
LAYER
  2
26
 70
     0
 62
     7
  6
CONTIN
  0
LAYER
  2
27
 70
     0
 62
     1
  6
CENTER
  0
LAYER
  2
28
 70
     0
 62
     7
  6
CONTIN
  0
LAYER
  2
29
 70
     0
 62
     7
  6
CONTIN
  0
ENDTAB
  0
TABLE
  2
STYLE
 70
  0
  0
STYLE
  2
SIMPLEX
 70
  0
 40
  0.000
 41
  1.000
 42
  1.000
 50
  0.000
 71
  0
  3
SIMPLEX
  0
STYLE
  2
ROMANS
 70
  0
 40
  0.000
 41
  1.000
 42
  1.000
 50
  0.000
 71
  0
  3
ROMANS
  0
STYLE
  2
OPEN
 70
  0
 40
  0.000
 41
  1.000
 42
  1.000
 50
  0.000
 71
  0
  3
SIMPLEX
  0
STYLE
  2
ARIAL
 70
  0
 40
  0.000
 41
  1.000
 42
  1.000
 50
  0.000
 71
  0
  3
ARIAL.TTF
  0
STYLE
  2
VERDANAB
 70
  0
 40
  0.000
 41
  1.000
 42
  1.000
 50
  0.000
 71
  0
  3
VERDANAB.TTF
  0
ENDTAB
  0
ENDSEC
  0
SECTION
  2
BLOCKS
  0
BLOCK
  8
0
  2
ARROWPF
 70
     0
 10
0.00000000
 20
0.00000000
  0
LINE
  8
0
 10
0.00000000
 20
0.00000000
 11
-128.07124
 21
21.3452091
  0
LINE
  8
0
 10
-128.07124
 20
21.3452091
 11
-128.07124
 21
-21.345209
  0
LINE
  8
0
 10
-128.07124
 20
-21.345209
 11
0.00000000
 21
0.00000000
  0
ENDBLK
  8
0
  0
BLOCK
  8
0
  2
ARROWF
 70
     0
 10
0.00000000
 20
0.00000000
  0
LINE
  8
0
 10
0.00000000
 20
0.00000000
 11
-192.10687
 21
32.0178108
  0
LINE
  8
0
 10
-192.10687
 20
32.0178108
 11
-192.10687
 21
-32.017811
  0
LINE
  8
0
 10
-192.10687
 20
-32.017811
 11
0.00000000
 21
0.00000000
  0
ENDBLK
  8
0
  0
BLOCK
  8
0
  2
DIAMOND
 70
     0
 10
0.00000000
 20
0.00000000
  0
LINE
  8
0
 10
0.00000000
 20
0.00000000
 11
12.6999998
 21
12.6999998
  0
LINE
  8
0
 10
12.6999998
 20
12.6999998
 11
0.00000000
 21
25.3999996
  0
LINE
  8
0
 10
0.00000000
 20
25.3999996
 11
-12.700000
 21
12.6999998
  0
LINE
  8
0
 10
-12.700000
 20
12.6999998
 11
0.00000000
 21
0.00000000
  0
ENDBLK
  8
0
  0
BLOCK
  8
3
  2
CIRCLE
 70
     0
 10
0.00000000
 20
0.00000000
  0
CIRCLE
  8
1
 10
     0.00
 20
     0.00
 40
    25.40
  0
ENDBLK
  8
3
  0
BLOCK
  8
0
  2
WSECTN
 70
     0
 10
0.00000000
 20
0.00000000
  0
LINE
  8
0
 10
0.00000000
 20
0.00000000
 11
0.00000000
 21
25.3999996
  0
LINE
  8
0
 10
-76.199997
 20
0.00000000
 11
76.1999970
 21
0.00000000
  0
LINE
  8
0
 10
-76.199997
 20
25.3999996
 11
76.1999970
 21
25.3999996
  0
ENDBLK
  8
0
  0
BLOCK
  8
0
  2
WCOL
 70
     0
 10
0.00000000
 20
0.00000000
  0
LINE
  8
0
 10
-10.160000
 20
0.00000000
 11
10.1599999
 21
0.00000000
  0
LINE
  8
0
 10
0.00000000
 20
0.00000000
 11
0.00000000
 21
-25.400000
  0
LINE
  8
0
 10
-10.160000
 20
-25.400000
 11
10.1599999
 21
-25.400000
  0
ENDBLK
  8
0
  0
BLOCK
  8
0
  2
JSECTN
 70
     0
 10
0.00000000
 20
0.00000000
  0
LINE
  8
0
 10
0.00000000
 20
0.00000000
 11
0.00000000
 21
-25.400000
  0
LINE
  8
0
 10
-2.5400000
 20
0.00000000
 11
0.00000000
 21
0.00000000
  0
LINE
  8
0
 10
0.00000000
 20
0.00000000
 11
0.00000000
 21
-25.400000
  0
LINE
  8
0
 10
2.53999996
 20
0.00000000
 11
0.00000000
 21
0.00000000
  0
LINE
  8
0
 10
0.00000000
 20
0.00000000
 11
0.00000000
 21
-25.400000
  0
LINE
  8
0
 10
-2.5400000
 20
-25.400000
 11
0.00000000
 21
-25.400000
  0
LINE
  8
0
 10
0.00000000
 20
-25.400000
 11
0.00000000
 21
0.00000000
  0
LINE
  8
0
 10
2.53999996
 20
-25.400000
 11
0.00000000
 21
-25.400000
  0
LINE
  8
0
 10
0.00000000
 20
-25.400000
 11
0.00000000
 21
0.00000000
  0
ENDBLK
  8
0
  0
BLOCK
  8
0
  2
ZCOL
 70
     0
 10
0.00000000
 20
0.00000000
  0
LINE
  8
0
 10
10.1599999
 20
-2.5400000
 11
10.1599999
 21
0.00000000
  0
LINE
  8
0
 10
10.1599999
 20
0.00000000
 11
0.00000000
 21
0.00000000
  0
LINE
  8
0
 10
0.00000000
 20
0.00000000
 11
0.00000000
 21
-25.400000
  0
LINE
  8
0
 10
0.00000000
 20
-25.400000
 11
-10.160000
 21
-25.400000
  0
LINE
  8
0
 10
-10.160000
 20
-25.400000
 11
-10.160000
 21
-22.859999
  0
ENDBLK
  8
0
  0
BLOCK
  8
0
  2
FINFLR
 70
     0
 10
0.00000000
 20
0.00000000
  0
LINE
  8
0
 10
0.00000000
 20
0.00000000
 11
12.6999998
 21
25.3999996
  0
LINE
  8
0
 10
12.6999998
 20
25.3999996
 11
-12.700000
 21
25.3999996
  0
LINE
  8
0
 10
-12.700000
 20
25.3999996
 11
0.00000000
 21
0.00000000
  0
LINE
  8
0
 10
0.00000000
 20
0.00000000
 11
0.00000000
 21
25.3999996
  0
SOLID
  8
0
 10
0.00000000
 20
0.00000000
 11
0.00000000
 21
25.3999996
 12
-12.700000
 22
25.3999996
 13
-12.700000
 23
25.3999996
  0
ENDBLK
  8
0
  0
BLOCK
  8
0
  2
CCOL
 70
     0
 10
0.00000000
 20
0.00000000
  0
LINE
  8
0
 10
10.1599999
 20
-2.5400000
 11
10.1599999
 21
0.00000000
  0
LINE
  8
0
 10
10.1599999
 20
0.00000000
 11
0.00000000
 21
0.00000000
  0
LINE
  8
0
 10
0.00000000
 20
0.00000000
 11
0.00000000
 21
-25.400000
  0
LINE
  8
0
 10
0.00000000
 20
-25.400000
 11
10.1599999
 21
-25.400000
  0
LINE
  8
0
 10
10.1599999
 20
-25.400000
 11
10.1599999
 21
-22.859999
  0
ENDBLK
  8
0
  0
BLOCK
  8
0
  2
UCOL
 70
     0
 10
0.00000000
 20
0.00000000
  0
LINE
  8
0
 10
10.1599999
 20
0.00000000
 11
0.00000000
 21
0.00000000
  0
LINE
  8
0
 10
0.00000000
 20
0.00000000
 11
0.00000000
 21
-25.400000
  0
LINE
  8
0
 10
0.00000000
 20
-25.400000
 11
10.1599999
 21
-25.400000
  0
ENDBLK
  8
0
  0
BLOCK
  8
0
  2
DCOL
 70
     0
 10
0.00000000
 20
0.00000000
  0
INSERT
  8
0
  2
CCOL
 10
0.00000000
 20
0.00000000
 41
1.00000000
 42
1.00000000
 43
1.00000000
 50
0.00000000
  0
INSERT
  8
0
  2
CCOL
 10
0.00000000
 20
0.00000000
 41
-1.0000000
 42
1.00000000
 43
1.00000000
 50
0.00000000
  0
ENDBLK
  8
0
  0
BLOCK
  8
0
  2
MARKER
 70
     0
 10
0.00000000
 20
0.00000000
  0
LINE
  8
0
 10
0.00000000
 20
0.00000000
 11
197.032700
 21
197.032700
  0
LINE
  8
0
 10
197.032700
 20
197.032700
 11
-197.03270
 21
197.032700
  0
LINE
  8
0
 10
-197.03270
 20
197.032700
 11
0.00000000
 21
0.00000000
  0
ENDBLK
  8
0
  0
BLOCK
  8
0
  2
FLGCLP
 70
     0
 10
0.00000000
 20
0.00000000
  0
LINE
  8
0
 10
0.00000000
 20
0.00000000
 11
25.3999996
 21
25.3999996
  0
LINE
  8
0
 10
25.3999996
 20
25.3999996
 11
-25.400000
 21
25.3999996
  0
LINE
  8
0
 10
-25.400000
 20
25.3999996
 11
0.00000000
 21
0.00000000
  0
LINE
  8
0
 10
-8.4666672
 20
8.46666716
 11
8.46666716
 21
8.46666716
  0
LINE
  8
0
 10
-8.4666672
 20
8.46666716
 11
-8.4666672
 21
25.3999996
  0
LINE
  8
0
 10
8.46666716
 20
8.46666716
 11
8.46666716
 21
25.3999996
  0
ENDBLK
  8
0
  0
BLOCK
  8
0
  2
CUTFRM
 70
     0
 10
0.00000000
 20
0.00000000
  0
LINE
  8
0
 10
0.00000000
 20
0.00000000
 11
0.00000000
 21
-25.400000
  0
LINE
  8
0
 10
0.00000000
 20
-25.400000
 11
-187.18106
 21
-25.400000
  0
ENDBLK
  8
0
  0
BLOCK
  8
0
  2
VSECTN
 70
     0
 10
0.00000000
 20
0.00000000
  0
LINE
  8
0
 10
-12.700000
 20
25.3999996
 11
12.6999998
 21
25.3999996
  0
LINE
  8
0
 10
-12.700000
 20
25.3999996
 11
0.00000000
 21
0.00000000
  0
LINE
  8
0
 10
0.00000000
 20
0.00000000
 11
12.6999998
 21
25.3999996
  0
ENDBLK
  8
0
  0
BLOCK
  8
0
  2
ASECT
 70
     0
 10
0.00000000
 20
0.00000000
  0
LINE
  8
0
 10
0.00000000
 20
0.00000000
 11
25.3999996
 21
0.00000000
  0
LINE
  8
0
 10
0.00000000
 20
0.00000000
 11
0.00000000
 21
-25.400000
  0
ENDBLK
  8
0
  0
BLOCK
  8
0
  2
FRAME1
 70
     0
 10
0.00000000
 20
0.00000000
  0
LINE
  8
5
 10
0.00000000
 20
2500.00000
 11
0.00000000
 21
8420.00000
  0
LINE
  8
5
 10
0.00000000
 20
8420.00000
 11
11235.0000
 21
9543.50000
  0
LINE
  8
5
 10
11235.0000
 20
9543.50000
 11
22470.0000
 21
8420.00000
  0
LINE
  8
5
 10
22470.0000
 20
8420.00000
 11
22470.0000
 21
2500.00000
  0
LINE
  8
3
 10
-1637.8344
 20
9805.52930
 11
-1236.8417
 21
10037.0430
  0
LINE
  8
3
 10
-1586.6437
 20
9835.08398
 11
-1288.0321
 21
9835.08398
  0
LINE
  8
3
 10
-1288.0321
 20
10007.4883
 11
-1288.0321
 21
9835.08398
  0
TEXT
  8
3
 7
SIMPLEX
 10
-1226.4595
 20
9835.08398
 40
123.145439
  1
10.0
 50
0.00000000
  0
TEXT
  8
3
 7
SIMPLEX
 10
-1498.9106
 20
9650.36621
 40
123.145439
  1
100
 50
0.00000000
  0
LINE
  8
3
 10
24058.5781
 20
9805.52930
 11
23657.5859
 21
10037.0430
  0
LINE
  8
3
 10
24007.3867
 20
9835.08398
 11
23708.7754
 21
9835.08398
  0
LINE
  8
3
 10
23708.7754
 20
10007.4883
 11
23708.7754
 21
9835.08398
  0
TEXT
  8
3
 7
SIMPLEX
 10
23093.0488
 20
9835.08398
 40
123.145439
  1
  10.0
 50
0.00000000
  0
TEXT
  8
3
 7
SIMPLEX
 10
23796.5078
 20
9650.36621
 40
123.145439
  1
100
 50
0.00000000
  0
LINE
  8
1
 10
11160.0000
 20
8813.98047
 11
11160.0000
 21
16.0000000
  0
LINE
  8
1
 10
11309.9990
 20
8813.98047
 11
11309.9990
 21
16.0000000
  0
LINE
  8
1
 10
941.999939
 20
6204.00000
 11
1730.00000
 21
6204.00000
  0
LINE
  8
1
 10
941.999939
 20
6196.00000
 11
1730.00000
 21
6196.00000
  0
LINE
  8
1
 10
1730.00000
 20
6204.00000
 11
1730.00000
 21
5838.00000
  0
LINE
  8
1
 10
1730.00000
 20
5838.00000
 11
941.999939
 21
5838.00000
  0
LINE
  8
1
 10
1730.00000
 20
5846.00000
 11
941.999939
 21
5846.00000
  0
LINE
  8
1
 10
1730.00000
 20
5838.00000
 11
1730.00000
 21
5738.00000
  0
LINE
  8
1
 10
1730.00000
 20
5738.00000
 11
941.999939
 21
5283.04688
  0
LINE
  8
1
 10
21528.0000
 20
6204.00000
 11
20739.9980
 21
6204.00000
  0
LINE
  8
1
 10
21528.0000
 20
6196.00000
 11
20739.9980
 21
6196.00000
  0
LINE
  8
1
 10
20739.9980
 20
6204.00000
 11
20739.9980
 21
5838.00000
  0
LINE
  8
1
 10
20739.9980
 20
5838.00000
 11
21528.0000
 21
5838.00000
  0
LINE
  8
1
 10
20739.9980
 20
5846.00000
 11
21528.0000
 21
5846.00000
  0
LINE
  8
1
 10
20739.9980
 20
5838.00000
 11
20739.9980
 21
5738.00000
  0
LINE
  8
1
 10
20739.9980
 20
5738.00000
 11
21528.0000
 21
5283.04688
  0
LINE
  8
1
 10
11135.0000
 20
8829.98047
 11
11135.0000
 21
8813.98047
  0
LINE
  8
1
 10
11135.0000
 20
8813.98047
 11
11334.9990
 21
8813.98047
  0
LINE
  8
1
 10
11334.9990
 20
8813.98047
 11
11334.9990
 21
8829.98047
  0
LINE
  8
1
 10
236.000000
 20
16.0000000
 11
636.000000
 21
16.0000000
  0
LINE
  8
1
 10
636.000000
 20
16.0000000
 11
936.000000
 21
4015.99976
  0
LINE
  8
1
 10
936.000000
 20
4015.99976
 11
936.000000
 21
4015.99976
  0
LINE
  8
1
 10
936.000000
 20
4015.99976
 11
236.000000
 21
4015.99976
  0
LINE
  8
1
 10
236.000000
 20
16.0000000
 11
236.000000
 21
4015.99976
  0
LINE
  8
1
 10
236.000000
 20
4015.99976
 11
936.000000
 21
4015.99976
  0
LINE
  8
1
 10
936.000000
 20
4015.99976
 11
936.000000
 21
7933.63184
  0
LINE
  8
1
 10
936.000000
 20
7933.63184
 11
936.000000
 21
7933.63184
  0
LINE
  8
1
 10
936.000000
 20
7933.63184
 11
236.000000
 21
7933.63184
  0
LINE
  8
1
 10
236.000000
 20
4015.99976
 11
236.000000
 21
7933.63184
  0
LINE
  8
1
 10
336.000000
 20
5844.00000
 11
936.000000
 21
5844.00000
  0
LINE
  8
1
 10
336.000000
 20
5838.00000
 11
936.000000
 21
5838.00000
  0
LINE
  8
1
 10
336.000000
 20
5844.00000
 11
336.000000
 21
5838.00000
  0
LINE
  8
1
 10
936.000000
 20
5844.00000
 11
936.000000
 21
5838.00000
  0
LINE
  8
1
 10
336.000000
 20
6204.00000
 11
936.000000
 21
6204.00000
  0
LINE
  8
1
 10
336.000000
 20
6198.00000
 11
936.000000
 21
6198.00000
  0
LINE
  8
1
 10
336.000000
 20
6204.00000
 11
336.000000
 21
6198.00000
  0
LINE
  8
1
 10
936.000000
 20
6204.00000
 11
936.000000
 21
6198.00000
  0
LINE
  8
1
 10
236.000000
 20
6420.00000
 11
836.000000
 21
6420.00000
  0
LINE
  8
1
 10
236.000000
 20
6414.00000
 11
836.000000
 21
6414.00000
  0
LINE
  8
1
 10
236.000000
 20
6420.00000
 11
236.000000
 21
6414.00000
  0
LINE
  8
1
 10
836.000000
 20
6420.00000
 11
836.000000
 21
6414.00000
  0
LINE
  8
1
 10
236.000000
 20
16.0000000
 11
236.000000
 21
7933.63184
  0
LINE
  8
1
 10
236.000000
 20
7933.63184
 11
229.999985
 21
7933.63184
  0
LINE
  8
1
 10
229.999985
 20
7933.63184
 11
229.999985
 21
16.0000000
  0
LINE
  8
1
 10
236.000000
 20
16.0000000
 11
229.999985
 21
16.0000000
  0
LINE
  8
1
 10
636.033997
 20
16.4489994
 11
936.000000
 21
4015.99976
  0
LINE
  8
1
 10
936.000000
 20
4015.99976
 11
941.982971
 21
4015.55103
  0
LINE
  8
1
 10
941.982971
 20
4015.55103
 11
642.017029
 21
16.0000000
  0
LINE
  8
1
 10
636.033997
 20
16.4489994
 11
642.017029
 21
16.0000000
  0
LINE
  8
1
 10
936.000000
 20
4015.99976
 11
936.000000
 21
7933.63184
  0
LINE
  8
1
 10
936.000000
 20
7933.63184
 11
941.999939
 21
7933.63184
  0
LINE
  8
1
 10
941.999939
 20
7933.63184
 11
941.999939
 21
4015.99976
  0
LINE
  8
1
 10
936.000000
 20
4015.99976
 11
941.999939
 21
4015.99976
  0
LINE
  8
1
 10
158.000000
 20
-28.700001
 11
158.000000
 21
28.7000008
  0
LINE
  8
1
 10
308.000000
 20
-28.700001
 11
308.000000
 21
28.7000008
  0
LINE
  8
1
 10
562.807983
 20
-28.700001
 11
562.807983
 21
28.7000008
  0
LINE
  8
1
 10
712.807983
 20
-28.700001
 11
712.807983
 21
28.7000008
  0
LINE
  8
1
 10
82.9999924
 20
0.00000000
 11
787.807983
 21
0.00000000
  0
LINE
  8
1
 10
787.807983
 20
0.00000000
 11
787.807983
 21
16.0000000
  0
LINE
  8
1
 10
787.807983
 20
16.0000000
 11
82.9999924
 21
16.0000000
  0
LINE
  8
1
 10
82.9999924
 20
0.00000000
 11
82.9999924
 21
16.0000000
  0
LINE
  8
1
 10
186.000000
 20
7920.93164
 11
186.000000
 21
7978.33154
  0
LINE
  8
1
 10
286.000000
 20
7920.93164
 11
286.000000
 21
7978.33154
  0
LINE
  8
1
 10
586.000000
 20
7920.93164
 11
586.000000
 21
7978.33154
  0
LINE
  8
1
 10
886.000000
 20
7920.93164
 11
886.000000
 21
7978.33154
  0
LINE
  8
1
 10
986.000000
 20
7920.93164
 11
986.000000
 21
7978.33154
  0
LINE
  8
1
 10
136.000000
 20
7949.63184
 11
1036.00000
 21
7949.63184
  0
LINE
  8
1
 10
1036.00000
 20
7949.63184
 11
1036.00000
 21
7933.63184
  0
LINE
  8
1
 10
1036.00000
 20
7933.63184
 11
136.000000
 21
7933.63184
  0
LINE
  8
1
 10
136.000000
 20
7949.63184
 11
136.000000
 21
7933.63184
  0
LINE
  8
1
 10
229.999985
 20
16.0000000
 11
229.999985
 21
213.000000
  0
LINE
  8
1
 10
229.999985
 20
213.000000
 11
82.9999924
 21
66.0000000
  0
LINE
  8
1
 10
82.9999924
 20
66.0000000
 11
82.9999924
 21
16.0000000
  0
LINE
  8
1
 10
229.999985
 20
16.0000000
 11
82.9999924
 21
16.0000000
  0
LINE
  8
1
 10
642.017029
 20
16.0000000
 11
656.700989
 21
211.792007
  0
LINE
  8
1
 10
656.700989
 20
211.792007
 11
787.807983
 21
66.0000000
  0
LINE
  8
1
 10
787.807983
 20
66.0000000
 11
787.807983
 21
16.0000000
  0
LINE
  8
1
 10
642.017029
 20
16.0000000
 11
787.807983
 21
16.0000000
  0
LINE
  8
1
 10
229.999985
 20
7933.63184
 11
229.999985
 21
7813.63135
  0
LINE
  8
1
 10
229.999985
 20
7813.63135
 11
136.000000
 21
7933.63184
  0
LINE
  8
1
 10
136.000000
 20
7933.63184
 11
136.000000
 21
7933.63184
  0
LINE
  8
1
 10
229.999985
 20
7933.63184
 11
136.000000
 21
7933.63184
  0
LINE
  8
1
 10
941.999939
 20
7933.63184
 11
941.999939
 21
7813.63135
  0
LINE
  8
1
 10
941.999939
 20
7813.63135
 11
1036.00000
 21
7933.63184
  0
LINE
  8
1
 10
1036.00000
 20
7933.63184
 11
1036.00000
 21
7933.63184
  0
LINE
  8
1
 10
941.999939
 20
7933.63184
 11
1036.00000
 21
7933.63184
  0
LINE
  8
1
 10
4664.73389
 20
8730.70020
 11
4694.62891
 21
8431.75684
  0
LINE
  8
1
 10
4694.62891
 20
8431.75684
 11
1038.99988
 21
7965.63086
  0
LINE
  8
1
 10
1038.99988
 20
7965.63086
 11
236.000000
 21
7965.63086
  0
LINE
  8
1
 10
236.000000
 20
7965.63086
 11
236.000000
 21
8287.82617
  0
LINE
  8
1
 10
4664.73389
 20
8730.70020
 11
236.000000
 21
8287.82617
  0
LINE
  8
1
 10
906.162964
 20
8324.14258
 11
941.984924
 21
7965.92969
  0
LINE
  8
1
 10
900.193054
 20
8323.54590
 11
936.015015
 21
7965.33301
  0
LINE
  8
1
 10
906.162964
 20
8324.14258
 11
900.193054
 21
8323.54590
  0
LINE
  8
1
 10
941.984924
 20
7965.92969
 11
936.015015
 21
7965.33301
  0
LINE
  8
1
 10
4664.73389
 20
8730.70020
 11
10.4980002
 21
8265.27637
  0
LINE
  8
1
 10
10.4980002
 20
8265.27637
 11
10.0000000
 21
8270.25098
  0
LINE
  8
1
 10
10.0000000
 20
8270.25098
 11
4664.23633
 21
8735.67480
  0
LINE
  8
1
 10
4664.73389
 20
8730.70020
 11
4664.23633
 21
8735.67480
  0
LINE
  8
1
 10
236.000000
 20
7965.63086
 11
236.000000
 21
8287.32617
  0
LINE
  8
1
 10
236.000000
 20
8287.32617
 11
231.000000
 21
8287.32617
  0
LINE
  8
1
 10
231.000000
 20
8287.32617
 11
231.000000
 21
7965.63086
  0
LINE
  8
1
 10
236.000000
 20
7965.63086
 11
231.000000
 21
7965.63086
  0
LINE
  8
1
 10
231.000000
 20
8287.32617
 11
1.00000000
 21
8264.32520
  0
LINE
  8
1
 10
1.00000000
 20
8264.32520
 11
231.000000
 21
8172.32617
  0
LINE
  8
1
 10
4694.49512
 20
8431.73926
 11
1038.99988
 21
7965.63086
  0
LINE
  8
1
 10
1038.99988
 20
7965.63086
 11
1039.63306
 21
7960.67090
  0
LINE
  8
1
 10
1039.63306
 20
7960.67090
 11
4695.12695
 21
8426.77930
  0
LINE
  8
1
 10
4694.49512
 20
8431.73926
 11
4695.12695
 21
8426.77930
  0
LINE
  8
1
 10
4647.12305
 20
8779.18848
 11
4704.23779
 21
8784.90039
  0
LINE
  8
1
 10
4657.07324
 20
8679.68555
 11
4714.18799
 21
8685.39648
  0
LINE
  8
1
 10
4676.97412
 20
8480.67773
 11
4734.08887
 21
8486.38867
  0
LINE
  8
1
 10
4686.92383
 20
8381.17480
 11
4744.04004
 21
8386.88574
  0
LINE
  8
1
 10
4670.70508
 20
8831.79688
 11
4720.45654
 21
8334.27734
  0
LINE
  8
1
 10
4720.45654
 20
8334.27734
 11
4704.53711
 21
8332.68457
  0
LINE
  8
1
 10
4704.53711
 20
8332.68457
 11
4654.78418
 21
8830.20410
  0
LINE
  8
1
 10
4670.70508
 20
8831.79688
 11
4654.78418
 21
8830.20410
  0
LINE
  8
1
 10
186.000000
 20
7920.93164
 11
186.000000
 21
7978.33154
  0
LINE
  8
1
 10
286.000000
 20
7920.93164
 11
286.000000
 21
7978.33154
  0
LINE
  8
1
 10
586.000000
 20
7920.93164
 11
586.000000
 21
7978.33154
  0
LINE
  8
1
 10
886.000000
 20
7920.93164
 11
886.000000
 21
7978.33154
  0
LINE
  8
1
 10
986.000000
 20
7920.93164
 11
986.000000
 21
7978.33154
  0
LINE
  8
1
 10
136.000000
 20
7949.63184
 11
1036.00000
 21
7949.63184
  0
LINE
  8
1
 10
1036.00000
 20
7949.63184
 11
1036.00000
 21
7965.63086
  0
LINE
  8
1
 10
1036.00000
 20
7965.63086
 11
136.000000
 21
7965.63086
  0
LINE
  8
1
 10
136.000000
 20
7949.63184
 11
136.000000
 21
7965.63086
  0
LINE
  8
1
 10
4664.23633
 20
8735.67480
 11
4544.83301
 21
8723.73438
  0
LINE
  8
1
 10
4544.83301
 20
8723.73438
 11
4654.78418
 21
8830.20410
  0
LINE
  8
1
 10
4654.78418
 20
8830.20410
 11
4654.78418
 21
8830.20410
  0
LINE
  8
1
 10
4664.23633
 20
8735.67480
 11
4654.78418
 21
8830.20410
  0
LINE
  8
1
 10
4695.12695
 20
8426.77930
 11
4576.04688
 21
8411.59570
  0
LINE
  8
1
 10
4576.04688
 20
8411.59570
 11
4704.53711
 21
8332.68457
  0
LINE
  8
1
 10
4704.53711
 20
8332.68457
 11
4704.53711
 21
8332.68457
  0
LINE
  8
1
 10
4695.12695
 20
8426.77930
 11
4704.53711
 21
8332.68457
  0
LINE
  8
1
 10
231.000000
 20
7965.63086
 11
231.000000
 21
8085.62988
  0
LINE
  8
1
 10
231.000000
 20
8085.62988
 11
136.000000
 21
7965.63086
  0
LINE
  8
1
 10
136.000000
 20
7965.63086
 11
136.000000
 21
7965.63086
  0
LINE
  8
1
 10
231.000000
 20
7965.63086
 11
136.000000
 21
7965.63086
  0
LINE
  8
1
 10
8676.72461
 20
9131.89941
 11
8706.57520
 21
8833.38867
  0
LINE
  8
1
 10
8706.57520
 20
8833.38867
 11
4726.42676
 21
8435.37305
  0
LINE
  8
1
 10
4726.42676
 20
8435.37305
 11
4726.42676
 21
8435.37305
  0
LINE
  8
1
 10
4726.42676
 20
8435.37305
 11
4696.57617
 21
8733.88477
  0
LINE
  8
1
 10
8676.72461
 20
9131.89941
 11
4696.57617
 21
8733.88477
  0
LINE
  8
1
 10
8676.72461
 20
9131.89941
 11
4696.57617
 21
8733.88477
  0
LINE
  8
1
 10
4696.57617
 20
8733.88477
 11
4696.07910
 21
8738.85938
  0
LINE
  8
1
 10
4696.07910
 20
8738.85938
 11
8676.22656
 21
9136.87500
  0
LINE
  8
1
 10
8676.72461
 20
9131.89941
 11
8676.22656
 21
9136.87500
  0
LINE
  8
1
 10
8706.57520
 20
8833.38867
 11
4726.42676
 21
8435.37305
  0
LINE
  8
1
 10
4726.42676
 20
8435.37305
 11
4726.92480
 21
8430.39844
  0
LINE
  8
1
 10
4726.92480
 20
8430.39844
 11
8707.07324
 21
8828.41406
  0
LINE
  8
1
 10
8706.57520
 20
8833.38867
 11
8707.07324
 21
8828.41406
  0
LINE
  8
1
 10
8659.11133
 20
9180.38867
 11
8716.22754
 21
9186.09961
  0
LINE
  8
1
 10
8669.06152
 20
9080.88477
 11
8726.17773
 21
9086.59668
  0
LINE
  8
1
 10
8688.96289
 20
8881.87695
 11
8746.07910
 21
8887.58887
  0
LINE
  8
1
 10
8698.91406
 20
8782.37402
 11
8756.02930
 21
8788.08496
  0
LINE
  8
1
 10
8682.69434
 20
9232.99609
 11
8732.44629
 21
8735.47656
  0
LINE
  8
1
 10
8732.44629
 20
8735.47656
 11
8716.52637
 21
8733.88477
  0
LINE
  8
1
 10
8716.52637
 20
8733.88477
 11
8666.77441
 21
9231.40430
  0
LINE
  8
1
 10
8682.69434
 20
9232.99609
 11
8666.77441
 21
9231.40430
  0
LINE
  8
1
 10
4647.12305
 20
8779.18848
 11
4704.23779
 21
8784.90039
  0
LINE
  8
1
 10
4657.07324
 20
8679.68555
 11
4714.18799
 21
8685.39648
  0
LINE
  8
1
 10
4676.97412
 20
8480.67773
 11
4734.08887
 21
8486.38867
  0
LINE
  8
1
 10
4686.92383
 20
8381.17480
 11
4744.04004
 21
8386.88574
  0
LINE
  8
1
 10
4670.70508
 20
8831.79688
 11
4720.45654
 21
8334.27734
  0
LINE
  8
1
 10
4720.45654
 20
8334.27734
 11
4736.37793
 21
8335.86914
  0
LINE
  8
1
 10
4736.37793
 20
8335.86914
 11
4686.62500
 21
8833.38867
  0
LINE
  8
1
 10
4670.70508
 20
8831.79688
 11
4686.62500
 21
8833.38867
  0
LINE
  8
1
 10
8676.22656
 20
9136.87500
 11
8556.82129
 21
9124.93457
  0
LINE
  8
1
 10
8556.82129
 20
9124.93457
 11
8666.77441
 21
9231.40430
  0
LINE
  8
1
 10
8666.77441
 20
9231.40430
 11
8666.77441
 21
9231.40430
  0
LINE
  8
1
 10
8676.22656
 20
9136.87500
 11
8666.77441
 21
9231.40430
  0
LINE
  8
1
 10
8707.07324
 20
8828.41406
 11
8587.66895
 21
8816.47363
  0
LINE
  8
1
 10
8587.66895
 20
8816.47363
 11
8716.52637
 21
8733.88477
  0
LINE
  8
1
 10
8716.52637
 20
8733.88477
 11
8716.52637
 21
8733.88477
  0
LINE
  8
1
 10
8707.07324
 20
8828.41406
 11
8716.52637
 21
8733.88477
  0
LINE
  8
1
 10
4696.07910
 20
8738.85938
 11
4815.48291
 21
8750.79980
  0
LINE
  8
1
 10
4815.48291
 20
8750.79980
 11
4686.62500
 21
8833.38867
  0
LINE
  8
1
 10
4686.62500
 20
8833.38867
 11
4686.62500
 21
8833.38867
  0
LINE
  8
1
 10
4696.07910
 20
8738.85938
 11
4686.62500
 21
8833.38867
  0
LINE
  8
1
 10
4726.92480
 20
8430.39844
 11
4846.32910
 21
8442.33887
  0
LINE
  8
1
 10
4846.32910
 20
8442.33887
 11
4736.37793
 21
8335.86914
  0
LINE
  8
1
 10
4736.37793
 20
8335.86914
 11
4736.37793
 21
8335.86914
  0
LINE
  8
1
 10
4726.92480
 20
8430.39844
 11
4736.37793
 21
8335.86914
  0
LINE
  8
1
 10
8738.57617
 20
8834.97949
 11
8708.56641
 21
9135.08398
  0
LINE
  8
1
 10
8708.56641
 20
9135.08398
 11
11235.0000
 21
9387.72559
  0
LINE
  8
1
 10
11235.0000
 20
9387.72559
 11
13761.4004
 21
9135.08691
  0
LINE
  8
1
 10
13761.4004
 20
9135.08691
 11
13731.3906
 21
8834.97949
  0
LINE
  8
1
 10
8738.57617
 20
8834.97949
 11
13731.3906
 21
8834.97949
  0
LINE
  8
1
 10
8708.56641
 20
9135.08398
 11
11235.0000
 21
9387.72559
  0
LINE
  8
1
 10
11235.0000
 20
9387.72559
 11
11234.5029
 21
9392.70215
  0
LINE
  8
1
 10
11234.5029
 20
9392.70215
 11
8708.06836
 21
9140.05859
  0
LINE
  8
1
 10
8708.56641
 20
9135.08398
 11
8708.06836
 21
9140.05859
  0
LINE
  8
1
 10
11235.0000
 20
9387.72559
 11
13761.4004
 21
9135.08691
  0
LINE
  8
1
 10
13761.4004
 20
9135.08691
 11
13761.8975
 21
9140.06152
  0
LINE
  8
1
 10
13761.8975
 20
9140.06152
 11
11235.4980
 21
9392.70215
  0
LINE
  8
1
 10
11235.0000
 20
9387.72559
 11
11235.4980
 21
9392.70215
  0
LINE
  8
1
 10
8739.07617
 20
8834.97949
 11
13730.8877
 21
8834.97949
  0
LINE
  8
1
 10
13730.8877
 20
8834.97949
 11
13730.8877
 21
8829.98145
  0
LINE
  8
1
 10
13730.8877
 20
8829.98145
 11
8739.07617
 21
8829.98145
  0
LINE
  8
1
 10
8739.07617
 20
8834.97949
 11
8739.07617
 21
8829.98145
  0
LINE
  8
1
 10
11238.0000
 20
9284.98047
 11
11238.0000
 21
8834.97949
  0
LINE
  8
1
 10
11232.0000
 20
9284.98047
 11
11232.0000
 21
8834.97949
  0
LINE
  8
1
 10
11238.0000
 20
9284.98047
 11
11232.0000
 21
9284.98047
  0
LINE
  8
1
 10
11238.0000
 20
8834.97949
 11
11232.0000
 21
8834.97949
  0
LINE
  8
1
 10
8659.11133
 20
9180.38867
 11
8716.22754
 21
9186.09961
  0
LINE
  8
1
 10
8669.06152
 20
9080.88477
 11
8726.17773
 21
9086.59668
  0
LINE
  8
1
 10
8688.96289
 20
8881.87695
 11
8746.07910
 21
8887.58887
  0
LINE
  8
1
 10
8698.91406
 20
8782.37402
 11
8756.02930
 21
8788.08496
  0
LINE
  8
1
 10
8682.69434
 20
9232.99609
 11
8732.44629
 21
8735.47656
  0
LINE
  8
1
 10
8732.44629
 20
8735.47656
 11
8748.36621
 21
8737.06934
  0
LINE
  8
1
 10
8748.36621
 20
8737.06934
 11
8698.61523
 21
9234.58691
  0
LINE
  8
1
 10
8682.69434
 20
9232.99609
 11
8698.61523
 21
9234.58691
  0
LINE
  8
1
 10
13753.7373
 20
9186.10254
 11
13810.8525
 21
9180.39160
  0
LINE
  8
1
 10
13743.7871
 20
9086.59863
 11
13800.9043
 21
9080.88770
  0
LINE
  8
1
 10
13723.8867
 20
8887.59180
 11
13781.0020
 21
8881.87988
  0
LINE
  8
1
 10
13713.9355
 20
8788.08789
 11
13771.0527
 21
8782.37500
  0
LINE
  8
1
 10
13787.2686
 20
9232.99902
 11
13737.5195
 21
8735.47852
  0
LINE
  8
1
 10
13737.5195
 20
8735.47852
 11
13721.5996
 21
8737.07031
  0
LINE
  8
1
 10
13721.5996
 20
8737.07031
 11
13771.3506
 21
9234.59082
  0
LINE
  8
1
 10
13787.2686
 20
9232.99902
 11
13771.3506
 21
9234.59082
  0
LINE
  8
1
 10
8708.06836
 20
9140.05859
 11
8827.47266
 21
9151.99902
  0
LINE
  8
1
 10
8827.47266
 20
9151.99902
 11
8698.61523
 21
9234.58691
  0
LINE
  8
1
 10
8698.61523
 20
9234.58691
 11
8698.61523
 21
9234.58691
  0
LINE
  8
1
 10
8708.06836
 20
9140.05859
 11
8698.61523
 21
9234.58691
  0
LINE
  8
1
 10
8739.07617
 20
8829.98145
 11
8859.67578
 21
8829.98145
  0
LINE
  8
1
 10
8859.67578
 20
8829.98145
 11
8748.36621
 21
8737.06934
  0
LINE
  8
1
 10
8748.36621
 20
8737.06934
 11
8748.36621
 21
8737.06934
  0
LINE
  8
1
 10
8739.07617
 20
8829.98145
 11
8748.36621
 21
8737.06934
  0
LINE
  8
1
 10
13761.8975
 20
9140.06152
 11
13642.4932
 21
9152.00293
  0
LINE
  8
1
 10
13642.4932
 20
9152.00293
 11
13771.3506
 21
9234.59082
  0
LINE
  8
1
 10
13771.3506
 20
9234.59082
 11
13771.3506
 21
9234.59082
  0
LINE
  8
1
 10
13761.8975
 20
9140.06152
 11
13771.3506
 21
9234.59082
  0
LINE
  8
1
 10
13730.8916
 20
8829.98145
 11
13610.2910
 21
8829.98145
  0
LINE
  8
1
 10
13610.2910
 20
8829.98145
 11
13721.5996
 21
8737.07031
  0
LINE
  8
1
 10
13721.5996
 20
8737.07031
 11
13721.5996
 21
8737.07031
  0
LINE
  8
1
 10
13730.8916
 20
8829.98145
 11
13721.5996
 21
8737.07031
  0
LINE
  8
1
 10
13793.2402
 20
9131.90332
 11
13763.3887
 21
8833.39160
  0
LINE
  8
1
 10
13763.3887
 20
8833.39160
 11
17743.5391
 21
8435.37598
  0
LINE
  8
1
 10
17743.5391
 20
8435.37598
 11
17743.5391
 21
8435.37598
  0
LINE
  8
1
 10
17743.5391
 20
8435.37598
 11
17773.3906
 21
8733.88867
  0
LINE
  8
1
 10
13793.2402
 20
9131.90332
 11
17773.3906
 21
8733.88867
  0
LINE
  8
1
 10
13793.2402
 20
9131.90332
 11
17773.3906
 21
8733.88867
  0
LINE
  8
1
 10
17773.3906
 20
8733.88867
 11
17773.8887
 21
8738.86328
  0
LINE
  8
1
 10
17773.8887
 20
8738.86328
 11
13793.7373
 21
9136.87793
  0
LINE
  8
1
 10
13793.2402
 20
9131.90332
 11
13793.7373
 21
9136.87793
  0
LINE
  8
1
 10
13763.3887
 20
8833.39160
 11
17743.5391
 21
8435.37598
  0
LINE
  8
1
 10
17743.5391
 20
8435.37598
 11
17743.0430
 21
8430.40234
  0
LINE
  8
1
 10
17743.0430
 20
8430.40234
 11
13762.8916
 21
8828.41699
  0
LINE
  8
1
 10
13763.3887
 20
8833.39160
 11
13762.8916
 21
8828.41699
  0
LINE
  8
1
 10
13753.7373
 20
9186.10254
 11
13810.8525
 21
9180.39160
  0
LINE
  8
1
 10
13743.7871
 20
9086.59863
 11
13800.9043
 21
9080.88770
  0
LINE
  8
1
 10
13723.8867
 20
8887.59180
 11
13781.0020
 21
8881.87988
  0
LINE
  8
1
 10
13713.9355
 20
8788.08789
 11
13771.0527
 21
8782.37500
  0
LINE
  8
1
 10
13787.2686
 20
9232.99902
 11
13737.5195
 21
8735.47852
  0
LINE
  8
1
 10
13737.5195
 20
8735.47852
 11
13753.4404
 21
8733.88574
  0
LINE
  8
1
 10
13753.4404
 20
8733.88574
 11
13803.1885
 21
9231.40723
  0
LINE
  8
1
 10
13787.2686
 20
9232.99902
 11
13803.1885
 21
9231.40723
  0
LINE
  8
1
 10
17765.7285
 20
8784.90430
 11
17822.8438
 21
8779.19238
  0
LINE
  8
1
 10
17755.7773
 20
8685.40039
 11
17812.8945
 21
8679.68848
  0
LINE
  8
1
 10
17735.8770
 20
8486.39258
 11
17792.9902
 21
8480.68164
  0
LINE
  8
1
 10
17725.9277
 20
8386.88867
 11
17783.0430
 21
8381.17773
  0
LINE
  8
1
 10
17799.2598
 20
8831.80078
 11
17749.5098
 21
8334.28125
  0
LINE
  8
1
 10
17749.5098
 20
8334.28125
 11
17733.5898
 21
8335.87305
  0
LINE
  8
1
 10
17733.5898
 20
8335.87305
 11
17783.3398
 21
8833.39258
  0
LINE
  8
1
 10
17799.2598
 20
8831.80078
 11
17783.3398
 21
8833.39258
  0
LINE
  8
1
 10
13793.7373
 20
9136.87793
 11
13913.1426
 21
9124.93848
  0
LINE
  8
1
 10
13913.1426
 20
9124.93848
 11
13803.1885
 21
9231.40723
  0
LINE
  8
1
 10
13803.1885
 20
9231.40723
 11
13803.1885
 21
9231.40723
  0
LINE
  8
1
 10
13793.7373
 20
9136.87793
 11
13803.1885
 21
9231.40723
  0
LINE
  8
1
 10
13762.8916
 20
8828.41699
 11
13882.2979
 21
8816.47656
  0
LINE
  8
1
 10
13882.2979
 20
8816.47656
 11
13753.4404
 21
8733.88574
  0
LINE
  8
1
 10
13753.4404
 20
8733.88574
 11
13753.4404
 21
8733.88574
  0
LINE
  8
1
 10
13762.8916
 20
8828.41699
 11
13753.4404
 21
8733.88574
  0
LINE
  8
1
 10
17773.8887
 20
8738.86328
 11
17654.4824
 21
8750.80371
  0
LINE
  8
1
 10
17654.4824
 20
8750.80371
 11
17783.3398
 21
8833.39258
  0
LINE
  8
1
 10
17783.3398
 20
8833.39258
 11
17783.3398
 21
8833.39258
  0
LINE
  8
1
 10
17773.8887
 20
8738.86328
 11
17783.3398
 21
8833.39258
  0
LINE
  8
1
 10
17743.0430
 20
8430.40234
 11
17623.6348
 21
8442.34277
  0
LINE
  8
1
 10
17623.6348
 20
8442.34277
 11
17733.5898
 21
8335.87305
  0
LINE
  8
1
 10
17733.5898
 20
8335.87305
 11
17733.5898
 21
8335.87305
  0
LINE
  8
1
 10
17743.0430
 20
8430.40234
 11
17733.5898
 21
8335.87305
  0
LINE
  8
1
 10
17805.2305
 20
8730.70410
 11
17775.3379
 21
8431.76074
  0
LINE
  8
1
 10
17775.3379
 20
8431.76074
 11
21431.0000
 21
7965.63086
  0
LINE
  8
1
 10
21431.0000
 20
7965.63086
 11
22234.0000
 21
7965.63086
  0
LINE
  8
1
 10
22234.0000
 20
7965.63086
 11
22234.0000
 21
8287.82617
  0
LINE
  8
1
 10
17805.2305
 20
8730.70410
 11
22234.0000
 21
8287.82617
  0
LINE
  8
1
 10
21569.8047
 20
8323.54590
 11
21533.9863
 21
7965.33301
  0
LINE
  8
1
 10
21563.8359
 20
8324.14258
 11
21528.0137
 21
7965.92969
  0
LINE
  8
1
 10
21569.8047
 20
8323.54590
 11
21563.8359
 21
8324.14258
  0
LINE
  8
1
 10
21533.9863
 20
7965.33301
 11
21528.0137
 21
7965.92969
  0
LINE
  8
1
 10
17805.2305
 20
8730.70410
 11
22459.5039
 21
8265.27637
  0
LINE
  8
1
 10
22459.5039
 20
8265.27637
 11
22460.0000
 21
8270.25098
  0
LINE
  8
1
 10
22460.0000
 20
8270.25098
 11
17805.7285
 21
8735.67871
  0
LINE
  8
1
 10
17805.2305
 20
8730.70410
 11
17805.7285
 21
8735.67871
  0
LINE
  8
1
 10
22234.0000
 20
8287.32617
 11
22234.0000
 21
7965.63086
  0
LINE
  8
1
 10
22234.0000
 20
7965.63086
 11
22238.9980
 21
7965.63086
  0
LINE
  8
1
 10
22238.9980
 20
7965.63086
 11
22238.9980
 21
8287.32617
  0
LINE
  8
1
 10
22234.0000
 20
8287.32617
 11
22238.9980
 21
8287.32617
  0
LINE
  8
1
 10
22238.9980
 20
8287.32617
 11
22469.0000
 21
8264.32520
  0
LINE
  8
1
 10
22469.0000
 20
8264.32520
 11
22238.9980
 21
8172.32617
  0
LINE
  8
1
 10
17775.4707
 20
8431.74316
 11
21431.0000
 21
7965.63086
  0
LINE
  8
1
 10
21431.0000
 20
7965.63086
 11
21430.3652
 21
7960.67090
  0
LINE
  8
1
 10
21430.3652
 20
7960.67090
 11
17774.8379
 21
8426.78320
  0
LINE
  8
1
 10
17775.4707
 20
8431.74316
 11
17774.8379
 21
8426.78320
  0
LINE
  8
1
 10
17765.7285
 20
8784.90430
 11
17822.8438
 21
8779.19238
  0
LINE
  8
1
 10
17755.7773
 20
8685.40039
 11
17812.8945
 21
8679.68848
  0
LINE
  8
1
 10
17735.8770
 20
8486.39258
 11
17792.9902
 21
8480.68164
  0
LINE
  8
1
 10
17725.9277
 20
8386.88867
 11
17783.0430
 21
8381.17773
  0
LINE
  8
1
 10
17799.2598
 20
8831.80078
 11
17749.5098
 21
8334.28125
  0
LINE
  8
1
 10
17749.5098
 20
8334.28125
 11
17765.4297
 21
8332.68848
  0
LINE
  8
1
 10
17765.4297
 20
8332.68848
 11
17815.1797
 21
8830.20801
  0
LINE
  8
1
 10
17799.2598
 20
8831.80078
 11
17815.1797
 21
8830.20801
  0
LINE
  8
1
 10
22284.0000
 20
7978.33154
 11
22284.0000
 21
7920.93164
  0
LINE
  8
1
 10
22184.0000
 20
7978.33154
 11
22184.0000
 21
7920.93164
  0
LINE
  8
1
 10
21884.0000
 20
7978.33154
 11
21884.0000
 21
7920.93164
  0
LINE
  8
1
 10
21584.0000
 20
7978.33154
 11
21584.0000
 21
7920.93164
  0
LINE
  8
1
 10
21484.0020
 20
7978.33154
 11
21484.0020
 21
7920.93164
  0
LINE
  8
1
 10
22334.0000
 20
7949.63184
 11
21434.0000
 21
7949.63184
  0
LINE
  8
1
 10
21434.0000
 20
7949.63184
 11
21434.0000
 21
7965.63086
  0
LINE
  8
1
 10
21434.0000
 20
7965.63086
 11
22334.0000
 21
7965.63086
  0
LINE
  8
1
 10
22334.0000
 20
7949.63184
 11
22334.0000
 21
7965.63086
  0
LINE
  8
1
 10
17805.7285
 20
8735.67871
 11
17925.1328
 21
8723.73828
  0
LINE
  8
1
 10
17925.1328
 20
8723.73828
 11
17815.1797
 21
8830.20801
  0
LINE
  8
1
 10
17815.1797
 20
8830.20801
 11
17815.1797
 21
8830.20801
  0
LINE
  8
1
 10
17805.7285
 20
8735.67871
 11
17815.1797
 21
8830.20801
  0
LINE
  8
1
 10
17774.8379
 20
8426.78320
 11
17893.9180
 21
8411.59961
  0
LINE
  8
1
 10
17893.9180
 20
8411.59961
 11
17765.4297
 21
8332.68848
  0
LINE
  8
1
 10
17765.4297
 20
8332.68848
 11
17765.4297
 21
8332.68848
  0
LINE
  8
1
 10
17774.8379
 20
8426.78320
 11
17765.4297
 21
8332.68848
  0
LINE
  8
1
 10
22238.9980
 20
7965.63086
 11
22238.9980
 21
8085.62988
  0
LINE
  8
1
 10
22238.9980
 20
8085.62988
 11
22334.0000
 21
7965.63086
  0
LINE
  8
1
 10
22334.0000
 20
7965.63086
 11
22334.0000
 21
7965.63086
  0
LINE
  8
1
 10
22238.9980
 20
7965.63086
 11
22334.0000
 21
7965.63086
  0
LINE
  8
1
 10
22234.0000
 20
16.0000000
 11
21834.0000
 21
16.0000000
  0
LINE
  8
1
 10
21834.0000
 20
16.0000000
 11
21534.0000
 21
4015.99976
  0
LINE
  8
1
 10
21534.0000
 20
4015.99976
 11
21534.0000
 21
4015.99976
  0
LINE
  8
1
 10
21534.0000
 20
4015.99976
 11
22234.0000
 21
4015.99976
  0
LINE
  8
1
 10
22234.0000
 20
16.0000000
 11
22234.0000
 21
4015.99976
  0
LINE
  8
1
 10
22234.0000
 20
4015.99976
 11
21534.0000
 21
4015.99976
  0
LINE
  8
1
 10
21534.0000
 20
4015.99976
 11
21534.0000
 21
7933.63184
  0
LINE
  8
1
 10
21534.0000
 20
7933.63184
 11
21534.0000
 21
7933.63184
  0
LINE
  8
1
 10
21534.0000
 20
7933.63184
 11
22234.0000
 21
7933.63184
  0
LINE
  8
1
 10
22234.0000
 20
4015.99976
 11
22234.0000
 21
7933.63184
  0
LINE
  8
1
 10
22133.9980
 20
5844.00000
 11
21534.0000
 21
5844.00000
  0
LINE
  8
1
 10
22133.9980
 20
5838.00000
 11
21534.0000
 21
5838.00000
  0
LINE
  8
1
 10
22133.9980
 20
5844.00000
 11
22133.9980
 21
5838.00000
  0
LINE
  8
1
 10
21534.0000
 20
5844.00000
 11
21534.0000
 21
5838.00000
  0
LINE
  8
1
 10
22133.9980
 20
6204.00000
 11
21534.0000
 21
6204.00000
  0
LINE
  8
1
 10
22133.9980
 20
6198.00000
 11
21534.0000
 21
6198.00000
  0
LINE
  8
1
 10
22133.9980
 20
6204.00000
 11
22133.9980
 21
6198.00000
  0
LINE
  8
1
 10
21534.0000
 20
6204.00000
 11
21534.0000
 21
6198.00000
  0
LINE
  8
1
 10
22234.0000
 20
6420.00000
 11
21634.0000
 21
6420.00000
  0
LINE
  8
1
 10
22234.0000
 20
6414.00000
 11
21634.0000
 21
6414.00000
  0
LINE
  8
1
 10
22234.0000
 20
6420.00000
 11
22234.0000
 21
6414.00000
  0
LINE
  8
1
 10
21634.0000
 20
6420.00000
 11
21634.0000
 21
6414.00000
  0
LINE
  8
1
 10
22234.0000
 20
16.0000000
 11
22234.0000
 21
7933.63184
  0
LINE
  8
1
 10
22234.0000
 20
7933.63184
 11
22240.0000
 21
7933.63184
  0
LINE
  8
1
 10
22240.0000
 20
7933.63184
 11
22240.0000
 21
16.0000000
  0
LINE
  8
1
 10
22234.0000
 20
16.0000000
 11
22240.0000
 21
16.0000000
  0
LINE
  8
1
 10
21833.9668
 20
16.4489994
 11
21534.0000
 21
4015.99976
  0
LINE
  8
1
 10
21534.0000
 20
4015.99976
 11
21528.0176
 21
4015.55103
  0
LINE
  8
1
 10
21528.0176
 20
4015.55103
 11
21827.9844
 21
16.0000000
  0
LINE
  8
1
 10
21833.9668
 20
16.4489994
 11
21827.9844
 21
16.0000000
  0
LINE
  8
1
 10
21534.0000
 20
4015.99976
 11
21534.0000
 21
7933.63184
  0
LINE
  8
1
 10
21534.0000
 20
7933.63184
 11
21528.0000
 21
7933.63184
  0
LINE
  8
1
 10
21528.0000
 20
7933.63184
 11
21528.0000
 21
4015.99976
  0
LINE
  8
1
 10
21534.0000
 20
4015.99976
 11
21528.0000
 21
4015.99976
  0
LINE
  8
1
 10
22311.9980
 20
28.7000008
 11
22311.9980
 21
-28.700001
  0
LINE
  8
1
 10
22161.9980
 20
28.7000008
 11
22161.9980
 21
-28.700001
  0
LINE
  8
1
 10
21907.1934
 20
28.7000008
 11
21907.1934
 21
-28.700001
  0
LINE
  8
1
 10
21757.1934
 20
28.7000008
 11
21757.1934
 21
-28.700001
  0
LINE
  8
1
 10
22387.0000
 20
0.00000000
 11
21682.1934
 21
0.00000000
  0
LINE
  8
1
 10
21682.1934
 20
0.00000000
 11
21682.1934
 21
16.0000000
  0
LINE
  8
1
 10
21682.1934
 20
16.0000000
 11
22387.0000
 21
16.0000000
  0
LINE
  8
1
 10
22387.0000
 20
0.00000000
 11
22387.0000
 21
16.0000000
  0
LINE
  8
1
 10
22284.0000
 20
7978.33154
 11
22284.0000
 21
7920.93164
  0
LINE
  8
1
 10
22184.0000
 20
7978.33154
 11
22184.0000
 21
7920.93164
  0
LINE
  8
1
 10
21884.0000
 20
7978.33154
 11
21884.0000
 21
7920.93164
  0
LINE
  8
1
 10
21584.0000
 20
7978.33154
 11
21584.0000
 21
7920.93164
  0
LINE
  8
1
 10
21484.0020
 20
7978.33154
 11
21484.0020
 21
7920.93164
  0
LINE
  8
1
 10
22334.0000
 20
7949.63184
 11
21434.0000
 21
7949.63184
  0
LINE
  8
1
 10
21434.0000
 20
7949.63184
 11
21434.0000
 21
7933.63184
  0
LINE
  8
1
 10
21434.0000
 20
7933.63184
 11
22334.0000
 21
7933.63184
  0
LINE
  8
1
 10
22334.0000
 20
7949.63184
 11
22334.0000
 21
7933.63184
  0
LINE
  8
1
 10
22240.0000
 20
16.0000000
 11
22240.0000
 21
213.000000
  0
LINE
  8
1
 10
22240.0000
 20
213.000000
 11
22387.0000
 21
66.0000000
  0
LINE
  8
1
 10
22387.0000
 20
66.0000000
 11
22387.0000
 21
16.0000000
  0
LINE
  8
1
 10
22240.0000
 20
16.0000000
 11
22387.0000
 21
16.0000000
  0
LINE
  8
1
 10
21827.9844
 20
16.0000000
 11
21813.2969
 21
211.791016
  0
LINE
  8
1
 10
21813.2969
 20
211.791016
 11
21682.1934
 21
66.0000000
  0
LINE
  8
1
 10
21682.1934
 20
66.0000000
 11
21682.1934
 21
16.0000000
  0
LINE
  8
1
 10
21827.9844
 20
16.0000000
 11
21682.1934
 21
16.0000000
  0
LINE
  8
1
 10
22240.0000
 20
7933.63184
 11
22240.0000
 21
7813.63135
  0
LINE
  8
1
 10
22240.0000
 20
7813.63135
 11
22334.0000
 21
7933.63184
  0
LINE
  8
1
 10
22334.0000
 20
7933.63184
 11
22334.0000
 21
7933.63184
  0
LINE
  8
1
 10
22240.0000
 20
7933.63184
 11
22334.0000
 21
7933.63184
  0
LINE
  8
1
 10
21528.0000
 20
7933.63184
 11
21528.0000
 21
7813.63135
  0
LINE
  8
1
 10
21528.0000
 20
7813.63135
 11
21434.0000
 21
7933.63184
  0
LINE
  8
1
 10
21434.0000
 20
7933.63184
 11
21434.0000
 21
7933.63184
  0
LINE
  8
1
 10
21528.0000
 20
7933.63184
 11
21434.0000
 21
7933.63184
  0
LINE
  8
1
 10
11135.0000
 20
0.00000000
 11
11334.9990
 21
0.00000000
  0
LINE
  8
1
 10
11135.0000
 20
16.0000000
 11
11334.9990
 21
16.0000000
  0
LINE
  8
1
 10
11135.0000
 20
0.00000000
 11
11135.0000
 21
16.0000000
  0
LINE
  8
1
 10
11334.9990
 20
0.00000000
 11
11334.9990
 21
16.0000000
  0
LINE
  8
1
 10
11185.0000
 20
25.3999996
 11
11185.0000
 21
-25.400000
  0
LINE
  8
1
 10
11285.0000
 20
25.3999996
 11
11285.0000
 21
-25.400000
  0
LINE
  8
1
 10
11135.0000
 20
8829.98047
 11
11135.0000
 21
8813.98047
  0
LINE
  8
1
 10
11135.0000
 20
8813.98047
 11
11334.9990
 21
8813.98047
  0
LINE
  8
1
 10
11334.9990
 20
8813.98047
 11
11334.9990
 21
8829.98047
  0
LINE
  8
2
 10
10988.7090
 20
0.00000000
 11
11481.2910
 21
0.00000000
  0
LINE
  8
2
 10
10988.7090
 20
-59.109810
 11
11047.8184
 21
0.00000000
  0
LINE
  8
2
 10
11047.8184
 20
-59.109810
 11
11106.9277
 21
0.00000000
  0
LINE
  8
2
 10
11106.9277
 20
-59.109810
 11
11166.0381
 21
0.00000000
  0
LINE
  8
2
 10
11166.0381
 20
-59.109810
 11
11225.1475
 21
0.00000000
  0
LINE
  8
2
 10
11225.1475
 20
-59.109810
 11
11284.2568
 21
0.00000000
  0
LINE
  8
2
 10
11284.2568
 20
-59.109810
 11
11343.3662
 21
0.00000000
  0
LINE
  8
2
 10
11343.3662
 20
-59.109810
 11
11402.4756
 21
0.00000000
  0
LINE
  8
2
 10
11402.4756
 20
-59.109810
 11
11461.5859
 21
0.00000000
  0
LINE
  8
4
 10
11235.0000
 20
38.0999985
 11
11235.0000
 21
8725.84375
  0
TEXT
  8
3
 7
SIMPLEX
 10
1248.07056
 20
7556.34131
 40
123.145439
  1
SP1
 50
90.0000000
  0
TEXT
  8
3
 7
SIMPLEX
 10
4907.99609
 20
7936.63184
 40
123.145439
  1
SP2
 50
90.0000000
  0
TEXT
  8
3
 7
SIMPLEX
 10
8735.26758
 20
8337.83008
 40
123.145439
  1
SP2
 50
90.0000000
  0
TEXT
  8
3
 7
SIMPLEX
 10
13734.6973
 20
8337.83398
 40
123.145439
  1
SP2
 50
90.0000000
  0
TEXT
  8
3
 7
SIMPLEX
 10
17715.9023
 20
7936.63477
 40
123.145439
  1
SP2
 50
90.0000000
  0
TEXT
  8
3
 7
SIMPLEX
 10
21375.8633
 20
7556.34131
 40
123.145439
  1
SP1
 50
90.0000000
  0
TEXT
  8
3
 7
SIMPLEX
 10
284.858063
 20
-223.29962
 40
123.145439
  1
BP1
 50
0.00000000
  0
TEXT
  8
3
 7
SIMPLEX
 10
21815.7070
 20
-223.29962
 40
123.145439
  1
BP1
 50
0.00000000
  0
TEXT
  8
3
 7
SIMPLEX
 10
11050.2822
 20
-223.29962
 40
123.145439
  1
BP2
 50
0.00000000
  0
INSERT
  8
1
  2
WSECTN
 10
1530.00000
 20
6569.99951
 41
1.00000000
 42
14.4094477
 43
14.4094477
 50
180.000000
  0
INSERT
  8
1
  2
WSECTN
 10
20940.0000
 20
6569.99951
 41
1.00000000
 42
14.4094477
 43
14.4094477
 50
180.000000
  0
TEXT
  8
11
 7
SIMPLEX
 10
10249.8359
 20
6975.55957
 40
123.145439
  1
19410 Crane Span
 50
0.00000000
  0
LINE
  8
2
 10
1530.00000
 20
6688.21973
 11
1530.00000
 21
6988.24707
  0
LINE
  8
2
 10
20940.0000
 20
6688.21973
 11
20940.0000
 21
6988.24707
  0
LINE
  8
2
 10
1530.00000
 20
6934.51074
 11
20940.0000
 21
6934.51074
  0
INSERT
  8
2
  2
ARROWF
 10
1530.00000
 20
6934.51074
 41
1.00000000
 42
1.00000000
 43
1.00000000
 50
180.000000
  0
INSERT
  8
2
  2
ARROWF
 10
20940.0000
 20
6934.51074
 41
1.00000000
 42
1.00000000
 43
1.00000000
 50
0.00000000
  0
LINE
  8
12
 10
1774.23621
 20
-0.0000767
 11
2004.85413
 21
-0.0001491
  0
LINE
  8
12
 10
1774.23621
 20
6569.99951
 11
2004.85413
 21
6569.99951
  0
LINE
  8
2
 10
1897.38159
 20
-0.0001153
 11
1897.38159
 21
6569.99951
  0
INSERT
  8
2
  2
ARROWF
 10
1897.38159
 20
-0.0001153
 41
1.00000000
 42
1.00000000
 43
1.00000000
 50
270.000000
  0
INSERT
  8
2
  2
ARROWF
 10
1897.38159
 20
6569.99951
 41
1.00000000
 42
1.00000000
 43
1.00000000
 50
89.9999847
  0
TEXT
  8
11
 7
SIMPLEX
 10
1866.59534
 20
3069.49536
 40
123.145439
  1
6570
 50
89.9999847
  0
INSERT
  8
10
  2
ZCOL
 10
1380.11169
 20
8426.40820
 41
-8.0000000
 42
-4.4055119
 43
-4.4055119
 50
5.71059464
  0
INSERT
  8
10
  2
ZCOL
 10
2747.19336
 20
8563.11719
 41
-8.0000000
 42
-4.4055119
 43
-4.4055119
 50
5.71059464
  0
INSERT
  8
10
  2
ZCOL
 10
4114.17529
 20
8699.81445
 41
-8.0000000
 42
-4.4055119
 43
-4.4055119
 50
5.71059464
  0
INSERT
  8
10
  2
ZCOL
 10
5481.25684
 20
8836.52344
 41
-8.0000000
 42
-4.4055119
 43
-4.4055119
 50
5.71059464
  0
INSERT
  8
10
  2
ZCOL
 10
6848.33838
 20
8973.23145
 41
-8.0000000
 42
-4.4055119
 43
-4.4055119
 50
5.71059464
  0
INSERT
  8
10
  2
ZCOL
 10
8215.41992
 20
9109.93945
 41
-8.0000000
 42
-4.4055119
 43
-4.4055119
 50
5.71059464
  0
INSERT
  8
10
  2
ZCOL
 10
9582.50293
 20
9246.64746
 41
-8.0000000
 42
-4.4055119
 43
-4.4055119
 50
5.71059464
  0
INSERT
  8
10
  2
ZCOL
 10
10949.4844
 20
9383.34570
 41
-8.0000000
 42
-4.4055119
 43
-4.4055119
 50
5.71059464
  0
LINE
  8
1
 10
1399.43152
 20
8503.23242
 11
1450.21814
 21
7995.36523
  0
INSERT
  8
3
  2
MARKER
 10
1361.73474
 20
8610.17773
 41
1.00000000
 42
1.00000000
 43
1.00000000
 50
5.71059464
  0
TEXT
  8
3
 7
SIMPLEX
 10
940.951965
 20
8795.81641
 40
123.145439
  1
FB528A(1)
 50
5.71059464
  0
LINE
  8
1
 10
4133.49512
 20
8776.63867
 11
4177.73486
 21
8334.24219
  0
INSERT
  8
3
  2
MARKER
 10
4095.79834
 20
8883.58398
 41
1.00000000
 42
1.00000000
 43
1.00000000
 50
5.71059464
  0
TEXT
  8
3
 7
SIMPLEX
 10
3552.48169
 20
9056.96973
 40
123.145439
  1
FB464A(1)
 50
5.71059464
  0
LINE
  8
1
 10
6867.65820
 20
9050.05469
 11
6910.61035
 21
8620.52637
  0
INSERT
  8
3
  2
MARKER
 10
6829.96143
 20
9157.00098
 41
1.00000000
 42
1.00000000
 43
1.00000000
 50
5.71059464
  0
TEXT
  8
3
 7
SIMPLEX
 10
6286.64404
 20
9330.38574
 40
123.145439
  1
FB456A(1)
 50
5.71059464
  0
LINE
  8
1
 10
9601.82129
 20
9323.47070
 11
9653.96387
 21
8802.04395
  0
INSERT
  8
3
  2
MARKER
 10
9564.12500
 20
9430.41699
 41
1.00000000
 42
1.00000000
 43
1.00000000
 50
5.71059464
  0
TEXT
  8
3
 7
SIMPLEX
 10
9020.80859
 20
9603.80273
 40
123.145439
  1
FB528A(1)
 50
5.71059464
  0
LINE
  8
1
 10
10968.8037
 20
9460.16992
 11
11034.6162
 21
8802.04395
  0
INSERT
  8
3
  2
MARKER
 10
10931.1074
 20
9567.11523
 41
1.00000000
 42
1.00000000
 43
1.00000000
 50
5.71059464
  0
TEXT
  8
3
 7
SIMPLEX
 10
10265.2559
 20
9728.24805
 40
123.145439
  1
FB848A(1)
 50
5.71059464
  0
INSERT
  8
10
  2
ZCOL
 10
11520.4814
 20
9383.34961
 41
8.00000000
 42
-4.4055119
 43
-4.4055119
 50
-5.7105947
  0
INSERT
  8
10
  2
ZCOL
 10
12887.5625
 20
9246.64063
 41
8.00000000
 42
-4.4055119
 43
-4.4055119
 50
-5.7105947
  0
INSERT
  8
10
  2
ZCOL
 10
14254.6445
 20
9109.93262
 41
8.00000000
 42
-4.4055119
 43
-4.4055119
 50
-5.7105947
  0
INSERT
  8
10
  2
ZCOL
 10
15621.6260
 20
8973.23438
 41
8.00000000
 42
-4.4055119
 43
-4.4055119
 50
-5.7105947
  0
INSERT
  8
10
  2
ZCOL
 10
16988.7090
 20
8836.52637
 41
8.00000000
 42
-4.4055119
 43
-4.4055119
 50
-5.7105947
  0
INSERT
  8
10
  2
ZCOL
 10
18355.7891
 20
8699.81836
 41
8.00000000
 42
-4.4055119
 43
-4.4055119
 50
-5.7105947
  0
INSERT
  8
10
  2
ZCOL
 10
19722.8711
 20
8563.11035
 41
8.00000000
 42
-4.4055119
 43
-4.4055119
 50
-5.7105947
  0
INSERT
  8
10
  2
ZCOL
 10
21089.9531
 20
8426.40137
 41
8.00000000
 42
-4.4055119
 43
-4.4055119
 50
-5.7105947
  0
LINE
  8
1
 10
11501.1611
 20
9460.17285
 11
11435.3486
 21
8802.04395
  0
INSERT
  8
3
  2
MARKER
 10
11538.8584
 20
9567.11914
 41
1.00000000
 42
1.00000000
 43
1.00000000
 50
-5.7105947
  0
TEXT
  8
3
 7
SIMPLEX
 10
11163.1689
 20
9832.40625
 40
123.145439
  1
FB848A(1)
 50
-5.7105947
  0
LINE
  8
1
 10
12868.2432
 20
9323.46484
 11
12816.1016
 21
8802.04590
  0
INSERT
  8
3
  2
MARKER
 10
12905.9404
 20
9430.41016
 41
1.00000000
 42
1.00000000
 43
1.00000000
 50
-5.7105947
  0
TEXT
  8
3
 7
SIMPLEX
 10
12407.7158
 20
9707.95117
 40
123.145439
  1
FB528A(1)
 50
-5.7105947
  0
LINE
  8
1
 10
15602.3076
 20
9050.05859
 11
15559.3535
 21
8620.52930
  0
INSERT
  8
3
  2
MARKER
 10
15640.0029
 20
9157.00391
 41
1.00000000
 42
1.00000000
 43
1.00000000
 50
-5.7105947
  0
TEXT
  8
3
 7
SIMPLEX
 10
15141.7773
 20
9434.54395
 40
123.145439
  1
FB456A(1)
 50
-5.7105947
  0
LINE
  8
1
 10
18336.4688
 20
8776.64160
 11
18292.2305
 21
8334.24512
  0
INSERT
  8
3
  2
MARKER
 10
18374.1660
 20
8883.58789
 41
1.00000000
 42
1.00000000
 43
1.00000000
 50
-5.7105947
  0
TEXT
  8
3
 7
SIMPLEX
 10
17875.9414
 20
9161.12793
 40
123.145439
  1
FB464A(1)
 50
-5.7105947
  0
LINE
  8
1
 10
21070.6348
 20
8503.22559
 11
21019.8477
 21
7995.35693
  0
INSERT
  8
3
  2
MARKER
 10
21108.3301
 20
8610.17090
 41
1.00000000
 42
1.00000000
 43
1.00000000
 50
-5.7105947
  0
TEXT
  8
3
 7
SIMPLEX
 10
20487.5703
 20
8899.96484
 40
123.145439
  1
FB528A(1)
 50
-5.7105947
  0
INSERT
  8
10
  2
ZCOL
 10
180.950806
 20
2580.00000
 41
8.00000000
 42
-6.3740158
 43
-6.3740158
 50
89.9999847
  0
INSERT
  8
10
  2
ZCOL
 10
180.951126
 20
3580.00000
 41
8.00000000
 42
-6.3740158
 43
-6.3740158
 50
89.9999847
  0
INSERT
  8
10
  2
ZCOL
 10
180.951447
 20
4580.00000
 41
8.00000000
 42
-6.3740158
 43
-6.3740158
 50
89.9999847
  0
INSERT
  8
10
  2
ZCOL
 10
180.951813
 20
5780.00000
 41
8.00000000
 42
-6.3740158
 43
-6.3740158
 50
89.9999847
  0
INSERT
  8
10
  2
ZCOL
 10
180.952286
 20
7279.99951
 41
8.00000000
 42
-6.3740158
 43
-6.3740158
 50
89.9999847
  0
LINE
  8
1
 10
80.4311219
 20
3553.13184
 11
933.524231
 21
3553.13159
  0
INSERT
  8
3
  2
MARKER
 10
-53.735062
 20
3580.00000
 41
1.00000000
 42
1.00000000
 43
1.00000000
 50
89.9999847
  0
TEXT
  8
3
 7
SIMPLEX
 10
-280.32281
 20
3179.77734
 40
123.145439
  1
FB976A(1)
 50
89.9999847
  0
INSERT
  8
10
  2
ZCOL
 10
22289.0488
 20
2580.00000
 41
-8.0000000
 42
-6.3740158
 43
-6.3740158
 50
-89.999985
  0
INSERT
  8
10
  2
ZCOL
 10
22289.0488
 20
3580.00000
 41
-8.0000000
 42
-6.3740158
 43
-6.3740158
 50
-89.999985
  0
INSERT
  8
10
  2
ZCOL
 10
22289.0488
 20
4580.00000
 41
-8.0000000
 42
-6.3740158
 43
-6.3740158
 50
-89.999985
  0
INSERT
  8
10
  2
ZCOL
 10
22289.0488
 20
5780.00000
 41
-8.0000000
 42
-6.3740158
 43
-6.3740158
 50
-89.999985
  0
INSERT
  8
10
  2
ZCOL
 10
22289.0488
 20
7279.99951
 41
-8.0000000
 42
-6.3740158
 43
-6.3740158
 50
-89.999985
  0
LINE
  8
1
 10
22389.5723
 20
3553.13184
 11
21536.4766
 21
3553.13184
  0
INSERT
  8
3
  2
MARKER
 10
22523.7344
 20
3580.00000
 41
1.00000000
 42
1.00000000
 43
1.00000000
 50
-89.999985
  0
TEXT
  8
3
 7
SIMPLEX
 10
22873.4688
 20
3179.77734
 40
123.145439
  1
FB976A(1)
 50
90.0000153
  0
TEXT
  8
3
 7
SIMPLEX
 10
998.939087
 20
1713.23962
 40
123.145439
  1
 CL1-1
 50
85.7278595
  0
TEXT
  8
3
 7
SIMPLEX
 10
2550.59375
 20
7928.23047
 40
123.145439
  1
 RF1-2
 50
7.08235836
  0
TEXT
  8
3
 7
SIMPLEX
 10
6409.08203
 20
8367.07031
 40
123.145439
  1
 RF1-3
 50
5.71058992
  0
TEXT
  8
3
 7
SIMPLEX
 10
9626.09863
 20
8599.75195
 40
123.145439
  1
 RF1-4
 50
0.00008850
  0
TEXT
  8
3
 7
SIMPLEX
 10
15399.1982
 20
8433.24219
 40
123.145439
  1
 RF1-3
 50
-5.7105994
  0
TEXT
  8
3
 7
SIMPLEX
 10
19259.4766
 20
8010.22168
 40
123.145439
  1
 RF1-2
 50
-7.0823417
  0
TEXT
  8
3
 7
SIMPLEX
 10
21596.1582
 20
1691.71265
 40
123.145439
  1
 CL1-5
 50
94.2719650
  0
TEXT
  8
3
 7
SIMPLEX
 10
11109.9297
 20
4205.65234
 40
123.145439
  1
EC-1
 50
89.9999847
  0
INSERT
  8
10
  2
ZCOL
 10
122.844048
 20
8290.42676
 41
8.00000000
 42
-4.4054980
 43
-4.4054980
 50
5.71059464
  0
INSERT
  8
10
  2
ZCOL
 10
22347.1543
 20
8290.42676
 41
-8.0000000
 42
-4.4055009
 43
-4.4055009
 50
-5.7105947
  0
LINE
  8
2
 10
230.000015
 20
0.00000000
 11
1219.19092
 21
0.00000000
  0
LINE
  8
2
 10
230.000015
 20
-59.109810
 11
289.109833
 21
0.00000000
  0
LINE
  8
2
 10
289.109833
 20
-59.109810
 11
348.219635
 21
0.00000000
  0
LINE
  8
2
 10
348.219635
 20
-59.109810
 11
407.329437
 21
0.00000000
  0
LINE
  8
2
 10
407.329437
 20
-59.109810
 11
466.439240
 21
0.00000000
  0
LINE
  8
2
 10
466.439240
 20
-59.109810
 11
525.549072
 21
0.00000000
  0
LINE
  8
2
 10
525.549072
 20
-59.109810
 11
584.658875
 21
0.00000000
  0
LINE
  8
2
 10
584.658875
 20
-59.109810
 11
643.768677
 21
0.00000000
  0
LINE
  8
2
 10
643.768677
 20
-59.109810
 11
702.878479
 21
0.00000000
  0
LINE
  8
2
 10
702.878479
 20
-59.109810
 11
761.988342
 21
0.00000000
  0
LINE
  8
2
 10
761.988342
 20
-59.109810
 11
821.098206
 21
0.00000000
  0
LINE
  8
2
 10
821.098206
 20
-59.109810
 11
880.207886
 21
0.00000000
  0
LINE
  8
2
 10
880.207886
 20
-59.109810
 11
939.317627
 21
0.00000000
  0
LINE
  8
2
 10
939.317627
 20
-59.109810
 11
998.427429
 21
0.00000000
  0
LINE
  8
2
 10
998.427429
 20
-59.109810
 11
1057.53723
 21
0.00000000
  0
LINE
  8
2
 10
1057.53723
 20
-59.109810
 11
1116.64697
 21
0.00000000
  0
LINE
  8
2
 10
1116.64697
 20
-59.109810
 11
1175.75671
 21
0.00000000
  0
LINE
  8
2
 10
21250.8086
 20
0.00000000
 11
22240.0020
 21
0.00000000
  0
LINE
  8
2
 10
21250.8086
 20
-59.109810
 11
21309.9199
 21
0.00000000
  0
LINE
  8
2
 10
21309.9199
 20
-59.109810
 11
21369.0293
 21
0.00000000
  0
LINE
  8
2
 10
21369.0293
 20
-59.109810
 11
21428.1387
 21
0.00000000
  0
LINE
  8
2
 10
21428.1387
 20
-59.109810
 11
21487.2480
 21
0.00000000
  0
LINE
  8
2
 10
21487.2480
 20
-59.109810
 11
21546.3574
 21
0.00000000
  0
LINE
  8
2
 10
21546.3574
 20
-59.109810
 11
21605.4668
 21
0.00000000
  0
LINE
  8
2
 10
21605.4668
 20
-59.109810
 11
21664.5762
 21
0.00000000
  0
LINE
  8
2
 10
21664.5762
 20
-59.109810
 11
21723.6855
 21
0.00000000
  0
LINE
  8
2
 10
21723.6855
 20
-59.109810
 11
21782.7949
 21
0.00000000
  0
LINE
  8
2
 10
21782.7949
 20
-59.109810
 11
21841.9043
 21
0.00000000
  0
LINE
  8
2
 10
21841.9043
 20
-59.109810
 11
21901.0156
 21
0.00000000
  0
LINE
  8
2
 10
21901.0156
 20
-59.109810
 11
21960.1250
 21
0.00000000
  0
LINE
  8
2
 10
21960.1250
 20
-59.109810
 11
22019.2344
 21
0.00000000
  0
LINE
  8
2
 10
22019.2344
 20
-59.109810
 11
22078.3438
 21
0.00000000
  0
LINE
  8
2
 10
22078.3438
 20
-59.109810
 11
22137.4531
 21
0.00000000
  0
LINE
  8
2
 10
22137.4531
 20
-59.109810
 11
22196.5625
 21
0.00000000
  0
LINE
  8
2
 10
0.00000000
 20
0.00000000
 11
22470.0000
 21
0.00000000
  0
LINE
  8
12
 10
1704.77283
 20
0.00000000
 11
2098.83838
 21
0.00000000
  0
LINE
  8
12
 10
1704.77283
 20
7960.70020
 11
2098.83838
 21
7960.70020
  0
LINE
  8
2
 10
1991.36597
 20
0.00000000
 11
1991.36597
 21
7960.70020
  0
INSERT
  8
2
  2
ARROWF
 10
1991.36597
 20
7960.70020
 41
1.00000000
 42
1.00000000
 43
1.00000000
 50
90.0000000
  0
INSERT
  8
2
  2
ARROWF
 10
1991.36597
 20
0.00000000
 41
1.00000000
 42
1.00000000
 43
1.00000000
 50
-90.000000
  0
TEXT
  8
11
 7
SIMPLEX
 10
1960.57971
 20
3764.84521
 40
123.145439
  1
7961
 50
90.0000000
  0
TEXT
  8
11
 7
SIMPLEX
 10
2145.29761
 20
3432.35254
 40
123.145439
  1
CLEAR +/-
 50
90.0000000
  0
LINE
  8
12
 10
20765.2285
 20
0.00000000
 11
20371.1621
 21
0.00000000
  0
LINE
  8
12
 10
20765.2285
 20
7960.70020
 11
20371.1621
 21
7960.70020
  0
LINE
  8
2
 10
20478.6348
 20
0.00000000
 11
20478.6348
 21
7960.70020
  0
INSERT
  8
2
  2
ARROWF
 10
20478.6348
 20
7960.70020
 41
1.00000000
 42
1.00000000
 43
1.00000000
 50
90.0000000
  0
INSERT
  8
2
  2
ARROWF
 10
20478.6348
 20
0.00000000
 41
1.00000000
 42
1.00000000
 43
1.00000000
 50
-90.000000
  0
TEXT
  8
11
 7
SIMPLEX
 10
20447.8496
 20
3764.84521
 40
123.145439
  1
7961
 50
90.0000000
  0
TEXT
  8
11
 7
SIMPLEX
 10
20632.5664
 20
3432.35254
 40
123.145439
  1
CLEAR +/-
 50
90.0000000
  0
LINE
  8
12
 10
10564.4170
 20
0.00000000
 11
10071.8359
 21
0.00000000
  0
LINE
  8
12
 10
10564.4170
 20
8830.00000
 11
10071.8359
 21
8830.00000
  0
LINE
  8
2
 10
10286.7803
 20
0.00000000
 11
10286.7803
 21
8830.00000
  0
INSERT
  8
2
  2
ARROWF
 10
10286.7803
 20
8830.00000
 41
1.00000000
 42
1.00000000
 43
1.00000000
 50
90.0000000
  0
INSERT
  8
2
  2
ARROWF
 10
10286.7803
 20
0.00000000
 41
1.00000000
 42
1.00000000
 43
1.00000000
 50
-90.000000
  0
TEXT
  8
11
 7
SIMPLEX
 10
10255.9941
 20
4168.70898
 40
123.145439
  1
8830
 50
90.0000000
  0
TEXT
  8
11
 7
SIMPLEX
 10
10440.7119
 20
3867.00244
 40
123.145439
  1
CLEAR +/-
 50
90.0000000
  0
LINE
  8
12
 10
230.000015
 20
-214.94473
 11
230.000015
 21
-707.52655
  0
LINE
  8
12
 10
968.102417
 20
-214.94473
 11
968.102417
 21
-707.52655
  0
LINE
  8
2
 10
230.000015
 20
-648.41669
 11
968.102417
 21
-648.41669
  0
INSERT
  8
2
  2
ARROWF
 10
968.102417
 20
-648.41669
 41
1.00000000
 42
1.00000000
 43
1.00000000
 50
0.00000000
  0
INSERT
  8
2
  2
ARROWF
 10
230.000015
 20
-648.41669
 41
1.00000000
 42
1.00000000
 43
1.00000000
 50
180.000000
  0
TEXT
  8
11
 7
SIMPLEX
 10
998.888794
 20
-607.36823
 40
123.145439
  1
712
 50
0.00000000
  0
LINE
  8
12
 10
21501.9004
 20
-214.94473
 11
21501.9004
 21
-707.52655
  0
LINE
  8
12
 10
22240.0000
 20
-214.94473
 11
22240.0000
 21
-707.52655
  0
LINE
  8
2
 10
22240.0000
 20
-648.41669
 11
21501.9004
 21
-648.41669
  0
INSERT
  8
2
  2
ARROWF
 10
21501.9004
 20
-648.41669
 41
1.00000000
 42
1.00000000
 43
1.00000000
 50
180.000000
  0
INSERT
  8
2
  2
ARROWF
 10
22240.0000
 20
-648.41669
 41
1.00000000
 42
1.00000000
 43
1.00000000
 50
0.00000000
  0
TEXT
  8
11
 7
SIMPLEX
 10
21040.1055
 20
-607.36823
 40
123.145439
  1
712
 50
0.00000000
  0
LINE
  8
12
 10
968.102417
 20
-214.94473
 11
968.102417
 21
-707.52655
  0
LINE
  8
12
 10
11235.0000
 20
-214.94473
 11
11235.0000
 21
-707.52655
  0
LINE
  8
2
 10
968.102417
 20
-648.41669
 11
11235.0000
 21
-648.41669
  0
INSERT
  8
2
  2
ARROWF
 10
968.102417
 20
-648.41669
 41
1.00000000
 42
1.00000000
 43
1.00000000
 50
180.000000
  0
INSERT
  8
2
  2
ARROWF
 10
11235.0000
 20
-648.41669
 41
1.00000000
 42
1.00000000
 43
1.00000000
 50
0.00000000
  0
TEXT
  8
11
 7
SIMPLEX
 10
5824.47363
 20
-607.36823
 40
123.145439
  1
10293
 50
0.00000000
  0
TEXT
  8
11
 7
SIMPLEX
 10
5553.55371
 20
-812.60651
 40
123.145439
  1
CLEAR +/-
 50
0.00000000
  0
LINE
  8
12
 10
11235.0000
 20
-214.94473
 11
11235.0000
 21
-707.52655
  0
LINE
  8
12
 10
21501.9004
 20
-214.94473
 11
21501.9004
 21
-707.52655
  0
LINE
  8
2
 10
11235.0000
 20
-648.41669
 11
21501.9004
 21
-648.41669
  0
INSERT
  8
2
  2
ARROWF
 10
11235.0000
 20
-648.41669
 41
1.00000000
 42
1.00000000
 43
1.00000000
 50
180.000000
  0
INSERT
  8
2
  2
ARROWF
 10
21501.9004
 20
-648.41669
 41
1.00000000
 42
1.00000000
 43
1.00000000
 50
0.00000000
  0
TEXT
  8
11
 7
SIMPLEX
 10
16091.3730
 20
-607.36823
 40
123.145439
  1
10293
 50
0.00000000
  0
TEXT
  8
11
 7
SIMPLEX
 10
15820.4531
 20
-812.60651
 40
123.145439
  1
CLEAR +/-
 50
0.00000000
  0
LINE
  8
12
 10
0.00000000
 20
-338.09015
 11
0.00000000
 21
-1874.9452
  0
CIRCLE
  8
13
 10
0.00000000
 20
-2170.4941
 40
147.774551
  0
TEXT
  8
13
 7
SIMPLEX
 10
-66.498535
 20
-2236.9927
 40
132.997070
  1
C
 72
           1
 11
0.00000000
 21
-2170.4941
 73
           2
 50
   0.000
  0
LINE
  8
12
 10
0.00000000
 20
-2022.7198
 11
0.00000000
 21
-648.41669
  0
LINE
  8
12
 10
22470.0000
 20
-338.09015
 11
22470.0000
 21
-1874.9452
  0
CIRCLE
  8
13
 10
22470.0000
 20
-2170.4941
 40
147.774551
  0
TEXT
  8
13
 7
SIMPLEX
 10
22403.5020
 20
-2236.9927
 40
132.997070
  1
A
 72
           1
 11
22470.0000
 21
-2170.4941
 73
           2
 50
   0.000
  0
LINE
  8
12
 10
22470.0000
 20
-2022.7198
 11
22470.0000
 21
-648.41669
  0
LINE
  8
2
 10
0.00000000
 20
-1815.8354
 11
22470.0000
 21
-1815.8354
  0
INSERT
  8
2
  2
ARROWF
 10
0.00000000
 20
-1815.8354
 41
1.00000000
 42
1.00000000
 43
1.00000000
 50
180.000000
  0
INSERT
  8
2
  2
ARROWF
 10
22470.0000
 20
-1815.8354
 41
1.00000000
 42
1.00000000
 43
1.00000000
 50
0.00000000
  0
TEXT
  8
11
 7
SIMPLEX
 10
9788.04102
 20
-1785.0492
 40
123.145439
  1
22470 OUT-TO-OUT OF STEEL
 50
0.00000000
  0
TEXT
  8
15
 7
SIMPLEX
 10
8141.58643
 20
-2613.8176
 40
197.032700
  1
RIGID FRAME ELEVATION: FRAME LINE 1
 72
           1
 11
11235.0000
 21
-2613.8176
 50
   0.000
  0
LINE
  8
2
 10
-184.71815
 20
-648.41669
 11
0.00000000
 21
-648.41669
  0
LINE
  8
2
 10
230.000015
 20
-648.41669
 11
414.718201
 21
-648.41669
  0
LINE
  8
12
 10
0.00000000
 20
-214.94473
 11
0.00000000
 21
-707.52649
  0
LINE
  8
12
 10
230.000015
 20
-214.94473
 11
230.000015
 21
-707.52649
  0
INSERT
  8
2
  2
ARROWF
 10
0.00000000
 20
-648.41669
 41
1.00000000
 42
1.00000000
 43
1.00000000
 50
0.00000000
  0
INSERT
  8
2
  2
ARROWF
 10
230.000015
 20
-648.41669
 41
1.00000000
 42
1.00000000
 43
1.00000000
 50
180.000000
  0
TEXT
  8
11
 7
SIMPLEX
 10
-410.48477
 20
-607.36823
 40
123.145439
  1
230
 50
0.00000000
  0
LINE
  8
2
 10
22240.0000
 20
-648.41669
 11
22055.2832
 21
-648.41669
  0
LINE
  8
2
 10
22654.7168
 20
-648.41669
 11
22470.0000
 21
-648.41669
  0
LINE
  8
12
 10
22470.0000
 20
-214.94473
 11
22470.0000
 21
-707.52649
  0
LINE
  8
12
 10
22240.0000
 20
-214.94473
 11
22240.0000
 21
-707.52649
  0
INSERT
  8
2
  2
ARROWF
 10
22470.0000
 20
-648.41669
 41
1.00000000
 42
1.00000000
 43
1.00000000
 50
180.000000
  0
INSERT
  8
2
  2
ARROWF
 10
22240.0000
 20
-648.41669
 41
1.00000000
 42
1.00000000
 43
1.00000000
 50
0.00000000
  0
TEXT
  8
11
 7
SIMPLEX
 10
22511.0488
 20
-607.36823
 40
123.145439
  1
230
 50
0.00000000
  0
CIRCLE
  8
13
 10
11235.0000
 20
-1406.9924
 40
147.774551
  0
TEXT
  8
13
 7
SIMPLEX
 10
11168.5020
 20
-1473.4911
 40
132.997070
  1
B
 72
           1
 11
11235.0000
 21
-1406.9924
 73
           2
 50
   0.000
  0
LINE
  8
12
 10
0.00000000
 20
-214.94473
 11
0.00000000
 21
-1259.2180
  0
LINE
  8
12
 10
11235.0000
 20
-707.52649
 11
11235.0000
 21
-1259.2180
  0
LINE
  8
2
 10
0.00000000
 20
-1200.1083
 11
11235.0000
 21
-1200.1083
  0
INSERT
  8
2
  2
ARROWF
 10
0.00000000
 20
-1200.1083
 41
1.00000000
 42
1.00000000
 43
1.00000000
 50
180.000000
  0
INSERT
  8
2
  2
ARROWF
 10
11235.0000
 20
-1200.1083
 41
1.00000000
 42
1.00000000
 43
1.00000000
 50
0.00000000
  0
TEXT
  8
11
 7
SIMPLEX
 10
5401.99561
 20
-1159.0598
 40
123.145439
  1
11235
 50
0.00000000
  0
LINE
  8
12
 10
22470.0000
 20
-214.94473
 11
22470.0000
 21
-1259.2180
  0
LINE
  8
2
 10
11235.0000
 20
-1200.1083
 11
22470.0000
 21
-1200.1083
  0
INSERT
  8
2
  2
ARROWF
 10
11235.0000
 20
-1200.1083
 41
1.00000000
 42
1.00000000
 43
1.00000000
 50
180.000000
  0
INSERT
  8
2
  2
ARROWF
 10
22470.0000
 20
-1200.1083
 41
1.00000000
 42
1.00000000
 43
1.00000000
 50
0.00000000
  0
TEXT
  8
11
 7
SIMPLEX
 10
16636.9941
 20
-1159.0598
 40
123.145439
  1
11235
 50
0.00000000
  0
LINE
  8
12
 10
-707.66754
 20
0.00000000
 11
-1733.8754
 21
0.00000000
  0
LINE
  8
2
 10
-1692.8312
 20
0.00000000
 11
-1692.8312
 21
8420.00000
  0
INSERT
  8
2
  2
ARROWF
 10
-1692.8312
 20
0.00000000
 41
1.00000000
 42
1.00000000
 43
1.00000000
 50
270.000000
  0
TEXT
  8
11
 7
SIMPLEX
 10
-1733.8834
 20
1043.70898
 40
123.145439
  1
2580
 50
90.0002060
  0
LINE
  8
12
 10
-707.66754
 20
2580.00000
 11
-1733.8754
 21
2580.00000
  0
INSERT
  8
2
  2
ARROWF
 10
-1692.8312
 20
2580.00000
 41
1.00000000
 42
1.00000000
 43
1.00000000
 50
90.0000000
  0
INSERT
  8
2
  2
ARROWF
 10
-1692.8312
 20
0.00000000
 41
1.00000000
 42
1.00000000
 43
1.00000000
 50
270.000000
  0
TEXT
  8
11
 7
SIMPLEX
 10
-1733.8806
 20
2864.49536
 40
123.145439
  1
1000
 50
90.0002060
  0
LINE
  8
12
 10
-707.66754
 20
3580.00000
 11
-1733.8754
 21
3580.00000
  0
INSERT
  8
2
  2
ARROWF
 10
-1692.8312
 20
3580.00000
 41
1.00000000
 42
1.00000000
 43
1.00000000
 50
90.0000000
  0
INSERT
  8
2
  2
ARROWF
 10
-1692.8312
 20
2580.00000
 41
1.00000000
 42
1.00000000
 43
1.00000000
 50
270.000000
  0
TEXT
  8
11
 7
SIMPLEX
 10
-1733.8806
 20
3864.49536
 40
123.145439
  1
1000
 50
90.0002060
  0
LINE
  8
12
 10
-707.66754
 20
4580.00000
 11
-1733.8754
 21
4580.00000
  0
INSERT
  8
2
  2
ARROWF
 10
-1692.8312
 20
4580.00000
 41
1.00000000
 42
1.00000000
 43
1.00000000
 50
90.0000000
  0
INSERT
  8
2
  2
ARROWF
 10
-1692.8312
 20
3580.00000
 41
1.00000000
 42
1.00000000
 43
1.00000000
 50
270.000000
  0
TEXT
  8
11
 7
SIMPLEX
 10
-1733.8810
 20
4964.49512
 40
123.145439
  1
1200
 50
90.0002060
  0
LINE
  8
12
 10
-707.66754
 20
5780.00000
 11
-1733.8754
 21
5780.00000
  0
INSERT
  8
2
  2
ARROWF
 10
-1692.8312
 20
5780.00000
 41
1.00000000
 42
1.00000000
 43
1.00000000
 50
90.0000000
  0
INSERT
  8
2
  2
ARROWF
 10
-1692.8312
 20
4580.00000
 41
1.00000000
 42
1.00000000
 43
1.00000000
 50
270.000000
  0
TEXT
  8
11
 7
SIMPLEX
 10
-1733.8816
 20
6314.49512
 40
123.145439
  1
1500
 50
90.0002060
  0
LINE
  8
12
 10
-707.66754
 20
7279.99951
 11
-1733.8754
 21
7279.99951
  0
INSERT
  8
2
  2
ARROWF
 10
-1692.8312
 20
7279.99951
 41
1.00000000
 42
1.00000000
 43
1.00000000
 50
90.0000000
  0
INSERT
  8
2
  2
ARROWF
 10
-1692.8312
 20
5780.00000
 41
1.00000000
 42
1.00000000
 43
1.00000000
 50
270.000000
  0
TEXT
  8
11
 7
SIMPLEX
 10
-1733.8810
 20
7665.28174
 40
123.145439
  1
1140
 50
90.0002060
  0
LINE
  8
12
 10
-707.66754
 20
8420.00000
 11
-1733.8754
 21
8420.00000
  0
INSERT
  8
2
  2
ARROWF
 10
-1692.8312
 20
8420.00000
 41
1.00000000
 42
1.00000000
 43
1.00000000
 50
90.0000000
  0
INSERT
  8
2
  2
ARROWF
 10
-1692.8312
 20
7279.99951
 41
1.00000000
 42
1.00000000
 43
1.00000000
 50
270.000000
  0
LINE
  8
12
 10
-2041.7393
 20
8420.00000
 11
-707.66754
 21
8420.00000
  0
LINE
  8
2
 10
-2000.6948
 20
0.00000000
 11
-2000.6948
 21
8420.00000
  0
TEXT
  8
11
 7
SIMPLEX
 10
-2041.7434
 20
3881.61206
 40
123.145439
  1
8420
 50
90.0002060
  0
LINE
  8
12
 10
-2041.7393
 20
0.00000000
 11
-707.66754
 21
0.00000000
  0
INSERT
  8
2
  2
ARROWF
 10
-2000.6948
 20
8420.00000
 41
1.00000000
 42
1.00000000
 43
1.00000000
 50
90.0000000
  0
INSERT
  8
2
  2
ARROWF
 10
-2000.6948
 20
0.00000000
 41
1.00000000
 42
1.00000000
 43
1.00000000
 50
270.000000
  0
LINE
  8
12
 10
23177.6680
 20
0.00000000
 11
24203.8750
 21
0.00000000
  0
LINE
  8
2
 10
24162.8301
 20
0.00000000
 11
24162.8301
 21
8420.00000
  0
INSERT
  8
2
  2
ARROWF
 10
24162.8301
 20
0.00000000
 41
1.00000000
 42
1.00000000
 43
1.00000000
 50
270.000000
  0
TEXT
  8
11
 7
SIMPLEX
 10
24121.7793
 20
1043.70898
 40
123.145439
  1
2580
 50
90.0002060
  0
LINE
  8
12
 10
23177.6680
 20
2580.00000
 11
24203.8750
 21
2580.00000
  0
INSERT
  8
2
  2
ARROWF
 10
24162.8301
 20
2580.00000
 41
1.00000000
 42
1.00000000
 43
1.00000000
 50
90.0000000
  0
INSERT
  8
2
  2
ARROWF
 10
24162.8301
 20
0.00000000
 41
1.00000000
 42
1.00000000
 43
1.00000000
 50
270.000000
  0
TEXT
  8
11
 7
SIMPLEX
 10
24121.7793
 20
2864.49536
 40
123.145439
  1
1000
 50
90.0002060
  0
LINE
  8
12
 10
23177.6680
 20
3580.00000
 11
24203.8750
 21
3580.00000
  0
INSERT
  8
2
  2
ARROWF
 10
24162.8301
 20
3580.00000
 41
1.00000000
 42
1.00000000
 43
1.00000000
 50
90.0000000
  0
INSERT
  8
2
  2
ARROWF
 10
24162.8301
 20
2580.00000
 41
1.00000000
 42
1.00000000
 43
1.00000000
 50
270.000000
  0
TEXT
  8
11
 7
SIMPLEX
 10
24121.7793
 20
3864.49536
 40
123.145439
  1
1000
 50
90.0002060
  0
LINE
  8
12
 10
23177.6680
 20
4580.00000
 11
24203.8750
 21
4580.00000
  0
INSERT
  8
2
  2
ARROWF
 10
24162.8301
 20
4580.00000
 41
1.00000000
 42
1.00000000
 43
1.00000000
 50
90.0000000
  0
INSERT
  8
2
  2
ARROWF
 10
24162.8301
 20
3580.00000
 41
1.00000000
 42
1.00000000
 43
1.00000000
 50
270.000000
  0
TEXT
  8
11
 7
SIMPLEX
 10
24121.7793
 20
4964.49512
 40
123.145439
  1
1200
 50
90.0002060
  0
LINE
  8
12
 10
23177.6680
 20
5780.00000
 11
24203.8750
 21
5780.00000
  0
INSERT
  8
2
  2
ARROWF
 10
24162.8301
 20
5780.00000
 41
1.00000000
 42
1.00000000
 43
1.00000000
 50
90.0000000
  0
INSERT
  8
2
  2
ARROWF
 10
24162.8301
 20
4580.00000
 41
1.00000000
 42
1.00000000
 43
1.00000000
 50
270.000000
  0
TEXT
  8
11
 7
SIMPLEX
 10
24121.7793
 20
6314.49512
 40
123.145439
  1
1500
 50
90.0002060
  0
LINE
  8
12
 10
23177.6680
 20
7279.99951
 11
24203.8750
 21
7279.99951
  0
INSERT
  8
2
  2
ARROWF
 10
24162.8301
 20
7279.99951
 41
1.00000000
 42
1.00000000
 43
1.00000000
 50
90.0000000
  0
INSERT
  8
2
  2
ARROWF
 10
24162.8301
 20
5780.00000
 41
1.00000000
 42
1.00000000
 43
1.00000000
 50
270.000000
  0
TEXT
  8
11
 7
SIMPLEX
 10
24121.7793
 20
7665.28174
 40
123.145439
  1
1140
 50
90.0002060
  0
LINE
  8
12
 10
23177.6680
 20
8420.00000
 11
24203.8750
 21
8420.00000
  0
INSERT
  8
2
  2
ARROWF
 10
24162.8301
 20
8420.00000
 41
1.00000000
 42
1.00000000
 43
1.00000000
 50
90.0000000
  0
INSERT
  8
2
  2
ARROWF
 10
24162.8301
 20
7279.99951
 41
1.00000000
 42
1.00000000
 43
1.00000000
 50
270.000000
  0
LINE
  8
12
 10
24511.7383
 20
8420.00000
 11
23177.6680
 21
8420.00000
  0
LINE
  8
2
 10
24470.6934
 20
0.00000000
 11
24470.6934
 21
8420.00000
  0
TEXT
  8
11
 7
SIMPLEX
 10
24429.6445
 20
3881.61206
 40
123.145439
  1
8420
 50
90.0002060
  0
LINE
  8
12
 10
24511.7383
 20
0.00000000
 11
23177.6680
 21
0.00000000
  0
INSERT
  8
2
  2
ARROWF
 10
24470.6934
 20
8420.00000
 41
1.00000000
 42
1.00000000
 43
1.00000000
 50
90.0000000
  0
INSERT
  8
2
  2
ARROWF
 10
24470.6934
 20
0.00000000
 41
1.00000000
 42
1.00000000
 43
1.00000000
 50
270.000000
  0
LINE
  8
12
 10
-46.663300
 20
8886.63281
 11
-155.38466
 21
9973.84570
  0
INSERT
  8
2
  2
ARROWF
 10
-144.69075
 20
9866.90723
 41
1.00000000
 42
1.00000000
 43
1.00000000
 50
185.710602
  0
LINE
  8
12
 10
10889.7910
 20
9980.27832
 11
10781.0693
 21
11067.4922
  0
INSERT
  8
2
  2
ARROWF
 10
10791.7637
 20
10960.5527
 41
1.00000000
 42
1.00000000
 43
1.00000000
 50
5.71059464
  0
TEXT
  8
11
 7
SIMPLEX
 10
4859.64844
 20
10408.5938
 40
123.145439
  1
8 @ 1374
 50
5.71059464
  0
INSERT
  8
2
  2
ARROWF
 10
10791.7637
 20
10960.5527
 41
1.00000000
 42
1.00000000
 43
1.00000000
 50
185.710602
  0
LINE
  8
12
 10
11188.3369
 20
10010.1328
 11
11079.6162
 21
11097.3467
  0
INSERT
  8
2
  2
ARROWF
 10
11090.3096
 20
10990.4072
 41
1.00000000
 42
1.00000000
 43
1.00000000
 50
5.71059464
  0
TEXT
  8
11
 7
SIMPLEX
 10
10677.7773
 20
10990.4072
 40
123.145439
  1
300
 50
5.71059464
  0
LINE
  8
2
 10
-144.69075
 20
9866.90723
 11
11090.3096
 21
10990.4072
  0
LINE
  8
2
 10
-83.423592
 20
9254.23535
 11
-192.14496
 21
10341.4492
  0
INSERT
  8
2
  2
ARROWF
 10
-181.45107
 20
10234.5098
 41
1.00000000
 42
1.00000000
 43
1.00000000
 50
185.710602
  0
LINE
  8
2
 10
11151.5762
 20
10377.7363
 11
11042.8555
 21
11464.9492
  0
INSERT
  8
2
  2
ARROWF
 10
11053.5488
 20
11358.0107
 41
1.00000000
 42
1.00000000
 43
1.00000000
 50
5.71059464
  0
LINE
  8
2
 10
-181.45107
 20
10234.5098
 11
11053.5488
 21
11358.0107
  0
TEXT
  8
11
 7
SIMPLEX
 10
5217.52930
 20
10815.6611
 40
123.145439
  1
11291
 50
5.71059464
  0
LINE
  8
12
 10
11281.6631
 20
10010.1328
 11
11390.3848
 21
11097.3467
  0
INSERT
  8
2
  2
ARROWF
 10
11379.6904
 20
10990.4072
 41
1.00000000
 42
1.00000000
 43
1.00000000
 50
174.289398
  0
LINE
  8
12
 10
11580.1748
 20
9980.28223
 11
11688.8955
 21
11067.4951
  0
INSERT
  8
2
  2
ARROWF
 10
11678.2021
 20
10960.5566
 41
1.00000000
 42
1.00000000
 43
1.00000000
 50
-5.7105947
  0
TEXT
  8
11
 7
SIMPLEX
 10
11424.6191
 20
11027.1680
 40
123.145439
  1
300
 50
-5.7105947
  0
INSERT
  8
2
  2
ARROWF
 10
11678.2021
 20
10960.5566
 41
1.00000000
 42
1.00000000
 43
1.00000000
 50
174.289398
  0
LINE
  8
12
 10
22516.6621
 20
8886.63281
 11
22625.3848
 21
9973.84570
  0
INSERT
  8
2
  2
ARROWF
 10
22614.6914
 20
9866.90723
 41
1.00000000
 42
1.00000000
 43
1.00000000
 50
-5.7105947
  0
TEXT
  8
11
 7
SIMPLEX
 10
16690.8516
 20
10500.5439
 40
123.145439
  1
8 @ 1374
 50
-5.7105947
  0
LINE
  8
2
 10
11379.6904
 20
10990.4072
 11
22614.6914
 21
9866.90723
  0
LINE
  8
2
 10
11318.4238
 20
10377.7363
 11
11427.1445
 21
11464.9492
  0
INSERT
  8
2
  2
ARROWF
 10
11416.4512
 20
11358.0107
 41
1.00000000
 42
1.00000000
 43
1.00000000
 50
174.289398
  0
LINE
  8
2
 10
22553.4238
 20
9254.23535
 11
22662.1445
 21
10341.4492
  0
INSERT
  8
2
  2
ARROWF
 10
22651.4512
 20
10234.5098
 41
1.00000000
 42
1.00000000
 43
1.00000000
 50
-5.7105947
  0
LINE
  8
2
 10
11416.4512
 20
11358.0107
 11
22651.4512
 21
10234.5098
  0
TEXT
  8
11
 7
SIMPLEX
 10
16823.6016
 20
10858.5488
 40
123.145439
  1
11291
 50
-5.7105947
  0
LINE
  8
2
 10
10234.5830
 20
9629.09766
 11
10252.9629
 21
9445.29590
  0
LINE
  8
2
 10
10286.2686
 20
9112.24023
 11
10267.8887
 21
9296.04102
  0
INSERT
  8
2
  2
ARROWF
 10
10252.9629
 20
9445.29590
 41
1.00000000
 42
1.00000000
 43
1.00000000
 50
275.710602
  0
INSERT
  8
2
  2
ARROWF
 10
10267.8887
 20
9296.04102
 41
1.00000000
 42
1.00000000
 43
1.00000000
 50
95.7105942
  0
TEXT
  8
11
 7
SIMPLEX
 10
10208.0342
 20
9482.05664
 40
123.145439
  1
150
 50
95.7105942
  0
LINE
  8
2
 10
12235.4316
 20
9629.09668
 11
12217.0518
 21
9445.29590
  0
LINE
  8
2
 10
12183.7461
 20
9112.23926
 11
12202.1260
 21
9296.04004
  0
INSERT
  8
2
  2
ARROWF
 10
12217.0518
 20
9445.29590
 41
1.00000000
 42
1.00000000
 43
1.00000000
 50
264.289398
  0
INSERT
  8
2
  2
ARROWF
 10
12202.1260
 20
9296.04004
 41
1.00000000
 42
1.00000000
 43
1.00000000
 50
84.2894058
  0
TEXT
  8
11
 7
SIMPLEX
 10
12180.2910
 20
9490.22461
 40
123.145439
  1
150
 50
84.2893982
  0
INSERT
  8
7
  2
CUTFRM
 10
11819.5244
 20
8615.79297
 41
-1.0000000
 42
34.0165939
 43
34.0165939
 50
174.289398
  0
CIRCLE
  8
7
 10
11809.7168
 20
8517.76660
 40
98.5163498
  0
TEXT
  8
7
 7
SIMPLEX
 10
11730.9043
 20
8478.36035
 40
78.8130875
  1
V2
 72
           1
 11
11809.7168
 21
8478.36035
 50
   0.000
  0
INSERT
  8
7
  2
ARROWPF
 10
11719.2910
 20
9494.15723
 41
-1.0000000
 42
1.00000000
 43
1.00000000
 50
354.289398
  0
INSERT
  8
7
  2
CUTFRM
 10
11485.6807
 20
304.804901
 41
-1.0000000
 42
19.7386666
 43
19.7386666
 50
-90.000000
  0
CIRCLE
  8
7
 10
11584.1973
 20
304.807495
 40
98.5163498
  0
TEXT
  8
7
 7
SIMPLEX
 10
11505.3848
 20
265.400970
 40
78.8130875
  1
S2
 72
           1
 11
11584.1973
 21
265.400970
 50
   0.000
  0
INSERT
  8
7
  2
ARROWPF
 10
10984.3232
 20
117.610672
 41
-1.0000000
 42
1.00000000
 43
1.00000000
 50
90.0000000
  0
INSERT
  8
7
  2
CUTFRM
 10
80.9215622
 20
8300.14453
 41
1.00000000
 42
42.2977181
 43
42.2977181
 50
90.0000000
  0
CIRCLE
  8
7
 10
-17.594790
 20
8300.14648
 40
98.5163498
  0
TEXT
  8
7
 7
SIMPLEX
 10
-96.407875
 20
8260.74023
 40
78.8130875
  1
U5
 72
           1
 11
-17.594790
 21
8260.74023
 50
   0.000
  0
INSERT
  8
7
  2
ARROWPF
 10
1155.27869
 20
8112.93506
 41
1.00000000
 42
1.00000000
 43
1.00000000
 50
270.000000
  0
INSERT
  8
7
  2
CUTFRM
 10
3989.19092
 20
8122.25146
 41
1.00000000
 42
27.2555580
 43
27.2555580
 50
185.710587
  0
CIRCLE
  8
7
 10
3998.98853
 20
8024.22314
 40
98.5163498
  0
TEXT
  8
7
 7
SIMPLEX
 10
3933.96777
 20
7984.81641
 40
78.8130875
  1
U1
 72
           1
 11
3998.98853
 21
7984.81641
 50
   0.000
  0
INSERT
  8
7
  2
ARROWPF
 10
4106.59570
 20
8829.72559
 41
1.00000000
 42
1.00000000
 43
1.00000000
 50
365.710571
  0
INSERT
  8
7
  2
CUTFRM
 10
22389.0820
 20
8300.12500
 41
-1.0000000
 42
42.2977486
 43
42.2977486
 50
270.000000
  0
CIRCLE
  8
7
 10
22487.5977
 20
8300.11719
 40
98.5163498
  0
TEXT
  8
7
 7
SIMPLEX
 10
22408.7832
 20
8260.70996
 40
78.8130875
  1
U5
 72
           1
 11
22487.5977
 21
8260.70996
 50
   0.000
  0
INSERT
  8
7
  2
ARROWPF
 10
21314.7031
 20
8113.02930
 41
-1.0000000
 42
1.00000000
 43
1.00000000
 50
450.000000
  0
INSERT
  8
7
  2
CUTFRM
 10
855.281128
 20
561.548157
 41
-1.0000000
 42
30.4866982
 43
30.4866982
 50
-90.000000
  0
CIRCLE
  8
7
 10
953.797485
 20
561.550720
 40
98.5163498
  0
TEXT
  8
7
 7
SIMPLEX
 10
870.255615
 20
530.025513
 40
63.0504646
  1
R10
 72
           1
 11
953.797485
 21
530.025513
 50
   0.000
  0
INSERT
  8
7
  2
ARROWPF
 10
80.9239197
 20
374.346680
 41
-1.0000000
 42
1.00000000
 43
1.00000000
 50
90.0000000
  0
INSERT
  8
7
  2
CUTFRM
 10
21614.7188
 20
561.548157
 41
1.00000000
 42
30.4867134
 43
30.4867134
 50
90.0000000
  0
CIRCLE
  8
7
 10
21516.2031
 20
561.550720
 40
98.5163498
  0
TEXT
  8
7
 7
SIMPLEX
 10
21432.6602
 20
530.025513
 40
63.0504646
  1
R10
 72
           1
 11
21516.2031
 21
530.025513
 50
   0.000
  0
INSERT
  8
7
  2
ARROWPF
 10
22389.0762
 20
374.346680
 41
1.00000000
 42
1.00000000
 43
1.00000000
 50
270.000000
  0
LINE
  8
1
 10
-406.38541
 20
10976.3721
 11
5310.60107
 21
11548.0703
  0
LINE
  8
1
 10
-410.17651
 20
11014.2822
 11
5306.81006
 21
11585.9814
  0
LINE
  8
1
 10
-406.38541
 20
10976.3721
 11
-410.17651
 21
11014.2822
  0
LINE
  8
1
 10
5310.60107
 20
11548.0703
 11
5306.81006
 21
11585.9814
  0
TEXT
  8
15
 7
SIMPLEX
 10
-63.297977
 20
10845.6709
 40
123.145439
  1
0.50mm 4525
 50
5.71059464
  0
TEXT
  8
11
 7
SIMPLEX
 10
2199.35986
 20
11316.6934
 40
123.145439
  1
5750
 50
5.71059464
  0
LINE
  8
12
 10
-415.52347
 20
11067.7520
 11
-431.45291
 21
11227.0469
  0
LINE
  8
12
 10
-266.26791
 20
11082.6777
 11
-282.19736
 21
11241.9727
  0
LINE
  8
2
 10
-609.90741
 20
11155.1973
 11
-426.10596
 21
11173.5771
  0
LINE
  8
2
 10
-276.85040
 20
11188.5029
 11
-93.048943
 21
11206.8828
  0
INSERT
  8
2
  2
ARROWF
 10
-426.10596
 20
11173.5771
 41
1.00000000
 42
1.00000000
 43
1.00000000
 50
365.710602
  0
INSERT
  8
2
  2
ARROWF
 10
-276.85040
 20
11188.5029
 41
1.00000000
 42
1.00000000
 43
1.00000000
 50
185.710602
  0
TEXT
  8
11
 7
SIMPLEX
 10
-280.93448
 20
11229.3438
 40
123.145439
  1
150
 50
5.71059464
  0
LINE
  8
1
 10
5096.42920
 20
11679.8145
 11
10962.6709
 21
12266.4375
  0
LINE
  8
1
 10
5092.63818
 20
11717.7246
 11
10958.8799
 21
12304.3486
  0
LINE
  8
1
 10
5096.42920
 20
11679.8145
 11
5092.63818
 21
11717.7246
  0
LINE
  8
1
 10
10962.6709
 20
12266.4375
 11
10958.8799
 21
12304.3486
  0
TEXT
  8
11
 7
SIMPLEX
 10
7776.80273
 20
12027.5986
 40
123.145439
  1
5900
 50
5.71059464
  0
LINE
  8
12
 10
5087.29102
 20
11771.1943
 11
5071.36133
 21
11930.4893
  0
LINE
  8
12
 10
5186.79492
 20
11781.1455
 11
5170.86523
 21
11940.4404
  0
LINE
  8
2
 10
4892.90674
 20
11858.6396
 11
5076.70850
 21
11877.0195
  0
LINE
  8
2
 10
5176.21240
 20
11886.9707
 11
5360.01367
 21
11905.3506
  0
INSERT
  8
2
  2
ARROWF
 10
5076.70850
 20
11877.0195
 41
1.00000000
 42
1.00000000
 43
1.00000000
 50
365.710602
  0
INSERT
  8
2
  2
ARROWF
 10
5176.21240
 20
11886.9707
 41
1.00000000
 42
1.00000000
 43
1.00000000
 50
185.710602
  0
TEXT
  8
11
 7
SIMPLEX
 10
5172.12793
 20
11927.8115
 40
123.145439
  1
100
 50
5.71059464
  0
LINE
  8
1
 10
11507.2939
 20
12266.4414
 11
17373.5352
 21
11679.8174
  0
LINE
  8
1
 10
11511.0859
 20
12304.3525
 11
17377.3262
 21
11717.7275
  0
LINE
  8
1
 10
11507.2939
 20
12266.4414
 11
11511.0859
 21
12304.3525
  0
LINE
  8
1
 10
17373.5352
 20
11679.8174
 11
17377.3262
 21
11717.7275
  0
TEXT
  8
11
 7
SIMPLEX
 10
14207.5020
 20
12076.1680
 40
123.145439
  1
5900
 50
-5.7105947
  0
LINE
  8
12
 10
17283.1680
 20
11781.1484
 11
17299.0977
 21
11940.4434
  0
LINE
  8
12
 10
17382.6719
 20
11771.1973
 11
17398.6016
 21
11930.4922
  0
LINE
  8
2
 10
17109.9492
 20
11905.3535
 11
17293.7500
 21
11886.9736
  0
LINE
  8
2
 10
17393.2539
 20
11877.0225
 11
17577.0547
 21
11858.6426
  0
INSERT
  8
2
  2
ARROWF
 10
17293.7500
 20
11886.9736
 41
1.00000000
 42
1.00000000
 43
1.00000000
 50
354.289398
  0
INSERT
  8
2
  2
ARROWF
 10
17393.2539
 20
11877.0225
 41
1.00000000
 42
1.00000000
 43
1.00000000
 50
174.289398
  0
TEXT
  8
11
 7
SIMPLEX
 10
16991.4980
 20
11958.4482
 40
123.145439
  1
100
 50
-5.7105947
  0
TEXT
  8
15
 7
SIMPLEX
 10
10964.0801
 20
12641.0400
 40
123.145439
  1
RC-01
 50
0.00000000
  0
LINE
  8
1
 10
11235.0000
 20
12599.9912
 11
10343.8418
 21
12510.8760
  0
LINE
  8
1
 10
10343.8418
 20
12510.8760
 11
10340.0498
 21
12472.9648
  0
LINE
  8
1
 10
11235.0000
 20
12599.9912
 11
12126.1592
 21
12510.8760
  0
LINE
  8
1
 10
12126.1592
 20
12510.8760
 11
12129.9502
 21
12472.9648
  0
LINE
  8
1
 10
10340.0498
 20
12472.9648
 11
11235.0000
 21
12562.4600
  0
LINE
  8
1
 10
12129.9502
 20
12472.9648
 11
11235.0000
 21
12562.4600
  0
LINE
  8
1
 10
17159.3652
 20
11548.0752
 11
22876.3867
 21
10976.3721
  0
LINE
  8
1
 10
17163.1563
 20
11585.9854
 11
22880.1777
 21
11014.2822
  0
LINE
  8
1
 10
17159.3652
 20
11548.0752
 11
17163.1563
 21
11585.9854
  0
LINE
  8
1
 10
22876.3867
 20
10976.3721
 11
22880.1777
 21
11014.2822
  0
TEXT
  8
11
 7
SIMPLEX
 10
19784.9473
 20
11365.2646
 40
123.145439
  1
5750
 50
-5.7105947
  0
LINE
  8
12
 10
22736.2676
 20
11082.6777
 11
22752.1973
 21
11241.9727
  0
LINE
  8
12
 10
22885.5234
 20
11067.7520
 11
22901.4531
 21
11227.0469
  0
LINE
  8
2
 10
22563.0488
 20
11206.8828
 11
22746.8496
 21
11188.5029
  0
LINE
  8
2
 10
22896.1055
 20
11173.5771
 11
23079.9063
 21
11155.1973
  0
INSERT
  8
2
  2
ARROWF
 10
22746.8496
 20
11188.5029
 41
1.00000000
 42
1.00000000
 43
1.00000000
 50
354.289398
  0
INSERT
  8
2
  2
ARROWF
 10
22896.1055
 20
11173.5771
 41
1.00000000
 42
1.00000000
 43
1.00000000
 50
174.289398
  0
TEXT
  8
11
 7
SIMPLEX
 10
22444.5977
 20
11259.9775
 40
123.145439
  1
150
 50
-5.7105947
  0
ENDBLK
  8
0
  0
BLOCK
  8
0
  2
EPBLK1
 70
     0
 10
0.00000000
 20
0.00000000
  0
LINE
  8
0
 10
0.00000000
 20
0.00000000
 11
0.00000000
 21
1791.20630
  0
LINE
  8
0
 10
0.00000000
 20
1791.20630
 11
881.499207
 21
1791.20630
  0
LINE
  8
0
 10
0.00000000
 20
0.00000000
 11
881.499207
 21
0.00000000
  0
LINE
  8
0
 10
881.499207
 20
1791.20630
 11
881.499207
 21
0.00000000
  0
TEXT
  8
11
 7
SIMPLEX
 10
15.3931790
 20
1745.02673
 40
30.7863579
  1
Bolt Dia=
 50
0.00000000
  0
TEXT
  8
11
 7
SIMPLEX
 10
15.3931790
 20
1706.54382
 40
30.7863579
  1
Plate Thk=
 50
0.00000000
  0
TEXT
  8
11
 7
SIMPLEX
 10
324.526764
 20
1745.02673
 40
30.7863579
  1
20
 50
0.00000000
  0
TEXT
  8
11
 7
SIMPLEX
 10
324.526764
 20
1706.54382
 40
30.7863579
  1
16
 50
0.00000000
  0
TEXT
  8
11
 7
SIMPLEX
 10
30.7863579
 20
15.3931790
 40
30.7863579
  1
SP1
 50
0.00000000
  0
LINE
  8
0
 10
330.562195
 20
358.241272
 11
330.562195
 21
1432.96509
  0
LINE
  8
0
 10
330.562195
 20
1432.96509
 11
550.937012
 21
1432.96509
  0
LINE
  8
0
 10
550.937012
 20
1432.96509
 11
550.937012
 21
358.241272
  0
LINE
  8
0
 10
330.562195
 20
358.241272
 11
550.937012
 21
358.241272
  0
CIRCLE
  8
0
 10
385.655884
 20
1373.25830
 40
7.69658992
  0
CIRCLE
  8
0
 10
495.843262
 20
1373.25830
 40
7.69658992
  0
CIRCLE
  8
0
 10
385.655884
 20
1253.84436
 40
7.69658992
  0
CIRCLE
  8
0
 10
495.843262
 20
1253.84436
 40
7.69658992
  0
CIRCLE
  8
0
 10
385.655884
 20
895.603149
 40
7.69658992
  0
CIRCLE
  8
0
 10
495.843262
 20
895.603149
 40
7.69658992
  0
CIRCLE
  8
0
 10
385.655884
 20
537.361877
 40
7.69658992
  0
CIRCLE
  8
0
 10
495.843262
 20
537.361877
 40
7.69658992
  0
CIRCLE
  8
0
 10
385.655884
 20
417.948090
 40
7.69658992
  0
CIRCLE
  8
0
 10
495.843262
 20
417.948090
 40
7.69658992
  0
LINE
  8
0
 10
426.755768
 20
1320.71606
 11
426.755768
 21
1420.83264
  0
LINE
  8
0
 10
426.755768
 20
1420.83264
 11
454.743439
 21
1420.83264
  0
LINE
  8
0
 10
454.743439
 20
1420.83264
 11
454.743439
 21
1320.71606
  0
LINE
  8
0
 10
426.755768
 20
470.490173
 11
426.755768
 21
370.373718
  0
LINE
  8
0
 10
426.755768
 20
370.373718
 11
454.743439
 21
370.373718
  0
LINE
  8
0
 10
454.743439
 20
370.373718
 11
454.743439
 21
470.490173
  0
LINE
  8
2
 10
625.197449
 20
296.730103
 11
625.197449
 21
358.241272
  0
LINE
  8
2
 10
625.197449
 20
417.948090
 11
625.197449
 21
479.459259
  0
INSERT
  8
2
  2
ARROWF
 10
625.197449
 20
358.241272
 41
0.33300000
 42
0.33300000
 43
0.33300000
 50
450.000000
  0
INSERT
  8
2
  2
ARROWF
 10
625.197449
 20
417.948090
 41
0.33300000
 42
0.33300000
 43
0.33300000
 50
270.000000
  0
LINE
  8
2
 10
604.673218
 20
417.948090
 11
635.459534
 21
417.948090
  0
LINE
  8
2
 10
604.673218
 20
358.241272
 11
635.459534
 21
358.241272
  0
TEXT
  8
11
 7
SIMPLEX
 10
640.590637
 20
372.701508
 40
30.7863579
  1
50
 50
0.00000000
  0
LINE
  8
2
 10
625.197449
 20
417.948090
 11
625.197449
 21
537.361877
  0
INSERT
  8
2
  2
ARROWF
 10
625.197449
 20
417.948090
 41
0.33300000
 42
0.33300000
 43
0.33300000
 50
270.000000
  0
INSERT
  8
2
  2
ARROWF
 10
625.197449
 20
537.361877
 41
0.33300000
 42
0.33300000
 43
0.33300000
 50
89.9999847
  0
LINE
  8
2
 10
604.673218
 20
537.361877
 11
635.459534
 21
537.361877
  0
LINE
  8
2
 10
604.673218
 20
417.948090
 11
635.459534
 21
417.948090
  0
TEXT
  8
11
 7
SIMPLEX
 10
640.590637
 20
462.261749
 40
30.7863579
  1
100
 50
0.00000000
  0
LINE
  8
2
 10
625.197449
 20
537.361877
 11
625.197449
 21
895.603149
  0
INSERT
  8
2
  2
ARROWF
 10
625.197449
 20
537.361877
 41
0.33300000
 42
0.33300000
 43
0.33300000
 50
270.000000
  0
INSERT
  8
2
  2
ARROWF
 10
625.197449
 20
895.603149
 41
0.33300000
 42
0.33300000
 43
0.33300000
 50
89.9999847
  0
LINE
  8
2
 10
604.673218
 20
895.603149
 11
635.459534
 21
895.603149
  0
LINE
  8
2
 10
604.673218
 20
537.361877
 11
635.459534
 21
537.361877
  0
TEXT
  8
11
 7
SIMPLEX
 10
640.590637
 20
701.089294
 40
30.7863579
  1
300
 50
0.00000000
  0
LINE
  8
2
 10
625.197449
 20
895.603149
 11
625.197449
 21
1253.84436
  0
INSERT
  8
2
  2
ARROWF
 10
625.197449
 20
895.603149
 41
0.33300000
 42
0.33300000
 43
0.33300000
 50
270.000000
  0
INSERT
  8
2
  2
ARROWF
 10
625.197449
 20
1253.84436
 41
0.33300000
 42
0.33300000
 43
0.33300000
 50
89.9999847
  0
LINE
  8
2
 10
604.673218
 20
1253.84436
 11
635.459534
 21
1253.84436
  0
LINE
  8
2
 10
604.673218
 20
895.603149
 11
635.459534
 21
895.603149
  0
TEXT
  8
11
 7
SIMPLEX
 10
640.590637
 20
1059.33057
 40
30.7863579
  1
300
 50
0.00000000
  0
LINE
  8
2
 10
625.197449
 20
1253.84436
 11
625.197449
 21
1373.25830
  0
INSERT
  8
2
  2
ARROWF
 10
625.197449
 20
1253.84436
 41
0.33300000
 42
0.33300000
 43
0.33300000
 50
270.000000
  0
INSERT
  8
2
  2
ARROWF
 10
625.197449
 20
1373.25830
 41
0.33300000
 42
0.33300000
 43
0.33300000
 50
89.9999847
  0
LINE
  8
2
 10
604.673218
 20
1373.25830
 11
635.459534
 21
1373.25830
  0
LINE
  8
2
 10
604.673218
 20
1253.84436
 11
635.459534
 21
1253.84436
  0
TEXT
  8
11
 7
SIMPLEX
 10
640.590637
 20
1298.15820
 40
30.7863579
  1
100
 50
0.00000000
  0
LINE
  8
2
 10
625.197449
 20
1311.74707
 11
625.197449
 21
1373.25830
  0
LINE
  8
2
 10
625.197449
 20
1432.96509
 11
625.197449
 21
1494.47620
  0
INSERT
  8
2
  2
ARROWF
 10
625.197449
 20
1373.25830
 41
0.33300000
 42
0.33300000
 43
0.33300000
 50
450.000000
  0
INSERT
  8
2
  2
ARROWF
 10
625.197449
 20
1432.96509
 41
0.33300000
 42
0.33300000
 43
0.33300000
 50
270.000000
  0
LINE
  8
2
 10
604.673218
 20
1432.96509
 11
635.459534
 21
1432.96509
  0
LINE
  8
2
 10
604.673218
 20
1373.25830
 11
635.459534
 21
1373.25830
  0
TEXT
  8
11
 7
SIMPLEX
 10
640.590637
 20
1387.71851
 40
30.7863579
  1
50
 50
0.00000000
  0
LINE
  8
2
 10
385.655884
 20
283.980835
 11
495.843323
 21
283.980835
  0
LINE
  8
2
 10
385.655884
 20
304.505066
 11
385.655884
 21
273.718720
  0
LINE
  8
2
 10
495.843323
 20
304.505066
 11
495.843323
 21
273.718720
  0
INSERT
  8
2
  2
ARROWF
 10
385.655884
 20
283.980835
 41
0.33300000
 42
0.33300000
 43
0.33300000
 50
180.000000
  0
INSERT
  8
2
  2
ARROWF
 10
495.843323
 20
283.980835
 41
0.33300000
 42
0.33300000
 43
0.33300000
 50
0.00000000
  0
TEXT
  8
11
 7
SIMPLEX
 10
406.114929
 20
245.497894
 40
30.7863579
  1
100
 50
0.00000000
  0
LINE
  8
2
 10
256.301758
 20
358.241272
 11
256.301758
 21
470.490204
  0
INSERT
  8
2
  2
ARROWF
 10
256.301758
 20
358.241272
 41
0.33300000
 42
0.33300000
 43
0.33300000
 50
270.000000
  0
INSERT
  8
2
  2
ARROWF
 10
256.301758
 20
470.490204
 41
0.33300000
 42
0.33300000
 43
0.33300000
 50
89.9999847
  0
LINE
  8
2
 10
246.039658
 20
470.490204
 11
276.825989
 21
470.490204
  0
LINE
  8
2
 10
246.039658
 20
358.241272
 11
276.825989
 21
358.241272
  0
TEXT
  8
11
 7
SIMPLEX
 10
187.032455
 20
398.972565
 40
30.7863579
  1
94
 72
           2
 11
248.605164
 21
414.365753
 73
           2
 50
   0.000
  0
LINE
  8
2
 10
256.301758
 20
470.490204
 11
256.301758
 21
1320.71606
  0
INSERT
  8
2
  2
ARROWF
 10
256.301758
 20
470.490204
 41
0.33300000
 42
0.33300000
 43
0.33300000
 50
270.000000
  0
INSERT
  8
2
  2
ARROWF
 10
256.301758
 20
1320.71606
 41
0.33300000
 42
0.33300000
 43
0.33300000
 50
89.9999847
  0
LINE
  8
2
 10
246.039658
 20
1320.71606
 11
276.825989
 21
1320.71606
  0
LINE
  8
2
 10
246.039658
 20
470.490204
 11
276.825989
 21
470.490204
  0
TEXT
  8
11
 7
SIMPLEX
 10
217.818817
 20
854.811279
 40
30.7863579
  1
712
 72
           1
 11
248.605164
 21
895.603149
 73
           1
 50
  90.000
  0
LINE
  8
2
 10
256.301758
 20
1320.71606
 11
256.301758
 21
1432.96509
  0
INSERT
  8
2
  2
ARROWF
 10
256.301758
 20
1320.71606
 41
0.33300000
 42
0.33300000
 43
0.33300000
 50
270.000000
  0
INSERT
  8
2
  2
ARROWF
 10
256.301758
 20
1432.96509
 41
0.33300000
 42
0.33300000
 43
0.33300000
 50
89.9999847
  0
LINE
  8
2
 10
246.039658
 20
1432.96509
 11
276.825989
 21
1432.96509
  0
LINE
  8
2
 10
246.039658
 20
1320.71606
 11
276.825989
 21
1320.71606
  0
TEXT
  8
11
 7
SIMPLEX
 10
187.032455
 20
1361.44739
 40
30.7863579
  1
94
 72
           2
 11
248.605164
 21
1376.84070
 73
           2
 50
   0.000
  0
LINE
  8
2
 10
135.581909
 20
358.241272
 11
166.368271
 21
358.241272
  0
LINE
  8
2
 10
135.581909
 20
1432.96509
 11
166.368271
 21
1432.96509
  0
LINE
  8
2
 10
145.844025
 20
358.241272
 11
145.844025
 21
1432.96509
  0
INSERT
  8
2
  2
ARROWF
 10
145.844025
 20
358.241272
 41
0.33300000
 42
0.33300000
 43
0.33300000
 50
270.000000
  0
INSERT
  8
2
  2
ARROWF
 10
145.844025
 20
1432.96509
 41
0.33300000
 42
0.33300000
 43
0.33300000
 50
90.0000000
  0
TEXT
  8
11
 7
SIMPLEX
 10
138.147446
 20
860.968567
 40
30.7863579
  1
900
 50
90.0000000
  0
LINE
  8
2
 10
330.562195
 20
1507.22546
 11
550.937012
 21
1507.22546
  0
LINE
  8
2
 10
330.562195
 20
1517.48755
 11
330.562195
 21
1486.70117
  0
LINE
  8
2
 10
550.937012
 20
1517.48755
 11
550.937012
 21
1486.70117
  0
INSERT
  8
2
  2
ARROWF
 10
330.562195
 20
1507.22546
 41
0.33300000
 42
0.33300000
 43
0.33300000
 50
180.000000
  0
INSERT
  8
2
  2
ARROWF
 10
550.937012
 20
1507.22546
 41
0.33300000
 42
0.33300000
 43
0.33300000
 50
0.00000000
  0
TEXT
  8
11
 7
SIMPLEX
 10
406.114929
 20
1514.92188
 40
30.7863579
  1
200
 50
0.00000000
  0
LINE
  8
0
 10
358.109009
 20
470.490204
 11
523.390137
 21
470.490204
  0
LINE
  8
0
 10
358.109009
 20
498.477814
 11
523.390137
 21
498.477814
  0
LINE
  8
0
 10
358.109009
 20
470.490204
 11
358.109009
 21
498.477814
  0
LINE
  8
0
 10
523.390137
 20
470.490204
 11
523.390137
 21
498.477814
  0
LINE
  8
0
 10
358.109009
 20
1320.71606
 11
523.390137
 21
1320.71606
  0
LINE
  8
0
 10
358.109009
 20
1292.72839
 11
523.390137
 21
1292.72839
  0
LINE
  8
0
 10
358.109009
 20
1320.71606
 11
358.109009
 21
1292.72839
  0
LINE
  8
0
 10
523.390137
 20
1320.71606
 11
523.390137
 21
1292.72839
  0
LINE
  8
0
 10
454.743439
 20
498.477814
 11
454.743439
 21
1292.72839
  0
LINE
  8
0
 10
426.755768
 20
498.477814
 11
426.755768
 21
1292.72839
  0
ENDBLK
  8
0
  0
BLOCK
  8
0
  2
EPBLK2
 70
     0
 10
0.00000000
 20
0.00000000
  0
LINE
  8
0
 10
0.00000000
 20
0.00000000
 11
0.00000000
 21
1791.20630
  0
LINE
  8
0
 10
0.00000000
 20
1791.20630
 11
881.499207
 21
1791.20630
  0
LINE
  8
0
 10
0.00000000
 20
0.00000000
 11
881.499207
 21
0.00000000
  0
LINE
  8
0
 10
881.499207
 20
1791.20630
 11
881.499207
 21
0.00000000
  0
TEXT
  8
11
 7
SIMPLEX
 10
15.3931790
 20
1745.02673
 40
30.7863579
  1
Bolt Dia=
 50
0.00000000
  0
TEXT
  8
11
 7
SIMPLEX
 10
15.3931790
 20
1706.54382
 40
30.7863579
  1
Plate Thk=
 50
0.00000000
  0
TEXT
  8
11
 7
SIMPLEX
 10
324.526764
 20
1745.02673
 40
30.7863579
  1
20
 50
0.00000000
  0
TEXT
  8
11
 7
SIMPLEX
 10
324.526764
 20
1706.54382
 40
30.7863579
  1
16
 50
0.00000000
  0
TEXT
  8
11
 7
SIMPLEX
 10
30.7863579
 20
15.3931790
 40
30.7863579
  1
SP2
 50
0.00000000
  0
LINE
  8
0
 10
330.562195
 20
519.449890
 11
330.562195
 21
1271.75647
  0
LINE
  8
0
 10
330.562195
 20
1271.75647
 11
550.937012
 21
1271.75647
  0
LINE
  8
0
 10
550.937012
 20
1271.75647
 11
550.937012
 21
519.449890
  0
LINE
  8
0
 10
330.562195
 20
519.449890
 11
550.937012
 21
519.449890
  0
CIRCLE
  8
0
 10
385.655884
 20
1196.52576
 40
7.69658992
  0
CIRCLE
  8
0
 10
495.843262
 20
1196.52576
 40
7.69658992
  0
CIRCLE
  8
0
 10
385.655884
 20
1046.06458
 40
7.69658992
  0
CIRCLE
  8
0
 10
495.843262
 20
1046.06458
 40
7.69658992
  0
CIRCLE
  8
0
 10
385.655884
 20
745.141846
 40
7.69658992
  0
CIRCLE
  8
0
 10
495.843262
 20
745.141846
 40
7.69658992
  0
CIRCLE
  8
0
 10
385.655884
 20
594.680542
 40
7.69658992
  0
CIRCLE
  8
0
 10
495.843262
 20
594.680542
 40
7.69658992
  0
LINE
  8
0
 10
426.755768
 20
1128.81824
 11
426.755768
 21
1256.46960
  0
LINE
  8
0
 10
426.755768
 20
1256.46960
 11
454.743439
 21
1256.46960
  0
LINE
  8
0
 10
454.743439
 20
1256.46960
 11
454.743439
 21
1128.81824
  0
LINE
  8
0
 10
426.755768
 20
662.388123
 11
426.755768
 21
534.736755
  0
LINE
  8
0
 10
426.755768
 20
534.736755
 11
454.743439
 21
534.736755
  0
LINE
  8
0
 10
454.743439
 20
534.736755
 11
454.743439
 21
662.388123
  0
LINE
  8
2
 10
625.197449
 20
457.938721
 11
625.197449
 21
519.449890
  0
LINE
  8
2
 10
625.197449
 20
594.680542
 11
625.197449
 21
656.191650
  0
INSERT
  8
2
  2
ARROWF
 10
625.197449
 20
519.449890
 41
0.33300000
 42
0.33300000
 43
0.33300000
 50
450.000000
  0
INSERT
  8
2
  2
ARROWF
 10
625.197449
 20
594.680542
 41
0.33300000
 42
0.33300000
 43
0.33300000
 50
270.000000
  0
LINE
  8
2
 10
604.673218
 20
594.680542
 11
635.459534
 21
594.680542
  0
LINE
  8
2
 10
604.673218
 20
519.449890
 11
635.459534
 21
519.449890
  0
TEXT
  8
11
 7
SIMPLEX
 10
640.590637
 20
541.671997
 40
30.7863579
  1
50
 50
0.00000000
  0
LINE
  8
2
 10
625.197449
 20
594.680542
 11
625.197449
 21
745.141846
  0
INSERT
  8
2
  2
ARROWF
 10
625.197449
 20
594.680542
 41
0.33300000
 42
0.33300000
 43
0.33300000
 50
270.000000
  0
INSERT
  8
2
  2
ARROWF
 10
625.197449
 20
745.141846
 41
0.33300000
 42
0.33300000
 43
0.33300000
 50
89.9999847
  0
LINE
  8
2
 10
604.673218
 20
745.141846
 11
635.459534
 21
745.141846
  0
LINE
  8
2
 10
604.673218
 20
594.680542
 11
635.459534
 21
594.680542
  0
TEXT
  8
11
 7
SIMPLEX
 10
640.590637
 20
654.518005
 40
30.7863579
  1
100
 50
0.00000000
  0
LINE
  8
2
 10
625.197449
 20
745.141846
 11
625.197449
 21
1046.06458
  0
INSERT
  8
2
  2
ARROWF
 10
625.197449
 20
745.141846
 41
0.33300000
 42
0.33300000
 43
0.33300000
 50
270.000000
  0
INSERT
  8
2
  2
ARROWF
 10
625.197449
 20
1046.06458
 41
0.33300000
 42
0.33300000
 43
0.33300000
 50
89.9999847
  0
LINE
  8
2
 10
604.673218
 20
1046.06458
 11
635.459534
 21
1046.06458
  0
LINE
  8
2
 10
604.673218
 20
745.141846
 11
635.459534
 21
745.141846
  0
TEXT
  8
11
 7
SIMPLEX
 10
640.590637
 20
880.210022
 40
30.7863579
  1
200
 50
0.00000000
  0
LINE
  8
2
 10
625.197449
 20
1046.06458
 11
625.197449
 21
1196.52576
  0
INSERT
  8
2
  2
ARROWF
 10
625.197449
 20
1046.06458
 41
0.33300000
 42
0.33300000
 43
0.33300000
 50
270.000000
  0
INSERT
  8
2
  2
ARROWF
 10
625.197449
 20
1196.52576
 41
0.33300000
 42
0.33300000
 43
0.33300000
 50
89.9999847
  0
LINE
  8
2
 10
604.673218
 20
1196.52576
 11
635.459534
 21
1196.52576
  0
LINE
  8
2
 10
604.673218
 20
1046.06458
 11
635.459534
 21
1046.06458
  0
TEXT
  8
11
 7
SIMPLEX
 10
640.590637
 20
1105.90198
 40
30.7863579
  1
100
 50
0.00000000
  0
LINE
  8
2
 10
625.197449
 20
1135.01465
 11
625.197449
 21
1196.52576
  0
LINE
  8
2
 10
625.197449
 20
1271.75647
 11
625.197449
 21
1333.26758
  0
INSERT
  8
2
  2
ARROWF
 10
625.197449
 20
1196.52576
 41
0.33300000
 42
0.33300000
 43
0.33300000
 50
450.000000
  0
INSERT
  8
2
  2
ARROWF
 10
625.197449
 20
1271.75647
 41
0.33300000
 42
0.33300000
 43
0.33300000
 50
270.000000
  0
LINE
  8
2
 10
604.673218
 20
1271.75647
 11
635.459534
 21
1271.75647
  0
LINE
  8
2
 10
604.673218
 20
1196.52576
 11
635.459534
 21
1196.52576
  0
TEXT
  8
11
 7
SIMPLEX
 10
640.590637
 20
1218.74792
 40
30.7863579
  1
50
 50
0.00000000
  0
LINE
  8
2
 10
385.655884
 20
445.189423
 11
495.843323
 21
445.189423
  0
LINE
  8
2
 10
385.655884
 20
465.713684
 11
385.655884
 21
434.927307
  0
LINE
  8
2
 10
495.843323
 20
465.713684
 11
495.843323
 21
434.927307
  0
INSERT
  8
2
  2
ARROWF
 10
385.655884
 20
445.189423
 41
0.33300000
 42
0.33300000
 43
0.33300000
 50
180.000000
  0
INSERT
  8
2
  2
ARROWF
 10
495.843323
 20
445.189423
 41
0.33300000
 42
0.33300000
 43
0.33300000
 50
0.00000000
  0
TEXT
  8
11
 7
SIMPLEX
 10
406.114929
 20
406.706543
 40
30.7863579
  1
100
 50
0.00000000
  0
LINE
  8
2
 10
256.301758
 20
519.449890
 11
256.301758
 21
662.388123
  0
INSERT
  8
2
  2
ARROWF
 10
256.301758
 20
519.449890
 41
0.33300000
 42
0.33300000
 43
0.33300000
 50
270.000000
  0
INSERT
  8
2
  2
ARROWF
 10
256.301758
 20
662.388123
 41
0.33300000
 42
0.33300000
 43
0.33300000
 50
89.9999847
  0
LINE
  8
2
 10
246.039658
 20
662.388123
 11
276.825989
 21
662.388123
  0
LINE
  8
2
 10
246.039658
 20
519.449890
 11
276.825989
 21
519.449890
  0
TEXT
  8
11
 7
SIMPLEX
 10
187.032455
 20
575.525818
 40
30.7863579
  1
95
 72
           2
 11
248.605164
 21
590.919006
 73
           2
 50
   0.000
  0
LINE
  8
2
 10
256.301758
 20
662.388123
 11
256.301758
 21
1128.81824
  0
INSERT
  8
2
  2
ARROWF
 10
256.301758
 20
662.388123
 41
0.33300000
 42
0.33300000
 43
0.33300000
 50
270.000000
  0
INSERT
  8
2
  2
ARROWF
 10
256.301758
 20
1128.81824
 41
0.33300000
 42
0.33300000
 43
0.33300000
 50
89.9999847
  0
LINE
  8
2
 10
246.039658
 20
1128.81824
 11
276.825989
 21
1128.81824
  0
LINE
  8
2
 10
246.039658
 20
662.388123
 11
276.825989
 21
662.388123
  0
TEXT
  8
11
 7
SIMPLEX
 10
217.818817
 20
854.811401
 40
30.7863579
  1
310
 72
           1
 11
248.605164
 21
895.603272
 73
           1
 50
  90.000
  0
LINE
  8
2
 10
256.301758
 20
1128.81824
 11
256.301758
 21
1271.75647
  0
INSERT
  8
2
  2
ARROWF
 10
256.301758
 20
1128.81824
 41
0.33300000
 42
0.33300000
 43
0.33300000
 50
270.000000
  0
INSERT
  8
2
  2
ARROWF
 10
256.301758
 20
1271.75647
 41
0.33300000
 42
0.33300000
 43
0.33300000
 50
89.9999847
  0
LINE
  8
2
 10
246.039658
 20
1271.75647
 11
276.825989
 21
1271.75647
  0
LINE
  8
2
 10
246.039658
 20
1128.81824
 11
276.825989
 21
1128.81824
  0
TEXT
  8
11
 7
SIMPLEX
 10
187.032455
 20
1184.89429
 40
30.7863579
  1
95
 72
           2
 11
248.605164
 21
1200.28735
 73
           2
 50
   0.000
  0
LINE
  8
2
 10
135.581909
 20
519.449890
 11
166.368271
 21
519.449890
  0
LINE
  8
2
 10
135.581909
 20
1271.75647
 11
166.368271
 21
1271.75647
  0
LINE
  8
2
 10
145.844025
 20
519.449890
 11
145.844025
 21
1271.75647
  0
INSERT
  8
2
  2
ARROWF
 10
145.844025
 20
519.449890
 41
0.33300000
 42
0.33300000
 43
0.33300000
 50
270.000000
  0
INSERT
  8
2
  2
ARROWF
 10
145.844025
 20
1271.75647
 41
0.33300000
 42
0.33300000
 43
0.33300000
 50
90.0000000
  0
TEXT
  8
11
 7
SIMPLEX
 10
138.147446
 20
860.968567
 40
30.7863579
  1
500
 50
90.0000000
  0
LINE
  8
2
 10
330.562195
 20
1346.01685
 11
550.937012
 21
1346.01685
  0
LINE
  8
2
 10
330.562195
 20
1356.27905
 11
330.562195
 21
1325.49268
  0
LINE
  8
2
 10
550.937012
 20
1356.27905
 11
550.937012
 21
1325.49268
  0
INSERT
  8
2
  2
ARROWF
 10
330.562195
 20
1346.01685
 41
0.33300000
 42
0.33300000
 43
0.33300000
 50
180.000000
  0
INSERT
  8
2
  2
ARROWF
 10
550.937012
 20
1346.01685
 41
0.33300000
 42
0.33300000
 43
0.33300000
 50
0.00000000
  0
TEXT
  8
11
 7
SIMPLEX
 10
406.114929
 20
1353.71350
 40
30.7863579
  1
200
 50
0.00000000
  0
LINE
  8
0
 10
358.109009
 20
662.388123
 11
523.390137
 21
662.388123
  0
LINE
  8
0
 10
358.109009
 20
690.375732
 11
523.390137
 21
690.375732
  0
LINE
  8
0
 10
358.109009
 20
662.388123
 11
358.109009
 21
690.375732
  0
LINE
  8
0
 10
523.390137
 20
662.388123
 11
523.390137
 21
690.375732
  0
LINE
  8
0
 10
358.109009
 20
1128.81824
 11
523.390137
 21
1128.81824
  0
LINE
  8
0
 10
358.109009
 20
1100.83057
 11
523.390137
 21
1100.83057
  0
LINE
  8
0
 10
358.109009
 20
1128.81824
 11
358.109009
 21
1100.83057
  0
LINE
  8
0
 10
523.390137
 20
1128.81824
 11
523.390137
 21
1100.83057
  0
LINE
  8
0
 10
454.743439
 20
690.375732
 11
454.743439
 21
1100.83057
  0
LINE
  8
0
 10
426.755768
 20
690.375732
 11
426.755768
 21
1100.83057
  0
ENDBLK
  8
0
  0
BLOCK
  8
0
  2
EPBLK3
 70
     0
 10
0.00000000
 20
0.00000000
  0
LINE
  8
0
 10
0.00000000
 20
0.00000000
 11
0.00000000
 21
1791.20630
  0
LINE
  8
0
 10
0.00000000
 20
1791.20630
 11
881.499207
 21
1791.20630
  0
LINE
  8
0
 10
0.00000000
 20
0.00000000
 11
881.499207
 21
0.00000000
  0
LINE
  8
0
 10
881.499207
 20
1791.20630
 11
881.499207
 21
0.00000000
  0
TEXT
  8
11
 7
SIMPLEX
 10
15.3931790
 20
1745.02673
 40
30.7863579
  1
Bolt Dia=
 50
0.00000000
  0
TEXT
  8
11
 7
SIMPLEX
 10
15.3931790
 20
1706.54382
 40
30.7863579
  1
Plate Thk=
 50
0.00000000
  0
TEXT
  8
11
 7
SIMPLEX
 10
324.526764
 20
1745.02673
 40
30.7863579
  1
20
 50
0.00000000
  0
TEXT
  8
11
 7
SIMPLEX
 10
324.526764
 20
1706.54382
 40
30.7863579
  1
16
 50
0.00000000
  0
TEXT
  8
11
 7
SIMPLEX
 10
30.7863579
 20
15.3931790
 40
30.7863579
  1
BP1
 50
0.00000000
  0
LINE
  8
0
 10
330.562195
 20
474.783081
 11
330.562195
 21
1316.42334
  0
LINE
  8
0
 10
330.562195
 20
1316.42334
 11
550.937012
 21
1316.42334
  0
LINE
  8
0
 10
550.937012
 20
1316.42334
 11
550.937012
 21
474.783081
  0
LINE
  8
0
 10
330.562195
 20
474.783081
 11
550.937012
 21
474.783081
  0
CIRCLE
  8
0
 10
385.655884
 20
1226.86292
 40
7.69658992
  0
CIRCLE
  8
0
 10
495.843262
 20
1226.86292
 40
7.69658992
  0
CIRCLE
  8
0
 10
385.655884
 20
1047.74231
 40
7.69658992
  0
CIRCLE
  8
0
 10
495.843262
 20
1047.74231
 40
7.69658992
  0
CIRCLE
  8
0
 10
385.655884
 20
743.464111
 40
7.69658992
  0
CIRCLE
  8
0
 10
495.843262
 20
743.464111
 40
7.69658992
  0
CIRCLE
  8
0
 10
385.655884
 20
564.343445
 40
7.69658992
  0
CIRCLE
  8
0
 10
495.843262
 20
564.343445
 40
7.69658992
  0
LINE
  8
0
 10
426.755768
 20
1140.88513
 11
426.755768
 21
1304.29089
  0
LINE
  8
0
 10
426.755768
 20
1304.29089
 11
454.743439
 21
1304.29089
  0
LINE
  8
0
 10
454.743439
 20
1304.29089
 11
454.743439
 21
1140.88513
  0
LINE
  8
0
 10
426.755768
 20
648.876465
 11
426.755768
 21
486.915527
  0
LINE
  8
0
 10
426.755768
 20
486.915527
 11
454.743439
 21
486.915527
  0
LINE
  8
0
 10
454.743439
 20
486.915527
 11
454.743439
 21
648.876465
  0
LINE
  8
2
 10
625.197449
 20
474.783081
 11
625.197449
 21
564.343445
  0
INSERT
  8
2
  2
ARROWF
 10
625.197449
 20
474.783081
 41
0.33300000
 42
0.33300000
 43
0.33300000
 50
270.000000
  0
INSERT
  8
2
  2
ARROWF
 10
625.197449
 20
564.343445
 41
0.33300000
 42
0.33300000
 43
0.33300000
 50
89.9999847
  0
LINE
  8
2
 10
604.673218
 20
564.343445
 11
635.459534
 21
564.343445
  0
LINE
  8
2
 10
604.673218
 20
474.783081
 11
635.459534
 21
474.783081
  0
TEXT
  8
11
 7
SIMPLEX
 10
640.590637
 20
504.170044
 40
30.7863579
  1
75
 50
0.00000000
  0
LINE
  8
2
 10
625.197449
 20
564.343445
 11
625.197449
 21
743.464111
  0
INSERT
  8
2
  2
ARROWF
 10
625.197449
 20
564.343445
 41
0.33300000
 42
0.33300000
 43
0.33300000
 50
270.000000
  0
INSERT
  8
2
  2
ARROWF
 10
625.197449
 20
743.464111
 41
0.33300000
 42
0.33300000
 43
0.33300000
 50
89.9999847
  0
LINE
  8
2
 10
604.673218
 20
743.464111
 11
635.459534
 21
743.464111
  0
LINE
  8
2
 10
604.673218
 20
564.343445
 11
635.459534
 21
564.343445
  0
TEXT
  8
11
 7
SIMPLEX
 10
640.590637
 20
638.510498
 40
30.7863579
  1
150
 50
0.00000000
  0
LINE
  8
2
 10
625.197449
 20
743.464111
 11
625.197449
 21
1047.74231
  0
INSERT
  8
2
  2
ARROWF
 10
625.197449
 20
743.464111
 41
0.33300000
 42
0.33300000
 43
0.33300000
 50
270.000000
  0
INSERT
  8
2
  2
ARROWF
 10
625.197449
 20
1047.74231
 41
0.33300000
 42
0.33300000
 43
0.33300000
 50
89.9999847
  0
LINE
  8
2
 10
604.673218
 20
1047.74231
 11
635.459534
 21
1047.74231
  0
LINE
  8
2
 10
604.673218
 20
743.464111
 11
635.459534
 21
743.464111
  0
TEXT
  8
11
 7
SIMPLEX
 10
640.590637
 20
880.210205
 40
30.7863579
  1
255
 50
0.00000000
  0
LINE
  8
2
 10
625.197449
 20
1047.74231
 11
625.197449
 21
1226.86292
  0
INSERT
  8
2
  2
ARROWF
 10
625.197449
 20
1047.74231
 41
0.33300000
 42
0.33300000
 43
0.33300000
 50
270.000000
  0
INSERT
  8
2
  2
ARROWF
 10
625.197449
 20
1226.86292
 41
0.33300000
 42
0.33300000
 43
0.33300000
 50
89.9999847
  0
LINE
  8
2
 10
604.673218
 20
1226.86292
 11
635.459534
 21
1226.86292
  0
LINE
  8
2
 10
604.673218
 20
1047.74231
 11
635.459534
 21
1047.74231
  0
TEXT
  8
11
 7
SIMPLEX
 10
640.590637
 20
1121.90955
 40
30.7863579
  1
150
 50
0.00000000
  0
LINE
  8
2
 10
625.197449
 20
1226.86292
 11
625.197449
 21
1316.42334
  0
INSERT
  8
2
  2
ARROWF
 10
625.197449
 20
1226.86292
 41
0.33300000
 42
0.33300000
 43
0.33300000
 50
270.000000
  0
INSERT
  8
2
  2
ARROWF
 10
625.197449
 20
1316.42334
 41
0.33300000
 42
0.33300000
 43
0.33300000
 50
89.9999847
  0
LINE
  8
2
 10
604.673218
 20
1316.42334
 11
635.459534
 21
1316.42334
  0
LINE
  8
2
 10
604.673218
 20
1226.86292
 11
635.459534
 21
1226.86292
  0
TEXT
  8
11
 7
SIMPLEX
 10
640.590637
 20
1256.25000
 40
30.7863579
  1
75
 50
0.00000000
  0
LINE
  8
2
 10
385.655884
 20
400.522644
 11
495.843323
 21
400.522644
  0
LINE
  8
2
 10
385.655884
 20
421.046875
 11
385.655884
 21
390.260559
  0
LINE
  8
2
 10
495.843323
 20
421.046875
 11
495.843323
 21
390.260559
  0
INSERT
  8
2
  2
ARROWF
 10
385.655884
 20
400.522644
 41
0.33300000
 42
0.33300000
 43
0.33300000
 50
180.000000
  0
INSERT
  8
2
  2
ARROWF
 10
495.843323
 20
400.522644
 41
0.33300000
 42
0.33300000
 43
0.33300000
 50
0.00000000
  0
TEXT
  8
11
 7
SIMPLEX
 10
406.114929
 20
362.039673
 40
30.7863579
  1
100
 50
0.00000000
  0
LINE
  8
2
 10
256.301758
 20
474.783081
 11
256.301758
 21
648.876465
  0
INSERT
  8
2
  2
ARROWF
 10
256.301758
 20
474.783081
 41
0.33300000
 42
0.33300000
 43
0.33300000
 50
270.000000
  0
INSERT
  8
2
  2
ARROWF
 10
256.301758
 20
648.876465
 41
0.33300000
 42
0.33300000
 43
0.33300000
 50
89.9999847
  0
LINE
  8
2
 10
246.039658
 20
648.876465
 11
276.825989
 21
648.876465
  0
LINE
  8
2
 10
246.039658
 20
474.783081
 11
276.825989
 21
474.783081
  0
TEXT
  8
11
 7
SIMPLEX
 10
167.021317
 20
546.436523
 40
30.7863579
  1
146
 72
           2
 11
248.605164
 21
561.829773
 73
           2
 50
   0.000
  0
LINE
  8
2
 10
256.301758
 20
648.876465
 11
256.301758
 21
1140.88501
  0
INSERT
  8
2
  2
ARROWF
 10
256.301758
 20
648.876465
 41
0.33300000
 42
0.33300000
 43
0.33300000
 50
270.000000
  0
INSERT
  8
2
  2
ARROWF
 10
256.301758
 20
1140.88501
 41
0.33300000
 42
0.33300000
 43
0.33300000
 50
89.9999847
  0
LINE
  8
2
 10
246.039658
 20
1140.88501
 11
276.825989
 21
1140.88501
  0
LINE
  8
2
 10
246.039658
 20
648.876465
 11
276.825989
 21
648.876465
  0
TEXT
  8
11
 7
SIMPLEX
 10
217.818817
 20
854.088867
 40
30.7863579
  1
412
 72
           1
 11
248.605164
 21
894.880798
 73
           1
 50
  90.000
  0
LINE
  8
2
 10
256.301758
 20
1140.88501
 11
256.301758
 21
1316.42334
  0
INSERT
  8
2
  2
ARROWF
 10
256.301758
 20
1140.88501
 41
0.33300000
 42
0.33300000
 43
0.33300000
 50
270.000000
  0
INSERT
  8
2
  2
ARROWF
 10
256.301758
 20
1316.42334
 41
0.33300000
 42
0.33300000
 43
0.33300000
 50
89.9999847
  0
LINE
  8
2
 10
246.039658
 20
1316.42334
 11
276.825989
 21
1316.42334
  0
LINE
  8
2
 10
246.039658
 20
1140.88501
 11
276.825989
 21
1140.88501
  0
TEXT
  8
11
 7
SIMPLEX
 10
167.021317
 20
1213.26099
 40
30.7863579
  1
147
 72
           2
 11
248.605164
 21
1228.65417
 73
           2
 50
   0.000
  0
LINE
  8
2
 10
135.581909
 20
474.783081
 11
166.368271
 21
474.783081
  0
LINE
  8
2
 10
135.581909
 20
1316.42334
 11
166.368271
 21
1316.42334
  0
LINE
  8
2
 10
145.844025
 20
474.783081
 11
145.844025
 21
1316.42334
  0
INSERT
  8
2
  2
ARROWF
 10
145.844025
 20
474.783081
 41
0.33300000
 42
0.33300000
 43
0.33300000
 50
270.000000
  0
INSERT
  8
2
  2
ARROWF
 10
145.844025
 20
1316.42334
 41
0.33300000
 42
0.33300000
 43
0.33300000
 50
90.0000000
  0
TEXT
  8
11
 7
SIMPLEX
 10
138.147446
 20
860.968567
 40
30.7863579
  1
705
 50
90.0000000
  0
LINE
  8
2
 10
330.562195
 20
1390.68372
 11
550.937012
 21
1390.68372
  0
LINE
  8
2
 10
330.562195
 20
1400.94592
 11
330.562195
 21
1370.15930
  0
LINE
  8
2
 10
550.937012
 20
1400.94592
 11
550.937012
 21
1370.15930
  0
INSERT
  8
2
  2
ARROWF
 10
330.562195
 20
1390.68372
 41
0.33300000
 42
0.33300000
 43
0.33300000
 50
180.000000
  0
INSERT
  8
2
  2
ARROWF
 10
550.937012
 20
1390.68372
 41
0.33300000
 42
0.33300000
 43
0.33300000
 50
0.00000000
  0
TEXT
  8
11
 7
SIMPLEX
 10
406.114929
 20
1398.38037
 40
30.7863579
  1
200
 50
0.00000000
  0
LINE
  8
0
 10
358.109009
 20
648.876404
 11
523.390137
 21
648.876404
  0
LINE
  8
0
 10
358.109009
 20
676.864014
 11
523.390137
 21
676.864014
  0
LINE
  8
0
 10
358.109009
 20
648.876404
 11
358.109009
 21
676.864014
  0
LINE
  8
0
 10
523.390137
 20
648.876404
 11
523.390137
 21
676.864014
  0
LINE
  8
0
 10
358.109009
 20
1140.88513
 11
523.390137
 21
1140.88513
  0
LINE
  8
0
 10
358.109009
 20
1112.89746
 11
523.390137
 21
1112.89746
  0
LINE
  8
0
 10
358.109009
 20
1140.88513
 11
358.109009
 21
1112.89746
  0
LINE
  8
0
 10
523.390137
 20
1140.88513
 11
523.390137
 21
1112.89746
  0
LINE
  8
0
 10
454.743439
 20
676.864014
 11
454.743439
 21
1112.89746
  0
LINE
  8
0
 10
426.755768
 20
676.864014
 11
426.755768
 21
1112.89746
  0
ENDBLK
  8
0
  0
BLOCK
  8
0
  2
EPBLK4
 70
     0
 10
0.00000000
 20
0.00000000
  0
LINE
  8
0
 10
0.00000000
 20
0.00000000
 11
0.00000000
 21
1791.20630
  0
LINE
  8
0
 10
0.00000000
 20
1791.20630
 11
881.499207
 21
1791.20630
  0
LINE
  8
0
 10
0.00000000
 20
0.00000000
 11
881.499207
 21
0.00000000
  0
LINE
  8
0
 10
881.499207
 20
1791.20630
 11
881.499207
 21
0.00000000
  0
TEXT
  8
11
 7
SIMPLEX
 10
15.3931790
 20
1745.02673
 40
30.7863579
  1
Bolt Dia=
 50
0.00000000
  0
TEXT
  8
11
 7
SIMPLEX
 10
15.3931790
 20
1706.54382
 40
30.7863579
  1
Plate Thk=
 50
0.00000000
  0
TEXT
  8
11
 7
SIMPLEX
 10
324.526764
 20
1745.02673
 40
30.7863579
  1
20
 50
0.00000000
  0
TEXT
  8
11
 7
SIMPLEX
 10
324.526764
 20
1706.54382
 40
30.7863579
  1
16
 50
0.00000000
  0
TEXT
  8
11
 7
SIMPLEX
 10
30.7863579
 20
15.3931790
 40
30.7863579
  1
BP2
 50
0.00000000
  0
LINE
  8
0
 10
330.562195
 20
519.449890
 11
330.562195
 21
1271.75647
  0
LINE
  8
0
 10
330.562195
 20
1271.75647
 11
550.937012
 21
1271.75647
  0
LINE
  8
0
 10
550.937012
 20
1271.75647
 11
550.937012
 21
519.449890
  0
LINE
  8
0
 10
330.562195
 20
519.449890
 11
550.937012
 21
519.449890
  0
CIRCLE
  8
0
 10
385.655884
 20
979.192810
 40
7.69658992
  0
CIRCLE
  8
0
 10
495.843262
 20
979.192810
 40
7.69658992
  0
CIRCLE
  8
0
 10
385.655884
 20
812.013550
 40
7.69658992
  0
CIRCLE
  8
0
 10
495.843262
 20
812.013550
 40
7.69658992
  0
LINE
  8
2
 10
625.197449
 20
519.449890
 11
625.197449
 21
812.013550
  0
INSERT
  8
2
  2
ARROWF
 10
625.197449
 20
519.449890
 41
0.33300000
 42
0.33300000
 43
0.33300000
 50
270.000000
  0
INSERT
  8
2
  2
ARROWF
 10
625.197449
 20
812.013550
 41
0.33300000
 42
0.33300000
 43
0.33300000
 50
89.9999847
  0
LINE
  8
2
 10
604.673218
 20
812.013550
 11
635.459534
 21
812.013550
  0
LINE
  8
2
 10
604.673218
 20
519.449890
 11
635.459534
 21
519.449890
  0
TEXT
  8
11
 7
SIMPLEX
 10
640.590637
 20
650.338562
 40
30.7863579
  1
175
 50
0.00000000
  0
LINE
  8
2
 10
625.197449
 20
812.013550
 11
625.197449
 21
979.192810
  0
INSERT
  8
2
  2
ARROWF
 10
625.197449
 20
812.013550
 41
0.33300000
 42
0.33300000
 43
0.33300000
 50
270.000000
  0
INSERT
  8
2
  2
ARROWF
 10
625.197449
 20
979.192810
 41
0.33300000
 42
0.33300000
 43
0.33300000
 50
89.9999847
  0
LINE
  8
2
 10
604.673218
 20
979.192810
 11
635.459534
 21
979.192810
  0
LINE
  8
2
 10
604.673218
 20
812.013550
 11
635.459534
 21
812.013550
  0
TEXT
  8
11
 7
SIMPLEX
 10
640.590637
 20
880.210022
 40
30.7863579
  1
100
 50
0.00000000
  0
LINE
  8
2
 10
625.197449
 20
979.192810
 11
625.197449
 21
1271.75647
  0
INSERT
  8
2
  2
ARROWF
 10
625.197449
 20
979.192810
 41
0.33300000
 42
0.33300000
 43
0.33300000
 50
270.000000
  0
INSERT
  8
2
  2
ARROWF
 10
625.197449
 20
1271.75647
 41
0.33300000
 42
0.33300000
 43
0.33300000
 50
89.9999847
  0
LINE
  8
2
 10
604.673218
 20
1271.75647
 11
635.459534
 21
1271.75647
  0
LINE
  8
2
 10
604.673218
 20
979.192810
 11
635.459534
 21
979.192810
  0
TEXT
  8
11
 7
SIMPLEX
 10
640.590637
 20
1110.08154
 40
30.7863579
  1
175
 50
0.00000000
  0
LINE
  8
2
 10
385.655884
 20
445.189423
 11
495.843323
 21
445.189423
  0
LINE
  8
2
 10
385.655884
 20
465.713684
 11
385.655884
 21
434.927307
  0
LINE
  8
2
 10
495.843323
 20
465.713684
 11
495.843323
 21
434.927307
  0
INSERT
  8
2
  2
ARROWF
 10
385.655884
 20
445.189423
 41
0.33300000
 42
0.33300000
 43
0.33300000
 50
180.000000
  0
INSERT
  8
2
  2
ARROWF
 10
495.843323
 20
445.189423
 41
0.33300000
 42
0.33300000
 43
0.33300000
 50
0.00000000
  0
TEXT
  8
11
 7
SIMPLEX
 10
406.114929
 20
406.706543
 40
30.7863579
  1
100
 50
0.00000000
  0
LINE
  8
2
 10
256.301758
 20
457.938721
 11
256.301758
 21
519.449890
  0
LINE
  8
2
 10
256.301758
 20
561.244629
 11
256.301788
 21
622.755798
  0
INSERT
  8
2
  2
ARROWF
 10
256.301758
 20
519.449890
 41
0.33300000
 42
0.33300000
 43
0.33300000
 50
450.000000
  0
INSERT
  8
2
  2
ARROWF
 10
256.301758
 20
561.244629
 41
0.33300000
 42
0.33300000
 43
0.33300000
 50
270.000000
  0
LINE
  8
2
 10
246.039658
 20
561.244629
 11
276.825989
 21
561.244629
  0
LINE
  8
2
 10
246.039658
 20
519.449890
 11
276.825989
 21
519.449890
  0
TEXT
  8
11
 7
SIMPLEX
 10
187.032455
 20
524.954041
 40
30.7863579
  1
25
 72
           2
 11
248.605164
 21
540.347229
 73
           2
 50
   0.000
  0
LINE
  8
2
 10
256.301758
 20
561.244629
 11
256.301758
 21
1246.67957
  0
INSERT
  8
2
  2
ARROWF
 10
256.301758
 20
561.244629
 41
0.33300000
 42
0.33300000
 43
0.33300000
 50
270.000000
  0
INSERT
  8
2
  2
ARROWF
 10
256.301758
 20
1246.67957
 41
0.33300000
 42
0.33300000
 43
0.33300000
 50
89.9999847
  0
LINE
  8
2
 10
246.039658
 20
1246.67957
 11
276.825989
 21
1246.67957
  0
LINE
  8
2
 10
246.039658
 20
561.244629
 11
276.825989
 21
561.244629
  0
TEXT
  8
11
 7
SIMPLEX
 10
217.818817
 20
863.170288
 40
30.7863579
  1
410
 72
           1
 11
248.605164
 21
903.962158
 73
           1
 50
  90.000
  0
LINE
  8
2
 10
256.301758
 20
1185.16846
 11
256.301758
 21
1246.67957
  0
LINE
  8
2
 10
256.301758
 20
1271.75647
 11
256.301788
 21
1333.26758
  0
INSERT
  8
2
  2
ARROWF
 10
256.301758
 20
1246.67957
 41
0.33300000
 42
0.33300000
 43
0.33300000
 50
450.000000
  0
INSERT
  8
2
  2
ARROWF
 10
256.301758
 20
1271.75647
 41
0.33300000
 42
0.33300000
 43
0.33300000
 50
270.000000
  0
LINE
  8
2
 10
246.039658
 20
1271.75647
 11
276.825989
 21
1271.75647
  0
LINE
  8
2
 10
246.039658
 20
1246.67957
 11
276.825989
 21
1246.67957
  0
TEXT
  8
11
 7
SIMPLEX
 10
197.807678
 20
1243.82495
 40
30.7863579
  1
15
 72
           2
 11
248.605164
 21
1259.21814
 73
           2
 50
   0.000
  0
LINE
  8
2
 10
135.581909
 20
519.449890
 11
166.368271
 21
519.449890
  0
LINE
  8
2
 10
135.581909
 20
1271.75647
 11
166.368271
 21
1271.75647
  0
LINE
  8
2
 10
145.844025
 20
519.449890
 11
145.844025
 21
1271.75647
  0
INSERT
  8
2
  2
ARROWF
 10
145.844025
 20
519.449890
 41
0.33300000
 42
0.33300000
 43
0.33300000
 50
270.000000
  0
INSERT
  8
2
  2
ARROWF
 10
145.844025
 20
1271.75647
 41
0.33300000
 42
0.33300000
 43
0.33300000
 50
90.0000000
  0
TEXT
  8
11
 7
SIMPLEX
 10
138.147446
 20
860.968567
 40
30.7863579
  1
450
 50
90.0000000
  0
LINE
  8
2
 10
330.562195
 20
1346.01685
 11
550.937012
 21
1346.01685
  0
LINE
  8
2
 10
330.562195
 20
1356.27905
 11
330.562195
 21
1325.49268
  0
LINE
  8
2
 10
550.937012
 20
1356.27905
 11
550.937012
 21
1325.49268
  0
INSERT
  8
2
  2
ARROWF
 10
330.562195
 20
1346.01685
 41
0.33300000
 42
0.33300000
 43
0.33300000
 50
180.000000
  0
INSERT
  8
2
  2
ARROWF
 10
550.937012
 20
1346.01685
 41
0.33300000
 42
0.33300000
 43
0.33300000
 50
0.00000000
  0
TEXT
  8
11
 7
SIMPLEX
 10
406.114929
 20
1353.71350
 40
30.7863579
  1
200
 50
0.00000000
  0
LINE
  8
0
 10
358.109009
 20
561.244629
 11
523.390137
 21
561.244629
  0
LINE
  8
0
 10
358.109009
 20
589.232239
 11
523.390137
 21
589.232239
  0
LINE
  8
0
 10
358.109009
 20
561.244629
 11
358.109009
 21
589.232239
  0
LINE
  8
0
 10
523.390137
 20
561.244629
 11
523.390137
 21
589.232239
  0
LINE
  8
0
 10
358.109009
 20
1246.67957
 11
523.390137
 21
1246.67957
  0
LINE
  8
0
 10
358.109009
 20
1218.69202
 11
523.390137
 21
1218.69202
  0
LINE
  8
0
 10
358.109009
 20
1246.67957
 11
358.109009
 21
1218.69202
  0
LINE
  8
0
 10
523.390137
 20
1246.67957
 11
523.390137
 21
1218.69202
  0
LINE
  8
0
 10
454.743439
 20
589.232239
 11
454.743439
 21
1218.69202
  0
LINE
  8
0
 10
426.755768
 20
589.232239
 11
426.755768
 21
1218.69202
  0
ENDBLK
  8
0
  0
BLOCK
  8
0
  2
EPBLK5
 70
     0
 10
0.00000000
 20
0.00000000
  0
LINE
  8
0
 10
0.00000000
 20
0.00000000
 11
0.00000000
 21
1791.20630
  0
LINE
  8
0
 10
0.00000000
 20
1791.20630
 11
881.499207
 21
1791.20630
  0
LINE
  8
0
 10
0.00000000
 20
0.00000000
 11
881.499207
 21
0.00000000
  0
LINE
  8
0
 10
881.499207
 20
1791.20630
 11
881.499207
 21
0.00000000
  0
TEXT
  8
11
 7
SIMPLEX
 10
15.3931790
 20
1745.02673
 40
30.7863579
  1
Bolt Dia=
 50
0.00000000
  0
TEXT
  8
11
 7
SIMPLEX
 10
15.3931790
 20
1706.54382
 40
30.7863579
  1
Plate Thk=
 50
0.00000000
  0
TEXT
  8
11
 7
SIMPLEX
 10
324.526764
 20
1745.02673
 40
30.7863579
  1
20
 50
0.00000000
  0
TEXT
  8
11
 7
SIMPLEX
 10
324.526764
 20
1706.54382
 40
30.7863579
  1
16
 50
0.00000000
  0
TEXT
  8
11
 7
SIMPLEX
 10
30.7863579
 20
15.3931790
 40
30.7863579
  1
CP-1
 50
0.00000000
  0
LINE
  8
0
 10
330.562195
 20
519.449890
 11
330.562195
 21
1271.75647
  0
LINE
  8
0
 10
330.562195
 20
1271.75647
 11
550.937012
 21
1271.75647
  0
LINE
  8
0
 10
550.937012
 20
1271.75647
 11
550.937012
 21
519.449890
  0
LINE
  8
0
 10
330.562195
 20
519.449890
 11
550.937012
 21
519.449890
  0
CIRCLE
  8
0
 10
385.655884
 20
959.824524
 40
7.69658992
  0
CIRCLE
  8
0
 10
495.843262
 20
959.824524
 40
7.69658992
  0
CIRCLE
  8
0
 10
385.655884
 20
831.381897
 40
7.69658992
  0
CIRCLE
  8
0
 10
495.843262
 20
831.381897
 40
7.69658992
  0
LINE
  8
2
 10
625.197449
 20
519.449890
 11
625.197449
 21
831.381897
  0
INSERT
  8
2
  2
ARROWF
 10
625.197449
 20
519.449890
 41
0.33300000
 42
0.33300000
 43
0.33300000
 50
270.000000
  0
INSERT
  8
2
  2
ARROWF
 10
625.197449
 20
831.381897
 41
0.33300000
 42
0.33300000
 43
0.33300000
 50
89.9999847
  0
LINE
  8
2
 10
604.673218
 20
831.381897
 11
635.459534
 21
831.381897
  0
LINE
  8
2
 10
604.673218
 20
519.449890
 11
635.459534
 21
519.449890
  0
TEXT
  8
11
 7
SIMPLEX
 10
640.590637
 20
660.022705
 40
30.7863579
  1
170
 50
0.00000000
  0
LINE
  8
2
 10
625.197449
 20
831.381897
 11
625.197449
 21
959.824524
  0
INSERT
  8
2
  2
ARROWF
 10
625.197449
 20
831.381897
 41
0.33300000
 42
0.33300000
 43
0.33300000
 50
270.000000
  0
INSERT
  8
2
  2
ARROWF
 10
625.197449
 20
959.824524
 41
0.33300000
 42
0.33300000
 43
0.33300000
 50
89.9999847
  0
LINE
  8
2
 10
604.673218
 20
959.824524
 11
635.459534
 21
959.824524
  0
LINE
  8
2
 10
604.673218
 20
831.381897
 11
635.459534
 21
831.381897
  0
TEXT
  8
11
 7
SIMPLEX
 10
640.590637
 20
880.210205
 40
30.7863579
  1
70
 50
0.00000000
  0
LINE
  8
2
 10
625.197449
 20
959.824524
 11
625.197449
 21
1271.75647
  0
INSERT
  8
2
  2
ARROWF
 10
625.197449
 20
959.824524
 41
0.33300000
 42
0.33300000
 43
0.33300000
 50
270.000000
  0
INSERT
  8
2
  2
ARROWF
 10
625.197449
 20
1271.75647
 41
0.33300000
 42
0.33300000
 43
0.33300000
 50
89.9999847
  0
LINE
  8
2
 10
604.673218
 20
1271.75647
 11
635.459534
 21
1271.75647
  0
LINE
  8
2
 10
604.673218
 20
959.824524
 11
635.459534
 21
959.824524
  0
TEXT
  8
11
 7
SIMPLEX
 10
640.590637
 20
1100.39734
 40
30.7863579
  1
170
 50
0.00000000
  0
LINE
  8
2
 10
385.655884
 20
445.189423
 11
495.843323
 21
445.189423
  0
LINE
  8
2
 10
385.655884
 20
465.713684
 11
385.655884
 21
434.927307
  0
LINE
  8
2
 10
495.843323
 20
465.713684
 11
495.843323
 21
434.927307
  0
INSERT
  8
2
  2
ARROWF
 10
385.655884
 20
445.189423
 41
0.33300000
 42
0.33300000
 43
0.33300000
 50
180.000000
  0
INSERT
  8
2
  2
ARROWF
 10
495.843323
 20
445.189423
 41
0.33300000
 42
0.33300000
 43
0.33300000
 50
0.00000000
  0
TEXT
  8
11
 7
SIMPLEX
 10
406.114929
 20
406.706543
 40
30.7863579
  1
100
 50
0.00000000
  0
LINE
  8
2
 10
135.581909
 20
519.449890
 11
166.368271
 21
519.449890
  0
LINE
  8
2
 10
135.581909
 20
1271.75647
 11
166.368271
 21
1271.75647
  0
LINE
  8
2
 10
145.844025
 20
519.449890
 11
145.844025
 21
1271.75647
  0
INSERT
  8
2
  2
ARROWF
 10
145.844025
 20
519.449890
 41
0.33300000
 42
0.33300000
 43
0.33300000
 50
270.000000
  0
INSERT
  8
2
  2
ARROWF
 10
145.844025
 20
1271.75647
 41
0.33300000
 42
0.33300000
 43
0.33300000
 50
90.0000000
  0
TEXT
  8
11
 7
SIMPLEX
 10
138.147446
 20
860.968567
 40
30.7863579
  1
410
 50
90.0000000
  0
LINE
  8
2
 10
330.562195
 20
1346.01685
 11
550.937012
 21
1346.01685
  0
LINE
  8
2
 10
330.562195
 20
1356.27905
 11
330.562195
 21
1325.49268
  0
LINE
  8
2
 10
550.937012
 20
1356.27905
 11
550.937012
 21
1325.49268
  0
INSERT
  8
2
  2
ARROWF
 10
330.562195
 20
1346.01685
 41
0.33300000
 42
0.33300000
 43
0.33300000
 50
180.000000
  0
INSERT
  8
2
  2
ARROWF
 10
550.937012
 20
1346.01685
 41
0.33300000
 42
0.33300000
 43
0.33300000
 50
0.00000000
  0
TEXT
  8
11
 7
SIMPLEX
 10
406.114929
 20
1353.71350
 40
30.7863579
  1
200
 50
0.00000000
  0
LINE
  8
0
 10
358.109009
 20
529.541809
 11
523.390137
 21
529.541809
  0
LINE
  8
0
 10
358.109009
 20
557.529358
 11
523.390137
 21
557.529358
  0
LINE
  8
0
 10
358.109009
 20
529.541809
 11
358.109009
 21
557.529358
  0
LINE
  8
0
 10
523.390137
 20
529.541809
 11
523.390137
 21
557.529358
  0
LINE
  8
0
 10
358.109009
 20
1271.75647
 11
523.390137
 21
1271.75647
  0
LINE
  8
0
 10
358.109009
 20
1243.76880
 11
523.390137
 21
1243.76880
  0
LINE
  8
0
 10
358.109009
 20
1271.75647
 11
358.109009
 21
1243.76880
  0
LINE
  8
0
 10
523.390137
 20
1271.75647
 11
523.390137
 21
1243.76880
  0
LINE
  8
0
 10
454.743439
 20
557.529358
 11
454.743439
 21
1243.76880
  0
LINE
  8
0
 10
426.755768
 20
557.529358
 11
426.755768
 21
1243.76880
  0
ENDBLK
  8
0
  0
BLOCK
  8
1
  2
RF1TBL
 70
     0
 10
0.00000000
 20
0.00000000
  0
TEXT
  8
14
 7
SIMPLEX
 10
-10221.071
 20
-153.93179
 40
123.145439
  1
MEMBER TABLE
 50
0.00000000
  0
TEXT
  8
14
 7
SIMPLEX
 10
-10221.071
 20
-461.79535
 40
123.145439
  1
Mark
 50
0.00000000
  0
TEXT
  8
14
 7
SIMPLEX
 10
-9297.4805
 20
-338.64993
 40
123.145439
  1
Web Depth
 50
0.00000000
  0
TEXT
  8
14
 7
SIMPLEX
 10
-9235.9082
 20
-523.36810
 40
123.145439
  1
Start/End
 50
0.00000000
  0
TEXT
  8
14
 7
SIMPLEX
 10
-7881.3081
 20
-338.64993
 40
123.145439
  1
Web Plate
 50
0.00000000
  0
TEXT
  8
14
 7
SIMPLEX
 10
-8004.4546
 20
-523.36810
 40
123.145439
  1
Thick
 50
0.00000000
  0
TEXT
  8
14
 7
SIMPLEX
 10
-7327.1543
 20
-523.36810
 40
123.145439
  1
Length
 50
0.00000000
  0
TEXT
  8
14
 7
SIMPLEX
 10
-5787.8359
 20
-338.64993
 40
123.145439
  1
Outside Flange
 50
0.00000000
  0
TEXT
  8
14
 7
SIMPLEX
 10
-5787.8359
 20
-523.36810
 40
123.145439
  1
W x Thk x Length
 50
0.00000000
  0
TEXT
  8
14
 7
SIMPLEX
 10
-2832.3455
 20
-338.64993
 40
123.145439
  1
Inside Flange
 50
0.00000000
  0
TEXT
  8
14
 7
SIMPLEX
 10
-2832.3455
 20
-523.36810
 40
123.145439
  1
W x Thk x Length
 50
0.00000000
  0
TEXT
  8
26
 7
SIMPLEX
 10
-10221.071
 20
-708.08630
 40
123.145439
  1
 CL1-1
 50
0.00000000
  0
TEXT
  8
26
 7
SIMPLEX
 10
-9235.9072
 20
-708.08630
 40
123.145439
  1
 400/ 700
 50
0.00000000
  0
TEXT
  8
26
 7
SIMPLEX
 10
-8066.0264
 20
-708.08630
 40
123.145439
  1
    5
 50
0.00000000
  0
TEXT
  8
26
 7
SIMPLEX
 10
-7327.1538
 20
-708.08630
 40
123.145439
  1
 4000
 50
0.00000000
  0
TEXT
  8
26
 7
SIMPLEX
 10
-9235.9072
 20
-892.80438
 40
123.145439
  1
 700/ 700
 50
0.00000000
  0
TEXT
  8
26
 7
SIMPLEX
 10
-8066.0264
 20
-892.80438
 40
123.145439
  1
    5
 50
0.00000000
  0
TEXT
  8
26
 7
SIMPLEX
 10
-7327.1538
 20
-892.80438
 40
123.145439
  1
 3918
 50
0.00000000
  0
TEXT
  8
26
 7
SIMPLEX
 10
-5726.2627
 20
-708.08630
 40
123.145439
  1
150 x 6 x 7918
 50
0.00000000
  0
TEXT
  8
26
 7
SIMPLEX
 10
-2770.7722
 20
-708.08630
 40
123.145439
  1
150 x 6 x 4011
 50
0.00000000
  0
TEXT
  8
26
 7
SIMPLEX
 10
-2770.7722
 20
-892.80438
 40
123.145439
  1
150 x 6 x 3918
 50
0.00000000
  0
TEXT
  8
26
 7
SIMPLEX
 10
-2770.7722
 20
-1077.5226
 40
123.145439
  1
125 x 5 x 3685
 50
0.00000000
  0
TEXT
  8
26
 7
SIMPLEX
 10
-5726.2627
 20
-1077.5226
 40
123.145439
  1
125 x 5 x 322
 50
0.00000000
  0
TEXT
  8
26
 7
SIMPLEX
 10
-5726.2627
 20
-1262.2407
 40
123.145439
  1
125 x 5 x 4677
 50
0.00000000
  0
TEXT
  8
26
 7
SIMPLEX
 10
-10221.071
 20
-1077.5226
 40
123.145439
  1
 RF1-2
 50
0.00000000
  0
TEXT
  8
26
 7
SIMPLEX
 10
-9235.9072
 20
-1077.5226
 40
123.145439
  1
 401/ 300
 50
0.00000000
  0
TEXT
  8
26
 7
SIMPLEX
 10
-8066.0264
 20
-1077.5226
 40
123.145439
  1
    4
 50
0.00000000
  0
TEXT
  8
26
 7
SIMPLEX
 10
-7327.1538
 20
-1077.5226
 40
123.145439
  1
 4483
 50
0.00000000
  0
TEXT
  8
26
 7
SIMPLEX
 10
-2770.7722
 20
-1446.9589
 40
123.145439
  1
125 x 5 x 4000
 50
0.00000000
  0
TEXT
  8
26
 7
SIMPLEX
 10
-5726.2627
 20
-1446.9589
 40
123.145439
  1
125 x 5 x 4000
 50
0.00000000
  0
TEXT
  8
26
 7
SIMPLEX
 10
-10221.071
 20
-1446.9589
 40
123.145439
  1
 RF1-3
 50
0.00000000
  0
TEXT
  8
26
 7
SIMPLEX
 10
-9235.9072
 20
-1446.9589
 40
123.145439
  1
 300/ 300
 50
0.00000000
  0
TEXT
  8
26
 7
SIMPLEX
 10
-8066.0264
 20
-1446.9589
 40
123.145439
  1
    4
 50
0.00000000
  0
TEXT
  8
26
 7
SIMPLEX
 10
-7327.1538
 20
-1446.9589
 40
123.145439
  1
 4000
 50
0.00000000
  0
TEXT
  8
26
 7
SIMPLEX
 10
-10221.071
 20
-1631.6771
 40
123.145439
  1
 RF1-4
 50
0.00000000
  0
TEXT
  8
26
 7
SIMPLEX
 10
-9235.9072
 20
-1631.6771
 40
123.145439
  1
 302/ 553
 50
0.00000000
  0
TEXT
  8
26
 7
SIMPLEX
 10
-8066.0264
 20
-1631.6771
 40
123.145439
  1
    4
 50
0.00000000
  0
TEXT
  8
26
 7
SIMPLEX
 10
-7327.1538
 20
-1631.6771
 40
123.145439
  1
 5053
 50
0.00000000
  0
TEXT
  8
26
 7
SIMPLEX
 10
-5726.2627
 20
-1631.6771
 40
123.145439
  1
150 x 5 x 2539
 50
0.00000000
  0
TEXT
  8
26
 7
SIMPLEX
 10
-5726.2627
 20
-1816.3951
 40
123.145439
  1
150 x 5 x 2539
 50
0.00000000
  0
TEXT
  8
26
 7
SIMPLEX
 10
-2770.7722
 20
-1631.6771
 40
123.145439
  1
150 x 5 x 4992
 50
0.00000000
  0
TEXT
  8
26
 7
SIMPLEX
 10
-2770.7722
 20
-2001.1132
 40
123.145439
  1
150 x 6 x 3918
 50
0.00000000
  0
TEXT
  8
26
 7
SIMPLEX
 10
-2770.7722
 20
-2185.8315
 40
123.145439
  1
150 x 6 x 4011
 50
0.00000000
  0
TEXT
  8
26
 7
SIMPLEX
 10
-5726.2627
 20
-2001.1132
 40
123.145439
  1
150 x 6 x 7918
 50
0.00000000
  0
TEXT
  8
26
 7
SIMPLEX
 10
-10221.071
 20
-2001.1132
 40
123.145439
  1
 CL1-5
 50
0.00000000
  0
TEXT
  8
26
 7
SIMPLEX
 10
-9235.9072
 20
-2001.1132
 40
123.145439
  1
 700/ 700
 50
0.00000000
  0
TEXT
  8
26
 7
SIMPLEX
 10
-8066.0264
 20
-2001.1132
 40
123.145439
  1
    5
 50
0.00000000
  0
TEXT
  8
26
 7
SIMPLEX
 10
-7327.1538
 20
-2001.1132
 40
123.145439
  1
 3918
 50
0.00000000
  0
TEXT
  8
26
 7
SIMPLEX
 10
-9235.9072
 20
-2185.8315
 40
123.145439
  1
 700/ 400
 50
0.00000000
  0
TEXT
  8
26
 7
SIMPLEX
 10
-8066.0264
 20
-2185.8315
 40
123.145439
  1
    5
 50
0.00000000
  0
TEXT
  8
26
 7
SIMPLEX
 10
-7327.1538
 20
-2185.8315
 40
123.145439
  1
 4000
 50
0.00000000
  0
TEXT
  8
26
 7
SIMPLEX
 10
-10221.071
 20
-2370.5496
 40
123.145439
  1
EC-1
 50
0.00000000
  0
TEXT
  8
26
 7
SIMPLEX
 10
-9235.9072
 20
-2370.5496
 40
123.145439
  1
W40b155
 50
0.00000000
  0
LINE
  8
0
 10
-10344.217
 20
-2401.3359
 11
0.00000000
 21
-2401.3359
  0
LINE
  8
0
 10
-10344.217
 20
0.00000000
 11
-10344.217
 21
-2401.3359
  0
LINE
  8
0
 10
0.00000000
 20
0.00000000
 11
0.00000000
 21
-2401.3359
  0
LINE
  8
0
 10
-10344.217
 20
0.00000000
 11
0.00000000
 21
0.00000000
  0
LINE
  8
0
 10
-10344.217
 20
-2401.3359
 11
0.00000000
 21
-2401.3359
  0
LINE
  8
0
 10
-10344.217
 20
-184.71815
 11
0.00000000
 21
-184.71815
  0
LINE
  8
0
 10
-9359.0537
 20
-184.71815
 11
-9359.0537
 21
-2401.3359
  0
LINE
  8
0
 10
-8127.5991
 20
-184.71815
 11
-8127.5991
 21
-2401.3359
  0
LINE
  8
0
 10
-5849.4087
 20
-184.71815
 11
-5849.4087
 21
-2401.3359
  0
LINE
  8
0
 10
-2893.9182
 20
-184.71815
 11
-2893.9182
 21
-2401.3359
  0
LINE
  8
0
 10
-10344.217
 20
-184.71815
 11
-10344.217
 21
-2401.3359
  0
LINE
  8
0
 10
-10344.217
 20
-184.71815
 11
-10344.217
 21
-2401.3359
  0
LINE
  8
0
 10
-10344.217
 20
-184.71815
 11
-10344.217
 21
-2401.3359
  0
LINE
  8
0
 10
-9359.0537
 20
-369.43631
 11
-5849.4087
 21
-369.43631
  0
LINE
  8
0
 10
-7450.2993
 20
-369.43631
 11
-7450.2993
 21
-2401.3359
  0
LINE
  8
0
 10
-10344.217
 20
-554.15442
 11
0.00000000
 21
-554.15442
  0
ENDBLK
  8
1
  0
BLOCK
  8
1
  2
RF1CPL
 70
     0
 10
0.00000000
 20
11.4299994
  0
LINE
  8
3
 10
0.00000000
 20
11.4299994
 11
80.7719956
 21
11.4299994
  0
LINE
  8
3
 10
0.00000000
 20
8.38199900
 11
80.7719956
 21
8.38199900
  0
LINE
  8
3
 10
0.00000000
 20
3.04799962
 11
80.7719956
 21
3.04799962
  0
LINE
  8
3
 10
0.00000000
 20
-0.0000002
 11
80.7719956
 21
-0.0000002
  0
LINE
  8
3
 10
0.00000000
 20
0.00000000
 11
80.7719956
 21
0.00000000
  0
LINE
  8
3
 10
0.00000000
 20
11.4299994
 11
0.00000000
 21
0.00000000
  0
LINE
  8
3
 10
80.7719956
 20
0.00000000
 11
80.7719956
 21
11.4299994
  0
LINE
  8
3
 10
12.1919994
 20
8.38199900
 11
12.1919994
 21
-0.0000002
  0
LINE
  8
3
 10
47.2439995
 20
8.38199900
 11
47.2439995
 21
-0.0000002
  0
TEXT
  8
1
 7
SIMPLEX
 10
1.52400004
 20
9.14399910
 40
1.52400004
  1
CAP PLATES
 50
0.00000000
  0
TEXT
  8
1
 7
SIMPLEX
 10
1.52400004
 20
6.09599924
 40
1.52400004
  1
Col
 50
0.00000000
  0
TEXT
  8
1
 7
SIMPLEX
 10
1.52400004
 20
3.80999968
 40
1.52400004
  1
Id
 50
0.00000000
  0
TEXT
  8
1
 7
SIMPLEX
 10
13.7159987
 20
3.80999968
 40
1.52400004
  1
Qnt
 50
0.00000000
  0
TEXT
  8
1
 7
SIMPLEX
 10
21.3359985
 20
6.09599924
 40
1.52400004
  1
------Bolt------
 50
0.00000000
  0
TEXT
  8
1
 7
SIMPLEX
 10
21.3359985
 20
3.80999968
 40
1.52400004
  1
Type
 50
0.00000000
  0
TEXT
  8
1
 7
SIMPLEX
 10
30.4799977
 20
3.80999968
 40
1.52400004
  1
Dia
 50
0.00000000
  0
TEXT
  8
1
 7
SIMPLEX
 10
39.6239968
 20
3.80999968
 40
1.52400004
  1
Len
 50
0.00000000
  0
TEXT
  8
1
 7
SIMPLEX
 10
57.9119987
 20
6.09599924
 40
1.52400004
  1
Plate Size
 50
0.00000000
  0
TEXT
  8
1
 7
SIMPLEX
 10
50.2919960
 20
3.80999968
 40
1.52400004
  1
Width
 50
0.00000000
  0
TEXT
  8
1
 7
SIMPLEX
 10
59.4360008
 20
3.80999968
 40
1.52400004
  1
Thick
 50
0.00000000
  0
TEXT
  8
1
 7
SIMPLEX
 10
68.5800019
 20
3.80999968
 40
1.52400004
  1
Length
 50
0.00000000
  0
TEXT
  8
1
 7
SIMPLEX
 10
1.52400004
 20
0.76199984
 40
1.52400004
  1
EC-1
 50
0.00000000
  0
TEXT
  8
1
 7
SIMPLEX
 10
10.6679993
 20
0.76199984
 40
1.52400004
  1
   4
 50
0.00000000
  0
TEXT
  8
1
 7
SIMPLEX
 10
21.3359985
 20
0.76199984
 40
1.52400004
  1
Gr8.8
 50
0.00000000
  0
TEXT
  8
1
 7
SIMPLEX
 10
22.8599987
 20
0.76199984
 40
1.52400004
  1
        20
 50
0.00000000
  0
TEXT
  8
1
 7
SIMPLEX
 10
32.0039978
 20
0.76199984
 40
1.52400004
  1
        90
 50
0.00000000
  0
TEXT
  8
1
 7
SIMPLEX
 10
42.6719971
 20
0.76199984
 40
1.52400004
  1
       200
 50
0.00000000
  0
TEXT
  8
1
 7
SIMPLEX
 10
51.8159981
 20
0.76199984
 40
1.52400004
  1
        16
 50
0.00000000
  0
TEXT
  8
1
 7
SIMPLEX
 10
62.4840012
 20
0.76199984
 40
1.52400004
  1
       410
 50
0.00000000
  0
ENDBLK
  8
1
  0
BLOCK
  8
1
  2
RF1BLT1
 70
     0
 10
0.00000000
 20
22.8599987
  0
LINE
  8
3
 10
0.00000000
 20
22.8599987
 11
134.620010
 21
22.8599987
  0
LINE
  8
3
 10
0.00000000
 20
17.7799988
 11
134.620010
 21
17.7799988
  0
LINE
  8
3
 10
0.00000000
 20
8.88999936
 11
134.620010
 21
8.88999936
  0
LINE
  8
3
 10
0.00000000
 20
0.00000000
 11
134.620010
 21
0.00000000
  0
LINE
  8
3
 10
0.00000000
 20
0.00000000
 11
134.620010
 21
0.00000000
  0
LINE
  8
3
 10
0.00000000
 20
22.8599987
 11
0.00000000
 21
0.00000000
  0
LINE
  8
3
 10
134.620010
 20
0.00000000
 11
134.620010
 21
22.8599987
  0
LINE
  8
3
 10
20.3199997
 20
17.7799988
 11
20.3199997
 21
0.00000000
  0
LINE
  8
3
 10
88.9000015
 20
17.7799988
 11
88.9000015
 21
0.00000000
  0
TEXT
  8
1
 7
SIMPLEX
 10
2.53999996
 20
19.0499992
 40
2.53999996
  1
SPLICE PLATES & BOLTS
 50
0.00000000
  0
TEXT
  8
1
 7
SIMPLEX
 10
2.53999996
 20
13.9699984
 40
2.53999996
  1
Splice
 50
0.00000000
  0
TEXT
  8
1
 7
SIMPLEX
 10
2.53999996
 20
10.1599989
 40
2.53999996
  1
Mark
 50
0.00000000
  0
TEXT
  8
1
 7
SIMPLEX
 10
22.8600006
 20
13.9699984
 40
2.53999996
  1
Quan
 50
0.00000000
  0
TEXT
  8
1
 7
SIMPLEX
 10
21.5900002
 20
10.1599989
 40
2.53999996
  1
Top/Bot/Int
 50
0.00000000
  0
TEXT
  8
1
 7
SIMPLEX
 10
48.2599983
 20
10.1599989
 40
2.53999996
  1
Type
 50
0.00000000
  0
TEXT
  8
1
 7
SIMPLEX
 10
63.5000000
 20
10.1599989
 40
2.53999996
  1
Dia
 50
0.00000000
  0
TEXT
  8
1
 7
SIMPLEX
 10
78.7400055
 20
10.1599989
 40
2.53999996
  1
Len
 50
0.00000000
  0
TEXT
  8
1
 7
SIMPLEX
 10
48.2599983
 20
13.9699984
 40
2.53999996
  1
-----Bolt-----
 50
0.00000000
  0
TEXT
  8
1
 7
SIMPLEX
 10
91.4400025
 20
10.1599989
 40
2.53999996
  1
Wid
 50
0.00000000
  0
TEXT
  8
1
 7
SIMPLEX
 10
105.410004
 20
10.1599989
 40
2.53999996
  1
Thick
 50
0.00000000
  0
TEXT
  8
1
 7
SIMPLEX
 10
119.380005
 20
10.1599989
 40
2.53999996
  1
Length
 50
0.00000000
  0
TEXT
  8
1
 7
SIMPLEX
 10
99.0599976
 20
13.9699984
 40
2.53999996
  1
Plate Size
 50
0.00000000
  0
TEXT
  8
1
 7
SIMPLEX
 10
2.53999996
 20
5.07999945
 40
2.53999996
  1
SP1
 50
0.00000000
  0
TEXT
  8
1
 7
SIMPLEX
 10
22.8600006
 20
5.07999945
 40
2.53999996
  1
   4
 50
0.00000000
  0
TEXT
  8
1
 7
SIMPLEX
 10
31.7500000
 20
5.07999945
 40
2.53999996
  1
   4
 50
0.00000000
  0
TEXT
  8
1
 7
SIMPLEX
 10
40.6399994
 20
5.07999945
 40
2.53999996
  1
   2
 50
0.00000000
  0
TEXT
  8
1
 7
SIMPLEX
 10
48.2599983
 20
5.07999945
 40
2.53999996
  1
Gr8.8
 50
0.00000000
  0
TEXT
  8
1
 7
SIMPLEX
 10
62.2299957
 20
5.07999945
 40
2.53999996
  1
        20
 50
0.00000000
  0
TEXT
  8
1
 7
SIMPLEX
 10
76.1999970
 20
5.07999945
 40
2.53999996
  1
        90
 50
0.00000000
  0
TEXT
  8
1
 7
SIMPLEX
 10
91.4400025
 20
5.07999945
 40
2.53999996
  1
       200
 50
0.00000000
  0
TEXT
  8
1
 7
SIMPLEX
 10
105.410004
 20
5.07999945
 40
2.53999996
  1
        16
 50
0.00000000
  0
TEXT
  8
1
 7
SIMPLEX
 10
119.380005
 20
5.07999945
 40
2.53999996
  1
       900
 50
0.00000000
  0
TEXT
  8
1
 7
SIMPLEX
 10
2.53999996
 20
1.26999950
 40
2.53999996
  1
SP2
 50
0.00000000
  0
TEXT
  8
1
 7
SIMPLEX
 10
22.8600006
 20
1.26999950
 40
2.53999996
  1
   4
 50
0.00000000
  0
TEXT
  8
1
 7
SIMPLEX
 10
31.7500000
 20
1.26999950
 40
2.53999996
  1
   4
 50
0.00000000
  0
TEXT
  8
1
 7
SIMPLEX
 10
40.6399994
 20
1.26999950
 40
2.53999996
  1
   0
 50
0.00000000
  0
TEXT
  8
1
 7
SIMPLEX
 10
48.2599983
 20
1.26999950
 40
2.53999996
  1
Gr8.8
 50
0.00000000
  0
TEXT
  8
1
 7
SIMPLEX
 10
62.2299957
 20
1.26999950
 40
2.53999996
  1
        20
 50
0.00000000
  0
TEXT
  8
1
 7
SIMPLEX
 10
76.1999970
 20
1.26999950
 40
2.53999996
  1
        90
 50
0.00000000
  0
TEXT
  8
1
 7
SIMPLEX
 10
91.4400025
 20
1.26999950
 40
2.53999996
  1
       200
 50
0.00000000
  0
TEXT
  8
1
 7
SIMPLEX
 10
105.410004
 20
1.26999950
 40
2.53999996
  1
        16
 50
0.00000000
  0
TEXT
  8
1
 7
SIMPLEX
 10
119.380005
 20
1.26999950
 40
2.53999996
  1
       500
 50
0.00000000
  0
ENDBLK
  8
1
  0
BLOCK
  8
1
  2
RF1FBR
 70
     0
 10
0.00000000
 20
0.00000000
  0
INSERT
  8
0
  2
MARKER
 10
188.412521
 20
-369.43631
 41
0.80000000
 42
0.80000000
 43
0.80000000
 50
0.00000000
  0
TEXT
  8
14
 7
SIMPLEX
 10
348.501587
 20
-369.43631
 40
123.145439
  1
FLANGE BRACES: FBxx (1 or 2)
 50
0.00000000
  0
TEXT
  8
14
 7
SIMPLEX
 10
348.501587
 20
-554.15442
 40
123.145439
  1
  xx=length(mm)
 50
0.00000000
  0
TEXT
  8
14
 7
SIMPLEX
 10
348.501587
 20
-738.87262
 40
123.145439
  1
  (1) One Side; (2) Two Sides
 50
0.00000000
  0
TEXT
  8
14
 7
SIMPLEX
 10
348.501587
 20
-985.16351
 40
123.145439
  1
A - L40X40X4
 50
0.00000000
  0
ENDBLK
  8
1
  0
ENDSEC
  0
SECTION
  2
ENTITIES
  0
LINE
  8
22
 10
0.00000000
 20
0.00000000
 11
29618.3711
 21
0.00000000
  0
LINE
  8
22
 10
29618.3711
 20
0.00000000
 11
29618.3711
 21
20944.4219
  0
LINE
  8
22
 10
29618.3711
 20
20944.4219
 11
0.00000000
 21
20944.4219
  0
LINE
  8
22
 10
0.00000000
 20
20944.4219
 11
0.00000000
 21
0.00000000
  0
LINE
  8
0
 10
18333.7715
 20
0.00000000
 11
18333.7715
 21
1880.76660
  0
LINE
  8
0
 10
18333.7715
 20
1880.76660
 11
29618.3711
 21
1880.76660
  0
LINE
  8
0
 10
18333.7715
 20
0.00000000
 11
29618.3711
 21
0.00000000
  0
LINE
  8
0
 10
29618.3711
 20
0.00000000
 11
29618.3711
 21
1880.76660
  0
LINE
  8
0
 10
18333.7715
 20
716.482544
 11
29618.3711
 21
716.482544
  0
LINE
  8
0
 10
18333.7715
 20
1074.72375
 11
29618.3711
 21
1074.72375
  0
LINE
  8
0
 10
18333.7715
 20
1432.96509
 11
29618.3711
 21
1432.96509
  0
LINE
  8
0
 10
19945.8574
 20
0.00000000
 11
19945.8574
 21
1432.96509
  0
LINE
  8
0
 10
23976.0703
 20
0.00000000
 11
23976.0703
 21
1432.96509
  0
LINE
  8
0
 10
23976.0703
 20
358.241272
 11
29618.3711
 21
358.241272
  0
LINE
  8
0
 10
25946.3984
 20
1074.72375
 11
25946.3984
 21
716.482544
  0
LINE
  8
0
 10
27737.6055
 20
1074.72375
 11
27737.6055
 21
716.482544
  0
LINE
  8
0
 10
26842.0020
 20
716.482544
 11
26842.0020
 21
358.241272
  0
TEXT
  8
14
 7
SIMPLEX
 10
18512.8906
 20
1164.28406
 40
179.120636
  1
PROJECT
 50
0.00000000
  0
TEXT
  8
14
 7
SIMPLEX
 10
18512.8906
 20
806.042786
 40
179.120636
  1
ID
 50
0.00000000
  0
TEXT
  8
14
 7
SIMPLEX
 10
18512.8906
 20
447.801575
 40
179.120636
  1
PROJECT
 50
0.00000000
  0
TEXT
  8
14
 7
SIMPLEX
 10
18512.8906
 20
89.5603180
 40
179.120636
  1
ADDRESS
 50
0.00000000
  0
TEXT
  8
14
 7
SIMPLEX
 10
20124.9785
 20
1164.28406
 40
179.120636
  1
Proposed Warehouse
 50
0.00000000
  0
TEXT
  8
14
 7
SIMPLEX
 10
20124.9785
 20
806.042786
 40
179.120636
  1
C323-153-Final
 50
0.00000000
  0
TEXT
  8
14
 7
SIMPLEX
 10
20124.9785
 20
447.801575
 40
179.120636
  1
Proposed Warehouse
 50
0.00000000
  0
TEXT
  8
14
 7
SIMPLEX
 10
20124.9785
 20
89.5603180
 40
179.120636
  1
 
 50
0.00000000
  0
TEXT
  8
14
 7
SIMPLEX
 10
22140.0859
 20
1522.52539
 40
268.680939
  1
INFINITI SOLUTION
 50
0.00000000
  0
TEXT
  8
14
 7
SIMPLEX
 10
24155.1914
 20
1164.28406
 40
179.120636
  1
RIGID FRAME ELEVATION
 50
0.00000000
  0
TEXT
  8
14
 7
SIMPLEX
 10
24155.1914
 20
806.042786
 40
179.120636
  1
DESIGN:
 50
0.00000000
  0
TEXT
  8
14
 7
SIMPLEX
 10
24155.1914
 20
447.801575
 40
179.120636
  1
DATE:
 50
0.00000000
  0
TEXT
  8
14
 7
SIMPLEX
 10
25068.7070
 20
447.801575
 40
179.120636
  1
11/AUG/2025
 50
0.00000000
  0
TEXT
  8
14
 7
SIMPLEX
 10
26125.5176
 20
806.042786
 40
179.120636
  1
DRAFT:
 50
0.00000000
  0
TEXT
  8
14
 7
SIMPLEX
 10
27916.7266
 20
806.042786
 40
179.120636
  1
CHECK:
 50
0.00000000
  0
TEXT
  8
14
 7
SIMPLEX
 10
26931.5625
 20
447.801575
 40
179.120636
  1
SHEET
 50
0.00000000
  0
TEXT
  8
14
 7
SIMPLEX
 10
28543.6484
 20
447.801575
 40
179.120636
  1
OF
 50
0.00000000
  0
TEXT
  8
14
 7
SIMPLEX
 10
27827.1641
 20
447.801575
 40
179.120636
  1
 
 50
0.00000000
999
FIELD:@PAGE_ID
  0
TEXT
  8
14
 7
SIMPLEX
 10
28901.8887
 20
447.801575
 40
179.120636
  1
 
 50
0.00000000
999
FIELD:@PAGE_TOTAL
  0
INSERT
  8
0
  2
EPBLK1
 10
0.00000000
 20
0.00000000
 41
2.00000000
 42
2.00000000
 43
2.00000000
 50
0.00000000
  0
INSERT
  8
0
  2
EPBLK2
 10
1762.99841
 20
0.00000000
 41
2.00000000
 42
2.00000000
 43
2.00000000
 50
0.00000000
  0
INSERT
  8
0
  2
EPBLK3
 10
3525.99683
 20
0.00000000
 41
2.00000000
 42
2.00000000
 43
2.00000000
 50
0.00000000
  0
INSERT
  8
0
  2
EPBLK4
 10
5288.99512
 20
0.00000000
 41
2.00000000
 42
2.00000000
 43
2.00000000
 50
0.00000000
  0
INSERT
  8
0
  2
EPBLK5
 10
7051.99365
 20
0.00000000
 41
2.00000000
 42
2.00000000
 43
2.00000000
 50
0.00000000
  0
INSERT
  8
0
  2
FRAME1
 10
3666.54346
 20
5892.66797
 41
1.00000000
 42
1.00000000
 43
1.00000000
 50
0.00000000
  0
INSERT
  8
0
  2
RF1TBL
 10
29618.3711
 20
20944.4219
 41
1.00000000
 42
1.00000000
 43
1.00000000
 50
0.00000000
  0
INSERT
  8
0
  2
RF1CPL
 10
0.00000000
 20
19712.9668
 41
80.8040924
 42
80.8040924
 43
80.8040924
 50
0.00000000
  0
INSERT
  8
0
  2
RF1BLT1
 10
0.00000000
 20
20944.4219
 41
48.4824562
 42
48.4824562
 43
48.4824562
 50
0.00000000
  0
INSERT
  8
0
  2
RF1FBR
 10
0.00000000
 20
18666.2305
 41
1.00000000
 42
1.00000000
 43
1.00000000
 50
0.00000000
  0
ENDSEC
  0
EOF
