  0
SECTION
  2
HEADER
  9
$ACADVER
  1
AC1009
  9
$EXTMIN
 10
  -365.841
 20
  -395.375
  9
$EXTMAX
 10
  3185.159
 20
  2267.875
  9
$LIMMIN
 10
  -365.841
 20
  -395.375
  9
$LIMMAX
 10
  3185.159
 20
  2267.875
  9
$FILLMODE
 70
     1
  9
$HANDLING
 70
     0
  0
ENDSEC
  0
SECTION
  2
TABLES
  0
TABLE
  2
LTYPE
 70
1
  0
LTYPE
  2
CONTIN
 70
    64
  3
SOLID LINE
 72
    65
 73
     0
 40
0.0
  0
LTYPE
  2
CONTINUOUS
 70
    64
  3
SOLID LINE
 72
    65
 73
     0
 40
0.0
  0
LTYPE
  2
CENTER
 70
    64
  3
____ _ ____ _ ____ _ ____ _ ____ _ ____ _ ____
 72
    65
 73
     4
 40
   116.278
 49
    72.674
 49
   -14.535
 49
    14.535
 49
   -14.535
  0
LTYPE
  2
DASHED
 70
    64
  3
__ __ __ __ __ __ __ __ __ __ __ __ __ __ __ 
 72
    65
 73
     2
 40
    42.61
 49
    28.40
 49
   -14.20
  0
ENDTAB
  0
TABLE
  2
LAYER
 70
30
  0
LAYER
  2
0
 70
     0
 62
     7
  6
CONTIN
  0
LAYER
  2
1
 70
     0
 62
     7
  6
CONTIN
  0
LAYER
  2
2
 70
     0
 62
     7
  6
CONTIN
  0
LAYER
  2
3
 70
     0
 62
     7
  6
CONTIN
  0
LAYER
  2
4
 70
     0
 62
     5
  6
CONTIN
  0
LAYER
  2
5
 70
     0
 62
     5
  6
DASHED
  0
LAYER
  2
6
 70
     0
 62
     5
  6
DASHED
  0
LAYER
  2
7
 70
     0
 62
     5
  6
CONTIN
  0
LAYER
  2
8
 70
     0
 62
     5
  6
DASHED
  0
LAYER
  2
9
 70
     0
 62
     7
  6
CONTIN
  0
LAYER
  2
10
 70
     0
 62
     7
  6
CONTIN
  0
LAYER
  2
11
 70
     0
 62
     6
  6
DASHED
  0
LAYER
  2
12
 70
     0
 62
     7
  6
DASHED
  0
LAYER
  2
13
 70
     0
 62
     5
  6
DASHED
  0
LAYER
  2
14
 70
     0
 62
     7
  6
CONTIN
  0
LAYER
  2
15
 70
     0
 62
     5
  6
CONTIN
  0
LAYER
  2
16
 70
     0
 62
     7
  6
CONTIN
  0
LAYER
  2
17
 70
     0
 62
     7
  6
CONTIN
  0
LAYER
  2
18
 70
     0
 62
     7
  6
CONTIN
  0
LAYER
  2
19
 70
     0
 62
     7
  6
CONTIN
  0
LAYER
  2
20
 70
     0
 62
     1
  6
CONTIN
  0
LAYER
  2
21
 70
     0
 62
     7
  6
CONTIN
  0
LAYER
  2
22
 70
     0
 62
     7
  6
DASHED
  0
LAYER
  2
23
 70
     0
 62
     7
  6
DASHED
  0
LAYER
  2
24
 70
     0
 62
     7
  6
CONTIN
  0
LAYER
  2
25
 70
     0
 62
     7
  6
CONTIN
  0
LAYER
  2
26
 70
     0
 62
     7
  6
CONTIN
  0
LAYER
  2
27
 70
     0
 62
     1
  6
CENTER
  0
LAYER
  2
28
 70
     0
 62
     7
  6
CONTIN
  0
LAYER
  2
29
 70
     0
 62
     3
  6
DASHED
  0
ENDTAB
  0
TABLE
  2
STYLE
 70
  0
  0
ENDTAB
  0
ENDSEC
  0
SECTION
  2
ENTITIES
  0
LINE
  8
22
 10
     0.000
 20
   936.250
 11
  3023.750
 21
   936.250
  0
LINE
  8
23
 10
     0.000
 20
     0.000
 11
     0.000
 21
  1872.500
  0
LINE
  8
23
 10
   516.667
 20
     0.000
 11
   516.667
 21
  1872.500
  0
LINE
  8
23
 10
  1015.833
 20
     0.000
 11
  1015.833
 21
  1872.500
  0
LINE
  8
23
 10
  1527.917
 20
     0.000
 11
  1527.917
 21
  1872.500
  0
LINE
  8
23
 10
  2002.917
 20
     0.000
 11
  2002.917
 21
  1872.500
  0
LINE
  8
23
 10
  2502.917
 20
     0.000
 11
  2502.917
 21
  1872.500
  0
LINE
  8
23
 10
  3023.750
 20
     0.000
 11
  3023.750
 21
  1872.500
  0
LINE
  8
22
 10
  -134.265
 20
  1872.500
 11
   -40.640
 21
   936.250
  0
LINE
  8
22
 10
   -40.640
 20
   936.250
 11
  -134.265
 21
     0.000
  0
LINE
  8
22
 10
  -204.432
 20
  1872.500
 11
  -134.265
 21
  1872.500
  0
LINE
  8
22
 10
  -204.432
 20
     0.000
 11
  -134.265
 21
     0.000
  0
LINE
  8
22
 10
     0.000
 20
  1758.578
 11
   516.667
 21
  1758.578
  0
LINE
  8
22
 10
   516.667
 20
  1758.578
 11
  1015.833
 21
  1758.578
  0
LINE
  8
22
 10
  1015.833
 20
  1758.578
 11
  1527.917
 21
  1758.578
  0
LINE
  8
22
 10
  1527.917
 20
  1758.578
 11
  2002.917
 21
  1758.578
  0
LINE
  8
22
 10
  2002.917
 20
  1758.578
 11
  2502.917
 21
  1758.578
  0
LINE
  8
22
 10
  2502.917
 20
  1758.578
 11
  3023.750
 21
  1758.578
  0
LINE
  8
22
 10
     0.000
 20
  1644.657
 11
   516.667
 21
  1644.657
  0
LINE
  8
22
 10
   516.667
 20
  1644.657
 11
  1015.833
 21
  1644.657
  0
LINE
  8
22
 10
  1015.833
 20
  1644.657
 11
  1527.917
 21
  1644.657
  0
LINE
  8
22
 10
  1527.917
 20
  1644.657
 11
  2002.917
 21
  1644.657
  0
LINE
  8
22
 10
  2002.917
 20
  1644.657
 11
  2502.917
 21
  1644.657
  0
LINE
  8
22
 10
  2502.917
 20
  1644.657
 11
  3023.750
 21
  1644.657
  0
LINE
  8
22
 10
     0.000
 20
  1530.735
 11
   516.667
 21
  1530.735
  0
LINE
  8
22
 10
   516.667
 20
  1530.735
 11
  1015.833
 21
  1530.735
  0
LINE
  8
22
 10
  1015.833
 20
  1530.735
 11
  1527.917
 21
  1530.735
  0
LINE
  8
22
 10
  1527.917
 20
  1530.735
 11
  2002.917
 21
  1530.735
  0
LINE
  8
22
 10
  2002.917
 20
  1530.735
 11
  2502.917
 21
  1530.735
  0
LINE
  8
22
 10
  2502.917
 20
  1530.735
 11
  3023.750
 21
  1530.735
  0
LINE
  8
22
 10
     0.000
 20
  1416.813
 11
   516.667
 21
  1416.813
  0
LINE
  8
22
 10
   516.667
 20
  1416.813
 11
  1015.833
 21
  1416.813
  0
LINE
  8
22
 10
  1015.833
 20
  1416.813
 11
  1527.917
 21
  1416.813
  0
LINE
  8
22
 10
  1527.917
 20
  1416.813
 11
  2002.917
 21
  1416.813
  0
LINE
  8
22
 10
  2002.917
 20
  1416.813
 11
  2502.917
 21
  1416.813
  0
LINE
  8
22
 10
  2502.917
 20
  1416.813
 11
  3023.750
 21
  1416.813
  0
LINE
  8
22
 10
     0.000
 20
  1302.891
 11
   516.667
 21
  1302.891
  0
LINE
  8
22
 10
   516.667
 20
  1302.891
 11
  1015.833
 21
  1302.891
  0
LINE
  8
22
 10
  1015.833
 20
  1302.891
 11
  1527.917
 21
  1302.891
  0
LINE
  8
22
 10
  1527.917
 20
  1302.891
 11
  2002.917
 21
  1302.891
  0
LINE
  8
22
 10
  2002.917
 20
  1302.891
 11
  2502.917
 21
  1302.891
  0
LINE
  8
22
 10
  2502.917
 20
  1302.891
 11
  3023.750
 21
  1302.891
  0
LINE
  8
22
 10
     0.000
 20
  1188.969
 11
   516.667
 21
  1188.969
  0
LINE
  8
22
 10
   516.667
 20
  1188.969
 11
  1015.833
 21
  1188.969
  0
LINE
  8
22
 10
  1015.833
 20
  1188.969
 11
  1527.917
 21
  1188.969
  0
LINE
  8
22
 10
  1527.917
 20
  1188.969
 11
  2002.917
 21
  1188.969
  0
LINE
  8
22
 10
  2002.917
 20
  1188.969
 11
  2502.917
 21
  1188.969
  0
LINE
  8
22
 10
  2502.917
 20
  1188.969
 11
  3023.750
 21
  1188.969
  0
LINE
  8
22
 10
     0.000
 20
  1075.048
 11
   516.667
 21
  1075.048
  0
LINE
  8
22
 10
   516.667
 20
  1075.048
 11
  1015.833
 21
  1075.048
  0
LINE
  8
22
 10
  1015.833
 20
  1075.048
 11
  1527.917
 21
  1075.048
  0
LINE
  8
22
 10
  1527.917
 20
  1075.048
 11
  2002.917
 21
  1075.048
  0
LINE
  8
22
 10
  2002.917
 20
  1075.048
 11
  2502.917
 21
  1075.048
  0
LINE
  8
22
 10
  2502.917
 20
  1075.048
 11
  3023.750
 21
  1075.048
  0
LINE
  8
22
 10
     0.000
 20
   961.126
 11
   516.667
 21
   961.126
  0
LINE
  8
22
 10
   516.667
 20
   961.126
 11
  1015.833
 21
   961.126
  0
LINE
  8
22
 10
  1015.833
 20
   961.126
 11
  1527.917
 21
   961.126
  0
LINE
  8
22
 10
  1527.917
 20
   961.126
 11
  2002.917
 21
   961.126
  0
LINE
  8
22
 10
  2002.917
 20
   961.126
 11
  2502.917
 21
   961.126
  0
LINE
  8
22
 10
  2502.917
 20
   961.126
 11
  3023.750
 21
   961.126
  0
LINE
  8
22
 10
     0.000
 20
   911.374
 11
   516.667
 21
   911.374
  0
LINE
  8
22
 10
   516.667
 20
   911.374
 11
  1015.833
 21
   911.374
  0
LINE
  8
22
 10
  1015.833
 20
   911.374
 11
  1527.917
 21
   911.374
  0
LINE
  8
22
 10
  1527.917
 20
   911.374
 11
  2002.917
 21
   911.374
  0
LINE
  8
22
 10
  2002.917
 20
   911.374
 11
  2502.917
 21
   911.374
  0
LINE
  8
22
 10
  2502.917
 20
   911.374
 11
  3023.750
 21
   911.374
  0
LINE
  8
22
 10
     0.000
 20
   797.452
 11
   516.667
 21
   797.452
  0
LINE
  8
22
 10
   516.667
 20
   797.452
 11
  1015.833
 21
   797.452
  0
LINE
  8
22
 10
  1015.833
 20
   797.452
 11
  1527.917
 21
   797.452
  0
LINE
  8
22
 10
  1527.917
 20
   797.452
 11
  2002.917
 21
   797.452
  0
LINE
  8
22
 10
  2002.917
 20
   797.452
 11
  2502.917
 21
   797.452
  0
LINE
  8
22
 10
  2502.917
 20
   797.452
 11
  3023.750
 21
   797.452
  0
LINE
  8
22
 10
     0.000
 20
   683.531
 11
   516.667
 21
   683.531
  0
LINE
  8
22
 10
   516.667
 20
   683.531
 11
  1015.833
 21
   683.531
  0
LINE
  8
22
 10
  1015.833
 20
   683.531
 11
  1527.917
 21
   683.531
  0
LINE
  8
22
 10
  1527.917
 20
   683.531
 11
  2002.917
 21
   683.531
  0
LINE
  8
22
 10
  2002.917
 20
   683.531
 11
  2502.917
 21
   683.531
  0
LINE
  8
22
 10
  2502.917
 20
   683.531
 11
  3023.750
 21
   683.531
  0
LINE
  8
22
 10
     0.000
 20
   569.609
 11
   516.667
 21
   569.609
  0
LINE
  8
22
 10
   516.667
 20
   569.609
 11
  1015.833
 21
   569.609
  0
LINE
  8
22
 10
  1015.833
 20
   569.609
 11
  1527.917
 21
   569.609
  0
LINE
  8
22
 10
  1527.917
 20
   569.609
 11
  2002.917
 21
   569.609
  0
LINE
  8
22
 10
  2002.917
 20
   569.609
 11
  2502.917
 21
   569.609
  0
LINE
  8
22
 10
  2502.917
 20
   569.609
 11
  3023.750
 21
   569.609
  0
LINE
  8
22
 10
     0.000
 20
   455.687
 11
   516.667
 21
   455.687
  0
LINE
  8
22
 10
   516.667
 20
   455.687
 11
  1015.833
 21
   455.687
  0
LINE
  8
22
 10
  1015.833
 20
   455.687
 11
  1527.917
 21
   455.687
  0
LINE
  8
22
 10
  1527.917
 20
   455.687
 11
  2002.917
 21
   455.687
  0
LINE
  8
22
 10
  2002.917
 20
   455.687
 11
  2502.917
 21
   455.687
  0
LINE
  8
22
 10
  2502.917
 20
   455.687
 11
  3023.750
 21
   455.687
  0
LINE
  8
22
 10
     0.000
 20
   341.765
 11
   516.667
 21
   341.765
  0
LINE
  8
22
 10
   516.667
 20
   341.765
 11
  1015.833
 21
   341.765
  0
LINE
  8
22
 10
  1015.833
 20
   341.765
 11
  1527.917
 21
   341.765
  0
LINE
  8
22
 10
  1527.917
 20
   341.765
 11
  2002.917
 21
   341.765
  0
LINE
  8
22
 10
  2002.917
 20
   341.765
 11
  2502.917
 21
   341.765
  0
LINE
  8
22
 10
  2502.917
 20
   341.765
 11
  3023.750
 21
   341.765
  0
LINE
  8
22
 10
     0.000
 20
   227.844
 11
   516.667
 21
   227.844
  0
LINE
  8
22
 10
   516.667
 20
   227.844
 11
  1015.833
 21
   227.844
  0
LINE
  8
22
 10
  1015.833
 20
   227.844
 11
  1527.917
 21
   227.844
  0
LINE
  8
22
 10
  1527.917
 20
   227.844
 11
  2002.917
 21
   227.844
  0
LINE
  8
22
 10
  2002.917
 20
   227.844
 11
  2502.917
 21
   227.844
  0
LINE
  8
22
 10
  2502.917
 20
   227.844
 11
  3023.750
 21
   227.844
  0
LINE
  8
22
 10
     0.000
 20
   113.922
 11
   516.667
 21
   113.922
  0
LINE
  8
22
 10
   516.667
 20
   113.922
 11
  1015.833
 21
   113.922
  0
LINE
  8
22
 10
  1015.833
 20
   113.922
 11
  1527.917
 21
   113.922
  0
LINE
  8
22
 10
  1527.917
 20
   113.922
 11
  2002.917
 21
   113.922
  0
LINE
  8
22
 10
  2002.917
 20
   113.922
 11
  2502.917
 21
   113.922
  0
LINE
  8
22
 10
  2502.917
 20
   113.922
 11
  3023.750
 21
   113.922
  0
LINE
  8
20
 10
     0.000
 20
  1872.500
 11
     0.000
 21
   936.250
  0
LINE
  8
20
 10
     0.000
 20
   936.250
 11
  3023.750
 21
   936.250
  0
LINE
  8
20
 10
  3023.750
 20
   936.250
 11
  3023.750
 21
  1872.500
  0
LINE
  8
20
 10
  3023.750
 20
  1872.500
 11
     0.000
 21
  1872.500
  0
TEXT
  8
20
 10
  1501.715
 20
  1399.295
 40
    10.160
  1
 1
 50
     0.000
  0
LINE
  8
20
 10
     0.000
 20
   936.250
 11
     0.000
 21
     0.000
  0
LINE
  8
20
 10
     0.000
 20
     0.000
 11
  3023.750
 21
     0.000
  0
LINE
  8
20
 10
  3023.750
 20
     0.000
 11
  3023.750
 21
   936.250
  0
LINE
  8
20
 10
  3023.750
 20
   936.250
 11
     0.000
 21
   936.250
  0
TEXT
  8
20
 10
  1501.715
 20
   463.045
 40
    10.160
  1
 1
 50
     0.000
  0
LINE
  8
0
 10
  -365.841
 20
  -395.375
 11
  3185.159
 21
  -395.375
  0
LINE
  8
0
 10
  3185.159
 20
  -395.375
 11
  3185.159
 21
  2267.875
  0
LINE
  8
0
 10
  3185.159
 20
  2267.875
 11
  -365.841
 21
  2267.875
  0
LINE
  8
0
 10
  -365.841
 20
  2267.875
 11
  -365.841
 21
  -395.375
  0
LINE
  8
0
 10
  -365.841
 20
  -307.488
 11
  3185.159
 21
  -307.488
  0
TEXT
  8
0
 10
  1087.406
 20
  -380.727
 40
    58.591
  1
Roof Design
 50
     0.000
  0
TEXT
  8
0
 10
  -336.545
 20
  -380.727
 40
    58.591
  1
C323-153-Final
 50
     0.000
  0
TEXT
  8
0
 10
  2511.357
 20
  -380.727
 40
    58.591
  1
11/AUG/2025
 50
     0.000
  0
ENDSEC
  0
EOF
