999
SOURCE:MBS   PROGRAM:PLT_DXF   CELL:RF_FLG   CLASS:SCALED   MODE:---
  0
SECTION
  2
HEADER
  9
$EXTMIN
 10
          0.000
 20
          0.000
  9
$EXTMAX
 10
       7327.334
 20
       4611.167
  9
$LIMMIN
 10
          0.000
 20
          0.000
  9
$LIMMAX
 10
       7327.334
 20
       4611.167
  9
$FILLMODE
 70
     1
  9
$LTSCALE
 40
  0.125
  9
$HANDLING
 70
     0
  0
ENDSEC
  0
SECTION
  2
TABLES
  0
TABLE
  2
LTYPE
 70
     3
  0
LTYPE
  2
CONTINUOUS
 70
    64
  3
SOLID LINE
 72
    65
 73
     0
 40
0.0
  0
LTYPE
  2
CENTER
 70
    64
  3
____ _ ____ _ ____ _ ____ _ ____ _ ____ _ ____
 72
    65
 73
     4
 40
2.0
 49
1.25
 49
-0.25
 49
0.25
 49
-0.25
  0
LTYPE
  2
DASHED
 70
    64
  3
__ __ __ __ __ __ __ __ __ __ __ __ __ __ __ 
 72
    65
 73
     2
 40
0.75
 49
0.5
 49
-0.25
  0
ENDTAB
  0
TABLE
  2
LAYER
 70
    51
  0
LAYER
  2
0
 70
     0
 62
     7
  6
CONTINUOUS
  0
LAYER
  2
1
 70
     0
 62
     7
  6
CONTINUOUS
  0
LAYER
  2
2
 70
     0
 62
     7
  6
CONTINUOUS
  0
LAYER
  2
3
 70
     0
 62
     1
  6
CONTINUOUS
  0
LAYER
  2
4
 70
     0
 62
     1
  6
CONTINUOUS
  0
LAYER
  2
5
 70
     0
 62
     7
  6
CONTINUOUS
  0
LAYER
  2
6
 70
     0
 62
     4
  6
CONTINUOUS
  0
LAYER
  2
7
 70
     0
 62
     3
  6
CONTINUOUS
  0
LAYER
  2
8
 70
     0
 62
     3
  6
CONTINUOUS
  0
LAYER
  2
9
 70
     0
 62
     7
  6
CONTINUOUS
  0
LAYER
  2
10
 70
     0
 62
     7
  6
CONTINUOUS
  0
LAYER
  2
11
 70
     0
 62
     7
  6
CONTINUOUS
  0
LAYER
  2
12
 70
     0
 62
     2
  6
CONTINUOUS
  0
LAYER
  2
13
 70
     0
 62
     2
  6
CONTINUOUS
  0
LAYER
  2
14
 70
     0
 62
     7
  6
CONTINUOUS
  0
LAYER
  2
15
 70
     0
 62
     6
  6
CONTINUOUS
  0
LAYER
  2
16
 70
     0
 62
     7
  6
CONTINUOUS
  0
LAYER
  2
17
 70
     0
 62
     7
  6
CONTINUOUS
  0
LAYER
  2
18
 70
     0
 62
     4
  6
CONTINUOUS
  0
LAYER
  2
19
 70
     0
 62
     7
  6
CONTINUOUS
  0
LAYER
  2
20
 70
     0
 62
     7
  6
CONTINUOUS
  0
LAYER
  2
21
 70
     0
 62
     7
  6
CONTINUOUS
  0
LAYER
  2
22
 70
     0
 62
     7
  6
CONTINUOUS
  0
LAYER
  2
23
 70
     0
 62
     7
  6
CONTINUOUS
  0
LAYER
  2
24
 70
     0
 62
     7
  6
CONTINUOUS
  0
LAYER
  2
25
 70
     0
 62
     7
  6
CONTINUOUS
  0
LAYER
  2
26
 70
     0
 62
     7
  6
CONTINUOUS
  0
LAYER
  2
27
 70
     0
 62
     7
  6
CONTINUOUS
  0
LAYER
  2
28
 70
     0
 62
     7
  6
CONTINUOUS
  0
LAYER
  2
29
 70
     0
 62
     7
  6
CONTINUOUS
  0
LAYER
  2
30
 70
     0
 62
     7
  6
CONTINUOUS
  0
LAYER
  2
31
 70
     0
 62
     7
  6
CONTINUOUS
  0
LAYER
  2
32
 70
     0
 62
     7
  6
CONTINUOUS
  0
LAYER
  2
33
 70
     0
 62
     7
  6
CONTINUOUS
  0
LAYER
  2
34
 70
     0
 62
     7
  6
CONTINUOUS
  0
LAYER
  2
35
 70
     0
 62
     7
  6
CONTINUOUS
  0
LAYER
  2
36
 70
     0
 62
     7
  6
CONTINUOUS
  0
LAYER
  2
37
 70
     0
 62
     7
  6
CONTINUOUS
  0
LAYER
  2
38
 70
     0
 62
     7
  6
CONTINUOUS
  0
LAYER
  2
39
 70
     0
 62
     7
  6
CONTINUOUS
  0
LAYER
  2
40
 70
     0
 62
     7
  6
CONTINUOUS
  0
LAYER
  2
41
 70
     0
 62
     7
  6
CONTINUOUS
  0
LAYER
  2
42
 70
     0
 62
     7
  6
CONTINUOUS
  0
LAYER
  2
43
 70
     0
 62
     7
  6
CONTINUOUS
  0
LAYER
  2
44
 70
     0
 62
     7
  6
CONTINUOUS
  0
LAYER
  2
45
 70
     0
 62
     7
  6
CONTINUOUS
  0
LAYER
  2
46
 70
     0
 62
     7
  6
CONTINUOUS
  0
LAYER
  2
47
 70
     0
 62
     7
  6
CONTINUOUS
  0
LAYER
  2
48
 70
     0
 62
     7
  6
CONTINUOUS
  0
LAYER
  2
49
 70
     0
 62
     7
  6
CONTINUOUS
  0
LAYER
  2
50
 70
     0
 62
     7
  6
CONTINUOUS
  0
ENDTAB
  0
ENDSEC
  0
SECTION
  2
BLOCKS
  0
BLOCK
  8
2
  2
ARROW
 70
     0
 10
  0.000000
 20
  0.000000
  0
LINE
  6
CONTINUOUS
  8
2
 10
  0.000000
 20
  0.000000
 11
 -1.000000
 21
  0.166667
  0
LINE
  6
CONTINUOUS
  8
2
 10
 -1.000000
 20
  0.166667
 11
 -1.000000
 21
 -0.166667
  0
LINE
  6
CONTINUOUS
  8
2
 10
 -1.000000
 20
 -0.166667
 11
  0.000000
 21
  0.000000
  0
ENDBLK
  8
2
  0
BLOCK
  8
3
  2
CIRCLE
 70
     0
 10
  0.000000
 20
  0.000000
  0
CIRCLE
  8
1
 10
   0.000
 20
   0.000
 40
   1.000
  0
ENDBLK
  8
3
  0
BLOCK
  8
2
  2
PLATE_WB
 70
     0
 10
  0.000000
 20
  0.000000
  0
CIRCLE
  6
CONTINUOUS
  8
5
 10
  0.000000
 20
  0.000000
 40
  0.100000
  0
LINE
  6
CONTINUOUS
  8
5
 10
 -0.100000
 20
  0.000000
 11
  0.100000
 21
  0.000000
  0
LINE
  6
CONTINUOUS
  8
5
 10
  0.000000
 20
 -0.100000
 11
  0.000000
 21
  0.100000
  0
TEXT
  8
5
 10
  0.000000
 20
  0.000000
 40
   0.015
  1
ZERO
 50
   0.000
  0
LINE
  6
CONTINUOUS
  8
3
 10
  0.000000
 20
  0.000000
 11
  0.000000
 21
-80.000000
  0
LINE
  6
CONTINUOUS
  8
3
 10
  0.000000
 20
-80.000000
 11
 5685.0000
 21
-80.000000
  0
LINE
  6
CONTINUOUS
  8
3
 10
 5685.0000
 20
-80.000000
 11
 5685.0000
 21
  0.000000
  0
LINE
  6
CONTINUOUS
  8
3
 10
 5685.0000
 20
  0.000000
 11
  0.000000
 21
  0.000000
  0
LINE
  6
CONTINUOUS
  8
6
 10
  0.000000
 20
 37.899998
 11
  0.000000
 21
 274.77499
  0
LINE
  6
CONTINUOUS
  8
6
 10
 5685.0000
 20
 37.899998
 11
 5685.0000
 21
 274.77499
  0
LINE
  6
CONTINUOUS
  8
6
 10
  0.000000
 20
 274.72501
 11
 5685.0000
 21
 274.72501
  0
INSERT
  8
6
  2
ARROW
 10
  0.000000
 20
 274.72501
 41
 25.266665
 42
 25.266665
 43
 25.266665
 50
 180.000
  0
INSERT
  8
6
  2
ARROW
 10
 5685.0000
 20
 274.72501
 41
 25.266665
 42
 25.266665
 43
 25.266665
 50
   0.000
  0
TEXT
  8
6
 10
 2741.4333
 20
 299.99167
 40
  50.533
  1
5685
 50
   0.000
  0
LINE
  6
CONTINUOUS
  8
6
 10
-37.899998
 20
-80.000000
 11
-426.37497
 21
-79.999969
  0
LINE
  6
CONTINUOUS
  8
6
 10
-37.899990
 20
  0.000003
 11
-426.37497
 21
  0.000032
  0
LINE
  6
CONTINUOUS
  8
6
 10
-426.32498
 20
-79.999969
 11
-426.32498
 21
  0.000032
  0
INSERT
  8
6
  2
ARROW
 10
-426.32498
 20
-79.999969
 41
 25.266665
 42
 25.266665
 43
 25.266665
 50
 270.000
  0
INSERT
  8
6
  2
ARROW
 10
-426.32498
 20
  0.000032
 41
 25.266665
 42
 25.266665
 43
 25.266665
 50
  90.000
  0
TEXT
  8
6
 10
-527.39166
 20
-65.266624
 40
  50.533
  1
80
 50
   0.000
  0
LINE
  6
CONTINUOUS
  8
6
 10
-37.899998
 20
-80.000000
 11
-274.77499
 21
-79.999985
  0
LINE
  6
CONTINUOUS
  8
6
 10
-37.899990
 20
  0.000003
 11
-274.77499
 21
  0.000021
  0
LINE
  6
CONTINUOUS
  8
6
 10
-274.72501
 20
-79.999985
 11
-274.72501
 21
  0.000021
  0
INSERT
  8
6
  2
ARROW
 10
-274.72501
 20
-79.999985
 41
 25.266665
 42
 25.266665
 43
 25.266665
 50
 270.000
  0
INSERT
  8
6
  2
ARROW
 10
-274.72501
 20
  0.000021
 41
 25.266665
 42
 25.266665
 43
 25.266665
 50
  90.000
  0
TEXT
  8
6
 10
-375.79166
 20
-65.266640
 40
  50.533
  1
80
 50
   0.000
  0
LINE
  6
CONTINUOUS
  8
6
 10
 5722.8999
 20
-80.000000
 11
 5959.7749
 21
-80.000015
  0
LINE
  6
CONTINUOUS
  8
6
 10
 5722.8999
 20
 -0.000003
 11
 5959.7749
 21
 -0.000021
  0
LINE
  6
CONTINUOUS
  8
6
 10
 5959.7251
 20
-80.000015
 11
 5959.7251
 21
 -0.000021
  0
INSERT
  8
6
  2
ARROW
 10
 5959.7251
 20
-80.000015
 41
 25.266665
 42
 25.266665
 43
 25.266665
 50
 270.000
  0
INSERT
  8
6
  2
ARROW
 10
 5959.7251
 20
 -0.000021
 41
 25.266665
 42
 25.266665
 43
 25.266665
 50
  90.000
  0
TEXT
  8
6
 10
 5858.6582
 20
-65.266670
 40
  50.533
  1
80
 50
   0.000
  0
ENDBLK
  8
2
  0
BLOCK
  8
2
  2
PLATE_OF
 70
     0
 10
  0.000000
 20
  0.000000
  0
CIRCLE
  6
CONTINUOUS
  8
5
 10
  0.000000
 20
-40.000000
 40
  0.100000
  0
LINE
  6
CONTINUOUS
  8
5
 10
 -0.100000
 20
-40.000000
 11
  0.100000
 21
-40.000000
  0
LINE
  6
CONTINUOUS
  8
5
 10
  0.000000
 20
-40.099998
 11
  0.000000
 21
-39.900002
  0
TEXT
  8
5
 10
  0.000000
 20
-40.000000
 40
   0.015
  1
ZERO
 50
   0.000
  0
LINE
  6
CONTINUOUS
  8
3
 10
  0.000000
 20
  0.000000
 11
  0.000000
 21
-80.000000
  0
LINE
  6
CONTINUOUS
  8
3
 10
  0.000000
 20
-80.000000
 11
 5685.0000
 21
-80.000000
  0
LINE
  6
CONTINUOUS
  8
3
 10
 5685.0000
 20
-80.000000
 11
 5685.0000
 21
  0.000000
  0
LINE
  6
CONTINUOUS
  8
3
 10
 5685.0000
 20
  0.000000
 11
  0.000000
 21
  0.000000
  0
LINE
  6
CONTINUOUS
  8
6
 10
-37.899998
 20
-80.000000
 11
-274.77499
 21
-79.999985
  0
LINE
  6
CONTINUOUS
  8
6
 10
-37.899990
 20
  0.000003
 11
-274.77499
 21
  0.000021
  0
LINE
  6
CONTINUOUS
  8
6
 10
-274.72501
 20
-79.999985
 11
-274.72501
 21
  0.000021
  0
INSERT
  8
6
  2
ARROW
 10
-274.72501
 20
-79.999985
 41
 25.266665
 42
 25.266665
 43
 25.266665
 50
 270.000
  0
INSERT
  8
6
  2
ARROW
 10
-274.72501
 20
  0.000021
 41
 25.266665
 42
 25.266665
 43
 25.266665
 50
  90.000
  0
TEXT
  8
6
 10
-375.79166
 20
-65.266640
 40
  50.533
  1
80
 50
   0.000
  0
LINE
  6
CONTINUOUS
  8
6
 10
  0.000000
 20
 37.899998
 11
  0.000000
 21
 274.77499
  0
LINE
  6
CONTINUOUS
  8
6
 10
 5685.0000
 20
 37.899998
 11
 5685.0000
 21
 274.77499
  0
LINE
  6
CONTINUOUS
  8
6
 10
  0.000000
 20
 274.72501
 11
 5685.0000
 21
 274.72501
  0
INSERT
  8
6
  2
ARROW
 10
  0.000000
 20
 274.72501
 41
 25.266665
 42
 25.266665
 43
 25.266665
 50
 180.000
  0
INSERT
  8
6
  2
ARROW
 10
 5685.0000
 20
 274.72501
 41
 25.266665
 42
 25.266665
 43
 25.266665
 50
   0.000
  0
TEXT
  8
6
 10
 2741.4333
 20
 299.99167
 40
  50.533
  1
5685
 50
   0.000
  0
ENDBLK
  8
2
  0
BLOCK
  8
2
  2
PLATE_IF
 70
     0
 10
  0.000000
 20
  0.000000
  0
CIRCLE
  6
CONTINUOUS
  8
5
 10
  0.000000
 20
-40.000000
 40
  0.100000
  0
LINE
  6
CONTINUOUS
  8
5
 10
 -0.100000
 20
-40.000000
 11
  0.100000
 21
-40.000000
  0
LINE
  6
CONTINUOUS
  8
5
 10
  0.000000
 20
-40.099998
 11
  0.000000
 21
-39.900002
  0
TEXT
  8
5
 10
  0.000000
 20
-40.000000
 40
   0.015
  1
ZERO
 50
   0.000
  0
LINE
  6
CONTINUOUS
  8
3
 10
  0.000000
 20
  0.000000
 11
  0.000000
 21
-80.000000
  0
LINE
  6
CONTINUOUS
  8
3
 10
  0.000000
 20
-80.000000
 11
 5685.0000
 21
-80.000000
  0
LINE
  6
CONTINUOUS
  8
3
 10
 5685.0000
 20
-80.000000
 11
 5685.0000
 21
  0.000000
  0
LINE
  6
CONTINUOUS
  8
3
 10
 5685.0000
 20
  0.000000
 11
  0.000000
 21
  0.000000
  0
LINE
  6
CONTINUOUS
  8
6
 10
-37.899998
 20
-80.000000
 11
-274.77499
 21
-79.999985
  0
LINE
  6
CONTINUOUS
  8
6
 10
-37.899990
 20
  0.000003
 11
-274.77499
 21
  0.000021
  0
LINE
  6
CONTINUOUS
  8
6
 10
-274.72501
 20
-79.999985
 11
-274.72501
 21
  0.000021
  0
INSERT
  8
6
  2
ARROW
 10
-274.72501
 20
-79.999985
 41
 25.266665
 42
 25.266665
 43
 25.266665
 50
 270.000
  0
INSERT
  8
6
  2
ARROW
 10
-274.72501
 20
  0.000021
 41
 25.266665
 42
 25.266665
 43
 25.266665
 50
  90.000
  0
TEXT
  8
6
 10
-375.79166
 20
-65.266640
 40
  50.533
  1
80
 50
   0.000
  0
LINE
  6
CONTINUOUS
  8
6
 10
  0.000000
 20
 37.899998
 11
  0.000000
 21
 274.77499
  0
LINE
  6
CONTINUOUS
  8
6
 10
 5685.0000
 20
 37.899998
 11
 5685.0000
 21
 274.77499
  0
LINE
  6
CONTINUOUS
  8
6
 10
  0.000000
 20
 274.72501
 11
 5685.0000
 21
 274.72501
  0
INSERT
  8
6
  2
ARROW
 10
  0.000000
 20
 274.72501
 41
 25.266665
 42
 25.266665
 43
 25.266665
 50
 180.000
  0
INSERT
  8
6
  2
ARROW
 10
 5685.0000
 20
 274.72501
 41
 25.266665
 42
 25.266665
 43
 25.266665
 50
   0.000
  0
TEXT
  8
6
 10
 2741.4333
 20
 299.99167
 40
  50.533
  1
5685
 50
   0.000
  0
ENDBLK
  8
2
  0
ENDSEC
  0
SECTION
  2
ENTITIES
  0
LINE
  6
CONTINUOUS
  8
5
 10
  0.000000
 20
  0.000000
 11
 7327.3340
 21
  0.000000
  0
LINE
  6
CONTINUOUS
  8
5
 10
 7327.3340
 20
  0.000000
 11
 7327.3340
 21
 4611.1665
  0
LINE
  6
CONTINUOUS
  8
5
 10
 7327.3340
 20
 4611.1665
 11
  0.000000
 21
 4611.1665
  0
LINE
  6
CONTINUOUS
  8
5
 10
  0.000000
 20
 4611.1665
 11
  0.000000
 21
  0.000000
  0
TEXT
  8
5
 10
 101.06666
 20
 50.533329
 40
 101.067
  1
YIELD:345.0
 50
   0.000
  0
TEXT
  8
5
 10
 101.06666
 20
 202.13332
 40
 101.067
  1
THICKNESS:3.2
 50
   0.000
  0
TEXT
  8
5
 10
 101.06666
 20
 353.73331
 40
 101.067
  1
QUANTITY:1
 50
   0.000
  0
TEXT
  8
5
 10
 101.06666
 20
 505.33328
 40
 101.067
  1
DRAWING:ST-1R
 50
   0.000
  0
TEXT
  8
5
 10
 101.06666
 20
 656.93329
 40
 101.067
  1
MARK:ST-1
 50
   0.000
  0
TEXT
  8
5
 10
 101.06666
 20
 808.53326
 40
 101.067
  1
PART:T80x32
 50
   0.000
  0
TEXT
  8
5
 10
 101.06666
 20
 960.13324
 40
 101.067
  1
JOB:C323-153-Final
 50
   0.000
  0
INSERT
  8
2
  2
PLATE_WB
 10
 821.16699
 20
 2345.5833
 41
  1.000000
 42
  1.000000
 43
  1.000000
 50
   0.000
  0
INSERT
  8
2
  2
PLATE_OF
 10
 821.16699
 20
 2505.5833
 41
  1.000000
 42
  1.000000
 43
  1.000000
 50
   0.000
  0
INSERT
  8
2
  2
PLATE_IF
 10
 821.16699
 20
 2185.5833
 41
  1.000000
 42
  1.000000
 43
  1.000000
 50
   0.000
  0
ENDSEC
  0
EOF
