  0
SECTION
  2
HEADER
  9
$ACADVER
  1
AC1009
  9
$EXTMIN
 10
-14501.670
 20
-13921.930
  9
$EXTMAX
 10
 52586.668
 20
 36394.324
  9
$LIMMIN
 10
-14501.670
 20
-13921.930
  9
$LIMMAX
 10
 52586.668
 20
 36394.324
  9
$FILLMODE
 70
     1
  9
$HANDLING
 70
     0
  0
ENDSEC
  0
SECTION
  2
TABLES
  0
TABLE
  2
LTYPE
 70
1
  0
LTYPE
  2
CONTIN
 70
    64
  3
SOLID LINE
 72
    65
 73
     0
 40
0.0
  0
LTYPE
  2
CONTINUOUS
 70
    64
  3
SOLID LINE
 72
    65
 73
     0
 40
0.0
  0
LTYPE
  2
CENTER
 70
    64
  3
____ _ ____ _ ____ _ ____ _ ____ _ ____ _ ____
 72
    65
 73
     4
 40
     6.155
 49
     3.847
 49
    -0.769
 49
     0.769
 49
    -0.769
  0
LTYPE
  2
DASHED
 70
    64
  3
__ __ __ __ __ __ __ __ __ __ __ __ __ __ __ 
 72
    65
 73
     2
 40
   805.06
 49
   536.70
 49
  -268.35
  0
ENDTAB
  0
TABLE
  2
LAYER
 70
30
  0
LAYER
  2
0
 70
     0
 62
     7
  6
CONTIN
  0
LAYER
  2
1
 70
     0
 62
     7
  6
CONTIN
  0
LAYER
  2
2
 70
     0
 62
     7
  6
CONTIN
  0
LAYER
  2
3
 70
     0
 62
     7
  6
CONTIN
  0
LAYER
  2
4
 70
     0
 62
     5
  6
CONTIN
  0
LAYER
  2
5
 70
     0
 62
     5
  6
DASHED
  0
LAYER
  2
6
 70
     0
 62
     5
  6
DASHED
  0
LAYER
  2
7
 70
     0
 62
     5
  6
CONTIN
  0
LAYER
  2
8
 70
     0
 62
     5
  6
DASHED
  0
LAYER
  2
9
 70
     0
 62
     7
  6
CONTIN
  0
LAYER
  2
10
 70
     0
 62
     7
  6
CONTIN
  0
LAYER
  2
11
 70
     0
 62
     6
  6
DASHED
  0
LAYER
  2
12
 70
     0
 62
     7
  6
DASHED
  0
LAYER
  2
13
 70
     0
 62
     5
  6
DASHED
  0
LAYER
  2
14
 70
     0
 62
     7
  6
CONTIN
  0
LAYER
  2
15
 70
     0
 62
     5
  6
CONTIN
  0
LAYER
  2
16
 70
     0
 62
     7
  6
CONTIN
  0
LAYER
  2
17
 70
     0
 62
     7
  6
CONTIN
  0
LAYER
  2
18
 70
     0
 62
     7
  6
CONTIN
  0
LAYER
  2
19
 70
     0
 62
     7
  6
CONTIN
  0
LAYER
  2
20
 70
     0
 62
     1
  6
CONTIN
  0
LAYER
  2
21
 70
     0
 62
     7
  6
CONTIN
  0
LAYER
  2
22
 70
     0
 62
     7
  6
DASHED
  0
LAYER
  2
23
 70
     0
 62
     7
  6
DASHED
  0
LAYER
  2
24
 70
     0
 62
     7
  6
CONTIN
  0
LAYER
  2
25
 70
     0
 62
     7
  6
CONTIN
  0
LAYER
  2
26
 70
     0
 62
     7
  6
CONTIN
  0
LAYER
  2
27
 70
     0
 62
     1
  6
CENTER
  0
LAYER
  2
28
 70
     0
 62
     7
  6
CONTIN
  0
LAYER
  2
29
 70
     0
 62
     3
  6
DASHED
  0
ENDTAB
  0
TABLE
  2
STYLE
 70
  0
  0
ENDTAB
  0
ENDSEC
  0
SECTION
  2
ENTITIES
  0
LINE
  8
8
 10
-11452.200
 20
 22470.000
 11
 -3032.200
 21
 22470.000
  0
LINE
  8
8
 10
 -3032.200
 20
 22470.000
 11
 -1908.701
 21
 11234.999
  0
LINE
  8
8
 10
 -1908.701
 20
 11234.999
 11
 -3032.201
 21
     0.000
  0
LINE
  8
8
 10
 -3032.201
 20
     0.000
 11
-11452.201
 21
     0.000
  0
LINE
  8
4
 10
-11452.200
 20
 22470.000
 11
 -3032.200
 21
 22470.000
  0
LINE
  8
4
 10
-11452.201
 20
 11235.000
 11
 -1908.701
 21
 11234.999
  0
LINE
  8
4
 10
-11452.201
 20
     0.000
 11
 -3032.201
 21
     0.000
  0
LINE
  8
8
 10
     0.000
 20
-10328.699
 11
     0.000
 21
 -1908.700
  0
LINE
  8
8
 10
     0.000
 20
 -1908.700
 11
 36285.000
 21
 -1908.700
  0
LINE
  8
8
 10
 36285.000
 20
 -1908.700
 11
 36285.000
 21
-10328.699
  0
LINE
  8
4
 10
     0.000
 20
-10328.699
 11
     0.000
 21
 -1908.700
  0
LINE
  8
4
 10
  6200.000
 20
-10328.699
 11
  6200.000
 21
 -1908.700
  0
LINE
  8
4
 10
 12190.000
 20
-10328.699
 11
 12190.000
 21
 -1908.700
  0
LINE
  8
4
 10
 18335.000
 20
-10328.699
 11
 18335.000
 21
 -1908.700
  0
LINE
  8
4
 10
 24035.000
 20
-10328.699
 11
 24035.000
 21
 -1908.700
  0
LINE
  8
4
 10
 30035.000
 20
-10328.699
 11
 30035.000
 21
 -1908.700
  0
LINE
  8
4
 10
 36285.000
 20
-10328.699
 11
 36285.000
 21
 -1908.700
  0
LINE
  8
3
 10
  6200.000
 20
-10328.699
 11
 12190.000
 21
 -3698.700
  0
LINE
  8
3
 10
 12190.000
 20
-10328.699
 11
  6200.000
 21
 -3698.700
  0
TEXT
  8
16
 10
  7534.033
 20
 -8821.652
 40
   121.920
  1
CB-1
 50
    47.903
  0
TEXT
  8
16
 10
 10529.033
 20
 -8459.787
 40
   121.920
  1
CB-1
 50
   312.097
  0
LINE
  8
3
 10
  6200.000
 20
 -3698.700
 11
 12190.000
 21
 -1908.700
  0
LINE
  8
3
 10
 12190.000
 20
 -3698.700
 11
  6200.000
 21
 -1908.700
  0
TEXT
  8
16
 10
  7463.868
 20
 -3290.536
 40
   121.920
  1
CB-2
 50
    16.638
  0
TEXT
  8
16
 10
 10458.868
 20
 -3150.903
 40
   121.920
  1
CB-2
 50
   343.362
  0
LINE
  8
3
 10
 24035.000
 20
-10328.699
 11
 30035.000
 21
 -3698.700
  0
LINE
  8
3
 10
 30035.000
 20
-10328.699
 11
 24035.000
 21
 -3698.700
  0
TEXT
  8
16
 10
 25371.385
 20
 -8821.517
 40
   121.920
  1
CB-3
 50
    47.856
  0
TEXT
  8
16
 10
 28371.385
 20
 -8459.923
 40
   121.920
  1
CB-3
 50
   312.144
  0
LINE
  8
3
 10
 24035.000
 20
 -3698.700
 11
 30035.000
 21
 -1908.700
  0
LINE
  8
3
 10
 30035.000
 20
 -3698.700
 11
 24035.000
 21
 -1908.700
  0
TEXT
  8
16
 10
 25301.338
 20
 -3290.429
 40
   121.920
  1
CB-4
 50
    16.612
  0
TEXT
  8
16
 10
 28301.338
 20
 -3151.010
 40
   121.920
  1
CB-4
 50
   343.388
  0
LINE
  8
2
 10
  6212.700
 20
 -3705.050
 11
 12177.300
 21
 -3705.050
  0
TEXT
  8
16
 10
  8951.160
 20
 -3674.569
 40
   121.920
  1
ST-1
 50
     0.000
  0
LINE
  8
2
 10
 24047.701
 20
 -3705.050
 11
 30022.301
 21
 -3705.050
  0
TEXT
  8
16
 10
 26791.162
 20
 -3674.569
 40
   121.920
  1
ST-2
 50
     0.000
  0
LINE
  8
8
 10
 49537.199
 20
     0.000
 11
 41117.199
 21
    -0.000
  0
LINE
  8
8
 10
 41117.199
 20
    -0.000
 11
 39993.699
 21
 11234.999
  0
LINE
  8
8
 10
 39993.699
 20
 11234.999
 11
 41117.199
 21
 22470.000
  0
LINE
  8
8
 10
 41117.199
 20
 22470.000
 11
 49537.199
 21
 22470.000
  0
LINE
  8
4
 10
 49537.199
 20
     0.000
 11
 41117.199
 21
    -0.000
  0
LINE
  8
4
 10
 49537.199
 20
 11235.000
 11
 39993.699
 21
 11234.999
  0
LINE
  8
4
 10
 49537.199
 20
 22470.000
 11
 41117.199
 21
 22470.000
  0
LINE
  8
8
 10
 36285.000
 20
 32798.699
 11
 36284.445
 21
 24378.697
  0
LINE
  8
8
 10
 36284.445
 20
 24378.697
 11
    -0.555
 21
 24381.092
  0
LINE
  8
8
 10
    -0.555
 20
 24381.092
 11
     0.000
 21
 32801.094
  0
LINE
  8
4
 10
 36285.000
 20
 32798.699
 11
 36284.445
 21
 24378.697
  0
LINE
  8
4
 10
 30035.000
 20
 32799.109
 11
 30034.445
 21
 24379.109
  0
LINE
  8
4
 10
 24035.000
 20
 32799.508
 11
 24034.445
 21
 24379.508
  0
LINE
  8
4
 10
 18335.002
 20
 32799.883
 11
 18334.447
 21
 24379.883
  0
LINE
  8
4
 10
 12190.002
 20
 32800.289
 11
 12189.446
 21
 24380.289
  0
LINE
  8
4
 10
  6200.003
 20
 32800.684
 11
  6199.448
 21
 24380.682
  0
LINE
  8
4
 10
     0.003
 20
 32801.094
 11
    -0.552
 21
 24381.092
  0
LINE
  8
3
 10
 30035.000
 20
 32799.109
 11
 24034.564
 21
 26169.506
  0
LINE
  8
3
 10
 24035.000
 20
 32799.508
 11
 30034.562
 21
 26169.113
  0
TEXT
  8
16
 10
 28371.264
 20
 30991.404
 40
   121.920
  1
CB-3
 50
    47.852
  0
TEXT
  8
16
 10
 25371.289
 20
 31353.195
 40
   121.920
  1
CB-3
 50
   312.141
  0
LINE
  8
3
 10
 30034.562
 20
 26169.113
 11
 24034.445
 21
 24379.508
  0
LINE
  8
3
 10
 24034.564
 20
 26169.506
 11
 30034.445
 21
 24379.109
  0
TEXT
  8
16
 10
 28300.867
 20
 25682.496
 40
   121.920
  1
CB-4
 50
    16.608
  0
TEXT
  8
16
 10
 25300.877
 20
 25822.113
 40
   121.920
  1
CB-4
 50
   343.385
  0
LINE
  8
3
 10
 12190.002
 20
 32800.289
 11
  6199.566
 21
 26170.682
  0
LINE
  8
3
 10
  6200.003
 20
 32800.684
 11
 12189.564
 21
 26170.287
  0
TEXT
  8
16
 10
 10528.914
 20
 30992.445
 40
   121.920
  1
CB-1
 50
    47.899
  0
TEXT
  8
16
 10
  7533.940
 20
 31354.508
 40
   121.920
  1
CB-1
 50
   312.093
  0
LINE
  8
3
 10
 12189.564
 20
 26170.287
 11
  6199.448
 21
 24380.682
  0
LINE
  8
3
 10
  6199.566
 20
 26170.682
 11
 12189.446
 21
 24380.289
  0
TEXT
  8
16
 10
 10458.400
 20
 25683.564
 40
   121.920
  1
CB-2
 50
    16.634
  0
TEXT
  8
16
 10
  7463.411
 20
 25823.396
 40
   121.920
  1
CB-2
 50
   343.358
  0
LINE
  8
2
 10
 30021.863
 20
 26175.463
 11
 24047.264
 21
 26175.855
  0
TEXT
  8
16
 10
 26790.711
 20
 26023.273
 40
   121.920
  1
ST-2
 50
   359.996
  0
LINE
  8
2
 10
 12176.864
 20
 26176.637
 11
  6212.266
 21
 26177.031
  0
TEXT
  8
16
 10
  8950.716
 20
 26024.451
 40
   121.920
  1
ST-1
 50
   359.996
  0
LINE
  8
8
 10
     0.000
 20
 22470.000
 11
     0.000
 21
     0.000
  0
LINE
  8
8
 10
     0.000
 20
     0.000
 11
 36285.000
 21
     0.000
  0
LINE
  8
8
 10
 36285.000
 20
     0.000
 11
 36285.000
 21
 22470.000
  0
LINE
  8
8
 10
 36285.000
 20
 22470.000
 11
     0.000
 21
 22470.000
  0
LINE
  8
8
 10
     0.000
 20
 11235.000
 11
 36285.000
 21
 11235.000
  0
LINE
  8
23
 10
  6200.000
 20
     0.000
 11
  6200.000
 21
 22470.000
  0
LINE
  8
23
 10
 12190.000
 20
     0.000
 11
 12190.000
 21
 22470.000
  0
LINE
  8
23
 10
 18335.000
 20
     0.000
 11
 18335.000
 21
 22470.000
  0
LINE
  8
23
 10
 24035.000
 20
     0.000
 11
 24035.000
 21
 22470.000
  0
LINE
  8
23
 10
 30035.000
 20
     0.000
 11
 30035.000
 21
 22470.000
  0
LINE
  8
3
 10
  6200.000
 20
 22470.000
 11
 12190.000
 21
 17001.799
  0
LINE
  8
3
 10
 12190.000
 20
 22470.000
 11
  6200.000
 21
 17001.799
  0
TEXT
  8
16
 10
  7517.414
 20
 18234.930
 40
   121.920
  1
CB-5
 50
    42.393
  0
TEXT
  8
16
 10
 10512.414
 20
 18563.729
 40
   121.920
  1
CB-5
 50
   -42.393
  0
LINE
  8
3
 10
  6200.000
 20
 17001.799
 11
 12190.000
 21
 11235.000
  0
LINE
  8
3
 10
 12190.000
 20
 17001.799
 11
  6200.000
 21
 11235.000
  0
TEXT
  8
16
 10
  7521.837
 20
 12538.063
 40
   121.920
  1
CB-6
 50
    43.912
  0
TEXT
  8
16
 10
 10516.837
 20
 12876.298
 40
   121.920
  1
CB-6
 50
   -43.912
  0
LINE
  8
3
 10
  6200.000
 20
 11235.000
 11
 12190.000
 21
  5468.200
  0
LINE
  8
3
 10
 12190.000
 20
 11235.000
 11
  6200.000
 21
  5468.200
  0
TEXT
  8
16
 10
  7521.837
 20
  6771.263
 40
   121.920
  1
CB-6
 50
    43.912
  0
TEXT
  8
16
 10
 10516.837
 20
  7109.497
 40
   121.920
  1
CB-6
 50
   -43.912
  0
LINE
  8
3
 10
  6200.000
 20
  5468.200
 11
 12190.000
 21
     0.000
  0
LINE
  8
3
 10
 12190.000
 20
  5468.200
 11
  6200.000
 21
     0.000
  0
TEXT
  8
16
 10
  7517.414
 20
  1233.131
 40
   121.920
  1
CB-5
 50
    42.393
  0
TEXT
  8
16
 10
 10512.414
 20
  1561.928
 40
   121.920
  1
CB-5
 50
   -42.393
  0
LINE
  8
3
 10
 24035.000
 20
 22470.000
 11
 30035.000
 21
 17001.799
  0
LINE
  8
3
 10
 30035.000
 20
 22470.000
 11
 24035.000
 21
 17001.799
  0
TEXT
  8
16
 10
 25354.777
 20
 18235.080
 40
   121.920
  1
CB-7
 50
    42.345
  0
TEXT
  8
16
 10
 28354.781
 20
 18563.578
 40
   121.920
  1
CB-7
 50
   -42.345
  0
LINE
  8
3
 10
 24035.000
 20
 17001.799
 11
 30035.000
 21
 11235.000
  0
LINE
  8
3
 10
 30035.000
 20
 17001.799
 11
 24035.000
 21
 11235.000
  0
TEXT
  8
16
 10
 25359.197
 20
 12538.211
 40
   121.920
  1
CB-8
 50
    43.865
  0
TEXT
  8
16
 10
 28359.199
 20
 12876.151
 40
   121.920
  1
CB-8
 50
   -43.865
  0
LINE
  8
3
 10
 24035.000
 20
 11235.000
 11
 30035.000
 21
  5468.200
  0
LINE
  8
3
 10
 30035.000
 20
 11235.000
 11
 24035.000
 21
  5468.200
  0
TEXT
  8
16
 10
 25359.197
 20
  6771.410
 40
   121.920
  1
CB-8
 50
    43.865
  0
TEXT
  8
16
 10
 28359.199
 20
  7109.351
 40
   121.920
  1
CB-8
 50
   -43.865
  0
LINE
  8
3
 10
 24035.000
 20
  5468.200
 11
 30035.000
 21
     0.000
  0
LINE
  8
3
 10
 30035.000
 20
  5468.200
 11
 24035.000
 21
     0.000
  0
TEXT
  8
16
 10
 25354.777
 20
  1233.281
 40
   121.920
  1
CB-7
 50
    42.345
  0
TEXT
  8
16
 10
 28354.781
 20
  1561.779
 40
   121.920
  1
CB-7
 50
   -42.345
  0
LINE
  8
8
 10
 38085.000
 20
     0.000
 11
 38085.000
 21
 22470.000
  0
LINE
  8
8
 10
 36285.000
 20
     0.000
 11
 38085.000
 21
     0.000
  0
LINE
  8
8
 10
 36285.000
 20
 11235.000
 11
 38085.000
 21
 11235.000
  0
LINE
  8
8
 10
 36285.000
 20
 22470.000
 11
 38085.000
 21
 22470.000
  0
LINE
  8
0
 10
-14501.670
 20
-13921.930
 11
 52586.668
 21
-13921.930
  0
LINE
  8
0
 10
 52586.668
 20
-13921.930
 11
 52586.668
 21
 36394.324
  0
LINE
  8
0
 10
 52586.668
 20
 36394.324
 11
-14501.670
 21
 36394.324
  0
LINE
  8
0
 10
-14501.670
 20
 36394.324
 11
-14501.670
 21
-13921.930
  0
LINE
  8
0
 10
-14501.670
 20
-12261.493
 11
 52586.668
 21
-12261.493
  0
TEXT
  8
0
 10
  9633.360
 20
-13645.190
 40
  1106.958
  1
Wind Frame Layout
 50
     0.000
  0
TEXT
  8
0
 10
-13948.190
 20
-13645.190
 40
  1106.958
  1
C323-153-Final
 50
     0.000
  0
TEXT
  8
0
 10
 39856.656
 20
-13645.190
 40
  1106.958
  1
11/AUG/2025
 50
     0.000
  0
ENDSEC
  0
EOF
