999
SOURCE:MBS   PROGRAM:PLT_DXF   CELL:RF_BEP   CLASS:SCALED   MODE:---
  0
SECTION
  2
HEADER
  9
$EXTMIN
 10
          0.000
 20
          0.000
  9
$EXTMAX
 10
        706.311
 20
        444.489
  9
$LIMMIN
 10
          0.000
 20
          0.000
  9
$LIMMAX
 10
        706.311
 20
        444.489
  9
$FILLMODE
 70
     1
  9
$LTSCALE
 40
  0.125
  9
$HANDLING
 70
     0
  0
ENDSEC
  0
SECTION
  2
TABLES
  0
TABLE
  2
LTYPE
 70
     3
  0
LTYPE
  2
CONTINUOUS
 70
    64
  3
SOLID LINE
 72
    65
 73
     0
 40
0.0
  0
LTYPE
  2
CENTER
 70
    64
  3
____ _ ____ _ ____ _ ____ _ ____ _ ____ _ ____
 72
    65
 73
     4
 40
2.0
 49
1.25
 49
-0.25
 49
0.25
 49
-0.25
  0
LTYPE
  2
DASHED
 70
    64
  3
__ __ __ __ __ __ __ __ __ __ __ __ __ __ __ 
 72
    65
 73
     2
 40
0.75
 49
0.5
 49
-0.25
  0
ENDTAB
  0
TABLE
  2
LAYER
 70
    51
  0
LAYER
  2
0
 70
     0
 62
     7
  6
CONTINUOUS
  0
LAYER
  2
1
 70
     0
 62
     7
  6
CONTINUOUS
  0
LAYER
  2
2
 70
     0
 62
     7
  6
CONTINUOUS
  0
LAYER
  2
3
 70
     0
 62
     1
  6
CONTINUOUS
  0
LAYER
  2
4
 70
     0
 62
     1
  6
CONTINUOUS
  0
LAYER
  2
5
 70
     0
 62
     7
  6
CONTINUOUS
  0
LAYER
  2
6
 70
     0
 62
     4
  6
CONTINUOUS
  0
LAYER
  2
7
 70
     0
 62
     3
  6
CONTINUOUS
  0
LAYER
  2
8
 70
     0
 62
     3
  6
CONTINUOUS
  0
LAYER
  2
9
 70
     0
 62
     7
  6
CONTINUOUS
  0
LAYER
  2
10
 70
     0
 62
     7
  6
CONTINUOUS
  0
LAYER
  2
11
 70
     0
 62
     7
  6
CONTINUOUS
  0
LAYER
  2
12
 70
     0
 62
     2
  6
CONTINUOUS
  0
LAYER
  2
13
 70
     0
 62
     2
  6
CONTINUOUS
  0
LAYER
  2
14
 70
     0
 62
     7
  6
CONTINUOUS
  0
LAYER
  2
15
 70
     0
 62
     6
  6
CONTINUOUS
  0
LAYER
  2
16
 70
     0
 62
     7
  6
CONTINUOUS
  0
LAYER
  2
17
 70
     0
 62
     7
  6
CONTINUOUS
  0
LAYER
  2
18
 70
     0
 62
     4
  6
CONTINUOUS
  0
LAYER
  2
19
 70
     0
 62
     7
  6
CONTINUOUS
  0
LAYER
  2
20
 70
     0
 62
     7
  6
CONTINUOUS
  0
LAYER
  2
21
 70
     0
 62
     7
  6
CONTINUOUS
  0
LAYER
  2
22
 70
     0
 62
     7
  6
CONTINUOUS
  0
LAYER
  2
23
 70
     0
 62
     7
  6
CONTINUOUS
  0
LAYER
  2
24
 70
     0
 62
     7
  6
CONTINUOUS
  0
LAYER
  2
25
 70
     0
 62
     7
  6
CONTINUOUS
  0
LAYER
  2
26
 70
     0
 62
     7
  6
CONTINUOUS
  0
LAYER
  2
27
 70
     0
 62
     7
  6
CONTINUOUS
  0
LAYER
  2
28
 70
     0
 62
     7
  6
CONTINUOUS
  0
LAYER
  2
29
 70
     0
 62
     7
  6
CONTINUOUS
  0
LAYER
  2
30
 70
     0
 62
     7
  6
CONTINUOUS
  0
LAYER
  2
31
 70
     0
 62
     7
  6
CONTINUOUS
  0
LAYER
  2
32
 70
     0
 62
     7
  6
CONTINUOUS
  0
LAYER
  2
33
 70
     0
 62
     7
  6
CONTINUOUS
  0
LAYER
  2
34
 70
     0
 62
     7
  6
CONTINUOUS
  0
LAYER
  2
35
 70
     0
 62
     7
  6
CONTINUOUS
  0
LAYER
  2
36
 70
     0
 62
     7
  6
CONTINUOUS
  0
LAYER
  2
37
 70
     0
 62
     7
  6
CONTINUOUS
  0
LAYER
  2
38
 70
     0
 62
     7
  6
CONTINUOUS
  0
LAYER
  2
39
 70
     0
 62
     7
  6
CONTINUOUS
  0
LAYER
  2
40
 70
     0
 62
     7
  6
CONTINUOUS
  0
LAYER
  2
41
 70
     0
 62
     7
  6
CONTINUOUS
  0
LAYER
  2
42
 70
     0
 62
     7
  6
CONTINUOUS
  0
LAYER
  2
43
 70
     0
 62
     7
  6
CONTINUOUS
  0
LAYER
  2
44
 70
     0
 62
     7
  6
CONTINUOUS
  0
LAYER
  2
45
 70
     0
 62
     7
  6
CONTINUOUS
  0
LAYER
  2
46
 70
     0
 62
     7
  6
CONTINUOUS
  0
LAYER
  2
47
 70
     0
 62
     7
  6
CONTINUOUS
  0
LAYER
  2
48
 70
     0
 62
     7
  6
CONTINUOUS
  0
LAYER
  2
49
 70
     0
 62
     7
  6
CONTINUOUS
  0
LAYER
  2
50
 70
     0
 62
     7
  6
CONTINUOUS
  0
ENDTAB
  0
ENDSEC
  0
SECTION
  2
BLOCKS
  0
BLOCK
  8
2
  2
ARROW
 70
     0
 10
  0.000000
 20
  0.000000
  0
LINE
  6
CONTINUOUS
  8
2
 10
  0.000000
 20
  0.000000
 11
 -1.000000
 21
  0.166667
  0
LINE
  6
CONTINUOUS
  8
2
 10
 -1.000000
 20
  0.166667
 11
 -1.000000
 21
 -0.166667
  0
LINE
  6
CONTINUOUS
  8
2
 10
 -1.000000
 20
 -0.166667
 11
  0.000000
 21
  0.000000
  0
ENDBLK
  8
2
  0
BLOCK
  8
3
  2
CIRCLE
 70
     0
 10
  0.000000
 20
  0.000000
  0
CIRCLE
  8
1
 10
   0.000
 20
   0.000
 40
   1.000
  0
ENDBLK
  8
3
  0
BLOCK
  8
2
  2
PLATE
 70
     0
 10
  0.000000
 20
  0.000000
  0
CIRCLE
  6
CONTINUOUS
  8
5
 10
  0.000000
 20
-100.00000
 40
  0.100000
  0
LINE
  6
CONTINUOUS
  8
5
 10
 -0.100000
 20
-100.00000
 11
  0.100000
 21
-100.00000
  0
LINE
  6
CONTINUOUS
  8
5
 10
  0.000000
 20
-100.10000
 11
  0.000000
 21
-99.900002
  0
TEXT
  8
5
 10
  0.000000
 20
-100.00000
 40
   0.015
  1
ZERO
 50
   0.000
  0
LINE
  6
CONTINUOUS
  8
3
 10
  0.000000
 20
  0.000000
 11
  0.000000
 21
-200.00000
  0
LINE
  6
CONTINUOUS
  8
3
 10
  0.000000
 20
-200.00000
 11
 548.00000
 21
-200.00000
  0
LINE
  6
CONTINUOUS
  8
3
 10
 548.00000
 20
-200.00000
 11
 548.00000
 21
  0.000000
  0
LINE
  6
CONTINUOUS
  8
3
 10
 548.00000
 20
  0.000000
 11
  0.000000
 21
  0.000000
  0
CIRCLE
  6
CONTINUOUS
  8
4
 10
 44.952999
 20
-50.000000
 40
 11.000000
  0
CIRCLE
  6
CONTINUOUS
  8
4
 10
 44.952999
 20
-150.00000
 40
 11.000000
  0
CIRCLE
  6
CONTINUOUS
  8
4
 10
 144.95300
 20
-50.000000
 40
 11.000000
  0
CIRCLE
  6
CONTINUOUS
  8
4
 10
 144.95300
 20
-150.00000
 40
 11.000000
  0
CIRCLE
  6
CONTINUOUS
  8
4
 10
 402.17300
 20
-50.000000
 40
 11.000000
  0
CIRCLE
  6
CONTINUOUS
  8
4
 10
 402.17300
 20
-150.00000
 40
 11.000000
  0
CIRCLE
  6
CONTINUOUS
  8
4
 10
 502.17300
 20
-50.000000
 40
 11.000000
  0
CIRCLE
  6
CONTINUOUS
  8
4
 10
 502.17300
 20
-150.00000
 40
 11.000000
  0
LINE
  6
CONTINUOUS
  8
6
 10
 -3.653333
 20
-200.00000
 11
-26.486668
 21
-200.00000
  0
LINE
  6
CONTINUOUS
  8
6
 10
 -3.653318
 20
  0.000000
 11
-26.486652
 21
  0.000002
  0
LINE
  6
CONTINUOUS
  8
6
 10
-26.436668
 20
-200.00000
 11
-26.436653
 21
  0.000002
  0
INSERT
  8
6
  2
ARROW
 10
-26.436668
 20
-200.00000
 41
  2.435555
 42
  2.435555
 43
  2.435555
 50
 270.000
  0
INSERT
  8
6
  2
ARROW
 10
-26.436653
 20
  0.000002
 41
  2.435555
 42
  2.435555
 43
  2.435555
 50
  90.000
  0
TEXT
  8
6
 10
-28.872217
 20
-107.30666
 40
   4.871
  1
200
 50
  90.000
  0
LINE
  6
CONTINUOUS
  8
6
 10
  0.000000
 20
  3.653333
 11
  0.000000
 21
 26.486668
  0
LINE
  6
CONTINUOUS
  8
6
 10
 548.00000
 20
  3.653333
 11
 548.00000
 21
 26.486668
  0
LINE
  6
CONTINUOUS
  8
6
 10
  0.000000
 20
 26.436668
 11
 548.00000
 21
 26.436668
  0
INSERT
  8
6
  2
ARROW
 10
  0.000000
 20
 26.436668
 41
  2.435555
 42
  2.435555
 43
  2.435555
 50
 180.000
  0
INSERT
  8
6
  2
ARROW
 10
 548.00000
 20
 26.436668
 41
  2.435555
 42
  2.435555
 43
  2.435555
 50
   0.000
  0
TEXT
  8
6
 10
 266.69333
 20
 28.872223
 40
   4.871
  1
548
 50
   0.000
  0
LINE
  6
CONTINUOUS
  8
6
 10
 551.65332
 20
-50.000000
 11
 574.48663
 21
-50.000000
  0
LINE
  6
CONTINUOUS
  8
6
 10
 551.65332
 20
  0.000000
 11
 574.48663
 21
 -0.000002
  0
LINE
  6
CONTINUOUS
  8
6
 10
 574.43665
 20
-50.000000
 11
 574.43665
 21
 -0.000002
  0
INSERT
  8
6
  2
ARROW
 10
 574.43665
 20
-50.000000
 41
  2.435555
 42
  2.435555
 43
  2.435555
 50
 270.000
  0
INSERT
  8
6
  2
ARROW
 10
 574.43665
 20
 -0.000002
 41
  2.435555
 42
  2.435555
 43
  2.435555
 50
  90.000
  0
TEXT
  8
6
 10
 572.00110
 20
-29.871111
 40
   4.871
  1
50
 50
  90.000
  0
LINE
  6
CONTINUOUS
  8
6
 10
 551.65332
 20
-150.00000
 11
 574.48663
 21
-150.00000
  0
LINE
  6
CONTINUOUS
  8
6
 10
 551.65332
 20
-50.000000
 11
 574.48663
 21
-50.000000
  0
LINE
  6
CONTINUOUS
  8
6
 10
 574.43665
 20
-150.00000
 11
 574.43665
 21
-50.000000
  0
INSERT
  8
6
  2
ARROW
 10
 574.43665
 20
-150.00000
 41
  2.435555
 42
  2.435555
 43
  2.435555
 50
 270.000
  0
INSERT
  8
6
  2
ARROW
 10
 574.43665
 20
-50.000000
 41
  2.435555
 42
  2.435555
 43
  2.435555
 50
  90.000
  0
TEXT
  8
6
 10
 572.00110
 20
-106.69778
 40
   4.871
  1
100
 50
  90.000
  0
LINE
  6
CONTINUOUS
  8
6
 10
  0.000000
 20
-203.65334
 11
  0.000000
 21
-215.83112
  0
LINE
  6
CONTINUOUS
  8
6
 10
 44.952999
 20
-203.65334
 11
 44.952999
 21
-215.83112
  0
LINE
  6
CONTINUOUS
  8
6
 10
  0.000000
 20
-215.78111
 11
 44.952999
 21
-215.78111
  0
INSERT
  8
6
  2
ARROW
 10
  0.000000
 20
-215.78111
 41
  2.435555
 42
  2.435555
 43
  2.435555
 50
 180.000
  0
INSERT
  8
6
  2
ARROW
 10
 44.952999
 20
-215.78111
 41
  2.435555
 42
  2.435555
 43
  2.435555
 50
   0.000
  0
TEXT
  8
6
 10
 17.605389
 20
-213.34555
 40
   4.871
  1
45
 50
   0.000
  0
LINE
  6
CONTINUOUS
  8
6
 10
 144.95300
 20
-203.65334
 11
 144.95300
 21
-215.83112
  0
LINE
  6
CONTINUOUS
  8
6
 10
 135.21078
 20
-215.78111
 11
 144.95300
 21
-215.78111
  0
INSERT
  8
6
  2
ARROW
 10
 144.95300
 20
-215.78111
 41
  2.435555
 42
  2.435555
 43
  2.435555
 50
   0.000
  0
TEXT
  8
6
 10
 129.12189
 20
-213.34555
 40
   4.871
  1
145
 50
   0.000
  0
LINE
  6
CONTINUOUS
  8
6
 10
 402.17300
 20
-203.65334
 11
 402.17300
 21
-215.83112
  0
LINE
  6
CONTINUOUS
  8
6
 10
 392.43079
 20
-215.78111
 11
 402.17300
 21
-215.78111
  0
INSERT
  8
6
  2
ARROW
 10
 402.17300
 20
-215.78111
 41
  2.435555
 42
  2.435555
 43
  2.435555
 50
   0.000
  0
TEXT
  8
6
 10
 385.12411
 20
-213.34555
 40
   4.871
  1
402
 50
   0.000
  0
LINE
  6
CONTINUOUS
  8
6
 10
 502.17300
 20
-203.65334
 11
 502.17300
 21
-215.83112
  0
LINE
  6
CONTINUOUS
  8
6
 10
 492.43079
 20
-215.78111
 11
 502.17300
 21
-215.78111
  0
INSERT
  8
6
  2
ARROW
 10
 502.17300
 20
-215.78111
 41
  2.435555
 42
  2.435555
 43
  2.435555
 50
   0.000
  0
TEXT
  8
6
 10
 485.12411
 20
-213.34555
 40
   4.871
  1
502
 50
   0.000
  0
TEXT
  8
6
 10
 44.952999
 20
  9.742222
 40
   4.871
  1
DIA:22
 50
   0.000
  0
ENDBLK
  8
2
  0
ENDSEC
  0
SECTION
  2
ENTITIES
  0
LINE
  6
CONTINUOUS
  8
5
 10
  0.000000
 20
  0.000000
 11
 706.31116
 21
  0.000000
  0
LINE
  6
CONTINUOUS
  8
5
 10
 706.31116
 20
  0.000000
 11
 706.31116
 21
 444.48889
  0
LINE
  6
CONTINUOUS
  8
5
 10
 706.31116
 20
 444.48889
 11
  0.000000
 21
 444.48889
  0
LINE
  6
CONTINUOUS
  8
5
 10
  0.000000
 20
 444.48889
 11
  0.000000
 21
  0.000000
  0
TEXT
  8
5
 10
  9.742222
 20
  4.871111
 40
   9.742
  1
YIELD:345.0
 50
   0.000
  0
TEXT
  8
5
 10
  9.742222
 20
 19.484444
 40
   9.742
  1
THICKNESS:16
 50
   0.000
  0
TEXT
  8
5
 10
  9.742222
 20
 34.097778
 40
   9.742
  1
QUANTITY:2
 50
   0.000
  0
TEXT
  8
5
 10
  9.742222
 20
 48.711113
 40
   9.742
  1
DRAWING:BE1
 50
   0.000
  0
TEXT
  8
5
 10
  9.742222
 20
 63.324448
 40
   9.742
  1
MARK:BE1
 50
   0.000
  0
TEXT
  8
5
 10
  9.742222
 20
 77.937782
 40
   9.742
  1
JOB:C463-002
 50
   0.000
  0
INSERT
  8
2
  2
PLATE
 10
 79.155579
 20
 322.24445
 41
  1.000000
 42
  1.000000
 43
  1.000000
 50
   0.000
  0
ENDSEC
  0
EOF
