999
SOURCE:MBS   PROGRAM:CLP_DXF   CELL:CLP_BOLT   CLASS:SHOP   MODE:
  0
SECTION
  2
HEADER
  9
$EXTMIN
 10
   0.000
 20
   0.000
  9
$EXTMAX
 10
 297.000
 20
 210.000
  9
$LIMMIN
 10
   0.000
 20
   0.000
  9
$LIMMAX
 10
 297.000
 20
 210.000
  9
$FILLMODE
 70
     1
  9
$LTSCALE
 40
  0.125
  9
$HANDLING
 70
     0
  0
ENDSEC
  0
SECTION
  2
TABLES
  0
TABLE
  2
LTYPE
 70
     4
  0
LTYPE
  2
CONTIN
 70
    64
  3
SOLID LINE
 72
    65
 73
     0
 40
0.0
  0
LTYPE
  2
CONTINUOUS
 70
    64
  3
SOLID LINE
 72
    65
 73
     0
 40
0.0
  0
LTYPE
  2
CENTER
 70
    64
  3
____ _ ____ _ ____ _ ____ _ ____ _ ____ _ ____
 72
    65
 73
     4
 40
 50.80
 49
 31.75
 49
 -6.35
 49
  6.35
 49
 -6.35
  0
LTYPE
  2
DASHED
 70
    64
  3
__ __ __ __ __ __ __ __ __ __ __ __ __ __ __ 
 72
    65
 73
     2
 40
 38.10
 49
 25.40
 49
-12.70
  0
ENDTAB
  0
TABLE
  2
LAYER
 70
    50
  0
LAYER
  2
0
 70
     0
 62
     7
  6
CONTIN
  0
LAYER
  2
1
 70
     0
 62
     7
  6
CONTIN
  0
LAYER
  2
2
 70
     0
 62
     7
  6
CONTIN
  0
LAYER
  2
3
 70
     0
 62
     1
  6
CONTIN
  0
LAYER
  2
4
 70
     0
 62
     1
  6
CONTIN
  0
LAYER
  2
5
 70
     0
 62
     7
  6
DASHED
  0
LAYER
  2
6
 70
     0
 62
     4
  6
CONTIN
  0
LAYER
  2
7
 70
     0
 62
     3
  6
DASHED
  0
LAYER
  2
8
 70
     0
 62
     3
  6
DASHED
  0
LAYER
  2
9
 70
     0
 62
     7
  6
CONTIN
  0
LAYER
  2
10
 70
     0
 62
     7
  6
CONTIN
  0
LAYER
  2
11
 70
     0
 62
     7
  6
CONTIN
  0
LAYER
  2
12
 70
     0
 62
     2
  6
CONTIN
  0
LAYER
  2
13
 70
     0
 62
     2
  6
CONTIN
  0
LAYER
  2
14
 70
     0
 62
     7
  6
CONTIN
  0
LAYER
  2
15
 70
     0
 62
     6
  6
CONTIN
  0
LAYER
  2
16
 70
     0
 62
     7
  6
CONTIN
  0
LAYER
  2
17
 70
     0
 62
     7
  6
CONTIN
  0
LAYER
  2
18
 70
     0
 62
     4
  6
CONTIN
  0
LAYER
  2
19
 70
     0
 62
     7
  6
CONTIN
  0
LAYER
  2
20
 70
     0
 62
     7
  6
CONTIN
  0
LAYER
  2
21
 70
     0
 62
     7
  6
CONTIN
  0
LAYER
  2
22
 70
     0
 62
     7
  6
CONTIN
  0
LAYER
  2
23
 70
     0
 62
     7
  6
CONTIN
  0
LAYER
  2
24
 70
     0
 62
     7
  6
CONTIN
  0
LAYER
  2
25
 70
     0
 62
     7
  6
CONTIN
  0
LAYER
  2
26
 70
     0
 62
     7
  6
CONTIN
  0
LAYER
  2
27
 70
     0
 62
     7
  6
CONTIN
  0
LAYER
  2
28
 70
     0
 62
     7
  6
CONTIN
  0
LAYER
  2
29
 70
     0
 62
     7
  6
CONTIN
  0
LAYER
  2
30
 70
     0
 62
     7
  6
CONTIN
  0
LAYER
  2
31
 70
     0
 62
     7
  6
DASHED
  0
LAYER
  2
32
 70
     0
 62
     7
  6
CONTIN
  0
LAYER
  2
33
 70
     0
 62
     7
  6
DASHED
  0
LAYER
  2
34
 70
     0
 62
     7
  6
DASHED
  0
LAYER
  2
35
 70
     0
 62
     7
  6
CONTIN
  0
LAYER
  2
36
 70
     0
 62
     7
  6
CONTIN
  0
LAYER
  2
37
 70
     0
 62
     7
  6
CONTIN
  0
LAYER
  2
38
 70
     0
 62
     7
  6
CONTIN
  0
LAYER
  2
39
 70
     0
 62
     7
  6
CONTIN
  0
LAYER
  2
40
 70
     0
 62
     7
  6
CONTIN
  0
LAYER
  2
41
 70
     0
 62
     7
  6
CONTIN
  0
LAYER
  2
42
 70
     0
 62
     7
  6
CONTIN
  0
LAYER
  2
43
 70
     0
 62
     7
  6
CONTIN
  0
LAYER
  2
44
 70
     0
 62
     7
  6
CONTIN
  0
LAYER
  2
45
 70
     0
 62
     7
  6
CONTIN
  0
LAYER
  2
46
 70
     0
 62
     7
  6
CONTIN
  0
LAYER
  2
47
 70
     0
 62
     7
  6
CONTIN
  0
LAYER
  2
48
 70
     0
 62
     7
  6
CONTIN
  0
LAYER
  2
49
 70
     0
 62
     7
  6
CONTIN
  0
LAYER
  2
50
 70
     0
 62
     7
  6
CONTIN
  0
ENDTAB
  0
TABLE
  2
STYLE
 70
  0
  0
STYLE
  2
SIMPLEX
 70
  0
 40
  0.000
 41
  1.000
 42
  1.000
 50
  0.000
 71
  0
  3
SIMPLEX
  0
STYLE
  2
ROMANS
 70
  0
 40
  0.000
 41
  1.000
 42
  1.000
 50
  0.000
 71
  0
  3
ROMANS
  0
STYLE
  2
OPEN
 70
  0
 40
  0.000
 41
  1.000
 42
  1.000
 50
  0.000
 71
  0
  3
SIMPLEX
  0
STYLE
  2
ARIAL
 70
  0
 40
  0.000
 41
  1.000
 42
  1.000
 50
  0.000
 71
  0
  3
ARIAL.TTF
  0
STYLE
  2
VERDANAB
 70
  0
 40
  0.000
 41
  1.000
 42
  1.000
 50
  0.000
 71
  0
  3
VERDANAB.TTF
  0
ENDTAB
  0
ENDSEC
  0
SECTION
  2
BLOCKS
  0
BLOCK
  8
0
  2
ARROWP
 70
     0
 10
   0.000
 20
   0.000
  0
LINE
  8
0
 10
   0.000
 20
   0.000
 11
 -13.210
 21
  -2.202
  0
LINE
  8
0
 10
   0.000
 20
   0.000
 11
 -13.210
 21
   2.202
  0
LINE
  8
0
 10
 -13.210
 20
   2.202
 11
 -13.210
 21
  -2.202
  0
ENDBLK
  8
0
  0
BLOCK
  8
0
  2
ARROW
 70
     0
 10
   0.000
 20
   0.000
  0
LINE
  8
0
 10
   0.000
 20
   0.000
 11
 -13.210
 21
  -2.202
  0
LINE
  8
0
 10
   0.000
 20
   0.000
 11
 -13.210
 21
   2.202
  0
LINE
  8
0
 10
 -13.210
 20
   2.202
 11
 -13.210
 21
  -2.202
  0
ENDBLK
  8
0
  0
BLOCK
  8
3
  2
CIRCLE
 70
     0
 10
   0.000
 20
   0.000
  0
CIRCLE
  8
0
 10
   0.000
 20
   0.000
 40
  25.400
  0
ENDBLK
  8
3
  0
BLOCK
  8
1
  2
PCROSS
 70
     0
 10
   0.000
 20
   0.000
  0
LINE
  8
10
 10
   0.000
 20
   0.000
 11
   0.000
 21
   6.527
  0
LINE
  8
10
 10
  -0.635
 20
   3.748
 11
   0.635
 21
   3.748
  0
LINE
  8
2
 10
   0.000
 20
   1.632
 11
   4.572
 21
   1.632
  0
INSERT
  8
2
  2
ARROWP
 10
   0.000
 20
   1.632
 41
   0.250
 42
   0.250
 43
   0.250
 50
 180.000
  0
LINE
  8
10
 10
   0.000
 20
   0.000
 11
  44.273
 21
   0.000
  0
LINE
  8
10
 10
  28.998
 20
   0.635
 11
  28.998
 21
  -0.635
  0
LINE
  8
10
 10
  41.496
 20
   0.635
 11
  41.496
 21
  -0.635
  0
LINE
  8
2
 10
  -4.172
 20
   0.000
 11
   0.908
 21
   0.000
  0
LINE
  8
2
 10
  -1.632
 20
   0.000
 11
  -1.632
 21
  -4.572
  0
INSERT
  8
2
  2
ARROWP
 10
  -1.632
 20
   0.000
 41
   0.250
 42
   0.250
 43
   0.250
 50
  90.000
  0
ARC
  8
2
 10
   0.000
 20
   0.000
 40
   1.632
 50
  90.000
 51
 180.000
  0
TEXT
  8
21
 7
SIMPLEX
 10
  -18.974
 20
  -12.794
 40
    6.325
  1
 90.0
 50
    0.000
  0
ENDBLK
  8
1
  0
BLOCK
  8
1
  2
PLATE
 70
     0
 10
 148.500
 20
 105.000
  0
LINE
  8
13
 10
 -54.725
 20
 177.225
 11
 -54.725
 21
  32.775
  0
LINE
  8
13
 10
 -54.725
 20
  32.775
 11
 351.725
 21
  32.775
  0
LINE
  8
13
 10
 351.725
 20
  32.775
 11
 351.725
 21
 177.225
  0
LINE
  8
13
 10
 351.725
 20
 177.225
 11
 -54.725
 21
 177.225
  0
LINE
  8
2
 10
 -58.789
 20
  32.775
 11
-160.402
 21
  32.785
  0
LINE
  8
2
 10
 -58.776
 20
 177.225
 11
-160.388
 21
 177.235
  0
LINE
  8
2
 10
-159.132
 20
  32.785
 11
-159.118
 21
 177.235
  0
INSERT
  8
2
  2
ARROW
 10
-159.132
 20
  32.785
 41
   1.000
 42
   1.000
 43
   1.000
 50
 269.994
  0
INSERT
  8
2
  2
ARROW
 10
-159.118
 20
 177.235
 41
   1.000
 42
   1.000
 43
   1.000
 50
  89.994
  0
TEXT
  8
11
 7
SIMPLEX
 10
 -165.223
 20
   88.245
 40
   12.193
  1
144
 50
   89.994
  0
LINE
  8
2
 10
 -54.725
 20
 181.290
 11
 -54.725
 21
 282.902
  0
LINE
  8
2
 10
 351.725
 20
 181.290
 11
 351.725
 21
 282.902
  0
LINE
  8
2
 10
 -54.725
 20
 281.632
 11
 351.725
 21
 281.632
  0
INSERT
  8
2
  2
ARROW
 10
 -54.725
 20
 281.632
 41
   1.000
 42
   1.000
 43
   1.000
 50
 180.000
  0
INSERT
  8
2
  2
ARROW
 10
 351.725
 20
 281.632
 41
   1.000
 42
   1.000
 43
   1.000
 50
   0.000
  0
TEXT
  8
11
 7
SIMPLEX
 10
  130.210
 20
  287.729
 40
   12.193
  1
406
 50
    0.000
  0
LINE
  8
7
 10
  -2.505
 20
  32.775
 11
  -2.505
 21
 177.225
  0
TEXT
  8
11
 7
SIMPLEX
 10
   -8.602
 20
  105.000
 40
   12.193
  1
 
 50
   90.000
  0
LINE
  8
2
 10
 -54.725
 20
   3.307
 11
 -54.725
 21
 -60.200
  0
LINE
  8
2
 10
  -2.505
 20
   3.307
 11
  -2.505
 21
 -60.200
  0
LINE
  8
2
 10
 -54.725
 20
 -58.930
 11
  -2.505
 21
 -58.930
  0
INSERT
  8
2
  2
ARROW
 10
 -54.725
 20
 -58.930
 41
   1.000
 42
   1.000
 43
   1.000
 50
 180.000
  0
INSERT
  8
2
  2
ARROW
 10
  -2.505
 20
 -58.930
 41
   1.000
 42
   1.000
 43
   1.000
 50
   0.000
  0
TEXT
  8
11
 7
SIMPLEX
 10
  -40.808
 20
  -52.834
 40
   12.193
  1
52
 50
    0.000
  0
INSERT
  8
6
  2
CIRCLE
 10
 -32.495
 20
  55.005
 41
   0.276
 42
   0.276
 43
   0.276
 50
   0.000
  0
INSERT
  8
6
  2
CIRCLE
 10
 -32.495
 20
 155.005
 41
   0.276
 42
   0.276
 43
   0.276
 50
   0.000
  0
INSERT
  8
6
  2
CIRCLE
 10
 229.505
 20
  55.005
 41
   0.276
 42
   0.276
 43
   0.276
 50
   0.000
  0
INSERT
  8
6
  2
CIRCLE
 10
 229.505
 20
 155.005
 41
   0.276
 42
   0.276
 43
   0.276
 50
   0.000
  0
INSERT
  8
6
  2
CIRCLE
 10
 329.505
 20
  55.005
 41
   0.276
 42
   0.276
 43
   0.276
 50
   0.000
  0
INSERT
  8
6
  2
CIRCLE
 10
 329.505
 20
 155.005
 41
   0.276
 42
   0.276
 43
   0.276
 50
   0.000
  0
LINE
  8
2
 10
 -58.789
 20
  32.775
 11
 -96.894
 21
  32.779
  0
LINE
  8
2
 10
 -58.787
 20
  55.005
 11
 -96.892
 21
  55.009
  0
LINE
  8
2
 10
 -95.624
 20
  32.779
 11
 -95.622
 21
  55.009
  0
INSERT
  8
2
  2
ARROW
 10
 -95.624
 20
  32.779
 41
   1.000
 42
   1.000
 43
   1.000
 50
 269.994
  0
INSERT
  8
2
  2
ARROW
 10
 -95.622
 20
  55.009
 41
   1.000
 42
   1.000
 43
   1.000
 50
  89.994
  0
TEXT
  8
11
 7
SIMPLEX
 10
 -101.721
 20
   32.780
 40
   11.115
  1
22
 50
   89.994
  0
LINE
  8
2
 10
 -58.789
 20
  55.005
 11
 -96.894
 21
  55.009
  0
LINE
  8
2
 10
 -58.780
 20
 155.005
 11
 -96.885
 21
 155.009
  0
LINE
  8
2
 10
 -95.624
 20
  55.009
 11
 -95.615
 21
 155.009
  0
INSERT
  8
2
  2
ARROW
 10
 -95.624
 20
  55.009
 41
   1.000
 42
   1.000
 43
   1.000
 50
 269.994
  0
INSERT
  8
2
  2
ARROW
 10
 -95.615
 20
 155.009
 41
   1.000
 42
   1.000
 43
   1.000
 50
  89.994
  0
TEXT
  8
11
 7
SIMPLEX
 10
 -101.718
 20
   88.243
 40
   12.193
  1
100
 50
   89.994
  0
LINE
  8
2
 10
 -58.789
 20
 155.005
 11
 -96.894
 21
 155.009
  0
LINE
  8
2
 10
 -58.787
 20
 177.225
 11
 -96.892
 21
 177.229
  0
LINE
  8
2
 10
 -95.624
 20
 155.009
 11
 -95.622
 21
 177.229
  0
INSERT
  8
2
  2
ARROW
 10
 -95.624
 20
 155.009
 41
   1.000
 42
   1.000
 43
   1.000
 50
 269.994
  0
INSERT
  8
2
  2
ARROW
 10
 -95.622
 20
 177.229
 41
   1.000
 42
   1.000
 43
   1.000
 50
  89.994
  0
TEXT
  8
11
 7
SIMPLEX
 10
 -101.721
 20
  155.010
 40
   11.110
  1
22
 50
   89.994
  0
LINE
  8
2
 10
 -54.725
 20
 181.290
 11
 -54.725
 21
 201.612
  0
LINE
  8
2
 10
 -32.495
 20
 181.290
 11
 -32.495
 21
 201.612
  0
LINE
  8
2
 10
 -54.725
 20
 200.342
 11
 -32.495
 21
 200.342
  0
INSERT
  8
2
  2
ARROW
 10
 -54.725
 20
 200.342
 41
   1.000
 42
   1.000
 43
   1.000
 50
 180.000
  0
INSERT
  8
2
  2
ARROW
 10
 -32.495
 20
 200.342
 41
   1.000
 42
   1.000
 43
   1.000
 50
   0.000
  0
TEXT
  8
11
 7
SIMPLEX
 10
  -54.725
 20
  206.439
 40
   11.115
  1
22
 50
    0.000
  0
LINE
  8
2
 10
 -54.725
 20
  28.710
 11
 -54.725
 21
  -9.394
  0
LINE
  8
2
 10
 -32.495
 20
  28.710
 11
 -32.495
 21
  -9.394
  0
LINE
  8
2
 10
 -54.725
 20
  -8.124
 11
 -32.495
 21
  -8.124
  0
INSERT
  8
2
  2
ARROW
 10
 -54.725
 20
  -8.124
 41
   1.000
 42
   1.000
 43
   1.000
 50
 180.000
  0
INSERT
  8
2
  2
ARROW
 10
 -32.495
 20
  -8.124
 41
   1.000
 42
   1.000
 43
   1.000
 50
   0.000
  0
TEXT
  8
11
 7
SIMPLEX
 10
  -54.725
 20
   -2.027
 40
   11.115
  1
22
 50
    0.000
  0
LINE
  8
2
 10
 229.505
 20
 181.290
 11
 229.505
 21
 201.612
  0
LINE
  8
2
 10
 213.247
 20
 200.342
 11
 229.505
 21
 200.342
  0
INSERT
  8
2
  2
ARROW
 10
 229.505
 20
 200.342
 41
   1.000
 42
   1.000
 43
   1.000
 50
   0.000
  0
TEXT
  8
11
 7
SIMPLEX
 10
  186.828
 20
  206.439
 40
   12.193
  1
284
 50
    0.000
  0
LINE
  8
2
 10
 -32.495
 20
  28.710
 11
 -32.495
 21
  -9.394
  0
LINE
  8
2
 10
 229.505
 20
  28.710
 11
 229.505
 21
  -9.394
  0
LINE
  8
2
 10
 -32.495
 20
  -8.124
 11
 229.505
 21
  -8.124
  0
INSERT
  8
2
  2
ARROW
 10
 -32.495
 20
  -8.124
 41
   1.000
 42
   1.000
 43
   1.000
 50
 180.000
  0
INSERT
  8
2
  2
ARROW
 10
 229.505
 20
  -8.124
 41
   1.000
 42
   1.000
 43
   1.000
 50
   0.000
  0
TEXT
  8
11
 7
SIMPLEX
 10
   80.215
 20
   -2.027
 40
   12.193
  1
262
 50
    0.000
  0
LINE
  8
2
 10
 329.505
 20
 181.290
 11
 329.505
 21
 238.193
  0
LINE
  8
2
 10
 313.247
 20
 236.923
 11
 329.505
 21
 236.923
  0
INSERT
  8
2
  2
ARROW
 10
 329.505
 20
 236.923
 41
   1.000
 42
   1.000
 43
   1.000
 50
   0.000
  0
TEXT
  8
11
 7
SIMPLEX
 10
  286.828
 20
  243.019
 40
   12.193
  1
384
 50
    0.000
  0
LINE
  8
2
 10
 229.505
 20
  28.710
 11
 229.505
 21
  -9.394
  0
LINE
  8
2
 10
 329.505
 20
  28.710
 11
 329.505
 21
  -9.394
  0
LINE
  8
2
 10
 229.505
 20
  -8.124
 11
 329.505
 21
  -8.124
  0
INSERT
  8
2
  2
ARROW
 10
 229.505
 20
  -8.124
 41
   1.000
 42
   1.000
 43
   1.000
 50
 180.000
  0
INSERT
  8
2
  2
ARROW
 10
 329.505
 20
  -8.124
 41
   1.000
 42
   1.000
 43
   1.000
 50
   0.000
  0
TEXT
  8
11
 7
SIMPLEX
 10
  262.739
 20
   -2.027
 40
   12.193
  1
100
 50
    0.000
  0
LINE
  8
2
 10
 329.505
 20
  28.710
 11
 329.505
 21
  -9.394
  0
LINE
  8
2
 10
 351.725
 20
  28.710
 11
 351.725
 21
  -9.394
  0
LINE
  8
2
 10
 329.505
 20
  -8.124
 11
 351.725
 21
  -8.124
  0
INSERT
  8
2
  2
ARROW
 10
 329.505
 20
  -8.124
 41
   1.000
 42
   1.000
 43
   1.000
 50
 180.000
  0
INSERT
  8
2
  2
ARROW
 10
 351.725
 20
  -8.124
 41
   1.000
 42
   1.000
 43
   1.000
 50
   0.000
  0
TEXT
  8
11
 7
SIMPLEX
 10
  329.505
 20
   -2.027
 40
   11.110
  1
22
 50
    0.000
  0
ENDBLK
  8
1
  0
ENDSEC
  0
SECTION
  2
ENTITIES
  0
LINE
  8
22
 10
   0.000
 20
   0.000
 11
 297.000
 21
   0.000
  0
LINE
  8
22
 10
 297.000
 20
   0.000
 11
 297.000
 21
 210.000
  0
LINE
  8
22
 10
 297.000
 20
 210.000
 11
   0.000
 21
 210.000
  0
LINE
  8
22
 10
   0.000
 20
 210.000
 11
   0.000
 21
   0.000
  0
LINE
  8
0
 10
 175.080
 20
  10.160
 11
 297.000
 21
  10.160
  0
LINE
  8
0
 10
 175.080
 20
  20.320
 11
 297.000
 21
  20.320
  0
LINE
  8
0
 10
 175.080
 20
  20.320
 11
 175.080
 21
   0.000
  0
LINE
  8
0
 10
 205.560
 20
  10.160
 11
 205.560
 21
   0.000
  0
LINE
  8
0
 10
 236.040
 20
  10.160
 11
 236.040
 21
   0.000
  0
LINE
  8
0
 10
 266.520
 20
  10.160
 11
 266.520
 21
   0.000
  0
TEXT
  8
0
 10
  182.700
 20
    7.620
 40
    2.286
  1
JOB
 50
    0.000
  0
TEXT
  8
0
 10
  228.420
 20
   17.780
 40
    2.286
  1
CUSTOMER
 50
    0.000
  0
TEXT
  8
0
 10
  213.180
 20
    7.620
 40
    2.286
  1
CHECKED BY
 50
    0.000
  0
TEXT
  8
0
 10
  243.660
 20
    7.620
 40
    2.286
  1
DATE
 50
    0.000
  0
TEXT
  8
0
 10
  271.600
 20
    7.620
 40
    2.286
  1
DRAWING
 50
    0.000
  0
TEXT
  8
0
 10
  215.720
 20
   12.700
 40
    2.857
  1
 
 50
    0.000
  0
TEXT
  8
0
 10
  177.620
 20
    2.540
 40
    2.857
  1
C463-002
 50
    0.000
  0
TEXT
  8
0
 10
  238.580
 20
    2.540
 40
    2.857
  1
18/DEC/2025
 50
    0.000
  0
TEXT
  8
21
 7
SIMPLEX
 10
    3.048
 20
  203.904
 40
    3.048
  1
MARK
 50
    0.000
  0
TEXT
  8
21
 7
SIMPLEX
 10
   30.480
 20
  203.904
 40
    3.048
  1
:
 50
    0.000
  0
TEXT
  8
21
 7
SIMPLEX
 10
   33.528
 20
  203.904
 40
    3.048
  1
d1
 50
    0.000
  0
TEXT
  8
21
 7
SIMPLEX
 10
    3.048
 20
  197.808
 40
    3.048
  1
QUANTITY
 50
    0.000
  0
TEXT
  8
21
 7
SIMPLEX
 10
   30.480
 20
  197.808
 40
    3.048
  1
:
 50
    0.000
  0
TEXT
  8
21
 7
SIMPLEX
 10
   33.528
 20
  197.808
 40
    3.048
  1
1
 50
    0.000
  0
TEXT
  8
21
 7
SIMPLEX
 10
    3.048
 20
  191.712
 40
    3.048
  1
SIZE
 50
    0.000
  0
TEXT
  8
21
 7
SIMPLEX
 10
   30.480
 20
  191.712
 40
    3.048
  1
:
 50
    0.000
  0
TEXT
  8
21
 7
SIMPLEX
 10
   33.528
 20
  191.712
 40
    3.048
  1
5 x 144 x 406
 50
    0.000
  0
INSERT
  8
6
  2
CIRCLE
 10
 252.731
 20
 205.428
 41
   0.060
 42
   0.060
 43
   0.060
 50
   0.000
  0
TEXT
  8
21
 7
SIMPLEX
 10
  257.147
 20
  203.904
 40
    3.048
  1
Dia=14
 50
    0.000
  0
INSERT
  8
1
  2
PLATE
 10
 148.500
 20
 105.000
 41
   0.375
 42
   0.375
 43
   0.375
 50
   0.000
  0
INSERT
  8
1
  2
PCROSS
 10
 246.635
 20
 182.568
 41
   0.482
 42
   0.482
 43
   0.482
 50
   0.000
  0
ENDSEC
  0
EOF
