999
SOURCE:MBS   PROGRAM:PLT_DXF   CELL:RF_BEP   CLASS:SCALED   MODE:---
  0
SECTION
  2
HEADER
  9
$EXTMIN
 10
          0.000
 20
          0.000
  9
$EXTMAX
 10
        911.245
 20
        573.456
  9
$LIMMIN
 10
          0.000
 20
          0.000
  9
$LIMMAX
 10
        911.245
 20
        573.456
  9
$FILLMODE
 70
     1
  9
$LTSCALE
 40
  0.125
  9
$HANDLING
 70
     0
  0
ENDSEC
  0
SECTION
  2
TABLES
  0
TABLE
  2
LTYPE
 70
     3
  0
LTYPE
  2
CONTINUOUS
 70
    64
  3
SOLID LINE
 72
    65
 73
     0
 40
0.0
  0
LTYPE
  2
CENTER
 70
    64
  3
____ _ ____ _ ____ _ ____ _ ____ _ ____ _ ____
 72
    65
 73
     4
 40
2.0
 49
1.25
 49
-0.25
 49
0.25
 49
-0.25
  0
LTYPE
  2
DASHED
 70
    64
  3
__ __ __ __ __ __ __ __ __ __ __ __ __ __ __ 
 72
    65
 73
     2
 40
0.75
 49
0.5
 49
-0.25
  0
ENDTAB
  0
TABLE
  2
LAYER
 70
    51
  0
LAYER
  2
0
 70
     0
 62
     7
  6
CONTINUOUS
  0
LAYER
  2
1
 70
     0
 62
     7
  6
CONTINUOUS
  0
LAYER
  2
2
 70
     0
 62
     7
  6
CONTINUOUS
  0
LAYER
  2
3
 70
     0
 62
     1
  6
CONTINUOUS
  0
LAYER
  2
4
 70
     0
 62
     1
  6
CONTINUOUS
  0
LAYER
  2
5
 70
     0
 62
     7
  6
CONTINUOUS
  0
LAYER
  2
6
 70
     0
 62
     4
  6
CONTINUOUS
  0
LAYER
  2
7
 70
     0
 62
     3
  6
CONTINUOUS
  0
LAYER
  2
8
 70
     0
 62
     3
  6
CONTINUOUS
  0
LAYER
  2
9
 70
     0
 62
     7
  6
CONTINUOUS
  0
LAYER
  2
10
 70
     0
 62
     7
  6
CONTINUOUS
  0
LAYER
  2
11
 70
     0
 62
     7
  6
CONTINUOUS
  0
LAYER
  2
12
 70
     0
 62
     2
  6
CONTINUOUS
  0
LAYER
  2
13
 70
     0
 62
     2
  6
CONTINUOUS
  0
LAYER
  2
14
 70
     0
 62
     7
  6
CONTINUOUS
  0
LAYER
  2
15
 70
     0
 62
     6
  6
CONTINUOUS
  0
LAYER
  2
16
 70
     0
 62
     7
  6
CONTINUOUS
  0
LAYER
  2
17
 70
     0
 62
     7
  6
CONTINUOUS
  0
LAYER
  2
18
 70
     0
 62
     4
  6
CONTINUOUS
  0
LAYER
  2
19
 70
     0
 62
     7
  6
CONTINUOUS
  0
LAYER
  2
20
 70
     0
 62
     7
  6
CONTINUOUS
  0
LAYER
  2
21
 70
     0
 62
     7
  6
CONTINUOUS
  0
LAYER
  2
22
 70
     0
 62
     7
  6
CONTINUOUS
  0
LAYER
  2
23
 70
     0
 62
     7
  6
CONTINUOUS
  0
LAYER
  2
24
 70
     0
 62
     7
  6
CONTINUOUS
  0
LAYER
  2
25
 70
     0
 62
     7
  6
CONTINUOUS
  0
LAYER
  2
26
 70
     0
 62
     7
  6
CONTINUOUS
  0
LAYER
  2
27
 70
     0
 62
     7
  6
CONTINUOUS
  0
LAYER
  2
28
 70
     0
 62
     7
  6
CONTINUOUS
  0
LAYER
  2
29
 70
     0
 62
     7
  6
CONTINUOUS
  0
LAYER
  2
30
 70
     0
 62
     7
  6
CONTINUOUS
  0
LAYER
  2
31
 70
     0
 62
     7
  6
CONTINUOUS
  0
LAYER
  2
32
 70
     0
 62
     7
  6
CONTINUOUS
  0
LAYER
  2
33
 70
     0
 62
     7
  6
CONTINUOUS
  0
LAYER
  2
34
 70
     0
 62
     7
  6
CONTINUOUS
  0
LAYER
  2
35
 70
     0
 62
     7
  6
CONTINUOUS
  0
LAYER
  2
36
 70
     0
 62
     7
  6
CONTINUOUS
  0
LAYER
  2
37
 70
     0
 62
     7
  6
CONTINUOUS
  0
LAYER
  2
38
 70
     0
 62
     7
  6
CONTINUOUS
  0
LAYER
  2
39
 70
     0
 62
     7
  6
CONTINUOUS
  0
LAYER
  2
40
 70
     0
 62
     7
  6
CONTINUOUS
  0
LAYER
  2
41
 70
     0
 62
     7
  6
CONTINUOUS
  0
LAYER
  2
42
 70
     0
 62
     7
  6
CONTINUOUS
  0
LAYER
  2
43
 70
     0
 62
     7
  6
CONTINUOUS
  0
LAYER
  2
44
 70
     0
 62
     7
  6
CONTINUOUS
  0
LAYER
  2
45
 70
     0
 62
     7
  6
CONTINUOUS
  0
LAYER
  2
46
 70
     0
 62
     7
  6
CONTINUOUS
  0
LAYER
  2
47
 70
     0
 62
     7
  6
CONTINUOUS
  0
LAYER
  2
48
 70
     0
 62
     7
  6
CONTINUOUS
  0
LAYER
  2
49
 70
     0
 62
     7
  6
CONTINUOUS
  0
LAYER
  2
50
 70
     0
 62
     7
  6
CONTINUOUS
  0
ENDTAB
  0
ENDSEC
  0
SECTION
  2
BLOCKS
  0
BLOCK
  8
2
  2
ARROW
 70
     0
 10
  0.000000
 20
  0.000000
  0
LINE
  6
CONTINUOUS
  8
2
 10
  0.000000
 20
  0.000000
 11
 -1.000000
 21
  0.166667
  0
LINE
  6
CONTINUOUS
  8
2
 10
 -1.000000
 20
  0.166667
 11
 -1.000000
 21
 -0.166667
  0
LINE
  6
CONTINUOUS
  8
2
 10
 -1.000000
 20
 -0.166667
 11
  0.000000
 21
  0.000000
  0
ENDBLK
  8
2
  0
BLOCK
  8
3
  2
CIRCLE
 70
     0
 10
  0.000000
 20
  0.000000
  0
CIRCLE
  8
1
 10
   0.000
 20
   0.000
 40
   1.000
  0
ENDBLK
  8
3
  0
BLOCK
  8
2
  2
PLATE
 70
     0
 10
  0.000000
 20
  0.000000
  0
CIRCLE
  6
CONTINUOUS
  8
5
 10
  0.000000
 20
-125.00000
 40
  0.100000
  0
LINE
  6
CONTINUOUS
  8
5
 10
 -0.100000
 20
-125.00000
 11
  0.100000
 21
-125.00000
  0
LINE
  6
CONTINUOUS
  8
5
 10
  0.000000
 20
-125.10000
 11
  0.000000
 21
-124.90000
  0
TEXT
  8
5
 10
  0.000000
 20
-125.00000
 40
   0.015
  1
ZERO
 50
   0.000
  0
LINE
  6
CONTINUOUS
  8
3
 10
  0.000000
 20
  0.000000
 11
  0.000000
 21
-250.00000
  0
LINE
  6
CONTINUOUS
  8
3
 10
  0.000000
 20
-250.00000
 11
 707.00000
 21
-250.00000
  0
LINE
  6
CONTINUOUS
  8
3
 10
 707.00000
 20
-250.00000
 11
 707.00000
 21
  0.000000
  0
LINE
  6
CONTINUOUS
  8
3
 10
 707.00000
 20
  0.000000
 11
  0.000000
 21
  0.000000
  0
CIRCLE
  6
CONTINUOUS
  8
4
 10
 75.000000
 20
-75.000000
 40
 15.000000
  0
CIRCLE
  6
CONTINUOUS
  8
4
 10
 75.000000
 20
-175.00000
 40
 15.000000
  0
CIRCLE
  6
CONTINUOUS
  8
4
 10
 225.00000
 20
-75.000000
 40
 15.000000
  0
CIRCLE
  6
CONTINUOUS
  8
4
 10
 225.00000
 20
-175.00000
 40
 15.000000
  0
CIRCLE
  6
CONTINUOUS
  8
4
 10
 482.00000
 20
-75.000000
 40
 15.000000
  0
CIRCLE
  6
CONTINUOUS
  8
4
 10
 482.00000
 20
-175.00000
 40
 15.000000
  0
CIRCLE
  6
CONTINUOUS
  8
4
 10
 632.00000
 20
-75.000000
 40
 15.000000
  0
CIRCLE
  6
CONTINUOUS
  8
4
 10
 632.00000
 20
-175.00000
 40
 15.000000
  0
LINE
  6
CONTINUOUS
  8
6
 10
 -4.713334
 20
-250.00000
 11
-34.171669
 21
-250.00000
  0
LINE
  6
CONTINUOUS
  8
6
 10
 -4.713315
 20
  0.000000
 11
-34.171650
 21
  0.000003
  0
LINE
  6
CONTINUOUS
  8
6
 10
-34.121670
 20
-250.00000
 11
-34.121651
 21
  0.000003
  0
INSERT
  8
6
  2
ARROW
 10
-34.121670
 20
-250.00000
 41
  3.142222
 42
  3.142222
 43
  3.142222
 50
 270.000
  0
INSERT
  8
6
  2
ARROW
 10
-34.121651
 20
  0.000003
 41
  3.142222
 42
  3.142222
 43
  3.142222
 50
  90.000
  0
TEXT
  8
6
 10
-37.263882
 20
-134.42667
 40
   6.284
  1
250
 50
  90.000
  0
LINE
  6
CONTINUOUS
  8
6
 10
  0.000000
 20
  4.713334
 11
  0.000000
 21
 34.171669
  0
LINE
  6
CONTINUOUS
  8
6
 10
 707.00000
 20
  4.713334
 11
 707.00000
 21
 34.171669
  0
LINE
  6
CONTINUOUS
  8
6
 10
  0.000000
 20
 34.121670
 11
 707.00000
 21
 34.121670
  0
INSERT
  8
6
  2
ARROW
 10
  0.000000
 20
 34.121670
 41
  3.142222
 42
  3.142222
 43
  3.142222
 50
 180.000
  0
INSERT
  8
6
  2
ARROW
 10
 707.00000
 20
 34.121670
 41
  3.142222
 42
  3.142222
 43
  3.142222
 50
   0.000
  0
TEXT
  8
6
 10
 344.07333
 20
 37.263893
 40
   6.284
  1
707
 50
   0.000
  0
LINE
  6
CONTINUOUS
  8
6
 10
 711.71332
 20
-75.000000
 11
 741.17163
 21
-75.000000
  0
LINE
  6
CONTINUOUS
  8
6
 10
 711.71332
 20
  0.000000
 11
 741.17163
 21
 -0.000003
  0
LINE
  6
CONTINUOUS
  8
6
 10
 741.12164
 20
-75.000000
 11
 741.12164
 21
 -0.000003
  0
INSERT
  8
6
  2
ARROW
 10
 741.12164
 20
-75.000000
 41
  3.142222
 42
  3.142222
 43
  3.142222
 50
 270.000
  0
INSERT
  8
6
  2
ARROW
 10
 741.12164
 20
 -0.000003
 41
  3.142222
 42
  3.142222
 43
  3.142222
 50
  90.000
  0
TEXT
  8
6
 10
 737.97943
 20
-43.784443
 40
   6.284
  1
75
 50
  90.000
  0
LINE
  6
CONTINUOUS
  8
6
 10
 711.71332
 20
-175.00000
 11
 741.17163
 21
-175.00000
  0
LINE
  6
CONTINUOUS
  8
6
 10
 711.71332
 20
-75.000000
 11
 741.17163
 21
-75.000000
  0
LINE
  6
CONTINUOUS
  8
6
 10
 741.12164
 20
-175.00000
 11
 741.12164
 21
-75.000000
  0
INSERT
  8
6
  2
ARROW
 10
 741.12164
 20
-175.00000
 41
  3.142222
 42
  3.142222
 43
  3.142222
 50
 270.000
  0
INSERT
  8
6
  2
ARROW
 10
 741.12164
 20
-75.000000
 41
  3.142222
 42
  3.142222
 43
  3.142222
 50
  90.000
  0
TEXT
  8
6
 10
 737.97943
 20
-133.64111
 40
   6.284
  1
100
 50
  90.000
  0
LINE
  6
CONTINUOUS
  8
6
 10
  0.000000
 20
-254.71333
 11
  0.000000
 21
-270.42444
  0
LINE
  6
CONTINUOUS
  8
6
 10
 75.000000
 20
-254.71333
 11
 75.000000
 21
-270.42444
  0
LINE
  6
CONTINUOUS
  8
6
 10
  0.000000
 20
-270.37445
 11
 75.000000
 21
-270.37445
  0
INSERT
  8
6
  2
ARROW
 10
  0.000000
 20
-270.37445
 41
  3.142222
 42
  3.142222
 43
  3.142222
 50
 180.000
  0
INSERT
  8
6
  2
ARROW
 10
 75.000000
 20
-270.37445
 41
  3.142222
 42
  3.142222
 43
  3.142222
 50
   0.000
  0
TEXT
  8
6
 10
 31.215555
 20
-267.23224
 40
   6.284
  1
75
 50
   0.000
  0
LINE
  6
CONTINUOUS
  8
6
 10
 225.00000
 20
-254.71333
 11
 225.00000
 21
-270.42444
  0
LINE
  6
CONTINUOUS
  8
6
 10
 212.43111
 20
-270.37445
 11
 225.00000
 21
-270.37445
  0
INSERT
  8
6
  2
ARROW
 10
 225.00000
 20
-270.37445
 41
  3.142222
 42
  3.142222
 43
  3.142222
 50
   0.000
  0
TEXT
  8
6
 10
 203.00444
 20
-267.23224
 40
   6.284
  1
225
 50
   0.000
  0
LINE
  6
CONTINUOUS
  8
6
 10
 482.00000
 20
-254.71333
 11
 482.00000
 21
-270.42444
  0
LINE
  6
CONTINUOUS
  8
6
 10
 469.43112
 20
-270.37445
 11
 482.00000
 21
-270.37445
  0
INSERT
  8
6
  2
ARROW
 10
 482.00000
 20
-270.37445
 41
  3.142222
 42
  3.142222
 43
  3.142222
 50
   0.000
  0
TEXT
  8
6
 10
 460.00446
 20
-267.23224
 40
   6.284
  1
482
 50
   0.000
  0
LINE
  6
CONTINUOUS
  8
6
 10
 632.00000
 20
-254.71333
 11
 632.00000
 21
-270.42444
  0
LINE
  6
CONTINUOUS
  8
6
 10
 619.43109
 20
-270.37445
 11
 632.00000
 21
-270.37445
  0
INSERT
  8
6
  2
ARROW
 10
 632.00000
 20
-270.37445
 41
  3.142222
 42
  3.142222
 43
  3.142222
 50
   0.000
  0
TEXT
  8
6
 10
 610.00446
 20
-267.23224
 40
   6.284
  1
632
 50
   0.000
  0
TEXT
  8
6
 10
 75.000000
 20
 12.568889
 40
   6.284
  1
DIA:30
 50
   0.000
  0
ENDBLK
  8
2
  0
ENDSEC
  0
SECTION
  2
ENTITIES
  0
LINE
  6
CONTINUOUS
  8
5
 10
  0.000000
 20
  0.000000
 11
 911.24451
 21
  0.000000
  0
LINE
  6
CONTINUOUS
  8
5
 10
 911.24451
 20
  0.000000
 11
 911.24451
 21
 573.45557
  0
LINE
  6
CONTINUOUS
  8
5
 10
 911.24451
 20
 573.45557
 11
  0.000000
 21
 573.45557
  0
LINE
  6
CONTINUOUS
  8
5
 10
  0.000000
 20
 573.45557
 11
  0.000000
 21
  0.000000
  0
TEXT
  8
5
 10
 12.568889
 20
  6.284444
 40
  12.569
  1
YIELD:345.0
 50
   0.000
  0
TEXT
  8
5
 10
 12.568889
 20
 25.137777
 40
  12.569
  1
THICKNESS:16
 50
   0.000
  0
TEXT
  8
5
 10
 12.568889
 20
 43.991112
 40
  12.569
  1
QUANTITY:8
 50
   0.000
  0
TEXT
  8
5
 10
 12.568889
 20
 62.844444
 40
  12.569
  1
DRAWING:EP1
 50
   0.000
  0
TEXT
  8
5
 10
 12.568889
 20
 81.697777
 40
  12.569
  1
MARK:EP1
 50
   0.000
  0
TEXT
  8
5
 10
 12.568889
 20
 100.55111
 40
  12.569
  1
JOB:C463-002
 50
   0.000
  0
INSERT
  8
2
  2
PLATE
 10
 102.12225
 20
 411.72778
 41
  1.000000
 42
  1.000000
 43
  1.000000
 50
   0.000
  0
ENDSEC
  0
EOF
