999
SOURCE:MBS   PROGRAM:PLT_DXF   CELL:RF_BEP   CLASS:SCALED   MODE:---
  0
SECTION
  2
HEADER
  9
$EXTMIN
 10
          0.000
 20
          0.000
  9
$EXTMAX
 10
        645.989
 20
        406.527
  9
$LIMMIN
 10
          0.000
 20
          0.000
  9
$LIMMAX
 10
        645.989
 20
        406.527
  9
$FILLMODE
 70
     1
  9
$LTSCALE
 40
  0.125
  9
$HANDLING
 70
     0
  0
ENDSEC
  0
SECTION
  2
TABLES
  0
TABLE
  2
LTYPE
 70
     3
  0
LTYPE
  2
CONTINUOUS
 70
    64
  3
SOLID LINE
 72
    65
 73
     0
 40
0.0
  0
LTYPE
  2
CENTER
 70
    64
  3
____ _ ____ _ ____ _ ____ _ ____ _ ____ _ ____
 72
    65
 73
     4
 40
2.0
 49
1.25
 49
-0.25
 49
0.25
 49
-0.25
  0
LTYPE
  2
DASHED
 70
    64
  3
__ __ __ __ __ __ __ __ __ __ __ __ __ __ __ 
 72
    65
 73
     2
 40
0.75
 49
0.5
 49
-0.25
  0
ENDTAB
  0
TABLE
  2
LAYER
 70
    51
  0
LAYER
  2
0
 70
     0
 62
     7
  6
CONTINUOUS
  0
LAYER
  2
1
 70
     0
 62
     7
  6
CONTINUOUS
  0
LAYER
  2
2
 70
     0
 62
     7
  6
CONTINUOUS
  0
LAYER
  2
3
 70
     0
 62
     1
  6
CONTINUOUS
  0
LAYER
  2
4
 70
     0
 62
     1
  6
CONTINUOUS
  0
LAYER
  2
5
 70
     0
 62
     7
  6
CONTINUOUS
  0
LAYER
  2
6
 70
     0
 62
     4
  6
CONTINUOUS
  0
LAYER
  2
7
 70
     0
 62
     3
  6
CONTINUOUS
  0
LAYER
  2
8
 70
     0
 62
     3
  6
CONTINUOUS
  0
LAYER
  2
9
 70
     0
 62
     7
  6
CONTINUOUS
  0
LAYER
  2
10
 70
     0
 62
     7
  6
CONTINUOUS
  0
LAYER
  2
11
 70
     0
 62
     7
  6
CONTINUOUS
  0
LAYER
  2
12
 70
     0
 62
     2
  6
CONTINUOUS
  0
LAYER
  2
13
 70
     0
 62
     2
  6
CONTINUOUS
  0
LAYER
  2
14
 70
     0
 62
     7
  6
CONTINUOUS
  0
LAYER
  2
15
 70
     0
 62
     6
  6
CONTINUOUS
  0
LAYER
  2
16
 70
     0
 62
     7
  6
CONTINUOUS
  0
LAYER
  2
17
 70
     0
 62
     7
  6
CONTINUOUS
  0
LAYER
  2
18
 70
     0
 62
     4
  6
CONTINUOUS
  0
LAYER
  2
19
 70
     0
 62
     7
  6
CONTINUOUS
  0
LAYER
  2
20
 70
     0
 62
     7
  6
CONTINUOUS
  0
LAYER
  2
21
 70
     0
 62
     7
  6
CONTINUOUS
  0
LAYER
  2
22
 70
     0
 62
     7
  6
CONTINUOUS
  0
LAYER
  2
23
 70
     0
 62
     7
  6
CONTINUOUS
  0
LAYER
  2
24
 70
     0
 62
     7
  6
CONTINUOUS
  0
LAYER
  2
25
 70
     0
 62
     7
  6
CONTINUOUS
  0
LAYER
  2
26
 70
     0
 62
     7
  6
CONTINUOUS
  0
LAYER
  2
27
 70
     0
 62
     7
  6
CONTINUOUS
  0
LAYER
  2
28
 70
     0
 62
     7
  6
CONTINUOUS
  0
LAYER
  2
29
 70
     0
 62
     7
  6
CONTINUOUS
  0
LAYER
  2
30
 70
     0
 62
     7
  6
CONTINUOUS
  0
LAYER
  2
31
 70
     0
 62
     7
  6
CONTINUOUS
  0
LAYER
  2
32
 70
     0
 62
     7
  6
CONTINUOUS
  0
LAYER
  2
33
 70
     0
 62
     7
  6
CONTINUOUS
  0
LAYER
  2
34
 70
     0
 62
     7
  6
CONTINUOUS
  0
LAYER
  2
35
 70
     0
 62
     7
  6
CONTINUOUS
  0
LAYER
  2
36
 70
     0
 62
     7
  6
CONTINUOUS
  0
LAYER
  2
37
 70
     0
 62
     7
  6
CONTINUOUS
  0
LAYER
  2
38
 70
     0
 62
     7
  6
CONTINUOUS
  0
LAYER
  2
39
 70
     0
 62
     7
  6
CONTINUOUS
  0
LAYER
  2
40
 70
     0
 62
     7
  6
CONTINUOUS
  0
LAYER
  2
41
 70
     0
 62
     7
  6
CONTINUOUS
  0
LAYER
  2
42
 70
     0
 62
     7
  6
CONTINUOUS
  0
LAYER
  2
43
 70
     0
 62
     7
  6
CONTINUOUS
  0
LAYER
  2
44
 70
     0
 62
     7
  6
CONTINUOUS
  0
LAYER
  2
45
 70
     0
 62
     7
  6
CONTINUOUS
  0
LAYER
  2
46
 70
     0
 62
     7
  6
CONTINUOUS
  0
LAYER
  2
47
 70
     0
 62
     7
  6
CONTINUOUS
  0
LAYER
  2
48
 70
     0
 62
     7
  6
CONTINUOUS
  0
LAYER
  2
49
 70
     0
 62
     7
  6
CONTINUOUS
  0
LAYER
  2
50
 70
     0
 62
     7
  6
CONTINUOUS
  0
ENDTAB
  0
ENDSEC
  0
SECTION
  2
BLOCKS
  0
BLOCK
  8
2
  2
ARROW
 70
     0
 10
  0.000000
 20
  0.000000
  0
LINE
  6
CONTINUOUS
  8
2
 10
  0.000000
 20
  0.000000
 11
 -1.000000
 21
  0.166667
  0
LINE
  6
CONTINUOUS
  8
2
 10
 -1.000000
 20
  0.166667
 11
 -1.000000
 21
 -0.166667
  0
LINE
  6
CONTINUOUS
  8
2
 10
 -1.000000
 20
 -0.166667
 11
  0.000000
 21
  0.000000
  0
ENDBLK
  8
2
  0
BLOCK
  8
3
  2
CIRCLE
 70
     0
 10
  0.000000
 20
  0.000000
  0
CIRCLE
  8
1
 10
   0.000
 20
   0.000
 40
   1.000
  0
ENDBLK
  8
3
  0
BLOCK
  8
2
  2
PLATE
 70
     0
 10
  0.000000
 20
  0.000000
  0
CIRCLE
  6
CONTINUOUS
  8
5
 10
  0.000000
 20
-100.00000
 40
  0.100000
  0
LINE
  6
CONTINUOUS
  8
5
 10
 -0.100000
 20
-100.00000
 11
  0.100000
 21
-100.00000
  0
LINE
  6
CONTINUOUS
  8
5
 10
  0.000000
 20
-100.10000
 11
  0.000000
 21
-99.900002
  0
TEXT
  8
5
 10
  0.000000
 20
-100.00000
 40
   0.015
  1
ZERO
 50
   0.000
  0
LINE
  6
CONTINUOUS
  8
3
 10
  0.000000
 20
  0.000000
 11
  0.000000
 21
-200.00000
  0
LINE
  6
CONTINUOUS
  8
3
 10
  0.000000
 20
-200.00000
 11
 501.19800
 21
-200.00000
  0
LINE
  6
CONTINUOUS
  8
3
 10
 501.19800
 20
-200.00000
 11
 501.19800
 21
  0.000000
  0
LINE
  6
CONTINUOUS
  8
3
 10
 501.19800
 20
  0.000000
 11
  0.000000
 21
  0.000000
  0
CIRCLE
  6
CONTINUOUS
  8
4
 10
 50.000000
 20
-50.000000
 40
 11.000000
  0
CIRCLE
  6
CONTINUOUS
  8
4
 10
 50.000000
 20
-150.00000
 40
 11.000000
  0
CIRCLE
  6
CONTINUOUS
  8
4
 10
 150.00000
 20
-50.000000
 40
 11.000000
  0
CIRCLE
  6
CONTINUOUS
  8
4
 10
 150.00000
 20
-150.00000
 40
 11.000000
  0
CIRCLE
  6
CONTINUOUS
  8
4
 10
 350.00000
 20
-50.000000
 40
 11.000000
  0
CIRCLE
  6
CONTINUOUS
  8
4
 10
 350.00000
 20
-150.00000
 40
 11.000000
  0
CIRCLE
  6
CONTINUOUS
  8
4
 10
 450.00000
 20
-50.000000
 40
 11.000000
  0
CIRCLE
  6
CONTINUOUS
  8
4
 10
 450.00000
 20
-150.00000
 40
 11.000000
  0
LINE
  6
CONTINUOUS
  8
6
 10
 -3.341320
 20
-200.00000
 11
-24.224571
 21
-200.00000
  0
LINE
  6
CONTINUOUS
  8
6
 10
 -3.341305
 20
  0.000000
 11
-24.224556
 21
  0.000002
  0
LINE
  6
CONTINUOUS
  8
6
 10
-24.174572
 20
-200.00000
 11
-24.174557
 21
  0.000002
  0
INSERT
  8
6
  2
ARROW
 10
-24.174572
 20
-200.00000
 41
  2.227547
 42
  2.227547
 43
  2.227547
 50
 270.000
  0
INSERT
  8
6
  2
ARROW
 10
-24.174557
 20
  0.000002
 41
  2.227547
 42
  2.227547
 43
  2.227547
 50
  90.000
  0
TEXT
  8
6
 10
-26.402111
 20
-106.68264
 40
   4.455
  1
200
 50
  90.000
  0
LINE
  6
CONTINUOUS
  8
6
 10
  0.000000
 20
  3.341320
 11
  0.000000
 21
 24.224571
  0
LINE
  6
CONTINUOUS
  8
6
 10
 501.19800
 20
  3.341320
 11
 501.19800
 21
 24.224571
  0
LINE
  6
CONTINUOUS
  8
6
 10
  0.000000
 20
 24.174572
 11
 501.19800
 21
 24.174572
  0
INSERT
  8
6
  2
ARROW
 10
  0.000000
 20
 24.174572
 41
  2.227547
 42
  2.227547
 43
  2.227547
 50
 180.000
  0
INSERT
  8
6
  2
ARROW
 10
 501.19800
 20
 24.174572
 41
  2.227547
 42
  2.227547
 43
  2.227547
 50
   0.000
  0
TEXT
  8
6
 10
 244.47325
 20
 26.402119
 40
   4.455
  1
501
 50
   0.000
  0
LINE
  6
CONTINUOUS
  8
6
 10
 504.53931
 20
-50.000000
 11
 525.42255
 21
-50.000000
  0
LINE
  6
CONTINUOUS
  8
6
 10
 504.53931
 20
  0.000000
 11
 525.42255
 21
 -0.000002
  0
LINE
  6
CONTINUOUS
  8
6
 10
 525.37256
 20
-50.000000
 11
 525.37256
 21
 -0.000002
  0
INSERT
  8
6
  2
ARROW
 10
 525.37256
 20
-50.000000
 41
  2.227547
 42
  2.227547
 43
  2.227547
 50
 270.000
  0
INSERT
  8
6
  2
ARROW
 10
 525.37256
 20
 -0.000002
 41
  2.227547
 42
  2.227547
 43
  2.227547
 50
  90.000
  0
TEXT
  8
6
 10
 523.14502
 20
-29.455093
 40
   4.455
  1
50
 50
  90.000
  0
LINE
  6
CONTINUOUS
  8
6
 10
 504.53931
 20
-150.00000
 11
 525.42255
 21
-150.00000
  0
LINE
  6
CONTINUOUS
  8
6
 10
 504.53931
 20
-50.000000
 11
 525.42255
 21
-50.000000
  0
LINE
  6
CONTINUOUS
  8
6
 10
 525.37256
 20
-150.00000
 11
 525.37256
 21
-50.000000
  0
INSERT
  8
6
  2
ARROW
 10
 525.37256
 20
-150.00000
 41
  2.227547
 42
  2.227547
 43
  2.227547
 50
 270.000
  0
INSERT
  8
6
  2
ARROW
 10
 525.37256
 20
-50.000000
 41
  2.227547
 42
  2.227547
 43
  2.227547
 50
  90.000
  0
TEXT
  8
6
 10
 523.14502
 20
-106.12576
 40
   4.455
  1
100
 50
  90.000
  0
LINE
  6
CONTINUOUS
  8
6
 10
  0.000000
 20
-203.34132
 11
  0.000000
 21
-214.47906
  0
LINE
  6
CONTINUOUS
  8
6
 10
 50.000000
 20
-203.34132
 11
 50.000000
 21
-214.47906
  0
LINE
  6
CONTINUOUS
  8
6
 10
  0.000000
 20
-214.42906
 11
 50.000000
 21
-214.42906
  0
INSERT
  8
6
  2
ARROW
 10
  0.000000
 20
-214.42906
 41
  2.227547
 42
  2.227547
 43
  2.227547
 50
 180.000
  0
INSERT
  8
6
  2
ARROW
 10
 50.000000
 20
-214.42906
 41
  2.227547
 42
  2.227547
 43
  2.227547
 50
   0.000
  0
TEXT
  8
6
 10
 20.544907
 20
-212.20151
 40
   4.455
  1
50
 50
   0.000
  0
LINE
  6
CONTINUOUS
  8
6
 10
 150.00000
 20
-203.34132
 11
 150.00000
 21
-214.47906
  0
LINE
  6
CONTINUOUS
  8
6
 10
 141.08981
 20
-214.42906
 11
 150.00000
 21
-214.42906
  0
INSERT
  8
6
  2
ARROW
 10
 150.00000
 20
-214.42906
 41
  2.227547
 42
  2.227547
 43
  2.227547
 50
   0.000
  0
TEXT
  8
6
 10
 135.52095
 20
-212.20151
 40
   4.455
  1
150
 50
   0.000
  0
LINE
  6
CONTINUOUS
  8
6
 10
 350.00000
 20
-203.34132
 11
 350.00000
 21
-214.47906
  0
LINE
  6
CONTINUOUS
  8
6
 10
 341.08981
 20
-214.42906
 11
 350.00000
 21
-214.42906
  0
INSERT
  8
6
  2
ARROW
 10
 350.00000
 20
-214.42906
 41
  2.227547
 42
  2.227547
 43
  2.227547
 50
   0.000
  0
TEXT
  8
6
 10
 334.40717
 20
-212.20151
 40
   4.455
  1
350
 50
   0.000
  0
LINE
  6
CONTINUOUS
  8
6
 10
 450.00000
 20
-203.34132
 11
 450.00000
 21
-214.47906
  0
LINE
  6
CONTINUOUS
  8
6
 10
 441.08981
 20
-214.42906
 11
 450.00000
 21
-214.42906
  0
INSERT
  8
6
  2
ARROW
 10
 450.00000
 20
-214.42906
 41
  2.227547
 42
  2.227547
 43
  2.227547
 50
   0.000
  0
TEXT
  8
6
 10
 434.40717
 20
-212.20151
 40
   4.455
  1
450
 50
   0.000
  0
TEXT
  8
6
 10
 50.000000
 20
  8.910187
 40
   4.455
  1
DIA:22
 50
   0.000
  0
ENDBLK
  8
2
  0
ENDSEC
  0
SECTION
  2
ENTITIES
  0
LINE
  6
CONTINUOUS
  8
5
 10
  0.000000
 20
  0.000000
 11
 645.98859
 21
  0.000000
  0
LINE
  6
CONTINUOUS
  8
5
 10
 645.98859
 20
  0.000000
 11
 645.98859
 21
 406.52728
  0
LINE
  6
CONTINUOUS
  8
5
 10
 645.98859
 20
 406.52728
 11
  0.000000
 21
 406.52728
  0
LINE
  6
CONTINUOUS
  8
5
 10
  0.000000
 20
 406.52728
 11
  0.000000
 21
  0.000000
  0
TEXT
  8
5
 10
  8.910187
 20
  4.455093
 40
   8.910
  1
YIELD:345.0
 50
   0.000
  0
TEXT
  8
5
 10
  8.910187
 20
 17.820374
 40
   8.910
  1
THICKNESS:16
 50
   0.000
  0
TEXT
  8
5
 10
  8.910187
 20
 31.185654
 40
   8.910
  1
QUANTITY:10
 50
   0.000
  0
TEXT
  8
5
 10
  8.910187
 20
 44.550934
 40
   8.910
  1
DRAWING:EP3
 50
   0.000
  0
TEXT
  8
5
 10
  8.910187
 20
 57.916214
 40
   8.910
  1
MARK:EP3
 50
   0.000
  0
TEXT
  8
5
 10
  8.910187
 20
 71.281494
 40
   8.910
  1
JOB:C463-002
 50
   0.000
  0
INSERT
  8
2
  2
PLATE
 10
 72.395294
 20
 303.26364
 41
  1.000000
 42
  1.000000
 43
  1.000000
 50
   0.000
  0
ENDSEC
  0
EOF
