999
SOURCE:MBS   PROGRAM:PLT_DXF   CELL:RF_BEP   CLASS:SCALED   MODE:---
  0
SECTION
  2
HEADER
  9
$EXTMIN
 10
          0.000
 20
          0.000
  9
$EXTMAX
 10
        755.579
 20
        475.494
  9
$LIMMIN
 10
          0.000
 20
          0.000
  9
$LIMMAX
 10
        755.579
 20
        475.494
  9
$FILLMODE
 70
     1
  9
$LTSCALE
 40
  0.125
  9
$HANDLING
 70
     0
  0
ENDSEC
  0
SECTION
  2
TABLES
  0
TABLE
  2
LTYPE
 70
     3
  0
LTYPE
  2
CONTINUOUS
 70
    64
  3
SOLID LINE
 72
    65
 73
     0
 40
0.0
  0
LTYPE
  2
CENTER
 70
    64
  3
____ _ ____ _ ____ _ ____ _ ____ _ ____ _ ____
 72
    65
 73
     4
 40
2.0
 49
1.25
 49
-0.25
 49
0.25
 49
-0.25
  0
LTYPE
  2
DASHED
 70
    64
  3
__ __ __ __ __ __ __ __ __ __ __ __ __ __ __ 
 72
    65
 73
     2
 40
0.75
 49
0.5
 49
-0.25
  0
ENDTAB
  0
TABLE
  2
LAYER
 70
    51
  0
LAYER
  2
0
 70
     0
 62
     7
  6
CONTINUOUS
  0
LAYER
  2
1
 70
     0
 62
     7
  6
CONTINUOUS
  0
LAYER
  2
2
 70
     0
 62
     7
  6
CONTINUOUS
  0
LAYER
  2
3
 70
     0
 62
     1
  6
CONTINUOUS
  0
LAYER
  2
4
 70
     0
 62
     1
  6
CONTINUOUS
  0
LAYER
  2
5
 70
     0
 62
     7
  6
CONTINUOUS
  0
LAYER
  2
6
 70
     0
 62
     4
  6
CONTINUOUS
  0
LAYER
  2
7
 70
     0
 62
     3
  6
CONTINUOUS
  0
LAYER
  2
8
 70
     0
 62
     3
  6
CONTINUOUS
  0
LAYER
  2
9
 70
     0
 62
     7
  6
CONTINUOUS
  0
LAYER
  2
10
 70
     0
 62
     7
  6
CONTINUOUS
  0
LAYER
  2
11
 70
     0
 62
     7
  6
CONTINUOUS
  0
LAYER
  2
12
 70
     0
 62
     2
  6
CONTINUOUS
  0
LAYER
  2
13
 70
     0
 62
     2
  6
CONTINUOUS
  0
LAYER
  2
14
 70
     0
 62
     7
  6
CONTINUOUS
  0
LAYER
  2
15
 70
     0
 62
     6
  6
CONTINUOUS
  0
LAYER
  2
16
 70
     0
 62
     7
  6
CONTINUOUS
  0
LAYER
  2
17
 70
     0
 62
     7
  6
CONTINUOUS
  0
LAYER
  2
18
 70
     0
 62
     4
  6
CONTINUOUS
  0
LAYER
  2
19
 70
     0
 62
     7
  6
CONTINUOUS
  0
LAYER
  2
20
 70
     0
 62
     7
  6
CONTINUOUS
  0
LAYER
  2
21
 70
     0
 62
     7
  6
CONTINUOUS
  0
LAYER
  2
22
 70
     0
 62
     7
  6
CONTINUOUS
  0
LAYER
  2
23
 70
     0
 62
     7
  6
CONTINUOUS
  0
LAYER
  2
24
 70
     0
 62
     7
  6
CONTINUOUS
  0
LAYER
  2
25
 70
     0
 62
     7
  6
CONTINUOUS
  0
LAYER
  2
26
 70
     0
 62
     7
  6
CONTINUOUS
  0
LAYER
  2
27
 70
     0
 62
     7
  6
CONTINUOUS
  0
LAYER
  2
28
 70
     0
 62
     7
  6
CONTINUOUS
  0
LAYER
  2
29
 70
     0
 62
     7
  6
CONTINUOUS
  0
LAYER
  2
30
 70
     0
 62
     7
  6
CONTINUOUS
  0
LAYER
  2
31
 70
     0
 62
     7
  6
CONTINUOUS
  0
LAYER
  2
32
 70
     0
 62
     7
  6
CONTINUOUS
  0
LAYER
  2
33
 70
     0
 62
     7
  6
CONTINUOUS
  0
LAYER
  2
34
 70
     0
 62
     7
  6
CONTINUOUS
  0
LAYER
  2
35
 70
     0
 62
     7
  6
CONTINUOUS
  0
LAYER
  2
36
 70
     0
 62
     7
  6
CONTINUOUS
  0
LAYER
  2
37
 70
     0
 62
     7
  6
CONTINUOUS
  0
LAYER
  2
38
 70
     0
 62
     7
  6
CONTINUOUS
  0
LAYER
  2
39
 70
     0
 62
     7
  6
CONTINUOUS
  0
LAYER
  2
40
 70
     0
 62
     7
  6
CONTINUOUS
  0
LAYER
  2
41
 70
     0
 62
     7
  6
CONTINUOUS
  0
LAYER
  2
42
 70
     0
 62
     7
  6
CONTINUOUS
  0
LAYER
  2
43
 70
     0
 62
     7
  6
CONTINUOUS
  0
LAYER
  2
44
 70
     0
 62
     7
  6
CONTINUOUS
  0
LAYER
  2
45
 70
     0
 62
     7
  6
CONTINUOUS
  0
LAYER
  2
46
 70
     0
 62
     7
  6
CONTINUOUS
  0
LAYER
  2
47
 70
     0
 62
     7
  6
CONTINUOUS
  0
LAYER
  2
48
 70
     0
 62
     7
  6
CONTINUOUS
  0
LAYER
  2
49
 70
     0
 62
     7
  6
CONTINUOUS
  0
LAYER
  2
50
 70
     0
 62
     7
  6
CONTINUOUS
  0
ENDTAB
  0
ENDSEC
  0
SECTION
  2
BLOCKS
  0
BLOCK
  8
2
  2
ARROW
 70
     0
 10
  0.000000
 20
  0.000000
  0
LINE
  6
CONTINUOUS
  8
2
 10
  0.000000
 20
  0.000000
 11
 -1.000000
 21
  0.166667
  0
LINE
  6
CONTINUOUS
  8
2
 10
 -1.000000
 20
  0.166667
 11
 -1.000000
 21
 -0.166667
  0
LINE
  6
CONTINUOUS
  8
2
 10
 -1.000000
 20
 -0.166667
 11
  0.000000
 21
  0.000000
  0
ENDBLK
  8
2
  0
BLOCK
  8
3
  2
CIRCLE
 70
     0
 10
  0.000000
 20
  0.000000
  0
CIRCLE
  8
1
 10
   0.000
 20
   0.000
 40
   1.000
  0
ENDBLK
  8
3
  0
BLOCK
  8
2
  2
PLATE
 70
     0
 10
  0.000000
 20
  0.000000
  0
CIRCLE
  6
CONTINUOUS
  8
5
 10
  0.000000
 20
-100.00000
 40
  0.100000
  0
LINE
  6
CONTINUOUS
  8
5
 10
 -0.100000
 20
-100.00000
 11
  0.100000
 21
-100.00000
  0
LINE
  6
CONTINUOUS
  8
5
 10
  0.000000
 20
-100.10000
 11
  0.000000
 21
-99.900002
  0
TEXT
  8
5
 10
  0.000000
 20
-100.00000
 40
   0.015
  1
ZERO
 50
   0.000
  0
LINE
  6
CONTINUOUS
  8
3
 10
  0.000000
 20
  0.000000
 11
  0.000000
 21
-200.00000
  0
LINE
  6
CONTINUOUS
  8
3
 10
  0.000000
 20
-200.00000
 11
 586.22498
 21
-200.00000
  0
LINE
  6
CONTINUOUS
  8
3
 10
 586.22498
 20
-200.00000
 11
 586.22498
 21
  0.000000
  0
LINE
  6
CONTINUOUS
  8
3
 10
 586.22498
 20
  0.000000
 11
  0.000000
 21
  0.000000
  0
CIRCLE
  6
CONTINUOUS
  8
4
 10
 45.000000
 20
-50.000000
 40
 11.000000
  0
CIRCLE
  6
CONTINUOUS
  8
4
 10
 45.000000
 20
-150.00000
 40
 11.000000
  0
CIRCLE
  6
CONTINUOUS
  8
4
 10
 145.00000
 20
-50.000000
 40
 11.000000
  0
CIRCLE
  6
CONTINUOUS
  8
4
 10
 145.00000
 20
-150.00000
 40
 11.000000
  0
CIRCLE
  6
CONTINUOUS
  8
4
 10
 441.22501
 20
-50.000000
 40
 11.000000
  0
CIRCLE
  6
CONTINUOUS
  8
4
 10
 441.22501
 20
-150.00000
 40
 11.000000
  0
CIRCLE
  6
CONTINUOUS
  8
4
 10
 541.22498
 20
-50.000000
 40
 11.000000
  0
CIRCLE
  6
CONTINUOUS
  8
4
 10
 541.22498
 20
-150.00000
 40
 11.000000
  0
LINE
  6
CONTINUOUS
  8
6
 10
 -3.908167
 20
-200.00000
 11
-28.334209
 21
-200.00000
  0
LINE
  6
CONTINUOUS
  8
6
 10
 -3.908152
 20
  0.000000
 11
-28.334194
 21
  0.000002
  0
LINE
  6
CONTINUOUS
  8
6
 10
-28.284210
 20
-200.00000
 11
-28.284195
 21
  0.000002
  0
INSERT
  8
6
  2
ARROW
 10
-28.284210
 20
-200.00000
 41
  2.605444
 42
  2.605444
 43
  2.605444
 50
 270.000
  0
INSERT
  8
6
  2
ARROW
 10
-28.284195
 20
  0.000002
 41
  2.605444
 42
  2.605444
 43
  2.605444
 50
  90.000
  0
TEXT
  8
6
 10
-30.889647
 20
-107.81633
 40
   5.211
  1
200
 50
  90.000
  0
LINE
  6
CONTINUOUS
  8
6
 10
  0.000000
 20
  3.908167
 11
  0.000000
 21
 28.334209
  0
LINE
  6
CONTINUOUS
  8
6
 10
 586.22498
 20
  3.908167
 11
 586.22498
 21
 28.334209
  0
LINE
  6
CONTINUOUS
  8
6
 10
  0.000000
 20
 28.284210
 11
 586.22498
 21
 28.284210
  0
INSERT
  8
6
  2
ARROW
 10
  0.000000
 20
 28.284210
 41
  2.605444
 42
  2.605444
 43
  2.605444
 50
 180.000
  0
INSERT
  8
6
  2
ARROW
 10
 586.22498
 20
 28.284210
 41
  2.605444
 42
  2.605444
 43
  2.605444
 50
   0.000
  0
TEXT
  8
6
 10
 285.29614
 20
 30.889654
 40
   5.211
  1
586
 50
   0.000
  0
LINE
  6
CONTINUOUS
  8
6
 10
 590.13312
 20
-50.000000
 11
 614.55914
 21
-50.000000
  0
LINE
  6
CONTINUOUS
  8
6
 10
 590.13312
 20
  0.000000
 11
 614.55914
 21
 -0.000002
  0
LINE
  6
CONTINUOUS
  8
6
 10
 614.50916
 20
-50.000000
 11
 614.50916
 21
 -0.000002
  0
INSERT
  8
6
  2
ARROW
 10
 614.50916
 20
-50.000000
 41
  2.605444
 42
  2.605444
 43
  2.605444
 50
 270.000
  0
INSERT
  8
6
  2
ARROW
 10
 614.50916
 20
 -0.000002
 41
  2.605444
 42
  2.605444
 43
  2.605444
 50
  90.000
  0
TEXT
  8
6
 10
 611.90369
 20
-30.210888
 40
   5.211
  1
50
 50
  90.000
  0
LINE
  6
CONTINUOUS
  8
6
 10
 590.13312
 20
-150.00000
 11
 614.55914
 21
-150.00000
  0
LINE
  6
CONTINUOUS
  8
6
 10
 590.13312
 20
-50.000000
 11
 614.55914
 21
-50.000000
  0
LINE
  6
CONTINUOUS
  8
6
 10
 614.50916
 20
-150.00000
 11
 614.50916
 21
-50.000000
  0
INSERT
  8
6
  2
ARROW
 10
 614.50916
 20
-150.00000
 41
  2.605444
 42
  2.605444
 43
  2.605444
 50
 270.000
  0
INSERT
  8
6
  2
ARROW
 10
 614.50916
 20
-50.000000
 41
  2.605444
 42
  2.605444
 43
  2.605444
 50
  90.000
  0
TEXT
  8
6
 10
 611.90369
 20
-107.16497
 40
   5.211
  1
100
 50
  90.000
  0
LINE
  6
CONTINUOUS
  8
6
 10
  0.000000
 20
-203.90817
 11
  0.000000
 21
-216.93539
  0
LINE
  6
CONTINUOUS
  8
6
 10
 45.000000
 20
-203.90817
 11
 45.000000
 21
-216.93539
  0
LINE
  6
CONTINUOUS
  8
6
 10
  0.000000
 20
-216.88539
 11
 45.000000
 21
-216.88539
  0
INSERT
  8
6
  2
ARROW
 10
  0.000000
 20
-216.88539
 41
  2.605444
 42
  2.605444
 43
  2.605444
 50
 180.000
  0
INSERT
  8
6
  2
ARROW
 10
 45.000000
 20
-216.88539
 41
  2.605444
 42
  2.605444
 43
  2.605444
 50
   0.000
  0
TEXT
  8
6
 10
 17.289112
 20
-214.27995
 40
   5.211
  1
45
 50
   0.000
  0
LINE
  6
CONTINUOUS
  8
6
 10
 145.00000
 20
-203.90817
 11
 145.00000
 21
-216.93539
  0
LINE
  6
CONTINUOUS
  8
6
 10
 134.57822
 20
-216.88539
 11
 145.00000
 21
-216.88539
  0
INSERT
  8
6
  2
ARROW
 10
 145.00000
 20
-216.88539
 41
  2.605444
 42
  2.605444
 43
  2.605444
 50
   0.000
  0
TEXT
  8
6
 10
 128.06461
 20
-214.27995
 40
   5.211
  1
145
 50
   0.000
  0
LINE
  6
CONTINUOUS
  8
6
 10
 441.22501
 20
-203.90817
 11
 441.22501
 21
-216.93539
  0
LINE
  6
CONTINUOUS
  8
6
 10
 430.80322
 20
-216.88539
 11
 441.22501
 21
-216.88539
  0
INSERT
  8
6
  2
ARROW
 10
 441.22501
 20
-216.88539
 41
  2.605444
 42
  2.605444
 43
  2.605444
 50
   0.000
  0
TEXT
  8
6
 10
 424.28961
 20
-214.27995
 40
   5.211
  1
441
 50
   0.000
  0
LINE
  6
CONTINUOUS
  8
6
 10
 541.22498
 20
-203.90817
 11
 541.22498
 21
-216.93539
  0
LINE
  6
CONTINUOUS
  8
6
 10
 530.80322
 20
-216.88539
 11
 541.22498
 21
-216.88539
  0
INSERT
  8
6
  2
ARROW
 10
 541.22498
 20
-216.88539
 41
  2.605444
 42
  2.605444
 43
  2.605444
 50
   0.000
  0
TEXT
  8
6
 10
 524.28961
 20
-214.27995
 40
   5.211
  1
541
 50
   0.000
  0
TEXT
  8
6
 10
 45.000000
 20
 10.421777
 40
   5.211
  1
DIA:22
 50
   0.000
  0
ENDBLK
  8
2
  0
ENDSEC
  0
SECTION
  2
ENTITIES
  0
LINE
  6
CONTINUOUS
  8
5
 10
  0.000000
 20
  0.000000
 11
 755.57892
 21
  0.000000
  0
LINE
  6
CONTINUOUS
  8
5
 10
 755.57892
 20
  0.000000
 11
 755.57892
 21
 475.49362
  0
LINE
  6
CONTINUOUS
  8
5
 10
 755.57892
 20
 475.49362
 11
  0.000000
 21
 475.49362
  0
LINE
  6
CONTINUOUS
  8
5
 10
  0.000000
 20
 475.49362
 11
  0.000000
 21
  0.000000
  0
TEXT
  8
5
 10
 10.421777
 20
  5.210888
 40
  10.422
  1
YIELD:345.0
 50
   0.000
  0
TEXT
  8
5
 10
 10.421777
 20
 20.843554
 40
  10.422
  1
THICKNESS:16
 50
   0.000
  0
TEXT
  8
5
 10
 10.421777
 20
 36.476219
 40
  10.422
  1
QUANTITY:2
 50
   0.000
  0
TEXT
  8
5
 10
 10.421777
 20
 52.108883
 40
  10.422
  1
DRAWING:EP5
 50
   0.000
  0
TEXT
  8
5
 10
 10.421777
 20
 67.741547
 40
  10.422
  1
MARK:EP5
 50
   0.000
  0
TEXT
  8
5
 10
 10.421777
 20
 83.374214
 40
  10.422
  1
JOB:C463-002
 50
   0.000
  0
INSERT
  8
2
  2
PLATE
 10
 84.676971
 20
 337.74683
 41
  1.000000
 42
  1.000000
 43
  1.000000
 50
   0.000
  0
ENDSEC
  0
EOF
