  0
SECTION
  2
HEADER
  9
$ACADVER
  1
AC1009
  9
$EXTMIN
 10
 0.0000000
 20
 0.0000000
  9
$EXTMAX
 10
420.0000000
 20
297.0000000
  9
$LIMMIN
 10
 0.0000000
 20
 0.0000000
  9
$LIMMAX
 10
420.0000000
 20
297.0000000
  9
$FILLMODE
 70
     1
  9
$HANDLING
 70
     0
  0
ENDSEC
  0
SECTION
  2
TABLES
  0
TABLE
  2
LTYPE
 70
5
  0
LTYPE
  2
CONTINUOUS
 70
    64
  3
Solid Line
 72
    65
 73
     0
 40
0.0
  0
LTYPE
  2
CONTIN
 70
    64
  3
Solid Line
 72
    65
 73
     0
 40
0.0
  0
LTYPE
  2
HIDDEN
 70
    64
  3
- - - 
 72
    65
 73
     2
 40
 3.1750000
 49
 1.5875000
 49
-1.5875000
  0
LTYPE
  2
DASHED
 70
    64
  3
- - - 
 72
    65
 73
     2
 40
 3.1750000
 49
 1.5875000
 49
-1.5875000
  0
LTYPE
  2
CENTER
 70
    64
  3
--- - 
 72
    65
 73
     4
 40
 9.5250000
 49
 4.7625000
 49
-1.5875000
 49
 1.5875000
 49
-1.5875000
  0
ENDTAB
  0
TABLE
  2
LAYER
 70
25
  0
LAYER
  2
0
 70
     0
 62
     7
  6
CONTINUOUS
  0
LAYER
  2
1
 70
     0
 62
     7
  6
CONTINUOUS
  0
LAYER
  2
2
 70
     0
 62
     6
  6
CONTINUOUS
  0
LAYER
  2
3
 70
     0
 62
     7
  6
CONTINUOUS
  0
LAYER
  2
4
 70
     0
 62
     7
  6
CONTINUOUS
  0
LAYER
  2
5
 70
     0
 62
     5
  6
CONTINUOUS
  0
LAYER
  2
6
 70
     0
 62
     6
  6
CONTINUOUS
  0
LAYER
  2
7
 70
     0
 62
     7
  6
CONTINUOUS
  0
LAYER
  2
8
 70
     0
 62
     8
  6
CONTINUOUS
  0
LAYER
  2
9
 70
     0
 62
     9
  6
CONTINUOUS
  0
LAYER
  2
10
 70
     0
 62
    10
  6
CONTINUOUS
  0
LAYER
  2
11
 70
     0
 62
     7
  6
CONTINUOUS
  0
LAYER
  2
12
 70
     0
 62
     6
  6
CONTINUOUS
  0
LAYER
  2
13
 70
     0
 62
     1
  6
CONTINUOUS
  0
LAYER
  2
14
 70
     0
 62
     7
  6
CONTINUOUS
  0
LAYER
  2
15
 70
     0
 62
     7
  6
CONTINUOUS
  0
LAYER
  2
16
 70
     0
 62
     7
  6
CONTINUOUS
  0
LAYER
  2
17
 70
     0
 62
     5
  6
CONTINUOUS
  0
LAYER
  2
18
 70
     0
 62
     7
  6
CONTINUOUS
  0
LAYER
  2
19
 70
     0
 62
     7
  6
CONTINUOUS
  0
LAYER
  2
20
 70
     0
 62
     7
  6
CONTINUOUS
  0
LAYER
  2
21
 70
     0
 62
     7
  6
CONTINUOUS
  0
LAYER
  2
22
 70
     0
 62
     7
  6
CONTINUOUS
  0
LAYER
  2
23
 70
     0
 62
     7
  6
CONTINUOUS
  0
LAYER
  2
24
 70
     0
 62
     7
  6
CONTINUOUS
  0
ENDTAB
  0
TABLE
  2
STYLE
 70
  0
  0
STYLE
  2
SIMPLEX
 70
  0
 40
 0.0000000
 41
 1.0000000
 42
 1.0000000
 50
 0.0000000
 71
  0
  3
SIMPLEX
  0
STYLE
  2
ROMANS
 70
  0
 40
 0.0000000
 41
 1.0000000
 42
 1.0000000
 50
 0.0000000
 71
  0
  3
ROMANS
  0
STYLE
  2
OPEN
 70
  0
 40
 0.0000000
 41
 1.0000000
 42
 1.0000000
 50
 0.0000000
 71
  0
  3
SIMPLEX
  0
STYLE
  2
ARIAL
 70
  0
 40
 0.0000000
 41
 1.0000000
 42
 1.0000000
 50
 0.0000000
 71
  0
  3
ARIAL.TTF
  0
STYLE
  2
VERDANAB
 70
  0
 40
 0.0000000
 41
 1.0000000
 42
 1.0000000
 50
 0.0000000
 71
  0
  3
VERDANAB.TTF
  0
ENDTAB
  0
ENDSEC
  0
SECTION
  2
BLOCKS
  0
BLOCK
  8
1
  2
CCOL
 70
     0
 10
 0.0000000
 20
 0.0000000
  0
LINE
  8
1
 10
 0.4000000
 20
-0.1000000
 11
 0.4000000
 21
 0.0000000
  0
LINE
  8
1
 10
 0.4000000
 20
 0.0000000
 11
 0.0000000
 21
 0.0000000
  0
LINE
  8
1
 10
 0.0000000
 20
 0.0000000
 11
 0.0000000
 21
-1.0000000
  0
LINE
  8
1
 10
 0.0000000
 20
-1.0000000
 11
 0.4000000
 21
-1.0000000
  0
LINE
  8
1
 10
 0.4000000
 20
-1.0000000
 11
 0.4000000
 21
-0.9000000
  0
ENDBLK
  8
1
  0
BLOCK
  8
1
  2
DCOL
 70
     0
 10
 0.0000000
 20
 0.0000000
  0
INSERT
  8
1
  2
CCOL
 10
 0.1000000
 20
 0.0000000
 41
 1.0000000
 42
 1.0000000
 43
 1.0000000
 50
 0.0000000
  0
INSERT
  8
1
  2
CCOL
 10
-0.1000000
 20
 0.0000000
 41
-1.0000000
 42
 1.0000000
 43
 1.0000000
 50
 0.0000000
  0
ENDBLK
  8
1
  0
BLOCK
  8
1
  2
GCOL
 70
     0
 10
 0.0000000
 20
 0.0000000
  0
LINE
  8
1
 10
 0.4000000
 20
-0.1000000
 11
 0.4000000
 21
 0.0000000
  0
LINE
  8
1
 10
 0.4000000
 20
 0.0000000
 11
 0.0000000
 21
 0.0000000
  0
LINE
  8
1
 10
 0.0000000
 20
 0.0000000
 11
 0.0000000
 21
-1.0000000
  0
LINE
  8
1
 10
 0.0000000
 20
-1.0000000
 11
 1.0000000
 21
-1.0000000
  0
LINE
  8
1
 10
 1.0000000
 20
-1.0000000
 11
 1.0000000
 21
-0.6000000
  0
LINE
  8
1
 10
 1.0000000
 20
-0.6000000
 11
 0.9000000
 21
-0.6000000
  0
ENDBLK
  8
1
  0
BLOCK
  8
1
  2
PCOL
 70
     0
 10
 0.0000000
 20
 0.0000000
  0
CIRCLE
  8
1
 10
 0.0000000
 20
 0.0000000
 40
 0.5000000
  0
ENDBLK
  8
1
  0
BLOCK
  8
1
  2
TCOL
 70
     0
 10
 0.0000000
 20
 0.0000000
  0
LINE
  8
1
 10
-0.5000000
 20
-0.5000000
 11
 0.5000000
 21
-0.5000000
  0
LINE
  8
1
 10
 0.5000000
 20
-0.5000000
 11
 0.5000000
 21
 0.5000000
  0
LINE
  8
1
 10
 0.5000000
 20
 0.5000000
 11
-0.5000000
 21
 0.5000000
  0
LINE
  8
1
 10
-0.5000000
 20
 0.5000000
 11
-0.5000000
 21
-0.5000000
  0
ENDBLK
  8
1
  0
BLOCK
  8
1
  2
TCOL2
 70
     0
 10
 0.0000000
 20
 0.0000000
  0
LINE
  8
1
 10
-0.2500000
 20
-0.5000000
 11
 0.2500000
 21
-0.5000000
  0
LINE
  8
1
 10
 0.2500000
 20
-0.5000000
 11
 0.2500000
 21
 0.5000000
  0
LINE
  8
1
 10
 0.2500000
 20
 0.5000000
 11
-0.2500000
 21
 0.5000000
  0
LINE
  8
1
 10
-0.2500000
 20
 0.5000000
 11
-0.2500000
 21
-0.5000000
  0
ENDBLK
  8
1
  0
BLOCK
  8
1
  2
UCOL
 70
     0
 10
 0.0000000
 20
 0.0000000
  0
LINE
  8
1
 10
 0.4000000
 20
 0.0000000
 11
 0.0000000
 21
 0.0000000
  0
LINE
  8
1
 10
 0.0000000
 20
 0.0000000
 11
 0.0000000
 21
-1.0000000
  0
LINE
  8
1
 10
 0.0000000
 20
-1.0000000
 11
 0.4000000
 21
-1.0000000
  0
ENDBLK
  8
1
  0
BLOCK
  8
1
  2
WCOL
 70
     0
 10
 0.0000000
 20
 0.0000000
  0
LINE
  8
1
 10
-0.4000000
 20
 0.0000000
 11
 0.4000000
 21
 0.0000000
  0
LINE
  8
1
 10
 0.0000000
 20
 0.0000000
 11
 0.0000000
 21
-1.0000000
  0
LINE
  8
1
 10
-0.4000000
 20
-1.0000000
 11
 0.4000000
 21
-1.0000000
  0
ENDBLK
  8
1
  0
BLOCK
  8
1
  2
XCOL
 70
     0
 10
 0.0000000
 20
 0.0000000
  0
LINE
  8
1
 10
-0.5625000
 20
 0.0625000
 11
 0.5625000
 21
 0.0625000
  0
LINE
  8
1
 10
 0.5625000
 20
 0.0625000
 11
 0.5625000
 21
-1.0625000
  0
LINE
  8
1
 10
 0.5625000
 20
-1.0625000
 11
-0.5625000
 21
-1.0625000
  0
LINE
  8
1
 10
-0.5625000
 20
-1.0625000
 11
-0.5625000
 21
 0.0625000
  0
ENDBLK
  8
1
  0
BLOCK
  8
1
  2
ZCOL
 70
     0
 10
 0.0000000
 20
 0.0000000
  0
LINE
  8
1
 10
 0.4000000
 20
-0.1000000
 11
 0.4000000
 21
 0.0000000
  0
LINE
  8
1
 10
 0.4000000
 20
 0.0000000
 11
 0.0000000
 21
 0.0000000
  0
LINE
  8
1
 10
 0.0000000
 20
 0.0000000
 11
 0.0000000
 21
-1.0000000
  0
LINE
  8
1
 10
 0.0000000
 20
-1.0000000
 11
-0.4000000
 21
-1.0000000
  0
LINE
  8
1
 10
-0.4000000
 20
-1.0000000
 11
-0.4000000
 21
-0.9000000
  0
ENDBLK
  8
1
  0
BLOCK
  8
1
  2
VSECTN
 70
     0
 10
 0.0000000
 20
 0.0000000
  0
LINE
  8
1
 10
-0.5000000
 20
 1.0000000
 11
 0.5000000
 21
 1.0000000
  0
LINE
  8
1
 10
-0.5000000
 20
 1.0000000
 11
 0.0000000
 21
 0.0000000
  0
LINE
  8
1
 10
 0.0000000
 20
 0.0000000
 11
 0.5000000
 21
 1.0000000
  0
ENDBLK
  8
1
999
C:\MBS\DXF\Q3.DXF
  0
BLOCK
  8
0
  2
Q3
 70
     0
 10
0.0
 20
0.0
 30
0.0
  3
Q3
  1

  0
LINE
  5
11D
  8
0
 10
22.416238101552999
 20
25.48428709059036
 30
0.0
 11
26.426238101553
 21
27.624287090590361
 31
0.0
  0
SOLID
  5
11E
  8
0
 10
22.466238101552999
 20
25.39428709059036
 30
0.0
 11
22.366238101552991
 21
25.584287090590369
 31
0.0
 12
21.846238101552999
 22
25.18428709059036
 32
0.0
 13
21.846238101552999
 23
25.18428709059036
 33
0.0
  0
LINE
  5
11F
  8
0
 10
22.916238101552999
 20
20.154287090590351
 30
0.0
 11
26.426238101553
 21
22.89428709059036
 31
0.0
  0
SOLID
  5
120
  8
0
 10
22.97623810155299
 20
20.07428709059036
 30
0.0
 11
22.846238101552999
 21
20.244287090590351
 31
0.0
 12
22.40623810155299
 22
19.754287090590349
 32
0.0
 13
22.40623810155299
 23
19.754287090590349
 33
0.0
  0
LINE
  5
121
  8
0
 10
24.26623810155299
 20
19.174287090590362
 30
0.0
 11
27.046238101552991
 21
20.224287090590359
 31
0.0
  0
SOLID
  5
122
  8
0
 10
24.306238101552989
 20
19.07428709059036
 30
0.0
 11
24.22623810155299
 21
19.274287090590349
 31
0.0
 12
23.65623810155299
 22
18.944287090590361
 32
0.0
 13
23.65623810155299
 23
18.944287090590361
 33
0.0
  0
LINE
  5
123
  8
0
 10
23.92623810155299
 20
16.814287090590359
 30
0.0
 11
26.606238101552989
 21
14.67428709059036
 31
0.0
  0
SOLID
  5
124
  8
0
 10
23.856238101553
 20
16.724287090590359
 30
0.0
 11
23.99623810155299
 21
16.89428709059036
 31
0.0
 12
23.416238101552992
 22
17.214287090590361
 32
0.0
 13
23.416238101552992
 23
17.214287090590361
 33
0.0
  0
LINE
  5
125
  8
0
 10
21.016238101553
 20
17.534287090590361
 30
0.0
 11
18.426238101553
 21
13.13428709059035
 31
0.0
  0
SOLID
  5
126
  8
0
 10
20.926238101553
 20
17.594287090590349
 30
0.0
 11
21.106238101553
 21
17.48428709059036
 31
0.0
 12
21.346238101552999
 22
18.104287090590361
 32
0.0
 13
21.346238101552999
 23
18.104287090590361
 33
0.0
  0
CIRCLE
  5
127
  8
0
 10
2.390000003326008
 20
2.7699999990531872
 30
0.0
 40
2.0899999999999981
  0
CIRCLE
  5
128
  8
0
 10
2.390000003326008
 20
2.7699999990531872
 30
0.0
 40
2.02
  0
LINE
  5
129
  8
0
 62
     6
 10
21.846238101552999
 20
11.214287090590361
 30
0.0
 11
21.846238101552999
 21
18.414287090590349
 31
0.0
  0
LINE
  5
12A
  8
0
 62
     6
 10
21.346238101552999
 20
11.06428709059035
 30
0.0
 11
21.346238101552999
 21
18.654287090590351
 31
0.0
  0
LINE
  5
12B
  8
0
 62
     6
 10
21.346238101552999
 20
19.274287090590349
 30
0.0
 11
21.346238101552999
 21
27.274287090590359
 31
0.0
  0
LINE
  5
12C
  8
0
 62
     6
 10
21.846238101552999
 20
19.044287090590348
 30
0.0
 11
21.846238101552999
 21
27.39428709059036
 31
0.0
  0
LINE
  5
12D
  8
0
 62
     6
 10
20.056238101552999
 20
10.674287090590351
 30
0.0
 11
21.346238101552999
 21
11.06428709059035
 31
0.0
  0
LINE
  5
12E
  8
0
 62
     6
 10
20.216238101552999
 20
27.00428709059036
 30
0.0
 11
23.246238101553001
 21
27.724287090590359
 31
0.0
  0
LINE
  5
12F
  8
0
 62
     6
 10
21.846238101552999
 20
11.214287090590361
 30
0.0
 11
23.086238101553
 21
11.59428709059036
 31
0.0
  0
LINE
  5
130
  8
0
 62
     6
 10
21.346238101552999
 20
11.06428709059035
 30
0.0
 11
21.846238101552999
 21
11.214287090590361
 31
0.0
  0
LINE
  5
131
  8
0
 62
     6
 10
21.346238101552999
 20
20.154287090590351
 30
0.0
 11
21.846238101552999
 21
20.154287090590351
 31
0.0
  0
LINE
  5
132
  8
0
 62
     6
 10
21.346238101552999
 20
17.904287090590358
 30
0.0
 11
21.846238101552999
 21
17.904287090590358
 31
0.0
  0
TEXT
  5
133
  8
0
 10
27.90623810155299
 20
27.954287090590359
 30
0.0
 40
0.75
  1
COLUMN OR
  0
TEXT
  5
134
  8
0
 10
27.90623810155299
 20
26.704287090590359
 30
0.0
 40
0.75
  1
RAFTER WEB
  0
LINE
  5
135
  8
0
 62
     1
 10
9.2065149436572966
 20
25.011412209317879
 30
0.0
 11
21.846238101552999
 21
19.044287090590348
 31
0.0
  0
LINE
  5
136
  8
0
 62
     1
 10
8.7912316761337426
 20
24.61037181788647
 30
0.0
 11
21.846238101552999
 21
18.414287090590349
 31
0.0
  0
LINE
  5
137
  8
0
 62
     1
 10
24.116238101553002
 20
17.354287090590361
 30
0.0
 11
24.356238101552989
 21
17.864287090590359
 31
0.0
  0
ARC
  5
138
  8
0
 62
    14
 10
21.486238101552999
 20
18.534287090590361
 30
0.0
 40
1.53
 50
283.57999999999998
 51
76.420000000000002
  0
LINE
  5
139
  8
0
  6
DASHED
 62
     1
 10
21.846238101552999
 20
19.044287090590348
 30
0.0
 11
22.956238101553001
 21
18.514287090590361
 31
0.0
  0
LINE
  5
13A
  8
0
 62
     1
 10
22.956238101553001
 20
18.514287090590361
 30
0.0
 11
24.356238101552989
 21
17.864287090590359
 31
0.0
  0
LINE
  5
13B
  8
0
  6
DASHED
 62
     1
 10
21.846238101552999
 20
18.414287090590349
 30
0.0
 11
22.706238101552991
 21
18.014287090590361
 31
0.0
  0
LINE
  5
13C
  8
0
 62
     1
 10
22.706238101552991
 20
18.014287090590361
 30
0.0
 11
24.116238101553002
 21
17.354287090590361
 31
0.0
  0
LINE
  5
13D
  8
0
 62
     5
 10
22.556238101552989
 20
17.284287090590361
 30
0.0
 11
23.396238101552989
 21
19.064287090590351
 31
0.0
  0
LINE
  5
13E
  8
0
 62
     5
 10
23.006238101552999
 20
17.074287090590349
 30
0.0
 11
23.856238101553
 21
18.854287090590361
 31
0.0
  0
LINE
  5
13F
  8
0
 62
     5
 10
23.596238101552999
 20
17.134287090590359
 30
0.0
 11
24.166238101552999
 21
18.354287090590361
 31
0.0
  0
LINE
  5
140
  8
0
 62
     5
 10
22.556238101552989
 20
17.284287090590361
 30
0.0
 11
23.006238101552999
 21
17.074287090590349
 31
0.0
  0
LINE
  5
141
  8
0
 62
     5
 10
23.396238101552989
 20
19.064287090590351
 30
0.0
 11
23.856238101553
 21
18.854287090590361
 31
0.0
  0
LINE
  5
142
  8
0
 62
     5
 10
23.596238101552999
 20
17.134287090590359
 30
0.0
 11
23.136238101552991
 21
17.354287090590361
 31
0.0
  0
LINE
  5
143
  8
0
 62
     5
 10
24.166238101552999
 20
18.354287090590361
 30
0.0
 11
23.716238101552989
 21
18.57428709059036
 31
0.0
  0
LINE
  5
144
  8
0
 62
     5
 10
23.42623810155299
 20
17.964287090590361
 30
0.0
 11
23.886238101553001
 21
17.744287090590358
 31
0.0
  0
LINE
  5
145
  8
0
 10
18.426238101553
 20
13.13428709059035
 30
0.0
 11
17.806238101552999
 21
13.13428709059035
 31
0.0
  0
TEXT
  5
146
  8
0
 10
1.726238101552996
 20
13.954287090590361
 30
0.0
 40
0.75
  1
SLOT IN WEB TO INSERT
  0
TEXT
  5
147
  8
0
 10
1.726238101552996
 20
12.704287090590361
 30
0.0
 40
0.75
  1
HILLSIDE WASHER
  0
TEXT
  5
148
  8
0
 10
1.726238101552996
 20
11.454287090590361
 30
0.0
 40
0.75
  1
AND EYEBOLT
  0
LINE
  5
149
  8
0
 10
17.026238101553002
 20
15.29428709059035
 30
0.0
 11
17.806238101552999
 21
15.29428709059035
 31
0.0
  0
LINE
  5
14A
  8
0
 10
17.806238101552999
 20
15.29428709059035
 30
0.0
 11
17.806238101552999
 21
10.87428709059035
 31
0.0
  0
LINE
  5
14B
  8
0
 10
17.806238101552999
 20
10.87428709059035
 30
0.0
 11
17.026238101553002
 21
10.87428709059035
 31
0.0
  0
LINE
  5
14C
  8
0
 10
26.426238101553
 20
27.624287090590361
 30
0.0
 11
27.046238101552991
 21
27.624287090590361
 31
0.0
  0
TEXT
  5
14D
  8
0
 10
27.826238101552999
 20
23.204287090590359
 30
0.0
 40
0.75
  1
HILLSIDE
  0
TEXT
  5
14E
  8
0
 10
27.826238101552999
 20
21.954287090590348
 30
0.0
 40
0.75
  1
WASHER
  0
LINE
  5
14F
  8
0
 10
26.426238101553
 20
22.89428709059036
 30
0.0
 11
27.126238101552989
 21
22.89428709059036
 31
0.0
  0
LINE
  5
150
  8
0
 10
27.046238101552991
 20
20.224287090590359
 30
0.0
 11
27.666238101552999
 21
20.224287090590359
 31
0.0
  0
TEXT
  5
151
  8
0
 10
28.67623810155299
 20
19.914287090590349
 30
0.0
 40
0.75
  1
FLAT 
  0
TEXT
  5
152
  8
0
 10
28.67623810155299
 20
18.664287090590349
 30
0.0
 40
0.75
  1
WASHER
  0
LINE
  5
153
  8
0
 10
26.586238101553
 20
14.67428709059036
 30
0.0
 11
27.206238101552991
 21
14.67428709059036
 31
0.0
  0
TEXT
  5
154
  8
0
 10
27.826238101552999
 20
14.36428709059035
 30
0.0
 40
0.75
  1
NUT
  0
TEXT
  5
155
  8
0
 10
1.2233333366593411
 20
2.069999999053187
 30
0.0
 40
1.399999999999999
  1
Q3
 72
     4
 11
2.390000003326008
 21
2.7699999990531872
 31
0.0
  0
TEXT
  5
156
  8
0
 10
5.5987231278710441
 20
2.2513356154915432
 30
0.0
 40
1.0
  1
DIAGONAL BRACE ROD, NUT END
  0
LINE
  5
157
  8
0
 62
     1
 10
9.4151880347691517
 20
25.212928486724721
 30
0.0
 11
8.5668718142552915
 21
24.39370677533422
 31
0.0
  0
SOLID
  5
158
  8
0
 10
14.26868125951883
 20
21.64991293945992
 30
0.0
 11
14.3320488154459
 21
21.481435781198549
 31
0.0
 12
14.805796512266509
 22
21.75577702811043
 32
0.0
 13
14.805796512266509
 23
21.75577702811043
 33
0.0
  0
LINE
  5
159
  8
0
 10
14.30036503748237
 20
21.565674360329229
 30
0.0
 11
9.2928030115523423
 21
19.682232296069799
 31
0.0
  0
LINE
  5
15A
  8
0
 10
9.2928030115523423
 20
19.682232296069799
 30
0.0
 11
8.7528030115523414
 21
19.682232296069799
 31
0.0
  0
TEXT
  5
15B
  8
0
 10
1.7330583866433349
 20
19.220074761823241
 30
0.0
 40
0.75
  1
BRACE ROD
 72
     2
 11
8.2330583866433358
 21
19.220074761823241
 31
0.0
  0
ENDBLK
  5
11C
999
C:\MBS\DXF\R10.DXF
  0
BLOCK
  8
0
  2
R10
 70
     0
 10
0.0
 20
0.0
 30
0.0
  3
R10
  1

  0
LINE
  5
8B
  8
0
 10
16.098021590866502
 20
27.619070617532369
 30
0.0
 11
18.931999999999999
 21
28.030025461111919
 31
0.0
  0
TEXT
  5
8C
  8
0
 10
8.0785845127648788
 20
1.4225922702284111
 30
0.0
 40
1.0
  1
AT SIDEWALL COLUMN
 72
     1
 11
16.292870227050582
 21
1.4225922702284111
 31
0.0
  0
TEXT
  5
8D
  8
0
 10
10.55477498895535
 20
3.089258936895078
 30
0.0
 40
1.0
  1
ANCHOR BOLTS
 72
     1
 11
16.292870227050582
 21
3.089258936895078
 31
0.0
  0
TEXT
  5
8E
  8
0
 10
17.17731888476068
 20
29.286760049398161
 30
0.0
 40
0.75
  1
SIDEWALL COLUMN
 72
     1
 11
22.391604599046399
 21
29.286760049398161
 31
0.0
  0
TEXT
  5
8F
  8
0
 10
15.57342857142857
 20
9.8130000000000006
 30
0.0
 40
0.75
  1
BASE PLATE
 72
     1
 11
19.001999999999999
 21
9.8130000000000006
 31
0.0
  0
LINE
  5
90
  8
0
 10
13.992000000000001
 20
13.063000000000001
 30
0.0
 11
18.931999999999999
 21
11.462999999999999
 31
0.0
  0
LINE
  5
91
  8
0
 62
     6
 10
12.782
 20
15.81485810618188
 30
0.0
 11
12.782
 21
27.263615055003559
 31
0.0
  0
LINE
  5
92
  8
0
 62
     6
 10
13.25199999999999
 20
27.263615055003559
 30
0.0
 11
13.25199999999999
 21
15.81485810618188
 31
0.0
  0
LINE
  5
93
  8
0
 62
     5
 10
10.012
 20
13.263
 30
0.0
 11
10.012
 21
29.815473161185441
 31
0.0
  0
LINE
  5
94
  8
0
 62
     5
 10
16.012
 20
29.815473161185441
 30
0.0
 11
16.012
 21
13.263
 31
0.0
  0
LINE
  5
95
  8
0
 10
9.3719999999999999
 20
16.738385775646051
 30
0.0
 11
6.2720000000000002
 21
16.738385775646051
 31
0.0
  0
TEXT
  5
96
  8
0
 10
0.7005714285714288
 20
2.153
 30
0.0
 40
1.1999999999999991
  1
R10
 72
     1
 11
2.4719999999999991
 21
2.7530000000000001
 31
0.0
 73
     2
  0
CIRCLE
  5
97
  8
0
 10
2.4719999999999991
 20
2.7530000000000001
 30
0.0
 40
2.02
  0
CIRCLE
  5
98
  8
0
 10
2.4719999999999991
 20
2.7530000000000001
 30
0.0
 40
2.089999999999999
  0
TEXT
  5
99
  8
0
 10
2.7105714285714289
 20
13.50790759249535
 30
0.0
 40
0.75
  1
BOLTS
 72
     2
 11
6.032
 21
13.50790759249535
 31
0.0
  0
TEXT
  5
9A
  8
0
 10
1.6391428571428559
 20
14.75790759249535
 30
0.0
 40
0.75
  1
ANCHOR
 72
     2
 11
6.032
 21
14.75790759249535
 31
0.0
  0
LINE
  5
9B
  8
0
 62
     6
 10
10.56699999999999
 20
15.81485810618188
 30
0.0
 11
15.457000000000001
 21
15.81485810618188
 31
0.0
  0
LINE
  5
9C
  8
0
 62
     6
 10
15.457000000000001
 20
15.30485810618188
 30
0.0
 11
10.56699999999999
 21
15.30485810618188
 31
0.0
  0
TEXT
  5
9D
  8
0
 10
11.619142857142849
 20
7.2630000000000008
 30
0.0
 40
0.75
  1
PLAN
 72
     1
 11
13.012
 21
7.2630000000000008
 31
0.0
  0
LINE
  5
9E
  8
0
 62
     5
 10
16.012
 20
13.263
 30
0.0
 11
10.009728762516399
 21
13.263
 31
0.0
  0
LINE
  5
9F
  8
0
 10
7.8819999999999997
 20
16.738385775646051
 30
0.0
 11
7.8819999999999988
 21
14.51790759249535
 31
0.0
  0
LINE
  5
A0
  8
0
 10
7.8819999999999988
 20
14.51790759249535
 30
0.0
 11
6.9819999999999993
 21
14.51790759249535
 31
0.0
  0
SOLID
  5
A1
  8
0
 10
7.782
 20
16.088385775646049
 30
0.0
 11
7.9919999999999991
 21
16.088385775646049
 31
0.0
 12
7.8819999999999988
 22
16.738385775646051
 32
0.0
 13
7.8819999999999988
 23
16.738385775646051
 33
0.0
  0
CIRCLE
  5
A2
  8
0
 62
     4
 10
11.33973542097346
 20
14.408452000851909
 30
0.0
 40
0.33
  0
LINE
  5
A3
  8
0
 62
     6
 10
10.56699999999999
 20
15.30485810618188
 30
0.0
 11
10.56699999999999
 21
15.81485810618188
 31
0.0
  0
CIRCLE
  5
A4
  8
0
 62
     4
 10
11.342000000000001
 20
16.676690376840391
 30
0.0
 40
0.33
  0
LINE
  5
A5
  8
0
 62
     6
 10
12.782
 20
13.263
 30
0.0
 11
12.782
 21
15.30485810618188
 31
0.0
  0
LINE
  5
A6
  8
0
 62
     6
 10
13.25199999999999
 20
15.30485810618188
 30
0.0
 11
13.252000000000001
 21
13.263
 31
0.0
  0
SOLID
  5
A7
  8
0
 10
13.962
 20
12.962999999999999
 30
0.0
 11
14.032
 21
13.163
 31
0.0
 12
13.382
 22
13.263
 32
0.0
 13
13.382
 23
13.263
 33
0.0
  0
CIRCLE
  5
A8
  8
0
 62
     4
 10
14.679728762516399
 20
14.401782784345039
 30
0.0
 40
0.33
  0
CIRCLE
  5
A9
  8
0
 62
     4
 10
14.682
 20
16.676690376840391
 30
0.0
 40
0.33
  0
LINE
  5
AA
  8
0
 62
     6
 10
15.457000000000001
 20
15.81485810618188
 30
0.0
 11
15.457000000000001
 21
15.30485810618188
 31
0.0
  0
LINE
  5
AB
  8
0
 62
     6
 10
12.782
 20
27.77361505500356
 30
0.0
 11
12.782
 21
29.815473161185441
 31
0.0
  0
LINE
  5
AC
  8
0
 62
     6
 10
13.25199999999999
 20
29.815473161185441
 30
0.0
 11
13.252000000000001
 21
27.77361505500356
 31
0.0
  0
LINE
  5
AD
  8
0
 62
     6
 10
15.457000000000001
 20
27.77361505500356
 30
0.0
 11
10.56699999999999
 21
27.77361505500356
 31
0.0
  0
LINE
  5
AE
  8
0
 62
     6
 10
10.56699999999999
 20
27.263615055003559
 30
0.0
 11
15.457000000000001
 21
27.263615055003559
 31
0.0
  0
CIRCLE
  5
AF
  8
0
 62
     4
 10
11.342000000000001
 20
26.399124808150301
 30
0.0
 40
0.33
  0
LINE
  5
B0
  8
0
 62
     6
 10
10.56699999999999
 20
27.77361505500356
 30
0.0
 11
10.56699999999999
 21
27.263615055003559
 31
0.0
  0
CIRCLE
  5
B1
  8
0
 62
     4
 10
11.342000000000001
 20
28.676690376840401
 30
0.0
 40
0.33
  0
CIRCLE
  5
B2
  8
0
 62
     4
 10
14.682
 20
26.399124808150301
 30
0.0
 40
0.33
  0
CIRCLE
  5
B3
  8
0
 62
     4
 10
14.682
 20
28.676690376840401
 30
0.0
 40
0.33
  0
SOLID
  5
B4
  8
0
 10
16.11487442823335
 20
27.51750299536522
 30
0.0
 11
16.08452877778771
 21
27.730056850891359
 31
0.0
 12
15.457000000000001
 22
27.518615055003561
 32
0.0
 13
15.457000000000001
 23
27.518615055003561
 33
0.0
  0
LINE
  5
B5
  8
0
 62
     6
 10
15.457000000000001
 20
27.263615055003559
 30
0.0
 11
15.457000000000001
 21
27.77361505500356
 31
0.0
  0
LINE
  5
B6
  8
0
 62
     5
 10
10.012
 20
29.815473161185441
 30
0.0
 11
16.012
 21
29.815473161185441
 31
0.0
  0
LINE
  5
B7
  8
0
  6
HIDDEN
 62
     6
 10
25.222000000000001
 20
13.723000000000001
 30
0.0
 11
25.222000000000001
 21
26.003
 31
0.0
  0
LINE
  5
B8
  8
0
  6
HIDDEN
 62
     6
 10
24.832000000000001
 20
13.723000000000001
 30
0.0
 11
24.832000000000001
 21
25.922999999999998
 31
0.0
  0
LINE
  5
B9
  8
0
 62
     6
 10
27.472000000000001
 20
13.723000000000001
 30
0.0
 11
27.472000000000001
 21
26.512999999999991
 31
0.0
  0
LINE
  5
BA
  8
0
 62
     6
 10
22.652000000000001
 20
13.723000000000001
 30
0.0
 11
22.652000000000001
 21
25.433
 31
0.0
  0
TEXT
  5
BB
  8
0
 10
22.172714285714282
 20
7.2630000000000008
 30
0.0
 40
0.75
  1
ELEVATION
 72
     1
 11
25.012
 21
7.2630000000000008
 31
0.0
  0
LINE
  5
BC
  8
0
 62
     5
 10
28.012
 20
13.723000000000001
 30
0.0
 11
22.032
 21
13.723000000000001
 31
0.0
  0
LINE
  5
BD
  8
0
 62
     5
 10
22.012
 20
13.263
 30
0.0
 11
28.012
 21
13.263
 31
0.0
  0
LINE
  5
BE
  8
0
 10
24.161999999999999
 20
13.073
 30
0.0
 11
18.931999999999999
 21
11.462999999999999
 31
0.0
  0
LINE
  5
BF
  8
0
 10
18.931999999999999
 20
11.462999999999999
 30
0.0
 11
18.931999999999999
 21
10.943
 31
0.0
  0
LINE
  5
C0
  8
0
 62
     5
 10
22.032
 20
13.723000000000001
 30
0.0
 11
22.032
 21
13.313000000000001
 31
0.0
  0
SOLID
  5
C1
  8
0
 10
24.132000000000001
 20
13.173
 30
0.0
 11
24.192
 21
12.973000000000001
 31
0.0
 12
24.782
 22
13.263
 32
0.0
 13
24.782
 23
13.263
 33
0.0
  0
LINE
  5
C2
  8
0
 62
     5
 10
28.012
 20
13.263
 30
0.0
 11
28.012
 21
13.723000000000001
 31
0.0
  0
LINE
  5
C3
  8
0
 62
     6
 10
21.722000000000001
 20
25.222999999999988
 30
0.0
 11
25.992000000000001
 21
26.183
 31
0.0
  0
SOLID
  5
C4
  8
0
 10
23.391999999999989
 20
26.092999999999989
 30
0.0
 11
23.302
 21
25.893000000000001
 31
0.0
 12
23.931999999999999
 22
25.722999999999999
 32
0.0
 13
23.931999999999999
 23
25.722999999999999
 33
0.0
  0
LINE
  5
C5
  8
0
 10
23.341999999999999
 20
25.992999999999999
 30
0.0
 11
18.931999999999999
 21
28.003
 31
0.0
  0
LINE
  5
C6
  8
0
 10
18.931999999999999
 20
28.003
 30
0.0
 11
18.931999999999999
 21
28.513000000000002
 31
0.0
  0
LINE
  5
C7
  8
0
 62
     6
 10
26.382000000000001
 20
25.842999999999989
 30
0.0
 11
26.622
 21
26.323
 31
0.0
  0
LINE
  5
C8
  8
0
 62
     6
 10
26.071999999999999
 20
26.772999999999989
 30
0.0
 11
26.382000000000001
 21
25.842999999999989
 31
0.0
  0
LINE
  5
C9
  8
0
 62
     6
 10
25.992000000000001
 20
26.183
 30
0.0
 11
26.071999999999999
 21
26.772999999999989
 31
0.0
  0
LINE
  5
CA
  8
0
 62
     6
 10
26.622
 20
26.323
 30
0.0
 11
29.102
 21
26.873000000000001
 31
0.0
  0
ENDBLK
  5
8A
999
C:\MBS\DXF\U2.DXF
  0
BLOCK
  8
0
  2
U2
 70
    64
 10
0.0
 20
0.0
 30
0.0
  0
TEXT
  8
0
 10
10.208
 20
6.947
 30
0.0
 40
0.75
  1
OPTIONAL, AT TOP & BOTTOM.
  0
TEXT
  8
0
 10
10.208
 20
8.197
 30
0.0
 40
0.75
  1
EXTENSION BEYOND FLANGE IS
  0
LINE
  8
0
 10
9.237
 20
8.642
 30
0.0
 11
9.837
 21
8.642
 31
0.0
  0
LINE
  8
0
 10
8.179
 20
9.386
 30
0.0
 11
9.237
 21
8.642
 31
0.0
  0
SOLID
  8
0
 10
8.122
 20
9.304
 30
0.0
 11
8.237
 21
9.467
 31
0.0
 12
7.688
 22
9.731
 32
0.0
 13
7.688
 23
9.731
 33
0.0
  0
LINE
  8
0
 62
     3
 10
7.308
 20
23.012
 30
0.0
 11
7.308
 21
22.536
 31
0.0
  0
LINE
  8
0
 10
2.156
 20
15.858
 30
0.0
 11
2.662
 21
16.037
 31
0.0
  0
LINE
  8
0
 10
1.793
 20
16.488
 30
0.0
 11
2.662
 21
16.037
 31
0.0
  0
LINE
  8
0
 10
2.276
 20
16.856
 30
0.0
 11
1.793
 21
16.488
 31
0.0
  0
LINE
  8
0
 10
2.276
 20
16.856
 30
0.0
 11
3.049
 21
23.291
 31
0.0
  0
LINE
  8
0
 10
1.375
 20
9.359
 30
0.0
 11
2.156
 21
15.858
 31
0.0
  0
LINE
  8
0
 62
     3
 10
7.308
 20
11.96
 30
0.0
 11
1.577
 21
11.039
 31
0.0
  0
LINE
  8
0
 62
     3
 10
7.308
 20
11.403
 30
0.0
 11
1.513
 21
10.507
 31
0.0
  0
LINE
  8
0
 62
     3
 10
7.308
 20
11.96
 30
0.0
 11
7.308
 21
11.403
 31
0.0
  0
SOLID
  8
0
 10
7.308
 20
10.509
 30
0.0
 11
7.308
 21
10.993
 31
0.0
 12
7.688
 22
10.509
 32
0.0
 13
7.688
 23
10.993
 33
0.0
  0
SOLID
  8
0
 10
7.308
 20
12.364
 30
0.0
 11
7.308
 21
12.848
 31
0.0
 12
7.688
 22
12.364
 32
0.0
 13
7.688
 23
12.848
 33
0.0
  0
SOLID
  8
0
 10
7.308
 20
17.448
 30
0.0
 11
7.308
 21
17.932
 31
0.0
 12
7.688
 22
17.448
 32
0.0
 13
7.688
 23
17.932
 33
0.0
  0
SOLID
  8
0
 10
7.308
 20
21.49
 30
0.0
 11
7.308
 21
21.974
 31
0.0
 12
7.688
 22
21.49
 32
0.0
 13
7.688
 23
21.974
 33
0.0
  0
SOLID
  8
0
 10
7.308
 20
23.394
 30
0.0
 11
7.308
 21
23.878
 31
0.0
 12
7.688
 22
23.394
 32
0.0
 13
7.688
 23
23.878
 33
0.0
  0
POLYLINE
  8
0
 66
     1
 10
0.0
 20
0.0
 30
0.0
  0
VERTEX
  8
0
 10
7.308
 20
23.464
 30
0.0
  0
VERTEX
  8
0
 10
7.688
 20
23.464
 30
0.0
  0
SEQEND
  8
0
  0
LINE
  8
0
 62
     3
 10
7.308
 20
22.536
 30
0.0
 11
2.79
 21
21.502
 31
0.0
  0
LINE
  8
0
 62
     3
 10
7.308
 20
23.012
 30
0.0
 11
2.686
 21
21.955
 31
0.0
  0
POLYLINE
  8
0
 62
     1
 66
     1
 10
0.0
 20
0.0
 30
0.0
  0
VERTEX
  8
0
 62
     1
 10
7.308
 20
24.684
 30
0.0
  0
VERTEX
  8
0
 62
     1
 10
7.688
 20
24.684
 30
0.0
  0
SEQEND
  8
0
 62
     1
  0
LINE
  8
0
 62
     1
 10
7.308
 20
9.731
 30
0.0
 11
7.688
 21
9.731
 31
0.0
  0
LINE
  8
0
 62
     1
 10
7.308
 20
9.731
 30
0.0
 11
7.308
 21
24.684
 31
0.0
  0
LINE
  8
0
 62
     1
 10
7.688
 20
9.731
 30
0.0
 11
7.688
 21
24.684
 31
0.0
  0
LINE
  8
0
 62
     3
 10
15.338
 20
11.403
 30
0.0
 11
15.338
 21
11.96
 31
0.0
  0
LINE
  8
0
 62
     3
 10
11.14
 20
11.403
 30
0.0
 11
11.14
 21
11.96
 31
0.0
  0
LINE
  8
0
 62
     3
 10
15.403
 20
22.548
 30
0.0
 11
15.403
 21
23.012
 31
0.0
  0
LINE
  8
0
 62
     3
 10
11.088
 20
22.548
 30
0.0
 11
11.088
 21
23.012
 31
0.0
  0
TEXT
  8
0
 10
10.901
 20
1.438
 30
0.0
 40
1.0
  1
AT BUILDING PEAK
 72
     1
 11
18.401
 21
1.438
 31
0.0
  0
TEXT
  8
0
 10
5.235
 20
3.105
 30
0.0
 40
1.0
  1
BOLTED END PLATE CONNECTION
 72
     1
 11
18.401
 21
3.105
 31
0.0
  0
TEXT
  8
0
 10
1.022
 20
1.898
 30
0.0
 40
1.8
  1
U2
 72
     4
 11
2.522
 21
2.798
 31
0.0
  0
TEXT
  8
0
 10
19.934
 20
14.125
 30
0.0
 40
0.7
  1
GREATER THAN FOUR.
  0
TEXT
  8
0
 10
19.934
 20
15.292
 30
0.0
 40
0.7
  1
OR BOTTOM BOLTS
  0
TEXT
  8
0
 10
19.934
 20
16.459
 30
0.0
 40
0.7
  1
THE NUMBER OF TOP
  0
TEXT
  8
0
 10
19.934
 20
17.625
 30
0.0
 40
0.7
  1
INTERMEDIATE BOLTS,
  0
LINE
  8
0
 10
16.959
 20
17.811
 30
0.0
 11
19.554
 21
17.811
 31
0.0
  0
SOLID
  8
0
 10
16.959
 20
17.711
 30
0.0
 11
16.959
 21
17.911
 31
0.0
 12
16.359
 22
17.811
 32
0.0
 13
16.359
 23
17.811
 33
0.0
  0
TEXT
  8
0
 10
20.01
 20
10.05
 30
0.0
 40
0.7
  1
DRAWING FOR SIZE.
  0
TEXT
  8
0
 10
20.01
 20
11.217
 30
0.0
 40
0.7
  1
BOTTOM BOLTS, SEE
  0
LINE
  8
0
 10
18.802
 20
11.609
 30
0.0
 11
19.687
 21
11.609
 31
0.0
  0
LINE
  8
0
 10
15.979
 20
12.61
 30
0.0
 11
18.185
 21
12.61
 31
0.0
  0
LINE
  8
0
 10
15.979
 20
10.66
 30
0.0
 11
18.185
 21
10.66
 31
0.0
  0
LINE
  8
0
 10
18.185
 20
10.66
 30
0.0
 11
18.185
 21
12.61
 31
0.0
  0
SOLID
  8
0
 10
18.802
 20
11.509
 30
0.0
 11
18.802
 21
11.709
 31
0.0
 12
18.202
 22
11.609
 32
0.0
 13
18.202
 23
11.609
 33
0.0
  0
TEXT
  8
0
 10
20.01
 20
21.01
 30
0.0
 40
0.7
  1
DRAWING FOR SIZE.
  0
TEXT
  8
0
 10
20.01
 20
22.176
 30
0.0
 40
0.7
  1
TOP BOLTS, SEE
  0
LINE
  8
0
 10
18.802
 20
22.568
 30
0.0
 11
19.687
 21
22.568
 31
0.0
  0
SOLID
  8
0
 10
18.802
 20
22.468
 30
0.0
 11
18.802
 21
22.668
 31
0.0
 12
18.202
 22
22.568
 32
0.0
 13
18.202
 23
22.568
 33
0.0
  0
LINE
  8
0
 10
18.185
 20
21.619
 30
0.0
 11
18.185
 21
23.569
 31
0.0
  0
LINE
  8
0
 10
15.979
 20
21.619
 30
0.0
 11
18.185
 21
21.619
 31
0.0
  0
LINE
  8
0
 10
15.979
 20
23.569
 30
0.0
 11
18.185
 21
23.569
 31
0.0
  0
CIRCLE
  8
0
 62
     5
 10
14.518
 20
17.718
 30
0.0
 40
0.304
  0
CIRCLE
  8
0
 62
     5
 10
12.024
 20
17.718
 30
0.0
 40
0.304
  0
CIRCLE
  8
0
 62
     5
 10
14.518
 20
23.649
 30
0.0
 40
0.304
  0
CIRCLE
  8
0
 62
     5
 10
14.518
 20
21.712
 30
0.0
 40
0.304
  0
CIRCLE
  8
0
 62
     5
 10
12.024
 20
21.712
 30
0.0
 40
0.304
  0
CIRCLE
  8
0
 62
     5
 10
12.024
 20
23.649
 30
0.0
 40
0.304
  0
CIRCLE
  8
0
 62
     5
 10
12.024
 20
12.689
 30
0.0
 40
0.304
  0
CIRCLE
  8
0
 62
     5
 10
14.518
 20
12.689
 30
0.0
 40
0.304
  0
CIRCLE
  8
0
 62
     5
 10
14.518
 20
10.752
 30
0.0
 40
0.304
  0
CIRCLE
  8
0
 62
     5
 10
12.024
 20
10.752
 30
0.0
 40
0.304
  0
LINE
  8
0
 62
     2
 10
13.354
 20
22.548
 30
0.0
 11
13.354
 21
11.96
 31
0.0
  0
LINE
  8
0
 62
     2
 10
13.078
 20
22.548
 30
0.0
 11
13.078
 21
11.96
 31
0.0
  0
LINE
  8
0
 62
     3
 10
11.14
 20
11.96
 30
0.0
 11
15.338
 21
11.96
 31
0.0
  0
LINE
  8
0
 62
     3
 10
11.14
 20
11.403
 30
0.0
 11
15.338
 21
11.403
 31
0.0
  0
LINE
  8
0
 62
     3
 10
11.088
 20
22.548
 30
0.0
 11
15.403
 21
22.548
 31
0.0
  0
LINE
  8
0
 62
     3
 10
11.088
 20
23.012
 30
0.0
 11
15.403
 21
23.012
 31
0.0
  0
LINE
  8
0
 62
     1
 10
11.035
 20
9.731
 30
0.0
 11
15.447
 21
9.731
 31
0.0
  0
LINE
  8
0
 62
     1
 10
15.447
 20
24.684
 30
0.0
 11
15.447
 21
9.731
 31
0.0
  0
LINE
  8
0
 62
     1
 10
11.035
 20
24.684
 30
0.0
 11
15.447
 21
24.684
 31
0.0
  0
LINE
  8
0
 62
     1
 10
11.035
 20
9.731
 30
0.0
 11
11.035
 21
24.684
 31
0.0
  0
CIRCLE
  8
0
 10
2.522
 20
2.798
 30
0.0
 40
2.02
  0
CIRCLE
  8
0
 10
2.522
 20
2.798
 30
0.0
 40
2.09
  0
ENDBLK
  8
0
999
C:\MBS\DXF\U5.DXF
  0
BLOCK
  8
0
 62
     1
  2
U5
 70
    64
 10
0.0
 20
0.0
 30
0.0
  0
LINE
  8
0
 62
     2
 10
12.56
 20
21.65
 30
0.0
 11
12.56
 21
7.782
 31
0.0
  0
LINE
  8
0
 62
     2
 10
12.836
 20
21.65
 30
0.0
 11
12.836
 21
7.782
 31
0.0
  0
LINE
  8
0
 62
     1
 10
10.517
 20
24.066
 30
0.0
 11
14.928
 21
24.066
 31
0.0
  0
LINE
  8
0
 62
     1
 10
10.517
 20
22.114
 30
0.0
 11
10.517
 21
24.066
 31
0.0
  0
TEXT
  8
0
 10
1.24
 20
2.006
 30
0.0
 40
1.5
  1
U5
 72
     4
 11
2.49
 21
2.756
 31
0.0
  0
TEXT
  8
0
 10
4.468
 20
14.31
 30
0.0
 40
0.7
  1
PLATE
  0
TEXT
  8
0
 10
4.468
 20
15.477
 30
0.0
 40
0.7
  1
END
  0
TEXT
  8
0
 10
4.468
 20
16.644
 30
0.0
 40
0.7
  1
BOLTED
  0
TEXT
  8
0
 10
3.679
 20
7.156
 30
0.0
 40
0.7
  1
FLANGE
  0
TEXT
  8
0
 10
3.679
 20
8.322
 30
0.0
 40
0.7
  1
BOTTOM
  0
TEXT
  8
0
 10
7.873
 20
1.453
 30
0.0
 40
1.0
  1
COLUMN CONNECTION
 72
     1
 11
16.04
 21
1.453
 31
0.0
  0
TEXT
  8
0
 10
6.706
 20
3.119
 30
0.0
 40
1.0
  1
BOLTS FOR RAFTER TO
 72
     1
 11
16.04
 21
3.119
 31
0.0
  0
LINE
  8
0
 10
9.917
 20
7.504
 30
0.0
 11
8.387
 21
7.504
 31
0.0
  0
SOLID
  8
0
 10
9.917
 20
7.604
 30
0.0
 11
9.917
 21
7.404
 31
0.0
 12
10.517
 22
7.504
 32
0.0
 13
10.517
 23
7.504
 33
0.0
  0
LINE
  8
0
 10
11.96
 20
11.372
 30
0.0
 11
8.539
 21
11.372
 31
0.0
  0
SOLID
  8
0
 10
11.96
 20
11.472
 30
0.0
 11
11.96
 21
11.272
 31
0.0
 12
12.56
 22
11.372
 32
0.0
 13
12.56
 23
11.372
 33
0.0
  0
LINE
  8
0
 10
8.615
 20
20.38
 30
0.0
 11
8.159
 21
20.38
 31
0.0
  0
LINE
  8
0
 10
10.304
 20
21.376
 30
0.0
 11
8.615
 21
20.38
 31
0.0
  0
SOLID
  8
0
 10
10.253
 20
21.462
 30
0.0
 11
10.355
 21
21.29
 31
0.0
 12
10.821
 22
21.68
 32
0.0
 13
10.821
 23
21.68
 33
0.0
  0
LINE
  8
0
 10
9.993
 20
14.656
 30
0.0
 11
8.463
 21
14.656
 31
0.0
  0
SOLID
  8
0
 10
9.993
 20
14.756
 30
0.0
 11
9.993
 21
14.556
 31
0.0
 12
10.593
 22
14.656
 32
0.0
 13
10.593
 23
14.656
 33
0.0
  0
TEXT
  8
0
 10
5.831
 20
11.093
 30
0.0
 40
0.7
  1
WEB
 72
     2
 11
7.931
 21
11.093
 31
0.0
  0
TEXT
  8
0
 10
1.164
 20
20.009
 30
0.0
 40
0.7
  1
TOP FLANGE
 72
     2
 11
7.931
 21
20.009
 31
0.0
  0
TEXT
  8
0
 10
19.416
 20
11.562
 30
0.0
 40
0.7
  1
GREATER THAN FOUR.
  0
TEXT
  8
0
 10
19.416
 20
12.729
 30
0.0
 40
0.7
  1
OR BOTTOM BOLTS
  0
TEXT
  8
0
 10
19.416
 20
13.896
 30
0.0
 40
0.7
  1
THE NUMBER OF TOP
  0
TEXT
  8
0
 10
19.416
 20
15.062
 30
0.0
 40
0.7
  1
INTERMEDIATE BOLTS,
  0
LINE
  8
0
 10
16.441
 20
15.248
 30
0.0
 11
19.036
 21
15.248
 31
0.0
  0
SOLID
  8
0
 10
16.441
 20
15.148
 30
0.0
 11
16.441
 21
15.348
 31
0.0
 12
15.841
 22
15.248
 32
0.0
 13
15.841
 23
15.248
 33
0.0
  0
TEXT
  8
0
 10
19.492
 20
7.784
 30
0.0
 40
0.7
  1
DRAWING FOR SIZE.
  0
TEXT
  8
0
 10
19.492
 20
8.95
 30
0.0
 40
0.7
  1
BOTTOM BOLTS, SEE
  0
LINE
  8
0
 10
18.284
 20
9.342
 30
0.0
 11
19.169
 21
9.342
 31
0.0
  0
LINE
  8
0
 10
15.461
 20
10.047
 30
0.0
 11
17.667
 21
10.047
 31
0.0
  0
LINE
  8
0
 10
15.461
 20
8.69
 30
0.0
 11
17.667
 21
8.69
 31
0.0
  0
LINE
  8
0
 10
17.667
 20
8.69
 30
0.0
 11
17.667
 21
10.047
 31
0.0
  0
SOLID
  8
0
 10
18.284
 20
9.242
 30
0.0
 11
18.284
 21
9.442
 31
0.0
 12
17.684
 22
9.342
 32
0.0
 13
17.684
 23
9.342
 33
0.0
  0
TEXT
  8
0
 10
19.492
 20
20.067
 30
0.0
 40
0.7
  1
DRAWING FOR SIZE.
  0
TEXT
  8
0
 10
19.492
 20
21.234
 30
0.0
 40
0.7
  1
TOP BOLTS, SEE
  0
LINE
  8
0
 10
18.284
 20
21.626
 30
0.0
 11
19.169
 21
21.626
 31
0.0
  0
SOLID
  8
0
 10
18.284
 20
21.526
 30
0.0
 11
18.284
 21
21.726
 31
0.0
 12
17.684
 22
21.626
 32
0.0
 13
17.684
 23
21.626
 33
0.0
  0
LINE
  8
0
 10
17.667
 20
20.899
 30
0.0
 11
17.667
 21
23.038
 31
0.0
  0
LINE
  8
0
 10
15.461
 20
20.899
 30
0.0
 11
17.667
 21
20.899
 31
0.0
  0
LINE
  8
0
 10
15.461
 20
23.038
 30
0.0
 11
17.667
 21
23.038
 31
0.0
  0
CIRCLE
  8
0
 62
     5
 10
14.0
 20
15.155
 30
0.0
 40
0.304
  0
CIRCLE
  8
0
 62
     5
 10
11.506
 20
15.155
 30
0.0
 40
0.304
  0
CIRCLE
  8
0
 62
     5
 10
14.0
 20
23.005
 30
0.0
 40
0.304
  0
CIRCLE
  8
0
 62
     5
 10
14.0
 20
20.992
 30
0.0
 40
0.304
  0
CIRCLE
  8
0
 62
     5
 10
11.506
 20
20.992
 30
0.0
 40
0.304
  0
CIRCLE
  8
0
 62
     5
 10
11.506
 20
23.005
 30
0.0
 40
0.304
  0
CIRCLE
  8
0
 62
     5
 10
11.506
 20
10.126
 30
0.0
 40
0.304
  0
CIRCLE
  8
0
 62
     5
 10
14.0
 20
10.126
 30
0.0
 40
0.304
  0
CIRCLE
  8
0
 62
     5
 10
14.0
 20
8.783
 30
0.0
 40
0.304
  0
CIRCLE
  8
0
 62
     5
 10
11.506
 20
8.783
 30
0.0
 40
0.304
  0
LINE
  8
0
 62
     2
 10
12.836
 20
24.066
 30
0.0
 11
12.836
 21
22.114
 31
0.0
  0
LINE
  8
0
 62
     2
 10
12.56
 20
24.066
 30
0.0
 11
12.56
 21
22.114
 31
0.0
  0
LINE
  8
0
 62
     3
 10
10.517
 20
7.782
 30
0.0
 11
14.928
 21
7.782
 31
0.0
  0
LINE
  8
0
 62
     3
 10
10.517
 20
7.225
 30
0.0
 11
14.928
 21
7.225
 31
0.0
  0
LINE
  8
0
 62
     3
 10
10.517
 20
21.65
 30
0.0
 11
14.928
 21
21.65
 31
0.0
  0
LINE
  8
0
 62
     3
 10
10.517
 20
22.114
 30
0.0
 11
14.928
 21
22.114
 31
0.0
  0
LINE
  8
0
 62
     1
 10
10.517
 20
7.168
 30
0.0
 11
14.928
 21
7.168
 31
0.0
  0
LINE
  8
0
 62
     1
 10
14.928
 20
24.066
 30
0.0
 11
14.928
 21
7.168
 31
0.0
  0
LINE
  8
0
 62
     1
 10
10.517
 20
7.168
 30
0.0
 11
10.517
 21
22.121
 31
0.0
  0
CIRCLE
  8
0
 10
2.49
 20
2.756
 30
0.0
 40
2.02
  0
CIRCLE
  8
0
 10
2.49
 20
2.756
 30
0.0
 40
2.09
  0
ENDBLK
  8
0
999
X1.BLK
  0
BLOCK
  8
3
  2
X1
 70
     0
 10
0.00000000
 20
0.00000000
  0
LINE
  8
1
 10
5.10894680
 20
21.0058041
 11
5.10894680
 21
14.9941998
  0
LINE
  8
1
 10
5.10894680
 20
14.9941998
 11
5.24642896
 21
14.9941998
  0
LINE
  8
1
 10
5.24642896
 20
14.9941998
 11
5.24642848
 21
21.0058041
  0
LINE
  8
1
 10
5.24642848
 20
21.0058041
 11
5.10894680
 21
21.0058041
  0
LINE
  8
1
 10
5.25070382
 20
20.1753292
 11
30.8910522
 21
17.6112957
  0
LINE
  8
1
 10
30.8910522
 20
17.6112957
 11
30.8910522
 21
15.8104973
  0
LINE
  8
1
 10
30.8910522
 20
15.8104973
 11
5.24642896
 21
15.8104973
  0
LINE
  8
1
 10
5.24642896
 20
15.8104973
 11
5.25070382
 21
20.1753292
  0
LINE
  8
1
 10
5.25054360
 20
20.0116405
 11
30.8910522
 21
17.4476071
  0
LINE
  8
1
 10
30.8910522
 20
17.4476071
 11
30.8910522
 21
15.9593086
  0
LINE
  8
1
 10
30.8910522
 20
15.9593086
 11
5.24658346
 21
15.9680500
  0
LINE
  8
1
 10
5.24658346
 20
15.9680500
 11
5.25054360
 21
20.0116405
  0
TEXT
  8
3
 7
SIMPLEX
 10
6.09221077
 20
14.2184382
 40
1.00000000
  1
EB-1
 50
  -5.711
  0
LINE
  8
3
 10
3.95219256
 20
25.5036927
 11
7.53432656
 21
25.1454773
  0
LINE
  8
3
 10
7.23581552
 20
25.4738407
 11
7.23581552
 21
25.1753292
  0
LINE
  8
3
 10
4.25070382
 20
25.4738407
 11
7.23581552
 21
25.4738407
  0
TEXT
  8
3
 7
SIMPLEX
 10
4.55070400
 20
25.7738400
 40
1.00000000
  1
100
 50
   0.000
  0
TEXT
  8
3
 7
SIMPLEX
 10
7.53581572
 20
24.8245850
 40
1.00000000
  1
10.0
 50
   0.000
  0
LINE
  8
1
 10
5.43632508
 20
20.1753292
 11
4.97146512
 21
20.1753292
  0
LINE
  8
1
 10
5.43632508
 20
15.8104973
 11
4.97146512
 21
15.8104973
  0
LINE
  8
1
 10
5.43632508
 20
20.0116405
 11
4.97146512
 21
20.0116405
  0
LINE
  8
1
 10
5.43632508
 20
15.9741869
 11
4.97146512
 21
15.9741869
  0
LINE
  8
1
 10
5.10894680
 20
21.0058041
 11
4.97146512
 21
21.0058041
  0
LINE
  8
1
 10
4.97146512
 20
21.0058041
 11
4.97146512
 21
14.9941998
  0
LINE
  8
1
 10
5.10894680
 20
14.9941998
 11
4.97146512
 21
14.9941998
  0
LINE
  8
1
 10
5.32719898
 20
20.6191368
 11
4.61573076
 21
20.6191368
  0
LINE
  8
1
 10
5.32719946
 20
19.7598763
 11
4.61573124
 21
19.7598763
  0
LINE
  8
1
 10
5.32720042
 20
16.2401276
 11
4.61573220
 21
16.2401276
  0
LINE
  8
1
 10
5.32720088
 20
15.3808670
 11
4.61573268
 21
15.3808670
  0
LINE
  8
3
 10
30.1824570
 20
17.6821537
 11
30.3320809
 21
19.1783981
  0
LINE
  8
3
 10
30.3320809
 20
19.1783981
 11
30.3972321
 21
19.1718826
  0
LINE
  8
3
 10
30.3972321
 20
19.1718826
 11
30.2476101
 21
17.6756382
  0
LINE
  8
3
 10
30.2476101
 20
17.6756382
 11
30.1824570
 21
17.6821537
  0
LINE
  8
1
 10
30.1586876
 20
18.9798508
 11
30.7233277
 21
18.9233875
  0
LINE
  8
1
 10
30.0731869
 20
18.1248531
 11
30.6378308
 21
18.0683899
  0
LINE
  8
3
 10
7.43780804
 20
19.9566193
 11
7.58743240
 21
21.4528637
  0
LINE
  8
3
 10
7.58743240
 20
21.4528637
 11
7.52228164
 21
21.4593792
  0
LINE
  8
3
 10
7.52228164
 20
21.4593792
 11
7.37265728
 21
19.9631348
  0
LINE
  8
3
 10
7.37265728
 20
19.9631348
 11
7.43780804
 21
19.9566193
  0
LINE
  8
1
 10
7.28373766
 20
21.2673473
 11
7.84837768
 21
21.2108841
  0
LINE
  8
1
 10
7.19823790
 20
20.4123497
 11
7.76287792
 21
20.3558865
  0
LINE
  8
3
 10
19.0442276
 20
18.7959767
 11
19.1938515
 21
20.2922211
  0
LINE
  8
3
 10
19.1938515
 20
20.2922211
 11
19.1287003
 21
20.2987366
  0
LINE
  8
3
 10
19.1287003
 20
20.2987366
 11
18.9790764
 21
18.8024922
  0
LINE
  8
3
 10
18.9790764
 20
18.8024922
 11
19.0442276
 21
18.7959767
  0
LINE
  8
1
 10
18.8901558
 20
20.1067047
 11
19.4547959
 21
20.0502415
  0
LINE
  8
1
 10
18.8046570
 20
19.2517071
 11
19.3692970
 21
19.1952438
  0
LINE
  8
3
 10
7.67938808
 20
21.7143898
 11
8.01722431
 21
21.9908009
  0
LINE
  8
3
 10
8.01722431
 20
21.9908009
 11
7.40297748
 21
22.0522251
  0
LINE
  8
3
 10
7.40297748
 20
22.0522251
 11
7.67938808
 21
21.7143898
  0
TEXT
  8
0
 10
6.62579344
 20
22.4845543
 40
0.75000000
  1
FB608(A)
 50
  -5.711
  0
LINE
  8
0
 10
7.58800268
 20
21.1230373
 11
7.07244206
 21
15.9674253
  0
INSERT
  8
10
  2
ZCOL
 10
7.50838852
 20
20.0043964
 41
1.60939600
 42
-1.6093960
 43
-1.6093960
 50
  -5.711
  0
LINE
  8
3
 10
19.2858067
 20
20.5537472
 11
19.6236420
 21
20.8301583
  0
LINE
  8
3
 10
19.6236420
 20
20.8301583
 11
19.0093956
 21
20.8915825
  0
LINE
  8
3
 10
19.0093956
 20
20.8915825
 11
19.2858067
 21
20.5537472
  0
TEXT
  8
0
 10
18.2322121
 20
21.3239117
 40
0.75000000
  1
FB496(A)
 50
  -5.711
  0
LINE
  8
0
 10
19.1944218
 20
19.9623947
 11
18.7945252
 21
15.9634323
  0
INSERT
  8
10
  2
ZCOL
 10
19.1148071
 20
18.8437538
 41
1.60939600
 42
-1.6093960
 43
-1.6093960
 50
  -5.711
  0
INSERT
  8
10
  2
ZCOL
 10
30.1227322
 20
17.7429619
 41
-1.6093960
 42
-1.6093960
 43
-1.6093960
 50
  -5.711
  0
LINE
  8
5
 10
5.10894680
 20
21.9163837
 11
30.9777317
 21
19.3295059
  0
CIRCLE
  8
3
 10
2.77500008
 20
2.77500008
 40
2.08125019
  0
TEXT
  8
3
 7
SIMPLEX
 10
1.22967196
 20
1.83843752
 40
1.87312504
  1
X1
 72
           1
 11
2.77500008
 21
1.83843752
 50
   0.000
  0
ENDBLK
  8
3
999
X2.BLK
  0
BLOCK
  8
3
  2
X2
 70
     0
 10
0.00000000
 20
0.00000000
  0
LINE
  8
1
 10
4.88489768
 20
20.8458309
 11
4.88489768
 21
15.1541700
  0
LINE
  8
1
 10
4.88489768
 20
15.1541700
 11
5.00777388
 21
15.1541700
  0
LINE
  8
1
 10
5.00777388
 20
15.1541700
 11
5.00777388
 21
20.8458309
  0
LINE
  8
1
 10
5.00777388
 20
20.8458309
 11
4.88489768
 21
20.8458309
  0
LINE
  8
1
 10
5.01159477
 20
20.1035843
 11
31.1151047
 21
17.4932347
  0
LINE
  8
1
 10
31.1151047
 20
17.4932347
 11
31.1151047
 21
15.8837471
  0
LINE
  8
1
 10
31.1151047
 20
15.8837471
 11
5.00777388
 21
15.8837471
  0
LINE
  8
1
 10
5.00777388
 20
15.8837471
 11
5.01159477
 21
20.1035843
  0
LINE
  8
1
 10
5.01146221
 20
19.9572849
 11
31.1151047
 21
17.3469353
  0
LINE
  8
1
 10
31.1151047
 20
17.3469353
 11
31.1151047
 21
16.0167484
  0
LINE
  8
1
 10
31.1151047
 20
16.0167484
 11
5.00790167
 21
16.0249748
  0
LINE
  8
1
 10
5.00790167
 20
16.0249748
 11
5.01146221
 21
19.9572849
  0
TEXT
  8
3
 7
SIMPLEX
 10
5.85355520
 20
14.2916880
 40
1.00000000
  1
EB-2
 50
  -5.711
  0
LINE
  8
3
 10
3.71308352
 20
25.4319477
 11
7.29521752
 21
25.0737324
  0
LINE
  8
3
 10
6.99670648
 20
25.4020958
 11
6.99670648
 21
25.1035843
  0
LINE
  8
3
 10
4.01159477
 20
25.4020958
 11
6.99670648
 21
25.4020958
  0
TEXT
  8
3
 7
SIMPLEX
 10
4.31159496
 20
25.7020951
 40
1.00000000
  1
100
 50
   0.000
  0
TEXT
  8
3
 7
SIMPLEX
 10
7.29670668
 20
24.7528401
 40
1.00000000
  1
10.0
 50
   0.000
  0
LINE
  8
1
 10
5.07996369
 20
20.5002423
 11
4.56695556
 21
20.5002423
  0
LINE
  8
1
 10
5.07996416
 20
19.7322655
 11
4.56695604
 21
19.7322655
  0
LINE
  8
1
 10
5.07996512
 20
16.2677345
 11
4.56695700
 21
16.2677345
  0
LINE
  8
1
 10
5.07996559
 20
15.4997587
 11
4.56695748
 21
15.4997587
  0
LINE
  8
3
 10
30.4817829
 20
17.5565663
 11
30.6155110
 21
18.8938541
  0
LINE
  8
3
 10
30.6155110
 20
18.8938541
 11
30.6737385
 21
18.8880310
  0
LINE
  8
3
 10
30.6737385
 20
18.8880310
 11
30.5400105
 21
17.5507431
  0
LINE
  8
3
 10
30.5400105
 20
17.5507431
 11
30.4817829
 21
17.5565663
  0
LINE
  8
1
 10
30.4605370
 20
18.7163983
 11
30.9651909
 21
18.6659336
  0
LINE
  8
1
 10
30.3841210
 20
17.9522343
 11
30.8887749
 21
17.9017696
  0
LINE
  8
3
 10
10.1534500
 20
19.5893994
 11
10.2871790
 21
20.9266872
  0
LINE
  8
3
 10
10.2871790
 20
20.9266872
 11
10.2289496
 21
20.9325104
  0
LINE
  8
3
 10
10.2289496
 20
20.9325104
 11
10.0952206
 21
19.5952225
  0
LINE
  8
3
 10
10.0952206
 20
19.5952225
 11
10.1534500
 21
19.5893994
  0
LINE
  8
1
 10
10.0157480
 20
20.7608776
 11
10.5204020
 21
20.7104130
  0
LINE
  8
1
 10
 9.9393311
 20
19.9967136
 11
10.4439850
 21
19.9462490
  0
LINE
  8
3
 10
20.5268440
 20
18.5520592
 11
20.6605721
 21
19.8893471
  0
LINE
  8
3
 10
20.6605721
 20
19.8893471
 11
20.6023426
 21
19.8951702
  0
LINE
  8
3
 10
20.6023426
 20
19.8951702
 11
20.4686146
 21
18.5578823
  0
LINE
  8
3
 10
20.4686146
 20
18.5578823
 11
20.5268440
 21
18.5520592
  0
LINE
  8
1
 10
20.3891411
 20
19.7235375
 11
20.8937950
 21
19.6730728
  0
LINE
  8
1
 10
20.3127251
 20
18.9593735
 11
20.8173790
 21
18.9089088
  0
LINE
  8
3
 10
10.3693648
 20
21.1604309
 11
10.6713104
 21
21.4074764
  0
LINE
  8
3
 10
10.6713104
 20
21.4074764
 11
10.1223183
 21
21.4623757
  0
LINE
  8
3
 10
10.1223183
 20
21.4623757
 11
10.3693648
 21
21.1604309
  0
TEXT
  8
0
 10
9.31115532
 20
21.8844528
 40
0.75000000
  1
FB608(A)
 50
  -5.711
  0
LINE
  8
0
 10
10.2876883
 20
20.6319027
 11
9.82684424
 21
16.0234566
  0
INSERT
  8
10
  2
ZCOL
 10
10.2165318
 20
19.6321011
 41
1.43841924
 42
-1.4384192
 43
-1.4384192
 50
  -5.711
  0
LINE
  8
3
 10
20.7427578
 20
20.1230908
 11
21.0447025
 21
20.3701363
  0
LINE
  8
3
 10
21.0447025
 20
20.3701363
 11
20.4957123
 21
20.4250355
  0
LINE
  8
3
 10
20.4957123
 20
20.4250355
 11
20.7427578
 21
20.1230908
  0
TEXT
  8
0
 10
19.6845494
 20
20.8471127
 40
0.75000000
  1
FB496(A)
 50
  -5.711
  0
LINE
  8
0
 10
20.6610832
 20
19.5945626
 11
20.3036423
 21
16.0201550
  0
INSERT
  8
10
  2
ZCOL
 10
20.5899258
 20
18.5947609
 41
1.43841924
 42
-1.4384192
 43
-1.4384192
 50
  -5.711
  0
INSERT
  8
10
  2
ZCOL
 10
30.4284039
 20
17.6109143
 41
-1.4384192
 42
-1.4384192
 43
-1.4384192
 50
  -5.711
  0
LINE
  8
5
 10
8.07199860
 20
21.3409653
 11
31.1925659
 21
19.0289078
  0
CIRCLE
  8
3
 10
2.77500008
 20
2.77500008
 40
2.08125019
  0
TEXT
  8
3
 7
SIMPLEX
 10
0.90187504
 20
1.83843752
 40
1.87312504
  1
X2
 72
           1
 11
2.77500008
 21
1.83843752
 50
   0.000
  0
ENDBLK
  8
3
  0
ENDSEC
  0
SECTION
  2
ENTITIES
  0
LINE
  8
22
 10
 0.0000000
 20
 0.0000000
 11
420.0000000
 21
 0.0000000
  0
LINE
  8
22
 10
420.0000000
 20
 0.0000000
 11
420.0000000
 21
297.0000000
  0
LINE
  8
22
 10
420.0000000
 20
297.0000000
 11
 0.0000000
 21
297.0000000
  0
LINE
  8
22
 10
 0.0000000
 20
297.0000000
 11
 0.0000000
 21
 0.0000000
  0
LINE
  8
0
 10
259.9800110
 20
 0.0000000
 11
259.9800110
 21
26.6700001
  0
LINE
  8
0
 10
259.9800110
 20
26.6700001
 11
420.0000000
 21
26.6700001
  0
LINE
  8
0
 10
259.9800110
 20
10.1599998
 11
420.0000000
 21
10.1599998
  0
LINE
  8
0
 10
259.9800110
 20
15.2399998
 11
420.0000000
 21
15.2399998
  0
LINE
  8
0
 10
259.9800110
 20
20.3199997
 11
420.0000000
 21
20.3199997
  0
LINE
  8
0
 10
282.8399963
 20
 0.0000000
 11
282.8399963
 21
20.3199997
  0
LINE
  8
0
 10
339.9899902
 20
 0.0000000
 11
339.9899902
 21
20.3199997
  0
LINE
  8
0
 10
339.9899902
 20
 5.0799999
 11
420.0000000
 21
 5.0799999
  0
LINE
  8
0
 10
367.9299927
 20
15.2399998
 11
367.9299927
 21
10.1599998
  0
LINE
  8
0
 10
393.3299866
 20
15.2399998
 11
393.3299866
 21
10.1599998
  0
LINE
  8
0
 10
375.5499878
 20
10.1599998
 11
375.5499878
 21
 5.0799999
  0
TEXT
  8
1
  7
SIMPLEX
 10
262.5199890
 20
16.5100002
 40
 2.5400000
  1
PROJECT
 50
 0.0000000
  0
TEXT
  8
1
  7
SIMPLEX
 10
262.5199890
 20
11.4300003
 40
 2.5400000
  1
ID
 50
 0.0000000
  0
TEXT
  8
1
  7
SIMPLEX
 10
262.5199890
 20
 6.3499999
 40
 2.5400000
  1
PROJECT
 50
 0.0000000
  0
TEXT
  8
1
  7
SIMPLEX
 10
262.5199890
 20
 1.2700000
 40
 2.5400000
  1
ADDRESS
 50
 0.0000000
  0
TEXT
  8
1
  7
SIMPLEX
 10
285.3800049
 20
16.5100002
 40
 2.5400000
  1
Proposed Warehouse
 50
 0.0000000
  0
TEXT
  8
1
  7
SIMPLEX
 10
285.3800049
 20
11.4300003
 40
 2.5400000
  1
111
 50
 0.0000000
  0
TEXT
  8
1
  7
SIMPLEX
 10
285.3800049
 20
 6.3499999
 40
 2.5400000
  1
Proposed Warehouse
 50
 0.0000000
  0
TEXT
  8
1
  7
SIMPLEX
 10
285.3800049
 20
 1.2700000
 40
 2.5400000
  1
 
 50
 0.0000000
  0
TEXT
  8
1
  7
SIMPLEX
 10
294.9049988
 20
21.5900002
 40
 3.8099999
  1
Sivoko Steel Structures Ltd.
 50
 0.0000000
  0
TEXT
  8
1
  7
SIMPLEX
 10
342.5299988
 20
16.5100002
 40
 2.5400000
  1
STRUCTURAL DETAILS
 50
 0.0000000
  0
TEXT
  8
1
  7
SIMPLEX
 10
342.5299988
 20
11.4300003
 40
 2.5400000
  1
DESIGN:
 50
 0.0000000
  0
TEXT
  8
1
  7
SIMPLEX
 10
342.5299988
 20
 6.3499999
 40
 2.5400000
  1
DATE:
 50
 0.0000000
  0
TEXT
  8
1
  7
SIMPLEX
 10
353.9599915
 20
 6.3499999
 40
 2.5400000
  1
19/JAN/202610:58am
 50
 0.0000000
  0
TEXT
  8
1
  7
SIMPLEX
 10
370.4700012
 20
11.4300003
 40
 2.5400000
  1
DRAFT:
 50
 0.0000000
  0
TEXT
  8
1
  7
SIMPLEX
 10
395.8699951
 20
11.4300003
 40
 2.5400000
  1
CHECK:
 50
 0.0000000
  0
TEXT
  8
1
  7
SIMPLEX
 10
378.0899963
 20
 6.3499999
 40
 2.5400000
  1
SHEET
 50
 0.0000000
  0
TEXT
  8
1
  7
SIMPLEX
 10
403.4899902
 20
 6.3499999
 40
 2.5400000
  1
OF
 50
 0.0000000
  0
TEXT
  8
1
  7
SIMPLEX
 10
392.0599976
 20
 6.3499999
 40
 2.5400000
  1
 
 50
 0.0000000
999
FIELD:@PAGE_ID
  0
TEXT
  8
1
  7
SIMPLEX
 10
409.8399963
 20
 6.3499999
 40
 2.5400000
  1
 
 50
 0.0000000
999
FIELD:@PAGE_TOTAL
  0
INSERT
  8
0
  2
Q3
 10
 5.0000000
 20
217.0000000
 41
 2.0833001
 42
 2.0833001
 43
 2.0833001
 50
 0.0000000
  0
LINE
  8
24
 10
 5.0000000
 20
217.0000000
 11
80.0000000
 21
217.0000000
  0
LINE
  8
24
 10
80.0000000
 20
217.0000000
 11
80.0000000
 21
292.0000000
  0
LINE
  8
24
 10
80.0000000
 20
292.0000000
 11
 5.0000000
 21
292.0000000
  0
LINE
  8
24
 10
 5.0000000
 20
292.0000000
 11
 5.0000000
 21
217.0000000
  0
INSERT
  8
0
  2
R10
 10
80.0000000
 20
217.0000000
 41
 2.0833001
 42
 2.0833001
 43
 2.0833001
 50
 0.0000000
  0
LINE
  8
24
 10
80.0000000
 20
217.0000000
 11
155.0000000
 21
217.0000000
  0
LINE
  8
24
 10
155.0000000
 20
217.0000000
 11
155.0000000
 21
292.0000000
  0
LINE
  8
24
 10
155.0000000
 20
292.0000000
 11
80.0000000
 21
292.0000000
  0
LINE
  8
24
 10
80.0000000
 20
292.0000000
 11
80.0000000
 21
217.0000000
  0
INSERT
  8
0
  2
U2
 10
155.0000000
 20
217.0000000
 41
 2.0833001
 42
 2.0833001
 43
 2.0833001
 50
 0.0000000
  0
LINE
  8
24
 10
155.0000000
 20
217.0000000
 11
230.0000000
 21
217.0000000
  0
LINE
  8
24
 10
230.0000000
 20
217.0000000
 11
230.0000000
 21
292.0000000
  0
LINE
  8
24
 10
230.0000000
 20
292.0000000
 11
155.0000000
 21
292.0000000
  0
LINE
  8
24
 10
155.0000000
 20
292.0000000
 11
155.0000000
 21
217.0000000
  0
INSERT
  8
0
  2
U5
 10
230.0000000
 20
217.0000000
 41
 2.0833001
 42
 2.0833001
 43
 2.0833001
 50
 0.0000000
  0
LINE
  8
24
 10
230.0000000
 20
217.0000000
 11
305.0000000
 21
217.0000000
  0
LINE
  8
24
 10
305.0000000
 20
217.0000000
 11
305.0000000
 21
292.0000000
  0
LINE
  8
24
 10
305.0000000
 20
292.0000000
 11
230.0000000
 21
292.0000000
  0
LINE
  8
24
 10
230.0000000
 20
292.0000000
 11
230.0000000
 21
217.0000000
  0
INSERT
  8
0
  2
X1
 10
305.0000000
 20
217.0000000
 41
 2.0833001
 42
 2.0833001
 43
 2.0833001
 50
 0.0000000
  0
LINE
  8
24
 10
305.0000000
 20
217.0000000
 11
380.0000000
 21
217.0000000
  0
LINE
  8
24
 10
380.0000000
 20
217.0000000
 11
380.0000000
 21
292.0000000
  0
LINE
  8
24
 10
380.0000000
 20
292.0000000
 11
305.0000000
 21
292.0000000
  0
LINE
  8
24
 10
305.0000000
 20
292.0000000
 11
305.0000000
 21
217.0000000
  0
INSERT
  8
0
  2
X2
 10
 5.0000000
 20
142.0000000
 41
 2.0833001
 42
 2.0833001
 43
 2.0833001
 50
 0.0000000
  0
LINE
  8
24
 10
 5.0000000
 20
142.0000000
 11
80.0000000
 21
142.0000000
  0
LINE
  8
24
 10
80.0000000
 20
142.0000000
 11
80.0000000
 21
217.0000000
  0
LINE
  8
24
 10
80.0000000
 20
217.0000000
 11
 5.0000000
 21
217.0000000
  0
LINE
  8
24
 10
 5.0000000
 20
217.0000000
 11
 5.0000000
 21
142.0000000
  0
ENDSEC
  0
EOF
