  0
SECTION
  2
HEADER
  9
$ACADVER
  1
AC1009
  9
$EXTMIN
 10
-14508.000
 20
 -8988.000
  9
$EXTMAX
 10
 50778.000
 20
 31458.000
  9
$LIMMIN
 10
-14508.000
 20
 -8988.000
  9
$LIMMAX
 10
 50778.000
 20
 31458.000
  9
$HANDLING
 70
     0
  0
ENDSEC
999
==================== Start of Tables Section
  0
SECTION
  2
TABLES
  0
TABLE
  2
LTYPE
 70
     3
  0
LTYPE
  2
CONTIN
 70
    64
  3
SOLID LINE
 72
    65
 73
     0
 40
0.0
  0
LTYPE
  2
CENTER
 70
    64
  3
____ _ ____ _ ____ _ ____ _ ____ _ ____ _ ____
 72
    65
 73
     4
 40
2.0
 49
1.25
 49
-0.25
 49
0.25
 49
-0.25
  0
LTYPE
  2
DASHED
 70
    64
  3
__ __ __ __ __ __ __ __ __ __ __ __ __ __ __ 
 72
    65
 73
     2
 40
0.05
 49
0.03
 49
-0.02
  0
ENDTAB
  0
TABLE
  2
LAYER
 70
    27
  0
LAYER
  2
Default
 70
     0
 62
     7
  6
CONTIN
  0
LAYER
  2
Roof_surface
 70
     0
 62
     1
  6
CONTIN
  0
LAYER
  2
Wall_surfaces
 70
     0
 62
     2
  6
CONTIN
  0
LAYER
  2
Floor_surface
 70
     0
 62
     3
  6
CONTIN
  0
LAYER
  2
Roof_purlins
 70
     0
 62
     4
  6
CONTIN
  0
LAYER
  2
Wall_girts
 70
     0
 62
     5
  6
CONTIN
  0
LAYER
  2
Framed_openings
 70
     0
 62
     6
  6
CONTIN
  0
LAYER
  2
Frame_lines
 70
     0
 62
     7
  6
CONTIN
  0
LAYER
  2
Wind_bracing
 70
     0
 62
     8
  6
CONTIN
  0
LAYER
  2
Light_panels
 70
     0
 62
     9
  6
CONTIN
  0
LAYER
  2
Partition_walls
 70
     0
 62
     7
  6
CONTIN
  0
LAYER
  2
Facia
 70
     0
 62
     7
  6
CONTIN
  0
LAYER
  2
Partial_walls
 70
     0
 62
     7
  6
CONTIN
  0
LAYER
  2
Doors_windows_vents
 70
     0
 62
     7
  6
DASHED
  0
LAYER
  2
Soffit
 70
     0
 62
     7
  6
CONTIN
  0
LAYER
  2
Building_Struts
 70
     0
 62
     7
  6
CONTIN
  0
LAYER
  2
Trim_Eave
 70
     0
 62
     7
  6
CONTIN
  0
LAYER
  2
Trim_Base
 70
     0
 62
     7
  6
CONTIN
  0
LAYER
  2
Trim_Gable
 70
     0
 62
     7
  6
CONTIN
  0
LAYER
  2
Trim_Corner
 70
     0
 62
     7
  6
CONTIN
  0
LAYER
  2
Trim_Header
 70
     0
 62
     7
  6
CONTIN
  0
LAYER
  2
Trim_Jamb
 70
     0
 62
     7
  6
CONTIN
  0
LAYER
  2
Trim_Sill
 70
     0
 62
     7
  6
CONTIN
  0
LAYER
  2
Wall_Framing
 70
     0
 62
     1
  6
CONTIN
  0
LAYER
  2
Mezzanine_Surface
 70
     0
 62
     5
  6
CONTIN
  0
LAYER
  2
Mezzanine_Columns
 70
     0
 62
     1
  6
CONTIN
  0
LAYER
  2
Dimension_Line
 70
     0
 62
     7
  6
CONTIN
  0
LAYER
  2
Dimension_Text
 70
     0
 62
     7
  6
CONTIN
  0
ENDTAB
  0
TABLE
  2
STYLE
 70
  0
  0
STYLE
  2
SIMPLEX
 70
  0
 40
  0.000
 41
  1.000
 42
  1.000
 50
  0.000
 71
  0
  3
SIMPLEX
  0
STYLE
  2
ROMANS
 70
  0
 40
  0.000
 41
  1.000
 42
  1.000
 50
  0.000
 71
  0
  3
ROMANS
  0
STYLE
  2
OPEN
 70
  0
 40
  0.000
 41
  1.000
 42
  1.000
 50
  0.000
 71
  0
  3
SIMPLEX
  0
STYLE
  2
ARIAL
 70
  0
 40
  0.000
 41
  1.000
 42
  1.000
 50
  0.000
 71
  0
  3
ARIAL.TTF
  0
STYLE
  2
VERDANAB
 70
  0
 40
  0.000
 41
  1.000
 42
  1.000
 50
  0.000
 71
  0
  3
VERDANAB.TTF
  0
ENDTAB
  0
TABLE
  2
VPORT
 70
     2
  0
VPORT
  2
*ACTIVE
 70
     0
 10
0.00000000
 20
0.00000000
 11
1.00000000
 21
1.00000000
 12
4879.03613
 22
15443.2988
 13
0.0
 23
0.0
 14
1.0
 24
1.0
 15
0.0
 25
0.0
 16
-0.5000000
 26
-0.5000000
 36
0.50000000
 17
0.0
 27
0.0
 37
0.0
 40
41535.4531
 41
1.38740004
 42
50.0
 43
0.0
 44
0.0
 50
0.0
 51
0.0
 71
     0
 72
   100
 73
     1
 74
     1
 75
     0
 76
     0
 77
     0
 78
     0
  0
ENDTAB
  0
ENDSEC
999
==================== Start of Blocks Section
  0
SECTION
  2
BLOCKS
  0
BLOCK
  8
Default
  2
BUILD1
 70
     0
 10
   0.000
 20
   0.000
999
START:   AREA=Draw Building Surface
  0
3DFACE
  8
Wall_surfaces
 39
    0.000
 62
7
 10
   -0.000
 20
  442.323
 30
  321.654
 11
   -0.000
 21
  442.323
 31
  365.906
 12
    0.000
 22
  884.646
 32
  321.654
 13
    0.000
 23
  884.646
 33
  321.654
 70
 13
  0
3DFACE
  8
Wall_surfaces
 39
    0.000
 62
7
 10
   -0.000
 20
  442.323
 30
  321.654
 11
    0.000
 21
  884.646
 31
  321.654
 12
    0.000
 22
  884.646
 32
  321.654
 13
    0.000
 23
  884.646
 33
  321.654
 70
 13
  0
3DFACE
  8
Wall_surfaces
 39
    0.000
 62
7
 10
    0.000
 20
  884.646
 30
   98.425
 11
    0.000
 21
  884.646
 31
  321.654
 12
    0.000
 22
  884.646
 32
   98.425
 13
    0.000
 23
  884.646
 33
   98.425
 70
 14
  0
3DFACE
  8
Wall_surfaces
 39
    0.000
 62
7
 10
   -0.000
 20
  442.323
 30
   98.425
 11
   -0.000
 21
  442.323
 31
  321.654
 12
   -0.000
 22
  442.323
 32
   98.425
 13
   -0.000
 23
  442.323
 33
   98.425
 70
 15
  0
3DFACE
  8
Wall_surfaces
 39
    0.000
 62
7
 10
    0.000
 20
  884.646
 30
   98.425
 11
    0.000
 21
  884.646
 31
  321.654
 12
   -0.000
 22
  442.323
 32
  321.654
 13
   -0.000
 23
  442.323
 33
  321.654
 70
 14
  0
3DFACE
  8
Wall_surfaces
 39
    0.000
 62
7
 10
    0.000
 20
  884.646
 30
   98.425
 11
   -0.000
 21
  442.323
 31
  321.654
 12
   -0.000
 22
  442.323
 32
   98.425
 13
   -0.000
 23
  442.323
 33
   98.425
 70
 15
  0
3DFACE
  8
Wall_surfaces
 39
    0.000
 62
7
 10
    0.000
 20
  884.646
 30
   98.425
 11
   -0.000
 21
  442.323
 31
   98.425
 12
    0.000
 22
  884.646
 32
   98.425
 13
    0.000
 23
  884.646
 33
   98.425
 70
  5
  0
3DFACE
  8
Wall_surfaces
 39
    0.000
 62
7
 10
    0.000
 20
  884.646
 30
    0.000
 11
    0.000
 21
  884.646
 31
   98.425
 12
    0.000
 22
  884.646
 32
    0.000
 13
    0.000
 23
  884.646
 33
    0.000
 70
 15
  0
3DFACE
  8
Wall_surfaces
 39
    0.000
 62
7
 10
   -0.000
 20
  442.323
 30
    0.000
 11
   -0.000
 21
  442.323
 31
   98.425
 12
   -0.000
 22
  442.323
 32
    0.000
 13
   -0.000
 23
  442.323
 33
    0.000
 70
 15
  0
3DFACE
  8
Wall_surfaces
 39
    0.000
 62
7
 10
    0.000
 20
  884.646
 30
   98.425
 11
   -0.000
 21
  442.323
 31
   98.425
 12
    0.000
 22
  884.646
 32
   98.425
 13
    0.000
 23
  884.646
 33
   98.425
 70
 13
  0
3DFACE
  8
Wall_surfaces
 39
    0.000
 62
7
 10
    0.000
 20
  884.646
 30
    0.000
 11
   -0.000
 21
  442.323
 31
    0.000
 12
    0.000
 22
  884.646
 32
    0.000
 13
    0.000
 23
  884.646
 33
    0.000
 70
 15
  0
3DFACE
  8
Wall_surfaces
 39
    0.000
 62
7
 10
   -0.000
 20
  442.323
 30
   98.425
 11
   -0.000
 21
  442.323
 31
  365.906
 12
   -0.000
 22
  442.323
 32
   98.425
 13
   -0.000
 23
  442.323
 33
   98.425
 70
  7
  0
3DFACE
  8
Wall_surfaces
 39
    0.000
 62
7
 10
   -0.000
 20
  442.323
 30
   98.425
 11
   -0.000
 21
  442.323
 31
  365.906
 12
   -0.000
 22
  442.323
 32
   98.425
 13
   -0.000
 23
  442.323
 33
   98.425
 70
  7
  0
3DFACE
  8
Wall_surfaces
 39
    0.000
 62
7
 10
   -0.000
 20
  442.323
 30
   98.425
 11
   -0.000
 21
  442.323
 31
  365.906
 12
   -0.000
 22
  442.323
 32
   98.425
 13
   -0.000
 23
  442.323
 33
   98.425
 70
  7
  0
3DFACE
  8
Wall_surfaces
 39
    0.000
 62
7
 10
   -0.000
 20
  442.323
 30
    0.000
 11
   -0.000
 21
  442.323
 31
   98.425
 12
   -0.000
 22
  442.323
 32
    0.000
 13
   -0.000
 23
  442.323
 33
    0.000
 70
 15
  0
3DFACE
  8
Wall_surfaces
 39
    0.000
 62
7
 10
   -0.000
 20
  442.323
 30
    0.000
 11
   -0.000
 21
  442.323
 31
   98.425
 12
   -0.000
 22
  442.323
 32
    0.000
 13
   -0.000
 23
  442.323
 33
    0.000
 70
 15
  0
3DFACE
  8
Wall_surfaces
 39
    0.000
 62
7
 10
   -0.000
 20
    0.000
 30
  321.654
 11
   -0.000
 21
    0.000
 31
  321.654
 12
   -0.000
 22
  442.323
 32
  365.906
 13
   -0.000
 23
  442.323
 33
  365.906
 70
 12
  0
3DFACE
  8
Wall_surfaces
 39
    0.000
 62
7
 10
   -0.000
 20
    0.000
 30
  321.654
 11
   -0.000
 21
  442.323
 31
  365.906
 12
   -0.000
 22
  442.323
 32
  321.654
 13
   -0.000
 23
  442.323
 33
  321.654
 70
 15
  0
3DFACE
  8
Wall_surfaces
 39
    0.000
 62
7
 10
   -0.000
 20
  442.323
 30
   98.425
 11
   -0.000
 21
  442.323
 31
  321.654
 12
   -0.000
 22
  442.323
 32
   98.425
 13
   -0.000
 23
  442.323
 33
   98.425
 70
 15
  0
3DFACE
  8
Wall_surfaces
 39
    0.000
 62
7
 10
   -0.000
 20
    0.000
 30
   98.425
 11
   -0.000
 21
    0.000
 31
  321.654
 12
   -0.000
 22
    0.000
 32
   98.425
 13
   -0.000
 23
    0.000
 33
   98.425
 70
 13
  0
3DFACE
  8
Wall_surfaces
 39
    0.000
 62
7
 10
   -0.000
 20
  442.323
 30
   98.425
 11
   -0.000
 21
  442.323
 31
  321.654
 12
   -0.000
 22
    0.000
 32
  321.654
 13
   -0.000
 23
    0.000
 33
  321.654
 70
 15
  0
3DFACE
  8
Wall_surfaces
 39
    0.000
 62
7
 10
   -0.000
 20
  442.323
 30
   98.425
 11
   -0.000
 21
    0.000
 31
  321.654
 12
   -0.000
 22
    0.000
 32
   98.425
 13
   -0.000
 23
    0.000
 33
   98.425
 70
 13
  0
3DFACE
  8
Wall_surfaces
 39
    0.000
 62
7
 10
   -0.000
 20
  442.323
 30
   98.425
 11
   -0.000
 21
    0.000
 31
   98.425
 12
   -0.000
 22
  442.323
 32
   98.425
 13
   -0.000
 23
  442.323
 33
   98.425
 70
  5
  0
3DFACE
  8
Wall_surfaces
 39
    0.000
 62
7
 10
   -0.000
 20
  442.323
 30
    0.000
 11
   -0.000
 21
  442.323
 31
   98.425
 12
   -0.000
 22
  442.323
 32
    0.000
 13
   -0.000
 23
  442.323
 33
    0.000
 70
 15
  0
3DFACE
  8
Wall_surfaces
 39
    0.000
 62
7
 10
   -0.000
 20
    0.000
 30
    0.000
 11
   -0.000
 21
    0.000
 31
   98.425
 12
   -0.000
 22
    0.000
 32
    0.000
 13
   -0.000
 23
    0.000
 33
    0.000
 70
 15
  0
3DFACE
  8
Wall_surfaces
 39
    0.000
 62
7
 10
   -0.000
 20
  442.323
 30
   98.425
 11
   -0.000
 21
    0.000
 31
   98.425
 12
   -0.000
 22
  442.323
 32
   98.425
 13
   -0.000
 23
  442.323
 33
   98.425
 70
 13
  0
3DFACE
  8
Wall_surfaces
 39
    0.000
 62
7
 10
   -0.000
 20
  442.323
 30
    0.000
 11
   -0.000
 21
    0.000
 31
    0.000
 12
   -0.000
 22
  442.323
 32
    0.000
 13
   -0.000
 23
  442.323
 33
    0.000
 70
 15
  0
3DFACE
  8
Wall_surfaces
 39
    0.000
 62
7
 10
   -0.000
 20
   -0.000
 30
   98.425
 11
   -0.000
 21
   -0.000
 31
  321.654
 12
   -0.000
 22
   -0.000
 32
   98.425
 13
   -0.000
 23
   -0.000
 33
   98.425
 70
 14
  0
3DFACE
  8
Wall_surfaces
 39
    0.000
 62
7
 10
  244.094
 20
   -0.000
 30
   98.425
 11
  244.094
 21
   -0.000
 31
  321.654
 12
  244.094
 22
   -0.000
 32
   98.425
 13
  244.094
 23
   -0.000
 33
   98.425
 70
  7
  0
3DFACE
  8
Wall_surfaces
 39
    0.000
 62
7
 10
   -0.000
 20
   -0.000
 30
   98.425
 11
   -0.000
 21
   -0.000
 31
  321.654
 12
  244.094
 22
   -0.000
 32
  321.654
 13
  244.094
 23
   -0.000
 33
  321.654
 70
 12
  0
3DFACE
  8
Wall_surfaces
 39
    0.000
 62
7
 10
   -0.000
 20
   -0.000
 30
   98.425
 11
  244.094
 21
   -0.000
 31
  321.654
 12
  244.094
 22
   -0.000
 32
   98.425
 13
  244.094
 23
   -0.000
 33
   98.425
 70
 15
  0
3DFACE
  8
Wall_surfaces
 39
    0.000
 62
7
 10
   -0.000
 20
   -0.000
 30
   98.425
 11
  244.094
 21
   -0.000
 31
   98.425
 12
   -0.000
 22
   -0.000
 32
   98.425
 13
   -0.000
 23
   -0.000
 33
   98.425
 70
  5
  0
3DFACE
  8
Wall_surfaces
 39
    0.000
 62
7
 10
    0.000
 20
    0.000
 30
    0.000
 11
   -0.000
 21
   -0.000
 31
   98.425
 12
    0.000
 22
    0.000
 32
    0.000
 13
    0.000
 23
    0.000
 33
    0.000
 70
 15
  0
3DFACE
  8
Wall_surfaces
 39
    0.000
 62
7
 10
  244.094
 20
   -0.000
 30
    0.000
 11
  244.094
 21
   -0.000
 31
   98.425
 12
  244.094
 22
   -0.000
 32
    0.000
 13
  244.094
 23
   -0.000
 33
    0.000
 70
 15
  0
3DFACE
  8
Wall_surfaces
 39
    0.000
 62
7
 10
   -0.000
 20
   -0.000
 30
   98.425
 11
  244.094
 21
   -0.000
 31
   98.425
 12
   -0.000
 22
   -0.000
 32
   98.425
 13
   -0.000
 23
   -0.000
 33
   98.425
 70
 13
  0
3DFACE
  8
Wall_surfaces
 39
    0.000
 62
7
 10
    0.000
 20
    0.000
 30
    0.000
 11
  244.094
 21
   -0.000
 31
    0.000
 12
    0.000
 22
    0.000
 32
    0.000
 13
    0.000
 23
    0.000
 33
    0.000
 70
 15
  0
3DFACE
  8
Wall_surfaces
 39
    0.000
 62
7
 10
  244.094
 20
   -0.000
 30
   98.425
 11
  244.094
 21
   -0.000
 31
  321.654
 12
  244.094
 22
   -0.000
 32
   98.425
 13
  244.094
 23
   -0.000
 33
   98.425
 70
  7
  0
3DFACE
  8
Wall_surfaces
 39
    0.000
 62
7
 10
  479.921
 20
   -0.000
 30
   98.425
 11
  479.921
 21
   -0.000
 31
  321.654
 12
  479.921
 22
   -0.000
 32
   98.425
 13
  479.921
 23
   -0.000
 33
   98.425
 70
  7
  0
3DFACE
  8
Wall_surfaces
 39
    0.000
 62
7
 10
  244.094
 20
   -0.000
 30
   98.425
 11
  244.094
 21
   -0.000
 31
  321.654
 12
  479.921
 22
   -0.000
 32
  321.654
 13
  479.921
 23
   -0.000
 33
  321.654
 70
 13
  0
3DFACE
  8
Wall_surfaces
 39
    0.000
 62
7
 10
  244.094
 20
   -0.000
 30
   98.425
 11
  479.921
 21
   -0.000
 31
  321.654
 12
  479.921
 22
   -0.000
 32
   98.425
 13
  479.921
 23
   -0.000
 33
   98.425
 70
 15
  0
3DFACE
  8
Wall_surfaces
 39
    0.000
 62
7
 10
  244.094
 20
   -0.000
 30
   98.425
 11
  479.921
 21
   -0.000
 31
   98.425
 12
  244.094
 22
   -0.000
 32
   98.425
 13
  244.094
 23
   -0.000
 33
   98.425
 70
  5
  0
3DFACE
  8
Wall_surfaces
 39
    0.000
 62
7
 10
  244.094
 20
   -0.000
 30
    0.000
 11
  244.094
 21
   -0.000
 31
   98.425
 12
  244.094
 22
   -0.000
 32
    0.000
 13
  244.094
 23
   -0.000
 33
    0.000
 70
 15
  0
3DFACE
  8
Wall_surfaces
 39
    0.000
 62
7
 10
  479.921
 20
   -0.000
 30
    0.000
 11
  479.921
 21
   -0.000
 31
   98.425
 12
  479.921
 22
   -0.000
 32
    0.000
 13
  479.921
 23
   -0.000
 33
    0.000
 70
 15
  0
3DFACE
  8
Wall_surfaces
 39
    0.000
 62
7
 10
  244.094
 20
   -0.000
 30
   98.425
 11
  479.921
 21
   -0.000
 31
   98.425
 12
  244.094
 22
   -0.000
 32
   98.425
 13
  244.094
 23
   -0.000
 33
   98.425
 70
 13
  0
3DFACE
  8
Wall_surfaces
 39
    0.000
 62
7
 10
  244.094
 20
   -0.000
 30
    0.000
 11
  479.921
 21
   -0.000
 31
    0.000
 12
  244.094
 22
   -0.000
 32
    0.000
 13
  244.094
 23
   -0.000
 33
    0.000
 70
 15
  0
3DFACE
  8
Wall_surfaces
 39
    0.000
 62
7
 10
  479.921
 20
   -0.000
 30
   98.425
 11
  479.921
 21
   -0.000
 31
  321.654
 12
  479.921
 22
   -0.000
 32
   98.425
 13
  479.921
 23
   -0.000
 33
   98.425
 70
  7
  0
3DFACE
  8
Wall_surfaces
 39
    0.000
 62
7
 10
  705.512
 20
   -0.000
 30
   98.425
 11
  705.512
 21
   -0.000
 31
  321.654
 12
  705.512
 22
   -0.000
 32
   98.425
 13
  705.512
 23
   -0.000
 33
   98.425
 70
  7
  0
3DFACE
  8
Wall_surfaces
 39
    0.000
 62
7
 10
  479.921
 20
   -0.000
 30
   98.425
 11
  479.921
 21
   -0.000
 31
  321.654
 12
  705.512
 22
   -0.000
 32
  321.654
 13
  705.512
 23
   -0.000
 33
  321.654
 70
 13
  0
3DFACE
  8
Wall_surfaces
 39
    0.000
 62
7
 10
  479.921
 20
   -0.000
 30
   98.425
 11
  705.512
 21
   -0.000
 31
  321.654
 12
  705.512
 22
   -0.000
 32
   98.425
 13
  705.512
 23
   -0.000
 33
   98.425
 70
 15
  0
3DFACE
  8
Wall_surfaces
 39
    0.000
 62
7
 10
  479.921
 20
   -0.000
 30
   98.425
 11
  705.512
 21
   -0.000
 31
   98.425
 12
  479.921
 22
   -0.000
 32
   98.425
 13
  479.921
 23
   -0.000
 33
   98.425
 70
  5
  0
3DFACE
  8
Wall_surfaces
 39
    0.000
 62
7
 10
  479.921
 20
   -0.000
 30
    0.000
 11
  479.921
 21
   -0.000
 31
   98.425
 12
  479.921
 22
   -0.000
 32
    0.000
 13
  479.921
 23
   -0.000
 33
    0.000
 70
 15
  0
3DFACE
  8
Wall_surfaces
 39
    0.000
 62
7
 10
  705.512
 20
   -0.000
 30
    0.000
 11
  705.512
 21
   -0.000
 31
   98.425
 12
  705.512
 22
   -0.000
 32
    0.000
 13
  705.512
 23
   -0.000
 33
    0.000
 70
 15
  0
3DFACE
  8
Wall_surfaces
 39
    0.000
 62
7
 10
  479.921
 20
   -0.000
 30
   98.425
 11
  705.512
 21
   -0.000
 31
   98.425
 12
  479.921
 22
   -0.000
 32
   98.425
 13
  479.921
 23
   -0.000
 33
   98.425
 70
 13
  0
3DFACE
  8
Wall_surfaces
 39
    0.000
 62
7
 10
  479.921
 20
   -0.000
 30
    0.000
 11
  705.512
 21
   -0.000
 31
    0.000
 12
  479.921
 22
   -0.000
 32
    0.000
 13
  479.921
 23
   -0.000
 33
    0.000
 70
 15
  0
3DFACE
  8
Wall_surfaces
 39
    0.000
 62
7
 10
  705.512
 20
   -0.000
 30
   98.425
 11
  705.512
 21
   -0.000
 31
  321.654
 12
  705.512
 22
   -0.000
 32
   98.425
 13
  705.512
 23
   -0.000
 33
   98.425
 70
  7
  0
3DFACE
  8
Wall_surfaces
 39
    0.000
 62
7
 10
  950.787
 20
   -0.000
 30
   98.425
 11
  950.787
 21
   -0.000
 31
  321.654
 12
  950.787
 22
   -0.000
 32
   98.425
 13
  950.787
 23
   -0.000
 33
   98.425
 70
  7
  0
3DFACE
  8
Wall_surfaces
 39
    0.000
 62
7
 10
  705.512
 20
   -0.000
 30
   98.425
 11
  705.512
 21
   -0.000
 31
  321.654
 12
  950.787
 22
   -0.000
 32
  321.654
 13
  950.787
 23
   -0.000
 33
  321.654
 70
 13
  0
3DFACE
  8
Wall_surfaces
 39
    0.000
 62
7
 10
  705.512
 20
   -0.000
 30
   98.425
 11
  950.787
 21
   -0.000
 31
  321.654
 12
  950.787
 22
   -0.000
 32
   98.425
 13
  950.787
 23
   -0.000
 33
   98.425
 70
 15
  0
3DFACE
  8
Wall_surfaces
 39
    0.000
 62
7
 10
  705.512
 20
   -0.000
 30
   98.425
 11
  950.787
 21
   -0.000
 31
   98.425
 12
  705.512
 22
   -0.000
 32
   98.425
 13
  705.512
 23
   -0.000
 33
   98.425
 70
  5
  0
3DFACE
  8
Wall_surfaces
 39
    0.000
 62
7
 10
  705.512
 20
   -0.000
 30
    0.000
 11
  705.512
 21
   -0.000
 31
   98.425
 12
  705.512
 22
   -0.000
 32
    0.000
 13
  705.512
 23
   -0.000
 33
    0.000
 70
 15
  0
3DFACE
  8
Wall_surfaces
 39
    0.000
 62
7
 10
  950.787
 20
   -0.000
 30
    0.000
 11
  950.787
 21
   -0.000
 31
   98.425
 12
  950.787
 22
   -0.000
 32
    0.000
 13
  950.787
 23
   -0.000
 33
    0.000
 70
 15
  0
3DFACE
  8
Wall_surfaces
 39
    0.000
 62
7
 10
  705.512
 20
   -0.000
 30
   98.425
 11
  950.787
 21
   -0.000
 31
   98.425
 12
  705.512
 22
   -0.000
 32
   98.425
 13
  705.512
 23
   -0.000
 33
   98.425
 70
 13
  0
3DFACE
  8
Wall_surfaces
 39
    0.000
 62
7
 10
  705.512
 20
   -0.000
 30
    0.000
 11
  950.787
 21
   -0.000
 31
    0.000
 12
  705.512
 22
   -0.000
 32
    0.000
 13
  705.512
 23
   -0.000
 33
    0.000
 70
 15
  0
3DFACE
  8
Wall_surfaces
 39
    0.000
 62
7
 10
  950.787
 20
   -0.000
 30
   98.425
 11
  950.787
 21
   -0.000
 31
  321.654
 12
  950.787
 22
   -0.000
 32
   98.425
 13
  950.787
 23
   -0.000
 33
   98.425
 70
  7
  0
3DFACE
  8
Wall_surfaces
 39
    0.000
 62
7
 10
 1181.890
 20
   -0.000
 30
   98.425
 11
 1181.890
 21
   -0.000
 31
  321.654
 12
 1181.890
 22
   -0.000
 32
   98.425
 13
 1181.890
 23
   -0.000
 33
   98.425
 70
  7
  0
3DFACE
  8
Wall_surfaces
 39
    0.000
 62
7
 10
  950.787
 20
   -0.000
 30
   98.425
 11
  950.787
 21
   -0.000
 31
  321.654
 12
 1181.890
 22
   -0.000
 32
  321.654
 13
 1181.890
 23
   -0.000
 33
  321.654
 70
 13
  0
3DFACE
  8
Wall_surfaces
 39
    0.000
 62
7
 10
  950.787
 20
   -0.000
 30
   98.425
 11
 1181.890
 21
   -0.000
 31
  321.654
 12
 1181.890
 22
   -0.000
 32
   98.425
 13
 1181.890
 23
   -0.000
 33
   98.425
 70
 15
  0
3DFACE
  8
Wall_surfaces
 39
    0.000
 62
7
 10
  950.787
 20
   -0.000
 30
   98.425
 11
 1181.890
 21
   -0.000
 31
   98.425
 12
  950.787
 22
   -0.000
 32
   98.425
 13
  950.787
 23
   -0.000
 33
   98.425
 70
  5
  0
3DFACE
  8
Wall_surfaces
 39
    0.000
 62
7
 10
  950.787
 20
   -0.000
 30
    0.000
 11
  950.787
 21
   -0.000
 31
   98.425
 12
  950.787
 22
   -0.000
 32
    0.000
 13
  950.787
 23
   -0.000
 33
    0.000
 70
 15
  0
3DFACE
  8
Wall_surfaces
 39
    0.000
 62
7
 10
 1181.890
 20
   -0.000
 30
    0.000
 11
 1181.890
 21
   -0.000
 31
   98.425
 12
 1181.890
 22
   -0.000
 32
    0.000
 13
 1181.890
 23
   -0.000
 33
    0.000
 70
 15
  0
3DFACE
  8
Wall_surfaces
 39
    0.000
 62
7
 10
  950.787
 20
   -0.000
 30
   98.425
 11
 1181.890
 21
   -0.000
 31
   98.425
 12
  950.787
 22
   -0.000
 32
   98.425
 13
  950.787
 23
   -0.000
 33
   98.425
 70
 13
  0
3DFACE
  8
Wall_surfaces
 39
    0.000
 62
7
 10
  950.787
 20
   -0.000
 30
    0.000
 11
 1181.890
 21
   -0.000
 31
    0.000
 12
  950.787
 22
   -0.000
 32
    0.000
 13
  950.787
 23
   -0.000
 33
    0.000
 70
 15
  0
3DFACE
  8
Wall_surfaces
 39
    0.000
 62
7
 10
 1181.890
 20
   -0.000
 30
   98.425
 11
 1181.890
 21
   -0.000
 31
  321.654
 12
 1181.890
 22
   -0.000
 32
   98.425
 13
 1181.890
 23
   -0.000
 33
   98.425
 70
  7
  0
3DFACE
  8
Wall_surfaces
 39
    0.000
 62
7
 10
 1427.953
 20
   -0.000
 30
   98.425
 11
 1427.953
 21
   -0.000
 31
  321.654
 12
 1427.953
 22
   -0.000
 32
   98.425
 13
 1427.953
 23
   -0.000
 33
   98.425
 70
  5
  0
3DFACE
  8
Wall_surfaces
 39
    0.000
 62
7
 10
 1181.890
 20
   -0.000
 30
   98.425
 11
 1181.890
 21
   -0.000
 31
  321.654
 12
 1427.953
 22
   -0.000
 32
  321.654
 13
 1427.953
 23
   -0.000
 33
  321.654
 70
 13
  0
3DFACE
  8
Wall_surfaces
 39
    0.000
 62
7
 10
 1181.890
 20
   -0.000
 30
   98.425
 11
 1427.953
 21
   -0.000
 31
  321.654
 12
 1427.953
 22
   -0.000
 32
   98.425
 13
 1427.953
 23
   -0.000
 33
   98.425
 70
 13
  0
3DFACE
  8
Wall_surfaces
 39
    0.000
 62
7
 10
 1181.890
 20
   -0.000
 30
   98.425
 11
 1427.953
 21
   -0.000
 31
   98.425
 12
 1181.890
 22
   -0.000
 32
   98.425
 13
 1181.890
 23
   -0.000
 33
   98.425
 70
  5
  0
3DFACE
  8
Wall_surfaces
 39
    0.000
 62
7
 10
 1181.890
 20
   -0.000
 30
    0.000
 11
 1181.890
 21
   -0.000
 31
   98.425
 12
 1181.890
 22
   -0.000
 32
    0.000
 13
 1181.890
 23
   -0.000
 33
    0.000
 70
 15
  0
3DFACE
  8
Wall_surfaces
 39
    0.000
 62
7
 10
 1427.953
 20
   -0.000
 30
    0.000
 11
 1427.953
 21
   -0.000
 31
   98.425
 12
 1427.953
 22
   -0.000
 32
    0.000
 13
 1427.953
 23
   -0.000
 33
    0.000
 70
 15
  0
3DFACE
  8
Wall_surfaces
 39
    0.000
 62
7
 10
 1181.890
 20
   -0.000
 30
   98.425
 11
 1427.953
 21
   -0.000
 31
   98.425
 12
 1181.890
 22
   -0.000
 32
   98.425
 13
 1181.890
 23
   -0.000
 33
   98.425
 70
 13
  0
3DFACE
  8
Wall_surfaces
 39
    0.000
 62
7
 10
 1181.890
 20
   -0.000
 30
    0.000
 11
 1427.953
 21
   -0.000
 31
    0.000
 12
 1181.890
 22
   -0.000
 32
    0.000
 13
 1181.890
 23
   -0.000
 33
    0.000
 70
 15
  0
3DFACE
  8
Wall_surfaces
 39
    0.000
 62
7
 10
 1427.953
 20
  442.323
 30
  321.654
 11
 1427.953
 21
  442.323
 31
  365.906
 12
 1427.953
 22
    0.000
 32
  321.654
 13
 1427.953
 23
    0.000
 33
  321.654
 70
 13
  0
3DFACE
  8
Wall_surfaces
 39
    0.000
 62
7
 10
 1427.953
 20
  442.323
 30
  321.654
 11
 1427.953
 21
    0.000
 31
  321.654
 12
 1427.953
 22
    0.000
 32
  321.654
 13
 1427.953
 23
    0.000
 33
  321.654
 70
 13
  0
3DFACE
  8
Wall_surfaces
 39
    0.000
 62
7
 10
 1427.953
 20
    0.000
 30
   98.425
 11
 1427.953
 21
    0.000
 31
  321.654
 12
 1427.953
 22
    0.000
 32
   98.425
 13
 1427.953
 23
    0.000
 33
   98.425
 70
 14
  0
3DFACE
  8
Wall_surfaces
 39
    0.000
 62
7
 10
 1427.953
 20
    0.000
 30
   98.425
 11
 1427.953
 21
    0.000
 31
  321.654
 12
 1427.953
 22
  134.567
 32
  321.654
 13
 1427.953
 23
  134.567
 33
  321.654
 70
 14
  0
3DFACE
  8
Wall_surfaces
 39
    0.000
 62
7
 10
 1427.953
 20
    0.000
 30
   98.425
 11
 1427.953
 21
  134.567
 31
  321.654
 12
 1427.953
 22
  134.567
 32
  177.165
 13
 1427.953
 23
  134.567
 33
  177.165
 70
 15
  0
3DFACE
  8
Wall_surfaces
 39
    0.000
 62
7
 10
 1427.953
 20
    0.000
 30
   98.425
 11
 1427.953
 21
  134.567
 31
  177.165
 12
 1427.953
 22
  134.567
 32
   98.425
 13
 1427.953
 23
  134.567
 33
   98.425
 70
 13
  0
3DFACE
  8
Wall_surfaces
 39
    0.000
 62
7
 10
 1427.953
 20
    0.000
 30
   98.425
 11
 1427.953
 21
  134.567
 31
   98.425
 12
 1427.953
 22
    0.000
 32
   98.425
 13
 1427.953
 23
    0.000
 33
   98.425
 70
 13
  0
3DFACE
  8
Wall_surfaces
 39
    0.000
 62
7
 10
 1427.953
 20
  442.323
 30
   98.425
 11
 1427.953
 21
  442.323
 31
  321.654
 12
 1427.953
 22
  442.323
 32
   98.425
 13
 1427.953
 23
  442.323
 33
   98.425
 70
 15
  0
3DFACE
  8
Wall_surfaces
 39
    0.000
 62
7
 10
 1427.953
 20
  311.732
 30
   98.425
 11
 1427.953
 21
  311.732
 31
  177.165
 12
 1427.953
 22
  311.732
 32
  321.654
 13
 1427.953
 23
  311.732
 33
  321.654
 70
 14
  0
3DFACE
  8
Wall_surfaces
 39
    0.000
 62
7
 10
 1427.953
 20
  311.732
 30
   98.425
 11
 1427.953
 21
  311.732
 31
  321.654
 12
 1427.953
 22
  442.323
 32
  321.654
 13
 1427.953
 23
  442.323
 33
  321.654
 70
 15
  0
3DFACE
  8
Wall_surfaces
 39
    0.000
 62
7
 10
 1427.953
 20
  311.732
 30
   98.425
 11
 1427.953
 21
  442.323
 31
  321.654
 12
 1427.953
 22
  442.323
 32
   98.425
 13
 1427.953
 23
  442.323
 33
   98.425
 70
 15
  0
3DFACE
  8
Wall_surfaces
 39
    0.000
 62
7
 10
 1427.953
 20
  311.732
 30
   98.425
 11
 1427.953
 21
  442.323
 31
   98.425
 12
 1427.953
 22
  311.732
 32
   98.425
 13
 1427.953
 23
  311.732
 33
   98.425
 70
  5
  0
3DFACE
  8
Wall_surfaces
 39
    0.000
 62
7
 10
 1427.953
 20
  134.567
 30
  177.165
 11
 1427.953
 21
  134.567
 31
  321.654
 12
 1427.953
 22
  311.732
 32
  321.654
 13
 1427.953
 23
  311.732
 33
  321.654
 70
 15
  0
3DFACE
  8
Wall_surfaces
 39
    0.000
 62
7
 10
 1427.953
 20
  134.567
 30
  177.165
 11
 1427.953
 21
  311.732
 31
  321.654
 12
 1427.953
 22
  311.732
 32
  177.165
 13
 1427.953
 23
  311.732
 33
  177.165
 70
 15
  0
3DFACE
  8
Wall_surfaces
 39
    0.000
 62
7
 10
 1427.953
 20
  134.567
 30
  177.165
 11
 1427.953
 21
  311.732
 31
  177.165
 12
 1427.953
 22
  134.567
 32
  177.165
 13
 1427.953
 23
  134.567
 33
  177.165
 70
  5
  0
3DFACE
  8
Wall_surfaces
 39
    0.000
 62
7
 10
 1427.953
 20
    0.000
 30
    0.000
 11
 1427.953
 21
    0.000
 31
   98.425
 12
 1427.953
 22
    0.000
 32
    0.000
 13
 1427.953
 23
    0.000
 33
    0.000
 70
 15
  0
3DFACE
  8
Wall_surfaces
 39
    0.000
 62
7
 10
 1427.953
 20
  442.323
 30
    0.000
 11
 1427.953
 21
  442.323
 31
   98.425
 12
 1427.953
 22
  442.323
 32
    0.000
 13
 1427.953
 23
  442.323
 33
    0.000
 70
 15
  0
3DFACE
  8
Wall_surfaces
 39
    0.000
 62
7
 10
 1427.953
 20
  442.323
 30
   98.425
 11
 1427.953
 21
  442.323
 31
  365.906
 12
 1427.953
 22
  442.323
 32
   98.425
 13
 1427.953
 23
  442.323
 33
   98.425
 70
  7
  0
3DFACE
  8
Wall_surfaces
 39
    0.000
 62
7
 10
 1427.953
 20
  442.323
 30
   98.425
 11
 1427.953
 21
  442.323
 31
  365.906
 12
 1427.953
 22
  442.323
 32
   98.425
 13
 1427.953
 23
  442.323
 33
   98.425
 70
  7
  0
3DFACE
  8
Wall_surfaces
 39
    0.000
 62
7
 10
 1427.953
 20
  442.323
 30
   98.425
 11
 1427.953
 21
  442.323
 31
  365.906
 12
 1427.953
 22
  442.323
 32
   98.425
 13
 1427.953
 23
  442.323
 33
   98.425
 70
  7
  0
3DFACE
  8
Wall_surfaces
 39
    0.000
 62
7
 10
 1427.953
 20
  442.323
 30
    0.000
 11
 1427.953
 21
  442.323
 31
   98.425
 12
 1427.953
 22
  442.323
 32
    0.000
 13
 1427.953
 23
  442.323
 33
    0.000
 70
 15
  0
3DFACE
  8
Wall_surfaces
 39
    0.000
 62
7
 10
 1427.953
 20
  442.323
 30
    0.000
 11
 1427.953
 21
  442.323
 31
   98.425
 12
 1427.953
 22
  442.323
 32
    0.000
 13
 1427.953
 23
  442.323
 33
    0.000
 70
 15
  0
3DFACE
  8
Wall_surfaces
 39
    0.000
 62
7
 10
 1427.953
 20
  884.646
 30
  321.654
 11
 1427.953
 21
  884.646
 31
  321.654
 12
 1427.953
 22
  442.323
 32
  365.906
 13
 1427.953
 23
  442.323
 33
  365.906
 70
 12
  0
3DFACE
  8
Wall_surfaces
 39
    0.000
 62
7
 10
 1427.953
 20
  884.646
 30
  321.654
 11
 1427.953
 21
  442.323
 31
  365.906
 12
 1427.953
 22
  442.323
 32
  321.654
 13
 1427.953
 23
  442.323
 33
  321.654
 70
 15
  0
3DFACE
  8
Wall_surfaces
 39
    0.000
 62
7
 10
 1427.953
 20
  442.323
 30
   98.425
 11
 1427.953
 21
  442.323
 31
  321.654
 12
 1427.953
 22
  442.323
 32
   98.425
 13
 1427.953
 23
  442.323
 33
   98.425
 70
 15
  0
3DFACE
  8
Wall_surfaces
 39
    0.000
 62
7
 10
 1427.953
 20
  884.646
 30
   98.425
 11
 1427.953
 21
  884.646
 31
  321.654
 12
 1427.953
 22
  884.646
 32
   98.425
 13
 1427.953
 23
  884.646
 33
   98.425
 70
 13
  0
3DFACE
  8
Wall_surfaces
 39
    0.000
 62
7
 10
 1427.953
 20
  442.323
 30
   98.425
 11
 1427.953
 21
  442.323
 31
  321.654
 12
 1427.953
 22
  884.646
 32
  321.654
 13
 1427.953
 23
  884.646
 33
  321.654
 70
 15
  0
3DFACE
  8
Wall_surfaces
 39
    0.000
 62
7
 10
 1427.953
 20
  442.323
 30
   98.425
 11
 1427.953
 21
  884.646
 31
  321.654
 12
 1427.953
 22
  884.646
 32
   98.425
 13
 1427.953
 23
  884.646
 33
   98.425
 70
 13
  0
3DFACE
  8
Wall_surfaces
 39
    0.000
 62
7
 10
 1427.953
 20
  442.323
 30
   98.425
 11
 1427.953
 21
  884.646
 31
   98.425
 12
 1427.953
 22
  442.323
 32
   98.425
 13
 1427.953
 23
  442.323
 33
   98.425
 70
  5
  0
3DFACE
  8
Wall_surfaces
 39
    0.000
 62
7
 10
 1427.953
 20
  442.323
 30
    0.000
 11
 1427.953
 21
  442.323
 31
   98.425
 12
 1427.953
 22
  442.323
 32
    0.000
 13
 1427.953
 23
  442.323
 33
    0.000
 70
 15
  0
3DFACE
  8
Wall_surfaces
 39
    0.000
 62
7
 10
 1427.953
 20
  884.646
 30
    0.000
 11
 1427.953
 21
  884.646
 31
   98.425
 12
 1427.953
 22
  884.646
 32
    0.000
 13
 1427.953
 23
  884.646
 33
    0.000
 70
 15
  0
3DFACE
  8
Wall_surfaces
 39
    0.000
 62
7
 10
 1427.953
 20
  442.323
 30
   98.425
 11
 1427.953
 21
  884.646
 31
   98.425
 12
 1427.953
 22
  442.323
 32
   98.425
 13
 1427.953
 23
  442.323
 33
   98.425
 70
 13
  0
3DFACE
  8
Wall_surfaces
 39
    0.000
 62
7
 10
 1427.953
 20
  442.323
 30
    0.000
 11
 1427.953
 21
  884.646
 31
    0.000
 12
 1427.953
 22
  442.323
 32
    0.000
 13
 1427.953
 23
  442.323
 33
    0.000
 70
 15
  0
3DFACE
  8
Wall_surfaces
 39
    0.000
 62
7
 10
 1427.953
 20
  884.646
 30
   98.425
 11
 1427.953
 21
  884.646
 31
  321.654
 12
 1427.953
 22
  884.646
 32
   98.425
 13
 1427.953
 23
  884.646
 33
   98.425
 70
 14
  0
3DFACE
  8
Wall_surfaces
 39
    0.000
 62
7
 10
 1181.890
 20
  884.646
 30
   98.425
 11
 1181.890
 21
  884.646
 31
  321.654
 12
 1181.890
 22
  884.646
 32
   98.425
 13
 1181.890
 23
  884.646
 33
   98.425
 70
  7
  0
3DFACE
  8
Wall_surfaces
 39
    0.000
 62
7
 10
 1427.953
 20
  884.646
 30
   98.425
 11
 1427.953
 21
  884.646
 31
  321.654
 12
 1181.890
 22
  884.646
 32
  321.654
 13
 1181.890
 23
  884.646
 33
  321.654
 70
 12
  0
3DFACE
  8
Wall_surfaces
 39
    0.000
 62
7
 10
 1427.953
 20
  884.646
 30
   98.425
 11
 1181.890
 21
  884.646
 31
  321.654
 12
 1181.890
 22
  884.646
 32
   98.425
 13
 1181.890
 23
  884.646
 33
   98.425
 70
 15
  0
3DFACE
  8
Wall_surfaces
 39
    0.000
 62
7
 10
 1427.953
 20
  884.646
 30
   98.425
 11
 1181.890
 21
  884.646
 31
   98.425
 12
 1427.953
 22
  884.646
 32
   98.425
 13
 1427.953
 23
  884.646
 33
   98.425
 70
  5
  0
3DFACE
  8
Wall_surfaces
 39
    0.000
 62
7
 10
 1427.953
 20
  884.646
 30
    0.000
 11
 1427.953
 21
  884.646
 31
   98.425
 12
 1427.953
 22
  884.646
 32
    0.000
 13
 1427.953
 23
  884.646
 33
    0.000
 70
 15
  0
3DFACE
  8
Wall_surfaces
 39
    0.000
 62
7
 10
 1181.890
 20
  884.646
 30
    0.000
 11
 1181.890
 21
  884.646
 31
   98.425
 12
 1181.890
 22
  884.646
 32
    0.000
 13
 1181.890
 23
  884.646
 33
    0.000
 70
 15
  0
3DFACE
  8
Wall_surfaces
 39
    0.000
 62
7
 10
 1427.953
 20
  884.646
 30
   98.425
 11
 1181.890
 21
  884.646
 31
   98.425
 12
 1427.953
 22
  884.646
 32
   98.425
 13
 1427.953
 23
  884.646
 33
   98.425
 70
 13
  0
3DFACE
  8
Wall_surfaces
 39
    0.000
 62
7
 10
 1427.953
 20
  884.646
 30
    0.000
 11
 1181.890
 21
  884.646
 31
    0.000
 12
 1427.953
 22
  884.646
 32
    0.000
 13
 1427.953
 23
  884.646
 33
    0.000
 70
 15
  0
3DFACE
  8
Wall_surfaces
 39
    0.000
 62
7
 10
 1181.890
 20
  884.646
 30
   98.425
 11
 1181.890
 21
  884.646
 31
  321.654
 12
 1181.890
 22
  884.646
 32
   98.425
 13
 1181.890
 23
  884.646
 33
   98.425
 70
  7
  0
3DFACE
  8
Wall_surfaces
 39
    0.000
 62
7
 10
  950.787
 20
  884.646
 30
   98.425
 11
  950.787
 21
  884.646
 31
  321.654
 12
  950.787
 22
  884.646
 32
   98.425
 13
  950.787
 23
  884.646
 33
   98.425
 70
  7
  0
3DFACE
  8
Wall_surfaces
 39
    0.000
 62
7
 10
 1181.890
 20
  884.646
 30
   98.425
 11
 1181.890
 21
  884.646
 31
  321.654
 12
  950.787
 22
  884.646
 32
  321.654
 13
  950.787
 23
  884.646
 33
  321.654
 70
 13
  0
3DFACE
  8
Wall_surfaces
 39
    0.000
 62
7
 10
 1181.890
 20
  884.646
 30
   98.425
 11
  950.787
 21
  884.646
 31
  321.654
 12
  950.787
 22
  884.646
 32
   98.425
 13
  950.787
 23
  884.646
 33
   98.425
 70
 15
  0
3DFACE
  8
Wall_surfaces
 39
    0.000
 62
7
 10
 1181.890
 20
  884.646
 30
   98.425
 11
  950.787
 21
  884.646
 31
   98.425
 12
 1181.890
 22
  884.646
 32
   98.425
 13
 1181.890
 23
  884.646
 33
   98.425
 70
  5
  0
3DFACE
  8
Wall_surfaces
 39
    0.000
 62
7
 10
 1181.890
 20
  884.646
 30
    0.000
 11
 1181.890
 21
  884.646
 31
   98.425
 12
 1181.890
 22
  884.646
 32
    0.000
 13
 1181.890
 23
  884.646
 33
    0.000
 70
 15
  0
3DFACE
  8
Wall_surfaces
 39
    0.000
 62
7
 10
  950.787
 20
  884.646
 30
    0.000
 11
  950.787
 21
  884.646
 31
   98.425
 12
  950.787
 22
  884.646
 32
    0.000
 13
  950.787
 23
  884.646
 33
    0.000
 70
 15
  0
3DFACE
  8
Wall_surfaces
 39
    0.000
 62
7
 10
 1181.890
 20
  884.646
 30
   98.425
 11
  950.787
 21
  884.646
 31
   98.425
 12
 1181.890
 22
  884.646
 32
   98.425
 13
 1181.890
 23
  884.646
 33
   98.425
 70
 13
  0
3DFACE
  8
Wall_surfaces
 39
    0.000
 62
7
 10
 1181.890
 20
  884.646
 30
    0.000
 11
  950.787
 21
  884.646
 31
    0.000
 12
 1181.890
 22
  884.646
 32
    0.000
 13
 1181.890
 23
  884.646
 33
    0.000
 70
 15
  0
3DFACE
  8
Wall_surfaces
 39
    0.000
 62
7
 10
  950.787
 20
  884.646
 30
   98.425
 11
  950.787
 21
  884.646
 31
  321.654
 12
  950.787
 22
  884.646
 32
   98.425
 13
  950.787
 23
  884.646
 33
   98.425
 70
  7
  0
3DFACE
  8
Wall_surfaces
 39
    0.000
 62
7
 10
  705.512
 20
  884.646
 30
   98.425
 11
  705.512
 21
  884.646
 31
  321.654
 12
  705.512
 22
  884.646
 32
   98.425
 13
  705.512
 23
  884.646
 33
   98.425
 70
  7
  0
3DFACE
  8
Wall_surfaces
 39
    0.000
 62
7
 10
  950.787
 20
  884.646
 30
   98.425
 11
  950.787
 21
  884.646
 31
  321.654
 12
  705.512
 22
  884.646
 32
  321.654
 13
  705.512
 23
  884.646
 33
  321.654
 70
 13
  0
3DFACE
  8
Wall_surfaces
 39
    0.000
 62
7
 10
  950.787
 20
  884.646
 30
   98.425
 11
  705.512
 21
  884.646
 31
  321.654
 12
  705.512
 22
  884.646
 32
   98.425
 13
  705.512
 23
  884.646
 33
   98.425
 70
 15
  0
3DFACE
  8
Wall_surfaces
 39
    0.000
 62
7
 10
  950.787
 20
  884.646
 30
   98.425
 11
  705.512
 21
  884.646
 31
   98.425
 12
  950.787
 22
  884.646
 32
   98.425
 13
  950.787
 23
  884.646
 33
   98.425
 70
  5
  0
3DFACE
  8
Wall_surfaces
 39
    0.000
 62
7
 10
  950.787
 20
  884.646
 30
    0.000
 11
  950.787
 21
  884.646
 31
   98.425
 12
  950.787
 22
  884.646
 32
    0.000
 13
  950.787
 23
  884.646
 33
    0.000
 70
 15
  0
3DFACE
  8
Wall_surfaces
 39
    0.000
 62
7
 10
  705.512
 20
  884.646
 30
    0.000
 11
  705.512
 21
  884.646
 31
   98.425
 12
  705.512
 22
  884.646
 32
    0.000
 13
  705.512
 23
  884.646
 33
    0.000
 70
 15
  0
3DFACE
  8
Wall_surfaces
 39
    0.000
 62
7
 10
  950.787
 20
  884.646
 30
   98.425
 11
  705.512
 21
  884.646
 31
   98.425
 12
  950.787
 22
  884.646
 32
   98.425
 13
  950.787
 23
  884.646
 33
   98.425
 70
 13
  0
3DFACE
  8
Wall_surfaces
 39
    0.000
 62
7
 10
  950.787
 20
  884.646
 30
    0.000
 11
  705.512
 21
  884.646
 31
    0.000
 12
  950.787
 22
  884.646
 32
    0.000
 13
  950.787
 23
  884.646
 33
    0.000
 70
 15
  0
3DFACE
  8
Wall_surfaces
 39
    0.000
 62
7
 10
  705.512
 20
  884.646
 30
   98.425
 11
  705.512
 21
  884.646
 31
  321.654
 12
  705.512
 22
  884.646
 32
   98.425
 13
  705.512
 23
  884.646
 33
   98.425
 70
  7
  0
3DFACE
  8
Wall_surfaces
 39
    0.000
 62
7
 10
  479.921
 20
  884.646
 30
   98.425
 11
  479.921
 21
  884.646
 31
  321.654
 12
  479.921
 22
  884.646
 32
   98.425
 13
  479.921
 23
  884.646
 33
   98.425
 70
  7
  0
3DFACE
  8
Wall_surfaces
 39
    0.000
 62
7
 10
  705.512
 20
  884.646
 30
   98.425
 11
  705.512
 21
  884.646
 31
  321.654
 12
  479.921
 22
  884.646
 32
  321.654
 13
  479.921
 23
  884.646
 33
  321.654
 70
 13
  0
3DFACE
  8
Wall_surfaces
 39
    0.000
 62
7
 10
  705.512
 20
  884.646
 30
   98.425
 11
  479.921
 21
  884.646
 31
  321.654
 12
  479.921
 22
  884.646
 32
   98.425
 13
  479.921
 23
  884.646
 33
   98.425
 70
 15
  0
3DFACE
  8
Wall_surfaces
 39
    0.000
 62
7
 10
  705.512
 20
  884.646
 30
   98.425
 11
  479.921
 21
  884.646
 31
   98.425
 12
  705.512
 22
  884.646
 32
   98.425
 13
  705.512
 23
  884.646
 33
   98.425
 70
  5
  0
3DFACE
  8
Wall_surfaces
 39
    0.000
 62
7
 10
  705.512
 20
  884.646
 30
    0.000
 11
  705.512
 21
  884.646
 31
   98.425
 12
  705.512
 22
  884.646
 32
    0.000
 13
  705.512
 23
  884.646
 33
    0.000
 70
 15
  0
3DFACE
  8
Wall_surfaces
 39
    0.000
 62
7
 10
  479.921
 20
  884.646
 30
    0.000
 11
  479.921
 21
  884.646
 31
   98.425
 12
  479.921
 22
  884.646
 32
    0.000
 13
  479.921
 23
  884.646
 33
    0.000
 70
 15
  0
3DFACE
  8
Wall_surfaces
 39
    0.000
 62
7
 10
  705.512
 20
  884.646
 30
   98.425
 11
  479.921
 21
  884.646
 31
   98.425
 12
  705.512
 22
  884.646
 32
   98.425
 13
  705.512
 23
  884.646
 33
   98.425
 70
 13
  0
3DFACE
  8
Wall_surfaces
 39
    0.000
 62
7
 10
  705.512
 20
  884.646
 30
    0.000
 11
  479.921
 21
  884.646
 31
    0.000
 12
  705.512
 22
  884.646
 32
    0.000
 13
  705.512
 23
  884.646
 33
    0.000
 70
 15
  0
3DFACE
  8
Wall_surfaces
 39
    0.000
 62
7
 10
  479.921
 20
  884.646
 30
   98.425
 11
  479.921
 21
  884.646
 31
  321.654
 12
  479.921
 22
  884.646
 32
   98.425
 13
  479.921
 23
  884.646
 33
   98.425
 70
  7
  0
3DFACE
  8
Wall_surfaces
 39
    0.000
 62
7
 10
  244.094
 20
  884.646
 30
   98.425
 11
  244.094
 21
  884.646
 31
  321.654
 12
  244.094
 22
  884.646
 32
   98.425
 13
  244.094
 23
  884.646
 33
   98.425
 70
  7
  0
3DFACE
  8
Wall_surfaces
 39
    0.000
 62
7
 10
  479.921
 20
  884.646
 30
   98.425
 11
  479.921
 21
  884.646
 31
  321.654
 12
  244.094
 22
  884.646
 32
  321.654
 13
  244.094
 23
  884.646
 33
  321.654
 70
 13
  0
3DFACE
  8
Wall_surfaces
 39
    0.000
 62
7
 10
  479.921
 20
  884.646
 30
   98.425
 11
  244.094
 21
  884.646
 31
  321.654
 12
  244.094
 22
  884.646
 32
   98.425
 13
  244.094
 23
  884.646
 33
   98.425
 70
 15
  0
3DFACE
  8
Wall_surfaces
 39
    0.000
 62
7
 10
  479.921
 20
  884.646
 30
   98.425
 11
  244.094
 21
  884.646
 31
   98.425
 12
  479.921
 22
  884.646
 32
   98.425
 13
  479.921
 23
  884.646
 33
   98.425
 70
  5
  0
3DFACE
  8
Wall_surfaces
 39
    0.000
 62
7
 10
  479.921
 20
  884.646
 30
    0.000
 11
  479.921
 21
  884.646
 31
   98.425
 12
  479.921
 22
  884.646
 32
    0.000
 13
  479.921
 23
  884.646
 33
    0.000
 70
 15
  0
3DFACE
  8
Wall_surfaces
 39
    0.000
 62
7
 10
  244.094
 20
  884.646
 30
    0.000
 11
  244.094
 21
  884.646
 31
   98.425
 12
  244.094
 22
  884.646
 32
    0.000
 13
  244.094
 23
  884.646
 33
    0.000
 70
 15
  0
3DFACE
  8
Wall_surfaces
 39
    0.000
 62
7
 10
  479.921
 20
  884.646
 30
   98.425
 11
  244.094
 21
  884.646
 31
   98.425
 12
  479.921
 22
  884.646
 32
   98.425
 13
  479.921
 23
  884.646
 33
   98.425
 70
 13
  0
3DFACE
  8
Wall_surfaces
 39
    0.000
 62
7
 10
  479.921
 20
  884.646
 30
    0.000
 11
  244.094
 21
  884.646
 31
    0.000
 12
  479.921
 22
  884.646
 32
    0.000
 13
  479.921
 23
  884.646
 33
    0.000
 70
 15
  0
3DFACE
  8
Wall_surfaces
 39
    0.000
 62
7
 10
  244.094
 20
  884.646
 30
   98.425
 11
  244.094
 21
  884.646
 31
  321.654
 12
  244.094
 22
  884.646
 32
   98.425
 13
  244.094
 23
  884.646
 33
   98.425
 70
  7
  0
3DFACE
  8
Wall_surfaces
 39
    0.000
 62
7
 10
    0.000
 20
  884.646
 30
   98.425
 11
    0.000
 21
  884.646
 31
  321.654
 12
    0.000
 22
  884.646
 32
   98.425
 13
    0.000
 23
  884.646
 33
   98.425
 70
  5
  0
3DFACE
  8
Wall_surfaces
 39
    0.000
 62
7
 10
  244.094
 20
  884.646
 30
   98.425
 11
  244.094
 21
  884.646
 31
  321.654
 12
    0.000
 22
  884.646
 32
  321.654
 13
    0.000
 23
  884.646
 33
  321.654
 70
 13
  0
3DFACE
  8
Wall_surfaces
 39
    0.000
 62
7
 10
  244.094
 20
  884.646
 30
   98.425
 11
    0.000
 21
  884.646
 31
  321.654
 12
    0.000
 22
  884.646
 32
   98.425
 13
    0.000
 23
  884.646
 33
   98.425
 70
 13
  0
3DFACE
  8
Wall_surfaces
 39
    0.000
 62
7
 10
  244.094
 20
  884.646
 30
   98.425
 11
    0.000
 21
  884.646
 31
   98.425
 12
  244.094
 22
  884.646
 32
   98.425
 13
  244.094
 23
  884.646
 33
   98.425
 70
  5
  0
3DFACE
  8
Wall_surfaces
 39
    0.000
 62
7
 10
  244.094
 20
  884.646
 30
    0.000
 11
  244.094
 21
  884.646
 31
   98.425
 12
  244.094
 22
  884.646
 32
    0.000
 13
  244.094
 23
  884.646
 33
    0.000
 70
 15
  0
3DFACE
  8
Wall_surfaces
 39
    0.000
 62
7
 10
    0.000
 20
  884.646
 30
    0.000
 11
    0.000
 21
  884.646
 31
   98.425
 12
    0.000
 22
  884.646
 32
    0.000
 13
    0.000
 23
  884.646
 33
    0.000
 70
 15
  0
3DFACE
  8
Wall_surfaces
 39
    0.000
 62
7
 10
  244.094
 20
  884.646
 30
   98.425
 11
    0.000
 21
  884.646
 31
   98.425
 12
  244.094
 22
  884.646
 32
   98.425
 13
  244.094
 23
  884.646
 33
   98.425
 70
 13
  0
3DFACE
  8
Wall_surfaces
 39
    0.000
 62
7
 10
  244.094
 20
  884.646
 30
    0.000
 11
    0.000
 21
  884.646
 31
    0.000
 12
  244.094
 22
  884.646
 32
    0.000
 13
  244.094
 23
  884.646
 33
    0.000
 70
 15
  0
3DFACE
  8
Floor_surface
 39
    0.000
 62
2
 10
    0.000
 20
    0.000
 30
    0.000
 11
 1427.953
 21
    0.000
 31
    0.000
 12
 1427.953
 22
  884.646
 32
    0.000
 13
 1427.953
 23
  884.646
 33
    0.000
 70
 12
  0
3DFACE
  8
Floor_surface
 39
    0.000
 62
2
 10
    0.000
 20
    0.000
 30
    0.000
 11
 1427.953
 21
  884.646
 31
    0.000
 12
    0.000
 22
  884.646
 32
    0.000
 13
    0.000
 23
  884.646
 33
    0.000
 70
  5
  0
3DFACE
  8
Roof_surface
 39
    0.000
 62
7
 10
    0.000
 20
  884.646
 30
  321.654
 11
    0.000
 21
  442.323
 31
  365.906
 12
 1427.953
 22
  442.323
 32
  365.906
 13
 1427.953
 23
  442.323
 33
  365.906
 70
 12
  0
3DFACE
  8
Roof_surface
 39
    0.000
 62
7
 10
    0.000
 20
  884.646
 30
  321.654
 11
 1427.953
 21
  442.323
 31
  365.906
 12
 1427.953
 22
  884.646
 32
  321.654
 13
 1427.953
 23
  884.646
 33
  321.654
 70
  5
  0
3DFACE
  8
Roof_surface
 39
    0.000
 62
7
 10
    0.000
 20
  442.323
 30
  365.906
 11
    0.000
 21
    0.000
 31
  321.654
 12
 1427.953
 22
    0.000
 32
  321.654
 13
 1427.953
 23
    0.000
 33
  321.654
 70
 12
  0
3DFACE
  8
Roof_surface
 39
    0.000
 62
7
 10
    0.000
 20
  442.323
 30
  365.906
 11
 1427.953
 21
    0.000
 31
  321.654
 12
 1427.953
 22
  442.323
 32
  365.906
 13
 1427.953
 23
  442.323
 33
  365.906
 70
  5
999
END:     AREA=Draw Building Surface
999
START:   AREA=Draw Building Trim
999
START:   AREA=Draw Building Trim
999
START:   AREA=Draw Building Trim
999
END:     AREA=Draw Building Trim
999
START:   AREA=Draw Partial Walls
999
START:   AREA=Draw Partial Jambs
999
END:     AREA=Draw Partial Jambs
999
END:     AREA=Draw Partial Walls
999
START:   AREA=Draw Bays
  0
3DFACE
  8
Frame_lines
 39
    0.000
 62
1
 10
   17.323
 20
  859.843
 30
    0.000
 11
   17.323
 21
  875.591
 31
    0.000
 12
   17.323
 22
  875.591
 32
  157.480
 13
   17.323
 23
  875.591
 33
  157.480
 70
 12
  0
3DFACE
  8
Frame_lines
 39
    0.000
 62
1
 10
   17.323
 20
  859.843
 30
    0.000
 11
   17.323
 21
  875.591
 31
  157.480
 12
   17.323
 22
  848.031
 32
  157.480
 13
   17.323
 23
  848.031
 33
  157.480
 70
  7
  0
3DFACE
  8
Frame_lines
 39
    0.000
 62
1
 10
   17.323
 20
  848.031
 30
  157.480
 11
   17.323
 21
  875.591
 31
  157.480
 12
   17.323
 22
  875.591
 32
  313.780
 13
   17.323
 23
  875.591
 33
  313.780
 70
 13
  0
3DFACE
  8
Frame_lines
 39
    0.000
 62
1
 10
   17.323
 20
  848.031
 30
  157.480
 11
   17.323
 21
  875.591
 31
  313.780
 12
   17.323
 22
  848.031
 32
  300.710
 13
   17.323
 23
  848.031
 33
  300.710
 70
  7
  0
3DFACE
  8
Frame_lines
 39
    0.000
 62
1
 10
   17.323
 20
  848.031
 30
  300.710
 11
   17.323
 21
  875.591
 31
  313.780
 12
   17.323
 22
  699.305
 32
  331.416
 13
   17.323
 23
  699.305
 33
  331.416
 70
 13
  0
3DFACE
  8
Frame_lines
 39
    0.000
 62
1
 10
   17.323
 20
  848.031
 30
  300.710
 11
   17.323
 21
  699.305
 31
  331.416
 12
   17.323
 22
  698.129
 32
  319.664
 13
   17.323
 23
  698.129
 33
  319.664
 70
  7
  0
3DFACE
  8
Frame_lines
 39
    0.000
 62
1
 10
   17.323
 20
  698.129
 30
  319.664
 11
   17.323
 21
  699.305
 31
  331.416
 12
   17.323
 22
  535.125
 32
  347.841
 13
   17.323
 23
  535.125
 33
  347.841
 70
 13
  0
3DFACE
  8
Frame_lines
 39
    0.000
 62
1
 10
   17.323
 20
  698.129
 30
  319.664
 11
   17.323
 21
  535.125
 31
  347.841
 12
   17.323
 22
  533.949
 32
  336.089
 13
   17.323
 23
  533.949
 33
  336.089
 70
  7
  0
3DFACE
  8
Frame_lines
 39
    0.000
 62
1
 10
   17.323
 20
  533.949
 30
  336.089
 11
   17.323
 21
  535.125
 31
  347.841
 12
   17.323
 22
  442.323
 32
  358.031
 13
   17.323
 23
  442.323
 33
  358.031
 70
 13
  0
3DFACE
  8
Frame_lines
 39
    0.000
 62
1
 10
   17.323
 20
  533.949
 30
  336.089
 11
   17.323
 21
  442.323
 31
  358.031
 12
   17.323
 22
  442.323
 32
  336.270
 13
   17.323
 23
  442.323
 33
  336.270
 70
  7
  0
3DFACE
  8
Frame_lines
 39
    0.000
 62
1
 10
   17.323
 20
  442.323
 30
  336.270
 11
   17.323
 21
  442.323
 31
  358.031
 12
   17.323
 22
  340.469
 32
  347.842
 13
   17.323
 23
  340.469
 33
  347.842
 70
 13
  0
3DFACE
  8
Frame_lines
 39
    0.000
 62
1
 10
   17.323
 20
  442.323
 30
  336.270
 11
   17.323
 21
  340.469
 31
  347.842
 12
   17.323
 22
  341.645
 32
  336.089
 13
   17.323
 23
  341.645
 33
  336.089
 70
  7
  0
3DFACE
  8
Frame_lines
 39
    0.000
 62
1
 10
   17.323
 20
  341.645
 30
  336.089
 11
   17.323
 21
  340.469
 31
  347.842
 12
   17.323
 22
  176.289
 32
  331.416
 13
   17.323
 23
  176.289
 33
  331.416
 70
 13
  0
3DFACE
  8
Frame_lines
 39
    0.000
 62
1
 10
   17.323
 20
  341.645
 30
  336.089
 11
   17.323
 21
  176.289
 31
  331.416
 12
   17.323
 22
  177.464
 32
  319.664
 13
   17.323
 23
  177.464
 33
  319.664
 70
  7
  0
3DFACE
  8
Frame_lines
 39
    0.000
 62
1
 10
   17.323
 20
  177.464
 30
  319.664
 11
   17.323
 21
  176.289
 31
  331.416
 12
   17.323
 22
    9.055
 32
  313.780
 13
   17.323
 23
    9.055
 33
  313.780
 70
 13
  0
3DFACE
  8
Frame_lines
 39
    0.000
 62
1
 10
   17.323
 20
  177.464
 30
  319.664
 11
   17.323
 21
    9.055
 31
  313.780
 12
   17.323
 22
   36.614
 32
  300.710
 13
   17.323
 23
   36.614
 33
  300.710
 70
  7
  0
3DFACE
  8
Frame_lines
 39
    0.000
 62
1
 10
   17.323
 20
   36.614
 30
  300.710
 11
   17.323
 21
    9.055
 31
  313.780
 12
   17.323
 22
    9.055
 32
  149.606
 13
   17.323
 23
    9.055
 33
  149.606
 70
 13
  0
3DFACE
  8
Frame_lines
 39
    0.000
 62
1
 10
   17.323
 20
   36.614
 30
  300.710
 11
   17.323
 21
    9.055
 31
  149.606
 12
   17.323
 22
   36.614
 32
  149.606
 13
   17.323
 23
   36.614
 33
  149.606
 70
  7
  0
3DFACE
  8
Frame_lines
 39
    0.000
 62
1
 10
   17.323
 20
   36.614
 30
  149.606
 11
   17.323
 21
    9.055
 31
  149.606
 12
   17.323
 22
    9.055
 32
    0.000
 13
   17.323
 23
    9.055
 33
    0.000
 70
 13
  0
3DFACE
  8
Frame_lines
 39
    0.000
 62
1
 10
   17.323
 20
   36.614
 30
  149.606
 11
   17.323
 21
    9.055
 31
    0.000
 12
   17.323
 22
   24.803
 32
   -0.000
 13
   17.323
 23
   24.803
 33
   -0.000
 70
  5
  0
3DFACE
  8
Frame_lines
 39
    0.000
 62
1
 10
 1410.630
 20
  859.843
 30
    0.000
 11
 1410.630
 21
  875.591
 31
    0.000
 12
 1410.630
 22
  875.591
 32
  157.480
 13
 1410.630
 23
  875.591
 33
  157.480
 70
 12
  0
3DFACE
  8
Frame_lines
 39
    0.000
 62
1
 10
 1410.630
 20
  859.843
 30
    0.000
 11
 1410.630
 21
  875.591
 31
  157.480
 12
 1410.630
 22
  848.031
 32
  157.480
 13
 1410.630
 23
  848.031
 33
  157.480
 70
  7
  0
3DFACE
  8
Frame_lines
 39
    0.000
 62
1
 10
 1410.630
 20
  848.031
 30
  157.480
 11
 1410.630
 21
  875.591
 31
  157.480
 12
 1410.630
 22
  875.591
 32
  313.780
 13
 1410.630
 23
  875.591
 33
  313.780
 70
 13
  0
3DFACE
  8
Frame_lines
 39
    0.000
 62
1
 10
 1410.630
 20
  848.031
 30
  157.480
 11
 1410.630
 21
  875.591
 31
  313.780
 12
 1410.630
 22
  848.031
 32
  300.710
 13
 1410.630
 23
  848.031
 33
  300.710
 70
  7
  0
3DFACE
  8
Frame_lines
 39
    0.000
 62
1
 10
 1410.630
 20
  848.031
 30
  300.710
 11
 1410.630
 21
  875.591
 31
  313.780
 12
 1410.630
 22
  699.305
 32
  331.416
 13
 1410.630
 23
  699.305
 33
  331.416
 70
 13
  0
3DFACE
  8
Frame_lines
 39
    0.000
 62
1
 10
 1410.630
 20
  848.031
 30
  300.710
 11
 1410.630
 21
  699.305
 31
  331.416
 12
 1410.630
 22
  698.129
 32
  319.664
 13
 1410.630
 23
  698.129
 33
  319.664
 70
  7
  0
3DFACE
  8
Frame_lines
 39
    0.000
 62
1
 10
 1410.630
 20
  698.129
 30
  319.664
 11
 1410.630
 21
  699.305
 31
  331.416
 12
 1410.630
 22
  535.125
 32
  347.841
 13
 1410.630
 23
  535.125
 33
  347.841
 70
 13
  0
3DFACE
  8
Frame_lines
 39
    0.000
 62
1
 10
 1410.630
 20
  698.129
 30
  319.664
 11
 1410.630
 21
  535.125
 31
  347.841
 12
 1410.630
 22
  533.949
 32
  336.089
 13
 1410.630
 23
  533.949
 33
  336.089
 70
  7
  0
3DFACE
  8
Frame_lines
 39
    0.000
 62
1
 10
 1410.630
 20
  533.949
 30
  336.089
 11
 1410.630
 21
  535.125
 31
  347.841
 12
 1410.630
 22
  442.323
 32
  358.031
 13
 1410.630
 23
  442.323
 33
  358.031
 70
 13
  0
3DFACE
  8
Frame_lines
 39
    0.000
 62
1
 10
 1410.630
 20
  533.949
 30
  336.089
 11
 1410.630
 21
  442.323
 31
  358.031
 12
 1410.630
 22
  442.323
 32
  336.270
 13
 1410.630
 23
  442.323
 33
  336.270
 70
  7
  0
3DFACE
  8
Frame_lines
 39
    0.000
 62
1
 10
 1410.630
 20
  442.323
 30
  336.270
 11
 1410.630
 21
  442.323
 31
  358.031
 12
 1410.630
 22
  340.469
 32
  347.842
 13
 1410.630
 23
  340.469
 33
  347.842
 70
 13
  0
3DFACE
  8
Frame_lines
 39
    0.000
 62
1
 10
 1410.630
 20
  442.323
 30
  336.270
 11
 1410.630
 21
  340.469
 31
  347.842
 12
 1410.630
 22
  341.645
 32
  336.089
 13
 1410.630
 23
  341.645
 33
  336.089
 70
  7
  0
3DFACE
  8
Frame_lines
 39
    0.000
 62
1
 10
 1410.630
 20
  341.645
 30
  336.089
 11
 1410.630
 21
  340.469
 31
  347.842
 12
 1410.630
 22
  176.289
 32
  331.416
 13
 1410.630
 23
  176.289
 33
  331.416
 70
 13
  0
3DFACE
  8
Frame_lines
 39
    0.000
 62
1
 10
 1410.630
 20
  341.645
 30
  336.089
 11
 1410.630
 21
  176.289
 31
  331.416
 12
 1410.630
 22
  177.464
 32
  319.664
 13
 1410.630
 23
  177.464
 33
  319.664
 70
  7
  0
3DFACE
  8
Frame_lines
 39
    0.000
 62
1
 10
 1410.630
 20
  177.464
 30
  319.664
 11
 1410.630
 21
  176.289
 31
  331.416
 12
 1410.630
 22
    9.055
 32
  313.780
 13
 1410.630
 23
    9.055
 33
  313.780
 70
 13
  0
3DFACE
  8
Frame_lines
 39
    0.000
 62
1
 10
 1410.630
 20
  177.464
 30
  319.664
 11
 1410.630
 21
    9.055
 31
  313.780
 12
 1410.630
 22
   36.614
 32
  300.710
 13
 1410.630
 23
   36.614
 33
  300.710
 70
  7
  0
3DFACE
  8
Frame_lines
 39
    0.000
 62
1
 10
 1410.630
 20
   36.614
 30
  300.710
 11
 1410.630
 21
    9.055
 31
  313.780
 12
 1410.630
 22
    9.055
 32
  149.606
 13
 1410.630
 23
    9.055
 33
  149.606
 70
 13
  0
3DFACE
  8
Frame_lines
 39
    0.000
 62
1
 10
 1410.630
 20
   36.614
 30
  300.710
 11
 1410.630
 21
    9.055
 31
  149.606
 12
 1410.630
 22
   36.614
 32
  149.606
 13
 1410.630
 23
   36.614
 33
  149.606
 70
  7
  0
3DFACE
  8
Frame_lines
 39
    0.000
 62
1
 10
 1410.630
 20
   36.614
 30
  149.606
 11
 1410.630
 21
    9.055
 31
  149.606
 12
 1410.630
 22
    9.055
 32
    0.000
 13
 1410.630
 23
    9.055
 33
    0.000
 70
 13
  0
3DFACE
  8
Frame_lines
 39
    0.000
 62
1
 10
 1410.630
 20
   36.614
 30
  149.606
 11
 1410.630
 21
    9.055
 31
    0.000
 12
 1410.630
 22
   24.803
 32
   -0.000
 13
 1410.630
 23
   24.803
 33
   -0.000
 70
  5
  0
3DFACE
  8
Frame_lines
 39
    0.000
 62
1
 10
  244.094
 20
  859.843
 30
    0.000
 11
  244.094
 21
  875.591
 31
    0.000
 12
  244.094
 22
  875.591
 32
  157.480
 13
  244.094
 23
  875.591
 33
  157.480
 70
 12
  0
3DFACE
  8
Frame_lines
 39
    0.000
 62
1
 10
  244.094
 20
  859.843
 30
    0.000
 11
  244.094
 21
  875.591
 31
  157.480
 12
  244.094
 22
  848.031
 32
  157.480
 13
  244.094
 23
  848.031
 33
  157.480
 70
  7
  0
3DFACE
  8
Frame_lines
 39
    0.000
 62
1
 10
  244.094
 20
  848.031
 30
  157.480
 11
  244.094
 21
  875.591
 31
  157.480
 12
  244.094
 22
  875.591
 32
  313.780
 13
  244.094
 23
  875.591
 33
  313.780
 70
 13
  0
3DFACE
  8
Frame_lines
 39
    0.000
 62
1
 10
  244.094
 20
  848.031
 30
  157.480
 11
  244.094
 21
  875.591
 31
  313.780
 12
  244.094
 22
  848.031
 32
  292.797
 13
  244.094
 23
  848.031
 33
  292.797
 70
  7
  0
3DFACE
  8
Frame_lines
 39
    0.000
 62
1
 10
  244.094
 20
  848.031
 30
  292.797
 11
  244.094
 21
  875.591
 31
  313.780
 12
  244.094
 22
  699.305
 32
  331.416
 13
  244.094
 23
  699.305
 33
  331.416
 70
 13
  0
3DFACE
  8
Frame_lines
 39
    0.000
 62
1
 10
  244.094
 20
  848.031
 30
  292.797
 11
  244.094
 21
  699.305
 31
  331.416
 12
  244.094
 22
  698.325
 32
  321.622
 13
  244.094
 23
  698.325
 33
  321.622
 70
  7
  0
3DFACE
  8
Frame_lines
 39
    0.000
 62
1
 10
  244.094
 20
  698.325
 30
  321.622
 11
  244.094
 21
  699.305
 31
  331.416
 12
  244.094
 22
  442.323
 32
  358.031
 13
  244.094
 23
  442.323
 33
  358.031
 70
 13
  0
3DFACE
  8
Frame_lines
 39
    0.000
 62
1
 10
  244.094
 20
  698.325
 30
  321.622
 11
  244.094
 21
  442.323
 31
  358.031
 12
  244.094
 22
  442.323
 32
  340.227
 13
  244.094
 23
  442.323
 33
  340.227
 70
  7
  0
3DFACE
  8
Frame_lines
 39
    0.000
 62
1
 10
  244.094
 20
  442.323
 30
  340.227
 11
  244.094
 21
  442.323
 31
  358.031
 12
  244.094
 22
  174.212
 32
  331.208
 13
  244.094
 23
  174.212
 33
  331.208
 70
 13
  0
3DFACE
  8
Frame_lines
 39
    0.000
 62
1
 10
  244.094
 20
  442.323
 30
  340.227
 11
  244.094
 21
  174.212
 31
  331.208
 12
  244.094
 22
  175.192
 32
  321.415
 13
  244.094
 23
  175.192
 33
  321.415
 70
  7
  0
3DFACE
  8
Frame_lines
 39
    0.000
 62
1
 10
  244.094
 20
  175.192
 30
  321.415
 11
  244.094
 21
  174.212
 31
  331.208
 12
  244.094
 22
    9.055
 32
  313.780
 13
  244.094
 23
    9.055
 33
  313.780
 70
 13
  0
3DFACE
  8
Frame_lines
 39
    0.000
 62
1
 10
  244.094
 20
  175.192
 30
  321.415
 11
  244.094
 21
    9.055
 31
  313.780
 12
  244.094
 22
   36.614
 32
  292.797
 13
  244.094
 23
   36.614
 33
  292.797
 70
  7
  0
3DFACE
  8
Frame_lines
 39
    0.000
 62
1
 10
  244.094
 20
   36.614
 30
  292.797
 11
  244.094
 21
    9.055
 31
  313.780
 12
  244.094
 22
    9.055
 32
  149.606
 13
  244.094
 23
    9.055
 33
  149.606
 70
 13
  0
3DFACE
  8
Frame_lines
 39
    0.000
 62
1
 10
  244.094
 20
   36.614
 30
  292.797
 11
  244.094
 21
    9.055
 31
  149.606
 12
  244.094
 22
   36.614
 32
  149.606
 13
  244.094
 23
   36.614
 33
  149.606
 70
  7
  0
3DFACE
  8
Frame_lines
 39
    0.000
 62
1
 10
  244.094
 20
   36.614
 30
  149.606
 11
  244.094
 21
    9.055
 31
  149.606
 12
  244.094
 22
    9.055
 32
    0.000
 13
  244.094
 23
    9.055
 33
    0.000
 70
 13
  0
3DFACE
  8
Frame_lines
 39
    0.000
 62
1
 10
  244.094
 20
   36.614
 30
  149.606
 11
  244.094
 21
    9.055
 31
    0.000
 12
  244.094
 22
   24.803
 32
   -0.000
 13
  244.094
 23
   24.803
 33
   -0.000
 70
  5
  0
3DFACE
  8
Frame_lines
 39
    0.000
 62
1
 10
  479.921
 20
  859.843
 30
    0.000
 11
  479.921
 21
  875.591
 31
    0.000
 12
  479.921
 22
  875.591
 32
  157.480
 13
  479.921
 23
  875.591
 33
  157.480
 70
 12
  0
3DFACE
  8
Frame_lines
 39
    0.000
 62
1
 10
  479.921
 20
  859.843
 30
    0.000
 11
  479.921
 21
  875.591
 31
  157.480
 12
  479.921
 22
  848.031
 32
  157.480
 13
  479.921
 23
  848.031
 33
  157.480
 70
  7
  0
3DFACE
  8
Frame_lines
 39
    0.000
 62
1
 10
  479.921
 20
  848.031
 30
  157.480
 11
  479.921
 21
  875.591
 31
  157.480
 12
  479.921
 22
  875.591
 32
  313.780
 13
  479.921
 23
  875.591
 33
  313.780
 70
 13
  0
3DFACE
  8
Frame_lines
 39
    0.000
 62
1
 10
  479.921
 20
  848.031
 30
  157.480
 11
  479.921
 21
  875.591
 31
  313.780
 12
  479.921
 22
  848.031
 32
  292.797
 13
  479.921
 23
  848.031
 33
  292.797
 70
  7
  0
3DFACE
  8
Frame_lines
 39
    0.000
 62
1
 10
  479.921
 20
  848.031
 30
  292.797
 11
  479.921
 21
  875.591
 31
  313.780
 12
  479.921
 22
  699.305
 32
  331.416
 13
  479.921
 23
  699.305
 33
  331.416
 70
 13
  0
3DFACE
  8
Frame_lines
 39
    0.000
 62
1
 10
  479.921
 20
  848.031
 30
  292.797
 11
  479.921
 21
  699.305
 31
  331.416
 12
  479.921
 22
  698.325
 32
  321.622
 13
  479.921
 23
  698.325
 33
  321.622
 70
  7
  0
3DFACE
  8
Frame_lines
 39
    0.000
 62
1
 10
  479.921
 20
  698.325
 30
  321.622
 11
  479.921
 21
  699.305
 31
  331.416
 12
  479.921
 22
  442.323
 32
  358.031
 13
  479.921
 23
  442.323
 33
  358.031
 70
 13
  0
3DFACE
  8
Frame_lines
 39
    0.000
 62
1
 10
  479.921
 20
  698.325
 30
  321.622
 11
  479.921
 21
  442.323
 31
  358.031
 12
  479.921
 22
  442.323
 32
  340.227
 13
  479.921
 23
  442.323
 33
  340.227
 70
  7
  0
3DFACE
  8
Frame_lines
 39
    0.000
 62
1
 10
  479.921
 20
  442.323
 30
  340.227
 11
  479.921
 21
  442.323
 31
  358.031
 12
  479.921
 22
  174.212
 32
  331.208
 13
  479.921
 23
  174.212
 33
  331.208
 70
 13
  0
3DFACE
  8
Frame_lines
 39
    0.000
 62
1
 10
  479.921
 20
  442.323
 30
  340.227
 11
  479.921
 21
  174.212
 31
  331.208
 12
  479.921
 22
  175.192
 32
  321.415
 13
  479.921
 23
  175.192
 33
  321.415
 70
  7
  0
3DFACE
  8
Frame_lines
 39
    0.000
 62
1
 10
  479.921
 20
  175.192
 30
  321.415
 11
  479.921
 21
  174.212
 31
  331.208
 12
  479.921
 22
    9.055
 32
  313.780
 13
  479.921
 23
    9.055
 33
  313.780
 70
 13
  0
3DFACE
  8
Frame_lines
 39
    0.000
 62
1
 10
  479.921
 20
  175.192
 30
  321.415
 11
  479.921
 21
    9.055
 31
  313.780
 12
  479.921
 22
   36.614
 32
  292.797
 13
  479.921
 23
   36.614
 33
  292.797
 70
  7
  0
3DFACE
  8
Frame_lines
 39
    0.000
 62
1
 10
  479.921
 20
   36.614
 30
  292.797
 11
  479.921
 21
    9.055
 31
  313.780
 12
  479.921
 22
    9.055
 32
  149.606
 13
  479.921
 23
    9.055
 33
  149.606
 70
 13
  0
3DFACE
  8
Frame_lines
 39
    0.000
 62
1
 10
  479.921
 20
   36.614
 30
  292.797
 11
  479.921
 21
    9.055
 31
  149.606
 12
  479.921
 22
   36.614
 32
  149.606
 13
  479.921
 23
   36.614
 33
  149.606
 70
  7
  0
3DFACE
  8
Frame_lines
 39
    0.000
 62
1
 10
  479.921
 20
   36.614
 30
  149.606
 11
  479.921
 21
    9.055
 31
  149.606
 12
  479.921
 22
    9.055
 32
    0.000
 13
  479.921
 23
    9.055
 33
    0.000
 70
 13
  0
3DFACE
  8
Frame_lines
 39
    0.000
 62
1
 10
  479.921
 20
   36.614
 30
  149.606
 11
  479.921
 21
    9.055
 31
    0.000
 12
  479.921
 22
   24.803
 32
   -0.000
 13
  479.921
 23
   24.803
 33
   -0.000
 70
  5
  0
3DFACE
  8
Frame_lines
 39
    0.000
 62
1
 10
  705.512
 20
  859.843
 30
    0.000
 11
  705.512
 21
  875.591
 31
    0.000
 12
  705.512
 22
  875.591
 32
  157.480
 13
  705.512
 23
  875.591
 33
  157.480
 70
 12
  0
3DFACE
  8
Frame_lines
 39
    0.000
 62
1
 10
  705.512
 20
  859.843
 30
    0.000
 11
  705.512
 21
  875.591
 31
  157.480
 12
  705.512
 22
  848.031
 32
  157.480
 13
  705.512
 23
  848.031
 33
  157.480
 70
  7
  0
3DFACE
  8
Frame_lines
 39
    0.000
 62
1
 10
  705.512
 20
  848.031
 30
  157.480
 11
  705.512
 21
  875.591
 31
  157.480
 12
  705.512
 22
  875.591
 32
  313.780
 13
  705.512
 23
  875.591
 33
  313.780
 70
 13
  0
3DFACE
  8
Frame_lines
 39
    0.000
 62
1
 10
  705.512
 20
  848.031
 30
  157.480
 11
  705.512
 21
  875.591
 31
  313.780
 12
  705.512
 22
  848.031
 32
  292.797
 13
  705.512
 23
  848.031
 33
  292.797
 70
  7
  0
3DFACE
  8
Frame_lines
 39
    0.000
 62
1
 10
  705.512
 20
  848.031
 30
  292.797
 11
  705.512
 21
  875.591
 31
  313.780
 12
  705.512
 22
  699.305
 32
  331.416
 13
  705.512
 23
  699.305
 33
  331.416
 70
 13
  0
3DFACE
  8
Frame_lines
 39
    0.000
 62
1
 10
  705.512
 20
  848.031
 30
  292.797
 11
  705.512
 21
  699.305
 31
  331.416
 12
  705.512
 22
  698.325
 32
  321.622
 13
  705.512
 23
  698.325
 33
  321.622
 70
  7
  0
3DFACE
  8
Frame_lines
 39
    0.000
 62
1
 10
  705.512
 20
  698.325
 30
  321.622
 11
  705.512
 21
  699.305
 31
  331.416
 12
  705.512
 22
  442.323
 32
  358.031
 13
  705.512
 23
  442.323
 33
  358.031
 70
 13
  0
3DFACE
  8
Frame_lines
 39
    0.000
 62
1
 10
  705.512
 20
  698.325
 30
  321.622
 11
  705.512
 21
  442.323
 31
  358.031
 12
  705.512
 22
  442.323
 32
  340.227
 13
  705.512
 23
  442.323
 33
  340.227
 70
  7
  0
3DFACE
  8
Frame_lines
 39
    0.000
 62
1
 10
  705.512
 20
  442.323
 30
  340.227
 11
  705.512
 21
  442.323
 31
  358.031
 12
  705.512
 22
  174.212
 32
  331.208
 13
  705.512
 23
  174.212
 33
  331.208
 70
 13
  0
3DFACE
  8
Frame_lines
 39
    0.000
 62
1
 10
  705.512
 20
  442.323
 30
  340.227
 11
  705.512
 21
  174.212
 31
  331.208
 12
  705.512
 22
  175.192
 32
  321.415
 13
  705.512
 23
  175.192
 33
  321.415
 70
  7
  0
3DFACE
  8
Frame_lines
 39
    0.000
 62
1
 10
  705.512
 20
  175.192
 30
  321.415
 11
  705.512
 21
  174.212
 31
  331.208
 12
  705.512
 22
    9.055
 32
  313.780
 13
  705.512
 23
    9.055
 33
  313.780
 70
 13
  0
3DFACE
  8
Frame_lines
 39
    0.000
 62
1
 10
  705.512
 20
  175.192
 30
  321.415
 11
  705.512
 21
    9.055
 31
  313.780
 12
  705.512
 22
   36.614
 32
  292.797
 13
  705.512
 23
   36.614
 33
  292.797
 70
  7
  0
3DFACE
  8
Frame_lines
 39
    0.000
 62
1
 10
  705.512
 20
   36.614
 30
  292.797
 11
  705.512
 21
    9.055
 31
  313.780
 12
  705.512
 22
    9.055
 32
  149.606
 13
  705.512
 23
    9.055
 33
  149.606
 70
 13
  0
3DFACE
  8
Frame_lines
 39
    0.000
 62
1
 10
  705.512
 20
   36.614
 30
  292.797
 11
  705.512
 21
    9.055
 31
  149.606
 12
  705.512
 22
   36.614
 32
  149.606
 13
  705.512
 23
   36.614
 33
  149.606
 70
  7
  0
3DFACE
  8
Frame_lines
 39
    0.000
 62
1
 10
  705.512
 20
   36.614
 30
  149.606
 11
  705.512
 21
    9.055
 31
  149.606
 12
  705.512
 22
    9.055
 32
    0.000
 13
  705.512
 23
    9.055
 33
    0.000
 70
 13
  0
3DFACE
  8
Frame_lines
 39
    0.000
 62
1
 10
  705.512
 20
   36.614
 30
  149.606
 11
  705.512
 21
    9.055
 31
    0.000
 12
  705.512
 22
   24.803
 32
   -0.000
 13
  705.512
 23
   24.803
 33
   -0.000
 70
  5
  0
3DFACE
  8
Frame_lines
 39
    0.000
 62
1
 10
  950.787
 20
  859.843
 30
    0.000
 11
  950.787
 21
  875.591
 31
    0.000
 12
  950.787
 22
  875.591
 32
  157.480
 13
  950.787
 23
  875.591
 33
  157.480
 70
 12
  0
3DFACE
  8
Frame_lines
 39
    0.000
 62
1
 10
  950.787
 20
  859.843
 30
    0.000
 11
  950.787
 21
  875.591
 31
  157.480
 12
  950.787
 22
  848.031
 32
  157.480
 13
  950.787
 23
  848.031
 33
  157.480
 70
  7
  0
3DFACE
  8
Frame_lines
 39
    0.000
 62
1
 10
  950.787
 20
  848.031
 30
  157.480
 11
  950.787
 21
  875.591
 31
  157.480
 12
  950.787
 22
  875.591
 32
  313.780
 13
  950.787
 23
  875.591
 33
  313.780
 70
 13
  0
3DFACE
  8
Frame_lines
 39
    0.000
 62
1
 10
  950.787
 20
  848.031
 30
  157.480
 11
  950.787
 21
  875.591
 31
  313.780
 12
  950.787
 22
  848.031
 32
  292.797
 13
  950.787
 23
  848.031
 33
  292.797
 70
  7
  0
3DFACE
  8
Frame_lines
 39
    0.000
 62
1
 10
  950.787
 20
  848.031
 30
  292.797
 11
  950.787
 21
  875.591
 31
  313.780
 12
  950.787
 22
  699.305
 32
  331.416
 13
  950.787
 23
  699.305
 33
  331.416
 70
 13
  0
3DFACE
  8
Frame_lines
 39
    0.000
 62
1
 10
  950.787
 20
  848.031
 30
  292.797
 11
  950.787
 21
  699.305
 31
  331.416
 12
  950.787
 22
  698.325
 32
  321.622
 13
  950.787
 23
  698.325
 33
  321.622
 70
  7
  0
3DFACE
  8
Frame_lines
 39
    0.000
 62
1
 10
  950.787
 20
  698.325
 30
  321.622
 11
  950.787
 21
  699.305
 31
  331.416
 12
  950.787
 22
  442.323
 32
  358.031
 13
  950.787
 23
  442.323
 33
  358.031
 70
 13
  0
3DFACE
  8
Frame_lines
 39
    0.000
 62
1
 10
  950.787
 20
  698.325
 30
  321.622
 11
  950.787
 21
  442.323
 31
  358.031
 12
  950.787
 22
  442.323
 32
  340.227
 13
  950.787
 23
  442.323
 33
  340.227
 70
  7
  0
3DFACE
  8
Frame_lines
 39
    0.000
 62
1
 10
  950.787
 20
  442.323
 30
  340.227
 11
  950.787
 21
  442.323
 31
  358.031
 12
  950.787
 22
  174.212
 32
  331.208
 13
  950.787
 23
  174.212
 33
  331.208
 70
 13
  0
3DFACE
  8
Frame_lines
 39
    0.000
 62
1
 10
  950.787
 20
  442.323
 30
  340.227
 11
  950.787
 21
  174.212
 31
  331.208
 12
  950.787
 22
  175.192
 32
  321.415
 13
  950.787
 23
  175.192
 33
  321.415
 70
  7
  0
3DFACE
  8
Frame_lines
 39
    0.000
 62
1
 10
  950.787
 20
  175.192
 30
  321.415
 11
  950.787
 21
  174.212
 31
  331.208
 12
  950.787
 22
    9.055
 32
  313.780
 13
  950.787
 23
    9.055
 33
  313.780
 70
 13
  0
3DFACE
  8
Frame_lines
 39
    0.000
 62
1
 10
  950.787
 20
  175.192
 30
  321.415
 11
  950.787
 21
    9.055
 31
  313.780
 12
  950.787
 22
   36.614
 32
  292.797
 13
  950.787
 23
   36.614
 33
  292.797
 70
  7
  0
3DFACE
  8
Frame_lines
 39
    0.000
 62
1
 10
  950.787
 20
   36.614
 30
  292.797
 11
  950.787
 21
    9.055
 31
  313.780
 12
  950.787
 22
    9.055
 32
  149.606
 13
  950.787
 23
    9.055
 33
  149.606
 70
 13
  0
3DFACE
  8
Frame_lines
 39
    0.000
 62
1
 10
  950.787
 20
   36.614
 30
  292.797
 11
  950.787
 21
    9.055
 31
  149.606
 12
  950.787
 22
   36.614
 32
  149.606
 13
  950.787
 23
   36.614
 33
  149.606
 70
  7
  0
3DFACE
  8
Frame_lines
 39
    0.000
 62
1
 10
  950.787
 20
   36.614
 30
  149.606
 11
  950.787
 21
    9.055
 31
  149.606
 12
  950.787
 22
    9.055
 32
    0.000
 13
  950.787
 23
    9.055
 33
    0.000
 70
 13
  0
3DFACE
  8
Frame_lines
 39
    0.000
 62
1
 10
  950.787
 20
   36.614
 30
  149.606
 11
  950.787
 21
    9.055
 31
    0.000
 12
  950.787
 22
   24.803
 32
   -0.000
 13
  950.787
 23
   24.803
 33
   -0.000
 70
  5
  0
3DFACE
  8
Frame_lines
 39
    0.000
 62
1
 10
 1181.890
 20
  859.843
 30
    0.000
 11
 1181.890
 21
  875.591
 31
    0.000
 12
 1181.890
 22
  875.591
 32
  157.480
 13
 1181.890
 23
  875.591
 33
  157.480
 70
 12
  0
3DFACE
  8
Frame_lines
 39
    0.000
 62
1
 10
 1181.890
 20
  859.843
 30
    0.000
 11
 1181.890
 21
  875.591
 31
  157.480
 12
 1181.890
 22
  848.031
 32
  157.480
 13
 1181.890
 23
  848.031
 33
  157.480
 70
  7
  0
3DFACE
  8
Frame_lines
 39
    0.000
 62
1
 10
 1181.890
 20
  848.031
 30
  157.480
 11
 1181.890
 21
  875.591
 31
  157.480
 12
 1181.890
 22
  875.591
 32
  313.780
 13
 1181.890
 23
  875.591
 33
  313.780
 70
 13
  0
3DFACE
  8
Frame_lines
 39
    0.000
 62
1
 10
 1181.890
 20
  848.031
 30
  157.480
 11
 1181.890
 21
  875.591
 31
  313.780
 12
 1181.890
 22
  848.031
 32
  292.797
 13
 1181.890
 23
  848.031
 33
  292.797
 70
  7
  0
3DFACE
  8
Frame_lines
 39
    0.000
 62
1
 10
 1181.890
 20
  848.031
 30
  292.797
 11
 1181.890
 21
  875.591
 31
  313.780
 12
 1181.890
 22
  699.305
 32
  331.416
 13
 1181.890
 23
  699.305
 33
  331.416
 70
 13
  0
3DFACE
  8
Frame_lines
 39
    0.000
 62
1
 10
 1181.890
 20
  848.031
 30
  292.797
 11
 1181.890
 21
  699.305
 31
  331.416
 12
 1181.890
 22
  698.325
 32
  321.622
 13
 1181.890
 23
  698.325
 33
  321.622
 70
  7
  0
3DFACE
  8
Frame_lines
 39
    0.000
 62
1
 10
 1181.890
 20
  698.325
 30
  321.622
 11
 1181.890
 21
  699.305
 31
  331.416
 12
 1181.890
 22
  442.323
 32
  358.031
 13
 1181.890
 23
  442.323
 33
  358.031
 70
 13
  0
3DFACE
  8
Frame_lines
 39
    0.000
 62
1
 10
 1181.890
 20
  698.325
 30
  321.622
 11
 1181.890
 21
  442.323
 31
  358.031
 12
 1181.890
 22
  442.323
 32
  340.227
 13
 1181.890
 23
  442.323
 33
  340.227
 70
  7
  0
3DFACE
  8
Frame_lines
 39
    0.000
 62
1
 10
 1181.890
 20
  442.323
 30
  340.227
 11
 1181.890
 21
  442.323
 31
  358.031
 12
 1181.890
 22
  174.212
 32
  331.208
 13
 1181.890
 23
  174.212
 33
  331.208
 70
 13
  0
3DFACE
  8
Frame_lines
 39
    0.000
 62
1
 10
 1181.890
 20
  442.323
 30
  340.227
 11
 1181.890
 21
  174.212
 31
  331.208
 12
 1181.890
 22
  175.192
 32
  321.415
 13
 1181.890
 23
  175.192
 33
  321.415
 70
  7
  0
3DFACE
  8
Frame_lines
 39
    0.000
 62
1
 10
 1181.890
 20
  175.192
 30
  321.415
 11
 1181.890
 21
  174.212
 31
  331.208
 12
 1181.890
 22
    9.055
 32
  313.780
 13
 1181.890
 23
    9.055
 33
  313.780
 70
 13
  0
3DFACE
  8
Frame_lines
 39
    0.000
 62
1
 10
 1181.890
 20
  175.192
 30
  321.415
 11
 1181.890
 21
    9.055
 31
  313.780
 12
 1181.890
 22
   36.614
 32
  292.797
 13
 1181.890
 23
   36.614
 33
  292.797
 70
  7
  0
3DFACE
  8
Frame_lines
 39
    0.000
 62
1
 10
 1181.890
 20
   36.614
 30
  292.797
 11
 1181.890
 21
    9.055
 31
  313.780
 12
 1181.890
 22
    9.055
 32
  149.606
 13
 1181.890
 23
    9.055
 33
  149.606
 70
 13
  0
3DFACE
  8
Frame_lines
 39
    0.000
 62
1
 10
 1181.890
 20
   36.614
 30
  292.797
 11
 1181.890
 21
    9.055
 31
  149.606
 12
 1181.890
 22
   36.614
 32
  149.606
 13
 1181.890
 23
   36.614
 33
  149.606
 70
  7
  0
3DFACE
  8
Frame_lines
 39
    0.000
 62
1
 10
 1181.890
 20
   36.614
 30
  149.606
 11
 1181.890
 21
    9.055
 31
  149.606
 12
 1181.890
 22
    9.055
 32
    0.000
 13
 1181.890
 23
    9.055
 33
    0.000
 70
 13
  0
3DFACE
  8
Frame_lines
 39
    0.000
 62
1
 10
 1181.890
 20
   36.614
 30
  149.606
 11
 1181.890
 21
    9.055
 31
    0.000
 12
 1181.890
 22
   24.803
 32
   -0.000
 13
 1181.890
 23
   24.803
 33
   -0.000
 70
  5
  0
3DFACE
  8
Wall_Framing
 39
    0.000
 62
1
 10
   25.000
 20
  442.323
 30
    0.000
 11
   17.126
 21
  442.323
 31
    0.000
 12
   17.126
 22
  442.323
 32
  349.173
 13
   17.126
 23
  442.323
 33
  349.173
 70
 12
  0
3DFACE
  8
Wall_Framing
 39
    0.000
 62
1
 10
   25.000
 20
  442.323
 30
    0.000
 11
   17.126
 21
  442.323
 31
  349.173
 12
   25.000
 22
  442.323
 32
  349.173
 13
   25.000
 23
  442.323
 33
  349.173
 70
  5
  0
3DFACE
  8
Wall_Framing
 39
    0.000
 62
1
 10
 1402.953
 20
  442.323
 30
    0.000
 11
 1410.827
 21
  442.323
 31
    0.000
 12
 1410.827
 22
  442.323
 32
  349.173
 13
 1410.827
 23
  442.323
 33
  349.173
 70
 12
  0
3DFACE
  8
Wall_Framing
 39
    0.000
 62
1
 10
 1402.953
 20
  442.323
 30
    0.000
 11
 1410.827
 21
  442.323
 31
  349.173
 12
 1402.953
 22
  442.323
 32
  349.173
 13
 1402.953
 23
  442.323
 33
  349.173
 70
  5
999
END:     AREA=Draw Bays
999
START:   AREA=Draw Framed Openings
  0
3DFACE
  8
Framed_openings
 39
    0.000
 62
1
 10
 1419.094
 20
  134.567
 30
  177.165
 11
 1426.969
 21
  134.567
 31
  177.165
 12
 1426.969
 22
  311.732
 32
  177.165
 13
 1426.969
 23
  311.732
 33
  177.165
 70
 12
  0
3DFACE
  8
Framed_openings
 39
    0.000
 62
1
 10
 1419.094
 20
  134.567
 30
  177.165
 11
 1426.969
 21
  311.732
 31
  177.165
 12
 1419.094
 22
  311.732
 32
  177.165
 13
 1419.094
 23
  311.732
 33
  177.165
 70
  5
  0
3DFACE
  8
Framed_openings
 39
    0.000
 62
1
 10
 1419.094
 20
  134.567
 30
    0.000
 11
 1426.969
 21
  134.567
 31
    0.000
 12
 1426.969
 22
  134.567
 32
  180.315
 13
 1426.969
 23
  134.567
 33
  180.315
 70
 12
  0
3DFACE
  8
Framed_openings
 39
    0.000
 62
1
 10
 1419.094
 20
  134.567
 30
    0.000
 11
 1426.969
 21
  134.567
 31
  180.315
 12
 1419.094
 22
  134.567
 32
  180.315
 13
 1419.094
 23
  134.567
 33
  180.315
 70
  5
  0
3DFACE
  8
Framed_openings
 39
    0.000
 62
1
 10
 1419.094
 20
  311.732
 30
    0.000
 11
 1426.969
 21
  311.732
 31
    0.000
 12
 1426.969
 22
  311.732
 32
  180.315
 13
 1426.969
 23
  311.732
 33
  180.315
 70
 12
  0
3DFACE
  8
Framed_openings
 39
    0.000
 62
1
 10
 1419.094
 20
  311.732
 30
    0.000
 11
 1426.969
 21
  311.732
 31
  180.315
 12
 1419.094
 22
  311.732
 32
  180.315
 13
 1419.094
 23
  311.732
 33
  180.315
 70
  5
999
END:     AREA=Draw Framed Openings
999
START:   AREA=Draw Walk Doors
999
END:     AREA=Draw Walk Doors
999
START:   AREA=Draw Roof Extensions
999
START:   AREA=Draw Canopies
  0
3DFACE
  8
Roof_surface
 39
    0.000
 62
3
 10
 1427.953
 20
    0.000
 30
  224.409
 11
 1506.693
 21
    0.000
 31
  216.535
 12
 1506.693
 22
  442.323
 32
  216.535
 13
 1506.693
 23
  442.323
 33
  216.535
 70
 12
  0
3DFACE
  8
Roof_surface
 39
    0.000
 62
3
 10
 1427.953
 20
    0.000
 30
  224.409
 11
 1506.693
 21
  442.323
 31
  216.535
 12
 1427.953
 22
  442.323
 32
  224.409
 13
 1427.953
 23
  442.323
 33
  224.409
 70
  5
  0
3DFACE
  8
Roof_purlins
 39
    0.000
 62
4
 10
 1439.705
 20
    0.000
 30
  222.234
 11
 1438.922
 21
    0.000
 31
  214.399
 12
 1438.922
 22
  442.323
 32
  214.399
 13
 1438.922
 23
  442.323
 33
  214.399
 70
 12
  0
3DFACE
  8
Roof_purlins
 39
    0.000
 62
4
 10
 1439.705
 20
    0.000
 30
  222.234
 11
 1438.922
 21
  442.323
 31
  214.399
 12
 1439.705
 22
  442.323
 32
  222.234
 13
 1439.705
 23
  442.323
 33
  222.234
 70
  5
  0
3DFACE
  8
Roof_purlins
 39
    0.000
 62
4
 10
 1473.199
 20
    0.000
 30
  218.885
 11
 1472.416
 21
    0.000
 31
  211.050
 12
 1472.416
 22
  442.323
 32
  211.050
 13
 1472.416
 23
  442.323
 33
  211.050
 70
 12
  0
3DFACE
  8
Roof_purlins
 39
    0.000
 62
4
 10
 1473.199
 20
    0.000
 30
  218.885
 11
 1472.416
 21
  442.323
 31
  211.050
 12
 1473.199
 22
  442.323
 32
  218.885
 13
 1473.199
 23
  442.323
 33
  218.885
 70
  5
  0
3DFACE
  8
Roof_purlins
 39
    0.000
 62
4
 10
 1506.693
 20
    0.000
 30
  215.535
 11
 1505.909
 21
    0.000
 31
  207.700
 12
 1505.909
 22
  442.323
 32
  207.700
 13
 1505.909
 23
  442.323
 33
  207.700
 70
 12
  0
3DFACE
  8
Roof_purlins
 39
    0.000
 62
4
 10
 1506.693
 20
    0.000
 30
  215.535
 11
 1505.909
 21
  442.323
 31
  207.700
 12
 1506.693
 22
  442.323
 32
  215.535
 13
 1506.693
 23
  442.323
 33
  215.535
 70
  5
  0
3DFACE
  8
Wall_Framing
 39
    0.000
 62
1
 10
 1419.079
 20
    0.000
 30
  215.535
 11
 1419.079
 21
    0.000
 31
  199.929
 12
 1506.693
 22
    0.000
 32
  199.929
 13
 1506.693
 23
    0.000
 33
  199.929
 70
 12
  0
3DFACE
  8
Wall_Framing
 39
    0.000
 62
1
 10
 1419.079
 20
    0.000
 30
  215.535
 11
 1506.693
 21
    0.000
 31
  199.929
 12
 1506.693
 22
    0.000
 32
  207.661
 13
 1506.693
 23
    0.000
 33
  207.661
 70
  5
  0
3DFACE
  8
Wall_Framing
 39
    0.000
 62
1
 10
 1419.079
 20
  442.323
 30
  215.535
 11
 1419.079
 21
  442.323
 31
  199.929
 12
 1506.693
 22
  442.323
 32
  199.929
 13
 1506.693
 23
  442.323
 33
  199.929
 70
 12
  0
3DFACE
  8
Wall_Framing
 39
    0.000
 62
1
 10
 1419.079
 20
  442.323
 30
  215.535
 11
 1506.693
 21
  442.323
 31
  199.929
 12
 1506.693
 22
  442.323
 32
  207.661
 13
 1506.693
 23
  442.323
 33
  207.661
 70
  5
999
END:     AREA=Draw Canopies
999
START:   AREA=Draw Light Panels
999
END:     AREA=Draw Light Panels
999
START:   AREA=Draw Wind Bents/Columns
999
END:     AREA=Draw Wind Bents/Columns
999
START:   AREA=Draw Partition Walls
999
END:     AREA=Draw Partition Walls
999
START:   AREA=Draw Floor Sections
999
END:     AREA=Draw Floor Sections
999
START:   AREA=Draw Facia
999
END:     AREA=Draw Facia
999
START:   AREA=Draw Girts
  0
3DFACE
  8
Wall_girts
 39
    0.000
 62
5
 10
    8.858
 20
  875.787
 30
  101.575
 11
    0.984
 21
  875.787
 31
  101.575
 12
    0.984
 22
  442.323
 32
  101.575
 13
    0.984
 23
  442.323
 33
  101.575
 70
 12
  0
3DFACE
  8
Wall_girts
 39
    0.000
 62
5
 10
    8.858
 20
  875.787
 30
  101.575
 11
    0.984
 21
  442.323
 31
  101.575
 12
    8.858
 22
  442.323
 32
  101.575
 13
    8.858
 23
  442.323
 33
  101.575
 70
  5
  0
3DFACE
  8
Wall_girts
 39
    0.000
 62
5
 10
    8.858
 20
  875.787
 30
  140.945
 11
    0.984
 21
  875.787
 31
  140.945
 12
    0.984
 22
  442.323
 32
  140.945
 13
    0.984
 23
  442.323
 33
  140.945
 70
 12
  0
3DFACE
  8
Wall_girts
 39
    0.000
 62
5
 10
    8.858
 20
  875.787
 30
  140.945
 11
    0.984
 21
  442.323
 31
  140.945
 12
    8.858
 22
  442.323
 32
  140.945
 13
    8.858
 23
  442.323
 33
  140.945
 70
  5
  0
3DFACE
  8
Wall_girts
 39
    0.000
 62
5
 10
    8.858
 20
  875.787
 30
  180.315
 11
    0.984
 21
  875.787
 31
  180.315
 12
    0.984
 22
  442.323
 32
  180.315
 13
    0.984
 23
  442.323
 33
  180.315
 70
 12
  0
3DFACE
  8
Wall_girts
 39
    0.000
 62
5
 10
    8.858
 20
  875.787
 30
  180.315
 11
    0.984
 21
  442.323
 31
  180.315
 12
    8.858
 22
  442.323
 32
  180.315
 13
    8.858
 23
  442.323
 33
  180.315
 70
  5
  0
3DFACE
  8
Wall_girts
 39
    0.000
 62
5
 10
    8.858
 20
  875.787
 30
  219.685
 11
    0.984
 21
  875.787
 31
  219.685
 12
    0.984
 22
  442.323
 32
  219.685
 13
    0.984
 23
  442.323
 33
  219.685
 70
 12
  0
3DFACE
  8
Wall_girts
 39
    0.000
 62
5
 10
    8.858
 20
  875.787
 30
  219.685
 11
    0.984
 21
  442.323
 31
  219.685
 12
    8.858
 22
  442.323
 32
  219.685
 13
    8.858
 23
  442.323
 33
  219.685
 70
  5
  0
3DFACE
  8
Wall_girts
 39
    0.000
 62
5
 10
    8.858
 20
  875.787
 30
  259.055
 11
    0.984
 21
  875.787
 31
  259.055
 12
    0.984
 22
  442.323
 32
  259.055
 13
    0.984
 23
  442.323
 33
  259.055
 70
 12
  0
3DFACE
  8
Wall_girts
 39
    0.000
 62
5
 10
    8.858
 20
  875.787
 30
  259.055
 11
    0.984
 21
  442.323
 31
  259.055
 12
    8.858
 22
  442.323
 32
  259.055
 13
    8.858
 23
  442.323
 33
  259.055
 70
  5
  0
3DFACE
  8
Wall_girts
 39
    0.000
 62
5
 10
    8.858
 20
  875.787
 30
  298.425
 11
    0.984
 21
  875.787
 31
  298.425
 12
    0.984
 22
  442.323
 32
  298.425
 13
    0.984
 23
  442.323
 33
  298.425
 70
 12
  0
3DFACE
  8
Wall_girts
 39
    0.000
 62
5
 10
    8.858
 20
  875.787
 30
  298.425
 11
    0.984
 21
  442.323
 31
  298.425
 12
    8.858
 22
  442.323
 32
  298.425
 13
    8.858
 23
  442.323
 33
  298.425
 70
  5
  0
3DFACE
  8
Wall_girts
 39
    0.000
 62
5
 10
    8.858
 20
  714.245
 30
  329.921
 11
    0.984
 21
  714.245
 31
  329.921
 12
    0.984
 22
  442.323
 32
  329.921
 13
    0.984
 23
  442.323
 33
  329.921
 70
 12
  0
3DFACE
  8
Wall_girts
 39
    0.000
 62
5
 10
    8.858
 20
  714.245
 30
  329.921
 11
    0.984
 21
  442.323
 31
  329.921
 12
    8.858
 22
  442.323
 32
  329.921
 13
    8.858
 23
  442.323
 33
  329.921
 70
  5
  0
3DFACE
  8
Wall_girts
 39
    0.000
 62
5
 10
    8.858
 20
  442.323
 30
  101.575
 11
    0.984
 21
  442.323
 31
  101.575
 12
    0.984
 22
    8.858
 32
  101.575
 13
    0.984
 23
    8.858
 33
  101.575
 70
 12
  0
3DFACE
  8
Wall_girts
 39
    0.000
 62
5
 10
    8.858
 20
  442.323
 30
  101.575
 11
    0.984
 21
    8.858
 31
  101.575
 12
    8.858
 22
    8.858
 32
  101.575
 13
    8.858
 23
    8.858
 33
  101.575
 70
  5
  0
3DFACE
  8
Wall_girts
 39
    0.000
 62
5
 10
    8.858
 20
  442.323
 30
  140.945
 11
    0.984
 21
  442.323
 31
  140.945
 12
    0.984
 22
    8.858
 32
  140.945
 13
    0.984
 23
    8.858
 33
  140.945
 70
 12
  0
3DFACE
  8
Wall_girts
 39
    0.000
 62
5
 10
    8.858
 20
  442.323
 30
  140.945
 11
    0.984
 21
    8.858
 31
  140.945
 12
    8.858
 22
    8.858
 32
  140.945
 13
    8.858
 23
    8.858
 33
  140.945
 70
  5
  0
3DFACE
  8
Wall_girts
 39
    0.000
 62
5
 10
    8.858
 20
  442.323
 30
  180.315
 11
    0.984
 21
  442.323
 31
  180.315
 12
    0.984
 22
    8.858
 32
  180.315
 13
    0.984
 23
    8.858
 33
  180.315
 70
 12
  0
3DFACE
  8
Wall_girts
 39
    0.000
 62
5
 10
    8.858
 20
  442.323
 30
  180.315
 11
    0.984
 21
    8.858
 31
  180.315
 12
    8.858
 22
    8.858
 32
  180.315
 13
    8.858
 23
    8.858
 33
  180.315
 70
  5
  0
3DFACE
  8
Wall_girts
 39
    0.000
 62
5
 10
    8.858
 20
  442.323
 30
  219.685
 11
    0.984
 21
  442.323
 31
  219.685
 12
    0.984
 22
    8.858
 32
  219.685
 13
    0.984
 23
    8.858
 33
  219.685
 70
 12
  0
3DFACE
  8
Wall_girts
 39
    0.000
 62
5
 10
    8.858
 20
  442.323
 30
  219.685
 11
    0.984
 21
    8.858
 31
  219.685
 12
    8.858
 22
    8.858
 32
  219.685
 13
    8.858
 23
    8.858
 33
  219.685
 70
  5
  0
3DFACE
  8
Wall_girts
 39
    0.000
 62
5
 10
    8.858
 20
  442.323
 30
  259.055
 11
    0.984
 21
  442.323
 31
  259.055
 12
    0.984
 22
    8.858
 32
  259.055
 13
    0.984
 23
    8.858
 33
  259.055
 70
 12
  0
3DFACE
  8
Wall_girts
 39
    0.000
 62
5
 10
    8.858
 20
  442.323
 30
  259.055
 11
    0.984
 21
    8.858
 31
  259.055
 12
    8.858
 22
    8.858
 32
  259.055
 13
    8.858
 23
    8.858
 33
  259.055
 70
  5
  0
3DFACE
  8
Wall_girts
 39
    0.000
 62
5
 10
    8.858
 20
  442.323
 30
  298.425
 11
    0.984
 21
  442.323
 31
  298.425
 12
    0.984
 22
    8.858
 32
  298.425
 13
    0.984
 23
    8.858
 33
  298.425
 70
 12
  0
3DFACE
  8
Wall_girts
 39
    0.000
 62
5
 10
    8.858
 20
  442.323
 30
  298.425
 11
    0.984
 21
    8.858
 31
  298.425
 12
    8.858
 22
    8.858
 32
  298.425
 13
    8.858
 23
    8.858
 33
  298.425
 70
  5
  0
3DFACE
  8
Wall_girts
 39
    0.000
 62
5
 10
    8.858
 20
  442.323
 30
  329.921
 11
    0.984
 21
  442.323
 31
  329.921
 12
    0.984
 22
  162.113
 32
  329.921
 13
    0.984
 23
  162.113
 33
  329.921
 70
 12
  0
3DFACE
  8
Wall_girts
 39
    0.000
 62
5
 10
    8.858
 20
  442.323
 30
  329.921
 11
    0.984
 21
  162.113
 31
  329.921
 12
    8.858
 22
  162.113
 32
  329.921
 13
    8.858
 23
  162.113
 33
  329.921
 70
  5
  0
3DFACE
  8
Wall_girts
 39
    0.000
 62
5
 10
    0.984
 20
    8.858
 30
  101.575
 11
    0.984
 21
    0.984
 31
  101.575
 12
  244.094
 22
    0.984
 32
  101.575
 13
  244.094
 23
    0.984
 33
  101.575
 70
 12
  0
3DFACE
  8
Wall_girts
 39
    0.000
 62
5
 10
    0.984
 20
    8.858
 30
  101.575
 11
  244.094
 21
    0.984
 31
  101.575
 12
  244.094
 22
    8.858
 32
  101.575
 13
  244.094
 23
    8.858
 33
  101.575
 70
  5
  0
3DFACE
  8
Wall_girts
 39
    0.000
 62
5
 10
    0.984
 20
    8.858
 30
  160.630
 11
    0.984
 21
    0.984
 31
  160.630
 12
  244.094
 22
    0.984
 32
  160.630
 13
  244.094
 23
    0.984
 33
  160.630
 70
 12
  0
3DFACE
  8
Wall_girts
 39
    0.000
 62
5
 10
    0.984
 20
    8.858
 30
  160.630
 11
  244.094
 21
    0.984
 31
  160.630
 12
  244.094
 22
    8.858
 32
  160.630
 13
  244.094
 23
    8.858
 33
  160.630
 70
  5
  0
3DFACE
  8
Wall_girts
 39
    0.000
 62
5
 10
    0.984
 20
    8.858
 30
  219.685
 11
    0.984
 21
    0.984
 31
  219.685
 12
  244.094
 22
    0.984
 32
  219.685
 13
  244.094
 23
    0.984
 33
  219.685
 70
 12
  0
3DFACE
  8
Wall_girts
 39
    0.000
 62
5
 10
    0.984
 20
    8.858
 30
  219.685
 11
  244.094
 21
    0.984
 31
  219.685
 12
  244.094
 22
    8.858
 32
  219.685
 13
  244.094
 23
    8.858
 33
  219.685
 70
  5
  0
3DFACE
  8
Wall_girts
 39
    0.000
 62
5
 10
    0.984
 20
    8.858
 30
  278.740
 11
    0.984
 21
    0.984
 31
  278.740
 12
  244.094
 22
    0.984
 32
  278.740
 13
  244.094
 23
    0.984
 33
  278.740
 70
 12
  0
3DFACE
  8
Wall_girts
 39
    0.000
 62
5
 10
    0.984
 20
    8.858
 30
  278.740
 11
  244.094
 21
    0.984
 31
  278.740
 12
  244.094
 22
    8.858
 32
  278.740
 13
  244.094
 23
    8.858
 33
  278.740
 70
  5
  0
3DFACE
  8
Wall_girts
 39
    0.000
 62
5
 10
  244.094
 20
    8.858
 30
  101.575
 11
  244.094
 21
    0.984
 31
  101.575
 12
  479.921
 22
    0.984
 32
  101.575
 13
  479.921
 23
    0.984
 33
  101.575
 70
 12
  0
3DFACE
  8
Wall_girts
 39
    0.000
 62
5
 10
  244.094
 20
    8.858
 30
  101.575
 11
  479.921
 21
    0.984
 31
  101.575
 12
  479.921
 22
    8.858
 32
  101.575
 13
  479.921
 23
    8.858
 33
  101.575
 70
  5
  0
3DFACE
  8
Wall_girts
 39
    0.000
 62
5
 10
  244.094
 20
    8.858
 30
  160.630
 11
  244.094
 21
    0.984
 31
  160.630
 12
  479.921
 22
    0.984
 32
  160.630
 13
  479.921
 23
    0.984
 33
  160.630
 70
 12
  0
3DFACE
  8
Wall_girts
 39
    0.000
 62
5
 10
  244.094
 20
    8.858
 30
  160.630
 11
  479.921
 21
    0.984
 31
  160.630
 12
  479.921
 22
    8.858
 32
  160.630
 13
  479.921
 23
    8.858
 33
  160.630
 70
  5
  0
3DFACE
  8
Wall_girts
 39
    0.000
 62
5
 10
  244.094
 20
    8.858
 30
  219.685
 11
  244.094
 21
    0.984
 31
  219.685
 12
  479.921
 22
    0.984
 32
  219.685
 13
  479.921
 23
    0.984
 33
  219.685
 70
 12
  0
3DFACE
  8
Wall_girts
 39
    0.000
 62
5
 10
  244.094
 20
    8.858
 30
  219.685
 11
  479.921
 21
    0.984
 31
  219.685
 12
  479.921
 22
    8.858
 32
  219.685
 13
  479.921
 23
    8.858
 33
  219.685
 70
  5
  0
3DFACE
  8
Wall_girts
 39
    0.000
 62
5
 10
  244.094
 20
    8.858
 30
  278.740
 11
  244.094
 21
    0.984
 31
  278.740
 12
  479.921
 22
    0.984
 32
  278.740
 13
  479.921
 23
    0.984
 33
  278.740
 70
 12
  0
3DFACE
  8
Wall_girts
 39
    0.000
 62
5
 10
  244.094
 20
    8.858
 30
  278.740
 11
  479.921
 21
    0.984
 31
  278.740
 12
  479.921
 22
    8.858
 32
  278.740
 13
  479.921
 23
    8.858
 33
  278.740
 70
  5
  0
3DFACE
  8
Wall_girts
 39
    0.000
 62
5
 10
  479.921
 20
    8.858
 30
  101.575
 11
  479.921
 21
    0.984
 31
  101.575
 12
  705.512
 22
    0.984
 32
  101.575
 13
  705.512
 23
    0.984
 33
  101.575
 70
 12
  0
3DFACE
  8
Wall_girts
 39
    0.000
 62
5
 10
  479.921
 20
    8.858
 30
  101.575
 11
  705.512
 21
    0.984
 31
  101.575
 12
  705.512
 22
    8.858
 32
  101.575
 13
  705.512
 23
    8.858
 33
  101.575
 70
  5
  0
3DFACE
  8
Wall_girts
 39
    0.000
 62
5
 10
  479.921
 20
    8.858
 30
  160.630
 11
  479.921
 21
    0.984
 31
  160.630
 12
  705.512
 22
    0.984
 32
  160.630
 13
  705.512
 23
    0.984
 33
  160.630
 70
 12
  0
3DFACE
  8
Wall_girts
 39
    0.000
 62
5
 10
  479.921
 20
    8.858
 30
  160.630
 11
  705.512
 21
    0.984
 31
  160.630
 12
  705.512
 22
    8.858
 32
  160.630
 13
  705.512
 23
    8.858
 33
  160.630
 70
  5
  0
3DFACE
  8
Wall_girts
 39
    0.000
 62
5
 10
  479.921
 20
    8.858
 30
  219.685
 11
  479.921
 21
    0.984
 31
  219.685
 12
  705.512
 22
    0.984
 32
  219.685
 13
  705.512
 23
    0.984
 33
  219.685
 70
 12
  0
3DFACE
  8
Wall_girts
 39
    0.000
 62
5
 10
  479.921
 20
    8.858
 30
  219.685
 11
  705.512
 21
    0.984
 31
  219.685
 12
  705.512
 22
    8.858
 32
  219.685
 13
  705.512
 23
    8.858
 33
  219.685
 70
  5
  0
3DFACE
  8
Wall_girts
 39
    0.000
 62
5
 10
  479.921
 20
    8.858
 30
  278.740
 11
  479.921
 21
    0.984
 31
  278.740
 12
  705.512
 22
    0.984
 32
  278.740
 13
  705.512
 23
    0.984
 33
  278.740
 70
 12
  0
3DFACE
  8
Wall_girts
 39
    0.000
 62
5
 10
  479.921
 20
    8.858
 30
  278.740
 11
  705.512
 21
    0.984
 31
  278.740
 12
  705.512
 22
    8.858
 32
  278.740
 13
  705.512
 23
    8.858
 33
  278.740
 70
  5
  0
3DFACE
  8
Wall_girts
 39
    0.000
 62
5
 10
  705.512
 20
    8.858
 30
  101.575
 11
  705.512
 21
    0.984
 31
  101.575
 12
  950.787
 22
    0.984
 32
  101.575
 13
  950.787
 23
    0.984
 33
  101.575
 70
 12
  0
3DFACE
  8
Wall_girts
 39
    0.000
 62
5
 10
  705.512
 20
    8.858
 30
  101.575
 11
  950.787
 21
    0.984
 31
  101.575
 12
  950.787
 22
    8.858
 32
  101.575
 13
  950.787
 23
    8.858
 33
  101.575
 70
  5
  0
3DFACE
  8
Wall_girts
 39
    0.000
 62
5
 10
  705.512
 20
    8.858
 30
  160.630
 11
  705.512
 21
    0.984
 31
  160.630
 12
  950.787
 22
    0.984
 32
  160.630
 13
  950.787
 23
    0.984
 33
  160.630
 70
 12
  0
3DFACE
  8
Wall_girts
 39
    0.000
 62
5
 10
  705.512
 20
    8.858
 30
  160.630
 11
  950.787
 21
    0.984
 31
  160.630
 12
  950.787
 22
    8.858
 32
  160.630
 13
  950.787
 23
    8.858
 33
  160.630
 70
  5
  0
3DFACE
  8
Wall_girts
 39
    0.000
 62
5
 10
  705.512
 20
    8.858
 30
  219.685
 11
  705.512
 21
    0.984
 31
  219.685
 12
  950.787
 22
    0.984
 32
  219.685
 13
  950.787
 23
    0.984
 33
  219.685
 70
 12
  0
3DFACE
  8
Wall_girts
 39
    0.000
 62
5
 10
  705.512
 20
    8.858
 30
  219.685
 11
  950.787
 21
    0.984
 31
  219.685
 12
  950.787
 22
    8.858
 32
  219.685
 13
  950.787
 23
    8.858
 33
  219.685
 70
  5
  0
3DFACE
  8
Wall_girts
 39
    0.000
 62
5
 10
  705.512
 20
    8.858
 30
  278.740
 11
  705.512
 21
    0.984
 31
  278.740
 12
  950.787
 22
    0.984
 32
  278.740
 13
  950.787
 23
    0.984
 33
  278.740
 70
 12
  0
3DFACE
  8
Wall_girts
 39
    0.000
 62
5
 10
  705.512
 20
    8.858
 30
  278.740
 11
  950.787
 21
    0.984
 31
  278.740
 12
  950.787
 22
    8.858
 32
  278.740
 13
  950.787
 23
    8.858
 33
  278.740
 70
  5
  0
3DFACE
  8
Wall_girts
 39
    0.000
 62
5
 10
  950.787
 20
    8.858
 30
  101.575
 11
  950.787
 21
    0.984
 31
  101.575
 12
 1181.890
 22
    0.984
 32
  101.575
 13
 1181.890
 23
    0.984
 33
  101.575
 70
 12
  0
3DFACE
  8
Wall_girts
 39
    0.000
 62
5
 10
  950.787
 20
    8.858
 30
  101.575
 11
 1181.890
 21
    0.984
 31
  101.575
 12
 1181.890
 22
    8.858
 32
  101.575
 13
 1181.890
 23
    8.858
 33
  101.575
 70
  5
  0
3DFACE
  8
Wall_girts
 39
    0.000
 62
5
 10
  950.787
 20
    8.858
 30
  160.630
 11
  950.787
 21
    0.984
 31
  160.630
 12
 1181.890
 22
    0.984
 32
  160.630
 13
 1181.890
 23
    0.984
 33
  160.630
 70
 12
  0
3DFACE
  8
Wall_girts
 39
    0.000
 62
5
 10
  950.787
 20
    8.858
 30
  160.630
 11
 1181.890
 21
    0.984
 31
  160.630
 12
 1181.890
 22
    8.858
 32
  160.630
 13
 1181.890
 23
    8.858
 33
  160.630
 70
  5
  0
3DFACE
  8
Wall_girts
 39
    0.000
 62
5
 10
  950.787
 20
    8.858
 30
  219.685
 11
  950.787
 21
    0.984
 31
  219.685
 12
 1181.890
 22
    0.984
 32
  219.685
 13
 1181.890
 23
    0.984
 33
  219.685
 70
 12
  0
3DFACE
  8
Wall_girts
 39
    0.000
 62
5
 10
  950.787
 20
    8.858
 30
  219.685
 11
 1181.890
 21
    0.984
 31
  219.685
 12
 1181.890
 22
    8.858
 32
  219.685
 13
 1181.890
 23
    8.858
 33
  219.685
 70
  5
  0
3DFACE
  8
Wall_girts
 39
    0.000
 62
5
 10
  950.787
 20
    8.858
 30
  278.740
 11
  950.787
 21
    0.984
 31
  278.740
 12
 1181.890
 22
    0.984
 32
  278.740
 13
 1181.890
 23
    0.984
 33
  278.740
 70
 12
  0
3DFACE
  8
Wall_girts
 39
    0.000
 62
5
 10
  950.787
 20
    8.858
 30
  278.740
 11
 1181.890
 21
    0.984
 31
  278.740
 12
 1181.890
 22
    8.858
 32
  278.740
 13
 1181.890
 23
    8.858
 33
  278.740
 70
  5
  0
3DFACE
  8
Wall_girts
 39
    0.000
 62
5
 10
 1181.890
 20
    8.858
 30
  101.575
 11
 1181.890
 21
    0.984
 31
  101.575
 12
 1426.969
 22
    0.984
 32
  101.575
 13
 1426.969
 23
    0.984
 33
  101.575
 70
 12
  0
3DFACE
  8
Wall_girts
 39
    0.000
 62
5
 10
 1181.890
 20
    8.858
 30
  101.575
 11
 1426.969
 21
    0.984
 31
  101.575
 12
 1426.969
 22
    8.858
 32
  101.575
 13
 1426.969
 23
    8.858
 33
  101.575
 70
  5
  0
3DFACE
  8
Wall_girts
 39
    0.000
 62
5
 10
 1181.890
 20
    8.858
 30
  160.630
 11
 1181.890
 21
    0.984
 31
  160.630
 12
 1426.969
 22
    0.984
 32
  160.630
 13
 1426.969
 23
    0.984
 33
  160.630
 70
 12
  0
3DFACE
  8
Wall_girts
 39
    0.000
 62
5
 10
 1181.890
 20
    8.858
 30
  160.630
 11
 1426.969
 21
    0.984
 31
  160.630
 12
 1426.969
 22
    8.858
 32
  160.630
 13
 1426.969
 23
    8.858
 33
  160.630
 70
  5
  0
3DFACE
  8
Wall_girts
 39
    0.000
 62
5
 10
 1181.890
 20
    8.858
 30
  219.685
 11
 1181.890
 21
    0.984
 31
  219.685
 12
 1426.969
 22
    0.984
 32
  219.685
 13
 1426.969
 23
    0.984
 33
  219.685
 70
 12
  0
3DFACE
  8
Wall_girts
 39
    0.000
 62
5
 10
 1181.890
 20
    8.858
 30
  219.685
 11
 1426.969
 21
    0.984
 31
  219.685
 12
 1426.969
 22
    8.858
 32
  219.685
 13
 1426.969
 23
    8.858
 33
  219.685
 70
  5
  0
3DFACE
  8
Wall_girts
 39
    0.000
 62
5
 10
 1181.890
 20
    8.858
 30
  278.740
 11
 1181.890
 21
    0.984
 31
  278.740
 12
 1426.969
 22
    0.984
 32
  278.740
 13
 1426.969
 23
    0.984
 33
  278.740
 70
 12
  0
3DFACE
  8
Wall_girts
 39
    0.000
 62
5
 10
 1181.890
 20
    8.858
 30
  278.740
 11
 1426.969
 21
    0.984
 31
  278.740
 12
 1426.969
 22
    8.858
 32
  278.740
 13
 1426.969
 23
    8.858
 33
  278.740
 70
  5
  0
3DFACE
  8
Wall_girts
 39
    0.000
 62
5
 10
 1419.094
 20
    8.858
 30
  101.575
 11
 1426.969
 21
    8.858
 31
  101.575
 12
 1426.969
 22
  134.567
 32
  101.575
 13
 1426.969
 23
  134.567
 33
  101.575
 70
 12
  0
3DFACE
  8
Wall_girts
 39
    0.000
 62
5
 10
 1419.094
 20
    8.858
 30
  101.575
 11
 1426.969
 21
  134.567
 31
  101.575
 12
 1419.094
 22
  134.567
 32
  101.575
 13
 1419.094
 23
  134.567
 33
  101.575
 70
  5
  0
3DFACE
  8
Wall_girts
 39
    0.000
 62
5
 10
 1419.094
 20
    8.858
 30
  140.945
 11
 1426.969
 21
    8.858
 31
  140.945
 12
 1426.969
 22
  134.567
 32
  140.945
 13
 1426.969
 23
  134.567
 33
  140.945
 70
 12
  0
3DFACE
  8
Wall_girts
 39
    0.000
 62
5
 10
 1419.094
 20
    8.858
 30
  140.945
 11
 1426.969
 21
  134.567
 31
  140.945
 12
 1419.094
 22
  134.567
 32
  140.945
 13
 1419.094
 23
  134.567
 33
  140.945
 70
  5
  0
3DFACE
  8
Wall_girts
 39
    0.000
 62
5
 10
 1419.094
 20
    8.858
 30
  180.315
 11
 1426.969
 21
    8.858
 31
  180.315
 12
 1426.969
 22
  442.323
 32
  180.315
 13
 1426.969
 23
  442.323
 33
  180.315
 70
 12
  0
3DFACE
  8
Wall_girts
 39
    0.000
 62
5
 10
 1419.094
 20
    8.858
 30
  180.315
 11
 1426.969
 21
  442.323
 31
  180.315
 12
 1419.094
 22
  442.323
 32
  180.315
 13
 1419.094
 23
  442.323
 33
  180.315
 70
  5
  0
3DFACE
  8
Wall_girts
 39
    0.000
 62
5
 10
 1419.094
 20
    8.858
 30
  227.559
 11
 1426.969
 21
    8.858
 31
  227.559
 12
 1426.969
 22
  442.323
 32
  227.559
 13
 1426.969
 23
  442.323
 33
  227.559
 70
 12
  0
3DFACE
  8
Wall_girts
 39
    0.000
 62
5
 10
 1419.094
 20
    8.858
 30
  227.559
 11
 1426.969
 21
  442.323
 31
  227.559
 12
 1419.094
 22
  442.323
 32
  227.559
 13
 1419.094
 23
  442.323
 33
  227.559
 70
  5
  0
3DFACE
  8
Wall_girts
 39
    0.000
 62
5
 10
 1419.094
 20
    8.858
 30
  259.055
 11
 1426.969
 21
    8.858
 31
  259.055
 12
 1426.969
 22
  442.323
 32
  259.055
 13
 1426.969
 23
  442.323
 33
  259.055
 70
 12
  0
3DFACE
  8
Wall_girts
 39
    0.000
 62
5
 10
 1419.094
 20
    8.858
 30
  259.055
 11
 1426.969
 21
  442.323
 31
  259.055
 12
 1419.094
 22
  442.323
 32
  259.055
 13
 1419.094
 23
  442.323
 33
  259.055
 70
  5
  0
3DFACE
  8
Wall_girts
 39
    0.000
 62
5
 10
 1419.094
 20
    8.858
 30
  298.425
 11
 1426.969
 21
    8.858
 31
  298.425
 12
 1426.969
 22
  442.323
 32
  298.425
 13
 1426.969
 23
  442.323
 33
  298.425
 70
 12
  0
3DFACE
  8
Wall_girts
 39
    0.000
 62
5
 10
 1419.094
 20
    8.858
 30
  298.425
 11
 1426.969
 21
  442.323
 31
  298.425
 12
 1419.094
 22
  442.323
 32
  298.425
 13
 1419.094
 23
  442.323
 33
  298.425
 70
  5
  0
3DFACE
  8
Wall_girts
 39
    0.000
 62
5
 10
 1419.094
 20
  162.113
 30
  329.921
 11
 1426.969
 21
  162.113
 31
  329.921
 12
 1426.969
 22
  442.323
 32
  329.921
 13
 1426.969
 23
  442.323
 33
  329.921
 70
 12
  0
3DFACE
  8
Wall_girts
 39
    0.000
 62
5
 10
 1419.094
 20
  162.113
 30
  329.921
 11
 1426.969
 21
  442.323
 31
  329.921
 12
 1419.094
 22
  442.323
 32
  329.921
 13
 1419.094
 23
  442.323
 33
  329.921
 70
  5
  0
3DFACE
  8
Wall_girts
 39
    0.000
 62
5
 10
 1419.094
 20
  311.732
 30
  101.575
 11
 1426.969
 21
  311.732
 31
  101.575
 12
 1426.969
 22
  442.323
 32
  101.575
 13
 1426.969
 23
  442.323
 33
  101.575
 70
 12
  0
3DFACE
  8
Wall_girts
 39
    0.000
 62
5
 10
 1419.094
 20
  311.732
 30
  101.575
 11
 1426.969
 21
  442.323
 31
  101.575
 12
 1419.094
 22
  442.323
 32
  101.575
 13
 1419.094
 23
  442.323
 33
  101.575
 70
  5
  0
3DFACE
  8
Wall_girts
 39
    0.000
 62
5
 10
 1419.094
 20
  311.732
 30
  140.945
 11
 1426.969
 21
  311.732
 31
  140.945
 12
 1426.969
 22
  442.323
 32
  140.945
 13
 1426.969
 23
  442.323
 33
  140.945
 70
 12
  0
3DFACE
  8
Wall_girts
 39
    0.000
 62
5
 10
 1419.094
 20
  311.732
 30
  140.945
 11
 1426.969
 21
  442.323
 31
  140.945
 12
 1419.094
 22
  442.323
 32
  140.945
 13
 1419.094
 23
  442.323
 33
  140.945
 70
  5
  0
3DFACE
  8
Wall_girts
 39
    0.000
 62
5
 10
 1419.094
 20
  442.323
 30
  101.575
 11
 1426.969
 21
  442.323
 31
  101.575
 12
 1426.969
 22
  875.787
 32
  101.575
 13
 1426.969
 23
  875.787
 33
  101.575
 70
 12
  0
3DFACE
  8
Wall_girts
 39
    0.000
 62
5
 10
 1419.094
 20
  442.323
 30
  101.575
 11
 1426.969
 21
  875.787
 31
  101.575
 12
 1419.094
 22
  875.787
 32
  101.575
 13
 1419.094
 23
  875.787
 33
  101.575
 70
  5
  0
3DFACE
  8
Wall_girts
 39
    0.000
 62
5
 10
 1419.094
 20
  442.323
 30
  140.945
 11
 1426.969
 21
  442.323
 31
  140.945
 12
 1426.969
 22
  875.787
 32
  140.945
 13
 1426.969
 23
  875.787
 33
  140.945
 70
 12
  0
3DFACE
  8
Wall_girts
 39
    0.000
 62
5
 10
 1419.094
 20
  442.323
 30
  140.945
 11
 1426.969
 21
  875.787
 31
  140.945
 12
 1419.094
 22
  875.787
 32
  140.945
 13
 1419.094
 23
  875.787
 33
  140.945
 70
  5
  0
3DFACE
  8
Wall_girts
 39
    0.000
 62
5
 10
 1419.094
 20
  442.323
 30
  180.315
 11
 1426.969
 21
  442.323
 31
  180.315
 12
 1426.969
 22
  875.787
 32
  180.315
 13
 1426.969
 23
  875.787
 33
  180.315
 70
 12
  0
3DFACE
  8
Wall_girts
 39
    0.000
 62
5
 10
 1419.094
 20
  442.323
 30
  180.315
 11
 1426.969
 21
  875.787
 31
  180.315
 12
 1419.094
 22
  875.787
 32
  180.315
 13
 1419.094
 23
  875.787
 33
  180.315
 70
  5
  0
3DFACE
  8
Wall_girts
 39
    0.000
 62
5
 10
 1419.094
 20
  442.323
 30
  227.559
 11
 1426.969
 21
  442.323
 31
  227.559
 12
 1426.969
 22
  875.787
 32
  227.559
 13
 1426.969
 23
  875.787
 33
  227.559
 70
 12
  0
3DFACE
  8
Wall_girts
 39
    0.000
 62
5
 10
 1419.094
 20
  442.323
 30
  227.559
 11
 1426.969
 21
  875.787
 31
  227.559
 12
 1419.094
 22
  875.787
 32
  227.559
 13
 1419.094
 23
  875.787
 33
  227.559
 70
  5
  0
3DFACE
  8
Wall_girts
 39
    0.000
 62
5
 10
 1419.094
 20
  442.323
 30
  259.055
 11
 1426.969
 21
  442.323
 31
  259.055
 12
 1426.969
 22
  875.787
 32
  259.055
 13
 1426.969
 23
  875.787
 33
  259.055
 70
 12
  0
3DFACE
  8
Wall_girts
 39
    0.000
 62
5
 10
 1419.094
 20
  442.323
 30
  259.055
 11
 1426.969
 21
  875.787
 31
  259.055
 12
 1419.094
 22
  875.787
 32
  259.055
 13
 1419.094
 23
  875.787
 33
  259.055
 70
  5
  0
3DFACE
  8
Wall_girts
 39
    0.000
 62
5
 10
 1419.094
 20
  442.323
 30
  298.425
 11
 1426.969
 21
  442.323
 31
  298.425
 12
 1426.969
 22
  875.787
 32
  298.425
 13
 1426.969
 23
  875.787
 33
  298.425
 70
 12
  0
3DFACE
  8
Wall_girts
 39
    0.000
 62
5
 10
 1419.094
 20
  442.323
 30
  298.425
 11
 1426.969
 21
  875.787
 31
  298.425
 12
 1419.094
 22
  875.787
 32
  298.425
 13
 1419.094
 23
  875.787
 33
  298.425
 70
  5
  0
3DFACE
  8
Wall_girts
 39
    0.000
 62
5
 10
 1419.094
 20
  442.323
 30
  329.921
 11
 1426.969
 21
  442.323
 31
  329.921
 12
 1426.969
 22
  714.245
 32
  329.921
 13
 1426.969
 23
  714.245
 33
  329.921
 70
 12
  0
3DFACE
  8
Wall_girts
 39
    0.000
 62
5
 10
 1419.094
 20
  442.323
 30
  329.921
 11
 1426.969
 21
  714.245
 31
  329.921
 12
 1419.094
 22
  714.245
 32
  329.921
 13
 1419.094
 23
  714.245
 33
  329.921
 70
  5
  0
3DFACE
  8
Wall_girts
 39
    0.000
 62
5
 10
 1426.969
 20
  875.787
 30
  101.575
 11
 1426.969
 21
  883.661
 31
  101.575
 12
 1181.890
 22
  883.661
 32
  101.575
 13
 1181.890
 23
  883.661
 33
  101.575
 70
 12
  0
3DFACE
  8
Wall_girts
 39
    0.000
 62
5
 10
 1426.969
 20
  875.787
 30
  101.575
 11
 1181.890
 21
  883.661
 31
  101.575
 12
 1181.890
 22
  875.787
 32
  101.575
 13
 1181.890
 23
  875.787
 33
  101.575
 70
  5
  0
3DFACE
  8
Wall_girts
 39
    0.000
 62
5
 10
 1426.969
 20
  875.787
 30
  160.630
 11
 1426.969
 21
  883.661
 31
  160.630
 12
 1181.890
 22
  883.661
 32
  160.630
 13
 1181.890
 23
  883.661
 33
  160.630
 70
 12
  0
3DFACE
  8
Wall_girts
 39
    0.000
 62
5
 10
 1426.969
 20
  875.787
 30
  160.630
 11
 1181.890
 21
  883.661
 31
  160.630
 12
 1181.890
 22
  875.787
 32
  160.630
 13
 1181.890
 23
  875.787
 33
  160.630
 70
  5
  0
3DFACE
  8
Wall_girts
 39
    0.000
 62
5
 10
 1426.969
 20
  875.787
 30
  219.685
 11
 1426.969
 21
  883.661
 31
  219.685
 12
 1181.890
 22
  883.661
 32
  219.685
 13
 1181.890
 23
  883.661
 33
  219.685
 70
 12
  0
3DFACE
  8
Wall_girts
 39
    0.000
 62
5
 10
 1426.969
 20
  875.787
 30
  219.685
 11
 1181.890
 21
  883.661
 31
  219.685
 12
 1181.890
 22
  875.787
 32
  219.685
 13
 1181.890
 23
  875.787
 33
  219.685
 70
  5
  0
3DFACE
  8
Wall_girts
 39
    0.000
 62
5
 10
 1426.969
 20
  875.787
 30
  278.740
 11
 1426.969
 21
  883.661
 31
  278.740
 12
 1181.890
 22
  883.661
 32
  278.740
 13
 1181.890
 23
  883.661
 33
  278.740
 70
 12
  0
3DFACE
  8
Wall_girts
 39
    0.000
 62
5
 10
 1426.969
 20
  875.787
 30
  278.740
 11
 1181.890
 21
  883.661
 31
  278.740
 12
 1181.890
 22
  875.787
 32
  278.740
 13
 1181.890
 23
  875.787
 33
  278.740
 70
  5
  0
3DFACE
  8
Wall_girts
 39
    0.000
 62
5
 10
 1181.890
 20
  875.787
 30
  101.575
 11
 1181.890
 21
  883.661
 31
  101.575
 12
  950.787
 22
  883.661
 32
  101.575
 13
  950.787
 23
  883.661
 33
  101.575
 70
 12
  0
3DFACE
  8
Wall_girts
 39
    0.000
 62
5
 10
 1181.890
 20
  875.787
 30
  101.575
 11
  950.787
 21
  883.661
 31
  101.575
 12
  950.787
 22
  875.787
 32
  101.575
 13
  950.787
 23
  875.787
 33
  101.575
 70
  5
  0
3DFACE
  8
Wall_girts
 39
    0.000
 62
5
 10
 1181.890
 20
  875.787
 30
  160.630
 11
 1181.890
 21
  883.661
 31
  160.630
 12
  950.787
 22
  883.661
 32
  160.630
 13
  950.787
 23
  883.661
 33
  160.630
 70
 12
  0
3DFACE
  8
Wall_girts
 39
    0.000
 62
5
 10
 1181.890
 20
  875.787
 30
  160.630
 11
  950.787
 21
  883.661
 31
  160.630
 12
  950.787
 22
  875.787
 32
  160.630
 13
  950.787
 23
  875.787
 33
  160.630
 70
  5
  0
3DFACE
  8
Wall_girts
 39
    0.000
 62
5
 10
 1181.890
 20
  875.787
 30
  219.685
 11
 1181.890
 21
  883.661
 31
  219.685
 12
  950.787
 22
  883.661
 32
  219.685
 13
  950.787
 23
  883.661
 33
  219.685
 70
 12
  0
3DFACE
  8
Wall_girts
 39
    0.000
 62
5
 10
 1181.890
 20
  875.787
 30
  219.685
 11
  950.787
 21
  883.661
 31
  219.685
 12
  950.787
 22
  875.787
 32
  219.685
 13
  950.787
 23
  875.787
 33
  219.685
 70
  5
  0
3DFACE
  8
Wall_girts
 39
    0.000
 62
5
 10
 1181.890
 20
  875.787
 30
  278.740
 11
 1181.890
 21
  883.661
 31
  278.740
 12
  950.787
 22
  883.661
 32
  278.740
 13
  950.787
 23
  883.661
 33
  278.740
 70
 12
  0
3DFACE
  8
Wall_girts
 39
    0.000
 62
5
 10
 1181.890
 20
  875.787
 30
  278.740
 11
  950.787
 21
  883.661
 31
  278.740
 12
  950.787
 22
  875.787
 32
  278.740
 13
  950.787
 23
  875.787
 33
  278.740
 70
  5
  0
3DFACE
  8
Wall_girts
 39
    0.000
 62
5
 10
  950.787
 20
  875.787
 30
  101.575
 11
  950.787
 21
  883.661
 31
  101.575
 12
  705.512
 22
  883.661
 32
  101.575
 13
  705.512
 23
  883.661
 33
  101.575
 70
 12
  0
3DFACE
  8
Wall_girts
 39
    0.000
 62
5
 10
  950.787
 20
  875.787
 30
  101.575
 11
  705.512
 21
  883.661
 31
  101.575
 12
  705.512
 22
  875.787
 32
  101.575
 13
  705.512
 23
  875.787
 33
  101.575
 70
  5
  0
3DFACE
  8
Wall_girts
 39
    0.000
 62
5
 10
  950.787
 20
  875.787
 30
  160.630
 11
  950.787
 21
  883.661
 31
  160.630
 12
  705.512
 22
  883.661
 32
  160.630
 13
  705.512
 23
  883.661
 33
  160.630
 70
 12
  0
3DFACE
  8
Wall_girts
 39
    0.000
 62
5
 10
  950.787
 20
  875.787
 30
  160.630
 11
  705.512
 21
  883.661
 31
  160.630
 12
  705.512
 22
  875.787
 32
  160.630
 13
  705.512
 23
  875.787
 33
  160.630
 70
  5
  0
3DFACE
  8
Wall_girts
 39
    0.000
 62
5
 10
  950.787
 20
  875.787
 30
  219.685
 11
  950.787
 21
  883.661
 31
  219.685
 12
  705.512
 22
  883.661
 32
  219.685
 13
  705.512
 23
  883.661
 33
  219.685
 70
 12
  0
3DFACE
  8
Wall_girts
 39
    0.000
 62
5
 10
  950.787
 20
  875.787
 30
  219.685
 11
  705.512
 21
  883.661
 31
  219.685
 12
  705.512
 22
  875.787
 32
  219.685
 13
  705.512
 23
  875.787
 33
  219.685
 70
  5
  0
3DFACE
  8
Wall_girts
 39
    0.000
 62
5
 10
  950.787
 20
  875.787
 30
  278.740
 11
  950.787
 21
  883.661
 31
  278.740
 12
  705.512
 22
  883.661
 32
  278.740
 13
  705.512
 23
  883.661
 33
  278.740
 70
 12
  0
3DFACE
  8
Wall_girts
 39
    0.000
 62
5
 10
  950.787
 20
  875.787
 30
  278.740
 11
  705.512
 21
  883.661
 31
  278.740
 12
  705.512
 22
  875.787
 32
  278.740
 13
  705.512
 23
  875.787
 33
  278.740
 70
  5
  0
3DFACE
  8
Wall_girts
 39
    0.000
 62
5
 10
  705.512
 20
  875.787
 30
  101.575
 11
  705.512
 21
  883.661
 31
  101.575
 12
  479.921
 22
  883.661
 32
  101.575
 13
  479.921
 23
  883.661
 33
  101.575
 70
 12
  0
3DFACE
  8
Wall_girts
 39
    0.000
 62
5
 10
  705.512
 20
  875.787
 30
  101.575
 11
  479.921
 21
  883.661
 31
  101.575
 12
  479.921
 22
  875.787
 32
  101.575
 13
  479.921
 23
  875.787
 33
  101.575
 70
  5
  0
3DFACE
  8
Wall_girts
 39
    0.000
 62
5
 10
  705.512
 20
  875.787
 30
  160.630
 11
  705.512
 21
  883.661
 31
  160.630
 12
  479.921
 22
  883.661
 32
  160.630
 13
  479.921
 23
  883.661
 33
  160.630
 70
 12
  0
3DFACE
  8
Wall_girts
 39
    0.000
 62
5
 10
  705.512
 20
  875.787
 30
  160.630
 11
  479.921
 21
  883.661
 31
  160.630
 12
  479.921
 22
  875.787
 32
  160.630
 13
  479.921
 23
  875.787
 33
  160.630
 70
  5
  0
3DFACE
  8
Wall_girts
 39
    0.000
 62
5
 10
  705.512
 20
  875.787
 30
  219.685
 11
  705.512
 21
  883.661
 31
  219.685
 12
  479.921
 22
  883.661
 32
  219.685
 13
  479.921
 23
  883.661
 33
  219.685
 70
 12
  0
3DFACE
  8
Wall_girts
 39
    0.000
 62
5
 10
  705.512
 20
  875.787
 30
  219.685
 11
  479.921
 21
  883.661
 31
  219.685
 12
  479.921
 22
  875.787
 32
  219.685
 13
  479.921
 23
  875.787
 33
  219.685
 70
  5
  0
3DFACE
  8
Wall_girts
 39
    0.000
 62
5
 10
  705.512
 20
  875.787
 30
  278.740
 11
  705.512
 21
  883.661
 31
  278.740
 12
  479.921
 22
  883.661
 32
  278.740
 13
  479.921
 23
  883.661
 33
  278.740
 70
 12
  0
3DFACE
  8
Wall_girts
 39
    0.000
 62
5
 10
  705.512
 20
  875.787
 30
  278.740
 11
  479.921
 21
  883.661
 31
  278.740
 12
  479.921
 22
  875.787
 32
  278.740
 13
  479.921
 23
  875.787
 33
  278.740
 70
  5
  0
3DFACE
  8
Wall_girts
 39
    0.000
 62
5
 10
  479.921
 20
  875.787
 30
  101.575
 11
  479.921
 21
  883.661
 31
  101.575
 12
  244.094
 22
  883.661
 32
  101.575
 13
  244.094
 23
  883.661
 33
  101.575
 70
 12
  0
3DFACE
  8
Wall_girts
 39
    0.000
 62
5
 10
  479.921
 20
  875.787
 30
  101.575
 11
  244.094
 21
  883.661
 31
  101.575
 12
  244.094
 22
  875.787
 32
  101.575
 13
  244.094
 23
  875.787
 33
  101.575
 70
  5
  0
3DFACE
  8
Wall_girts
 39
    0.000
 62
5
 10
  479.921
 20
  875.787
 30
  160.630
 11
  479.921
 21
  883.661
 31
  160.630
 12
  244.094
 22
  883.661
 32
  160.630
 13
  244.094
 23
  883.661
 33
  160.630
 70
 12
  0
3DFACE
  8
Wall_girts
 39
    0.000
 62
5
 10
  479.921
 20
  875.787
 30
  160.630
 11
  244.094
 21
  883.661
 31
  160.630
 12
  244.094
 22
  875.787
 32
  160.630
 13
  244.094
 23
  875.787
 33
  160.630
 70
  5
  0
3DFACE
  8
Wall_girts
 39
    0.000
 62
5
 10
  479.921
 20
  875.787
 30
  219.685
 11
  479.921
 21
  883.661
 31
  219.685
 12
  244.094
 22
  883.661
 32
  219.685
 13
  244.094
 23
  883.661
 33
  219.685
 70
 12
  0
3DFACE
  8
Wall_girts
 39
    0.000
 62
5
 10
  479.921
 20
  875.787
 30
  219.685
 11
  244.094
 21
  883.661
 31
  219.685
 12
  244.094
 22
  875.787
 32
  219.685
 13
  244.094
 23
  875.787
 33
  219.685
 70
  5
  0
3DFACE
  8
Wall_girts
 39
    0.000
 62
5
 10
  479.921
 20
  875.787
 30
  278.740
 11
  479.921
 21
  883.661
 31
  278.740
 12
  244.094
 22
  883.661
 32
  278.740
 13
  244.094
 23
  883.661
 33
  278.740
 70
 12
  0
3DFACE
  8
Wall_girts
 39
    0.000
 62
5
 10
  479.921
 20
  875.787
 30
  278.740
 11
  244.094
 21
  883.661
 31
  278.740
 12
  244.094
 22
  875.787
 32
  278.740
 13
  244.094
 23
  875.787
 33
  278.740
 70
  5
  0
3DFACE
  8
Wall_girts
 39
    0.000
 62
5
 10
  244.094
 20
  875.787
 30
  101.575
 11
  244.094
 21
  883.661
 31
  101.575
 12
    0.984
 22
  883.661
 32
  101.575
 13
    0.984
 23
  883.661
 33
  101.575
 70
 12
  0
3DFACE
  8
Wall_girts
 39
    0.000
 62
5
 10
  244.094
 20
  875.787
 30
  101.575
 11
    0.984
 21
  883.661
 31
  101.575
 12
    0.984
 22
  875.787
 32
  101.575
 13
    0.984
 23
  875.787
 33
  101.575
 70
  5
  0
3DFACE
  8
Wall_girts
 39
    0.000
 62
5
 10
  244.094
 20
  875.787
 30
  160.630
 11
  244.094
 21
  883.661
 31
  160.630
 12
    0.984
 22
  883.661
 32
  160.630
 13
    0.984
 23
  883.661
 33
  160.630
 70
 12
  0
3DFACE
  8
Wall_girts
 39
    0.000
 62
5
 10
  244.094
 20
  875.787
 30
  160.630
 11
    0.984
 21
  883.661
 31
  160.630
 12
    0.984
 22
  875.787
 32
  160.630
 13
    0.984
 23
  875.787
 33
  160.630
 70
  5
  0
3DFACE
  8
Wall_girts
 39
    0.000
 62
5
 10
  244.094
 20
  875.787
 30
  219.685
 11
  244.094
 21
  883.661
 31
  219.685
 12
    0.984
 22
  883.661
 32
  219.685
 13
    0.984
 23
  883.661
 33
  219.685
 70
 12
  0
3DFACE
  8
Wall_girts
 39
    0.000
 62
5
 10
  244.094
 20
  875.787
 30
  219.685
 11
    0.984
 21
  883.661
 31
  219.685
 12
    0.984
 22
  875.787
 32
  219.685
 13
    0.984
 23
  875.787
 33
  219.685
 70
  5
  0
3DFACE
  8
Wall_girts
 39
    0.000
 62
5
 10
  244.094
 20
  875.787
 30
  278.740
 11
  244.094
 21
  883.661
 31
  278.740
 12
    0.984
 22
  883.661
 32
  278.740
 13
    0.984
 23
  883.661
 33
  278.740
 70
 12
  0
3DFACE
  8
Wall_girts
 39
    0.000
 62
5
 10
  244.094
 20
  875.787
 30
  278.740
 11
    0.984
 21
  883.661
 31
  278.740
 12
    0.984
 22
  875.787
 32
  278.740
 13
    0.984
 23
  875.787
 33
  278.740
 70
  5
999
START:   AREA=Draw Purlins
  0
3DFACE
  8
Roof_purlins
 39
    0.000
 62
4
 10
    0.984
 20
  822.354
 30
  319.972
 11
    0.984
 21
  823.138
 31
  327.807
 12
  244.094
 22
  823.138
 32
  327.807
 13
  244.094
 23
  823.138
 33
  327.807
 70
 12
  0
3DFACE
  8
Roof_purlins
 39
    0.000
 62
4
 10
    0.984
 20
  822.354
 30
  319.972
 11
  244.094
 21
  823.138
 31
  327.807
 12
  244.094
 22
  822.354
 32
  319.972
 13
  244.094
 23
  822.354
 33
  319.972
 70
  5
  0
3DFACE
  8
Roof_purlins
 39
    0.000
 62
4
 10
    0.984
 20
  760.842
 30
  326.126
 11
    0.984
 21
  761.626
 31
  333.961
 12
  244.094
 22
  761.626
 32
  333.961
 13
  244.094
 23
  761.626
 33
  333.961
 70
 12
  0
3DFACE
  8
Roof_purlins
 39
    0.000
 62
4
 10
    0.984
 20
  760.842
 30
  326.126
 11
  244.094
 21
  761.626
 31
  333.961
 12
  244.094
 22
  760.842
 32
  326.126
 13
  244.094
 23
  760.842
 33
  326.126
 70
  5
  0
3DFACE
  8
Roof_purlins
 39
    0.000
 62
4
 10
    0.984
 20
  699.334
 30
  332.280
 11
    0.984
 21
  700.118
 31
  340.115
 12
  244.094
 22
  700.118
 32
  340.115
 13
  244.094
 23
  700.118
 33
  340.115
 70
 12
  0
3DFACE
  8
Roof_purlins
 39
    0.000
 62
4
 10
    0.984
 20
  699.334
 30
  332.280
 11
  244.094
 21
  700.118
 31
  340.115
 12
  244.094
 22
  699.334
 32
  332.280
 13
  244.094
 23
  699.334
 33
  332.280
 70
  5
  0
3DFACE
  8
Roof_purlins
 39
    0.000
 62
4
 10
    0.984
 20
  637.822
 30
  338.434
 11
    0.984
 21
  638.606
 31
  346.268
 12
  244.094
 22
  638.606
 32
  346.268
 13
  244.094
 23
  638.606
 33
  346.268
 70
 12
  0
3DFACE
  8
Roof_purlins
 39
    0.000
 62
4
 10
    0.984
 20
  637.822
 30
  338.434
 11
  244.094
 21
  638.606
 31
  346.268
 12
  244.094
 22
  637.822
 32
  338.434
 13
  244.094
 23
  637.822
 33
  338.434
 70
  5
  0
3DFACE
  8
Roof_purlins
 39
    0.000
 62
4
 10
    0.984
 20
  576.314
 30
  344.587
 11
    0.984
 21
  577.098
 31
  352.422
 12
  244.094
 22
  577.098
 32
  352.422
 13
  244.094
 23
  577.098
 33
  352.422
 70
 12
  0
3DFACE
  8
Roof_purlins
 39
    0.000
 62
4
 10
    0.984
 20
  576.314
 30
  344.587
 11
  244.094
 21
  577.098
 31
  352.422
 12
  244.094
 22
  576.314
 32
  344.587
 13
  244.094
 23
  576.314
 33
  344.587
 70
  5
  0
3DFACE
  8
Roof_purlins
 39
    0.000
 62
4
 10
    0.984
 20
  514.803
 30
  350.741
 11
    0.984
 21
  515.586
 31
  358.576
 12
  244.094
 22
  515.586
 32
  358.576
 13
  244.094
 23
  515.586
 33
  358.576
 70
 12
  0
3DFACE
  8
Roof_purlins
 39
    0.000
 62
4
 10
    0.984
 20
  514.803
 30
  350.741
 11
  244.094
 21
  515.586
 31
  358.576
 12
  244.094
 22
  514.803
 32
  350.741
 13
  244.094
 23
  514.803
 33
  350.741
 70
  5
  0
3DFACE
  8
Roof_purlins
 39
    0.000
 62
4
 10
    0.984
 20
  453.295
 30
  356.895
 11
    0.984
 21
  454.079
 31
  364.729
 12
  244.094
 22
  454.079
 32
  364.729
 13
  244.094
 23
  454.079
 33
  364.729
 70
 12
  0
3DFACE
  8
Roof_purlins
 39
    0.000
 62
4
 10
    0.984
 20
  453.295
 30
  356.895
 11
  244.094
 21
  454.079
 31
  364.729
 12
  244.094
 22
  453.295
 32
  356.895
 13
  244.094
 23
  453.295
 33
  356.895
 70
  5
  0
3DFACE
  8
Roof_purlins
 39
    0.000
 62
4
 10
    0.984
 20
  883.661
 30
  313.878
 11
    0.984
 21
  883.661
 31
  321.752
 12
  244.094
 22
  883.661
 32
  321.752
 13
  244.094
 23
  883.661
 33
  321.752
 70
 12
  0
3DFACE
  8
Roof_purlins
 39
    0.000
 62
4
 10
    0.984
 20
  883.661
 30
  313.878
 11
  244.094
 21
  883.661
 31
  321.752
 12
  244.094
 22
  883.661
 32
  313.878
 13
  244.094
 23
  883.661
 33
  313.878
 70
  5
  0
3DFACE
  8
Roof_purlins
 39
    0.000
 62
4
 10
  244.094
 20
  822.354
 30
  319.972
 11
  244.094
 21
  823.138
 31
  327.807
 12
  479.921
 22
  823.138
 32
  327.807
 13
  479.921
 23
  823.138
 33
  327.807
 70
 12
  0
3DFACE
  8
Roof_purlins
 39
    0.000
 62
4
 10
  244.094
 20
  822.354
 30
  319.972
 11
  479.921
 21
  823.138
 31
  327.807
 12
  479.921
 22
  822.354
 32
  319.972
 13
  479.921
 23
  822.354
 33
  319.972
 70
  5
  0
3DFACE
  8
Roof_purlins
 39
    0.000
 62
4
 10
  244.094
 20
  760.842
 30
  326.126
 11
  244.094
 21
  761.626
 31
  333.961
 12
  479.921
 22
  761.626
 32
  333.961
 13
  479.921
 23
  761.626
 33
  333.961
 70
 12
  0
3DFACE
  8
Roof_purlins
 39
    0.000
 62
4
 10
  244.094
 20
  760.842
 30
  326.126
 11
  479.921
 21
  761.626
 31
  333.961
 12
  479.921
 22
  760.842
 32
  326.126
 13
  479.921
 23
  760.842
 33
  326.126
 70
  5
  0
3DFACE
  8
Roof_purlins
 39
    0.000
 62
4
 10
  244.094
 20
  699.334
 30
  332.280
 11
  244.094
 21
  700.118
 31
  340.115
 12
  479.921
 22
  700.118
 32
  340.115
 13
  479.921
 23
  700.118
 33
  340.115
 70
 12
  0
3DFACE
  8
Roof_purlins
 39
    0.000
 62
4
 10
  244.094
 20
  699.334
 30
  332.280
 11
  479.921
 21
  700.118
 31
  340.115
 12
  479.921
 22
  699.334
 32
  332.280
 13
  479.921
 23
  699.334
 33
  332.280
 70
  5
  0
3DFACE
  8
Roof_purlins
 39
    0.000
 62
4
 10
  244.094
 20
  637.822
 30
  338.434
 11
  244.094
 21
  638.606
 31
  346.268
 12
  479.921
 22
  638.606
 32
  346.268
 13
  479.921
 23
  638.606
 33
  346.268
 70
 12
  0
3DFACE
  8
Roof_purlins
 39
    0.000
 62
4
 10
  244.094
 20
  637.822
 30
  338.434
 11
  479.921
 21
  638.606
 31
  346.268
 12
  479.921
 22
  637.822
 32
  338.434
 13
  479.921
 23
  637.822
 33
  338.434
 70
  5
  0
3DFACE
  8
Roof_purlins
 39
    0.000
 62
4
 10
  244.094
 20
  576.314
 30
  344.587
 11
  244.094
 21
  577.098
 31
  352.422
 12
  479.921
 22
  577.098
 32
  352.422
 13
  479.921
 23
  577.098
 33
  352.422
 70
 12
  0
3DFACE
  8
Roof_purlins
 39
    0.000
 62
4
 10
  244.094
 20
  576.314
 30
  344.587
 11
  479.921
 21
  577.098
 31
  352.422
 12
  479.921
 22
  576.314
 32
  344.587
 13
  479.921
 23
  576.314
 33
  344.587
 70
  5
  0
3DFACE
  8
Roof_purlins
 39
    0.000
 62
4
 10
  244.094
 20
  514.803
 30
  350.741
 11
  244.094
 21
  515.586
 31
  358.576
 12
  479.921
 22
  515.586
 32
  358.576
 13
  479.921
 23
  515.586
 33
  358.576
 70
 12
  0
3DFACE
  8
Roof_purlins
 39
    0.000
 62
4
 10
  244.094
 20
  514.803
 30
  350.741
 11
  479.921
 21
  515.586
 31
  358.576
 12
  479.921
 22
  514.803
 32
  350.741
 13
  479.921
 23
  514.803
 33
  350.741
 70
  5
  0
3DFACE
  8
Roof_purlins
 39
    0.000
 62
4
 10
  244.094
 20
  453.295
 30
  356.895
 11
  244.094
 21
  454.079
 31
  364.729
 12
  479.921
 22
  454.079
 32
  364.729
 13
  479.921
 23
  454.079
 33
  364.729
 70
 12
  0
3DFACE
  8
Roof_purlins
 39
    0.000
 62
4
 10
  244.094
 20
  453.295
 30
  356.895
 11
  479.921
 21
  454.079
 31
  364.729
 12
  479.921
 22
  453.295
 32
  356.895
 13
  479.921
 23
  453.295
 33
  356.895
 70
  5
  0
3DFACE
  8
Roof_purlins
 39
    0.000
 62
4
 10
  244.094
 20
  883.661
 30
  313.878
 11
  244.094
 21
  883.661
 31
  321.752
 12
  479.921
 22
  883.661
 32
  321.752
 13
  479.921
 23
  883.661
 33
  321.752
 70
 12
  0
3DFACE
  8
Roof_purlins
 39
    0.000
 62
4
 10
  244.094
 20
  883.661
 30
  313.878
 11
  479.921
 21
  883.661
 31
  321.752
 12
  479.921
 22
  883.661
 32
  313.878
 13
  479.921
 23
  883.661
 33
  313.878
 70
  5
  0
3DFACE
  8
Roof_purlins
 39
    0.000
 62
4
 10
  479.921
 20
  822.354
 30
  319.972
 11
  479.921
 21
  823.138
 31
  327.807
 12
  705.512
 22
  823.138
 32
  327.807
 13
  705.512
 23
  823.138
 33
  327.807
 70
 12
  0
3DFACE
  8
Roof_purlins
 39
    0.000
 62
4
 10
  479.921
 20
  822.354
 30
  319.972
 11
  705.512
 21
  823.138
 31
  327.807
 12
  705.512
 22
  822.354
 32
  319.972
 13
  705.512
 23
  822.354
 33
  319.972
 70
  5
  0
3DFACE
  8
Roof_purlins
 39
    0.000
 62
4
 10
  479.921
 20
  760.842
 30
  326.126
 11
  479.921
 21
  761.626
 31
  333.961
 12
  705.512
 22
  761.626
 32
  333.961
 13
  705.512
 23
  761.626
 33
  333.961
 70
 12
  0
3DFACE
  8
Roof_purlins
 39
    0.000
 62
4
 10
  479.921
 20
  760.842
 30
  326.126
 11
  705.512
 21
  761.626
 31
  333.961
 12
  705.512
 22
  760.842
 32
  326.126
 13
  705.512
 23
  760.842
 33
  326.126
 70
  5
  0
3DFACE
  8
Roof_purlins
 39
    0.000
 62
4
 10
  479.921
 20
  699.334
 30
  332.280
 11
  479.921
 21
  700.118
 31
  340.115
 12
  705.512
 22
  700.118
 32
  340.115
 13
  705.512
 23
  700.118
 33
  340.115
 70
 12
  0
3DFACE
  8
Roof_purlins
 39
    0.000
 62
4
 10
  479.921
 20
  699.334
 30
  332.280
 11
  705.512
 21
  700.118
 31
  340.115
 12
  705.512
 22
  699.334
 32
  332.280
 13
  705.512
 23
  699.334
 33
  332.280
 70
  5
  0
3DFACE
  8
Roof_purlins
 39
    0.000
 62
4
 10
  479.921
 20
  637.822
 30
  338.434
 11
  479.921
 21
  638.606
 31
  346.268
 12
  705.512
 22
  638.606
 32
  346.268
 13
  705.512
 23
  638.606
 33
  346.268
 70
 12
  0
3DFACE
  8
Roof_purlins
 39
    0.000
 62
4
 10
  479.921
 20
  637.822
 30
  338.434
 11
  705.512
 21
  638.606
 31
  346.268
 12
  705.512
 22
  637.822
 32
  338.434
 13
  705.512
 23
  637.822
 33
  338.434
 70
  5
  0
3DFACE
  8
Roof_purlins
 39
    0.000
 62
4
 10
  479.921
 20
  576.314
 30
  344.587
 11
  479.921
 21
  577.098
 31
  352.422
 12
  705.512
 22
  577.098
 32
  352.422
 13
  705.512
 23
  577.098
 33
  352.422
 70
 12
  0
3DFACE
  8
Roof_purlins
 39
    0.000
 62
4
 10
  479.921
 20
  576.314
 30
  344.587
 11
  705.512
 21
  577.098
 31
  352.422
 12
  705.512
 22
  576.314
 32
  344.587
 13
  705.512
 23
  576.314
 33
  344.587
 70
  5
  0
3DFACE
  8
Roof_purlins
 39
    0.000
 62
4
 10
  479.921
 20
  514.803
 30
  350.741
 11
  479.921
 21
  515.586
 31
  358.576
 12
  705.512
 22
  515.586
 32
  358.576
 13
  705.512
 23
  515.586
 33
  358.576
 70
 12
  0
3DFACE
  8
Roof_purlins
 39
    0.000
 62
4
 10
  479.921
 20
  514.803
 30
  350.741
 11
  705.512
 21
  515.586
 31
  358.576
 12
  705.512
 22
  514.803
 32
  350.741
 13
  705.512
 23
  514.803
 33
  350.741
 70
  5
  0
3DFACE
  8
Roof_purlins
 39
    0.000
 62
4
 10
  479.921
 20
  453.295
 30
  356.895
 11
  479.921
 21
  454.079
 31
  364.729
 12
  705.512
 22
  454.079
 32
  364.729
 13
  705.512
 23
  454.079
 33
  364.729
 70
 12
  0
3DFACE
  8
Roof_purlins
 39
    0.000
 62
4
 10
  479.921
 20
  453.295
 30
  356.895
 11
  705.512
 21
  454.079
 31
  364.729
 12
  705.512
 22
  453.295
 32
  356.895
 13
  705.512
 23
  453.295
 33
  356.895
 70
  5
  0
3DFACE
  8
Roof_purlins
 39
    0.000
 62
4
 10
  479.921
 20
  883.661
 30
  313.878
 11
  479.921
 21
  883.661
 31
  321.752
 12
  705.512
 22
  883.661
 32
  321.752
 13
  705.512
 23
  883.661
 33
  321.752
 70
 12
  0
3DFACE
  8
Roof_purlins
 39
    0.000
 62
4
 10
  479.921
 20
  883.661
 30
  313.878
 11
  705.512
 21
  883.661
 31
  321.752
 12
  705.512
 22
  883.661
 32
  313.878
 13
  705.512
 23
  883.661
 33
  313.878
 70
  5
  0
3DFACE
  8
Roof_purlins
 39
    0.000
 62
4
 10
  705.512
 20
  822.354
 30
  319.972
 11
  705.512
 21
  823.138
 31
  327.807
 12
  950.787
 22
  823.138
 32
  327.807
 13
  950.787
 23
  823.138
 33
  327.807
 70
 12
  0
3DFACE
  8
Roof_purlins
 39
    0.000
 62
4
 10
  705.512
 20
  822.354
 30
  319.972
 11
  950.787
 21
  823.138
 31
  327.807
 12
  950.787
 22
  822.354
 32
  319.972
 13
  950.787
 23
  822.354
 33
  319.972
 70
  5
  0
3DFACE
  8
Roof_purlins
 39
    0.000
 62
4
 10
  705.512
 20
  760.842
 30
  326.126
 11
  705.512
 21
  761.626
 31
  333.961
 12
  950.787
 22
  761.626
 32
  333.961
 13
  950.787
 23
  761.626
 33
  333.961
 70
 12
  0
3DFACE
  8
Roof_purlins
 39
    0.000
 62
4
 10
  705.512
 20
  760.842
 30
  326.126
 11
  950.787
 21
  761.626
 31
  333.961
 12
  950.787
 22
  760.842
 32
  326.126
 13
  950.787
 23
  760.842
 33
  326.126
 70
  5
  0
3DFACE
  8
Roof_purlins
 39
    0.000
 62
4
 10
  705.512
 20
  699.334
 30
  332.280
 11
  705.512
 21
  700.118
 31
  340.115
 12
  950.787
 22
  700.118
 32
  340.115
 13
  950.787
 23
  700.118
 33
  340.115
 70
 12
  0
3DFACE
  8
Roof_purlins
 39
    0.000
 62
4
 10
  705.512
 20
  699.334
 30
  332.280
 11
  950.787
 21
  700.118
 31
  340.115
 12
  950.787
 22
  699.334
 32
  332.280
 13
  950.787
 23
  699.334
 33
  332.280
 70
  5
  0
3DFACE
  8
Roof_purlins
 39
    0.000
 62
4
 10
  705.512
 20
  637.822
 30
  338.434
 11
  705.512
 21
  638.606
 31
  346.268
 12
  950.787
 22
  638.606
 32
  346.268
 13
  950.787
 23
  638.606
 33
  346.268
 70
 12
  0
3DFACE
  8
Roof_purlins
 39
    0.000
 62
4
 10
  705.512
 20
  637.822
 30
  338.434
 11
  950.787
 21
  638.606
 31
  346.268
 12
  950.787
 22
  637.822
 32
  338.434
 13
  950.787
 23
  637.822
 33
  338.434
 70
  5
  0
3DFACE
  8
Roof_purlins
 39
    0.000
 62
4
 10
  705.512
 20
  576.314
 30
  344.587
 11
  705.512
 21
  577.098
 31
  352.422
 12
  950.787
 22
  577.098
 32
  352.422
 13
  950.787
 23
  577.098
 33
  352.422
 70
 12
  0
3DFACE
  8
Roof_purlins
 39
    0.000
 62
4
 10
  705.512
 20
  576.314
 30
  344.587
 11
  950.787
 21
  577.098
 31
  352.422
 12
  950.787
 22
  576.314
 32
  344.587
 13
  950.787
 23
  576.314
 33
  344.587
 70
  5
  0
3DFACE
  8
Roof_purlins
 39
    0.000
 62
4
 10
  705.512
 20
  514.803
 30
  350.741
 11
  705.512
 21
  515.586
 31
  358.576
 12
  950.787
 22
  515.586
 32
  358.576
 13
  950.787
 23
  515.586
 33
  358.576
 70
 12
  0
3DFACE
  8
Roof_purlins
 39
    0.000
 62
4
 10
  705.512
 20
  514.803
 30
  350.741
 11
  950.787
 21
  515.586
 31
  358.576
 12
  950.787
 22
  514.803
 32
  350.741
 13
  950.787
 23
  514.803
 33
  350.741
 70
  5
  0
3DFACE
  8
Roof_purlins
 39
    0.000
 62
4
 10
  705.512
 20
  453.295
 30
  356.895
 11
  705.512
 21
  454.079
 31
  364.729
 12
  950.787
 22
  454.079
 32
  364.729
 13
  950.787
 23
  454.079
 33
  364.729
 70
 12
  0
3DFACE
  8
Roof_purlins
 39
    0.000
 62
4
 10
  705.512
 20
  453.295
 30
  356.895
 11
  950.787
 21
  454.079
 31
  364.729
 12
  950.787
 22
  453.295
 32
  356.895
 13
  950.787
 23
  453.295
 33
  356.895
 70
  5
  0
3DFACE
  8
Roof_purlins
 39
    0.000
 62
4
 10
  705.512
 20
  883.661
 30
  313.878
 11
  705.512
 21
  883.661
 31
  321.752
 12
  950.787
 22
  883.661
 32
  321.752
 13
  950.787
 23
  883.661
 33
  321.752
 70
 12
  0
3DFACE
  8
Roof_purlins
 39
    0.000
 62
4
 10
  705.512
 20
  883.661
 30
  313.878
 11
  950.787
 21
  883.661
 31
  321.752
 12
  950.787
 22
  883.661
 32
  313.878
 13
  950.787
 23
  883.661
 33
  313.878
 70
  5
  0
3DFACE
  8
Roof_purlins
 39
    0.000
 62
4
 10
  950.787
 20
  822.354
 30
  319.972
 11
  950.787
 21
  823.138
 31
  327.807
 12
 1181.890
 22
  823.138
 32
  327.807
 13
 1181.890
 23
  823.138
 33
  327.807
 70
 12
  0
3DFACE
  8
Roof_purlins
 39
    0.000
 62
4
 10
  950.787
 20
  822.354
 30
  319.972
 11
 1181.890
 21
  823.138
 31
  327.807
 12
 1181.890
 22
  822.354
 32
  319.972
 13
 1181.890
 23
  822.354
 33
  319.972
 70
  5
  0
3DFACE
  8
Roof_purlins
 39
    0.000
 62
4
 10
  950.787
 20
  760.842
 30
  326.126
 11
  950.787
 21
  761.626
 31
  333.961
 12
 1181.890
 22
  761.626
 32
  333.961
 13
 1181.890
 23
  761.626
 33
  333.961
 70
 12
  0
3DFACE
  8
Roof_purlins
 39
    0.000
 62
4
 10
  950.787
 20
  760.842
 30
  326.126
 11
 1181.890
 21
  761.626
 31
  333.961
 12
 1181.890
 22
  760.842
 32
  326.126
 13
 1181.890
 23
  760.842
 33
  326.126
 70
  5
  0
3DFACE
  8
Roof_purlins
 39
    0.000
 62
4
 10
  950.787
 20
  699.334
 30
  332.280
 11
  950.787
 21
  700.118
 31
  340.115
 12
 1181.890
 22
  700.118
 32
  340.115
 13
 1181.890
 23
  700.118
 33
  340.115
 70
 12
  0
3DFACE
  8
Roof_purlins
 39
    0.000
 62
4
 10
  950.787
 20
  699.334
 30
  332.280
 11
 1181.890
 21
  700.118
 31
  340.115
 12
 1181.890
 22
  699.334
 32
  332.280
 13
 1181.890
 23
  699.334
 33
  332.280
 70
  5
  0
3DFACE
  8
Roof_purlins
 39
    0.000
 62
4
 10
  950.787
 20
  637.822
 30
  338.434
 11
  950.787
 21
  638.606
 31
  346.268
 12
 1181.890
 22
  638.606
 32
  346.268
 13
 1181.890
 23
  638.606
 33
  346.268
 70
 12
  0
3DFACE
  8
Roof_purlins
 39
    0.000
 62
4
 10
  950.787
 20
  637.822
 30
  338.434
 11
 1181.890
 21
  638.606
 31
  346.268
 12
 1181.890
 22
  637.822
 32
  338.434
 13
 1181.890
 23
  637.822
 33
  338.434
 70
  5
  0
3DFACE
  8
Roof_purlins
 39
    0.000
 62
4
 10
  950.787
 20
  576.314
 30
  344.587
 11
  950.787
 21
  577.098
 31
  352.422
 12
 1181.890
 22
  577.098
 32
  352.422
 13
 1181.890
 23
  577.098
 33
  352.422
 70
 12
  0
3DFACE
  8
Roof_purlins
 39
    0.000
 62
4
 10
  950.787
 20
  576.314
 30
  344.587
 11
 1181.890
 21
  577.098
 31
  352.422
 12
 1181.890
 22
  576.314
 32
  344.587
 13
 1181.890
 23
  576.314
 33
  344.587
 70
  5
  0
3DFACE
  8
Roof_purlins
 39
    0.000
 62
4
 10
  950.787
 20
  514.803
 30
  350.741
 11
  950.787
 21
  515.586
 31
  358.576
 12
 1181.890
 22
  515.586
 32
  358.576
 13
 1181.890
 23
  515.586
 33
  358.576
 70
 12
  0
3DFACE
  8
Roof_purlins
 39
    0.000
 62
4
 10
  950.787
 20
  514.803
 30
  350.741
 11
 1181.890
 21
  515.586
 31
  358.576
 12
 1181.890
 22
  514.803
 32
  350.741
 13
 1181.890
 23
  514.803
 33
  350.741
 70
  5
  0
3DFACE
  8
Roof_purlins
 39
    0.000
 62
4
 10
  950.787
 20
  453.295
 30
  356.895
 11
  950.787
 21
  454.079
 31
  364.729
 12
 1181.890
 22
  454.079
 32
  364.729
 13
 1181.890
 23
  454.079
 33
  364.729
 70
 12
  0
3DFACE
  8
Roof_purlins
 39
    0.000
 62
4
 10
  950.787
 20
  453.295
 30
  356.895
 11
 1181.890
 21
  454.079
 31
  364.729
 12
 1181.890
 22
  453.295
 32
  356.895
 13
 1181.890
 23
  453.295
 33
  356.895
 70
  5
  0
3DFACE
  8
Roof_purlins
 39
    0.000
 62
4
 10
  950.787
 20
  883.661
 30
  313.878
 11
  950.787
 21
  883.661
 31
  321.752
 12
 1181.890
 22
  883.661
 32
  321.752
 13
 1181.890
 23
  883.661
 33
  321.752
 70
 12
  0
3DFACE
  8
Roof_purlins
 39
    0.000
 62
4
 10
  950.787
 20
  883.661
 30
  313.878
 11
 1181.890
 21
  883.661
 31
  321.752
 12
 1181.890
 22
  883.661
 32
  313.878
 13
 1181.890
 23
  883.661
 33
  313.878
 70
  5
  0
3DFACE
  8
Roof_purlins
 39
    0.000
 62
4
 10
 1181.890
 20
  822.354
 30
  319.972
 11
 1181.890
 21
  823.138
 31
  327.807
 12
 1426.969
 22
  823.138
 32
  327.807
 13
 1426.969
 23
  823.138
 33
  327.807
 70
 12
  0
3DFACE
  8
Roof_purlins
 39
    0.000
 62
4
 10
 1181.890
 20
  822.354
 30
  319.972
 11
 1426.969
 21
  823.138
 31
  327.807
 12
 1426.969
 22
  822.354
 32
  319.972
 13
 1426.969
 23
  822.354
 33
  319.972
 70
  5
  0
3DFACE
  8
Roof_purlins
 39
    0.000
 62
4
 10
 1181.890
 20
  760.842
 30
  326.126
 11
 1181.890
 21
  761.626
 31
  333.961
 12
 1426.969
 22
  761.626
 32
  333.961
 13
 1426.969
 23
  761.626
 33
  333.961
 70
 12
  0
3DFACE
  8
Roof_purlins
 39
    0.000
 62
4
 10
 1181.890
 20
  760.842
 30
  326.126
 11
 1426.969
 21
  761.626
 31
  333.961
 12
 1426.969
 22
  760.842
 32
  326.126
 13
 1426.969
 23
  760.842
 33
  326.126
 70
  5
  0
3DFACE
  8
Roof_purlins
 39
    0.000
 62
4
 10
 1181.890
 20
  699.334
 30
  332.280
 11
 1181.890
 21
  700.118
 31
  340.115
 12
 1426.969
 22
  700.118
 32
  340.115
 13
 1426.969
 23
  700.118
 33
  340.115
 70
 12
  0
3DFACE
  8
Roof_purlins
 39
    0.000
 62
4
 10
 1181.890
 20
  699.334
 30
  332.280
 11
 1426.969
 21
  700.118
 31
  340.115
 12
 1426.969
 22
  699.334
 32
  332.280
 13
 1426.969
 23
  699.334
 33
  332.280
 70
  5
  0
3DFACE
  8
Roof_purlins
 39
    0.000
 62
4
 10
 1181.890
 20
  637.822
 30
  338.434
 11
 1181.890
 21
  638.606
 31
  346.268
 12
 1426.969
 22
  638.606
 32
  346.268
 13
 1426.969
 23
  638.606
 33
  346.268
 70
 12
  0
3DFACE
  8
Roof_purlins
 39
    0.000
 62
4
 10
 1181.890
 20
  637.822
 30
  338.434
 11
 1426.969
 21
  638.606
 31
  346.268
 12
 1426.969
 22
  637.822
 32
  338.434
 13
 1426.969
 23
  637.822
 33
  338.434
 70
  5
  0
3DFACE
  8
Roof_purlins
 39
    0.000
 62
4
 10
 1181.890
 20
  576.314
 30
  344.587
 11
 1181.890
 21
  577.098
 31
  352.422
 12
 1426.969
 22
  577.098
 32
  352.422
 13
 1426.969
 23
  577.098
 33
  352.422
 70
 12
  0
3DFACE
  8
Roof_purlins
 39
    0.000
 62
4
 10
 1181.890
 20
  576.314
 30
  344.587
 11
 1426.969
 21
  577.098
 31
  352.422
 12
 1426.969
 22
  576.314
 32
  344.587
 13
 1426.969
 23
  576.314
 33
  344.587
 70
  5
  0
3DFACE
  8
Roof_purlins
 39
    0.000
 62
4
 10
 1181.890
 20
  514.803
 30
  350.741
 11
 1181.890
 21
  515.586
 31
  358.576
 12
 1426.969
 22
  515.586
 32
  358.576
 13
 1426.969
 23
  515.586
 33
  358.576
 70
 12
  0
3DFACE
  8
Roof_purlins
 39
    0.000
 62
4
 10
 1181.890
 20
  514.803
 30
  350.741
 11
 1426.969
 21
  515.586
 31
  358.576
 12
 1426.969
 22
  514.803
 32
  350.741
 13
 1426.969
 23
  514.803
 33
  350.741
 70
  5
  0
3DFACE
  8
Roof_purlins
 39
    0.000
 62
4
 10
 1181.890
 20
  453.295
 30
  356.895
 11
 1181.890
 21
  454.079
 31
  364.729
 12
 1426.969
 22
  454.079
 32
  364.729
 13
 1426.969
 23
  454.079
 33
  364.729
 70
 12
  0
3DFACE
  8
Roof_purlins
 39
    0.000
 62
4
 10
 1181.890
 20
  453.295
 30
  356.895
 11
 1426.969
 21
  454.079
 31
  364.729
 12
 1426.969
 22
  453.295
 32
  356.895
 13
 1426.969
 23
  453.295
 33
  356.895
 70
  5
  0
3DFACE
  8
Roof_purlins
 39
    0.000
 62
4
 10
 1181.890
 20
  883.661
 30
  313.878
 11
 1181.890
 21
  883.661
 31
  321.752
 12
 1426.969
 22
  883.661
 32
  321.752
 13
 1426.969
 23
  883.661
 33
  321.752
 70
 12
  0
3DFACE
  8
Roof_purlins
 39
    0.000
 62
4
 10
 1181.890
 20
  883.661
 30
  313.878
 11
 1426.969
 21
  883.661
 31
  321.752
 12
 1426.969
 22
  883.661
 32
  313.878
 13
 1426.969
 23
  883.661
 33
  313.878
 70
  5
  0
3DFACE
  8
Roof_purlins
 39
    0.000
 62
4
 10
    0.984
 20
  431.354
 30
  356.895
 11
    0.984
 21
  430.570
 31
  364.730
 12
  244.094
 22
  430.570
 32
  364.730
 13
  244.094
 23
  430.570
 33
  364.730
 70
 12
  0
3DFACE
  8
Roof_purlins
 39
    0.000
 62
4
 10
    0.984
 20
  431.354
 30
  356.895
 11
  244.094
 21
  430.570
 31
  364.730
 12
  244.094
 22
  431.354
 32
  356.895
 13
  244.094
 23
  431.354
 33
  356.895
 70
  5
  0
3DFACE
  8
Roof_purlins
 39
    0.000
 62
4
 10
    0.984
 20
  369.846
 30
  350.741
 11
    0.984
 21
  369.063
 31
  358.576
 12
  244.094
 22
  369.063
 32
  358.576
 13
  244.094
 23
  369.063
 33
  358.576
 70
 12
  0
3DFACE
  8
Roof_purlins
 39
    0.000
 62
4
 10
    0.984
 20
  369.846
 30
  350.741
 11
  244.094
 21
  369.063
 31
  358.576
 12
  244.094
 22
  369.846
 32
  350.741
 13
  244.094
 23
  369.846
 33
  350.741
 70
  5
  0
3DFACE
  8
Roof_purlins
 39
    0.000
 62
4
 10
    0.984
 20
  308.335
 30
  344.587
 11
    0.984
 21
  307.551
 31
  352.422
 12
  244.094
 22
  307.551
 32
  352.422
 13
  244.094
 23
  307.551
 33
  352.422
 70
 12
  0
3DFACE
  8
Roof_purlins
 39
    0.000
 62
4
 10
    0.984
 20
  308.335
 30
  344.587
 11
  244.094
 21
  307.551
 31
  352.422
 12
  244.094
 22
  308.335
 32
  344.587
 13
  244.094
 23
  308.335
 33
  344.587
 70
  5
  0
3DFACE
  8
Roof_purlins
 39
    0.000
 62
4
 10
    0.984
 20
  246.827
 30
  338.434
 11
    0.984
 21
  246.043
 31
  346.269
 12
  244.094
 22
  246.043
 32
  346.269
 13
  244.094
 23
  246.043
 33
  346.269
 70
 12
  0
3DFACE
  8
Roof_purlins
 39
    0.000
 62
4
 10
    0.984
 20
  246.827
 30
  338.434
 11
  244.094
 21
  246.043
 31
  346.269
 12
  244.094
 22
  246.827
 32
  338.434
 13
  244.094
 23
  246.827
 33
  338.434
 70
  5
  0
3DFACE
  8
Roof_purlins
 39
    0.000
 62
4
 10
    0.984
 20
  185.315
 30
  332.280
 11
    0.984
 21
  184.531
 31
  340.115
 12
  244.094
 22
  184.531
 32
  340.115
 13
  244.094
 23
  184.531
 33
  340.115
 70
 12
  0
3DFACE
  8
Roof_purlins
 39
    0.000
 62
4
 10
    0.984
 20
  185.315
 30
  332.280
 11
  244.094
 21
  184.531
 31
  340.115
 12
  244.094
 22
  185.315
 32
  332.280
 13
  244.094
 23
  185.315
 33
  332.280
 70
  5
  0
3DFACE
  8
Roof_purlins
 39
    0.000
 62
4
 10
    0.984
 20
  123.807
 30
  326.126
 11
    0.984
 21
  123.023
 31
  333.961
 12
  244.094
 22
  123.023
 32
  333.961
 13
  244.094
 23
  123.023
 33
  333.961
 70
 12
  0
3DFACE
  8
Roof_purlins
 39
    0.000
 62
4
 10
    0.984
 20
  123.807
 30
  326.126
 11
  244.094
 21
  123.023
 31
  333.961
 12
  244.094
 22
  123.807
 32
  326.126
 13
  244.094
 23
  123.807
 33
  326.126
 70
  5
  0
3DFACE
  8
Roof_purlins
 39
    0.000
 62
4
 10
    0.984
 20
   62.295
 30
  319.973
 11
    0.984
 21
   61.511
 31
  327.807
 12
  244.094
 22
   61.511
 32
  327.807
 13
  244.094
 23
   61.511
 33
  327.807
 70
 12
  0
3DFACE
  8
Roof_purlins
 39
    0.000
 62
4
 10
    0.984
 20
   62.295
 30
  319.973
 11
  244.094
 21
   61.511
 31
  327.807
 12
  244.094
 22
   62.295
 32
  319.973
 13
  244.094
 23
   62.295
 33
  319.973
 70
  5
  0
3DFACE
  8
Roof_purlins
 39
    0.000
 62
4
 10
    0.984
 20
    0.984
 30
  313.878
 11
    0.984
 21
    0.984
 31
  321.752
 12
  244.094
 22
    0.984
 32
  321.752
 13
  244.094
 23
    0.984
 33
  321.752
 70
 12
  0
3DFACE
  8
Roof_purlins
 39
    0.000
 62
4
 10
    0.984
 20
    0.984
 30
  313.878
 11
  244.094
 21
    0.984
 31
  321.752
 12
  244.094
 22
    0.984
 32
  313.878
 13
  244.094
 23
    0.984
 33
  313.878
 70
  5
  0
3DFACE
  8
Roof_purlins
 39
    0.000
 62
4
 10
  244.094
 20
  431.354
 30
  356.895
 11
  244.094
 21
  430.570
 31
  364.730
 12
  479.921
 22
  430.570
 32
  364.730
 13
  479.921
 23
  430.570
 33
  364.730
 70
 12
  0
3DFACE
  8
Roof_purlins
 39
    0.000
 62
4
 10
  244.094
 20
  431.354
 30
  356.895
 11
  479.921
 21
  430.570
 31
  364.730
 12
  479.921
 22
  431.354
 32
  356.895
 13
  479.921
 23
  431.354
 33
  356.895
 70
  5
  0
3DFACE
  8
Roof_purlins
 39
    0.000
 62
4
 10
  244.094
 20
  369.846
 30
  350.741
 11
  244.094
 21
  369.063
 31
  358.576
 12
  479.921
 22
  369.063
 32
  358.576
 13
  479.921
 23
  369.063
 33
  358.576
 70
 12
  0
3DFACE
  8
Roof_purlins
 39
    0.000
 62
4
 10
  244.094
 20
  369.846
 30
  350.741
 11
  479.921
 21
  369.063
 31
  358.576
 12
  479.921
 22
  369.846
 32
  350.741
 13
  479.921
 23
  369.846
 33
  350.741
 70
  5
  0
3DFACE
  8
Roof_purlins
 39
    0.000
 62
4
 10
  244.094
 20
  308.335
 30
  344.587
 11
  244.094
 21
  307.551
 31
  352.422
 12
  479.921
 22
  307.551
 32
  352.422
 13
  479.921
 23
  307.551
 33
  352.422
 70
 12
  0
3DFACE
  8
Roof_purlins
 39
    0.000
 62
4
 10
  244.094
 20
  308.335
 30
  344.587
 11
  479.921
 21
  307.551
 31
  352.422
 12
  479.921
 22
  308.335
 32
  344.587
 13
  479.921
 23
  308.335
 33
  344.587
 70
  5
  0
3DFACE
  8
Roof_purlins
 39
    0.000
 62
4
 10
  244.094
 20
  246.827
 30
  338.434
 11
  244.094
 21
  246.043
 31
  346.269
 12
  479.921
 22
  246.043
 32
  346.269
 13
  479.921
 23
  246.043
 33
  346.269
 70
 12
  0
3DFACE
  8
Roof_purlins
 39
    0.000
 62
4
 10
  244.094
 20
  246.827
 30
  338.434
 11
  479.921
 21
  246.043
 31
  346.269
 12
  479.921
 22
  246.827
 32
  338.434
 13
  479.921
 23
  246.827
 33
  338.434
 70
  5
  0
3DFACE
  8
Roof_purlins
 39
    0.000
 62
4
 10
  244.094
 20
  185.315
 30
  332.280
 11
  244.094
 21
  184.531
 31
  340.115
 12
  479.921
 22
  184.531
 32
  340.115
 13
  479.921
 23
  184.531
 33
  340.115
 70
 12
  0
3DFACE
  8
Roof_purlins
 39
    0.000
 62
4
 10
  244.094
 20
  185.315
 30
  332.280
 11
  479.921
 21
  184.531
 31
  340.115
 12
  479.921
 22
  185.315
 32
  332.280
 13
  479.921
 23
  185.315
 33
  332.280
 70
  5
  0
3DFACE
  8
Roof_purlins
 39
    0.000
 62
4
 10
  244.094
 20
  123.807
 30
  326.126
 11
  244.094
 21
  123.023
 31
  333.961
 12
  479.921
 22
  123.023
 32
  333.961
 13
  479.921
 23
  123.023
 33
  333.961
 70
 12
  0
3DFACE
  8
Roof_purlins
 39
    0.000
 62
4
 10
  244.094
 20
  123.807
 30
  326.126
 11
  479.921
 21
  123.023
 31
  333.961
 12
  479.921
 22
  123.807
 32
  326.126
 13
  479.921
 23
  123.807
 33
  326.126
 70
  5
  0
3DFACE
  8
Roof_purlins
 39
    0.000
 62
4
 10
  244.094
 20
   62.295
 30
  319.973
 11
  244.094
 21
   61.511
 31
  327.807
 12
  479.921
 22
   61.511
 32
  327.807
 13
  479.921
 23
   61.511
 33
  327.807
 70
 12
  0
3DFACE
  8
Roof_purlins
 39
    0.000
 62
4
 10
  244.094
 20
   62.295
 30
  319.973
 11
  479.921
 21
   61.511
 31
  327.807
 12
  479.921
 22
   62.295
 32
  319.973
 13
  479.921
 23
   62.295
 33
  319.973
 70
  5
  0
3DFACE
  8
Roof_purlins
 39
    0.000
 62
4
 10
  244.094
 20
    0.984
 30
  313.878
 11
  244.094
 21
    0.984
 31
  321.752
 12
  479.921
 22
    0.984
 32
  321.752
 13
  479.921
 23
    0.984
 33
  321.752
 70
 12
  0
3DFACE
  8
Roof_purlins
 39
    0.000
 62
4
 10
  244.094
 20
    0.984
 30
  313.878
 11
  479.921
 21
    0.984
 31
  321.752
 12
  479.921
 22
    0.984
 32
  313.878
 13
  479.921
 23
    0.984
 33
  313.878
 70
  5
  0
3DFACE
  8
Roof_purlins
 39
    0.000
 62
4
 10
  479.921
 20
  431.354
 30
  356.895
 11
  479.921
 21
  430.570
 31
  364.730
 12
  705.512
 22
  430.570
 32
  364.730
 13
  705.512
 23
  430.570
 33
  364.730
 70
 12
  0
3DFACE
  8
Roof_purlins
 39
    0.000
 62
4
 10
  479.921
 20
  431.354
 30
  356.895
 11
  705.512
 21
  430.570
 31
  364.730
 12
  705.512
 22
  431.354
 32
  356.895
 13
  705.512
 23
  431.354
 33
  356.895
 70
  5
  0
3DFACE
  8
Roof_purlins
 39
    0.000
 62
4
 10
  479.921
 20
  369.846
 30
  350.741
 11
  479.921
 21
  369.063
 31
  358.576
 12
  705.512
 22
  369.063
 32
  358.576
 13
  705.512
 23
  369.063
 33
  358.576
 70
 12
  0
3DFACE
  8
Roof_purlins
 39
    0.000
 62
4
 10
  479.921
 20
  369.846
 30
  350.741
 11
  705.512
 21
  369.063
 31
  358.576
 12
  705.512
 22
  369.846
 32
  350.741
 13
  705.512
 23
  369.846
 33
  350.741
 70
  5
  0
3DFACE
  8
Roof_purlins
 39
    0.000
 62
4
 10
  479.921
 20
  308.335
 30
  344.587
 11
  479.921
 21
  307.551
 31
  352.422
 12
  705.512
 22
  307.551
 32
  352.422
 13
  705.512
 23
  307.551
 33
  352.422
 70
 12
  0
3DFACE
  8
Roof_purlins
 39
    0.000
 62
4
 10
  479.921
 20
  308.335
 30
  344.587
 11
  705.512
 21
  307.551
 31
  352.422
 12
  705.512
 22
  308.335
 32
  344.587
 13
  705.512
 23
  308.335
 33
  344.587
 70
  5
  0
3DFACE
  8
Roof_purlins
 39
    0.000
 62
4
 10
  479.921
 20
  246.827
 30
  338.434
 11
  479.921
 21
  246.043
 31
  346.269
 12
  705.512
 22
  246.043
 32
  346.269
 13
  705.512
 23
  246.043
 33
  346.269
 70
 12
  0
3DFACE
  8
Roof_purlins
 39
    0.000
 62
4
 10
  479.921
 20
  246.827
 30
  338.434
 11
  705.512
 21
  246.043
 31
  346.269
 12
  705.512
 22
  246.827
 32
  338.434
 13
  705.512
 23
  246.827
 33
  338.434
 70
  5
  0
3DFACE
  8
Roof_purlins
 39
    0.000
 62
4
 10
  479.921
 20
  185.315
 30
  332.280
 11
  479.921
 21
  184.531
 31
  340.115
 12
  705.512
 22
  184.531
 32
  340.115
 13
  705.512
 23
  184.531
 33
  340.115
 70
 12
  0
3DFACE
  8
Roof_purlins
 39
    0.000
 62
4
 10
  479.921
 20
  185.315
 30
  332.280
 11
  705.512
 21
  184.531
 31
  340.115
 12
  705.512
 22
  185.315
 32
  332.280
 13
  705.512
 23
  185.315
 33
  332.280
 70
  5
  0
3DFACE
  8
Roof_purlins
 39
    0.000
 62
4
 10
  479.921
 20
  123.807
 30
  326.126
 11
  479.921
 21
  123.023
 31
  333.961
 12
  705.512
 22
  123.023
 32
  333.961
 13
  705.512
 23
  123.023
 33
  333.961
 70
 12
  0
3DFACE
  8
Roof_purlins
 39
    0.000
 62
4
 10
  479.921
 20
  123.807
 30
  326.126
 11
  705.512
 21
  123.023
 31
  333.961
 12
  705.512
 22
  123.807
 32
  326.126
 13
  705.512
 23
  123.807
 33
  326.126
 70
  5
  0
3DFACE
  8
Roof_purlins
 39
    0.000
 62
4
 10
  479.921
 20
   62.295
 30
  319.973
 11
  479.921
 21
   61.511
 31
  327.807
 12
  705.512
 22
   61.511
 32
  327.807
 13
  705.512
 23
   61.511
 33
  327.807
 70
 12
  0
3DFACE
  8
Roof_purlins
 39
    0.000
 62
4
 10
  479.921
 20
   62.295
 30
  319.973
 11
  705.512
 21
   61.511
 31
  327.807
 12
  705.512
 22
   62.295
 32
  319.973
 13
  705.512
 23
   62.295
 33
  319.973
 70
  5
  0
3DFACE
  8
Roof_purlins
 39
    0.000
 62
4
 10
  479.921
 20
    0.984
 30
  313.878
 11
  479.921
 21
    0.984
 31
  321.752
 12
  705.512
 22
    0.984
 32
  321.752
 13
  705.512
 23
    0.984
 33
  321.752
 70
 12
  0
3DFACE
  8
Roof_purlins
 39
    0.000
 62
4
 10
  479.921
 20
    0.984
 30
  313.878
 11
  705.512
 21
    0.984
 31
  321.752
 12
  705.512
 22
    0.984
 32
  313.878
 13
  705.512
 23
    0.984
 33
  313.878
 70
  5
  0
3DFACE
  8
Roof_purlins
 39
    0.000
 62
4
 10
  705.512
 20
  431.354
 30
  356.895
 11
  705.512
 21
  430.570
 31
  364.730
 12
  950.787
 22
  430.570
 32
  364.730
 13
  950.787
 23
  430.570
 33
  364.730
 70
 12
  0
3DFACE
  8
Roof_purlins
 39
    0.000
 62
4
 10
  705.512
 20
  431.354
 30
  356.895
 11
  950.787
 21
  430.570
 31
  364.730
 12
  950.787
 22
  431.354
 32
  356.895
 13
  950.787
 23
  431.354
 33
  356.895
 70
  5
  0
3DFACE
  8
Roof_purlins
 39
    0.000
 62
4
 10
  705.512
 20
  369.846
 30
  350.741
 11
  705.512
 21
  369.063
 31
  358.576
 12
  950.787
 22
  369.063
 32
  358.576
 13
  950.787
 23
  369.063
 33
  358.576
 70
 12
  0
3DFACE
  8
Roof_purlins
 39
    0.000
 62
4
 10
  705.512
 20
  369.846
 30
  350.741
 11
  950.787
 21
  369.063
 31
  358.576
 12
  950.787
 22
  369.846
 32
  350.741
 13
  950.787
 23
  369.846
 33
  350.741
 70
  5
  0
3DFACE
  8
Roof_purlins
 39
    0.000
 62
4
 10
  705.512
 20
  308.335
 30
  344.587
 11
  705.512
 21
  307.551
 31
  352.422
 12
  950.787
 22
  307.551
 32
  352.422
 13
  950.787
 23
  307.551
 33
  352.422
 70
 12
  0
3DFACE
  8
Roof_purlins
 39
    0.000
 62
4
 10
  705.512
 20
  308.335
 30
  344.587
 11
  950.787
 21
  307.551
 31
  352.422
 12
  950.787
 22
  308.335
 32
  344.587
 13
  950.787
 23
  308.335
 33
  344.587
 70
  5
  0
3DFACE
  8
Roof_purlins
 39
    0.000
 62
4
 10
  705.512
 20
  246.827
 30
  338.434
 11
  705.512
 21
  246.043
 31
  346.269
 12
  950.787
 22
  246.043
 32
  346.269
 13
  950.787
 23
  246.043
 33
  346.269
 70
 12
  0
3DFACE
  8
Roof_purlins
 39
    0.000
 62
4
 10
  705.512
 20
  246.827
 30
  338.434
 11
  950.787
 21
  246.043
 31
  346.269
 12
  950.787
 22
  246.827
 32
  338.434
 13
  950.787
 23
  246.827
 33
  338.434
 70
  5
  0
3DFACE
  8
Roof_purlins
 39
    0.000
 62
4
 10
  705.512
 20
  185.315
 30
  332.280
 11
  705.512
 21
  184.531
 31
  340.115
 12
  950.787
 22
  184.531
 32
  340.115
 13
  950.787
 23
  184.531
 33
  340.115
 70
 12
  0
3DFACE
  8
Roof_purlins
 39
    0.000
 62
4
 10
  705.512
 20
  185.315
 30
  332.280
 11
  950.787
 21
  184.531
 31
  340.115
 12
  950.787
 22
  185.315
 32
  332.280
 13
  950.787
 23
  185.315
 33
  332.280
 70
  5
  0
3DFACE
  8
Roof_purlins
 39
    0.000
 62
4
 10
  705.512
 20
  123.807
 30
  326.126
 11
  705.512
 21
  123.023
 31
  333.961
 12
  950.787
 22
  123.023
 32
  333.961
 13
  950.787
 23
  123.023
 33
  333.961
 70
 12
  0
3DFACE
  8
Roof_purlins
 39
    0.000
 62
4
 10
  705.512
 20
  123.807
 30
  326.126
 11
  950.787
 21
  123.023
 31
  333.961
 12
  950.787
 22
  123.807
 32
  326.126
 13
  950.787
 23
  123.807
 33
  326.126
 70
  5
  0
3DFACE
  8
Roof_purlins
 39
    0.000
 62
4
 10
  705.512
 20
   62.295
 30
  319.973
 11
  705.512
 21
   61.511
 31
  327.807
 12
  950.787
 22
   61.511
 32
  327.807
 13
  950.787
 23
   61.511
 33
  327.807
 70
 12
  0
3DFACE
  8
Roof_purlins
 39
    0.000
 62
4
 10
  705.512
 20
   62.295
 30
  319.973
 11
  950.787
 21
   61.511
 31
  327.807
 12
  950.787
 22
   62.295
 32
  319.973
 13
  950.787
 23
   62.295
 33
  319.973
 70
  5
  0
3DFACE
  8
Roof_purlins
 39
    0.000
 62
4
 10
  705.512
 20
    0.984
 30
  313.878
 11
  705.512
 21
    0.984
 31
  321.752
 12
  950.787
 22
    0.984
 32
  321.752
 13
  950.787
 23
    0.984
 33
  321.752
 70
 12
  0
3DFACE
  8
Roof_purlins
 39
    0.000
 62
4
 10
  705.512
 20
    0.984
 30
  313.878
 11
  950.787
 21
    0.984
 31
  321.752
 12
  950.787
 22
    0.984
 32
  313.878
 13
  950.787
 23
    0.984
 33
  313.878
 70
  5
  0
3DFACE
  8
Roof_purlins
 39
    0.000
 62
4
 10
  950.787
 20
  431.354
 30
  356.895
 11
  950.787
 21
  430.570
 31
  364.730
 12
 1181.890
 22
  430.570
 32
  364.730
 13
 1181.890
 23
  430.570
 33
  364.730
 70
 12
  0
3DFACE
  8
Roof_purlins
 39
    0.000
 62
4
 10
  950.787
 20
  431.354
 30
  356.895
 11
 1181.890
 21
  430.570
 31
  364.730
 12
 1181.890
 22
  431.354
 32
  356.895
 13
 1181.890
 23
  431.354
 33
  356.895
 70
  5
  0
3DFACE
  8
Roof_purlins
 39
    0.000
 62
4
 10
  950.787
 20
  369.846
 30
  350.741
 11
  950.787
 21
  369.063
 31
  358.576
 12
 1181.890
 22
  369.063
 32
  358.576
 13
 1181.890
 23
  369.063
 33
  358.576
 70
 12
  0
3DFACE
  8
Roof_purlins
 39
    0.000
 62
4
 10
  950.787
 20
  369.846
 30
  350.741
 11
 1181.890
 21
  369.063
 31
  358.576
 12
 1181.890
 22
  369.846
 32
  350.741
 13
 1181.890
 23
  369.846
 33
  350.741
 70
  5
  0
3DFACE
  8
Roof_purlins
 39
    0.000
 62
4
 10
  950.787
 20
  308.335
 30
  344.587
 11
  950.787
 21
  307.551
 31
  352.422
 12
 1181.890
 22
  307.551
 32
  352.422
 13
 1181.890
 23
  307.551
 33
  352.422
 70
 12
  0
3DFACE
  8
Roof_purlins
 39
    0.000
 62
4
 10
  950.787
 20
  308.335
 30
  344.587
 11
 1181.890
 21
  307.551
 31
  352.422
 12
 1181.890
 22
  308.335
 32
  344.587
 13
 1181.890
 23
  308.335
 33
  344.587
 70
  5
  0
3DFACE
  8
Roof_purlins
 39
    0.000
 62
4
 10
  950.787
 20
  246.827
 30
  338.434
 11
  950.787
 21
  246.043
 31
  346.269
 12
 1181.890
 22
  246.043
 32
  346.269
 13
 1181.890
 23
  246.043
 33
  346.269
 70
 12
  0
3DFACE
  8
Roof_purlins
 39
    0.000
 62
4
 10
  950.787
 20
  246.827
 30
  338.434
 11
 1181.890
 21
  246.043
 31
  346.269
 12
 1181.890
 22
  246.827
 32
  338.434
 13
 1181.890
 23
  246.827
 33
  338.434
 70
  5
  0
3DFACE
  8
Roof_purlins
 39
    0.000
 62
4
 10
  950.787
 20
  185.315
 30
  332.280
 11
  950.787
 21
  184.531
 31
  340.115
 12
 1181.890
 22
  184.531
 32
  340.115
 13
 1181.890
 23
  184.531
 33
  340.115
 70
 12
  0
3DFACE
  8
Roof_purlins
 39
    0.000
 62
4
 10
  950.787
 20
  185.315
 30
  332.280
 11
 1181.890
 21
  184.531
 31
  340.115
 12
 1181.890
 22
  185.315
 32
  332.280
 13
 1181.890
 23
  185.315
 33
  332.280
 70
  5
  0
3DFACE
  8
Roof_purlins
 39
    0.000
 62
4
 10
  950.787
 20
  123.807
 30
  326.126
 11
  950.787
 21
  123.023
 31
  333.961
 12
 1181.890
 22
  123.023
 32
  333.961
 13
 1181.890
 23
  123.023
 33
  333.961
 70
 12
  0
3DFACE
  8
Roof_purlins
 39
    0.000
 62
4
 10
  950.787
 20
  123.807
 30
  326.126
 11
 1181.890
 21
  123.023
 31
  333.961
 12
 1181.890
 22
  123.807
 32
  326.126
 13
 1181.890
 23
  123.807
 33
  326.126
 70
  5
  0
3DFACE
  8
Roof_purlins
 39
    0.000
 62
4
 10
  950.787
 20
   62.295
 30
  319.973
 11
  950.787
 21
   61.511
 31
  327.807
 12
 1181.890
 22
   61.511
 32
  327.807
 13
 1181.890
 23
   61.511
 33
  327.807
 70
 12
  0
3DFACE
  8
Roof_purlins
 39
    0.000
 62
4
 10
  950.787
 20
   62.295
 30
  319.973
 11
 1181.890
 21
   61.511
 31
  327.807
 12
 1181.890
 22
   62.295
 32
  319.973
 13
 1181.890
 23
   62.295
 33
  319.973
 70
  5
  0
3DFACE
  8
Roof_purlins
 39
    0.000
 62
4
 10
  950.787
 20
    0.984
 30
  313.878
 11
  950.787
 21
    0.984
 31
  321.752
 12
 1181.890
 22
    0.984
 32
  321.752
 13
 1181.890
 23
    0.984
 33
  321.752
 70
 12
  0
3DFACE
  8
Roof_purlins
 39
    0.000
 62
4
 10
  950.787
 20
    0.984
 30
  313.878
 11
 1181.890
 21
    0.984
 31
  321.752
 12
 1181.890
 22
    0.984
 32
  313.878
 13
 1181.890
 23
    0.984
 33
  313.878
 70
  5
  0
3DFACE
  8
Roof_purlins
 39
    0.000
 62
4
 10
 1181.890
 20
  431.354
 30
  356.895
 11
 1181.890
 21
  430.570
 31
  364.730
 12
 1426.969
 22
  430.570
 32
  364.730
 13
 1426.969
 23
  430.570
 33
  364.730
 70
 12
  0
3DFACE
  8
Roof_purlins
 39
    0.000
 62
4
 10
 1181.890
 20
  431.354
 30
  356.895
 11
 1426.969
 21
  430.570
 31
  364.730
 12
 1426.969
 22
  431.354
 32
  356.895
 13
 1426.969
 23
  431.354
 33
  356.895
 70
  5
  0
3DFACE
  8
Roof_purlins
 39
    0.000
 62
4
 10
 1181.890
 20
  369.846
 30
  350.741
 11
 1181.890
 21
  369.063
 31
  358.576
 12
 1426.969
 22
  369.063
 32
  358.576
 13
 1426.969
 23
  369.063
 33
  358.576
 70
 12
  0
3DFACE
  8
Roof_purlins
 39
    0.000
 62
4
 10
 1181.890
 20
  369.846
 30
  350.741
 11
 1426.969
 21
  369.063
 31
  358.576
 12
 1426.969
 22
  369.846
 32
  350.741
 13
 1426.969
 23
  369.846
 33
  350.741
 70
  5
  0
3DFACE
  8
Roof_purlins
 39
    0.000
 62
4
 10
 1181.890
 20
  308.335
 30
  344.587
 11
 1181.890
 21
  307.551
 31
  352.422
 12
 1426.969
 22
  307.551
 32
  352.422
 13
 1426.969
 23
  307.551
 33
  352.422
 70
 12
  0
3DFACE
  8
Roof_purlins
 39
    0.000
 62
4
 10
 1181.890
 20
  308.335
 30
  344.587
 11
 1426.969
 21
  307.551
 31
  352.422
 12
 1426.969
 22
  308.335
 32
  344.587
 13
 1426.969
 23
  308.335
 33
  344.587
 70
  5
  0
3DFACE
  8
Roof_purlins
 39
    0.000
 62
4
 10
 1181.890
 20
  246.827
 30
  338.434
 11
 1181.890
 21
  246.043
 31
  346.269
 12
 1426.969
 22
  246.043
 32
  346.269
 13
 1426.969
 23
  246.043
 33
  346.269
 70
 12
  0
3DFACE
  8
Roof_purlins
 39
    0.000
 62
4
 10
 1181.890
 20
  246.827
 30
  338.434
 11
 1426.969
 21
  246.043
 31
  346.269
 12
 1426.969
 22
  246.827
 32
  338.434
 13
 1426.969
 23
  246.827
 33
  338.434
 70
  5
  0
3DFACE
  8
Roof_purlins
 39
    0.000
 62
4
 10
 1181.890
 20
  185.315
 30
  332.280
 11
 1181.890
 21
  184.531
 31
  340.115
 12
 1426.969
 22
  184.531
 32
  340.115
 13
 1426.969
 23
  184.531
 33
  340.115
 70
 12
  0
3DFACE
  8
Roof_purlins
 39
    0.000
 62
4
 10
 1181.890
 20
  185.315
 30
  332.280
 11
 1426.969
 21
  184.531
 31
  340.115
 12
 1426.969
 22
  185.315
 32
  332.280
 13
 1426.969
 23
  185.315
 33
  332.280
 70
  5
  0
3DFACE
  8
Roof_purlins
 39
    0.000
 62
4
 10
 1181.890
 20
  123.807
 30
  326.126
 11
 1181.890
 21
  123.023
 31
  333.961
 12
 1426.969
 22
  123.023
 32
  333.961
 13
 1426.969
 23
  123.023
 33
  333.961
 70
 12
  0
3DFACE
  8
Roof_purlins
 39
    0.000
 62
4
 10
 1181.890
 20
  123.807
 30
  326.126
 11
 1426.969
 21
  123.023
 31
  333.961
 12
 1426.969
 22
  123.807
 32
  326.126
 13
 1426.969
 23
  123.807
 33
  326.126
 70
  5
  0
3DFACE
  8
Roof_purlins
 39
    0.000
 62
4
 10
 1181.890
 20
   62.295
 30
  319.973
 11
 1181.890
 21
   61.511
 31
  327.807
 12
 1426.969
 22
   61.511
 32
  327.807
 13
 1426.969
 23
   61.511
 33
  327.807
 70
 12
  0
3DFACE
  8
Roof_purlins
 39
    0.000
 62
4
 10
 1181.890
 20
   62.295
 30
  319.973
 11
 1426.969
 21
   61.511
 31
  327.807
 12
 1426.969
 22
   62.295
 32
  319.973
 13
 1426.969
 23
   62.295
 33
  319.973
 70
  5
  0
3DFACE
  8
Roof_purlins
 39
    0.000
 62
4
 10
 1181.890
 20
    0.984
 30
  313.878
 11
 1181.890
 21
    0.984
 31
  321.752
 12
 1426.969
 22
    0.984
 32
  321.752
 13
 1426.969
 23
    0.984
 33
  321.752
 70
 12
  0
3DFACE
  8
Roof_purlins
 39
    0.000
 62
4
 10
 1181.890
 20
    0.984
 30
  313.878
 11
 1426.969
 21
    0.984
 31
  321.752
 12
 1426.969
 22
    0.984
 32
  313.878
 13
 1426.969
 23
    0.984
 33
  313.878
 70
  5
999
END:     AREA=Draw Purlins
999
START:   AREA=Draw Endwall Rafters
999
END:     AREA=Draw Endwall Rafters
999
START:   AREA=Draw Cable Bracing
  0
3DFACE
  8
Wind_bracing
 39
    0.000
 62
7
 10
  244.094
 20
   16.929
 30
    6.000
 11
  479.921
 21
   16.929
 31
  227.465
 12
  479.921
 22
   15.929
 32
  227.465
 13
  479.921
 23
   15.929
 33
  227.465
 70
 12
  0
3DFACE
  8
Wind_bracing
 39
    0.000
 62
7
 10
  244.094
 20
   16.929
 30
    6.000
 11
  479.921
 21
   15.929
 31
  227.465
 12
  244.094
 22
   15.929
 32
    6.000
 13
  244.094
 23
   15.929
 33
    6.000
 70
  5
  0
3DFACE
  8
Wind_bracing
 39
    0.000
 62
7
 10
  244.094
 20
   16.929
 30
  227.465
 11
  479.921
 21
   16.929
 31
    6.000
 12
  479.921
 22
   15.929
 32
    6.000
 13
  479.921
 23
   15.929
 33
    6.000
 70
 12
  0
3DFACE
  8
Wind_bracing
 39
    0.000
 62
7
 10
  244.094
 20
   16.929
 30
  227.465
 11
  479.921
 21
   15.929
 31
    6.000
 12
  244.094
 22
   15.929
 32
  227.465
 13
  244.094
 23
   15.929
 33
  227.465
 70
  5
  0
3DFACE
  8
Wind_bracing
 39
    0.000
 62
7
 10
  244.094
 20
   16.929
 30
  239.465
 11
  479.921
 21
   16.929
 31
  300.795
 12
  479.921
 22
   15.929
 32
  300.795
 13
  479.921
 23
   15.929
 33
  300.795
 70
 12
  0
3DFACE
  8
Wind_bracing
 39
    0.000
 62
7
 10
  244.094
 20
   16.929
 30
  239.465
 11
  479.921
 21
   15.929
 31
  300.795
 12
  244.094
 22
   15.929
 32
  239.465
 13
  244.094
 23
   15.929
 33
  239.465
 70
  5
  0
3DFACE
  8
Wind_bracing
 39
    0.000
 62
7
 10
  244.094
 20
   16.929
 30
  300.795
 11
  479.921
 21
   16.929
 31
  239.465
 12
  479.921
 22
   15.929
 32
  239.465
 13
  479.921
 23
   15.929
 33
  239.465
 70
 12
  0
3DFACE
  8
Wind_bracing
 39
    0.000
 62
7
 10
  244.094
 20
   16.929
 30
  300.795
 11
  479.921
 21
   15.929
 31
  239.465
 12
  244.094
 22
   15.929
 32
  300.795
 13
  244.094
 23
   15.929
 33
  300.795
 70
  5
  0
3DFACE
  8
Wind_bracing
 39
    0.000
 62
7
 10
  950.787
 20
   16.929
 30
    6.000
 11
 1181.890
 21
   16.929
 31
  227.465
 12
 1181.890
 22
   15.929
 32
  227.465
 13
 1181.890
 23
   15.929
 33
  227.465
 70
 12
  0
3DFACE
  8
Wind_bracing
 39
    0.000
 62
7
 10
  950.787
 20
   16.929
 30
    6.000
 11
 1181.890
 21
   15.929
 31
  227.465
 12
  950.787
 22
   15.929
 32
    6.000
 13
  950.787
 23
   15.929
 33
    6.000
 70
  5
  0
3DFACE
  8
Wind_bracing
 39
    0.000
 62
7
 10
  950.787
 20
   16.929
 30
  227.465
 11
 1181.890
 21
   16.929
 31
    6.000
 12
 1181.890
 22
   15.929
 32
    6.000
 13
 1181.890
 23
   15.929
 33
    6.000
 70
 12
  0
3DFACE
  8
Wind_bracing
 39
    0.000
 62
7
 10
  950.787
 20
   16.929
 30
  227.465
 11
 1181.890
 21
   15.929
 31
    6.000
 12
  950.787
 22
   15.929
 32
  227.465
 13
  950.787
 23
   15.929
 33
  227.465
 70
  5
  0
3DFACE
  8
Wind_bracing
 39
    0.000
 62
7
 10
  950.787
 20
   16.929
 30
  239.465
 11
 1181.890
 21
   16.929
 31
  300.795
 12
 1181.890
 22
   15.929
 32
  300.795
 13
 1181.890
 23
   15.929
 33
  300.795
 70
 12
  0
3DFACE
  8
Wind_bracing
 39
    0.000
 62
7
 10
  950.787
 20
   16.929
 30
  239.465
 11
 1181.890
 21
   15.929
 31
  300.795
 12
  950.787
 22
   15.929
 32
  239.465
 13
  950.787
 23
   15.929
 33
  239.465
 70
  5
  0
3DFACE
  8
Wind_bracing
 39
    0.000
 62
7
 10
  950.787
 20
   16.929
 30
  300.795
 11
 1181.890
 21
   16.929
 31
  239.465
 12
 1181.890
 22
   15.929
 32
  239.465
 13
 1181.890
 23
   15.929
 33
  239.465
 70
 12
  0
3DFACE
  8
Wind_bracing
 39
    0.000
 62
7
 10
  950.787
 20
   16.929
 30
  300.795
 11
 1181.890
 21
   15.929
 31
  239.465
 12
  950.787
 22
   15.929
 32
  300.795
 13
  950.787
 23
   15.929
 33
  300.795
 70
  5
  0
3DFACE
  8
Wind_bracing
 39
    0.000
 62
7
 10
 1181.890
 20
  867.717
 30
    6.000
 11
  950.787
 21
  867.716
 31
  227.465
 12
  950.787
 22
  868.716
 32
  227.465
 13
  950.787
 23
  868.716
 33
  227.465
 70
 12
  0
3DFACE
  8
Wind_bracing
 39
    0.000
 62
7
 10
 1181.890
 20
  867.717
 30
    6.000
 11
  950.787
 21
  868.716
 31
  227.465
 12
 1181.890
 22
  868.717
 32
    6.000
 13
 1181.890
 23
  868.717
 33
    6.000
 70
  5
  0
3DFACE
  8
Wind_bracing
 39
    0.000
 62
7
 10
 1181.890
 20
  867.716
 30
  227.465
 11
  950.787
 21
  867.717
 31
    6.000
 12
  950.787
 22
  868.717
 32
    6.000
 13
  950.787
 23
  868.717
 33
    6.000
 70
 12
  0
3DFACE
  8
Wind_bracing
 39
    0.000
 62
7
 10
 1181.890
 20
  867.716
 30
  227.465
 11
  950.787
 21
  868.717
 31
    6.000
 12
 1181.890
 22
  868.716
 32
  227.465
 13
 1181.890
 23
  868.716
 33
  227.465
 70
  5
  0
3DFACE
  8
Wind_bracing
 39
    0.000
 62
7
 10
 1181.890
 20
  867.716
 30
  239.465
 11
  950.787
 21
  867.716
 31
  300.795
 12
  950.787
 22
  868.716
 32
  300.795
 13
  950.787
 23
  868.716
 33
  300.795
 70
 12
  0
3DFACE
  8
Wind_bracing
 39
    0.000
 62
7
 10
 1181.890
 20
  867.716
 30
  239.465
 11
  950.787
 21
  868.716
 31
  300.795
 12
 1181.890
 22
  868.716
 32
  239.465
 13
 1181.890
 23
  868.716
 33
  239.465
 70
  5
  0
3DFACE
  8
Wind_bracing
 39
    0.000
 62
7
 10
 1181.890
 20
  867.716
 30
  300.795
 11
  950.787
 21
  867.716
 31
  239.465
 12
  950.787
 22
  868.716
 32
  239.465
 13
  950.787
 23
  868.716
 33
  239.465
 70
 12
  0
3DFACE
  8
Wind_bracing
 39
    0.000
 62
7
 10
 1181.890
 20
  867.716
 30
  300.795
 11
  950.787
 21
  868.716
 31
  239.465
 12
 1181.890
 22
  868.716
 32
  300.795
 13
 1181.890
 23
  868.716
 33
  300.795
 70
  5
  0
3DFACE
  8
Wind_bracing
 39
    0.000
 62
7
 10
  479.921
 20
  867.716
 30
    6.000
 11
  244.094
 21
  867.716
 31
  227.465
 12
  244.094
 22
  868.716
 32
  227.465
 13
  244.094
 23
  868.716
 33
  227.465
 70
 12
  0
3DFACE
  8
Wind_bracing
 39
    0.000
 62
7
 10
  479.921
 20
  867.716
 30
    6.000
 11
  244.094
 21
  868.716
 31
  227.465
 12
  479.921
 22
  868.716
 32
    6.000
 13
  479.921
 23
  868.716
 33
    6.000
 70
  5
  0
3DFACE
  8
Wind_bracing
 39
    0.000
 62
7
 10
  479.921
 20
  867.716
 30
  227.465
 11
  244.094
 21
  867.716
 31
    6.000
 12
  244.094
 22
  868.716
 32
    6.000
 13
  244.094
 23
  868.716
 33
    6.000
 70
 12
  0
3DFACE
  8
Wind_bracing
 39
    0.000
 62
7
 10
  479.921
 20
  867.716
 30
  227.465
 11
  244.094
 21
  868.716
 31
    6.000
 12
  479.921
 22
  868.716
 32
  227.465
 13
  479.921
 23
  868.716
 33
  227.465
 70
  5
  0
3DFACE
  8
Wind_bracing
 39
    0.000
 62
7
 10
  479.921
 20
  867.716
 30
  239.465
 11
  244.094
 21
  867.716
 31
  300.795
 12
  244.094
 22
  868.716
 32
  300.795
 13
  244.094
 23
  868.716
 33
  300.795
 70
 12
  0
3DFACE
  8
Wind_bracing
 39
    0.000
 62
7
 10
  479.921
 20
  867.716
 30
  239.465
 11
  244.094
 21
  868.716
 31
  300.795
 12
  479.921
 22
  868.716
 32
  239.465
 13
  479.921
 23
  868.716
 33
  239.465
 70
  5
  0
3DFACE
  8
Wind_bracing
 39
    0.000
 62
7
 10
  479.921
 20
  867.716
 30
  300.795
 11
  244.094
 21
  867.716
 31
  239.465
 12
  244.094
 22
  868.716
 32
  239.465
 13
  244.094
 23
  868.716
 33
  239.465
 70
 12
  0
3DFACE
  8
Wind_bracing
 39
    0.000
 62
7
 10
  479.921
 20
  867.716
 30
  300.795
 11
  244.094
 21
  868.716
 31
  239.465
 12
  479.921
 22
  868.716
 32
  300.795
 13
  479.921
 23
  868.716
 33
  300.795
 70
  5
  0
3DFACE
  8
Wind_bracing
 39
    0.000
 62
7
 10
  244.094
 20
  875.787
 30
  312.795
 11
  479.921
 21
  638.622
 31
  337.409
 12
  480.921
 22
  638.622
 32
  337.409
 13
  480.921
 23
  638.622
 33
  337.409
 70
 12
  0
3DFACE
  8
Wind_bracing
 39
    0.000
 62
7
 10
  244.094
 20
  875.787
 30
  312.795
 11
  480.921
 21
  638.622
 31
  337.409
 12
  245.094
 22
  875.787
 32
  312.795
 13
  245.094
 23
  875.787
 33
  312.795
 70
  5
  0
3DFACE
  8
Wind_bracing
 39
    0.000
 62
7
 10
  479.921
 20
  875.787
 30
  312.795
 11
  244.094
 21
  638.622
 31
  337.409
 12
  245.094
 22
  638.622
 32
  337.409
 13
  245.094
 23
  638.622
 33
  337.409
 70
 12
  0
3DFACE
  8
Wind_bracing
 39
    0.000
 62
7
 10
  479.921
 20
  875.787
 30
  312.795
 11
  245.094
 21
  638.622
 31
  337.409
 12
  480.921
 22
  875.787
 32
  312.795
 13
  480.921
 23
  875.787
 33
  312.795
 70
  5
  0
3DFACE
  8
Wind_bracing
 39
    0.000
 62
7
 10
  244.094
 20
  638.622
 30
  337.409
 11
  479.921
 21
  442.323
 31
  357.047
 12
  480.921
 22
  442.323
 32
  357.047
 13
  480.921
 23
  442.323
 33
  357.047
 70
 12
  0
3DFACE
  8
Wind_bracing
 39
    0.000
 62
7
 10
  244.094
 20
  638.622
 30
  337.409
 11
  480.921
 21
  442.323
 31
  357.047
 12
  245.094
 22
  638.622
 32
  337.409
 13
  245.094
 23
  638.622
 33
  337.409
 70
  5
  0
3DFACE
  8
Wind_bracing
 39
    0.000
 62
7
 10
  479.921
 20
  638.622
 30
  337.409
 11
  244.094
 21
  442.323
 31
  357.047
 12
  245.094
 22
  442.323
 32
  357.047
 13
  245.094
 23
  442.323
 33
  357.047
 70
 12
  0
3DFACE
  8
Wind_bracing
 39
    0.000
 62
7
 10
  479.921
 20
  638.622
 30
  337.409
 11
  245.094
 21
  442.323
 31
  357.047
 12
  480.921
 22
  638.622
 32
  337.409
 13
  480.921
 23
  638.622
 33
  337.409
 70
  5
  0
3DFACE
  8
Wind_bracing
 39
    0.000
 62
7
 10
  244.094
 20
  442.323
 30
  357.047
 11
  479.921
 21
  246.024
 31
  337.409
 12
  480.921
 22
  246.024
 32
  337.409
 13
  480.921
 23
  246.024
 33
  337.409
 70
 12
  0
3DFACE
  8
Wind_bracing
 39
    0.000
 62
7
 10
  244.094
 20
  442.323
 30
  357.047
 11
  480.921
 21
  246.024
 31
  337.409
 12
  245.094
 22
  442.323
 32
  357.047
 13
  245.094
 23
  442.323
 33
  357.047
 70
  5
  0
3DFACE
  8
Wind_bracing
 39
    0.000
 62
7
 10
  479.921
 20
  442.323
 30
  357.047
 11
  244.094
 21
  246.024
 31
  337.409
 12
  245.094
 22
  246.024
 32
  337.409
 13
  245.094
 23
  246.024
 33
  337.409
 70
 12
  0
3DFACE
  8
Wind_bracing
 39
    0.000
 62
7
 10
  479.921
 20
  442.323
 30
  357.047
 11
  245.094
 21
  246.024
 31
  337.409
 12
  480.921
 22
  442.323
 32
  357.047
 13
  480.921
 23
  442.323
 33
  357.047
 70
  5
  0
3DFACE
  8
Wind_bracing
 39
    0.000
 62
7
 10
  244.094
 20
  246.024
 30
  337.409
 11
  479.921
 21
    8.858
 31
  312.795
 12
  480.921
 22
    8.858
 32
  312.795
 13
  480.921
 23
    8.858
 33
  312.795
 70
 12
  0
3DFACE
  8
Wind_bracing
 39
    0.000
 62
7
 10
  244.094
 20
  246.024
 30
  337.409
 11
  480.921
 21
    8.858
 31
  312.795
 12
  245.094
 22
  246.024
 32
  337.409
 13
  245.094
 23
  246.024
 33
  337.409
 70
  5
  0
3DFACE
  8
Wind_bracing
 39
    0.000
 62
7
 10
  479.921
 20
  246.024
 30
  337.409
 11
  244.094
 21
    8.858
 31
  312.795
 12
  245.094
 22
    8.858
 32
  312.795
 13
  245.094
 23
    8.858
 33
  312.795
 70
 12
  0
3DFACE
  8
Wind_bracing
 39
    0.000
 62
7
 10
  479.921
 20
  246.024
 30
  337.409
 11
  245.094
 21
    8.858
 31
  312.795
 12
  480.921
 22
  246.024
 32
  337.409
 13
  480.921
 23
  246.024
 33
  337.409
 70
  5
  0
3DFACE
  8
Wind_bracing
 39
    0.000
 62
7
 10
  950.787
 20
  875.787
 30
  312.795
 11
 1181.890
 21
  638.622
 31
  337.409
 12
 1182.890
 22
  638.622
 32
  337.409
 13
 1182.890
 23
  638.622
 33
  337.409
 70
 12
  0
3DFACE
  8
Wind_bracing
 39
    0.000
 62
7
 10
  950.787
 20
  875.787
 30
  312.795
 11
 1182.890
 21
  638.622
 31
  337.409
 12
  951.787
 22
  875.787
 32
  312.795
 13
  951.787
 23
  875.787
 33
  312.795
 70
  5
  0
3DFACE
  8
Wind_bracing
 39
    0.000
 62
7
 10
 1181.890
 20
  875.787
 30
  312.795
 11
  950.787
 21
  638.622
 31
  337.409
 12
  951.787
 22
  638.622
 32
  337.409
 13
  951.787
 23
  638.622
 33
  337.409
 70
 12
  0
3DFACE
  8
Wind_bracing
 39
    0.000
 62
7
 10
 1181.890
 20
  875.787
 30
  312.795
 11
  951.787
 21
  638.622
 31
  337.409
 12
 1182.890
 22
  875.787
 32
  312.795
 13
 1182.890
 23
  875.787
 33
  312.795
 70
  5
  0
3DFACE
  8
Wind_bracing
 39
    0.000
 62
7
 10
  950.787
 20
  638.622
 30
  337.409
 11
 1181.890
 21
  442.323
 31
  357.047
 12
 1182.890
 22
  442.323
 32
  357.047
 13
 1182.890
 23
  442.323
 33
  357.047
 70
 12
  0
3DFACE
  8
Wind_bracing
 39
    0.000
 62
7
 10
  950.787
 20
  638.622
 30
  337.409
 11
 1182.890
 21
  442.323
 31
  357.047
 12
  951.787
 22
  638.622
 32
  337.409
 13
  951.787
 23
  638.622
 33
  337.409
 70
  5
  0
3DFACE
  8
Wind_bracing
 39
    0.000
 62
7
 10
 1181.890
 20
  638.622
 30
  337.409
 11
  950.787
 21
  442.323
 31
  357.047
 12
  951.787
 22
  442.323
 32
  357.047
 13
  951.787
 23
  442.323
 33
  357.047
 70
 12
  0
3DFACE
  8
Wind_bracing
 39
    0.000
 62
7
 10
 1181.890
 20
  638.622
 30
  337.409
 11
  951.787
 21
  442.323
 31
  357.047
 12
 1182.890
 22
  638.622
 32
  337.409
 13
 1182.890
 23
  638.622
 33
  337.409
 70
  5
  0
3DFACE
  8
Wind_bracing
 39
    0.000
 62
7
 10
  950.787
 20
  442.323
 30
  357.047
 11
 1181.890
 21
  246.024
 31
  337.409
 12
 1182.890
 22
  246.024
 32
  337.409
 13
 1182.890
 23
  246.024
 33
  337.409
 70
 12
  0
3DFACE
  8
Wind_bracing
 39
    0.000
 62
7
 10
  950.787
 20
  442.323
 30
  357.047
 11
 1182.890
 21
  246.024
 31
  337.409
 12
  951.787
 22
  442.323
 32
  357.047
 13
  951.787
 23
  442.323
 33
  357.047
 70
  5
  0
3DFACE
  8
Wind_bracing
 39
    0.000
 62
7
 10
 1181.890
 20
  442.323
 30
  357.047
 11
  950.787
 21
  246.024
 31
  337.409
 12
  951.787
 22
  246.024
 32
  337.409
 13
  951.787
 23
  246.024
 33
  337.409
 70
 12
  0
3DFACE
  8
Wind_bracing
 39
    0.000
 62
7
 10
 1181.890
 20
  442.323
 30
  357.047
 11
  951.787
 21
  246.024
 31
  337.409
 12
 1182.890
 22
  442.323
 32
  357.047
 13
 1182.890
 23
  442.323
 33
  357.047
 70
  5
  0
3DFACE
  8
Wind_bracing
 39
    0.000
 62
7
 10
  950.787
 20
  246.024
 30
  337.409
 11
 1181.890
 21
    8.858
 31
  312.795
 12
 1182.890
 22
    8.858
 32
  312.795
 13
 1182.890
 23
    8.858
 33
  312.795
 70
 12
  0
3DFACE
  8
Wind_bracing
 39
    0.000
 62
7
 10
  950.787
 20
  246.024
 30
  337.409
 11
 1182.890
 21
    8.858
 31
  312.795
 12
  951.787
 22
  246.024
 32
  337.409
 13
  951.787
 23
  246.024
 33
  337.409
 70
  5
  0
3DFACE
  8
Wind_bracing
 39
    0.000
 62
7
 10
 1181.890
 20
  246.024
 30
  337.409
 11
  950.787
 21
    8.858
 31
  312.795
 12
  951.787
 22
    8.858
 32
  312.795
 13
  951.787
 23
    8.858
 33
  312.795
 70
 12
  0
3DFACE
  8
Wind_bracing
 39
    0.000
 62
7
 10
 1181.890
 20
  246.024
 30
  337.409
 11
  951.787
 21
    8.858
 31
  312.795
 12
 1182.890
 22
  246.024
 32
  337.409
 13
 1182.890
 23
  246.024
 33
  337.409
 70
  5
999
END:     AREA=Draw Cable Bracing
999
START:   AREA=Draw Backbrace Struts
999
END:     AREA=Draw Backbrace Struts
999
START:   AREA=Draw Wall Struts
  0
3DFACE
  8
Building_Struts
 39
    0.000
 62
4
 10
  244.094
 20
    8.858
 30
  233.465
 11
  479.921
 21
    8.858
 31
  233.465
 12
  479.921
 22
    0.984
 32
  233.465
 13
  479.921
 23
    0.984
 33
  233.465
 70
 12
  0
3DFACE
  8
Building_Struts
 39
    0.000
 62
4
 10
  244.094
 20
    8.858
 30
  233.465
 11
  479.921
 21
    0.984
 31
  233.465
 12
  244.094
 22
    0.984
 32
  233.465
 13
  244.094
 23
    0.984
 33
  233.465
 70
  5
  0
3DFACE
  8
Building_Struts
 39
    0.000
 62
4
 10
  950.787
 20
    8.858
 30
  233.465
 11
 1181.890
 21
    8.858
 31
  233.465
 12
 1181.890
 22
    0.984
 32
  233.465
 13
 1181.890
 23
    0.984
 33
  233.465
 70
 12
  0
3DFACE
  8
Building_Struts
 39
    0.000
 62
4
 10
  950.787
 20
    8.858
 30
  233.465
 11
 1181.890
 21
    0.984
 31
  233.465
 12
  950.787
 22
    0.984
 32
  233.465
 13
  950.787
 23
    0.984
 33
  233.465
 70
  5
  0
3DFACE
  8
Building_Struts
 39
    0.000
 62
4
 10
 1181.890
 20
  875.787
 30
  233.465
 11
  950.787
 21
  875.787
 31
  233.465
 12
  950.787
 22
  883.661
 32
  233.465
 13
  950.787
 23
  883.661
 33
  233.465
 70
 12
  0
3DFACE
  8
Building_Struts
 39
    0.000
 62
4
 10
 1181.890
 20
  875.787
 30
  233.465
 11
  950.787
 21
  883.661
 31
  233.465
 12
 1181.890
 22
  883.661
 32
  233.465
 13
 1181.890
 23
  883.661
 33
  233.465
 70
  5
  0
3DFACE
  8
Building_Struts
 39
    0.000
 62
4
 10
  479.921
 20
  875.787
 30
  233.465
 11
  244.094
 21
  875.787
 31
  233.465
 12
  244.094
 22
  883.661
 32
  233.465
 13
  244.094
 23
  883.661
 33
  233.465
 70
 12
  0
3DFACE
  8
Building_Struts
 39
    0.000
 62
4
 10
  479.921
 20
  875.787
 30
  233.465
 11
  244.094
 21
  883.661
 31
  233.465
 12
  479.921
 22
  883.661
 32
  233.465
 13
  479.921
 23
  883.661
 33
  233.465
 70
  5
999
END:     AREA=Draw Wall Struts
999
START:   AREA=Draw Roof Struts
999
END:     AREA=Draw Roof Struts
999
START:   AREA=Draw Wall Struts
999
END:     AREA=Draw Wall Struts
999
START:   AREA=Draw Roof Opening
999
START:   AREA=JackBeams
999
END:     AREA=JackBeams
999
START:   AREA=Draw Mezzines
999
END:     AREA=Draw Mezzines
  0
ENDBLK
  8
Default
  0
ENDSEC
999
==================== Start of Entities Section
  0
SECTION
  2
ENTITIES
  0
INSERT
  8
Default
  2
BUILD1
 10
     0.000
 20
     0.000
 30
     0.000
 41
    25.400
 42
    25.400
 43
    25.400
 50
     0.000
  0
ENDSEC
  0
EOF
