999
SOURCE:MBS   PROGRAM:ANDWG   CELL:ANDWG-1   CLASS:PLAN   MODE:---
  0
SECTION
  2
HEADER
  9
$ACADVER
  1
AC1009
  9
$EXTMIN
 10
 0.00     
 20
 0.00     
  9
$EXTMAX
 10
 56851.773
 20
 40202.328
  9
$LIMMIN
 10
 0.00     
 20
 0.00     
  9
$LIMMAX
 10
 56851.773
 20
 40202.328
  9
$FILLMODE
 70
     1
  9
$HANDLING
 70
     0
  0
ENDSEC
  0
SECTION
  2
TABLES
  0
TABLE
  2
LTYPE
 70
1
  0
LTYPE
  2
CONTIN
 70
    64
  3
SOLID LINE
 72
    65
 73
     0
 40
0.0
  0
LTYPE
  2
CONTINUOUS
 70
    64
  3
SOLID LINE
 72
    65
 73
     0
 40
0.0
  0
LTYPE
  2
CENTER
 70
    64
  3
____ _ ____ _ ____ _ ____ _ ____ _ ____ _ ____
 72
    65
 73
     4
 40
     5.080
 49
     3.175
 49
    -0.635
 49
     0.635
 49
    -0.635
  0
LTYPE
  2
DASHED
 70
    64
  3
__ __ __ __ __ __ __ __ __ __ __ __ __ __ __ 
 72
    65
 73
     2
 40
    4.762
 49
    3.175
 49
   -1.587
  0
ENDTAB
  0
TABLE
  2
LAYER
 70
50
  0
LAYER
  2
0
 70
     0
 62
     7
  6
CONTIN
  0
LAYER
  2
1
 70
     0
 62
     7
  6
CONTIN
  0
LAYER
  2
2
 70
     0
 62
     6
  6
CONTIN
  0
LAYER
  2
3
 70
     0
 62
     7
  6
CONTIN
  0
LAYER
  2
4
 70
     0
 62
     7
  6
CENTER
  0
LAYER
  2
5
 70
     0
 62
     5
  6
DASHED
  0
LAYER
  2
6
 70
     0
 62
     6
  6
CONTIN
  0
LAYER
  2
7
 70
     0
 62
     7
  6
CONTIN
  0
LAYER
  2
8
 70
     0
 62
     8
  6
CENTER
  0
LAYER
  2
9
 70
     0
 62
     9
  6
DASHED
  0
LAYER
  2
10
 70
     0
 62
    10
  6
CONTIN
  0
LAYER
  2
11
 70
     0
 62
     7
  6
CONTIN
  0
LAYER
  2
12
 70
     0
 62
     6
  6
CONTIN
  0
LAYER
  2
13
 70
     0
 62
     1
  6
CONTIN
  0
LAYER
  2
14
 70
     0
 62
     7
  6
CONTIN
  0
LAYER
  2
15
 70
     0
 62
     7
  6
CONTIN
  0
LAYER
  2
16
 70
     0
 62
     7
  6
CONTIN
  0
LAYER
  2
17
 70
     0
 62
     5
  6
CONTIN
  0
LAYER
  2
18
 70
     0
 62
     7
  6
CONTIN
  0
LAYER
  2
19
 70
     0
 62
     7
  6
CONTIN
  0
LAYER
  2
20
 70
     0
 62
     7
  6
CONTIN
  0
LAYER
  2
21
 70
     0
 62
     7
  6
CONTIN
  0
LAYER
  2
22
 70
     0
 62
     7
  6
CONTIN
  0
LAYER
  2
23
 70
     0
 62
     7
  6
DASHED
  0
LAYER
  2
24
 70
     0
 62
     7
  6
CONTIN
  0
LAYER
  2
25
 70
     0
 62
     7
  6
CONTIN
  0
LAYER
  2
26
 70
     0
 62
     7
  6
CONTIN
  0
LAYER
  2
27
 70
     0
 62
     1
  6
CENTER
  0
LAYER
  2
28
 70
     0
 62
     7
  6
CONTIN
  0
LAYER
  2
29
 70
     0
 62
     7
  6
CONTIN
  0
LAYER
  2
30
 70
     0
 62
     7
  6
CONTIN
  0
LAYER
  2
31
 70
     0
 62
     7
  6
CONTIN
  0
LAYER
  2
32
 70
     0
 62
     7
  6
CONTIN
  0
LAYER
  2
33
 70
     0
 62
     7
  6
CONTIN
  0
LAYER
  2
34
 70
     0
 62
     7
  6
CONTIN
  0
LAYER
  2
35
 70
     0
 62
     7
  6
CONTIN
  0
LAYER
  2
36
 70
     0
 62
     7
  6
CONTIN
  0
LAYER
  2
37
 70
     0
 62
     7
  6
CONTIN
  0
LAYER
  2
38
 70
     0
 62
     7
  6
CONTIN
  0
LAYER
  2
39
 70
     0
 62
     7
  6
CONTIN
  0
LAYER
  2
40
 70
     0
 62
     7
  6
CONTIN
  0
LAYER
  2
41
 70
     0
 62
     7
  6
CONTIN
  0
LAYER
  2
42
 70
     0
 62
     7
  6
CONTIN
  0
LAYER
  2
43
 70
     0
 62
     7
  6
CONTIN
  0
LAYER
  2
44
 70
     0
 62
     7
  6
CONTIN
  0
LAYER
  2
45
 70
     0
 62
     7
  6
CONTIN
  0
LAYER
  2
46
 70
     0
 62
     7
  6
CONTIN
  0
LAYER
  2
47
 70
     0
 62
     7
  6
CONTIN
  0
LAYER
  2
48
 70
     0
 62
     7
  6
CONTIN
  0
LAYER
  2
49
 70
     0
 62
     7
  6
CONTIN
  0
ENDTAB
  0
TABLE
  2
STYLE
 70
  0
  0
STYLE
  2
SIMPLEX
 70
  0
 40
  0.000
 41
  1.000
 42
  1.000
 50
  0.000
 71
  0
  3
SIMPLEX
  0
STYLE
  2
ROMANS
 70
  0
 40
  0.000
 41
  1.000
 42
  1.000
 50
  0.000
 71
  0
  3
ROMANS
  0
STYLE
  2
OPEN
 70
  0
 40
  0.000
 41
  1.000
 42
  1.000
 50
  0.000
 71
  0
  3
SIMPLEX
  0
STYLE
  2
ARIAL
 70
  0
 40
  0.000
 41
  1.000
 42
  1.000
 50
  0.000
 71
  0
  3
ARIAL.TTF
  0
STYLE
  2
VERDANAB
 70
  0
 40
  0.000
 41
  1.000
 42
  1.000
 50
  0.000
 71
  0
  3
VERDANAB.TTF
  0
ENDTAB
  0
ENDSEC
  0
SECTION
  2
BLOCKS
  0
BLOCK
  8
2
  2
ARROW
 70
     0
 10
 0.00     
 20
 0.00     
  0
LINE
  8
2
 10
 0.00     
 20
 0.00     
 11
  -268.178
 21
   -44.696
  0
LINE
  8
2
 10
 0.00     
 20
 0.00     
 11
  -268.178
 21
    44.696
  0
LINE
  8
2
 10
  -268.178
 20
    44.696
 11
  -268.178
 21
   -44.696
  0
LINE
  8
2
 10
 0.00     
 20
 0.00     
 11
  -375.449
 21
 0.00     
  0
ENDBLK
  8
2
  0
BLOCK
  8
2
  2
ARROWP
 70
     0
 10
 0.00     
 20
 0.00     
  0
LINE
  8
2
 10
 0.00     
 20
 0.00     
 11
  -178.785
 21
   -29.798
  0
LINE
  8
2
 10
 0.00     
 20
 0.00     
 11
  -178.785
 21
    29.798
  0
LINE
  8
2
 10
  -178.785
 20
    29.798
 11
  -178.785
 21
   -29.798
  0
ENDBLK
  8
2
  0
BLOCK
  8
2
  2
ARROWA
 70
     0
 10
 0.00     
 20
 0.00     
  0
LINE
  8
3
 10
   178.785
 20
 0.00     
 11
 0.00     
 21
   -29.798
  0
LINE
  8
3
 10
   178.785
 20
 0.00     
 11
 0.00     
 21
    29.798
  0
LINE
  8
3
 10
 0.00     
 20
    29.798
 11
 0.00     
 21
   -29.798
  0
ENDBLK
  8
2
  0
BLOCK
  8
0
  2
ARROWB
 70
     0
 10
 0.00     
 20
 0.00     
  0
LINE
  8
0
 10
 0.00     
 20
 0.00     
 11
   -25.400
 21
    -4.233
  0
LINE
  8
0
 10
 0.00     
 20
 0.00     
 11
   -25.400
 21
     4.233
  0
LINE
  8
0
 10
   -25.400
 20
     4.233
 11
   -25.400
 21
    -4.233
  0
LINE
  8
0
 10
 0.00     
 20
 0.00     
 11
   -43.180
 21
 0.00     
  0
ENDBLK
  8
0
  0
BLOCK
  8
2
  2
TICK
 70
     0
 10
 0.00     
 20
 0.00     
  0
LINE
  8
2
 10
   -34.382
 20
   -34.382
 11
    34.382
 21
    34.382
  0
ENDBLK
  8
2
  0
BLOCK
  8
0
  2
CIRCLE
 70
     0
 10
 0.00     
 20
 0.00     
  0
CIRCLE
  8
1
 10
    0.000
 20
    0.000
 40
   25.400
  0
ENDBLK
  8
3
  0
BLOCK
  8
1
  2
BRACE
 70
     0
 10
 0.00     
 20
 0.00     
  0
LINE
  8
1
 10
   -12.700
 20
   -12.700
 11
   -12.700
 21
    12.700
  0
LINE
  8
1
 10
   -12.700
 20
    12.700
 11
    12.700
 21
    12.700
  0
LINE
  8
1
 10
    12.700
 20
    12.700
 11
    12.700
 21
   -12.700
  0
LINE
  8
1
 10
    12.700
 20
   -12.700
 11
   -12.700
 21
   -12.700
  0
ENDBLK
  8
1
  0
BLOCK
  8
0
  2
WCOL
 70
     0
 10
 0.00     
 20
 0.00     
  0
LINE
  8
0
 10
  -165.033
 20
   371.323
 11
   165.033
 21
   371.323
  0
LINE
  8
0
 10
 0.00     
 20
   371.323
 11
 0.00     
 21
 0.00     
  0
LINE
  8
0
 10
  -165.033
 20
 0.00     
 11
   165.033
 21
 0.00     
  0
ENDBLK
  8
0
  0
BLOCK
  8
0
  2
WCOL2
 70
     0
 10
 0.00     
 20
 0.00     
  0
LINE
  8
0
 10
  -165.033
 20
 0.00     
 11
   165.033
 21
 0.00     
  0
LINE
  8
0
 10
 0.00     
 20
   371.323
 11
 0.00     
 21
 0.00     
  0
ENDBLK
  8
0
  0
BLOCK
  8
0
  2
PCOL
 70
     0
 10
 0.00     
 20
 0.00     
  0
CIRCLE
  8
0
 10
 0.00     
 20
 0.00     
 40
   110.022
  0
ENDBLK
  8
0
  0
BLOCK
  8
0
  2
ZCOL
 70
     0
 10
 0.00     
 20
 0.00     
  0
LINE
  8
0
 10
   165.033
 20
   343.818
 11
   165.033
 21
   371.323
  0
LINE
  8
0
 10
   165.033
 20
   371.323
 11
 0.00     
 21
   371.323
  0
LINE
  8
0
 10
 0.00     
 20
   371.323
 11
 0.00     
 21
 0.00     
  0
LINE
  8
0
 10
 0.00     
 20
 0.00     
 11
  -165.033
 21
 0.00     
  0
LINE
  8
0
 10
  -165.033
 20
 0.00     
 11
  -165.033
 21
    27.505
  0
ENDBLK
  8
0
  0
BLOCK
  8
0
  2
TCOL
 70
     0
 10
 0.00     
 20
 0.00     
  0
LINE
  8
0
 10
   -96.269
 20
   -96.269
 11
    96.269
 21
   -96.269
  0
LINE
  8
0
 10
    96.269
 20
   -96.269
 11
    96.269
 21
    96.269
  0
LINE
  8
0
 10
    96.269
 20
    96.269
 11
   -96.269
 21
    96.269
  0
LINE
  8
0
 10
   -96.269
 20
    96.269
 11
   -96.269
 21
   -96.269
  0
ENDBLK
  8
0
  0
BLOCK
  8
0
  2
TCOL2
 70
     0
 10
 0.00     
 20
 0.00     
  0
LINE
  8
0
 10
  -123.774
 20
 0.00     
 11
   123.774
 21
 0.00     
  0
LINE
  8
0
 10
   123.774
 20
 0.00     
 11
   123.774
 21
   371.323
  0
LINE
  8
0
 10
   123.774
 20
   371.323
 11
  -123.774
 21
   371.323
  0
LINE
  8
0
 10
  -123.774
 20
   371.323
 11
  -123.774
 21
 0.00     
  0
ENDBLK
  8
0
  0
BLOCK
  8
0
  2
SCCOL
 70
     0
 10
 0.00     
 20
 0.00     
  0
LINE
  8
0
 10
   165.033
 20
   343.818
 11
   165.033
 21
   371.323
  0
LINE
  8
0
 10
   165.033
 20
   371.323
 11
 0.00     
 21
   371.323
  0
LINE
  8
0
 10
 0.00     
 20
   371.323
 11
 0.00     
 21
 0.00     
  0
LINE
  8
0
 10
 0.00     
 20
 0.00     
 11
   165.033
 21
 0.00     
  0
LINE
  8
0
 10
   165.033
 20
 0.00     
 11
   165.033
 21
    27.505
  0
ENDBLK
  8
0
  0
BLOCK
  8
0
  2
GCOL
 70
     0
 10
 0.00     
 20
 0.00     
  0
LINE
  8
0
 10
   247.549
 20
   206.291
 11
   220.043
 21
   206.291
  0
LINE
  8
0
 10
   247.549
 20
   371.323
 11
   247.549
 21
   206.291
  0
LINE
  8
0
 10
   247.549
 20
   371.323
 11
 0.00     
 21
   371.323
  0
LINE
  8
0
 10
 0.00     
 20
   371.323
 11
 0.00     
 21
 0.00     
  0
LINE
  8
0
 10
 0.00     
 20
 0.00     
 11
   165.033
 21
 0.00     
  0
LINE
  8
0
 10
   165.033
 20
 0.00     
 11
   165.033
 21
    27.505
  0
ENDBLK
  8
0
  0
BLOCK
  8
0
  2
UCOL
 70
     0
 10
 0.00     
 20
 0.00     
  0
LINE
  8
0
 10
   165.033
 20
   371.323
 11
 0.00     
 21
   371.323
  0
LINE
  8
0
 10
 0.00     
 20
   371.323
 11
 0.00     
 21
 0.00     
  0
LINE
  8
0
 10
 0.00     
 20
 0.00     
 11
   165.033
 21
 0.00     
  0
ENDBLK
  8
0
  0
BLOCK
  8
0
  2
DCCOL
 70
     0
 10
 0.00     
 20
 0.00     
  0
INSERT
  8
0
  2
SCCOL
 10
 0.00     
 20
 0.00     
 41
     1.000
 42
     1.000
 43
     1.000
 50
    0.000
  0
INSERT
  8
0
  2
SCCOL
 10
 0.00     
 20
 0.00     
 41
    -1.000
 42
     1.000
 43
     1.000
 50
    0.000
  0
ENDBLK
  8
0
  0
BLOCK
  8
0
  2
XCOL
 70
     0
 10
 0.00     
 20
 0.00     
  0
LINE
  8
0
 10
  -165.033
 20
   371.323
 11
   165.033
 21
   371.323
  0
LINE
  8
0
 10
  -165.033
 20
   371.323
 11
  -165.033
 21
 0.00     
  0
LINE
  8
0
 10
   165.033
 20
   371.323
 11
   165.033
 21
 0.00     
  0
LINE
  8
0
 10
  -165.033
 20
 0.00     
 11
   165.033
 21
 0.00     
  0
ENDBLK
  8
0
  0
BLOCK
  8
1
  2
BOLT_0
 70
     0
 10
 0.00     
 20
 0.00     
  0
CIRCLE
  8
1
 10
 0.00     
 20
 0.00     
 40
    25.400
  0
ENDBLK
  8
1
  0
BLOCK
  8
1
  2
BOLT_1
 70
     0
 10
 0.00     
 20
 0.00     
  0
CIRCLE
  8
1
 10
 0.00     
 20
 0.00     
 40
    25.400
  0
ENDBLK
  8
1
  0
BLOCK
  8
1
  2
BOLT_2
 70
     0
 10
 0.00     
 20
 0.00     
  0
CIRCLE
  8
1
 10
 0.00     
 20
 0.00     
 40
    25.400
  0
LINE
  8
1
 10
    25.400
 20
    25.400
 11
   -25.400
 21
   -25.400
  0
LINE
  8
1
 10
   -25.400
 20
    25.400
 11
    25.400
 21
   -25.400
  0
ENDBLK
  8
1
  0
BLOCK
  8
1
  2
BOLT_3
 70
     0
 10
 0.00     
 20
 0.00     
  0
CIRCLE
  8
1
 10
 0.00     
 20
 0.00     
 40
    25.400
  0
LINE
  8
1
 10
    31.750
 20
 0.00     
 11
   -31.750
 21
 0.00     
  0
LINE
  8
1
 10
 0.00     
 20
    25.400
 11
 0.00     
 21
   -25.400
  0
ENDBLK
  8
1
  0
BLOCK
  8
1
  2
BOLT_4
 70
     0
 10
 0.00     
 20
 0.00     
  0
LINE
  8
1
 10
    25.400
 20
    25.400
 11
   -25.400
 21
   -25.400
  0
LINE
  8
1
 10
   -25.400
 20
    25.400
 11
    25.400
 21
   -25.400
  0
ENDBLK
  8
1
  0
BLOCK
  8
1
  2
BOLT_5
 70
     0
 10
 0.00     
 20
 0.00     
  0
LINE
  8
1
 10
    31.750
 20
 0.00     
 11
   -31.750
 21
 0.00     
  0
LINE
  8
1
 10
 0.00     
 20
    25.400
 11
 0.00     
 21
   -25.400
  0
ENDBLK
  8
1
  0
BLOCK
  8
1
  2
BOLT_6
 70
     0
 10
 0.00     
 20
 0.00     
  0
CIRCLE
  8
1
 10
 0.00     
 20
 0.00     
 40
    25.400
  0
LINE
  8
1
 10
    31.750
 20
 0.00     
 11
   -31.750
 21
 0.00     
  0
LINE
  8
1
 10
 0.00     
 20
    31.750
 11
 0.00     
 21
 0.00     
  0
ENDBLK
  8
1
  0
BLOCK
  8
1
  2
BOLT_7
 70
     0
 10
 0.00     
 20
 0.00     
  0
CIRCLE
  8
1
 10
 0.00     
 20
 0.00     
 40
    25.400
  0
LINE
  8
1
 10
    25.400
 20
    25.400
 11
 0.00     
 21
 0.00     
  0
LINE
  8
1
 10
   -25.400
 20
    25.400
 11
 0.00     
 21
 0.00     
  0
ENDBLK
  8
1
  0
BLOCK
  8
9
  2
HILIGHT
 70
     0
 10
 0.00     
 20
 0.00     
  0
ENDBLK
  8
9
  0
BLOCK
  8
9
  2
HILIGHT2
 70
     0
 10
 0.00     
 20
 0.00     
  0
ENDBLK
  8
9
  0
BLOCK
  8
0
  2
MARROW
 70
     0
 10
 0.00     
 20
 0.00     
  0
LINE
  8
0
 10
 0.00     
 20
 0.00     
 11
    -2.540
 21
-0.4233333
  0
LINE
  8
0
 10
 0.00     
 20
 0.00     
 11
    -2.540
 21
0.42333336
  0
LINE
  8
0
 10
    -2.540
 20
0.42333336
 11
    -2.540
 21
-0.4233333
  0
ENDBLK
  8
0
  0
BLOCK
  8
0
  2
RFRM-1
 70
     0
 10
 -1561.424
 20
  5501.086
  0
LINE
  8
1
 10
 0.00     
 20
 0.00     
 11
 0.00     
 21
  3584.370
  0
LINE
  8
1
 10
 0.00     
 20
  3584.370
 11
  4929.057
 21
  4077.275
  0
LINE
  8
1
 10
  4929.057
 20
  4077.275
 11
  9858.113
 21
  3584.370
  0
LINE
  8
1
 10
  9858.113
 20
  3584.370
 11
  9858.113
 21
 0.00     
  0
LINE
  8
1
 10
 0.00     
 20
 0.00     
 11
 0.00     
 21
  3584.370
  0
LINE
  8
1
 10
  4929.057
 20
 0.00     
 11
  4929.057
 21
  4077.275
  0
LINE
  8
1
 10
  9858.113
 20
 0.00     
 11
  9858.113
 21
  3584.370
  0
LINE
  8
1
 10
 0.00     
 20
  4239.072
 11
 0.00     
 21
  4643.564
  0
INSERT
  8
1
  2
MARROW
 10
 0.00     
 20
  4481.767
 41
    63.699
 42
    63.699
 43
    63.699
 50
  180.000
  0
LINE
  8
1
 10
  4929.057
 20
  4239.072
 11
  4929.057
 21
  4643.564
  0
INSERT
  8
1
  2
MARROW
 10
  4929.057
 20
  4481.767
 41
    63.699
 42
    63.699
 43
    63.699
 50
  180.000
  0
LINE
  8
1
 10
  9858.113
 20
  4239.072
 11
  9858.113
 21
  4643.564
  0
INSERT
  8
1
  2
MARROW
 10
  9858.113
 20
  4481.767
 41
    63.699
 42
    63.699
 43
    63.699
 50
  180.000
  0
LINE
  8
1
 10
 0.00     
 20
  4481.767
 11
 10343.504
 21
  4481.767
  0
CIRCLE
  8
13
 10
 0.00     
 20
  4805.360
 40
   161.797
  0
TEXT
  8
13
 7
SIMPLEX
 10
   -36.404
 20
  4732.552
 40
  145.617
  1
C
 50
    0.000
  0
CIRCLE
  8
13
 10
  9858.113
 20
  4805.360
 40
   161.797
  0
TEXT
  8
13
 7
SIMPLEX
 10
  9821.710
 20
  4732.552
 40
  145.617
  1
A
 50
    0.000
  0
CIRCLE
  8
13
 10
  4929.057
 20
  4805.360
 40
   161.797
  0
TEXT
  8
13
 7
SIMPLEX
 10
  4892.652
 20
  4732.552
 40
  145.617
  1
B
 50
    0.000
  0
TEXT
  8
14
 7
SIMPLEX
 10
 10343.504
 20
  4481.767
 40
  161.797
  1
COLUMN LINE
 50
    0.000
  0
LINE
  8
1
 10
 0.00     
 20
   -80.898
 11
 0.00     
 21
  -566.288
  0
INSERT
  8
1
  2
MARROW
 10
 0.00     
 20
   -80.898
 41
    63.699
 42
    63.699
 43
    63.699
 50
   90.000
  0
TEXT
  8
14
 7
SIMPLEX
 10
    80.898
 20
  -485.390
 40
  161.797
  1
V
 50
    0.000
  0
LINE
  8
1
 10
  -566.288
 20
 0.00     
 11
   -80.898
 21
 0.00     
  0
INSERT
  8
1
  2
MARROW
 10
   -80.898
 20
 0.00     
 41
    63.699
 42
    63.699
 43
    63.699
 50
    0.000
  0
TEXT
  8
14
 7
SIMPLEX
 10
  -485.390
 20
    80.898
 40
  161.797
  1
H
 50
    0.000
  0
ARC
  8
1
 10
 0.00     
 20
   161.797
 40
   323.593
 50
  30.000
 51
 150.000
  0
INSERT
  8
1
  2
MARROW
 10
  -280.240
 20
   323.593
 41
    63.699
 42
    63.699
 43
    63.699
 50
 -135.000
  0
TEXT
  8
14
 7
SIMPLEX
 10
   323.593
 20
   323.593
 40
  161.797
  1
M
 50
    0.000
  0
LINE
  8
1
 10
  4929.057
 20
   -80.898
 11
  4929.057
 21
  -566.288
  0
INSERT
  8
1
  2
MARROW
 10
  4929.057
 20
   -80.898
 41
    63.699
 42
    63.699
 43
    63.699
 50
   90.000
  0
TEXT
  8
14
 7
SIMPLEX
 10
  5009.955
 20
  -485.390
 40
  161.797
  1
V
 50
    0.000
  0
LINE
  8
1
 10
  4362.769
 20
 0.00     
 11
  4848.159
 21
 0.00     
  0
INSERT
  8
1
  2
MARROW
 10
  4848.159
 20
 0.00     
 41
    63.699
 42
    63.699
 43
    63.699
 50
    0.000
  0
TEXT
  8
14
 7
SIMPLEX
 10
  4443.667
 20
    80.898
 40
  161.797
  1
H
 50
    0.000
  0
LINE
  8
1
 10
  9858.113
 20
   -80.898
 11
  9858.113
 21
  -566.288
  0
INSERT
  8
1
  2
MARROW
 10
  9858.113
 20
   -80.898
 41
    63.699
 42
    63.699
 43
    63.699
 50
   90.000
  0
TEXT
  8
14
 7
SIMPLEX
 10
  9939.012
 20
  -485.390
 40
  161.797
  1
V
 50
    0.000
  0
LINE
  8
1
 10
  9291.826
 20
 0.00     
 11
  9777.216
 21
 0.00     
  0
INSERT
  8
1
  2
MARROW
 10
  9777.216
 20
 0.00     
 41
    63.699
 42
    63.699
 43
    63.699
 50
    0.000
  0
TEXT
  8
14
 7
SIMPLEX
 10
  9372.724
 20
    80.898
 40
  161.797
  1
H
 50
    0.000
  0
ARC
  8
1
 10
  9858.113
 20
   161.797
 40
   323.593
 50
  30.000
 51
 150.000
  0
INSERT
  8
1
  2
MARROW
 10
  9577.873
 20
   323.593
 41
    63.699
 42
    63.699
 43
    63.699
 50
 -135.000
  0
TEXT
  8
14
 7
SIMPLEX
 10
 10181.707
 20
   323.593
 40
  161.797
  1
M
 50
    0.000
  0
TEXT
  8
14
 7
SIMPLEX
 10
 -1399.627
 20
  5258.392
 40
  161.797
  1
FRAME LINES:
 50
    0.000
  0
TEXT
  8
14
 7
SIMPLEX
 10
   541.932
 20
  5258.392
 40
  161.797
  1
1 7
 50
    0.000
  0
LINE
  8
0
 10
 -1561.424
 20
  -970.780
 11
 14941.835
 21
  -970.780
  0
LINE
  8
0
 10
 14941.835
 20
  -970.780
 11
 14941.835
 21
  5501.086
  0
LINE
  8
0
 10
 14941.835
 20
  5501.086
 11
 -1561.424
 21
  5501.086
  0
LINE
  8
0
 10
 -1561.424
 20
  5501.086
 11
 -1561.424
 21
  -970.780
  0
ENDBLK
  8
0
  0
BLOCK
  8
0
  2
RFRM-2
 70
     0
 10
 -1561.424
 20
  5501.086
  0
LINE
  8
1
 10
 0.00     
 20
 0.00     
 11
 0.00     
 21
  3584.370
  0
LINE
  8
1
 10
 0.00     
 20
  3584.370
 11
  4929.057
 21
  4077.275
  0
LINE
  8
1
 10
  4929.057
 20
  4077.275
 11
  9858.113
 21
  3584.370
  0
LINE
  8
1
 10
  9858.113
 20
  3584.370
 11
  9858.113
 21
 0.00     
  0
LINE
  8
1
 10
 0.00     
 20
 0.00     
 11
 0.00     
 21
  3584.370
  0
LINE
  8
1
 10
  9858.113
 20
 0.00     
 11
  9858.113
 21
  3584.370
  0
LINE
  8
1
 10
 0.00     
 20
  4239.072
 11
 0.00     
 21
  4643.564
  0
INSERT
  8
1
  2
MARROW
 10
 0.00     
 20
  4481.767
 41
    63.699
 42
    63.699
 43
    63.699
 50
  180.000
  0
LINE
  8
1
 10
  9858.113
 20
  4239.072
 11
  9858.113
 21
  4643.564
  0
INSERT
  8
1
  2
MARROW
 10
  9858.113
 20
  4481.767
 41
    63.699
 42
    63.699
 43
    63.699
 50
  180.000
  0
LINE
  8
1
 10
 0.00     
 20
  4481.767
 11
 10343.504
 21
  4481.767
  0
CIRCLE
  8
13
 10
 0.00     
 20
  4805.360
 40
   161.797
  0
TEXT
  8
13
 7
SIMPLEX
 10
   -36.404
 20
  4732.552
 40
  145.617
  1
C
 50
    0.000
  0
CIRCLE
  8
13
 10
  9858.113
 20
  4805.360
 40
   161.797
  0
TEXT
  8
13
 7
SIMPLEX
 10
  9821.710
 20
  4732.552
 40
  145.617
  1
A
 50
    0.000
  0
TEXT
  8
14
 7
SIMPLEX
 10
 10343.504
 20
  4481.767
 40
  161.797
  1
COLUMN LINE
 50
    0.000
  0
LINE
  8
1
 10
 0.00     
 20
   -80.898
 11
 0.00     
 21
  -566.288
  0
INSERT
  8
1
  2
MARROW
 10
 0.00     
 20
   -80.898
 41
    63.699
 42
    63.699
 43
    63.699
 50
   90.000
  0
TEXT
  8
14
 7
SIMPLEX
 10
    80.898
 20
  -485.390
 40
  161.797
  1
V
 50
    0.000
  0
LINE
  8
1
 10
  -566.288
 20
 0.00     
 11
   -80.898
 21
 0.00     
  0
INSERT
  8
1
  2
MARROW
 10
   -80.898
 20
 0.00     
 41
    63.699
 42
    63.699
 43
    63.699
 50
    0.000
  0
TEXT
  8
14
 7
SIMPLEX
 10
  -485.390
 20
    80.898
 40
  161.797
  1
H
 50
    0.000
  0
ARC
  8
1
 10
 0.00     
 20
   161.797
 40
   323.593
 50
  30.000
 51
 150.000
  0
INSERT
  8
1
  2
MARROW
 10
  -280.240
 20
   323.593
 41
    63.699
 42
    63.699
 43
    63.699
 50
 -135.000
  0
TEXT
  8
14
 7
SIMPLEX
 10
   323.593
 20
   323.593
 40
  161.797
  1
M
 50
    0.000
  0
LINE
  8
1
 10
  9858.113
 20
   -80.898
 11
  9858.113
 21
  -566.288
  0
INSERT
  8
1
  2
MARROW
 10
  9858.113
 20
   -80.898
 41
    63.699
 42
    63.699
 43
    63.699
 50
   90.000
  0
TEXT
  8
14
 7
SIMPLEX
 10
  9939.012
 20
  -485.390
 40
  161.797
  1
V
 50
    0.000
  0
LINE
  8
1
 10
  9291.826
 20
 0.00     
 11
  9777.216
 21
 0.00     
  0
INSERT
  8
1
  2
MARROW
 10
  9777.216
 20
 0.00     
 41
    63.699
 42
    63.699
 43
    63.699
 50
    0.000
  0
TEXT
  8
14
 7
SIMPLEX
 10
  9372.724
 20
    80.898
 40
  161.797
  1
H
 50
    0.000
  0
ARC
  8
1
 10
  9858.113
 20
   161.797
 40
   323.593
 50
  30.000
 51
 150.000
  0
INSERT
  8
1
  2
MARROW
 10
  9577.873
 20
   323.593
 41
    63.699
 42
    63.699
 43
    63.699
 50
 -135.000
  0
TEXT
  8
14
 7
SIMPLEX
 10
 10181.707
 20
   323.593
 40
  161.797
  1
M
 50
    0.000
  0
TEXT
  8
14
 7
SIMPLEX
 10
 -1399.627
 20
  5258.392
 40
  161.797
  1
FRAME LINES:
 50
    0.000
  0
TEXT
  8
14
 7
SIMPLEX
 10
   541.932
 20
  5258.392
 40
  161.797
  1
2 3 4 5 6
 50
    0.000
  0
LINE
  8
0
 10
 -1561.424
 20
  -970.780
 11
 14941.835
 21
  -970.780
  0
LINE
  8
0
 10
 14941.835
 20
  -970.780
 11
 14941.835
 21
  5501.086
  0
LINE
  8
0
 10
 14941.835
 20
  5501.086
 11
 -1561.424
 21
  5501.086
  0
LINE
  8
0
 10
 -1561.424
 20
  5501.086
 11
 -1561.424
 21
  -970.780
  0
ENDBLK
  8
0
  0
BLOCK
  8
1
  2
EWTABL
 70
     0
 10
 0.00     
 20
 0.00     
  0
ENDBLK
  8
0
  0
BLOCK
  8
1
  2
BOLT01
 70
     0
 10
 0.00     
 20
 0.00     
  0
TEXT
  8
20
 7
SIMPLEX
 10
   161.797
 20
  -485.390
 40
  242.695
  1
RIGID FRAME:
 50
    0.000
  0
TEXT
  8
20
 7
SIMPLEX
 10
  3074.136
 20
  -485.390
 40
  161.797
  1
ANCHOR BOLTS & BASE PLATES
 50
    0.000
  0
TEXT
  8
14
 7
SIMPLEX
 10
   242.695
 20
 -1132.577
 40
  161.797
  1
Frm
 50
    0.000
  0
TEXT
  8
14
 7
SIMPLEX
 10
  1011.229
 20
 -1132.577
 40
  161.797
  1
Col
 50
    0.000
  0
TEXT
  8
14
 7
SIMPLEX
 10
  1933.470
 20
 -1132.577
 40
  161.797
  1
Anc._Bolt
 50
    0.000
  0
TEXT
  8
14
 7
SIMPLEX
 10
  3624.246
 20
 -1132.577
 40
  161.797
  1
Base_Plate (mm)
 50
    0.000
  0
TEXT
  8
14
 7
SIMPLEX
 10
  6390.970
 20
 -1132.577
 40
  161.797
  1
Grout
 50
    0.000
  0
TEXT
  8
14
 7
SIMPLEX
 10
   242.695
 20
 -1375.272
 40
  161.797
  1
Line
 50
    0.000
  0
TEXT
  8
14
 7
SIMPLEX
 10
  1011.229
 20
 -1375.272
 40
  161.797
  1
Line
 50
    0.000
  0
TEXT
  8
14
 7
SIMPLEX
 10
  1933.470
 20
 -1375.272
 40
  161.797
  1
Qty
 50
    0.000
  0
TEXT
  8
14
 7
SIMPLEX
 10
  2548.298
 20
 -1375.272
 40
  161.797
  1
Dia
 50
    0.000
  0
TEXT
  8
14
 7
SIMPLEX
 10
  3470.539
 20
 -1375.272
 40
  161.797
  1
Width
 50
    0.000
  0
TEXT
  8
14
 7
SIMPLEX
 10
  4392.780
 20
 -1375.272
 40
  161.797
  1
Length
 50
    0.000
  0
TEXT
  8
14
 7
SIMPLEX
 10
  5468.729
 20
 -1375.272
 40
  161.797
  1
Thick
 50
    0.000
  0
TEXT
  8
14
 7
SIMPLEX
 10
  6544.676
 20
 -1375.272
 40
  161.797
  1
(mm)
 50
    0.000
  0
LINE
  8
14
 10
   242.695
 20
 -1537.068
 11
   889.882
 21
 -1537.068
  0
LINE
  8
14
 10
  1011.229
 20
 -1537.068
 11
  1820.212
 21
 -1537.068
  0
LINE
  8
14
 10
  1933.470
 20
 -1537.068
 11
  2418.860
 21
 -1537.068
  0
LINE
  8
14
 10
  2548.298
 20
 -1537.068
 11
  3357.281
 21
 -1537.068
  0
LINE
  8
14
 10
  3470.539
 20
 -1537.068
 11
  4279.522
 21
 -1537.068
  0
LINE
  8
14
 10
  4392.780
 20
 -1537.068
 11
  5363.560
 21
 -1537.068
  0
LINE
  8
14
 10
  5468.729
 20
 -1537.068
 11
  6277.712
 21
 -1537.068
  0
LINE
  8
14
 10
  6390.970
 20
 -1537.068
 11
  7199.954
 21
 -1537.068
  0
TEXT
  8
13
 7
SIMPLEX
 10
   242.695
 20
 -1941.560
 40
  161.797
  1
1*
 50
    0.000
  0
TEXT
  8
13
 7
SIMPLEX
 10
  1011.229
 20
 -1941.560
 40
  161.797
  1
C
 50
    0.000
  0
TEXT
  8
14
 7
SIMPLEX
 10
  7928.039
 20
 -1941.560
 40
  161.797
  1
Moment connection. See table.
 50
    0.000
  0
TEXT
  8
26
 7
SIMPLEX
 10
  2087.177
 20
 -1941.560
 40
  161.797
  1
8
 50
    0.000
  0
TEXT
  8
26
 7
SIMPLEX
 10
  2548.298
 20
 -1941.560
 40
  161.797
  1
   20
 50
    0.000
  0
TEXT
  8
26
 7
SIMPLEX
 10
  3470.539
 20
 -1941.560
 40
  161.797
  1
  200
 50
    0.000
  0
TEXT
  8
26
 7
SIMPLEX
 10
  4392.780
 20
 -1941.560
 40
  161.797
  1
  705
 50
    0.000
  0
TEXT
  8
26
 7
SIMPLEX
 10
  5468.729
 20
 -1941.560
 40
  161.797
  1
   16
 50
    0.000
  0
TEXT
  8
26
 7
SIMPLEX
 10
  6390.970
 20
 -1941.560
 40
  161.797
  1
    0
 50
    0.000
  0
TEXT
  8
13
 7
SIMPLEX
 10
   242.695
 20
 -2184.255
 40
  161.797
  1
1*
 50
    0.000
  0
TEXT
  8
13
 7
SIMPLEX
 10
  1011.229
 20
 -2184.255
 40
  161.797
  1
A
 50
    0.000
  0
TEXT
  8
14
 7
SIMPLEX
 10
  7928.039
 20
 -2184.255
 40
  161.797
  1
Moment connection. See table.
 50
    0.000
  0
TEXT
  8
26
 7
SIMPLEX
 10
  2087.177
 20
 -2184.255
 40
  161.797
  1
8
 50
    0.000
  0
TEXT
  8
26
 7
SIMPLEX
 10
  2548.298
 20
 -2184.255
 40
  161.797
  1
   20
 50
    0.000
  0
TEXT
  8
26
 7
SIMPLEX
 10
  3470.539
 20
 -2184.255
 40
  161.797
  1
  200
 50
    0.000
  0
TEXT
  8
26
 7
SIMPLEX
 10
  4392.780
 20
 -2184.255
 40
  161.797
  1
  705
 50
    0.000
  0
TEXT
  8
26
 7
SIMPLEX
 10
  5468.729
 20
 -2184.255
 40
  161.797
  1
   16
 50
    0.000
  0
TEXT
  8
26
 7
SIMPLEX
 10
  6390.970
 20
 -2184.255
 40
  161.797
  1
    0
 50
    0.000
  0
TEXT
  8
13
 7
SIMPLEX
 10
   242.695
 20
 -2426.949
 40
  161.797
  1
1*
 50
    0.000
  0
TEXT
  8
13
 7
SIMPLEX
 10
  1011.229
 20
 -2426.949
 40
  161.797
  1
B
 50
    0.000
  0
TEXT
  8
26
 7
SIMPLEX
 10
  2087.177
 20
 -2426.949
 40
  161.797
  1
4
 50
    0.000
  0
TEXT
  8
26
 7
SIMPLEX
 10
  2548.298
 20
 -2426.949
 40
  161.797
  1
   20
 50
    0.000
  0
TEXT
  8
26
 7
SIMPLEX
 10
  3470.539
 20
 -2426.949
 40
  161.797
  1
  200
 50
    0.000
  0
TEXT
  8
26
 7
SIMPLEX
 10
  4392.780
 20
 -2426.949
 40
  161.797
  1
  450
 50
    0.000
  0
TEXT
  8
26
 7
SIMPLEX
 10
  5468.729
 20
 -2426.949
 40
  161.797
  1
   16
 50
    0.000
  0
TEXT
  8
26
 7
SIMPLEX
 10
  6390.970
 20
 -2426.949
 40
  161.797
  1
    0
 50
    0.000
  0
TEXT
  8
13
 7
SIMPLEX
 10
   242.695
 20
 -3155.034
 40
  161.797
  1
1*
 50
    0.000
  0
TEXT
  8
14
 7
SIMPLEX
 10
  1011.229
 20
 -3155.034
 40
  161.797
  1
Frame lines:
 50
    0.000
  0
TEXT
  8
13
 7
SIMPLEX
 10
  3316.832
 20
 -3155.034
 40
  161.797
  1
1
 50
    0.000
  0
TEXT
  8
13
 7
SIMPLEX
 10
  3777.952
 20
 -3155.034
 40
  161.797
  1
7
 50
    0.000
  0
LINE
  8
0
 10
 0.00     
 20
 -3478.627
 11
 16503.260
 21
 -3478.627
  0
LINE
  8
0
 10
 16503.260
 20
 -3478.627
 11
 16503.260
 21
 0.00     
  0
LINE
  8
0
 10
 16503.260
 20
 0.00     
 11
 0.00     
 21
 0.00     
  0
LINE
  8
0
 10
 0.00     
 20
 0.00     
 11
 0.00     
 21
 -3478.627
  0
ENDBLK
  8
0
  0
BLOCK
  8
1
  2
BOLT02
 70
     0
 10
 0.00     
 20
 0.00     
  0
TEXT
  8
20
 7
SIMPLEX
 10
   161.797
 20
  -485.390
 40
  242.695
  1
RIGID FRAME:
 50
    0.000
  0
TEXT
  8
20
 7
SIMPLEX
 10
  3074.136
 20
  -485.390
 40
  161.797
  1
ANCHOR BOLTS & BASE PLATES
 50
    0.000
  0
TEXT
  8
14
 7
SIMPLEX
 10
   242.695
 20
 -1132.577
 40
  161.797
  1
Frm
 50
    0.000
  0
TEXT
  8
14
 7
SIMPLEX
 10
  1011.229
 20
 -1132.577
 40
  161.797
  1
Col
 50
    0.000
  0
TEXT
  8
14
 7
SIMPLEX
 10
  1933.470
 20
 -1132.577
 40
  161.797
  1
Anc._Bolt
 50
    0.000
  0
TEXT
  8
14
 7
SIMPLEX
 10
  3624.246
 20
 -1132.577
 40
  161.797
  1
Base_Plate (mm)
 50
    0.000
  0
TEXT
  8
14
 7
SIMPLEX
 10
  6390.970
 20
 -1132.577
 40
  161.797
  1
Grout
 50
    0.000
  0
TEXT
  8
14
 7
SIMPLEX
 10
   242.695
 20
 -1375.272
 40
  161.797
  1
Line
 50
    0.000
  0
TEXT
  8
14
 7
SIMPLEX
 10
  1011.229
 20
 -1375.272
 40
  161.797
  1
Line
 50
    0.000
  0
TEXT
  8
14
 7
SIMPLEX
 10
  1933.470
 20
 -1375.272
 40
  161.797
  1
Qty
 50
    0.000
  0
TEXT
  8
14
 7
SIMPLEX
 10
  2548.298
 20
 -1375.272
 40
  161.797
  1
Dia
 50
    0.000
  0
TEXT
  8
14
 7
SIMPLEX
 10
  3470.539
 20
 -1375.272
 40
  161.797
  1
Width
 50
    0.000
  0
TEXT
  8
14
 7
SIMPLEX
 10
  4392.780
 20
 -1375.272
 40
  161.797
  1
Length
 50
    0.000
  0
TEXT
  8
14
 7
SIMPLEX
 10
  5468.729
 20
 -1375.272
 40
  161.797
  1
Thick
 50
    0.000
  0
TEXT
  8
14
 7
SIMPLEX
 10
  6544.676
 20
 -1375.272
 40
  161.797
  1
(mm)
 50
    0.000
  0
LINE
  8
14
 10
   242.695
 20
 -1537.068
 11
   889.882
 21
 -1537.068
  0
LINE
  8
14
 10
  1011.229
 20
 -1537.068
 11
  1820.212
 21
 -1537.068
  0
LINE
  8
14
 10
  1933.470
 20
 -1537.068
 11
  2418.860
 21
 -1537.068
  0
LINE
  8
14
 10
  2548.298
 20
 -1537.068
 11
  3357.281
 21
 -1537.068
  0
LINE
  8
14
 10
  3470.539
 20
 -1537.068
 11
  4279.522
 21
 -1537.068
  0
LINE
  8
14
 10
  4392.780
 20
 -1537.068
 11
  5363.560
 21
 -1537.068
  0
LINE
  8
14
 10
  5468.729
 20
 -1537.068
 11
  6277.712
 21
 -1537.068
  0
LINE
  8
14
 10
  6390.970
 20
 -1537.068
 11
  7199.954
 21
 -1537.068
  0
TEXT
  8
13
 7
SIMPLEX
 10
   242.695
 20
 -1941.560
 40
  161.797
  1
2*
 50
    0.000
  0
TEXT
  8
13
 7
SIMPLEX
 10
  1011.229
 20
 -1941.560
 40
  161.797
  1
C
 50
    0.000
  0
TEXT
  8
14
 7
SIMPLEX
 10
  7928.039
 20
 -1941.560
 40
  161.797
  1
Moment connection. See table.
 50
    0.000
  0
TEXT
  8
26
 7
SIMPLEX
 10
  2087.177
 20
 -1941.560
 40
  161.797
  1
8
 50
    0.000
  0
TEXT
  8
26
 7
SIMPLEX
 10
  2548.298
 20
 -1941.560
 40
  161.797
  1
   20
 50
    0.000
  0
TEXT
  8
26
 7
SIMPLEX
 10
  3470.539
 20
 -1941.560
 40
  161.797
  1
  200
 50
    0.000
  0
TEXT
  8
26
 7
SIMPLEX
 10
  4392.780
 20
 -1941.560
 40
  161.797
  1
  705
 50
    0.000
  0
TEXT
  8
26
 7
SIMPLEX
 10
  5468.729
 20
 -1941.560
 40
  161.797
  1
   16
 50
    0.000
  0
TEXT
  8
26
 7
SIMPLEX
 10
  6390.970
 20
 -1941.560
 40
  161.797
  1
    0
 50
    0.000
  0
TEXT
  8
13
 7
SIMPLEX
 10
   242.695
 20
 -2184.255
 40
  161.797
  1
2*
 50
    0.000
  0
TEXT
  8
13
 7
SIMPLEX
 10
  1011.229
 20
 -2184.255
 40
  161.797
  1
A
 50
    0.000
  0
TEXT
  8
14
 7
SIMPLEX
 10
  7928.039
 20
 -2184.255
 40
  161.797
  1
Moment connection. See table.
 50
    0.000
  0
TEXT
  8
26
 7
SIMPLEX
 10
  2087.177
 20
 -2184.255
 40
  161.797
  1
8
 50
    0.000
  0
TEXT
  8
26
 7
SIMPLEX
 10
  2548.298
 20
 -2184.255
 40
  161.797
  1
   20
 50
    0.000
  0
TEXT
  8
26
 7
SIMPLEX
 10
  3470.539
 20
 -2184.255
 40
  161.797
  1
  200
 50
    0.000
  0
TEXT
  8
26
 7
SIMPLEX
 10
  4392.780
 20
 -2184.255
 40
  161.797
  1
  705
 50
    0.000
  0
TEXT
  8
26
 7
SIMPLEX
 10
  5468.729
 20
 -2184.255
 40
  161.797
  1
   16
 50
    0.000
  0
TEXT
  8
26
 7
SIMPLEX
 10
  6390.970
 20
 -2184.255
 40
  161.797
  1
    0
 50
    0.000
  0
TEXT
  8
13
 7
SIMPLEX
 10
   242.695
 20
 -2912.339
 40
  161.797
  1
2*
 50
    0.000
  0
TEXT
  8
14
 7
SIMPLEX
 10
  1011.229
 20
 -2912.339
 40
  161.797
  1
Frame lines:
 50
    0.000
  0
TEXT
  8
13
 7
SIMPLEX
 10
  3316.832
 20
 -2912.339
 40
  161.797
  1
2
 50
    0.000
  0
TEXT
  8
13
 7
SIMPLEX
 10
  3777.952
 20
 -2912.339
 40
  161.797
  1
3
 50
    0.000
  0
TEXT
  8
13
 7
SIMPLEX
 10
  4239.073
 20
 -2912.339
 40
  161.797
  1
4
 50
    0.000
  0
TEXT
  8
13
 7
SIMPLEX
 10
  4700.193
 20
 -2912.339
 40
  161.797
  1
5
 50
    0.000
  0
TEXT
  8
13
 7
SIMPLEX
 10
  5161.313
 20
 -2912.339
 40
  161.797
  1
6
 50
    0.000
  0
LINE
  8
0
 10
 0.00     
 20
 -3235.933
 11
 16503.260
 21
 -3235.933
  0
LINE
  8
0
 10
 16503.260
 20
 -3235.933
 11
 16503.260
 21
 0.00     
  0
LINE
  8
0
 10
 16503.260
 20
 0.00     
 11
 0.00     
 21
 0.00     
  0
LINE
  8
0
 10
 0.00     
 20
 0.00     
 11
 0.00     
 21
 -3235.933
  0
ENDBLK
  8
0
  0
BLOCK
  8
1
  2
BRACET
 70
     0
 10
 0.00     
 20
 0.00     
  0
TEXT
  8
20
 7
SIMPLEX
 10
    80.898
 20
  -364.042
 40
  242.695
  1
BUILDING BRACING REACTIONS
 50
    0.000
  0
TEXT
  8
14
 7
SIMPLEX
 10
  3316.832
 20
  -849.432
 40
  161.797
  1
Reactions in plane of wall
 50
    0.000
  0
TEXT
  8
14
 7
SIMPLEX
 10
  3478.628
 20
 -1092.127
 40
  161.797
  1
Reactions(kN)
 50
    0.000
  0
TEXT
  8
14
 7
SIMPLEX
 10
  5905.579
 20
 -1092.127
 40
  161.797
  1
Panel_Shear
 50
    0.000
  0
LINE
  8
14
 10
    80.898
 20
 -1253.924
 11
   525.839
 21
 -1253.924
  0
TEXT
  8
14
 7
SIMPLEX
 10
   566.288
 20
 -1334.822
 40
  161.797
  1
Wall
 50
    0.000
  0
LINE
  8
14
 10
  1213.475
 20
 -1253.924
 11
  1537.068
 21
 -1253.924
  0
TEXT
  8
14
 7
SIMPLEX
 10
  1698.865
 20
 -1334.822
 40
  161.797
  1
Col
 50
    0.000
  0
TEXT
  8
14
 7
SIMPLEX
 10
  3316.832
 20
 -1334.822
 40
  161.797
  1
Wind
 50
    0.000
  0
TEXT
  8
14
 7
SIMPLEX
 10
  4611.205
 20
 -1334.822
 40
  161.797
  1
Seismic
 50
    0.000
  0
TEXT
  8
14
 7
SIMPLEX
 10
  6229.172
 20
 -1334.822
 40
  161.797
  1
( N/m )
 50
    0.000
  0
TEXT
  8
14
 7
SIMPLEX
 10
    80.898
 20
 -1577.517
 40
  161.797
  1
Loc
 50
    0.000
  0
TEXT
  8
14
 7
SIMPLEX
 10
   889.882
 20
 -1577.517
 40
  161.797
  1
Line
 50
    0.000
  0
TEXT
  8
14
 7
SIMPLEX
 10
  1698.865
 20
 -1577.517
 40
  161.797
  1
Line
 50
    0.000
  0
TEXT
  8
14
 7
SIMPLEX
 10
  3316.832
 20
 -1577.517
 40
  161.797
  1
Horz
 50
    0.000
  0
TEXT
  8
14
 7
SIMPLEX
 10
  4934.799
 20
 -1577.517
 40
  161.797
  1
Horz
 50
    0.000
  0
TEXT
  8
14
 7
SIMPLEX
 10
  5905.579
 20
 -1577.517
 40
  161.797
  1
Wind
 50
    0.000
  0
TEXT
  8
14
 7
SIMPLEX
 10
  6714.562
 20
 -1577.517
 40
  161.797
  1
Seis
 50
    0.000
  0
LINE
  8
14
 10
    80.898
 20
 -1739.314
 11
   728.085
 21
 -1739.314
  0
LINE
  8
14
 10
   889.882
 20
 -1739.314
 11
  1537.068
 21
 -1739.314
  0
LINE
  8
14
 10
  1698.865
 20
 -1739.314
 11
  2507.848
 21
 -1739.314
  0
LINE
  8
14
 10
  3316.832
 20
 -1739.314
 11
  3964.018
 21
 -1739.314
  0
LINE
  8
14
 10
  4934.799
 20
 -1739.314
 11
  5581.985
 21
 -1739.314
  0
LINE
  8
14
 10
  5905.579
 20
 -1739.314
 11
  6552.766
 21
 -1739.314
  0
LINE
  8
14
 10
  6714.562
 20
 -1739.314
 11
  7361.749
 21
 -1739.314
  0
TEXT
  8
13
 7
SIMPLEX
 10
    80.898
 20
 -2143.806
 40
  161.797
  1
L_EW
 50
    0.000
  0
TEXT
  8
13
 7
SIMPLEX
 10
  1051.678
 20
 -2143.806
 40
  161.797
  1
1
 50
    0.000
  0
TEXT
  8
26
 7
SIMPLEX
 10
  7685.340
 20
 -2143.806
 40
  161.797
  1
(h)
 50
    0.000
  0
TEXT
  8
13
 7
SIMPLEX
 10
    80.898
 20
 -2386.500
 40
  161.797
  1
F_SW
 50
    0.000
  0
TEXT
  8
13
 7
SIMPLEX
 10
  1051.678
 20
 -2386.500
 40
  161.797
  1
A
 50
    0.000
  0
TEXT
  8
13
 7
SIMPLEX
 10
  1698.865
 20
 -2386.500
 40
  161.797
  1
2,3
 50
    0.000
  0
TEXT
  8
26
 7
SIMPLEX
 10
  2669.645
 20
 -2386.500
 40
  161.797
  1
*
 50
    0.000
  0
TEXT
  8
26
 7
SIMPLEX
 10
  3316.832
 20
 -2386.500
 40
  161.797
  1
 12.2
 50
    0.000
  0
TEXT
  8
26
 7
SIMPLEX
 10
  4773.002
 20
 -2386.500
 40
  161.797
  1
  2.0
 50
    0.000
  0
TEXT
  8
13
 7
SIMPLEX
 10
  1698.865
 20
 -2629.195
 40
  161.797
  1
5,6
 50
    0.000
  0
TEXT
  8
26
 7
SIMPLEX
 10
  2669.645
 20
 -2629.195
 40
  161.797
  1
*
 50
    0.000
  0
TEXT
  8
26
 7
SIMPLEX
 10
  3316.832
 20
 -2629.195
 40
  161.797
  1
 12.2
 50
    0.000
  0
TEXT
  8
26
 7
SIMPLEX
 10
  4773.002
 20
 -2629.195
 40
  161.797
  1
  2.0
 50
    0.000
  0
TEXT
  8
13
 7
SIMPLEX
 10
    80.898
 20
 -2871.890
 40
  161.797
  1
R_EW
 50
    0.000
  0
TEXT
  8
13
 7
SIMPLEX
 10
  1051.678
 20
 -2871.890
 40
  161.797
  1
7
 50
    0.000
  0
TEXT
  8
26
 7
SIMPLEX
 10
  7685.340
 20
 -2871.890
 40
  161.797
  1
(h)
 50
    0.000
  0
TEXT
  8
13
 7
SIMPLEX
 10
    80.898
 20
 -3114.585
 40
  161.797
  1
B_SW
 50
    0.000
  0
TEXT
  8
13
 7
SIMPLEX
 10
  1051.678
 20
 -3114.585
 40
  161.797
  1
C
 50
    0.000
  0
TEXT
  8
13
 7
SIMPLEX
 10
  1698.865
 20
 -3114.585
 40
  161.797
  1
6,5
 50
    0.000
  0
TEXT
  8
26
 7
SIMPLEX
 10
  2669.645
 20
 -3114.585
 40
  161.797
  1
*
 50
    0.000
  0
TEXT
  8
26
 7
SIMPLEX
 10
  3316.832
 20
 -3114.585
 40
  161.797
  1
 11.9
 50
    0.000
  0
TEXT
  8
26
 7
SIMPLEX
 10
  4773.002
 20
 -3114.585
 40
  161.797
  1
  2.0
 50
    0.000
  0
TEXT
  8
13
 7
SIMPLEX
 10
  1698.865
 20
 -3357.280
 40
  161.797
  1
3,2
 50
    0.000
  0
TEXT
  8
26
 7
SIMPLEX
 10
  2669.645
 20
 -3357.280
 40
  161.797
  1
*
 50
    0.000
  0
TEXT
  8
26
 7
SIMPLEX
 10
  3316.832
 20
 -3357.280
 40
  161.797
  1
 11.9
 50
    0.000
  0
TEXT
  8
26
 7
SIMPLEX
 10
  4773.002
 20
 -3357.280
 40
  161.797
  1
  2.0
 50
    0.000
  0
TEXT
  8
14
 7
SIMPLEX
 10
  7523.544
 20
 -1577.517
 40
  161.797
  1
Note
 50
    0.000
  0
LINE
  8
14
 10
  7523.544
 20
 -1739.314
 11
  8170.730
 21
 -1739.314
  0
TEXT
  8
26
 7
SIMPLEX
 10
    80.898
 20
 -3842.670
 40
  161.797
  1
(h)Rigid frame at endwall
 50
    0.000
  0
TEXT
  8
26
 7
SIMPLEX
 10
    80.898
 20
 -4570.754
 40
  161.797
  1
*See RF reactions table for vertical and
 50
    0.000
  0
TEXT
  8
26
 7
SIMPLEX
 10
    80.898
 20
 -4813.449
 40
  161.797
  1
 horizontal reactions in plane of the rigid frame.
 50
    0.000
  0
TEXT
  8
1
 7
SIMPLEX
 10
    80.898
 20
 -5298.839
 40
  161.797
  1
Reactions for seismic represent shear force, Eh
 50
    0.000
  0
TEXT
  8
1
 7
SIMPLEX
 10
    80.898
 20
 -5541.534
 40
  161.797
  1
Reaction values shown are unfactored
 50
    0.000
  0
LINE
  8
0
 10
 0.00     
 20
 -5703.331
 11
  8251.630
 21
 -5703.331
  0
LINE
  8
0
 10
  8251.630
 20
 -5703.331
 11
  8251.630
 21
 0.00     
  0
LINE
  8
0
 10
  8251.630
 20
 0.00     
 11
 0.00     
 21
 0.00     
  0
LINE
  8
0
 10
 0.00     
 20
 0.00     
 11
 0.00     
 21
 -5703.331
  0
ENDBLK
  8
0
  0
BLOCK
  8
1
  2
RFBASE
 70
     0
 10
 0.00     
 20
 0.00     
  0
LINE
  8
1
 10
 16503.260
 20
 0.00     
 11
 0.00     
 21
 0.00     
  0
TEXT
  8
20
 7
SIMPLEX
 10
   161.797
 20
  -404.492
 40
  242.695
  1
RIGID FRAME:
 50
    0.000
  0
TEXT
  8
20
 7
SIMPLEX
 10
  3074.136
 20
  -404.492
 40
  161.797
  1
BASIC COLUMN REACTIONS (kN,kN-m)
 50
    0.000
  0
TEXT
  8
14
 7
SIMPLEX
 10
   161.797
 20
  -808.983
 40
  161.797
  1
Frame
 50
    0.000
  0
TEXT
  8
14
 7
SIMPLEX
 10
   161.797
 20
 -1051.678
 40
  161.797
  1
Line
 50
    0.000
  0
TEXT
  8
14
 7
SIMPLEX
 10
  1132.577
 20
  -808.983
 40
  161.797
  1
Column
 50
    0.000
  0
TEXT
  8
14
 7
SIMPLEX
 10
  1132.577
 20
 -1051.678
 40
  161.797
  1
Line
 50
    0.000
  0
TEXT
  8
14
 7
SIMPLEX
 10
  2265.153
 20
  -808.983
 40
  161.797
  1
---------Dead--------
 50
    0.000
  0
TEXT
  8
14
 7
SIMPLEX
 10
  2265.153
 20
 -1051.678
 40
  161.797
  1
Horz
 50
    0.000
  0
TEXT
  8
14
 7
SIMPLEX
 10
  3397.730
 20
 -1051.678
 40
  161.797
  1
Vert
 50
    0.000
  0
TEXT
  8
14
 7
SIMPLEX
 10
  4530.306
 20
 -1051.678
 40
  161.797
  1
Mom
 50
    0.000
  0
TEXT
  8
14
 7
SIMPLEX
 10
  5662.883
 20
  -808.983
 40
  161.797
  1
------Collateral-----
 50
    0.000
  0
TEXT
  8
14
 7
SIMPLEX
 10
  5662.883
 20
 -1051.678
 40
  161.797
  1
Horz
 50
    0.000
  0
TEXT
  8
14
 7
SIMPLEX
 10
  6795.459
 20
 -1051.678
 40
  161.797
  1
Vert
 50
    0.000
  0
TEXT
  8
14
 7
SIMPLEX
 10
  7928.036
 20
 -1051.678
 40
  161.797
  1
Mom
 50
    0.000
  0
TEXT
  8
14
 7
SIMPLEX
 10
  9060.612
 20
  -808.983
 40
  161.797
  1
---------Live--------
 50
    0.000
  0
TEXT
  8
14
 7
SIMPLEX
 10
  9060.612
 20
 -1051.678
 40
  161.797
  1
Horz
 50
    0.000
  0
TEXT
  8
14
 7
SIMPLEX
 10
 10193.189
 20
 -1051.678
 40
  161.797
  1
Vert
 50
    0.000
  0
TEXT
  8
14
 7
SIMPLEX
 10
 11325.766
 20
 -1051.678
 40
  161.797
  1
Mom
 50
    0.000
  0
TEXT
  8
14
 7
SIMPLEX
 10
 12458.343
 20
  -808.983
 40
  161.797
  1
------Wind_Left1-----
 50
    0.000
  0
TEXT
  8
14
 7
SIMPLEX
 10
 12458.343
 20
 -1051.678
 40
  161.797
  1
Horz
 50
    0.000
  0
TEXT
  8
14
 7
SIMPLEX
 10
 13590.919
 20
 -1051.678
 40
  161.797
  1
Vert
 50
    0.000
  0
TEXT
  8
14
 7
SIMPLEX
 10
 14723.495
 20
 -1051.678
 40
  161.797
  1
Mom
 50
    0.000
  0
TEXT
  8
13
 7
SIMPLEX
 10
   161.797
 20
 -1294.373
 40
  161.797
  1
1*
 50
    0.000
  0
TEXT
  8
13
 7
SIMPLEX
 10
  1132.577
 20
 -1294.373
 40
  161.797
  1
C
 50
    0.000
  0
TEXT
  8
26
 7
SIMPLEX
 10
  1941.560
 20
 -1294.373
 40
  161.797
  1
    1.3
 50
    0.000
  0
TEXT
  8
26
 7
SIMPLEX
 10
  3074.136
 20
 -1294.373
 40
  161.797
  1
    7.5
 50
    0.000
  0
TEXT
  8
26
 7
SIMPLEX
 10
  4206.713
 20
 -1294.373
 40
  161.797
  1
  -2.04
 50
    0.000
  0
TEXT
  8
26
 7
SIMPLEX
 10
  5339.290
 20
 -1294.373
 40
  161.797
  1
    0.5
 50
    0.000
  0
TEXT
  8
26
 7
SIMPLEX
 10
  6471.866
 20
 -1294.373
 40
  161.797
  1
    1.7
 50
    0.000
  0
TEXT
  8
26
 7
SIMPLEX
 10
  7604.443
 20
 -1294.373
 40
  161.797
  1
  -0.80
 50
    0.000
  0
TEXT
  8
26
 7
SIMPLEX
 10
  8737.020
 20
 -1294.373
 40
  161.797
  1
    5.3
 50
    0.000
  0
TEXT
  8
26
 7
SIMPLEX
 10
  9869.596
 20
 -1294.373
 40
  161.797
  1
   19.2
 50
    0.000
  0
TEXT
  8
26
 7
SIMPLEX
 10
 11002.173
 20
 -1294.373
 40
  161.797
  1
  -9.04
 50
    0.000
  0
TEXT
  8
26
 7
SIMPLEX
 10
 12134.749
 20
 -1294.373
 40
  161.797
  1
  -17.0
 50
    0.000
  0
TEXT
  8
26
 7
SIMPLEX
 10
 13267.326
 20
 -1294.373
 40
  161.797
  1
  -25.3
 50
    0.000
  0
TEXT
  8
26
 7
SIMPLEX
 10
 14399.902
 20
 -1294.373
 40
  161.797
  1
  39.41
 50
    0.000
  0
TEXT
  8
13
 7
SIMPLEX
 10
   161.797
 20
 -1537.068
 40
  161.797
  1
1*
 50
    0.000
  0
TEXT
  8
13
 7
SIMPLEX
 10
  1132.577
 20
 -1537.068
 40
  161.797
  1
A
 50
    0.000
  0
TEXT
  8
26
 7
SIMPLEX
 10
  1941.560
 20
 -1537.068
 40
  161.797
  1
   -1.3
 50
    0.000
  0
TEXT
  8
26
 7
SIMPLEX
 10
  3074.136
 20
 -1537.068
 40
  161.797
  1
    7.5
 50
    0.000
  0
TEXT
  8
26
 7
SIMPLEX
 10
  4206.713
 20
 -1537.068
 40
  161.797
  1
   2.05
 50
    0.000
  0
TEXT
  8
26
 7
SIMPLEX
 10
  5339.290
 20
 -1537.068
 40
  161.797
  1
   -0.5
 50
    0.000
  0
TEXT
  8
26
 7
SIMPLEX
 10
  6471.866
 20
 -1537.068
 40
  161.797
  1
    1.7
 50
    0.000
  0
TEXT
  8
26
 7
SIMPLEX
 10
  7604.443
 20
 -1537.068
 40
  161.797
  1
   0.80
 50
    0.000
  0
TEXT
  8
26
 7
SIMPLEX
 10
  8737.020
 20
 -1537.068
 40
  161.797
  1
   -5.3
 50
    0.000
  0
TEXT
  8
26
 7
SIMPLEX
 10
  9869.596
 20
 -1537.068
 40
  161.797
  1
   19.2
 50
    0.000
  0
TEXT
  8
26
 7
SIMPLEX
 10
 11002.173
 20
 -1537.068
 40
  161.797
  1
   9.08
 50
    0.000
  0
TEXT
  8
26
 7
SIMPLEX
 10
 12134.749
 20
 -1537.068
 40
  161.797
  1
   -9.5
 50
    0.000
  0
TEXT
  8
26
 7
SIMPLEX
 10
 13267.326
 20
 -1537.068
 40
  161.797
  1
  -12.0
 50
    0.000
  0
TEXT
  8
26
 7
SIMPLEX
 10
 14399.902
 20
 -1537.068
 40
  161.797
  1
  25.32
 50
    0.000
  0
TEXT
  8
13
 7
SIMPLEX
 10
   161.797
 20
 -1779.763
 40
  161.797
  1
1*
 50
    0.000
  0
TEXT
  8
13
 7
SIMPLEX
 10
  1132.577
 20
 -1779.763
 40
  161.797
  1
B
 50
    0.000
  0
TEXT
  8
26
 7
SIMPLEX
 10
  1941.560
 20
 -1779.763
 40
  161.797
  1
    0.0
 50
    0.000
  0
TEXT
  8
26
 7
SIMPLEX
 10
  3074.136
 20
 -1779.763
 40
  161.797
  1
   11.1
 50
    0.000
  0
TEXT
  8
26
 7
SIMPLEX
 10
  4206.713
 20
 -1779.763
 40
  161.797
  1
   0.00
 50
    0.000
  0
TEXT
  8
26
 7
SIMPLEX
 10
  5339.290
 20
 -1779.763
 40
  161.797
  1
    0.0
 50
    0.000
  0
TEXT
  8
26
 7
SIMPLEX
 10
  6471.866
 20
 -1779.763
 40
  161.797
  1
    3.3
 50
    0.000
  0
TEXT
  8
26
 7
SIMPLEX
 10
  7604.443
 20
 -1779.763
 40
  161.797
  1
   0.00
 50
    0.000
  0
TEXT
  8
26
 7
SIMPLEX
 10
  8737.020
 20
 -1779.763
 40
  161.797
  1
  -0.8a
 50
    0.000
  0
TEXT
  8
26
 7
SIMPLEX
 10
  9869.596
 20
 -1779.763
 40
  161.797
  1
   37.1
 50
    0.000
  0
TEXT
  8
26
 7
SIMPLEX
 10
 11002.173
 20
 -1779.763
 40
  161.797
  1
   0.00
 50
    0.000
  0
TEXT
  8
26
 7
SIMPLEX
 10
 12134.749
 20
 -1779.763
 40
  161.797
  1
    0.0
 50
    0.000
  0
TEXT
  8
26
 7
SIMPLEX
 10
 13267.326
 20
 -1779.763
 40
  161.797
  1
  -34.8
 50
    0.000
  0
TEXT
  8
26
 7
SIMPLEX
 10
 14399.902
 20
 -1779.763
 40
  161.797
  1
   0.00
 50
    0.000
  0
TEXT
  8
14
 7
SIMPLEX
 10
   161.797
 20
 -2265.153
 40
  161.797
  1
Frame
 50
    0.000
  0
TEXT
  8
14
 7
SIMPLEX
 10
   161.797
 20
 -2507.848
 40
  161.797
  1
Line
 50
    0.000
  0
TEXT
  8
14
 7
SIMPLEX
 10
  1132.577
 20
 -2265.153
 40
  161.797
  1
Column
 50
    0.000
  0
TEXT
  8
14
 7
SIMPLEX
 10
  1132.577
 20
 -2507.848
 40
  161.797
  1
Line
 50
    0.000
  0
TEXT
  8
14
 7
SIMPLEX
 10
  2265.153
 20
 -2265.153
 40
  161.797
  1
-----Wind_Right1-----
 50
    0.000
  0
TEXT
  8
14
 7
SIMPLEX
 10
  2265.153
 20
 -2507.848
 40
  161.797
  1
Horz
 50
    0.000
  0
TEXT
  8
14
 7
SIMPLEX
 10
  3397.730
 20
 -2507.848
 40
  161.797
  1
Vert
 50
    0.000
  0
TEXT
  8
14
 7
SIMPLEX
 10
  4530.306
 20
 -2507.848
 40
  161.797
  1
Mom
 50
    0.000
  0
TEXT
  8
14
 7
SIMPLEX
 10
  5662.883
 20
 -2265.153
 40
  161.797
  1
------Wind_Left2-----
 50
    0.000
  0
TEXT
  8
14
 7
SIMPLEX
 10
  5662.883
 20
 -2507.848
 40
  161.797
  1
Horz
 50
    0.000
  0
TEXT
  8
14
 7
SIMPLEX
 10
  6795.459
 20
 -2507.848
 40
  161.797
  1
Vert
 50
    0.000
  0
TEXT
  8
14
 7
SIMPLEX
 10
  7928.036
 20
 -2507.848
 40
  161.797
  1
Mom
 50
    0.000
  0
TEXT
  8
14
 7
SIMPLEX
 10
  9060.612
 20
 -2265.153
 40
  161.797
  1
-----Wind_Right2-----
 50
    0.000
  0
TEXT
  8
14
 7
SIMPLEX
 10
  9060.612
 20
 -2507.848
 40
  161.797
  1
Horz
 50
    0.000
  0
TEXT
  8
14
 7
SIMPLEX
 10
 10193.189
 20
 -2507.848
 40
  161.797
  1
Vert
 50
    0.000
  0
TEXT
  8
14
 7
SIMPLEX
 10
 11325.766
 20
 -2507.848
 40
  161.797
  1
Mom
 50
    0.000
  0
TEXT
  8
14
 7
SIMPLEX
 10
 12458.343
 20
 -2265.153
 40
  161.797
  1
------Wind_Press-----
 50
    0.000
  0
TEXT
  8
14
 7
SIMPLEX
 10
 12458.343
 20
 -2507.848
 40
  161.797
  1
Horz
 50
    0.000
  0
TEXT
  8
14
 7
SIMPLEX
 10
 13590.919
 20
 -2507.848
 40
  161.797
  1
Vert
 50
    0.000
  0
TEXT
  8
14
 7
SIMPLEX
 10
 14723.495
 20
 -2507.848
 40
  161.797
  1
Mom
 50
    0.000
  0
TEXT
  8
13
 7
SIMPLEX
 10
   161.797
 20
 -2750.543
 40
  161.797
  1
1*
 50
    0.000
  0
TEXT
  8
13
 7
SIMPLEX
 10
  1132.577
 20
 -2750.543
 40
  161.797
  1
C
 50
    0.000
  0
TEXT
  8
26
 7
SIMPLEX
 10
  1941.560
 20
 -2750.543
 40
  161.797
  1
    9.5
 50
    0.000
  0
TEXT
  8
26
 7
SIMPLEX
 10
  3074.136
 20
 -2750.543
 40
  161.797
  1
  -12.0
 50
    0.000
  0
TEXT
  8
26
 7
SIMPLEX
 10
  4206.713
 20
 -2750.543
 40
  161.797
  1
 -25.38
 50
    0.000
  0
TEXT
  8
26
 7
SIMPLEX
 10
  5339.290
 20
 -2750.543
 40
  161.797
  1
  -20.5
 50
    0.000
  0
TEXT
  8
26
 7
SIMPLEX
 10
  6471.866
 20
 -2750.543
 40
  161.797
  1
  -18.0
 50
    0.000
  0
TEXT
  8
26
 7
SIMPLEX
 10
  7604.443
 20
 -2750.543
 40
  161.797
  1
  42.74
 50
    0.000
  0
TEXT
  8
26
 7
SIMPLEX
 10
  8737.020
 20
 -2750.543
 40
  161.797
  1
    6.0
 50
    0.000
  0
TEXT
  8
26
 7
SIMPLEX
 10
  9869.596
 20
 -2750.543
 40
  161.797
  1
   -4.7
 50
    0.000
  0
TEXT
  8
26
 7
SIMPLEX
 10
 11002.173
 20
 -2750.543
 40
  161.797
  1
 -22.05
 50
    0.000
  0
TEXT
  8
26
 7
SIMPLEX
 10
 12134.749
 20
 -2750.543
 40
  161.797
  1
    0.0
 50
    0.000
  0
TEXT
  8
26
 7
SIMPLEX
 10
 13267.326
 20
 -2750.543
 40
  161.797
  1
    0.0
 50
    0.000
  0
TEXT
  8
26
 7
SIMPLEX
 10
 14399.902
 20
 -2750.543
 40
  161.797
  1
   0.00
 50
    0.000
  0
TEXT
  8
13
 7
SIMPLEX
 10
   161.797
 20
 -2993.238
 40
  161.797
  1
1*
 50
    0.000
  0
TEXT
  8
13
 7
SIMPLEX
 10
  1132.577
 20
 -2993.238
 40
  161.797
  1
A
 50
    0.000
  0
TEXT
  8
26
 7
SIMPLEX
 10
  1941.560
 20
 -2993.238
 40
  161.797
  1
   17.0
 50
    0.000
  0
TEXT
  8
26
 7
SIMPLEX
 10
  3074.136
 20
 -2993.238
 40
  161.797
  1
  -25.3
 50
    0.000
  0
TEXT
  8
26
 7
SIMPLEX
 10
  4206.713
 20
 -2993.238
 40
  161.797
  1
 -39.44
 50
    0.000
  0
TEXT
  8
26
 7
SIMPLEX
 10
  5339.290
 20
 -2993.238
 40
  161.797
  1
   -6.0
 50
    0.000
  0
TEXT
  8
26
 7
SIMPLEX
 10
  6471.866
 20
 -2993.238
 40
  161.797
  1
   -4.7
 50
    0.000
  0
TEXT
  8
26
 7
SIMPLEX
 10
  7604.443
 20
 -2993.238
 40
  161.797
  1
  22.00
 50
    0.000
  0
TEXT
  8
26
 7
SIMPLEX
 10
  8737.020
 20
 -2993.238
 40
  161.797
  1
   20.5
 50
    0.000
  0
TEXT
  8
26
 7
SIMPLEX
 10
  9869.596
 20
 -2993.238
 40
  161.797
  1
  -18.0
 50
    0.000
  0
TEXT
  8
26
 7
SIMPLEX
 10
 11002.173
 20
 -2993.238
 40
  161.797
  1
 -42.75
 50
    0.000
  0
TEXT
  8
26
 7
SIMPLEX
 10
 12134.749
 20
 -2993.238
 40
  161.797
  1
    0.0
 50
    0.000
  0
TEXT
  8
26
 7
SIMPLEX
 10
 13267.326
 20
 -2993.238
 40
  161.797
  1
    0.0
 50
    0.000
  0
TEXT
  8
26
 7
SIMPLEX
 10
 14399.902
 20
 -2993.238
 40
  161.797
  1
   0.00
 50
    0.000
  0
TEXT
  8
13
 7
SIMPLEX
 10
   161.797
 20
 -3235.933
 40
  161.797
  1
1*
 50
    0.000
  0
TEXT
  8
13
 7
SIMPLEX
 10
  1132.577
 20
 -3235.933
 40
  161.797
  1
B
 50
    0.000
  0
TEXT
  8
26
 7
SIMPLEX
 10
  1941.560
 20
 -3235.933
 40
  161.797
  1
    0.0
 50
    0.000
  0
TEXT
  8
26
 7
SIMPLEX
 10
  3074.136
 20
 -3235.933
 40
  161.797
  1
  -34.8
 50
    0.000
  0
TEXT
  8
26
 7
SIMPLEX
 10
  4206.713
 20
 -3235.933
 40
  161.797
  1
   0.00
 50
    0.000
  0
TEXT
  8
26
 7
SIMPLEX
 10
  5339.290
 20
 -3235.933
 40
  161.797
  1
    0.0
 50
    0.000
  0
TEXT
  8
26
 7
SIMPLEX
 10
  6471.866
 20
 -3235.933
 40
  161.797
  1
  -23.0
 50
    0.000
  0
TEXT
  8
26
 7
SIMPLEX
 10
  7604.443
 20
 -3235.933
 40
  161.797
  1
   0.00
 50
    0.000
  0
TEXT
  8
26
 7
SIMPLEX
 10
  8737.020
 20
 -3235.933
 40
  161.797
  1
    0.0
 50
    0.000
  0
TEXT
  8
26
 7
SIMPLEX
 10
  9869.596
 20
 -3235.933
 40
  161.797
  1
  -23.1
 50
    0.000
  0
TEXT
  8
26
 7
SIMPLEX
 10
 11002.173
 20
 -3235.933
 40
  161.797
  1
   0.00
 50
    0.000
  0
TEXT
  8
26
 7
SIMPLEX
 10
 12134.749
 20
 -3235.933
 40
  161.797
  1
 -27.6a
 50
    0.000
  0
TEXT
  8
26
 7
SIMPLEX
 10
 13267.326
 20
 -3235.933
 40
  161.797
  1
    0.0
 50
    0.000
  0
TEXT
  8
26
 7
SIMPLEX
 10
 14399.902
 20
 -3235.933
 40
  161.797
  1
   0.00
 50
    0.000
  0
TEXT
  8
14
 7
SIMPLEX
 10
   161.797
 20
 -3721.323
 40
  161.797
  1
Frame
 50
    0.000
  0
TEXT
  8
14
 7
SIMPLEX
 10
   161.797
 20
 -3964.017
 40
  161.797
  1
Line
 50
    0.000
  0
TEXT
  8
14
 7
SIMPLEX
 10
  1132.577
 20
 -3721.323
 40
  161.797
  1
Column
 50
    0.000
  0
TEXT
  8
14
 7
SIMPLEX
 10
  1132.577
 20
 -3964.017
 40
  161.797
  1
Line
 50
    0.000
  0
TEXT
  8
14
 7
SIMPLEX
 10
  2265.153
 20
 -3721.323
 40
  161.797
  1
------Wind_Suct------
 50
    0.000
  0
TEXT
  8
14
 7
SIMPLEX
 10
  2265.153
 20
 -3964.017
 40
  161.797
  1
Horz
 50
    0.000
  0
TEXT
  8
14
 7
SIMPLEX
 10
  3397.730
 20
 -3964.017
 40
  161.797
  1
Vert
 50
    0.000
  0
TEXT
  8
14
 7
SIMPLEX
 10
  4530.306
 20
 -3964.017
 40
  161.797
  1
Mom
 50
    0.000
  0
TEXT
  8
14
 7
SIMPLEX
 10
  5662.883
 20
 -3721.323
 40
  161.797
  1
------Wind_Long1-----
 50
    0.000
  0
TEXT
  8
14
 7
SIMPLEX
 10
  5662.883
 20
 -3964.017
 40
  161.797
  1
Horz
 50
    0.000
  0
TEXT
  8
14
 7
SIMPLEX
 10
  6795.459
 20
 -3964.017
 40
  161.797
  1
Vert
 50
    0.000
  0
TEXT
  8
14
 7
SIMPLEX
 10
  7928.036
 20
 -3964.017
 40
  161.797
  1
Mom
 50
    0.000
  0
TEXT
  8
14
 7
SIMPLEX
 10
  9060.612
 20
 -3721.323
 40
  161.797
  1
------Wind_Long2-----
 50
    0.000
  0
TEXT
  8
14
 7
SIMPLEX
 10
  9060.612
 20
 -3964.017
 40
  161.797
  1
Horz
 50
    0.000
  0
TEXT
  8
14
 7
SIMPLEX
 10
 10193.189
 20
 -3964.017
 40
  161.797
  1
Vert
 50
    0.000
  0
TEXT
  8
14
 7
SIMPLEX
 10
 11325.766
 20
 -3964.017
 40
  161.797
  1
Mom
 50
    0.000
  0
TEXT
  8
14
 7
SIMPLEX
 10
 12458.343
 20
 -3721.323
 40
  161.797
  1
-----Seismic_Left----
 50
    0.000
  0
TEXT
  8
14
 7
SIMPLEX
 10
 12458.343
 20
 -3964.017
 40
  161.797
  1
Horz
 50
    0.000
  0
TEXT
  8
14
 7
SIMPLEX
 10
 13590.919
 20
 -3964.017
 40
  161.797
  1
Vert
 50
    0.000
  0
TEXT
  8
14
 7
SIMPLEX
 10
 14723.495
 20
 -3964.017
 40
  161.797
  1
Mom
 50
    0.000
  0
TEXT
  8
13
 7
SIMPLEX
 10
   161.797
 20
 -4206.712
 40
  161.797
  1
1*
 50
    0.000
  0
TEXT
  8
13
 7
SIMPLEX
 10
  1132.577
 20
 -4206.712
 40
  161.797
  1
C
 50
    0.000
  0
TEXT
  8
26
 7
SIMPLEX
 10
  1941.560
 20
 -4206.712
 40
  161.797
  1
    0.0
 50
    0.000
  0
TEXT
  8
26
 7
SIMPLEX
 10
  3074.136
 20
 -4206.712
 40
  161.797
  1
    0.0
 50
    0.000
  0
TEXT
  8
26
 7
SIMPLEX
 10
  4206.713
 20
 -4206.712
 40
  161.797
  1
   0.00
 50
    0.000
  0
TEXT
  8
26
 7
SIMPLEX
 10
  5339.290
 20
 -4206.712
 40
  161.797
  1
    4.8
 50
    0.000
  0
TEXT
  8
26
 7
SIMPLEX
 10
  6471.866
 20
 -4206.712
 40
  161.797
  1
  -17.3
 50
    0.000
  0
TEXT
  8
26
 7
SIMPLEX
 10
  7604.443
 20
 -4206.712
 40
  161.797
  1
  -3.73
 50
    0.000
  0
TEXT
  8
26
 7
SIMPLEX
 10
  8737.020
 20
 -4206.712
 40
  161.797
  1
    1.4
 50
    0.000
  0
TEXT
  8
26
 7
SIMPLEX
 10
  9869.596
 20
 -4206.712
 40
  161.797
  1
  -10.0
 50
    0.000
  0
TEXT
  8
26
 7
SIMPLEX
 10
 11002.173
 20
 -4206.712
 40
  161.797
  1
  -0.39
 50
    0.000
  0
TEXT
  8
26
 7
SIMPLEX
 10
 12134.749
 20
 -4206.712
 40
  161.797
  1
   -1.3
 50
    0.000
  0
TEXT
  8
26
 7
SIMPLEX
 10
 13267.326
 20
 -4206.712
 40
  161.797
  1
   -0.2
 50
    0.000
  0
TEXT
  8
26
 7
SIMPLEX
 10
 14399.902
 20
 -4206.712
 40
  161.797
  1
   8.19
 50
    0.000
  0
TEXT
  8
13
 7
SIMPLEX
 10
   161.797
 20
 -4449.407
 40
  161.797
  1
1*
 50
    0.000
  0
TEXT
  8
13
 7
SIMPLEX
 10
  1132.577
 20
 -4449.407
 40
  161.797
  1
A
 50
    0.000
  0
TEXT
  8
26
 7
SIMPLEX
 10
  1941.560
 20
 -4449.407
 40
  161.797
  1
    0.0
 50
    0.000
  0
TEXT
  8
26
 7
SIMPLEX
 10
  3074.136
 20
 -4449.407
 40
  161.797
  1
    0.0
 50
    0.000
  0
TEXT
  8
26
 7
SIMPLEX
 10
  4206.713
 20
 -4449.407
 40
  161.797
  1
   0.00
 50
    0.000
  0
TEXT
  8
26
 7
SIMPLEX
 10
  5339.290
 20
 -4449.407
 40
  161.797
  1
   -4.8
 50
    0.000
  0
TEXT
  8
26
 7
SIMPLEX
 10
  6471.866
 20
 -4449.407
 40
  161.797
  1
  -17.3
 50
    0.000
  0
TEXT
  8
26
 7
SIMPLEX
 10
  7604.443
 20
 -4449.407
 40
  161.797
  1
   3.69
 50
    0.000
  0
TEXT
  8
26
 7
SIMPLEX
 10
  8737.020
 20
 -4449.407
 40
  161.797
  1
   -1.4
 50
    0.000
  0
TEXT
  8
26
 7
SIMPLEX
 10
  9869.596
 20
 -4449.407
 40
  161.797
  1
  -10.0
 50
    0.000
  0
TEXT
  8
26
 7
SIMPLEX
 10
 11002.173
 20
 -4449.407
 40
  161.797
  1
   0.37
 50
    0.000
  0
TEXT
  8
26
 7
SIMPLEX
 10
 12134.749
 20
 -4449.407
 40
  161.797
  1
   -1.3
 50
    0.000
  0
TEXT
  8
26
 7
SIMPLEX
 10
 13267.326
 20
 -4449.407
 40
  161.797
  1
    0.2
 50
    0.000
  0
TEXT
  8
26
 7
SIMPLEX
 10
 14399.902
 20
 -4449.407
 40
  161.797
  1
   8.19
 50
    0.000
  0
TEXT
  8
13
 7
SIMPLEX
 10
   161.797
 20
 -4692.102
 40
  161.797
  1
1*
 50
    0.000
  0
TEXT
  8
13
 7
SIMPLEX
 10
  1132.577
 20
 -4692.102
 40
  161.797
  1
B
 50
    0.000
  0
TEXT
  8
26
 7
SIMPLEX
 10
  1941.560
 20
 -4692.102
 40
  161.797
  1
  32.4a
 50
    0.000
  0
TEXT
  8
26
 7
SIMPLEX
 10
  3074.136
 20
 -4692.102
 40
  161.797
  1
    0.0
 50
    0.000
  0
TEXT
  8
26
 7
SIMPLEX
 10
  4206.713
 20
 -4692.102
 40
  161.797
  1
   0.00
 50
    0.000
  0
TEXT
  8
26
 7
SIMPLEX
 10
  5339.290
 20
 -4692.102
 40
  161.797
  1
    0.0
 50
    0.000
  0
TEXT
  8
26
 7
SIMPLEX
 10
  6471.866
 20
 -4692.102
 40
  161.797
  1
  -29.1
 50
    0.000
  0
TEXT
  8
26
 7
SIMPLEX
 10
  7604.443
 20
 -4692.102
 40
  161.797
  1
   0.00
 50
    0.000
  0
TEXT
  8
26
 7
SIMPLEX
 10
  8737.020
 20
 -4692.102
 40
  161.797
  1
    0.0
 50
    0.000
  0
TEXT
  8
26
 7
SIMPLEX
 10
  9869.596
 20
 -4692.102
 40
  161.797
  1
  -17.4
 50
    0.000
  0
TEXT
  8
26
 7
SIMPLEX
 10
 11002.173
 20
 -4692.102
 40
  161.797
  1
   0.00
 50
    0.000
  0
TEXT
  8
26
 7
SIMPLEX
 10
 12134.749
 20
 -4692.102
 40
  161.797
  1
    0.0
 50
    0.000
  0
TEXT
  8
26
 7
SIMPLEX
 10
 13267.326
 20
 -4692.102
 40
  161.797
  1
    0.0
 50
    0.000
  0
TEXT
  8
26
 7
SIMPLEX
 10
 14399.902
 20
 -4692.102
 40
  161.797
  1
   0.00
 50
    0.000
  0
TEXT
  8
14
 7
SIMPLEX
 10
   161.797
 20
 -5177.492
 40
  161.797
  1
Frame
 50
    0.000
  0
TEXT
  8
14
 7
SIMPLEX
 10
   161.797
 20
 -5420.187
 40
  161.797
  1
Line
 50
    0.000
  0
TEXT
  8
14
 7
SIMPLEX
 10
  1132.577
 20
 -5177.492
 40
  161.797
  1
Column
 50
    0.000
  0
TEXT
  8
14
 7
SIMPLEX
 10
  1132.577
 20
 -5420.187
 40
  161.797
  1
Line
 50
    0.000
  0
TEXT
  8
14
 7
SIMPLEX
 10
  2265.153
 20
 -5177.492
 40
  161.797
  1
----Seismic_Right----
 50
    0.000
  0
TEXT
  8
14
 7
SIMPLEX
 10
  2265.153
 20
 -5420.187
 40
  161.797
  1
Horz
 50
    0.000
  0
TEXT
  8
14
 7
SIMPLEX
 10
  3397.730
 20
 -5420.187
 40
  161.797
  1
Vert
 50
    0.000
  0
TEXT
  8
14
 7
SIMPLEX
 10
  4530.306
 20
 -5420.187
 40
  161.797
  1
Mom
 50
    0.000
  0
TEXT
  8
14
 7
SIMPLEX
 10
  5662.883
 20
 -5177.492
 40
  161.797
  1
---------Temp--------
 50
    0.000
  0
TEXT
  8
14
 7
SIMPLEX
 10
  5662.883
 20
 -5420.187
 40
  161.797
  1
Horz
 50
    0.000
  0
TEXT
  8
14
 7
SIMPLEX
 10
  6795.459
 20
 -5420.187
 40
  161.797
  1
Vert
 50
    0.000
  0
TEXT
  8
14
 7
SIMPLEX
 10
  7928.036
 20
 -5420.187
 40
  161.797
  1
Mom
 50
    0.000
  0
TEXT
  8
14
 7
SIMPLEX
 10
  9060.612
 20
 -5177.492
 40
  161.797
  1
-----F1CRANEA1-  ----
 50
    0.000
  0
TEXT
  8
14
 7
SIMPLEX
 10
  9060.612
 20
 -5420.187
 40
  161.797
  1
Horz
 50
    0.000
  0
TEXT
  8
14
 7
SIMPLEX
 10
 10193.189
 20
 -5420.187
 40
  161.797
  1
Vert
 50
    0.000
  0
TEXT
  8
14
 7
SIMPLEX
 10
 11325.766
 20
 -5420.187
 40
  161.797
  1
Mom
 50
    0.000
  0
TEXT
  8
14
 7
SIMPLEX
 10
 12458.343
 20
 -5177.492
 40
  161.797
  1
-----F1CRANEA2-  ----
 50
    0.000
  0
TEXT
  8
14
 7
SIMPLEX
 10
 12458.343
 20
 -5420.187
 40
  161.797
  1
Horz
 50
    0.000
  0
TEXT
  8
14
 7
SIMPLEX
 10
 13590.919
 20
 -5420.187
 40
  161.797
  1
Vert
 50
    0.000
  0
TEXT
  8
14
 7
SIMPLEX
 10
 14723.495
 20
 -5420.187
 40
  161.797
  1
Mom
 50
    0.000
  0
TEXT
  8
13
 7
SIMPLEX
 10
   161.797
 20
 -5662.881
 40
  161.797
  1
1*
 50
    0.000
  0
TEXT
  8
13
 7
SIMPLEX
 10
  1132.577
 20
 -5662.881
 40
  161.797
  1
C
 50
    0.000
  0
TEXT
  8
26
 7
SIMPLEX
 10
  1941.560
 20
 -5662.881
 40
  161.797
  1
    1.3
 50
    0.000
  0
TEXT
  8
26
 7
SIMPLEX
 10
  3074.136
 20
 -5662.881
 40
  161.797
  1
    0.2
 50
    0.000
  0
TEXT
  8
26
 7
SIMPLEX
 10
  4206.713
 20
 -5662.881
 40
  161.797
  1
  -8.19
 50
    0.000
  0
TEXT
  8
26
 7
SIMPLEX
 10
  5339.290
 20
 -5662.881
 40
  161.797
  1
    0.9
 50
    0.000
  0
TEXT
  8
26
 7
SIMPLEX
 10
  6471.866
 20
 -5662.881
 40
  161.797
  1
    0.4
 50
    0.000
  0
TEXT
  8
26
 7
SIMPLEX
 10
  7604.443
 20
 -5662.881
 40
  161.797
  1
  -4.90
 50
    0.000
  0
TEXT
  8
26
 7
SIMPLEX
 10
  8737.020
 20
 -5662.881
 40
  161.797
  1
    0.1
 50
    0.000
  0
TEXT
  8
26
 7
SIMPLEX
 10
  9869.596
 20
 -5662.881
 40
  161.797
  1
   58.9
 50
    0.000
  0
TEXT
  8
26
 7
SIMPLEX
 10
 11002.173
 20
 -5662.881
 40
  161.797
  1
  28.61
 50
    0.000
  0
TEXT
  8
26
 7
SIMPLEX
 10
 12134.749
 20
 -5662.881
 40
  161.797
  1
    7.9
 50
    0.000
  0
TEXT
  8
26
 7
SIMPLEX
 10
 13267.326
 20
 -5662.881
 40
  161.797
  1
   59.7
 50
    0.000
  0
TEXT
  8
26
 7
SIMPLEX
 10
 14399.902
 20
 -5662.881
 40
  161.797
  1
 -10.30
 50
    0.000
  0
TEXT
  8
13
 7
SIMPLEX
 10
   161.797
 20
 -5905.576
 40
  161.797
  1
1*
 50
    0.000
  0
TEXT
  8
13
 7
SIMPLEX
 10
  1132.577
 20
 -5905.576
 40
  161.797
  1
A
 50
    0.000
  0
TEXT
  8
26
 7
SIMPLEX
 10
  1941.560
 20
 -5905.576
 40
  161.797
  1
    1.3
 50
    0.000
  0
TEXT
  8
26
 7
SIMPLEX
 10
  3074.136
 20
 -5905.576
 40
  161.797
  1
   -0.2
 50
    0.000
  0
TEXT
  8
26
 7
SIMPLEX
 10
  4206.713
 20
 -5905.576
 40
  161.797
  1
  -8.19
 50
    0.000
  0
TEXT
  8
26
 7
SIMPLEX
 10
  5339.290
 20
 -5905.576
 40
  161.797
  1
   -0.9
 50
    0.000
  0
TEXT
  8
26
 7
SIMPLEX
 10
  6471.866
 20
 -5905.576
 40
  161.797
  1
    0.4
 50
    0.000
  0
TEXT
  8
26
 7
SIMPLEX
 10
  7604.443
 20
 -5905.576
 40
  161.797
  1
   4.90
 50
    0.000
  0
TEXT
  8
26
 7
SIMPLEX
 10
  8737.020
 20
 -5905.576
 40
  161.797
  1
   -7.9
 50
    0.000
  0
TEXT
  8
26
 7
SIMPLEX
 10
  9869.596
 20
 -5905.576
 40
  161.797
  1
   18.0
 50
    0.000
  0
TEXT
  8
26
 7
SIMPLEX
 10
 11002.173
 20
 -5905.576
 40
  161.797
  1
  36.44
 50
    0.000
  0
TEXT
  8
26
 7
SIMPLEX
 10
 12134.749
 20
 -5905.576
 40
  161.797
  1
   -0.1
 50
    0.000
  0
TEXT
  8
26
 7
SIMPLEX
 10
 13267.326
 20
 -5905.576
 40
  161.797
  1
   17.3
 50
    0.000
  0
TEXT
  8
26
 7
SIMPLEX
 10
 14399.902
 20
 -5905.576
 40
  161.797
  1
  -2.46
 50
    0.000
  0
TEXT
  8
13
 7
SIMPLEX
 10
   161.797
 20
 -6148.271
 40
  161.797
  1
1*
 50
    0.000
  0
TEXT
  8
13
 7
SIMPLEX
 10
  1132.577
 20
 -6148.271
 40
  161.797
  1
B
 50
    0.000
  0
TEXT
  8
26
 7
SIMPLEX
 10
  1941.560
 20
 -6148.271
 40
  161.797
  1
    0.0
 50
    0.000
  0
TEXT
  8
26
 7
SIMPLEX
 10
  3074.136
 20
 -6148.271
 40
  161.797
  1
    0.0
 50
    0.000
  0
TEXT
  8
26
 7
SIMPLEX
 10
  4206.713
 20
 -6148.271
 40
  161.797
  1
   0.00
 50
    0.000
  0
TEXT
  8
26
 7
SIMPLEX
 10
  5339.290
 20
 -6148.271
 40
  161.797
  1
    0.0
 50
    0.000
  0
TEXT
  8
26
 7
SIMPLEX
 10
  6471.866
 20
 -6148.271
 40
  161.797
  1
   -0.7
 50
    0.000
  0
TEXT
  8
26
 7
SIMPLEX
 10
  7604.443
 20
 -6148.271
 40
  161.797
  1
   0.00
 50
    0.000
  0
TEXT
  8
26
 7
SIMPLEX
 10
  8737.020
 20
 -6148.271
 40
  161.797
  1
    0.0
 50
    0.000
  0
TEXT
  8
26
 7
SIMPLEX
 10
  9869.596
 20
 -6148.271
 40
  161.797
  1
   -0.7
 50
    0.000
  0
TEXT
  8
26
 7
SIMPLEX
 10
 11002.173
 20
 -6148.271
 40
  161.797
  1
   0.00
 50
    0.000
  0
TEXT
  8
26
 7
SIMPLEX
 10
 12134.749
 20
 -6148.271
 40
  161.797
  1
    0.0
 50
    0.000
  0
TEXT
  8
26
 7
SIMPLEX
 10
 13267.326
 20
 -6148.271
 40
  161.797
  1
   -0.7
 50
    0.000
  0
TEXT
  8
26
 7
SIMPLEX
 10
 14399.902
 20
 -6148.271
 40
  161.797
  1
   0.00
 50
    0.000
  0
TEXT
  8
14
 7
SIMPLEX
 10
   161.797
 20
 -6633.661
 40
  161.797
  1
Frame
 50
    0.000
  0
TEXT
  8
14
 7
SIMPLEX
 10
   161.797
 20
 -6876.356
 40
  161.797
  1
Line
 50
    0.000
  0
TEXT
  8
14
 7
SIMPLEX
 10
  1132.577
 20
 -6633.661
 40
  161.797
  1
Column
 50
    0.000
  0
TEXT
  8
14
 7
SIMPLEX
 10
  1132.577
 20
 -6876.356
 40
  161.797
  1
Line
 50
    0.000
  0
TEXT
  8
14
 7
SIMPLEX
 10
  2265.153
 20
 -6633.661
 40
  161.797
  1
-----F1CRANEA3-  ----
 50
    0.000
  0
TEXT
  8
14
 7
SIMPLEX
 10
  2265.153
 20
 -6876.356
 40
  161.797
  1
Horz
 50
    0.000
  0
TEXT
  8
14
 7
SIMPLEX
 10
  3397.730
 20
 -6876.356
 40
  161.797
  1
Vert
 50
    0.000
  0
TEXT
  8
14
 7
SIMPLEX
 10
  4530.306
 20
 -6876.356
 40
  161.797
  1
Mom
 50
    0.000
  0
TEXT
  8
14
 7
SIMPLEX
 10
  5662.883
 20
 -6633.661
 40
  161.797
  1
-----F1CRANEA4-  ----
 50
    0.000
  0
TEXT
  8
14
 7
SIMPLEX
 10
  5662.883
 20
 -6876.356
 40
  161.797
  1
Horz
 50
    0.000
  0
TEXT
  8
14
 7
SIMPLEX
 10
  6795.459
 20
 -6876.356
 40
  161.797
  1
Vert
 50
    0.000
  0
TEXT
  8
14
 7
SIMPLEX
 10
  7928.036
 20
 -6876.356
 40
  161.797
  1
Mom
 50
    0.000
  0
TEXT
  8
14
 7
SIMPLEX
 10
  9060.612
 20
 -6633.661
 40
  161.797
  1
----LWIND1_L2E-  ----
 50
    0.000
  0
TEXT
  8
14
 7
SIMPLEX
 10
  9060.612
 20
 -6876.356
 40
  161.797
  1
Horz
 50
    0.000
  0
TEXT
  8
14
 7
SIMPLEX
 10
 10193.189
 20
 -6876.356
 40
  161.797
  1
Vert
 50
    0.000
  0
TEXT
  8
14
 7
SIMPLEX
 10
 11325.766
 20
 -6876.356
 40
  161.797
  1
Mom
 50
    0.000
  0
TEXT
  8
14
 7
SIMPLEX
 10
 12458.343
 20
 -6633.661
 40
  161.797
  1
----LWIND1_R2E-  ----
 50
    0.000
  0
TEXT
  8
14
 7
SIMPLEX
 10
 12458.343
 20
 -6876.356
 40
  161.797
  1
Horz
 50
    0.000
  0
TEXT
  8
14
 7
SIMPLEX
 10
 13590.919
 20
 -6876.356
 40
  161.797
  1
Vert
 50
    0.000
  0
TEXT
  8
14
 7
SIMPLEX
 10
 14723.495
 20
 -6876.356
 40
  161.797
  1
Mom
 50
    0.000
  0
TEXT
  8
13
 7
SIMPLEX
 10
   161.797
 20
 -7119.051
 40
  161.797
  1
1*
 50
    0.000
  0
TEXT
  8
13
 7
SIMPLEX
 10
  1132.577
 20
 -7119.051
 40
  161.797
  1
C
 50
    0.000
  0
TEXT
  8
26
 7
SIMPLEX
 10
  1941.560
 20
 -7119.051
 40
  161.797
  1
   -0.2
 50
    0.000
  0
TEXT
  8
26
 7
SIMPLEX
 10
  3074.136
 20
 -7119.051
 40
  161.797
  1
   17.1
 50
    0.000
  0
TEXT
  8
26
 7
SIMPLEX
 10
  4206.713
 20
 -7119.051
 40
  161.797
  1
   5.97
 50
    0.000
  0
TEXT
  8
26
 7
SIMPLEX
 10
  5339.290
 20
 -7119.051
 40
  161.797
  1
    7.6
 50
    0.000
  0
TEXT
  8
26
 7
SIMPLEX
 10
  6471.866
 20
 -7119.051
 40
  161.797
  1
   17.9
 50
    0.000
  0
TEXT
  8
26
 7
SIMPLEX
 10
  7604.443
 20
 -7119.051
 40
  161.797
  1
 -32.94
 50
    0.000
  0
TEXT
  8
26
 7
SIMPLEX
 10
  8737.020
 20
 -7119.051
 40
  161.797
  1
   -0.2
 50
    0.000
  0
TEXT
  8
26
 7
SIMPLEX
 10
  9869.596
 20
 -7119.051
 40
  161.797
  1
   -5.1
 50
    0.000
  0
TEXT
  8
26
 7
SIMPLEX
 10
 11002.173
 20
 -7119.051
 40
  161.797
  1
  -3.79
 50
    0.000
  0
TEXT
  8
26
 7
SIMPLEX
 10
 12134.749
 20
 -7119.051
 40
  161.797
  1
   -0.8
 50
    0.000
  0
TEXT
  8
26
 7
SIMPLEX
 10
 13267.326
 20
 -7119.051
 40
  161.797
  1
    0.0
 50
    0.000
  0
TEXT
  8
26
 7
SIMPLEX
 10
 14399.902
 20
 -7119.051
 40
  161.797
  1
   5.29
 50
    0.000
  0
TEXT
  8
13
 7
SIMPLEX
 10
   161.797
 20
 -7361.746
 40
  161.797
  1
1*
 50
    0.000
  0
TEXT
  8
13
 7
SIMPLEX
 10
  1132.577
 20
 -7361.746
 40
  161.797
  1
A
 50
    0.000
  0
TEXT
  8
26
 7
SIMPLEX
 10
  1941.560
 20
 -7361.746
 40
  161.797
  1
   -7.6
 50
    0.000
  0
TEXT
  8
26
 7
SIMPLEX
 10
  3074.136
 20
 -7361.746
 40
  161.797
  1
   59.7
 50
    0.000
  0
TEXT
  8
26
 7
SIMPLEX
 10
  4206.713
 20
 -7361.746
 40
  161.797
  1
  12.74
 50
    0.000
  0
TEXT
  8
26
 7
SIMPLEX
 10
  5339.290
 20
 -7361.746
 40
  161.797
  1
    0.2
 50
    0.000
  0
TEXT
  8
26
 7
SIMPLEX
 10
  6471.866
 20
 -7361.746
 40
  161.797
  1
   59.0
 50
    0.000
  0
TEXT
  8
26
 7
SIMPLEX
 10
  7604.443
 20
 -7361.746
 40
  161.797
  1
 -26.17
 50
    0.000
  0
TEXT
  8
26
 7
SIMPLEX
 10
  8737.020
 20
 -7361.746
 40
  161.797
  1
    0.8
 50
    0.000
  0
TEXT
  8
26
 7
SIMPLEX
 10
  9869.596
 20
 -7361.746
 40
  161.797
  1
    0.0
 50
    0.000
  0
TEXT
  8
26
 7
SIMPLEX
 10
 11002.173
 20
 -7361.746
 40
  161.797
  1
  -5.30
 50
    0.000
  0
TEXT
  8
26
 7
SIMPLEX
 10
 12134.749
 20
 -7361.746
 40
  161.797
  1
    0.2
 50
    0.000
  0
TEXT
  8
26
 7
SIMPLEX
 10
 13267.326
 20
 -7361.746
 40
  161.797
  1
   -5.1
 50
    0.000
  0
TEXT
  8
26
 7
SIMPLEX
 10
 14399.902
 20
 -7361.746
 40
  161.797
  1
   3.79
 50
    0.000
  0
TEXT
  8
13
 7
SIMPLEX
 10
   161.797
 20
 -7604.441
 40
  161.797
  1
1*
 50
    0.000
  0
TEXT
  8
13
 7
SIMPLEX
 10
  1132.577
 20
 -7604.441
 40
  161.797
  1
B
 50
    0.000
  0
TEXT
  8
26
 7
SIMPLEX
 10
  1941.560
 20
 -7604.441
 40
  161.797
  1
    0.0
 50
    0.000
  0
TEXT
  8
26
 7
SIMPLEX
 10
  3074.136
 20
 -7604.441
 40
  161.797
  1
   -0.6
 50
    0.000
  0
TEXT
  8
26
 7
SIMPLEX
 10
  4206.713
 20
 -7604.441
 40
  161.797
  1
   0.00
 50
    0.000
  0
TEXT
  8
26
 7
SIMPLEX
 10
  5339.290
 20
 -7604.441
 40
  161.797
  1
    0.0
 50
    0.000
  0
TEXT
  8
26
 7
SIMPLEX
 10
  6471.866
 20
 -7604.441
 40
  161.797
  1
   -0.6
 50
    0.000
  0
TEXT
  8
26
 7
SIMPLEX
 10
  7604.443
 20
 -7604.441
 40
  161.797
  1
   0.00
 50
    0.000
  0
TEXT
  8
26
 7
SIMPLEX
 10
  8737.020
 20
 -7604.441
 40
  161.797
  1
    0.0
 50
    0.000
  0
TEXT
  8
26
 7
SIMPLEX
 10
  9869.596
 20
 -7604.441
 40
  161.797
  1
   -0.4
 50
    0.000
  0
TEXT
  8
26
 7
SIMPLEX
 10
 11002.173
 20
 -7604.441
 40
  161.797
  1
   0.00
 50
    0.000
  0
TEXT
  8
26
 7
SIMPLEX
 10
 12134.749
 20
 -7604.441
 40
  161.797
  1
    0.0
 50
    0.000
  0
TEXT
  8
26
 7
SIMPLEX
 10
 13267.326
 20
 -7604.441
 40
  161.797
  1
   -0.4
 50
    0.000
  0
TEXT
  8
26
 7
SIMPLEX
 10
 14399.902
 20
 -7604.441
 40
  161.797
  1
   0.00
 50
    0.000
  0
TEXT
  8
14
 7
SIMPLEX
 10
   161.797
 20
 -8089.832
 40
  161.797
  1
Frame
 50
    0.000
  0
TEXT
  8
14
 7
SIMPLEX
 10
   161.797
 20
 -8332.527
 40
  161.797
  1
Line
 50
    0.000
  0
TEXT
  8
14
 7
SIMPLEX
 10
  1132.577
 20
 -8089.832
 40
  161.797
  1
Column
 50
    0.000
  0
TEXT
  8
14
 7
SIMPLEX
 10
  1132.577
 20
 -8332.527
 40
  161.797
  1
Line
 50
    0.000
  0
TEXT
  8
14
 7
SIMPLEX
 10
  2265.153
 20
 -8089.832
 40
  161.797
  1
----LWIND2_L2E-  ----
 50
    0.000
  0
TEXT
  8
14
 7
SIMPLEX
 10
  2265.153
 20
 -8332.527
 40
  161.797
  1
Horz
 50
    0.000
  0
TEXT
  8
14
 7
SIMPLEX
 10
  3397.730
 20
 -8332.527
 40
  161.797
  1
Vert
 50
    0.000
  0
TEXT
  8
14
 7
SIMPLEX
 10
  4530.306
 20
 -8332.527
 40
  161.797
  1
Mom
 50
    0.000
  0
TEXT
  8
14
 7
SIMPLEX
 10
  5662.883
 20
 -8089.832
 40
  161.797
  1
----LWIND2_R2E-  ----
 50
    0.000
  0
TEXT
  8
14
 7
SIMPLEX
 10
  5662.883
 20
 -8332.527
 40
  161.797
  1
Horz
 50
    0.000
  0
TEXT
  8
14
 7
SIMPLEX
 10
  6795.459
 20
 -8332.527
 40
  161.797
  1
Vert
 50
    0.000
  0
TEXT
  8
14
 7
SIMPLEX
 10
  7928.036
 20
 -8332.527
 40
  161.797
  1
Mom
 50
    0.000
  0
TEXT
  8
14
 7
SIMPLEX
 10
  9060.612
 20
 -8089.832
 40
  161.797
  1
----F1PAT_LL_1-  ----
 50
    0.000
  0
TEXT
  8
14
 7
SIMPLEX
 10
  9060.612
 20
 -8332.527
 40
  161.797
  1
Horz
 50
    0.000
  0
TEXT
  8
14
 7
SIMPLEX
 10
 10193.189
 20
 -8332.527
 40
  161.797
  1
Vert
 50
    0.000
  0
TEXT
  8
14
 7
SIMPLEX
 10
 11325.766
 20
 -8332.527
 40
  161.797
  1
Mom
 50
    0.000
  0
TEXT
  8
14
 7
SIMPLEX
 10
 12458.343
 20
 -8089.832
 40
  161.797
  1
----F1PAT_LL_2-  ----
 50
    0.000
  0
TEXT
  8
14
 7
SIMPLEX
 10
 12458.343
 20
 -8332.527
 40
  161.797
  1
Horz
 50
    0.000
  0
TEXT
  8
14
 7
SIMPLEX
 10
 13590.919
 20
 -8332.527
 40
  161.797
  1
Vert
 50
    0.000
  0
TEXT
  8
14
 7
SIMPLEX
 10
 14723.495
 20
 -8332.527
 40
  161.797
  1
Mom
 50
    0.000
  0
TEXT
  8
13
 7
SIMPLEX
 10
   161.797
 20
 -8575.222
 40
  161.797
  1
1*
 50
    0.000
  0
TEXT
  8
13
 7
SIMPLEX
 10
  1132.577
 20
 -8575.222
 40
  161.797
  1
C
 50
    0.000
  0
TEXT
  8
26
 7
SIMPLEX
 10
  1941.560
 20
 -8575.222
 40
  161.797
  1
   -0.2
 50
    0.000
  0
TEXT
  8
26
 7
SIMPLEX
 10
  3074.136
 20
 -8575.222
 40
  161.797
  1
   -5.1
 50
    0.000
  0
TEXT
  8
26
 7
SIMPLEX
 10
  4206.713
 20
 -8575.222
 40
  161.797
  1
  -3.79
 50
    0.000
  0
TEXT
  8
26
 7
SIMPLEX
 10
  5339.290
 20
 -8575.222
 40
  161.797
  1
   -0.8
 50
    0.000
  0
TEXT
  8
26
 7
SIMPLEX
 10
  6471.866
 20
 -8575.222
 40
  161.797
  1
    0.0
 50
    0.000
  0
TEXT
  8
26
 7
SIMPLEX
 10
  7604.443
 20
 -8575.222
 40
  161.797
  1
   5.29
 50
    0.000
  0
TEXT
  8
26
 7
SIMPLEX
 10
  8737.020
 20
 -8575.222
 40
  161.797
  1
    2.7
 50
    0.000
  0
TEXT
  8
26
 7
SIMPLEX
 10
  9869.596
 20
 -8575.222
 40
  161.797
  1
   21.3
 50
    0.000
  0
TEXT
  8
26
 7
SIMPLEX
 10
 11002.173
 20
 -8575.222
 40
  161.797
  1
  16.36
 50
    0.000
  0
TEXT
  8
26
 7
SIMPLEX
 10
 12134.749
 20
 -8575.222
 40
  161.797
  1
    2.6
 50
    0.000
  0
TEXT
  8
26
 7
SIMPLEX
 10
 13267.326
 20
 -8575.222
 40
  161.797
  1
   -2.1
 50
    0.000
  0
TEXT
  8
26
 7
SIMPLEX
 10
 14399.902
 20
 -8575.222
 40
  161.797
  1
 -25.39
 50
    0.000
  0
TEXT
  8
13
 7
SIMPLEX
 10
   161.797
 20
 -8817.917
 40
  161.797
  1
1*
 50
    0.000
  0
TEXT
  8
13
 7
SIMPLEX
 10
  1132.577
 20
 -8817.917
 40
  161.797
  1
A
 50
    0.000
  0
TEXT
  8
26
 7
SIMPLEX
 10
  1941.560
 20
 -8817.917
 40
  161.797
  1
    0.8
 50
    0.000
  0
TEXT
  8
26
 7
SIMPLEX
 10
  3074.136
 20
 -8817.917
 40
  161.797
  1
    0.0
 50
    0.000
  0
TEXT
  8
26
 7
SIMPLEX
 10
  4206.713
 20
 -8817.917
 40
  161.797
  1
  -5.30
 50
    0.000
  0
TEXT
  8
26
 7
SIMPLEX
 10
  5339.290
 20
 -8817.917
 40
  161.797
  1
    0.2
 50
    0.000
  0
TEXT
  8
26
 7
SIMPLEX
 10
  6471.866
 20
 -8817.917
 40
  161.797
  1
   -5.1
 50
    0.000
  0
TEXT
  8
26
 7
SIMPLEX
 10
  7604.443
 20
 -8817.917
 40
  161.797
  1
   3.79
 50
    0.000
  0
TEXT
  8
26
 7
SIMPLEX
 10
  8737.020
 20
 -8817.917
 40
  161.797
  1
   -2.7
 50
    0.000
  0
TEXT
  8
26
 7
SIMPLEX
 10
  9869.596
 20
 -8817.917
 40
  161.797
  1
   -2.1
 50
    0.000
  0
TEXT
  8
26
 7
SIMPLEX
 10
 11002.173
 20
 -8817.917
 40
  161.797
  1
  25.43
 50
    0.000
  0
TEXT
  8
26
 7
SIMPLEX
 10
 12134.749
 20
 -8817.917
 40
  161.797
  1
   -2.6
 50
    0.000
  0
TEXT
  8
26
 7
SIMPLEX
 10
 13267.326
 20
 -8817.917
 40
  161.797
  1
   21.2
 50
    0.000
  0
TEXT
  8
26
 7
SIMPLEX
 10
 14399.902
 20
 -8817.917
 40
  161.797
  1
 -16.35
 50
    0.000
  0
TEXT
  8
13
 7
SIMPLEX
 10
   161.797
 20
 -9060.612
 40
  161.797
  1
1*
 50
    0.000
  0
TEXT
  8
13
 7
SIMPLEX
 10
  1132.577
 20
 -9060.612
 40
  161.797
  1
B
 50
    0.000
  0
TEXT
  8
26
 7
SIMPLEX
 10
  1941.560
 20
 -9060.612
 40
  161.797
  1
    0.0
 50
    0.000
  0
TEXT
  8
26
 7
SIMPLEX
 10
  3074.136
 20
 -9060.612
 40
  161.797
  1
   -0.4
 50
    0.000
  0
TEXT
  8
26
 7
SIMPLEX
 10
  4206.713
 20
 -9060.612
 40
  161.797
  1
   0.00
 50
    0.000
  0
TEXT
  8
26
 7
SIMPLEX
 10
  5339.290
 20
 -9060.612
 40
  161.797
  1
    0.0
 50
    0.000
  0
TEXT
  8
26
 7
SIMPLEX
 10
  6471.866
 20
 -9060.612
 40
  161.797
  1
   -0.4
 50
    0.000
  0
TEXT
  8
26
 7
SIMPLEX
 10
  7604.443
 20
 -9060.612
 40
  161.797
  1
   0.00
 50
    0.000
  0
TEXT
  8
26
 7
SIMPLEX
 10
  8737.020
 20
 -9060.612
 40
  161.797
  1
    0.0
 50
    0.000
  0
TEXT
  8
26
 7
SIMPLEX
 10
  9869.596
 20
 -9060.612
 40
  161.797
  1
   18.5
 50
    0.000
  0
TEXT
  8
26
 7
SIMPLEX
 10
 11002.173
 20
 -9060.612
 40
  161.797
  1
   0.00
 50
    0.000
  0
TEXT
  8
26
 7
SIMPLEX
 10
 12134.749
 20
 -9060.612
 40
  161.797
  1
    0.0
 50
    0.000
  0
TEXT
  8
26
 7
SIMPLEX
 10
 13267.326
 20
 -9060.612
 40
  161.797
  1
   18.5
 50
    0.000
  0
TEXT
  8
26
 7
SIMPLEX
 10
 14399.902
 20
 -9060.612
 40
  161.797
  1
   0.00
 50
    0.000
  0
TEXT
  8
14
 7
SIMPLEX
 10
   161.797
 20
 -9546.003
 40
  161.797
  1
Frame
 50
    0.000
  0
TEXT
  8
14
 7
SIMPLEX
 10
   161.797
 20
 -9788.697
 40
  161.797
  1
Line
 50
    0.000
  0
TEXT
  8
14
 7
SIMPLEX
 10
  1132.577
 20
 -9546.003
 40
  161.797
  1
Column
 50
    0.000
  0
TEXT
  8
14
 7
SIMPLEX
 10
  1132.577
 20
 -9788.697
 40
  161.797
  1
Line
 50
    0.000
  0
TEXT
  8
14
 7
SIMPLEX
 10
  2265.153
 20
 -9546.003
 40
  161.797
  1
---------Dead--------
 50
    0.000
  0
TEXT
  8
14
 7
SIMPLEX
 10
  2265.153
 20
 -9788.697
 40
  161.797
  1
Horz
 50
    0.000
  0
TEXT
  8
14
 7
SIMPLEX
 10
  3397.730
 20
 -9788.697
 40
  161.797
  1
Vert
 50
    0.000
  0
TEXT
  8
14
 7
SIMPLEX
 10
  4530.306
 20
 -9788.697
 40
  161.797
  1
Mom
 50
    0.000
  0
TEXT
  8
14
 7
SIMPLEX
 10
  5662.883
 20
 -9546.003
 40
  161.797
  1
------Collateral-----
 50
    0.000
  0
TEXT
  8
14
 7
SIMPLEX
 10
  5662.883
 20
 -9788.697
 40
  161.797
  1
Horz
 50
    0.000
  0
TEXT
  8
14
 7
SIMPLEX
 10
  6795.459
 20
 -9788.697
 40
  161.797
  1
Vert
 50
    0.000
  0
TEXT
  8
14
 7
SIMPLEX
 10
  7928.036
 20
 -9788.697
 40
  161.797
  1
Mom
 50
    0.000
  0
TEXT
  8
14
 7
SIMPLEX
 10
  9060.612
 20
 -9546.003
 40
  161.797
  1
---------Live--------
 50
    0.000
  0
TEXT
  8
14
 7
SIMPLEX
 10
  9060.612
 20
 -9788.697
 40
  161.797
  1
Horz
 50
    0.000
  0
TEXT
  8
14
 7
SIMPLEX
 10
 10193.189
 20
 -9788.697
 40
  161.797
  1
Vert
 50
    0.000
  0
TEXT
  8
14
 7
SIMPLEX
 10
 11325.766
 20
 -9788.697
 40
  161.797
  1
Mom
 50
    0.000
  0
TEXT
  8
14
 7
SIMPLEX
 10
 12458.343
 20
 -9546.003
 40
  161.797
  1
------Wind_Left1-----
 50
    0.000
  0
TEXT
  8
14
 7
SIMPLEX
 10
 12458.343
 20
 -9788.697
 40
  161.797
  1
Horz
 50
    0.000
  0
TEXT
  8
14
 7
SIMPLEX
 10
 13590.919
 20
 -9788.697
 40
  161.797
  1
Vert
 50
    0.000
  0
TEXT
  8
14
 7
SIMPLEX
 10
 14723.495
 20
 -9788.697
 40
  161.797
  1
Mom
 50
    0.000
  0
TEXT
  8
13
 7
SIMPLEX
 10
   161.797
 20
-10031.393
 40
  161.797
  1
2*
 50
    0.000
  0
TEXT
  8
13
 7
SIMPLEX
 10
  1132.577
 20
-10031.393
 40
  161.797
  1
C
 50
    0.000
  0
TEXT
  8
26
 7
SIMPLEX
 10
  1941.560
 20
-10031.393
 40
  161.797
  1
    5.8
 50
    0.000
  0
TEXT
  8
26
 7
SIMPLEX
 10
  3074.136
 20
-10031.393
 40
  161.797
  1
   12.2
 50
    0.000
  0
TEXT
  8
26
 7
SIMPLEX
 10
  4206.713
 20
-10031.393
 40
  161.797
  1
 -12.73
 50
    0.000
  0
TEXT
  8
26
 7
SIMPLEX
 10
  5339.290
 20
-10031.393
 40
  161.797
  1
    2.1
 50
    0.000
  0
TEXT
  8
26
 7
SIMPLEX
 10
  6471.866
 20
-10031.393
 40
  161.797
  1
    3.4
 50
    0.000
  0
TEXT
  8
26
 7
SIMPLEX
 10
  7604.443
 20
-10031.393
 40
  161.797
  1
  -4.68
 50
    0.000
  0
TEXT
  8
26
 7
SIMPLEX
 10
  8737.020
 20
-10031.393
 40
  161.797
  1
   23.7
 50
    0.000
  0
TEXT
  8
26
 7
SIMPLEX
 10
  9869.596
 20
-10031.393
 40
  161.797
  1
   38.8
 50
    0.000
  0
TEXT
  8
26
 7
SIMPLEX
 10
 11002.173
 20
-10031.393
 40
  161.797
  1
 -53.14
 50
    0.000
  0
TEXT
  8
26
 7
SIMPLEX
 10
 12134.749
 20
-10031.393
 40
  161.797
  1
  -26.8
 50
    0.000
  0
TEXT
  8
26
 7
SIMPLEX
 10
 13267.326
 20
-10031.393
 40
  161.797
  1
  -31.5
 50
    0.000
  0
TEXT
  8
26
 7
SIMPLEX
 10
 14399.902
 20
-10031.393
 40
  161.797
  1
  68.73
 50
    0.000
  0
TEXT
  8
13
 7
SIMPLEX
 10
   161.797
 20
-10274.088
 40
  161.797
  1
2*
 50
    0.000
  0
TEXT
  8
13
 7
SIMPLEX
 10
  1132.577
 20
-10274.088
 40
  161.797
  1
A
 50
    0.000
  0
TEXT
  8
26
 7
SIMPLEX
 10
  1941.560
 20
-10274.088
 40
  161.797
  1
   -5.8
 50
    0.000
  0
TEXT
  8
26
 7
SIMPLEX
 10
  3074.136
 20
-10274.088
 40
  161.797
  1
   12.2
 50
    0.000
  0
TEXT
  8
26
 7
SIMPLEX
 10
  4206.713
 20
-10274.088
 40
  161.797
  1
  12.88
 50
    0.000
  0
TEXT
  8
26
 7
SIMPLEX
 10
  5339.290
 20
-10274.088
 40
  161.797
  1
   -2.1
 50
    0.000
  0
TEXT
  8
26
 7
SIMPLEX
 10
  6471.866
 20
-10274.088
 40
  161.797
  1
    3.4
 50
    0.000
  0
TEXT
  8
26
 7
SIMPLEX
 10
  7604.443
 20
-10274.088
 40
  161.797
  1
   4.74
 50
    0.000
  0
TEXT
  8
26
 7
SIMPLEX
 10
  8737.020
 20
-10274.088
 40
  161.797
  1
  -23.7
 50
    0.000
  0
TEXT
  8
26
 7
SIMPLEX
 10
  9869.596
 20
-10274.088
 40
  161.797
  1
   38.8
 50
    0.000
  0
TEXT
  8
26
 7
SIMPLEX
 10
 11002.173
 20
-10274.088
 40
  161.797
  1
  53.77
 50
    0.000
  0
TEXT
  8
26
 7
SIMPLEX
 10
 12134.749
 20
-10274.088
 40
  161.797
  1
   -0.3
 50
    0.000
  0
TEXT
  8
26
 7
SIMPLEX
 10
 13267.326
 20
-10274.088
 40
  161.797
  1
  -22.4
 50
    0.000
  0
TEXT
  8
26
 7
SIMPLEX
 10
 14399.902
 20
-10274.088
 40
  161.797
  1
   3.46
 50
    0.000
  0
TEXT
  8
14
 7
SIMPLEX
 10
   161.797
 20
-10759.478
 40
  161.797
  1
Frame
 50
    0.000
  0
TEXT
  8
14
 7
SIMPLEX
 10
   161.797
 20
-11002.173
 40
  161.797
  1
Line
 50
    0.000
  0
TEXT
  8
14
 7
SIMPLEX
 10
  1132.577
 20
-10759.478
 40
  161.797
  1
Column
 50
    0.000
  0
TEXT
  8
14
 7
SIMPLEX
 10
  1132.577
 20
-11002.173
 40
  161.797
  1
Line
 50
    0.000
  0
TEXT
  8
14
 7
SIMPLEX
 10
  2265.153
 20
-10759.478
 40
  161.797
  1
-----Wind_Right1-----
 50
    0.000
  0
TEXT
  8
14
 7
SIMPLEX
 10
  2265.153
 20
-11002.173
 40
  161.797
  1
Horz
 50
    0.000
  0
TEXT
  8
14
 7
SIMPLEX
 10
  3397.730
 20
-11002.173
 40
  161.797
  1
Vert
 50
    0.000
  0
TEXT
  8
14
 7
SIMPLEX
 10
  4530.306
 20
-11002.173
 40
  161.797
  1
Mom
 50
    0.000
  0
TEXT
  8
14
 7
SIMPLEX
 10
  5662.883
 20
-10759.478
 40
  161.797
  1
------Wind_Left2-----
 50
    0.000
  0
TEXT
  8
14
 7
SIMPLEX
 10
  5662.883
 20
-11002.173
 40
  161.797
  1
Horz
 50
    0.000
  0
TEXT
  8
14
 7
SIMPLEX
 10
  6795.459
 20
-11002.173
 40
  161.797
  1
Vert
 50
    0.000
  0
TEXT
  8
14
 7
SIMPLEX
 10
  7928.036
 20
-11002.173
 40
  161.797
  1
Mom
 50
    0.000
  0
TEXT
  8
14
 7
SIMPLEX
 10
  9060.612
 20
-10759.478
 40
  161.797
  1
-----Wind_Right2-----
 50
    0.000
  0
TEXT
  8
14
 7
SIMPLEX
 10
  9060.612
 20
-11002.173
 40
  161.797
  1
Horz
 50
    0.000
  0
TEXT
  8
14
 7
SIMPLEX
 10
 10193.189
 20
-11002.173
 40
  161.797
  1
Vert
 50
    0.000
  0
TEXT
  8
14
 7
SIMPLEX
 10
 11325.766
 20
-11002.173
 40
  161.797
  1
Mom
 50
    0.000
  0
TEXT
  8
14
 7
SIMPLEX
 10
 12458.343
 20
-10759.478
 40
  161.797
  1
------Wind_Long1-----
 50
    0.000
  0
TEXT
  8
14
 7
SIMPLEX
 10
 12458.343
 20
-11002.173
 40
  161.797
  1
Horz
 50
    0.000
  0
TEXT
  8
14
 7
SIMPLEX
 10
 13590.919
 20
-11002.173
 40
  161.797
  1
Vert
 50
    0.000
  0
TEXT
  8
14
 7
SIMPLEX
 10
 14723.495
 20
-11002.173
 40
  161.797
  1
Mom
 50
    0.000
  0
TEXT
  8
13
 7
SIMPLEX
 10
   161.797
 20
-11244.868
 40
  161.797
  1
2*
 50
    0.000
  0
TEXT
  8
13
 7
SIMPLEX
 10
  1132.577
 20
-11244.868
 40
  161.797
  1
C
 50
    0.000
  0
TEXT
  8
26
 7
SIMPLEX
 10
  1941.560
 20
-11244.868
 40
  161.797
  1
    0.3
 50
    0.000
  0
TEXT
  8
26
 7
SIMPLEX
 10
  3074.136
 20
-11244.868
 40
  161.797
  1
  -22.4
 50
    0.000
  0
TEXT
  8
26
 7
SIMPLEX
 10
  4206.713
 20
-11244.868
 40
  161.797
  1
  -3.88
 50
    0.000
  0
TEXT
  8
26
 7
SIMPLEX
 10
  5339.290
 20
-11244.868
 40
  161.797
  1
  -27.4
 50
    0.000
  0
TEXT
  8
26
 7
SIMPLEX
 10
  6471.866
 20
-11244.868
 40
  161.797
  1
  -17.9
 50
    0.000
  0
TEXT
  8
26
 7
SIMPLEX
 10
  7604.443
 20
-11244.868
 40
  161.797
  1
  62.09
 50
    0.000
  0
TEXT
  8
26
 7
SIMPLEX
 10
  8737.020
 20
-11244.868
 40
  161.797
  1
   -0.3
 50
    0.000
  0
TEXT
  8
26
 7
SIMPLEX
 10
  9869.596
 20
-11244.868
 40
  161.797
  1
   -8.8
 50
    0.000
  0
TEXT
  8
26
 7
SIMPLEX
 10
 11002.173
 20
-11244.868
 40
  161.797
  1
 -10.52
 50
    0.000
  0
TEXT
  8
26
 7
SIMPLEX
 10
 12134.749
 20
-11244.868
 40
  161.797
  1
   -9.4
 50
    0.000
  0
TEXT
  8
26
 7
SIMPLEX
 10
 13267.326
 20
-11244.868
 40
  161.797
  1
  -48.1
 50
    0.000
  0
TEXT
  8
26
 7
SIMPLEX
 10
 14399.902
 20
-11244.868
 40
  161.797
  1
  30.53
 50
    0.000
  0
TEXT
  8
13
 7
SIMPLEX
 10
   161.797
 20
-11487.563
 40
  161.797
  1
2*
 50
    0.000
  0
TEXT
  8
13
 7
SIMPLEX
 10
  1132.577
 20
-11487.563
 40
  161.797
  1
A
 50
    0.000
  0
TEXT
  8
26
 7
SIMPLEX
 10
  1941.560
 20
-11487.563
 40
  161.797
  1
   26.8
 50
    0.000
  0
TEXT
  8
26
 7
SIMPLEX
 10
  3074.136
 20
-11487.563
 40
  161.797
  1
  -31.5
 50
    0.000
  0
TEXT
  8
26
 7
SIMPLEX
 10
  4206.713
 20
-11487.563
 40
  161.797
  1
 -69.17
 50
    0.000
  0
TEXT
  8
26
 7
SIMPLEX
 10
  5339.290
 20
-11487.563
 40
  161.797
  1
    0.3
 50
    0.000
  0
TEXT
  8
26
 7
SIMPLEX
 10
  6471.866
 20
-11487.563
 40
  161.797
  1
   -8.8
 50
    0.000
  0
TEXT
  8
26
 7
SIMPLEX
 10
  7604.443
 20
-11487.563
 40
  161.797
  1
  10.31
 50
    0.000
  0
TEXT
  8
26
 7
SIMPLEX
 10
  8737.020
 20
-11487.563
 40
  161.797
  1
   27.4
 50
    0.000
  0
TEXT
  8
26
 7
SIMPLEX
 10
  9869.596
 20
-11487.563
 40
  161.797
  1
  -17.9
 50
    0.000
  0
TEXT
  8
26
 7
SIMPLEX
 10
 11002.173
 20
-11487.563
 40
  161.797
  1
 -62.32
 50
    0.000
  0
TEXT
  8
26
 7
SIMPLEX
 10
 12134.749
 20
-11487.563
 40
  161.797
  1
    9.4
 50
    0.000
  0
TEXT
  8
26
 7
SIMPLEX
 10
 13267.326
 20
-11487.563
 40
  161.797
  1
  -48.4
 50
    0.000
  0
TEXT
  8
26
 7
SIMPLEX
 10
 14399.902
 20
-11487.563
 40
  161.797
  1
 -31.04
 50
    0.000
  0
TEXT
  8
14
 7
SIMPLEX
 10
   161.797
 20
-11972.953
 40
  161.797
  1
Frame
 50
    0.000
  0
TEXT
  8
14
 7
SIMPLEX
 10
   161.797
 20
-12215.648
 40
  161.797
  1
Line
 50
    0.000
  0
TEXT
  8
14
 7
SIMPLEX
 10
  1132.577
 20
-11972.953
 40
  161.797
  1
Column
 50
    0.000
  0
TEXT
  8
14
 7
SIMPLEX
 10
  1132.577
 20
-12215.648
 40
  161.797
  1
Line
 50
    0.000
  0
TEXT
  8
14
 7
SIMPLEX
 10
  2265.153
 20
-11972.953
 40
  161.797
  1
------Wind_Long2-----
 50
    0.000
  0
TEXT
  8
14
 7
SIMPLEX
 10
  2265.153
 20
-12215.648
 40
  161.797
  1
Horz
 50
    0.000
  0
TEXT
  8
14
 7
SIMPLEX
 10
  3397.730
 20
-12215.648
 40
  161.797
  1
Vert
 50
    0.000
  0
TEXT
  8
14
 7
SIMPLEX
 10
  4530.306
 20
-12215.648
 40
  161.797
  1
Mom
 50
    0.000
  0
TEXT
  8
14
 7
SIMPLEX
 10
  5662.883
 20
-11972.953
 40
  161.797
  1
-----Seismic_Left----
 50
    0.000
  0
TEXT
  8
14
 7
SIMPLEX
 10
  5662.883
 20
-12215.648
 40
  161.797
  1
Horz
 50
    0.000
  0
TEXT
  8
14
 7
SIMPLEX
 10
  6795.459
 20
-12215.648
 40
  161.797
  1
Vert
 50
    0.000
  0
TEXT
  8
14
 7
SIMPLEX
 10
  7928.036
 20
-12215.648
 40
  161.797
  1
Mom
 50
    0.000
  0
TEXT
  8
14
 7
SIMPLEX
 10
  9060.612
 20
-11972.953
 40
  161.797
  1
----Seismic_Right----
 50
    0.000
  0
TEXT
  8
14
 7
SIMPLEX
 10
  9060.612
 20
-12215.648
 40
  161.797
  1
Horz
 50
    0.000
  0
TEXT
  8
14
 7
SIMPLEX
 10
 10193.189
 20
-12215.648
 40
  161.797
  1
Vert
 50
    0.000
  0
TEXT
  8
14
 7
SIMPLEX
 10
 11325.766
 20
-12215.648
 40
  161.797
  1
Mom
 50
    0.000
  0
TEXT
  8
14
 7
SIMPLEX
 10
 12458.343
 20
-11972.953
 40
  161.797
  1
----Seismic_Long1----
 50
    0.000
  0
TEXT
  8
14
 7
SIMPLEX
 10
 12458.343
 20
-12215.648
 40
  161.797
  1
Horz
 50
    0.000
  0
TEXT
  8
14
 7
SIMPLEX
 10
 13590.919
 20
-12215.648
 40
  161.797
  1
Vert
 50
    0.000
  0
TEXT
  8
14
 7
SIMPLEX
 10
 14723.495
 20
-12215.648
 40
  161.797
  1
Mom
 50
    0.000
  0
TEXT
  8
13
 7
SIMPLEX
 10
   161.797
 20
-12458.343
 40
  161.797
  1
2*
 50
    0.000
  0
TEXT
  8
13
 7
SIMPLEX
 10
  1132.577
 20
-12458.343
 40
  161.797
  1
C
 50
    0.000
  0
TEXT
  8
26
 7
SIMPLEX
 10
  1941.560
 20
-12458.343
 40
  161.797
  1
   -7.2
 50
    0.000
  0
TEXT
  8
26
 7
SIMPLEX
 10
  3074.136
 20
-12458.343
 40
  161.797
  1
  -34.5
 50
    0.000
  0
TEXT
  8
26
 7
SIMPLEX
 10
  4206.713
 20
-12458.343
 40
  161.797
  1
  20.11
 50
    0.000
  0
TEXT
  8
26
 7
SIMPLEX
 10
  5339.290
 20
-12458.343
 40
  161.797
  1
   -1.2
 50
    0.000
  0
TEXT
  8
26
 7
SIMPLEX
 10
  6471.866
 20
-12458.343
 40
  161.797
  1
   -0.2
 50
    0.000
  0
TEXT
  8
26
 7
SIMPLEX
 10
  7604.443
 20
-12458.343
 40
  161.797
  1
   7.15
 50
    0.000
  0
TEXT
  8
26
 7
SIMPLEX
 10
  8737.020
 20
-12458.343
 40
  161.797
  1
    1.2
 50
    0.000
  0
TEXT
  8
26
 7
SIMPLEX
 10
  9869.596
 20
-12458.343
 40
  161.797
  1
    0.2
 50
    0.000
  0
TEXT
  8
26
 7
SIMPLEX
 10
 11002.173
 20
-12458.343
 40
  161.797
  1
  -7.15
 50
    0.000
  0
TEXT
  8
26
 7
SIMPLEX
 10
 12134.749
 20
-12458.343
 40
  161.797
  1
    0.0
 50
    0.000
  0
TEXT
  8
26
 7
SIMPLEX
 10
 13267.326
 20
-12458.343
 40
  161.797
  1
   -2.0
 50
    0.000
  0
TEXT
  8
26
 7
SIMPLEX
 10
 14399.902
 20
-12458.343
 40
  161.797
  1
   0.00
 50
    0.000
  0
TEXT
  8
13
 7
SIMPLEX
 10
   161.797
 20
-12701.038
 40
  161.797
  1
2*
 50
    0.000
  0
TEXT
  8
13
 7
SIMPLEX
 10
  1132.577
 20
-12701.038
 40
  161.797
  1
A
 50
    0.000
  0
TEXT
  8
26
 7
SIMPLEX
 10
  1941.560
 20
-12701.038
 40
  161.797
  1
    7.2
 50
    0.000
  0
TEXT
  8
26
 7
SIMPLEX
 10
  3074.136
 20
-12701.038
 40
  161.797
  1
  -34.8
 50
    0.000
  0
TEXT
  8
26
 7
SIMPLEX
 10
  4206.713
 20
-12701.038
 40
  161.797
  1
 -20.41
 50
    0.000
  0
TEXT
  8
26
 7
SIMPLEX
 10
  5339.290
 20
-12701.038
 40
  161.797
  1
   -1.2
 50
    0.000
  0
TEXT
  8
26
 7
SIMPLEX
 10
  6471.866
 20
-12701.038
 40
  161.797
  1
    0.2
 50
    0.000
  0
TEXT
  8
26
 7
SIMPLEX
 10
  7604.443
 20
-12701.038
 40
  161.797
  1
   7.15
 50
    0.000
  0
TEXT
  8
26
 7
SIMPLEX
 10
  8737.020
 20
-12701.038
 40
  161.797
  1
    1.2
 50
    0.000
  0
TEXT
  8
26
 7
SIMPLEX
 10
  9869.596
 20
-12701.038
 40
  161.797
  1
   -0.2
 50
    0.000
  0
TEXT
  8
26
 7
SIMPLEX
 10
 11002.173
 20
-12701.038
 40
  161.797
  1
  -7.15
 50
    0.000
  0
TEXT
  8
26
 7
SIMPLEX
 10
 12134.749
 20
-12701.038
 40
  161.797
  1
    0.0
 50
    0.000
  0
TEXT
  8
26
 7
SIMPLEX
 10
 13267.326
 20
-12701.038
 40
  161.797
  1
   -2.0
 50
    0.000
  0
TEXT
  8
26
 7
SIMPLEX
 10
 14399.902
 20
-12701.038
 40
  161.797
  1
   0.00
 50
    0.000
  0
TEXT
  8
14
 7
SIMPLEX
 10
   161.797
 20
-13186.429
 40
  161.797
  1
Frame
 50
    0.000
  0
TEXT
  8
14
 7
SIMPLEX
 10
   161.797
 20
-13429.124
 40
  161.797
  1
Line
 50
    0.000
  0
TEXT
  8
14
 7
SIMPLEX
 10
  1132.577
 20
-13186.429
 40
  161.797
  1
Column
 50
    0.000
  0
TEXT
  8
14
 7
SIMPLEX
 10
  1132.577
 20
-13429.124
 40
  161.797
  1
Line
 50
    0.000
  0
TEXT
  8
14
 7
SIMPLEX
 10
  2265.153
 20
-13186.429
 40
  161.797
  1
----Seismic_Long2----
 50
    0.000
  0
TEXT
  8
14
 7
SIMPLEX
 10
  2265.153
 20
-13429.124
 40
  161.797
  1
Horz
 50
    0.000
  0
TEXT
  8
14
 7
SIMPLEX
 10
  3397.730
 20
-13429.124
 40
  161.797
  1
Vert
 50
    0.000
  0
TEXT
  8
14
 7
SIMPLEX
 10
  4530.306
 20
-13429.124
 40
  161.797
  1
Mom
 50
    0.000
  0
TEXT
  8
14
 7
SIMPLEX
 10
  5662.883
 20
-13186.429
 40
  161.797
  1
---------Temp--------
 50
    0.000
  0
TEXT
  8
14
 7
SIMPLEX
 10
  5662.883
 20
-13429.124
 40
  161.797
  1
Horz
 50
    0.000
  0
TEXT
  8
14
 7
SIMPLEX
 10
  6795.459
 20
-13429.124
 40
  161.797
  1
Vert
 50
    0.000
  0
TEXT
  8
14
 7
SIMPLEX
 10
  7928.036
 20
-13429.124
 40
  161.797
  1
Mom
 50
    0.000
  0
TEXT
  8
14
 7
SIMPLEX
 10
  9060.612
 20
-13186.429
 40
  161.797
  1
-----F2CRANEA1-  ----
 50
    0.000
  0
TEXT
  8
14
 7
SIMPLEX
 10
  9060.612
 20
-13429.124
 40
  161.797
  1
Horz
 50
    0.000
  0
TEXT
  8
14
 7
SIMPLEX
 10
 10193.189
 20
-13429.124
 40
  161.797
  1
Vert
 50
    0.000
  0
TEXT
  8
14
 7
SIMPLEX
 10
 11325.766
 20
-13429.124
 40
  161.797
  1
Mom
 50
    0.000
  0
TEXT
  8
14
 7
SIMPLEX
 10
 12458.343
 20
-13186.429
 40
  161.797
  1
-----F2CRANEA2-  ----
 50
    0.000
  0
TEXT
  8
14
 7
SIMPLEX
 10
 12458.343
 20
-13429.124
 40
  161.797
  1
Horz
 50
    0.000
  0
TEXT
  8
14
 7
SIMPLEX
 10
 13590.919
 20
-13429.124
 40
  161.797
  1
Vert
 50
    0.000
  0
TEXT
  8
14
 7
SIMPLEX
 10
 14723.495
 20
-13429.124
 40
  161.797
  1
Mom
 50
    0.000
  0
TEXT
  8
13
 7
SIMPLEX
 10
   161.797
 20
-13671.819
 40
  161.797
  1
2*
 50
    0.000
  0
TEXT
  8
13
 7
SIMPLEX
 10
  1132.577
 20
-13671.819
 40
  161.797
  1
C
 50
    0.000
  0
TEXT
  8
26
 7
SIMPLEX
 10
  1941.560
 20
-13671.819
 40
  161.797
  1
    0.0
 50
    0.000
  0
TEXT
  8
26
 7
SIMPLEX
 10
  3074.136
 20
-13671.819
 40
  161.797
  1
    2.0
 50
    0.000
  0
TEXT
  8
26
 7
SIMPLEX
 10
  4206.713
 20
-13671.819
 40
  161.797
  1
   0.00
 50
    0.000
  0
TEXT
  8
26
 7
SIMPLEX
 10
  5339.290
 20
-13671.819
 40
  161.797
  1
    0.5
 50
    0.000
  0
TEXT
  8
26
 7
SIMPLEX
 10
  6471.866
 20
-13671.819
 40
  161.797
  1
    0.0
 50
    0.000
  0
TEXT
  8
26
 7
SIMPLEX
 10
  7604.443
 20
-13671.819
 40
  161.797
  1
  -3.99
 50
    0.000
  0
TEXT
  8
26
 7
SIMPLEX
 10
  8737.020
 20
-13671.819
 40
  161.797
  1
    0.0
 50
    0.000
  0
TEXT
  8
26
 7
SIMPLEX
 10
  9869.596
 20
-13671.819
 40
  161.797
  1
   62.1
 50
    0.000
  0
TEXT
  8
26
 7
SIMPLEX
 10
 11002.173
 20
-13671.819
 40
  161.797
  1
  28.22
 50
    0.000
  0
TEXT
  8
26
 7
SIMPLEX
 10
 12134.749
 20
-13671.819
 40
  161.797
  1
    8.0
 50
    0.000
  0
TEXT
  8
26
 7
SIMPLEX
 10
 13267.326
 20
-13671.819
 40
  161.797
  1
   63.0
 50
    0.000
  0
TEXT
  8
26
 7
SIMPLEX
 10
 14399.902
 20
-13671.819
 40
  161.797
  1
  -9.88
 50
    0.000
  0
TEXT
  8
13
 7
SIMPLEX
 10
   161.797
 20
-13914.515
 40
  161.797
  1
2*
 50
    0.000
  0
TEXT
  8
13
 7
SIMPLEX
 10
  1132.577
 20
-13914.515
 40
  161.797
  1
A
 50
    0.000
  0
TEXT
  8
26
 7
SIMPLEX
 10
  1941.560
 20
-13914.515
 40
  161.797
  1
    0.0
 50
    0.000
  0
TEXT
  8
26
 7
SIMPLEX
 10
  3074.136
 20
-13914.515
 40
  161.797
  1
    2.0
 50
    0.000
  0
TEXT
  8
26
 7
SIMPLEX
 10
  4206.713
 20
-13914.515
 40
  161.797
  1
   0.00
 50
    0.000
  0
TEXT
  8
26
 7
SIMPLEX
 10
  5339.290
 20
-13914.515
 40
  161.797
  1
   -0.5
 50
    0.000
  0
TEXT
  8
26
 7
SIMPLEX
 10
  6471.866
 20
-13914.515
 40
  161.797
  1
    0.0
 50
    0.000
  0
TEXT
  8
26
 7
SIMPLEX
 10
  7604.443
 20
-13914.515
 40
  161.797
  1
   3.99
 50
    0.000
  0
TEXT
  8
26
 7
SIMPLEX
 10
  8737.020
 20
-13914.515
 40
  161.797
  1
   -8.0
 50
    0.000
  0
TEXT
  8
26
 7
SIMPLEX
 10
  9869.596
 20
-13914.515
 40
  161.797
  1
   20.5
 50
    0.000
  0
TEXT
  8
26
 7
SIMPLEX
 10
 11002.173
 20
-13914.515
 40
  161.797
  1
  35.03
 50
    0.000
  0
TEXT
  8
26
 7
SIMPLEX
 10
 12134.749
 20
-13914.515
 40
  161.797
  1
    0.0
 50
    0.000
  0
TEXT
  8
26
 7
SIMPLEX
 10
 13267.326
 20
-13914.515
 40
  161.797
  1
   19.5
 50
    0.000
  0
TEXT
  8
26
 7
SIMPLEX
 10
 14399.902
 20
-13914.515
 40
  161.797
  1
  -3.09
 50
    0.000
  0
TEXT
  8
14
 7
SIMPLEX
 10
   161.797
 20
-14399.905
 40
  161.797
  1
Frame
 50
    0.000
  0
TEXT
  8
14
 7
SIMPLEX
 10
   161.797
 20
-14642.601
 40
  161.797
  1
Line
 50
    0.000
  0
TEXT
  8
14
 7
SIMPLEX
 10
  1132.577
 20
-14399.905
 40
  161.797
  1
Column
 50
    0.000
  0
TEXT
  8
14
 7
SIMPLEX
 10
  1132.577
 20
-14642.601
 40
  161.797
  1
Line
 50
    0.000
  0
TEXT
  8
14
 7
SIMPLEX
 10
  2265.153
 20
-14399.905
 40
  161.797
  1
-----F2CRANEA3-  ----
 50
    0.000
  0
TEXT
  8
14
 7
SIMPLEX
 10
  2265.153
 20
-14642.601
 40
  161.797
  1
Horz
 50
    0.000
  0
TEXT
  8
14
 7
SIMPLEX
 10
  3397.730
 20
-14642.601
 40
  161.797
  1
Vert
 50
    0.000
  0
TEXT
  8
14
 7
SIMPLEX
 10
  4530.306
 20
-14642.601
 40
  161.797
  1
Mom
 50
    0.000
  0
TEXT
  8
14
 7
SIMPLEX
 10
  5662.883
 20
-14399.905
 40
  161.797
  1
-----F2CRANEA4-  ----
 50
    0.000
  0
TEXT
  8
14
 7
SIMPLEX
 10
  5662.883
 20
-14642.601
 40
  161.797
  1
Horz
 50
    0.000
  0
TEXT
  8
14
 7
SIMPLEX
 10
  6795.459
 20
-14642.601
 40
  161.797
  1
Vert
 50
    0.000
  0
TEXT
  8
14
 7
SIMPLEX
 10
  7928.036
 20
-14642.601
 40
  161.797
  1
Mom
 50
    0.000
  0
TEXT
  8
14
 7
SIMPLEX
 10
  9060.612
 20
-14399.905
 40
  161.797
  1
----LWIND1_L2E-  ----
 50
    0.000
  0
TEXT
  8
14
 7
SIMPLEX
 10
  9060.612
 20
-14642.601
 40
  161.797
  1
Horz
 50
    0.000
  0
TEXT
  8
14
 7
SIMPLEX
 10
 10193.189
 20
-14642.601
 40
  161.797
  1
Vert
 50
    0.000
  0
TEXT
  8
14
 7
SIMPLEX
 10
 11325.766
 20
-14642.601
 40
  161.797
  1
Mom
 50
    0.000
  0
TEXT
  8
14
 7
SIMPLEX
 10
 12458.343
 20
-14399.905
 40
  161.797
  1
----LWIND1_R2E-  ----
 50
    0.000
  0
TEXT
  8
14
 7
SIMPLEX
 10
 12458.343
 20
-14642.601
 40
  161.797
  1
Horz
 50
    0.000
  0
TEXT
  8
14
 7
SIMPLEX
 10
 13590.919
 20
-14642.601
 40
  161.797
  1
Vert
 50
    0.000
  0
TEXT
  8
14
 7
SIMPLEX
 10
 14723.495
 20
-14642.601
 40
  161.797
  1
Mom
 50
    0.000
  0
TEXT
  8
13
 7
SIMPLEX
 10
   161.797
 20
-14885.296
 40
  161.797
  1
2*
 50
    0.000
  0
TEXT
  8
13
 7
SIMPLEX
 10
  1132.577
 20
-14885.296
 40
  161.797
  1
C
 50
    0.000
  0
TEXT
  8
26
 7
SIMPLEX
 10
  1941.560
 20
-14885.296
 40
  161.797
  1
   -0.3
 50
    0.000
  0
TEXT
  8
26
 7
SIMPLEX
 10
  3074.136
 20
-14885.296
 40
  161.797
  1
   19.4
 50
    0.000
  0
TEXT
  8
26
 7
SIMPLEX
 10
  4206.713
 20
-14885.296
 40
  161.797
  1
   6.53
 50
    0.000
  0
TEXT
  8
26
 7
SIMPLEX
 10
  5339.290
 20
-14885.296
 40
  161.797
  1
    7.7
 50
    0.000
  0
TEXT
  8
26
 7
SIMPLEX
 10
  6471.866
 20
-14885.296
 40
  161.797
  1
   20.3
 50
    0.000
  0
TEXT
  8
26
 7
SIMPLEX
 10
  7604.443
 20
-14885.296
 40
  161.797
  1
 -31.57
 50
    0.000
  0
TEXT
  8
26
 7
SIMPLEX
 10
  8737.020
 20
-14885.296
 40
  161.797
  1
   -0.4
 50
    0.000
  0
TEXT
  8
26
 7
SIMPLEX
 10
  9869.596
 20
-14885.296
 40
  161.797
  1
   -5.4
 50
    0.000
  0
TEXT
  8
26
 7
SIMPLEX
 10
 11002.173
 20
-14885.296
 40
  161.797
  1
  -3.33
 50
    0.000
  0
TEXT
  8
26
 7
SIMPLEX
 10
 12134.749
 20
-14885.296
 40
  161.797
  1
   -1.0
 50
    0.000
  0
TEXT
  8
26
 7
SIMPLEX
 10
 13267.326
 20
-14885.296
 40
  161.797
  1
   -0.3
 50
    0.000
  0
TEXT
  8
26
 7
SIMPLEX
 10
 14399.902
 20
-14885.296
 40
  161.797
  1
   5.89
 50
    0.000
  0
TEXT
  8
13
 7
SIMPLEX
 10
   161.797
 20
-15127.991
 40
  161.797
  1
2*
 50
    0.000
  0
TEXT
  8
13
 7
SIMPLEX
 10
  1132.577
 20
-15127.991
 40
  161.797
  1
A
 50
    0.000
  0
TEXT
  8
26
 7
SIMPLEX
 10
  1941.560
 20
-15127.991
 40
  161.797
  1
   -7.7
 50
    0.000
  0
TEXT
  8
26
 7
SIMPLEX
 10
  3074.136
 20
-15127.991
 40
  161.797
  1
   63.2
 50
    0.000
  0
TEXT
  8
26
 7
SIMPLEX
 10
  4206.713
 20
-15127.991
 40
  161.797
  1
  12.36
 50
    0.000
  0
TEXT
  8
26
 7
SIMPLEX
 10
  5339.290
 20
-15127.991
 40
  161.797
  1
    0.3
 50
    0.000
  0
TEXT
  8
26
 7
SIMPLEX
 10
  6471.866
 20
-15127.991
 40
  161.797
  1
   62.2
 50
    0.000
  0
TEXT
  8
26
 7
SIMPLEX
 10
  7604.443
 20
-15127.991
 40
  161.797
  1
 -25.76
 50
    0.000
  0
TEXT
  8
26
 7
SIMPLEX
 10
  8737.020
 20
-15127.991
 40
  161.797
  1
    1.0
 50
    0.000
  0
TEXT
  8
26
 7
SIMPLEX
 10
  9869.596
 20
-15127.991
 40
  161.797
  1
   -0.3
 50
    0.000
  0
TEXT
  8
26
 7
SIMPLEX
 10
 11002.173
 20
-15127.991
 40
  161.797
  1
  -5.89
 50
    0.000
  0
TEXT
  8
26
 7
SIMPLEX
 10
 12134.749
 20
-15127.991
 40
  161.797
  1
    0.4
 50
    0.000
  0
TEXT
  8
26
 7
SIMPLEX
 10
 13267.326
 20
-15127.991
 40
  161.797
  1
   -5.4
 50
    0.000
  0
TEXT
  8
26
 7
SIMPLEX
 10
 14399.902
 20
-15127.991
 40
  161.797
  1
   3.33
 50
    0.000
  0
TEXT
  8
14
 7
SIMPLEX
 10
   161.797
 20
-15613.382
 40
  161.797
  1
Frame
 50
    0.000
  0
TEXT
  8
14
 7
SIMPLEX
 10
   161.797
 20
-15856.077
 40
  161.797
  1
Line
 50
    0.000
  0
TEXT
  8
14
 7
SIMPLEX
 10
  1132.577
 20
-15613.382
 40
  161.797
  1
Column
 50
    0.000
  0
TEXT
  8
14
 7
SIMPLEX
 10
  1132.577
 20
-15856.077
 40
  161.797
  1
Line
 50
    0.000
  0
TEXT
  8
14
 7
SIMPLEX
 10
  2265.153
 20
-15613.382
 40
  161.797
  1
----LWIND2_L2E-  ----
 50
    0.000
  0
TEXT
  8
14
 7
SIMPLEX
 10
  2265.153
 20
-15856.077
 40
  161.797
  1
Horz
 50
    0.000
  0
TEXT
  8
14
 7
SIMPLEX
 10
  3397.730
 20
-15856.077
 40
  161.797
  1
Vert
 50
    0.000
  0
TEXT
  8
14
 7
SIMPLEX
 10
  4530.306
 20
-15856.077
 40
  161.797
  1
Mom
 50
    0.000
  0
TEXT
  8
14
 7
SIMPLEX
 10
  5662.883
 20
-15613.382
 40
  161.797
  1
----LWIND2_R2E-  ----
 50
    0.000
  0
TEXT
  8
14
 7
SIMPLEX
 10
  5662.883
 20
-15856.077
 40
  161.797
  1
Horz
 50
    0.000
  0
TEXT
  8
14
 7
SIMPLEX
 10
  6795.459
 20
-15856.077
 40
  161.797
  1
Vert
 50
    0.000
  0
TEXT
  8
14
 7
SIMPLEX
 10
  7928.036
 20
-15856.077
 40
  161.797
  1
Mom
 50
    0.000
  0
TEXT
  8
13
 7
SIMPLEX
 10
   161.797
 20
-16098.772
 40
  161.797
  1
2*
 50
    0.000
  0
TEXT
  8
13
 7
SIMPLEX
 10
  1132.577
 20
-16098.772
 40
  161.797
  1
C
 50
    0.000
  0
TEXT
  8
26
 7
SIMPLEX
 10
  1941.560
 20
-16098.772
 40
  161.797
  1
   -0.4
 50
    0.000
  0
TEXT
  8
26
 7
SIMPLEX
 10
  3074.136
 20
-16098.772
 40
  161.797
  1
   -5.4
 50
    0.000
  0
TEXT
  8
26
 7
SIMPLEX
 10
  4206.713
 20
-16098.772
 40
  161.797
  1
  -3.33
 50
    0.000
  0
TEXT
  8
26
 7
SIMPLEX
 10
  5339.290
 20
-16098.772
 40
  161.797
  1
   -1.0
 50
    0.000
  0
TEXT
  8
26
 7
SIMPLEX
 10
  6471.866
 20
-16098.772
 40
  161.797
  1
   -0.3
 50
    0.000
  0
TEXT
  8
26
 7
SIMPLEX
 10
  7604.443
 20
-16098.772
 40
  161.797
  1
   5.89
 50
    0.000
  0
TEXT
  8
13
 7
SIMPLEX
 10
   161.797
 20
-16341.468
 40
  161.797
  1
2*
 50
    0.000
  0
TEXT
  8
13
 7
SIMPLEX
 10
  1132.577
 20
-16341.468
 40
  161.797
  1
A
 50
    0.000
  0
TEXT
  8
26
 7
SIMPLEX
 10
  1941.560
 20
-16341.468
 40
  161.797
  1
    1.0
 50
    0.000
  0
TEXT
  8
26
 7
SIMPLEX
 10
  3074.136
 20
-16341.468
 40
  161.797
  1
   -0.3
 50
    0.000
  0
TEXT
  8
26
 7
SIMPLEX
 10
  4206.713
 20
-16341.468
 40
  161.797
  1
  -5.89
 50
    0.000
  0
TEXT
  8
26
 7
SIMPLEX
 10
  5339.290
 20
-16341.468
 40
  161.797
  1
    0.4
 50
    0.000
  0
TEXT
  8
26
 7
SIMPLEX
 10
  6471.866
 20
-16341.468
 40
  161.797
  1
   -5.4
 50
    0.000
  0
TEXT
  8
26
 7
SIMPLEX
 10
  7604.443
 20
-16341.468
 40
  161.797
  1
   3.33
 50
    0.000
  0
TEXT
  8
13
 7
SIMPLEX
 10
   161.797
 20
-16826.855
 40
  161.797
  1
1*
 50
    0.000
  0
TEXT
  8
14
 7
SIMPLEX
 10
   970.780
 20
-16826.855
 40
  161.797
  1
Frame lines:
 50
    0.000
  0
TEXT
  8
13
 7
SIMPLEX
 10
  3559.526
 20
-16826.855
 40
  161.797
  1
1
 50
    0.000
  0
TEXT
  8
13
 7
SIMPLEX
 10
  3883.120
 20
-16826.855
 40
  161.797
  1
7
 50
    0.000
  0
TEXT
  8
13
 7
SIMPLEX
 10
   161.797
 20
-17069.553
 40
  161.797
  1
2*
 50
    0.000
  0
TEXT
  8
14
 7
SIMPLEX
 10
   970.780
 20
-17069.553
 40
  161.797
  1
Frame lines:
 50
    0.000
  0
TEXT
  8
13
 7
SIMPLEX
 10
  3559.526
 20
-17069.553
 40
  161.797
  1
2
 50
    0.000
  0
TEXT
  8
13
 7
SIMPLEX
 10
  3883.120
 20
-17069.553
 40
  161.797
  1
3
 50
    0.000
  0
TEXT
  8
13
 7
SIMPLEX
 10
  4206.713
 20
-17069.553
 40
  161.797
  1
4
 50
    0.000
  0
TEXT
  8
13
 7
SIMPLEX
 10
  4530.307
 20
-17069.553
 40
  161.797
  1
5
 50
    0.000
  0
TEXT
  8
13
 7
SIMPLEX
 10
  4853.900
 20
-17069.553
 40
  161.797
  1
6
 50
    0.000
  0
TEXT
  8
13
 7
SIMPLEX
 10
   161.797
 20
-17554.943
 40
  161.797
  1
a - Out-Of-Plane Horizontal Load
 50
    0.000
  0
LINE
  8
1
 10
 0.00     
 20
 0.00     
 11
 0.00     
 21
-17676.293
  0
LINE
  8
1
 10
 0.00     
 20
-17676.293
 11
 16503.260
 21
-17676.293
  0
LINE
  8
1
 10
 16503.260
 20
-17676.293
 11
 16503.260
 21
 0.00     
  0
ENDBLK
  8
1
  0
BLOCK
  8
1
  2
RNOTES
 70
     0
 10
 0.00     
 20
 0.00     
  0
TEXT
  8
20
 7
SIMPLEX
 10
   161.797
 20
  -364.042
 40
  242.695
  1
NOTES FOR REACTIONS
 50
    0.000
  0
TEXT
  8
1
 7
SIMPLEX
 10
   485.390
 20
  -849.432
 40
  161.797
  1
1.
 50
    0.000
  0
TEXT
  8
1
 7
SIMPLEX
 10
   808.983
 20
  -849.432
 40
  161.797
  1
All loading conditions are examined and only maximum/minimum H or V and the
 50
    0.000
  0
TEXT
  8
1
 7
SIMPLEX
 10
   808.983
 20
 -1092.127
 40
  161.797
  1
corresponding H or V are reported.
 50
    0.000
  0
TEXT
  8
1
 7
SIMPLEX
 10
   485.390
 20
 -1415.721
 40
  161.797
  1
2.
 50
    0.000
  0
TEXT
  8
1
 7
SIMPLEX
 10
   808.983
 20
 -1415.721
 40
  161.797
  1
Positive reactions are as shown in the sketch.  Foundation loads are in
 50
    0.000
  0
TEXT
  8
1
 7
SIMPLEX
 10
   808.983
 20
 -1658.416
 40
  161.797
  1
opposite directions.
 50
    0.000
  0
TEXT
  8
1
 7
SIMPLEX
 10
   485.390
 20
 -1982.009
 40
  161.797
  1
3.
 50
    0.000
  0
TEXT
  8
1
 7
SIMPLEX
 10
   808.983
 20
 -1982.009
 40
  161.797
  1
Bracing reactions are in the plane of the brace with the H pointing away
 50
    0.000
  0
TEXT
  8
1
 7
SIMPLEX
 10
   808.983
 20
 -2224.704
 40
  161.797
  1
from the braced bay.  The vertical reaction is downward.
 50
    0.000
  0
TEXT
  8
1
 7
SIMPLEX
 10
   485.390
 20
 -2548.297
 40
  161.797
  1
4.
 50
    0.000
  0
TEXT
  8
1
 7
SIMPLEX
 10
   808.983
 20
 -2548.297
 40
  161.797
  1
Building reactions are based on the following building data:
 50
    0.000
  0
TEXT
  8
1
 7
SIMPLEX
 10
  1294.373
 20
 -2790.992
 40
  161.797
  1
Width
 50
    0.000
  0
TEXT
  8
1
 7
SIMPLEX
 10
  4368.510
 20
 -2790.992
 40
  161.797
  1
(mm)
 50
    0.000
  0
TEXT
  8
1
 7
SIMPLEX
 10
  5015.696
 20
 -2790.992
 40
  161.797
  1
=
 50
    0.000
  0
TEXT
  8
1
 7
SIMPLEX
 10
  5096.594
 20
 -2790.992
 40
  161.797
  1
  22470
 50
    0.000
  0
TEXT
  8
1
 7
SIMPLEX
 10
  1294.373
 20
 -3033.687
 40
  161.797
  1
Length
 50
    0.000
  0
TEXT
  8
1
 7
SIMPLEX
 10
  4368.510
 20
 -3033.687
 40
  161.797
  1
(mm)
 50
    0.000
  0
TEXT
  8
1
 7
SIMPLEX
 10
  5015.696
 20
 -3033.687
 40
  161.797
  1
=
 50
    0.000
  0
TEXT
  8
1
 7
SIMPLEX
 10
  5096.594
 20
 -3033.687
 40
  161.797
  1
  36270
 50
    0.000
  0
TEXT
  8
1
 7
SIMPLEX
 10
  1294.373
 20
 -3276.382
 40
  161.797
  1
Eave Height
 50
    0.000
  0
TEXT
  8
1
 7
SIMPLEX
 10
  4368.510
 20
 -3276.382
 40
  161.797
  1
(mm)
 50
    0.000
  0
TEXT
  8
1
 7
SIMPLEX
 10
  5015.696
 20
 -3276.382
 40
  161.797
  1
=
 50
    0.000
  0
TEXT
  8
1
 7
SIMPLEX
 10
  5096.594
 20
 -3276.382
 40
  161.797
  1
   8170/  8170
 50
    0.000
  0
TEXT
  8
1
 7
SIMPLEX
 10
  1294.373
 20
 -3519.077
 40
  161.797
  1
Roof Slope
 50
    0.000
  0
TEXT
  8
1
 7
SIMPLEX
 10
  3397.730
 20
 -3519.077
 40
  161.797
  1
(rise/100)
 50
    0.000
  0
TEXT
  8
1
 7
SIMPLEX
 10
  5015.696
 20
 -3519.077
 40
  161.797
  1
=
 50
    0.000
  0
TEXT
  8
1
 7
SIMPLEX
 10
  5096.594
 20
 -3519.077
 40
  161.797
  1
 10.00/10.00
 50
    0.000
  0
TEXT
  8
1
 7
SIMPLEX
 10
  1294.373
 20
 -3761.772
 40
  161.797
  1
Roof Dead Load
 50
    0.000
  0
TEXT
  8
1
 7
SIMPLEX
 10
  3883.120
 20
 -3761.772
 40
  161.797
  1
(kN/m2)
 50
    0.000
  0
TEXT
  8
1
 7
SIMPLEX
 10
  5015.696
 20
 -3761.772
 40
  161.797
  1
=
 50
    0.000
  0
TEXT
  8
1
 7
SIMPLEX
 10
  5096.594
 20
 -3761.772
 40
  161.797
  1
  0.10
 50
    0.000
  0
TEXT
  8
1
 7
SIMPLEX
 10
  1294.373
 20
 -4004.467
 40
  161.797
  1
Wall Dead Load
 50
    0.000
  0
TEXT
  8
1
 7
SIMPLEX
 10
  1294.373
 20
 -4247.162
 40
  161.797
  1
  Left  Endwall
 50
    0.000
  0
TEXT
  8
1
 7
SIMPLEX
 10
  3883.120
 20
 -4247.162
 40
  161.797
  1
(kN/m2)
 50
    0.000
  0
TEXT
  8
1
 7
SIMPLEX
 10
  5015.696
 20
 -4247.162
 40
  161.797
  1
=
 50
    0.000
  0
TEXT
  8
1
 7
SIMPLEX
 10
  5096.594
 20
 -4247.162
 40
  161.797
  1
  0.10
 50
    0.000
  0
TEXT
  8
1
 7
SIMPLEX
 10
  1294.373
 20
 -4489.856
 40
  161.797
  1
  Right Endwall
 50
    0.000
  0
TEXT
  8
1
 7
SIMPLEX
 10
  3883.120
 20
 -4489.856
 40
  161.797
  1
(kN/m2)
 50
    0.000
  0
TEXT
  8
1
 7
SIMPLEX
 10
  5015.696
 20
 -4489.856
 40
  161.797
  1
=
 50
    0.000
  0
TEXT
  8
1
 7
SIMPLEX
 10
  5096.594
 20
 -4489.856
 40
  161.797
  1
  0.10
 50
    0.000
  0
TEXT
  8
1
 7
SIMPLEX
 10
  1294.373
 20
 -4732.551
 40
  161.797
  1
  Front Sidewall
 50
    0.000
  0
TEXT
  8
1
 7
SIMPLEX
 10
  3883.120
 20
 -4732.551
 40
  161.797
  1
(kN/m2)
 50
    0.000
  0
TEXT
  8
1
 7
SIMPLEX
 10
  5015.696
 20
 -4732.551
 40
  161.797
  1
=
 50
    0.000
  0
TEXT
  8
1
 7
SIMPLEX
 10
  5096.594
 20
 -4732.551
 40
  161.797
  1
  0.10
 50
    0.000
  0
TEXT
  8
1
 7
SIMPLEX
 10
  1294.373
 20
 -4975.246
 40
  161.797
  1
  Back  Sidewall
 50
    0.000
  0
TEXT
  8
1
 7
SIMPLEX
 10
  3883.120
 20
 -4975.246
 40
  161.797
  1
(kN/m2)
 50
    0.000
  0
TEXT
  8
1
 7
SIMPLEX
 10
  5015.696
 20
 -4975.246
 40
  161.797
  1
=
 50
    0.000
  0
TEXT
  8
1
 7
SIMPLEX
 10
  5096.594
 20
 -4975.246
 40
  161.797
  1
  0.10
 50
    0.000
  0
TEXT
  8
1
 7
SIMPLEX
 10
  1294.373
 20
 -5217.941
 40
  161.797
  1
Live Load
 50
    0.000
  0
TEXT
  8
1
 7
SIMPLEX
 10
  3883.120
 20
 -5217.941
 40
  161.797
  1
(kN/m2)
 50
    0.000
  0
TEXT
  8
1
 7
SIMPLEX
 10
  5015.696
 20
 -5217.941
 40
  161.797
  1
=
 50
    0.000
  0
TEXT
  8
1
 7
SIMPLEX
 10
  5096.594
 20
 -5217.941
 40
  161.797
  1
  0.57
 50
    0.000
  0
TEXT
  8
1
 7
SIMPLEX
 10
  1294.373
 20
 -5460.636
 40
  161.797
  1
Collateral Load
 50
    0.000
  0
TEXT
  8
1
 7
SIMPLEX
 10
  3883.120
 20
 -5460.636
 40
  161.797
  1
(kN/m2)
 50
    0.000
  0
TEXT
  8
1
 7
SIMPLEX
 10
  5015.696
 20
 -5460.636
 40
  161.797
  1
=
 50
    0.000
  0
TEXT
  8
1
 7
SIMPLEX
 10
  5096.594
 20
 -5460.636
 40
  161.797
  1
  0.05
 50
    0.000
  0
TEXT
  8
1
 7
SIMPLEX
 10
  1294.373
 20
 -5703.331
 40
  161.797
  1
Wind Speed
 50
    0.000
  0
TEXT
  8
1
 7
SIMPLEX
 10
  4206.713
 20
 -5703.331
 40
  161.797
  1
(m/s)
 50
    0.000
  0
TEXT
  8
1
 7
SIMPLEX
 10
  5015.696
 20
 -5703.331
 40
  161.797
  1
=
 50
    0.000
  0
TEXT
  8
1
 7
SIMPLEX
 10
  5096.594
 20
 -5703.331
 40
  161.797
  1
  39.0
 50
    0.000
  0
TEXT
  8
1
 7
SIMPLEX
 10
  1294.373
 20
 -5946.026
 40
  161.797
  1
Wind Code
 50
    0.000
  0
TEXT
  8
1
 7
SIMPLEX
 10
  5015.696
 20
 -5946.026
 40
  161.797
  1
=
 50
    0.000
  0
TEXT
  8
1
 7
SIMPLEX
 10
  5096.594
 20
 -5946.026
 40
  161.797
  1
 MBMA10
 50
    0.000
  0
TEXT
  8
1
 7
SIMPLEX
 10
  1294.373
 20
 -6188.721
 40
  161.797
  1
Exposure
 50
    0.000
  0
TEXT
  8
1
 7
SIMPLEX
 10
  5015.696
 20
 -6188.721
 40
  161.797
  1
=
 50
    0.000
  0
TEXT
  8
1
 7
SIMPLEX
 10
  5096.594
 20
 -6188.721
 40
  161.797
  1
 B
 50
    0.000
  0
TEXT
  8
1
 7
SIMPLEX
 10
  1294.373
 20
 -6431.416
 40
  161.797
  1
Closure
 50
    0.000
  0
TEXT
  8
1
 7
SIMPLEX
 10
  5015.696
 20
 -6431.416
 40
  161.797
  1
=
 50
    0.000
  0
TEXT
  8
1
 7
SIMPLEX
 10
  5096.594
 20
 -6431.416
 40
  161.797
  1
 Enclosed
 50
    0.000
  0
TEXT
  8
1
 7
SIMPLEX
 10
  1294.373
 20
 -6674.110
 40
  161.797
  1
Internal Wind Coeff
 50
    0.000
  0
TEXT
  8
1
 7
SIMPLEX
 10
  5015.696
 20
 -6674.110
 40
  161.797
  1
=
 50
    0.000
  0
TEXT
  8
1
 7
SIMPLEX
 10
  5096.594
 20
 -6674.110
 40
  161.797
  1
 -0.18, +0.18
 50
    0.000
  0
TEXT
  8
1
 7
SIMPLEX
 10
  1294.373
 20
 -6916.806
 40
  161.797
  1
Risk Category
 50
    0.000
  0
TEXT
  8
1
 7
SIMPLEX
 10
  5015.696
 20
 -6916.806
 40
  161.797
  1
=
 50
    0.000
  0
TEXT
  8
1
 7
SIMPLEX
 10
  5096.594
 20
 -6916.806
 40
  161.797
  1
 -
 50
    0.000
  0
TEXT
  8
1
 7
SIMPLEX
 10
  1294.373
 20
 -7159.501
 40
  161.797
  1
Importance - Wind
 50
    0.000
  0
TEXT
  8
1
 7
SIMPLEX
 10
  5015.696
 20
 -7159.501
 40
  161.797
  1
=
 50
    0.000
  0
TEXT
  8
1
 7
SIMPLEX
 10
  5096.594
 20
 -7159.501
 40
  161.797
  1
  1.00
 50
    0.000
  0
TEXT
  8
1
 7
SIMPLEX
 10
  1294.373
 20
 -7402.196
 40
  161.797
  1
Importance - Seismic
 50
    0.000
  0
TEXT
  8
1
 7
SIMPLEX
 10
  5015.696
 20
 -7402.196
 40
  161.797
  1
=
 50
    0.000
  0
TEXT
  8
1
 7
SIMPLEX
 10
  5096.594
 20
 -7402.196
 40
  161.797
  1
  1.00
 50
    0.000
  0
TEXT
  8
1
 7
SIMPLEX
 10
  1294.373
 20
 -7644.892
 40
  161.797
  1
Seismic Design Category
 50
    0.000
  0
TEXT
  8
1
 7
SIMPLEX
 10
  5015.696
 20
 -7644.892
 40
  161.797
  1
=
 50
    0.000
  0
TEXT
  8
1
 7
SIMPLEX
 10
  5096.594
 20
 -7644.892
 40
  161.797
  1
 B
 50
    0.000
  0
TEXT
  8
1
 7
SIMPLEX
 10
  1294.373
 20
 -7887.586
 40
  161.797
  1
Seismic Coeff
 50
    0.000
  0
TEXT
  8
1
 7
SIMPLEX
 10
  4206.713
 20
 -7887.586
 40
  161.797
  1
(Sms)
 50
    0.000
  0
TEXT
  8
1
 7
SIMPLEX
 10
  5015.696
 20
 -7887.586
 40
  161.797
  1
=
 50
    0.000
  0
TEXT
  8
1
 7
SIMPLEX
 10
  5096.594
 20
 -7887.586
 40
  161.797
  1
  0.16
 50
    0.000
  0
TEXT
  8
1
 7
SIMPLEX
 10
  1294.373
 20
 -8130.282
 40
  161.797
  1
Temperature Change
 50
    0.000
  0
TEXT
  8
1
 7
SIMPLEX
 10
  5015.696
 20
 -8130.282
 40
  161.797
  1
=
 50
    0.000
  0
TEXT
  8
1
 7
SIMPLEX
 10
  5096.594
 20
 -8130.282
 40
  161.797
  1
   20
 50
    0.000
  0
TEXT
  8
1
 7
SIMPLEX
 10
   485.390
 20
 -8453.875
 40
  161.797
  1
5.
 50
    0.000
  0
TEXT
  8
1
 7
SIMPLEX
 10
   808.983
 20
 -8453.875
 40
  161.797
  1
Loading conditions are:
 50
    0.000
  0
TEXT
  8
1
 7
SIMPLEX
 10
   808.983
 20
 -8777.469
 40
  161.797
  1
1
 50
    0.000
  0
TEXT
  8
1
 7
SIMPLEX
 10
  1294.373
 20
 -8777.469
 40
  161.797
  1
Dead+Collateral+Live
 50
    0.000
  0
TEXT
  8
1
 7
SIMPLEX
 10
   808.983
 20
 -9020.164
 40
  161.797
  1
2
 50
    0.000
  0
TEXT
  8
1
 7
SIMPLEX
 10
  1294.373
 20
 -9020.164
 40
  161.797
  1
Dead+Collateral+0.75Live+0.75Wind_Right2+0.75Floor_Live
 50
    0.000
  0
TEXT
  8
1
 7
SIMPLEX
 10
   808.983
 20
 -9262.859
 40
  161.797
  1
3
 50
    0.000
  0
TEXT
  8
1
 7
SIMPLEX
 10
  1294.373
 20
 -9262.859
 40
  161.797
  1
Dead+Collateral+0.75Live+0.75Wind_Long2L+0.75Floor_Live+0.75LWIND2_L2E
 50
    0.000
  0
TEXT
  8
1
 7
SIMPLEX
 10
   808.983
 20
 -9505.555
 40
  161.797
  1
4
 50
    0.000
  0
TEXT
  8
1
 7
SIMPLEX
 10
  1294.373
 20
 -9505.555
 40
  161.797
  1
0.6Dead+Wind_Left1
 50
    0.000
  0
TEXT
  8
1
 7
SIMPLEX
 10
   808.983
 20
 -9748.250
 40
  161.797
  1
5
 50
    0.000
  0
TEXT
  8
1
 7
SIMPLEX
 10
  1294.373
 20
 -9748.250
 40
  161.797
  1
0.6Dead+Wind_Right1
 50
    0.000
  0
TEXT
  8
1
 7
SIMPLEX
 10
   808.983
 20
 -9990.945
 40
  161.797
  1
6
 50
    0.000
  0
TEXT
  8
1
 7
SIMPLEX
 10
  1294.373
 20
 -9990.945
 40
  161.797
  1
0.6Dead+Wind_Left2
 50
    0.000
  0
TEXT
  8
1
 7
SIMPLEX
 10
   808.983
 20
-10233.641
 40
  161.797
  1
7
 50
    0.000
  0
TEXT
  8
1
 7
SIMPLEX
 10
  1294.373
 20
-10233.641
 40
  161.797
  1
0.6Dead+Wind_Right2
 50
    0.000
  0
TEXT
  8
1
 7
SIMPLEX
 10
   808.983
 20
-10476.336
 40
  161.797
  1
8
 50
    0.000
  0
TEXT
  8
1
 7
SIMPLEX
 10
  1294.373
 20
-10476.336
 40
  161.797
  1
0.6Dead+Wind_Long1L+LWIND1_L2E
 50
    0.000
  0
TEXT
  8
1
 7
SIMPLEX
 10
   808.983
 20
-10719.031
 40
  161.797
  1
9
 50
    0.000
  0
TEXT
  8
1
 7
SIMPLEX
 10
  1294.373
 20
-10719.031
 40
  161.797
  1
0.6Dead+Wind_Long1L+LWIND1_R2E
 50
    0.000
  0
TEXT
  8
1
 7
SIMPLEX
 10
   808.983
 20
-10961.727
 40
  161.797
  1
10
 50
    0.000
  0
TEXT
  8
1
 7
SIMPLEX
 10
  1294.373
 20
-10961.727
 40
  161.797
  1
Dead+Collateral+F1CRANEA2
 50
    0.000
  0
TEXT
  8
1
 7
SIMPLEX
 10
   808.983
 20
-11204.421
 40
  161.797
  1
11
 50
    0.000
  0
TEXT
  8
1
 7
SIMPLEX
 10
  1294.373
 20
-11204.421
 40
  161.797
  1
Dead+Collateral+F1CRANEA3
 50
    0.000
  0
TEXT
  8
1
 7
SIMPLEX
 10
   808.983
 20
-11447.116
 40
  161.797
  1
12
 50
    0.000
  0
TEXT
  8
1
 7
SIMPLEX
 10
  1294.373
 20
-11447.116
 40
  161.797
  1
Dead+Wind_Left1/2+F1CRANEA1
 50
    0.000
  0
TEXT
  8
1
 7
SIMPLEX
 10
   808.983
 20
-11689.812
 40
  161.797
  1
13
 50
    0.000
  0
TEXT
  8
1
 7
SIMPLEX
 10
  1294.373
 20
-11689.812
 40
  161.797
  1
Dead+Wind_Right1/2+F1CRANEA2
 50
    0.000
  0
TEXT
  8
1
 7
SIMPLEX
 10
   808.983
 20
-11932.507
 40
  161.797
  1
14
 50
    0.000
  0
TEXT
  8
1
 7
SIMPLEX
 10
  1294.373
 20
-11932.507
 40
  161.797
  1
Dead+Collateral+F2CRANEA2
 50
    0.000
  0
TEXT
  8
1
 7
SIMPLEX
 10
   808.983
 20
-12175.202
 40
  161.797
  1
15
 50
    0.000
  0
TEXT
  8
1
 7
SIMPLEX
 10
  1294.373
 20
-12175.202
 40
  161.797
  1
Dead+Collateral+F2CRANEA3
 50
    0.000
  0
TEXT
  8
1
 7
SIMPLEX
 10
   808.983
 20
-12417.897
 40
  161.797
  1
16
 50
    0.000
  0
TEXT
  8
1
 7
SIMPLEX
 10
  1294.373
 20
-12417.897
 40
  161.797
  1
0.6Dead+Wind_Right1+Wind_Suction
 50
    0.000
  0
TEXT
  8
1
 7
SIMPLEX
 10
   808.983
 20
-12660.593
 40
  161.797
  1
17
 50
    0.000
  0
TEXT
  8
1
 7
SIMPLEX
 10
  1294.373
 20
-12660.593
 40
  161.797
  1
0.6Dead+Wind_Pressure+Wind_Long1L
 50
    0.000
  0
LINE
  8
0
 10
 0.00     
 20
-12822.390
 11
 16503.260
 21
-12822.390
  0
LINE
  8
0
 10
 16503.260
 20
-12822.390
 11
 16503.260
 21
 0.00     
  0
LINE
  8
0
 10
 16503.260
 20
 0.00     
 11
 0.00     
 21
 0.00     
  0
LINE
  8
0
 10
 0.00     
 20
 0.00     
 11
 0.00     
 21
-12822.390
  0
ENDBLK
  8
0
  0
ENDSEC
  0
SECTION
  2
ENTITIES
  0
LINE
  8
22
 10
 0.00     
 20
 0.00     
 11
 56851.773
 21
 0.00     
  0
LINE
  8
22
 10
 56851.773
 20
 0.00     
 11
 56851.773
 21
 40202.328
  0
LINE
  8
22
 10
 56851.773
 20
 40202.328
 11
 0.00     
 21
 40202.328
  0
LINE
  8
22
 10
 0.00     
 20
 40202.328
 11
 0.00     
 21
 0.00     
  0
LINE
  8
0
 10
 35191.246
 20
 0.00     
 11
 35191.246
 21
  3610.088
  0
LINE
  8
0
 10
 35191.246
 20
  3610.088
 11
 56851.773
 21
  3610.088
  0
LINE
  8
0
 10
 35191.246
 20
  1375.272
 11
 56851.773
 21
  1375.272
  0
LINE
  8
0
 10
 35191.246
 20
  2062.907
 11
 56851.773
 21
  2062.907
  0
LINE
  8
0
 10
 35191.246
 20
  2750.543
 11
 56851.773
 21
  2750.543
  0
LINE
  8
0
 10
 38285.605
 20
 0.00     
 11
 38285.605
 21
  2750.543
  0
LINE
  8
0
 10
 46021.508
 20
 0.00     
 11
 46021.508
 21
  2750.543
  0
LINE
  8
0
 10
 46021.508
 20
   687.636
 11
 56851.773
 21
   687.636
  0
LINE
  8
0
 10
 49803.504
 20
  2062.907
 11
 49803.504
 21
  1375.272
  0
LINE
  8
0
 10
 53241.688
 20
  2062.907
 11
 53241.688
 21
  1375.272
  0
LINE
  8
0
 10
 51522.594
 20
  1375.272
 11
 51522.594
 21
   687.636
  0
TEXT
  8
14
 7
SIMPLEX
 10
 37168.199
 20
  2922.452
 40
  515.727
  1
RECLA INTERNATIONAL PRIVATE LIMITED
 50
    0.000
  0
TEXT
  8
14
 7
SIMPLEX
 10
 35535.063
 20
  2234.816
 40
  343.818
  1
PROJECT
 50
    0.000
  0
TEXT
  8
14
 7
SIMPLEX
 10
 35535.063
 20
  1547.181
 40
  343.818
  1
ID
 50
    0.000
  0
TEXT
  8
14
 7
SIMPLEX
 10
 35535.063
 20
   859.545
 40
  343.818
  1
PROJECT
 50
    0.000
  0
TEXT
  8
14
 7
SIMPLEX
 10
 35535.063
 20
   171.909
 40
  343.818
  1
ADDRESS
 50
    0.000
  0
TEXT
  8
14
 7
SIMPLEX
 10
 38629.426
 20
  2234.816
 40
  343.818
  1
Proposed Warehouse
 50
    0.000
  0
TEXT
  8
14
 7
SIMPLEX
 10
 38629.426
 20
  1547.181
 40
  343.818
  1
C323-153
 50
    0.000
  0
TEXT
  8
14
 7
SIMPLEX
 10
 38629.426
 20
   859.545
 40
  343.818
  1
Proposed Warehouse
 50
    0.000
  0
TEXT
  8
14
 7
SIMPLEX
 10
 38629.426
 20
   171.909
 40
  343.818
  1
PINE
 50
    0.000
  0
TEXT
  8
14
 7
SIMPLEX
 10
 46365.328
 20
  2234.816
 40
  343.818
  1
ANCHOR BOLT REACTIONS
 50
    0.000
  0
TEXT
  8
14
 7
SIMPLEX
 10
 46365.328
 20
  1547.181
 40
  343.818
  1
DESIGN:
 50
    0.000
  0
TEXT
  8
14
 7
SIMPLEX
 10
 46365.328
 20
   859.545
 40
  343.818
  1
DATE:
 50
    0.000
  0
TEXT
  8
14
 7
SIMPLEX
 10
 48118.797
 20
   859.545
 40
  343.818
  1
23/JUL/2025
 50
    0.000
  0
TEXT
  8
14
 7
SIMPLEX
 10
 50147.324
 20
  1547.181
 40
  343.818
  1
DRAFT:
 50
    0.000
  0
TEXT
  8
14
 7
SIMPLEX
 10
 53585.504
 20
  1547.181
 40
  343.818
  1
CHECK:
 50
    0.000
  0
TEXT
  8
14
 7
SIMPLEX
 10
 51694.504
 20
   859.545
 40
  343.818
  1
SHEET
 50
    0.000
  0
TEXT
  8
14
 7
SIMPLEX
 10
 54788.867
 20
   859.545
 40
  343.818
  1
OF
 50
    0.000
  0
TEXT
  8
14
 7
SIMPLEX
 10
 53413.594
 20
   859.545
 40
  343.818
  1
 
 50
    0.000
999
FIELD:@PAGE_ID
  0
TEXT
  8
14
 7
SIMPLEX
 10
 55476.500
 20
   859.545
 40
  343.818
  1
 
 50
    0.000
999
FIELD:@PAGE_TOTAL
  0
INSERT
  8
1
  2
RFRM-1
 10
 40348.512
 20
 40202.328
 41
     1.000
 42
     1.000
 43
     1.000
 50
    0.000
  0
INSERT
  8
1
  2
RFRM-2
 10
 40348.512
 20
 33730.465
 41
     1.000
 42
     1.000
 43
     1.000
 50
    0.000
  0
INSERT
  8
1
  2
BOLT01
 10
 40348.512
 20
 27258.600
 41
     1.000
 42
     1.000
 43
     1.000
 50
    0.000
  0
INSERT
  8
1
  2
BOLT02
 10
 40348.512
 20
 23779.973
 41
     1.000
 42
     1.000
 43
     1.000
 50
    0.000
  0
INSERT
  8
1
  2
RFBASE
 10
 23845.254
 20
 40202.328
 41
     1.000
 42
     1.000
 43
     1.000
 50
    0.000
  0
INSERT
  8
1
  2
RNOTES
 10
 40348.512
 20
 20544.039
 41
     1.000
 42
     1.000
 43
     1.000
 50
    0.000
  0
INSERT
  8
1
  2
BRACET
 10
 32096.885
 20
 22526.039
 41
     1.000
 42
     1.000
 43
     1.000
 50
    0.000
  0
ENDSEC
  0
EOF
