  0
SECTION
  2
HEADER
  9
$ACADVER
  1
AC1009
  9
$EXTMIN
 10
 -2064.961
 20
 -3914.969
  9
$EXTMAX
 10
 38334.961
 20
 26384.969
  9
$LIMMIN
 10
 -2064.961
 20
 -3914.969
  9
$LIMMAX
 10
 38334.961
 20
 26384.969
  9
$FILLMODE
 70
     1
  9
$HANDLING
 70
     0
  0
ENDSEC
  0
SECTION
  2
TABLES
  0
TABLE
  2
LTYPE
 70
1
  0
LTYPE
  2
CONTIN
 70
    64
  3
SOLID LINE
 72
    65
 73
     0
 40
0.0
  0
LTYPE
  2
CONTINUOUS
 70
    64
  3
SOLID LINE
 72
    65
 73
     0
 40
0.0
  0
LTYPE
  2
CENTER
 70
    64
  3
____ _ ____ _ ____ _ ____ _ ____ _ ____ _ ____
 72
    65
 73
     4
 40
    10.220
 49
     6.388
 49
    -1.278
 49
     1.278
 49
    -1.278
  0
LTYPE
  2
DASHED
 70
    64
  3
__ __ __ __ __ __ __ __ __ __ __ __ __ __ __ 
 72
    65
 73
     2
 40
   484.79
 49
   323.19
 49
  -161.60
  0
ENDTAB
  0
TABLE
  2
LAYER
 70
30
  0
LAYER
  2
0
 70
     0
 62
     7
  6
CONTIN
  0
LAYER
  2
1
 70
     0
 62
     7
  6
CONTIN
  0
LAYER
  2
2
 70
     0
 62
     7
  6
CONTIN
  0
LAYER
  2
3
 70
     0
 62
     7
  6
CONTIN
  0
LAYER
  2
4
 70
     0
 62
     5
  6
CONTIN
  0
LAYER
  2
5
 70
     0
 62
     5
  6
DASHED
  0
LAYER
  2
6
 70
     0
 62
     5
  6
DASHED
  0
LAYER
  2
7
 70
     0
 62
     5
  6
CONTIN
  0
LAYER
  2
8
 70
     0
 62
     5
  6
DASHED
  0
LAYER
  2
9
 70
     0
 62
     7
  6
CONTIN
  0
LAYER
  2
10
 70
     0
 62
     7
  6
CONTIN
  0
LAYER
  2
11
 70
     0
 62
     6
  6
DASHED
  0
LAYER
  2
12
 70
     0
 62
     7
  6
DASHED
  0
LAYER
  2
13
 70
     0
 62
     5
  6
DASHED
  0
LAYER
  2
14
 70
     0
 62
     7
  6
CONTIN
  0
LAYER
  2
15
 70
     0
 62
     5
  6
CONTIN
  0
LAYER
  2
16
 70
     0
 62
     7
  6
CONTIN
  0
LAYER
  2
17
 70
     0
 62
     7
  6
CONTIN
  0
LAYER
  2
18
 70
     0
 62
     7
  6
CONTIN
  0
LAYER
  2
19
 70
     0
 62
     7
  6
CONTIN
  0
LAYER
  2
20
 70
     0
 62
     1
  6
CONTIN
  0
LAYER
  2
21
 70
     0
 62
     7
  6
CONTIN
  0
LAYER
  2
22
 70
     0
 62
     7
  6
DASHED
  0
LAYER
  2
23
 70
     0
 62
     7
  6
DASHED
  0
LAYER
  2
24
 70
     0
 62
     7
  6
CONTIN
  0
LAYER
  2
25
 70
     0
 62
     7
  6
CONTIN
  0
LAYER
  2
26
 70
     0
 62
     7
  6
CONTIN
  0
LAYER
  2
27
 70
     0
 62
     1
  6
CENTER
  0
LAYER
  2
28
 70
     0
 62
     7
  6
CONTIN
  0
LAYER
  2
29
 70
     0
 62
     3
  6
DASHED
  0
ENDTAB
  0
TABLE
  2
STYLE
 70
  0
  0
ENDTAB
  0
ENDSEC
  0
SECTION
  2
ENTITIES
  0
LINE
  8
7
 10
     0.000
 20
     0.000
 11
     0.000
 21
 22470.000
  0
LINE
  8
7
 10
     0.000
 20
 22470.000
 11
 36270.000
 21
 22470.000
  0
LINE
  8
7
 10
 36270.000
 20
 22470.000
 11
 36270.000
 21
     0.000
  0
LINE
  8
7
 10
 36270.000
 20
     0.000
 11
     0.000
 21
     0.000
  0
LINE
  8
17
 10
  -152.400
 20
 22622.400
 11
   152.400
 21
 22317.600
  0
LINE
  8
17
 10
   152.400
 20
 22622.400
 11
  -152.400
 21
 22317.600
  0
LINE
  8
17
 10
  -152.400
 20
 11387.400
 11
   152.400
 21
 11082.601
  0
LINE
  8
17
 10
   152.400
 20
 11387.400
 11
  -152.400
 21
 11082.601
  0
LINE
  8
17
 10
  -152.400
 20
   152.400
 11
   152.400
 21
  -152.400
  0
LINE
  8
17
 10
   152.400
 20
   152.400
 11
  -152.400
 21
  -152.400
  0
LINE
  8
17
 10
  6047.600
 20
   152.400
 11
  6352.400
 21
  -152.400
  0
LINE
  8
17
 10
  6352.400
 20
   152.400
 11
  6047.600
 21
  -152.400
  0
LINE
  8
17
 10
 12037.600
 20
   152.400
 11
 12342.400
 21
  -152.400
  0
LINE
  8
17
 10
 12342.400
 20
   152.400
 11
 12037.600
 21
  -152.400
  0
LINE
  8
17
 10
 17767.600
 20
   152.400
 11
 18072.400
 21
  -152.400
  0
LINE
  8
17
 10
 18072.400
 20
   152.400
 11
 17767.600
 21
  -152.400
  0
LINE
  8
17
 10
 23997.600
 20
   152.400
 11
 24302.400
 21
  -152.400
  0
LINE
  8
17
 10
 24302.400
 20
   152.400
 11
 23997.600
 21
  -152.400
  0
LINE
  8
17
 10
 29867.600
 20
   152.400
 11
 30172.400
 21
  -152.400
  0
LINE
  8
17
 10
 30172.400
 20
   152.400
 11
 29867.600
 21
  -152.400
  0
LINE
  8
17
 10
 36117.598
 20
   152.400
 11
 36422.398
 21
  -152.400
  0
LINE
  8
17
 10
 36422.398
 20
   152.400
 11
 36117.598
 21
  -152.400
  0
LINE
  8
17
 10
 36117.598
 20
 11387.400
 11
 36422.398
 21
 11082.601
  0
LINE
  8
17
 10
 36422.398
 20
 11387.400
 11
 36117.598
 21
 11082.601
  0
LINE
  8
17
 10
 36117.598
 20
 22622.400
 11
 36422.398
 21
 22317.600
  0
LINE
  8
17
 10
 36422.398
 20
 22622.400
 11
 36117.598
 21
 22317.600
  0
LINE
  8
17
 10
 29867.600
 20
 22622.400
 11
 30172.400
 21
 22317.600
  0
LINE
  8
17
 10
 30172.400
 20
 22622.400
 11
 29867.600
 21
 22317.600
  0
LINE
  8
17
 10
 23997.600
 20
 22622.400
 11
 24302.400
 21
 22317.600
  0
LINE
  8
17
 10
 24302.400
 20
 22622.400
 11
 23997.600
 21
 22317.600
  0
LINE
  8
17
 10
 17767.600
 20
 22622.400
 11
 18072.400
 21
 22317.600
  0
LINE
  8
17
 10
 18072.400
 20
 22622.400
 11
 17767.600
 21
 22317.600
  0
LINE
  8
17
 10
 12037.600
 20
 22622.400
 11
 12342.400
 21
 22317.600
  0
LINE
  8
17
 10
 12342.400
 20
 22622.400
 11
 12037.600
 21
 22317.600
  0
LINE
  8
17
 10
  6047.600
 20
 22622.400
 11
  6352.400
 21
 22317.600
  0
LINE
  8
17
 10
  6352.400
 20
 22622.400
 11
  6047.600
 21
 22317.600
  0
LINE
  8
8
 10
  -228.600
 20
 21498.602
 11
  -228.600
 21
   866.401
  0
LINE
  8
8
 10
  -228.600
 20
   866.401
 11
 36498.598
 21
   866.401
  0
LINE
  8
8
 10
 36498.598
 20
   866.401
 11
 36498.598
 21
 21498.602
  0
LINE
  8
8
 10
 36498.598
 20
 21498.602
 11
  -228.600
 21
 21498.602
  0
TEXT
  8
21
 10
 17224.854
 20
 11182.501
 40
   127.000
  1
Crane System  1
 50
     0.000
  0
LINE
  8
1
 10
   592.400
 20
 21270.000
 11
  6047.600
 21
 21270.000
  0
TEXT
  8
16
 10
  3044.854
 20
 21111.250
 40
   127.000
  1
Beam1
 50
     0.000
  0
LINE
  8
1
 10
   592.400
 20
  1095.001
 11
  6047.600
 21
  1095.001
  0
TEXT
  8
16
 10
  3023.646
 20
  1126.751
 40
   127.000
  1
Beam2
 50
     0.000
  0
LINE
  8
1
 10
  6352.400
 20
 21270.000
 11
 12037.600
 21
 21270.000
  0
TEXT
  8
16
 10
  8898.646
 20
 21111.250
 40
   127.000
  1
Beam3
 50
     0.000
  0
LINE
  8
1
 10
  6352.400
 20
  1095.001
 11
 12037.600
 21
  1095.001
  0
TEXT
  8
16
 10
  8898.646
 20
  1126.751
 40
   127.000
  1
Beam4
 50
     0.000
  0
LINE
  8
1
 10
 12342.400
 20
 21270.000
 11
 17767.600
 21
 21270.000
  0
TEXT
  8
16
 10
 14758.646
 20
 21111.250
 40
   127.000
  1
Beam5
 50
     0.000
  0
LINE
  8
1
 10
 12342.400
 20
  1095.001
 11
 17767.600
 21
  1095.001
  0
TEXT
  8
16
 10
 14758.646
 20
  1126.751
 40
   127.000
  1
Beam6
 50
     0.000
  0
LINE
  8
1
 10
 18072.400
 20
 21270.000
 11
 23997.600
 21
 21270.000
  0
TEXT
  8
16
 10
 20738.646
 20
 21111.250
 40
   127.000
  1
Beam7
 50
     0.000
  0
LINE
  8
1
 10
 18072.400
 20
  1095.001
 11
 23997.600
 21
  1095.001
  0
TEXT
  8
16
 10
 20738.646
 20
  1126.751
 40
   127.000
  1
Beam8
 50
     0.000
  0
LINE
  8
1
 10
 24302.400
 20
 21270.000
 11
 29867.600
 21
 21270.000
  0
TEXT
  8
16
 10
 26788.646
 20
 21111.250
 40
   127.000
  1
Beam9
 50
     0.000
  0
LINE
  8
1
 10
 24302.400
 20
  1095.001
 11
 29867.600
 21
  1095.001
  0
TEXT
  8
16
 10
 26756.959
 20
  1126.751
 40
   127.000
  1
Beam10
 50
     0.000
  0
LINE
  8
1
 10
 30172.400
 20
 21270.000
 11
 35677.598
 21
 21270.000
  0
TEXT
  8
16
 10
 32607.559
 20
 21111.250
 40
   127.000
  1
Beam11
 50
     0.000
  0
LINE
  8
1
 10
 30172.400
 20
  1095.001
 11
 35677.598
 21
  1095.001
  0
TEXT
  8
16
 10
 32586.352
 20
  1126.751
 40
   127.000
  1
Beam12
 50
     0.000
  0
LINE
  8
3
 10
   744.800
 20
 21574.801
 11
   440.000
 21
 21879.602
  0
LINE
  8
3
 10
   440.000
 20
 21879.602
 11
  1049.600
 21
 21879.602
  0
LINE
  8
3
 10
  1049.600
 20
 21879.602
 11
   744.800
 21
 21574.801
  0
LINE
  8
3
 10
  5895.200
 20
 21574.801
 11
  5590.400
 21
 21879.602
  0
LINE
  8
3
 10
  5590.400
 20
 21879.602
 11
  6200.000
 21
 21879.602
  0
LINE
  8
3
 10
  6200.000
 20
 21879.602
 11
  5895.200
 21
 21574.801
  0
LINE
  8
3
 10
  6504.800
 20
 21574.801
 11
  6200.000
 21
 21879.602
  0
LINE
  8
3
 10
  6200.000
 20
 21879.602
 11
  6809.600
 21
 21879.602
  0
LINE
  8
3
 10
  6809.600
 20
 21879.602
 11
  6504.800
 21
 21574.801
  0
LINE
  8
3
 10
 11885.200
 20
 21574.801
 11
 11580.400
 21
 21879.602
  0
LINE
  8
3
 10
 11580.400
 20
 21879.602
 11
 12190.000
 21
 21879.602
  0
LINE
  8
3
 10
 12190.000
 20
 21879.602
 11
 11885.200
 21
 21574.801
  0
LINE
  8
3
 10
 12494.800
 20
 21574.801
 11
 12190.000
 21
 21879.602
  0
LINE
  8
3
 10
 12190.000
 20
 21879.602
 11
 12799.600
 21
 21879.602
  0
LINE
  8
3
 10
 12799.600
 20
 21879.602
 11
 12494.800
 21
 21574.801
  0
LINE
  8
3
 10
 17615.201
 20
 21574.801
 11
 17310.400
 21
 21879.602
  0
LINE
  8
3
 10
 17310.400
 20
 21879.602
 11
 17920.000
 21
 21879.602
  0
LINE
  8
3
 10
 17920.000
 20
 21879.602
 11
 17615.201
 21
 21574.801
  0
LINE
  8
3
 10
 18224.801
 20
 21574.801
 11
 17920.000
 21
 21879.602
  0
LINE
  8
3
 10
 17920.000
 20
 21879.602
 11
 18529.600
 21
 21879.602
  0
LINE
  8
3
 10
 18529.600
 20
 21879.602
 11
 18224.801
 21
 21574.801
  0
LINE
  8
3
 10
 23845.199
 20
 21574.801
 11
 23540.400
 21
 21879.602
  0
LINE
  8
3
 10
 23540.400
 20
 21879.602
 11
 24150.000
 21
 21879.602
  0
LINE
  8
3
 10
 24150.000
 20
 21879.602
 11
 23845.199
 21
 21574.801
  0
LINE
  8
3
 10
 24454.801
 20
 21574.801
 11
 24150.000
 21
 21879.602
  0
LINE
  8
3
 10
 24150.000
 20
 21879.602
 11
 24759.600
 21
 21879.602
  0
LINE
  8
3
 10
 24759.600
 20
 21879.602
 11
 24454.801
 21
 21574.801
  0
LINE
  8
3
 10
 29715.199
 20
 21574.801
 11
 29410.400
 21
 21879.602
  0
LINE
  8
3
 10
 29410.400
 20
 21879.602
 11
 30020.000
 21
 21879.602
  0
LINE
  8
3
 10
 30020.000
 20
 21879.602
 11
 29715.199
 21
 21574.801
  0
LINE
  8
3
 10
 30324.799
 20
 21574.801
 11
 30020.000
 21
 21879.602
  0
LINE
  8
3
 10
 30020.000
 20
 21879.602
 11
 30629.600
 21
 21879.602
  0
LINE
  8
3
 10
 30629.600
 20
 21879.602
 11
 30324.799
 21
 21574.801
  0
LINE
  8
3
 10
 35525.199
 20
 21574.801
 11
 35220.398
 21
 21879.602
  0
LINE
  8
3
 10
 35220.398
 20
 21879.602
 11
 35830.000
 21
 21879.602
  0
LINE
  8
3
 10
 35830.000
 20
 21879.602
 11
 35525.199
 21
 21574.801
  0
LINE
  8
3
 10
   744.800
 20
   790.201
 11
   440.000
 21
   485.401
  0
LINE
  8
3
 10
   440.000
 20
   485.401
 11
  1049.600
 21
   485.401
  0
LINE
  8
3
 10
  1049.600
 20
   485.401
 11
   744.800
 21
   790.201
  0
LINE
  8
3
 10
  5895.200
 20
   790.201
 11
  5590.400
 21
   485.401
  0
LINE
  8
3
 10
  5590.400
 20
   485.401
 11
  6200.000
 21
   485.401
  0
LINE
  8
3
 10
  6200.000
 20
   485.401
 11
  5895.200
 21
   790.201
  0
LINE
  8
3
 10
  6504.800
 20
   790.201
 11
  6200.000
 21
   485.401
  0
LINE
  8
3
 10
  6200.000
 20
   485.401
 11
  6809.600
 21
   485.401
  0
LINE
  8
3
 10
  6809.600
 20
   485.401
 11
  6504.800
 21
   790.201
  0
LINE
  8
3
 10
 11885.200
 20
   790.201
 11
 11580.400
 21
   485.401
  0
LINE
  8
3
 10
 11580.400
 20
   485.401
 11
 12190.000
 21
   485.401
  0
LINE
  8
3
 10
 12190.000
 20
   485.401
 11
 11885.200
 21
   790.201
  0
LINE
  8
3
 10
 12494.800
 20
   790.201
 11
 12190.000
 21
   485.401
  0
LINE
  8
3
 10
 12190.000
 20
   485.401
 11
 12799.600
 21
   485.401
  0
LINE
  8
3
 10
 12799.600
 20
   485.401
 11
 12494.800
 21
   790.201
  0
LINE
  8
3
 10
 17615.201
 20
   790.201
 11
 17310.400
 21
   485.401
  0
LINE
  8
3
 10
 17310.400
 20
   485.401
 11
 17920.000
 21
   485.401
  0
LINE
  8
3
 10
 17920.000
 20
   485.401
 11
 17615.201
 21
   790.201
  0
LINE
  8
3
 10
 18224.801
 20
   790.201
 11
 17920.000
 21
   485.401
  0
LINE
  8
3
 10
 17920.000
 20
   485.401
 11
 18529.600
 21
   485.401
  0
LINE
  8
3
 10
 18529.600
 20
   485.401
 11
 18224.801
 21
   790.201
  0
LINE
  8
3
 10
 23845.199
 20
   790.201
 11
 23540.400
 21
   485.401
  0
LINE
  8
3
 10
 23540.400
 20
   485.401
 11
 24150.000
 21
   485.401
  0
LINE
  8
3
 10
 24150.000
 20
   485.401
 11
 23845.199
 21
   790.201
  0
LINE
  8
3
 10
 24454.801
 20
   790.201
 11
 24150.000
 21
   485.401
  0
LINE
  8
3
 10
 24150.000
 20
   485.401
 11
 24759.600
 21
   485.401
  0
LINE
  8
3
 10
 24759.600
 20
   485.401
 11
 24454.801
 21
   790.201
  0
LINE
  8
3
 10
 29715.199
 20
   790.201
 11
 29410.400
 21
   485.401
  0
LINE
  8
3
 10
 29410.400
 20
   485.401
 11
 30020.000
 21
   485.401
  0
LINE
  8
3
 10
 30020.000
 20
   485.401
 11
 29715.199
 21
   790.201
  0
LINE
  8
3
 10
 30324.799
 20
   790.201
 11
 30020.000
 21
   485.401
  0
LINE
  8
3
 10
 30020.000
 20
   485.401
 11
 30629.600
 21
   485.401
  0
LINE
  8
3
 10
 30629.600
 20
   485.401
 11
 30324.799
 21
   790.201
  0
LINE
  8
3
 10
 35525.199
 20
   790.201
 11
 35220.398
 21
   485.401
  0
LINE
  8
3
 10
 35220.398
 20
   485.401
 11
 35830.000
 21
   485.401
  0
LINE
  8
3
 10
 35830.000
 20
   485.401
 11
 35525.199
 21
   790.201
  0
LINE
  8
0
 10
 -2064.961
 20
 -3914.969
 11
 38334.961
 21
 -3914.969
  0
LINE
  8
0
 10
 38334.961
 20
 -3914.969
 11
 38334.961
 21
 26384.969
  0
LINE
  8
0
 10
 38334.961
 20
 26384.969
 11
 -2064.961
 21
 26384.969
  0
LINE
  8
0
 10
 -2064.961
 20
 26384.969
 11
 -2064.961
 21
 -3914.969
  0
LINE
  8
0
 10
 -2064.961
 20
 -2915.072
 11
 38334.961
 21
 -2915.072
  0
TEXT
  8
0
 10
 14135.410
 20
 -3748.320
 40
   666.599
  1
Crane Design
 50
     0.000
  0
TEXT
  8
0
 10
 -1731.661
 20
 -3748.320
 40
   666.599
  1
C323-153
 50
     0.000
  0
TEXT
  8
0
 10
 30669.076
 20
 -3748.320
 40
   666.599
  1
23/JUL/2025
 50
     0.000
  0
ENDSEC
  0
EOF
