  0
SECTION
  2
HEADER
  9
$ACADVER
  1
AC1009
  9
$EXTMIN
 10
 0.0000000
 20
 0.0000000
  9
$EXTMAX
 10
420.0000000
 20
297.0000000
  9
$LIMMIN
 10
 0.0000000
 20
 0.0000000
  9
$LIMMAX
 10
420.0000000
 20
297.0000000
  9
$FILLMODE
 70
     1
  9
$HANDLING
 70
     0
  0
ENDSEC
  0
SECTION
  2
TABLES
  0
TABLE
  2
LTYPE
 70
5
  0
LTYPE
  2
CONTINUOUS
 70
    64
  3
Solid Line
 72
    65
 73
     0
 40
0.0
  0
LTYPE
  2
CONTIN
 70
    64
  3
Solid Line
 72
    65
 73
     0
 40
0.0
  0
LTYPE
  2
HIDDEN
 70
    64
  3
- - - 
 72
    65
 73
     2
 40
 3.1750000
 49
 1.5875000
 49
-1.5875000
  0
LTYPE
  2
DASHED
 70
    64
  3
- - - 
 72
    65
 73
     2
 40
 3.1750000
 49
 1.5875000
 49
-1.5875000
  0
LTYPE
  2
CENTER
 70
    64
  3
--- - 
 72
    65
 73
     4
 40
 9.5250000
 49
 4.7625000
 49
-1.5875000
 49
 1.5875000
 49
-1.5875000
  0
ENDTAB
  0
TABLE
  2
LAYER
 70
25
  0
LAYER
  2
0
 70
     0
 62
     7
  6
CONTINUOUS
  0
LAYER
  2
1
 70
     0
 62
     7
  6
CONTINUOUS
  0
LAYER
  2
2
 70
     0
 62
     6
  6
CONTINUOUS
  0
LAYER
  2
3
 70
     0
 62
     7
  6
CONTINUOUS
  0
LAYER
  2
4
 70
     0
 62
     7
  6
CONTINUOUS
  0
LAYER
  2
5
 70
     0
 62
     5
  6
CONTINUOUS
  0
LAYER
  2
6
 70
     0
 62
     6
  6
CONTINUOUS
  0
LAYER
  2
7
 70
     0
 62
     7
  6
CONTINUOUS
  0
LAYER
  2
8
 70
     0
 62
     8
  6
CONTINUOUS
  0
LAYER
  2
9
 70
     0
 62
     9
  6
CONTINUOUS
  0
LAYER
  2
10
 70
     0
 62
    10
  6
CONTINUOUS
  0
LAYER
  2
11
 70
     0
 62
     7
  6
CONTINUOUS
  0
LAYER
  2
12
 70
     0
 62
     6
  6
CONTINUOUS
  0
LAYER
  2
13
 70
     0
 62
     1
  6
CONTINUOUS
  0
LAYER
  2
14
 70
     0
 62
     7
  6
CONTINUOUS
  0
LAYER
  2
15
 70
     0
 62
     7
  6
CONTINUOUS
  0
LAYER
  2
16
 70
     0
 62
     7
  6
CONTINUOUS
  0
LAYER
  2
17
 70
     0
 62
     5
  6
CONTINUOUS
  0
LAYER
  2
18
 70
     0
 62
     7
  6
CONTINUOUS
  0
LAYER
  2
19
 70
     0
 62
     7
  6
CONTINUOUS
  0
LAYER
  2
20
 70
     0
 62
     7
  6
CONTINUOUS
  0
LAYER
  2
21
 70
     0
 62
     7
  6
CONTINUOUS
  0
LAYER
  2
22
 70
     0
 62
     7
  6
CONTINUOUS
  0
LAYER
  2
23
 70
     0
 62
     7
  6
CONTINUOUS
  0
LAYER
  2
24
 70
     0
 62
     7
  6
CONTINUOUS
  0
ENDTAB
  0
TABLE
  2
STYLE
 70
  0
  0
STYLE
  2
SIMPLEX
 70
  0
 40
 0.0000000
 41
 1.0000000
 42
 1.0000000
 50
 0.0000000
 71
  0
  3
SIMPLEX
  0
STYLE
  2
ROMANS
 70
  0
 40
 0.0000000
 41
 1.0000000
 42
 1.0000000
 50
 0.0000000
 71
  0
  3
ROMANS
  0
STYLE
  2
OPEN
 70
  0
 40
 0.0000000
 41
 1.0000000
 42
 1.0000000
 50
 0.0000000
 71
  0
  3
SIMPLEX
  0
STYLE
  2
ARIAL
 70
  0
 40
 0.0000000
 41
 1.0000000
 42
 1.0000000
 50
 0.0000000
 71
  0
  3
ARIAL.TTF
  0
STYLE
  2
VERDANAB
 70
  0
 40
 0.0000000
 41
 1.0000000
 42
 1.0000000
 50
 0.0000000
 71
  0
  3
VERDANAB.TTF
  0
ENDTAB
  0
ENDSEC
  0
SECTION
  2
BLOCKS
  0
BLOCK
  8
1
  2
CCOL
 70
     0
 10
 0.0000000
 20
 0.0000000
  0
LINE
  8
1
 10
 0.4000000
 20
-0.1000000
 11
 0.4000000
 21
 0.0000000
  0
LINE
  8
1
 10
 0.4000000
 20
 0.0000000
 11
 0.0000000
 21
 0.0000000
  0
LINE
  8
1
 10
 0.0000000
 20
 0.0000000
 11
 0.0000000
 21
-1.0000000
  0
LINE
  8
1
 10
 0.0000000
 20
-1.0000000
 11
 0.4000000
 21
-1.0000000
  0
LINE
  8
1
 10
 0.4000000
 20
-1.0000000
 11
 0.4000000
 21
-0.9000000
  0
ENDBLK
  8
1
  0
BLOCK
  8
1
  2
DCOL
 70
     0
 10
 0.0000000
 20
 0.0000000
  0
INSERT
  8
1
  2
CCOL
 10
 0.1000000
 20
 0.0000000
 41
 1.0000000
 42
 1.0000000
 43
 1.0000000
 50
 0.0000000
  0
INSERT
  8
1
  2
CCOL
 10
-0.1000000
 20
 0.0000000
 41
-1.0000000
 42
 1.0000000
 43
 1.0000000
 50
 0.0000000
  0
ENDBLK
  8
1
  0
BLOCK
  8
1
  2
GCOL
 70
     0
 10
 0.0000000
 20
 0.0000000
  0
LINE
  8
1
 10
 0.4000000
 20
-0.1000000
 11
 0.4000000
 21
 0.0000000
  0
LINE
  8
1
 10
 0.4000000
 20
 0.0000000
 11
 0.0000000
 21
 0.0000000
  0
LINE
  8
1
 10
 0.0000000
 20
 0.0000000
 11
 0.0000000
 21
-1.0000000
  0
LINE
  8
1
 10
 0.0000000
 20
-1.0000000
 11
 1.0000000
 21
-1.0000000
  0
LINE
  8
1
 10
 1.0000000
 20
-1.0000000
 11
 1.0000000
 21
-0.6000000
  0
LINE
  8
1
 10
 1.0000000
 20
-0.6000000
 11
 0.9000000
 21
-0.6000000
  0
ENDBLK
  8
1
  0
BLOCK
  8
1
  2
PCOL
 70
     0
 10
 0.0000000
 20
 0.0000000
  0
CIRCLE
  8
1
 10
 0.0000000
 20
 0.0000000
 40
 0.5000000
  0
ENDBLK
  8
1
  0
BLOCK
  8
1
  2
TCOL
 70
     0
 10
 0.0000000
 20
 0.0000000
  0
LINE
  8
1
 10
-0.5000000
 20
-0.5000000
 11
 0.5000000
 21
-0.5000000
  0
LINE
  8
1
 10
 0.5000000
 20
-0.5000000
 11
 0.5000000
 21
 0.5000000
  0
LINE
  8
1
 10
 0.5000000
 20
 0.5000000
 11
-0.5000000
 21
 0.5000000
  0
LINE
  8
1
 10
-0.5000000
 20
 0.5000000
 11
-0.5000000
 21
-0.5000000
  0
ENDBLK
  8
1
  0
BLOCK
  8
1
  2
TCOL2
 70
     0
 10
 0.0000000
 20
 0.0000000
  0
LINE
  8
1
 10
-0.2500000
 20
-0.5000000
 11
 0.2500000
 21
-0.5000000
  0
LINE
  8
1
 10
 0.2500000
 20
-0.5000000
 11
 0.2500000
 21
 0.5000000
  0
LINE
  8
1
 10
 0.2500000
 20
 0.5000000
 11
-0.2500000
 21
 0.5000000
  0
LINE
  8
1
 10
-0.2500000
 20
 0.5000000
 11
-0.2500000
 21
-0.5000000
  0
ENDBLK
  8
1
  0
BLOCK
  8
1
  2
UCOL
 70
     0
 10
 0.0000000
 20
 0.0000000
  0
LINE
  8
1
 10
 0.4000000
 20
 0.0000000
 11
 0.0000000
 21
 0.0000000
  0
LINE
  8
1
 10
 0.0000000
 20
 0.0000000
 11
 0.0000000
 21
-1.0000000
  0
LINE
  8
1
 10
 0.0000000
 20
-1.0000000
 11
 0.4000000
 21
-1.0000000
  0
ENDBLK
  8
1
  0
BLOCK
  8
1
  2
WCOL
 70
     0
 10
 0.0000000
 20
 0.0000000
  0
LINE
  8
1
 10
-0.4000000
 20
 0.0000000
 11
 0.4000000
 21
 0.0000000
  0
LINE
  8
1
 10
 0.0000000
 20
 0.0000000
 11
 0.0000000
 21
-1.0000000
  0
LINE
  8
1
 10
-0.4000000
 20
-1.0000000
 11
 0.4000000
 21
-1.0000000
  0
ENDBLK
  8
1
  0
BLOCK
  8
1
  2
XCOL
 70
     0
 10
 0.0000000
 20
 0.0000000
  0
LINE
  8
1
 10
-0.5625000
 20
 0.0625000
 11
 0.5625000
 21
 0.0625000
  0
LINE
  8
1
 10
 0.5625000
 20
 0.0625000
 11
 0.5625000
 21
-1.0625000
  0
LINE
  8
1
 10
 0.5625000
 20
-1.0625000
 11
-0.5625000
 21
-1.0625000
  0
LINE
  8
1
 10
-0.5625000
 20
-1.0625000
 11
-0.5625000
 21
 0.0625000
  0
ENDBLK
  8
1
  0
BLOCK
  8
1
  2
ZCOL
 70
     0
 10
 0.0000000
 20
 0.0000000
  0
LINE
  8
1
 10
 0.4000000
 20
-0.1000000
 11
 0.4000000
 21
 0.0000000
  0
LINE
  8
1
 10
 0.4000000
 20
 0.0000000
 11
 0.0000000
 21
 0.0000000
  0
LINE
  8
1
 10
 0.0000000
 20
 0.0000000
 11
 0.0000000
 21
-1.0000000
  0
LINE
  8
1
 10
 0.0000000
 20
-1.0000000
 11
-0.4000000
 21
-1.0000000
  0
LINE
  8
1
 10
-0.4000000
 20
-1.0000000
 11
-0.4000000
 21
-0.9000000
  0
ENDBLK
  8
1
  0
BLOCK
  8
1
  2
VSECTN
 70
     0
 10
 0.0000000
 20
 0.0000000
  0
LINE
  8
1
 10
-0.5000000
 20
 1.0000000
 11
 0.5000000
 21
 1.0000000
  0
LINE
  8
1
 10
-0.5000000
 20
 1.0000000
 11
 0.0000000
 21
 0.0000000
  0
LINE
  8
1
 10
 0.0000000
 20
 0.0000000
 11
 0.5000000
 21
 1.0000000
  0
ENDBLK
  8
1
999
C:\MBS\DXF\A10.DXF
  0
BLOCK
  8
0
 62
     7
  2
A10
 70
    64
 10
0.0
 20
0.0
 30
0.0
  0
TEXT
  8
0
 62
     7
 10
1.1
 20
2.2
 30
0.0
 40
1.2
  1
A10
 72
     4
 11
2.4
 21
2.8
 31
0.0
  0
LINE
  8
0
  6
HIDDEN
 62
     1
 10
13.71
 20
18.02
 30
0.0
 11
16.86
 21
18.02
 31
0.0
  0
LINE
  8
0
 62
     1
 10
16.86
 20
18.02
 30
0.0
 11
25.97
 21
18.02
 31
0.0
  0
CIRCLE
  8
0
 62
     4
 10
16.39
 20
18.87
 30
0.0
 40
0.15
  0
CIRCLE
  8
0
 62
     4
 10
14.14
 20
20.82
 30
0.0
 40
0.15
  0
LINE
  8
0
 62
     7
 10
6.97
 20
17.05
 30
0.0
 11
6.58
 21
17.05
 31
0.0
  0
SOLID
  8
0
 62
     7
 10
6.97
 20
17.14
 30
0.0
 11
6.97
 21
16.96
 31
0.0
 12
7.51
 22
17.05
 32
0.0
 13
7.51
 23
17.05
 33
0.0
  0
TEXT
  8
0
 62
     7
 10
0.83
 20
16.61
 30
0.0
 40
0.75
  1
BUILDING
  0
TEXT
  8
0
 62
     7
 10
0.83
 20
17.86
 30
0.0
 40
0.75
  1
END OF
  0
LINE
  8
0
 62
     7
 10
7.58
 20
17.78
 30
0.0
 11
7.58
 21
16.29
 31
0.0
  0
LINE
  8
0
 62
     1
 10
7.58
 20
21.62
 30
0.0
 11
31.03
 21
21.62
 31
0.0
  0
LINE
  8
1
 62
     1
 10
7.58
 20
18.32
 30
0.0
 11
31.45
 21
18.32
 31
0.0
  0
LINE
  8
0
 62
     1
 10
7.58
 20
18.02
 30
0.0
 11
13.71
 21
18.02
 31
0.0
  0
TEXT
  8
0
 62
     7
 10
13.31
 20
1.17
 30
0.0
 40
0.75
  1
RIGID FRAME
 72
     1
 11
17.06
 21
1.17
 31
0.0
  0
TEXT
  8
0
 62
     7
 10
4.81
 20
2.42
 30
0.0
 40
0.75
  1
ROOF PURLIN TO EXPANDABLE ENDWALL
 72
     1
 11
17.06
 21
2.42
 31
0.0
  0
TEXT
  8
0
 62
     7
 10
7.81
 20
22.33
 30
0.0
 40
0.7
  1
x 1.0" (TYP)
  0
CIRCLE
  8
0
 62
     4
 10
14.15
 20
18.87
 30
0.0
 40
0.15
  0
LINE
  8
0
  6
CONTINUOUS
 62
     5
 10
16.86
 20
21.22
 30
0.0
 11
16.86
 21
17.86
 31
0.0
  0
LINE
  8
0
  6
CONTINUOUS
 62
     5
 10
13.71
 20
21.22
 30
0.0
 11
16.86
 21
21.22
 31
0.0
  0
LINE
  8
0
  6
CONTINUOUS
 62
     5
 10
13.71
 20
17.86
 30
0.0
 11
13.71
 21
21.22
 31
0.0
  0
CIRCLE
  8
0
 62
     4
 10
16.35
 20
20.82
 30
0.0
 40
0.15
  0
LINE
  8
0
 10
15.24
 20
23.02
 30
0.0
 11
15.66
 21
23.02
 31
0.0
  0
LINE
  8
0
 10
24.42
 20
12.38
 30
0.0
 11
24.83
 21
12.38
 31
0.0
  0
LINE
  8
0
 62
     4
 10
13.92
 20
6.55
 30
0.0
 11
13.92
 21
5.86
 31
0.0
  0
LINE
  8
1
 62
     4
 10
13.92
 20
6.94
 30
0.0
 11
13.92
 21
6.55
 31
0.0
  0
LINE
  8
1
 62
     4
 10
14.57
 20
6.94
 30
0.0
 11
13.92
 21
6.94
 31
0.0
  0
LINE
  8
0
 62
     4
 10
15.17
 20
6.94
 30
0.0
 11
14.57
 21
6.94
 31
0.0
  0
POINT
  8
0
 10
15.28
 20
5.56
 30
0.0
  0
LINE
  8
0
 62
     4
 10
16.65
 20
6.55
 30
0.0
 11
16.65
 21
5.86
 31
0.0
  0
LINE
  8
1
 62
     4
 10
15.99
 20
6.94
 30
0.0
 11
16.65
 21
6.94
 31
0.0
  0
LINE
  8
0
 62
    10
 10
16.09
 20
5.93
 30
0.0
 11
15.5
 21
6.39
 31
0.0
  0
LINE
  8
1
 62
     4
 10
16.65
 20
6.94
 30
0.0
 11
16.65
 21
6.55
 31
0.0
  0
LINE
  8
0
 62
     4
 10
15.4
 20
6.94
 30
0.0
 11
15.99
 21
6.94
 31
0.0
  0
CIRCLE
  8
0
 62
     4
 10
16.04
 20
6.43
 30
0.0
 40
0.15
  0
LINE
  8
0
 62
     6
 10
13.48
 20
5.56
 30
0.0
 11
17.08
 21
5.56
 31
0.0
  0
LINE
  8
0
 62
     6
 10
17.08
 20
5.56
 30
0.0
 11
17.08
 21
5.86
 31
0.0
  0
LINE
  8
0
 62
     6
 10
17.08
 20
5.86
 30
0.0
 11
15.55
 21
5.86
 31
0.0
  0
LINE
  8
0
 62
     6
 10
13.48
 20
5.86
 30
0.0
 11
13.48
 21
5.56
 31
0.0
  0
LINE
  8
0
 62
     6
 10
13.48
 20
17.86
 30
0.0
 11
13.48
 21
17.56
 31
0.0
  0
LINE
  8
0
 62
     6
 10
17.08
 20
17.86
 30
0.0
 11
13.48
 21
17.86
 31
0.0
  0
LINE
  8
0
 62
     6
 10
17.08
 20
17.56
 30
0.0
 11
17.08
 21
17.86
 31
0.0
  0
LINE
  8
0
 62
     6
 10
13.48
 20
17.56
 30
0.0
 11
15.01
 21
17.56
 31
0.0
  0
LINE
  8
0
 10
15.13
 20
17.56
 30
0.0
 11
15.13
 21
17.56
 31
0.0
  0
LINE
  8
0
 62
     6
 10
15.16
 20
17.41
 30
0.0
 11
15.16
 21
6.01
 31
0.0
  0
LINE
  8
0
 62
     6
 10
15.4
 20
6.01
 30
0.0
 11
15.4
 21
17.41
 31
0.0
  0
LINE
  8
0
 62
     6
 10
15.55
 20
17.56
 30
0.0
 11
17.08
 21
17.56
 31
0.0
  0
LINE
  8
0
 62
     6
 10
15.01
 20
5.86
 30
0.0
 11
13.48
 21
5.86
 31
0.0
  0
ARC
  8
0
 62
     6
 10
15.55
 20
17.41
 30
0.0
 40
0.15
 50
90.0
 51
180.0
  0
ARC
  8
0
 62
     6
 10
15.01
 20
17.41
 30
0.0
 40
0.15
 50
0.0
 51
90.0
  0
ARC
  8
0
 62
     6
 10
15.55
 20
6.01
 30
0.0
 40
0.15
 50
180.0
 51
270.0
  0
ARC
  8
0
 62
     6
 10
15.01
 20
6.01
 30
0.0
 40
0.15
 50
270.0
 51
0.0
  0
LINE
  8
0
 62
     1
 10
30.99
 20
22.05
 30
0.0
 11
31.44
 21
17.55
 31
0.0
  0
LINE
  8
0
 62
     1
 10
31.06
 20
21.31
 30
0.0
 11
7.72
 21
21.31
 31
0.0
  0
LINE
  8
0
 62
     1
 10
7.58
 20
21.65
 30
0.0
 11
7.58
 21
18.04
 31
0.0
  0
LINE
  8
0
 62
    10
 10
16.09
 20
5.93
 30
0.0
 11
27.83
 21
18.97
 31
0.0
  0
LINE
  8
0
 62
    10
 10
15.97
 20
6.02
 30
0.0
 11
27.72
 21
19.07
 31
0.0
  0
LINE
  8
0
 62
    10
 10
15.5
 20
6.39
 30
0.0
 11
27.28
 21
19.47
 31
0.0
  0
LINE
  8
0
 62
    10
 10
27.28
 20
19.47
 30
0.0
 11
27.83
 21
18.97
 31
0.0
  0
CIRCLE
  8
0
 62
     4
 10
27.22
 20
18.92
 30
0.0
 40
0.15
  0
TEXT
  8
0
 10
7.92
 20
23.59
 30
0.0
 40
0.7
  1
BOLTS, 0.5"
  0
TEXT
  8
0
 10
21.74
 20
23.5
 30
0.0
 40
0.7
  1
ROOF
  0
TEXT
  8
0
 10
21.74
 20
22.6
 30
0.0
 40
0.7
  1
PURLIN
  0
TEXT
  8
0
 10
25.14
 20
12.12
 30
0.0
 40
0.7
  1
RAFTER
  0
TEXT
  8
0
 10
25.14
 20
11.22
 30
0.0
 40
0.7
  1
FLANGE
  0
TEXT
  8
0
 10
25.14
 20
10.32
 30
0.0
 40
0.7
  1
BRACE
  0
TEXT
  8
0
 10
0.74
 20
12.03
 30
0.0
 40
0.7
  1
RIGID
  0
TEXT
  8
0
 10
0.74
 20
11.13
 30
0.0
 40
0.7
  1
FRAME
  0
TEXT
  8
0
 10
0.74
 20
10.23
 30
0.0
 40
0.7
  1
RAFTER
  0
LINE
  8
0
 10
20.22
 20
23.68
 30
0.0
 11
20.98
 21
23.68
 31
0.0
  0
LINE
  8
0
 10
5.74
 20
10.55
 30
0.0
 11
5.02
 21
10.55
 31
0.0
  0
CIRCLE
  8
0
 10
2.4
 20
2.8
 30
0.0
 40
1.8
  0
CIRCLE
  8
0
 10
2.4
 20
2.8
 30
0.0
 40
1.83
  0
LINE
  8
0
 62
     1
 10
26.98
 20
18.02
 30
0.0
 11
31.39
 21
18.02
 31
0.0
  0
LINE
  8
0
  6
HIDDEN
 62
     1
 10
25.97
 20
18.02
 30
0.0
 11
26.98
 21
18.02
 31
0.0
  0
SOLID
  8
0
 10
16.22
 20
21.53
 30
0.0
 11
16.01
 21
21.47
 31
0.0
 12
16.3
 22
20.87
 32
0.0
 13
16.3
 23
20.87
 33
0.0
  0
LINE
  8
0
 10
16.11
 20
21.5
 30
0.0
 11
15.66
 21
23.02
 31
0.0
  0
SOLID
  8
0
 10
18.39
 20
21.96
 30
0.0
 11
18.25
 21
22.13
 31
0.0
 12
17.83
 22
21.62
 32
0.0
 13
17.83
 23
21.62
 33
0.0
  0
LINE
  8
0
 10
18.32
 20
22.04
 30
0.0
 11
20.22
 21
23.68
 31
0.0
  0
SOLID
  8
0
 10
23.16
 20
12.8
 30
0.0
 11
23.24
 21
13.0
 31
0.0
 12
22.6
 22
13.16
 32
0.0
 13
22.6
 23
13.16
 33
0.0
  0
LINE
  8
0
 10
23.2
 20
12.9
 30
0.0
 11
24.42
 21
12.38
 31
0.0
  0
SOLID
  8
0
 10
14.5
 20
12.35
 30
0.0
 11
14.53
 21
12.14
 31
0.0
 12
15.16
 22
12.35
 32
0.0
 13
15.16
 23
12.35
 33
0.0
  0
LINE
  8
0
 10
14.51
 20
12.25
 30
0.0
 11
5.74
 21
10.55
 31
0.0
  0
ENDBLK
  8
0
999
C:\MBS\DXF\B20.DXF
  0
BLOCK
  8
0
 62
     7
  2
B20
 70
     0
 10
0.0
 20
0.0
 30
0.0
  3
B20
  1

  0
LINE
  5
104
  8
0
 62
     3
 10
2.5728407087699159
 20
23.412232739159741
 30
0.0
 11
18.432840708769909
 21
26.11223273915974
 31
0.0
  0
TEXT
  5
105
  8
0
 62
     7
 10
9.3828407087699155
 20
2.772232739159739
 30
0.0
 40
1.0
  1
TO ENDWALL COLUMN
 72
     1
 11
17.882840708769908
 21
2.772232739159739
 31
0.0
  0
TEXT
  5
106
  8
0
 62
     7
 10
8.7161740421032476
 20
4.4422327391597403
 30
0.0
 40
1.0
  1
RIGID FRAME RAFTER 
 72
     1
 11
17.882840708769908
 21
4.4422327391597403
 31
0.0
  0
TEXT
  5
107
  8
0
 62
     7
 10
15.932840708769911
 20
7.8022327391597388
 30
0.0
 40
0.7
  1
COLUMN
  0
TEXT
  5
108
  8
0
 62
     7
 10
15.932840708769911
 20
8.9722327391597396
 30
0.0
 40
0.7
  1
ENDWALL
  0
LINE
  5
109
  8
0
 62
     3
 10
4.5228407087699161
 20
13.262232739159741
 30
0.0
 11
19.352840708769911
 21
15.782232739159729
 31
0.0
  0
LINE
  5
10A
  8
0
 62
     3
 10
4.4528407087699149
 20
13.562232739159739
 30
0.0
 11
19.32284070876991
 21
16.102232739159732
 31
0.0
  0
LINE
  5
10B
  8
0
 62
     3
 10
2.7228407087699158
 20
23.142232739159741
 30
0.0
 11
18.452840708769909
 21
25.822232739159741
 31
0.0
  0
LINE
  5
10C
  8
0
 62
     6
 10
12.15246221474448
 20
14.117898436312061
 30
0.0
 11
12.16042854209058
 21
8.891987697269073
 31
0.0
  0
LINE
  5
10D
  8
0
 62
     6
 10
9.1628407087699166
 20
13.609884532397301
 30
0.0
 11
9.1628407087699166
 21
8.9886840789890954
 31
0.0
  0
LINE
  5
10E
  8
0
  6
HIDDEN
 62
     6
 10
10.503851461757201
 20
13.86389148435468
 30
0.0
 11
10.503851461757201
 21
8.9454256676024091
 31
0.0
  0
LINE
  5
10F
  8
0
  6
HIDDEN
 62
     6
 10
10.8114514617572
 20
13.86389148435468
 30
0.0
 11
10.8114514617572
 21
8.9355030869572474
 31
0.0
  0
CIRCLE
  5
110
  8
0
 10
3.7728407087699161
 20
4.2822327391597401
 30
0.0
 40
1.99
  0
CIRCLE
  5
111
  8
0
 10
3.7728407087699161
 20
4.2822327391597401
 30
0.0
 40
1.919999999999999
  0
TEXT
  5
112
  8
0
 62
     7
 10
2.2728407087699161
 20
3.68223273915974
 30
0.0
 40
1.1999999999999991
  1
B20
 72
     4
 11
3.7728407087699161
 21
4.2822327391597401
 31
0.0
  0
LINE
  5
113
  8
0
 62
     6
 10
8.8100286350772414
 20
9.000065113624343
 30
0.0
 11
12.53002863507724
 21
8.880065113624342
 31
0.0
  0
LINE
  5
114
  8
0
 62
     7
 10
12.752840708769909
 20
9.2922327391597381
 30
0.0
 11
15.332840708769909
 21
9.2922327391597381
 31
0.0
  0
SOLID
  5
115
  8
0
 62
     7
 10
12.752840708769909
 20
9.1922327391597403
 30
0.0
 11
12.752840708769909
 21
9.3922327391597413
 31
0.0
 12
12.15284070876991
 22
9.2922327391597381
 32
0.0
 13
12.15284070876991
 23
9.2922327391597381
 33
0.0
  0
LINE
  5
116
  8
0
 62
     3
 10
2.3428407087699159
 20
24.502232739159741
 30
0.0
 11
3.3974832362698302
 21
19.09438488538359
 31
0.0
  0
LINE
  5
117
  8
0
 62
     3
 10
3.6306009713893359
 20
17.899036498919731
 30
0.0
 11
4.6928407087699151
 21
12.45223273915974
 31
0.0
  0
LINE
  5
118
  8
0
 62
     3
 10
3.8379527938839031
 20
18.486208325431281
 30
0.0
 11
3.6306009713893359
 21
17.899036498919731
 31
0.0
  0
LINE
  5
119
  8
0
 62
     3
 10
3.1889700334211462
 20
18.399725133079031
 30
0.0
 11
3.8379527938839031
 21
18.486208325431281
 31
0.0
  0
LINE
  5
11A
  8
0
 62
     3
 10
3.3974832362698302
 20
19.09438488538359
 30
0.0
 11
3.1889700334211462
 21
18.399725133079031
 31
0.0
  0
LINE
  5
11B
  8
0
 62
     6
 10
9.1113101966449257
 20
13.913137506529679
 30
0.0
 11
12.100931702619491
 21
14.42115141044445
 31
0.0
  0
LINE
  5
11C
  8
0
 62
     6
 10
9.1628407087699166
 20
13.609884532397301
 30
0.0
 11
12.15246221474448
 21
14.117898436312061
 31
0.0
  0
LINE
  5
11D
  8
0
 62
     4
 10
11.49493922446854
 20
13.64986087144073
 30
0.0
 11
11.262441322274389
 21
14.97617340669783
 31
0.0
  0
LINE
  5
11E
  8
0
 62
     6
 10
9.1628407087699166
 20
13.609884532397301
 30
0.0
 11
9.1113101966449257
 21
13.913137506529679
 31
0.0
  0
LINE
  5
11F
  8
0
 62
     4
 10
9.8775386547856971
 20
13.3750227436187
 30
0.0
 11
9.6588872364657252
 21
14.703688154085709
 31
0.0
  0
LINE
  5
120
  8
0
 62
     6
 10
12.15246221474448
 20
14.117898436312061
 30
0.0
 11
12.100931702619491
 21
14.421151410444439
 31
0.0
  0
LINE
  5
121
  8
0
 62
     7
 10
27.819956597195318
 20
13.38662027771452
 30
0.0
 11
22.265187268047939
 21
8.7136088274637764
 31
0.0
  0
LINE
  5
122
  8
0
 62
     7
 10
22.265187268047939
 20
8.7136088274637764
 30
0.0
 11
21.66518726804793
 21
8.7136088274637764
 31
0.0
  0
LINE
  5
123
  8
0
 62
     7
 10
30.30284070876991
 20
21.462232739159742
 30
0.0
 11
26.562840708769912
 21
22.402232739159739
 31
0.0
  0
LINE
  5
124
  8
0
 62
     3
 10
18.94765121060728
 20
20.33076593220089
 30
0.0
 11
19.432840708769909
 21
14.89223273915974
 31
0.0
  0
LINE
  5
125
  8
0
 62
     7
 10
21.952840708769909
 20
24.68223273915974
 30
0.0
 11
22.55284070876991
 21
24.68223273915974
 31
0.0
  0
TEXT
  5
126
  8
0
 10
21.546174042103239
 20
22.012232739159739
 30
0.0
 40
0.7
  1
RAFTER
 72
     2
 11
25.512840708769911
 21
22.012232739159739
 31
0.0
  0
TEXT
  5
127
  8
0
 10
22.246174042103249
 20
23.18223273915974
 30
0.0
 40
0.7
  1
FRAME
 72
     2
 11
25.512840708769911
 21
23.18223273915974
 31
0.0
  0
LINE
  5
128
  8
0
 62
     3
 10
18.332840708769911
 20
27.222232739159729
 30
0.0
 11
18.81348289478295
 21
21.834670781395442
 31
0.0
  0
LINE
  5
129
  8
0
 62
     3
 10
18.81348289478295
 20
21.834670781395442
 30
0.0
 11
18.54822869770646
 21
20.950978946434699
 31
0.0
  0
LINE
  5
12A
  8
0
 62
     3
 10
19.197211458169221
 20
21.03746213878695
 30
0.0
 11
18.94765121060728
 21
20.33076593220088
 31
0.0
  0
LINE
  5
12B
  8
0
 62
     3
 10
18.54822869770646
 20
20.950978946434699
 30
0.0
 11
19.197211458169221
 21
21.03746213878695
 31
0.0
  0
LINE
  5
12C
  8
0
 62
     7
 10
19.012840708769911
 20
25.732232739159741
 30
0.0
 11
21.952840708769909
 21
24.68223273915974
 31
0.0
  0
SOLID
  5
12D
  8
0
 62
     7
 10
18.972840708769908
 20
25.642232739159741
 30
0.0
 11
19.042840708769909
 21
25.832232739159739
 31
0.0
 12
18.442840708769911
 22
25.93223273915974
 32
0.0
 13
18.442840708769911
 23
25.93223273915974
 33
0.0
  0
LINE
  5
12E
  8
0
 62
     7
 10
26.562840708769912
 20
22.402232739159739
 30
0.0
 11
26.042840708769909
 21
22.402232739159739
 31
0.0
  0
TEXT
  5
12F
  8
0
 10
22.71284070876991
 20
24.342232739159741
 30
0.0
 40
0.7
  1
RIGID
 72
     2
 11
25.512840708769911
 21
24.342232739159741
 31
0.0
  0
LINE
  5
130
  8
0
 62
     3
 10
31.16284070876991
 20
25.79223273915974
 30
0.0
 11
31.16284070876991
 21
16.502232739159741
 31
0.0
  0
LINE
  5
131
  8
0
 62
     3
 10
30.942840708769911
 20
25.79223273915974
 30
0.0
 11
30.942840708769911
 21
16.502232739159741
 31
0.0
  0
LINE
  5
132
  8
0
 62
     3
 10
33.142840708769917
 20
16.502232739159741
 30
0.0
 11
28.992840708769911
 21
16.502232739159741
 31
0.0
  0
LINE
  5
133
  8
0
 62
     6
 10
27.762840708769911
 20
12.08133325932778
 30
0.0
 11
34.192840708769907
 21
11.54133325932778
 31
0.0
  0
LINE
  5
134
  8
0
 62
     6
 10
28.37284070876991
 20
16.055947300361179
 30
0.0
 11
33.792840708769909
 21
16.055947300361179
 31
0.0
  0
LINE
  5
135
  8
0
 62
     3
 10
28.992840708769911
 20
16.152232739159729
 30
0.0
 11
33.142840708769917
 21
16.152232739159729
 31
0.0
  0
LINE
  5
136
  8
0
 62
     6
 10
28.376143896089321
 20
15.72211855222608
 30
0.0
 11
33.782745938300799
 21
15.72211855222608
 31
0.0
  0
LINE
  5
137
  8
0
 62
     6
 10
28.37284070876991
 20
16.055947300361179
 30
0.0
 11
28.37284070876991
 21
12.030104643464639
 31
0.0
  0
LINE
  5
138
  8
0
 62
     6
 10
28.672359699033699
 20
15.72211855222608
 30
0.0
 11
28.672359699033692
 21
11.978876027601499
 31
0.0
  0
SOLID
  5
139
  8
0
 62
     7
 10
27.755580825218491
 20
13.463143215337089
 30
0.0
 11
27.88433236917216
 21
13.310097340091961
 31
0.0
 12
28.27909422293073
 22
13.772874909575499
 32
0.0
 13
28.27909422293073
 23
13.772874909575499
 33
0.0
  0
LINE
  5
13A
  8
0
 62
     4
 10
29.923183862139108
 20
15.416055357962129
 30
0.0
 11
29.923183862139108
 21
16.71330303693977
 31
0.0
  0
LINE
  5
13B
  8
0
 62
     3
 10
28.992840708769911
 20
16.502232739159741
 30
0.0
 11
28.992840708769911
 21
16.152232739159729
 31
0.0
  0
LINE
  5
13C
  8
0
 62
     4
 10
32.312497555400718
 20
15.416055357962129
 30
0.0
 11
32.312497555400718
 21
16.71330303693977
 31
0.0
  0
LINE
  5
13D
  8
0
 62
     6
 10
33.792840708769909
 20
16.055947300361179
 30
0.0
 11
33.792840708769909
 21
11.574925794320009
 31
0.0
  0
LINE
  5
13E
  8
0
 62
     6
 10
33.474832188349929
 20
15.72211855222608
 30
0.0
 11
33.474832188349929
 21
11.61881764603487
 31
0.0
  0
LINE
  5
13F
  8
0
 62
     3
 10
33.142840708769917
 20
16.152232739159729
 30
0.0
 11
33.142840708769917
 21
16.502232739159741
 31
0.0
  0
LINE
  5
140
  8
0
 62
     3
 10
28.992840708769911
 20
25.79223273915974
 30
0.0
 11
33.142840708769917
 21
25.79223273915974
 31
0.0
  0
LINE
  5
141
  8
0
 62
     3
 10
33.142840708769917
 20
26.142232739159741
 30
0.0
 11
28.992840708769911
 21
26.142232739159741
 31
0.0
  0
SOLID
  5
142
  8
0
 62
     7
 10
30.332840708769911
 20
21.562232739159739
 30
0.0
 11
30.282840708769911
 21
21.372232739159742
 31
0.0
 12
30.882840708769908
 22
21.322232739159741
 32
0.0
 13
30.882840708769908
 23
21.322232739159741
 33
0.0
  0
LINE
  5
143
  8
0
 62
     3
 10
28.992840708769911
 20
26.142232739159741
 30
0.0
 11
28.992840708769911
 21
25.79223273915974
 31
0.0
  0
LINE
  5
144
  8
0
 62
     3
 10
33.142840708769917
 20
25.79223273915974
 30
0.0
 11
33.142840708769917
 21
26.142232739159741
 31
0.0
  0
ENDBLK
  5
103
999
C:\MBS\DXF\C12.DXF
  0
BLOCK
  8
0
  2
C12
 70
     0
 10
0.0
 20
0.0
 30
0.0
  3
C12
  1

  0
LINE
  5
A4
  8
0
  6
HIDDEN
 62
     3
 10
10.777177123001881
 20
11.863515798363901
 30
0.0
 11
23.682822876998099
 21
11.863515798363901
 31
0.0
  0
LINE
  5
A5
  8
0
 62
     1
 10
23.682822876998099
 20
12.232448338075271
 30
0.0
 11
8.7130398559489386
 21
12.232448338075271
 31
0.0
  0
LINE
  5
A6
  8
0
 62
     1
 10
23.682822876998099
 20
11.732448338075271
 30
0.0
 11
8.7518556454226228
 21
11.732448338075271
 31
0.0
  0
LINE
  5
A7
  8
0
  6
HIDDEN
 62
     1
 10
23.682822876998099
 20
17.717861682490408
 30
0.0
 11
10.777177123001881
 21
17.717861682490408
 31
0.0
  0
LINE
  5
A8
  8
0
  6
HIDDEN
 62
     1
 10
23.682822876998099
 20
17.217861682490408
 30
0.0
 11
10.777177123001881
 21
17.217861682490408
 31
0.0
  0
LINE
  5
A9
  8
0
  6
HIDDEN
 62
     3
 10
26.499999999999989
 20
17.353515798363901
 30
0.0
 11
10.777177123001881
 21
17.353515798363901
 31
0.0
  0
LINE
  5
AA
  8
0
 62
     3
 10
10.777177123001881
 20
12.363515798363901
 30
0.0
 11
26.999999999999989
 21
12.363515798363901
 31
0.0
  0
TEXT
  5
AB
  8
0
 10
5.8498421657049979
 20
5.8351084265389526
 30
0.0
 40
0.7
  1
NOTE: FLANGE BRACES MAY BE PRESENT
  0
LINE
  5
AC
  8
0
  6
HIDDEN
 62
     3
 10
15.41743406329218
 20
17.863515798363899
 30
0.0
 11
19.009135883738939
 21
17.863515798363899
 31
0.0
  0
LINE
  5
AD
  8
0
 62
     5
 10
19.009135883738939
 20
12.761580663061521
 30
0.0
 11
15.41743406329218
 21
12.761580663061521
 31
0.0
  0
LINE
  5
AE
  8
0
 62
     5
 10
15.41743406329218
 20
17.970787015914091
 30
0.0
 11
19.009135883738939
 21
17.970787015914091
 31
0.0
  0
LINE
  5
AF
  8
0
 62
     6
 10
19.261549122549241
 20
25.793515798363899
 30
0.0
 11
17.53154912254924
 21
25.793515798363899
 31
0.0
  0
LINE
  5
B0
  8
0
 62
     6
 10
19.261549122549241
 20
18.293515798363899
 30
0.0
 11
17.53154912254924
 21
18.293515798363899
 31
0.0
  0
LINE
  5
B1
  8
0
 62
     6
 10
17.261549122549241
 20
18.043515798363899
 30
0.0
 11
19.261549122549241
 21
18.043515798363899
 31
0.0
  0
TEXT
  5
B2
  8
0
 10
5.063142250346913
 20
1.9007625610820249
 30
0.0
 40
1.0
  1
ENDWALL COLUMN TO WALL GIRT
  0
TEXT
  5
B3
  8
0
 10
15.24653526149531
 20
9.9435157983639062
 30
0.0
 40
0.7
  1
ENDWALL GIRT
  0
LINE
  5
B4
  8
0
 62
     6
 10
17.261549122549241
 20
26.043515798363899
 30
0.0
 11
19.261549122549241
 21
26.043515798363899
 31
0.0
  0
SOLID
  5
B5
  8
0
 10
18.021549122549239
 20
22.733515798363911
 30
0.0
 11
17.921549122549241
 21
22.933515798363899
 31
0.0
 12
17.381549122549242
 22
22.543515798363899
 32
0.0
 13
17.381549122549242
 23
22.543515798363899
 33
0.0
  0
LINE
  5
B6
  8
0
 10
17.971549122549241
 20
22.833515798363901
 30
0.0
 11
20.491549122549252
 21
24.063515798363909
 31
0.0
  0
LINE
  5
B7
  8
0
 62
     1
 10
8.2122333031107395
 20
18.683515798363899
 30
0.0
 11
8.8022333031107411
 21
11.0835157983639
 31
0.0
  0
TEXT
  5
B8
  8
0
 10
0.5471428571428579
 20
1.909999999999999
 30
0.0
 40
1.1999999999999991
  1
C12
 72
     4
 11
2.29
 21
2.5099999999999989
 31
0.0
  0
CIRCLE
  5
B9
  8
0
 10
2.29
 20
2.5099999999999989
 30
0.0
 40
1.929999999999999
  0
CIRCLE
  5
BA
  8
0
 10
2.29
 20
2.5099999999999989
 30
0.0
 40
2.0
  0
LINE
  5
BB
  8
0
 62
     3
 10
15.41743406329218
 20
17.863515798363899
 30
0.0
 11
10.777177123001881
 21
17.863515798363899
 31
0.0
  0
LINE
  5
BC
  8
0
 62
     3
 10
10.777177123001881
 20
17.863515798363899
 30
0.0
 11
10.777177123001881
 21
12.232448338075271
 31
0.0
  0
LINE
  5
BD
  8
0
  6
HIDDEN
 62
     3
 10
10.777177123001881
 20
12.232448338075271
 30
0.0
 11
10.777177123001881
 21
11.863515798363901
 31
0.0
  0
LINE
  5
BE
  8
0
  6
HIDDEN
 62
     1
 10
10.777177123001881
 20
17.217861682490408
 30
0.0
 11
8.3260143463167076
 21
17.217861682490408
 31
0.0
  0
LINE
  5
BF
  8
0
 62
     1
 10
10.777177123001881
 20
17.717861682490408
 30
0.0
 11
8.2871985568430269
 21
17.717861682490408
 31
0.0
  0
CIRCLE
  5
C0
  8
0
 62
     4
 10
11.869815906400101
 20
13.259844348265609
 30
0.0
 40
0.2185277321555077
  0
CIRCLE
  5
C1
  8
0
 62
     4
 10
11.869815906400101
 20
16.40718724846219
 30
0.0
 40
0.2185277321555077
  0
LINE
  5
C2
  8
0
 62
     5
 10
15.41743406329218
 20
12.761580663061521
 30
0.0
 11
15.41743406329218
 21
17.970787015914091
 31
0.0
  0
CIRCLE
  5
C3
  8
0
 62
     4
 10
17.231424881699638
 20
13.34239809613219
 30
0.0
 40
0.2539587145770454
  0
CIRCLE
  5
C4
  8
0
 62
     4
 10
17.231424881699638
 20
16.736549970638919
 30
0.0
 40
0.2539587145770454
  0
TEXT
  5
C5
  8
0
 10
7.9515491225492472
 20
22.993515798363909
 30
0.0
 40
0.7
  1
BOLT, 0.5"
  0
TEXT
  5
C6
  8
0
 10
7.9515491225492472
 20
21.833515798363901
 30
0.0
 40
0.7
  1
BY 1.0"
  0
LINE
  5
C7
  8
0
 62
     6
 10
17.381549122549242
 20
25.6435157983639
 30
0.0
 11
17.381549122549242
 21
22.043515798363899
 31
0.0
  0
LINE
  5
C8
  8
0
 62
     6
 10
17.131549122549242
 20
25.6435157983639
 30
0.0
 11
17.131549122549242
 21
22.043515798363899
 31
0.0
  0
LINE
  5
C9
  8
0
 62
     6
 10
17.131549122549242
 20
18.443515798363901
 30
0.0
 11
17.131549122549242
 21
22.043515798363899
 31
0.0
  0
LINE
  5
CA
  8
0
 62
     6
 10
17.381549122549242
 20
18.443515798363901
 30
0.0
 11
17.381549122549242
 21
22.043515798363899
 31
0.0
  0
LINE
  5
CB
  8
0
 62
     6
 10
17.261549122549241
 20
18.043515798363899
 30
0.0
 11
15.261549122549241
 21
18.043515798363899
 31
0.0
  0
LINE
  5
CC
  8
0
 62
     6
 10
15.261549122549241
 20
18.293515798363899
 30
0.0
 11
16.981549122549239
 21
18.293515798363899
 31
0.0
  0
LINE
  5
CD
  8
0
 62
     6
 10
15.261549122549241
 20
18.043515798363899
 30
0.0
 11
15.261549122549241
 21
18.293515798363899
 31
0.0
  0
ARC
  5
CE
  8
0
 62
     6
 10
16.981549122549239
 20
18.443515798363901
 30
0.0
 40
0.15
 50
270.0
 51
0.0
  0
ARC
  5
CF
  8
0
 62
     6
 10
17.53154912254924
 20
18.443515798363901
 30
0.0
 40
0.15
 50
180.0
 51
270.0
  0
LINE
  5
D0
  8
0
 62
     6
 10
15.261549122549241
 20
25.793515798363899
 30
0.0
 11
16.981549122549239
 21
25.793515798363899
 31
0.0
  0
LINE
  5
D1
  8
0
 62
     6
 10
17.261549122549241
 20
26.043515798363899
 30
0.0
 11
15.261549122549241
 21
26.043515798363899
 31
0.0
  0
LINE
  5
D2
  8
0
 62
     6
 10
15.261549122549241
 20
26.043515798363899
 30
0.0
 11
15.261549122549241
 21
25.793515798363899
 31
0.0
  0
ARC
  5
D3
  8
0
 62
     6
 10
16.981549122549239
 20
25.6435157983639
 30
0.0
 40
0.15
 50
0.0
 51
90.0
  0
ARC
  5
D4
  8
0
 62
     6
 10
17.53154912254924
 20
25.6435157983639
 30
0.0
 40
0.15
 50
90.0
 51
180.0
  0
LINE
  5
D5
  8
0
 62
     3
 10
26.379999999999988
 20
18.583515798363901
 30
0.0
 11
27.140000000000001
 21
11.0735157983639
 31
0.0
  0
LINE
  5
D6
  8
0
 10
24.030000000000001
 20
10.363515798363901
 30
0.0
 11
23.100000000000001
 21
10.363515798363901
 31
0.0
  0
LINE
  5
D7
  8
0
 62
     3
 10
19.009135883738939
 20
17.863515798363899
 30
0.0
 11
26.449999999999989
 21
17.863515798363899
 31
0.0
  0
LINE
  5
D8
  8
0
 62
     5
 10
19.009135883738939
 20
17.970787015914091
 30
0.0
 11
19.009135883738939
 21
12.761580663061521
 31
0.0
  0
CIRCLE
  5
D9
  8
0
 62
     4
 10
22.59018409359987
 20
13.259844348265609
 30
0.0
 40
0.2185277321555077
  0
CIRCLE
  5
DA
  8
0
 62
     4
 10
22.59018409359987
 20
16.40718724846219
 30
0.0
 40
0.2185277321555077
  0
LINE
  5
DB
  8
0
  6
HIDDEN
 62
     1
 10
23.682822876998099
 20
17.717861682490408
 30
0.0
 11
23.682822876998099
 21
11.732448338075271
 31
0.0
  0
LINE
  5
DC
  8
0
 62
     3
 10
23.682822876998099
 20
11.863515798363901
 30
0.0
 11
27.059999999999992
 21
11.863515798363901
 31
0.0
  0
SOLID
  5
DD
  8
0
 10
24.949999999999999
 20
11.293515798363901
 30
0.0
 11
24.789999999999999
 21
11.433515798363899
 31
0.0
 12
25.289999999999988
 22
11.863515798363901
 32
0.0
 13
25.289999999999988
 23
11.863515798363901
 33
0.0
  0
LINE
  5
DE
  8
0
 10
24.870000000000001
 20
11.363515798363901
 30
0.0
 11
24.030000000000001
 21
10.363515798363901
 31
0.0
  0
TEXT
  5
DF
  8
0
 10
22.511549122549251
 20
22.59351579836391
 30
0.0
 40
0.7
  1
COLUMN
  0
TEXT
  5
E0
  8
0
 10
22.511549122549251
 20
23.7535157983639
 30
0.0
 40
0.7
  1
ENDWALL
  0
LINE
  5
E1
  8
0
 62
     6
 10
19.261549122549241
 20
18.043515798363899
 30
0.0
 11
19.261549122549241
 21
18.293515798363899
 31
0.0
  0
LINE
  5
E2
  8
0
 10
20.491549122549252
 20
24.063515798363909
 30
0.0
 11
21.671549122549241
 21
24.063515798363909
 31
0.0
  0
LINE
  5
E3
  8
0
 62
     6
 10
19.261549122549241
 20
26.043515798363899
 30
0.0
 11
19.261549122549241
 21
25.793515798363899
 31
0.0
  0
ENDBLK
  5
A3
999
C:\MBS\DXF\D27.DXF
  0
BLOCK
  8
0
 62
     5
  2
D27
 70
     0
 10
0.0
 20
0.0
 30
0.0
  3
D27
  1

  0
LINE
  5
FB
  8
0
 62
     3
 10
21.18836149957146
 20
12.45839372306831
 30
0.0
 11
20.590990473898529
 21
9.2109034475288443
 31
0.0
  0
LINE
  5
FC
  8
0
 62
     3
 10
20.959210078631209
 20
12.773227997281049
 30
0.0
 11
21.188361499571471
 21
12.4583937230683
 31
0.0
  0
LINE
  5
FD
  8
0
 62
     3
 10
21.626547829687929
 20
13.051065722404941
 30
0.0
 11
20.959210078631209
 21
12.773227997281049
 31
0.0
  0
LINE
  5
FE
  8
0
 62
     3
 10
21.405652616786071
 20
13.639654212427679
 30
0.0
 11
21.626547829687929
 21
13.051065722404941
 31
0.0
  0
SOLID
  5
FF
  8
0
 62
     7
 10
12.053246184532989
 20
10.93887446589703
 30
0.0
 11
12.198493790573719
 21
10.85640548421642
 31
0.0
 12
12.372374527952299
 22
11.33208446122579
 32
0.0
 13
12.372374527952299
 23
11.33208446122579
 33
0.0
  0
LINE
  5
100
  8
0
 62
     4
 10
14.34144445769247
 20
19.49690046612907
 30
0.0
 11
14.24144445769247
 21
19.49690046612907
 31
0.0
  0
LINE
  5
101
  8
0
 62
     4
 10
14.34144445769247
 20
18.16327945031906
 30
0.0
 11
14.24144445769247
 21
18.16327945031906
 31
0.0
  0
LINE
  5
102
  8
0
 62
     4
 10
11.894539479484839
 20
18.16327945031906
 30
0.0
 11
11.994539479484841
 21
18.16327945031906
 31
0.0
  0
LINE
  5
103
  8
0
 62
     4
 10
11.894539479484839
 20
19.49690046612907
 30
0.0
 11
11.994539479484841
 21
19.49690046612907
 31
0.0
  0
LINE
  5
104
  8
0
 62
     4
 10
14.241444457692459
 20
19.49690046612907
 30
0.0
 11
14.241444457692459
 21
18.16327945031906
 31
0.0
  0
LINE
  5
105
  8
0
 62
     4
 10
11.994539479484841
 20
19.49690046612907
 30
0.0
 11
11.994539479484841
 21
18.16327945031906
 31
0.0
  0
LINE
  5
106
  8
0
 62
     4
 10
11.894539479484839
 20
19.49690046612907
 30
0.0
 11
11.894539479484839
 21
18.16327945031906
 31
0.0
  0
CIRCLE
  5
107
  8
0
 62
     4
 10
14.32803166224252
 20
12.198
 30
0.0
 40
0.25
  0
CIRCLE
  5
108
  8
0
 62
     4
 10
14.32803166224252
 20
14.875999999999999
 30
0.0
 40
0.25
  0
LINE
  5
109
  8
0
 62
     4
 10
14.341444457692459
 20
19.49690046612907
 30
0.0
 11
14.341444457692459
 21
18.16327945031906
 31
0.0
  0
LINE
  5
10A
  8
0
  6
HIDDEN
 62
     5
 10
15.29149196858865
 20
18.385549666403069
 30
0.0
 11
10.94449196858865
 21
18.385549666403069
 31
0.0
  0
CIRCLE
  5
10B
  8
0
 10
3.0
 20
3.0
 30
0.0
 40
2.4790000000000001
  0
CIRCLE
  5
10C
  8
0
 10
3.0
 20
3.0
 30
0.0
 40
2.391999999999999
  0
LINE
  5
10D
  8
0
 62
     3
 10
5.611990473898536
 20
10.777903447528841
 30
0.0
 11
20.878990473898529
 21
10.777903447528841
 31
0.0
  0
LINE
  5
10E
  8
0
 62
     3
 10
5.611990473898536
 20
10.277903447528841
 30
0.0
 11
20.78699047389853
 21
10.277903447528841
 31
0.0
  0
LINE
  5
10F
  8
0
 62
     3
 10
5.611990473898536
 20
16.277903447528839
 30
0.0
 11
5.611990473898536
 21
10.277903447528841
 31
0.0
  0
LINE
  5
110
  8
1
 62
     3
 10
5.614990473898537
 20
15.79790344752884
 30
0.0
 11
21.801990473898531
 21
15.79790344752884
 31
0.0
  0
TEXT
  5
111
  8
0
 10
6.3300000000000001
 20
2.4590000000000001
 30
0.0
 40
1.0
  1
CORNER COLUMN TO ENDWALL GIRT
  0
POINT
  5
112
  8
DEFPOINTS
  6
BYBLOCK
 62
     0
 10
8.261000000000001
 20
12.069000000000001
 30
0.0
  0
ARC
  5
113
  8
0
 62
     6
 10
9.6910000000000007
 20
18.896999999999998
 30
0.0
 40
0.15
 50
90.0
 51
180.0
  0
ARC
  5
114
  8
0
 62
     6
 10
9.6910000000000007
 20
19.452000000000002
 30
0.0
 40
0.15
 50
180.0
 51
270.0
  0
ARC
  5
115
  8
0
 62
     6
 10
16.628
 20
18.896999999999998
 30
0.0
 40
0.15
 50
0.0
 51
90.0
  0
ARC
  5
116
  8
0
 62
     6
 10
16.628
 20
19.452000000000002
 30
0.0
 40
0.15
 50
270.0
 51
0.0
  0
LINE
  5
117
  8
0
 62
     6
 10
16.777999999999992
 20
17.533999999999999
 30
0.0
 11
17.158000000000001
 21
17.533999999999999
 31
0.0
  0
LINE
  5
118
  8
0
 62
     6
 10
16.777999999999992
 20
18.896999999999998
 30
0.0
 11
16.777999999999992
 21
17.533999999999999
 31
0.0
  0
LINE
  5
119
  8
0
 62
     6
 10
9.6910000000000007
 20
19.047000000000001
 30
0.0
 11
16.628
 21
19.047000000000001
 31
0.0
  0
LINE
  5
11A
  8
0
 62
     6
 10
9.5410000000000004
 20
17.533999999999999
 30
0.0
 11
9.5410000000000004
 21
18.896999999999998
 31
0.0
  0
LINE
  5
11B
  8
0
 62
     6
 10
9.1989999999999998
 20
17.533999999999999
 30
0.0
 11
9.5410000000000004
 21
17.533999999999999
 31
0.0
  0
LINE
  5
11C
  8
0
 62
     6
 10
9.1989999999999998
 20
20.95699999999999
 30
0.0
 11
9.1989999999999998
 21
17.533999999999999
 31
0.0
  0
LINE
  5
11D
  8
0
 62
     6
 10
9.5410000000000004
 20
20.95699999999999
 30
0.0
 11
9.1989999999999998
 21
20.95699999999999
 31
0.0
  0
LINE
  5
11E
  8
0
 62
     6
 10
9.5410000000000004
 20
19.452000000000002
 30
0.0
 11
9.5410000000000004
 21
20.95699999999999
 31
0.0
  0
LINE
  5
11F
  8
0
 62
     6
 10
9.8450000000000006
 20
19.302
 30
0.0
 11
9.6910000000000007
 21
19.302
 31
0.0
  0
LINE
  5
120
  8
0
 62
     6
 10
16.628
 20
19.302
 30
0.0
 11
9.8450000000000006
 21
19.302
 31
0.0
  0
LINE
  5
121
  8
0
 62
     6
 10
16.777999999999992
 20
20.757999999999999
 30
0.0
 11
16.777999999999992
 21
19.452000000000002
 31
0.0
  0
LINE
  5
122
  8
0
 62
     6
 10
17.143999999999998
 20
20.757999999999999
 30
0.0
 11
16.777999999999992
 21
20.757999999999999
 31
0.0
  0
LINE
  5
123
  8
0
 62
     6
 10
9.1999999999999993
 20
20.757999999999999
 30
0.0
 11
9.1999999999999993
 21
17.533999999999999
 31
0.0
  0
LINE
  5
124
  8
0
 62
     6
 10
17.143999999999998
 20
17.533999999999999
 30
0.0
 11
17.143999999999998
 21
20.757999999999999
 31
0.0
  0
LINE
  5
125
  8
0
 62
     3
 10
22.10599047389853
 20
17.44690344752884
 30
0.0
 11
21.405652616786071
 21
13.639654212427679
 31
0.0
  0
POINT
  5
126
  8
DEFPOINTS
  6
BYBLOCK
 62
     0
 10
3.9789999999999992
 20
17.682999999999989
 30
0.0
  0
POINT
  5
127
  8
DEFPOINTS
  6
BYBLOCK
 62
     0
 10
2.6389999999999989
 20
10.804
 30
0.0
  0
POINT
  5
128
  8
DEFPOINTS
  6
BYBLOCK
 62
     0
 10
8.5860000000000003
 20
10.804
 30
0.0
  0
POINT
  5
129
  8
DEFPOINTS
  6
BYBLOCK
 62
     0
 10
2.6389999999999989
 20
10.804
 30
0.0
  0
POINT
  5
12A
  8
DEFPOINTS
  6
BYBLOCK
 62
     0
 10
3.9789999999999992
 20
20.706
 30
0.0
  0
CIRCLE
  5
12B
  8
0
 62
     4
 10
11.907952274934781
 20
14.875999999999999
 30
0.0
 40
0.25
  0
SOLID
  5
12C
  8
0
 62
     7
 10
11.561
 20
19.658000000000001
 30
0.0
 11
11.425999999999989
 21
19.756
 31
0.0
 12
11.20099999999999
 22
19.302
 32
0.0
 13
11.20099999999999
 23
19.302
 33
0.0
  0
LINE
  5
12D
  8
0
 62
     7
 10
11.49299999999999
 20
19.707000000000001
 30
0.0
 11
14.878
 21
24.390000000000001
 31
0.0
  0
LINE
  5
12E
  8
0
 62
     7
 10
14.878
 20
24.390000000000001
 30
0.0
 11
15.378
 21
24.390000000000001
 31
0.0
  0
TEXT
  5
12F
  8
0
 62
     7
 10
15.884999999999989
 20
7.585
 30
0.0
 40
0.75
  1
ENDWALL
  0
TEXT
  5
130
  8
0
 62
     7
 10
15.884999999999989
 20
6.3349999999999991
 30
0.0
 40
0.75
  1
GIRT
  0
SOLID
  5
131
  8
0
 62
     7
 10
14.129
 20
9.8209999999999997
 30
0.0
 11
14.282
 21
9.8879999999999981
 31
0.0
 12
14.005000000000001
 22
10.311999999999999
 32
0.0
 13
14.005000000000001
 23
10.311999999999999
 33
0.0
  0
LINE
  5
132
  8
0
 62
     7
 10
14.205
 20
9.8539999999999992
 30
0.0
 11
15.067
 21
7.8840000000000003
 31
0.0
  0
LINE
  5
133
  8
0
 62
     7
 10
15.067
 20
7.8840000000000003
 30
0.0
 11
15.567
 21
7.8840000000000003
 31
0.0
  0
LINE
  5
134
  8
0
 62
     3
 10
5.611990473898536
 20
16.277903447528839
 30
0.0
 11
21.89099047389853
 21
16.277903447528839
 31
0.0
  0
TEXT
  5
135
  8
0
 62
     7
 10
5.1509999999999989
 20
8.3579999999999988
 30
0.0
 40
0.75
  1
BOLTED
  0
TEXT
  5
136
  8
0
 62
     7
 10
5.1509999999999989
 20
7.1079999999999988
 30
0.0
 40
0.75
  1
CLIP
  0
LINE
  5
137
  8
0
 62
     7
 10
12.1258021003132
 20
10.90266190632569
 30
0.0
 11
9.8149999999999995
 21
7.4610000000000003
 31
0.0
  0
LINE
  5
138
  8
0
 62
     7
 10
9.8149999999999995
 20
7.4610000000000003
 30
0.0
 11
9.3149999999999995
 21
7.4610000000000003
 31
0.0
  0
TEXT
  5
139
  8
0
 62
     7
 10
15.891999999999999
 20
23.914999999999999
 30
0.0
 40
0.7
  1
RIGID
  0
TEXT
  5
13A
  8
0
 62
     7
 10
15.891999999999999
 20
22.748999999999999
 30
0.0
 40
0.7
  1
FRAME
  0
TEXT
  5
13B
  8
0
 62
     7
 10
15.891999999999999
 20
21.58199999999999
 30
0.0
 40
0.7
  1
COLUMN
  0
LINE
  5
13C
  8
0
 62
     5
 10
10.94449196858865
 20
18.830089958224072
 30
0.0
 11
10.94449196858865
 21
11.396000000000001
 31
0.0
  0
LINE
  5
13D
  8
0
 62
     5
 10
10.94449196858865
 20
11.396000000000001
 30
0.0
 11
15.29149196858865
 21
11.396000000000001
 31
0.0
  0
LINE
  5
13E
  8
0
 62
     5
 10
15.29149196858865
 20
11.396000000000001
 30
0.0
 11
15.29149196858865
 21
18.830089958224072
 31
0.0
  0
LINE
  5
13F
  8
0
 62
     5
 10
15.29149196858865
 20
18.830089958224072
 30
0.0
 11
10.94449196858865
 21
18.830089958224072
 31
0.0
  0
CIRCLE
  5
140
  8
0
 62
     4
 10
11.907952274934781
 20
12.198
 30
0.0
 40
0.25
  0
TEXT
  5
141
  8
0
 62
     7
 10
1.3999999999999999
 20
2.399999999999999
 30
0.0
 40
1.1999999999999991
  1
D27
 72
     4
 11
3.0
 21
3.0
 31
0.0
  0
ENDBLK
  5
FA
999
C:\MBS\DXF\E3.DXF
  0
BLOCK
  8
0
  2
E3
 70
     0
 10
0.0
 20
0.0
 30
0.0
  3
E3
  1

  0
LINE
  5
69
  8
0
 10
11.790406422642301
 20
25.987090497718309
 30
0.0
 11
17.260406422642301
 21
28.927090497718311
 31
0.0
  0
LINE
  5
6A
  8
0
 10
12.2204064226423
 20
14.03709049771831
 30
0.0
 11
17.260406422642301
 21
12.38709049771831
 31
0.0
  0
TEXT
  5
6B
  8
0
 10
12.0104064226423
 20
30.017090497718311
 30
0.0
 40
0.75
  1
ENDWALL COLUMN
 72
     1
 11
17.260406422642301
 21
30.017090497718311
 31
0.0
  0
TEXT
  5
6C
  8
0
 10
13.7154064226423
 20
10.747090497718309
 30
0.0
 40
0.75
  1
BASE PLATE
 72
     1
 11
17.3404064226423
 21
10.747090497718309
 31
0.0
  0
TEXT
  5
6D
  8
0
 10
5.4787201965996717
 20
2.2198060001389801
 30
0.0
 40
1.0
  1
BASE PLATE FOR ENDWALL COLUMN
 72
     1
 11
19.97872019659966
 21
2.2198060001389801
 31
0.0
  0
LINE
  5
6E
  8
0
 62
     5
 10
8.3504064226423012
 20
14.19709049771831
 30
0.0
 11
8.3504064226423012
 21
26.19709049771831
 31
0.0
  0
LINE
  5
6F
  8
0
 62
     5
 10
14.350406422642299
 20
26.19709049771831
 30
0.0
 11
14.350406422642299
 21
14.19709049771831
 31
0.0
  0
CIRCLE
  5
70
  8
0
 10
2.5379999999999989
 20
2.79
 30
0.0
 40
2.089999999999999
  0
CIRCLE
  5
71
  8
0
 10
2.5379999999999989
 20
2.79
 30
0.0
 40
2.02
  0
TEXT
  5
72
  8
0
 10
1.3713333333333331
 20
2.089999999999999
 30
0.0
 40
1.399999999999999
  1
E3
 72
     1
 11
2.5379999999999989
 21
2.79
 31
0.0
 73
     2
  0
TEXT
  5
73
  8
0
 10
9.9754064226423012
 20
8.1970904977183121
 30
0.0
 40
0.75
  1
PLAN
 72
     1
 11
11.350406422642299
 21
8.1970904977183121
 31
0.0
  0
LINE
  5
74
  8
0
 62
     5
 10
14.350406422642299
 20
14.19709049771831
 30
0.0
 11
8.3504064226423012
 21
14.19709049771831
 31
0.0
  0
SOLID
  5
75
  8
0
 10
12.190406422642299
 20
13.95709049771831
 30
0.0
 11
12.2404064226423
 21
14.11709049771831
 31
0.0
 12
11.7404064226423
 22
14.19709049771831
 32
0.0
 13
11.7404064226423
 23
14.19709049771831
 33
0.0
  0
LINE
  5
76
  8
0
 62
     6
 10
11.110406422642299
 20
15.167090497718309
 30
0.0
 11
11.110406422642299
 21
25.237090497718309
 31
0.0
  0
LINE
  5
77
  8
0
 62
     6
 10
11.5804064226423
 20
25.237090497718309
 30
0.0
 11
11.5804064226423
 21
15.167090497718309
 31
0.0
  0
LINE
  5
78
  8
0
 62
     6
 10
11.5804064226423
 20
15.167090497718309
 30
0.0
 11
13.360406422642299
 21
15.167090497718309
 31
0.0
  0
LINE
  5
79
  8
0
 62
     6
 10
13.8304064226423
 20
14.64709049771831
 30
0.0
 11
8.9404064226423046
 21
14.64709049771831
 31
0.0
  0
CIRCLE
  5
7A
  8
0
 62
     4
 10
9.3504064226423012
 20
18.003838772906001
 30
0.0
 40
0.33
  0
LINE
  5
7B
  8
0
 62
     6
 10
8.9404064226423046
 20
15.167090497718309
 30
0.0
 11
11.110406422642299
 21
15.167090497718309
 31
0.0
  0
LINE
  5
7C
  8
0
 62
     6
 10
8.9404064226423046
 20
14.64709049771831
 30
0.0
 11
8.9404064226423046
 21
15.167090497718309
 31
0.0
  0
CIRCLE
  5
7D
  8
0
 62
     4
 10
9.3504064226423012
 20
22.39034222253062
 30
0.0
 40
0.33
  0
LINE
  5
7E
  8
0
 62
     6
 10
13.360406422642299
 20
15.167090497718309
 30
0.0
 11
13.8304064226423
 21
15.167090497718309
 31
0.0
  0
LINE
  5
7F
  8
0
 62
     6
 10
13.8304064226423
 20
15.167090497718309
 30
0.0
 11
13.8304064226423
 21
14.64709049771831
 31
0.0
  0
CIRCLE
  5
80
  8
0
 62
     4
 10
13.360406422642299
 20
18.003838772906001
 30
0.0
 40
0.33
  0
CIRCLE
  5
81
  8
0
 62
     4
 10
13.360406422642299
 20
22.39034222253062
 30
0.0
 40
0.33
  0
SOLID
  5
82
  8
0
 10
11.8304064226423
 20
25.907090497718311
 30
0.0
 11
11.7604064226423
 21
26.05709049771831
 31
0.0
 12
11.350406422642299
 22
25.747090497718311
 32
0.0
 13
11.350406422642299
 23
25.747090497718311
 33
0.0
  0
LINE
  5
83
  8
0
 62
     6
 10
8.9404064226423046
 20
25.747090497718311
 30
0.0
 11
13.8304064226423
 21
25.747090497718311
 31
0.0
  0
LINE
  5
84
  8
0
 62
     6
 10
13.8304064226423
 20
25.237090497718309
 30
0.0
 11
11.5804064226423
 21
25.237090497718309
 31
0.0
  0
LINE
  5
85
  8
0
 62
     5
 10
8.3504064226423012
 20
26.19709049771831
 30
0.0
 11
14.350406422642299
 21
26.19709049771831
 31
0.0
  0
LINE
  5
86
  8
0
 62
     6
 10
11.110406422642299
 20
25.237090497718309
 30
0.0
 11
8.9404064226423046
 21
25.237090497718309
 31
0.0
  0
LINE
  5
87
  8
0
 62
     6
 10
8.9404064226423046
 20
25.237090497718309
 30
0.0
 11
8.9404064226423046
 21
25.747090497718311
 31
0.0
  0
LINE
  5
88
  8
0
 62
     6
 10
13.8304064226423
 20
25.747090497718311
 30
0.0
 11
13.8304064226423
 21
25.237090497718309
 31
0.0
  0
LINE
  5
89
  8
0
 62
     5
 10
26.350406422642301
 20
14.19709049771831
 30
0.0
 11
26.350406422642301
 21
14.64709049771831
 31
0.0
  0
LINE
  5
8A
  8
0
 62
     5
 10
20.360406422642299
 20
14.64709049771831
 30
0.0
 11
20.360406422642299
 21
14.237090497718309
 31
0.0
  0
LINE
  5
8B
  8
0
 62
     5
 10
20.350406422642301
 20
14.19709049771831
 30
0.0
 11
26.350406422642301
 21
14.19709049771831
 31
0.0
  0
TEXT
  5
8C
  8
0
 10
20.100406422642301
 20
8.1970904977183121
 30
0.0
 40
0.75
  1
ELEVATION
 72
     1
 11
23.350406422642301
 21
8.1970904977183121
 31
0.0
  0
LINE
  5
8D
  8
0
 10
22.680406422642299
 20
14.04709049771831
 30
0.0
 11
17.260406422642301
 21
12.38709049771831
 31
0.0
  0
LINE
  5
8E
  8
0
 10
17.260406422642301
 20
12.38709049771831
 30
0.0
 11
17.260406422642301
 21
11.87709049771831
 31
0.0
  0
SOLID
  5
8F
  8
0
 10
22.6604064226423
 20
14.12709049771831
 30
0.0
 11
22.710406422642301
 21
13.96709049771831
 31
0.0
 12
23.1604064226423
 22
14.19709049771831
 32
0.0
 13
23.1604064226423
 23
14.19709049771831
 33
0.0
  0
LINE
  5
90
  8
0
  6
HIDDEN
 62
     6
 10
23.5504064226423
 20
14.64709049771831
 30
0.0
 11
23.5504064226423
 21
26.937090497718309
 31
0.0
  0
LINE
  5
91
  8
0
  6
HIDDEN
 62
     6
 10
23.1604064226423
 20
14.64709049771831
 30
0.0
 11
23.1604064226423
 21
26.847090497718309
 31
0.0
  0
LINE
  5
92
  8
0
 62
     6
 10
25.8004064226423
 20
14.64709049771831
 30
0.0
 11
25.8004064226423
 21
27.437090497718309
 31
0.0
  0
LINE
  5
93
  8
0
 62
     6
 10
20.990406422642302
 20
14.64709049771831
 30
0.0
 11
20.990406422642302
 21
26.367090497718308
 31
0.0
  0
LINE
  5
94
  8
0
 62
     5
 10
26.350406422642301
 20
14.64709049771831
 30
0.0
 11
20.360406422642299
 21
14.64709049771831
 31
0.0
  0
LINE
  5
95
  8
0
 62
     6
 10
20.0504064226423
 20
26.157090497718311
 30
0.0
 11
24.3204064226423
 21
27.10709049771831
 31
0.0
  0
LINE
  5
96
  8
0
 10
21.850406422642301
 20
26.867090497718308
 30
0.0
 11
17.260406422642301
 21
28.927090497718311
 31
0.0
  0
SOLID
  5
97
  8
0
 10
21.8904064226423
 20
26.937090497718309
 30
0.0
 11
21.8204064226423
 21
26.78709049771831
 31
0.0
 12
22.310406422642298
 22
26.657090497718311
 32
0.0
 13
22.310406422642298
 23
26.657090497718311
 33
0.0
  0
LINE
  5
98
  8
0
 10
17.260406422642301
 20
28.927090497718311
 30
0.0
 11
17.260406422642301
 21
29.44709049771831
 31
0.0
  0
LINE
  5
99
  8
0
 62
     6
 10
24.950406422642299
 20
27.247090497718311
 30
0.0
 11
27.430406422642299
 21
27.797090497718312
 31
0.0
  0
LINE
  5
9A
  8
0
 62
     6
 10
24.3204064226423
 20
27.10709049771831
 30
0.0
 11
24.400406422642298
 21
27.69709049771831
 31
0.0
  0
LINE
  5
9B
  8
0
 62
     6
 10
24.400406422642298
 20
27.69709049771831
 30
0.0
 11
24.710406422642301
 21
26.777090497718309
 31
0.0
  0
LINE
  5
9C
  8
0
 62
     6
 10
24.710406422642301
 20
26.777090497718309
 30
0.0
 11
24.950406422642299
 21
27.247090497718311
 31
0.0
  0
ENDBLK
  5
68
999
C:\MBS\DXF\E6.DXF
  0
BLOCK
  8
0
  2
E6
 70
    64
 10
0.0
 20
0.0
 30
0.0
  3
E6
  0
TEXT
  8
0
 62
     7
 10
5.446
 20
2.584
 30
0.0
 40
1.0
  1
BASE PLATE FOR DOOR JAMB
 72
     1
 11
17.28
 21
2.584
 31
0.0
  0
TEXT
  8
0
 62
     7
 10
12.595
 20
16.1
 30
0.0
 40
0.7
  1
1/2" x 1"
  0
LINE
  8
0
 10
20.237
 20
20.264
 30
0.0
 11
16.907
 21
22.514
 31
0.0
  0
TEXT
  8
0
 10
10.867
 20
9.674
 30
0.0
 40
0.7
  1
BASE PLATE
  0
LINE
  8
0
 62
     5
 10
7.357
 20
17.814
 30
0.0
 11
7.357
 21
11.814
 31
0.0
  0
LINE
  8
0
 62
     5
 10
5.107
 20
11.814
 30
0.0
 11
5.107
 21
17.814
 31
0.0
  0
LINE
  8
0
 62
     5
 10
7.607
 20
17.814
 30
0.0
 11
7.607
 21
11.814
 31
0.0
  0
LINE
  8
0
 62
     6
 10
7.767
 20
18.704
 30
0.0
 11
7.767
 21
10.904
 31
0.0
  0
SOLID
  8
0
 10
6.737
 20
11.404
 30
0.0
 11
6.857
 21
11.514
 31
0.0
 12
6.457
 22
11.814
 32
0.0
 13
6.457
 23
11.814
 33
0.0
  0
TEXT
  8
0
 10
5.067
 20
6.694
 30
0.0
 40
0.8
  1
PLAN
  0
LINE
  8
0
 62
     5
 10
7.607
 20
11.814
 30
0.0
 11
5.107
 21
11.814
 31
0.0
  0
LINE
  8
0
 62
     6
 10
7.667
 20
10.804
 30
0.0
 11
4.867
 21
10.804
 31
0.0
  0
CIRCLE
  8
0
 10
2.462
 20
2.394
 30
0.0
 40
2.0
  0
TEXT
  8
0
 10
0.962
 20
1.494
 30
0.0
 40
1.8
  1
E6
 72
     4
 11
2.462
 21
2.394
 31
0.0
  0
CIRCLE
  8
0
 10
2.462
 20
2.394
 30
0.0
 40
1.93
  0
LINE
  8
0
 62
     6
 10
4.767
 20
10.904
 30
0.0
 11
4.767
 21
11.554
 31
0.0
  0
ARC
  8
0
 62
     6
 10
4.867
 20
10.904
 30
0.0
 40
0.1
 50
180.0
 51
270.0
  0
LINE
  8
0
 10
8.187
 20
10.024
 30
0.0
 11
10.237
 21
10.024
 31
0.0
  0
LINE
  8
0
 10
6.797
 20
11.454
 30
0.0
 11
8.187
 21
10.024
 31
0.0
  0
ARC
  8
0
 62
     6
 10
7.667
 20
10.904
 30
0.0
 40
0.1
 50
270.0
 51
0.0
  0
LINE
  8
0
 10
9.707
 20
10.024
 30
0.0
 11
10.207
 21
10.024
 31
0.0
  0
CIRCLE
  8
0
 62
     4
 10
6.297
 20
16.13
 30
0.0
 40
0.44
  0
LINE
  8
0
 10
6.477
 20
19.214
 30
0.0
 11
9.617
 21
23.734
 31
0.0
  0
SOLID
  8
0
 10
6.547
 20
19.164
 30
0.0
 11
6.407
 21
19.264
 31
0.0
 12
6.187
 22
18.804
 32
0.0
 13
6.187
 23
18.804
 33
0.0
  0
CIRCLE
  8
0
 62
     4
 10
6.297
 20
13.296
 30
0.0
 40
0.44
  0
LINE
  8
0
 62
     5
 10
5.107
 20
17.814
 30
0.0
 11
7.607
 21
17.814
 31
0.0
  0
LINE
  8
0
 62
     6
 10
4.867
 20
18.804
 30
0.0
 11
7.667
 21
18.804
 31
0.0
  0
LINE
  8
0
 62
     6
 10
4.767
 20
18.054
 30
0.0
 11
4.767
 21
18.704
 31
0.0
  0
ARC
  8
0
 62
     6
 10
4.867
 20
18.704
 30
0.0
 40
0.1
 50
90.0
 51
180.0
  0
LINE
  8
0
 10
11.247
 20
17.654
 30
0.0
 11
11.837
 21
17.654
 31
0.0
  0
LINE
  8
0
 62
     4
 10
7.007
 20
12.784
 30
0.0
 11
8.28
 21
12.784
 31
0.0
  0
LINE
  8
0
 62
     4
 10
7.227
 20
12.974
 30
0.0
 11
7.227
 21
12.594
 31
0.0
  0
LINE
  8
0
 62
     4
 10
8.002
 20
13.014
 30
0.0
 11
8.002
 21
12.634
 31
0.0
  0
LINE
  8
0
 10
8.657
 20
16.961
 30
0.0
 11
11.247
 21
17.654
 31
0.0
  0
LINE
  8
0
 62
     4
 10
7.007
 20
16.844
 30
0.0
 11
8.222
 21
16.844
 31
0.0
  0
LINE
  8
0
 62
     4
 10
7.227
 20
17.034
 30
0.0
 11
7.227
 21
16.654
 31
0.0
  0
SOLID
  8
0
 10
8.676
 20
16.888
 30
0.0
 11
8.637
 21
17.033
 31
0.0
 12
8.222
 22
16.844
 32
0.0
 13
8.222
 23
16.844
 33
0.0
  0
LINE
  8
0
 62
     4
 10
8.002
 20
17.074
 30
0.0
 11
8.002
 21
16.694
 31
0.0
  0
ARC
  8
0
 62
     6
 10
7.667
 20
18.704
 30
0.0
 40
0.1
 50
0.0
 51
90.0
  0
LINE
  8
0
 10
11.247
 20
17.654
 30
0.0
 11
11.697
 21
17.654
 31
0.0
  0
LINE
  8
0
 10
11.247
 20
17.654
 30
0.0
 11
11.747
 21
17.654
 31
0.0
  0
LINE
  8
0
 10
11.247
 20
17.654
 30
0.0
 11
11.427
 21
17.654
 31
0.0
  0
TEXT
  8
0
 62
     7
 10
12.529
 20
15.129
 30
0.0
 40
0.7
  1
A307
  0
TEXT
  8
0
 10
12.467
 20
17.374
 30
0.0
 40
0.7
  1
BOLTS,
  0
TEXT
  8
0
 10
11.127
 20
22.174
 30
0.0
 40
0.7
  1
JAMB
  0
TEXT
  8
0
 10
11.127
 20
23.334
 30
0.0
 40
0.7
  1
DOOR
  0
LINE
  8
0
 10
9.617
 20
23.734
 30
0.0
 11
10.117
 21
23.734
 31
0.0
  0
LINE
  8
0
 10
9.617
 20
23.734
 30
0.0
 11
10.297
 21
23.734
 31
0.0
  0
LINE
  8
0
 10
16.907
 20
22.514
 30
0.0
 11
15.907
 21
22.514
 31
0.0
  0
LINE
  8
0
 62
     4
 10
22.567
 20
11.901
 30
0.0
 11
22.567
 21
12.312
 31
0.0
  0
LINE
  8
1
 62
     4
 10
21.617
 20
12.324
 30
0.0
 11
21.617
 21
11.894
 31
0.0
  0
LINE
  8
1
 62
     5
 10
22.057
 20
13.064
 30
0.0
 11
22.057
 21
11.404
 31
0.0
  0
LINE
  8
1
 62
     5
 10
21.807
 20
11.404
 30
0.0
 11
21.807
 21
13.064
 31
0.0
  0
LINE
  8
0
 62
     6
 10
19.367
 20
11.404
 30
0.0
 11
19.367
 21
20.164
 31
0.0
  0
LINE
  8
0
 62
     6
 10
22.367
 20
11.404
 30
0.0
 11
22.367
 21
19.724
 31
0.0
  0
TEXT
  8
0
 10
17.857
 20
6.694
 30
0.0
 40
0.8
  1
ELEVATION
  0
LINE
  8
0
 10
20.697
 20
10.704
 30
0.0
 11
19.077
 21
10.034
 31
0.0
  0
LINE
  8
0
 62
     5
 10
19.537
 20
11.154
 30
0.0
 11
21.807
 21
11.154
 31
0.0
  0
LINE
  8
0
 62
     5
 10
19.537
 20
10.904
 30
0.0
 11
22.057
 21
10.904
 31
0.0
  0
LINE
  8
0
 62
     6
 10
22.367
 20
11.404
 30
0.0
 11
19.367
 21
11.404
 31
0.0
  0
LINE
  8
0
 10
19.077
 20
10.034
 30
0.0
 11
18.217
 21
10.034
 31
0.0
  0
LINE
  8
1
 62
     5
 10
19.537
 20
10.904
 30
0.0
 11
19.537
 21
11.154
 31
0.0
  0
LINE
  8
0
 10
19.077
 20
10.034
 30
0.0
 11
18.577
 21
10.034
 31
0.0
  0
LINE
  8
0
 10
19.077
 20
10.034
 30
0.0
 11
18.717
 21
10.034
 31
0.0
  0
SOLID
  8
0
 10
20.667
 20
10.784
 30
0.0
 11
20.727
 21
10.624
 31
0.0
 12
21.157
 22
10.894
 32
0.0
 13
21.157
 23
10.894
 33
0.0
  0
LINE
  8
0
 62
     5
 10
22.057
 20
10.904
 30
0.0
 11
22.057
 21
11.154
 31
0.0
  0
LINE
  8
0
 62
     5
 10
21.807
 20
11.154
 30
0.0
 11
21.807
 21
11.414
 31
0.0
  0
LINE
  8
0
 62
     5
 10
22.057
 20
11.144
 30
0.0
 11
22.057
 21
11.404
 31
0.0
  0
LINE
  8
0
 62
     4
 10
22.808
 20
12.084
 30
0.0
 11
22.367
 21
12.084
 31
0.0
  0
LINE
  8
1
 62
     4
 10
22.367
 20
12.084
 30
0.0
 11
21.387
 21
12.084
 31
0.0
  0
LINE
  8
1
 62
     5
 10
21.807
 20
13.064
 30
0.0
 11
22.057
 21
13.064
 31
0.0
  0
LINE
  8
0
 62
     6
 10
18.777
 20
20.254
 30
0.0
 11
22.987
 21
19.634
 31
0.0
  0
SOLID
  8
0
 10
20.287
 20
20.324
 30
0.0
 11
20.197
 21
20.194
 31
0.0
 12
20.657
 22
19.984
 32
0.0
 13
20.657
 23
19.984
 33
0.0
  0
ENDBLK
  8
0
999
C:\MBS\DXF\G2.DXF
  0
BLOCK
  8
0
  2
G2
 70
    64
 10
0.0
 20
0.0
 30
0.0
  3
G2
  0
LINE
  8
0
 62
     5
 10
15.37
 20
16.25
 30
0.0
 11
18.72
 21
16.25
 31
0.0
  0
LINE
  8
0
  6
CONTINUOUS
 62
     5
 10
15.37
 20
19.56
 30
0.0
 11
18.72
 21
19.56
 31
0.0
  0
TEXT
  8
0
 10
6.12
 20
1.71
 30
0.0
 40
0.72
  1
ROOF PURLIN TO INTERIOR FRAME RAFTER
  0
LINE
  8
0
 62
     6
 10
18.84
 20
16.19
 30
0.0
 11
15.24
 21
16.19
 31
0.0
  0
LINE
  8
0
 62
     6
 10
15.24
 20
3.89
 30
0.0
 11
18.84
 21
3.89
 31
0.0
  0
LINE
  8
1
  6
DASHED
 62
     3
 10
1.3
 20
16.65
 30
0.0
 11
31.29
 21
16.65
 31
0.0
  0
LINE
  8
0
 62
     3
 10
30.9
 20
19.64
 30
0.0
 11
1.07
 21
19.64
 31
0.0
  0
LINE
  8
0
 62
     3
 10
1.05
 20
19.95
 30
0.0
 11
30.87
 21
19.95
 31
0.0
  0
LINE
  8
0
  6
DASHED
 62
     3
 10
15.47
 20
16.35
 30
0.0
 11
18.62
 21
16.35
 31
0.0
  0
LINE
  8
0
 62
     6
 10
16.92
 20
15.74
 30
0.0
 11
16.92
 21
4.34
 31
0.0
  0
LINE
  8
0
 62
     1
 10
16.83
 20
4.72
 30
0.0
 11
5.05
 21
17.8
 31
0.0
  0
LINE
  8
0
 62
     1
 10
16.35
 20
4.35
 30
0.0
 11
4.6
 21
17.4
 31
0.0
  0
LINE
  8
0
 62
     1
 10
16.23
 20
4.25
 30
0.0
 11
4.49
 21
17.3
 31
0.0
  0
LINE
  8
0
 10
16.27
 20
10.58
 30
0.0
 11
5.93
 21
8.88
 31
0.0
  0
CIRCLE
  8
0
 10
2.16
 20
2.4
 30
0.0
 40
1.83
  0
CIRCLE
  8
0
 10
2.16
 20
2.4
 30
0.0
 40
1.8
  0
TEXT
  8
0
 62
     7
 10
0.91
 20
1.65
 30
0.0
 40
1.5
  1
G2
 72
     4
 11
2.16
 21
2.4
 31
0.0
  0
TEXT
  8
0
 10
0.93
 20
8.56
 30
0.0
 40
0.7
  1
RAFTER
  0
TEXT
  8
0
 10
0.93
 20
9.46
 30
0.0
 40
0.7
  1
FRAME
  0
TEXT
  8
0
 10
0.93
 20
10.36
 30
0.0
 40
0.7
  1
RIGID
  0
LINE
  8
0
 10
5.93
 20
8.88
 30
0.0
 11
5.21
 21
8.88
 31
0.0
  0
LINE
  8
0
 62
     4
 10
15.68
 20
4.88
 30
0.0
 11
15.68
 21
4.19
 31
0.0
  0
LINE
  8
0
 62
     1
 10
16.23
 20
4.25
 30
0.0
 11
16.83
 21
4.72
 31
0.0
  0
LINE
  8
0
 62
     6
 10
16.77
 20
4.19
 30
0.0
 11
15.24
 21
4.19
 31
0.0
  0
LINE
  8
0
 62
     6
 10
15.24
 20
4.19
 30
0.0
 11
15.24
 21
3.89
 31
0.0
  0
POINT
  8
0
 10
17.04
 20
3.89
 30
0.0
  0
ARC
  8
0
 62
     6
 10
16.77
 20
4.34
 30
0.0
 40
0.15
 50
270.0
 51
0.0
  0
LINE
  8
1
 62
     4
 10
16.33
 20
5.27
 30
0.0
 11
15.68
 21
5.27
 31
0.0
  0
LINE
  8
1
 62
     4
 10
15.68
 20
5.27
 30
0.0
 11
15.68
 21
4.88
 31
0.0
  0
LINE
  8
0
 62
     4
 10
16.93
 20
5.27
 30
0.0
 11
16.33
 21
5.27
 31
0.0
  0
CIRCLE
  8
0
 62
     4
 10
16.28
 20
4.76
 30
0.0
 40
0.15
  0
SOLID
  8
0
 10
16.26
 20
10.68
 30
0.0
 11
16.29
 21
10.47
 31
0.0
 12
16.92
 22
10.68
 32
0.0
 13
16.92
 23
10.68
 33
0.0
  0
TEXT
  8
0
 10
1.31
 20
21.92
 30
0.0
 40
0.7
  1
BOLTS, 0.5"
  0
TEXT
  8
0
 62
     7
 10
1.2
 20
20.66
 30
0.0
 40
0.7
  1
x 1.0" (TYP)
  0
LINE
  8
0
 62
     3
 10
6.35
 20
16.35
 30
0.0
 11
15.47
 21
16.35
 31
0.0
  0
LINE
  8
0
 62
     3
 10
1.01
 20
20.44
 30
0.0
 11
1.36
 21
15.88
 31
0.0
  0
LINE
  8
0
 62
     3
 10
1.33
 20
16.35
 30
0.0
 11
5.34
 21
16.35
 31
0.0
  0
LINE
  8
0
 62
     1
 10
5.05
 20
17.8
 30
0.0
 11
4.49
 21
17.3
 31
0.0
  0
CIRCLE
  8
0
 62
     4
 10
5.1
 20
17.25
 30
0.0
 40
0.15
  0
LINE
  8
0
  6
DASHED
 62
     3
 10
5.34
 20
16.35
 30
0.0
 11
6.35
 21
16.35
 31
0.0
  0
SOLID
  8
0
 10
9.61
 20
19.86
 30
0.0
 11
9.4
 21
19.8
 31
0.0
 12
9.69
 22
19.2
 32
0.0
 13
9.69
 23
19.2
 33
0.0
  0
LINE
  8
0
 62
     3
 10
9.34
 20
19.98
 30
0.0
 11
9.34
 21
16.37
 31
0.0
  0
CIRCLE
  8
0
 62
     4
 10
9.71
 20
17.2
 30
0.0
 40
0.15
  0
CIRCLE
  8
0
 62
     4
 10
9.71
 20
19.05
 30
0.0
 40
0.15
  0
ARC
  8
0
 62
     6
 10
16.77
 20
15.74
 30
0.0
 40
0.15
 50
0.0
 51
90.0
  0
LINE
  8
0
  6
CONTINUOUS
 62
     5
 10
15.37
 20
16.25
 30
0.0
 11
15.37
 21
19.56
 31
0.0
  0
LINE
  8
0
 62
     6
 10
15.24
 20
15.89
 30
0.0
 11
16.77
 21
15.89
 31
0.0
  0
LINE
  8
0
 62
     6
 10
15.24
 20
16.19
 30
0.0
 11
15.24
 21
15.89
 31
0.0
  0
LINE
  8
0
 10
16.89
 20
15.89
 30
0.0
 11
16.89
 21
15.89
 31
0.0
  0
CIRCLE
  8
0
 62
     4
 10
16.07
 20
17.2
 30
0.0
 40
0.15
  0
CIRCLE
  8
0
 62
     4
 10
16.1
 20
19.15
 30
0.0
 40
0.15
  0
LINE
  8
0
 10
9.51
 20
19.83
 30
0.0
 11
9.05
 21
21.35
 31
0.0
  0
LINE
  8
0
 10
8.64
 20
21.35
 30
0.0
 11
9.05
 21
21.35
 31
0.0
  0
POINT
  8
0
 62
     7
 10
16.95
 20
24.13
 30
0.0
  0
LINE
  8
0
 62
     6
 10
17.16
 20
4.34
 30
0.0
 11
17.16
 21
15.74
 31
0.0
  0
LINE
  8
0
 62
     1
 10
17.26
 20
4.72
 30
0.0
 11
29.04
 21
17.8
 31
0.0
  0
LINE
  8
0
 62
     1
 10
17.73
 20
4.35
 30
0.0
 11
29.48
 21
17.4
 31
0.0
  0
LINE
  8
0
 62
     1
 10
17.85
 20
4.26
 30
0.0
 11
29.59
 21
17.3
 31
0.0
  0
TEXT
  8
0
 10
26.9
 20
8.65
 30
0.0
 40
0.7
  1
BRACE
  0
TEXT
  8
0
 10
26.9
 20
9.55
 30
0.0
 40
0.7
  1
FLANGE
  0
TEXT
  8
0
 10
26.9
 20
10.45
 30
0.0
 40
0.7
  1
RAFTER
  0
LINE
  8
0
 62
     4
 10
18.41
 20
4.88
 30
0.0
 11
18.41
 21
4.19
 31
0.0
  0
LINE
  8
0
 62
     1
 10
17.85
 20
4.26
 30
0.0
 11
17.26
 21
4.72
 31
0.0
  0
LINE
  8
0
 62
     6
 10
18.84
 20
4.19
 30
0.0
 11
17.31
 21
4.19
 31
0.0
  0
ARC
  8
0
 62
     6
 10
17.31
 20
4.34
 30
0.0
 40
0.15
 50
180.0
 51
270.0
  0
LINE
  8
0
 62
     6
 10
18.84
 20
3.89
 30
0.0
 11
18.84
 21
4.19
 31
0.0
  0
CIRCLE
  8
0
 62
     4
 10
17.8
 20
4.76
 30
0.0
 40
0.15
  0
LINE
  8
0
 62
     4
 10
17.16
 20
5.27
 30
0.0
 11
17.75
 21
5.27
 31
0.0
  0
LINE
  8
1
 62
     4
 10
18.41
 20
5.27
 30
0.0
 11
18.41
 21
4.88
 31
0.0
  0
LINE
  8
1
 62
     4
 10
17.75
 20
5.27
 30
0.0
 11
18.41
 21
5.27
 31
0.0
  0
LINE
  8
0
 10
24.96
 20
11.23
 30
0.0
 11
26.18
 21
10.71
 31
0.0
  0
SOLID
  8
0
 10
24.92
 20
11.13
 30
0.0
 11
25.0
 21
11.33
 31
0.0
 12
24.36
 22
11.49
 32
0.0
 13
24.36
 23
11.49
 33
0.0
  0
LINE
  8
0
 10
26.18
 20
10.71
 30
0.0
 11
26.59
 21
10.71
 31
0.0
  0
LINE
  8
0
 62
     3
 10
18.62
 20
16.35
 30
0.0
 11
27.73
 21
16.35
 31
0.0
  0
LINE
  8
1
  6
DASHED
 62
     3
 10
24.94
 20
19.98
 30
0.0
 11
24.94
 21
16.37
 31
0.0
  0
ARC
  8
0
 62
     6
 10
17.31
 20
15.74
 30
0.0
 40
0.15
 50
90.0
 51
180.0
  0
LINE
  8
0
  6
CONTINUOUS
 62
     5
 10
18.72
 20
19.56
 30
0.0
 11
18.72
 21
16.25
 31
0.0
  0
LINE
  8
0
 62
     6
 10
17.31
 20
15.89
 30
0.0
 11
18.84
 21
15.89
 31
0.0
  0
CIRCLE
  8
0
 62
     4
 10
18.03
 20
17.2
 30
0.0
 40
0.15
  0
LINE
  8
0
 62
     6
 10
18.84
 20
15.89
 30
0.0
 11
18.84
 21
16.19
 31
0.0
  0
CIRCLE
  8
0
 62
     4
 10
17.99
 20
19.15
 30
0.0
 40
0.15
  0
CIRCLE
  8
0
 62
     4
 10
24.25
 20
17.2
 30
0.0
 40
0.15
  0
CIRCLE
  8
0
 62
     4
 10
24.18
 20
19.15
 30
0.0
 40
0.15
  0
LINE
  8
0
 10
21.98
 20
22.01
 30
0.0
 11
22.74
 21
22.01
 31
0.0
  0
SOLID
  8
0
 10
20.15
 20
20.29
 30
0.0
 11
20.01
 21
20.46
 31
0.0
 12
19.59
 22
19.95
 32
0.0
 13
19.59
 23
19.95
 33
0.0
  0
LINE
  8
0
 10
20.08
 20
20.37
 30
0.0
 11
21.98
 21
22.01
 31
0.0
  0
TEXT
  8
0
 10
23.5
 20
20.93
 30
0.0
 40
0.7
  1
PURLIN
  0
TEXT
  8
0
 10
23.5
 20
21.83
 30
0.0
 40
0.7
  1
ROOF
  0
LINE
  8
0
 62
     3
 10
30.83
 20
20.38
 30
0.0
 11
31.28
 21
15.88
 31
0.0
  0
LINE
  8
0
 62
     3
 10
28.74
 20
16.35
 30
0.0
 11
31.23
 21
16.35
 31
0.0
  0
LINE
  8
0
 62
     1
 10
29.04
 20
17.8
 30
0.0
 11
29.59
 21
17.3
 31
0.0
  0
CIRCLE
  8
0
 62
     4
 10
28.98
 20
17.25
 30
0.0
 40
0.15
  0
LINE
  8
0
  6
DASHED
 62
     3
 10
27.73
 20
16.35
 30
0.0
 11
28.74
 21
16.35
 31
0.0
  0
ENDBLK
  8
0
999
C:\MBS\DXF\H2.DXF
  0
BLOCK
  8
0
 62
     7
  2
H2
 70
     0
 10
0.0
 20
0.0
 30
0.0
  3
H2
  1

  0
LINE
  5
8D
  8
0
  6
HIDDEN
 62
     3
 10
30.068151241471082
 20
11.789999999999999
 30
0.0
 11
0.8664308639465062
 21
11.789999999999999
 31
0.0
  0
TEXT
  5
8E
  8
0
 62
     7
 10
14.523167289096619
 20
5.0059113454482782
 30
0.0
 40
0.7
  1
PLATE
  0
TEXT
  5
8F
  8
0
 62
     7
 10
14.523167289096619
 20
6.1725780121149443
 30
0.0
 40
0.7
  1
WELDED
  0
LINE
  5
90
  8
0
 62
    10
 10
14.348151241471079
 20
21.190000000000001
 30
0.0
 11
23.748151241471081
 21
10.76
 31
0.0
  0
LINE
  5
91
  8
0
 62
    10
 10
14.258151241471079
 20
21.120000000000001
 30
0.0
 11
23.658151241471071
 21
10.68
 31
0.0
  0
LINE
  5
92
  8
0
 62
    10
 10
13.87815124147107
 20
20.82
 30
0.0
 11
23.298151241471079
 21
10.359999999999999
 31
0.0
  0
LINE
  5
93
  8
0
 62
     3
 10
1.246430863946506
 20
8.7899999999999991
 30
0.0
 11
30.298151241471071
 21
8.7899999999999991
 31
0.0
  0
LINE
  5
94
  8
0
 62
     3
 10
30.048151241471071
 20
12.09
 30
0.0
 11
15.30462871702488
 21
12.09
 31
0.0
  0
LINE
  5
95
  8
0
 62
     3
 10
30.318151241471082
 20
8.4900000000000002
 30
0.0
 11
1.2764308639465061
 21
8.4900000000000002
 31
0.0
  0
TEXT
  5
96
  8
0
 10
6.1081512414710799
 20
1.7199999999999991
 30
0.0
 40
0.7800000000000001
  1
WALL GIRT TO FRAME COLUMN
  0
LINE
  5
97
  8
0
 10
15.15815124147108
 20
21.870000000000001
 30
0.0
 11
17.67815124147107
 21
23.280000000000001
 31
0.0
  0
LINE
  5
98
  8
0
  6
HIDDEN
 62
     3
 10
5.818151241471079
 20
8.4600000000000009
 30
0.0
 11
5.818151241471079
 21
12.06
 31
0.0
  0
LINE
  5
99
  8
0
 62
     5
 10
12.06182012646938
 20
8.9671646325659164
 30
0.0
 11
12.06182012646938
 21
12.16425214101926
 31
0.0
  0
LINE
  5
9A
  8
0
 62
     5
 10
15.30462871702488
 20
12.16425214101926
 30
0.0
 11
15.30462871702488
 21
8.9671646325659164
 31
0.0
  0
LINE
  5
9B
  8
0
 62
    10
 10
13.53815124147107
 20
20.82
 30
0.0
 11
4.108151241471079
 21
10.359999999999999
 31
0.0
  0
LINE
  5
9C
  8
0
 62
    10
 10
13.15815124147108
 20
21.120000000000001
 30
0.0
 11
3.7581512414710789
 21
10.68
 31
0.0
  0
LINE
  5
9D
  8
0
 62
    10
 10
13.05815124147108
 20
21.199999999999999
 30
0.0
 11
3.6681512414710791
 21
10.76
 31
0.0
  0
LINE
  5
9E
  8
0
 62
     3
 10
1.3264308639465059
 20
8.0500000000000007
 30
0.0
 11
0.8664308639465062
 21
12.550000000000001
 31
0.0
  0
CIRCLE
  5
9F
  8
0
 62
     4
 10
6.4981512414710787
 20
11.22999999999999
 30
0.0
 40
0.15
  0
TEXT
  5
A0
  8
0
 10
4.7481512414710787
 20
6.339999999999999
 30
0.0
 40
0.7
  1
WALL GIRT
  0
TEXT
  5
A1
  8
0
 62
     7
 10
0.7566666666666664
 20
1.6100000000000001
 30
0.0
 40
1.6000000000000001
  1
H2
 72
     4
 11
2.089999999999999
 21
2.4100000000000001
 31
0.0
  0
CIRCLE
  5
A2
  8
0
 10
2.089999999999999
 20
2.4100000000000001
 30
0.0
 40
1.8
  0
CIRCLE
  5
A3
  8
0
 10
2.089999999999999
 20
2.4100000000000001
 30
0.0
 40
1.8300000000000001
  0
SOLID
  5
A4
  8
0
 10
3.2281512414710791
 20
7.839999999999999
 30
0.0
 11
3.4281512414710789
 21
7.919999999999999
 31
0.0
 12
3.0781512414710801
 22
8.4900000000000002
 32
0.0
 13
3.0781512414710801
 23
8.4900000000000002
 33
0.0
  0
LINE
  5
A5
  8
0
 10
3.3281512414710801
 20
7.879999999999999
 30
0.0
 11
3.838151241471079
 21
6.5800000000000001
 31
0.0
  0
LINE
  5
A6
  8
0
 10
3.838151241471079
 20
6.5800000000000001
 30
0.0
 11
4.318151241471079
 21
6.5800000000000001
 31
0.0
  0
LINE
  5
A7
  8
0
 62
    10
 10
4.108151241471079
 20
10.359999999999999
 30
0.0
 11
3.6681512414710791
 21
10.76
 31
0.0
  0
CIRCLE
  5
A8
  8
0
 62
     4
 10
4.1581512414710788
 20
10.800000000000001
 30
0.0
 40
0.12
  0
CIRCLE
  5
A9
  8
0
 62
     4
 10
6.5781512414710788
 20
9.2899999999999991
 30
0.0
 40
0.15
  0
LINE
  5
AA
  8
0
 62
     7
 10
12.71509019666021
 20
8.4887993088769456
 30
0.0
 11
13.761743275740329
 21
6.490327231256332
 31
0.0
  0
LINE
  5
AB
  8
0
 62
     7
 10
13.761743275740329
 20
6.490327231256332
 30
0.0
 11
14.30174327574033
 21
6.490327231256332
 31
0.0
  0
LINE
  5
AC
  8
0
 62
     5
 10
15.30462871702488
 20
8.9671646325659164
 30
0.0
 11
12.06182012646938
 21
8.9671646325659164
 31
0.0
  0
SOLID
  5
AD
  8
0
 62
     7
 10
12.63536264271205
 20
8.4470438644242396
 30
0.0
 11
12.794817750608379
 21
8.5305547533296497
 31
0.0
 12
12.464557529943979
 22
8.9671646325659164
 32
0.0
 13
12.464557529943979
 23
8.9671646325659164
 33
0.0
  0
CIRCLE
  5
AE
  8
0
 62
     4
 10
12.65354620352044
 20
9.2913613451624268
 30
0.0
 40
0.15
  0
CIRCLE
  5
AF
  8
0
 62
     4
 10
12.64753636131994
 20
11.46220396995297
 30
0.0
 40
0.15
  0
CIRCLE
  5
B0
  8
0
 62
     4
 10
14.761354310638451
 20
9.2913613451624268
 30
0.0
 40
0.15
  0
CIRCLE
  5
B1
  8
0
 62
     4
 10
14.755344468437951
 20
11.46220396995297
 30
0.0
 40
0.15
  0
LINE
  5
B2
  8
0
 62
     3
 10
12.06182012646938
 20
12.09
 30
0.0
 11
0.9164308639465058
 21
12.09
 31
0.0
  0
LINE
  5
B3
  8
0
 10
6.4581512414710804
 20
17.93
 30
0.0
 11
6.0381512414710796
 21
17.93
 31
0.0
  0
LINE
  5
B4
  8
0
 10
6.4581512414710804
 20
17.93
 30
0.0
 11
5.8681512414710797
 21
17.93
 31
0.0
  0
TEXT
  5
B5
  8
0
 10
1.7700774826254031
 20
18.57
 30
0.0
 40
0.7
  1
FLANGE
  0
TEXT
  5
B6
  8
0
 10
1.7700774826254031
 20
17.670000000000002
 30
0.0
 40
0.7
  1
BRACE
  0
TEXT
  5
B7
  8
0
 10
1.7700774826254031
 20
19.469999999999999
 30
0.0
 40
0.7
  1
COLUMN
  0
LINE
  5
B8
  8
0
 62
     6
 10
13.838151241471071
 20
12.699999999999999
 30
0.0
 11
13.838151241471071
 21
21.100000000000001
 31
0.0
  0
LINE
  5
B9
  8
0
 62
     6
 10
13.588151241471079
 20
21.100000000000001
 30
0.0
 11
13.588151241471079
 21
12.699999999999999
 31
0.0
  0
LINE
  5
BA
  8
0
 10
8.4281512414710811
 20
16.98
 30
0.0
 11
6.4581512414710804
 21
17.93
 31
0.0
  0
SOLID
  5
BB
  8
0
 10
8.47815124147108
 20
17.079999999999998
 30
0.0
 11
8.3781512414710804
 21
16.890000000000001
 31
0.0
 12
9.0181512414710792
 22
16.699999999999989
 32
0.0
 13
9.0181512414710792
 23
16.699999999999989
 33
0.0
  0
LINE
  5
BC
  8
0
  6
HIDDEN
 62
     3
 10
15.30462871702488
 20
12.09
 30
0.0
 11
12.06182012646938
 21
12.09
 31
0.0
  0
LINE
  5
BD
  8
0
 62
     5
 10
12.06182012646938
 20
12.16425214101926
 30
0.0
 11
15.30462871702488
 21
12.16425214101926
 31
0.0
  0
LINE
  5
BE
  8
0
 62
     6
 10
11.90815124147108
 20
12.25
 30
0.0
 11
15.508151241471079
 21
12.25
 31
0.0
  0
LINE
  5
BF
  8
0
 62
     6
 10
15.508151241471079
 20
12.550000000000001
 30
0.0
 11
13.98815124147108
 21
12.550000000000001
 31
0.0
  0
LINE
  5
C0
  8
0
 62
     6
 10
13.438151241471081
 20
12.550000000000001
 30
0.0
 11
11.90815124147108
 21
12.550000000000001
 31
0.0
  0
LINE
  5
C1
  8
0
 62
     6
 10
11.90815124147108
 20
12.550000000000001
 30
0.0
 11
11.90815124147108
 21
12.25
 31
0.0
  0
ARC
  5
C2
  8
0
 62
     6
 10
13.438151241471081
 20
12.699999999999999
 30
0.0
 40
0.15
 50
270.0
 51
0.0
  0
ARC
  5
C3
  8
0
 62
     6
 10
13.98815124147108
 20
12.699999999999999
 30
0.0
 40
0.15
 50
180.0
 51
270.0
  0
LINE
  5
C4
  8
0
 62
     6
 10
15.508151241471079
 20
12.25
 30
0.0
 11
15.508151241471079
 21
12.550000000000001
 31
0.0
  0
LINE
  5
C5
  8
0
  6
HIDDEN
 62
     4
 10
14.278151241471081
 20
20.379999999999988
 30
0.0
 11
14.79815124147108
 21
20.379999999999988
 31
0.0
  0
CIRCLE
  5
C6
  8
0
 62
     4
 10
14.318151241471069
 20
20.789999999999999
 30
0.0
 40
0.12
  0
LINE
  5
C7
  8
0
 62
    10
 10
14.348151241471079
 20
21.190000000000001
 30
0.0
 11
13.87815124147107
 21
20.82
 31
0.0
  0
LINE
  5
C8
  8
0
 62
     6
 10
15.508151241471079
 20
21.550000000000001
 30
0.0
 11
11.90815124147108
 21
21.550000000000001
 31
0.0
  0
LINE
  5
C9
  8
0
 62
     6
 10
13.98815124147108
 20
21.25
 30
0.0
 11
15.508151241471079
 21
21.25
 31
0.0
  0
LINE
  5
CA
  8
0
 62
     4
 10
12.618151241471081
 20
20.690000000000001
 30
0.0
 11
12.618151241471081
 21
21.25
 31
0.0
  0
LINE
  5
CB
  8
0
 62
    10
 10
13.05815124147108
 20
21.199999999999999
 30
0.0
 11
13.53815124147107
 21
20.82
 31
0.0
  0
LINE
  5
CC
  8
0
  6
HIDDEN
 62
     4
 10
13.13815124147108
 20
20.379999999999988
 30
0.0
 11
12.618151241471081
 21
20.379999999999988
 31
0.0
  0
CIRCLE
  5
CD
  8
0
 62
     4
 10
13.098151241471079
 20
20.789999999999999
 30
0.0
 40
0.12
  0
LINE
  5
CE
  8
0
  6
HIDDEN
 62
     4
 10
12.618151241471081
 20
20.379999999999988
 30
0.0
 11
12.618151241471081
 21
20.690000000000001
 31
0.0
  0
LINE
  5
CF
  8
0
 62
     4
 10
13.588151241471079
 20
20.379999999999988
 30
0.0
 11
13.13815124147108
 21
20.379999999999988
 31
0.0
  0
LINE
  5
D0
  8
0
 62
     4
 10
13.838151241471071
 20
20.379999999999988
 30
0.0
 11
14.278151241471081
 21
20.379999999999988
 31
0.0
  0
LINE
  5
D1
  8
0
 62
     6
 10
11.90815124147108
 20
21.25
 30
0.0
 11
13.438151241471081
 21
21.25
 31
0.0
  0
LINE
  5
D2
  8
0
 62
     6
 10
11.90815124147108
 20
21.550000000000001
 30
0.0
 11
11.90815124147108
 21
21.25
 31
0.0
  0
ARC
  5
D3
  8
0
 62
     6
 10
13.438151241471081
 20
21.100000000000001
 30
0.0
 40
0.15
 50
0.0
 51
90.0
  0
ARC
  5
D4
  8
0
 62
     6
 10
13.98815124147108
 20
21.100000000000001
 30
0.0
 40
0.15
 50
90.0
 51
180.0
  0
LINE
  5
D5
  8
0
 62
     4
 10
14.79815124147108
 20
20.690000000000001
 30
0.0
 11
14.79815124147108
 21
21.25
 31
0.0
  0
LINE
  5
D6
  8
0
  6
HIDDEN
 62
     4
 10
14.79815124147108
 20
20.379999999999988
 30
0.0
 11
14.79815124147108
 21
20.690000000000001
 31
0.0
  0
SOLID
  5
D7
  8
0
 10
15.21815124147108
 20
21.77
 30
0.0
 11
15.10815124147107
 21
21.960000000000001
 31
0.0
 12
14.598151241471079
 22
21.550000000000001
 32
0.0
 13
14.598151241471079
 23
21.550000000000001
 33
0.0
  0
LINE
  5
D8
  8
0
 10
14.47815124147108
 20
21.59
 30
0.0
 11
14.47815124147108
 21
21.59
 31
0.0
  0
LINE
  5
D9
  8
0
 62
     6
 10
15.508151241471079
 20
21.25
 30
0.0
 11
15.508151241471079
 21
21.550000000000001
 31
0.0
  0
LINE
  5
DA
  8
0
 62
     3
 10
30.358151241471081
 20
7.9900000000000002
 30
0.0
 11
30.008151241471069
 21
12.550000000000001
 31
0.0
  0
LINE
  5
DB
  8
0
 62
     3
 10
21.418151241471069
 20
8.4600000000000009
 30
0.0
 11
21.418151241471069
 21
12.06
 31
0.0
  0
TEXT
  5
DC
  8
0
 10
23.598151241471069
 20
6.339999999999999
 30
0.0
 40
0.7
  1
BOLTS, 0.5"
  0
TEXT
  5
DD
  8
0
 10
23.598151241471069
 20
5.4400000000000004
 30
0.0
 40
0.7
  1
x 1.0" (TYP)
  0
LINE
  5
DE
  8
0
 10
21.35815124147107
 20
8.6600000000000001
 30
0.0
 11
22.48815124147108
 21
6.5800000000000001
 31
0.0
  0
CIRCLE
  5
DF
  8
0
 62
     4
 10
21.03815124147107
 20
9.3800000000000008
 30
0.0
 40
0.15
  0
SOLID
  5
E0
  8
0
 10
21.258151241471069
 20
8.6099999999999994
 30
0.0
 11
21.44815124147107
 21
8.7100000000000009
 31
0.0
 12
21.048151241471079
 22
9.2300000000000004
 32
0.0
 13
21.048151241471079
 23
9.2300000000000004
 33
0.0
  0
CIRCLE
  5
E1
  8
0
 62
     4
 10
21.03815124147107
 20
11.22999999999999
 30
0.0
 40
0.15
  0
LINE
  5
E2
  8
0
 10
22.48815124147108
 20
6.5800000000000001
 30
0.0
 11
23.12815124147107
 21
6.5800000000000001
 31
0.0
  0
LINE
  5
E3
  8
0
 62
    10
 10
23.298151241471079
 20
10.359999999999999
 30
0.0
 11
23.748151241471081
 21
10.76
 31
0.0
  0
CIRCLE
  5
E4
  8
0
 62
     4
 10
23.258151241471079
 20
10.800000000000001
 30
0.0
 40
0.12
  0
TEXT
  5
E5
  8
0
 10
19.28815124147107
 20
22.98
 30
0.0
 40
0.7
  1
FRAME
  0
TEXT
  5
E6
  8
0
 10
19.28815124147107
 20
22.079999999999991
 30
0.0
 40
0.7
  1
COLUMN
  0
LINE
  5
E7
  8
0
 10
17.67815124147107
 20
23.280000000000001
 30
0.0
 11
18.53815124147107
 21
23.280000000000001
 31
0.0
  0
ENDBLK
  5
8C
999
C:\MBS\DXF\J16.DXF
  0
BLOCK
  8
0
  2
J16
 70
     0
 10
0.0
 20
0.0
 30
0.0
  3
J16
  1

  0
LINE
  5
D7
  8
0
 62
     3
 10
9.4203904968612324
 20
15.63239480268215
 30
0.0
 11
9.4813251685638047
 21
15.136121726861489
 31
0.0
  0
CIRCLE
  5
D8
  8
0
 10
2.4719999999999991
 20
2.7530000000000001
 30
0.0
 40
2.0
  0
CIRCLE
  5
D9
  8
0
 10
2.4719999999999991
 20
2.7530000000000001
 30
0.0
 40
1.929999999999999
  0
TEXT
  5
DA
  8
0
 10
1.013666666666666
 20
2.1280000000000001
 30
0.0
 40
1.25
  1
J16
 72
     1
 11
2.4719999999999991
 21
2.7530000000000001
 31
0.0
 73
     2
  0
LINE
  5
DB
  8
0
 62
     3
 10
14.0356036723997
 20
10.15846423700776
 30
0.0
 11
14.0356036723997
 21
15.695316813184521
 31
0.0
  0
LINE
  5
DC
  8
0
 62
     3
 10
9.4203904968612324
 20
15.63239480268215
 30
0.0
 11
24.16244255348462
 21
17.44249119126242
 31
0.0
  0
LINE
  5
DD
  8
0
 62
     3
 10
25.34287759111659
 20
18.294644886712639
 30
0.0
 11
19.062188105217299
 21
13.760627694101069
 31
0.0
  0
LINE
  5
DE
  8
0
 62
     3
 10
9.4813251685638065
 20
15.136121726861489
 30
0.0
 11
23.321608617930931
 21
16.83549485296377
 31
0.0
  0
LINE
  5
DF
  8
0
 62
     3
 10
14.5356036723997
 20
10.51677548247053
 30
0.0
 11
14.5356036723997
 21
15.756709093635971
 31
0.0
  0
LINE
  5
E0
  8
0
 62
     5
 10
13.079812087677279
 20
16.081715275869112
 30
0.0
 11
12.492335288047199
 21
20.86632985045425
 31
0.0
  0
LINE
  5
E1
  8
0
 62
     5
 10
12.492335288047199
 20
20.86632985045425
 30
0.0
 11
12.7259154022379
 21
20.89500988221079
 31
0.0
  0
LINE
  5
E2
  8
0
 62
     5
 10
12.7259154022379
 20
20.89500988221079
 30
0.0
 11
13.31339220186797
 21
16.110395307625669
 31
0.0
  0
LINE
  5
E3
  8
0
 62
     1
 10
13.47654424001535
 20
16.390825954111129
 30
0.0
 11
12.808776424615809
 21
21.82935837617681
 31
0.0
  0
LINE
  5
E4
  8
0
 62
     1
 10
12.739125456175399
 20
21.88377567669156
 30
0.0
 11
10.76097286727558
 21
21.64088907966455
 31
0.0
  0
LINE
  5
E5
  8
0
 62
     1
 10
10.706555566760819
 20
21.571238111224151
 30
0.0
 11
10.707601948341051
 21
21.147477316806508
 31
0.0
  0
LINE
  5
E6
  8
0
 62
     1
 10
15.57876509787034
 20
16.648946219063781
 30
0.0
 11
15.57953375538562
 21
17.06212185157856
 31
0.0
  0
LINE
  5
E7
  8
0
 62
     1
 10
13.54619520845576
 20
16.336408653596369
 30
0.0
 11
15.524347797355579
 21
16.579295250623371
 31
0.0
  0
ARC
  5
E8
  8
0
 62
     1
 10
13.53857837449293
 20
16.39844278807395
 30
0.0
 40
0.0625
 50
187.0
 51
277.0
  0
ARC
  5
E9
  8
0
 62
     1
 10
15.51673096339276
 20
16.64132938510096
 30
0.0
 40
0.0625
 50
277.0
 51
7.0
  0
ARC
  5
EA
  8
0
 62
     1
 10
12.74674229013822
 20
21.821741542213989
 30
0.0
 40
0.0625
 50
7.0
 51
96.999999999999972
  0
ARC
  5
EB
  8
0
 62
     1
 10
10.768589701238399
 20
21.578854945186968
 30
0.0
 40
0.0625
 50
96.999999999999972
 51
187.0
  0
LINE
  5
EC
  8
0
 62
     4
 10
12.30579739786115
 20
20.132682316970548
 30
0.0
 11
13.279047845345501
 21
20.252182445813482
 31
0.0
  0
LINE
  5
ED
  8
0
 62
     4
 10
12.437636279249769
 20
20.346298827161739
 30
0.0
 11
12.48062238361589
 21
19.996205101615001
 31
0.0
  0
LINE
  5
EE
  8
0
 62
     4
 10
13.099446631100269
 20
20.4275589206147
 30
0.0
 11
13.142432735466389
 21
20.077465195067969
 31
0.0
  0
LINE
  5
EF
  8
0
 62
     4
 10
12.66401496021933
 20
17.215234392540928
 30
0.0
 11
13.63726540770368
 21
17.334734521383851
 31
0.0
  0
LINE
  5
F0
  8
0
 62
     4
 10
12.795853841607959
 20
17.428850902732101
 30
0.0
 11
12.83883994597408
 21
17.07875717718537
 31
0.0
  0
LINE
  5
F1
  8
0
 62
     4
 10
13.45766419345845
 20
17.51011099618507
 30
0.0
 11
13.500650297824579
 21
17.160017270638331
 31
0.0
  0
LINE
  5
F2
  8
0
 62
     3
 10
17.385574338310182
 20
12.55912856014003
 30
0.0
 11
17.32643738462308
 21
13.040760397662851
 31
0.0
  0
LINE
  5
F3
  8
0
 62
     3
 10
17.32643738462308
 20
13.040760397662851
 30
0.0
 11
19.123484328423991
 21
13.261410017579349
 31
0.0
  0
LINE
  5
F4
  8
0
 62
     3
 10
19.123484328423991
 20
13.261410017579349
 30
0.0
 11
19.062188105217299
 21
13.760627694101069
 31
0.0
  0
LINE
  5
F5
  8
0
 62
     3
 10
17.385574338310182
 20
12.55912856014003
 30
0.0
 11
13.16801369704153
 21
9.5367297477645554
 31
0.0
  0
TEXT
  5
F6
  8
0
 10
5.7728216965109516
 20
2.321140763407711
 30
0.0
 40
0.875
  1
EAVE STRUT TO RIGID FRAME
  0
ENDBLK
  5
D6
999
C:\MBS\DXF\J24.DXF
  0
BLOCK
  8
0
  2
J24
 70
     0
 10
0.0
 20
0.0
 30
0.0
  3
J24
  1

  0
CIRCLE
  5
107
  8
0
 10
2.4719999999999991
 20
2.7530000000000001
 30
0.0
 40
2.0
  0
CIRCLE
  5
108
  8
0
 10
2.4719999999999991
 20
2.7530000000000001
 30
0.0
 40
1.929999999999999
  0
TEXT
  5
109
  8
0
 62
     7
 10
0.8053333333333334
 20
2.1280000000000001
 30
0.0
 40
1.25
  1
J24
 72
     1
 11
2.4719999999999991
 21
2.7530000000000001
 31
0.0
 73
     2
  0
TEXT
  5
10A
  8
0
 62
     7
 10
6.7663394788154534
 20
2.289291993342359
 30
0.0
 40
1.0
  1
EAVE STRUT TO RIGID FRAME
  0
TEXT
  5
10B
  8
0
 10
4.4535270393178052
 20
10.02669769650694
 30
0.0
 40
0.6666666666666666
  1
SECTION
  0
TEXT
  5
10C
  8
0
 10
22.436823875304128
 20
10.02669769650694
 30
0.0
 40
0.6666666666666666
  1
ELEVATION
  0
LINE
  5
10D
  8
0
 62
     6
 10
7.8554257941561971
 20
13.14053172269365
 30
0.0
 11
7.8554257941561971
 21
22.258483543040121
 31
0.0
  0
LINE
  5
10E
  8
0
 62
     6
 10
7.8554257941561971
 20
22.258483543040128
 30
0.0
 11
8.2802280684925549
 21
22.258483543040128
 31
0.0
  0
LINE
  5
10F
  8
0
 62
     6
 10
8.2802280684925549
 20
22.258483543040128
 30
0.0
 11
8.2802280684925549
 21
13.398231440794881
 31
0.0
  0
LINE
  5
110
  8
0
 62
     2
 10
12.88459125462543
 20
22.918597917585078
 30
0.0
 11
3.1811482875122219
 21
21.727164933621712
 31
0.0
  0
LINE
  5
111
  8
0
 62
     2
 10
3.1811482875122219
 20
21.727164933621712
 30
0.0
 11
3.1293779132618371
 21
22.148800796222741
 31
0.0
  0
LINE
  5
112
  8
0
 62
     2
 10
3.1293779132618371
 20
22.148800796222741
 30
0.0
 11
12.854858317088681
 21
23.342939637176421
 31
0.0
  0
LINE
  5
113
  8
0
 62
     6
 10
8.2802280684925549
 20
17.222461742494389
 30
0.0
 11
12.25834807942085
 21
17.222461742494389
 31
0.0
  0
LINE
  5
114
  8
0
 62
     6
 10
8.2802280684925549
 20
17.035646456669689
 30
0.0
 11
12.105689953914681
 21
17.035646456669699
 31
0.0
  0
LINE
  5
115
  8
0
 62
     6
 10
7.8554257941561971
 20
13.14053172269365
 30
0.0
 11
10.013841227786941
 21
14.44990100434581
 31
0.0
  0
LINE
  5
116
  8
0
 62
     6
 10
10.013841227786941
 20
14.44990100434581
 30
0.0
 11
11.53950618330072
 21
15.54668706529913
 31
0.0
  0
LINE
  5
117
  8
0
 62
     6
 10
11.53950618330072
 20
15.54668706529913
 30
0.0
 11
11.4197714511236
 21
16.196254116913881
 31
0.0
  0
LINE
  5
118
  8
0
 62
     6
 10
11.4197714511236
 20
16.196254116913881
 30
0.0
 11
12.25834807942085
 21
17.222461742494389
 31
0.0
  0
LINE
  5
119
  8
0
 62
     6
 10
12.25834807942085
 20
17.222461742494389
 30
0.0
 11
12.552664711266271
 21
18.35578344382909
 31
0.0
  0
LINE
  5
11A
  8
0
 62
     6
 10
12.552664711266271
 20
18.35578344382909
 30
0.0
 11
12.885761070521511
 21
19.378962529682209
 31
0.0
  0
LINE
  5
11B
  8
0
 62
     6
 10
12.885761070521511
 20
19.378962529682209
 30
0.0
 11
12.31126597866427
 21
20.275054727549879
 31
0.0
  0
LINE
  5
11C
  8
0
 62
     6
 10
12.31126597866427
 20
20.275054727549879
 30
0.0
 11
12.7948867108346
 21
21.8541981899665
 31
0.0
  0
LINE
  5
11D
  8
0
 62
     6
 10
12.7948867108346
 20
21.8541981899665
 30
0.0
 11
12.88998652351893
 21
22.841597867485849
 31
0.0
  0
LINE
  5
11E
  8
0
 62
     6
 10
12.88998652351893
 20
22.841597867485849
 30
0.0
 11
12.854858317088681
 21
23.342939637176421
 31
0.0
  0
LINE
  5
11F
  8
0
 62
     3
 10
3.0415730576320712
 20
22.23693449933215
 30
0.0
 11
6.6957506183699413
 21
22.685611086588601
 31
0.0
  0
LINE
  5
120
  8
0
 62
     3
 10
6.6957506183699413
 20
22.685611086588601
 30
0.0
 11
6.6957506183699413
 21
23.39330067639149
 31
0.0
  0
LINE
  5
121
  8
0
 62
     3
 10
3.0415730576320712
 20
22.23693449933215
 30
0.0
 11
3.0415730576320712
 21
28.323064633744998
 31
0.0
  0
LINE
  5
122
  8
0
 62
     3
 10
3.0415730576320712
 20
28.323064633744998
 30
0.0
 11
5.7119335632030577
 21
28.650943675874
 31
0.0
  0
LINE
  5
123
  8
0
 62
     3
 10
5.7119335632030577
 20
28.650943675874
 30
0.0
 11
5.7119335632030577
 21
28.037612810675508
 31
0.0
  0
LINE
  5
124
  8
0
  6
DASHED
 62
     2
 10
6.2492179834361492
 20
28.716913907492291
 30
0.0
 11
12.8117289830109
 21
29.52268893899555
 31
0.0
  0
LINE
  5
125
  8
0
 62
     4
 10
4.2776590828878787
 20
22.826253209280051
 30
0.0
 11
4.4470765489366917
 21
21.446458674828911
 31
0.0
  0
LINE
  5
126
  8
0
 62
     4
 10
4.186190046541526
 20
21.57010956203467
 30
0.0
 11
4.6702997502284136
 21
21.6295507594307
 31
0.0
  0
LINE
  5
127
  8
0
 62
     4
 10
4.054435881596155
 20
22.643161124678262
 30
0.0
 11
4.5385455852830461
 21
22.702602322074291
 31
0.0
  0
LINE
  5
128
  8
0
 62
     4
 10
5.8081702054521278
 20
23.03639487386361
 30
0.0
 11
5.9775876715009399
 21
21.656600339412471
 31
0.0
  0
LINE
  5
129
  8
0
 62
     4
 10
5.7167011691057743
 20
21.78025122661823
 30
0.0
 11
6.2008108727926627
 21
21.83969242401426
 31
0.0
  0
LINE
  5
12A
  8
0
 62
     4
 10
5.584947004160405
 20
22.853302789261821
 30
0.0
 11
6.0690567078472952
 21
22.912743986657851
 31
0.0
  0
LINE
  5
12B
  8
0
 62
     3
 10
19.368891039648791
 20
28.650943675874
 30
0.0
 11
32.482146311065833
 21
28.650943675874
 31
0.0
  0
LINE
  5
12C
  8
0
  6
DASHED
 62
     3
 10
19.368891039648791
 20
28.037612810675508
 30
0.0
 11
32.406838750094238
 21
28.037612810675508
 31
0.0
  0
LINE
  5
12D
  8
0
  6
DASHED
 62
     3
 10
19.368891039648791
 20
23.39330067639149
 30
0.0
 11
31.836588923990139
 21
23.39330067639149
 31
0.0
  0
LINE
  5
12E
  8
0
 62
     3
 10
19.368891039648791
 20
22.236934499332161
 30
0.0
 11
31.694605010696929
 21
22.23693449933215
 31
0.0
  0
LINE
  5
12F
  8
0
 62
     2
 10
23.80562161351634
 20
21.727164933621712
 30
0.0
 11
27.988215874831042
 21
21.727164933621719
 31
0.0
  0
LINE
  5
130
  8
0
 62
     2
 10
23.80562161351634
 20
22.148800796222741
 30
0.0
 11
27.988215874831042
 21
22.148800796222741
 31
0.0
  0
LINE
  5
131
  8
0
 62
     3
 10
19.368891039648791
 20
28.650943675874
 30
0.0
 11
19.368891039648791
 21
22.236934499332161
 31
0.0
  0
LINE
  5
132
  8
0
 62
     3
 10
32.584039945672167
 20
29.480800734913441
 30
0.0
 11
31.549028851611379
 21
21.051311828085499
 31
0.0
  0
LINE
  5
133
  8
0
 62
     2
 10
23.80562161351634
 20
22.148800796222741
 30
0.0
 11
23.80562161351634
 21
21.727164933621712
 31
0.0
  0
LINE
  5
134
  8
0
 62
     2
 10
27.988215874831042
 20
22.148800796222741
 30
0.0
 11
27.988215874831042
 21
21.727164933621712
 31
0.0
  0
LINE
  5
135
  8
0
 62
     4
 10
27.21626056503132
 20
22.677727538998059
 30
0.0
 11
27.21626056503132
 21
21.287570988424111
 31
0.0
  0
LINE
  5
136
  8
0
 62
     4
 10
26.97238792349907
 20
21.442094267417389
 30
0.0
 11
27.460133206563579
 21
21.442094267417389
 31
0.0
  0
LINE
  5
137
  8
0
 62
     4
 10
26.97238792349907
 20
22.523204260004778
 30
0.0
 11
27.460133206563579
 21
22.523204260004778
 31
0.0
  0
LINE
  5
138
  8
0
 62
     4
 10
24.577576923316059
 20
22.677727538998059
 30
0.0
 11
24.577576923316059
 21
21.287570988424111
 31
0.0
  0
LINE
  5
139
  8
0
 62
     4
 10
24.821449564848319
 20
21.442094267417389
 30
0.0
 11
24.333704281783799
 21
21.442094267417389
 31
0.0
  0
LINE
  5
13A
  8
0
 62
     4
 10
24.821449564848319
 20
22.523204260004778
 30
0.0
 11
24.333704281783799
 21
22.523204260004778
 31
0.0
  0
SOLID
  5
13B
  8
0
 10
4.8056815935873951
 20
28.914115092841499
 30
0.0
 11
4.4891731250488291
 21
28.660606052001111
 31
0.0
 12
4.7063538793397779
 22
29.003063296646431
 32
0.0
 13
4.7063538793397779
 23
29.003063296646431
 33
0.0
  0
POLYLINE
  5
13C
  8
0
 66
     1
 10
0.0
 20
0.0
 30
0.0
  0
VERTEX
  5
160
  8
0
 10
4.7560177364635861
 20
28.958589194743968
 30
0.0
  0
VERTEX
  5
161
  8
0
 10
8.0822741614168407
 20
32.672991887086873
 30
0.0
  0
VERTEX
  5
162
  8
0
 10
9.7103980805444721
 20
32.672991887086873
 30
0.0
  0
SEQEND
  5
163
  8
0
  0
TEXT
  5
13D
  8
0
 10
10.96673291693182
 20
32.485847240971097
 30
0.0
 40
0.55
  1
EAVE STRUT
  0
SOLID
  5
13E
  8
0
 10
22.44663596213001
 20
29.038802276053321
 30
0.0
 11
22.592964566842479
 21
28.660606052001111
 31
0.0
 12
22.33188738161105
 22
28.970901311062669
 32
0.0
 13
22.33188738161105
 23
28.970901311062669
 33
0.0
  0
POLYLINE
  5
13F
  8
0
 66
     1
 10
0.0
 20
0.0
 30
0.0
  0
VERTEX
  5
164
  8
0
 10
22.389261671870528
 20
29.004851793557989
 30
0.0
  0
VERTEX
  5
165
  8
0
 10
20.21868796241753
 20
32.672991887086873
 30
0.0
  0
VERTEX
  5
166
  8
0
 10
18.000000192374099
 20
32.672991887086873
 30
0.0
  0
SEQEND
  5
167
  8
0
  0
LINE
  5
140
  8
0
 10
19.368977736241391
 20
21.72762852153592
 30
0.0
 11
19.368977736241391
 21
18.75496284386287
 31
0.0
  0
SOLID
  5
141
  8
0
 10
18.968977736241388
 20
20.307962349366061
 30
0.0
 11
19.368977736241391
 21
20.241295682699391
 31
0.0
 12
18.968977736241388
 22
20.174629016032728
 32
0.0
 13
18.968977736241388
 23
20.174629016032728
 33
0.0
  0
POLYLINE
  5
142
  8
0
 66
     1
 10
0.0
 20
0.0
 30
0.0
  0
VERTEX
  5
168
  8
0
 10
18.968977736241388
 20
20.241295682699391
 30
0.0
  0
VERTEX
  5
169
  8
0
 10
18.115722573339809
 20
20.241295682699391
 30
0.0
  0
SEQEND
  5
16A
  8
0
  0
TEXT
  5
143
  8
0
 10
14.695335641631001
 20
19.970855109394321
 30
0.0
 40
0.55
  1
END OF
  0
TEXT
  5
144
  8
0
 10
14.695335641631001
 20
19.040639961750269
 30
0.0
 40
0.55
  1
BUILDING
  0
SOLID
  5
145
  8
0
 10
27.81468044328356
 20
20.921178525345379
 30
0.0
 11
27.487830202914239
 21
21.161206367094959
 31
0.0
 12
27.87485973031751
 22
21.04015848664082
 32
0.0
 13
27.87485973031751
 23
21.04015848664082
 33
0.0
  0
POLYLINE
  5
146
  8
0
 66
     1
 10
0.0
 20
0.0
 30
0.0
  0
VERTEX
  5
16B
  8
0
 10
27.844770086800541
 20
20.980668505993101
 30
0.0
  0
VERTEX
  5
16C
  8
0
 10
29.306577865426199
 20
20.241295682699391
 30
0.0
  0
VERTEX
  5
16D
  8
0
 10
29.706577865426201
 20
20.241295682699391
 30
0.0
  0
SEQEND
  5
16E
  8
0
  0
TEXT
  5
147
  8
0
 10
30.225845183117372
 20
19.887406919592891
 30
0.0
 40
0.55
  1
BOLTS,
  0
TEXT
  5
148
  8
0
 10
30.225845183117372
 20
18.957191771948839
 30
0.0
 40
0.55
  1
.5"x1.0"
  0
LINE
  5
149
  8
0
 62
     6
 10
23.80562161351634
 20
21.727164933621712
 30
0.0
 11
23.80562161351634
 21
13.43931973858661
 31
0.0
  0
LINE
  5
14A
  8
0
 62
     6
 10
27.988215874831042
 20
21.727164933621712
 30
0.0
 11
27.988215874831042
 21
13.13612141052325
 31
0.0
  0
LINE
  5
14B
  8
0
 62
     6
 10
23.80562161351634
 20
13.43931973858661
 30
0.0
 11
23.889931847286348
 21
13.3786967651304
 31
0.0
  0
LINE
  5
14C
  8
0
 62
     6
 10
23.889931847286348
 20
13.3786967651304
 30
0.0
 11
25.01154231181269
 21
13.116006767687161
 31
0.0
  0
LINE
  5
14D
  8
0
 62
     6
 10
25.01154231181269
 20
13.116006767687161
 30
0.0
 11
26.045555847639321
 21
12.818240695066949
 31
0.0
  0
LINE
  5
14E
  8
0
 62
     6
 10
26.045555847639321
 20
12.818240695066949
 30
0.0
 11
26.92139262862807
 21
13.42316694736108
 31
0.0
  0
LINE
  5
14F
  8
0
 62
     6
 10
26.92139262862807
 20
13.42316694736108
 30
0.0
 11
27.988215874831042
 21
13.13612141052325
 31
0.0
  0
LINE
  5
150
  8
0
  6
DASHED
 62
     2
 10
3.1293779132618371
 20
21.298396633855731
 30
0.0
 11
3.1293779132618371
 21
12.43250250883727
 31
0.0
  0
ENDBLK
  5
106
999
C:\MBS\DXF\K2.DXF
  0
BLOCK
  8
0
  2
K2
 70
    64
 10
0.0
 20
0.0
 30
0.0
  0
TEXT
  8
0
 10
1.222
 20
2.003
 30
0.0
 40
1.5
  1
K2
 72
     4
 11
2.472
 21
2.753
 31
0.0
  0
LINE
  8
0
 10
19.853
 20
22.23
 30
0.0
 11
20.483
 21
22.23
 31
0.0
  0
LINE
  8
0
 10
16.373
 20
17.69
 30
0.0
 11
19.853
 21
22.23
 31
0.0
  0
SOLID
  8
0
 10
16.456
 20
17.626
 30
0.0
 11
16.29
 21
17.754
 31
0.0
 12
15.99
 22
17.19
 32
0.0
 13
15.99
 23
17.19
 33
0.0
  0
LINE
  8
0
 10
9.052
 20
16.637
 30
0.0
 11
8.498
 21
16.637
 31
0.0
  0
LINE
  8
0
 10
14.322
 20
18.076
 30
0.0
 11
9.052
 21
16.637
 31
0.0
  0
SOLID
  8
0
 10
14.295
 20
18.177
 30
0.0
 11
14.35
 21
17.975
 31
0.0
 12
14.93
 22
18.242
 32
0.0
 13
14.93
 23
18.242
 33
0.0
  0
ARC
  8
0
 62
     6
 10
17.83
 20
18.703
 30
0.0
 40
0.1
 50
0.0
 51
90.0
  0
TEXT
  8
0
 10
6.518
 20
2.251
 30
0.0
 40
1.0
  1
WALL GIRT TO DOOR JAMB
  0
TEXT
  8
0
 10
1.718
 20
16.383
 30
0.0
 40
0.7
  1
DOOR JAMB
  0
LINE
  8
0
 10
13.757
 20
9.117
 30
0.0
 11
12.996
 21
9.117
 31
0.0
  0
LINE
  8
0
 10
16.721
 20
11.445
 30
0.0
 11
13.757
 21
9.117
 31
0.0
  0
SOLID
  8
0
 10
16.656
 20
11.527
 30
0.0
 11
16.786
 21
11.362
 31
0.0
 12
17.216
 22
11.834
 32
0.0
 13
17.216
 23
11.834
 33
0.0
  0
TEXT
  8
0
 10
1.718
 20
8.695
 30
0.0
 40
0.7
  1
CONNECTION PLATE
  0
TEXT
  8
0
 10
16.386
 20
7.343
 30
0.0
 40
0.7
  1
WALL GIRT
  0
LINE
  8
0
 10
23.72
 20
7.633
 30
0.0
 11
23.09
 21
7.633
 31
0.0
  0
LINE
  8
0
 10
27.97
 20
10.446
 30
0.0
 11
23.72
 21
7.633
 31
0.0
  0
SOLID
  8
0
 10
27.912
 20
10.533
 30
0.0
 11
28.028
 21
10.358
 31
0.0
 12
28.496
 22
10.793
 32
0.0
 13
28.496
 23
10.793
 33
0.0
  0
LINE
  8
0
 62
     5
 10
18.449
 20
17.862
 30
0.0
 11
15.23
 21
17.862
 31
0.0
  0
TEXT
  8
0
 10
21.298
 20
20.692
 30
0.0
 40
0.7
  1
BY 1.0"
  0
LINE
  8
0
 62
     5
 10
18.449
 20
11.834
 30
0.0
 11
15.23
 21
11.834
 31
0.0
  0
LINE
  8
0
 62
     6
 10
17.93
 20
18.053
 30
0.0
 11
17.93
 21
18.703
 31
0.0
  0
LINE
  8
0
 62
     6
 10
17.83
 20
18.803
 30
0.0
 11
15.03
 21
18.803
 31
0.0
  0
LINE
  8
0
 62
     6
 10
14.93
 20
18.703
 30
0.0
 11
14.93
 21
10.903
 31
0.0
  0
LINE
  8
0
 62
     6
 10
15.03
 20
10.803
 30
0.0
 11
17.83
 21
10.803
 31
0.0
  0
LINE
  8
0
 62
     6
 10
17.93
 20
10.903
 30
0.0
 11
17.93
 21
11.553
 31
0.0
  0
ARC
  8
0
 62
     6
 10
15.03
 20
18.703
 30
0.0
 40
0.1
 50
90.0
 51
180.0
  0
ARC
  8
0
 62
     6
 10
15.03
 20
10.903
 30
0.0
 40
0.1
 50
180.0
 51
270.0
  0
ARC
  8
0
 62
     6
 10
17.83
 20
10.903
 30
0.0
 40
0.1
 50
270.0
 51
0.0
  0
LINE
  8
0
 10
23.72
 20
7.633
 30
0.0
 11
23.1
 21
7.633
 31
0.0
  0
LINE
  8
0
 10
19.853
 20
22.23
 30
0.0
 11
20.413
 21
22.23
 31
0.0
  0
TEXT
  8
0
 10
20.893
 20
21.79
 30
0.0
 40
0.7
  1
BOLT, 0.5"
  0
LINE
  8
0
 62
     4
 10
15.63
 20
12.908
 30
0.0
 11
15.63
 21
12.298
 31
0.0
  0
LINE
  8
0
 62
     4
 10
14.646
 20
12.908
 30
0.0
 11
14.646
 21
12.298
 31
0.0
  0
LINE
  8
0
 62
     4
 10
15.72
 20
17.49
 30
0.0
 11
15.72
 21
16.88
 31
0.0
  0
LINE
  8
0
 62
     4
 10
14.646
 20
17.49
 30
0.0
 11
14.646
 21
16.88
 31
0.0
  0
LINE
  8
0
 62
     4
 10
14.371
 20
12.568
 30
0.0
 11
15.97
 21
12.568
 31
0.0
  0
LINE
  8
0
 62
     4
 10
14.296
 20
17.19
 30
0.0
 11
15.99
 21
17.19
 31
0.0
  0
LINE
  8
0
 62
     3
 10
31.179
 20
18.616
 30
0.0
 11
30.569
 21
10.253
 31
0.0
  0
LINE
  8
0
 62
     3
 10
20.339
 20
18.821
 30
0.0
 11
31.119
 21
18.821
 31
0.0
  0
CIRCLE
  8
0
 62
     4
 10
19.339
 20
17.129
 30
0.0
 40
0.25
  0
LINE
  8
1
  6
CONTINUOUS
 62
     3
 10
18.449
 20
18.821
 30
0.0
 11
20.339
 21
18.821
 31
0.0
  0
LINE
  8
1
  6
CONTINUOUS
 62
     3
 10
18.459
 20
18.341
 30
0.0
 11
31.079
 21
18.341
 31
0.0
  0
LINE
  8
1
  6
CONTINUOUS
 62
     3
 10
18.449
 20
18.821
 30
0.0
 11
18.449
 21
11.293
 31
0.0
  0
LINE
  8
0
 62
     3
 10
18.449
 20
11.293
 30
0.0
 11
18.449
 21
10.793
 31
0.0
  0
LINE
  8
0
 62
     3
 10
18.449
 20
10.793
 30
0.0
 11
30.609
 21
10.793
 31
0.0
  0
CIRCLE
  8
0
 62
     4
 10
19.339
 20
12.584
 30
0.0
 40
0.25
  0
LINE
  8
0
  6
HIDDEN
 62
     3
 10
18.449
 20
11.293
 30
0.0
 11
30.649
 21
11.293
 31
0.0
  0
LINE
  8
0
  6
HIDDEN
 62
     5
 10
20.358
 20
11.834
 30
0.0
 11
20.351
 21
17.862
 31
0.0
  0
LINE
  8
1
  6
HIDDEN
 62
     5
 10
18.449
 20
11.834
 30
0.0
 11
20.358
 21
11.834
 31
0.0
  0
LINE
  8
0
 62
     5
 10
15.23
 20
17.862
 30
0.0
 11
15.23
 21
11.834
 31
0.0
  0
LINE
  8
0
 62
     5
 10
15.43
 20
17.862
 30
0.0
 11
15.43
 21
11.833
 31
0.0
  0
LINE
  8
0
  6
HIDDEN
 62
     5
 10
20.351
 20
17.862
 30
0.0
 11
18.449
 21
17.862
 31
0.0
  0
CIRCLE
  8
0
 10
2.472
 20
2.753
 30
0.0
 40
1.93
  0
CIRCLE
  8
0
 10
2.472
 20
2.753
 30
0.0
 40
2.0
  0
ENDBLK
  8
0
999
C:\MBS\DXF\L6.DXF
  0
BLOCK
  8
0
 62
     4
  2
L6
 70
    64
 10
0.0
 20
0.0
 30
0.0
  0
LINE
  8
0
 62
     4
 10
23.28
 20
12.07
 30
0.0
 11
23.28
 21
12.52
 31
0.0
  0
LINE
  8
0
 62
     4
 10
24.88
 20
16.89
 30
0.0
 11
25.33
 21
16.89
 31
0.0
  0
CIRCLE
  8
0
 62
     4
 10
11.31
 20
12.46
 30
0.0
 40
0.21
  0
CIRCLE
  8
0
 62
     4
 10
7.82
 20
12.46
 30
0.0
 40
0.21
  0
LINE
  8
0
 62
     4
 10
11.08
 20
16.81
 30
0.0
 11
11.54
 21
16.81
 31
0.0
  0
LINE
  8
0
 62
     4
 10
7.52
 20
16.83
 30
0.0
 11
7.97
 21
16.83
 31
0.0
  0
TEXT
  8
0
 62
     7
 10
14.08
 20
5.23
 30
0.0
 40
0.75
  1
BOLT, 0.5" x 1.5"
 72
     1
 11
19.14
 21
5.23
 31
0.0
  0
TEXT
  8
0
 62
     7
 10
1.06
 20
1.53
 30
0.0
 40
1.6
  1
L6
 72
     4
 11
2.39
 21
2.33
 31
0.0
  0
LINE
  8
0
 62
     7
 10
15.35
 20
24.91
 30
0.0
 11
15.49
 21
24.91
 31
0.0
  0
LINE
  8
0
 62
     7
 10
16.18
 20
18.77
 30
0.0
 11
15.55
 21
18.77
 31
0.0
  0
LINE
  8
0
 62
     7
 10
23.91
 20
16.66
 30
0.0
 11
16.18
 21
18.77
 31
0.0
  0
SOLID
  8
0
 62
     7
 10
23.94
 20
16.76
 30
0.0
 11
23.89
 21
16.56
 31
0.0
 12
24.52
 22
16.5
 32
0.0
 13
24.52
 23
16.5
 33
0.0
  0
LINE
  8
0
 62
     7
 10
10.94
 20
19.77
 30
0.0
 11
11.66
 21
19.77
 31
0.0
  0
LINE
  8
0
 62
     7
 10
8.37
 20
17.1
 30
0.0
 11
10.94
 21
19.77
 31
0.0
  0
SOLID
  8
0
 62
     7
 10
8.45
 20
17.01
 30
0.0
 11
8.28
 21
17.18
 31
0.0
 12
7.87
 22
16.58
 32
0.0
 13
7.87
 23
16.58
 33
0.0
  0
TEXT
  8
0
 62
     7
 10
11.91
 20
18.36
 30
0.0
 40
0.7
  1
PLATE
  0
TEXT
  8
0
 62
     7
 10
11.91
 20
19.53
 30
0.0
 40
0.7
  1
CONNECTION
  0
LINE
  8
0
 62
     4
 10
24.31
 20
12.29
 30
0.0
 11
23.02
 21
12.29
 31
0.0
  0
LINE
  8
0
 62
     4
 10
24.09
 20
12.07
 30
0.0
 11
24.09
 21
12.52
 31
0.0
  0
LINE
  8
0
 62
     4
 10
24.88
 20
16.05
 30
0.0
 11
25.33
 21
16.05
 31
0.0
  0
LINE
  8
0
 62
     4
 10
25.16
 20
15.83
 30
0.0
 11
25.16
 21
17.08
 31
0.0
  0
LINE
  8
0
 62
     5
 10
23.69
 20
13.36
 30
0.0
 11
23.69
 21
16.44
 31
0.0
  0
LINE
  8
0
 62
     5
 10
23.98
 20
13.36
 30
0.0
 11
23.98
 21
16.19
 31
0.0
  0
LINE
  8
1
  6
CONTINUOUS
 62
     3
 10
23.98
 20
13.74
 30
0.0
 11
26.45
 21
13.74
 31
0.0
  0
LINE
  8
0
 62
     5
 10
23.69
 20
11.45
 30
0.0
 11
23.98
 21
11.45
 31
0.0
  0
LINE
  8
0
 62
     5
 10
26.45
 20
16.44
 30
0.0
 11
26.45
 21
16.19
 31
0.0
  0
LINE
  8
0
  6
HIDDEN
 62
     5
 10
23.98
 20
11.45
 30
0.0
 11
23.98
 21
13.36
 31
0.0
  0
LINE
  8
0
  6
HIDDEN
 62
     5
 10
23.69
 20
11.45
 30
0.0
 11
23.69
 21
13.36
 31
0.0
  0
LINE
  8
0
 62
    12
 10
13.5
 20
13.36
 30
0.0
 11
12.1
 21
13.36
 31
0.0
  0
LINE
  8
0
 62
     4
 10
11.06
 20
16.19
 30
0.0
 11
11.51
 21
16.19
 31
0.0
  0
LINE
  8
0
 62
     4
 10
11.34
 20
15.98
 30
0.0
 11
11.34
 21
17.0
 31
0.0
  0
LINE
  8
0
 62
     4
 10
7.54
 20
16.19
 30
0.0
 11
7.99
 21
16.19
 31
0.0
  0
LINE
  8
0
 62
     4
 10
7.75
 20
15.98
 30
0.0
 11
7.75
 21
17.0
 31
0.0
  0
LINE
  8
0
 62
    12
 10
23.45
 20
13.36
 30
0.0
 11
26.45
 21
13.36
 31
0.0
  0
LINE
  8
0
  6
HIDDEN
 62
    12
 10
6.99
 20
13.36
 30
0.0
 11
12.1
 21
13.36
 31
0.0
  0
LINE
  8
0
 62
     5
 10
12.1
 20
16.32
 30
0.0
 11
12.1
 21
11.44
 31
0.0
  0
LINE
  8
0
 62
     5
 10
6.99
 20
11.44
 30
0.0
 11
12.1
 21
11.44
 31
0.0
  0
LINE
  8
0
 62
     5
 10
6.99
 20
16.6
 30
0.0
 11
6.99
 21
11.44
 31
0.0
  0
LINE
  8
0
 62
     5
 10
12.1
 20
16.32
 30
0.0
 11
6.94
 21
16.32
 31
0.0
  0
LINE
  8
0
 62
     5
 10
12.1
 20
16.6
 30
0.0
 11
12.1
 21
16.32
 31
0.0
  0
LINE
  8
0
 62
     5
 10
6.99
 20
16.6
 30
0.0
 11
12.1
 21
16.6
 31
0.0
  0
LINE
  8
0
 62
    12
 10
5.51
 20
13.36
 30
0.0
 11
6.99
 21
13.36
 31
0.0
  0
LINE
  8
0
 10
20.99
 20
22.05
 30
0.0
 11
20.26
 21
22.05
 31
0.0
  0
LINE
  8
0
 10
11.99
 20
22.05
 30
0.0
 11
13.05
 21
22.05
 31
0.0
  0
TEXT
  8
0
 10
13.86
 20
21.75
 30
0.0
 40
0.7
  1
WALL GIRT
  0
TEXT
  8
0
 10
16.39
 20
10.41
 30
0.0
 40
0.7
  1
JAMB
  0
TEXT
  8
0
 10
16.39
 20
11.58
 30
0.0
 40
0.7
  1
DOOR
  0
LINE
  8
0
 62
     3
 10
26.45
 20
13.74
 30
0.0
 11
31.62
 21
13.74
 31
0.0
  0
LINE
  8
1
  6
CONTINUOUS
 62
     3
 10
23.45
 20
13.74
 30
0.0
 11
23.69
 21
13.74
 31
0.0
  0
LINE
  8
0
 62
    12
 10
22.78
 20
10.14
 30
0.0
 11
27.16
 21
10.55
 31
0.0
  0
LINE
  8
0
 62
     3
 10
30.77
 20
20.41
 30
0.0
 11
31.7
 21
13.12
 31
0.0
  0
LINE
  8
0
 62
     3
 10
19.33
 20
20.51
 30
0.0
 11
20.09
 21
13.22
 31
0.0
  0
LINE
  8
0
 62
    12
 10
26.45
 20
13.36
 30
0.0
 11
26.45
 21
10.48
 31
0.0
  0
LINE
  8
0
 62
    12
 10
23.45
 20
13.36
 30
0.0
 11
23.45
 21
10.2
 31
0.0
  0
LINE
  8
0
 62
     5
 10
26.45
 20
16.19
 30
0.0
 11
23.98
 21
16.19
 31
0.0
  0
LINE
  8
0
 62
     5
 10
26.45
 20
16.44
 30
0.0
 11
23.69
 21
16.44
 31
0.0
  0
LINE
  8
0
 62
     3
 10
20.04
 20
13.74
 30
0.0
 11
23.45
 21
13.74
 31
0.0
  0
LINE
  8
0
 62
     3
 10
19.73
 20
16.71
 30
0.0
 11
31.24
 21
16.71
 31
0.0
  0
LINE
  8
0
 62
     3
 10
19.41
 20
19.8
 30
0.0
 11
30.85
 21
19.8
 31
0.0
  0
ARC
  8
0
 62
     3
 10
5.63
 20
19.57
 30
0.0
 40
0.13
 50
90.0
 51
180.0
  0
ARC
  8
0
 62
     3
 10
5.63
 20
16.82
 30
0.0
 40
0.13
 50
180.0
 51
270.0
  0
ARC
  8
0
 62
     3
 10
13.38
 20
16.57
 30
0.0
 40
0.13
 50
0.0
 51
90.0
  0
ARC
  8
0
 62
     3
 10
13.38
 20
13.82
 30
0.0
 40
0.13
 50
270.0
 51
0.0
  0
LINE
  8
0
 62
     3
 10
5.63
 20
19.7
 30
0.0
 11
6.26
 21
19.7
 31
0.0
  0
LINE
  8
0
 62
     3
 10
5.51
 20
16.82
 30
0.0
 11
5.51
 21
19.57
 31
0.0
  0
LINE
  8
0
 62
     3
 10
13.38
 20
13.7
 30
0.0
 11
12.76
 21
13.7
 31
0.0
  0
LINE
  8
0
 62
     3
 10
13.51
 20
16.57
 30
0.0
 11
13.51
 21
13.82
 31
0.0
  0
LINE
  8
0
 62
     3
 10
5.63
 20
16.7
 30
0.0
 11
13.38
 21
16.7
 31
0.0
  0
TEXT
  8
0
 10
8.14
 20
1.49
 30
0.0
 40
1.0
  1
DOOR JAMB TO WALL GIRT
  0
LINE
  8
0
 62
    12
 10
4.78
 20
10.86
 30
0.0
 11
13.28
 21
10.34
 31
0.0
  0
LINE
  8
0
 62
    12
 10
5.51
 20
13.36
 30
0.0
 11
5.51
 21
10.82
 31
0.0
  0
LINE
  8
0
 62
    12
 10
6.26
 20
13.36
 30
0.0
 11
6.26
 21
10.78
 31
0.0
  0
LINE
  8
0
 62
    12
 10
12.75
 20
13.36
 30
0.0
 11
12.75
 21
10.43
 31
0.0
  0
LINE
  8
0
 62
    12
 10
13.5
 20
13.36
 30
0.0
 11
13.5
 21
10.39
 31
0.0
  0
TEXT
  8
0
 10
21.86
 20
7.67
 30
0.0
 40
0.7
  1
ELEVATION
  0
TEXT
  8
0
 10
7.64
 20
7.77
 30
0.0
 40
0.7
  1
SECTION
  0
CIRCLE
  8
0
 10
2.39
 20
2.33
 30
0.0
 40
1.93
  0
CIRCLE
  8
0
 10
2.39
 20
2.33
 30
0.0
 40
2.0
  0
SOLID
  8
0
 10
22.8
 20
10.85
 30
0.0
 11
22.8
 21
10.64
 31
0.0
 12
23.45
 22
10.75
 32
0.0
 13
23.45
 23
10.75
 33
0.0
  0
LINE
  8
0
 10
22.8
 20
10.75
 30
0.0
 11
19.28
 21
10.75
 31
0.0
  0
SOLID
  8
0
 10
14.15
 20
11.92
 30
0.0
 11
14.15
 21
12.14
 31
0.0
 12
13.5
 22
12.03
 32
0.0
 13
13.5
 23
12.03
 33
0.0
  0
LINE
  8
0
 10
13.5
 20
12.03
 30
0.0
 11
15.88
 21
12.03
 31
0.0
  0
SOLID
  8
0
 10
6.13
 20
18.94
 30
0.0
 11
6.03
 21
19.13
 31
0.0
 12
5.51
 22
18.74
 32
0.0
 13
5.51
 23
18.74
 33
0.0
  0
LINE
  8
0
 10
6.08
 20
19.04
 30
0.0
 11
11.99
 21
22.05
 31
0.0
  0
SOLID
  8
0
 10
22.55
 20
20.36
 30
0.0
 11
22.38
 21
20.22
 31
0.0
 12
22.88
 22
19.8
 32
0.0
 13
22.88
 23
19.8
 33
0.0
  0
LINE
  8
0
 10
22.47
 20
20.29
 30
0.0
 11
20.99
 21
22.05
 31
0.0
  0
ENDBLK
  8
0
999
C:\MBS\DXF\Q3.DXF
  0
BLOCK
  8
0
  2
Q3
 70
     0
 10
0.0
 20
0.0
 30
0.0
  3
Q3
  1

  0
LINE
  5
11D
  8
0
 10
22.416238101552999
 20
25.48428709059036
 30
0.0
 11
26.426238101553
 21
27.624287090590361
 31
0.0
  0
SOLID
  5
11E
  8
0
 10
22.466238101552999
 20
25.39428709059036
 30
0.0
 11
22.366238101552991
 21
25.584287090590369
 31
0.0
 12
21.846238101552999
 22
25.18428709059036
 32
0.0
 13
21.846238101552999
 23
25.18428709059036
 33
0.0
  0
LINE
  5
11F
  8
0
 10
22.916238101552999
 20
20.154287090590351
 30
0.0
 11
26.426238101553
 21
22.89428709059036
 31
0.0
  0
SOLID
  5
120
  8
0
 10
22.97623810155299
 20
20.07428709059036
 30
0.0
 11
22.846238101552999
 21
20.244287090590351
 31
0.0
 12
22.40623810155299
 22
19.754287090590349
 32
0.0
 13
22.40623810155299
 23
19.754287090590349
 33
0.0
  0
LINE
  5
121
  8
0
 10
24.26623810155299
 20
19.174287090590362
 30
0.0
 11
27.046238101552991
 21
20.224287090590359
 31
0.0
  0
SOLID
  5
122
  8
0
 10
24.306238101552989
 20
19.07428709059036
 30
0.0
 11
24.22623810155299
 21
19.274287090590349
 31
0.0
 12
23.65623810155299
 22
18.944287090590361
 32
0.0
 13
23.65623810155299
 23
18.944287090590361
 33
0.0
  0
LINE
  5
123
  8
0
 10
23.92623810155299
 20
16.814287090590359
 30
0.0
 11
26.606238101552989
 21
14.67428709059036
 31
0.0
  0
SOLID
  5
124
  8
0
 10
23.856238101553
 20
16.724287090590359
 30
0.0
 11
23.99623810155299
 21
16.89428709059036
 31
0.0
 12
23.416238101552992
 22
17.214287090590361
 32
0.0
 13
23.416238101552992
 23
17.214287090590361
 33
0.0
  0
LINE
  5
125
  8
0
 10
21.016238101553
 20
17.534287090590361
 30
0.0
 11
18.426238101553
 21
13.13428709059035
 31
0.0
  0
SOLID
  5
126
  8
0
 10
20.926238101553
 20
17.594287090590349
 30
0.0
 11
21.106238101553
 21
17.48428709059036
 31
0.0
 12
21.346238101552999
 22
18.104287090590361
 32
0.0
 13
21.346238101552999
 23
18.104287090590361
 33
0.0
  0
CIRCLE
  5
127
  8
0
 10
2.390000003326008
 20
2.7699999990531872
 30
0.0
 40
2.0899999999999981
  0
CIRCLE
  5
128
  8
0
 10
2.390000003326008
 20
2.7699999990531872
 30
0.0
 40
2.02
  0
LINE
  5
129
  8
0
 62
     6
 10
21.846238101552999
 20
11.214287090590361
 30
0.0
 11
21.846238101552999
 21
18.414287090590349
 31
0.0
  0
LINE
  5
12A
  8
0
 62
     6
 10
21.346238101552999
 20
11.06428709059035
 30
0.0
 11
21.346238101552999
 21
18.654287090590351
 31
0.0
  0
LINE
  5
12B
  8
0
 62
     6
 10
21.346238101552999
 20
19.274287090590349
 30
0.0
 11
21.346238101552999
 21
27.274287090590359
 31
0.0
  0
LINE
  5
12C
  8
0
 62
     6
 10
21.846238101552999
 20
19.044287090590348
 30
0.0
 11
21.846238101552999
 21
27.39428709059036
 31
0.0
  0
LINE
  5
12D
  8
0
 62
     6
 10
20.056238101552999
 20
10.674287090590351
 30
0.0
 11
21.346238101552999
 21
11.06428709059035
 31
0.0
  0
LINE
  5
12E
  8
0
 62
     6
 10
20.216238101552999
 20
27.00428709059036
 30
0.0
 11
23.246238101553001
 21
27.724287090590359
 31
0.0
  0
LINE
  5
12F
  8
0
 62
     6
 10
21.846238101552999
 20
11.214287090590361
 30
0.0
 11
23.086238101553
 21
11.59428709059036
 31
0.0
  0
LINE
  5
130
  8
0
 62
     6
 10
21.346238101552999
 20
11.06428709059035
 30
0.0
 11
21.846238101552999
 21
11.214287090590361
 31
0.0
  0
LINE
  5
131
  8
0
 62
     6
 10
21.346238101552999
 20
20.154287090590351
 30
0.0
 11
21.846238101552999
 21
20.154287090590351
 31
0.0
  0
LINE
  5
132
  8
0
 62
     6
 10
21.346238101552999
 20
17.904287090590358
 30
0.0
 11
21.846238101552999
 21
17.904287090590358
 31
0.0
  0
TEXT
  5
133
  8
0
 10
27.90623810155299
 20
27.954287090590359
 30
0.0
 40
0.75
  1
COLUMN OR
  0
TEXT
  5
134
  8
0
 10
27.90623810155299
 20
26.704287090590359
 30
0.0
 40
0.75
  1
RAFTER WEB
  0
LINE
  5
135
  8
0
 62
     1
 10
9.2065149436572966
 20
25.011412209317879
 30
0.0
 11
21.846238101552999
 21
19.044287090590348
 31
0.0
  0
LINE
  5
136
  8
0
 62
     1
 10
8.7912316761337426
 20
24.61037181788647
 30
0.0
 11
21.846238101552999
 21
18.414287090590349
 31
0.0
  0
LINE
  5
137
  8
0
 62
     1
 10
24.116238101553002
 20
17.354287090590361
 30
0.0
 11
24.356238101552989
 21
17.864287090590359
 31
0.0
  0
ARC
  5
138
  8
0
 62
    14
 10
21.486238101552999
 20
18.534287090590361
 30
0.0
 40
1.53
 50
283.57999999999998
 51
76.420000000000002
  0
LINE
  5
139
  8
0
  6
DASHED
 62
     1
 10
21.846238101552999
 20
19.044287090590348
 30
0.0
 11
22.956238101553001
 21
18.514287090590361
 31
0.0
  0
LINE
  5
13A
  8
0
 62
     1
 10
22.956238101553001
 20
18.514287090590361
 30
0.0
 11
24.356238101552989
 21
17.864287090590359
 31
0.0
  0
LINE
  5
13B
  8
0
  6
DASHED
 62
     1
 10
21.846238101552999
 20
18.414287090590349
 30
0.0
 11
22.706238101552991
 21
18.014287090590361
 31
0.0
  0
LINE
  5
13C
  8
0
 62
     1
 10
22.706238101552991
 20
18.014287090590361
 30
0.0
 11
24.116238101553002
 21
17.354287090590361
 31
0.0
  0
LINE
  5
13D
  8
0
 62
     5
 10
22.556238101552989
 20
17.284287090590361
 30
0.0
 11
23.396238101552989
 21
19.064287090590351
 31
0.0
  0
LINE
  5
13E
  8
0
 62
     5
 10
23.006238101552999
 20
17.074287090590349
 30
0.0
 11
23.856238101553
 21
18.854287090590361
 31
0.0
  0
LINE
  5
13F
  8
0
 62
     5
 10
23.596238101552999
 20
17.134287090590359
 30
0.0
 11
24.166238101552999
 21
18.354287090590361
 31
0.0
  0
LINE
  5
140
  8
0
 62
     5
 10
22.556238101552989
 20
17.284287090590361
 30
0.0
 11
23.006238101552999
 21
17.074287090590349
 31
0.0
  0
LINE
  5
141
  8
0
 62
     5
 10
23.396238101552989
 20
19.064287090590351
 30
0.0
 11
23.856238101553
 21
18.854287090590361
 31
0.0
  0
LINE
  5
142
  8
0
 62
     5
 10
23.596238101552999
 20
17.134287090590359
 30
0.0
 11
23.136238101552991
 21
17.354287090590361
 31
0.0
  0
LINE
  5
143
  8
0
 62
     5
 10
24.166238101552999
 20
18.354287090590361
 30
0.0
 11
23.716238101552989
 21
18.57428709059036
 31
0.0
  0
LINE
  5
144
  8
0
 62
     5
 10
23.42623810155299
 20
17.964287090590361
 30
0.0
 11
23.886238101553001
 21
17.744287090590358
 31
0.0
  0
LINE
  5
145
  8
0
 10
18.426238101553
 20
13.13428709059035
 30
0.0
 11
17.806238101552999
 21
13.13428709059035
 31
0.0
  0
TEXT
  5
146
  8
0
 10
1.726238101552996
 20
13.954287090590361
 30
0.0
 40
0.75
  1
SLOT IN WEB TO INSERT
  0
TEXT
  5
147
  8
0
 10
1.726238101552996
 20
12.704287090590361
 30
0.0
 40
0.75
  1
HILLSIDE WASHER
  0
TEXT
  5
148
  8
0
 10
1.726238101552996
 20
11.454287090590361
 30
0.0
 40
0.75
  1
AND EYEBOLT
  0
LINE
  5
149
  8
0
 10
17.026238101553002
 20
15.29428709059035
 30
0.0
 11
17.806238101552999
 21
15.29428709059035
 31
0.0
  0
LINE
  5
14A
  8
0
 10
17.806238101552999
 20
15.29428709059035
 30
0.0
 11
17.806238101552999
 21
10.87428709059035
 31
0.0
  0
LINE
  5
14B
  8
0
 10
17.806238101552999
 20
10.87428709059035
 30
0.0
 11
17.026238101553002
 21
10.87428709059035
 31
0.0
  0
LINE
  5
14C
  8
0
 10
26.426238101553
 20
27.624287090590361
 30
0.0
 11
27.046238101552991
 21
27.624287090590361
 31
0.0
  0
TEXT
  5
14D
  8
0
 10
27.826238101552999
 20
23.204287090590359
 30
0.0
 40
0.75
  1
HILLSIDE
  0
TEXT
  5
14E
  8
0
 10
27.826238101552999
 20
21.954287090590348
 30
0.0
 40
0.75
  1
WASHER
  0
LINE
  5
14F
  8
0
 10
26.426238101553
 20
22.89428709059036
 30
0.0
 11
27.126238101552989
 21
22.89428709059036
 31
0.0
  0
LINE
  5
150
  8
0
 10
27.046238101552991
 20
20.224287090590359
 30
0.0
 11
27.666238101552999
 21
20.224287090590359
 31
0.0
  0
TEXT
  5
151
  8
0
 10
28.67623810155299
 20
19.914287090590349
 30
0.0
 40
0.75
  1
FLAT 
  0
TEXT
  5
152
  8
0
 10
28.67623810155299
 20
18.664287090590349
 30
0.0
 40
0.75
  1
WASHER
  0
LINE
  5
153
  8
0
 10
26.586238101553
 20
14.67428709059036
 30
0.0
 11
27.206238101552991
 21
14.67428709059036
 31
0.0
  0
TEXT
  5
154
  8
0
 10
27.826238101552999
 20
14.36428709059035
 30
0.0
 40
0.75
  1
NUT
  0
TEXT
  5
155
  8
0
 10
1.2233333366593411
 20
2.069999999053187
 30
0.0
 40
1.399999999999999
  1
Q3
 72
     4
 11
2.390000003326008
 21
2.7699999990531872
 31
0.0
  0
TEXT
  5
156
  8
0
 10
5.5987231278710441
 20
2.2513356154915432
 30
0.0
 40
1.0
  1
DIAGONAL BRACE ROD, NUT END
  0
LINE
  5
157
  8
0
 62
     1
 10
9.4151880347691517
 20
25.212928486724721
 30
0.0
 11
8.5668718142552915
 21
24.39370677533422
 31
0.0
  0
SOLID
  5
158
  8
0
 10
14.26868125951883
 20
21.64991293945992
 30
0.0
 11
14.3320488154459
 21
21.481435781198549
 31
0.0
 12
14.805796512266509
 22
21.75577702811043
 32
0.0
 13
14.805796512266509
 23
21.75577702811043
 33
0.0
  0
LINE
  5
159
  8
0
 10
14.30036503748237
 20
21.565674360329229
 30
0.0
 11
9.2928030115523423
 21
19.682232296069799
 31
0.0
  0
LINE
  5
15A
  8
0
 10
9.2928030115523423
 20
19.682232296069799
 30
0.0
 11
8.7528030115523414
 21
19.682232296069799
 31
0.0
  0
TEXT
  5
15B
  8
0
 10
1.7330583866433349
 20
19.220074761823241
 30
0.0
 40
0.75
  1
BRACE ROD
 72
     2
 11
8.2330583866433358
 21
19.220074761823241
 31
0.0
  0
ENDBLK
  5
11C
999
C:\MBS\DXF\R10.DXF
  0
BLOCK
  8
0
  2
R10
 70
     0
 10
0.0
 20
0.0
 30
0.0
  3
R10
  1

  0
LINE
  5
8B
  8
0
 10
16.098021590866502
 20
27.619070617532369
 30
0.0
 11
18.931999999999999
 21
28.030025461111919
 31
0.0
  0
TEXT
  5
8C
  8
0
 10
8.0785845127648788
 20
1.4225922702284111
 30
0.0
 40
1.0
  1
AT SIDEWALL COLUMN
 72
     1
 11
16.292870227050582
 21
1.4225922702284111
 31
0.0
  0
TEXT
  5
8D
  8
0
 10
10.55477498895535
 20
3.089258936895078
 30
0.0
 40
1.0
  1
ANCHOR BOLTS
 72
     1
 11
16.292870227050582
 21
3.089258936895078
 31
0.0
  0
TEXT
  5
8E
  8
0
 10
17.17731888476068
 20
29.286760049398161
 30
0.0
 40
0.75
  1
SIDEWALL COLUMN
 72
     1
 11
22.391604599046399
 21
29.286760049398161
 31
0.0
  0
TEXT
  5
8F
  8
0
 10
15.57342857142857
 20
9.8130000000000006
 30
0.0
 40
0.75
  1
BASE PLATE
 72
     1
 11
19.001999999999999
 21
9.8130000000000006
 31
0.0
  0
LINE
  5
90
  8
0
 10
13.992000000000001
 20
13.063000000000001
 30
0.0
 11
18.931999999999999
 21
11.462999999999999
 31
0.0
  0
LINE
  5
91
  8
0
 62
     6
 10
12.782
 20
15.81485810618188
 30
0.0
 11
12.782
 21
27.263615055003559
 31
0.0
  0
LINE
  5
92
  8
0
 62
     6
 10
13.25199999999999
 20
27.263615055003559
 30
0.0
 11
13.25199999999999
 21
15.81485810618188
 31
0.0
  0
LINE
  5
93
  8
0
 62
     5
 10
10.012
 20
13.263
 30
0.0
 11
10.012
 21
29.815473161185441
 31
0.0
  0
LINE
  5
94
  8
0
 62
     5
 10
16.012
 20
29.815473161185441
 30
0.0
 11
16.012
 21
13.263
 31
0.0
  0
LINE
  5
95
  8
0
 10
9.3719999999999999
 20
16.738385775646051
 30
0.0
 11
6.2720000000000002
 21
16.738385775646051
 31
0.0
  0
TEXT
  5
96
  8
0
 10
0.7005714285714288
 20
2.153
 30
0.0
 40
1.1999999999999991
  1
R10
 72
     1
 11
2.4719999999999991
 21
2.7530000000000001
 31
0.0
 73
     2
  0
CIRCLE
  5
97
  8
0
 10
2.4719999999999991
 20
2.7530000000000001
 30
0.0
 40
2.02
  0
CIRCLE
  5
98
  8
0
 10
2.4719999999999991
 20
2.7530000000000001
 30
0.0
 40
2.089999999999999
  0
TEXT
  5
99
  8
0
 10
2.7105714285714289
 20
13.50790759249535
 30
0.0
 40
0.75
  1
BOLTS
 72
     2
 11
6.032
 21
13.50790759249535
 31
0.0
  0
TEXT
  5
9A
  8
0
 10
1.6391428571428559
 20
14.75790759249535
 30
0.0
 40
0.75
  1
ANCHOR
 72
     2
 11
6.032
 21
14.75790759249535
 31
0.0
  0
LINE
  5
9B
  8
0
 62
     6
 10
10.56699999999999
 20
15.81485810618188
 30
0.0
 11
15.457000000000001
 21
15.81485810618188
 31
0.0
  0
LINE
  5
9C
  8
0
 62
     6
 10
15.457000000000001
 20
15.30485810618188
 30
0.0
 11
10.56699999999999
 21
15.30485810618188
 31
0.0
  0
TEXT
  5
9D
  8
0
 10
11.619142857142849
 20
7.2630000000000008
 30
0.0
 40
0.75
  1
PLAN
 72
     1
 11
13.012
 21
7.2630000000000008
 31
0.0
  0
LINE
  5
9E
  8
0
 62
     5
 10
16.012
 20
13.263
 30
0.0
 11
10.009728762516399
 21
13.263
 31
0.0
  0
LINE
  5
9F
  8
0
 10
7.8819999999999997
 20
16.738385775646051
 30
0.0
 11
7.8819999999999988
 21
14.51790759249535
 31
0.0
  0
LINE
  5
A0
  8
0
 10
7.8819999999999988
 20
14.51790759249535
 30
0.0
 11
6.9819999999999993
 21
14.51790759249535
 31
0.0
  0
SOLID
  5
A1
  8
0
 10
7.782
 20
16.088385775646049
 30
0.0
 11
7.9919999999999991
 21
16.088385775646049
 31
0.0
 12
7.8819999999999988
 22
16.738385775646051
 32
0.0
 13
7.8819999999999988
 23
16.738385775646051
 33
0.0
  0
CIRCLE
  5
A2
  8
0
 62
     4
 10
11.33973542097346
 20
14.408452000851909
 30
0.0
 40
0.33
  0
LINE
  5
A3
  8
0
 62
     6
 10
10.56699999999999
 20
15.30485810618188
 30
0.0
 11
10.56699999999999
 21
15.81485810618188
 31
0.0
  0
CIRCLE
  5
A4
  8
0
 62
     4
 10
11.342000000000001
 20
16.676690376840391
 30
0.0
 40
0.33
  0
LINE
  5
A5
  8
0
 62
     6
 10
12.782
 20
13.263
 30
0.0
 11
12.782
 21
15.30485810618188
 31
0.0
  0
LINE
  5
A6
  8
0
 62
     6
 10
13.25199999999999
 20
15.30485810618188
 30
0.0
 11
13.252000000000001
 21
13.263
 31
0.0
  0
SOLID
  5
A7
  8
0
 10
13.962
 20
12.962999999999999
 30
0.0
 11
14.032
 21
13.163
 31
0.0
 12
13.382
 22
13.263
 32
0.0
 13
13.382
 23
13.263
 33
0.0
  0
CIRCLE
  5
A8
  8
0
 62
     4
 10
14.679728762516399
 20
14.401782784345039
 30
0.0
 40
0.33
  0
CIRCLE
  5
A9
  8
0
 62
     4
 10
14.682
 20
16.676690376840391
 30
0.0
 40
0.33
  0
LINE
  5
AA
  8
0
 62
     6
 10
15.457000000000001
 20
15.81485810618188
 30
0.0
 11
15.457000000000001
 21
15.30485810618188
 31
0.0
  0
LINE
  5
AB
  8
0
 62
     6
 10
12.782
 20
27.77361505500356
 30
0.0
 11
12.782
 21
29.815473161185441
 31
0.0
  0
LINE
  5
AC
  8
0
 62
     6
 10
13.25199999999999
 20
29.815473161185441
 30
0.0
 11
13.252000000000001
 21
27.77361505500356
 31
0.0
  0
LINE
  5
AD
  8
0
 62
     6
 10
15.457000000000001
 20
27.77361505500356
 30
0.0
 11
10.56699999999999
 21
27.77361505500356
 31
0.0
  0
LINE
  5
AE
  8
0
 62
     6
 10
10.56699999999999
 20
27.263615055003559
 30
0.0
 11
15.457000000000001
 21
27.263615055003559
 31
0.0
  0
CIRCLE
  5
AF
  8
0
 62
     4
 10
11.342000000000001
 20
26.399124808150301
 30
0.0
 40
0.33
  0
LINE
  5
B0
  8
0
 62
     6
 10
10.56699999999999
 20
27.77361505500356
 30
0.0
 11
10.56699999999999
 21
27.263615055003559
 31
0.0
  0
CIRCLE
  5
B1
  8
0
 62
     4
 10
11.342000000000001
 20
28.676690376840401
 30
0.0
 40
0.33
  0
CIRCLE
  5
B2
  8
0
 62
     4
 10
14.682
 20
26.399124808150301
 30
0.0
 40
0.33
  0
CIRCLE
  5
B3
  8
0
 62
     4
 10
14.682
 20
28.676690376840401
 30
0.0
 40
0.33
  0
SOLID
  5
B4
  8
0
 10
16.11487442823335
 20
27.51750299536522
 30
0.0
 11
16.08452877778771
 21
27.730056850891359
 31
0.0
 12
15.457000000000001
 22
27.518615055003561
 32
0.0
 13
15.457000000000001
 23
27.518615055003561
 33
0.0
  0
LINE
  5
B5
  8
0
 62
     6
 10
15.457000000000001
 20
27.263615055003559
 30
0.0
 11
15.457000000000001
 21
27.77361505500356
 31
0.0
  0
LINE
  5
B6
  8
0
 62
     5
 10
10.012
 20
29.815473161185441
 30
0.0
 11
16.012
 21
29.815473161185441
 31
0.0
  0
LINE
  5
B7
  8
0
  6
HIDDEN
 62
     6
 10
25.222000000000001
 20
13.723000000000001
 30
0.0
 11
25.222000000000001
 21
26.003
 31
0.0
  0
LINE
  5
B8
  8
0
  6
HIDDEN
 62
     6
 10
24.832000000000001
 20
13.723000000000001
 30
0.0
 11
24.832000000000001
 21
25.922999999999998
 31
0.0
  0
LINE
  5
B9
  8
0
 62
     6
 10
27.472000000000001
 20
13.723000000000001
 30
0.0
 11
27.472000000000001
 21
26.512999999999991
 31
0.0
  0
LINE
  5
BA
  8
0
 62
     6
 10
22.652000000000001
 20
13.723000000000001
 30
0.0
 11
22.652000000000001
 21
25.433
 31
0.0
  0
TEXT
  5
BB
  8
0
 10
22.172714285714282
 20
7.2630000000000008
 30
0.0
 40
0.75
  1
ELEVATION
 72
     1
 11
25.012
 21
7.2630000000000008
 31
0.0
  0
LINE
  5
BC
  8
0
 62
     5
 10
28.012
 20
13.723000000000001
 30
0.0
 11
22.032
 21
13.723000000000001
 31
0.0
  0
LINE
  5
BD
  8
0
 62
     5
 10
22.012
 20
13.263
 30
0.0
 11
28.012
 21
13.263
 31
0.0
  0
LINE
  5
BE
  8
0
 10
24.161999999999999
 20
13.073
 30
0.0
 11
18.931999999999999
 21
11.462999999999999
 31
0.0
  0
LINE
  5
BF
  8
0
 10
18.931999999999999
 20
11.462999999999999
 30
0.0
 11
18.931999999999999
 21
10.943
 31
0.0
  0
LINE
  5
C0
  8
0
 62
     5
 10
22.032
 20
13.723000000000001
 30
0.0
 11
22.032
 21
13.313000000000001
 31
0.0
  0
SOLID
  5
C1
  8
0
 10
24.132000000000001
 20
13.173
 30
0.0
 11
24.192
 21
12.973000000000001
 31
0.0
 12
24.782
 22
13.263
 32
0.0
 13
24.782
 23
13.263
 33
0.0
  0
LINE
  5
C2
  8
0
 62
     5
 10
28.012
 20
13.263
 30
0.0
 11
28.012
 21
13.723000000000001
 31
0.0
  0
LINE
  5
C3
  8
0
 62
     6
 10
21.722000000000001
 20
25.222999999999988
 30
0.0
 11
25.992000000000001
 21
26.183
 31
0.0
  0
SOLID
  5
C4
  8
0
 10
23.391999999999989
 20
26.092999999999989
 30
0.0
 11
23.302
 21
25.893000000000001
 31
0.0
 12
23.931999999999999
 22
25.722999999999999
 32
0.0
 13
23.931999999999999
 23
25.722999999999999
 33
0.0
  0
LINE
  5
C5
  8
0
 10
23.341999999999999
 20
25.992999999999999
 30
0.0
 11
18.931999999999999
 21
28.003
 31
0.0
  0
LINE
  5
C6
  8
0
 10
18.931999999999999
 20
28.003
 30
0.0
 11
18.931999999999999
 21
28.513000000000002
 31
0.0
  0
LINE
  5
C7
  8
0
 62
     6
 10
26.382000000000001
 20
25.842999999999989
 30
0.0
 11
26.622
 21
26.323
 31
0.0
  0
LINE
  5
C8
  8
0
 62
     6
 10
26.071999999999999
 20
26.772999999999989
 30
0.0
 11
26.382000000000001
 21
25.842999999999989
 31
0.0
  0
LINE
  5
C9
  8
0
 62
     6
 10
25.992000000000001
 20
26.183
 30
0.0
 11
26.071999999999999
 21
26.772999999999989
 31
0.0
  0
LINE
  5
CA
  8
0
 62
     6
 10
26.622
 20
26.323
 30
0.0
 11
29.102
 21
26.873000000000001
 31
0.0
  0
ENDBLK
  5
8A
  0
ENDSEC
  0
SECTION
  2
ENTITIES
  0
LINE
  8
22
 10
 0.0000000
 20
 0.0000000
 11
420.0000000
 21
 0.0000000
  0
LINE
  8
22
 10
420.0000000
 20
 0.0000000
 11
420.0000000
 21
297.0000000
  0
LINE
  8
22
 10
420.0000000
 20
297.0000000
 11
 0.0000000
 21
297.0000000
  0
LINE
  8
22
 10
 0.0000000
 20
297.0000000
 11
 0.0000000
 21
 0.0000000
  0
LINE
  8
0
 10
259.9800110
 20
 0.0000000
 11
259.9800110
 21
26.6700001
  0
LINE
  8
0
 10
259.9800110
 20
26.6700001
 11
420.0000000
 21
26.6700001
  0
LINE
  8
0
 10
259.9800110
 20
10.1599998
 11
420.0000000
 21
10.1599998
  0
LINE
  8
0
 10
259.9800110
 20
15.2399998
 11
420.0000000
 21
15.2399998
  0
LINE
  8
0
 10
259.9800110
 20
20.3199997
 11
420.0000000
 21
20.3199997
  0
LINE
  8
0
 10
282.8399963
 20
 0.0000000
 11
282.8399963
 21
20.3199997
  0
LINE
  8
0
 10
339.9899902
 20
 0.0000000
 11
339.9899902
 21
20.3199997
  0
LINE
  8
0
 10
339.9899902
 20
 5.0799999
 11
420.0000000
 21
 5.0799999
  0
LINE
  8
0
 10
367.9299927
 20
15.2399998
 11
367.9299927
 21
10.1599998
  0
LINE
  8
0
 10
393.3299866
 20
15.2399998
 11
393.3299866
 21
10.1599998
  0
LINE
  8
0
 10
375.5499878
 20
10.1599998
 11
375.5499878
 21
 5.0799999
  0
TEXT
  8
1
  7
SIMPLEX
 10
262.5199890
 20
16.5100002
 40
 2.5400000
  1
PROJECT
 50
 0.0000000
  0
TEXT
  8
1
  7
SIMPLEX
 10
262.5199890
 20
11.4300003
 40
 2.5400000
  1
ID
 50
 0.0000000
  0
TEXT
  8
1
  7
SIMPLEX
 10
262.5199890
 20
 6.3499999
 40
 2.5400000
  1
PROJECT
 50
 0.0000000
  0
TEXT
  8
1
  7
SIMPLEX
 10
262.5199890
 20
 1.2700000
 40
 2.5400000
  1
ADDRESS
 50
 0.0000000
  0
TEXT
  8
1
  7
SIMPLEX
 10
285.3800049
 20
16.5100002
 40
 2.5400000
  1
Proposed Warehouse
 50
 0.0000000
  0
TEXT
  8
1
  7
SIMPLEX
 10
285.3800049
 20
11.4300003
 40
 2.5400000
  1
C323-153
 50
 0.0000000
  0
TEXT
  8
1
  7
SIMPLEX
 10
285.3800049
 20
 6.3499999
 40
 2.5400000
  1
Proposed Warehouse
 50
 0.0000000
  0
TEXT
  8
1
  7
SIMPLEX
 10
285.3800049
 20
 1.2700000
 40
 2.5400000
  1
 
 50
 0.0000000
  0
TEXT
  8
1
  7
SIMPLEX
 10
294.9049988
 20
21.5900002
 40
 3.8099999
  1
Sivoko Steel Structures Ltd.
 50
 0.0000000
  0
TEXT
  8
1
  7
SIMPLEX
 10
342.5299988
 20
16.5100002
 40
 2.5400000
  1
STRUCTURAL DETAILS
 50
 0.0000000
  0
TEXT
  8
1
  7
SIMPLEX
 10
342.5299988
 20
11.4300003
 40
 2.5400000
  1
DESIGN:
 50
 0.0000000
  0
TEXT
  8
1
  7
SIMPLEX
 10
342.5299988
 20
 6.3499999
 40
 2.5400000
  1
DATE:
 50
 0.0000000
  0
TEXT
  8
1
  7
SIMPLEX
 10
353.9599915
 20
 6.3499999
 40
 2.5400000
  1
23/JUL/202511:23am
 50
 0.0000000
  0
TEXT
  8
1
  7
SIMPLEX
 10
370.4700012
 20
11.4300003
 40
 2.5400000
  1
DRAFT:
 50
 0.0000000
  0
TEXT
  8
1
  7
SIMPLEX
 10
395.8699951
 20
11.4300003
 40
 2.5400000
  1
CHECK:
 50
 0.0000000
  0
TEXT
  8
1
  7
SIMPLEX
 10
378.0899963
 20
 6.3499999
 40
 2.5400000
  1
SHEET
 50
 0.0000000
  0
TEXT
  8
1
  7
SIMPLEX
 10
403.4899902
 20
 6.3499999
 40
 2.5400000
  1
OF
 50
 0.0000000
  0
TEXT
  8
1
  7
SIMPLEX
 10
392.0599976
 20
 6.3499999
 40
 2.5400000
  1
 
 50
 0.0000000
999
FIELD:@PAGE_ID
  0
TEXT
  8
1
  7
SIMPLEX
 10
409.8399963
 20
 6.3499999
 40
 2.5400000
  1
 
 50
 0.0000000
999
FIELD:@PAGE_TOTAL
  0
INSERT
  8
0
  2
A10
 10
 5.0000000
 20
217.0000000
 41
 2.0833001
 42
 2.0833001
 43
 2.0833001
 50
 0.0000000
  0
LINE
  8
24
 10
 5.0000000
 20
217.0000000
 11
80.0000000
 21
217.0000000
  0
LINE
  8
24
 10
80.0000000
 20
217.0000000
 11
80.0000000
 21
292.0000000
  0
LINE
  8
24
 10
80.0000000
 20
292.0000000
 11
 5.0000000
 21
292.0000000
  0
LINE
  8
24
 10
 5.0000000
 20
292.0000000
 11
 5.0000000
 21
217.0000000
  0
INSERT
  8
0
  2
B20
 10
80.0000000
 20
217.0000000
 41
 2.0833001
 42
 2.0833001
 43
 2.0833001
 50
 0.0000000
  0
LINE
  8
24
 10
80.0000000
 20
217.0000000
 11
155.0000000
 21
217.0000000
  0
LINE
  8
24
 10
155.0000000
 20
217.0000000
 11
155.0000000
 21
292.0000000
  0
LINE
  8
24
 10
155.0000000
 20
292.0000000
 11
80.0000000
 21
292.0000000
  0
LINE
  8
24
 10
80.0000000
 20
292.0000000
 11
80.0000000
 21
217.0000000
  0
INSERT
  8
0
  2
C12
 10
155.0000000
 20
217.0000000
 41
 2.0833001
 42
 2.0833001
 43
 2.0833001
 50
 0.0000000
  0
LINE
  8
24
 10
155.0000000
 20
217.0000000
 11
230.0000000
 21
217.0000000
  0
LINE
  8
24
 10
230.0000000
 20
217.0000000
 11
230.0000000
 21
292.0000000
  0
LINE
  8
24
 10
230.0000000
 20
292.0000000
 11
155.0000000
 21
292.0000000
  0
LINE
  8
24
 10
155.0000000
 20
292.0000000
 11
155.0000000
 21
217.0000000
  0
INSERT
  8
0
  2
D27
 10
230.0000000
 20
217.0000000
 41
 2.0833001
 42
 2.0833001
 43
 2.0833001
 50
 0.0000000
  0
LINE
  8
24
 10
230.0000000
 20
217.0000000
 11
305.0000000
 21
217.0000000
  0
LINE
  8
24
 10
305.0000000
 20
217.0000000
 11
305.0000000
 21
292.0000000
  0
LINE
  8
24
 10
305.0000000
 20
292.0000000
 11
230.0000000
 21
292.0000000
  0
LINE
  8
24
 10
230.0000000
 20
292.0000000
 11
230.0000000
 21
217.0000000
  0
INSERT
  8
0
  2
E3
 10
 5.0000000
 20
142.0000000
 41
 2.0833001
 42
 2.0833001
 43
 2.0833001
 50
 0.0000000
  0
LINE
  8
24
 10
 5.0000000
 20
142.0000000
 11
80.0000000
 21
142.0000000
  0
LINE
  8
24
 10
80.0000000
 20
142.0000000
 11
80.0000000
 21
217.0000000
  0
LINE
  8
24
 10
80.0000000
 20
217.0000000
 11
 5.0000000
 21
217.0000000
  0
LINE
  8
24
 10
 5.0000000
 20
217.0000000
 11
 5.0000000
 21
142.0000000
  0
INSERT
  8
0
  2
E6
 10
80.0000000
 20
142.0000000
 41
 2.0833001
 42
 2.0833001
 43
 2.0833001
 50
 0.0000000
  0
LINE
  8
24
 10
80.0000000
 20
142.0000000
 11
155.0000000
 21
142.0000000
  0
LINE
  8
24
 10
155.0000000
 20
142.0000000
 11
155.0000000
 21
217.0000000
  0
LINE
  8
24
 10
155.0000000
 20
217.0000000
 11
80.0000000
 21
217.0000000
  0
LINE
  8
24
 10
80.0000000
 20
217.0000000
 11
80.0000000
 21
142.0000000
  0
INSERT
  8
0
  2
G2
 10
155.0000000
 20
142.0000000
 41
 2.0833001
 42
 2.0833001
 43
 2.0833001
 50
 0.0000000
  0
LINE
  8
24
 10
155.0000000
 20
142.0000000
 11
230.0000000
 21
142.0000000
  0
LINE
  8
24
 10
230.0000000
 20
142.0000000
 11
230.0000000
 21
217.0000000
  0
LINE
  8
24
 10
230.0000000
 20
217.0000000
 11
155.0000000
 21
217.0000000
  0
LINE
  8
24
 10
155.0000000
 20
217.0000000
 11
155.0000000
 21
142.0000000
  0
INSERT
  8
0
  2
H2
 10
230.0000000
 20
142.0000000
 41
 2.0833001
 42
 2.0833001
 43
 2.0833001
 50
 0.0000000
  0
LINE
  8
24
 10
230.0000000
 20
142.0000000
 11
305.0000000
 21
142.0000000
  0
LINE
  8
24
 10
305.0000000
 20
142.0000000
 11
305.0000000
 21
217.0000000
  0
LINE
  8
24
 10
305.0000000
 20
217.0000000
 11
230.0000000
 21
217.0000000
  0
LINE
  8
24
 10
230.0000000
 20
217.0000000
 11
230.0000000
 21
142.0000000
  0
INSERT
  8
0
  2
J16
 10
305.0000000
 20
142.0000000
 41
 2.0833001
 42
 2.0833001
 43
 2.0833001
 50
 0.0000000
  0
LINE
  8
24
 10
305.0000000
 20
142.0000000
 11
380.0000000
 21
142.0000000
  0
LINE
  8
24
 10
380.0000000
 20
142.0000000
 11
380.0000000
 21
217.0000000
  0
LINE
  8
24
 10
380.0000000
 20
217.0000000
 11
305.0000000
 21
217.0000000
  0
LINE
  8
24
 10
305.0000000
 20
217.0000000
 11
305.0000000
 21
142.0000000
  0
INSERT
  8
0
  2
J24
 10
 5.0000000
 20
67.0000000
 41
 2.0833001
 42
 2.0833001
 43
 2.0833001
 50
 0.0000000
  0
LINE
  8
24
 10
 5.0000000
 20
67.0000000
 11
80.0000000
 21
67.0000000
  0
LINE
  8
24
 10
80.0000000
 20
67.0000000
 11
80.0000000
 21
142.0000000
  0
LINE
  8
24
 10
80.0000000
 20
142.0000000
 11
 5.0000000
 21
142.0000000
  0
LINE
  8
24
 10
 5.0000000
 20
142.0000000
 11
 5.0000000
 21
67.0000000
  0
INSERT
  8
0
  2
K2
 10
80.0000000
 20
67.0000000
 41
 2.0833001
 42
 2.0833001
 43
 2.0833001
 50
 0.0000000
  0
LINE
  8
24
 10
80.0000000
 20
67.0000000
 11
155.0000000
 21
67.0000000
  0
LINE
  8
24
 10
155.0000000
 20
67.0000000
 11
155.0000000
 21
142.0000000
  0
LINE
  8
24
 10
155.0000000
 20
142.0000000
 11
80.0000000
 21
142.0000000
  0
LINE
  8
24
 10
80.0000000
 20
142.0000000
 11
80.0000000
 21
67.0000000
  0
INSERT
  8
0
  2
L6
 10
155.0000000
 20
67.0000000
 41
 2.0833001
 42
 2.0833001
 43
 2.0833001
 50
 0.0000000
  0
LINE
  8
24
 10
155.0000000
 20
67.0000000
 11
230.0000000
 21
67.0000000
  0
LINE
  8
24
 10
230.0000000
 20
67.0000000
 11
230.0000000
 21
142.0000000
  0
LINE
  8
24
 10
230.0000000
 20
142.0000000
 11
155.0000000
 21
142.0000000
  0
LINE
  8
24
 10
155.0000000
 20
142.0000000
 11
155.0000000
 21
67.0000000
  0
INSERT
  8
0
  2
Q3
 10
230.0000000
 20
67.0000000
 41
 2.0833001
 42
 2.0833001
 43
 2.0833001
 50
 0.0000000
  0
LINE
  8
24
 10
230.0000000
 20
67.0000000
 11
305.0000000
 21
67.0000000
  0
LINE
  8
24
 10
305.0000000
 20
67.0000000
 11
305.0000000
 21
142.0000000
  0
LINE
  8
24
 10
305.0000000
 20
142.0000000
 11
230.0000000
 21
142.0000000
  0
LINE
  8
24
 10
230.0000000
 20
142.0000000
 11
230.0000000
 21
67.0000000
  0
INSERT
  8
0
  2
R10
 10
305.0000000
 20
67.0000000
 41
 2.0833001
 42
 2.0833001
 43
 2.0833001
 50
 0.0000000
  0
LINE
  8
24
 10
305.0000000
 20
67.0000000
 11
380.0000000
 21
67.0000000
  0
LINE
  8
24
 10
380.0000000
 20
67.0000000
 11
380.0000000
 21
142.0000000
  0
LINE
  8
24
 10
380.0000000
 20
142.0000000
 11
305.0000000
 21
142.0000000
  0
LINE
  8
24
 10
305.0000000
 20
142.0000000
 11
305.0000000
 21
67.0000000
  0
ENDSEC
  0
EOF
