  0
SECTION
  2
HEADER
  9
$ACADVER
  1
AC1009
  9
$EXTMIN
 10
 -3188.750
 20
 -1135.838
  9
$EXTMAX
 10
 25658.750
 20
 20499.787
  9
$LIMMIN
 10
 -3188.750
 20
 -1135.838
  9
$LIMMAX
 10
 25658.750
 20
 20499.787
  9
$FILLMODE
 70
     1
  9
$HANDLING
 70
     0
  0
ENDSEC
  0
SECTION
  2
TABLES
  0
TABLE
  2
LTYPE
 70
1
  0
LTYPE
  2
CONTIN
 70
    64
  3
SOLID LINE
 72
    65
 73
     0
 40
0.0
  0
LTYPE
  2
CONTINUOUS
 70
    64
  3
SOLID LINE
 72
    65
 73
     0
 40
0.0
  0
LTYPE
  2
CENTER
 70
    64
  3
____ _ ____ _ ____ _ ____ _ ____ _ ____ _ ____
 72
    65
 73
     4
 40
    14.313
 49
     8.946
 49
    -1.789
 49
     1.789
 49
    -1.789
  0
LTYPE
  2
DASHED
 70
    64
  3
__ __ __ __ __ __ __ __ __ __ __ __ __ __ __ 
 72
    65
 73
     2
 40
   346.17
 49
   230.78
 49
  -115.39
  0
ENDTAB
  0
TABLE
  2
LAYER
 70
30
  0
LAYER
  2
0
 70
     0
 62
     7
  6
CONTIN
  0
LAYER
  2
1
 70
     0
 62
     7
  6
CONTIN
  0
LAYER
  2
2
 70
     0
 62
     7
  6
CONTIN
  0
LAYER
  2
3
 70
     0
 62
     7
  6
CONTIN
  0
LAYER
  2
4
 70
     0
 62
     5
  6
CONTIN
  0
LAYER
  2
5
 70
     0
 62
     5
  6
DASHED
  0
LAYER
  2
6
 70
     0
 62
     5
  6
DASHED
  0
LAYER
  2
7
 70
     0
 62
     5
  6
CONTIN
  0
LAYER
  2
8
 70
     0
 62
     5
  6
DASHED
  0
LAYER
  2
9
 70
     0
 62
     7
  6
CONTIN
  0
LAYER
  2
10
 70
     0
 62
     7
  6
CONTIN
  0
LAYER
  2
11
 70
     0
 62
     6
  6
DASHED
  0
LAYER
  2
12
 70
     0
 62
     7
  6
DASHED
  0
LAYER
  2
13
 70
     0
 62
     5
  6
DASHED
  0
LAYER
  2
14
 70
     0
 62
     7
  6
CONTIN
  0
LAYER
  2
15
 70
     0
 62
     5
  6
CONTIN
  0
LAYER
  2
16
 70
     0
 62
     7
  6
CONTIN
  0
LAYER
  2
17
 70
     0
 62
     7
  6
CONTIN
  0
LAYER
  2
18
 70
     0
 62
     7
  6
CONTIN
  0
LAYER
  2
19
 70
     0
 62
     7
  6
CONTIN
  0
LAYER
  2
20
 70
     0
 62
     1
  6
CONTIN
  0
LAYER
  2
21
 70
     0
 62
     7
  6
CONTIN
  0
LAYER
  2
22
 70
     0
 62
     7
  6
DASHED
  0
LAYER
  2
23
 70
     0
 62
     7
  6
DASHED
  0
LAYER
  2
24
 70
     0
 62
     7
  6
CONTIN
  0
LAYER
  2
25
 70
     0
 62
     7
  6
CONTIN
  0
LAYER
  2
26
 70
     0
 62
     7
  6
CONTIN
  0
LAYER
  2
27
 70
     0
 62
     1
  6
CENTER
  0
LAYER
  2
28
 70
     0
 62
     7
  6
CONTIN
  0
LAYER
  2
29
 70
     0
 62
     3
  6
DASHED
  0
ENDTAB
  0
TABLE
  2
STYLE
 70
  0
  0
ENDTAB
  0
ENDSEC
  0
SECTION
  2
ENTITIES
  0
LINE
  8
8
 10
     0.000
 20
 10222.851
 11
     0.000
 21
 18392.850
  0
LINE
  8
8
 10
     0.000
 20
 18392.850
 11
 11235.000
 21
 19516.350
  0
LINE
  8
8
 10
 11235.000
 20
 19516.350
 11
 22470.000
 21
 18392.850
  0
LINE
  8
8
 10
 22470.000
 20
 18392.850
 11
 22470.000
 21
 10222.851
  0
LINE
  8
8
 10
     0.000
 20
     0.000
 11
     0.000
 21
  8170.000
  0
LINE
  8
8
 10
     0.000
 20
  8170.000
 11
 11235.000
 21
  9293.500
  0
LINE
  8
8
 10
 11235.000
 20
  9293.500
 11
 22470.000
 21
  8170.000
  0
LINE
  8
8
 10
 22470.000
 20
  8170.000
 11
 22470.000
 21
     0.000
  0
LINE
  8
3
 10
 11310.000
 20
 13802.851
 11
 11485.905
 21
 13904.574
  0
LINE
  8
3
 10
 11310.000
 20
 13802.851
 11
 11486.018
 21
 13701.320
  0
LINE
  8
3
 10
 11486.018
 20
 13701.320
 11
 11485.905
 21
 13904.574
  0
LINE
  8
3
 10
 11310.000
 20
 15802.851
 11
 11485.905
 21
 15904.573
  0
LINE
  8
3
 10
 11310.000
 20
 15802.851
 11
 11486.018
 21
 15701.320
  0
LINE
  8
3
 10
 11486.018
 20
 15701.320
 11
 11485.905
 21
 15904.573
  0
LINE
  8
3
 10
 11310.000
 20
  3580.000
 11
 11485.905
 21
  3681.723
  0
LINE
  8
3
 10
 11310.000
 20
  3580.000
 11
 11486.018
 21
  3478.470
  0
LINE
  8
3
 10
 11486.018
 20
  3478.470
 11
 11485.905
 21
  3681.723
  0
LINE
  8
3
 10
 11310.000
 20
  5780.000
 11
 11485.905
 21
  5881.723
  0
LINE
  8
3
 10
 11310.000
 20
  5780.000
 11
 11486.018
 21
  5678.470
  0
LINE
  8
3
 10
 11486.018
 20
  5678.470
 11
 11485.905
 21
  5881.723
  0
LINE
  8
5
 10
  1562.308
 20
 18549.082
 11
  1582.209
 21
 18350.074
  0
LINE
  8
5
 10
  3124.715
 20
 18705.322
 11
  3144.616
 21
 18506.314
  0
LINE
  8
5
 10
  4687.023
 20
 18861.553
 11
  4706.924
 21
 18662.545
  0
LINE
  8
5
 10
  6249.431
 20
 19017.793
 11
  6269.332
 21
 18818.785
  0
LINE
  8
5
 10
  7811.739
 20
 19174.023
 11
  7831.641
 21
 18975.018
  0
LINE
  8
5
 10
  9374.146
 20
 19330.266
 11
  9394.048
 21
 19131.256
  0
LINE
  8
5
 10
 10936.454
 20
 19486.496
 11
 10956.355
 21
 19287.488
  0
LINE
  8
5
 10
 11533.512
 20
 19486.500
 11
 11513.610
 21
 19287.492
  0
LINE
  8
5
 10
 13095.819
 20
 19330.268
 11
 13075.918
 21
 19131.262
  0
LINE
  8
5
 10
 14658.228
 20
 19174.027
 11
 14638.326
 21
 18975.021
  0
LINE
  8
5
 10
 16220.535
 20
 19017.797
 11
 16200.634
 21
 18818.789
  0
LINE
  8
5
 10
 17782.941
 20
 18861.555
 11
 17763.041
 21
 18662.549
  0
LINE
  8
5
 10
 19345.250
 20
 18705.326
 11
 19325.350
 21
 18506.318
  0
LINE
  8
5
 10
 20907.656
 20
 18549.084
 11
 20887.756
 21
 18350.076
  0
LINE
  8
5
 10
  1562.308
 20
  8326.230
 11
  1582.209
 21
  8127.223
  0
LINE
  8
5
 10
  3124.715
 20
  8482.472
 11
  3144.616
 21
  8283.464
  0
LINE
  8
5
 10
  4687.023
 20
  8638.702
 11
  4706.924
 21
  8439.694
  0
LINE
  8
5
 10
  6249.431
 20
  8794.943
 11
  6269.332
 21
  8595.936
  0
LINE
  8
5
 10
  7811.739
 20
  8951.174
 11
  7831.641
 21
  8752.166
  0
LINE
  8
5
 10
  9374.146
 20
  9107.414
 11
  9394.048
 21
  8908.407
  0
LINE
  8
5
 10
 10936.454
 20
  9263.646
 11
 10956.355
 21
  9064.638
  0
LINE
  8
5
 10
 11533.512
 20
  9263.649
 11
 11513.610
 21
  9064.642
  0
LINE
  8
5
 10
 13095.819
 20
  9107.418
 11
 13075.918
 21
  8908.411
  0
LINE
  8
5
 10
 14658.228
 20
  8951.178
 11
 14638.326
 21
  8752.170
  0
LINE
  8
5
 10
 16220.535
 20
  8794.946
 11
 16200.634
 21
  8595.939
  0
LINE
  8
5
 10
 17782.941
 20
  8638.706
 11
 17763.041
 21
  8439.698
  0
LINE
  8
5
 10
 19345.250
 20
  8482.476
 11
 19325.350
 21
  8283.468
  0
LINE
  8
5
 10
 20907.656
 20
  8326.234
 11
 20887.756
 21
  8127.227
  0
LINE
  8
1
 10
 11160.000
 20
 10238.850
 11
 11310.000
 21
 10238.850
  0
LINE
  8
1
 10
 11310.000
 20
 10238.850
 11
 11310.000
 21
 18736.551
  0
LINE
  8
1
 10
 11310.000
 20
 18736.551
 11
 11235.000
 21
 18736.551
  0
LINE
  8
1
 10
 11235.000
 20
 18736.551
 11
 11160.000
 21
 18736.551
  0
LINE
  8
1
 10
 11160.000
 20
 18736.551
 11
 11160.000
 21
 10238.850
  0
LINE
  8
9
 10
 11135.000
 20
 10222.851
 11
 11335.000
 21
 10222.851
  0
LINE
  8
9
 10
 11135.000
 20
 10238.850
 11
 11335.000
 21
 10238.850
  0
LINE
  8
9
 10
 11135.000
 20
 10238.850
 11
 11135.000
 21
 10222.851
  0
LINE
  8
9
 10
 11335.000
 20
 10222.851
 11
 11335.000
 21
 10238.850
  0
LINE
  8
9
 10
 11285.000
 20
 10218.851
 11
 11285.000
 21
 10242.851
  0
LINE
  8
9
 10
 11185.000
 20
 10218.851
 11
 11185.000
 21
 10242.851
  0
LINE
  8
9
 10
 11135.000
 20
 18736.551
 11
 11335.000
 21
 18736.551
  0
LINE
  8
1
 10
 11135.000
 20
 18752.551
 11
 11335.000
 21
 18752.551
  0
LINE
  8
1
 10
 11135.000
 20
 18752.551
 11
 11135.000
 21
 18736.551
  0
LINE
  8
1
 10
 11335.000
 20
 18736.551
 11
 11335.000
 21
 18752.551
  0
LINE
  8
1
 10
 11285.000
 20
 18732.551
 11
 11285.000
 21
 18756.551
  0
LINE
  8
1
 10
 11185.000
 20
 18732.551
 11
 11185.000
 21
 18756.551
  0
LINE
  8
1
 10
 11235.000
 20
 10238.850
 11
 11235.000
 21
 10238.850
  0
LINE
  8
1
 10
 11160.000
 20
    16.000
 11
 11310.000
 21
    16.000
  0
LINE
  8
1
 10
 11310.000
 20
    16.000
 11
 11310.000
 21
  8513.700
  0
LINE
  8
1
 10
 11310.000
 20
  8513.700
 11
 11235.000
 21
  8513.700
  0
LINE
  8
1
 10
 11235.000
 20
  8513.700
 11
 11160.000
 21
  8513.700
  0
LINE
  8
1
 10
 11160.000
 20
  8513.700
 11
 11160.000
 21
    16.000
  0
LINE
  8
9
 10
 11135.000
 20
     0.000
 11
 11335.000
 21
     0.000
  0
LINE
  8
9
 10
 11135.000
 20
    16.000
 11
 11335.000
 21
    16.000
  0
LINE
  8
9
 10
 11135.000
 20
    16.000
 11
 11135.000
 21
     0.000
  0
LINE
  8
9
 10
 11335.000
 20
     0.000
 11
 11335.000
 21
    16.000
  0
LINE
  8
9
 10
 11285.000
 20
    -4.000
 11
 11285.000
 21
    20.000
  0
LINE
  8
9
 10
 11185.000
 20
    -4.000
 11
 11185.000
 21
    20.000
  0
LINE
  8
9
 10
 11135.000
 20
  8513.700
 11
 11335.000
 21
  8513.700
  0
LINE
  8
1
 10
 11135.000
 20
  8529.700
 11
 11335.000
 21
  8529.700
  0
LINE
  8
1
 10
 11135.000
 20
  8529.700
 11
 11135.000
 21
  8513.700
  0
LINE
  8
1
 10
 11335.000
 20
  8513.700
 11
 11335.000
 21
  8529.700
  0
LINE
  8
1
 10
 11285.000
 20
  8509.700
 11
 11285.000
 21
  8533.701
  0
LINE
  8
1
 10
 11185.000
 20
  8509.700
 11
 11185.000
 21
  8533.701
  0
LINE
  8
1
 10
 11235.000
 20
    16.000
 11
 11235.000
 21
    16.000
  0
TEXT
  8
16
 10
 10991.160
 20
 10070.450
 40
   121.920
  1
EC-1
 50
     0.000
  0
TEXT
  8
16
 10
 10991.160
 20
  -152.400
 40
   121.920
  1
EC-2
 50
     0.000
  0
LINE
  8
0
 10
 -3188.750
 20
 -1135.838
 11
 25658.750
 21
 -1135.838
  0
LINE
  8
0
 10
 25658.750
 20
 -1135.838
 11
 25658.750
 21
 20499.787
  0
LINE
  8
0
 10
 25658.750
 20
 20499.787
 11
 -3188.750
 21
 20499.787
  0
LINE
  8
0
 10
 -3188.750
 20
 20499.787
 11
 -3188.750
 21
 -1135.838
  0
LINE
  8
0
 10
 -3188.750
 20
  -421.862
 11
 25658.750
 21
  -421.862
  0
TEXT
  8
0
 10
  7189.138
 20
 -1016.842
 40
   475.984
  1
Endwall Detailing
 50
     0.000
  0
TEXT
  8
0
 10
 -2950.758
 20
 -1016.842
 40
   475.984
  1
C323-153
 50
     0.000
  0
TEXT
  8
0
 10
 20184.938
 20
 -1016.842
 40
   475.984
  1
23/JUL/2025
 50
     0.000
  0
ENDSEC
  0
EOF
