999
SOURCE:MBS   PROGRAM:EWSWDWG   CELL:EwDwg-R   CLASS:ELEVATION   MODE:
  0
SECTION
  2
HEADER
  9
$ACADVER
  1
AC1009
  9
$EXTMIN
 10
0.00000000
 20
0.00000000
  9
$EXTMAX
 10
45977.9805
 20
32513.0020
  9
$LIMMIN
 10
0.00000000
 20
0.00000000
  9
$LIMMAX
 10
45977.9805
 20
32513.0020
  9
$FILLMODE
 70
     1
  9
$HANDLING
 70
     0
  0
ENDSEC
  0
SECTION
  2
TABLES
  0
TABLE
  2
LTYPE
 70
4
  0
LTYPE
  2
CONTIN
 70
   64
  3
SOLID LINE
  72
   65
 73
    0
 40
 0.000
  0
LTYPE
  2
CENTER
 70
   64
  3
____ _ ____ _ _
  72
   65
 73
    4
 40
2780.6
 49
1737.9
 49
-347.6
 49
347.57
 49
-347.6
  0
LTYPE
  2
DASHED
 70
   64
  3
__ __ __ __ __
  72
   65
 73
    2
 40
521.36
 49
347.57
 49
-172.4
  0
LTYPE
  2
CONTINUOUS
 70
   64
  3
SOLID LINE
  72
   65
 73
    0
 40
 0.000
  0
ENDTAB
  0
TABLE
  2
LAYER
 70
27
  0
LAYER
  2
0
 70
     0
 62
     7
  6
CONTIN
  0
LAYER
  2
1
 70
     0
 62
     7
  6
CONTIN
  0
LAYER
  2
2
 70
     0
 62
     6
  6
CONTIN
  0
LAYER
  2
3
 70
     0
 62
     7
  6
CONTIN
  0
LAYER
  2
4
 70
     0
 62
     7
  6
CONTIN
  0
LAYER
  2
5
 70
     0
 62
     5
  6
DASHED
  0
LAYER
  2
6
 70
     0
 62
     6
  6
CONTIN
  0
LAYER
  2
7
 70
     0
 62
     7
  6
CONTIN
  0
LAYER
  2
8
 70
     0
 62
     8
  6
DASHED
  0
LAYER
  2
9
 70
     0
 62
     9
  6
DASHED
  0
LAYER
  2
10
 70
     0
 62
    10
  6
CONTIN
  0
LAYER
  2
11
 70
     0
 62
     7
  6
CONTIN
  0
LAYER
  2
12
 70
     0
 62
     6
  6
CONTIN
  0
LAYER
  2
13
 70
     0
 62
     1
  6
CONTIN
  0
LAYER
  2
14
 70
     0
 62
     7
  6
CONTIN
  0
LAYER
  2
15
 70
     0
 62
     7
  6
CONTIN
  0
LAYER
  2
16
 70
     0
 62
     7
  6
CONTIN
  0
LAYER
  2
17
 70
     0
 62
     5
  6
CONTIN
  0
LAYER
  2
18
 70
     0
 62
     7
  6
CONTIN
  0
LAYER
  2
19
 70
     0
 62
     7
  6
CONTIN
  0
LAYER
  2
20
 70
     0
 62
     7
  6
CONTIN
  0
LAYER
  2
21
 70
     0
 62
     7
  6
CONTIN
  0
LAYER
  2
22
 70
     0
 62
     7
  6
CONTIN
  0
LAYER
  2
23
 70
     0
 62
     7
  6
DASHED
  0
LAYER
  2
24
 70
     0
 62
     7
  6
CONTIN
  0
LAYER
  2
25
 70
     0
 62
     7
  6
CONTIN
  0
LAYER
  2
26
 70
     0
 62
     7
  6
CONTIN
  0
LAYER
  2
27
 70
     0
 62
     1
  6
CENTER
  0
ENDTAB
  0
TABLE
  2
STYLE
 70
  0
  0
STYLE
  2
SIMPLEX
 70
  0
 40
  0.000
 41
  1.000
 42
  1.000
 50
  0.000
 71
  0
  3
SIMPLEX
  0
STYLE
  2
ROMANS
 70
  0
 40
  0.000
 41
  1.000
 42
  1.000
 50
  0.000
 71
  0
  3
ROMANS
  0
STYLE
  2
OPEN
 70
  0
 40
  0.000
 41
  1.000
 42
  1.000
 50
  0.000
 71
  0
  3
SIMPLEX
  0
STYLE
  2
ARIAL
 70
  0
 40
  0.000
 41
  1.000
 42
  1.000
 50
  0.000
 71
  0
  3
ARIAL.TTF
  0
STYLE
  2
VERDANAB
 70
  0
 40
  0.000
 41
  1.000
 42
  1.000
 50
  0.000
 71
  0
  3
VERDANAB.TTF
  0
ENDTAB
  0
ENDSEC
  0
SECTION
  2
BLOCKS
  0
BLOCK
  8
0
  2
ARROWP
 70
     0
 10
0.00000000
 20
0.00000000
  0
LINE
  8
0
 10
0.00000000
 20
0.00000000
 11
-198.81097
 21
-33.135162
  0
LINE
  8
0
 10
0.00000000
 20
0.00000000
 11
-198.81097
 21
33.1351624
  0
LINE
  8
0
 10
-198.81097
 20
33.1351624
 11
-198.81097
 21
-33.135162
  0
ENDBLK
  8
0
  0
BLOCK
  8
0
  2
ARROW
 70
     0
 10
0.00000000
 20
0.00000000
  0
LINE
  8
0
 10
0.00000000
 20
0.00000000
 11
-198.81097
 21
-33.135162
  0
LINE
  8
0
 10
0.00000000
 20
0.00000000
 11
-198.81097
 21
33.1351624
  0
LINE
  8
0
 10
-198.81097
 20
33.1351624
 11
-198.81097
 21
-33.135162
  0
ENDBLK
  8
0
  0
BLOCK
  8
0
  2
MARKER
 70
     0
 10
0.00000000
 20
0.00000000
  0
LINE
  8
0
 10
0.00000000
 20
0.00000000
 11
25.3999996
 21
25.3999996
  0
LINE
  8
0
 10
25.3999996
 20
25.3999996
 11
-25.400000
 21
25.3999996
  0
LINE
  8
0
 10
-25.400000
 20
25.3999996
 11
0.00000000
 21
0.00000000
  0
ENDBLK
  8
0
  0
BLOCK
  8
0
  2
FLGCLP
 70
     0
 10
0.00000000
 20
0.00000000
  0
LINE
  8
0
 10
0.00000000
 20
0.00000000
 11
25.3999996
 21
25.3999996
  0
LINE
  8
0
 10
25.3999996
 20
25.3999996
 11
-25.400000
 21
25.3999996
  0
LINE
  8
0
 10
-25.400000
 20
25.3999996
 11
0.00000000
 21
0.00000000
  0
LINE
  8
0
 10
-8.4666672
 20
8.46666716
 11
8.46666716
 21
8.46666716
  0
LINE
  8
0
 10
-8.4666672
 20
8.46666716
 11
-8.4666672
 21
25.3999996
  0
LINE
  8
0
 10
8.46666716
 20
8.46666716
 11
8.46666716
 21
25.3999996
  0
ENDBLK
  8
0
  0
BLOCK
  8
0
  2
DIAMOND
 70
     0
 10
0.00000000
 20
0.00000000
  0
LINE
  8
0
 10
0.00000000
 20
0.00000000
 11
12.6999998
 21
12.6999998
  0
LINE
  8
0
 10
12.6999998
 20
12.6999998
 11
0.00000000
 21
25.3999996
  0
LINE
  8
0
 10
0.00000000
 20
25.3999996
 11
-12.700000
 21
12.6999998
  0
LINE
  8
0
 10
-12.700000
 20
12.6999998
 11
0.00000000
 21
0.00000000
  0
ENDBLK
  8
0
  0
BLOCK
  8
0
  2
SHIELD
 70
     0
 10
0.00000000
 20
0.00000000
  0
ARC
  8
0
 10
0.00000000
 20
38.0999985
 40
12.6999998
 50
   0.000
 51
 180.000
  0
LINE
  8
0
 10
-12.700000
 20
38.0999985
 11
-12.700000
 21
12.6999998
  0
LINE
  8
0
 10
-12.700000
 20
12.6999998
 11
0.00000000
 21
0.00000000
  0
LINE
  8
0
 10
0.00000000
 20
0.00000000
 11
12.6999998
 21
12.6999998
  0
LINE
  8
0
 10
12.6999998
 20
12.6999998
 11
12.6999998
 21
38.0999985
  0
ENDBLK
  8
0
  0
BLOCK
  8
0
  2
FINFLR
 70
     0
 10
0.00000000
 20
0.00000000
  0
LINE
  8
0
 10
0.00000000
 20
0.00000000
 11
12.6999998
 21
25.3999996
  0
LINE
  8
0
 10
12.6999998
 20
25.3999996
 11
-12.700000
 21
25.3999996
  0
LINE
  8
0
 10
-12.700000
 20
25.3999996
 11
0.00000000
 21
0.00000000
  0
LINE
  8
0
 10
0.00000000
 20
0.00000000
 11
0.00000000
 21
25.3999996
  0
SOLID
  8
0
 10
0.00000000
 20
0.00000000
 11
0.00000000
 21
25.3999996
 12
-12.700000
 22
25.3999996
 13
-12.700000
 23
25.3999996
  0
ENDBLK
  8
0
  0
BLOCK
  8
0
  2
CIRCLE
 70
     0
 10
0.00000000
 20
0.00000000
  0
CIRCLE
  8
1
 10
   0.000
 20
   0.000
 40
  25.400
  0
ENDBLK
  8
0
  0
BLOCK
  8
0
  2
HEXAGON
 70
     0
 10
0.00000000
 20
0.00000000
  0
LINE
  8
0
 10
0.00000000
 20
0.00000000
 11
7.62000084
 21
-10.160000
  0
LINE
  8
0
 10
7.62000084
 20
-10.160000
 11
17.7799988
 21
-10.160000
  0
LINE
  8
0
 10
17.7799988
 20
-10.160000
 11
25.3999996
 21
0.00000000
  0
LINE
  8
0
 10
25.3999996
 20
0.00000000
 11
17.7799988
 21
10.1599999
  0
LINE
  8
0
 10
17.7799988
 20
10.1599999
 11
7.62000084
 21
10.1599999
  0
LINE
  8
0
 10
7.62000084
 20
10.1599999
 11
0.00000000
 21
0.00000000
  0
ENDBLK
  8
0
  0
BLOCK
  8
0
  2
CCOL
 70
     0
 10
0.00000000
 20
0.00000000
  0
LINE
  8
0
 10
10.1599999
 20
-2.5400000
 11
10.1599999
 21
0.00000000
  0
LINE
  8
0
 10
10.1599999
 20
0.00000000
 11
0.00000000
 21
0.00000000
  0
LINE
  8
0
 10
0.00000000
 20
0.00000000
 11
0.00000000
 21
-25.400000
  0
LINE
  8
0
 10
0.00000000
 20
-25.400000
 11
10.1599999
 21
-25.400000
  0
LINE
  8
0
 10
10.1599999
 20
-25.400000
 11
10.1599999
 21
-22.859999
  0
ENDBLK
  8
0
  0
BLOCK
  8
0
  2
DCOL
 70
     0
 10
0.00000000
 20
0.00000000
  0
INSERT
  8
0
  2
CCOL
 10
2.53999996
 20
0.00000000
 41
1.00000000
 42
1.00000000
 43
1.00000000
 50
   0.000
  0
INSERT
  8
0
  2
CCOL
 10
-2.5400000
 20
0.00000000
 41
-1.0000000
 42
1.00000000
 43
1.00000000
 50
   0.000
  0
ENDBLK
  8
0
  0
BLOCK
  8
0
  2
UCOL
 70
     0
 10
0.00000000
 20
0.00000000
  0
LINE
  8
0
 10
10.1599999
 20
0.00000000
 11
0.00000000
 21
0.00000000
  0
LINE
  8
0
 10
0.00000000
 20
0.00000000
 11
0.00000000
 21
-25.400000
  0
LINE
  8
0
 10
0.00000000
 20
-25.400000
 11
10.1599999
 21
-25.400000
  0
ENDBLK
  8
0
  0
BLOCK
  8
0
  2
WCOL
 70
     0
 10
0.00000000
 20
0.00000000
  0
LINE
  8
0
 10
-10.160000
 20
0.00000000
 11
10.1599999
 21
0.00000000
  0
LINE
  8
0
 10
0.00000000
 20
0.00000000
 11
0.00000000
 21
-25.400000
  0
LINE
  8
0
 10
-10.160000
 20
-25.400000
 11
10.1599999
 21
-25.400000
  0
ENDBLK
  8
0
  0
BLOCK
  8
0
  2
ZCOL
 70
     0
 10
0.00000000
 20
0.00000000
  0
LINE
  8
0
 10
10.1599999
 20
-2.5400000
 11
10.1599999
 21
0.00000000
  0
LINE
  8
0
 10
10.1599999
 20
0.00000000
 11
0.00000000
 21
0.00000000
  0
LINE
  8
0
 10
0.00000000
 20
0.00000000
 11
0.00000000
 21
-25.400000
  0
LINE
  8
0
 10
0.00000000
 20
-25.400000
 11
-10.160000
 21
-25.400000
  0
LINE
  8
0
 10
-10.160000
 20
-25.400000
 11
-10.160000
 21
-22.859999
  0
ENDBLK
  8
0
  0
BLOCK
  8
0
  2
TCOL
 70
     0
 10
0.00000000
 20
0.00000000
  0
LINE
  8
0
 10
-12.700000
 20
-12.700000
 11
12.6999998
 21
-12.700000
  0
LINE
  8
0
 10
12.6999998
 20
-12.700000
 11
12.6999998
 21
12.6999998
  0
LINE
  8
0
 10
12.6999998
 20
12.6999998
 11
-12.700000
 21
12.6999998
  0
LINE
  8
0
 10
-12.700000
 20
12.6999998
 11
-12.700000
 21
-12.700000
  0
ENDBLK
  8
0
  0
BLOCK
  8
0
  2
TCOL2
 70
     0
 10
0.00000000
 20
0.00000000
  0
LINE
  8
0
 10
-6.3499999
 20
-12.700000
 11
6.34999992
 21
-12.700000
  0
LINE
  8
0
 10
6.34999992
 20
-12.700000
 11
6.34999992
 21
12.6999998
  0
LINE
  8
0
 10
6.34999992
 20
12.6999998
 11
-6.3499999
 21
12.6999998
  0
LINE
  8
0
 10
-6.3499999
 20
12.6999998
 11
-6.3499999
 21
-12.700000
  0
ENDBLK
  8
0
  0
BLOCK
  8
1
  2
PCOL
 70
     0
 10
0.00000000
 20
0.00000000
  0
CIRCLE
  8
1
 10
0.00000000
 20
0.00000000
 40
12.6999998
  0
ENDBLK
  8
1
  0
BLOCK
  8
0
  2
GCOL
 70
     0
 10
0.00000000
 20
0.00000000
  0
LINE
  8
0
 10
10.1599999
 20
-2.5400000
 11
10.1599999
 21
0.00000000
  0
LINE
  8
0
 10
10.1599999
 20
0.00000000
 11
0.00000000
 21
0.00000000
  0
LINE
  8
0
 10
0.00000000
 20
0.00000000
 11
0.00000000
 21
-25.400000
  0
LINE
  8
0
 10
0.00000000
 20
-25.400000
 11
25.3999996
 21
-25.400000
  0
LINE
  8
0
 10
25.3999996
 20
-25.400000
 11
25.3999996
 21
-15.240001
  0
LINE
  8
0
 10
25.3999996
 20
-15.240001
 11
22.8599987
 21
-15.240001
  0
ENDBLK
  8
0
  0
BLOCK
  8
0
  2
VSECTN
 70
     0
 10
0.00000000
 20
0.00000000
  0
LINE
  8
0
 10
-12.700000
 20
25.3999996
 11
12.6999998
 21
25.3999996
  0
LINE
  8
0
 10
-12.700000
 20
25.3999996
 11
0.00000000
 21
0.00000000
  0
LINE
  8
0
 10
0.00000000
 20
0.00000000
 11
12.6999998
 21
25.3999996
  0
ENDBLK
  8
0
  0
BLOCK
  8
0
  2
XCOL
 70
     0
 10
0.00000000
 20
0.00000000
  0
LINE
  8
0
 10
-14.287499
 20
1.58749996
 11
14.2874994
 21
1.58749996
  0
LINE
  8
0
 10
14.2874994
 20
1.58749996
 11
14.2874994
 21
-26.987499
  0
LINE
  8
0
 10
14.2874994
 20
-26.987499
 11
-14.287499
 21
-26.987499
  0
LINE
  8
0
 10
-14.287499
 20
-26.987499
 11
-14.287499
 21
1.58749996
  0
ENDBLK
  8
0
  0
BLOCK
  8
0
  2
SGUS
 70
     0
 10
0.00000000
 20
0.00000000
  0
LINE
  8
0
 10
0.00000000
 20
0.00000000
 11
7.62000084
 21
0.00000000
  0
LINE
  8
0
 10
7.62000084
 20
0.00000000
 11
17.7799988
 21
-25.400000
  0
LINE
  8
0
 10
17.7799988
 20
-25.400000
 11
25.3999996
 21
-25.400000
  0
ENDBLK
  8
0
  0
BLOCK
  8
7
  2
CUTSEC
 70
     0
 10
0.00000000
 20
0.00000000
  0
LINE
  8
7
 10
-321.15619
 20
0.00000000
 11
-76.465767
 21
0.00000000
  0
LINE
  8
7
 10
76.4657669
 20
0.00000000
 11
321.156189
 21
0.00000000
  0
LINE
  8
7
 10
321.156189
 20
0.00000000
 11
321.156189
 21
91.7589340
  0
INSERT
  8
7
  2
ARROWP
 10
321.156189
 20
290.569916
 41
1.00000000
 42
1.00000000
 43
1.00000000
 50
  90.000
  0
ENDBLK
  8
7
  0
BLOCK
  8
0
  2
WALLLITE
 70
     0
 10
0.00000000
 20
0.00000000
  0
LINE
  8
0
 10
25.3999996
 20
0.00000000
 11
0.00000000
 21
0.00000000
  0
LINE
  8
0
 10
0.00000000
 20
0.00000000
 11
0.00000000
 21
-25.400000
  0
LINE
  8
0
 10
0.00000000
 20
-25.400000
 11
25.3999996
 21
-25.400000
  0
LINE
  8
0
 10
25.3999996
 20
-25.400000
 11
25.3999996
 21
0.00000000
  0
LINE
  8
0
 10
0.00000000
 20
-25.400000
 11
0.00000000
 21
0.00000000
  0
LINE
  8
0
 10
6.34999992
 20
-25.400000
 11
6.34999992
 21
0.00000000
  0
LINE
  8
0
 10
12.6999998
 20
-25.400000
 11
12.6999998
 21
0.00000000
  0
LINE
  8
0
 10
19.0499992
 20
-25.400000
 11
19.0499992
 21
0.00000000
  0
ENDBLK
  8
0
  0
BLOCK
  8
7
  2
DETAIL
 70
     0
 10
0.00000000
 20
0.00000000
  0
CIRCLE
  8
7
 10
0.00000000
 20
0.00000000
 40
76.4657669
  0
LINE
  8
7
 10
76.4657669
 20
0.00000000
 11
336.449371
 21
0.00000000
  0
ENDBLK
  8
7
  0
BLOCK
  8
0
  2
EW1PNL
 70
     0
 10
0.00000000
 20
0.00000000
999
START:   AREA=Wideopen Outlines
999
END:     AREA=WideOpen Outlines
999
START:   AREA=Framed Opening Outlines
999
END:     AREA=Framed Opening Outlines
999
START:   AREA=Draw Adjacent Surfaces
999
END:     AREA=Draw Adjacent Surfaces
999
START:   AREA=Surface
  0
LINE
  8
5
 10
0.00000000
 20
0.00000000
 11
22470.0000
 21
0.00000000
  0
LINE
  8
5
 10
0.00000000
 20
0.00000000
 11
0.00000000
 21
8169.99951
  0
LINE
  8
5
 10
0.00000000
 20
8169.99951
 11
11235.0000
 21
9293.50000
  0
LINE
  8
5
 10
11235.0000
 20
9293.50000
 11
22470.0000
 21
8169.99951
  0
LINE
  8
5
 10
22470.0000
 20
8169.99951
 11
22470.0000
 21
0.00000000
999
END:     AREA=Surface
999
START:   AREA=Match Line
999
START:   AREA=Wall Panel
  0
LINE
  8
1
 10
-14.999860
 20
8159.99951
 11
985.000122
 21
8159.99951
  0
LINE
  8
1
 10
-14.999860
 20
2390.00000
 11
-14.999860
 21
8159.99951
  0
LINE
  8
1
 10
985.000122
 20
2390.00000
 11
985.000122
 21
8159.99951
  0
LINE
  8
1
 10
-14.999860
 20
2390.00000
 11
985.000122
 21
2390.00000
  0
TEXT
  8
3
 7
SIMPLEX
 10
580.582336
 20
4935.68262
 40
191.164413
  1
ES-1
 50
  90.000
  0
LINE
  8
1
 10
985.000122
 20
8258.50000
 11
1985.00012
 21
8258.50000
  0
LINE
  8
1
 10
985.000122
 20
2390.00000
 11
985.000122
 21
8258.50000
  0
LINE
  8
1
 10
1985.00012
 20
2390.00000
 11
1985.00012
 21
8258.50000
  0
LINE
  8
1
 10
985.000122
 20
2390.00000
 11
1985.00012
 21
2390.00000
  0
TEXT
  8
3
 7
SIMPLEX
 10
1580.58240
 20
4951.47900
 40
191.164413
  1
ES-2
 50
  90.000
  0
LINE
  8
1
 10
1985.00012
 20
8358.50000
 11
2985.00000
 21
8358.50000
  0
LINE
  8
1
 10
1985.00012
 20
2390.00000
 11
1985.00012
 21
8358.50000
  0
LINE
  8
1
 10
2985.00000
 20
2390.00000
 11
2985.00000
 21
8358.50000
  0
LINE
  8
1
 10
1985.00012
 20
2390.00000
 11
2985.00000
 21
2390.00000
  0
TEXT
  8
3
 7
SIMPLEX
 10
2580.58228
 20
5001.47900
 40
191.164413
  1
ES-3
 50
  90.000
  0
LINE
  8
1
 10
2985.00000
 20
8458.50000
 11
3985.00000
 21
8458.50000
  0
LINE
  8
1
 10
2985.00000
 20
2390.00000
 11
2985.00000
 21
8458.50000
  0
LINE
  8
1
 10
3985.00000
 20
2390.00000
 11
3985.00000
 21
8458.50000
  0
LINE
  8
1
 10
2985.00000
 20
2390.00000
 11
3985.00000
 21
2390.00000
  0
TEXT
  8
3
 7
SIMPLEX
 10
3580.58252
 20
5051.47900
 40
191.164413
  1
ES-4
 50
  90.000
  0
LINE
  8
1
 10
3985.00000
 20
8558.50000
 11
4985.00049
 21
8558.50000
  0
LINE
  8
1
 10
3985.00000
 20
2390.00000
 11
3985.00000
 21
8558.50000
  0
LINE
  8
1
 10
4985.00049
 20
2390.00000
 11
4985.00049
 21
8558.50000
  0
LINE
  8
1
 10
3985.00000
 20
2390.00000
 11
4985.00049
 21
2390.00000
  0
TEXT
  8
3
 7
SIMPLEX
 10
4580.58252
 20
5101.47900
 40
191.164413
  1
ES-5
 50
  90.000
  0
LINE
  8
1
 10
4985.00049
 20
8658.50000
 11
5985.00049
 21
8658.50000
  0
LINE
  8
1
 10
4985.00049
 20
2390.00000
 11
4985.00049
 21
8658.50000
  0
LINE
  8
1
 10
5985.00049
 20
2390.00000
 11
5985.00049
 21
8658.50000
  0
LINE
  8
1
 10
4985.00049
 20
2390.00000
 11
5985.00049
 21
2390.00000
  0
TEXT
  8
3
 7
SIMPLEX
 10
5580.58252
 20
5151.47949
 40
191.164413
  1
ES-6
 50
  90.000
  0
LINE
  8
1
 10
5985.00049
 20
8758.49902
 11
6985.00049
 21
8758.49902
  0
LINE
  8
1
 10
5985.00049
 20
2390.00000
 11
5985.00049
 21
8758.49902
  0
LINE
  8
1
 10
6985.00049
 20
2390.00000
 11
6985.00049
 21
8758.49902
  0
LINE
  8
1
 10
5985.00049
 20
2390.00000
 11
6985.00049
 21
2390.00000
  0
TEXT
  8
3
 7
SIMPLEX
 10
6580.58252
 20
5201.47900
 40
191.164413
  1
ES-7
 50
  90.000
  0
LINE
  8
1
 10
6985.00049
 20
8858.49902
 11
7985.00098
 21
8858.49902
  0
LINE
  8
1
 10
6985.00049
 20
2390.00000
 11
6985.00049
 21
8858.49902
  0
LINE
  8
1
 10
7985.00098
 20
2390.00000
 11
7985.00098
 21
8858.49902
  0
LINE
  8
1
 10
6985.00049
 20
2390.00000
 11
7985.00098
 21
2390.00000
  0
TEXT
  8
3
 7
SIMPLEX
 10
7580.58301
 20
5251.47900
 40
191.164413
  1
ES-8
 50
  90.000
  0
LINE
  8
1
 10
7985.00098
 20
8958.50000
 11
8985.00098
 21
8958.50000
  0
LINE
  8
1
 10
7985.00098
 20
2390.00000
 11
7985.00098
 21
8958.50000
  0
LINE
  8
1
 10
8985.00098
 20
2390.00000
 11
8985.00098
 21
8958.50000
  0
LINE
  8
1
 10
7985.00098
 20
2390.00000
 11
8985.00098
 21
2390.00000
  0
TEXT
  8
3
 7
SIMPLEX
 10
8580.58301
 20
5301.47900
 40
191.164413
  1
ES-9
 50
  90.000
  0
LINE
  8
1
 10
8985.00098
 20
9058.50000
 11
9985.00098
 21
9058.50000
  0
LINE
  8
1
 10
8985.00098
 20
2390.00000
 11
8985.00098
 21
9058.50000
  0
LINE
  8
1
 10
9985.00098
 20
2390.00000
 11
9985.00098
 21
9058.50000
  0
LINE
  8
1
 10
8985.00098
 20
2390.00000
 11
9985.00098
 21
2390.00000
  0
TEXT
  8
3
 7
SIMPLEX
 10
9580.58301
 20
5289.35059
 40
191.164413
  1
ES-10
 50
  90.000
  0
LINE
  8
1
 10
9985.00098
 20
9158.50000
 11
10985.0010
 21
9158.50000
  0
LINE
  8
1
 10
9985.00098
 20
2390.00000
 11
9985.00098
 21
9158.50000
  0
LINE
  8
1
 10
10985.0010
 20
2390.00000
 11
10985.0010
 21
9158.50000
  0
LINE
  8
1
 10
9985.00098
 20
2390.00000
 11
10985.0010
 21
2390.00000
  0
TEXT
  8
3
 7
SIMPLEX
 10
10580.5830
 20
5372.80469
 40
191.164413
  1
ES-11
 50
  90.000
  0
LINE
  8
1
 10
10735.0000
 20
9233.50000
 11
11735.0000
 21
9233.50000
  0
LINE
  8
1
 10
10735.0000
 20
2390.00000
 11
10735.0000
 21
9233.50000
  0
LINE
  8
1
 10
11735.0000
 20
2390.00000
 11
11735.0000
 21
9233.50000
  0
LINE
  8
1
 10
10735.0000
 20
2390.00000
 11
11735.0000
 21
2390.00000
  0
TEXT
  8
3
 7
SIMPLEX
 10
11330.5820
 20
5376.85059
 40
191.164413
  1
ES-12
 50
  90.000
  0
LINE
  8
1
 10
11485.0000
 20
9158.50000
 11
12485.0010
 21
9158.50000
  0
LINE
  8
1
 10
11485.0000
 20
2390.00000
 11
11485.0000
 21
9158.50000
  0
LINE
  8
1
 10
12485.0010
 20
2390.00000
 11
12485.0010
 21
9158.50000
  0
LINE
  8
1
 10
11485.0000
 20
2390.00000
 11
12485.0010
 21
2390.00000
  0
TEXT
  8
3
 7
SIMPLEX
 10
12080.5830
 20
5372.80469
 40
191.164413
  1
ES-11
 50
  90.000
  0
LINE
  8
1
 10
12485.0000
 20
9058.50000
 11
13485.0000
 21
9058.50000
  0
LINE
  8
1
 10
12485.0000
 20
2390.00000
 11
12485.0000
 21
9058.50000
  0
LINE
  8
1
 10
13485.0000
 20
2390.00000
 11
13485.0000
 21
9058.50000
  0
LINE
  8
1
 10
12485.0000
 20
2390.00000
 11
13485.0000
 21
2390.00000
  0
TEXT
  8
3
 7
SIMPLEX
 10
13080.5830
 20
5289.35059
 40
191.164413
  1
ES-10
 50
  90.000
  0
LINE
  8
1
 10
13485.0000
 20
8958.50000
 11
14484.9980
 21
8958.50000
  0
LINE
  8
1
 10
13485.0000
 20
2390.00000
 11
13485.0000
 21
8958.50000
  0
LINE
  8
1
 10
14484.9980
 20
2390.00000
 11
14484.9980
 21
8958.50000
  0
LINE
  8
1
 10
13485.0000
 20
2390.00000
 11
14484.9980
 21
2390.00000
  0
TEXT
  8
3
 7
SIMPLEX
 10
14080.5820
 20
5301.47900
 40
191.164413
  1
ES-9
 50
  90.000
  0
LINE
  8
1
 10
14484.9980
 20
8858.50000
 11
15484.9980
 21
8858.50000
  0
LINE
  8
1
 10
14484.9980
 20
2390.00000
 11
14484.9980
 21
8858.50000
  0
LINE
  8
1
 10
15484.9980
 20
2390.00000
 11
15484.9980
 21
8858.50000
  0
LINE
  8
1
 10
14484.9980
 20
2390.00000
 11
15484.9980
 21
2390.00000
  0
TEXT
  8
3
 7
SIMPLEX
 10
15080.5820
 20
5251.47949
 40
191.164413
  1
ES-8
 50
  90.000
  0
LINE
  8
1
 10
15484.9980
 20
8758.50000
 11
16484.9980
 21
8758.50000
  0
LINE
  8
1
 10
15484.9980
 20
2390.00000
 11
15484.9980
 21
8758.50000
  0
LINE
  8
1
 10
16484.9980
 20
2390.00000
 11
16484.9980
 21
8758.50000
  0
LINE
  8
1
 10
15484.9980
 20
2390.00000
 11
16484.9980
 21
2390.00000
  0
TEXT
  8
3
 7
SIMPLEX
 10
16080.5811
 20
5201.47949
 40
191.164413
  1
ES-7
 50
  90.000
  0
LINE
  8
1
 10
16484.9980
 20
8658.50000
 11
17484.9980
 21
8658.50000
  0
LINE
  8
1
 10
16484.9980
 20
2390.00000
 11
16484.9980
 21
8658.50000
  0
LINE
  8
1
 10
17484.9980
 20
2390.00000
 11
17484.9980
 21
8658.50000
  0
LINE
  8
1
 10
16484.9980
 20
2390.00000
 11
17484.9980
 21
2390.00000
  0
TEXT
  8
3
 7
SIMPLEX
 10
17080.5801
 20
5151.47949
 40
191.164413
  1
ES-6
 50
  90.000
  0
LINE
  8
1
 10
17484.9980
 20
8558.50000
 11
18484.9961
 21
8558.50000
  0
LINE
  8
1
 10
17484.9980
 20
2390.00000
 11
17484.9980
 21
8558.50000
  0
LINE
  8
1
 10
18484.9961
 20
2390.00000
 11
18484.9961
 21
8558.50000
  0
LINE
  8
1
 10
17484.9980
 20
2390.00000
 11
18484.9961
 21
2390.00000
  0
TEXT
  8
3
 7
SIMPLEX
 10
18080.5801
 20
5101.47900
 40
191.164413
  1
ES-5
 50
  90.000
  0
LINE
  8
1
 10
18484.9961
 20
8458.50000
 11
19484.9961
 21
8458.50000
  0
LINE
  8
1
 10
18484.9961
 20
2390.00000
 11
18484.9961
 21
8458.50000
  0
LINE
  8
1
 10
19484.9961
 20
2390.00000
 11
19484.9961
 21
8458.50000
  0
LINE
  8
1
 10
18484.9961
 20
2390.00000
 11
19484.9961
 21
2390.00000
  0
TEXT
  8
3
 7
SIMPLEX
 10
19080.5801
 20
5051.47900
 40
191.164413
  1
ES-4
 50
  90.000
  0
LINE
  8
1
 10
19484.9961
 20
8358.50000
 11
20484.9961
 21
8358.50000
  0
LINE
  8
1
 10
19484.9961
 20
2390.00000
 11
19484.9961
 21
8358.50000
  0
LINE
  8
1
 10
20484.9961
 20
2390.00000
 11
20484.9961
 21
8358.50000
  0
LINE
  8
1
 10
19484.9961
 20
2390.00000
 11
20484.9961
 21
2390.00000
  0
TEXT
  8
3
 7
SIMPLEX
 10
20080.5781
 20
5001.47900
 40
191.164413
  1
ES-3
 50
  90.000
  0
LINE
  8
1
 10
20484.9961
 20
8258.50000
 11
21484.9961
 21
8258.50000
  0
LINE
  8
1
 10
20484.9961
 20
2390.00000
 11
20484.9961
 21
8258.50000
  0
LINE
  8
1
 10
21484.9961
 20
2390.00000
 11
21484.9961
 21
8258.50000
  0
LINE
  8
1
 10
20484.9961
 20
2390.00000
 11
21484.9961
 21
2390.00000
  0
TEXT
  8
3
 7
SIMPLEX
 10
21080.5781
 20
4951.47900
 40
191.164413
  1
ES-2
 50
  90.000
  0
LINE
  8
1
 10
21484.9961
 20
8159.99951
 11
22484.9941
 21
8159.99951
  0
LINE
  8
1
 10
21484.9961
 20
2390.00000
 11
21484.9961
 21
8159.99951
  0
LINE
  8
1
 10
22484.9941
 20
2390.00000
 11
22484.9941
 21
8159.99951
  0
LINE
  8
1
 10
21484.9961
 20
2390.00000
 11
22484.9941
 21
2390.00000
  0
TEXT
  8
3
 7
SIMPLEX
 10
22080.5781
 20
4935.68262
 40
191.164413
  1
ES-1
 50
  90.000
999
END:     AREA=Wall Panel
999
START:   AREA=Panel Start Dim
  0
LINE
  8
12
 10
0.00000000
 20
-611.72614
 11
0.00000000
 21
-850.68158
  0
LINE
  8
12
 10
985.000122
 20
-611.72614
 11
985.000122
 21
-850.68158
  0
LINE
  8
2
 10
0.00000000
 20
-802.89050
 11
985.000122
 21
-802.89050
  0
INSERT
  8
2
  2
ARROW
 10
0.00000000
 20
-802.89050
 41
1.00000000
 42
1.00000000
 43
1.00000000
 50
 180.000
  0
INSERT
  8
2
  2
ARROW
 10
985.000122
 20
-802.89050
 41
1.00000000
 42
1.00000000
 43
1.00000000
 50
   0.000
  0
TEXT
  8
11
 7
SIMPLEX
 10
205.753449
 20
-739.16907
 40
191.164413
  1
985
 50
   0.000
  0
TEXT
  8
15
 7
SIMPLEX
 10
985.000122
 20
-1089.6372
 40
191.164413
  1
Panel Start
 50
   0.000
  0
LINE
  8
12
 10
21484.9961
 20
-611.72614
 11
21484.9961
 21
-850.68158
  0
LINE
  8
12
 10
22470.0000
 20
-611.72614
 11
22470.0000
 21
-850.68158
  0
LINE
  8
2
 10
21484.9961
 20
-802.89050
 11
22470.0000
 21
-802.89050
  0
INSERT
  8
2
  2
ARROW
 10
21484.9961
 20
-802.89050
 41
1.00000000
 42
1.00000000
 43
1.00000000
 50
 180.000
  0
INSERT
  8
2
  2
ARROW
 10
22470.0000
 20
-802.89050
 41
1.00000000
 42
1.00000000
 43
1.00000000
 50
   0.000
  0
TEXT
  8
11
 7
SIMPLEX
 10
21690.7520
 20
-739.16907
 40
191.164413
  1
985
 50
   0.000
  0
TEXT
  8
15
 7
SIMPLEX
 10
19525.5605
 20
-1089.6372
 40
191.164413
  1
Panel Start
 50
   0.000
999
END:     AREA=Draw Panel Start Dim
999
START:   AREA=Door Panel
999
END:     AREA=Door Panel
999
START:   AREA=Draw Base Trim
999
END:     AREA=Draw Base Trim
999
START:   AREA=Draw Adjacent Base Trim
  0
LINE
  8
1
 10
-779.65753
 20
2500.00000
 11
-550.26019
 21
2500.00000
  0
LINE
  8
1
 10
-550.26019
 20
2500.00000
 11
-550.26019
 21
8169.99951
  0
LINE
  8
1
 10
-550.26019
 20
8169.99951
 11
-779.65753
 21
8169.99951
  0
LINE
  8
1
 10
-779.65753
 20
8169.99951
 11
-779.65753
 21
2500.00000
  0
TEXT
  8
2
 7
SIMPLEX
 10
-1087.1932
 20
5263.31348
 40
143.373306
  1
1
 50
   0.000
  0
INSERT
  8
2
  2
DIAMOND
 10
-1040.5970
 20
5119.93994
 41
16.9338551
 42
16.9338551
 43
16.9338551
 50
   0.000
  0
LINE
  8
1
 10
23249.6523
 20
8169.99951
 11
23020.2559
 21
8169.99951
  0
LINE
  8
1
 10
23020.2559
 20
8169.99951
 11
23020.2559
 21
2500.00000
  0
LINE
  8
1
 10
23020.2559
 20
2500.00000
 11
23249.6523
 21
2500.00000
  0
LINE
  8
1
 10
23249.6523
 20
2500.00000
 11
23249.6523
 21
8169.99951
  0
TEXT
  8
2
 7
SIMPLEX
 10
23463.9961
 20
5263.31348
 40
143.373306
  1
1
 50
   0.000
  0
INSERT
  8
2
  2
DIAMOND
 10
23510.5918
 20
5119.93994
 41
16.9338551
 42
16.9338551
 43
16.9338551
 50
   0.000
  0
TEXT
  8
2
 7
SIMPLEX
 10
11163.3135
 20
2167.37378
 40
143.373306
  1
2
 50
   0.000
  0
INSERT
  8
2
  2
DIAMOND
 10
11235.0000
 20
2024.00061
 41
16.9338551
 42
16.9338551
 43
16.9338551
 50
   0.000
  0
LINE
  8
1
 10
266.301971
 20
8734.55957
 11
243.476074
 21
8962.81836
  0
LINE
  8
1
 10
243.476074
 20
8962.81836
 11
10839.3516
 21
10022.4063
  0
LINE
  8
1
 10
10839.3516
 20
10022.4063
 11
10862.1768
 21
9794.14746
  0
LINE
  8
1
 10
10862.1768
 20
9794.14746
 11
266.301971
 21
8734.55957
  0
TEXT
  8
2
 7
SIMPLEX
 10
5451.25098
 20
9673.79297
 40
143.373306
  1
3
 50
   5.711
  0
INSERT
  8
2
  2
DIAMOND
 10
5536.84814
 20
9538.26465
 41
16.9338551
 42
16.9338551
 43
16.9338551
 50
   5.711
  0
LINE
  8
1
 10
-53.260563
 20
8702.60352
 11
-76.086304
 21
8930.86230
  0
LINE
  8
1
 10
-76.086304
 20
8930.86230
 11
152.172562
 21
8953.68848
  0
LINE
  8
1
 10
152.172562
 20
8953.68848
 11
174.998306
 21
8725.42969
  0
LINE
  8
1
 10
174.998306
 20
8725.42969
 11
-53.260563
 21
8702.60352
  0
TEXT
  8
2
 7
SIMPLEX
 10
-52.119110
 20
9123.45605
 40
143.373306
  1
4
 50
   5.711
  0
INSERT
  8
2
  2
DIAMOND
 10
33.4779549
 20
8987.92676
 41
16.9338551
 42
16.9338551
 43
16.9338551
 50
   5.711
  0
LINE
  8
1
 10
11607.8232
 20
9794.14746
 11
11630.6484
 21
10022.4063
  0
LINE
  8
1
 10
11630.6484
 20
10022.4063
 11
22226.5254
 21
8962.81836
  0
LINE
  8
1
 10
22226.5254
 20
8962.81836
 11
22203.6992
 21
8734.55957
  0
LINE
  8
1
 10
22203.6992
 20
8734.55957
 11
11607.8232
 21
9794.14746
  0
TEXT
  8
2
 7
SIMPLEX
 10
16876.0879
 20
9688.05859
 40
143.373306
  1
3
 50
  -5.711
  0
INSERT
  8
2
  2
DIAMOND
 10
16933.1523
 20
9538.26465
 41
16.9338551
 42
16.9338551
 43
16.9338551
 50
  -5.711
  0
LINE
  8
1
 10
11005.6025
 20
9828.76074
 11
11005.6025
 21
10058.1582
  0
LINE
  8
1
 10
11005.6025
 20
10058.1582
 11
11464.3975
 21
10058.1582
  0
LINE
  8
1
 10
11464.3975
 20
10058.1582
 11
11464.3975
 21
9828.76074
  0
LINE
  8
1
 10
11464.3975
 20
9828.76074
 11
11005.6025
 21
9828.76074
  0
TEXT
  8
2
 7
SIMPLEX
 10
11163.3135
 20
10247.4111
 40
143.373306
  1
5
 50
   0.000
  0
INSERT
  8
2
  2
DIAMOND
 10
11235.0000
 20
10104.0371
 41
16.9338551
 42
16.9338551
 43
16.9338551
 50
   0.000
  0
LINE
  8
1
 10
22295.0039
 20
8725.42969
 11
22317.8281
 21
8953.68848
  0
LINE
  8
1
 10
22317.8281
 20
8953.68848
 11
22546.0879
 21
8930.86230
  0
LINE
  8
1
 10
22546.0879
 20
8930.86230
 11
22523.2617
 21
8702.60352
  0
LINE
  8
1
 10
22523.2617
 20
8702.60352
 11
22295.0039
 21
8725.42969
  0
TEXT
  8
2
 7
SIMPLEX
 10
22379.4590
 20
9137.72168
 40
143.373306
  1
6
 50
  -5.711
  0
INSERT
  8
2
  2
DIAMOND
 10
22436.5234
 20
8987.92676
 41
16.9338551
 42
16.9338551
 43
16.9338551
 50
  -5.711
999
START:   AREA=Draw Parapet Cap Trim
999
START:   AREA=Draw Framed Open Trim
999
END:     AREA=Draw Framed Open Trim
999
START:   AREA=Parapet Trim
999
END:     AREA=Parapet Trim
999
START:   AREA=Partial Wall Angles
  0
LINE
  8
5
 10
0.00000000
 20
0.00000000
 11
0.00000000
 21
2500.00000
  0
LINE
  8
5
 10
22470.0000
 20
0.00000000
 11
22470.0000
 21
2500.00000
  0
LINE
  8
5
 10
0.00000000
 20
2500.00000
 11
22470.0000
 21
2500.00000
999
END:     AREA=Partial Wall Angles
999
START:   AREA=Dimensions
  0
LINE
  8
2
 10
-2255.8474
 20
10226.3818
 11
-1633.3677
 21
10585.7715
  0
LINE
  8
2
 10
-2176.3818
 20
10272.2607
 11
-1712.8330
 21
10272.2607
  0
LINE
  8
2
 10
-1712.8330
 20
10539.8926
 11
-1712.8330
 21
10272.2607
  0
TEXT
  8
11
 7
SIMPLEX
 10
-1617.2507
 20
10272.2607
 40
191.164413
  1
10.0
 50
   0.000
  0
TEXT
  8
11
 7
SIMPLEX
 10
-2040.1896
 20
9985.51465
 40
191.164413
  1
100
 50
   0.000
  0
LINE
  8
2
 10
24725.8457
 20
10226.3818
 11
24103.3652
 21
10585.7715
  0
LINE
  8
2
 10
24646.3809
 20
10272.2607
 11
24182.8301
 21
10272.2607
  0
LINE
  8
2
 10
24182.8301
 20
10539.8926
 11
24182.8301
 21
10272.2607
  0
TEXT
  8
11
 7
SIMPLEX
 10
23418.1738
 20
10272.2607
 40
191.164413
  1
10.0
 50
   0.000
  0
TEXT
  8
11
 7
SIMPLEX
 10
24319.0234
 20
9985.51465
 40
191.164413
  1
100
 50
   0.000
999
START:   AREA=Draw End Grids
  0
LINE
  8
12
 10
0.00000000
 20
10518.8643
 11
0.00000000
 21
10840.0205
  0
CIRCLE
  8
13
 10
0.00000000
 20
11069.4180
 40
229.397278
  0
TEXT
  8
13
 7
SIMPLEX
 10
-103.22878
 20
10966.1895
 40
206.457550
  1
C
 72
           1
 11
0.00000000
 21
10966.1895
 50
   0.000
  0
LINE
  8
12
 10
22470.0000
 20
10518.8643
 11
22470.0000
 21
10840.0205
  0
CIRCLE
  8
13
 10
22470.0000
 20
11069.4180
 40
229.397278
  0
TEXT
  8
13
 7
SIMPLEX
 10
22366.7715
 20
10966.1895
 40
206.457550
  1
A
 72
           1
 11
22470.0000
 21
10966.1895
 50
   0.000
  0
LINE
  8
12
 10
11235.0000
 20
10518.8643
 11
11235.0000
 21
10840.0205
  0
CIRCLE
  8
13
 10
11235.0000
 20
11069.4180
 40
229.397278
  0
TEXT
  8
13
 7
SIMPLEX
 10
11131.7715
 20
10966.1895
 40
206.457550
  1
B
 72
           1
 11
11235.0000
 21
10966.1895
 50
   0.000
999
END:     AREA=Draw End Grids
999
END:     AREA=Dimensions
999
START:   AREA=Extensions
999
END:     AREA=Extensions
999
START:   AREA=Draw Panel Title
  0
TEXT
  8
15
 7
SIMPLEX
 10
6088.85400
 20
-1873.4113
 40
305.863068
  1
ENDWALL SHEETING & TRIM: FRAME LINE 1
 72
           1
 11
11235.0000
 21
-1873.4113
 50
   0.000
999
END:     AREA=Draw Panel Title
  0
ENDBLK
  8
0
  0
BLOCK
  8
0
  2
EW2PNL
 70
     0
 10
0.00000000
 20
0.00000000
999
START:   AREA=Wideopen Outlines
999
END:     AREA=WideOpen Outlines
999
START:   AREA=Framed Opening Outlines
  0
LINE
  8
1
 10
3417.99976
 20
-50.000000
 11
3417.99976
 21
4500.00000
  0
LINE
  8
1
 10
7918.00049
 20
-50.000000
 11
7918.00049
 21
4500.00000
  0
LINE
  8
1
 10
3417.99976
 20
4500.00000
 11
7918.00049
 21
4500.00000
999
END:     AREA=Framed Opening Outlines
999
START:   AREA=Draw Adjacent Surfaces
999
END:     AREA=Draw Adjacent Surfaces
999
START:   AREA=Surface
  0
LINE
  8
5
 10
0.00000000
 20
0.00000000
 11
22470.0000
 21
0.00000000
  0
LINE
  8
5
 10
0.00000000
 20
0.00000000
 11
0.00000000
 21
8169.99951
  0
LINE
  8
5
 10
0.00000000
 20
8169.99951
 11
11235.0000
 21
9293.50000
  0
LINE
  8
5
 10
11235.0000
 20
9293.50000
 11
22470.0000
 21
8169.99951
  0
LINE
  8
5
 10
22470.0000
 20
8169.99951
 11
22470.0000
 21
0.00000000
999
END:     AREA=Surface
999
START:   AREA=Match Line
999
START:   AREA=Wall Panel
  0
LINE
  8
1
 10
-14.999860
 20
5694.99951
 11
985.000122
 21
5694.99951
  0
LINE
  8
1
 10
-14.999860
 20
2390.00000
 11
-14.999860
 21
5694.99951
  0
LINE
  8
1
 10
985.000122
 20
2390.00000
 11
985.000122
 21
5694.99951
  0
LINE
  8
1
 10
-14.999860
 20
2390.00000
 11
985.000122
 21
2390.00000
  0
TEXT
  8
3
 7
SIMPLEX
 10
580.582336
 20
3607.60059
 40
191.164413
  1
ES-13
 50
  90.000
  0
LINE
  8
1
 10
985.000122
 20
5694.99951
 11
1985.00012
 21
5694.99951
  0
LINE
  8
1
 10
985.000122
 20
2390.00000
 11
985.000122
 21
5694.99951
  0
LINE
  8
1
 10
1985.00012
 20
2390.00000
 11
1985.00012
 21
5694.99951
  0
LINE
  8
1
 10
985.000122
 20
2390.00000
 11
1985.00012
 21
2390.00000
  0
TEXT
  8
3
 7
SIMPLEX
 10
1580.58240
 20
3366.72778
 40
191.164413
  1
ES-13
 50
  90.000
  0
LINE
  8
1
 10
1985.00012
 20
5694.99951
 11
2985.00000
 21
5694.99951
  0
LINE
  8
1
 10
1985.00012
 20
2390.00000
 11
1985.00012
 21
5694.99951
  0
LINE
  8
1
 10
2985.00000
 20
2390.00000
 11
2985.00000
 21
5694.99951
  0
LINE
  8
1
 10
1985.00012
 20
2390.00000
 11
2985.00000
 21
2390.00000
  0
TEXT
  8
3
 7
SIMPLEX
 10
2580.58228
 20
3366.72778
 40
191.164413
  1
ES-13
 50
  90.000
  0
LINE
  8
1
 10
2985.00000
 20
5694.99951
 11
3985.00000
 21
5694.99951
  0
LINE
  8
1
 10
2985.00000
 20
2390.00000
 11
2985.00000
 21
5694.99951
  0
LINE
  8
1
 10
3985.00000
 20
2390.00000
 11
3985.00000
 21
5694.99951
  0
LINE
  8
1
 10
2985.00000
 20
2390.00000
 11
3985.00000
 21
2390.00000
  0
TEXT
  8
3
 7
SIMPLEX
 10
3580.58252
 20
3366.72778
 40
191.164413
  1
ES-13
 50
  90.000
  0
LINE
  8
1
 10
-14.999860
 20
8159.99951
 11
985.000122
 21
8159.99951
  0
LINE
  8
1
 10
-14.999860
 20
5750.22461
 11
-14.999860
 21
8159.99951
  0
LINE
  8
1
 10
985.000122
 20
5750.22461
 11
985.000122
 21
8159.99951
  0
LINE
  8
1
 10
-14.999860
 20
5750.22461
 11
985.000122
 21
5750.22461
  0
TEXT
  8
3
 7
SIMPLEX
 10
580.582336
 20
6520.21289
 40
191.164413
  1
ES-14
 50
  90.000
  0
LINE
  8
1
 10
985.000122
 20
8258.50000
 11
1985.00012
 21
8258.50000
  0
LINE
  8
1
 10
985.000122
 20
5750.22461
 11
985.000122
 21
8258.50000
  0
LINE
  8
1
 10
1985.00012
 20
5750.22461
 11
1985.00012
 21
8258.50000
  0
LINE
  8
1
 10
985.000122
 20
5750.22461
 11
1985.00012
 21
5750.22461
  0
TEXT
  8
3
 7
SIMPLEX
 10
1580.58240
 20
6569.46387
 40
191.164413
  1
ES-15
 50
  90.000
  0
LINE
  8
1
 10
1985.00012
 20
8358.50000
 11
2985.00000
 21
8358.50000
  0
LINE
  8
1
 10
1985.00012
 20
5750.22461
 11
1985.00012
 21
8358.50000
  0
LINE
  8
1
 10
2985.00000
 20
5750.22461
 11
2985.00000
 21
8358.50000
  0
LINE
  8
1
 10
1985.00012
 20
5750.22461
 11
2985.00000
 21
5750.22461
  0
TEXT
  8
3
 7
SIMPLEX
 10
2580.58228
 20
6619.46387
 40
191.164413
  1
ES-16
 50
  90.000
  0
LINE
  8
1
 10
2985.00000
 20
8458.50000
 11
3985.00000
 21
8458.50000
  0
LINE
  8
1
 10
2985.00000
 20
5750.22461
 11
2985.00000
 21
8458.50000
  0
LINE
  8
1
 10
3985.00000
 20
5750.22461
 11
3985.00000
 21
8458.50000
  0
LINE
  8
1
 10
2985.00000
 20
5750.22461
 11
3985.00000
 21
5750.22461
  0
TEXT
  8
3
 7
SIMPLEX
 10
3580.58252
 20
6669.46387
 40
191.164413
  1
ES-17
 50
  90.000
  0
LINE
  8
1
 10
3985.00000
 20
5695.00049
 11
4985.00049
 21
5695.00049
  0
LINE
  8
1
 10
3985.00000
 20
4500.00000
 11
3985.00000
 21
5695.00049
  0
LINE
  8
1
 10
4985.00049
 20
4500.00000
 11
4985.00049
 21
5695.00049
  0
LINE
  8
1
 10
3985.00000
 20
4500.00000
 11
4985.00049
 21
4500.00000
  0
TEXT
  8
3
 7
SIMPLEX
 10
4580.58252
 20
4500.00000
 40
191.164413
  1
ES-18
 50
  90.000
  0
LINE
  8
1
 10
4985.00049
 20
5695.00049
 11
5985.00049
 21
5695.00049
  0
LINE
  8
1
 10
4985.00049
 20
4500.00000
 11
4985.00049
 21
5695.00049
  0
LINE
  8
1
 10
5985.00049
 20
4500.00000
 11
5985.00049
 21
5695.00049
  0
LINE
  8
1
 10
4985.00049
 20
4500.00000
 11
5985.00049
 21
4500.00000
  0
TEXT
  8
3
 7
SIMPLEX
 10
5580.58252
 20
4500.00000
 40
191.164413
  1
ES-18
 50
  90.000
  0
LINE
  8
1
 10
5985.00049
 20
5695.00049
 11
6985.00049
 21
5695.00049
  0
LINE
  8
1
 10
5985.00049
 20
4500.00000
 11
5985.00049
 21
5695.00049
  0
LINE
  8
1
 10
6985.00049
 20
4500.00000
 11
6985.00049
 21
5695.00049
  0
LINE
  8
1
 10
5985.00049
 20
4500.00000
 11
6985.00049
 21
4500.00000
  0
TEXT
  8
3
 7
SIMPLEX
 10
6580.58252
 20
4500.00000
 40
191.164413
  1
ES-18
 50
  90.000
  0
LINE
  8
1
 10
3985.00000
 20
8558.50000
 11
4985.00049
 21
8558.50000
  0
LINE
  8
1
 10
3985.00000
 20
5750.22461
 11
3985.00000
 21
8558.50000
  0
LINE
  8
1
 10
4985.00049
 20
5750.22461
 11
4985.00049
 21
8558.50000
  0
LINE
  8
1
 10
3985.00000
 20
5750.22461
 11
4985.00049
 21
5750.22461
  0
TEXT
  8
3
 7
SIMPLEX
 10
4580.58252
 20
6719.46387
 40
191.164413
  1
ES-19
 50
  90.000
  0
LINE
  8
1
 10
4985.00049
 20
8658.50000
 11
5985.00049
 21
8658.50000
  0
LINE
  8
1
 10
4985.00049
 20
5750.22461
 11
4985.00049
 21
8658.50000
  0
LINE
  8
1
 10
5985.00049
 20
5750.22461
 11
5985.00049
 21
8658.50000
  0
LINE
  8
1
 10
4985.00049
 20
5750.22461
 11
5985.00049
 21
5750.22461
  0
TEXT
  8
3
 7
SIMPLEX
 10
5580.58252
 20
6736.00977
 40
191.164413
  1
ES-20
 50
  90.000
  0
LINE
  8
1
 10
5985.00049
 20
8758.49902
 11
6985.00049
 21
8758.49902
  0
LINE
  8
1
 10
5985.00049
 20
5750.22461
 11
5985.00049
 21
8758.49902
  0
LINE
  8
1
 10
6985.00049
 20
5750.22461
 11
6985.00049
 21
8758.49902
  0
LINE
  8
1
 10
5985.00049
 20
5750.22461
 11
6985.00049
 21
5750.22461
  0
TEXT
  8
3
 7
SIMPLEX
 10
6580.58252
 20
6819.46289
 40
191.164413
  1
ES-21
 50
  90.000
  0
LINE
  8
1
 10
6985.00049
 20
5694.99951
 11
7985.00098
 21
5694.99951
  0
LINE
  8
1
 10
6985.00049
 20
2390.00000
 11
6985.00049
 21
5694.99951
  0
LINE
  8
1
 10
7985.00098
 20
2390.00000
 11
7985.00098
 21
5694.99951
  0
LINE
  8
1
 10
6985.00049
 20
2390.00000
 11
7985.00098
 21
2390.00000
  0
TEXT
  8
3
 7
SIMPLEX
 10
7580.58301
 20
3366.72778
 40
191.164413
  1
ES-13
 50
  90.000
  0
LINE
  8
1
 10
7985.00098
 20
5694.99951
 11
8985.00098
 21
5694.99951
  0
LINE
  8
1
 10
7985.00098
 20
2390.00000
 11
7985.00098
 21
5694.99951
  0
LINE
  8
1
 10
8985.00098
 20
2390.00000
 11
8985.00098
 21
5694.99951
  0
LINE
  8
1
 10
7985.00098
 20
2390.00000
 11
8985.00098
 21
2390.00000
  0
TEXT
  8
3
 7
SIMPLEX
 10
8580.58301
 20
3366.72778
 40
191.164413
  1
ES-13
 50
  90.000
  0
LINE
  8
1
 10
8985.00098
 20
5694.99951
 11
9985.00098
 21
5694.99951
  0
LINE
  8
1
 10
8985.00098
 20
2390.00000
 11
8985.00098
 21
5694.99951
  0
LINE
  8
1
 10
9985.00098
 20
2390.00000
 11
9985.00098
 21
5694.99951
  0
LINE
  8
1
 10
8985.00098
 20
2390.00000
 11
9985.00098
 21
2390.00000
  0
TEXT
  8
3
 7
SIMPLEX
 10
9580.58301
 20
3366.72778
 40
191.164413
  1
ES-13
 50
  90.000
  0
LINE
  8
1
 10
9985.00098
 20
5694.99951
 11
10985.0010
 21
5694.99951
  0
LINE
  8
1
 10
9985.00098
 20
2390.00000
 11
9985.00098
 21
5694.99951
  0
LINE
  8
1
 10
10985.0010
 20
2390.00000
 11
10985.0010
 21
5694.99951
  0
LINE
  8
1
 10
9985.00098
 20
2390.00000
 11
10985.0010
 21
2390.00000
  0
TEXT
  8
3
 7
SIMPLEX
 10
10580.5830
 20
3366.72778
 40
191.164413
  1
ES-13
 50
  90.000
  0
LINE
  8
1
 10
6985.00049
 20
8858.49902
 11
7985.00098
 21
8858.49902
  0
LINE
  8
1
 10
6985.00049
 20
5750.22461
 11
6985.00049
 21
8858.49902
  0
LINE
  8
1
 10
7985.00098
 20
5750.22461
 11
7985.00098
 21
8858.49902
  0
LINE
  8
1
 10
6985.00049
 20
5750.22461
 11
7985.00098
 21
5750.22461
  0
TEXT
  8
3
 7
SIMPLEX
 10
7580.58301
 20
6836.00879
 40
191.164413
  1
ES-22
 50
  90.000
  0
LINE
  8
1
 10
7985.00098
 20
8958.50000
 11
8985.00098
 21
8958.50000
  0
LINE
  8
1
 10
7985.00098
 20
5750.22461
 11
7985.00098
 21
8958.50000
  0
LINE
  8
1
 10
8985.00098
 20
5750.22461
 11
8985.00098
 21
8958.50000
  0
LINE
  8
1
 10
7985.00098
 20
5750.22461
 11
8985.00098
 21
5750.22461
  0
TEXT
  8
3
 7
SIMPLEX
 10
8580.58301
 20
6886.00879
 40
191.164413
  1
ES-23
 50
  90.000
  0
LINE
  8
1
 10
8985.00098
 20
9058.50000
 11
9985.00098
 21
9058.50000
  0
LINE
  8
1
 10
8985.00098
 20
5750.22461
 11
8985.00098
 21
9058.50000
  0
LINE
  8
1
 10
9985.00098
 20
5750.22461
 11
9985.00098
 21
9058.50000
  0
LINE
  8
1
 10
8985.00098
 20
5750.22461
 11
9985.00098
 21
5750.22461
  0
TEXT
  8
3
 7
SIMPLEX
 10
9580.58301
 20
6936.00879
 40
191.164413
  1
ES-24
 50
  90.000
  0
LINE
  8
1
 10
9985.00098
 20
9158.50000
 11
10985.0010
 21
9158.50000
  0
LINE
  8
1
 10
9985.00098
 20
5750.22461
 11
9985.00098
 21
9158.50000
  0
LINE
  8
1
 10
10985.0010
 20
5750.22461
 11
10985.0010
 21
9158.50000
  0
LINE
  8
1
 10
9985.00098
 20
5750.22461
 11
10985.0010
 21
5750.22461
  0
TEXT
  8
3
 7
SIMPLEX
 10
10580.5830
 20
6986.00879
 40
191.164413
  1
ES-25
 50
  90.000
  0
LINE
  8
1
 10
10735.0000
 20
9233.50000
 11
11735.0010
 21
9233.50000
  0
LINE
  8
1
 10
10735.0000
 20
2390.00000
 11
10735.0000
 21
9233.50000
  0
LINE
  8
1
 10
11735.0010
 20
2390.00000
 11
11735.0010
 21
9233.50000
  0
LINE
  8
1
 10
10735.0000
 20
2390.00000
 11
11735.0010
 21
2390.00000
  0
TEXT
  8
3
 7
SIMPLEX
 10
11330.5830
 20
7175.22412
 40
191.164413
  1
ES-12
 50
  90.000
  0
LINE
  8
1
 10
11485.0000
 20
9158.50000
 11
12485.0010
 21
9158.50000
  0
LINE
  8
1
 10
11485.0000
 20
2390.00000
 11
11485.0000
 21
9158.50000
  0
LINE
  8
1
 10
12485.0010
 20
2390.00000
 11
12485.0010
 21
9158.50000
  0
LINE
  8
1
 10
11485.0000
 20
2390.00000
 11
12485.0010
 21
2390.00000
  0
TEXT
  8
3
 7
SIMPLEX
 10
12080.5830
 20
5372.80469
 40
191.164413
  1
ES-11
 50
  90.000
  0
LINE
  8
1
 10
12485.0000
 20
9058.50000
 11
13485.0000
 21
9058.50000
  0
LINE
  8
1
 10
12485.0000
 20
2390.00000
 11
12485.0000
 21
9058.50000
  0
LINE
  8
1
 10
13485.0000
 20
2390.00000
 11
13485.0000
 21
9058.50000
  0
LINE
  8
1
 10
12485.0000
 20
2390.00000
 11
13485.0000
 21
2390.00000
  0
TEXT
  8
3
 7
SIMPLEX
 10
13080.5830
 20
5289.35059
 40
191.164413
  1
ES-10
 50
  90.000
  0
LINE
  8
1
 10
13485.0000
 20
8958.50000
 11
14484.9980
 21
8958.50000
  0
LINE
  8
1
 10
13485.0000
 20
2390.00000
 11
13485.0000
 21
8958.50000
  0
LINE
  8
1
 10
14484.9980
 20
2390.00000
 11
14484.9980
 21
8958.50000
  0
LINE
  8
1
 10
13485.0000
 20
2390.00000
 11
14484.9980
 21
2390.00000
  0
TEXT
  8
3
 7
SIMPLEX
 10
14080.5820
 20
5301.47900
 40
191.164413
  1
ES-9
 50
  90.000
  0
LINE
  8
1
 10
14484.9980
 20
8858.50000
 11
15484.9980
 21
8858.50000
  0
LINE
  8
1
 10
14484.9980
 20
2390.00000
 11
14484.9980
 21
8858.50000
  0
LINE
  8
1
 10
15484.9980
 20
2390.00000
 11
15484.9980
 21
8858.50000
  0
LINE
  8
1
 10
14484.9980
 20
2390.00000
 11
15484.9980
 21
2390.00000
  0
TEXT
  8
3
 7
SIMPLEX
 10
15080.5820
 20
5251.47949
 40
191.164413
  1
ES-8
 50
  90.000
  0
LINE
  8
1
 10
15484.9980
 20
8758.50000
 11
16484.9980
 21
8758.50000
  0
LINE
  8
1
 10
15484.9980
 20
2390.00000
 11
15484.9980
 21
8758.50000
  0
LINE
  8
1
 10
16484.9980
 20
2390.00000
 11
16484.9980
 21
8758.50000
  0
LINE
  8
1
 10
15484.9980
 20
2390.00000
 11
16484.9980
 21
2390.00000
  0
TEXT
  8
3
 7
SIMPLEX
 10
16080.5811
 20
5201.47949
 40
191.164413
  1
ES-7
 50
  90.000
  0
LINE
  8
1
 10
16484.9980
 20
8658.50000
 11
17484.9980
 21
8658.50000
  0
LINE
  8
1
 10
16484.9980
 20
2390.00000
 11
16484.9980
 21
8658.50000
  0
LINE
  8
1
 10
17484.9980
 20
2390.00000
 11
17484.9980
 21
8658.50000
  0
LINE
  8
1
 10
16484.9980
 20
2390.00000
 11
17484.9980
 21
2390.00000
  0
TEXT
  8
3
 7
SIMPLEX
 10
17080.5801
 20
5151.47949
 40
191.164413
  1
ES-6
 50
  90.000
  0
LINE
  8
1
 10
17484.9980
 20
8558.50000
 11
18484.9961
 21
8558.50000
  0
LINE
  8
1
 10
17484.9980
 20
2390.00000
 11
17484.9980
 21
8558.50000
  0
LINE
  8
1
 10
18484.9961
 20
2390.00000
 11
18484.9961
 21
8558.50000
  0
LINE
  8
1
 10
17484.9980
 20
2390.00000
 11
18484.9961
 21
2390.00000
  0
TEXT
  8
3
 7
SIMPLEX
 10
18080.5801
 20
5101.47900
 40
191.164413
  1
ES-5
 50
  90.000
  0
LINE
  8
1
 10
18484.9961
 20
8458.50000
 11
19484.9961
 21
8458.50000
  0
LINE
  8
1
 10
18484.9961
 20
2390.00000
 11
18484.9961
 21
8458.50000
  0
LINE
  8
1
 10
19484.9961
 20
2390.00000
 11
19484.9961
 21
8458.50000
  0
LINE
  8
1
 10
18484.9961
 20
2390.00000
 11
19484.9961
 21
2390.00000
  0
TEXT
  8
3
 7
SIMPLEX
 10
19080.5801
 20
5051.47900
 40
191.164413
  1
ES-4
 50
  90.000
  0
LINE
  8
1
 10
19484.9961
 20
8358.50000
 11
20484.9961
 21
8358.50000
  0
LINE
  8
1
 10
19484.9961
 20
2390.00000
 11
19484.9961
 21
8358.50000
  0
LINE
  8
1
 10
20484.9961
 20
2390.00000
 11
20484.9961
 21
8358.50000
  0
LINE
  8
1
 10
19484.9961
 20
2390.00000
 11
20484.9961
 21
2390.00000
  0
TEXT
  8
3
 7
SIMPLEX
 10
20080.5781
 20
5001.47900
 40
191.164413
  1
ES-3
 50
  90.000
  0
LINE
  8
1
 10
20484.9961
 20
8258.50000
 11
21484.9961
 21
8258.50000
  0
LINE
  8
1
 10
20484.9961
 20
2390.00000
 11
20484.9961
 21
8258.50000
  0
LINE
  8
1
 10
21484.9961
 20
2390.00000
 11
21484.9961
 21
8258.50000
  0
LINE
  8
1
 10
20484.9961
 20
2390.00000
 11
21484.9961
 21
2390.00000
  0
TEXT
  8
3
 7
SIMPLEX
 10
21080.5781
 20
4951.47900
 40
191.164413
  1
ES-2
 50
  90.000
  0
LINE
  8
1
 10
21484.9961
 20
8159.99951
 11
22484.9941
 21
8159.99951
  0
LINE
  8
1
 10
21484.9961
 20
2390.00000
 11
21484.9961
 21
8159.99951
  0
LINE
  8
1
 10
22484.9941
 20
2390.00000
 11
22484.9941
 21
8159.99951
  0
LINE
  8
1
 10
21484.9961
 20
2390.00000
 11
22484.9941
 21
2390.00000
  0
TEXT
  8
3
 7
SIMPLEX
 10
22080.5781
 20
4935.68262
 40
191.164413
  1
ES-1
 50
  90.000
999
END:     AREA=Wall Panel
999
START:   AREA=Panel Start Dim
  0
LINE
  8
12
 10
0.00000000
 20
-611.72614
 11
0.00000000
 21
-850.68158
  0
LINE
  8
12
 10
985.000122
 20
-611.72614
 11
985.000122
 21
-850.68158
  0
LINE
  8
2
 10
0.00000000
 20
-802.89050
 11
985.000122
 21
-802.89050
  0
INSERT
  8
2
  2
ARROW
 10
0.00000000
 20
-802.89050
 41
1.00000000
 42
1.00000000
 43
1.00000000
 50
 180.000
  0
INSERT
  8
2
  2
ARROW
 10
985.000122
 20
-802.89050
 41
1.00000000
 42
1.00000000
 43
1.00000000
 50
   0.000
  0
TEXT
  8
11
 7
SIMPLEX
 10
205.753449
 20
-739.16907
 40
191.164413
  1
985
 50
   0.000
  0
TEXT
  8
15
 7
SIMPLEX
 10
985.000122
 20
-1089.6372
 40
191.164413
  1
Panel Start
 50
   0.000
  0
LINE
  8
12
 10
21484.9961
 20
-611.72614
 11
21484.9961
 21
-850.68158
  0
LINE
  8
12
 10
22470.0000
 20
-611.72614
 11
22470.0000
 21
-850.68158
  0
LINE
  8
2
 10
21484.9961
 20
-802.89050
 11
22470.0000
 21
-802.89050
  0
INSERT
  8
2
  2
ARROW
 10
21484.9961
 20
-802.89050
 41
1.00000000
 42
1.00000000
 43
1.00000000
 50
 180.000
  0
INSERT
  8
2
  2
ARROW
 10
22470.0000
 20
-802.89050
 41
1.00000000
 42
1.00000000
 43
1.00000000
 50
   0.000
  0
TEXT
  8
11
 7
SIMPLEX
 10
21690.7520
 20
-739.16907
 40
191.164413
  1
985
 50
   0.000
  0
TEXT
  8
15
 7
SIMPLEX
 10
19525.5605
 20
-1089.6372
 40
191.164413
  1
Panel Start
 50
   0.000
999
END:     AREA=Draw Panel Start Dim
999
START:   AREA=Door Panel
999
END:     AREA=Door Panel
999
START:   AREA=Draw Base Trim
999
END:     AREA=Draw Base Trim
999
START:   AREA=Draw Adjacent Base Trim
  0
LINE
  8
1
 10
-779.65753
 20
2500.00000
 11
-550.26019
 21
2500.00000
  0
LINE
  8
1
 10
-550.26019
 20
2500.00000
 11
-550.26019
 21
8169.99951
  0
LINE
  8
1
 10
-550.26019
 20
8169.99951
 11
-779.65753
 21
8169.99951
  0
LINE
  8
1
 10
-779.65753
 20
8169.99951
 11
-779.65753
 21
2500.00000
  0
TEXT
  8
2
 7
SIMPLEX
 10
-1087.1932
 20
5263.31348
 40
143.373306
  1
1
 50
   0.000
  0
INSERT
  8
2
  2
DIAMOND
 10
-1040.5970
 20
5119.93994
 41
16.9338551
 42
16.9338551
 43
16.9338551
 50
   0.000
  0
LINE
  8
1
 10
23249.6523
 20
8169.99951
 11
23020.2559
 21
8169.99951
  0
LINE
  8
1
 10
23020.2559
 20
8169.99951
 11
23020.2559
 21
2500.00000
  0
LINE
  8
1
 10
23020.2559
 20
2500.00000
 11
23249.6523
 21
2500.00000
  0
LINE
  8
1
 10
23249.6523
 20
2500.00000
 11
23249.6523
 21
8169.99951
  0
TEXT
  8
2
 7
SIMPLEX
 10
23463.9961
 20
5263.31348
 40
143.373306
  1
1
 50
   0.000
  0
INSERT
  8
2
  2
DIAMOND
 10
23510.5918
 20
5119.93994
 41
16.9338551
 42
16.9338551
 43
16.9338551
 50
   0.000
  0
TEXT
  8
2
 7
SIMPLEX
 10
1637.31323
 20
2167.37378
 40
143.373306
  1
7
 50
   0.000
  0
INSERT
  8
2
  2
DIAMOND
 10
1708.99988
 20
2024.00061
 41
16.9338551
 42
16.9338551
 43
16.9338551
 50
   0.000
  0
LINE
  8
1
 10
266.301971
 20
8734.55957
 11
243.476074
 21
8962.81836
  0
LINE
  8
1
 10
243.476074
 20
8962.81836
 11
10839.3516
 21
10022.4063
  0
LINE
  8
1
 10
10839.3516
 20
10022.4063
 11
10862.1768
 21
9794.14746
  0
LINE
  8
1
 10
10862.1768
 20
9794.14746
 11
266.301971
 21
8734.55957
  0
TEXT
  8
2
 7
SIMPLEX
 10
5451.25098
 20
9673.79297
 40
143.373306
  1
3
 50
   5.711
  0
INSERT
  8
2
  2
DIAMOND
 10
5536.84814
 20
9538.26465
 41
16.9338551
 42
16.9338551
 43
16.9338551
 50
   5.711
  0
LINE
  8
1
 10
-53.260563
 20
8702.60352
 11
-76.086304
 21
8930.86230
  0
LINE
  8
1
 10
-76.086304
 20
8930.86230
 11
152.172562
 21
8953.68848
  0
LINE
  8
1
 10
152.172562
 20
8953.68848
 11
174.998306
 21
8725.42969
  0
LINE
  8
1
 10
174.998306
 20
8725.42969
 11
-53.260563
 21
8702.60352
  0
TEXT
  8
2
 7
SIMPLEX
 10
-52.119110
 20
9123.45605
 40
143.373306
  1
4
 50
   5.711
  0
INSERT
  8
2
  2
DIAMOND
 10
33.4779549
 20
8987.92676
 41
16.9338551
 42
16.9338551
 43
16.9338551
 50
   5.711
  0
LINE
  8
1
 10
11607.8232
 20
9794.14746
 11
11630.6484
 21
10022.4063
  0
LINE
  8
1
 10
11630.6484
 20
10022.4063
 11
22226.5254
 21
8962.81836
  0
LINE
  8
1
 10
22226.5254
 20
8962.81836
 11
22203.6992
 21
8734.55957
  0
LINE
  8
1
 10
22203.6992
 20
8734.55957
 11
11607.8232
 21
9794.14746
  0
TEXT
  8
2
 7
SIMPLEX
 10
16876.0879
 20
9688.05859
 40
143.373306
  1
3
 50
  -5.711
  0
INSERT
  8
2
  2
DIAMOND
 10
16933.1523
 20
9538.26465
 41
16.9338551
 42
16.9338551
 43
16.9338551
 50
  -5.711
  0
LINE
  8
1
 10
11005.6025
 20
9828.76074
 11
11005.6025
 21
10058.1582
  0
LINE
  8
1
 10
11005.6025
 20
10058.1582
 11
11464.3975
 21
10058.1582
  0
LINE
  8
1
 10
11464.3975
 20
10058.1582
 11
11464.3975
 21
9828.76074
  0
LINE
  8
1
 10
11464.3975
 20
9828.76074
 11
11005.6025
 21
9828.76074
  0
TEXT
  8
2
 7
SIMPLEX
 10
11163.3135
 20
10247.4111
 40
143.373306
  1
5
 50
   0.000
  0
INSERT
  8
2
  2
DIAMOND
 10
11235.0000
 20
10104.0371
 41
16.9338551
 42
16.9338551
 43
16.9338551
 50
   0.000
  0
LINE
  8
1
 10
22295.0039
 20
8725.42969
 11
22317.8281
 21
8953.68848
  0
LINE
  8
1
 10
22317.8281
 20
8953.68848
 11
22546.0879
 21
8930.86230
  0
LINE
  8
1
 10
22546.0879
 20
8930.86230
 11
22523.2617
 21
8702.60352
  0
LINE
  8
1
 10
22523.2617
 20
8702.60352
 11
22295.0039
 21
8725.42969
  0
TEXT
  8
2
 7
SIMPLEX
 10
22379.4590
 20
9137.72168
 40
143.373306
  1
6
 50
  -5.711
  0
INSERT
  8
2
  2
DIAMOND
 10
22436.5234
 20
8987.92676
 41
16.9338551
 42
16.9338551
 43
16.9338551
 50
  -5.711
999
START:   AREA=Draw Parapet Cap Trim
999
START:   AREA=Draw Framed Open Trim
  0
TEXT
  8
2
 7
SIMPLEX
 10
3607.25220
 20
3761.64697
 40
143.373306
  1
8
 50
   0.000
  0
INSERT
  8
2
  2
DIAMOND
 10
3678.93896
 20
3618.27368
 41
16.9338551
 42
16.9338551
 43
16.9338551
 50
   0.000
  0
TEXT
  8
2
 7
SIMPLEX
 10
7585.37451
 20
3761.64697
 40
143.373306
  1
8
 50
   0.000
  0
INSERT
  8
2
  2
DIAMOND
 10
7657.06104
 20
3618.27368
 41
16.9338551
 42
16.9338551
 43
16.9338551
 50
   0.000
  0
TEXT
  8
2
 7
SIMPLEX
 10
4846.31348
 20
4167.37402
 40
143.373306
  1
9
 50
   0.000
  0
INSERT
  8
2
  2
DIAMOND
 10
4918.00000
 20
4024.00073
 41
16.9338551
 42
16.9338551
 43
16.9338551
 50
   0.000
999
END:     AREA=Draw Framed Open Trim
999
START:   AREA=Parapet Trim
999
END:     AREA=Parapet Trim
999
START:   AREA=Partial Wall Angles
  0
LINE
  8
5
 10
0.00000000
 20
0.00000000
 11
0.00000000
 21
2500.00000
  0
LINE
  8
5
 10
22470.0000
 20
0.00000000
 11
22470.0000
 21
2500.00000
  0
LINE
  8
5
 10
0.00000000
 20
2500.00000
 11
3417.99976
 21
2500.00000
  0
LINE
  8
5
 10
7918.00049
 20
2500.00000
 11
22470.0000
 21
2500.00000
999
END:     AREA=Partial Wall Angles
999
START:   AREA=Dimensions
  0
LINE
  8
2
 10
-2255.8474
 20
10226.3818
 11
-1633.3677
 21
10585.7715
  0
LINE
  8
2
 10
-2176.3818
 20
10272.2607
 11
-1712.8330
 21
10272.2607
  0
LINE
  8
2
 10
-1712.8330
 20
10539.8926
 11
-1712.8330
 21
10272.2607
  0
TEXT
  8
11
 7
SIMPLEX
 10
-1617.2507
 20
10272.2607
 40
191.164413
  1
10.0
 50
   0.000
  0
TEXT
  8
11
 7
SIMPLEX
 10
-2040.1896
 20
9985.51465
 40
191.164413
  1
100
 50
   0.000
  0
LINE
  8
2
 10
24725.8457
 20
10226.3818
 11
24103.3652
 21
10585.7715
  0
LINE
  8
2
 10
24646.3809
 20
10272.2607
 11
24182.8301
 21
10272.2607
  0
LINE
  8
2
 10
24182.8301
 20
10539.8926
 11
24182.8301
 21
10272.2607
  0
TEXT
  8
11
 7
SIMPLEX
 10
23418.1738
 20
10272.2607
 40
191.164413
  1
10.0
 50
   0.000
  0
TEXT
  8
11
 7
SIMPLEX
 10
24319.0234
 20
9985.51465
 40
191.164413
  1
100
 50
   0.000
999
START:   AREA=Draw End Grids
  0
LINE
  8
12
 10
0.00000000
 20
10518.8643
 11
0.00000000
 21
10840.0205
  0
CIRCLE
  8
13
 10
0.00000000
 20
11069.4180
 40
229.397278
  0
TEXT
  8
13
 7
SIMPLEX
 10
-103.22878
 20
10966.1895
 40
206.457550
  1
A
 72
           1
 11
0.00000000
 21
10966.1895
 50
   0.000
  0
LINE
  8
12
 10
22470.0000
 20
10518.8643
 11
22470.0000
 21
10840.0205
  0
CIRCLE
  8
13
 10
22470.0000
 20
11069.4180
 40
229.397278
  0
TEXT
  8
13
 7
SIMPLEX
 10
22366.7715
 20
10966.1895
 40
206.457550
  1
C
 72
           1
 11
22470.0000
 21
10966.1895
 50
   0.000
  0
LINE
  8
12
 10
11235.0000
 20
10518.8643
 11
11235.0000
 21
10840.0205
  0
CIRCLE
  8
13
 10
11235.0000
 20
11069.4180
 40
229.397278
  0
TEXT
  8
13
 7
SIMPLEX
 10
11131.7715
 20
10966.1895
 40
206.457550
  1
B
 72
           1
 11
11235.0000
 21
10966.1895
 50
   0.000
999
END:     AREA=Draw End Grids
999
END:     AREA=Dimensions
999
START:   AREA=Extensions
  0
LINE
  8
5
 10
0.00000000
 20
5296.80029
 11
11235.0000
 21
5296.80029
  0
LINE
  8
5
 10
11235.0000
 20
5500.00049
 11
11235.0000
 21
5296.80029
  0
LINE
  8
5
 10
0.00000000
 20
5500.00049
 11
0.00000000
 21
5296.80029
  0
LINE
  8
5
 10
11235.0000
 20
5500.00049
 11
11235.0000
 21
5700.00000
  0
LINE
  8
5
 10
0.00000000
 20
5700.00000
 11
0.00000000
 21
5500.00049
  0
LINE
  8
5
 10
11235.0000
 20
5700.00000
 11
0.00000000
 21
5700.00000
  0
TEXT
  8
2
 7
SIMPLEX
 10
7371.71729
 20
5889.25293
 40
143.373306
  1
10
 50
   0.000
  0
INSERT
  8
2
  2
DIAMOND
 10
7490.00000
 20
5745.87988
 41
16.9338551
 42
16.9338551
 43
16.9338551
 50
   0.000
  0
TEXT
  8
3
 7
SIMPLEX
 10
5044.00684
 20
5373.26611
 40
191.164413
  1
Canopy
 50
   0.000
999
END:     AREA=Extensions
999
START:   AREA=Draw Panel Title
  0
TEXT
  8
15
 7
SIMPLEX
 10
6035.32813
 20
-1873.4113
 40
305.863068
  1
ENDWALL SHEETING & TRIM: FRAME LINE 7
 72
           1
 11
11235.0000
 21
-1873.4113
 50
   0.000
999
END:     AREA=Draw Panel Title
  0
ENDBLK
  8
0
999
START:   AREA=Tables
  0
BLOCK
  8
1
  2
EW2TRIM
 70
     0
 10
0.00000000
 20
0.00000000
  0
TEXT
  8
14
 7
SIMPLEX
 10
-5448.1855
 20
-238.95552
 40
191.164413
  1
TRIM TABLE
 50
   0.000
  0
TEXT
  8
14
 7
SIMPLEX
 10
-5448.1855
 20
-525.70209
 40
191.164413
  1
FRAME LINE 1 & 7
 50
   0.000
  0
TEXT
  8
14
 7
SIMPLEX
 10
-5257.0215
 20
-812.44873
 40
191.164413
  1
ID
 50
   0.000
  0
TEXT
  8
14
 7
SIMPLEX
 10
-4779.1104
 20
-812.44873
 40
191.164413
  1
QUAN
 50
   0.000
  0
TEXT
  8
14
 7
SIMPLEX
 10
-3823.2881
 20
-812.44873
 40
191.164413
  1
PART
 50
   0.000
  0
TEXT
  8
14
 7
SIMPLEX
 10
-2102.8083
 20
-812.44873
 40
191.164413
  1
LENGTH
 50
   0.000
  0
LINE
  8
14
 10
-5495.9766
 20
-716.86646
 11
-5400.3945
 21
-621.28430
  0
LINE
  8
14
 10
-5400.3945
 20
-621.28430
 11
-5304.8120
 21
-716.86646
  0
LINE
  8
14
 10
-5304.8120
 20
-716.86646
 11
-5400.3945
 21
-812.44873
  0
LINE
  8
14
 10
-5400.3945
 20
-812.44873
 11
-5495.9766
 21
-716.86646
  0
TEXT
  8
26
 7
SIMPLEX
 10
-5142.3223
 20
-1099.1954
 40
191.164413
  1
1
 72
           2
 11
-5018.0659
 21
-1099.1954
 50
   0.000
  0
TEXT
  8
26
 7
SIMPLEX
 10
-4396.7813
 20
-1099.1954
 40
191.164413
  1
8
 72
           2
 11
-4205.6167
 21
-1099.1954
 50
   0.000
  0
TEXT
  8
26
 7
SIMPLEX
 10
-3823.2881
 20
-1099.1954
 40
191.164413
  1
CT-02
 50
   0.000
  0
TEXT
  8
26
 7
SIMPLEX
 10
-2102.8083
 20
-1099.1954
 40
191.164413
  1
   5600
 50
   0.000
  0
TEXT
  8
26
 7
SIMPLEX
 10
-5209.2300
 20
-1385.9420
 40
191.164413
  1
2
 72
           2
 11
-5018.0659
 21
-1385.9420
 50
   0.000
  0
TEXT
  8
26
 7
SIMPLEX
 10
-4396.7813
 20
-1385.9420
 40
191.164413
  1
5
 72
           2
 11
-4205.6167
 21
-1385.9420
 50
   0.000
  0
TEXT
  8
26
 7
SIMPLEX
 10
-3823.2881
 20
-1385.9420
 40
191.164413
  1
DT-01
 50
   0.000
  0
TEXT
  8
26
 7
SIMPLEX
 10
-2102.8083
 20
-1385.9420
 40
191.164413
  1
   5600
 50
   0.000
  0
TEXT
  8
26
 7
SIMPLEX
 10
-5209.2300
 20
-1672.6886
 40
191.164413
  1
3
 72
           2
 11
-5018.0659
 21
-1672.6886
 50
   0.000
  0
TEXT
  8
26
 7
SIMPLEX
 10
-4587.9458
 20
-1672.6886
 40
191.164413
  1
20
 72
           2
 11
-4205.6167
 21
-1672.6886
 50
   0.000
  0
TEXT
  8
26
 7
SIMPLEX
 10
-3823.2881
 20
-1672.6886
 40
191.164413
  1
GT-01
 50
   0.000
  0
TEXT
  8
26
 7
SIMPLEX
 10
-2102.8083
 20
-1672.6886
 40
191.164413
  1
   5600
 50
   0.000
  0
TEXT
  8
26
 7
SIMPLEX
 10
-5209.2300
 20
-1959.4352
 40
191.164413
  1
4
 72
           2
 11
-5018.0659
 21
-1959.4352
 50
   0.000
  0
TEXT
  8
26
 7
SIMPLEX
 10
-4396.7813
 20
-1959.4352
 40
191.164413
  1
0
 72
           2
 11
-4205.6167
 21
-1959.4352
 50
   0.000
  0
TEXT
  8
26
 7
SIMPLEX
 10
-3823.2881
 20
-1959.4352
 40
191.164413
  1
SGA-001
 50
   0.000
  0
TEXT
  8
26
 7
SIMPLEX
 10
-2102.8083
 20
-1959.4352
 40
191.164413
  1
   3000
 50
   0.000
  0
TEXT
  8
26
 7
SIMPLEX
 10
-5209.2300
 20
-2246.1819
 40
191.164413
  1
5
 72
           2
 11
-5018.0659
 21
-2246.1819
 50
   0.000
  0
TEXT
  8
26
 7
SIMPLEX
 10
-4396.7813
 20
-2246.1819
 40
191.164413
  1
0
 72
           2
 11
-4205.6167
 21
-2246.1819
 50
   0.000
  0
TEXT
  8
26
 7
SIMPLEX
 10
-3823.2881
 20
-2246.1819
 40
191.164413
  1
P150X.63
 50
   0.000
  0
TEXT
  8
26
 7
SIMPLEX
 10
-2102.8083
 20
-2246.1819
 40
191.164413
  1
     25
 50
   0.000
  0
TEXT
  8
26
 7
SIMPLEX
 10
-5209.2300
 20
-2532.9285
 40
191.164413
  1
6
 72
           2
 11
-5018.0659
 21
-2532.9285
 50
   0.000
  0
TEXT
  8
26
 7
SIMPLEX
 10
-4396.7813
 20
-2532.9285
 40
191.164413
  1
0
 72
           2
 11
-4205.6167
 21
-2532.9285
 50
   0.000
  0
TEXT
  8
26
 7
SIMPLEX
 10
-3823.2881
 20
-2532.9285
 40
191.164413
  1
P20204
 50
   0.000
  0
TEXT
  8
26
 7
SIMPLEX
 10
-2102.8083
 20
-2532.9285
 40
191.164413
  1
     25
 50
   0.000
  0
TEXT
  8
26
 7
SIMPLEX
 10
-5209.2300
 20
-2819.6750
 40
191.164413
  1
7
 72
           2
 11
-5018.0659
 21
-2819.6750
 50
   0.000
  0
TEXT
  8
26
 7
SIMPLEX
 10
-4396.7813
 20
-2819.6750
 40
191.164413
  1
4
 72
           2
 11
-4205.6167
 21
-2819.6750
 50
   0.000
  0
TEXT
  8
26
 7
SIMPLEX
 10
-3823.2881
 20
-2819.6750
 40
191.164413
  1
DT-01
 50
   0.000
  0
TEXT
  8
26
 7
SIMPLEX
 10
-2102.8083
 20
-2819.6750
 40
191.164413
  1
   5600
 50
   0.000
  0
TEXT
  8
26
 7
SIMPLEX
 10
-5209.2300
 20
-3106.4219
 40
191.164413
  1
8
 72
           2
 11
-5018.0659
 21
-3106.4219
 50
   0.000
  0
TEXT
  8
26
 7
SIMPLEX
 10
-4396.7813
 20
-3106.4219
 40
191.164413
  1
2
 72
           2
 11
-4205.6167
 21
-3106.4219
 50
   0.000
  0
TEXT
  8
26
 7
SIMPLEX
 10
-3823.2881
 20
-3106.4219
 40
191.164413
  1
CTS-05
 50
   0.000
  0
TEXT
  8
26
 7
SIMPLEX
 10
-2102.8083
 20
-3106.4219
 40
191.164413
  1
   5600
 50
   0.000
  0
TEXT
  8
26
 7
SIMPLEX
 10
-5209.2300
 20
-3393.1680
 40
191.164413
  1
9
 72
           2
 11
-5018.0659
 21
-3393.1680
 50
   0.000
  0
TEXT
  8
26
 7
SIMPLEX
 10
-4329.8735
 20
-3393.1680
 40
191.164413
  1
1
 72
           2
 11
-4205.6167
 21
-3393.1680
 50
   0.000
  0
TEXT
  8
26
 7
SIMPLEX
 10
-3823.2881
 20
-3393.1680
 40
191.164413
  1
CTS-04
 50
   0.000
  0
TEXT
  8
26
 7
SIMPLEX
 10
-2102.8083
 20
-3393.1680
 40
191.164413
  1
   5600
 50
   0.000
  0
TEXT
  8
26
 7
SIMPLEX
 10
-5333.4873
 20
-3679.9143
 40
191.164413
  1
10
 72
           2
 11
-5018.0659
 21
-3679.9143
 50
   0.000
  0
TEXT
  8
26
 7
SIMPLEX
 10
-4396.7813
 20
-3679.9143
 40
191.164413
  1
3
 72
           2
 11
-4205.6167
 21
-3679.9143
 50
   0.000
  0
TEXT
  8
26
 7
SIMPLEX
 10
-3823.2881
 20
-3679.9143
 40
191.164413
  1
CT-05
 50
   0.000
  0
TEXT
  8
26
 7
SIMPLEX
 10
-2102.8083
 20
-3679.9143
 40
191.164413
  1
   5600
 50
   0.000
  0
LINE
  8
0
 10
-5543.7676
 20
0.00000000
 11
-5543.7676
 21
-3727.7061
  0
LINE
  8
0
 10
0.00000000
 20
0.00000000
 11
0.00000000
 21
-3727.7061
  0
LINE
  8
0
 10
-5543.7676
 20
0.00000000
 11
0.00000000
 21
0.00000000
  0
LINE
  8
0
 10
-5543.7676
 20
-3727.7061
 11
0.00000000
 21
-3727.7061
  0
LINE
  8
0
 10
-5543.7676
 20
-573.49323
 11
0.00000000
 21
-573.49323
  0
LINE
  8
0
 10
-4874.6924
 20
-573.49323
 11
-4874.6924
 21
-3727.7061
  0
LINE
  8
0
 10
-3918.8701
 20
-573.49323
 11
-3918.8701
 21
-3727.7061
  0
LINE
  8
0
 10
-2198.3904
 20
-573.49323
 11
-2198.3904
 21
-3727.7061
  0
LINE
  8
0
 10
-5543.7676
 20
-860.23987
 11
0.00000000
 21
-860.23987
  0
ENDBLK
  8
1
999
END:     AREA=Tables
  0
ENDSEC
  0
SECTION
  2
ENTITIES
  0
LINE
  8
22
 10
0.00000000
 20
0.00000000
 11
45977.9805
 21
0.00000000
  0
LINE
  8
22
 10
45977.9805
 20
0.00000000
 11
45977.9805
 21
32513.0020
  0
LINE
  8
22
 10
45977.9805
 20
32513.0020
 11
0.00000000
 21
32513.0020
  0
LINE
  8
22
 10
0.00000000
 20
32513.0020
 11
0.00000000
 21
0.00000000
  0
LINE
  8
0
 10
28460.3711
 20
0.00000000
 11
28460.3711
 21
2919.60181
  0
LINE
  8
0
 10
28460.3711
 20
2919.60181
 11
45977.9805
 21
2919.60181
  0
LINE
  8
0
 10
28460.3711
 20
0.00000000
 11
45977.9805
 21
0.00000000
  0
LINE
  8
0
 10
45977.9805
 20
0.00000000
 11
45977.9805
 21
2919.60181
  0
LINE
  8
0
 10
28460.3711
 20
1112.22925
 11
45977.9805
 21
1112.22925
  0
LINE
  8
0
 10
28460.3711
 20
1668.34387
 11
45977.9805
 21
1668.34387
  0
LINE
  8
0
 10
28460.3711
 20
2224.45850
 11
45977.9805
 21
2224.45850
  0
LINE
  8
0
 10
30962.8828
 20
0.00000000
 11
30962.8828
 21
2224.45850
  0
LINE
  8
0
 10
37219.1758
 20
0.00000000
 11
37219.1758
 21
2224.45850
  0
LINE
  8
0
 10
37219.1758
 20
556.114624
 11
45977.9805
 21
556.114624
  0
LINE
  8
0
 10
40277.8047
 20
1668.34387
 11
40277.8047
 21
1112.22925
  0
LINE
  8
0
 10
43058.3789
 20
1668.34387
 11
43058.3789
 21
1112.22925
  0
LINE
  8
0
 10
41668.0898
 20
1112.22925
 11
41668.0898
 21
556.114624
  0
TEXT
  8
14
 7
SIMPLEX
 10
28738.4258
 20
1807.37244
 40
278.057312
  1
PROJECT
 50
   0.000
  0
TEXT
  8
14
 7
SIMPLEX
 10
28738.4258
 20
1251.25793
 40
278.057312
  1
ID
 50
   0.000
  0
TEXT
  8
14
 7
SIMPLEX
 10
28738.4258
 20
695.143311
 40
278.057312
  1
PROJECT
 50
   0.000
  0
TEXT
  8
14
 7
SIMPLEX
 10
28738.4258
 20
139.028656
 40
278.057312
  1
ADDRESS
 50
   0.000
  0
TEXT
  8
14
 7
SIMPLEX
 10
31240.9414
 20
1807.37244
 40
278.057312
  1
Proposed Warehouse
 50
   0.000
  0
TEXT
  8
14
 7
SIMPLEX
 10
31240.9414
 20
1251.25793
 40
278.057312
  1
C323-153
 50
   0.000
  0
TEXT
  8
14
 7
SIMPLEX
 10
31240.9414
 20
695.143311
 40
278.057312
  1
Proposed Warehouse
 50
   0.000
  0
TEXT
  8
14
 7
SIMPLEX
 10
31240.9414
 20
139.028656
 40
278.057312
  1
PINE
 50
   0.000
  0
TEXT
  8
14
 7
SIMPLEX
 10
30615.3145
 20
2363.48730
 40
417.085999
  1
RECLA INTERNATIONAL PRIVATE LIMITED
 50
   0.000
  0
TEXT
  8
14
 7
SIMPLEX
 10
37497.2344
 20
1807.37244
 40
278.057312
  1
ENDWALL FRAMING
 50
   0.000
  0
TEXT
  8
14
 7
SIMPLEX
 10
37497.2344
 20
1251.25793
 40
278.057312
  1
DESIGN:
 50
   0.000
  0
TEXT
  8
14
 7
SIMPLEX
 10
37497.2344
 20
695.143311
 40
278.057312
  1
DATE:
 50
   0.000
  0
TEXT
  8
14
 7
SIMPLEX
 10
38915.3281
 20
695.143311
 40
278.057312
  1
23/JUL/2025
 50
   0.000
  0
TEXT
  8
14
 7
SIMPLEX
 10
40555.8633
 20
1251.25793
 40
278.057312
  1
DRAFT:
 50
   0.000
  0
TEXT
  8
14
 7
SIMPLEX
 10
43336.4375
 20
1251.25793
 40
278.057312
  1
CHECK:
 50
   0.000
  0
TEXT
  8
14
 7
SIMPLEX
 10
41807.1211
 20
695.143311
 40
278.057312
  1
SHEET
 50
   0.000
  0
TEXT
  8
14
 7
SIMPLEX
 10
44309.6406
 20
695.143311
 40
278.057312
  1
OF
 50
   0.000
  0
TEXT
  8
14
 7
SIMPLEX
 10
43197.4102
 20
695.143311
 40
278.057312
  1
 
 50
   0.000
999
FIELD:@PAGE_ID
  0
TEXT
  8
14
 7
SIMPLEX
 10
44865.7539
 20
695.143311
 40
278.057312
  1
 
 50
   0.000
999
FIELD:@PAGE_TOTAL
  0
INSERT
  8
0
  2
EW1PNL
 10
8969.03418
 20
20119.5254
 41
1.00000000
 42
1.00000000
 43
1.00000000
 50
   0.000
  0
INSERT
  8
0
  2
EW2PNL
 10
8969.03418
 20
6252.22998
 41
1.00000000
 42
1.00000000
 43
1.00000000
 50
   0.000
  0
INSERT
  8
0
  2
EW2TRIM
 10
45977.9805
 20
32513.0020
 41
1.00000000
 42
1.00000000
 43
1.00000000
 50
   0.000
  0
ENDSEC
  0
EOF
