999
SOURCE:MBS   PROGRAM:EWSWDWG   CELL:EwDwg-L   CLASS:ELEVATION   MODE:
  0
SECTION
  2
HEADER
  9
$ACADVER
  1
AC1009
  9
$EXTMIN
 10
0.00000000
 20
0.00000000
  9
$EXTMAX
 10
67619.2344
 20
47816.4648
  9
$LIMMIN
 10
0.00000000
 20
0.00000000
  9
$LIMMAX
 10
67619.2344
 20
47816.4648
  9
$FILLMODE
 70
     1
  9
$HANDLING
 70
     0
  0
ENDSEC
  0
SECTION
  2
TABLES
  0
TABLE
  2
LTYPE
 70
4
  0
LTYPE
  2
CONTIN
 70
   64
  3
SOLID LINE
  72
   65
 73
    0
 40
 0.000
  0
LTYPE
  2
CENTER
 70
   64
  3
____ _ ____ _ _
  72
   65
 73
    4
 40
4089.4
 49
2555.8
 49
-511.2
 49
511.17
 49
-511.2
  0
LTYPE
  2
DASHED
 70
   64
  3
__ __ __ __ __
  72
   65
 73
    2
 40
766.75
 49
511.17
 49
-253.5
  0
LTYPE
  2
CONTINUOUS
 70
   64
  3
SOLID LINE
  72
   65
 73
    0
 40
 0.000
  0
ENDTAB
  0
TABLE
  2
LAYER
 70
27
  0
LAYER
  2
0
 70
     0
 62
     7
  6
CONTIN
  0
LAYER
  2
1
 70
     0
 62
     7
  6
CONTIN
  0
LAYER
  2
2
 70
     0
 62
     6
  6
CONTIN
  0
LAYER
  2
3
 70
     0
 62
     7
  6
CONTIN
  0
LAYER
  2
4
 70
     0
 62
     7
  6
CONTIN
  0
LAYER
  2
5
 70
     0
 62
     5
  6
DASHED
  0
LAYER
  2
6
 70
     0
 62
     6
  6
CONTIN
  0
LAYER
  2
7
 70
     0
 62
     7
  6
CONTIN
  0
LAYER
  2
8
 70
     0
 62
     8
  6
DASHED
  0
LAYER
  2
9
 70
     0
 62
     9
  6
DASHED
  0
LAYER
  2
10
 70
     0
 62
    10
  6
CONTIN
  0
LAYER
  2
11
 70
     0
 62
     7
  6
CONTIN
  0
LAYER
  2
12
 70
     0
 62
     6
  6
CONTIN
  0
LAYER
  2
13
 70
     0
 62
     1
  6
CONTIN
  0
LAYER
  2
14
 70
     0
 62
     7
  6
CONTIN
  0
LAYER
  2
15
 70
     0
 62
     7
  6
CONTIN
  0
LAYER
  2
16
 70
     0
 62
     7
  6
CONTIN
  0
LAYER
  2
17
 70
     0
 62
     5
  6
CONTIN
  0
LAYER
  2
18
 70
     0
 62
     7
  6
CONTIN
  0
LAYER
  2
19
 70
     0
 62
     7
  6
CONTIN
  0
LAYER
  2
20
 70
     0
 62
     7
  6
CONTIN
  0
LAYER
  2
21
 70
     0
 62
     7
  6
CONTIN
  0
LAYER
  2
22
 70
     0
 62
     7
  6
CONTIN
  0
LAYER
  2
23
 70
     0
 62
     7
  6
DASHED
  0
LAYER
  2
24
 70
     0
 62
     7
  6
CONTIN
  0
LAYER
  2
25
 70
     0
 62
     7
  6
CONTIN
  0
LAYER
  2
26
 70
     0
 62
     7
  6
CONTIN
  0
LAYER
  2
27
 70
     0
 62
     1
  6
CENTER
  0
ENDTAB
  0
TABLE
  2
STYLE
 70
  0
  0
STYLE
  2
SIMPLEX
 70
  0
 40
  0.000
 41
  1.000
 42
  1.000
 50
  0.000
 71
  0
  3
SIMPLEX
  0
STYLE
  2
ROMANS
 70
  0
 40
  0.000
 41
  1.000
 42
  1.000
 50
  0.000
 71
  0
  3
ROMANS
  0
STYLE
  2
OPEN
 70
  0
 40
  0.000
 41
  1.000
 42
  1.000
 50
  0.000
 71
  0
  3
SIMPLEX
  0
STYLE
  2
ARIAL
 70
  0
 40
  0.000
 41
  1.000
 42
  1.000
 50
  0.000
 71
  0
  3
ARIAL.TTF
  0
STYLE
  2
VERDANAB
 70
  0
 40
  0.000
 41
  1.000
 42
  1.000
 50
  0.000
 71
  0
  3
VERDANAB.TTF
  0
ENDTAB
  0
ENDSEC
  0
SECTION
  2
BLOCKS
  0
BLOCK
  8
0
  2
ARROWP
 70
     0
 10
0.00000000
 20
0.00000000
  0
LINE
  8
0
 10
0.00000000
 20
0.00000000
 11
-292.38879
 21
-48.731464
  0
LINE
  8
0
 10
0.00000000
 20
0.00000000
 11
-292.38879
 21
48.7314644
  0
LINE
  8
0
 10
-292.38879
 20
48.7314644
 11
-292.38879
 21
-48.731464
  0
ENDBLK
  8
0
  0
BLOCK
  8
0
  2
ARROW
 70
     0
 10
0.00000000
 20
0.00000000
  0
LINE
  8
0
 10
0.00000000
 20
0.00000000
 11
-292.38879
 21
-48.731464
  0
LINE
  8
0
 10
0.00000000
 20
0.00000000
 11
-292.38879
 21
48.7314644
  0
LINE
  8
0
 10
-292.38879
 20
48.7314644
 11
-292.38879
 21
-48.731464
  0
ENDBLK
  8
0
  0
BLOCK
  8
0
  2
MARKER
 70
     0
 10
0.00000000
 20
0.00000000
  0
LINE
  8
0
 10
0.00000000
 20
0.00000000
 11
25.3999996
 21
25.3999996
  0
LINE
  8
0
 10
25.3999996
 20
25.3999996
 11
-25.400000
 21
25.3999996
  0
LINE
  8
0
 10
-25.400000
 20
25.3999996
 11
0.00000000
 21
0.00000000
  0
ENDBLK
  8
0
  0
BLOCK
  8
0
  2
FLGCLP
 70
     0
 10
0.00000000
 20
0.00000000
  0
LINE
  8
0
 10
0.00000000
 20
0.00000000
 11
25.3999996
 21
25.3999996
  0
LINE
  8
0
 10
25.3999996
 20
25.3999996
 11
-25.400000
 21
25.3999996
  0
LINE
  8
0
 10
-25.400000
 20
25.3999996
 11
0.00000000
 21
0.00000000
  0
LINE
  8
0
 10
-8.4666672
 20
8.46666716
 11
8.46666716
 21
8.46666716
  0
LINE
  8
0
 10
-8.4666672
 20
8.46666716
 11
-8.4666672
 21
25.3999996
  0
LINE
  8
0
 10
8.46666716
 20
8.46666716
 11
8.46666716
 21
25.3999996
  0
ENDBLK
  8
0
  0
BLOCK
  8
0
  2
DIAMOND
 70
     0
 10
0.00000000
 20
0.00000000
  0
LINE
  8
0
 10
0.00000000
 20
0.00000000
 11
12.6999998
 21
12.6999998
  0
LINE
  8
0
 10
12.6999998
 20
12.6999998
 11
0.00000000
 21
25.3999996
  0
LINE
  8
0
 10
0.00000000
 20
25.3999996
 11
-12.700000
 21
12.6999998
  0
LINE
  8
0
 10
-12.700000
 20
12.6999998
 11
0.00000000
 21
0.00000000
  0
ENDBLK
  8
0
  0
BLOCK
  8
0
  2
SHIELD
 70
     0
 10
0.00000000
 20
0.00000000
  0
ARC
  8
0
 10
0.00000000
 20
38.0999985
 40
12.6999998
 50
   0.000
 51
 180.000
  0
LINE
  8
0
 10
-12.700000
 20
38.0999985
 11
-12.700000
 21
12.6999998
  0
LINE
  8
0
 10
-12.700000
 20
12.6999998
 11
0.00000000
 21
0.00000000
  0
LINE
  8
0
 10
0.00000000
 20
0.00000000
 11
12.6999998
 21
12.6999998
  0
LINE
  8
0
 10
12.6999998
 20
12.6999998
 11
12.6999998
 21
38.0999985
  0
ENDBLK
  8
0
  0
BLOCK
  8
0
  2
FINFLR
 70
     0
 10
0.00000000
 20
0.00000000
  0
LINE
  8
0
 10
0.00000000
 20
0.00000000
 11
12.6999998
 21
25.3999996
  0
LINE
  8
0
 10
12.6999998
 20
25.3999996
 11
-12.700000
 21
25.3999996
  0
LINE
  8
0
 10
-12.700000
 20
25.3999996
 11
0.00000000
 21
0.00000000
  0
LINE
  8
0
 10
0.00000000
 20
0.00000000
 11
0.00000000
 21
25.3999996
  0
SOLID
  8
0
 10
0.00000000
 20
0.00000000
 11
0.00000000
 21
25.3999996
 12
-12.700000
 22
25.3999996
 13
-12.700000
 23
25.3999996
  0
ENDBLK
  8
0
  0
BLOCK
  8
0
  2
CIRCLE
 70
     0
 10
0.00000000
 20
0.00000000
  0
CIRCLE
  8
1
 10
   0.000
 20
   0.000
 40
  25.400
  0
ENDBLK
  8
0
  0
BLOCK
  8
0
  2
HEXAGON
 70
     0
 10
0.00000000
 20
0.00000000
  0
LINE
  8
0
 10
0.00000000
 20
0.00000000
 11
7.62000084
 21
-10.160000
  0
LINE
  8
0
 10
7.62000084
 20
-10.160000
 11
17.7799988
 21
-10.160000
  0
LINE
  8
0
 10
17.7799988
 20
-10.160000
 11
25.3999996
 21
0.00000000
  0
LINE
  8
0
 10
25.3999996
 20
0.00000000
 11
17.7799988
 21
10.1599999
  0
LINE
  8
0
 10
17.7799988
 20
10.1599999
 11
7.62000084
 21
10.1599999
  0
LINE
  8
0
 10
7.62000084
 20
10.1599999
 11
0.00000000
 21
0.00000000
  0
ENDBLK
  8
0
  0
BLOCK
  8
0
  2
CCOL
 70
     0
 10
0.00000000
 20
0.00000000
  0
LINE
  8
0
 10
10.1599999
 20
-2.5400000
 11
10.1599999
 21
0.00000000
  0
LINE
  8
0
 10
10.1599999
 20
0.00000000
 11
0.00000000
 21
0.00000000
  0
LINE
  8
0
 10
0.00000000
 20
0.00000000
 11
0.00000000
 21
-25.400000
  0
LINE
  8
0
 10
0.00000000
 20
-25.400000
 11
10.1599999
 21
-25.400000
  0
LINE
  8
0
 10
10.1599999
 20
-25.400000
 11
10.1599999
 21
-22.859999
  0
ENDBLK
  8
0
  0
BLOCK
  8
0
  2
DCOL
 70
     0
 10
0.00000000
 20
0.00000000
  0
INSERT
  8
0
  2
CCOL
 10
2.53999996
 20
0.00000000
 41
1.00000000
 42
1.00000000
 43
1.00000000
 50
   0.000
  0
INSERT
  8
0
  2
CCOL
 10
-2.5400000
 20
0.00000000
 41
-1.0000000
 42
1.00000000
 43
1.00000000
 50
   0.000
  0
ENDBLK
  8
0
  0
BLOCK
  8
0
  2
UCOL
 70
     0
 10
0.00000000
 20
0.00000000
  0
LINE
  8
0
 10
10.1599999
 20
0.00000000
 11
0.00000000
 21
0.00000000
  0
LINE
  8
0
 10
0.00000000
 20
0.00000000
 11
0.00000000
 21
-25.400000
  0
LINE
  8
0
 10
0.00000000
 20
-25.400000
 11
10.1599999
 21
-25.400000
  0
ENDBLK
  8
0
  0
BLOCK
  8
0
  2
WCOL
 70
     0
 10
0.00000000
 20
0.00000000
  0
LINE
  8
0
 10
-10.160000
 20
0.00000000
 11
10.1599999
 21
0.00000000
  0
LINE
  8
0
 10
0.00000000
 20
0.00000000
 11
0.00000000
 21
-25.400000
  0
LINE
  8
0
 10
-10.160000
 20
-25.400000
 11
10.1599999
 21
-25.400000
  0
ENDBLK
  8
0
  0
BLOCK
  8
0
  2
ZCOL
 70
     0
 10
0.00000000
 20
0.00000000
  0
LINE
  8
0
 10
10.1599999
 20
-2.5400000
 11
10.1599999
 21
0.00000000
  0
LINE
  8
0
 10
10.1599999
 20
0.00000000
 11
0.00000000
 21
0.00000000
  0
LINE
  8
0
 10
0.00000000
 20
0.00000000
 11
0.00000000
 21
-25.400000
  0
LINE
  8
0
 10
0.00000000
 20
-25.400000
 11
-10.160000
 21
-25.400000
  0
LINE
  8
0
 10
-10.160000
 20
-25.400000
 11
-10.160000
 21
-22.859999
  0
ENDBLK
  8
0
  0
BLOCK
  8
0
  2
TCOL
 70
     0
 10
0.00000000
 20
0.00000000
  0
LINE
  8
0
 10
-12.700000
 20
-12.700000
 11
12.6999998
 21
-12.700000
  0
LINE
  8
0
 10
12.6999998
 20
-12.700000
 11
12.6999998
 21
12.6999998
  0
LINE
  8
0
 10
12.6999998
 20
12.6999998
 11
-12.700000
 21
12.6999998
  0
LINE
  8
0
 10
-12.700000
 20
12.6999998
 11
-12.700000
 21
-12.700000
  0
ENDBLK
  8
0
  0
BLOCK
  8
0
  2
TCOL2
 70
     0
 10
0.00000000
 20
0.00000000
  0
LINE
  8
0
 10
-6.3499999
 20
-12.700000
 11
6.34999992
 21
-12.700000
  0
LINE
  8
0
 10
6.34999992
 20
-12.700000
 11
6.34999992
 21
12.6999998
  0
LINE
  8
0
 10
6.34999992
 20
12.6999998
 11
-6.3499999
 21
12.6999998
  0
LINE
  8
0
 10
-6.3499999
 20
12.6999998
 11
-6.3499999
 21
-12.700000
  0
ENDBLK
  8
0
  0
BLOCK
  8
1
  2
PCOL
 70
     0
 10
0.00000000
 20
0.00000000
  0
CIRCLE
  8
1
 10
0.00000000
 20
0.00000000
 40
12.6999998
  0
ENDBLK
  8
1
  0
BLOCK
  8
0
  2
GCOL
 70
     0
 10
0.00000000
 20
0.00000000
  0
LINE
  8
0
 10
10.1599999
 20
-2.5400000
 11
10.1599999
 21
0.00000000
  0
LINE
  8
0
 10
10.1599999
 20
0.00000000
 11
0.00000000
 21
0.00000000
  0
LINE
  8
0
 10
0.00000000
 20
0.00000000
 11
0.00000000
 21
-25.400000
  0
LINE
  8
0
 10
0.00000000
 20
-25.400000
 11
25.3999996
 21
-25.400000
  0
LINE
  8
0
 10
25.3999996
 20
-25.400000
 11
25.3999996
 21
-15.240001
  0
LINE
  8
0
 10
25.3999996
 20
-15.240001
 11
22.8599987
 21
-15.240001
  0
ENDBLK
  8
0
  0
BLOCK
  8
0
  2
VSECTN
 70
     0
 10
0.00000000
 20
0.00000000
  0
LINE
  8
0
 10
-12.700000
 20
25.3999996
 11
12.6999998
 21
25.3999996
  0
LINE
  8
0
 10
-12.700000
 20
25.3999996
 11
0.00000000
 21
0.00000000
  0
LINE
  8
0
 10
0.00000000
 20
0.00000000
 11
12.6999998
 21
25.3999996
  0
ENDBLK
  8
0
  0
BLOCK
  8
0
  2
XCOL
 70
     0
 10
0.00000000
 20
0.00000000
  0
LINE
  8
0
 10
-14.287499
 20
1.58749996
 11
14.2874994
 21
1.58749996
  0
LINE
  8
0
 10
14.2874994
 20
1.58749996
 11
14.2874994
 21
-26.987499
  0
LINE
  8
0
 10
14.2874994
 20
-26.987499
 11
-14.287499
 21
-26.987499
  0
LINE
  8
0
 10
-14.287499
 20
-26.987499
 11
-14.287499
 21
1.58749996
  0
ENDBLK
  8
0
  0
BLOCK
  8
0
  2
SGUS
 70
     0
 10
0.00000000
 20
0.00000000
  0
LINE
  8
0
 10
0.00000000
 20
0.00000000
 11
7.62000084
 21
0.00000000
  0
LINE
  8
0
 10
7.62000084
 20
0.00000000
 11
17.7799988
 21
-25.400000
  0
LINE
  8
0
 10
17.7799988
 20
-25.400000
 11
25.3999996
 21
-25.400000
  0
ENDBLK
  8
0
  0
BLOCK
  8
7
  2
CUTSEC
 70
     0
 10
0.00000000
 20
0.00000000
  0
LINE
  8
7
 10
-472.32037
 20
0.00000000
 11
-112.45723
 21
0.00000000
  0
LINE
  8
7
 10
112.457230
 20
0.00000000
 11
472.320343
 21
0.00000000
  0
LINE
  8
7
 10
472.320343
 20
0.00000000
 11
472.320343
 21
134.948685
  0
INSERT
  8
7
  2
ARROWP
 10
472.320343
 20
427.337463
 41
1.00000000
 42
1.00000000
 43
1.00000000
 50
  90.000
  0
ENDBLK
  8
7
  0
BLOCK
  8
0
  2
WALLLITE
 70
     0
 10
0.00000000
 20
0.00000000
  0
LINE
  8
0
 10
25.3999996
 20
0.00000000
 11
0.00000000
 21
0.00000000
  0
LINE
  8
0
 10
0.00000000
 20
0.00000000
 11
0.00000000
 21
-25.400000
  0
LINE
  8
0
 10
0.00000000
 20
-25.400000
 11
25.3999996
 21
-25.400000
  0
LINE
  8
0
 10
25.3999996
 20
-25.400000
 11
25.3999996
 21
0.00000000
  0
LINE
  8
0
 10
0.00000000
 20
-25.400000
 11
0.00000000
 21
0.00000000
  0
LINE
  8
0
 10
6.34999992
 20
-25.400000
 11
6.34999992
 21
0.00000000
  0
LINE
  8
0
 10
12.6999998
 20
-25.400000
 11
12.6999998
 21
0.00000000
  0
LINE
  8
0
 10
19.0499992
 20
-25.400000
 11
19.0499992
 21
0.00000000
  0
ENDBLK
  8
0
  0
BLOCK
  8
7
  2
DETAIL
 70
     0
 10
0.00000000
 20
0.00000000
  0
CIRCLE
  8
7
 10
0.00000000
 20
0.00000000
 40
112.457230
  0
LINE
  8
7
 10
112.457230
 20
0.00000000
 11
494.811859
 21
0.00000000
  0
ENDBLK
  8
7
  0
BLOCK
  8
0
  2
EW1FRM
 70
     0
 10
0.00000000
 20
0.00000000
999
START:   AREA=Surface
  0
LINE
  8
5
 10
0.00000000
 20
0.00000000
 11
22470.0000
 21
0.00000000
  0
LINE
  8
5
 10
0.00000000
 20
0.00000000
 11
0.00000000
 21
8169.99951
  0
LINE
  8
5
 10
0.00000000
 20
8169.99951
 11
11235.0000
 21
9293.50000
  0
LINE
  8
5
 10
11235.0000
 20
9293.50000
 11
22470.0000
 21
8169.99951
  0
LINE
  8
5
 10
22470.0000
 20
8169.99951
 11
22470.0000
 21
0.00000000
999
END:     AREA=Surface
999
START:   AREA=Columns
  0
LINE
  8
4
 10
11235.0000
 20
0.00000000
 11
11235.0000
 21
8391.94043
  0
INSERT
  8
10
  2
WCOL
 10
11235.0000
 20
-134.94867
 41
11.0686255
 42
11.0686255
 43
11.0686255
 50
   0.000
  0
TEXT
  8
3
 7
SIMPLEX
 10
10735.9707
 20
-832.18359
 40
281.143097
  1
EC-1
 50
   0.000
999
END:     AREA=Columns
999
START:   AREA=RF Outline
  0
LINE
  8
5
 10
230.000015
 20
-0.4000000
 11
229.999939
 21
7992.00195
  0
LINE
  8
5
 10
229.999939
 20
7992.00195
 11
11235.0000
 21
9092.50195
  0
LINE
  8
5
 10
11235.0000
 20
9092.50195
 11
22240.0000
 21
7992.00195
  0
LINE
  8
5
 10
22240.0000
 20
7992.00195
 11
22240.0000
 21
-0.4000000
  0
LINE
  8
5
 10
640.799988
 20
-0.4000000
 11
942.000061
 21
4016.00024
  0
LINE
  8
5
 10
942.000061
 20
4016.00024
 11
936.799988
 21
7644.39990
  0
LINE
  8
5
 10
936.799988
 20
7644.39990
 11
1039.59998
 21
7660.39990
  0
LINE
  8
5
 10
1039.59998
 20
7660.39990
 11
1039.59998
 21
7660.39990
  0
LINE
  8
5
 10
1039.59998
 20
7660.39990
 11
4439.29980
 21
8101.39990
  0
LINE
  8
5
 10
4439.29980
 20
8101.39990
 11
8722.50000
 21
8529.70020
  0
LINE
  8
5
 10
8722.50000
 20
8529.70020
 11
11235.0000
 21
8529.70020
  0
LINE
  8
5
 10
11235.0000
 20
8529.70020
 11
13746.9980
 21
8529.79980
  0
LINE
  8
5
 10
13746.9980
 20
8529.79980
 11
18030.5996
 21
8101.39990
  0
LINE
  8
5
 10
18030.5996
 20
8101.39990
 11
21430.4004
 21
7660.39990
  0
LINE
  8
5
 10
21430.4004
 20
7660.39990
 11
21430.1992
 21
7660.39990
  0
LINE
  8
5
 10
21430.1992
 20
7660.39990
 11
21528.0000
 21
7649.39990
  0
LINE
  8
5
 10
21528.0000
 20
7649.39990
 11
21528.0000
 21
4015.60010
  0
LINE
  8
5
 10
21528.0000
 20
4015.60010
 11
21829.1992
 21
-0.4000000
  0
LINE
  8
5
 10
230.000015
 20
-0.4000000
 11
640.799988
 21
-0.4000000
  0
LINE
  8
5
 10
22240.0000
 20
-0.4000000
 11
21829.1992
 21
-0.4000000
999
START:   AREA=RF Outline
999
START:   AREA=Backbrace Struts
999
END:     AREA=Backbrace Struts
999
START:   AREA=Header Struts
999
END:     AREA=Header Struts
999
START:   AREA=Framed Openings
999
END:     AREA=Framed Openings
999
START:   AREA=Wideopen Outlines
999
END:     AREA=WideOpen Outlines
999
START:   AREA=Wind Frames
999
END:     AREA=Wind Frames
999
START:   AREA=Wall Panel
999
END:     AREA=Wall Panel
999
START:   AREA=Base Angles
999
START:   AREA=Sheeting Angles
  0
TEXT
  8
3
 7
SIMPLEX
 10
5241.20117
 20
10011.7363
 40
281.143097
  1
GA
 50
   5.711
  0
TEXT
  8
3
 7
SIMPLEX
 10
16669.3047
 20
10067.6865
 40
281.143097
  1
GA
 50
  -5.711
999
START:   AREA=Sheeting Angles
999
START:   AREA=Corner Angles
999
END:     AREA=Corner Angles
999
START:   AREA=Partial Wall Angles
  0
LINE
  8
5
 10
0.00000000
 20
0.00000000
 11
0.00000000
 21
2500.00000
  0
LINE
  8
5
 10
22470.0000
 20
0.00000000
 11
22470.0000
 21
2500.00000
  0
LINE
  8
5
 10
0.00000000
 20
2500.00000
 11
22470.0000
 21
2500.00000
999
END:     AREA=Partial Wall Angles
999
START:   AREA=Wide Door Angles
999
END:     AREA=Wide Door Angles
999
START:   AREA=Cables
999
END:     AREA=Cables
999
START:   AREA=Girts
  0
LINE
  8
1
 10
200.000000
 20
2512.52563
 11
12240.0000
 21
2512.52563
  0
TEXT
  8
3
 7
SIMPLEX
 10
5153.61328
 20
2582.81152
 40
281.143097
  1
 G-1
 50
   0.000
  0
LINE
  8
1
 10
0.00000000
 20
3512.52588
 11
12240.0000
 21
3512.52588
  0
TEXT
  8
3
 7
SIMPLEX
 10
5104.41309
 20
3582.81152
 40
281.143097
  1
 G-2
 50
   0.000
  0
LINE
  8
1
 10
0.00000000
 20
4512.52588
 11
12240.0000
 21
4512.52588
  0
TEXT
  8
3
 7
SIMPLEX
 10
5104.41309
 20
4582.81152
 40
281.143097
  1
 G-2
 50
   0.000
  0
LINE
  8
1
 10
200.000000
 20
5512.52588
 11
12240.0000
 21
5512.52588
  0
TEXT
  8
3
 7
SIMPLEX
 10
5104.41309
 20
5582.81152
 40
281.143097
  1
 G-3
 50
   0.000
  0
LINE
  8
1
 10
0.00000000
 20
6512.52588
 11
12240.0000
 21
6512.52588
  0
TEXT
  8
3
 7
SIMPLEX
 10
5104.41309
 20
6582.81104
 40
281.143097
  1
 G-2
 50
   0.000
  0
LINE
  8
1
 10
0.00000000
 20
7512.52588
 11
12240.0000
 21
7512.52588
  0
TEXT
  8
3
 7
SIMPLEX
 10
5104.41309
 20
7582.81152
 40
281.143097
  1
 G-2
 50
   0.000
  0
LINE
  8
1
 10
3435.23804
 20
8312.52539
 11
12240.0000
 21
8312.52539
  0
TEXT
  8
3
 7
SIMPLEX
 10
7351.41357
 20
8382.81152
 40
281.143097
  1
 G-4
 50
   0.000
  0
LINE
  8
1
 10
10230.0000
 20
2647.47437
 11
22270.0000
 21
2647.47437
  0
TEXT
  8
3
 7
SIMPLEX
 10
16339.4131
 20
2717.76025
 40
281.143097
  1
 G-5
 50
   0.000
  0
LINE
  8
1
 10
10230.0000
 20
3647.47412
 11
22470.0000
 21
3647.47412
  0
TEXT
  8
3
 7
SIMPLEX
 10
16339.4131
 20
3717.75977
 40
281.143097
  1
 G-6
 50
   0.000
  0
LINE
  8
1
 10
10230.0000
 20
4647.47412
 11
22470.0000
 21
4647.47412
  0
TEXT
  8
3
 7
SIMPLEX
 10
16339.4131
 20
4717.75977
 40
281.143097
  1
 G-6
 50
   0.000
  0
LINE
  8
1
 10
10230.0000
 20
5647.47412
 11
22270.0000
 21
5647.47412
  0
TEXT
  8
3
 7
SIMPLEX
 10
16339.4131
 20
5717.75977
 40
281.143097
  1
 G-7
 50
   0.000
  0
LINE
  8
1
 10
10230.0000
 20
6647.47412
 11
22470.0000
 21
6647.47412
  0
TEXT
  8
3
 7
SIMPLEX
 10
16339.4131
 20
6717.75977
 40
281.143097
  1
 G-6
 50
   0.000
  0
LINE
  8
1
 10
10230.0000
 20
7647.47412
 11
22470.0000
 21
7647.47412
  0
TEXT
  8
3
 7
SIMPLEX
 10
16339.4131
 20
7717.75977
 40
281.143097
  1
 G-6
 50
   0.000
  0
LINE
  8
1
 10
10230.0000
 20
8447.47461
 11
17685.2793
 21
8447.47461
  0
TEXT
  8
3
 7
SIMPLEX
 10
14092.4141
 20
8517.75977
 40
281.143097
  1
 G-8
 50
   0.000
999
END:     AREA=Girts
999
START:   AREA=Lap Girts
999
END:     AREA=Lap Girts
999
START:   AREA=Column Flange Brace
  0
INSERT
  8
3
  2
MARKER
 10
11572.3721
 20
3647.47412
 41
12.4522038
 42
12.4522038
 43
12.4522038
 50
   0.000
  0
TEXT
  8
3
 7
SIMPLEX
 10
10939.7998
 20
4034.04565
 40
281.143097
  1
FB568
 50
   0.000
  0
INSERT
  8
3
  2
MARKER
 10
11572.3721
 20
5647.47412
 41
12.4522038
 42
12.4522038
 43
12.4522038
 50
   0.000
  0
TEXT
  8
3
 7
SIMPLEX
 10
10939.7998
 20
6034.04590
 40
281.143097
  1
FB568
 50
   0.000
999
END:     AREA=Column Flange Brace
999
START:   AREA=Rafter Flange Brace
999
END:     AREA=Rafter Flange Brace
999
START:   AREA=Wall Struts
999
END:     AREA=Wall Struts
999
START:   AREA=Accessories
999
END:     AREA=Accessories
999
START:   AREA=Cranes
999
END:     AREA=Cranes
999
START:   AREA=JBlocks
  0
TEXT
  8
3
 7
SIMPLEX
 10
2314.47510
 20
3012.52588
 40
281.143097
  1
JB-1
 50
   0.000
  0
LINE
  8
1
 10
2247.00073
 20
2580.00000
 11
2247.00073
 21
3445.05176
  0
TEXT
  8
3
 7
SIMPLEX
 10
2314.47510
 20
4012.52588
 40
281.143097
  1
JB-1
 50
   0.000
  0
LINE
  8
1
 10
2247.00073
 20
3580.00000
 11
2247.00073
 21
4445.05127
  0
TEXT
  8
3
 7
SIMPLEX
 10
2314.47510
 20
5012.52588
 40
281.143097
  1
JB-1
 50
   0.000
  0
LINE
  8
1
 10
2247.00073
 20
4580.00000
 11
2247.00073
 21
5445.05176
  0
TEXT
  8
3
 7
SIMPLEX
 10
2314.47510
 20
6012.52588
 40
281.143097
  1
JB-1
 50
   0.000
  0
LINE
  8
1
 10
2247.00073
 20
5580.00000
 11
2247.00073
 21
6445.05176
  0
TEXT
  8
3
 7
SIMPLEX
 10
2314.47510
 20
7012.52539
 40
281.143097
  1
JB-1
 50
   0.000
  0
LINE
  8
1
 10
2247.00073
 20
6580.00000
 11
2247.00073
 21
7445.05176
  0
LINE
  8
1
 10
4493.99902
 20
2580.00000
 11
4493.99902
 21
3445.05176
  0
LINE
  8
1
 10
4493.99902
 20
3580.00000
 11
4493.99902
 21
4445.05127
  0
LINE
  8
1
 10
4493.99902
 20
4580.00000
 11
4493.99902
 21
5445.05176
  0
LINE
  8
1
 10
4493.99902
 20
5580.00000
 11
4493.99902
 21
6445.05176
  0
LINE
  8
1
 10
4493.99902
 20
6580.00000
 11
4493.99902
 21
7445.05176
  0
TEXT
  8
3
 7
SIMPLEX
 10
4561.47314
 20
7912.52588
 40
281.143097
  1
JB-2
 50
   0.000
  0
LINE
  8
1
 10
4493.99902
 20
7580.00000
 11
4493.99902
 21
8245.05176
  0
LINE
  8
1
 10
6740.99951
 20
2580.00000
 11
6740.99951
 21
3445.05176
  0
LINE
  8
1
 10
6740.99951
 20
3580.00000
 11
6740.99951
 21
4445.05127
  0
LINE
  8
1
 10
6740.99951
 20
4580.00000
 11
6740.99951
 21
5445.05176
  0
LINE
  8
1
 10
6740.99951
 20
5580.00000
 11
6740.99951
 21
6445.05176
  0
LINE
  8
1
 10
6740.99951
 20
6580.00000
 11
6740.99951
 21
7445.05176
  0
LINE
  8
1
 10
6740.99951
 20
7580.00000
 11
6740.99951
 21
8245.05176
  0
LINE
  8
1
 10
8988.00098
 20
2580.00000
 11
8988.00098
 21
3445.05176
  0
LINE
  8
1
 10
8988.00098
 20
3580.00000
 11
8988.00098
 21
4445.05127
  0
LINE
  8
1
 10
8988.00098
 20
4580.00000
 11
8988.00098
 21
5445.05176
  0
LINE
  8
1
 10
8988.00098
 20
5580.00000
 11
8988.00098
 21
6445.05176
  0
LINE
  8
1
 10
8988.00098
 20
6580.00000
 11
8988.00098
 21
7445.05176
  0
LINE
  8
1
 10
8988.00098
 20
7580.00000
 11
8988.00098
 21
8245.05176
  0
LINE
  8
1
 10
13482.0020
 20
2714.94873
 11
13482.0020
 21
3580.00000
  0
LINE
  8
1
 10
13482.0020
 20
3714.94849
 11
13482.0020
 21
4580.00000
  0
LINE
  8
1
 10
13482.0020
 20
4714.94824
 11
13482.0020
 21
5580.00000
  0
LINE
  8
1
 10
13482.0020
 20
5714.94824
 11
13482.0020
 21
6580.00000
  0
LINE
  8
1
 10
13482.0020
 20
6714.94824
 11
13482.0020
 21
7580.00000
  0
LINE
  8
1
 10
13482.0020
 20
7714.94824
 11
13482.0020
 21
8380.00000
  0
LINE
  8
1
 10
15728.9980
 20
2714.94873
 11
15728.9980
 21
3580.00000
  0
LINE
  8
1
 10
15728.9980
 20
3714.94849
 11
15728.9980
 21
4580.00000
  0
LINE
  8
1
 10
15728.9980
 20
4714.94824
 11
15728.9980
 21
5580.00000
  0
LINE
  8
1
 10
15728.9980
 20
5714.94824
 11
15728.9980
 21
6580.00000
  0
LINE
  8
1
 10
15728.9980
 20
6714.94824
 11
15728.9980
 21
7580.00000
  0
LINE
  8
1
 10
15728.9980
 20
7714.94824
 11
15728.9980
 21
8380.00000
  0
LINE
  8
1
 10
17976.0000
 20
2714.94873
 11
17976.0000
 21
3580.00000
  0
LINE
  8
1
 10
17976.0000
 20
3714.94849
 11
17976.0000
 21
4580.00000
  0
LINE
  8
1
 10
17976.0000
 20
4714.94824
 11
17976.0000
 21
5580.00000
  0
LINE
  8
1
 10
17976.0000
 20
5714.94824
 11
17976.0000
 21
6580.00000
  0
LINE
  8
1
 10
17976.0000
 20
6714.94824
 11
17976.0000
 21
7580.00000
  0
LINE
  8
1
 10
17976.0000
 20
7714.94824
 11
17976.0000
 21
8380.00000
  0
LINE
  8
1
 10
20223.0000
 20
2714.94873
 11
20223.0000
 21
3580.00000
  0
LINE
  8
1
 10
20223.0000
 20
3714.94849
 11
20223.0000
 21
4580.00000
  0
LINE
  8
1
 10
20223.0000
 20
4714.94824
 11
20223.0000
 21
5580.00000
  0
LINE
  8
1
 10
20223.0000
 20
5714.94824
 11
20223.0000
 21
6580.00000
  0
LINE
  8
1
 10
20223.0000
 20
6714.94824
 11
20223.0000
 21
7580.00000
999
END:     AREA=JBlocks
999
START:   AREA=Clips
  0
TEXT
  8
3
 7
SIMPLEX
 10
105.428650
 20
3196.23999
 40
210.857300
  1
1
 50
   0.000
  0
LINE
  8
3
 10
369.000305
 20
3143.52588
 11
369.000305
 21
3459.81152
  0
LINE
  8
3
 10
52.7143250
 20
3143.52588
 11
52.7143250
 21
3459.81152
  0
LINE
  8
3
 10
52.7143250
 20
3459.81152
 11
369.000305
 21
3459.81152
  0
LINE
  8
3
 10
369.000305
 20
3143.52588
 11
52.7143250
 21
3143.52588
  0
TEXT
  8
3
 7
SIMPLEX
 10
105.428650
 20
4196.23975
 40
210.857300
  1
1
 50
   0.000
  0
LINE
  8
3
 10
369.000305
 20
4143.52539
 11
369.000305
 21
4459.81104
  0
LINE
  8
3
 10
52.7143250
 20
4143.52539
 11
52.7143250
 21
4459.81104
  0
LINE
  8
3
 10
52.7143250
 20
4459.81104
 11
369.000305
 21
4459.81104
  0
LINE
  8
3
 10
369.000305
 20
4143.52539
 11
52.7143250
 21
4143.52539
  0
TEXT
  8
3
 7
SIMPLEX
 10
105.428650
 20
6196.24023
 40
210.857300
  1
1
 50
   0.000
  0
LINE
  8
3
 10
369.000305
 20
6143.52490
 11
369.000305
 21
6459.81104
  0
LINE
  8
3
 10
52.7143250
 20
6143.52490
 11
52.7143250
 21
6459.81104
  0
LINE
  8
3
 10
52.7143250
 20
6459.81104
 11
369.000305
 21
6459.81104
  0
LINE
  8
3
 10
369.000305
 20
6143.52490
 11
52.7143250
 21
6143.52490
  0
TEXT
  8
3
 7
SIMPLEX
 10
105.428650
 20
7196.24023
 40
210.857300
  1
1
 50
   0.000
  0
LINE
  8
3
 10
369.000305
 20
7143.52490
 11
369.000305
 21
7459.81201
  0
LINE
  8
3
 10
52.7143250
 20
7143.52490
 11
52.7143250
 21
7459.81201
  0
LINE
  8
3
 10
52.7143250
 20
7459.81201
 11
369.000305
 21
7459.81201
  0
LINE
  8
3
 10
369.000305
 20
7143.52490
 11
52.7143250
 21
7143.52490
  0
TEXT
  8
3
 7
SIMPLEX
 10
3540.66650
 20
7996.24023
 40
210.857300
  1
2
 50
   0.000
  0
LINE
  8
3
 10
3804.23779
 20
7943.52490
 11
3804.23779
 21
8259.81152
  0
LINE
  8
3
 10
3487.95190
 20
7943.52490
 11
3487.95190
 21
8259.81152
  0
LINE
  8
3
 10
3487.95190
 20
8259.81152
 11
3804.23779
 21
8259.81152
  0
LINE
  8
3
 10
3804.23779
 20
7943.52490
 11
3487.95190
 21
7943.52490
  0
TEXT
  8
3
 7
SIMPLEX
 10
22153.7148
 20
3331.18774
 40
210.857300
  1
1
 50
   0.000
  0
LINE
  8
3
 10
22417.2852
 20
3278.47388
 11
22417.2852
 21
3594.75977
  0
LINE
  8
3
 10
22101.0000
 20
3278.47388
 11
22101.0000
 21
3594.75977
  0
LINE
  8
3
 10
22101.0000
 20
3594.75977
 11
22417.2852
 21
3594.75977
  0
LINE
  8
3
 10
22417.2852
 20
3278.47388
 11
22101.0000
 21
3278.47388
  0
TEXT
  8
3
 7
SIMPLEX
 10
22153.7148
 20
4331.18799
 40
210.857300
  1
1
 50
   0.000
  0
LINE
  8
3
 10
22417.2852
 20
4278.47363
 11
22417.2852
 21
4594.75928
  0
LINE
  8
3
 10
22101.0000
 20
4278.47363
 11
22101.0000
 21
4594.75928
  0
LINE
  8
3
 10
22101.0000
 20
4594.75928
 11
22417.2852
 21
4594.75928
  0
LINE
  8
3
 10
22417.2852
 20
4278.47363
 11
22101.0000
 21
4278.47363
  0
TEXT
  8
3
 7
SIMPLEX
 10
22153.7148
 20
6331.18799
 40
210.857300
  1
1
 50
   0.000
  0
LINE
  8
3
 10
22417.2852
 20
6278.47363
 11
22417.2852
 21
6594.76025
  0
LINE
  8
3
 10
22101.0000
 20
6278.47363
 11
22101.0000
 21
6594.76025
  0
LINE
  8
3
 10
22101.0000
 20
6594.76025
 11
22417.2852
 21
6594.76025
  0
LINE
  8
3
 10
22417.2852
 20
6278.47363
 11
22101.0000
 21
6278.47363
  0
TEXT
  8
3
 7
SIMPLEX
 10
22153.7148
 20
7331.18799
 40
210.857300
  1
1
 50
   0.000
  0
LINE
  8
3
 10
22417.2852
 20
7278.47363
 11
22417.2852
 21
7594.76025
  0
LINE
  8
3
 10
22101.0000
 20
7278.47363
 11
22101.0000
 21
7594.76025
  0
LINE
  8
3
 10
22101.0000
 20
7594.76025
 11
22417.2852
 21
7594.76025
  0
LINE
  8
3
 10
22417.2852
 20
7278.47363
 11
22101.0000
 21
7278.47363
  0
TEXT
  8
3
 7
SIMPLEX
 10
17368.9941
 20
8131.18799
 40
210.857300
  1
2
 50
   0.000
  0
LINE
  8
3
 10
17632.5645
 20
8078.47363
 11
17632.5645
 21
8394.76074
  0
LINE
  8
3
 10
17316.2793
 20
8078.47363
 11
17316.2793
 21
8394.76074
  0
LINE
  8
3
 10
17316.2793
 20
8394.76074
 11
17632.5645
 21
8394.76074
  0
LINE
  8
3
 10
17632.5645
 20
8078.47363
 11
17316.2793
 21
8078.47363
999
END:     AREA=Clips
999
START:   AREA=Strut Bolts
999
START:   AREA=Strut Bolts
999
START:   AREA=JackBeams
999
END:     AREA=JackBeams
999
START:   AREA=Draw Adjacent Surfaces
999
END:     AREA=Draw Adjacent Surfaces
999
START:   AREA=Dimensions
  0
TEXT
  8
11
 7
SIMPLEX
 10
11340.4287
 20
-2021.4186
 40
210.857300
  1
1005
 50
   0.000
  0
LINE
  8
2
 10
11235.0000
 20
-1775.4186
 11
11235.0000
 21
-1564.5613
  0
LINE
  8
2
 10
11235.0000
 20
-1669.9899
 11
12240.0000
 21
-1669.9899
  0
TEXT
  8
11
 7
SIMPLEX
 10
10359.9424
 20
-1599.7042
 40
210.857300
  1
1005
 50
   0.000
  0
LINE
  8
2
 10
11235.0000
 20
-1775.4186
 11
11235.0000
 21
-1564.5613
  0
LINE
  8
2
 10
11235.0000
 20
-1669.9899
 11
10230.0000
 21
-1669.9899
  0
TEXT
  8
2
 7
SIMPLEX
 10
-1124.5724
 20
-1599.7042
 40
281.143097
  1
GIRT
 50
   0.000
  0
TEXT
  8
2
 7
SIMPLEX
 10
-1124.5724
 20
-2021.4188
 40
281.143097
  1
LAPS
 50
   0.000
999
START:   AREA=Match Line
  0
LINE
  8
12
 10
0.00000000
 20
9428.44824
 11
0.00000000
 21
13645.5947
  0
LINE
  8
12
 10
22470.0000
 20
9428.44824
 11
22470.0000
 21
13645.5947
  0
LINE
  8
2
 10
0.00000000
 20
13364.4521
 11
22470.0000
 21
13364.4521
  0
INSERT
  8
2
  2
ARROW
 10
0.00000000
 20
13364.4521
 41
1.00000000
 42
1.00000000
 43
1.00000000
 50
 180.000
  0
INSERT
  8
2
  2
ARROW
 10
22470.0000
 20
13364.4521
 41
1.00000000
 42
1.00000000
 43
1.00000000
 50
   0.000
  0
LINE
  8
2
 10
0.00000000
 20
11677.5928
 11
22470.0000
 21
11677.5928
  0
LINE
  8
12
 10
11235.0000
 20
9428.44824
 11
11235.0000
 21
12239.8789
  0
INSERT
  8
2
  2
ARROW
 10
0.00000000
 20
11677.5928
 41
1.00000000
 42
1.00000000
 43
1.00000000
 50
 180.000
  0
INSERT
  8
2
  2
ARROW
 10
11235.0000
 20
11677.5928
 41
1.00000000
 42
1.00000000
 43
1.00000000
 50
   0.000
  0
INSERT
  8
2
  2
ARROW
 10
11235.0000
 20
11677.5928
 41
1.00000000
 42
1.00000000
 43
1.00000000
 50
 180.000
  0
INSERT
  8
2
  2
ARROW
 10
22470.0000
 20
11677.5928
 41
1.00000000
 42
1.00000000
 43
1.00000000
 50
   0.000
  0
TEXT
  8
11
 7
SIMPLEX
 10
5013.04248
 20
11771.3076
 40
281.143097
  1
11235
 50
   0.000
  0
TEXT
  8
11
 7
SIMPLEX
 10
16248.0420
 20
11771.3076
 40
281.143097
  1
11235
 50
   0.000
  0
CIRCLE
  8
13
 10
0.00000000
 20
13982.9668
 40
337.371704
  0
TEXT
  8
13
 7
SIMPLEX
 10
-151.81726
 20
13831.1484
 40
303.634522
  1
C
 72
           1
 11
0.00000000
 21
13831.1484
 50
   0.000
  0
CIRCLE
  8
13
 10
22470.0000
 20
13982.9668
 40
337.371704
  0
TEXT
  8
13
 7
SIMPLEX
 10
22318.1836
 20
13831.1484
 40
303.634522
  1
A
 72
           1
 11
22470.0000
 21
13831.1484
 50
   0.000
  0
CIRCLE
  8
13
 10
11235.0000
 20
12577.2510
 40
337.371704
  0
TEXT
  8
13
 7
SIMPLEX
 10
11083.1826
 20
12425.4336
 40
303.634522
  1
B
 72
           1
 11
11235.0000
 21
12425.4336
 50
   0.000
  0
TEXT
  8
11
 7
SIMPLEX
 10
7854.25391
 20
13499.4004
 40
281.143097
  1
22470
 50
   0.000
  0
TEXT
  8
15
 7
SIMPLEX
 10
9259.97070
 20
13499.4004
 40
281.143097
  1
 OUT-TO-OUT OF STEEL
 50
   0.000
  0
TEXT
  8
15
 7
SIMPLEX
 10
5241.02979
 20
-3033.5339
 40
449.828918
  1
ENDWALL FRAMING: FRAME LINE 1
 72
           1
 11
11235.0000
 21
-3033.5339
 50
   0.000
  0
LINE
  8
2
 10
-3317.6462
 20
10665.4775
 11
-2402.1731
 21
11194.0273
  0
LINE
  8
2
 10
-3200.7773
 20
10732.9521
 11
-2519.0422
 21
10732.9521
  0
LINE
  8
2
 10
-2519.0422
 20
11126.5537
 11
-2519.0422
 21
10732.9521
  0
TEXT
  8
11
 7
SIMPLEX
 10
-2378.4707
 20
10732.9521
 40
281.143097
  1
10.0
 50
   0.000
  0
TEXT
  8
11
 7
SIMPLEX
 10
-3000.4814
 20
10311.2373
 40
281.143097
  1
100
 50
   0.000
  0
LINE
  8
2
 10
25787.6465
 20
10665.4775
 11
24872.1738
 21
11194.0273
  0
LINE
  8
2
 10
25670.7773
 20
10732.9521
 11
24989.0410
 21
10732.9521
  0
LINE
  8
2
 10
24989.0410
 20
11126.5537
 11
24989.0410
 21
10732.9521
  0
TEXT
  8
11
 7
SIMPLEX
 10
23864.4707
 20
10732.9521
 40
281.143097
  1
10.0
 50
   0.000
  0
TEXT
  8
11
 7
SIMPLEX
 10
25189.3379
 20
10311.2373
 40
281.143097
  1
100
 50
   0.000
  0
LINE
  8
12
 10
-472.32037
 20
0.00000000
 11
-2519.0422
 21
0.00000000
  0
LINE
  8
12
 10
-472.32037
 20
2580.00000
 11
-2519.0422
 21
2580.00000
  0
LINE
  8
12
 10
-472.32037
 20
3580.00000
 11
-2519.0422
 21
3580.00000
  0
LINE
  8
12
 10
-472.32037
 20
4580.00000
 11
-2519.0422
 21
4580.00000
  0
LINE
  8
12
 10
-472.32037
 20
5580.00000
 11
-2519.0422
 21
5580.00000
  0
LINE
  8
12
 10
-472.32037
 20
6580.00000
 11
-2519.0422
 21
6580.00000
  0
LINE
  8
12
 10
-472.32037
 20
7580.00000
 11
-2519.0422
 21
7580.00000
  0
LINE
  8
12
 10
-472.32037
 20
8380.00000
 11
-2519.0422
 21
8380.00000
  0
LINE
  8
12
 10
-2384.0935
 20
0.00000000
 11
-2384.0935
 21
0.00000000
  0
LINE
  8
12
 10
-2384.0933
 20
2580.00000
 11
-2384.0933
 21
2580.00000
  0
LINE
  8
2
 10
-2384.0935
 20
0.00000000
 11
-2384.0933
 21
2580.00000
  0
INSERT
  8
2
  2
ARROW
 10
-2384.0935
 20
0.00000000
 41
1.00000000
 42
1.00000000
 43
1.00000000
 50
 270.000
  0
INSERT
  8
2
  2
ARROW
 10
-2384.0933
 20
2580.00000
 41
1.00000000
 42
1.00000000
 43
1.00000000
 50
  90.000
  0
TEXT
  8
11
 7
SIMPLEX
 10
-2477.8079
 20
727.713867
 40
281.143097
  1
2580
 50
  90.000
  0
LINE
  8
12
 10
-2384.0935
 20
2580.00000
 11
-2384.0935
 21
2580.00000
  0
LINE
  8
12
 10
-2384.0935
 20
3580.00000
 11
-2384.0935
 21
3580.00000
  0
LINE
  8
2
 10
-2384.0935
 20
2580.00000
 11
-2384.0935
 21
3580.00000
  0
INSERT
  8
2
  2
ARROW
 10
-2384.0935
 20
2580.00000
 41
1.00000000
 42
1.00000000
 43
1.00000000
 50
 270.000
  0
INSERT
  8
2
  2
ARROW
 10
-2384.0935
 20
3580.00000
 41
1.00000000
 42
1.00000000
 43
1.00000000
 50
  90.000
  0
TEXT
  8
11
 7
SIMPLEX
 10
-2290.3789
 20
2939.42847
 40
281.143097
  1
1000
 50
   0.000
  0
LINE
  8
12
 10
-2384.0935
 20
3580.00000
 11
-2384.0935
 21
3580.00000
  0
LINE
  8
12
 10
-2384.0935
 20
4580.00000
 11
-2384.0935
 21
4580.00000
  0
LINE
  8
2
 10
-2384.0935
 20
3580.00000
 11
-2384.0935
 21
4580.00000
  0
INSERT
  8
2
  2
ARROW
 10
-2384.0935
 20
3580.00000
 41
1.00000000
 42
1.00000000
 43
1.00000000
 50
 270.000
  0
INSERT
  8
2
  2
ARROW
 10
-2384.0935
 20
4580.00000
 41
1.00000000
 42
1.00000000
 43
1.00000000
 50
  90.000
  0
TEXT
  8
11
 7
SIMPLEX
 10
-2290.3789
 20
3939.42847
 40
281.143097
  1
1000
 50
   0.000
  0
LINE
  8
12
 10
-2384.0935
 20
4580.00000
 11
-2384.0935
 21
4580.00000
  0
LINE
  8
12
 10
-2384.0935
 20
5580.00000
 11
-2384.0935
 21
5580.00000
  0
LINE
  8
2
 10
-2384.0935
 20
4580.00000
 11
-2384.0935
 21
5580.00000
  0
INSERT
  8
2
  2
ARROW
 10
-2384.0935
 20
4580.00000
 41
1.00000000
 42
1.00000000
 43
1.00000000
 50
 270.000
  0
INSERT
  8
2
  2
ARROW
 10
-2384.0935
 20
5580.00000
 41
1.00000000
 42
1.00000000
 43
1.00000000
 50
  90.000
  0
TEXT
  8
11
 7
SIMPLEX
 10
-2290.3789
 20
4939.42822
 40
281.143097
  1
1000
 50
   0.000
  0
LINE
  8
12
 10
-2384.0935
 20
5580.00000
 11
-2384.0935
 21
5580.00000
  0
LINE
  8
12
 10
-2384.0935
 20
6580.00000
 11
-2384.0935
 21
6580.00000
  0
LINE
  8
2
 10
-2384.0935
 20
5580.00000
 11
-2384.0935
 21
6580.00000
  0
INSERT
  8
2
  2
ARROW
 10
-2384.0935
 20
5580.00000
 41
1.00000000
 42
1.00000000
 43
1.00000000
 50
 270.000
  0
INSERT
  8
2
  2
ARROW
 10
-2384.0935
 20
6580.00000
 41
1.00000000
 42
1.00000000
 43
1.00000000
 50
  90.000
  0
TEXT
  8
11
 7
SIMPLEX
 10
-2290.3789
 20
5939.42871
 40
281.143097
  1
1000
 50
   0.000
  0
LINE
  8
12
 10
-2384.0935
 20
6580.00000
 11
-2384.0935
 21
6580.00000
  0
LINE
  8
12
 10
-2384.0935
 20
7580.00000
 11
-2384.0935
 21
7580.00000
  0
LINE
  8
2
 10
-2384.0935
 20
6580.00000
 11
-2384.0935
 21
7580.00000
  0
INSERT
  8
2
  2
ARROW
 10
-2384.0935
 20
6580.00000
 41
1.00000000
 42
1.00000000
 43
1.00000000
 50
 270.000
  0
INSERT
  8
2
  2
ARROW
 10
-2384.0935
 20
7580.00000
 41
1.00000000
 42
1.00000000
 43
1.00000000
 50
  90.000
  0
TEXT
  8
11
 7
SIMPLEX
 10
-2290.3789
 20
6939.42871
 40
281.143097
  1
1000
 50
   0.000
  0
LINE
  8
12
 10
-2384.0935
 20
7580.00000
 11
-2384.0935
 21
7580.00000
  0
LINE
  8
12
 10
-2384.0935
 20
8380.00000
 11
-2384.0935
 21
8380.00000
  0
LINE
  8
2
 10
-2384.0935
 20
7580.00000
 11
-2384.0935
 21
8380.00000
  0
INSERT
  8
2
  2
ARROW
 10
-2384.0935
 20
7580.00000
 41
1.00000000
 42
1.00000000
 43
1.00000000
 50
 270.000
  0
INSERT
  8
2
  2
ARROW
 10
-2384.0935
 20
8380.00000
 41
1.00000000
 42
1.00000000
 43
1.00000000
 50
  90.000
  0
TEXT
  8
11
 7
SIMPLEX
 10
-2290.3789
 20
7839.42871
 40
281.143097
  1
800
 50
   0.000
999
START:   AREA=Eave Dimension
  0
LINE
  8
12
 10
-2519.0422
 20
0.00000000
 11
-3643.6145
 21
0.00000000
  0
LINE
  8
12
 10
-2519.0422
 20
8169.99951
 11
-3643.6145
 21
8169.99951
  0
LINE
  8
2
 10
-3508.6655
 20
0.00000000
 11
-3508.6655
 21
8169.99951
  0
INSERT
  8
2
  2
ARROW
 10
-3508.6655
 20
0.00000000
 41
1.00000000
 42
1.00000000
 43
1.00000000
 50
 270.000
  0
INSERT
  8
2
  2
ARROW
 10
-3508.6655
 20
8169.99951
 41
1.00000000
 42
1.00000000
 43
1.00000000
 50
  90.000
  0
TEXT
  8
11
 7
SIMPLEX
 10
-3602.3796
 20
3571.91382
 40
281.143097
  1
8170
 50
  90.000
999
END:     AREA=Eave Dimension
999
START:   AREA=Draw Canopy Dimension
999
END:     AREA=Draw Canopy Dimension
999
START:   AREA=Draw Floor and Extension Strut Dimensions
999
END:     AREA=Draw Floor and Extension Strut Dimensions
  0
LINE
  8
2
 10
3745.00000
 20
0.00000000
 11
3745.00000
 21
2500.00000
  0
INSERT
  8
2
  2
ARROW
 10
3745.00000
 20
0.00000000
 41
1.00000000
 42
1.00000000
 43
1.00000000
 50
 270.000
  0
INSERT
  8
2
  2
ARROW
 10
3745.00000
 20
2500.00000
 41
1.00000000
 42
1.00000000
 43
1.00000000
 50
  90.000
  0
TEXT
  8
11
 7
SIMPLEX
 10
3651.28564
 20
687.713867
 40
281.143097
  1
2500
 50
  90.000
999
END:     AREA=Dimensions
999
START:   AREA=Details
  0
INSERT
  8
7
  2
CUTSEC
 10
8441.17188
 20
9014.11719
 41
1.50000000
 42
-1.0000000
 43
-1.0000000
 50
 -84.289
  0
CIRCLE
  8
7
 10
8343.79492
 20
9987.63672
 40
269.897339
  0
TEXT
  8
7
 7
SIMPLEX
 10
8114.92236
 20
9901.26953
 40
172.734299
  1
A10
 72
           1
 11
8343.79492
 21
9987.63672
 73
           2
 50
   0.000
  0
CIRCLE
  8
7
 10
11235.0000
 20
8459.41406
 40
112.457230
  0
LINE
  8
7
 10
11196.5410
 20
8565.09082
 11
10873.4834
 21
9452.77344
  0
CIRCLE
  8
7
 10
10781.1816
 20
9706.39648
 40
269.897339
  0
TEXT
  8
7
 7
SIMPLEX
 10
10522.0801
 20
9620.02930
 40
172.734299
  1
B20
 72
           1
 11
10781.1816
 21
9706.39648
 73
           2
 50
   0.000
  0
INSERT
  8
7
  2
CUTSEC
 10
11235.0000
 20
3159.73755
 41
1.00000000
 42
-1.0000000
 43
-1.0000000
 50
   0.000
  0
CIRCLE
  8
7
 10
10492.7822
 20
3159.73755
 40
269.897339
  0
TEXT
  8
7
 7
SIMPLEX
 10
10263.9102
 20
3073.37036
 40
172.734299
  1
C12
 72
           1
 11
10492.7822
 21
3159.73755
 73
           2
 50
   0.000
  0
INSERT
  8
7
  2
CUTSEC
 10
229.999985
 20
3159.73755
 41
-1.0000000
 42
-1.0000000
 43
-1.0000000
 50
   0.000
  0
CIRCLE
  8
7
 10
972.217651
 20
3159.73755
 40
269.897339
  0
TEXT
  8
7
 7
SIMPLEX
 10
713.116272
 20
3073.37036
 40
172.734299
  1
D77
 72
           1
 11
972.217651
 21
3159.73755
 73
           2
 50
   0.000
  0
INSERT
  8
7
  2
CUTSEC
 10
229.999985
 20
4159.73730
 41
-1.0000000
 42
-1.0000000
 43
-1.0000000
 50
   0.000
  0
CIRCLE
  8
7
 10
972.217651
 20
4159.73730
 40
269.897339
  0
TEXT
  8
7
 7
SIMPLEX
 10
713.116272
 20
4073.37036
 40
172.734299
  1
D27
 72
           1
 11
972.217651
 21
4159.73730
 73
           2
 50
   0.000
  0
INSERT
  8
7
  2
CUTSEC
 10
22240.0000
 20
3159.73755
 41
1.00000000
 42
-1.0000000
 43
-1.0000000
 50
   0.000
  0
CIRCLE
  8
7
 10
21497.7813
 20
3159.73755
 40
269.897339
  0
TEXT
  8
7
 7
SIMPLEX
 10
21238.6797
 20
3073.37036
 40
172.734299
  1
D77
 72
           1
 11
21497.7813
 21
3159.73755
 73
           2
 50
   0.000
  0
INSERT
  8
7
  2
CUTSEC
 10
22240.0000
 20
4159.73730
 41
1.00000000
 42
-1.0000000
 43
-1.0000000
 50
   0.000
  0
CIRCLE
  8
7
 10
21497.7813
 20
4159.73730
 40
269.897339
  0
TEXT
  8
7
 7
SIMPLEX
 10
21238.6797
 20
4073.37036
 40
172.734299
  1
D27
 72
           1
 11
21497.7813
 21
4159.73730
 73
           2
 50
   0.000
  0
INSERT
  8
7
  2
CUTSEC
 10
11235.0000
 20
579.737488
 41
1.00000000
 42
-1.0000000
 43
-1.0000000
 50
   0.000
  0
CIRCLE
  8
7
 10
10492.7822
 20
579.737488
 40
269.897339
  0
TEXT
  8
7
 7
SIMPLEX
 10
10276.8652
 20
471.778503
 40
215.917892
  1
E3
 72
           1
 11
10492.7822
 21
579.737488
 73
           2
 50
   0.000
999
START:   AREA=Cables
999
END:     AREA=Cables
  0
CIRCLE
  8
7
 10
3435.23804
 20
8312.52539
 40
112.457230
  0
LINE
  8
7
 10
3396.77856
 20
8418.20215
 11
3073.72095
 21
9305.88477
  0
CIRCLE
  8
7
 10
2981.41895
 20
9559.50781
 40
269.897339
  0
TEXT
  8
7
 7
SIMPLEX
 10
2765.50122
 20
9451.54883
 40
215.917892
  1
W8
 72
           1
 11
2981.41895
 21
9559.50781
 73
           2
 50
   0.000
999
END:     AREA=Details
999
START:   AREA=Extensions
999
END:     AREA=Extensions
999
START:   AREA=Eave/Extension Purlins
999
START:   AREA=Eave/Extension Purlins
999
START:   AREA=Eave Extensions
999
END:     AREA=Eave Extensions
999
START:   AREA=Canopy Extensions around corner
999
END:     AREA=Canopy Extensions around corner
999
START:   AREA=Facia Extensions on Endwall
999
END:     AREA=Facia Extensions on Endwall
999
START:   AREA=Draw Facia Detail
999
END:     AREA=Draw Facia Detail
  0
ENDBLK
  8
0
  0
BLOCK
  8
0
  2
EW2FRM
 70
     0
 10
0.00000000
 20
0.00000000
999
START:   AREA=Surface
  0
LINE
  8
5
 10
0.00000000
 20
0.00000000
 11
22470.0000
 21
0.00000000
  0
LINE
  8
5
 10
0.00000000
 20
0.00000000
 11
0.00000000
 21
8169.99951
  0
LINE
  8
5
 10
0.00000000
 20
8169.99951
 11
11235.0000
 21
9293.50000
  0
LINE
  8
5
 10
11235.0000
 20
9293.50000
 11
22470.0000
 21
8169.99951
  0
LINE
  8
5
 10
22470.0000
 20
8169.99951
 11
22470.0000
 21
0.00000000
999
END:     AREA=Surface
999
START:   AREA=Columns
  0
LINE
  8
4
 10
11235.0000
 20
0.00000000
 11
11235.0000
 21
8391.94043
  0
INSERT
  8
10
  2
WCOL
 10
11235.0000
 20
-134.94867
 41
11.0686255
 42
11.0686255
 43
11.0686255
 50
   0.000
  0
TEXT
  8
3
 7
SIMPLEX
 10
10686.7705
 20
-832.18359
 40
281.143097
  1
EC-2
 50
   0.000
999
END:     AREA=Columns
999
START:   AREA=RF Outline
  0
LINE
  8
5
 10
230.000015
 20
-0.4000000
 11
229.999939
 21
7992.00195
  0
LINE
  8
5
 10
229.999939
 20
7992.00195
 11
11235.0000
 21
9092.50195
  0
LINE
  8
5
 10
11235.0000
 20
9092.50195
 11
22240.0000
 21
7992.00195
  0
LINE
  8
5
 10
22240.0000
 20
7992.00195
 11
22240.0000
 21
-0.4000000
  0
LINE
  8
5
 10
640.799988
 20
-0.4000000
 11
942.000061
 21
4015.60010
  0
LINE
  8
5
 10
942.000061
 20
4015.60010
 11
942.000061
 21
7649.39990
  0
LINE
  8
5
 10
942.000061
 20
7649.39990
 11
1039.80005
 21
7660.39990
  0
LINE
  8
5
 10
1039.80005
 20
7660.39990
 11
1039.59998
 21
7660.39990
  0
LINE
  8
5
 10
1039.59998
 20
7660.39990
 11
4439.39990
 21
8101.39990
  0
LINE
  8
5
 10
4439.39990
 20
8101.39990
 11
8723.00000
 21
8529.79980
  0
LINE
  8
5
 10
8723.00000
 20
8529.79980
 11
11235.0000
 21
8529.70020
  0
LINE
  8
5
 10
11235.0000
 20
8529.70020
 11
13747.5010
 21
8529.70020
  0
LINE
  8
5
 10
13747.5010
 20
8529.70020
 11
18030.6992
 21
8101.39990
  0
LINE
  8
5
 10
18030.6992
 20
8101.39990
 11
21430.4004
 21
7660.39990
  0
LINE
  8
5
 10
21430.4004
 20
7660.39990
 11
21430.4004
 21
7660.39990
  0
LINE
  8
5
 10
21430.4004
 20
7660.39990
 11
21533.1992
 21
7644.39990
  0
LINE
  8
5
 10
21533.1992
 20
7644.39990
 11
21528.0000
 21
4016.00024
  0
LINE
  8
5
 10
21528.0000
 20
4016.00024
 11
21829.1992
 21
-0.4000000
  0
LINE
  8
5
 10
230.000015
 20
-0.4000000
 11
640.799988
 21
-0.4000000
  0
LINE
  8
5
 10
22240.0000
 20
-0.4000000
 11
21829.1992
 21
-0.4000000
999
START:   AREA=RF Outline
999
START:   AREA=Backbrace Struts
999
END:     AREA=Backbrace Struts
999
START:   AREA=Header Struts
999
END:     AREA=Header Struts
999
START:   AREA=Framed Openings
  0
LINE
  8
1
 10
3417.99976
 20
0.00000000
 11
3417.99976
 21
4512.52588
  0
TEXT
  8
3
 7
SIMPLEX
 10
3769.42920
 20
1750.97083
 40
281.143097
  1
DJ-1
 50
  90.000
  0
INSERT
  8
10
  2
CCOL
 10
3417.99976
 20
-134.94867
 41
-11.068625
 42
11.0686255
 43
11.0686255
 50
   0.000
  0
LINE
  8
1
 10
7918.00049
 20
0.00000000
 11
7918.00049
 21
4512.52588
  0
TEXT
  8
3
 7
SIMPLEX
 10
7847.71533
 20
1750.97083
 40
281.143097
  1
DJ-1
 50
  90.000
  0
INSERT
  8
10
  2
CCOL
 10
7918.00049
 20
-134.94867
 41
11.0686255
 42
11.0686255
 43
11.0686255
 50
   0.000
999
END:     AREA=Framed Openings
999
START:   AREA=Wideopen Outlines
999
END:     AREA=WideOpen Outlines
999
START:   AREA=Wind Frames
999
END:     AREA=Wind Frames
999
START:   AREA=Wall Panel
999
END:     AREA=Wall Panel
999
START:   AREA=Base Angles
999
START:   AREA=Sheeting Angles
  0
TEXT
  8
3
 7
SIMPLEX
 10
5241.20117
 20
10011.7363
 40
281.143097
  1
GA
 50
   5.711
  0
TEXT
  8
3
 7
SIMPLEX
 10
16669.3047
 20
10067.6865
 40
281.143097
  1
GA
 50
  -5.711
999
START:   AREA=Sheeting Angles
999
START:   AREA=Corner Angles
999
END:     AREA=Corner Angles
999
START:   AREA=Partial Wall Angles
  0
LINE
  8
5
 10
0.00000000
 20
0.00000000
 11
0.00000000
 21
2500.00000
  0
LINE
  8
5
 10
22470.0000
 20
0.00000000
 11
22470.0000
 21
2500.00000
  0
LINE
  8
5
 10
0.00000000
 20
2500.00000
 11
3417.99976
 21
2500.00000
  0
LINE
  8
5
 10
7918.00049
 20
2500.00000
 11
22470.0000
 21
2500.00000
999
END:     AREA=Partial Wall Angles
999
START:   AREA=Wide Door Angles
999
END:     AREA=Wide Door Angles
999
START:   AREA=Cables
999
END:     AREA=Cables
999
START:   AREA=Girts
  0
LINE
  8
1
 10
200.000000
 20
2512.52563
 11
3350.52588
 21
2512.52563
  0
TEXT
  8
3
 7
SIMPLEX
 10
725.413940
 20
2582.81152
 40
281.143097
  1
 G-9
 50
   0.000
  0
LINE
  8
1
 10
7985.47461
 20
2512.52563
 11
12240.0000
 21
2512.52563
  0
TEXT
  8
3
 7
SIMPLEX
 10
9507.04297
 20
2582.81152
 40
281.143097
  1
 G-12
 50
   0.000
  0
LINE
  8
1
 10
0.00000000
 20
3512.52588
 11
3350.52588
 21
3512.52588
  0
TEXT
  8
3
 7
SIMPLEX
 10
634.042419
 20
3582.81152
 40
281.143097
  1
 G-10
 50
   0.000
  0
LINE
  8
1
 10
7985.47461
 20
3512.52588
 11
12240.0000
 21
3512.52588
  0
TEXT
  8
3
 7
SIMPLEX
 10
9507.04297
 20
3582.81152
 40
281.143097
  1
 G-13
 50
   0.000
  0
LINE
  8
1
 10
0.00000000
 20
4512.52588
 11
12240.0000
 21
4512.52588
  0
TEXT
  8
3
 7
SIMPLEX
 10
4640.52734
 20
4582.81152
 40
281.143097
  1
(2) G-11
 50
   0.000
  0
LINE
  8
1
 10
0.00000000
 20
5712.52588
 11
12240.0000
 21
5712.52588
  0
TEXT
  8
3
 7
SIMPLEX
 10
5104.41309
 20
5782.81104
 40
281.143097
  1
 G-2
 50
   0.000
  0
LINE
  8
1
 10
0.00000000
 20
6512.52588
 11
12240.0000
 21
6512.52588
  0
TEXT
  8
3
 7
SIMPLEX
 10
5104.41309
 20
6582.81104
 40
281.143097
  1
 G-2
 50
   0.000
  0
LINE
  8
1
 10
0.00000000
 20
7512.52588
 11
12240.0000
 21
7512.52588
  0
TEXT
  8
3
 7
SIMPLEX
 10
5104.41309
 20
7582.81152
 40
281.143097
  1
 G-2
 50
   0.000
  0
LINE
  8
1
 10
3435.23804
 20
8312.52539
 11
12240.0000
 21
8312.52539
  0
TEXT
  8
3
 7
SIMPLEX
 10
7351.41357
 20
8382.81152
 40
281.143097
  1
 G-4
 50
   0.000
  0
LINE
  8
1
 10
10230.0000
 20
2647.47437
 11
22270.0000
 21
2647.47437
  0
TEXT
  8
3
 7
SIMPLEX
 10
16339.4131
 20
2717.76025
 40
281.143097
  1
 G-5
 50
   0.000
  0
LINE
  8
1
 10
10230.0000
 20
3647.47412
 11
22470.0000
 21
3647.47412
  0
TEXT
  8
3
 7
SIMPLEX
 10
16339.4131
 20
3717.75977
 40
281.143097
  1
 G-6
 50
   0.000
  0
LINE
  8
1
 10
10230.0000
 20
4647.47412
 11
22470.0000
 21
4647.47412
  0
TEXT
  8
3
 7
SIMPLEX
 10
15917.6992
 20
4717.75977
 40
281.143097
  1
(2) G-6
 50
   0.000
  0
LINE
  8
1
 10
10230.0000
 20
5847.47412
 11
22470.0000
 21
5847.47412
  0
TEXT
  8
3
 7
SIMPLEX
 10
16339.4131
 20
5917.75977
 40
281.143097
  1
 G-6
 50
   0.000
  0
LINE
  8
1
 10
10230.0000
 20
6647.47412
 11
22470.0000
 21
6647.47412
  0
TEXT
  8
3
 7
SIMPLEX
 10
16339.4131
 20
6717.75977
 40
281.143097
  1
 G-6
 50
   0.000
  0
LINE
  8
1
 10
10230.0000
 20
7647.47412
 11
22470.0000
 21
7647.47412
  0
TEXT
  8
3
 7
SIMPLEX
 10
16339.4131
 20
7717.75977
 40
281.143097
  1
 G-6
 50
   0.000
  0
LINE
  8
1
 10
10230.0000
 20
8447.47461
 11
17685.2793
 21
8447.47461
  0
TEXT
  8
3
 7
SIMPLEX
 10
14092.4141
 20
8517.75977
 40
281.143097
  1
 G-8
 50
   0.000
999
END:     AREA=Girts
999
START:   AREA=Lap Girts
999
END:     AREA=Lap Girts
999
START:   AREA=Column Flange Brace
  0
INSERT
  8
3
  2
MARKER
 10
11572.3721
 20
3647.47412
 41
12.4522038
 42
12.4522038
 43
12.4522038
 50
   0.000
  0
TEXT
  8
3
 7
SIMPLEX
 10
10939.7998
 20
4034.04565
 40
281.143097
  1
FB568
 50
   0.000
  0
INSERT
  8
3
  2
MARKER
 10
11572.3721
 20
5847.47412
 41
12.4522038
 42
12.4522038
 43
12.4522038
 50
   0.000
  0
TEXT
  8
3
 7
SIMPLEX
 10
10939.7998
 20
6234.04590
 40
281.143097
  1
FB568
 50
   0.000
999
END:     AREA=Column Flange Brace
999
START:   AREA=Rafter Flange Brace
999
END:     AREA=Rafter Flange Brace
999
START:   AREA=Wall Struts
999
END:     AREA=Wall Struts
999
START:   AREA=Accessories
999
END:     AREA=Accessories
999
START:   AREA=Cranes
999
END:     AREA=Cranes
999
START:   AREA=JBlocks
  0
TEXT
  8
3
 7
SIMPLEX
 10
2314.47510
 20
3012.52588
 40
281.143097
  1
JB-1
 50
   0.000
  0
LINE
  8
1
 10
2247.00073
 20
2580.00000
 11
2247.00073
 21
3445.05176
  0
TEXT
  8
3
 7
SIMPLEX
 10
2314.47510
 20
4012.52588
 40
281.143097
  1
JB-1
 50
   0.000
  0
LINE
  8
1
 10
2247.00073
 20
3580.00000
 11
2247.00073
 21
4445.05127
  0
TEXT
  8
3
 7
SIMPLEX
 10
2314.47510
 20
5112.52588
 40
281.143097
  1
JB-4
 50
   0.000
  0
LINE
  8
1
 10
2247.00073
 20
4580.00000
 11
2247.00073
 21
5645.05176
  0
TEXT
  8
3
 7
SIMPLEX
 10
2314.47510
 20
6112.52588
 40
281.143097
  1
JB-2
 50
   0.000
  0
LINE
  8
1
 10
2247.00073
 20
5780.00000
 11
2247.00073
 21
6445.05176
  0
TEXT
  8
3
 7
SIMPLEX
 10
2314.47510
 20
7012.52539
 40
281.143097
  1
JB-1
 50
   0.000
  0
LINE
  8
1
 10
2247.00073
 20
6580.00000
 11
2247.00073
 21
7445.05176
  0
LINE
  8
1
 10
4493.99902
 20
4580.00000
 11
4493.99902
 21
5645.05176
  0
LINE
  8
1
 10
4493.99902
 20
5780.00000
 11
4493.99902
 21
6445.05176
  0
LINE
  8
1
 10
4493.99902
 20
6580.00000
 11
4493.99902
 21
7445.05176
  0
TEXT
  8
3
 7
SIMPLEX
 10
4561.47314
 20
7912.52588
 40
281.143097
  1
JB-2
 50
   0.000
  0
LINE
  8
1
 10
4493.99902
 20
7580.00000
 11
4493.99902
 21
8245.05176
  0
LINE
  8
1
 10
6740.99951
 20
4580.00000
 11
6740.99951
 21
5645.05176
  0
LINE
  8
1
 10
6740.99951
 20
5780.00000
 11
6740.99951
 21
6445.05176
  0
LINE
  8
1
 10
6740.99951
 20
6580.00000
 11
6740.99951
 21
7445.05176
  0
LINE
  8
1
 10
6740.99951
 20
7580.00000
 11
6740.99951
 21
8245.05176
  0
LINE
  8
1
 10
8988.00098
 20
2580.00000
 11
8988.00098
 21
3445.05176
  0
LINE
  8
1
 10
8988.00098
 20
3580.00000
 11
8988.00098
 21
4445.05127
  0
LINE
  8
1
 10
8988.00098
 20
4580.00000
 11
8988.00098
 21
5645.05176
  0
LINE
  8
1
 10
8988.00098
 20
5780.00000
 11
8988.00098
 21
6445.05176
  0
LINE
  8
1
 10
8988.00098
 20
6580.00000
 11
8988.00098
 21
7445.05176
  0
LINE
  8
1
 10
8988.00098
 20
7580.00000
 11
8988.00098
 21
8245.05176
  0
LINE
  8
1
 10
13482.0020
 20
2714.94873
 11
13482.0020
 21
3580.00000
  0
LINE
  8
1
 10
13482.0020
 20
3714.94849
 11
13482.0020
 21
4580.00000
  0
LINE
  8
1
 10
13482.0020
 20
4714.94824
 11
13482.0020
 21
5780.00000
  0
LINE
  8
1
 10
13482.0020
 20
5914.94824
 11
13482.0020
 21
6580.00000
  0
LINE
  8
1
 10
13482.0020
 20
6714.94824
 11
13482.0020
 21
7580.00000
  0
LINE
  8
1
 10
13482.0020
 20
7714.94824
 11
13482.0020
 21
8380.00000
  0
LINE
  8
1
 10
15728.9980
 20
2714.94873
 11
15728.9980
 21
3580.00000
  0
LINE
  8
1
 10
15728.9980
 20
3714.94849
 11
15728.9980
 21
4580.00000
  0
LINE
  8
1
 10
15728.9980
 20
4714.94824
 11
15728.9980
 21
5780.00000
  0
LINE
  8
1
 10
15728.9980
 20
5914.94824
 11
15728.9980
 21
6580.00000
  0
LINE
  8
1
 10
15728.9980
 20
6714.94824
 11
15728.9980
 21
7580.00000
  0
LINE
  8
1
 10
15728.9980
 20
7714.94824
 11
15728.9980
 21
8380.00000
  0
LINE
  8
1
 10
17976.0000
 20
2714.94873
 11
17976.0000
 21
3580.00000
  0
LINE
  8
1
 10
17976.0000
 20
3714.94849
 11
17976.0000
 21
4580.00000
  0
LINE
  8
1
 10
17976.0000
 20
4714.94824
 11
17976.0000
 21
5780.00000
  0
LINE
  8
1
 10
17976.0000
 20
5914.94824
 11
17976.0000
 21
6580.00000
  0
LINE
  8
1
 10
17976.0000
 20
6714.94824
 11
17976.0000
 21
7580.00000
  0
LINE
  8
1
 10
17976.0000
 20
7714.94824
 11
17976.0000
 21
8380.00000
  0
LINE
  8
1
 10
20223.0000
 20
2714.94873
 11
20223.0000
 21
3580.00000
  0
LINE
  8
1
 10
20223.0000
 20
3714.94849
 11
20223.0000
 21
4580.00000
  0
LINE
  8
1
 10
20223.0000
 20
4714.94824
 11
20223.0000
 21
5780.00000
  0
LINE
  8
1
 10
20223.0000
 20
5914.94824
 11
20223.0000
 21
6580.00000
  0
LINE
  8
1
 10
20223.0000
 20
6714.94824
 11
20223.0000
 21
7580.00000
999
END:     AREA=JBlocks
999
START:   AREA=Clips
  0
TEXT
  8
3
 7
SIMPLEX
 10
105.428650
 20
3196.23999
 40
210.857300
  1
1
 50
   0.000
  0
LINE
  8
3
 10
369.000305
 20
3143.52588
 11
369.000305
 21
3459.81152
  0
LINE
  8
3
 10
52.7143250
 20
3143.52588
 11
52.7143250
 21
3459.81152
  0
LINE
  8
3
 10
52.7143250
 20
3459.81152
 11
369.000305
 21
3459.81152
  0
LINE
  8
3
 10
369.000305
 20
3143.52588
 11
52.7143250
 21
3143.52588
  0
TEXT
  8
3
 7
SIMPLEX
 10
105.428650
 20
4196.23975
 40
210.857300
  1
1
 50
   0.000
  0
LINE
  8
3
 10
369.000305
 20
4143.52539
 11
369.000305
 21
4459.81104
  0
LINE
  8
3
 10
52.7143250
 20
4143.52539
 11
52.7143250
 21
4459.81104
  0
LINE
  8
3
 10
52.7143250
 20
4459.81104
 11
369.000305
 21
4459.81104
  0
LINE
  8
3
 10
369.000305
 20
4143.52539
 11
52.7143250
 21
4143.52539
  0
TEXT
  8
3
 7
SIMPLEX
 10
105.428650
 20
5396.24023
 40
210.857300
  1
1
 50
   0.000
  0
LINE
  8
3
 10
369.000305
 20
5343.52539
 11
369.000305
 21
5659.81104
  0
LINE
  8
3
 10
52.7143250
 20
5343.52539
 11
52.7143250
 21
5659.81104
  0
LINE
  8
3
 10
52.7143250
 20
5659.81104
 11
369.000305
 21
5659.81104
  0
LINE
  8
3
 10
369.000305
 20
5343.52539
 11
52.7143250
 21
5343.52539
  0
TEXT
  8
3
 7
SIMPLEX
 10
105.428650
 20
6196.24023
 40
210.857300
  1
1
 50
   0.000
  0
LINE
  8
3
 10
369.000305
 20
6143.52490
 11
369.000305
 21
6459.81104
  0
LINE
  8
3
 10
52.7143250
 20
6143.52490
 11
52.7143250
 21
6459.81104
  0
LINE
  8
3
 10
52.7143250
 20
6459.81104
 11
369.000305
 21
6459.81104
  0
LINE
  8
3
 10
369.000305
 20
6143.52490
 11
52.7143250
 21
6143.52490
  0
TEXT
  8
3
 7
SIMPLEX
 10
105.428650
 20
7196.24023
 40
210.857300
  1
1
 50
   0.000
  0
LINE
  8
3
 10
369.000305
 20
7143.52490
 11
369.000305
 21
7459.81201
  0
LINE
  8
3
 10
52.7143250
 20
7143.52490
 11
52.7143250
 21
7459.81201
  0
LINE
  8
3
 10
52.7143250
 20
7459.81201
 11
369.000305
 21
7459.81201
  0
LINE
  8
3
 10
369.000305
 20
7143.52490
 11
52.7143250
 21
7143.52490
  0
TEXT
  8
3
 7
SIMPLEX
 10
3540.66650
 20
7996.24023
 40
210.857300
  1
2
 50
   0.000
  0
LINE
  8
3
 10
3804.23779
 20
7943.52490
 11
3804.23779
 21
8259.81152
  0
LINE
  8
3
 10
3487.95190
 20
7943.52490
 11
3487.95190
 21
8259.81152
  0
LINE
  8
3
 10
3487.95190
 20
8259.81152
 11
3804.23779
 21
8259.81152
  0
LINE
  8
3
 10
3804.23779
 20
7943.52490
 11
3487.95190
 21
7943.52490
  0
TEXT
  8
3
 7
SIMPLEX
 10
22153.7148
 20
3331.18774
 40
210.857300
  1
1
 50
   0.000
  0
LINE
  8
3
 10
22417.2852
 20
3278.47388
 11
22417.2852
 21
3594.75977
  0
LINE
  8
3
 10
22101.0000
 20
3278.47388
 11
22101.0000
 21
3594.75977
  0
LINE
  8
3
 10
22101.0000
 20
3594.75977
 11
22417.2852
 21
3594.75977
  0
LINE
  8
3
 10
22417.2852
 20
3278.47388
 11
22101.0000
 21
3278.47388
  0
TEXT
  8
3
 7
SIMPLEX
 10
22153.7148
 20
4331.18799
 40
210.857300
  1
1
 50
   0.000
  0
LINE
  8
3
 10
22417.2852
 20
4278.47363
 11
22417.2852
 21
4594.75928
  0
LINE
  8
3
 10
22101.0000
 20
4278.47363
 11
22101.0000
 21
4594.75928
  0
LINE
  8
3
 10
22101.0000
 20
4594.75928
 11
22417.2852
 21
4594.75928
  0
LINE
  8
3
 10
22417.2852
 20
4278.47363
 11
22101.0000
 21
4278.47363
  0
TEXT
  8
3
 7
SIMPLEX
 10
22153.7148
 20
5531.18799
 40
210.857300
  1
1
 50
   0.000
  0
LINE
  8
3
 10
22417.2852
 20
5478.47363
 11
22417.2852
 21
5794.75928
  0
LINE
  8
3
 10
22101.0000
 20
5478.47363
 11
22101.0000
 21
5794.75928
  0
LINE
  8
3
 10
22101.0000
 20
5794.75928
 11
22417.2852
 21
5794.75928
  0
LINE
  8
3
 10
22417.2852
 20
5478.47363
 11
22101.0000
 21
5478.47363
  0
TEXT
  8
3
 7
SIMPLEX
 10
22153.7148
 20
6331.18799
 40
210.857300
  1
1
 50
   0.000
  0
LINE
  8
3
 10
22417.2852
 20
6278.47363
 11
22417.2852
 21
6594.76025
  0
LINE
  8
3
 10
22101.0000
 20
6278.47363
 11
22101.0000
 21
6594.76025
  0
LINE
  8
3
 10
22101.0000
 20
6594.76025
 11
22417.2852
 21
6594.76025
  0
LINE
  8
3
 10
22417.2852
 20
6278.47363
 11
22101.0000
 21
6278.47363
  0
TEXT
  8
3
 7
SIMPLEX
 10
22153.7148
 20
7331.18799
 40
210.857300
  1
1
 50
   0.000
  0
LINE
  8
3
 10
22417.2852
 20
7278.47363
 11
22417.2852
 21
7594.76025
  0
LINE
  8
3
 10
22101.0000
 20
7278.47363
 11
22101.0000
 21
7594.76025
  0
LINE
  8
3
 10
22101.0000
 20
7594.76025
 11
22417.2852
 21
7594.76025
  0
LINE
  8
3
 10
22417.2852
 20
7278.47363
 11
22101.0000
 21
7278.47363
  0
TEXT
  8
3
 7
SIMPLEX
 10
17368.9941
 20
8131.18799
 40
210.857300
  1
2
 50
   0.000
  0
LINE
  8
3
 10
17632.5645
 20
8078.47363
 11
17632.5645
 21
8394.76074
  0
LINE
  8
3
 10
17316.2793
 20
8078.47363
 11
17316.2793
 21
8394.76074
  0
LINE
  8
3
 10
17316.2793
 20
8394.76074
 11
17632.5645
 21
8394.76074
  0
LINE
  8
3
 10
17632.5645
 20
8078.47363
 11
17316.2793
 21
8078.47363
  0
TEXT
  8
3
 7
SIMPLEX
 10
2961.14233
 20
-316.28598
 40
210.857300
  1
3
 50
   0.000
  0
LINE
  8
3
 10
3224.71387
 20
-369.00031
 11
3224.71387
 21
-52.714340
  0
LINE
  8
3
 10
2908.42773
 20
-369.00031
 11
2908.42773
 21
-52.714340
  0
LINE
  8
3
 10
2908.42773
 20
-52.714340
 11
3224.71387
 21
-52.714340
  0
LINE
  8
3
 10
3224.71387
 20
-369.00031
 11
2908.42773
 21
-369.00031
  0
TEXT
  8
3
 7
SIMPLEX
 10
3101.71387
 20
4196.23975
 40
210.857300
  1
4
 50
   0.000
  0
LINE
  8
3
 10
3365.28564
 20
4143.52539
 11
3365.28564
 21
4459.81104
  0
LINE
  8
3
 10
3048.99927
 20
4143.52539
 11
3048.99927
 21
4459.81104
  0
LINE
  8
3
 10
3048.99927
 20
4459.81104
 11
3365.28564
 21
4459.81104
  0
LINE
  8
3
 10
3365.28564
 20
4143.52539
 11
3048.99927
 21
4143.52539
  0
TEXT
  8
3
 7
SIMPLEX
 10
3101.71387
 20
2196.23975
 40
210.857300
  1
5
 50
   0.000
  0
LINE
  8
3
 10
3365.28564
 20
2143.52539
 11
3365.28564
 21
2459.81152
  0
LINE
  8
3
 10
3048.99927
 20
2143.52539
 11
3048.99927
 21
2459.81152
  0
LINE
  8
3
 10
3048.99927
 20
2459.81152
 11
3365.28564
 21
2459.81152
  0
LINE
  8
3
 10
3365.28564
 20
2143.52539
 11
3048.99927
 21
2143.52539
  0
TEXT
  8
3
 7
SIMPLEX
 10
3101.71387
 20
3196.23999
 40
210.857300
  1
5
 50
   0.000
  0
LINE
  8
3
 10
3365.28564
 20
3143.52588
 11
3365.28564
 21
3459.81152
  0
LINE
  8
3
 10
3048.99927
 20
3143.52588
 11
3048.99927
 21
3459.81152
  0
LINE
  8
3
 10
3048.99927
 20
3459.81152
 11
3365.28564
 21
3459.81152
  0
LINE
  8
3
 10
3365.28564
 20
3143.52588
 11
3048.99927
 21
3143.52588
  0
TEXT
  8
3
 7
SIMPLEX
 10
8164.00146
 20
-316.28598
 40
210.857300
  1
3
 50
   0.000
  0
LINE
  8
3
 10
8427.57324
 20
-369.00031
 11
8427.57324
 21
-52.714340
  0
LINE
  8
3
 10
8111.28662
 20
-369.00031
 11
8111.28662
 21
-52.714340
  0
LINE
  8
3
 10
8111.28662
 20
-52.714340
 11
8427.57324
 21
-52.714340
  0
LINE
  8
3
 10
8427.57324
 20
-369.00031
 11
8111.28662
 21
-369.00031
  0
TEXT
  8
3
 7
SIMPLEX
 10
8023.42969
 20
4196.23975
 40
210.857300
  1
4
 50
   0.000
  0
LINE
  8
3
 10
8287.00195
 20
4143.52539
 11
8287.00195
 21
4459.81104
  0
LINE
  8
3
 10
7970.71484
 20
4143.52539
 11
7970.71484
 21
4459.81104
  0
LINE
  8
3
 10
7970.71484
 20
4459.81104
 11
8287.00195
 21
4459.81104
  0
LINE
  8
3
 10
8287.00195
 20
4143.52539
 11
7970.71484
 21
4143.52539
  0
TEXT
  8
3
 7
SIMPLEX
 10
8023.42969
 20
2196.23975
 40
210.857300
  1
5
 50
   0.000
  0
LINE
  8
3
 10
8287.00195
 20
2143.52539
 11
8287.00195
 21
2459.81152
  0
LINE
  8
3
 10
7970.71484
 20
2143.52539
 11
7970.71484
 21
2459.81152
  0
LINE
  8
3
 10
7970.71484
 20
2459.81152
 11
8287.00195
 21
2459.81152
  0
LINE
  8
3
 10
8287.00195
 20
2143.52539
 11
7970.71484
 21
2143.52539
  0
TEXT
  8
3
 7
SIMPLEX
 10
8023.42969
 20
3196.23999
 40
210.857300
  1
5
 50
   0.000
  0
LINE
  8
3
 10
8287.00195
 20
3143.52588
 11
8287.00195
 21
3459.81152
  0
LINE
  8
3
 10
7970.71484
 20
3143.52588
 11
7970.71484
 21
3459.81152
  0
LINE
  8
3
 10
7970.71484
 20
3459.81152
 11
8287.00195
 21
3459.81152
  0
LINE
  8
3
 10
8287.00195
 20
3143.52588
 11
7970.71484
 21
3143.52588
999
END:     AREA=Clips
999
START:   AREA=Strut Bolts
999
START:   AREA=Strut Bolts
999
START:   AREA=JackBeams
999
END:     AREA=JackBeams
999
START:   AREA=Draw Adjacent Surfaces
999
END:     AREA=Draw Adjacent Surfaces
999
START:   AREA=Dimensions
  0
TEXT
  8
11
 7
SIMPLEX
 10
11340.4287
 20
-3562.0833
 40
210.857300
  1
1005
 50
   0.000
  0
LINE
  8
2
 10
11235.0000
 20
-3316.0825
 11
11235.0000
 21
-3105.2251
  0
LINE
  8
2
 10
11235.0000
 20
-3210.6538
 11
12240.0000
 21
-3210.6538
  0
TEXT
  8
11
 7
SIMPLEX
 10
10359.9424
 20
-3140.3679
 40
210.857300
  1
1005
 50
   0.000
  0
LINE
  8
2
 10
11235.0000
 20
-3316.0825
 11
11235.0000
 21
-3105.2251
  0
LINE
  8
2
 10
11235.0000
 20
-3210.6538
 11
10230.0000
 21
-3210.6538
  0
TEXT
  8
2
 7
SIMPLEX
 10
-1124.5724
 20
-3140.3682
 40
281.143097
  1
GIRT
 50
   0.000
  0
TEXT
  8
2
 7
SIMPLEX
 10
-1124.5724
 20
-3562.0825
 40
281.143097
  1
LAPS
 50
   0.000
999
START:   AREA=Match Line
  0
LINE
  8
12
 10
0.00000000
 20
9428.44824
 11
0.00000000
 21
13645.5947
  0
LINE
  8
12
 10
22470.0000
 20
9428.44824
 11
22470.0000
 21
13645.5947
  0
LINE
  8
2
 10
0.00000000
 20
13364.4521
 11
22470.0000
 21
13364.4521
  0
INSERT
  8
2
  2
ARROW
 10
0.00000000
 20
13364.4521
 41
1.00000000
 42
1.00000000
 43
1.00000000
 50
 180.000
  0
INSERT
  8
2
  2
ARROW
 10
22470.0000
 20
13364.4521
 41
1.00000000
 42
1.00000000
 43
1.00000000
 50
   0.000
  0
LINE
  8
2
 10
0.00000000
 20
11677.5928
 11
22470.0000
 21
11677.5928
  0
LINE
  8
12
 10
11235.0000
 20
9428.44824
 11
11235.0000
 21
12239.8789
  0
INSERT
  8
2
  2
ARROW
 10
0.00000000
 20
11677.5928
 41
1.00000000
 42
1.00000000
 43
1.00000000
 50
 180.000
  0
INSERT
  8
2
  2
ARROW
 10
11235.0000
 20
11677.5928
 41
1.00000000
 42
1.00000000
 43
1.00000000
 50
   0.000
  0
INSERT
  8
2
  2
ARROW
 10
11235.0000
 20
11677.5928
 41
1.00000000
 42
1.00000000
 43
1.00000000
 50
 180.000
  0
INSERT
  8
2
  2
ARROW
 10
22470.0000
 20
11677.5928
 41
1.00000000
 42
1.00000000
 43
1.00000000
 50
   0.000
  0
TEXT
  8
11
 7
SIMPLEX
 10
5013.04248
 20
11771.3076
 40
281.143097
  1
11235
 50
   0.000
  0
TEXT
  8
11
 7
SIMPLEX
 10
16248.0420
 20
11771.3076
 40
281.143097
  1
11235
 50
   0.000
  0
CIRCLE
  8
13
 10
0.00000000
 20
13982.9668
 40
337.371704
  0
TEXT
  8
13
 7
SIMPLEX
 10
-151.81726
 20
13831.1484
 40
303.634522
  1
A
 72
           1
 11
0.00000000
 21
13831.1484
 50
   0.000
  0
CIRCLE
  8
13
 10
22470.0000
 20
13982.9668
 40
337.371704
  0
TEXT
  8
13
 7
SIMPLEX
 10
22318.1836
 20
13831.1484
 40
303.634522
  1
C
 72
           1
 11
22470.0000
 21
13831.1484
 50
   0.000
  0
CIRCLE
  8
13
 10
11235.0000
 20
12577.2510
 40
337.371704
  0
TEXT
  8
13
 7
SIMPLEX
 10
11083.1826
 20
12425.4336
 40
303.634522
  1
B
 72
           1
 11
11235.0000
 21
12425.4336
 50
   0.000
  0
TEXT
  8
11
 7
SIMPLEX
 10
7854.25391
 20
13499.4004
 40
281.143097
  1
22470
 50
   0.000
  0
TEXT
  8
15
 7
SIMPLEX
 10
9259.97070
 20
13499.4004
 40
281.143097
  1
 OUT-TO-OUT OF STEEL
 50
   0.000
  0
TEXT
  8
15
 7
SIMPLEX
 10
5162.30957
 20
-4574.1973
 40
449.828918
  1
ENDWALL FRAMING: FRAME LINE 7
 72
           1
 11
11235.0000
 21
-4574.1973
 50
   0.000
  0
LINE
  8
2
 10
-3317.6462
 20
10665.4775
 11
-2402.1731
 21
11194.0273
  0
LINE
  8
2
 10
-3200.7773
 20
10732.9521
 11
-2519.0422
 21
10732.9521
  0
LINE
  8
2
 10
-2519.0422
 20
11126.5537
 11
-2519.0422
 21
10732.9521
  0
TEXT
  8
11
 7
SIMPLEX
 10
-2378.4707
 20
10732.9521
 40
281.143097
  1
10.0
 50
   0.000
  0
TEXT
  8
11
 7
SIMPLEX
 10
-3000.4814
 20
10311.2373
 40
281.143097
  1
100
 50
   0.000
  0
LINE
  8
2
 10
25787.6465
 20
10665.4775
 11
24872.1738
 21
11194.0273
  0
LINE
  8
2
 10
25670.7773
 20
10732.9521
 11
24989.0410
 21
10732.9521
  0
LINE
  8
2
 10
24989.0410
 20
11126.5537
 11
24989.0410
 21
10732.9521
  0
TEXT
  8
11
 7
SIMPLEX
 10
23864.4707
 20
10732.9521
 40
281.143097
  1
10.0
 50
   0.000
  0
TEXT
  8
11
 7
SIMPLEX
 10
25189.3379
 20
10311.2373
 40
281.143097
  1
100
 50
   0.000
  0
LINE
  8
12
 10
-472.32037
 20
0.00000000
 11
-2519.0422
 21
0.00000000
  0
LINE
  8
12
 10
-472.32037
 20
2580.00000
 11
-2519.0422
 21
2580.00000
  0
LINE
  8
12
 10
-472.32037
 20
3580.00000
 11
-2519.0422
 21
3580.00000
  0
LINE
  8
12
 10
-472.32037
 20
4580.00000
 11
-2519.0422
 21
4580.00000
  0
LINE
  8
12
 10
-472.32037
 20
5780.00000
 11
-2519.0422
 21
5780.00000
  0
LINE
  8
12
 10
-472.32037
 20
6580.00000
 11
-2519.0422
 21
6580.00000
  0
LINE
  8
12
 10
-472.32037
 20
7580.00000
 11
-2519.0422
 21
7580.00000
  0
LINE
  8
12
 10
-472.32037
 20
8380.00000
 11
-2519.0422
 21
8380.00000
  0
LINE
  8
12
 10
-2384.0935
 20
0.00000000
 11
-2384.0935
 21
0.00000000
  0
LINE
  8
12
 10
-2384.0933
 20
2580.00000
 11
-2384.0933
 21
2580.00000
  0
LINE
  8
2
 10
-2384.0935
 20
0.00000000
 11
-2384.0933
 21
2580.00000
  0
INSERT
  8
2
  2
ARROW
 10
-2384.0935
 20
0.00000000
 41
1.00000000
 42
1.00000000
 43
1.00000000
 50
 270.000
  0
INSERT
  8
2
  2
ARROW
 10
-2384.0933
 20
2580.00000
 41
1.00000000
 42
1.00000000
 43
1.00000000
 50
  90.000
  0
TEXT
  8
11
 7
SIMPLEX
 10
-2477.8079
 20
727.713867
 40
281.143097
  1
2580
 50
  90.000
  0
LINE
  8
12
 10
-2384.0935
 20
2580.00000
 11
-2384.0935
 21
2580.00000
  0
LINE
  8
12
 10
-2384.0935
 20
3580.00000
 11
-2384.0935
 21
3580.00000
  0
LINE
  8
2
 10
-2384.0935
 20
2580.00000
 11
-2384.0935
 21
3580.00000
  0
INSERT
  8
2
  2
ARROW
 10
-2384.0935
 20
2580.00000
 41
1.00000000
 42
1.00000000
 43
1.00000000
 50
 270.000
  0
INSERT
  8
2
  2
ARROW
 10
-2384.0935
 20
3580.00000
 41
1.00000000
 42
1.00000000
 43
1.00000000
 50
  90.000
  0
TEXT
  8
11
 7
SIMPLEX
 10
-2290.3789
 20
2939.42847
 40
281.143097
  1
1000
 50
   0.000
  0
LINE
  8
12
 10
-2384.0935
 20
3580.00000
 11
-2384.0935
 21
3580.00000
  0
LINE
  8
12
 10
-2384.0935
 20
4580.00000
 11
-2384.0935
 21
4580.00000
  0
LINE
  8
2
 10
-2384.0935
 20
3580.00000
 11
-2384.0935
 21
4580.00000
  0
INSERT
  8
2
  2
ARROW
 10
-2384.0935
 20
3580.00000
 41
1.00000000
 42
1.00000000
 43
1.00000000
 50
 270.000
  0
INSERT
  8
2
  2
ARROW
 10
-2384.0935
 20
4580.00000
 41
1.00000000
 42
1.00000000
 43
1.00000000
 50
  90.000
  0
TEXT
  8
11
 7
SIMPLEX
 10
-2290.3789
 20
3939.42847
 40
281.143097
  1
1000
 50
   0.000
  0
LINE
  8
12
 10
-2384.0935
 20
4580.00000
 11
-2384.0935
 21
4580.00000
  0
LINE
  8
12
 10
-2384.0935
 20
5780.00000
 11
-2384.0935
 21
5780.00000
  0
LINE
  8
2
 10
-2384.0935
 20
4580.00000
 11
-2384.0935
 21
5780.00000
  0
INSERT
  8
2
  2
ARROW
 10
-2384.0935
 20
4580.00000
 41
1.00000000
 42
1.00000000
 43
1.00000000
 50
 270.000
  0
INSERT
  8
2
  2
ARROW
 10
-2384.0935
 20
5780.00000
 41
1.00000000
 42
1.00000000
 43
1.00000000
 50
  90.000
  0
TEXT
  8
11
 7
SIMPLEX
 10
-2477.8079
 20
4666.91357
 40
281.143097
  1
1200
 50
  90.000
  0
LINE
  8
12
 10
-2384.0935
 20
5780.00000
 11
-2384.0935
 21
5780.00000
  0
LINE
  8
12
 10
-2384.0935
 20
6580.00000
 11
-2384.0935
 21
6580.00000
  0
LINE
  8
2
 10
-2384.0935
 20
5780.00000
 11
-2384.0935
 21
6580.00000
  0
INSERT
  8
2
  2
ARROW
 10
-2384.0935
 20
5780.00000
 41
1.00000000
 42
1.00000000
 43
1.00000000
 50
 270.000
  0
INSERT
  8
2
  2
ARROW
 10
-2384.0935
 20
6580.00000
 41
1.00000000
 42
1.00000000
 43
1.00000000
 50
  90.000
  0
TEXT
  8
11
 7
SIMPLEX
 10
-2290.3789
 20
6039.42871
 40
281.143097
  1
800
 50
   0.000
  0
LINE
  8
12
 10
-2384.0935
 20
6580.00000
 11
-2384.0935
 21
6580.00000
  0
LINE
  8
12
 10
-2384.0935
 20
7580.00000
 11
-2384.0935
 21
7580.00000
  0
LINE
  8
2
 10
-2384.0935
 20
6580.00000
 11
-2384.0935
 21
7580.00000
  0
INSERT
  8
2
  2
ARROW
 10
-2384.0935
 20
6580.00000
 41
1.00000000
 42
1.00000000
 43
1.00000000
 50
 270.000
  0
INSERT
  8
2
  2
ARROW
 10
-2384.0935
 20
7580.00000
 41
1.00000000
 42
1.00000000
 43
1.00000000
 50
  90.000
  0
TEXT
  8
11
 7
SIMPLEX
 10
-2290.3789
 20
6939.42871
 40
281.143097
  1
1000
 50
   0.000
  0
LINE
  8
12
 10
-2384.0935
 20
7580.00000
 11
-2384.0935
 21
7580.00000
  0
LINE
  8
12
 10
-2384.0935
 20
8380.00000
 11
-2384.0935
 21
8380.00000
  0
LINE
  8
2
 10
-2384.0935
 20
7580.00000
 11
-2384.0935
 21
8380.00000
  0
INSERT
  8
2
  2
ARROW
 10
-2384.0935
 20
7580.00000
 41
1.00000000
 42
1.00000000
 43
1.00000000
 50
 270.000
  0
INSERT
  8
2
  2
ARROW
 10
-2384.0935
 20
8380.00000
 41
1.00000000
 42
1.00000000
 43
1.00000000
 50
  90.000
  0
TEXT
  8
11
 7
SIMPLEX
 10
-2290.3789
 20
7839.42871
 40
281.143097
  1
800
 50
   0.000
999
START:   AREA=Eave Dimension
  0
LINE
  8
12
 10
-2519.0422
 20
0.00000000
 11
-3643.6145
 21
0.00000000
  0
LINE
  8
12
 10
-2519.0422
 20
8169.99951
 11
-3643.6145
 21
8169.99951
  0
LINE
  8
2
 10
-3508.6655
 20
0.00000000
 11
-3508.6655
 21
8169.99951
  0
INSERT
  8
2
  2
ARROW
 10
-3508.6655
 20
0.00000000
 41
1.00000000
 42
1.00000000
 43
1.00000000
 50
 270.000
  0
INSERT
  8
2
  2
ARROW
 10
-3508.6655
 20
8169.99951
 41
1.00000000
 42
1.00000000
 43
1.00000000
 50
  90.000
  0
TEXT
  8
11
 7
SIMPLEX
 10
-3602.3796
 20
3571.91382
 40
281.143097
  1
8170
 50
  90.000
999
END:     AREA=Eave Dimension
999
START:   AREA=Draw Canopy Dimension
  0
LINE
  8
12
 10
4492.92773
 20
0.00000000
 11
4211.78467
 21
0.00000000
  0
LINE
  8
12
 10
4492.92773
 20
5700.00000
 11
4211.78467
 21
5700.00000
  0
LINE
  8
2
 10
4352.35596
 20
0.00000000
 11
4352.35596
 21
5700.00000
  0
INSERT
  8
2
  2
ARROW
 10
4352.35596
 20
0.00000000
 41
1.00000000
 42
1.00000000
 43
1.00000000
 50
 270.000
  0
INSERT
  8
2
  2
ARROW
 10
4352.35596
 20
5700.00000
 41
1.00000000
 42
1.00000000
 43
1.00000000
 50
  90.000
  0
TEXT
  8
11
 7
SIMPLEX
 10
4258.64160
 20
2287.71387
 40
281.143097
  1
5700
 50
  90.000
999
END:     AREA=Draw Canopy Dimension
999
START:   AREA=Draw Floor and Extension Strut Dimensions
999
END:     AREA=Draw Floor and Extension Strut Dimensions
  0
LINE
  8
2
 10
0.00000000
 20
-1037.4180
 11
0.00000000
 21
-2296.9387
  0
LINE
  8
2
 10
3417.99976
 20
-1037.4180
 11
3417.99976
 21
-2296.9387
  0
LINE
  8
2
 10
0.00000000
 20
-2161.9902
 11
3417.99976
 21
-2161.9902
  0
INSERT
  8
2
  2
ARROW
 10
0.00000000
 20
-2161.9902
 41
1.00000000
 42
1.00000000
 43
1.00000000
 50
 180.000
  0
INSERT
  8
2
  2
ARROW
 10
3417.99976
 20
-2161.9902
 41
1.00000000
 42
1.00000000
 43
1.00000000
 50
   0.000
  0
LINE
  8
2
 10
3417.99976
 20
-1037.4180
 11
3417.99976
 21
-2296.9387
  0
LINE
  8
2
 10
7918.00049
 20
-1037.4180
 11
7918.00049
 21
-2296.9387
  0
LINE
  8
2
 10
3417.99976
 20
-2161.9902
 11
7918.00049
 21
-2161.9902
  0
INSERT
  8
2
  2
ARROW
 10
3417.99976
 20
-2161.9902
 41
1.00000000
 42
1.00000000
 43
1.00000000
 50
 180.000
  0
INSERT
  8
2
  2
ARROW
 10
7918.00049
 20
-2161.9902
 41
1.00000000
 42
1.00000000
 43
1.00000000
 50
   0.000
  0
LINE
  8
2
 10
7918.00049
 20
-1037.4180
 11
7918.00049
 21
-2296.9387
  0
LINE
  8
2
 10
11235.0000
 20
-1037.4180
 11
11235.0000
 21
-2296.9387
  0
LINE
  8
2
 10
7918.00049
 20
-2161.9902
 11
11235.0000
 21
-2161.9902
  0
INSERT
  8
2
  2
ARROW
 10
7918.00049
 20
-2161.9902
 41
1.00000000
 42
1.00000000
 43
1.00000000
 50
 180.000
  0
INSERT
  8
2
  2
ARROW
 10
11235.0000
 20
-2161.9902
 41
1.00000000
 42
1.00000000
 43
1.00000000
 50
   0.000
  0
TEXT
  8
11
 7
SIMPLEX
 10
1195.91382
 20
-2068.2759
 40
281.143097
  1
3418
 50
   0.000
  0
TEXT
  8
11
 7
SIMPLEX
 10
5105.71387
 20
-2068.2759
 40
281.143097
  1
4500
 50
   0.000
  0
TEXT
  8
11
 7
SIMPLEX
 10
9063.41406
 20
-2068.2759
 40
281.143097
  1
3317
 50
   0.000
  0
LINE
  8
2
 10
14980.0000
 20
0.00000000
 11
14980.0000
 21
2500.00000
  0
INSERT
  8
2
  2
ARROW
 10
14980.0000
 20
0.00000000
 41
1.00000000
 42
1.00000000
 43
1.00000000
 50
 270.000
  0
INSERT
  8
2
  2
ARROW
 10
14980.0000
 20
2500.00000
 41
1.00000000
 42
1.00000000
 43
1.00000000
 50
  90.000
  0
TEXT
  8
11
 7
SIMPLEX
 10
14886.2861
 20
687.713867
 40
281.143097
  1
2500
 50
  90.000
999
END:     AREA=Dimensions
999
START:   AREA=Details
  0
INSERT
  8
7
  2
CUTSEC
 10
8441.20605
 20
9014.12109
 41
1.50000000
 42
-1.0000000
 43
-1.0000000
 50
 -84.289
  0
CIRCLE
  8
7
 10
8343.82910
 20
9987.64063
 40
269.897339
  0
TEXT
  8
7
 7
SIMPLEX
 10
8114.95703
 20
9901.27344
 40
172.734299
  1
A10
 72
           1
 11
8343.82910
 21
9987.64063
 73
           2
 50
   0.000
  0
CIRCLE
  8
7
 10
11235.0000
 20
8459.41406
 40
112.457230
  0
LINE
  8
7
 10
11196.5410
 20
8565.09082
 11
10873.4834
 21
9452.77344
  0
CIRCLE
  8
7
 10
10781.1816
 20
9706.39648
 40
269.897339
  0
TEXT
  8
7
 7
SIMPLEX
 10
10522.0801
 20
9620.02930
 40
172.734299
  1
B20
 72
           1
 11
10781.1816
 21
9706.39648
 73
           2
 50
   0.000
  0
INSERT
  8
7
  2
CUTSEC
 10
11235.0000
 20
3159.73755
 41
1.00000000
 42
-1.0000000
 43
-1.0000000
 50
   0.000
  0
CIRCLE
  8
7
 10
10492.7822
 20
3159.73755
 40
269.897339
  0
TEXT
  8
7
 7
SIMPLEX
 10
10263.9102
 20
3073.37036
 40
172.734299
  1
C12
 72
           1
 11
10492.7822
 21
3159.73755
 73
           2
 50
   0.000
  0
INSERT
  8
7
  2
CUTSEC
 10
229.999985
 20
3159.73755
 41
-1.0000000
 42
-1.0000000
 43
-1.0000000
 50
   0.000
  0
CIRCLE
  8
7
 10
972.217651
 20
3159.73755
 40
269.897339
  0
TEXT
  8
7
 7
SIMPLEX
 10
713.116272
 20
3073.37036
 40
172.734299
  1
D77
 72
           1
 11
972.217651
 21
3159.73755
 73
           2
 50
   0.000
  0
INSERT
  8
7
  2
CUTSEC
 10
229.999985
 20
4159.73730
 41
-1.0000000
 42
-1.0000000
 43
-1.0000000
 50
   0.000
  0
CIRCLE
  8
7
 10
972.217651
 20
4159.73730
 40
269.897339
  0
TEXT
  8
7
 7
SIMPLEX
 10
713.116272
 20
4073.37036
 40
172.734299
  1
D27
 72
           1
 11
972.217651
 21
4159.73730
 73
           2
 50
   0.000
  0
INSERT
  8
7
  2
CUTSEC
 10
22240.0000
 20
3159.73755
 41
1.00000000
 42
-1.0000000
 43
-1.0000000
 50
   0.000
  0
CIRCLE
  8
7
 10
21497.7813
 20
3159.73755
 40
269.897339
  0
TEXT
  8
7
 7
SIMPLEX
 10
21238.6797
 20
3073.37036
 40
172.734299
  1
D77
 72
           1
 11
21497.7813
 21
3159.73755
 73
           2
 50
   0.000
  0
INSERT
  8
7
  2
CUTSEC
 10
22240.0000
 20
4159.73730
 41
1.00000000
 42
-1.0000000
 43
-1.0000000
 50
   0.000
  0
CIRCLE
  8
7
 10
21497.7813
 20
4159.73730
 40
269.897339
  0
TEXT
  8
7
 7
SIMPLEX
 10
21238.6797
 20
4073.37036
 40
172.734299
  1
D27
 72
           1
 11
21497.7813
 21
4159.73730
 73
           2
 50
   0.000
  0
INSERT
  8
7
  2
CUTSEC
 10
7918.00049
 20
427.337463
 41
1.00000000
 42
-1.0000000
 43
-1.0000000
 50
   0.000
  0
CIRCLE
  8
7
 10
7175.78223
 20
427.337463
 40
269.897339
  0
TEXT
  8
7
 7
SIMPLEX
 10
6959.86475
 20
319.378510
 40
215.917892
  1
E6
 72
           1
 11
7175.78223
 21
427.337463
 73
           2
 50
   0.000
  0
INSERT
  8
7
  2
CUTSEC
 10
11235.0000
 20
579.737488
 41
1.00000000
 42
-1.0000000
 43
-1.0000000
 50
   0.000
  0
CIRCLE
  8
7
 10
10492.7822
 20
579.737488
 40
269.897339
  0
TEXT
  8
7
 7
SIMPLEX
 10
10276.8652
 20
471.778503
 40
215.917892
  1
E3
 72
           1
 11
10492.7822
 21
579.737488
 73
           2
 50
   0.000
  0
INSERT
  8
7
  2
CUTSEC
 10
3417.99976
 20
3361.57764
 41
-1.0000000
 42
-1.0000000
 43
-1.0000000
 50
   0.000
  0
CIRCLE
  8
7
 10
4160.21729
 20
3361.57764
 40
269.897339
  0
TEXT
  8
7
 7
SIMPLEX
 10
3944.29956
 20
3253.61890
 40
215.917892
  1
K2
 72
           1
 11
4160.21729
 21
3361.57764
 73
           2
 50
   0.000
  0
CIRCLE
  8
7
 10
3417.99976
 20
4512.52588
 40
112.457230
  0
LINE
  8
7
 10
3490.28735
 20
4598.67188
 11
3736.06421
 21
4891.56885
  0
CIRCLE
  8
7
 10
3909.55396
 20
5098.31982
 40
269.897339
  0
TEXT
  8
7
 7
SIMPLEX
 10
3693.63623
 20
4990.36084
 40
215.917892
  1
L6
 72
           1
 11
3909.55396
 21
5098.31982
 73
           2
 50
   0.000
999
START:   AREA=Cables
999
END:     AREA=Cables
  0
CIRCLE
  8
7
 10
3435.23804
 20
8312.52539
 40
112.457230
  0
LINE
  8
7
 10
3396.77856
 20
8418.20215
 11
3073.72095
 21
9305.88477
  0
CIRCLE
  8
7
 10
2981.41895
 20
9559.50781
 40
269.897339
  0
TEXT
  8
7
 7
SIMPLEX
 10
2765.50122
 20
9451.54883
 40
215.917892
  1
W8
 72
           1
 11
2981.41895
 21
9559.50781
 73
           2
 50
   0.000
999
END:     AREA=Details
999
START:   AREA=Extensions
  0
LINE
  8
5
 10
0.00000000
 20
5193.94238
 11
11235.0000
 21
5193.94238
  0
LINE
  8
5
 10
11235.0000
 20
5500.00049
 11
11235.0000
 21
5193.94238
  0
LINE
  8
5
 10
0.00000000
 20
5500.00049
 11
0.00000000
 21
5193.94238
  0
LINE
  8
5
 10
11235.0000
 20
5500.00049
 11
11235.0000
 21
5700.00000
  0
LINE
  8
5
 10
0.00000000
 20
5700.00000
 11
0.00000000
 21
5500.00049
  0
LINE
  8
5
 10
11235.0000
 20
5700.00000
 11
0.00000000
 21
5700.00000
  0
TEXT
  8
3
 7
SIMPLEX
 10
4774.07080
 20
5306.39990
 40
281.143097
  1
Canopy
 50
   0.000
999
END:     AREA=Extensions
999
START:   AREA=Eave/Extension Purlins
999
START:   AREA=Eave/Extension Purlins
999
START:   AREA=Eave Extensions
999
END:     AREA=Eave Extensions
999
START:   AREA=Canopy Extensions around corner
999
END:     AREA=Canopy Extensions around corner
999
START:   AREA=Facia Extensions on Endwall
999
END:     AREA=Facia Extensions on Endwall
999
START:   AREA=Draw Facia Detail
  0
INSERT
  8
7
  2
CUTSEC
 10
1354.57227
 20
5700.00000
 41
1.00000000
 42
-1.0000000
 43
-1.0000000
 50
 -90.000
  0
CIRCLE
  8
7
 10
1354.57227
 20
6442.21777
 40
269.897339
  0
TEXT
  8
7
 7
SIMPLEX
 10
1176.44006
 20
6334.25879
 40
215.917892
  1
X1
 72
           1
 11
1354.57227
 21
6442.21777
 73
           2
 50
   0.000
  0
INSERT
  8
7
  2
CUTSEC
 10
12359.5723
 20
5700.00000
 41
1.00000000
 42
-1.0000000
 43
-1.0000000
 50
 -90.000
  0
CIRCLE
  8
7
 10
12359.5723
 20
6442.21777
 40
269.897339
  0
TEXT
  8
7
 7
SIMPLEX
 10
12143.6543
 20
6334.25879
 40
215.917892
  1
X2
 72
           1
 11
12359.5723
 21
6442.21777
 73
           2
 50
   0.000
999
END:     AREA=Draw Facia Detail
  0
ENDBLK
  8
0
999
START:   AREA=Tables
  0
BLOCK
  8
1
  2
EW1TBL
 70
     0
 10
0.00000000
 20
0.00000000
  0
TEXT
  8
14
 7
SIMPLEX
 10
-7590.8623
 20
-351.42883
 40
281.143097
  1
MEMBER TABLE
 50
   0.000
  0
TEXT
  8
14
 7
SIMPLEX
 10
-7590.8623
 20
-773.14343
 40
281.143097
  1
FRAME LINE 1 & 7
 50
   0.000
  0
TEXT
  8
14
 7
SIMPLEX
 10
-7590.8623
 20
-1194.8582
 40
281.143097
  1
MARK
 50
   0.000
  0
TEXT
  8
14
 7
SIMPLEX
 10
-5622.8618
 20
-1194.8582
 40
281.143097
  1
PART
 50
   0.000
  0
TEXT
  8
14
 7
SIMPLEX
 10
-2811.4307
 20
-1194.8582
 40
281.143097
  1
LENGTH
 50
   0.000
  0
TEXT
  8
26
 7
SIMPLEX
 10
-7590.8623
 20
-1616.5728
 40
281.143097
  1
EC-1
 50
   0.000
  0
TEXT
  8
26
 7
SIMPLEX
 10
-5622.8618
 20
-1616.5728
 40
281.143097
  1
W40b155
 50
   0.000
  0
TEXT
  8
26
 7
SIMPLEX
 10
-2811.4307
 20
-1616.5728
 40
281.143097
  1
   8530
 50
   0.000
  0
TEXT
  8
26
 7
SIMPLEX
 10
-7590.8623
 20
-2038.2872
 40
281.143097
  1
EC-2
 50
   0.000
  0
TEXT
  8
26
 7
SIMPLEX
 10
-5622.8618
 20
-2038.2872
 40
281.143097
  1
W40b155
 50
   0.000
  0
TEXT
  8
26
 7
SIMPLEX
 10
-2811.4307
 20
-2038.2872
 40
281.143097
  1
   8530
 50
   0.000
  0
TEXT
  8
26
 7
SIMPLEX
 10
-7590.8623
 20
-2460.0017
 40
281.143097
  1
DJ-1
 50
   0.000
  0
TEXT
  8
26
 7
SIMPLEX
 10
-5622.8618
 20
-2460.0017
 40
281.143097
  1
200C20
 50
   0.000
  0
TEXT
  8
26
 7
SIMPLEX
 10
-2811.4307
 20
-2460.0017
 40
281.143097
  1
   4480
 50
   0.000
  0
TEXT
  8
26
 7
SIMPLEX
 10
-7590.8623
 20
-2881.7163
 40
281.143097
  1
 G-1
 50
   0.000
  0
TEXT
  8
26
 7
SIMPLEX
 10
-5622.8618
 20
-2881.7163
 40
281.143097
  1
200Z15
 50
   0.000
  0
TEXT
  8
26
 7
SIMPLEX
 10
-2811.4307
 20
-2881.7163
 40
281.143097
  1
  12030
 50
   0.000
  0
TEXT
  8
26
 7
SIMPLEX
 10
-7590.8623
 20
-3303.4312
 40
281.143097
  1
 G-2
 50
   0.000
  0
TEXT
  8
26
 7
SIMPLEX
 10
-5622.8618
 20
-3303.4312
 40
281.143097
  1
200Z18
 50
   0.000
  0
TEXT
  8
26
 7
SIMPLEX
 10
-2811.4307
 20
-3303.4312
 40
281.143097
  1
  12235
 50
   0.000
  0
TEXT
  8
26
 7
SIMPLEX
 10
-7590.8623
 20
-3725.1455
 40
281.143097
  1
 G-3
 50
   0.000
  0
TEXT
  8
26
 7
SIMPLEX
 10
-5622.8618
 20
-3725.1455
 40
281.143097
  1
200Z18
 50
   0.000
  0
TEXT
  8
26
 7
SIMPLEX
 10
-2811.4307
 20
-3725.1455
 40
281.143097
  1
  12030
 50
   0.000
  0
TEXT
  8
26
 7
SIMPLEX
 10
-7590.8623
 20
-4146.8604
 40
281.143097
  1
 G-4
 50
   0.000
  0
TEXT
  8
26
 7
SIMPLEX
 10
-5622.8618
 20
-4146.8604
 40
281.143097
  1
200Z15
 50
   0.000
  0
TEXT
  8
26
 7
SIMPLEX
 10
-2811.4307
 20
-4146.8604
 40
281.143097
  1
   8130
 50
   0.000
  0
TEXT
  8
26
 7
SIMPLEX
 10
-7590.8623
 20
-4568.5747
 40
281.143097
  1
 G-5
 50
   0.000
  0
TEXT
  8
26
 7
SIMPLEX
 10
-5622.8618
 20
-4568.5747
 40
281.143097
  1
200Z15
 50
   0.000
  0
TEXT
  8
26
 7
SIMPLEX
 10
-2811.4307
 20
-4568.5747
 40
281.143097
  1
  12030
 50
   0.000
  0
TEXT
  8
26
 7
SIMPLEX
 10
-7590.8623
 20
-4990.2896
 40
281.143097
  1
 G-6
 50
   0.000
  0
TEXT
  8
26
 7
SIMPLEX
 10
-5622.8618
 20
-4990.2896
 40
281.143097
  1
200Z18
 50
   0.000
  0
TEXT
  8
26
 7
SIMPLEX
 10
-2811.4307
 20
-4990.2896
 40
281.143097
  1
  12235
 50
   0.000
  0
TEXT
  8
26
 7
SIMPLEX
 10
-7590.8623
 20
-5412.0039
 40
281.143097
  1
 G-7
 50
   0.000
  0
TEXT
  8
26
 7
SIMPLEX
 10
-5622.8618
 20
-5412.0039
 40
281.143097
  1
200Z18
 50
   0.000
  0
TEXT
  8
26
 7
SIMPLEX
 10
-2811.4307
 20
-5412.0039
 40
281.143097
  1
  12030
 50
   0.000
  0
TEXT
  8
26
 7
SIMPLEX
 10
-7590.8623
 20
-5833.7188
 40
281.143097
  1
 G-8
 50
   0.000
  0
TEXT
  8
26
 7
SIMPLEX
 10
-5622.8618
 20
-5833.7188
 40
281.143097
  1
200Z15
 50
   0.000
  0
TEXT
  8
26
 7
SIMPLEX
 10
-2811.4307
 20
-5833.7188
 40
281.143097
  1
   8130
 50
   0.000
  0
TEXT
  8
26
 7
SIMPLEX
 10
-7590.8623
 20
-6255.4331
 40
281.143097
  1
 G-9
 50
   0.000
  0
TEXT
  8
26
 7
SIMPLEX
 10
-5622.8618
 20
-6255.4331
 40
281.143097
  1
200Z15
 50
   0.000
  0
TEXT
  8
26
 7
SIMPLEX
 10
-2811.4307
 20
-6255.4331
 40
281.143097
  1
   3116
 50
   0.000
  0
TEXT
  8
26
 7
SIMPLEX
 10
-7590.8623
 20
-6677.1479
 40
281.143097
  1
 G-10
 50
   0.000
  0
TEXT
  8
26
 7
SIMPLEX
 10
-5622.8618
 20
-6677.1479
 40
281.143097
  1
200Z15
 50
   0.000
  0
TEXT
  8
26
 7
SIMPLEX
 10
-2811.4307
 20
-6677.1479
 40
281.143097
  1
   3321
 50
   0.000
  0
TEXT
  8
26
 7
SIMPLEX
 10
-7590.8623
 20
-7098.8623
 40
281.143097
  1
 G-11
 50
   0.000
  0
TEXT
  8
26
 7
SIMPLEX
 10
-5622.8618
 20
-7098.8623
 40
281.143097
  1
200Z25
 50
   0.000
  0
TEXT
  8
26
 7
SIMPLEX
 10
-2811.4307
 20
-7098.8623
 40
281.143097
  1
  12235
 50
   0.000
  0
TEXT
  8
26
 7
SIMPLEX
 10
-7590.8623
 20
-7520.5767
 40
281.143097
  1
 G-12
 50
   0.000
  0
TEXT
  8
26
 7
SIMPLEX
 10
-5622.8618
 20
-7520.5767
 40
281.143097
  1
200Z15
 50
   0.000
  0
TEXT
  8
26
 7
SIMPLEX
 10
-2811.4307
 20
-7520.5767
 40
281.143097
  1
   4230
 50
   0.000
  0
TEXT
  8
26
 7
SIMPLEX
 10
-7590.8623
 20
-7942.2920
 40
281.143097
  1
 G-13
 50
   0.000
  0
TEXT
  8
26
 7
SIMPLEX
 10
-5622.8618
 20
-7942.2920
 40
281.143097
  1
200Z18
 50
   0.000
  0
TEXT
  8
26
 7
SIMPLEX
 10
-2811.4307
 20
-7942.2920
 40
281.143097
  1
   4230
 50
   0.000
  0
TEXT
  8
26
 7
SIMPLEX
 10
-7590.8623
 20
-8364.0068
 40
281.143097
  1
 G-6
 50
   0.000
  0
TEXT
  8
26
 7
SIMPLEX
 10
-5622.8618
 20
-8364.0068
 40
281.143097
  1
200Z18
 50
   0.000
  0
TEXT
  8
26
 7
SIMPLEX
 10
-2811.4307
 20
-8364.0068
 40
281.143097
  1
  12235
 50
   0.000
  0
TEXT
  8
26
 7
SIMPLEX
 10
-7590.8623
 20
-8785.7207
 40
281.143097
  1
JB-1
 50
   0.000
  0
TEXT
  8
26
 7
SIMPLEX
 10
-5622.8618
 20
-8785.7207
 40
281.143097
  1
SROD12
 50
   0.000
  0
TEXT
  8
26
 7
SIMPLEX
 10
-2811.4307
 20
-8785.7207
 40
281.143097
  1
   1100
 50
   0.000
  0
TEXT
  8
26
 7
SIMPLEX
 10
-7590.8623
 20
-9207.4355
 40
281.143097
  1
JB-2
 50
   0.000
  0
TEXT
  8
26
 7
SIMPLEX
 10
-5622.8618
 20
-9207.4355
 40
281.143097
  1
SROD12
 50
   0.000
  0
TEXT
  8
26
 7
SIMPLEX
 10
-2811.4307
 20
-9207.4355
 40
281.143097
  1
    900
 50
   0.000
  0
TEXT
  8
26
 7
SIMPLEX
 10
-7590.8623
 20
-9629.1504
 40
281.143097
  1
JB-4
 50
   0.000
  0
TEXT
  8
26
 7
SIMPLEX
 10
-5622.8618
 20
-9629.1504
 40
281.143097
  1
SROD12
 50
   0.000
  0
TEXT
  8
26
 7
SIMPLEX
 10
-2811.4307
 20
-9629.1504
 40
281.143097
  1
   1300
 50
   0.000
  0
LINE
  8
0
 10
-7872.0063
 20
-9699.4355
 11
0.00000000
 21
-9699.4355
  0
LINE
  8
0
 10
-7872.0063
 20
-1265.1439
 11
-7872.0063
 21
-9699.4355
  0
LINE
  8
0
 10
-5904.0049
 20
-1265.1439
 11
-5904.0049
 21
-9699.4355
  0
LINE
  8
0
 10
-3092.5737
 20
-1265.1439
 11
-3092.5737
 21
-9699.4355
  0
LINE
  8
0
 10
-7872.0063
 20
0.00000000
 11
0.00000000
 21
0.00000000
  0
LINE
  8
0
 10
-7872.0063
 20
0.00000000
 11
-7872.0063
 21
-9699.4355
  0
LINE
  8
0
 10
0.00000000
 20
0.00000000
 11
0.00000000
 21
-9699.4355
  0
LINE
  8
0
 10
-7872.0063
 20
-843.42920
 11
0.00000000
 21
-843.42920
  0
LINE
  8
0
 10
-7872.0063
 20
-843.42920
 11
-7872.0063
 21
-1265.1439
  0
LINE
  8
0
 10
-5904.0049
 20
-843.42920
 11
-5904.0049
 21
-1265.1439
  0
LINE
  8
0
 10
-3092.5737
 20
-843.42920
 11
-3092.5737
 21
-1265.1439
  0
LINE
  8
0
 10
-7872.0063
 20
-1265.1439
 11
0.00000000
 21
-1265.1439
  0
ENDBLK
  8
1
  0
BLOCK
  8
1
  2
EW1BLT
 70
     0
 10
0.00000000
 20
0.00000000
  0
TEXT
  8
14
 7
SIMPLEX
 10
-10683.437
 20
-351.42883
 40
281.143097
  1
BOLT TABLE
 50
   0.000
  0
TEXT
  8
14
 7
SIMPLEX
 10
-10683.437
 20
-773.14343
 40
281.143097
  1
FRAME LINE 1 & 7
 50
   0.000
  0
TEXT
  8
14
 7
SIMPLEX
 10
-10683.437
 20
-1194.8582
 40
281.143097
  1
LOCATION
 50
   0.000
  0
TEXT
  8
14
 7
SIMPLEX
 10
-6185.1479
 20
-1194.8582
 40
281.143097
  1
QUAN
 50
   0.000
  0
TEXT
  8
14
 7
SIMPLEX
 10
-4779.4326
 20
-1194.8582
 40
281.143097
  1
TYPE
 50
   0.000
  0
TEXT
  8
14
 7
SIMPLEX
 10
-3373.7168
 20
-1194.8582
 40
281.143097
  1
DIA
 50
   0.000
  0
TEXT
  8
14
 7
SIMPLEX
 10
-1686.8584
 20
-1194.8582
 40
281.143097
  1
LENGTH
 50
   0.000
  0
TEXT
  8
26
 7
SIMPLEX
 10
-10683.437
 20
-1616.5728
 40
281.143097
  1
Columns/Raf
 50
   0.000
  0
TEXT
  8
26
 7
SIMPLEX
 10
-5622.8618
 20
-1616.5728
 40
281.143097
  1
4
 50
   0.000
  0
TEXT
  8
26
 7
SIMPLEX
 10
-4779.4326
 20
-1616.5728
 40
281.143097
  1
Gr8.8
 50
   0.000
  0
TEXT
  8
26
 7
SIMPLEX
 10
-3373.7168
 20
-1616.5728
 40
281.143097
  1
20
 50
   0.000
  0
TEXT
  8
26
 7
SIMPLEX
 10
-1686.8584
 20
-1616.5728
 40
281.143097
  1
90
 50
   0.000
  0
LINE
  8
0
 10
-10964.580
 20
-1686.8586
 11
0.00000000
 21
-1686.8586
  0
LINE
  8
0
 10
-6466.2910
 20
-1265.1439
 11
-6466.2910
 21
-1686.8586
  0
LINE
  8
0
 10
-10964.580
 20
0.00000000
 11
0.00000000
 21
0.00000000
  0
LINE
  8
0
 10
-10964.580
 20
0.00000000
 11
-10964.580
 21
-1686.8586
  0
LINE
  8
0
 10
0.00000000
 20
0.00000000
 11
0.00000000
 21
-1686.8586
  0
LINE
  8
0
 10
-10964.580
 20
-843.42920
 11
0.00000000
 21
-843.42920
  0
LINE
  8
0
 10
-6466.2910
 20
-843.42920
 11
-6466.2910
 21
-1265.1439
  0
LINE
  8
0
 10
-10964.580
 20
-1265.1439
 11
0.00000000
 21
-1265.1439
  0
ENDBLK
  8
1
  0
BLOCK
  8
1
  2
EW1CLT
 70
     0
 10
0.00000000
 20
0.00000000
  0
TEXT
  8
14
 7
SIMPLEX
 10
-4638.8604
 20
-351.42883
 40
281.143097
  1
CONNECTION PLATES
 50
   0.000
  0
TEXT
  8
14
 7
SIMPLEX
 10
-4638.8604
 20
-773.14343
 40
281.143097
  1
FRAME LINE 1 & 7
 50
   0.000
  0
TEXT
  8
14
 7
SIMPLEX
 10
-4357.7178
 20
-1194.8582
 40
281.143097
  1
ID
 50
   0.000
  0
TEXT
  8
14
 7
SIMPLEX
 10
-3654.8601
 20
-1194.8582
 40
281.143097
  1
MARK/PART
 50
   0.000
  0
LINE
  8
14
 10
-4709.1465
 20
-913.71503
 11
-4428.0034
 21
-913.71503
  0
LINE
  8
14
 10
-4428.0034
 20
-913.71503
 11
-4428.0034
 21
-1194.8582
  0
LINE
  8
14
 10
-4428.0034
 20
-1194.8582
 11
-4709.1465
 21
-1194.8582
  0
LINE
  8
14
 10
-4709.1465
 20
-1194.8582
 11
-4709.1465
 21
-913.71503
  0
TEXT
  8
26
 7
SIMPLEX
 10
-4217.1460
 20
-1616.5728
 40
281.143097
  1
1
 50
   0.000
  0
TEXT
  8
26
 7
SIMPLEX
 10
-3654.8601
 20
-1616.5728
 40
281.143097
  1
d2
 50
   0.000
  0
TEXT
  8
26
 7
SIMPLEX
 10
-4217.1460
 20
-2038.2872
 40
281.143097
  1
2
 50
   0.000
  0
TEXT
  8
26
 7
SIMPLEX
 10
-3654.8601
 20
-2038.2872
 40
281.143097
  1
d1
 50
   0.000
  0
TEXT
  8
26
 7
SIMPLEX
 10
-4217.1460
 20
-2460.0017
 40
281.143097
  1
3
 50
   0.000
  0
TEXT
  8
26
 7
SIMPLEX
 10
-3654.8601
 20
-2460.0017
 40
281.143097
  1
f1
 50
   0.000
  0
TEXT
  8
26
 7
SIMPLEX
 10
-4217.1460
 20
-2881.7163
 40
281.143097
  1
4
 50
   0.000
  0
TEXT
  8
26
 7
SIMPLEX
 10
-3654.8601
 20
-2881.7163
 40
281.143097
  1
j1
 50
   0.000
  0
TEXT
  8
26
 7
SIMPLEX
 10
-4217.1460
 20
-3303.4312
 40
281.143097
  1
5
 50
   0.000
  0
TEXT
  8
26
 7
SIMPLEX
 10
-3654.8601
 20
-3303.4312
 40
281.143097
  1
b1
 50
   0.000
  0
LINE
  8
0
 10
-4779.4321
 20
-3373.7168
 11
0.00000000
 21
-3373.7168
  0
LINE
  8
0
 10
-4779.4321
 20
0.00000000
 11
0.00000000
 21
0.00000000
  0
LINE
  8
0
 10
-4779.4321
 20
0.00000000
 11
-4779.4321
 21
-3373.7168
  0
LINE
  8
0
 10
0.00000000
 20
0.00000000
 11
0.00000000
 21
-3373.7168
  0
LINE
  8
0
 10
-4779.4321
 20
-843.42920
 11
0.00000000
 21
-843.42920
  0
LINE
  8
0
 10
-3795.4312
 20
-843.42920
 11
-3795.4312
 21
-3373.7168
  0
LINE
  8
0
 10
-4779.4321
 20
-1265.1439
 11
0.00000000
 21
-1265.1439
  0
ENDBLK
  8
1
  0
BLOCK
  8
1
  2
EW1BRACE
 70
     0
 10
0.00000000
 20
0.00000000
  0
TEXT
  8
14
 7
SIMPLEX
 10
-6185.1479
 20
-351.42883
 40
281.143097
  1
FLANGE BRACE TABLE
 50
   0.000
  0
TEXT
  8
14
 7
SIMPLEX
 10
-6185.1479
 20
-773.14343
 40
281.143097
  1
FRAME LINE 1 & 7
 50
   0.000
  0
TEXT
  8
14
 7
SIMPLEX
 10
-6044.5762
 20
-1194.8582
 40
281.143097
  1
ID
 50
   0.000
  0
TEXT
  8
14
 7
SIMPLEX
 10
-5341.7188
 20
-1194.8582
 40
281.143097
  1
MARK
 50
   0.000
  0
TEXT
  8
14
 7
SIMPLEX
 10
-2811.4309
 20
-1194.8582
 40
281.143097
  1
LENGTH
 50
   0.000
  0
LINE
  8
14
 10
-6255.4336
 20
-1194.8582
 11
-6396.0054
 21
-913.71503
  0
LINE
  8
14
 10
-6255.4336
 20
-1194.8582
 11
-6114.8618
 21
-913.71503
  0
LINE
  8
14
 10
-6396.0054
 20
-913.71503
 11
-6114.8618
 21
-913.71503
  0
TEXT
  8
26
 7
SIMPLEX
 10
-6044.5762
 20
-1616.5728
 40
281.143097
  1
1
 50
   0.000
  0
TEXT
  8
26
 7
SIMPLEX
 10
-5341.7188
 20
-1616.5728
 40
281.143097
  1
FB568
 50
   0.000
  0
TEXT
  8
26
 7
SIMPLEX
 10
-2952.0024
 20
-1616.5728
 40
281.143097
  1
    568
 50
   0.000
  0
LINE
  8
0
 10
-6466.2910
 20
0.00000000
 11
-6466.2910
 21
-1686.8584
  0
LINE
  8
0
 10
0.00000000
 20
0.00000000
 11
0.00000000
 21
-1686.8584
  0
LINE
  8
0
 10
-6466.2910
 20
0.00000000
 11
0.00000000
 21
0.00000000
  0
LINE
  8
0
 10
-6466.2910
 20
-1686.8584
 11
0.00000000
 21
-1686.8584
  0
LINE
  8
0
 10
-6466.2910
 20
-843.42920
 11
0.00000000
 21
-843.42920
  0
LINE
  8
0
 10
-5622.8618
 20
-843.42920
 11
-5622.8618
 21
-1686.8584
  0
LINE
  8
0
 10
-3092.5740
 20
-843.42920
 11
-3092.5740
 21
-1686.8584
  0
LINE
  8
0
 10
-6466.2910
 20
-1265.1439
 11
0.00000000
 21
-1265.1439
  0
ENDBLK
  8
1
999
END:     AREA=Tables
  0
ENDSEC
  0
SECTION
  2
ENTITIES
  0
LINE
  8
22
 10
0.00000000
 20
0.00000000
 11
67619.2344
 21
0.00000000
  0
LINE
  8
22
 10
67619.2344
 20
0.00000000
 11
67619.2344
 21
47816.4648
  0
LINE
  8
22
 10
67619.2344
 20
47816.4648
 11
0.00000000
 21
47816.4648
  0
LINE
  8
22
 10
0.00000000
 20
47816.4648
 11
0.00000000
 21
0.00000000
  0
LINE
  8
0
 10
41856.3047
 20
0.00000000
 11
41856.3047
 21
4293.82178
  0
LINE
  8
0
 10
41856.3047
 20
4293.82178
 11
67619.2344
 21
4293.82178
  0
LINE
  8
0
 10
41856.3047
 20
0.00000000
 11
67619.2344
 21
0.00000000
  0
LINE
  8
0
 10
67619.2344
 20
0.00000000
 11
67619.2344
 21
4293.82178
  0
LINE
  8
0
 10
41856.3047
 20
1635.74158
 11
67619.2344
 21
1635.74158
  0
LINE
  8
0
 10
41856.3047
 20
2453.61230
 11
67619.2344
 21
2453.61230
  0
LINE
  8
0
 10
41856.3047
 20
3271.48315
 11
67619.2344
 21
3271.48315
  0
LINE
  8
0
 10
45536.7188
 20
0.00000000
 11
45536.7188
 21
3271.48315
  0
LINE
  8
0
 10
54737.7656
 20
0.00000000
 11
54737.7656
 21
3271.48315
  0
LINE
  8
0
 10
54737.7656
 20
817.870789
 11
67619.2344
 21
817.870789
  0
LINE
  8
0
 10
59236.0586
 20
2453.61230
 11
59236.0586
 21
1635.74158
  0
LINE
  8
0
 10
63325.4063
 20
2453.61230
 11
63325.4063
 21
1635.74158
  0
LINE
  8
0
 10
61280.7344
 20
1635.74158
 11
61280.7344
 21
817.870789
  0
TEXT
  8
14
 7
SIMPLEX
 10
42265.2383
 20
2658.08008
 40
408.935394
  1
PROJECT
 50
   0.000
  0
TEXT
  8
14
 7
SIMPLEX
 10
42265.2383
 20
1840.20923
 40
408.935394
  1
ID
 50
   0.000
  0
TEXT
  8
14
 7
SIMPLEX
 10
42265.2383
 20
1022.33856
 40
408.935394
  1
PROJECT
 50
   0.000
  0
TEXT
  8
14
 7
SIMPLEX
 10
42265.2383
 20
204.467697
 40
408.935394
  1
ADDRESS
 50
   0.000
  0
TEXT
  8
14
 7
SIMPLEX
 10
45945.6563
 20
2658.08008
 40
408.935394
  1
Proposed Warehouse
 50
   0.000
  0
TEXT
  8
14
 7
SIMPLEX
 10
45945.6563
 20
1840.20923
 40
408.935394
  1
C323-153
 50
   0.000
  0
TEXT
  8
14
 7
SIMPLEX
 10
45945.6563
 20
1022.33856
 40
408.935394
  1
Proposed Warehouse
 50
   0.000
  0
TEXT
  8
14
 7
SIMPLEX
 10
45945.6563
 20
204.467697
 40
408.935394
  1
PINE
 50
   0.000
  0
TEXT
  8
14
 7
SIMPLEX
 10
45025.5547
 20
3475.95093
 40
613.403076
  1
RECLA INTERNATIONAL PRIVATE LIMITED
 50
   0.000
  0
TEXT
  8
14
 7
SIMPLEX
 10
55146.6992
 20
2658.08008
 40
408.935394
  1
ENDWALL FRAMING
 50
   0.000
  0
TEXT
  8
14
 7
SIMPLEX
 10
55146.6992
 20
1840.20923
 40
408.935394
  1
DESIGN:
 50
   0.000
  0
TEXT
  8
14
 7
SIMPLEX
 10
55146.6992
 20
1022.33856
 40
408.935394
  1
DATE:
 50
   0.000
  0
TEXT
  8
14
 7
SIMPLEX
 10
57232.2734
 20
1022.33856
 40
408.935394
  1
23/JUL/2025
 50
   0.000
  0
TEXT
  8
14
 7
SIMPLEX
 10
59644.9922
 20
1840.20923
 40
408.935394
  1
DRAFT:
 50
   0.000
  0
TEXT
  8
14
 7
SIMPLEX
 10
63734.3477
 20
1840.20923
 40
408.935394
  1
CHECK:
 50
   0.000
  0
TEXT
  8
14
 7
SIMPLEX
 10
61485.1953
 20
1022.33856
 40
408.935394
  1
SHEET
 50
   0.000
  0
TEXT
  8
14
 7
SIMPLEX
 10
65165.6211
 20
1022.33856
 40
408.935394
  1
OF
 50
   0.000
  0
TEXT
  8
14
 7
SIMPLEX
 10
63529.8750
 20
1022.33856
 40
408.935394
  1
 
 50
   0.000
999
FIELD:@PAGE_ID
  0
TEXT
  8
14
 7
SIMPLEX
 10
65983.4844
 20
1022.33856
 40
408.935394
  1
 
 50
   0.000
999
FIELD:@PAGE_TOTAL
  0
INSERT
  8
0
  2
EW1FRM
 10
18478.3652
 20
30632.8887
 41
1.00000000
 42
1.00000000
 43
1.00000000
 50
   0.000
  0
INSERT
  8
0
  2
EW2FRM
 10
18478.3652
 20
11006.6904
 41
1.00000000
 42
1.00000000
 43
1.00000000
 50
   0.000
  0
INSERT
  8
0
  2
EW1TBL
 10
67619.2344
 20
45848.4609
 41
1.00000000
 42
1.00000000
 43
1.00000000
 50
   0.000
  0
INSERT
  8
0
  2
EW1BLT
 10
67619.2344
 20
47816.4648
 41
1.00000000
 42
1.00000000
 43
1.00000000
 50
   0.000
  0
INSERT
  8
0
  2
EW1CLT
 10
67619.2344
 20
33899.8828
 41
1.00000000
 42
1.00000000
 43
1.00000000
 50
   0.000
  0
INSERT
  8
0
  2
EW1BRACE
 10
67619.2344
 20
35867.8828
 41
1.00000000
 42
1.00000000
 43
1.00000000
 50
   0.000
  0
ENDSEC
  0
EOF
