  0
SECTION
  2
HEADER
  9
$ACADVER
  1
AC1009
  9
$EXTMIN
 10
 -1402.900
 20
 -4768.333
  9
$EXTMAX
 10
 23872.900
 20
 14188.517
  9
$LIMMIN
 10
 -1402.900
 20
 -4768.333
  9
$LIMMAX
 10
 23872.900
 20
 14188.517
  9
$FILLMODE
 70
     1
  9
$HANDLING
 70
     0
  0
ENDSEC
  0
SECTION
  2
TABLES
  0
TABLE
  2
LTYPE
 70
1
  0
LTYPE
  2
CONTIN
 70
    64
  3
SOLID LINE
 72
    65
 73
     0
 40
0.0
  0
LTYPE
  2
CONTINUOUS
 70
    64
  3
SOLID LINE
 72
    65
 73
     0
 40
0.0
  0
LTYPE
  2
CENTER
 70
    64
  3
____ _ ____ _ ____ _ ____ _ ____ _ ____ _ ____
 72
    65
 73
     4
 40
    16.336
 49
    10.210
 49
    -2.042
 49
     2.042
 49
    -2.042
  0
LTYPE
  2
DASHED
 70
    64
  3
__ __ __ __ __ __ __ __ __ __ __ __ __ __ __ 
 72
    65
 73
     2
 40
   303.31
 49
   202.20
 49
  -101.10
  0
ENDTAB
  0
TABLE
  2
LAYER
 70
30
  0
LAYER
  2
0
 70
     0
 62
     7
  6
CONTIN
  0
LAYER
  2
1
 70
     0
 62
     7
  6
CONTIN
  0
LAYER
  2
2
 70
     0
 62
     7
  6
CONTIN
  0
LAYER
  2
3
 70
     0
 62
     7
  6
CONTIN
  0
LAYER
  2
4
 70
     0
 62
     5
  6
CONTIN
  0
LAYER
  2
5
 70
     0
 62
     5
  6
DASHED
  0
LAYER
  2
6
 70
     0
 62
     5
  6
DASHED
  0
LAYER
  2
7
 70
     0
 62
     5
  6
CONTIN
  0
LAYER
  2
8
 70
     0
 62
     5
  6
DASHED
  0
LAYER
  2
9
 70
     0
 62
     7
  6
CONTIN
  0
LAYER
  2
10
 70
     0
 62
     7
  6
CONTIN
  0
LAYER
  2
11
 70
     0
 62
     6
  6
DASHED
  0
LAYER
  2
12
 70
     0
 62
     7
  6
DASHED
  0
LAYER
  2
13
 70
     0
 62
     5
  6
DASHED
  0
LAYER
  2
14
 70
     0
 62
     7
  6
CONTIN
  0
LAYER
  2
15
 70
     0
 62
     5
  6
CONTIN
  0
LAYER
  2
16
 70
     0
 62
     7
  6
CONTIN
  0
LAYER
  2
17
 70
     0
 62
     7
  6
CONTIN
  0
LAYER
  2
18
 70
     0
 62
     7
  6
CONTIN
  0
LAYER
  2
19
 70
     0
 62
     7
  6
CONTIN
  0
LAYER
  2
20
 70
     0
 62
     1
  6
CONTIN
  0
LAYER
  2
21
 70
     0
 62
     7
  6
CONTIN
  0
LAYER
  2
22
 70
     0
 62
     7
  6
DASHED
  0
LAYER
  2
23
 70
     0
 62
     7
  6
DASHED
  0
LAYER
  2
24
 70
     0
 62
     7
  6
CONTIN
  0
LAYER
  2
25
 70
     0
 62
     7
  6
CONTIN
  0
LAYER
  2
26
 70
     0
 62
     7
  6
CONTIN
  0
LAYER
  2
27
 70
     0
 62
     1
  6
CENTER
  0
LAYER
  2
28
 70
     0
 62
     7
  6
CONTIN
  0
LAYER
  2
29
 70
     0
 62
     3
  6
DASHED
  0
ENDTAB
  0
TABLE
  2
STYLE
 70
  0
  0
ENDTAB
  0
ENDSEC
  0
SECTION
  2
ENTITIES
  0
LINE
  8
5
 10
  1562.308
 20
  8326.230
 11
  1582.209
 21
  8127.223
  0
LINE
  8
5
 10
  3124.715
 20
  8482.472
 11
  3144.616
 21
  8283.464
  0
LINE
  8
5
 10
  4687.023
 20
  8638.702
 11
  4706.924
 21
  8439.694
  0
LINE
  8
5
 10
  6249.431
 20
  8794.943
 11
  6269.332
 21
  8595.936
  0
LINE
  8
5
 10
  7811.739
 20
  8951.174
 11
  7831.641
 21
  8752.166
  0
LINE
  8
5
 10
  9374.146
 20
  9107.414
 11
  9394.048
 21
  8908.407
  0
LINE
  8
5
 10
 10936.454
 20
  9263.646
 11
 10956.355
 21
  9064.638
  0
LINE
  8
5
 10
 11533.512
 20
  9263.648
 11
 11513.610
 21
  9064.642
  0
LINE
  8
5
 10
 13095.819
 20
  9107.418
 11
 13075.918
 21
  8908.410
  0
LINE
  8
5
 10
 14658.228
 20
  8951.177
 11
 14638.326
 21
  8752.170
  0
LINE
  8
5
 10
 16220.535
 20
  8794.946
 11
 16200.634
 21
  8595.938
  0
LINE
  8
5
 10
 17782.941
 20
  8638.705
 11
 17763.041
 21
  8439.698
  0
LINE
  8
5
 10
 19345.250
 20
  8482.475
 11
 19325.350
 21
  8283.467
  0
LINE
  8
5
 10
 20907.656
 20
  8326.233
 11
 20887.756
 21
  8127.226
  0
LINE
  8
5
 10
   764.800
 20
  2580.000
 11
   828.300
 21
  2580.000
  0
LINE
  8
5
 10
   764.800
 20
  2580.000
 11
   828.300
 21
  2580.000
  0
LINE
  8
5
 10
  1630.102
 20
  7648.293
 11
  1636.420
 21
  7585.108
  0
LINE
  8
5
 10
  4726.956
 20
  8239.368
 11
  4733.274
 21
  8176.184
  0
LINE
  8
5
 10
  7860.864
 20
  8459.922
 11
  7867.183
 21
  8396.737
  0
LINE
  8
5
 10
 10994.771
 20
  8680.475
 11
 11001.090
 21
  8617.290
  0
LINE
  8
5
 10
  1630.102
 20
  7648.293
 11
  1636.420
 21
  7585.108
  0
LINE
  8
5
 10
  4726.956
 20
  8239.368
 11
  4733.274
 21
  8176.184
  0
LINE
  8
5
 10
  7860.864
 20
  8459.922
 11
  7867.183
 21
  8396.737
  0
LINE
  8
5
 10
 10994.771
 20
  8680.475
 11
 11001.090
 21
  8617.290
  0
LINE
  8
5
 10
 11475.194
 20
  8680.477
 11
 11468.876
 21
  8617.293
  0
LINE
  8
5
 10
 14609.102
 20
  8459.925
 11
 14602.783
 21
  8396.740
  0
LINE
  8
5
 10
 17743.010
 20
  8239.372
 11
 17736.691
 21
  8176.188
  0
LINE
  8
5
 10
 20839.863
 20
  7648.300
 11
 20833.545
 21
  7585.115
  0
LINE
  8
5
 10
 11475.194
 20
  8680.477
 11
 11468.876
 21
  8617.293
  0
LINE
  8
5
 10
 14609.102
 20
  8459.925
 11
 14602.783
 21
  8396.740
  0
LINE
  8
5
 10
 17743.010
 20
  8239.372
 11
 17736.691
 21
  8176.188
  0
LINE
  8
5
 10
 20839.863
 20
  7648.300
 11
 20833.545
 21
  7585.115
  0
LINE
  8
5
 10
 21705.201
 20
  2580.000
 11
 21641.701
 21
  2580.000
  0
LINE
  8
5
 10
 21705.201
 20
  2580.000
 11
 21641.701
 21
  2580.000
  0
LINE
  8
1
 10
   942.000
 20
  5634.000
 11
  1400.000
 21
  5634.000
  0
LINE
  8
1
 10
   942.000
 20
  5626.000
 11
  1400.000
 21
  5626.000
  0
LINE
  8
1
 10
  1400.000
 20
  5634.000
 11
  1400.000
 21
  5268.000
  0
LINE
  8
1
 10
  1400.000
 20
  5268.000
 11
   942.000
 21
  5268.000
  0
LINE
  8
1
 10
  1400.000
 20
  5276.000
 11
   942.000
 21
  5276.000
  0
LINE
  8
1
 10
  1400.000
 20
  5268.000
 11
  1400.000
 21
  5168.000
  0
LINE
  8
1
 10
  1400.000
 20
  5168.000
 11
   942.000
 21
  4903.573
  0
LINE
  8
1
 10
 21528.000
 20
  5634.000
 11
 21175.000
 21
  5634.000
  0
LINE
  8
1
 10
 21528.000
 20
  5626.000
 11
 21175.000
 21
  5626.000
  0
LINE
  8
1
 10
 21175.000
 20
  5634.000
 11
 21175.000
 21
  5268.000
  0
LINE
  8
1
 10
 21175.000
 20
  5268.000
 11
 21528.000
 21
  5268.000
  0
LINE
  8
1
 10
 21175.000
 20
  5276.000
 11
 21528.000
 21
  5276.000
  0
LINE
  8
1
 10
 21175.000
 20
  5268.000
 11
 21175.000
 21
  5168.000
  0
LINE
  8
1
 10
 21175.000
 20
  5168.000
 11
 21528.000
 21
  4964.195
  0
CIRCLE
  8
5
 10
 21977.500
 20
  5387.790
 40
     9.000
  0
CIRCLE
  8
5
 10
 21902.500
 20
  5387.790
 40
     9.000
  0
CIRCLE
  8
5
 10
 21977.500
 20
  5287.790
 40
     9.000
  0
CIRCLE
  8
5
 10
 21902.500
 20
  5287.790
 40
     9.000
  0
LINE
  8
8
 10
     0.000
 20
     0.000
 11
     0.000
 21
  8170.000
  0
LINE
  8
8
 10
     0.000
 20
  8170.000
 11
 11235.000
 21
  9293.500
  0
LINE
  8
8
 10
 11235.000
 20
  9293.500
 11
 22470.000
 21
  8170.000
  0
LINE
  8
8
 10
 22470.000
 20
  8170.000
 11
 22470.000
 21
     0.000
  0
LINE
  8
1
 10
   236.000
 20
    16.000
 11
   636.000
 21
    16.000
  0
LINE
  8
1
 10
   636.000
 20
    16.000
 11
   936.000
 21
  4016.000
  0
LINE
  8
1
 10
   936.000
 20
  4016.000
 11
   936.000
 21
  4016.000
  0
LINE
  8
1
 10
   936.000
 20
  4016.000
 11
   236.000
 21
  4016.000
  0
LINE
  8
1
 10
   236.000
 20
    16.000
 11
   236.000
 21
  4016.000
  0
LINE
  8
1
 10
   236.000
 20
  4016.000
 11
   936.000
 21
  4016.000
  0
LINE
  8
1
 10
   936.000
 20
  4016.000
 11
   936.000
 21
  7431.379
  0
LINE
  8
1
 10
   936.000
 20
  7431.379
 11
   936.000
 21
  7431.379
  0
LINE
  8
1
 10
   936.000
 20
  7431.379
 11
   236.000
 21
  7431.379
  0
LINE
  8
1
 10
   236.000
 20
  4016.000
 11
   236.000
 21
  7431.379
  0
LINE
  8
5
 10
   299.000
 20
   279.000
 11
   299.000
 21
   253.000
  0
LINE
  8
5
 10
   323.000
 20
   279.000
 11
   323.000
 21
   253.000
  0
ARC
  8
5
 10
   311.000
 20
   279.000
 40
    12.000
 50
     0.000
 51
   180.000
  0
ARC
  8
5
 10
   311.000
 20
   253.000
 40
    12.000
 50
   180.000
 51
     0.000
  0
LINE
  8
5
 10
   299.000
 20
  5793.000
 11
   299.000
 21
  5767.000
  0
LINE
  8
5
 10
   323.000
 20
  5793.000
 11
   323.000
 21
  5767.000
  0
ARC
  8
5
 10
   311.000
 20
  5793.000
 40
    12.000
 50
     0.000
 51
   180.000
  0
ARC
  8
5
 10
   311.000
 20
  5767.000
 40
    12.000
 50
   180.000
 51
     0.000
  0
LINE
  8
5
 10
   299.000
 20
  6093.000
 11
   299.000
 21
  6067.000
  0
LINE
  8
5
 10
   323.000
 20
  6093.000
 11
   323.000
 21
  6067.000
  0
ARC
  8
5
 10
   311.000
 20
  6093.000
 40
    12.000
 50
     0.000
 51
   180.000
  0
ARC
  8
5
 10
   311.000
 20
  6067.000
 40
    12.000
 50
   180.000
 51
     0.000
  0
LINE
  8
1
 10
   336.000
 20
  5274.000
 11
   936.000
 21
  5274.000
  0
LINE
  8
1
 10
   336.000
 20
  5268.000
 11
   936.000
 21
  5268.000
  0
LINE
  8
1
 10
   336.000
 20
  5274.000
 11
   336.000
 21
  5268.000
  0
LINE
  8
1
 10
   936.000
 20
  5274.000
 11
   936.000
 21
  5268.000
  0
LINE
  8
1
 10
   336.000
 20
  5634.000
 11
   936.000
 21
  5634.000
  0
LINE
  8
1
 10
   336.000
 20
  5628.000
 11
   936.000
 21
  5628.000
  0
LINE
  8
1
 10
   336.000
 20
  5634.000
 11
   336.000
 21
  5628.000
  0
LINE
  8
1
 10
   936.000
 20
  5634.000
 11
   936.000
 21
  5628.000
  0
LINE
  8
1
 10
   236.000
 20
  5850.000
 11
   836.000
 21
  5850.000
  0
LINE
  8
1
 10
   236.000
 20
  5844.000
 11
   836.000
 21
  5844.000
  0
LINE
  8
1
 10
   236.000
 20
  5850.000
 11
   236.000
 21
  5844.000
  0
LINE
  8
1
 10
   836.000
 20
  5850.000
 11
   836.000
 21
  5844.000
  0
LINE
  8
1
 10
   236.000
 20
    16.000
 11
   236.000
 21
  7431.379
  0
LINE
  8
1
 10
   236.000
 20
  7431.379
 11
   230.000
 21
  7431.379
  0
LINE
  8
1
 10
   230.000
 20
  7431.379
 11
   230.000
 21
    16.000
  0
LINE
  8
1
 10
   236.000
 20
    16.000
 11
   230.000
 21
    16.000
  0
LINE
  8
5
 10
   210.600
 20
  2580.000
 11
   248.700
 21
  2580.000
  0
LINE
  8
5
 10
   210.600
 20
  4080.000
 11
   248.700
 21
  4080.000
  0
LINE
  8
5
 10
   210.600
 20
  5580.000
 11
   248.700
 21
  5580.000
  0
LINE
  8
5
 10
   210.600
 20
  7080.000
 11
   248.700
 21
  7080.000
  0
LINE
  8
1
 10
   636.034
 20
    16.449
 11
   936.000
 21
  4016.000
  0
LINE
  8
1
 10
   936.000
 20
  4016.000
 11
   941.983
 21
  4015.551
  0
LINE
  8
1
 10
   941.983
 20
  4015.551
 11
   642.017
 21
    16.000
  0
LINE
  8
1
 10
   636.034
 20
    16.449
 11
   642.017
 21
    16.000
  0
LINE
  8
1
 10
   936.000
 20
  4016.000
 11
   936.000
 21
  7431.379
  0
LINE
  8
1
 10
   936.000
 20
  7431.379
 11
   942.000
 21
  7431.379
  0
LINE
  8
1
 10
   942.000
 20
  7431.379
 11
   942.000
 21
  4016.000
  0
LINE
  8
1
 10
   936.000
 20
  4016.000
 11
   942.000
 21
  4016.000
  0
CIRCLE
  8
1
 10
   942.000
 20
  5276.000
 40
    12.700
  0
CIRCLE
  8
1
 10
   942.000
 20
  5626.000
 40
    12.700
  0
LINE
  8
1
 10
   158.000
 20
   -28.700
 11
   158.000
 21
    28.700
  0
LINE
  8
1
 10
   308.000
 20
   -28.700
 11
   308.000
 21
    28.700
  0
LINE
  8
1
 10
   562.808
 20
   -28.700
 11
   562.808
 21
    28.700
  0
LINE
  8
1
 10
   712.808
 20
   -28.700
 11
   712.808
 21
    28.700
  0
LINE
  8
1
 10
    83.000
 20
     0.000
 11
   787.808
 21
     0.000
  0
LINE
  8
1
 10
   787.808
 20
     0.000
 11
   787.808
 21
    16.000
  0
LINE
  8
1
 10
   787.808
 20
    16.000
 11
    83.000
 21
    16.000
  0
LINE
  8
1
 10
    83.000
 20
     0.000
 11
    83.000
 21
    16.000
  0
LINE
  8
1
 10
   186.000
 20
  7418.680
 11
   186.000
 21
  7476.079
  0
LINE
  8
1
 10
   286.000
 20
  7418.680
 11
   286.000
 21
  7476.079
  0
LINE
  8
1
 10
   586.000
 20
  7418.680
 11
   586.000
 21
  7476.079
  0
LINE
  8
1
 10
   886.000
 20
  7418.680
 11
   886.000
 21
  7476.079
  0
LINE
  8
1
 10
   986.000
 20
  7418.680
 11
   986.000
 21
  7476.079
  0
LINE
  8
1
 10
   136.000
 20
  7447.379
 11
  1036.000
 21
  7447.379
  0
LINE
  8
1
 10
  1036.000
 20
  7447.379
 11
  1036.000
 21
  7431.379
  0
LINE
  8
1
 10
  1036.000
 20
  7431.379
 11
   136.000
 21
  7431.379
  0
LINE
  8
1
 10
   136.000
 20
  7447.379
 11
   136.000
 21
  7431.379
  0
LINE
  8
1
 10
   230.000
 20
    16.000
 11
   230.000
 21
   213.000
  0
LINE
  8
1
 10
   230.000
 20
   213.000
 11
    83.000
 21
    66.000
  0
LINE
  8
1
 10
    83.000
 20
    66.000
 11
    83.000
 21
    16.000
  0
LINE
  8
1
 10
   230.000
 20
    16.000
 11
    83.000
 21
    16.000
  0
LINE
  8
1
 10
   642.017
 20
    16.000
 11
   656.701
 21
   211.792
  0
LINE
  8
1
 10
   656.701
 20
   211.792
 11
   787.808
 21
    66.000
  0
LINE
  8
1
 10
   787.808
 20
    66.000
 11
   787.808
 21
    16.000
  0
LINE
  8
1
 10
   642.017
 20
    16.000
 11
   787.808
 21
    16.000
  0
LINE
  8
1
 10
   230.000
 20
  7431.379
 11
   230.000
 21
  7311.380
  0
LINE
  8
1
 10
   230.000
 20
  7311.380
 11
   136.000
 21
  7431.379
  0
LINE
  8
1
 10
   136.000
 20
  7431.379
 11
   136.000
 21
  7431.379
  0
LINE
  8
1
 10
   230.000
 20
  7431.379
 11
   136.000
 21
  7431.379
  0
LINE
  8
1
 10
   942.000
 20
  7431.379
 11
   942.000
 21
  7311.380
  0
LINE
  8
1
 10
   942.000
 20
  7311.380
 11
  1036.000
 21
  7431.379
  0
LINE
  8
1
 10
  1036.000
 20
  7431.379
 11
  1036.000
 21
  7431.379
  0
LINE
  8
1
 10
   942.000
 20
  7431.379
 11
  1036.000
 21
  7431.379
  0
CIRCLE
  8
1
 10
   230.000
 20
     0.000
 40
     6.350
  0
LINE
  8
17
 10
   223.650
 20
     0.000
 11
   236.350
 21
     0.000
  0
LINE
  8
17
 10
   230.000
 20
    -6.350
 11
   230.000
 21
     6.350
  0
CIRCLE
  8
1
 10
   640.817
 20
     0.000
 40
     6.350
  0
LINE
  8
17
 10
   634.467
 20
     0.000
 11
   647.167
 21
     0.000
  0
LINE
  8
17
 10
   640.817
 20
    -6.350
 11
   640.817
 21
     6.350
  0
CIRCLE
  8
1
 10
   942.000
 20
  7447.379
 40
     6.350
  0
LINE
  8
17
 10
   935.650
 20
  7447.379
 11
   948.350
 21
  7447.379
  0
LINE
  8
17
 10
   942.000
 20
  7441.029
 11
   942.000
 21
  7453.729
  0
CIRCLE
  8
1
 10
   230.000
 20
  7447.379
 40
     6.350
  0
LINE
  8
17
 10
   223.650
 20
  7447.379
 11
   236.350
 21
  7447.379
  0
LINE
  8
17
 10
   230.000
 20
  7441.029
 11
   230.000
 21
  7453.729
  0
LINE
  8
1
 10
  4393.089
 20
  8402.281
 11
  4418.127
 21
  8151.903
  0
LINE
  8
1
 10
  4418.127
 20
  8151.903
 11
  1039.000
 21
  7463.379
  0
LINE
  8
1
 10
  1039.000
 20
  7463.379
 11
  1039.000
 21
  7463.379
  0
LINE
  8
1
 10
  1039.000
 20
  7463.379
 11
   979.248
 21
  8060.897
  0
LINE
  8
1
 10
  4393.089
 20
  8402.281
 11
   979.248
 21
  8060.897
  0
LINE
  8
1
 10
   979.248
 20
  8060.897
 11
  1039.000
 21
  7463.379
  0
LINE
  8
1
 10
  1039.000
 20
  7463.379
 11
  1039.000
 21
  7463.379
  0
LINE
  8
1
 10
  1039.000
 20
  7463.379
 11
   236.000
 21
  7463.379
  0
LINE
  8
1
 10
   236.000
 20
  7463.379
 11
   236.000
 21
  7986.572
  0
LINE
  8
1
 10
   979.248
 20
  8060.897
 11
   236.000
 21
  7986.572
  0
LINE
  8
5
 10
   429.336
 20
  7942.592
 11
   403.465
 21
  7940.004
  0
LINE
  8
5
 10
   431.724
 20
  7918.711
 11
   405.853
 21
  7916.124
  0
ARC
  8
5
 10
   430.530
 20
  7930.651
 40
    12.000
 50
   -84.289
 51
    95.711
  0
ARC
  8
5
 10
   404.659
 20
  7928.064
 40
    12.000
 50
    95.711
 51
   -84.289
  0
LINE
  8
5
 10
   299.000
 20
  7749.572
 11
   299.000
 21
  7723.572
  0
LINE
  8
5
 10
   323.000
 20
  7749.572
 11
   323.000
 21
  7723.572
  0
ARC
  8
5
 10
   311.000
 20
  7749.572
 40
    12.000
 50
     0.000
 51
   180.000
  0
ARC
  8
5
 10
   311.000
 20
  7723.572
 40
    12.000
 50
   180.000
 51
     0.000
  0
LINE
  8
1
 10
   886.263
 20
  8020.898
 11
   941.985
 21
  7463.678
  0
LINE
  8
1
 10
   880.293
 20
  8020.302
 11
   936.015
 21
  7463.081
  0
LINE
  8
1
 10
   886.263
 20
  8020.898
 11
   880.293
 21
  8020.302
  0
LINE
  8
1
 10
   941.985
 20
  7463.678
 11
   936.015
 21
  7463.081
  0
LINE
  8
1
 10
  4393.089
 20
  8402.281
 11
    10.597
 21
  7964.032
  0
LINE
  8
1
 10
    10.597
 20
  7964.032
 11
    10.000
 21
  7970.002
  0
LINE
  8
1
 10
    10.000
 20
  7970.002
 11
  4392.492
 21
  8408.251
  0
LINE
  8
1
 10
  4393.089
 20
  8402.281
 11
  4392.492
 21
  8408.251
  0
LINE
  8
5
 10
    97.573
 20
  7998.256
 11
   101.365
 21
  7960.345
  0
LINE
  8
1
 10
   236.000
 20
  7463.379
 11
   236.000
 21
  7985.972
  0
LINE
  8
1
 10
   236.000
 20
  7985.972
 11
   230.000
 21
  7985.972
  0
LINE
  8
1
 10
   230.000
 20
  7985.972
 11
   230.000
 21
  7463.379
  0
LINE
  8
1
 10
   236.000
 20
  7463.379
 11
   230.000
 21
  7463.379
  0
LINE
  8
1
 10
   230.000
 20
  7985.972
 11
     0.000
 21
  7962.972
  0
LINE
  8
1
 10
     0.000
 20
  7962.972
 11
   230.000
 21
  7870.972
  0
LINE
  8
1
 10
  4417.330
 20
  8151.740
 11
  1039.000
 21
  7463.379
  0
LINE
  8
1
 10
  1039.000
 20
  7463.379
 11
  1040.597
 21
  7455.540
  0
LINE
  8
1
 10
  1040.597
 20
  7455.540
 11
  4418.927
 21
  8143.901
  0
LINE
  8
1
 10
  4417.330
 20
  8151.740
 11
  4418.927
 21
  8143.901
  0
LINE
  8
1
 10
  4375.477
 20
  8450.770
 11
  4432.592
 21
  8456.480
  0
LINE
  8
1
 10
  4385.427
 20
  8351.266
 11
  4442.542
 21
  8356.978
  0
LINE
  8
1
 10
  4400.353
 20
  8202.010
 11
  4457.468
 21
  8207.722
  0
LINE
  8
1
 10
  4410.303
 20
  8102.507
 11
  4467.418
 21
  8108.218
  0
LINE
  8
1
 10
  4399.059
 20
  8503.377
 11
  4443.836
 21
  8055.610
  0
LINE
  8
1
 10
  4443.836
 20
  8055.610
 11
  4427.916
 21
  8054.018
  0
LINE
  8
1
 10
  4427.916
 20
  8054.018
 11
  4383.138
 21
  8501.785
  0
LINE
  8
1
 10
  4399.059
 20
  8503.377
 11
  4383.138
 21
  8501.785
  0
LINE
  8
1
 10
   186.000
 20
  7418.680
 11
   186.000
 21
  7476.079
  0
LINE
  8
1
 10
   286.000
 20
  7418.680
 11
   286.000
 21
  7476.079
  0
LINE
  8
1
 10
   586.000
 20
  7418.680
 11
   586.000
 21
  7476.079
  0
LINE
  8
1
 10
   886.000
 20
  7418.680
 11
   886.000
 21
  7476.079
  0
LINE
  8
1
 10
   986.000
 20
  7418.680
 11
   986.000
 21
  7476.079
  0
LINE
  8
1
 10
   136.000
 20
  7447.379
 11
  1036.000
 21
  7447.379
  0
LINE
  8
1
 10
  1036.000
 20
  7447.379
 11
  1036.000
 21
  7463.379
  0
LINE
  8
1
 10
  1036.000
 20
  7463.379
 11
   136.000
 21
  7463.379
  0
LINE
  8
1
 10
   136.000
 20
  7447.379
 11
   136.000
 21
  7463.379
  0
LINE
  8
1
 10
  4392.492
 20
  8408.251
 11
  4273.087
 21
  8396.311
  0
LINE
  8
1
 10
  4273.087
 20
  8396.311
 11
  4383.138
 21
  8501.785
  0
LINE
  8
1
 10
  4383.138
 20
  8501.785
 11
  4383.138
 21
  8501.785
  0
LINE
  8
1
 10
  4392.492
 20
  8408.251
 11
  4383.138
 21
  8501.785
  0
LINE
  8
1
 10
  4418.927
 20
  8143.901
 11
  4300.736
 21
  8119.819
  0
LINE
  8
1
 10
  4300.736
 20
  8119.819
 11
  4427.916
 21
  8054.018
  0
LINE
  8
1
 10
  4427.916
 20
  8054.018
 11
  4427.916
 21
  8054.018
  0
LINE
  8
1
 10
  4418.927
 20
  8143.901
 11
  4427.916
 21
  8054.018
  0
LINE
  8
1
 10
   230.000
 20
  7463.379
 11
   230.000
 21
  7583.379
  0
LINE
  8
1
 10
   230.000
 20
  7583.379
 11
   136.000
 21
  7463.379
  0
LINE
  8
1
 10
   136.000
 20
  7463.379
 11
   136.000
 21
  7463.379
  0
LINE
  8
1
 10
   230.000
 20
  7463.379
 11
   136.000
 21
  7463.379
  0
CIRCLE
  8
1
 10
   230.000
 20
  7447.379
 40
     6.350
  0
LINE
  8
17
 10
   223.650
 20
  7447.379
 11
   236.350
 21
  7447.379
  0
LINE
  8
17
 10
   230.000
 20
  7441.029
 11
   230.000
 21
  7453.729
  0
CIRCLE
  8
1
 10
  1036.000
 20
  7447.379
 40
     6.350
  0
LINE
  8
17
 10
  1029.650
 20
  7447.379
 11
  1042.350
 21
  7447.379
  0
LINE
  8
17
 10
  1036.000
 20
  7441.029
 11
  1036.000
 21
  7453.729
  0
CIRCLE
  8
1
 10
  4434.686
 20
  8147.113
 40
     6.350
  0
LINE
  8
17
 10
  4428.335
 20
  8147.113
 11
  4441.036
 21
  8147.113
  0
LINE
  8
17
 10
  4434.686
 20
  8140.763
 11
  4434.686
 21
  8153.463
  0
CIRCLE
  8
1
 10
  4408.413
 20
  8409.843
 40
     6.350
  0
LINE
  8
17
 10
  4402.062
 20
  8409.843
 11
  4414.763
 21
  8409.843
  0
LINE
  8
17
 10
  4408.413
 20
  8403.493
 11
  4408.413
 21
  8416.193
  0
CIRCLE
  8
1
 10
   230.000
 20
  7992.002
 40
     6.350
  0
LINE
  8
17
 10
   223.650
 20
  7992.002
 11
   236.350
 21
  7992.002
  0
LINE
  8
17
 10
   230.000
 20
  7985.652
 11
   230.000
 21
  7998.352
  0
LINE
  8
1
 10
 11219.000
 20
  9084.872
 11
 11219.000
 21
  8632.626
  0
LINE
  8
1
 10
 11219.000
 20
  8632.626
 11
  4449.853
 21
  8156.238
  0
LINE
  8
1
 10
  4449.853
 20
  8156.238
 11
  4449.853
 21
  8156.238
  0
LINE
  8
1
 10
  4449.853
 20
  8156.238
 11
  4424.930
 21
  8405.465
  0
LINE
  8
1
 10
 11219.000
 20
  9084.872
 11
  4424.930
 21
  8405.465
  0
LINE
  8
5
 10
 11055.196
 20
  9005.178
 11
 11029.326
 21
  9002.591
  0
LINE
  8
5
 10
 11057.585
 20
  8981.298
 11
 11031.714
 21
  8978.710
  0
ARC
  8
5
 10
 11056.391
 20
  8993.237
 40
    12.000
 50
   -84.289
 51
    95.711
  0
ARC
  8
5
 10
 11030.520
 20
  8990.650
 40
    12.000
 50
    95.711
 51
   -84.289
  0
LINE
  8
5
 10
  6438.389
 20
  8543.497
 11
  6412.518
 21
  8540.909
  0
LINE
  8
5
 10
  6440.777
 20
  8519.616
 11
  6414.906
 21
  8517.029
  0
ARC
  8
5
 10
  6439.583
 20
  8531.557
 40
    12.000
 50
   -84.289
 51
    95.711
  0
ARC
  8
5
 10
  6413.711
 20
  8528.969
 40
    12.000
 50
    95.711
 51
   -84.289
  0
LINE
  8
5
 10
  6139.877
 20
  8513.646
 11
  6114.006
 21
  8511.059
  0
LINE
  8
5
 10
  6142.265
 20
  8489.766
 11
  6116.395
 21
  8487.178
  0
ARC
  8
5
 10
  6141.071
 20
  8501.706
 40
    12.000
 50
   -84.289
 51
    95.711
  0
ARC
  8
5
 10
  6115.200
 20
  8499.118
 40
    12.000
 50
    95.711
 51
   -84.289
  0
LINE
  8
1
 10
 11219.000
 20
  9084.872
 11
  4424.930
 21
  8405.465
  0
LINE
  8
1
 10
  4424.930
 20
  8405.465
 11
  4424.433
 21
  8410.440
  0
LINE
  8
1
 10
  4424.433
 20
  8410.440
 11
 11218.503
 21
  9089.848
  0
LINE
  8
1
 10
 11219.000
 20
  9084.872
 11
 11218.503
 21
  9089.848
  0
LINE
  8
1
 10
 11218.649
 20
  8632.601
 11
  4450.000
 21
  8156.248
  0
LINE
  8
1
 10
  4450.000
 20
  8156.248
 11
  4450.351
 21
  8151.260
  0
LINE
  8
1
 10
  4450.351
 20
  8151.260
 11
 11219.000
 21
  8627.613
  0
LINE
  8
1
 10
 11218.649
 20
  8632.601
 11
 11219.000
 21
  8627.613
  0
LINE
  8
1
 10
 11206.301
 20
  9136.473
 11
 11263.700
 21
  9136.473
  0
LINE
  8
1
 10
 11206.301
 20
  9036.473
 11
 11263.700
 21
  9036.473
  0
LINE
  8
1
 10
 11206.301
 20
  8681.473
 11
 11263.700
 21
  8681.473
  0
LINE
  8
1
 10
 11206.301
 20
  8581.473
 11
 11263.700
 21
  8581.473
  0
LINE
  8
1
 10
 11235.000
 20
  9186.473
 11
 11235.000
 21
  8533.752
  0
LINE
  8
1
 10
 11235.000
 20
  8533.752
 11
 11219.000
 21
  8533.752
  0
LINE
  8
1
 10
 11219.000
 20
  8533.752
 11
 11219.000
 21
  9186.473
  0
LINE
  8
1
 10
 11235.000
 20
  9186.473
 11
 11219.000
 21
  9186.473
  0
LINE
  8
1
 10
  4375.477
 20
  8450.770
 11
  4432.592
 21
  8456.480
  0
LINE
  8
1
 10
  4385.427
 20
  8351.266
 11
  4442.542
 21
  8356.978
  0
LINE
  8
1
 10
  4400.353
 20
  8202.010
 11
  4457.468
 21
  8207.722
  0
LINE
  8
1
 10
  4410.303
 20
  8102.507
 11
  4467.418
 21
  8108.218
  0
LINE
  8
1
 10
  4399.059
 20
  8503.377
 11
  4443.836
 21
  8055.610
  0
LINE
  8
1
 10
  4443.836
 20
  8055.610
 11
  4459.757
 21
  8057.202
  0
LINE
  8
1
 10
  4459.757
 20
  8057.202
 11
  4414.979
 21
  8504.969
  0
LINE
  8
1
 10
  4399.059
 20
  8503.377
 11
  4414.979
 21
  8504.969
  0
LINE
  8
1
 10
 11219.000
 20
  9089.896
 11
 11099.001
 21
  9077.896
  0
LINE
  8
1
 10
 11099.001
 20
  9077.896
 11
 11219.000
 21
  9186.523
  0
LINE
  8
1
 10
 11219.000
 20
  9186.523
 11
 11219.000
 21
  9186.523
  0
LINE
  8
1
 10
 11219.000
 20
  9089.896
 11
 11219.000
 21
  9186.523
  0
LINE
  8
1
 10
 11219.000
 20
  8627.613
 11
 11099.001
 21
  8619.168
  0
LINE
  8
1
 10
 11099.001
 20
  8619.168
 11
 11219.000
 21
  8533.752
  0
LINE
  8
1
 10
 11219.000
 20
  8533.752
 11
 11219.000
 21
  8533.752
  0
LINE
  8
1
 10
 11219.000
 20
  8627.613
 11
 11219.000
 21
  8533.752
  0
LINE
  8
1
 10
  4424.433
 20
  8410.440
 11
  4543.837
 21
  8422.380
  0
LINE
  8
1
 10
  4543.837
 20
  8422.380
 11
  4414.979
 21
  8504.969
  0
LINE
  8
1
 10
  4414.979
 20
  8504.969
 11
  4414.979
 21
  8504.969
  0
LINE
  8
1
 10
  4424.433
 20
  8410.440
 11
  4414.979
 21
  8504.969
  0
LINE
  8
1
 10
  4450.351
 20
  8151.260
 11
  4570.106
 21
  8159.688
  0
LINE
  8
1
 10
  4570.106
 20
  8159.688
 11
  4459.757
 21
  8057.202
  0
LINE
  8
1
 10
  4459.757
 20
  8057.202
 11
  4459.757
 21
  8057.202
  0
LINE
  8
1
 10
  4450.351
 20
  8151.260
 11
  4459.757
 21
  8057.202
  0
CIRCLE
  8
1
 10
  4408.512
 20
  8408.848
 40
     6.350
  0
LINE
  8
17
 10
  4402.162
 20
  8408.848
 11
  4414.862
 21
  8408.848
  0
LINE
  8
17
 10
  4408.512
 20
  8402.498
 11
  4408.512
 21
  8415.198
  0
CIRCLE
  8
1
 10
  4434.383
 20
  8150.137
 40
     6.350
  0
LINE
  8
17
 10
  4428.033
 20
  8150.137
 11
  4440.733
 21
  8150.137
  0
LINE
  8
17
 10
  4434.383
 20
  8143.787
 11
  4434.383
 21
  8156.486
  0
CIRCLE
  8
1
 10
 11235.000
 20
  8628.740
 40
     6.350
  0
LINE
  8
17
 10
 11228.650
 20
  8628.740
 11
 11241.351
 21
  8628.740
  0
LINE
  8
17
 10
 11235.000
 20
  8622.390
 11
 11235.000
 21
  8635.090
  0
CIRCLE
  8
1
 10
 11235.000
 20
  9091.498
 40
     6.350
  0
LINE
  8
17
 10
 11228.650
 20
  9091.498
 11
 11241.351
 21
  9091.498
  0
LINE
  8
17
 10
 11235.000
 20
  9085.147
 11
 11235.000
 21
  9097.848
  0
LINE
  8
1
 10
 11251.000
 20
  9084.872
 11
 11251.000
 21
  8632.626
  0
LINE
  8
1
 10
 11251.000
 20
  8632.626
 11
 18020.111
 21
  8156.242
  0
LINE
  8
1
 10
 18020.111
 20
  8156.242
 11
 18020.111
 21
  8156.242
  0
LINE
  8
1
 10
 18020.111
 20
  8156.242
 11
 18045.035
 21
  8405.469
  0
LINE
  8
1
 10
 11251.000
 20
  9084.872
 11
 18045.035
 21
  8405.469
  0
LINE
  8
5
 10
 11440.675
 20
  9002.591
 11
 11414.804
 21
  9005.178
  0
LINE
  8
5
 10
 11438.286
 20
  8978.710
 11
 11412.416
 21
  8981.298
  0
ARC
  8
5
 10
 11439.480
 20
  8990.650
 40
    12.000
 50
   -95.711
 51
    84.289
  0
ARC
  8
5
 10
 11413.609
 20
  8993.237
 40
    12.000
 50
    84.289
 51
   -95.711
  0
LINE
  8
5
 10
 16057.447
 20
  8540.913
 11
 16031.576
 21
  8543.500
  0
LINE
  8
5
 10
 16055.061
 20
  8517.032
 11
 16029.188
 21
  8519.619
  0
ARC
  8
5
 10
 16056.254
 20
  8528.973
 40
    12.000
 50
   -95.711
 51
    84.289
  0
ARC
  8
5
 10
 16030.383
 20
  8531.560
 40
    12.000
 50
    84.289
 51
   -95.711
  0
LINE
  8
5
 10
 16355.960
 20
  8511.062
 11
 16330.088
 21
  8513.649
  0
LINE
  8
5
 10
 16353.572
 20
  8487.181
 11
 16327.701
 21
  8489.769
  0
ARC
  8
5
 10
 16354.766
 20
  8499.121
 40
    12.000
 50
   -95.711
 51
    84.289
  0
ARC
  8
5
 10
 16328.895
 20
  8501.709
 40
    12.000
 50
    84.289
 51
   -95.711
  0
LINE
  8
1
 10
 11251.000
 20
  9084.872
 11
 18045.035
 21
  8405.469
  0
LINE
  8
1
 10
 18045.035
 20
  8405.469
 11
 18045.533
 21
  8410.444
  0
LINE
  8
1
 10
 18045.533
 20
  8410.444
 11
 11251.497
 21
  9089.848
  0
LINE
  8
1
 10
 11251.000
 20
  9084.872
 11
 11251.497
 21
  9089.848
  0
LINE
  8
1
 10
 11251.351
 20
  8632.601
 11
 18019.965
 21
  8156.251
  0
LINE
  8
1
 10
 18019.965
 20
  8156.251
 11
 18019.615
 21
  8151.264
  0
LINE
  8
1
 10
 18019.615
 20
  8151.264
 11
 11251.000
 21
  8627.613
  0
LINE
  8
1
 10
 11251.351
 20
  8632.601
 11
 11251.000
 21
  8627.613
  0
LINE
  8
1
 10
 11206.301
 20
  9136.473
 11
 11263.700
 21
  9136.473
  0
LINE
  8
1
 10
 11206.301
 20
  9036.473
 11
 11263.700
 21
  9036.473
  0
LINE
  8
1
 10
 11206.301
 20
  8681.473
 11
 11263.700
 21
  8681.473
  0
LINE
  8
1
 10
 11206.301
 20
  8581.473
 11
 11263.700
 21
  8581.473
  0
LINE
  8
1
 10
 11235.000
 20
  9186.473
 11
 11235.000
 21
  8533.752
  0
LINE
  8
1
 10
 11235.000
 20
  8533.752
 11
 11251.000
 21
  8533.752
  0
LINE
  8
1
 10
 11251.000
 20
  8533.752
 11
 11251.000
 21
  9186.473
  0
LINE
  8
1
 10
 11235.000
 20
  9186.473
 11
 11251.000
 21
  9186.473
  0
LINE
  8
1
 10
 18037.371
 20
  8456.484
 11
 18094.488
 21
  8450.773
  0
LINE
  8
1
 10
 18027.422
 20
  8356.981
 11
 18084.537
 21
  8351.270
  0
LINE
  8
1
 10
 18012.496
 20
  8207.726
 11
 18069.611
 21
  8202.014
  0
LINE
  8
1
 10
 18002.545
 20
  8108.221
 11
 18059.662
 21
  8102.510
  0
LINE
  8
1
 10
 18070.904
 20
  8503.381
 11
 18026.129
 21
  8055.614
  0
LINE
  8
1
 10
 18026.129
 20
  8055.614
 11
 18010.209
 21
  8057.206
  0
LINE
  8
1
 10
 18010.209
 20
  8057.206
 11
 18054.984
 21
  8504.973
  0
LINE
  8
1
 10
 18070.904
 20
  8503.381
 11
 18054.984
 21
  8504.973
  0
LINE
  8
1
 10
 11251.000
 20
  9089.896
 11
 11371.000
 21
  9077.896
  0
LINE
  8
1
 10
 11371.000
 20
  9077.896
 11
 11251.000
 21
  9186.523
  0
LINE
  8
1
 10
 11251.000
 20
  9186.523
 11
 11251.000
 21
  9186.523
  0
LINE
  8
1
 10
 11251.000
 20
  9089.896
 11
 11251.000
 21
  9186.523
  0
LINE
  8
1
 10
 11251.000
 20
  8627.613
 11
 11371.000
 21
  8619.168
  0
LINE
  8
1
 10
 11371.000
 20
  8619.168
 11
 11251.000
 21
  8533.752
  0
LINE
  8
1
 10
 11251.000
 20
  8533.752
 11
 11251.000
 21
  8533.752
  0
LINE
  8
1
 10
 11251.000
 20
  8627.613
 11
 11251.000
 21
  8533.752
  0
LINE
  8
1
 10
 18045.533
 20
  8410.444
 11
 17926.127
 21
  8422.384
  0
LINE
  8
1
 10
 17926.127
 20
  8422.384
 11
 18054.984
 21
  8504.973
  0
LINE
  8
1
 10
 18054.984
 20
  8504.973
 11
 18054.984
 21
  8504.973
  0
LINE
  8
1
 10
 18045.533
 20
  8410.444
 11
 18054.984
 21
  8504.973
  0
LINE
  8
1
 10
 18019.615
 20
  8151.264
 11
 17899.859
 21
  8159.692
  0
LINE
  8
1
 10
 17899.859
 20
  8159.692
 11
 18010.209
 21
  8057.206
  0
LINE
  8
1
 10
 18010.209
 20
  8057.206
 11
 18010.209
 21
  8057.206
  0
LINE
  8
1
 10
 18019.615
 20
  8151.264
 11
 18010.209
 21
  8057.206
  0
CIRCLE
  8
1
 10
 11235.000
 20
  9091.498
 40
     6.350
  0
LINE
  8
17
 10
 11228.650
 20
  9091.498
 11
 11241.351
 21
  9091.498
  0
LINE
  8
17
 10
 11235.000
 20
  9085.147
 11
 11235.000
 21
  9097.848
  0
CIRCLE
  8
1
 10
 11235.000
 20
  8628.740
 40
     6.350
  0
LINE
  8
17
 10
 11228.650
 20
  8628.740
 11
 11241.351
 21
  8628.740
  0
LINE
  8
17
 10
 11235.000
 20
  8622.390
 11
 11235.000
 21
  8635.090
  0
CIRCLE
  8
1
 10
 18035.580
 20
  8150.141
 40
     6.350
  0
LINE
  8
17
 10
 18029.230
 20
  8150.141
 11
 18041.932
 21
  8150.141
  0
LINE
  8
17
 10
 18035.580
 20
  8143.791
 11
 18035.580
 21
  8156.490
  0
CIRCLE
  8
1
 10
 18061.453
 20
  8408.852
 40
     6.350
  0
LINE
  8
17
 10
 18055.102
 20
  8408.852
 11
 18067.803
 21
  8408.852
  0
LINE
  8
17
 10
 18061.453
 20
  8402.502
 11
 18061.453
 21
  8415.202
  0
LINE
  8
1
 10
 18076.875
 20
  8402.285
 11
 18051.838
 21
  8151.907
  0
LINE
  8
1
 10
 18051.838
 20
  8151.907
 11
 21431.000
 21
  7463.379
  0
LINE
  8
1
 10
 21431.000
 20
  7463.379
 11
 21431.000
 21
  7463.379
  0
LINE
  8
1
 10
 21431.000
 20
  7463.379
 11
 21490.752
 21
  8060.897
  0
LINE
  8
1
 10
 18076.875
 20
  8402.285
 11
 21490.752
 21
  8060.897
  0
LINE
  8
1
 10
 21490.752
 20
  8060.897
 11
 21431.000
 21
  7463.379
  0
LINE
  8
1
 10
 21431.000
 20
  7463.379
 11
 21431.000
 21
  7463.379
  0
LINE
  8
1
 10
 21431.000
 20
  7463.379
 11
 22234.000
 21
  7463.379
  0
LINE
  8
1
 10
 22234.000
 20
  7463.379
 11
 22234.000
 21
  7986.572
  0
LINE
  8
1
 10
 21490.752
 20
  8060.897
 11
 22234.000
 21
  7986.572
  0
LINE
  8
5
 10
 22066.535
 20
  7940.003
 11
 22040.664
 21
  7942.591
  0
LINE
  8
5
 10
 22064.148
 20
  7916.123
 11
 22038.275
 21
  7918.710
  0
ARC
  8
5
 10
 22065.342
 20
  7928.063
 40
    12.000
 50
   -95.711
 51
    84.289
  0
ARC
  8
5
 10
 22039.471
 20
  7930.651
 40
    12.000
 50
    84.289
 51
   -95.711
  0
LINE
  8
5
 10
 22171.000
 20
  7723.572
 11
 22171.000
 21
  7749.572
  0
LINE
  8
5
 10
 22147.000
 20
  7723.572
 11
 22147.000
 21
  7749.572
  0
ARC
  8
5
 10
 22159.000
 20
  7723.572
 40
    12.000
 50
  -180.000
 51
     0.000
  0
ARC
  8
5
 10
 22159.000
 20
  7749.572
 40
    12.000
 50
     0.000
 51
  -180.000
  0
LINE
  8
1
 10
 21589.709
 20
  8020.302
 11
 21533.986
 21
  7463.081
  0
LINE
  8
1
 10
 21583.736
 20
  8020.898
 11
 21528.014
 21
  7463.678
  0
LINE
  8
1
 10
 21589.709
 20
  8020.302
 11
 21583.736
 21
  8020.898
  0
LINE
  8
1
 10
 21533.986
 20
  7463.081
 11
 21528.014
 21
  7463.678
  0
LINE
  8
1
 10
 18076.875
 20
  8402.285
 11
 22459.404
 21
  7964.032
  0
LINE
  8
1
 10
 22459.404
 20
  7964.032
 11
 22460.000
 21
  7970.002
  0
LINE
  8
1
 10
 22460.000
 20
  7970.002
 11
 18077.471
 21
  8408.255
  0
LINE
  8
1
 10
 18076.875
 20
  8402.285
 11
 18077.471
 21
  8408.255
  0
LINE
  8
5
 10
 22372.426
 20
  7998.256
 11
 22368.637
 21
  7960.345
  0
LINE
  8
1
 10
 22234.000
 20
  7985.972
 11
 22234.000
 21
  7463.379
  0
LINE
  8
1
 10
 22234.000
 20
  7463.379
 11
 22240.000
 21
  7463.379
  0
LINE
  8
1
 10
 22240.000
 20
  7463.379
 11
 22240.000
 21
  7985.972
  0
LINE
  8
1
 10
 22234.000
 20
  7985.972
 11
 22240.000
 21
  7985.972
  0
LINE
  8
1
 10
 22240.000
 20
  7985.972
 11
 22470.000
 21
  7962.972
  0
LINE
  8
1
 10
 22470.000
 20
  7962.972
 11
 22240.000
 21
  7870.972
  0
LINE
  8
1
 10
 18052.635
 20
  8151.744
 11
 21431.000
 21
  7463.379
  0
LINE
  8
1
 10
 21431.000
 20
  7463.379
 11
 21429.402
 21
  7455.540
  0
LINE
  8
1
 10
 21429.402
 20
  7455.540
 11
 18051.037
 21
  8143.905
  0
LINE
  8
1
 10
 18052.635
 20
  8151.744
 11
 18051.037
 21
  8143.905
  0
LINE
  8
1
 10
 18037.371
 20
  8456.484
 11
 18094.488
 21
  8450.773
  0
LINE
  8
1
 10
 18027.422
 20
  8356.981
 11
 18084.537
 21
  8351.270
  0
LINE
  8
1
 10
 18012.496
 20
  8207.726
 11
 18069.611
 21
  8202.014
  0
LINE
  8
1
 10
 18002.545
 20
  8108.221
 11
 18059.662
 21
  8102.510
  0
LINE
  8
1
 10
 18070.904
 20
  8503.381
 11
 18026.129
 21
  8055.614
  0
LINE
  8
1
 10
 18026.129
 20
  8055.614
 11
 18042.049
 21
  8054.021
  0
LINE
  8
1
 10
 18042.049
 20
  8054.021
 11
 18086.824
 21
  8501.789
  0
LINE
  8
1
 10
 18070.904
 20
  8503.381
 11
 18086.824
 21
  8501.789
  0
LINE
  8
1
 10
 22284.000
 20
  7476.079
 11
 22284.000
 21
  7418.680
  0
LINE
  8
1
 10
 22184.000
 20
  7476.079
 11
 22184.000
 21
  7418.680
  0
LINE
  8
1
 10
 21884.000
 20
  7476.079
 11
 21884.000
 21
  7418.680
  0
LINE
  8
1
 10
 21584.000
 20
  7476.079
 11
 21584.000
 21
  7418.680
  0
LINE
  8
1
 10
 21484.002
 20
  7476.079
 11
 21484.002
 21
  7418.680
  0
LINE
  8
1
 10
 22334.000
 20
  7447.379
 11
 21434.000
 21
  7447.379
  0
LINE
  8
1
 10
 21434.000
 20
  7447.379
 11
 21434.000
 21
  7463.379
  0
LINE
  8
1
 10
 21434.000
 20
  7463.379
 11
 22334.000
 21
  7463.379
  0
LINE
  8
1
 10
 22334.000
 20
  7447.379
 11
 22334.000
 21
  7463.379
  0
LINE
  8
1
 10
 18077.471
 20
  8408.255
 11
 18196.877
 21
  8396.314
  0
LINE
  8
1
 10
 18196.877
 20
  8396.314
 11
 18086.824
 21
  8501.789
  0
LINE
  8
1
 10
 18086.824
 20
  8501.789
 11
 18086.824
 21
  8501.789
  0
LINE
  8
1
 10
 18077.471
 20
  8408.255
 11
 18086.824
 21
  8501.789
  0
LINE
  8
1
 10
 18051.037
 20
  8143.905
 11
 18169.227
 21
  8119.823
  0
LINE
  8
1
 10
 18169.227
 20
  8119.823
 11
 18042.049
 21
  8054.021
  0
LINE
  8
1
 10
 18042.049
 20
  8054.021
 11
 18042.049
 21
  8054.021
  0
LINE
  8
1
 10
 18051.037
 20
  8143.905
 11
 18042.049
 21
  8054.021
  0
LINE
  8
1
 10
 22240.000
 20
  7463.379
 11
 22240.000
 21
  7583.379
  0
LINE
  8
1
 10
 22240.000
 20
  7583.379
 11
 22334.000
 21
  7463.379
  0
LINE
  8
1
 10
 22334.000
 20
  7463.379
 11
 22334.000
 21
  7463.379
  0
LINE
  8
1
 10
 22240.000
 20
  7463.379
 11
 22334.000
 21
  7463.379
  0
CIRCLE
  8
1
 10
 18061.551
 20
  8409.847
 40
     6.350
  0
LINE
  8
17
 10
 18055.201
 20
  8409.847
 11
 18067.902
 21
  8409.847
  0
LINE
  8
17
 10
 18061.551
 20
  8403.497
 11
 18061.551
 21
  8416.197
  0
CIRCLE
  8
1
 10
 18035.279
 20
  8147.117
 40
     6.350
  0
LINE
  8
17
 10
 18028.930
 20
  8147.117
 11
 18041.629
 21
  8147.117
  0
LINE
  8
17
 10
 18035.279
 20
  8140.767
 11
 18035.279
 21
  8153.466
  0
CIRCLE
  8
1
 10
 21434.000
 20
  7447.379
 40
     6.350
  0
LINE
  8
17
 10
 21427.650
 20
  7447.379
 11
 21440.350
 21
  7447.379
  0
LINE
  8
17
 10
 21434.000
 20
  7441.029
 11
 21434.000
 21
  7453.729
  0
CIRCLE
  8
1
 10
 22240.000
 20
  7447.379
 40
     6.350
  0
LINE
  8
17
 10
 22233.650
 20
  7447.379
 11
 22246.350
 21
  7447.379
  0
LINE
  8
17
 10
 22240.000
 20
  7441.029
 11
 22240.000
 21
  7453.729
  0
CIRCLE
  8
1
 10
 22240.000
 20
  7992.002
 40
     6.350
  0
LINE
  8
17
 10
 22233.650
 20
  7992.002
 11
 22246.350
 21
  7992.002
  0
LINE
  8
17
 10
 22240.000
 20
  7985.652
 11
 22240.000
 21
  7998.352
  0
LINE
  8
1
 10
 22234.000
 20
    16.000
 11
 21834.000
 21
    16.000
  0
LINE
  8
1
 10
 21834.000
 20
    16.000
 11
 21534.000
 21
  4016.000
  0
LINE
  8
1
 10
 21534.000
 20
  4016.000
 11
 21534.000
 21
  4016.000
  0
LINE
  8
1
 10
 21534.000
 20
  4016.000
 11
 22234.000
 21
  4016.000
  0
LINE
  8
1
 10
 22234.000
 20
    16.000
 11
 22234.000
 21
  4016.000
  0
LINE
  8
1
 10
 22234.000
 20
  4016.000
 11
 21534.000
 21
  4016.000
  0
LINE
  8
1
 10
 21534.000
 20
  4016.000
 11
 21534.000
 21
  7431.379
  0
LINE
  8
1
 10
 21534.000
 20
  7431.379
 11
 21534.000
 21
  7431.379
  0
LINE
  8
1
 10
 21534.000
 20
  7431.379
 11
 22234.000
 21
  7431.379
  0
LINE
  8
1
 10
 22234.000
 20
  4016.000
 11
 22234.000
 21
  7431.379
  0
LINE
  8
5
 10
 22171.000
 20
   253.000
 11
 22171.000
 21
   279.000
  0
LINE
  8
5
 10
 22147.000
 20
   253.000
 11
 22147.000
 21
   279.000
  0
ARC
  8
5
 10
 22159.000
 20
   253.000
 40
    12.000
 50
  -180.000
 51
     0.000
  0
ARC
  8
5
 10
 22159.000
 20
   279.000
 40
    12.000
 50
     0.000
 51
  -180.000
  0
LINE
  8
5
 10
 22171.000
 20
  5767.000
 11
 22171.000
 21
  5793.000
  0
LINE
  8
5
 10
 22147.000
 20
  5767.000
 11
 22147.000
 21
  5793.000
  0
ARC
  8
5
 10
 22159.000
 20
  5767.000
 40
    12.000
 50
  -180.000
 51
     0.000
  0
ARC
  8
5
 10
 22159.000
 20
  5793.000
 40
    12.000
 50
     0.000
 51
  -180.000
  0
LINE
  8
5
 10
 22171.000
 20
  6067.000
 11
 22171.000
 21
  6093.000
  0
LINE
  8
5
 10
 22147.000
 20
  6067.000
 11
 22147.000
 21
  6093.000
  0
ARC
  8
5
 10
 22159.000
 20
  6067.000
 40
    12.000
 50
  -180.000
 51
     0.000
  0
ARC
  8
5
 10
 22159.000
 20
  6093.000
 40
    12.000
 50
     0.000
 51
  -180.000
  0
LINE
  8
1
 10
 22134.000
 20
  5274.000
 11
 21534.000
 21
  5274.000
  0
LINE
  8
1
 10
 22134.000
 20
  5268.000
 11
 21534.000
 21
  5268.000
  0
LINE
  8
1
 10
 22134.000
 20
  5274.000
 11
 22134.000
 21
  5268.000
  0
LINE
  8
1
 10
 21534.000
 20
  5274.000
 11
 21534.000
 21
  5268.000
  0
LINE
  8
1
 10
 22134.000
 20
  5634.000
 11
 21534.000
 21
  5634.000
  0
LINE
  8
1
 10
 22134.000
 20
  5628.000
 11
 21534.000
 21
  5628.000
  0
LINE
  8
1
 10
 22134.000
 20
  5634.000
 11
 22134.000
 21
  5628.000
  0
LINE
  8
1
 10
 21534.000
 20
  5634.000
 11
 21534.000
 21
  5628.000
  0
LINE
  8
1
 10
 22234.000
 20
  5850.000
 11
 21634.000
 21
  5850.000
  0
LINE
  8
1
 10
 22234.000
 20
  5844.000
 11
 21634.000
 21
  5844.000
  0
LINE
  8
1
 10
 22234.000
 20
  5850.000
 11
 22234.000
 21
  5844.000
  0
LINE
  8
1
 10
 21634.000
 20
  5850.000
 11
 21634.000
 21
  5844.000
  0
LINE
  8
1
 10
 22234.000
 20
    16.000
 11
 22234.000
 21
  7431.379
  0
LINE
  8
1
 10
 22234.000
 20
  7431.379
 11
 22240.000
 21
  7431.379
  0
LINE
  8
1
 10
 22240.000
 20
  7431.379
 11
 22240.000
 21
    16.000
  0
LINE
  8
1
 10
 22234.000
 20
    16.000
 11
 22240.000
 21
    16.000
  0
LINE
  8
5
 10
 22259.400
 20
  7080.000
 11
 22221.301
 21
  7080.000
  0
LINE
  8
5
 10
 22259.400
 20
  5580.000
 11
 22221.301
 21
  5580.000
  0
LINE
  8
5
 10
 22259.400
 20
  4080.000
 11
 22221.301
 21
  4080.000
  0
LINE
  8
5
 10
 22259.400
 20
  2580.000
 11
 22221.301
 21
  2580.000
  0
LINE
  8
1
 10
 21833.967
 20
    16.449
 11
 21534.000
 21
  4016.000
  0
LINE
  8
1
 10
 21534.000
 20
  4016.000
 11
 21528.018
 21
  4015.551
  0
LINE
  8
1
 10
 21528.018
 20
  4015.551
 11
 21827.984
 21
    16.000
  0
LINE
  8
1
 10
 21833.967
 20
    16.449
 11
 21827.984
 21
    16.000
  0
LINE
  8
1
 10
 21534.000
 20
  4016.000
 11
 21534.000
 21
  7431.379
  0
LINE
  8
1
 10
 21534.000
 20
  7431.379
 11
 21528.000
 21
  7431.379
  0
LINE
  8
1
 10
 21528.000
 20
  7431.379
 11
 21528.000
 21
  4016.000
  0
LINE
  8
1
 10
 21534.000
 20
  4016.000
 11
 21528.000
 21
  4016.000
  0
CIRCLE
  8
1
 10
 21528.000
 20
  5276.000
 40
    12.700
  0
CIRCLE
  8
1
 10
 21528.000
 20
  5626.000
 40
    12.700
  0
LINE
  8
1
 10
 22312.000
 20
    28.700
 11
 22312.000
 21
   -28.700
  0
LINE
  8
1
 10
 22162.000
 20
    28.700
 11
 22162.000
 21
   -28.700
  0
LINE
  8
1
 10
 21907.193
 20
    28.700
 11
 21907.193
 21
   -28.700
  0
LINE
  8
1
 10
 21757.193
 20
    28.700
 11
 21757.193
 21
   -28.700
  0
LINE
  8
1
 10
 22387.000
 20
     0.000
 11
 21682.193
 21
     0.000
  0
LINE
  8
1
 10
 21682.193
 20
     0.000
 11
 21682.193
 21
    16.000
  0
LINE
  8
1
 10
 21682.193
 20
    16.000
 11
 22387.000
 21
    16.000
  0
LINE
  8
1
 10
 22387.000
 20
     0.000
 11
 22387.000
 21
    16.000
  0
LINE
  8
1
 10
 22284.000
 20
  7476.079
 11
 22284.000
 21
  7418.680
  0
LINE
  8
1
 10
 22184.000
 20
  7476.079
 11
 22184.000
 21
  7418.680
  0
LINE
  8
1
 10
 21884.000
 20
  7476.079
 11
 21884.000
 21
  7418.680
  0
LINE
  8
1
 10
 21584.000
 20
  7476.079
 11
 21584.000
 21
  7418.680
  0
LINE
  8
1
 10
 21484.002
 20
  7476.079
 11
 21484.002
 21
  7418.680
  0
LINE
  8
1
 10
 22334.000
 20
  7447.379
 11
 21434.000
 21
  7447.379
  0
LINE
  8
1
 10
 21434.000
 20
  7447.379
 11
 21434.000
 21
  7431.379
  0
LINE
  8
1
 10
 21434.000
 20
  7431.379
 11
 22334.000
 21
  7431.379
  0
LINE
  8
1
 10
 22334.000
 20
  7447.379
 11
 22334.000
 21
  7431.379
  0
LINE
  8
1
 10
 22240.000
 20
    16.000
 11
 22240.000
 21
   213.000
  0
LINE
  8
1
 10
 22240.000
 20
   213.000
 11
 22387.000
 21
    66.000
  0
LINE
  8
1
 10
 22387.000
 20
    66.000
 11
 22387.000
 21
    16.000
  0
LINE
  8
1
 10
 22240.000
 20
    16.000
 11
 22387.000
 21
    16.000
  0
LINE
  8
1
 10
 21827.984
 20
    16.000
 11
 21813.299
 21
   211.791
  0
LINE
  8
1
 10
 21813.299
 20
   211.791
 11
 21682.193
 21
    66.000
  0
LINE
  8
1
 10
 21682.193
 20
    66.000
 11
 21682.193
 21
    16.000
  0
LINE
  8
1
 10
 21827.984
 20
    16.000
 11
 21682.193
 21
    16.000
  0
LINE
  8
1
 10
 22240.000
 20
  7431.379
 11
 22240.000
 21
  7311.380
  0
LINE
  8
1
 10
 22240.000
 20
  7311.380
 11
 22334.000
 21
  7431.379
  0
LINE
  8
1
 10
 22334.000
 20
  7431.379
 11
 22334.000
 21
  7431.379
  0
LINE
  8
1
 10
 22240.000
 20
  7431.379
 11
 22334.000
 21
  7431.379
  0
LINE
  8
1
 10
 21528.000
 20
  7431.379
 11
 21528.000
 21
  7311.380
  0
LINE
  8
1
 10
 21528.000
 20
  7311.380
 11
 21434.000
 21
  7431.379
  0
LINE
  8
1
 10
 21434.000
 20
  7431.379
 11
 21434.000
 21
  7431.379
  0
LINE
  8
1
 10
 21528.000
 20
  7431.379
 11
 21434.000
 21
  7431.379
  0
CIRCLE
  8
1
 10
 22240.000
 20
  7447.379
 40
     6.350
  0
LINE
  8
17
 10
 22233.650
 20
  7447.379
 11
 22246.350
 21
  7447.379
  0
LINE
  8
17
 10
 22240.000
 20
  7441.029
 11
 22240.000
 21
  7453.729
  0
CIRCLE
  8
1
 10
 21528.000
 20
  7447.379
 40
     6.350
  0
LINE
  8
17
 10
 21521.650
 20
  7447.379
 11
 21534.350
 21
  7447.379
  0
LINE
  8
17
 10
 21528.000
 20
  7441.029
 11
 21528.000
 21
  7453.729
  0
CIRCLE
  8
1
 10
 21829.184
 20
     0.000
 40
     6.350
  0
LINE
  8
17
 10
 21822.834
 20
     0.000
 11
 21835.533
 21
     0.000
  0
LINE
  8
17
 10
 21829.184
 20
    -6.350
 11
 21829.184
 21
     6.350
  0
CIRCLE
  8
1
 10
 22240.000
 20
     0.000
 40
     6.350
  0
LINE
  8
17
 10
 22233.650
 20
     0.000
 11
 22246.350
 21
     0.000
  0
LINE
  8
17
 10
 22240.000
 20
    -6.350
 11
 22240.000
 21
     6.350
  0
LINE
  8
3
 10
     0.000
 20
  2580.000
 11
  -175.915
 21
  2478.294
  0
LINE
  8
3
 10
     0.000
 20
  2580.000
 11
  -176.007
 21
  2681.547
  0
LINE
  8
3
 10
  -176.007
 20
  2681.547
 11
  -175.915
 21
  2478.294
  0
LINE
  8
3
 10
     0.000
 20
  2580.000
 11
  -175.915
 21
  2478.294
  0
LINE
  8
3
 10
     0.000
 20
  2580.000
 11
  -176.007
 21
  2681.547
  0
LINE
  8
3
 10
  -176.007
 20
  2681.547
 11
  -175.915
 21
  2478.294
  0
LINE
  8
3
 10
  1562.308
 20
  8326.230
 11
  1443.602
 21
  8491.152
  0
LINE
  8
3
 10
  1562.308
 20
  8326.230
 11
  1645.837
 21
  8511.468
  0
LINE
  8
3
 10
  1645.837
 20
  8511.468
 11
  1443.602
 21
  8491.152
  0
LINE
  8
3
 10
  4687.023
 20
  8638.702
 11
  4568.317
 21
  8803.624
  0
LINE
  8
3
 10
  4687.023
 20
  8638.702
 11
  4770.553
 21
  8823.939
  0
LINE
  8
3
 10
  4770.553
 20
  8823.939
 11
  4568.317
 21
  8803.624
  0
LINE
  8
3
 10
  7811.739
 20
  8951.174
 11
  7693.033
 21
  9116.096
  0
LINE
  8
3
 10
  7811.739
 20
  8951.174
 11
  7895.269
 21
  9136.411
  0
LINE
  8
3
 10
  7895.269
 20
  9136.411
 11
  7693.033
 21
  9116.096
  0
LINE
  8
3
 10
 10936.454
 20
  9263.646
 11
 10817.748
 21
  9428.567
  0
LINE
  8
3
 10
 10936.454
 20
  9263.646
 11
 11019.983
 21
  9448.883
  0
LINE
  8
3
 10
 11019.983
 20
  9448.883
 11
 10817.748
 21
  9428.567
  0
LINE
  8
3
 10
  1562.308
 20
  8326.230
 11
  1443.602
 21
  8491.152
  0
LINE
  8
3
 10
  1562.308
 20
  8326.230
 11
  1645.837
 21
  8511.468
  0
LINE
  8
3
 10
  1645.837
 20
  8511.468
 11
  1443.602
 21
  8491.152
  0
LINE
  8
3
 10
  4687.023
 20
  8638.702
 11
  4568.317
 21
  8803.624
  0
LINE
  8
3
 10
  4687.023
 20
  8638.702
 11
  4770.553
 21
  8823.939
  0
LINE
  8
3
 10
  4770.553
 20
  8823.939
 11
  4568.317
 21
  8803.624
  0
LINE
  8
3
 10
  7811.739
 20
  8951.174
 11
  7693.033
 21
  9116.096
  0
LINE
  8
3
 10
  7811.739
 20
  8951.174
 11
  7895.269
 21
  9136.411
  0
LINE
  8
3
 10
  7895.269
 20
  9136.411
 11
  7693.033
 21
  9116.096
  0
LINE
  8
3
 10
 10936.454
 20
  9263.646
 11
 10817.748
 21
  9428.567
  0
LINE
  8
3
 10
 10936.454
 20
  9263.646
 11
 11019.983
 21
  9448.883
  0
LINE
  8
3
 10
 11019.983
 20
  9448.883
 11
 10817.748
 21
  9428.567
  0
LINE
  8
3
 10
 11533.512
 20
  9263.648
 11
 11449.814
 21
  9448.811
  0
LINE
  8
3
 10
 11533.512
 20
  9263.648
 11
 11652.067
 21
  9428.678
  0
LINE
  8
3
 10
 11652.067
 20
  9428.678
 11
 11449.814
 21
  9448.811
  0
LINE
  8
3
 10
 14658.228
 20
  8951.177
 11
 14574.530
 21
  9136.339
  0
LINE
  8
3
 10
 14658.228
 20
  8951.177
 11
 14776.783
 21
  9116.206
  0
LINE
  8
3
 10
 14776.783
 20
  9116.206
 11
 14574.530
 21
  9136.339
  0
LINE
  8
3
 10
 17782.941
 20
  8638.705
 11
 17699.244
 21
  8823.867
  0
LINE
  8
3
 10
 17782.941
 20
  8638.705
 11
 17901.498
 21
  8803.734
  0
LINE
  8
3
 10
 17901.498
 20
  8803.734
 11
 17699.244
 21
  8823.867
  0
LINE
  8
3
 10
 20907.656
 20
  8326.233
 11
 20823.959
 21
  8511.396
  0
LINE
  8
3
 10
 20907.656
 20
  8326.233
 11
 21026.213
 21
  8491.263
  0
LINE
  8
3
 10
 21026.213
 20
  8491.263
 11
 20823.959
 21
  8511.396
  0
LINE
  8
3
 10
 11533.512
 20
  9263.648
 11
 11449.814
 21
  9448.811
  0
LINE
  8
3
 10
 11533.512
 20
  9263.648
 11
 11652.067
 21
  9428.678
  0
LINE
  8
3
 10
 11652.067
 20
  9428.678
 11
 11449.814
 21
  9448.811
  0
LINE
  8
3
 10
 14658.228
 20
  8951.177
 11
 14574.530
 21
  9136.339
  0
LINE
  8
3
 10
 14658.228
 20
  8951.177
 11
 14776.783
 21
  9116.206
  0
LINE
  8
3
 10
 14776.783
 20
  9116.206
 11
 14574.530
 21
  9136.339
  0
LINE
  8
3
 10
 17782.941
 20
  8638.705
 11
 17699.244
 21
  8823.867
  0
LINE
  8
3
 10
 17782.941
 20
  8638.705
 11
 17901.498
 21
  8803.734
  0
LINE
  8
3
 10
 17901.498
 20
  8803.734
 11
 17699.244
 21
  8823.867
  0
LINE
  8
3
 10
 20907.656
 20
  8326.233
 11
 20823.959
 21
  8511.396
  0
LINE
  8
3
 10
 20907.656
 20
  8326.233
 11
 21026.213
 21
  8491.263
  0
LINE
  8
3
 10
 21026.213
 20
  8491.263
 11
 20823.959
 21
  8511.396
  0
LINE
  8
3
 10
 22470.000
 20
  2580.000
 11
 22645.916
 21
  2681.707
  0
LINE
  8
3
 10
 22470.000
 20
  2580.000
 11
 22646.006
 21
  2478.453
  0
LINE
  8
3
 10
 22646.006
 20
  2478.453
 11
 22645.916
 21
  2681.707
  0
LINE
  8
3
 10
 22470.000
 20
  2580.000
 11
 22645.916
 21
  2681.707
  0
LINE
  8
3
 10
 22470.000
 20
  2580.000
 11
 22646.006
 21
  2478.453
  0
LINE
  8
3
 10
 22646.006
 20
  2478.453
 11
 22645.916
 21
  2681.707
  0
LINE
  8
5
 10
  1562.308
 20
  8326.230
 11
  1582.209
 21
  8127.223
  0
LINE
  8
5
 10
  3124.715
 20
  8482.472
 11
  3144.616
 21
  8283.464
  0
LINE
  8
5
 10
  4687.023
 20
  8638.702
 11
  4706.924
 21
  8439.694
  0
LINE
  8
5
 10
  6249.431
 20
  8794.943
 11
  6269.332
 21
  8595.936
  0
LINE
  8
5
 10
  7811.739
 20
  8951.174
 11
  7831.641
 21
  8752.166
  0
LINE
  8
5
 10
  9374.146
 20
  9107.414
 11
  9394.048
 21
  8908.407
  0
LINE
  8
5
 10
 10936.454
 20
  9263.646
 11
 10956.355
 21
  9064.638
  0
LINE
  8
5
 10
 11533.512
 20
  9263.648
 11
 11513.610
 21
  9064.642
  0
LINE
  8
5
 10
 13095.819
 20
  9107.418
 11
 13075.918
 21
  8908.410
  0
LINE
  8
5
 10
 14658.228
 20
  8951.177
 11
 14638.326
 21
  8752.170
  0
LINE
  8
5
 10
 16220.535
 20
  8794.946
 11
 16200.634
 21
  8595.938
  0
LINE
  8
5
 10
 17782.941
 20
  8638.705
 11
 17763.041
 21
  8439.698
  0
LINE
  8
5
 10
 19345.250
 20
  8482.475
 11
 19325.350
 21
  8283.467
  0
LINE
  8
5
 10
 20907.656
 20
  8326.233
 11
 20887.756
 21
  8127.226
  0
LINE
  8
5
 10
   764.800
 20
  2580.000
 11
   828.300
 21
  2580.000
  0
LINE
  8
5
 10
   764.800
 20
  2580.000
 11
   828.300
 21
  2580.000
  0
LINE
  8
5
 10
  1630.102
 20
  7648.293
 11
  1636.420
 21
  7585.108
  0
LINE
  8
5
 10
  4726.956
 20
  8239.368
 11
  4733.274
 21
  8176.184
  0
LINE
  8
5
 10
  7860.864
 20
  8459.922
 11
  7867.183
 21
  8396.737
  0
LINE
  8
5
 10
 10994.771
 20
  8680.475
 11
 11001.090
 21
  8617.290
  0
LINE
  8
5
 10
  1630.102
 20
  7648.293
 11
  1636.420
 21
  7585.108
  0
LINE
  8
5
 10
  4726.956
 20
  8239.368
 11
  4733.274
 21
  8176.184
  0
LINE
  8
5
 10
  7860.864
 20
  8459.922
 11
  7867.183
 21
  8396.737
  0
LINE
  8
5
 10
 10994.771
 20
  8680.475
 11
 11001.090
 21
  8617.290
  0
LINE
  8
5
 10
 11475.194
 20
  8680.477
 11
 11468.876
 21
  8617.293
  0
LINE
  8
5
 10
 14609.102
 20
  8459.925
 11
 14602.783
 21
  8396.740
  0
LINE
  8
5
 10
 17743.010
 20
  8239.372
 11
 17736.691
 21
  8176.188
  0
LINE
  8
5
 10
 20839.863
 20
  7648.300
 11
 20833.545
 21
  7585.115
  0
LINE
  8
5
 10
 11475.194
 20
  8680.477
 11
 11468.876
 21
  8617.293
  0
LINE
  8
5
 10
 14609.102
 20
  8459.925
 11
 14602.783
 21
  8396.740
  0
LINE
  8
5
 10
 17743.010
 20
  8239.372
 11
 17736.691
 21
  8176.188
  0
LINE
  8
5
 10
 20839.863
 20
  7648.300
 11
 20833.545
 21
  7585.115
  0
LINE
  8
5
 10
 21705.201
 20
  2580.000
 11
 21641.701
 21
  2580.000
  0
LINE
  8
5
 10
 21705.201
 20
  2580.000
 11
 21641.701
 21
  2580.000
  0
LINE
  8
1
 10
   942.000
 20
  5634.000
 11
  1400.000
 21
  5634.000
  0
LINE
  8
1
 10
   942.000
 20
  5626.000
 11
  1400.000
 21
  5626.000
  0
LINE
  8
1
 10
  1400.000
 20
  5634.000
 11
  1400.000
 21
  5268.000
  0
LINE
  8
1
 10
  1400.000
 20
  5268.000
 11
   942.000
 21
  5268.000
  0
LINE
  8
1
 10
  1400.000
 20
  5276.000
 11
   942.000
 21
  5276.000
  0
LINE
  8
1
 10
 21528.000
 20
  5634.000
 11
 21175.000
 21
  5634.000
  0
LINE
  8
1
 10
 21528.000
 20
  5626.000
 11
 21175.000
 21
  5626.000
  0
LINE
  8
1
 10
 21175.000
 20
  5634.000
 11
 21175.000
 21
  5268.000
  0
LINE
  8
1
 10
 21175.000
 20
  5268.000
 11
 21528.000
 21
  5268.000
  0
LINE
  8
1
 10
 21175.000
 20
  5276.000
 11
 21528.000
 21
  5276.000
  0
LINE
  8
1
 10
   336.000
 20
  5274.000
 11
   936.000
 21
  5274.000
  0
LINE
  8
1
 10
   336.000
 20
  5268.000
 11
   936.000
 21
  5268.000
  0
LINE
  8
1
 10
   336.000
 20
  5274.000
 11
   336.000
 21
  5268.000
  0
LINE
  8
1
 10
   936.000
 20
  5274.000
 11
   936.000
 21
  5268.000
  0
LINE
  8
1
 10
   336.000
 20
  5634.000
 11
   936.000
 21
  5634.000
  0
LINE
  8
1
 10
   336.000
 20
  5628.000
 11
   936.000
 21
  5628.000
  0
LINE
  8
1
 10
   336.000
 20
  5634.000
 11
   336.000
 21
  5628.000
  0
LINE
  8
1
 10
   936.000
 20
  5634.000
 11
   936.000
 21
  5628.000
  0
LINE
  8
1
 10
   236.000
 20
  5850.000
 11
   836.000
 21
  5850.000
  0
LINE
  8
1
 10
   236.000
 20
  5844.000
 11
   836.000
 21
  5844.000
  0
LINE
  8
1
 10
   236.000
 20
  5850.000
 11
   236.000
 21
  5844.000
  0
LINE
  8
1
 10
   836.000
 20
  5850.000
 11
   836.000
 21
  5844.000
  0
LINE
  8
17
 10
   223.650
 20
     0.000
 11
   236.350
 21
     0.000
  0
LINE
  8
17
 10
   230.000
 20
    -6.350
 11
   230.000
 21
     6.350
  0
LINE
  8
17
 10
   634.467
 20
     0.000
 11
   647.167
 21
     0.000
  0
LINE
  8
17
 10
   640.817
 20
    -6.350
 11
   640.817
 21
     6.350
  0
LINE
  8
17
 10
   935.650
 20
  7447.379
 11
   948.350
 21
  7447.379
  0
LINE
  8
17
 10
   942.000
 20
  7441.029
 11
   942.000
 21
  7453.729
  0
LINE
  8
17
 10
   223.650
 20
  7447.379
 11
   236.350
 21
  7447.379
  0
LINE
  8
17
 10
   230.000
 20
  7441.029
 11
   230.000
 21
  7453.729
  0
LINE
  8
1
 10
   886.263
 20
  8020.898
 11
   941.985
 21
  7463.678
  0
LINE
  8
1
 10
   880.293
 20
  8020.302
 11
   936.015
 21
  7463.081
  0
LINE
  8
1
 10
   886.263
 20
  8020.898
 11
   880.293
 21
  8020.302
  0
LINE
  8
1
 10
   941.985
 20
  7463.678
 11
   936.015
 21
  7463.081
  0
LINE
  8
17
 10
   223.650
 20
  7447.379
 11
   236.350
 21
  7447.379
  0
LINE
  8
17
 10
   230.000
 20
  7441.029
 11
   230.000
 21
  7453.729
  0
LINE
  8
17
 10
  1029.650
 20
  7447.379
 11
  1042.350
 21
  7447.379
  0
LINE
  8
17
 10
  1036.000
 20
  7441.029
 11
  1036.000
 21
  7453.729
  0
LINE
  8
17
 10
  4428.335
 20
  8147.113
 11
  4441.036
 21
  8147.113
  0
LINE
  8
17
 10
  4434.686
 20
  8140.763
 11
  4434.686
 21
  8153.463
  0
LINE
  8
17
 10
  4402.062
 20
  8409.843
 11
  4414.763
 21
  8409.843
  0
LINE
  8
17
 10
  4408.413
 20
  8403.493
 11
  4408.413
 21
  8416.193
  0
LINE
  8
17
 10
   223.650
 20
  7992.002
 11
   236.350
 21
  7992.002
  0
LINE
  8
17
 10
   230.000
 20
  7985.652
 11
   230.000
 21
  7998.352
  0
LINE
  8
17
 10
  4402.162
 20
  8408.848
 11
  4414.862
 21
  8408.848
  0
LINE
  8
17
 10
  4408.512
 20
  8402.498
 11
  4408.512
 21
  8415.198
  0
LINE
  8
17
 10
  4428.033
 20
  8150.137
 11
  4440.733
 21
  8150.137
  0
LINE
  8
17
 10
  4434.383
 20
  8143.787
 11
  4434.383
 21
  8156.486
  0
LINE
  8
17
 10
 11228.650
 20
  8628.740
 11
 11241.351
 21
  8628.740
  0
LINE
  8
17
 10
 11235.000
 20
  8622.390
 11
 11235.000
 21
  8635.090
  0
LINE
  8
17
 10
 11228.650
 20
  9091.498
 11
 11241.351
 21
  9091.498
  0
LINE
  8
17
 10
 11235.000
 20
  9085.147
 11
 11235.000
 21
  9097.848
  0
LINE
  8
17
 10
 11228.650
 20
  9091.498
 11
 11241.351
 21
  9091.498
  0
LINE
  8
17
 10
 11235.000
 20
  9085.147
 11
 11235.000
 21
  9097.848
  0
LINE
  8
17
 10
 11228.650
 20
  8628.740
 11
 11241.351
 21
  8628.740
  0
LINE
  8
17
 10
 11235.000
 20
  8622.390
 11
 11235.000
 21
  8635.090
  0
LINE
  8
17
 10
 18029.230
 20
  8150.141
 11
 18041.932
 21
  8150.141
  0
LINE
  8
17
 10
 18035.580
 20
  8143.791
 11
 18035.580
 21
  8156.490
  0
LINE
  8
17
 10
 18055.102
 20
  8408.852
 11
 18067.803
 21
  8408.852
  0
LINE
  8
17
 10
 18061.453
 20
  8402.502
 11
 18061.453
 21
  8415.202
  0
LINE
  8
1
 10
 21589.709
 20
  8020.302
 11
 21533.986
 21
  7463.081
  0
LINE
  8
1
 10
 21583.736
 20
  8020.898
 11
 21528.014
 21
  7463.678
  0
LINE
  8
1
 10
 21589.709
 20
  8020.302
 11
 21583.736
 21
  8020.898
  0
LINE
  8
1
 10
 21533.986
 20
  7463.081
 11
 21528.014
 21
  7463.678
  0
LINE
  8
17
 10
 18055.201
 20
  8409.847
 11
 18067.902
 21
  8409.847
  0
LINE
  8
17
 10
 18061.551
 20
  8403.497
 11
 18061.551
 21
  8416.197
  0
LINE
  8
17
 10
 18028.930
 20
  8147.117
 11
 18041.629
 21
  8147.117
  0
LINE
  8
17
 10
 18035.279
 20
  8140.767
 11
 18035.279
 21
  8153.466
  0
LINE
  8
17
 10
 21427.650
 20
  7447.379
 11
 21440.350
 21
  7447.379
  0
LINE
  8
17
 10
 21434.000
 20
  7441.029
 11
 21434.000
 21
  7453.729
  0
LINE
  8
17
 10
 22233.650
 20
  7447.379
 11
 22246.350
 21
  7447.379
  0
LINE
  8
17
 10
 22240.000
 20
  7441.029
 11
 22240.000
 21
  7453.729
  0
LINE
  8
17
 10
 22233.650
 20
  7992.002
 11
 22246.350
 21
  7992.002
  0
LINE
  8
17
 10
 22240.000
 20
  7985.652
 11
 22240.000
 21
  7998.352
  0
LINE
  8
1
 10
 22134.000
 20
  5274.000
 11
 21534.000
 21
  5274.000
  0
LINE
  8
1
 10
 22134.000
 20
  5268.000
 11
 21534.000
 21
  5268.000
  0
LINE
  8
1
 10
 22134.000
 20
  5274.000
 11
 22134.000
 21
  5268.000
  0
LINE
  8
1
 10
 21534.000
 20
  5274.000
 11
 21534.000
 21
  5268.000
  0
LINE
  8
1
 10
 22134.000
 20
  5634.000
 11
 21534.000
 21
  5634.000
  0
LINE
  8
1
 10
 22134.000
 20
  5628.000
 11
 21534.000
 21
  5628.000
  0
LINE
  8
1
 10
 22134.000
 20
  5634.000
 11
 22134.000
 21
  5628.000
  0
LINE
  8
1
 10
 21534.000
 20
  5634.000
 11
 21534.000
 21
  5628.000
  0
LINE
  8
1
 10
 22234.000
 20
  5850.000
 11
 21634.000
 21
  5850.000
  0
LINE
  8
1
 10
 22234.000
 20
  5844.000
 11
 21634.000
 21
  5844.000
  0
LINE
  8
1
 10
 22234.000
 20
  5850.000
 11
 22234.000
 21
  5844.000
  0
LINE
  8
1
 10
 21634.000
 20
  5850.000
 11
 21634.000
 21
  5844.000
  0
LINE
  8
17
 10
 22233.650
 20
  7447.379
 11
 22246.350
 21
  7447.379
  0
LINE
  8
17
 10
 22240.000
 20
  7441.029
 11
 22240.000
 21
  7453.729
  0
LINE
  8
17
 10
 21521.650
 20
  7447.379
 11
 21534.350
 21
  7447.379
  0
LINE
  8
17
 10
 21528.000
 20
  7441.029
 11
 21528.000
 21
  7453.729
  0
LINE
  8
17
 10
 21822.834
 20
     0.000
 11
 21835.533
 21
     0.000
  0
LINE
  8
17
 10
 21829.184
 20
    -6.350
 11
 21829.184
 21
     6.350
  0
LINE
  8
17
 10
 22233.650
 20
     0.000
 11
 22246.350
 21
     0.000
  0
LINE
  8
17
 10
 22240.000
 20
    -6.350
 11
 22240.000
 21
     6.350
  0
LINE
  8
5
 10
  1562.308
 20
  8326.230
 11
  1582.209
 21
  8127.223
  0
LINE
  8
5
 10
  3124.715
 20
  8482.472
 11
  3144.616
 21
  8283.464
  0
LINE
  8
5
 10
  4687.023
 20
  8638.702
 11
  4706.924
 21
  8439.694
  0
LINE
  8
5
 10
  6249.431
 20
  8794.943
 11
  6269.332
 21
  8595.936
  0
LINE
  8
5
 10
  7811.739
 20
  8951.174
 11
  7831.641
 21
  8752.166
  0
LINE
  8
5
 10
  9374.146
 20
  9107.414
 11
  9394.048
 21
  8908.407
  0
LINE
  8
5
 10
 10936.454
 20
  9263.646
 11
 10956.355
 21
  9064.638
  0
LINE
  8
5
 10
 11533.512
 20
  9263.648
 11
 11513.610
 21
  9064.642
  0
LINE
  8
5
 10
 13095.819
 20
  9107.418
 11
 13075.918
 21
  8908.410
  0
LINE
  8
5
 10
 14658.228
 20
  8951.177
 11
 14638.326
 21
  8752.170
  0
LINE
  8
5
 10
 16220.535
 20
  8794.946
 11
 16200.634
 21
  8595.938
  0
LINE
  8
5
 10
 17782.941
 20
  8638.705
 11
 17763.041
 21
  8439.698
  0
LINE
  8
5
 10
 19345.250
 20
  8482.475
 11
 19325.350
 21
  8283.467
  0
LINE
  8
5
 10
 20907.656
 20
  8326.233
 11
 20887.756
 21
  8127.226
  0
LINE
  8
5
 10
   764.800
 20
  2580.000
 11
   828.300
 21
  2580.000
  0
LINE
  8
5
 10
   764.800
 20
  2580.000
 11
   828.300
 21
  2580.000
  0
LINE
  8
5
 10
  1630.102
 20
  7648.293
 11
  1636.420
 21
  7585.108
  0
LINE
  8
5
 10
  4726.956
 20
  8239.368
 11
  4733.274
 21
  8176.184
  0
LINE
  8
5
 10
  7860.864
 20
  8459.922
 11
  7867.183
 21
  8396.737
  0
LINE
  8
5
 10
 10994.771
 20
  8680.475
 11
 11001.090
 21
  8617.290
  0
LINE
  8
5
 10
  1630.102
 20
  7648.293
 11
  1636.420
 21
  7585.108
  0
LINE
  8
5
 10
  4726.956
 20
  8239.368
 11
  4733.274
 21
  8176.184
  0
LINE
  8
5
 10
  7860.864
 20
  8459.922
 11
  7867.183
 21
  8396.737
  0
LINE
  8
5
 10
 10994.771
 20
  8680.475
 11
 11001.090
 21
  8617.290
  0
LINE
  8
5
 10
 11475.194
 20
  8680.477
 11
 11468.876
 21
  8617.293
  0
LINE
  8
5
 10
 14609.102
 20
  8459.925
 11
 14602.783
 21
  8396.740
  0
LINE
  8
5
 10
 17743.010
 20
  8239.372
 11
 17736.691
 21
  8176.188
  0
LINE
  8
5
 10
 20839.863
 20
  7648.300
 11
 20833.545
 21
  7585.115
  0
LINE
  8
5
 10
 11475.194
 20
  8680.477
 11
 11468.876
 21
  8617.293
  0
LINE
  8
5
 10
 14609.102
 20
  8459.925
 11
 14602.783
 21
  8396.740
  0
LINE
  8
5
 10
 17743.010
 20
  8239.372
 11
 17736.691
 21
  8176.188
  0
LINE
  8
5
 10
 20839.863
 20
  7648.300
 11
 20833.545
 21
  7585.115
  0
LINE
  8
5
 10
 21705.201
 20
  2580.000
 11
 21641.701
 21
  2580.000
  0
LINE
  8
5
 10
 21705.201
 20
  2580.000
 11
 21641.701
 21
  2580.000
  0
LINE
  8
1
 10
   942.000
 20
  5634.000
 11
  1400.000
 21
  5634.000
  0
LINE
  8
1
 10
   942.000
 20
  5626.000
 11
  1400.000
 21
  5626.000
  0
LINE
  8
1
 10
  1400.000
 20
  5634.000
 11
  1400.000
 21
  5268.000
  0
LINE
  8
1
 10
  1400.000
 20
  5268.000
 11
   942.000
 21
  5268.000
  0
LINE
  8
1
 10
  1400.000
 20
  5276.000
 11
   942.000
 21
  5276.000
  0
LINE
  8
1
 10
 21528.000
 20
  5634.000
 11
 21175.000
 21
  5634.000
  0
LINE
  8
1
 10
 21528.000
 20
  5626.000
 11
 21175.000
 21
  5626.000
  0
LINE
  8
1
 10
 21175.000
 20
  5634.000
 11
 21175.000
 21
  5268.000
  0
LINE
  8
1
 10
 21175.000
 20
  5268.000
 11
 21528.000
 21
  5268.000
  0
LINE
  8
1
 10
 21175.000
 20
  5276.000
 11
 21528.000
 21
  5276.000
  0
LINE
  8
1
 10
   336.000
 20
  5274.000
 11
   936.000
 21
  5274.000
  0
LINE
  8
1
 10
   336.000
 20
  5268.000
 11
   936.000
 21
  5268.000
  0
LINE
  8
1
 10
   336.000
 20
  5274.000
 11
   336.000
 21
  5268.000
  0
LINE
  8
1
 10
   936.000
 20
  5274.000
 11
   936.000
 21
  5268.000
  0
LINE
  8
1
 10
   336.000
 20
  5634.000
 11
   936.000
 21
  5634.000
  0
LINE
  8
1
 10
   336.000
 20
  5628.000
 11
   936.000
 21
  5628.000
  0
LINE
  8
1
 10
   336.000
 20
  5634.000
 11
   336.000
 21
  5628.000
  0
LINE
  8
1
 10
   936.000
 20
  5634.000
 11
   936.000
 21
  5628.000
  0
LINE
  8
1
 10
   236.000
 20
  5850.000
 11
   836.000
 21
  5850.000
  0
LINE
  8
1
 10
   236.000
 20
  5844.000
 11
   836.000
 21
  5844.000
  0
LINE
  8
1
 10
   236.000
 20
  5850.000
 11
   236.000
 21
  5844.000
  0
LINE
  8
1
 10
   836.000
 20
  5850.000
 11
   836.000
 21
  5844.000
  0
LINE
  8
17
 10
   223.650
 20
     0.000
 11
   236.350
 21
     0.000
  0
LINE
  8
17
 10
   230.000
 20
    -6.350
 11
   230.000
 21
     6.350
  0
LINE
  8
17
 10
   634.467
 20
     0.000
 11
   647.167
 21
     0.000
  0
LINE
  8
17
 10
   640.817
 20
    -6.350
 11
   640.817
 21
     6.350
  0
LINE
  8
17
 10
   935.650
 20
  7447.379
 11
   948.350
 21
  7447.379
  0
LINE
  8
17
 10
   942.000
 20
  7441.029
 11
   942.000
 21
  7453.729
  0
LINE
  8
17
 10
   223.650
 20
  7447.379
 11
   236.350
 21
  7447.379
  0
LINE
  8
17
 10
   230.000
 20
  7441.029
 11
   230.000
 21
  7453.729
  0
LINE
  8
1
 10
   886.263
 20
  8020.898
 11
   941.985
 21
  7463.678
  0
LINE
  8
1
 10
   880.293
 20
  8020.302
 11
   936.015
 21
  7463.081
  0
LINE
  8
1
 10
   886.263
 20
  8020.898
 11
   880.293
 21
  8020.302
  0
LINE
  8
1
 10
   941.985
 20
  7463.678
 11
   936.015
 21
  7463.081
  0
LINE
  8
17
 10
   223.650
 20
  7447.379
 11
   236.350
 21
  7447.379
  0
LINE
  8
17
 10
   230.000
 20
  7441.029
 11
   230.000
 21
  7453.729
  0
LINE
  8
17
 10
  1029.650
 20
  7447.379
 11
  1042.350
 21
  7447.379
  0
LINE
  8
17
 10
  1036.000
 20
  7441.029
 11
  1036.000
 21
  7453.729
  0
LINE
  8
17
 10
  4428.335
 20
  8147.113
 11
  4441.036
 21
  8147.113
  0
LINE
  8
17
 10
  4434.686
 20
  8140.763
 11
  4434.686
 21
  8153.463
  0
LINE
  8
17
 10
  4402.062
 20
  8409.843
 11
  4414.763
 21
  8409.843
  0
LINE
  8
17
 10
  4408.413
 20
  8403.493
 11
  4408.413
 21
  8416.193
  0
LINE
  8
17
 10
   223.650
 20
  7992.002
 11
   236.350
 21
  7992.002
  0
LINE
  8
17
 10
   230.000
 20
  7985.652
 11
   230.000
 21
  7998.352
  0
LINE
  8
17
 10
  4402.162
 20
  8408.848
 11
  4414.862
 21
  8408.848
  0
LINE
  8
17
 10
  4408.512
 20
  8402.498
 11
  4408.512
 21
  8415.198
  0
LINE
  8
17
 10
  4428.033
 20
  8150.137
 11
  4440.733
 21
  8150.137
  0
LINE
  8
17
 10
  4434.383
 20
  8143.787
 11
  4434.383
 21
  8156.486
  0
LINE
  8
17
 10
 11228.650
 20
  8628.740
 11
 11241.351
 21
  8628.740
  0
LINE
  8
17
 10
 11235.000
 20
  8622.390
 11
 11235.000
 21
  8635.090
  0
LINE
  8
17
 10
 11228.650
 20
  9091.498
 11
 11241.351
 21
  9091.498
  0
LINE
  8
17
 10
 11235.000
 20
  9085.147
 11
 11235.000
 21
  9097.848
  0
LINE
  8
17
 10
 11228.650
 20
  9091.498
 11
 11241.351
 21
  9091.498
  0
LINE
  8
17
 10
 11235.000
 20
  9085.147
 11
 11235.000
 21
  9097.848
  0
LINE
  8
17
 10
 11228.650
 20
  8628.740
 11
 11241.351
 21
  8628.740
  0
LINE
  8
17
 10
 11235.000
 20
  8622.390
 11
 11235.000
 21
  8635.090
  0
LINE
  8
17
 10
 18029.230
 20
  8150.141
 11
 18041.932
 21
  8150.141
  0
LINE
  8
17
 10
 18035.580
 20
  8143.791
 11
 18035.580
 21
  8156.490
  0
LINE
  8
17
 10
 18055.102
 20
  8408.852
 11
 18067.803
 21
  8408.852
  0
LINE
  8
17
 10
 18061.453
 20
  8402.502
 11
 18061.453
 21
  8415.202
  0
LINE
  8
1
 10
 21589.709
 20
  8020.302
 11
 21533.986
 21
  7463.081
  0
LINE
  8
1
 10
 21583.736
 20
  8020.898
 11
 21528.014
 21
  7463.678
  0
LINE
  8
1
 10
 21589.709
 20
  8020.302
 11
 21583.736
 21
  8020.898
  0
LINE
  8
1
 10
 21533.986
 20
  7463.081
 11
 21528.014
 21
  7463.678
  0
LINE
  8
17
 10
 18055.201
 20
  8409.847
 11
 18067.902
 21
  8409.847
  0
LINE
  8
17
 10
 18061.551
 20
  8403.497
 11
 18061.551
 21
  8416.197
  0
LINE
  8
17
 10
 18028.930
 20
  8147.117
 11
 18041.629
 21
  8147.117
  0
LINE
  8
17
 10
 18035.279
 20
  8140.767
 11
 18035.279
 21
  8153.466
  0
LINE
  8
17
 10
 21427.650
 20
  7447.379
 11
 21440.350
 21
  7447.379
  0
LINE
  8
17
 10
 21434.000
 20
  7441.029
 11
 21434.000
 21
  7453.729
  0
LINE
  8
17
 10
 22233.650
 20
  7447.379
 11
 22246.350
 21
  7447.379
  0
LINE
  8
17
 10
 22240.000
 20
  7441.029
 11
 22240.000
 21
  7453.729
  0
LINE
  8
17
 10
 22233.650
 20
  7992.002
 11
 22246.350
 21
  7992.002
  0
LINE
  8
17
 10
 22240.000
 20
  7985.652
 11
 22240.000
 21
  7998.352
  0
LINE
  8
1
 10
 22134.000
 20
  5274.000
 11
 21534.000
 21
  5274.000
  0
LINE
  8
1
 10
 22134.000
 20
  5268.000
 11
 21534.000
 21
  5268.000
  0
LINE
  8
1
 10
 22134.000
 20
  5274.000
 11
 22134.000
 21
  5268.000
  0
LINE
  8
1
 10
 21534.000
 20
  5274.000
 11
 21534.000
 21
  5268.000
  0
LINE
  8
1
 10
 22134.000
 20
  5634.000
 11
 21534.000
 21
  5634.000
  0
LINE
  8
1
 10
 22134.000
 20
  5628.000
 11
 21534.000
 21
  5628.000
  0
LINE
  8
1
 10
 22134.000
 20
  5634.000
 11
 22134.000
 21
  5628.000
  0
LINE
  8
1
 10
 21534.000
 20
  5634.000
 11
 21534.000
 21
  5628.000
  0
LINE
  8
1
 10
 22234.000
 20
  5850.000
 11
 21634.000
 21
  5850.000
  0
LINE
  8
1
 10
 22234.000
 20
  5844.000
 11
 21634.000
 21
  5844.000
  0
LINE
  8
1
 10
 22234.000
 20
  5850.000
 11
 22234.000
 21
  5844.000
  0
LINE
  8
1
 10
 21634.000
 20
  5850.000
 11
 21634.000
 21
  5844.000
  0
LINE
  8
17
 10
 22233.650
 20
  7447.379
 11
 22246.350
 21
  7447.379
  0
LINE
  8
17
 10
 22240.000
 20
  7441.029
 11
 22240.000
 21
  7453.729
  0
LINE
  8
17
 10
 21521.650
 20
  7447.379
 11
 21534.350
 21
  7447.379
  0
LINE
  8
17
 10
 21528.000
 20
  7441.029
 11
 21528.000
 21
  7453.729
  0
LINE
  8
17
 10
 21822.834
 20
     0.000
 11
 21835.533
 21
     0.000
  0
LINE
  8
17
 10
 21829.184
 20
    -6.350
 11
 21829.184
 21
     6.350
  0
LINE
  8
17
 10
 22233.650
 20
     0.000
 11
 22246.350
 21
     0.000
  0
LINE
  8
17
 10
 22240.000
 20
    -6.350
 11
 22240.000
 21
     6.350
  0
LINE
  8
5
 10
  1562.308
 20
  8326.230
 11
  1582.209
 21
  8127.223
  0
LINE
  8
5
 10
  3124.715
 20
  8482.472
 11
  3144.616
 21
  8283.464
  0
LINE
  8
5
 10
  4687.023
 20
  8638.702
 11
  4706.924
 21
  8439.694
  0
LINE
  8
5
 10
  6249.431
 20
  8794.943
 11
  6269.332
 21
  8595.936
  0
LINE
  8
5
 10
  7811.739
 20
  8951.174
 11
  7831.641
 21
  8752.166
  0
LINE
  8
5
 10
  9374.146
 20
  9107.414
 11
  9394.048
 21
  8908.407
  0
LINE
  8
5
 10
 10936.454
 20
  9263.646
 11
 10956.355
 21
  9064.638
  0
LINE
  8
5
 10
 11533.512
 20
  9263.648
 11
 11513.610
 21
  9064.642
  0
LINE
  8
5
 10
 13095.819
 20
  9107.418
 11
 13075.918
 21
  8908.410
  0
LINE
  8
5
 10
 14658.228
 20
  8951.177
 11
 14638.326
 21
  8752.170
  0
LINE
  8
5
 10
 16220.535
 20
  8794.946
 11
 16200.634
 21
  8595.938
  0
LINE
  8
5
 10
 17782.941
 20
  8638.705
 11
 17763.041
 21
  8439.698
  0
LINE
  8
5
 10
 19345.250
 20
  8482.475
 11
 19325.350
 21
  8283.467
  0
LINE
  8
5
 10
 20907.656
 20
  8326.233
 11
 20887.756
 21
  8127.226
  0
LINE
  8
5
 10
   764.800
 20
  2580.000
 11
   828.300
 21
  2580.000
  0
LINE
  8
5
 10
   764.800
 20
  2580.000
 11
   828.300
 21
  2580.000
  0
LINE
  8
5
 10
  1630.102
 20
  7648.293
 11
  1636.420
 21
  7585.108
  0
LINE
  8
5
 10
  4726.956
 20
  8239.368
 11
  4733.274
 21
  8176.184
  0
LINE
  8
5
 10
  7860.864
 20
  8459.922
 11
  7867.183
 21
  8396.737
  0
LINE
  8
5
 10
 10994.771
 20
  8680.475
 11
 11001.090
 21
  8617.290
  0
LINE
  8
5
 10
  1630.102
 20
  7648.293
 11
  1636.420
 21
  7585.108
  0
LINE
  8
5
 10
  4726.956
 20
  8239.368
 11
  4733.274
 21
  8176.184
  0
LINE
  8
5
 10
  7860.864
 20
  8459.922
 11
  7867.183
 21
  8396.737
  0
LINE
  8
5
 10
 10994.771
 20
  8680.475
 11
 11001.090
 21
  8617.290
  0
LINE
  8
5
 10
 11475.194
 20
  8680.477
 11
 11468.876
 21
  8617.293
  0
LINE
  8
5
 10
 14609.102
 20
  8459.925
 11
 14602.783
 21
  8396.740
  0
LINE
  8
5
 10
 17743.010
 20
  8239.372
 11
 17736.691
 21
  8176.188
  0
LINE
  8
5
 10
 20839.863
 20
  7648.300
 11
 20833.545
 21
  7585.115
  0
LINE
  8
5
 10
 11475.194
 20
  8680.477
 11
 11468.876
 21
  8617.293
  0
LINE
  8
5
 10
 14609.102
 20
  8459.925
 11
 14602.783
 21
  8396.740
  0
LINE
  8
5
 10
 17743.010
 20
  8239.372
 11
 17736.691
 21
  8176.188
  0
LINE
  8
5
 10
 20839.863
 20
  7648.300
 11
 20833.545
 21
  7585.115
  0
LINE
  8
5
 10
 21705.201
 20
  2580.000
 11
 21641.701
 21
  2580.000
  0
LINE
  8
5
 10
 21705.201
 20
  2580.000
 11
 21641.701
 21
  2580.000
  0
LINE
  8
1
 10
   942.000
 20
  5634.000
 11
  1400.000
 21
  5634.000
  0
LINE
  8
1
 10
   942.000
 20
  5626.000
 11
  1400.000
 21
  5626.000
  0
LINE
  8
1
 10
  1400.000
 20
  5634.000
 11
  1400.000
 21
  5268.000
  0
LINE
  8
1
 10
  1400.000
 20
  5268.000
 11
   942.000
 21
  5268.000
  0
LINE
  8
1
 10
  1400.000
 20
  5276.000
 11
   942.000
 21
  5276.000
  0
LINE
  8
1
 10
 21528.000
 20
  5634.000
 11
 21175.000
 21
  5634.000
  0
LINE
  8
1
 10
 21528.000
 20
  5626.000
 11
 21175.000
 21
  5626.000
  0
LINE
  8
1
 10
 21175.000
 20
  5634.000
 11
 21175.000
 21
  5268.000
  0
LINE
  8
1
 10
 21175.000
 20
  5268.000
 11
 21528.000
 21
  5268.000
  0
LINE
  8
1
 10
 21175.000
 20
  5276.000
 11
 21528.000
 21
  5276.000
  0
LINE
  8
1
 10
   336.000
 20
  5274.000
 11
   936.000
 21
  5274.000
  0
LINE
  8
1
 10
   336.000
 20
  5268.000
 11
   936.000
 21
  5268.000
  0
LINE
  8
1
 10
   336.000
 20
  5274.000
 11
   336.000
 21
  5268.000
  0
LINE
  8
1
 10
   936.000
 20
  5274.000
 11
   936.000
 21
  5268.000
  0
LINE
  8
1
 10
   336.000
 20
  5634.000
 11
   936.000
 21
  5634.000
  0
LINE
  8
1
 10
   336.000
 20
  5628.000
 11
   936.000
 21
  5628.000
  0
LINE
  8
1
 10
   336.000
 20
  5634.000
 11
   336.000
 21
  5628.000
  0
LINE
  8
1
 10
   936.000
 20
  5634.000
 11
   936.000
 21
  5628.000
  0
LINE
  8
1
 10
   236.000
 20
  5850.000
 11
   836.000
 21
  5850.000
  0
LINE
  8
1
 10
   236.000
 20
  5844.000
 11
   836.000
 21
  5844.000
  0
LINE
  8
1
 10
   236.000
 20
  5850.000
 11
   236.000
 21
  5844.000
  0
LINE
  8
1
 10
   836.000
 20
  5850.000
 11
   836.000
 21
  5844.000
  0
LINE
  8
17
 10
   223.650
 20
     0.000
 11
   236.350
 21
     0.000
  0
LINE
  8
17
 10
   230.000
 20
    -6.350
 11
   230.000
 21
     6.350
  0
LINE
  8
17
 10
   634.467
 20
     0.000
 11
   647.167
 21
     0.000
  0
LINE
  8
17
 10
   640.817
 20
    -6.350
 11
   640.817
 21
     6.350
  0
LINE
  8
17
 10
   935.650
 20
  7447.379
 11
   948.350
 21
  7447.379
  0
LINE
  8
17
 10
   942.000
 20
  7441.029
 11
   942.000
 21
  7453.729
  0
LINE
  8
17
 10
   223.650
 20
  7447.379
 11
   236.350
 21
  7447.379
  0
LINE
  8
17
 10
   230.000
 20
  7441.029
 11
   230.000
 21
  7453.729
  0
LINE
  8
1
 10
   886.263
 20
  8020.898
 11
   941.985
 21
  7463.678
  0
LINE
  8
1
 10
   880.293
 20
  8020.302
 11
   936.015
 21
  7463.081
  0
LINE
  8
1
 10
   886.263
 20
  8020.898
 11
   880.293
 21
  8020.302
  0
LINE
  8
1
 10
   941.985
 20
  7463.678
 11
   936.015
 21
  7463.081
  0
LINE
  8
17
 10
   223.650
 20
  7447.379
 11
   236.350
 21
  7447.379
  0
LINE
  8
17
 10
   230.000
 20
  7441.029
 11
   230.000
 21
  7453.729
  0
LINE
  8
17
 10
  1029.650
 20
  7447.379
 11
  1042.350
 21
  7447.379
  0
LINE
  8
17
 10
  1036.000
 20
  7441.029
 11
  1036.000
 21
  7453.729
  0
LINE
  8
17
 10
  4428.335
 20
  8147.113
 11
  4441.036
 21
  8147.113
  0
LINE
  8
17
 10
  4434.686
 20
  8140.763
 11
  4434.686
 21
  8153.463
  0
LINE
  8
17
 10
  4402.062
 20
  8409.843
 11
  4414.763
 21
  8409.843
  0
LINE
  8
17
 10
  4408.413
 20
  8403.493
 11
  4408.413
 21
  8416.193
  0
LINE
  8
17
 10
   223.650
 20
  7992.002
 11
   236.350
 21
  7992.002
  0
LINE
  8
17
 10
   230.000
 20
  7985.652
 11
   230.000
 21
  7998.352
  0
LINE
  8
17
 10
  4402.162
 20
  8408.848
 11
  4414.862
 21
  8408.848
  0
LINE
  8
17
 10
  4408.512
 20
  8402.498
 11
  4408.512
 21
  8415.198
  0
LINE
  8
17
 10
  4428.033
 20
  8150.137
 11
  4440.733
 21
  8150.137
  0
LINE
  8
17
 10
  4434.383
 20
  8143.787
 11
  4434.383
 21
  8156.486
  0
LINE
  8
17
 10
 11228.650
 20
  8628.740
 11
 11241.351
 21
  8628.740
  0
LINE
  8
17
 10
 11235.000
 20
  8622.390
 11
 11235.000
 21
  8635.090
  0
LINE
  8
17
 10
 11228.650
 20
  9091.498
 11
 11241.351
 21
  9091.498
  0
LINE
  8
17
 10
 11235.000
 20
  9085.147
 11
 11235.000
 21
  9097.848
  0
LINE
  8
17
 10
 11228.650
 20
  9091.498
 11
 11241.351
 21
  9091.498
  0
LINE
  8
17
 10
 11235.000
 20
  9085.147
 11
 11235.000
 21
  9097.848
  0
LINE
  8
17
 10
 11228.650
 20
  8628.740
 11
 11241.351
 21
  8628.740
  0
LINE
  8
17
 10
 11235.000
 20
  8622.390
 11
 11235.000
 21
  8635.090
  0
LINE
  8
17
 10
 18029.230
 20
  8150.141
 11
 18041.932
 21
  8150.141
  0
LINE
  8
17
 10
 18035.580
 20
  8143.791
 11
 18035.580
 21
  8156.490
  0
LINE
  8
17
 10
 18055.102
 20
  8408.852
 11
 18067.803
 21
  8408.852
  0
LINE
  8
17
 10
 18061.453
 20
  8402.502
 11
 18061.453
 21
  8415.202
  0
LINE
  8
1
 10
 21589.709
 20
  8020.302
 11
 21533.986
 21
  7463.081
  0
LINE
  8
1
 10
 21583.736
 20
  8020.898
 11
 21528.014
 21
  7463.678
  0
LINE
  8
1
 10
 21589.709
 20
  8020.302
 11
 21583.736
 21
  8020.898
  0
LINE
  8
1
 10
 21533.986
 20
  7463.081
 11
 21528.014
 21
  7463.678
  0
LINE
  8
17
 10
 18055.201
 20
  8409.847
 11
 18067.902
 21
  8409.847
  0
LINE
  8
17
 10
 18061.551
 20
  8403.497
 11
 18061.551
 21
  8416.197
  0
LINE
  8
17
 10
 18028.930
 20
  8147.117
 11
 18041.629
 21
  8147.117
  0
LINE
  8
17
 10
 18035.279
 20
  8140.767
 11
 18035.279
 21
  8153.466
  0
LINE
  8
17
 10
 21427.650
 20
  7447.379
 11
 21440.350
 21
  7447.379
  0
LINE
  8
17
 10
 21434.000
 20
  7441.029
 11
 21434.000
 21
  7453.729
  0
LINE
  8
17
 10
 22233.650
 20
  7447.379
 11
 22246.350
 21
  7447.379
  0
LINE
  8
17
 10
 22240.000
 20
  7441.029
 11
 22240.000
 21
  7453.729
  0
LINE
  8
17
 10
 22233.650
 20
  7992.002
 11
 22246.350
 21
  7992.002
  0
LINE
  8
17
 10
 22240.000
 20
  7985.652
 11
 22240.000
 21
  7998.352
  0
LINE
  8
1
 10
 22134.000
 20
  5274.000
 11
 21534.000
 21
  5274.000
  0
LINE
  8
1
 10
 22134.000
 20
  5268.000
 11
 21534.000
 21
  5268.000
  0
LINE
  8
1
 10
 22134.000
 20
  5274.000
 11
 22134.000
 21
  5268.000
  0
LINE
  8
1
 10
 21534.000
 20
  5274.000
 11
 21534.000
 21
  5268.000
  0
LINE
  8
1
 10
 22134.000
 20
  5634.000
 11
 21534.000
 21
  5634.000
  0
LINE
  8
1
 10
 22134.000
 20
  5628.000
 11
 21534.000
 21
  5628.000
  0
LINE
  8
1
 10
 22134.000
 20
  5634.000
 11
 22134.000
 21
  5628.000
  0
LINE
  8
1
 10
 21534.000
 20
  5634.000
 11
 21534.000
 21
  5628.000
  0
LINE
  8
1
 10
 22234.000
 20
  5850.000
 11
 21634.000
 21
  5850.000
  0
LINE
  8
1
 10
 22234.000
 20
  5844.000
 11
 21634.000
 21
  5844.000
  0
LINE
  8
1
 10
 22234.000
 20
  5850.000
 11
 22234.000
 21
  5844.000
  0
LINE
  8
1
 10
 21634.000
 20
  5850.000
 11
 21634.000
 21
  5844.000
  0
LINE
  8
17
 10
 22233.650
 20
  7447.379
 11
 22246.350
 21
  7447.379
  0
LINE
  8
17
 10
 22240.000
 20
  7441.029
 11
 22240.000
 21
  7453.729
  0
LINE
  8
17
 10
 21521.650
 20
  7447.379
 11
 21534.350
 21
  7447.379
  0
LINE
  8
17
 10
 21528.000
 20
  7441.029
 11
 21528.000
 21
  7453.729
  0
LINE
  8
17
 10
 21822.834
 20
     0.000
 11
 21835.533
 21
     0.000
  0
LINE
  8
17
 10
 21829.184
 20
    -6.350
 11
 21829.184
 21
     6.350
  0
LINE
  8
17
 10
 22233.650
 20
     0.000
 11
 22246.350
 21
     0.000
  0
LINE
  8
17
 10
 22240.000
 20
    -6.350
 11
 22240.000
 21
     6.350
  0
LINE
  8
5
 10
  1562.308
 20
  8326.230
 11
  1582.209
 21
  8127.223
  0
LINE
  8
5
 10
  3124.715
 20
  8482.472
 11
  3144.616
 21
  8283.464
  0
LINE
  8
5
 10
  4687.023
 20
  8638.702
 11
  4706.924
 21
  8439.694
  0
LINE
  8
5
 10
  6249.431
 20
  8794.943
 11
  6269.332
 21
  8595.936
  0
LINE
  8
5
 10
  7811.739
 20
  8951.174
 11
  7831.641
 21
  8752.166
  0
LINE
  8
5
 10
  9374.146
 20
  9107.414
 11
  9394.048
 21
  8908.407
  0
LINE
  8
5
 10
 10936.454
 20
  9263.646
 11
 10956.355
 21
  9064.638
  0
LINE
  8
5
 10
 11533.512
 20
  9263.648
 11
 11513.610
 21
  9064.642
  0
LINE
  8
5
 10
 13095.819
 20
  9107.418
 11
 13075.918
 21
  8908.410
  0
LINE
  8
5
 10
 14658.228
 20
  8951.177
 11
 14638.326
 21
  8752.170
  0
LINE
  8
5
 10
 16220.535
 20
  8794.946
 11
 16200.634
 21
  8595.938
  0
LINE
  8
5
 10
 17782.941
 20
  8638.705
 11
 17763.041
 21
  8439.698
  0
LINE
  8
5
 10
 19345.250
 20
  8482.475
 11
 19325.350
 21
  8283.467
  0
LINE
  8
5
 10
 20907.656
 20
  8326.233
 11
 20887.756
 21
  8127.226
  0
LINE
  8
5
 10
   764.800
 20
  2580.000
 11
   828.300
 21
  2580.000
  0
LINE
  8
5
 10
   764.800
 20
  2580.000
 11
   828.300
 21
  2580.000
  0
LINE
  8
5
 10
  1630.102
 20
  7648.293
 11
  1636.420
 21
  7585.108
  0
LINE
  8
5
 10
  4726.956
 20
  8239.368
 11
  4733.274
 21
  8176.184
  0
LINE
  8
5
 10
  7860.864
 20
  8459.922
 11
  7867.183
 21
  8396.737
  0
LINE
  8
5
 10
 10994.771
 20
  8680.475
 11
 11001.090
 21
  8617.290
  0
LINE
  8
5
 10
  1630.102
 20
  7648.293
 11
  1636.420
 21
  7585.108
  0
LINE
  8
5
 10
  4726.956
 20
  8239.368
 11
  4733.274
 21
  8176.184
  0
LINE
  8
5
 10
  7860.864
 20
  8459.922
 11
  7867.183
 21
  8396.737
  0
LINE
  8
5
 10
 10994.771
 20
  8680.475
 11
 11001.090
 21
  8617.290
  0
LINE
  8
5
 10
 11475.194
 20
  8680.477
 11
 11468.876
 21
  8617.293
  0
LINE
  8
5
 10
 14609.102
 20
  8459.925
 11
 14602.783
 21
  8396.740
  0
LINE
  8
5
 10
 17743.010
 20
  8239.372
 11
 17736.691
 21
  8176.188
  0
LINE
  8
5
 10
 20839.863
 20
  7648.300
 11
 20833.545
 21
  7585.115
  0
LINE
  8
5
 10
 11475.194
 20
  8680.477
 11
 11468.876
 21
  8617.293
  0
LINE
  8
5
 10
 14609.102
 20
  8459.925
 11
 14602.783
 21
  8396.740
  0
LINE
  8
5
 10
 17743.010
 20
  8239.372
 11
 17736.691
 21
  8176.188
  0
LINE
  8
5
 10
 20839.863
 20
  7648.300
 11
 20833.545
 21
  7585.115
  0
LINE
  8
5
 10
 21705.201
 20
  2580.000
 11
 21641.701
 21
  2580.000
  0
LINE
  8
5
 10
 21705.201
 20
  2580.000
 11
 21641.701
 21
  2580.000
  0
LINE
  8
1
 10
   942.000
 20
  5634.000
 11
  1400.000
 21
  5634.000
  0
LINE
  8
1
 10
   942.000
 20
  5626.000
 11
  1400.000
 21
  5626.000
  0
LINE
  8
1
 10
  1400.000
 20
  5634.000
 11
  1400.000
 21
  5268.000
  0
LINE
  8
1
 10
  1400.000
 20
  5268.000
 11
   942.000
 21
  5268.000
  0
LINE
  8
1
 10
  1400.000
 20
  5276.000
 11
   942.000
 21
  5276.000
  0
LINE
  8
1
 10
 21528.000
 20
  5634.000
 11
 21175.000
 21
  5634.000
  0
LINE
  8
1
 10
 21528.000
 20
  5626.000
 11
 21175.000
 21
  5626.000
  0
LINE
  8
1
 10
 21175.000
 20
  5634.000
 11
 21175.000
 21
  5268.000
  0
LINE
  8
1
 10
 21175.000
 20
  5268.000
 11
 21528.000
 21
  5268.000
  0
LINE
  8
1
 10
 21175.000
 20
  5276.000
 11
 21528.000
 21
  5276.000
  0
LINE
  8
1
 10
   336.000
 20
  5274.000
 11
   936.000
 21
  5274.000
  0
LINE
  8
1
 10
   336.000
 20
  5268.000
 11
   936.000
 21
  5268.000
  0
LINE
  8
1
 10
   336.000
 20
  5274.000
 11
   336.000
 21
  5268.000
  0
LINE
  8
1
 10
   936.000
 20
  5274.000
 11
   936.000
 21
  5268.000
  0
LINE
  8
1
 10
   336.000
 20
  5634.000
 11
   936.000
 21
  5634.000
  0
LINE
  8
1
 10
   336.000
 20
  5628.000
 11
   936.000
 21
  5628.000
  0
LINE
  8
1
 10
   336.000
 20
  5634.000
 11
   336.000
 21
  5628.000
  0
LINE
  8
1
 10
   936.000
 20
  5634.000
 11
   936.000
 21
  5628.000
  0
LINE
  8
1
 10
   236.000
 20
  5850.000
 11
   836.000
 21
  5850.000
  0
LINE
  8
1
 10
   236.000
 20
  5844.000
 11
   836.000
 21
  5844.000
  0
LINE
  8
1
 10
   236.000
 20
  5850.000
 11
   236.000
 21
  5844.000
  0
LINE
  8
1
 10
   836.000
 20
  5850.000
 11
   836.000
 21
  5844.000
  0
LINE
  8
17
 10
   223.650
 20
     0.000
 11
   236.350
 21
     0.000
  0
LINE
  8
17
 10
   230.000
 20
    -6.350
 11
   230.000
 21
     6.350
  0
LINE
  8
17
 10
   634.467
 20
     0.000
 11
   647.167
 21
     0.000
  0
LINE
  8
17
 10
   640.817
 20
    -6.350
 11
   640.817
 21
     6.350
  0
LINE
  8
17
 10
   935.650
 20
  7447.379
 11
   948.350
 21
  7447.379
  0
LINE
  8
17
 10
   942.000
 20
  7441.029
 11
   942.000
 21
  7453.729
  0
LINE
  8
17
 10
   223.650
 20
  7447.379
 11
   236.350
 21
  7447.379
  0
LINE
  8
17
 10
   230.000
 20
  7441.029
 11
   230.000
 21
  7453.729
  0
LINE
  8
1
 10
   886.263
 20
  8020.898
 11
   941.985
 21
  7463.678
  0
LINE
  8
1
 10
   880.293
 20
  8020.302
 11
   936.015
 21
  7463.081
  0
LINE
  8
1
 10
   886.263
 20
  8020.898
 11
   880.293
 21
  8020.302
  0
LINE
  8
1
 10
   941.985
 20
  7463.678
 11
   936.015
 21
  7463.081
  0
LINE
  8
17
 10
   223.650
 20
  7447.379
 11
   236.350
 21
  7447.379
  0
LINE
  8
17
 10
   230.000
 20
  7441.029
 11
   230.000
 21
  7453.729
  0
LINE
  8
17
 10
  1029.650
 20
  7447.379
 11
  1042.350
 21
  7447.379
  0
LINE
  8
17
 10
  1036.000
 20
  7441.029
 11
  1036.000
 21
  7453.729
  0
LINE
  8
17
 10
  4428.335
 20
  8147.113
 11
  4441.036
 21
  8147.113
  0
LINE
  8
17
 10
  4434.686
 20
  8140.763
 11
  4434.686
 21
  8153.463
  0
LINE
  8
17
 10
  4402.062
 20
  8409.843
 11
  4414.763
 21
  8409.843
  0
LINE
  8
17
 10
  4408.413
 20
  8403.493
 11
  4408.413
 21
  8416.193
  0
LINE
  8
17
 10
   223.650
 20
  7992.002
 11
   236.350
 21
  7992.002
  0
LINE
  8
17
 10
   230.000
 20
  7985.652
 11
   230.000
 21
  7998.352
  0
LINE
  8
17
 10
  4402.162
 20
  8408.848
 11
  4414.862
 21
  8408.848
  0
LINE
  8
17
 10
  4408.512
 20
  8402.498
 11
  4408.512
 21
  8415.198
  0
LINE
  8
17
 10
  4428.033
 20
  8150.137
 11
  4440.733
 21
  8150.137
  0
LINE
  8
17
 10
  4434.383
 20
  8143.787
 11
  4434.383
 21
  8156.486
  0
LINE
  8
17
 10
 11228.650
 20
  8628.740
 11
 11241.351
 21
  8628.740
  0
LINE
  8
17
 10
 11235.000
 20
  8622.390
 11
 11235.000
 21
  8635.090
  0
LINE
  8
17
 10
 11228.650
 20
  9091.498
 11
 11241.351
 21
  9091.498
  0
LINE
  8
17
 10
 11235.000
 20
  9085.147
 11
 11235.000
 21
  9097.848
  0
LINE
  8
17
 10
 11228.650
 20
  9091.498
 11
 11241.351
 21
  9091.498
  0
LINE
  8
17
 10
 11235.000
 20
  9085.147
 11
 11235.000
 21
  9097.848
  0
LINE
  8
17
 10
 11228.650
 20
  8628.740
 11
 11241.351
 21
  8628.740
  0
LINE
  8
17
 10
 11235.000
 20
  8622.390
 11
 11235.000
 21
  8635.090
  0
LINE
  8
17
 10
 18029.230
 20
  8150.141
 11
 18041.932
 21
  8150.141
  0
LINE
  8
17
 10
 18035.580
 20
  8143.791
 11
 18035.580
 21
  8156.490
  0
LINE
  8
17
 10
 18055.102
 20
  8408.852
 11
 18067.803
 21
  8408.852
  0
LINE
  8
17
 10
 18061.453
 20
  8402.502
 11
 18061.453
 21
  8415.202
  0
LINE
  8
1
 10
 21589.709
 20
  8020.302
 11
 21533.986
 21
  7463.081
  0
LINE
  8
1
 10
 21583.736
 20
  8020.898
 11
 21528.014
 21
  7463.678
  0
LINE
  8
1
 10
 21589.709
 20
  8020.302
 11
 21583.736
 21
  8020.898
  0
LINE
  8
1
 10
 21533.986
 20
  7463.081
 11
 21528.014
 21
  7463.678
  0
LINE
  8
17
 10
 18055.201
 20
  8409.847
 11
 18067.902
 21
  8409.847
  0
LINE
  8
17
 10
 18061.551
 20
  8403.497
 11
 18061.551
 21
  8416.197
  0
LINE
  8
17
 10
 18028.930
 20
  8147.117
 11
 18041.629
 21
  8147.117
  0
LINE
  8
17
 10
 18035.279
 20
  8140.767
 11
 18035.279
 21
  8153.466
  0
LINE
  8
17
 10
 21427.650
 20
  7447.379
 11
 21440.350
 21
  7447.379
  0
LINE
  8
17
 10
 21434.000
 20
  7441.029
 11
 21434.000
 21
  7453.729
  0
LINE
  8
17
 10
 22233.650
 20
  7447.379
 11
 22246.350
 21
  7447.379
  0
LINE
  8
17
 10
 22240.000
 20
  7441.029
 11
 22240.000
 21
  7453.729
  0
LINE
  8
17
 10
 22233.650
 20
  7992.002
 11
 22246.350
 21
  7992.002
  0
LINE
  8
17
 10
 22240.000
 20
  7985.652
 11
 22240.000
 21
  7998.352
  0
LINE
  8
1
 10
 22134.000
 20
  5274.000
 11
 21534.000
 21
  5274.000
  0
LINE
  8
1
 10
 22134.000
 20
  5268.000
 11
 21534.000
 21
  5268.000
  0
LINE
  8
1
 10
 22134.000
 20
  5274.000
 11
 22134.000
 21
  5268.000
  0
LINE
  8
1
 10
 21534.000
 20
  5274.000
 11
 21534.000
 21
  5268.000
  0
LINE
  8
1
 10
 22134.000
 20
  5634.000
 11
 21534.000
 21
  5634.000
  0
LINE
  8
1
 10
 22134.000
 20
  5628.000
 11
 21534.000
 21
  5628.000
  0
LINE
  8
1
 10
 22134.000
 20
  5634.000
 11
 22134.000
 21
  5628.000
  0
LINE
  8
1
 10
 21534.000
 20
  5634.000
 11
 21534.000
 21
  5628.000
  0
LINE
  8
1
 10
 22234.000
 20
  5850.000
 11
 21634.000
 21
  5850.000
  0
LINE
  8
1
 10
 22234.000
 20
  5844.000
 11
 21634.000
 21
  5844.000
  0
LINE
  8
1
 10
 22234.000
 20
  5850.000
 11
 22234.000
 21
  5844.000
  0
LINE
  8
1
 10
 21634.000
 20
  5850.000
 11
 21634.000
 21
  5844.000
  0
LINE
  8
17
 10
 22233.650
 20
  7447.379
 11
 22246.350
 21
  7447.379
  0
LINE
  8
17
 10
 22240.000
 20
  7441.029
 11
 22240.000
 21
  7453.729
  0
LINE
  8
17
 10
 21521.650
 20
  7447.379
 11
 21534.350
 21
  7447.379
  0
LINE
  8
17
 10
 21528.000
 20
  7441.029
 11
 21528.000
 21
  7453.729
  0
LINE
  8
17
 10
 21822.834
 20
     0.000
 11
 21835.533
 21
     0.000
  0
LINE
  8
17
 10
 21829.184
 20
    -6.350
 11
 21829.184
 21
     6.350
  0
LINE
  8
17
 10
 22233.650
 20
     0.000
 11
 22246.350
 21
     0.000
  0
LINE
  8
17
 10
 22240.000
 20
    -6.350
 11
 22240.000
 21
     6.350
  0
LINE
  8
3
 10
  1200.000
 20
  5659.400
 11
  1200.000
 21
  5974.600
  0
LINE
  8
3
 10
  1100.000
 20
  5974.600
 11
  1300.000
 21
  5974.600
  0
LINE
  8
3
 10
  1100.000
 20
  5659.400
 11
  1300.000
 21
  5659.400
  0
LINE
  8
3
 10
 21375.000
 20
  5659.400
 11
 21375.000
 21
  5974.600
  0
LINE
  8
3
 10
 21275.000
 20
  5974.600
 11
 21475.000
 21
  5974.600
  0
LINE
  8
3
 10
 21275.000
 20
  5659.400
 11
 21475.000
 21
  5659.400
  0
LINE
  8
3
 10
  1200.000
 20
  6000.000
 11
  1200.000
 21
  6000.000
  0
LINE
  8
3
 10
 21375.000
 20
  6000.000
 11
 21375.000
 21
  6000.000
  0
LINE
  8
3
 10
  1200.000
 20
  6000.000
 11
 21375.000
 21
  6000.000
  0
LINE
  8
3
 10
 21375.000
 20
  6000.000
 11
  1200.000
 21
  6000.000
  0
TEXT
  8
16
 10
  -254.000
 20
  3406.190
 40
   127.000
  1
RF2-1
 50
    90.000
  0
TEXT
  8
16
 10
  1958.107
 20
  8621.077
 40
   127.000
  1
RF2-2
 50
     5.711
  0
TEXT
  8
16
 10
  7460.657
 20
  9170.327
 40
   127.000
  1
RF2-3
 50
     5.711
  0
TEXT
  8
16
 10
 14377.478
 20
  9233.514
 40
   127.000
  1
RF2-3
 50
    -5.711
  0
TEXT
  8
16
 10
 19880.027
 20
  8684.264
 40
   127.000
  1
RF2-2
 50
    -5.711
  0
TEXT
  8
16
 10
 22724.000
 20
  4041.190
 40
   127.000
  1
RF2-4
 50
   -90.000
  0
LINE
  8
0
 10
 -1402.900
 20
 -4768.333
 11
 23872.900
 21
 -4768.333
  0
LINE
  8
0
 10
 23872.900
 20
 -4768.333
 11
 23872.900
 21
 14188.517
  0
LINE
  8
0
 10
 23872.900
 20
 14188.517
 11
 -1402.900
 21
 14188.517
  0
LINE
  8
0
 10
 -1402.900
 20
 14188.517
 11
 -1402.900
 21
 -4768.333
  0
LINE
  8
0
 10
 -1402.900
 20
 -4142.757
 11
 23872.900
 21
 -4142.757
  0
TEXT
  8
0
 10
  6438.917
 20
 -4664.071
 40
   417.051
  1
Rigid Frame Detailing 2
 50
     0.000
  0
TEXT
  8
0
 10
 -1194.375
 20
 -4664.071
 40
   417.051
  1
C323-153
 50
     0.000
  0
TEXT
  8
0
 10
 19076.818
 20
 -4664.071
 40
   417.051
  1
23/JUL/2025
 50
     0.000
  0
ENDSEC
  0
EOF
