  0
SECTION
  2
HEADER
  9
$ACADVER
  1
AC1009
  9
$EXTMIN
 10
 -1385.124
 20
 -4741.585
  9
$EXTMAX
 10
 23855.125
 20
 14188.602
  9
$LIMMIN
 10
 -1385.124
 20
 -4741.585
  9
$LIMMAX
 10
 23855.125
 20
 14188.602
  9
$FILLMODE
 70
     1
  9
$HANDLING
 70
     0
  0
ENDSEC
  0
SECTION
  2
TABLES
  0
TABLE
  2
LTYPE
 70
1
  0
LTYPE
  2
CONTIN
 70
    64
  3
SOLID LINE
 72
    65
 73
     0
 40
0.0
  0
LTYPE
  2
CONTINUOUS
 70
    64
  3
SOLID LINE
 72
    65
 73
     0
 40
0.0
  0
LTYPE
  2
CENTER
 70
    64
  3
____ _ ____ _ ____ _ ____ _ ____ _ ____ _ ____
 72
    65
 73
     4
 40
  2355.680
 49
  1472.300
 49
  -294.460
 49
   294.460
 49
  -294.460
  0
LTYPE
  2
DASHED
 70
    64
  3
__ __ __ __ __ __ __ __ __ __ __ __ __ __ __ 
 72
    65
 73
     2
 40
   302.88
 49
   201.92
 49
  -100.96
  0
ENDTAB
  0
TABLE
  2
LAYER
 70
30
  0
LAYER
  2
0
 70
     0
 62
     7
  6
CONTIN
  0
LAYER
  2
1
 70
     0
 62
     7
  6
CONTIN
  0
LAYER
  2
2
 70
     0
 62
     7
  6
CONTIN
  0
LAYER
  2
3
 70
     0
 62
     7
  6
CONTIN
  0
LAYER
  2
4
 70
     0
 62
     5
  6
CONTIN
  0
LAYER
  2
5
 70
     0
 62
     5
  6
DASHED
  0
LAYER
  2
6
 70
     0
 62
     5
  6
DASHED
  0
LAYER
  2
7
 70
     0
 62
     5
  6
CONTIN
  0
LAYER
  2
8
 70
     0
 62
     5
  6
DASHED
  0
LAYER
  2
9
 70
     0
 62
     7
  6
CONTIN
  0
LAYER
  2
10
 70
     0
 62
     7
  6
CONTIN
  0
LAYER
  2
11
 70
     0
 62
     6
  6
DASHED
  0
LAYER
  2
12
 70
     0
 62
     7
  6
DASHED
  0
LAYER
  2
13
 70
     0
 62
     5
  6
DASHED
  0
LAYER
  2
14
 70
     0
 62
     7
  6
CONTIN
  0
LAYER
  2
15
 70
     0
 62
     5
  6
CONTIN
  0
LAYER
  2
16
 70
     0
 62
     7
  6
CONTIN
  0
LAYER
  2
17
 70
     0
 62
     7
  6
CONTIN
  0
LAYER
  2
18
 70
     0
 62
     7
  6
CONTIN
  0
LAYER
  2
19
 70
     0
 62
     7
  6
CONTIN
  0
LAYER
  2
20
 70
     0
 62
     1
  6
CONTIN
  0
LAYER
  2
21
 70
     0
 62
     7
  6
CONTIN
  0
LAYER
  2
22
 70
     0
 62
     7
  6
DASHED
  0
LAYER
  2
23
 70
     0
 62
     7
  6
DASHED
  0
LAYER
  2
24
 70
     0
 62
     7
  6
CONTIN
  0
LAYER
  2
25
 70
     0
 62
     7
  6
CONTIN
  0
LAYER
  2
26
 70
     0
 62
     7
  6
CONTIN
  0
LAYER
  2
27
 70
     0
 62
     1
  6
CENTER
  0
LAYER
  2
28
 70
     0
 62
     7
  6
CONTIN
  0
LAYER
  2
29
 70
     0
 62
     3
  6
DASHED
  0
ENDTAB
  0
TABLE
  2
STYLE
 70
  0
  0
ENDTAB
  0
ENDSEC
  0
SECTION
  2
ENTITIES
  0
LINE
  8
1
 10
   236.000
 20
     0.000
 11
   636.000
 21
     0.000
  0
LINE
  8
1
 10
   236.000
 20
     0.000
 11
   236.000
 21
  7987.577
  0
LINE
  8
1
 10
   636.000
 20
     0.000
 11
   936.001
 21
  4000.000
  0
LINE
  8
1
 10
   936.001
 20
  4000.000
 11
   936.000
 21
  7655.583
  0
LINE
  8
1
 10
   236.000
 20
  7987.577
 11
 11235.000
 21
  9087.478
  0
LINE
  8
1
 10
   936.000
 20
  7655.583
 11
  4527.917
 21
  8115.272
  0
LINE
  8
1
 10
  4527.917
 20
  8115.272
 11
  8698.117
 21
  8532.293
  0
LINE
  8
1
 10
  8698.117
 20
  8532.293
 11
 11235.000
 21
  8534.734
  0
LINE
  8
1
 10
 11235.000
 20
  9087.478
 11
 22234.000
 21
  7987.577
  0
LINE
  8
1
 10
 11235.000
 20
  8534.734
 11
 13771.846
 21
  8532.296
  0
LINE
  8
1
 10
 13771.846
 20
  8532.296
 11
 17942.047
 21
  8115.276
  0
LINE
  8
1
 10
 17942.047
 20
  8115.276
 11
 21534.002
 21
  7655.583
  0
LINE
  8
1
 10
 22234.000
 20
  7987.577
 11
 22234.000
 21
     0.000
  0
LINE
  8
1
 10
 21534.002
 20
  7655.583
 11
 21534.002
 21
  4000.000
  0
LINE
  8
1
 10
 21534.002
 20
  4000.000
 11
 21834.002
 21
     0.000
  0
LINE
  8
1
 10
   236.000
 20
     0.000
 11
   636.000
 21
     0.000
  0
LINE
  8
1
 10
 22234.000
 20
     0.000
 11
 21834.002
 21
     0.000
  0
TEXT
  8
16
 10
  -237.839
 20
  2000.000
 40
   121.920
  1
M1
 50
     0.000
  0
TEXT
  8
16
 10
  -237.839
 20
  5993.789
 40
   121.920
  1
M2
 50
     0.000
  0
TEXT
  8
16
 10
  2322.869
 20
  8642.318
 40
   121.920
  1
M3
 50
     0.000
  0
TEXT
  8
16
 10
  6539.002
 20
  9063.932
 40
   121.920
  1
M4
 50
     0.000
  0
TEXT
  8
16
 10
  9907.470
 20
  9400.778
 40
   121.920
  1
M5
 50
     0.000
  0
TEXT
  8
16
 10
 12562.513
 20
  9400.780
 40
   121.920
  1
M6
 50
     0.000
  0
TEXT
  8
16
 10
 15930.962
 20
  9063.935
 40
   121.920
  1
M7
 50
     0.000
  0
TEXT
  8
16
 10
 20147.113
 20
  8642.319
 40
   121.920
  1
M8
 50
     0.000
  0
TEXT
  8
16
 10
 22707.842
 20
  5993.789
 40
   121.920
  1
M9
 50
     0.000
  0
TEXT
  8
16
 10
 22707.842
 20
  2000.000
 40
   121.920
  1
M10
 50
     0.000
  0
TEXT
  8
16
 10
  1029.841
 20
  2000.000
 40
   121.920
  1
S1
 50
     0.000
  0
TEXT
  8
16
 10
  1179.840
 20
  5827.791
 40
   121.920
  1
S2
 50
     0.000
  0
TEXT
  8
16
 10
  2756.221
 20
  7642.798
 40
   121.920
  1
S3
 50
     0.000
  0
TEXT
  8
16
 10
  6637.280
 20
  8081.153
 40
   121.920
  1
S4
 50
     0.000
  0
TEXT
  8
16
 10
  9990.821
 20
  8290.884
 40
   121.920
  1
S5
 50
     0.000
  0
TEXT
  8
16
 10
 12479.160
 20
  8290.886
 40
   121.920
  1
S6
 50
     0.000
  0
TEXT
  8
16
 10
 15832.685
 20
  8081.156
 40
   121.920
  1
S7
 50
     0.000
  0
TEXT
  8
16
 10
 19713.762
 20
  7642.799
 40
   121.920
  1
S8
 50
     0.000
  0
TEXT
  8
16
 10
 21143.857
 20
  5827.791
 40
   121.920
  1
S9
 50
     0.000
  0
TEXT
  8
16
 10
 21293.857
 20
  2000.000
 40
   121.920
  1
S10
 50
     0.000
  0
LINE
  8
9
 10
   236.000
 20
  7655.583
 11
   936.000
 21
  7655.583
  0
LINE
  8
9
 10
   236.000
 20
  7625.102
 11
   236.000
 21
  7686.062
  0
LINE
  8
9
 10
   936.000
 20
  7625.102
 11
   936.000
 21
  7686.062
  0
LINE
  8
9
 10
   936.000
 20
  7625.102
 11
   236.000
 21
  7625.102
  0
LINE
  8
9
 10
   936.000
 20
  7686.062
 11
   236.000
 21
  7686.062
  0
TEXT
  8
16
 10
   954.197
 20
  7472.702
 40
   121.920
  1
SP1
 50
     0.000
  0
LINE
  8
9
 10
  4498.065
 20
  8413.784
 11
  4527.917
 21
  8115.272
  0
LINE
  8
9
 10
  4467.737
 20
  8410.751
 11
  4528.395
 21
  8416.816
  0
LINE
  8
9
 10
  4497.588
 20
  8112.239
 11
  4558.246
 21
  8118.305
  0
LINE
  8
9
 10
  4497.588
 20
  8112.239
 11
  4467.737
 21
  8410.751
  0
LINE
  8
9
 10
  4558.246
 20
  8118.305
 11
  4528.395
 21
  8416.816
  0
TEXT
  8
16
 10
  4546.114
 20
  7932.392
 40
   121.920
  1
SP2
 50
     0.000
  0
LINE
  8
9
 10
  8668.267
 20
  8830.805
 11
  8698.117
 21
  8532.293
  0
LINE
  8
9
 10
  8637.938
 20
  8827.771
 11
  8698.596
 21
  8833.837
  0
LINE
  8
9
 10
  8667.789
 20
  8529.260
 11
  8728.446
 21
  8535.326
  0
LINE
  8
9
 10
  8667.789
 20
  8529.260
 11
  8637.938
 21
  8827.771
  0
LINE
  8
9
 10
  8728.446
 20
  8535.326
 11
  8698.596
 21
  8833.837
  0
TEXT
  8
16
 10
  8716.314
 20
  8349.413
 40
   121.920
  1
SP3
 50
     0.000
  0
LINE
  8
9
 10
 13801.697
 20
  8830.808
 11
 13771.846
 21
  8532.296
  0
LINE
  8
9
 10
 13771.369
 20
  8833.841
 11
 13832.026
 21
  8827.774
  0
LINE
  8
9
 10
 13741.518
 20
  8535.329
 11
 13802.175
 21
  8529.264
  0
LINE
  8
9
 10
 13741.518
 20
  8535.329
 11
 13771.369
 21
  8833.841
  0
LINE
  8
9
 10
 13802.175
 20
  8529.264
 11
 13832.026
 21
  8827.774
  0
TEXT
  8
16
 10
 13753.648
 20
  8349.416
 40
   121.920
  1
SP4
 50
     0.000
  0
LINE
  8
9
 10
 17971.898
 20
  8413.787
 11
 17942.047
 21
  8115.276
  0
LINE
  8
9
 10
 17941.570
 20
  8416.820
 11
 18002.227
 21
  8410.754
  0
LINE
  8
9
 10
 17911.719
 20
  8118.309
 11
 17972.375
 21
  8112.243
  0
LINE
  8
9
 10
 17911.719
 20
  8118.309
 11
 17941.570
 21
  8416.820
  0
LINE
  8
9
 10
 17972.375
 20
  8112.243
 11
 18002.227
 21
  8410.754
  0
TEXT
  8
16
 10
 17923.850
 20
  7932.396
 40
   121.920
  1
SP5
 50
     0.000
  0
LINE
  8
9
 10
 22234.000
 20
  7655.583
 11
 21534.002
 21
  7655.583
  0
LINE
  8
9
 10
 22234.000
 20
  7686.062
 11
 22234.000
 21
  7625.102
  0
LINE
  8
9
 10
 21534.002
 20
  7686.062
 11
 21534.002
 21
  7625.102
  0
LINE
  8
9
 10
 21534.002
 20
  7686.062
 11
 22234.000
 21
  7686.062
  0
LINE
  8
9
 10
 21534.002
 20
  7625.102
 11
 22234.000
 21
  7625.102
  0
TEXT
  8
16
 10
 21168.242
 20
  7472.702
 40
   121.920
  1
SP6
 50
     0.000
  0
LINE
  8
1
 10
 11160.000
 20
     0.000
 11
 11160.002
 21
  8534.662
  0
LINE
  8
1
 10
 11310.000
 20
     0.000
 11
 11310.002
 21
  8534.662
  0
TEXT
  8
16
 10
 11356.920
 20
  4267.367
 40
   121.920
  1
C1
 50
     1.000
  0
LINE
  8
9
 10
   236.000
 20
     0.000
 11
   636.000
 21
     0.000
  0
LINE
  8
9
 10
   236.000
 20
    30.480
 11
   636.000
 21
    30.480
  0
LINE
  8
9
 10
   236.000
 20
     0.000
 11
   236.000
 21
    30.480
  0
LINE
  8
9
 10
   636.000
 20
     0.000
 11
   636.000
 21
    30.480
  0
LINE
  8
9
 10
 22234.000
 20
     0.000
 11
 21834.002
 21
     0.000
  0
LINE
  8
9
 10
 22234.000
 20
    30.480
 11
 21834.002
 21
    30.480
  0
LINE
  8
9
 10
 22234.000
 20
     0.000
 11
 22234.000
 21
    30.480
  0
LINE
  8
9
 10
 21834.002
 20
     0.000
 11
 21834.002
 21
    30.480
  0
LINE
  8
9
 10
 11160.000
 20
     0.000
 11
 11310.000
 21
     0.000
  0
LINE
  8
9
 10
 11160.000
 20
    30.480
 11
 11310.000
 21
    30.480
  0
LINE
  8
9
 10
 11160.000
 20
     0.000
 11
 11160.000
 21
    30.480
  0
LINE
  8
9
 10
 11310.000
 20
     0.000
 11
 11310.000
 21
    30.480
  0
LINE
  8
9
 10
 11160.002
 20
  8534.662
 11
 11310.002
 21
  8534.662
  0
LINE
  8
5
 10
    30.001
 20
  2580.000
 11
   230.001
 21
  2580.000
  0
LINE
  8
3
 10
    30.001
 20
  2580.000
 11
  -144.216
 21
  2680.584
  0
LINE
  8
3
 10
    30.001
 20
  2580.000
 11
  -144.225
 21
  2479.433
  0
LINE
  8
3
 10
  -144.216
 20
  2680.584
 11
  -144.225
 21
  2479.433
  0
LINE
  8
5
 10
    30.001
 20
  4080.000
 11
   230.001
 21
  4080.000
  0
LINE
  8
5
 10
    30.002
 20
  5580.000
 11
   230.002
 21
  5580.000
  0
LINE
  8
5
 10
    30.002
 20
  7080.000
 11
   230.002
 21
  7080.000
  0
LINE
  8
5
 10
 22440.000
 20
  2580.000
 11
 22240.000
 21
  2580.000
  0
LINE
  8
3
 10
 22440.000
 20
  2580.000
 11
 22614.217
 21
  2479.417
  0
LINE
  8
3
 10
 22440.000
 20
  2580.000
 11
 22614.227
 21
  2680.567
  0
LINE
  8
3
 10
 22614.217
 20
  2479.417
 11
 22614.227
 21
  2680.567
  0
LINE
  8
5
 10
 22439.996
 20
  4080.000
 11
 22239.998
 21
  4080.000
  0
LINE
  8
5
 10
 22439.996
 20
  5580.000
 11
 22239.998
 21
  5580.000
  0
LINE
  8
5
 10
 22439.996
 20
  7080.000
 11
 22239.998
 21
  7080.000
  0
LINE
  8
5
 10
  1562.308
 20
  8326.230
 11
  1582.527
 21
  8124.039
  0
LINE
  8
3
 10
  1562.308
 20
  8326.230
 11
  1645.057
 21
  8509.591
  0
LINE
  8
3
 10
  1562.308
 20
  8326.230
 11
  1444.903
 21
  8489.585
  0
LINE
  8
3
 10
  1645.057
 20
  8509.591
 11
  1444.903
 21
  8489.585
  0
LINE
  8
5
 10
  3124.715
 20
  8482.472
 11
  3144.934
 21
  8280.279
  0
LINE
  8
5
 10
  4687.023
 20
  8638.702
 11
  4707.242
 21
  8436.511
  0
LINE
  8
3
 10
  4687.023
 20
  8638.702
 11
  4769.772
 21
  8822.062
  0
LINE
  8
3
 10
  4687.023
 20
  8638.702
 11
  4569.619
 21
  8802.057
  0
LINE
  8
3
 10
  4769.772
 20
  8822.062
 11
  4569.619
 21
  8802.057
  0
LINE
  8
5
 10
  6249.431
 20
  8794.943
 11
  6269.649
 21
  8592.751
  0
LINE
  8
5
 10
  7811.739
 20
  8951.174
 11
  7831.958
 21
  8748.981
  0
LINE
  8
3
 10
  7811.739
 20
  8951.174
 11
  7894.488
 21
  9134.534
  0
LINE
  8
3
 10
  7811.739
 20
  8951.174
 11
  7694.334
 21
  9114.528
  0
LINE
  8
3
 10
  7894.488
 20
  9134.534
 11
  7694.334
 21
  9114.528
  0
LINE
  8
5
 10
  9374.146
 20
  9107.415
 11
  9394.365
 21
  8905.223
  0
LINE
  8
5
 10
 10936.453
 20
  9263.646
 11
 10956.673
 21
  9061.453
  0
LINE
  8
3
 10
 10936.453
 20
  9263.646
 11
 11019.202
 21
  9447.006
  0
LINE
  8
3
 10
 10936.453
 20
  9263.646
 11
 10819.049
 21
  9427.000
  0
LINE
  8
3
 10
 11019.202
 20
  9447.006
 11
 10819.049
 21
  9427.000
  0
LINE
  8
5
 10
 11533.511
 20
  9263.648
 11
 11513.291
 21
  9061.457
  0
LINE
  8
3
 10
 11533.511
 20
  9263.648
 11
 11650.931
 21
  9426.993
  0
LINE
  8
3
 10
 11533.511
 20
  9263.648
 11
 11450.778
 21
  9447.018
  0
LINE
  8
3
 10
 11650.931
 20
  9426.993
 11
 11450.778
 21
  9447.018
  0
LINE
  8
5
 10
 13095.818
 20
  9107.418
 11
 13075.599
 21
  8905.227
  0
LINE
  8
5
 10
 14658.227
 20
  8951.177
 11
 14638.007
 21
  8748.985
  0
LINE
  8
3
 10
 14658.227
 20
  8951.177
 11
 14775.646
 21
  9114.521
  0
LINE
  8
3
 10
 14658.227
 20
  8951.177
 11
 14575.494
 21
  9134.546
  0
LINE
  8
3
 10
 14775.646
 20
  9114.521
 11
 14575.494
 21
  9134.546
  0
LINE
  8
5
 10
 16220.533
 20
  8794.946
 11
 16200.314
 21
  8592.755
  0
LINE
  8
5
 10
 17782.941
 20
  8638.705
 11
 17762.723
 21
  8436.514
  0
LINE
  8
3
 10
 17782.941
 20
  8638.705
 11
 17900.361
 21
  8802.050
  0
LINE
  8
3
 10
 17782.941
 20
  8638.705
 11
 17700.209
 21
  8822.074
  0
LINE
  8
3
 10
 17900.361
 20
  8802.050
 11
 17700.209
 21
  8822.074
  0
LINE
  8
5
 10
 19345.250
 20
  8482.475
 11
 19325.029
 21
  8280.283
  0
LINE
  8
5
 10
 20907.658
 20
  8326.233
 11
 20887.438
 21
  8124.042
  0
LINE
  8
3
 10
 20907.658
 20
  8326.233
 11
 21025.078
 21
  8489.578
  0
LINE
  8
3
 10
 20907.658
 20
  8326.233
 11
 20824.926
 21
  8509.603
  0
LINE
  8
3
 10
 21025.078
 20
  8489.578
 11
 20824.926
 21
  8509.603
  0
LINE
  8
8
 10
     0.000
 20
     0.000
 11
     0.000
 21
  8170.000
  0
LINE
  8
8
 10
     0.000
 20
  8170.000
 11
 11235.000
 21
  9293.500
  0
LINE
  8
8
 10
 11235.000
 20
  9293.500
 11
 22470.000
 21
  8170.000
  0
LINE
  8
8
 10
 22470.000
 20
  8170.000
 11
 22470.000
 21
     0.000
  0
LINE
  8
10
 10
   936.000
 20
  7655.583
 11
   936.000
 21
  8017.378
  0
LINE
  8
10
 10
 21534.002
 20
  7655.583
 11
 21534.002
 21
  8017.378
  0
LINE
  8
10
 10
 11235.002
 20
  8534.734
 11
 11235.002
 21
  9032.203
  0
LINE
  8
10
 10
  1276.200
 20
  5634.000
 11
   942.002
 21
  5634.000
  0
LINE
  8
10
 10
  1276.200
 20
  5634.000
 11
  1276.200
 21
  5430.800
  0
LINE
  8
10
 10
  1276.200
 20
  5430.800
 11
   942.002
 21
  5430.800
  0
LINE
  8
8
 10
  1200.000
 20
  5974.600
 11
  1200.000
 21
  5634.000
  0
LINE
  8
8
 10
  1300.000
 20
  5974.600
 11
  1100.000
 21
  5974.600
  0
LINE
  8
8
 10
  1200.000
 20
  6000.000
 11
 21375.000
 21
  6000.000
  0
LINE
  8
8
 10
 21375.000
 20
  6000.000
 11
 21375.000
 21
  6000.000
  0
LINE
  8
8
 10
 21375.000
 20
  6000.000
 11
  1200.000
 21
  6000.000
  0
LINE
  8
8
 10
  1200.000
 20
  6000.000
 11
  1200.000
 21
  6000.000
  0
TEXT
  8
21
 10
 10982.700
 20
  5817.120
 40
   121.920
  1
Crane
 50
     0.000
  0
LINE
  8
10
 10
 21298.799
 20
  5634.000
 11
 21528.002
 21
  5634.000
  0
LINE
  8
10
 10
 21298.799
 20
  5634.000
 11
 21298.799
 21
  5430.800
  0
LINE
  8
10
 10
 21298.799
 20
  5430.800
 11
 21528.002
 21
  5430.800
  0
LINE
  8
8
 10
 21375.000
 20
  5974.600
 11
 21375.000
 21
  5634.000
  0
LINE
  8
8
 10
 21475.000
 20
  5974.600
 11
 21274.998
 21
  5974.600
  0
LINE
  8
8
 10
  1200.000
 20
  6000.000
 11
 21375.000
 21
  6000.000
  0
LINE
  8
8
 10
 21375.000
 20
  6000.000
 11
 21375.000
 21
  6000.000
  0
LINE
  8
8
 10
 21375.000
 20
  6000.000
 11
  1200.000
 21
  6000.000
  0
LINE
  8
8
 10
  1200.000
 20
  6000.000
 11
  1200.000
 21
  6000.000
  0
TEXT
  8
21
 10
 10982.700
 20
  5817.120
 40
   121.920
  1
Crane
 50
     0.000
  0
LINE
  8
0
 10
 -1385.124
 20
 -4741.585
 11
 23855.125
 21
 -4741.585
  0
LINE
  8
0
 10
 23855.125
 20
 -4741.585
 11
 23855.125
 21
 14188.602
  0
LINE
  8
0
 10
 23855.125
 20
 14188.602
 11
 -1385.124
 21
 14188.602
  0
LINE
  8
0
 10
 -1385.124
 20
 14188.602
 11
 -1385.124
 21
 -4741.585
  0
LINE
  8
0
 10
 -1385.124
 20
 -4116.889
 11
 23855.125
 21
 -4116.889
  0
TEXT
  8
0
 10
  7070.358
 20
 -4637.469
 40
   416.464
  1
Rigid Frame 1 Design
 50
     0.000
  0
TEXT
  8
0
 10
 -1176.891
 20
 -4637.469
 40
   416.464
  1
C323-153
 50
     0.000
  0
TEXT
  8
0
 10
 19065.787
 20
 -4637.469
 40
   416.464
  1
23/JUL/2025
 50
     0.000
  0
ENDSEC
  0
EOF
