999
SOURCE:MBS   PROGRAM:RFDWG   CELL:RFDWG   CLASS:ELEVATION   MODE:---
  0
SECTION
  2
HEADER
 9
$ACADVER
 1
AC1009
  9
$EXTMIN
 10
0.00000000
 20
0.00000000
  9
$EXTMAX
 10
28842.5957
 20
20395.8379
  9
$LIMMIN
 10
0.00000000
 20
0.00000000
  9
$LIMMAX
 10
28842.5957
 20
20395.8379
  9
$FILLMODE
 70
     1
  9
$HANDLING
 70
     0
  0
ENDSEC
  0
SECTION
  2
TABLES
  0
TABLE
  2
LTYPE
 70
 4
  0
LTYPE
  2
CONTIN
 70
   64
  3
SOLID LINE
  72
   65
 73
    0
 40
 0.000
  0
LTYPE
  2
CENTER
 70
   64
  3
____ _ ____ _ _
  72
   65
 73
    4
 40
1744.3
 49
1090.2
 49
-218.0
 49
218.04
 49
-218.0
  0
LTYPE
  2
DASHED
 70
   64
  3
__ __ __ __ __
  72
   65
 73
    2
 40
327.05
 49
218.04
 49
-109.0
  0
LTYPE
  2
CONTINUOUS
 70
   64
  3
SOLID LINE
  72
   65
 73
    0
 40
 0.000
  0
ENDTAB
  0
TABLE
  2
LAYER
 70
    30
  0
LAYER
  2
0
 70
     0
 62
     7
  6
CONTIN
  0
LAYER
  2
1
 70
     0
 62
     7
  6
CONTIN
  0
LAYER
  2
2
 70
     0
 62
     6
  6
CONTIN
  0
LAYER
  2
3
 70
     0
 62
     7
  6
CONTIN
  0
LAYER
  2
4
 70
     0
 62
     7
  6
CENTER
  0
LAYER
  2
5
 70
     0
 62
     5
  6
DASHED
  0
LAYER
  2
6
 70
     0
 62
     6
  6
CONTIN
  0
LAYER
  2
7
 70
     0
 62
     7
  6
CONTIN
  0
LAYER
  2
8
 70
     0
 62
     8
  6
DASHED
  0
LAYER
  2
9
 70
     0
 62
     9
  6
DASHED
  0
LAYER
  2
10
 70
     0
 62
    10
  6
CONTIN
  0
LAYER
  2
11
 70
     0
 62
     7
  6
CONTIN
  0
LAYER
  2
12
 70
     0
 62
     6
  6
CONTIN
  0
LAYER
  2
13
 70
     0
 62
     1
  6
CONTIN
  0
LAYER
  2
14
 70
     0
 62
     7
  6
CONTIN
  0
LAYER
  2
15
 70
     0
 62
     7
  6
CONTIN
  0
LAYER
  2
16
 70
     0
 62
     7
  6
CONTIN
  0
LAYER
  2
17
 70
     0
 62
     5
  6
CONTIN
  0
LAYER
  2
18
 70
     0
 62
     7
  6
CONTIN
  0
LAYER
  2
19
 70
     0
 62
     7
  6
CONTIN
  0
LAYER
  2
20
 70
     0
 62
     7
  6
CONTIN
  0
LAYER
  2
21
 70
     0
 62
     7
  6
CONTIN
  0
LAYER
  2
22
 70
     0
 62
     7
  6
CONTIN
  0
LAYER
  2
23
 70
     0
 62
     7
  6
DASHED
  0
LAYER
  2
24
 70
     0
 62
     7
  6
CONTIN
  0
LAYER
  2
25
 70
     0
 62
     7
  6
CONTIN
  0
LAYER
  2
26
 70
     0
 62
     7
  6
CONTIN
  0
LAYER
  2
27
 70
     0
 62
     1
  6
CENTER
  0
LAYER
  2
28
 70
     0
 62
     7
  6
CONTIN
  0
LAYER
  2
29
 70
     0
 62
     7
  6
CONTIN
  0
ENDTAB
  0
TABLE
  2
STYLE
 70
  0
  0
STYLE
  2
SIMPLEX
 70
  0
 40
  0.000
 41
  1.000
 42
  1.000
 50
  0.000
 71
  0
  3
SIMPLEX
  0
STYLE
  2
ROMANS
 70
  0
 40
  0.000
 41
  1.000
 42
  1.000
 50
  0.000
 71
  0
  3
ROMANS
  0
STYLE
  2
OPEN
 70
  0
 40
  0.000
 41
  1.000
 42
  1.000
 50
  0.000
 71
  0
  3
SIMPLEX
  0
STYLE
  2
ARIAL
 70
  0
 40
  0.000
 41
  1.000
 42
  1.000
 50
  0.000
 71
  0
  3
ARIAL.TTF
  0
STYLE
  2
VERDANAB
 70
  0
 40
  0.000
 41
  1.000
 42
  1.000
 50
  0.000
 71
  0
  3
VERDANAB.TTF
  0
ENDTAB
  0
ENDSEC
  0
SECTION
  2
BLOCKS
  0
BLOCK
  8
0
  2
ARROWPF
 70
     0
 10
0.00000000
 20
0.00000000
  0
LINE
  8
0
 10
0.00000000
 20
0.00000000
 11
-124.71677
 21
20.7861271
  0
LINE
  8
0
 10
-124.71677
 20
20.7861271
 11
-124.71677
 21
-20.786127
  0
LINE
  8
0
 10
-124.71677
 20
-20.786127
 11
0.00000000
 21
0.00000000
  0
ENDBLK
  8
0
  0
BLOCK
  8
0
  2
ARROWF
 70
     0
 10
0.00000000
 20
0.00000000
  0
LINE
  8
0
 10
0.00000000
 20
0.00000000
 11
-187.07516
 21
31.1791897
  0
LINE
  8
0
 10
-187.07516
 20
31.1791897
 11
-187.07516
 21
-31.179192
  0
LINE
  8
0
 10
-187.07516
 20
-31.179192
 11
0.00000000
 21
0.00000000
  0
ENDBLK
  8
0
  0
BLOCK
  8
0
  2
DIAMOND
 70
     0
 10
0.00000000
 20
0.00000000
  0
LINE
  8
0
 10
0.00000000
 20
0.00000000
 11
12.6999998
 21
12.6999998
  0
LINE
  8
0
 10
12.6999998
 20
12.6999998
 11
0.00000000
 21
25.3999996
  0
LINE
  8
0
 10
0.00000000
 20
25.3999996
 11
-12.700000
 21
12.6999998
  0
LINE
  8
0
 10
-12.700000
 20
12.6999998
 11
0.00000000
 21
0.00000000
  0
ENDBLK
  8
0
  0
BLOCK
  8
3
  2
CIRCLE
 70
     0
 10
0.00000000
 20
0.00000000
  0
CIRCLE
  8
1
 10
     0.00
 20
     0.00
 40
    25.40
  0
ENDBLK
  8
3
  0
BLOCK
  8
0
  2
WSECTN
 70
     0
 10
0.00000000
 20
0.00000000
  0
LINE
  8
0
 10
0.00000000
 20
0.00000000
 11
0.00000000
 21
25.3999996
  0
LINE
  8
0
 10
-76.199997
 20
0.00000000
 11
76.1999970
 21
0.00000000
  0
LINE
  8
0
 10
-76.199997
 20
25.3999996
 11
76.1999970
 21
25.3999996
  0
ENDBLK
  8
0
  0
BLOCK
  8
0
  2
WCOL
 70
     0
 10
0.00000000
 20
0.00000000
  0
LINE
  8
0
 10
-10.160000
 20
0.00000000
 11
10.1599999
 21
0.00000000
  0
LINE
  8
0
 10
0.00000000
 20
0.00000000
 11
0.00000000
 21
-25.400000
  0
LINE
  8
0
 10
-10.160000
 20
-25.400000
 11
10.1599999
 21
-25.400000
  0
ENDBLK
  8
0
  0
BLOCK
  8
0
  2
JSECTN
 70
     0
 10
0.00000000
 20
0.00000000
  0
LINE
  8
0
 10
0.00000000
 20
0.00000000
 11
0.00000000
 21
-25.400000
  0
LINE
  8
0
 10
-2.5400000
 20
0.00000000
 11
0.00000000
 21
0.00000000
  0
LINE
  8
0
 10
0.00000000
 20
0.00000000
 11
0.00000000
 21
-25.400000
  0
LINE
  8
0
 10
2.53999996
 20
0.00000000
 11
0.00000000
 21
0.00000000
  0
LINE
  8
0
 10
0.00000000
 20
0.00000000
 11
0.00000000
 21
-25.400000
  0
LINE
  8
0
 10
-2.5400000
 20
-25.400000
 11
0.00000000
 21
-25.400000
  0
LINE
  8
0
 10
0.00000000
 20
-25.400000
 11
0.00000000
 21
0.00000000
  0
LINE
  8
0
 10
2.53999996
 20
-25.400000
 11
0.00000000
 21
-25.400000
  0
LINE
  8
0
 10
0.00000000
 20
-25.400000
 11
0.00000000
 21
0.00000000
  0
ENDBLK
  8
0
  0
BLOCK
  8
0
  2
ZCOL
 70
     0
 10
0.00000000
 20
0.00000000
  0
LINE
  8
0
 10
10.1599999
 20
-2.5400000
 11
10.1599999
 21
0.00000000
  0
LINE
  8
0
 10
10.1599999
 20
0.00000000
 11
0.00000000
 21
0.00000000
  0
LINE
  8
0
 10
0.00000000
 20
0.00000000
 11
0.00000000
 21
-25.400000
  0
LINE
  8
0
 10
0.00000000
 20
-25.400000
 11
-10.160000
 21
-25.400000
  0
LINE
  8
0
 10
-10.160000
 20
-25.400000
 11
-10.160000
 21
-22.859999
  0
ENDBLK
  8
0
  0
BLOCK
  8
0
  2
FINFLR
 70
     0
 10
0.00000000
 20
0.00000000
  0
LINE
  8
0
 10
0.00000000
 20
0.00000000
 11
12.6999998
 21
25.3999996
  0
LINE
  8
0
 10
12.6999998
 20
25.3999996
 11
-12.700000
 21
25.3999996
  0
LINE
  8
0
 10
-12.700000
 20
25.3999996
 11
0.00000000
 21
0.00000000
  0
LINE
  8
0
 10
0.00000000
 20
0.00000000
 11
0.00000000
 21
25.3999996
  0
SOLID
  8
0
 10
0.00000000
 20
0.00000000
 11
0.00000000
 21
25.3999996
 12
-12.700000
 22
25.3999996
 13
-12.700000
 23
25.3999996
  0
ENDBLK
  8
0
  0
BLOCK
  8
0
  2
CCOL
 70
     0
 10
0.00000000
 20
0.00000000
  0
LINE
  8
0
 10
10.1599999
 20
-2.5400000
 11
10.1599999
 21
0.00000000
  0
LINE
  8
0
 10
10.1599999
 20
0.00000000
 11
0.00000000
 21
0.00000000
  0
LINE
  8
0
 10
0.00000000
 20
0.00000000
 11
0.00000000
 21
-25.400000
  0
LINE
  8
0
 10
0.00000000
 20
-25.400000
 11
10.1599999
 21
-25.400000
  0
LINE
  8
0
 10
10.1599999
 20
-25.400000
 11
10.1599999
 21
-22.859999
  0
ENDBLK
  8
0
  0
BLOCK
  8
0
  2
UCOL
 70
     0
 10
0.00000000
 20
0.00000000
  0
LINE
  8
0
 10
10.1599999
 20
0.00000000
 11
0.00000000
 21
0.00000000
  0
LINE
  8
0
 10
0.00000000
 20
0.00000000
 11
0.00000000
 21
-25.400000
  0
LINE
  8
0
 10
0.00000000
 20
-25.400000
 11
10.1599999
 21
-25.400000
  0
ENDBLK
  8
0
  0
BLOCK
  8
0
  2
DCOL
 70
     0
 10
0.00000000
 20
0.00000000
  0
INSERT
  8
0
  2
CCOL
 10
0.00000000
 20
0.00000000
 41
1.00000000
 42
1.00000000
 43
1.00000000
 50
0.00000000
  0
INSERT
  8
0
  2
CCOL
 10
0.00000000
 20
0.00000000
 41
-1.0000000
 42
1.00000000
 43
1.00000000
 50
0.00000000
  0
ENDBLK
  8
0
  0
BLOCK
  8
0
  2
MARKER
 70
     0
 10
0.00000000
 20
0.00000000
  0
LINE
  8
0
 10
0.00000000
 20
0.00000000
 11
191.871948
 21
191.871948
  0
LINE
  8
0
 10
191.871948
 20
191.871948
 11
-191.87193
 21
191.871948
  0
LINE
  8
0
 10
-191.87193
 20
191.871948
 11
0.00000000
 21
0.00000000
  0
ENDBLK
  8
0
  0
BLOCK
  8
0
  2
FLGCLP
 70
     0
 10
0.00000000
 20
0.00000000
  0
LINE
  8
0
 10
0.00000000
 20
0.00000000
 11
25.3999996
 21
25.3999996
  0
LINE
  8
0
 10
25.3999996
 20
25.3999996
 11
-25.400000
 21
25.3999996
  0
LINE
  8
0
 10
-25.400000
 20
25.3999996
 11
0.00000000
 21
0.00000000
  0
LINE
  8
0
 10
-8.4666672
 20
8.46666716
 11
8.46666716
 21
8.46666716
  0
LINE
  8
0
 10
-8.4666672
 20
8.46666716
 11
-8.4666672
 21
25.3999996
  0
LINE
  8
0
 10
8.46666716
 20
8.46666716
 11
8.46666716
 21
25.3999996
  0
ENDBLK
  8
0
  0
BLOCK
  8
0
  2
CUTFRM
 70
     0
 10
0.00000000
 20
0.00000000
  0
LINE
  8
0
 10
0.00000000
 20
0.00000000
 11
0.00000000
 21
-25.400000
  0
LINE
  8
0
 10
0.00000000
 20
-25.400000
 11
-182.27837
 21
-25.400000
  0
ENDBLK
  8
0
  0
BLOCK
  8
0
  2
VSECTN
 70
     0
 10
0.00000000
 20
0.00000000
  0
LINE
  8
0
 10
-12.700000
 20
25.3999996
 11
12.6999998
 21
25.3999996
  0
LINE
  8
0
 10
-12.700000
 20
25.3999996
 11
0.00000000
 21
0.00000000
  0
LINE
  8
0
 10
0.00000000
 20
0.00000000
 11
12.6999998
 21
25.3999996
  0
ENDBLK
  8
0
  0
BLOCK
  8
0
  2
ASECT
 70
     0
 10
0.00000000
 20
0.00000000
  0
LINE
  8
0
 10
0.00000000
 20
0.00000000
 11
25.3999996
 21
0.00000000
  0
LINE
  8
0
 10
0.00000000
 20
0.00000000
 11
0.00000000
 21
-25.400000
  0
ENDBLK
  8
0
  0
BLOCK
  8
0
  2
FRAME1
 70
     0
 10
0.00000000
 20
0.00000000
  0
LINE
  8
5
 10
0.00000000
 20
2500.00000
 11
0.00000000
 21
8169.99951
  0
LINE
  8
5
 10
0.00000000
 20
8169.99951
 11
11235.0000
 21
9293.50000
  0
LINE
  8
5
 10
11235.0000
 20
9293.50000
 11
22470.0000
 21
8169.99951
  0
LINE
  8
5
 10
22470.0000
 20
8169.99951
 11
22470.0000
 21
2500.00000
  0
LINE
  8
3
 10
-1594.9355
 20
9519.23926
 11
-1204.4458
 21
9744.68848
  0
LINE
  8
3
 10
-1545.0858
 20
9548.02051
 11
-1254.2955
 21
9548.02051
  0
LINE
  8
3
 10
-1254.2955
 20
9715.90820
 11
-1254.2955
 21
9548.02051
  0
TEXT
  8
3
 7
SIMPLEX
 10
-1194.3356
 20
9548.02051
 40
119.919968
  1
10.0
 50
0.00000000
  0
TEXT
  8
3
 7
SIMPLEX
 10
-1459.6508
 20
9368.14063
 40
119.919968
  1
100
 50
0.00000000
  0
LINE
  8
3
 10
24016.9688
 20
9519.23926
 11
23626.4785
 21
9744.68848
  0
LINE
  8
3
 10
23967.1172
 20
9548.02051
 11
23676.3281
 21
9548.02051
  0
LINE
  8
3
 10
23676.3281
 20
9715.90820
 11
23676.3281
 21
9548.02051
  0
TEXT
  8
3
 7
SIMPLEX
 10
23076.7266
 20
9548.02051
 40
119.919968
  1
  10.0
 50
0.00000000
  0
TEXT
  8
3
 7
SIMPLEX
 10
23761.7637
 20
9368.14063
 40
119.919968
  1
100
 50
0.00000000
  0
LINE
  8
1
 10
11160.0000
 20
8513.73047
 11
11160.0000
 21
16.0000000
  0
LINE
  8
1
 10
11309.9990
 20
8513.73047
 11
11309.9990
 21
16.0000000
  0
LINE
  8
1
 10
941.999939
 20
5634.00000
 11
1400.00000
 21
5634.00000
  0
LINE
  8
1
 10
941.999939
 20
5626.00000
 11
1400.00000
 21
5626.00000
  0
LINE
  8
1
 10
1400.00000
 20
5634.00000
 11
1400.00000
 21
5268.00000
  0
LINE
  8
1
 10
1400.00000
 20
5268.00000
 11
941.999939
 21
5268.00000
  0
LINE
  8
1
 10
1400.00000
 20
5276.00000
 11
941.999939
 21
5276.00000
  0
LINE
  8
1
 10
1400.00000
 20
5268.00000
 11
1400.00000
 21
5168.00000
  0
LINE
  8
1
 10
1400.00000
 20
5168.00000
 11
941.999939
 21
4903.57324
  0
LINE
  8
1
 10
21528.0000
 20
5634.00000
 11
21175.0000
 21
5634.00000
  0
LINE
  8
1
 10
21528.0000
 20
5626.00000
 11
21175.0000
 21
5626.00000
  0
LINE
  8
1
 10
21175.0000
 20
5634.00000
 11
21175.0000
 21
5268.00000
  0
LINE
  8
1
 10
21175.0000
 20
5268.00000
 11
21528.0000
 21
5268.00000
  0
LINE
  8
1
 10
21175.0000
 20
5276.00000
 11
21528.0000
 21
5276.00000
  0
LINE
  8
1
 10
21175.0000
 20
5268.00000
 11
21175.0000
 21
5168.00000
  0
LINE
  8
1
 10
21175.0000
 20
5168.00000
 11
21528.0000
 21
4964.19482
  0
LINE
  8
1
 10
11135.0000
 20
8529.73047
 11
11135.0000
 21
8513.73047
  0
LINE
  8
1
 10
11135.0000
 20
8513.73047
 11
11334.9990
 21
8513.73047
  0
LINE
  8
1
 10
11334.9990
 20
8513.73047
 11
11334.9990
 21
8529.73047
  0
LINE
  8
1
 10
236.000000
 20
16.0000000
 11
636.000000
 21
16.0000000
  0
LINE
  8
1
 10
636.000000
 20
16.0000000
 11
936.000000
 21
4015.99976
  0
LINE
  8
1
 10
936.000000
 20
4015.99976
 11
936.000000
 21
4015.99976
  0
LINE
  8
1
 10
936.000000
 20
4015.99976
 11
236.000000
 21
4015.99976
  0
LINE
  8
1
 10
236.000000
 20
16.0000000
 11
236.000000
 21
4015.99976
  0
LINE
  8
1
 10
236.000000
 20
4015.99976
 11
936.000000
 21
4015.99976
  0
LINE
  8
1
 10
936.000000
 20
4015.99976
 11
936.000000
 21
7633.38281
  0
LINE
  8
1
 10
936.000000
 20
7633.38281
 11
936.000000
 21
7633.38281
  0
LINE
  8
1
 10
936.000000
 20
7633.38281
 11
236.000000
 21
7633.38281
  0
LINE
  8
1
 10
236.000000
 20
4015.99976
 11
236.000000
 21
7633.38281
  0
LINE
  8
1
 10
336.000000
 20
5274.00000
 11
936.000000
 21
5274.00000
  0
LINE
  8
1
 10
336.000000
 20
5268.00000
 11
936.000000
 21
5268.00000
  0
LINE
  8
1
 10
336.000000
 20
5274.00000
 11
336.000000
 21
5268.00000
  0
LINE
  8
1
 10
936.000000
 20
5274.00000
 11
936.000000
 21
5268.00000
  0
LINE
  8
1
 10
336.000000
 20
5634.00000
 11
936.000000
 21
5634.00000
  0
LINE
  8
1
 10
336.000000
 20
5628.00000
 11
936.000000
 21
5628.00000
  0
LINE
  8
1
 10
336.000000
 20
5634.00000
 11
336.000000
 21
5628.00000
  0
LINE
  8
1
 10
936.000000
 20
5634.00000
 11
936.000000
 21
5628.00000
  0
LINE
  8
1
 10
236.000000
 20
5850.00000
 11
836.000000
 21
5850.00000
  0
LINE
  8
1
 10
236.000000
 20
5844.00000
 11
836.000000
 21
5844.00000
  0
LINE
  8
1
 10
236.000000
 20
5850.00000
 11
236.000000
 21
5844.00000
  0
LINE
  8
1
 10
836.000000
 20
5850.00000
 11
836.000000
 21
5844.00000
  0
LINE
  8
1
 10
236.000000
 20
16.0000000
 11
236.000000
 21
7633.38281
  0
LINE
  8
1
 10
236.000000
 20
7633.38281
 11
229.999985
 21
7633.38281
  0
LINE
  8
1
 10
229.999985
 20
7633.38281
 11
229.999985
 21
16.0000000
  0
LINE
  8
1
 10
236.000000
 20
16.0000000
 11
229.999985
 21
16.0000000
  0
LINE
  8
1
 10
636.033997
 20
16.4489994
 11
936.000000
 21
4015.99976
  0
LINE
  8
1
 10
936.000000
 20
4015.99976
 11
941.982971
 21
4015.55103
  0
LINE
  8
1
 10
941.982971
 20
4015.55103
 11
642.017029
 21
16.0000000
  0
LINE
  8
1
 10
636.033997
 20
16.4489994
 11
642.017029
 21
16.0000000
  0
LINE
  8
1
 10
936.000000
 20
4015.99976
 11
936.000000
 21
7633.38281
  0
LINE
  8
1
 10
936.000000
 20
7633.38281
 11
941.999939
 21
7633.38281
  0
LINE
  8
1
 10
941.999939
 20
7633.38281
 11
941.999939
 21
4015.99976
  0
LINE
  8
1
 10
936.000000
 20
4015.99976
 11
941.999939
 21
4015.99976
  0
LINE
  8
1
 10
158.000000
 20
-28.700001
 11
158.000000
 21
28.7000008
  0
LINE
  8
1
 10
308.000000
 20
-28.700001
 11
308.000000
 21
28.7000008
  0
LINE
  8
1
 10
562.807983
 20
-28.700001
 11
562.807983
 21
28.7000008
  0
LINE
  8
1
 10
712.807983
 20
-28.700001
 11
712.807983
 21
28.7000008
  0
LINE
  8
1
 10
82.9999924
 20
0.00000000
 11
787.807983
 21
0.00000000
  0
LINE
  8
1
 10
787.807983
 20
0.00000000
 11
787.807983
 21
16.0000000
  0
LINE
  8
1
 10
787.807983
 20
16.0000000
 11
82.9999924
 21
16.0000000
  0
LINE
  8
1
 10
82.9999924
 20
0.00000000
 11
82.9999924
 21
16.0000000
  0
LINE
  8
1
 10
186.000000
 20
7620.68311
 11
186.000000
 21
7678.08301
  0
LINE
  8
1
 10
286.000000
 20
7620.68311
 11
286.000000
 21
7678.08301
  0
LINE
  8
1
 10
586.000000
 20
7620.68311
 11
586.000000
 21
7678.08301
  0
LINE
  8
1
 10
886.000000
 20
7620.68311
 11
886.000000
 21
7678.08301
  0
LINE
  8
1
 10
986.000000
 20
7620.68311
 11
986.000000
 21
7678.08301
  0
LINE
  8
1
 10
136.000000
 20
7649.38281
 11
1036.00000
 21
7649.38281
  0
LINE
  8
1
 10
1036.00000
 20
7649.38281
 11
1036.00000
 21
7633.38281
  0
LINE
  8
1
 10
1036.00000
 20
7633.38281
 11
136.000000
 21
7633.38281
  0
LINE
  8
1
 10
136.000000
 20
7649.38281
 11
136.000000
 21
7633.38281
  0
LINE
  8
1
 10
229.999985
 20
16.0000000
 11
229.999985
 21
213.000000
  0
LINE
  8
1
 10
229.999985
 20
213.000000
 11
82.9999924
 21
66.0000000
  0
LINE
  8
1
 10
82.9999924
 20
66.0000000
 11
82.9999924
 21
16.0000000
  0
LINE
  8
1
 10
229.999985
 20
16.0000000
 11
82.9999924
 21
16.0000000
  0
LINE
  8
1
 10
642.017029
 20
16.0000000
 11
656.700989
 21
211.792007
  0
LINE
  8
1
 10
656.700989
 20
211.792007
 11
787.807983
 21
66.0000000
  0
LINE
  8
1
 10
787.807983
 20
66.0000000
 11
787.807983
 21
16.0000000
  0
LINE
  8
1
 10
642.017029
 20
16.0000000
 11
787.807983
 21
16.0000000
  0
LINE
  8
1
 10
229.999985
 20
7633.38281
 11
229.999985
 21
7513.38232
  0
LINE
  8
1
 10
229.999985
 20
7513.38232
 11
136.000000
 21
7633.38281
  0
LINE
  8
1
 10
136.000000
 20
7633.38281
 11
136.000000
 21
7633.38281
  0
LINE
  8
1
 10
229.999985
 20
7633.38281
 11
136.000000
 21
7633.38281
  0
LINE
  8
1
 10
941.999939
 20
7633.38281
 11
941.999939
 21
7513.38232
  0
LINE
  8
1
 10
941.999939
 20
7513.38232
 11
1036.00000
 21
7633.38281
  0
LINE
  8
1
 10
1036.00000
 20
7633.38281
 11
1036.00000
 21
7633.38281
  0
LINE
  8
1
 10
941.999939
 20
7633.38281
 11
1036.00000
 21
7633.38281
  0
LINE
  8
1
 10
4392.98877
 20
8403.27637
 11
4422.88672
 21
8104.29736
  0
LINE
  8
1
 10
4422.88672
 20
8104.29736
 11
1038.99988
 21
7665.38184
  0
LINE
  8
1
 10
1038.99988
 20
7665.38184
 11
236.000000
 21
7665.38184
  0
LINE
  8
1
 10
236.000000
 20
7665.38184
 11
236.000000
 21
7987.57813
  0
LINE
  8
1
 10
4392.98877
 20
8403.27637
 11
236.000000
 21
7987.57813
  0
LINE
  8
1
 10
906.162964
 20
8023.89355
 11
941.984924
 21
7665.68066
  0
LINE
  8
1
 10
900.193054
 20
8023.29688
 11
936.015015
 21
7665.08398
  0
LINE
  8
1
 10
906.162964
 20
8023.89355
 11
900.193054
 21
8023.29688
  0
LINE
  8
1
 10
941.984924
 20
7665.68066
 11
936.015015
 21
7665.08398
  0
LINE
  8
1
 10
4392.98877
 20
8403.27637
 11
10.4980002
 21
7965.02637
  0
LINE
  8
1
 10
10.4980002
 20
7965.02637
 11
10.0000000
 21
7970.00195
  0
LINE
  8
1
 10
10.0000000
 20
7970.00195
 11
4392.49219
 21
8408.25098
  0
LINE
  8
1
 10
4392.98877
 20
8403.27637
 11
4392.49219
 21
8408.25098
  0
LINE
  8
1
 10
236.000000
 20
7665.38184
 11
236.000000
 21
7987.07861
  0
LINE
  8
1
 10
236.000000
 20
7987.07861
 11
231.000000
 21
7987.07861
  0
LINE
  8
1
 10
231.000000
 20
7987.07861
 11
231.000000
 21
7665.38184
  0
LINE
  8
1
 10
236.000000
 20
7665.38184
 11
231.000000
 21
7665.38184
  0
LINE
  8
1
 10
231.000000
 20
7987.07861
 11
1.00000000
 21
7964.07764
  0
LINE
  8
1
 10
1.00000000
 20
7964.07764
 11
231.000000
 21
7872.07813
  0
LINE
  8
1
 10
4422.74219
 20
8104.27881
 11
1038.99988
 21
7665.38184
  0
LINE
  8
1
 10
1038.99988
 20
7665.38184
 11
1039.64294
 21
7660.42383
  0
LINE
  8
1
 10
1039.64294
 20
7660.42383
 11
4423.38477
 21
8099.31885
  0
LINE
  8
1
 10
4422.74219
 20
8104.27881
 11
4423.38477
 21
8099.31885
  0
LINE
  8
1
 10
4375.37695
 20
8451.76465
 11
4432.49219
 21
8457.47559
  0
LINE
  8
1
 10
4385.32813
 20
8352.26172
 11
4442.44287
 21
8357.97266
  0
LINE
  8
1
 10
4405.22900
 20
8153.25244
 11
4462.34277
 21
8158.96533
  0
LINE
  8
1
 10
4415.17920
 20
8053.75000
 11
4472.29395
 21
8059.46045
  0
LINE
  8
1
 10
4398.95898
 20
8504.37207
 11
4448.71191
 21
8006.85303
  0
LINE
  8
1
 10
4448.71191
 20
8006.85303
 11
4432.79102
 21
8005.26074
  0
LINE
  8
1
 10
4432.79102
 20
8005.26074
 11
4383.03906
 21
8502.78027
  0
LINE
  8
1
 10
4398.95898
 20
8504.37207
 11
4383.03906
 21
8502.78027
  0
LINE
  8
1
 10
186.000000
 20
7620.68311
 11
186.000000
 21
7678.08301
  0
LINE
  8
1
 10
286.000000
 20
7620.68311
 11
286.000000
 21
7678.08301
  0
LINE
  8
1
 10
586.000000
 20
7620.68311
 11
586.000000
 21
7678.08301
  0
LINE
  8
1
 10
886.000000
 20
7620.68311
 11
886.000000
 21
7678.08301
  0
LINE
  8
1
 10
986.000000
 20
7620.68311
 11
986.000000
 21
7678.08301
  0
LINE
  8
1
 10
136.000000
 20
7649.38281
 11
1036.00000
 21
7649.38281
  0
LINE
  8
1
 10
1036.00000
 20
7649.38281
 11
1036.00000
 21
7665.38184
  0
LINE
  8
1
 10
1036.00000
 20
7665.38184
 11
136.000000
 21
7665.38184
  0
LINE
  8
1
 10
136.000000
 20
7649.38281
 11
136.000000
 21
7665.38184
  0
LINE
  8
1
 10
4392.49219
 20
8408.25098
 11
4273.08691
 21
8396.31055
  0
LINE
  8
1
 10
4273.08691
 20
8396.31055
 11
4383.03906
 21
8502.78027
  0
LINE
  8
1
 10
4383.03906
 20
8502.78027
 11
4383.03906
 21
8502.78027
  0
LINE
  8
1
 10
4392.49219
 20
8408.25098
 11
4383.03906
 21
8502.78027
  0
LINE
  8
1
 10
4423.38477
 20
8099.31885
 11
4304.33105
 21
8083.87793
  0
LINE
  8
1
 10
4304.33105
 20
8083.87793
 11
4432.79102
 21
8005.26074
  0
LINE
  8
1
 10
4432.79102
 20
8005.26074
 11
4432.79102
 21
8005.26074
  0
LINE
  8
1
 10
4423.38477
 20
8099.31885
 11
4432.79102
 21
8005.26074
  0
LINE
  8
1
 10
231.000000
 20
7665.38184
 11
231.000000
 21
7785.38184
  0
LINE
  8
1
 10
231.000000
 20
7785.38184
 11
136.000000
 21
7665.38184
  0
LINE
  8
1
 10
136.000000
 20
7665.38184
 11
136.000000
 21
7665.38184
  0
LINE
  8
1
 10
231.000000
 20
7665.38184
 11
136.000000
 21
7665.38184
  0
LINE
  8
1
 10
8676.72363
 20
8831.65039
 11
8706.57422
 21
8533.13867
  0
LINE
  8
1
 10
8706.57422
 20
8533.13867
 11
4454.68213
 21
8107.94922
  0
LINE
  8
1
 10
4454.68213
 20
8107.94922
 11
4454.68213
 21
8107.94922
  0
LINE
  8
1
 10
4454.68213
 20
8107.94922
 11
4424.83105
 21
8406.45996
  0
LINE
  8
1
 10
8676.72363
 20
8831.65039
 11
4424.83105
 21
8406.45996
  0
LINE
  8
1
 10
8676.72363
 20
8831.65039
 11
4424.83105
 21
8406.45996
  0
LINE
  8
1
 10
4424.83105
 20
8406.45996
 11
4424.33301
 21
8411.43555
  0
LINE
  8
1
 10
4424.33301
 20
8411.43555
 11
8676.22656
 21
8836.62500
  0
LINE
  8
1
 10
8676.72363
 20
8831.65039
 11
8676.22656
 21
8836.62500
  0
LINE
  8
1
 10
8706.57422
 20
8533.13867
 11
4454.68213
 21
8107.94922
  0
LINE
  8
1
 10
4454.68213
 20
8107.94922
 11
4455.18018
 21
8102.97412
  0
LINE
  8
1
 10
4455.18018
 20
8102.97412
 11
8707.07227
 21
8528.16406
  0
LINE
  8
1
 10
8706.57422
 20
8533.13867
 11
8707.07227
 21
8528.16406
  0
LINE
  8
1
 10
8659.11133
 20
8880.13867
 11
8716.22656
 21
8885.84961
  0
LINE
  8
1
 10
8669.06152
 20
8780.63477
 11
8726.17773
 21
8786.34668
  0
LINE
  8
1
 10
8688.96289
 20
8581.62598
 11
8746.07813
 21
8587.33887
  0
LINE
  8
1
 10
8698.91309
 20
8482.12402
 11
8756.02930
 21
8487.83496
  0
LINE
  8
1
 10
8682.69434
 20
8932.74609
 11
8732.44629
 21
8435.22656
  0
LINE
  8
1
 10
8732.44629
 20
8435.22656
 11
8716.52539
 21
8433.63477
  0
LINE
  8
1
 10
8716.52539
 20
8433.63477
 11
8666.77344
 21
8931.15430
  0
LINE
  8
1
 10
8682.69434
 20
8932.74609
 11
8666.77344
 21
8931.15430
  0
LINE
  8
1
 10
4375.37695
 20
8451.76465
 11
4432.49219
 21
8457.47559
  0
LINE
  8
1
 10
4385.32813
 20
8352.26172
 11
4442.44287
 21
8357.97266
  0
LINE
  8
1
 10
4405.22900
 20
8153.25244
 11
4462.34277
 21
8158.96533
  0
LINE
  8
1
 10
4415.17920
 20
8053.75000
 11
4472.29395
 21
8059.46045
  0
LINE
  8
1
 10
4398.95898
 20
8504.37207
 11
4448.71191
 21
8006.85303
  0
LINE
  8
1
 10
4448.71191
 20
8006.85303
 11
4464.63184
 21
8008.44434
  0
LINE
  8
1
 10
4464.63184
 20
8008.44434
 11
4414.87988
 21
8505.96484
  0
LINE
  8
1
 10
4398.95898
 20
8504.37207
 11
4414.87988
 21
8505.96484
  0
LINE
  8
1
 10
8676.22656
 20
8836.62500
 11
8556.82129
 21
8824.68457
  0
LINE
  8
1
 10
8556.82129
 20
8824.68457
 11
8666.77344
 21
8931.15430
  0
LINE
  8
1
 10
8666.77344
 20
8931.15430
 11
8666.77344
 21
8931.15430
  0
LINE
  8
1
 10
8676.22656
 20
8836.62500
 11
8666.77344
 21
8931.15430
  0
LINE
  8
1
 10
8707.07227
 20
8528.16406
 11
8587.66797
 21
8516.22363
  0
LINE
  8
1
 10
8587.66797
 20
8516.22363
 11
8716.52539
 21
8433.63477
  0
LINE
  8
1
 10
8716.52539
 20
8433.63477
 11
8716.52539
 21
8433.63477
  0
LINE
  8
1
 10
8707.07227
 20
8528.16406
 11
8716.52539
 21
8433.63477
  0
LINE
  8
1
 10
4424.33301
 20
8411.43555
 11
4543.73633
 21
8423.37598
  0
LINE
  8
1
 10
4543.73633
 20
8423.37598
 11
4414.87988
 21
8505.96484
  0
LINE
  8
1
 10
4414.87988
 20
8505.96484
 11
4414.87988
 21
8505.96484
  0
LINE
  8
1
 10
4424.33301
 20
8411.43555
 11
4414.87988
 21
8505.96484
  0
LINE
  8
1
 10
4455.18018
 20
8102.97412
 11
4574.58398
 21
8114.91455
  0
LINE
  8
1
 10
4574.58398
 20
8114.91455
 11
4464.63184
 21
8008.44434
  0
LINE
  8
1
 10
4464.63184
 20
8008.44434
 11
4464.63184
 21
8008.44434
  0
LINE
  8
1
 10
4455.18018
 20
8102.97412
 11
4464.63184
 21
8008.44434
  0
LINE
  8
1
 10
8738.57520
 20
8534.73047
 11
8708.56543
 21
8834.83301
  0
LINE
  8
1
 10
8708.56543
 20
8834.83301
 11
11235.0000
 21
9087.47754
  0
LINE
  8
1
 10
11235.0000
 20
9087.47754
 11
13761.4004
 21
8834.83691
  0
LINE
  8
1
 10
13761.4004
 20
8834.83691
 11
13731.3906
 21
8534.73047
  0
LINE
  8
1
 10
8738.57520
 20
8534.73047
 11
13731.3906
 21
8534.73047
  0
LINE
  8
1
 10
8708.56543
 20
8834.83301
 11
11235.0000
 21
9087.47754
  0
LINE
  8
1
 10
11235.0000
 20
9087.47754
 11
11234.5029
 21
9092.45215
  0
LINE
  8
1
 10
11234.5029
 20
9092.45215
 11
8708.06738
 21
8839.80957
  0
LINE
  8
1
 10
8708.56543
 20
8834.83301
 11
8708.06738
 21
8839.80957
  0
LINE
  8
1
 10
11235.0000
 20
9087.47754
 11
13761.4004
 21
8834.83691
  0
LINE
  8
1
 10
13761.4004
 20
8834.83691
 11
13761.8975
 21
8839.81152
  0
LINE
  8
1
 10
13761.8975
 20
8839.81152
 11
11235.4980
 21
9092.45215
  0
LINE
  8
1
 10
11235.0000
 20
9087.47754
 11
11235.4980
 21
9092.45215
  0
LINE
  8
1
 10
8739.07520
 20
8534.73047
 11
13730.8877
 21
8534.73047
  0
LINE
  8
1
 10
13730.8877
 20
8534.73047
 11
13730.8877
 21
8529.73145
  0
LINE
  8
1
 10
13730.8877
 20
8529.73145
 11
8739.07520
 21
8529.73145
  0
LINE
  8
1
 10
8739.07520
 20
8534.73047
 11
8739.07520
 21
8529.73145
  0
LINE
  8
1
 10
11238.0000
 20
8984.73047
 11
11238.0000
 21
8534.73047
  0
LINE
  8
1
 10
11232.0000
 20
8984.73047
 11
11232.0000
 21
8534.73047
  0
LINE
  8
1
 10
11238.0000
 20
8984.73047
 11
11232.0000
 21
8984.73047
  0
LINE
  8
1
 10
11238.0000
 20
8534.73047
 11
11232.0000
 21
8534.73047
  0
LINE
  8
1
 10
8659.11133
 20
8880.13867
 11
8716.22656
 21
8885.84961
  0
LINE
  8
1
 10
8669.06152
 20
8780.63477
 11
8726.17773
 21
8786.34668
  0
LINE
  8
1
 10
8688.96289
 20
8581.62598
 11
8746.07813
 21
8587.33887
  0
LINE
  8
1
 10
8698.91309
 20
8482.12402
 11
8756.02930
 21
8487.83496
  0
LINE
  8
1
 10
8682.69434
 20
8932.74609
 11
8732.44629
 21
8435.22656
  0
LINE
  8
1
 10
8732.44629
 20
8435.22656
 11
8748.36621
 21
8436.81934
  0
LINE
  8
1
 10
8748.36621
 20
8436.81934
 11
8698.61426
 21
8934.33789
  0
LINE
  8
1
 10
8682.69434
 20
8932.74609
 11
8698.61426
 21
8934.33789
  0
LINE
  8
1
 10
13753.7373
 20
8885.85254
 11
13810.8525
 21
8880.14160
  0
LINE
  8
1
 10
13743.7871
 20
8786.34863
 11
13800.9043
 21
8780.63770
  0
LINE
  8
1
 10
13723.8867
 20
8587.34180
 11
13781.0020
 21
8581.62988
  0
LINE
  8
1
 10
13713.9355
 20
8487.83789
 11
13771.0527
 21
8482.12598
  0
LINE
  8
1
 10
13787.2686
 20
8932.74902
 11
13737.5195
 21
8435.22852
  0
LINE
  8
1
 10
13737.5195
 20
8435.22852
 11
13721.5996
 21
8436.81934
  0
LINE
  8
1
 10
13721.5996
 20
8436.81934
 11
13771.3506
 21
8934.34180
  0
LINE
  8
1
 10
13787.2686
 20
8932.74902
 11
13771.3506
 21
8934.34180
  0
LINE
  8
1
 10
8708.06738
 20
8839.80957
 11
8827.47168
 21
8851.74902
  0
LINE
  8
1
 10
8827.47168
 20
8851.74902
 11
8698.61426
 21
8934.33789
  0
LINE
  8
1
 10
8698.61426
 20
8934.33789
 11
8698.61426
 21
8934.33789
  0
LINE
  8
1
 10
8708.06738
 20
8839.80957
 11
8698.61426
 21
8934.33789
  0
LINE
  8
1
 10
8739.07617
 20
8529.73145
 11
8859.67480
 21
8529.73145
  0
LINE
  8
1
 10
8859.67480
 20
8529.73145
 11
8748.36621
 21
8436.81934
  0
LINE
  8
1
 10
8748.36621
 20
8436.81934
 11
8748.36621
 21
8436.81934
  0
LINE
  8
1
 10
8739.07617
 20
8529.73145
 11
8748.36621
 21
8436.81934
  0
LINE
  8
1
 10
13761.8975
 20
8839.81152
 11
13642.4932
 21
8851.75293
  0
LINE
  8
1
 10
13642.4932
 20
8851.75293
 11
13771.3506
 21
8934.34180
  0
LINE
  8
1
 10
13771.3506
 20
8934.34180
 11
13771.3506
 21
8934.34180
  0
LINE
  8
1
 10
13761.8975
 20
8839.81152
 11
13771.3506
 21
8934.34180
  0
LINE
  8
1
 10
13730.8916
 20
8529.73145
 11
13610.2910
 21
8529.73145
  0
LINE
  8
1
 10
13610.2910
 20
8529.73145
 11
13721.5996
 21
8436.81934
  0
LINE
  8
1
 10
13721.5996
 20
8436.81934
 11
13721.5996
 21
8436.81934
  0
LINE
  8
1
 10
13730.8916
 20
8529.73145
 11
13721.5996
 21
8436.81934
  0
LINE
  8
1
 10
13793.2402
 20
8831.65332
 11
13763.3887
 21
8533.14160
  0
LINE
  8
1
 10
13763.3887
 20
8533.14160
 11
18015.2852
 21
8107.95313
  0
LINE
  8
1
 10
18015.2852
 20
8107.95313
 11
18015.2852
 21
8107.95313
  0
LINE
  8
1
 10
18015.2852
 20
8107.95313
 11
18045.1348
 21
8406.46387
  0
LINE
  8
1
 10
13793.2402
 20
8831.65332
 11
18045.1348
 21
8406.46387
  0
LINE
  8
1
 10
13793.2402
 20
8831.65332
 11
18045.1348
 21
8406.46387
  0
LINE
  8
1
 10
18045.1348
 20
8406.46387
 11
18045.6328
 21
8411.43945
  0
LINE
  8
1
 10
18045.6328
 20
8411.43945
 11
13793.7373
 21
8836.62793
  0
LINE
  8
1
 10
13793.2402
 20
8831.65332
 11
13793.7373
 21
8836.62793
  0
LINE
  8
1
 10
13763.3887
 20
8533.14160
 11
18015.2852
 21
8107.95313
  0
LINE
  8
1
 10
18015.2852
 20
8107.95313
 11
18014.7871
 21
8102.97803
  0
LINE
  8
1
 10
18014.7871
 20
8102.97803
 11
13762.8916
 21
8528.16699
  0
LINE
  8
1
 10
13763.3887
 20
8533.14160
 11
13762.8916
 21
8528.16699
  0
LINE
  8
1
 10
13753.7373
 20
8885.85254
 11
13810.8525
 21
8880.14160
  0
LINE
  8
1
 10
13743.7871
 20
8786.34863
 11
13800.9043
 21
8780.63770
  0
LINE
  8
1
 10
13723.8867
 20
8587.34180
 11
13781.0020
 21
8581.62988
  0
LINE
  8
1
 10
13713.9355
 20
8487.83789
 11
13771.0527
 21
8482.12598
  0
LINE
  8
1
 10
13787.2686
 20
8932.74902
 11
13737.5195
 21
8435.22852
  0
LINE
  8
1
 10
13737.5195
 20
8435.22852
 11
13753.4404
 21
8433.63672
  0
LINE
  8
1
 10
13753.4404
 20
8433.63672
 11
13803.1885
 21
8931.15723
  0
LINE
  8
1
 10
13787.2686
 20
8932.74902
 11
13803.1885
 21
8931.15723
  0
LINE
  8
1
 10
18037.4727
 20
8457.47852
 11
18094.5879
 21
8451.76855
  0
LINE
  8
1
 10
18027.5234
 20
8357.97559
 11
18084.6387
 21
8352.26465
  0
LINE
  8
1
 10
18007.6211
 20
8158.96875
 11
18064.7383
 21
8153.25635
  0
LINE
  8
1
 10
17997.6719
 20
8059.46387
 11
18054.7852
 21
8053.75244
  0
LINE
  8
1
 10
18071.0059
 20
8504.37598
 11
18021.2539
 21
8006.85693
  0
LINE
  8
1
 10
18021.2539
 20
8006.85693
 11
18005.3340
 21
8008.44922
  0
LINE
  8
1
 10
18005.3340
 20
8008.44922
 11
18055.0859
 21
8505.96875
  0
LINE
  8
1
 10
18071.0059
 20
8504.37598
 11
18055.0859
 21
8505.96875
  0
LINE
  8
1
 10
13793.7373
 20
8836.62793
 11
13913.1426
 21
8824.68848
  0
LINE
  8
1
 10
13913.1426
 20
8824.68848
 11
13803.1885
 21
8931.15723
  0
LINE
  8
1
 10
13803.1885
 20
8931.15723
 11
13803.1885
 21
8931.15723
  0
LINE
  8
1
 10
13793.7373
 20
8836.62793
 11
13803.1885
 21
8931.15723
  0
LINE
  8
1
 10
13762.8916
 20
8528.16699
 11
13882.2979
 21
8516.22656
  0
LINE
  8
1
 10
13882.2979
 20
8516.22656
 11
13753.4404
 21
8433.63672
  0
LINE
  8
1
 10
13753.4404
 20
8433.63672
 11
13753.4404
 21
8433.63672
  0
LINE
  8
1
 10
13762.8916
 20
8528.16699
 11
13753.4404
 21
8433.63672
  0
LINE
  8
1
 10
18045.6328
 20
8411.43945
 11
17926.2285
 21
8423.37988
  0
LINE
  8
1
 10
17926.2285
 20
8423.37988
 11
18055.0859
 21
8505.96875
  0
LINE
  8
1
 10
18055.0859
 20
8505.96875
 11
18055.0859
 21
8505.96875
  0
LINE
  8
1
 10
18045.6328
 20
8411.43945
 11
18055.0859
 21
8505.96875
  0
LINE
  8
1
 10
18014.7871
 20
8102.97803
 11
17895.3809
 21
8114.91797
  0
LINE
  8
1
 10
17895.3809
 20
8114.91797
 11
18005.3340
 21
8008.44922
  0
LINE
  8
1
 10
18005.3340
 20
8008.44922
 11
18005.3340
 21
8008.44922
  0
LINE
  8
1
 10
18014.7871
 20
8102.97803
 11
18005.3340
 21
8008.44922
  0
LINE
  8
1
 10
18076.9746
 20
8403.28027
 11
18047.0781
 21
8104.30127
  0
LINE
  8
1
 10
18047.0781
 20
8104.30127
 11
21431.0000
 21
7665.38184
  0
LINE
  8
1
 10
21431.0000
 20
7665.38184
 11
22234.0000
 21
7665.38184
  0
LINE
  8
1
 10
22234.0000
 20
7665.38184
 11
22234.0000
 21
7987.57813
  0
LINE
  8
1
 10
18076.9746
 20
8403.28027
 11
22234.0000
 21
7987.57813
  0
LINE
  8
1
 10
21569.8047
 20
8023.29688
 11
21533.9863
 21
7665.08398
  0
LINE
  8
1
 10
21563.8359
 20
8023.89355
 11
21528.0137
 21
7665.68066
  0
LINE
  8
1
 10
21569.8047
 20
8023.29688
 11
21563.8359
 21
8023.89355
  0
LINE
  8
1
 10
21533.9863
 20
7665.08398
 11
21528.0137
 21
7665.68066
  0
LINE
  8
1
 10
18076.9746
 20
8403.28027
 11
22459.5039
 21
7965.02637
  0
LINE
  8
1
 10
22459.5039
 20
7965.02637
 11
22460.0000
 21
7970.00195
  0
LINE
  8
1
 10
22460.0000
 20
7970.00195
 11
18077.4727
 21
8408.25488
  0
LINE
  8
1
 10
18076.9746
 20
8403.28027
 11
18077.4727
 21
8408.25488
  0
LINE
  8
1
 10
22234.0000
 20
7987.07861
 11
22234.0000
 21
7665.38184
  0
LINE
  8
1
 10
22234.0000
 20
7665.38184
 11
22238.9980
 21
7665.38184
  0
LINE
  8
1
 10
22238.9980
 20
7665.38184
 11
22238.9980
 21
7987.07861
  0
LINE
  8
1
 10
22234.0000
 20
7987.07861
 11
22238.9980
 21
7987.07861
  0
LINE
  8
1
 10
22238.9980
 20
7987.07861
 11
22469.0000
 21
7964.07764
  0
LINE
  8
1
 10
22469.0000
 20
7964.07764
 11
22238.9980
 21
7872.07813
  0
LINE
  8
1
 10
18047.2246
 20
8104.28271
 11
21431.0000
 21
7665.38184
  0
LINE
  8
1
 10
21431.0000
 20
7665.38184
 11
21430.3574
 21
7660.42383
  0
LINE
  8
1
 10
21430.3574
 20
7660.42383
 11
18046.5801
 21
8099.32422
  0
LINE
  8
1
 10
18047.2246
 20
8104.28271
 11
18046.5801
 21
8099.32422
  0
LINE
  8
1
 10
18037.4727
 20
8457.47852
 11
18094.5879
 21
8451.76855
  0
LINE
  8
1
 10
18027.5234
 20
8357.97559
 11
18084.6387
 21
8352.26465
  0
LINE
  8
1
 10
18007.6211
 20
8158.96875
 11
18064.7383
 21
8153.25635
  0
LINE
  8
1
 10
17997.6719
 20
8059.46387
 11
18054.7852
 21
8053.75244
  0
LINE
  8
1
 10
18071.0059
 20
8504.37598
 11
18021.2539
 21
8006.85693
  0
LINE
  8
1
 10
18021.2539
 20
8006.85693
 11
18037.1738
 21
8005.26465
  0
LINE
  8
1
 10
18037.1738
 20
8005.26465
 11
18086.9258
 21
8502.78418
  0
LINE
  8
1
 10
18071.0059
 20
8504.37598
 11
18086.9258
 21
8502.78418
  0
LINE
  8
1
 10
22284.0000
 20
7678.08301
 11
22284.0000
 21
7620.68311
  0
LINE
  8
1
 10
22184.0000
 20
7678.08301
 11
22184.0000
 21
7620.68311
  0
LINE
  8
1
 10
21884.0000
 20
7678.08301
 11
21884.0000
 21
7620.68311
  0
LINE
  8
1
 10
21584.0000
 20
7678.08301
 11
21584.0000
 21
7620.68311
  0
LINE
  8
1
 10
21484.0020
 20
7678.08301
 11
21484.0020
 21
7620.68311
  0
LINE
  8
1
 10
22334.0000
 20
7649.38281
 11
21434.0000
 21
7649.38281
  0
LINE
  8
1
 10
21434.0000
 20
7649.38281
 11
21434.0000
 21
7665.38184
  0
LINE
  8
1
 10
21434.0000
 20
7665.38184
 11
22334.0000
 21
7665.38184
  0
LINE
  8
1
 10
22334.0000
 20
7649.38281
 11
22334.0000
 21
7665.38184
  0
LINE
  8
1
 10
18077.4727
 20
8408.25488
 11
18196.8789
 21
8396.31445
  0
LINE
  8
1
 10
18196.8789
 20
8396.31445
 11
18086.9258
 21
8502.78418
  0
LINE
  8
1
 10
18086.9258
 20
8502.78418
 11
18086.9258
 21
8502.78418
  0
LINE
  8
1
 10
18077.4727
 20
8408.25488
 11
18086.9258
 21
8502.78418
  0
LINE
  8
1
 10
18046.5801
 20
8099.32422
 11
18165.6348
 21
8083.88184
  0
LINE
  8
1
 10
18165.6348
 20
8083.88184
 11
18037.1738
 21
8005.26465
  0
LINE
  8
1
 10
18037.1738
 20
8005.26465
 11
18037.1738
 21
8005.26465
  0
LINE
  8
1
 10
18046.5801
 20
8099.32422
 11
18037.1738
 21
8005.26465
  0
LINE
  8
1
 10
22238.9980
 20
7665.38184
 11
22238.9980
 21
7785.38184
  0
LINE
  8
1
 10
22238.9980
 20
7785.38184
 11
22334.0000
 21
7665.38184
  0
LINE
  8
1
 10
22334.0000
 20
7665.38184
 11
22334.0000
 21
7665.38184
  0
LINE
  8
1
 10
22238.9980
 20
7665.38184
 11
22334.0000
 21
7665.38184
  0
LINE
  8
1
 10
22234.0000
 20
16.0000000
 11
21834.0000
 21
16.0000000
  0
LINE
  8
1
 10
21834.0000
 20
16.0000000
 11
21534.0000
 21
4015.99976
  0
LINE
  8
1
 10
21534.0000
 20
4015.99976
 11
21534.0000
 21
4015.99976
  0
LINE
  8
1
 10
21534.0000
 20
4015.99976
 11
22234.0000
 21
4015.99976
  0
LINE
  8
1
 10
22234.0000
 20
16.0000000
 11
22234.0000
 21
4015.99976
  0
LINE
  8
1
 10
22234.0000
 20
4015.99976
 11
21534.0000
 21
4015.99976
  0
LINE
  8
1
 10
21534.0000
 20
4015.99976
 11
21534.0000
 21
7633.38281
  0
LINE
  8
1
 10
21534.0000
 20
7633.38281
 11
21534.0000
 21
7633.38281
  0
LINE
  8
1
 10
21534.0000
 20
7633.38281
 11
22234.0000
 21
7633.38281
  0
LINE
  8
1
 10
22234.0000
 20
4015.99976
 11
22234.0000
 21
7633.38281
  0
LINE
  8
1
 10
22133.9980
 20
5274.00000
 11
21534.0000
 21
5274.00000
  0
LINE
  8
1
 10
22133.9980
 20
5268.00000
 11
21534.0000
 21
5268.00000
  0
LINE
  8
1
 10
22133.9980
 20
5274.00000
 11
22133.9980
 21
5268.00000
  0
LINE
  8
1
 10
21534.0000
 20
5274.00000
 11
21534.0000
 21
5268.00000
  0
LINE
  8
1
 10
22133.9980
 20
5634.00000
 11
21534.0000
 21
5634.00000
  0
LINE
  8
1
 10
22133.9980
 20
5628.00000
 11
21534.0000
 21
5628.00000
  0
LINE
  8
1
 10
22133.9980
 20
5634.00000
 11
22133.9980
 21
5628.00000
  0
LINE
  8
1
 10
21534.0000
 20
5634.00000
 11
21534.0000
 21
5628.00000
  0
LINE
  8
1
 10
22234.0000
 20
5850.00000
 11
21634.0000
 21
5850.00000
  0
LINE
  8
1
 10
22234.0000
 20
5844.00000
 11
21634.0000
 21
5844.00000
  0
LINE
  8
1
 10
22234.0000
 20
5850.00000
 11
22234.0000
 21
5844.00000
  0
LINE
  8
1
 10
21634.0000
 20
5850.00000
 11
21634.0000
 21
5844.00000
  0
LINE
  8
1
 10
22234.0000
 20
16.0000000
 11
22234.0000
 21
7633.38281
  0
LINE
  8
1
 10
22234.0000
 20
7633.38281
 11
22240.0000
 21
7633.38281
  0
LINE
  8
1
 10
22240.0000
 20
7633.38281
 11
22240.0000
 21
16.0000000
  0
LINE
  8
1
 10
22234.0000
 20
16.0000000
 11
22240.0000
 21
16.0000000
  0
LINE
  8
1
 10
21833.9668
 20
16.4489994
 11
21534.0000
 21
4015.99976
  0
LINE
  8
1
 10
21534.0000
 20
4015.99976
 11
21528.0176
 21
4015.55103
  0
LINE
  8
1
 10
21528.0176
 20
4015.55103
 11
21827.9844
 21
16.0000000
  0
LINE
  8
1
 10
21833.9668
 20
16.4489994
 11
21827.9844
 21
16.0000000
  0
LINE
  8
1
 10
21534.0000
 20
4015.99976
 11
21534.0000
 21
7633.38281
  0
LINE
  8
1
 10
21534.0000
 20
7633.38281
 11
21528.0000
 21
7633.38281
  0
LINE
  8
1
 10
21528.0000
 20
7633.38281
 11
21528.0000
 21
4015.99976
  0
LINE
  8
1
 10
21534.0000
 20
4015.99976
 11
21528.0000
 21
4015.99976
  0
LINE
  8
1
 10
22311.9980
 20
28.7000008
 11
22311.9980
 21
-28.700001
  0
LINE
  8
1
 10
22161.9980
 20
28.7000008
 11
22161.9980
 21
-28.700001
  0
LINE
  8
1
 10
21907.1934
 20
28.7000008
 11
21907.1934
 21
-28.700001
  0
LINE
  8
1
 10
21757.1934
 20
28.7000008
 11
21757.1934
 21
-28.700001
  0
LINE
  8
1
 10
22387.0000
 20
0.00000000
 11
21682.1934
 21
0.00000000
  0
LINE
  8
1
 10
21682.1934
 20
0.00000000
 11
21682.1934
 21
16.0000000
  0
LINE
  8
1
 10
21682.1934
 20
16.0000000
 11
22387.0000
 21
16.0000000
  0
LINE
  8
1
 10
22387.0000
 20
0.00000000
 11
22387.0000
 21
16.0000000
  0
LINE
  8
1
 10
22284.0000
 20
7678.08301
 11
22284.0000
 21
7620.68311
  0
LINE
  8
1
 10
22184.0000
 20
7678.08301
 11
22184.0000
 21
7620.68311
  0
LINE
  8
1
 10
21884.0000
 20
7678.08301
 11
21884.0000
 21
7620.68311
  0
LINE
  8
1
 10
21584.0000
 20
7678.08301
 11
21584.0000
 21
7620.68311
  0
LINE
  8
1
 10
21484.0020
 20
7678.08301
 11
21484.0020
 21
7620.68311
  0
LINE
  8
1
 10
22334.0000
 20
7649.38281
 11
21434.0000
 21
7649.38281
  0
LINE
  8
1
 10
21434.0000
 20
7649.38281
 11
21434.0000
 21
7633.38281
  0
LINE
  8
1
 10
21434.0000
 20
7633.38281
 11
22334.0000
 21
7633.38281
  0
LINE
  8
1
 10
22334.0000
 20
7649.38281
 11
22334.0000
 21
7633.38281
  0
LINE
  8
1
 10
22240.0000
 20
16.0000000
 11
22240.0000
 21
213.000000
  0
LINE
  8
1
 10
22240.0000
 20
213.000000
 11
22387.0000
 21
66.0000000
  0
LINE
  8
1
 10
22387.0000
 20
66.0000000
 11
22387.0000
 21
16.0000000
  0
LINE
  8
1
 10
22240.0000
 20
16.0000000
 11
22387.0000
 21
16.0000000
  0
LINE
  8
1
 10
21827.9844
 20
16.0000000
 11
21813.2969
 21
211.791016
  0
LINE
  8
1
 10
21813.2969
 20
211.791016
 11
21682.1934
 21
66.0000000
  0
LINE
  8
1
 10
21682.1934
 20
66.0000000
 11
21682.1934
 21
16.0000000
  0
LINE
  8
1
 10
21827.9844
 20
16.0000000
 11
21682.1934
 21
16.0000000
  0
LINE
  8
1
 10
22240.0000
 20
7633.38281
 11
22240.0000
 21
7513.38232
  0
LINE
  8
1
 10
22240.0000
 20
7513.38232
 11
22334.0000
 21
7633.38281
  0
LINE
  8
1
 10
22334.0000
 20
7633.38281
 11
22334.0000
 21
7633.38281
  0
LINE
  8
1
 10
22240.0000
 20
7633.38281
 11
22334.0000
 21
7633.38281
  0
LINE
  8
1
 10
21528.0000
 20
7633.38281
 11
21528.0000
 21
7513.38232
  0
LINE
  8
1
 10
21528.0000
 20
7513.38232
 11
21434.0000
 21
7633.38281
  0
LINE
  8
1
 10
21434.0000
 20
7633.38281
 11
21434.0000
 21
7633.38281
  0
LINE
  8
1
 10
21528.0000
 20
7633.38281
 11
21434.0000
 21
7633.38281
  0
LINE
  8
1
 10
11135.0000
 20
0.00000000
 11
11334.9990
 21
0.00000000
  0
LINE
  8
1
 10
11135.0000
 20
16.0000000
 11
11334.9990
 21
16.0000000
  0
LINE
  8
1
 10
11135.0000
 20
0.00000000
 11
11135.0000
 21
16.0000000
  0
LINE
  8
1
 10
11334.9990
 20
0.00000000
 11
11334.9990
 21
16.0000000
  0
LINE
  8
1
 10
11185.0000
 20
25.3999996
 11
11185.0000
 21
-25.400000
  0
LINE
  8
1
 10
11285.0000
 20
25.3999996
 11
11285.0000
 21
-25.400000
  0
LINE
  8
1
 10
941.999939
 20
5634.00000
 11
1400.00000
 21
5634.00000
  0
LINE
  8
1
 10
941.999939
 20
5626.00000
 11
1400.00000
 21
5626.00000
  0
LINE
  8
1
 10
1400.00000
 20
5634.00000
 11
1400.00000
 21
5268.00000
  0
LINE
  8
1
 10
1400.00000
 20
5268.00000
 11
941.999939
 21
5268.00000
  0
LINE
  8
1
 10
1400.00000
 20
5276.00000
 11
941.999939
 21
5276.00000
  0
LINE
  8
1
 10
21528.0000
 20
5634.00000
 11
21175.0000
 21
5634.00000
  0
LINE
  8
1
 10
21528.0000
 20
5626.00000
 11
21175.0000
 21
5626.00000
  0
LINE
  8
1
 10
21175.0000
 20
5634.00000
 11
21175.0000
 21
5268.00000
  0
LINE
  8
1
 10
21175.0000
 20
5268.00000
 11
21528.0000
 21
5268.00000
  0
LINE
  8
1
 10
21175.0000
 20
5276.00000
 11
21528.0000
 21
5276.00000
  0
LINE
  8
1
 10
336.000000
 20
5274.00000
 11
936.000000
 21
5274.00000
  0
LINE
  8
1
 10
336.000000
 20
5268.00000
 11
936.000000
 21
5268.00000
  0
LINE
  8
1
 10
336.000000
 20
5274.00000
 11
336.000000
 21
5268.00000
  0
LINE
  8
1
 10
936.000000
 20
5274.00000
 11
936.000000
 21
5268.00000
  0
LINE
  8
1
 10
336.000000
 20
5634.00000
 11
936.000000
 21
5634.00000
  0
LINE
  8
1
 10
336.000000
 20
5628.00000
 11
936.000000
 21
5628.00000
  0
LINE
  8
1
 10
336.000000
 20
5634.00000
 11
336.000000
 21
5628.00000
  0
LINE
  8
1
 10
936.000000
 20
5634.00000
 11
936.000000
 21
5628.00000
  0
LINE
  8
1
 10
236.000000
 20
5850.00000
 11
836.000000
 21
5850.00000
  0
LINE
  8
1
 10
236.000000
 20
5844.00000
 11
836.000000
 21
5844.00000
  0
LINE
  8
1
 10
236.000000
 20
5850.00000
 11
236.000000
 21
5844.00000
  0
LINE
  8
1
 10
836.000000
 20
5850.00000
 11
836.000000
 21
5844.00000
  0
LINE
  8
1
 10
906.162964
 20
8023.89355
 11
941.984924
 21
7665.68066
  0
LINE
  8
1
 10
900.193054
 20
8023.29688
 11
936.015015
 21
7665.08398
  0
LINE
  8
1
 10
906.162964
 20
8023.89355
 11
900.193054
 21
8023.29688
  0
LINE
  8
1
 10
941.984924
 20
7665.68066
 11
936.015015
 21
7665.08398
  0
LINE
  8
1
 10
11238.0000
 20
8984.73047
 11
11238.0000
 21
8534.73047
  0
LINE
  8
1
 10
11232.0000
 20
8984.73047
 11
11232.0000
 21
8534.73047
  0
LINE
  8
1
 10
11238.0000
 20
8984.73047
 11
11232.0000
 21
8984.73047
  0
LINE
  8
1
 10
11238.0000
 20
8534.73047
 11
11232.0000
 21
8534.73047
  0
LINE
  8
1
 10
21569.8047
 20
8023.29688
 11
21533.9863
 21
7665.08398
  0
LINE
  8
1
 10
21563.8359
 20
8023.89355
 11
21528.0137
 21
7665.68066
  0
LINE
  8
1
 10
21569.8047
 20
8023.29688
 11
21563.8359
 21
8023.89355
  0
LINE
  8
1
 10
21533.9863
 20
7665.08398
 11
21528.0137
 21
7665.68066
  0
LINE
  8
1
 10
22133.9980
 20
5274.00000
 11
21534.0000
 21
5274.00000
  0
LINE
  8
1
 10
22133.9980
 20
5268.00000
 11
21534.0000
 21
5268.00000
  0
LINE
  8
1
 10
22133.9980
 20
5274.00000
 11
22133.9980
 21
5268.00000
  0
LINE
  8
1
 10
21534.0000
 20
5274.00000
 11
21534.0000
 21
5268.00000
  0
LINE
  8
1
 10
22133.9980
 20
5634.00000
 11
21534.0000
 21
5634.00000
  0
LINE
  8
1
 10
22133.9980
 20
5628.00000
 11
21534.0000
 21
5628.00000
  0
LINE
  8
1
 10
22133.9980
 20
5634.00000
 11
22133.9980
 21
5628.00000
  0
LINE
  8
1
 10
21534.0000
 20
5634.00000
 11
21534.0000
 21
5628.00000
  0
LINE
  8
1
 10
22234.0000
 20
5850.00000
 11
21634.0000
 21
5850.00000
  0
LINE
  8
1
 10
22234.0000
 20
5844.00000
 11
21634.0000
 21
5844.00000
  0
LINE
  8
1
 10
22234.0000
 20
5850.00000
 11
22234.0000
 21
5844.00000
  0
LINE
  8
1
 10
21634.0000
 20
5850.00000
 11
21634.0000
 21
5844.00000
  0
LINE
  8
2
 10
10995.1602
 20
0.00000000
 11
11474.8398
 21
0.00000000
  0
LINE
  8
2
 10
10995.1602
 20
-57.561585
 11
11052.7217
 21
0.00000000
  0
LINE
  8
2
 10
11052.7217
 20
-57.561585
 11
11110.2832
 21
0.00000000
  0
LINE
  8
2
 10
11110.2832
 20
-57.561585
 11
11167.8457
 21
0.00000000
  0
LINE
  8
2
 10
11167.8457
 20
-57.561585
 11
11225.4072
 21
0.00000000
  0
LINE
  8
2
 10
11225.4072
 20
-57.561585
 11
11282.9688
 21
0.00000000
  0
LINE
  8
2
 10
11282.9688
 20
-57.561585
 11
11340.5303
 21
0.00000000
  0
LINE
  8
2
 10
11340.5303
 20
-57.561585
 11
11398.0918
 21
0.00000000
  0
LINE
  8
2
 10
11398.0918
 20
-57.561585
 11
11455.6533
 21
0.00000000
  0
LINE
  8
4
 10
11235.0000
 20
38.0999985
 11
11235.0000
 21
8425.59473
  0
TEXT
  8
3
 7
SIMPLEX
 10
1243.23218
 20
7265.76709
 40
119.919968
  1
SP1
 50
90.0000000
  0
TEXT
  8
3
 7
SIMPLEX
 10
4631.41309
 20
7618.88428
 40
119.919968
  1
SP2
 50
90.0000000
  0
TEXT
  8
3
 7
SIMPLEX
 10
8735.26660
 20
8047.25781
 40
119.919968
  1
SP2
 50
90.0000000
  0
TEXT
  8
3
 7
SIMPLEX
 10
13734.6992
 20
8047.26123
 40
119.919968
  1
SP2
 50
90.0000000
  0
TEXT
  8
3
 7
SIMPLEX
 10
17988.4551
 20
7618.88770
 40
119.919968
  1
SP2
 50
90.0000000
  0
TEXT
  8
3
 7
SIMPLEX
 10
21376.6699
 20
7265.76709
 40
119.919968
  1
SP1
 50
90.0000000
  0
TEXT
  8
3
 7
SIMPLEX
 10
289.696228
 20
-217.45087
 40
119.919968
  1
BP1
 50
0.00000000
  0
TEXT
  8
3
 7
SIMPLEX
 10
21820.5430
 20
-217.45087
 40
119.919968
  1
BP1
 50
0.00000000
  0
TEXT
  8
3
 7
SIMPLEX
 10
11055.1201
 20
-217.45087
 40
119.919968
  1
BP2
 50
0.00000000
  0
INSERT
  8
10
  2
ZCOL
 10
1580.31311
 20
8146.17871
 41
-8.0000000
 42
-6.3740158
 43
-6.3740158
 50
5.71059464
  0
INSERT
  8
10
  2
ZCOL
 10
3142.72070
 20
8302.41992
 41
-8.0000000
 42
-6.3740158
 43
-6.3740158
 50
5.71059464
  0
INSERT
  8
10
  2
ZCOL
 10
4705.02832
 20
8458.65039
 41
-8.0000000
 42
-6.3740158
 43
-6.3740158
 50
5.71059464
  0
INSERT
  8
10
  2
ZCOL
 10
6267.43604
 20
8614.89063
 41
-8.0000000
 42
-6.3740158
 43
-6.3740158
 50
5.71059464
  0
INSERT
  8
10
  2
ZCOL
 10
7829.74463
 20
8771.12207
 41
-8.0000000
 42
-6.3740158
 43
-6.3740158
 50
5.71059464
  0
INSERT
  8
10
  2
ZCOL
 10
9392.15137
 20
8927.36230
 41
-8.0000000
 42
-6.3740158
 43
-6.3740158
 50
5.71059464
  0
INSERT
  8
10
  2
ZCOL
 10
10954.4590
 20
9083.59375
 41
-8.0000000
 42
-6.3740158
 43
-6.3740158
 50
5.71059464
  0
LINE
  8
1
 10
1595.44971
 20
8257.75781
 11
1649.12158
 21
7721.04150
  0
INSERT
  8
3
  2
MARKER
 10
1557.10095
 20
8378.29980
 41
1.00000000
 42
1.00000000
 43
1.00000000
 50
5.71059464
  0
TEXT
  8
3
 7
SIMPLEX
 10
1147.33960
 20
8559.07617
 40
119.919968
  1
FB528A(1)
 50
5.71059464
  0
LINE
  8
1
 10
4720.16504
 20
8570.22949
 11
4766.60010
 21
8105.87646
  0
INSERT
  8
3
  2
MARKER
 10
4681.81592
 20
8690.77051
 41
1.00000000
 42
1.00000000
 43
1.00000000
 50
5.71059464
  0
TEXT
  8
3
 7
SIMPLEX
 10
4152.72998
 20
8859.61523
 40
119.919968
  1
FB464A(1)
 50
5.71059464
  0
LINE
  8
1
 10
7844.88135
 20
8882.70117
 11
7891.31689
 21
8418.34766
  0
INSERT
  8
3
  2
MARKER
 10
7806.53271
 20
9003.24219
 41
1.00000000
 42
1.00000000
 43
1.00000000
 50
5.71059464
  0
TEXT
  8
3
 7
SIMPLEX
 10
7277.44629
 20
9172.08691
 40
119.919968
  1
FB464A(1)
 50
5.71059464
  0
LINE
  8
1
 10
10969.5957
 20
9195.17285
 11
11038.9336
 21
8501.79492
  0
INSERT
  8
3
  2
MARKER
 10
10931.2471
 20
9315.71387
 41
1.00000000
 42
1.00000000
 43
1.00000000
 50
5.71059464
  0
TEXT
  8
3
 7
SIMPLEX
 10
10282.8359
 20
9472.62598
 40
119.919968
  1
FB856A(1)
 50
5.71059464
  0
INSERT
  8
10
  2
ZCOL
 10
11515.5059
 20
9083.59766
 41
8.00000000
 42
-6.3740158
 43
-6.3740158
 50
-5.7105947
  0
INSERT
  8
10
  2
ZCOL
 10
13077.8135
 20
8927.36621
 41
8.00000000
 42
-6.3740158
 43
-6.3740158
 50
-5.7105947
  0
INSERT
  8
10
  2
ZCOL
 10
14640.2227
 20
8771.12598
 41
8.00000000
 42
-6.3740158
 43
-6.3740158
 50
-5.7105947
  0
INSERT
  8
10
  2
ZCOL
 10
16202.5293
 20
8614.89453
 41
8.00000000
 42
-6.3740158
 43
-6.3740158
 50
-5.7105947
  0
INSERT
  8
10
  2
ZCOL
 10
17764.9375
 20
8458.65430
 41
8.00000000
 42
-6.3740158
 43
-6.3740158
 50
-5.7105947
  0
INSERT
  8
10
  2
ZCOL
 10
19327.2441
 20
8302.42285
 41
8.00000000
 42
-6.3740158
 43
-6.3740158
 50
-5.7105947
  0
INSERT
  8
10
  2
ZCOL
 10
20889.6523
 20
8146.18262
 41
8.00000000
 42
-6.3740158
 43
-6.3740158
 50
-5.7105947
  0
LINE
  8
1
 10
11500.3691
 20
9195.17676
 11
11431.0313
 21
8501.79492
  0
INSERT
  8
3
  2
MARKER
 10
11538.7178
 20
9315.71777
 41
1.00000000
 42
1.00000000
 43
1.00000000
 50
-5.7105947
  0
TEXT
  8
3
 7
SIMPLEX
 10
11172.8682
 20
9574.05664
 40
119.919968
  1
FB856A(1)
 50
-5.7105947
  0
LINE
  8
1
 10
14625.0850
 20
8882.70508
 11
14578.6494
 21
8418.35156
  0
INSERT
  8
3
  2
MARKER
 10
14663.4355
 20
9003.24609
 41
1.00000000
 42
1.00000000
 43
1.00000000
 50
-5.7105947
  0
TEXT
  8
3
 7
SIMPLEX
 10
14178.2588
 20
9273.51758
 40
119.919968
  1
FB464A(1)
 50
-5.7105947
  0
LINE
  8
1
 10
17749.8008
 20
8570.23340
 11
17703.3633
 21
8105.87988
  0
INSERT
  8
3
  2
MARKER
 10
17788.1504
 20
8690.77441
 41
1.00000000
 42
1.00000000
 43
1.00000000
 50
-5.7105947
  0
TEXT
  8
3
 7
SIMPLEX
 10
17302.9746
 20
8961.04590
 40
119.919968
  1
FB464A(1)
 50
-5.7105947
  0
LINE
  8
1
 10
20874.5156
 20
8257.76172
 11
20820.8438
 21
7721.04492
  0
INSERT
  8
3
  2
MARKER
 10
20912.8652
 20
8378.30273
 41
1.00000000
 42
1.00000000
 43
1.00000000
 50
-5.7105947
  0
TEXT
  8
3
 7
SIMPLEX
 10
20308.3652
 20
8660.50684
 40
119.919968
  1
FB528A(1)
 50
-5.7105947
  0
INSERT
  8
10
  2
ZCOL
 10
180.950806
 20
2580.00000
 41
8.00000000
 42
-6.3740158
 43
-6.3740158
 50
89.9999847
  0
INSERT
  8
10
  2
ZCOL
 10
180.951279
 20
4080.00024
 41
8.00000000
 42
-6.3740158
 43
-6.3740158
 50
89.9999847
  0
INSERT
  8
10
  2
ZCOL
 10
180.951736
 20
5580.00000
 41
8.00000000
 42
-6.3740158
 43
-6.3740158
 50
89.9999847
  0
INSERT
  8
10
  2
ZCOL
 10
180.952225
 20
7080.00049
 41
8.00000000
 42
-6.3740158
 43
-6.3740158
 50
89.9999847
  0
LINE
  8
1
 10
80.4308090
 20
2553.83569
 11
858.875305
 21
2553.83545
  0
INSERT
  8
3
  2
MARKER
 10
-52.327896
 20
2580.00000
 41
1.00000000
 42
1.00000000
 43
1.00000000
 50
89.9999847
  0
TEXT
  8
3
 7
SIMPLEX
 10
-272.98074
 20
2190.26001
 40
119.919968
  1
FB920A(1)
 50
89.9999847
  0
INSERT
  8
10
  2
ZCOL
 10
22289.0488
 20
2580.00000
 41
-8.0000000
 42
-6.3740158
 43
-6.3740158
 50
-89.999985
  0
INSERT
  8
10
  2
ZCOL
 10
22289.0488
 20
4080.00024
 41
-8.0000000
 42
-6.3740158
 43
-6.3740158
 50
-89.999985
  0
INSERT
  8
10
  2
ZCOL
 10
22289.0488
 20
5580.00000
 41
-8.0000000
 42
-6.3740158
 43
-6.3740158
 50
-89.999985
  0
INSERT
  8
10
  2
ZCOL
 10
22289.0488
 20
7080.00049
 41
-8.0000000
 42
-6.3740158
 43
-6.3740158
 50
-89.999985
  0
LINE
  8
1
 10
22389.5723
 20
2553.83521
 11
21611.1250
 21
2553.83521
  0
INSERT
  8
3
  2
MARKER
 10
22522.3281
 20
2580.00000
 41
1.00000000
 42
1.00000000
 43
1.00000000
 50
-89.999985
  0
TEXT
  8
3
 7
SIMPLEX
 10
22862.9004
 20
2190.26025
 40
119.919968
  1
FB920A(1)
 50
90.0000153
  0
TEXT
  8
3
 7
SIMPLEX
 10
995.239075
 20
1721.44080
 40
119.919968
  1
 CL1-1
 50
85.7278595
  0
TEXT
  8
3
 7
SIMPLEX
 10
2423.21191
 20
7619.14453
 40
119.919968
  1
 RF1-2
 50
7.19094420
  0
TEXT
  8
3
 7
SIMPLEX
 10
6281.44629
 20
8058.38037
 40
119.919968
  1
 RF1-3
 50
5.71058896
  0
TEXT
  8
3
 7
SIMPLEX
 10
9634.80664
 20
8303.80273
 40
119.919968
  1
 RF1-4
 50
0.00008850
  0
TEXT
  8
3
 7
SIMPLEX
 10
15544.1660
 20
8122.81836
 40
119.919968
  1
 RF1-3
 50
-5.7105975
  0
TEXT
  8
3
 7
SIMPLEX
 10
19404.2969
 20
7700.20605
 40
119.919968
  1
 RF1-2
 50
-7.1909266
  0
TEXT
  8
3
 7
SIMPLEX
 10
21596.5840
 20
1700.47742
 40
119.919968
  1
 CL1-6
 50
94.2719650
  0
TEXT
  8
3
 7
SIMPLEX
 10
11111.5420
 20
4031.00610
 40
119.919968
  1
EC-2
 50
89.9999847
  0
INSERT
  8
10
  2
ZCOL
 10
127.819229
 20
7990.67432
 41
8.00000000
 42
-6.3740077
 43
-6.3740077
 50
5.71059464
  0
INSERT
  8
10
  2
ZCOL
 10
22342.1797
 20
7990.67432
 41
-8.0000000
 42
-6.3740091
 43
-6.3740091
 50
-5.7105947
  0
LINE
  8
2
 10
230.000015
 20
0.00000000
 11
907.939941
 21
0.00000000
  0
LINE
  8
2
 10
230.000015
 20
-57.561585
 11
287.561615
 21
0.00000000
  0
LINE
  8
2
 10
287.561615
 20
-57.561585
 11
345.123169
 21
0.00000000
  0
LINE
  8
2
 10
345.123169
 20
-57.561585
 11
402.684753
 21
0.00000000
  0
LINE
  8
2
 10
402.684753
 20
-57.561585
 11
460.246307
 21
0.00000000
  0
LINE
  8
2
 10
460.246307
 20
-57.561585
 11
517.807922
 21
0.00000000
  0
LINE
  8
2
 10
517.807922
 20
-57.561585
 11
575.369507
 21
0.00000000
  0
LINE
  8
2
 10
575.369507
 20
-57.561585
 11
632.931152
 21
0.00000000
  0
LINE
  8
2
 10
632.931152
 20
-57.561585
 11
690.492737
 21
0.00000000
  0
LINE
  8
2
 10
690.492737
 20
-57.561585
 11
748.054321
 21
0.00000000
  0
LINE
  8
2
 10
748.054321
 20
-57.561585
 11
805.615906
 21
0.00000000
  0
LINE
  8
2
 10
805.615906
 20
-57.561585
 11
863.177551
 21
0.00000000
  0
LINE
  8
2
 10
21562.0605
 20
0.00000000
 11
22240.0020
 21
0.00000000
  0
LINE
  8
2
 10
21562.0605
 20
-57.561585
 11
21619.6211
 21
0.00000000
  0
LINE
  8
2
 10
21619.6211
 20
-57.561585
 11
21677.1816
 21
0.00000000
  0
LINE
  8
2
 10
21677.1816
 20
-57.561585
 11
21734.7422
 21
0.00000000
  0
LINE
  8
2
 10
21734.7422
 20
-57.561585
 11
21792.3027
 21
0.00000000
  0
LINE
  8
2
 10
21792.3027
 20
-57.561585
 11
21849.8652
 21
0.00000000
  0
LINE
  8
2
 10
21849.8652
 20
-57.561585
 11
21907.4258
 21
0.00000000
  0
LINE
  8
2
 10
21907.4258
 20
-57.561585
 11
21964.9863
 21
0.00000000
  0
LINE
  8
2
 10
21964.9863
 20
-57.561585
 11
22022.5469
 21
0.00000000
  0
LINE
  8
2
 10
22022.5469
 20
-57.561585
 11
22080.1074
 21
0.00000000
  0
LINE
  8
2
 10
22080.1074
 20
-57.561585
 11
22137.6680
 21
0.00000000
  0
LINE
  8
2
 10
22137.6680
 20
-57.561585
 11
22195.2285
 21
0.00000000
  0
LINE
  8
2
 10
0.00000000
 20
0.00000000
 11
22470.0000
 21
0.00000000
  0
LINE
  8
12
 10
1302.73157
 20
0.00000000
 11
1686.47546
 21
0.00000000
  0
LINE
  8
12
 10
1302.73157
 20
7660.39990
 11
1686.47546
 21
7660.39990
  0
LINE
  8
2
 10
1581.81812
 20
0.00000000
 11
1581.81812
 21
7660.39990
  0
INSERT
  8
2
  2
ARROWF
 10
1581.81812
 20
7660.39990
 41
1.00000000
 42
1.00000000
 43
1.00000000
 50
90.0000000
  0
INSERT
  8
2
  2
ARROWF
 10
1581.81812
 20
0.00000000
 41
1.00000000
 42
1.00000000
 43
1.00000000
 50
-90.000000
  0
TEXT
  8
11
 7
SIMPLEX
 10
1551.83826
 20
3590.36011
 40
119.919968
  1
7660
 50
90.0000000
  0
TEXT
  8
11
 7
SIMPLEX
 10
1731.71814
 20
3296.55615
 40
119.919968
  1
CLEAR +/-
 50
90.0000000
  0
LINE
  8
12
 10
21167.2695
 20
0.00000000
 11
20783.5273
 21
0.00000000
  0
LINE
  8
12
 10
21167.2695
 20
7660.39990
 11
20783.5273
 21
7660.39990
  0
LINE
  8
2
 10
20888.1836
 20
0.00000000
 11
20888.1836
 21
7660.39990
  0
INSERT
  8
2
  2
ARROWF
 10
20888.1836
 20
7660.39990
 41
1.00000000
 42
1.00000000
 43
1.00000000
 50
90.0000000
  0
INSERT
  8
2
  2
ARROWF
 10
20888.1836
 20
0.00000000
 41
1.00000000
 42
1.00000000
 43
1.00000000
 50
-90.000000
  0
TEXT
  8
11
 7
SIMPLEX
 10
20858.2031
 20
3590.36011
 40
119.919968
  1
7660
 50
90.0000000
  0
TEXT
  8
11
 7
SIMPLEX
 10
21038.0820
 20
3296.55615
 40
119.919968
  1
CLEAR +/-
 50
90.0000000
  0
LINE
  8
12
 10
10546.0049
 20
0.00000000
 11
10066.3252
 21
0.00000000
  0
LINE
  8
12
 10
10546.0049
 20
8529.70020
 11
10066.3252
 21
8529.70020
  0
LINE
  8
2
 10
10275.6396
 20
0.00000000
 11
10275.6396
 21
8529.70020
  0
INSERT
  8
2
  2
ARROWF
 10
10275.6396
 20
8529.70020
 41
1.00000000
 42
1.00000000
 43
1.00000000
 50
90.0000000
  0
INSERT
  8
2
  2
ARROWF
 10
10275.6396
 20
0.00000000
 41
1.00000000
 42
1.00000000
 43
1.00000000
 50
-90.000000
  0
TEXT
  8
11
 7
SIMPLEX
 10
10245.6602
 20
4025.01001
 40
119.919968
  1
8530
 50
90.0000000
  0
TEXT
  8
11
 7
SIMPLEX
 10
10425.5400
 20
3731.20630
 40
119.919968
  1
CLEAR +/-
 50
90.0000000
  0
LINE
  8
12
 10
230.000015
 20
-209.31483
 11
230.000015
 21
-688.99469
  0
LINE
  8
12
 10
968.102356
 20
-209.31483
 11
968.102356
 21
-688.99469
  0
LINE
  8
2
 10
230.000015
 20
-631.43311
 11
968.102356
 21
-631.43311
  0
INSERT
  8
2
  2
ARROWF
 10
968.102356
 20
-631.43311
 41
1.00000000
 42
1.00000000
 43
1.00000000
 50
0.00000000
  0
INSERT
  8
2
  2
ARROWF
 10
230.000015
 20
-631.43311
 41
1.00000000
 42
1.00000000
 43
1.00000000
 50
180.000000
  0
TEXT
  8
11
 7
SIMPLEX
 10
998.082275
 20
-591.45978
 40
119.919968
  1
712
 50
0.00000000
  0
LINE
  8
12
 10
21501.9004
 20
-209.31483
 11
21501.9004
 21
-688.99469
  0
LINE
  8
12
 10
22240.0000
 20
-209.31483
 11
22240.0000
 21
-688.99469
  0
LINE
  8
2
 10
22240.0000
 20
-631.43311
 11
21501.9004
 21
-631.43311
  0
INSERT
  8
2
  2
ARROWF
 10
21501.9004
 20
-631.43311
 41
1.00000000
 42
1.00000000
 43
1.00000000
 50
180.000000
  0
INSERT
  8
2
  2
ARROWF
 10
22240.0000
 20
-631.43311
 41
1.00000000
 42
1.00000000
 43
1.00000000
 50
0.00000000
  0
TEXT
  8
11
 7
SIMPLEX
 10
21052.1992
 20
-591.45978
 40
119.919968
  1
712
 50
0.00000000
  0
LINE
  8
12
 10
968.102356
 20
-209.31483
 11
968.102356
 21
-688.99469
  0
LINE
  8
12
 10
11235.0000
 20
-209.31483
 11
11235.0000
 21
-688.99469
  0
LINE
  8
2
 10
968.102356
 20
-631.43311
 11
11235.0000
 21
-631.43311
  0
INSERT
  8
2
  2
ARROWF
 10
968.102356
 20
-631.43311
 41
1.00000000
 42
1.00000000
 43
1.00000000
 50
180.000000
  0
INSERT
  8
2
  2
ARROWF
 10
11235.0000
 20
-631.43311
 41
1.00000000
 42
1.00000000
 43
1.00000000
 50
0.00000000
  0
TEXT
  8
11
 7
SIMPLEX
 10
5831.73096
 20
-591.45978
 40
119.919968
  1
10293
 50
0.00000000
  0
TEXT
  8
11
 7
SIMPLEX
 10
5567.90723
 20
-791.32251
 40
119.919968
  1
CLEAR +/-
 50
0.00000000
  0
LINE
  8
12
 10
11235.0000
 20
-209.31483
 11
11235.0000
 21
-688.99469
  0
LINE
  8
12
 10
21501.9004
 20
-209.31483
 11
21501.9004
 21
-688.99469
  0
LINE
  8
2
 10
11235.0000
 20
-631.43311
 11
21501.9004
 21
-631.43311
  0
INSERT
  8
2
  2
ARROWF
 10
11235.0000
 20
-631.43311
 41
1.00000000
 42
1.00000000
 43
1.00000000
 50
180.000000
  0
INSERT
  8
2
  2
ARROWF
 10
21501.9004
 20
-631.43311
 41
1.00000000
 42
1.00000000
 43
1.00000000
 50
0.00000000
  0
TEXT
  8
11
 7
SIMPLEX
 10
16098.6309
 20
-591.45978
 40
119.919968
  1
10293
 50
0.00000000
  0
TEXT
  8
11
 7
SIMPLEX
 10
15834.8066
 20
-791.32251
 40
119.919968
  1
CLEAR +/-
 50
0.00000000
  0
LINE
  8
12
 10
0.00000000
 20
-329.23480
 11
0.00000000
 21
-1825.8361
  0
CIRCLE
  8
13
 10
0.00000000
 20
-2113.6438
 40
143.903961
  0
TEXT
  8
13
 7
SIMPLEX
 10
-64.756775
 20
-2178.4006
 40
129.513550
  1
C
 72
           1
 11
0.00000000
 21
-2113.6438
 73
           2
 50
   0.000
  0
LINE
  8
12
 10
0.00000000
 20
-1969.7397
 11
0.00000000
 21
-631.43311
  0
LINE
  8
12
 10
22470.0000
 20
-329.23480
 11
22470.0000
 21
-1825.8361
  0
CIRCLE
  8
13
 10
22470.0000
 20
-2113.6438
 40
143.903961
  0
TEXT
  8
13
 7
SIMPLEX
 10
22405.2422
 20
-2178.4006
 40
129.513550
  1
A
 72
           1
 11
22470.0000
 21
-2113.6438
 73
           2
 50
   0.000
  0
LINE
  8
12
 10
22470.0000
 20
-1969.7397
 11
22470.0000
 21
-631.43311
  0
LINE
  8
2
 10
0.00000000
 20
-1768.2744
 11
22470.0000
 21
-1768.2744
  0
INSERT
  8
2
  2
ARROWF
 10
0.00000000
 20
-1768.2744
 41
1.00000000
 42
1.00000000
 43
1.00000000
 50
180.000000
  0
INSERT
  8
2
  2
ARROWF
 10
22470.0000
 20
-1768.2744
 41
1.00000000
 42
1.00000000
 43
1.00000000
 50
0.00000000
  0
TEXT
  8
11
 7
SIMPLEX
 10
9825.94043
 20
-1738.2944
 40
119.919968
  1
22470 OUT-TO-OUT OF STEEL
 50
0.00000000
  0
TEXT
  8
15
 7
SIMPLEX
 10
8189.03320
 20
-2545.3560
 40
191.871948
  1
RIGID FRAME ELEVATION: FRAME LINE 7
 72
           1
 11
11235.0000
 21
-2545.3560
 50
   0.000
  0
LINE
  8
2
 10
-179.87996
 20
-631.43311
 11
0.00000000
 21
-631.43311
  0
LINE
  8
2
 10
230.000015
 20
-631.43311
 11
409.879974
 21
-631.43311
  0
LINE
  8
12
 10
0.00000000
 20
-209.31483
 11
0.00000000
 21
-688.99469
  0
LINE
  8
12
 10
230.000015
 20
-209.31483
 11
230.000015
 21
-688.99469
  0
INSERT
  8
2
  2
ARROWF
 10
0.00000000
 20
-631.43311
 41
1.00000000
 42
1.00000000
 43
1.00000000
 50
0.00000000
  0
INSERT
  8
2
  2
ARROWF
 10
230.000015
 20
-631.43311
 41
1.00000000
 42
1.00000000
 43
1.00000000
 50
180.000000
  0
TEXT
  8
11
 7
SIMPLEX
 10
-399.73325
 20
-591.45978
 40
119.919968
  1
230
 50
0.00000000
  0
LINE
  8
2
 10
22240.0000
 20
-631.43311
 11
22060.1191
 21
-631.43311
  0
LINE
  8
2
 10
22649.8809
 20
-631.43311
 11
22470.0000
 21
-631.43311
  0
LINE
  8
12
 10
22470.0000
 20
-209.31483
 11
22470.0000
 21
-688.99469
  0
LINE
  8
12
 10
22240.0000
 20
-209.31483
 11
22240.0000
 21
-688.99469
  0
INSERT
  8
2
  2
ARROWF
 10
22470.0000
 20
-631.43311
 41
1.00000000
 42
1.00000000
 43
1.00000000
 50
180.000000
  0
INSERT
  8
2
  2
ARROWF
 10
22240.0000
 20
-631.43311
 41
1.00000000
 42
1.00000000
 43
1.00000000
 50
0.00000000
  0
TEXT
  8
11
 7
SIMPLEX
 10
22509.9727
 20
-591.45978
 40
119.919968
  1
230
 50
0.00000000
  0
CIRCLE
  8
13
 10
11235.0000
 20
-1370.1400
 40
143.903961
  0
TEXT
  8
13
 7
SIMPLEX
 10
11170.2432
 20
-1434.8969
 40
129.513550
  1
B
 72
           1
 11
11235.0000
 21
-1370.1400
 73
           2
 50
   0.000
  0
LINE
  8
12
 10
0.00000000
 20
-209.31483
 11
0.00000000
 21
-1226.2361
  0
LINE
  8
12
 10
11235.0000
 20
-688.99469
 11
11235.0000
 21
-1226.2361
  0
LINE
  8
2
 10
0.00000000
 20
-1168.6746
 11
11235.0000
 21
-1168.6746
  0
INSERT
  8
2
  2
ARROWF
 10
0.00000000
 20
-1168.6746
 41
1.00000000
 42
1.00000000
 43
1.00000000
 50
180.000000
  0
INSERT
  8
2
  2
ARROWF
 10
11235.0000
 20
-1168.6746
 41
1.00000000
 42
1.00000000
 43
1.00000000
 50
0.00000000
  0
TEXT
  8
11
 7
SIMPLEX
 10
5407.64014
 20
-1128.7013
 40
119.919968
  1
11235
 50
0.00000000
  0
LINE
  8
12
 10
22470.0000
 20
-209.31483
 11
22470.0000
 21
-1226.2361
  0
LINE
  8
2
 10
11235.0000
 20
-1168.6746
 11
22470.0000
 21
-1168.6746
  0
INSERT
  8
2
  2
ARROWF
 10
11235.0000
 20
-1168.6746
 41
1.00000000
 42
1.00000000
 43
1.00000000
 50
180.000000
  0
INSERT
  8
2
  2
ARROWF
 10
22470.0000
 20
-1168.6746
 41
1.00000000
 42
1.00000000
 43
1.00000000
 50
0.00000000
  0
TEXT
  8
11
 7
SIMPLEX
 10
16642.6406
 20
-1128.7013
 40
119.919968
  1
11235
 50
0.00000000
  0
LINE
  8
12
 10
-689.13208
 20
0.00000000
 11
-1688.4614
 21
0.00000000
  0
LINE
  8
2
 10
-1648.4918
 20
0.00000000
 11
-1648.4918
 21
8169.99951
  0
INSERT
  8
2
  2
ARROWF
 10
-1648.4918
 20
0.00000000
 41
1.00000000
 42
1.00000000
 43
1.00000000
 50
270.000000
  0
TEXT
  8
11
 7
SIMPLEX
 10
-1688.4690
 20
1050.16003
 40
119.919968
  1
2580
 50
90.0002060
  0
LINE
  8
12
 10
-689.13208
 20
2580.00000
 11
-1688.4614
 21
2580.00000
  0
INSERT
  8
2
  2
ARROWF
 10
-1648.4918
 20
2580.00000
 41
1.00000000
 42
1.00000000
 43
1.00000000
 50
90.0000000
  0
INSERT
  8
2
  2
ARROWF
 10
-1648.4918
 20
0.00000000
 41
1.00000000
 42
1.00000000
 43
1.00000000
 50
270.000000
  0
TEXT
  8
11
 7
SIMPLEX
 10
-1688.4670
 20
3120.13989
 40
119.919968
  1
1500
 50
90.0002060
  0
LINE
  8
12
 10
-689.13208
 20
4080.00024
 11
-1688.4614
 21
4080.00024
  0
INSERT
  8
2
  2
ARROWF
 10
-1648.4918
 20
4080.00024
 41
1.00000000
 42
1.00000000
 43
1.00000000
 50
90.0000000
  0
INSERT
  8
2
  2
ARROWF
 10
-1648.4918
 20
2580.00000
 41
1.00000000
 42
1.00000000
 43
1.00000000
 50
270.000000
  0
TEXT
  8
11
 7
SIMPLEX
 10
-1688.4670
 20
4620.14014
 40
119.919968
  1
1500
 50
90.0002060
  0
LINE
  8
12
 10
-689.13208
 20
5580.00000
 11
-1688.4614
 21
5580.00000
  0
INSERT
  8
2
  2
ARROWF
 10
-1648.4918
 20
5580.00000
 41
1.00000000
 42
1.00000000
 43
1.00000000
 50
90.0000000
  0
INSERT
  8
2
  2
ARROWF
 10
-1648.4918
 20
4080.00024
 41
1.00000000
 42
1.00000000
 43
1.00000000
 50
270.000000
  0
TEXT
  8
11
 7
SIMPLEX
 10
-1688.4670
 20
6120.14014
 40
119.919968
  1
1500
 50
90.0002060
  0
LINE
  8
12
 10
-689.13208
 20
7080.00049
 11
-1688.4614
 21
7080.00049
  0
INSERT
  8
2
  2
ARROWF
 10
-1648.4918
 20
7080.00049
 41
1.00000000
 42
1.00000000
 43
1.00000000
 50
90.0000000
  0
INSERT
  8
2
  2
ARROWF
 10
-1648.4918
 20
5580.00000
 41
1.00000000
 42
1.00000000
 43
1.00000000
 50
270.000000
  0
TEXT
  8
11
 7
SIMPLEX
 10
-1688.4664
 20
7415.13965
 40
119.919968
  1
1090
 50
90.0002060
  0
LINE
  8
12
 10
-689.13208
 20
8169.99951
 11
-1688.4614
 21
8169.99951
  0
INSERT
  8
2
  2
ARROWF
 10
-1648.4918
 20
8169.99951
 41
1.00000000
 42
1.00000000
 43
1.00000000
 50
90.0000000
  0
INSERT
  8
2
  2
ARROWF
 10
-1648.4918
 20
7080.00049
 41
1.00000000
 42
1.00000000
 43
1.00000000
 50
270.000000
  0
LINE
  8
12
 10
-1988.2612
 20
8169.99951
 11
-689.13208
 21
8169.99951
  0
LINE
  8
2
 10
-1948.2917
 20
0.00000000
 11
-1948.2917
 21
8169.99951
  0
TEXT
  8
11
 7
SIMPLEX
 10
-1988.2653
 20
3765.21313
 40
119.919968
  1
8170
 50
90.0002060
  0
LINE
  8
12
 10
-1988.2612
 20
0.00000000
 11
-689.13208
 21
0.00000000
  0
INSERT
  8
2
  2
ARROWF
 10
-1948.2917
 20
8169.99951
 41
1.00000000
 42
1.00000000
 43
1.00000000
 50
90.0000000
  0
INSERT
  8
2
  2
ARROWF
 10
-1948.2917
 20
0.00000000
 41
1.00000000
 42
1.00000000
 43
1.00000000
 50
270.000000
  0
LINE
  8
12
 10
23159.1328
 20
0.00000000
 11
24158.4629
 21
0.00000000
  0
LINE
  8
2
 10
24118.4941
 20
0.00000000
 11
24118.4941
 21
8169.99951
  0
INSERT
  8
2
  2
ARROWF
 10
24118.4941
 20
0.00000000
 41
1.00000000
 42
1.00000000
 43
1.00000000
 50
270.000000
  0
TEXT
  8
11
 7
SIMPLEX
 10
24078.5176
 20
1050.16003
 40
119.919968
  1
2580
 50
90.0002060
  0
LINE
  8
12
 10
23159.1328
 20
2580.00000
 11
24158.4629
 21
2580.00000
  0
INSERT
  8
2
  2
ARROWF
 10
24118.4941
 20
2580.00000
 41
1.00000000
 42
1.00000000
 43
1.00000000
 50
90.0000000
  0
INSERT
  8
2
  2
ARROWF
 10
24118.4941
 20
0.00000000
 41
1.00000000
 42
1.00000000
 43
1.00000000
 50
270.000000
  0
TEXT
  8
11
 7
SIMPLEX
 10
24078.5195
 20
3120.13989
 40
119.919968
  1
1500
 50
90.0002060
  0
LINE
  8
12
 10
23159.1328
 20
4080.00024
 11
24158.4629
 21
4080.00024
  0
INSERT
  8
2
  2
ARROWF
 10
24118.4941
 20
4080.00024
 41
1.00000000
 42
1.00000000
 43
1.00000000
 50
90.0000000
  0
INSERT
  8
2
  2
ARROWF
 10
24118.4941
 20
2580.00000
 41
1.00000000
 42
1.00000000
 43
1.00000000
 50
270.000000
  0
TEXT
  8
11
 7
SIMPLEX
 10
24078.5195
 20
4620.14014
 40
119.919968
  1
1500
 50
90.0002060
  0
LINE
  8
12
 10
23159.1328
 20
5580.00000
 11
24158.4629
 21
5580.00000
  0
INSERT
  8
2
  2
ARROWF
 10
24118.4941
 20
5580.00000
 41
1.00000000
 42
1.00000000
 43
1.00000000
 50
90.0000000
  0
INSERT
  8
2
  2
ARROWF
 10
24118.4941
 20
4080.00024
 41
1.00000000
 42
1.00000000
 43
1.00000000
 50
270.000000
  0
TEXT
  8
11
 7
SIMPLEX
 10
24078.5195
 20
6120.14014
 40
119.919968
  1
1500
 50
90.0002060
  0
LINE
  8
12
 10
23159.1328
 20
7080.00049
 11
24158.4629
 21
7080.00049
  0
INSERT
  8
2
  2
ARROWF
 10
24118.4941
 20
7080.00049
 41
1.00000000
 42
1.00000000
 43
1.00000000
 50
90.0000000
  0
INSERT
  8
2
  2
ARROWF
 10
24118.4941
 20
5580.00000
 41
1.00000000
 42
1.00000000
 43
1.00000000
 50
270.000000
  0
TEXT
  8
11
 7
SIMPLEX
 10
24078.5195
 20
7415.13965
 40
119.919968
  1
1090
 50
90.0002060
  0
LINE
  8
12
 10
23159.1328
 20
8169.99951
 11
24158.4629
 21
8169.99951
  0
INSERT
  8
2
  2
ARROWF
 10
24118.4941
 20
8169.99951
 41
1.00000000
 42
1.00000000
 43
1.00000000
 50
90.0000000
  0
INSERT
  8
2
  2
ARROWF
 10
24118.4941
 20
7080.00049
 41
1.00000000
 42
1.00000000
 43
1.00000000
 50
270.000000
  0
LINE
  8
12
 10
24458.2637
 20
8169.99951
 11
23159.1328
 21
8169.99951
  0
LINE
  8
2
 10
24418.2930
 20
0.00000000
 11
24418.2930
 21
8169.99951
  0
TEXT
  8
11
 7
SIMPLEX
 10
24378.3203
 20
3765.21313
 40
119.919968
  1
8170
 50
90.0002060
  0
LINE
  8
12
 10
24458.2637
 20
0.00000000
 11
23159.1328
 21
0.00000000
  0
INSERT
  8
2
  2
ARROWF
 10
24418.2930
 20
8169.99951
 41
1.00000000
 42
1.00000000
 43
1.00000000
 50
90.0000000
  0
INSERT
  8
2
  2
ARROWF
 10
24418.2930
 20
0.00000000
 41
1.00000000
 42
1.00000000
 43
1.00000000
 50
270.000000
  0
LINE
  8
12
 10
-45.441074
 20
8624.41016
 11
-151.31477
 21
9683.14648
  0
INSERT
  8
2
  2
ARROWF
 10
-140.90097
 20
9579.00781
 41
1.00000000
 42
1.00000000
 43
1.00000000
 50
185.710602
  0
LINE
  8
12
 10
10891.0127
 20
9718.05566
 11
10785.1396
 21
10776.7920
  0
INSERT
  8
2
  2
ARROWF
 10
10795.5537
 20
10672.6543
 41
1.00000000
 42
1.00000000
 43
1.00000000
 50
5.71059464
  0
TEXT
  8
11
 7
SIMPLEX
 10
4875.73145
 20
10120.8438
 40
119.919968
  1
7 @ 1570
 50
5.71059464
  0
INSERT
  8
2
  2
ARROWF
 10
10795.5537
 20
10672.6543
 41
1.00000000
 42
1.00000000
 43
1.00000000
 50
185.710602
  0
LINE
  8
12
 10
11189.5586
 20
9747.91016
 11
11083.6855
 21
10806.6475
  0
INSERT
  8
2
  2
ARROWF
 10
11094.0996
 20
10702.5088
 41
1.00000000
 42
1.00000000
 43
1.00000000
 50
5.71059464
  0
TEXT
  8
11
 7
SIMPLEX
 10
10692.3730
 20
10702.5088
 40
119.919968
  1
300
 50
5.71059464
  0
LINE
  8
2
 10
-140.90097
 20
9579.00781
 11
11094.0996
 21
10702.5088
  0
LINE
  8
2
 10
-81.238541
 20
8982.38477
 11
-187.11224
 21
10041.1221
  0
INSERT
  8
2
  2
ARROWF
 10
-176.69843
 20
9936.98340
 41
1.00000000
 42
1.00000000
 43
1.00000000
 50
185.710602
  0
LINE
  8
2
 10
11153.7617
 20
10105.8857
 11
11047.8877
 21
11164.6221
  0
INSERT
  8
2
  2
ARROWF
 10
11058.3018
 20
11060.4834
 41
1.00000000
 42
1.00000000
 43
1.00000000
 50
5.71059464
  0
LINE
  8
2
 10
-176.69843
 20
9936.98340
 11
11058.3018
 21
11060.4834
  0
TEXT
  8
11
 7
SIMPLEX
 10
5228.00537
 20
10517.6270
 40
119.919968
  1
11291
 50
5.71059464
  0
LINE
  8
12
 10
11280.4414
 20
9747.91016
 11
11386.3145
 21
10806.6475
  0
INSERT
  8
2
  2
ARROWF
 10
11375.9014
 20
10702.5088
 41
1.00000000
 42
1.00000000
 43
1.00000000
 50
174.289398
  0
LINE
  8
12
 10
11578.9531
 20
9718.05957
 11
11684.8262
 21
10776.7959
  0
INSERT
  8
2
  2
ARROWF
 10
11674.4131
 20
10672.6572
 41
1.00000000
 42
1.00000000
 43
1.00000000
 50
-5.7105947
  0
TEXT
  8
11
 7
SIMPLEX
 10
11419.6543
 20
10738.3066
 40
119.919968
  1
300
 50
-5.7105947
  0
INSERT
  8
2
  2
ARROWF
 10
11674.4131
 20
10672.6572
 41
1.00000000
 42
1.00000000
 43
1.00000000
 50
174.289398
  0
LINE
  8
12
 10
22515.4414
 20
8624.41016
 11
22621.3145
 21
9683.14648
  0
INSERT
  8
2
  2
ARROWF
 10
22610.9023
 20
9579.00781
 41
1.00000000
 42
1.00000000
 43
1.00000000
 50
-5.7105947
  0
TEXT
  8
11
 7
SIMPLEX
 10
16699.1230
 20
10210.3594
 40
119.919968
  1
7 @ 1570
 50
-5.7105947
  0
LINE
  8
2
 10
11375.9014
 20
10702.5088
 11
22610.9023
 21
9579.00781
  0
LINE
  8
2
 10
11316.2383
 20
10105.8857
 11
11422.1123
 21
11164.6221
  0
INSERT
  8
2
  2
ARROWF
 10
11411.6982
 20
11060.4834
 41
1.00000000
 42
1.00000000
 43
1.00000000
 50
174.289398
  0
LINE
  8
2
 10
22551.2383
 20
8982.38477
 11
22657.1133
 21
10041.1221
  0
INSERT
  8
2
  2
ARROWF
 10
22646.6973
 20
9936.98340
 41
1.00000000
 42
1.00000000
 43
1.00000000
 50
-5.7105947
  0
LINE
  8
2
 10
11411.6982
 20
11060.4834
 11
22646.6973
 21
9936.98340
  0
TEXT
  8
11
 7
SIMPLEX
 10
16824.3594
 20
10559.3906
 40
119.919968
  1
11291
 50
-5.7105947
  0
LINE
  8
2
 10
10137.4014
 20
9364.51758
 11
10155.2998
 21
9185.53027
  0
LINE
  8
2
 10
10193.1006
 20
8807.53516
 11
10175.2012
 21
8986.52246
  0
INSERT
  8
2
  2
ARROWF
 10
10155.2998
 20
9185.53027
 41
1.00000000
 42
1.00000000
 43
1.00000000
 50
275.710602
  0
INSERT
  8
2
  2
ARROWF
 10
10175.2012
 20
8986.52246
 41
1.00000000
 42
1.00000000
 43
1.00000000
 50
95.7105942
  0
TEXT
  8
11
 7
SIMPLEX
 10
10111.5479
 20
9221.32813
 40
119.919968
  1
200
 50
95.7105942
  0
LINE
  8
2
 10
12332.5645
 20
9364.52148
 11
12314.6650
 21
9185.53418
  0
LINE
  8
2
 10
12276.8652
 20
8807.53906
 11
12294.7637
 21
8986.52637
  0
INSERT
  8
2
  2
ARROWF
 10
12314.6650
 20
9185.53418
 41
1.00000000
 42
1.00000000
 43
1.00000000
 50
264.289398
  0
INSERT
  8
2
  2
ARROWF
 10
12294.7637
 20
8986.52637
 41
1.00000000
 42
1.00000000
 43
1.00000000
 50
84.2894058
  0
TEXT
  8
11
 7
SIMPLEX
 10
12278.8672
 20
9229.28613
 40
119.919968
  1
200
 50
84.2893982
  0
INSERT
  8
7
  2
CUTFRM
 10
11802.7676
 20
8320.42285
 41
-1.0000000
 42
33.6980820
 43
33.6980820
 50
174.289413
  0
CIRCLE
  8
7
 10
11793.2168
 20
8224.96387
 40
95.9359741
  0
TEXT
  8
7
 7
SIMPLEX
 10
11716.4688
 20
8186.58936
 40
76.7487793
  1
V2
 72
           1
 11
11793.2168
 21
8186.58936
 50
   0.000
  0
INSERT
  8
7
  2
ARROWPF
 10
11706.6074
 20
9190.24902
 41
-1.0000000
 42
1.00000000
 43
1.00000000
 50
354.289429
  0
INSERT
  8
7
  2
CUTFRM
 10
11480.7783
 20
304.804779
 41
-1.0000000
 42
19.3526268
 43
19.3526268
 50
-90.000000
  0
CIRCLE
  8
7
 10
11576.7139
 20
304.807343
 40
95.9359741
  0
TEXT
  8
7
 7
SIMPLEX
 10
11499.9648
 20
266.432922
 40
76.7487793
  1
S2
 72
           1
 11
11576.7139
 21
266.432922
 50
   0.000
  0
INSERT
  8
7
  2
ARROWPF
 10
10989.2256
 20
122.513512
 41
-1.0000000
 42
1.00000000
 43
1.00000000
 50
90.0000000
  0
INSERT
  8
7
  2
CUTFRM
 10
85.8241806
 20
7990.08887
 41
1.00000000
 42
41.9116783
 43
41.9116783
 50
90.0000000
  0
CIRCLE
  8
7
 10
-10.111792
 20
7990.09131
 40
95.9359741
  0
TEXT
  8
7
 7
SIMPLEX
 10
-86.860573
 20
7951.71631
 40
76.7487793
  1
U5
 72
           1
 11
-10.111792
 21
7951.71631
 50
   0.000
  0
INSERT
  8
7
  2
ARROWPF
 10
1150.37610
 20
7807.78320
 41
1.00000000
 42
1.00000000
 43
1.00000000
 50
270.000000
  0
INSERT
  8
7
  2
CUTFRM
 10
3736.56250
 20
7800.74902
 41
1.00000000
 42
26.9054661
 43
26.9054661
 50
185.710602
  0
CIRCLE
  8
7
 10
3746.10327
 20
7705.28809
 40
95.9359741
  0
TEXT
  8
7
 7
SIMPLEX
 10
3682.78564
 20
7666.91406
 40
76.7487793
  1
U1
 72
           1
 11
3746.10327
 21
7666.91406
 50
   0.000
  0
INSERT
  8
7
  2
ARROWPF
 10
3849.97339
 20
8498.88770
 41
1.00000000
 42
1.00000000
 43
1.00000000
 50
365.710602
  0
INSERT
  8
7
  2
CUTFRM
 10
22384.1797
 20
7990.06934
 41
-1.0000000
 42
41.9117088
 43
41.9117088
 50
270.000000
  0
CIRCLE
  8
7
 10
22480.1152
 20
7990.06201
 40
95.9359741
  0
TEXT
  8
7
 7
SIMPLEX
 10
22403.3652
 20
7951.68750
 40
76.7487793
  1
U5
 72
           1
 11
22480.1152
 21
7951.68750
 50
   0.000
  0
INSERT
  8
7
  2
ARROWPF
 10
21319.6074
 20
7807.87500
 41
-1.0000000
 42
1.00000000
 43
1.00000000
 50
450.000000
  0
INSERT
  8
7
  2
CUTFRM
 10
850.378296
 20
546.839844
 41
-1.0000000
 42
30.1006584
 43
30.1006584
 50
-90.000000
  0
CIRCLE
  8
7
 10
946.314331
 20
546.842346
 40
95.9359741
  0
TEXT
  8
7
 7
SIMPLEX
 10
864.960571
 20
516.142822
 40
61.3990135
  1
R10
 72
           1
 11
946.314331
 21
516.142822
 50
   0.000
  0
INSERT
  8
7
  2
ARROWPF
 10
85.8264008
 20
364.541351
 41
-1.0000000
 42
1.00000000
 43
1.00000000
 50
90.0000000
  0
INSERT
  8
7
  2
CUTFRM
 10
21619.6211
 20
546.839844
 41
1.00000000
 42
30.1006756
 43
30.1006756
 50
90.0000000
  0
CIRCLE
  8
7
 10
21523.6855
 20
546.842346
 40
95.9359741
  0
TEXT
  8
7
 7
SIMPLEX
 10
21442.3320
 20
516.142822
 40
61.3990135
  1
R10
 72
           1
 11
21523.6855
 21
516.142822
 50
   0.000
  0
INSERT
  8
7
  2
ARROWPF
 10
22384.1738
 20
364.541351
 41
1.00000000
 42
1.00000000
 43
1.00000000
 50
270.000000
  0
LINE
  8
1
 10
-399.45200
 20
10657.0381
 11
6098.73877
 21
11306.8574
  0
LINE
  8
1
 10
-403.24307
 20
10694.9482
 11
6094.94775
 21
11344.7676
  0
LINE
  8
1
 10
-399.45200
 20
10657.0381
 11
-403.24307
 21
10694.9482
  0
LINE
  8
1
 10
6098.73877
 20
11306.8574
 11
6094.94775
 21
11344.7676
  0
TEXT
  8
15
 7
SIMPLEX
 10
-65.350807
 20
10529.7607
 40
119.919968
  1
0.50mm 4525
 50
5.71059464
  0
TEXT
  8
11
 7
SIMPLEX
 10
2600.93726
 20
11035.7383
 40
119.919968
  1
6530
 50
5.71059464
  0
LINE
  8
12
 10
-408.45001
 20
10747.0176
 11
-423.96225
 21
10902.1396
  0
LINE
  8
12
 10
-259.19440
 20
10761.9434
 11
-274.70663
 21
10917.0654
  0
LINE
  8
2
 10
-597.74255
 20
10832.1719
 11
-418.75537
 21
10850.0713
  0
LINE
  8
2
 10
-269.49973
 20
10864.9961
 11
-90.512497
 21
10882.8955
  0
INSERT
  8
2
  2
ARROWF
 10
-418.75537
 20
10850.0713
 41
1.00000000
 42
1.00000000
 43
1.00000000
 50
365.710602
  0
INSERT
  8
2
  2
ARROWF
 10
-269.49973
 20
10864.9961
 41
1.00000000
 42
1.00000000
 43
1.00000000
 50
185.710602
  0
TEXT
  8
11
 7
SIMPLEX
 10
-273.47684
 20
10904.7676
 40
119.919968
  1
150
 50
5.71059464
  0
LINE
  8
1
 10
5884.56641
 20
11438.5996
 11
10969.6045
 21
11947.1035
  0
LINE
  8
1
 10
5880.77588
 20
11476.5098
 11
10965.8135
 21
11985.0137
  0
LINE
  8
1
 10
5884.56641
 20
11438.5996
 11
5880.77588
 21
11476.5098
  0
LINE
  8
1
 10
10969.6045
 20
11947.1035
 11
10965.8135
 21
11985.0137
  0
TEXT
  8
11
 7
SIMPLEX
 10
8238.14160
 20
11752.6191
 40
119.919968
  1
5110
 50
5.71059464
  0
LINE
  8
12
 10
5875.56787
 20
11528.5791
 11
5860.05566
 21
11683.7012
  0
LINE
  8
12
 10
5975.07178
 20
11538.5293
 11
5959.55957
 21
11693.6523
  0
LINE
  8
2
 10
5686.27588
 20
11613.7334
 11
5865.26270
 21
11631.6328
  0
LINE
  8
2
 10
5964.76660
 20
11641.5830
 11
6143.75342
 21
11659.4824
  0
INSERT
  8
2
  2
ARROWF
 10
5865.26270
 20
11631.6328
 41
1.00000000
 42
1.00000000
 43
1.00000000
 50
365.710602
  0
INSERT
  8
2
  2
ARROWF
 10
5964.76660
 20
11641.5830
 41
1.00000000
 42
1.00000000
 43
1.00000000
 50
185.710602
  0
TEXT
  8
11
 7
SIMPLEX
 10
5960.78955
 20
11681.3545
 40
119.919968
  1
100
 50
5.71059464
  0
LINE
  8
1
 10
11500.3604
 20
11947.1074
 11
16585.3984
 21
11438.6035
  0
LINE
  8
1
 10
11504.1523
 20
11985.0176
 11
16589.1895
 21
11476.5137
  0
LINE
  8
1
 10
11500.3604
 20
11947.1074
 11
11504.1523
 21
11985.0176
  0
LINE
  8
1
 10
16585.3984
 20
11438.6035
 11
16589.1895
 21
11476.5137
  0
TEXT
  8
11
 7
SIMPLEX
 10
13873.4492
 20
11788.4590
 40
119.919968
  1
5110
 50
-5.7105947
  0
LINE
  8
12
 10
16494.8926
 20
11538.5332
 11
16510.4043
 21
11693.6563
  0
LINE
  8
12
 10
16594.3965
 20
11528.5830
 11
16609.9082
 21
11683.7051
  0
LINE
  8
2
 10
16326.2100
 20
11659.4854
 11
16505.1973
 21
11641.5869
  0
LINE
  8
2
 10
16604.7012
 20
11631.6367
 11
16783.6875
 21
11613.7373
  0
INSERT
  8
2
  2
ARROWF
 10
16505.1973
 20
11641.5869
 41
1.00000000
 42
1.00000000
 43
1.00000000
 50
354.289398
  0
INSERT
  8
2
  2
ARROWF
 10
16604.7012
 20
11631.6367
 41
1.00000000
 42
1.00000000
 43
1.00000000
 50
174.289398
  0
TEXT
  8
11
 7
SIMPLEX
 10
16210.8604
 20
11711.1895
 40
119.919968
  1
100
 50
-5.7105947
  0
TEXT
  8
15
 7
SIMPLEX
 10
10971.1748
 20
12319.9365
 40
119.919968
  1
RC-01
 50
0.00000000
  0
LINE
  8
1
 10
11234.9990
 20
12279.9639
 11
10367.1816
 21
12193.1816
  0
LINE
  8
1
 10
10367.1816
 20
12193.1816
 11
10363.3906
 21
12155.2715
  0
LINE
  8
1
 10
11234.9990
 20
12279.9639
 11
12102.8154
 21
12193.1816
  0
LINE
  8
1
 10
12102.8154
 20
12193.1816
 11
12106.6064
 21
12155.2715
  0
LINE
  8
1
 10
10363.3906
 20
12155.2715
 11
11234.9990
 21
12242.4316
  0
LINE
  8
1
 10
12106.6064
 20
12155.2715
 11
11234.9990
 21
12242.4316
  0
LINE
  8
1
 10
16371.2275
 20
11306.8604
 11
22869.4512
 21
10657.0381
  0
LINE
  8
1
 10
16375.0195
 20
11344.7705
 11
22873.2441
 21
10694.9482
  0
LINE
  8
1
 10
16371.2275
 20
11306.8604
 11
16375.0195
 21
11344.7705
  0
LINE
  8
1
 10
22869.4512
 20
10657.0381
 11
22873.2441
 21
10694.9482
  0
TEXT
  8
11
 7
SIMPLEX
 10
19391.1309
 20
11083.5313
 40
119.919968
  1
6530
 50
-5.7105947
  0
LINE
  8
12
 10
22729.1934
 20
10761.9434
 11
22744.7051
 21
10917.0654
  0
LINE
  8
12
 10
22878.4492
 20
10747.0176
 11
22893.9629
 21
10902.1396
  0
LINE
  8
2
 10
22560.5117
 20
10882.8955
 11
22739.4980
 21
10864.9961
  0
LINE
  8
2
 10
22888.7539
 20
10850.0713
 11
23067.7422
 21
10832.1719
  0
INSERT
  8
2
  2
ARROWF
 10
22739.4980
 20
10864.9961
 41
1.00000000
 42
1.00000000
 43
1.00000000
 50
354.289398
  0
INSERT
  8
2
  2
ARROWF
 10
22888.7539
 20
10850.0713
 41
1.00000000
 42
1.00000000
 43
1.00000000
 50
174.289398
  0
TEXT
  8
11
 7
SIMPLEX
 10
22445.1621
 20
10934.5986
 40
119.919968
  1
150
 50
-5.7105947
  0
ENDBLK
  8
0
  0
BLOCK
  8
0
  2
EPBLK1
 70
     0
 10
0.00000000
 20
0.00000000
  0
LINE
  8
0
 10
0.00000000
 20
0.00000000
 11
0.00000000
 21
1744.29041
  0
LINE
  8
0
 10
0.00000000
 20
1744.29041
 11
858.410645
 21
1744.29041
  0
LINE
  8
0
 10
0.00000000
 20
0.00000000
 11
858.410645
 21
0.00000000
  0
LINE
  8
0
 10
858.410645
 20
1744.29041
 11
858.410645
 21
0.00000000
  0
TEXT
  8
11
 7
SIMPLEX
 10
14.9899950
 20
1699.32043
 40
29.9799900
  1
Bolt Dia=
 50
0.00000000
  0
TEXT
  8
11
 7
SIMPLEX
 10
14.9899950
 20
1661.84546
 40
29.9799900
  1
Plate Thk=
 50
0.00000000
  0
TEXT
  8
11
 7
SIMPLEX
 10
316.059906
 20
1699.32043
 40
29.9799900
  1
20
 50
0.00000000
  0
TEXT
  8
11
 7
SIMPLEX
 10
316.059906
 20
1661.84546
 40
29.9799900
  1
16
 50
0.00000000
  0
TEXT
  8
11
 7
SIMPLEX
 10
29.9799900
 20
14.9899950
 40
29.9799900
  1
SP1
 50
0.00000000
  0
LINE
  8
0
 10
321.903992
 20
505.844177
 11
321.903992
 21
1238.44604
  0
LINE
  8
0
 10
321.903992
 20
1238.44604
 11
536.506653
 21
1238.44604
  0
LINE
  8
0
 10
536.506653
 20
1238.44604
 11
536.506653
 21
505.844177
  0
LINE
  8
0
 10
321.903992
 20
505.844177
 11
536.506653
 21
505.844177
  0
CIRCLE
  8
0
 10
375.554657
 20
1165.18591
 40
7.49499796
  0
CIRCLE
  8
0
 10
482.855988
 20
1165.18591
 40
7.49499796
  0
CIRCLE
  8
0
 10
375.554657
 20
1018.66553
 40
7.49499796
  0
CIRCLE
  8
0
 10
482.855988
 20
1018.66553
 40
7.49499796
  0
CIRCLE
  8
0
 10
375.554657
 20
725.624817
 40
7.49499796
  0
CIRCLE
  8
0
 10
482.855988
 20
725.624817
 40
7.49499796
  0
CIRCLE
  8
0
 10
375.554657
 20
579.104431
 40
7.49499796
  0
CIRCLE
  8
0
 10
482.855988
 20
579.104431
 40
7.49499796
  0
LINE
  8
0
 10
415.578033
 20
1099.25171
 11
415.578033
 21
1223.55957
  0
LINE
  8
0
 10
415.578033
 20
1223.55957
 11
442.832611
 21
1223.55957
  0
LINE
  8
0
 10
442.832611
 20
1223.55957
 11
442.832611
 21
1099.25171
  0
LINE
  8
0
 10
415.578033
 20
645.038452
 11
415.578033
 21
520.730713
  0
LINE
  8
0
 10
415.578033
 20
520.730713
 11
442.832611
 21
520.730713
  0
LINE
  8
0
 10
442.832611
 20
520.730713
 11
442.832611
 21
645.038452
  0
LINE
  8
2
 10
608.822022
 20
445.944183
 11
608.822022
 21
505.844177
  0
LINE
  8
2
 10
608.822022
 20
579.104431
 11
608.822022
 21
639.004456
  0
INSERT
  8
2
  2
ARROWF
 10
608.822022
 20
505.844177
 41
0.33300000
 42
0.33300000
 43
0.33300000
 50
450.000000
  0
INSERT
  8
2
  2
ARROWF
 10
608.822022
 20
579.104431
 41
0.33300000
 42
0.33300000
 43
0.33300000
 50
270.000000
  0
LINE
  8
2
 10
588.835388
 20
579.104431
 11
618.815369
 21
579.104431
  0
LINE
  8
2
 10
588.835388
 20
505.844177
 11
618.815369
 21
505.844177
  0
TEXT
  8
11
 7
SIMPLEX
 10
623.812012
 20
527.484375
 40
29.9799900
  1
50
 50
0.00000000
  0
LINE
  8
2
 10
608.822022
 20
579.104431
 11
608.822022
 21
725.624817
  0
INSERT
  8
2
  2
ARROWF
 10
608.822022
 20
579.104431
 41
0.33300000
 42
0.33300000
 43
0.33300000
 50
270.000000
  0
INSERT
  8
2
  2
ARROWF
 10
608.822022
 20
725.624817
 41
0.33300000
 42
0.33300000
 43
0.33300000
 50
89.9999847
  0
LINE
  8
2
 10
588.835388
 20
725.624817
 11
618.815369
 21
725.624817
  0
LINE
  8
2
 10
588.835388
 20
579.104431
 11
618.815369
 21
579.104431
  0
TEXT
  8
11
 7
SIMPLEX
 10
623.812012
 20
637.374634
 40
29.9799900
  1
100
 50
0.00000000
  0
LINE
  8
2
 10
608.822022
 20
725.624817
 11
608.822022
 21
1018.66553
  0
INSERT
  8
2
  2
ARROWF
 10
608.822022
 20
725.624817
 41
0.33300000
 42
0.33300000
 43
0.33300000
 50
270.000000
  0
INSERT
  8
2
  2
ARROWF
 10
608.822022
 20
1018.66553
 41
0.33300000
 42
0.33300000
 43
0.33300000
 50
89.9999847
  0
LINE
  8
2
 10
588.835388
 20
1018.66553
 11
618.815369
 21
1018.66553
  0
LINE
  8
2
 10
588.835388
 20
725.624817
 11
618.815369
 21
725.624817
  0
TEXT
  8
11
 7
SIMPLEX
 10
623.812012
 20
857.155212
 40
29.9799900
  1
200
 50
0.00000000
  0
LINE
  8
2
 10
608.822022
 20
1018.66553
 11
608.822022
 21
1165.18591
  0
INSERT
  8
2
  2
ARROWF
 10
608.822022
 20
1018.66553
 41
0.33300000
 42
0.33300000
 43
0.33300000
 50
270.000000
  0
INSERT
  8
2
  2
ARROWF
 10
608.822022
 20
1165.18591
 41
0.33300000
 42
0.33300000
 43
0.33300000
 50
89.9999847
  0
LINE
  8
2
 10
588.835388
 20
1165.18591
 11
618.815369
 21
1165.18591
  0
LINE
  8
2
 10
588.835388
 20
1018.66553
 11
618.815369
 21
1018.66553
  0
TEXT
  8
11
 7
SIMPLEX
 10
623.812012
 20
1076.93579
 40
29.9799900
  1
100
 50
0.00000000
  0
LINE
  8
2
 10
608.822022
 20
1105.28589
 11
608.822022
 21
1165.18591
  0
LINE
  8
2
 10
608.822022
 20
1238.44604
 11
608.822022
 21
1298.34607
  0
INSERT
  8
2
  2
ARROWF
 10
608.822022
 20
1165.18591
 41
0.33300000
 42
0.33300000
 43
0.33300000
 50
450.000000
  0
INSERT
  8
2
  2
ARROWF
 10
608.822022
 20
1238.44604
 41
0.33300000
 42
0.33300000
 43
0.33300000
 50
270.000000
  0
LINE
  8
2
 10
588.835388
 20
1238.44604
 11
618.815369
 21
1238.44604
  0
LINE
  8
2
 10
588.835388
 20
1165.18591
 11
618.815369
 21
1165.18591
  0
TEXT
  8
11
 7
SIMPLEX
 10
623.812012
 20
1186.82605
 40
29.9799900
  1
50
 50
0.00000000
  0
LINE
  8
2
 10
375.554657
 20
433.528870
 11
482.856018
 21
433.528870
  0
LINE
  8
2
 10
375.554657
 20
453.515533
 11
375.554657
 21
423.535522
  0
LINE
  8
2
 10
482.856018
 20
453.515533
 11
482.856018
 21
423.535522
  0
INSERT
  8
2
  2
ARROWF
 10
375.554657
 20
433.528870
 41
0.33300000
 42
0.33300000
 43
0.33300000
 50
180.000000
  0
INSERT
  8
2
  2
ARROWF
 10
482.856018
 20
433.528870
 41
0.33300000
 42
0.33300000
 43
0.33300000
 50
0.00000000
  0
TEXT
  8
11
 7
SIMPLEX
 10
395.477844
 20
396.053864
 40
29.9799900
  1
100
 50
0.00000000
  0
LINE
  8
2
 10
249.588608
 20
505.844177
 11
249.588608
 21
645.038574
  0
INSERT
  8
2
  2
ARROWF
 10
249.588608
 20
505.844177
 41
0.33300000
 42
0.33300000
 43
0.33300000
 50
270.000000
  0
INSERT
  8
2
  2
ARROWF
 10
249.588608
 20
645.038574
 41
0.33300000
 42
0.33300000
 43
0.33300000
 50
89.9999847
  0
LINE
  8
2
 10
239.595276
 20
645.038574
 11
269.575287
 21
645.038574
  0
LINE
  8
2
 10
239.595276
 20
505.844177
 11
269.575287
 21
505.844177
  0
TEXT
  8
11
 7
SIMPLEX
 10
182.133652
 20
560.451416
 40
29.9799900
  1
95
 72
           2
 11
242.093628
 21
575.441406
 73
           2
 50
   0.000
  0
LINE
  8
2
 10
249.588608
 20
645.038574
 11
249.588608
 21
1099.25183
  0
INSERT
  8
2
  2
ARROWF
 10
249.588608
 20
645.038574
 41
0.33300000
 42
0.33300000
 43
0.33300000
 50
270.000000
  0
INSERT
  8
2
  2
ARROWF
 10
249.588608
 20
1099.25183
 41
0.33300000
 42
0.33300000
 43
0.33300000
 50
89.9999847
  0
LINE
  8
2
 10
239.595276
 20
1099.25183
 11
269.575287
 21
1099.25183
  0
LINE
  8
2
 10
239.595276
 20
645.038574
 11
269.575287
 21
645.038574
  0
TEXT
  8
11
 7
SIMPLEX
 10
212.113617
 20
832.421753
 40
29.9799900
  1
310
 72
           1
 11
242.093628
 21
872.145203
 73
           1
 50
  90.000
  0
LINE
  8
2
 10
249.588608
 20
1099.25183
 11
249.588608
 21
1238.44604
  0
INSERT
  8
2
  2
ARROWF
 10
249.588608
 20
1099.25183
 41
0.33300000
 42
0.33300000
 43
0.33300000
 50
270.000000
  0
INSERT
  8
2
  2
ARROWF
 10
249.588608
 20
1238.44604
 41
0.33300000
 42
0.33300000
 43
0.33300000
 50
89.9999847
  0
LINE
  8
2
 10
239.595276
 20
1238.44604
 11
269.575287
 21
1238.44604
  0
LINE
  8
2
 10
239.595276
 20
1099.25183
 11
269.575287
 21
1099.25183
  0
TEXT
  8
11
 7
SIMPLEX
 10
182.133652
 20
1153.85901
 40
29.9799900
  1
95
 72
           2
 11
242.093628
 21
1168.84900
 73
           2
 50
   0.000
  0
LINE
  8
2
 10
132.030701
 20
505.844177
 11
162.010696
 21
505.844177
  0
LINE
  8
2
 10
132.030701
 20
1238.44604
 11
162.010696
 21
1238.44604
  0
LINE
  8
2
 10
142.024033
 20
505.844177
 11
142.024033
 21
1238.44604
  0
INSERT
  8
2
  2
ARROWF
 10
142.024033
 20
505.844177
 41
0.33300000
 42
0.33300000
 43
0.33300000
 50
270.000000
  0
INSERT
  8
2
  2
ARROWF
 10
142.024033
 20
1238.44604
 41
0.33300000
 42
0.33300000
 43
0.33300000
 50
90.0000000
  0
TEXT
  8
11
 7
SIMPLEX
 10
134.529038
 20
838.417725
 40
29.9799900
  1
500
 50
90.0000000
  0
LINE
  8
2
 10
321.903992
 20
1310.76147
 11
536.506653
 21
1310.76147
  0
LINE
  8
2
 10
321.903992
 20
1320.75476
 11
321.903992
 21
1290.77478
  0
LINE
  8
2
 10
536.506653
 20
1320.75476
 11
536.506653
 21
1290.77478
  0
INSERT
  8
2
  2
ARROWF
 10
321.903992
 20
1310.76147
 41
0.33300000
 42
0.33300000
 43
0.33300000
 50
180.000000
  0
INSERT
  8
2
  2
ARROWF
 10
536.506653
 20
1310.76147
 41
0.33300000
 42
0.33300000
 43
0.33300000
 50
0.00000000
  0
TEXT
  8
11
 7
SIMPLEX
 10
395.477844
 20
1318.25647
 40
29.9799900
  1
200
 50
0.00000000
  0
LINE
  8
0
 10
348.729309
 20
645.038574
 11
509.681335
 21
645.038574
  0
LINE
  8
0
 10
348.729309
 20
672.293091
 11
509.681335
 21
672.293091
  0
LINE
  8
0
 10
348.729309
 20
645.038574
 11
348.729309
 21
672.293091
  0
LINE
  8
0
 10
509.681335
 20
645.038574
 11
509.681335
 21
672.293091
  0
LINE
  8
0
 10
348.729309
 20
1099.25171
 11
509.681335
 21
1099.25171
  0
LINE
  8
0
 10
348.729309
 20
1071.99719
 11
509.681335
 21
1071.99719
  0
LINE
  8
0
 10
348.729309
 20
1099.25171
 11
348.729309
 21
1071.99719
  0
LINE
  8
0
 10
509.681335
 20
1099.25171
 11
509.681335
 21
1071.99719
  0
LINE
  8
0
 10
442.832611
 20
672.293091
 11
442.832611
 21
1071.99719
  0
LINE
  8
0
 10
415.578033
 20
672.293091
 11
415.578033
 21
1071.99719
  0
ENDBLK
  8
0
  0
BLOCK
  8
0
  2
EPBLK2
 70
     0
 10
0.00000000
 20
0.00000000
  0
LINE
  8
0
 10
0.00000000
 20
0.00000000
 11
0.00000000
 21
1744.29041
  0
LINE
  8
0
 10
0.00000000
 20
1744.29041
 11
858.410645
 21
1744.29041
  0
LINE
  8
0
 10
0.00000000
 20
0.00000000
 11
858.410645
 21
0.00000000
  0
LINE
  8
0
 10
858.410645
 20
1744.29041
 11
858.410645
 21
0.00000000
  0
TEXT
  8
11
 7
SIMPLEX
 10
14.9899950
 20
1699.32043
 40
29.9799900
  1
Bolt Dia=
 50
0.00000000
  0
TEXT
  8
11
 7
SIMPLEX
 10
14.9899950
 20
1661.84546
 40
29.9799900
  1
Plate Thk=
 50
0.00000000
  0
TEXT
  8
11
 7
SIMPLEX
 10
316.059906
 20
1699.32043
 40
29.9799900
  1
20
 50
0.00000000
  0
TEXT
  8
11
 7
SIMPLEX
 10
316.059906
 20
1661.84546
 40
29.9799900
  1
16
 50
0.00000000
  0
TEXT
  8
11
 7
SIMPLEX
 10
29.9799900
 20
14.9899950
 40
29.9799900
  1
SP2
 50
0.00000000
  0
LINE
  8
0
 10
321.903992
 20
505.844177
 11
321.903992
 21
1238.44604
  0
LINE
  8
0
 10
321.903992
 20
1238.44604
 11
536.506653
 21
1238.44604
  0
LINE
  8
0
 10
536.506653
 20
1238.44604
 11
536.506653
 21
505.844177
  0
LINE
  8
0
 10
321.903992
 20
505.844177
 11
536.506653
 21
505.844177
  0
CIRCLE
  8
0
 10
375.554657
 20
1165.18591
 40
7.49499796
  0
CIRCLE
  8
0
 10
482.855988
 20
1165.18591
 40
7.49499796
  0
CIRCLE
  8
0
 10
375.554657
 20
1018.66553
 40
7.49499796
  0
CIRCLE
  8
0
 10
482.855988
 20
1018.66553
 40
7.49499796
  0
CIRCLE
  8
0
 10
375.554657
 20
725.624817
 40
7.49499796
  0
CIRCLE
  8
0
 10
482.855988
 20
725.624817
 40
7.49499796
  0
CIRCLE
  8
0
 10
375.554657
 20
579.104431
 40
7.49499796
  0
CIRCLE
  8
0
 10
482.855988
 20
579.104431
 40
7.49499796
  0
LINE
  8
0
 10
415.578033
 20
1099.25171
 11
415.578033
 21
1223.55957
  0
LINE
  8
0
 10
415.578033
 20
1223.55957
 11
442.832611
 21
1223.55957
  0
LINE
  8
0
 10
442.832611
 20
1223.55957
 11
442.832611
 21
1099.25171
  0
LINE
  8
0
 10
415.578033
 20
645.038452
 11
415.578033
 21
520.730713
  0
LINE
  8
0
 10
415.578033
 20
520.730713
 11
442.832611
 21
520.730713
  0
LINE
  8
0
 10
442.832611
 20
520.730713
 11
442.832611
 21
645.038452
  0
LINE
  8
2
 10
608.822022
 20
445.944183
 11
608.822022
 21
505.844177
  0
LINE
  8
2
 10
608.822022
 20
579.104431
 11
608.822022
 21
639.004456
  0
INSERT
  8
2
  2
ARROWF
 10
608.822022
 20
505.844177
 41
0.33300000
 42
0.33300000
 43
0.33300000
 50
450.000000
  0
INSERT
  8
2
  2
ARROWF
 10
608.822022
 20
579.104431
 41
0.33300000
 42
0.33300000
 43
0.33300000
 50
270.000000
  0
LINE
  8
2
 10
588.835388
 20
579.104431
 11
618.815369
 21
579.104431
  0
LINE
  8
2
 10
588.835388
 20
505.844177
 11
618.815369
 21
505.844177
  0
TEXT
  8
11
 7
SIMPLEX
 10
623.812012
 20
527.484375
 40
29.9799900
  1
50
 50
0.00000000
  0
LINE
  8
2
 10
608.822022
 20
579.104431
 11
608.822022
 21
725.624817
  0
INSERT
  8
2
  2
ARROWF
 10
608.822022
 20
579.104431
 41
0.33300000
 42
0.33300000
 43
0.33300000
 50
270.000000
  0
INSERT
  8
2
  2
ARROWF
 10
608.822022
 20
725.624817
 41
0.33300000
 42
0.33300000
 43
0.33300000
 50
89.9999847
  0
LINE
  8
2
 10
588.835388
 20
725.624817
 11
618.815369
 21
725.624817
  0
LINE
  8
2
 10
588.835388
 20
579.104431
 11
618.815369
 21
579.104431
  0
TEXT
  8
11
 7
SIMPLEX
 10
623.812012
 20
637.374634
 40
29.9799900
  1
100
 50
0.00000000
  0
LINE
  8
2
 10
608.822022
 20
725.624817
 11
608.822022
 21
1018.66553
  0
INSERT
  8
2
  2
ARROWF
 10
608.822022
 20
725.624817
 41
0.33300000
 42
0.33300000
 43
0.33300000
 50
270.000000
  0
INSERT
  8
2
  2
ARROWF
 10
608.822022
 20
1018.66553
 41
0.33300000
 42
0.33300000
 43
0.33300000
 50
89.9999847
  0
LINE
  8
2
 10
588.835388
 20
1018.66553
 11
618.815369
 21
1018.66553
  0
LINE
  8
2
 10
588.835388
 20
725.624817
 11
618.815369
 21
725.624817
  0
TEXT
  8
11
 7
SIMPLEX
 10
623.812012
 20
857.155212
 40
29.9799900
  1
200
 50
0.00000000
  0
LINE
  8
2
 10
608.822022
 20
1018.66553
 11
608.822022
 21
1165.18591
  0
INSERT
  8
2
  2
ARROWF
 10
608.822022
 20
1018.66553
 41
0.33300000
 42
0.33300000
 43
0.33300000
 50
270.000000
  0
INSERT
  8
2
  2
ARROWF
 10
608.822022
 20
1165.18591
 41
0.33300000
 42
0.33300000
 43
0.33300000
 50
89.9999847
  0
LINE
  8
2
 10
588.835388
 20
1165.18591
 11
618.815369
 21
1165.18591
  0
LINE
  8
2
 10
588.835388
 20
1018.66553
 11
618.815369
 21
1018.66553
  0
TEXT
  8
11
 7
SIMPLEX
 10
623.812012
 20
1076.93579
 40
29.9799900
  1
100
 50
0.00000000
  0
LINE
  8
2
 10
608.822022
 20
1105.28589
 11
608.822022
 21
1165.18591
  0
LINE
  8
2
 10
608.822022
 20
1238.44604
 11
608.822022
 21
1298.34607
  0
INSERT
  8
2
  2
ARROWF
 10
608.822022
 20
1165.18591
 41
0.33300000
 42
0.33300000
 43
0.33300000
 50
450.000000
  0
INSERT
  8
2
  2
ARROWF
 10
608.822022
 20
1238.44604
 41
0.33300000
 42
0.33300000
 43
0.33300000
 50
270.000000
  0
LINE
  8
2
 10
588.835388
 20
1238.44604
 11
618.815369
 21
1238.44604
  0
LINE
  8
2
 10
588.835388
 20
1165.18591
 11
618.815369
 21
1165.18591
  0
TEXT
  8
11
 7
SIMPLEX
 10
623.812012
 20
1186.82605
 40
29.9799900
  1
50
 50
0.00000000
  0
LINE
  8
2
 10
375.554657
 20
433.528870
 11
482.856018
 21
433.528870
  0
LINE
  8
2
 10
375.554657
 20
453.515533
 11
375.554657
 21
423.535522
  0
LINE
  8
2
 10
482.856018
 20
453.515533
 11
482.856018
 21
423.535522
  0
INSERT
  8
2
  2
ARROWF
 10
375.554657
 20
433.528870
 41
0.33300000
 42
0.33300000
 43
0.33300000
 50
180.000000
  0
INSERT
  8
2
  2
ARROWF
 10
482.856018
 20
433.528870
 41
0.33300000
 42
0.33300000
 43
0.33300000
 50
0.00000000
  0
TEXT
  8
11
 7
SIMPLEX
 10
395.477844
 20
396.053864
 40
29.9799900
  1
100
 50
0.00000000
  0
LINE
  8
2
 10
249.588608
 20
505.844177
 11
249.588608
 21
645.038574
  0
INSERT
  8
2
  2
ARROWF
 10
249.588608
 20
505.844177
 41
0.33300000
 42
0.33300000
 43
0.33300000
 50
270.000000
  0
INSERT
  8
2
  2
ARROWF
 10
249.588608
 20
645.038574
 41
0.33300000
 42
0.33300000
 43
0.33300000
 50
89.9999847
  0
LINE
  8
2
 10
239.595276
 20
645.038574
 11
269.575287
 21
645.038574
  0
LINE
  8
2
 10
239.595276
 20
505.844177
 11
269.575287
 21
505.844177
  0
TEXT
  8
11
 7
SIMPLEX
 10
182.133652
 20
560.451416
 40
29.9799900
  1
95
 72
           2
 11
242.093628
 21
575.441406
 73
           2
 50
   0.000
  0
LINE
  8
2
 10
249.588608
 20
645.038574
 11
249.588608
 21
1099.25183
  0
INSERT
  8
2
  2
ARROWF
 10
249.588608
 20
645.038574
 41
0.33300000
 42
0.33300000
 43
0.33300000
 50
270.000000
  0
INSERT
  8
2
  2
ARROWF
 10
249.588608
 20
1099.25183
 41
0.33300000
 42
0.33300000
 43
0.33300000
 50
89.9999847
  0
LINE
  8
2
 10
239.595276
 20
1099.25183
 11
269.575287
 21
1099.25183
  0
LINE
  8
2
 10
239.595276
 20
645.038574
 11
269.575287
 21
645.038574
  0
TEXT
  8
11
 7
SIMPLEX
 10
212.113617
 20
832.421753
 40
29.9799900
  1
310
 72
           1
 11
242.093628
 21
872.145203
 73
           1
 50
  90.000
  0
LINE
  8
2
 10
249.588608
 20
1099.25183
 11
249.588608
 21
1238.44604
  0
INSERT
  8
2
  2
ARROWF
 10
249.588608
 20
1099.25183
 41
0.33300000
 42
0.33300000
 43
0.33300000
 50
270.000000
  0
INSERT
  8
2
  2
ARROWF
 10
249.588608
 20
1238.44604
 41
0.33300000
 42
0.33300000
 43
0.33300000
 50
89.9999847
  0
LINE
  8
2
 10
239.595276
 20
1238.44604
 11
269.575287
 21
1238.44604
  0
LINE
  8
2
 10
239.595276
 20
1099.25183
 11
269.575287
 21
1099.25183
  0
TEXT
  8
11
 7
SIMPLEX
 10
182.133652
 20
1153.85901
 40
29.9799900
  1
95
 72
           2
 11
242.093628
 21
1168.84900
 73
           2
 50
   0.000
  0
LINE
  8
2
 10
132.030701
 20
505.844177
 11
162.010696
 21
505.844177
  0
LINE
  8
2
 10
132.030701
 20
1238.44604
 11
162.010696
 21
1238.44604
  0
LINE
  8
2
 10
142.024033
 20
505.844177
 11
142.024033
 21
1238.44604
  0
INSERT
  8
2
  2
ARROWF
 10
142.024033
 20
505.844177
 41
0.33300000
 42
0.33300000
 43
0.33300000
 50
270.000000
  0
INSERT
  8
2
  2
ARROWF
 10
142.024033
 20
1238.44604
 41
0.33300000
 42
0.33300000
 43
0.33300000
 50
90.0000000
  0
TEXT
  8
11
 7
SIMPLEX
 10
134.529038
 20
838.417725
 40
29.9799900
  1
500
 50
90.0000000
  0
LINE
  8
2
 10
321.903992
 20
1310.76147
 11
536.506653
 21
1310.76147
  0
LINE
  8
2
 10
321.903992
 20
1320.75476
 11
321.903992
 21
1290.77478
  0
LINE
  8
2
 10
536.506653
 20
1320.75476
 11
536.506653
 21
1290.77478
  0
INSERT
  8
2
  2
ARROWF
 10
321.903992
 20
1310.76147
 41
0.33300000
 42
0.33300000
 43
0.33300000
 50
180.000000
  0
INSERT
  8
2
  2
ARROWF
 10
536.506653
 20
1310.76147
 41
0.33300000
 42
0.33300000
 43
0.33300000
 50
0.00000000
  0
TEXT
  8
11
 7
SIMPLEX
 10
395.477844
 20
1318.25647
 40
29.9799900
  1
200
 50
0.00000000
  0
LINE
  8
0
 10
348.729309
 20
645.038574
 11
509.681335
 21
645.038574
  0
LINE
  8
0
 10
348.729309
 20
672.293091
 11
509.681335
 21
672.293091
  0
LINE
  8
0
 10
348.729309
 20
645.038574
 11
348.729309
 21
672.293091
  0
LINE
  8
0
 10
509.681335
 20
645.038574
 11
509.681335
 21
672.293091
  0
LINE
  8
0
 10
348.729309
 20
1099.25171
 11
509.681335
 21
1099.25171
  0
LINE
  8
0
 10
348.729309
 20
1071.99719
 11
509.681335
 21
1071.99719
  0
LINE
  8
0
 10
348.729309
 20
1099.25171
 11
348.729309
 21
1071.99719
  0
LINE
  8
0
 10
509.681335
 20
1099.25171
 11
509.681335
 21
1071.99719
  0
LINE
  8
0
 10
442.832611
 20
672.293091
 11
442.832611
 21
1071.99719
  0
LINE
  8
0
 10
415.578033
 20
672.293091
 11
415.578033
 21
1071.99719
  0
ENDBLK
  8
0
  0
BLOCK
  8
0
  2
EPBLK3
 70
     0
 10
0.00000000
 20
0.00000000
  0
LINE
  8
0
 10
0.00000000
 20
0.00000000
 11
0.00000000
 21
1744.29041
  0
LINE
  8
0
 10
0.00000000
 20
1744.29041
 11
858.410645
 21
1744.29041
  0
LINE
  8
0
 10
0.00000000
 20
0.00000000
 11
858.410645
 21
0.00000000
  0
LINE
  8
0
 10
858.410645
 20
1744.29041
 11
858.410645
 21
0.00000000
  0
TEXT
  8
11
 7
SIMPLEX
 10
14.9899950
 20
1699.32043
 40
29.9799900
  1
Bolt Dia=
 50
0.00000000
  0
TEXT
  8
11
 7
SIMPLEX
 10
14.9899950
 20
1661.84546
 40
29.9799900
  1
Plate Thk=
 50
0.00000000
  0
TEXT
  8
11
 7
SIMPLEX
 10
316.059906
 20
1699.32043
 40
29.9799900
  1
20
 50
0.00000000
  0
TEXT
  8
11
 7
SIMPLEX
 10
316.059906
 20
1661.84546
 40
29.9799900
  1
16
 50
0.00000000
  0
TEXT
  8
11
 7
SIMPLEX
 10
29.9799900
 20
14.9899950
 40
29.9799900
  1
BP1
 50
0.00000000
  0
LINE
  8
0
 10
321.903992
 20
462.347412
 11
321.903992
 21
1281.94299
  0
LINE
  8
0
 10
321.903992
 20
1281.94299
 11
536.506653
 21
1281.94299
  0
LINE
  8
0
 10
536.506653
 20
1281.94299
 11
536.506653
 21
462.347412
  0
LINE
  8
0
 10
321.903992
 20
462.347412
 11
536.506653
 21
462.347412
  0
CIRCLE
  8
0
 10
375.554657
 20
1194.72839
 40
7.49499796
  0
CIRCLE
  8
0
 10
482.855988
 20
1194.72839
 40
7.49499796
  0
CIRCLE
  8
0
 10
375.554657
 20
1020.29944
 40
7.49499796
  0
CIRCLE
  8
0
 10
482.855988
 20
1020.29944
 40
7.49499796
  0
CIRCLE
  8
0
 10
375.554657
 20
723.990967
 40
7.49499796
  0
CIRCLE
  8
0
 10
482.855988
 20
723.990967
 40
7.49499796
  0
CIRCLE
  8
0
 10
375.554657
 20
549.561890
 40
7.49499796
  0
CIRCLE
  8
0
 10
482.855988
 20
549.561890
 40
7.49499796
  0
LINE
  8
0
 10
415.578033
 20
1111.00256
 11
415.578033
 21
1270.12842
  0
LINE
  8
0
 10
415.578033
 20
1270.12842
 11
442.832611
 21
1270.12842
  0
LINE
  8
0
 10
442.832611
 20
1270.12842
 11
442.832611
 21
1111.00256
  0
LINE
  8
0
 10
415.578033
 20
631.880920
 11
415.578033
 21
474.162048
  0
LINE
  8
0
 10
415.578033
 20
474.162048
 11
442.832611
 21
474.162048
  0
LINE
  8
0
 10
442.832611
 20
474.162048
 11
442.832611
 21
631.880920
  0
LINE
  8
2
 10
608.822022
 20
462.347412
 11
608.822022
 21
549.561890
  0
INSERT
  8
2
  2
ARROWF
 10
608.822022
 20
462.347412
 41
0.33300000
 42
0.33300000
 43
0.33300000
 50
270.000000
  0
INSERT
  8
2
  2
ARROWF
 10
608.822022
 20
549.561890
 41
0.33300000
 42
0.33300000
 43
0.33300000
 50
89.9999847
  0
LINE
  8
2
 10
588.835388
 20
549.561890
 11
618.815369
 21
549.561890
  0
LINE
  8
2
 10
588.835388
 20
462.347412
 11
618.815369
 21
462.347412
  0
TEXT
  8
11
 7
SIMPLEX
 10
623.812012
 20
490.964691
 40
29.9799900
  1
75
 50
0.00000000
  0
LINE
  8
2
 10
608.822022
 20
549.561890
 11
608.822022
 21
723.990967
  0
INSERT
  8
2
  2
ARROWF
 10
608.822022
 20
549.561890
 41
0.33300000
 42
0.33300000
 43
0.33300000
 50
270.000000
  0
INSERT
  8
2
  2
ARROWF
 10
608.822022
 20
723.990967
 41
0.33300000
 42
0.33300000
 43
0.33300000
 50
89.9999847
  0
LINE
  8
2
 10
588.835388
 20
723.990967
 11
618.815369
 21
723.990967
  0
LINE
  8
2
 10
588.835388
 20
549.561890
 11
618.815369
 21
549.561890
  0
TEXT
  8
11
 7
SIMPLEX
 10
623.812012
 20
621.786438
 40
29.9799900
  1
150
 50
0.00000000
  0
LINE
  8
2
 10
608.822022
 20
723.990967
 11
608.822022
 21
1020.29944
  0
INSERT
  8
2
  2
ARROWF
 10
608.822022
 20
723.990967
 41
0.33300000
 42
0.33300000
 43
0.33300000
 50
270.000000
  0
INSERT
  8
2
  2
ARROWF
 10
608.822022
 20
1020.29944
 41
0.33300000
 42
0.33300000
 43
0.33300000
 50
89.9999847
  0
LINE
  8
2
 10
588.835388
 20
1020.29944
 11
618.815369
 21
1020.29944
  0
LINE
  8
2
 10
588.835388
 20
723.990967
 11
618.815369
 21
723.990967
  0
TEXT
  8
11
 7
SIMPLEX
 10
623.812012
 20
857.155212
 40
29.9799900
  1
255
 50
0.00000000
  0
LINE
  8
2
 10
608.822022
 20
1020.29944
 11
608.822022
 21
1194.72839
  0
INSERT
  8
2
  2
ARROWF
 10
608.822022
 20
1020.29944
 41
0.33300000
 42
0.33300000
 43
0.33300000
 50
270.000000
  0
INSERT
  8
2
  2
ARROWF
 10
608.822022
 20
1194.72839
 41
0.33300000
 42
0.33300000
 43
0.33300000
 50
89.9999847
  0
LINE
  8
2
 10
588.835388
 20
1194.72839
 11
618.815369
 21
1194.72839
  0
LINE
  8
2
 10
588.835388
 20
1020.29944
 11
618.815369
 21
1020.29944
  0
TEXT
  8
11
 7
SIMPLEX
 10
623.812012
 20
1092.52405
 40
29.9799900
  1
150
 50
0.00000000
  0
LINE
  8
2
 10
608.822022
 20
1194.72839
 11
608.822022
 21
1281.94299
  0
INSERT
  8
2
  2
ARROWF
 10
608.822022
 20
1194.72839
 41
0.33300000
 42
0.33300000
 43
0.33300000
 50
270.000000
  0
INSERT
  8
2
  2
ARROWF
 10
608.822022
 20
1281.94299
 41
0.33300000
 42
0.33300000
 43
0.33300000
 50
89.9999847
  0
LINE
  8
2
 10
588.835388
 20
1281.94299
 11
618.815369
 21
1281.94299
  0
LINE
  8
2
 10
588.835388
 20
1194.72839
 11
618.815369
 21
1194.72839
  0
TEXT
  8
11
 7
SIMPLEX
 10
623.812012
 20
1223.34570
 40
29.9799900
  1
75
 50
0.00000000
  0
LINE
  8
2
 10
375.554657
 20
390.032013
 11
482.856018
 21
390.032013
  0
LINE
  8
2
 10
375.554657
 20
410.018677
 11
375.554657
 21
380.038666
  0
LINE
  8
2
 10
482.856018
 20
410.018677
 11
482.856018
 21
380.038666
  0
INSERT
  8
2
  2
ARROWF
 10
375.554657
 20
390.032013
 41
0.33300000
 42
0.33300000
 43
0.33300000
 50
180.000000
  0
INSERT
  8
2
  2
ARROWF
 10
482.856018
 20
390.032013
 41
0.33300000
 42
0.33300000
 43
0.33300000
 50
0.00000000
  0
TEXT
  8
11
 7
SIMPLEX
 10
395.477844
 20
352.557007
 40
29.9799900
  1
100
 50
0.00000000
  0
LINE
  8
2
 10
249.588608
 20
462.347412
 11
249.588608
 21
631.880859
  0
INSERT
  8
2
  2
ARROWF
 10
249.588608
 20
462.347412
 41
0.33300000
 42
0.33300000
 43
0.33300000
 50
270.000000
  0
INSERT
  8
2
  2
ARROWF
 10
249.588608
 20
631.880859
 41
0.33300000
 42
0.33300000
 43
0.33300000
 50
89.9999847
  0
LINE
  8
2
 10
239.595276
 20
631.880859
 11
269.575287
 21
631.880859
  0
LINE
  8
2
 10
239.595276
 20
462.347412
 11
269.575287
 21
462.347412
  0
TEXT
  8
11
 7
SIMPLEX
 10
162.646652
 20
532.124146
 40
29.9799900
  1
146
 72
           2
 11
242.093628
 21
547.114136
 73
           2
 50
   0.000
  0
LINE
  8
2
 10
249.588608
 20
631.880859
 11
249.588608
 21
1111.00256
  0
INSERT
  8
2
  2
ARROWF
 10
249.588608
 20
631.880859
 41
0.33300000
 42
0.33300000
 43
0.33300000
 50
270.000000
  0
INSERT
  8
2
  2
ARROWF
 10
249.588608
 20
1111.00256
 41
0.33300000
 42
0.33300000
 43
0.33300000
 50
89.9999847
  0
LINE
  8
2
 10
239.595276
 20
1111.00256
 11
269.575287
 21
1111.00256
  0
LINE
  8
2
 10
239.595276
 20
631.880859
 11
269.575287
 21
631.880859
  0
TEXT
  8
11
 7
SIMPLEX
 10
212.113617
 20
831.718201
 40
29.9799900
  1
412
 72
           1
 11
242.093628
 21
871.441650
 73
           1
 50
  90.000
  0
LINE
  8
2
 10
249.588608
 20
1111.00256
 11
249.588608
 21
1281.94299
  0
INSERT
  8
2
  2
ARROWF
 10
249.588608
 20
1111.00256
 41
0.33300000
 42
0.33300000
 43
0.33300000
 50
270.000000
  0
INSERT
  8
2
  2
ARROWF
 10
249.588608
 20
1281.94299
 41
0.33300000
 42
0.33300000
 43
0.33300000
 50
89.9999847
  0
LINE
  8
2
 10
239.595276
 20
1281.94299
 11
269.575287
 21
1281.94299
  0
LINE
  8
2
 10
239.595276
 20
1111.00256
 11
269.575287
 21
1111.00256
  0
TEXT
  8
11
 7
SIMPLEX
 10
162.646652
 20
1181.48279
 40
29.9799900
  1
147
 72
           2
 11
242.093628
 21
1196.47278
 73
           2
 50
   0.000
  0
LINE
  8
2
 10
132.030701
 20
462.347412
 11
162.010696
 21
462.347412
  0
LINE
  8
2
 10
132.030701
 20
1281.94299
 11
162.010696
 21
1281.94299
  0
LINE
  8
2
 10
142.024033
 20
462.347412
 11
142.024033
 21
1281.94299
  0
INSERT
  8
2
  2
ARROWF
 10
142.024033
 20
462.347412
 41
0.33300000
 42
0.33300000
 43
0.33300000
 50
270.000000
  0
INSERT
  8
2
  2
ARROWF
 10
142.024033
 20
1281.94299
 41
0.33300000
 42
0.33300000
 43
0.33300000
 50
90.0000000
  0
TEXT
  8
11
 7
SIMPLEX
 10
134.529038
 20
838.417725
 40
29.9799900
  1
705
 50
90.0000000
  0
LINE
  8
2
 10
321.903992
 20
1354.25842
 11
536.506653
 21
1354.25842
  0
LINE
  8
2
 10
321.903992
 20
1364.25171
 11
321.903992
 21
1334.27173
  0
LINE
  8
2
 10
536.506653
 20
1364.25171
 11
536.506653
 21
1334.27173
  0
INSERT
  8
2
  2
ARROWF
 10
321.903992
 20
1354.25842
 41
0.33300000
 42
0.33300000
 43
0.33300000
 50
180.000000
  0
INSERT
  8
2
  2
ARROWF
 10
536.506653
 20
1354.25842
 41
0.33300000
 42
0.33300000
 43
0.33300000
 50
0.00000000
  0
TEXT
  8
11
 7
SIMPLEX
 10
395.477844
 20
1361.75342
 40
29.9799900
  1
200
 50
0.00000000
  0
LINE
  8
0
 10
348.729309
 20
631.880920
 11
509.681335
 21
631.880920
  0
LINE
  8
0
 10
348.729309
 20
659.135437
 11
509.681335
 21
659.135437
  0
LINE
  8
0
 10
348.729309
 20
631.880920
 11
348.729309
 21
659.135437
  0
LINE
  8
0
 10
509.681335
 20
631.880920
 11
509.681335
 21
659.135437
  0
LINE
  8
0
 10
348.729309
 20
1111.00256
 11
509.681335
 21
1111.00256
  0
LINE
  8
0
 10
348.729309
 20
1083.74805
 11
509.681335
 21
1083.74805
  0
LINE
  8
0
 10
348.729309
 20
1111.00256
 11
348.729309
 21
1083.74805
  0
LINE
  8
0
 10
509.681335
 20
1111.00256
 11
509.681335
 21
1083.74805
  0
LINE
  8
0
 10
442.832611
 20
659.135437
 11
442.832611
 21
1083.74805
  0
LINE
  8
0
 10
415.578033
 20
659.135437
 11
415.578033
 21
1083.74805
  0
ENDBLK
  8
0
  0
BLOCK
  8
0
  2
EPBLK4
 70
     0
 10
0.00000000
 20
0.00000000
  0
LINE
  8
0
 10
0.00000000
 20
0.00000000
 11
0.00000000
 21
1744.29041
  0
LINE
  8
0
 10
0.00000000
 20
1744.29041
 11
858.410645
 21
1744.29041
  0
LINE
  8
0
 10
0.00000000
 20
0.00000000
 11
858.410645
 21
0.00000000
  0
LINE
  8
0
 10
858.410645
 20
1744.29041
 11
858.410645
 21
0.00000000
  0
TEXT
  8
11
 7
SIMPLEX
 10
14.9899950
 20
1699.32043
 40
29.9799900
  1
Bolt Dia=
 50
0.00000000
  0
TEXT
  8
11
 7
SIMPLEX
 10
14.9899950
 20
1661.84546
 40
29.9799900
  1
Plate Thk=
 50
0.00000000
  0
TEXT
  8
11
 7
SIMPLEX
 10
316.059906
 20
1699.32043
 40
29.9799900
  1
20
 50
0.00000000
  0
TEXT
  8
11
 7
SIMPLEX
 10
316.059906
 20
1661.84546
 40
29.9799900
  1
16
 50
0.00000000
  0
TEXT
  8
11
 7
SIMPLEX
 10
29.9799900
 20
14.9899950
 40
29.9799900
  1
BP2
 50
0.00000000
  0
LINE
  8
0
 10
321.903992
 20
505.844177
 11
321.903992
 21
1238.44604
  0
LINE
  8
0
 10
321.903992
 20
1238.44604
 11
536.506653
 21
1238.44604
  0
LINE
  8
0
 10
536.506653
 20
1238.44604
 11
536.506653
 21
505.844177
  0
LINE
  8
0
 10
321.903992
 20
505.844177
 11
536.506653
 21
505.844177
  0
CIRCLE
  8
0
 10
375.554657
 20
953.545471
 40
7.49499796
  0
CIRCLE
  8
0
 10
482.855988
 20
953.545471
 40
7.49499796
  0
CIRCLE
  8
0
 10
375.554657
 20
790.744934
 40
7.49499796
  0
CIRCLE
  8
0
 10
482.855988
 20
790.744934
 40
7.49499796
  0
LINE
  8
2
 10
608.822022
 20
505.844177
 11
608.822022
 21
790.744934
  0
INSERT
  8
2
  2
ARROWF
 10
608.822022
 20
505.844177
 41
0.33300000
 42
0.33300000
 43
0.33300000
 50
270.000000
  0
INSERT
  8
2
  2
ARROWF
 10
608.822022
 20
790.744934
 41
0.33300000
 42
0.33300000
 43
0.33300000
 50
89.9999847
  0
LINE
  8
2
 10
588.835388
 20
790.744934
 11
618.815369
 21
790.744934
  0
LINE
  8
2
 10
588.835388
 20
505.844177
 11
618.815369
 21
505.844177
  0
TEXT
  8
11
 7
SIMPLEX
 10
623.812012
 20
633.304626
 40
29.9799900
  1
175
 50
0.00000000
  0
LINE
  8
2
 10
608.822022
 20
790.744934
 11
608.822022
 21
953.545471
  0
INSERT
  8
2
  2
ARROWF
 10
608.822022
 20
790.744934
 41
0.33300000
 42
0.33300000
 43
0.33300000
 50
270.000000
  0
INSERT
  8
2
  2
ARROWF
 10
608.822022
 20
953.545471
 41
0.33300000
 42
0.33300000
 43
0.33300000
 50
89.9999847
  0
LINE
  8
2
 10
588.835388
 20
953.545471
 11
618.815369
 21
953.545471
  0
LINE
  8
2
 10
588.835388
 20
790.744934
 11
618.815369
 21
790.744934
  0
TEXT
  8
11
 7
SIMPLEX
 10
623.812012
 20
857.155212
 40
29.9799900
  1
100
 50
0.00000000
  0
LINE
  8
2
 10
608.822022
 20
953.545471
 11
608.822022
 21
1238.44604
  0
INSERT
  8
2
  2
ARROWF
 10
608.822022
 20
953.545471
 41
0.33300000
 42
0.33300000
 43
0.33300000
 50
270.000000
  0
INSERT
  8
2
  2
ARROWF
 10
608.822022
 20
1238.44604
 41
0.33300000
 42
0.33300000
 43
0.33300000
 50
89.9999847
  0
LINE
  8
2
 10
588.835388
 20
1238.44604
 11
618.815369
 21
1238.44604
  0
LINE
  8
2
 10
588.835388
 20
953.545471
 11
618.815369
 21
953.545471
  0
TEXT
  8
11
 7
SIMPLEX
 10
623.812012
 20
1081.00586
 40
29.9799900
  1
175
 50
0.00000000
  0
LINE
  8
2
 10
375.554657
 20
433.528870
 11
482.856018
 21
433.528870
  0
LINE
  8
2
 10
375.554657
 20
453.515533
 11
375.554657
 21
423.535522
  0
LINE
  8
2
 10
482.856018
 20
453.515533
 11
482.856018
 21
423.535522
  0
INSERT
  8
2
  2
ARROWF
 10
375.554657
 20
433.528870
 41
0.33300000
 42
0.33300000
 43
0.33300000
 50
180.000000
  0
INSERT
  8
2
  2
ARROWF
 10
482.856018
 20
433.528870
 41
0.33300000
 42
0.33300000
 43
0.33300000
 50
0.00000000
  0
TEXT
  8
11
 7
SIMPLEX
 10
395.477844
 20
396.053864
 40
29.9799900
  1
100
 50
0.00000000
  0
LINE
  8
2
 10
249.588593
 20
445.944183
 11
249.588608
 21
505.844177
  0
LINE
  8
2
 10
249.588608
 20
546.544312
 11
249.588638
 21
606.444336
  0
INSERT
  8
2
  2
ARROWF
 10
249.588608
 20
505.844177
 41
0.33300000
 42
0.33300000
 43
0.33300000
 50
450.000000
  0
INSERT
  8
2
  2
ARROWF
 10
249.588608
 20
546.544312
 41
0.33300000
 42
0.33300000
 43
0.33300000
 50
270.000000
  0
LINE
  8
2
 10
239.595276
 20
546.544312
 11
269.575287
 21
546.544312
  0
LINE
  8
2
 10
239.595276
 20
505.844177
 11
269.575287
 21
505.844177
  0
TEXT
  8
11
 7
SIMPLEX
 10
182.133652
 20
511.204254
 40
29.9799900
  1
25
 72
           2
 11
242.093628
 21
526.194214
 73
           2
 50
   0.000
  0
LINE
  8
2
 10
249.588608
 20
546.544312
 11
249.588608
 21
1214.02612
  0
INSERT
  8
2
  2
ARROWF
 10
249.588608
 20
546.544312
 41
0.33300000
 42
0.33300000
 43
0.33300000
 50
270.000000
  0
INSERT
  8
2
  2
ARROWF
 10
249.588608
 20
1214.02612
 41
0.33300000
 42
0.33300000
 43
0.33300000
 50
89.9999847
  0
LINE
  8
2
 10
239.595276
 20
1214.02612
 11
269.575287
 21
1214.02612
  0
LINE
  8
2
 10
239.595276
 20
546.544312
 11
269.575287
 21
546.544312
  0
TEXT
  8
11
 7
SIMPLEX
 10
212.113617
 20
840.561768
 40
29.9799900
  1
410
 72
           1
 11
242.093628
 21
880.285278
 73
           1
 50
  90.000
  0
LINE
  8
2
 10
249.588593
 20
1154.12610
 11
249.588608
 21
1214.02612
  0
LINE
  8
2
 10
249.588608
 20
1238.44604
 11
249.588638
 21
1298.34607
  0
INSERT
  8
2
  2
ARROWF
 10
249.588608
 20
1214.02612
 41
0.33300000
 42
0.33300000
 43
0.33300000
 50
450.000000
  0
INSERT
  8
2
  2
ARROWF
 10
249.588608
 20
1238.44604
 41
0.33300000
 42
0.33300000
 43
0.33300000
 50
270.000000
  0
LINE
  8
2
 10
239.595276
 20
1238.44604
 11
269.575287
 21
1238.44604
  0
LINE
  8
2
 10
239.595276
 20
1214.02612
 11
269.575287
 21
1214.02612
  0
TEXT
  8
11
 7
SIMPLEX
 10
192.626633
 20
1211.24609
 40
29.9799900
  1
15
 72
           2
 11
242.093628
 21
1226.23608
 73
           2
 50
   0.000
  0
LINE
  8
2
 10
132.030701
 20
505.844177
 11
162.010696
 21
505.844177
  0
LINE
  8
2
 10
132.030701
 20
1238.44604
 11
162.010696
 21
1238.44604
  0
LINE
  8
2
 10
142.024033
 20
505.844177
 11
142.024033
 21
1238.44604
  0
INSERT
  8
2
  2
ARROWF
 10
142.024033
 20
505.844177
 41
0.33300000
 42
0.33300000
 43
0.33300000
 50
270.000000
  0
INSERT
  8
2
  2
ARROWF
 10
142.024033
 20
1238.44604
 41
0.33300000
 42
0.33300000
 43
0.33300000
 50
90.0000000
  0
TEXT
  8
11
 7
SIMPLEX
 10
134.529038
 20
838.417725
 40
29.9799900
  1
450
 50
90.0000000
  0
LINE
  8
2
 10
321.903992
 20
1310.76147
 11
536.506653
 21
1310.76147
  0
LINE
  8
2
 10
321.903992
 20
1320.75476
 11
321.903992
 21
1290.77478
  0
LINE
  8
2
 10
536.506653
 20
1320.75476
 11
536.506653
 21
1290.77478
  0
INSERT
  8
2
  2
ARROWF
 10
321.903992
 20
1310.76147
 41
0.33300000
 42
0.33300000
 43
0.33300000
 50
180.000000
  0
INSERT
  8
2
  2
ARROWF
 10
536.506653
 20
1310.76147
 41
0.33300000
 42
0.33300000
 43
0.33300000
 50
0.00000000
  0
TEXT
  8
11
 7
SIMPLEX
 10
395.477844
 20
1318.25647
 40
29.9799900
  1
200
 50
0.00000000
  0
LINE
  8
0
 10
348.729309
 20
546.544312
 11
509.681335
 21
546.544312
  0
LINE
  8
0
 10
348.729309
 20
573.798828
 11
509.681335
 21
573.798828
  0
LINE
  8
0
 10
348.729309
 20
546.544312
 11
348.729309
 21
573.798828
  0
LINE
  8
0
 10
509.681335
 20
546.544312
 11
509.681335
 21
573.798828
  0
LINE
  8
0
 10
348.729309
 20
1214.02612
 11
509.681335
 21
1214.02612
  0
LINE
  8
0
 10
348.729309
 20
1186.77148
 11
509.681335
 21
1186.77148
  0
LINE
  8
0
 10
348.729309
 20
1214.02612
 11
348.729309
 21
1186.77148
  0
LINE
  8
0
 10
509.681335
 20
1214.02612
 11
509.681335
 21
1186.77148
  0
LINE
  8
0
 10
442.832611
 20
573.798828
 11
442.832611
 21
1186.77148
  0
LINE
  8
0
 10
415.578033
 20
573.798828
 11
415.578033
 21
1186.77148
  0
ENDBLK
  8
0
  0
BLOCK
  8
0
  2
EPBLK5
 70
     0
 10
0.00000000
 20
0.00000000
  0
LINE
  8
0
 10
0.00000000
 20
0.00000000
 11
0.00000000
 21
1744.29041
  0
LINE
  8
0
 10
0.00000000
 20
1744.29041
 11
858.410645
 21
1744.29041
  0
LINE
  8
0
 10
0.00000000
 20
0.00000000
 11
858.410645
 21
0.00000000
  0
LINE
  8
0
 10
858.410645
 20
1744.29041
 11
858.410645
 21
0.00000000
  0
TEXT
  8
11
 7
SIMPLEX
 10
14.9899950
 20
1699.32043
 40
29.9799900
  1
Bolt Dia=
 50
0.00000000
  0
TEXT
  8
11
 7
SIMPLEX
 10
14.9899950
 20
1661.84546
 40
29.9799900
  1
Plate Thk=
 50
0.00000000
  0
TEXT
  8
11
 7
SIMPLEX
 10
316.059906
 20
1699.32043
 40
29.9799900
  1
20
 50
0.00000000
  0
TEXT
  8
11
 7
SIMPLEX
 10
316.059906
 20
1661.84546
 40
29.9799900
  1
16
 50
0.00000000
  0
TEXT
  8
11
 7
SIMPLEX
 10
29.9799900
 20
14.9899950
 40
29.9799900
  1
CP-1
 50
0.00000000
  0
LINE
  8
0
 10
321.903992
 20
505.844177
 11
321.903992
 21
1238.44604
  0
LINE
  8
0
 10
321.903992
 20
1238.44604
 11
536.506653
 21
1238.44604
  0
LINE
  8
0
 10
536.506653
 20
1238.44604
 11
536.506653
 21
505.844177
  0
LINE
  8
0
 10
321.903992
 20
505.844177
 11
536.506653
 21
505.844177
  0
CIRCLE
  8
0
 10
375.554657
 20
934.684387
 40
7.49499796
  0
CIRCLE
  8
0
 10
482.855988
 20
934.684387
 40
7.49499796
  0
CIRCLE
  8
0
 10
375.554657
 20
809.606018
 40
7.49499796
  0
CIRCLE
  8
0
 10
482.855988
 20
809.606018
 40
7.49499796
  0
LINE
  8
2
 10
608.822022
 20
505.844177
 11
608.822022
 21
809.606018
  0
INSERT
  8
2
  2
ARROWF
 10
608.822022
 20
505.844177
 41
0.33300000
 42
0.33300000
 43
0.33300000
 50
270.000000
  0
INSERT
  8
2
  2
ARROWF
 10
608.822022
 20
809.606018
 41
0.33300000
 42
0.33300000
 43
0.33300000
 50
89.9999847
  0
LINE
  8
2
 10
588.835388
 20
809.606018
 11
618.815369
 21
809.606018
  0
LINE
  8
2
 10
588.835388
 20
505.844177
 11
618.815369
 21
505.844177
  0
TEXT
  8
11
 7
SIMPLEX
 10
623.812012
 20
642.735107
 40
29.9799900
  1
170
 50
0.00000000
  0
LINE
  8
2
 10
608.822022
 20
809.606018
 11
608.822022
 21
934.684387
  0
INSERT
  8
2
  2
ARROWF
 10
608.822022
 20
809.606018
 41
0.33300000
 42
0.33300000
 43
0.33300000
 50
270.000000
  0
INSERT
  8
2
  2
ARROWF
 10
608.822022
 20
934.684387
 41
0.33300000
 42
0.33300000
 43
0.33300000
 50
89.9999847
  0
LINE
  8
2
 10
588.835388
 20
934.684387
 11
618.815369
 21
934.684387
  0
LINE
  8
2
 10
588.835388
 20
809.606018
 11
618.815369
 21
809.606018
  0
TEXT
  8
11
 7
SIMPLEX
 10
623.812012
 20
857.155212
 40
29.9799900
  1
70
 50
0.00000000
  0
LINE
  8
2
 10
608.822022
 20
934.684387
 11
608.822022
 21
1238.44604
  0
INSERT
  8
2
  2
ARROWF
 10
608.822022
 20
934.684387
 41
0.33300000
 42
0.33300000
 43
0.33300000
 50
270.000000
  0
INSERT
  8
2
  2
ARROWF
 10
608.822022
 20
1238.44604
 41
0.33300000
 42
0.33300000
 43
0.33300000
 50
89.9999847
  0
LINE
  8
2
 10
588.835388
 20
1238.44604
 11
618.815369
 21
1238.44604
  0
LINE
  8
2
 10
588.835388
 20
934.684387
 11
618.815369
 21
934.684387
  0
TEXT
  8
11
 7
SIMPLEX
 10
623.812012
 20
1071.57532
 40
29.9799900
  1
170
 50
0.00000000
  0
LINE
  8
2
 10
375.554657
 20
433.528870
 11
482.856018
 21
433.528870
  0
LINE
  8
2
 10
375.554657
 20
453.515533
 11
375.554657
 21
423.535522
  0
LINE
  8
2
 10
482.856018
 20
453.515533
 11
482.856018
 21
423.535522
  0
INSERT
  8
2
  2
ARROWF
 10
375.554657
 20
433.528870
 41
0.33300000
 42
0.33300000
 43
0.33300000
 50
180.000000
  0
INSERT
  8
2
  2
ARROWF
 10
482.856018
 20
433.528870
 41
0.33300000
 42
0.33300000
 43
0.33300000
 50
0.00000000
  0
TEXT
  8
11
 7
SIMPLEX
 10
395.477844
 20
396.053864
 40
29.9799900
  1
100
 50
0.00000000
  0
LINE
  8
2
 10
132.030701
 20
505.844177
 11
162.010696
 21
505.844177
  0
LINE
  8
2
 10
132.030701
 20
1238.44604
 11
162.010696
 21
1238.44604
  0
LINE
  8
2
 10
142.024033
 20
505.844177
 11
142.024033
 21
1238.44604
  0
INSERT
  8
2
  2
ARROWF
 10
142.024033
 20
505.844177
 41
0.33300000
 42
0.33300000
 43
0.33300000
 50
270.000000
  0
INSERT
  8
2
  2
ARROWF
 10
142.024033
 20
1238.44604
 41
0.33300000
 42
0.33300000
 43
0.33300000
 50
90.0000000
  0
TEXT
  8
11
 7
SIMPLEX
 10
134.529038
 20
838.417725
 40
29.9799900
  1
410
 50
90.0000000
  0
LINE
  8
2
 10
321.903992
 20
1310.76147
 11
536.506653
 21
1310.76147
  0
LINE
  8
2
 10
321.903992
 20
1320.75476
 11
321.903992
 21
1290.77478
  0
LINE
  8
2
 10
536.506653
 20
1320.75476
 11
536.506653
 21
1290.77478
  0
INSERT
  8
2
  2
ARROWF
 10
321.903992
 20
1310.76147
 41
0.33300000
 42
0.33300000
 43
0.33300000
 50
180.000000
  0
INSERT
  8
2
  2
ARROWF
 10
536.506653
 20
1310.76147
 41
0.33300000
 42
0.33300000
 43
0.33300000
 50
0.00000000
  0
TEXT
  8
11
 7
SIMPLEX
 10
395.477844
 20
1318.25647
 40
29.9799900
  1
200
 50
0.00000000
  0
LINE
  8
0
 10
348.729309
 20
515.671814
 11
509.681335
 21
515.671814
  0
LINE
  8
0
 10
348.729309
 20
542.926331
 11
509.681335
 21
542.926331
  0
LINE
  8
0
 10
348.729309
 20
515.671814
 11
348.729309
 21
542.926331
  0
LINE
  8
0
 10
509.681335
 20
515.671814
 11
509.681335
 21
542.926331
  0
LINE
  8
0
 10
348.729309
 20
1238.44604
 11
509.681335
 21
1238.44604
  0
LINE
  8
0
 10
348.729309
 20
1211.19153
 11
509.681335
 21
1211.19153
  0
LINE
  8
0
 10
348.729309
 20
1238.44604
 11
348.729309
 21
1211.19153
  0
LINE
  8
0
 10
509.681335
 20
1238.44604
 11
509.681335
 21
1211.19153
  0
LINE
  8
0
 10
442.832611
 20
542.926331
 11
442.832611
 21
1211.19153
  0
LINE
  8
0
 10
415.578033
 20
542.926331
 11
415.578033
 21
1211.19153
  0
ENDBLK
  8
0
  0
BLOCK
  8
1
  2
RF1TBL
 70
     0
 10
0.00000000
 20
0.00000000
  0
TEXT
  8
14
 7
SIMPLEX
 10
-9953.3574
 20
-149.89996
 40
119.919968
  1
MEMBER TABLE
 50
0.00000000
  0
TEXT
  8
14
 7
SIMPLEX
 10
-9953.3574
 20
-449.69983
 40
119.919968
  1
Mark
 50
0.00000000
  0
TEXT
  8
14
 7
SIMPLEX
 10
-9053.9570
 20
-329.77991
 40
119.919968
  1
Web Depth
 50
0.00000000
  0
TEXT
  8
14
 7
SIMPLEX
 10
-8993.9971
 20
-509.65988
 40
119.919968
  1
Start/End
 50
0.00000000
  0
TEXT
  8
14
 7
SIMPLEX
 10
-7674.8774
 20
-329.77991
 40
119.919968
  1
Web Plate
 50
0.00000000
  0
TEXT
  8
14
 7
SIMPLEX
 10
-7794.7974
 20
-509.65988
 40
119.919968
  1
Thick
 50
0.00000000
  0
TEXT
  8
14
 7
SIMPLEX
 10
-7135.2378
 20
-509.65988
 40
119.919968
  1
Length
 50
0.00000000
  0
TEXT
  8
14
 7
SIMPLEX
 10
-5636.2383
 20
-329.77991
 40
119.919968
  1
Outside Flange
 50
0.00000000
  0
TEXT
  8
14
 7
SIMPLEX
 10
-5636.2383
 20
-509.65988
 40
119.919968
  1
W x Thk x Length
 50
0.00000000
  0
TEXT
  8
14
 7
SIMPLEX
 10
-2758.1592
 20
-329.77991
 40
119.919968
  1
Inside Flange
 50
0.00000000
  0
TEXT
  8
14
 7
SIMPLEX
 10
-2758.1592
 20
-509.65988
 40
119.919968
  1
W x Thk x Length
 50
0.00000000
  0
TEXT
  8
26
 7
SIMPLEX
 10
-9953.3574
 20
-689.53986
 40
119.919968
  1
 CL1-1
 50
0.00000000
  0
TEXT
  8
26
 7
SIMPLEX
 10
-8993.9971
 20
-689.53986
 40
119.919968
  1
 400/ 700
 50
0.00000000
  0
TEXT
  8
26
 7
SIMPLEX
 10
-7854.7578
 20
-689.53986
 40
119.919968
  1
    5
 50
0.00000000
  0
TEXT
  8
26
 7
SIMPLEX
 10
-7135.2378
 20
-689.53986
 40
119.919968
  1
 4000
 50
0.00000000
  0
TEXT
  8
26
 7
SIMPLEX
 10
-8993.9971
 20
-869.41974
 40
119.919968
  1
 700/ 700
 50
0.00000000
  0
TEXT
  8
26
 7
SIMPLEX
 10
-7854.7578
 20
-869.41974
 40
119.919968
  1
    5
 50
0.00000000
  0
TEXT
  8
26
 7
SIMPLEX
 10
-7135.2378
 20
-869.41974
 40
119.919968
  1
 3617
 50
0.00000000
  0
TEXT
  8
26
 7
SIMPLEX
 10
-5576.2783
 20
-689.53986
 40
119.919968
  1
150 x 6 x 7617
 50
0.00000000
  0
TEXT
  8
26
 7
SIMPLEX
 10
-2698.1992
 20
-689.53986
 40
119.919968
  1
150 x 6 x 4011
 50
0.00000000
  0
TEXT
  8
26
 7
SIMPLEX
 10
-2698.1992
 20
-869.41974
 40
119.919968
  1
150 x 6 x 3617
 50
0.00000000
  0
TEXT
  8
26
 7
SIMPLEX
 10
-9953.3574
 20
-1049.2997
 40
119.919968
  1
 RF1-2
 50
0.00000000
  0
TEXT
  8
26
 7
SIMPLEX
 10
-8993.9971
 20
-1049.2997
 40
119.919968
  1
 300/ 401
 50
0.00000000
  0
TEXT
  8
26
 7
SIMPLEX
 10
-7854.7578
 20
-1049.2997
 40
119.919968
  1
    4
 50
0.00000000
  0
TEXT
  8
26
 7
SIMPLEX
 10
-7135.2378
 20
-1049.2997
 40
119.919968
  1
 4210
 50
0.00000000
  0
TEXT
  8
26
 7
SIMPLEX
 10
-5576.2783
 20
-1049.2997
 40
119.919968
  1
125 x 5 x 4404
 50
0.00000000
  0
TEXT
  8
26
 7
SIMPLEX
 10
-5576.2783
 20
-1229.1797
 40
119.919968
  1
125 x 5 x 322
 50
0.00000000
  0
TEXT
  8
26
 7
SIMPLEX
 10
-2698.1992
 20
-1049.2997
 40
119.919968
  1
125 x 5 x 3412
 50
0.00000000
  0
TEXT
  8
26
 7
SIMPLEX
 10
-9953.3574
 20
-1409.0596
 40
119.919968
  1
 RF1-3
 50
0.00000000
  0
TEXT
  8
26
 7
SIMPLEX
 10
-8993.9971
 20
-1409.0596
 40
119.919968
  1
 300/ 300
 50
0.00000000
  0
TEXT
  8
26
 7
SIMPLEX
 10
-7854.7578
 20
-1409.0596
 40
119.919968
  1
    4
 50
0.00000000
  0
TEXT
  8
26
 7
SIMPLEX
 10
-7135.2378
 20
-1409.0596
 40
119.919968
  1
 4273
 50
0.00000000
  0
TEXT
  8
26
 7
SIMPLEX
 10
-5576.2783
 20
-1409.0596
 40
119.919968
  1
125 x 5 x 4273
 50
0.00000000
  0
TEXT
  8
26
 7
SIMPLEX
 10
-2698.1992
 20
-1409.0596
 40
119.919968
  1
125 x 5 x 4273
 50
0.00000000
  0
TEXT
  8
26
 7
SIMPLEX
 10
-9953.3574
 20
-1588.9396
 40
119.919968
  1
 RF1-4
 50
0.00000000
  0
TEXT
  8
26
 7
SIMPLEX
 10
-8993.9971
 20
-1588.9396
 40
119.919968
  1
 302/ 553
 50
0.00000000
  0
TEXT
  8
26
 7
SIMPLEX
 10
-7854.7578
 20
-1588.9396
 40
119.919968
  1
    4
 50
0.00000000
  0
TEXT
  8
26
 7
SIMPLEX
 10
-7135.2378
 20
-1588.9396
 40
119.919968
  1
 5053
 50
0.00000000
  0
TEXT
  8
26
 7
SIMPLEX
 10
-5576.2783
 20
-1588.9396
 40
119.919968
  1
150 x 5 x 2539
 50
0.00000000
  0
TEXT
  8
26
 7
SIMPLEX
 10
-5576.2783
 20
-1768.8196
 40
119.919968
  1
150 x 5 x 2539
 50
0.00000000
  0
TEXT
  8
26
 7
SIMPLEX
 10
-2698.1992
 20
-1588.9396
 40
119.919968
  1
150 x 5 x 4992
 50
0.00000000
  0
TEXT
  8
26
 7
SIMPLEX
 10
-9953.3574
 20
-1948.6993
 40
119.919968
  1
 CL1-6
 50
0.00000000
  0
TEXT
  8
26
 7
SIMPLEX
 10
-8993.9971
 20
-1948.6993
 40
119.919968
  1
 400/ 700
 50
0.00000000
  0
TEXT
  8
26
 7
SIMPLEX
 10
-7854.7578
 20
-1948.6993
 40
119.919968
  1
    5
 50
0.00000000
  0
TEXT
  8
26
 7
SIMPLEX
 10
-7135.2378
 20
-1948.6993
 40
119.919968
  1
 4000
 50
0.00000000
  0
TEXT
  8
26
 7
SIMPLEX
 10
-8993.9971
 20
-2128.5793
 40
119.919968
  1
 700/ 700
 50
0.00000000
  0
TEXT
  8
26
 7
SIMPLEX
 10
-7854.7578
 20
-2128.5793
 40
119.919968
  1
    5
 50
0.00000000
  0
TEXT
  8
26
 7
SIMPLEX
 10
-7135.2378
 20
-2128.5793
 40
119.919968
  1
 3617
 50
0.00000000
  0
TEXT
  8
26
 7
SIMPLEX
 10
-5576.2783
 20
-1948.6993
 40
119.919968
  1
150 x 6 x 7617
 50
0.00000000
  0
TEXT
  8
26
 7
SIMPLEX
 10
-2698.1992
 20
-1948.6993
 40
119.919968
  1
150 x 6 x 4011
 50
0.00000000
  0
TEXT
  8
26
 7
SIMPLEX
 10
-2698.1992
 20
-2128.5793
 40
119.919968
  1
150 x 6 x 3617
 50
0.00000000
  0
TEXT
  8
26
 7
SIMPLEX
 10
-9953.3574
 20
-2308.4595
 40
119.919968
  1
EC-2
 50
0.00000000
  0
TEXT
  8
26
 7
SIMPLEX
 10
-8993.9971
 20
-2308.4595
 40
119.919968
  1
W40b155
 50
0.00000000
  0
LINE
  8
0
 10
-10073.277
 20
-2338.4395
 11
0.00000000
 21
-2338.4395
  0
LINE
  8
0
 10
-10073.277
 20
0.00000000
 11
-10073.277
 21
-2338.4395
  0
LINE
  8
0
 10
0.00000000
 20
0.00000000
 11
0.00000000
 21
-2338.4395
  0
LINE
  8
0
 10
-10073.277
 20
0.00000000
 11
0.00000000
 21
0.00000000
  0
LINE
  8
0
 10
-10073.277
 20
-2338.4395
 11
0.00000000
 21
-2338.4395
  0
LINE
  8
0
 10
-10073.277
 20
-179.87996
 11
0.00000000
 21
-179.87996
  0
LINE
  8
0
 10
-9113.9170
 20
-179.87996
 11
-9113.9170
 21
-2338.4395
  0
LINE
  8
0
 10
-7914.7178
 20
-179.87996
 11
-7914.7178
 21
-2338.4395
  0
LINE
  8
0
 10
-5696.1982
 20
-179.87996
 11
-5696.1982
 21
-2338.4395
  0
LINE
  8
0
 10
-2818.1191
 20
-179.87996
 11
-2818.1191
 21
-2338.4395
  0
LINE
  8
0
 10
-10073.277
 20
-179.87996
 11
-10073.277
 21
-2338.4395
  0
LINE
  8
0
 10
-10073.277
 20
-179.87996
 11
-10073.277
 21
-2338.4395
  0
LINE
  8
0
 10
-10073.277
 20
-179.87996
 11
-10073.277
 21
-2338.4395
  0
LINE
  8
0
 10
-9113.9170
 20
-359.75992
 11
-5696.1982
 21
-359.75992
  0
LINE
  8
0
 10
-7255.1577
 20
-359.75992
 11
-7255.1577
 21
-2338.4395
  0
LINE
  8
0
 10
-10073.277
 20
-539.63989
 11
0.00000000
 21
-539.63989
  0
ENDBLK
  8
1
  0
BLOCK
  8
1
  2
RF1CPL
 70
     0
 10
0.00000000
 20
11.4299994
  0
LINE
  8
3
 10
0.00000000
 20
11.4299994
 11
80.7719956
 21
11.4299994
  0
LINE
  8
3
 10
0.00000000
 20
8.38199900
 11
80.7719956
 21
8.38199900
  0
LINE
  8
3
 10
0.00000000
 20
3.04799962
 11
80.7719956
 21
3.04799962
  0
LINE
  8
3
 10
0.00000000
 20
-0.0000002
 11
80.7719956
 21
-0.0000002
  0
LINE
  8
3
 10
0.00000000
 20
0.00000000
 11
80.7719956
 21
0.00000000
  0
LINE
  8
3
 10
0.00000000
 20
11.4299994
 11
0.00000000
 21
0.00000000
  0
LINE
  8
3
 10
80.7719956
 20
0.00000000
 11
80.7719956
 21
11.4299994
  0
LINE
  8
3
 10
12.1919994
 20
8.38199900
 11
12.1919994
 21
-0.0000002
  0
LINE
  8
3
 10
47.2439995
 20
8.38199900
 11
47.2439995
 21
-0.0000002
  0
TEXT
  8
1
 7
SIMPLEX
 10
1.52400004
 20
9.14399910
 40
1.52400004
  1
CAP PLATES
 50
0.00000000
  0
TEXT
  8
1
 7
SIMPLEX
 10
1.52400004
 20
6.09599924
 40
1.52400004
  1
Col
 50
0.00000000
  0
TEXT
  8
1
 7
SIMPLEX
 10
1.52400004
 20
3.80999968
 40
1.52400004
  1
Id
 50
0.00000000
  0
TEXT
  8
1
 7
SIMPLEX
 10
13.7159987
 20
3.80999968
 40
1.52400004
  1
Qnt
 50
0.00000000
  0
TEXT
  8
1
 7
SIMPLEX
 10
21.3359985
 20
6.09599924
 40
1.52400004
  1
------Bolt------
 50
0.00000000
  0
TEXT
  8
1
 7
SIMPLEX
 10
21.3359985
 20
3.80999968
 40
1.52400004
  1
Type
 50
0.00000000
  0
TEXT
  8
1
 7
SIMPLEX
 10
30.4799977
 20
3.80999968
 40
1.52400004
  1
Dia
 50
0.00000000
  0
TEXT
  8
1
 7
SIMPLEX
 10
39.6239968
 20
3.80999968
 40
1.52400004
  1
Len
 50
0.00000000
  0
TEXT
  8
1
 7
SIMPLEX
 10
57.9119987
 20
6.09599924
 40
1.52400004
  1
Plate Size
 50
0.00000000
  0
TEXT
  8
1
 7
SIMPLEX
 10
50.2919960
 20
3.80999968
 40
1.52400004
  1
Width
 50
0.00000000
  0
TEXT
  8
1
 7
SIMPLEX
 10
59.4360008
 20
3.80999968
 40
1.52400004
  1
Thick
 50
0.00000000
  0
TEXT
  8
1
 7
SIMPLEX
 10
68.5800019
 20
3.80999968
 40
1.52400004
  1
Length
 50
0.00000000
  0
TEXT
  8
1
 7
SIMPLEX
 10
1.52400004
 20
0.76199984
 40
1.52400004
  1
EC-2
 50
0.00000000
  0
TEXT
  8
1
 7
SIMPLEX
 10
10.6679993
 20
0.76199984
 40
1.52400004
  1
   4
 50
0.00000000
  0
TEXT
  8
1
 7
SIMPLEX
 10
21.3359985
 20
0.76199984
 40
1.52400004
  1
Gr8.8
 50
0.00000000
  0
TEXT
  8
1
 7
SIMPLEX
 10
22.8599987
 20
0.76199984
 40
1.52400004
  1
        20
 50
0.00000000
  0
TEXT
  8
1
 7
SIMPLEX
 10
32.0039978
 20
0.76199984
 40
1.52400004
  1
        90
 50
0.00000000
  0
TEXT
  8
1
 7
SIMPLEX
 10
42.6719971
 20
0.76199984
 40
1.52400004
  1
       200
 50
0.00000000
  0
TEXT
  8
1
 7
SIMPLEX
 10
51.8159981
 20
0.76199984
 40
1.52400004
  1
        16
 50
0.00000000
  0
TEXT
  8
1
 7
SIMPLEX
 10
62.4840012
 20
0.76199984
 40
1.52400004
  1
       410
 50
0.00000000
  0
ENDBLK
  8
1
  0
BLOCK
  8
1
  2
RF1BLT1
 70
     0
 10
0.00000000
 20
22.8599987
  0
LINE
  8
3
 10
0.00000000
 20
22.8599987
 11
134.620010
 21
22.8599987
  0
LINE
  8
3
 10
0.00000000
 20
17.7799988
 11
134.620010
 21
17.7799988
  0
LINE
  8
3
 10
0.00000000
 20
8.88999936
 11
134.620010
 21
8.88999936
  0
LINE
  8
3
 10
0.00000000
 20
0.00000000
 11
134.620010
 21
0.00000000
  0
LINE
  8
3
 10
0.00000000
 20
0.00000000
 11
134.620010
 21
0.00000000
  0
LINE
  8
3
 10
0.00000000
 20
22.8599987
 11
0.00000000
 21
0.00000000
  0
LINE
  8
3
 10
134.620010
 20
0.00000000
 11
134.620010
 21
22.8599987
  0
LINE
  8
3
 10
20.3199997
 20
17.7799988
 11
20.3199997
 21
0.00000000
  0
LINE
  8
3
 10
88.9000015
 20
17.7799988
 11
88.9000015
 21
0.00000000
  0
TEXT
  8
1
 7
SIMPLEX
 10
2.53999996
 20
19.0499992
 40
2.53999996
  1
SPLICE PLATES & BOLTS
 50
0.00000000
  0
TEXT
  8
1
 7
SIMPLEX
 10
2.53999996
 20
13.9699984
 40
2.53999996
  1
Splice
 50
0.00000000
  0
TEXT
  8
1
 7
SIMPLEX
 10
2.53999996
 20
10.1599989
 40
2.53999996
  1
Mark
 50
0.00000000
  0
TEXT
  8
1
 7
SIMPLEX
 10
22.8600006
 20
13.9699984
 40
2.53999996
  1
Quan
 50
0.00000000
  0
TEXT
  8
1
 7
SIMPLEX
 10
21.5900002
 20
10.1599989
 40
2.53999996
  1
Top/Bot/Int
 50
0.00000000
  0
TEXT
  8
1
 7
SIMPLEX
 10
48.2599983
 20
10.1599989
 40
2.53999996
  1
Type
 50
0.00000000
  0
TEXT
  8
1
 7
SIMPLEX
 10
63.5000000
 20
10.1599989
 40
2.53999996
  1
Dia
 50
0.00000000
  0
TEXT
  8
1
 7
SIMPLEX
 10
78.7400055
 20
10.1599989
 40
2.53999996
  1
Len
 50
0.00000000
  0
TEXT
  8
1
 7
SIMPLEX
 10
48.2599983
 20
13.9699984
 40
2.53999996
  1
-----Bolt-----
 50
0.00000000
  0
TEXT
  8
1
 7
SIMPLEX
 10
91.4400025
 20
10.1599989
 40
2.53999996
  1
Wid
 50
0.00000000
  0
TEXT
  8
1
 7
SIMPLEX
 10
105.410004
 20
10.1599989
 40
2.53999996
  1
Thick
 50
0.00000000
  0
TEXT
  8
1
 7
SIMPLEX
 10
119.380005
 20
10.1599989
 40
2.53999996
  1
Length
 50
0.00000000
  0
TEXT
  8
1
 7
SIMPLEX
 10
99.0599976
 20
13.9699984
 40
2.53999996
  1
Plate Size
 50
0.00000000
  0
TEXT
  8
1
 7
SIMPLEX
 10
2.53999996
 20
5.07999945
 40
2.53999996
  1
SP1
 50
0.00000000
  0
TEXT
  8
1
 7
SIMPLEX
 10
22.8600006
 20
5.07999945
 40
2.53999996
  1
   4
 50
0.00000000
  0
TEXT
  8
1
 7
SIMPLEX
 10
31.7500000
 20
5.07999945
 40
2.53999996
  1
   4
 50
0.00000000
  0
TEXT
  8
1
 7
SIMPLEX
 10
40.6399994
 20
5.07999945
 40
2.53999996
  1
   2
 50
0.00000000
  0
TEXT
  8
1
 7
SIMPLEX
 10
48.2599983
 20
5.07999945
 40
2.53999996
  1
Gr8.8
 50
0.00000000
  0
TEXT
  8
1
 7
SIMPLEX
 10
62.2299957
 20
5.07999945
 40
2.53999996
  1
        20
 50
0.00000000
  0
TEXT
  8
1
 7
SIMPLEX
 10
76.1999970
 20
5.07999945
 40
2.53999996
  1
        90
 50
0.00000000
  0
TEXT
  8
1
 7
SIMPLEX
 10
91.4400025
 20
5.07999945
 40
2.53999996
  1
       200
 50
0.00000000
  0
TEXT
  8
1
 7
SIMPLEX
 10
105.410004
 20
5.07999945
 40
2.53999996
  1
        16
 50
0.00000000
  0
TEXT
  8
1
 7
SIMPLEX
 10
119.380005
 20
5.07999945
 40
2.53999996
  1
       900
 50
0.00000000
  0
TEXT
  8
1
 7
SIMPLEX
 10
2.53999996
 20
1.26999950
 40
2.53999996
  1
SP2
 50
0.00000000
  0
TEXT
  8
1
 7
SIMPLEX
 10
22.8600006
 20
1.26999950
 40
2.53999996
  1
   4
 50
0.00000000
  0
TEXT
  8
1
 7
SIMPLEX
 10
31.7500000
 20
1.26999950
 40
2.53999996
  1
   4
 50
0.00000000
  0
TEXT
  8
1
 7
SIMPLEX
 10
40.6399994
 20
1.26999950
 40
2.53999996
  1
   0
 50
0.00000000
  0
TEXT
  8
1
 7
SIMPLEX
 10
48.2599983
 20
1.26999950
 40
2.53999996
  1
Gr8.8
 50
0.00000000
  0
TEXT
  8
1
 7
SIMPLEX
 10
62.2299957
 20
1.26999950
 40
2.53999996
  1
        20
 50
0.00000000
  0
TEXT
  8
1
 7
SIMPLEX
 10
76.1999970
 20
1.26999950
 40
2.53999996
  1
        90
 50
0.00000000
  0
TEXT
  8
1
 7
SIMPLEX
 10
91.4400025
 20
1.26999950
 40
2.53999996
  1
       200
 50
0.00000000
  0
TEXT
  8
1
 7
SIMPLEX
 10
105.410004
 20
1.26999950
 40
2.53999996
  1
        16
 50
0.00000000
  0
TEXT
  8
1
 7
SIMPLEX
 10
119.380005
 20
1.26999950
 40
2.53999996
  1
       500
 50
0.00000000
  0
ENDBLK
  8
1
  0
BLOCK
  8
1
  2
RF1FBR
 70
     0
 10
0.00000000
 20
0.00000000
  0
INSERT
  8
0
  2
MARKER
 10
183.477539
 20
-359.75992
 41
0.80000000
 42
0.80000000
 43
0.80000000
 50
0.00000000
  0
TEXT
  8
14
 7
SIMPLEX
 10
339.373505
 20
-359.75992
 40
119.919968
  1
FLANGE BRACES: FBxx (1 or 2)
 50
0.00000000
  0
TEXT
  8
14
 7
SIMPLEX
 10
339.373505
 20
-539.63989
 40
119.919968
  1
  xx=length(mm)
 50
0.00000000
  0
TEXT
  8
14
 7
SIMPLEX
 10
339.373505
 20
-719.51984
 40
119.919968
  1
  (1) One Side; (2) Two Sides
 50
0.00000000
  0
TEXT
  8
14
 7
SIMPLEX
 10
339.373505
 20
-959.35986
 40
119.919968
  1
A - L40X40X4
 50
0.00000000
  0
ENDBLK
  8
1
  0
ENDSEC
  0
SECTION
  2
ENTITIES
  0
LINE
  8
22
 10
0.00000000
 20
0.00000000
 11
28842.5957
 21
0.00000000
  0
LINE
  8
22
 10
28842.5957
 20
0.00000000
 11
28842.5957
 21
20395.8379
  0
LINE
  8
22
 10
28842.5957
 20
20395.8379
 11
0.00000000
 21
20395.8379
  0
LINE
  8
22
 10
0.00000000
 20
20395.8379
 11
0.00000000
 21
0.00000000
  0
LINE
  8
0
 10
17853.5664
 20
0.00000000
 11
17853.5664
 21
1831.50500
  0
LINE
  8
0
 10
17853.5664
 20
1831.50500
 11
28842.5957
 21
1831.50500
  0
LINE
  8
0
 10
17853.5664
 20
0.00000000
 11
28842.5957
 21
0.00000000
  0
LINE
  8
0
 10
28842.5957
 20
0.00000000
 11
28842.5957
 21
1831.50500
  0
LINE
  8
0
 10
17853.5664
 20
697.716187
 11
28842.5957
 21
697.716187
  0
LINE
  8
0
 10
17853.5664
 20
1046.57434
 11
28842.5957
 21
1046.57434
  0
LINE
  8
0
 10
17853.5664
 20
1395.43237
 11
28842.5957
 21
1395.43237
  0
LINE
  8
0
 10
19423.4277
 20
0.00000000
 11
19423.4277
 21
1395.43237
  0
LINE
  8
0
 10
23348.0820
 20
0.00000000
 11
23348.0820
 21
1395.43237
  0
LINE
  8
0
 10
23348.0820
 20
348.858093
 11
28842.5957
 21
348.858093
  0
LINE
  8
0
 10
25266.8008
 20
1046.57434
 11
25266.8008
 21
697.716187
  0
LINE
  8
0
 10
27011.0918
 20
1046.57434
 11
27011.0918
 21
697.716187
  0
LINE
  8
0
 10
26138.9473
 20
697.716187
 11
26138.9473
 21
348.858093
  0
TEXT
  8
14
 7
SIMPLEX
 10
18027.9941
 20
1133.78882
 40
174.429047
  1
PROJECT
 50
0.00000000
  0
TEXT
  8
14
 7
SIMPLEX
 10
18027.9941
 20
784.930725
 40
174.429047
  1
ID
 50
0.00000000
  0
TEXT
  8
14
 7
SIMPLEX
 10
18027.9941
 20
436.072601
 40
174.429047
  1
PROJECT
 50
0.00000000
  0
TEXT
  8
14
 7
SIMPLEX
 10
18027.9941
 20
87.2145233
 40
174.429047
  1
ADDRESS
 50
0.00000000
  0
TEXT
  8
14
 7
SIMPLEX
 10
19597.8555
 20
1133.78882
 40
174.429047
  1
Proposed Warehouse
 50
0.00000000
  0
TEXT
  8
14
 7
SIMPLEX
 10
19597.8555
 20
784.930725
 40
174.429047
  1
C323-153
 50
0.00000000
  0
TEXT
  8
14
 7
SIMPLEX
 10
19597.8555
 20
436.072601
 40
174.429047
  1
Proposed Warehouse
 50
0.00000000
  0
TEXT
  8
14
 7
SIMPLEX
 10
19597.8555
 20
87.2145233
 40
174.429047
  1
 
 50
0.00000000
  0
TEXT
  8
14
 7
SIMPLEX
 10
20121.1445
 20
1482.64685
 40
261.643585
  1
Sivoko Steel Structures Ltd.
 50
0.00000000
  0
TEXT
  8
14
 7
SIMPLEX
 10
23522.5098
 20
1133.78882
 40
174.429047
  1
RIGID FRAME ELEVATION
 50
0.00000000
  0
TEXT
  8
14
 7
SIMPLEX
 10
23522.5098
 20
784.930725
 40
174.429047
  1
DESIGN:
 50
0.00000000
  0
TEXT
  8
14
 7
SIMPLEX
 10
23522.5098
 20
436.072601
 40
174.429047
  1
DATE:
 50
0.00000000
  0
TEXT
  8
14
 7
SIMPLEX
 10
24412.0977
 20
436.072601
 40
174.429047
  1
23/JUL/2025
 50
0.00000000
  0
TEXT
  8
14
 7
SIMPLEX
 10
25441.2305
 20
784.930725
 40
174.429047
  1
DRAFT:
 50
0.00000000
  0
TEXT
  8
14
 7
SIMPLEX
 10
27185.5176
 20
784.930725
 40
174.429047
  1
CHECK:
 50
0.00000000
  0
TEXT
  8
14
 7
SIMPLEX
 10
26226.1602
 20
436.072601
 40
174.429047
  1
SHEET
 50
0.00000000
  0
TEXT
  8
14
 7
SIMPLEX
 10
27796.0215
 20
436.072601
 40
174.429047
  1
OF
 50
0.00000000
  0
TEXT
  8
14
 7
SIMPLEX
 10
27098.3047
 20
436.072601
 40
174.429047
  1
 
 50
0.00000000
999
FIELD:@PAGE_ID
  0
TEXT
  8
14
 7
SIMPLEX
 10
28144.8809
 20
436.072601
 40
174.429047
  1
 
 50
0.00000000
999
FIELD:@PAGE_TOTAL
  0
INSERT
  8
0
  2
EPBLK1
 10
0.00000000
 20
0.00000000
 41
2.00000000
 42
2.00000000
 43
2.00000000
 50
0.00000000
  0
INSERT
  8
0
  2
EPBLK2
 10
1716.82129
 20
0.00000000
 41
2.00000000
 42
2.00000000
 43
2.00000000
 50
0.00000000
  0
INSERT
  8
0
  2
EPBLK3
 10
3433.64258
 20
0.00000000
 41
2.00000000
 42
2.00000000
 43
2.00000000
 50
0.00000000
  0
INSERT
  8
0
  2
EPBLK4
 10
5150.46387
 20
0.00000000
 41
2.00000000
 42
2.00000000
 43
2.00000000
 50
0.00000000
  0
INSERT
  8
0
  2
EPBLK5
 10
6867.28516
 20
0.00000000
 41
2.00000000
 42
2.00000000
 43
2.00000000
 50
0.00000000
  0
INSERT
  8
0
  2
FRAME1
 10
3276.23608
 20
5738.34229
 41
1.00000000
 42
1.00000000
 43
1.00000000
 50
0.00000000
  0
INSERT
  8
0
  2
RF1TBL
 10
28842.5957
 20
20395.8379
 41
1.00000000
 42
1.00000000
 43
1.00000000
 50
0.00000000
  0
INSERT
  8
0
  2
RF1CPL
 10
0.00000000
 20
19196.6367
 41
78.6876450
 42
78.6876450
 43
78.6876450
 50
0.00000000
  0
INSERT
  8
0
  2
RF1BLT1
 10
0.00000000
 20
20395.8379
 41
47.2125855
 42
47.2125855
 43
47.2125855
 50
0.00000000
  0
INSERT
  8
0
  2
RF1FBR
 10
0.00000000
 20
18177.3184
 41
1.00000000
 42
1.00000000
 43
1.00000000
 50
0.00000000
  0
ENDSEC
  0
EOF
