  0
SECTION
  2
HEADER
  9
$ACADVER
  1
AC1009
  9
$EXTMIN
 10
 -1813.501
 20
-10998.296
  9
$EXTMAX
 10
 38083.500
 20
 18924.455
  9
$LIMMIN
 10
 -1813.501
 20
-10998.296
  9
$LIMMAX
 10
 38083.500
 20
 18924.455
  9
$FILLMODE
 70
     1
  9
$HANDLING
 70
     0
  0
ENDSEC
  0
SECTION
  2
TABLES
  0
TABLE
  2
LTYPE
 70
1
  0
LTYPE
  2
CONTIN
 70
    64
  3
SOLID LINE
 72
    65
 73
     0
 40
0.0
  0
LTYPE
  2
CONTINUOUS
 70
    64
  3
SOLID LINE
 72
    65
 73
     0
 40
0.0
  0
LTYPE
  2
CENTER
 70
    64
  3
____ _ ____ _ ____ _ ____ _ ____ _ ____ _ ____
 72
    65
 73
     4
 40
  1490.286
 49
   931.429
 49
  -186.286
 49
   186.286
 49
  -186.286
  0
LTYPE
  2
DASHED
 70
    64
  3
__ __ __ __ __ __ __ __ __ __ __ __ __ __ __ 
 72
    65
 73
     2
 40
   478.76
 49
   319.17
 49
  -159.58
  0
ENDTAB
  0
TABLE
  2
LAYER
 70
30
  0
LAYER
  2
0
 70
     0
 62
     7
  6
CONTIN
  0
LAYER
  2
1
 70
     0
 62
     7
  6
CONTIN
  0
LAYER
  2
2
 70
     0
 62
     7
  6
CONTIN
  0
LAYER
  2
3
 70
     0
 62
     7
  6
CONTIN
  0
LAYER
  2
4
 70
     0
 62
     5
  6
CONTIN
  0
LAYER
  2
5
 70
     0
 62
     5
  6
DASHED
  0
LAYER
  2
6
 70
     0
 62
     5
  6
DASHED
  0
LAYER
  2
7
 70
     0
 62
     5
  6
CONTIN
  0
LAYER
  2
8
 70
     0
 62
     5
  6
DASHED
  0
LAYER
  2
9
 70
     0
 62
     7
  6
CONTIN
  0
LAYER
  2
10
 70
     0
 62
     7
  6
CONTIN
  0
LAYER
  2
11
 70
     0
 62
     6
  6
DASHED
  0
LAYER
  2
12
 70
     0
 62
     7
  6
DASHED
  0
LAYER
  2
13
 70
     0
 62
     5
  6
DASHED
  0
LAYER
  2
14
 70
     0
 62
     7
  6
CONTIN
  0
LAYER
  2
15
 70
     0
 62
     5
  6
CONTIN
  0
LAYER
  2
16
 70
     0
 62
     7
  6
CONTIN
  0
LAYER
  2
17
 70
     0
 62
     7
  6
CONTIN
  0
LAYER
  2
18
 70
     0
 62
     7
  6
CONTIN
  0
LAYER
  2
19
 70
     0
 62
     7
  6
CONTIN
  0
LAYER
  2
20
 70
     0
 62
     1
  6
CONTIN
  0
LAYER
  2
21
 70
     0
 62
     7
  6
CONTIN
  0
LAYER
  2
22
 70
     0
 62
     7
  6
DASHED
  0
LAYER
  2
23
 70
     0
 62
     7
  6
DASHED
  0
LAYER
  2
24
 70
     0
 62
     7
  6
CONTIN
  0
LAYER
  2
25
 70
     0
 62
     7
  6
CONTIN
  0
LAYER
  2
26
 70
     0
 62
     7
  6
CONTIN
  0
LAYER
  2
27
 70
     0
 62
     1
  6
CENTER
  0
LAYER
  2
28
 70
     0
 62
     7
  6
CONTIN
  0
LAYER
  2
29
 70
     0
 62
     3
  6
DASHED
  0
ENDTAB
  0
TABLE
  2
STYLE
 70
  0
  0
ENDTAB
  0
ENDSEC
  0
SECTION
  2
ENTITIES
  0
LINE
  8
4
 10
   389.200
 20
     0.000
 11
   389.200
 21
  8170.000
  0
LINE
  8
4
 10
   490.800
 20
     0.000
 11
   490.800
 21
  8170.000
  0
LINE
  8
4
 10
   389.200
 20
     0.000
 11
   490.800
 21
     0.000
  0
LINE
  8
4
 10
   389.200
 20
  8170.000
 11
   490.800
 21
  8170.000
  0
LINE
  8
4
 10
  6149.200
 20
     0.000
 11
  6149.200
 21
  8170.000
  0
LINE
  8
4
 10
  6250.800
 20
     0.000
 11
  6250.800
 21
  8170.000
  0
LINE
  8
4
 10
  6149.200
 20
     0.000
 11
  6250.800
 21
     0.000
  0
LINE
  8
4
 10
  6149.200
 20
  8170.000
 11
  6250.800
 21
  8170.000
  0
LINE
  8
4
 10
 12139.199
 20
     0.000
 11
 12139.199
 21
  8170.000
  0
LINE
  8
4
 10
 12240.800
 20
     0.000
 11
 12240.800
 21
  8170.000
  0
LINE
  8
4
 10
 12139.199
 20
     0.000
 11
 12240.800
 21
     0.000
  0
LINE
  8
4
 10
 12139.199
 20
  8170.000
 11
 12240.800
 21
  8170.000
  0
LINE
  8
4
 10
 17869.199
 20
     0.000
 11
 17869.199
 21
  8170.000
  0
LINE
  8
4
 10
 17970.801
 20
     0.000
 11
 17970.801
 21
  8170.000
  0
LINE
  8
4
 10
 17869.199
 20
     0.000
 11
 17970.801
 21
     0.000
  0
LINE
  8
4
 10
 17869.199
 20
  8170.000
 11
 17970.801
 21
  8170.000
  0
LINE
  8
4
 10
 24099.199
 20
     0.000
 11
 24099.199
 21
  8170.000
  0
LINE
  8
4
 10
 24200.799
 20
     0.000
 11
 24200.799
 21
  8170.000
  0
LINE
  8
4
 10
 24099.199
 20
     0.000
 11
 24200.799
 21
     0.000
  0
LINE
  8
4
 10
 24099.199
 20
  8170.000
 11
 24200.799
 21
  8170.000
  0
LINE
  8
4
 10
 29969.199
 20
     0.000
 11
 29969.199
 21
  8170.000
  0
LINE
  8
4
 10
 30070.799
 20
     0.000
 11
 30070.799
 21
  8170.000
  0
LINE
  8
4
 10
 29969.199
 20
     0.000
 11
 30070.799
 21
     0.000
  0
LINE
  8
4
 10
 29969.199
 20
  8170.000
 11
 30070.799
 21
  8170.000
  0
LINE
  8
4
 10
 35779.199
 20
     0.000
 11
 35779.199
 21
  8170.000
  0
LINE
  8
4
 10
 35880.801
 20
     0.000
 11
 35880.801
 21
  8170.000
  0
LINE
  8
4
 10
 35779.199
 20
     0.000
 11
 35880.801
 21
     0.000
  0
LINE
  8
4
 10
 35779.199
 20
  8170.000
 11
 35880.801
 21
  8170.000
  0
TEXT
  8
21
 10
  2978.080
 20
  -243.840
 40
   121.920
  1
  1
 50
     0.000
  0
TEXT
  8
21
 10
  9073.080
 20
  -243.840
 40
   121.920
  1
  2
 50
     0.000
  0
TEXT
  8
21
 10
 14933.078
 20
  -243.840
 40
   121.920
  1
  3
 50
     0.000
  0
TEXT
  8
21
 10
 20913.078
 20
  -243.840
 40
   121.920
  1
  4
 50
     0.000
  0
TEXT
  8
21
 10
 26963.078
 20
  -243.840
 40
   121.920
  1
  5
 50
     0.000
  0
TEXT
  8
21
 10
 33023.078
 20
  -243.840
 40
   121.920
  1
  6
 50
     0.000
  0
LINE
  8
8
 10
     0.000
 20
  2500.000
 11
  6200.000
 21
  2500.000
  0
LINE
  8
8
 10
  6200.000
 20
  2500.000
 11
 12190.000
 21
  2500.000
  0
LINE
  8
8
 10
 12190.000
 20
  2500.000
 11
 17920.000
 21
  2500.000
  0
LINE
  8
8
 10
 17920.000
 20
  2500.000
 11
 24150.000
 21
  2500.000
  0
LINE
  8
8
 10
 24150.000
 20
  2500.000
 11
 30019.998
 21
  2500.000
  0
LINE
  8
8
 10
 30019.998
 20
  2500.000
 11
 36270.000
 21
  2500.000
  0
LINE
  8
2
 10
   440.000
 20
  2580.000
 11
  6200.000
 21
  2580.000
  0
LINE
  8
2
 10
  6200.000
 20
  2580.000
 11
 12190.000
 21
  2580.000
  0
LINE
  8
2
 10
 12190.000
 20
  2580.000
 11
 17920.000
 21
  2580.000
  0
LINE
  8
2
 10
 17920.000
 20
  2580.000
 11
 24150.000
 21
  2580.000
  0
LINE
  8
2
 10
 24150.000
 20
  2580.000
 11
 30019.998
 21
  2580.000
  0
LINE
  8
2
 10
 30019.998
 20
  2580.000
 11
 35830.000
 21
  2580.000
  0
LINE
  8
2
 10
   440.000
 20
  4080.000
 11
  6200.000
 21
  4080.000
  0
LINE
  8
2
 10
  6200.000
 20
  4080.000
 11
 12190.000
 21
  4080.000
  0
LINE
  8
2
 10
 12190.000
 20
  4080.000
 11
 17920.000
 21
  4080.000
  0
LINE
  8
2
 10
 17920.000
 20
  4080.000
 11
 24150.000
 21
  4080.000
  0
LINE
  8
2
 10
 24150.000
 20
  4080.000
 11
 30019.998
 21
  4080.000
  0
LINE
  8
2
 10
 30019.998
 20
  4080.000
 11
 35830.000
 21
  4080.000
  0
LINE
  8
2
 10
   440.000
 20
  5580.000
 11
  6200.000
 21
  5580.000
  0
LINE
  8
2
 10
  6200.000
 20
  5580.000
 11
 12190.000
 21
  5580.000
  0
LINE
  8
2
 10
 12190.000
 20
  5580.000
 11
 17920.000
 21
  5580.000
  0
LINE
  8
2
 10
 17920.000
 20
  5580.000
 11
 24150.000
 21
  5580.000
  0
LINE
  8
2
 10
 24150.000
 20
  5580.000
 11
 30019.998
 21
  5580.000
  0
LINE
  8
2
 10
 30019.998
 20
  5580.000
 11
 35830.000
 21
  5580.000
  0
LINE
  8
2
 10
   440.000
 20
  7080.000
 11
  6200.000
 21
  7080.000
  0
LINE
  8
2
 10
  6200.000
 20
  7080.000
 11
 12190.000
 21
  7080.000
  0
LINE
  8
2
 10
 12190.000
 20
  7080.000
 11
 17920.000
 21
  7080.000
  0
LINE
  8
2
 10
 17920.000
 20
  7080.000
 11
 24150.000
 21
  7080.000
  0
LINE
  8
2
 10
 24150.000
 20
  7080.000
 11
 30019.998
 21
  7080.000
  0
LINE
  8
2
 10
 30019.998
 20
  7080.000
 11
 35830.000
 21
  7080.000
  0
LINE
  8
6
 10
  2066.667
 20
  2580.000
 11
  2066.667
 21
  8170.000
  0
LINE
  8
6
 10
  4133.333
 20
  2580.000
 11
  4133.333
 21
  8170.000
  0
LINE
  8
6
 10
  8196.666
 20
  2580.000
 11
  8196.666
 21
  8170.000
  0
LINE
  8
6
 10
 10193.333
 20
  2580.000
 11
 10193.333
 21
  8170.000
  0
LINE
  8
6
 10
 14099.999
 20
  2580.000
 11
 14099.999
 21
  8170.000
  0
LINE
  8
6
 10
 16010.000
 20
  2580.000
 11
 16010.000
 21
  8170.000
  0
LINE
  8
6
 10
 19996.668
 20
  2580.000
 11
 19996.668
 21
  8170.000
  0
LINE
  8
6
 10
 22073.334
 20
  2580.000
 11
 22073.334
 21
  8170.000
  0
LINE
  8
6
 10
 26106.666
 20
  2580.000
 11
 26106.666
 21
  8170.000
  0
LINE
  8
6
 10
 28063.332
 20
  2580.000
 11
 28063.332
 21
  8170.000
  0
LINE
  8
6
 10
 32103.332
 20
  2580.000
 11
 32103.332
 21
  8170.000
  0
LINE
  8
6
 10
 34186.664
 20
  2580.000
 11
 34186.664
 21
  8170.000
  0
LINE
  8
8
 10
     0.000
 20
  8170.000
 11
 36270.000
 21
  8170.000
  0
LINE
  8
0
 10
 -1813.501
 20
-10998.296
 11
 38083.500
 21
-10998.296
  0
LINE
  8
0
 10
 38083.500
 20
-10998.296
 11
 38083.500
 21
 18924.455
  0
LINE
  8
0
 10
 38083.500
 20
 18924.455
 11
 -1813.501
 21
 18924.455
  0
LINE
  8
0
 10
 -1813.501
 20
 18924.455
 11
 -1813.501
 21
-10998.296
  0
LINE
  8
0
 10
 -1813.501
 20
-10010.845
 11
 38083.500
 21
-10010.845
  0
TEXT
  8
0
 10
 11222.844
 20
-10833.721
 40
   658.301
  1
Front Sidewall Design
 50
     0.000
  0
TEXT
  8
0
 10
 -1484.351
 20
-10833.721
 40
   658.301
  1
C323-153
 50
     0.000
  0
TEXT
  8
0
 10
 30513.043
 20
-10833.721
 40
   658.301
  1
23/JUL/2025
 50
     0.000
  0
ENDSEC
  0
EOF
