  0
SECTION
  2
HEADER
  9
$ACADVER
  1
AC1009
  9
$EXTMIN
 10
 -1813.501
 20
-10998.296
  9
$EXTMAX
 10
 38083.500
 20
 18924.455
  9
$LIMMIN
 10
 -1813.501
 20
-10998.296
  9
$LIMMAX
 10
 38083.500
 20
 18924.455
  9
$FILLMODE
 70
     1
  9
$HANDLING
 70
     0
  0
ENDSEC
  0
SECTION
  2
TABLES
  0
TABLE
  2
LTYPE
 70
1
  0
LTYPE
  2
CONTIN
 70
    64
  3
SOLID LINE
 72
    65
 73
     0
 40
0.0
  0
LTYPE
  2
CONTINUOUS
 70
    64
  3
SOLID LINE
 72
    65
 73
     0
 40
0.0
  0
LTYPE
  2
CENTER
 70
    64
  3
____ _ ____ _ ____ _ ____ _ ____ _ ____ _ ____
 72
    65
 73
     4
 40
  1490.286
 49
   931.429
 49
  -186.286
 49
   186.286
 49
  -186.286
  0
LTYPE
  2
DASHED
 70
    64
  3
__ __ __ __ __ __ __ __ __ __ __ __ __ __ __ 
 72
    65
 73
     2
 40
   478.76
 49
   319.17
 49
  -159.58
  0
ENDTAB
  0
TABLE
  2
LAYER
 70
30
  0
LAYER
  2
0
 70
     0
 62
     7
  6
CONTIN
  0
LAYER
  2
1
 70
     0
 62
     7
  6
CONTIN
  0
LAYER
  2
2
 70
     0
 62
     7
  6
CONTIN
  0
LAYER
  2
3
 70
     0
 62
     7
  6
CONTIN
  0
LAYER
  2
4
 70
     0
 62
     5
  6
CONTIN
  0
LAYER
  2
5
 70
     0
 62
     5
  6
DASHED
  0
LAYER
  2
6
 70
     0
 62
     5
  6
DASHED
  0
LAYER
  2
7
 70
     0
 62
     5
  6
CONTIN
  0
LAYER
  2
8
 70
     0
 62
     5
  6
DASHED
  0
LAYER
  2
9
 70
     0
 62
     7
  6
CONTIN
  0
LAYER
  2
10
 70
     0
 62
     7
  6
CONTIN
  0
LAYER
  2
11
 70
     0
 62
     6
  6
DASHED
  0
LAYER
  2
12
 70
     0
 62
     7
  6
DASHED
  0
LAYER
  2
13
 70
     0
 62
     5
  6
DASHED
  0
LAYER
  2
14
 70
     0
 62
     7
  6
CONTIN
  0
LAYER
  2
15
 70
     0
 62
     5
  6
CONTIN
  0
LAYER
  2
16
 70
     0
 62
     7
  6
CONTIN
  0
LAYER
  2
17
 70
     0
 62
     7
  6
CONTIN
  0
LAYER
  2
18
 70
     0
 62
     7
  6
CONTIN
  0
LAYER
  2
19
 70
     0
 62
     7
  6
CONTIN
  0
LAYER
  2
20
 70
     0
 62
     1
  6
CONTIN
  0
LAYER
  2
21
 70
     0
 62
     7
  6
CONTIN
  0
LAYER
  2
22
 70
     0
 62
     7
  6
DASHED
  0
LAYER
  2
23
 70
     0
 62
     7
  6
DASHED
  0
LAYER
  2
24
 70
     0
 62
     7
  6
CONTIN
  0
LAYER
  2
25
 70
     0
 62
     7
  6
CONTIN
  0
LAYER
  2
26
 70
     0
 62
     7
  6
CONTIN
  0
LAYER
  2
27
 70
     0
 62
     1
  6
CENTER
  0
LAYER
  2
28
 70
     0
 62
     7
  6
CONTIN
  0
LAYER
  2
29
 70
     0
 62
     3
  6
DASHED
  0
ENDTAB
  0
TABLE
  2
STYLE
 70
  0
  0
ENDTAB
  0
ENDSEC
  0
SECTION
  2
ENTITIES
  0
LINE
  8
4
 10
   389.200
 20
     0.000
 11
   389.200
 21
  8170.000
  0
LINE
  8
4
 10
   490.800
 20
     0.000
 11
   490.800
 21
  8170.000
  0
LINE
  8
4
 10
   389.200
 20
     0.000
 11
   490.800
 21
     0.000
  0
LINE
  8
4
 10
   389.200
 20
  8170.000
 11
   490.800
 21
  8170.000
  0
LINE
  8
4
 10
  6199.200
 20
     0.000
 11
  6199.200
 21
  8170.000
  0
LINE
  8
4
 10
  6300.800
 20
     0.000
 11
  6300.800
 21
  8170.000
  0
LINE
  8
4
 10
  6199.200
 20
     0.000
 11
  6300.800
 21
     0.000
  0
LINE
  8
4
 10
  6199.200
 20
  8170.000
 11
  6300.800
 21
  8170.000
  0
LINE
  8
4
 10
 12069.200
 20
     0.000
 11
 12069.200
 21
  8170.000
  0
LINE
  8
4
 10
 12170.801
 20
     0.000
 11
 12170.801
 21
  8170.000
  0
LINE
  8
4
 10
 12069.200
 20
     0.000
 11
 12170.801
 21
     0.000
  0
LINE
  8
4
 10
 12069.200
 20
  8170.000
 11
 12170.801
 21
  8170.000
  0
LINE
  8
4
 10
 18299.199
 20
     0.000
 11
 18299.199
 21
  8170.000
  0
LINE
  8
4
 10
 18400.801
 20
     0.000
 11
 18400.801
 21
  8170.000
  0
LINE
  8
4
 10
 18299.199
 20
     0.000
 11
 18400.801
 21
     0.000
  0
LINE
  8
4
 10
 18299.199
 20
  8170.000
 11
 18400.801
 21
  8170.000
  0
LINE
  8
4
 10
 24029.199
 20
     0.000
 11
 24029.199
 21
  8170.000
  0
LINE
  8
4
 10
 24130.799
 20
     0.000
 11
 24130.799
 21
  8170.000
  0
LINE
  8
4
 10
 24029.199
 20
     0.000
 11
 24130.799
 21
     0.000
  0
LINE
  8
4
 10
 24029.199
 20
  8170.000
 11
 24130.799
 21
  8170.000
  0
LINE
  8
4
 10
 30019.199
 20
     0.000
 11
 30019.199
 21
  8170.000
  0
LINE
  8
4
 10
 30120.797
 20
     0.000
 11
 30120.797
 21
  8170.000
  0
LINE
  8
4
 10
 30019.199
 20
     0.000
 11
 30120.797
 21
     0.000
  0
LINE
  8
4
 10
 30019.199
 20
  8170.000
 11
 30120.797
 21
  8170.000
  0
LINE
  8
4
 10
 35779.199
 20
     0.000
 11
 35779.199
 21
  8170.000
  0
LINE
  8
4
 10
 35880.801
 20
     0.000
 11
 35880.801
 21
  8170.000
  0
LINE
  8
4
 10
 35779.199
 20
     0.000
 11
 35880.801
 21
     0.000
  0
LINE
  8
4
 10
 35779.199
 20
  8170.000
 11
 35880.801
 21
  8170.000
  0
TEXT
  8
21
 10
  3003.080
 20
  -243.840
 40
   121.920
  1
  1
 50
     0.000
  0
TEXT
  8
21
 10
  9063.081
 20
  -243.840
 40
   121.920
  1
  2
 50
     0.000
  0
TEXT
  8
21
 10
 15113.079
 20
  -243.840
 40
   121.920
  1
  3
 50
     0.000
  0
TEXT
  8
21
 10
 21093.078
 20
  -243.840
 40
   121.920
  1
  4
 50
     0.000
  0
TEXT
  8
21
 10
 26953.076
 20
  -243.840
 40
   121.920
  1
  5
 50
     0.000
  0
TEXT
  8
21
 10
 33048.078
 20
  -243.840
 40
   121.920
  1
  6
 50
     0.000
  0
LINE
  8
8
 10
     0.000
 20
  2500.000
 11
  6250.000
 21
  2500.000
  0
LINE
  8
8
 10
  6250.000
 20
  2500.000
 11
 12120.000
 21
  2500.000
  0
LINE
  8
8
 10
 12120.000
 20
  2500.000
 11
 18350.000
 21
  2500.000
  0
LINE
  8
8
 10
 18350.000
 20
  2500.000
 11
 24079.998
 21
  2500.000
  0
LINE
  8
8
 10
 24079.998
 20
  2500.000
 11
 30069.998
 21
  2500.000
  0
LINE
  8
8
 10
 30069.998
 20
  2500.000
 11
 36270.000
 21
  2500.000
  0
LINE
  8
2
 10
   440.000
 20
  2580.000
 11
  6250.000
 21
  2580.000
  0
LINE
  8
2
 10
  6250.000
 20
  2580.000
 11
 12120.000
 21
  2580.000
  0
LINE
  8
2
 10
 12120.000
 20
  2580.000
 11
 18350.000
 21
  2580.000
  0
LINE
  8
2
 10
 18350.000
 20
  2580.000
 11
 24079.998
 21
  2580.000
  0
LINE
  8
2
 10
 24079.998
 20
  2580.000
 11
 30069.998
 21
  2580.000
  0
LINE
  8
2
 10
 30069.998
 20
  2580.000
 11
 35830.000
 21
  2580.000
  0
LINE
  8
2
 10
   440.000
 20
  4080.000
 11
  6250.000
 21
  4080.000
  0
LINE
  8
2
 10
  6250.000
 20
  4080.000
 11
 12120.000
 21
  4080.000
  0
LINE
  8
2
 10
 12120.000
 20
  4080.000
 11
 18350.000
 21
  4080.000
  0
LINE
  8
2
 10
 18350.000
 20
  4080.000
 11
 24079.998
 21
  4080.000
  0
LINE
  8
2
 10
 24079.998
 20
  4080.000
 11
 30069.998
 21
  4080.000
  0
LINE
  8
2
 10
 30069.998
 20
  4080.000
 11
 35830.000
 21
  4080.000
  0
LINE
  8
2
 10
   440.000
 20
  5580.000
 11
  6250.000
 21
  5580.000
  0
LINE
  8
2
 10
  6250.000
 20
  5580.000
 11
 12120.000
 21
  5580.000
  0
LINE
  8
2
 10
 12120.000
 20
  5580.000
 11
 18350.000
 21
  5580.000
  0
LINE
  8
2
 10
 18350.000
 20
  5580.000
 11
 24079.998
 21
  5580.000
  0
LINE
  8
2
 10
 24079.998
 20
  5580.000
 11
 30069.998
 21
  5580.000
  0
LINE
  8
2
 10
 30069.998
 20
  5580.000
 11
 35830.000
 21
  5580.000
  0
LINE
  8
2
 10
   440.000
 20
  7080.000
 11
  6250.000
 21
  7080.000
  0
LINE
  8
2
 10
  6250.000
 20
  7080.000
 11
 12120.000
 21
  7080.000
  0
LINE
  8
2
 10
 12120.000
 20
  7080.000
 11
 18350.000
 21
  7080.000
  0
LINE
  8
2
 10
 18350.000
 20
  7080.000
 11
 24079.998
 21
  7080.000
  0
LINE
  8
2
 10
 24079.998
 20
  7080.000
 11
 30069.998
 21
  7080.000
  0
LINE
  8
2
 10
 30069.998
 20
  7080.000
 11
 35830.000
 21
  7080.000
  0
LINE
  8
6
 10
  2083.333
 20
  2580.000
 11
  2083.333
 21
  8170.000
  0
LINE
  8
6
 10
  4166.667
 20
  2580.000
 11
  4166.667
 21
  8170.000
  0
LINE
  8
6
 10
  8206.667
 20
  2580.000
 11
  8206.667
 21
  8170.000
  0
LINE
  8
6
 10
 10163.334
 20
  2580.000
 11
 10163.334
 21
  8170.000
  0
LINE
  8
6
 10
 14196.667
 20
  2580.000
 11
 14196.667
 21
  8170.000
  0
LINE
  8
6
 10
 16273.334
 20
  2580.000
 11
 16273.334
 21
  8170.000
  0
LINE
  8
6
 10
 20260.000
 20
  2580.000
 11
 20260.000
 21
  8170.000
  0
LINE
  8
6
 10
 22170.000
 20
  2580.000
 11
 22170.000
 21
  8170.000
  0
LINE
  8
6
 10
 26076.666
 20
  2580.000
 11
 26076.666
 21
  8170.000
  0
LINE
  8
6
 10
 28073.332
 20
  2580.000
 11
 28073.332
 21
  8170.000
  0
LINE
  8
6
 10
 32136.664
 20
  2580.000
 11
 32136.664
 21
  8170.000
  0
LINE
  8
6
 10
 34203.332
 20
  2580.000
 11
 34203.332
 21
  8170.000
  0
LINE
  8
8
 10
     0.000
 20
  8170.000
 11
 36270.000
 21
  8170.000
  0
LINE
  8
0
 10
 -1813.501
 20
-10998.296
 11
 38083.500
 21
-10998.296
  0
LINE
  8
0
 10
 38083.500
 20
-10998.296
 11
 38083.500
 21
 18924.455
  0
LINE
  8
0
 10
 38083.500
 20
 18924.455
 11
 -1813.501
 21
 18924.455
  0
LINE
  8
0
 10
 -1813.501
 20
 18924.455
 11
 -1813.501
 21
-10998.296
  0
LINE
  8
0
 10
 -1813.501
 20
-10010.845
 11
 38083.500
 21
-10010.845
  0
TEXT
  8
0
 10
 11551.994
 20
-10833.721
 40
   658.301
  1
Back Sidewall Design
 50
     0.000
  0
TEXT
  8
0
 10
 -1484.351
 20
-10833.721
 40
   658.301
  1
C323-153
 50
     0.000
  0
TEXT
  8
0
 10
 30513.043
 20
-10833.721
 40
   658.301
  1
23/JUL/2025
 50
     0.000
  0
ENDSEC
  0
EOF
