999
SOURCE:MBS   PROGRAM:EWSWDWG   CELL:SwDwg-F   CLASS:ELEVATION   MODE:
  0
SECTION
  2
HEADER
  9
$ACADVER
  1
AC1009
  9
$EXTMIN
 10
0.00000000
 20
0.00000000
  9
$EXTMAX
 10
52409.7383
 20
37061.1758
  9
$LIMMIN
 10
0.00000000
 20
0.00000000
  9
$LIMMAX
 10
52409.7383
 20
37061.1758
  9
$FILLMODE
 70
     1
  9
$HANDLING
 70
     0
  0
ENDSEC
  0
SECTION
  2
TABLES
  0
TABLE
  2
LTYPE
 70
4
  0
LTYPE
  2
CONTIN
 70
   64
  3
SOLID LINE
  72
   65
 73
    0
 40
 0.000
  0
LTYPE
  2
CENTER
 70
   64
  3
____ _ ____ _ _
  72
   65
 73
    4
 40
3169.5
 49
1981.0
 49
-396.2
 49
396.19
 49
-396.2
  0
LTYPE
  2
DASHED
 70
   64
  3
__ __ __ __ __
  72
   65
 73
    2
 40
594.29
 49
396.19
 49
-196.5
  0
LTYPE
  2
CONTINUOUS
 70
   64
  3
SOLID LINE
  72
   65
 73
    0
 40
 0.000
  0
ENDTAB
  0
TABLE
  2
LAYER
 70
27
  0
LAYER
  2
0
 70
     0
 62
     7
  6
CONTIN
  0
LAYER
  2
1
 70
     0
 62
     7
  6
CONTIN
  0
LAYER
  2
2
 70
     0
 62
     6
  6
CONTIN
  0
LAYER
  2
3
 70
     0
 62
     7
  6
CONTIN
  0
LAYER
  2
4
 70
     0
 62
     7
  6
CONTIN
  0
LAYER
  2
5
 70
     0
 62
     5
  6
DASHED
  0
LAYER
  2
6
 70
     0
 62
     6
  6
CONTIN
  0
LAYER
  2
7
 70
     0
 62
     7
  6
CONTIN
  0
LAYER
  2
8
 70
     0
 62
     8
  6
DASHED
  0
LAYER
  2
9
 70
     0
 62
     9
  6
DASHED
  0
LAYER
  2
10
 70
     0
 62
    10
  6
CONTIN
  0
LAYER
  2
11
 70
     0
 62
     7
  6
CONTIN
  0
LAYER
  2
12
 70
     0
 62
     6
  6
CONTIN
  0
LAYER
  2
13
 70
     0
 62
     1
  6
CONTIN
  0
LAYER
  2
14
 70
     0
 62
     7
  6
CONTIN
  0
LAYER
  2
15
 70
     0
 62
     7
  6
CONTIN
  0
LAYER
  2
16
 70
     0
 62
     7
  6
CONTIN
  0
LAYER
  2
17
 70
     0
 62
     5
  6
CONTIN
  0
LAYER
  2
18
 70
     0
 62
     7
  6
CONTIN
  0
LAYER
  2
19
 70
     0
 62
     7
  6
CONTIN
  0
LAYER
  2
20
 70
     0
 62
     7
  6
CONTIN
  0
LAYER
  2
21
 70
     0
 62
     7
  6
CONTIN
  0
LAYER
  2
22
 70
     0
 62
     7
  6
CONTIN
  0
LAYER
  2
23
 70
     0
 62
     7
  6
DASHED
  0
LAYER
  2
24
 70
     0
 62
     7
  6
CONTIN
  0
LAYER
  2
25
 70
     0
 62
     7
  6
CONTIN
  0
LAYER
  2
26
 70
     0
 62
     7
  6
CONTIN
  0
LAYER
  2
27
 70
     0
 62
     1
  6
CENTER
  0
ENDTAB
  0
TABLE
  2
STYLE
 70
  0
  0
STYLE
  2
SIMPLEX
 70
  0
 40
  0.000
 41
  1.000
 42
  1.000
 50
  0.000
 71
  0
  3
SIMPLEX
  0
STYLE
  2
ROMANS
 70
  0
 40
  0.000
 41
  1.000
 42
  1.000
 50
  0.000
 71
  0
  3
ROMANS
  0
STYLE
  2
OPEN
 70
  0
 40
  0.000
 41
  1.000
 42
  1.000
 50
  0.000
 71
  0
  3
SIMPLEX
  0
STYLE
  2
ARIAL
 70
  0
 40
  0.000
 41
  1.000
 42
  1.000
 50
  0.000
 71
  0
  3
ARIAL.TTF
  0
STYLE
  2
VERDANAB
 70
  0
 40
  0.000
 41
  1.000
 42
  1.000
 50
  0.000
 71
  0
  3
VERDANAB.TTF
  0
ENDTAB
  0
ENDSEC
  0
SECTION
  2
BLOCKS
  0
BLOCK
  8
0
  2
ARROWP
 70
     0
 10
0.00000000
 20
0.00000000
  0
LINE
  8
0
 10
0.00000000
 20
0.00000000
 11
-226.62219
 21
-37.770367
  0
LINE
  8
0
 10
0.00000000
 20
0.00000000
 11
-226.62219
 21
37.7703667
  0
LINE
  8
0
 10
-226.62219
 20
37.7703667
 11
-226.62219
 21
-37.770367
  0
ENDBLK
  8
0
  0
BLOCK
  8
0
  2
ARROW
 70
     0
 10
0.00000000
 20
0.00000000
  0
LINE
  8
0
 10
0.00000000
 20
0.00000000
 11
-226.62219
 21
-37.770367
  0
LINE
  8
0
 10
0.00000000
 20
0.00000000
 11
-226.62219
 21
37.7703667
  0
LINE
  8
0
 10
-226.62219
 20
37.7703667
 11
-226.62219
 21
-37.770367
  0
ENDBLK
  8
0
  0
BLOCK
  8
0
  2
MARKER
 70
     0
 10
0.00000000
 20
0.00000000
  0
LINE
  8
0
 10
0.00000000
 20
0.00000000
 11
25.3999996
 21
25.3999996
  0
LINE
  8
0
 10
25.3999996
 20
25.3999996
 11
-25.400000
 21
25.3999996
  0
LINE
  8
0
 10
-25.400000
 20
25.3999996
 11
0.00000000
 21
0.00000000
  0
ENDBLK
  8
0
  0
BLOCK
  8
0
  2
FLGCLP
 70
     0
 10
0.00000000
 20
0.00000000
  0
LINE
  8
0
 10
0.00000000
 20
0.00000000
 11
25.3999996
 21
25.3999996
  0
LINE
  8
0
 10
25.3999996
 20
25.3999996
 11
-25.400000
 21
25.3999996
  0
LINE
  8
0
 10
-25.400000
 20
25.3999996
 11
0.00000000
 21
0.00000000
  0
LINE
  8
0
 10
-8.4666672
 20
8.46666716
 11
8.46666716
 21
8.46666716
  0
LINE
  8
0
 10
-8.4666672
 20
8.46666716
 11
-8.4666672
 21
25.3999996
  0
LINE
  8
0
 10
8.46666716
 20
8.46666716
 11
8.46666716
 21
25.3999996
  0
ENDBLK
  8
0
  0
BLOCK
  8
0
  2
DIAMOND
 70
     0
 10
0.00000000
 20
0.00000000
  0
LINE
  8
0
 10
0.00000000
 20
0.00000000
 11
12.6999998
 21
12.6999998
  0
LINE
  8
0
 10
12.6999998
 20
12.6999998
 11
0.00000000
 21
25.3999996
  0
LINE
  8
0
 10
0.00000000
 20
25.3999996
 11
-12.700000
 21
12.6999998
  0
LINE
  8
0
 10
-12.700000
 20
12.6999998
 11
0.00000000
 21
0.00000000
  0
ENDBLK
  8
0
  0
BLOCK
  8
0
  2
SHIELD
 70
     0
 10
0.00000000
 20
0.00000000
  0
ARC
  8
0
 10
0.00000000
 20
38.0999985
 40
12.6999998
 50
   0.000
 51
 180.000
  0
LINE
  8
0
 10
-12.700000
 20
38.0999985
 11
-12.700000
 21
12.6999998
  0
LINE
  8
0
 10
-12.700000
 20
12.6999998
 11
0.00000000
 21
0.00000000
  0
LINE
  8
0
 10
0.00000000
 20
0.00000000
 11
12.6999998
 21
12.6999998
  0
LINE
  8
0
 10
12.6999998
 20
12.6999998
 11
12.6999998
 21
38.0999985
  0
ENDBLK
  8
0
  0
BLOCK
  8
0
  2
FINFLR
 70
     0
 10
0.00000000
 20
0.00000000
  0
LINE
  8
0
 10
0.00000000
 20
0.00000000
 11
12.6999998
 21
25.3999996
  0
LINE
  8
0
 10
12.6999998
 20
25.3999996
 11
-12.700000
 21
25.3999996
  0
LINE
  8
0
 10
-12.700000
 20
25.3999996
 11
0.00000000
 21
0.00000000
  0
LINE
  8
0
 10
0.00000000
 20
0.00000000
 11
0.00000000
 21
25.3999996
  0
SOLID
  8
0
 10
0.00000000
 20
0.00000000
 11
0.00000000
 21
25.3999996
 12
-12.700000
 22
25.3999996
 13
-12.700000
 23
25.3999996
  0
ENDBLK
  8
0
  0
BLOCK
  8
0
  2
CIRCLE
 70
     0
 10
0.00000000
 20
0.00000000
  0
CIRCLE
  8
1
 10
   0.000
 20
   0.000
 40
  25.400
  0
ENDBLK
  8
0
  0
BLOCK
  8
0
  2
HEXAGON
 70
     0
 10
0.00000000
 20
0.00000000
  0
LINE
  8
0
 10
0.00000000
 20
0.00000000
 11
7.62000084
 21
-10.160000
  0
LINE
  8
0
 10
7.62000084
 20
-10.160000
 11
17.7799988
 21
-10.160000
  0
LINE
  8
0
 10
17.7799988
 20
-10.160000
 11
25.3999996
 21
0.00000000
  0
LINE
  8
0
 10
25.3999996
 20
0.00000000
 11
17.7799988
 21
10.1599999
  0
LINE
  8
0
 10
17.7799988
 20
10.1599999
 11
7.62000084
 21
10.1599999
  0
LINE
  8
0
 10
7.62000084
 20
10.1599999
 11
0.00000000
 21
0.00000000
  0
ENDBLK
  8
0
  0
BLOCK
  8
0
  2
CCOL
 70
     0
 10
0.00000000
 20
0.00000000
  0
LINE
  8
0
 10
10.1599999
 20
-2.5400000
 11
10.1599999
 21
0.00000000
  0
LINE
  8
0
 10
10.1599999
 20
0.00000000
 11
0.00000000
 21
0.00000000
  0
LINE
  8
0
 10
0.00000000
 20
0.00000000
 11
0.00000000
 21
-25.400000
  0
LINE
  8
0
 10
0.00000000
 20
-25.400000
 11
10.1599999
 21
-25.400000
  0
LINE
  8
0
 10
10.1599999
 20
-25.400000
 11
10.1599999
 21
-22.859999
  0
ENDBLK
  8
0
  0
BLOCK
  8
0
  2
DCOL
 70
     0
 10
0.00000000
 20
0.00000000
  0
INSERT
  8
0
  2
CCOL
 10
2.53999996
 20
0.00000000
 41
1.00000000
 42
1.00000000
 43
1.00000000
 50
   0.000
  0
INSERT
  8
0
  2
CCOL
 10
-2.5400000
 20
0.00000000
 41
-1.0000000
 42
1.00000000
 43
1.00000000
 50
   0.000
  0
ENDBLK
  8
0
  0
BLOCK
  8
0
  2
UCOL
 70
     0
 10
0.00000000
 20
0.00000000
  0
LINE
  8
0
 10
10.1599999
 20
0.00000000
 11
0.00000000
 21
0.00000000
  0
LINE
  8
0
 10
0.00000000
 20
0.00000000
 11
0.00000000
 21
-25.400000
  0
LINE
  8
0
 10
0.00000000
 20
-25.400000
 11
10.1599999
 21
-25.400000
  0
ENDBLK
  8
0
  0
BLOCK
  8
0
  2
WCOL
 70
     0
 10
0.00000000
 20
0.00000000
  0
LINE
  8
0
 10
-10.160000
 20
0.00000000
 11
10.1599999
 21
0.00000000
  0
LINE
  8
0
 10
0.00000000
 20
0.00000000
 11
0.00000000
 21
-25.400000
  0
LINE
  8
0
 10
-10.160000
 20
-25.400000
 11
10.1599999
 21
-25.400000
  0
ENDBLK
  8
0
  0
BLOCK
  8
0
  2
ZCOL
 70
     0
 10
0.00000000
 20
0.00000000
  0
LINE
  8
0
 10
10.1599999
 20
-2.5400000
 11
10.1599999
 21
0.00000000
  0
LINE
  8
0
 10
10.1599999
 20
0.00000000
 11
0.00000000
 21
0.00000000
  0
LINE
  8
0
 10
0.00000000
 20
0.00000000
 11
0.00000000
 21
-25.400000
  0
LINE
  8
0
 10
0.00000000
 20
-25.400000
 11
-10.160000
 21
-25.400000
  0
LINE
  8
0
 10
-10.160000
 20
-25.400000
 11
-10.160000
 21
-22.859999
  0
ENDBLK
  8
0
  0
BLOCK
  8
0
  2
TCOL
 70
     0
 10
0.00000000
 20
0.00000000
  0
LINE
  8
0
 10
-12.700000
 20
-12.700000
 11
12.6999998
 21
-12.700000
  0
LINE
  8
0
 10
12.6999998
 20
-12.700000
 11
12.6999998
 21
12.6999998
  0
LINE
  8
0
 10
12.6999998
 20
12.6999998
 11
-12.700000
 21
12.6999998
  0
LINE
  8
0
 10
-12.700000
 20
12.6999998
 11
-12.700000
 21
-12.700000
  0
ENDBLK
  8
0
  0
BLOCK
  8
0
  2
TCOL2
 70
     0
 10
0.00000000
 20
0.00000000
  0
LINE
  8
0
 10
-6.3499999
 20
-12.700000
 11
6.34999992
 21
-12.700000
  0
LINE
  8
0
 10
6.34999992
 20
-12.700000
 11
6.34999992
 21
12.6999998
  0
LINE
  8
0
 10
6.34999992
 20
12.6999998
 11
-6.3499999
 21
12.6999998
  0
LINE
  8
0
 10
-6.3499999
 20
12.6999998
 11
-6.3499999
 21
-12.700000
  0
ENDBLK
  8
0
  0
BLOCK
  8
1
  2
PCOL
 70
     0
 10
0.00000000
 20
0.00000000
  0
CIRCLE
  8
1
 10
0.00000000
 20
0.00000000
 40
12.6999998
  0
ENDBLK
  8
1
  0
BLOCK
  8
0
  2
GCOL
 70
     0
 10
0.00000000
 20
0.00000000
  0
LINE
  8
0
 10
10.1599999
 20
-2.5400000
 11
10.1599999
 21
0.00000000
  0
LINE
  8
0
 10
10.1599999
 20
0.00000000
 11
0.00000000
 21
0.00000000
  0
LINE
  8
0
 10
0.00000000
 20
0.00000000
 11
0.00000000
 21
-25.400000
  0
LINE
  8
0
 10
0.00000000
 20
-25.400000
 11
25.3999996
 21
-25.400000
  0
LINE
  8
0
 10
25.3999996
 20
-25.400000
 11
25.3999996
 21
-15.240001
  0
LINE
  8
0
 10
25.3999996
 20
-15.240001
 11
22.8599987
 21
-15.240001
  0
ENDBLK
  8
0
  0
BLOCK
  8
0
  2
VSECTN
 70
     0
 10
0.00000000
 20
0.00000000
  0
LINE
  8
0
 10
-12.700000
 20
25.3999996
 11
12.6999998
 21
25.3999996
  0
LINE
  8
0
 10
-12.700000
 20
25.3999996
 11
0.00000000
 21
0.00000000
  0
LINE
  8
0
 10
0.00000000
 20
0.00000000
 11
12.6999998
 21
25.3999996
  0
ENDBLK
  8
0
  0
BLOCK
  8
0
  2
XCOL
 70
     0
 10
0.00000000
 20
0.00000000
  0
LINE
  8
0
 10
-14.287499
 20
1.58749996
 11
14.2874994
 21
1.58749996
  0
LINE
  8
0
 10
14.2874994
 20
1.58749996
 11
14.2874994
 21
-26.987499
  0
LINE
  8
0
 10
14.2874994
 20
-26.987499
 11
-14.287499
 21
-26.987499
  0
LINE
  8
0
 10
-14.287499
 20
-26.987499
 11
-14.287499
 21
1.58749996
  0
ENDBLK
  8
0
  0
BLOCK
  8
0
  2
SGUS
 70
     0
 10
0.00000000
 20
0.00000000
  0
LINE
  8
0
 10
0.00000000
 20
0.00000000
 11
7.62000084
 21
0.00000000
  0
LINE
  8
0
 10
7.62000084
 20
0.00000000
 11
17.7799988
 21
-25.400000
  0
LINE
  8
0
 10
17.7799988
 20
-25.400000
 11
25.3999996
 21
-25.400000
  0
ENDBLK
  8
0
  0
BLOCK
  8
7
  2
CUTSEC
 70
     0
 10
0.00000000
 20
0.00000000
  0
LINE
  8
7
 10
-366.08203
 20
0.00000000
 11
-87.162392
 21
0.00000000
  0
LINE
  8
7
 10
87.1623917
 20
0.00000000
 11
366.082031
 21
0.00000000
  0
LINE
  8
7
 10
366.082031
 20
0.00000000
 11
366.082031
 21
104.594872
  0
INSERT
  8
7
  2
ARROWP
 10
366.082031
 20
331.217041
 41
1.00000000
 42
1.00000000
 43
1.00000000
 50
  90.000
  0
ENDBLK
  8
7
  0
BLOCK
  8
0
  2
WALLLITE
 70
     0
 10
0.00000000
 20
0.00000000
  0
LINE
  8
0
 10
25.3999996
 20
0.00000000
 11
0.00000000
 21
0.00000000
  0
LINE
  8
0
 10
0.00000000
 20
0.00000000
 11
0.00000000
 21
-25.400000
  0
LINE
  8
0
 10
0.00000000
 20
-25.400000
 11
25.3999996
 21
-25.400000
  0
LINE
  8
0
 10
25.3999996
 20
-25.400000
 11
25.3999996
 21
0.00000000
  0
LINE
  8
0
 10
0.00000000
 20
-25.400000
 11
0.00000000
 21
0.00000000
  0
LINE
  8
0
 10
6.34999992
 20
-25.400000
 11
6.34999992
 21
0.00000000
  0
LINE
  8
0
 10
12.6999998
 20
-25.400000
 11
12.6999998
 21
0.00000000
  0
LINE
  8
0
 10
19.0499992
 20
-25.400000
 11
19.0499992
 21
0.00000000
  0
ENDBLK
  8
0
  0
BLOCK
  8
7
  2
DETAIL
 70
     0
 10
0.00000000
 20
0.00000000
  0
CIRCLE
  8
7
 10
0.00000000
 20
0.00000000
 40
87.1623917
  0
LINE
  8
7
 10
87.1623917
 20
0.00000000
 11
383.514526
 21
0.00000000
  0
ENDBLK
  8
7
  0
BLOCK
  8
0
  2
SW1FRM
 70
     0
 10
0.00000000
 20
0.00000000
999
START:   AREA=Surface
  0
LINE
  8
5
 10
0.00000000
 20
0.00000000
 11
36285.0000
 21
0.00000000
  0
LINE
  8
5
 10
0.00000000
 20
0.00000000
 11
0.00000000
 21
8420.00000
  0
LINE
  8
5
 10
36285.0000
 20
0.00000000
 11
36285.0000
 21
8420.00000
999
END:     AREA=Surface
999
START:   AREA=Frames
  0
LINE
  8
4
 10
439.999970
 20
0.00000000
 11
439.999970
 21
8367.70215
  0
LINE
  8
4
 10
6200.00000
 20
0.00000000
 11
6200.00000
 21
8367.70215
  0
INSERT
  8
10
  2
WCOL
 10
6200.00000
 20
-104.59486
 41
8.57897568
 42
8.57897568
 43
8.57897568
 50
   0.000
  0
TEXT
  8
3
 7
SIMPLEX
 10
5764.18799
 20
-699.47821
 40
217.905975
  1
 CL2-1
 50
   0.000
  0
LINE
  8
4
 10
12190.0000
 20
0.00000000
 11
12190.0000
 21
8367.70215
  0
INSERT
  8
10
  2
WCOL
 10
12190.0000
 20
-104.59486
 41
8.57897568
 42
8.57897568
 43
8.57897568
 50
   0.000
  0
TEXT
  8
3
 7
SIMPLEX
 10
11754.1875
 20
-699.47821
 40
217.905975
  1
 CL2-1
 50
   0.000
  0
LINE
  8
4
 10
18335.0000
 20
0.00000000
 11
18335.0000
 21
8367.70215
  0
INSERT
  8
10
  2
WCOL
 10
18335.0000
 20
-104.59486
 41
8.57897568
 42
8.57897568
 43
8.57897568
 50
   0.000
  0
TEXT
  8
3
 7
SIMPLEX
 10
17899.1875
 20
-699.47821
 40
217.905975
  1
 CL3-1
 50
   0.000
  0
LINE
  8
4
 10
24035.0000
 20
0.00000000
 11
24035.0000
 21
8367.70215
  0
INSERT
  8
10
  2
WCOL
 10
24035.0000
 20
-104.59486
 41
8.57897568
 42
8.57897568
 43
8.57897568
 50
   0.000
  0
TEXT
  8
3
 7
SIMPLEX
 10
23599.1895
 20
-699.47821
 40
217.905975
  1
 CL2-1
 50
   0.000
  0
LINE
  8
4
 10
30035.0020
 20
0.00000000
 11
30035.0020
 21
8367.70215
  0
INSERT
  8
10
  2
WCOL
 10
30035.0020
 20
-104.59486
 41
8.57897568
 42
8.57897568
 43
8.57897568
 50
   0.000
  0
TEXT
  8
3
 7
SIMPLEX
 10
29599.1875
 20
-699.47821
 40
217.905975
  1
 CL4-1
 50
   0.000
  0
LINE
  8
4
 10
35845.0000
 20
0.00000000
 11
35845.0000
 21
8367.70215
  0
INSERT
  8
10
  2
WCOL
 10
439.999970
 20
-104.59486
 41
8.57897568
 42
8.57897568
 43
8.57897568
 50
   0.000
  0
TEXT
  8
3
 7
SIMPLEX
 10
-137.45091
 20
-699.47821
 40
217.905975
  1
 CL1-5
 50
   0.000
  0
INSERT
  8
10
  2
WCOL
 10
35845.0000
 20
-104.59486
 41
8.57897568
 42
8.57897568
 43
8.57897568
 50
   0.000
  0
TEXT
  8
3
 7
SIMPLEX
 10
35229.4141
 20
-699.47821
 40
217.905975
  1
 CL5-5
 50
   0.000
999
END:     AREA=Frames
999
START:   AREA=Endwall Columns
999
END:     AREA=Endwall Columns
999
START:   AREA=Soldier Rafters
999
END:     AREA=Soldier Rafters
999
START:   AREA=Eaves
  0
LINE
  8
1
 10
0.00000000
 20
8420.00000
 11
6557.56787
 21
8420.00000
  0
LINE
  8
1
 10
5842.43262
 20
8420.00000
 11
12547.5684
 21
8420.00000
  0
LINE
  8
1
 10
11832.4316
 20
8420.00000
 11
18692.5664
 21
8420.00000
  0
LINE
  8
1
 10
17977.4336
 20
8420.00000
 11
24392.5684
 21
8420.00000
  0
LINE
  8
1
 10
23677.4336
 20
8420.00000
 11
30392.5703
 21
8420.00000
  0
LINE
  8
1
 10
29677.4297
 20
8420.00000
 11
36285.0000
 21
8420.00000
999
END:     AREA=Eaves
999
START:   AREA=Framed Openings
999
END:     AREA=Framed Openings
999
START:   AREA=Wideopen Outlines
999
END:     AREA=WideOpen Outlines
999
START:   AREA=Wind Frames
999
END:     AREA=Wind Frames
999
START:   AREA=Wall Panel
999
END:     AREA=Wall Panel
999
START:   AREA=Base Angles
999
START:   AREA=Partial Wall Angles
  0
LINE
  8
5
 10
0.00000000
 20
0.00000000
 11
0.00000000
 21
2500.00000
  0
LINE
  8
5
 10
36285.0000
 20
0.00000000
 11
36285.0000
 21
2500.00000
  0
LINE
  8
5
 10
0.00000000
 20
2500.00000
 11
36285.0000
 21
2500.00000
999
END:     AREA=Partial Wall Angles
999
START:   AREA=Wide Door Angles
999
END:     AREA=Wide Door Angles
999
START:   AREA=Eave Angles
999
END:     AREA=Eave Angles
999
START:   AREA=Cables
  0
LINE
  8
1
 10
6200.00000
 20
250.000000
 11
12190.0000
 21
6553.79980
  0
LINE
  8
1
 10
12190.0000
 20
250.000000
 11
6200.00000
 21
6553.79980
  0
TEXT
  8
3
 7
SIMPLEX
 10
7391.57959
 20
1583.08838
 40
217.905975
  1
CB-1
 50
  46.462
  0
TEXT
  8
3
 7
SIMPLEX
 10
10465.5615
 20
2143.86206
 40
217.905975
  1
CB-1
 50
 -46.462
  0
LINE
  8
1
 10
6200.00000
 20
6706.19971
 11
12190.0000
 21
8062.90234
  0
LINE
  8
1
 10
12190.0000
 20
6706.19971
 11
6200.00000
 21
8062.90234
  0
TEXT
  8
3
 7
SIMPLEX
 10
7271.04590
 20
7004.64209
 40
217.905975
  1
CB-2
 50
  12.762
  0
TEXT
  8
3
 7
SIMPLEX
 10
10290.1143
 20
7192.37012
 40
217.905975
  1
CB-2
 50
 -12.762
  0
LINE
  8
1
 10
24035.0000
 20
250.000000
 11
30035.0020
 21
6553.79980
  0
LINE
  8
1
 10
30035.0020
 20
250.000000
 11
24035.0000
 21
6553.79980
  0
TEXT
  8
3
 7
SIMPLEX
 10
25202.5859
 20
1555.72156
 40
217.905975
  1
CB-3
 50
  46.414
  0
TEXT
  8
3
 7
SIMPLEX
 10
28281.5078
 20
2171.29468
 40
217.905975
  1
CB-3
 50
 -46.414
  0
LINE
  8
1
 10
24035.0000
 20
6706.19971
 11
30035.0020
 21
8062.90234
  0
LINE
  8
1
 10
30035.0020
 20
6706.19971
 11
24035.0000
 21
8062.90234
  0
TEXT
  8
3
 7
SIMPLEX
 10
25108.5313
 20
7004.79492
 40
217.905975
  1
CB-4
 50
  12.741
  0
TEXT
  8
3
 7
SIMPLEX
 10
28132.5605
 20
7192.22510
 40
217.905975
  1
CB-4
 50
 -12.741
999
END:     AREA=Cables
999
START:   AREA=Girts
  0
LINE
  8
1
 10
0.00000000
 20
2527.70264
 11
6575.00049
 21
2527.70264
  0
TEXT
  8
3
 7
SIMPLEX
 10
2631.50171
 20
2582.17920
 40
217.905975
  1
 G-14
 50
   0.000
  0
LINE
  8
1
 10
0.00000000
 20
3527.70239
 11
6575.00049
 21
3527.70239
  0
TEXT
  8
3
 7
SIMPLEX
 10
2631.50171
 20
3582.17896
 40
217.905975
  1
 G-14
 50
   0.000
  0
LINE
  8
1
 10
0.00000000
 20
4527.70215
 11
6575.00049
 21
4527.70215
  0
TEXT
  8
3
 7
SIMPLEX
 10
2631.50171
 20
4582.17871
 40
217.905975
  1
 G-14
 50
   0.000
  0
LINE
  8
1
 10
0.00000000
 20
5727.70264
 11
6575.00049
 21
5727.70264
  0
TEXT
  8
3
 7
SIMPLEX
 10
2631.50171
 20
5782.17871
 40
217.905975
  1
 G-14
 50
   0.000
  0
LINE
  8
1
 10
0.00000000
 20
7227.70264
 11
6575.00049
 21
7227.70264
  0
TEXT
  8
3
 7
SIMPLEX
 10
2631.50171
 20
7282.17871
 40
217.905975
  1
 G-14
 50
   0.000
  0
LINE
  8
1
 10
5824.99951
 20
2632.29736
 11
12565.0000
 21
2632.29736
  0
TEXT
  8
3
 7
SIMPLEX
 10
8726.50195
 20
2686.77417
 40
217.905975
  1
 G-15
 50
   0.000
  0
LINE
  8
1
 10
5824.99951
 20
3632.29761
 11
12565.0000
 21
3632.29761
  0
TEXT
  8
3
 7
SIMPLEX
 10
8726.50195
 20
3686.77417
 40
217.905975
  1
 G-15
 50
   0.000
  0
LINE
  8
1
 10
5824.99951
 20
4632.29736
 11
12565.0000
 21
4632.29736
  0
TEXT
  8
3
 7
SIMPLEX
 10
8726.50195
 20
4686.77393
 40
217.905975
  1
 G-15
 50
   0.000
  0
LINE
  8
1
 10
5824.99951
 20
5832.29736
 11
12565.0000
 21
5832.29736
  0
TEXT
  8
3
 7
SIMPLEX
 10
8726.50195
 20
5886.77393
 40
217.905975
  1
 G-15
 50
   0.000
  0
LINE
  8
1
 10
5824.99951
 20
7332.29736
 11
12565.0000
 21
7332.29736
  0
TEXT
  8
3
 7
SIMPLEX
 10
8726.50195
 20
7386.77393
 40
217.905975
  1
 G-15
 50
   0.000
  0
LINE
  8
1
 10
11815.0000
 20
2527.70264
 11
18710.0000
 21
2527.70264
  0
TEXT
  8
3
 7
SIMPLEX
 10
14794.0020
 20
2582.17920
 40
217.905975
  1
 G-16
 50
   0.000
  0
LINE
  8
1
 10
11815.0000
 20
3527.70239
 11
18710.0000
 21
3527.70239
  0
TEXT
  8
3
 7
SIMPLEX
 10
14794.0020
 20
3582.17896
 40
217.905975
  1
 G-16
 50
   0.000
  0
LINE
  8
1
 10
11815.0000
 20
4527.70215
 11
18710.0000
 21
4527.70215
  0
TEXT
  8
3
 7
SIMPLEX
 10
14794.0020
 20
4582.17871
 40
217.905975
  1
 G-16
 50
   0.000
  0
LINE
  8
1
 10
11815.0000
 20
5727.70264
 11
18710.0000
 21
5727.70264
  0
TEXT
  8
3
 7
SIMPLEX
 10
14794.0020
 20
5782.17871
 40
217.905975
  1
 G-16
 50
   0.000
  0
LINE
  8
1
 10
11815.0000
 20
7227.70264
 11
18710.0000
 21
7227.70264
  0
TEXT
  8
3
 7
SIMPLEX
 10
14794.0020
 20
7282.17871
 40
217.905975
  1
 G-16
 50
   0.000
  0
LINE
  8
1
 10
17960.0000
 20
2632.29736
 11
24410.0020
 21
2632.29736
  0
TEXT
  8
3
 7
SIMPLEX
 10
20716.5020
 20
2686.77417
 40
217.905975
  1
 G-17
 50
   0.000
  0
LINE
  8
1
 10
17960.0000
 20
3632.29761
 11
24410.0020
 21
3632.29761
  0
TEXT
  8
3
 7
SIMPLEX
 10
20716.5020
 20
3686.77417
 40
217.905975
  1
 G-17
 50
   0.000
  0
LINE
  8
1
 10
17960.0000
 20
4632.29736
 11
24410.0020
 21
4632.29736
  0
TEXT
  8
3
 7
SIMPLEX
 10
20716.5020
 20
4686.77393
 40
217.905975
  1
 G-17
 50
   0.000
  0
LINE
  8
1
 10
17960.0000
 20
5832.29736
 11
24410.0020
 21
5832.29736
  0
TEXT
  8
3
 7
SIMPLEX
 10
20716.5020
 20
5886.77393
 40
217.905975
  1
 G-17
 50
   0.000
  0
LINE
  8
1
 10
17960.0000
 20
7332.29736
 11
24410.0020
 21
7332.29736
  0
TEXT
  8
3
 7
SIMPLEX
 10
20716.5020
 20
7386.77393
 40
217.905975
  1
 G-17
 50
   0.000
  0
LINE
  8
1
 10
23660.0000
 20
2527.70264
 11
30410.0000
 21
2527.70264
  0
TEXT
  8
3
 7
SIMPLEX
 10
26566.5020
 20
2582.17920
 40
217.905975
  1
 G-18
 50
   0.000
  0
LINE
  8
1
 10
23660.0000
 20
3527.70239
 11
30410.0000
 21
3527.70239
  0
TEXT
  8
3
 7
SIMPLEX
 10
26566.5020
 20
3582.17896
 40
217.905975
  1
 G-18
 50
   0.000
  0
LINE
  8
1
 10
23660.0000
 20
4527.70215
 11
30410.0000
 21
4527.70215
  0
TEXT
  8
3
 7
SIMPLEX
 10
26566.5020
 20
4582.17871
 40
217.905975
  1
 G-18
 50
   0.000
  0
LINE
  8
1
 10
23660.0000
 20
5727.70264
 11
30410.0000
 21
5727.70264
  0
TEXT
  8
3
 7
SIMPLEX
 10
26566.5020
 20
5782.17871
 40
217.905975
  1
 G-18
 50
   0.000
  0
LINE
  8
1
 10
23660.0000
 20
7227.70264
 11
30410.0000
 21
7227.70264
  0
TEXT
  8
3
 7
SIMPLEX
 10
26566.5020
 20
7282.17871
 40
217.905975
  1
 G-18
 50
   0.000
  0
LINE
  8
1
 10
29660.0000
 20
2632.29736
 11
36285.0000
 21
2632.29736
  0
TEXT
  8
3
 7
SIMPLEX
 10
32691.5000
 20
2686.77417
 40
217.905975
  1
 G-19
 50
   0.000
  0
LINE
  8
1
 10
29660.0000
 20
3632.29761
 11
36285.0000
 21
3632.29761
  0
TEXT
  8
3
 7
SIMPLEX
 10
32691.5000
 20
3686.77417
 40
217.905975
  1
 G-19
 50
   0.000
  0
LINE
  8
1
 10
29660.0000
 20
4632.29736
 11
36285.0000
 21
4632.29736
  0
TEXT
  8
3
 7
SIMPLEX
 10
32691.5000
 20
4686.77393
 40
217.905975
  1
 G-19
 50
   0.000
  0
LINE
  8
1
 10
29660.0000
 20
5832.29736
 11
36285.0000
 21
5832.29736
  0
TEXT
  8
3
 7
SIMPLEX
 10
32691.5000
 20
5886.77393
 40
217.905975
  1
 G-19
 50
   0.000
  0
LINE
  8
1
 10
29660.0000
 20
7332.29736
 11
36285.0000
 21
7332.29736
  0
TEXT
  8
3
 7
SIMPLEX
 10
32691.5000
 20
7386.77393
 40
217.905975
  1
 G-19
 50
   0.000
999
END:     AREA=Girts
999
START:   AREA=Lap Girts
999
END:     AREA=Lap Girts
999
START:   AREA=Column Flange Brace
999
END:     AREA=Column Flange Brace
999
START:   AREA=Wall Struts
  0
LINE
  8
1
 10
6304.59521
 20
6630.00000
 11
12085.4043
 21
6630.00000
  0
TEXT
  8
3
 7
SIMPLEX
 10
8372.40527
 20
6684.47656
 40
217.905975
  1
ST-1(Strut)
 50
   0.000
  0
LINE
  8
1
 10
24139.5957
 20
6630.00000
 11
29930.4023
 21
6630.00000
  0
TEXT
  8
3
 7
SIMPLEX
 10
26174.2715
 20
6684.47656
 40
217.905975
  1
ST-2(Strut)
 50
   0.000
  0
LINE
  8
1
 10
30139.5977
 20
5496.79980
 11
35740.4023
 21
5496.79980
  0
TEXT
  8
3
 7
SIMPLEX
 10
32841.9375
 20
5551.27637
 40
217.905975
  1
EB-2
 50
   0.000
999
END:     AREA=Wall Struts
999
START:   AREA=Accessories
999
END:     AREA=Accessories
999
START:   AREA=Cranes
999
END:     AREA=Cranes
999
START:   AREA=JBlocks
  0
TEXT
  8
3
 7
SIMPLEX
 10
2118.96338
 20
3027.70239
 40
217.905975
  1
JB-1
 50
   0.000
  0
LINE
  8
1
 10
2066.66577
 20
2580.00000
 11
2066.66577
 21
3475.40479
  0
TEXT
  8
3
 7
SIMPLEX
 10
2118.96338
 20
4027.70215
 40
217.905975
  1
JB-1
 50
   0.000
  0
LINE
  8
1
 10
2066.66577
 20
3580.00000
 11
2066.66577
 21
4475.40479
  0
TEXT
  8
3
 7
SIMPLEX
 10
2118.96338
 20
5127.70264
 40
217.905975
  1
JB-2
 50
   0.000
  0
LINE
  8
1
 10
2066.66577
 20
4580.00000
 11
2066.66577
 21
5675.40479
  0
TEXT
  8
3
 7
SIMPLEX
 10
2118.96338
 20
6477.70264
 40
217.905975
  1
JB-3
 50
   0.000
  0
LINE
  8
1
 10
2066.66577
 20
5780.00000
 11
2066.66577
 21
7175.40479
  0
TEXT
  8
3
 7
SIMPLEX
 10
2118.96338
 20
7797.70264
 40
217.905975
  1
JB-5
 50
   0.000
  0
LINE
  8
1
 10
2066.66577
 20
7279.99951
 11
2066.66577
 21
8315.40430
  0
LINE
  8
1
 10
4133.33447
 20
2580.00000
 11
4133.33447
 21
3475.40479
  0
LINE
  8
1
 10
4133.33447
 20
3580.00000
 11
4133.33447
 21
4475.40479
  0
LINE
  8
1
 10
4133.33447
 20
4580.00000
 11
4133.33447
 21
5675.40479
  0
LINE
  8
1
 10
4133.33447
 20
5780.00000
 11
4133.33447
 21
7175.40479
  0
LINE
  8
1
 10
4133.33447
 20
7279.99951
 11
4133.33447
 21
8315.40430
  0
LINE
  8
1
 10
8196.66602
 20
2684.59497
 11
8196.66602
 21
3580.00000
  0
LINE
  8
1
 10
8196.66602
 20
3684.59521
 11
8196.66602
 21
4580.00000
  0
LINE
  8
1
 10
8196.66602
 20
4684.59521
 11
8196.66602
 21
5780.00000
  0
LINE
  8
1
 10
8196.66602
 20
5884.59521
 11
8196.66602
 21
7279.99951
  0
LINE
  8
1
 10
8196.66602
 20
7384.59473
 11
8196.66602
 21
8420.00000
  0
LINE
  8
1
 10
10193.3340
 20
2684.59497
 11
10193.3340
 21
3580.00000
  0
LINE
  8
1
 10
10193.3340
 20
3684.59521
 11
10193.3340
 21
4580.00000
  0
LINE
  8
1
 10
10193.3340
 20
4684.59521
 11
10193.3340
 21
5780.00000
  0
LINE
  8
1
 10
10193.3340
 20
5884.59521
 11
10193.3340
 21
7279.99951
  0
LINE
  8
1
 10
10193.3340
 20
7384.59473
 11
10193.3340
 21
8420.00000
  0
LINE
  8
1
 10
14238.3340
 20
2580.00000
 11
14238.3340
 21
3475.40479
  0
LINE
  8
1
 10
14238.3340
 20
3580.00000
 11
14238.3340
 21
4475.40479
  0
LINE
  8
1
 10
14238.3340
 20
4580.00000
 11
14238.3340
 21
5675.40479
  0
LINE
  8
1
 10
14238.3340
 20
5780.00000
 11
14238.3340
 21
7175.40479
  0
LINE
  8
1
 10
14238.3340
 20
7279.99951
 11
14238.3340
 21
8315.40430
  0
LINE
  8
1
 10
16286.6670
 20
2580.00000
 11
16286.6670
 21
3475.40479
  0
LINE
  8
1
 10
16286.6670
 20
3580.00000
 11
16286.6670
 21
4475.40479
  0
LINE
  8
1
 10
16286.6670
 20
4580.00000
 11
16286.6670
 21
5675.40479
  0
LINE
  8
1
 10
16286.6670
 20
5780.00000
 11
16286.6670
 21
7175.40479
  0
LINE
  8
1
 10
16286.6670
 20
7279.99951
 11
16286.6670
 21
8315.40430
  0
LINE
  8
1
 10
20235.0020
 20
2684.59497
 11
20235.0020
 21
3580.00000
  0
LINE
  8
1
 10
20235.0020
 20
3684.59521
 11
20235.0020
 21
4580.00000
  0
LINE
  8
1
 10
20235.0020
 20
4684.59521
 11
20235.0020
 21
5780.00000
  0
LINE
  8
1
 10
20235.0020
 20
5884.59521
 11
20235.0020
 21
7279.99951
  0
LINE
  8
1
 10
20235.0020
 20
7384.59473
 11
20235.0020
 21
8420.00000
  0
LINE
  8
1
 10
22134.9980
 20
2684.59497
 11
22134.9980
 21
3580.00000
  0
LINE
  8
1
 10
22134.9980
 20
3684.59521
 11
22134.9980
 21
4580.00000
  0
LINE
  8
1
 10
22134.9980
 20
4684.59521
 11
22134.9980
 21
5780.00000
  0
LINE
  8
1
 10
22134.9980
 20
5884.59521
 11
22134.9980
 21
7279.99951
  0
LINE
  8
1
 10
22134.9980
 20
7384.59473
 11
22134.9980
 21
8420.00000
  0
LINE
  8
1
 10
26035.0020
 20
2580.00000
 11
26035.0020
 21
3475.40479
  0
LINE
  8
1
 10
26035.0020
 20
3580.00000
 11
26035.0020
 21
4475.40479
  0
LINE
  8
1
 10
26035.0020
 20
4580.00000
 11
26035.0020
 21
5675.40479
  0
LINE
  8
1
 10
26035.0020
 20
5780.00000
 11
26035.0020
 21
7175.40479
  0
LINE
  8
1
 10
26035.0020
 20
7279.99951
 11
26035.0020
 21
8315.40430
  0
LINE
  8
1
 10
28035.0020
 20
2580.00000
 11
28035.0020
 21
3475.40479
  0
LINE
  8
1
 10
28035.0020
 20
3580.00000
 11
28035.0020
 21
4475.40479
  0
LINE
  8
1
 10
28035.0020
 20
4580.00000
 11
28035.0020
 21
5675.40479
  0
LINE
  8
1
 10
28035.0020
 20
5780.00000
 11
28035.0020
 21
7175.40479
  0
LINE
  8
1
 10
28035.0020
 20
7279.99951
 11
28035.0020
 21
8315.40430
  0
LINE
  8
1
 10
32118.3320
 20
2684.59497
 11
32118.3320
 21
3580.00000
  0
LINE
  8
1
 10
32118.3320
 20
3684.59521
 11
32118.3320
 21
4580.00000
  0
LINE
  8
1
 10
32118.3320
 20
4684.59521
 11
32118.3320
 21
5780.00000
  0
LINE
  8
1
 10
32118.3320
 20
5884.59521
 11
32118.3320
 21
7279.99951
  0
LINE
  8
1
 10
32118.3320
 20
7384.59473
 11
32118.3320
 21
8420.00000
  0
LINE
  8
1
 10
34201.6680
 20
2684.59497
 11
34201.6680
 21
3580.00000
  0
LINE
  8
1
 10
34201.6680
 20
3684.59521
 11
34201.6680
 21
4580.00000
  0
LINE
  8
1
 10
34201.6680
 20
4684.59521
 11
34201.6680
 21
5780.00000
  0
LINE
  8
1
 10
34201.6680
 20
5884.59521
 11
34201.6680
 21
7279.99951
  0
LINE
  8
1
 10
34201.6680
 20
7384.59473
 11
34201.6680
 21
8420.00000
999
END:     AREA=JBlocks
999
START:   AREA=Clips
999
END:     AREA=Clips
999
START:   AREA=Strut Bolts
  0
CIRCLE
  8
2
 10
6200.00000
 20
6577.70264
 40
16.3429489
  0
LINE
  8
2
 10
6200.00000
 20
6577.70264
 11
5873.14111
 21
6904.56152
  0
INSERT
  8
2
  2
HEXAGON
 10
5873.14111
 20
6904.56152
 41
-16.085579
 42
12.8684635
 43
12.8684635
 50
   0.000
  0
TEXT
  8
2
 7
SIMPLEX
 10
5587.13965
 20
6822.84717
 40
163.429489
  1
3
 50
   0.000
  0
CIRCLE
  8
2
 10
12190.0000
 20
6577.70264
 40
16.3429489
  0
LINE
  8
2
 10
12190.0000
 20
6577.70264
 11
11863.1406
 21
6904.56152
  0
INSERT
  8
2
  2
HEXAGON
 10
11863.1406
 20
6904.56152
 41
-16.085579
 42
12.8684635
 43
12.8684635
 50
   0.000
  0
TEXT
  8
2
 7
SIMPLEX
 10
11577.1387
 20
6822.84717
 40
163.429489
  1
3
 50
   0.000
  0
CIRCLE
  8
2
 10
24035.0000
 20
6682.29736
 40
16.3429489
  0
LINE
  8
2
 10
24035.0000
 20
6682.29736
 11
23708.1426
 21
7009.15625
  0
INSERT
  8
2
  2
HEXAGON
 10
23708.1426
 20
7009.15625
 41
-16.085579
 42
12.8684635
 43
12.8684635
 50
   0.000
  0
TEXT
  8
2
 7
SIMPLEX
 10
23422.1406
 20
6927.44238
 40
163.429489
  1
3
 50
   0.000
  0
CIRCLE
  8
2
 10
30035.0020
 20
6682.29736
 40
16.3429489
  0
LINE
  8
2
 10
30035.0020
 20
6682.29736
 11
29708.1445
 21
7009.15625
  0
INSERT
  8
2
  2
HEXAGON
 10
29708.1445
 20
7009.15625
 41
-16.085579
 42
12.8684635
 43
12.8684635
 50
   0.000
  0
TEXT
  8
2
 7
SIMPLEX
 10
29422.1445
 20
6927.44238
 40
163.429489
  1
3
 50
   0.000
999
START:   AREA=Strut Bolts
999
START:   AREA=JackBeams
999
END:     AREA=JackBeams
999
START:   AREA=Draw Adjacent Surfaces
999
END:     AREA=Draw Adjacent Surfaces
999
START:   AREA=Dimensions
  0
TEXT
  8
11
 7
SIMPLEX
 10
6281.71436
 20
-1566.7439
 40
163.429489
  1
375
 50
   0.000
  0
LINE
  8
2
 10
6200.00000
 20
-1376.0763
 11
6200.00000
 21
-1212.6467
  0
LINE
  8
2
 10
6200.00000
 20
-1294.3615
 11
6575.00049
 21
-1294.3615
  0
TEXT
  8
11
 7
SIMPLEX
 10
5627.99658
 20
-1239.8850
 40
163.429489
  1
375
 50
   0.000
  0
LINE
  8
2
 10
6200.00000
 20
-1376.0763
 11
6200.00000
 21
-1212.6467
  0
LINE
  8
2
 10
6200.00000
 20
-1294.3615
 11
5824.99951
 21
-1294.3615
  0
TEXT
  8
11
 7
SIMPLEX
 10
12271.7139
 20
-1566.7439
 40
163.429489
  1
375
 50
   0.000
  0
LINE
  8
2
 10
12190.0000
 20
-1376.0763
 11
12190.0000
 21
-1212.6467
  0
LINE
  8
2
 10
12190.0000
 20
-1294.3615
 11
12565.0000
 21
-1294.3615
  0
TEXT
  8
11
 7
SIMPLEX
 10
11617.9971
 20
-1239.8850
 40
163.429489
  1
375
 50
   0.000
  0
LINE
  8
2
 10
12190.0000
 20
-1376.0763
 11
12190.0000
 21
-1212.6467
  0
LINE
  8
2
 10
12190.0000
 20
-1294.3615
 11
11815.0000
 21
-1294.3615
  0
TEXT
  8
11
 7
SIMPLEX
 10
18416.7148
 20
-1566.7439
 40
163.429489
  1
375
 50
   0.000
  0
LINE
  8
2
 10
18335.0000
 20
-1376.0763
 11
18335.0000
 21
-1212.6467
  0
LINE
  8
2
 10
18335.0000
 20
-1294.3615
 11
18710.0000
 21
-1294.3615
  0
TEXT
  8
11
 7
SIMPLEX
 10
17762.9961
 20
-1239.8850
 40
163.429489
  1
375
 50
   0.000
  0
LINE
  8
2
 10
18335.0000
 20
-1376.0763
 11
18335.0000
 21
-1212.6467
  0
LINE
  8
2
 10
18335.0000
 20
-1294.3615
 11
17960.0000
 21
-1294.3615
  0
TEXT
  8
11
 7
SIMPLEX
 10
24116.7148
 20
-1566.7439
 40
163.429489
  1
375
 50
   0.000
  0
LINE
  8
2
 10
24035.0000
 20
-1376.0763
 11
24035.0000
 21
-1212.6467
  0
LINE
  8
2
 10
24035.0000
 20
-1294.3615
 11
24410.0020
 21
-1294.3615
  0
TEXT
  8
11
 7
SIMPLEX
 10
23462.9961
 20
-1239.8850
 40
163.429489
  1
375
 50
   0.000
  0
LINE
  8
2
 10
24035.0000
 20
-1376.0763
 11
24035.0000
 21
-1212.6467
  0
LINE
  8
2
 10
24035.0000
 20
-1294.3615
 11
23660.0000
 21
-1294.3615
  0
TEXT
  8
11
 7
SIMPLEX
 10
30116.7168
 20
-1566.7439
 40
163.429489
  1
375
 50
   0.000
  0
LINE
  8
2
 10
30035.0020
 20
-1376.0763
 11
30035.0020
 21
-1212.6467
  0
LINE
  8
2
 10
30035.0020
 20
-1294.3615
 11
30410.0000
 21
-1294.3615
  0
TEXT
  8
11
 7
SIMPLEX
 10
29462.9980
 20
-1239.8850
 40
163.429489
  1
375
 50
   0.000
  0
LINE
  8
2
 10
30035.0020
 20
-1376.0763
 11
30035.0020
 21
-1212.6467
  0
LINE
  8
2
 10
30035.0020
 20
-1294.3615
 11
29660.0000
 21
-1294.3615
  0
TEXT
  8
2
 7
SIMPLEX
 10
-871.62390
 20
-1239.8850
 40
217.905975
  1
GIRT
 50
   0.000
  0
TEXT
  8
2
 7
SIMPLEX
 10
-871.62390
 20
-1566.7440
 40
217.905975
  1
LAPS
 50
   0.000
999
START:   AREA=Match Line
  0
LINE
  8
12
 10
0.00000000
 20
8524.59473
 11
0.00000000
 21
11793.1846
  0
LINE
  8
12
 10
36285.0000
 20
8524.59473
 11
36285.0000
 21
11793.1846
  0
LINE
  8
2
 10
0.00000000
 20
11575.2783
 11
36285.0000
 21
11575.2783
  0
LINE
  8
2
 10
0.00000000
 20
10267.8428
 11
36285.0000
 21
10267.8428
  0
LINE
  8
12
 10
6200.00000
 20
8524.59473
 11
6200.00000
 21
10703.6553
  0
LINE
  8
12
 10
12190.0000
 20
8524.59473
 11
12190.0000
 21
10703.6553
  0
LINE
  8
12
 10
18335.0000
 20
8524.59473
 11
18335.0000
 21
10703.6553
  0
LINE
  8
12
 10
24035.0000
 20
8524.59473
 11
24035.0000
 21
10703.6553
  0
LINE
  8
12
 10
36285.0000
 20
8524.59473
 11
36285.0000
 21
10703.6553
  0
LINE
  8
12
 10
30035.0020
 20
8524.59473
 11
30035.0020
 21
10703.6553
  0
INSERT
  8
2
  2
ARROW
 10
0.00000000
 20
10267.8428
 41
1.00000000
 42
1.00000000
 43
1.00000000
 50
 180.000
  0
INSERT
  8
2
  2
ARROW
 10
6200.00000
 20
10267.8428
 41
1.00000000
 42
1.00000000
 43
1.00000000
 50
   0.000
  0
INSERT
  8
2
  2
ARROW
 10
6200.00000
 20
10267.8428
 41
1.00000000
 42
1.00000000
 43
1.00000000
 50
 180.000
  0
INSERT
  8
2
  2
ARROW
 10
12190.0000
 20
10267.8428
 41
1.00000000
 42
1.00000000
 43
1.00000000
 50
   0.000
  0
INSERT
  8
2
  2
ARROW
 10
12190.0000
 20
10267.8428
 41
1.00000000
 42
1.00000000
 43
1.00000000
 50
 180.000
  0
INSERT
  8
2
  2
ARROW
 10
18335.0000
 20
10267.8428
 41
1.00000000
 42
1.00000000
 43
1.00000000
 50
   0.000
  0
INSERT
  8
2
  2
ARROW
 10
18335.0000
 20
10267.8428
 41
1.00000000
 42
1.00000000
 43
1.00000000
 50
 180.000
  0
INSERT
  8
2
  2
ARROW
 10
24035.0000
 20
10267.8428
 41
1.00000000
 42
1.00000000
 43
1.00000000
 50
   0.000
  0
INSERT
  8
2
  2
ARROW
 10
24035.0000
 20
10267.8428
 41
1.00000000
 42
1.00000000
 43
1.00000000
 50
 180.000
  0
INSERT
  8
2
  2
ARROW
 10
30035.0020
 20
10267.8428
 41
1.00000000
 42
1.00000000
 43
1.00000000
 50
   0.000
  0
INSERT
  8
2
  2
ARROW
 10
30035.0020
 20
10267.8428
 41
1.00000000
 42
1.00000000
 43
1.00000000
 50
 180.000
  0
INSERT
  8
2
  2
ARROW
 10
36285.0000
 20
10267.8428
 41
1.00000000
 42
1.00000000
 43
1.00000000
 50
   0.000
  0
INSERT
  8
2
  2
ARROW
 10
0.00000000
 20
11575.2783
 41
1.00000000
 42
1.00000000
 43
1.00000000
 50
 180.000
  0
INSERT
  8
2
  2
ARROW
 10
36285.0000
 20
11575.2783
 41
1.00000000
 42
1.00000000
 43
1.00000000
 50
   0.000
  0
CIRCLE
  8
13
 10
0.00000000
 20
12054.6719
 40
261.487183
  0
TEXT
  8
13
 7
SIMPLEX
 10
-76.485001
 20
11937.0020
 40
235.338470
  1
1
 72
           1
 11
0.00000000
 21
11937.0020
 50
   0.000
  0
CIRCLE
  8
13
 10
36285.0000
 20
12054.6719
 40
261.487183
  0
TEXT
  8
13
 7
SIMPLEX
 10
36167.3281
 20
11937.0020
 40
235.338470
  1
7
 72
           1
 11
36285.0000
 21
11937.0020
 50
   0.000
  0
CIRCLE
  8
13
 10
6200.00000
 20
10965.1426
 40
261.487183
  0
TEXT
  8
13
 7
SIMPLEX
 10
6082.33105
 20
10847.4727
 40
235.338470
  1
2
 72
           1
 11
6200.00000
 21
10847.4727
 50
   0.000
  0
CIRCLE
  8
13
 10
12190.0000
 20
10965.1426
 40
261.487183
  0
TEXT
  8
13
 7
SIMPLEX
 10
12072.3301
 20
10847.4727
 40
235.338470
  1
3
 72
           1
 11
12190.0000
 21
10847.4727
 50
   0.000
  0
CIRCLE
  8
13
 10
18335.0000
 20
10965.1426
 40
261.487183
  0
TEXT
  8
13
 7
SIMPLEX
 10
18217.3320
 20
10847.4727
 40
235.338470
  1
4
 72
           1
 11
18335.0000
 21
10847.4727
 50
   0.000
  0
CIRCLE
  8
13
 10
24035.0000
 20
10965.1426
 40
261.487183
  0
TEXT
  8
13
 7
SIMPLEX
 10
23917.3320
 20
10847.4727
 40
235.338470
  1
5
 72
           1
 11
24035.0000
 21
10847.4727
 50
   0.000
  0
CIRCLE
  8
13
 10
30035.0020
 20
10965.1426
 40
261.487183
  0
TEXT
  8
13
 7
SIMPLEX
 10
29917.3320
 20
10847.4727
 40
235.338470
  1
6
 72
           1
 11
30035.0020
 21
10847.4727
 50
   0.000
  0
TEXT
  8
11
 7
SIMPLEX
 10
2664.18823
 20
10340.4775
 40
217.905975
  1
6200
 50
   0.000
  0
TEXT
  8
11
 7
SIMPLEX
 10
8759.18750
 20
10340.4775
 40
217.905975
  1
5990
 50
   0.000
  0
TEXT
  8
11
 7
SIMPLEX
 10
14864.8203
 20
10340.4775
 40
217.905975
  1
6145
 50
   0.000
  0
TEXT
  8
11
 7
SIMPLEX
 10
20749.1895
 20
10340.4775
 40
217.905975
  1
5700
 50
   0.000
  0
TEXT
  8
11
 7
SIMPLEX
 10
26599.1875
 20
10340.4775
 40
217.905975
  1
6000
 50
   0.000
  0
TEXT
  8
11
 7
SIMPLEX
 10
32724.1895
 20
10340.4775
 40
217.905975
  1
6250
 50
   0.000
  0
LINE
  8
12
 10
439.999970
 20
8524.59473
 11
439.999970
 21
9936.62598
  0
LINE
  8
2
 10
0.00000000
 20
9832.03027
 11
-435.81195
 21
9832.03027
  0
LINE
  8
2
 10
439.999970
 20
9832.03027
 11
875.811951
 21
9832.03027
  0
INSERT
  8
2
  2
ARROW
 10
0.00000000
 20
9832.03027
 41
1.00000000
 42
1.00000000
 43
1.00000000
 50
   0.000
  0
INSERT
  8
2
  2
ARROW
 10
439.999970
 20
9832.03027
 41
1.00000000
 42
1.00000000
 43
1.00000000
 50
 180.000
  0
TEXT
  8
11
 7
SIMPLEX
 10
548.952942
 20
9904.66602
 40
217.905975
  1
440
 50
   0.000
  0
LINE
  8
12
 10
35845.0000
 20
8524.59473
 11
35845.0000
 21
9936.62598
  0
LINE
  8
2
 10
35845.0000
 20
9832.03027
 11
35409.1875
 21
9832.03027
  0
LINE
  8
2
 10
36285.0000
 20
9832.03027
 11
36720.8125
 21
9832.03027
  0
INSERT
  8
2
  2
ARROW
 10
35845.0000
 20
9832.03027
 41
1.00000000
 42
1.00000000
 43
1.00000000
 50
   0.000
  0
INSERT
  8
2
  2
ARROW
 10
36285.0000
 20
9832.03027
 41
1.00000000
 42
1.00000000
 43
1.00000000
 50
 180.000
  0
TEXT
  8
11
 7
SIMPLEX
 10
35082.3281
 20
9904.66602
 40
217.905975
  1
440
 50
   0.000
  0
LINE
  8
12
 10
36285.0000
 20
8524.59473
 11
36285.0000
 21
11793.1846
  0
LINE
  8
12
 10
38085.0000
 20
8524.59473
 11
38085.0000
 21
11793.1846
  0
LINE
  8
2
 10
36285.0000
 20
11575.2783
 11
38085.0000
 21
11575.2783
  0
INSERT
  8
2
  2
ARROW
 10
36285.0000
 20
11575.2783
 41
1.00000000
 42
1.00000000
 43
1.00000000
 50
 180.000
  0
INSERT
  8
2
  2
ARROW
 10
38085.0000
 20
11575.2783
 41
1.00000000
 42
1.00000000
 43
1.00000000
 50
   0.000
  0
TEXT
  8
11
 7
SIMPLEX
 10
36787.3203
 20
11647.9141
 40
217.905975
  1
1800
 50
   0.000
  0
TEXT
  8
11
 7
SIMPLEX
 10
15522.1807
 20
11679.8740
 40
217.905975
  1
36285
 50
   0.000
  0
TEXT
  8
15
 7
SIMPLEX
 10
16611.7109
 20
11679.8740
 40
217.905975
  1
 OUT-TO-OUT OF STEEL
 50
   0.000
  0
TEXT
  8
15
 7
SIMPLEX
 10
13348.5684
 20
-2351.2056
 40
348.649567
  1
SIDEWALL FRAMING: FRAME LINE A
 72
           1
 11
18142.5000
 21
-2351.2056
 50
   0.000
  0
LINE
  8
12
 10
-366.08203
 20
0.00000000
 11
-1952.4376
 21
0.00000000
  0
LINE
  8
12
 10
-366.08203
 20
2580.00000
 11
-1952.4376
 21
2580.00000
  0
LINE
  8
12
 10
-366.08203
 20
3580.00000
 11
-1952.4376
 21
3580.00000
  0
LINE
  8
12
 10
-366.08203
 20
4580.00000
 11
-1952.4376
 21
4580.00000
  0
LINE
  8
12
 10
-366.08203
 20
5780.00000
 11
-1952.4376
 21
5780.00000
  0
LINE
  8
12
 10
-366.08203
 20
7279.99951
 11
-1952.4376
 21
7279.99951
  0
LINE
  8
12
 10
-366.08203
 20
8420.00000
 11
-1952.4376
 21
8420.00000
  0
LINE
  8
12
 10
-1847.8428
 20
0.00000000
 11
-1847.8428
 21
0.00000000
  0
LINE
  8
12
 10
-1847.8427
 20
2580.00000
 11
-1847.8427
 21
2580.00000
  0
LINE
  8
2
 10
-1847.8428
 20
0.00000000
 11
-1847.8427
 21
2580.00000
  0
INSERT
  8
2
  2
ARROW
 10
-1847.8428
 20
0.00000000
 41
1.00000000
 42
1.00000000
 43
1.00000000
 50
 270.000
  0
INSERT
  8
2
  2
ARROW
 10
-1847.8427
 20
2580.00000
 41
1.00000000
 42
1.00000000
 43
1.00000000
 50
  90.000
  0
TEXT
  8
11
 7
SIMPLEX
 10
-1920.4781
 20
854.188049
 40
217.905975
  1
2580
 50
  90.000
  0
LINE
  8
12
 10
-1847.8428
 20
2580.00000
 11
-1847.8428
 21
2580.00000
  0
LINE
  8
12
 10
-1847.8428
 20
3580.00000
 11
-1847.8428
 21
3580.00000
  0
LINE
  8
2
 10
-1847.8428
 20
2580.00000
 11
-1847.8428
 21
3580.00000
  0
INSERT
  8
2
  2
ARROW
 10
-1847.8428
 20
2580.00000
 41
1.00000000
 42
1.00000000
 43
1.00000000
 50
 270.000
  0
INSERT
  8
2
  2
ARROW
 10
-1847.8428
 20
3580.00000
 41
1.00000000
 42
1.00000000
 43
1.00000000
 50
  90.000
  0
TEXT
  8
11
 7
SIMPLEX
 10
-1920.4781
 20
2682.32153
 40
217.905975
  1
1000
 50
  90.000
  0
LINE
  8
12
 10
-1847.8428
 20
3580.00000
 11
-1847.8428
 21
3580.00000
  0
LINE
  8
12
 10
-1847.8428
 20
4580.00000
 11
-1847.8428
 21
4580.00000
  0
LINE
  8
2
 10
-1847.8428
 20
3580.00000
 11
-1847.8428
 21
4580.00000
  0
INSERT
  8
2
  2
ARROW
 10
-1847.8428
 20
3580.00000
 41
1.00000000
 42
1.00000000
 43
1.00000000
 50
 270.000
  0
INSERT
  8
2
  2
ARROW
 10
-1847.8428
 20
4580.00000
 41
1.00000000
 42
1.00000000
 43
1.00000000
 50
  90.000
  0
TEXT
  8
11
 7
SIMPLEX
 10
-1920.4781
 20
3682.32202
 40
217.905975
  1
1000
 50
  90.000
  0
LINE
  8
12
 10
-1847.8428
 20
4580.00000
 11
-1847.8428
 21
4580.00000
  0
LINE
  8
12
 10
-1847.8428
 20
5780.00000
 11
-1847.8428
 21
5780.00000
  0
LINE
  8
2
 10
-1847.8428
 20
4580.00000
 11
-1847.8428
 21
5780.00000
  0
INSERT
  8
2
  2
ARROW
 10
-1847.8428
 20
4580.00000
 41
1.00000000
 42
1.00000000
 43
1.00000000
 50
 270.000
  0
INSERT
  8
2
  2
ARROW
 10
-1847.8428
 20
5780.00000
 41
1.00000000
 42
1.00000000
 43
1.00000000
 50
  90.000
  0
TEXT
  8
11
 7
SIMPLEX
 10
-1920.4781
 20
4782.32129
 40
217.905975
  1
1200
 50
  90.000
  0
LINE
  8
12
 10
-1847.8428
 20
5780.00000
 11
-1847.8428
 21
5780.00000
  0
LINE
  8
12
 10
-1847.8427
 20
7279.99951
 11
-1847.8427
 21
7279.99951
  0
LINE
  8
2
 10
-1847.8428
 20
5780.00000
 11
-1847.8427
 21
7279.99951
  0
INSERT
  8
2
  2
ARROW
 10
-1847.8428
 20
5780.00000
 41
1.00000000
 42
1.00000000
 43
1.00000000
 50
 270.000
  0
INSERT
  8
2
  2
ARROW
 10
-1847.8427
 20
7279.99951
 41
1.00000000
 42
1.00000000
 43
1.00000000
 50
  90.000
  0
TEXT
  8
11
 7
SIMPLEX
 10
-1920.4781
 20
6132.32129
 40
217.905975
  1
1500
 50
  90.000
  0
LINE
  8
12
 10
-1847.8428
 20
7279.99951
 11
-1847.8428
 21
7279.99951
  0
LINE
  8
12
 10
-1847.8428
 20
8420.00000
 11
-1847.8428
 21
8420.00000
  0
LINE
  8
2
 10
-1847.8428
 20
7279.99951
 11
-1847.8428
 21
8420.00000
  0
INSERT
  8
2
  2
ARROW
 10
-1847.8428
 20
7279.99951
 41
1.00000000
 42
1.00000000
 43
1.00000000
 50
 270.000
  0
INSERT
  8
2
  2
ARROW
 10
-1847.8428
 20
8420.00000
 41
1.00000000
 42
1.00000000
 43
1.00000000
 50
  90.000
  0
TEXT
  8
11
 7
SIMPLEX
 10
-1920.4781
 20
7490.45508
 40
217.905975
  1
1140
 50
  90.000
999
START:   AREA=Eave Dimension
  0
LINE
  8
12
 10
-1952.4376
 20
0.00000000
 11
-2824.0615
 21
0.00000000
  0
LINE
  8
12
 10
-1952.4376
 20
8420.00000
 11
-2824.0615
 21
8420.00000
  0
LINE
  8
2
 10
-2719.4668
 20
0.00000000
 11
-2719.4668
 21
8420.00000
  0
INSERT
  8
2
  2
ARROW
 10
-2719.4668
 20
0.00000000
 41
1.00000000
 42
1.00000000
 43
1.00000000
 50
 270.000
  0
INSERT
  8
2
  2
ARROW
 10
-2719.4668
 20
8420.00000
 41
1.00000000
 42
1.00000000
 43
1.00000000
 50
  90.000
  0
TEXT
  8
11
 7
SIMPLEX
 10
-2792.1018
 20
3774.18823
 40
217.905975
  1
8420
 50
  90.000
999
END:     AREA=Eave Dimension
999
START:   AREA=Draw Canopy Dimension
999
END:     AREA=Draw Canopy Dimension
999
START:   AREA=Draw Floor and Extension Strut Dimensions
  0
LINE
  8
12
 10
38414.7656
 20
5496.79980
 11
38632.6680
 21
5496.79980
  0
LINE
  8
12
 10
38414.7656
 20
0.00000000
 11
38632.6680
 21
0.00000000
  0
LINE
  8
2
 10
38523.7148
 20
0.00000000
 11
38523.7148
 21
5496.79980
  0
INSERT
  8
2
  2
ARROW
 10
38523.7148
 20
0.00000000
 41
1.00000000
 42
1.00000000
 43
1.00000000
 50
 270.000
  0
INSERT
  8
2
  2
ARROW
 10
38523.7148
 20
5496.79980
 41
1.00000000
 42
1.00000000
 43
1.00000000
 50
  90.000
  0
TEXT
  8
11
 7
SIMPLEX
 10
38451.0820
 20
2312.58813
 40
217.905975
  1
5497
 50
  90.000
999
END:     AREA=Draw Floor and Extension Strut Dimensions
  0
LINE
  8
2
 10
2066.66675
 20
0.00000000
 11
2066.66675
 21
2500.00000
  0
INSERT
  8
2
  2
ARROW
 10
2066.66675
 20
0.00000000
 41
1.00000000
 42
1.00000000
 43
1.00000000
 50
 270.000
  0
INSERT
  8
2
  2
ARROW
 10
2066.66675
 20
2500.00000
 41
1.00000000
 42
1.00000000
 43
1.00000000
 50
  90.000
  0
TEXT
  8
11
 7
SIMPLEX
 10
1994.03137
 20
814.188110
 40
217.905975
  1
2500
 50
  90.000
999
END:     AREA=Dimensions
999
START:   AREA=Details
  0
INSERT
  8
7
  2
CUTSEC
 10
6200.00000
 20
3015.81226
 41
1.00000000
 42
-1.0000000
 43
-1.0000000
 50
   0.000
  0
CIRCLE
  8
7
 10
5624.72852
 20
3015.81226
 40
209.189728
  0
TEXT
  8
7
 7
SIMPLEX
 10
5457.37646
 20
2932.13599
 40
167.351791
  1
H2
 72
           1
 11
5624.72852
 21
3015.81226
 73
           2
 50
   0.000
  0
CIRCLE
  8
7
 10
439.999970
 20
8420.00000
 40
87.1623917
  0
LINE
  8
7
 10
496.027863
 20
8486.76953
 11
686.522644
 21
8713.78613
  0
CIRCLE
  8
7
 10
820.989502
 20
8874.03223
 40
209.189728
  0
TEXT
  8
7
 7
SIMPLEX
 10
620.167358
 20
8807.09180
 40
133.881424
  1
J24
 72
           1
 11
820.989502
 21
8874.03223
 73
           2
 50
   0.000
  0
CIRCLE
  8
7
 10
6200.00000
 20
8420.00000
 40
87.1623917
  0
LINE
  8
7
 10
6256.02832
 20
8486.76953
 11
6446.52246
 21
8713.78613
  0
CIRCLE
  8
7
 10
6580.98926
 20
8874.03223
 40
209.189728
  0
TEXT
  8
7
 7
SIMPLEX
 10
6403.59668
 20
8807.09180
 40
133.881424
  1
J16
 72
           1
 11
6580.98926
 21
8874.03223
 73
           2
 50
   0.000
999
START:   AREA=Cables
999
END:     AREA=Cables
  0
CIRCLE
  8
7
 10
6200.00000
 20
152.399994
 40
87.1623917
  0
LINE
  8
7
 10
6229.81299
 20
234.305237
 11
6331.17676
 21
512.783020
  0
CIRCLE
  8
7
 10
6402.72852
 20
709.355652
 40
209.189728
  0
TEXT
  8
7
 7
SIMPLEX
 10
6235.37646
 20
625.679749
 40
167.351791
  1
Q3
 72
           1
 11
6402.72852
 21
709.355652
 73
           2
 50
   0.000
999
END:     AREA=Details
999
START:   AREA=Extensions
999
END:     AREA=Extensions
999
START:   AREA=Eave Extensions
999
END:     AREA=Eave Extensions
999
START:   AREA=Canopy Extensions around corner
999
START:   AREA=Eave/Extension Purlins
  0
INSERT
  8
10
  2
ZCOL
 10
36583.5117
 20
5652.71631
 41
-8.7500000
 42
8.46988392
 43
8.46988392
 50
  -5.711
  0
INSERT
  8
10
  2
ZCOL
 10
37974.4258
 20
5513.62451
 41
8.75000000
 42
8.46988392
 43
8.46988392
 50
  -5.711
999
START:   AREA=Eave/Extension Purlins
  0
LINE
  8
1
 10
38084.9883
 20
5270.00146
 11
36285.0000
 21
5450.00000
  0
LINE
  8
1
 10
38084.9883
 20
5270.00146
 11
36285.0000
 21
5270.00146
  0
LINE
  8
1
 10
38084.9883
 20
5270.00146
 11
38084.9883
 21
5270.00146
  0
LINE
  8
1
 10
36285.0000
 20
5270.00146
 11
35845.0000
 21
5270.00146
  0
LINE
  8
1
 10
36285.0000
 20
5450.00000
 11
35845.0000
 21
5450.00000
  0
INSERT
  8
10
  2
WCOL
 10
37184.9961
 20
5717.17236
 41
8.57897568
 42
-8.5789757
 43
-8.5789757
 50
  -5.711
  0
TEXT
  8
3
 7
SIMPLEX
 10
36827.2344
 20
6026.68945
 40
217.905975
  1
EB-1
 50
  -5.711
  0
LINE
  8
5
 10
36285.0000
 20
5700.00000
 11
38085.0000
 21
5520.00000
  0
LINE
  8
5
 10
38085.0000
 20
5520.00000
 11
38085.0000
 21
5270.00146
999
END:     AREA=Canopy Extensions around corner
999
START:   AREA=Facia Extensions on wall
999
END:     AREA=Facia Extensions on Sidewall
999
START:   AREA=Draw Facia Detail
999
END:     AREA=Draw Facia Detail
  0
ENDBLK
  8
0
999
START:   AREA=Tables
  0
BLOCK
  8
1
  2
SW1TBL
 70
     0
 10
0.00000000
 20
0.00000000
  0
TEXT
  8
14
 7
SIMPLEX
 10
-5883.4614
 20
-272.38248
 40
217.905975
  1
MEMBER TABLE
 50
   0.000
  0
TEXT
  8
14
 7
SIMPLEX
 10
-5883.4614
 20
-599.24139
 40
217.905975
  1
FRAME LINE A
 50
   0.000
  0
TEXT
  8
14
 7
SIMPLEX
 10
-5883.4614
 20
-926.10046
 40
217.905975
  1
MARK
 50
   0.000
  0
TEXT
  8
14
 7
SIMPLEX
 10
-4358.1196
 20
-926.10046
 40
217.905975
  1
PART
 50
   0.000
  0
TEXT
  8
14
 7
SIMPLEX
 10
-2179.0601
 20
-926.10046
 40
217.905975
  1
LENGTH
 50
   0.000
  0
TEXT
  8
26
 7
SIMPLEX
 10
-5883.4614
 20
-1252.9594
 40
217.905975
  1
EB-1
 50
   0.000
  0
TEXT
  8
26
 7
SIMPLEX
 10
-4358.1196
 20
-1252.9594
 40
217.905975
  1
BEAM
 50
   0.000
  0
TEXT
  8
26
 7
SIMPLEX
 10
-2179.0601
 20
-1252.9594
 40
217.905975
  1
   2272
 50
   0.000
  0
TEXT
  8
26
 7
SIMPLEX
 10
-5883.4614
 20
-1579.8182
 40
217.905975
  1
EB-2
 50
   0.000
  0
TEXT
  8
26
 7
SIMPLEX
 10
-4358.1196
 20
-1579.8182
 40
217.905975
  1
W30a155
 50
   0.000
  0
TEXT
  8
26
 7
SIMPLEX
 10
-2179.0601
 20
-1579.8182
 40
217.905975
  1
   5805
 50
   0.000
  0
TEXT
  8
26
 7
SIMPLEX
 10
-5883.4614
 20
-1906.6772
 40
217.905975
  1
 G-14
 50
   0.000
  0
TEXT
  8
26
 7
SIMPLEX
 10
-4358.1196
 20
-1906.6772
 40
217.905975
  1
200Z15
 50
   0.000
  0
TEXT
  8
26
 7
SIMPLEX
 10
-2179.0601
 20
-1906.6772
 40
217.905975
  1
   6570
 50
   0.000
  0
TEXT
  8
26
 7
SIMPLEX
 10
-5883.4614
 20
-2233.5361
 40
217.905975
  1
 G-15
 50
   0.000
  0
TEXT
  8
26
 7
SIMPLEX
 10
-4358.1196
 20
-2233.5361
 40
217.905975
  1
200Z15
 50
   0.000
  0
TEXT
  8
26
 7
SIMPLEX
 10
-2179.0601
 20
-2233.5361
 40
217.905975
  1
   6740
 50
   0.000
  0
TEXT
  8
26
 7
SIMPLEX
 10
-5883.4614
 20
-2560.3950
 40
217.905975
  1
 G-16
 50
   0.000
  0
TEXT
  8
26
 7
SIMPLEX
 10
-4358.1196
 20
-2560.3950
 40
217.905975
  1
200Z15
 50
   0.000
  0
TEXT
  8
26
 7
SIMPLEX
 10
-2179.0601
 20
-2560.3950
 40
217.905975
  1
   6895
 50
   0.000
  0
TEXT
  8
26
 7
SIMPLEX
 10
-5883.4614
 20
-2887.2539
 40
217.905975
  1
 G-17
 50
   0.000
  0
TEXT
  8
26
 7
SIMPLEX
 10
-4358.1196
 20
-2887.2539
 40
217.905975
  1
200Z15
 50
   0.000
  0
TEXT
  8
26
 7
SIMPLEX
 10
-2179.0601
 20
-2887.2539
 40
217.905975
  1
   6450
 50
   0.000
  0
TEXT
  8
26
 7
SIMPLEX
 10
-5883.4614
 20
-3214.1130
 40
217.905975
  1
 G-18
 50
   0.000
  0
TEXT
  8
26
 7
SIMPLEX
 10
-4358.1196
 20
-3214.1130
 40
217.905975
  1
200Z15
 50
   0.000
  0
TEXT
  8
26
 7
SIMPLEX
 10
-2179.0601
 20
-3214.1130
 40
217.905975
  1
   6750
 50
   0.000
  0
TEXT
  8
26
 7
SIMPLEX
 10
-5883.4614
 20
-3540.9719
 40
217.905975
  1
 G-19
 50
   0.000
  0
TEXT
  8
26
 7
SIMPLEX
 10
-4358.1196
 20
-3540.9719
 40
217.905975
  1
200Z15
 50
   0.000
  0
TEXT
  8
26
 7
SIMPLEX
 10
-2179.0601
 20
-3540.9719
 40
217.905975
  1
   6620
 50
   0.000
  0
TEXT
  8
26
 7
SIMPLEX
 10
-5883.4614
 20
-3867.8313
 40
217.905975
  1
ST-1
 50
   0.000
  0
TEXT
  8
26
 7
SIMPLEX
 10
-4358.1196
 20
-3867.8313
 40
217.905975
  1
T80x32
 50
   0.000
  0
TEXT
  8
26
 7
SIMPLEX
 10
-2179.0601
 20
-3867.8313
 40
217.905975
  1
   5945
 50
   0.000
  0
TEXT
  8
26
 7
SIMPLEX
 10
-5883.4614
 20
-4194.6904
 40
217.905975
  1
ST-2
 50
   0.000
  0
TEXT
  8
26
 7
SIMPLEX
 10
-4358.1196
 20
-4194.6904
 40
217.905975
  1
T80x32
 50
   0.000
  0
TEXT
  8
26
 7
SIMPLEX
 10
-2179.0601
 20
-4194.6904
 40
217.905975
  1
   5955
 50
   0.000
  0
TEXT
  8
26
 7
SIMPLEX
 10
-5883.4614
 20
-4521.5493
 40
217.905975
  1
CB-1
 50
   0.000
  0
TEXT
  8
26
 7
SIMPLEX
 10
-4358.1196
 20
-4521.5493
 40
217.905975
  1
ROD20
 50
   0.000
  0
TEXT
  8
26
 7
SIMPLEX
 10
-2179.0601
 20
-4521.5493
 40
217.905975
  1
   8630
 50
   0.000
  0
TEXT
  8
26
 7
SIMPLEX
 10
-5883.4614
 20
-4848.4087
 40
217.905975
  1
CB-2
 50
   0.000
  0
TEXT
  8
26
 7
SIMPLEX
 10
-4358.1196
 20
-4848.4087
 40
217.905975
  1
ROD20
 50
   0.000
  0
TEXT
  8
26
 7
SIMPLEX
 10
-2179.0601
 20
-4848.4087
 40
217.905975
  1
   6120
 50
   0.000
  0
TEXT
  8
26
 7
SIMPLEX
 10
-5883.4614
 20
-5175.2676
 40
217.905975
  1
CB-3
 50
   0.000
  0
TEXT
  8
26
 7
SIMPLEX
 10
-4358.1196
 20
-5175.2676
 40
217.905975
  1
ROD20
 50
   0.000
  0
TEXT
  8
26
 7
SIMPLEX
 10
-2179.0601
 20
-5175.2676
 40
217.905975
  1
   8640
 50
   0.000
  0
TEXT
  8
26
 7
SIMPLEX
 10
-5883.4614
 20
-5502.1270
 40
217.905975
  1
CB-4
 50
   0.000
  0
TEXT
  8
26
 7
SIMPLEX
 10
-4358.1196
 20
-5502.1270
 40
217.905975
  1
ROD20
 50
   0.000
  0
TEXT
  8
26
 7
SIMPLEX
 10
-2179.0601
 20
-5502.1270
 40
217.905975
  1
   6130
 50
   0.000
  0
TEXT
  8
26
 7
SIMPLEX
 10
-5883.4614
 20
-5828.9858
 40
217.905975
  1
JB-1
 50
   0.000
  0
TEXT
  8
26
 7
SIMPLEX
 10
-4358.1196
 20
-5828.9858
 40
217.905975
  1
SROD12
 50
   0.000
  0
TEXT
  8
26
 7
SIMPLEX
 10
-2179.0601
 20
-5828.9858
 40
217.905975
  1
   1100
 50
   0.000
  0
TEXT
  8
26
 7
SIMPLEX
 10
-5883.4614
 20
-6155.8452
 40
217.905975
  1
JB-2
 50
   0.000
  0
TEXT
  8
26
 7
SIMPLEX
 10
-4358.1196
 20
-6155.8452
 40
217.905975
  1
SROD12
 50
   0.000
  0
TEXT
  8
26
 7
SIMPLEX
 10
-2179.0601
 20
-6155.8452
 40
217.905975
  1
   1300
 50
   0.000
  0
TEXT
  8
26
 7
SIMPLEX
 10
-5883.4614
 20
-6482.7041
 40
217.905975
  1
JB-3
 50
   0.000
  0
TEXT
  8
26
 7
SIMPLEX
 10
-4358.1196
 20
-6482.7041
 40
217.905975
  1
SROD12
 50
   0.000
  0
TEXT
  8
26
 7
SIMPLEX
 10
-2179.0601
 20
-6482.7041
 40
217.905975
  1
   1600
 50
   0.000
  0
TEXT
  8
26
 7
SIMPLEX
 10
-5883.4614
 20
-6809.5630
 40
217.905975
  1
JB-5
 50
   0.000
  0
TEXT
  8
26
 7
SIMPLEX
 10
-4358.1196
 20
-6809.5630
 40
217.905975
  1
SROD12
 50
   0.000
  0
TEXT
  8
26
 7
SIMPLEX
 10
-2179.0601
 20
-6809.5630
 40
217.905975
  1
   1090
 50
   0.000
  0
LINE
  8
0
 10
-6101.3672
 20
-6864.0400
 11
0.00000000
 21
-6864.0400
  0
LINE
  8
0
 10
-6101.3672
 20
-980.57697
 11
-6101.3672
 21
-6864.0400
  0
LINE
  8
0
 10
-4576.0259
 20
-980.57697
 11
-4576.0259
 21
-6864.0400
  0
LINE
  8
0
 10
-2396.9658
 20
-980.57697
 11
-2396.9658
 21
-6864.0400
  0
LINE
  8
0
 10
-6101.3672
 20
0.00000000
 11
0.00000000
 21
0.00000000
  0
LINE
  8
0
 10
-6101.3672
 20
0.00000000
 11
-6101.3672
 21
-6864.0400
  0
LINE
  8
0
 10
0.00000000
 20
0.00000000
 11
0.00000000
 21
-6864.0400
  0
LINE
  8
0
 10
-6101.3672
 20
-653.71796
 11
0.00000000
 21
-653.71796
  0
LINE
  8
0
 10
-6101.3672
 20
-653.71796
 11
-6101.3672
 21
-980.57697
  0
LINE
  8
0
 10
-4576.0259
 20
-653.71796
 11
-4576.0259
 21
-980.57697
  0
LINE
  8
0
 10
-2396.9658
 20
-653.71796
 11
-2396.9658
 21
-980.57697
  0
LINE
  8
0
 10
-6101.3672
 20
-980.57697
 11
0.00000000
 21
-980.57697
  0
ENDBLK
  8
1
  0
BLOCK
  8
1
  2
SW1BLT
 70
     0
 10
0.00000000
 20
0.00000000
  0
TEXT
  8
14
 7
SIMPLEX
 10
-8280.4268
 20
-272.38248
 40
217.905975
  1
BOLT TABLE
 50
   0.000
  0
TEXT
  8
14
 7
SIMPLEX
 10
-8280.4268
 20
-599.24139
 40
217.905975
  1
FRAME LINE A
 50
   0.000
  0
TEXT
  8
14
 7
SIMPLEX
 10
-8280.4268
 20
-926.10046
 40
217.905975
  1
LOCATION
 50
   0.000
  0
TEXT
  8
14
 7
SIMPLEX
 10
-4793.9312
 20
-926.10046
 40
217.905975
  1
QUAN
 50
   0.000
  0
TEXT
  8
14
 7
SIMPLEX
 10
-3704.4011
 20
-926.10046
 40
217.905975
  1
TYPE
 50
   0.000
  0
TEXT
  8
14
 7
SIMPLEX
 10
-2614.8713
 20
-926.10046
 40
217.905975
  1
DIA
 50
   0.000
  0
TEXT
  8
14
 7
SIMPLEX
 10
-1307.4358
 20
-926.10046
 40
217.905975
  1
LENGTH
 50
   0.000
  0
TEXT
  8
26
 7
SIMPLEX
 10
-8280.4268
 20
-1252.9594
 40
217.905975
  1
Strut
 50
   0.000
  0
TEXT
  8
26
 7
SIMPLEX
 10
-4358.1191
 20
-1252.9594
 40
217.905975
  1
2
 50
   0.000
  0
TEXT
  8
26
 7
SIMPLEX
 10
-3704.4011
 20
-1252.9594
 40
217.905975
  1
Gr8.8
 50
   0.000
  0
TEXT
  8
26
 7
SIMPLEX
 10
-2614.8713
 20
-1252.9594
 40
217.905975
  1
16
 50
   0.000
  0
TEXT
  8
26
 7
SIMPLEX
 10
-1307.4358
 20
-1252.9594
 40
217.905975
  1
70
 50
   0.000
  0
TEXT
  8
26
 7
SIMPLEX
 10
-8280.4268
 20
-1579.8182
 40
217.905975
  1
EB-2 (L)
 50
   0.000
  0
TEXT
  8
26
 7
SIMPLEX
 10
-4358.1191
 20
-1579.8182
 40
217.905975
  1
4
 50
   0.000
  0
TEXT
  8
26
 7
SIMPLEX
 10
-3704.4011
 20
-1579.8182
 40
217.905975
  1
Gr8.8
 50
   0.000
  0
TEXT
  8
26
 7
SIMPLEX
 10
-2614.8713
 20
-1579.8182
 40
217.905975
  1
16
 50
   0.000
  0
TEXT
  8
26
 7
SIMPLEX
 10
-8280.4268
 20
-1906.6772
 40
217.905975
  1
EB-2 (R)
 50
   0.000
  0
TEXT
  8
26
 7
SIMPLEX
 10
-4358.1191
 20
-1906.6772
 40
217.905975
  1
8
 50
   0.000
  0
TEXT
  8
26
 7
SIMPLEX
 10
-3704.4011
 20
-1906.6772
 40
217.905975
  1
Gr8.8
 50
   0.000
  0
TEXT
  8
26
 7
SIMPLEX
 10
-2614.8713
 20
-1906.6772
 40
217.905975
  1
20
 50
   0.000
  0
TEXT
  8
26
 7
SIMPLEX
 10
-1307.4358
 20
-1906.6772
 40
217.905975
  1
90
 50
   0.000
  0
LINE
  8
0
 10
-8498.3330
 20
-1961.1536
 11
0.00000000
 21
-1961.1536
  0
LINE
  8
0
 10
-5011.8374
 20
-980.57697
 11
-5011.8374
 21
-1961.1536
  0
LINE
  8
0
 10
-8498.3330
 20
0.00000000
 11
0.00000000
 21
0.00000000
  0
LINE
  8
0
 10
-8498.3330
 20
0.00000000
 11
-8498.3330
 21
-1961.1536
  0
LINE
  8
0
 10
0.00000000
 20
0.00000000
 11
0.00000000
 21
-1961.1536
  0
LINE
  8
0
 10
-8498.3330
 20
-653.71796
 11
0.00000000
 21
-653.71796
  0
LINE
  8
0
 10
-5011.8374
 20
-653.71796
 11
-5011.8374
 21
-980.57697
  0
LINE
  8
0
 10
-8498.3330
 20
-980.57697
 11
0.00000000
 21
-980.57697
  0
ENDBLK
  8
1
  0
BLOCK
  8
1
  2
SW1BTSPC
 70
     0
 10
0.00000000
 20
0.00000000
  0
TEXT
  8
14
 7
SIMPLEX
 10
-7517.7559
 20
-272.38248
 40
217.905975
  1
SPECIAL BOLTS
 50
   0.000
  0
INSERT
  8
14
  2
HEXAGON
 10
-7517.7559
 20
-490.28845
 41
8.57897568
 42
8.57897568
 43
8.57897568
 50
   0.000
  0
TEXT
  8
14
 7
SIMPLEX
 10
-7081.9438
 20
-599.24139
 40
217.905975
  1
ID
 50
   0.000
  0
TEXT
  8
14
 7
SIMPLEX
 10
-5992.4146
 20
-599.24139
 40
217.905975
  1
QUAN
 50
   0.000
  0
TEXT
  8
14
 7
SIMPLEX
 10
-4902.8848
 20
-599.24139
 40
217.905975
  1
TYPE
 50
   0.000
  0
TEXT
  8
14
 7
SIMPLEX
 10
-3813.3547
 20
-599.24139
 40
217.905975
  1
DIA
 50
   0.000
  0
TEXT
  8
14
 7
SIMPLEX
 10
-2505.9192
 20
-599.24139
 40
217.905975
  1
LENGTH
 50
   0.000
  0
TEXT
  8
14
 7
SIMPLEX
 10
-980.57733
 20
-599.24139
 40
217.905975
  1
WASH
 50
   0.000
  0
TEXT
  8
26
 7
SIMPLEX
 10
-7517.7559
 20
-926.10046
 40
217.905975
  1
   3
 50
   0.000
  0
TEXT
  8
26
 7
SIMPLEX
 10
-5556.6025
 20
-926.10046
 40
217.905975
  1
2
 50
   0.000
  0
TEXT
  8
26
 7
SIMPLEX
 10
-4902.8848
 20
-926.10046
 40
217.905975
  1
Gr8.8
 50
   0.000
  0
TEXT
  8
26
 7
SIMPLEX
 10
-3813.3547
 20
-926.10046
 40
217.905975
  1
16
 50
   0.000
  0
TEXT
  8
26
 7
SIMPLEX
 10
-2505.9192
 20
-926.10046
 40
217.905975
  1
70
 50
   0.000
  0
TEXT
  8
26
 7
SIMPLEX
 10
-762.67139
 20
-926.10046
 40
217.905975
  1
2
 50
   0.000
  0
LINE
  8
0
 10
-7626.7095
 20
0.00000000
 11
0.00000000
 21
0.00000000
  0
LINE
  8
0
 10
-7626.7095
 20
-980.57697
 11
0.00000000
 21
-980.57697
  0
LINE
  8
0
 10
-7626.7095
 20
0.00000000
 11
-7626.7095
 21
-980.57697
  0
LINE
  8
0
 10
0.00000000
 20
0.00000000
 11
0.00000000
 21
-980.57697
  0
LINE
  8
0
 10
-7626.7095
 20
-326.85898
 11
0.00000000
 21
-326.85898
  0
LINE
  8
0
 10
-6101.3677
 20
-326.85898
 11
-6101.3677
 21
-980.57697
  0
LINE
  8
0
 10
-7626.7095
 20
-653.71796
 11
0.00000000
 21
-653.71796
  0
ENDBLK
  8
1
999
END:     AREA=Tables
  0
ENDSEC
  0
SECTION
  2
ENTITIES
  0
LINE
  8
22
 10
0.00000000
 20
0.00000000
 11
52409.7383
 21
0.00000000
  0
LINE
  8
22
 10
52409.7383
 20
0.00000000
 11
52409.7383
 21
37061.1758
  0
LINE
  8
22
 10
52409.7383
 20
37061.1758
 11
0.00000000
 21
37061.1758
  0
LINE
  8
22
 10
0.00000000
 20
37061.1758
 11
0.00000000
 21
0.00000000
  0
LINE
  8
0
 10
32441.6250
 20
0.00000000
 11
32441.6250
 21
3328.01855
  0
LINE
  8
0
 10
32441.6250
 20
3328.01855
 11
52409.7383
 21
3328.01855
  0
LINE
  8
0
 10
32441.6250
 20
0.00000000
 11
52409.7383
 21
0.00000000
  0
LINE
  8
0
 10
52409.7383
 20
0.00000000
 11
52409.7383
 21
3328.01855
  0
LINE
  8
0
 10
32441.6250
 20
1267.81653
 11
52409.7383
 21
1267.81653
  0
LINE
  8
0
 10
32441.6250
 20
1901.72498
 11
52409.7383
 21
1901.72498
  0
LINE
  8
0
 10
32441.6250
 20
2535.63306
 11
52409.7383
 21
2535.63306
  0
LINE
  8
0
 10
35294.2109
 20
0.00000000
 11
35294.2109
 21
2535.63306
  0
LINE
  8
0
 10
42425.6836
 20
0.00000000
 11
42425.6836
 21
2535.63306
  0
LINE
  8
0
 10
42425.6836
 20
633.908264
 11
52409.7383
 21
633.908264
  0
LINE
  8
0
 10
45912.1758
 20
1901.72498
 11
45912.1758
 21
1267.81653
  0
LINE
  8
0
 10
49081.7148
 20
1901.72498
 11
49081.7148
 21
1267.81653
  0
LINE
  8
0
 10
47496.9492
 20
1267.81653
 11
47496.9492
 21
633.908264
  0
TEXT
  8
14
 7
SIMPLEX
 10
32758.5801
 20
2060.20215
 40
316.954132
  1
PROJECT
 50
   0.000
  0
TEXT
  8
14
 7
SIMPLEX
 10
32758.5801
 20
1426.29358
 40
316.954132
  1
ID
 50
   0.000
  0
TEXT
  8
14
 7
SIMPLEX
 10
32758.5801
 20
792.385315
 40
316.954132
  1
PROJECT
 50
   0.000
  0
TEXT
  8
14
 7
SIMPLEX
 10
32758.5801
 20
158.477066
 40
316.954132
  1
ADDRESS
 50
   0.000
  0
TEXT
  8
14
 7
SIMPLEX
 10
35611.1641
 20
2060.20215
 40
316.954132
  1
Proposed Warehouse
 50
   0.000
  0
TEXT
  8
14
 7
SIMPLEX
 10
35611.1641
 20
1426.29358
 40
316.954132
  1
C323-153-Final
 50
   0.000
  0
TEXT
  8
14
 7
SIMPLEX
 10
35611.1641
 20
792.385315
 40
316.954132
  1
Proposed Warehouse
 50
   0.000
  0
TEXT
  8
14
 7
SIMPLEX
 10
35611.1641
 20
158.477066
 40
316.954132
  1
 
 50
   0.000
  0
TEXT
  8
14
 7
SIMPLEX
 10
39176.9023
 20
2694.11035
 40
475.431244
  1
INFINITI SOLUTION
 50
   0.000
  0
TEXT
  8
14
 7
SIMPLEX
 10
42742.6367
 20
2060.20215
 40
316.954132
  1
SIDEWALL FRAMING
 50
   0.000
  0
TEXT
  8
14
 7
SIMPLEX
 10
42742.6367
 20
1426.29358
 40
316.954132
  1
DESIGN:
 50
   0.000
  0
TEXT
  8
14
 7
SIMPLEX
 10
42742.6367
 20
792.385315
 40
316.954132
  1
DATE:
 50
   0.000
  0
TEXT
  8
14
 7
SIMPLEX
 10
44359.1016
 20
792.385315
 40
316.954132
  1
11/AUG/2025
 50
   0.000
  0
TEXT
  8
14
 7
SIMPLEX
 10
46229.1328
 20
1426.29358
 40
316.954132
  1
DRAFT:
 50
   0.000
  0
TEXT
  8
14
 7
SIMPLEX
 10
49398.6719
 20
1426.29358
 40
316.954132
  1
CHECK:
 50
   0.000
  0
TEXT
  8
14
 7
SIMPLEX
 10
47655.4258
 20
792.385315
 40
316.954132
  1
SHEET
 50
   0.000
  0
TEXT
  8
14
 7
SIMPLEX
 10
50508.0156
 20
792.385315
 40
316.954132
  1
OF
 50
   0.000
  0
TEXT
  8
14
 7
SIMPLEX
 10
49240.1953
 20
792.385315
 40
316.954132
  1
 
 50
   0.000
999
FIELD:@PAGE_ID
  0
TEXT
  8
14
 7
SIMPLEX
 10
51141.9180
 20
792.385315
 40
316.954132
  1
 
 50
   0.000
999
FIELD:@PAGE_TOTAL
  0
INSERT
  8
0
  2
SW1FRM
 10
3656.06592
 20
15419.8867
 41
1.00000000
 42
1.00000000
 43
1.00000000
 50
   0.000
  0
INSERT
  8
0
  2
SW1TBL
 10
52409.7383
 20
33683.6328
 41
1.00000000
 42
1.00000000
 43
1.00000000
 50
   0.000
  0
INSERT
  8
0
  2
SW1BLT
 10
52409.7383
 20
37061.1758
 41
1.00000000
 42
1.00000000
 43
1.00000000
 50
   0.000
  0
INSERT
  8
0
  2
SW1BTSPC
 10
52409.7383
 20
34882.1172
 41
1.00000000
 42
1.00000000
 43
1.00000000
 50
   0.000
  0
ENDSEC
  0
EOF
