  0
SECTION
  2
HEADER
  9
$ACADVER
  1
AC1009
  9
$EXTMIN
 10
-21983.336
 20
 -3050.000
  9
$EXTMAX
 10
 67483.336
 20
 64050.004
  9
$LIMMIN
 10
-21983.336
 20
 -3050.000
  9
$LIMMAX
 10
 67483.336
 20
 64050.004
  9
$FILLMODE
 70
     1
  9
$HANDLING
 70
     0
  0
ENDSEC
  0
SECTION
  2
TABLES
  0
TABLE
  2
LTYPE
 70
1
  0
LTYPE
  2
CONTIN
 70
    64
  3
SOLID LINE
 72
    65
 73
     0
 40
0.0
  0
LTYPE
  2
CONTINUOUS
 70
    64
  3
SOLID LINE
 72
    65
 73
     0
 40
0.0
  0
LTYPE
  2
CENTER
 70
    64
  3
____ _ ____ _ ____ _ ____ _ ____ _ ____ _ ____
 72
    65
 73
     4
 40
     4.615
 49
     2.884
 49
    -0.577
 49
     0.577
 49
    -0.577
  0
LTYPE
  2
DASHED
 70
    64
  3
__ __ __ __ __ __ __ __ __ __ __ __ __ __ __ 
 72
    65
 73
     2
 40
  1073.60
 49
   715.73
 49
  -357.86
  0
ENDTAB
  0
TABLE
  2
LAYER
 70
30
  0
LAYER
  2
0
 70
     0
 62
     7
  6
CONTIN
  0
LAYER
  2
1
 70
     0
 62
     7
  6
CONTIN
  0
LAYER
  2
2
 70
     0
 62
     7
  6
CONTIN
  0
LAYER
  2
3
 70
     0
 62
     7
  6
CONTIN
  0
LAYER
  2
4
 70
     0
 62
     5
  6
CONTIN
  0
LAYER
  2
5
 70
     0
 62
     5
  6
DASHED
  0
LAYER
  2
6
 70
     0
 62
     5
  6
DASHED
  0
LAYER
  2
7
 70
     0
 62
     5
  6
CONTIN
  0
LAYER
  2
8
 70
     0
 62
     5
  6
DASHED
  0
LAYER
  2
9
 70
     0
 62
     7
  6
CONTIN
  0
LAYER
  2
10
 70
     0
 62
     7
  6
CONTIN
  0
LAYER
  2
11
 70
     0
 62
     6
  6
DASHED
  0
LAYER
  2
12
 70
     0
 62
     7
  6
DASHED
  0
LAYER
  2
13
 70
     0
 62
     5
  6
DASHED
  0
LAYER
  2
14
 70
     0
 62
     7
  6
CONTIN
  0
LAYER
  2
15
 70
     0
 62
     5
  6
CONTIN
  0
LAYER
  2
16
 70
     0
 62
     7
  6
CONTIN
  0
LAYER
  2
17
 70
     0
 62
     7
  6
CONTIN
  0
LAYER
  2
18
 70
     0
 62
     7
  6
CONTIN
  0
LAYER
  2
19
 70
     0
 62
     7
  6
CONTIN
  0
LAYER
  2
20
 70
     0
 62
     1
  6
CONTIN
  0
LAYER
  2
21
 70
     0
 62
     7
  6
CONTIN
  0
LAYER
  2
22
 70
     0
 62
     7
  6
DASHED
  0
LAYER
  2
23
 70
     0
 62
     7
  6
DASHED
  0
LAYER
  2
24
 70
     0
 62
     7
  6
CONTIN
  0
LAYER
  2
25
 70
     0
 62
     7
  6
CONTIN
  0
LAYER
  2
26
 70
     0
 62
     7
  6
CONTIN
  0
LAYER
  2
27
 70
     0
 62
     1
  6
CENTER
  0
LAYER
  2
28
 70
     0
 62
     7
  6
CONTIN
  0
LAYER
  2
29
 70
     0
 62
     3
  6
DASHED
  0
ENDTAB
  0
TABLE
  2
STYLE
 70
  0
  0
ENDTAB
  0
ENDSEC
  0
SECTION
  2
ENTITIES
  0
LINE
  8
8
 10
     0.000
 20
 61000.004
 11
     0.000
 21
     0.000
  0
LINE
  8
8
 10
     0.000
 20
     0.000
 11
 45500.000
 21
     0.000
  0
LINE
  8
8
 10
 45500.000
 20
     0.000
 11
 45500.000
 21
 61000.004
  0
LINE
  8
8
 10
 45500.000
 20
 61000.004
 11
     0.000
 21
 61000.004
  0
LINE
  8
23
 10
  7350.000
 20
     0.000
 11
  7350.000
 21
 61000.004
  0
LINE
  8
23
 10
 15049.999
 20
     0.000
 11
 15049.999
 21
 61000.004
  0
LINE
  8
23
 10
 22749.998
 20
     0.000
 11
 22749.998
 21
 61000.004
  0
LINE
  8
23
 10
 30449.998
 20
     0.000
 11
 30449.998
 21
 61000.004
  0
LINE
  8
23
 10
 38150.000
 20
     0.000
 11
 38150.000
 21
 61000.004
  0
LINE
  8
8
 10
 -4500.001
 20
 45900.004
 11
 -4500.002
 21
 15100.002
  0
LINE
  8
8
 10
    -0.001
 20
 45900.004
 11
 -4500.001
 21
 45900.004
  0
LINE
  8
8
 10
    -0.002
 20
 15100.002
 11
 -4500.002
 21
 15100.002
  0
TEXT
  8
21
 10
 -5036.449
 20
 30073.283
 40
 121.920
  1
CANOPY1
 72
      1
 11
 -4975.489
 21
 30500.004
 73
      2
 50
  90.000
  0
LINE
  8
8
 10
 50000.000
 20
 15099.999
 11
 50000.000
 21
 45900.000
  0
LINE
  8
8
 10
 45500.000
 20
 15099.999
 11
 50000.000
 21
 15099.999
  0
LINE
  8
8
 10
 45499.996
 20
 45900.000
 11
 50000.000
 21
 45900.000
  0
TEXT
  8
21
 10
 50414.523
 20
 30073.277
 40
 121.920
  1
CANOPY2
 72
      1
 11
 50475.484
 21
 30499.998
 73
      2
 50
  90.000
  0
LINE
  8
16
 10
    -0.001
 20
 45900.004
 11
 -4500.001
 21
 45900.004
  0
TEXT
  8
16
 10
 -2554.801
 20
 45948.770
 40
 121.920
  1
Beam1
 72
      1
 11
 -2250.001
 21
 46009.730
 73
      2
 50
   0.000
  0
LINE
  8
16
 10
    -0.001
 20
 38200.004
 11
 -4500.001
 21
 38200.004
  0
TEXT
  8
16
 10
 -2554.801
 20
 38248.773
 40
 121.920
  1
Beam2
 72
      1
 11
 -2250.001
 21
 38309.730
 73
      2
 50
   0.000
  0
LINE
  8
16
 10
    -0.001
 20
 30500.004
 11
 -4500.001
 21
 30500.004
  0
TEXT
  8
16
 10
 -2554.801
 20
 30548.771
 40
 121.920
  1
Beam3
 72
      1
 11
 -2250.001
 21
 30609.730
 73
      2
 50
   0.000
  0
LINE
  8
16
 10
    -0.002
 20
 22800.004
 11
 -4500.001
 21
 22800.004
  0
TEXT
  8
16
 10
 -2554.802
 20
 22848.770
 40
 121.920
  1
Beam4
 72
      1
 11
 -2250.002
 21
 22909.730
 73
      2
 50
   0.000
  0
LINE
  8
16
 10
    -0.002
 20
 15100.002
 11
 -4500.002
 21
 15100.002
  0
TEXT
  8
16
 10
 -2554.802
 20
 15148.769
 40
 121.920
  1
Beam5
 72
      1
 11
 -2250.002
 21
 15209.729
 73
      2
 50
   0.000
  0
LINE
  8
16
 10
 45500.000
 20
 15099.999
 11
 50000.000
 21
 15099.999
  0
TEXT
  8
16
 10
 47445.199
 20
 15148.767
 40
 121.920
  1
Beam6
 72
      1
 11
 47750.000
 21
 15209.728
 73
      2
 50
 360.000
  0
LINE
  8
16
 10
 45500.000
 20
 22799.998
 11
 50000.000
 21
 22799.998
  0
TEXT
  8
16
 10
 47445.199
 20
 22848.766
 40
 121.920
  1
Beam7
 72
      1
 11
 47750.000
 21
 22909.727
 73
      2
 50
 360.000
  0
LINE
  8
16
 10
 45500.000
 20
 30499.998
 11
 50000.000
 21
 30499.998
  0
TEXT
  8
16
 10
 47445.199
 20
 30548.764
 40
 121.920
  1
Beam8
 72
      1
 11
 47750.000
 21
 30609.725
 73
      2
 50
 360.000
  0
LINE
  8
16
 10
 45499.996
 20
 38200.000
 11
 50000.000
 21
 38200.000
  0
TEXT
  8
16
 10
 47445.199
 20
 38248.766
 40
 121.920
  1
Beam9
 72
      1
 11
 47750.000
 21
 38309.727
 73
      2
 50
 360.000
  0
LINE
  8
16
 10
 45499.996
 20
 45900.000
 11
 50000.000
 21
 45900.000
  0
TEXT
  8
16
 10
 47384.238
 20
 45948.766
 40
 121.920
  1
Beam10
 72
      1
 11
 47750.000
 21
 46009.727
 73
      2
 50
 360.000
  0
LINE
  8
0
 10
-21983.336
 20
 -3050.000
 11
 67483.336
 21
 -3050.000
  0
LINE
  8
0
 10
 67483.336
 20
 -3050.000
 11
 67483.336
 21
 64050.004
  0
LINE
  8
0
 10
 67483.336
 20
 64050.004
 11
-21983.336
 21
 64050.004
  0
LINE
  8
0
 10
-21983.336
 20
 64050.004
 11
-21983.336
 21
 -3050.000
  0
LINE
  8
0
 10
-21983.336
 20
  -835.700
 11
 67483.336
 21
  -835.700
  0
TEXT
  8
0
 10
 10940.399
 20
 -2680.950
 40
  1476.200
  1
Component Design
 50
     0.000
  0
TEXT
  8
0
 10
-21245.234
 20
 -2680.950
 40
  1476.200
  1
C08-033
 50
     0.000
  0
TEXT
  8
0
 10
 50507.031
 20
 -2680.950
 40
  1476.200
  1
23/APR/2026
 50
     0.000
  0
ENDSEC
  0
EOF
