999
SOURCE:MBS   PROGRAM:EWSWDWG   CELL:EwDwg-R   CLASS:ELEVATION   MODE:
  0
SECTION
  2
HEADER
  9
$ACADVER
  1
AC1009
  9
$EXTMIN
 10
0.00000000
 20
0.00000000
  9
$EXTMAX
 10
83487.5313
 20
59037.6055
  9
$LIMMIN
 10
0.00000000
 20
0.00000000
  9
$LIMMAX
 10
83487.5313
 20
59037.6055
  9
$FILLMODE
 70
     1
  9
$HANDLING
 70
     0
  0
ENDSEC
  0
SECTION
  2
TABLES
  0
TABLE
  2
LTYPE
 70
4
  0
LTYPE
  2
CONTIN
 70
   64
  3
SOLID LINE
  72
   65
 73
    0
 40
 0.000
  0
LTYPE
  2
CENTER
 70
   64
  3
____ _ ____ _ _
  72
   65
 73
    4
 40
5049.0
 49
3155.6
 49
-631.1
 49
631.13
 49
-631.1
  0
LTYPE
  2
DASHED
 70
   64
  3
__ __ __ __ __
  72
   65
 73
    2
 40
946.69
 49
631.13
 49
-313.0
  0
LTYPE
  2
CONTINUOUS
 70
   64
  3
SOLID LINE
  72
   65
 73
    0
 40
 0.000
  0
ENDTAB
  0
TABLE
  2
LAYER
 70
27
  0
LAYER
  2
0
 70
     0
 62
     7
  6
CONTIN
  0
LAYER
  2
1
 70
     0
 62
     7
  6
CONTIN
  0
LAYER
  2
2
 70
     0
 62
     6
  6
CONTIN
  0
LAYER
  2
3
 70
     0
 62
     7
  6
CONTIN
  0
LAYER
  2
4
 70
     0
 62
     7
  6
CONTIN
  0
LAYER
  2
5
 70
     0
 62
     5
  6
DASHED
  0
LAYER
  2
6
 70
     0
 62
     6
  6
CONTIN
  0
LAYER
  2
7
 70
     0
 62
     7
  6
CONTIN
  0
LAYER
  2
8
 70
     0
 62
     8
  6
DASHED
  0
LAYER
  2
9
 70
     0
 62
     9
  6
DASHED
  0
LAYER
  2
10
 70
     0
 62
    10
  6
CONTIN
  0
LAYER
  2
11
 70
     0
 62
     7
  6
CONTIN
  0
LAYER
  2
12
 70
     0
 62
     6
  6
CONTIN
  0
LAYER
  2
13
 70
     0
 62
     1
  6
CONTIN
  0
LAYER
  2
14
 70
     0
 62
     7
  6
CONTIN
  0
LAYER
  2
15
 70
     0
 62
     7
  6
CONTIN
  0
LAYER
  2
16
 70
     0
 62
     7
  6
CONTIN
  0
LAYER
  2
17
 70
     0
 62
     5
  6
CONTIN
  0
LAYER
  2
18
 70
     0
 62
     7
  6
CONTIN
  0
LAYER
  2
19
 70
     0
 62
     7
  6
CONTIN
  0
LAYER
  2
20
 70
     0
 62
     7
  6
CONTIN
  0
LAYER
  2
21
 70
     0
 62
     7
  6
CONTIN
  0
LAYER
  2
22
 70
     0
 62
     7
  6
CONTIN
  0
LAYER
  2
23
 70
     0
 62
     7
  6
DASHED
  0
LAYER
  2
24
 70
     0
 62
     7
  6
CONTIN
  0
LAYER
  2
25
 70
     0
 62
     7
  6
CONTIN
  0
LAYER
  2
26
 70
     0
 62
     7
  6
CONTIN
  0
LAYER
  2
27
 70
     0
 62
     1
  6
CENTER
  0
ENDTAB
  0
TABLE
  2
STYLE
 70
  0
  0
STYLE
  2
SIMPLEX
 70
  0
 40
  0.000
 41
  1.000
 42
  1.000
 50
  0.000
 71
  0
  3
SIMPLEX
  0
STYLE
  2
ROMANS
 70
  0
 40
  0.000
 41
  1.000
 42
  1.000
 50
  0.000
 71
  0
  3
ROMANS
  0
STYLE
  2
OPEN
 70
  0
 40
  0.000
 41
  1.000
 42
  1.000
 50
  0.000
 71
  0
  3
SIMPLEX
  0
STYLE
  2
ARIAL
 70
  0
 40
  0.000
 41
  1.000
 42
  1.000
 50
  0.000
 71
  0
  3
ARIAL.TTF
  0
STYLE
  2
VERDANAB
 70
  0
 40
  0.000
 41
  1.000
 42
  1.000
 50
  0.000
 71
  0
  3
VERDANAB.TTF
  0
ENDTAB
  0
ENDSEC
  0
SECTION
  2
BLOCKS
  0
BLOCK
  8
0
  2
ARROWP
 70
     0
 10
0.00000000
 20
0.00000000
  0
LINE
  8
0
 10
0.00000000
 20
0.00000000
 11
-361.00403
 21
-60.167343
  0
LINE
  8
0
 10
0.00000000
 20
0.00000000
 11
-361.00403
 21
60.1673393
  0
LINE
  8
0
 10
-361.00403
 20
60.1673393
 11
-361.00403
 21
-60.167343
  0
ENDBLK
  8
0
  0
BLOCK
  8
0
  2
ARROW
 70
     0
 10
0.00000000
 20
0.00000000
  0
LINE
  8
0
 10
0.00000000
 20
0.00000000
 11
-361.00403
 21
-60.167343
  0
LINE
  8
0
 10
0.00000000
 20
0.00000000
 11
-361.00403
 21
60.1673393
  0
LINE
  8
0
 10
-361.00403
 20
60.1673393
 11
-361.00403
 21
-60.167343
  0
ENDBLK
  8
0
  0
BLOCK
  8
0
  2
MARKER
 70
     0
 10
0.00000000
 20
0.00000000
  0
LINE
  8
0
 10
0.00000000
 20
0.00000000
 11
25.3999996
 21
25.3999996
  0
LINE
  8
0
 10
25.3999996
 20
25.3999996
 11
-25.400000
 21
25.3999996
  0
LINE
  8
0
 10
-25.400000
 20
25.3999996
 11
0.00000000
 21
0.00000000
  0
ENDBLK
  8
0
  0
BLOCK
  8
0
  2
FLGCLP
 70
     0
 10
0.00000000
 20
0.00000000
  0
LINE
  8
0
 10
0.00000000
 20
0.00000000
 11
25.3999996
 21
25.3999996
  0
LINE
  8
0
 10
25.3999996
 20
25.3999996
 11
-25.400000
 21
25.3999996
  0
LINE
  8
0
 10
-25.400000
 20
25.3999996
 11
0.00000000
 21
0.00000000
  0
LINE
  8
0
 10
-8.4666672
 20
8.46666716
 11
8.46666716
 21
8.46666716
  0
LINE
  8
0
 10
-8.4666672
 20
8.46666716
 11
-8.4666672
 21
25.3999996
  0
LINE
  8
0
 10
8.46666716
 20
8.46666716
 11
8.46666716
 21
25.3999996
  0
ENDBLK
  8
0
  0
BLOCK
  8
0
  2
DIAMOND
 70
     0
 10
0.00000000
 20
0.00000000
  0
LINE
  8
0
 10
0.00000000
 20
0.00000000
 11
12.6999998
 21
12.6999998
  0
LINE
  8
0
 10
12.6999998
 20
12.6999998
 11
0.00000000
 21
25.3999996
  0
LINE
  8
0
 10
0.00000000
 20
25.3999996
 11
-12.700000
 21
12.6999998
  0
LINE
  8
0
 10
-12.700000
 20
12.6999998
 11
0.00000000
 21
0.00000000
  0
ENDBLK
  8
0
  0
BLOCK
  8
0
  2
SHIELD
 70
     0
 10
0.00000000
 20
0.00000000
  0
ARC
  8
0
 10
0.00000000
 20
38.0999985
 40
12.6999998
 50
   0.000
 51
 180.000
  0
LINE
  8
0
 10
-12.700000
 20
38.0999985
 11
-12.700000
 21
12.6999998
  0
LINE
  8
0
 10
-12.700000
 20
12.6999998
 11
0.00000000
 21
0.00000000
  0
LINE
  8
0
 10
0.00000000
 20
0.00000000
 11
12.6999998
 21
12.6999998
  0
LINE
  8
0
 10
12.6999998
 20
12.6999998
 11
12.6999998
 21
38.0999985
  0
ENDBLK
  8
0
  0
BLOCK
  8
0
  2
FINFLR
 70
     0
 10
0.00000000
 20
0.00000000
  0
LINE
  8
0
 10
0.00000000
 20
0.00000000
 11
12.6999998
 21
25.3999996
  0
LINE
  8
0
 10
12.6999998
 20
25.3999996
 11
-12.700000
 21
25.3999996
  0
LINE
  8
0
 10
-12.700000
 20
25.3999996
 11
0.00000000
 21
0.00000000
  0
LINE
  8
0
 10
0.00000000
 20
0.00000000
 11
0.00000000
 21
25.3999996
  0
SOLID
  8
0
 10
0.00000000
 20
0.00000000
 11
0.00000000
 21
25.3999996
 12
-12.700000
 22
25.3999996
 13
-12.700000
 23
25.3999996
  0
ENDBLK
  8
0
  0
BLOCK
  8
0
  2
CIRCLE
 70
     0
 10
0.00000000
 20
0.00000000
  0
CIRCLE
  8
1
 10
   0.000
 20
   0.000
 40
  25.400
  0
ENDBLK
  8
0
  0
BLOCK
  8
0
  2
HEXAGON
 70
     0
 10
0.00000000
 20
0.00000000
  0
LINE
  8
0
 10
0.00000000
 20
0.00000000
 11
7.62000084
 21
-10.160000
  0
LINE
  8
0
 10
7.62000084
 20
-10.160000
 11
17.7799988
 21
-10.160000
  0
LINE
  8
0
 10
17.7799988
 20
-10.160000
 11
25.3999996
 21
0.00000000
  0
LINE
  8
0
 10
25.3999996
 20
0.00000000
 11
17.7799988
 21
10.1599999
  0
LINE
  8
0
 10
17.7799988
 20
10.1599999
 11
7.62000084
 21
10.1599999
  0
LINE
  8
0
 10
7.62000084
 20
10.1599999
 11
0.00000000
 21
0.00000000
  0
ENDBLK
  8
0
  0
BLOCK
  8
0
  2
CCOL
 70
     0
 10
0.00000000
 20
0.00000000
  0
LINE
  8
0
 10
10.1599999
 20
-2.5400000
 11
10.1599999
 21
0.00000000
  0
LINE
  8
0
 10
10.1599999
 20
0.00000000
 11
0.00000000
 21
0.00000000
  0
LINE
  8
0
 10
0.00000000
 20
0.00000000
 11
0.00000000
 21
-25.400000
  0
LINE
  8
0
 10
0.00000000
 20
-25.400000
 11
10.1599999
 21
-25.400000
  0
LINE
  8
0
 10
10.1599999
 20
-25.400000
 11
10.1599999
 21
-22.859999
  0
ENDBLK
  8
0
  0
BLOCK
  8
0
  2
DCOL
 70
     0
 10
0.00000000
 20
0.00000000
  0
INSERT
  8
0
  2
CCOL
 10
2.53999996
 20
0.00000000
 41
1.00000000
 42
1.00000000
 43
1.00000000
 50
   0.000
  0
INSERT
  8
0
  2
CCOL
 10
-2.5400000
 20
0.00000000
 41
-1.0000000
 42
1.00000000
 43
1.00000000
 50
   0.000
  0
ENDBLK
  8
0
  0
BLOCK
  8
0
  2
UCOL
 70
     0
 10
0.00000000
 20
0.00000000
  0
LINE
  8
0
 10
10.1599999
 20
0.00000000
 11
0.00000000
 21
0.00000000
  0
LINE
  8
0
 10
0.00000000
 20
0.00000000
 11
0.00000000
 21
-25.400000
  0
LINE
  8
0
 10
0.00000000
 20
-25.400000
 11
10.1599999
 21
-25.400000
  0
ENDBLK
  8
0
  0
BLOCK
  8
0
  2
WCOL
 70
     0
 10
0.00000000
 20
0.00000000
  0
LINE
  8
0
 10
-10.160000
 20
0.00000000
 11
10.1599999
 21
0.00000000
  0
LINE
  8
0
 10
0.00000000
 20
0.00000000
 11
0.00000000
 21
-25.400000
  0
LINE
  8
0
 10
-10.160000
 20
-25.400000
 11
10.1599999
 21
-25.400000
  0
ENDBLK
  8
0
  0
BLOCK
  8
0
  2
ZCOL
 70
     0
 10
0.00000000
 20
0.00000000
  0
LINE
  8
0
 10
10.1599999
 20
-2.5400000
 11
10.1599999
 21
0.00000000
  0
LINE
  8
0
 10
10.1599999
 20
0.00000000
 11
0.00000000
 21
0.00000000
  0
LINE
  8
0
 10
0.00000000
 20
0.00000000
 11
0.00000000
 21
-25.400000
  0
LINE
  8
0
 10
0.00000000
 20
-25.400000
 11
-10.160000
 21
-25.400000
  0
LINE
  8
0
 10
-10.160000
 20
-25.400000
 11
-10.160000
 21
-22.859999
  0
ENDBLK
  8
0
  0
BLOCK
  8
0
  2
TCOL
 70
     0
 10
0.00000000
 20
0.00000000
  0
LINE
  8
0
 10
-12.700000
 20
-12.700000
 11
12.6999998
 21
-12.700000
  0
LINE
  8
0
 10
12.6999998
 20
-12.700000
 11
12.6999998
 21
12.6999998
  0
LINE
  8
0
 10
12.6999998
 20
12.6999998
 11
-12.700000
 21
12.6999998
  0
LINE
  8
0
 10
-12.700000
 20
12.6999998
 11
-12.700000
 21
-12.700000
  0
ENDBLK
  8
0
  0
BLOCK
  8
0
  2
TCOL2
 70
     0
 10
0.00000000
 20
0.00000000
  0
LINE
  8
0
 10
-6.3499999
 20
-12.700000
 11
6.34999992
 21
-12.700000
  0
LINE
  8
0
 10
6.34999992
 20
-12.700000
 11
6.34999992
 21
12.6999998
  0
LINE
  8
0
 10
6.34999992
 20
12.6999998
 11
-6.3499999
 21
12.6999998
  0
LINE
  8
0
 10
-6.3499999
 20
12.6999998
 11
-6.3499999
 21
-12.700000
  0
ENDBLK
  8
0
  0
BLOCK
  8
1
  2
PCOL
 70
     0
 10
0.00000000
 20
0.00000000
  0
CIRCLE
  8
1
 10
0.00000000
 20
0.00000000
 40
12.6999998
  0
ENDBLK
  8
1
  0
BLOCK
  8
0
  2
GCOL
 70
     0
 10
0.00000000
 20
0.00000000
  0
LINE
  8
0
 10
10.1599999
 20
-2.5400000
 11
10.1599999
 21
0.00000000
  0
LINE
  8
0
 10
10.1599999
 20
0.00000000
 11
0.00000000
 21
0.00000000
  0
LINE
  8
0
 10
0.00000000
 20
0.00000000
 11
0.00000000
 21
-25.400000
  0
LINE
  8
0
 10
0.00000000
 20
-25.400000
 11
25.3999996
 21
-25.400000
  0
LINE
  8
0
 10
25.3999996
 20
-25.400000
 11
25.3999996
 21
-15.240001
  0
LINE
  8
0
 10
25.3999996
 20
-15.240001
 11
22.8599987
 21
-15.240001
  0
ENDBLK
  8
0
  0
BLOCK
  8
0
  2
VSECTN
 70
     0
 10
0.00000000
 20
0.00000000
  0
LINE
  8
0
 10
-12.700000
 20
25.3999996
 11
12.6999998
 21
25.3999996
  0
LINE
  8
0
 10
-12.700000
 20
25.3999996
 11
0.00000000
 21
0.00000000
  0
LINE
  8
0
 10
0.00000000
 20
0.00000000
 11
12.6999998
 21
25.3999996
  0
ENDBLK
  8
0
  0
BLOCK
  8
0
  2
XCOL
 70
     0
 10
0.00000000
 20
0.00000000
  0
LINE
  8
0
 10
-14.287499
 20
1.58749996
 11
14.2874994
 21
1.58749996
  0
LINE
  8
0
 10
14.2874994
 20
1.58749996
 11
14.2874994
 21
-26.987499
  0
LINE
  8
0
 10
14.2874994
 20
-26.987499
 11
-14.287499
 21
-26.987499
  0
LINE
  8
0
 10
-14.287499
 20
-26.987499
 11
-14.287499
 21
1.58749996
  0
ENDBLK
  8
0
  0
BLOCK
  8
0
  2
SGUS
 70
     0
 10
0.00000000
 20
0.00000000
  0
LINE
  8
0
 10
0.00000000
 20
0.00000000
 11
7.62000084
 21
0.00000000
  0
LINE
  8
0
 10
7.62000084
 20
0.00000000
 11
17.7799988
 21
-25.400000
  0
LINE
  8
0
 10
17.7799988
 20
-25.400000
 11
25.3999996
 21
-25.400000
  0
ENDBLK
  8
0
  0
BLOCK
  8
7
  2
CUTSEC
 70
     0
 10
0.00000000
 20
0.00000000
  0
LINE
  8
7
 10
-583.16040
 20
0.00000000
 11
-138.84772
 21
0.00000000
  0
LINE
  8
7
 10
138.847717
 20
0.00000000
 11
583.160400
 21
0.00000000
  0
LINE
  8
7
 10
583.160400
 20
0.00000000
 11
583.160400
 21
166.617279
  0
INSERT
  8
7
  2
ARROWP
 10
583.160400
 20
527.621399
 41
1.00000000
 42
1.00000000
 43
1.00000000
 50
  90.000
  0
ENDBLK
  8
7
  0
BLOCK
  8
0
  2
WALLLITE
 70
     0
 10
0.00000000
 20
0.00000000
  0
LINE
  8
0
 10
25.3999996
 20
0.00000000
 11
0.00000000
 21
0.00000000
  0
LINE
  8
0
 10
0.00000000
 20
0.00000000
 11
0.00000000
 21
-25.400000
  0
LINE
  8
0
 10
0.00000000
 20
-25.400000
 11
25.3999996
 21
-25.400000
  0
LINE
  8
0
 10
25.3999996
 20
-25.400000
 11
25.3999996
 21
0.00000000
  0
LINE
  8
0
 10
0.00000000
 20
-25.400000
 11
0.00000000
 21
0.00000000
  0
LINE
  8
0
 10
6.34999992
 20
-25.400000
 11
6.34999992
 21
0.00000000
  0
LINE
  8
0
 10
12.6999998
 20
-25.400000
 11
12.6999998
 21
0.00000000
  0
LINE
  8
0
 10
19.0499992
 20
-25.400000
 11
19.0499992
 21
0.00000000
  0
ENDBLK
  8
0
  0
BLOCK
  8
7
  2
DETAIL
 70
     0
 10
0.00000000
 20
0.00000000
  0
CIRCLE
  8
7
 10
0.00000000
 20
0.00000000
 40
138.847717
  0
LINE
  8
7
 10
138.847717
 20
0.00000000
 11
610.929932
 21
0.00000000
  0
ENDBLK
  8
7
  0
BLOCK
  8
0
  2
EW2FRM
 70
     0
 10
0.00000000
 20
0.00000000
999
START:   AREA=Surface
  0
LINE
  8
5
 10
0.00000000
 20
0.00000000
 11
61000.0078
 21
0.00000000
  0
LINE
  8
5
 10
0.00000000
 20
0.00000000
 11
0.00000000
 21
6999.99951
  0
LINE
  8
5
 10
0.00000000
 20
6999.99951
 11
30500.0039
 21
10050.0000
  0
LINE
  8
5
 10
30500.0039
 20
10050.0000
 11
61000.0078
 21
6999.99951
  0
LINE
  8
5
 10
61000.0078
 20
6999.99951
 11
61000.0078
 21
0.00000000
999
END:     AREA=Surface
999
START:   AREA=Columns
  0
LINE
  8
4
 10
7400.00000
 20
0.00000000
 11
7400.00000
 21
6661.89551
  0
LINE
  8
4
 10
15099.9980
 20
0.00000000
 11
15099.9980
 21
7419.64014
  0
LINE
  8
4
 10
22799.9980
 20
0.00000000
 11
22799.9980
 21
8342.18066
  0
LINE
  8
4
 10
30499.9961
 20
0.00000000
 11
30499.9961
 21
8618.31152
  0
LINE
  8
4
 10
38200.0000
 20
0.00000000
 11
38200.0000
 21
8340.61719
  0
LINE
  8
4
 10
45900.0000
 20
0.00000000
 11
45900.0000
 21
7418.70313
  0
LINE
  8
4
 10
53600.0000
 20
0.00000000
 11
53600.0000
 21
6661.88623
  0
INSERT
  8
10
  2
WCOL
 10
7400.00000
 20
-166.61725
 41
13.6661139
 42
13.6661139
 43
13.6661139
 50
   0.000
  0
INSERT
  8
10
  2
WCOL
 10
15099.9980
 20
-166.61725
 41
13.6661139
 42
13.6661139
 43
13.6661139
 50
   0.000
  0
INSERT
  8
10
  2
WCOL
 10
22799.9980
 20
-166.61725
 41
13.6661139
 42
13.6661139
 43
13.6661139
 50
   0.000
  0
INSERT
  8
10
  2
WCOL
 10
30499.9961
 20
-166.61725
 41
13.6661139
 42
13.6661139
 43
13.6661139
 50
   0.000
  0
INSERT
  8
10
  2
WCOL
 10
38200.0000
 20
-166.61725
 41
13.6661139
 42
13.6661139
 43
13.6661139
 50
   0.000
  0
INSERT
  8
10
  2
WCOL
 10
45900.0000
 20
-166.61725
 41
13.6661139
 42
13.6661139
 43
13.6661139
 50
   0.000
  0
INSERT
  8
10
  2
WCOL
 10
53600.0000
 20
-166.61725
 41
13.6661139
 42
13.6661139
 43
13.6661139
 50
   0.000
  0
TEXT
  8
3
 7
SIMPLEX
 10
6783.86328
 20
-1027.4731
 40
347.119293
  1
EC-1
 50
   0.000
  0
TEXT
  8
3
 7
SIMPLEX
 10
14423.1172
 20
-1027.4731
 40
347.119293
  1
EC-2
 50
   0.000
  0
TEXT
  8
3
 7
SIMPLEX
 10
22123.1152
 20
-1027.4731
 40
347.119293
  1
EC-3
 50
   0.000
  0
TEXT
  8
3
 7
SIMPLEX
 10
29823.1172
 20
-1027.4731
 40
347.119293
  1
EC-4
 50
   0.000
  0
TEXT
  8
3
 7
SIMPLEX
 10
37523.1172
 20
-1027.4731
 40
347.119293
  1
EC-5
 50
   0.000
  0
TEXT
  8
3
 7
SIMPLEX
 10
45223.1172
 20
-1027.4731
 40
347.119293
  1
EC-6
 50
   0.000
  0
TEXT
  8
3
 7
SIMPLEX
 10
52983.8672
 20
-1027.4731
 40
347.119293
  1
EC-1
 50
   0.000
999
END:     AREA=Columns
999
START:   AREA=RF Outline
  0
LINE
  8
5
 10
150.000000
 20
-0.2000000
 11
149.999939
 21
6814.00244
  0
LINE
  8
5
 10
149.999939
 20
6814.00244
 11
30500.0039
 21
9849.00293
  0
LINE
  8
5
 10
30500.0039
 20
9849.00293
 11
60850.0039
 21
6814.00244
  0
LINE
  8
5
 10
60850.0039
 20
6814.00244
 11
60850.0039
 21
-0.2000000
  0
LINE
  8
5
 10
412.600006
 20
-0.2000000
 11
563.400024
 21
6339.70068
  0
LINE
  8
5
 10
563.400024
 20
6339.70068
 11
660.099976
 21
6351.00049
  0
LINE
  8
5
 10
660.099976
 20
6351.00049
 11
3698.60010
 21
6554.79980
  0
LINE
  8
5
 10
3698.60010
 20
6554.79980
 11
9699.70020
 21
7004.20020
  0
LINE
  8
5
 10
9699.70020
 20
7004.20020
 11
15665.0996
 21
7651.00049
  0
LINE
  8
5
 10
15665.0996
 20
7651.00049
 11
21561.4004
 21
8440.59961
  0
LINE
  8
5
 10
21561.4004
 20
8440.59961
 11
27572.0996
 21
8788.40039
  0
LINE
  8
5
 10
27572.0996
 20
8788.40039
 11
30500.0039
 21
8788.40039
  0
LINE
  8
5
 10
30500.0039
 20
8788.40039
 11
33428.3984
 21
8788.40039
  0
LINE
  8
5
 10
33428.3984
 20
8788.40039
 11
39439.0000
 21
8438.59961
  0
LINE
  8
5
 10
39439.0000
 20
8438.59961
 11
45334.6016
 21
7650.00049
  0
LINE
  8
5
 10
45334.6016
 20
7650.00049
 11
51300.1016
 21
7004.20020
  0
LINE
  8
5
 10
51300.1016
 20
7004.20020
 11
57301.4023
 21
6554.79980
  0
LINE
  8
5
 10
57301.4023
 20
6554.79980
 11
60340.3086
 21
6350.89990
  0
LINE
  8
5
 10
60340.3086
 20
6350.89990
 11
60443.8984
 21
6335.00049
  0
LINE
  8
5
 10
60443.8984
 20
6335.00049
 11
60587.3906
 21
-0.2000000
  0
LINE
  8
5
 10
150.000000
 20
-0.2000000
 11
412.600006
 21
-0.2000000
  0
LINE
  8
5
 10
60850.0039
 20
-0.2000000
 11
60587.3906
 21
-0.2000000
999
START:   AREA=RF Outline
999
START:   AREA=Backbrace Struts
999
END:     AREA=Backbrace Struts
999
START:   AREA=Header Struts
999
END:     AREA=Header Struts
999
START:   AREA=Framed Openings
  0
LINE
  8
1
 10
16950.0000
 20
0.00000000
 11
16950.0000
 21
4466.69141
  0
TEXT
  8
3
 7
SIMPLEX
 10
17383.8984
 20
1383.86304
 40
347.119293
  1
DJ-1
 50
  90.000
  0
INSERT
  8
10
  2
CCOL
 10
16950.0000
 20
-166.61725
 41
-13.666114
 42
13.6661139
 43
13.6661139
 50
   0.000
  0
LINE
  8
1
 10
20949.9980
 20
0.00000000
 11
20949.9980
 21
4466.69141
  0
TEXT
  8
3
 7
SIMPLEX
 10
20863.2188
 20
1383.86316
 40
347.119293
  1
DJ-1
 50
  90.000
  0
INSERT
  8
10
  2
CCOL
 10
20949.9980
 20
-166.61725
 41
13.6661139
 42
13.6661139
 43
13.6661139
 50
   0.000
  0
LINE
  8
1
 10
17033.3066
 20
4000.00000
 11
20866.6895
 21
4000.00000
  0
TEXT
  8
3
 7
SIMPLEX
 10
17833.8613
 20
3566.10083
 40
347.119293
  1
DH-1
 50
   0.000
  0
LINE
  8
1
 10
24649.9980
 20
0.00000000
 11
24649.9980
 21
4466.69141
  0
TEXT
  8
3
 7
SIMPLEX
 10
25083.8984
 20
1383.86304
 40
347.119293
  1
DJ-1
 50
  90.000
  0
INSERT
  8
10
  2
CCOL
 10
24649.9980
 20
-166.61725
 41
-13.666114
 42
13.6661139
 43
13.6661139
 50
   0.000
  0
LINE
  8
1
 10
28650.0000
 20
0.00000000
 11
28650.0000
 21
4466.69141
  0
TEXT
  8
3
 7
SIMPLEX
 10
28563.2188
 20
1383.86316
 40
347.119293
  1
DJ-1
 50
  90.000
  0
INSERT
  8
10
  2
CCOL
 10
28650.0000
 20
-166.61725
 41
13.6661139
 42
13.6661139
 43
13.6661139
 50
   0.000
  0
LINE
  8
1
 10
24733.3066
 20
4000.00000
 11
28566.6875
 21
4000.00000
  0
TEXT
  8
3
 7
SIMPLEX
 10
25533.8652
 20
3566.10083
 40
347.119293
  1
DH-1
 50
   0.000
  0
LINE
  8
1
 10
32349.9961
 20
0.00000000
 11
32349.9961
 21
4466.69141
  0
TEXT
  8
3
 7
SIMPLEX
 10
32783.8945
 20
1383.86304
 40
347.119293
  1
DJ-1
 50
  90.000
  0
INSERT
  8
10
  2
CCOL
 10
32349.9961
 20
-166.61725
 41
-13.666114
 42
13.6661139
 43
13.6661139
 50
   0.000
  0
LINE
  8
1
 10
36350.0000
 20
0.00000000
 11
36350.0000
 21
4466.69141
  0
TEXT
  8
3
 7
SIMPLEX
 10
36263.2227
 20
1383.86316
 40
347.119293
  1
DJ-1
 50
  90.000
  0
INSERT
  8
10
  2
CCOL
 10
36350.0000
 20
-166.61725
 41
13.6661139
 42
13.6661139
 43
13.6661139
 50
   0.000
  0
LINE
  8
1
 10
32433.3047
 20
4000.00000
 11
36266.6914
 21
4000.00000
  0
TEXT
  8
3
 7
SIMPLEX
 10
33233.8633
 20
3566.10083
 40
347.119293
  1
DH-1
 50
   0.000
  0
LINE
  8
1
 10
40050.0000
 20
0.00000000
 11
40050.0000
 21
4466.69141
  0
TEXT
  8
3
 7
SIMPLEX
 10
40483.8984
 20
1383.86304
 40
347.119293
  1
DJ-1
 50
  90.000
  0
INSERT
  8
10
  2
CCOL
 10
40050.0000
 20
-166.61725
 41
-13.666114
 42
13.6661139
 43
13.6661139
 50
   0.000
  0
LINE
  8
1
 10
44050.0039
 20
0.00000000
 11
44050.0039
 21
4466.69141
  0
TEXT
  8
3
 7
SIMPLEX
 10
43963.2227
 20
1383.86316
 40
347.119293
  1
DJ-1
 50
  90.000
  0
INSERT
  8
10
  2
CCOL
 10
44050.0039
 20
-166.61725
 41
13.6661139
 42
13.6661139
 43
13.6661139
 50
   0.000
  0
LINE
  8
1
 10
40133.3086
 20
4000.00000
 11
43966.6914
 21
4000.00000
  0
TEXT
  8
3
 7
SIMPLEX
 10
40933.8633
 20
3566.10083
 40
347.119293
  1
DH-1
 50
   0.000
999
END:     AREA=Framed Openings
999
START:   AREA=Wideopen Outlines
999
END:     AREA=WideOpen Outlines
999
START:   AREA=Wind Frames
999
END:     AREA=Wind Frames
999
START:   AREA=Wall Panel
999
END:     AREA=Wall Panel
999
START:   AREA=Base Angles
999
START:   AREA=Sheeting Angles
  0
TEXT
  8
3
 7
SIMPLEX
 10
10790.0635
 20
9659.12793
 40
347.119293
  1
GA
 50
   5.711
  0
TEXT
  8
3
 7
SIMPLEX
 10
49519.1484
 20
9728.20801
 40
347.119293
  1
GA
 50
  -5.711
999
START:   AREA=Sheeting Angles
999
START:   AREA=Corner Angles
999
END:     AREA=Corner Angles
999
START:   AREA=Partial Wall Angles
  0
LINE
  8
5
 10
0.00000000
 20
0.00000000
 11
0.00000000
 21
3600.00000
  0
LINE
  8
5
 10
61000.0078
 20
0.00000000
 11
61000.0078
 21
3600.00000
  0
LINE
  8
5
 10
0.00000000
 20
3600.00000
 11
16950.0000
 21
3600.00000
  0
LINE
  8
5
 10
20949.9980
 20
3600.00000
 11
24649.9980
 21
3600.00000
  0
LINE
  8
5
 10
28650.0000
 20
3600.00000
 11
32349.9961
 21
3600.00000
  0
LINE
  8
5
 10
36350.0000
 20
3600.00000
 11
40050.0000
 21
3600.00000
  0
LINE
  8
5
 10
44050.0039
 20
3600.00000
 11
61000.0078
 21
3600.00000
999
END:     AREA=Partial Wall Angles
999
START:   AREA=Wide Door Angles
999
END:     AREA=Wide Door Angles
999
START:   AREA=Cables
999
END:     AREA=Cables
999
START:   AREA=Girts
  0
LINE
  8
1
 10
150.000000
 20
3596.69141
 11
7775.00049
 21
3596.69141
  0
TEXT
  8
3
 7
SIMPLEX
 10
4052.25269
 20
3683.47168
 40
347.119293
  1
 G-1
 50
   0.000
  0
LINE
  8
1
 10
150.000000
 20
5096.69141
 11
7775.00049
 21
5096.69141
  0
TEXT
  8
3
 7
SIMPLEX
 10
4052.25269
 20
5183.47168
 40
347.119293
  1
 G-1
 50
   0.000
  0
LINE
  8
1
 10
0.00000000
 20
6596.69141
 11
7775.00049
 21
6596.69141
  0
TEXT
  8
3
 7
SIMPLEX
 10
3991.50659
 20
6683.47119
 40
347.119293
  1
 G-2
 50
   0.000
  0
LINE
  8
1
 10
7024.99951
 20
3763.30859
 11
16866.6914
 21
3763.30859
  0
TEXT
  8
3
 7
SIMPLEX
 10
9654.00781
 20
3850.08862
 40
347.119293
  1
 G-3
 50
   0.000
  0
LINE
  8
1
 10
7024.99951
 20
5263.30859
 11
15474.9980
 21
5263.30859
  0
TEXT
  8
3
 7
SIMPLEX
 10
9654.00781
 20
5350.08838
 40
347.119293
  1
 G-4
 50
   0.000
  0
LINE
  8
1
 10
7024.99951
 20
6763.30859
 11
15474.9980
 21
6763.30859
  0
TEXT
  8
3
 7
SIMPLEX
 10
9654.00781
 20
6850.08887
 40
347.119293
  1
 G-4
 50
   0.000
  0
LINE
  8
1
 10
15099.9980
 20
4466.69141
 11
23175.0000
 21
4466.69141
  0
TEXT
  8
3
 7
SIMPLEX
 10
17354.0078
 20
4553.47168
 40
347.119293
  1
 G-5
 50
   0.000
  0
LINE
  8
1
 10
14724.9980
 20
5096.69141
 11
23175.0000
 21
5096.69141
  0
TEXT
  8
3
 7
SIMPLEX
 10
17354.0078
 20
5183.47168
 40
347.119293
  1
 G-4
 50
   0.000
  0
LINE
  8
1
 10
14724.9980
 20
6596.69141
 11
23175.0000
 21
6596.69141
  0
TEXT
  8
3
 7
SIMPLEX
 10
17354.0078
 20
6683.47119
 40
347.119293
  1
 G-4
 50
   0.000
  0
LINE
  8
1
 10
21033.3066
 20
3763.30859
 11
24566.6914
 21
3763.30859
  0
TEXT
  8
3
 7
SIMPLEX
 10
23049.8516
 20
3850.08862
 40
347.119293
  1
 G-6
 50
   0.000
  0
LINE
  8
1
 10
22424.9980
 20
4633.30859
 11
30874.9980
 21
4633.30859
  0
TEXT
  8
3
 7
SIMPLEX
 10
25054.0059
 20
4720.08838
 40
347.119293
  1
 G-7
 50
   0.000
  0
LINE
  8
1
 10
22424.9980
 20
5263.30859
 11
30874.9980
 21
5263.30859
  0
TEXT
  8
3
 7
SIMPLEX
 10
25054.0059
 20
5350.08838
 40
347.119293
  1
 G-4
 50
   0.000
  0
LINE
  8
1
 10
22424.9980
 20
6763.30859
 11
30874.9980
 21
6763.30859
  0
TEXT
  8
3
 7
SIMPLEX
 10
25054.0059
 20
6850.08887
 40
347.119293
  1
 G-4
 50
   0.000
  0
LINE
  8
1
 10
22799.9980
 20
8263.30859
 11
30874.9980
 21
8263.30859
  0
TEXT
  8
3
 7
SIMPLEX
 10
25054.0059
 20
8350.08887
 40
347.119293
  1
 G-8
 50
   0.000
  0
LINE
  8
1
 10
28733.3086
 20
3596.69141
 11
32266.6875
 21
3596.69141
  0
TEXT
  8
3
 7
SIMPLEX
 10
30749.8496
 20
3683.47168
 40
347.119293
  1
 G-6
 50
   0.000
  0
LINE
  8
1
 10
30124.9980
 20
4466.69141
 11
38575.0000
 21
4466.69141
  0
TEXT
  8
3
 7
SIMPLEX
 10
32754.0059
 20
4553.47168
 40
347.119293
  1
 G-7
 50
   0.000
  0
LINE
  8
1
 10
30124.9980
 20
5096.69141
 11
38575.0000
 21
5096.69141
  0
TEXT
  8
3
 7
SIMPLEX
 10
32754.0059
 20
5183.47168
 40
347.119293
  1
 G-4
 50
   0.000
  0
LINE
  8
1
 10
30124.9980
 20
6596.69141
 11
38575.0000
 21
6596.69141
  0
TEXT
  8
3
 7
SIMPLEX
 10
32754.0059
 20
6683.47119
 40
347.119293
  1
 G-4
 50
   0.000
  0
LINE
  8
1
 10
30124.9980
 20
8096.69141
 11
38200.0000
 21
8096.69141
  0
TEXT
  8
3
 7
SIMPLEX
 10
32754.0059
 20
8183.47070
 40
347.119293
  1
 G-9
 50
   0.000
  0
LINE
  8
1
 10
36433.3086
 20
3763.30859
 11
39966.6875
 21
3763.30859
  0
TEXT
  8
3
 7
SIMPLEX
 10
38449.8516
 20
3850.08862
 40
347.119293
  1
 G-6
 50
   0.000
  0
LINE
  8
1
 10
37825.0000
 20
4633.30859
 11
45900.0000
 21
4633.30859
  0
TEXT
  8
3
 7
SIMPLEX
 10
40341.1914
 20
4720.08838
 40
347.119293
  1
 G-10
 50
   0.000
  0
LINE
  8
1
 10
37825.0000
 20
5263.30859
 11
46275.0000
 21
5263.30859
  0
TEXT
  8
3
 7
SIMPLEX
 10
40454.0078
 20
5350.08838
 40
347.119293
  1
 G-4
 50
   0.000
  0
LINE
  8
1
 10
37825.0000
 20
6763.30859
 11
46275.0000
 21
6763.30859
  0
TEXT
  8
3
 7
SIMPLEX
 10
40454.0078
 20
6850.08887
 40
347.119293
  1
 G-4
 50
   0.000
  0
LINE
  8
1
 10
44133.3125
 20
3596.69141
 11
53975.0000
 21
3596.69141
  0
TEXT
  8
3
 7
SIMPLEX
 10
48101.9414
 20
3683.47168
 40
347.119293
  1
 G-11
 50
   0.000
  0
LINE
  8
1
 10
45525.0000
 20
5096.69141
 11
53975.0000
 21
5096.69141
  0
TEXT
  8
3
 7
SIMPLEX
 10
48154.0078
 20
5183.47168
 40
347.119293
  1
 G-4
 50
   0.000
  0
LINE
  8
1
 10
45525.0000
 20
6596.69141
 11
53975.0000
 21
6596.69141
  0
TEXT
  8
3
 7
SIMPLEX
 10
48154.0078
 20
6683.47119
 40
347.119293
  1
 G-4
 50
   0.000
  0
LINE
  8
1
 10
53225.0039
 20
3763.30859
 11
60850.0039
 21
3763.30859
  0
TEXT
  8
3
 7
SIMPLEX
 10
55628.6992
 20
3850.08862
 40
347.119293
  1
 G-12
 50
   0.000
  0
LINE
  8
1
 10
53225.0039
 20
5263.30859
 11
60850.0039
 21
5263.30859
  0
TEXT
  8
3
 7
SIMPLEX
 10
55628.6992
 20
5350.08838
 40
347.119293
  1
 G-12
 50
   0.000
  0
LINE
  8
1
 10
53225.0039
 20
6763.30859
 11
61000.0078
 21
6763.30859
  0
TEXT
  8
3
 7
SIMPLEX
 10
55628.6992
 20
6850.08887
 40
347.119293
  1
 G-13
 50
   0.000
999
END:     AREA=Girts
999
START:   AREA=Lap Girts
999
END:     AREA=Lap Girts
999
START:   AREA=Column Flange Brace
  0
INSERT
  8
3
  2
MARKER
 10
15516.5420
 20
3763.30859
 41
15.3743773
 42
15.3743773
 43
15.3743773
 50
   0.000
  0
TEXT
  8
3
 7
SIMPLEX
 10
14735.5234
 20
4240.59766
 40
347.119293
  1
FB400
 50
   0.000
  0
INSERT
  8
3
  2
MARKER
 10
23216.5430
 20
4633.30859
 41
15.3743773
 42
15.3743773
 43
15.3743773
 50
   0.000
  0
TEXT
  8
3
 7
SIMPLEX
 10
22435.5234
 20
5110.59766
 40
347.119293
  1
FB400
 50
   0.000
  0
INSERT
  8
3
  2
MARKER
 10
30916.5410
 20
4466.69141
 41
15.3743773
 42
15.3743773
 43
15.3743773
 50
   0.000
  0
TEXT
  8
3
 7
SIMPLEX
 10
30135.5195
 20
4943.98047
 40
347.119293
  1
FB400
 50
   0.000
  0
INSERT
  8
3
  2
MARKER
 10
37783.4570
 20
4466.69141
 41
15.3743773
 42
15.3743773
 43
15.3743773
 50
   0.000
  0
TEXT
  8
3
 7
SIMPLEX
 10
37002.4375
 20
4943.98047
 40
347.119293
  1
FB400
 50
   0.000
  0
INSERT
  8
3
  2
MARKER
 10
45483.4570
 20
3763.30859
 41
15.3743773
 42
15.3743773
 43
15.3743773
 50
   0.000
  0
TEXT
  8
3
 7
SIMPLEX
 10
44702.4414
 20
4240.59766
 40
347.119293
  1
FB400
 50
   0.000
999
END:     AREA=Column Flange Brace
999
START:   AREA=Rafter Flange Brace
999
END:     AREA=Rafter Flange Brace
999
START:   AREA=Wall Struts
999
END:     AREA=Wall Struts
999
START:   AREA=Accessories
999
END:     AREA=Accessories
999
START:   AREA=Cranes
999
END:     AREA=Cranes
999
START:   AREA=JBlocks
  0
TEXT
  8
3
 7
SIMPLEX
 10
1933.31006
 20
4346.69141
 40
347.119293
  1
JB-1
 50
   0.000
  0
LINE
  8
1
 10
1850.00122
 20
3680.00024
 11
1850.00122
 21
5013.38330
  0
TEXT
  8
3
 7
SIMPLEX
 10
1933.31006
 20
5846.69141
 40
347.119293
  1
JB-1
 50
   0.000
  0
LINE
  8
1
 10
1850.00122
 20
5180.00000
 11
1850.00122
 21
6513.38232
  0
LINE
  8
1
 10
3700.00000
 20
3680.00024
 11
3700.00000
 21
5013.38330
  0
LINE
  8
1
 10
3700.00000
 20
5180.00000
 11
3700.00000
 21
6513.38232
  0
LINE
  8
1
 10
5549.99854
 20
3680.00024
 11
5549.99854
 21
5013.38330
  0
LINE
  8
1
 10
5549.99854
 20
5180.00000
 11
5549.99854
 21
6513.38232
  0
LINE
  8
1
 10
9325.00000
 20
3846.61719
 11
9325.00000
 21
5180.00000
  0
LINE
  8
1
 10
9325.00000
 20
5346.61719
 11
9325.00000
 21
6680.00000
  0
LINE
  8
1
 10
11250.0000
 20
3846.61719
 11
11250.0000
 21
5180.00000
  0
LINE
  8
1
 10
11250.0000
 20
5346.61719
 11
11250.0000
 21
6680.00000
  0
LINE
  8
1
 10
13175.0000
 20
3846.61719
 11
13175.0000
 21
5180.00000
  0
LINE
  8
1
 10
13175.0000
 20
5346.61719
 11
13175.0000
 21
6680.00000
  0
TEXT
  8
3
 7
SIMPLEX
 10
17108.3066
 20
4781.69189
 40
347.119293
  1
JB-2
 50
   0.000
  0
LINE
  8
1
 10
17025.0000
 20
4550.00000
 11
17025.0000
 21
5013.38330
  0
TEXT
  8
3
 7
SIMPLEX
 10
17108.3066
 20
5846.69141
 40
347.119293
  1
JB-1
 50
   0.000
  0
LINE
  8
1
 10
17025.0000
 20
5180.00000
 11
17025.0000
 21
6513.38232
  0
LINE
  8
1
 10
18950.0000
 20
4550.00000
 11
18950.0000
 21
5013.38330
  0
LINE
  8
1
 10
18950.0000
 20
5180.00000
 11
18950.0000
 21
6513.38232
  0
LINE
  8
1
 10
20875.0020
 20
4550.00000
 11
20875.0020
 21
5013.38330
  0
LINE
  8
1
 10
20875.0020
 20
5180.00000
 11
20875.0020
 21
6513.38232
  0
LINE
  8
1
 10
24724.9980
 20
4716.61719
 11
24724.9980
 21
5180.00000
  0
LINE
  8
1
 10
24724.9980
 20
5346.61719
 11
24724.9980
 21
6680.00000
  0
TEXT
  8
3
 7
SIMPLEX
 10
24808.3066
 20
7513.30859
 40
347.119293
  1
JB-1
 50
   0.000
  0
LINE
  8
1
 10
24724.9980
 20
6846.61768
 11
24724.9980
 21
8180.00000
  0
LINE
  8
1
 10
26649.9980
 20
4716.61719
 11
26649.9980
 21
5180.00000
  0
LINE
  8
1
 10
26649.9980
 20
5346.61719
 11
26649.9980
 21
6680.00000
  0
LINE
  8
1
 10
26649.9980
 20
6846.61768
 11
26649.9980
 21
8180.00000
  0
LINE
  8
1
 10
28575.0020
 20
4716.61719
 11
28575.0020
 21
5180.00000
  0
LINE
  8
1
 10
28575.0020
 20
5346.61719
 11
28575.0020
 21
6680.00000
  0
LINE
  8
1
 10
28575.0020
 20
6846.61768
 11
28575.0020
 21
8180.00000
  0
LINE
  8
1
 10
32424.9980
 20
4550.00000
 11
32424.9980
 21
5013.38330
  0
LINE
  8
1
 10
32424.9980
 20
5180.00000
 11
32424.9980
 21
6513.38232
  0
LINE
  8
1
 10
32424.9980
 20
6680.00000
 11
32424.9980
 21
8013.38184
  0
LINE
  8
1
 10
34350.0000
 20
4550.00000
 11
34350.0000
 21
5013.38330
  0
LINE
  8
1
 10
34350.0000
 20
5180.00000
 11
34350.0000
 21
6513.38232
  0
LINE
  8
1
 10
34350.0000
 20
6680.00000
 11
34350.0000
 21
8013.38184
  0
LINE
  8
1
 10
36274.9961
 20
4550.00000
 11
36274.9961
 21
5013.38330
  0
LINE
  8
1
 10
36274.9961
 20
5180.00000
 11
36274.9961
 21
6513.38232
  0
LINE
  8
1
 10
36274.9961
 20
6680.00000
 11
36274.9961
 21
8013.38184
  0
LINE
  8
1
 10
40125.0000
 20
4716.61719
 11
40125.0000
 21
5180.00000
  0
LINE
  8
1
 10
40125.0000
 20
5346.61719
 11
40125.0000
 21
6680.00000
  0
LINE
  8
1
 10
42050.0039
 20
4716.61719
 11
42050.0039
 21
5180.00000
  0
LINE
  8
1
 10
42050.0039
 20
5346.61719
 11
42050.0039
 21
6680.00000
  0
LINE
  8
1
 10
43975.0039
 20
4716.61719
 11
43975.0039
 21
5180.00000
  0
LINE
  8
1
 10
43975.0039
 20
5346.61719
 11
43975.0039
 21
6680.00000
  0
LINE
  8
1
 10
47825.0000
 20
3680.00024
 11
47825.0000
 21
5013.38330
  0
LINE
  8
1
 10
47825.0000
 20
5180.00000
 11
47825.0000
 21
6513.38232
  0
LINE
  8
1
 10
49750.0000
 20
3680.00024
 11
49750.0000
 21
5013.38330
  0
LINE
  8
1
 10
49750.0000
 20
5180.00000
 11
49750.0000
 21
6513.38232
  0
LINE
  8
1
 10
51675.0000
 20
3680.00024
 11
51675.0000
 21
5013.38330
  0
LINE
  8
1
 10
51675.0000
 20
5180.00000
 11
51675.0000
 21
6513.38232
  0
LINE
  8
1
 10
55450.0039
 20
3846.61719
 11
55450.0039
 21
5180.00000
  0
LINE
  8
1
 10
55450.0039
 20
5346.61719
 11
55450.0039
 21
6680.00000
  0
LINE
  8
1
 10
57300.0000
 20
3846.61719
 11
57300.0000
 21
5180.00000
  0
LINE
  8
1
 10
57300.0000
 20
5346.61719
 11
57300.0000
 21
6680.00000
  0
LINE
  8
1
 10
59150.0039
 20
3846.61719
 11
59150.0039
 21
5180.00000
  0
LINE
  8
1
 10
59150.0039
 20
5346.61719
 11
59150.0039
 21
6680.00000
999
END:     AREA=JBlocks
999
START:   AREA=Clips
  0
TEXT
  8
3
 7
SIMPLEX
 10
130.169724
 20
6206.18262
 40
260.339447
  1
1
 50
   0.000
  0
LINE
  8
3
 10
455.594086
 20
6141.09717
 11
455.594086
 21
6531.60645
  0
LINE
  8
3
 10
65.0848618
 20
6141.09717
 11
65.0848618
 21
6531.60645
  0
LINE
  8
3
 10
65.0848618
 20
6531.60645
 11
455.594086
 21
6531.60645
  0
LINE
  8
3
 10
455.594086
 20
6141.09717
 11
65.0848618
 21
6141.09717
  0
TEXT
  8
3
 7
SIMPLEX
 10
60609.4961
 20
6372.79980
 40
260.339447
  1
1
 50
   0.000
  0
LINE
  8
3
 10
60934.9258
 20
6307.71533
 11
60934.9258
 21
6698.22461
  0
LINE
  8
3
 10
60544.4102
 20
6307.71533
 11
60544.4102
 21
6698.22461
  0
LINE
  8
3
 10
60544.4102
 20
6698.22461
 11
60934.9258
 21
6698.22461
  0
LINE
  8
3
 10
60934.9258
 20
6307.71533
 11
60544.4102
 21
6307.71533
  0
TEXT
  8
3
 7
SIMPLEX
 10
16385.9297
 20
-390.50919
 40
260.339447
  1
2
 50
   0.000
  0
LINE
  8
3
 10
16711.3535
 20
-455.59409
 11
16711.3535
 21
-65.084877
  0
LINE
  8
3
 10
16320.8467
 20
-455.59409
 11
16320.8467
 21
-65.084877
  0
LINE
  8
3
 10
16320.8467
 20
-65.084877
 11
16711.3535
 21
-65.084877
  0
LINE
  8
3
 10
16711.3535
 20
-455.59409
 11
16320.8467
 21
-455.59409
  0
TEXT
  8
3
 7
SIMPLEX
 10
16559.4902
 20
4076.18262
 40
260.339447
  1
3
 50
   0.000
  0
LINE
  8
3
 10
16884.9141
 20
4011.09766
 11
16884.9141
 21
4401.60693
  0
LINE
  8
3
 10
16494.4063
 20
4011.09766
 11
16494.4063
 21
4401.60693
  0
LINE
  8
3
 10
16494.4063
 20
4401.60693
 11
16884.9141
 21
4401.60693
  0
LINE
  8
3
 10
16884.9141
 20
4011.09766
 11
16494.4063
 21
4011.09766
  0
TEXT
  8
3
 7
SIMPLEX
 10
16559.4902
 20
3372.79956
 40
260.339447
  1
4
 50
   0.000
  0
LINE
  8
3
 10
16884.9141
 20
3307.71460
 11
16884.9141
 21
3698.22412
  0
LINE
  8
3
 10
16494.4063
 20
3307.71460
 11
16494.4063
 21
3698.22412
  0
LINE
  8
3
 10
16494.4063
 20
3698.22412
 11
16884.9141
 21
3698.22412
  0
LINE
  8
3
 10
16884.9141
 20
3307.71460
 11
16494.4063
 21
3307.71460
  0
TEXT
  8
3
 7
SIMPLEX
 10
21253.7266
 20
-390.50919
 40
260.339447
  1
2
 50
   0.000
  0
LINE
  8
3
 10
21579.1504
 20
-455.59409
 11
21579.1504
 21
-65.084877
  0
LINE
  8
3
 10
21188.6426
 20
-455.59409
 11
21188.6426
 21
-65.084877
  0
LINE
  8
3
 10
21188.6426
 20
-65.084877
 11
21579.1504
 21
-65.084877
  0
LINE
  8
3
 10
21579.1504
 20
-455.59409
 11
21188.6426
 21
-455.59409
  0
TEXT
  8
3
 7
SIMPLEX
 10
21080.1680
 20
4076.18262
 40
260.339447
  1
3
 50
   0.000
  0
LINE
  8
3
 10
21405.5898
 20
4011.09766
 11
21405.5898
 21
4401.60693
  0
LINE
  8
3
 10
21015.0820
 20
4011.09766
 11
21015.0820
 21
4401.60693
  0
LINE
  8
3
 10
21015.0820
 20
4401.60693
 11
21405.5898
 21
4401.60693
  0
LINE
  8
3
 10
21405.5898
 20
4011.09766
 11
21015.0820
 21
4011.09766
  0
TEXT
  8
3
 7
SIMPLEX
 10
21080.1680
 20
3372.79956
 40
260.339447
  1
4
 50
   0.000
  0
LINE
  8
3
 10
21405.5898
 20
3307.71460
 11
21405.5898
 21
3698.22412
  0
LINE
  8
3
 10
21015.0820
 20
3307.71460
 11
21015.0820
 21
3698.22412
  0
LINE
  8
3
 10
21015.0820
 20
3698.22412
 11
21405.5898
 21
3698.22412
  0
LINE
  8
3
 10
21405.5898
 20
3307.71460
 11
21015.0820
 21
3307.71460
  0
TEXT
  8
3
 7
SIMPLEX
 10
17080.1680
 20
4130.16943
 40
260.339447
  1
5
 50
   0.000
  0
LINE
  8
3
 10
17405.5918
 20
4065.08472
 11
17405.5918
 21
4455.59375
  0
LINE
  8
3
 10
17015.0840
 20
4065.08472
 11
17015.0840
 21
4455.59375
  0
LINE
  8
3
 10
17015.0840
 20
4455.59375
 11
17405.5918
 21
4455.59375
  0
LINE
  8
3
 10
17405.5918
 20
4065.08472
 11
17015.0840
 21
4065.08472
  0
TEXT
  8
3
 7
SIMPLEX
 10
20559.4883
 20
4130.16943
 40
260.339447
  1
5
 50
   0.000
  0
LINE
  8
3
 10
20884.9121
 20
4065.08472
 11
20884.9121
 21
4455.59375
  0
LINE
  8
3
 10
20494.4043
 20
4065.08472
 11
20494.4043
 21
4455.59375
  0
LINE
  8
3
 10
20494.4043
 20
4455.59375
 11
20884.9121
 21
4455.59375
  0
LINE
  8
3
 10
20884.9121
 20
4065.08472
 11
20494.4043
 21
4065.08472
  0
TEXT
  8
3
 7
SIMPLEX
 10
24085.9297
 20
-390.50919
 40
260.339447
  1
2
 50
   0.000
  0
LINE
  8
3
 10
24411.3535
 20
-455.59409
 11
24411.3535
 21
-65.084877
  0
LINE
  8
3
 10
24020.8457
 20
-455.59409
 11
24020.8457
 21
-65.084877
  0
LINE
  8
3
 10
24020.8457
 20
-65.084877
 11
24411.3535
 21
-65.084877
  0
LINE
  8
3
 10
24411.3535
 20
-455.59409
 11
24020.8457
 21
-455.59409
  0
TEXT
  8
3
 7
SIMPLEX
 10
24259.4902
 20
4076.18262
 40
260.339447
  1
3
 50
   0.000
  0
LINE
  8
3
 10
24584.9121
 20
4011.09766
 11
24584.9121
 21
4401.60693
  0
LINE
  8
3
 10
24194.4043
 20
4011.09766
 11
24194.4043
 21
4401.60693
  0
LINE
  8
3
 10
24194.4043
 20
4401.60693
 11
24584.9121
 21
4401.60693
  0
LINE
  8
3
 10
24584.9121
 20
4011.09766
 11
24194.4043
 21
4011.09766
  0
TEXT
  8
3
 7
SIMPLEX
 10
24259.4902
 20
3372.79956
 40
260.339447
  1
4
 50
   0.000
  0
LINE
  8
3
 10
24584.9121
 20
3307.71460
 11
24584.9121
 21
3698.22412
  0
LINE
  8
3
 10
24194.4043
 20
3307.71460
 11
24194.4043
 21
3698.22412
  0
LINE
  8
3
 10
24194.4043
 20
3698.22412
 11
24584.9121
 21
3698.22412
  0
LINE
  8
3
 10
24584.9121
 20
3307.71460
 11
24194.4043
 21
3307.71460
  0
TEXT
  8
3
 7
SIMPLEX
 10
28953.7285
 20
-390.50919
 40
260.339447
  1
2
 50
   0.000
  0
LINE
  8
3
 10
29279.1523
 20
-455.59409
 11
29279.1523
 21
-65.084877
  0
LINE
  8
3
 10
28888.6426
 20
-455.59409
 11
28888.6426
 21
-65.084877
  0
LINE
  8
3
 10
28888.6426
 20
-65.084877
 11
29279.1523
 21
-65.084877
  0
LINE
  8
3
 10
29279.1523
 20
-455.59409
 11
28888.6426
 21
-455.59409
  0
TEXT
  8
3
 7
SIMPLEX
 10
28780.1660
 20
4076.18262
 40
260.339447
  1
3
 50
   0.000
  0
LINE
  8
3
 10
29105.5938
 20
4011.09766
 11
29105.5938
 21
4401.60693
  0
LINE
  8
3
 10
28715.0840
 20
4011.09766
 11
28715.0840
 21
4401.60693
  0
LINE
  8
3
 10
28715.0840
 20
4401.60693
 11
29105.5938
 21
4401.60693
  0
LINE
  8
3
 10
29105.5938
 20
4011.09766
 11
28715.0840
 21
4011.09766
  0
TEXT
  8
3
 7
SIMPLEX
 10
28780.1660
 20
3206.18237
 40
260.339447
  1
4
 50
   0.000
  0
LINE
  8
3
 10
29105.5938
 20
3141.09766
 11
29105.5938
 21
3531.60645
  0
LINE
  8
3
 10
28715.0840
 20
3141.09766
 11
28715.0840
 21
3531.60645
  0
LINE
  8
3
 10
28715.0840
 20
3531.60645
 11
29105.5938
 21
3531.60645
  0
LINE
  8
3
 10
29105.5938
 20
3141.09766
 11
28715.0840
 21
3141.09766
  0
TEXT
  8
3
 7
SIMPLEX
 10
24780.1680
 20
4130.16943
 40
260.339447
  1
5
 50
   0.000
  0
LINE
  8
3
 10
25105.5918
 20
4065.08472
 11
25105.5918
 21
4455.59375
  0
LINE
  8
3
 10
24715.0840
 20
4065.08472
 11
24715.0840
 21
4455.59375
  0
LINE
  8
3
 10
24715.0840
 20
4455.59375
 11
25105.5918
 21
4455.59375
  0
LINE
  8
3
 10
25105.5918
 20
4065.08472
 11
24715.0840
 21
4065.08472
  0
TEXT
  8
3
 7
SIMPLEX
 10
28259.4902
 20
4130.16943
 40
260.339447
  1
5
 50
   0.000
  0
LINE
  8
3
 10
28584.9160
 20
4065.08472
 11
28584.9160
 21
4455.59375
  0
LINE
  8
3
 10
28194.4063
 20
4065.08472
 11
28194.4063
 21
4455.59375
  0
LINE
  8
3
 10
28194.4063
 20
4455.59375
 11
28584.9160
 21
4455.59375
  0
LINE
  8
3
 10
28584.9160
 20
4065.08472
 11
28194.4063
 21
4065.08472
  0
TEXT
  8
3
 7
SIMPLEX
 10
31785.9297
 20
-390.50919
 40
260.339447
  1
2
 50
   0.000
  0
LINE
  8
3
 10
32111.3535
 20
-455.59409
 11
32111.3535
 21
-65.084877
  0
LINE
  8
3
 10
31720.8457
 20
-455.59409
 11
31720.8457
 21
-65.084877
  0
LINE
  8
3
 10
31720.8457
 20
-65.084877
 11
32111.3535
 21
-65.084877
  0
LINE
  8
3
 10
32111.3535
 20
-455.59409
 11
31720.8457
 21
-455.59409
  0
TEXT
  8
3
 7
SIMPLEX
 10
31959.4883
 20
4076.18262
 40
260.339447
  1
3
 50
   0.000
  0
LINE
  8
3
 10
32284.9121
 20
4011.09766
 11
32284.9121
 21
4401.60693
  0
LINE
  8
3
 10
31894.4023
 20
4011.09766
 11
31894.4023
 21
4401.60693
  0
LINE
  8
3
 10
31894.4023
 20
4401.60693
 11
32284.9121
 21
4401.60693
  0
LINE
  8
3
 10
32284.9121
 20
4011.09766
 11
31894.4023
 21
4011.09766
  0
TEXT
  8
3
 7
SIMPLEX
 10
31959.4883
 20
3206.18237
 40
260.339447
  1
4
 50
   0.000
  0
LINE
  8
3
 10
32284.9121
 20
3141.09766
 11
32284.9121
 21
3531.60645
  0
LINE
  8
3
 10
31894.4023
 20
3141.09766
 11
31894.4023
 21
3531.60645
  0
LINE
  8
3
 10
31894.4023
 20
3531.60645
 11
32284.9121
 21
3531.60645
  0
LINE
  8
3
 10
32284.9121
 20
3141.09766
 11
31894.4023
 21
3141.09766
  0
TEXT
  8
3
 7
SIMPLEX
 10
36653.7266
 20
-390.50919
 40
260.339447
  1
2
 50
   0.000
  0
LINE
  8
3
 10
36979.1523
 20
-455.59409
 11
36979.1523
 21
-65.084877
  0
LINE
  8
3
 10
36588.6445
 20
-455.59409
 11
36588.6445
 21
-65.084877
  0
LINE
  8
3
 10
36588.6445
 20
-65.084877
 11
36979.1523
 21
-65.084877
  0
LINE
  8
3
 10
36979.1523
 20
-455.59409
 11
36588.6445
 21
-455.59409
  0
TEXT
  8
3
 7
SIMPLEX
 10
36480.1680
 20
4076.18262
 40
260.339447
  1
3
 50
   0.000
  0
LINE
  8
3
 10
36805.5938
 20
4011.09766
 11
36805.5938
 21
4401.60693
  0
LINE
  8
3
 10
36415.0859
 20
4011.09766
 11
36415.0859
 21
4401.60693
  0
LINE
  8
3
 10
36415.0859
 20
4401.60693
 11
36805.5938
 21
4401.60693
  0
LINE
  8
3
 10
36805.5938
 20
4011.09766
 11
36415.0859
 21
4011.09766
  0
TEXT
  8
3
 7
SIMPLEX
 10
36480.1680
 20
3372.79956
 40
260.339447
  1
4
 50
   0.000
  0
LINE
  8
3
 10
36805.5938
 20
3307.71460
 11
36805.5938
 21
3698.22412
  0
LINE
  8
3
 10
36415.0859
 20
3307.71460
 11
36415.0859
 21
3698.22412
  0
LINE
  8
3
 10
36415.0859
 20
3698.22412
 11
36805.5938
 21
3698.22412
  0
LINE
  8
3
 10
36805.5938
 20
3307.71460
 11
36415.0859
 21
3307.71460
  0
TEXT
  8
3
 7
SIMPLEX
 10
32480.1660
 20
4130.16943
 40
260.339447
  1
5
 50
   0.000
  0
LINE
  8
3
 10
32805.5898
 20
4065.08472
 11
32805.5898
 21
4455.59375
  0
LINE
  8
3
 10
32415.0820
 20
4065.08472
 11
32415.0820
 21
4455.59375
  0
LINE
  8
3
 10
32415.0820
 20
4455.59375
 11
32805.5898
 21
4455.59375
  0
LINE
  8
3
 10
32805.5898
 20
4065.08472
 11
32415.0820
 21
4065.08472
  0
TEXT
  8
3
 7
SIMPLEX
 10
35959.4922
 20
4130.16943
 40
260.339447
  1
5
 50
   0.000
  0
LINE
  8
3
 10
36284.9180
 20
4065.08472
 11
36284.9180
 21
4455.59375
  0
LINE
  8
3
 10
35894.4063
 20
4065.08472
 11
35894.4063
 21
4455.59375
  0
LINE
  8
3
 10
35894.4063
 20
4455.59375
 11
36284.9180
 21
4455.59375
  0
LINE
  8
3
 10
36284.9180
 20
4065.08472
 11
35894.4063
 21
4065.08472
  0
TEXT
  8
3
 7
SIMPLEX
 10
39485.9297
 20
-390.50919
 40
260.339447
  1
2
 50
   0.000
  0
LINE
  8
3
 10
39811.3555
 20
-455.59409
 11
39811.3555
 21
-65.084877
  0
LINE
  8
3
 10
39420.8477
 20
-455.59409
 11
39420.8477
 21
-65.084877
  0
LINE
  8
3
 10
39420.8477
 20
-65.084877
 11
39811.3555
 21
-65.084877
  0
LINE
  8
3
 10
39811.3555
 20
-455.59409
 11
39420.8477
 21
-455.59409
  0
TEXT
  8
3
 7
SIMPLEX
 10
39659.4883
 20
4076.18262
 40
260.339447
  1
3
 50
   0.000
  0
LINE
  8
3
 10
39984.9141
 20
4011.09766
 11
39984.9141
 21
4401.60693
  0
LINE
  8
3
 10
39594.4063
 20
4011.09766
 11
39594.4063
 21
4401.60693
  0
LINE
  8
3
 10
39594.4063
 20
4401.60693
 11
39984.9141
 21
4401.60693
  0
LINE
  8
3
 10
39984.9141
 20
4011.09766
 11
39594.4063
 21
4011.09766
  0
TEXT
  8
3
 7
SIMPLEX
 10
39659.4883
 20
3372.79956
 40
260.339447
  1
4
 50
   0.000
  0
LINE
  8
3
 10
39984.9141
 20
3307.71460
 11
39984.9141
 21
3698.22412
  0
LINE
  8
3
 10
39594.4063
 20
3307.71460
 11
39594.4063
 21
3698.22412
  0
LINE
  8
3
 10
39594.4063
 20
3698.22412
 11
39984.9141
 21
3698.22412
  0
LINE
  8
3
 10
39984.9141
 20
3307.71460
 11
39594.4063
 21
3307.71460
  0
TEXT
  8
3
 7
SIMPLEX
 10
44353.7305
 20
-390.50919
 40
260.339447
  1
2
 50
   0.000
  0
LINE
  8
3
 10
44679.1563
 20
-455.59409
 11
44679.1563
 21
-65.084877
  0
LINE
  8
3
 10
44288.6445
 20
-455.59409
 11
44288.6445
 21
-65.084877
  0
LINE
  8
3
 10
44288.6445
 20
-65.084877
 11
44679.1563
 21
-65.084877
  0
LINE
  8
3
 10
44679.1563
 20
-455.59409
 11
44288.6445
 21
-455.59409
  0
TEXT
  8
3
 7
SIMPLEX
 10
44180.1719
 20
4076.18262
 40
260.339447
  1
3
 50
   0.000
  0
LINE
  8
3
 10
44505.5977
 20
4011.09766
 11
44505.5977
 21
4401.60693
  0
LINE
  8
3
 10
44115.0859
 20
4011.09766
 11
44115.0859
 21
4401.60693
  0
LINE
  8
3
 10
44115.0859
 20
4401.60693
 11
44505.5977
 21
4401.60693
  0
LINE
  8
3
 10
44505.5977
 20
4011.09766
 11
44115.0859
 21
4011.09766
  0
TEXT
  8
3
 7
SIMPLEX
 10
44180.1719
 20
3206.18237
 40
260.339447
  1
4
 50
   0.000
  0
LINE
  8
3
 10
44505.5977
 20
3141.09766
 11
44505.5977
 21
3531.60645
  0
LINE
  8
3
 10
44115.0859
 20
3141.09766
 11
44115.0859
 21
3531.60645
  0
LINE
  8
3
 10
44115.0859
 20
3531.60645
 11
44505.5977
 21
3531.60645
  0
LINE
  8
3
 10
44505.5977
 20
3141.09766
 11
44115.0859
 21
3141.09766
  0
TEXT
  8
3
 7
SIMPLEX
 10
40180.1680
 20
4130.16943
 40
260.339447
  1
5
 50
   0.000
  0
LINE
  8
3
 10
40505.5938
 20
4065.08472
 11
40505.5938
 21
4455.59375
  0
LINE
  8
3
 10
40115.0820
 20
4065.08472
 11
40115.0820
 21
4455.59375
  0
LINE
  8
3
 10
40115.0820
 20
4455.59375
 11
40505.5938
 21
4455.59375
  0
LINE
  8
3
 10
40505.5938
 20
4065.08472
 11
40115.0820
 21
4065.08472
  0
TEXT
  8
3
 7
SIMPLEX
 10
43659.4922
 20
4130.16943
 40
260.339447
  1
5
 50
   0.000
  0
LINE
  8
3
 10
43984.9180
 20
4065.08472
 11
43984.9180
 21
4455.59375
  0
LINE
  8
3
 10
43594.4063
 20
4065.08472
 11
43594.4063
 21
4455.59375
  0
LINE
  8
3
 10
43594.4063
 20
4455.59375
 11
43984.9180
 21
4455.59375
  0
LINE
  8
3
 10
43984.9180
 20
4065.08472
 11
43594.4063
 21
4065.08472
999
END:     AREA=Clips
999
START:   AREA=Strut Bolts
999
START:   AREA=Strut Bolts
999
START:   AREA=JackBeams
999
END:     AREA=JackBeams
999
START:   AREA=Draw Adjacent Surfaces
999
END:     AREA=Draw Adjacent Surfaces
999
START:   AREA=Dimensions
  0
TEXT
  8
11
 7
SIMPLEX
 10
7530.17041
 20
-4398.0015
 40
260.339447
  1
375
 50
   0.000
  0
LINE
  8
2
 10
7400.00000
 20
-4094.2715
 11
7400.00000
 21
-3833.9329
  0
LINE
  8
2
 10
7400.00000
 20
-3964.1021
 11
7775.00049
 21
-3964.1021
  0
TEXT
  8
11
 7
SIMPLEX
 10
6488.81201
 20
-3877.3225
 40
260.339447
  1
375
 50
   0.000
  0
LINE
  8
2
 10
7400.00000
 20
-4094.2715
 11
7400.00000
 21
-3833.9329
  0
LINE
  8
2
 10
7400.00000
 20
-3964.1021
 11
7024.99951
 21
-3964.1021
  0
TEXT
  8
11
 7
SIMPLEX
 10
15230.1699
 20
-4398.0015
 40
260.339447
  1
375
 50
   0.000
  0
LINE
  8
2
 10
15099.9980
 20
-4094.2715
 11
15099.9980
 21
-3833.9329
  0
LINE
  8
2
 10
15099.9980
 20
-3964.1021
 11
15474.9980
 21
-3964.1021
  0
TEXT
  8
11
 7
SIMPLEX
 10
14188.8115
 20
-3877.3225
 40
260.339447
  1
375
 50
   0.000
  0
LINE
  8
2
 10
15099.9980
 20
-4094.2715
 11
15099.9980
 21
-3833.9329
  0
LINE
  8
2
 10
15099.9980
 20
-3964.1021
 11
14724.9980
 21
-3964.1021
  0
TEXT
  8
11
 7
SIMPLEX
 10
22930.1699
 20
-4398.0015
 40
260.339447
  1
375
 50
   0.000
  0
LINE
  8
2
 10
22799.9980
 20
-4094.2715
 11
22799.9980
 21
-3833.9329
  0
LINE
  8
2
 10
22799.9980
 20
-3964.1021
 11
23175.0000
 21
-3964.1021
  0
TEXT
  8
11
 7
SIMPLEX
 10
21888.8105
 20
-3877.3225
 40
260.339447
  1
375
 50
   0.000
  0
LINE
  8
2
 10
22799.9980
 20
-4094.2715
 11
22799.9980
 21
-3833.9329
  0
LINE
  8
2
 10
22799.9980
 20
-3964.1021
 11
22424.9980
 21
-3964.1021
  0
TEXT
  8
11
 7
SIMPLEX
 10
30630.1660
 20
-4398.0015
 40
260.339447
  1
375
 50
   0.000
  0
LINE
  8
2
 10
30499.9961
 20
-4094.2715
 11
30499.9961
 21
-3833.9329
  0
LINE
  8
2
 10
30499.9961
 20
-3964.1021
 11
30874.9980
 21
-3964.1021
  0
TEXT
  8
11
 7
SIMPLEX
 10
29588.8105
 20
-3877.3225
 40
260.339447
  1
375
 50
   0.000
  0
LINE
  8
2
 10
30499.9961
 20
-4094.2715
 11
30499.9961
 21
-3833.9329
  0
LINE
  8
2
 10
30499.9961
 20
-3964.1021
 11
30124.9980
 21
-3964.1021
  0
TEXT
  8
11
 7
SIMPLEX
 10
38330.1680
 20
-4398.0015
 40
260.339447
  1
375
 50
   0.000
  0
LINE
  8
2
 10
38200.0000
 20
-4094.2715
 11
38200.0000
 21
-3833.9329
  0
LINE
  8
2
 10
38200.0000
 20
-3964.1021
 11
38575.0000
 21
-3964.1021
  0
TEXT
  8
11
 7
SIMPLEX
 10
37288.8125
 20
-3877.3225
 40
260.339447
  1
375
 50
   0.000
  0
LINE
  8
2
 10
38200.0000
 20
-4094.2715
 11
38200.0000
 21
-3833.9329
  0
LINE
  8
2
 10
38200.0000
 20
-3964.1021
 11
37825.0000
 21
-3964.1021
  0
TEXT
  8
11
 7
SIMPLEX
 10
46030.1680
 20
-4398.0015
 40
260.339447
  1
375
 50
   0.000
  0
LINE
  8
2
 10
45900.0000
 20
-4094.2715
 11
45900.0000
 21
-3833.9329
  0
LINE
  8
2
 10
45900.0000
 20
-3964.1021
 11
46275.0000
 21
-3964.1021
  0
TEXT
  8
11
 7
SIMPLEX
 10
44988.8125
 20
-3877.3225
 40
260.339447
  1
375
 50
   0.000
  0
LINE
  8
2
 10
45900.0000
 20
-4094.2715
 11
45900.0000
 21
-3833.9329
  0
LINE
  8
2
 10
45900.0000
 20
-3964.1021
 11
45525.0000
 21
-3964.1021
  0
TEXT
  8
11
 7
SIMPLEX
 10
53730.1680
 20
-4398.0015
 40
260.339447
  1
375
 50
   0.000
  0
LINE
  8
2
 10
53600.0000
 20
-4094.2715
 11
53600.0000
 21
-3833.9329
  0
LINE
  8
2
 10
53600.0000
 20
-3964.1021
 11
53975.0000
 21
-3964.1021
  0
TEXT
  8
11
 7
SIMPLEX
 10
52688.8125
 20
-3877.3225
 40
260.339447
  1
375
 50
   0.000
  0
LINE
  8
2
 10
53600.0000
 20
-4094.2715
 11
53600.0000
 21
-3833.9329
  0
LINE
  8
2
 10
53600.0000
 20
-3964.1021
 11
53225.0039
 21
-3964.1021
  0
TEXT
  8
2
 7
SIMPLEX
 10
-1388.4772
 20
-3877.3225
 40
347.119293
  1
GIRT
 50
   0.000
  0
TEXT
  8
2
 7
SIMPLEX
 10
-1388.4772
 20
-4398.0015
 40
347.119293
  1
LAPS
 50
   0.000
999
START:   AREA=Match Line
  0
LINE
  8
12
 10
0.00000000
 20
10216.6172
 11
0.00000000
 21
15423.4082
  0
LINE
  8
12
 10
61000.0078
 20
10216.6172
 11
61000.0078
 21
15423.4082
  0
LINE
  8
2
 10
0.00000000
 20
15076.2861
 11
61000.0078
 21
15076.2861
  0
INSERT
  8
2
  2
ARROW
 10
0.00000000
 20
15076.2861
 41
1.00000000
 42
1.00000000
 43
1.00000000
 50
 180.000
  0
INSERT
  8
2
  2
ARROW
 10
61000.0078
 20
15076.2861
 41
1.00000000
 42
1.00000000
 43
1.00000000
 50
   0.000
  0
LINE
  8
2
 10
0.00000000
 20
12993.5723
 11
61000.0078
 21
12993.5723
  0
LINE
  8
12
 10
7400.00000
 20
10216.6172
 11
7400.00000
 21
13687.8096
  0
LINE
  8
12
 10
15099.9980
 20
10216.6172
 11
15099.9980
 21
13687.8096
  0
LINE
  8
12
 10
22799.9980
 20
10216.6172
 11
22799.9980
 21
13687.8096
  0
LINE
  8
12
 10
30499.9961
 20
10216.6172
 11
30499.9961
 21
13687.8096
  0
LINE
  8
12
 10
38200.0000
 20
10216.6172
 11
38200.0000
 21
13687.8096
  0
LINE
  8
12
 10
45900.0000
 20
10216.6172
 11
45900.0000
 21
13687.8096
  0
LINE
  8
12
 10
53600.0000
 20
10216.6172
 11
53600.0000
 21
13687.8096
  0
INSERT
  8
2
  2
ARROW
 10
0.00000000
 20
12993.5723
 41
1.00000000
 42
1.00000000
 43
1.00000000
 50
 180.000
  0
INSERT
  8
2
  2
ARROW
 10
7400.00000
 20
12993.5723
 41
1.00000000
 42
1.00000000
 43
1.00000000
 50
   0.000
  0
INSERT
  8
2
  2
ARROW
 10
7400.00000
 20
12993.5723
 41
1.00000000
 42
1.00000000
 43
1.00000000
 50
 180.000
  0
INSERT
  8
2
  2
ARROW
 10
15099.9980
 20
12993.5723
 41
1.00000000
 42
1.00000000
 43
1.00000000
 50
   0.000
  0
INSERT
  8
2
  2
ARROW
 10
15099.9980
 20
12993.5723
 41
1.00000000
 42
1.00000000
 43
1.00000000
 50
 180.000
  0
INSERT
  8
2
  2
ARROW
 10
22799.9980
 20
12993.5723
 41
1.00000000
 42
1.00000000
 43
1.00000000
 50
   0.000
  0
INSERT
  8
2
  2
ARROW
 10
22799.9980
 20
12993.5723
 41
1.00000000
 42
1.00000000
 43
1.00000000
 50
 180.000
  0
INSERT
  8
2
  2
ARROW
 10
30499.9961
 20
12993.5723
 41
1.00000000
 42
1.00000000
 43
1.00000000
 50
   0.000
  0
INSERT
  8
2
  2
ARROW
 10
30499.9961
 20
12993.5723
 41
1.00000000
 42
1.00000000
 43
1.00000000
 50
 180.000
  0
INSERT
  8
2
  2
ARROW
 10
38200.0000
 20
12993.5723
 41
1.00000000
 42
1.00000000
 43
1.00000000
 50
   0.000
  0
INSERT
  8
2
  2
ARROW
 10
38200.0000
 20
12993.5723
 41
1.00000000
 42
1.00000000
 43
1.00000000
 50
 180.000
  0
INSERT
  8
2
  2
ARROW
 10
45900.0000
 20
12993.5723
 41
1.00000000
 42
1.00000000
 43
1.00000000
 50
   0.000
  0
INSERT
  8
2
  2
ARROW
 10
45900.0000
 20
12993.5723
 41
1.00000000
 42
1.00000000
 43
1.00000000
 50
 180.000
  0
INSERT
  8
2
  2
ARROW
 10
53600.0000
 20
12993.5723
 41
1.00000000
 42
1.00000000
 43
1.00000000
 50
   0.000
  0
INSERT
  8
2
  2
ARROW
 10
53600.0000
 20
12993.5723
 41
1.00000000
 42
1.00000000
 43
1.00000000
 50
 180.000
  0
INSERT
  8
2
  2
ARROW
 10
61000.0078
 20
12993.5723
 41
1.00000000
 42
1.00000000
 43
1.00000000
 50
   0.000
  0
TEXT
  8
11
 7
SIMPLEX
 10
3005.76172
 20
13109.2783
 40
347.119293
  1
7400
 50
   0.000
  0
TEXT
  8
11
 7
SIMPLEX
 10
10555.7607
 20
13109.2783
 40
347.119293
  1
7700
 50
   0.000
  0
TEXT
  8
11
 7
SIMPLEX
 10
18255.7598
 20
13109.2783
 40
347.119293
  1
7700
 50
   0.000
  0
TEXT
  8
11
 7
SIMPLEX
 10
25955.7598
 20
13109.2783
 40
347.119293
  1
7700
 50
   0.000
  0
TEXT
  8
11
 7
SIMPLEX
 10
33655.7578
 20
13109.2783
 40
347.119293
  1
7700
 50
   0.000
  0
TEXT
  8
11
 7
SIMPLEX
 10
41355.7617
 20
13109.2783
 40
347.119293
  1
7700
 50
   0.000
  0
TEXT
  8
11
 7
SIMPLEX
 10
49055.7617
 20
13109.2783
 40
347.119293
  1
7700
 50
   0.000
  0
TEXT
  8
11
 7
SIMPLEX
 10
56605.7656
 20
13109.2783
 40
347.119293
  1
7400
 50
   0.000
  0
CIRCLE
  8
13
 10
0.00000000
 20
15839.9502
 40
416.543121
  0
TEXT
  8
13
 7
SIMPLEX
 10
-187.44443
 20
15652.5068
 40
374.888824
  1
A
 72
           1
 11
0.00000000
 21
15652.5068
 50
   0.000
  0
CIRCLE
  8
13
 10
61000.0078
 20
15839.9502
 40
416.543121
  0
TEXT
  8
13
 7
SIMPLEX
 10
60906.2773
 20
15652.5068
 40
374.888824
  1
I
 72
           1
 11
61000.0078
 21
15652.5068
 50
   0.000
  0
CIRCLE
  8
13
 10
7400.00000
 20
14104.3516
 40
416.543121
  0
TEXT
  8
13
 7
SIMPLEX
 10
7212.55566
 20
13916.9092
 40
374.888824
  1
B
 72
           1
 11
7400.00000
 21
13916.9092
 50
   0.000
  0
CIRCLE
  8
13
 10
15099.9980
 20
14104.3516
 40
416.543121
  0
TEXT
  8
13
 7
SIMPLEX
 10
14912.5557
 20
13916.9092
 40
374.888824
  1
C
 72
           1
 11
15099.9980
 21
13916.9092
 50
   0.000
  0
CIRCLE
  8
13
 10
22799.9980
 20
14104.3516
 40
416.543121
  0
TEXT
  8
13
 7
SIMPLEX
 10
22612.5547
 20
13916.9092
 40
374.888824
  1
D
 72
           1
 11
22799.9980
 21
13916.9092
 50
   0.000
  0
CIRCLE
  8
13
 10
30499.9961
 20
14104.3516
 40
416.543121
  0
TEXT
  8
13
 7
SIMPLEX
 10
30312.5527
 20
13916.9092
 40
374.888824
  1
E
 72
           1
 11
30499.9961
 21
13916.9092
 50
   0.000
  0
CIRCLE
  8
13
 10
38200.0000
 20
14104.3516
 40
416.543121
  0
TEXT
  8
13
 7
SIMPLEX
 10
38012.5547
 20
13916.9092
 40
374.888824
  1
F
 72
           1
 11
38200.0000
 21
13916.9092
 50
   0.000
  0
CIRCLE
  8
13
 10
45900.0000
 20
14104.3516
 40
416.543121
  0
TEXT
  8
13
 7
SIMPLEX
 10
45712.5547
 20
13916.9092
 40
374.888824
  1
G
 72
           1
 11
45900.0000
 21
13916.9092
 50
   0.000
  0
CIRCLE
  8
13
 10
53600.0000
 20
14104.3516
 40
416.543121
  0
TEXT
  8
13
 7
SIMPLEX
 10
53412.5586
 20
13916.9092
 40
374.888824
  1
H
 72
           1
 11
53600.0000
 21
13916.9092
 50
   0.000
  0
TEXT
  8
11
 7
SIMPLEX
 10
26386.6367
 20
15242.9053
 40
347.119293
  1
61000
 50
   0.000
  0
TEXT
  8
15
 7
SIMPLEX
 10
28000.7422
 20
15242.9053
 40
347.119293
  1
 OUT-TO-OUT OF STEEL
 50
   0.000
  0
TEXT
  8
15
 7
SIMPLEX
 10
23002.2246
 20
-5647.6309
 40
555.390869
  1
ENDWALL FRAMING: FRAME LINE 7
 72
           1
 11
30500.0039
 21
-5647.6309
 50
   0.000
  0
LINE
  8
2
 10
-4096.2021
 20
11743.9424
 11
-2965.8940
 21
12396.5283
  0
LINE
  8
2
 10
-3951.9077
 20
11827.2520
 11
-3110.1887
 21
11827.2520
  0
LINE
  8
2
 10
-3110.1887
 20
12313.2197
 11
-3110.1887
 21
11827.2520
  0
TEXT
  8
11
 7
SIMPLEX
 10
-2936.6292
 20
11827.2520
 40
347.119293
  1
10.0
 50
   0.000
  0
TEXT
  8
11
 7
SIMPLEX
 10
-3704.6077
 20
11306.5723
 40
347.119293
  1
100
 50
   0.000
  0
LINE
  8
2
 10
65096.2031
 20
11743.9424
 11
63965.9023
 21
12396.5283
  0
LINE
  8
2
 10
64951.9102
 20
11827.2520
 11
64110.1953
 21
11827.2520
  0
LINE
  8
2
 10
64110.1953
 20
12313.2197
 11
64110.1953
 21
11827.2520
  0
TEXT
  8
11
 7
SIMPLEX
 10
62721.7148
 20
11827.2520
 40
347.119293
  1
10.0
 50
   0.000
  0
TEXT
  8
11
 7
SIMPLEX
 10
64357.4961
 20
11306.5723
 40
347.119293
  1
100
 50
   0.000
  0
LINE
  8
12
 10
-583.16040
 20
0.00000000
 11
-3110.1887
 21
0.00000000
  0
LINE
  8
12
 10
-583.16040
 20
3680.00024
 11
-3110.1887
 21
3680.00024
  0
LINE
  8
12
 10
-583.16040
 20
4550.00000
 11
-3110.1887
 21
4550.00000
  0
LINE
  8
12
 10
-583.16040
 20
5180.00000
 11
-3110.1887
 21
5180.00000
  0
LINE
  8
12
 10
-583.16040
 20
6680.00000
 11
-3110.1887
 21
6680.00000
  0
LINE
  8
12
 10
-583.16040
 20
8180.00000
 11
-3110.1887
 21
8180.00000
  0
LINE
  8
12
 10
-2943.5715
 20
0.00000000
 11
-2943.5715
 21
0.00000000
  0
LINE
  8
12
 10
-2943.5713
 20
3680.00024
 11
-2943.5713
 21
3680.00024
  0
LINE
  8
2
 10
-2943.5715
 20
0.00000000
 11
-2943.5713
 21
3680.00024
  0
INSERT
  8
2
  2
ARROW
 10
-2943.5715
 20
0.00000000
 41
1.00000000
 42
1.00000000
 43
1.00000000
 50
 270.000
  0
INSERT
  8
2
  2
ARROW
 10
-2943.5713
 20
3680.00024
 41
1.00000000
 42
1.00000000
 43
1.00000000
 50
  90.000
  0
TEXT
  8
11
 7
SIMPLEX
 10
-3059.2778
 20
1145.76147
 40
347.119293
  1
3680
 50
  90.000
  0
LINE
  8
12
 10
-2943.5715
 20
3680.00024
 11
-2943.5715
 21
3680.00024
  0
LINE
  8
12
 10
-2943.5715
 20
4550.00000
 11
-2943.5715
 21
4550.00000
  0
LINE
  8
2
 10
-2943.5715
 20
3680.00024
 11
-2943.5715
 21
4550.00000
  0
INSERT
  8
2
  2
ARROW
 10
-2943.5715
 20
3680.00024
 41
1.00000000
 42
1.00000000
 43
1.00000000
 50
 270.000
  0
INSERT
  8
2
  2
ARROW
 10
-2943.5715
 20
4550.00000
 41
1.00000000
 42
1.00000000
 43
1.00000000
 50
  90.000
  0
TEXT
  8
11
 7
SIMPLEX
 10
-2827.8650
 20
3941.44043
 40
347.119293
  1
870
 50
   0.000
  0
LINE
  8
12
 10
-2943.5715
 20
4550.00000
 11
-2943.5715
 21
4550.00000
  0
LINE
  8
12
 10
-2943.5715
 20
5180.00000
 11
-2943.5715
 21
5180.00000
  0
LINE
  8
2
 10
-2943.5715
 20
4550.00000
 11
-2943.5715
 21
5180.00000
  0
INSERT
  8
2
  2
ARROW
 10
-2943.5715
 20
4550.00000
 41
1.00000000
 42
1.00000000
 43
1.00000000
 50
 270.000
  0
INSERT
  8
2
  2
ARROW
 10
-2943.5715
 20
5180.00000
 41
1.00000000
 42
1.00000000
 43
1.00000000
 50
  90.000
  0
TEXT
  8
11
 7
SIMPLEX
 10
-2827.8650
 20
4691.44043
 40
347.119293
  1
630
 50
   0.000
  0
LINE
  8
12
 10
-2943.5715
 20
5180.00000
 11
-2943.5715
 21
5180.00000
  0
LINE
  8
12
 10
-2943.5713
 20
6680.00000
 11
-2943.5713
 21
6680.00000
  0
LINE
  8
2
 10
-2943.5715
 20
5180.00000
 11
-2943.5713
 21
6680.00000
  0
INSERT
  8
2
  2
ARROW
 10
-2943.5715
 20
5180.00000
 41
1.00000000
 42
1.00000000
 43
1.00000000
 50
 270.000
  0
INSERT
  8
2
  2
ARROW
 10
-2943.5713
 20
6680.00000
 41
1.00000000
 42
1.00000000
 43
1.00000000
 50
  90.000
  0
TEXT
  8
11
 7
SIMPLEX
 10
-3059.2778
 20
5296.50732
 40
347.119293
  1
1500
 50
  90.000
  0
LINE
  8
12
 10
-2943.5715
 20
6680.00000
 11
-2943.5715
 21
6680.00000
  0
LINE
  8
12
 10
-2943.5713
 20
8180.00000
 11
-2943.5713
 21
8180.00000
  0
LINE
  8
2
 10
-2943.5715
 20
6680.00000
 11
-2943.5713
 21
8180.00000
  0
INSERT
  8
2
  2
ARROW
 10
-2943.5715
 20
6680.00000
 41
1.00000000
 42
1.00000000
 43
1.00000000
 50
 270.000
  0
INSERT
  8
2
  2
ARROW
 10
-2943.5713
 20
8180.00000
 41
1.00000000
 42
1.00000000
 43
1.00000000
 50
  90.000
  0
TEXT
  8
11
 7
SIMPLEX
 10
-3059.2778
 20
6796.50732
 40
347.119293
  1
1500
 50
  90.000
999
START:   AREA=Eave Dimension
  0
LINE
  8
12
 10
-3110.1887
 20
0.00000000
 11
-4498.6660
 21
0.00000000
  0
LINE
  8
12
 10
-3110.1887
 20
6999.99951
 11
-4498.6660
 21
6999.99951
  0
LINE
  8
2
 10
-4332.0488
 20
0.00000000
 11
-4332.0488
 21
6999.99951
  0
INSERT
  8
2
  2
ARROW
 10
-4332.0488
 20
0.00000000
 41
1.00000000
 42
1.00000000
 43
1.00000000
 50
 270.000
  0
INSERT
  8
2
  2
ARROW
 10
-4332.0488
 20
6999.99951
 41
1.00000000
 42
1.00000000
 43
1.00000000
 50
  90.000
  0
TEXT
  8
11
 7
SIMPLEX
 10
-4447.7549
 20
2805.76123
 40
347.119293
  1
7000
 50
  90.000
999
END:     AREA=Eave Dimension
999
START:   AREA=Draw Canopy Dimension
  0
LINE
  8
12
 10
29111.5195
 20
0.00000000
 11
28764.4023
 21
0.00000000
  0
LINE
  8
12
 10
29111.5195
 20
4500.00000
 11
28764.4023
 21
4500.00000
  0
LINE
  8
2
 10
28937.9609
 20
0.00000000
 11
28937.9609
 21
4500.00000
  0
INSERT
  8
2
  2
ARROW
 10
28937.9609
 20
0.00000000
 41
1.00000000
 42
1.00000000
 43
1.00000000
 50
 270.000
  0
INSERT
  8
2
  2
ARROW
 10
28937.9609
 20
4500.00000
 41
1.00000000
 42
1.00000000
 43
1.00000000
 50
  90.000
  0
TEXT
  8
11
 7
SIMPLEX
 10
28822.2559
 20
1555.76123
 40
347.119293
  1
4500
 50
  90.000
999
END:     AREA=Draw Canopy Dimension
999
START:   AREA=Draw Floor and Extension Strut Dimensions
999
END:     AREA=Draw Floor and Extension Strut Dimensions
  0
LINE
  8
2
 10
19618.0000
 20
0.00000000
 11
19618.0000
 21
4000.00000
  0
INSERT
  8
2
  2
ARROW
 10
19618.0000
 20
0.00000000
 41
1.00000000
 42
1.00000000
 43
1.00000000
 50
 270.000
  0
INSERT
  8
2
  2
ARROW
 10
19618.0000
 20
4000.00000
 41
1.00000000
 42
1.00000000
 43
1.00000000
 50
  90.000
  0
TEXT
  8
11
 7
SIMPLEX
 10
19502.2930
 20
1305.76135
 40
347.119293
  1
4000
 50
  90.000
  0
LINE
  8
2
 10
15099.9980
 20
-1280.8702
 11
15099.9980
 21
-2835.9646
  0
LINE
  8
2
 10
16950.0000
 20
-1280.8702
 11
16950.0000
 21
-2835.9646
  0
LINE
  8
2
 10
15099.9980
 20
-2669.3474
 11
16950.0000
 21
-2669.3474
  0
INSERT
  8
2
  2
ARROW
 10
15099.9980
 20
-2669.3474
 41
1.00000000
 42
1.00000000
 43
1.00000000
 50
 180.000
  0
INSERT
  8
2
  2
ARROW
 10
16950.0000
 20
-2669.3474
 41
1.00000000
 42
1.00000000
 43
1.00000000
 50
   0.000
  0
LINE
  8
2
 10
16950.0000
 20
-1280.8702
 11
16950.0000
 21
-2835.9646
  0
LINE
  8
2
 10
20949.9980
 20
-1280.8702
 11
20949.9980
 21
-2835.9646
  0
LINE
  8
2
 10
16950.0000
 20
-2669.3474
 11
20949.9980
 21
-2669.3474
  0
INSERT
  8
2
  2
ARROW
 10
16950.0000
 20
-2669.3474
 41
1.00000000
 42
1.00000000
 43
1.00000000
 50
 180.000
  0
INSERT
  8
2
  2
ARROW
 10
20949.9980
 20
-2669.3474
 41
1.00000000
 42
1.00000000
 43
1.00000000
 50
   0.000
  0
LINE
  8
2
 10
20949.9980
 20
-1280.8702
 11
20949.9980
 21
-2835.9646
  0
LINE
  8
2
 10
22799.9980
 20
-1280.8702
 11
22799.9980
 21
-2835.9646
  0
LINE
  8
2
 10
20949.9980
 20
-2669.3474
 11
22799.9980
 21
-2669.3474
  0
INSERT
  8
2
  2
ARROW
 10
20949.9980
 20
-2669.3474
 41
1.00000000
 42
1.00000000
 43
1.00000000
 50
 180.000
  0
INSERT
  8
2
  2
ARROW
 10
22799.9980
 20
-2669.3474
 41
1.00000000
 42
1.00000000
 43
1.00000000
 50
   0.000
  0
TEXT
  8
11
 7
SIMPLEX
 10
15391.5068
 20
-2553.6409
 40
347.119293
  1
1850
 50
   0.000
  0
TEXT
  8
11
 7
SIMPLEX
 10
18255.7598
 20
-2553.6409
 40
347.119293
  1
4000
 50
   0.000
  0
TEXT
  8
11
 7
SIMPLEX
 10
21241.5059
 20
-2553.6409
 40
347.119293
  1
1850
 50
   0.000
  0
LINE
  8
2
 10
27317.9961
 20
0.00000000
 11
27317.9961
 21
4000.00000
  0
INSERT
  8
2
  2
ARROW
 10
27317.9961
 20
0.00000000
 41
1.00000000
 42
1.00000000
 43
1.00000000
 50
 270.000
  0
INSERT
  8
2
  2
ARROW
 10
27317.9961
 20
4000.00000
 41
1.00000000
 42
1.00000000
 43
1.00000000
 50
  90.000
  0
TEXT
  8
11
 7
SIMPLEX
 10
27202.2871
 20
1305.76135
 40
347.119293
  1
4000
 50
  90.000
  0
LINE
  8
2
 10
22799.9980
 20
-1280.8702
 11
22799.9980
 21
-2835.9646
  0
LINE
  8
2
 10
24649.9980
 20
-1280.8702
 11
24649.9980
 21
-2835.9646
  0
LINE
  8
2
 10
22799.9980
 20
-2669.3474
 11
24649.9980
 21
-2669.3474
  0
INSERT
  8
2
  2
ARROW
 10
22799.9980
 20
-2669.3474
 41
1.00000000
 42
1.00000000
 43
1.00000000
 50
 180.000
  0
INSERT
  8
2
  2
ARROW
 10
24649.9980
 20
-2669.3474
 41
1.00000000
 42
1.00000000
 43
1.00000000
 50
   0.000
  0
LINE
  8
2
 10
24649.9980
 20
-1280.8702
 11
24649.9980
 21
-2835.9646
  0
LINE
  8
2
 10
28650.0000
 20
-1280.8702
 11
28650.0000
 21
-2835.9646
  0
LINE
  8
2
 10
24649.9980
 20
-2669.3474
 11
28650.0000
 21
-2669.3474
  0
INSERT
  8
2
  2
ARROW
 10
24649.9980
 20
-2669.3474
 41
1.00000000
 42
1.00000000
 43
1.00000000
 50
 180.000
  0
INSERT
  8
2
  2
ARROW
 10
28650.0000
 20
-2669.3474
 41
1.00000000
 42
1.00000000
 43
1.00000000
 50
   0.000
  0
LINE
  8
2
 10
28650.0000
 20
-1280.8702
 11
28650.0000
 21
-2835.9646
  0
LINE
  8
2
 10
30499.9961
 20
-1280.8702
 11
30499.9961
 21
-2835.9646
  0
LINE
  8
2
 10
28650.0000
 20
-2669.3474
 11
30499.9961
 21
-2669.3474
  0
INSERT
  8
2
  2
ARROW
 10
28650.0000
 20
-2669.3474
 41
1.00000000
 42
1.00000000
 43
1.00000000
 50
 180.000
  0
INSERT
  8
2
  2
ARROW
 10
30499.9961
 20
-2669.3474
 41
1.00000000
 42
1.00000000
 43
1.00000000
 50
   0.000
  0
TEXT
  8
11
 7
SIMPLEX
 10
23091.5059
 20
-2553.6409
 40
347.119293
  1
1850
 50
   0.000
  0
TEXT
  8
11
 7
SIMPLEX
 10
25955.7617
 20
-2553.6409
 40
347.119293
  1
4000
 50
   0.000
  0
TEXT
  8
11
 7
SIMPLEX
 10
28941.5078
 20
-2553.6409
 40
347.119293
  1
1850
 50
   0.000
  0
LINE
  8
2
 10
35018.0000
 20
0.00000000
 11
35018.0000
 21
4000.00000
  0
INSERT
  8
2
  2
ARROW
 10
35018.0000
 20
0.00000000
 41
1.00000000
 42
1.00000000
 43
1.00000000
 50
 270.000
  0
INSERT
  8
2
  2
ARROW
 10
35018.0000
 20
4000.00000
 41
1.00000000
 42
1.00000000
 43
1.00000000
 50
  90.000
  0
TEXT
  8
11
 7
SIMPLEX
 10
34902.2891
 20
1305.76135
 40
347.119293
  1
4000
 50
  90.000
  0
LINE
  8
2
 10
30499.9961
 20
-1280.8702
 11
30499.9961
 21
-2835.9646
  0
LINE
  8
2
 10
32349.9961
 20
-1280.8702
 11
32349.9961
 21
-2835.9646
  0
LINE
  8
2
 10
30499.9961
 20
-2669.3474
 11
32349.9961
 21
-2669.3474
  0
INSERT
  8
2
  2
ARROW
 10
30499.9961
 20
-2669.3474
 41
1.00000000
 42
1.00000000
 43
1.00000000
 50
 180.000
  0
INSERT
  8
2
  2
ARROW
 10
32349.9961
 20
-2669.3474
 41
1.00000000
 42
1.00000000
 43
1.00000000
 50
   0.000
  0
LINE
  8
2
 10
32349.9961
 20
-1280.8702
 11
32349.9961
 21
-2835.9646
  0
LINE
  8
2
 10
36349.9961
 20
-1280.8702
 11
36349.9961
 21
-2835.9646
  0
LINE
  8
2
 10
32349.9961
 20
-2669.3474
 11
36349.9961
 21
-2669.3474
  0
INSERT
  8
2
  2
ARROW
 10
32349.9961
 20
-2669.3474
 41
1.00000000
 42
1.00000000
 43
1.00000000
 50
 180.000
  0
INSERT
  8
2
  2
ARROW
 10
36349.9961
 20
-2669.3474
 41
1.00000000
 42
1.00000000
 43
1.00000000
 50
   0.000
  0
LINE
  8
2
 10
36349.9961
 20
-1280.8702
 11
36349.9961
 21
-2835.9646
  0
LINE
  8
2
 10
38200.0000
 20
-1280.8702
 11
38200.0000
 21
-2835.9646
  0
LINE
  8
2
 10
36349.9961
 20
-2669.3474
 11
38200.0000
 21
-2669.3474
  0
INSERT
  8
2
  2
ARROW
 10
36349.9961
 20
-2669.3474
 41
1.00000000
 42
1.00000000
 43
1.00000000
 50
 180.000
  0
INSERT
  8
2
  2
ARROW
 10
38200.0000
 20
-2669.3474
 41
1.00000000
 42
1.00000000
 43
1.00000000
 50
   0.000
  0
TEXT
  8
11
 7
SIMPLEX
 10
30791.5078
 20
-2553.6409
 40
347.119293
  1
1850
 50
   0.000
  0
TEXT
  8
11
 7
SIMPLEX
 10
33655.7578
 20
-2553.6409
 40
347.119293
  1
4000
 50
   0.000
  0
TEXT
  8
11
 7
SIMPLEX
 10
36641.5039
 20
-2553.6409
 40
347.119293
  1
1850
 50
   0.000
  0
LINE
  8
2
 10
42718.0000
 20
0.00000000
 11
42718.0000
 21
4000.00000
  0
INSERT
  8
2
  2
ARROW
 10
42718.0000
 20
0.00000000
 41
1.00000000
 42
1.00000000
 43
1.00000000
 50
 270.000
  0
INSERT
  8
2
  2
ARROW
 10
42718.0000
 20
4000.00000
 41
1.00000000
 42
1.00000000
 43
1.00000000
 50
  90.000
  0
TEXT
  8
11
 7
SIMPLEX
 10
42602.2930
 20
1305.76135
 40
347.119293
  1
4000
 50
  90.000
  0
LINE
  8
2
 10
38200.0000
 20
-1280.8702
 11
38200.0000
 21
-2835.9646
  0
LINE
  8
2
 10
40050.0000
 20
-1280.8702
 11
40050.0000
 21
-2835.9646
  0
LINE
  8
2
 10
38200.0000
 20
-2669.3474
 11
40050.0000
 21
-2669.3474
  0
INSERT
  8
2
  2
ARROW
 10
38200.0000
 20
-2669.3474
 41
1.00000000
 42
1.00000000
 43
1.00000000
 50
 180.000
  0
INSERT
  8
2
  2
ARROW
 10
40050.0000
 20
-2669.3474
 41
1.00000000
 42
1.00000000
 43
1.00000000
 50
   0.000
  0
LINE
  8
2
 10
40050.0000
 20
-1280.8702
 11
40050.0000
 21
-2835.9646
  0
LINE
  8
2
 10
44050.0000
 20
-1280.8702
 11
44050.0000
 21
-2835.9646
  0
LINE
  8
2
 10
40050.0000
 20
-2669.3474
 11
44050.0000
 21
-2669.3474
  0
INSERT
  8
2
  2
ARROW
 10
40050.0000
 20
-2669.3474
 41
1.00000000
 42
1.00000000
 43
1.00000000
 50
 180.000
  0
INSERT
  8
2
  2
ARROW
 10
44050.0000
 20
-2669.3474
 41
1.00000000
 42
1.00000000
 43
1.00000000
 50
   0.000
  0
LINE
  8
2
 10
44050.0000
 20
-1280.8702
 11
44050.0000
 21
-2835.9646
  0
LINE
  8
2
 10
45900.0000
 20
-1280.8702
 11
45900.0000
 21
-2835.9646
  0
LINE
  8
2
 10
44050.0000
 20
-2669.3474
 11
45900.0000
 21
-2669.3474
  0
INSERT
  8
2
  2
ARROW
 10
44050.0000
 20
-2669.3474
 41
1.00000000
 42
1.00000000
 43
1.00000000
 50
 180.000
  0
INSERT
  8
2
  2
ARROW
 10
45900.0000
 20
-2669.3474
 41
1.00000000
 42
1.00000000
 43
1.00000000
 50
   0.000
  0
TEXT
  8
11
 7
SIMPLEX
 10
38491.5078
 20
-2553.6409
 40
347.119293
  1
1850
 50
   0.000
  0
TEXT
  8
11
 7
SIMPLEX
 10
41355.7617
 20
-2553.6409
 40
347.119293
  1
4000
 50
   0.000
  0
TEXT
  8
11
 7
SIMPLEX
 10
44341.5078
 20
-2553.6409
 40
347.119293
  1
1850
 50
   0.000
  0
LINE
  8
2
 10
2466.66675
 20
0.00000000
 11
2466.66675
 21
3600.00000
  0
INSERT
  8
2
  2
ARROW
 10
2466.66675
 20
0.00000000
 41
1.00000000
 42
1.00000000
 43
1.00000000
 50
 270.000
  0
INSERT
  8
2
  2
ARROW
 10
2466.66675
 20
3600.00000
 41
1.00000000
 42
1.00000000
 43
1.00000000
 50
  90.000
  0
TEXT
  8
11
 7
SIMPLEX
 10
2350.96021
 20
1105.76135
 40
347.119293
  1
3600
 50
  90.000
999
END:     AREA=Dimensions
999
START:   AREA=Details
  0
INSERT
  8
7
  2
CUTSEC
 10
20530.7422
 20
9053.07422
 41
1.50000000
 42
-1.0000000
 43
-1.0000000
 50
 -84.289
  0
CIRCLE
  8
7
 10
20410.5137
 20
10255.0518
 40
333.234497
  0
TEXT
  8
7
 7
SIMPLEX
 10
20127.9316
 20
10148.4160
 40
213.270065
  1
A10
 72
           1
 11
20410.5137
 21
10255.0518
 73
           2
 50
   0.000
  0
CIRCLE
  8
7
 10
53600.0000
 20
6745.19531
 40
138.847717
  0
LINE
  8
7
 10
53647.4922
 20
6875.66846
 11
54046.4180
 21
7971.64355
  0
CIRCLE
  8
7
 10
54160.3984
 20
8284.77930
 40
333.234497
  0
TEXT
  8
7
 7
SIMPLEX
 10
53877.8125
 20
8178.14404
 40
213.270065
  1
B19
 72
           1
 11
54160.3984
 21
8284.77930
 73
           2
 50
   0.000
  0
INSERT
  8
7
  2
CUTSEC
 10
7400.00000
 20
4360.02148
 41
1.00000000
 42
-1.0000000
 43
-1.0000000
 50
   0.000
  0
CIRCLE
  8
7
 10
6483.60596
 20
4360.02148
 40
333.234497
  0
TEXT
  8
7
 7
SIMPLEX
 10
6201.02295
 20
4253.38623
 40
213.270065
  1
C12
 72
           1
 11
6483.60596
 21
4360.02148
 73
           2
 50
   0.000
  0
INSERT
  8
7
  2
CUTSEC
 10
15099.9980
 20
5230.02148
 41
1.00000000
 42
-1.0000000
 43
-1.0000000
 50
   0.000
  0
CIRCLE
  8
7
 10
14183.6035
 20
5230.02148
 40
333.234497
  0
TEXT
  8
7
 7
SIMPLEX
 10
13863.6992
 20
5123.38623
 40
213.270065
  1
C72
 72
           1
 11
14183.6035
 21
5230.02148
 73
           2
 50
   0.000
  0
INSERT
  8
7
  2
CUTSEC
 10
149.999970
 20
4360.02148
 41
-1.0000000
 42
-1.0000000
 43
-1.0000000
 50
   0.000
  0
CIRCLE
  8
7
 10
1066.39478
 20
4360.02148
 40
333.234497
  0
TEXT
  8
7
 7
SIMPLEX
 10
746.489685
 20
4253.38623
 40
213.270065
  1
D77
 72
           1
 11
1066.39478
 21
4360.02148
 73
           2
 50
   0.000
  0
INSERT
  8
7
  2
CUTSEC
 10
149.999939
 20
7360.02100
 41
-1.0000000
 42
-1.0000000
 43
-1.0000000
 50
   0.000
  0
CIRCLE
  8
7
 10
1066.39478
 20
7360.02100
 40
333.234497
  0
TEXT
  8
7
 7
SIMPLEX
 10
746.489685
 20
7253.38574
 40
213.270065
  1
D27
 72
           1
 11
1066.39478
 21
7360.02100
 73
           2
 50
   0.000
  0
INSERT
  8
7
  2
CUTSEC
 10
60850.0039
 20
4360.02148
 41
1.00000000
 42
-1.0000000
 43
-1.0000000
 50
   0.000
  0
CIRCLE
  8
7
 10
59933.6055
 20
4360.02148
 40
333.234497
  0
TEXT
  8
7
 7
SIMPLEX
 10
59613.7031
 20
4253.38623
 40
213.270065
  1
D77
 72
           1
 11
59933.6055
 21
4360.02148
 73
           2
 50
   0.000
  0
INSERT
  8
7
  2
CUTSEC
 10
60850.0039
 20
7360.02100
 41
1.00000000
 42
-1.0000000
 43
-1.0000000
 50
   0.000
  0
CIRCLE
  8
7
 10
59933.6055
 20
7360.02100
 40
333.234497
  0
TEXT
  8
7
 7
SIMPLEX
 10
59613.7031
 20
7253.38574
 40
213.270065
  1
D27
 72
           1
 11
59933.6055
 21
7360.02100
 73
           2
 50
   0.000
  0
INSERT
  8
7
  2
CUTSEC
 10
20949.9980
 20
527.621338
 41
1.00000000
 42
-1.0000000
 43
-1.0000000
 50
   0.000
  0
CIRCLE
  8
7
 10
20033.6035
 20
527.621338
 40
333.234497
  0
TEXT
  8
7
 7
SIMPLEX
 10
19767.0156
 20
394.327515
 40
266.587585
  1
E6
 72
           1
 11
20033.6035
 21
527.621338
 73
           2
 50
   0.000
  0
INSERT
  8
7
  2
CUTSEC
 10
7400.00000
 20
680.021301
 41
1.00000000
 42
-1.0000000
 43
-1.0000000
 50
   0.000
  0
CIRCLE
  8
7
 10
6483.60596
 20
680.021301
 40
333.234497
  0
TEXT
  8
7
 7
SIMPLEX
 10
6217.01758
 20
546.727539
 40
266.587585
  1
E3
 72
           1
 11
6483.60596
 21
680.021301
 73
           2
 50
   0.000
  0
INSERT
  8
7
  2
CUTSEC
 10
16950.0000
 20
3791.40332
 41
-1.0000000
 42
-1.0000000
 43
-1.0000000
 50
   0.000
  0
CIRCLE
  8
7
 10
17866.3945
 20
3791.40332
 40
333.234497
  0
TEXT
  8
7
 7
SIMPLEX
 10
17599.8066
 20
3658.10986
 40
266.587585
  1
K2
 72
           1
 11
17866.3945
 21
3791.40332
 73
           2
 50
   0.000
  0
CIRCLE
  8
7
 10
16950.0000
 20
4466.69141
 40
138.847717
  0
LINE
  8
7
 10
17039.2520
 20
4573.05371
 11
17342.7031
 21
4934.68555
  0
CIRCLE
  8
7
 10
17556.9063
 20
5189.95508
 40
333.234497
  0
TEXT
  8
7
 7
SIMPLEX
 10
17290.3184
 20
5056.66113
 40
266.587585
  1
L6
 72
           1
 11
17556.9063
 21
5189.95508
 73
           2
 50
   0.000
  0
CIRCLE
  8
7
 10
20949.9980
 20
4000.00000
 40
138.847717
  0
LINE
  8
7
 10
20860.7520
 20
4106.36670
 11
20557.3184
 21
4468.01465
  0
CIRCLE
  8
7
 10
20343.1289
 20
4723.29492
 40
333.234497
  0
TEXT
  8
7
 7
SIMPLEX
 10
20123.1934
 20
4590.00098
 40
266.587585
  1
M1
 72
           1
 11
20343.1289
 21
4723.29492
 73
           2
 50
   0.000
999
START:   AREA=Cables
999
END:     AREA=Cables
999
END:     AREA=Details
999
START:   AREA=Extensions
  0
LINE
  8
5
 10
15099.9980
 20
3846.80005
 11
45900.0000
 21
3846.80005
  0
LINE
  8
5
 10
45900.0000
 20
4050.00000
 11
45900.0000
 21
3846.80005
  0
LINE
  8
5
 10
15099.9980
 20
4050.00000
 11
15099.9980
 21
3846.80005
  0
LINE
  8
5
 10
45900.0000
 20
4050.00000
 11
45900.0000
 21
4500.00000
  0
LINE
  8
5
 10
15099.9980
 20
4500.00000
 11
15099.9980
 21
4050.00000
  0
LINE
  8
5
 10
45900.0000
 20
4500.00000
 11
15099.9980
 21
4500.00000
  0
TEXT
  8
3
 7
SIMPLEX
 10
29458.6426
 20
3985.64771
 40
347.119293
  1
Canopy
 50
   0.000
999
END:     AREA=Extensions
999
START:   AREA=Eave/Extension Purlins
999
START:   AREA=Eave/Extension Purlins
999
START:   AREA=Eave Extensions
999
END:     AREA=Eave Extensions
999
START:   AREA=Canopy Extensions around corner
999
END:     AREA=Canopy Extensions around corner
999
START:   AREA=Facia Extensions on Endwall
999
END:     AREA=Facia Extensions on Endwall
999
START:   AREA=Draw Facia Detail
  0
INSERT
  8
7
  2
CUTSEC
 10
16488.4746
 20
4500.00000
 41
1.00000000
 42
-1.0000000
 43
-1.0000000
 50
 -90.000
  0
CIRCLE
  8
7
 10
16488.4746
 20
5416.39502
 40
333.234497
  0
TEXT
  8
7
 7
SIMPLEX
 10
16268.5410
 20
5283.10107
 40
266.587585
  1
X1
 72
           1
 11
16488.4746
 21
5416.39502
 73
           2
 50
   0.000
  0
INSERT
  8
7
  2
CUTSEC
 10
24188.4746
 20
4500.00000
 41
1.00000000
 42
-1.0000000
 43
-1.0000000
 50
 -90.000
  0
CIRCLE
  8
7
 10
24188.4746
 20
5416.39502
 40
333.234497
  0
TEXT
  8
7
 7
SIMPLEX
 10
23921.8887
 20
5283.10107
 40
266.587585
  1
X2
 72
           1
 11
24188.4746
 21
5416.39502
 73
           2
 50
   0.000
  0
INSERT
  8
7
  2
CUTSEC
 10
39588.4766
 20
4500.00000
 41
1.00000000
 42
-1.0000000
 43
-1.0000000
 50
 -90.000
  0
CIRCLE
  8
7
 10
39588.4766
 20
5416.39502
 40
333.234497
  0
TEXT
  8
7
 7
SIMPLEX
 10
39321.8867
 20
5283.10107
 40
266.587585
  1
X3
 72
           1
 11
39588.4766
 21
5416.39502
 73
           2
 50
   0.000
  0
INSERT
  8
7
  2
CUTSEC
 10
47288.4766
 20
4500.00000
 41
1.00000000
 42
-1.0000000
 43
-1.0000000
 50
 -90.000
  0
CIRCLE
  8
7
 10
47288.4766
 20
5416.39502
 40
333.234497
  0
TEXT
  8
7
 7
SIMPLEX
 10
47021.8906
 20
5283.10107
 40
266.587585
  1
X4
 72
           1
 11
47288.4766
 21
5416.39502
 73
           2
 50
   0.000
999
END:     AREA=Draw Facia Detail
  0
ENDBLK
  8
0
999
START:   AREA=Tables
  0
BLOCK
  8
1
  2
EW2TBL
 70
     0
 10
0.00000000
 20
0.00000000
  0
TEXT
  8
14
 7
SIMPLEX
 10
-9372.2207
 20
-433.89908
 40
347.119293
  1
MEMBER TABLE
 50
   0.000
  0
TEXT
  8
14
 7
SIMPLEX
 10
-9372.2207
 20
-954.57794
 40
347.119293
  1
FRAME LINE 7
 50
   0.000
  0
TEXT
  8
14
 7
SIMPLEX
 10
-9372.2207
 20
-1475.2571
 40
347.119293
  1
MARK
 50
   0.000
  0
TEXT
  8
14
 7
SIMPLEX
 10
-6942.3862
 20
-1475.2571
 40
347.119293
  1
PART
 50
   0.000
  0
TEXT
  8
14
 7
SIMPLEX
 10
-3471.1936
 20
-1475.2571
 40
347.119293
  1
LENGTH
 50
   0.000
  0
TEXT
  8
26
 7
SIMPLEX
 10
-9372.2207
 20
-1995.9360
 40
347.119293
  1
EC-1
 50
   0.000
  0
TEXT
  8
26
 7
SIMPLEX
 10
-6942.3862
 20
-1995.9360
 40
347.119293
  1
MB225
 50
   0.000
  0
TEXT
  8
26
 7
SIMPLEX
 10
-3471.1936
 20
-1995.9360
 40
347.119293
  1
   6732
 50
   0.000
  0
TEXT
  8
26
 7
SIMPLEX
 10
-9372.2207
 20
-2516.6147
 40
347.119293
  1
EC-2
 50
   0.000
  0
TEXT
  8
26
 7
SIMPLEX
 10
-6942.3862
 20
-2516.6147
 40
347.119293
  1
MB225
 50
   0.000
  0
TEXT
  8
26
 7
SIMPLEX
 10
-3471.1936
 20
-2516.6147
 40
347.119293
  1
   7490
 50
   0.000
  0
TEXT
  8
26
 7
SIMPLEX
 10
-9372.2207
 20
-3037.2937
 40
347.119293
  1
EC-3
 50
   0.000
  0
TEXT
  8
26
 7
SIMPLEX
 10
-6942.3862
 20
-3037.2937
 40
347.119293
  1
MB225
 50
   0.000
  0
TEXT
  8
26
 7
SIMPLEX
 10
-3471.1936
 20
-3037.2937
 40
347.119293
  1
   8411
 50
   0.000
  0
TEXT
  8
26
 7
SIMPLEX
 10
-9372.2207
 20
-3557.9724
 40
347.119293
  1
EC-4
 50
   0.000
  0
TEXT
  8
26
 7
SIMPLEX
 10
-6942.3862
 20
-3557.9724
 40
347.119293
  1
MB225
 50
   0.000
  0
TEXT
  8
26
 7
SIMPLEX
 10
-3471.1936
 20
-3557.9724
 40
347.119293
  1
   8710
 50
   0.000
  0
TEXT
  8
26
 7
SIMPLEX
 10
-9372.2207
 20
-4078.6511
 40
347.119293
  1
EC-5
 50
   0.000
  0
TEXT
  8
26
 7
SIMPLEX
 10
-6942.3862
 20
-4078.6511
 40
347.119293
  1
MB225
 50
   0.000
  0
TEXT
  8
26
 7
SIMPLEX
 10
-3471.1936
 20
-4078.6511
 40
347.119293
  1
   8411
 50
   0.000
  0
TEXT
  8
26
 7
SIMPLEX
 10
-9372.2207
 20
-4599.3306
 40
347.119293
  1
EC-6
 50
   0.000
  0
TEXT
  8
26
 7
SIMPLEX
 10
-6942.3862
 20
-4599.3306
 40
347.119293
  1
MB225
 50
   0.000
  0
TEXT
  8
26
 7
SIMPLEX
 10
-3471.1936
 20
-4599.3306
 40
347.119293
  1
   7490
 50
   0.000
  0
TEXT
  8
26
 7
SIMPLEX
 10
-9372.2207
 20
-5120.0093
 40
347.119293
  1
DJ-1
 50
   0.000
  0
TEXT
  8
26
 7
SIMPLEX
 10
-6942.3862
 20
-5120.0093
 40
347.119293
  1
200C20
 50
   0.000
  0
TEXT
  8
26
 7
SIMPLEX
 10
-3471.1936
 20
-5120.0093
 40
347.119293
  1
   4450
 50
   0.000
  0
TEXT
  8
26
 7
SIMPLEX
 10
-9372.2207
 20
-5640.6885
 40
347.119293
  1
DH-1
 50
   0.000
  0
TEXT
  8
26
 7
SIMPLEX
 10
-6942.3862
 20
-5640.6885
 40
347.119293
  1
200C20
 50
   0.000
  0
TEXT
  8
26
 7
SIMPLEX
 10
-3471.1936
 20
-5640.6885
 40
347.119293
  1
   3980
 50
   0.000
  0
TEXT
  8
26
 7
SIMPLEX
 10
-9372.2207
 20
-6161.3677
 40
347.119293
  1
 G-1
 50
   0.000
  0
TEXT
  8
26
 7
SIMPLEX
 10
-6942.3862
 20
-6161.3677
 40
347.119293
  1
200Z15
 50
   0.000
  0
TEXT
  8
26
 7
SIMPLEX
 10
-3471.1936
 20
-6161.3677
 40
347.119293
  1
   7615
 50
   0.000
  0
TEXT
  8
26
 7
SIMPLEX
 10
-9372.2207
 20
-6682.0464
 40
347.119293
  1
 G-2
 50
   0.000
  0
TEXT
  8
26
 7
SIMPLEX
 10
-6942.3862
 20
-6682.0464
 40
347.119293
  1
200Z15
 50
   0.000
  0
TEXT
  8
26
 7
SIMPLEX
 10
-3471.1936
 20
-6682.0464
 40
347.119293
  1
   7770
 50
   0.000
  0
TEXT
  8
26
 7
SIMPLEX
 10
-9372.2207
 20
-7202.7256
 40
347.119293
  1
 G-3
 50
   0.000
  0
TEXT
  8
26
 7
SIMPLEX
 10
-6942.3862
 20
-7202.7256
 40
347.119293
  1
200Z15
 50
   0.000
  0
TEXT
  8
26
 7
SIMPLEX
 10
-3471.1936
 20
-7202.7256
 40
347.119293
  1
   9833
 50
   0.000
  0
TEXT
  8
26
 7
SIMPLEX
 10
-9372.2207
 20
-7723.4038
 40
347.119293
  1
 G-4
 50
   0.000
  0
TEXT
  8
26
 7
SIMPLEX
 10
-6942.3862
 20
-7723.4038
 40
347.119293
  1
200Z15
 50
   0.000
  0
TEXT
  8
26
 7
SIMPLEX
 10
-3471.1936
 20
-7723.4038
 40
347.119293
  1
   8450
 50
   0.000
  0
TEXT
  8
26
 7
SIMPLEX
 10
-9372.2207
 20
-8244.0830
 40
347.119293
  1
 G-5
 50
   0.000
  0
TEXT
  8
26
 7
SIMPLEX
 10
-6942.3862
 20
-8244.0830
 40
347.119293
  1
200Z18
 50
   0.000
  0
TEXT
  8
26
 7
SIMPLEX
 10
-3471.1936
 20
-8244.0830
 40
347.119293
  1
   8170
 50
   0.000
  0
TEXT
  8
26
 7
SIMPLEX
 10
-9372.2207
 20
-8764.7627
 40
347.119293
  1
 G-6
 50
   0.000
  0
TEXT
  8
26
 7
SIMPLEX
 10
-6942.3862
 20
-8764.7627
 40
347.119293
  1
200Z15
 50
   0.000
  0
TEXT
  8
26
 7
SIMPLEX
 10
-3471.1936
 20
-8764.7627
 40
347.119293
  1
   3516
 50
   0.000
  0
TEXT
  8
26
 7
SIMPLEX
 10
-9372.2207
 20
-9285.4414
 40
347.119293
  1
 G-7
 50
   0.000
  0
TEXT
  8
26
 7
SIMPLEX
 10
-6942.3862
 20
-9285.4414
 40
347.119293
  1
200Z18
 50
   0.000
  0
TEXT
  8
26
 7
SIMPLEX
 10
-3471.1936
 20
-9285.4414
 40
347.119293
  1
   8450
 50
   0.000
  0
TEXT
  8
26
 7
SIMPLEX
 10
-9372.2207
 20
-9806.1211
 40
347.119293
  1
 G-8
 50
   0.000
  0
TEXT
  8
26
 7
SIMPLEX
 10
-6942.3862
 20
-9806.1211
 40
347.119293
  1
200Z15
 50
   0.000
  0
TEXT
  8
26
 7
SIMPLEX
 10
-3471.1936
 20
-9806.1211
 40
347.119293
  1
   8170
 50
   0.000
  0
TEXT
  8
26
 7
SIMPLEX
 10
-9372.2207
 20
-10326.800
 40
347.119293
  1
 G-9
 50
   0.000
  0
TEXT
  8
26
 7
SIMPLEX
 10
-6942.3862
 20
-10326.800
 40
347.119293
  1
200Z15
 50
   0.000
  0
TEXT
  8
26
 7
SIMPLEX
 10
-3471.1936
 20
-10326.800
 40
347.119293
  1
   8170
 50
   0.000
  0
TEXT
  8
26
 7
SIMPLEX
 10
-9372.2207
 20
-10847.479
 40
347.119293
  1
 G-10
 50
   0.000
  0
TEXT
  8
26
 7
SIMPLEX
 10
-6942.3862
 20
-10847.479
 40
347.119293
  1
200Z18
 50
   0.000
  0
TEXT
  8
26
 7
SIMPLEX
 10
-3471.1936
 20
-10847.479
 40
347.119293
  1
   8170
 50
   0.000
  0
TEXT
  8
26
 7
SIMPLEX
 10
-9372.2207
 20
-11368.158
 40
347.119293
  1
 G-11
 50
   0.000
  0
TEXT
  8
26
 7
SIMPLEX
 10
-6942.3862
 20
-11368.158
 40
347.119293
  1
200Z15
 50
   0.000
  0
TEXT
  8
26
 7
SIMPLEX
 10
-3471.1936
 20
-11368.158
 40
347.119293
  1
   9833
 50
   0.000
  0
TEXT
  8
26
 7
SIMPLEX
 10
-9372.2207
 20
-11888.837
 40
347.119293
  1
 G-12
 50
   0.000
  0
TEXT
  8
26
 7
SIMPLEX
 10
-6942.3862
 20
-11888.837
 40
347.119293
  1
200Z15
 50
   0.000
  0
TEXT
  8
26
 7
SIMPLEX
 10
-3471.1936
 20
-11888.837
 40
347.119293
  1
   7615
 50
   0.000
  0
TEXT
  8
26
 7
SIMPLEX
 10
-9372.2207
 20
-12409.516
 40
347.119293
  1
 G-13
 50
   0.000
  0
TEXT
  8
26
 7
SIMPLEX
 10
-6942.3862
 20
-12409.516
 40
347.119293
  1
200Z15
 50
   0.000
  0
TEXT
  8
26
 7
SIMPLEX
 10
-3471.1936
 20
-12409.516
 40
347.119293
  1
   7770
 50
   0.000
  0
TEXT
  8
26
 7
SIMPLEX
 10
-9372.2207
 20
-12930.194
 40
347.119293
  1
JB-1
 50
   0.000
  0
TEXT
  8
26
 7
SIMPLEX
 10
-6942.3862
 20
-12930.194
 40
347.119293
  1
SROD12
 50
   0.000
  0
TEXT
  8
26
 7
SIMPLEX
 10
-3471.1936
 20
-12930.194
 40
347.119293
  1
   1600
 50
   0.000
  0
TEXT
  8
26
 7
SIMPLEX
 10
-9372.2207
 20
-13450.873
 40
347.119293
  1
JB-2
 50
   0.000
  0
TEXT
  8
26
 7
SIMPLEX
 10
-6942.3862
 20
-13450.873
 40
347.119293
  1
SROD12
 50
   0.000
  0
TEXT
  8
26
 7
SIMPLEX
 10
-3471.1936
 20
-13450.873
 40
347.119293
  1
    730
 50
   0.000
  0
LINE
  8
0
 10
-9719.3398
 20
-13537.652
 11
0.00000000
 21
-13537.652
  0
LINE
  8
0
 10
-9719.3398
 20
-1562.0367
 11
-9719.3398
 21
-13537.652
  0
LINE
  8
0
 10
-7289.5054
 20
-1562.0367
 11
-7289.5054
 21
-13537.652
  0
LINE
  8
0
 10
-3818.3125
 20
-1562.0367
 11
-3818.3125
 21
-13537.652
  0
LINE
  8
0
 10
-9719.3398
 20
0.00000000
 11
0.00000000
 21
0.00000000
  0
LINE
  8
0
 10
-9719.3398
 20
0.00000000
 11
-9719.3398
 21
-13537.652
  0
LINE
  8
0
 10
0.00000000
 20
0.00000000
 11
0.00000000
 21
-13537.652
  0
LINE
  8
0
 10
-9719.3398
 20
-1041.3578
 11
0.00000000
 21
-1041.3578
  0
LINE
  8
0
 10
-9719.3398
 20
-1041.3578
 11
-9719.3398
 21
-1562.0367
  0
LINE
  8
0
 10
-7289.5054
 20
-1041.3578
 11
-7289.5054
 21
-1562.0367
  0
LINE
  8
0
 10
-3818.3125
 20
-1041.3578
 11
-3818.3125
 21
-1562.0367
  0
LINE
  8
0
 10
-9719.3398
 20
-1562.0367
 11
0.00000000
 21
-1562.0367
  0
ENDBLK
  8
1
  0
BLOCK
  8
1
  2
EW2BLT
 70
     0
 10
0.00000000
 20
0.00000000
  0
TEXT
  8
14
 7
SIMPLEX
 10
-13190.532
 20
-433.89908
 40
347.119293
  1
BOLT TABLE
 50
   0.000
  0
TEXT
  8
14
 7
SIMPLEX
 10
-13190.532
 20
-954.57794
 40
347.119293
  1
FRAME LINE 7
 50
   0.000
  0
TEXT
  8
14
 7
SIMPLEX
 10
-13190.532
 20
-1475.2571
 40
347.119293
  1
LOCATION
 50
   0.000
  0
TEXT
  8
14
 7
SIMPLEX
 10
-7636.6250
 20
-1475.2571
 40
347.119293
  1
QUAN
 50
   0.000
  0
TEXT
  8
14
 7
SIMPLEX
 10
-5901.0283
 20
-1475.2571
 40
347.119293
  1
TYPE
 50
   0.000
  0
TEXT
  8
14
 7
SIMPLEX
 10
-4165.4316
 20
-1475.2571
 40
347.119293
  1
DIA
 50
   0.000
  0
TEXT
  8
14
 7
SIMPLEX
 10
-2082.7161
 20
-1475.2571
 40
347.119293
  1
LENGTH
 50
   0.000
  0
TEXT
  8
26
 7
SIMPLEX
 10
-13190.532
 20
-1995.9360
 40
347.119293
  1
Columns/Raf
 50
   0.000
  0
TEXT
  8
26
 7
SIMPLEX
 10
-6942.3862
 20
-1995.9360
 40
347.119293
  1
2
 50
   0.000
  0
TEXT
  8
26
 7
SIMPLEX
 10
-5901.0283
 20
-1995.9360
 40
347.119293
  1
Gr8.8
 50
   0.000
  0
TEXT
  8
26
 7
SIMPLEX
 10
-4165.4316
 20
-1995.9360
 40
347.119293
  1
16
 50
   0.000
  0
TEXT
  8
26
 7
SIMPLEX
 10
-2082.7161
 20
-1995.9360
 40
347.119293
  1
70
 50
   0.000
  0
LINE
  8
0
 10
-13537.652
 20
-2082.7156
 11
0.00000000
 21
-2082.7156
  0
LINE
  8
0
 10
-7983.7441
 20
-1562.0367
 11
-7983.7441
 21
-2082.7156
  0
LINE
  8
0
 10
-13537.652
 20
0.00000000
 11
0.00000000
 21
0.00000000
  0
LINE
  8
0
 10
-13537.652
 20
0.00000000
 11
-13537.652
 21
-2082.7156
  0
LINE
  8
0
 10
0.00000000
 20
0.00000000
 11
0.00000000
 21
-2082.7156
  0
LINE
  8
0
 10
-13537.652
 20
-1041.3578
 11
0.00000000
 21
-1041.3578
  0
LINE
  8
0
 10
-7983.7441
 20
-1041.3578
 11
-7983.7441
 21
-1562.0367
  0
LINE
  8
0
 10
-13537.652
 20
-1562.0367
 11
0.00000000
 21
-1562.0367
  0
ENDBLK
  8
1
  0
BLOCK
  8
1
  2
EW2CLT
 70
     0
 10
0.00000000
 20
0.00000000
  0
TEXT
  8
14
 7
SIMPLEX
 10
-5727.4688
 20
-433.89908
 40
347.119293
  1
CONNECTION PLATES
 50
   0.000
  0
TEXT
  8
14
 7
SIMPLEX
 10
-5727.4688
 20
-954.57806
 40
347.119293
  1
FRAME LINE 7
 50
   0.000
  0
TEXT
  8
14
 7
SIMPLEX
 10
-5380.3491
 20
-1475.2571
 40
347.119293
  1
ID
 50
   0.000
  0
TEXT
  8
14
 7
SIMPLEX
 10
-4512.5513
 20
-1475.2571
 40
347.119293
  1
MARK/PART
 50
   0.000
  0
LINE
  8
14
 10
-5814.2480
 20
-1128.1377
 11
-5467.1289
 21
-1128.1377
  0
LINE
  8
14
 10
-5467.1289
 20
-1128.1377
 11
-5467.1289
 21
-1475.2571
  0
LINE
  8
14
 10
-5467.1289
 20
-1475.2571
 11
-5814.2480
 21
-1475.2571
  0
LINE
  8
14
 10
-5814.2480
 20
-1475.2571
 11
-5814.2480
 21
-1128.1377
  0
TEXT
  8
26
 7
SIMPLEX
 10
-5206.7896
 20
-1995.9360
 40
347.119293
  1
1
 50
   0.000
  0
TEXT
  8
26
 7
SIMPLEX
 10
-4512.5513
 20
-1995.9360
 40
347.119293
  1
d1
 50
   0.000
  0
TEXT
  8
26
 7
SIMPLEX
 10
-5206.7896
 20
-2516.6147
 40
347.119293
  1
2
 50
   0.000
  0
TEXT
  8
26
 7
SIMPLEX
 10
-4512.5513
 20
-2516.6147
 40
347.119293
  1
f1
 50
   0.000
  0
TEXT
  8
26
 7
SIMPLEX
 10
-5206.7896
 20
-3037.2937
 40
347.119293
  1
3
 50
   0.000
  0
TEXT
  8
26
 7
SIMPLEX
 10
-4512.5513
 20
-3037.2937
 40
347.119293
  1
j1
 50
   0.000
  0
TEXT
  8
26
 7
SIMPLEX
 10
-5206.7896
 20
-3557.9724
 40
347.119293
  1
4
 50
   0.000
  0
TEXT
  8
26
 7
SIMPLEX
 10
-4512.5513
 20
-3557.9724
 40
347.119293
  1
b1
 50
   0.000
  0
TEXT
  8
26
 7
SIMPLEX
 10
-5206.7896
 20
-4078.6511
 40
347.119293
  1
5
 50
   0.000
  0
TEXT
  8
26
 7
SIMPLEX
 10
-4512.5513
 20
-4078.6511
 40
347.119293
  1
c1
 50
   0.000
  0
LINE
  8
0
 10
-5901.0283
 20
-4165.4312
 11
0.00000000
 21
-4165.4312
  0
LINE
  8
0
 10
-5901.0283
 20
0.00000000
 11
0.00000000
 21
0.00000000
  0
LINE
  8
0
 10
-5901.0283
 20
0.00000000
 11
-5901.0283
 21
-4165.4312
  0
LINE
  8
0
 10
0.00000000
 20
0.00000000
 11
0.00000000
 21
-4165.4312
  0
LINE
  8
0
 10
-5901.0283
 20
-1041.3578
 11
0.00000000
 21
-1041.3578
  0
LINE
  8
0
 10
-4686.1108
 20
-1041.3578
 11
-4686.1108
 21
-4165.4312
  0
LINE
  8
0
 10
-5901.0283
 20
-1562.0367
 11
0.00000000
 21
-1562.0367
  0
ENDBLK
  8
1
  0
BLOCK
  8
1
  2
EW2BRACE
 70
     0
 10
0.00000000
 20
0.00000000
  0
TEXT
  8
14
 7
SIMPLEX
 10
-7636.6250
 20
-433.89908
 40
347.119293
  1
FLANGE BRACE TABLE
 50
   0.000
  0
TEXT
  8
14
 7
SIMPLEX
 10
-7636.6250
 20
-954.57794
 40
347.119293
  1
FRAME LINE 7
 50
   0.000
  0
TEXT
  8
14
 7
SIMPLEX
 10
-7463.0649
 20
-1475.2571
 40
347.119293
  1
ID
 50
   0.000
  0
TEXT
  8
14
 7
SIMPLEX
 10
-6595.2661
 20
-1475.2571
 40
347.119293
  1
MARK
 50
   0.000
  0
TEXT
  8
14
 7
SIMPLEX
 10
-3471.1929
 20
-1475.2571
 40
347.119293
  1
LENGTH
 50
   0.000
  0
LINE
  8
14
 10
-7723.4038
 20
-1475.2571
 11
-7896.9634
 21
-1128.1377
  0
LINE
  8
14
 10
-7723.4038
 20
-1475.2571
 11
-7549.8442
 21
-1128.1377
  0
LINE
  8
14
 10
-7896.9634
 20
-1128.1377
 11
-7549.8442
 21
-1128.1377
  0
TEXT
  8
26
 7
SIMPLEX
 10
-7463.0649
 20
-1995.9360
 40
347.119293
  1
1
 50
   0.000
  0
TEXT
  8
26
 7
SIMPLEX
 10
-6595.2661
 20
-1995.9360
 40
347.119293
  1
FB400
 50
   0.000
  0
TEXT
  8
26
 7
SIMPLEX
 10
-3644.7520
 20
-1995.9360
 40
347.119293
  1
    400
 50
   0.000
  0
LINE
  8
0
 10
-7983.7441
 20
0.00000000
 11
-7983.7441
 21
-2082.7156
  0
LINE
  8
0
 10
0.00000000
 20
0.00000000
 11
0.00000000
 21
-2082.7156
  0
LINE
  8
0
 10
-7983.7441
 20
0.00000000
 11
0.00000000
 21
0.00000000
  0
LINE
  8
0
 10
-7983.7441
 20
-2082.7156
 11
0.00000000
 21
-2082.7156
  0
LINE
  8
0
 10
-7983.7441
 20
-1041.3578
 11
0.00000000
 21
-1041.3578
  0
LINE
  8
0
 10
-6942.3857
 20
-1041.3578
 11
-6942.3857
 21
-2082.7156
  0
LINE
  8
0
 10
-3818.3115
 20
-1041.3578
 11
-3818.3115
 21
-2082.7156
  0
LINE
  8
0
 10
-7983.7441
 20
-1562.0367
 11
0.00000000
 21
-1562.0367
  0
ENDBLK
  8
1
999
END:     AREA=Tables
  0
ENDSEC
  0
SECTION
  2
ENTITIES
  0
LINE
  8
22
 10
0.00000000
 20
0.00000000
 11
83487.5313
 21
0.00000000
  0
LINE
  8
22
 10
83487.5313
 20
0.00000000
 11
83487.5313
 21
59037.6055
  0
LINE
  8
22
 10
83487.5313
 20
59037.6055
 11
0.00000000
 21
59037.6055
  0
LINE
  8
22
 10
0.00000000
 20
59037.6055
 11
0.00000000
 21
0.00000000
  0
LINE
  8
0
 10
51678.7813
 20
0.00000000
 11
51678.7813
 21
5301.45801
  0
LINE
  8
0
 10
51678.7813
 20
5301.45801
 11
83487.5313
 21
5301.45801
  0
LINE
  8
0
 10
51678.7813
 20
0.00000000
 11
83487.5313
 21
0.00000000
  0
LINE
  8
0
 10
83487.5313
 20
0.00000000
 11
83487.5313
 21
5301.45801
  0
LINE
  8
0
 10
51678.7813
 20
2019.60303
 11
83487.5313
 21
2019.60303
  0
LINE
  8
0
 10
51678.7813
 20
3029.40454
 11
83487.5313
 21
3029.40454
  0
LINE
  8
0
 10
51678.7813
 20
4039.20605
 11
83487.5313
 21
4039.20605
  0
LINE
  8
0
 10
56222.8867
 20
0.00000000
 11
56222.8867
 21
4039.20605
  0
LINE
  8
0
 10
67583.1563
 20
0.00000000
 11
67583.1563
 21
4039.20605
  0
LINE
  8
0
 10
67583.1563
 20
1009.80151
 11
83487.5313
 21
1009.80151
  0
LINE
  8
0
 10
73137.0703
 20
3029.40454
 11
73137.0703
 21
2019.60303
  0
LINE
  8
0
 10
78186.0703
 20
3029.40454
 11
78186.0703
 21
2019.60303
  0
LINE
  8
0
 10
75661.5703
 20
2019.60303
 11
75661.5703
 21
1009.80151
  0
TEXT
  8
14
 7
SIMPLEX
 10
52183.6797
 20
3281.85498
 40
504.900757
  1
PROJECT
 50
   0.000
  0
TEXT
  8
14
 7
SIMPLEX
 10
52183.6797
 20
2272.05347
 40
504.900757
  1
ID
 50
   0.000
  0
TEXT
  8
14
 7
SIMPLEX
 10
52183.6797
 20
1262.25195
 40
504.900757
  1
PROJECT
 50
   0.000
  0
TEXT
  8
14
 7
SIMPLEX
 10
52183.6797
 20
252.450378
 40
504.900757
  1
ADDRESS
 50
   0.000
  0
TEXT
  8
14
 7
SIMPLEX
 10
56727.7813
 20
3281.85498
 40
504.900757
  1
Proposed Warehouse
 50
   0.000
  0
TEXT
  8
14
 7
SIMPLEX
 10
56727.7813
 20
2272.05347
 40
504.900757
  1
C08-033
 50
   0.000
  0
TEXT
  8
14
 7
SIMPLEX
 10
56727.7813
 20
1262.25195
 40
504.900757
  1
Proposed Warehouse
 50
   0.000
  0
TEXT
  8
14
 7
SIMPLEX
 10
56727.7813
 20
252.450378
 40
504.900757
  1
 
 50
   0.000
  0
TEXT
  8
14
 7
SIMPLEX
 10
58242.4883
 20
4291.65674
 40
757.351074
  1
Sivoko Steel Structures Ltd.
 50
   0.000
  0
TEXT
  8
14
 7
SIMPLEX
 10
68088.0547
 20
3281.85498
 40
504.900757
  1
ENDWALL FRAMING
 50
   0.000
  0
TEXT
  8
14
 7
SIMPLEX
 10
68088.0547
 20
2272.05347
 40
504.900757
  1
DESIGN:
 50
   0.000
  0
TEXT
  8
14
 7
SIMPLEX
 10
68088.0547
 20
1262.25195
 40
504.900757
  1
DATE:
 50
   0.000
  0
TEXT
  8
14
 7
SIMPLEX
 10
70663.0469
 20
1262.25195
 40
504.900757
  1
23/APR/2026
 50
   0.000
  0
TEXT
  8
14
 7
SIMPLEX
 10
73641.9688
 20
2272.05347
 40
504.900757
  1
DRAFT:
 50
   0.000
  0
TEXT
  8
14
 7
SIMPLEX
 10
78690.9688
 20
2272.05347
 40
504.900757
  1
CHECK:
 50
   0.000
  0
TEXT
  8
14
 7
SIMPLEX
 10
75914.0156
 20
1262.25195
 40
504.900757
  1
SHEET
 50
   0.000
  0
TEXT
  8
14
 7
SIMPLEX
 10
80458.1250
 20
1262.25195
 40
504.900757
  1
OF
 50
   0.000
  0
TEXT
  8
14
 7
SIMPLEX
 10
78438.5234
 20
1262.25195
 40
504.900757
  1
 
 50
   0.000
999
FIELD:@PAGE_ID
  0
TEXT
  8
14
 7
SIMPLEX
 10
81467.9219
 20
1262.25195
 40
504.900757
  1
 
 50
   0.000
999
FIELD:@PAGE_TOTAL
  0
INSERT
  8
0
  2
EW2FRM
 10
6186.80371
 20
26415.0547
 41
1.00000000
 42
1.00000000
 43
1.00000000
 50
   0.000
  0
INSERT
  8
0
  2
EW2TBL
 10
83487.5313
 20
56607.7813
 41
1.00000000
 42
1.00000000
 43
1.00000000
 50
   0.000
  0
INSERT
  8
0
  2
EW2BLT
 10
83487.5313
 20
59037.6055
 41
1.00000000
 42
1.00000000
 43
1.00000000
 50
   0.000
  0
INSERT
  8
0
  2
EW2CLT
 10
83487.5313
 20
40293.1758
 41
1.00000000
 42
1.00000000
 43
1.00000000
 50
   0.000
  0
INSERT
  8
0
  2
EW2BRACE
 10
83487.5313
 20
42723.0117
 41
1.00000000
 42
1.00000000
 43
1.00000000
 50
   0.000
  0
ENDSEC
  0
EOF
