  0
SECTION
  2
HEADER
  9
$ACADVER
  1
AC1009
  9
$EXTMIN
 10
 -3311.626
 20
-20256.961
  9
$EXTMAX
 10
 64311.625
 20
 30460.477
  9
$LIMMIN
 10
 -3311.626
 20
-20256.961
  9
$LIMMAX
 10
 64311.625
 20
 30460.477
  9
$FILLMODE
 70
     1
  9
$HANDLING
 70
     0
  0
ENDSEC
  0
SECTION
  2
TABLES
  0
TABLE
  2
LTYPE
 70
1
  0
LTYPE
  2
CONTIN
 70
    64
  3
SOLID LINE
 72
    65
 73
     0
 40
0.0
  0
LTYPE
  2
CONTINUOUS
 70
    64
  3
SOLID LINE
 72
    65
 73
     0
 40
0.0
  0
LTYPE
  2
CENTER
 70
    64
  3
____ _ ____ _ ____ _ ____ _ ____ _ ____ _ ____
 72
    65
 73
     4
 40
   879.253
 49
   549.533
 49
  -109.907
 49
   109.907
 49
  -109.907
  0
LTYPE
  2
DASHED
 70
    64
  3
__ __ __ __ __ __ __ __ __ __ __ __ __ __ __ 
 72
    65
 73
     2
 40
   811.47
 49
   540.98
 49
  -270.49
  0
ENDTAB
  0
TABLE
  2
LAYER
 70
30
  0
LAYER
  2
0
 70
     0
 62
     7
  6
CONTIN
  0
LAYER
  2
1
 70
     0
 62
     7
  6
CONTIN
  0
LAYER
  2
2
 70
     0
 62
     7
  6
CONTIN
  0
LAYER
  2
3
 70
     0
 62
     7
  6
CONTIN
  0
LAYER
  2
4
 70
     0
 62
     5
  6
CONTIN
  0
LAYER
  2
5
 70
     0
 62
     5
  6
DASHED
  0
LAYER
  2
6
 70
     0
 62
     5
  6
DASHED
  0
LAYER
  2
7
 70
     0
 62
     5
  6
CONTIN
  0
LAYER
  2
8
 70
     0
 62
     5
  6
DASHED
  0
LAYER
  2
9
 70
     0
 62
     7
  6
CONTIN
  0
LAYER
  2
10
 70
     0
 62
     7
  6
CONTIN
  0
LAYER
  2
11
 70
     0
 62
     6
  6
DASHED
  0
LAYER
  2
12
 70
     0
 62
     7
  6
DASHED
  0
LAYER
  2
13
 70
     0
 62
     5
  6
DASHED
  0
LAYER
  2
14
 70
     0
 62
     7
  6
CONTIN
  0
LAYER
  2
15
 70
     0
 62
     5
  6
CONTIN
  0
LAYER
  2
16
 70
     0
 62
     7
  6
CONTIN
  0
LAYER
  2
17
 70
     0
 62
     7
  6
CONTIN
  0
LAYER
  2
18
 70
     0
 62
     7
  6
CONTIN
  0
LAYER
  2
19
 70
     0
 62
     7
  6
CONTIN
  0
LAYER
  2
20
 70
     0
 62
     1
  6
CONTIN
  0
LAYER
  2
21
 70
     0
 62
     7
  6
CONTIN
  0
LAYER
  2
22
 70
     0
 62
     7
  6
DASHED
  0
LAYER
  2
23
 70
     0
 62
     7
  6
DASHED
  0
LAYER
  2
24
 70
     0
 62
     7
  6
CONTIN
  0
LAYER
  2
25
 70
     0
 62
     7
  6
CONTIN
  0
LAYER
  2
26
 70
     0
 62
     7
  6
CONTIN
  0
LAYER
  2
27
 70
     0
 62
     1
  6
CENTER
  0
LAYER
  2
28
 70
     0
 62
     7
  6
CONTIN
  0
LAYER
  2
29
 70
     0
 62
     3
  6
DASHED
  0
ENDTAB
  0
TABLE
  2
STYLE
 70
  0
  0
ENDTAB
  0
ENDSEC
  0
SECTION
  2
ENTITIES
  0
LINE
  8
1
 10
   156.000
 20
     0.000
 11
   506.000
 21
     0.000
  0
LINE
  8
1
 10
   156.000
 20
     0.000
 11
   156.000
 21
  6798.522
  0
LINE
  8
1
 10
   506.000
 20
     0.000
 11
   856.000
 21
  6466.528
  0
LINE
  8
1
 10
   156.000
 20
  6798.522
 11
 30500.000
 21
  9832.923
  0
LINE
  8
1
 10
   856.000
 20
  6466.528
 11
  3675.369
 21
  6748.464
  0
LINE
  8
1
 10
  3675.369
 20
  6748.464
 11
  9660.517
 21
  7196.231
  0
LINE
  8
1
 10
  9660.517
 20
  7196.231
 11
 15630.740
 21
  7793.253
  0
LINE
  8
1
 10
 15630.740
 20
  7793.253
 11
 21586.037
 21
  8539.531
  0
LINE
  8
1
 10
 21586.037
 20
  8539.531
 11
 27606.012
 21
  8639.034
  0
LINE
  8
1
 10
 27606.012
 20
  8639.034
 11
 30500.000
 21
  8633.169
  0
LINE
  8
1
 10
 30500.000
 20
  9832.923
 11
 60844.000
 21
  6798.522
  0
LINE
  8
1
 10
 30500.000
 20
  8633.169
 11
 33393.969
 21
  8639.034
  0
LINE
  8
1
 10
 33393.969
 20
  8639.034
 11
 39413.941
 21
  8539.533
  0
LINE
  8
1
 10
 39413.941
 20
  8539.533
 11
 45369.238
 21
  7793.255
  0
LINE
  8
1
 10
 45369.238
 20
  7793.255
 11
 51339.461
 21
  7196.233
  0
LINE
  8
1
 10
 51339.461
 20
  7196.233
 11
 57324.613
 21
  6748.467
  0
LINE
  8
1
 10
 57324.613
 20
  6748.467
 11
 60144.000
 21
  6466.528
  0
LINE
  8
1
 10
 60844.000
 20
  6798.522
 11
 60844.000
 21
     0.000
  0
LINE
  8
1
 10
 60144.000
 20
  6466.528
 11
 60494.000
 21
     0.000
  0
LINE
  8
1
 10
   156.000
 20
     0.000
 11
   506.000
 21
     0.000
  0
LINE
  8
1
 10
 60844.000
 20
     0.000
 11
 60494.000
 21
     0.000
  0
TEXT
  8
16
 10
  -237.840
 20
  3399.261
 40
   121.920
  1
M1
 50
     0.000
  0
TEXT
  8
16
 10
  1851.620
 20
  7414.138
 40
   121.920
  1
M2
 50
     0.000
  0
TEXT
  8
16
 10
  6576.515
 20
  7886.627
 40
   121.920
  1
M3
 50
     0.000
  0
TEXT
  8
16
 10
 12546.738
 20
  8483.649
 40
   121.920
  1
M4
 50
     0.000
  0
TEXT
  8
16
 10
 18516.961
 20
  9080.672
 40
   121.920
  1
M5
 50
     0.000
  0
TEXT
  8
16
 10
 24487.184
 20
  9677.693
 40
   121.920
  1
M6
 50
     0.000
  0
TEXT
  8
16
 10
 28964.062
 20
 10125.383
 40
   121.920
  1
M7
 50
     0.000
  0
TEXT
  8
16
 10
 32035.924
 20
 10125.384
 40
   121.920
  1
M8
 50
     0.000
  0
TEXT
  8
16
 10
 36512.797
 20
  9677.696
 40
   121.920
  1
M9
 50
     0.000
  0
TEXT
  8
16
 10
 42483.020
 20
  9080.675
 40
   121.920
  1
M10
 50
     0.000
  0
TEXT
  8
16
 10
 48453.242
 20
  8483.651
 40
   121.920
  1
M11
 50
     0.000
  0
TEXT
  8
16
 10
 54423.465
 20
  7886.630
 40
   121.920
  1
M12
 50
     0.000
  0
TEXT
  8
16
 10
 59148.375
 20
  7414.139
 40
   121.920
  1
M13
 50
     0.000
  0
TEXT
  8
16
 10
 61237.840
 20
  3399.261
 40
   121.920
  1
M14
 50
     0.000
  0
TEXT
  8
16
 10
   924.840
 20
  3233.264
 40
   121.920
  1
S1
 50
     0.000
  0
TEXT
  8
16
 10
  2289.947
 20
  6364.867
 40
   121.920
  1
S2
 50
     0.000
  0
TEXT
  8
16
 10
  6692.206
 20
  6729.717
 40
   121.920
  1
S3
 50
     0.000
  0
TEXT
  8
16
 10
 12669.892
 20
  7252.112
 40
   121.920
  1
S4
 50
     0.000
  0
TEXT
  8
16
 10
 18632.652
 20
  7923.762
 40
   121.920
  1
S5
 50
     0.000
  0
TEXT
  8
16
 10
 24620.287
 20
  8346.653
 40
   121.920
  1
S6
 50
     0.000
  0
TEXT
  8
16
 10
 29077.270
 20
  8393.472
 40
   121.920
  1
S7
 50
     0.000
  0
TEXT
  8
16
 10
 31922.721
 20
  8393.472
 40
   121.920
  1
S8
 50
     0.000
  0
TEXT
  8
16
 10
 36379.691
 20
  8346.654
 40
   121.920
  1
S9
 50
     0.000
  0
TEXT
  8
16
 10
 42367.324
 20
  7923.764
 40
   121.920
  1
S10
 50
     0.000
  0
TEXT
  8
16
 10
 48330.086
 20
  7252.115
 40
   121.920
  1
S11
 50
     0.000
  0
TEXT
  8
16
 10
 54307.777
 20
  6729.720
 40
   121.920
  1
S12
 50
     0.000
  0
TEXT
  8
16
 10
 58710.047
 20
  6364.868
 40
   121.920
  1
S13
 50
     0.000
  0
TEXT
  8
16
 10
 59928.855
 20
  3233.264
 40
   121.920
  1
S14
 50
     0.000
  0
LINE
  8
9
 10
   156.000
 20
  6466.528
 11
   856.000
 21
  6466.528
  0
LINE
  8
9
 10
   156.000
 20
  6436.047
 11
   156.000
 21
  6497.008
  0
LINE
  8
9
 10
   856.000
 20
  6436.047
 11
   856.000
 21
  6497.008
  0
LINE
  8
9
 10
   856.000
 20
  6436.047
 11
   156.000
 21
  6436.047
  0
LINE
  8
9
 10
   856.000
 20
  6497.008
 11
   156.000
 21
  6497.008
  0
TEXT
  8
16
 10
   874.197
 20
  6283.647
 40
   121.920
  1
SP1
 50
     0.000
  0
LINE
  8
9
 10
  9605.790
 20
  7743.501
 11
  9660.517
 21
  7196.231
  0
LINE
  8
9
 10
  9575.461
 20
  7740.468
 11
  9636.119
 21
  7746.534
  0
LINE
  8
9
 10
  9630.188
 20
  7193.198
 11
  9690.846
 21
  7199.264
  0
LINE
  8
9
 10
  9630.188
 20
  7193.198
 11
  9575.461
 21
  7740.468
  0
LINE
  8
9
 10
  9690.846
 20
  7199.264
 11
  9636.119
 21
  7746.534
  0
TEXT
  8
16
 10
  9678.714
 20
  7013.351
 40
   121.920
  1
SP2
 50
     0.000
  0
LINE
  8
9
 10
 15576.014
 20
  8340.523
 11
 15630.740
 21
  7793.253
  0
LINE
  8
9
 10
 15545.686
 20
  8337.491
 11
 15606.342
 21
  8343.557
  0
LINE
  8
9
 10
 15600.412
 20
  7790.220
 11
 15661.069
 21
  7796.286
  0
LINE
  8
9
 10
 15600.412
 20
  7790.220
 11
 15545.686
 21
  8337.491
  0
LINE
  8
9
 10
 15661.069
 20
  7796.286
 11
 15606.342
 21
  8343.557
  0
TEXT
  8
16
 10
 15648.938
 20
  7610.373
 40
   121.920
  1
SP3
 50
     0.000
  0
LINE
  8
9
 10
 27516.459
 20
  9534.568
 11
 27606.012
 21
  8639.034
  0
LINE
  8
9
 10
 27486.131
 20
  9531.535
 11
 27546.787
 21
  9537.602
  0
LINE
  8
9
 10
 27575.684
 20
  8636.002
 11
 27636.340
 21
  8642.067
  0
LINE
  8
9
 10
 27575.684
 20
  8636.002
 11
 27486.131
 21
  9531.535
  0
LINE
  8
9
 10
 27636.340
 20
  8642.067
 11
 27546.787
 21
  9537.602
  0
TEXT
  8
16
 10
 27624.209
 20
  8456.154
 40
   121.920
  1
SP4
 50
     0.000
  0
LINE
  8
9
 10
 33483.520
 20
  9534.570
 11
 33393.969
 21
  8639.034
  0
LINE
  8
9
 10
 33453.191
 20
  9537.604
 11
 33513.848
 21
  9531.537
  0
LINE
  8
9
 10
 33363.641
 20
  8642.067
 11
 33424.297
 21
  8636.002
  0
LINE
  8
9
 10
 33363.641
 20
  8642.067
 11
 33453.191
 21
  9537.604
  0
LINE
  8
9
 10
 33424.297
 20
  8636.002
 11
 33513.848
 21
  9531.537
  0
TEXT
  8
16
 10
 33375.770
 20
  8456.154
 40
   121.920
  1
SP5
 50
     0.000
  0
LINE
  8
9
 10
 45423.965
 20
  8340.526
 11
 45369.238
 21
  7793.255
  0
LINE
  8
9
 10
 45393.637
 20
  8343.559
 11
 45454.293
 21
  8337.493
  0
LINE
  8
9
 10
 45338.910
 20
  7796.289
 11
 45399.566
 21
  7790.223
  0
LINE
  8
9
 10
 45338.910
 20
  7796.289
 11
 45393.637
 21
  8343.559
  0
LINE
  8
9
 10
 45399.566
 20
  7790.223
 11
 45454.293
 21
  8337.493
  0
TEXT
  8
16
 10
 45351.039
 20
  7610.375
 40
   121.920
  1
SP6
 50
     0.000
  0
LINE
  8
9
 10
 51394.188
 20
  7743.504
 11
 51339.461
 21
  7196.233
  0
LINE
  8
9
 10
 51363.859
 20
  7746.537
 11
 51424.516
 21
  7740.471
  0
LINE
  8
9
 10
 51309.133
 20
  7199.266
 11
 51369.789
 21
  7193.200
  0
LINE
  8
9
 10
 51309.133
 20
  7199.266
 11
 51363.859
 21
  7746.537
  0
LINE
  8
9
 10
 51369.789
 20
  7193.200
 11
 51424.516
 21
  7740.471
  0
TEXT
  8
16
 10
 51321.262
 20
  7013.353
 40
   121.920
  1
SP7
 50
     0.000
  0
LINE
  8
9
 10
 60844.000
 20
  6466.528
 11
 60144.000
 21
  6466.528
  0
LINE
  8
9
 10
 60844.000
 20
  6497.008
 11
 60844.000
 21
  6436.047
  0
LINE
  8
9
 10
 60144.000
 20
  6497.008
 11
 60144.000
 21
  6436.047
  0
LINE
  8
9
 10
 60144.000
 20
  6497.008
 11
 60844.000
 21
  6497.008
  0
LINE
  8
9
 10
 60144.000
 20
  6436.047
 11
 60844.000
 21
  6436.047
  0
TEXT
  8
16
 10
 59778.242
 20
  6283.647
 40
   121.920
  1
SP8
 50
     0.000
  0
LINE
  8
20
 10
 30106.301
 20
     0.000
 11
 30106.303
 21
  8633.967
  0
LINE
  8
20
 10
 30893.699
 20
     0.000
 11
 30893.701
 21
  8633.967
  0
TEXT
  8
16
 10
 30621.920
 20
  4316.584
 40
   121.920
  1
C1
 50
     1.000
  0
LINE
  8
9
 10
   156.000
 20
     0.000
 11
   506.000
 21
     0.000
  0
LINE
  8
9
 10
   156.000
 20
    30.480
 11
   506.000
 21
    30.480
  0
LINE
  8
9
 10
   156.000
 20
     0.000
 11
   156.000
 21
    30.480
  0
LINE
  8
9
 10
   506.000
 20
     0.000
 11
   506.000
 21
    30.480
  0
LINE
  8
9
 10
 60844.000
 20
     0.000
 11
 60494.000
 21
     0.000
  0
LINE
  8
9
 10
 60844.000
 20
    30.480
 11
 60494.000
 21
    30.480
  0
LINE
  8
9
 10
 60844.000
 20
     0.000
 11
 60844.000
 21
    30.480
  0
LINE
  8
9
 10
 60494.000
 20
     0.000
 11
 60494.000
 21
    30.480
  0
LINE
  8
9
 10
 30106.301
 20
     0.000
 11
 30893.699
 21
     0.000
  0
LINE
  8
9
 10
 30106.301
 20
    30.480
 11
 30893.699
 21
    30.480
  0
LINE
  8
9
 10
 30106.301
 20
     0.000
 11
 30106.301
 21
    30.480
  0
LINE
  8
9
 10
 30893.699
 20
     0.000
 11
 30893.699
 21
    30.480
  0
LINE
  8
9
 10
 30106.303
 20
  8633.967
 11
 30893.701
 21
  8633.967
  0
LINE
  8
5
 10
     0.001
 20
  3680.000
 11
   150.001
 21
  3680.000
  0
LINE
  8
3
 10
     0.001
 20
  3680.000
 11
  -174.216
 21
  3780.584
  0
LINE
  8
3
 10
     0.001
 20
  3680.000
 11
  -174.225
 21
  3579.433
  0
LINE
  8
3
 10
  -174.216
 20
  3780.584
 11
  -174.225
 21
  3579.433
  0
LINE
  8
5
 10
     0.002
 20
  5180.000
 11
   150.002
 21
  5180.000
  0
LINE
  8
5
 10
 61000.000
 20
  3680.000
 11
 60850.000
 21
  3680.000
  0
LINE
  8
3
 10
 61000.000
 20
  3680.000
 11
 61174.219
 21
  3579.417
  0
LINE
  8
3
 10
 61000.000
 20
  3680.000
 11
 61174.227
 21
  3780.567
  0
LINE
  8
3
 10
 61174.219
 20
  3579.417
 11
 61174.227
 21
  3780.567
  0
LINE
  8
5
 10
 61000.000
 20
  5180.000
 11
 60850.000
 21
  5180.000
  0
LINE
  8
5
 10
   350.353
 20
  7035.035
 11
   370.572
 21
  6832.843
  0
LINE
  8
5
 10
  1842.908
 20
  7184.291
 11
  1863.127
 21
  6982.099
  0
LINE
  8
3
 10
  1842.908
 20
  7184.291
 11
  1925.657
 21
  7367.652
  0
LINE
  8
3
 10
  1842.908
 20
  7184.291
 11
  1725.504
 21
  7347.646
  0
LINE
  8
3
 10
  1925.657
 20
  7367.652
 11
  1725.504
 21
  7347.646
  0
LINE
  8
5
 10
  3335.464
 20
  7333.546
 11
  3355.683
 21
  7131.354
  0
LINE
  8
5
 10
  4828.020
 20
  7482.802
 11
  4848.239
 21
  7280.610
  0
LINE
  8
3
 10
  4828.020
 20
  7482.802
 11
  4910.769
 21
  7666.163
  0
LINE
  8
3
 10
  4828.020
 20
  7482.802
 11
  4710.616
 21
  7646.156
  0
LINE
  8
3
 10
  4910.769
 20
  7666.163
 11
  4710.616
 21
  7646.156
  0
LINE
  8
5
 10
  6320.576
 20
  7632.057
 11
  6340.795
 21
  7429.865
  0
LINE
  8
5
 10
  7813.131
 20
  7781.313
 11
  7833.351
 21
  7579.122
  0
LINE
  8
3
 10
  7813.131
 20
  7781.313
 11
  7895.880
 21
  7964.674
  0
LINE
  8
3
 10
  7813.131
 20
  7781.313
 11
  7695.727
 21
  7944.667
  0
LINE
  8
3
 10
  7895.880
 20
  7964.674
 11
  7695.727
 21
  7944.667
  0
LINE
  8
5
 10
  9305.687
 20
  7930.568
 11
  9325.906
 21
  7728.377
  0
LINE
  8
5
 10
 10798.243
 20
  8079.824
 11
 10818.463
 21
  7877.632
  0
LINE
  8
3
 10
 10798.243
 20
  8079.824
 11
 10880.992
 21
  8263.185
  0
LINE
  8
3
 10
 10798.243
 20
  8079.824
 11
 10680.838
 21
  8243.179
  0
LINE
  8
3
 10
 10880.992
 20
  8263.185
 11
 10680.838
 21
  8243.179
  0
LINE
  8
5
 10
 12290.798
 20
  8229.080
 11
 12311.018
 21
  8026.888
  0
LINE
  8
5
 10
 13783.354
 20
  8378.335
 11
 13803.573
 21
  8176.144
  0
LINE
  8
3
 10
 13783.354
 20
  8378.335
 11
 13866.104
 21
  8561.696
  0
LINE
  8
3
 10
 13783.354
 20
  8378.335
 11
 13665.949
 21
  8541.689
  0
LINE
  8
3
 10
 13866.104
 20
  8561.696
 11
 13665.949
 21
  8541.689
  0
LINE
  8
5
 10
 15275.910
 20
  8527.591
 11
 15296.130
 21
  8325.399
  0
LINE
  8
5
 10
 16768.467
 20
  8676.847
 11
 16788.686
 21
  8474.655
  0
LINE
  8
3
 10
 16768.467
 20
  8676.847
 11
 16851.217
 21
  8860.208
  0
LINE
  8
3
 10
 16768.467
 20
  8676.847
 11
 16651.062
 21
  8840.201
  0
LINE
  8
3
 10
 16851.217
 20
  8860.208
 11
 16651.062
 21
  8840.201
  0
LINE
  8
5
 10
 18261.021
 20
  8826.103
 11
 18281.242
 21
  8623.910
  0
LINE
  8
5
 10
 19753.578
 20
  8975.357
 11
 19773.797
 21
  8773.166
  0
LINE
  8
3
 10
 19753.578
 20
  8975.357
 11
 19836.326
 21
  9158.719
  0
LINE
  8
3
 10
 19753.578
 20
  8975.357
 11
 19636.172
 21
  9138.712
  0
LINE
  8
3
 10
 19836.326
 20
  9158.719
 11
 19636.172
 21
  9138.712
  0
LINE
  8
5
 10
 21246.135
 20
  9124.613
 11
 21266.355
 21
  8922.422
  0
LINE
  8
5
 10
 22738.689
 20
  9273.869
 11
 22758.910
 21
  9071.678
  0
LINE
  8
3
 10
 22738.689
 20
  9273.869
 11
 22821.439
 21
  9457.229
  0
LINE
  8
3
 10
 22738.689
 20
  9273.869
 11
 22621.285
 21
  9437.224
  0
LINE
  8
3
 10
 22821.439
 20
  9457.229
 11
 22621.285
 21
  9437.224
  0
LINE
  8
5
 10
 24231.244
 20
  9423.124
 11
 24251.463
 21
  9220.933
  0
LINE
  8
5
 10
 25723.801
 20
  9572.381
 11
 25744.021
 21
  9370.188
  0
LINE
  8
3
 10
 25723.801
 20
  9572.381
 11
 25806.549
 21
  9755.741
  0
LINE
  8
3
 10
 25723.801
 20
  9572.381
 11
 25606.396
 21
  9735.735
  0
LINE
  8
3
 10
 25806.549
 20
  9755.741
 11
 25606.396
 21
  9735.735
  0
LINE
  8
5
 10
 27216.355
 20
  9721.636
 11
 27236.576
 21
  9519.443
  0
LINE
  8
5
 10
 28708.914
 20
  9870.892
 11
 28729.133
 21
  9668.699
  0
LINE
  8
3
 10
 28708.914
 20
  9870.892
 11
 28791.662
 21
 10054.252
  0
LINE
  8
3
 10
 28708.914
 20
  9870.892
 11
 28591.510
 21
 10034.246
  0
LINE
  8
3
 10
 28791.662
 20
 10054.252
 11
 28591.510
 21
 10034.246
  0
LINE
  8
5
 10
 30201.469
 20
 10020.146
 11
 30221.689
 21
  9817.955
  0
LINE
  8
3
 10
 30201.469
 20
 10020.146
 11
 30284.217
 21
 10203.507
  0
LINE
  8
3
 10
 30201.469
 20
 10020.146
 11
 30084.064
 21
 10183.501
  0
LINE
  8
3
 10
 30284.217
 20
 10203.507
 11
 30084.064
 21
 10183.501
  0
LINE
  8
5
 10
 30798.512
 20
 10020.148
 11
 30778.293
 21
  9817.957
  0
LINE
  8
3
 10
 30798.512
 20
 10020.148
 11
 30915.934
 21
 10183.492
  0
LINE
  8
3
 10
 30798.512
 20
 10020.148
 11
 30715.779
 21
 10203.517
  0
LINE
  8
3
 10
 30915.934
 20
 10183.492
 11
 30715.779
 21
 10203.517
  0
LINE
  8
5
 10
 32291.066
 20
  9870.894
 11
 32270.848
 21
  9668.702
  0
LINE
  8
3
 10
 32291.066
 20
  9870.894
 11
 32408.488
 21
 10034.237
  0
LINE
  8
3
 10
 32291.066
 20
  9870.894
 11
 32208.336
 21
 10054.262
  0
LINE
  8
3
 10
 32408.488
 20
 10034.237
 11
 32208.336
 21
 10054.262
  0
LINE
  8
5
 10
 33783.621
 20
  9721.638
 11
 33763.402
 21
  9519.446
  0
LINE
  8
5
 10
 35276.180
 20
  9572.382
 11
 35255.957
 21
  9370.190
  0
LINE
  8
3
 10
 35276.180
 20
  9572.382
 11
 35393.598
 21
  9735.727
  0
LINE
  8
3
 10
 35276.180
 20
  9572.382
 11
 35193.445
 21
  9755.751
  0
LINE
  8
3
 10
 35393.598
 20
  9735.727
 11
 35193.445
 21
  9755.751
  0
LINE
  8
5
 10
 36768.734
 20
  9423.127
 11
 36748.516
 21
  9220.935
  0
LINE
  8
5
 10
 38261.289
 20
  9273.871
 11
 38241.070
 21
  9071.679
  0
LINE
  8
3
 10
 38261.289
 20
  9273.871
 11
 38378.711
 21
  9437.214
  0
LINE
  8
3
 10
 38261.289
 20
  9273.871
 11
 38178.559
 21
  9457.239
  0
LINE
  8
3
 10
 38378.711
 20
  9437.214
 11
 38178.559
 21
  9457.239
  0
LINE
  8
5
 10
 39753.848
 20
  9124.615
 11
 39733.629
 21
  8922.424
  0
LINE
  8
5
 10
 41246.402
 20
  8975.360
 11
 41226.184
 21
  8773.168
  0
LINE
  8
3
 10
 41246.402
 20
  8975.360
 11
 41363.824
 21
  9138.703
  0
LINE
  8
3
 10
 41246.402
 20
  8975.360
 11
 41163.668
 21
  9158.729
  0
LINE
  8
3
 10
 41363.824
 20
  9138.703
 11
 41163.668
 21
  9158.729
  0
LINE
  8
5
 10
 42738.957
 20
  8826.104
 11
 42718.738
 21
  8623.912
  0
LINE
  8
5
 10
 44231.512
 20
  8676.849
 11
 44211.297
 21
  8474.657
  0
LINE
  8
3
 10
 44231.512
 20
  8676.849
 11
 44348.934
 21
  8840.192
  0
LINE
  8
3
 10
 44231.512
 20
  8676.849
 11
 44148.777
 21
  8860.217
  0
LINE
  8
3
 10
 44348.934
 20
  8840.192
 11
 44148.777
 21
  8860.217
  0
LINE
  8
5
 10
 45724.066
 20
  8527.593
 11
 45703.852
 21
  8325.401
  0
LINE
  8
5
 10
 47216.621
 20
  8378.338
 11
 47196.406
 21
  8176.146
  0
LINE
  8
3
 10
 47216.621
 20
  8378.338
 11
 47334.043
 21
  8541.682
  0
LINE
  8
3
 10
 47216.621
 20
  8378.338
 11
 47133.887
 21
  8561.706
  0
LINE
  8
3
 10
 47334.043
 20
  8541.682
 11
 47133.887
 21
  8561.706
  0
LINE
  8
5
 10
 48709.184
 20
  8229.082
 11
 48688.965
 21
  8026.891
  0
LINE
  8
5
 10
 50201.734
 20
  8079.826
 11
 50181.516
 21
  7877.635
  0
LINE
  8
3
 10
 50201.734
 20
  8079.826
 11
 50319.156
 21
  8243.170
  0
LINE
  8
3
 10
 50201.734
 20
  8079.826
 11
 50119.000
 21
  8263.194
  0
LINE
  8
3
 10
 50319.156
 20
  8243.170
 11
 50119.000
 21
  8263.194
  0
LINE
  8
5
 10
 51694.293
 20
  7930.571
 11
 51674.078
 21
  7728.379
  0
LINE
  8
5
 10
 53186.848
 20
  7781.315
 11
 53166.633
 21
  7579.124
  0
LINE
  8
3
 10
 53186.848
 20
  7781.315
 11
 53304.270
 21
  7944.659
  0
LINE
  8
3
 10
 53186.848
 20
  7781.315
 11
 53104.113
 21
  7964.684
  0
LINE
  8
3
 10
 53304.270
 20
  7944.659
 11
 53104.113
 21
  7964.684
  0
LINE
  8
5
 10
 54679.406
 20
  7632.060
 11
 54659.188
 21
  7429.868
  0
LINE
  8
5
 10
 56171.961
 20
  7482.804
 11
 56151.742
 21
  7280.612
  0
LINE
  8
3
 10
 56171.961
 20
  7482.804
 11
 56289.379
 21
  7646.148
  0
LINE
  8
3
 10
 56171.961
 20
  7482.804
 11
 56089.227
 21
  7666.172
  0
LINE
  8
3
 10
 56289.379
 20
  7646.148
 11
 56089.227
 21
  7666.172
  0
LINE
  8
5
 10
 57664.516
 20
  7333.549
 11
 57644.297
 21
  7131.357
  0
LINE
  8
5
 10
 59157.070
 20
  7184.292
 11
 59136.852
 21
  6982.101
  0
LINE
  8
3
 10
 59157.070
 20
  7184.292
 11
 59274.492
 21
  7347.636
  0
LINE
  8
3
 10
 59157.070
 20
  7184.292
 11
 59074.336
 21
  7367.661
  0
LINE
  8
3
 10
 59274.492
 20
  7347.636
 11
 59074.336
 21
  7367.661
  0
LINE
  8
5
 10
 60649.625
 20
  7035.037
 11
 60629.410
 21
  6832.845
  0
LINE
  8
8
 10
     0.000
 20
     0.000
 11
     0.000
 21
  7000.000
  0
LINE
  8
8
 10
     0.000
 20
  7000.000
 11
 30500.000
 21
 10050.000
  0
LINE
  8
8
 10
 30500.000
 20
 10050.000
 11
 61000.000
 21
  7000.000
  0
LINE
  8
8
 10
 61000.000
 20
  7000.000
 11
 61000.000
 21
     0.000
  0
LINE
  8
10
 10
   856.000
 20
  6466.528
 11
   856.000
 21
  6828.323
  0
LINE
  8
10
 10
 60144.000
 20
  6466.528
 11
 60144.000
 21
  6828.323
  0
LINE
  8
10
 10
 30106.303
 20
  8633.967
 11
 30106.303
 21
  9677.595
  0
LINE
  8
10
 10
 30893.701
 20
  8633.967
 11
 30893.701
 21
  9677.595
  0
LINE
  8
0
 10
 -3311.626
 20
-20256.961
 11
 64311.625
 21
-20256.961
  0
LINE
  8
0
 10
 64311.625
 20
-20256.961
 11
 64311.625
 21
 30460.477
  0
LINE
  8
0
 10
 64311.625
 20
 30460.477
 11
 -3311.626
 21
 30460.477
  0
LINE
  8
0
 10
 -3311.626
 20
 30460.477
 11
 -3311.626
 21
-20256.961
  0
LINE
  8
0
 10
 -3311.626
 20
-18583.285
 11
 64311.625
 21
-18583.285
  0
TEXT
  8
0
 10
 19342.162
 20
-19978.014
 40
  1115.784
  1
Rigid Frame 2 Design
 50
     0.000
  0
TEXT
  8
0
 10
 -2753.734
 20
-19978.014
 40
  1115.784
  1
C08-033
 50
     0.000
  0
TEXT
  8
0
 10
 51480.113
 20
-19978.014
 40
  1115.784
  1
23/APR/2026
 50
     0.000
  0
ENDSEC
  0
EOF
