999
SOURCE:MBS   PROGRAM:BRCDWG   CELL:BrcDwg   CLASS:ELEVATION   MODE:
  0
SECTION
  2
HEADER
  9
$ACADVER
  1
AC1009
  9
$EXTMIN
 10
0.00000000
 20
0.00000000
  9
$EXTMAX
 10
420.000000
 20
297.000000
  9
$LIMMIN
 10
0.00000000
 20
0.00000000
  9
$LIMMAX
 10
420.000000
 20
297.000000
  9
$FILLMODE
 70
     1
  9
$HANDLING
 70
     0
  0
ENDSEC
  0
SECTION
  2
TABLES
  0
TABLE
  2
LTYPE
 70
4
  0
LTYPE
  2
CONTIN
 70
   64
  3
SOLID LINE
  72
   65
 73
    0
 40
 0.000
  0
LTYPE
  2
CENTER
 70
   64
  3
____ _ ____ _ _
  72
   65
 73
    4
 40
25.400
 49
15.875
 49
-3.175
 49
 3.175
 49
-3.175
  0
LTYPE
  2
DASHED
 70
   64
  3
__ __ __ __ __
  72
   65
 73
    2
 40
 4.763
 49
 3.175
 49
-1.575
  0
LTYPE
  2
CONTINUOUS
 70
   64
  3
SOLID LINE
  72
   65
 73
    0
 40
 0.000
  0
ENDTAB
  0
TABLE
  2
LAYER
 70
27
  0
LAYER
  2
0
 70
     0
 62
     7
  6
CONTIN
  0
LAYER
  2
1
 70
     0
 62
     7
  6
CONTIN
  0
LAYER
  2
2
 70
     0
 62
     6
  6
CONTIN
  0
LAYER
  2
3
 70
     0
 62
     7
  6
CONTIN
  0
LAYER
  2
4
 70
     0
 62
     7
  6
CONTIN
  0
LAYER
  2
5
 70
     0
 62
     5
  6
DASHED
  0
LAYER
  2
6
 70
     0
 62
     6
  6
CONTIN
  0
LAYER
  2
7
 70
     0
 62
     7
  6
CONTIN
  0
LAYER
  2
8
 70
     0
 62
     8
  6
DASHED
  0
LAYER
  2
9
 70
     0
 62
     9
  6
DASHED
  0
LAYER
  2
10
 70
     0
 62
    10
  6
CONTIN
  0
LAYER
  2
11
 70
     0
 62
     7
  6
CONTIN
  0
LAYER
  2
12
 70
     0
 62
     6
  6
CONTIN
  0
LAYER
  2
13
 70
     0
 62
     1
  6
CONTIN
  0
LAYER
  2
14
 70
     0
 62
     7
  6
CONTIN
  0
LAYER
  2
15
 70
     0
 62
     7
  6
CONTIN
  0
LAYER
  2
16
 70
     0
 62
     7
  6
CONTIN
  0
LAYER
  2
17
 70
     0
 62
     5
  6
CONTIN
  0
LAYER
  2
18
 70
     0
 62
     7
  6
CONTIN
  0
LAYER
  2
19
 70
     0
 62
     7
  6
CONTIN
  0
LAYER
  2
20
 70
     0
 62
     7
  6
CONTIN
  0
LAYER
  2
21
 70
     0
 62
     7
  6
CONTIN
  0
LAYER
  2
22
 70
     0
 62
     7
  6
CONTIN
  0
LAYER
  2
23
 70
     0
 62
     7
  6
DASHED
  0
LAYER
  2
24
 70
     0
 62
     7
  6
CONTIN
  0
LAYER
  2
25
 70
     0
 62
     7
  6
CONTIN
  0
LAYER
  2
26
 70
     0
 62
     7
  6
CONTIN
  0
LAYER
  2
27
 70
     0
 62
     1
  6
CENTER
  0
ENDTAB
  0
TABLE
  2
STYLE
 70
  0
  0
STYLE
  2
SIMPLEX
 70
  0
 40
  0.000
 41
  1.000
 42
  1.000
 50
  0.000
 71
  0
  3
SIMPLEX
  0
STYLE
  2
ROMANS
 70
  0
 40
  0.000
 41
  1.000
 42
  1.000
 50
  0.000
 71
  0
  3
ROMANS
  0
STYLE
  2
OPEN
 70
  0
 40
  0.000
 41
  1.000
 42
  1.000
 50
  0.000
 71
  0
  3
SIMPLEX
  0
STYLE
  2
ARIAL
 70
  0
 40
  0.000
 41
  1.000
 42
  1.000
 50
  0.000
 71
  0
  3
ARIAL.TTF
  0
STYLE
  2
VERDANAB
 70
  0
 40
  0.000
 41
  1.000
 42
  1.000
 50
  0.000
 71
  0
  3
VERDANAB.TTF
  0
ENDTAB
  0
ENDSEC
  0
SECTION
  2
BLOCKS
  0
BLOCK
  8
0
  2
ARROW
 70
     0
 10
0.00000000
 20
0.00000000
  0
LINE
  8
0
 10
0.00000000
 20
0.00000000
 11
-1.8160998
 21
-0.3026833
  0
LINE
  8
0
 10
0.00000000
 20
0.00000000
 11
-1.8160998
 21
0.30268332
  0
LINE
  8
0
 10
-1.8160998
 20
0.30268332
 11
-1.8160998
 21
-0.3026833
  0
LINE
  8
0
 10
0.00000000
 20
0.00000000
 11
-2.5425399
 21
0.00000000
  0
ENDBLK
  8
0
  0
BLOCK
  8
0
  2
ARROWP
 70
     0
 10
0.00000000
 20
0.00000000
  0
LINE
  8
0
 10
0.00000000
 20
0.00000000
 11
-1.8160998
 21
-0.3026833
  0
LINE
  8
0
 10
0.00000000
 20
0.00000000
 11
-1.8160998
 21
0.30268332
  0
LINE
  8
0
 10
-1.8160998
 20
0.30268332
 11
-1.8160998
 21
-0.3026833
  0
ENDBLK
  8
0
  0
BLOCK
  8
0
  2
ARROWA
 70
     0
 10
0.00000000
 20
0.00000000
  0
LINE
  8
3
 10
1.81609992
 20
0.00000000
 11
0.00000000
 21
-0.3026833
  0
LINE
  8
3
 10
1.81609992
 20
0.00000000
 11
0.00000000
 21
0.30268332
  0
LINE
  8
3
 10
0.00000000
 20
0.30268332
 11
0.00000000
 21
-0.3026833
  0
ENDBLK
  8
0
  0
BLOCK
  8
0
  2
ARROWB
 70
     0
 10
0.00000000
 20
0.00000000
  0
LINE
  8
0
 10
0.00000000
 20
0.00000000
 11
-25.400000
 21
-4.2333317
  0
LINE
  8
0
 10
0.00000000
 20
0.00000000
 11
-25.400000
 21
4.23333168
  0
LINE
  8
0
 10
-25.400000
 20
4.23333168
 11
-25.400000
 21
-4.2333317
  0
LINE
  8
0
 10
0.00000000
 20
0.00000000
 11
-43.180000
 21
0.00000000
  0
ENDBLK
  8
0
  0
BLOCK
  8
2
  2
TICK
 70
     0
 10
0.00000000
 20
0.00000000
  0
LINE
  8
2
 10
-0.3492500
 20
-0.3492500
 11
0.34925000
 21
0.34925000
  0
ENDBLK
  8
2
  0
BLOCK
  8
0
  2
CIRCLE
 70
     0
 10
0.00000000
 20
0.00000000
  0
CIRCLE
  8
1
 10
    0.000
 20
    0.000
 40
   25.400
  0
ENDBLK
  8
3
  0
BLOCK
  8
0
  2
HEXAGON
 70
     0
 10
0.00000000
 20
0.00000000
  0
LINE
  8
0
 10
0.00000000
 20
0.00000000
 11
7.62000084
 21
-10.160000
  0
LINE
  8
0
 10
7.62000084
 20
-10.160000
 11
17.7799988
 21
-10.160000
  0
LINE
  8
0
 10
17.7799988
 20
-10.160000
 11
25.3999996
 21
0.00000000
  0
LINE
  8
0
 10
25.3999996
 20
0.00000000
 11
17.7799988
 21
10.1599999
  0
LINE
  8
0
 10
17.7799988
 20
10.1599999
 11
7.62000084
 21
10.1599999
  0
LINE
  8
0
 10
7.62000084
 20
10.1599999
 11
0.00000000
 21
0.00000000
  0
ENDBLK
  8
0
  0
BLOCK
  8
7
  2
CUTSEC
 70
     0
 10
0.00000000
 20
0.00000000
  0
LINE
  8
7
 10
-2.9336998
 20
0.00000000
 11
-0.6985001
 21
0.00000000
  0
LINE
  8
7
 10
0.69850000
 20
0.00000000
 11
2.93369984
 21
0.00000000
  0
LINE
  8
7
 10
2.93369984
 20
0.00000000
 11
2.93369984
 21
0.83820016
  0
INSERT
  8
7
  2
ARROWP
 10
2.93369984
 20
2.65429996
 41
1.00000000
 42
1.00000000
 43
1.00000000
 50
  90.000
  0
ENDBLK
  8
7
  0
BLOCK
  8
0
  2
WCOL
 70
     0
 10
0.00000000
 20
0.00000000
  0
LINE
  8
0
 10
-10.160000
 20
0.00000000
 11
10.1599999
 21
0.00000000
  0
LINE
  8
0
 10
0.00000000
 20
0.00000000
 11
0.00000000
 21
-25.400000
  0
LINE
  8
0
 10
-10.160000
 20
-25.400000
 11
10.1599999
 21
-25.400000
  0
ENDBLK
  8
0
  0
BLOCK
  8
0
  2
WCOL2
 70
     0
 10
0.00000000
 20
0.00000000
  0
LINE
  8
0
 10
-10.160000
 20
0.00000000
 11
10.1599999
 21
0.00000000
  0
LINE
  8
0
 10
0.00000000
 20
25.3999996
 11
0.00000000
 21
0.00000000
  0
ENDBLK
  8
0
  0
BLOCK
  8
0
  2
PCOL
 70
     0
 10
0.00000000
 20
0.00000000
  0
CIRCLE
  8
0
 10
0.00000000
 20
0.00000000
 40
12.6999998
  0
ENDBLK
  8
0
  0
BLOCK
  8
0
  2
ZCOL
 70
     0
 10
0.00000000
 20
0.00000000
  0
LINE
  8
0
 10
10.1599999
 20
-2.5400000
 11
10.1599999
 21
0.00000000
  0
LINE
  8
0
 10
10.1599999
 20
0.00000000
 11
0.00000000
 21
0.00000000
  0
LINE
  8
0
 10
0.00000000
 20
0.00000000
 11
0.00000000
 21
-25.400000
  0
LINE
  8
0
 10
0.00000000
 20
-25.400000
 11
-10.160000
 21
-25.400000
  0
LINE
  8
0
 10
-10.160000
 20
-25.400000
 11
-10.160000
 21
-22.859999
  0
ENDBLK
  8
0
  0
BLOCK
  8
0
  2
TCOL
 70
     0
 10
0.00000000
 20
0.00000000
  0
LINE
  8
0
 10
-12.700000
 20
-12.700000
 11
12.6999998
 21
-12.700000
  0
LINE
  8
0
 10
12.6999998
 20
-12.700000
 11
12.6999998
 21
12.6999998
  0
LINE
  8
0
 10
12.6999998
 20
12.6999998
 11
-12.700000
 21
12.6999998
  0
LINE
  8
0
 10
-12.700000
 20
12.6999998
 11
-12.700000
 21
-12.700000
  0
ENDBLK
  8
0
  0
BLOCK
  8
0
  2
SCCOL
 70
     0
 10
0.00000000
 20
0.00000000
  0
LINE
  8
0
 10
10.1599999
 20
-2.5400000
 11
10.1599999
 21
0.00000000
  0
LINE
  8
0
 10
10.1599999
 20
0.00000000
 11
0.00000000
 21
0.00000000
  0
LINE
  8
0
 10
0.00000000
 20
0.00000000
 11
0.00000000
 21
-25.400000
  0
LINE
  8
0
 10
0.00000000
 20
-25.400000
 11
10.1599999
 21
-25.400000
  0
LINE
  8
0
 10
10.1599999
 20
-25.400000
 11
10.1599999
 21
-22.859999
  0
ENDBLK
  8
0
  0
BLOCK
  8
0
  2
UCOL
 70
     0
 10
0.00000000
 20
0.00000000
  0
LINE
  8
0
 10
10.1599999
 20
0.00000000
 11
0.00000000
 21
0.00000000
  0
LINE
  8
0
 10
0.00000000
 20
0.00000000
 11
0.00000000
 21
-25.400000
  0
LINE
  8
0
 10
0.00000000
 20
-25.400000
 11
10.1599999
 21
-25.400000
  0
ENDBLK
  8
0
  0
BLOCK
  8
0
  2
DCCOL
 70
     0
 10
0.00000000
 20
0.00000000
  0
INSERT
  8
0
  2
SCCOL
 10
2.53999996
 20
0.00000000
 41
1.00000000
 42
1.00000000
 43
1.00000000
 50
   0.000
  0
INSERT
  8
0
  2
SCCOL
 10
-2.5400000
 20
0.00000000
 41
-1.0000000
 42
1.00000000
 43
1.00000000
 50
   0.000
  0
ENDBLK
  8
0
  0
BLOCK
  8
0
  2
GCOL
 70
     0
 10
0.00000000
 20
0.00000000
  0
LINE
  8
0
 10
10.1599999
 20
-2.5400000
 11
10.1599999
 21
0.00000000
  0
LINE
  8
0
 10
10.1599999
 20
0.00000000
 11
0.00000000
 21
0.00000000
  0
LINE
  8
0
 10
0.00000000
 20
0.00000000
 11
0.00000000
 21
-25.400000
  0
LINE
  8
0
 10
0.00000000
 20
-25.400000
 11
25.3999996
 21
-25.400000
  0
LINE
  8
0
 10
25.3999996
 20
-25.400000
 11
25.3999996
 21
-15.240001
  0
LINE
  8
0
 10
25.3999996
 20
-15.240001
 11
22.8599987
 21
-15.240001
  0
ENDBLK
  8
0
  0
BLOCK
  8
0
  2
BRACING
 70
     0
 10
0.00000000
 20
0.00000000
  0
LINE
  8
0
 10
0.00000000
 20
0.00000000
 11
0.00000000
 21
0.00000000
  0
LINE
  8
0
 10
0.00000000
 20
0.00000000
 11
0.00000000
 21
0.00000000
  0
LINE
  8
0
 10
0.00000000
 20
0.00000000
 11
0.00000000
 21
0.00000000
  0
LINE
  8
0
 10
0.00000000
 20
0.00000000
 11
0.00000000
 21
0.00000000
  0
ENDBLK
  8
0
  0
BLOCK
  8
1
  2
SW1TBL
 70
     0
 10
0.00000000
 20
0.00000000
  0
TEXT
  8
14
 7
SIMPLEX
 10
-55.006878
 20
-2.1828127
 40
1.74625000
  1
MEMBER TABLE
 50
   0.000
  0
TEXT
  8
14
 7
SIMPLEX
 10
-55.006878
 20
-4.8021875
 40
1.74625000
  1
Qty
 50
   0.000
  0
TEXT
  8
14
 7
SIMPLEX
 10
-47.148746
 20
-4.8021875
 40
1.74625000
  1
Mark
 50
   0.000
  0
TEXT
  8
14
 7
SIMPLEX
 10
-34.924995
 20
-4.8021875
 40
1.74625000
  1
Part
 50
   0.000
  0
TEXT
  8
14
 7
SIMPLEX
 10
-17.462496
 20
-4.8021875
 40
1.74625000
  1
Length
 50
   0.000
  0
LINE
  8
0
 10
-56.753124
 20
-5.2387505
 11
0.00000000
 21
-5.2387505
  0
LINE
  8
0
 10
-56.753124
 20
0.00000000
 11
0.00000000
 21
0.00000000
  0
LINE
  8
0
 10
-56.753124
 20
0.00000000
 11
-56.753124
 21
-5.2387505
  0
LINE
  8
0
 10
0.00000000
 20
0.00000000
 11
0.00000000
 21
-5.2387505
  0
LINE
  8
0
 10
-56.753124
 20
-2.6193753
 11
0.00000000
 21
-2.6193753
  0
LINE
  8
0
 10
-48.894997
 20
-2.6193753
 11
-48.894997
 21
-5.2387505
  0
LINE
  8
0
 10
-36.671246
 20
-2.6193753
 11
-36.671246
 21
-5.2387505
  0
LINE
  8
0
 10
-19.208748
 20
-2.6193753
 11
-19.208748
 21
-5.2387505
  0
LINE
  8
0
 10
-56.753124
 20
-5.2387505
 11
0.00000000
 21
-5.2387505
  0
ENDBLK
  8
1
  0
ENDSEC
  0
SECTION
  2
ENTITIES
  0
LINE
  8
22
 10
0.00000000
 20
0.00000000
 11
420.000000
 21
0.00000000
  0
LINE
  8
22
 10
420.000000
 20
0.00000000
 11
420.000000
 21
297.000000
  0
LINE
  8
22
 10
420.000000
 20
297.000000
 11
0.00000000
 21
297.000000
  0
LINE
  8
22
 10
0.00000000
 20
297.000000
 11
0.00000000
 21
0.00000000
  0
LINE
  8
0
 10
259.979981
 20
0.00000000
 11
259.979981
 21
26.6700020
  0
LINE
  8
0
 10
259.979981
 20
26.6700020
 11
420.000000
 21
26.6700020
  0
LINE
  8
0
 10
259.979981
 20
0.00000000
 11
420.000000
 21
0.00000000
  0
LINE
  8
0
 10
420.000000
 20
0.00000000
 11
420.000000
 21
26.6700020
  0
LINE
  8
0
 10
259.979981
 20
10.1599999
 11
420.000000
 21
10.1599999
  0
LINE
  8
0
 10
259.979981
 20
15.2399998
 11
420.000000
 21
15.2399998
  0
LINE
  8
0
 10
259.979981
 20
20.3199997
 11
420.000000
 21
20.3199997
  0
LINE
  8
0
 10
282.839996
 20
0.00000000
 11
282.839996
 21
20.3199997
  0
LINE
  8
0
 10
339.989990
 20
0.00000000
 11
339.989990
 21
20.3199997
  0
LINE
  8
0
 10
339.989990
 20
5.07999993
 11
420.000000
 21
5.07999993
  0
LINE
  8
0
 10
367.929993
 20
15.2399998
 11
367.929993
 21
10.1599999
  0
LINE
  8
0
 10
393.329987
 20
15.2399998
 11
393.329987
 21
10.1599999
  0
LINE
  8
0
 10
380.629974
 20
10.1599999
 11
380.629974
 21
5.07999993
  0
TEXT
  8
14
 7
SIMPLEX
 10
262.519959
 20
16.5100003
 40
2.53999996
  1
PROJECT
 50
   0.000
  0
TEXT
  8
14
 7
SIMPLEX
 10
262.519959
 20
11.4300003
 40
2.53999996
  1
ID
 50
   0.000
  0
TEXT
  8
14
 7
SIMPLEX
 10
262.519959
 20
6.34999992
 40
2.53999996
  1
PROJECT
 50
   0.000
  0
TEXT
  8
14
 7
SIMPLEX
 10
262.519959
 20
1.26999998
 40
2.53999996
  1
ADDRESS
 50
   0.000
  0
TEXT
  8
14
 7
SIMPLEX
 10
285.379974
 20
16.5100003
 40
2.53999996
  1
Proposed Warehouse
 50
   0.000
  0
TEXT
  8
14
 7
SIMPLEX
 10
285.379974
 20
11.4300003
 40
2.53999996
  1
C323-153
 50
   0.000
  0
TEXT
  8
14
 7
SIMPLEX
 10
285.379974
 20
6.34999992
 40
2.53999996
  1
Proposed Warehouse
 50
   0.000
  0
TEXT
  8
14
 7
SIMPLEX
 10
285.379974
 20
1.26999998
 40
2.53999996
  1
PINE
 50
   0.000
  0
TEXT
  8
14
 7
SIMPLEX
 10
279.664978
 20
21.5900002
 40
3.81000040
  1
RECLA INTERNATIONAL PRIVATE LIMITED
 50
   0.000
  0
TEXT
  8
14
 7
SIMPLEX
 10
342.529999
 20
16.5100003
 40
2.53999996
  1
BRACING DRAWING
 50
   0.000
  0
TEXT
  8
14
 7
SIMPLEX
 10
342.529999
 20
11.4300003
 40
2.53999996
  1
DESIGN:
 50
   0.000
  0
TEXT
  8
14
 7
SIMPLEX
 10
342.529999
 20
6.34999992
 40
2.53999996
  1
DATE:
 50
   0.000
  0
TEXT
  8
14
 7
SIMPLEX
 10
355.483978
 20
6.34999992
 40
2.53999996
  1
 7/AUG/2025
 50
   0.000
  0
TEXT
  8
14
 7
SIMPLEX
 10
370.470001
 20
11.4300003
 40
2.53999996
  1
DRAFT:
 50
   0.000
  0
TEXT
  8
14
 7
SIMPLEX
 10
395.869995
 20
11.4300003
 40
2.53999996
  1
CHECK:
 50
   0.000
  0
TEXT
  8
14
 7
SIMPLEX
 10
381.899994
 20
6.34999992
 40
2.53999996
  1
SHEET
 50
   0.000
  0
TEXT
  8
14
 7
SIMPLEX
 10
404.759979
 20
6.34999992
 40
2.53999996
  1
OF
 50
   0.000
  0
TEXT
  8
14
 7
SIMPLEX
 10
394.599976
 20
6.34999992
 40
2.53999996
  1
 
 50
   0.000
999
FIELD:@PAGE_ID
  0
TEXT
  8
14
 7
SIMPLEX
 10
409.839996
 20
6.34999992
 40
2.53999996
  1
 
 50
   0.000
999
FIELD:@PAGE_TOTAL
  0
INSERT
  8
0
  2
BRACING
 10
420.000000
 20
297.000000
 41
1.00000000
 42
1.00000000
 43
1.00000000
 50
   0.000
  0
ENDSEC
  0
EOF
