999
SOURCE:MBS   PROGRAM:EWSWDWG   CELL:EwDwg-R   CLASS:ELEVATION   MODE:
  0
SECTION
  2
HEADER
  9
$ACADVER
  1
AC1009
  9
$EXTMIN
 10
0.00000000
 20
0.00000000
  9
$EXTMAX
 10
47214.8047
 20
33387.6133
  9
$LIMMIN
 10
0.00000000
 20
0.00000000
  9
$LIMMAX
 10
47214.8047
 20
33387.6133
  9
$FILLMODE
 70
     1
  9
$HANDLING
 70
     0
  0
ENDSEC
  0
SECTION
  2
TABLES
  0
TABLE
  2
LTYPE
 70
4
  0
LTYPE
  2
CONTIN
 70
   64
  3
SOLID LINE
  72
   65
 73
    0
 40
 0.000
  0
LTYPE
  2
CENTER
 70
   64
  3
____ _ ____ _ _
  72
   65
 73
    4
 40
2855.4
 49
1784.6
 49
-356.9
 49
356.92
 49
-356.9
  0
LTYPE
  2
DASHED
 70
   64
  3
__ __ __ __ __
  72
   65
 73
    2
 40
535.38
 49
356.92
 49
-177.0
  0
LTYPE
  2
CONTINUOUS
 70
   64
  3
SOLID LINE
  72
   65
 73
    0
 40
 0.000
  0
ENDTAB
  0
TABLE
  2
LAYER
 70
27
  0
LAYER
  2
0
 70
     0
 62
     7
  6
CONTIN
  0
LAYER
  2
1
 70
     0
 62
     7
  6
CONTIN
  0
LAYER
  2
2
 70
     0
 62
     6
  6
CONTIN
  0
LAYER
  2
3
 70
     0
 62
     7
  6
CONTIN
  0
LAYER
  2
4
 70
     0
 62
     7
  6
CONTIN
  0
LAYER
  2
5
 70
     0
 62
     5
  6
DASHED
  0
LAYER
  2
6
 70
     0
 62
     6
  6
CONTIN
  0
LAYER
  2
7
 70
     0
 62
     7
  6
CONTIN
  0
LAYER
  2
8
 70
     0
 62
     8
  6
DASHED
  0
LAYER
  2
9
 70
     0
 62
     9
  6
DASHED
  0
LAYER
  2
10
 70
     0
 62
    10
  6
CONTIN
  0
LAYER
  2
11
 70
     0
 62
     7
  6
CONTIN
  0
LAYER
  2
12
 70
     0
 62
     6
  6
CONTIN
  0
LAYER
  2
13
 70
     0
 62
     1
  6
CONTIN
  0
LAYER
  2
14
 70
     0
 62
     7
  6
CONTIN
  0
LAYER
  2
15
 70
     0
 62
     7
  6
CONTIN
  0
LAYER
  2
16
 70
     0
 62
     7
  6
CONTIN
  0
LAYER
  2
17
 70
     0
 62
     5
  6
CONTIN
  0
LAYER
  2
18
 70
     0
 62
     7
  6
CONTIN
  0
LAYER
  2
19
 70
     0
 62
     7
  6
CONTIN
  0
LAYER
  2
20
 70
     0
 62
     7
  6
CONTIN
  0
LAYER
  2
21
 70
     0
 62
     7
  6
CONTIN
  0
LAYER
  2
22
 70
     0
 62
     7
  6
CONTIN
  0
LAYER
  2
23
 70
     0
 62
     7
  6
DASHED
  0
LAYER
  2
24
 70
     0
 62
     7
  6
CONTIN
  0
LAYER
  2
25
 70
     0
 62
     7
  6
CONTIN
  0
LAYER
  2
26
 70
     0
 62
     7
  6
CONTIN
  0
LAYER
  2
27
 70
     0
 62
     1
  6
CENTER
  0
ENDTAB
  0
TABLE
  2
STYLE
 70
  0
  0
STYLE
  2
SIMPLEX
 70
  0
 40
  0.000
 41
  1.000
 42
  1.000
 50
  0.000
 71
  0
  3
SIMPLEX
  0
STYLE
  2
ROMANS
 70
  0
 40
  0.000
 41
  1.000
 42
  1.000
 50
  0.000
 71
  0
  3
ROMANS
  0
STYLE
  2
OPEN
 70
  0
 40
  0.000
 41
  1.000
 42
  1.000
 50
  0.000
 71
  0
  3
SIMPLEX
  0
STYLE
  2
ARIAL
 70
  0
 40
  0.000
 41
  1.000
 42
  1.000
 50
  0.000
 71
  0
  3
ARIAL.TTF
  0
STYLE
  2
VERDANAB
 70
  0
 40
  0.000
 41
  1.000
 42
  1.000
 50
  0.000
 71
  0
  3
VERDANAB.TTF
  0
ENDTAB
  0
ENDSEC
  0
SECTION
  2
BLOCKS
  0
BLOCK
  8
0
  2
ARROWP
 70
     0
 10
0.00000000
 20
0.00000000
  0
LINE
  8
0
 10
0.00000000
 20
0.00000000
 11
-204.15907
 21
-34.026512
  0
LINE
  8
0
 10
0.00000000
 20
0.00000000
 11
-204.15907
 21
34.0265121
  0
LINE
  8
0
 10
-204.15907
 20
34.0265121
 11
-204.15907
 21
-34.026512
  0
ENDBLK
  8
0
  0
BLOCK
  8
0
  2
ARROW
 70
     0
 10
0.00000000
 20
0.00000000
  0
LINE
  8
0
 10
0.00000000
 20
0.00000000
 11
-204.15907
 21
-34.026512
  0
LINE
  8
0
 10
0.00000000
 20
0.00000000
 11
-204.15907
 21
34.0265121
  0
LINE
  8
0
 10
-204.15907
 20
34.0265121
 11
-204.15907
 21
-34.026512
  0
ENDBLK
  8
0
  0
BLOCK
  8
0
  2
MARKER
 70
     0
 10
0.00000000
 20
0.00000000
  0
LINE
  8
0
 10
0.00000000
 20
0.00000000
 11
25.3999996
 21
25.3999996
  0
LINE
  8
0
 10
25.3999996
 20
25.3999996
 11
-25.400000
 21
25.3999996
  0
LINE
  8
0
 10
-25.400000
 20
25.3999996
 11
0.00000000
 21
0.00000000
  0
ENDBLK
  8
0
  0
BLOCK
  8
0
  2
FLGCLP
 70
     0
 10
0.00000000
 20
0.00000000
  0
LINE
  8
0
 10
0.00000000
 20
0.00000000
 11
25.3999996
 21
25.3999996
  0
LINE
  8
0
 10
25.3999996
 20
25.3999996
 11
-25.400000
 21
25.3999996
  0
LINE
  8
0
 10
-25.400000
 20
25.3999996
 11
0.00000000
 21
0.00000000
  0
LINE
  8
0
 10
-8.4666672
 20
8.46666716
 11
8.46666716
 21
8.46666716
  0
LINE
  8
0
 10
-8.4666672
 20
8.46666716
 11
-8.4666672
 21
25.3999996
  0
LINE
  8
0
 10
8.46666716
 20
8.46666716
 11
8.46666716
 21
25.3999996
  0
ENDBLK
  8
0
  0
BLOCK
  8
0
  2
DIAMOND
 70
     0
 10
0.00000000
 20
0.00000000
  0
LINE
  8
0
 10
0.00000000
 20
0.00000000
 11
12.6999998
 21
12.6999998
  0
LINE
  8
0
 10
12.6999998
 20
12.6999998
 11
0.00000000
 21
25.3999996
  0
LINE
  8
0
 10
0.00000000
 20
25.3999996
 11
-12.700000
 21
12.6999998
  0
LINE
  8
0
 10
-12.700000
 20
12.6999998
 11
0.00000000
 21
0.00000000
  0
ENDBLK
  8
0
  0
BLOCK
  8
0
  2
SHIELD
 70
     0
 10
0.00000000
 20
0.00000000
  0
ARC
  8
0
 10
0.00000000
 20
38.0999985
 40
12.6999998
 50
   0.000
 51
 180.000
  0
LINE
  8
0
 10
-12.700000
 20
38.0999985
 11
-12.700000
 21
12.6999998
  0
LINE
  8
0
 10
-12.700000
 20
12.6999998
 11
0.00000000
 21
0.00000000
  0
LINE
  8
0
 10
0.00000000
 20
0.00000000
 11
12.6999998
 21
12.6999998
  0
LINE
  8
0
 10
12.6999998
 20
12.6999998
 11
12.6999998
 21
38.0999985
  0
ENDBLK
  8
0
  0
BLOCK
  8
0
  2
FINFLR
 70
     0
 10
0.00000000
 20
0.00000000
  0
LINE
  8
0
 10
0.00000000
 20
0.00000000
 11
12.6999998
 21
25.3999996
  0
LINE
  8
0
 10
12.6999998
 20
25.3999996
 11
-12.700000
 21
25.3999996
  0
LINE
  8
0
 10
-12.700000
 20
25.3999996
 11
0.00000000
 21
0.00000000
  0
LINE
  8
0
 10
0.00000000
 20
0.00000000
 11
0.00000000
 21
25.3999996
  0
SOLID
  8
0
 10
0.00000000
 20
0.00000000
 11
0.00000000
 21
25.3999996
 12
-12.700000
 22
25.3999996
 13
-12.700000
 23
25.3999996
  0
ENDBLK
  8
0
  0
BLOCK
  8
0
  2
CIRCLE
 70
     0
 10
0.00000000
 20
0.00000000
  0
CIRCLE
  8
1
 10
   0.000
 20
   0.000
 40
  25.400
  0
ENDBLK
  8
0
  0
BLOCK
  8
0
  2
HEXAGON
 70
     0
 10
0.00000000
 20
0.00000000
  0
LINE
  8
0
 10
0.00000000
 20
0.00000000
 11
7.62000084
 21
-10.160000
  0
LINE
  8
0
 10
7.62000084
 20
-10.160000
 11
17.7799988
 21
-10.160000
  0
LINE
  8
0
 10
17.7799988
 20
-10.160000
 11
25.3999996
 21
0.00000000
  0
LINE
  8
0
 10
25.3999996
 20
0.00000000
 11
17.7799988
 21
10.1599999
  0
LINE
  8
0
 10
17.7799988
 20
10.1599999
 11
7.62000084
 21
10.1599999
  0
LINE
  8
0
 10
7.62000084
 20
10.1599999
 11
0.00000000
 21
0.00000000
  0
ENDBLK
  8
0
  0
BLOCK
  8
0
  2
CCOL
 70
     0
 10
0.00000000
 20
0.00000000
  0
LINE
  8
0
 10
10.1599999
 20
-2.5400000
 11
10.1599999
 21
0.00000000
  0
LINE
  8
0
 10
10.1599999
 20
0.00000000
 11
0.00000000
 21
0.00000000
  0
LINE
  8
0
 10
0.00000000
 20
0.00000000
 11
0.00000000
 21
-25.400000
  0
LINE
  8
0
 10
0.00000000
 20
-25.400000
 11
10.1599999
 21
-25.400000
  0
LINE
  8
0
 10
10.1599999
 20
-25.400000
 11
10.1599999
 21
-22.859999
  0
ENDBLK
  8
0
  0
BLOCK
  8
0
  2
DCOL
 70
     0
 10
0.00000000
 20
0.00000000
  0
INSERT
  8
0
  2
CCOL
 10
2.53999996
 20
0.00000000
 41
1.00000000
 42
1.00000000
 43
1.00000000
 50
   0.000
  0
INSERT
  8
0
  2
CCOL
 10
-2.5400000
 20
0.00000000
 41
-1.0000000
 42
1.00000000
 43
1.00000000
 50
   0.000
  0
ENDBLK
  8
0
  0
BLOCK
  8
0
  2
UCOL
 70
     0
 10
0.00000000
 20
0.00000000
  0
LINE
  8
0
 10
10.1599999
 20
0.00000000
 11
0.00000000
 21
0.00000000
  0
LINE
  8
0
 10
0.00000000
 20
0.00000000
 11
0.00000000
 21
-25.400000
  0
LINE
  8
0
 10
0.00000000
 20
-25.400000
 11
10.1599999
 21
-25.400000
  0
ENDBLK
  8
0
  0
BLOCK
  8
0
  2
WCOL
 70
     0
 10
0.00000000
 20
0.00000000
  0
LINE
  8
0
 10
-10.160000
 20
0.00000000
 11
10.1599999
 21
0.00000000
  0
LINE
  8
0
 10
0.00000000
 20
0.00000000
 11
0.00000000
 21
-25.400000
  0
LINE
  8
0
 10
-10.160000
 20
-25.400000
 11
10.1599999
 21
-25.400000
  0
ENDBLK
  8
0
  0
BLOCK
  8
0
  2
ZCOL
 70
     0
 10
0.00000000
 20
0.00000000
  0
LINE
  8
0
 10
10.1599999
 20
-2.5400000
 11
10.1599999
 21
0.00000000
  0
LINE
  8
0
 10
10.1599999
 20
0.00000000
 11
0.00000000
 21
0.00000000
  0
LINE
  8
0
 10
0.00000000
 20
0.00000000
 11
0.00000000
 21
-25.400000
  0
LINE
  8
0
 10
0.00000000
 20
-25.400000
 11
-10.160000
 21
-25.400000
  0
LINE
  8
0
 10
-10.160000
 20
-25.400000
 11
-10.160000
 21
-22.859999
  0
ENDBLK
  8
0
  0
BLOCK
  8
0
  2
TCOL
 70
     0
 10
0.00000000
 20
0.00000000
  0
LINE
  8
0
 10
-12.700000
 20
-12.700000
 11
12.6999998
 21
-12.700000
  0
LINE
  8
0
 10
12.6999998
 20
-12.700000
 11
12.6999998
 21
12.6999998
  0
LINE
  8
0
 10
12.6999998
 20
12.6999998
 11
-12.700000
 21
12.6999998
  0
LINE
  8
0
 10
-12.700000
 20
12.6999998
 11
-12.700000
 21
-12.700000
  0
ENDBLK
  8
0
  0
BLOCK
  8
0
  2
TCOL2
 70
     0
 10
0.00000000
 20
0.00000000
  0
LINE
  8
0
 10
-6.3499999
 20
-12.700000
 11
6.34999992
 21
-12.700000
  0
LINE
  8
0
 10
6.34999992
 20
-12.700000
 11
6.34999992
 21
12.6999998
  0
LINE
  8
0
 10
6.34999992
 20
12.6999998
 11
-6.3499999
 21
12.6999998
  0
LINE
  8
0
 10
-6.3499999
 20
12.6999998
 11
-6.3499999
 21
-12.700000
  0
ENDBLK
  8
0
  0
BLOCK
  8
1
  2
PCOL
 70
     0
 10
0.00000000
 20
0.00000000
  0
CIRCLE
  8
1
 10
0.00000000
 20
0.00000000
 40
12.6999998
  0
ENDBLK
  8
1
  0
BLOCK
  8
0
  2
GCOL
 70
     0
 10
0.00000000
 20
0.00000000
  0
LINE
  8
0
 10
10.1599999
 20
-2.5400000
 11
10.1599999
 21
0.00000000
  0
LINE
  8
0
 10
10.1599999
 20
0.00000000
 11
0.00000000
 21
0.00000000
  0
LINE
  8
0
 10
0.00000000
 20
0.00000000
 11
0.00000000
 21
-25.400000
  0
LINE
  8
0
 10
0.00000000
 20
-25.400000
 11
25.3999996
 21
-25.400000
  0
LINE
  8
0
 10
25.3999996
 20
-25.400000
 11
25.3999996
 21
-15.240001
  0
LINE
  8
0
 10
25.3999996
 20
-15.240001
 11
22.8599987
 21
-15.240001
  0
ENDBLK
  8
0
  0
BLOCK
  8
0
  2
VSECTN
 70
     0
 10
0.00000000
 20
0.00000000
  0
LINE
  8
0
 10
-12.700000
 20
25.3999996
 11
12.6999998
 21
25.3999996
  0
LINE
  8
0
 10
-12.700000
 20
25.3999996
 11
0.00000000
 21
0.00000000
  0
LINE
  8
0
 10
0.00000000
 20
0.00000000
 11
12.6999998
 21
25.3999996
  0
ENDBLK
  8
0
  0
BLOCK
  8
0
  2
XCOL
 70
     0
 10
0.00000000
 20
0.00000000
  0
LINE
  8
0
 10
-14.287499
 20
1.58749996
 11
14.2874994
 21
1.58749996
  0
LINE
  8
0
 10
14.2874994
 20
1.58749996
 11
14.2874994
 21
-26.987499
  0
LINE
  8
0
 10
14.2874994
 20
-26.987499
 11
-14.287499
 21
-26.987499
  0
LINE
  8
0
 10
-14.287499
 20
-26.987499
 11
-14.287499
 21
1.58749996
  0
ENDBLK
  8
0
  0
BLOCK
  8
0
  2
SGUS
 70
     0
 10
0.00000000
 20
0.00000000
  0
LINE
  8
0
 10
0.00000000
 20
0.00000000
 11
7.62000084
 21
0.00000000
  0
LINE
  8
0
 10
7.62000084
 20
0.00000000
 11
17.7799988
 21
-25.400000
  0
LINE
  8
0
 10
17.7799988
 20
-25.400000
 11
25.3999996
 21
-25.400000
  0
ENDBLK
  8
0
  0
BLOCK
  8
7
  2
CUTSEC
 70
     0
 10
0.00000000
 20
0.00000000
  0
LINE
  8
7
 10
-329.79541
 20
0.00000000
 11
-78.522720
 21
0.00000000
  0
LINE
  8
7
 10
78.5227204
 20
0.00000000
 11
329.795410
 21
0.00000000
  0
LINE
  8
7
 10
329.795410
 20
0.00000000
 11
329.795410
 21
94.2272644
  0
INSERT
  8
7
  2
ARROWP
 10
329.795410
 20
298.386322
 41
1.00000000
 42
1.00000000
 43
1.00000000
 50
  90.000
  0
ENDBLK
  8
7
  0
BLOCK
  8
0
  2
WALLLITE
 70
     0
 10
0.00000000
 20
0.00000000
  0
LINE
  8
0
 10
25.3999996
 20
0.00000000
 11
0.00000000
 21
0.00000000
  0
LINE
  8
0
 10
0.00000000
 20
0.00000000
 11
0.00000000
 21
-25.400000
  0
LINE
  8
0
 10
0.00000000
 20
-25.400000
 11
25.3999996
 21
-25.400000
  0
LINE
  8
0
 10
25.3999996
 20
-25.400000
 11
25.3999996
 21
0.00000000
  0
LINE
  8
0
 10
0.00000000
 20
-25.400000
 11
0.00000000
 21
0.00000000
  0
LINE
  8
0
 10
6.34999992
 20
-25.400000
 11
6.34999992
 21
0.00000000
  0
LINE
  8
0
 10
12.6999998
 20
-25.400000
 11
12.6999998
 21
0.00000000
  0
LINE
  8
0
 10
19.0499992
 20
-25.400000
 11
19.0499992
 21
0.00000000
  0
ENDBLK
  8
0
  0
BLOCK
  8
7
  2
DETAIL
 70
     0
 10
0.00000000
 20
0.00000000
  0
CIRCLE
  8
7
 10
0.00000000
 20
0.00000000
 40
78.5227204
  0
LINE
  8
7
 10
78.5227204
 20
0.00000000
 11
345.499969
 21
0.00000000
  0
ENDBLK
  8
7
  0
BLOCK
  8
0
  2
EW1PNL
 70
     0
 10
0.00000000
 20
0.00000000
999
START:   AREA=Wideopen Outlines
999
END:     AREA=WideOpen Outlines
999
START:   AREA=Framed Opening Outlines
999
END:     AREA=Framed Opening Outlines
999
START:   AREA=Draw Adjacent Surfaces
999
END:     AREA=Draw Adjacent Surfaces
999
START:   AREA=Surface
  0
LINE
  8
5
 10
0.00000000
 20
0.00000000
 11
22470.0000
 21
0.00000000
  0
LINE
  8
5
 10
0.00000000
 20
0.00000000
 11
0.00000000
 21
8420.00000
  0
LINE
  8
5
 10
0.00000000
 20
8420.00000
 11
11235.0000
 21
9543.50000
  0
LINE
  8
5
 10
11235.0000
 20
9543.50000
 11
22470.0000
 21
8420.00000
  0
LINE
  8
5
 10
22470.0000
 20
8420.00000
 11
22470.0000
 21
0.00000000
999
END:     AREA=Surface
999
START:   AREA=Match Line
999
START:   AREA=Wall Panel
  0
LINE
  8
1
 10
-14.999860
 20
8410.00000
 11
985.000122
 21
8410.00000
  0
LINE
  8
1
 10
-14.999860
 20
2390.00000
 11
-14.999860
 21
8410.00000
  0
LINE
  8
1
 10
985.000122
 20
2390.00000
 11
985.000122
 21
8410.00000
  0
LINE
  8
1
 10
-14.999860
 20
2390.00000
 11
985.000122
 21
2390.00000
  0
TEXT
  8
3
 7
SIMPLEX
 10
583.153564
 20
5051.55518
 40
196.306808
  1
ES-1
 50
  90.000
  0
LINE
  8
1
 10
985.000122
 20
8508.50000
 11
1985.00012
 21
8508.50000
  0
LINE
  8
1
 10
985.000122
 20
2390.00000
 11
985.000122
 21
8508.50000
  0
LINE
  8
1
 10
1985.00012
 20
2390.00000
 11
1985.00012
 21
8508.50000
  0
LINE
  8
1
 10
985.000122
 20
2390.00000
 11
1985.00012
 21
2390.00000
  0
TEXT
  8
3
 7
SIMPLEX
 10
1583.15356
 20
5066.45166
 40
196.306808
  1
ES-2
 50
  90.000
  0
LINE
  8
1
 10
1985.00012
 20
8608.50000
 11
2985.00000
 21
8608.50000
  0
LINE
  8
1
 10
1985.00012
 20
2390.00000
 11
1985.00012
 21
8608.50000
  0
LINE
  8
1
 10
2985.00000
 20
2390.00000
 11
2985.00000
 21
8608.50000
  0
LINE
  8
1
 10
1985.00012
 20
2390.00000
 11
2985.00000
 21
2390.00000
  0
TEXT
  8
3
 7
SIMPLEX
 10
2583.15356
 20
5116.45166
 40
196.306808
  1
ES-3
 50
  90.000
  0
LINE
  8
1
 10
2985.00000
 20
8708.50000
 11
3985.00000
 21
8708.50000
  0
LINE
  8
1
 10
2985.00000
 20
2390.00000
 11
2985.00000
 21
8708.50000
  0
LINE
  8
1
 10
3985.00000
 20
2390.00000
 11
3985.00000
 21
8708.50000
  0
LINE
  8
1
 10
2985.00000
 20
2390.00000
 11
3985.00000
 21
2390.00000
  0
TEXT
  8
3
 7
SIMPLEX
 10
3583.15332
 20
5166.45166
 40
196.306808
  1
ES-4
 50
  90.000
  0
LINE
  8
1
 10
3985.00000
 20
8808.50000
 11
4985.00049
 21
8808.50000
  0
LINE
  8
1
 10
3985.00000
 20
2390.00000
 11
3985.00000
 21
8808.50000
  0
LINE
  8
1
 10
4985.00049
 20
2390.00000
 11
4985.00049
 21
8808.50000
  0
LINE
  8
1
 10
3985.00000
 20
2390.00000
 11
4985.00049
 21
2390.00000
  0
TEXT
  8
3
 7
SIMPLEX
 10
4583.15332
 20
5216.45166
 40
196.306808
  1
ES-5
 50
  90.000
  0
LINE
  8
1
 10
4985.00049
 20
8908.50000
 11
5985.00049
 21
8908.50000
  0
LINE
  8
1
 10
4985.00049
 20
2390.00000
 11
4985.00049
 21
8908.50000
  0
LINE
  8
1
 10
5985.00049
 20
2390.00000
 11
5985.00049
 21
8908.50000
  0
LINE
  8
1
 10
4985.00049
 20
2390.00000
 11
5985.00049
 21
2390.00000
  0
TEXT
  8
3
 7
SIMPLEX
 10
5583.15381
 20
5266.45166
 40
196.306808
  1
ES-6
 50
  90.000
  0
LINE
  8
1
 10
5985.00049
 20
9008.50000
 11
6985.00049
 21
9008.50000
  0
LINE
  8
1
 10
5985.00049
 20
2390.00000
 11
5985.00049
 21
9008.50000
  0
LINE
  8
1
 10
6985.00049
 20
2390.00000
 11
6985.00049
 21
9008.50000
  0
LINE
  8
1
 10
5985.00049
 20
2390.00000
 11
6985.00049
 21
2390.00000
  0
TEXT
  8
3
 7
SIMPLEX
 10
6583.15381
 20
5316.45117
 40
196.306808
  1
ES-7
 50
  90.000
  0
LINE
  8
1
 10
6985.00049
 20
9108.50000
 11
7985.00098
 21
9108.50000
  0
LINE
  8
1
 10
6985.00049
 20
2390.00000
 11
6985.00049
 21
9108.50000
  0
LINE
  8
1
 10
7985.00098
 20
2390.00000
 11
7985.00098
 21
9108.50000
  0
LINE
  8
1
 10
6985.00049
 20
2390.00000
 11
7985.00098
 21
2390.00000
  0
TEXT
  8
3
 7
SIMPLEX
 10
7583.15479
 20
5366.45166
 40
196.306808
  1
ES-8
 50
  90.000
  0
LINE
  8
1
 10
7985.00098
 20
9208.50000
 11
8985.00098
 21
9208.50000
  0
LINE
  8
1
 10
7985.00098
 20
2390.00000
 11
7985.00098
 21
9208.50000
  0
LINE
  8
1
 10
8985.00098
 20
2390.00000
 11
8985.00098
 21
9208.50000
  0
LINE
  8
1
 10
7985.00098
 20
2390.00000
 11
8985.00098
 21
2390.00000
  0
TEXT
  8
3
 7
SIMPLEX
 10
8583.15430
 20
5416.45166
 40
196.306808
  1
ES-9
 50
  90.000
  0
LINE
  8
1
 10
8985.00098
 20
9308.50000
 11
9985.00098
 21
9308.50000
  0
LINE
  8
1
 10
8985.00098
 20
2390.00000
 11
8985.00098
 21
9308.50000
  0
LINE
  8
1
 10
9985.00098
 20
2390.00000
 11
9985.00098
 21
9308.50000
  0
LINE
  8
1
 10
8985.00098
 20
2390.00000
 11
9985.00098
 21
2390.00000
  0
TEXT
  8
3
 7
SIMPLEX
 10
9583.15430
 20
5402.65234
 40
196.306808
  1
ES-10
 50
  90.000
  0
LINE
  8
1
 10
9985.00098
 20
9408.50000
 11
10985.0010
 21
9408.50000
  0
LINE
  8
1
 10
9985.00098
 20
2390.00000
 11
9985.00098
 21
9408.50000
  0
LINE
  8
1
 10
10985.0010
 20
2390.00000
 11
10985.0010
 21
9408.50000
  0
LINE
  8
1
 10
9985.00098
 20
2390.00000
 11
10985.0010
 21
2390.00000
  0
TEXT
  8
3
 7
SIMPLEX
 10
10583.1543
 20
5487.00586
 40
196.306808
  1
ES-11
 50
  90.000
  0
LINE
  8
1
 10
10735.0000
 20
9483.50000
 11
11735.0000
 21
9483.50000
  0
LINE
  8
1
 10
10735.0000
 20
2390.00000
 11
10735.0000
 21
9483.50000
  0
LINE
  8
1
 10
11735.0000
 20
2390.00000
 11
11735.0000
 21
9483.50000
  0
LINE
  8
1
 10
10735.0000
 20
2390.00000
 11
11735.0000
 21
2390.00000
  0
TEXT
  8
3
 7
SIMPLEX
 10
11333.1533
 20
5490.15186
 40
196.306808
  1
ES-12
 50
  90.000
  0
LINE
  8
1
 10
11485.0000
 20
9408.50000
 11
12485.0010
 21
9408.50000
  0
LINE
  8
1
 10
11485.0000
 20
2390.00000
 11
11485.0000
 21
9408.50000
  0
LINE
  8
1
 10
12485.0010
 20
2390.00000
 11
12485.0010
 21
9408.50000
  0
LINE
  8
1
 10
11485.0000
 20
2390.00000
 11
12485.0010
 21
2390.00000
  0
TEXT
  8
3
 7
SIMPLEX
 10
12083.1533
 20
5487.00586
 40
196.306808
  1
ES-11
 50
  90.000
  0
LINE
  8
1
 10
12485.0000
 20
9308.50000
 11
13485.0000
 21
9308.50000
  0
LINE
  8
1
 10
12485.0000
 20
2390.00000
 11
12485.0000
 21
9308.50000
  0
LINE
  8
1
 10
13485.0000
 20
2390.00000
 11
13485.0000
 21
9308.50000
  0
LINE
  8
1
 10
12485.0000
 20
2390.00000
 11
13485.0000
 21
2390.00000
  0
TEXT
  8
3
 7
SIMPLEX
 10
13083.1533
 20
5402.65234
 40
196.306808
  1
ES-10
 50
  90.000
  0
LINE
  8
1
 10
13485.0000
 20
9208.50000
 11
14484.9980
 21
9208.50000
  0
LINE
  8
1
 10
13485.0000
 20
2390.00000
 11
13485.0000
 21
9208.50000
  0
LINE
  8
1
 10
14484.9980
 20
2390.00000
 11
14484.9980
 21
9208.50000
  0
LINE
  8
1
 10
13485.0000
 20
2390.00000
 11
14484.9980
 21
2390.00000
  0
TEXT
  8
3
 7
SIMPLEX
 10
14083.1523
 20
5416.45166
 40
196.306808
  1
ES-9
 50
  90.000
  0
LINE
  8
1
 10
14484.9980
 20
9108.50000
 11
15484.9980
 21
9108.50000
  0
LINE
  8
1
 10
14484.9980
 20
2390.00000
 11
14484.9980
 21
9108.50000
  0
LINE
  8
1
 10
15484.9980
 20
2390.00000
 11
15484.9980
 21
9108.50000
  0
LINE
  8
1
 10
14484.9980
 20
2390.00000
 11
15484.9980
 21
2390.00000
  0
TEXT
  8
3
 7
SIMPLEX
 10
15083.1523
 20
5366.45166
 40
196.306808
  1
ES-8
 50
  90.000
  0
LINE
  8
1
 10
15484.9980
 20
9008.50000
 11
16484.9980
 21
9008.50000
  0
LINE
  8
1
 10
15484.9980
 20
2390.00000
 11
15484.9980
 21
9008.50000
  0
LINE
  8
1
 10
16484.9980
 20
2390.00000
 11
16484.9980
 21
9008.50000
  0
LINE
  8
1
 10
15484.9980
 20
2390.00000
 11
16484.9980
 21
2390.00000
  0
TEXT
  8
3
 7
SIMPLEX
 10
16083.1523
 20
5316.45166
 40
196.306808
  1
ES-7
 50
  90.000
  0
LINE
  8
1
 10
16484.9980
 20
8908.50000
 11
17484.9980
 21
8908.50000
  0
LINE
  8
1
 10
16484.9980
 20
2390.00000
 11
16484.9980
 21
8908.50000
  0
LINE
  8
1
 10
17484.9980
 20
2390.00000
 11
17484.9980
 21
8908.50000
  0
LINE
  8
1
 10
16484.9980
 20
2390.00000
 11
17484.9980
 21
2390.00000
  0
TEXT
  8
3
 7
SIMPLEX
 10
17083.1504
 20
5266.45166
 40
196.306808
  1
ES-6
 50
  90.000
  0
LINE
  8
1
 10
17484.9980
 20
8808.50000
 11
18484.9961
 21
8808.50000
  0
LINE
  8
1
 10
17484.9980
 20
2390.00000
 11
17484.9980
 21
8808.50000
  0
LINE
  8
1
 10
18484.9961
 20
2390.00000
 11
18484.9961
 21
8808.50000
  0
LINE
  8
1
 10
17484.9980
 20
2390.00000
 11
18484.9961
 21
2390.00000
  0
TEXT
  8
3
 7
SIMPLEX
 10
18083.1504
 20
5216.45166
 40
196.306808
  1
ES-5
 50
  90.000
  0
LINE
  8
1
 10
18484.9961
 20
8708.50000
 11
19484.9961
 21
8708.50000
  0
LINE
  8
1
 10
18484.9961
 20
2390.00000
 11
18484.9961
 21
8708.50000
  0
LINE
  8
1
 10
19484.9961
 20
2390.00000
 11
19484.9961
 21
8708.50000
  0
LINE
  8
1
 10
18484.9961
 20
2390.00000
 11
19484.9961
 21
2390.00000
  0
TEXT
  8
3
 7
SIMPLEX
 10
19083.1504
 20
5166.45166
 40
196.306808
  1
ES-4
 50
  90.000
  0
LINE
  8
1
 10
19484.9961
 20
8608.50000
 11
20484.9961
 21
8608.50000
  0
LINE
  8
1
 10
19484.9961
 20
2390.00000
 11
19484.9961
 21
8608.50000
  0
LINE
  8
1
 10
20484.9961
 20
2390.00000
 11
20484.9961
 21
8608.50000
  0
LINE
  8
1
 10
19484.9961
 20
2390.00000
 11
20484.9961
 21
2390.00000
  0
TEXT
  8
3
 7
SIMPLEX
 10
20083.1484
 20
5116.45166
 40
196.306808
  1
ES-3
 50
  90.000
  0
LINE
  8
1
 10
20484.9961
 20
8508.50000
 11
21484.9961
 21
8508.50000
  0
LINE
  8
1
 10
20484.9961
 20
2390.00000
 11
20484.9961
 21
8508.50000
  0
LINE
  8
1
 10
21484.9961
 20
2390.00000
 11
21484.9961
 21
8508.50000
  0
LINE
  8
1
 10
20484.9961
 20
2390.00000
 11
21484.9961
 21
2390.00000
  0
TEXT
  8
3
 7
SIMPLEX
 10
21083.1484
 20
5066.45166
 40
196.306808
  1
ES-2
 50
  90.000
  0
LINE
  8
1
 10
21484.9961
 20
8410.00000
 11
22484.9941
 21
8410.00000
  0
LINE
  8
1
 10
21484.9961
 20
2390.00000
 11
21484.9961
 21
8410.00000
  0
LINE
  8
1
 10
22484.9941
 20
2390.00000
 11
22484.9941
 21
8410.00000
  0
LINE
  8
1
 10
21484.9961
 20
2390.00000
 11
22484.9941
 21
2390.00000
  0
TEXT
  8
3
 7
SIMPLEX
 10
22083.1484
 20
5051.55518
 40
196.306808
  1
ES-1
 50
  90.000
999
END:     AREA=Wall Panel
999
START:   AREA=Panel Start Dim
  0
LINE
  8
12
 10
0.00000000
 20
-628.18176
 11
0.00000000
 21
-873.56519
  0
LINE
  8
12
 10
985.000122
 20
-628.18176
 11
985.000122
 21
-873.56519
  0
LINE
  8
2
 10
0.00000000
 20
-824.48859
 11
985.000122
 21
-824.48859
  0
INSERT
  8
2
  2
ARROW
 10
0.00000000
 20
-824.48859
 41
1.00000000
 42
1.00000000
 43
1.00000000
 50
 180.000
  0
INSERT
  8
2
  2
ARROW
 10
985.000122
 20
-824.48859
 41
1.00000000
 42
1.00000000
 43
1.00000000
 50
   0.000
  0
TEXT
  8
11
 7
SIMPLEX
 10
198.039871
 20
-759.05286
 40
196.306808
  1
985
 50
   0.000
  0
TEXT
  8
15
 7
SIMPLEX
 10
985.000122
 20
-1118.9486
 40
196.306808
  1
Panel Start
 50
   0.000
  0
LINE
  8
12
 10
21484.9961
 20
-628.18176
 11
21484.9961
 21
-873.56519
  0
LINE
  8
12
 10
22470.0000
 20
-628.18176
 11
22470.0000
 21
-873.56519
  0
LINE
  8
2
 10
21484.9961
 20
-824.48859
 11
22470.0000
 21
-824.48859
  0
INSERT
  8
2
  2
ARROW
 10
21484.9961
 20
-824.48859
 41
1.00000000
 42
1.00000000
 43
1.00000000
 50
 180.000
  0
INSERT
  8
2
  2
ARROW
 10
22470.0000
 20
-824.48859
 41
1.00000000
 42
1.00000000
 43
1.00000000
 50
   0.000
  0
TEXT
  8
11
 7
SIMPLEX
 10
21683.0371
 20
-759.05286
 40
196.306808
  1
985
 50
   0.000
  0
TEXT
  8
15
 7
SIMPLEX
 10
19472.8496
 20
-1118.9486
 40
196.306808
  1
Panel Start
 50
   0.000
999
END:     AREA=Draw Panel Start Dim
999
START:   AREA=Door Panel
999
END:     AREA=Door Panel
999
START:   AREA=Draw Base Trim
999
END:     AREA=Draw Base Trim
999
START:   AREA=Draw Adjacent Base Trim
  0
LINE
  8
1
 10
-800.22705
 20
2500.00000
 11
-564.65887
 21
2500.00000
  0
LINE
  8
1
 10
-564.65887
 20
2500.00000
 11
-564.65887
 21
8420.00000
  0
LINE
  8
1
 10
-564.65887
 20
8420.00000
 11
-800.22705
 21
8420.00000
  0
LINE
  8
1
 10
-800.22705
 20
8420.00000
 11
-800.22705
 21
2500.00000
  0
TEXT
  8
2
 7
SIMPLEX
 10
-1116.0356
 20
5386.38525
 40
147.230103
  1
1
 50
   0.000
  0
INSERT
  8
2
  2
DIAMOND
 10
-1068.1859
 20
5239.15479
 41
17.3893814
 42
17.3893814
 43
17.3893814
 50
   0.000
  0
LINE
  8
1
 10
23270.2207
 20
8420.00000
 11
23034.6523
 21
8420.00000
  0
LINE
  8
1
 10
23034.6523
 20
8420.00000
 11
23034.6523
 21
2500.00000
  0
LINE
  8
1
 10
23034.6523
 20
2500.00000
 11
23270.2207
 21
2500.00000
  0
LINE
  8
1
 10
23270.2207
 20
2500.00000
 11
23270.2207
 21
8420.00000
  0
TEXT
  8
2
 7
SIMPLEX
 10
23490.3301
 20
5386.38525
 40
147.230103
  1
1
 50
   0.000
  0
INSERT
  8
2
  2
DIAMOND
 10
23538.1797
 20
5239.15479
 41
17.3893814
 42
17.3893814
 43
17.3893814
 50
   0.000
  0
TEXT
  8
2
 7
SIMPLEX
 10
11161.3848
 20
2158.42627
 40
147.230103
  1
2
 50
   0.000
  0
INSERT
  8
2
  2
DIAMOND
 10
11235.0000
 20
2011.19617
 41
17.3893814
 42
17.3893814
 43
17.3893814
 50
   0.000
  0
LINE
  8
1
 10
273.465607
 20
8999.74707
 11
250.025696
 21
9234.14648
  0
LINE
  8
1
 10
250.025696
 20
9234.14648
 11
10828.7080
 21
10292.0146
  0
LINE
  8
1
 10
10828.7080
 20
10292.0146
 11
10852.1475
 21
10057.6162
  0
LINE
  8
1
 10
10852.1475
 20
10057.6162
 11
273.465607
 21
8999.74707
  0
TEXT
  8
2
 7
SIMPLEX
 10
5446.77930
 20
9949.13477
 40
147.230103
  1
3
 50
   5.711
  0
INSERT
  8
2
  2
DIAMOND
 10
5534.67822
 20
9809.96094
 41
17.3893814
 42
17.3893814
 43
17.3893814
 50
   5.711
  0
LINE
  8
1
 10
-54.693390
 20
8966.93164
 11
-78.133049
 21
9201.33008
  0
LINE
  8
1
 10
-78.133049
 20
9201.33008
 11
156.266068
 21
9224.77051
  0
LINE
  8
1
 10
156.266068
 20
9224.77051
 11
179.705719
 21
8990.37109
  0
LINE
  8
1
 10
179.705719
 20
8990.37109
 11
-54.693390
 21
8966.93164
  0
TEXT
  8
2
 7
SIMPLEX
 10
-53.521137
 20
9399.10449
 40
147.230103
  1
4
 50
   5.711
  0
INSERT
  8
2
  2
DIAMOND
 10
34.3785248
 20
9259.92969
 41
17.3893814
 42
17.3893814
 43
17.3893814
 50
   5.711
  0
LINE
  8
1
 10
11617.8525
 20
10057.6162
 11
11641.2920
 21
10292.0146
  0
LINE
  8
1
 10
11641.2920
 20
10292.0146
 11
22219.9746
 21
9234.14648
  0
LINE
  8
1
 10
22219.9746
 20
9234.14648
 11
22196.5352
 21
8999.74707
  0
LINE
  8
1
 10
22196.5352
 20
8999.74707
 11
11617.8525
 21
10057.6162
  0
TEXT
  8
2
 7
SIMPLEX
 10
16876.7227
 20
9963.78516
 40
147.230103
  1
3
 50
  -5.711
  0
INSERT
  8
2
  2
DIAMOND
 10
16935.3223
 20
9809.96094
 41
17.3893814
 42
17.3893814
 43
17.3893814
 50
  -5.711
  0
LINE
  8
1
 10
10999.4326
 20
10093.1592
 11
10999.4326
 21
10328.7275
  0
LINE
  8
1
 10
10999.4326
 20
10328.7275
 11
11470.5684
 21
10328.7275
  0
LINE
  8
1
 10
11470.5684
 20
10328.7275
 11
11470.5684
 21
10093.1592
  0
LINE
  8
1
 10
11470.5684
 20
10093.1592
 11
10999.4326
 21
10093.1592
  0
TEXT
  8
2
 7
SIMPLEX
 10
11161.3848
 20
10523.0713
 40
147.230103
  1
5
 50
   0.000
  0
INSERT
  8
2
  2
DIAMOND
 10
11235.0000
 20
10375.8408
 41
17.3893814
 42
17.3893814
 43
17.3893814
 50
   0.000
  0
LINE
  8
1
 10
22290.2949
 20
8990.37109
 11
22313.7344
 21
9224.77051
  0
LINE
  8
1
 10
22313.7344
 20
9224.77051
 11
22548.1328
 21
9201.33008
  0
LINE
  8
1
 10
22548.1328
 20
9201.33008
 11
22524.6953
 21
8966.93164
  0
LINE
  8
1
 10
22524.6953
 20
8966.93164
 11
22290.2949
 21
8990.37109
  0
TEXT
  8
2
 7
SIMPLEX
 10
22377.0234
 20
9413.75488
 40
147.230103
  1
6
 50
  -5.711
  0
INSERT
  8
2
  2
DIAMOND
 10
22435.6230
 20
9259.92969
 41
17.3893814
 42
17.3893814
 43
17.3893814
 50
  -5.711
999
START:   AREA=Draw Parapet Cap Trim
999
START:   AREA=Draw Framed Open Trim
999
END:     AREA=Draw Framed Open Trim
999
START:   AREA=Parapet Trim
999
END:     AREA=Parapet Trim
999
START:   AREA=Partial Wall Angles
  0
LINE
  8
5
 10
0.00000000
 20
0.00000000
 11
0.00000000
 21
2500.00000
  0
LINE
  8
5
 10
22470.0000
 20
0.00000000
 11
22470.0000
 21
2500.00000
  0
LINE
  8
5
 10
0.00000000
 20
2500.00000
 11
22470.0000
 21
2500.00000
999
END:     AREA=Partial Wall Angles
999
START:   AREA=Dimensions
  0
LINE
  8
2
 10
-2316.5305
 20
10501.4785
 11
-1677.3059
 21
10870.5352
  0
LINE
  8
2
 10
-2234.9272
 20
10548.5918
 11
-1758.9091
 21
10548.5918
  0
LINE
  8
2
 10
-1758.9091
 20
10823.4219
 11
-1758.9091
 21
10548.5918
  0
TEXT
  8
11
 7
SIMPLEX
 10
-1660.7556
 20
10548.5918
 40
196.306808
  1
10.0
 50
   0.000
  0
TEXT
  8
11
 7
SIMPLEX
 10
-2095.0713
 20
10254.1309
 40
196.306808
  1
100
 50
   0.000
  0
LINE
  8
2
 10
24786.5293
 20
10501.4785
 11
24147.3047
 21
10870.5352
  0
LINE
  8
2
 10
24704.9258
 20
10548.5918
 11
24228.9063
 21
10548.5918
  0
LINE
  8
2
 10
24228.9063
 20
10823.4219
 11
24228.9063
 21
10548.5918
  0
TEXT
  8
11
 7
SIMPLEX
 10
23443.6797
 20
10548.5918
 40
196.306808
  1
10.0
 50
   0.000
  0
TEXT
  8
11
 7
SIMPLEX
 10
24368.7617
 20
10254.1309
 40
196.306808
  1
100
 50
   0.000
999
START:   AREA=Draw End Grids
  0
LINE
  8
12
 10
0.00000000
 20
10801.8262
 11
0.00000000
 21
11131.6221
  0
CIRCLE
  8
13
 10
0.00000000
 20
11367.1895
 40
235.568146
  0
TEXT
  8
13
 7
SIMPLEX
 10
-106.00566
 20
11261.1836
 40
212.011322
  1
C
 72
           1
 11
0.00000000
 21
11261.1836
 50
   0.000
  0
LINE
  8
12
 10
22470.0000
 20
10801.8262
 11
22470.0000
 21
11131.6221
  0
CIRCLE
  8
13
 10
22470.0000
 20
11367.1895
 40
235.568146
  0
TEXT
  8
13
 7
SIMPLEX
 10
22363.9941
 20
11261.1836
 40
212.011322
  1
A
 72
           1
 11
22470.0000
 21
11261.1836
 50
   0.000
  0
LINE
  8
12
 10
11235.0000
 20
10801.8262
 11
11235.0000
 21
11131.6221
  0
CIRCLE
  8
13
 10
11235.0000
 20
11367.1895
 40
235.568146
  0
TEXT
  8
13
 7
SIMPLEX
 10
11128.9941
 20
11261.1836
 40
212.011322
  1
B
 72
           1
 11
11235.0000
 21
11261.1836
 50
   0.000
999
END:     AREA=Draw End Grids
999
END:     AREA=Dimensions
999
START:   AREA=Extensions
999
END:     AREA=Extensions
999
START:   AREA=Draw Panel Title
  0
TEXT
  8
15
 7
SIMPLEX
 10
5950.42090
 20
-1923.8066
 40
314.090881
  1
ENDWALL SHEETING & TRIM: FRAME LINE 1
 72
           1
 11
11235.0000
 21
-1923.8066
 50
   0.000
999
END:     AREA=Draw Panel Title
  0
ENDBLK
  8
0
  0
BLOCK
  8
0
  2
EW2PNL
 70
     0
 10
0.00000000
 20
0.00000000
999
START:   AREA=Wideopen Outlines
999
END:     AREA=WideOpen Outlines
999
START:   AREA=Framed Opening Outlines
  0
LINE
  8
1
 10
3368.00024
 20
-50.000000
 11
3368.00024
 21
4500.00000
  0
LINE
  8
1
 10
7868.00049
 20
-50.000000
 11
7868.00049
 21
4500.00000
  0
LINE
  8
1
 10
3368.00024
 20
4500.00000
 11
7868.00049
 21
4500.00000
999
END:     AREA=Framed Opening Outlines
999
START:   AREA=Draw Adjacent Surfaces
999
END:     AREA=Draw Adjacent Surfaces
999
START:   AREA=Surface
  0
LINE
  8
5
 10
0.00000000
 20
0.00000000
 11
22470.0000
 21
0.00000000
  0
LINE
  8
5
 10
0.00000000
 20
0.00000000
 11
0.00000000
 21
8420.00000
  0
LINE
  8
5
 10
0.00000000
 20
8420.00000
 11
11235.0000
 21
9543.50000
  0
LINE
  8
5
 10
11235.0000
 20
9543.50000
 11
22470.0000
 21
8420.00000
  0
LINE
  8
5
 10
22470.0000
 20
8420.00000
 11
22470.0000
 21
0.00000000
999
END:     AREA=Surface
999
START:   AREA=Match Line
999
START:   AREA=Wall Panel
  0
LINE
  8
1
 10
-14.999860
 20
5694.99951
 11
985.000122
 21
5694.99951
  0
LINE
  8
1
 10
-14.999860
 20
2390.00000
 11
-14.999860
 21
5694.99951
  0
LINE
  8
1
 10
985.000122
 20
2390.00000
 11
985.000122
 21
5694.99951
  0
LINE
  8
1
 10
-14.999860
 20
2390.00000
 11
985.000122
 21
2390.00000
  0
TEXT
  8
3
 7
SIMPLEX
 10
583.153564
 20
3595.90186
 40
196.306808
  1
ES-13
 50
  90.000
  0
LINE
  8
1
 10
985.000122
 20
5694.99951
 11
1985.00012
 21
5694.99951
  0
LINE
  8
1
 10
985.000122
 20
2390.00000
 11
985.000122
 21
5694.99951
  0
LINE
  8
1
 10
1985.00012
 20
2390.00000
 11
1985.00012
 21
5694.99951
  0
LINE
  8
1
 10
985.000122
 20
2390.00000
 11
1985.00012
 21
2390.00000
  0
TEXT
  8
3
 7
SIMPLEX
 10
1583.15356
 20
3361.17188
 40
196.306808
  1
ES-13
 50
  90.000
  0
LINE
  8
1
 10
1985.00012
 20
5694.99951
 11
2985.00000
 21
5694.99951
  0
LINE
  8
1
 10
1985.00012
 20
2390.00000
 11
1985.00012
 21
5694.99951
  0
LINE
  8
1
 10
2985.00000
 20
2390.00000
 11
2985.00000
 21
5694.99951
  0
LINE
  8
1
 10
1985.00012
 20
2390.00000
 11
2985.00000
 21
2390.00000
  0
TEXT
  8
3
 7
SIMPLEX
 10
2583.15356
 20
3361.17188
 40
196.306808
  1
ES-13
 50
  90.000
  0
LINE
  8
1
 10
2985.00000
 20
5694.99951
 11
3985.00000
 21
5694.99951
  0
LINE
  8
1
 10
2985.00000
 20
2390.00000
 11
2985.00000
 21
5694.99951
  0
LINE
  8
1
 10
3985.00000
 20
2390.00000
 11
3985.00000
 21
5694.99951
  0
LINE
  8
1
 10
2985.00000
 20
2390.00000
 11
3985.00000
 21
2390.00000
  0
TEXT
  8
3
 7
SIMPLEX
 10
3583.15332
 20
3361.17188
 40
196.306808
  1
ES-13
 50
  90.000
  0
LINE
  8
1
 10
-14.999860
 20
8410.00000
 11
985.000122
 21
8410.00000
  0
LINE
  8
1
 10
-14.999860
 20
5750.22461
 11
-14.999860
 21
8410.00000
  0
LINE
  8
1
 10
985.000122
 20
5750.22461
 11
985.000122
 21
8410.00000
  0
LINE
  8
1
 10
-14.999860
 20
5750.22461
 11
985.000122
 21
5750.22461
  0
TEXT
  8
3
 7
SIMPLEX
 10
583.153564
 20
6633.51367
 40
196.306808
  1
ES-14
 50
  90.000
  0
LINE
  8
1
 10
985.000122
 20
8508.50000
 11
1985.00012
 21
8508.50000
  0
LINE
  8
1
 10
985.000122
 20
5750.22461
 11
985.000122
 21
8508.50000
  0
LINE
  8
1
 10
1985.00012
 20
5750.22461
 11
1985.00012
 21
8508.50000
  0
LINE
  8
1
 10
985.000122
 20
5750.22461
 11
1985.00012
 21
5750.22461
  0
TEXT
  8
3
 7
SIMPLEX
 10
1583.15356
 20
6682.76416
 40
196.306808
  1
ES-15
 50
  90.000
  0
LINE
  8
1
 10
1985.00012
 20
8608.50000
 11
2985.00000
 21
8608.50000
  0
LINE
  8
1
 10
1985.00012
 20
5750.22461
 11
1985.00012
 21
8608.50000
  0
LINE
  8
1
 10
2985.00000
 20
5750.22461
 11
2985.00000
 21
8608.50000
  0
LINE
  8
1
 10
1985.00012
 20
5750.22461
 11
2985.00000
 21
5750.22461
  0
TEXT
  8
3
 7
SIMPLEX
 10
2583.15356
 20
6732.76416
 40
196.306808
  1
ES-16
 50
  90.000
  0
LINE
  8
1
 10
2985.00000
 20
8708.50000
 11
3985.00000
 21
8708.50000
  0
LINE
  8
1
 10
2985.00000
 20
5750.22461
 11
2985.00000
 21
8708.50000
  0
LINE
  8
1
 10
3985.00000
 20
5750.22461
 11
3985.00000
 21
8708.50000
  0
LINE
  8
1
 10
2985.00000
 20
5750.22461
 11
3985.00000
 21
5750.22461
  0
TEXT
  8
3
 7
SIMPLEX
 10
3583.15332
 20
6782.76416
 40
196.306808
  1
ES-17
 50
  90.000
  0
LINE
  8
1
 10
3985.00000
 20
5695.00049
 11
4985.00049
 21
5695.00049
  0
LINE
  8
1
 10
3985.00000
 20
4500.00000
 11
3985.00000
 21
5695.00049
  0
LINE
  8
1
 10
4985.00049
 20
4500.00000
 11
4985.00049
 21
5695.00049
  0
LINE
  8
1
 10
3985.00000
 20
4500.00000
 11
4985.00049
 21
4500.00000
  0
TEXT
  8
3
 7
SIMPLEX
 10
4583.15332
 20
4500.00000
 40
196.306808
  1
ES-18
 50
  90.000
  0
LINE
  8
1
 10
4985.00049
 20
5695.00049
 11
5985.00049
 21
5695.00049
  0
LINE
  8
1
 10
4985.00049
 20
4500.00000
 11
4985.00049
 21
5695.00049
  0
LINE
  8
1
 10
5985.00049
 20
4500.00000
 11
5985.00049
 21
5695.00049
  0
LINE
  8
1
 10
4985.00049
 20
4500.00000
 11
5985.00049
 21
4500.00000
  0
TEXT
  8
3
 7
SIMPLEX
 10
5583.15381
 20
4500.00000
 40
196.306808
  1
ES-18
 50
  90.000
  0
LINE
  8
1
 10
5985.00049
 20
5695.00049
 11
6985.00049
 21
5695.00049
  0
LINE
  8
1
 10
5985.00049
 20
4500.00000
 11
5985.00049
 21
5695.00049
  0
LINE
  8
1
 10
6985.00049
 20
4500.00000
 11
6985.00049
 21
5695.00049
  0
LINE
  8
1
 10
5985.00049
 20
4500.00000
 11
6985.00049
 21
4500.00000
  0
TEXT
  8
3
 7
SIMPLEX
 10
6583.15381
 20
4500.00000
 40
196.306808
  1
ES-18
 50
  90.000
  0
LINE
  8
1
 10
3985.00000
 20
8808.50000
 11
4985.00049
 21
8808.50000
  0
LINE
  8
1
 10
3985.00000
 20
5750.22461
 11
3985.00000
 21
8808.50000
  0
LINE
  8
1
 10
4985.00049
 20
5750.22461
 11
4985.00049
 21
8808.50000
  0
LINE
  8
1
 10
3985.00000
 20
5750.22461
 11
4985.00049
 21
5750.22461
  0
TEXT
  8
3
 7
SIMPLEX
 10
4583.15332
 20
6832.76416
 40
196.306808
  1
ES-19
 50
  90.000
  0
LINE
  8
1
 10
4985.00049
 20
8908.50000
 11
5985.00049
 21
8908.50000
  0
LINE
  8
1
 10
4985.00049
 20
5750.22461
 11
4985.00049
 21
8908.50000
  0
LINE
  8
1
 10
5985.00049
 20
5750.22461
 11
5985.00049
 21
8908.50000
  0
LINE
  8
1
 10
4985.00049
 20
5750.22461
 11
5985.00049
 21
5750.22461
  0
TEXT
  8
3
 7
SIMPLEX
 10
5583.15381
 20
6848.41064
 40
196.306808
  1
ES-20
 50
  90.000
  0
LINE
  8
1
 10
5985.00049
 20
9008.50000
 11
6985.00049
 21
9008.50000
  0
LINE
  8
1
 10
5985.00049
 20
5750.22461
 11
5985.00049
 21
9008.50000
  0
LINE
  8
1
 10
6985.00049
 20
5750.22461
 11
6985.00049
 21
9008.50000
  0
LINE
  8
1
 10
5985.00049
 20
5750.22461
 11
6985.00049
 21
5750.22461
  0
TEXT
  8
3
 7
SIMPLEX
 10
6583.15381
 20
6932.76367
 40
196.306808
  1
ES-21
 50
  90.000
  0
LINE
  8
1
 10
6985.00049
 20
5694.99951
 11
7985.00098
 21
5694.99951
  0
LINE
  8
1
 10
6985.00049
 20
2390.00000
 11
6985.00049
 21
5694.99951
  0
LINE
  8
1
 10
7985.00098
 20
2390.00000
 11
7985.00098
 21
5694.99951
  0
LINE
  8
1
 10
6985.00049
 20
2390.00000
 11
7985.00098
 21
2390.00000
  0
TEXT
  8
3
 7
SIMPLEX
 10
7583.15479
 20
3361.17188
 40
196.306808
  1
ES-13
 50
  90.000
  0
LINE
  8
1
 10
7985.00098
 20
5694.99951
 11
8985.00098
 21
5694.99951
  0
LINE
  8
1
 10
7985.00098
 20
2390.00000
 11
7985.00098
 21
5694.99951
  0
LINE
  8
1
 10
8985.00098
 20
2390.00000
 11
8985.00098
 21
5694.99951
  0
LINE
  8
1
 10
7985.00098
 20
2390.00000
 11
8985.00098
 21
2390.00000
  0
TEXT
  8
3
 7
SIMPLEX
 10
8583.15430
 20
3361.17188
 40
196.306808
  1
ES-13
 50
  90.000
  0
LINE
  8
1
 10
8985.00098
 20
5694.99951
 11
9985.00098
 21
5694.99951
  0
LINE
  8
1
 10
8985.00098
 20
2390.00000
 11
8985.00098
 21
5694.99951
  0
LINE
  8
1
 10
9985.00098
 20
2390.00000
 11
9985.00098
 21
5694.99951
  0
LINE
  8
1
 10
8985.00098
 20
2390.00000
 11
9985.00098
 21
2390.00000
  0
TEXT
  8
3
 7
SIMPLEX
 10
9583.15430
 20
3361.17188
 40
196.306808
  1
ES-13
 50
  90.000
  0
LINE
  8
1
 10
9985.00098
 20
5694.99951
 11
10985.0010
 21
5694.99951
  0
LINE
  8
1
 10
9985.00098
 20
2390.00000
 11
9985.00098
 21
5694.99951
  0
LINE
  8
1
 10
10985.0010
 20
2390.00000
 11
10985.0010
 21
5694.99951
  0
LINE
  8
1
 10
9985.00098
 20
2390.00000
 11
10985.0010
 21
2390.00000
  0
TEXT
  8
3
 7
SIMPLEX
 10
10583.1543
 20
3361.17188
 40
196.306808
  1
ES-13
 50
  90.000
  0
LINE
  8
1
 10
6985.00049
 20
9108.50000
 11
7985.00098
 21
9108.50000
  0
LINE
  8
1
 10
6985.00049
 20
5750.22461
 11
6985.00049
 21
9108.50000
  0
LINE
  8
1
 10
7985.00098
 20
5750.22461
 11
7985.00098
 21
9108.50000
  0
LINE
  8
1
 10
6985.00049
 20
5750.22461
 11
7985.00098
 21
5750.22461
  0
TEXT
  8
3
 7
SIMPLEX
 10
7583.15479
 20
6948.40967
 40
196.306808
  1
ES-22
 50
  90.000
  0
LINE
  8
1
 10
7985.00098
 20
9208.50000
 11
8985.00098
 21
9208.50000
  0
LINE
  8
1
 10
7985.00098
 20
5750.22461
 11
7985.00098
 21
9208.50000
  0
LINE
  8
1
 10
8985.00098
 20
5750.22461
 11
8985.00098
 21
9208.50000
  0
LINE
  8
1
 10
7985.00098
 20
5750.22461
 11
8985.00098
 21
5750.22461
  0
TEXT
  8
3
 7
SIMPLEX
 10
8583.15430
 20
6998.41016
 40
196.306808
  1
ES-23
 50
  90.000
  0
LINE
  8
1
 10
8985.00098
 20
9308.50000
 11
9985.00098
 21
9308.50000
  0
LINE
  8
1
 10
8985.00098
 20
5750.22461
 11
8985.00098
 21
9308.50000
  0
LINE
  8
1
 10
9985.00098
 20
5750.22461
 11
9985.00098
 21
9308.50000
  0
LINE
  8
1
 10
8985.00098
 20
5750.22461
 11
9985.00098
 21
5750.22461
  0
TEXT
  8
3
 7
SIMPLEX
 10
9583.15430
 20
7048.41016
 40
196.306808
  1
ES-24
 50
  90.000
  0
LINE
  8
1
 10
9985.00098
 20
9408.50000
 11
10985.0010
 21
9408.50000
  0
LINE
  8
1
 10
9985.00098
 20
5750.22461
 11
9985.00098
 21
9408.50000
  0
LINE
  8
1
 10
10985.0010
 20
5750.22461
 11
10985.0010
 21
9408.50000
  0
LINE
  8
1
 10
9985.00098
 20
5750.22461
 11
10985.0010
 21
5750.22461
  0
TEXT
  8
3
 7
SIMPLEX
 10
10583.1543
 20
7098.41016
 40
196.306808
  1
ES-25
 50
  90.000
  0
LINE
  8
1
 10
10735.0000
 20
5694.99951
 11
11735.0010
 21
5694.99951
  0
LINE
  8
1
 10
10735.0000
 20
2390.00000
 11
10735.0000
 21
5694.99951
  0
LINE
  8
1
 10
11735.0010
 20
2390.00000
 11
11735.0010
 21
5694.99951
  0
LINE
  8
1
 10
10735.0000
 20
2390.00000
 11
11735.0010
 21
2390.00000
  0
TEXT
  8
3
 7
SIMPLEX
 10
11333.1533
 20
3361.17188
 40
196.306808
  1
ES-13
 50
  90.000
  0
LINE
  8
1
 10
10735.0000
 20
9483.50000
 11
11735.0010
 21
9483.50000
  0
LINE
  8
1
 10
10735.0000
 20
5750.22461
 11
10735.0000
 21
9483.50000
  0
LINE
  8
1
 10
11735.0010
 20
5750.22461
 11
11735.0010
 21
9483.50000
  0
LINE
  8
1
 10
10735.0000
 20
5750.22461
 11
11735.0010
 21
5750.22461
  0
TEXT
  8
3
 7
SIMPLEX
 10
11333.1533
 20
7135.91016
 40
196.306808
  1
ES-26
 50
  90.000
  0
LINE
  8
1
 10
11485.0000
 20
5694.99951
 11
12485.0010
 21
5694.99951
  0
LINE
  8
1
 10
11485.0000
 20
2390.00000
 11
11485.0000
 21
5694.99951
  0
LINE
  8
1
 10
12485.0010
 20
2390.00000
 11
12485.0010
 21
5694.99951
  0
LINE
  8
1
 10
11485.0000
 20
2390.00000
 11
12485.0010
 21
2390.00000
  0
TEXT
  8
3
 7
SIMPLEX
 10
12083.1533
 20
3361.17188
 40
196.306808
  1
ES-13
 50
  90.000
  0
LINE
  8
1
 10
12485.0010
 20
5694.99951
 11
13485.0000
 21
5694.99951
  0
LINE
  8
1
 10
12485.0010
 20
2390.00000
 11
12485.0010
 21
5694.99951
  0
LINE
  8
1
 10
13485.0000
 20
2390.00000
 11
13485.0000
 21
5694.99951
  0
LINE
  8
1
 10
12485.0010
 20
2390.00000
 11
13485.0000
 21
2390.00000
  0
TEXT
  8
3
 7
SIMPLEX
 10
13083.1543
 20
3361.17188
 40
196.306808
  1
ES-13
 50
  90.000
  0
LINE
  8
1
 10
13485.0000
 20
5694.99951
 11
14485.0020
 21
5694.99951
  0
LINE
  8
1
 10
13485.0000
 20
2390.00000
 11
13485.0000
 21
5694.99951
  0
LINE
  8
1
 10
14485.0020
 20
2390.00000
 11
14485.0020
 21
5694.99951
  0
LINE
  8
1
 10
13485.0000
 20
2390.00000
 11
14485.0020
 21
2390.00000
  0
TEXT
  8
3
 7
SIMPLEX
 10
14083.1533
 20
3361.17188
 40
196.306808
  1
ES-13
 50
  90.000
  0
LINE
  8
1
 10
14485.0020
 20
5694.99951
 11
15485.0020
 21
5694.99951
  0
LINE
  8
1
 10
14485.0020
 20
2390.00000
 11
14485.0020
 21
5694.99951
  0
LINE
  8
1
 10
15485.0020
 20
2390.00000
 11
15485.0020
 21
5694.99951
  0
LINE
  8
1
 10
14485.0020
 20
2390.00000
 11
15485.0020
 21
2390.00000
  0
TEXT
  8
3
 7
SIMPLEX
 10
15083.1553
 20
3361.17188
 40
196.306808
  1
ES-13
 50
  90.000
  0
LINE
  8
1
 10
15485.0020
 20
5694.99951
 11
16485.0020
 21
5694.99951
  0
LINE
  8
1
 10
15485.0020
 20
2390.00000
 11
15485.0020
 21
5694.99951
  0
LINE
  8
1
 10
16485.0020
 20
2390.00000
 11
16485.0020
 21
5694.99951
  0
LINE
  8
1
 10
15485.0020
 20
2390.00000
 11
16485.0020
 21
2390.00000
  0
TEXT
  8
3
 7
SIMPLEX
 10
16083.1572
 20
3361.17188
 40
196.306808
  1
ES-13
 50
  90.000
  0
LINE
  8
1
 10
16485.0020
 20
5694.99951
 11
17485.0000
 21
5694.99951
  0
LINE
  8
1
 10
16485.0020
 20
2390.00000
 11
16485.0020
 21
5694.99951
  0
LINE
  8
1
 10
17485.0000
 20
2390.00000
 11
17485.0000
 21
5694.99951
  0
LINE
  8
1
 10
16485.0020
 20
2390.00000
 11
17485.0000
 21
2390.00000
  0
TEXT
  8
3
 7
SIMPLEX
 10
17083.1563
 20
3361.17188
 40
196.306808
  1
ES-13
 50
  90.000
  0
LINE
  8
1
 10
17485.0000
 20
5694.99951
 11
18485.0020
 21
5694.99951
  0
LINE
  8
1
 10
17485.0000
 20
2390.00000
 11
17485.0000
 21
5694.99951
  0
LINE
  8
1
 10
18485.0020
 20
2390.00000
 11
18485.0020
 21
5694.99951
  0
LINE
  8
1
 10
17485.0000
 20
2390.00000
 11
18485.0020
 21
2390.00000
  0
TEXT
  8
3
 7
SIMPLEX
 10
18083.1543
 20
3361.17188
 40
196.306808
  1
ES-13
 50
  90.000
  0
LINE
  8
1
 10
18485.0020
 20
5694.99951
 11
19485.0020
 21
5694.99951
  0
LINE
  8
1
 10
18485.0020
 20
2390.00000
 11
18485.0020
 21
5694.99951
  0
LINE
  8
1
 10
19485.0020
 20
2390.00000
 11
19485.0020
 21
5694.99951
  0
LINE
  8
1
 10
18485.0020
 20
2390.00000
 11
19485.0020
 21
2390.00000
  0
TEXT
  8
3
 7
SIMPLEX
 10
19083.1563
 20
3361.17188
 40
196.306808
  1
ES-13
 50
  90.000
  0
LINE
  8
1
 10
19485.0020
 20
5694.99951
 11
20485.0039
 21
5694.99951
  0
LINE
  8
1
 10
19485.0020
 20
2390.00000
 11
19485.0020
 21
5694.99951
  0
LINE
  8
1
 10
20485.0039
 20
2390.00000
 11
20485.0039
 21
5694.99951
  0
LINE
  8
1
 10
19485.0020
 20
2390.00000
 11
20485.0039
 21
2390.00000
  0
TEXT
  8
3
 7
SIMPLEX
 10
20083.1563
 20
3361.17188
 40
196.306808
  1
ES-13
 50
  90.000
  0
LINE
  8
1
 10
20485.0020
 20
5694.99951
 11
21485.0020
 21
5694.99951
  0
LINE
  8
1
 10
20485.0020
 20
2390.00000
 11
20485.0020
 21
5694.99951
  0
LINE
  8
1
 10
21485.0020
 20
2390.00000
 11
21485.0020
 21
5694.99951
  0
LINE
  8
1
 10
20485.0020
 20
2390.00000
 11
21485.0020
 21
2390.00000
  0
TEXT
  8
3
 7
SIMPLEX
 10
21083.1563
 20
3361.17188
 40
196.306808
  1
ES-13
 50
  90.000
  0
LINE
  8
1
 10
21485.0020
 20
5694.99951
 11
22485.0020
 21
5694.99951
  0
LINE
  8
1
 10
21485.0020
 20
2390.00000
 11
21485.0020
 21
5694.99951
  0
LINE
  8
1
 10
22485.0020
 20
2390.00000
 11
22485.0020
 21
5694.99951
  0
LINE
  8
1
 10
21485.0020
 20
2390.00000
 11
22485.0020
 21
2390.00000
  0
TEXT
  8
3
 7
SIMPLEX
 10
22083.1563
 20
3361.17188
 40
196.306808
  1
ES-13
 50
  90.000
  0
LINE
  8
1
 10
11485.0000
 20
9408.50000
 11
12485.0010
 21
9408.50000
  0
LINE
  8
1
 10
11485.0000
 20
5750.22461
 11
11485.0000
 21
9408.50000
  0
LINE
  8
1
 10
12485.0010
 20
5750.22461
 11
12485.0010
 21
9408.50000
  0
LINE
  8
1
 10
11485.0000
 20
5750.22461
 11
12485.0010
 21
5750.22461
  0
TEXT
  8
3
 7
SIMPLEX
 10
12083.1533
 20
7098.41016
 40
196.306808
  1
ES-25
 50
  90.000
  0
LINE
  8
1
 10
12485.0000
 20
9308.50000
 11
13485.0000
 21
9308.50000
  0
LINE
  8
1
 10
12485.0000
 20
5750.22461
 11
12485.0000
 21
9308.50000
  0
LINE
  8
1
 10
13485.0000
 20
5750.22461
 11
13485.0000
 21
9308.50000
  0
LINE
  8
1
 10
12485.0000
 20
5750.22461
 11
13485.0000
 21
5750.22461
  0
TEXT
  8
3
 7
SIMPLEX
 10
13083.1533
 20
7048.41016
 40
196.306808
  1
ES-24
 50
  90.000
  0
LINE
  8
1
 10
13485.0000
 20
9208.50000
 11
14484.9980
 21
9208.50000
  0
LINE
  8
1
 10
13485.0000
 20
5750.22461
 11
13485.0000
 21
9208.50000
  0
LINE
  8
1
 10
14484.9980
 20
5750.22461
 11
14484.9980
 21
9208.50000
  0
LINE
  8
1
 10
13485.0000
 20
5750.22461
 11
14484.9980
 21
5750.22461
  0
TEXT
  8
3
 7
SIMPLEX
 10
14083.1523
 20
6998.41016
 40
196.306808
  1
ES-23
 50
  90.000
  0
LINE
  8
1
 10
14484.9980
 20
9108.50000
 11
15484.9980
 21
9108.50000
  0
LINE
  8
1
 10
14484.9980
 20
5750.22461
 11
14484.9980
 21
9108.50000
  0
LINE
  8
1
 10
15484.9980
 20
5750.22461
 11
15484.9980
 21
9108.50000
  0
LINE
  8
1
 10
14484.9980
 20
5750.22461
 11
15484.9980
 21
5750.22461
  0
TEXT
  8
3
 7
SIMPLEX
 10
15083.1523
 20
6948.41064
 40
196.306808
  1
ES-22
 50
  90.000
  0
LINE
  8
1
 10
15484.9980
 20
9008.50000
 11
16484.9980
 21
9008.50000
  0
LINE
  8
1
 10
15484.9980
 20
5750.22461
 11
15484.9980
 21
9008.50000
  0
LINE
  8
1
 10
16484.9980
 20
5750.22461
 11
16484.9980
 21
9008.50000
  0
LINE
  8
1
 10
15484.9980
 20
5750.22461
 11
16484.9980
 21
5750.22461
  0
TEXT
  8
3
 7
SIMPLEX
 10
16083.1523
 20
6932.76416
 40
196.306808
  1
ES-21
 50
  90.000
  0
LINE
  8
1
 10
16484.9980
 20
8908.50000
 11
17484.9980
 21
8908.50000
  0
LINE
  8
1
 10
16484.9980
 20
5750.22461
 11
16484.9980
 21
8908.50000
  0
LINE
  8
1
 10
17484.9980
 20
5750.22461
 11
17484.9980
 21
8908.50000
  0
LINE
  8
1
 10
16484.9980
 20
5750.22461
 11
17484.9980
 21
5750.22461
  0
TEXT
  8
3
 7
SIMPLEX
 10
17083.1504
 20
6848.41064
 40
196.306808
  1
ES-20
 50
  90.000
  0
LINE
  8
1
 10
17484.9980
 20
8808.50000
 11
18484.9961
 21
8808.50000
  0
LINE
  8
1
 10
17484.9980
 20
5750.22461
 11
17484.9980
 21
8808.50000
  0
LINE
  8
1
 10
18484.9961
 20
5750.22461
 11
18484.9961
 21
8808.50000
  0
LINE
  8
1
 10
17484.9980
 20
5750.22461
 11
18484.9961
 21
5750.22461
  0
TEXT
  8
3
 7
SIMPLEX
 10
18083.1504
 20
6832.76416
 40
196.306808
  1
ES-19
 50
  90.000
  0
LINE
  8
1
 10
18484.9961
 20
8708.50000
 11
19484.9961
 21
8708.50000
  0
LINE
  8
1
 10
18484.9961
 20
5750.22461
 11
18484.9961
 21
8708.50000
  0
LINE
  8
1
 10
19484.9961
 20
5750.22461
 11
19484.9961
 21
8708.50000
  0
LINE
  8
1
 10
18484.9961
 20
5750.22461
 11
19484.9961
 21
5750.22461
  0
TEXT
  8
3
 7
SIMPLEX
 10
19083.1504
 20
6782.76416
 40
196.306808
  1
ES-17
 50
  90.000
  0
LINE
  8
1
 10
19484.9961
 20
8608.50000
 11
20484.9961
 21
8608.50000
  0
LINE
  8
1
 10
19484.9961
 20
5750.22461
 11
19484.9961
 21
8608.50000
  0
LINE
  8
1
 10
20484.9961
 20
5750.22461
 11
20484.9961
 21
8608.50000
  0
LINE
  8
1
 10
19484.9961
 20
5750.22461
 11
20484.9961
 21
5750.22461
  0
TEXT
  8
3
 7
SIMPLEX
 10
20083.1484
 20
6732.76416
 40
196.306808
  1
ES-16
 50
  90.000
  0
LINE
  8
1
 10
20484.9961
 20
8508.50000
 11
21484.9961
 21
8508.50000
  0
LINE
  8
1
 10
20484.9961
 20
5750.22461
 11
20484.9961
 21
8508.50000
  0
LINE
  8
1
 10
21484.9961
 20
5750.22461
 11
21484.9961
 21
8508.50000
  0
LINE
  8
1
 10
20484.9961
 20
5750.22461
 11
21484.9961
 21
5750.22461
  0
TEXT
  8
3
 7
SIMPLEX
 10
21083.1484
 20
6682.76416
 40
196.306808
  1
ES-15
 50
  90.000
  0
LINE
  8
1
 10
21484.9961
 20
8410.00000
 11
22484.9941
 21
8410.00000
  0
LINE
  8
1
 10
21484.9961
 20
5750.22461
 11
21484.9961
 21
8410.00000
  0
LINE
  8
1
 10
22484.9941
 20
5750.22461
 11
22484.9941
 21
8410.00000
  0
LINE
  8
1
 10
21484.9961
 20
5750.22461
 11
22484.9941
 21
5750.22461
  0
TEXT
  8
3
 7
SIMPLEX
 10
22083.1484
 20
6633.51367
 40
196.306808
  1
ES-14
 50
  90.000
999
END:     AREA=Wall Panel
999
START:   AREA=Panel Start Dim
  0
LINE
  8
12
 10
0.00000000
 20
-628.18176
 11
0.00000000
 21
-873.56519
  0
LINE
  8
12
 10
985.000122
 20
-628.18176
 11
985.000122
 21
-873.56519
  0
LINE
  8
2
 10
0.00000000
 20
-824.48859
 11
985.000122
 21
-824.48859
  0
INSERT
  8
2
  2
ARROW
 10
0.00000000
 20
-824.48859
 41
1.00000000
 42
1.00000000
 43
1.00000000
 50
 180.000
  0
INSERT
  8
2
  2
ARROW
 10
985.000122
 20
-824.48859
 41
1.00000000
 42
1.00000000
 43
1.00000000
 50
   0.000
  0
TEXT
  8
11
 7
SIMPLEX
 10
198.039871
 20
-759.05286
 40
196.306808
  1
985
 50
   0.000
  0
TEXT
  8
15
 7
SIMPLEX
 10
985.000122
 20
-1118.9486
 40
196.306808
  1
Panel Start
 50
   0.000
  0
LINE
  8
12
 10
21485.0020
 20
-628.18176
 11
21485.0020
 21
-873.56519
  0
LINE
  8
12
 10
22470.0000
 20
-628.18176
 11
22470.0000
 21
-873.56519
  0
LINE
  8
2
 10
21485.0020
 20
-824.48859
 11
22470.0000
 21
-824.48859
  0
INSERT
  8
2
  2
ARROW
 10
21485.0020
 20
-824.48859
 41
1.00000000
 42
1.00000000
 43
1.00000000
 50
 180.000
  0
INSERT
  8
2
  2
ARROW
 10
22470.0000
 20
-824.48859
 41
1.00000000
 42
1.00000000
 43
1.00000000
 50
   0.000
  0
TEXT
  8
11
 7
SIMPLEX
 10
21683.0410
 20
-759.05286
 40
196.306808
  1
985
 50
   0.000
  0
TEXT
  8
15
 7
SIMPLEX
 10
19472.8555
 20
-1118.9486
 40
196.306808
  1
Panel Start
 50
   0.000
999
END:     AREA=Draw Panel Start Dim
999
START:   AREA=Door Panel
999
END:     AREA=Door Panel
999
START:   AREA=Draw Base Trim
999
END:     AREA=Draw Base Trim
999
START:   AREA=Draw Adjacent Base Trim
  0
LINE
  8
1
 10
-800.22705
 20
2500.00000
 11
-564.65887
 21
2500.00000
  0
LINE
  8
1
 10
-564.65887
 20
2500.00000
 11
-564.65887
 21
8420.00000
  0
LINE
  8
1
 10
-564.65887
 20
8420.00000
 11
-800.22705
 21
8420.00000
  0
LINE
  8
1
 10
-800.22705
 20
8420.00000
 11
-800.22705
 21
2500.00000
  0
TEXT
  8
2
 7
SIMPLEX
 10
-1116.0356
 20
5386.38525
 40
147.230103
  1
1
 50
   0.000
  0
INSERT
  8
2
  2
DIAMOND
 10
-1068.1859
 20
5239.15479
 41
17.3893814
 42
17.3893814
 43
17.3893814
 50
   0.000
  0
LINE
  8
1
 10
23270.2207
 20
8420.00000
 11
23034.6523
 21
8420.00000
  0
LINE
  8
1
 10
23034.6523
 20
8420.00000
 11
23034.6523
 21
2500.00000
  0
LINE
  8
1
 10
23034.6523
 20
2500.00000
 11
23270.2207
 21
2500.00000
  0
LINE
  8
1
 10
23270.2207
 20
2500.00000
 11
23270.2207
 21
8420.00000
  0
TEXT
  8
2
 7
SIMPLEX
 10
23490.3301
 20
5386.38525
 40
147.230103
  1
1
 50
   0.000
  0
INSERT
  8
2
  2
DIAMOND
 10
23538.1797
 20
5239.15479
 41
17.3893814
 42
17.3893814
 43
17.3893814
 50
   0.000
  0
TEXT
  8
2
 7
SIMPLEX
 10
1610.38501
 20
2158.42627
 40
147.230103
  1
7
 50
   0.000
  0
INSERT
  8
2
  2
DIAMOND
 10
1684.00012
 20
2011.19617
 41
17.3893814
 42
17.3893814
 43
17.3893814
 50
   0.000
  0
LINE
  8
1
 10
273.465607
 20
8999.74707
 11
250.025696
 21
9234.14648
  0
LINE
  8
1
 10
250.025696
 20
9234.14648
 11
10828.7080
 21
10292.0146
  0
LINE
  8
1
 10
10828.7080
 20
10292.0146
 11
10852.1475
 21
10057.6162
  0
LINE
  8
1
 10
10852.1475
 20
10057.6162
 11
273.465607
 21
8999.74707
  0
TEXT
  8
2
 7
SIMPLEX
 10
5446.77930
 20
9949.13477
 40
147.230103
  1
3
 50
   5.711
  0
INSERT
  8
2
  2
DIAMOND
 10
5534.67822
 20
9809.96094
 41
17.3893814
 42
17.3893814
 43
17.3893814
 50
   5.711
  0
LINE
  8
1
 10
-54.693390
 20
8966.93164
 11
-78.133049
 21
9201.33008
  0
LINE
  8
1
 10
-78.133049
 20
9201.33008
 11
156.266068
 21
9224.77051
  0
LINE
  8
1
 10
156.266068
 20
9224.77051
 11
179.705719
 21
8990.37109
  0
LINE
  8
1
 10
179.705719
 20
8990.37109
 11
-54.693390
 21
8966.93164
  0
TEXT
  8
2
 7
SIMPLEX
 10
-53.521137
 20
9399.10449
 40
147.230103
  1
4
 50
   5.711
  0
INSERT
  8
2
  2
DIAMOND
 10
34.3785248
 20
9259.92969
 41
17.3893814
 42
17.3893814
 43
17.3893814
 50
   5.711
  0
LINE
  8
1
 10
11617.8525
 20
10057.6162
 11
11641.2920
 21
10292.0146
  0
LINE
  8
1
 10
11641.2920
 20
10292.0146
 11
22219.9746
 21
9234.14648
  0
LINE
  8
1
 10
22219.9746
 20
9234.14648
 11
22196.5352
 21
8999.74707
  0
LINE
  8
1
 10
22196.5352
 20
8999.74707
 11
11617.8525
 21
10057.6162
  0
TEXT
  8
2
 7
SIMPLEX
 10
16876.7227
 20
9963.78516
 40
147.230103
  1
3
 50
  -5.711
  0
INSERT
  8
2
  2
DIAMOND
 10
16935.3223
 20
9809.96094
 41
17.3893814
 42
17.3893814
 43
17.3893814
 50
  -5.711
  0
LINE
  8
1
 10
10999.4326
 20
10093.1592
 11
10999.4326
 21
10328.7275
  0
LINE
  8
1
 10
10999.4326
 20
10328.7275
 11
11470.5684
 21
10328.7275
  0
LINE
  8
1
 10
11470.5684
 20
10328.7275
 11
11470.5684
 21
10093.1592
  0
LINE
  8
1
 10
11470.5684
 20
10093.1592
 11
10999.4326
 21
10093.1592
  0
TEXT
  8
2
 7
SIMPLEX
 10
11161.3848
 20
10523.0713
 40
147.230103
  1
5
 50
   0.000
  0
INSERT
  8
2
  2
DIAMOND
 10
11235.0000
 20
10375.8408
 41
17.3893814
 42
17.3893814
 43
17.3893814
 50
   0.000
  0
LINE
  8
1
 10
22290.2949
 20
8990.37109
 11
22313.7344
 21
9224.77051
  0
LINE
  8
1
 10
22313.7344
 20
9224.77051
 11
22548.1328
 21
9201.33008
  0
LINE
  8
1
 10
22548.1328
 20
9201.33008
 11
22524.6953
 21
8966.93164
  0
LINE
  8
1
 10
22524.6953
 20
8966.93164
 11
22290.2949
 21
8990.37109
  0
TEXT
  8
2
 7
SIMPLEX
 10
22377.0234
 20
9413.75488
 40
147.230103
  1
6
 50
  -5.711
  0
INSERT
  8
2
  2
DIAMOND
 10
22435.6230
 20
9259.92969
 41
17.3893814
 42
17.3893814
 43
17.3893814
 50
  -5.711
999
START:   AREA=Draw Parapet Cap Trim
999
START:   AREA=Draw Framed Open Trim
  0
TEXT
  8
2
 7
SIMPLEX
 10
3562.34424
 20
3759.71851
 40
147.230103
  1
8
 50
   0.000
  0
INSERT
  8
2
  2
DIAMOND
 10
3635.95898
 20
3612.48828
 41
17.3893814
 42
17.3893814
 43
17.3893814
 50
   0.000
  0
TEXT
  8
2
 7
SIMPLEX
 10
7526.42676
 20
3759.71851
 40
147.230103
  1
8
 50
   0.000
  0
INSERT
  8
2
  2
DIAMOND
 10
7600.04150
 20
3612.48828
 41
17.3893814
 42
17.3893814
 43
17.3893814
 50
   0.000
  0
TEXT
  8
2
 7
SIMPLEX
 10
4794.38574
 20
4158.42627
 40
147.230103
  1
9
 50
   0.000
  0
INSERT
  8
2
  2
DIAMOND
 10
4868.00049
 20
4011.19604
 41
17.3893814
 42
17.3893814
 43
17.3893814
 50
   0.000
999
END:     AREA=Draw Framed Open Trim
999
START:   AREA=Parapet Trim
999
END:     AREA=Parapet Trim
999
START:   AREA=Partial Wall Angles
  0
LINE
  8
5
 10
0.00000000
 20
0.00000000
 11
0.00000000
 21
2500.00000
  0
LINE
  8
5
 10
22470.0000
 20
0.00000000
 11
22470.0000
 21
2500.00000
  0
LINE
  8
5
 10
0.00000000
 20
2500.00000
 11
3368.00024
 21
2500.00000
  0
LINE
  8
5
 10
7868.00049
 20
2500.00000
 11
22470.0000
 21
2500.00000
999
END:     AREA=Partial Wall Angles
999
START:   AREA=Dimensions
  0
LINE
  8
2
 10
-2316.5305
 20
10501.4785
 11
-1677.3059
 21
10870.5352
  0
LINE
  8
2
 10
-2234.9272
 20
10548.5918
 11
-1758.9091
 21
10548.5918
  0
LINE
  8
2
 10
-1758.9091
 20
10823.4219
 11
-1758.9091
 21
10548.5918
  0
TEXT
  8
11
 7
SIMPLEX
 10
-1660.7556
 20
10548.5918
 40
196.306808
  1
10.0
 50
   0.000
  0
TEXT
  8
11
 7
SIMPLEX
 10
-2095.0713
 20
10254.1309
 40
196.306808
  1
100
 50
   0.000
  0
LINE
  8
2
 10
24786.5293
 20
10501.4785
 11
24147.3047
 21
10870.5352
  0
LINE
  8
2
 10
24704.9258
 20
10548.5918
 11
24228.9063
 21
10548.5918
  0
LINE
  8
2
 10
24228.9063
 20
10823.4219
 11
24228.9063
 21
10548.5918
  0
TEXT
  8
11
 7
SIMPLEX
 10
23443.6797
 20
10548.5918
 40
196.306808
  1
10.0
 50
   0.000
  0
TEXT
  8
11
 7
SIMPLEX
 10
24368.7617
 20
10254.1309
 40
196.306808
  1
100
 50
   0.000
999
START:   AREA=Draw End Grids
  0
LINE
  8
12
 10
0.00000000
 20
10801.8262
 11
0.00000000
 21
11131.6221
  0
CIRCLE
  8
13
 10
0.00000000
 20
11367.1895
 40
235.568146
  0
TEXT
  8
13
 7
SIMPLEX
 10
-106.00566
 20
11261.1836
 40
212.011322
  1
A
 72
           1
 11
0.00000000
 21
11261.1836
 50
   0.000
  0
LINE
  8
12
 10
22470.0000
 20
10801.8262
 11
22470.0000
 21
11131.6221
  0
CIRCLE
  8
13
 10
22470.0000
 20
11367.1895
 40
235.568146
  0
TEXT
  8
13
 7
SIMPLEX
 10
22363.9941
 20
11261.1836
 40
212.011322
  1
C
 72
           1
 11
22470.0000
 21
11261.1836
 50
   0.000
  0
LINE
  8
12
 10
11235.0000
 20
10801.8262
 11
11235.0000
 21
11131.6221
  0
CIRCLE
  8
13
 10
11235.0000
 20
11367.1895
 40
235.568146
  0
TEXT
  8
13
 7
SIMPLEX
 10
11128.9941
 20
11261.1836
 40
212.011322
  1
B
 72
           1
 11
11235.0000
 21
11261.1836
 50
   0.000
999
END:     AREA=Draw End Grids
999
END:     AREA=Dimensions
999
START:   AREA=Extensions
  0
LINE
  8
5
 10
0.00000000
 20
5316.80029
 11
22470.0000
 21
5316.80029
  0
LINE
  8
5
 10
22470.0000
 20
5520.00000
 11
22470.0000
 21
5316.80029
  0
LINE
  8
5
 10
0.00000000
 20
5520.00000
 11
0.00000000
 21
5316.80029
  0
LINE
  8
5
 10
22470.0000
 20
5520.00000
 11
22470.0000
 21
5700.00000
  0
LINE
  8
5
 10
0.00000000
 20
5700.00000
 11
0.00000000
 21
5520.00000
  0
LINE
  8
5
 10
22470.0000
 20
5700.00000
 11
0.00000000
 21
5700.00000
  0
TEXT
  8
2
 7
SIMPLEX
 10
14858.5342
 20
5894.34424
 40
147.230103
  1
10
 50
   0.000
  0
INSERT
  8
2
  2
DIAMOND
 10
14980.0000
 20
5747.11377
 41
17.3893814
 42
17.3893814
 43
17.3893814
 50
   0.000
  0
TEXT
  8
3
 7
SIMPLEX
 10
10646.0791
 20
5395.32275
 40
196.306808
  1
Canopy
 50
   0.000
999
END:     AREA=Extensions
999
START:   AREA=Draw Panel Title
  0
TEXT
  8
15
 7
SIMPLEX
 10
5895.45557
 20
-1923.8066
 40
314.090881
  1
ENDWALL SHEETING & TRIM: FRAME LINE 7
 72
           1
 11
11235.0000
 21
-1923.8066
 50
   0.000
999
END:     AREA=Draw Panel Title
  0
ENDBLK
  8
0
999
START:   AREA=Tables
  0
BLOCK
  8
1
  2
EW2TRIM
 70
     0
 10
0.00000000
 20
0.00000000
  0
TEXT
  8
14
 7
SIMPLEX
 10
-5594.7437
 20
-245.38350
 40
196.306808
  1
TRIM TABLE
 50
   0.000
  0
TEXT
  8
14
 7
SIMPLEX
 10
-5594.7437
 20
-539.84369
 40
196.306808
  1
FRAME LINE 1 & 7
 50
   0.000
  0
TEXT
  8
14
 7
SIMPLEX
 10
-5398.4365
 20
-834.30389
 40
196.306808
  1
ID
 50
   0.000
  0
TEXT
  8
14
 7
SIMPLEX
 10
-4907.6699
 20
-834.30389
 40
196.306808
  1
QUAN
 50
   0.000
  0
TEXT
  8
14
 7
SIMPLEX
 10
-3926.1360
 20
-834.30389
 40
196.306808
  1
PART
 50
   0.000
  0
TEXT
  8
14
 7
SIMPLEX
 10
-2159.3748
 20
-834.30389
 40
196.306808
  1
LENGTH
 50
   0.000
  0
LINE
  8
14
 10
-5643.8203
 20
-736.15045
 11
-5545.6670
 21
-637.99707
  0
LINE
  8
14
 10
-5545.6670
 20
-637.99707
 11
-5447.5137
 21
-736.15045
  0
LINE
  8
14
 10
-5447.5137
 20
-736.15045
 11
-5545.6670
 21
-834.30389
  0
LINE
  8
14
 10
-5545.6670
 20
-834.30389
 11
-5643.8203
 21
-736.15045
  0
TEXT
  8
26
 7
SIMPLEX
 10
-5280.6528
 20
-1128.7642
 40
196.306808
  1
1
 72
           2
 11
-5153.0532
 21
-1128.7642
 50
   0.000
  0
TEXT
  8
26
 7
SIMPLEX
 10
-4515.0557
 20
-1128.7642
 40
196.306808
  1
8
 72
           2
 11
-4318.7490
 21
-1128.7642
 50
   0.000
  0
TEXT
  8
26
 7
SIMPLEX
 10
-3926.1360
 20
-1128.7642
 40
196.306808
  1
CT-02
 50
   0.000
  0
TEXT
  8
26
 7
SIMPLEX
 10
-2159.3748
 20
-1128.7642
 40
196.306808
  1
   5600
 50
   0.000
  0
TEXT
  8
26
 7
SIMPLEX
 10
-5349.3599
 20
-1423.2244
 40
196.306808
  1
2
 72
           2
 11
-5153.0532
 21
-1423.2244
 50
   0.000
  0
TEXT
  8
26
 7
SIMPLEX
 10
-4515.0557
 20
-1423.2244
 40
196.306808
  1
5
 72
           2
 11
-4318.7490
 21
-1423.2244
 50
   0.000
  0
TEXT
  8
26
 7
SIMPLEX
 10
-3926.1360
 20
-1423.2244
 40
196.306808
  1
DT-01
 50
   0.000
  0
TEXT
  8
26
 7
SIMPLEX
 10
-2159.3748
 20
-1423.2244
 40
196.306808
  1
   5600
 50
   0.000
  0
TEXT
  8
26
 7
SIMPLEX
 10
-5349.3599
 20
-1717.6844
 40
196.306808
  1
3
 72
           2
 11
-5153.0532
 21
-1717.6844
 50
   0.000
  0
TEXT
  8
26
 7
SIMPLEX
 10
-4711.3628
 20
-1717.6844
 40
196.306808
  1
20
 72
           2
 11
-4318.7490
 21
-1717.6844
 50
   0.000
  0
TEXT
  8
26
 7
SIMPLEX
 10
-3926.1360
 20
-1717.6844
 40
196.306808
  1
GT-01
 50
   0.000
  0
TEXT
  8
26
 7
SIMPLEX
 10
-2159.3748
 20
-1717.6844
 40
196.306808
  1
   5600
 50
   0.000
  0
TEXT
  8
26
 7
SIMPLEX
 10
-5349.3599
 20
-2012.1447
 40
196.306808
  1
4
 72
           2
 11
-5153.0532
 21
-2012.1447
 50
   0.000
  0
TEXT
  8
26
 7
SIMPLEX
 10
-4515.0557
 20
-2012.1447
 40
196.306808
  1
0
 72
           2
 11
-4318.7490
 21
-2012.1447
 50
   0.000
  0
TEXT
  8
26
 7
SIMPLEX
 10
-3926.1360
 20
-2012.1447
 40
196.306808
  1
SGA-001
 50
   0.000
  0
TEXT
  8
26
 7
SIMPLEX
 10
-2159.3748
 20
-2012.1447
 40
196.306808
  1
   3000
 50
   0.000
  0
TEXT
  8
26
 7
SIMPLEX
 10
-5349.3599
 20
-2306.6047
 40
196.306808
  1
5
 72
           2
 11
-5153.0532
 21
-2306.6047
 50
   0.000
  0
TEXT
  8
26
 7
SIMPLEX
 10
-4515.0557
 20
-2306.6047
 40
196.306808
  1
0
 72
           2
 11
-4318.7490
 21
-2306.6047
 50
   0.000
  0
TEXT
  8
26
 7
SIMPLEX
 10
-3926.1360
 20
-2306.6047
 40
196.306808
  1
P150X.63
 50
   0.000
  0
TEXT
  8
26
 7
SIMPLEX
 10
-2159.3748
 20
-2306.6047
 40
196.306808
  1
     25
 50
   0.000
  0
TEXT
  8
26
 7
SIMPLEX
 10
-5349.3599
 20
-2601.0649
 40
196.306808
  1
6
 72
           2
 11
-5153.0532
 21
-2601.0649
 50
   0.000
  0
TEXT
  8
26
 7
SIMPLEX
 10
-4515.0557
 20
-2601.0649
 40
196.306808
  1
0
 72
           2
 11
-4318.7490
 21
-2601.0649
 50
   0.000
  0
TEXT
  8
26
 7
SIMPLEX
 10
-3926.1360
 20
-2601.0649
 40
196.306808
  1
P20204
 50
   0.000
  0
TEXT
  8
26
 7
SIMPLEX
 10
-2159.3748
 20
-2601.0649
 40
196.306808
  1
     25
 50
   0.000
  0
TEXT
  8
26
 7
SIMPLEX
 10
-5349.3599
 20
-2895.5249
 40
196.306808
  1
7
 72
           2
 11
-5153.0532
 21
-2895.5249
 50
   0.000
  0
TEXT
  8
26
 7
SIMPLEX
 10
-4515.0557
 20
-2895.5249
 40
196.306808
  1
4
 72
           2
 11
-4318.7490
 21
-2895.5249
 50
   0.000
  0
TEXT
  8
26
 7
SIMPLEX
 10
-3926.1360
 20
-2895.5249
 40
196.306808
  1
DT-01
 50
   0.000
  0
TEXT
  8
26
 7
SIMPLEX
 10
-2159.3748
 20
-2895.5249
 40
196.306808
  1
   5600
 50
   0.000
  0
TEXT
  8
26
 7
SIMPLEX
 10
-5349.3599
 20
-3189.9851
 40
196.306808
  1
8
 72
           2
 11
-5153.0532
 21
-3189.9851
 50
   0.000
  0
TEXT
  8
26
 7
SIMPLEX
 10
-4515.0557
 20
-3189.9851
 40
196.306808
  1
2
 72
           2
 11
-4318.7490
 21
-3189.9851
 50
   0.000
  0
TEXT
  8
26
 7
SIMPLEX
 10
-3926.1360
 20
-3189.9851
 40
196.306808
  1
CTS-05
 50
   0.000
  0
TEXT
  8
26
 7
SIMPLEX
 10
-2159.3748
 20
-3189.9851
 40
196.306808
  1
   5600
 50
   0.000
  0
TEXT
  8
26
 7
SIMPLEX
 10
-5349.3599
 20
-3484.4453
 40
196.306808
  1
9
 72
           2
 11
-5153.0532
 21
-3484.4453
 50
   0.000
  0
TEXT
  8
26
 7
SIMPLEX
 10
-4446.3486
 20
-3484.4453
 40
196.306808
  1
1
 72
           2
 11
-4318.7490
 21
-3484.4453
 50
   0.000
  0
TEXT
  8
26
 7
SIMPLEX
 10
-3926.1360
 20
-3484.4453
 40
196.306808
  1
CTS-04
 50
   0.000
  0
TEXT
  8
26
 7
SIMPLEX
 10
-2159.3748
 20
-3484.4453
 40
196.306808
  1
   5600
 50
   0.000
  0
TEXT
  8
26
 7
SIMPLEX
 10
-5476.9595
 20
-3778.9053
 40
196.306808
  1
10
 72
           2
 11
-5153.0532
 21
-3778.9053
 50
   0.000
  0
TEXT
  8
26
 7
SIMPLEX
 10
-4515.0557
 20
-3778.9053
 40
196.306808
  1
5
 72
           2
 11
-4318.7490
 21
-3778.9053
 50
   0.000
  0
TEXT
  8
26
 7
SIMPLEX
 10
-3926.1360
 20
-3778.9053
 40
196.306808
  1
CT-05
 50
   0.000
  0
TEXT
  8
26
 7
SIMPLEX
 10
-2159.3748
 20
-3778.9053
 40
196.306808
  1
   5600
 50
   0.000
  0
LINE
  8
0
 10
-5692.8970
 20
0.00000000
 11
-5692.8970
 21
-3827.9819
  0
LINE
  8
0
 10
0.00000000
 20
0.00000000
 11
0.00000000
 21
-3827.9819
  0
LINE
  8
0
 10
-5692.8970
 20
0.00000000
 11
0.00000000
 21
0.00000000
  0
LINE
  8
0
 10
-5692.8970
 20
-3827.9819
 11
0.00000000
 21
-3827.9819
  0
LINE
  8
0
 10
-5692.8970
 20
-588.92041
 11
0.00000000
 21
-588.92041
  0
LINE
  8
0
 10
-5005.8232
 20
-588.92041
 11
-5005.8232
 21
-3827.9819
  0
LINE
  8
0
 10
-4024.2893
 20
-588.92041
 11
-4024.2893
 21
-3827.9819
  0
LINE
  8
0
 10
-2257.5281
 20
-588.92041
 11
-2257.5281
 21
-3827.9819
  0
LINE
  8
0
 10
-5692.8970
 20
-883.38055
 11
0.00000000
 21
-883.38055
  0
ENDBLK
  8
1
999
END:     AREA=Tables
  0
ENDSEC
  0
SECTION
  2
ENTITIES
  0
LINE
  8
22
 10
0.00000000
 20
0.00000000
 11
47214.8047
 21
0.00000000
  0
LINE
  8
22
 10
47214.8047
 20
0.00000000
 11
47214.8047
 21
33387.6133
  0
LINE
  8
22
 10
47214.8047
 20
33387.6133
 11
0.00000000
 21
33387.6133
  0
LINE
  8
22
 10
0.00000000
 20
33387.6133
 11
0.00000000
 21
0.00000000
  0
LINE
  8
0
 10
29225.9609
 20
0.00000000
 11
29225.9609
 21
2998.14014
  0
LINE
  8
0
 10
29225.9609
 20
2998.14014
 11
47214.8047
 21
2998.14014
  0
LINE
  8
0
 10
29225.9609
 20
0.00000000
 11
47214.8047
 21
0.00000000
  0
LINE
  8
0
 10
47214.8047
 20
0.00000000
 11
47214.8047
 21
2998.14014
  0
LINE
  8
0
 10
29225.9609
 20
1142.14868
 11
47214.8047
 21
1142.14868
  0
LINE
  8
0
 10
29225.9609
 20
1713.22290
 11
47214.8047
 21
1713.22290
  0
LINE
  8
0
 10
29225.9609
 20
2284.29736
 11
47214.8047
 21
2284.29736
  0
LINE
  8
0
 10
31795.7949
 20
0.00000000
 11
31795.7949
 21
2284.29736
  0
LINE
  8
0
 10
38220.3828
 20
0.00000000
 11
38220.3828
 21
2284.29736
  0
LINE
  8
0
 10
38220.3828
 20
571.074341
 11
47214.8047
 21
571.074341
  0
LINE
  8
0
 10
41361.2930
 20
1713.22290
 11
41361.2930
 21
1142.14868
  0
LINE
  8
0
 10
44216.6641
 20
1713.22290
 11
44216.6641
 21
1142.14868
  0
LINE
  8
0
 10
42788.9766
 20
1142.14868
 11
42788.9766
 21
571.074341
  0
TEXT
  8
14
 7
SIMPLEX
 10
29511.5000
 20
1855.99158
 40
285.537170
  1
PROJECT
 50
   0.000
  0
TEXT
  8
14
 7
SIMPLEX
 10
29511.5000
 20
1284.91724
 40
285.537170
  1
ID
 50
   0.000
  0
TEXT
  8
14
 7
SIMPLEX
 10
29511.5000
 20
713.842957
 40
285.537170
  1
PROJECT
 50
   0.000
  0
TEXT
  8
14
 7
SIMPLEX
 10
29511.5000
 20
142.768585
 40
285.537170
  1
ADDRESS
 50
   0.000
  0
TEXT
  8
14
 7
SIMPLEX
 10
32081.3340
 20
1855.99158
 40
285.537170
  1
Proposed Warehouse
 50
   0.000
  0
TEXT
  8
14
 7
SIMPLEX
 10
32081.3340
 20
1284.91724
 40
285.537170
  1
C323-153
 50
   0.000
  0
TEXT
  8
14
 7
SIMPLEX
 10
32081.3340
 20
713.842957
 40
285.537170
  1
Proposed Warehouse
 50
   0.000
  0
TEXT
  8
14
 7
SIMPLEX
 10
32081.3340
 20
142.768585
 40
285.537170
  1
PINE
 50
   0.000
  0
TEXT
  8
14
 7
SIMPLEX
 10
31438.8770
 20
2427.06592
 40
428.305725
  1
RECLA INTERNATIONAL PRIVATE LIMITED
 50
   0.000
  0
TEXT
  8
14
 7
SIMPLEX
 10
38505.9219
 20
1855.99158
 40
285.537170
  1
ENDWALL FRAMING
 50
   0.000
  0
TEXT
  8
14
 7
SIMPLEX
 10
38505.9219
 20
1284.91724
 40
285.537170
  1
DESIGN:
 50
   0.000
  0
TEXT
  8
14
 7
SIMPLEX
 10
38505.9219
 20
713.842957
 40
285.537170
  1
DATE:
 50
   0.000
  0
TEXT
  8
14
 7
SIMPLEX
 10
39962.1602
 20
713.842957
 40
285.537170
  1
 7/AUG/2025
 50
   0.000
  0
TEXT
  8
14
 7
SIMPLEX
 10
41646.8281
 20
1284.91724
 40
285.537170
  1
DRAFT:
 50
   0.000
  0
TEXT
  8
14
 7
SIMPLEX
 10
44502.1992
 20
1284.91724
 40
285.537170
  1
CHECK:
 50
   0.000
  0
TEXT
  8
14
 7
SIMPLEX
 10
42931.7461
 20
713.842957
 40
285.537170
  1
SHEET
 50
   0.000
  0
TEXT
  8
14
 7
SIMPLEX
 10
45501.5820
 20
713.842957
 40
285.537170
  1
OF
 50
   0.000
  0
TEXT
  8
14
 7
SIMPLEX
 10
44359.4336
 20
713.842957
 40
285.537170
  1
 
 50
   0.000
999
FIELD:@PAGE_ID
  0
TEXT
  8
14
 7
SIMPLEX
 10
46072.6563
 20
713.842957
 40
285.537170
  1
 
 50
   0.000
999
FIELD:@PAGE_TOTAL
  0
INSERT
  8
0
  2
EW1PNL
 10
9512.52930
 20
20660.7520
 41
1.00000000
 42
1.00000000
 43
1.00000000
 50
   0.000
  0
INSERT
  8
0
  2
EW2PNL
 10
9512.52930
 20
6420.41846
 41
1.00000000
 42
1.00000000
 43
1.00000000
 50
   0.000
  0
INSERT
  8
0
  2
EW2TRIM
 10
47214.8047
 20
33387.6133
 41
1.00000000
 42
1.00000000
 43
1.00000000
 50
   0.000
  0
ENDSEC
  0
EOF
