999
SOURCE:MBS   PROGRAM:EWSWDWG   CELL:SwDwg-F   CLASS:ELEVATION   MODE:
  0
SECTION
  2
HEADER
  9
$ACADVER
  1
AC1009
  9
$EXTMIN
 10
0.00000000
 20
0.00000000
  9
$EXTMAX
 10
55522.1133
 20
39262.0664
  9
$LIMMIN
 10
0.00000000
 20
0.00000000
  9
$LIMMAX
 10
55522.1133
 20
39262.0664
  9
$FILLMODE
 70
     1
  9
$HANDLING
 70
     0
  0
ENDSEC
  0
SECTION
  2
TABLES
  0
TABLE
  2
LTYPE
 70
4
  0
LTYPE
  2
CONTIN
 70
   64
  3
SOLID LINE
  72
   65
 73
    0
 40
 0.000
  0
LTYPE
  2
CENTER
 70
   64
  3
____ _ ____ _ _
  72
   65
 73
    4
 40
3357.8
 49
2098.6
 49
-419.7
 49
419.72
 49
-419.7
  0
LTYPE
  2
DASHED
 70
   64
  3
__ __ __ __ __
  72
   65
 73
    2
 40
629.58
 49
419.72
 49
-208.2
  0
LTYPE
  2
CONTINUOUS
 70
   64
  3
SOLID LINE
  72
   65
 73
    0
 40
 0.000
  0
ENDTAB
  0
TABLE
  2
LAYER
 70
27
  0
LAYER
  2
0
 70
     0
 62
     7
  6
CONTIN
  0
LAYER
  2
1
 70
     0
 62
     7
  6
CONTIN
  0
LAYER
  2
2
 70
     0
 62
     6
  6
CONTIN
  0
LAYER
  2
3
 70
     0
 62
     7
  6
CONTIN
  0
LAYER
  2
4
 70
     0
 62
     7
  6
CONTIN
  0
LAYER
  2
5
 70
     0
 62
     5
  6
DASHED
  0
LAYER
  2
6
 70
     0
 62
     6
  6
CONTIN
  0
LAYER
  2
7
 70
     0
 62
     7
  6
CONTIN
  0
LAYER
  2
8
 70
     0
 62
     8
  6
DASHED
  0
LAYER
  2
9
 70
     0
 62
     9
  6
DASHED
  0
LAYER
  2
10
 70
     0
 62
    10
  6
CONTIN
  0
LAYER
  2
11
 70
     0
 62
     7
  6
CONTIN
  0
LAYER
  2
12
 70
     0
 62
     6
  6
CONTIN
  0
LAYER
  2
13
 70
     0
 62
     1
  6
CONTIN
  0
LAYER
  2
14
 70
     0
 62
     7
  6
CONTIN
  0
LAYER
  2
15
 70
     0
 62
     7
  6
CONTIN
  0
LAYER
  2
16
 70
     0
 62
     7
  6
CONTIN
  0
LAYER
  2
17
 70
     0
 62
     5
  6
CONTIN
  0
LAYER
  2
18
 70
     0
 62
     7
  6
CONTIN
  0
LAYER
  2
19
 70
     0
 62
     7
  6
CONTIN
  0
LAYER
  2
20
 70
     0
 62
     7
  6
CONTIN
  0
LAYER
  2
21
 70
     0
 62
     7
  6
CONTIN
  0
LAYER
  2
22
 70
     0
 62
     7
  6
CONTIN
  0
LAYER
  2
23
 70
     0
 62
     7
  6
DASHED
  0
LAYER
  2
24
 70
     0
 62
     7
  6
CONTIN
  0
LAYER
  2
25
 70
     0
 62
     7
  6
CONTIN
  0
LAYER
  2
26
 70
     0
 62
     7
  6
CONTIN
  0
LAYER
  2
27
 70
     0
 62
     1
  6
CENTER
  0
ENDTAB
  0
TABLE
  2
STYLE
 70
  0
  0
STYLE
  2
SIMPLEX
 70
  0
 40
  0.000
 41
  1.000
 42
  1.000
 50
  0.000
 71
  0
  3
SIMPLEX
  0
STYLE
  2
ROMANS
 70
  0
 40
  0.000
 41
  1.000
 42
  1.000
 50
  0.000
 71
  0
  3
ROMANS
  0
STYLE
  2
OPEN
 70
  0
 40
  0.000
 41
  1.000
 42
  1.000
 50
  0.000
 71
  0
  3
SIMPLEX
  0
STYLE
  2
ARIAL
 70
  0
 40
  0.000
 41
  1.000
 42
  1.000
 50
  0.000
 71
  0
  3
ARIAL.TTF
  0
STYLE
  2
VERDANAB
 70
  0
 40
  0.000
 41
  1.000
 42
  1.000
 50
  0.000
 71
  0
  3
VERDANAB.TTF
  0
ENDTAB
  0
ENDSEC
  0
SECTION
  2
BLOCKS
  0
BLOCK
  8
0
  2
ARROWP
 70
     0
 10
0.00000000
 20
0.00000000
  0
LINE
  8
0
 10
0.00000000
 20
0.00000000
 11
-240.08028
 21
-40.013378
  0
LINE
  8
0
 10
0.00000000
 20
0.00000000
 11
-240.08028
 21
40.0133781
  0
LINE
  8
0
 10
-240.08028
 20
40.0133781
 11
-240.08028
 21
-40.013378
  0
ENDBLK
  8
0
  0
BLOCK
  8
0
  2
ARROW
 70
     0
 10
0.00000000
 20
0.00000000
  0
LINE
  8
0
 10
0.00000000
 20
0.00000000
 11
-240.08028
 21
-40.013378
  0
LINE
  8
0
 10
0.00000000
 20
0.00000000
 11
-240.08028
 21
40.0133781
  0
LINE
  8
0
 10
-240.08028
 20
40.0133781
 11
-240.08028
 21
-40.013378
  0
ENDBLK
  8
0
  0
BLOCK
  8
0
  2
MARKER
 70
     0
 10
0.00000000
 20
0.00000000
  0
LINE
  8
0
 10
0.00000000
 20
0.00000000
 11
25.3999996
 21
25.3999996
  0
LINE
  8
0
 10
25.3999996
 20
25.3999996
 11
-25.400000
 21
25.3999996
  0
LINE
  8
0
 10
-25.400000
 20
25.3999996
 11
0.00000000
 21
0.00000000
  0
ENDBLK
  8
0
  0
BLOCK
  8
0
  2
FLGCLP
 70
     0
 10
0.00000000
 20
0.00000000
  0
LINE
  8
0
 10
0.00000000
 20
0.00000000
 11
25.3999996
 21
25.3999996
  0
LINE
  8
0
 10
25.3999996
 20
25.3999996
 11
-25.400000
 21
25.3999996
  0
LINE
  8
0
 10
-25.400000
 20
25.3999996
 11
0.00000000
 21
0.00000000
  0
LINE
  8
0
 10
-8.4666672
 20
8.46666716
 11
8.46666716
 21
8.46666716
  0
LINE
  8
0
 10
-8.4666672
 20
8.46666716
 11
-8.4666672
 21
25.3999996
  0
LINE
  8
0
 10
8.46666716
 20
8.46666716
 11
8.46666716
 21
25.3999996
  0
ENDBLK
  8
0
  0
BLOCK
  8
0
  2
DIAMOND
 70
     0
 10
0.00000000
 20
0.00000000
  0
LINE
  8
0
 10
0.00000000
 20
0.00000000
 11
12.6999998
 21
12.6999998
  0
LINE
  8
0
 10
12.6999998
 20
12.6999998
 11
0.00000000
 21
25.3999996
  0
LINE
  8
0
 10
0.00000000
 20
25.3999996
 11
-12.700000
 21
12.6999998
  0
LINE
  8
0
 10
-12.700000
 20
12.6999998
 11
0.00000000
 21
0.00000000
  0
ENDBLK
  8
0
  0
BLOCK
  8
0
  2
SHIELD
 70
     0
 10
0.00000000
 20
0.00000000
  0
ARC
  8
0
 10
0.00000000
 20
38.0999985
 40
12.6999998
 50
   0.000
 51
 180.000
  0
LINE
  8
0
 10
-12.700000
 20
38.0999985
 11
-12.700000
 21
12.6999998
  0
LINE
  8
0
 10
-12.700000
 20
12.6999998
 11
0.00000000
 21
0.00000000
  0
LINE
  8
0
 10
0.00000000
 20
0.00000000
 11
12.6999998
 21
12.6999998
  0
LINE
  8
0
 10
12.6999998
 20
12.6999998
 11
12.6999998
 21
38.0999985
  0
ENDBLK
  8
0
  0
BLOCK
  8
0
  2
FINFLR
 70
     0
 10
0.00000000
 20
0.00000000
  0
LINE
  8
0
 10
0.00000000
 20
0.00000000
 11
12.6999998
 21
25.3999996
  0
LINE
  8
0
 10
12.6999998
 20
25.3999996
 11
-12.700000
 21
25.3999996
  0
LINE
  8
0
 10
-12.700000
 20
25.3999996
 11
0.00000000
 21
0.00000000
  0
LINE
  8
0
 10
0.00000000
 20
0.00000000
 11
0.00000000
 21
25.3999996
  0
SOLID
  8
0
 10
0.00000000
 20
0.00000000
 11
0.00000000
 21
25.3999996
 12
-12.700000
 22
25.3999996
 13
-12.700000
 23
25.3999996
  0
ENDBLK
  8
0
  0
BLOCK
  8
0
  2
CIRCLE
 70
     0
 10
0.00000000
 20
0.00000000
  0
CIRCLE
  8
1
 10
   0.000
 20
   0.000
 40
  25.400
  0
ENDBLK
  8
0
  0
BLOCK
  8
0
  2
HEXAGON
 70
     0
 10
0.00000000
 20
0.00000000
  0
LINE
  8
0
 10
0.00000000
 20
0.00000000
 11
7.62000084
 21
-10.160000
  0
LINE
  8
0
 10
7.62000084
 20
-10.160000
 11
17.7799988
 21
-10.160000
  0
LINE
  8
0
 10
17.7799988
 20
-10.160000
 11
25.3999996
 21
0.00000000
  0
LINE
  8
0
 10
25.3999996
 20
0.00000000
 11
17.7799988
 21
10.1599999
  0
LINE
  8
0
 10
17.7799988
 20
10.1599999
 11
7.62000084
 21
10.1599999
  0
LINE
  8
0
 10
7.62000084
 20
10.1599999
 11
0.00000000
 21
0.00000000
  0
ENDBLK
  8
0
  0
BLOCK
  8
0
  2
CCOL
 70
     0
 10
0.00000000
 20
0.00000000
  0
LINE
  8
0
 10
10.1599999
 20
-2.5400000
 11
10.1599999
 21
0.00000000
  0
LINE
  8
0
 10
10.1599999
 20
0.00000000
 11
0.00000000
 21
0.00000000
  0
LINE
  8
0
 10
0.00000000
 20
0.00000000
 11
0.00000000
 21
-25.400000
  0
LINE
  8
0
 10
0.00000000
 20
-25.400000
 11
10.1599999
 21
-25.400000
  0
LINE
  8
0
 10
10.1599999
 20
-25.400000
 11
10.1599999
 21
-22.859999
  0
ENDBLK
  8
0
  0
BLOCK
  8
0
  2
DCOL
 70
     0
 10
0.00000000
 20
0.00000000
  0
INSERT
  8
0
  2
CCOL
 10
2.53999996
 20
0.00000000
 41
1.00000000
 42
1.00000000
 43
1.00000000
 50
   0.000
  0
INSERT
  8
0
  2
CCOL
 10
-2.5400000
 20
0.00000000
 41
-1.0000000
 42
1.00000000
 43
1.00000000
 50
   0.000
  0
ENDBLK
  8
0
  0
BLOCK
  8
0
  2
UCOL
 70
     0
 10
0.00000000
 20
0.00000000
  0
LINE
  8
0
 10
10.1599999
 20
0.00000000
 11
0.00000000
 21
0.00000000
  0
LINE
  8
0
 10
0.00000000
 20
0.00000000
 11
0.00000000
 21
-25.400000
  0
LINE
  8
0
 10
0.00000000
 20
-25.400000
 11
10.1599999
 21
-25.400000
  0
ENDBLK
  8
0
  0
BLOCK
  8
0
  2
WCOL
 70
     0
 10
0.00000000
 20
0.00000000
  0
LINE
  8
0
 10
-10.160000
 20
0.00000000
 11
10.1599999
 21
0.00000000
  0
LINE
  8
0
 10
0.00000000
 20
0.00000000
 11
0.00000000
 21
-25.400000
  0
LINE
  8
0
 10
-10.160000
 20
-25.400000
 11
10.1599999
 21
-25.400000
  0
ENDBLK
  8
0
  0
BLOCK
  8
0
  2
ZCOL
 70
     0
 10
0.00000000
 20
0.00000000
  0
LINE
  8
0
 10
10.1599999
 20
-2.5400000
 11
10.1599999
 21
0.00000000
  0
LINE
  8
0
 10
10.1599999
 20
0.00000000
 11
0.00000000
 21
0.00000000
  0
LINE
  8
0
 10
0.00000000
 20
0.00000000
 11
0.00000000
 21
-25.400000
  0
LINE
  8
0
 10
0.00000000
 20
-25.400000
 11
-10.160000
 21
-25.400000
  0
LINE
  8
0
 10
-10.160000
 20
-25.400000
 11
-10.160000
 21
-22.859999
  0
ENDBLK
  8
0
  0
BLOCK
  8
0
  2
TCOL
 70
     0
 10
0.00000000
 20
0.00000000
  0
LINE
  8
0
 10
-12.700000
 20
-12.700000
 11
12.6999998
 21
-12.700000
  0
LINE
  8
0
 10
12.6999998
 20
-12.700000
 11
12.6999998
 21
12.6999998
  0
LINE
  8
0
 10
12.6999998
 20
12.6999998
 11
-12.700000
 21
12.6999998
  0
LINE
  8
0
 10
-12.700000
 20
12.6999998
 11
-12.700000
 21
-12.700000
  0
ENDBLK
  8
0
  0
BLOCK
  8
0
  2
TCOL2
 70
     0
 10
0.00000000
 20
0.00000000
  0
LINE
  8
0
 10
-6.3499999
 20
-12.700000
 11
6.34999992
 21
-12.700000
  0
LINE
  8
0
 10
6.34999992
 20
-12.700000
 11
6.34999992
 21
12.6999998
  0
LINE
  8
0
 10
6.34999992
 20
12.6999998
 11
-6.3499999
 21
12.6999998
  0
LINE
  8
0
 10
-6.3499999
 20
12.6999998
 11
-6.3499999
 21
-12.700000
  0
ENDBLK
  8
0
  0
BLOCK
  8
1
  2
PCOL
 70
     0
 10
0.00000000
 20
0.00000000
  0
CIRCLE
  8
1
 10
0.00000000
 20
0.00000000
 40
12.6999998
  0
ENDBLK
  8
1
  0
BLOCK
  8
0
  2
GCOL
 70
     0
 10
0.00000000
 20
0.00000000
  0
LINE
  8
0
 10
10.1599999
 20
-2.5400000
 11
10.1599999
 21
0.00000000
  0
LINE
  8
0
 10
10.1599999
 20
0.00000000
 11
0.00000000
 21
0.00000000
  0
LINE
  8
0
 10
0.00000000
 20
0.00000000
 11
0.00000000
 21
-25.400000
  0
LINE
  8
0
 10
0.00000000
 20
-25.400000
 11
25.3999996
 21
-25.400000
  0
LINE
  8
0
 10
25.3999996
 20
-25.400000
 11
25.3999996
 21
-15.240001
  0
LINE
  8
0
 10
25.3999996
 20
-15.240001
 11
22.8599987
 21
-15.240001
  0
ENDBLK
  8
0
  0
BLOCK
  8
0
  2
VSECTN
 70
     0
 10
0.00000000
 20
0.00000000
  0
LINE
  8
0
 10
-12.700000
 20
25.3999996
 11
12.6999998
 21
25.3999996
  0
LINE
  8
0
 10
-12.700000
 20
25.3999996
 11
0.00000000
 21
0.00000000
  0
LINE
  8
0
 10
0.00000000
 20
0.00000000
 11
12.6999998
 21
25.3999996
  0
ENDBLK
  8
0
  0
BLOCK
  8
0
  2
XCOL
 70
     0
 10
0.00000000
 20
0.00000000
  0
LINE
  8
0
 10
-14.287499
 20
1.58749996
 11
14.2874994
 21
1.58749996
  0
LINE
  8
0
 10
14.2874994
 20
1.58749996
 11
14.2874994
 21
-26.987499
  0
LINE
  8
0
 10
14.2874994
 20
-26.987499
 11
-14.287499
 21
-26.987499
  0
LINE
  8
0
 10
-14.287499
 20
-26.987499
 11
-14.287499
 21
1.58749996
  0
ENDBLK
  8
0
  0
BLOCK
  8
0
  2
SGUS
 70
     0
 10
0.00000000
 20
0.00000000
  0
LINE
  8
0
 10
0.00000000
 20
0.00000000
 11
7.62000084
 21
0.00000000
  0
LINE
  8
0
 10
7.62000084
 20
0.00000000
 11
17.7799988
 21
-25.400000
  0
LINE
  8
0
 10
17.7799988
 20
-25.400000
 11
25.3999996
 21
-25.400000
  0
ENDBLK
  8
0
  0
BLOCK
  8
7
  2
CUTSEC
 70
     0
 10
0.00000000
 20
0.00000000
  0
LINE
  8
7
 10
-387.82196
 20
0.00000000
 11
-92.338570
 21
0.00000000
  0
LINE
  8
7
 10
92.3385697
 20
0.00000000
 11
387.821960
 21
0.00000000
  0
LINE
  8
7
 10
387.821960
 20
0.00000000
 11
387.821960
 21
110.806267
  0
INSERT
  8
7
  2
ARROWP
 10
387.821960
 20
350.886536
 41
1.00000000
 42
1.00000000
 43
1.00000000
 50
  90.000
  0
ENDBLK
  8
7
  0
BLOCK
  8
0
  2
WALLLITE
 70
     0
 10
0.00000000
 20
0.00000000
  0
LINE
  8
0
 10
25.3999996
 20
0.00000000
 11
0.00000000
 21
0.00000000
  0
LINE
  8
0
 10
0.00000000
 20
0.00000000
 11
0.00000000
 21
-25.400000
  0
LINE
  8
0
 10
0.00000000
 20
-25.400000
 11
25.3999996
 21
-25.400000
  0
LINE
  8
0
 10
25.3999996
 20
-25.400000
 11
25.3999996
 21
0.00000000
  0
LINE
  8
0
 10
0.00000000
 20
-25.400000
 11
0.00000000
 21
0.00000000
  0
LINE
  8
0
 10
6.34999992
 20
-25.400000
 11
6.34999992
 21
0.00000000
  0
LINE
  8
0
 10
12.6999998
 20
-25.400000
 11
12.6999998
 21
0.00000000
  0
LINE
  8
0
 10
19.0499992
 20
-25.400000
 11
19.0499992
 21
0.00000000
  0
ENDBLK
  8
0
  0
BLOCK
  8
7
  2
DETAIL
 70
     0
 10
0.00000000
 20
0.00000000
  0
CIRCLE
  8
7
 10
0.00000000
 20
0.00000000
 40
92.3385697
  0
LINE
  8
7
 10
92.3385697
 20
0.00000000
 11
406.289673
 21
0.00000000
  0
ENDBLK
  8
7
  0
BLOCK
  8
0
  2
SW1FRM
 70
     0
 10
0.00000000
 20
0.00000000
999
START:   AREA=Surface
  0
LINE
  8
5
 10
0.00000000
 20
0.00000000
 11
36285.0000
 21
0.00000000
  0
LINE
  8
5
 10
0.00000000
 20
0.00000000
 11
0.00000000
 21
8420.00000
  0
LINE
  8
5
 10
36285.0000
 20
0.00000000
 11
36285.0000
 21
8420.00000
999
END:     AREA=Surface
999
START:   AREA=Frames
  0
LINE
  8
4
 10
439.999970
 20
0.00000000
 11
439.999970
 21
8364.59668
  0
LINE
  8
4
 10
6200.00000
 20
0.00000000
 11
6200.00000
 21
8364.59668
  0
INSERT
  8
10
  2
WCOL
 10
6200.00000
 20
-110.80628
 41
9.08844185
 42
9.08844185
 43
9.08844185
 50
   0.000
  0
TEXT
  8
3
 7
SIMPLEX
 10
5738.30762
 20
-741.01697
 40
230.846420
  1
 CL2-6
 50
   0.000
  0
LINE
  8
4
 10
12190.0000
 20
0.00000000
 11
12190.0000
 21
8364.59668
  0
INSERT
  8
10
  2
WCOL
 10
12190.0000
 20
-110.80628
 41
9.08844185
 42
9.08844185
 43
9.08844185
 50
   0.000
  0
TEXT
  8
3
 7
SIMPLEX
 10
11728.3076
 20
-741.01697
 40
230.846420
  1
 CL2-6
 50
   0.000
  0
LINE
  8
4
 10
18335.0000
 20
0.00000000
 11
18335.0000
 21
8364.59668
  0
INSERT
  8
10
  2
WCOL
 10
18335.0000
 20
-110.80628
 41
9.08844185
 42
9.08844185
 43
9.08844185
 50
   0.000
  0
TEXT
  8
3
 7
SIMPLEX
 10
17873.3066
 20
-741.01697
 40
230.846420
  1
 CL2-6
 50
   0.000
  0
LINE
  8
4
 10
24035.0000
 20
0.00000000
 11
24035.0000
 21
8364.59668
  0
INSERT
  8
10
  2
WCOL
 10
24035.0000
 20
-110.80628
 41
9.08844185
 42
9.08844185
 43
9.08844185
 50
   0.000
  0
TEXT
  8
3
 7
SIMPLEX
 10
23573.3086
 20
-741.01697
 40
230.846420
  1
 CL2-6
 50
   0.000
  0
LINE
  8
4
 10
30035.0020
 20
0.00000000
 11
30035.0020
 21
8364.59668
  0
INSERT
  8
10
  2
WCOL
 10
30035.0020
 20
-110.80628
 41
9.08844185
 42
9.08844185
 43
9.08844185
 50
   0.000
  0
TEXT
  8
3
 7
SIMPLEX
 10
29573.3047
 20
-741.01697
 40
230.846420
  1
 CL2-8
 50
   0.000
  0
LINE
  8
4
 10
35845.0000
 20
0.00000000
 11
35845.0000
 21
8364.59668
  0
INSERT
  8
10
  2
WCOL
 10
439.999970
 20
-110.80628
 41
9.08844185
 42
9.08844185
 43
9.08844185
 50
   0.000
  0
TEXT
  8
3
 7
SIMPLEX
 10
-171.74306
 20
-741.01697
 40
230.846420
  1
 CL1-5
 50
   0.000
  0
INSERT
  8
10
  2
WCOL
 10
35845.0000
 20
-110.80628
 41
9.08844185
 42
9.08844185
 43
9.08844185
 50
   0.000
  0
TEXT
  8
3
 7
SIMPLEX
 10
35233.2578
 20
-741.01697
 40
230.846420
  1
 CL1-7
 50
   0.000
999
END:     AREA=Frames
999
START:   AREA=Endwall Columns
999
END:     AREA=Endwall Columns
999
START:   AREA=Soldier Rafters
999
END:     AREA=Soldier Rafters
999
START:   AREA=Eaves
  0
LINE
  8
1
 10
0.00000000
 20
8420.00000
 11
6556.53271
 21
8420.00000
  0
LINE
  8
1
 10
5843.46826
 20
8420.00000
 11
12546.5322
 21
8420.00000
  0
LINE
  8
1
 10
11833.4678
 20
8420.00000
 11
18691.5332
 21
8420.00000
  0
LINE
  8
1
 10
17978.4668
 20
8420.00000
 11
24391.5332
 21
8420.00000
  0
LINE
  8
1
 10
23678.4668
 20
8420.00000
 11
30391.5332
 21
8420.00000
  0
LINE
  8
1
 10
29678.4668
 20
8420.00000
 11
36285.0000
 21
8420.00000
999
END:     AREA=Eaves
999
START:   AREA=Framed Openings
999
END:     AREA=Framed Openings
999
START:   AREA=Wideopen Outlines
999
END:     AREA=WideOpen Outlines
999
START:   AREA=Wind Frames
999
END:     AREA=Wind Frames
999
START:   AREA=Wall Panel
999
END:     AREA=Wall Panel
999
START:   AREA=Base Angles
999
START:   AREA=Partial Wall Angles
  0
LINE
  8
5
 10
0.00000000
 20
0.00000000
 11
0.00000000
 21
2500.00000
  0
LINE
  8
5
 10
36285.0000
 20
0.00000000
 11
36285.0000
 21
2500.00000
  0
LINE
  8
5
 10
0.00000000
 20
2500.00000
 11
36285.0000
 21
2500.00000
999
END:     AREA=Partial Wall Angles
999
START:   AREA=Wide Door Angles
999
END:     AREA=Wide Door Angles
999
START:   AREA=Eave Angles
999
END:     AREA=Eave Angles
999
START:   AREA=Cables
  0
LINE
  8
1
 10
6200.00000
 20
250.000000
 11
12190.0000
 21
5973.79980
  0
LINE
  8
1
 10
12190.0000
 20
250.000000
 11
6200.00000
 21
5973.79980
  0
TEXT
  8
3
 7
SIMPLEX
 10
7361.38281
 20
1439.59363
 40
230.846420
  1
CB-1
 50
  43.698
  0
TEXT
  8
3
 7
SIMPLEX
 10
10436.1240
 20
2005.75647
 40
230.846420
  1
CB-1
 50
 -43.698
  0
LINE
  8
1
 10
6200.00000
 20
6126.20020
 11
12190.0000
 21
8059.79736
  0
LINE
  8
1
 10
12190.0000
 20
6126.20020
 11
6200.00000
 21
8059.79736
  0
TEXT
  8
3
 7
SIMPLEX
 10
7251.38770
 20
6526.23535
 40
230.846420
  1
CB-2
 50
  17.890
  0
TEXT
  8
3
 7
SIMPLEX
 10
10281.8447
 20
6802.80469
 40
230.846420
  1
CB-2
 50
 -17.890
  0
LINE
  8
1
 10
24035.0000
 20
250.000000
 11
30035.0020
 21
5973.79980
  0
LINE
  8
1
 10
30035.0020
 20
250.000000
 11
24035.0000
 21
5973.79980
  0
TEXT
  8
3
 7
SIMPLEX
 10
25169.4512
 20
1411.98877
 40
230.846420
  1
CB-3
 50
  43.650
  0
TEXT
  8
3
 7
SIMPLEX
 10
28249.1270
 20
2033.42773
 40
230.846420
  1
CB-3
 50
 -43.650
  0
LINE
  8
1
 10
24035.0000
 20
6126.20020
 11
30035.0020
 21
8059.79736
  0
LINE
  8
1
 10
30035.0020
 20
6126.20020
 11
24035.0000
 21
8059.79736
  0
TEXT
  8
3
 7
SIMPLEX
 10
25088.8477
 20
6526.45361
 40
230.846420
  1
CB-2
 50
  17.862
  0
TEXT
  8
3
 7
SIMPLEX
 10
28124.2500
 20
6802.60498
 40
230.846420
  1
CB-2
 50
 -17.862
999
END:     AREA=Cables
999
START:   AREA=Girts
  0
LINE
  8
1
 10
0.00000000
 20
2524.59692
 11
6575.00049
 21
2524.59692
  0
TEXT
  8
3
 7
SIMPLEX
 10
2603.67969
 20
2582.30835
 40
230.846420
  1
 G-16
 50
   0.000
  0
LINE
  8
1
 10
0.00000000
 20
4024.59668
 11
6575.00049
 21
4024.59668
  0
TEXT
  8
3
 7
SIMPLEX
 10
2603.67969
 20
4082.30859
 40
230.846420
  1
 G-16
 50
   0.000
  0
LINE
  8
1
 10
0.00000000
 20
5524.59668
 11
6575.00049
 21
5524.59668
  0
TEXT
  8
3
 7
SIMPLEX
 10
2603.67969
 20
5582.30859
 40
230.846420
  1
 G-16
 50
   0.000
  0
LINE
  8
1
 10
0.00000000
 20
7024.59766
 11
6575.00049
 21
7024.59766
  0
TEXT
  8
3
 7
SIMPLEX
 10
2603.67969
 20
7082.30957
 40
230.846420
  1
 G-16
 50
   0.000
  0
LINE
  8
1
 10
5824.99951
 20
2635.40332
 11
12565.0000
 21
2635.40332
  0
TEXT
  8
3
 7
SIMPLEX
 10
8698.67969
 20
2693.11499
 40
230.846420
  1
 G-17
 50
   0.000
  0
LINE
  8
1
 10
5824.99951
 20
4135.40332
 11
12565.0000
 21
4135.40332
  0
TEXT
  8
3
 7
SIMPLEX
 10
8698.67969
 20
4193.11475
 40
230.846420
  1
 G-17
 50
   0.000
  0
LINE
  8
1
 10
5824.99951
 20
5635.40332
 11
12565.0000
 21
5635.40332
  0
TEXT
  8
3
 7
SIMPLEX
 10
8199.51367
 20
5693.11475
 40
230.846420
  1
 G-17
 50
   0.000
  0
LINE
  8
1
 10
5824.99951
 20
7135.40332
 11
12565.0000
 21
7135.40332
  0
TEXT
  8
3
 7
SIMPLEX
 10
8698.67969
 20
7193.11572
 40
230.846420
  1
 G-17
 50
   0.000
  0
LINE
  8
1
 10
11815.0000
 20
2524.59692
 11
18710.0000
 21
2524.59692
  0
TEXT
  8
3
 7
SIMPLEX
 10
14766.1807
 20
2582.30835
 40
230.846420
  1
 G-18
 50
   0.000
  0
LINE
  8
1
 10
11815.0000
 20
4024.59668
 11
18710.0000
 21
4024.59668
  0
TEXT
  8
3
 7
SIMPLEX
 10
14766.1807
 20
4082.30859
 40
230.846420
  1
 G-18
 50
   0.000
  0
LINE
  8
1
 10
11815.0000
 20
5524.59668
 11
18710.0000
 21
5524.59668
  0
TEXT
  8
3
 7
SIMPLEX
 10
14766.1807
 20
5582.30859
 40
230.846420
  1
 G-18
 50
   0.000
  0
LINE
  8
1
 10
11815.0000
 20
7024.59766
 11
18710.0000
 21
7024.59766
  0
TEXT
  8
3
 7
SIMPLEX
 10
14766.1807
 20
7082.30957
 40
230.846420
  1
 G-18
 50
   0.000
  0
LINE
  8
1
 10
17960.0000
 20
2635.40332
 11
24410.0020
 21
2635.40332
  0
TEXT
  8
3
 7
SIMPLEX
 10
20688.6797
 20
2693.11499
 40
230.846420
  1
 G-19
 50
   0.000
  0
LINE
  8
1
 10
17960.0000
 20
4135.40332
 11
24410.0020
 21
4135.40332
  0
TEXT
  8
3
 7
SIMPLEX
 10
20688.6797
 20
4193.11475
 40
230.846420
  1
 G-19
 50
   0.000
  0
LINE
  8
1
 10
17960.0000
 20
5635.40332
 11
24410.0020
 21
5635.40332
  0
TEXT
  8
3
 7
SIMPLEX
 10
20688.6797
 20
5693.11475
 40
230.846420
  1
 G-19
 50
   0.000
  0
LINE
  8
1
 10
17960.0000
 20
7135.40332
 11
24410.0020
 21
7135.40332
  0
TEXT
  8
3
 7
SIMPLEX
 10
20688.6797
 20
7193.11572
 40
230.846420
  1
 G-19
 50
   0.000
  0
LINE
  8
1
 10
23660.0000
 20
2524.59692
 11
30410.0000
 21
2524.59692
  0
TEXT
  8
3
 7
SIMPLEX
 10
26498.2832
 20
2582.30835
 40
230.846420
  1
 G-20
 50
   0.000
  0
LINE
  8
1
 10
23660.0000
 20
4024.59668
 11
30410.0000
 21
4024.59668
  0
TEXT
  8
3
 7
SIMPLEX
 10
26498.2832
 20
4082.30859
 40
230.846420
  1
 G-20
 50
   0.000
  0
LINE
  8
1
 10
23660.0000
 20
5524.59668
 11
30410.0000
 21
5524.59668
  0
TEXT
  8
3
 7
SIMPLEX
 10
26998.2852
 20
5582.30859
 40
230.846420
  1
 G-20
 50
   0.000
  0
LINE
  8
1
 10
23660.0000
 20
7024.59766
 11
30410.0000
 21
7024.59766
  0
TEXT
  8
3
 7
SIMPLEX
 10
26498.2832
 20
7082.30957
 40
230.846420
  1
 G-20
 50
   0.000
  0
LINE
  8
1
 10
29660.0000
 20
2635.40332
 11
36285.0000
 21
2635.40332
  0
TEXT
  8
3
 7
SIMPLEX
 10
32663.6797
 20
2693.11499
 40
230.846420
  1
 G-21
 50
   0.000
  0
LINE
  8
1
 10
29660.0000
 20
4135.40332
 11
36285.0000
 21
4135.40332
  0
TEXT
  8
3
 7
SIMPLEX
 10
32663.6797
 20
4193.11475
 40
230.846420
  1
 G-21
 50
   0.000
  0
LINE
  8
1
 10
29660.0000
 20
5635.40332
 11
36285.0000
 21
5635.40332
  0
TEXT
  8
3
 7
SIMPLEX
 10
32663.6797
 20
5693.11475
 40
230.846420
  1
 G-21
 50
   0.000
  0
LINE
  8
1
 10
29660.0000
 20
7135.40332
 11
36285.0000
 21
7135.40332
  0
TEXT
  8
3
 7
SIMPLEX
 10
32663.6797
 20
7193.11572
 40
230.846420
  1
 G-21
 50
   0.000
999
END:     AREA=Girts
999
START:   AREA=Lap Girts
999
END:     AREA=Lap Girts
999
START:   AREA=Column Flange Brace
999
END:     AREA=Column Flange Brace
999
START:   AREA=Wall Struts
  0
LINE
  8
1
 10
6144.59717
 20
6305.40283
 11
12245.4023
 21
6305.40283
  0
TEXT
  8
3
 7
SIMPLEX
 10
8196.58984
 20
6363.11475
 40
230.846420
  1
 G-24(Strut)
 50
   0.000
  0
LINE
  8
1
 10
7016.14063
 20
6305.40283
 11
7016.14063
 21
5635.40332
  0
LINE
  8
1
 10
7887.68408
 20
6305.40283
 11
7887.68408
 21
5635.40332
  0
LINE
  8
1
 10
8759.22754
 20
6305.40283
 11
8759.22754
 21
5635.40332
  0
LINE
  8
1
 10
9630.77148
 20
6305.40283
 11
9630.77148
 21
5635.40332
  0
LINE
  8
1
 10
10502.3154
 20
6305.40283
 11
10502.3154
 21
5635.40332
  0
LINE
  8
1
 10
11373.8594
 20
6305.40283
 11
11373.8594
 21
5635.40332
  0
LINE
  8
1
 10
23979.5977
 20
6194.59668
 11
30090.4023
 21
6194.59668
  0
TEXT
  8
3
 7
SIMPLEX
 10
26036.5879
 20
6252.30762
 40
230.846420
  1
 G-25(Strut)
 50
   0.000
  0
LINE
  8
1
 10
24852.5703
 20
6194.59668
 11
24852.5703
 21
5524.59668
  0
LINE
  8
1
 10
25725.5449
 20
6194.59668
 11
25725.5449
 21
5524.59668
  0
LINE
  8
1
 10
26598.5156
 20
6194.59668
 11
26598.5156
 21
5524.59668
  0
LINE
  8
1
 10
27471.4883
 20
6194.59668
 11
27471.4883
 21
5524.59668
  0
LINE
  8
1
 10
28344.4609
 20
6194.59668
 11
28344.4609
 21
5524.59668
  0
LINE
  8
1
 10
29217.4375
 20
6194.59668
 11
29217.4375
 21
5524.59668
  0
LINE
  8
1
 10
30145.8086
 20
5496.79980
 11
35734.1914
 21
5496.79980
  0
TEXT
  8
3
 7
SIMPLEX
 10
32836.1172
 20
5554.51221
 40
230.846420
  1
EB-2
 50
   0.000
999
END:     AREA=Wall Struts
999
START:   AREA=Accessories
999
END:     AREA=Accessories
999
START:   AREA=Cranes
999
END:     AREA=Cranes
999
START:   AREA=JBlocks
  0
TEXT
  8
3
 7
SIMPLEX
 10
2122.06909
 20
3274.59668
 40
230.846420
  1
JB-3
 50
   0.000
  0
LINE
  8
1
 10
2066.66577
 20
2580.00000
 11
2066.66577
 21
3969.19360
  0
TEXT
  8
3
 7
SIMPLEX
 10
2122.06909
 20
4774.59668
 40
230.846420
  1
JB-3
 50
   0.000
  0
LINE
  8
1
 10
2066.66577
 20
4080.00024
 11
2066.66577
 21
5469.19336
  0
TEXT
  8
3
 7
SIMPLEX
 10
2122.06909
 20
6274.59766
 40
230.846420
  1
JB-3
 50
   0.000
  0
LINE
  8
1
 10
2066.66577
 20
5580.00000
 11
2066.66577
 21
6969.19482
  0
TEXT
  8
3
 7
SIMPLEX
 10
2122.06909
 20
7694.59668
 40
230.846420
  1
JB-6
 50
   0.000
  0
LINE
  8
1
 10
2066.66577
 20
7080.00049
 11
2066.66577
 21
8309.19434
  0
LINE
  8
1
 10
4133.33447
 20
2580.00000
 11
4133.33447
 21
3969.19360
  0
LINE
  8
1
 10
4133.33447
 20
4080.00024
 11
4133.33447
 21
5469.19336
  0
LINE
  8
1
 10
4133.33447
 20
5580.00000
 11
4133.33447
 21
6969.19482
  0
LINE
  8
1
 10
4133.33447
 20
7080.00049
 11
4133.33447
 21
8309.19434
  0
LINE
  8
1
 10
8196.66602
 20
2690.80640
 11
8196.66602
 21
4080.00024
  0
LINE
  8
1
 10
8196.66602
 20
4190.80664
 11
8196.66602
 21
5580.00000
  0
LINE
  8
1
 10
8196.66602
 20
5690.80664
 11
8196.66602
 21
7080.00049
  0
LINE
  8
1
 10
8196.66602
 20
7190.80664
 11
8196.66602
 21
8420.00000
  0
LINE
  8
1
 10
10193.3340
 20
2690.80640
 11
10193.3340
 21
4080.00024
  0
LINE
  8
1
 10
10193.3340
 20
4190.80664
 11
10193.3340
 21
5580.00000
  0
LINE
  8
1
 10
10193.3340
 20
5690.80664
 11
10193.3340
 21
7080.00049
  0
LINE
  8
1
 10
10193.3340
 20
7190.80664
 11
10193.3340
 21
8420.00000
  0
LINE
  8
1
 10
14238.3340
 20
2580.00000
 11
14238.3340
 21
3969.19360
  0
LINE
  8
1
 10
14238.3340
 20
4080.00024
 11
14238.3340
 21
5469.19336
  0
LINE
  8
1
 10
14238.3340
 20
5580.00000
 11
14238.3340
 21
6969.19482
  0
LINE
  8
1
 10
14238.3340
 20
7080.00049
 11
14238.3340
 21
8309.19434
  0
LINE
  8
1
 10
16286.6670
 20
2580.00000
 11
16286.6670
 21
3969.19360
  0
LINE
  8
1
 10
16286.6670
 20
4080.00024
 11
16286.6670
 21
5469.19336
  0
LINE
  8
1
 10
16286.6670
 20
5580.00000
 11
16286.6670
 21
6969.19482
  0
LINE
  8
1
 10
16286.6670
 20
7080.00049
 11
16286.6670
 21
8309.19434
  0
LINE
  8
1
 10
20235.0020
 20
2690.80640
 11
20235.0020
 21
4080.00024
  0
LINE
  8
1
 10
20235.0020
 20
4190.80664
 11
20235.0020
 21
5580.00000
  0
LINE
  8
1
 10
20235.0020
 20
5690.80664
 11
20235.0020
 21
7080.00049
  0
LINE
  8
1
 10
20235.0020
 20
7190.80664
 11
20235.0020
 21
8420.00000
  0
LINE
  8
1
 10
22134.9980
 20
2690.80640
 11
22134.9980
 21
4080.00024
  0
LINE
  8
1
 10
22134.9980
 20
4190.80664
 11
22134.9980
 21
5580.00000
  0
LINE
  8
1
 10
22134.9980
 20
5690.80664
 11
22134.9980
 21
7080.00049
  0
LINE
  8
1
 10
22134.9980
 20
7190.80664
 11
22134.9980
 21
8420.00000
  0
LINE
  8
1
 10
26035.0020
 20
2580.00000
 11
26035.0020
 21
3969.19360
  0
LINE
  8
1
 10
26035.0020
 20
4080.00024
 11
26035.0020
 21
5469.19336
  0
LINE
  8
1
 10
26035.0020
 20
5580.00000
 11
26035.0020
 21
6969.19482
  0
LINE
  8
1
 10
26035.0020
 20
7080.00049
 11
26035.0020
 21
8309.19434
  0
LINE
  8
1
 10
28035.0020
 20
2580.00000
 11
28035.0020
 21
3969.19360
  0
LINE
  8
1
 10
28035.0020
 20
4080.00024
 11
28035.0020
 21
5469.19336
  0
LINE
  8
1
 10
28035.0020
 20
5580.00000
 11
28035.0020
 21
6969.19482
  0
LINE
  8
1
 10
28035.0020
 20
7080.00049
 11
28035.0020
 21
8309.19434
  0
LINE
  8
1
 10
32118.3320
 20
2690.80640
 11
32118.3320
 21
4080.00024
  0
LINE
  8
1
 10
32118.3320
 20
4190.80664
 11
32118.3320
 21
5580.00000
  0
LINE
  8
1
 10
32118.3320
 20
5690.80664
 11
32118.3320
 21
7080.00049
  0
LINE
  8
1
 10
32118.3320
 20
7190.80664
 11
32118.3320
 21
8420.00000
  0
LINE
  8
1
 10
34201.6680
 20
2690.80640
 11
34201.6680
 21
4080.00024
  0
LINE
  8
1
 10
34201.6680
 20
4190.80664
 11
34201.6680
 21
5580.00000
  0
LINE
  8
1
 10
34201.6680
 20
5690.80664
 11
34201.6680
 21
7080.00049
  0
LINE
  8
1
 10
34201.6680
 20
7190.80664
 11
34201.6680
 21
8420.00000
  0
TEXT
  8
3
 7
SIMPLEX
 10
7253.73682
 20
5970.40234
 40
230.846420
  1
WA
 50
   0.000
  0
LINE
  8
1
 10
7198.33398
 20
5690.80664
 11
7198.33398
 21
6250.00000
  0
LINE
  8
1
 10
8196.66602
 20
5690.80664
 11
8196.66602
 21
6250.00000
  0
LINE
  8
1
 10
9195.00098
 20
5690.80664
 11
9195.00098
 21
6250.00000
  0
LINE
  8
1
 10
10193.3340
 20
5690.80664
 11
10193.3340
 21
6250.00000
  0
LINE
  8
1
 10
11191.6660
 20
5690.80664
 11
11191.6660
 21
6250.00000
  0
TEXT
  8
3
 7
SIMPLEX
 10
25090.4043
 20
5859.59668
 40
230.846420
  1
WA
 50
   0.000
  0
LINE
  8
1
 10
25035.0020
 20
5580.00000
 11
25035.0020
 21
6139.19336
  0
LINE
  8
1
 10
26035.0020
 20
5580.00000
 11
26035.0020
 21
6139.19336
  0
LINE
  8
1
 10
27035.0020
 20
5580.00000
 11
27035.0020
 21
6139.19336
  0
LINE
  8
1
 10
28035.0020
 20
5580.00000
 11
28035.0020
 21
6139.19336
  0
LINE
  8
1
 10
29035.0020
 20
5580.00000
 11
29035.0020
 21
6139.19336
999
END:     AREA=JBlocks
999
START:   AREA=Clips
999
END:     AREA=Clips
999
START:   AREA=Strut Bolts
999
START:   AREA=Strut Bolts
999
START:   AREA=JackBeams
999
END:     AREA=JackBeams
999
START:   AREA=Draw Adjacent Surfaces
999
END:     AREA=Draw Adjacent Surfaces
999
START:   AREA=Dimensions
  0
TEXT
  8
11
 7
SIMPLEX
 10
6286.56787
 20
-1659.7856
 40
173.134811
  1
375
 50
   0.000
  0
LINE
  8
2
 10
6200.00000
 20
-1457.7950
 11
6200.00000
 21
-1284.6603
  0
LINE
  8
2
 10
6200.00000
 20
-1371.2277
 11
6575.00049
 21
-1371.2277
  0
TEXT
  8
11
 7
SIMPLEX
 10
5594.02832
 20
-1313.5161
 40
173.134811
  1
375
 50
   0.000
  0
LINE
  8
2
 10
6200.00000
 20
-1457.7950
 11
6200.00000
 21
-1284.6603
  0
LINE
  8
2
 10
6200.00000
 20
-1371.2277
 11
5824.99951
 21
-1371.2277
  0
TEXT
  8
11
 7
SIMPLEX
 10
12276.5674
 20
-1659.7856
 40
173.134811
  1
375
 50
   0.000
  0
LINE
  8
2
 10
12190.0000
 20
-1457.7950
 11
12190.0000
 21
-1284.6603
  0
LINE
  8
2
 10
12190.0000
 20
-1371.2277
 11
12565.0000
 21
-1371.2277
  0
TEXT
  8
11
 7
SIMPLEX
 10
11584.0283
 20
-1313.5161
 40
173.134811
  1
375
 50
   0.000
  0
LINE
  8
2
 10
12190.0000
 20
-1457.7950
 11
12190.0000
 21
-1284.6603
  0
LINE
  8
2
 10
12190.0000
 20
-1371.2277
 11
11815.0000
 21
-1371.2277
  0
TEXT
  8
11
 7
SIMPLEX
 10
18421.5664
 20
-1659.7856
 40
173.134811
  1
375
 50
   0.000
  0
LINE
  8
2
 10
18335.0000
 20
-1457.7950
 11
18335.0000
 21
-1284.6603
  0
LINE
  8
2
 10
18335.0000
 20
-1371.2277
 11
18710.0000
 21
-1371.2277
  0
TEXT
  8
11
 7
SIMPLEX
 10
17729.0273
 20
-1313.5161
 40
173.134811
  1
375
 50
   0.000
  0
LINE
  8
2
 10
18335.0000
 20
-1457.7950
 11
18335.0000
 21
-1284.6603
  0
LINE
  8
2
 10
18335.0000
 20
-1371.2277
 11
17960.0000
 21
-1371.2277
  0
TEXT
  8
11
 7
SIMPLEX
 10
24121.5684
 20
-1659.7856
 40
173.134811
  1
375
 50
   0.000
  0
LINE
  8
2
 10
24035.0000
 20
-1457.7950
 11
24035.0000
 21
-1284.6603
  0
LINE
  8
2
 10
24035.0000
 20
-1371.2277
 11
24410.0020
 21
-1371.2277
  0
TEXT
  8
11
 7
SIMPLEX
 10
23429.0293
 20
-1313.5161
 40
173.134811
  1
375
 50
   0.000
  0
LINE
  8
2
 10
24035.0000
 20
-1457.7950
 11
24035.0000
 21
-1284.6603
  0
LINE
  8
2
 10
24035.0000
 20
-1371.2277
 11
23660.0000
 21
-1371.2277
  0
TEXT
  8
11
 7
SIMPLEX
 10
30121.5684
 20
-1659.7856
 40
173.134811
  1
375
 50
   0.000
  0
LINE
  8
2
 10
30035.0020
 20
-1457.7950
 11
30035.0020
 21
-1284.6603
  0
LINE
  8
2
 10
30035.0020
 20
-1371.2277
 11
30410.0000
 21
-1371.2277
  0
TEXT
  8
11
 7
SIMPLEX
 10
29429.0273
 20
-1313.5161
 40
173.134811
  1
375
 50
   0.000
  0
LINE
  8
2
 10
30035.0020
 20
-1457.7950
 11
30035.0020
 21
-1284.6603
  0
LINE
  8
2
 10
30035.0020
 20
-1371.2277
 11
29660.0000
 21
-1371.2277
  0
TEXT
  8
2
 7
SIMPLEX
 10
-923.38568
 20
-1313.5161
 40
230.846420
  1
GIRT
 50
   0.000
  0
TEXT
  8
2
 7
SIMPLEX
 10
-923.38568
 20
-1659.7856
 40
230.846420
  1
LAPS
 50
   0.000
999
START:   AREA=Match Line
  0
LINE
  8
12
 10
0.00000000
 20
8530.80664
 11
0.00000000
 21
11993.5029
  0
LINE
  8
12
 10
36285.0000
 20
8530.80664
 11
36285.0000
 21
11993.5029
  0
LINE
  8
2
 10
0.00000000
 20
11762.6563
 11
36285.0000
 21
11762.6563
  0
LINE
  8
2
 10
0.00000000
 20
10377.5771
 11
36285.0000
 21
10377.5771
  0
LINE
  8
12
 10
6200.00000
 20
8530.80664
 11
6200.00000
 21
10839.2695
  0
LINE
  8
12
 10
12190.0000
 20
8530.80664
 11
12190.0000
 21
10839.2695
  0
LINE
  8
12
 10
18335.0000
 20
8530.80664
 11
18335.0000
 21
10839.2695
  0
LINE
  8
12
 10
24035.0000
 20
8530.80664
 11
24035.0000
 21
10839.2695
  0
LINE
  8
12
 10
36285.0000
 20
8530.80664
 11
36285.0000
 21
10839.2695
  0
LINE
  8
12
 10
30035.0020
 20
8530.80664
 11
30035.0020
 21
10839.2695
  0
INSERT
  8
2
  2
ARROW
 10
0.00000000
 20
10377.5771
 41
1.00000000
 42
1.00000000
 43
1.00000000
 50
 180.000
  0
INSERT
  8
2
  2
ARROW
 10
6200.00000
 20
10377.5771
 41
1.00000000
 42
1.00000000
 43
1.00000000
 50
   0.000
  0
INSERT
  8
2
  2
ARROW
 10
6200.00000
 20
10377.5771
 41
1.00000000
 42
1.00000000
 43
1.00000000
 50
 180.000
  0
INSERT
  8
2
  2
ARROW
 10
12190.0000
 20
10377.5771
 41
1.00000000
 42
1.00000000
 43
1.00000000
 50
   0.000
  0
INSERT
  8
2
  2
ARROW
 10
12190.0000
 20
10377.5771
 41
1.00000000
 42
1.00000000
 43
1.00000000
 50
 180.000
  0
INSERT
  8
2
  2
ARROW
 10
18335.0000
 20
10377.5771
 41
1.00000000
 42
1.00000000
 43
1.00000000
 50
   0.000
  0
INSERT
  8
2
  2
ARROW
 10
18335.0000
 20
10377.5771
 41
1.00000000
 42
1.00000000
 43
1.00000000
 50
 180.000
  0
INSERT
  8
2
  2
ARROW
 10
24035.0000
 20
10377.5771
 41
1.00000000
 42
1.00000000
 43
1.00000000
 50
   0.000
  0
INSERT
  8
2
  2
ARROW
 10
24035.0000
 20
10377.5771
 41
1.00000000
 42
1.00000000
 43
1.00000000
 50
 180.000
  0
INSERT
  8
2
  2
ARROW
 10
30035.0020
 20
10377.5771
 41
1.00000000
 42
1.00000000
 43
1.00000000
 50
   0.000
  0
INSERT
  8
2
  2
ARROW
 10
30035.0020
 20
10377.5771
 41
1.00000000
 42
1.00000000
 43
1.00000000
 50
 180.000
  0
INSERT
  8
2
  2
ARROW
 10
36285.0000
 20
10377.5771
 41
1.00000000
 42
1.00000000
 43
1.00000000
 50
   0.000
  0
INSERT
  8
2
  2
ARROW
 10
0.00000000
 20
11762.6563
 41
1.00000000
 42
1.00000000
 43
1.00000000
 50
 180.000
  0
INSERT
  8
2
  2
ARROW
 10
36285.0000
 20
11762.6563
 41
1.00000000
 42
1.00000000
 43
1.00000000
 50
   0.000
  0
CIRCLE
  8
13
 10
0.00000000
 20
12270.5186
 40
277.015686
  0
TEXT
  8
13
 7
SIMPLEX
 10
-81.027084
 20
12145.8613
 40
249.314117
  1
1
 72
           1
 11
0.00000000
 21
12145.8613
 50
   0.000
  0
CIRCLE
  8
13
 10
36285.0000
 20
12270.5186
 40
277.015686
  0
TEXT
  8
13
 7
SIMPLEX
 10
36160.3438
 20
12145.8613
 40
249.314117
  1
7
 72
           1
 11
36285.0000
 21
12145.8613
 50
   0.000
  0
CIRCLE
  8
13
 10
6200.00000
 20
11116.2861
 40
277.015686
  0
TEXT
  8
13
 7
SIMPLEX
 10
6075.34326
 20
10991.6289
 40
249.314117
  1
2
 72
           1
 11
6200.00000
 21
10991.6289
 50
   0.000
  0
CIRCLE
  8
13
 10
12190.0000
 20
11116.2861
 40
277.015686
  0
TEXT
  8
13
 7
SIMPLEX
 10
12065.3428
 20
10991.6289
 40
249.314117
  1
3
 72
           1
 11
12190.0000
 21
10991.6289
 50
   0.000
  0
CIRCLE
  8
13
 10
18335.0000
 20
11116.2861
 40
277.015686
  0
TEXT
  8
13
 7
SIMPLEX
 10
18210.3418
 20
10991.6289
 40
249.314117
  1
4
 72
           1
 11
18335.0000
 21
10991.6289
 50
   0.000
  0
CIRCLE
  8
13
 10
24035.0000
 20
11116.2861
 40
277.015686
  0
TEXT
  8
13
 7
SIMPLEX
 10
23910.3438
 20
10991.6289
 40
249.314117
  1
5
 72
           1
 11
24035.0000
 21
10991.6289
 50
   0.000
  0
CIRCLE
  8
13
 10
30035.0020
 20
11116.2861
 40
277.015686
  0
TEXT
  8
13
 7
SIMPLEX
 10
29910.3418
 20
10991.6289
 40
249.314117
  1
6
 72
           1
 11
30035.0020
 21
10991.6289
 50
   0.000
  0
TEXT
  8
11
 7
SIMPLEX
 10
2638.30713
 20
10454.5264
 40
230.846420
  1
6200
 50
   0.000
  0
TEXT
  8
11
 7
SIMPLEX
 10
8733.30664
 20
10454.5264
 40
230.846420
  1
5990
 50
   0.000
  0
TEXT
  8
11
 7
SIMPLEX
 10
14841.2051
 20
10454.5264
 40
230.846420
  1
6145
 50
   0.000
  0
TEXT
  8
11
 7
SIMPLEX
 10
20723.3086
 20
10454.5264
 40
230.846420
  1
5700
 50
   0.000
  0
TEXT
  8
11
 7
SIMPLEX
 10
26573.3086
 20
10454.5264
 40
230.846420
  1
6000
 50
   0.000
  0
TEXT
  8
11
 7
SIMPLEX
 10
32698.3066
 20
10454.5264
 40
230.846420
  1
6250
 50
   0.000
  0
LINE
  8
12
 10
439.999970
 20
8530.80664
 11
439.999970
 21
10026.6914
  0
LINE
  8
2
 10
0.00000000
 20
9915.88477
 11
-461.69284
 21
9915.88477
  0
LINE
  8
2
 10
439.999970
 20
9915.88477
 11
901.692810
 21
9915.88477
  0
INSERT
  8
2
  2
ARROW
 10
0.00000000
 20
9915.88477
 41
1.00000000
 42
1.00000000
 43
1.00000000
 50
   0.000
  0
INSERT
  8
2
  2
ARROW
 10
439.999970
 20
9915.88477
 41
1.00000000
 42
1.00000000
 43
1.00000000
 50
 180.000
  0
TEXT
  8
11
 7
SIMPLEX
 10
555.423157
 20
9992.83301
 40
230.846420
  1
440
 50
   0.000
  0
LINE
  8
12
 10
35845.0000
 20
8530.80664
 11
35845.0000
 21
10026.6914
  0
LINE
  8
2
 10
35845.0000
 20
9915.88477
 11
35383.3047
 21
9915.88477
  0
LINE
  8
2
 10
36285.0000
 20
9915.88477
 11
36746.6914
 21
9915.88477
  0
INSERT
  8
2
  2
ARROW
 10
35845.0000
 20
9915.88477
 41
1.00000000
 42
1.00000000
 43
1.00000000
 50
   0.000
  0
INSERT
  8
2
  2
ARROW
 10
36285.0000
 20
9915.88477
 41
1.00000000
 42
1.00000000
 43
1.00000000
 50
 180.000
  0
TEXT
  8
11
 7
SIMPLEX
 10
35037.0352
 20
9992.83301
 40
230.846420
  1
440
 50
   0.000
  0
LINE
  8
12
 10
36285.0000
 20
8530.80664
 11
36285.0000
 21
11993.5029
  0
LINE
  8
12
 10
38085.0000
 20
8530.80664
 11
38085.0000
 21
11993.5029
  0
LINE
  8
2
 10
36285.0000
 20
11762.6563
 11
38085.0000
 21
11762.6563
  0
INSERT
  8
2
  2
ARROW
 10
36285.0000
 20
11762.6563
 41
1.00000000
 42
1.00000000
 43
1.00000000
 50
 180.000
  0
INSERT
  8
2
  2
ARROW
 10
38085.0000
 20
11762.6563
 41
1.00000000
 42
1.00000000
 43
1.00000000
 50
   0.000
  0
TEXT
  8
11
 7
SIMPLEX
 10
36763.7070
 20
11839.6055
 40
230.846420
  1
1800
 50
   0.000
  0
TEXT
  8
11
 7
SIMPLEX
 10
15366.5732
 20
11873.4629
 40
230.846420
  1
36285
 50
   0.000
  0
TEXT
  8
15
 7
SIMPLEX
 10
16520.8047
 20
11873.4629
 40
230.846420
  1
 OUT-TO-OUT OF STEEL
 50
   0.000
  0
TEXT
  8
15
 7
SIMPLEX
 10
13063.8779
 20
-2490.8328
 40
369.354279
  1
SIDEWALL FRAMING: FRAME LINE A
 72
           1
 11
18142.5000
 21
-2490.8328
 50
   0.000
  0
LINE
  8
12
 10
-387.82196
 20
0.00000000
 11
-2068.3838
 21
0.00000000
  0
LINE
  8
12
 10
-387.82196
 20
2580.00000
 11
-2068.3838
 21
2580.00000
  0
LINE
  8
12
 10
-387.82196
 20
4080.00024
 11
-2068.3838
 21
4080.00024
  0
LINE
  8
12
 10
-387.82196
 20
5580.00000
 11
-2068.3838
 21
5580.00000
  0
LINE
  8
12
 10
-387.82196
 20
7080.00049
 11
-2068.3838
 21
7080.00049
  0
LINE
  8
12
 10
-387.82196
 20
8420.00000
 11
-2068.3838
 21
8420.00000
  0
LINE
  8
12
 10
-1957.5778
 20
0.00000000
 11
-1957.5778
 21
0.00000000
  0
LINE
  8
12
 10
-1957.5776
 20
2580.00000
 11
-1957.5776
 21
2580.00000
  0
LINE
  8
2
 10
-1957.5778
 20
0.00000000
 11
-1957.5776
 21
2580.00000
  0
INSERT
  8
2
  2
ARROW
 10
-1957.5778
 20
0.00000000
 41
1.00000000
 42
1.00000000
 43
1.00000000
 50
 270.000
  0
INSERT
  8
2
  2
ARROW
 10
-1957.5776
 20
2580.00000
 41
1.00000000
 42
1.00000000
 43
1.00000000
 50
  90.000
  0
TEXT
  8
11
 7
SIMPLEX
 10
-2034.5266
 20
828.307190
 40
230.846420
  1
2580
 50
  90.000
  0
LINE
  8
12
 10
-1957.5778
 20
2580.00000
 11
-1957.5778
 21
2580.00000
  0
LINE
  8
12
 10
-1957.5776
 20
4080.00024
 11
-1957.5776
 21
4080.00024
  0
LINE
  8
2
 10
-1957.5778
 20
2580.00000
 11
-1957.5776
 21
4080.00024
  0
INSERT
  8
2
  2
ARROW
 10
-1957.5778
 20
2580.00000
 41
1.00000000
 42
1.00000000
 43
1.00000000
 50
 270.000
  0
INSERT
  8
2
  2
ARROW
 10
-1957.5776
 20
4080.00024
 41
1.00000000
 42
1.00000000
 43
1.00000000
 50
  90.000
  0
TEXT
  8
11
 7
SIMPLEX
 10
-2034.5266
 20
2908.70532
 40
230.846420
  1
1500
 50
  90.000
  0
LINE
  8
12
 10
-1957.5778
 20
4080.00024
 11
-1957.5778
 21
4080.00024
  0
LINE
  8
12
 10
-1957.5776
 20
5580.00000
 11
-1957.5776
 21
5580.00000
  0
LINE
  8
2
 10
-1957.5778
 20
4080.00024
 11
-1957.5776
 21
5580.00000
  0
INSERT
  8
2
  2
ARROW
 10
-1957.5778
 20
4080.00024
 41
1.00000000
 42
1.00000000
 43
1.00000000
 50
 270.000
  0
INSERT
  8
2
  2
ARROW
 10
-1957.5776
 20
5580.00000
 41
1.00000000
 42
1.00000000
 43
1.00000000
 50
  90.000
  0
TEXT
  8
11
 7
SIMPLEX
 10
-2034.5266
 20
4408.70508
 40
230.846420
  1
1500
 50
  90.000
  0
LINE
  8
12
 10
-1957.5778
 20
5580.00000
 11
-1957.5778
 21
5580.00000
  0
LINE
  8
12
 10
-1957.5776
 20
7080.00049
 11
-1957.5776
 21
7080.00049
  0
LINE
  8
2
 10
-1957.5778
 20
5580.00000
 11
-1957.5776
 21
7080.00049
  0
INSERT
  8
2
  2
ARROW
 10
-1957.5778
 20
5580.00000
 41
1.00000000
 42
1.00000000
 43
1.00000000
 50
 270.000
  0
INSERT
  8
2
  2
ARROW
 10
-1957.5776
 20
7080.00049
 41
1.00000000
 42
1.00000000
 43
1.00000000
 50
  90.000
  0
TEXT
  8
11
 7
SIMPLEX
 10
-2034.5266
 20
5908.70508
 40
230.846420
  1
1500
 50
  90.000
  0
LINE
  8
12
 10
-1957.5778
 20
7080.00049
 11
-1957.5778
 21
7080.00049
  0
LINE
  8
12
 10
-1957.5776
 20
8420.00000
 11
-1957.5776
 21
8420.00000
  0
LINE
  8
2
 10
-1957.5778
 20
7080.00049
 11
-1957.5776
 21
8420.00000
  0
INSERT
  8
2
  2
ARROW
 10
-1957.5778
 20
7080.00049
 41
1.00000000
 42
1.00000000
 43
1.00000000
 50
 270.000
  0
INSERT
  8
2
  2
ARROW
 10
-1957.5776
 20
8420.00000
 41
1.00000000
 42
1.00000000
 43
1.00000000
 50
  90.000
  0
TEXT
  8
11
 7
SIMPLEX
 10
-2034.5266
 20
7328.70508
 40
230.846420
  1
1340
 50
  90.000
999
START:   AREA=Eave Dimension
  0
LINE
  8
12
 10
-2068.3838
 20
0.00000000
 11
-2991.7695
 21
0.00000000
  0
LINE
  8
12
 10
-2068.3838
 20
8420.00000
 11
-2991.7695
 21
8420.00000
  0
LINE
  8
2
 10
-2880.9634
 20
0.00000000
 11
-2880.9634
 21
8420.00000
  0
INSERT
  8
2
  2
ARROW
 10
-2880.9634
 20
0.00000000
 41
1.00000000
 42
1.00000000
 43
1.00000000
 50
 270.000
  0
INSERT
  8
2
  2
ARROW
 10
-2880.9634
 20
8420.00000
 41
1.00000000
 42
1.00000000
 43
1.00000000
 50
  90.000
  0
TEXT
  8
11
 7
SIMPLEX
 10
-2957.9121
 20
3748.30713
 40
230.846420
  1
8420
 50
  90.000
999
END:     AREA=Eave Dimension
999
START:   AREA=Draw Canopy Dimension
999
END:     AREA=Draw Canopy Dimension
999
START:   AREA=Draw Floor and Extension Strut Dimensions
  0
LINE
  8
12
 10
38434.3477
 20
5496.79980
 11
38665.1914
 21
5496.79980
  0
LINE
  8
12
 10
38434.3477
 20
0.00000000
 11
38665.1914
 21
0.00000000
  0
LINE
  8
2
 10
38549.7695
 20
0.00000000
 11
38549.7695
 21
5496.79980
  0
INSERT
  8
2
  2
ARROW
 10
38549.7695
 20
0.00000000
 41
1.00000000
 42
1.00000000
 43
1.00000000
 50
 270.000
  0
INSERT
  8
2
  2
ARROW
 10
38549.7695
 20
5496.79980
 41
1.00000000
 42
1.00000000
 43
1.00000000
 50
  90.000
  0
TEXT
  8
11
 7
SIMPLEX
 10
38472.8203
 20
2286.70728
 40
230.846420
  1
5497
 50
  90.000
999
END:     AREA=Draw Floor and Extension Strut Dimensions
  0
LINE
  8
2
 10
2066.66675
 20
0.00000000
 11
2066.66675
 21
2500.00000
  0
INSERT
  8
2
  2
ARROW
 10
2066.66675
 20
0.00000000
 41
1.00000000
 42
1.00000000
 43
1.00000000
 50
 270.000
  0
INSERT
  8
2
  2
ARROW
 10
2066.66675
 20
2500.00000
 41
1.00000000
 42
1.00000000
 43
1.00000000
 50
  90.000
  0
TEXT
  8
11
 7
SIMPLEX
 10
1989.71790
 20
788.307190
 40
230.846420
  1
2500
 50
  90.000
999
END:     AREA=Dimensions
999
START:   AREA=Details
  0
INSERT
  8
7
  2
CUTSEC
 10
6200.00000
 20
3041.69287
 41
1.00000000
 42
-1.0000000
 43
-1.0000000
 50
   0.000
  0
CIRCLE
  8
7
 10
5590.56494
 20
3041.69287
 40
221.612564
  0
TEXT
  8
7
 7
SIMPLEX
 10
5413.27637
 20
2953.04810
 40
177.290054
  1
H2
 72
           1
 11
5590.56494
 21
3041.69287
 73
           2
 50
   0.000
  0
CIRCLE
  8
7
 10
439.999970
 20
8420.00000
 40
92.3385697
  0
LINE
  8
7
 10
499.355072
 20
8490.73438
 11
701.162537
 21
8731.23242
  0
CIRCLE
  8
7
 10
843.614746
 20
8900.99512
 40
221.612564
  0
TEXT
  8
7
 7
SIMPLEX
 10
630.866699
 20
8830.07910
 40
141.832031
  1
J24
 72
           1
 11
843.614746
 21
8900.99512
 73
           2
 50
   0.000
  0
CIRCLE
  8
7
 10
6200.00000
 20
8420.00000
 40
92.3385697
  0
LINE
  8
7
 10
6259.35547
 20
8490.73438
 11
6461.16309
 21
8731.23242
  0
CIRCLE
  8
7
 10
6603.61475
 20
8900.99512
 40
221.612564
  0
TEXT
  8
7
 7
SIMPLEX
 10
6415.68750
 20
8830.07910
 40
141.832031
  1
J16
 72
           1
 11
6603.61475
 21
8900.99512
 73
           2
 50
   0.000
999
START:   AREA=Cables
999
END:     AREA=Cables
  0
CIRCLE
  8
7
 10
6200.00000
 20
152.399994
 40
92.3385697
  0
LINE
  8
7
 10
6231.58350
 20
239.169220
 11
6338.96680
 21
534.184509
  0
CIRCLE
  8
7
 10
6414.76758
 20
742.430664
 40
221.612564
  0
TEXT
  8
7
 7
SIMPLEX
 10
6237.47754
 20
653.785645
 40
177.290054
  1
Q3
 72
           1
 11
6414.76758
 21
742.430664
 73
           2
 50
   0.000
999
END:     AREA=Details
999
START:   AREA=Extensions
999
END:     AREA=Extensions
999
START:   AREA=Eave Extensions
999
END:     AREA=Eave Extensions
999
START:   AREA=Canopy Extensions around corner
999
START:   AREA=Eave/Extension Purlins
  0
INSERT
  8
10
  2
ZCOL
 10
36583.5117
 20
5651.68115
 41
-8.7500000
 42
8.38836860
 43
8.38836860
 50
  -5.711
  0
INSERT
  8
10
  2
ZCOL
 10
37974.4258
 20
5512.58887
 41
8.75000000
 42
8.38836860
 43
8.38836860
 50
  -5.711
999
START:   AREA=Eave/Extension Purlins
  0
LINE
  8
1
 10
38084.9883
 20
5270.00146
 11
36285.0000
 21
5450.00000
  0
LINE
  8
1
 10
38084.9883
 20
5270.00146
 11
36285.0000
 21
5270.00146
  0
LINE
  8
1
 10
38084.9883
 20
5270.00146
 11
38084.9883
 21
5270.00146
  0
LINE
  8
1
 10
36285.0000
 20
5270.00146
 11
35845.0000
 21
5270.00146
  0
LINE
  8
1
 10
36285.0000
 20
5450.00000
 11
35845.0000
 21
5450.00000
  0
INSERT
  8
10
  2
WCOL
 10
37184.9961
 20
5723.61035
 41
9.08844185
 42
-9.0884419
 43
-9.0884419
 50
  -5.711
  0
TEXT
  8
3
 7
SIMPLEX
 10
36805.9883
 20
6051.50781
 40
230.846420
  1
EB-1
 50
  -5.711
  0
LINE
  8
5
 10
36285.0000
 20
5700.00000
 11
38085.0000
 21
5520.00000
  0
LINE
  8
5
 10
38085.0000
 20
5520.00000
 11
38085.0000
 21
5270.00146
999
END:     AREA=Canopy Extensions around corner
999
START:   AREA=Facia Extensions on wall
999
END:     AREA=Facia Extensions on Sidewall
999
START:   AREA=Draw Facia Detail
999
END:     AREA=Draw Facia Detail
  0
ENDBLK
  8
0
  0
BLOCK
  8
0
  2
SW2FRM
 70
     0
 10
0.00000000
 20
0.00000000
999
START:   AREA=Surface
  0
LINE
  8
5
 10
0.00000000
 20
0.00000000
 11
36284.9961
 21
0.00000000
  0
LINE
  8
5
 10
0.00000000
 20
0.00000000
 11
0.00000000
 21
8420.00000
  0
LINE
  8
5
 10
36284.9961
 20
0.00000000
 11
36284.9961
 21
8420.00000
999
END:     AREA=Surface
999
START:   AREA=Frames
  0
LINE
  8
4
 10
439.999970
 20
0.00000000
 11
439.999970
 21
8364.59668
  0
LINE
  8
4
 10
6250.00000
 20
0.00000000
 11
6250.00000
 21
8364.59668
  0
INSERT
  8
10
  2
WCOL
 10
6250.00000
 20
-110.80628
 41
9.08844185
 42
9.08844185
 43
9.08844185
 50
   0.000
  0
TEXT
  8
3
 7
SIMPLEX
 10
5788.30713
 20
-741.01697
 40
230.846420
  1
 CL2-7
 50
   0.000
  0
LINE
  8
4
 10
12249.9990
 20
0.00000000
 11
12249.9990
 21
8364.59668
  0
INSERT
  8
10
  2
WCOL
 10
12249.9990
 20
-110.80628
 41
9.08844185
 42
9.08844185
 43
9.08844185
 50
   0.000
  0
TEXT
  8
3
 7
SIMPLEX
 10
11788.3066
 20
-741.01697
 40
230.846420
  1
 CL2-1
 50
   0.000
  0
LINE
  8
4
 10
17949.9980
 20
0.00000000
 11
17949.9980
 21
8364.59668
  0
INSERT
  8
10
  2
WCOL
 10
17949.9980
 20
-110.80628
 41
9.08844185
 42
9.08844185
 43
9.08844185
 50
   0.000
  0
TEXT
  8
3
 7
SIMPLEX
 10
17488.3066
 20
-741.01697
 40
230.846420
  1
 CL2-1
 50
   0.000
  0
LINE
  8
4
 10
24094.9980
 20
0.00000000
 11
24094.9980
 21
8364.59668
  0
INSERT
  8
10
  2
WCOL
 10
24094.9980
 20
-110.80628
 41
9.08844185
 42
9.08844185
 43
9.08844185
 50
   0.000
  0
TEXT
  8
3
 7
SIMPLEX
 10
23633.3066
 20
-741.01697
 40
230.846420
  1
 CL2-1
 50
   0.000
  0
LINE
  8
4
 10
30084.9980
 20
0.00000000
 11
30084.9980
 21
8364.59668
  0
INSERT
  8
10
  2
WCOL
 10
30084.9980
 20
-110.80628
 41
9.08844185
 42
9.08844185
 43
9.08844185
 50
   0.000
  0
TEXT
  8
3
 7
SIMPLEX
 10
29623.3047
 20
-741.01697
 40
230.846420
  1
 CL2-1
 50
   0.000
  0
LINE
  8
4
 10
35844.9961
 20
0.00000000
 11
35844.9961
 21
8364.59668
  0
INSERT
  8
10
  2
WCOL
 10
439.999970
 20
-110.80628
 41
9.08844185
 42
9.08844185
 43
9.08844185
 50
   0.000
  0
TEXT
  8
3
 7
SIMPLEX
 10
-171.74306
 20
-741.01697
 40
230.846420
  1
 CL1-6
 50
   0.000
  0
INSERT
  8
10
  2
WCOL
 10
35844.9961
 20
-110.80628
 41
9.08844185
 42
9.08844185
 43
9.08844185
 50
   0.000
  0
TEXT
  8
3
 7
SIMPLEX
 10
35273.6523
 20
-741.01697
 40
230.846420
  1
 CL1-1
 50
   0.000
999
END:     AREA=Frames
999
START:   AREA=Endwall Columns
999
END:     AREA=Endwall Columns
999
START:   AREA=Soldier Rafters
999
END:     AREA=Soldier Rafters
999
START:   AREA=Eaves
  0
LINE
  8
1
 10
0.00000000
 20
8420.00000
 11
6606.53271
 21
8420.00000
  0
LINE
  8
1
 10
5893.46729
 20
8420.00000
 11
12606.5322
 21
8420.00000
  0
LINE
  8
1
 10
11893.4668
 20
8420.00000
 11
18306.5313
 21
8420.00000
  0
LINE
  8
1
 10
17593.4648
 20
8420.00000
 11
24451.5313
 21
8420.00000
  0
LINE
  8
1
 10
23738.4648
 20
8420.00000
 11
30441.5332
 21
8420.00000
  0
LINE
  8
1
 10
29728.4648
 20
8420.00000
 11
36284.9961
 21
8420.00000
999
END:     AREA=Eaves
999
START:   AREA=Framed Openings
999
END:     AREA=Framed Openings
999
START:   AREA=Wideopen Outlines
999
END:     AREA=WideOpen Outlines
999
START:   AREA=Wind Frames
999
END:     AREA=Wind Frames
999
START:   AREA=Wall Panel
999
END:     AREA=Wall Panel
999
START:   AREA=Base Angles
999
START:   AREA=Partial Wall Angles
  0
LINE
  8
5
 10
0.00000000
 20
0.00000000
 11
0.00000000
 21
2500.00000
  0
LINE
  8
5
 10
36284.9961
 20
0.00000000
 11
36284.9961
 21
2500.00000
  0
LINE
  8
5
 10
0.00000000
 20
2500.00000
 11
36284.9961
 21
2500.00000
999
END:     AREA=Partial Wall Angles
999
START:   AREA=Wide Door Angles
999
END:     AREA=Wide Door Angles
999
START:   AREA=Eave Angles
999
END:     AREA=Eave Angles
999
START:   AREA=Cables
  0
LINE
  8
1
 10
6250.00000
 20
250.000000
 11
12249.9990
 21
5973.79980
  0
LINE
  8
1
 10
12249.9990
 20
250.000000
 11
6250.00000
 21
5973.79980
  0
TEXT
  8
3
 7
SIMPLEX
 10
7384.45166
 20
1411.98877
 40
230.846420
  1
CB-3
 50
  43.650
  0
TEXT
  8
3
 7
SIMPLEX
 10
10464.1221
 20
2033.42773
 40
230.846420
  1
CB-3
 50
 -43.650
  0
LINE
  8
1
 10
6250.00000
 20
6126.20020
 11
12249.9990
 21
8059.79736
  0
LINE
  8
1
 10
12249.9990
 20
6126.20020
 11
6250.00000
 21
8059.79736
  0
TEXT
  8
3
 7
SIMPLEX
 10
7303.84619
 20
6526.45361
 40
230.846420
  1
CB-2
 50
  17.862
  0
TEXT
  8
3
 7
SIMPLEX
 10
10339.2500
 20
6802.60498
 40
230.846420
  1
CB-2
 50
 -17.862
  0
LINE
  8
1
 10
24094.9980
 20
250.000000
 11
30084.9980
 21
5973.79980
  0
LINE
  8
1
 10
30084.9980
 20
250.000000
 11
24094.9980
 21
5973.79980
  0
TEXT
  8
3
 7
SIMPLEX
 10
25256.3828
 20
1439.59363
 40
230.846420
  1
CB-1
 50
  43.698
  0
TEXT
  8
3
 7
SIMPLEX
 10
28331.1230
 20
2005.75598
 40
230.846420
  1
CB-1
 50
 -43.698
  0
LINE
  8
1
 10
24094.9980
 20
6126.20020
 11
30084.9980
 21
8059.79736
  0
LINE
  8
1
 10
30084.9980
 20
6126.20020
 11
24094.9980
 21
8059.79736
  0
TEXT
  8
3
 7
SIMPLEX
 10
25146.3848
 20
6526.23535
 40
230.846420
  1
CB-2
 50
  17.890
  0
TEXT
  8
3
 7
SIMPLEX
 10
28176.8457
 20
6802.80469
 40
230.846420
  1
CB-2
 50
 -17.890
999
END:     AREA=Cables
999
START:   AREA=Girts
  0
LINE
  8
1
 10
0.00000000
 20
2524.59692
 11
6624.99951
 21
2524.59692
  0
TEXT
  8
3
 7
SIMPLEX
 10
2588.28198
 20
2582.30835
 40
230.846420
  1
 G-22
 50
   0.000
  0
LINE
  8
1
 10
0.00000000
 20
4024.59668
 11
6624.99951
 21
4024.59668
  0
TEXT
  8
3
 7
SIMPLEX
 10
2588.28198
 20
4082.30859
 40
230.846420
  1
 G-22
 50
   0.000
  0
LINE
  8
1
 10
0.00000000
 20
5524.59668
 11
6624.99951
 21
5524.59668
  0
TEXT
  8
3
 7
SIMPLEX
 10
2588.28198
 20
5582.30859
 40
230.846420
  1
 G-22
 50
   0.000
  0
LINE
  8
1
 10
0.00000000
 20
7024.59766
 11
6624.99951
 21
7024.59766
  0
TEXT
  8
3
 7
SIMPLEX
 10
2588.28198
 20
7082.30957
 40
230.846420
  1
 G-22
 50
   0.000
  0
LINE
  8
1
 10
5875.00049
 20
2635.40332
 11
12625.0000
 21
2635.40332
  0
TEXT
  8
3
 7
SIMPLEX
 10
8713.28223
 20
2693.11499
 40
230.846420
  1
 G-20
 50
   0.000
  0
LINE
  8
1
 10
5875.00049
 20
4135.40332
 11
12625.0000
 21
4135.40332
  0
TEXT
  8
3
 7
SIMPLEX
 10
8713.28223
 20
4193.11475
 40
230.846420
  1
 G-20
 50
   0.000
  0
LINE
  8
1
 10
5875.00049
 20
5635.40332
 11
12625.0000
 21
5635.40332
  0
TEXT
  8
3
 7
SIMPLEX
 10
9213.28125
 20
5693.11475
 40
230.846420
  1
 G-20
 50
   0.000
  0
LINE
  8
1
 10
5875.00049
 20
7135.40332
 11
12625.0000
 21
7135.40332
  0
TEXT
  8
3
 7
SIMPLEX
 10
8713.28223
 20
7193.11572
 40
230.846420
  1
 G-20
 50
   0.000
  0
LINE
  8
1
 10
11874.9990
 20
2524.59692
 11
18324.9980
 21
2524.59692
  0
TEXT
  8
3
 7
SIMPLEX
 10
14603.6797
 20
2582.30835
 40
230.846420
  1
 G-19
 50
   0.000
  0
LINE
  8
1
 10
11874.9990
 20
4024.59668
 11
18324.9980
 21
4024.59668
  0
TEXT
  8
3
 7
SIMPLEX
 10
14603.6797
 20
4082.30859
 40
230.846420
  1
 G-19
 50
   0.000
  0
LINE
  8
1
 10
11874.9990
 20
5524.59668
 11
18324.9980
 21
5524.59668
  0
TEXT
  8
3
 7
SIMPLEX
 10
14603.6797
 20
5582.30859
 40
230.846420
  1
 G-19
 50
   0.000
  0
LINE
  8
1
 10
11874.9990
 20
7024.59766
 11
18324.9980
 21
7024.59766
  0
TEXT
  8
3
 7
SIMPLEX
 10
14603.6797
 20
7082.30957
 40
230.846420
  1
 G-19
 50
   0.000
  0
LINE
  8
1
 10
17574.9980
 20
2635.40332
 11
24470.0000
 21
2635.40332
  0
TEXT
  8
3
 7
SIMPLEX
 10
20526.1797
 20
2693.11499
 40
230.846420
  1
 G-18
 50
   0.000
  0
LINE
  8
1
 10
17574.9980
 20
4135.40332
 11
24470.0000
 21
4135.40332
  0
TEXT
  8
3
 7
SIMPLEX
 10
20526.1797
 20
4193.11475
 40
230.846420
  1
 G-18
 50
   0.000
  0
LINE
  8
1
 10
17574.9980
 20
5635.40332
 11
24470.0000
 21
5635.40332
  0
TEXT
  8
3
 7
SIMPLEX
 10
20526.1797
 20
5693.11475
 40
230.846420
  1
 G-18
 50
   0.000
  0
LINE
  8
1
 10
17574.9980
 20
7135.40332
 11
24470.0000
 21
7135.40332
  0
TEXT
  8
3
 7
SIMPLEX
 10
20526.1797
 20
7193.11572
 40
230.846420
  1
 G-18
 50
   0.000
  0
LINE
  8
1
 10
23719.9980
 20
2524.59692
 11
30459.9961
 21
2524.59692
  0
TEXT
  8
3
 7
SIMPLEX
 10
26593.6777
 20
2582.30835
 40
230.846420
  1
 G-17
 50
   0.000
  0
LINE
  8
1
 10
23719.9980
 20
4024.59668
 11
30459.9961
 21
4024.59668
  0
TEXT
  8
3
 7
SIMPLEX
 10
26593.6777
 20
4082.30859
 40
230.846420
  1
 G-17
 50
   0.000
  0
LINE
  8
1
 10
23719.9980
 20
5524.59668
 11
30459.9961
 21
5524.59668
  0
TEXT
  8
3
 7
SIMPLEX
 10
27092.8457
 20
5582.30859
 40
230.846420
  1
 G-17
 50
   0.000
  0
LINE
  8
1
 10
23719.9980
 20
7024.59766
 11
30459.9961
 21
7024.59766
  0
TEXT
  8
3
 7
SIMPLEX
 10
26593.6777
 20
7082.30957
 40
230.846420
  1
 G-17
 50
   0.000
  0
LINE
  8
1
 10
29709.9961
 20
2635.40332
 11
36284.9961
 21
2635.40332
  0
TEXT
  8
3
 7
SIMPLEX
 10
32648.2793
 20
2693.11499
 40
230.846420
  1
 G-23
 50
   0.000
  0
LINE
  8
1
 10
29709.9961
 20
4135.40332
 11
36284.9961
 21
4135.40332
  0
TEXT
  8
3
 7
SIMPLEX
 10
32648.2793
 20
4193.11475
 40
230.846420
  1
 G-23
 50
   0.000
  0
LINE
  8
1
 10
29709.9961
 20
5635.40332
 11
36284.9961
 21
5635.40332
  0
TEXT
  8
3
 7
SIMPLEX
 10
32648.2793
 20
5693.11475
 40
230.846420
  1
 G-23
 50
   0.000
  0
LINE
  8
1
 10
29709.9961
 20
7135.40332
 11
36284.9961
 21
7135.40332
  0
TEXT
  8
3
 7
SIMPLEX
 10
32648.2793
 20
7193.11572
 40
230.846420
  1
 G-23
 50
   0.000
999
END:     AREA=Girts
999
START:   AREA=Lap Girts
999
END:     AREA=Lap Girts
999
START:   AREA=Column Flange Brace
999
END:     AREA=Column Flange Brace
999
START:   AREA=Wall Struts
  0
LINE
  8
1
 10
6194.59668
 20
6305.40283
 11
12305.4023
 21
6305.40283
  0
TEXT
  8
3
 7
SIMPLEX
 10
8251.58887
 20
6363.11475
 40
230.846420
  1
 G-25(Strut)
 50
   0.000
  0
LINE
  8
1
 10
7067.56885
 20
6305.40283
 11
7067.56885
 21
5635.40332
  0
LINE
  8
1
 10
7940.54102
 20
6305.40283
 11
7940.54102
 21
5635.40332
  0
LINE
  8
1
 10
8813.51270
 20
6305.40283
 11
8813.51270
 21
5635.40332
  0
LINE
  8
1
 10
9686.48535
 20
6305.40283
 11
9686.48535
 21
5635.40332
  0
LINE
  8
1
 10
10559.4580
 20
6305.40283
 11
10559.4580
 21
5635.40332
  0
LINE
  8
1
 10
11432.4297
 20
6305.40283
 11
11432.4297
 21
5635.40332
  0
LINE
  8
1
 10
24039.5957
 20
6194.59668
 11
30140.4023
 21
6194.59668
  0
TEXT
  8
3
 7
SIMPLEX
 10
26091.5859
 20
6252.30762
 40
230.846420
  1
 G-24(Strut)
 50
   0.000
  0
LINE
  8
1
 10
24911.1387
 20
6194.59668
 11
24911.1387
 21
5524.59668
  0
LINE
  8
1
 10
25782.6836
 20
6194.59668
 11
25782.6836
 21
5524.59668
  0
LINE
  8
1
 10
26654.2266
 20
6194.59668
 11
26654.2266
 21
5524.59668
  0
LINE
  8
1
 10
27525.7734
 20
6194.59668
 11
27525.7734
 21
5524.59668
  0
LINE
  8
1
 10
28397.3145
 20
6194.59668
 11
28397.3145
 21
5524.59668
  0
LINE
  8
1
 10
29268.8574
 20
6194.59668
 11
29268.8574
 21
5524.59668
  0
LINE
  8
1
 10
550.806274
 20
5496.79980
 11
6139.19336
 21
5496.79980
  0
TEXT
  8
3
 7
SIMPLEX
 10
3241.11914
 20
5554.51221
 40
230.846420
  1
EB-2
 50
   0.000
999
END:     AREA=Wall Struts
999
START:   AREA=Accessories
999
END:     AREA=Accessories
999
START:   AREA=Cranes
999
END:     AREA=Cranes
999
START:   AREA=JBlocks
  0
TEXT
  8
3
 7
SIMPLEX
 10
8305.40332
 20
6385.40332
 40
230.846420
  1
JB-3
 50
   0.000
  0
LINE
  8
1
 10
8250.00098
 20
5690.80664
 11
8250.00098
 21
7080.00049
  0
TEXT
  8
3
 7
SIMPLEX
 10
8305.40332
 20
7805.40234
 40
230.846420
  1
JB-6
 50
   0.000
  0
LINE
  8
1
 10
8250.00098
 20
7190.80664
 11
8250.00098
 21
8420.00000
  0
TEXT
  8
3
 7
SIMPLEX
 10
10305.4014
 20
3385.40332
 40
230.846420
  1
JB-3
 50
   0.000
  0
LINE
  8
1
 10
10249.9990
 20
2690.80640
 11
10249.9990
 21
4080.00024
  0
TEXT
  8
3
 7
SIMPLEX
 10
10305.4014
 20
4943.11475
 40
230.846420
  1
JB-3
 50
   0.000
  0
LINE
  8
1
 10
10249.9990
 20
4190.80664
 11
10249.9990
 21
5580.00000
  0
LINE
  8
1
 10
10249.9990
 20
5690.80664
 11
10249.9990
 21
7080.00049
  0
LINE
  8
1
 10
10249.9990
 20
7190.80664
 11
10249.9990
 21
8420.00000
  0
LINE
  8
1
 10
14150.0020
 20
2580.00000
 11
14150.0020
 21
3969.19360
  0
LINE
  8
1
 10
14150.0020
 20
4080.00024
 11
14150.0020
 21
5469.19336
  0
LINE
  8
1
 10
14150.0020
 20
5580.00000
 11
14150.0020
 21
6969.19482
  0
LINE
  8
1
 10
14150.0020
 20
7080.00049
 11
14150.0020
 21
8309.19434
  0
LINE
  8
1
 10
16050.0000
 20
2580.00000
 11
16050.0000
 21
3969.19360
  0
LINE
  8
1
 10
16050.0000
 20
4080.00024
 11
16050.0000
 21
5469.19336
  0
LINE
  8
1
 10
16050.0000
 20
5580.00000
 11
16050.0000
 21
6969.19482
  0
LINE
  8
1
 10
16050.0000
 20
7080.00049
 11
16050.0000
 21
8309.19434
  0
LINE
  8
1
 10
19998.3320
 20
2690.80640
 11
19998.3320
 21
4080.00024
  0
LINE
  8
1
 10
19998.3320
 20
4190.80664
 11
19998.3320
 21
5580.00000
  0
LINE
  8
1
 10
19998.3320
 20
5690.80664
 11
19998.3320
 21
7080.00049
  0
LINE
  8
1
 10
19998.3320
 20
7190.80664
 11
19998.3320
 21
8420.00000
  0
LINE
  8
1
 10
22046.6660
 20
2690.80640
 11
22046.6660
 21
4080.00024
  0
LINE
  8
1
 10
22046.6660
 20
4190.80664
 11
22046.6660
 21
5580.00000
  0
LINE
  8
1
 10
22046.6660
 20
5690.80664
 11
22046.6660
 21
7080.00049
  0
LINE
  8
1
 10
22046.6660
 20
7190.80664
 11
22046.6660
 21
8420.00000
  0
LINE
  8
1
 10
26091.6660
 20
2580.00000
 11
26091.6660
 21
3969.19360
  0
LINE
  8
1
 10
26091.6660
 20
4080.00024
 11
26091.6660
 21
5469.19336
  0
LINE
  8
1
 10
26091.6660
 20
5580.00000
 11
26091.6660
 21
6969.19482
  0
LINE
  8
1
 10
26091.6660
 20
7080.00049
 11
26091.6660
 21
8309.19434
  0
LINE
  8
1
 10
28088.3320
 20
2580.00000
 11
28088.3320
 21
3969.19360
  0
LINE
  8
1
 10
28088.3320
 20
4080.00024
 11
28088.3320
 21
5469.19336
  0
LINE
  8
1
 10
28088.3320
 20
5580.00000
 11
28088.3320
 21
6969.19482
  0
LINE
  8
1
 10
28088.3320
 20
7080.00049
 11
28088.3320
 21
8309.19434
  0
LINE
  8
1
 10
32151.6602
 20
2690.80640
 11
32151.6602
 21
4080.00024
  0
LINE
  8
1
 10
32151.6602
 20
4190.80664
 11
32151.6602
 21
5580.00000
  0
LINE
  8
1
 10
32151.6602
 20
5690.80664
 11
32151.6602
 21
7080.00049
  0
LINE
  8
1
 10
32151.6602
 20
7190.80664
 11
32151.6602
 21
8420.00000
  0
LINE
  8
1
 10
34218.3320
 20
2690.80640
 11
34218.3320
 21
4080.00024
  0
LINE
  8
1
 10
34218.3320
 20
4190.80664
 11
34218.3320
 21
5580.00000
  0
LINE
  8
1
 10
34218.3320
 20
5690.80664
 11
34218.3320
 21
7080.00049
  0
LINE
  8
1
 10
34218.3320
 20
7190.80664
 11
34218.3320
 21
8420.00000
  0
LINE
  8
1
 10
2083.33350
 20
2580.00000
 11
2083.33350
 21
3969.19360
  0
LINE
  8
1
 10
2083.33350
 20
4080.00024
 11
2083.33350
 21
5469.19336
  0
LINE
  8
1
 10
2083.33350
 20
5580.00000
 11
2083.33350
 21
6969.19482
  0
LINE
  8
1
 10
2083.33350
 20
7080.00049
 11
2083.33350
 21
8309.19434
  0
LINE
  8
1
 10
4166.66699
 20
2580.00000
 11
4166.66699
 21
3969.19360
  0
LINE
  8
1
 10
4166.66699
 20
4080.00024
 11
4166.66699
 21
5469.19336
  0
LINE
  8
1
 10
4166.66699
 20
5580.00000
 11
4166.66699
 21
6969.19482
  0
LINE
  8
1
 10
4166.66699
 20
7080.00049
 11
4166.66699
 21
8309.19434
  0
LINE
  8
1
 10
8250.00098
 20
2690.80640
 11
8250.00098
 21
4080.00024
  0
LINE
  8
1
 10
8250.00098
 20
4190.80664
 11
8250.00098
 21
5580.00000
  0
TEXT
  8
3
 7
SIMPLEX
 10
7305.40283
 20
5970.40234
 40
230.846420
  1
WA
 50
   0.000
  0
LINE
  8
1
 10
7250.00000
 20
5690.80664
 11
7250.00000
 21
6250.00000
  0
LINE
  8
1
 10
8250.00098
 20
5690.80664
 11
8250.00098
 21
6250.00000
  0
LINE
  8
1
 10
9249.99902
 20
5690.80664
 11
9249.99902
 21
6250.00000
  0
LINE
  8
1
 10
10249.9990
 20
5690.80664
 11
10249.9990
 21
6250.00000
  0
LINE
  8
1
 10
11250.0000
 20
5690.80664
 11
11250.0000
 21
6250.00000
  0
TEXT
  8
3
 7
SIMPLEX
 10
25148.7363
 20
5859.59668
 40
230.846420
  1
WA
 50
   0.000
  0
LINE
  8
1
 10
25093.3340
 20
5580.00000
 11
25093.3340
 21
6139.19336
  0
LINE
  8
1
 10
26091.6660
 20
5580.00000
 11
26091.6660
 21
6139.19336
  0
LINE
  8
1
 10
27089.9961
 20
5580.00000
 11
27089.9961
 21
6139.19336
  0
LINE
  8
1
 10
28088.3320
 20
5580.00000
 11
28088.3320
 21
6139.19336
  0
LINE
  8
1
 10
29086.6660
 20
5580.00000
 11
29086.6660
 21
6139.19336
999
END:     AREA=JBlocks
999
START:   AREA=Clips
999
END:     AREA=Clips
999
START:   AREA=Strut Bolts
999
START:   AREA=Strut Bolts
999
START:   AREA=JackBeams
999
END:     AREA=JackBeams
999
START:   AREA=Draw Adjacent Surfaces
999
END:     AREA=Draw Adjacent Surfaces
999
START:   AREA=Dimensions
  0
TEXT
  8
11
 7
SIMPLEX
 10
6336.56787
 20
-1659.7856
 40
173.134811
  1
375
 50
   0.000
  0
LINE
  8
2
 10
6250.00000
 20
-1457.7950
 11
6250.00000
 21
-1284.6603
  0
LINE
  8
2
 10
6250.00000
 20
-1371.2277
 11
6624.99951
 21
-1371.2277
  0
TEXT
  8
11
 7
SIMPLEX
 10
5644.02734
 20
-1313.5161
 40
173.134811
  1
375
 50
   0.000
  0
LINE
  8
2
 10
6250.00000
 20
-1457.7950
 11
6250.00000
 21
-1284.6603
  0
LINE
  8
2
 10
6250.00000
 20
-1371.2277
 11
5875.00049
 21
-1371.2277
  0
TEXT
  8
11
 7
SIMPLEX
 10
12336.5674
 20
-1659.7856
 40
173.134811
  1
375
 50
   0.000
  0
LINE
  8
2
 10
12249.9990
 20
-1457.7950
 11
12249.9990
 21
-1284.6603
  0
LINE
  8
2
 10
12249.9990
 20
-1371.2277
 11
12625.0000
 21
-1371.2277
  0
TEXT
  8
11
 7
SIMPLEX
 10
11644.0283
 20
-1313.5161
 40
173.134811
  1
375
 50
   0.000
  0
LINE
  8
2
 10
12249.9990
 20
-1457.7950
 11
12249.9990
 21
-1284.6603
  0
LINE
  8
2
 10
12249.9990
 20
-1371.2277
 11
11874.9990
 21
-1371.2277
  0
TEXT
  8
11
 7
SIMPLEX
 10
18036.5664
 20
-1659.7856
 40
173.134811
  1
375
 50
   0.000
  0
LINE
  8
2
 10
17949.9980
 20
-1457.7950
 11
17949.9980
 21
-1284.6603
  0
LINE
  8
2
 10
17949.9980
 20
-1371.2277
 11
18324.9980
 21
-1371.2277
  0
TEXT
  8
11
 7
SIMPLEX
 10
17344.0254
 20
-1313.5161
 40
173.134811
  1
375
 50
   0.000
  0
LINE
  8
2
 10
17949.9980
 20
-1457.7950
 11
17949.9980
 21
-1284.6603
  0
LINE
  8
2
 10
17949.9980
 20
-1371.2277
 11
17574.9980
 21
-1371.2277
  0
TEXT
  8
11
 7
SIMPLEX
 10
24181.5664
 20
-1659.7856
 40
173.134811
  1
375
 50
   0.000
  0
LINE
  8
2
 10
24094.9980
 20
-1457.7950
 11
24094.9980
 21
-1284.6603
  0
LINE
  8
2
 10
24094.9980
 20
-1371.2277
 11
24470.0000
 21
-1371.2277
  0
TEXT
  8
11
 7
SIMPLEX
 10
23489.0273
 20
-1313.5161
 40
173.134811
  1
375
 50
   0.000
  0
LINE
  8
2
 10
24094.9980
 20
-1457.7950
 11
24094.9980
 21
-1284.6603
  0
LINE
  8
2
 10
24094.9980
 20
-1371.2277
 11
23719.9980
 21
-1371.2277
  0
TEXT
  8
11
 7
SIMPLEX
 10
30171.5684
 20
-1659.7856
 40
173.134811
  1
375
 50
   0.000
  0
LINE
  8
2
 10
30084.9980
 20
-1457.7950
 11
30084.9980
 21
-1284.6603
  0
LINE
  8
2
 10
30084.9980
 20
-1371.2277
 11
30459.9961
 21
-1371.2277
  0
TEXT
  8
11
 7
SIMPLEX
 10
29479.0234
 20
-1313.5161
 40
173.134811
  1
375
 50
   0.000
  0
LINE
  8
2
 10
30084.9980
 20
-1457.7950
 11
30084.9980
 21
-1284.6603
  0
LINE
  8
2
 10
30084.9980
 20
-1371.2277
 11
29709.9961
 21
-1371.2277
  0
TEXT
  8
2
 7
SIMPLEX
 10
-923.38568
 20
-1313.5161
 40
230.846420
  1
GIRT
 50
   0.000
  0
TEXT
  8
2
 7
SIMPLEX
 10
-923.38568
 20
-1659.7856
 40
230.846420
  1
LAPS
 50
   0.000
999
START:   AREA=Match Line
  0
LINE
  8
12
 10
0.00000000
 20
8530.80664
 11
0.00000000
 21
11993.5029
  0
LINE
  8
12
 10
36284.9961
 20
8530.80664
 11
36284.9961
 21
11993.5029
  0
LINE
  8
2
 10
0.00000000
 20
11762.6563
 11
36284.9961
 21
11762.6563
  0
LINE
  8
2
 10
0.00000000
 20
10377.5771
 11
36284.9961
 21
10377.5771
  0
LINE
  8
12
 10
6250.00000
 20
8530.80664
 11
6250.00000
 21
10839.2695
  0
LINE
  8
12
 10
12249.9990
 20
8530.80664
 11
12249.9990
 21
10839.2695
  0
LINE
  8
12
 10
17949.9980
 20
8530.80664
 11
17949.9980
 21
10839.2695
  0
LINE
  8
12
 10
24094.9980
 20
8530.80664
 11
24094.9980
 21
10839.2695
  0
LINE
  8
12
 10
36284.9961
 20
8530.80664
 11
36284.9961
 21
10839.2695
  0
LINE
  8
12
 10
30084.9980
 20
8530.80664
 11
30084.9980
 21
10839.2695
  0
INSERT
  8
2
  2
ARROW
 10
0.00000000
 20
10377.5771
 41
1.00000000
 42
1.00000000
 43
1.00000000
 50
 180.000
  0
INSERT
  8
2
  2
ARROW
 10
6250.00000
 20
10377.5771
 41
1.00000000
 42
1.00000000
 43
1.00000000
 50
   0.000
  0
INSERT
  8
2
  2
ARROW
 10
6250.00000
 20
10377.5771
 41
1.00000000
 42
1.00000000
 43
1.00000000
 50
 180.000
  0
INSERT
  8
2
  2
ARROW
 10
12249.9990
 20
10377.5771
 41
1.00000000
 42
1.00000000
 43
1.00000000
 50
   0.000
  0
INSERT
  8
2
  2
ARROW
 10
12249.9990
 20
10377.5771
 41
1.00000000
 42
1.00000000
 43
1.00000000
 50
 180.000
  0
INSERT
  8
2
  2
ARROW
 10
17949.9980
 20
10377.5771
 41
1.00000000
 42
1.00000000
 43
1.00000000
 50
   0.000
  0
INSERT
  8
2
  2
ARROW
 10
17949.9980
 20
10377.5771
 41
1.00000000
 42
1.00000000
 43
1.00000000
 50
 180.000
  0
INSERT
  8
2
  2
ARROW
 10
24094.9980
 20
10377.5771
 41
1.00000000
 42
1.00000000
 43
1.00000000
 50
   0.000
  0
INSERT
  8
2
  2
ARROW
 10
24094.9980
 20
10377.5771
 41
1.00000000
 42
1.00000000
 43
1.00000000
 50
 180.000
  0
INSERT
  8
2
  2
ARROW
 10
30084.9980
 20
10377.5771
 41
1.00000000
 42
1.00000000
 43
1.00000000
 50
   0.000
  0
INSERT
  8
2
  2
ARROW
 10
30084.9980
 20
10377.5771
 41
1.00000000
 42
1.00000000
 43
1.00000000
 50
 180.000
  0
INSERT
  8
2
  2
ARROW
 10
36284.9961
 20
10377.5771
 41
1.00000000
 42
1.00000000
 43
1.00000000
 50
   0.000
  0
INSERT
  8
2
  2
ARROW
 10
0.00000000
 20
11762.6563
 41
1.00000000
 42
1.00000000
 43
1.00000000
 50
 180.000
  0
INSERT
  8
2
  2
ARROW
 10
36284.9961
 20
11762.6563
 41
1.00000000
 42
1.00000000
 43
1.00000000
 50
   0.000
  0
CIRCLE
  8
13
 10
0.00000000
 20
12270.5186
 40
277.015686
  0
TEXT
  8
13
 7
SIMPLEX
 10
-124.65706
 20
12145.8613
 40
249.314117
  1
7
 72
           1
 11
0.00000000
 21
12145.8613
 50
   0.000
  0
CIRCLE
  8
13
 10
36284.9961
 20
12270.5186
 40
277.015686
  0
TEXT
  8
13
 7
SIMPLEX
 10
36203.9688
 20
12145.8613
 40
249.314117
  1
1
 72
           1
 11
36284.9961
 21
12145.8613
 50
   0.000
  0
CIRCLE
  8
13
 10
6250.00000
 20
11116.2861
 40
277.015686
  0
TEXT
  8
13
 7
SIMPLEX
 10
6125.34277
 20
10991.6289
 40
249.314117
  1
6
 72
           1
 11
6250.00000
 21
10991.6289
 50
   0.000
  0
CIRCLE
  8
13
 10
12249.9990
 20
11116.2861
 40
277.015686
  0
TEXT
  8
13
 7
SIMPLEX
 10
12125.3428
 20
10991.6289
 40
249.314117
  1
5
 72
           1
 11
12249.9990
 21
10991.6289
 50
   0.000
  0
CIRCLE
  8
13
 10
17949.9980
 20
11116.2861
 40
277.015686
  0
TEXT
  8
13
 7
SIMPLEX
 10
17825.3418
 20
10991.6289
 40
249.314117
  1
4
 72
           1
 11
17949.9980
 21
10991.6289
 50
   0.000
  0
CIRCLE
  8
13
 10
24094.9980
 20
11116.2861
 40
277.015686
  0
TEXT
  8
13
 7
SIMPLEX
 10
23970.3418
 20
10991.6289
 40
249.314117
  1
3
 72
           1
 11
24094.9980
 21
10991.6289
 50
   0.000
  0
CIRCLE
  8
13
 10
30084.9980
 20
11116.2861
 40
277.015686
  0
TEXT
  8
13
 7
SIMPLEX
 10
29960.3418
 20
10991.6289
 40
249.314117
  1
2
 72
           1
 11
30084.9980
 21
10991.6289
 50
   0.000
  0
TEXT
  8
11
 7
SIMPLEX
 10
2663.30713
 20
10454.5264
 40
230.846420
  1
6250
 50
   0.000
  0
TEXT
  8
11
 7
SIMPLEX
 10
8788.30664
 20
10454.5264
 40
230.846420
  1
6000
 50
   0.000
  0
TEXT
  8
11
 7
SIMPLEX
 10
14638.3076
 20
10454.5264
 40
230.846420
  1
5700
 50
   0.000
  0
TEXT
  8
11
 7
SIMPLEX
 10
20601.2051
 20
10454.5264
 40
230.846420
  1
6145
 50
   0.000
  0
TEXT
  8
11
 7
SIMPLEX
 10
26628.3066
 20
10454.5264
 40
230.846420
  1
5990
 50
   0.000
  0
TEXT
  8
11
 7
SIMPLEX
 10
32723.3047
 20
10454.5264
 40
230.846420
  1
6200
 50
   0.000
  0
LINE
  8
12
 10
439.999970
 20
8530.80664
 11
439.999970
 21
10026.6914
  0
LINE
  8
2
 10
0.00000000
 20
9915.88477
 11
-461.69284
 21
9915.88477
  0
LINE
  8
2
 10
439.999970
 20
9915.88477
 11
901.692810
 21
9915.88477
  0
INSERT
  8
2
  2
ARROW
 10
0.00000000
 20
9915.88477
 41
1.00000000
 42
1.00000000
 43
1.00000000
 50
   0.000
  0
INSERT
  8
2
  2
ARROW
 10
439.999970
 20
9915.88477
 41
1.00000000
 42
1.00000000
 43
1.00000000
 50
 180.000
  0
TEXT
  8
11
 7
SIMPLEX
 10
555.423157
 20
9992.83301
 40
230.846420
  1
440
 50
   0.000
  0
LINE
  8
12
 10
35844.9961
 20
8530.80664
 11
35844.9961
 21
10026.6914
  0
LINE
  8
2
 10
35844.9961
 20
9915.88477
 11
35383.3047
 21
9915.88477
  0
LINE
  8
2
 10
36284.9961
 20
9915.88477
 11
36746.6914
 21
9915.88477
  0
INSERT
  8
2
  2
ARROW
 10
35844.9961
 20
9915.88477
 41
1.00000000
 42
1.00000000
 43
1.00000000
 50
   0.000
  0
INSERT
  8
2
  2
ARROW
 10
36284.9961
 20
9915.88477
 41
1.00000000
 42
1.00000000
 43
1.00000000
 50
 180.000
  0
TEXT
  8
11
 7
SIMPLEX
 10
35037.0313
 20
9992.83301
 40
230.846420
  1
440
 50
   0.000
  0
LINE
  8
12
 10
-1799.9998
 20
8530.80664
 11
-1799.9998
 21
11993.5029
  0
LINE
  8
12
 10
0.00014127
 20
8530.80664
 11
0.00014127
 21
11993.5029
  0
LINE
  8
2
 10
-1800.0000
 20
11762.6563
 11
0.00000000
 21
11762.6563
  0
INSERT
  8
2
  2
ARROW
 10
-1800.0000
 20
11762.6563
 41
1.00000000
 42
1.00000000
 43
1.00000000
 50
 180.000
  0
INSERT
  8
2
  2
ARROW
 10
0.00000000
 20
11762.6563
 41
1.00000000
 42
1.00000000
 43
1.00000000
 50
   0.000
  0
TEXT
  8
11
 7
SIMPLEX
 10
-1321.2947
 20
11839.6055
 40
230.846420
  1
1800
 50
   0.000
  0
TEXT
  8
11
 7
SIMPLEX
 10
15366.5693
 20
11873.4629
 40
230.846420
  1
36285
 50
   0.000
  0
TEXT
  8
15
 7
SIMPLEX
 10
16520.8027
 20
11873.4629
 40
230.846420
  1
 OUT-TO-OUT OF STEEL
 50
   0.000
  0
TEXT
  8
15
 7
SIMPLEX
 10
13063.8770
 20
-2490.8328
 40
369.354279
  1
SIDEWALL FRAMING: FRAME LINE C
 72
           1
 11
18142.4980
 21
-2490.8328
 50
   0.000
  0
LINE
  8
12
 10
-2649.5149
 20
0.00000000
 11
-4330.0767
 21
0.00000000
  0
LINE
  8
12
 10
-2649.5149
 20
2580.00000
 11
-4330.0767
 21
2580.00000
  0
LINE
  8
12
 10
-2649.5149
 20
4080.00024
 11
-4330.0767
 21
4080.00024
  0
LINE
  8
12
 10
-2649.5149
 20
5580.00000
 11
-4330.0767
 21
5580.00000
  0
LINE
  8
12
 10
-2649.5149
 20
7080.00049
 11
-4330.0767
 21
7080.00049
  0
LINE
  8
12
 10
-2649.5149
 20
8420.00000
 11
-4330.0767
 21
8420.00000
  0
LINE
  8
12
 10
-4219.2705
 20
0.00000000
 11
-4219.2705
 21
0.00000000
  0
LINE
  8
12
 10
-4219.2705
 20
2580.00000
 11
-4219.2705
 21
2580.00000
  0
LINE
  8
2
 10
-4219.2705
 20
0.00000000
 11
-4219.2705
 21
2580.00000
  0
INSERT
  8
2
  2
ARROW
 10
-4219.2705
 20
0.00000000
 41
1.00000000
 42
1.00000000
 43
1.00000000
 50
 270.000
  0
INSERT
  8
2
  2
ARROW
 10
-4219.2705
 20
2580.00000
 41
1.00000000
 42
1.00000000
 43
1.00000000
 50
  90.000
  0
TEXT
  8
11
 7
SIMPLEX
 10
-4296.2192
 20
828.307190
 40
230.846420
  1
2580
 50
  90.000
  0
LINE
  8
12
 10
-4219.2705
 20
2580.00000
 11
-4219.2705
 21
2580.00000
  0
LINE
  8
12
 10
-4219.2705
 20
4080.00024
 11
-4219.2705
 21
4080.00024
  0
LINE
  8
2
 10
-4219.2705
 20
2580.00000
 11
-4219.2705
 21
4080.00024
  0
INSERT
  8
2
  2
ARROW
 10
-4219.2705
 20
2580.00000
 41
1.00000000
 42
1.00000000
 43
1.00000000
 50
 270.000
  0
INSERT
  8
2
  2
ARROW
 10
-4219.2705
 20
4080.00024
 41
1.00000000
 42
1.00000000
 43
1.00000000
 50
  90.000
  0
TEXT
  8
11
 7
SIMPLEX
 10
-4296.2192
 20
2908.70532
 40
230.846420
  1
1500
 50
  90.000
  0
LINE
  8
12
 10
-4219.2705
 20
4080.00024
 11
-4219.2705
 21
4080.00024
  0
LINE
  8
12
 10
-4219.2705
 20
5580.00000
 11
-4219.2705
 21
5580.00000
  0
LINE
  8
2
 10
-4219.2705
 20
4080.00024
 11
-4219.2705
 21
5580.00000
  0
INSERT
  8
2
  2
ARROW
 10
-4219.2705
 20
4080.00024
 41
1.00000000
 42
1.00000000
 43
1.00000000
 50
 270.000
  0
INSERT
  8
2
  2
ARROW
 10
-4219.2705
 20
5580.00000
 41
1.00000000
 42
1.00000000
 43
1.00000000
 50
  90.000
  0
TEXT
  8
11
 7
SIMPLEX
 10
-4296.2192
 20
4408.70508
 40
230.846420
  1
1500
 50
  90.000
  0
LINE
  8
12
 10
-4219.2705
 20
5580.00000
 11
-4219.2705
 21
5580.00000
  0
LINE
  8
12
 10
-4219.2705
 20
7080.00049
 11
-4219.2705
 21
7080.00049
  0
LINE
  8
2
 10
-4219.2705
 20
5580.00000
 11
-4219.2705
 21
7080.00049
  0
INSERT
  8
2
  2
ARROW
 10
-4219.2705
 20
5580.00000
 41
1.00000000
 42
1.00000000
 43
1.00000000
 50
 270.000
  0
INSERT
  8
2
  2
ARROW
 10
-4219.2705
 20
7080.00049
 41
1.00000000
 42
1.00000000
 43
1.00000000
 50
  90.000
  0
TEXT
  8
11
 7
SIMPLEX
 10
-4296.2192
 20
5908.70508
 40
230.846420
  1
1500
 50
  90.000
  0
LINE
  8
12
 10
-4219.2705
 20
7080.00049
 11
-4219.2705
 21
7080.00049
  0
LINE
  8
12
 10
-4219.2705
 20
8420.00000
 11
-4219.2705
 21
8420.00000
  0
LINE
  8
2
 10
-4219.2705
 20
7080.00049
 11
-4219.2705
 21
8420.00000
  0
INSERT
  8
2
  2
ARROW
 10
-4219.2705
 20
7080.00049
 41
1.00000000
 42
1.00000000
 43
1.00000000
 50
 270.000
  0
INSERT
  8
2
  2
ARROW
 10
-4219.2705
 20
8420.00000
 41
1.00000000
 42
1.00000000
 43
1.00000000
 50
  90.000
  0
TEXT
  8
11
 7
SIMPLEX
 10
-4296.2192
 20
7328.70508
 40
230.846420
  1
1340
 50
  90.000
999
START:   AREA=Eave Dimension
  0
LINE
  8
12
 10
-4330.0767
 20
0.00000000
 11
-5253.4624
 21
0.00000000
  0
LINE
  8
12
 10
-4330.0767
 20
8420.00000
 11
-5253.4624
 21
8420.00000
  0
LINE
  8
2
 10
-5142.6567
 20
0.00000000
 11
-5142.6567
 21
8420.00000
  0
INSERT
  8
2
  2
ARROW
 10
-5142.6567
 20
0.00000000
 41
1.00000000
 42
1.00000000
 43
1.00000000
 50
 270.000
  0
INSERT
  8
2
  2
ARROW
 10
-5142.6567
 20
8420.00000
 41
1.00000000
 42
1.00000000
 43
1.00000000
 50
  90.000
  0
TEXT
  8
11
 7
SIMPLEX
 10
-5219.6050
 20
3748.30713
 40
230.846420
  1
8420
 50
  90.000
999
END:     AREA=Eave Dimension
999
START:   AREA=Draw Canopy Dimension
999
END:     AREA=Draw Canopy Dimension
999
START:   AREA=Draw Floor and Extension Strut Dimensions
  0
LINE
  8
12
 10
-2380.1943
 20
5496.79980
 11
-2149.3479
 21
5496.79980
  0
LINE
  8
12
 10
-2380.1943
 20
0.00000000
 11
-2149.3479
 21
0.00000000
  0
LINE
  8
2
 10
-2264.7710
 20
0.00000000
 11
-2264.7710
 21
5496.79980
  0
INSERT
  8
2
  2
ARROW
 10
-2264.7710
 20
0.00000000
 41
1.00000000
 42
1.00000000
 43
1.00000000
 50
 270.000
  0
INSERT
  8
2
  2
ARROW
 10
-2264.7710
 20
5496.79980
 41
1.00000000
 42
1.00000000
 43
1.00000000
 50
  90.000
  0
TEXT
  8
11
 7
SIMPLEX
 10
-2341.7197
 20
2286.70728
 40
230.846420
  1
5497
 50
  90.000
999
END:     AREA=Draw Floor and Extension Strut Dimensions
  0
LINE
  8
2
 10
2083.33325
 20
0.00000000
 11
2083.33325
 21
2500.00000
  0
INSERT
  8
2
  2
ARROW
 10
2083.33325
 20
0.00000000
 41
1.00000000
 42
1.00000000
 43
1.00000000
 50
 270.000
  0
INSERT
  8
2
  2
ARROW
 10
2083.33325
 20
2500.00000
 41
1.00000000
 42
1.00000000
 43
1.00000000
 50
  90.000
  0
TEXT
  8
11
 7
SIMPLEX
 10
2006.38452
 20
788.307190
 40
230.846420
  1
2500
 50
  90.000
999
END:     AREA=Dimensions
999
START:   AREA=Details
  0
INSERT
  8
7
  2
CUTSEC
 10
6250.00000
 20
3041.69287
 41
1.00000000
 42
-1.0000000
 43
-1.0000000
 50
   0.000
  0
CIRCLE
  8
7
 10
5640.56494
 20
3041.69287
 40
221.612564
  0
TEXT
  8
7
 7
SIMPLEX
 10
5463.27539
 20
2953.04810
 40
177.290054
  1
H2
 72
           1
 11
5640.56494
 21
3041.69287
 73
           2
 50
   0.000
  0
CIRCLE
  8
7
 10
439.999970
 20
8420.00000
 40
92.3385697
  0
LINE
  8
7
 10
499.355072
 20
8490.73438
 11
701.162537
 21
8731.23242
  0
CIRCLE
  8
7
 10
843.614746
 20
8900.99512
 40
221.612564
  0
TEXT
  8
7
 7
SIMPLEX
 10
630.866699
 20
8830.07910
 40
141.832031
  1
J24
 72
           1
 11
843.614746
 21
8900.99512
 73
           2
 50
   0.000
  0
CIRCLE
  8
7
 10
6250.00000
 20
8420.00000
 40
92.3385697
  0
LINE
  8
7
 10
6309.35498
 20
8490.73438
 11
6511.16211
 21
8731.23242
  0
CIRCLE
  8
7
 10
6653.61475
 20
8900.99512
 40
221.612564
  0
TEXT
  8
7
 7
SIMPLEX
 10
6465.68750
 20
8830.07910
 40
141.832031
  1
J16
 72
           1
 11
6653.61475
 21
8900.99512
 73
           2
 50
   0.000
999
START:   AREA=Cables
999
END:     AREA=Cables
  0
CIRCLE
  8
7
 10
6250.00000
 20
152.399994
 40
92.3385697
  0
LINE
  8
7
 10
6281.58252
 20
239.169220
 11
6388.96680
 21
534.184509
  0
CIRCLE
  8
7
 10
6464.76758
 20
742.430664
 40
221.612564
  0
TEXT
  8
7
 7
SIMPLEX
 10
6287.47754
 20
653.785645
 40
177.290054
  1
Q3
 72
           1
 11
6464.76758
 21
742.430664
 73
           2
 50
   0.000
999
END:     AREA=Details
999
START:   AREA=Extensions
999
END:     AREA=Extensions
999
START:   AREA=Eave Extensions
999
END:     AREA=Eave Extensions
999
START:   AREA=Canopy Extensions around corner
999
START:   AREA=Eave/Extension Purlins
  0
INSERT
  8
10
  2
ZCOL
 10
-298.51117
 20
5651.67920
 41
8.75000000
 42
8.38836860
 43
8.38836860
 50
   5.711
  0
INSERT
  8
10
  2
ZCOL
 10
-1689.4266
 20
5512.58887
 41
-8.7500000
 42
8.38836860
 43
8.38836860
 50
   5.711
999
START:   AREA=Eave/Extension Purlins
  0
LINE
  8
1
 10
-1800.0092
 20
5269.99951
 11
0.00000000
 21
5450.00000
  0
LINE
  8
1
 10
-1800.0092
 20
5269.99951
 11
0.00000000
 21
5269.99951
  0
LINE
  8
1
 10
-1800.0092
 20
5269.99951
 11
-1800.0092
 21
5269.99951
  0
LINE
  8
1
 10
0.00000000
 20
5269.99951
 11
439.999970
 21
5269.99951
  0
LINE
  8
1
 10
0.00000000
 20
5450.00000
 11
439.999970
 21
5450.00000
  0
INSERT
  8
10
  2
WCOL
 10
-900.00458
 20
5723.60938
 41
9.08844185
 42
-9.0884419
 43
-9.0884419
 50
   5.711
  0
TEXT
  8
3
 7
SIMPLEX
 10
-1376.6337
 20
5965.94385
 40
230.846420
  1
EB-4
 50
   5.711
  0
LINE
  8
5
 10
0.00000000
 20
5700.00000
 11
-1800.0000
 21
5520.00000
  0
LINE
  8
5
 10
-1800.0000
 20
5520.00000
 11
-1800.0000
 21
5269.99951
999
END:     AREA=Canopy Extensions around corner
999
START:   AREA=Facia Extensions on wall
999
END:     AREA=Facia Extensions on Sidewall
999
START:   AREA=Draw Facia Detail
999
END:     AREA=Draw Facia Detail
  0
ENDBLK
  8
0
999
START:   AREA=Tables
  0
BLOCK
  8
1
  2
SW1TBL
 70
     0
 10
0.00000000
 20
0.00000000
  0
TEXT
  8
14
 7
SIMPLEX
 10
-6232.8535
 20
-288.55801
 40
230.846420
  1
MEMBER TABLE
 50
   0.000
  0
TEXT
  8
14
 7
SIMPLEX
 10
-6232.8535
 20
-634.82764
 40
230.846420
  1
FRAME LINE A & C
 50
   0.000
  0
TEXT
  8
14
 7
SIMPLEX
 10
-6232.8535
 20
-981.09729
 40
230.846420
  1
MARK
 50
   0.000
  0
TEXT
  8
14
 7
SIMPLEX
 10
-4616.9287
 20
-981.09729
 40
230.846420
  1
PART
 50
   0.000
  0
TEXT
  8
14
 7
SIMPLEX
 10
-2308.4646
 20
-981.09729
 40
230.846420
  1
LENGTH
 50
   0.000
  0
TEXT
  8
26
 7
SIMPLEX
 10
-6232.8535
 20
-1327.3669
 40
230.846420
  1
EB-1
 50
   0.000
  0
TEXT
  8
26
 7
SIMPLEX
 10
-4616.9287
 20
-1327.3669
 40
230.846420
  1
BEAM
 50
   0.000
  0
TEXT
  8
26
 7
SIMPLEX
 10
-2308.4646
 20
-1327.3669
 40
230.846420
  1
   2272
 50
   0.000
  0
TEXT
  8
26
 7
SIMPLEX
 10
-6232.8535
 20
-1673.6366
 40
230.846420
  1
EB-2
 50
   0.000
  0
TEXT
  8
26
 7
SIMPLEX
 10
-4616.9287
 20
-1673.6366
 40
230.846420
  1
W30a155
 50
   0.000
  0
TEXT
  8
26
 7
SIMPLEX
 10
-2308.4646
 20
-1673.6366
 40
230.846420
  1
   5805
 50
   0.000
  0
TEXT
  8
26
 7
SIMPLEX
 10
-6232.8535
 20
-2019.9063
 40
230.846420
  1
EB-4
 50
   0.000
  0
TEXT
  8
26
 7
SIMPLEX
 10
-4616.9287
 20
-2019.9063
 40
230.846420
  1
BEAM
 50
   0.000
  0
TEXT
  8
26
 7
SIMPLEX
 10
-2308.4646
 20
-2019.9063
 40
230.846420
  1
   2272
 50
   0.000
  0
TEXT
  8
26
 7
SIMPLEX
 10
-6232.8535
 20
-2366.1758
 40
230.846420
  1
 G-16
 50
   0.000
  0
TEXT
  8
26
 7
SIMPLEX
 10
-4616.9287
 20
-2366.1758
 40
230.846420
  1
200Z15
 50
   0.000
  0
TEXT
  8
26
 7
SIMPLEX
 10
-2308.4646
 20
-2366.1758
 40
230.846420
  1
   6570
 50
   0.000
  0
TEXT
  8
26
 7
SIMPLEX
 10
-6232.8535
 20
-2712.4453
 40
230.846420
  1
 G-17
 50
   0.000
  0
TEXT
  8
26
 7
SIMPLEX
 10
-4616.9287
 20
-2712.4453
 40
230.846420
  1
200Z15
 50
   0.000
  0
TEXT
  8
26
 7
SIMPLEX
 10
-2308.4646
 20
-2712.4453
 40
230.846420
  1
   6740
 50
   0.000
  0
TEXT
  8
26
 7
SIMPLEX
 10
-6232.8535
 20
-3058.7148
 40
230.846420
  1
 G-18
 50
   0.000
  0
TEXT
  8
26
 7
SIMPLEX
 10
-4616.9287
 20
-3058.7148
 40
230.846420
  1
200Z15
 50
   0.000
  0
TEXT
  8
26
 7
SIMPLEX
 10
-2308.4646
 20
-3058.7148
 40
230.846420
  1
   6895
 50
   0.000
  0
TEXT
  8
26
 7
SIMPLEX
 10
-6232.8535
 20
-3404.9844
 40
230.846420
  1
 G-19
 50
   0.000
  0
TEXT
  8
26
 7
SIMPLEX
 10
-4616.9287
 20
-3404.9844
 40
230.846420
  1
200Z15
 50
   0.000
  0
TEXT
  8
26
 7
SIMPLEX
 10
-2308.4646
 20
-3404.9844
 40
230.846420
  1
   6450
 50
   0.000
  0
TEXT
  8
26
 7
SIMPLEX
 10
-6232.8535
 20
-3751.2539
 40
230.846420
  1
 G-20
 50
   0.000
  0
TEXT
  8
26
 7
SIMPLEX
 10
-4616.9287
 20
-3751.2539
 40
230.846420
  1
200Z15
 50
   0.000
  0
TEXT
  8
26
 7
SIMPLEX
 10
-2308.4646
 20
-3751.2539
 40
230.846420
  1
   6750
 50
   0.000
  0
TEXT
  8
26
 7
SIMPLEX
 10
-6232.8535
 20
-4097.5234
 40
230.846420
  1
 G-21
 50
   0.000
  0
TEXT
  8
26
 7
SIMPLEX
 10
-4616.9287
 20
-4097.5234
 40
230.846420
  1
200Z15
 50
   0.000
  0
TEXT
  8
26
 7
SIMPLEX
 10
-2308.4646
 20
-4097.5234
 40
230.846420
  1
   6620
 50
   0.000
  0
TEXT
  8
26
 7
SIMPLEX
 10
-6232.8535
 20
-4443.7930
 40
230.846420
  1
 G-22
 50
   0.000
  0
TEXT
  8
26
 7
SIMPLEX
 10
-4616.9287
 20
-4443.7930
 40
230.846420
  1
200Z15
 50
   0.000
  0
TEXT
  8
26
 7
SIMPLEX
 10
-2308.4646
 20
-4443.7930
 40
230.846420
  1
   6620
 50
   0.000
  0
TEXT
  8
26
 7
SIMPLEX
 10
-6232.8535
 20
-4790.0625
 40
230.846420
  1
 G-23
 50
   0.000
  0
TEXT
  8
26
 7
SIMPLEX
 10
-4616.9287
 20
-4790.0625
 40
230.846420
  1
200Z15
 50
   0.000
  0
TEXT
  8
26
 7
SIMPLEX
 10
-2308.4646
 20
-4790.0625
 40
230.846420
  1
   6570
 50
   0.000
  0
TEXT
  8
26
 7
SIMPLEX
 10
-6232.8535
 20
-5136.3320
 40
230.846420
  1
 G-24
 50
   0.000
  0
TEXT
  8
26
 7
SIMPLEX
 10
-4616.9287
 20
-5136.3320
 40
230.846420
  1
200Z15
 50
   0.000
  0
TEXT
  8
26
 7
SIMPLEX
 10
-2308.4646
 20
-5136.3320
 40
230.846420
  1
   6180
 50
   0.000
  0
TEXT
  8
26
 7
SIMPLEX
 10
-6232.8535
 20
-5482.6016
 40
230.846420
  1
 G-25
 50
   0.000
  0
TEXT
  8
26
 7
SIMPLEX
 10
-4616.9287
 20
-5482.6016
 40
230.846420
  1
200Z15
 50
   0.000
  0
TEXT
  8
26
 7
SIMPLEX
 10
-2308.4646
 20
-5482.6016
 40
230.846420
  1
   6190
 50
   0.000
  0
TEXT
  8
26
 7
SIMPLEX
 10
-6232.8535
 20
-5828.8711
 40
230.846420
  1
CB-1
 50
   0.000
  0
TEXT
  8
26
 7
SIMPLEX
 10
-4616.9287
 20
-5828.8711
 40
230.846420
  1
ROD20
 50
   0.000
  0
TEXT
  8
26
 7
SIMPLEX
 10
-2308.4646
 20
-5828.8711
 40
230.846420
  1
   8220
 50
   0.000
  0
TEXT
  8
26
 7
SIMPLEX
 10
-6232.8535
 20
-6175.1406
 40
230.846420
  1
CB-2
 50
   0.000
  0
TEXT
  8
26
 7
SIMPLEX
 10
-4616.9287
 20
-6175.1406
 40
230.846420
  1
ROD20
 50
   0.000
  0
TEXT
  8
26
 7
SIMPLEX
 10
-2308.4646
 20
-6175.1406
 40
230.846420
  1
   6270
 50
   0.000
  0
TEXT
  8
26
 7
SIMPLEX
 10
-6232.8535
 20
-6521.4102
 40
230.846420
  1
CB-3
 50
   0.000
  0
TEXT
  8
26
 7
SIMPLEX
 10
-4616.9287
 20
-6521.4102
 40
230.846420
  1
ROD20
 50
   0.000
  0
TEXT
  8
26
 7
SIMPLEX
 10
-2308.4646
 20
-6521.4102
 40
230.846420
  1
   8230
 50
   0.000
  0
TEXT
  8
26
 7
SIMPLEX
 10
-6232.8535
 20
-6867.6802
 40
230.846420
  1
JB-3
 50
   0.000
  0
TEXT
  8
26
 7
SIMPLEX
 10
-4616.9287
 20
-6867.6802
 40
230.846420
  1
SROD12
 50
   0.000
  0
TEXT
  8
26
 7
SIMPLEX
 10
-2308.4646
 20
-6867.6802
 40
230.846420
  1
   1600
 50
   0.000
  0
TEXT
  8
26
 7
SIMPLEX
 10
-6232.8535
 20
-7213.9497
 40
230.846420
  1
JB-6
 50
   0.000
  0
TEXT
  8
26
 7
SIMPLEX
 10
-4616.9287
 20
-7213.9497
 40
230.846420
  1
SROD12
 50
   0.000
  0
TEXT
  8
26
 7
SIMPLEX
 10
-2308.4646
 20
-7213.9497
 40
230.846420
  1
   1290
 50
   0.000
  0
TEXT
  8
26
 7
SIMPLEX
 10
-6232.8535
 20
-7560.2192
 40
230.846420
  1
WA
 50
   0.000
  0
TEXT
  8
26
 7
SIMPLEX
 10
-4616.9287
 20
-7560.2192
 40
230.846420
  1
Z20020
 50
   0.000
  0
TEXT
  8
26
 7
SIMPLEX
 10
-2308.4646
 20
-7560.2192
 40
230.846420
  1
    200
 50
   0.000
  0
LINE
  8
0
 10
-6463.6997
 20
-7617.9312
 11
0.00000000
 21
-7617.9312
  0
LINE
  8
0
 10
-6463.6997
 20
-1038.8088
 11
-6463.6997
 21
-7617.9312
  0
LINE
  8
0
 10
-4847.7749
 20
-1038.8088
 11
-4847.7749
 21
-7617.9312
  0
LINE
  8
0
 10
-2539.3108
 20
-1038.8088
 11
-2539.3108
 21
-7617.9312
  0
LINE
  8
0
 10
-6463.6997
 20
0.00000000
 11
0.00000000
 21
0.00000000
  0
LINE
  8
0
 10
-6463.6997
 20
0.00000000
 11
-6463.6997
 21
-7617.9312
  0
LINE
  8
0
 10
0.00000000
 20
0.00000000
 11
0.00000000
 21
-7617.9312
  0
LINE
  8
0
 10
-6463.6997
 20
-692.53931
 11
0.00000000
 21
-692.53931
  0
LINE
  8
0
 10
-6463.6997
 20
-692.53931
 11
-6463.6997
 21
-1038.8088
  0
LINE
  8
0
 10
-4847.7749
 20
-692.53931
 11
-4847.7749
 21
-1038.8088
  0
LINE
  8
0
 10
-2539.3108
 20
-692.53931
 11
-2539.3108
 21
-1038.8088
  0
LINE
  8
0
 10
-6463.6997
 20
-1038.8088
 11
0.00000000
 21
-1038.8088
  0
ENDBLK
  8
1
  0
BLOCK
  8
1
  2
SW1BLT
 70
     0
 10
0.00000000
 20
0.00000000
  0
TEXT
  8
14
 7
SIMPLEX
 10
-8772.1641
 20
-288.55801
 40
230.846420
  1
BOLT TABLE
 50
   0.000
  0
TEXT
  8
14
 7
SIMPLEX
 10
-8772.1641
 20
-634.82764
 40
230.846420
  1
FRAME LINE A & C
 50
   0.000
  0
TEXT
  8
14
 7
SIMPLEX
 10
-8772.1641
 20
-981.09729
 40
230.846420
  1
LOCATION
 50
   0.000
  0
TEXT
  8
14
 7
SIMPLEX
 10
-5078.6211
 20
-981.09729
 40
230.846420
  1
QUAN
 50
   0.000
  0
TEXT
  8
14
 7
SIMPLEX
 10
-3924.3889
 20
-981.09729
 40
230.846420
  1
TYPE
 50
   0.000
  0
TEXT
  8
14
 7
SIMPLEX
 10
-2770.1567
 20
-981.09729
 40
230.846420
  1
DIA
 50
   0.000
  0
TEXT
  8
14
 7
SIMPLEX
 10
-1385.0782
 20
-981.09729
 40
230.846420
  1
LENGTH
 50
   0.000
  0
TEXT
  8
26
 7
SIMPLEX
 10
-8772.1641
 20
-1327.3669
 40
230.846420
  1
EB-2 (L)
 50
   0.000
  0
TEXT
  8
26
 7
SIMPLEX
 10
-4616.9282
 20
-1327.3669
 40
230.846420
  1
4
 50
   0.000
  0
TEXT
  8
26
 7
SIMPLEX
 10
-3924.3889
 20
-1327.3669
 40
230.846420
  1
Gr8.8
 50
   0.000
  0
TEXT
  8
26
 7
SIMPLEX
 10
-2770.1567
 20
-1327.3669
 40
230.846420
  1
16
 50
   0.000
  0
TEXT
  8
26
 7
SIMPLEX
 10
-8772.1641
 20
-1673.6366
 40
230.846420
  1
EB-2 (R)
 50
   0.000
  0
TEXT
  8
26
 7
SIMPLEX
 10
-4616.9282
 20
-1673.6366
 40
230.846420
  1
8
 50
   0.000
  0
TEXT
  8
26
 7
SIMPLEX
 10
-3924.3889
 20
-1673.6366
 40
230.846420
  1
Gr8.8
 50
   0.000
  0
TEXT
  8
26
 7
SIMPLEX
 10
-2770.1567
 20
-1673.6366
 40
230.846420
  1
20
 50
   0.000
  0
TEXT
  8
26
 7
SIMPLEX
 10
-1385.0782
 20
-1673.6366
 40
230.846420
  1
90
 50
   0.000
  0
TEXT
  8
26
 7
SIMPLEX
 10
-8772.1641
 20
-2019.9063
 40
230.846420
  1
EB-2 (L)
 50
   0.000
  0
TEXT
  8
26
 7
SIMPLEX
 10
-4616.9282
 20
-2019.9063
 40
230.846420
  1
8
 50
   0.000
  0
TEXT
  8
26
 7
SIMPLEX
 10
-3924.3889
 20
-2019.9063
 40
230.846420
  1
Gr8.8
 50
   0.000
  0
TEXT
  8
26
 7
SIMPLEX
 10
-2770.1567
 20
-2019.9063
 40
230.846420
  1
20
 50
   0.000
  0
TEXT
  8
26
 7
SIMPLEX
 10
-1385.0782
 20
-2019.9063
 40
230.846420
  1
90
 50
   0.000
  0
TEXT
  8
26
 7
SIMPLEX
 10
-8772.1641
 20
-2366.1758
 40
230.846420
  1
EB-2 (R)
 50
   0.000
  0
TEXT
  8
26
 7
SIMPLEX
 10
-4616.9282
 20
-2366.1758
 40
230.846420
  1
4
 50
   0.000
  0
TEXT
  8
26
 7
SIMPLEX
 10
-3924.3889
 20
-2366.1758
 40
230.846420
  1
Gr8.8
 50
   0.000
  0
TEXT
  8
26
 7
SIMPLEX
 10
-2770.1567
 20
-2366.1758
 40
230.846420
  1
16
 50
   0.000
  0
LINE
  8
0
 10
-9003.0098
 20
-2423.8872
 11
0.00000000
 21
-2423.8872
  0
LINE
  8
0
 10
-5309.4673
 20
-1038.8088
 11
-5309.4673
 21
-2423.8872
  0
LINE
  8
0
 10
-9003.0098
 20
0.00000000
 11
0.00000000
 21
0.00000000
  0
LINE
  8
0
 10
-9003.0098
 20
0.00000000
 11
-9003.0098
 21
-2423.8872
  0
LINE
  8
0
 10
0.00000000
 20
0.00000000
 11
0.00000000
 21
-2423.8872
  0
LINE
  8
0
 10
-9003.0098
 20
-692.53931
 11
0.00000000
 21
-692.53931
  0
LINE
  8
0
 10
-5309.4673
 20
-692.53931
 11
-5309.4673
 21
-1038.8088
  0
LINE
  8
0
 10
-9003.0098
 20
-1038.8088
 11
0.00000000
 21
-1038.8088
  0
ENDBLK
  8
1
999
END:     AREA=Tables
  0
ENDSEC
  0
SECTION
  2
ENTITIES
  0
LINE
  8
22
 10
0.00000000
 20
0.00000000
 11
55522.1133
 21
0.00000000
  0
LINE
  8
22
 10
55522.1133
 20
0.00000000
 11
55522.1133
 21
39262.0664
  0
LINE
  8
22
 10
55522.1133
 20
39262.0664
 11
0.00000000
 21
39262.0664
  0
LINE
  8
22
 10
0.00000000
 20
39262.0664
 11
0.00000000
 21
0.00000000
  0
LINE
  8
0
 10
34368.1836
 20
0.00000000
 11
34368.1836
 21
3525.65430
  0
LINE
  8
0
 10
34368.1836
 20
3525.65430
 11
55522.1133
 21
3525.65430
  0
LINE
  8
0
 10
34368.1836
 20
0.00000000
 11
55522.1133
 21
0.00000000
  0
LINE
  8
0
 10
55522.1133
 20
0.00000000
 11
55522.1133
 21
3525.65430
  0
LINE
  8
0
 10
34368.1836
 20
1343.10645
 11
55522.1133
 21
1343.10645
  0
LINE
  8
0
 10
34368.1836
 20
2014.65979
 11
55522.1133
 21
2014.65979
  0
LINE
  8
0
 10
34368.1836
 20
2686.21289
 11
55522.1133
 21
2686.21289
  0
LINE
  8
0
 10
37390.1719
 20
0.00000000
 11
37390.1719
 21
2686.21289
  0
LINE
  8
0
 10
44945.1484
 20
0.00000000
 11
44945.1484
 21
2686.21289
  0
LINE
  8
0
 10
44945.1484
 20
671.553223
 11
55522.1133
 21
671.553223
  0
LINE
  8
0
 10
48638.6875
 20
2014.65979
 11
48638.6875
 21
1343.10645
  0
LINE
  8
0
 10
51996.4570
 20
2014.65979
 11
51996.4570
 21
1343.10645
  0
LINE
  8
0
 10
50317.5742
 20
1343.10645
 11
50317.5742
 21
671.553223
  0
TEXT
  8
14
 7
SIMPLEX
 10
34703.9570
 20
2182.54810
 40
335.776611
  1
PROJECT
 50
   0.000
  0
TEXT
  8
14
 7
SIMPLEX
 10
34703.9570
 20
1510.99475
 40
335.776611
  1
ID
 50
   0.000
  0
TEXT
  8
14
 7
SIMPLEX
 10
34703.9570
 20
839.441589
 40
335.776611
  1
PROJECT
 50
   0.000
  0
TEXT
  8
14
 7
SIMPLEX
 10
34703.9570
 20
167.888306
 40
335.776611
  1
ADDRESS
 50
   0.000
  0
TEXT
  8
14
 7
SIMPLEX
 10
37725.9492
 20
2182.54810
 40
335.776611
  1
Proposed Warehouse
 50
   0.000
  0
TEXT
  8
14
 7
SIMPLEX
 10
37725.9492
 20
1510.99475
 40
335.776611
  1
C323-153
 50
   0.000
  0
TEXT
  8
14
 7
SIMPLEX
 10
37725.9492
 20
839.441589
 40
335.776611
  1
Proposed Warehouse
 50
   0.000
  0
TEXT
  8
14
 7
SIMPLEX
 10
37725.9492
 20
167.888306
 40
335.776611
  1
PINE
 50
   0.000
  0
TEXT
  8
14
 7
SIMPLEX
 10
36970.4570
 20
2854.10132
 40
503.664948
  1
RECLA INTERNATIONAL PRIVATE LIMITED
 50
   0.000
  0
TEXT
  8
14
 7
SIMPLEX
 10
45280.9258
 20
2182.54810
 40
335.776611
  1
SIDEWALL FRAMING
 50
   0.000
  0
TEXT
  8
14
 7
SIMPLEX
 10
45280.9258
 20
1510.99475
 40
335.776611
  1
DESIGN:
 50
   0.000
  0
TEXT
  8
14
 7
SIMPLEX
 10
45280.9258
 20
839.441589
 40
335.776611
  1
DATE:
 50
   0.000
  0
TEXT
  8
14
 7
SIMPLEX
 10
46993.3867
 20
839.441589
 40
335.776611
  1
 7/AUG/2025
 50
   0.000
  0
TEXT
  8
14
 7
SIMPLEX
 10
48974.4688
 20
1510.99475
 40
335.776611
  1
DRAFT:
 50
   0.000
  0
TEXT
  8
14
 7
SIMPLEX
 10
52332.2344
 20
1510.99475
 40
335.776611
  1
CHECK:
 50
   0.000
  0
TEXT
  8
14
 7
SIMPLEX
 10
50485.4648
 20
839.441589
 40
335.776611
  1
SHEET
 50
   0.000
  0
TEXT
  8
14
 7
SIMPLEX
 10
53507.4570
 20
839.441589
 40
335.776611
  1
OF
 50
   0.000
  0
TEXT
  8
14
 7
SIMPLEX
 10
52164.3438
 20
839.441589
 40
335.776611
  1
 
 50
   0.000
999
FIELD:@PAGE_ID
  0
TEXT
  8
14
 7
SIMPLEX
 10
54179.0000
 20
839.441589
 40
335.776611
  1
 
 50
   0.000
999
FIELD:@PAGE_TOTAL
  0
INSERT
  8
0
  2
SW1FRM
 10
6134.87598
 20
24813.8711
 41
1.00000000
 42
1.00000000
 43
1.00000000
 50
   0.000
  0
INSERT
  8
0
  2
SW2FRM
 10
6134.87598
 20
8357.35840
 41
1.00000000
 42
1.00000000
 43
1.00000000
 50
   0.000
  0
INSERT
  8
0
  2
SW1TBL
 10
55522.1133
 20
36607.3320
 41
1.00000000
 42
1.00000000
 43
1.00000000
 50
   0.000
  0
INSERT
  8
0
  2
SW1BLT
 10
55522.1133
 20
39262.0664
 41
1.00000000
 42
1.00000000
 43
1.00000000
 50
   0.000
  0
ENDSEC
  0
EOF
