999
SOURCE:MBS   PROGRAM:PLT_DXF   CELL:RF_FLG   CLASS:SCALED   MODE:---
  0
SECTION
  2
HEADER
  9
$EXTMIN
 10
          0.000
 20
          0.000
  9
$EXTMAX
 10
       9944.591
 20
       6258.233
  9
$LIMMIN
 10
          0.000
 20
          0.000
  9
$LIMMAX
 10
       9944.591
 20
       6258.233
  9
$FILLMODE
 70
     1
  9
$LTSCALE
 40
  0.125
  9
$HANDLING
 70
     0
  0
ENDSEC
  0
SECTION
  2
TABLES
  0
TABLE
  2
LTYPE
 70
     3
  0
LTYPE
  2
CONTINUOUS
 70
    64
  3
SOLID LINE
 72
    65
 73
     0
 40
0.0
  0
LTYPE
  2
CENTER
 70
    64
  3
____ _ ____ _ ____ _ ____ _ ____ _ ____ _ ____
 72
    65
 73
     4
 40
2.0
 49
1.25
 49
-0.25
 49
0.25
 49
-0.25
  0
LTYPE
  2
DASHED
 70
    64
  3
__ __ __ __ __ __ __ __ __ __ __ __ __ __ __ 
 72
    65
 73
     2
 40
0.75
 49
0.5
 49
-0.25
  0
ENDTAB
  0
TABLE
  2
LAYER
 70
    51
  0
LAYER
  2
0
 70
     0
 62
     7
  6
CONTINUOUS
  0
LAYER
  2
1
 70
     0
 62
     7
  6
CONTINUOUS
  0
LAYER
  2
2
 70
     0
 62
     7
  6
CONTINUOUS
  0
LAYER
  2
3
 70
     0
 62
     1
  6
CONTINUOUS
  0
LAYER
  2
4
 70
     0
 62
     1
  6
CONTINUOUS
  0
LAYER
  2
5
 70
     0
 62
     7
  6
CONTINUOUS
  0
LAYER
  2
6
 70
     0
 62
     4
  6
CONTINUOUS
  0
LAYER
  2
7
 70
     0
 62
     3
  6
CONTINUOUS
  0
LAYER
  2
8
 70
     0
 62
     3
  6
CONTINUOUS
  0
LAYER
  2
9
 70
     0
 62
     7
  6
CONTINUOUS
  0
LAYER
  2
10
 70
     0
 62
     7
  6
CONTINUOUS
  0
LAYER
  2
11
 70
     0
 62
     7
  6
CONTINUOUS
  0
LAYER
  2
12
 70
     0
 62
     2
  6
CONTINUOUS
  0
LAYER
  2
13
 70
     0
 62
     2
  6
CONTINUOUS
  0
LAYER
  2
14
 70
     0
 62
     7
  6
CONTINUOUS
  0
LAYER
  2
15
 70
     0
 62
     6
  6
CONTINUOUS
  0
LAYER
  2
16
 70
     0
 62
     7
  6
CONTINUOUS
  0
LAYER
  2
17
 70
     0
 62
     7
  6
CONTINUOUS
  0
LAYER
  2
18
 70
     0
 62
     4
  6
CONTINUOUS
  0
LAYER
  2
19
 70
     0
 62
     7
  6
CONTINUOUS
  0
LAYER
  2
20
 70
     0
 62
     7
  6
CONTINUOUS
  0
LAYER
  2
21
 70
     0
 62
     7
  6
CONTINUOUS
  0
LAYER
  2
22
 70
     0
 62
     7
  6
CONTINUOUS
  0
LAYER
  2
23
 70
     0
 62
     7
  6
CONTINUOUS
  0
LAYER
  2
24
 70
     0
 62
     7
  6
CONTINUOUS
  0
LAYER
  2
25
 70
     0
 62
     7
  6
CONTINUOUS
  0
LAYER
  2
26
 70
     0
 62
     7
  6
CONTINUOUS
  0
LAYER
  2
27
 70
     0
 62
     7
  6
CONTINUOUS
  0
LAYER
  2
28
 70
     0
 62
     7
  6
CONTINUOUS
  0
LAYER
  2
29
 70
     0
 62
     7
  6
CONTINUOUS
  0
LAYER
  2
30
 70
     0
 62
     7
  6
CONTINUOUS
  0
LAYER
  2
31
 70
     0
 62
     7
  6
CONTINUOUS
  0
LAYER
  2
32
 70
     0
 62
     7
  6
CONTINUOUS
  0
LAYER
  2
33
 70
     0
 62
     7
  6
CONTINUOUS
  0
LAYER
  2
34
 70
     0
 62
     7
  6
CONTINUOUS
  0
LAYER
  2
35
 70
     0
 62
     7
  6
CONTINUOUS
  0
LAYER
  2
36
 70
     0
 62
     7
  6
CONTINUOUS
  0
LAYER
  2
37
 70
     0
 62
     7
  6
CONTINUOUS
  0
LAYER
  2
38
 70
     0
 62
     7
  6
CONTINUOUS
  0
LAYER
  2
39
 70
     0
 62
     7
  6
CONTINUOUS
  0
LAYER
  2
40
 70
     0
 62
     7
  6
CONTINUOUS
  0
LAYER
  2
41
 70
     0
 62
     7
  6
CONTINUOUS
  0
LAYER
  2
42
 70
     0
 62
     7
  6
CONTINUOUS
  0
LAYER
  2
43
 70
     0
 62
     7
  6
CONTINUOUS
  0
LAYER
  2
44
 70
     0
 62
     7
  6
CONTINUOUS
  0
LAYER
  2
45
 70
     0
 62
     7
  6
CONTINUOUS
  0
LAYER
  2
46
 70
     0
 62
     7
  6
CONTINUOUS
  0
LAYER
  2
47
 70
     0
 62
     7
  6
CONTINUOUS
  0
LAYER
  2
48
 70
     0
 62
     7
  6
CONTINUOUS
  0
LAYER
  2
49
 70
     0
 62
     7
  6
CONTINUOUS
  0
LAYER
  2
50
 70
     0
 62
     7
  6
CONTINUOUS
  0
ENDTAB
  0
ENDSEC
  0
SECTION
  2
BLOCKS
  0
BLOCK
  8
2
  2
ARROW
 70
     0
 10
  0.000000
 20
  0.000000
  0
LINE
  6
CONTINUOUS
  8
2
 10
  0.000000
 20
  0.000000
 11
 -1.000000
 21
  0.166667
  0
LINE
  6
CONTINUOUS
  8
2
 10
 -1.000000
 20
  0.166667
 11
 -1.000000
 21
 -0.166667
  0
LINE
  6
CONTINUOUS
  8
2
 10
 -1.000000
 20
 -0.166667
 11
  0.000000
 21
  0.000000
  0
ENDBLK
  8
2
  0
BLOCK
  8
3
  2
CIRCLE
 70
     0
 10
  0.000000
 20
  0.000000
  0
CIRCLE
  8
1
 10
   0.000
 20
   0.000
 40
   1.000
  0
ENDBLK
  8
3
  0
BLOCK
  8
2
  2
PLATE
 70
     0
 10
  0.000000
 20
  0.000000
  0
CIRCLE
  6
CONTINUOUS
  8
5
 10
  0.000000
 20
-75.000000
 40
  0.100000
  0
LINE
  6
CONTINUOUS
  8
5
 10
 -0.100000
 20
-75.000000
 11
  0.100000
 21
-75.000000
  0
LINE
  6
CONTINUOUS
  8
5
 10
  0.000000
 20
-75.099998
 11
  0.000000
 21
-74.900002
  0
TEXT
  8
5
 10
  0.000000
 20
-75.000000
 40
   0.015
  1
ZERO
 50
   0.000
  0
LINE
  6
CONTINUOUS
  8
3
 10
  0.000000
 20
  0.000000
 11
  0.000000
 21
-150.00000
  0
LINE
  6
CONTINUOUS
  8
3
 10
  0.000000
 20
-150.00000
 11
 7715.6299
 21
-150.00000
  0
LINE
  6
CONTINUOUS
  8
3
 10
 7715.6299
 20
-150.00000
 11
 7715.6299
 21
  0.000000
  0
LINE
  6
CONTINUOUS
  8
3
 10
 7715.6299
 20
  0.000000
 11
  0.000000
 21
  0.000000
  0
LINE
  6
CONTINUOUS
  8
6
 10
-51.437534
 20
-150.00000
 11
-372.92212
 21
-149.99997
  0
LINE
  6
CONTINUOUS
  8
6
 10
-51.437523
 20
  0.000004
 11
-372.92212
 21
  0.000028
  0
LINE
  6
CONTINUOUS
  8
6
 10
-372.87213
 20
-149.99997
 11
-372.87213
 21
  0.000028
  0
INSERT
  8
6
  2
ARROW
 10
-372.87213
 20
-149.99997
 41
 34.291687
 42
 34.291687
 43
 34.291687
 50
 270.000
  0
INSERT
  8
6
  2
ARROW
 10
-372.87213
 20
  0.000028
 41
 34.291687
 42
 34.291687
 43
 34.291687
 50
  90.000
  0
TEXT
  8
6
 10
-561.47638
 20
-109.29164
 40
  68.583
  1
150
 50
   0.000
  0
LINE
  6
CONTINUOUS
  8
6
 10
  0.000000
 20
 51.437534
 11
  0.000000
 21
 372.92212
  0
LINE
  6
CONTINUOUS
  8
6
 10
 7715.6299
 20
 51.437534
 11
 7715.6299
 21
 372.92212
  0
LINE
  6
CONTINUOUS
  8
6
 10
  0.000000
 20
 372.87213
 11
 7715.6299
 21
 372.87213
  0
INSERT
  8
6
  2
ARROW
 10
  0.000000
 20
 372.87213
 41
 34.291687
 42
 34.291687
 43
 34.291687
 50
 180.000
  0
INSERT
  8
6
  2
ARROW
 10
 7715.6299
 20
 372.87213
 41
 34.291687
 42
 34.291687
 43
 34.291687
 50
   0.000
  0
TEXT
  8
6
 10
 3729.2212
 20
 407.16382
 40
  68.583
  1
7716
 50
   0.000
  0
ENDBLK
  8
2
  0
ENDSEC
  0
SECTION
  2
ENTITIES
  0
LINE
  6
CONTINUOUS
  8
5
 10
  0.000000
 20
  0.000000
 11
 9944.5908
 21
  0.000000
  0
LINE
  6
CONTINUOUS
  8
5
 10
 9944.5908
 20
  0.000000
 11
 9944.5908
 21
 6258.2334
  0
LINE
  6
CONTINUOUS
  8
5
 10
 9944.5908
 20
 6258.2334
 11
  0.000000
 21
 6258.2334
  0
LINE
  6
CONTINUOUS
  8
5
 10
  0.000000
 20
 6258.2334
 11
  0.000000
 21
  0.000000
  0
TEXT
  8
5
 10
 137.16675
 20
 68.583374
 40
 137.167
  1
YIELD:345.0
 50
   0.000
  0
TEXT
  8
5
 10
 137.16675
 20
 274.33350
 40
 137.167
  1
THICKNESS:6
 50
   0.000
  0
TEXT
  8
5
 10
 137.16675
 20
 480.08362
 40
 137.167
  1
QUANTITY:10
 50
   0.000
  0
TEXT
  8
5
 10
 137.16675
 20
 685.83374
 40
 137.167
  1
DRAWING:OF6
 50
   0.000
  0
TEXT
  8
5
 10
 137.16675
 20
 891.58386
 40
 137.167
  1
MARK:OF6
 50
   0.000
  0
TEXT
  8
5
 10
 137.16675
 20
 1097.3340
 40
 137.167
  1
JOB:C323-153-Final
 50
   0.000
  0
INSERT
  8
2
  2
PLATE
 10
 1114.4805
 20
 3204.1167
 41
  1.000000
 42
  1.000000
 43
  1.000000
 50
   0.000
  0
ENDSEC
  0
EOF
