999
SOURCE:MBS   PROGRAM:ANDWG   CELL:ANDWG-1   CLASS:PLAN   MODE:---
  0
SECTION
  2
HEADER
  9
$ACADVER
  1
AC1009
  9
$EXTMIN
 10
 0.00     
 20
 0.00     
  9
$EXTMAX
 10
 57170.543
 20
 40427.742
  9
$LIMMIN
 10
 0.00     
 20
 0.00     
  9
$LIMMAX
 10
 57170.543
 20
 40427.742
  9
$FILLMODE
 70
     1
  9
$HANDLING
 70
     0
  0
ENDSEC
  0
SECTION
  2
TABLES
  0
TABLE
  2
LTYPE
 70
1
  0
LTYPE
  2
CONTIN
 70
    64
  3
SOLID LINE
 72
    65
 73
     0
 40
0.0
  0
LTYPE
  2
CONTINUOUS
 70
    64
  3
SOLID LINE
 72
    65
 73
     0
 40
0.0
  0
LTYPE
  2
CENTER
 70
    64
  3
____ _ ____ _ ____ _ ____ _ ____ _ ____ _ ____
 72
    65
 73
     4
 40
     5.080
 49
     3.175
 49
    -0.635
 49
     0.635
 49
    -0.635
  0
LTYPE
  2
DASHED
 70
    64
  3
__ __ __ __ __ __ __ __ __ __ __ __ __ __ __ 
 72
    65
 73
     2
 40
    4.762
 49
    3.175
 49
   -1.587
  0
ENDTAB
  0
TABLE
  2
LAYER
 70
50
  0
LAYER
  2
0
 70
     0
 62
     7
  6
CONTIN
  0
LAYER
  2
1
 70
     0
 62
     7
  6
CONTIN
  0
LAYER
  2
2
 70
     0
 62
     6
  6
CONTIN
  0
LAYER
  2
3
 70
     0
 62
     5
  6
CONTIN
  0
LAYER
  2
4
 70
     0
 62
     7
  6
CENTER
  0
LAYER
  2
5
 70
     0
 62
     5
  6
DASHED
  0
LAYER
  2
6
 70
     0
 62
     4
  6
CONTIN
  0
LAYER
  2
7
 70
     0
 62
     7
  6
CONTIN
  0
LAYER
  2
8
 70
     0
 62
     2
  6
CENTER
  0
LAYER
  2
9
 70
     0
 62
     7
  6
DASHED
  0
LAYER
  2
10
 70
     0
 62
     7
  6
CONTIN
  0
LAYER
  2
11
 70
     0
 62
     6
  6
CONTIN
  0
LAYER
  2
12
 70
     0
 62
     7
  6
CONTIN
  0
LAYER
  2
13
 70
     0
 62
     5
  6
CONTIN
  0
LAYER
  2
14
 70
     0
 62
     1
  6
CONTIN
  0
LAYER
  2
15
 70
     0
 62
     1
  6
CONTIN
  0
LAYER
  2
16
 70
     0
 62
     1
  6
CONTIN
  0
LAYER
  2
17
 70
     0
 62
     6
  6
CONTIN
  0
LAYER
  2
18
 70
     0
 62
     1
  6
CONTIN
  0
LAYER
  2
19
 70
     0
 62
     7
  6
CONTIN
  0
LAYER
  2
20
 70
     0
 62
     7
  6
CONTIN
  0
LAYER
  2
21
 70
     0
 62
     7
  6
CONTIN
  0
LAYER
  2
22
 70
     0
 62
     7
  6
CONTIN
  0
LAYER
  2
23
 70
     0
 62
     7
  6
DASHED
  0
LAYER
  2
24
 70
     0
 62
     7
  6
CONTIN
  0
LAYER
  2
25
 70
     0
 62
     7
  6
CONTIN
  0
LAYER
  2
26
 70
     0
 62
     7
  6
CONTIN
  0
LAYER
  2
27
 70
     0
 62
     7
  6
CENTER
  0
LAYER
  2
28
 70
     0
 62
     7
  6
CONTIN
  0
LAYER
  2
29
 70
     0
 62
     7
  6
CONTIN
  0
LAYER
  2
30
 70
     0
 62
     7
  6
CONTIN
  0
LAYER
  2
31
 70
     0
 62
     7
  6
CONTIN
  0
LAYER
  2
32
 70
     0
 62
     7
  6
CONTIN
  0
LAYER
  2
33
 70
     0
 62
     7
  6
CONTIN
  0
LAYER
  2
34
 70
     0
 62
     7
  6
CONTIN
  0
LAYER
  2
35
 70
     0
 62
     7
  6
CONTIN
  0
LAYER
  2
36
 70
     0
 62
     7
  6
CONTIN
  0
LAYER
  2
37
 70
     0
 62
     7
  6
CONTIN
  0
LAYER
  2
38
 70
     0
 62
     7
  6
CONTIN
  0
LAYER
  2
39
 70
     0
 62
     7
  6
CONTIN
  0
LAYER
  2
40
 70
     0
 62
     7
  6
CONTIN
  0
LAYER
  2
41
 70
     0
 62
     7
  6
CONTIN
  0
LAYER
  2
42
 70
     0
 62
     7
  6
CONTIN
  0
LAYER
  2
43
 70
     0
 62
     7
  6
CONTIN
  0
LAYER
  2
44
 70
     0
 62
     7
  6
CONTIN
  0
LAYER
  2
45
 70
     0
 62
     7
  6
CONTIN
  0
LAYER
  2
46
 70
     0
 62
     7
  6
CONTIN
  0
LAYER
  2
47
 70
     0
 62
     7
  6
CONTIN
  0
LAYER
  2
48
 70
     0
 62
     7
  6
CONTIN
  0
LAYER
  2
49
 70
     0
 62
     7
  6
CONTIN
  0
ENDTAB
  0
TABLE
  2
STYLE
 70
  0
  0
STYLE
  2
SIMPLEX
 70
  0
 40
  0.000
 41
  1.000
 42
  1.000
 50
  0.000
 71
  0
  3
SIMPLEX
  0
STYLE
  2
ROMANS
 70
  0
 40
  0.000
 41
  1.000
 42
  1.000
 50
  0.000
 71
  0
  3
ROMANS
  0
STYLE
  2
OPEN
 70
  0
 40
  0.000
 41
  1.000
 42
  1.000
 50
  0.000
 71
  0
  3
SIMPLEX
  0
STYLE
  2
ARIAL
 70
  0
 40
  0.000
 41
  1.000
 42
  1.000
 50
  0.000
 71
  0
  3
ARIAL.TTF
  0
STYLE
  2
VERDANAB
 70
  0
 40
  0.000
 41
  1.000
 42
  1.000
 50
  0.000
 71
  0
  3
VERDANAB.TTF
  0
ENDTAB
  0
ENDSEC
  0
SECTION
  2
BLOCKS
  0
BLOCK
  8
2
  2
ARROW
 70
     0
 10
 0.00     
 20
 0.00     
  0
LINE
  8
2
 10
 0.00     
 20
 0.00     
 11
  -269.682
 21
   -44.947
  0
LINE
  8
2
 10
 0.00     
 20
 0.00     
 11
  -269.682
 21
    44.947
  0
LINE
  8
2
 10
  -269.682
 20
    44.947
 11
  -269.682
 21
   -44.947
  0
LINE
  8
2
 10
 0.00     
 20
 0.00     
 11
  -377.554
 21
 0.00     
  0
ENDBLK
  8
2
  0
BLOCK
  8
2
  2
ARROWP
 70
     0
 10
 0.00     
 20
 0.00     
  0
LINE
  8
2
 10
 0.00     
 20
 0.00     
 11
  -179.788
 21
   -29.965
  0
LINE
  8
2
 10
 0.00     
 20
 0.00     
 11
  -179.788
 21
    29.965
  0
LINE
  8
2
 10
  -179.788
 20
    29.965
 11
  -179.788
 21
   -29.965
  0
ENDBLK
  8
2
  0
BLOCK
  8
2
  2
ARROWA
 70
     0
 10
 0.00     
 20
 0.00     
  0
LINE
  8
3
 10
   179.788
 20
 0.00     
 11
 0.00     
 21
   -29.965
  0
LINE
  8
3
 10
   179.788
 20
 0.00     
 11
 0.00     
 21
    29.965
  0
LINE
  8
3
 10
 0.00     
 20
    29.965
 11
 0.00     
 21
   -29.965
  0
ENDBLK
  8
2
  0
BLOCK
  8
0
  2
ARROWB
 70
     0
 10
 0.00     
 20
 0.00     
  0
LINE
  8
0
 10
 0.00     
 20
 0.00     
 11
   -25.400
 21
    -4.233
  0
LINE
  8
0
 10
 0.00     
 20
 0.00     
 11
   -25.400
 21
     4.233
  0
LINE
  8
0
 10
   -25.400
 20
     4.233
 11
   -25.400
 21
    -4.233
  0
LINE
  8
0
 10
 0.00     
 20
 0.00     
 11
   -43.180
 21
 0.00     
  0
ENDBLK
  8
0
  0
BLOCK
  8
2
  2
TICK
 70
     0
 10
 0.00     
 20
 0.00     
  0
LINE
  8
2
 10
   -34.575
 20
   -34.575
 11
    34.575
 21
    34.575
  0
ENDBLK
  8
2
  0
BLOCK
  8
0
  2
CIRCLE
 70
     0
 10
 0.00     
 20
 0.00     
  0
CIRCLE
  8
1
 10
    0.000
 20
    0.000
 40
   25.400
  0
ENDBLK
  8
3
  0
BLOCK
  8
1
  2
BRACE
 70
     0
 10
 0.00     
 20
 0.00     
  0
LINE
  8
1
 10
   -12.700
 20
   -12.700
 11
   -12.700
 21
    12.700
  0
LINE
  8
1
 10
   -12.700
 20
    12.700
 11
    12.700
 21
    12.700
  0
LINE
  8
1
 10
    12.700
 20
    12.700
 11
    12.700
 21
   -12.700
  0
LINE
  8
1
 10
    12.700
 20
   -12.700
 11
   -12.700
 21
   -12.700
  0
ENDBLK
  8
1
  0
BLOCK
  8
0
  2
WCOL
 70
     0
 10
 0.00     
 20
 0.00     
  0
LINE
  8
0
 10
  -165.958
 20
   373.405
 11
   165.958
 21
   373.405
  0
LINE
  8
0
 10
 0.00     
 20
   373.405
 11
 0.00     
 21
 0.00     
  0
LINE
  8
0
 10
  -165.958
 20
 0.00     
 11
   165.958
 21
 0.00     
  0
ENDBLK
  8
0
  0
BLOCK
  8
0
  2
WCOL2
 70
     0
 10
 0.00     
 20
 0.00     
  0
LINE
  8
0
 10
  -165.958
 20
 0.00     
 11
   165.958
 21
 0.00     
  0
LINE
  8
0
 10
 0.00     
 20
   373.405
 11
 0.00     
 21
 0.00     
  0
ENDBLK
  8
0
  0
BLOCK
  8
0
  2
PCOL
 70
     0
 10
 0.00     
 20
 0.00     
  0
CIRCLE
  8
0
 10
 0.00     
 20
 0.00     
 40
   110.639
  0
ENDBLK
  8
0
  0
BLOCK
  8
0
  2
ZCOL
 70
     0
 10
 0.00     
 20
 0.00     
  0
LINE
  8
0
 10
   165.958
 20
   345.746
 11
   165.958
 21
   373.405
  0
LINE
  8
0
 10
   165.958
 20
   373.405
 11
 0.00     
 21
   373.405
  0
LINE
  8
0
 10
 0.00     
 20
   373.405
 11
 0.00     
 21
 0.00     
  0
LINE
  8
0
 10
 0.00     
 20
 0.00     
 11
  -165.958
 21
 0.00     
  0
LINE
  8
0
 10
  -165.958
 20
 0.00     
 11
  -165.958
 21
    27.660
  0
ENDBLK
  8
0
  0
BLOCK
  8
0
  2
TCOL
 70
     0
 10
 0.00     
 20
 0.00     
  0
LINE
  8
0
 10
   -96.809
 20
   -96.809
 11
    96.809
 21
   -96.809
  0
LINE
  8
0
 10
    96.809
 20
   -96.809
 11
    96.809
 21
    96.809
  0
LINE
  8
0
 10
    96.809
 20
    96.809
 11
   -96.809
 21
    96.809
  0
LINE
  8
0
 10
   -96.809
 20
    96.809
 11
   -96.809
 21
   -96.809
  0
ENDBLK
  8
0
  0
BLOCK
  8
0
  2
TCOL2
 70
     0
 10
 0.00     
 20
 0.00     
  0
LINE
  8
0
 10
  -124.468
 20
 0.00     
 11
   124.468
 21
 0.00     
  0
LINE
  8
0
 10
   124.468
 20
 0.00     
 11
   124.468
 21
   373.405
  0
LINE
  8
0
 10
   124.468
 20
   373.405
 11
  -124.468
 21
   373.405
  0
LINE
  8
0
 10
  -124.468
 20
   373.405
 11
  -124.468
 21
 0.00     
  0
ENDBLK
  8
0
  0
BLOCK
  8
0
  2
SCCOL
 70
     0
 10
 0.00     
 20
 0.00     
  0
LINE
  8
0
 10
   165.958
 20
   345.746
 11
   165.958
 21
   373.405
  0
LINE
  8
0
 10
   165.958
 20
   373.405
 11
 0.00     
 21
   373.405
  0
LINE
  8
0
 10
 0.00     
 20
   373.405
 11
 0.00     
 21
 0.00     
  0
LINE
  8
0
 10
 0.00     
 20
 0.00     
 11
   165.958
 21
 0.00     
  0
LINE
  8
0
 10
   165.958
 20
 0.00     
 11
   165.958
 21
    27.660
  0
ENDBLK
  8
0
  0
BLOCK
  8
0
  2
GCOL
 70
     0
 10
 0.00     
 20
 0.00     
  0
LINE
  8
0
 10
   248.937
 20
   207.447
 11
   221.277
 21
   207.447
  0
LINE
  8
0
 10
   248.937
 20
   373.405
 11
   248.937
 21
   207.447
  0
LINE
  8
0
 10
   248.937
 20
   373.405
 11
 0.00     
 21
   373.405
  0
LINE
  8
0
 10
 0.00     
 20
   373.405
 11
 0.00     
 21
 0.00     
  0
LINE
  8
0
 10
 0.00     
 20
 0.00     
 11
   165.958
 21
 0.00     
  0
LINE
  8
0
 10
   165.958
 20
 0.00     
 11
   165.958
 21
    27.660
  0
ENDBLK
  8
0
  0
BLOCK
  8
0
  2
UCOL
 70
     0
 10
 0.00     
 20
 0.00     
  0
LINE
  8
0
 10
   165.958
 20
   373.405
 11
 0.00     
 21
   373.405
  0
LINE
  8
0
 10
 0.00     
 20
   373.405
 11
 0.00     
 21
 0.00     
  0
LINE
  8
0
 10
 0.00     
 20
 0.00     
 11
   165.958
 21
 0.00     
  0
ENDBLK
  8
0
  0
BLOCK
  8
0
  2
DCCOL
 70
     0
 10
 0.00     
 20
 0.00     
  0
INSERT
  8
0
  2
SCCOL
 10
 0.00     
 20
 0.00     
 41
     1.000
 42
     1.000
 43
     1.000
 50
    0.000
  0
INSERT
  8
0
  2
SCCOL
 10
 0.00     
 20
 0.00     
 41
    -1.000
 42
     1.000
 43
     1.000
 50
    0.000
  0
ENDBLK
  8
0
  0
BLOCK
  8
0
  2
XCOL
 70
     0
 10
 0.00     
 20
 0.00     
  0
LINE
  8
0
 10
  -165.958
 20
   373.405
 11
   165.958
 21
   373.405
  0
LINE
  8
0
 10
  -165.958
 20
   373.405
 11
  -165.958
 21
 0.00     
  0
LINE
  8
0
 10
   165.958
 20
   373.405
 11
   165.958
 21
 0.00     
  0
LINE
  8
0
 10
  -165.958
 20
 0.00     
 11
   165.958
 21
 0.00     
  0
ENDBLK
  8
0
  0
BLOCK
  8
1
  2
BOLT_0
 70
     0
 10
 0.00     
 20
 0.00     
  0
CIRCLE
  8
1
 10
 0.00     
 20
 0.00     
 40
    25.400
  0
ENDBLK
  8
1
  0
BLOCK
  8
1
  2
BOLT_1
 70
     0
 10
 0.00     
 20
 0.00     
  0
CIRCLE
  8
1
 10
 0.00     
 20
 0.00     
 40
    25.400
  0
ENDBLK
  8
1
  0
BLOCK
  8
1
  2
BOLT_2
 70
     0
 10
 0.00     
 20
 0.00     
  0
CIRCLE
  8
1
 10
 0.00     
 20
 0.00     
 40
    25.400
  0
LINE
  8
1
 10
    25.400
 20
    25.400
 11
   -25.400
 21
   -25.400
  0
LINE
  8
1
 10
   -25.400
 20
    25.400
 11
    25.400
 21
   -25.400
  0
ENDBLK
  8
1
  0
BLOCK
  8
1
  2
BOLT_3
 70
     0
 10
 0.00     
 20
 0.00     
  0
CIRCLE
  8
1
 10
 0.00     
 20
 0.00     
 40
    25.400
  0
LINE
  8
1
 10
    31.750
 20
 0.00     
 11
   -31.750
 21
 0.00     
  0
LINE
  8
1
 10
 0.00     
 20
    25.400
 11
 0.00     
 21
   -25.400
  0
ENDBLK
  8
1
  0
BLOCK
  8
1
  2
BOLT_4
 70
     0
 10
 0.00     
 20
 0.00     
  0
LINE
  8
1
 10
    25.400
 20
    25.400
 11
   -25.400
 21
   -25.400
  0
LINE
  8
1
 10
   -25.400
 20
    25.400
 11
    25.400
 21
   -25.400
  0
ENDBLK
  8
1
  0
BLOCK
  8
1
  2
BOLT_5
 70
     0
 10
 0.00     
 20
 0.00     
  0
LINE
  8
1
 10
    31.750
 20
 0.00     
 11
   -31.750
 21
 0.00     
  0
LINE
  8
1
 10
 0.00     
 20
    25.400
 11
 0.00     
 21
   -25.400
  0
ENDBLK
  8
1
  0
BLOCK
  8
1
  2
BOLT_6
 70
     0
 10
 0.00     
 20
 0.00     
  0
CIRCLE
  8
1
 10
 0.00     
 20
 0.00     
 40
    25.400
  0
LINE
  8
1
 10
    31.750
 20
 0.00     
 11
   -31.750
 21
 0.00     
  0
LINE
  8
1
 10
 0.00     
 20
    31.750
 11
 0.00     
 21
 0.00     
  0
ENDBLK
  8
1
  0
BLOCK
  8
1
  2
BOLT_7
 70
     0
 10
 0.00     
 20
 0.00     
  0
CIRCLE
  8
1
 10
 0.00     
 20
 0.00     
 40
    25.400
  0
LINE
  8
1
 10
    25.400
 20
    25.400
 11
 0.00     
 21
 0.00     
  0
LINE
  8
1
 10
   -25.400
 20
    25.400
 11
 0.00     
 21
 0.00     
  0
ENDBLK
  8
1
  0
BLOCK
  8
9
  2
HILIGHT
 70
     0
 10
 0.00     
 20
 0.00     
  0
LINE
  8
9
 10
  -304.256
 20
  -138.298
 11
   304.256
 21
  -138.298
  0
LINE
  8
9
 10
  -304.256
 20
   511.704
 11
   304.256
 21
   511.704
  0
LINE
  8
9
 10
  -304.256
 20
  -138.298
 11
  -304.256
 21
   511.704
  0
LINE
  8
9
 10
   304.256
 20
  -138.298
 11
   304.256
 21
   511.704
  0
ENDBLK
  8
9
  0
BLOCK
  8
9
  2
HILIGHT2
 70
     0
 10
 0.00     
 20
 0.00     
  0
LINE
  8
9
 10
  -304.256
 20
  -207.447
 11
   304.256
 21
  -207.447
  0
LINE
  8
9
 10
  -304.256
 20
   580.853
 11
   304.256
 21
   580.853
  0
LINE
  8
9
 10
  -304.256
 20
  -207.447
 11
  -304.256
 21
   580.853
  0
LINE
  8
9
 10
   304.256
 20
  -207.447
 11
   304.256
 21
   580.853
  0
ENDBLK
  8
9
  0
BLOCK
  8
0
  2
MARROW
 70
     0
 10
 0.00     
 20
 0.00     
  0
LINE
  8
0
 10
 0.00     
 20
 0.00     
 11
    -2.540
 21
-0.4233333
  0
LINE
  8
0
 10
 0.00     
 20
 0.00     
 11
    -2.540
 21
0.42333336
  0
LINE
  8
0
 10
    -2.540
 20
0.42333336
 11
    -2.540
 21
-0.4233333
  0
ENDBLK
  8
0
  0
BLOCK
  8
0
  2
RFRM-1
 70
     0
 10
 -1993.872
 20
  5531.931
  0
LINE
  8
1
 10
 0.00     
 20
 0.00     
 11
 0.00     
 21
  2956.294
  0
LINE
  8
1
 10
 0.00     
 20
  2956.294
 11
  4575.371
 21
  4100.137
  0
LINE
  8
1
 10
  4575.371
 20
  4100.137
 11
  9150.742
 21
  2956.294
  0
LINE
  8
1
 10
  9150.742
 20
  2956.294
 11
  9150.742
 21
 0.00     
  0
LINE
  8
1
 10
 0.00     
 20
 0.00     
 11
 0.00     
 21
  2956.294
  0
LINE
  8
1
 10
  9150.742
 20
 0.00     
 11
  9150.742
 21
  2956.294
  0
LINE
  8
1
 10
 0.00     
 20
  4262.840
 11
 0.00     
 21
  4669.600
  0
INSERT
  8
1
  2
MARROW
 10
 0.00     
 20
  4506.896
 41
    64.057
 42
    64.057
 43
    64.057
 50
  180.000
  0
LINE
  8
1
 10
  9150.742
 20
  4262.840
 11
  9150.742
 21
  4669.600
  0
INSERT
  8
1
  2
MARROW
 10
  9150.742
 20
  4506.896
 41
    64.057
 42
    64.057
 43
    64.057
 50
  180.000
  0
LINE
  8
1
 10
 0.00     
 20
  4506.896
 11
  9638.854
 21
  4506.896
  0
CIRCLE
  8
13
 10
 0.00     
 20
  4832.304
 40
   162.704
  0
TEXT
  8
13
 7
SIMPLEX
 10
   -36.608
 20
  4759.087
 40
  146.433
  1
D
 50
    0.000
  0
CIRCLE
  8
13
 10
  9150.742
 20
  4832.304
 40
   162.704
  0
TEXT
  8
13
 7
SIMPLEX
 10
  9114.134
 20
  4759.087
 40
  146.433
  1
A
 50
    0.000
  0
TEXT
  8
14
 7
SIMPLEX
 10
  9638.854
 20
  4506.896
 40
  162.704
  1
COLUMN LINE
 50
    0.000
  0
LINE
  8
1
 10
 0.00     
 20
   -81.352
 11
 0.00     
 21
  -569.464
  0
INSERT
  8
1
  2
MARROW
 10
 0.00     
 20
   -81.352
 41
    64.057
 42
    64.057
 43
    64.057
 50
   90.000
  0
TEXT
  8
14
 7
SIMPLEX
 10
    81.352
 20
  -488.112
 40
  162.704
  1
V
 50
    0.000
  0
LINE
  8
1
 10
  -569.464
 20
 0.00     
 11
   -81.352
 21
 0.00     
  0
INSERT
  8
1
  2
MARROW
 10
   -81.352
 20
 0.00     
 41
    64.057
 42
    64.057
 43
    64.057
 50
    0.000
  0
TEXT
  8
14
 7
SIMPLEX
 10
  -488.112
 20
    81.352
 40
  162.704
  1
H
 50
    0.000
  0
LINE
  8
1
 10
  9150.742
 20
   -81.352
 11
  9150.742
 21
  -569.464
  0
INSERT
  8
1
  2
MARROW
 10
  9150.742
 20
   -81.352
 41
    64.057
 42
    64.057
 43
    64.057
 50
   90.000
  0
TEXT
  8
14
 7
SIMPLEX
 10
  9232.094
 20
  -488.112
 40
  162.704
  1
V
 50
    0.000
  0
LINE
  8
1
 10
  8581.278
 20
 0.00     
 11
  9069.391
 21
 0.00     
  0
INSERT
  8
1
  2
MARROW
 10
  9069.391
 20
 0.00     
 41
    64.057
 42
    64.057
 43
    64.057
 50
    0.000
  0
TEXT
  8
14
 7
SIMPLEX
 10
  8662.631
 20
    81.352
 40
  162.704
  1
H
 50
    0.000
  0
TEXT
  8
14
 7
SIMPLEX
 10
 -1831.168
 20
  5287.875
 40
  162.704
  1
FRAME LINES:
 50
    0.000
  0
TEXT
  8
14
 7
SIMPLEX
 10
   121.278
 20
  5287.875
 40
  162.704
  1
1 2 3 4 5
 50
    0.000
  0
LINE
  8
0
 10
 -1993.872
 20
  -976.223
 11
 14601.921
 21
  -976.223
  0
LINE
  8
0
 10
 14601.921
 20
  -976.223
 11
 14601.921
 21
  5531.931
  0
LINE
  8
0
 10
 14601.921
 20
  5531.931
 11
 -1993.872
 21
  5531.931
  0
LINE
  8
0
 10
 -1993.872
 20
  5531.931
 11
 -1993.872
 21
  -976.223
  0
ENDBLK
  8
0
  0
BLOCK
  8
1
  2
EWTABL
 70
     0
 10
 0.00     
 20
 0.00     
  0
TEXT
  8
20
 7
SIMPLEX
 10
   162.704
 20
  -366.084
 40
  244.056
  1
ENDWALL COLUMN:
 50
    0.000
  0
TEXT
  8
20
 7
SIMPLEX
 10
  4148.948
 20
  -366.084
 40
  162.704
  1
BASIC COLUMN REACTIONS (kN)
 50
    0.000
  0
TEXT
  8
14
 7
SIMPLEX
 10
  1789.742
 20
  -691.491
 40
  162.704
  1
 
 50
    0.000
  0
TEXT
  8
14
 7
SIMPLEX
 10
  3010.021
 20
  -691.491
 40
  162.704
  1
Wind
 50
    0.000
  0
TEXT
  8
14
 7
SIMPLEX
 10
  4230.300
 20
  -691.491
 40
  162.704
  1
Wind
 50
    0.000
  0
TEXT
  8
14
 7
SIMPLEX
 10
  5450.579
 20
  -691.491
 40
  162.704
  1
Seis
 50
    0.000
  0
TEXT
  8
14
 7
SIMPLEX
 10
   244.056
 20
  -935.547
 40
  162.704
  1
Frm
 50
    0.000
  0
TEXT
  8
14
 7
SIMPLEX
 10
  1016.899
 20
  -935.547
 40
  162.704
  1
Col
 50
    0.000
  0
TEXT
  8
14
 7
SIMPLEX
 10
   244.056
 20
 -1179.603
 40
  162.704
  1
Line
 50
    0.000
  0
TEXT
  8
14
 7
SIMPLEX
 10
  1016.899
 20
 -1179.603
 40
  162.704
  1
Line
 50
    0.000
  0
TEXT
  8
14
 7
SIMPLEX
 10
  1789.742
 20
  -935.547
 40
  162.704
  1
Dead
 50
    0.000
  0
TEXT
  8
14
 7
SIMPLEX
 10
  1789.742
 20
 -1179.603
 40
  162.704
  1
Vert
 50
    0.000
  0
TEXT
  8
14
 7
SIMPLEX
 10
  3010.021
 20
  -935.547
 40
  162.704
  1
Press
 50
    0.000
  0
TEXT
  8
14
 7
SIMPLEX
 10
  3010.021
 20
 -1179.603
 40
  162.704
  1
Horz
 50
    0.000
  0
TEXT
  8
14
 7
SIMPLEX
 10
  4230.300
 20
  -935.547
 40
  162.704
  1
Suct
 50
    0.000
  0
TEXT
  8
14
 7
SIMPLEX
 10
  4230.300
 20
 -1179.603
 40
  162.704
  1
Horz
 50
    0.000
  0
TEXT
  8
14
 7
SIMPLEX
 10
  5450.579
 20
  -935.547
 40
  162.704
  1
Long
 50
    0.000
  0
TEXT
  8
14
 7
SIMPLEX
 10
  5450.579
 20
 -1179.603
 40
  162.704
  1
Vert
 50
    0.000
  0
TEXT
  8
13
 7
SIMPLEX
 10
   244.056
 20
 -1423.659
 40
  162.704
  1
1
 50
    0.000
  0
TEXT
  8
13
 7
SIMPLEX
 10
  1016.899
 20
 -1423.659
 40
  162.704
  1
C
 50
    0.000
  0
TEXT
  8
26
 7
SIMPLEX
 10
  1326.036
 20
 -1423.659
 40
  162.704
  1
    1.4
 50
    0.000
  0
TEXT
  8
26
 7
SIMPLEX
 10
  2546.315
 20
 -1423.659
 40
  162.704
  1
  -15.2
 50
    0.000
  0
TEXT
  8
26
 7
SIMPLEX
 10
  3766.594
 20
 -1423.659
 40
  162.704
  1
   15.8
 50
    0.000
  0
TEXT
  8
26
 7
SIMPLEX
 10
  4986.873
 20
 -1423.659
 40
  162.704
  1
    0.1
 50
    0.000
  0
TEXT
  8
13
 7
SIMPLEX
 10
   244.056
 20
 -1667.714
 40
  162.704
  1
1
 50
    0.000
  0
TEXT
  8
13
 7
SIMPLEX
 10
  1016.899
 20
 -1667.714
 40
  162.704
  1
B
 50
    0.000
  0
TEXT
  8
26
 7
SIMPLEX
 10
  1326.036
 20
 -1667.714
 40
  162.704
  1
    1.4
 50
    0.000
  0
TEXT
  8
26
 7
SIMPLEX
 10
  2546.315
 20
 -1667.714
 40
  162.704
  1
  -15.2
 50
    0.000
  0
TEXT
  8
26
 7
SIMPLEX
 10
  3766.594
 20
 -1667.714
 40
  162.704
  1
   15.8
 50
    0.000
  0
TEXT
  8
26
 7
SIMPLEX
 10
  4986.873
 20
 -1667.714
 40
  162.704
  1
    0.1
 50
    0.000
  0
TEXT
  8
13
 7
SIMPLEX
 10
   244.056
 20
 -1911.770
 40
  162.704
  1
5
 50
    0.000
  0
TEXT
  8
13
 7
SIMPLEX
 10
  1016.899
 20
 -1911.770
 40
  162.704
  1
B
 50
    0.000
  0
TEXT
  8
26
 7
SIMPLEX
 10
  1326.036
 20
 -1911.770
 40
  162.704
  1
    1.4
 50
    0.000
  0
TEXT
  8
26
 7
SIMPLEX
 10
  2546.315
 20
 -1911.770
 40
  162.704
  1
  -15.2
 50
    0.000
  0
TEXT
  8
26
 7
SIMPLEX
 10
  3766.594
 20
 -1911.770
 40
  162.704
  1
   15.8
 50
    0.000
  0
TEXT
  8
26
 7
SIMPLEX
 10
  4986.873
 20
 -1911.770
 40
  162.704
  1
    0.1
 50
    0.000
  0
TEXT
  8
13
 7
SIMPLEX
 10
   244.056
 20
 -2155.826
 40
  162.704
  1
5
 50
    0.000
  0
TEXT
  8
13
 7
SIMPLEX
 10
  1016.899
 20
 -2155.826
 40
  162.704
  1
C
 50
    0.000
  0
TEXT
  8
26
 7
SIMPLEX
 10
  1326.036
 20
 -2155.826
 40
  162.704
  1
    1.4
 50
    0.000
  0
TEXT
  8
26
 7
SIMPLEX
 10
  2546.315
 20
 -2155.826
 40
  162.704
  1
  -15.2
 50
    0.000
  0
TEXT
  8
26
 7
SIMPLEX
 10
  3766.594
 20
 -2155.826
 40
  162.704
  1
   15.8
 50
    0.000
  0
TEXT
  8
26
 7
SIMPLEX
 10
  4986.873
 20
 -2155.826
 40
  162.704
  1
    0.1
 50
    0.000
  0
LINE
  8
0
 10
 0.00     
 20
 -2399.882
 11
 16595.793
 21
 -2399.882
  0
LINE
  8
0
 10
 16595.793
 20
 -2399.882
 11
 16595.793
 21
 0.00     
  0
LINE
  8
0
 10
 16595.793
 20
 0.00     
 11
 0.00     
 21
 0.00     
  0
LINE
  8
0
 10
 0.00     
 20
 0.00     
 11
 0.00     
 21
 -2399.882
  0
ENDBLK
  8
0
  0
BLOCK
  8
1
  2
EWBASE
 70
     0
 10
 0.00     
 20
 0.00     
  0
TEXT
  8
20
 7
SIMPLEX
 10
   162.704
 20
  -366.084
 40
  244.056
  1
ENDWALL COLUMN:
 50
    0.000
  0
TEXT
  8
20
 7
SIMPLEX
 10
  4067.597
 20
  -366.084
 40
  162.704
  1
ANCHOR BOLTS & BASE PLATES
 50
    0.000
  0
TEXT
  8
14
 7
SIMPLEX
 10
   244.056
 20
  -854.195
 40
  162.704
  1
Frm
 50
    0.000
  0
TEXT
  8
14
 7
SIMPLEX
 10
  1016.899
 20
  -854.195
 40
  162.704
  1
Col
 50
    0.000
  0
TEXT
  8
14
 7
SIMPLEX
 10
  2098.880
 20
  -854.195
 40
  162.704
  1
Anc._Bolt
 50
    0.000
  0
TEXT
  8
14
 7
SIMPLEX
 10
  3953.703
 20
  -854.195
 40
  162.704
  1
Base_Plate (mm)
 50
    0.000
  0
TEXT
  8
14
 7
SIMPLEX
 10
  6735.936
 20
  -854.195
 40
  162.704
  1
Grout
 50
    0.000
  0
TEXT
  8
14
 7
SIMPLEX
 10
   244.056
 20
 -1098.251
 40
  162.704
  1
Line
 50
    0.000
  0
TEXT
  8
14
 7
SIMPLEX
 10
  1016.899
 20
 -1098.251
 40
  162.704
  1
Line
 50
    0.000
  0
TEXT
  8
14
 7
SIMPLEX
 10
  2098.880
 20
 -1098.251
 40
  162.704
  1
Qty
 50
    0.000
  0
TEXT
  8
14
 7
SIMPLEX
 10
  2717.154
 20
 -1098.251
 40
  162.704
  1
Dia
 50
    0.000
  0
TEXT
  8
14
 7
SIMPLEX
 10
  3799.134
 20
 -1098.251
 40
  162.704
  1
Width
 50
    0.000
  0
TEXT
  8
14
 7
SIMPLEX
 10
  4726.545
 20
 -1098.251
 40
  162.704
  1
Length
 50
    0.000
  0
TEXT
  8
14
 7
SIMPLEX
 10
  5808.524
 20
 -1098.251
 40
  162.704
  1
Thick
 50
    0.000
  0
TEXT
  8
14
 7
SIMPLEX
 10
  6890.505
 20
 -1098.251
 40
  162.704
  1
(mm)
 50
    0.000
  0
LINE
  8
14
 10
   244.056
 20
 -1260.955
 11
   732.167
 21
 -1260.955
  0
LINE
  8
14
 10
  1016.899
 20
 -1260.955
 11
  1830.418
 21
 -1260.955
  0
LINE
  8
14
 10
  2098.880
 20
 -1260.955
 11
  2586.991
 21
 -1260.955
  0
LINE
  8
14
 10
  2717.154
 20
 -1260.955
 11
  3530.674
 21
 -1260.955
  0
LINE
  8
14
 10
  3799.134
 20
 -1260.955
 11
  4612.654
 21
 -1260.955
  0
LINE
  8
14
 10
  4726.545
 20
 -1260.955
 11
  5702.768
 21
 -1260.955
  0
LINE
  8
14
 10
  5808.524
 20
 -1260.955
 11
  6622.044
 21
 -1260.955
  0
LINE
  8
14
 10
  6735.936
 20
 -1260.955
 11
  7549.456
 21
 -1260.955
  0
TEXT
  8
13
 7
SIMPLEX
 10
   244.056
 20
 -1667.714
 40
  162.704
  1
1
 50
    0.000
  0
TEXT
  8
13
 7
SIMPLEX
 10
  1171.468
 20
 -1667.714
 40
  162.704
  1
C
 50
    0.000
  0
TEXT
  8
26
 7
SIMPLEX
 10
  2253.448
 20
 -1667.714
 40
  162.704
  1
4
 50
    0.000
  0
TEXT
  8
26
 7
SIMPLEX
 10
  2717.154
 20
 -1667.714
 40
  162.704
  1
   20
 50
    0.000
  0
TEXT
  8
26
 7
SIMPLEX
 10
  3799.134
 20
 -1667.714
 40
  162.704
  1
  200
 50
    0.000
  0
TEXT
  8
26
 7
SIMPLEX
 10
  4726.545
 20
 -1667.714
 40
  162.704
  1
  300
 50
    0.000
  0
TEXT
  8
26
 7
SIMPLEX
 10
  5808.524
 20
 -1667.714
 40
  162.704
  1
   16
 50
    0.000
  0
TEXT
  8
26
 7
SIMPLEX
 10
  6735.936
 20
 -1667.714
 40
  162.704
  1
  500
 50
    0.000
  0
TEXT
  8
13
 7
SIMPLEX
 10
   244.056
 20
 -1993.122
 40
  162.704
  1
1
 50
    0.000
  0
TEXT
  8
13
 7
SIMPLEX
 10
  1171.468
 20
 -1993.122
 40
  162.704
  1
B
 50
    0.000
  0
TEXT
  8
26
 7
SIMPLEX
 10
  2253.448
 20
 -1993.122
 40
  162.704
  1
4
 50
    0.000
  0
TEXT
  8
26
 7
SIMPLEX
 10
  2717.154
 20
 -1993.122
 40
  162.704
  1
   20
 50
    0.000
  0
TEXT
  8
26
 7
SIMPLEX
 10
  3799.134
 20
 -1993.122
 40
  162.704
  1
  200
 50
    0.000
  0
TEXT
  8
26
 7
SIMPLEX
 10
  4726.545
 20
 -1993.122
 40
  162.704
  1
  300
 50
    0.000
  0
TEXT
  8
26
 7
SIMPLEX
 10
  5808.524
 20
 -1993.122
 40
  162.704
  1
   16
 50
    0.000
  0
TEXT
  8
26
 7
SIMPLEX
 10
  6735.936
 20
 -1993.122
 40
  162.704
  1
  500
 50
    0.000
  0
TEXT
  8
13
 7
SIMPLEX
 10
   244.056
 20
 -2318.530
 40
  162.704
  1
5
 50
    0.000
  0
TEXT
  8
13
 7
SIMPLEX
 10
  1171.468
 20
 -2318.530
 40
  162.704
  1
B
 50
    0.000
  0
TEXT
  8
26
 7
SIMPLEX
 10
  2253.448
 20
 -2318.530
 40
  162.704
  1
4
 50
    0.000
  0
TEXT
  8
26
 7
SIMPLEX
 10
  2717.154
 20
 -2318.530
 40
  162.704
  1
   20
 50
    0.000
  0
TEXT
  8
26
 7
SIMPLEX
 10
  3799.134
 20
 -2318.530
 40
  162.704
  1
  200
 50
    0.000
  0
TEXT
  8
26
 7
SIMPLEX
 10
  4726.545
 20
 -2318.530
 40
  162.704
  1
  300
 50
    0.000
  0
TEXT
  8
26
 7
SIMPLEX
 10
  5808.524
 20
 -2318.530
 40
  162.704
  1
   16
 50
    0.000
  0
TEXT
  8
26
 7
SIMPLEX
 10
  6735.936
 20
 -2318.530
 40
  162.704
  1
  500
 50
    0.000
  0
TEXT
  8
13
 7
SIMPLEX
 10
   244.056
 20
 -2643.938
 40
  162.704
  1
5
 50
    0.000
  0
TEXT
  8
13
 7
SIMPLEX
 10
  1171.468
 20
 -2643.938
 40
  162.704
  1
C
 50
    0.000
  0
TEXT
  8
26
 7
SIMPLEX
 10
  2253.448
 20
 -2643.938
 40
  162.704
  1
4
 50
    0.000
  0
TEXT
  8
26
 7
SIMPLEX
 10
  2717.154
 20
 -2643.938
 40
  162.704
  1
   20
 50
    0.000
  0
TEXT
  8
26
 7
SIMPLEX
 10
  3799.134
 20
 -2643.938
 40
  162.704
  1
  200
 50
    0.000
  0
TEXT
  8
26
 7
SIMPLEX
 10
  4726.545
 20
 -2643.938
 40
  162.704
  1
  300
 50
    0.000
  0
TEXT
  8
26
 7
SIMPLEX
 10
  5808.524
 20
 -2643.938
 40
  162.704
  1
   16
 50
    0.000
  0
TEXT
  8
26
 7
SIMPLEX
 10
  6735.936
 20
 -2643.938
 40
  162.704
  1
  500
 50
    0.000
  0
LINE
  8
0
 10
 0.00     
 20
 -2806.641
 11
  8460.601
 21
 -2806.641
  0
LINE
  8
0
 10
  8460.601
 20
 -2806.641
 11
  8460.601
 21
 0.00     
  0
LINE
  8
0
 10
  8460.601
 20
 0.00     
 11
 0.00     
 21
 0.00     
  0
LINE
  8
0
 10
 0.00     
 20
 0.00     
 11
 0.00     
 21
 -2806.641
  0
ENDBLK
  8
0
  0
BLOCK
  8
1
  2
BOLT01
 70
     0
 10
 0.00     
 20
 0.00     
  0
TEXT
  8
20
 7
SIMPLEX
 10
   162.704
 20
  -488.112
 40
  244.056
  1
RIGID FRAME:
 50
    0.000
  0
TEXT
  8
20
 7
SIMPLEX
 10
  3091.373
 20
  -488.112
 40
  162.704
  1
ANCHOR BOLTS & BASE PLATES
 50
    0.000
  0
TEXT
  8
14
 7
SIMPLEX
 10
   244.056
 20
 -1138.927
 40
  162.704
  1
Frm
 50
    0.000
  0
TEXT
  8
14
 7
SIMPLEX
 10
  1016.899
 20
 -1138.927
 40
  162.704
  1
Col
 50
    0.000
  0
TEXT
  8
14
 7
SIMPLEX
 10
  1944.311
 20
 -1138.927
 40
  162.704
  1
Anc._Bolt
 50
    0.000
  0
TEXT
  8
14
 7
SIMPLEX
 10
  3644.566
 20
 -1138.927
 40
  162.704
  1
Base_Plate (mm)
 50
    0.000
  0
TEXT
  8
14
 7
SIMPLEX
 10
  6426.798
 20
 -1138.927
 40
  162.704
  1
Grout
 50
    0.000
  0
TEXT
  8
14
 7
SIMPLEX
 10
   244.056
 20
 -1382.983
 40
  162.704
  1
Line
 50
    0.000
  0
TEXT
  8
14
 7
SIMPLEX
 10
  1016.899
 20
 -1382.983
 40
  162.704
  1
Line
 50
    0.000
  0
TEXT
  8
14
 7
SIMPLEX
 10
  1944.311
 20
 -1382.983
 40
  162.704
  1
Qty
 50
    0.000
  0
TEXT
  8
14
 7
SIMPLEX
 10
  2562.586
 20
 -1382.983
 40
  162.704
  1
Dia
 50
    0.000
  0
TEXT
  8
14
 7
SIMPLEX
 10
  3489.997
 20
 -1382.983
 40
  162.704
  1
Width
 50
    0.000
  0
TEXT
  8
14
 7
SIMPLEX
 10
  4417.408
 20
 -1382.983
 40
  162.704
  1
Length
 50
    0.000
  0
TEXT
  8
14
 7
SIMPLEX
 10
  5499.388
 20
 -1382.983
 40
  162.704
  1
Thick
 50
    0.000
  0
TEXT
  8
14
 7
SIMPLEX
 10
  6581.367
 20
 -1382.983
 40
  162.704
  1
(mm)
 50
    0.000
  0
LINE
  8
14
 10
   244.056
 20
 -1545.687
 11
   894.871
 21
 -1545.687
  0
LINE
  8
14
 10
  1016.899
 20
 -1545.687
 11
  1830.418
 21
 -1545.687
  0
LINE
  8
14
 10
  1944.311
 20
 -1545.687
 11
  2432.422
 21
 -1545.687
  0
LINE
  8
14
 10
  2562.586
 20
 -1545.687
 11
  3376.105
 21
 -1545.687
  0
LINE
  8
14
 10
  3489.997
 20
 -1545.687
 11
  4303.517
 21
 -1545.687
  0
LINE
  8
14
 10
  4417.408
 20
 -1545.687
 11
  5393.631
 21
 -1545.687
  0
LINE
  8
14
 10
  5499.388
 20
 -1545.687
 11
  6312.907
 21
 -1545.687
  0
LINE
  8
14
 10
  6426.798
 20
 -1545.687
 11
  7240.318
 21
 -1545.687
  0
TEXT
  8
13
 7
SIMPLEX
 10
   244.056
 20
 -1952.446
 40
  162.704
  1
1*
 50
    0.000
  0
TEXT
  8
13
 7
SIMPLEX
 10
  1016.899
 20
 -1952.446
 40
  162.704
  1
D
 50
    0.000
  0
TEXT
  8
26
 7
SIMPLEX
 10
  2098.880
 20
 -1952.446
 40
  162.704
  1
4
 50
    0.000
  0
TEXT
  8
26
 7
SIMPLEX
 10
  2562.586
 20
 -1952.446
 40
  162.704
  1
   20
 50
    0.000
  0
TEXT
  8
26
 7
SIMPLEX
 10
  3489.997
 20
 -1952.446
 40
  162.704
  1
  200
 50
    0.000
  0
TEXT
  8
26
 7
SIMPLEX
 10
  4417.408
 20
 -1952.446
 40
  162.704
  1
  300
 50
    0.000
  0
TEXT
  8
26
 7
SIMPLEX
 10
  5499.388
 20
 -1952.446
 40
  162.704
  1
   16
 50
    0.000
  0
TEXT
  8
26
 7
SIMPLEX
 10
  6426.798
 20
 -1952.446
 40
  162.704
  1
  500
 50
    0.000
  0
TEXT
  8
13
 7
SIMPLEX
 10
   244.056
 20
 -2196.502
 40
  162.704
  1
1*
 50
    0.000
  0
TEXT
  8
13
 7
SIMPLEX
 10
  1016.899
 20
 -2196.502
 40
  162.704
  1
A
 50
    0.000
  0
TEXT
  8
26
 7
SIMPLEX
 10
  2098.880
 20
 -2196.502
 40
  162.704
  1
4
 50
    0.000
  0
TEXT
  8
26
 7
SIMPLEX
 10
  2562.586
 20
 -2196.502
 40
  162.704
  1
   20
 50
    0.000
  0
TEXT
  8
26
 7
SIMPLEX
 10
  3489.997
 20
 -2196.502
 40
  162.704
  1
  200
 50
    0.000
  0
TEXT
  8
26
 7
SIMPLEX
 10
  4417.408
 20
 -2196.502
 40
  162.704
  1
  300
 50
    0.000
  0
TEXT
  8
26
 7
SIMPLEX
 10
  5499.388
 20
 -2196.502
 40
  162.704
  1
   16
 50
    0.000
  0
TEXT
  8
26
 7
SIMPLEX
 10
  6426.798
 20
 -2196.502
 40
  162.704
  1
  500
 50
    0.000
  0
TEXT
  8
13
 7
SIMPLEX
 10
   244.056
 20
 -2928.670
 40
  162.704
  1
1*
 50
    0.000
  0
TEXT
  8
14
 7
SIMPLEX
 10
  1016.899
 20
 -2928.670
 40
  162.704
  1
Frame lines:
 50
    0.000
  0
TEXT
  8
13
 7
SIMPLEX
 10
  3335.429
 20
 -2928.670
 40
  162.704
  1
1
 50
    0.000
  0
TEXT
  8
13
 7
SIMPLEX
 10
  3799.135
 20
 -2928.670
 40
  162.704
  1
5
 50
    0.000
  0
LINE
  8
0
 10
 0.00     
 20
 -3254.077
 11
 16595.793
 21
 -3254.077
  0
LINE
  8
0
 10
 16595.793
 20
 -3254.077
 11
 16595.793
 21
 0.00     
  0
LINE
  8
0
 10
 16595.793
 20
 0.00     
 11
 0.00     
 21
 0.00     
  0
LINE
  8
0
 10
 0.00     
 20
 0.00     
 11
 0.00     
 21
 -3254.077
  0
ENDBLK
  8
0
  0
BLOCK
  8
1
  2
BOLT02
 70
     0
 10
 0.00     
 20
 0.00     
  0
TEXT
  8
20
 7
SIMPLEX
 10
   162.704
 20
  -488.112
 40
  244.056
  1
RIGID FRAME:
 50
    0.000
  0
TEXT
  8
20
 7
SIMPLEX
 10
  3091.373
 20
  -488.112
 40
  162.704
  1
ANCHOR BOLTS & BASE PLATES
 50
    0.000
  0
TEXT
  8
14
 7
SIMPLEX
 10
   244.056
 20
 -1138.927
 40
  162.704
  1
Frm
 50
    0.000
  0
TEXT
  8
14
 7
SIMPLEX
 10
  1016.899
 20
 -1138.927
 40
  162.704
  1
Col
 50
    0.000
  0
TEXT
  8
14
 7
SIMPLEX
 10
  1944.311
 20
 -1138.927
 40
  162.704
  1
Anc._Bolt
 50
    0.000
  0
TEXT
  8
14
 7
SIMPLEX
 10
  3644.566
 20
 -1138.927
 40
  162.704
  1
Base_Plate (mm)
 50
    0.000
  0
TEXT
  8
14
 7
SIMPLEX
 10
  6426.798
 20
 -1138.927
 40
  162.704
  1
Grout
 50
    0.000
  0
TEXT
  8
14
 7
SIMPLEX
 10
   244.056
 20
 -1382.983
 40
  162.704
  1
Line
 50
    0.000
  0
TEXT
  8
14
 7
SIMPLEX
 10
  1016.899
 20
 -1382.983
 40
  162.704
  1
Line
 50
    0.000
  0
TEXT
  8
14
 7
SIMPLEX
 10
  1944.311
 20
 -1382.983
 40
  162.704
  1
Qty
 50
    0.000
  0
TEXT
  8
14
 7
SIMPLEX
 10
  2562.586
 20
 -1382.983
 40
  162.704
  1
Dia
 50
    0.000
  0
TEXT
  8
14
 7
SIMPLEX
 10
  3489.997
 20
 -1382.983
 40
  162.704
  1
Width
 50
    0.000
  0
TEXT
  8
14
 7
SIMPLEX
 10
  4417.408
 20
 -1382.983
 40
  162.704
  1
Length
 50
    0.000
  0
TEXT
  8
14
 7
SIMPLEX
 10
  5499.388
 20
 -1382.983
 40
  162.704
  1
Thick
 50
    0.000
  0
TEXT
  8
14
 7
SIMPLEX
 10
  6581.367
 20
 -1382.983
 40
  162.704
  1
(mm)
 50
    0.000
  0
LINE
  8
14
 10
   244.056
 20
 -1545.687
 11
   894.871
 21
 -1545.687
  0
LINE
  8
14
 10
  1016.899
 20
 -1545.687
 11
  1830.418
 21
 -1545.687
  0
LINE
  8
14
 10
  1944.311
 20
 -1545.687
 11
  2432.422
 21
 -1545.687
  0
LINE
  8
14
 10
  2562.586
 20
 -1545.687
 11
  3376.105
 21
 -1545.687
  0
LINE
  8
14
 10
  3489.997
 20
 -1545.687
 11
  4303.517
 21
 -1545.687
  0
LINE
  8
14
 10
  4417.408
 20
 -1545.687
 11
  5393.631
 21
 -1545.687
  0
LINE
  8
14
 10
  5499.388
 20
 -1545.687
 11
  6312.907
 21
 -1545.687
  0
LINE
  8
14
 10
  6426.798
 20
 -1545.687
 11
  7240.318
 21
 -1545.687
  0
TEXT
  8
13
 7
SIMPLEX
 10
   244.056
 20
 -1952.446
 40
  162.704
  1
2*
 50
    0.000
  0
TEXT
  8
13
 7
SIMPLEX
 10
  1016.899
 20
 -1952.446
 40
  162.704
  1
D
 50
    0.000
  0
TEXT
  8
26
 7
SIMPLEX
 10
  2098.880
 20
 -1952.446
 40
  162.704
  1
4
 50
    0.000
  0
TEXT
  8
26
 7
SIMPLEX
 10
  2562.586
 20
 -1952.446
 40
  162.704
  1
   20
 50
    0.000
  0
TEXT
  8
26
 7
SIMPLEX
 10
  3489.997
 20
 -1952.446
 40
  162.704
  1
  200
 50
    0.000
  0
TEXT
  8
26
 7
SIMPLEX
 10
  4417.408
 20
 -1952.446
 40
  162.704
  1
  300
 50
    0.000
  0
TEXT
  8
26
 7
SIMPLEX
 10
  5499.388
 20
 -1952.446
 40
  162.704
  1
   16
 50
    0.000
  0
TEXT
  8
26
 7
SIMPLEX
 10
  6426.798
 20
 -1952.446
 40
  162.704
  1
  500
 50
    0.000
  0
TEXT
  8
13
 7
SIMPLEX
 10
   244.056
 20
 -2196.502
 40
  162.704
  1
2*
 50
    0.000
  0
TEXT
  8
13
 7
SIMPLEX
 10
  1016.899
 20
 -2196.502
 40
  162.704
  1
A
 50
    0.000
  0
TEXT
  8
26
 7
SIMPLEX
 10
  2098.880
 20
 -2196.502
 40
  162.704
  1
4
 50
    0.000
  0
TEXT
  8
26
 7
SIMPLEX
 10
  2562.586
 20
 -2196.502
 40
  162.704
  1
   20
 50
    0.000
  0
TEXT
  8
26
 7
SIMPLEX
 10
  3489.997
 20
 -2196.502
 40
  162.704
  1
  200
 50
    0.000
  0
TEXT
  8
26
 7
SIMPLEX
 10
  4417.408
 20
 -2196.502
 40
  162.704
  1
  300
 50
    0.000
  0
TEXT
  8
26
 7
SIMPLEX
 10
  5499.388
 20
 -2196.502
 40
  162.704
  1
   16
 50
    0.000
  0
TEXT
  8
26
 7
SIMPLEX
 10
  6426.798
 20
 -2196.502
 40
  162.704
  1
  500
 50
    0.000
  0
TEXT
  8
13
 7
SIMPLEX
 10
   244.056
 20
 -2928.670
 40
  162.704
  1
2*
 50
    0.000
  0
TEXT
  8
14
 7
SIMPLEX
 10
  1016.899
 20
 -2928.670
 40
  162.704
  1
Frame lines:
 50
    0.000
  0
TEXT
  8
13
 7
SIMPLEX
 10
  3335.429
 20
 -2928.670
 40
  162.704
  1
2
 50
    0.000
  0
TEXT
  8
13
 7
SIMPLEX
 10
  3799.135
 20
 -2928.670
 40
  162.704
  1
3
 50
    0.000
  0
TEXT
  8
13
 7
SIMPLEX
 10
  4262.840
 20
 -2928.670
 40
  162.704
  1
4
 50
    0.000
  0
LINE
  8
0
 10
 0.00     
 20
 -3254.077
 11
 16595.793
 21
 -3254.077
  0
LINE
  8
0
 10
 16595.793
 20
 -3254.077
 11
 16595.793
 21
 0.00     
  0
LINE
  8
0
 10
 16595.793
 20
 0.00     
 11
 0.00     
 21
 0.00     
  0
LINE
  8
0
 10
 0.00     
 20
 0.00     
 11
 0.00     
 21
 -3254.077
  0
ENDBLK
  8
0
  0
BLOCK
  8
1
  2
BRACET
 70
     0
 10
 0.00     
 20
 0.00     
  0
TEXT
  8
20
 7
SIMPLEX
 10
    81.352
 20
  -366.084
 40
  244.056
  1
BUILDING BRACING REACTIONS
 50
    0.000
  0
TEXT
  8
14
 7
SIMPLEX
 10
  3335.428
 20
  -854.195
 40
  162.704
  1
Reactions in plane of wall
 50
    0.000
  0
TEXT
  8
14
 7
SIMPLEX
 10
  3498.133
 20
 -1098.251
 40
  162.704
  1
Reactions(kN)
 50
    0.000
  0
TEXT
  8
14
 7
SIMPLEX
 10
  5938.693
 20
 -1098.251
 40
  162.704
  1
Panel_Shear
 50
    0.000
  0
LINE
  8
14
 10
    81.352
 20
 -1260.955
 11
   528.788
 21
 -1260.955
  0
TEXT
  8
14
 7
SIMPLEX
 10
   569.464
 20
 -1342.307
 40
  162.704
  1
Wall
 50
    0.000
  0
LINE
  8
14
 10
  1220.279
 20
 -1260.955
 11
  1545.686
 21
 -1260.955
  0
TEXT
  8
14
 7
SIMPLEX
 10
  1708.390
 20
 -1342.307
 40
  162.704
  1
Col
 50
    0.000
  0
TEXT
  8
14
 7
SIMPLEX
 10
  3335.428
 20
 -1342.307
 40
  162.704
  1
Wind
 50
    0.000
  0
TEXT
  8
14
 7
SIMPLEX
 10
  4637.061
 20
 -1342.307
 40
  162.704
  1
Seismic
 50
    0.000
  0
TEXT
  8
14
 7
SIMPLEX
 10
  6264.101
 20
 -1342.307
 40
  162.704
  1
( N/m )
 50
    0.000
  0
TEXT
  8
14
 7
SIMPLEX
 10
    81.352
 20
 -1586.363
 40
  162.704
  1
Loc
 50
    0.000
  0
TEXT
  8
14
 7
SIMPLEX
 10
   894.871
 20
 -1586.363
 40
  162.704
  1
Line
 50
    0.000
  0
TEXT
  8
14
 7
SIMPLEX
 10
  1708.390
 20
 -1586.363
 40
  162.704
  1
Line
 50
    0.000
  0
TEXT
  8
14
 7
SIMPLEX
 10
  3335.428
 20
 -1586.363
 40
  162.704
  1
Horz
 50
    0.000
  0
TEXT
  8
14
 7
SIMPLEX
 10
  4962.469
 20
 -1586.363
 40
  162.704
  1
Horz
 50
    0.000
  0
TEXT
  8
14
 7
SIMPLEX
 10
  5938.693
 20
 -1586.363
 40
  162.704
  1
Wind
 50
    0.000
  0
TEXT
  8
14
 7
SIMPLEX
 10
  6752.212
 20
 -1586.363
 40
  162.704
  1
Seis
 50
    0.000
  0
LINE
  8
14
 10
    81.352
 20
 -1749.067
 11
   732.167
 21
 -1749.067
  0
LINE
  8
14
 10
   894.871
 20
 -1749.067
 11
  1545.687
 21
 -1749.067
  0
LINE
  8
14
 10
  1708.390
 20
 -1749.067
 11
  2521.910
 21
 -1749.067
  0
LINE
  8
14
 10
  3335.428
 20
 -1749.067
 11
  3986.244
 21
 -1749.067
  0
LINE
  8
14
 10
  4962.469
 20
 -1749.067
 11
  5613.284
 21
 -1749.067
  0
LINE
  8
14
 10
  5938.693
 20
 -1749.067
 11
  6589.508
 21
 -1749.067
  0
LINE
  8
14
 10
  6752.212
 20
 -1749.067
 11
  7403.028
 21
 -1749.067
  0
TEXT
  8
13
 7
SIMPLEX
 10
    81.352
 20
 -2155.826
 40
  162.704
  1
L_EW
 50
    0.000
  0
TEXT
  8
13
 7
SIMPLEX
 10
  1057.575
 20
 -2155.826
 40
  162.704
  1
1
 50
    0.000
  0
TEXT
  8
26
 7
SIMPLEX
 10
  7728.437
 20
 -2155.826
 40
  162.704
  1
(h)
 50
    0.000
  0
TEXT
  8
13
 7
SIMPLEX
 10
    81.352
 20
 -2399.882
 40
  162.704
  1
F_SW
 50
    0.000
  0
TEXT
  8
13
 7
SIMPLEX
 10
  1057.575
 20
 -2399.882
 40
  162.704
  1
A
 50
    0.000
  0
TEXT
  8
13
 7
SIMPLEX
 10
  1708.390
 20
 -2399.882
 40
  162.704
  1
1,2
 50
    0.000
  0
TEXT
  8
26
 7
SIMPLEX
 10
  2684.613
 20
 -2399.882
 40
  162.704
  1
*
 50
    0.000
  0
TEXT
  8
26
 7
SIMPLEX
 10
  3335.428
 20
 -2399.882
 40
  162.704
  1
 11.8
 50
    0.000
  0
TEXT
  8
26
 7
SIMPLEX
 10
  4799.765
 20
 -2399.882
 40
  162.704
  1
  2.3
 50
    0.000
  0
TEXT
  8
13
 7
SIMPLEX
 10
  1708.390
 20
 -2643.938
 40
  162.704
  1
4,5
 50
    0.000
  0
TEXT
  8
26
 7
SIMPLEX
 10
  2684.613
 20
 -2643.938
 40
  162.704
  1
*
 50
    0.000
  0
TEXT
  8
26
 7
SIMPLEX
 10
  3335.428
 20
 -2643.938
 40
  162.704
  1
 11.8
 50
    0.000
  0
TEXT
  8
26
 7
SIMPLEX
 10
  4799.765
 20
 -2643.938
 40
  162.704
  1
  2.3
 50
    0.000
  0
TEXT
  8
13
 7
SIMPLEX
 10
    81.352
 20
 -2887.994
 40
  162.704
  1
R_EW
 50
    0.000
  0
TEXT
  8
13
 7
SIMPLEX
 10
  1057.575
 20
 -2887.994
 40
  162.704
  1
5
 50
    0.000
  0
TEXT
  8
26
 7
SIMPLEX
 10
  7728.437
 20
 -2887.994
 40
  162.704
  1
(h)
 50
    0.000
  0
TEXT
  8
13
 7
SIMPLEX
 10
    81.352
 20
 -3132.050
 40
  162.704
  1
B_SW
 50
    0.000
  0
TEXT
  8
13
 7
SIMPLEX
 10
  1057.575
 20
 -3132.050
 40
  162.704
  1
D
 50
    0.000
  0
TEXT
  8
13
 7
SIMPLEX
 10
  1708.390
 20
 -3132.050
 40
  162.704
  1
5,4
 50
    0.000
  0
TEXT
  8
26
 7
SIMPLEX
 10
  2684.613
 20
 -3132.050
 40
  162.704
  1
*
 50
    0.000
  0
TEXT
  8
26
 7
SIMPLEX
 10
  3335.428
 20
 -3132.050
 40
  162.704
  1
 11.8
 50
    0.000
  0
TEXT
  8
26
 7
SIMPLEX
 10
  4799.765
 20
 -3132.050
 40
  162.704
  1
  2.3
 50
    0.000
  0
TEXT
  8
13
 7
SIMPLEX
 10
  1708.390
 20
 -3376.105
 40
  162.704
  1
2,1
 50
    0.000
  0
TEXT
  8
26
 7
SIMPLEX
 10
  2684.613
 20
 -3376.105
 40
  162.704
  1
*
 50
    0.000
  0
TEXT
  8
26
 7
SIMPLEX
 10
  3335.428
 20
 -3376.105
 40
  162.704
  1
 11.8
 50
    0.000
  0
TEXT
  8
26
 7
SIMPLEX
 10
  4799.765
 20
 -3376.105
 40
  162.704
  1
  2.3
 50
    0.000
  0
TEXT
  8
14
 7
SIMPLEX
 10
  7565.732
 20
 -1586.363
 40
  162.704
  1
Note
 50
    0.000
  0
LINE
  8
14
 10
  7565.732
 20
 -1749.067
 11
  8216.548
 21
 -1749.067
  0
TEXT
  8
26
 7
SIMPLEX
 10
    81.352
 20
 -3864.216
 40
  162.704
  1
(h)Rigid frame at endwall
 50
    0.000
  0
TEXT
  8
26
 7
SIMPLEX
 10
    81.352
 20
 -4596.383
 40
  162.704
  1
*See RF reactions table for vertical and
 50
    0.000
  0
TEXT
  8
26
 7
SIMPLEX
 10
    81.352
 20
 -4840.439
 40
  162.704
  1
 horizontal reactions in plane of the rigid frame.
 50
    0.000
  0
TEXT
  8
1
 7
SIMPLEX
 10
    81.352
 20
 -5328.550
 40
  162.704
  1
Reactions for seismic represent shear force, Eh
 50
    0.000
  0
TEXT
  8
1
 7
SIMPLEX
 10
    81.352
 20
 -5572.606
 40
  162.704
  1
Reaction values shown are unfactored
 50
    0.000
  0
LINE
  8
0
 10
 0.00     
 20
 -5735.310
 11
  8297.896
 21
 -5735.310
  0
LINE
  8
0
 10
  8297.896
 20
 -5735.310
 11
  8297.896
 21
 0.00     
  0
LINE
  8
0
 10
  8297.896
 20
 0.00     
 11
 0.00     
 21
 0.00     
  0
LINE
  8
0
 10
 0.00     
 20
 0.00     
 11
 0.00     
 21
 -5735.310
  0
ENDBLK
  8
0
  0
BLOCK
  8
1
  2
RFBASE
 70
     0
 10
 0.00     
 20
 0.00     
  0
LINE
  8
1
 10
 16595.793
 20
 0.00     
 11
 0.00     
 21
 0.00     
  0
TEXT
  8
20
 7
SIMPLEX
 10
   162.704
 20
  -406.760
 40
  244.056
  1
RIGID FRAME:
 50
    0.000
  0
TEXT
  8
20
 7
SIMPLEX
 10
  3091.373
 20
  -406.760
 40
  162.704
  1
BASIC COLUMN REACTIONS (kN)
 50
    0.000
  0
TEXT
  8
14
 7
SIMPLEX
 10
   162.704
 20
  -813.519
 40
  162.704
  1
Frame
 50
    0.000
  0
TEXT
  8
14
 7
SIMPLEX
 10
   162.704
 20
 -1057.575
 40
  162.704
  1
Line
 50
    0.000
  0
TEXT
  8
14
 7
SIMPLEX
 10
  1138.927
 20
  -813.519
 40
  162.704
  1
Column
 50
    0.000
  0
TEXT
  8
14
 7
SIMPLEX
 10
  1138.927
 20
 -1057.575
 40
  162.704
  1
Line
 50
    0.000
  0
TEXT
  8
14
 7
SIMPLEX
 10
  2277.854
 20
  -813.519
 40
  162.704
  1
-----Dead----
 50
    0.000
  0
TEXT
  8
14
 7
SIMPLEX
 10
  2277.854
 20
 -1057.575
 40
  162.704
  1
Horz
 50
    0.000
  0
TEXT
  8
14
 7
SIMPLEX
 10
  3416.781
 20
 -1057.575
 40
  162.704
  1
Vert
 50
    0.000
  0
TEXT
  8
14
 7
SIMPLEX
 10
  4555.708
 20
  -813.519
 40
  162.704
  1
--Collateral-
 50
    0.000
  0
TEXT
  8
14
 7
SIMPLEX
 10
  4555.708
 20
 -1057.575
 40
  162.704
  1
Horz
 50
    0.000
  0
TEXT
  8
14
 7
SIMPLEX
 10
  5694.635
 20
 -1057.575
 40
  162.704
  1
Vert
 50
    0.000
  0
TEXT
  8
14
 7
SIMPLEX
 10
  6833.562
 20
  -813.519
 40
  162.704
  1
-----Live----
 50
    0.000
  0
TEXT
  8
14
 7
SIMPLEX
 10
  6833.562
 20
 -1057.575
 40
  162.704
  1
Horz
 50
    0.000
  0
TEXT
  8
14
 7
SIMPLEX
 10
  7972.488
 20
 -1057.575
 40
  162.704
  1
Vert
 50
    0.000
  0
TEXT
  8
14
 7
SIMPLEX
 10
  9111.416
 20
  -813.519
 40
  162.704
  1
--Wind_Left1-
 50
    0.000
  0
TEXT
  8
14
 7
SIMPLEX
 10
  9111.416
 20
 -1057.575
 40
  162.704
  1
Horz
 50
    0.000
  0
TEXT
  8
14
 7
SIMPLEX
 10
 10250.343
 20
 -1057.575
 40
  162.704
  1
Vert
 50
    0.000
  0
TEXT
  8
14
 7
SIMPLEX
 10
 11389.270
 20
  -813.519
 40
  162.704
  1
-Wind_Right1-
 50
    0.000
  0
TEXT
  8
14
 7
SIMPLEX
 10
 11389.270
 20
 -1057.575
 40
  162.704
  1
Horz
 50
    0.000
  0
TEXT
  8
14
 7
SIMPLEX
 10
 12528.196
 20
 -1057.575
 40
  162.704
  1
Vert
 50
    0.000
  0
TEXT
  8
14
 7
SIMPLEX
 10
 13667.124
 20
  -813.519
 40
  162.704
  1
--Wind_Left2-
 50
    0.000
  0
TEXT
  8
14
 7
SIMPLEX
 10
 13667.124
 20
 -1057.575
 40
  162.704
  1
Horz
 50
    0.000
  0
TEXT
  8
14
 7
SIMPLEX
 10
 14806.051
 20
 -1057.575
 40
  162.704
  1
Vert
 50
    0.000
  0
TEXT
  8
13
 7
SIMPLEX
 10
   162.704
 20
 -1301.631
 40
  162.704
  1
1*
 50
    0.000
  0
TEXT
  8
13
 7
SIMPLEX
 10
  1138.927
 20
 -1301.631
 40
  162.704
  1
D
 50
    0.000
  0
TEXT
  8
26
 7
SIMPLEX
 10
  1952.446
 20
 -1301.631
 40
  162.704
  1
    3.0
 50
    0.000
  0
TEXT
  8
26
 7
SIMPLEX
 10
  3091.373
 20
 -1301.631
 40
  162.704
  1
    8.0
 50
    0.000
  0
TEXT
  8
26
 7
SIMPLEX
 10
  4230.300
 20
 -1301.631
 40
  162.704
  1
    0.8
 50
    0.000
  0
TEXT
  8
26
 7
SIMPLEX
 10
  5369.227
 20
 -1301.631
 40
  162.704
  1
    1.7
 50
    0.000
  0
TEXT
  8
26
 7
SIMPLEX
 10
  6508.155
 20
 -1301.631
 40
  162.704
  1
    9.0
 50
    0.000
  0
TEXT
  8
26
 7
SIMPLEX
 10
  7647.082
 20
 -1301.631
 40
  162.704
  1
   18.3
 50
    0.000
  0
TEXT
  8
26
 7
SIMPLEX
 10
  8786.010
 20
 -1301.631
 40
  162.704
  1
  -13.1
 50
    0.000
  0
TEXT
  8
26
 7
SIMPLEX
 10
  9924.937
 20
 -1301.631
 40
  162.704
  1
  -18.9
 50
    0.000
  0
TEXT
  8
26
 7
SIMPLEX
 10
 11063.864
 20
 -1301.631
 40
  162.704
  1
   -0.4
 50
    0.000
  0
TEXT
  8
26
 7
SIMPLEX
 10
 12202.791
 20
 -1301.631
 40
  162.704
  1
  -12.2
 50
    0.000
  0
TEXT
  8
26
 7
SIMPLEX
 10
 13341.719
 20
 -1301.631
 40
  162.704
  1
  -12.8
 50
    0.000
  0
TEXT
  8
26
 7
SIMPLEX
 10
 14480.646
 20
 -1301.631
 40
  162.704
  1
  -13.5
 50
    0.000
  0
TEXT
  8
13
 7
SIMPLEX
 10
   162.704
 20
 -1545.687
 40
  162.704
  1
1*
 50
    0.000
  0
TEXT
  8
13
 7
SIMPLEX
 10
  1138.927
 20
 -1545.687
 40
  162.704
  1
A
 50
    0.000
  0
TEXT
  8
26
 7
SIMPLEX
 10
  1952.446
 20
 -1545.687
 40
  162.704
  1
   -3.0
 50
    0.000
  0
TEXT
  8
26
 7
SIMPLEX
 10
  3091.373
 20
 -1545.687
 40
  162.704
  1
    8.0
 50
    0.000
  0
TEXT
  8
26
 7
SIMPLEX
 10
  4230.300
 20
 -1545.687
 40
  162.704
  1
   -0.8
 50
    0.000
  0
TEXT
  8
26
 7
SIMPLEX
 10
  5369.227
 20
 -1545.687
 40
  162.704
  1
    1.7
 50
    0.000
  0
TEXT
  8
26
 7
SIMPLEX
 10
  6508.155
 20
 -1545.687
 40
  162.704
  1
   -9.0
 50
    0.000
  0
TEXT
  8
26
 7
SIMPLEX
 10
  7647.082
 20
 -1545.687
 40
  162.704
  1
   18.3
 50
    0.000
  0
TEXT
  8
26
 7
SIMPLEX
 10
  8786.010
 20
 -1545.687
 40
  162.704
  1
    0.4
 50
    0.000
  0
TEXT
  8
26
 7
SIMPLEX
 10
  9924.937
 20
 -1545.687
 40
  162.704
  1
  -12.2
 50
    0.000
  0
TEXT
  8
26
 7
SIMPLEX
 10
 11063.864
 20
 -1545.687
 40
  162.704
  1
   13.1
 50
    0.000
  0
TEXT
  8
26
 7
SIMPLEX
 10
 12202.791
 20
 -1545.687
 40
  162.704
  1
  -18.9
 50
    0.000
  0
TEXT
  8
26
 7
SIMPLEX
 10
 13341.719
 20
 -1545.687
 40
  162.704
  1
    0.1
 50
    0.000
  0
TEXT
  8
26
 7
SIMPLEX
 10
 14480.646
 20
 -1545.687
 40
  162.704
  1
   -6.7
 50
    0.000
  0
TEXT
  8
14
 7
SIMPLEX
 10
   162.704
 20
 -2033.798
 40
  162.704
  1
Frame
 50
    0.000
  0
TEXT
  8
14
 7
SIMPLEX
 10
   162.704
 20
 -2277.854
 40
  162.704
  1
Line
 50
    0.000
  0
TEXT
  8
14
 7
SIMPLEX
 10
  1138.927
 20
 -2033.798
 40
  162.704
  1
Column
 50
    0.000
  0
TEXT
  8
14
 7
SIMPLEX
 10
  1138.927
 20
 -2277.854
 40
  162.704
  1
Line
 50
    0.000
  0
TEXT
  8
14
 7
SIMPLEX
 10
  2277.854
 20
 -2033.798
 40
  162.704
  1
-Wind_Right2-
 50
    0.000
  0
TEXT
  8
14
 7
SIMPLEX
 10
  2277.854
 20
 -2277.854
 40
  162.704
  1
Horz
 50
    0.000
  0
TEXT
  8
14
 7
SIMPLEX
 10
  3416.781
 20
 -2277.854
 40
  162.704
  1
Vert
 50
    0.000
  0
TEXT
  8
14
 7
SIMPLEX
 10
  4555.708
 20
 -2033.798
 40
  162.704
  1
--Wind_Long1-
 50
    0.000
  0
TEXT
  8
14
 7
SIMPLEX
 10
  4555.708
 20
 -2277.854
 40
  162.704
  1
Horz
 50
    0.000
  0
TEXT
  8
14
 7
SIMPLEX
 10
  5694.635
 20
 -2277.854
 40
  162.704
  1
Vert
 50
    0.000
  0
TEXT
  8
14
 7
SIMPLEX
 10
  6833.562
 20
 -2033.798
 40
  162.704
  1
--Wind_Long2-
 50
    0.000
  0
TEXT
  8
14
 7
SIMPLEX
 10
  6833.562
 20
 -2277.854
 40
  162.704
  1
Horz
 50
    0.000
  0
TEXT
  8
14
 7
SIMPLEX
 10
  7972.488
 20
 -2277.854
 40
  162.704
  1
Vert
 50
    0.000
  0
TEXT
  8
14
 7
SIMPLEX
 10
  9111.416
 20
 -2033.798
 40
  162.704
  1
-Seismic_Left
 50
    0.000
  0
TEXT
  8
14
 7
SIMPLEX
 10
  9111.416
 20
 -2277.854
 40
  162.704
  1
Horz
 50
    0.000
  0
TEXT
  8
14
 7
SIMPLEX
 10
 10250.343
 20
 -2277.854
 40
  162.704
  1
Vert
 50
    0.000
  0
TEXT
  8
14
 7
SIMPLEX
 10
 11389.270
 20
 -2033.798
 40
  162.704
  1
Seismic_Right
 50
    0.000
  0
TEXT
  8
14
 7
SIMPLEX
 10
 11389.270
 20
 -2277.854
 40
  162.704
  1
Horz
 50
    0.000
  0
TEXT
  8
14
 7
SIMPLEX
 10
 12528.196
 20
 -2277.854
 40
  162.704
  1
Vert
 50
    0.000
  0
TEXT
  8
14
 7
SIMPLEX
 10
 13667.124
 20
 -2033.798
 40
  162.704
  1
Seismic_Long1
 50
    0.000
  0
TEXT
  8
14
 7
SIMPLEX
 10
 13667.124
 20
 -2277.854
 40
  162.704
  1
Horz
 50
    0.000
  0
TEXT
  8
14
 7
SIMPLEX
 10
 14806.051
 20
 -2277.854
 40
  162.704
  1
Vert
 50
    0.000
  0
TEXT
  8
13
 7
SIMPLEX
 10
   162.704
 20
 -2521.910
 40
  162.704
  1
1*
 50
    0.000
  0
TEXT
  8
13
 7
SIMPLEX
 10
  1138.927
 20
 -2521.910
 40
  162.704
  1
D
 50
    0.000
  0
TEXT
  8
26
 7
SIMPLEX
 10
  1952.446
 20
 -2521.910
 40
  162.704
  1
   -0.1
 50
    0.000
  0
TEXT
  8
26
 7
SIMPLEX
 10
  3091.373
 20
 -2521.910
 40
  162.704
  1
   -6.7
 50
    0.000
  0
TEXT
  8
26
 7
SIMPLEX
 10
  4230.300
 20
 -2521.910
 40
  162.704
  1
   -3.0
 50
    0.000
  0
TEXT
  8
26
 7
SIMPLEX
 10
  5369.227
 20
 -2521.910
 40
  162.704
  1
  -27.8
 50
    0.000
  0
TEXT
  8
26
 7
SIMPLEX
 10
  6508.155
 20
 -2521.910
 40
  162.704
  1
   -2.3
 50
    0.000
  0
TEXT
  8
26
 7
SIMPLEX
 10
  7647.082
 20
 -2521.910
 40
  162.704
  1
  -22.3
 50
    0.000
  0
TEXT
  8
26
 7
SIMPLEX
 10
  8786.010
 20
 -2521.910
 40
  162.704
  1
   -0.9
 50
    0.000
  0
TEXT
  8
26
 7
SIMPLEX
 10
  9924.937
 20
 -2521.910
 40
  162.704
  1
   -0.5
 50
    0.000
  0
TEXT
  8
26
 7
SIMPLEX
 10
 11063.864
 20
 -2521.910
 40
  162.704
  1
    0.9
 50
    0.000
  0
TEXT
  8
26
 7
SIMPLEX
 10
 12202.791
 20
 -2521.910
 40
  162.704
  1
    0.5
 50
    0.000
  0
TEXT
  8
26
 7
SIMPLEX
 10
 13341.719
 20
 -2521.910
 40
  162.704
  1
    0.0
 50
    0.000
  0
TEXT
  8
26
 7
SIMPLEX
 10
 14480.646
 20
 -2521.910
 40
  162.704
  1
   -2.0
 50
    0.000
  0
TEXT
  8
13
 7
SIMPLEX
 10
   162.704
 20
 -2765.966
 40
  162.704
  1
1*
 50
    0.000
  0
TEXT
  8
13
 7
SIMPLEX
 10
  1138.927
 20
 -2765.966
 40
  162.704
  1
A
 50
    0.000
  0
TEXT
  8
26
 7
SIMPLEX
 10
  1952.446
 20
 -2765.966
 40
  162.704
  1
   12.8
 50
    0.000
  0
TEXT
  8
26
 7
SIMPLEX
 10
  3091.373
 20
 -2765.966
 40
  162.704
  1
  -13.5
 50
    0.000
  0
TEXT
  8
26
 7
SIMPLEX
 10
  4230.300
 20
 -2765.966
 40
  162.704
  1
    3.0
 50
    0.000
  0
TEXT
  8
26
 7
SIMPLEX
 10
  5369.227
 20
 -2765.966
 40
  162.704
  1
  -27.8
 50
    0.000
  0
TEXT
  8
26
 7
SIMPLEX
 10
  6508.155
 20
 -2765.966
 40
  162.704
  1
    2.3
 50
    0.000
  0
TEXT
  8
26
 7
SIMPLEX
 10
  7647.082
 20
 -2765.966
 40
  162.704
  1
  -22.3
 50
    0.000
  0
TEXT
  8
26
 7
SIMPLEX
 10
  8786.010
 20
 -2765.966
 40
  162.704
  1
   -0.8
 50
    0.000
  0
TEXT
  8
26
 7
SIMPLEX
 10
  9924.937
 20
 -2765.966
 40
  162.704
  1
    0.5
 50
    0.000
  0
TEXT
  8
26
 7
SIMPLEX
 10
 11063.864
 20
 -2765.966
 40
  162.704
  1
    0.8
 50
    0.000
  0
TEXT
  8
26
 7
SIMPLEX
 10
 12202.791
 20
 -2765.966
 40
  162.704
  1
   -0.5
 50
    0.000
  0
TEXT
  8
26
 7
SIMPLEX
 10
 13341.719
 20
 -2765.966
 40
  162.704
  1
    0.0
 50
    0.000
  0
TEXT
  8
26
 7
SIMPLEX
 10
 14480.646
 20
 -2765.966
 40
  162.704
  1
   -2.0
 50
    0.000
  0
TEXT
  8
14
 7
SIMPLEX
 10
   162.704
 20
 -3254.077
 40
  162.704
  1
Frame
 50
    0.000
  0
TEXT
  8
14
 7
SIMPLEX
 10
   162.704
 20
 -3498.133
 40
  162.704
  1
Line
 50
    0.000
  0
TEXT
  8
14
 7
SIMPLEX
 10
  1138.927
 20
 -3254.077
 40
  162.704
  1
Column
 50
    0.000
  0
TEXT
  8
14
 7
SIMPLEX
 10
  1138.927
 20
 -3498.133
 40
  162.704
  1
Line
 50
    0.000
  0
TEXT
  8
14
 7
SIMPLEX
 10
  2277.854
 20
 -3254.077
 40
  162.704
  1
Seismic_Long2
 50
    0.000
  0
TEXT
  8
14
 7
SIMPLEX
 10
  2277.854
 20
 -3498.133
 40
  162.704
  1
Horz
 50
    0.000
  0
TEXT
  8
14
 7
SIMPLEX
 10
  3416.781
 20
 -3498.133
 40
  162.704
  1
Vert
 50
    0.000
  0
TEXT
  8
14
 7
SIMPLEX
 10
  4555.708
 20
 -3254.077
 40
  162.704
  1
LWIND1_L2E-
 50
    0.000
  0
TEXT
  8
14
 7
SIMPLEX
 10
  4555.708
 20
 -3498.133
 40
  162.704
  1
Horz
 50
    0.000
  0
TEXT
  8
14
 7
SIMPLEX
 10
  5694.635
 20
 -3498.133
 40
  162.704
  1
Vert
 50
    0.000
  0
TEXT
  8
14
 7
SIMPLEX
 10
  6833.562
 20
 -3254.077
 40
  162.704
  1
LWIND1_R2E-
 50
    0.000
  0
TEXT
  8
14
 7
SIMPLEX
 10
  6833.562
 20
 -3498.133
 40
  162.704
  1
Horz
 50
    0.000
  0
TEXT
  8
14
 7
SIMPLEX
 10
  7972.488
 20
 -3498.133
 40
  162.704
  1
Vert
 50
    0.000
  0
TEXT
  8
14
 7
SIMPLEX
 10
  9111.416
 20
 -3254.077
 40
  162.704
  1
LWIND2_L2E-
 50
    0.000
  0
TEXT
  8
14
 7
SIMPLEX
 10
  9111.416
 20
 -3498.133
 40
  162.704
  1
Horz
 50
    0.000
  0
TEXT
  8
14
 7
SIMPLEX
 10
 10250.343
 20
 -3498.133
 40
  162.704
  1
Vert
 50
    0.000
  0
TEXT
  8
14
 7
SIMPLEX
 10
 11389.270
 20
 -3254.077
 40
  162.704
  1
LWIND2_R2E-
 50
    0.000
  0
TEXT
  8
14
 7
SIMPLEX
 10
 11389.270
 20
 -3498.133
 40
  162.704
  1
Horz
 50
    0.000
  0
TEXT
  8
14
 7
SIMPLEX
 10
 12528.196
 20
 -3498.133
 40
  162.704
  1
Vert
 50
    0.000
  0
TEXT
  8
13
 7
SIMPLEX
 10
   162.704
 20
 -3742.189
 40
  162.704
  1
1*
 50
    0.000
  0
TEXT
  8
13
 7
SIMPLEX
 10
  1138.927
 20
 -3742.189
 40
  162.704
  1
D
 50
    0.000
  0
TEXT
  8
26
 7
SIMPLEX
 10
  1952.446
 20
 -3742.189
 40
  162.704
  1
    0.0
 50
    0.000
  0
TEXT
  8
26
 7
SIMPLEX
 10
  3091.373
 20
 -3742.189
 40
  162.704
  1
    2.0
 50
    0.000
  0
TEXT
  8
26
 7
SIMPLEX
 10
  4230.300
 20
 -3742.189
 40
  162.704
  1
    0.1
 50
    0.000
  0
TEXT
  8
26
 7
SIMPLEX
 10
  5369.227
 20
 -3742.189
 40
  162.704
  1
   -1.7
 50
    0.000
  0
TEXT
  8
26
 7
SIMPLEX
 10
  6508.155
 20
 -3742.189
 40
  162.704
  1
   -0.4
 50
    0.000
  0
TEXT
  8
26
 7
SIMPLEX
 10
  7647.082
 20
 -3742.189
 40
  162.704
  1
   -0.3
 50
    0.000
  0
TEXT
  8
26
 7
SIMPLEX
 10
  8786.010
 20
 -3742.189
 40
  162.704
  1
    0.1
 50
    0.000
  0
TEXT
  8
26
 7
SIMPLEX
 10
  9924.937
 20
 -3742.189
 40
  162.704
  1
   -1.7
 50
    0.000
  0
TEXT
  8
26
 7
SIMPLEX
 10
 11063.864
 20
 -3742.189
 40
  162.704
  1
   -0.4
 50
    0.000
  0
TEXT
  8
26
 7
SIMPLEX
 10
 12202.791
 20
 -3742.189
 40
  162.704
  1
   -0.3
 50
    0.000
  0
TEXT
  8
13
 7
SIMPLEX
 10
   162.704
 20
 -3986.245
 40
  162.704
  1
1*
 50
    0.000
  0
TEXT
  8
13
 7
SIMPLEX
 10
  1138.927
 20
 -3986.245
 40
  162.704
  1
A
 50
    0.000
  0
TEXT
  8
26
 7
SIMPLEX
 10
  1952.446
 20
 -3986.245
 40
  162.704
  1
    0.0
 50
    0.000
  0
TEXT
  8
26
 7
SIMPLEX
 10
  3091.373
 20
 -3986.245
 40
  162.704
  1
    2.0
 50
    0.000
  0
TEXT
  8
26
 7
SIMPLEX
 10
  4230.300
 20
 -3986.245
 40
  162.704
  1
    0.4
 50
    0.000
  0
TEXT
  8
26
 7
SIMPLEX
 10
  5369.227
 20
 -3986.245
 40
  162.704
  1
   -0.3
 50
    0.000
  0
TEXT
  8
26
 7
SIMPLEX
 10
  6508.155
 20
 -3986.245
 40
  162.704
  1
   -0.1
 50
    0.000
  0
TEXT
  8
26
 7
SIMPLEX
 10
  7647.082
 20
 -3986.245
 40
  162.704
  1
   -1.7
 50
    0.000
  0
TEXT
  8
26
 7
SIMPLEX
 10
  8786.010
 20
 -3986.245
 40
  162.704
  1
    0.4
 50
    0.000
  0
TEXT
  8
26
 7
SIMPLEX
 10
  9924.937
 20
 -3986.245
 40
  162.704
  1
   -0.3
 50
    0.000
  0
TEXT
  8
26
 7
SIMPLEX
 10
 11063.864
 20
 -3986.245
 40
  162.704
  1
   -0.1
 50
    0.000
  0
TEXT
  8
26
 7
SIMPLEX
 10
 12202.791
 20
 -3986.245
 40
  162.704
  1
   -1.7
 50
    0.000
  0
TEXT
  8
14
 7
SIMPLEX
 10
   162.704
 20
 -4474.356
 40
  162.704
  1
Frame
 50
    0.000
  0
TEXT
  8
14
 7
SIMPLEX
 10
   162.704
 20
 -4718.412
 40
  162.704
  1
Line
 50
    0.000
  0
TEXT
  8
14
 7
SIMPLEX
 10
  1138.927
 20
 -4474.356
 40
  162.704
  1
Column
 50
    0.000
  0
TEXT
  8
14
 7
SIMPLEX
 10
  1138.927
 20
 -4718.412
 40
  162.704
  1
Line
 50
    0.000
  0
TEXT
  8
14
 7
SIMPLEX
 10
  2277.854
 20
 -4474.356
 40
  162.704
  1
-----Dead----
 50
    0.000
  0
TEXT
  8
14
 7
SIMPLEX
 10
  2277.854
 20
 -4718.412
 40
  162.704
  1
Horz
 50
    0.000
  0
TEXT
  8
14
 7
SIMPLEX
 10
  3416.781
 20
 -4718.412
 40
  162.704
  1
Vert
 50
    0.000
  0
TEXT
  8
14
 7
SIMPLEX
 10
  4555.708
 20
 -4474.356
 40
  162.704
  1
--Collateral-
 50
    0.000
  0
TEXT
  8
14
 7
SIMPLEX
 10
  4555.708
 20
 -4718.412
 40
  162.704
  1
Horz
 50
    0.000
  0
TEXT
  8
14
 7
SIMPLEX
 10
  5694.635
 20
 -4718.412
 40
  162.704
  1
Vert
 50
    0.000
  0
TEXT
  8
14
 7
SIMPLEX
 10
  6833.562
 20
 -4474.356
 40
  162.704
  1
-----Live----
 50
    0.000
  0
TEXT
  8
14
 7
SIMPLEX
 10
  6833.562
 20
 -4718.412
 40
  162.704
  1
Horz
 50
    0.000
  0
TEXT
  8
14
 7
SIMPLEX
 10
  7972.488
 20
 -4718.412
 40
  162.704
  1
Vert
 50
    0.000
  0
TEXT
  8
14
 7
SIMPLEX
 10
  9111.416
 20
 -4474.356
 40
  162.704
  1
--Wind_Left1-
 50
    0.000
  0
TEXT
  8
14
 7
SIMPLEX
 10
  9111.416
 20
 -4718.412
 40
  162.704
  1
Horz
 50
    0.000
  0
TEXT
  8
14
 7
SIMPLEX
 10
 10250.343
 20
 -4718.412
 40
  162.704
  1
Vert
 50
    0.000
  0
TEXT
  8
14
 7
SIMPLEX
 10
 11389.270
 20
 -4474.356
 40
  162.704
  1
-Wind_Right1-
 50
    0.000
  0
TEXT
  8
14
 7
SIMPLEX
 10
 11389.270
 20
 -4718.412
 40
  162.704
  1
Horz
 50
    0.000
  0
TEXT
  8
14
 7
SIMPLEX
 10
 12528.196
 20
 -4718.412
 40
  162.704
  1
Vert
 50
    0.000
  0
TEXT
  8
14
 7
SIMPLEX
 10
 13667.124
 20
 -4474.356
 40
  162.704
  1
--Wind_Left2-
 50
    0.000
  0
TEXT
  8
14
 7
SIMPLEX
 10
 13667.124
 20
 -4718.412
 40
  162.704
  1
Horz
 50
    0.000
  0
TEXT
  8
14
 7
SIMPLEX
 10
 14806.051
 20
 -4718.412
 40
  162.704
  1
Vert
 50
    0.000
  0
TEXT
  8
13
 7
SIMPLEX
 10
   162.704
 20
 -4962.468
 40
  162.704
  1
2*
 50
    0.000
  0
TEXT
  8
13
 7
SIMPLEX
 10
  1138.927
 20
 -4962.468
 40
  162.704
  1
D
 50
    0.000
  0
TEXT
  8
26
 7
SIMPLEX
 10
  1952.446
 20
 -4962.468
 40
  162.704
  1
    4.2
 50
    0.000
  0
TEXT
  8
26
 7
SIMPLEX
 10
  3091.373
 20
 -4962.468
 40
  162.704
  1
   10.5
 50
    0.000
  0
TEXT
  8
26
 7
SIMPLEX
 10
  4230.300
 20
 -4962.468
 40
  162.704
  1
    1.4
 50
    0.000
  0
TEXT
  8
26
 7
SIMPLEX
 10
  5369.227
 20
 -4962.468
 40
  162.704
  1
    2.9
 50
    0.000
  0
TEXT
  8
26
 7
SIMPLEX
 10
  6508.155
 20
 -4962.468
 40
  162.704
  1
   15.8
 50
    0.000
  0
TEXT
  8
26
 7
SIMPLEX
 10
  7647.082
 20
 -4962.468
 40
  162.704
  1
   32.2
 50
    0.000
  0
TEXT
  8
26
 7
SIMPLEX
 10
  8786.010
 20
 -4962.468
 40
  162.704
  1
  -18.6
 50
    0.000
  0
TEXT
  8
26
 7
SIMPLEX
 10
  9924.937
 20
 -4962.468
 40
  162.704
  1
  -24.8
 50
    0.000
  0
TEXT
  8
26
 7
SIMPLEX
 10
 11063.864
 20
 -4962.468
 40
  162.704
  1
    3.9
 50
    0.000
  0
TEXT
  8
26
 7
SIMPLEX
 10
 12202.791
 20
 -4962.468
 40
  162.704
  1
  -15.0
 50
    0.000
  0
TEXT
  8
26
 7
SIMPLEX
 10
 13341.719
 20
 -4962.468
 40
  162.704
  1
  -19.9
 50
    0.000
  0
TEXT
  8
26
 7
SIMPLEX
 10
 14480.646
 20
 -4962.468
 40
  162.704
  1
  -15.1
 50
    0.000
  0
TEXT
  8
13
 7
SIMPLEX
 10
   162.704
 20
 -5206.523
 40
  162.704
  1
2*
 50
    0.000
  0
TEXT
  8
13
 7
SIMPLEX
 10
  1138.927
 20
 -5206.523
 40
  162.704
  1
A
 50
    0.000
  0
TEXT
  8
26
 7
SIMPLEX
 10
  1952.446
 20
 -5206.523
 40
  162.704
  1
   -4.2
 50
    0.000
  0
TEXT
  8
26
 7
SIMPLEX
 10
  3091.373
 20
 -5206.523
 40
  162.704
  1
   10.5
 50
    0.000
  0
TEXT
  8
26
 7
SIMPLEX
 10
  4230.300
 20
 -5206.523
 40
  162.704
  1
   -1.4
 50
    0.000
  0
TEXT
  8
26
 7
SIMPLEX
 10
  5369.227
 20
 -5206.523
 40
  162.704
  1
    2.9
 50
    0.000
  0
TEXT
  8
26
 7
SIMPLEX
 10
  6508.155
 20
 -5206.523
 40
  162.704
  1
  -15.8
 50
    0.000
  0
TEXT
  8
26
 7
SIMPLEX
 10
  7647.082
 20
 -5206.523
 40
  162.704
  1
   32.2
 50
    0.000
  0
TEXT
  8
26
 7
SIMPLEX
 10
  8786.010
 20
 -5206.523
 40
  162.704
  1
   -3.9
 50
    0.000
  0
TEXT
  8
26
 7
SIMPLEX
 10
  9924.937
 20
 -5206.523
 40
  162.704
  1
  -15.0
 50
    0.000
  0
TEXT
  8
26
 7
SIMPLEX
 10
 11063.864
 20
 -5206.523
 40
  162.704
  1
   18.6
 50
    0.000
  0
TEXT
  8
26
 7
SIMPLEX
 10
 12202.791
 20
 -5206.523
 40
  162.704
  1
  -24.8
 50
    0.000
  0
TEXT
  8
26
 7
SIMPLEX
 10
 13341.719
 20
 -5206.523
 40
  162.704
  1
   -2.7
 50
    0.000
  0
TEXT
  8
26
 7
SIMPLEX
 10
 14480.646
 20
 -5206.523
 40
  162.704
  1
   -5.4
 50
    0.000
  0
TEXT
  8
14
 7
SIMPLEX
 10
   162.704
 20
 -5694.634
 40
  162.704
  1
Frame
 50
    0.000
  0
TEXT
  8
14
 7
SIMPLEX
 10
   162.704
 20
 -5938.690
 40
  162.704
  1
Line
 50
    0.000
  0
TEXT
  8
14
 7
SIMPLEX
 10
  1138.927
 20
 -5694.634
 40
  162.704
  1
Column
 50
    0.000
  0
TEXT
  8
14
 7
SIMPLEX
 10
  1138.927
 20
 -5938.690
 40
  162.704
  1
Line
 50
    0.000
  0
TEXT
  8
14
 7
SIMPLEX
 10
  2277.854
 20
 -5694.634
 40
  162.704
  1
-Wind_Right2-
 50
    0.000
  0
TEXT
  8
14
 7
SIMPLEX
 10
  2277.854
 20
 -5938.690
 40
  162.704
  1
Horz
 50
    0.000
  0
TEXT
  8
14
 7
SIMPLEX
 10
  3416.781
 20
 -5938.690
 40
  162.704
  1
Vert
 50
    0.000
  0
TEXT
  8
14
 7
SIMPLEX
 10
  4555.708
 20
 -5694.634
 40
  162.704
  1
--Wind_Long1-
 50
    0.000
  0
TEXT
  8
14
 7
SIMPLEX
 10
  4555.708
 20
 -5938.690
 40
  162.704
  1
Horz
 50
    0.000
  0
TEXT
  8
14
 7
SIMPLEX
 10
  5694.635
 20
 -5938.690
 40
  162.704
  1
Vert
 50
    0.000
  0
TEXT
  8
14
 7
SIMPLEX
 10
  6833.562
 20
 -5694.634
 40
  162.704
  1
--Wind_Long2-
 50
    0.000
  0
TEXT
  8
14
 7
SIMPLEX
 10
  6833.562
 20
 -5938.690
 40
  162.704
  1
Horz
 50
    0.000
  0
TEXT
  8
14
 7
SIMPLEX
 10
  7972.488
 20
 -5938.690
 40
  162.704
  1
Vert
 50
    0.000
  0
TEXT
  8
14
 7
SIMPLEX
 10
  9111.416
 20
 -5694.634
 40
  162.704
  1
-Seismic_Left
 50
    0.000
  0
TEXT
  8
14
 7
SIMPLEX
 10
  9111.416
 20
 -5938.690
 40
  162.704
  1
Horz
 50
    0.000
  0
TEXT
  8
14
 7
SIMPLEX
 10
 10250.343
 20
 -5938.690
 40
  162.704
  1
Vert
 50
    0.000
  0
TEXT
  8
14
 7
SIMPLEX
 10
 11389.270
 20
 -5694.634
 40
  162.704
  1
Seismic_Right
 50
    0.000
  0
TEXT
  8
14
 7
SIMPLEX
 10
 11389.270
 20
 -5938.690
 40
  162.704
  1
Horz
 50
    0.000
  0
TEXT
  8
14
 7
SIMPLEX
 10
 12528.196
 20
 -5938.690
 40
  162.704
  1
Vert
 50
    0.000
  0
TEXT
  8
14
 7
SIMPLEX
 10
 13667.124
 20
 -5694.634
 40
  162.704
  1
Seismic_Long1
 50
    0.000
  0
TEXT
  8
14
 7
SIMPLEX
 10
 13667.124
 20
 -5938.690
 40
  162.704
  1
Horz
 50
    0.000
  0
TEXT
  8
14
 7
SIMPLEX
 10
 14806.051
 20
 -5938.690
 40
  162.704
  1
Vert
 50
    0.000
  0
TEXT
  8
13
 7
SIMPLEX
 10
   162.704
 20
 -6182.746
 40
  162.704
  1
2*
 50
    0.000
  0
TEXT
  8
13
 7
SIMPLEX
 10
  1138.927
 20
 -6182.746
 40
  162.704
  1
D
 50
    0.000
  0
TEXT
  8
26
 7
SIMPLEX
 10
  1952.446
 20
 -6182.746
 40
  162.704
  1
    2.7
 50
    0.000
  0
TEXT
  8
26
 7
SIMPLEX
 10
  3091.373
 20
 -6182.746
 40
  162.704
  1
   -5.4
 50
    0.000
  0
TEXT
  8
26
 7
SIMPLEX
 10
  4230.300
 20
 -6182.746
 40
  162.704
  1
   -5.3
 50
    0.000
  0
TEXT
  8
26
 7
SIMPLEX
 10
  5369.227
 20
 -6182.746
 40
  162.704
  1
  -37.9
 50
    0.000
  0
TEXT
  8
26
 7
SIMPLEX
 10
  6508.155
 20
 -6182.746
 40
  162.704
  1
   -4.0
 50
    0.000
  0
TEXT
  8
26
 7
SIMPLEX
 10
  7647.082
 20
 -6182.746
 40
  162.704
  1
  -28.2
 50
    0.000
  0
TEXT
  8
26
 7
SIMPLEX
 10
  8786.010
 20
 -6182.746
 40
  162.704
  1
   -1.0
 50
    0.000
  0
TEXT
  8
26
 7
SIMPLEX
 10
  9924.937
 20
 -6182.746
 40
  162.704
  1
   -0.6
 50
    0.000
  0
TEXT
  8
26
 7
SIMPLEX
 10
 11063.864
 20
 -6182.746
 40
  162.704
  1
    1.0
 50
    0.000
  0
TEXT
  8
26
 7
SIMPLEX
 10
 12202.791
 20
 -6182.746
 40
  162.704
  1
    0.6
 50
    0.000
  0
TEXT
  8
26
 7
SIMPLEX
 10
 13341.719
 20
 -6182.746
 40
  162.704
  1
    0.0
 50
    0.000
  0
TEXT
  8
26
 7
SIMPLEX
 10
 14480.646
 20
 -6182.746
 40
  162.704
  1
   -2.0
 50
    0.000
  0
TEXT
  8
13
 7
SIMPLEX
 10
   162.704
 20
 -6426.802
 40
  162.704
  1
2*
 50
    0.000
  0
TEXT
  8
13
 7
SIMPLEX
 10
  1138.927
 20
 -6426.802
 40
  162.704
  1
A
 50
    0.000
  0
TEXT
  8
26
 7
SIMPLEX
 10
  1952.446
 20
 -6426.802
 40
  162.704
  1
   19.9
 50
    0.000
  0
TEXT
  8
26
 7
SIMPLEX
 10
  3091.373
 20
 -6426.802
 40
  162.704
  1
  -15.1
 50
    0.000
  0
TEXT
  8
26
 7
SIMPLEX
 10
  4230.300
 20
 -6426.802
 40
  162.704
  1
    5.3
 50
    0.000
  0
TEXT
  8
26
 7
SIMPLEX
 10
  5369.227
 20
 -6426.802
 40
  162.704
  1
  -37.9
 50
    0.000
  0
TEXT
  8
26
 7
SIMPLEX
 10
  6508.155
 20
 -6426.802
 40
  162.704
  1
    4.0
 50
    0.000
  0
TEXT
  8
26
 7
SIMPLEX
 10
  7647.082
 20
 -6426.802
 40
  162.704
  1
  -28.2
 50
    0.000
  0
TEXT
  8
26
 7
SIMPLEX
 10
  8786.010
 20
 -6426.802
 40
  162.704
  1
   -1.0
 50
    0.000
  0
TEXT
  8
26
 7
SIMPLEX
 10
  9924.937
 20
 -6426.802
 40
  162.704
  1
    0.6
 50
    0.000
  0
TEXT
  8
26
 7
SIMPLEX
 10
 11063.864
 20
 -6426.802
 40
  162.704
  1
    1.0
 50
    0.000
  0
TEXT
  8
26
 7
SIMPLEX
 10
 12202.791
 20
 -6426.802
 40
  162.704
  1
   -0.6
 50
    0.000
  0
TEXT
  8
26
 7
SIMPLEX
 10
 13341.719
 20
 -6426.802
 40
  162.704
  1
    0.0
 50
    0.000
  0
TEXT
  8
26
 7
SIMPLEX
 10
 14480.646
 20
 -6426.802
 40
  162.704
  1
   -2.0
 50
    0.000
  0
TEXT
  8
14
 7
SIMPLEX
 10
   162.704
 20
 -6914.914
 40
  162.704
  1
Frame
 50
    0.000
  0
TEXT
  8
14
 7
SIMPLEX
 10
   162.704
 20
 -7158.969
 40
  162.704
  1
Line
 50
    0.000
  0
TEXT
  8
14
 7
SIMPLEX
 10
  1138.927
 20
 -6914.914
 40
  162.704
  1
Column
 50
    0.000
  0
TEXT
  8
14
 7
SIMPLEX
 10
  1138.927
 20
 -7158.969
 40
  162.704
  1
Line
 50
    0.000
  0
TEXT
  8
14
 7
SIMPLEX
 10
  2277.854
 20
 -6914.914
 40
  162.704
  1
Seismic_Long2
 50
    0.000
  0
TEXT
  8
14
 7
SIMPLEX
 10
  2277.854
 20
 -7158.969
 40
  162.704
  1
Horz
 50
    0.000
  0
TEXT
  8
14
 7
SIMPLEX
 10
  3416.781
 20
 -7158.969
 40
  162.704
  1
Vert
 50
    0.000
  0
TEXT
  8
14
 7
SIMPLEX
 10
  4555.708
 20
 -6914.914
 40
  162.704
  1
LWIND1_L2E-
 50
    0.000
  0
TEXT
  8
14
 7
SIMPLEX
 10
  4555.708
 20
 -7158.969
 40
  162.704
  1
Horz
 50
    0.000
  0
TEXT
  8
14
 7
SIMPLEX
 10
  5694.635
 20
 -7158.969
 40
  162.704
  1
Vert
 50
    0.000
  0
TEXT
  8
14
 7
SIMPLEX
 10
  6833.562
 20
 -6914.914
 40
  162.704
  1
LWIND1_R2E-
 50
    0.000
  0
TEXT
  8
14
 7
SIMPLEX
 10
  6833.562
 20
 -7158.969
 40
  162.704
  1
Horz
 50
    0.000
  0
TEXT
  8
14
 7
SIMPLEX
 10
  7972.488
 20
 -7158.969
 40
  162.704
  1
Vert
 50
    0.000
  0
TEXT
  8
14
 7
SIMPLEX
 10
  9111.416
 20
 -6914.914
 40
  162.704
  1
LWIND2_L2E-
 50
    0.000
  0
TEXT
  8
14
 7
SIMPLEX
 10
  9111.416
 20
 -7158.969
 40
  162.704
  1
Horz
 50
    0.000
  0
TEXT
  8
14
 7
SIMPLEX
 10
 10250.343
 20
 -7158.969
 40
  162.704
  1
Vert
 50
    0.000
  0
TEXT
  8
14
 7
SIMPLEX
 10
 11389.270
 20
 -6914.914
 40
  162.704
  1
LWIND2_R2E-
 50
    0.000
  0
TEXT
  8
14
 7
SIMPLEX
 10
 11389.270
 20
 -7158.969
 40
  162.704
  1
Horz
 50
    0.000
  0
TEXT
  8
14
 7
SIMPLEX
 10
 12528.196
 20
 -7158.969
 40
  162.704
  1
Vert
 50
    0.000
  0
TEXT
  8
13
 7
SIMPLEX
 10
   162.704
 20
 -7403.025
 40
  162.704
  1
2*
 50
    0.000
  0
TEXT
  8
13
 7
SIMPLEX
 10
  1138.927
 20
 -7403.025
 40
  162.704
  1
D
 50
    0.000
  0
TEXT
  8
26
 7
SIMPLEX
 10
  1952.446
 20
 -7403.025
 40
  162.704
  1
    0.0
 50
    0.000
  0
TEXT
  8
26
 7
SIMPLEX
 10
  3091.373
 20
 -7403.025
 40
  162.704
  1
    2.0
 50
    0.000
  0
TEXT
  8
26
 7
SIMPLEX
 10
  4230.300
 20
 -7403.025
 40
  162.704
  1
    0.1
 50
    0.000
  0
TEXT
  8
26
 7
SIMPLEX
 10
  5369.227
 20
 -7403.025
 40
  162.704
  1
   -3.0
 50
    0.000
  0
TEXT
  8
26
 7
SIMPLEX
 10
  6508.155
 20
 -7403.025
 40
  162.704
  1
   -0.8
 50
    0.000
  0
TEXT
  8
26
 7
SIMPLEX
 10
  7647.082
 20
 -7403.025
 40
  162.704
  1
   -0.6
 50
    0.000
  0
TEXT
  8
26
 7
SIMPLEX
 10
  8786.010
 20
 -7403.025
 40
  162.704
  1
    0.1
 50
    0.000
  0
TEXT
  8
26
 7
SIMPLEX
 10
  9924.937
 20
 -7403.025
 40
  162.704
  1
   -3.0
 50
    0.000
  0
TEXT
  8
26
 7
SIMPLEX
 10
 11063.864
 20
 -7403.025
 40
  162.704
  1
   -0.8
 50
    0.000
  0
TEXT
  8
26
 7
SIMPLEX
 10
 12202.791
 20
 -7403.025
 40
  162.704
  1
   -0.6
 50
    0.000
  0
TEXT
  8
13
 7
SIMPLEX
 10
   162.704
 20
 -7647.081
 40
  162.704
  1
2*
 50
    0.000
  0
TEXT
  8
13
 7
SIMPLEX
 10
  1138.927
 20
 -7647.081
 40
  162.704
  1
A
 50
    0.000
  0
TEXT
  8
26
 7
SIMPLEX
 10
  1952.446
 20
 -7647.081
 40
  162.704
  1
    0.0
 50
    0.000
  0
TEXT
  8
26
 7
SIMPLEX
 10
  3091.373
 20
 -7647.081
 40
  162.704
  1
    2.0
 50
    0.000
  0
TEXT
  8
26
 7
SIMPLEX
 10
  4230.300
 20
 -7647.081
 40
  162.704
  1
    0.8
 50
    0.000
  0
TEXT
  8
26
 7
SIMPLEX
 10
  5369.227
 20
 -7647.081
 40
  162.704
  1
   -0.6
 50
    0.000
  0
TEXT
  8
26
 7
SIMPLEX
 10
  6508.155
 20
 -7647.081
 40
  162.704
  1
   -0.1
 50
    0.000
  0
TEXT
  8
26
 7
SIMPLEX
 10
  7647.082
 20
 -7647.081
 40
  162.704
  1
   -3.0
 50
    0.000
  0
TEXT
  8
26
 7
SIMPLEX
 10
  8786.010
 20
 -7647.081
 40
  162.704
  1
    0.8
 50
    0.000
  0
TEXT
  8
26
 7
SIMPLEX
 10
  9924.937
 20
 -7647.081
 40
  162.704
  1
   -0.6
 50
    0.000
  0
TEXT
  8
26
 7
SIMPLEX
 10
 11063.864
 20
 -7647.081
 40
  162.704
  1
   -0.1
 50
    0.000
  0
TEXT
  8
26
 7
SIMPLEX
 10
 12202.791
 20
 -7647.081
 40
  162.704
  1
   -3.0
 50
    0.000
  0
TEXT
  8
13
 7
SIMPLEX
 10
   162.704
 20
 -8135.192
 40
  162.704
  1
1*
 50
    0.000
  0
TEXT
  8
14
 7
SIMPLEX
 10
   976.223
 20
 -8135.192
 40
  162.704
  1
Frame lines:
 50
    0.000
  0
TEXT
  8
13
 7
SIMPLEX
 10
  3579.485
 20
 -8135.192
 40
  162.704
  1
1
 50
    0.000
  0
TEXT
  8
13
 7
SIMPLEX
 10
  3904.892
 20
 -8135.192
 40
  162.704
  1
5
 50
    0.000
  0
TEXT
  8
13
 7
SIMPLEX
 10
   162.704
 20
 -8379.247
 40
  162.704
  1
2*
 50
    0.000
  0
TEXT
  8
14
 7
SIMPLEX
 10
   976.223
 20
 -8379.247
 40
  162.704
  1
Frame lines:
 50
    0.000
  0
TEXT
  8
13
 7
SIMPLEX
 10
  3579.485
 20
 -8379.247
 40
  162.704
  1
2
 50
    0.000
  0
TEXT
  8
13
 7
SIMPLEX
 10
  3904.892
 20
 -8379.247
 40
  162.704
  1
3
 50
    0.000
  0
TEXT
  8
13
 7
SIMPLEX
 10
  4230.300
 20
 -8379.247
 40
  162.704
  1
4
 50
    0.000
  0
LINE
  8
1
 10
 0.00     
 20
 0.00     
 11
 0.00     
 21
 -8501.274
  0
LINE
  8
1
 10
 0.00     
 20
 -8501.274
 11
 16595.793
 21
 -8501.274
  0
LINE
  8
1
 10
 16595.793
 20
 -8501.274
 11
 16595.793
 21
 0.00     
  0
ENDBLK
  8
1
  0
BLOCK
  8
1
  2
RNOTES
 70
     0
 10
 0.00     
 20
 0.00     
  0
TEXT
  8
20
 7
SIMPLEX
 10
   162.704
 20
  -366.084
 40
  244.056
  1
NOTES FOR REACTIONS
 50
    0.000
  0
TEXT
  8
1
 7
SIMPLEX
 10
   488.112
 20
  -854.195
 40
  162.704
  1
1.
 50
    0.000
  0
TEXT
  8
1
 7
SIMPLEX
 10
   813.519
 20
  -854.195
 40
  162.704
  1
All loading conditions are examined and only maximum/minimum H or V and the
 50
    0.000
  0
TEXT
  8
1
 7
SIMPLEX
 10
   813.519
 20
 -1098.251
 40
  162.704
  1
corresponding H or V are reported.
 50
    0.000
  0
TEXT
  8
1
 7
SIMPLEX
 10
   488.112
 20
 -1423.659
 40
  162.704
  1
2.
 50
    0.000
  0
TEXT
  8
1
 7
SIMPLEX
 10
   813.519
 20
 -1423.659
 40
  162.704
  1
Positive reactions are as shown in the sketch.  Foundation loads are in
 50
    0.000
  0
TEXT
  8
1
 7
SIMPLEX
 10
   813.519
 20
 -1667.714
 40
  162.704
  1
opposite directions.
 50
    0.000
  0
TEXT
  8
1
 7
SIMPLEX
 10
   488.112
 20
 -1993.122
 40
  162.704
  1
3.
 50
    0.000
  0
TEXT
  8
1
 7
SIMPLEX
 10
   813.519
 20
 -1993.122
 40
  162.704
  1
Bracing reactions are in the plane of the brace with the H pointing away
 50
    0.000
  0
TEXT
  8
1
 7
SIMPLEX
 10
   813.519
 20
 -2237.178
 40
  162.704
  1
from the braced bay.  The vertical reaction is downward.
 50
    0.000
  0
TEXT
  8
1
 7
SIMPLEX
 10
   488.112
 20
 -2562.586
 40
  162.704
  1
4.
 50
    0.000
  0
TEXT
  8
1
 7
SIMPLEX
 10
   813.519
 20
 -2562.586
 40
  162.704
  1
Building reactions are based on the following building data:
 50
    0.000
  0
TEXT
  8
1
 7
SIMPLEX
 10
  1301.631
 20
 -2806.641
 40
  162.704
  1
Width
 50
    0.000
  0
TEXT
  8
1
 7
SIMPLEX
 10
  4393.004
 20
 -2806.641
 40
  162.704
  1
(mm)
 50
    0.000
  0
TEXT
  8
1
 7
SIMPLEX
 10
  5043.819
 20
 -2806.641
 40
  162.704
  1
=
 50
    0.000
  0
TEXT
  8
1
 7
SIMPLEX
 10
  5125.171
 20
 -2806.641
 40
  162.704
  1
  22596
 50
    0.000
  0
TEXT
  8
1
 7
SIMPLEX
 10
  1301.631
 20
 -3050.697
 40
  162.704
  1
Length
 50
    0.000
  0
TEXT
  8
1
 7
SIMPLEX
 10
  4393.004
 20
 -3050.697
 40
  162.704
  1
(mm)
 50
    0.000
  0
TEXT
  8
1
 7
SIMPLEX
 10
  5043.819
 20
 -3050.697
 40
  162.704
  1
=
 50
    0.000
  0
TEXT
  8
1
 7
SIMPLEX
 10
  5125.171
 20
 -3050.697
 40
  162.704
  1
  20670
 50
    0.000
  0
TEXT
  8
1
 7
SIMPLEX
 10
  1301.631
 20
 -3294.753
 40
  162.704
  1
Eave Height
 50
    0.000
  0
TEXT
  8
1
 7
SIMPLEX
 10
  4393.004
 20
 -3294.753
 40
  162.704
  1
(mm)
 50
    0.000
  0
TEXT
  8
1
 7
SIMPLEX
 10
  5043.819
 20
 -3294.753
 40
  162.704
  1
=
 50
    0.000
  0
TEXT
  8
1
 7
SIMPLEX
 10
  5125.171
 20
 -3294.753
 40
  162.704
  1
   7300/  7300
 50
    0.000
  0
TEXT
  8
1
 7
SIMPLEX
 10
  1301.631
 20
 -3538.809
 40
  162.704
  1
Roof Slope
 50
    0.000
  0
TEXT
  8
1
 7
SIMPLEX
 10
  3416.781
 20
 -3538.809
 40
  162.704
  1
(rise/100)
 50
    0.000
  0
TEXT
  8
1
 7
SIMPLEX
 10
  5043.819
 20
 -3538.809
 40
  162.704
  1
=
 50
    0.000
  0
TEXT
  8
1
 7
SIMPLEX
 10
  5125.171
 20
 -3538.809
 40
  162.704
  1
 25.00/25.00
 50
    0.000
  0
TEXT
  8
1
 7
SIMPLEX
 10
  1301.631
 20
 -3782.865
 40
  162.704
  1
Roof Dead Load
 50
    0.000
  0
TEXT
  8
1
 7
SIMPLEX
 10
  3904.892
 20
 -3782.865
 40
  162.704
  1
(kN/m2)
 50
    0.000
  0
TEXT
  8
1
 7
SIMPLEX
 10
  5043.819
 20
 -3782.865
 40
  162.704
  1
=
 50
    0.000
  0
TEXT
  8
1
 7
SIMPLEX
 10
  5125.171
 20
 -3782.865
 40
  162.704
  1
  0.10
 50
    0.000
  0
TEXT
  8
1
 7
SIMPLEX
 10
  1301.631
 20
 -4026.920
 40
  162.704
  1
Wall Dead Load
 50
    0.000
  0
TEXT
  8
1
 7
SIMPLEX
 10
  1301.631
 20
 -4270.976
 40
  162.704
  1
  Left  Endwall
 50
    0.000
  0
TEXT
  8
1
 7
SIMPLEX
 10
  3904.892
 20
 -4270.976
 40
  162.704
  1
(kN/m2)
 50
    0.000
  0
TEXT
  8
1
 7
SIMPLEX
 10
  5043.819
 20
 -4270.976
 40
  162.704
  1
=
 50
    0.000
  0
TEXT
  8
1
 7
SIMPLEX
 10
  5125.171
 20
 -4270.976
 40
  162.704
  1
  0.10
 50
    0.000
  0
TEXT
  8
1
 7
SIMPLEX
 10
  1301.631
 20
 -4515.031
 40
  162.704
  1
  Right Endwall
 50
    0.000
  0
TEXT
  8
1
 7
SIMPLEX
 10
  3904.892
 20
 -4515.031
 40
  162.704
  1
(kN/m2)
 50
    0.000
  0
TEXT
  8
1
 7
SIMPLEX
 10
  5043.819
 20
 -4515.031
 40
  162.704
  1
=
 50
    0.000
  0
TEXT
  8
1
 7
SIMPLEX
 10
  5125.171
 20
 -4515.031
 40
  162.704
  1
  0.10
 50
    0.000
  0
TEXT
  8
1
 7
SIMPLEX
 10
  1301.631
 20
 -4759.087
 40
  162.704
  1
  Front Sidewall
 50
    0.000
  0
TEXT
  8
1
 7
SIMPLEX
 10
  3904.892
 20
 -4759.087
 40
  162.704
  1
(kN/m2)
 50
    0.000
  0
TEXT
  8
1
 7
SIMPLEX
 10
  5043.819
 20
 -4759.087
 40
  162.704
  1
=
 50
    0.000
  0
TEXT
  8
1
 7
SIMPLEX
 10
  5125.171
 20
 -4759.087
 40
  162.704
  1
  0.10
 50
    0.000
  0
TEXT
  8
1
 7
SIMPLEX
 10
  1301.631
 20
 -5003.143
 40
  162.704
  1
  Back  Sidewall
 50
    0.000
  0
TEXT
  8
1
 7
SIMPLEX
 10
  3904.892
 20
 -5003.143
 40
  162.704
  1
(kN/m2)
 50
    0.000
  0
TEXT
  8
1
 7
SIMPLEX
 10
  5043.819
 20
 -5003.143
 40
  162.704
  1
=
 50
    0.000
  0
TEXT
  8
1
 7
SIMPLEX
 10
  5125.171
 20
 -5003.143
 40
  162.704
  1
  0.10
 50
    0.000
  0
TEXT
  8
1
 7
SIMPLEX
 10
  1301.631
 20
 -5247.198
 40
  162.704
  1
Live Load
 50
    0.000
  0
TEXT
  8
1
 7
SIMPLEX
 10
  3904.892
 20
 -5247.198
 40
  162.704
  1
(kN/m2)
 50
    0.000
  0
TEXT
  8
1
 7
SIMPLEX
 10
  5043.819
 20
 -5247.198
 40
  162.704
  1
=
 50
    0.000
  0
TEXT
  8
1
 7
SIMPLEX
 10
  5125.171
 20
 -5247.198
 40
  162.704
  1
  0.57
 50
    0.000
  0
TEXT
  8
1
 7
SIMPLEX
 10
  1301.631
 20
 -5491.254
 40
  162.704
  1
Collateral Load
 50
    0.000
  0
TEXT
  8
1
 7
SIMPLEX
 10
  3904.892
 20
 -5491.254
 40
  162.704
  1
(kN/m2)
 50
    0.000
  0
TEXT
  8
1
 7
SIMPLEX
 10
  5043.819
 20
 -5491.254
 40
  162.704
  1
=
 50
    0.000
  0
TEXT
  8
1
 7
SIMPLEX
 10
  5125.171
 20
 -5491.254
 40
  162.704
  1
  0.05
 50
    0.000
  0
TEXT
  8
1
 7
SIMPLEX
 10
  1301.631
 20
 -5735.310
 40
  162.704
  1
Wind Speed
 50
    0.000
  0
TEXT
  8
1
 7
SIMPLEX
 10
  4230.300
 20
 -5735.310
 40
  162.704
  1
(m/s)
 50
    0.000
  0
TEXT
  8
1
 7
SIMPLEX
 10
  5043.819
 20
 -5735.310
 40
  162.704
  1
=
 50
    0.000
  0
TEXT
  8
1
 7
SIMPLEX
 10
  5125.171
 20
 -5735.310
 40
  162.704
  1
  36.1
 50
    0.000
  0
TEXT
  8
1
 7
SIMPLEX
 10
  1301.631
 20
 -5979.365
 40
  162.704
  1
Wind Code
 50
    0.000
  0
TEXT
  8
1
 7
SIMPLEX
 10
  5043.819
 20
 -5979.365
 40
  162.704
  1
=
 50
    0.000
  0
TEXT
  8
1
 7
SIMPLEX
 10
  5125.171
 20
 -5979.365
 40
  162.704
  1
 MBMA10
 50
    0.000
  0
TEXT
  8
1
 7
SIMPLEX
 10
  1301.631
 20
 -6223.421
 40
  162.704
  1
Exposure
 50
    0.000
  0
TEXT
  8
1
 7
SIMPLEX
 10
  5043.819
 20
 -6223.421
 40
  162.704
  1
=
 50
    0.000
  0
TEXT
  8
1
 7
SIMPLEX
 10
  5125.171
 20
 -6223.421
 40
  162.704
  1
 B
 50
    0.000
  0
TEXT
  8
1
 7
SIMPLEX
 10
  1301.631
 20
 -6467.477
 40
  162.704
  1
Closure
 50
    0.000
  0
TEXT
  8
1
 7
SIMPLEX
 10
  5043.819
 20
 -6467.477
 40
  162.704
  1
=
 50
    0.000
  0
TEXT
  8
1
 7
SIMPLEX
 10
  5125.171
 20
 -6467.477
 40
  162.704
  1
 Enclosed
 50
    0.000
  0
TEXT
  8
1
 7
SIMPLEX
 10
  1301.631
 20
 -6711.532
 40
  162.704
  1
Internal Wind Coeff
 50
    0.000
  0
TEXT
  8
1
 7
SIMPLEX
 10
  5043.819
 20
 -6711.532
 40
  162.704
  1
=
 50
    0.000
  0
TEXT
  8
1
 7
SIMPLEX
 10
  5125.171
 20
 -6711.532
 40
  162.704
  1
 -0.18, +0.18
 50
    0.000
  0
TEXT
  8
1
 7
SIMPLEX
 10
  1301.631
 20
 -6955.588
 40
  162.704
  1
Risk Category
 50
    0.000
  0
TEXT
  8
1
 7
SIMPLEX
 10
  5043.819
 20
 -6955.588
 40
  162.704
  1
=
 50
    0.000
  0
TEXT
  8
1
 7
SIMPLEX
 10
  5125.171
 20
 -6955.588
 40
  162.704
  1
 -
 50
    0.000
  0
TEXT
  8
1
 7
SIMPLEX
 10
  1301.631
 20
 -7199.644
 40
  162.704
  1
Importance - Wind
 50
    0.000
  0
TEXT
  8
1
 7
SIMPLEX
 10
  5043.819
 20
 -7199.644
 40
  162.704
  1
=
 50
    0.000
  0
TEXT
  8
1
 7
SIMPLEX
 10
  5125.171
 20
 -7199.644
 40
  162.704
  1
  1.00
 50
    0.000
  0
TEXT
  8
1
 7
SIMPLEX
 10
  1301.631
 20
 -7443.699
 40
  162.704
  1
Importance - Seismic
 50
    0.000
  0
TEXT
  8
1
 7
SIMPLEX
 10
  5043.819
 20
 -7443.699
 40
  162.704
  1
=
 50
    0.000
  0
TEXT
  8
1
 7
SIMPLEX
 10
  5125.171
 20
 -7443.699
 40
  162.704
  1
  1.00
 50
    0.000
  0
TEXT
  8
1
 7
SIMPLEX
 10
  1301.631
 20
 -7687.755
 40
  162.704
  1
Seismic Design Category
 50
    0.000
  0
TEXT
  8
1
 7
SIMPLEX
 10
  5043.819
 20
 -7687.755
 40
  162.704
  1
=
 50
    0.000
  0
TEXT
  8
1
 7
SIMPLEX
 10
  5125.171
 20
 -7687.755
 40
  162.704
  1
 B
 50
    0.000
  0
TEXT
  8
1
 7
SIMPLEX
 10
  1301.631
 20
 -7931.811
 40
  162.704
  1
Seismic Coeff
 50
    0.000
  0
TEXT
  8
1
 7
SIMPLEX
 10
  4230.300
 20
 -7931.811
 40
  162.704
  1
(Sms)
 50
    0.000
  0
TEXT
  8
1
 7
SIMPLEX
 10
  5043.819
 20
 -7931.811
 40
  162.704
  1
=
 50
    0.000
  0
TEXT
  8
1
 7
SIMPLEX
 10
  5125.171
 20
 -7931.811
 40
  162.704
  1
  0.33
 50
    0.000
  0
TEXT
  8
1
 7
SIMPLEX
 10
  1301.631
 20
 -8175.866
 40
  162.704
  1
Temperature Change
 50
    0.000
  0
TEXT
  8
1
 7
SIMPLEX
 10
  5043.819
 20
 -8175.866
 40
  162.704
  1
=
 50
    0.000
  0
TEXT
  8
1
 7
SIMPLEX
 10
  5125.171
 20
 -8175.866
 40
  162.704
  1
   20
 50
    0.000
  0
TEXT
  8
1
 7
SIMPLEX
 10
   488.112
 20
 -8501.274
 40
  162.704
  1
5.
 50
    0.000
  0
TEXT
  8
1
 7
SIMPLEX
 10
   813.519
 20
 -8501.274
 40
  162.704
  1
Loading conditions are:
 50
    0.000
  0
TEXT
  8
1
 7
SIMPLEX
 10
   813.519
 20
 -8826.682
 40
  162.704
  1
1
 50
    0.000
  0
TEXT
  8
1
 7
SIMPLEX
 10
  1301.631
 20
 -8826.682
 40
  162.704
  1
Dead+Collateral+Live
 50
    0.000
  0
TEXT
  8
1
 7
SIMPLEX
 10
   813.519
 20
 -9070.737
 40
  162.704
  1
2
 50
    0.000
  0
TEXT
  8
1
 7
SIMPLEX
 10
  1301.631
 20
 -9070.737
 40
  162.704
  1
Dead+Collateral+0.75Live+0.75Wind_Long2R+0.75Floor_Live+0.75LWIND2_L2E
 50
    0.000
  0
TEXT
  8
1
 7
SIMPLEX
 10
   813.519
 20
 -9314.793
 40
  162.704
  1
3
 50
    0.000
  0
TEXT
  8
1
 7
SIMPLEX
 10
  1301.631
 20
 -9314.793
 40
  162.704
  1
Dead+Collateral+0.75Live+0.75Wind_Long2R+0.75Floor_Live+0.75LWIND2_R2E
 50
    0.000
  0
TEXT
  8
1
 7
SIMPLEX
 10
   813.519
 20
 -9558.849
 40
  162.704
  1
4
 50
    0.000
  0
TEXT
  8
1
 7
SIMPLEX
 10
  1301.631
 20
 -9558.849
 40
  162.704
  1
0.6Dead+Wind_Left1
 50
    0.000
  0
TEXT
  8
1
 7
SIMPLEX
 10
   813.519
 20
 -9802.904
 40
  162.704
  1
5
 50
    0.000
  0
TEXT
  8
1
 7
SIMPLEX
 10
  1301.631
 20
 -9802.904
 40
  162.704
  1
0.6Dead+Wind_Right1
 50
    0.000
  0
TEXT
  8
1
 7
SIMPLEX
 10
   813.519
 20
-10046.960
 40
  162.704
  1
6
 50
    0.000
  0
TEXT
  8
1
 7
SIMPLEX
 10
  1301.631
 20
-10046.960
 40
  162.704
  1
0.6Dead+Wind_Left2
 50
    0.000
  0
TEXT
  8
1
 7
SIMPLEX
 10
   813.519
 20
-10291.016
 40
  162.704
  1
7
 50
    0.000
  0
TEXT
  8
1
 7
SIMPLEX
 10
  1301.631
 20
-10291.016
 40
  162.704
  1
0.6Dead+Wind_Right2
 50
    0.000
  0
TEXT
  8
1
 7
SIMPLEX
 10
   813.519
 20
-10535.071
 40
  162.704
  1
8
 50
    0.000
  0
TEXT
  8
1
 7
SIMPLEX
 10
  1301.631
 20
-10535.071
 40
  162.704
  1
0.6Dead+Wind_Long1L+LWIND1_L2E
 50
    0.000
  0
TEXT
  8
1
 7
SIMPLEX
 10
   813.519
 20
-10779.127
 40
  162.704
  1
9
 50
    0.000
  0
TEXT
  8
1
 7
SIMPLEX
 10
  1301.631
 20
-10779.127
 40
  162.704
  1
0.6Dead+Wind_Long1L+LWIND1_R2E
 50
    0.000
  0
TEXT
  8
1
 7
SIMPLEX
 10
   813.519
 20
-11023.183
 40
  162.704
  1
10
 50
    0.000
  0
TEXT
  8
1
 7
SIMPLEX
 10
  1301.631
 20
-11023.183
 40
  162.704
  1
1.02Dead+1.02Collateral+0.52Seismic_Right+0.75Floor_Live
 50
    0.000
  0
TEXT
  8
1
 7
SIMPLEX
 10
   813.519
 20
-11267.238
 40
  162.704
  1
11
 50
    0.000
  0
TEXT
  8
1
 7
SIMPLEX
 10
  1301.631
 20
-11267.238
 40
  162.704
  1
0.6Dead+Wind_Right2+Wind_Suction
 50
    0.000
  0
TEXT
  8
1
 7
SIMPLEX
 10
   813.519
 20
-11511.294
 40
  162.704
  1
12
 50
    0.000
  0
TEXT
  8
1
 7
SIMPLEX
 10
  1301.631
 20
-11511.294
 40
  162.704
  1
0.6Dead+Wind_Pressure+Wind_Long2L
 50
    0.000
  0
LINE
  8
0
 10
 0.00     
 20
-11673.998
 11
 16595.793
 21
-11673.998
  0
LINE
  8
0
 10
 16595.793
 20
-11673.998
 11
 16595.793
 21
 0.00     
  0
LINE
  8
0
 10
 16595.793
 20
 0.00     
 11
 0.00     
 21
 0.00     
  0
LINE
  8
0
 10
 0.00     
 20
 0.00     
 11
 0.00     
 21
-11673.998
  0
ENDBLK
  8
0
  0
ENDSEC
  0
SECTION
  2
ENTITIES
  0
LINE
  8
22
 10
 0.00     
 20
 0.00     
 11
 57170.543
 21
 0.00     
  0
LINE
  8
22
 10
 57170.543
 20
 0.00     
 11
 57170.543
 21
 40427.742
  0
LINE
  8
22
 10
 57170.543
 20
 40427.742
 11
 0.00     
 21
 40427.742
  0
LINE
  8
22
 10
 0.00     
 20
 40427.742
 11
 0.00     
 21
 0.00     
  0
LINE
  8
0
 10
 35388.566
 20
 0.00     
 11
 35388.566
 21
  3630.330
  0
LINE
  8
0
 10
 35388.566
 20
  3630.330
 11
 57170.543
 21
  3630.330
  0
LINE
  8
0
 10
 35388.566
 20
  1382.983
 11
 57170.543
 21
  1382.983
  0
LINE
  8
0
 10
 35388.566
 20
  2074.474
 11
 57170.543
 21
  2074.474
  0
LINE
  8
0
 10
 35388.566
 20
  2765.965
 11
 57170.543
 21
  2765.965
  0
LINE
  8
0
 10
 38500.277
 20
 0.00     
 11
 38500.277
 21
  2765.965
  0
LINE
  8
0
 10
 46279.555
 20
 0.00     
 11
 46279.555
 21
  2765.965
  0
LINE
  8
0
 10
 46279.555
 20
   691.491
 11
 57170.543
 21
   691.491
  0
LINE
  8
0
 10
 50082.762
 20
  2074.474
 11
 50082.762
 21
  1382.983
  0
LINE
  8
0
 10
 53540.215
 20
  2074.474
 11
 53540.215
 21
  1382.983
  0
LINE
  8
0
 10
 51811.484
 20
  1382.983
 11
 51811.484
 21
   691.491
  0
TEXT
  8
14
 7
SIMPLEX
 10
 39191.770
 20
  2938.838
 40
  518.619
  1
Sivoko Steel Structures Ltd.
 50
    0.000
  0
TEXT
  8
14
 7
SIMPLEX
 10
 35734.313
 20
  2247.347
 40
  345.746
  1
PROJECT
 50
    0.000
  0
TEXT
  8
14
 7
SIMPLEX
 10
 35734.313
 20
  1555.856
 40
  345.746
  1
ID
 50
    0.000
  0
TEXT
  8
14
 7
SIMPLEX
 10
 35734.313
 20
   864.364
 40
  345.746
  1
PROJECT
 50
    0.000
  0
TEXT
  8
14
 7
SIMPLEX
 10
 35734.313
 20
   172.873
 40
  345.746
  1
ADDRESS
 50
    0.000
  0
TEXT
  8
14
 7
SIMPLEX
 10
 38846.023
 20
  2247.347
 40
  345.746
  1
Proposed Warehouse
 50
    0.000
  0
TEXT
  8
14
 7
SIMPLEX
 10
 38846.023
 20
  1555.856
 40
  345.746
  1
Q-1467
 50
    0.000
  0
TEXT
  8
14
 7
SIMPLEX
 10
 38846.023
 20
   864.364
 40
  345.746
  1
Proposed Warehouse
 50
    0.000
  0
TEXT
  8
14
 7
SIMPLEX
 10
 38846.023
 20
   172.873
 40
  345.746
  1
 
 50
    0.000
  0
TEXT
  8
14
 7
SIMPLEX
 10
 46625.301
 20
  2247.347
 40
  345.746
  1
ANCHOR BOLT REACTIONS
 50
    0.000
  0
TEXT
  8
14
 7
SIMPLEX
 10
 46625.301
 20
  1555.856
 40
  345.746
  1
DESIGN:
 50
    0.000
  0
TEXT
  8
14
 7
SIMPLEX
 10
 46625.301
 20
   864.364
 40
  345.746
  1
DATE:
 50
    0.000
  0
TEXT
  8
14
 7
SIMPLEX
 10
 48388.602
 20
   864.364
 40
  345.746
  1
15/DEC/2025
 50
    0.000
  0
TEXT
  8
14
 7
SIMPLEX
 10
 50428.504
 20
  1555.856
 40
  345.746
  1
DRAFT:
 50
    0.000
  0
TEXT
  8
14
 7
SIMPLEX
 10
 53885.961
 20
  1555.856
 40
  345.746
  1
CHECK:
 50
    0.000
  0
TEXT
  8
14
 7
SIMPLEX
 10
 51984.359
 20
   864.364
 40
  345.746
  1
SHEET
 50
    0.000
  0
TEXT
  8
14
 7
SIMPLEX
 10
 55096.070
 20
   864.364
 40
  345.746
  1
OF
 50
    0.000
  0
TEXT
  8
14
 7
SIMPLEX
 10
 53713.090
 20
   864.364
 40
  345.746
  1
 
 50
    0.000
999
FIELD:@PAGE_ID
  0
TEXT
  8
14
 7
SIMPLEX
 10
 55787.559
 20
   864.364
 40
  345.746
  1
 
 50
    0.000
999
FIELD:@PAGE_TOTAL
  0
INSERT
  8
1
  2
RFRM-1
 10
 40574.754
 20
 40427.742
 41
     1.000
 42
     1.000
 43
     1.000
 50
    0.000
  0
INSERT
  8
1
  2
BOLT01
 10
 40574.754
 20
 33919.594
 41
     1.000
 42
     1.000
 43
     1.000
 50
    0.000
  0
INSERT
  8
1
  2
BOLT02
 10
 40574.754
 20
 30665.514
 41
     1.000
 42
     1.000
 43
     1.000
 50
    0.000
  0
INSERT
  8
1
  2
RFBASE
 10
 40574.754
 20
 27411.436
 41
     1.000
 42
     1.000
 43
     1.000
 50
    0.000
  0
INSERT
  8
1
  2
EWTABL
 10
 40574.754
 20
 18910.162
 41
     1.000
 42
     1.000
 43
     1.000
 50
    0.000
  0
INSERT
  8
1
  2
EWBASE
 10
 40574.754
 20
 16510.281
 41
     1.000
 42
     1.000
 43
     1.000
 50
    0.000
  0
INSERT
  8
1
  2
RNOTES
 10
 23978.955
 20
 40427.742
 41
     1.000
 42
     1.000
 43
     1.000
 50
    0.000
  0
INSERT
  8
1
  2
BRACET
 10
 40574.754
 20
 13703.640
 41
     1.000
 42
     1.000
 43
     1.000
 50
    0.000
  0
ENDSEC
  0
EOF
