999
SOURCE:MBS   PROGRAM:ROOFDWG   CELL:RoofDwg3   CLASS:PLAN   MODE:
  0
SECTION
  2
HEADER
  9
$ACADVER
  1
AC1009
  9
$EXTMIN
 10
0.00000000
 20
0.00000000
  9
$EXTMAX
 10
49376.6211
 20
34916.3320
  9
$LIMMIN
 10
0.00000000
 20
0.00000000
  9
$LIMMAX
 10
49376.6211
 20
34916.3320
  9
$FILLMODE
 70
     1
  9
$HANDLING
 70
     0
  0
ENDSEC
  0
SECTION
  2
TABLES
  0
TABLE
  2
LTYPE
 70
4
  0
LTYPE
  2
CONTIN
 70
   64
  3
SOLID LINE
  72
   65
 73
    0
 40
 0.000
  0
LTYPE
  2
CENTER
 70
   64
  3
____ _ ____ _ _
  72
   65
 73
    4
 40
2986.1
 49
1866.3
 49
-373.3
 49
373.26
 49
-373.3
  0
LTYPE
  2
DASHED
 70
   64
  3
__ __ __ __ __
  72
   65
 73
    2
 40
559.90
 49
373.26
 49
-185.1
  0
LTYPE
  2
CONTINUOUS
 70
   64
  3
SOLID LINE
  72
   65
 73
    0
 40
 0.000
  0
ENDTAB
  0
TABLE
  2
LAYER
 70
27
  0
LAYER
  2
0
 70
     0
 62
     7
  6
CONTIN
  0
LAYER
  2
1
 70
     0
 62
     7
  6
CONTIN
  0
LAYER
  2
2
 70
     0
 62
     6
  6
CONTIN
  0
LAYER
  2
3
 70
     0
 62
     5
  6
CONTIN
  0
LAYER
  2
4
 70
     0
 62
     7
  6
CONTIN
  0
LAYER
  2
5
 70
     0
 62
     5
  6
DASHED
  0
LAYER
  2
6
 70
     0
 62
     4
  6
CONTIN
  0
LAYER
  2
7
 70
     0
 62
     7
  6
CONTIN
  0
LAYER
  2
8
 70
     0
 62
     2
  6
DASHED
  0
LAYER
  2
9
 70
     0
 62
     7
  6
DASHED
  0
LAYER
  2
10
 70
     0
 62
     7
  6
CONTIN
  0
LAYER
  2
11
 70
     0
 62
     6
  6
CONTIN
  0
LAYER
  2
12
 70
     0
 62
     7
  6
CONTIN
  0
LAYER
  2
13
 70
     0
 62
     5
  6
CONTIN
  0
LAYER
  2
14
 70
     0
 62
     1
  6
CONTIN
  0
LAYER
  2
15
 70
     0
 62
     1
  6
CONTIN
  0
LAYER
  2
16
 70
     0
 62
     1
  6
CONTIN
  0
LAYER
  2
17
 70
     0
 62
     6
  6
CONTIN
  0
LAYER
  2
18
 70
     0
 62
     1
  6
CONTIN
  0
LAYER
  2
19
 70
     0
 62
     7
  6
CONTIN
  0
LAYER
  2
20
 70
     0
 62
     7
  6
CONTIN
  0
LAYER
  2
21
 70
     0
 62
     7
  6
CONTIN
  0
LAYER
  2
22
 70
     0
 62
     7
  6
CONTIN
  0
LAYER
  2
23
 70
     0
 62
     7
  6
DASHED
  0
LAYER
  2
24
 70
     0
 62
     7
  6
CONTIN
  0
LAYER
  2
25
 70
     0
 62
     7
  6
CONTIN
  0
LAYER
  2
26
 70
     0
 62
     7
  6
CONTIN
  0
LAYER
  2
27
 70
     0
 62
     7
  6
CENTER
  0
ENDTAB
  0
TABLE
  2
STYLE
 70
  0
  0
STYLE
  2
SIMPLEX
 70
  0
 40
  0.000
 41
  1.000
 42
  1.000
 50
  0.000
 71
  0
  3
SIMPLEX
  0
STYLE
  2
ROMANS
 70
  0
 40
  0.000
 41
  1.000
 42
  1.000
 50
  0.000
 71
  0
  3
ROMANS
  0
STYLE
  2
OPEN
 70
  0
 40
  0.000
 41
  1.000
 42
  1.000
 50
  0.000
 71
  0
  3
SIMPLEX
  0
STYLE
  2
ARIAL
 70
  0
 40
  0.000
 41
  1.000
 42
  1.000
 50
  0.000
 71
  0
  3
ARIAL.TTF
  0
STYLE
  2
VERDANAB
 70
  0
 40
  0.000
 41
  1.000
 42
  1.000
 50
  0.000
 71
  0
  3
VERDANAB.TTF
  0
ENDTAB
  0
ENDSEC
  0
SECTION
  2
BLOCKS
  0
BLOCK
  8
0
  2
ARROWP
 70
     0
 10
0.00000000
 20
0.00000000
  0
LINE
  8
0
 10
0.00000000
 20
0.00000000
 11
-213.50688
 21
-35.584480
  0
LINE
  8
0
 10
0.00000000
 20
0.00000000
 11
-213.50688
 21
35.5844803
  0
LINE
  8
0
 10
-213.50688
 20
35.5844803
 11
-213.50688
 21
-35.584480
  0
ENDBLK
  8
0
  0
BLOCK
  8
0
  2
ARROW
 70
     0
 10
0.00000000
 20
0.00000000
  0
LINE
  8
0
 10
0.00000000
 20
0.00000000
 11
-213.50688
 21
-35.584480
  0
LINE
  8
0
 10
0.00000000
 20
0.00000000
 11
-213.50688
 21
35.5844803
  0
LINE
  8
0
 10
-213.50688
 20
35.5844803
 11
-213.50688
 21
-35.584480
  0
ENDBLK
  8
0
  0
BLOCK
  8
0
  2
HEXAGON
 70
     0
 10
0.00000000
 20
0.00000000
  0
LINE
  8
0
 10
0.00000000
 20
0.00000000
 11
7.62000084
 21
-10.160000
  0
LINE
  8
0
 10
7.62000084
 20
-10.160000
 11
17.7799988
 21
-10.160000
  0
LINE
  8
0
 10
17.7799988
 20
-10.160000
 11
25.3999996
 21
0.00000000
  0
LINE
  8
0
 10
25.3999996
 20
0.00000000
 11
17.7799988
 21
10.1599999
  0
LINE
  8
0
 10
17.7799988
 20
10.1599999
 11
7.62000084
 21
10.1599999
  0
LINE
  8
0
 10
7.62000084
 20
10.1599999
 11
0.00000000
 21
0.00000000
  0
ENDBLK
  8
0
  0
BLOCK
  8
0
  2
DIAMOND
 70
     0
 10
0.00000000
 20
0.00000000
  0
LINE
  8
0
 10
0.00000000
 20
0.00000000
 11
12.6999998
 21
12.6999998
  0
LINE
  8
0
 10
12.6999998
 20
12.6999998
 11
0.00000000
 21
25.3999996
  0
LINE
  8
0
 10
0.00000000
 20
25.3999996
 11
-12.700000
 21
12.6999998
  0
LINE
  8
0
 10
-12.700000
 20
12.6999998
 11
0.00000000
 21
0.00000000
  0
ENDBLK
  8
0
  0
BLOCK
  8
0
  2
SKYLITE
 70
     0
 10
0.00000000
 20
0.00000000
  0
LINE
  8
0
 10
25.3999996
 20
0.00000000
 11
0.00000000
 21
0.00000000
  0
LINE
  8
0
 10
0.00000000
 20
0.00000000
 11
0.00000000
 21
-25.400000
  0
LINE
  8
0
 10
0.00000000
 20
-25.400000
 11
25.3999996
 21
-25.400000
  0
LINE
  8
0
 10
25.3999996
 20
-25.400000
 11
25.3999996
 21
0.00000000
  0
LINE
  8
0
 10
0.00000000
 20
-25.400000
 11
0.00000000
 21
0.00000000
  0
LINE
  8
0
 10
6.34999992
 20
-25.400000
 11
6.34999992
 21
0.00000000
  0
LINE
  8
0
 10
12.6999998
 20
-25.400000
 11
12.6999998
 21
0.00000000
  0
LINE
  8
0
 10
19.0499992
 20
-25.400000
 11
19.0499992
 21
0.00000000
  0
ENDBLK
  8
0
  0
BLOCK
  8
0
  2
CIRCLE
 70
     0
 10
0.00000000
 20
0.00000000
  0
CIRCLE
  8
1
 10
   0.000
 20
   0.000
 40
  25.400
  0
ENDBLK
  8
0
  0
BLOCK
  8
0
  2
CCOL
 70
     0
 10
0.00000000
 20
0.00000000
  0
LINE
  8
0
 10
10.1599999
 20
-2.5400000
 11
10.1599999
 21
0.00000000
  0
LINE
  8
0
 10
10.1599999
 20
0.00000000
 11
0.00000000
 21
0.00000000
  0
LINE
  8
0
 10
0.00000000
 20
0.00000000
 11
0.00000000
 21
-25.400000
  0
LINE
  8
0
 10
0.00000000
 20
-25.400000
 11
10.1599999
 21
-25.400000
  0
LINE
  8
0
 10
10.1599999
 20
-25.400000
 11
10.1599999
 21
-22.859999
  0
ENDBLK
  8
0
  0
BLOCK
  8
0
  2
UCOL
 70
     0
 10
0.00000000
 20
0.00000000
  0
LINE
  8
0
 10
10.1599999
 20
0.00000000
 11
0.00000000
 21
0.00000000
  0
LINE
  8
0
 10
0.00000000
 20
0.00000000
 11
0.00000000
 21
-25.400000
  0
LINE
  8
0
 10
0.00000000
 20
-25.400000
 11
10.1599999
 21
-25.400000
  0
ENDBLK
  8
0
  0
BLOCK
  8
0
  2
WCOL
 70
     0
 10
0.00000000
 20
0.00000000
  0
LINE
  8
0
 10
-10.160000
 20
0.00000000
 11
10.1599999
 21
0.00000000
  0
LINE
  8
0
 10
0.00000000
 20
0.00000000
 11
0.00000000
 21
-25.400000
  0
LINE
  8
0
 10
-10.160000
 20
-25.400000
 11
10.1599999
 21
-25.400000
  0
ENDBLK
  8
0
  0
BLOCK
  8
0
  2
TCOL
 70
     0
 10
0.00000000
 20
0.00000000
  0
LINE
  8
0
 10
-12.700000
 20
-12.700000
 11
12.6999998
 21
-12.700000
  0
LINE
  8
0
 10
12.6999998
 20
-12.700000
 11
12.6999998
 21
12.6999998
  0
LINE
  8
0
 10
12.6999998
 20
12.6999998
 11
-12.700000
 21
12.6999998
  0
LINE
  8
0
 10
-12.700000
 20
12.6999998
 11
-12.700000
 21
-12.700000
  0
ENDBLK
  8
0
  0
BLOCK
  8
0
  2
TCOL2
 70
     0
 10
0.00000000
 20
0.00000000
  0
LINE
  8
0
 10
-6.3499999
 20
-12.700000
 11
6.34999992
 21
-12.700000
  0
LINE
  8
0
 10
6.34999992
 20
-12.700000
 11
6.34999992
 21
12.6999998
  0
LINE
  8
0
 10
6.34999992
 20
12.6999998
 11
-6.3499999
 21
12.6999998
  0
LINE
  8
0
 10
-6.3499999
 20
12.6999998
 11
-6.3499999
 21
-12.700000
  0
ENDBLK
  8
0
  0
BLOCK
  8
1
  2
PCOL
 70
     0
 10
0.00000000
 20
0.00000000
  0
CIRCLE
  8
1
 10
0.00000000
 20
0.00000000
 40
12.6999998
  0
ENDBLK
  8
1
  0
BLOCK
  8
0
  2
DCOL
 70
     0
 10
0.00000000
 20
0.00000000
  0
INSERT
  8
0
  2
CCOL
 10
2.53999996
 20
0.00000000
 41
1.00000000
 42
1.00000000
 43
1.00000000
 50
   0.000
  0
INSERT
  8
0
  2
CCOL
 10
-2.5400000
 20
0.00000000
 41
-1.0000000
 42
1.00000000
 43
1.00000000
 50
   0.000
  0
ENDBLK
  8
0
  0
BLOCK
  8
0
  2
GCOL
 70
     0
 10
0.00000000
 20
0.00000000
  0
LINE
  8
0
 10
10.1599999
 20
-2.5400000
 11
10.1599999
 21
0.00000000
  0
LINE
  8
0
 10
10.1599999
 20
0.00000000
 11
0.00000000
 21
0.00000000
  0
LINE
  8
0
 10
0.00000000
 20
0.00000000
 11
0.00000000
 21
-25.400000
  0
LINE
  8
0
 10
0.00000000
 20
-25.400000
 11
25.3999996
 21
-25.400000
  0
LINE
  8
0
 10
25.3999996
 20
-25.400000
 11
25.3999996
 21
-15.240001
  0
LINE
  8
0
 10
25.3999996
 20
-15.240001
 11
22.8599987
 21
-15.240001
  0
ENDBLK
  8
0
  0
BLOCK
  8
0
  2
ZCOL
 70
     0
 10
0.00000000
 20
0.00000000
  0
LINE
  8
0
 10
10.1599999
 20
-2.5400000
 11
10.1599999
 21
0.00000000
  0
LINE
  8
0
 10
10.1599999
 20
0.00000000
 11
0.00000000
 21
0.00000000
  0
LINE
  8
0
 10
0.00000000
 20
0.00000000
 11
0.00000000
 21
-25.400000
  0
LINE
  8
0
 10
0.00000000
 20
-25.400000
 11
-10.160000
 21
-25.400000
  0
LINE
  8
0
 10
-10.160000
 20
-25.400000
 11
-10.160000
 21
-22.859999
  0
ENDBLK
  8
0
  0
BLOCK
  8
0
  2
XCOL
 70
     0
 10
0.00000000
 20
0.00000000
  0
LINE
  8
0
 10
-14.287499
 20
1.58749996
 11
14.2874994
 21
1.58749996
  0
LINE
  8
0
 10
14.2874994
 20
1.58749996
 11
14.2874994
 21
-26.987499
  0
LINE
  8
0
 10
14.2874994
 20
-26.987499
 11
-14.287499
 21
-26.987499
  0
LINE
  8
0
 10
-14.287499
 20
-26.987499
 11
-14.287499
 21
1.58749996
  0
ENDBLK
  8
0
  0
BLOCK
  8
0
  2
SHIELD
 70
     0
 10
0.00000000
 20
0.00000000
  0
ARC
  8
0
 10
0.00000000
 20
38.0999985
 40
12.6999998
 50
   0.000
 51
 180.000
  0
LINE
  8
0
 10
-12.700000
 20
38.0999985
 11
-12.700000
 21
12.6999998
  0
LINE
  8
0
 10
-12.700000
 20
12.6999998
 11
0.00000000
 21
0.00000000
  0
LINE
  8
0
 10
0.00000000
 20
0.00000000
 11
12.6999998
 21
12.6999998
  0
LINE
  8
0
 10
12.6999998
 20
12.6999998
 11
12.6999998
 21
38.0999985
  0
ENDBLK
  8
0
  0
BLOCK
  8
7
  2
CUTSEC
 70
     0
 10
0.00000000
 20
0.00000000
  0
LINE
  8
7
 10
-246.35410
 20
0.00000000
 11
-82.118027
 21
0.00000000
  0
LINE
  8
7
 10
82.1180267
 20
0.00000000
 11
246.354095
 21
0.00000000
  0
LINE
  8
7
 10
246.354095
 20
0.00000000
 11
246.354095
 21
98.5416336
  0
INSERT
  8
7
  2
ARROWP
 10
246.354095
 20
312.048523
 41
1.00000000
 42
1.00000000
 43
1.00000000
 50
  90.000
  0
ENDBLK
  8
7
  0
BLOCK
  8
7
  2
DETAIL
 70
     0
 10
0.00000000
 20
0.00000000
  0
CIRCLE
  8
7
 10
0.00000000
 20
0.00000000
 40
82.1180267
  0
LINE
  8
7
 10
82.1180267
 20
0.00000000
 11
361.319305
 21
0.00000000
  0
ENDBLK
  8
7
  0
BLOCK
  8
0
  2
ROFFRM
 70
     0
 10
0.00000000
 20
0.00000000
999
START:   AREA=Match Line
999
END:     AREA=Match Line
999
START:   AREA=Extension OutLines
999
END:     AREA=Extension OutLines
999
START:   AREA=Sheet Angle
  0
LINE
  8
5
 10
0.00000000
 20
22596.0000
 11
0.00000000
 21
11298.0000
  0
LINE
  8
5
 10
0.00000000
 20
11298.0000
 11
0.00000000
 21
0.00000000
  0
LINE
  8
5
 10
20670.0000
 20
22596.0000
 11
20670.0000
 21
11298.0000
  0
LINE
  8
5
 10
20670.0000
 20
11298.0000
 11
20670.0000
 21
0.00000000
  0
LINE
  8
5
 10
0.00000000
 20
0.00000000
 11
20670.0000
 21
0.00000000
  0
LINE
  8
5
 10
0.00000000
 20
22596.0000
 11
20670.0000
 21
22596.0000
999
END:     AREA=Sheet Angle
999
START:   AREA=Soffit Angle
999
END:     AREA=Soffit Angle
999
START:   AREA=Frame Lines
  0
LINE
  8
4
 10
153.971298
 20
0.00000000
 11
153.971298
 21
22596.0000
  0
LINE
  8
4
 10
5335.00000
 20
0.00000000
 11
5335.00000
 21
22596.0000
  0
LINE
  8
4
 10
10335.0000
 20
0.00000000
 11
10335.0000
 21
22596.0000
  0
LINE
  8
4
 10
15335.0000
 20
0.00000000
 11
15335.0000
 21
22596.0000
  0
LINE
  8
4
 10
20516.0273
 20
0.00000000
 11
20516.0273
 21
22596.0000
999
END:     AREA=Frame Lines
999
START:   AREA=Eaves
999
END:     AREA=Eaves
999
START:   AREA=Purlins
999
END:     AREA=Purlins
999
START:   AREA=Purlin Strut
999
END:     AREA=Purlin Strut
999
START:   AREA=Purlin Clips
999
END:     AREA=Purlin Clips
999
START:   AREA=Cable
  0
LINE
  8
1
 10
153.971298
 20
16357.5996
 11
5335.00000
 21
22544.6758
  0
LINE
  8
1
 10
153.971298
 20
22544.6758
 11
5335.00000
 21
16357.5996
  0
TEXT
  8
3
 7
SIMPLEX
 10
1152.86218
 20
17630.3965
 40
205.295074
  1
CB-3
 50
  50.057
  0
TEXT
  8
3
 7
SIMPLEX
 10
3822.07446
 20
18244.2441
 40
205.295074
  1
CB-3
 50
 -50.057
  0
LINE
  8
1
 10
153.971298
 20
11498.0000
 11
5335.00000
 21
16254.9521
  0
LINE
  8
1
 10
153.971298
 20
16254.9521
 11
5335.00000
 21
11498.0000
  0
TEXT
  8
3
 7
SIMPLEX
 10
1119.63354
 20
12454.2969
 40
205.295074
  1
CB-4
 50
  42.557
  0
TEXT
  8
3
 7
SIMPLEX
 10
3779.56982
 20
12995.7910
 40
205.295074
  1
CB-4
 50
 -42.557
  0
LINE
  8
1
 10
153.971298
 20
6341.06006
 11
5335.00000
 21
11098.0000
  0
LINE
  8
1
 10
153.971298
 20
11098.0000
 11
5335.00000
 21
6341.06006
  0
TEXT
  8
3
 7
SIMPLEX
 10
1119.63330
 20
7297.35352
 40
205.295074
  1
CB-4
 50
  42.556
  0
TEXT
  8
3
 7
SIMPLEX
 10
3779.56958
 20
7838.84717
 40
205.295074
  1
CB-4
 50
 -42.556
  0
LINE
  8
1
 10
153.971298
 20
51.3237686
 11
5335.00000
 21
6238.41260
  0
LINE
  8
1
 10
153.971298
 20
6238.41260
 11
5335.00000
 21
51.3237686
  0
TEXT
  8
3
 7
SIMPLEX
 10
1152.86230
 20
1324.12231
 40
205.295074
  1
CB-3
 50
  50.057
  0
TEXT
  8
3
 7
SIMPLEX
 10
3822.07446
 20
1937.97180
 40
205.295074
  1
CB-3
 50
 -50.057
  0
LINE
  8
1
 10
15335.0000
 20
16357.5996
 11
20516.0273
 21
22544.6758
  0
LINE
  8
1
 10
15335.0000
 20
22544.6758
 11
20516.0273
 21
16357.5996
  0
TEXT
  8
3
 7
SIMPLEX
 10
16333.8896
 20
17630.3965
 40
205.295074
  1
CB-3
 50
  50.057
  0
TEXT
  8
3
 7
SIMPLEX
 10
19003.1035
 20
18244.2441
 40
205.295074
  1
CB-3
 50
 -50.057
  0
LINE
  8
1
 10
15335.0000
 20
11498.0000
 11
20516.0273
 21
16254.9521
  0
LINE
  8
1
 10
15335.0000
 20
16254.9521
 11
20516.0273
 21
11498.0000
  0
TEXT
  8
3
 7
SIMPLEX
 10
16300.6621
 20
12454.2969
 40
205.295074
  1
CB-4
 50
  42.557
  0
TEXT
  8
3
 7
SIMPLEX
 10
18960.5996
 20
12995.7910
 40
205.295074
  1
CB-4
 50
 -42.557
  0
LINE
  8
1
 10
15335.0000
 20
6341.06006
 11
20516.0273
 21
11098.0000
  0
LINE
  8
1
 10
15335.0000
 20
11098.0000
 11
20516.0273
 21
6341.06006
  0
TEXT
  8
3
 7
SIMPLEX
 10
16300.6621
 20
7297.35352
 40
205.295074
  1
CB-4
 50
  42.556
  0
TEXT
  8
3
 7
SIMPLEX
 10
18960.5996
 20
7838.84717
 40
205.295074
  1
CB-4
 50
 -42.556
  0
LINE
  8
1
 10
15335.0000
 20
51.3237686
 11
20516.0273
 21
6238.41260
  0
LINE
  8
1
 10
15335.0000
 20
6238.41260
 11
20516.0273
 21
51.3237686
  0
TEXT
  8
3
 7
SIMPLEX
 10
16333.8916
 20
1324.12231
 40
205.295074
  1
CB-3
 50
  50.057
  0
TEXT
  8
3
 7
SIMPLEX
 10
19003.1055
 20
1937.97180
 40
205.295074
  1
CB-3
 50
 -50.057
999
END:     AREA=Cable
999
START:   AREA=Wall Bracing
999
END:     AREA=Wall Bracing
999
START:   AREA=Wide Open Strapping
999
END:     AREA=Wide Open Strapping
999
START:   AREA=Accessories
999
END:     AREA=Accessories
999
START:   AREA=Extend Beam
999
END:     AREA=Extend Beam
999
START:   AREA=Extend Hip/Stub Beam
999
END:     AREA=Extend Hip/Stub Beam
999
START:   AREA=Extend Support Column
999
START:   AREA=Extend Support Column
999
START:   AREA=Extend Facia
999
END:     AREA=Extend Facia
999
START:   AREA=Extend Purlin
999
END:     AREA=Extend Purlin
999
START:   AREA=Extend Eave
999
END:     AREA=Extend Eave
999
START:   AREA=Extend Brace
999
END:     AREA=Extend Brace
999
START:   AREA=Extension Angle
999
END:     AREA=Extension Angle
999
START:   AREA=Soldier Rafter/Cable
999
END:     AREA=Soldier Rafter/Cable
999
START:   AREA=JackBeams
999
END:     AREA=JackBeams
999
START:   AREA=JackBeams
999
END:     AREA=JackBeams
999
START:   AREA=Endwall Pieces
  0
INSERT
  8
10
  2
WCOL
 10
51.3237686
 20
16261.0020
 41
8.08248329
 42
8.08248329
 43
8.08248329
 50
  90.000
  0
TEXT
  8
3
 7
SIMPLEX
 10
-831.44507
 20
16158.3516
 40
205.295074
  1
EC-1
 50
   0.000
  0
INSERT
  8
10
  2
WCOL
 10
51.3237686
 20
6334.99951
 41
8.08248329
 42
8.08248329
 43
8.08248329
 50
  90.000
  0
TEXT
  8
3
 7
SIMPLEX
 10
-903.29834
 20
6232.35156
 40
205.295074
  1
EC-2
 50
   0.000
  0
INSERT
  8
10
  2
WCOL
 10
20413.3809
 20
6335.00049
 41
8.08248329
 42
8.08248329
 43
8.08248329
 50
  90.000
  0
TEXT
  8
3
 7
SIMPLEX
 10
20772.6465
 20
6232.35254
 40
205.295074
  1
EC-1
 50
   0.000
  0
INSERT
  8
10
  2
WCOL
 10
20413.3809
 20
16261.0020
 41
8.08248329
 42
8.08248329
 43
8.08248329
 50
  90.000
  0
TEXT
  8
3
 7
SIMPLEX
 10
20772.6465
 20
16158.3516
 40
205.295074
  1
EC-2
 50
   0.000
999
END:     AREA=Endwall Pieces
999
START:   AREA=Sidewall Pieces
  0
TEXT
  8
3
 7
SIMPLEX
 10
359.266388
 20
-256.61884
 40
205.295074
  1
 CL1-1
 50
   0.000
  0
INSERT
  8
10
  2
WCOL
 10
153.971298
 20
230.956955
 41
8.08248329
 42
8.08248329
 43
8.08248329
 50
   0.000
  0
TEXT
  8
3
 7
SIMPLEX
 10
5540.29492
 20
-256.61884
 40
205.295074
  1
 CL2-1
 50
   0.000
  0
INSERT
  8
10
  2
WCOL
 10
5335.00000
 20
230.956955
 41
8.08248329
 42
8.08248329
 43
8.08248329
 50
   0.000
  0
TEXT
  8
3
 7
SIMPLEX
 10
10540.2949
 20
-256.61884
 40
205.295074
  1
 CL2-1
 50
   0.000
  0
INSERT
  8
10
  2
WCOL
 10
10335.0000
 20
230.956955
 41
8.08248329
 42
8.08248329
 43
8.08248329
 50
   0.000
  0
TEXT
  8
3
 7
SIMPLEX
 10
15540.2939
 20
-256.61884
 40
205.295074
  1
 CL2-1
 50
   0.000
  0
INSERT
  8
10
  2
WCOL
 10
15335.0000
 20
230.956955
 41
8.08248329
 42
8.08248329
 43
8.08248329
 50
   0.000
  0
TEXT
  8
3
 7
SIMPLEX
 10
20721.3223
 20
-256.61884
 40
205.295074
  1
 CL1-1
 50
   0.000
  0
INSERT
  8
10
  2
WCOL
 10
20516.0273
 20
230.956955
 41
8.08248329
 42
8.08248329
 43
8.08248329
 50
   0.000
  0
TEXT
  8
3
 7
SIMPLEX
 10
20721.3223
 20
22647.3242
 40
205.295074
  1
 CL1-1
 50
   0.000
  0
INSERT
  8
10
  2
WCOL
 10
20516.0273
 20
22570.3379
 41
-8.0824833
 42
8.08248329
 43
8.08248329
 50
   0.000
  0
TEXT
  8
3
 7
SIMPLEX
 10
15540.2939
 20
22647.3242
 40
205.295074
  1
 CL2-1
 50
   0.000
  0
INSERT
  8
10
  2
WCOL
 10
15335.0000
 20
22570.3379
 41
-8.0824833
 42
8.08248329
 43
8.08248329
 50
   0.000
  0
TEXT
  8
3
 7
SIMPLEX
 10
10540.2949
 20
22647.3242
 40
205.295074
  1
 CL2-1
 50
   0.000
  0
INSERT
  8
10
  2
WCOL
 10
10335.0000
 20
22570.3379
 41
-8.0824833
 42
8.08248329
 43
8.08248329
 50
   0.000
  0
TEXT
  8
3
 7
SIMPLEX
 10
5540.29492
 20
22647.3242
 40
205.295074
  1
 CL2-1
 50
   0.000
  0
INSERT
  8
10
  2
WCOL
 10
5335.00000
 20
22570.3379
 41
-8.0824833
 42
8.08248329
 43
8.08248329
 50
   0.000
  0
TEXT
  8
3
 7
SIMPLEX
 10
359.267059
 20
22647.3242
 40
205.295074
  1
 CL1-1
 50
   0.000
  0
INSERT
  8
10
  2
WCOL
 10
153.972000
 20
22570.3379
 41
-8.0824833
 42
8.08248329
 43
8.08248329
 50
   0.000
  0
TEXT
  8
3
 7
SIMPLEX
 10
564.561462
 20
19615.4219
 40
205.295074
  1
 RF1-2
 50
  90.000
  0
TEXT
  8
3
 7
SIMPLEX
 10
564.561462
 20
14898.1055
 40
205.295074
  1
 RF1-3
 50
  90.000
  0
TEXT
  8
3
 7
SIMPLEX
 10
564.561462
 20
8026.37891
 40
205.295074
  1
 RF1-3
 50
  90.000
  0
TEXT
  8
3
 7
SIMPLEX
 10
564.561462
 20
3309.06274
 40
205.295074
  1
 RF1-2
 50
  90.000
  0
TEXT
  8
3
 7
SIMPLEX
 10
5745.58984
 20
19615.4219
 40
205.295074
  1
 RF2-2
 50
  90.000
  0
TEXT
  8
3
 7
SIMPLEX
 10
5745.58984
 20
14898.1055
 40
205.295074
  1
 RF2-3
 50
  90.000
  0
TEXT
  8
3
 7
SIMPLEX
 10
5745.58984
 20
8026.37891
 40
205.295074
  1
 RF2-3
 50
  90.000
  0
TEXT
  8
3
 7
SIMPLEX
 10
5745.58984
 20
3309.06274
 40
205.295074
  1
 RF2-2
 50
  90.000
  0
TEXT
  8
3
 7
SIMPLEX
 10
10745.5908
 20
19615.4219
 40
205.295074
  1
 RF2-2
 50
  90.000
  0
TEXT
  8
3
 7
SIMPLEX
 10
10745.5908
 20
14898.1055
 40
205.295074
  1
 RF2-3
 50
  90.000
  0
TEXT
  8
3
 7
SIMPLEX
 10
10745.5908
 20
8026.37891
 40
205.295074
  1
 RF2-3
 50
  90.000
  0
TEXT
  8
3
 7
SIMPLEX
 10
10745.5908
 20
3309.06274
 40
205.295074
  1
 RF2-2
 50
  90.000
  0
TEXT
  8
3
 7
SIMPLEX
 10
15745.5908
 20
19615.4219
 40
205.295074
  1
 RF2-2
 50
  90.000
  0
TEXT
  8
3
 7
SIMPLEX
 10
15745.5908
 20
14898.1055
 40
205.295074
  1
 RF2-3
 50
  90.000
  0
TEXT
  8
3
 7
SIMPLEX
 10
15745.5908
 20
8026.37891
 40
205.295074
  1
 RF2-3
 50
  90.000
  0
TEXT
  8
3
 7
SIMPLEX
 10
15745.5908
 20
3309.06274
 40
205.295074
  1
 RF2-2
 50
  90.000
  0
TEXT
  8
3
 7
SIMPLEX
 10
20926.6191
 20
19615.4219
 40
205.295074
  1
 RF1-2
 50
  90.000
  0
TEXT
  8
3
 7
SIMPLEX
 10
20926.6191
 20
14898.1055
 40
205.295074
  1
 RF1-3
 50
  90.000
  0
TEXT
  8
3
 7
SIMPLEX
 10
20926.6191
 20
8026.37891
 40
205.295074
  1
 RF1-3
 50
  90.000
  0
TEXT
  8
3
 7
SIMPLEX
 10
20926.6191
 20
3309.06274
 40
205.295074
  1
 RF1-2
 50
  90.000
999
END:     AREA=Sidewall Pieces
999
START:   AREA=Additional Columns
999
END:     AREA=Additional Columns
999
START:   AREA=Roof Pieces
999
END:     AREA=Roof Pieces
999
START:   AREA=EndWall Rafter
999
END:     AREA=EndWall Rafter
999
START:   AREA=Dimensions
  0
LINE
  8
12
 10
-795.51837
 20
22596.0000
 11
-3398.6599
 21
22596.0000
  0
LINE
  8
12
 10
-795.51837
 20
0.00000000
 11
-3398.6599
 21
0.00000000
  0
LINE
  8
2
 10
-3193.3647
 20
22596.0000
 11
-3193.3647
 21
0.00000000
  0
INSERT
  8
2
  2
ARROW
 10
-3193.3647
 20
22596.0000
 41
1.00000000
 42
1.00000000
 43
1.00000000
 50
  90.000
  0
INSERT
  8
2
  2
ARROW
 10
-3193.3647
 20
0.00000000
 41
1.00000000
 42
1.00000000
 43
1.00000000
 50
 270.000
  0
CIRCLE
  8
13
 10
-3645.0139
 20
22596.0000
 40
246.354095
  0
TEXT
  8
13
 7
SIMPLEX
 10
-3755.8733
 20
22485.1406
 40
221.718689
  1
D
 72
           1
 11
-3645.0139
 21
22596.0000
 73
           2
 50
   0.000
  0
CIRCLE
  8
13
 10
-3645.0139
 20
0.00000000
 40
246.354095
  0
TEXT
  8
13
 7
SIMPLEX
 10
-3755.8733
 20
-110.85934
 40
221.718689
  1
A
 72
           1
 11
-3645.0139
 21
0.00000000
 73
           2
 50
   0.000
  0
LINE
  8
12
 10
-3398.6599
 20
11298.0000
 11
-795.51837
 21
11298.0000
  0
INSERT
  8
2
  2
ARROW
 10
-3193.3647
 20
11298.0000
 41
1.00000000
 42
1.00000000
 43
1.00000000
 50
  90.000
  0
INSERT
  8
2
  2
ARROW
 10
-3193.3647
 20
11298.0000
 41
1.00000000
 42
1.00000000
 43
1.00000000
 50
 270.000
  0
TEXT
  8
15
 7
SIMPLEX
 10
-2885.4221
 20
15612.5820
 40
205.295074
  1
ROOF SURFACE 2
 50
  90.000
  0
TEXT
  8
11
 7
SIMPLEX
 10
-3261.7961
 20
16505.6152
 40
205.295074
  1
11298
 50
  90.000
  0
TEXT
  8
15
 7
SIMPLEX
 10
-2885.4221
 20
4314.58252
 40
205.295074
  1
ROOF SURFACE 3
 50
  90.000
  0
TEXT
  8
11
 7
SIMPLEX
 10
-3261.7961
 20
5207.61572
 40
205.295074
  1
11298
 50
  90.000
  0
LINE
  8
12
 10
0.00000000
 20
23391.5195
 11
0.00000000
 21
25994.6602
  0
LINE
  8
12
 10
20670.0000
 20
23391.5195
 11
20670.0000
 21
25994.6602
  0
LINE
  8
2
 10
0.00000000
 20
25789.3652
 11
20670.0000
 21
25789.3652
  0
LINE
  8
2
 10
0.00000000
 20
24557.5957
 11
20670.0000
 21
24557.5957
  0
INSERT
  8
2
  2
ARROW
 10
0.00000000
 20
24557.5957
 41
1.00000000
 42
1.00000000
 43
1.00000000
 50
 180.000
  0
INSERT
  8
2
  2
ARROW
 10
0.00000000
 20
25789.3652
 41
1.00000000
 42
1.00000000
 43
1.00000000
 50
 180.000
  0
INSERT
  8
2
  2
ARROW
 10
20670.0000
 20
24557.5957
 41
1.00000000
 42
1.00000000
 43
1.00000000
 50
   0.000
  0
INSERT
  8
2
  2
ARROW
 10
20670.0000
 20
25789.3652
 41
1.00000000
 42
1.00000000
 43
1.00000000
 50
   0.000
  0
CIRCLE
  8
13
 10
0.00000000
 20
26241.0156
 40
246.354095
  0
TEXT
  8
13
 7
SIMPLEX
 10
-72.058563
 20
26130.1563
 40
221.718689
  1
1
 72
           1
 11
0.00000000
 21
26241.0156
 73
           2
 50
   0.000
  0
CIRCLE
  8
13
 10
20670.0000
 20
26241.0156
 40
246.354095
  0
TEXT
  8
13
 7
SIMPLEX
 10
20559.1406
 20
26130.1563
 40
221.718689
  1
5
 72
           1
 11
20670.0000
 21
26241.0156
 73
           2
 50
   0.000
  0
INSERT
  8
2
  2
ARROW
 10
5335.00000
 20
24557.5957
 41
1.00000000
 42
1.00000000
 43
1.00000000
 50
   0.000
  0
INSERT
  8
2
  2
ARROW
 10
5335.00000
 20
24557.5957
 41
1.00000000
 42
1.00000000
 43
1.00000000
 50
 180.000
  0
CIRCLE
  8
13
 10
5335.00000
 20
25214.5391
 40
246.354095
  0
TEXT
  8
13
 7
SIMPLEX
 10
5224.14014
 20
25103.6797
 40
221.718689
  1
2
 72
           1
 11
5335.00000
 21
25214.5391
 73
           2
 50
   0.000
  0
LINE
  8
12
 10
5335.00000
 20
24968.1855
 11
5335.00000
 21
24064.8867
  0
INSERT
  8
2
  2
ARROW
 10
10335.0000
 20
24557.5957
 41
1.00000000
 42
1.00000000
 43
1.00000000
 50
   0.000
  0
INSERT
  8
2
  2
ARROW
 10
10335.0000
 20
24557.5957
 41
1.00000000
 42
1.00000000
 43
1.00000000
 50
 180.000
  0
CIRCLE
  8
13
 10
10335.0000
 20
25214.5391
 40
246.354095
  0
TEXT
  8
13
 7
SIMPLEX
 10
10224.1406
 20
25103.6797
 40
221.718689
  1
3
 72
           1
 11
10335.0000
 21
25214.5391
 73
           2
 50
   0.000
  0
LINE
  8
12
 10
10335.0000
 20
24968.1855
 11
10335.0000
 21
24064.8867
  0
INSERT
  8
2
  2
ARROW
 10
15335.0000
 20
24557.5957
 41
1.00000000
 42
1.00000000
 43
1.00000000
 50
   0.000
  0
INSERT
  8
2
  2
ARROW
 10
15335.0000
 20
24557.5957
 41
1.00000000
 42
1.00000000
 43
1.00000000
 50
 180.000
  0
CIRCLE
  8
13
 10
15335.0000
 20
25214.5391
 40
246.354095
  0
TEXT
  8
13
 7
SIMPLEX
 10
15224.1406
 20
25103.6797
 40
221.718689
  1
4
 72
           1
 11
15335.0000
 21
25214.5391
 73
           2
 50
   0.000
  0
LINE
  8
12
 10
15335.0000
 20
24968.1855
 11
15335.0000
 21
24064.8867
  0
TEXT
  8
11
 7
SIMPLEX
 10
2256.90991
 20
24626.0273
 40
205.295074
  1
5335
 50
   0.000
  0
TEXT
  8
11
 7
SIMPLEX
 10
7424.41016
 20
24626.0273
 40
205.295074
  1
5000
 50
   0.000
  0
TEXT
  8
11
 7
SIMPLEX
 10
12424.4102
 20
24626.0273
 40
205.295074
  1
5000
 50
   0.000
  0
TEXT
  8
11
 7
SIMPLEX
 10
17591.9102
 20
24626.0273
 40
205.295074
  1
5335
 50
   0.000
  0
LINE
  8
12
 10
153.971298
 20
23391.5195
 11
153.971298
 21
23822.6387
  0
LINE
  8
12
 10
0.00000000
 20
23391.5195
 11
0.00000000
 21
23822.6387
  0
LINE
  8
2
 10
0.00000000
 20
23719.9902
 11
-410.59015
 21
23719.9902
  0
LINE
  8
2
 10
153.971298
 20
23719.9902
 11
564.561462
 21
23719.9902
  0
INSERT
  8
2
  2
ARROW
 10
0.00000000
 20
23719.9902
 41
1.00000000
 42
1.00000000
 43
1.00000000
 50
   0.000
  0
INSERT
  8
2
  2
ARROW
 10
153.971298
 20
23719.9902
 41
1.00000000
 42
1.00000000
 43
1.00000000
 50
 180.000
  0
TEXT
  8
11
 7
SIMPLEX
 10
-718.53278
 20
23788.4219
 40
205.295074
  1
335
 50
   0.000
  0
LINE
  8
12
 10
20516.0273
 20
23391.5195
 11
20516.0273
 21
23822.6387
  0
LINE
  8
12
 10
20670.0000
 20
23391.5195
 11
20670.0000
 21
23822.6387
  0
LINE
  8
2
 10
20516.0273
 20
23719.9902
 11
20105.4375
 21
23719.9902
  0
LINE
  8
2
 10
20670.0000
 20
23719.9902
 11
21080.5898
 21
23719.9902
  0
INSERT
  8
2
  2
ARROW
 10
20516.0273
 20
23719.9902
 41
1.00000000
 42
1.00000000
 43
1.00000000
 50
   0.000
  0
INSERT
  8
2
  2
ARROW
 10
20670.0000
 20
23719.9902
 41
1.00000000
 42
1.00000000
 43
1.00000000
 50
 180.000
  0
TEXT
  8
11
 7
SIMPLEX
 10
20772.6484
 20
23788.4219
 40
205.295074
  1
335
 50
   0.000
  0
TEXT
  8
11
 7
SIMPLEX
 10
7866.32617
 20
25887.9063
 40
205.295074
  1
20670
 50
   0.000
  0
TEXT
  8
15
 7
SIMPLEX
 10
8892.80176
 20
25887.9063
 40
205.295074
  1
 OUT-TO-OUT OF STEEL
 50
   0.000
  0
TEXT
  8
15
 7
SIMPLEX
 10
5654.27246
 20
-2550.7913
 40
328.472107
  1
COLUMNS & RAFTERS MARKING PLAN
 72
           1
 11
10335.0000
 21
-2550.7913
 50
   0.000
999
END:     AREA=Dimensions
  0
ENDBLK
  8
0
  0
ENDSEC
  0
SECTION
  2
ENTITIES
  0
LINE
  8
22
 10
0.00000000
 20
0.00000000
 11
49376.6211
 21
0.00000000
  0
LINE
  8
22
 10
49376.6211
 20
0.00000000
 11
49376.6211
 21
34916.3320
  0
LINE
  8
22
 10
49376.6211
 20
34916.3320
 11
0.00000000
 21
34916.3320
  0
LINE
  8
22
 10
0.00000000
 20
34916.3320
 11
0.00000000
 21
0.00000000
  0
LINE
  8
0
 10
30564.1309
 20
0.00000000
 11
30564.1309
 21
3135.41577
  0
LINE
  8
0
 10
30564.1309
 20
3135.41577
 11
49376.6211
 21
3135.41577
  0
LINE
  8
0
 10
30564.1309
 20
0.00000000
 11
49376.6211
 21
0.00000000
  0
LINE
  8
0
 10
49376.6211
 20
0.00000000
 11
49376.6211
 21
3135.41577
  0
LINE
  8
0
 10
30564.1309
 20
1194.44409
 11
49376.6211
 21
1194.44409
  0
LINE
  8
0
 10
30564.1309
 20
1791.66614
 11
49376.6211
 21
1791.66614
  0
LINE
  8
0
 10
30564.1309
 20
2388.88818
 11
49376.6211
 21
2388.88818
  0
LINE
  8
0
 10
33251.6289
 20
0.00000000
 11
33251.6289
 21
2388.88818
  0
LINE
  8
0
 10
39970.3750
 20
0.00000000
 11
39970.3750
 21
2388.88818
  0
LINE
  8
0
 10
39970.3750
 20
597.222046
 11
49376.6211
 21
597.222046
  0
LINE
  8
0
 10
43255.0938
 20
1791.66614
 11
43255.0938
 21
1194.44409
  0
LINE
  8
0
 10
46241.2070
 20
1791.66614
 11
46241.2070
 21
1194.44409
  0
LINE
  8
0
 10
44748.1523
 20
1194.44409
 11
44748.1523
 21
597.222046
  0
TEXT
  8
14
 7
SIMPLEX
 10
30862.7422
 20
1940.97131
 40
298.611023
  1
PROJECT
 50
   0.000
  0
TEXT
  8
14
 7
SIMPLEX
 10
30862.7422
 20
1343.74939
 40
298.611023
  1
ID
 50
   0.000
  0
TEXT
  8
14
 7
SIMPLEX
 10
30862.7422
 20
746.527527
 40
298.611023
  1
PROJECT
 50
   0.000
  0
TEXT
  8
14
 7
SIMPLEX
 10
30862.7422
 20
149.305511
 40
298.611023
  1
ADDRESS
 50
   0.000
  0
TEXT
  8
14
 7
SIMPLEX
 10
33550.2383
 20
1940.97131
 40
298.611023
  1
Proposed Warehouse
 50
   0.000
  0
TEXT
  8
14
 7
SIMPLEX
 10
33550.2383
 20
1343.74939
 40
298.611023
  1
Q-1467
 50
   0.000
  0
TEXT
  8
14
 7
SIMPLEX
 10
33550.2383
 20
746.527527
 40
298.611023
  1
Proposed Warehouse
 50
   0.000
  0
TEXT
  8
14
 7
SIMPLEX
 10
33550.2383
 20
149.305511
 40
298.611023
  1
 
 50
   0.000
  0
TEXT
  8
14
 7
SIMPLEX
 10
34446.0703
 20
2538.19360
 40
447.916504
  1
Sivoko Steel Structures Ltd.
 50
   0.000
  0
TEXT
  8
14
 7
SIMPLEX
 10
40268.9883
 20
1940.97131
 40
298.611023
  1
ROOF FRAMING
 50
   0.000
  0
TEXT
  8
14
 7
SIMPLEX
 10
40268.9883
 20
1343.74939
 40
298.611023
  1
DESIGN:
 50
   0.000
  0
TEXT
  8
14
 7
SIMPLEX
 10
40268.9883
 20
746.527527
 40
298.611023
  1
DATE:
 50
   0.000
  0
TEXT
  8
14
 7
SIMPLEX
 10
41791.9023
 20
746.527527
 40
298.611023
  1
15/DEC/2025
 50
   0.000
  0
TEXT
  8
14
 7
SIMPLEX
 10
43553.7070
 20
1343.74939
 40
298.611023
  1
DRAFT:
 50
   0.000
  0
TEXT
  8
14
 7
SIMPLEX
 10
46539.8203
 20
1343.74939
 40
298.611023
  1
CHECK:
 50
   0.000
  0
TEXT
  8
14
 7
SIMPLEX
 10
44897.4570
 20
746.527527
 40
298.611023
  1
SHEET
 50
   0.000
  0
TEXT
  8
14
 7
SIMPLEX
 10
47584.9570
 20
746.527527
 40
298.611023
  1
OF
 50
   0.000
  0
TEXT
  8
14
 7
SIMPLEX
 10
46390.5117
 20
746.527527
 40
298.611023
  1
 
 50
   0.000
999
FIELD:@PAGE_ID
  0
TEXT
  8
14
 7
SIMPLEX
 10
48182.1758
 20
746.527527
 40
298.611023
  1
 
 50
   0.000
999
FIELD:@PAGE_TOTAL
  0
INSERT
  8
0
  2
ROFFRM
 10
15503.4756
 20
7253.32617
 41
1.00000000
 42
1.00000000
 43
1.00000000
 50
   0.000
  0
ENDSEC
  0
EOF
