999
SOURCE:MBS   PROGRAM:EWSWDWG   CELL:SwDwg-B   CLASS:ELEVATION   MODE:
  0
SECTION
  2
HEADER
  9
$ACADVER
  1
AC1009
  9
$EXTMIN
 10
0.00000000
 20
0.00000000
  9
$EXTMAX
 10
28122.7031
 20
19886.7715
  9
$LIMMIN
 10
0.00000000
 20
0.00000000
  9
$LIMMAX
 10
28122.7031
 20
19886.7715
  9
$FILLMODE
 70
     1
  9
$HANDLING
 70
     0
  0
ENDSEC
  0
SECTION
  2
TABLES
  0
TABLE
  2
LTYPE
 70
4
  0
LTYPE
  2
CONTIN
 70
   64
  3
SOLID LINE
  72
   65
 73
    0
 40
 0.000
  0
LTYPE
  2
CENTER
 70
   64
  3
____ _ ____ _ _
  72
   65
 73
    4
 40
1700.8
 49
1063.0
 49
-212.6
 49
212.59
 49
-212.6
  0
LTYPE
  2
DASHED
 70
   64
  3
__ __ __ __ __
  72
   65
 73
    2
 40
318.89
 49
212.59
 49
-105.4
  0
LTYPE
  2
CONTINUOUS
 70
   64
  3
SOLID LINE
  72
   65
 73
    0
 40
 0.000
  0
ENDTAB
  0
TABLE
  2
LAYER
 70
27
  0
LAYER
  2
0
 70
     0
 62
     7
  6
CONTIN
  0
LAYER
  2
1
 70
     0
 62
     7
  6
CONTIN
  0
LAYER
  2
2
 70
     0
 62
     6
  6
CONTIN
  0
LAYER
  2
3
 70
     0
 62
     5
  6
CONTIN
  0
LAYER
  2
4
 70
     0
 62
     7
  6
CONTIN
  0
LAYER
  2
5
 70
     0
 62
     5
  6
DASHED
  0
LAYER
  2
6
 70
     0
 62
     4
  6
CONTIN
  0
LAYER
  2
7
 70
     0
 62
     7
  6
CONTIN
  0
LAYER
  2
8
 70
     0
 62
     2
  6
DASHED
  0
LAYER
  2
9
 70
     0
 62
     7
  6
DASHED
  0
LAYER
  2
10
 70
     0
 62
     7
  6
CONTIN
  0
LAYER
  2
11
 70
     0
 62
     6
  6
CONTIN
  0
LAYER
  2
12
 70
     0
 62
     7
  6
CONTIN
  0
LAYER
  2
13
 70
     0
 62
     5
  6
CONTIN
  0
LAYER
  2
14
 70
     0
 62
     1
  6
CONTIN
  0
LAYER
  2
15
 70
     0
 62
     1
  6
CONTIN
  0
LAYER
  2
16
 70
     0
 62
     1
  6
CONTIN
  0
LAYER
  2
17
 70
     0
 62
     6
  6
CONTIN
  0
LAYER
  2
18
 70
     0
 62
     1
  6
CONTIN
  0
LAYER
  2
19
 70
     0
 62
     7
  6
CONTIN
  0
LAYER
  2
20
 70
     0
 62
     7
  6
CONTIN
  0
LAYER
  2
21
 70
     0
 62
     7
  6
CONTIN
  0
LAYER
  2
22
 70
     0
 62
     7
  6
CONTIN
  0
LAYER
  2
23
 70
     0
 62
     7
  6
DASHED
  0
LAYER
  2
24
 70
     0
 62
     7
  6
CONTIN
  0
LAYER
  2
25
 70
     0
 62
     7
  6
CONTIN
  0
LAYER
  2
26
 70
     0
 62
     7
  6
CONTIN
  0
LAYER
  2
27
 70
     0
 62
     7
  6
CENTER
  0
ENDTAB
  0
TABLE
  2
STYLE
 70
  0
  0
STYLE
  2
SIMPLEX
 70
  0
 40
  0.000
 41
  1.000
 42
  1.000
 50
  0.000
 71
  0
  3
SIMPLEX
  0
STYLE
  2
ROMANS
 70
  0
 40
  0.000
 41
  1.000
 42
  1.000
 50
  0.000
 71
  0
  3
ROMANS
  0
STYLE
  2
OPEN
 70
  0
 40
  0.000
 41
  1.000
 42
  1.000
 50
  0.000
 71
  0
  3
SIMPLEX
  0
STYLE
  2
ARIAL
 70
  0
 40
  0.000
 41
  1.000
 42
  1.000
 50
  0.000
 71
  0
  3
ARIAL.TTF
  0
STYLE
  2
VERDANAB
 70
  0
 40
  0.000
 41
  1.000
 42
  1.000
 50
  0.000
 71
  0
  3
VERDANAB.TTF
  0
ENDTAB
  0
ENDSEC
  0
SECTION
  2
BLOCKS
  0
BLOCK
  8
0
  2
ARROWP
 70
     0
 10
0.00000000
 20
0.00000000
  0
LINE
  8
0
 10
0.00000000
 20
0.00000000
 11
-121.60391
 21
-20.267319
  0
LINE
  8
0
 10
0.00000000
 20
0.00000000
 11
-121.60391
 21
20.2673187
  0
LINE
  8
0
 10
-121.60391
 20
20.2673187
 11
-121.60391
 21
-20.267319
  0
ENDBLK
  8
0
  0
BLOCK
  8
0
  2
ARROW
 70
     0
 10
0.00000000
 20
0.00000000
  0
LINE
  8
0
 10
0.00000000
 20
0.00000000
 11
-121.60391
 21
-20.267319
  0
LINE
  8
0
 10
0.00000000
 20
0.00000000
 11
-121.60391
 21
20.2673187
  0
LINE
  8
0
 10
-121.60391
 20
20.2673187
 11
-121.60391
 21
-20.267319
  0
ENDBLK
  8
0
  0
BLOCK
  8
0
  2
MARKER
 70
     0
 10
0.00000000
 20
0.00000000
  0
LINE
  8
0
 10
0.00000000
 20
0.00000000
 11
25.3999996
 21
25.3999996
  0
LINE
  8
0
 10
25.3999996
 20
25.3999996
 11
-25.400000
 21
25.3999996
  0
LINE
  8
0
 10
-25.400000
 20
25.3999996
 11
0.00000000
 21
0.00000000
  0
ENDBLK
  8
0
  0
BLOCK
  8
0
  2
FLGCLP
 70
     0
 10
0.00000000
 20
0.00000000
  0
LINE
  8
0
 10
0.00000000
 20
0.00000000
 11
25.3999996
 21
25.3999996
  0
LINE
  8
0
 10
25.3999996
 20
25.3999996
 11
-25.400000
 21
25.3999996
  0
LINE
  8
0
 10
-25.400000
 20
25.3999996
 11
0.00000000
 21
0.00000000
  0
LINE
  8
0
 10
-8.4666672
 20
8.46666716
 11
8.46666716
 21
8.46666716
  0
LINE
  8
0
 10
-8.4666672
 20
8.46666716
 11
-8.4666672
 21
25.3999996
  0
LINE
  8
0
 10
8.46666716
 20
8.46666716
 11
8.46666716
 21
25.3999996
  0
ENDBLK
  8
0
  0
BLOCK
  8
0
  2
DIAMOND
 70
     0
 10
0.00000000
 20
0.00000000
  0
LINE
  8
0
 10
0.00000000
 20
0.00000000
 11
12.6999998
 21
12.6999998
  0
LINE
  8
0
 10
12.6999998
 20
12.6999998
 11
0.00000000
 21
25.3999996
  0
LINE
  8
0
 10
0.00000000
 20
25.3999996
 11
-12.700000
 21
12.6999998
  0
LINE
  8
0
 10
-12.700000
 20
12.6999998
 11
0.00000000
 21
0.00000000
  0
ENDBLK
  8
0
  0
BLOCK
  8
0
  2
SHIELD
 70
     0
 10
0.00000000
 20
0.00000000
  0
ARC
  8
0
 10
0.00000000
 20
38.0999985
 40
12.6999998
 50
   0.000
 51
 180.000
  0
LINE
  8
0
 10
-12.700000
 20
38.0999985
 11
-12.700000
 21
12.6999998
  0
LINE
  8
0
 10
-12.700000
 20
12.6999998
 11
0.00000000
 21
0.00000000
  0
LINE
  8
0
 10
0.00000000
 20
0.00000000
 11
12.6999998
 21
12.6999998
  0
LINE
  8
0
 10
12.6999998
 20
12.6999998
 11
12.6999998
 21
38.0999985
  0
ENDBLK
  8
0
  0
BLOCK
  8
0
  2
FINFLR
 70
     0
 10
0.00000000
 20
0.00000000
  0
LINE
  8
0
 10
0.00000000
 20
0.00000000
 11
12.6999998
 21
25.3999996
  0
LINE
  8
0
 10
12.6999998
 20
25.3999996
 11
-12.700000
 21
25.3999996
  0
LINE
  8
0
 10
-12.700000
 20
25.3999996
 11
0.00000000
 21
0.00000000
  0
LINE
  8
0
 10
0.00000000
 20
0.00000000
 11
0.00000000
 21
25.3999996
  0
SOLID
  8
0
 10
0.00000000
 20
0.00000000
 11
0.00000000
 21
25.3999996
 12
-12.700000
 22
25.3999996
 13
-12.700000
 23
25.3999996
  0
ENDBLK
  8
0
  0
BLOCK
  8
0
  2
CIRCLE
 70
     0
 10
0.00000000
 20
0.00000000
  0
CIRCLE
  8
1
 10
   0.000
 20
   0.000
 40
  25.400
  0
ENDBLK
  8
0
  0
BLOCK
  8
0
  2
HEXAGON
 70
     0
 10
0.00000000
 20
0.00000000
  0
LINE
  8
0
 10
0.00000000
 20
0.00000000
 11
7.62000084
 21
-10.160000
  0
LINE
  8
0
 10
7.62000084
 20
-10.160000
 11
17.7799988
 21
-10.160000
  0
LINE
  8
0
 10
17.7799988
 20
-10.160000
 11
25.3999996
 21
0.00000000
  0
LINE
  8
0
 10
25.3999996
 20
0.00000000
 11
17.7799988
 21
10.1599999
  0
LINE
  8
0
 10
17.7799988
 20
10.1599999
 11
7.62000084
 21
10.1599999
  0
LINE
  8
0
 10
7.62000084
 20
10.1599999
 11
0.00000000
 21
0.00000000
  0
ENDBLK
  8
0
  0
BLOCK
  8
0
  2
CCOL
 70
     0
 10
0.00000000
 20
0.00000000
  0
LINE
  8
0
 10
10.1599999
 20
-2.5400000
 11
10.1599999
 21
0.00000000
  0
LINE
  8
0
 10
10.1599999
 20
0.00000000
 11
0.00000000
 21
0.00000000
  0
LINE
  8
0
 10
0.00000000
 20
0.00000000
 11
0.00000000
 21
-25.400000
  0
LINE
  8
0
 10
0.00000000
 20
-25.400000
 11
10.1599999
 21
-25.400000
  0
LINE
  8
0
 10
10.1599999
 20
-25.400000
 11
10.1599999
 21
-22.859999
  0
ENDBLK
  8
0
  0
BLOCK
  8
0
  2
DCOL
 70
     0
 10
0.00000000
 20
0.00000000
  0
INSERT
  8
0
  2
CCOL
 10
2.53999996
 20
0.00000000
 41
1.00000000
 42
1.00000000
 43
1.00000000
 50
   0.000
  0
INSERT
  8
0
  2
CCOL
 10
-2.5400000
 20
0.00000000
 41
-1.0000000
 42
1.00000000
 43
1.00000000
 50
   0.000
  0
ENDBLK
  8
0
  0
BLOCK
  8
0
  2
UCOL
 70
     0
 10
0.00000000
 20
0.00000000
  0
LINE
  8
0
 10
10.1599999
 20
0.00000000
 11
0.00000000
 21
0.00000000
  0
LINE
  8
0
 10
0.00000000
 20
0.00000000
 11
0.00000000
 21
-25.400000
  0
LINE
  8
0
 10
0.00000000
 20
-25.400000
 11
10.1599999
 21
-25.400000
  0
ENDBLK
  8
0
  0
BLOCK
  8
0
  2
WCOL
 70
     0
 10
0.00000000
 20
0.00000000
  0
LINE
  8
0
 10
-10.160000
 20
0.00000000
 11
10.1599999
 21
0.00000000
  0
LINE
  8
0
 10
0.00000000
 20
0.00000000
 11
0.00000000
 21
-25.400000
  0
LINE
  8
0
 10
-10.160000
 20
-25.400000
 11
10.1599999
 21
-25.400000
  0
ENDBLK
  8
0
  0
BLOCK
  8
0
  2
ZCOL
 70
     0
 10
0.00000000
 20
0.00000000
  0
LINE
  8
0
 10
10.1599999
 20
-2.5400000
 11
10.1599999
 21
0.00000000
  0
LINE
  8
0
 10
10.1599999
 20
0.00000000
 11
0.00000000
 21
0.00000000
  0
LINE
  8
0
 10
0.00000000
 20
0.00000000
 11
0.00000000
 21
-25.400000
  0
LINE
  8
0
 10
0.00000000
 20
-25.400000
 11
-10.160000
 21
-25.400000
  0
LINE
  8
0
 10
-10.160000
 20
-25.400000
 11
-10.160000
 21
-22.859999
  0
ENDBLK
  8
0
  0
BLOCK
  8
0
  2
TCOL
 70
     0
 10
0.00000000
 20
0.00000000
  0
LINE
  8
0
 10
-12.700000
 20
-12.700000
 11
12.6999998
 21
-12.700000
  0
LINE
  8
0
 10
12.6999998
 20
-12.700000
 11
12.6999998
 21
12.6999998
  0
LINE
  8
0
 10
12.6999998
 20
12.6999998
 11
-12.700000
 21
12.6999998
  0
LINE
  8
0
 10
-12.700000
 20
12.6999998
 11
-12.700000
 21
-12.700000
  0
ENDBLK
  8
0
  0
BLOCK
  8
0
  2
TCOL2
 70
     0
 10
0.00000000
 20
0.00000000
  0
LINE
  8
0
 10
-6.3499999
 20
-12.700000
 11
6.34999992
 21
-12.700000
  0
LINE
  8
0
 10
6.34999992
 20
-12.700000
 11
6.34999992
 21
12.6999998
  0
LINE
  8
0
 10
6.34999992
 20
12.6999998
 11
-6.3499999
 21
12.6999998
  0
LINE
  8
0
 10
-6.3499999
 20
12.6999998
 11
-6.3499999
 21
-12.700000
  0
ENDBLK
  8
0
  0
BLOCK
  8
1
  2
PCOL
 70
     0
 10
0.00000000
 20
0.00000000
  0
CIRCLE
  8
1
 10
0.00000000
 20
0.00000000
 40
12.6999998
  0
ENDBLK
  8
1
  0
BLOCK
  8
0
  2
GCOL
 70
     0
 10
0.00000000
 20
0.00000000
  0
LINE
  8
0
 10
10.1599999
 20
-2.5400000
 11
10.1599999
 21
0.00000000
  0
LINE
  8
0
 10
10.1599999
 20
0.00000000
 11
0.00000000
 21
0.00000000
  0
LINE
  8
0
 10
0.00000000
 20
0.00000000
 11
0.00000000
 21
-25.400000
  0
LINE
  8
0
 10
0.00000000
 20
-25.400000
 11
25.3999996
 21
-25.400000
  0
LINE
  8
0
 10
25.3999996
 20
-25.400000
 11
25.3999996
 21
-15.240001
  0
LINE
  8
0
 10
25.3999996
 20
-15.240001
 11
22.8599987
 21
-15.240001
  0
ENDBLK
  8
0
  0
BLOCK
  8
0
  2
VSECTN
 70
     0
 10
0.00000000
 20
0.00000000
  0
LINE
  8
0
 10
-12.700000
 20
25.3999996
 11
12.6999998
 21
25.3999996
  0
LINE
  8
0
 10
-12.700000
 20
25.3999996
 11
0.00000000
 21
0.00000000
  0
LINE
  8
0
 10
0.00000000
 20
0.00000000
 11
12.6999998
 21
25.3999996
  0
ENDBLK
  8
0
  0
BLOCK
  8
0
  2
XCOL
 70
     0
 10
0.00000000
 20
0.00000000
  0
LINE
  8
0
 10
-14.287499
 20
1.58749996
 11
14.2874994
 21
1.58749996
  0
LINE
  8
0
 10
14.2874994
 20
1.58749996
 11
14.2874994
 21
-26.987499
  0
LINE
  8
0
 10
14.2874994
 20
-26.987499
 11
-14.287499
 21
-26.987499
  0
LINE
  8
0
 10
-14.287499
 20
-26.987499
 11
-14.287499
 21
1.58749996
  0
ENDBLK
  8
0
  0
BLOCK
  8
0
  2
SGUS
 70
     0
 10
0.00000000
 20
0.00000000
  0
LINE
  8
0
 10
0.00000000
 20
0.00000000
 11
7.62000084
 21
0.00000000
  0
LINE
  8
0
 10
7.62000084
 20
0.00000000
 11
17.7799988
 21
-25.400000
  0
LINE
  8
0
 10
17.7799988
 20
-25.400000
 11
25.3999996
 21
-25.400000
  0
ENDBLK
  8
0
  0
BLOCK
  8
7
  2
CUTSEC
 70
     0
 10
0.00000000
 20
0.00000000
  0
LINE
  8
7
 10
-196.43710
 20
0.00000000
 11
-46.770741
 21
0.00000000
  0
LINE
  8
7
 10
46.7707405
 20
0.00000000
 11
196.437103
 21
0.00000000
  0
LINE
  8
7
 10
196.437103
 20
0.00000000
 11
196.437103
 21
56.1248970
  0
INSERT
  8
7
  2
ARROWP
 10
196.437103
 20
177.728806
 41
1.00000000
 42
1.00000000
 43
1.00000000
 50
  90.000
  0
ENDBLK
  8
7
  0
BLOCK
  8
0
  2
WALLLITE
 70
     0
 10
0.00000000
 20
0.00000000
  0
LINE
  8
0
 10
25.3999996
 20
0.00000000
 11
0.00000000
 21
0.00000000
  0
LINE
  8
0
 10
0.00000000
 20
0.00000000
 11
0.00000000
 21
-25.400000
  0
LINE
  8
0
 10
0.00000000
 20
-25.400000
 11
25.3999996
 21
-25.400000
  0
LINE
  8
0
 10
25.3999996
 20
-25.400000
 11
25.3999996
 21
0.00000000
  0
LINE
  8
0
 10
0.00000000
 20
-25.400000
 11
0.00000000
 21
0.00000000
  0
LINE
  8
0
 10
6.34999992
 20
-25.400000
 11
6.34999992
 21
0.00000000
  0
LINE
  8
0
 10
12.6999998
 20
-25.400000
 11
12.6999998
 21
0.00000000
  0
LINE
  8
0
 10
19.0499992
 20
-25.400000
 11
19.0499992
 21
0.00000000
  0
ENDBLK
  8
0
  0
BLOCK
  8
7
  2
DETAIL
 70
     0
 10
0.00000000
 20
0.00000000
  0
CIRCLE
  8
7
 10
0.00000000
 20
0.00000000
 40
46.7707405
  0
LINE
  8
7
 10
46.7707405
 20
0.00000000
 11
205.791260
 21
0.00000000
  0
ENDBLK
  8
7
  0
BLOCK
  8
0
  2
SW2FRM
 70
     0
 10
0.00000000
 20
0.00000000
999
START:   AREA=Surface
  0
LINE
  8
5
 10
0.00000000
 20
0.00000000
 11
20670.0000
 21
0.00000000
  0
LINE
  8
5
 10
0.00000000
 20
0.00000000
 11
0.00000000
 21
7300.00000
  0
LINE
  8
5
 10
20670.0000
 20
0.00000000
 11
20670.0000
 21
7300.00000
999
END:     AREA=Surface
999
START:   AREA=Frames
  0
LINE
  8
4
 10
335.000000
 20
500.000000
 11
335.000000
 21
7271.93750
  0
LINE
  8
4
 10
5335.00000
 20
500.000000
 11
5335.00000
 21
7271.93750
  0
INSERT
  8
10
  2
WCOL
 10
5335.00000
 20
-56.124886
 41
4.60341932
 42
4.60341932
 43
4.60341932
 50
   0.000
  0
TEXT
  8
3
 7
SIMPLEX
 10
5101.14648
 20
-375.33517
 40
116.926849
  1
 CL2-1
 50
   0.000
  0
LINE
  8
4
 10
10335.0000
 20
500.000000
 11
10335.0000
 21
7271.93750
  0
INSERT
  8
10
  2
WCOL
 10
10335.0000
 20
-56.124886
 41
4.60341932
 42
4.60341932
 43
4.60341932
 50
   0.000
  0
TEXT
  8
3
 7
SIMPLEX
 10
10101.1465
 20
-375.33517
 40
116.926849
  1
 CL2-1
 50
   0.000
  0
LINE
  8
4
 10
15335.0000
 20
500.000000
 11
15335.0000
 21
7271.93750
  0
INSERT
  8
10
  2
WCOL
 10
15335.0000
 20
-56.124886
 41
4.60341932
 42
4.60341932
 43
4.60341932
 50
   0.000
  0
TEXT
  8
3
 7
SIMPLEX
 10
15101.1475
 20
-375.33517
 40
116.926849
  1
 CL2-1
 50
   0.000
  0
LINE
  8
4
 10
20335.0000
 20
500.000000
 11
20335.0000
 21
7271.93750
  0
INSERT
  8
10
  2
WCOL
 10
335.000000
 20
-56.124886
 41
4.60341932
 42
4.60341932
 43
4.60341932
 50
   0.000
  0
TEXT
  8
3
 7
SIMPLEX
 10
45.6060334
 20
-375.33517
 40
116.926849
  1
 CL1-1
 50
   0.000
  0
INSERT
  8
10
  2
WCOL
 10
20335.0000
 20
-56.124886
 41
4.60341932
 42
4.60341932
 43
4.60341932
 50
   0.000
  0
TEXT
  8
3
 7
SIMPLEX
 10
20045.6074
 20
-375.33517
 40
116.926849
  1
 CL1-1
 50
   0.000
999
END:     AREA=Frames
999
START:   AREA=Endwall Columns
999
END:     AREA=Endwall Columns
999
START:   AREA=Soldier Rafters
999
END:     AREA=Soldier Rafters
999
START:   AREA=Eaves
  0
LINE
  8
1
 10
0.00000000
 20
7300.00000
 11
5700.64600
 21
7300.00000
  0
LINE
  8
1
 10
4969.35400
 20
7300.00000
 11
10700.6455
 21
7300.00000
  0
LINE
  8
1
 10
9969.35449
 20
7300.00000
 11
15700.6465
 21
7300.00000
  0
LINE
  8
1
 10
14969.3555
 20
7300.00000
 11
20670.0000
 21
7300.00000
999
END:     AREA=Eaves
999
START:   AREA=Framed Openings
999
END:     AREA=Framed Openings
999
START:   AREA=Wideopen Outlines
999
END:     AREA=WideOpen Outlines
999
START:   AREA=Wind Frames
999
END:     AREA=Wind Frames
999
START:   AREA=Wall Panel
999
END:     AREA=Wall Panel
999
START:   AREA=Base Angles
999
START:   AREA=Partial Wall Angles
  0
LINE
  8
5
 10
0.00000000
 20
0.00000000
 11
0.00000000
 21
3800.00024
  0
LINE
  8
5
 10
20670.0000
 20
0.00000000
 11
20670.0000
 21
3800.00024
  0
LINE
  8
5
 10
0.00000000
 20
3800.00024
 11
20670.0000
 21
3800.00024
999
END:     AREA=Partial Wall Angles
999
START:   AREA=Wide Door Angles
999
END:     AREA=Wide Door Angles
999
START:   AREA=Eave Angles
999
END:     AREA=Eave Angles
999
START:   AREA=Cables
  0
LINE
  8
1
 10
335.000000
 20
750.000000
 11
5335.00000
 21
5273.80029
  0
LINE
  8
1
 10
5335.00000
 20
750.000000
 11
335.000000
 21
5273.80029
  0
TEXT
  8
3
 7
SIMPLEX
 10
1411.48572
 20
1763.38171
 40
116.926849
  1
CB-1
 50
  42.138
  0
TEXT
  8
3
 7
SIMPLEX
 10
3950.70947
 20
2041.87109
 40
116.926849
  1
CB-1
 50
 -42.138
  0
LINE
  8
1
 10
335.000000
 20
5426.20020
 11
5335.00000
 21
6967.13721
  0
LINE
  8
1
 10
5335.00000
 20
5426.20020
 11
335.000000
 21
6967.13721
  0
TEXT
  8
3
 7
SIMPLEX
 10
1358.49634
 20
5772.21777
 40
116.926849
  1
CB-2
 50
  17.129
  0
TEXT
  8
3
 7
SIMPLEX
 10
3875.71484
 20
5906.52246
 40
116.926849
  1
CB-2
 50
 -17.129
  0
LINE
  8
1
 10
15335.0000
 20
750.000000
 11
20335.0000
 21
5273.80029
  0
LINE
  8
1
 10
20335.0000
 20
750.000000
 11
15335.0000
 21
5273.80029
  0
TEXT
  8
3
 7
SIMPLEX
 10
16411.4863
 20
1763.38171
 40
116.926849
  1
CB-1
 50
  42.138
  0
TEXT
  8
3
 7
SIMPLEX
 10
18950.7090
 20
2041.87085
 40
116.926849
  1
CB-1
 50
 -42.138
  0
LINE
  8
1
 10
15335.0000
 20
5426.20020
 11
20335.0000
 21
6967.13721
  0
LINE
  8
1
 10
20335.0000
 20
5426.20020
 11
15335.0000
 21
6967.13721
  0
TEXT
  8
3
 7
SIMPLEX
 10
16358.4980
 20
5772.21777
 40
116.926849
  1
CB-2
 50
  17.129
  0
TEXT
  8
3
 7
SIMPLEX
 10
18875.7148
 20
5906.52246
 40
116.926849
  1
CB-2
 50
 -17.129
999
END:     AREA=Cables
999
START:   AREA=Girts
  0
LINE
  8
1
 10
0.00000000
 20
3851.93726
 11
5710.00000
 21
3851.93726
  0
TEXT
  8
3
 7
SIMPLEX
 10
2454.10815
 20
3881.16895
 40
116.926849
  1
 G-7
 50
   0.000
  0
LINE
  8
1
 10
0.00000000
 20
5271.93750
 11
5710.00000
 21
5271.93750
  0
TEXT
  8
3
 7
SIMPLEX
 10
2454.10815
 20
5301.16895
 40
116.926849
  1
 G-7
 50
   0.000
  0
LINE
  8
1
 10
0.00000000
 20
6471.93750
 11
5710.00000
 21
6471.93750
  0
TEXT
  8
3
 7
SIMPLEX
 10
2454.10815
 20
6501.16846
 40
116.926849
  1
 G-7
 50
   0.000
  0
LINE
  8
1
 10
4960.00000
 20
3908.06250
 11
10710.0000
 21
3908.06250
  0
TEXT
  8
3
 7
SIMPLEX
 10
7621.60840
 20
3937.29419
 40
116.926849
  1
 G-8
 50
   0.000
  0
LINE
  8
1
 10
4960.00000
 20
5328.06250
 11
10710.0000
 21
5328.06250
  0
TEXT
  8
3
 7
SIMPLEX
 10
7621.60840
 20
5357.29443
 40
116.926849
  1
 G-8
 50
   0.000
  0
LINE
  8
1
 10
4960.00000
 20
6528.06250
 11
10710.0000
 21
6528.06250
  0
TEXT
  8
3
 7
SIMPLEX
 10
7621.60840
 20
6557.29492
 40
116.926849
  1
 G-8
 50
   0.000
  0
LINE
  8
1
 10
9960.00000
 20
3851.93726
 11
15710.0020
 21
3851.93726
  0
TEXT
  8
3
 7
SIMPLEX
 10
12621.6084
 20
3881.16895
 40
116.926849
  1
 G-8
 50
   0.000
  0
LINE
  8
1
 10
9960.00000
 20
5271.93750
 11
15710.0020
 21
5271.93750
  0
TEXT
  8
3
 7
SIMPLEX
 10
12621.6084
 20
5301.16895
 40
116.926849
  1
 G-8
 50
   0.000
  0
LINE
  8
1
 10
9960.00000
 20
6471.93750
 11
15710.0020
 21
6471.93750
  0
TEXT
  8
3
 7
SIMPLEX
 10
12621.6084
 20
6501.16846
 40
116.926849
  1
 G-8
 50
   0.000
  0
LINE
  8
1
 10
14960.0000
 20
3908.06250
 11
20670.0000
 21
3908.06250
  0
TEXT
  8
3
 7
SIMPLEX
 10
17789.1094
 20
3937.29419
 40
116.926849
  1
 G-9
 50
   0.000
  0
LINE
  8
1
 10
14960.0000
 20
5328.06250
 11
20670.0000
 21
5328.06250
  0
TEXT
  8
3
 7
SIMPLEX
 10
17789.1094
 20
5357.29443
 40
116.926849
  1
 G-9
 50
   0.000
  0
LINE
  8
1
 10
14960.0000
 20
6528.06250
 11
20670.0000
 21
6528.06250
  0
TEXT
  8
3
 7
SIMPLEX
 10
17789.1094
 20
6557.29492
 40
116.926849
  1
 G-9
 50
   0.000
999
END:     AREA=Girts
999
START:   AREA=Lap Girts
999
END:     AREA=Lap Girts
999
START:   AREA=Column Flange Brace
999
END:     AREA=Column Flange Brace
999
START:   AREA=Wall Struts
  0
LINE
  8
1
 10
391.124817
 20
5350.00000
 11
5278.87451
 21
5350.00000
  0
TEXT
  8
3
 7
SIMPLEX
 10
2393.60107
 20
5379.23145
 40
116.926849
  1
ST-1(Strut)
 50
   0.000
  0
LINE
  8
1
 10
15391.1250
 20
5350.00000
 11
20278.8770
 21
5350.00000
  0
TEXT
  8
3
 7
SIMPLEX
 10
17393.6035
 20
5379.23145
 40
116.926849
  1
ST-1(Strut)
 50
   0.000
999
END:     AREA=Wall Struts
999
START:   AREA=Accessories
999
END:     AREA=Accessories
999
START:   AREA=Cranes
999
END:     AREA=Cranes
999
START:   AREA=JBlocks
  0
TEXT
  8
3
 7
SIMPLEX
 10
1806.39514
 20
4561.93750
 40
116.926849
  1
JB-1
 50
   0.000
  0
LINE
  8
1
 10
1778.33276
 20
3880.00000
 11
1778.33276
 21
5243.87500
  0
TEXT
  8
3
 7
SIMPLEX
 10
1806.39514
 20
5871.93750
 40
116.926849
  1
JB-2
 50
   0.000
  0
LINE
  8
1
 10
1778.33276
 20
5300.00000
 11
1778.33276
 21
6443.87500
  0
TEXT
  8
3
 7
SIMPLEX
 10
1806.39514
 20
6871.93750
 40
116.926849
  1
JB-4
 50
   0.000
  0
LINE
  8
1
 10
1778.33276
 20
6500.00000
 11
1778.33276
 21
7243.87500
  0
LINE
  8
1
 10
3556.66821
 20
3880.00000
 11
3556.66821
 21
5243.87500
  0
LINE
  8
1
 10
3556.66821
 20
5300.00000
 11
3556.66821
 21
6443.87500
  0
LINE
  8
1
 10
3556.66821
 20
6500.00000
 11
3556.66821
 21
7243.87500
  0
LINE
  8
1
 10
7001.66650
 20
3936.12500
 11
7001.66650
 21
5300.00000
  0
LINE
  8
1
 10
7001.66650
 20
5356.12549
 11
7001.66650
 21
6500.00000
  0
LINE
  8
1
 10
7001.66650
 20
6556.12549
 11
7001.66650
 21
7300.00000
  0
LINE
  8
1
 10
8668.33301
 20
3936.12500
 11
8668.33301
 21
5300.00000
  0
LINE
  8
1
 10
8668.33301
 20
5356.12549
 11
8668.33301
 21
6500.00000
  0
LINE
  8
1
 10
8668.33301
 20
6556.12549
 11
8668.33301
 21
7300.00000
  0
LINE
  8
1
 10
12001.6660
 20
3880.00000
 11
12001.6660
 21
5243.87500
  0
LINE
  8
1
 10
12001.6660
 20
5300.00000
 11
12001.6660
 21
6443.87500
  0
LINE
  8
1
 10
12001.6660
 20
6500.00000
 11
12001.6660
 21
7243.87500
  0
LINE
  8
1
 10
13668.3330
 20
3880.00000
 11
13668.3330
 21
5243.87500
  0
LINE
  8
1
 10
13668.3330
 20
5300.00000
 11
13668.3330
 21
6443.87500
  0
LINE
  8
1
 10
13668.3330
 20
6500.00000
 11
13668.3330
 21
7243.87500
  0
LINE
  8
1
 10
17113.3340
 20
3936.12500
 11
17113.3340
 21
5300.00000
  0
LINE
  8
1
 10
17113.3340
 20
5356.12549
 11
17113.3340
 21
6500.00000
  0
LINE
  8
1
 10
17113.3340
 20
6556.12549
 11
17113.3340
 21
7300.00000
  0
LINE
  8
1
 10
18891.6680
 20
3936.12500
 11
18891.6680
 21
5300.00000
  0
LINE
  8
1
 10
18891.6680
 20
5356.12549
 11
18891.6680
 21
6500.00000
  0
LINE
  8
1
 10
18891.6680
 20
6556.12549
 11
18891.6680
 21
7300.00000
999
END:     AREA=JBlocks
999
START:   AREA=Clips
999
END:     AREA=Clips
999
START:   AREA=Strut Bolts
  0
CIRCLE
  8
2
 10
0.00000000
 20
5378.06250
 40
8.76951408
  0
LINE
  8
2
 10
0.00000000
 20
5378.06250
 11
175.390274
 21
5553.45361
  0
INSERT
  8
2
  2
HEXAGON
 10
175.390274
 20
5553.45361
 41
8.63141156
 42
6.90512896
 43
6.90512896
 50
   0.000
  0
TEXT
  8
2
 7
SIMPLEX
 10
249.931152
 20
5509.60596
 40
87.6951370
  1
3
 50
   0.000
  0
CIRCLE
  8
2
 10
5335.00000
 20
5378.06250
 40
8.76951408
  0
LINE
  8
2
 10
5335.00000
 20
5378.06250
 11
5510.39063
 21
5553.45361
  0
INSERT
  8
2
  2
HEXAGON
 10
5510.39063
 20
5553.45361
 41
8.63141156
 42
6.90512896
 43
6.90512896
 50
   0.000
  0
TEXT
  8
2
 7
SIMPLEX
 10
5584.93115
 20
5509.60596
 40
87.6951370
  1
3
 50
   0.000
  0
CIRCLE
  8
2
 10
15335.0000
 20
5321.93750
 40
8.76951408
  0
LINE
  8
2
 10
15335.0000
 20
5321.93750
 11
15510.3906
 21
5497.32813
  0
INSERT
  8
2
  2
HEXAGON
 10
15510.3906
 20
5497.32813
 41
8.63141156
 42
6.90512896
 43
6.90512896
 50
   0.000
  0
TEXT
  8
2
 7
SIMPLEX
 10
15584.9326
 20
5453.47949
 40
87.6951370
  1
3
 50
   0.000
  0
CIRCLE
  8
2
 10
20670.0000
 20
5321.93750
 40
8.76951408
  0
LINE
  8
2
 10
20670.0000
 20
5321.93750
 11
20845.3906
 21
5497.32813
  0
INSERT
  8
2
  2
HEXAGON
 10
20845.3906
 20
5497.32813
 41
8.63141156
 42
6.90512896
 43
6.90512896
 50
   0.000
  0
TEXT
  8
2
 7
SIMPLEX
 10
20919.9316
 20
5453.47949
 40
87.6951370
  1
3
 50
   0.000
999
START:   AREA=Strut Bolts
999
START:   AREA=JackBeams
999
END:     AREA=JackBeams
999
START:   AREA=Draw Adjacent Surfaces
999
END:     AREA=Draw Adjacent Surfaces
999
START:   AREA=Dimensions
  0
TEXT
  8
11
 7
SIMPLEX
 10
5378.84717
 20
-840.70410
 40
87.6951370
  1
375
 50
   0.000
  0
LINE
  8
2
 10
5335.00000
 20
-738.39307
 11
5335.00000
 21
-650.69794
  0
LINE
  8
2
 10
5335.00000
 20
-694.54553
 11
5710.00000
 21
-694.54553
  0
TEXT
  8
11
 7
SIMPLEX
 10
5028.06689
 20
-665.31384
 40
87.6951370
  1
375
 50
   0.000
  0
LINE
  8
2
 10
5335.00000
 20
-738.39307
 11
5335.00000
 21
-650.69794
  0
LINE
  8
2
 10
5335.00000
 20
-694.54553
 11
4960.00000
 21
-694.54553
  0
TEXT
  8
11
 7
SIMPLEX
 10
10378.8477
 20
-840.70410
 40
87.6951370
  1
375
 50
   0.000
  0
LINE
  8
2
 10
10335.0000
 20
-738.39307
 11
10335.0000
 21
-650.69794
  0
LINE
  8
2
 10
10335.0000
 20
-694.54553
 11
10710.0000
 21
-694.54553
  0
TEXT
  8
11
 7
SIMPLEX
 10
10028.0664
 20
-665.31384
 40
87.6951370
  1
375
 50
   0.000
  0
LINE
  8
2
 10
10335.0000
 20
-738.39307
 11
10335.0000
 21
-650.69794
  0
LINE
  8
2
 10
10335.0000
 20
-694.54553
 11
9960.00000
 21
-694.54553
  0
TEXT
  8
11
 7
SIMPLEX
 10
15378.8467
 20
-840.70410
 40
87.6951370
  1
375
 50
   0.000
  0
LINE
  8
2
 10
15335.0000
 20
-738.39307
 11
15335.0000
 21
-650.69794
  0
LINE
  8
2
 10
15335.0000
 20
-694.54553
 11
15710.0020
 21
-694.54553
  0
TEXT
  8
11
 7
SIMPLEX
 10
15028.0674
 20
-665.31384
 40
87.6951370
  1
375
 50
   0.000
  0
LINE
  8
2
 10
15335.0000
 20
-738.39307
 11
15335.0000
 21
-650.69794
  0
LINE
  8
2
 10
15335.0000
 20
-694.54553
 11
14960.0000
 21
-694.54553
  0
TEXT
  8
2
 7
SIMPLEX
 10
-467.70740
 20
-665.31378
 40
116.926849
  1
GIRT
 50
   0.000
  0
TEXT
  8
2
 7
SIMPLEX
 10
-467.70740
 20
-840.70410
 40
116.926849
  1
LAPS
 50
   0.000
999
START:   AREA=Match Line
  0
LINE
  8
12
 10
0.00000000
 20
7356.12549
 11
0.00000000
 21
9110.02832
  0
LINE
  8
12
 10
20670.0000
 20
7356.12549
 11
20670.0000
 21
9110.02832
  0
LINE
  8
2
 10
0.00000000
 20
8993.10156
 11
20670.0000
 21
8993.10156
  0
LINE
  8
2
 10
0.00000000
 20
8291.54004
 11
20670.0000
 21
8291.54004
  0
LINE
  8
12
 10
5335.00000
 20
7356.12549
 11
5335.00000
 21
8525.39453
  0
LINE
  8
12
 10
10335.0000
 20
7356.12549
 11
10335.0000
 21
8525.39453
  0
LINE
  8
12
 10
20670.0000
 20
7356.12549
 11
20670.0000
 21
8525.39453
  0
LINE
  8
12
 10
15335.0000
 20
7356.12549
 11
15335.0000
 21
8525.39453
  0
INSERT
  8
2
  2
ARROW
 10
0.00000000
 20
8291.54004
 41
1.00000000
 42
1.00000000
 43
1.00000000
 50
 180.000
  0
INSERT
  8
2
  2
ARROW
 10
5335.00000
 20
8291.54004
 41
1.00000000
 42
1.00000000
 43
1.00000000
 50
   0.000
  0
INSERT
  8
2
  2
ARROW
 10
5335.00000
 20
8291.54004
 41
1.00000000
 42
1.00000000
 43
1.00000000
 50
 180.000
  0
INSERT
  8
2
  2
ARROW
 10
10335.0000
 20
8291.54004
 41
1.00000000
 42
1.00000000
 43
1.00000000
 50
   0.000
  0
INSERT
  8
2
  2
ARROW
 10
10335.0000
 20
8291.54004
 41
1.00000000
 42
1.00000000
 43
1.00000000
 50
 180.000
  0
INSERT
  8
2
  2
ARROW
 10
15335.0000
 20
8291.54004
 41
1.00000000
 42
1.00000000
 43
1.00000000
 50
   0.000
  0
INSERT
  8
2
  2
ARROW
 10
15335.0000
 20
8291.54004
 41
1.00000000
 42
1.00000000
 43
1.00000000
 50
 180.000
  0
INSERT
  8
2
  2
ARROW
 10
20670.0000
 20
8291.54004
 41
1.00000000
 42
1.00000000
 43
1.00000000
 50
   0.000
  0
INSERT
  8
2
  2
ARROW
 10
0.00000000
 20
8993.10156
 41
1.00000000
 42
1.00000000
 43
1.00000000
 50
 180.000
  0
INSERT
  8
2
  2
ARROW
 10
20670.0000
 20
8993.10156
 41
1.00000000
 42
1.00000000
 43
1.00000000
 50
   0.000
  0
CIRCLE
  8
13
 10
0.00000000
 20
9250.34082
 40
140.312225
  0
TEXT
  8
13
 7
SIMPLEX
 10
-63.140495
 20
9187.20020
 40
126.280991
  1
5
 72
           1
 11
0.00000000
 21
9187.20020
 50
   0.000
  0
CIRCLE
  8
13
 10
20670.0000
 20
9250.34082
 40
140.312225
  0
TEXT
  8
13
 7
SIMPLEX
 10
20628.9590
 20
9187.20020
 40
126.280991
  1
1
 72
           1
 11
20670.0000
 21
9187.20020
 50
   0.000
  0
CIRCLE
  8
13
 10
5335.00000
 20
8665.70703
 40
140.312225
  0
TEXT
  8
13
 7
SIMPLEX
 10
5271.85938
 20
8602.56641
 40
126.280991
  1
4
 72
           1
 11
5335.00000
 21
8602.56641
 50
   0.000
  0
CIRCLE
  8
13
 10
10335.0000
 20
8665.70703
 40
140.312225
  0
TEXT
  8
13
 7
SIMPLEX
 10
10271.8594
 20
8602.56641
 40
126.280991
  1
3
 72
           1
 11
10335.0000
 21
8602.56641
 50
   0.000
  0
CIRCLE
  8
13
 10
15335.0000
 20
8665.70703
 40
140.312225
  0
TEXT
  8
13
 7
SIMPLEX
 10
15271.8594
 20
8602.56641
 40
126.280991
  1
2
 72
           1
 11
15335.0000
 21
8602.56641
 50
   0.000
  0
TEXT
  8
11
 7
SIMPLEX
 10
2433.64624
 20
8330.51660
 40
116.926849
  1
5335
 50
   0.000
  0
TEXT
  8
11
 7
SIMPLEX
 10
7601.14600
 20
8330.51660
 40
116.926849
  1
5000
 50
   0.000
  0
TEXT
  8
11
 7
SIMPLEX
 10
12601.1465
 20
8330.51660
 40
116.926849
  1
5000
 50
   0.000
  0
TEXT
  8
11
 7
SIMPLEX
 10
17768.6465
 20
8330.51660
 40
116.926849
  1
5335
 50
   0.000
  0
LINE
  8
12
 10
335.000000
 20
7356.12549
 11
335.000000
 21
8113.81201
  0
LINE
  8
2
 10
0.00000000
 20
8057.68652
 11
-233.85370
 21
8057.68652
  0
LINE
  8
2
 10
335.000000
 20
8057.68652
 11
568.853699
 21
8057.68652
  0
INSERT
  8
2
  2
ARROW
 10
0.00000000
 20
8057.68652
 41
1.00000000
 42
1.00000000
 43
1.00000000
 50
   0.000
  0
INSERT
  8
2
  2
ARROW
 10
335.000000
 20
8057.68652
 41
1.00000000
 42
1.00000000
 43
1.00000000
 50
 180.000
  0
TEXT
  8
11
 7
SIMPLEX
 10
393.463409
 20
8096.66260
 40
116.926849
  1
335
 50
   0.000
  0
LINE
  8
12
 10
20335.0000
 20
7356.12549
 11
20335.0000
 21
8113.81201
  0
LINE
  8
2
 10
20335.0000
 20
8057.68652
 11
20101.1465
 21
8057.68652
  0
LINE
  8
2
 10
20670.0000
 20
8057.68652
 11
20903.8535
 21
8057.68652
  0
INSERT
  8
2
  2
ARROW
 10
20335.0000
 20
8057.68652
 41
1.00000000
 42
1.00000000
 43
1.00000000
 50
   0.000
  0
INSERT
  8
2
  2
ARROW
 10
20670.0000
 20
8057.68652
 41
1.00000000
 42
1.00000000
 43
1.00000000
 50
 180.000
  0
TEXT
  8
11
 7
SIMPLEX
 10
19925.7578
 20
8096.66260
 40
116.926849
  1
335
 50
   0.000
  0
TEXT
  8
11
 7
SIMPLEX
 10
8928.95508
 20
9049.22656
 40
116.926849
  1
20670
 50
   0.000
  0
TEXT
  8
15
 7
SIMPLEX
 10
9513.58887
 20
9049.22656
 40
116.926849
  1
 OUT-TO-OUT OF STEEL
 50
   0.000
  0
TEXT
  8
15
 7
SIMPLEX
 10
7762.60986
 20
-1261.6407
 40
187.082962
  1
SIDEWALL FRAMING: FRAME LINE D
 72
           1
 11
10335.0000
 21
-1261.6407
 50
   0.000
  0
LINE
  8
12
 10
-196.43710
 20
0.00000000
 11
-1047.6647
 21
0.00000000
  0
LINE
  8
12
 10
-196.43710
 20
3880.00000
 11
-1047.6647
 21
3880.00000
  0
LINE
  8
12
 10
-196.43710
 20
5300.00000
 11
-1047.6647
 21
5300.00000
  0
LINE
  8
12
 10
-196.43710
 20
6500.00000
 11
-1047.6647
 21
6500.00000
  0
LINE
  8
12
 10
-196.43710
 20
7300.00000
 11
-1047.6647
 21
7300.00000
  0
LINE
  8
12
 10
-991.53967
 20
0.00000000
 11
-991.53967
 21
0.00000000
  0
LINE
  8
12
 10
-991.53937
 20
3880.00000
 11
-991.53937
 21
3880.00000
  0
LINE
  8
2
 10
-991.53967
 20
0.00000000
 11
-991.53937
 21
3880.00000
  0
INSERT
  8
2
  2
ARROW
 10
-991.53967
 20
0.00000000
 41
1.00000000
 42
1.00000000
 43
1.00000000
 50
 270.000
  0
INSERT
  8
2
  2
ARROW
 10
-991.53937
 20
3880.00000
 41
1.00000000
 42
1.00000000
 43
1.00000000
 50
  90.000
  0
TEXT
  8
11
 7
SIMPLEX
 10
-1030.5151
 20
1706.14624
 40
116.926849
  1
3880
 50
  90.000
  0
LINE
  8
12
 10
-991.53967
 20
3880.00000
 11
-991.53967
 21
3880.00000
  0
LINE
  8
12
 10
-991.53949
 20
5300.00000
 11
-991.53949
 21
5300.00000
  0
LINE
  8
2
 10
-991.53967
 20
3880.00000
 11
-991.53949
 21
5300.00000
  0
INSERT
  8
2
  2
ARROW
 10
-991.53967
 20
3880.00000
 41
1.00000000
 42
1.00000000
 43
1.00000000
 50
 270.000
  0
INSERT
  8
2
  2
ARROW
 10
-991.53949
 20
5300.00000
 41
1.00000000
 42
1.00000000
 43
1.00000000
 50
  90.000
  0
TEXT
  8
11
 7
SIMPLEX
 10
-1030.5153
 20
4376.60840
 40
116.926849
  1
1420
 50
  90.000
  0
LINE
  8
12
 10
-991.53967
 20
5300.00000
 11
-991.53967
 21
5300.00000
  0
LINE
  8
12
 10
-991.53949
 20
6500.00000
 11
-991.53949
 21
6500.00000
  0
LINE
  8
2
 10
-991.53967
 20
5300.00000
 11
-991.53949
 21
6500.00000
  0
INSERT
  8
2
  2
ARROW
 10
-991.53967
 20
5300.00000
 41
1.00000000
 42
1.00000000
 43
1.00000000
 50
 270.000
  0
INSERT
  8
2
  2
ARROW
 10
-991.53949
 20
6500.00000
 41
1.00000000
 42
1.00000000
 43
1.00000000
 50
  90.000
  0
TEXT
  8
11
 7
SIMPLEX
 10
-1030.5153
 20
5686.60840
 40
116.926849
  1
1200
 50
  90.000
  0
LINE
  8
12
 10
-991.53967
 20
6500.00000
 11
-991.53967
 21
6500.00000
  0
LINE
  8
12
 10
-991.53949
 20
7300.00000
 11
-991.53949
 21
7300.00000
  0
LINE
  8
2
 10
-991.53967
 20
6500.00000
 11
-991.53949
 21
7300.00000
  0
INSERT
  8
2
  2
ARROW
 10
-991.53967
 20
6500.00000
 41
1.00000000
 42
1.00000000
 43
1.00000000
 50
 270.000
  0
INSERT
  8
2
  2
ARROW
 10
-991.53949
 20
7300.00000
 41
1.00000000
 42
1.00000000
 43
1.00000000
 50
  90.000
  0
TEXT
  8
11
 7
SIMPLEX
 10
-1030.5153
 20
6724.60938
 40
116.926849
  1
800
 50
  90.000
999
START:   AREA=Eave Dimension
  0
LINE
  8
12
 10
-1047.6647
 20
0.00000000
 11
-1515.3721
 21
0.00000000
  0
LINE
  8
12
 10
-1047.6647
 20
7300.00000
 11
-1515.3721
 21
7300.00000
  0
LINE
  8
2
 10
-1459.2471
 20
0.00000000
 11
-1459.2471
 21
7300.00000
  0
INSERT
  8
2
  2
ARROW
 10
-1459.2471
 20
0.00000000
 41
1.00000000
 42
1.00000000
 43
1.00000000
 50
 270.000
  0
INSERT
  8
2
  2
ARROW
 10
-1459.2471
 20
7300.00000
 41
1.00000000
 42
1.00000000
 43
1.00000000
 50
  90.000
  0
TEXT
  8
11
 7
SIMPLEX
 10
-1498.2224
 20
3416.14648
 40
116.926849
  1
7300
 50
  90.000
999
END:     AREA=Eave Dimension
999
START:   AREA=Draw Canopy Dimension
999
END:     AREA=Draw Canopy Dimension
999
START:   AREA=Draw Floor and Extension Strut Dimensions
999
END:     AREA=Draw Floor and Extension Strut Dimensions
  0
LINE
  8
2
 10
7001.66650
 20
0.00000000
 11
7001.66650
 21
3800.00024
  0
INSERT
  8
2
  2
ARROW
 10
7001.66650
 20
0.00000000
 41
1.00000000
 42
1.00000000
 43
1.00000000
 50
 270.000
  0
INSERT
  8
2
  2
ARROW
 10
7001.66650
 20
3800.00024
 41
1.00000000
 42
1.00000000
 43
1.00000000
 50
  90.000
  0
TEXT
  8
11
 7
SIMPLEX
 10
6962.69043
 20
1666.14636
 40
116.926849
  1
3800
 50
  90.000
999
END:     AREA=Dimensions
999
START:   AREA=Details
  0
INSERT
  8
7
  2
CUTSEC
 10
5335.00000
 20
4113.85352
 41
1.00000000
 42
-1.0000000
 43
-1.0000000
 50
   0.000
  0
CIRCLE
  8
7
 10
5026.31299
 20
4113.85352
 40
112.249771
  0
TEXT
  8
7
 7
SIMPLEX
 10
4936.51318
 20
4068.95361
 40
89.7998200
  1
H2
 72
           1
 11
5026.31299
 21
4113.85352
 73
           2
 50
   0.000
  0
CIRCLE
  8
7
 10
335.000000
 20
7300.00000
 40
46.7707405
  0
LINE
  8
7
 10
365.064178
 20
7335.82764
 11
467.282379
 21
7457.64307
  0
CIRCLE
  8
7
 10
539.436401
 20
7543.62988
 40
112.249771
  0
TEXT
  8
7
 7
SIMPLEX
 10
431.676605
 20
7507.70996
 40
71.8398514
  1
J24
 72
           1
 11
539.436401
 21
7543.62988
 73
           2
 50
   0.000
  0
CIRCLE
  8
7
 10
5335.00000
 20
7300.00000
 40
46.7707405
  0
LINE
  8
7
 10
5365.06396
 20
7335.82764
 11
5467.28174
 21
7457.64307
  0
CIRCLE
  8
7
 10
5539.43604
 20
7543.62988
 40
112.249771
  0
TEXT
  8
7
 7
SIMPLEX
 10
5444.24854
 20
7507.70996
 40
71.8398514
  1
J16
 72
           1
 11
5539.43604
 21
7543.62988
 73
           2
 50
   0.000
999
START:   AREA=Cables
999
END:     AREA=Cables
  0
CIRCLE
  8
7
 10
335.000000
 20
652.400024
 40
46.7707405
  0
LINE
  8
7
 10
350.997406
 20
696.349854
 11
405.388733
 21
845.779053
  0
CIRCLE
  8
7
 10
443.782532
 20
951.258606
 40
112.249771
  0
TEXT
  8
7
 7
SIMPLEX
 10
353.982727
 20
906.358704
 40
89.7998200
  1
Q3
 72
           1
 11
443.782532
 21
951.258606
 73
           2
 50
   0.000
999
END:     AREA=Details
999
START:   AREA=Extensions
999
END:     AREA=Extensions
999
START:   AREA=Eave Extensions
999
END:     AREA=Eave Extensions
999
START:   AREA=Canopy Extensions around corner
999
END:     AREA=Canopy Extensions around corner
999
START:   AREA=Facia Extensions on wall
999
END:     AREA=Facia Extensions on Sidewall
999
START:   AREA=Draw Facia Detail
999
END:     AREA=Draw Facia Detail
  0
ENDBLK
  8
0
999
START:   AREA=Tables
  0
BLOCK
  8
1
  2
SW2TBL
 70
     0
 10
0.00000000
 20
0.00000000
  0
TEXT
  8
14
 7
SIMPLEX
 10
-3157.0249
 20
-146.15857
 40
116.926849
  1
MEMBER TABLE
 50
   0.000
  0
TEXT
  8
14
 7
SIMPLEX
 10
-3157.0249
 20
-321.54883
 40
116.926849
  1
FRAME LINE D
 50
   0.000
  0
TEXT
  8
14
 7
SIMPLEX
 10
-3157.0249
 20
-496.93915
 40
116.926849
  1
MARK
 50
   0.000
  0
TEXT
  8
14
 7
SIMPLEX
 10
-2338.5369
 20
-496.93915
 40
116.926849
  1
PART
 50
   0.000
  0
TEXT
  8
14
 7
SIMPLEX
 10
-1169.2682
 20
-496.93915
 40
116.926849
  1
LENGTH
 50
   0.000
  0
TEXT
  8
26
 7
SIMPLEX
 10
-3157.0249
 20
-672.32947
 40
116.926849
  1
 G-7
 50
   0.000
  0
TEXT
  8
26
 7
SIMPLEX
 10
-2338.5369
 20
-672.32947
 40
116.926849
  1
200Z15
 50
   0.000
  0
TEXT
  8
26
 7
SIMPLEX
 10
-1169.2682
 20
-672.32947
 40
116.926849
  1
   5705
 50
   0.000
  0
TEXT
  8
26
 7
SIMPLEX
 10
-3157.0249
 20
-847.71967
 40
116.926849
  1
 G-8
 50
   0.000
  0
TEXT
  8
26
 7
SIMPLEX
 10
-2338.5369
 20
-847.71967
 40
116.926849
  1
200Z15
 50
   0.000
  0
TEXT
  8
26
 7
SIMPLEX
 10
-1169.2682
 20
-847.71967
 40
116.926849
  1
   5750
 50
   0.000
  0
TEXT
  8
26
 7
SIMPLEX
 10
-3157.0249
 20
-1023.1099
 40
116.926849
  1
 G-9
 50
   0.000
  0
TEXT
  8
26
 7
SIMPLEX
 10
-2338.5369
 20
-1023.1099
 40
116.926849
  1
200Z15
 50
   0.000
  0
TEXT
  8
26
 7
SIMPLEX
 10
-1169.2682
 20
-1023.1099
 40
116.926849
  1
   5705
 50
   0.000
  0
TEXT
  8
26
 7
SIMPLEX
 10
-3157.0249
 20
-1198.5001
 40
116.926849
  1
ST-1
 50
   0.000
  0
TEXT
  8
26
 7
SIMPLEX
 10
-2338.5369
 20
-1198.5001
 40
116.926849
  1
T72x32
 50
   0.000
  0
TEXT
  8
26
 7
SIMPLEX
 10
-1169.2682
 20
-1198.5001
 40
116.926849
  1
   4958
 50
   0.000
  0
TEXT
  8
26
 7
SIMPLEX
 10
-3157.0249
 20
-1373.8904
 40
116.926849
  1
CB-1
 50
   0.000
  0
TEXT
  8
26
 7
SIMPLEX
 10
-2338.5369
 20
-1373.8904
 40
116.926849
  1
ROD20
 50
   0.000
  0
TEXT
  8
26
 7
SIMPLEX
 10
-1169.2682
 20
-1373.8904
 40
116.926849
  1
   6680
 50
   0.000
  0
TEXT
  8
26
 7
SIMPLEX
 10
-3157.0249
 20
-1549.2808
 40
116.926849
  1
CB-2
 50
   0.000
  0
TEXT
  8
26
 7
SIMPLEX
 10
-2338.5369
 20
-1549.2808
 40
116.926849
  1
ROD20
 50
   0.000
  0
TEXT
  8
26
 7
SIMPLEX
 10
-1169.2682
 20
-1549.2808
 40
116.926849
  1
   5190
 50
   0.000
  0
TEXT
  8
26
 7
SIMPLEX
 10
-3157.0249
 20
-1724.6710
 40
116.926849
  1
JB-1
 50
   0.000
  0
TEXT
  8
26
 7
SIMPLEX
 10
-2338.5369
 20
-1724.6710
 40
116.926849
  1
SROD12
 50
   0.000
  0
TEXT
  8
26
 7
SIMPLEX
 10
-1169.2682
 20
-1724.6710
 40
116.926849
  1
   1520
 50
   0.000
  0
TEXT
  8
26
 7
SIMPLEX
 10
-3157.0249
 20
-1900.0612
 40
116.926849
  1
JB-2
 50
   0.000
  0
TEXT
  8
26
 7
SIMPLEX
 10
-2338.5369
 20
-1900.0612
 40
116.926849
  1
SROD12
 50
   0.000
  0
TEXT
  8
26
 7
SIMPLEX
 10
-1169.2682
 20
-1900.0612
 40
116.926849
  1
   1300
 50
   0.000
  0
TEXT
  8
26
 7
SIMPLEX
 10
-3157.0249
 20
-2075.4517
 40
116.926849
  1
JB-4
 50
   0.000
  0
TEXT
  8
26
 7
SIMPLEX
 10
-2338.5369
 20
-2075.4517
 40
116.926849
  1
SROD12
 50
   0.000
  0
TEXT
  8
26
 7
SIMPLEX
 10
-1169.2682
 20
-2075.4517
 40
116.926849
  1
    700
 50
   0.000
  0
LINE
  8
0
 10
-3273.9517
 20
-2104.6833
 11
0.00000000
 21
-2104.6833
  0
LINE
  8
0
 10
-3273.9517
 20
-526.17084
 11
-3273.9517
 21
-2104.6833
  0
LINE
  8
0
 10
-2455.4636
 20
-526.17084
 11
-2455.4636
 21
-2104.6833
  0
LINE
  8
0
 10
-1286.1951
 20
-526.17084
 11
-1286.1951
 21
-2104.6833
  0
LINE
  8
0
 10
-3273.9517
 20
0.00000000
 11
0.00000000
 21
0.00000000
  0
LINE
  8
0
 10
-3273.9517
 20
0.00000000
 11
-3273.9517
 21
-2104.6833
  0
LINE
  8
0
 10
0.00000000
 20
0.00000000
 11
0.00000000
 21
-2104.6833
  0
LINE
  8
0
 10
-3273.9517
 20
-350.78055
 11
0.00000000
 21
-350.78055
  0
LINE
  8
0
 10
-3273.9517
 20
-350.78055
 11
-3273.9517
 21
-526.17084
  0
LINE
  8
0
 10
-2455.4636
 20
-350.78055
 11
-2455.4636
 21
-526.17084
  0
LINE
  8
0
 10
-1286.1951
 20
-350.78055
 11
-1286.1951
 21
-526.17084
  0
LINE
  8
0
 10
-3273.9517
 20
-526.17084
 11
0.00000000
 21
-526.17084
  0
ENDBLK
  8
1
  0
BLOCK
  8
1
  2
SW2BLT
 70
     0
 10
0.00000000
 20
0.00000000
  0
TEXT
  8
14
 7
SIMPLEX
 10
-4443.2202
 20
-146.15857
 40
116.926849
  1
BOLT TABLE
 50
   0.000
  0
TEXT
  8
14
 7
SIMPLEX
 10
-4443.2202
 20
-321.54883
 40
116.926849
  1
FRAME LINE D
 50
   0.000
  0
TEXT
  8
14
 7
SIMPLEX
 10
-4443.2202
 20
-496.93915
 40
116.926849
  1
LOCATION
 50
   0.000
  0
TEXT
  8
14
 7
SIMPLEX
 10
-2572.3909
 20
-496.93915
 40
116.926849
  1
QUAN
 50
   0.000
  0
TEXT
  8
14
 7
SIMPLEX
 10
-1987.7566
 20
-496.93915
 40
116.926849
  1
TYPE
 50
   0.000
  0
TEXT
  8
14
 7
SIMPLEX
 10
-1403.1222
 20
-496.93915
 40
116.926849
  1
DIA
 50
   0.000
  0
TEXT
  8
14
 7
SIMPLEX
 10
-701.56110
 20
-496.93915
 40
116.926849
  1
LENGTH
 50
   0.000
  0
TEXT
  8
26
 7
SIMPLEX
 10
-4443.2202
 20
-672.32947
 40
116.926849
  1
Strut
 50
   0.000
  0
TEXT
  8
26
 7
SIMPLEX
 10
-2338.5371
 20
-672.32947
 40
116.926849
  1
2
 50
   0.000
  0
TEXT
  8
26
 7
SIMPLEX
 10
-1987.7566
 20
-672.32947
 40
116.926849
  1
Gr8.8
 50
   0.000
  0
TEXT
  8
26
 7
SIMPLEX
 10
-1403.1222
 20
-672.32947
 40
116.926849
  1
16
 50
   0.000
  0
TEXT
  8
26
 7
SIMPLEX
 10
-701.56110
 20
-672.32947
 40
116.926849
  1
70
 50
   0.000
  0
LINE
  8
0
 10
-4560.1470
 20
-701.56110
 11
0.00000000
 21
-701.56110
  0
LINE
  8
0
 10
-2689.3176
 20
-526.17084
 11
-2689.3176
 21
-701.56110
  0
LINE
  8
0
 10
-4560.1470
 20
0.00000000
 11
0.00000000
 21
0.00000000
  0
LINE
  8
0
 10
-4560.1470
 20
0.00000000
 11
-4560.1470
 21
-701.56110
  0
LINE
  8
0
 10
0.00000000
 20
0.00000000
 11
0.00000000
 21
-701.56110
  0
LINE
  8
0
 10
-4560.1470
 20
-350.78055
 11
0.00000000
 21
-350.78055
  0
LINE
  8
0
 10
-2689.3176
 20
-350.78055
 11
-2689.3176
 21
-526.17084
  0
LINE
  8
0
 10
-4560.1470
 20
-526.17084
 11
0.00000000
 21
-526.17084
  0
ENDBLK
  8
1
  0
BLOCK
  8
1
  2
SW2BTSPC
 70
     0
 10
0.00000000
 20
0.00000000
  0
TEXT
  8
14
 7
SIMPLEX
 10
-4033.9761
 20
-146.15857
 40
116.926849
  1
SPECIAL BOLTS
 50
   0.000
  0
INSERT
  8
14
  2
HEXAGON
 10
-4033.9761
 20
-263.08539
 41
4.60341932
 42
4.60341932
 43
4.60341932
 50
   0.000
  0
TEXT
  8
14
 7
SIMPLEX
 10
-3800.1223
 20
-321.54883
 40
116.926849
  1
ID
 50
   0.000
  0
TEXT
  8
14
 7
SIMPLEX
 10
-3215.4883
 20
-321.54883
 40
116.926849
  1
QUAN
 50
   0.000
  0
TEXT
  8
14
 7
SIMPLEX
 10
-2630.8540
 20
-321.54883
 40
116.926849
  1
TYPE
 50
   0.000
  0
TEXT
  8
14
 7
SIMPLEX
 10
-2046.2198
 20
-321.54883
 40
116.926849
  1
DIA
 50
   0.000
  0
TEXT
  8
14
 7
SIMPLEX
 10
-1344.6587
 20
-321.54883
 40
116.926849
  1
LENGTH
 50
   0.000
  0
TEXT
  8
14
 7
SIMPLEX
 10
-526.17065
 20
-321.54883
 40
116.926849
  1
WASH
 50
   0.000
  0
TEXT
  8
26
 7
SIMPLEX
 10
-4033.9761
 20
-496.93909
 40
116.926849
  1
   3
 50
   0.000
  0
TEXT
  8
26
 7
SIMPLEX
 10
-2981.6345
 20
-496.93909
 40
116.926849
  1
2
 50
   0.000
  0
TEXT
  8
26
 7
SIMPLEX
 10
-2630.8540
 20
-496.93909
 40
116.926849
  1
Gr8.8
 50
   0.000
  0
TEXT
  8
26
 7
SIMPLEX
 10
-2046.2198
 20
-496.93909
 40
116.926849
  1
16
 50
   0.000
  0
TEXT
  8
26
 7
SIMPLEX
 10
-1344.6587
 20
-496.93909
 40
116.926849
  1
70
 50
   0.000
  0
TEXT
  8
26
 7
SIMPLEX
 10
-409.24380
 20
-496.93909
 40
116.926849
  1
2
 50
   0.000
  0
LINE
  8
0
 10
-4092.4397
 20
0.00000000
 11
0.00000000
 21
0.00000000
  0
LINE
  8
0
 10
-4092.4397
 20
-526.17078
 11
0.00000000
 21
-526.17078
  0
LINE
  8
0
 10
-4092.4397
 20
0.00000000
 11
-4092.4397
 21
-526.17078
  0
LINE
  8
0
 10
0.00000000
 20
0.00000000
 11
0.00000000
 21
-526.17078
  0
LINE
  8
0
 10
-4092.4397
 20
-175.39027
 11
0.00000000
 21
-175.39027
  0
LINE
  8
0
 10
-3273.9517
 20
-175.39027
 11
-3273.9517
 21
-526.17078
  0
LINE
  8
0
 10
-4092.4397
 20
-350.78055
 11
0.00000000
 21
-350.78055
  0
ENDBLK
  8
1
999
END:     AREA=Tables
  0
ENDSEC
  0
SECTION
  2
ENTITIES
  0
LINE
  8
22
 10
0.00000000
 20
0.00000000
 11
28122.7031
 21
0.00000000
  0
LINE
  8
22
 10
28122.7031
 20
0.00000000
 11
28122.7031
 21
19886.7715
  0
LINE
  8
22
 10
28122.7031
 20
19886.7715
 11
0.00000000
 21
19886.7715
  0
LINE
  8
22
 10
0.00000000
 20
19886.7715
 11
0.00000000
 21
0.00000000
  0
LINE
  8
0
 10
17407.9551
 20
0.00000000
 11
17407.9551
 21
1785.79199
  0
LINE
  8
0
 10
17407.9551
 20
1785.79199
 11
28122.7031
 21
1785.79199
  0
LINE
  8
0
 10
17407.9551
 20
0.00000000
 11
28122.7031
 21
0.00000000
  0
LINE
  8
0
 10
28122.7031
 20
0.00000000
 11
28122.7031
 21
1785.79199
  0
LINE
  8
0
 10
17407.9551
 20
680.301697
 11
28122.7031
 21
680.301697
  0
LINE
  8
0
 10
17407.9551
 20
1020.45245
 11
28122.7031
 21
1020.45245
  0
LINE
  8
0
 10
17407.9551
 20
1360.60339
 11
28122.7031
 21
1360.60339
  0
LINE
  8
0
 10
18938.6328
 20
0.00000000
 11
18938.6328
 21
1360.60339
  0
LINE
  8
0
 10
22765.3301
 20
0.00000000
 11
22765.3301
 21
1360.60339
  0
LINE
  8
0
 10
22765.3301
 20
340.150848
 11
28122.7031
 21
340.150848
  0
LINE
  8
0
 10
24636.1582
 20
1020.45245
 11
24636.1582
 21
680.301697
  0
LINE
  8
0
 10
26336.9121
 20
1020.45245
 11
26336.9121
 21
680.301697
  0
LINE
  8
0
 10
25486.5352
 20
680.301697
 11
25486.5352
 21
340.150848
  0
TEXT
  8
14
 7
SIMPLEX
 10
17578.0273
 20
1105.49023
 40
170.075424
  1
PROJECT
 50
   0.000
  0
TEXT
  8
14
 7
SIMPLEX
 10
17578.0273
 20
765.339417
 40
170.075424
  1
ID
 50
   0.000
  0
TEXT
  8
14
 7
SIMPLEX
 10
17578.0273
 20
425.188568
 40
170.075424
  1
PROJECT
 50
   0.000
  0
TEXT
  8
14
 7
SIMPLEX
 10
17578.0273
 20
85.0377121
 40
170.075424
  1
ADDRESS
 50
   0.000
  0
TEXT
  8
14
 7
SIMPLEX
 10
19108.7070
 20
1105.49023
 40
170.075424
  1
Proposed Warehouse
 50
   0.000
  0
TEXT
  8
14
 7
SIMPLEX
 10
19108.7070
 20
765.339417
 40
170.075424
  1
Q-1467
 50
   0.000
  0
TEXT
  8
14
 7
SIMPLEX
 10
19108.7070
 20
425.188568
 40
170.075424
  1
Proposed Warehouse
 50
   0.000
  0
TEXT
  8
14
 7
SIMPLEX
 10
19108.7070
 20
85.0377121
 40
170.075424
  1
 
 50
   0.000
  0
TEXT
  8
14
 7
SIMPLEX
 10
19618.9336
 20
1445.64111
 40
255.113129
  1
Sivoko Steel Structures Ltd.
 50
   0.000
  0
TEXT
  8
14
 7
SIMPLEX
 10
22935.4043
 20
1105.49023
 40
170.075424
  1
SIDEWALL FRAMING
 50
   0.000
  0
TEXT
  8
14
 7
SIMPLEX
 10
22935.4043
 20
765.339417
 40
170.075424
  1
DESIGN:
 50
   0.000
  0
TEXT
  8
14
 7
SIMPLEX
 10
22935.4043
 20
425.188568
 40
170.075424
  1
DATE:
 50
   0.000
  0
TEXT
  8
14
 7
SIMPLEX
 10
23802.7891
 20
425.188568
 40
170.075424
  1
15/DEC/2025
 50
   0.000
  0
TEXT
  8
14
 7
SIMPLEX
 10
24806.2344
 20
765.339417
 40
170.075424
  1
DRAFT:
 50
   0.000
  0
TEXT
  8
14
 7
SIMPLEX
 10
26506.9902
 20
765.339417
 40
170.075424
  1
CHECK:
 50
   0.000
  0
TEXT
  8
14
 7
SIMPLEX
 10
25571.5742
 20
425.188568
 40
170.075424
  1
SHEET
 50
   0.000
  0
TEXT
  8
14
 7
SIMPLEX
 10
27102.2520
 20
425.188568
 40
170.075424
  1
OF
 50
   0.000
  0
TEXT
  8
14
 7
SIMPLEX
 10
26421.9492
 20
425.188568
 40
170.075424
  1
 
 50
   0.000
999
FIELD:@PAGE_ID
  0
TEXT
  8
14
 7
SIMPLEX
 10
27442.4023
 20
425.188568
 40
170.075424
  1
 
 50
   0.000
999
FIELD:@PAGE_TOTAL
  0
INSERT
  8
0
  2
SW2FRM
 10
1961.81995
 20
6883.26123
 41
1.00000000
 42
1.00000000
 43
1.00000000
 50
   0.000
  0
INSERT
  8
0
  2
SW2TBL
 10
28122.7031
 20
18425.1875
 41
1.00000000
 42
1.00000000
 43
1.00000000
 50
   0.000
  0
INSERT
  8
0
  2
SW2BLT
 10
28122.7031
 20
19886.7715
 41
1.00000000
 42
1.00000000
 43
1.00000000
 50
   0.000
  0
INSERT
  8
0
  2
SW2BTSPC
 10
28122.7031
 20
19068.2832
 41
1.00000000
 42
1.00000000
 43
1.00000000
 50
   0.000
  0
ENDSEC
  0
EOF
