999
SOURCE:MBS   PROGRAM:PLT_DXF   CELL:RF_FLG   CLASS:SCALED   MODE:---
  0
SECTION
  2
HEADER
  9
$EXTMIN
 10
          0.000
 20
          0.000
  9
$EXTMAX
 10
       1913.353
 20
       1204.093
  9
$LIMMIN
 10
          0.000
 20
          0.000
  9
$LIMMAX
 10
       1913.353
 20
       1204.093
  9
$FILLMODE
 70
     1
  9
$LTSCALE
 40
  0.125
  9
$HANDLING
 70
     0
  0
ENDSEC
  0
SECTION
  2
TABLES
  0
TABLE
  2
LTYPE
 70
     3
  0
LTYPE
  2
CONTINUOUS
 70
    64
  3
SOLID LINE
 72
    65
 73
     0
 40
0.0
  0
LTYPE
  2
CENTER
 70
    64
  3
____ _ ____ _ ____ _ ____ _ ____ _ ____ _ ____
 72
    65
 73
     4
 40
2.0
 49
1.25
 49
-0.25
 49
0.25
 49
-0.25
  0
LTYPE
  2
DASHED
 70
    64
  3
__ __ __ __ __ __ __ __ __ __ __ __ __ __ __ 
 72
    65
 73
     2
 40
0.75
 49
0.5
 49
-0.25
  0
ENDTAB
  0
TABLE
  2
LAYER
 70
    51
  0
LAYER
  2
0
 70
     0
 62
     7
  6
CONTINUOUS
  0
LAYER
  2
1
 70
     0
 62
     7
  6
CONTINUOUS
  0
LAYER
  2
2
 70
     0
 62
     7
  6
CONTINUOUS
  0
LAYER
  2
3
 70
     0
 62
     1
  6
CONTINUOUS
  0
LAYER
  2
4
 70
     0
 62
     1
  6
CONTINUOUS
  0
LAYER
  2
5
 70
     0
 62
     7
  6
CONTINUOUS
  0
LAYER
  2
6
 70
     0
 62
     4
  6
CONTINUOUS
  0
LAYER
  2
7
 70
     0
 62
     3
  6
CONTINUOUS
  0
LAYER
  2
8
 70
     0
 62
     3
  6
CONTINUOUS
  0
LAYER
  2
9
 70
     0
 62
     7
  6
CONTINUOUS
  0
LAYER
  2
10
 70
     0
 62
     7
  6
CONTINUOUS
  0
LAYER
  2
11
 70
     0
 62
     7
  6
CONTINUOUS
  0
LAYER
  2
12
 70
     0
 62
     2
  6
CONTINUOUS
  0
LAYER
  2
13
 70
     0
 62
     2
  6
CONTINUOUS
  0
LAYER
  2
14
 70
     0
 62
     7
  6
CONTINUOUS
  0
LAYER
  2
15
 70
     0
 62
     6
  6
CONTINUOUS
  0
LAYER
  2
16
 70
     0
 62
     7
  6
CONTINUOUS
  0
LAYER
  2
17
 70
     0
 62
     7
  6
CONTINUOUS
  0
LAYER
  2
18
 70
     0
 62
     4
  6
CONTINUOUS
  0
LAYER
  2
19
 70
     0
 62
     7
  6
CONTINUOUS
  0
LAYER
  2
20
 70
     0
 62
     7
  6
CONTINUOUS
  0
LAYER
  2
21
 70
     0
 62
     7
  6
CONTINUOUS
  0
LAYER
  2
22
 70
     0
 62
     7
  6
CONTINUOUS
  0
LAYER
  2
23
 70
     0
 62
     7
  6
CONTINUOUS
  0
LAYER
  2
24
 70
     0
 62
     7
  6
CONTINUOUS
  0
LAYER
  2
25
 70
     0
 62
     7
  6
CONTINUOUS
  0
LAYER
  2
26
 70
     0
 62
     7
  6
CONTINUOUS
  0
LAYER
  2
27
 70
     0
 62
     7
  6
CONTINUOUS
  0
LAYER
  2
28
 70
     0
 62
     7
  6
CONTINUOUS
  0
LAYER
  2
29
 70
     0
 62
     7
  6
CONTINUOUS
  0
LAYER
  2
30
 70
     0
 62
     7
  6
CONTINUOUS
  0
LAYER
  2
31
 70
     0
 62
     7
  6
CONTINUOUS
  0
LAYER
  2
32
 70
     0
 62
     7
  6
CONTINUOUS
  0
LAYER
  2
33
 70
     0
 62
     7
  6
CONTINUOUS
  0
LAYER
  2
34
 70
     0
 62
     7
  6
CONTINUOUS
  0
LAYER
  2
35
 70
     0
 62
     7
  6
CONTINUOUS
  0
LAYER
  2
36
 70
     0
 62
     7
  6
CONTINUOUS
  0
LAYER
  2
37
 70
     0
 62
     7
  6
CONTINUOUS
  0
LAYER
  2
38
 70
     0
 62
     7
  6
CONTINUOUS
  0
LAYER
  2
39
 70
     0
 62
     7
  6
CONTINUOUS
  0
LAYER
  2
40
 70
     0
 62
     7
  6
CONTINUOUS
  0
LAYER
  2
41
 70
     0
 62
     7
  6
CONTINUOUS
  0
LAYER
  2
42
 70
     0
 62
     7
  6
CONTINUOUS
  0
LAYER
  2
43
 70
     0
 62
     7
  6
CONTINUOUS
  0
LAYER
  2
44
 70
     0
 62
     7
  6
CONTINUOUS
  0
LAYER
  2
45
 70
     0
 62
     7
  6
CONTINUOUS
  0
LAYER
  2
46
 70
     0
 62
     7
  6
CONTINUOUS
  0
LAYER
  2
47
 70
     0
 62
     7
  6
CONTINUOUS
  0
LAYER
  2
48
 70
     0
 62
     7
  6
CONTINUOUS
  0
LAYER
  2
49
 70
     0
 62
     7
  6
CONTINUOUS
  0
LAYER
  2
50
 70
     0
 62
     7
  6
CONTINUOUS
  0
ENDTAB
  0
ENDSEC
  0
SECTION
  2
BLOCKS
  0
BLOCK
  8
2
  2
ARROW
 70
     0
 10
  0.000000
 20
  0.000000
  0
LINE
  6
CONTINUOUS
  8
2
 10
  0.000000
 20
  0.000000
 11
 -1.000000
 21
  0.166667
  0
LINE
  6
CONTINUOUS
  8
2
 10
 -1.000000
 20
  0.166667
 11
 -1.000000
 21
 -0.166667
  0
LINE
  6
CONTINUOUS
  8
2
 10
 -1.000000
 20
 -0.166667
 11
  0.000000
 21
  0.000000
  0
ENDBLK
  8
2
  0
BLOCK
  8
3
  2
CIRCLE
 70
     0
 10
  0.000000
 20
  0.000000
  0
CIRCLE
  8
1
 10
   0.000
 20
   0.000
 40
   1.000
  0
ENDBLK
  8
3
  0
BLOCK
  8
2
  2
PLATE
 70
     0
 10
  0.000000
 20
  0.000000
  0
CIRCLE
  6
CONTINUOUS
  8
5
 10
  0.000000
 20
-62.500000
 40
  0.100000
  0
LINE
  6
CONTINUOUS
  8
5
 10
 -0.100000
 20
-62.500000
 11
  0.100000
 21
-62.500000
  0
LINE
  6
CONTINUOUS
  8
5
 10
  0.000000
 20
-62.599998
 11
  0.000000
 21
-62.400002
  0
TEXT
  8
5
 10
  0.000000
 20
-62.500000
 40
   0.015
  1
ZERO
 50
   0.000
  0
LINE
  6
CONTINUOUS
  8
3
 10
  0.000000
 20
  0.000000
 11
  0.000000
 21
-125.00000
  0
LINE
  6
CONTINUOUS
  8
3
 10
  0.000000
 20
-125.00000
 11
 1484.4980
 21
-125.00000
  0
LINE
  6
CONTINUOUS
  8
3
 10
 1484.4980
 20
-125.00000
 11
 1484.4980
 21
  0.000000
  0
LINE
  6
CONTINUOUS
  8
3
 10
 1484.4980
 20
  0.000000
 11
  0.000000
 21
  0.000000
  0
LINE
  6
CONTINUOUS
  8
6
 10
 -9.896653
 20
-125.00000
 11
-71.750740
 21
-124.99999
  0
LINE
  6
CONTINUOUS
  8
6
 10
 -9.896644
 20
  0.000001
 11
-71.750725
 21
  0.000005
  0
LINE
  6
CONTINUOUS
  8
6
 10
-71.700737
 20
-124.99999
 11
-71.700722
 21
  0.000005
  0
INSERT
  8
6
  2
ARROW
 10
-71.700737
 20
-124.99999
 41
  6.597768
 42
  6.597768
 43
  6.597768
 50
 270.000
  0
INSERT
  8
6
  2
ARROW
 10
-71.700722
 20
  0.000005
 41
  6.597768
 42
  6.597768
 43
  6.597768
 50
  90.000
  0
TEXT
  8
6
 10
-78.298500
 20
-80.643852
 40
  13.196
  1
125
 50
  90.000
  0
LINE
  6
CONTINUOUS
  8
6
 10
  0.000000
 20
  9.896653
 11
  0.000000
 21
 71.750740
  0
LINE
  6
CONTINUOUS
  8
6
 10
 1484.4980
 20
  9.896653
 11
 1484.4980
 21
 71.750740
  0
LINE
  6
CONTINUOUS
  8
6
 10
  0.000000
 20
 71.700737
 11
 1484.4980
 21
 71.700737
  0
INSERT
  8
6
  2
ARROW
 10
  0.000000
 20
 71.700737
 41
  6.597768
 42
  6.597768
 43
  6.597768
 50
 180.000
  0
INSERT
  8
6
  2
ARROW
 10
 1484.4980
 20
 71.700737
 41
  6.597768
 42
  6.597768
 43
  6.597768
 50
   0.000
  0
TEXT
  8
6
 10
 717.50739
 20
 78.298508
 40
  13.196
  1
1484
 50
   0.000
  0
ENDBLK
  8
2
  0
ENDSEC
  0
SECTION
  2
ENTITIES
  0
LINE
  6
CONTINUOUS
  8
5
 10
  0.000000
 20
  0.000000
 11
 1913.3531
 21
  0.000000
  0
LINE
  6
CONTINUOUS
  8
5
 10
 1913.3531
 20
  0.000000
 11
 1913.3531
 21
 1204.0929
  0
LINE
  6
CONTINUOUS
  8
5
 10
 1913.3531
 20
 1204.0929
 11
  0.000000
 21
 1204.0929
  0
LINE
  6
CONTINUOUS
  8
5
 10
  0.000000
 20
 1204.0929
 11
  0.000000
 21
  0.000000
  0
TEXT
  8
5
 10
 26.391073
 20
 13.195537
 40
  26.391
  1
YIELD:345.0
 50
   0.000
  0
TEXT
  8
5
 10
 26.391073
 20
 52.782146
 40
  26.391
  1
THICKNESS:5
 50
   0.000
  0
TEXT
  8
5
 10
 26.391073
 20
 92.368759
 40
  26.391
  1
QUANTITY:4
 50
   0.000
  0
TEXT
  8
5
 10
 26.391073
 20
 131.95537
 40
  26.391
  1
DRAWING:IF6
 50
   0.000
  0
TEXT
  8
5
 10
 26.391073
 20
 171.54198
 40
  26.391
  1
MARK:IF6
 50
   0.000
  0
TEXT
  8
5
 10
 26.391073
 20
 211.12859
 40
  26.391
  1
JOB:C463-002
 50
   0.000
  0
INSERT
  8
2
  2
PLATE
 10
 214.42755
 20
 664.54645
 41
  1.000000
 42
  1.000000
 43
  1.000000
 50
   0.000
  0
ENDSEC
  0
EOF
