  0
SECTION
  2
HEADER
  9
$ACADVER
  1
AC1009
  9
$EXTMIN
 10
 -1402.900
 20
 -4643.333
  9
$EXTMAX
 10
 23872.900
 20
 14313.517
  9
$LIMMIN
 10
 -1402.900
 20
 -4643.333
  9
$LIMMAX
 10
 23872.900
 20
 14313.517
  9
$FILLMODE
 70
     1
  9
$HANDLING
 70
     0
  0
ENDSEC
  0
SECTION
  2
TABLES
  0
TABLE
  2
LTYPE
 70
1
  0
LTYPE
  2
CONTIN
 70
    64
  3
SOLID LINE
 72
    65
 73
     0
 40
0.0
  0
LTYPE
  2
CONTINUOUS
 70
    64
  3
SOLID LINE
 72
    65
 73
     0
 40
0.0
  0
LTYPE
  2
CENTER
 70
    64
  3
____ _ ____ _ ____ _ ____ _ ____ _ ____ _ ____
 72
    65
 73
     4
 40
    16.336
 49
    10.210
 49
    -2.042
 49
     2.042
 49
    -2.042
  0
LTYPE
  2
DASHED
 70
    64
  3
__ __ __ __ __ __ __ __ __ __ __ __ __ __ __ 
 72
    65
 73
     2
 40
   303.31
 49
   202.20
 49
  -101.10
  0
ENDTAB
  0
TABLE
  2
LAYER
 70
30
  0
LAYER
  2
0
 70
     0
 62
     7
  6
CONTIN
  0
LAYER
  2
1
 70
     0
 62
     7
  6
CONTIN
  0
LAYER
  2
2
 70
     0
 62
     7
  6
CONTIN
  0
LAYER
  2
3
 70
     0
 62
     7
  6
CONTIN
  0
LAYER
  2
4
 70
     0
 62
     5
  6
CONTIN
  0
LAYER
  2
5
 70
     0
 62
     5
  6
DASHED
  0
LAYER
  2
6
 70
     0
 62
     5
  6
DASHED
  0
LAYER
  2
7
 70
     0
 62
     5
  6
CONTIN
  0
LAYER
  2
8
 70
     0
 62
     5
  6
DASHED
  0
LAYER
  2
9
 70
     0
 62
     7
  6
CONTIN
  0
LAYER
  2
10
 70
     0
 62
     7
  6
CONTIN
  0
LAYER
  2
11
 70
     0
 62
     6
  6
DASHED
  0
LAYER
  2
12
 70
     0
 62
     7
  6
DASHED
  0
LAYER
  2
13
 70
     0
 62
     5
  6
DASHED
  0
LAYER
  2
14
 70
     0
 62
     7
  6
CONTIN
  0
LAYER
  2
15
 70
     0
 62
     5
  6
CONTIN
  0
LAYER
  2
16
 70
     0
 62
     7
  6
CONTIN
  0
LAYER
  2
17
 70
     0
 62
     7
  6
CONTIN
  0
LAYER
  2
18
 70
     0
 62
     7
  6
CONTIN
  0
LAYER
  2
19
 70
     0
 62
     7
  6
CONTIN
  0
LAYER
  2
20
 70
     0
 62
     1
  6
CONTIN
  0
LAYER
  2
21
 70
     0
 62
     7
  6
CONTIN
  0
LAYER
  2
22
 70
     0
 62
     7
  6
DASHED
  0
LAYER
  2
23
 70
     0
 62
     7
  6
DASHED
  0
LAYER
  2
24
 70
     0
 62
     7
  6
CONTIN
  0
LAYER
  2
25
 70
     0
 62
     7
  6
CONTIN
  0
LAYER
  2
26
 70
     0
 62
     7
  6
CONTIN
  0
LAYER
  2
27
 70
     0
 62
     1
  6
CENTER
  0
LAYER
  2
28
 70
     0
 62
     7
  6
CONTIN
  0
LAYER
  2
29
 70
     0
 62
     3
  6
DASHED
  0
ENDTAB
  0
TABLE
  2
STYLE
 70
  0
  0
ENDTAB
  0
ENDSEC
  0
SECTION
  2
ENTITIES
  0
LINE
  8
5
 10
  1367.082
 20
  8556.709
 11
  1382.007
 21
  8407.452
  0
LINE
  8
5
 10
  2734.163
 20
  8693.417
 11
  2749.089
 21
  8544.160
  0
LINE
  8
5
 10
  4101.145
 20
  8830.115
 11
  4116.070
 21
  8680.859
  0
LINE
  8
5
 10
  5468.227
 20
  8966.823
 11
  5483.152
 21
  8817.567
  0
LINE
  8
5
 10
  6835.308
 20
  9103.531
 11
  6850.234
 21
  8954.276
  0
LINE
  8
5
 10
  8202.390
 20
  9240.239
 11
  8217.315
 21
  9090.984
  0
LINE
  8
5
 10
  9569.473
 20
  9376.947
 11
  9584.397
 21
  9227.692
  0
LINE
  8
5
 10
 10936.454
 20
  9513.646
 11
 10951.380
 21
  9364.391
  0
LINE
  8
5
 10
 11533.512
 20
  9513.648
 11
 11518.586
 21
  9364.395
  0
LINE
  8
5
 10
 12900.592
 20
  9376.940
 11
 12885.667
 21
  9227.687
  0
LINE
  8
5
 10
 14267.675
 20
  9240.232
 11
 14252.748
 21
  9090.979
  0
LINE
  8
5
 10
 15634.658
 20
  9103.534
 11
 15619.731
 21
  8954.279
  0
LINE
  8
5
 10
 17001.738
 20
  8966.826
 11
 16986.812
 21
  8817.571
  0
LINE
  8
5
 10
 18368.820
 20
  8830.118
 11
 18353.895
 21
  8680.862
  0
LINE
  8
5
 10
 19735.902
 20
  8693.410
 11
 19720.977
 21
  8544.154
  0
LINE
  8
5
 10
 21102.982
 20
  8556.702
 11
 21088.057
 21
  8407.446
  0
LINE
  8
5
 10
   764.800
 20
  2580.000
 11
   828.300
 21
  2580.000
  0
LINE
  8
5
 10
   764.800
 20
  2580.000
 11
   828.300
 21
  2580.000
  0
LINE
  8
5
 10
  1432.034
 20
  7907.182
 11
  1438.353
 21
  7843.998
  0
LINE
  8
5
 10
  4138.962
 20
  8451.944
 11
  4145.281
 21
  8388.760
  0
LINE
  8
5
 10
  6876.411
 20
  8692.503
 11
  6882.729
 21
  8629.318
  0
LINE
  8
5
 10
  9618.720
 20
  8884.477
 11
  9625.038
 21
  8821.292
  0
LINE
  8
5
 10
 10989.773
 20
  8980.456
 11
 10996.092
 21
  8917.271
  0
LINE
  8
5
 10
  1432.034
 20
  7907.182
 11
  1438.353
 21
  7843.998
  0
LINE
  8
5
 10
  4138.962
 20
  8451.944
 11
  4145.281
 21
  8388.760
  0
LINE
  8
5
 10
  6876.411
 20
  8692.503
 11
  6882.729
 21
  8629.318
  0
LINE
  8
5
 10
  9618.720
 20
  8884.477
 11
  9625.038
 21
  8821.292
  0
LINE
  8
5
 10
 10989.773
 20
  8980.456
 11
 10996.092
 21
  8917.271
  0
LINE
  8
5
 10
 11480.188
 20
  8980.406
 11
 11473.869
 21
  8917.222
  0
LINE
  8
5
 10
 12851.309
 20
  8884.101
 11
 12844.990
 21
  8820.916
  0
LINE
  8
5
 10
 15593.454
 20
  8691.497
 11
 15587.135
 21
  8628.312
  0
LINE
  8
5
 10
 18331.479
 20
  8456.692
 11
 18325.160
 21
  8393.508
  0
LINE
  8
5
 10
 21038.092
 20
  7907.778
 11
 21031.773
 21
  7844.594
  0
LINE
  8
5
 10
 11480.188
 20
  8980.406
 11
 11473.869
 21
  8917.222
  0
LINE
  8
5
 10
 12851.309
 20
  8884.101
 11
 12844.990
 21
  8820.916
  0
LINE
  8
5
 10
 15593.454
 20
  8691.497
 11
 15587.135
 21
  8628.312
  0
LINE
  8
5
 10
 18331.479
 20
  8456.692
 11
 18325.160
 21
  8393.508
  0
LINE
  8
5
 10
 21038.092
 20
  7907.778
 11
 21031.773
 21
  7844.594
  0
LINE
  8
5
 10
 21715.828
 20
  2580.000
 11
 21652.328
 21
  2580.000
  0
LINE
  8
5
 10
 21715.828
 20
  2580.000
 11
 21652.328
 21
  2580.000
  0
LINE
  8
1
 10
   942.000
 20
  5834.000
 11
  1400.000
 21
  5834.000
  0
LINE
  8
1
 10
   942.000
 20
  5826.000
 11
  1400.000
 21
  5826.000
  0
LINE
  8
1
 10
  1400.000
 20
  5834.000
 11
  1400.000
 21
  5468.000
  0
LINE
  8
1
 10
  1400.000
 20
  5468.000
 11
   942.000
 21
  5468.000
  0
LINE
  8
1
 10
  1400.000
 20
  5476.000
 11
   942.000
 21
  5476.000
  0
LINE
  8
1
 10
  1400.000
 20
  5468.000
 11
  1400.000
 21
  5368.000
  0
LINE
  8
1
 10
  1400.000
 20
  5368.000
 11
   942.000
 21
  5103.573
  0
LINE
  8
1
 10
 21528.000
 20
  5834.000
 11
 21070.000
 21
  5834.000
  0
LINE
  8
1
 10
 21528.000
 20
  5826.000
 11
 21070.000
 21
  5826.000
  0
LINE
  8
1
 10
 21070.000
 20
  5834.000
 11
 21070.000
 21
  5468.000
  0
LINE
  8
1
 10
 21070.000
 20
  5468.000
 11
 21528.000
 21
  5468.000
  0
LINE
  8
1
 10
 21070.000
 20
  5476.000
 11
 21528.000
 21
  5476.000
  0
LINE
  8
1
 10
 21070.000
 20
  5468.000
 11
 21070.000
 21
  5368.000
  0
LINE
  8
1
 10
 21070.000
 20
  5368.000
 11
 21528.000
 21
  5103.573
  0
CIRCLE
  8
5
 10
 21977.500
 20
  5387.790
 40
     9.000
  0
CIRCLE
  8
5
 10
 21902.500
 20
  5387.790
 40
     9.000
  0
CIRCLE
  8
5
 10
 21977.500
 20
  5287.790
 40
     9.000
  0
CIRCLE
  8
5
 10
 21902.500
 20
  5287.790
 40
     9.000
  0
CIRCLE
  8
5
 10
   492.500
 20
  5387.790
 40
     9.000
  0
CIRCLE
  8
5
 10
   567.500
 20
  5387.790
 40
     9.000
  0
CIRCLE
  8
5
 10
   492.500
 20
  5287.790
 40
     9.000
  0
CIRCLE
  8
5
 10
   567.500
 20
  5287.790
 40
     9.000
  0
LINE
  8
8
 10
     0.000
 20
     0.000
 11
     0.000
 21
  8420.000
  0
LINE
  8
8
 10
     0.000
 20
  8420.000
 11
 11235.000
 21
  9543.500
  0
LINE
  8
8
 10
 11235.000
 20
  9543.500
 11
 22470.000
 21
  8420.000
  0
LINE
  8
8
 10
 22470.000
 20
  8420.000
 11
 22470.000
 21
     0.000
  0
LINE
  8
1
 10
   236.000
 20
    16.000
 11
   636.000
 21
    16.000
  0
LINE
  8
1
 10
   636.000
 20
    16.000
 11
   936.000
 21
  4016.000
  0
LINE
  8
1
 10
   936.000
 20
  4016.000
 11
   936.000
 21
  4016.000
  0
LINE
  8
1
 10
   936.000
 20
  4016.000
 11
   236.000
 21
  4016.000
  0
LINE
  8
1
 10
   236.000
 20
    16.000
 11
   236.000
 21
  4016.000
  0
LINE
  8
1
 10
   236.000
 20
  4016.000
 11
   936.000
 21
  4016.000
  0
LINE
  8
1
 10
   936.000
 20
  4016.000
 11
   936.000
 21
  7731.629
  0
LINE
  8
1
 10
   936.000
 20
  7731.629
 11
   936.000
 21
  7731.629
  0
LINE
  8
1
 10
   936.000
 20
  7731.629
 11
   236.000
 21
  7731.629
  0
LINE
  8
1
 10
   236.000
 20
  4016.000
 11
   236.000
 21
  7731.629
  0
LINE
  8
5
 10
   299.000
 20
   279.000
 11
   299.000
 21
   253.000
  0
LINE
  8
5
 10
   323.000
 20
   279.000
 11
   323.000
 21
   253.000
  0
ARC
  8
5
 10
   311.000
 20
   279.000
 40
    12.000
 50
     0.000
 51
   180.000
  0
ARC
  8
5
 10
   311.000
 20
   253.000
 40
    12.000
 50
   180.000
 51
     0.000
  0
LINE
  8
5
 10
   299.000
 20
  5913.000
 11
   299.000
 21
  5887.000
  0
LINE
  8
5
 10
   323.000
 20
  5913.000
 11
   323.000
 21
  5887.000
  0
ARC
  8
5
 10
   311.000
 20
  5913.000
 40
    12.000
 50
     0.000
 51
   180.000
  0
ARC
  8
5
 10
   311.000
 20
  5887.000
 40
    12.000
 50
   180.000
 51
     0.000
  0
LINE
  8
5
 10
   299.000
 20
  6213.000
 11
   299.000
 21
  6187.000
  0
LINE
  8
5
 10
   323.000
 20
  6213.000
 11
   323.000
 21
  6187.000
  0
ARC
  8
5
 10
   311.000
 20
  6213.000
 40
    12.000
 50
     0.000
 51
   180.000
  0
ARC
  8
5
 10
   311.000
 20
  6187.000
 40
    12.000
 50
   180.000
 51
     0.000
  0
LINE
  8
1
 10
   336.000
 20
  5474.000
 11
   936.000
 21
  5474.000
  0
LINE
  8
1
 10
   336.000
 20
  5468.000
 11
   936.000
 21
  5468.000
  0
LINE
  8
1
 10
   336.000
 20
  5474.000
 11
   336.000
 21
  5468.000
  0
LINE
  8
1
 10
   936.000
 20
  5474.000
 11
   936.000
 21
  5468.000
  0
LINE
  8
1
 10
   336.000
 20
  5834.000
 11
   936.000
 21
  5834.000
  0
LINE
  8
1
 10
   336.000
 20
  5828.000
 11
   936.000
 21
  5828.000
  0
LINE
  8
1
 10
   336.000
 20
  5834.000
 11
   336.000
 21
  5828.000
  0
LINE
  8
1
 10
   936.000
 20
  5834.000
 11
   936.000
 21
  5828.000
  0
LINE
  8
1
 10
   236.000
 20
  6050.000
 11
   836.000
 21
  6050.000
  0
LINE
  8
1
 10
   236.000
 20
  6044.000
 11
   836.000
 21
  6044.000
  0
LINE
  8
1
 10
   236.000
 20
  6050.000
 11
   236.000
 21
  6044.000
  0
LINE
  8
1
 10
   836.000
 20
  6050.000
 11
   836.000
 21
  6044.000
  0
LINE
  8
1
 10
   236.000
 20
    16.000
 11
   236.000
 21
  7731.629
  0
LINE
  8
1
 10
   236.000
 20
  7731.629
 11
   230.000
 21
  7731.629
  0
LINE
  8
1
 10
   230.000
 20
  7731.629
 11
   230.000
 21
    16.000
  0
LINE
  8
1
 10
   236.000
 20
    16.000
 11
   230.000
 21
    16.000
  0
LINE
  8
5
 10
   210.600
 20
  2580.000
 11
   248.700
 21
  2580.000
  0
LINE
  8
5
 10
   210.600
 20
  4080.000
 11
   248.700
 21
  4080.000
  0
LINE
  8
5
 10
   210.600
 20
  5580.000
 11
   248.700
 21
  5580.000
  0
LINE
  8
5
 10
   210.600
 20
  7080.000
 11
   248.700
 21
  7080.000
  0
LINE
  8
1
 10
   636.034
 20
    16.449
 11
   936.000
 21
  4016.000
  0
LINE
  8
1
 10
   936.000
 20
  4016.000
 11
   941.983
 21
  4015.551
  0
LINE
  8
1
 10
   941.983
 20
  4015.551
 11
   642.017
 21
    16.000
  0
LINE
  8
1
 10
   636.034
 20
    16.449
 11
   642.017
 21
    16.000
  0
LINE
  8
1
 10
   936.000
 20
  4016.000
 11
   936.000
 21
  7731.629
  0
LINE
  8
1
 10
   936.000
 20
  7731.629
 11
   942.000
 21
  7731.629
  0
LINE
  8
1
 10
   942.000
 20
  7731.629
 11
   942.000
 21
  4016.000
  0
LINE
  8
1
 10
   936.000
 20
  4016.000
 11
   942.000
 21
  4016.000
  0
CIRCLE
  8
1
 10
   942.000
 20
  5476.000
 40
    12.700
  0
CIRCLE
  8
1
 10
   942.000
 20
  5826.000
 40
    12.700
  0
LINE
  8
1
 10
   158.000
 20
   -28.700
 11
   158.000
 21
    28.700
  0
LINE
  8
1
 10
   308.000
 20
   -28.700
 11
   308.000
 21
    28.700
  0
LINE
  8
1
 10
   562.808
 20
   -28.700
 11
   562.808
 21
    28.700
  0
LINE
  8
1
 10
   712.808
 20
   -28.700
 11
   712.808
 21
    28.700
  0
LINE
  8
1
 10
    83.000
 20
     0.000
 11
   787.808
 21
     0.000
  0
LINE
  8
1
 10
   787.808
 20
     0.000
 11
   787.808
 21
    16.000
  0
LINE
  8
1
 10
   787.808
 20
    16.000
 11
    83.000
 21
    16.000
  0
LINE
  8
1
 10
    83.000
 20
     0.000
 11
    83.000
 21
    16.000
  0
LINE
  8
1
 10
   186.000
 20
  7718.930
 11
   186.000
 21
  7776.329
  0
LINE
  8
1
 10
   286.000
 20
  7718.930
 11
   286.000
 21
  7776.329
  0
LINE
  8
1
 10
   586.000
 20
  7718.930
 11
   586.000
 21
  7776.329
  0
LINE
  8
1
 10
   886.000
 20
  7718.930
 11
   886.000
 21
  7776.329
  0
LINE
  8
1
 10
   986.000
 20
  7718.930
 11
   986.000
 21
  7776.329
  0
LINE
  8
1
 10
   136.000
 20
  7747.629
 11
  1036.000
 21
  7747.629
  0
LINE
  8
1
 10
  1036.000
 20
  7747.629
 11
  1036.000
 21
  7731.629
  0
LINE
  8
1
 10
  1036.000
 20
  7731.629
 11
   136.000
 21
  7731.629
  0
LINE
  8
1
 10
   136.000
 20
  7747.629
 11
   136.000
 21
  7731.629
  0
LINE
  8
1
 10
   230.000
 20
    16.000
 11
   230.000
 21
   213.000
  0
LINE
  8
1
 10
   230.000
 20
   213.000
 11
    83.000
 21
    66.000
  0
LINE
  8
1
 10
    83.000
 20
    66.000
 11
    83.000
 21
    16.000
  0
LINE
  8
1
 10
   230.000
 20
    16.000
 11
    83.000
 21
    16.000
  0
LINE
  8
1
 10
   642.017
 20
    16.000
 11
   656.701
 21
   211.792
  0
LINE
  8
1
 10
   656.701
 20
   211.792
 11
   787.808
 21
    66.000
  0
LINE
  8
1
 10
   787.808
 20
    66.000
 11
   787.808
 21
    16.000
  0
LINE
  8
1
 10
   642.017
 20
    16.000
 11
   787.808
 21
    16.000
  0
LINE
  8
1
 10
   230.000
 20
  7731.629
 11
   230.000
 21
  7611.630
  0
LINE
  8
1
 10
   230.000
 20
  7611.630
 11
   136.000
 21
  7731.629
  0
LINE
  8
1
 10
   136.000
 20
  7731.629
 11
   136.000
 21
  7731.629
  0
LINE
  8
1
 10
   230.000
 20
  7731.629
 11
   136.000
 21
  7731.629
  0
LINE
  8
1
 10
   942.000
 20
  7731.629
 11
   942.000
 21
  7611.630
  0
LINE
  8
1
 10
   942.000
 20
  7611.630
 11
  1036.000
 21
  7731.629
  0
LINE
  8
1
 10
  1036.000
 20
  7731.629
 11
  1036.000
 21
  7731.629
  0
LINE
  8
1
 10
   942.000
 20
  7731.629
 11
  1036.000
 21
  7731.629
  0
CIRCLE
  8
1
 10
   230.000
 20
     0.000
 40
     6.350
  0
LINE
  8
17
 10
   223.650
 20
     0.000
 11
   236.350
 21
     0.000
  0
LINE
  8
17
 10
   230.000
 20
    -6.350
 11
   230.000
 21
     6.350
  0
CIRCLE
  8
1
 10
   640.817
 20
     0.000
 40
     6.350
  0
LINE
  8
17
 10
   634.467
 20
     0.000
 11
   647.167
 21
     0.000
  0
LINE
  8
17
 10
   640.817
 20
    -6.350
 11
   640.817
 21
     6.350
  0
CIRCLE
  8
1
 10
   942.000
 20
  7747.629
 40
     6.350
  0
LINE
  8
17
 10
   935.650
 20
  7747.629
 11
   948.350
 21
  7747.629
  0
LINE
  8
17
 10
   942.000
 20
  7741.279
 11
   942.000
 21
  7753.979
  0
CIRCLE
  8
1
 10
   230.000
 20
  7747.629
 40
     6.350
  0
LINE
  8
17
 10
   223.650
 20
  7747.629
 11
   236.350
 21
  7747.629
  0
LINE
  8
17
 10
   230.000
 20
  7741.279
 11
   230.000
 21
  7753.979
  0
LINE
  8
1
 10
  4477.269
 20
  8710.949
 11
  4502.303
 21
  8460.609
  0
LINE
  8
1
 10
  4502.303
 20
  8460.609
 11
  1039.000
 21
  7763.629
  0
LINE
  8
1
 10
  1039.000
 20
  7763.629
 11
  1039.000
 21
  7763.629
  0
LINE
  8
1
 10
  1039.000
 20
  7763.629
 11
   979.248
 21
  8361.146
  0
LINE
  8
1
 10
  4477.269
 20
  8710.949
 11
   979.248
 21
  8361.146
  0
LINE
  8
1
 10
   979.248
 20
  8361.146
 11
  1039.000
 21
  7763.629
  0
LINE
  8
1
 10
  1039.000
 20
  7763.629
 11
  1039.000
 21
  7763.629
  0
LINE
  8
1
 10
  1039.000
 20
  7763.629
 11
   236.000
 21
  7763.629
  0
LINE
  8
1
 10
   236.000
 20
  7763.629
 11
   236.000
 21
  8286.822
  0
LINE
  8
1
 10
   979.248
 20
  8361.146
 11
   236.000
 21
  8286.822
  0
LINE
  8
5
 10
   429.336
 20
  8242.842
 11
   403.465
 21
  8240.254
  0
LINE
  8
5
 10
   431.724
 20
  8218.961
 11
   405.853
 21
  8216.374
  0
ARC
  8
5
 10
   430.530
 20
  8230.901
 40
    12.000
 50
   -84.289
 51
    95.711
  0
ARC
  8
5
 10
   404.659
 20
  8228.313
 40
    12.000
 50
    95.711
 51
   -84.289
  0
LINE
  8
5
 10
   299.000
 20
  8049.822
 11
   299.000
 21
  8023.822
  0
LINE
  8
5
 10
   323.000
 20
  8049.822
 11
   323.000
 21
  8023.822
  0
ARC
  8
5
 10
   311.000
 20
  8049.822
 40
    12.000
 50
     0.000
 51
   180.000
  0
ARC
  8
5
 10
   311.000
 20
  8023.822
 40
    12.000
 50
   180.000
 51
     0.000
  0
LINE
  8
1
 10
   886.263
 20
  8321.148
 11
   941.985
 21
  7763.928
  0
LINE
  8
1
 10
   880.293
 20
  8320.552
 11
   936.015
 21
  7763.331
  0
LINE
  8
1
 10
   886.263
 20
  8321.148
 11
   880.293
 21
  8320.552
  0
LINE
  8
1
 10
   941.985
 20
  7763.928
 11
   936.015
 21
  7763.331
  0
LINE
  8
1
 10
  4477.269
 20
  8710.949
 11
    10.597
 21
  8264.281
  0
LINE
  8
1
 10
    10.597
 20
  8264.281
 11
    10.000
 21
  8270.252
  0
LINE
  8
1
 10
    10.000
 20
  8270.252
 11
  4476.672
 21
  8716.919
  0
LINE
  8
1
 10
  4477.269
 20
  8710.949
 11
  4476.672
 21
  8716.919
  0
LINE
  8
5
 10
    92.598
 20
  8298.008
 11
    96.389
 21
  8260.098
  0
LINE
  8
1
 10
   236.000
 20
  7763.629
 11
   236.000
 21
  8286.222
  0
LINE
  8
1
 10
   236.000
 20
  8286.222
 11
   230.000
 21
  8286.222
  0
LINE
  8
1
 10
   230.000
 20
  8286.222
 11
   230.000
 21
  7763.629
  0
LINE
  8
1
 10
   236.000
 20
  7763.629
 11
   230.000
 21
  7763.629
  0
LINE
  8
1
 10
   230.000
 20
  8286.222
 11
     0.000
 21
  8263.222
  0
LINE
  8
1
 10
     0.000
 20
  8263.222
 11
   230.000
 21
  8171.222
  0
LINE
  8
1
 10
  4501.525
 20
  8460.453
 11
  1039.000
 21
  7763.629
  0
LINE
  8
1
 10
  1039.000
 20
  7763.629
 11
  1040.578
 21
  7755.786
  0
LINE
  8
1
 10
  1040.578
 20
  7755.786
 11
  4503.104
 21
  8452.610
  0
LINE
  8
1
 10
  4501.525
 20
  8460.453
 11
  4503.104
 21
  8452.610
  0
LINE
  8
1
 10
  4459.657
 20
  8759.438
 11
  4516.772
 21
  8765.148
  0
LINE
  8
1
 10
  4469.608
 20
  8659.934
 11
  4526.723
 21
  8665.646
  0
LINE
  8
1
 10
  4484.533
 20
  8510.678
 11
  4541.648
 21
  8516.390
  0
LINE
  8
1
 10
  4494.484
 20
  8411.175
 11
  4551.599
 21
  8416.886
  0
LINE
  8
1
 10
  4483.239
 20
  8812.045
 11
  4528.017
 21
  8364.277
  0
LINE
  8
1
 10
  4528.017
 20
  8364.277
 11
  4512.096
 21
  8362.686
  0
LINE
  8
1
 10
  4512.096
 20
  8362.686
 11
  4467.319
 21
  8810.453
  0
LINE
  8
1
 10
  4483.239
 20
  8812.045
 11
  4467.319
 21
  8810.453
  0
LINE
  8
1
 10
   186.000
 20
  7718.930
 11
   186.000
 21
  7776.329
  0
LINE
  8
1
 10
   286.000
 20
  7718.930
 11
   286.000
 21
  7776.329
  0
LINE
  8
1
 10
   586.000
 20
  7718.930
 11
   586.000
 21
  7776.329
  0
LINE
  8
1
 10
   886.000
 20
  7718.930
 11
   886.000
 21
  7776.329
  0
LINE
  8
1
 10
   986.000
 20
  7718.930
 11
   986.000
 21
  7776.329
  0
LINE
  8
1
 10
   136.000
 20
  7747.629
 11
  1036.000
 21
  7747.629
  0
LINE
  8
1
 10
  1036.000
 20
  7747.629
 11
  1036.000
 21
  7763.629
  0
LINE
  8
1
 10
  1036.000
 20
  7763.629
 11
   136.000
 21
  7763.629
  0
LINE
  8
1
 10
   136.000
 20
  7747.629
 11
   136.000
 21
  7763.629
  0
LINE
  8
1
 10
  4476.672
 20
  8716.919
 11
  4357.268
 21
  8704.979
  0
LINE
  8
1
 10
  4357.268
 20
  8704.979
 11
  4467.319
 21
  8810.453
  0
LINE
  8
1
 10
  4467.319
 20
  8810.453
 11
  4467.319
 21
  8810.453
  0
LINE
  8
1
 10
  4476.672
 20
  8716.919
 11
  4467.319
 21
  8810.453
  0
LINE
  8
1
 10
  4503.104
 20
  8452.610
 11
  4384.884
 21
  8428.818
  0
LINE
  8
1
 10
  4384.884
 20
  8428.818
 11
  4512.096
 21
  8362.686
  0
LINE
  8
1
 10
  4512.096
 20
  8362.686
 11
  4512.096
 21
  8362.686
  0
LINE
  8
1
 10
  4503.104
 20
  8452.610
 11
  4512.096
 21
  8362.686
  0
LINE
  8
1
 10
   230.000
 20
  7763.629
 11
   230.000
 21
  7883.629
  0
LINE
  8
1
 10
   230.000
 20
  7883.629
 11
   136.000
 21
  7763.629
  0
LINE
  8
1
 10
   136.000
 20
  7763.629
 11
   136.000
 21
  7763.629
  0
LINE
  8
1
 10
   230.000
 20
  7763.629
 11
   136.000
 21
  7763.629
  0
CIRCLE
  8
1
 10
   230.000
 20
  7747.629
 40
     6.350
  0
LINE
  8
17
 10
   223.650
 20
  7747.629
 11
   236.350
 21
  7747.629
  0
LINE
  8
17
 10
   230.000
 20
  7741.279
 11
   230.000
 21
  7753.979
  0
CIRCLE
  8
1
 10
  1036.000
 20
  7747.629
 40
     6.350
  0
LINE
  8
17
 10
  1029.650
 20
  7747.629
 11
  1042.350
 21
  7747.629
  0
LINE
  8
17
 10
  1036.000
 20
  7741.279
 11
  1036.000
 21
  7753.979
  0
CIRCLE
  8
1
 10
  4518.866
 20
  8455.782
 40
     6.350
  0
LINE
  8
17
 10
  4512.516
 20
  8455.782
 11
  4525.216
 21
  8455.782
  0
LINE
  8
17
 10
  4518.866
 20
  8449.433
 11
  4518.866
 21
  8462.132
  0
CIRCLE
  8
1
 10
  4492.593
 20
  8718.511
 40
     6.350
  0
LINE
  8
17
 10
  4486.243
 20
  8718.511
 11
  4498.943
 21
  8718.511
  0
LINE
  8
17
 10
  4492.593
 20
  8712.161
 11
  4492.593
 21
  8724.861
  0
CIRCLE
  8
1
 10
   230.000
 20
  8292.252
 40
     6.350
  0
LINE
  8
17
 10
   223.650
 20
  8292.252
 11
   236.350
 21
  8292.252
  0
LINE
  8
17
 10
   230.000
 20
  8285.902
 11
   230.000
 21
  8298.602
  0
LINE
  8
1
 10
 11219.000
 20
  9385.122
 11
 11219.000
 21
  8932.876
  0
LINE
  8
1
 10
 11219.000
 20
  8932.876
 11
  4534.034
 21
  8464.899
  0
LINE
  8
1
 10
  4534.034
 20
  8464.899
 11
  4534.034
 21
  8464.899
  0
LINE
  8
1
 10
  4534.034
 20
  8464.899
 11
  4509.111
 21
  8714.133
  0
LINE
  8
1
 10
 11219.000
 20
  9385.122
 11
  4509.111
 21
  8714.133
  0
LINE
  8
5
 10
 11055.196
 20
  9305.428
 11
 11029.326
 21
  9302.841
  0
LINE
  8
5
 10
 11057.585
 20
  9281.547
 11
 11031.714
 21
  9278.960
  0
ARC
  8
5
 10
 11056.391
 20
  9293.487
 40
    12.000
 50
   -84.289
 51
    95.711
  0
ARC
  8
5
 10
 11030.520
 20
  9290.900
 40
    12.000
 50
    95.711
 51
   -84.289
  0
LINE
  8
5
 10
  5652.209
 20
  8765.129
 11
  5626.339
 21
  8762.542
  0
LINE
  8
5
 10
  5654.598
 20
  8741.248
 11
  5628.727
 21
  8738.661
  0
ARC
  8
5
 10
  5653.404
 20
  8753.188
 40
    12.000
 50
   -84.289
 51
    95.711
  0
ARC
  8
5
 10
  5627.532
 20
  8750.602
 40
    12.000
 50
    95.711
 51
   -84.289
  0
LINE
  8
5
 10
  5353.698
 20
  8735.277
 11
  5327.828
 21
  8732.690
  0
LINE
  8
5
 10
  5356.086
 20
  8711.396
 11
  5330.216
 21
  8708.810
  0
ARC
  8
5
 10
  5354.893
 20
  8723.337
 40
    12.000
 50
   -84.289
 51
    95.711
  0
ARC
  8
5
 10
  5329.021
 20
  8720.750
 40
    12.000
 50
    95.711
 51
   -84.289
  0
LINE
  8
1
 10
 11219.000
 20
  9385.122
 11
  4509.111
 21
  8714.133
  0
LINE
  8
1
 10
  4509.111
 20
  8714.133
 11
  4508.613
 21
  8719.108
  0
LINE
  8
1
 10
  4508.613
 20
  8719.108
 11
 11218.503
 21
  9390.098
  0
LINE
  8
1
 10
 11219.000
 20
  9385.122
 11
 11218.503
 21
  9390.098
  0
LINE
  8
1
 10
 11218.650
 20
  8932.851
 11
  4534.183
 21
  8464.910
  0
LINE
  8
1
 10
  4534.183
 20
  8464.910
 11
  4534.532
 21
  8459.922
  0
LINE
  8
1
 10
  4534.532
 20
  8459.922
 11
 11219.000
 21
  8927.862
  0
LINE
  8
1
 10
 11218.650
 20
  8932.851
 11
 11219.000
 21
  8927.862
  0
LINE
  8
1
 10
 11206.301
 20
  9436.723
 11
 11263.700
 21
  9436.723
  0
LINE
  8
1
 10
 11206.301
 20
  9336.723
 11
 11263.700
 21
  9336.723
  0
LINE
  8
1
 10
 11206.301
 20
  8981.723
 11
 11263.700
 21
  8981.723
  0
LINE
  8
1
 10
 11206.301
 20
  8881.722
 11
 11263.700
 21
  8881.722
  0
LINE
  8
1
 10
 11235.000
 20
  9486.723
 11
 11235.000
 21
  8833.997
  0
LINE
  8
1
 10
 11235.000
 20
  8833.997
 11
 11219.000
 21
  8833.997
  0
LINE
  8
1
 10
 11219.000
 20
  8833.997
 11
 11219.000
 21
  9486.723
  0
LINE
  8
1
 10
 11235.000
 20
  9486.723
 11
 11219.000
 21
  9486.723
  0
LINE
  8
1
 10
  4459.657
 20
  8759.438
 11
  4516.772
 21
  8765.148
  0
LINE
  8
1
 10
  4469.608
 20
  8659.934
 11
  4526.723
 21
  8665.646
  0
LINE
  8
1
 10
  4484.533
 20
  8510.678
 11
  4541.648
 21
  8516.390
  0
LINE
  8
1
 10
  4494.484
 20
  8411.175
 11
  4551.599
 21
  8416.886
  0
LINE
  8
1
 10
  4483.239
 20
  8812.045
 11
  4528.017
 21
  8364.277
  0
LINE
  8
1
 10
  4528.017
 20
  8364.277
 11
  4543.938
 21
  8365.870
  0
LINE
  8
1
 10
  4543.938
 20
  8365.870
 11
  4499.160
 21
  8813.637
  0
LINE
  8
1
 10
  4483.239
 20
  8812.045
 11
  4499.160
 21
  8813.637
  0
LINE
  8
1
 10
 11219.000
 20
  9390.146
 11
 11099.001
 21
  9378.146
  0
LINE
  8
1
 10
 11099.001
 20
  9378.146
 11
 11219.000
 21
  9486.773
  0
LINE
  8
1
 10
 11219.000
 20
  9486.773
 11
 11219.000
 21
  9486.773
  0
LINE
  8
1
 10
 11219.000
 20
  9390.146
 11
 11219.000
 21
  9486.773
  0
LINE
  8
1
 10
 11219.000
 20
  8927.862
 11
 11099.001
 21
  8919.463
  0
LINE
  8
1
 10
 11099.001
 20
  8919.463
 11
 11219.000
 21
  8833.997
  0
LINE
  8
1
 10
 11219.000
 20
  8833.997
 11
 11219.000
 21
  8833.997
  0
LINE
  8
1
 10
 11219.000
 20
  8927.862
 11
 11219.000
 21
  8833.997
  0
LINE
  8
1
 10
  4508.613
 20
  8719.108
 11
  4628.018
 21
  8731.048
  0
LINE
  8
1
 10
  4628.018
 20
  8731.048
 11
  4499.160
 21
  8813.637
  0
LINE
  8
1
 10
  4499.160
 20
  8813.637
 11
  4499.160
 21
  8813.637
  0
LINE
  8
1
 10
  4508.613
 20
  8719.108
 11
  4499.160
 21
  8813.637
  0
LINE
  8
1
 10
  4534.532
 20
  8459.922
 11
  4654.292
 21
  8468.307
  0
LINE
  8
1
 10
  4654.292
 20
  8468.307
 11
  4543.938
 21
  8365.870
  0
LINE
  8
1
 10
  4543.938
 20
  8365.870
 11
  4543.938
 21
  8365.870
  0
LINE
  8
1
 10
  4534.532
 20
  8459.922
 11
  4543.938
 21
  8365.870
  0
CIRCLE
  8
1
 10
  4492.692
 20
  8717.516
 40
     6.350
  0
LINE
  8
17
 10
  4486.342
 20
  8717.516
 11
  4499.042
 21
  8717.516
  0
LINE
  8
17
 10
  4492.692
 20
  8711.166
 11
  4492.692
 21
  8723.866
  0
CIRCLE
  8
1
 10
  4518.563
 20
  8458.805
 40
     6.350
  0
LINE
  8
17
 10
  4512.214
 20
  8458.805
 11
  4524.914
 21
  8458.805
  0
LINE
  8
17
 10
  4518.563
 20
  8452.454
 11
  4518.563
 21
  8465.154
  0
CIRCLE
  8
1
 10
 11235.000
 20
  8928.983
 40
     6.350
  0
LINE
  8
17
 10
 11228.650
 20
  8928.983
 11
 11241.351
 21
  8928.983
  0
LINE
  8
17
 10
 11235.000
 20
  8922.634
 11
 11235.000
 21
  8935.334
  0
CIRCLE
  8
1
 10
 11235.000
 20
  9391.747
 40
     6.350
  0
LINE
  8
17
 10
 11228.650
 20
  9391.747
 11
 11241.351
 21
  9391.747
  0
LINE
  8
17
 10
 11235.000
 20
  9385.397
 11
 11235.000
 21
  9398.098
  0
LINE
  8
1
 10
 11251.000
 20
  9385.122
 11
 11251.000
 21
  8932.876
  0
LINE
  8
1
 10
 11251.000
 20
  8932.876
 11
 17988.668
 21
  8459.633
  0
LINE
  8
1
 10
 17988.668
 20
  8459.633
 11
 17988.668
 21
  8459.633
  0
LINE
  8
1
 10
 17988.668
 20
  8459.633
 11
 18013.592
 21
  8708.863
  0
LINE
  8
1
 10
 11251.000
 20
  9385.122
 11
 18013.592
 21
  8708.863
  0
LINE
  8
5
 10
 11440.675
 20
  9302.841
 11
 11414.804
 21
  9305.428
  0
LINE
  8
5
 10
 11438.286
 20
  9278.960
 11
 11412.416
 21
  9281.547
  0
ARC
  8
5
 10
 11439.480
 20
  9290.900
 40
    12.000
 50
   -95.711
 51
    84.289
  0
ARC
  8
5
 10
 11413.609
 20
  9293.487
 40
    12.000
 50
    84.289
 51
   -95.711
  0
LINE
  8
5
 10
 16843.625
 20
  8762.545
 11
 16817.754
 21
  8765.132
  0
LINE
  8
5
 10
 16841.238
 20
  8738.664
 11
 16815.367
 21
  8741.252
  0
ARC
  8
5
 10
 16842.432
 20
  8750.604
 40
    12.000
 50
   -95.711
 51
    84.289
  0
ARC
  8
5
 10
 16816.561
 20
  8753.192
 40
    12.000
 50
    84.289
 51
   -95.711
  0
LINE
  8
5
 10
 17142.139
 20
  8732.694
 11
 17116.268
 21
  8735.281
  0
LINE
  8
5
 10
 17139.750
 20
  8708.813
 11
 17113.879
 21
  8711.400
  0
ARC
  8
5
 10
 17140.943
 20
  8720.754
 40
    12.000
 50
   -95.711
 51
    84.289
  0
ARC
  8
5
 10
 17115.072
 20
  8723.341
 40
    12.000
 50
    84.289
 51
   -95.711
  0
LINE
  8
1
 10
 11251.000
 20
  9385.122
 11
 18013.592
 21
  8708.863
  0
LINE
  8
1
 10
 18013.592
 20
  8708.863
 11
 18014.090
 21
  8713.838
  0
LINE
  8
1
 10
 18014.090
 20
  8713.838
 11
 11251.497
 21
  9390.098
  0
LINE
  8
1
 10
 11251.000
 20
  9385.122
 11
 11251.497
 21
  9390.098
  0
LINE
  8
1
 10
 11251.351
 20
  8932.851
 11
 17988.520
 21
  8459.644
  0
LINE
  8
1
 10
 17988.520
 20
  8459.644
 11
 17988.170
 21
  8454.655
  0
LINE
  8
1
 10
 17988.170
 20
  8454.655
 11
 11251.000
 21
  8927.862
  0
LINE
  8
1
 10
 11251.351
 20
  8932.851
 11
 11251.000
 21
  8927.862
  0
LINE
  8
1
 10
 11206.301
 20
  9436.723
 11
 11263.700
 21
  9436.723
  0
LINE
  8
1
 10
 11206.301
 20
  9336.723
 11
 11263.700
 21
  9336.723
  0
LINE
  8
1
 10
 11206.301
 20
  8981.723
 11
 11263.700
 21
  8981.723
  0
LINE
  8
1
 10
 11206.301
 20
  8881.722
 11
 11263.700
 21
  8881.722
  0
LINE
  8
1
 10
 11235.000
 20
  9486.723
 11
 11235.000
 21
  8833.997
  0
LINE
  8
1
 10
 11235.000
 20
  8833.997
 11
 11251.000
 21
  8833.997
  0
LINE
  8
1
 10
 11251.000
 20
  8833.997
 11
 11251.000
 21
  9486.723
  0
LINE
  8
1
 10
 11235.000
 20
  9486.723
 11
 11251.000
 21
  9486.723
  0
LINE
  8
1
 10
 18005.928
 20
  8759.878
 11
 18063.045
 21
  8754.167
  0
LINE
  8
1
 10
 17995.979
 20
  8660.375
 11
 18053.094
 21
  8654.664
  0
LINE
  8
1
 10
 17981.053
 20
  8511.119
 11
 18038.168
 21
  8505.408
  0
LINE
  8
1
 10
 17971.104
 20
  8411.615
 11
 18028.219
 21
  8405.904
  0
LINE
  8
1
 10
 18039.461
 20
  8806.774
 11
 17994.686
 21
  8359.008
  0
LINE
  8
1
 10
 17994.686
 20
  8359.008
 11
 17978.766
 21
  8360.600
  0
LINE
  8
1
 10
 17978.766
 20
  8360.600
 11
 18023.541
 21
  8808.367
  0
LINE
  8
1
 10
 18039.461
 20
  8806.774
 11
 18023.541
 21
  8808.367
  0
LINE
  8
1
 10
 11251.000
 20
  9390.146
 11
 11371.000
 21
  9378.146
  0
LINE
  8
1
 10
 11371.000
 20
  9378.146
 11
 11251.000
 21
  9486.773
  0
LINE
  8
1
 10
 11251.000
 20
  9486.773
 11
 11251.000
 21
  9486.773
  0
LINE
  8
1
 10
 11251.000
 20
  9390.146
 11
 11251.000
 21
  9486.773
  0
LINE
  8
1
 10
 11251.000
 20
  8927.862
 11
 11371.000
 21
  8919.434
  0
LINE
  8
1
 10
 11371.000
 20
  8919.434
 11
 11251.000
 21
  8833.997
  0
LINE
  8
1
 10
 11251.000
 20
  8833.997
 11
 11251.000
 21
  8833.997
  0
LINE
  8
1
 10
 11251.000
 20
  8927.862
 11
 11251.000
 21
  8833.997
  0
LINE
  8
1
 10
 18014.090
 20
  8713.838
 11
 17894.684
 21
  8725.778
  0
LINE
  8
1
 10
 17894.684
 20
  8725.778
 11
 18023.541
 21
  8808.367
  0
LINE
  8
1
 10
 18023.541
 20
  8808.367
 11
 18023.541
 21
  8808.367
  0
LINE
  8
1
 10
 18014.090
 20
  8713.838
 11
 18023.541
 21
  8808.367
  0
LINE
  8
1
 10
 17988.172
 20
  8454.655
 11
 17868.414
 21
  8463.067
  0
LINE
  8
1
 10
 17868.414
 20
  8463.067
 11
 17978.766
 21
  8360.600
  0
LINE
  8
1
 10
 17978.766
 20
  8360.600
 11
 17978.766
 21
  8360.600
  0
LINE
  8
1
 10
 17988.172
 20
  8454.655
 11
 17978.766
 21
  8360.600
  0
CIRCLE
  8
1
 10
 11235.000
 20
  9391.747
 40
     6.350
  0
LINE
  8
17
 10
 11228.650
 20
  9391.747
 11
 11241.351
 21
  9391.747
  0
LINE
  8
17
 10
 11235.000
 20
  9385.397
 11
 11235.000
 21
  9398.098
  0
CIRCLE
  8
1
 10
 11235.000
 20
  8928.987
 40
     6.350
  0
LINE
  8
17
 10
 11228.650
 20
  8928.987
 11
 11241.351
 21
  8928.987
  0
LINE
  8
17
 10
 11235.000
 20
  8922.638
 11
 11235.000
 21
  8935.338
  0
CIRCLE
  8
1
 10
 18004.139
 20
  8453.534
 40
     6.350
  0
LINE
  8
17
 10
 17997.787
 20
  8453.534
 11
 18010.488
 21
  8453.534
  0
LINE
  8
17
 10
 18004.139
 20
  8447.185
 11
 18004.139
 21
  8459.884
  0
CIRCLE
  8
1
 10
 18030.010
 20
  8712.245
 40
     6.350
  0
LINE
  8
17
 10
 18023.660
 20
  8712.245
 11
 18036.359
 21
  8712.245
  0
LINE
  8
17
 10
 18030.010
 20
  8705.896
 11
 18030.010
 21
  8718.596
  0
LINE
  8
1
 10
 18045.432
 20
  8705.679
 11
 18020.396
 21
  8455.315
  0
LINE
  8
1
 10
 18020.396
 20
  8455.315
 11
 21431.000
 21
  7763.629
  0
LINE
  8
1
 10
 21431.000
 20
  7763.629
 11
 21431.000
 21
  7763.629
  0
LINE
  8
1
 10
 21431.000
 20
  7763.629
 11
 21490.752
 21
  8361.146
  0
LINE
  8
1
 10
 18045.432
 20
  8705.679
 11
 21490.752
 21
  8361.146
  0
LINE
  8
1
 10
 21490.752
 20
  8361.146
 11
 21431.000
 21
  7763.629
  0
LINE
  8
1
 10
 21431.000
 20
  7763.629
 11
 21431.000
 21
  7763.629
  0
LINE
  8
1
 10
 21431.000
 20
  7763.629
 11
 22234.000
 21
  7763.629
  0
LINE
  8
1
 10
 22234.000
 20
  7763.629
 11
 22234.000
 21
  8286.822
  0
LINE
  8
1
 10
 21490.752
 20
  8361.146
 11
 22234.000
 21
  8286.822
  0
LINE
  8
5
 10
 22066.535
 20
  8240.254
 11
 22040.664
 21
  8242.841
  0
LINE
  8
5
 10
 22064.148
 20
  8216.373
 11
 22038.275
 21
  8218.960
  0
ARC
  8
5
 10
 22065.342
 20
  8228.313
 40
    12.000
 50
   -95.711
 51
    84.289
  0
ARC
  8
5
 10
 22039.471
 20
  8230.900
 40
    12.000
 50
    84.289
 51
   -95.711
  0
LINE
  8
5
 10
 22171.000
 20
  8023.822
 11
 22171.000
 21
  8049.822
  0
LINE
  8
5
 10
 22147.000
 20
  8023.822
 11
 22147.000
 21
  8049.822
  0
ARC
  8
5
 10
 22159.000
 20
  8023.822
 40
    12.000
 50
  -180.000
 51
     0.000
  0
ARC
  8
5
 10
 22159.000
 20
  8049.822
 40
    12.000
 50
     0.000
 51
  -180.000
  0
LINE
  8
1
 10
 21589.709
 20
  8320.552
 11
 21533.986
 21
  7763.331
  0
LINE
  8
1
 10
 21583.736
 20
  8321.148
 11
 21528.014
 21
  7763.928
  0
LINE
  8
1
 10
 21589.709
 20
  8320.552
 11
 21583.736
 21
  8321.148
  0
LINE
  8
1
 10
 21533.986
 20
  7763.331
 11
 21528.014
 21
  7763.928
  0
LINE
  8
1
 10
 18045.432
 20
  8705.679
 11
 22459.404
 21
  8264.281
  0
LINE
  8
1
 10
 22459.404
 20
  8264.281
 11
 22460.000
 21
  8270.252
  0
LINE
  8
1
 10
 22460.000
 20
  8270.252
 11
 18046.029
 21
  8711.648
  0
LINE
  8
1
 10
 18045.432
 20
  8705.679
 11
 18046.029
 21
  8711.648
  0
LINE
  8
5
 10
 22377.400
 20
  8298.008
 11
 22373.611
 21
  8260.098
  0
LINE
  8
1
 10
 22234.000
 20
  8286.222
 11
 22234.000
 21
  7763.629
  0
LINE
  8
1
 10
 22234.000
 20
  7763.629
 11
 22240.000
 21
  7763.629
  0
LINE
  8
1
 10
 22240.000
 20
  7763.629
 11
 22240.000
 21
  8286.222
  0
LINE
  8
1
 10
 22234.000
 20
  8286.222
 11
 22240.000
 21
  8286.222
  0
LINE
  8
1
 10
 22240.000
 20
  8286.222
 11
 22470.000
 21
  8263.222
  0
LINE
  8
1
 10
 22470.000
 20
  8263.222
 11
 22240.000
 21
  8171.222
  0
LINE
  8
1
 10
 18021.188
 20
  8455.155
 11
 21431.000
 21
  7763.629
  0
LINE
  8
1
 10
 21431.000
 20
  7763.629
 11
 21429.410
 21
  7755.789
  0
LINE
  8
1
 10
 21429.410
 20
  7755.789
 11
 18019.596
 21
  8447.314
  0
LINE
  8
1
 10
 18021.188
 20
  8455.155
 11
 18019.596
 21
  8447.314
  0
LINE
  8
1
 10
 18005.928
 20
  8759.878
 11
 18063.045
 21
  8754.167
  0
LINE
  8
1
 10
 17995.979
 20
  8660.375
 11
 18053.094
 21
  8654.664
  0
LINE
  8
1
 10
 17981.053
 20
  8511.119
 11
 18038.168
 21
  8505.408
  0
LINE
  8
1
 10
 17971.104
 20
  8411.615
 11
 18028.219
 21
  8405.904
  0
LINE
  8
1
 10
 18039.461
 20
  8806.774
 11
 17994.686
 21
  8359.008
  0
LINE
  8
1
 10
 17994.686
 20
  8359.008
 11
 18010.605
 21
  8357.415
  0
LINE
  8
1
 10
 18010.605
 20
  8357.415
 11
 18055.381
 21
  8805.183
  0
LINE
  8
1
 10
 18039.461
 20
  8806.774
 11
 18055.381
 21
  8805.183
  0
LINE
  8
1
 10
 22284.000
 20
  7776.329
 11
 22284.000
 21
  7718.930
  0
LINE
  8
1
 10
 22184.000
 20
  7776.329
 11
 22184.000
 21
  7718.930
  0
LINE
  8
1
 10
 21884.000
 20
  7776.329
 11
 21884.000
 21
  7718.930
  0
LINE
  8
1
 10
 21584.000
 20
  7776.329
 11
 21584.000
 21
  7718.930
  0
LINE
  8
1
 10
 21484.002
 20
  7776.329
 11
 21484.002
 21
  7718.930
  0
LINE
  8
1
 10
 22334.000
 20
  7747.629
 11
 21434.000
 21
  7747.629
  0
LINE
  8
1
 10
 21434.000
 20
  7747.629
 11
 21434.000
 21
  7763.629
  0
LINE
  8
1
 10
 21434.000
 20
  7763.629
 11
 22334.000
 21
  7763.629
  0
LINE
  8
1
 10
 22334.000
 20
  7747.629
 11
 22334.000
 21
  7763.629
  0
LINE
  8
1
 10
 18046.029
 20
  8711.648
 11
 18165.434
 21
  8699.708
  0
LINE
  8
1
 10
 18165.434
 20
  8699.708
 11
 18055.381
 21
  8805.183
  0
LINE
  8
1
 10
 18055.381
 20
  8805.183
 11
 18055.381
 21
  8805.183
  0
LINE
  8
1
 10
 18046.029
 20
  8711.648
 11
 18055.381
 21
  8805.183
  0
LINE
  8
1
 10
 18019.596
 20
  8447.314
 11
 18137.799
 21
  8423.343
  0
LINE
  8
1
 10
 18137.799
 20
  8423.343
 11
 18010.605
 21
  8357.415
  0
LINE
  8
1
 10
 18010.605
 20
  8357.415
 11
 18010.605
 21
  8357.415
  0
LINE
  8
1
 10
 18019.596
 20
  8447.314
 11
 18010.605
 21
  8357.415
  0
LINE
  8
1
 10
 22240.000
 20
  7763.629
 11
 22240.000
 21
  7883.629
  0
LINE
  8
1
 10
 22240.000
 20
  7883.629
 11
 22334.000
 21
  7763.629
  0
LINE
  8
1
 10
 22334.000
 20
  7763.629
 11
 22334.000
 21
  7763.629
  0
LINE
  8
1
 10
 22240.000
 20
  7763.629
 11
 22334.000
 21
  7763.629
  0
CIRCLE
  8
1
 10
 18030.109
 20
  8713.241
 40
     6.350
  0
LINE
  8
17
 10
 18023.758
 20
  8713.241
 11
 18036.459
 21
  8713.241
  0
LINE
  8
17
 10
 18030.109
 20
  8706.891
 11
 18030.109
 21
  8719.591
  0
CIRCLE
  8
1
 10
 18003.836
 20
  8450.511
 40
     6.350
  0
LINE
  8
17
 10
 17997.486
 20
  8450.511
 11
 18010.186
 21
  8450.511
  0
LINE
  8
17
 10
 18003.836
 20
  8444.161
 11
 18003.836
 21
  8456.861
  0
CIRCLE
  8
1
 10
 21434.000
 20
  7747.629
 40
     6.350
  0
LINE
  8
17
 10
 21427.650
 20
  7747.629
 11
 21440.350
 21
  7747.629
  0
LINE
  8
17
 10
 21434.000
 20
  7741.279
 11
 21434.000
 21
  7753.979
  0
CIRCLE
  8
1
 10
 22240.000
 20
  7747.629
 40
     6.350
  0
LINE
  8
17
 10
 22233.650
 20
  7747.629
 11
 22246.350
 21
  7747.629
  0
LINE
  8
17
 10
 22240.000
 20
  7741.279
 11
 22240.000
 21
  7753.979
  0
CIRCLE
  8
1
 10
 22240.000
 20
  8292.252
 40
     6.350
  0
LINE
  8
17
 10
 22233.650
 20
  8292.252
 11
 22246.350
 21
  8292.252
  0
LINE
  8
17
 10
 22240.000
 20
  8285.902
 11
 22240.000
 21
  8298.602
  0
LINE
  8
1
 10
 22234.000
 20
    16.000
 11
 21834.002
 21
    16.000
  0
LINE
  8
1
 10
 21834.002
 20
    16.000
 11
 21534.000
 21
  4250.000
  0
LINE
  8
1
 10
 21534.000
 20
  4250.000
 11
 21534.000
 21
  4250.000
  0
LINE
  8
1
 10
 21534.000
 20
  4250.000
 11
 22234.000
 21
  4250.000
  0
LINE
  8
1
 10
 22234.000
 20
    16.000
 11
 22234.000
 21
  4250.000
  0
LINE
  8
1
 10
 22234.000
 20
  4250.000
 11
 21534.000
 21
  4250.000
  0
LINE
  8
1
 10
 21534.000
 20
  4250.000
 11
 21534.000
 21
  7731.629
  0
LINE
  8
1
 10
 21534.000
 20
  7731.629
 11
 21534.000
 21
  7731.629
  0
LINE
  8
1
 10
 21534.000
 20
  7731.629
 11
 22234.000
 21
  7731.629
  0
LINE
  8
1
 10
 22234.000
 20
  4250.000
 11
 22234.000
 21
  7731.629
  0
LINE
  8
5
 10
 22171.000
 20
   253.000
 11
 22171.000
 21
   279.000
  0
LINE
  8
5
 10
 22147.000
 20
   253.000
 11
 22147.000
 21
   279.000
  0
ARC
  8
5
 10
 22159.000
 20
   253.000
 40
    12.000
 50
  -180.000
 51
     0.000
  0
ARC
  8
5
 10
 22159.000
 20
   279.000
 40
    12.000
 50
     0.000
 51
  -180.000
  0
LINE
  8
5
 10
 22171.000
 20
  5887.000
 11
 22171.000
 21
  5913.000
  0
LINE
  8
5
 10
 22147.000
 20
  5887.000
 11
 22147.000
 21
  5913.000
  0
ARC
  8
5
 10
 22159.000
 20
  5887.000
 40
    12.000
 50
  -180.000
 51
     0.000
  0
ARC
  8
5
 10
 22159.000
 20
  5913.000
 40
    12.000
 50
     0.000
 51
  -180.000
  0
LINE
  8
5
 10
 22171.000
 20
  6187.000
 11
 22171.000
 21
  6213.000
  0
LINE
  8
5
 10
 22147.000
 20
  6187.000
 11
 22147.000
 21
  6213.000
  0
ARC
  8
5
 10
 22159.000
 20
  6187.000
 40
    12.000
 50
  -180.000
 51
     0.000
  0
ARC
  8
5
 10
 22159.000
 20
  6213.000
 40
    12.000
 50
     0.000
 51
  -180.000
  0
LINE
  8
1
 10
 22134.000
 20
  5474.000
 11
 21534.000
 21
  5474.000
  0
LINE
  8
1
 10
 22134.000
 20
  5468.000
 11
 21534.000
 21
  5468.000
  0
LINE
  8
1
 10
 22134.000
 20
  5474.000
 11
 22134.000
 21
  5468.000
  0
LINE
  8
1
 10
 21534.000
 20
  5474.000
 11
 21534.000
 21
  5468.000
  0
LINE
  8
1
 10
 22134.000
 20
  5834.000
 11
 21534.000
 21
  5834.000
  0
LINE
  8
1
 10
 22134.000
 20
  5828.000
 11
 21534.000
 21
  5828.000
  0
LINE
  8
1
 10
 22134.000
 20
  5834.000
 11
 22134.000
 21
  5828.000
  0
LINE
  8
1
 10
 21534.000
 20
  5834.000
 11
 21534.000
 21
  5828.000
  0
LINE
  8
1
 10
 22234.000
 20
  6050.000
 11
 21634.000
 21
  6050.000
  0
LINE
  8
1
 10
 22234.000
 20
  6044.000
 11
 21634.000
 21
  6044.000
  0
LINE
  8
1
 10
 22234.000
 20
  6050.000
 11
 22234.000
 21
  6044.000
  0
LINE
  8
1
 10
 21634.000
 20
  6050.000
 11
 21634.000
 21
  6044.000
  0
LINE
  8
1
 10
 22234.000
 20
    16.000
 11
 22234.000
 21
  7731.629
  0
LINE
  8
1
 10
 22234.000
 20
  7731.629
 11
 22240.000
 21
  7731.629
  0
LINE
  8
1
 10
 22240.000
 20
  7731.629
 11
 22240.000
 21
    16.000
  0
LINE
  8
1
 10
 22234.000
 20
    16.000
 11
 22240.000
 21
    16.000
  0
LINE
  8
5
 10
 22259.400
 20
  7080.000
 11
 22221.301
 21
  7080.000
  0
LINE
  8
5
 10
 22259.400
 20
  5580.000
 11
 22221.301
 21
  5580.000
  0
LINE
  8
5
 10
 22259.400
 20
  4080.000
 11
 22221.301
 21
  4080.000
  0
LINE
  8
5
 10
 22259.400
 20
  2580.000
 11
 22221.301
 21
  2580.000
  0
LINE
  8
1
 10
 21833.971
 20
    16.424
 11
 21534.000
 21
  4250.000
  0
LINE
  8
1
 10
 21534.000
 20
  4250.000
 11
 21528.014
 21
  4249.576
  0
LINE
  8
1
 10
 21528.014
 20
  4249.576
 11
 21827.984
 21
    16.000
  0
LINE
  8
1
 10
 21833.971
 20
    16.424
 11
 21827.984
 21
    16.000
  0
LINE
  8
1
 10
 21534.000
 20
  4250.000
 11
 21534.000
 21
  7731.629
  0
LINE
  8
1
 10
 21534.000
 20
  7731.629
 11
 21528.000
 21
  7731.629
  0
LINE
  8
1
 10
 21528.000
 20
  7731.629
 11
 21528.000
 21
  4250.000
  0
LINE
  8
1
 10
 21534.000
 20
  4250.000
 11
 21528.000
 21
  4250.000
  0
CIRCLE
  8
1
 10
 21528.000
 20
  5476.000
 40
    12.700
  0
CIRCLE
  8
1
 10
 21528.000
 20
  5826.000
 40
    12.700
  0
LINE
  8
1
 10
 22312.000
 20
    28.700
 11
 22312.000
 21
   -28.700
  0
LINE
  8
1
 10
 22162.000
 20
    28.700
 11
 22162.000
 21
   -28.700
  0
LINE
  8
1
 10
 21907.127
 20
    28.700
 11
 21907.127
 21
   -28.700
  0
LINE
  8
1
 10
 21757.127
 20
    28.700
 11
 21757.127
 21
   -28.700
  0
LINE
  8
1
 10
 22387.000
 20
     0.000
 11
 21682.127
 21
     0.000
  0
LINE
  8
1
 10
 21682.127
 20
     0.000
 11
 21682.127
 21
    16.000
  0
LINE
  8
1
 10
 21682.127
 20
    16.000
 11
 22387.000
 21
    16.000
  0
LINE
  8
1
 10
 22387.000
 20
     0.000
 11
 22387.000
 21
    16.000
  0
LINE
  8
1
 10
 22284.000
 20
  7776.329
 11
 22284.000
 21
  7718.930
  0
LINE
  8
1
 10
 22184.000
 20
  7776.329
 11
 22184.000
 21
  7718.930
  0
LINE
  8
1
 10
 21884.000
 20
  7776.329
 11
 21884.000
 21
  7718.930
  0
LINE
  8
1
 10
 21584.000
 20
  7776.329
 11
 21584.000
 21
  7718.930
  0
LINE
  8
1
 10
 21484.002
 20
  7776.329
 11
 21484.002
 21
  7718.930
  0
LINE
  8
1
 10
 22334.000
 20
  7747.629
 11
 21434.000
 21
  7747.629
  0
LINE
  8
1
 10
 21434.000
 20
  7747.629
 11
 21434.000
 21
  7731.629
  0
LINE
  8
1
 10
 21434.000
 20
  7731.629
 11
 22334.000
 21
  7731.629
  0
LINE
  8
1
 10
 22334.000
 20
  7747.629
 11
 22334.000
 21
  7731.629
  0
LINE
  8
1
 10
 22240.000
 20
    16.000
 11
 22240.000
 21
   213.000
  0
LINE
  8
1
 10
 22240.000
 20
   213.000
 11
 22387.000
 21
    66.000
  0
LINE
  8
1
 10
 22387.000
 20
    66.000
 11
 22387.000
 21
    16.000
  0
LINE
  8
1
 10
 22240.000
 20
    16.000
 11
 22387.000
 21
    16.000
  0
LINE
  8
1
 10
 21827.984
 20
    16.000
 11
 21814.107
 21
   211.858
  0
LINE
  8
1
 10
 21814.107
 20
   211.858
 11
 21682.127
 21
    66.000
  0
LINE
  8
1
 10
 21682.127
 20
    66.000
 11
 21682.127
 21
    16.000
  0
LINE
  8
1
 10
 21827.984
 20
    16.000
 11
 21682.127
 21
    16.000
  0
LINE
  8
1
 10
 22240.000
 20
  7731.629
 11
 22240.000
 21
  7611.630
  0
LINE
  8
1
 10
 22240.000
 20
  7611.630
 11
 22334.000
 21
  7731.629
  0
LINE
  8
1
 10
 22334.000
 20
  7731.629
 11
 22334.000
 21
  7731.629
  0
LINE
  8
1
 10
 22240.000
 20
  7731.629
 11
 22334.000
 21
  7731.629
  0
LINE
  8
1
 10
 21528.000
 20
  7731.629
 11
 21528.000
 21
  7611.630
  0
LINE
  8
1
 10
 21528.000
 20
  7611.630
 11
 21434.000
 21
  7731.629
  0
LINE
  8
1
 10
 21434.000
 20
  7731.629
 11
 21434.000
 21
  7731.629
  0
LINE
  8
1
 10
 21528.000
 20
  7731.629
 11
 21434.000
 21
  7731.629
  0
CIRCLE
  8
1
 10
 22240.000
 20
  7747.629
 40
     6.350
  0
LINE
  8
17
 10
 22233.650
 20
  7747.629
 11
 22246.350
 21
  7747.629
  0
LINE
  8
17
 10
 22240.000
 20
  7741.279
 11
 22240.000
 21
  7753.979
  0
CIRCLE
  8
1
 10
 21528.000
 20
  7747.629
 40
     6.350
  0
LINE
  8
17
 10
 21521.650
 20
  7747.629
 11
 21534.350
 21
  7747.629
  0
LINE
  8
17
 10
 21528.000
 20
  7741.279
 11
 21528.000
 21
  7753.979
  0
CIRCLE
  8
1
 10
 21829.119
 20
     0.000
 40
     6.350
  0
LINE
  8
17
 10
 21822.770
 20
     0.000
 11
 21835.471
 21
     0.000
  0
LINE
  8
17
 10
 21829.119
 20
    -6.350
 11
 21829.119
 21
     6.350
  0
CIRCLE
  8
1
 10
 22240.000
 20
     0.000
 40
     6.350
  0
LINE
  8
17
 10
 22233.650
 20
     0.000
 11
 22246.350
 21
     0.000
  0
LINE
  8
17
 10
 22240.000
 20
    -6.350
 11
 22240.000
 21
     6.350
  0
LINE
  8
3
 10
     0.000
 20
  2580.000
 11
  -175.915
 21
  2478.294
  0
LINE
  8
3
 10
     0.000
 20
  2580.000
 11
  -176.007
 21
  2681.547
  0
LINE
  8
3
 10
  -176.007
 20
  2681.547
 11
  -175.915
 21
  2478.294
  0
LINE
  8
3
 10
     0.000
 20
  2580.000
 11
  -175.915
 21
  2478.294
  0
LINE
  8
3
 10
     0.000
 20
  2580.000
 11
  -176.007
 21
  2681.547
  0
LINE
  8
3
 10
  -176.007
 20
  2681.547
 11
  -175.915
 21
  2478.294
  0
LINE
  8
3
 10
  1367.082
 20
  8556.709
 11
  1248.376
 21
  8721.630
  0
LINE
  8
3
 10
  1367.082
 20
  8556.709
 11
  1450.611
 21
  8741.946
  0
LINE
  8
3
 10
  1450.611
 20
  8741.946
 11
  1248.376
 21
  8721.630
  0
LINE
  8
3
 10
  4101.145
 20
  8830.115
 11
  3982.439
 21
  8995.037
  0
LINE
  8
3
 10
  4101.145
 20
  8830.115
 11
  4184.674
 21
  9015.353
  0
LINE
  8
3
 10
  4184.674
 20
  9015.353
 11
  3982.439
 21
  8995.037
  0
LINE
  8
3
 10
  6835.308
 20
  9103.532
 11
  6716.603
 21
  9268.453
  0
LINE
  8
3
 10
  6835.308
 20
  9103.532
 11
  6918.838
 21
  9288.770
  0
LINE
  8
3
 10
  6918.838
 20
  9288.770
 11
  6716.603
 21
  9268.453
  0
LINE
  8
3
 10
  9569.473
 20
  9376.947
 11
  9450.767
 21
  9541.869
  0
LINE
  8
3
 10
  9569.473
 20
  9376.947
 11
  9653.002
 21
  9562.186
  0
LINE
  8
3
 10
  9653.002
 20
  9562.186
 11
  9450.767
 21
  9541.869
  0
LINE
  8
3
 10
 10936.454
 20
  9513.646
 11
 10817.748
 21
  9678.568
  0
LINE
  8
3
 10
 10936.454
 20
  9513.646
 11
 11019.983
 21
  9698.884
  0
LINE
  8
3
 10
 11019.983
 20
  9698.884
 11
 10817.748
 21
  9678.568
  0
LINE
  8
3
 10
  1367.082
 20
  8556.709
 11
  1248.376
 21
  8721.630
  0
LINE
  8
3
 10
  1367.082
 20
  8556.709
 11
  1450.611
 21
  8741.946
  0
LINE
  8
3
 10
  1450.611
 20
  8741.946
 11
  1248.376
 21
  8721.630
  0
LINE
  8
3
 10
  4101.145
 20
  8830.115
 11
  3982.439
 21
  8995.037
  0
LINE
  8
3
 10
  4101.145
 20
  8830.115
 11
  4184.674
 21
  9015.353
  0
LINE
  8
3
 10
  4184.674
 20
  9015.353
 11
  3982.439
 21
  8995.037
  0
LINE
  8
3
 10
  6835.308
 20
  9103.532
 11
  6716.603
 21
  9268.453
  0
LINE
  8
3
 10
  6835.308
 20
  9103.532
 11
  6918.838
 21
  9288.770
  0
LINE
  8
3
 10
  6918.838
 20
  9288.770
 11
  6716.603
 21
  9268.453
  0
LINE
  8
3
 10
  9569.473
 20
  9376.947
 11
  9450.767
 21
  9541.869
  0
LINE
  8
3
 10
  9569.473
 20
  9376.947
 11
  9653.002
 21
  9562.186
  0
LINE
  8
3
 10
  9653.002
 20
  9562.186
 11
  9450.767
 21
  9541.869
  0
LINE
  8
3
 10
 10936.454
 20
  9513.646
 11
 10817.748
 21
  9678.568
  0
LINE
  8
3
 10
 10936.454
 20
  9513.646
 11
 11019.983
 21
  9698.884
  0
LINE
  8
3
 10
 11019.983
 20
  9698.884
 11
 10817.748
 21
  9678.568
  0
LINE
  8
3
 10
 11533.512
 20
  9513.649
 11
 11449.814
 21
  9698.812
  0
LINE
  8
3
 10
 11533.512
 20
  9513.649
 11
 11652.067
 21
  9678.679
  0
LINE
  8
3
 10
 11652.067
 20
  9678.679
 11
 11449.814
 21
  9698.812
  0
LINE
  8
3
 10
 12900.592
 20
  9376.941
 11
 12816.895
 21
  9562.104
  0
LINE
  8
3
 10
 12900.592
 20
  9376.941
 11
 13019.147
 21
  9541.971
  0
LINE
  8
3
 10
 13019.147
 20
  9541.971
 11
 12816.895
 21
  9562.104
  0
LINE
  8
3
 10
 15634.658
 20
  9103.535
 11
 15550.961
 21
  9288.697
  0
LINE
  8
3
 10
 15634.658
 20
  9103.535
 11
 15753.214
 21
  9268.564
  0
LINE
  8
3
 10
 15753.214
 20
  9268.564
 11
 15550.961
 21
  9288.697
  0
LINE
  8
3
 10
 18368.820
 20
  8830.118
 11
 18285.123
 21
  9015.280
  0
LINE
  8
3
 10
 18368.820
 20
  8830.118
 11
 18487.377
 21
  8995.147
  0
LINE
  8
3
 10
 18487.377
 20
  8995.147
 11
 18285.123
 21
  9015.280
  0
LINE
  8
3
 10
 21102.982
 20
  8556.702
 11
 21019.285
 21
  8741.864
  0
LINE
  8
3
 10
 21102.982
 20
  8556.702
 11
 21221.539
 21
  8721.731
  0
LINE
  8
3
 10
 21221.539
 20
  8721.731
 11
 21019.285
 21
  8741.864
  0
LINE
  8
3
 10
 11533.512
 20
  9513.649
 11
 11449.814
 21
  9698.812
  0
LINE
  8
3
 10
 11533.512
 20
  9513.649
 11
 11652.067
 21
  9678.679
  0
LINE
  8
3
 10
 11652.067
 20
  9678.679
 11
 11449.814
 21
  9698.812
  0
LINE
  8
3
 10
 12900.592
 20
  9376.941
 11
 12816.895
 21
  9562.104
  0
LINE
  8
3
 10
 12900.592
 20
  9376.941
 11
 13019.147
 21
  9541.971
  0
LINE
  8
3
 10
 13019.147
 20
  9541.971
 11
 12816.895
 21
  9562.104
  0
LINE
  8
3
 10
 15634.658
 20
  9103.535
 11
 15550.961
 21
  9288.697
  0
LINE
  8
3
 10
 15634.658
 20
  9103.535
 11
 15753.214
 21
  9268.564
  0
LINE
  8
3
 10
 15753.214
 20
  9268.564
 11
 15550.961
 21
  9288.697
  0
LINE
  8
3
 10
 18368.820
 20
  8830.118
 11
 18285.123
 21
  9015.280
  0
LINE
  8
3
 10
 18368.820
 20
  8830.118
 11
 18487.377
 21
  8995.147
  0
LINE
  8
3
 10
 18487.377
 20
  8995.147
 11
 18285.123
 21
  9015.280
  0
LINE
  8
3
 10
 21102.982
 20
  8556.702
 11
 21019.285
 21
  8741.864
  0
LINE
  8
3
 10
 21102.982
 20
  8556.702
 11
 21221.539
 21
  8721.731
  0
LINE
  8
3
 10
 21221.539
 20
  8721.731
 11
 21019.285
 21
  8741.864
  0
LINE
  8
3
 10
 22470.000
 20
  2580.000
 11
 22645.916
 21
  2681.707
  0
LINE
  8
3
 10
 22470.000
 20
  2580.000
 11
 22646.006
 21
  2478.453
  0
LINE
  8
3
 10
 22646.006
 20
  2478.453
 11
 22645.916
 21
  2681.707
  0
LINE
  8
3
 10
 22470.000
 20
  2580.000
 11
 22645.916
 21
  2681.707
  0
LINE
  8
3
 10
 22470.000
 20
  2580.000
 11
 22646.006
 21
  2478.453
  0
LINE
  8
3
 10
 22646.006
 20
  2478.453
 11
 22645.916
 21
  2681.707
  0
LINE
  8
5
 10
  1367.082
 20
  8556.709
 11
  1382.007
 21
  8407.452
  0
LINE
  8
5
 10
  2734.163
 20
  8693.417
 11
  2749.089
 21
  8544.160
  0
LINE
  8
5
 10
  4101.145
 20
  8830.115
 11
  4116.070
 21
  8680.859
  0
LINE
  8
5
 10
  5468.227
 20
  8966.823
 11
  5483.152
 21
  8817.567
  0
LINE
  8
5
 10
  6835.308
 20
  9103.531
 11
  6850.234
 21
  8954.276
  0
LINE
  8
5
 10
  8202.390
 20
  9240.239
 11
  8217.315
 21
  9090.984
  0
LINE
  8
5
 10
  9569.473
 20
  9376.947
 11
  9584.397
 21
  9227.692
  0
LINE
  8
5
 10
 10936.454
 20
  9513.646
 11
 10951.380
 21
  9364.391
  0
LINE
  8
5
 10
 11533.512
 20
  9513.648
 11
 11518.586
 21
  9364.395
  0
LINE
  8
5
 10
 12900.592
 20
  9376.940
 11
 12885.667
 21
  9227.687
  0
LINE
  8
5
 10
 14267.675
 20
  9240.232
 11
 14252.748
 21
  9090.979
  0
LINE
  8
5
 10
 15634.658
 20
  9103.534
 11
 15619.731
 21
  8954.279
  0
LINE
  8
5
 10
 17001.738
 20
  8966.826
 11
 16986.812
 21
  8817.571
  0
LINE
  8
5
 10
 18368.820
 20
  8830.118
 11
 18353.895
 21
  8680.862
  0
LINE
  8
5
 10
 19735.902
 20
  8693.410
 11
 19720.977
 21
  8544.154
  0
LINE
  8
5
 10
 21102.982
 20
  8556.702
 11
 21088.057
 21
  8407.446
  0
LINE
  8
5
 10
   764.800
 20
  2580.000
 11
   828.300
 21
  2580.000
  0
LINE
  8
5
 10
   764.800
 20
  2580.000
 11
   828.300
 21
  2580.000
  0
LINE
  8
5
 10
  1432.034
 20
  7907.182
 11
  1438.353
 21
  7843.998
  0
LINE
  8
5
 10
  4138.962
 20
  8451.944
 11
  4145.281
 21
  8388.760
  0
LINE
  8
5
 10
  6876.411
 20
  8692.503
 11
  6882.729
 21
  8629.318
  0
LINE
  8
5
 10
  9618.720
 20
  8884.477
 11
  9625.038
 21
  8821.292
  0
LINE
  8
5
 10
 10989.773
 20
  8980.456
 11
 10996.092
 21
  8917.271
  0
LINE
  8
5
 10
  1432.034
 20
  7907.182
 11
  1438.353
 21
  7843.998
  0
LINE
  8
5
 10
  4138.962
 20
  8451.944
 11
  4145.281
 21
  8388.760
  0
LINE
  8
5
 10
  6876.411
 20
  8692.503
 11
  6882.729
 21
  8629.318
  0
LINE
  8
5
 10
  9618.720
 20
  8884.477
 11
  9625.038
 21
  8821.292
  0
LINE
  8
5
 10
 10989.773
 20
  8980.456
 11
 10996.092
 21
  8917.271
  0
LINE
  8
5
 10
 11480.188
 20
  8980.406
 11
 11473.869
 21
  8917.222
  0
LINE
  8
5
 10
 12851.309
 20
  8884.101
 11
 12844.990
 21
  8820.916
  0
LINE
  8
5
 10
 15593.454
 20
  8691.497
 11
 15587.135
 21
  8628.312
  0
LINE
  8
5
 10
 18331.479
 20
  8456.692
 11
 18325.160
 21
  8393.508
  0
LINE
  8
5
 10
 21038.092
 20
  7907.778
 11
 21031.773
 21
  7844.594
  0
LINE
  8
5
 10
 11480.188
 20
  8980.406
 11
 11473.869
 21
  8917.222
  0
LINE
  8
5
 10
 12851.309
 20
  8884.101
 11
 12844.990
 21
  8820.916
  0
LINE
  8
5
 10
 15593.454
 20
  8691.497
 11
 15587.135
 21
  8628.312
  0
LINE
  8
5
 10
 18331.479
 20
  8456.692
 11
 18325.160
 21
  8393.508
  0
LINE
  8
5
 10
 21038.092
 20
  7907.778
 11
 21031.773
 21
  7844.594
  0
LINE
  8
5
 10
 21715.828
 20
  2580.000
 11
 21652.328
 21
  2580.000
  0
LINE
  8
5
 10
 21715.828
 20
  2580.000
 11
 21652.328
 21
  2580.000
  0
LINE
  8
1
 10
   942.000
 20
  5834.000
 11
  1400.000
 21
  5834.000
  0
LINE
  8
1
 10
   942.000
 20
  5826.000
 11
  1400.000
 21
  5826.000
  0
LINE
  8
1
 10
  1400.000
 20
  5834.000
 11
  1400.000
 21
  5468.000
  0
LINE
  8
1
 10
  1400.000
 20
  5468.000
 11
   942.000
 21
  5468.000
  0
LINE
  8
1
 10
  1400.000
 20
  5476.000
 11
   942.000
 21
  5476.000
  0
LINE
  8
1
 10
 21528.000
 20
  5834.000
 11
 21070.000
 21
  5834.000
  0
LINE
  8
1
 10
 21528.000
 20
  5826.000
 11
 21070.000
 21
  5826.000
  0
LINE
  8
1
 10
 21070.000
 20
  5834.000
 11
 21070.000
 21
  5468.000
  0
LINE
  8
1
 10
 21070.000
 20
  5468.000
 11
 21528.000
 21
  5468.000
  0
LINE
  8
1
 10
 21070.000
 20
  5476.000
 11
 21528.000
 21
  5476.000
  0
LINE
  8
1
 10
   336.000
 20
  5474.000
 11
   936.000
 21
  5474.000
  0
LINE
  8
1
 10
   336.000
 20
  5468.000
 11
   936.000
 21
  5468.000
  0
LINE
  8
1
 10
   336.000
 20
  5474.000
 11
   336.000
 21
  5468.000
  0
LINE
  8
1
 10
   936.000
 20
  5474.000
 11
   936.000
 21
  5468.000
  0
LINE
  8
1
 10
   336.000
 20
  5834.000
 11
   936.000
 21
  5834.000
  0
LINE
  8
1
 10
   336.000
 20
  5828.000
 11
   936.000
 21
  5828.000
  0
LINE
  8
1
 10
   336.000
 20
  5834.000
 11
   336.000
 21
  5828.000
  0
LINE
  8
1
 10
   936.000
 20
  5834.000
 11
   936.000
 21
  5828.000
  0
LINE
  8
1
 10
   236.000
 20
  6050.000
 11
   836.000
 21
  6050.000
  0
LINE
  8
1
 10
   236.000
 20
  6044.000
 11
   836.000
 21
  6044.000
  0
LINE
  8
1
 10
   236.000
 20
  6050.000
 11
   236.000
 21
  6044.000
  0
LINE
  8
1
 10
   836.000
 20
  6050.000
 11
   836.000
 21
  6044.000
  0
LINE
  8
17
 10
   223.650
 20
     0.000
 11
   236.350
 21
     0.000
  0
LINE
  8
17
 10
   230.000
 20
    -6.350
 11
   230.000
 21
     6.350
  0
LINE
  8
17
 10
   634.467
 20
     0.000
 11
   647.167
 21
     0.000
  0
LINE
  8
17
 10
   640.817
 20
    -6.350
 11
   640.817
 21
     6.350
  0
LINE
  8
17
 10
   935.650
 20
  7747.629
 11
   948.350
 21
  7747.629
  0
LINE
  8
17
 10
   942.000
 20
  7741.279
 11
   942.000
 21
  7753.979
  0
LINE
  8
17
 10
   223.650
 20
  7747.629
 11
   236.350
 21
  7747.629
  0
LINE
  8
17
 10
   230.000
 20
  7741.279
 11
   230.000
 21
  7753.979
  0
LINE
  8
1
 10
   886.263
 20
  8321.148
 11
   941.985
 21
  7763.928
  0
LINE
  8
1
 10
   880.293
 20
  8320.552
 11
   936.015
 21
  7763.331
  0
LINE
  8
1
 10
   886.263
 20
  8321.148
 11
   880.293
 21
  8320.552
  0
LINE
  8
1
 10
   941.985
 20
  7763.928
 11
   936.015
 21
  7763.331
  0
LINE
  8
17
 10
   223.650
 20
  7747.629
 11
   236.350
 21
  7747.629
  0
LINE
  8
17
 10
   230.000
 20
  7741.279
 11
   230.000
 21
  7753.979
  0
LINE
  8
17
 10
  1029.650
 20
  7747.629
 11
  1042.350
 21
  7747.629
  0
LINE
  8
17
 10
  1036.000
 20
  7741.279
 11
  1036.000
 21
  7753.979
  0
LINE
  8
17
 10
  4512.516
 20
  8455.782
 11
  4525.216
 21
  8455.782
  0
LINE
  8
17
 10
  4518.866
 20
  8449.433
 11
  4518.866
 21
  8462.132
  0
LINE
  8
17
 10
  4486.243
 20
  8718.511
 11
  4498.943
 21
  8718.511
  0
LINE
  8
17
 10
  4492.593
 20
  8712.161
 11
  4492.593
 21
  8724.861
  0
LINE
  8
17
 10
   223.650
 20
  8292.252
 11
   236.350
 21
  8292.252
  0
LINE
  8
17
 10
   230.000
 20
  8285.902
 11
   230.000
 21
  8298.602
  0
LINE
  8
17
 10
  4486.342
 20
  8717.516
 11
  4499.042
 21
  8717.516
  0
LINE
  8
17
 10
  4492.692
 20
  8711.166
 11
  4492.692
 21
  8723.866
  0
LINE
  8
17
 10
  4512.214
 20
  8458.805
 11
  4524.914
 21
  8458.805
  0
LINE
  8
17
 10
  4518.563
 20
  8452.454
 11
  4518.563
 21
  8465.154
  0
LINE
  8
17
 10
 11228.650
 20
  8928.983
 11
 11241.351
 21
  8928.983
  0
LINE
  8
17
 10
 11235.000
 20
  8922.634
 11
 11235.000
 21
  8935.334
  0
LINE
  8
17
 10
 11228.650
 20
  9391.747
 11
 11241.351
 21
  9391.747
  0
LINE
  8
17
 10
 11235.000
 20
  9385.397
 11
 11235.000
 21
  9398.098
  0
LINE
  8
17
 10
 11228.650
 20
  9391.747
 11
 11241.351
 21
  9391.747
  0
LINE
  8
17
 10
 11235.000
 20
  9385.397
 11
 11235.000
 21
  9398.098
  0
LINE
  8
17
 10
 11228.650
 20
  8928.987
 11
 11241.351
 21
  8928.987
  0
LINE
  8
17
 10
 11235.000
 20
  8922.638
 11
 11235.000
 21
  8935.338
  0
LINE
  8
17
 10
 17997.787
 20
  8453.534
 11
 18010.488
 21
  8453.534
  0
LINE
  8
17
 10
 18004.139
 20
  8447.185
 11
 18004.139
 21
  8459.884
  0
LINE
  8
17
 10
 18023.660
 20
  8712.245
 11
 18036.359
 21
  8712.245
  0
LINE
  8
17
 10
 18030.010
 20
  8705.896
 11
 18030.010
 21
  8718.596
  0
LINE
  8
1
 10
 21589.709
 20
  8320.552
 11
 21533.986
 21
  7763.331
  0
LINE
  8
1
 10
 21583.736
 20
  8321.148
 11
 21528.014
 21
  7763.928
  0
LINE
  8
1
 10
 21589.709
 20
  8320.552
 11
 21583.736
 21
  8321.148
  0
LINE
  8
1
 10
 21533.986
 20
  7763.331
 11
 21528.014
 21
  7763.928
  0
LINE
  8
17
 10
 18023.758
 20
  8713.241
 11
 18036.459
 21
  8713.241
  0
LINE
  8
17
 10
 18030.109
 20
  8706.891
 11
 18030.109
 21
  8719.591
  0
LINE
  8
17
 10
 17997.486
 20
  8450.511
 11
 18010.186
 21
  8450.511
  0
LINE
  8
17
 10
 18003.836
 20
  8444.161
 11
 18003.836
 21
  8456.861
  0
LINE
  8
17
 10
 21427.650
 20
  7747.629
 11
 21440.350
 21
  7747.629
  0
LINE
  8
17
 10
 21434.000
 20
  7741.279
 11
 21434.000
 21
  7753.979
  0
LINE
  8
17
 10
 22233.650
 20
  7747.629
 11
 22246.350
 21
  7747.629
  0
LINE
  8
17
 10
 22240.000
 20
  7741.279
 11
 22240.000
 21
  7753.979
  0
LINE
  8
17
 10
 22233.650
 20
  8292.252
 11
 22246.350
 21
  8292.252
  0
LINE
  8
17
 10
 22240.000
 20
  8285.902
 11
 22240.000
 21
  8298.602
  0
LINE
  8
1
 10
 22134.000
 20
  5474.000
 11
 21534.000
 21
  5474.000
  0
LINE
  8
1
 10
 22134.000
 20
  5468.000
 11
 21534.000
 21
  5468.000
  0
LINE
  8
1
 10
 22134.000
 20
  5474.000
 11
 22134.000
 21
  5468.000
  0
LINE
  8
1
 10
 21534.000
 20
  5474.000
 11
 21534.000
 21
  5468.000
  0
LINE
  8
1
 10
 22134.000
 20
  5834.000
 11
 21534.000
 21
  5834.000
  0
LINE
  8
1
 10
 22134.000
 20
  5828.000
 11
 21534.000
 21
  5828.000
  0
LINE
  8
1
 10
 22134.000
 20
  5834.000
 11
 22134.000
 21
  5828.000
  0
LINE
  8
1
 10
 21534.000
 20
  5834.000
 11
 21534.000
 21
  5828.000
  0
LINE
  8
1
 10
 22234.000
 20
  6050.000
 11
 21634.000
 21
  6050.000
  0
LINE
  8
1
 10
 22234.000
 20
  6044.000
 11
 21634.000
 21
  6044.000
  0
LINE
  8
1
 10
 22234.000
 20
  6050.000
 11
 22234.000
 21
  6044.000
  0
LINE
  8
1
 10
 21634.000
 20
  6050.000
 11
 21634.000
 21
  6044.000
  0
LINE
  8
17
 10
 22233.650
 20
  7747.629
 11
 22246.350
 21
  7747.629
  0
LINE
  8
17
 10
 22240.000
 20
  7741.279
 11
 22240.000
 21
  7753.979
  0
LINE
  8
17
 10
 21521.650
 20
  7747.629
 11
 21534.350
 21
  7747.629
  0
LINE
  8
17
 10
 21528.000
 20
  7741.279
 11
 21528.000
 21
  7753.979
  0
LINE
  8
17
 10
 21822.770
 20
     0.000
 11
 21835.471
 21
     0.000
  0
LINE
  8
17
 10
 21829.119
 20
    -6.350
 11
 21829.119
 21
     6.350
  0
LINE
  8
17
 10
 22233.650
 20
     0.000
 11
 22246.350
 21
     0.000
  0
LINE
  8
17
 10
 22240.000
 20
    -6.350
 11
 22240.000
 21
     6.350
  0
LINE
  8
5
 10
  1367.082
 20
  8556.709
 11
  1382.007
 21
  8407.452
  0
LINE
  8
5
 10
  2734.163
 20
  8693.417
 11
  2749.089
 21
  8544.160
  0
LINE
  8
5
 10
  4101.145
 20
  8830.115
 11
  4116.070
 21
  8680.859
  0
LINE
  8
5
 10
  5468.227
 20
  8966.823
 11
  5483.152
 21
  8817.567
  0
LINE
  8
5
 10
  6835.308
 20
  9103.531
 11
  6850.234
 21
  8954.276
  0
LINE
  8
5
 10
  8202.390
 20
  9240.239
 11
  8217.315
 21
  9090.984
  0
LINE
  8
5
 10
  9569.473
 20
  9376.947
 11
  9584.397
 21
  9227.692
  0
LINE
  8
5
 10
 10936.454
 20
  9513.646
 11
 10951.380
 21
  9364.391
  0
LINE
  8
5
 10
 11533.512
 20
  9513.648
 11
 11518.586
 21
  9364.395
  0
LINE
  8
5
 10
 12900.592
 20
  9376.940
 11
 12885.667
 21
  9227.687
  0
LINE
  8
5
 10
 14267.675
 20
  9240.232
 11
 14252.748
 21
  9090.979
  0
LINE
  8
5
 10
 15634.658
 20
  9103.534
 11
 15619.731
 21
  8954.279
  0
LINE
  8
5
 10
 17001.738
 20
  8966.826
 11
 16986.812
 21
  8817.571
  0
LINE
  8
5
 10
 18368.820
 20
  8830.118
 11
 18353.895
 21
  8680.862
  0
LINE
  8
5
 10
 19735.902
 20
  8693.410
 11
 19720.977
 21
  8544.154
  0
LINE
  8
5
 10
 21102.982
 20
  8556.702
 11
 21088.057
 21
  8407.446
  0
LINE
  8
5
 10
   764.800
 20
  2580.000
 11
   828.300
 21
  2580.000
  0
LINE
  8
5
 10
   764.800
 20
  2580.000
 11
   828.300
 21
  2580.000
  0
LINE
  8
5
 10
  1432.034
 20
  7907.182
 11
  1438.353
 21
  7843.998
  0
LINE
  8
5
 10
  4138.962
 20
  8451.944
 11
  4145.281
 21
  8388.760
  0
LINE
  8
5
 10
  6876.411
 20
  8692.503
 11
  6882.729
 21
  8629.318
  0
LINE
  8
5
 10
  9618.720
 20
  8884.477
 11
  9625.038
 21
  8821.292
  0
LINE
  8
5
 10
 10989.773
 20
  8980.456
 11
 10996.092
 21
  8917.271
  0
LINE
  8
5
 10
  1432.034
 20
  7907.182
 11
  1438.353
 21
  7843.998
  0
LINE
  8
5
 10
  4138.962
 20
  8451.944
 11
  4145.281
 21
  8388.760
  0
LINE
  8
5
 10
  6876.411
 20
  8692.503
 11
  6882.729
 21
  8629.318
  0
LINE
  8
5
 10
  9618.720
 20
  8884.477
 11
  9625.038
 21
  8821.292
  0
LINE
  8
5
 10
 10989.773
 20
  8980.456
 11
 10996.092
 21
  8917.271
  0
LINE
  8
5
 10
 11480.188
 20
  8980.406
 11
 11473.869
 21
  8917.222
  0
LINE
  8
5
 10
 12851.309
 20
  8884.101
 11
 12844.990
 21
  8820.916
  0
LINE
  8
5
 10
 15593.454
 20
  8691.497
 11
 15587.135
 21
  8628.312
  0
LINE
  8
5
 10
 18331.479
 20
  8456.692
 11
 18325.160
 21
  8393.508
  0
LINE
  8
5
 10
 21038.092
 20
  7907.778
 11
 21031.773
 21
  7844.594
  0
LINE
  8
5
 10
 11480.188
 20
  8980.406
 11
 11473.869
 21
  8917.222
  0
LINE
  8
5
 10
 12851.309
 20
  8884.101
 11
 12844.990
 21
  8820.916
  0
LINE
  8
5
 10
 15593.454
 20
  8691.497
 11
 15587.135
 21
  8628.312
  0
LINE
  8
5
 10
 18331.479
 20
  8456.692
 11
 18325.160
 21
  8393.508
  0
LINE
  8
5
 10
 21038.092
 20
  7907.778
 11
 21031.773
 21
  7844.594
  0
LINE
  8
5
 10
 21715.828
 20
  2580.000
 11
 21652.328
 21
  2580.000
  0
LINE
  8
5
 10
 21715.828
 20
  2580.000
 11
 21652.328
 21
  2580.000
  0
LINE
  8
1
 10
   942.000
 20
  5834.000
 11
  1400.000
 21
  5834.000
  0
LINE
  8
1
 10
   942.000
 20
  5826.000
 11
  1400.000
 21
  5826.000
  0
LINE
  8
1
 10
  1400.000
 20
  5834.000
 11
  1400.000
 21
  5468.000
  0
LINE
  8
1
 10
  1400.000
 20
  5468.000
 11
   942.000
 21
  5468.000
  0
LINE
  8
1
 10
  1400.000
 20
  5476.000
 11
   942.000
 21
  5476.000
  0
LINE
  8
1
 10
 21528.000
 20
  5834.000
 11
 21070.000
 21
  5834.000
  0
LINE
  8
1
 10
 21528.000
 20
  5826.000
 11
 21070.000
 21
  5826.000
  0
LINE
  8
1
 10
 21070.000
 20
  5834.000
 11
 21070.000
 21
  5468.000
  0
LINE
  8
1
 10
 21070.000
 20
  5468.000
 11
 21528.000
 21
  5468.000
  0
LINE
  8
1
 10
 21070.000
 20
  5476.000
 11
 21528.000
 21
  5476.000
  0
LINE
  8
1
 10
   336.000
 20
  5474.000
 11
   936.000
 21
  5474.000
  0
LINE
  8
1
 10
   336.000
 20
  5468.000
 11
   936.000
 21
  5468.000
  0
LINE
  8
1
 10
   336.000
 20
  5474.000
 11
   336.000
 21
  5468.000
  0
LINE
  8
1
 10
   936.000
 20
  5474.000
 11
   936.000
 21
  5468.000
  0
LINE
  8
1
 10
   336.000
 20
  5834.000
 11
   936.000
 21
  5834.000
  0
LINE
  8
1
 10
   336.000
 20
  5828.000
 11
   936.000
 21
  5828.000
  0
LINE
  8
1
 10
   336.000
 20
  5834.000
 11
   336.000
 21
  5828.000
  0
LINE
  8
1
 10
   936.000
 20
  5834.000
 11
   936.000
 21
  5828.000
  0
LINE
  8
1
 10
   236.000
 20
  6050.000
 11
   836.000
 21
  6050.000
  0
LINE
  8
1
 10
   236.000
 20
  6044.000
 11
   836.000
 21
  6044.000
  0
LINE
  8
1
 10
   236.000
 20
  6050.000
 11
   236.000
 21
  6044.000
  0
LINE
  8
1
 10
   836.000
 20
  6050.000
 11
   836.000
 21
  6044.000
  0
LINE
  8
17
 10
   223.650
 20
     0.000
 11
   236.350
 21
     0.000
  0
LINE
  8
17
 10
   230.000
 20
    -6.350
 11
   230.000
 21
     6.350
  0
LINE
  8
17
 10
   634.467
 20
     0.000
 11
   647.167
 21
     0.000
  0
LINE
  8
17
 10
   640.817
 20
    -6.350
 11
   640.817
 21
     6.350
  0
LINE
  8
17
 10
   935.650
 20
  7747.629
 11
   948.350
 21
  7747.629
  0
LINE
  8
17
 10
   942.000
 20
  7741.279
 11
   942.000
 21
  7753.979
  0
LINE
  8
17
 10
   223.650
 20
  7747.629
 11
   236.350
 21
  7747.629
  0
LINE
  8
17
 10
   230.000
 20
  7741.279
 11
   230.000
 21
  7753.979
  0
LINE
  8
1
 10
   886.263
 20
  8321.148
 11
   941.985
 21
  7763.928
  0
LINE
  8
1
 10
   880.293
 20
  8320.552
 11
   936.015
 21
  7763.331
  0
LINE
  8
1
 10
   886.263
 20
  8321.148
 11
   880.293
 21
  8320.552
  0
LINE
  8
1
 10
   941.985
 20
  7763.928
 11
   936.015
 21
  7763.331
  0
LINE
  8
17
 10
   223.650
 20
  7747.629
 11
   236.350
 21
  7747.629
  0
LINE
  8
17
 10
   230.000
 20
  7741.279
 11
   230.000
 21
  7753.979
  0
LINE
  8
17
 10
  1029.650
 20
  7747.629
 11
  1042.350
 21
  7747.629
  0
LINE
  8
17
 10
  1036.000
 20
  7741.279
 11
  1036.000
 21
  7753.979
  0
LINE
  8
17
 10
  4512.516
 20
  8455.782
 11
  4525.216
 21
  8455.782
  0
LINE
  8
17
 10
  4518.866
 20
  8449.433
 11
  4518.866
 21
  8462.132
  0
LINE
  8
17
 10
  4486.243
 20
  8718.511
 11
  4498.943
 21
  8718.511
  0
LINE
  8
17
 10
  4492.593
 20
  8712.161
 11
  4492.593
 21
  8724.861
  0
LINE
  8
17
 10
   223.650
 20
  8292.252
 11
   236.350
 21
  8292.252
  0
LINE
  8
17
 10
   230.000
 20
  8285.902
 11
   230.000
 21
  8298.602
  0
LINE
  8
17
 10
  4486.342
 20
  8717.516
 11
  4499.042
 21
  8717.516
  0
LINE
  8
17
 10
  4492.692
 20
  8711.166
 11
  4492.692
 21
  8723.866
  0
LINE
  8
17
 10
  4512.214
 20
  8458.805
 11
  4524.914
 21
  8458.805
  0
LINE
  8
17
 10
  4518.563
 20
  8452.454
 11
  4518.563
 21
  8465.154
  0
LINE
  8
17
 10
 11228.650
 20
  8928.983
 11
 11241.351
 21
  8928.983
  0
LINE
  8
17
 10
 11235.000
 20
  8922.634
 11
 11235.000
 21
  8935.334
  0
LINE
  8
17
 10
 11228.650
 20
  9391.747
 11
 11241.351
 21
  9391.747
  0
LINE
  8
17
 10
 11235.000
 20
  9385.397
 11
 11235.000
 21
  9398.098
  0
LINE
  8
17
 10
 11228.650
 20
  9391.747
 11
 11241.351
 21
  9391.747
  0
LINE
  8
17
 10
 11235.000
 20
  9385.397
 11
 11235.000
 21
  9398.098
  0
LINE
  8
17
 10
 11228.650
 20
  8928.987
 11
 11241.351
 21
  8928.987
  0
LINE
  8
17
 10
 11235.000
 20
  8922.638
 11
 11235.000
 21
  8935.338
  0
LINE
  8
17
 10
 17997.787
 20
  8453.534
 11
 18010.488
 21
  8453.534
  0
LINE
  8
17
 10
 18004.139
 20
  8447.185
 11
 18004.139
 21
  8459.884
  0
LINE
  8
17
 10
 18023.660
 20
  8712.245
 11
 18036.359
 21
  8712.245
  0
LINE
  8
17
 10
 18030.010
 20
  8705.896
 11
 18030.010
 21
  8718.596
  0
LINE
  8
1
 10
 21589.709
 20
  8320.552
 11
 21533.986
 21
  7763.331
  0
LINE
  8
1
 10
 21583.736
 20
  8321.148
 11
 21528.014
 21
  7763.928
  0
LINE
  8
1
 10
 21589.709
 20
  8320.552
 11
 21583.736
 21
  8321.148
  0
LINE
  8
1
 10
 21533.986
 20
  7763.331
 11
 21528.014
 21
  7763.928
  0
LINE
  8
17
 10
 18023.758
 20
  8713.241
 11
 18036.459
 21
  8713.241
  0
LINE
  8
17
 10
 18030.109
 20
  8706.891
 11
 18030.109
 21
  8719.591
  0
LINE
  8
17
 10
 17997.486
 20
  8450.511
 11
 18010.186
 21
  8450.511
  0
LINE
  8
17
 10
 18003.836
 20
  8444.161
 11
 18003.836
 21
  8456.861
  0
LINE
  8
17
 10
 21427.650
 20
  7747.629
 11
 21440.350
 21
  7747.629
  0
LINE
  8
17
 10
 21434.000
 20
  7741.279
 11
 21434.000
 21
  7753.979
  0
LINE
  8
17
 10
 22233.650
 20
  7747.629
 11
 22246.350
 21
  7747.629
  0
LINE
  8
17
 10
 22240.000
 20
  7741.279
 11
 22240.000
 21
  7753.979
  0
LINE
  8
17
 10
 22233.650
 20
  8292.252
 11
 22246.350
 21
  8292.252
  0
LINE
  8
17
 10
 22240.000
 20
  8285.902
 11
 22240.000
 21
  8298.602
  0
LINE
  8
1
 10
 22134.000
 20
  5474.000
 11
 21534.000
 21
  5474.000
  0
LINE
  8
1
 10
 22134.000
 20
  5468.000
 11
 21534.000
 21
  5468.000
  0
LINE
  8
1
 10
 22134.000
 20
  5474.000
 11
 22134.000
 21
  5468.000
  0
LINE
  8
1
 10
 21534.000
 20
  5474.000
 11
 21534.000
 21
  5468.000
  0
LINE
  8
1
 10
 22134.000
 20
  5834.000
 11
 21534.000
 21
  5834.000
  0
LINE
  8
1
 10
 22134.000
 20
  5828.000
 11
 21534.000
 21
  5828.000
  0
LINE
  8
1
 10
 22134.000
 20
  5834.000
 11
 22134.000
 21
  5828.000
  0
LINE
  8
1
 10
 21534.000
 20
  5834.000
 11
 21534.000
 21
  5828.000
  0
LINE
  8
1
 10
 22234.000
 20
  6050.000
 11
 21634.000
 21
  6050.000
  0
LINE
  8
1
 10
 22234.000
 20
  6044.000
 11
 21634.000
 21
  6044.000
  0
LINE
  8
1
 10
 22234.000
 20
  6050.000
 11
 22234.000
 21
  6044.000
  0
LINE
  8
1
 10
 21634.000
 20
  6050.000
 11
 21634.000
 21
  6044.000
  0
LINE
  8
17
 10
 22233.650
 20
  7747.629
 11
 22246.350
 21
  7747.629
  0
LINE
  8
17
 10
 22240.000
 20
  7741.279
 11
 22240.000
 21
  7753.979
  0
LINE
  8
17
 10
 21521.650
 20
  7747.629
 11
 21534.350
 21
  7747.629
  0
LINE
  8
17
 10
 21528.000
 20
  7741.279
 11
 21528.000
 21
  7753.979
  0
LINE
  8
17
 10
 21822.770
 20
     0.000
 11
 21835.471
 21
     0.000
  0
LINE
  8
17
 10
 21829.119
 20
    -6.350
 11
 21829.119
 21
     6.350
  0
LINE
  8
17
 10
 22233.650
 20
     0.000
 11
 22246.350
 21
     0.000
  0
LINE
  8
17
 10
 22240.000
 20
    -6.350
 11
 22240.000
 21
     6.350
  0
LINE
  8
5
 10
  1367.082
 20
  8556.709
 11
  1382.007
 21
  8407.452
  0
LINE
  8
5
 10
  2734.163
 20
  8693.417
 11
  2749.089
 21
  8544.160
  0
LINE
  8
5
 10
  4101.145
 20
  8830.115
 11
  4116.070
 21
  8680.859
  0
LINE
  8
5
 10
  5468.227
 20
  8966.823
 11
  5483.152
 21
  8817.567
  0
LINE
  8
5
 10
  6835.308
 20
  9103.531
 11
  6850.234
 21
  8954.276
  0
LINE
  8
5
 10
  8202.390
 20
  9240.239
 11
  8217.315
 21
  9090.984
  0
LINE
  8
5
 10
  9569.473
 20
  9376.947
 11
  9584.397
 21
  9227.692
  0
LINE
  8
5
 10
 10936.454
 20
  9513.646
 11
 10951.380
 21
  9364.391
  0
LINE
  8
5
 10
 11533.512
 20
  9513.648
 11
 11518.586
 21
  9364.395
  0
LINE
  8
5
 10
 12900.592
 20
  9376.940
 11
 12885.667
 21
  9227.687
  0
LINE
  8
5
 10
 14267.675
 20
  9240.232
 11
 14252.748
 21
  9090.979
  0
LINE
  8
5
 10
 15634.658
 20
  9103.534
 11
 15619.731
 21
  8954.279
  0
LINE
  8
5
 10
 17001.738
 20
  8966.826
 11
 16986.812
 21
  8817.571
  0
LINE
  8
5
 10
 18368.820
 20
  8830.118
 11
 18353.895
 21
  8680.862
  0
LINE
  8
5
 10
 19735.902
 20
  8693.410
 11
 19720.977
 21
  8544.154
  0
LINE
  8
5
 10
 21102.982
 20
  8556.702
 11
 21088.057
 21
  8407.446
  0
LINE
  8
5
 10
   764.800
 20
  2580.000
 11
   828.300
 21
  2580.000
  0
LINE
  8
5
 10
   764.800
 20
  2580.000
 11
   828.300
 21
  2580.000
  0
LINE
  8
5
 10
  1432.034
 20
  7907.182
 11
  1438.353
 21
  7843.998
  0
LINE
  8
5
 10
  4138.962
 20
  8451.944
 11
  4145.281
 21
  8388.760
  0
LINE
  8
5
 10
  6876.411
 20
  8692.503
 11
  6882.729
 21
  8629.318
  0
LINE
  8
5
 10
  9618.720
 20
  8884.477
 11
  9625.038
 21
  8821.292
  0
LINE
  8
5
 10
 10989.773
 20
  8980.456
 11
 10996.092
 21
  8917.271
  0
LINE
  8
5
 10
  1432.034
 20
  7907.182
 11
  1438.353
 21
  7843.998
  0
LINE
  8
5
 10
  4138.962
 20
  8451.944
 11
  4145.281
 21
  8388.760
  0
LINE
  8
5
 10
  6876.411
 20
  8692.503
 11
  6882.729
 21
  8629.318
  0
LINE
  8
5
 10
  9618.720
 20
  8884.477
 11
  9625.038
 21
  8821.292
  0
LINE
  8
5
 10
 10989.773
 20
  8980.456
 11
 10996.092
 21
  8917.271
  0
LINE
  8
5
 10
 11480.188
 20
  8980.406
 11
 11473.869
 21
  8917.222
  0
LINE
  8
5
 10
 12851.309
 20
  8884.101
 11
 12844.990
 21
  8820.916
  0
LINE
  8
5
 10
 15593.454
 20
  8691.497
 11
 15587.135
 21
  8628.312
  0
LINE
  8
5
 10
 18331.479
 20
  8456.692
 11
 18325.160
 21
  8393.508
  0
LINE
  8
5
 10
 21038.092
 20
  7907.778
 11
 21031.773
 21
  7844.594
  0
LINE
  8
5
 10
 11480.188
 20
  8980.406
 11
 11473.869
 21
  8917.222
  0
LINE
  8
5
 10
 12851.309
 20
  8884.101
 11
 12844.990
 21
  8820.916
  0
LINE
  8
5
 10
 15593.454
 20
  8691.497
 11
 15587.135
 21
  8628.312
  0
LINE
  8
5
 10
 18331.479
 20
  8456.692
 11
 18325.160
 21
  8393.508
  0
LINE
  8
5
 10
 21038.092
 20
  7907.778
 11
 21031.773
 21
  7844.594
  0
LINE
  8
5
 10
 21715.828
 20
  2580.000
 11
 21652.328
 21
  2580.000
  0
LINE
  8
5
 10
 21715.828
 20
  2580.000
 11
 21652.328
 21
  2580.000
  0
LINE
  8
1
 10
   942.000
 20
  5834.000
 11
  1400.000
 21
  5834.000
  0
LINE
  8
1
 10
   942.000
 20
  5826.000
 11
  1400.000
 21
  5826.000
  0
LINE
  8
1
 10
  1400.000
 20
  5834.000
 11
  1400.000
 21
  5468.000
  0
LINE
  8
1
 10
  1400.000
 20
  5468.000
 11
   942.000
 21
  5468.000
  0
LINE
  8
1
 10
  1400.000
 20
  5476.000
 11
   942.000
 21
  5476.000
  0
LINE
  8
1
 10
 21528.000
 20
  5834.000
 11
 21070.000
 21
  5834.000
  0
LINE
  8
1
 10
 21528.000
 20
  5826.000
 11
 21070.000
 21
  5826.000
  0
LINE
  8
1
 10
 21070.000
 20
  5834.000
 11
 21070.000
 21
  5468.000
  0
LINE
  8
1
 10
 21070.000
 20
  5468.000
 11
 21528.000
 21
  5468.000
  0
LINE
  8
1
 10
 21070.000
 20
  5476.000
 11
 21528.000
 21
  5476.000
  0
LINE
  8
1
 10
   336.000
 20
  5474.000
 11
   936.000
 21
  5474.000
  0
LINE
  8
1
 10
   336.000
 20
  5468.000
 11
   936.000
 21
  5468.000
  0
LINE
  8
1
 10
   336.000
 20
  5474.000
 11
   336.000
 21
  5468.000
  0
LINE
  8
1
 10
   936.000
 20
  5474.000
 11
   936.000
 21
  5468.000
  0
LINE
  8
1
 10
   336.000
 20
  5834.000
 11
   936.000
 21
  5834.000
  0
LINE
  8
1
 10
   336.000
 20
  5828.000
 11
   936.000
 21
  5828.000
  0
LINE
  8
1
 10
   336.000
 20
  5834.000
 11
   336.000
 21
  5828.000
  0
LINE
  8
1
 10
   936.000
 20
  5834.000
 11
   936.000
 21
  5828.000
  0
LINE
  8
1
 10
   236.000
 20
  6050.000
 11
   836.000
 21
  6050.000
  0
LINE
  8
1
 10
   236.000
 20
  6044.000
 11
   836.000
 21
  6044.000
  0
LINE
  8
1
 10
   236.000
 20
  6050.000
 11
   236.000
 21
  6044.000
  0
LINE
  8
1
 10
   836.000
 20
  6050.000
 11
   836.000
 21
  6044.000
  0
LINE
  8
17
 10
   223.650
 20
     0.000
 11
   236.350
 21
     0.000
  0
LINE
  8
17
 10
   230.000
 20
    -6.350
 11
   230.000
 21
     6.350
  0
LINE
  8
17
 10
   634.467
 20
     0.000
 11
   647.167
 21
     0.000
  0
LINE
  8
17
 10
   640.817
 20
    -6.350
 11
   640.817
 21
     6.350
  0
LINE
  8
17
 10
   935.650
 20
  7747.629
 11
   948.350
 21
  7747.629
  0
LINE
  8
17
 10
   942.000
 20
  7741.279
 11
   942.000
 21
  7753.979
  0
LINE
  8
17
 10
   223.650
 20
  7747.629
 11
   236.350
 21
  7747.629
  0
LINE
  8
17
 10
   230.000
 20
  7741.279
 11
   230.000
 21
  7753.979
  0
LINE
  8
1
 10
   886.263
 20
  8321.148
 11
   941.985
 21
  7763.928
  0
LINE
  8
1
 10
   880.293
 20
  8320.552
 11
   936.015
 21
  7763.331
  0
LINE
  8
1
 10
   886.263
 20
  8321.148
 11
   880.293
 21
  8320.552
  0
LINE
  8
1
 10
   941.985
 20
  7763.928
 11
   936.015
 21
  7763.331
  0
LINE
  8
17
 10
   223.650
 20
  7747.629
 11
   236.350
 21
  7747.629
  0
LINE
  8
17
 10
   230.000
 20
  7741.279
 11
   230.000
 21
  7753.979
  0
LINE
  8
17
 10
  1029.650
 20
  7747.629
 11
  1042.350
 21
  7747.629
  0
LINE
  8
17
 10
  1036.000
 20
  7741.279
 11
  1036.000
 21
  7753.979
  0
LINE
  8
17
 10
  4512.516
 20
  8455.782
 11
  4525.216
 21
  8455.782
  0
LINE
  8
17
 10
  4518.866
 20
  8449.433
 11
  4518.866
 21
  8462.132
  0
LINE
  8
17
 10
  4486.243
 20
  8718.511
 11
  4498.943
 21
  8718.511
  0
LINE
  8
17
 10
  4492.593
 20
  8712.161
 11
  4492.593
 21
  8724.861
  0
LINE
  8
17
 10
   223.650
 20
  8292.252
 11
   236.350
 21
  8292.252
  0
LINE
  8
17
 10
   230.000
 20
  8285.902
 11
   230.000
 21
  8298.602
  0
LINE
  8
17
 10
  4486.342
 20
  8717.516
 11
  4499.042
 21
  8717.516
  0
LINE
  8
17
 10
  4492.692
 20
  8711.166
 11
  4492.692
 21
  8723.866
  0
LINE
  8
17
 10
  4512.214
 20
  8458.805
 11
  4524.914
 21
  8458.805
  0
LINE
  8
17
 10
  4518.563
 20
  8452.454
 11
  4518.563
 21
  8465.154
  0
LINE
  8
17
 10
 11228.650
 20
  8928.983
 11
 11241.351
 21
  8928.983
  0
LINE
  8
17
 10
 11235.000
 20
  8922.634
 11
 11235.000
 21
  8935.334
  0
LINE
  8
17
 10
 11228.650
 20
  9391.747
 11
 11241.351
 21
  9391.747
  0
LINE
  8
17
 10
 11235.000
 20
  9385.397
 11
 11235.000
 21
  9398.098
  0
LINE
  8
17
 10
 11228.650
 20
  9391.747
 11
 11241.351
 21
  9391.747
  0
LINE
  8
17
 10
 11235.000
 20
  9385.397
 11
 11235.000
 21
  9398.098
  0
LINE
  8
17
 10
 11228.650
 20
  8928.987
 11
 11241.351
 21
  8928.987
  0
LINE
  8
17
 10
 11235.000
 20
  8922.638
 11
 11235.000
 21
  8935.338
  0
LINE
  8
17
 10
 17997.787
 20
  8453.534
 11
 18010.488
 21
  8453.534
  0
LINE
  8
17
 10
 18004.139
 20
  8447.185
 11
 18004.139
 21
  8459.884
  0
LINE
  8
17
 10
 18023.660
 20
  8712.245
 11
 18036.359
 21
  8712.245
  0
LINE
  8
17
 10
 18030.010
 20
  8705.896
 11
 18030.010
 21
  8718.596
  0
LINE
  8
1
 10
 21589.709
 20
  8320.552
 11
 21533.986
 21
  7763.331
  0
LINE
  8
1
 10
 21583.736
 20
  8321.148
 11
 21528.014
 21
  7763.928
  0
LINE
  8
1
 10
 21589.709
 20
  8320.552
 11
 21583.736
 21
  8321.148
  0
LINE
  8
1
 10
 21533.986
 20
  7763.331
 11
 21528.014
 21
  7763.928
  0
LINE
  8
17
 10
 18023.758
 20
  8713.241
 11
 18036.459
 21
  8713.241
  0
LINE
  8
17
 10
 18030.109
 20
  8706.891
 11
 18030.109
 21
  8719.591
  0
LINE
  8
17
 10
 17997.486
 20
  8450.511
 11
 18010.186
 21
  8450.511
  0
LINE
  8
17
 10
 18003.836
 20
  8444.161
 11
 18003.836
 21
  8456.861
  0
LINE
  8
17
 10
 21427.650
 20
  7747.629
 11
 21440.350
 21
  7747.629
  0
LINE
  8
17
 10
 21434.000
 20
  7741.279
 11
 21434.000
 21
  7753.979
  0
LINE
  8
17
 10
 22233.650
 20
  7747.629
 11
 22246.350
 21
  7747.629
  0
LINE
  8
17
 10
 22240.000
 20
  7741.279
 11
 22240.000
 21
  7753.979
  0
LINE
  8
17
 10
 22233.650
 20
  8292.252
 11
 22246.350
 21
  8292.252
  0
LINE
  8
17
 10
 22240.000
 20
  8285.902
 11
 22240.000
 21
  8298.602
  0
LINE
  8
1
 10
 22134.000
 20
  5474.000
 11
 21534.000
 21
  5474.000
  0
LINE
  8
1
 10
 22134.000
 20
  5468.000
 11
 21534.000
 21
  5468.000
  0
LINE
  8
1
 10
 22134.000
 20
  5474.000
 11
 22134.000
 21
  5468.000
  0
LINE
  8
1
 10
 21534.000
 20
  5474.000
 11
 21534.000
 21
  5468.000
  0
LINE
  8
1
 10
 22134.000
 20
  5834.000
 11
 21534.000
 21
  5834.000
  0
LINE
  8
1
 10
 22134.000
 20
  5828.000
 11
 21534.000
 21
  5828.000
  0
LINE
  8
1
 10
 22134.000
 20
  5834.000
 11
 22134.000
 21
  5828.000
  0
LINE
  8
1
 10
 21534.000
 20
  5834.000
 11
 21534.000
 21
  5828.000
  0
LINE
  8
1
 10
 22234.000
 20
  6050.000
 11
 21634.000
 21
  6050.000
  0
LINE
  8
1
 10
 22234.000
 20
  6044.000
 11
 21634.000
 21
  6044.000
  0
LINE
  8
1
 10
 22234.000
 20
  6050.000
 11
 22234.000
 21
  6044.000
  0
LINE
  8
1
 10
 21634.000
 20
  6050.000
 11
 21634.000
 21
  6044.000
  0
LINE
  8
17
 10
 22233.650
 20
  7747.629
 11
 22246.350
 21
  7747.629
  0
LINE
  8
17
 10
 22240.000
 20
  7741.279
 11
 22240.000
 21
  7753.979
  0
LINE
  8
17
 10
 21521.650
 20
  7747.629
 11
 21534.350
 21
  7747.629
  0
LINE
  8
17
 10
 21528.000
 20
  7741.279
 11
 21528.000
 21
  7753.979
  0
LINE
  8
17
 10
 21822.770
 20
     0.000
 11
 21835.471
 21
     0.000
  0
LINE
  8
17
 10
 21829.119
 20
    -6.350
 11
 21829.119
 21
     6.350
  0
LINE
  8
17
 10
 22233.650
 20
     0.000
 11
 22246.350
 21
     0.000
  0
LINE
  8
17
 10
 22240.000
 20
    -6.350
 11
 22240.000
 21
     6.350
  0
LINE
  8
5
 10
  1367.082
 20
  8556.709
 11
  1382.007
 21
  8407.452
  0
LINE
  8
5
 10
  2734.163
 20
  8693.417
 11
  2749.089
 21
  8544.160
  0
LINE
  8
5
 10
  4101.145
 20
  8830.115
 11
  4116.070
 21
  8680.859
  0
LINE
  8
5
 10
  5468.227
 20
  8966.823
 11
  5483.152
 21
  8817.567
  0
LINE
  8
5
 10
  6835.308
 20
  9103.531
 11
  6850.234
 21
  8954.276
  0
LINE
  8
5
 10
  8202.390
 20
  9240.239
 11
  8217.315
 21
  9090.984
  0
LINE
  8
5
 10
  9569.473
 20
  9376.947
 11
  9584.397
 21
  9227.692
  0
LINE
  8
5
 10
 10936.454
 20
  9513.646
 11
 10951.380
 21
  9364.391
  0
LINE
  8
5
 10
 11533.512
 20
  9513.648
 11
 11518.586
 21
  9364.395
  0
LINE
  8
5
 10
 12900.592
 20
  9376.940
 11
 12885.667
 21
  9227.687
  0
LINE
  8
5
 10
 14267.675
 20
  9240.232
 11
 14252.748
 21
  9090.979
  0
LINE
  8
5
 10
 15634.658
 20
  9103.534
 11
 15619.731
 21
  8954.279
  0
LINE
  8
5
 10
 17001.738
 20
  8966.826
 11
 16986.812
 21
  8817.571
  0
LINE
  8
5
 10
 18368.820
 20
  8830.118
 11
 18353.895
 21
  8680.862
  0
LINE
  8
5
 10
 19735.902
 20
  8693.410
 11
 19720.977
 21
  8544.154
  0
LINE
  8
5
 10
 21102.982
 20
  8556.702
 11
 21088.057
 21
  8407.446
  0
LINE
  8
5
 10
   764.800
 20
  2580.000
 11
   828.300
 21
  2580.000
  0
LINE
  8
5
 10
   764.800
 20
  2580.000
 11
   828.300
 21
  2580.000
  0
LINE
  8
5
 10
  1432.034
 20
  7907.182
 11
  1438.353
 21
  7843.998
  0
LINE
  8
5
 10
  4138.962
 20
  8451.944
 11
  4145.281
 21
  8388.760
  0
LINE
  8
5
 10
  6876.411
 20
  8692.503
 11
  6882.729
 21
  8629.318
  0
LINE
  8
5
 10
  9618.720
 20
  8884.477
 11
  9625.038
 21
  8821.292
  0
LINE
  8
5
 10
 10989.773
 20
  8980.456
 11
 10996.092
 21
  8917.271
  0
LINE
  8
5
 10
  1432.034
 20
  7907.182
 11
  1438.353
 21
  7843.998
  0
LINE
  8
5
 10
  4138.962
 20
  8451.944
 11
  4145.281
 21
  8388.760
  0
LINE
  8
5
 10
  6876.411
 20
  8692.503
 11
  6882.729
 21
  8629.318
  0
LINE
  8
5
 10
  9618.720
 20
  8884.477
 11
  9625.038
 21
  8821.292
  0
LINE
  8
5
 10
 10989.773
 20
  8980.456
 11
 10996.092
 21
  8917.271
  0
LINE
  8
5
 10
 11480.188
 20
  8980.406
 11
 11473.869
 21
  8917.222
  0
LINE
  8
5
 10
 12851.309
 20
  8884.101
 11
 12844.990
 21
  8820.916
  0
LINE
  8
5
 10
 15593.454
 20
  8691.497
 11
 15587.135
 21
  8628.312
  0
LINE
  8
5
 10
 18331.479
 20
  8456.692
 11
 18325.160
 21
  8393.508
  0
LINE
  8
5
 10
 21038.092
 20
  7907.778
 11
 21031.773
 21
  7844.594
  0
LINE
  8
5
 10
 11480.188
 20
  8980.406
 11
 11473.869
 21
  8917.222
  0
LINE
  8
5
 10
 12851.309
 20
  8884.101
 11
 12844.990
 21
  8820.916
  0
LINE
  8
5
 10
 15593.454
 20
  8691.497
 11
 15587.135
 21
  8628.312
  0
LINE
  8
5
 10
 18331.479
 20
  8456.692
 11
 18325.160
 21
  8393.508
  0
LINE
  8
5
 10
 21038.092
 20
  7907.778
 11
 21031.773
 21
  7844.594
  0
LINE
  8
5
 10
 21715.828
 20
  2580.000
 11
 21652.328
 21
  2580.000
  0
LINE
  8
5
 10
 21715.828
 20
  2580.000
 11
 21652.328
 21
  2580.000
  0
LINE
  8
1
 10
   942.000
 20
  5834.000
 11
  1400.000
 21
  5834.000
  0
LINE
  8
1
 10
   942.000
 20
  5826.000
 11
  1400.000
 21
  5826.000
  0
LINE
  8
1
 10
  1400.000
 20
  5834.000
 11
  1400.000
 21
  5468.000
  0
LINE
  8
1
 10
  1400.000
 20
  5468.000
 11
   942.000
 21
  5468.000
  0
LINE
  8
1
 10
  1400.000
 20
  5476.000
 11
   942.000
 21
  5476.000
  0
LINE
  8
1
 10
 21528.000
 20
  5834.000
 11
 21070.000
 21
  5834.000
  0
LINE
  8
1
 10
 21528.000
 20
  5826.000
 11
 21070.000
 21
  5826.000
  0
LINE
  8
1
 10
 21070.000
 20
  5834.000
 11
 21070.000
 21
  5468.000
  0
LINE
  8
1
 10
 21070.000
 20
  5468.000
 11
 21528.000
 21
  5468.000
  0
LINE
  8
1
 10
 21070.000
 20
  5476.000
 11
 21528.000
 21
  5476.000
  0
LINE
  8
1
 10
   336.000
 20
  5474.000
 11
   936.000
 21
  5474.000
  0
LINE
  8
1
 10
   336.000
 20
  5468.000
 11
   936.000
 21
  5468.000
  0
LINE
  8
1
 10
   336.000
 20
  5474.000
 11
   336.000
 21
  5468.000
  0
LINE
  8
1
 10
   936.000
 20
  5474.000
 11
   936.000
 21
  5468.000
  0
LINE
  8
1
 10
   336.000
 20
  5834.000
 11
   936.000
 21
  5834.000
  0
LINE
  8
1
 10
   336.000
 20
  5828.000
 11
   936.000
 21
  5828.000
  0
LINE
  8
1
 10
   336.000
 20
  5834.000
 11
   336.000
 21
  5828.000
  0
LINE
  8
1
 10
   936.000
 20
  5834.000
 11
   936.000
 21
  5828.000
  0
LINE
  8
1
 10
   236.000
 20
  6050.000
 11
   836.000
 21
  6050.000
  0
LINE
  8
1
 10
   236.000
 20
  6044.000
 11
   836.000
 21
  6044.000
  0
LINE
  8
1
 10
   236.000
 20
  6050.000
 11
   236.000
 21
  6044.000
  0
LINE
  8
1
 10
   836.000
 20
  6050.000
 11
   836.000
 21
  6044.000
  0
LINE
  8
17
 10
   223.650
 20
     0.000
 11
   236.350
 21
     0.000
  0
LINE
  8
17
 10
   230.000
 20
    -6.350
 11
   230.000
 21
     6.350
  0
LINE
  8
17
 10
   634.467
 20
     0.000
 11
   647.167
 21
     0.000
  0
LINE
  8
17
 10
   640.817
 20
    -6.350
 11
   640.817
 21
     6.350
  0
LINE
  8
17
 10
   935.650
 20
  7747.629
 11
   948.350
 21
  7747.629
  0
LINE
  8
17
 10
   942.000
 20
  7741.279
 11
   942.000
 21
  7753.979
  0
LINE
  8
17
 10
   223.650
 20
  7747.629
 11
   236.350
 21
  7747.629
  0
LINE
  8
17
 10
   230.000
 20
  7741.279
 11
   230.000
 21
  7753.979
  0
LINE
  8
1
 10
   886.263
 20
  8321.148
 11
   941.985
 21
  7763.928
  0
LINE
  8
1
 10
   880.293
 20
  8320.552
 11
   936.015
 21
  7763.331
  0
LINE
  8
1
 10
   886.263
 20
  8321.148
 11
   880.293
 21
  8320.552
  0
LINE
  8
1
 10
   941.985
 20
  7763.928
 11
   936.015
 21
  7763.331
  0
LINE
  8
17
 10
   223.650
 20
  7747.629
 11
   236.350
 21
  7747.629
  0
LINE
  8
17
 10
   230.000
 20
  7741.279
 11
   230.000
 21
  7753.979
  0
LINE
  8
17
 10
  1029.650
 20
  7747.629
 11
  1042.350
 21
  7747.629
  0
LINE
  8
17
 10
  1036.000
 20
  7741.279
 11
  1036.000
 21
  7753.979
  0
LINE
  8
17
 10
  4512.516
 20
  8455.782
 11
  4525.216
 21
  8455.782
  0
LINE
  8
17
 10
  4518.866
 20
  8449.433
 11
  4518.866
 21
  8462.132
  0
LINE
  8
17
 10
  4486.243
 20
  8718.511
 11
  4498.943
 21
  8718.511
  0
LINE
  8
17
 10
  4492.593
 20
  8712.161
 11
  4492.593
 21
  8724.861
  0
LINE
  8
17
 10
   223.650
 20
  8292.252
 11
   236.350
 21
  8292.252
  0
LINE
  8
17
 10
   230.000
 20
  8285.902
 11
   230.000
 21
  8298.602
  0
LINE
  8
17
 10
  4486.342
 20
  8717.516
 11
  4499.042
 21
  8717.516
  0
LINE
  8
17
 10
  4492.692
 20
  8711.166
 11
  4492.692
 21
  8723.866
  0
LINE
  8
17
 10
  4512.214
 20
  8458.805
 11
  4524.914
 21
  8458.805
  0
LINE
  8
17
 10
  4518.563
 20
  8452.454
 11
  4518.563
 21
  8465.154
  0
LINE
  8
17
 10
 11228.650
 20
  8928.983
 11
 11241.351
 21
  8928.983
  0
LINE
  8
17
 10
 11235.000
 20
  8922.634
 11
 11235.000
 21
  8935.334
  0
LINE
  8
17
 10
 11228.650
 20
  9391.747
 11
 11241.351
 21
  9391.747
  0
LINE
  8
17
 10
 11235.000
 20
  9385.397
 11
 11235.000
 21
  9398.098
  0
LINE
  8
17
 10
 11228.650
 20
  9391.747
 11
 11241.351
 21
  9391.747
  0
LINE
  8
17
 10
 11235.000
 20
  9385.397
 11
 11235.000
 21
  9398.098
  0
LINE
  8
17
 10
 11228.650
 20
  8928.987
 11
 11241.351
 21
  8928.987
  0
LINE
  8
17
 10
 11235.000
 20
  8922.638
 11
 11235.000
 21
  8935.338
  0
LINE
  8
17
 10
 17997.787
 20
  8453.534
 11
 18010.488
 21
  8453.534
  0
LINE
  8
17
 10
 18004.139
 20
  8447.185
 11
 18004.139
 21
  8459.884
  0
LINE
  8
17
 10
 18023.660
 20
  8712.245
 11
 18036.359
 21
  8712.245
  0
LINE
  8
17
 10
 18030.010
 20
  8705.896
 11
 18030.010
 21
  8718.596
  0
LINE
  8
1
 10
 21589.709
 20
  8320.552
 11
 21533.986
 21
  7763.331
  0
LINE
  8
1
 10
 21583.736
 20
  8321.148
 11
 21528.014
 21
  7763.928
  0
LINE
  8
1
 10
 21589.709
 20
  8320.552
 11
 21583.736
 21
  8321.148
  0
LINE
  8
1
 10
 21533.986
 20
  7763.331
 11
 21528.014
 21
  7763.928
  0
LINE
  8
17
 10
 18023.758
 20
  8713.241
 11
 18036.459
 21
  8713.241
  0
LINE
  8
17
 10
 18030.109
 20
  8706.891
 11
 18030.109
 21
  8719.591
  0
LINE
  8
17
 10
 17997.486
 20
  8450.511
 11
 18010.186
 21
  8450.511
  0
LINE
  8
17
 10
 18003.836
 20
  8444.161
 11
 18003.836
 21
  8456.861
  0
LINE
  8
17
 10
 21427.650
 20
  7747.629
 11
 21440.350
 21
  7747.629
  0
LINE
  8
17
 10
 21434.000
 20
  7741.279
 11
 21434.000
 21
  7753.979
  0
LINE
  8
17
 10
 22233.650
 20
  7747.629
 11
 22246.350
 21
  7747.629
  0
LINE
  8
17
 10
 22240.000
 20
  7741.279
 11
 22240.000
 21
  7753.979
  0
LINE
  8
17
 10
 22233.650
 20
  8292.252
 11
 22246.350
 21
  8292.252
  0
LINE
  8
17
 10
 22240.000
 20
  8285.902
 11
 22240.000
 21
  8298.602
  0
LINE
  8
1
 10
 22134.000
 20
  5474.000
 11
 21534.000
 21
  5474.000
  0
LINE
  8
1
 10
 22134.000
 20
  5468.000
 11
 21534.000
 21
  5468.000
  0
LINE
  8
1
 10
 22134.000
 20
  5474.000
 11
 22134.000
 21
  5468.000
  0
LINE
  8
1
 10
 21534.000
 20
  5474.000
 11
 21534.000
 21
  5468.000
  0
LINE
  8
1
 10
 22134.000
 20
  5834.000
 11
 21534.000
 21
  5834.000
  0
LINE
  8
1
 10
 22134.000
 20
  5828.000
 11
 21534.000
 21
  5828.000
  0
LINE
  8
1
 10
 22134.000
 20
  5834.000
 11
 22134.000
 21
  5828.000
  0
LINE
  8
1
 10
 21534.000
 20
  5834.000
 11
 21534.000
 21
  5828.000
  0
LINE
  8
1
 10
 22234.000
 20
  6050.000
 11
 21634.000
 21
  6050.000
  0
LINE
  8
1
 10
 22234.000
 20
  6044.000
 11
 21634.000
 21
  6044.000
  0
LINE
  8
1
 10
 22234.000
 20
  6050.000
 11
 22234.000
 21
  6044.000
  0
LINE
  8
1
 10
 21634.000
 20
  6050.000
 11
 21634.000
 21
  6044.000
  0
LINE
  8
17
 10
 22233.650
 20
  7747.629
 11
 22246.350
 21
  7747.629
  0
LINE
  8
17
 10
 22240.000
 20
  7741.279
 11
 22240.000
 21
  7753.979
  0
LINE
  8
17
 10
 21521.650
 20
  7747.629
 11
 21534.350
 21
  7747.629
  0
LINE
  8
17
 10
 21528.000
 20
  7741.279
 11
 21528.000
 21
  7753.979
  0
LINE
  8
17
 10
 21822.770
 20
     0.000
 11
 21835.471
 21
     0.000
  0
LINE
  8
17
 10
 21829.119
 20
    -6.350
 11
 21829.119
 21
     6.350
  0
LINE
  8
17
 10
 22233.650
 20
     0.000
 11
 22246.350
 21
     0.000
  0
LINE
  8
17
 10
 22240.000
 20
    -6.350
 11
 22240.000
 21
     6.350
  0
LINE
  8
3
 10
  1200.000
 20
  5859.400
 11
  1200.000
 21
  6174.600
  0
LINE
  8
3
 10
  1100.000
 20
  6174.600
 11
  1300.000
 21
  6174.600
  0
LINE
  8
3
 10
  1100.000
 20
  5859.400
 11
  1300.000
 21
  5859.400
  0
LINE
  8
3
 10
 21270.000
 20
  5859.400
 11
 21270.000
 21
  6174.600
  0
LINE
  8
3
 10
 21170.000
 20
  6174.600
 11
 21370.000
 21
  6174.600
  0
LINE
  8
3
 10
 21170.000
 20
  5859.400
 11
 21370.000
 21
  5859.400
  0
LINE
  8
3
 10
  1200.000
 20
  6200.000
 11
  1200.000
 21
  6200.000
  0
LINE
  8
3
 10
 21270.000
 20
  6200.000
 11
 21270.000
 21
  6200.000
  0
LINE
  8
3
 10
  1200.000
 20
  6200.000
 11
 21270.000
 21
  6200.000
  0
LINE
  8
3
 10
 21270.000
 20
  6200.000
 11
  1200.000
 21
  6200.000
  0
TEXT
  8
16
 10
  -254.000
 20
  3556.315
 40
   127.000
  1
RF2-1
 50
    90.000
  0
TEXT
  8
16
 10
  2005.173
 20
  8875.784
 40
   127.000
  1
RF2-2
 50
     5.711
  0
TEXT
  8
16
 10
  7507.722
 20
  9425.034
 40
   127.000
  1
RF2-3
 50
     5.711
  0
TEXT
  8
16
 10
 14356.779
 20
  9485.584
 40
   127.000
  1
RF2-4
 50
    -5.711
  0
TEXT
  8
16
 10
 19859.330
 20
  8936.333
 40
   127.000
  1
RF2-5
 50
    -5.711
  0
TEXT
  8
16
 10
 22724.000
 20
  4191.314
 40
   127.000
  1
RF2-6
 50
   -90.000
  0
LINE
  8
0
 10
 -1402.900
 20
 -4643.333
 11
 23872.900
 21
 -4643.333
  0
LINE
  8
0
 10
 23872.900
 20
 -4643.333
 11
 23872.900
 21
 14313.517
  0
LINE
  8
0
 10
 23872.900
 20
 14313.517
 11
 -1402.900
 21
 14313.517
  0
LINE
  8
0
 10
 -1402.900
 20
 14313.517
 11
 -1402.900
 21
 -4643.333
  0
LINE
  8
0
 10
 -1402.900
 20
 -4017.757
 11
 23872.900
 21
 -4017.757
  0
TEXT
  8
0
 10
  6438.917
 20
 -4539.070
 40
   417.051
  1
Rigid Frame Detailing 2
 50
     0.000
  0
TEXT
  8
0
 10
 -1194.375
 20
 -4539.070
 40
   417.051
  1
C323-153
 50
     0.000
  0
TEXT
  8
0
 10
 19076.818
 20
 -4539.070
 40
   417.051
  1
 7/AUG/2025
 50
     0.000
  0
ENDSEC
  0
EOF
