999
SOURCE:MBS   PROGRAM:RFDWG   CELL:RFDWG   CLASS:ELEVATION   MODE:---
  0
SECTION
  2
HEADER
 9
$ACADVER
 1
AC1009
  9
$EXTMIN
 10
0.00000000
 20
0.00000000
  9
$EXTMAX
 10
28189.5527
 20
19934.0430
  9
$LIMMIN
 10
0.00000000
 20
0.00000000
  9
$LIMMAX
 10
28189.5527
 20
19934.0430
  9
$FILLMODE
 70
     1
  9
$HANDLING
 70
     0
  0
ENDSEC
  0
SECTION
  2
TABLES
  0
TABLE
  2
LTYPE
 70
 4
  0
LTYPE
  2
CONTIN
 70
   64
  3
SOLID LINE
  72
   65
 73
    0
 40
 0.000
  0
LTYPE
  2
CENTER
 70
   64
  3
____ _ ____ _ _
  72
   65
 73
    4
 40
1704.8
 49
1065.5
 49
-213.1
 49
213.10
 49
-213.1
  0
LTYPE
  2
DASHED
 70
   64
  3
__ __ __ __ __
  72
   65
 73
    2
 40
319.65
 49
213.10
 49
-106.5
  0
LTYPE
  2
CONTINUOUS
 70
   64
  3
SOLID LINE
  72
   65
 73
    0
 40
 0.000
  0
ENDTAB
  0
TABLE
  2
LAYER
 70
    30
  0
LAYER
  2
0
 70
     0
 62
     7
  6
CONTIN
  0
LAYER
  2
1
 70
     0
 62
     7
  6
CONTIN
  0
LAYER
  2
2
 70
     0
 62
     6
  6
CONTIN
  0
LAYER
  2
3
 70
     0
 62
     7
  6
CONTIN
  0
LAYER
  2
4
 70
     0
 62
     7
  6
CENTER
  0
LAYER
  2
5
 70
     0
 62
     5
  6
DASHED
  0
LAYER
  2
6
 70
     0
 62
     6
  6
CONTIN
  0
LAYER
  2
7
 70
     0
 62
     7
  6
CONTIN
  0
LAYER
  2
8
 70
     0
 62
     8
  6
DASHED
  0
LAYER
  2
9
 70
     0
 62
     9
  6
DASHED
  0
LAYER
  2
10
 70
     0
 62
    10
  6
CONTIN
  0
LAYER
  2
11
 70
     0
 62
     7
  6
CONTIN
  0
LAYER
  2
12
 70
     0
 62
     6
  6
CONTIN
  0
LAYER
  2
13
 70
     0
 62
     1
  6
CONTIN
  0
LAYER
  2
14
 70
     0
 62
     7
  6
CONTIN
  0
LAYER
  2
15
 70
     0
 62
     7
  6
CONTIN
  0
LAYER
  2
16
 70
     0
 62
     7
  6
CONTIN
  0
LAYER
  2
17
 70
     0
 62
     5
  6
CONTIN
  0
LAYER
  2
18
 70
     0
 62
     7
  6
CONTIN
  0
LAYER
  2
19
 70
     0
 62
     7
  6
CONTIN
  0
LAYER
  2
20
 70
     0
 62
     7
  6
CONTIN
  0
LAYER
  2
21
 70
     0
 62
     7
  6
CONTIN
  0
LAYER
  2
22
 70
     0
 62
     7
  6
CONTIN
  0
LAYER
  2
23
 70
     0
 62
     7
  6
DASHED
  0
LAYER
  2
24
 70
     0
 62
     7
  6
CONTIN
  0
LAYER
  2
25
 70
     0
 62
     7
  6
CONTIN
  0
LAYER
  2
26
 70
     0
 62
     7
  6
CONTIN
  0
LAYER
  2
27
 70
     0
 62
     1
  6
CENTER
  0
LAYER
  2
28
 70
     0
 62
     7
  6
CONTIN
  0
LAYER
  2
29
 70
     0
 62
     7
  6
CONTIN
  0
ENDTAB
  0
TABLE
  2
STYLE
 70
  0
  0
STYLE
  2
SIMPLEX
 70
  0
 40
  0.000
 41
  1.000
 42
  1.000
 50
  0.000
 71
  0
  3
SIMPLEX
  0
STYLE
  2
ROMANS
 70
  0
 40
  0.000
 41
  1.000
 42
  1.000
 50
  0.000
 71
  0
  3
ROMANS
  0
STYLE
  2
OPEN
 70
  0
 40
  0.000
 41
  1.000
 42
  1.000
 50
  0.000
 71
  0
  3
SIMPLEX
  0
STYLE
  2
ARIAL
 70
  0
 40
  0.000
 41
  1.000
 42
  1.000
 50
  0.000
 71
  0
  3
ARIAL.TTF
  0
STYLE
  2
VERDANAB
 70
  0
 40
  0.000
 41
  1.000
 42
  1.000
 50
  0.000
 71
  0
  3
VERDANAB.TTF
  0
ENDTAB
  0
ENDSEC
  0
SECTION
  2
BLOCKS
  0
BLOCK
  8
0
  2
ARROWPF
 70
     0
 10
0.00000000
 20
0.00000000
  0
LINE
  8
0
 10
0.00000000
 20
0.00000000
 11
-121.89297
 21
20.3154945
  0
LINE
  8
0
 10
-121.89297
 20
20.3154945
 11
-121.89297
 21
-20.315495
  0
LINE
  8
0
 10
-121.89297
 20
-20.315495
 11
0.00000000
 21
0.00000000
  0
ENDBLK
  8
0
  0
BLOCK
  8
0
  2
ARROWF
 70
     0
 10
0.00000000
 20
0.00000000
  0
LINE
  8
0
 10
0.00000000
 20
0.00000000
 11
-182.83946
 21
30.4732418
  0
LINE
  8
0
 10
-182.83946
 20
30.4732418
 11
-182.83946
 21
-30.473242
  0
LINE
  8
0
 10
-182.83946
 20
-30.473242
 11
0.00000000
 21
0.00000000
  0
ENDBLK
  8
0
  0
BLOCK
  8
0
  2
DIAMOND
 70
     0
 10
0.00000000
 20
0.00000000
  0
LINE
  8
0
 10
0.00000000
 20
0.00000000
 11
12.6999998
 21
12.6999998
  0
LINE
  8
0
 10
12.6999998
 20
12.6999998
 11
0.00000000
 21
25.3999996
  0
LINE
  8
0
 10
0.00000000
 20
25.3999996
 11
-12.700000
 21
12.6999998
  0
LINE
  8
0
 10
-12.700000
 20
12.6999998
 11
0.00000000
 21
0.00000000
  0
ENDBLK
  8
0
  0
BLOCK
  8
3
  2
CIRCLE
 70
     0
 10
0.00000000
 20
0.00000000
  0
CIRCLE
  8
1
 10
     0.00
 20
     0.00
 40
    25.40
  0
ENDBLK
  8
3
  0
BLOCK
  8
0
  2
WSECTN
 70
     0
 10
0.00000000
 20
0.00000000
  0
LINE
  8
0
 10
0.00000000
 20
0.00000000
 11
0.00000000
 21
25.3999996
  0
LINE
  8
0
 10
-76.199997
 20
0.00000000
 11
76.1999970
 21
0.00000000
  0
LINE
  8
0
 10
-76.199997
 20
25.3999996
 11
76.1999970
 21
25.3999996
  0
ENDBLK
  8
0
  0
BLOCK
  8
0
  2
WCOL
 70
     0
 10
0.00000000
 20
0.00000000
  0
LINE
  8
0
 10
-10.160000
 20
0.00000000
 11
10.1599999
 21
0.00000000
  0
LINE
  8
0
 10
0.00000000
 20
0.00000000
 11
0.00000000
 21
-25.400000
  0
LINE
  8
0
 10
-10.160000
 20
-25.400000
 11
10.1599999
 21
-25.400000
  0
ENDBLK
  8
0
  0
BLOCK
  8
0
  2
JSECTN
 70
     0
 10
0.00000000
 20
0.00000000
  0
LINE
  8
0
 10
0.00000000
 20
0.00000000
 11
0.00000000
 21
-25.400000
  0
LINE
  8
0
 10
-2.5400000
 20
0.00000000
 11
0.00000000
 21
0.00000000
  0
LINE
  8
0
 10
0.00000000
 20
0.00000000
 11
0.00000000
 21
-25.400000
  0
LINE
  8
0
 10
2.53999996
 20
0.00000000
 11
0.00000000
 21
0.00000000
  0
LINE
  8
0
 10
0.00000000
 20
0.00000000
 11
0.00000000
 21
-25.400000
  0
LINE
  8
0
 10
-2.5400000
 20
-25.400000
 11
0.00000000
 21
-25.400000
  0
LINE
  8
0
 10
0.00000000
 20
-25.400000
 11
0.00000000
 21
0.00000000
  0
LINE
  8
0
 10
2.53999996
 20
-25.400000
 11
0.00000000
 21
-25.400000
  0
LINE
  8
0
 10
0.00000000
 20
-25.400000
 11
0.00000000
 21
0.00000000
  0
ENDBLK
  8
0
  0
BLOCK
  8
0
  2
ZCOL
 70
     0
 10
0.00000000
 20
0.00000000
  0
LINE
  8
0
 10
10.1599999
 20
-2.5400000
 11
10.1599999
 21
0.00000000
  0
LINE
  8
0
 10
10.1599999
 20
0.00000000
 11
0.00000000
 21
0.00000000
  0
LINE
  8
0
 10
0.00000000
 20
0.00000000
 11
0.00000000
 21
-25.400000
  0
LINE
  8
0
 10
0.00000000
 20
-25.400000
 11
-10.160000
 21
-25.400000
  0
LINE
  8
0
 10
-10.160000
 20
-25.400000
 11
-10.160000
 21
-22.859999
  0
ENDBLK
  8
0
  0
BLOCK
  8
0
  2
FINFLR
 70
     0
 10
0.00000000
 20
0.00000000
  0
LINE
  8
0
 10
0.00000000
 20
0.00000000
 11
12.6999998
 21
25.3999996
  0
LINE
  8
0
 10
12.6999998
 20
25.3999996
 11
-12.700000
 21
25.3999996
  0
LINE
  8
0
 10
-12.700000
 20
25.3999996
 11
0.00000000
 21
0.00000000
  0
LINE
  8
0
 10
0.00000000
 20
0.00000000
 11
0.00000000
 21
25.3999996
  0
SOLID
  8
0
 10
0.00000000
 20
0.00000000
 11
0.00000000
 21
25.3999996
 12
-12.700000
 22
25.3999996
 13
-12.700000
 23
25.3999996
  0
ENDBLK
  8
0
  0
BLOCK
  8
0
  2
CCOL
 70
     0
 10
0.00000000
 20
0.00000000
  0
LINE
  8
0
 10
10.1599999
 20
-2.5400000
 11
10.1599999
 21
0.00000000
  0
LINE
  8
0
 10
10.1599999
 20
0.00000000
 11
0.00000000
 21
0.00000000
  0
LINE
  8
0
 10
0.00000000
 20
0.00000000
 11
0.00000000
 21
-25.400000
  0
LINE
  8
0
 10
0.00000000
 20
-25.400000
 11
10.1599999
 21
-25.400000
  0
LINE
  8
0
 10
10.1599999
 20
-25.400000
 11
10.1599999
 21
-22.859999
  0
ENDBLK
  8
0
  0
BLOCK
  8
0
  2
UCOL
 70
     0
 10
0.00000000
 20
0.00000000
  0
LINE
  8
0
 10
10.1599999
 20
0.00000000
 11
0.00000000
 21
0.00000000
  0
LINE
  8
0
 10
0.00000000
 20
0.00000000
 11
0.00000000
 21
-25.400000
  0
LINE
  8
0
 10
0.00000000
 20
-25.400000
 11
10.1599999
 21
-25.400000
  0
ENDBLK
  8
0
  0
BLOCK
  8
0
  2
DCOL
 70
     0
 10
0.00000000
 20
0.00000000
  0
INSERT
  8
0
  2
CCOL
 10
0.00000000
 20
0.00000000
 41
1.00000000
 42
1.00000000
 43
1.00000000
 50
0.00000000
  0
INSERT
  8
0
  2
CCOL
 10
0.00000000
 20
0.00000000
 41
-1.0000000
 42
1.00000000
 43
1.00000000
 50
0.00000000
  0
ENDBLK
  8
0
  0
BLOCK
  8
0
  2
MARKER
 70
     0
 10
0.00000000
 20
0.00000000
  0
LINE
  8
0
 10
0.00000000
 20
0.00000000
 11
187.527664
 21
187.527664
  0
LINE
  8
0
 10
187.527664
 20
187.527664
 11
-187.52766
 21
187.527664
  0
LINE
  8
0
 10
-187.52766
 20
187.527664
 11
0.00000000
 21
0.00000000
  0
ENDBLK
  8
0
  0
BLOCK
  8
0
  2
FLGCLP
 70
     0
 10
0.00000000
 20
0.00000000
  0
LINE
  8
0
 10
0.00000000
 20
0.00000000
 11
25.3999996
 21
25.3999996
  0
LINE
  8
0
 10
25.3999996
 20
25.3999996
 11
-25.400000
 21
25.3999996
  0
LINE
  8
0
 10
-25.400000
 20
25.3999996
 11
0.00000000
 21
0.00000000
  0
LINE
  8
0
 10
-8.4666672
 20
8.46666716
 11
8.46666716
 21
8.46666716
  0
LINE
  8
0
 10
-8.4666672
 20
8.46666716
 11
-8.4666672
 21
25.3999996
  0
LINE
  8
0
 10
8.46666716
 20
8.46666716
 11
8.46666716
 21
25.3999996
  0
ENDBLK
  8
0
  0
BLOCK
  8
0
  2
CUTFRM
 70
     0
 10
0.00000000
 20
0.00000000
  0
LINE
  8
0
 10
0.00000000
 20
0.00000000
 11
0.00000000
 21
-25.400000
  0
LINE
  8
0
 10
0.00000000
 20
-25.400000
 11
-178.15128
 21
-25.400000
  0
ENDBLK
  8
0
  0
BLOCK
  8
0
  2
VSECTN
 70
     0
 10
0.00000000
 20
0.00000000
  0
LINE
  8
0
 10
-12.700000
 20
25.3999996
 11
12.6999998
 21
25.3999996
  0
LINE
  8
0
 10
-12.700000
 20
25.3999996
 11
0.00000000
 21
0.00000000
  0
LINE
  8
0
 10
0.00000000
 20
0.00000000
 11
12.6999998
 21
25.3999996
  0
ENDBLK
  8
0
  0
BLOCK
  8
0
  2
ASECT
 70
     0
 10
0.00000000
 20
0.00000000
  0
LINE
  8
0
 10
0.00000000
 20
0.00000000
 11
25.3999996
 21
0.00000000
  0
LINE
  8
0
 10
0.00000000
 20
0.00000000
 11
0.00000000
 21
-25.400000
  0
ENDBLK
  8
0
  0
BLOCK
  8
0
  2
FRAME1
 70
     0
 10
0.00000000
 20
0.00000000
  0
LINE
  8
5
 10
0.00000000
 20
2500.00000
 11
0.00000000
 21
8420.00000
  0
LINE
  8
5
 10
0.00000000
 20
8420.00000
 11
11235.0000
 21
9543.50000
  0
LINE
  8
5
 10
11235.0000
 20
9543.50000
 11
22470.0000
 21
8420.00000
  0
LINE
  8
5
 10
22470.0000
 20
8420.00000
 11
22470.0000
 21
2500.00000
  0
LINE
  8
3
 10
-1558.8237
 20
9738.69043
 11
-1177.1752
 21
9959.03613
  0
LINE
  8
3
 10
-1510.1027
 20
9766.82031
 11
-1225.8964
 21
9766.82031
  0
LINE
  8
3
 10
-1225.8964
 20
9930.90723
 11
-1225.8964
 21
9766.82031
  0
TEXT
  8
3
 7
SIMPLEX
 10
-1167.2939
 20
9766.82031
 40
117.204788
  1
10.0
 50
0.00000000
  0
TEXT
  8
3
 7
SIMPLEX
 10
-1426.6019
 20
9591.01270
 40
117.204788
  1
100
 50
0.00000000
  0
LINE
  8
3
 10
23981.9414
 20
9738.69043
 11
23600.2949
 21
9959.03613
  0
LINE
  8
3
 10
23933.2207
 20
9766.82031
 11
23649.0156
 21
9766.82031
  0
LINE
  8
3
 10
23649.0156
 20
9930.90723
 11
23649.0156
 21
9766.82031
  0
TEXT
  8
3
 7
SIMPLEX
 10
23062.9922
 20
9766.82031
 40
117.204788
  1
  10.0
 50
0.00000000
  0
TEXT
  8
3
 7
SIMPLEX
 10
23732.5156
 20
9591.01270
 40
117.204788
  1
100
 50
0.00000000
  0
LINE
  8
1
 10
11160.0000
 20
8813.98047
 11
11160.0000
 21
16.0000000
  0
LINE
  8
1
 10
11309.9990
 20
8813.98047
 11
11309.9990
 21
16.0000000
  0
LINE
  8
1
 10
941.999939
 20
5834.00000
 11
1400.00000
 21
5834.00000
  0
LINE
  8
1
 10
941.999939
 20
5825.99951
 11
1400.00000
 21
5825.99951
  0
LINE
  8
1
 10
1400.00000
 20
5834.00000
 11
1400.00000
 21
5468.00000
  0
LINE
  8
1
 10
1400.00000
 20
5468.00000
 11
941.999939
 21
5468.00000
  0
LINE
  8
1
 10
1400.00000
 20
5476.00000
 11
941.999939
 21
5476.00000
  0
LINE
  8
1
 10
1400.00000
 20
5468.00000
 11
1400.00000
 21
5368.00000
  0
LINE
  8
1
 10
1400.00000
 20
5368.00000
 11
941.999939
 21
5103.57324
  0
LINE
  8
1
 10
21528.0000
 20
5834.00000
 11
21069.9980
 21
5834.00000
  0
LINE
  8
1
 10
21528.0000
 20
5825.99951
 11
21069.9980
 21
5825.99951
  0
LINE
  8
1
 10
21069.9980
 20
5834.00000
 11
21069.9980
 21
5468.00000
  0
LINE
  8
1
 10
21069.9980
 20
5468.00000
 11
21528.0000
 21
5468.00000
  0
LINE
  8
1
 10
21069.9980
 20
5476.00000
 11
21528.0000
 21
5476.00000
  0
LINE
  8
1
 10
21069.9980
 20
5468.00000
 11
21069.9980
 21
5368.00000
  0
LINE
  8
1
 10
21069.9980
 20
5368.00000
 11
21528.0000
 21
5103.57324
  0
LINE
  8
1
 10
11135.0000
 20
8829.98047
 11
11135.0000
 21
8813.98047
  0
LINE
  8
1
 10
11135.0000
 20
8813.98047
 11
11334.9990
 21
8813.98047
  0
LINE
  8
1
 10
11334.9990
 20
8813.98047
 11
11334.9990
 21
8829.98047
  0
LINE
  8
1
 10
236.000000
 20
16.0000000
 11
636.000000
 21
16.0000000
  0
LINE
  8
1
 10
636.000000
 20
16.0000000
 11
936.000000
 21
4015.99976
  0
LINE
  8
1
 10
936.000000
 20
4015.99976
 11
936.000000
 21
4015.99976
  0
LINE
  8
1
 10
936.000000
 20
4015.99976
 11
236.000000
 21
4015.99976
  0
LINE
  8
1
 10
236.000000
 20
16.0000000
 11
236.000000
 21
4015.99976
  0
LINE
  8
1
 10
236.000000
 20
4015.99976
 11
936.000000
 21
4015.99976
  0
LINE
  8
1
 10
936.000000
 20
4015.99976
 11
936.000000
 21
7933.63184
  0
LINE
  8
1
 10
936.000000
 20
7933.63184
 11
936.000000
 21
7933.63184
  0
LINE
  8
1
 10
936.000000
 20
7933.63184
 11
236.000000
 21
7933.63184
  0
LINE
  8
1
 10
236.000000
 20
4015.99976
 11
236.000000
 21
7933.63184
  0
LINE
  8
1
 10
336.000000
 20
5474.00000
 11
936.000000
 21
5474.00000
  0
LINE
  8
1
 10
336.000000
 20
5468.00000
 11
936.000000
 21
5468.00000
  0
LINE
  8
1
 10
336.000000
 20
5474.00000
 11
336.000000
 21
5468.00000
  0
LINE
  8
1
 10
936.000000
 20
5474.00000
 11
936.000000
 21
5468.00000
  0
LINE
  8
1
 10
336.000000
 20
5834.00000
 11
936.000000
 21
5834.00000
  0
LINE
  8
1
 10
336.000000
 20
5828.00000
 11
936.000000
 21
5828.00000
  0
LINE
  8
1
 10
336.000000
 20
5834.00000
 11
336.000000
 21
5828.00000
  0
LINE
  8
1
 10
936.000000
 20
5834.00000
 11
936.000000
 21
5828.00000
  0
LINE
  8
1
 10
236.000000
 20
6050.00000
 11
836.000000
 21
6050.00000
  0
LINE
  8
1
 10
236.000000
 20
6044.00000
 11
836.000000
 21
6044.00000
  0
LINE
  8
1
 10
236.000000
 20
6050.00000
 11
236.000000
 21
6044.00000
  0
LINE
  8
1
 10
836.000000
 20
6050.00000
 11
836.000000
 21
6044.00000
  0
LINE
  8
1
 10
236.000000
 20
16.0000000
 11
236.000000
 21
7933.63184
  0
LINE
  8
1
 10
236.000000
 20
7933.63184
 11
229.999985
 21
7933.63184
  0
LINE
  8
1
 10
229.999985
 20
7933.63184
 11
229.999985
 21
16.0000000
  0
LINE
  8
1
 10
236.000000
 20
16.0000000
 11
229.999985
 21
16.0000000
  0
LINE
  8
1
 10
636.033997
 20
16.4489994
 11
936.000000
 21
4015.99976
  0
LINE
  8
1
 10
936.000000
 20
4015.99976
 11
941.982971
 21
4015.55103
  0
LINE
  8
1
 10
941.982971
 20
4015.55103
 11
642.017029
 21
16.0000000
  0
LINE
  8
1
 10
636.033997
 20
16.4489994
 11
642.017029
 21
16.0000000
  0
LINE
  8
1
 10
936.000000
 20
4015.99976
 11
936.000000
 21
7933.63184
  0
LINE
  8
1
 10
936.000000
 20
7933.63184
 11
941.999939
 21
7933.63184
  0
LINE
  8
1
 10
941.999939
 20
7933.63184
 11
941.999939
 21
4015.99976
  0
LINE
  8
1
 10
936.000000
 20
4015.99976
 11
941.999939
 21
4015.99976
  0
LINE
  8
1
 10
158.000000
 20
-28.700001
 11
158.000000
 21
28.7000008
  0
LINE
  8
1
 10
308.000000
 20
-28.700001
 11
308.000000
 21
28.7000008
  0
LINE
  8
1
 10
562.807983
 20
-28.700001
 11
562.807983
 21
28.7000008
  0
LINE
  8
1
 10
712.807983
 20
-28.700001
 11
712.807983
 21
28.7000008
  0
LINE
  8
1
 10
82.9999924
 20
0.00000000
 11
787.807983
 21
0.00000000
  0
LINE
  8
1
 10
787.807983
 20
0.00000000
 11
787.807983
 21
16.0000000
  0
LINE
  8
1
 10
787.807983
 20
16.0000000
 11
82.9999924
 21
16.0000000
  0
LINE
  8
1
 10
82.9999924
 20
0.00000000
 11
82.9999924
 21
16.0000000
  0
LINE
  8
1
 10
186.000000
 20
7920.93164
 11
186.000000
 21
7978.33154
  0
LINE
  8
1
 10
286.000000
 20
7920.93164
 11
286.000000
 21
7978.33154
  0
LINE
  8
1
 10
586.000000
 20
7920.93164
 11
586.000000
 21
7978.33154
  0
LINE
  8
1
 10
886.000000
 20
7920.93164
 11
886.000000
 21
7978.33154
  0
LINE
  8
1
 10
986.000000
 20
7920.93164
 11
986.000000
 21
7978.33154
  0
LINE
  8
1
 10
136.000000
 20
7949.63184
 11
1036.00000
 21
7949.63184
  0
LINE
  8
1
 10
1036.00000
 20
7949.63184
 11
1036.00000
 21
7933.63184
  0
LINE
  8
1
 10
1036.00000
 20
7933.63184
 11
136.000000
 21
7933.63184
  0
LINE
  8
1
 10
136.000000
 20
7949.63184
 11
136.000000
 21
7933.63184
  0
LINE
  8
1
 10
229.999985
 20
16.0000000
 11
229.999985
 21
213.000000
  0
LINE
  8
1
 10
229.999985
 20
213.000000
 11
82.9999924
 21
66.0000000
  0
LINE
  8
1
 10
82.9999924
 20
66.0000000
 11
82.9999924
 21
16.0000000
  0
LINE
  8
1
 10
229.999985
 20
16.0000000
 11
82.9999924
 21
16.0000000
  0
LINE
  8
1
 10
642.017029
 20
16.0000000
 11
656.700989
 21
211.792007
  0
LINE
  8
1
 10
656.700989
 20
211.792007
 11
787.807983
 21
66.0000000
  0
LINE
  8
1
 10
787.807983
 20
66.0000000
 11
787.807983
 21
16.0000000
  0
LINE
  8
1
 10
642.017029
 20
16.0000000
 11
787.807983
 21
16.0000000
  0
LINE
  8
1
 10
229.999985
 20
7933.63184
 11
229.999985
 21
7813.63135
  0
LINE
  8
1
 10
229.999985
 20
7813.63135
 11
136.000000
 21
7933.63184
  0
LINE
  8
1
 10
136.000000
 20
7933.63184
 11
136.000000
 21
7933.63184
  0
LINE
  8
1
 10
229.999985
 20
7933.63184
 11
136.000000
 21
7933.63184
  0
LINE
  8
1
 10
941.999939
 20
7933.63184
 11
941.999939
 21
7813.63135
  0
LINE
  8
1
 10
941.999939
 20
7813.63135
 11
1036.00000
 21
7933.63184
  0
LINE
  8
1
 10
1036.00000
 20
7933.63184
 11
1036.00000
 21
7933.63184
  0
LINE
  8
1
 10
941.999939
 20
7933.63184
 11
1036.00000
 21
7933.63184
  0
LINE
  8
1
 10
4477.16895
 20
8711.94434
 11
4507.06689
 21
8412.97754
  0
LINE
  8
1
 10
4507.06689
 20
8412.97754
 11
1038.99988
 21
7965.63086
  0
LINE
  8
1
 10
1038.99988
 20
7965.63086
 11
236.000000
 21
7965.63086
  0
LINE
  8
1
 10
236.000000
 20
7965.63086
 11
236.000000
 21
8287.82617
  0
LINE
  8
1
 10
4477.16895
 20
8711.94434
 11
236.000000
 21
8287.82617
  0
LINE
  8
1
 10
906.162964
 20
8324.14258
 11
941.984924
 21
7965.92969
  0
LINE
  8
1
 10
900.193054
 20
8323.54590
 11
936.015015
 21
7965.33301
  0
LINE
  8
1
 10
906.162964
 20
8324.14258
 11
900.193054
 21
8323.54590
  0
LINE
  8
1
 10
941.984924
 20
7965.92969
 11
936.015015
 21
7965.33301
  0
LINE
  8
1
 10
4477.16895
 20
8711.94434
 11
10.4980002
 21
8265.27637
  0
LINE
  8
1
 10
10.4980002
 20
8265.27637
 11
10.0000000
 21
8270.25098
  0
LINE
  8
1
 10
10.0000000
 20
8270.25098
 11
4476.67188
 21
8716.91895
  0
LINE
  8
1
 10
4477.16895
 20
8711.94434
 11
4476.67188
 21
8716.91895
  0
LINE
  8
1
 10
236.000000
 20
7965.63086
 11
236.000000
 21
8287.32617
  0
LINE
  8
1
 10
236.000000
 20
8287.32617
 11
231.000000
 21
8287.32617
  0
LINE
  8
1
 10
231.000000
 20
8287.32617
 11
231.000000
 21
7965.63086
  0
LINE
  8
1
 10
236.000000
 20
7965.63086
 11
231.000000
 21
7965.63086
  0
LINE
  8
1
 10
231.000000
 20
8287.32617
 11
1.00000000
 21
8264.32520
  0
LINE
  8
1
 10
1.00000000
 20
8264.32520
 11
231.000000
 21
8172.32617
  0
LINE
  8
1
 10
4506.92480
 20
8412.95801
 11
1038.99988
 21
7965.63086
  0
LINE
  8
1
 10
1038.99988
 20
7965.63086
 11
1039.64001
 21
7960.67285
  0
LINE
  8
1
 10
1039.64001
 20
7960.67285
 11
4507.56396
 21
8408.00098
  0
LINE
  8
1
 10
4506.92480
 20
8412.95801
 11
4507.56396
 21
8408.00098
  0
LINE
  8
1
 10
4459.55811
 20
8760.43262
 11
4516.67285
 21
8766.14355
  0
LINE
  8
1
 10
4469.50781
 20
8660.92969
 11
4526.62305
 21
8666.64063
  0
LINE
  8
1
 10
4489.40918
 20
8461.92090
 11
4546.52393
 21
8467.63281
  0
LINE
  8
1
 10
4499.35840
 20
8362.41797
 11
4556.47510
 21
8368.12988
  0
LINE
  8
1
 10
4483.14014
 20
8813.04004
 11
4532.89209
 21
8315.52051
  0
LINE
  8
1
 10
4532.89209
 20
8315.52051
 11
4516.97168
 21
8313.92871
  0
LINE
  8
1
 10
4516.97168
 20
8313.92871
 11
4467.21924
 21
8811.44824
  0
LINE
  8
1
 10
4483.14014
 20
8813.04004
 11
4467.21924
 21
8811.44824
  0
LINE
  8
1
 10
186.000000
 20
7920.93164
 11
186.000000
 21
7978.33154
  0
LINE
  8
1
 10
286.000000
 20
7920.93164
 11
286.000000
 21
7978.33154
  0
LINE
  8
1
 10
586.000000
 20
7920.93164
 11
586.000000
 21
7978.33154
  0
LINE
  8
1
 10
886.000000
 20
7920.93164
 11
886.000000
 21
7978.33154
  0
LINE
  8
1
 10
986.000000
 20
7920.93164
 11
986.000000
 21
7978.33154
  0
LINE
  8
1
 10
136.000000
 20
7949.63184
 11
1036.00000
 21
7949.63184
  0
LINE
  8
1
 10
1036.00000
 20
7949.63184
 11
1036.00000
 21
7965.63086
  0
LINE
  8
1
 10
1036.00000
 20
7965.63086
 11
136.000000
 21
7965.63086
  0
LINE
  8
1
 10
136.000000
 20
7949.63184
 11
136.000000
 21
7965.63086
  0
LINE
  8
1
 10
4476.67188
 20
8716.91895
 11
4357.26807
 21
8704.97852
  0
LINE
  8
1
 10
4357.26807
 20
8704.97852
 11
4467.21924
 21
8811.44824
  0
LINE
  8
1
 10
4467.21924
 20
8811.44824
 11
4467.21924
 21
8811.44824
  0
LINE
  8
1
 10
4476.67188
 20
8716.91895
 11
4467.21924
 21
8811.44824
  0
LINE
  8
1
 10
4507.56396
 20
8408.00098
 11
4388.50098
 21
8392.64258
  0
LINE
  8
1
 10
4388.50098
 20
8392.64258
 11
4516.97168
 21
8313.92871
  0
LINE
  8
1
 10
4516.97168
 20
8313.92871
 11
4516.97168
 21
8313.92871
  0
LINE
  8
1
 10
4507.56396
 20
8408.00098
 11
4516.97168
 21
8313.92871
  0
LINE
  8
1
 10
231.000000
 20
7965.63086
 11
231.000000
 21
8085.62988
  0
LINE
  8
1
 10
231.000000
 20
8085.62988
 11
136.000000
 21
7965.63086
  0
LINE
  8
1
 10
136.000000
 20
7965.63086
 11
136.000000
 21
7965.63086
  0
LINE
  8
1
 10
231.000000
 20
7965.63086
 11
136.000000
 21
7965.63086
  0
LINE
  8
1
 10
8676.72461
 20
9131.89941
 11
8706.57520
 21
8833.38867
  0
LINE
  8
1
 10
8706.57520
 20
8833.38867
 11
4538.86182
 21
8416.61719
  0
LINE
  8
1
 10
4538.86182
 20
8416.61719
 11
4538.86182
 21
8416.61719
  0
LINE
  8
1
 10
4538.86182
 20
8416.61719
 11
4509.01123
 21
8715.12793
  0
LINE
  8
1
 10
8676.72461
 20
9131.89941
 11
4509.01123
 21
8715.12793
  0
LINE
  8
1
 10
8676.72461
 20
9131.89941
 11
4509.01123
 21
8715.12793
  0
LINE
  8
1
 10
4509.01123
 20
8715.12793
 11
4508.51367
 21
8720.10352
  0
LINE
  8
1
 10
4508.51367
 20
8720.10352
 11
8676.22656
 21
9136.87500
  0
LINE
  8
1
 10
8676.72461
 20
9131.89941
 11
8676.22656
 21
9136.87500
  0
LINE
  8
1
 10
8706.57520
 20
8833.38867
 11
4538.86182
 21
8416.61719
  0
LINE
  8
1
 10
4538.86182
 20
8416.61719
 11
4539.35986
 21
8411.64258
  0
LINE
  8
1
 10
4539.35986
 20
8411.64258
 11
8707.07324
 21
8828.41406
  0
LINE
  8
1
 10
8706.57520
 20
8833.38867
 11
8707.07324
 21
8828.41406
  0
LINE
  8
1
 10
8659.11133
 20
9180.38867
 11
8716.22754
 21
9186.09961
  0
LINE
  8
1
 10
8669.06152
 20
9080.88477
 11
8726.17773
 21
9086.59668
  0
LINE
  8
1
 10
8688.96289
 20
8881.87695
 11
8746.07910
 21
8887.58887
  0
LINE
  8
1
 10
8698.91406
 20
8782.37402
 11
8756.02930
 21
8788.08496
  0
LINE
  8
1
 10
8682.69434
 20
9232.99609
 11
8732.44629
 21
8735.47656
  0
LINE
  8
1
 10
8732.44629
 20
8735.47656
 11
8716.52637
 21
8733.88477
  0
LINE
  8
1
 10
8716.52637
 20
8733.88477
 11
8666.77441
 21
9231.40430
  0
LINE
  8
1
 10
8682.69434
 20
9232.99609
 11
8666.77441
 21
9231.40430
  0
LINE
  8
1
 10
4459.55811
 20
8760.43262
 11
4516.67285
 21
8766.14355
  0
LINE
  8
1
 10
4469.50781
 20
8660.92969
 11
4526.62305
 21
8666.64063
  0
LINE
  8
1
 10
4489.40918
 20
8461.92090
 11
4546.52393
 21
8467.63281
  0
LINE
  8
1
 10
4499.35840
 20
8362.41797
 11
4556.47510
 21
8368.12988
  0
LINE
  8
1
 10
4483.14014
 20
8813.04004
 11
4532.89209
 21
8315.52051
  0
LINE
  8
1
 10
4532.89209
 20
8315.52051
 11
4548.81299
 21
8317.11328
  0
LINE
  8
1
 10
4548.81299
 20
8317.11328
 11
4499.06104
 21
8814.63281
  0
LINE
  8
1
 10
4483.14014
 20
8813.04004
 11
4499.06104
 21
8814.63281
  0
LINE
  8
1
 10
8676.22656
 20
9136.87500
 11
8556.82129
 21
9124.93457
  0
LINE
  8
1
 10
8556.82129
 20
9124.93457
 11
8666.77441
 21
9231.40430
  0
LINE
  8
1
 10
8666.77441
 20
9231.40430
 11
8666.77441
 21
9231.40430
  0
LINE
  8
1
 10
8676.22656
 20
9136.87500
 11
8666.77441
 21
9231.40430
  0
LINE
  8
1
 10
8707.07324
 20
8828.41406
 11
8587.66895
 21
8816.47363
  0
LINE
  8
1
 10
8587.66895
 20
8816.47363
 11
8716.52637
 21
8733.88477
  0
LINE
  8
1
 10
8716.52637
 20
8733.88477
 11
8716.52637
 21
8733.88477
  0
LINE
  8
1
 10
8707.07324
 20
8828.41406
 11
8716.52637
 21
8733.88477
  0
LINE
  8
1
 10
4508.51367
 20
8720.10352
 11
4627.91797
 21
8732.04395
  0
LINE
  8
1
 10
4627.91797
 20
8732.04395
 11
4499.06104
 21
8814.63281
  0
LINE
  8
1
 10
4499.06104
 20
8814.63281
 11
4499.06104
 21
8814.63281
  0
LINE
  8
1
 10
4508.51367
 20
8720.10352
 11
4499.06104
 21
8814.63281
  0
LINE
  8
1
 10
4539.35986
 20
8411.64258
 11
4658.76416
 21
8423.58301
  0
LINE
  8
1
 10
4658.76416
 20
8423.58301
 11
4548.81299
 21
8317.11328
  0
LINE
  8
1
 10
4548.81299
 20
8317.11328
 11
4548.81299
 21
8317.11328
  0
LINE
  8
1
 10
4539.35986
 20
8411.64258
 11
4548.81299
 21
8317.11328
  0
LINE
  8
1
 10
8738.57617
 20
8834.97949
 11
8708.56641
 21
9135.08398
  0
LINE
  8
1
 10
8708.56641
 20
9135.08398
 11
11235.0000
 21
9387.72559
  0
LINE
  8
1
 10
11235.0000
 20
9387.72559
 11
13761.4004
 21
9135.08691
  0
LINE
  8
1
 10
13761.4004
 20
9135.08691
 11
13731.3906
 21
8834.97949
  0
LINE
  8
1
 10
8738.57617
 20
8834.97949
 11
13731.3906
 21
8834.97949
  0
LINE
  8
1
 10
8708.56641
 20
9135.08398
 11
11235.0000
 21
9387.72559
  0
LINE
  8
1
 10
11235.0000
 20
9387.72559
 11
11234.5029
 21
9392.70215
  0
LINE
  8
1
 10
11234.5029
 20
9392.70215
 11
8708.06836
 21
9140.05859
  0
LINE
  8
1
 10
8708.56641
 20
9135.08398
 11
8708.06836
 21
9140.05859
  0
LINE
  8
1
 10
11235.0000
 20
9387.72559
 11
13761.4004
 21
9135.08691
  0
LINE
  8
1
 10
13761.4004
 20
9135.08691
 11
13761.8975
 21
9140.06152
  0
LINE
  8
1
 10
13761.8975
 20
9140.06152
 11
11235.4980
 21
9392.70215
  0
LINE
  8
1
 10
11235.0000
 20
9387.72559
 11
11235.4980
 21
9392.70215
  0
LINE
  8
1
 10
8739.07617
 20
8834.97949
 11
13730.8877
 21
8834.97949
  0
LINE
  8
1
 10
13730.8877
 20
8834.97949
 11
13730.8877
 21
8829.98145
  0
LINE
  8
1
 10
13730.8877
 20
8829.98145
 11
8739.07617
 21
8829.98145
  0
LINE
  8
1
 10
8739.07617
 20
8834.97949
 11
8739.07617
 21
8829.98145
  0
LINE
  8
1
 10
11238.0000
 20
9284.98047
 11
11238.0000
 21
8834.97949
  0
LINE
  8
1
 10
11232.0000
 20
9284.98047
 11
11232.0000
 21
8834.97949
  0
LINE
  8
1
 10
11238.0000
 20
9284.98047
 11
11232.0000
 21
9284.98047
  0
LINE
  8
1
 10
11238.0000
 20
8834.97949
 11
11232.0000
 21
8834.97949
  0
LINE
  8
1
 10
8659.11133
 20
9180.38867
 11
8716.22754
 21
9186.09961
  0
LINE
  8
1
 10
8669.06152
 20
9080.88477
 11
8726.17773
 21
9086.59668
  0
LINE
  8
1
 10
8688.96289
 20
8881.87695
 11
8746.07910
 21
8887.58887
  0
LINE
  8
1
 10
8698.91406
 20
8782.37402
 11
8756.02930
 21
8788.08496
  0
LINE
  8
1
 10
8682.69434
 20
9232.99609
 11
8732.44629
 21
8735.47656
  0
LINE
  8
1
 10
8732.44629
 20
8735.47656
 11
8748.36621
 21
8737.06934
  0
LINE
  8
1
 10
8748.36621
 20
8737.06934
 11
8698.61523
 21
9234.58691
  0
LINE
  8
1
 10
8682.69434
 20
9232.99609
 11
8698.61523
 21
9234.58691
  0
LINE
  8
1
 10
13753.7373
 20
9186.10254
 11
13810.8525
 21
9180.39160
  0
LINE
  8
1
 10
13743.7871
 20
9086.59863
 11
13800.9043
 21
9080.88770
  0
LINE
  8
1
 10
13723.8867
 20
8887.59180
 11
13781.0020
 21
8881.87988
  0
LINE
  8
1
 10
13713.9355
 20
8788.08789
 11
13771.0527
 21
8782.37500
  0
LINE
  8
1
 10
13787.2686
 20
9232.99902
 11
13737.5195
 21
8735.47852
  0
LINE
  8
1
 10
13737.5195
 20
8735.47852
 11
13721.5996
 21
8737.07031
  0
LINE
  8
1
 10
13721.5996
 20
8737.07031
 11
13771.3506
 21
9234.59082
  0
LINE
  8
1
 10
13787.2686
 20
9232.99902
 11
13771.3506
 21
9234.59082
  0
LINE
  8
1
 10
8708.06836
 20
9140.05859
 11
8827.47266
 21
9151.99902
  0
LINE
  8
1
 10
8827.47266
 20
9151.99902
 11
8698.61523
 21
9234.58691
  0
LINE
  8
1
 10
8698.61523
 20
9234.58691
 11
8698.61523
 21
9234.58691
  0
LINE
  8
1
 10
8708.06836
 20
9140.05859
 11
8698.61523
 21
9234.58691
  0
LINE
  8
1
 10
8739.07617
 20
8829.98145
 11
8859.67578
 21
8829.98145
  0
LINE
  8
1
 10
8859.67578
 20
8829.98145
 11
8748.36621
 21
8737.06934
  0
LINE
  8
1
 10
8748.36621
 20
8737.06934
 11
8748.36621
 21
8737.06934
  0
LINE
  8
1
 10
8739.07617
 20
8829.98145
 11
8748.36621
 21
8737.06934
  0
LINE
  8
1
 10
13761.8975
 20
9140.06152
 11
13642.4932
 21
9152.00293
  0
LINE
  8
1
 10
13642.4932
 20
9152.00293
 11
13771.3506
 21
9234.59082
  0
LINE
  8
1
 10
13771.3506
 20
9234.59082
 11
13771.3506
 21
9234.59082
  0
LINE
  8
1
 10
13761.8975
 20
9140.06152
 11
13771.3506
 21
9234.59082
  0
LINE
  8
1
 10
13730.8916
 20
8829.98145
 11
13610.2910
 21
8829.98145
  0
LINE
  8
1
 10
13610.2910
 20
8829.98145
 11
13721.5996
 21
8737.07031
  0
LINE
  8
1
 10
13721.5996
 20
8737.07031
 11
13721.5996
 21
8737.07031
  0
LINE
  8
1
 10
13730.8916
 20
8829.98145
 11
13721.5996
 21
8737.07031
  0
LINE
  8
1
 10
13793.2402
 20
9131.90332
 11
13763.3887
 21
8833.39160
  0
LINE
  8
1
 10
13763.3887
 20
8833.39160
 11
17931.1035
 21
8416.62012
  0
LINE
  8
1
 10
17931.1035
 20
8416.62012
 11
17931.1035
 21
8416.62012
  0
LINE
  8
1
 10
17931.1035
 20
8416.62012
 11
17960.9551
 21
8715.13184
  0
LINE
  8
1
 10
13793.2402
 20
9131.90332
 11
17960.9551
 21
8715.13184
  0
LINE
  8
1
 10
13793.2402
 20
9131.90332
 11
17960.9551
 21
8715.13184
  0
LINE
  8
1
 10
17960.9551
 20
8715.13184
 11
17961.4531
 21
8720.10645
  0
LINE
  8
1
 10
17961.4531
 20
8720.10645
 11
13793.7373
 21
9136.87793
  0
LINE
  8
1
 10
13793.2402
 20
9131.90332
 11
13793.7373
 21
9136.87793
  0
LINE
  8
1
 10
13763.3887
 20
8833.39160
 11
17931.1035
 21
8416.62012
  0
LINE
  8
1
 10
17931.1035
 20
8416.62012
 11
17930.6035
 21
8411.64648
  0
LINE
  8
1
 10
17930.6035
 20
8411.64648
 11
13762.8916
 21
8828.41699
  0
LINE
  8
1
 10
13763.3887
 20
8833.39160
 11
13762.8916
 21
8828.41699
  0
LINE
  8
1
 10
13753.7373
 20
9186.10254
 11
13810.8525
 21
9180.39160
  0
LINE
  8
1
 10
13743.7871
 20
9086.59863
 11
13800.9043
 21
9080.88770
  0
LINE
  8
1
 10
13723.8867
 20
8887.59180
 11
13781.0020
 21
8881.87988
  0
LINE
  8
1
 10
13713.9355
 20
8788.08789
 11
13771.0527
 21
8782.37500
  0
LINE
  8
1
 10
13787.2686
 20
9232.99902
 11
13737.5195
 21
8735.47852
  0
LINE
  8
1
 10
13737.5195
 20
8735.47852
 11
13753.4404
 21
8733.88574
  0
LINE
  8
1
 10
13753.4404
 20
8733.88574
 11
13803.1885
 21
9231.40723
  0
LINE
  8
1
 10
13787.2686
 20
9232.99902
 11
13803.1885
 21
9231.40723
  0
LINE
  8
1
 10
17953.2891
 20
8766.14648
 11
18010.4082
 21
8760.43555
  0
LINE
  8
1
 10
17943.3418
 20
8666.64258
 11
18000.4551
 21
8660.93164
  0
LINE
  8
1
 10
17923.4414
 20
8467.63574
 11
17980.5566
 21
8461.92480
  0
LINE
  8
1
 10
17913.4883
 20
8368.13184
 11
17970.6074
 21
8362.42090
  0
LINE
  8
1
 10
17986.8242
 20
8813.04297
 11
17937.0742
 21
8315.52441
  0
LINE
  8
1
 10
17937.0742
 20
8315.52441
 11
17921.1543
 21
8317.11621
  0
LINE
  8
1
 10
17921.1543
 20
8317.11621
 11
17970.9043
 21
8814.63574
  0
LINE
  8
1
 10
17986.8242
 20
8813.04297
 11
17970.9043
 21
8814.63574
  0
LINE
  8
1
 10
13793.7373
 20
9136.87793
 11
13913.1426
 21
9124.93848
  0
LINE
  8
1
 10
13913.1426
 20
9124.93848
 11
13803.1885
 21
9231.40723
  0
LINE
  8
1
 10
13803.1885
 20
9231.40723
 11
13803.1885
 21
9231.40723
  0
LINE
  8
1
 10
13793.7373
 20
9136.87793
 11
13803.1885
 21
9231.40723
  0
LINE
  8
1
 10
13762.8916
 20
8828.41699
 11
13882.2979
 21
8816.47656
  0
LINE
  8
1
 10
13882.2979
 20
8816.47656
 11
13753.4404
 21
8733.88574
  0
LINE
  8
1
 10
13753.4404
 20
8733.88574
 11
13753.4404
 21
8733.88574
  0
LINE
  8
1
 10
13762.8916
 20
8828.41699
 11
13753.4404
 21
8733.88574
  0
LINE
  8
1
 10
17961.4531
 20
8720.10645
 11
17842.0469
 21
8732.04688
  0
LINE
  8
1
 10
17842.0469
 20
8732.04688
 11
17970.9043
 21
8814.63574
  0
LINE
  8
1
 10
17970.9043
 20
8814.63574
 11
17970.9043
 21
8814.63574
  0
LINE
  8
1
 10
17961.4531
 20
8720.10645
 11
17970.9043
 21
8814.63574
  0
LINE
  8
1
 10
17930.6035
 20
8411.64648
 11
17811.2012
 21
8423.58594
  0
LINE
  8
1
 10
17811.2012
 20
8423.58594
 11
17921.1543
 21
8317.11621
  0
LINE
  8
1
 10
17921.1543
 20
8317.11621
 11
17921.1543
 21
8317.11621
  0
LINE
  8
1
 10
17930.6035
 20
8411.64648
 11
17921.1543
 21
8317.11621
  0
LINE
  8
1
 10
17992.7949
 20
8711.94727
 11
17962.8984
 21
8412.98047
  0
LINE
  8
1
 10
17962.8984
 20
8412.98047
 11
21431.0000
 21
7965.63086
  0
LINE
  8
1
 10
21431.0000
 20
7965.63086
 11
22234.0000
 21
7965.63086
  0
LINE
  8
1
 10
22234.0000
 20
7965.63086
 11
22234.0000
 21
8287.82617
  0
LINE
  8
1
 10
17992.7949
 20
8711.94727
 11
22234.0000
 21
8287.82617
  0
LINE
  8
1
 10
21569.8047
 20
8323.54590
 11
21533.9863
 21
7965.33301
  0
LINE
  8
1
 10
21563.8359
 20
8324.14258
 11
21528.0137
 21
7965.92969
  0
LINE
  8
1
 10
21569.8047
 20
8323.54590
 11
21563.8359
 21
8324.14258
  0
LINE
  8
1
 10
21533.9863
 20
7965.33301
 11
21528.0137
 21
7965.92969
  0
LINE
  8
1
 10
17992.7949
 20
8711.94727
 11
22459.5039
 21
8265.27637
  0
LINE
  8
1
 10
22459.5039
 20
8265.27637
 11
22460.0000
 21
8270.25098
  0
LINE
  8
1
 10
22460.0000
 20
8270.25098
 11
17993.2930
 21
8716.92188
  0
LINE
  8
1
 10
17992.7949
 20
8711.94727
 11
17993.2930
 21
8716.92188
  0
LINE
  8
1
 10
22234.0000
 20
8287.32617
 11
22234.0000
 21
7965.63086
  0
LINE
  8
1
 10
22234.0000
 20
7965.63086
 11
22238.9980
 21
7965.63086
  0
LINE
  8
1
 10
22238.9980
 20
7965.63086
 11
22238.9980
 21
8287.32617
  0
LINE
  8
1
 10
22234.0000
 20
8287.32617
 11
22238.9980
 21
8287.32617
  0
LINE
  8
1
 10
22238.9980
 20
8287.32617
 11
22469.0000
 21
8264.32520
  0
LINE
  8
1
 10
22469.0000
 20
8264.32520
 11
22238.9980
 21
8172.32617
  0
LINE
  8
1
 10
17963.0410
 20
8412.96191
 11
21431.0000
 21
7965.63086
  0
LINE
  8
1
 10
21431.0000
 20
7965.63086
 11
21430.3574
 21
7960.67285
  0
LINE
  8
1
 10
21430.3574
 20
7960.67285
 11
17962.4004
 21
8408.00391
  0
LINE
  8
1
 10
17963.0410
 20
8412.96191
 11
17962.4004
 21
8408.00391
  0
LINE
  8
1
 10
17953.2891
 20
8766.14648
 11
18010.4082
 21
8760.43555
  0
LINE
  8
1
 10
17943.3418
 20
8666.64258
 11
18000.4551
 21
8660.93164
  0
LINE
  8
1
 10
17923.4414
 20
8467.63574
 11
17980.5566
 21
8461.92480
  0
LINE
  8
1
 10
17913.4883
 20
8368.13184
 11
17970.6074
 21
8362.42090
  0
LINE
  8
1
 10
17986.8242
 20
8813.04297
 11
17937.0742
 21
8315.52441
  0
LINE
  8
1
 10
17937.0742
 20
8315.52441
 11
17952.9941
 21
8313.93164
  0
LINE
  8
1
 10
17952.9941
 20
8313.93164
 11
18002.7441
 21
8811.45117
  0
LINE
  8
1
 10
17986.8242
 20
8813.04297
 11
18002.7441
 21
8811.45117
  0
LINE
  8
1
 10
22284.0000
 20
7978.33154
 11
22284.0000
 21
7920.93164
  0
LINE
  8
1
 10
22184.0000
 20
7978.33154
 11
22184.0000
 21
7920.93164
  0
LINE
  8
1
 10
21884.0000
 20
7978.33154
 11
21884.0000
 21
7920.93164
  0
LINE
  8
1
 10
21584.0000
 20
7978.33154
 11
21584.0000
 21
7920.93164
  0
LINE
  8
1
 10
21484.0020
 20
7978.33154
 11
21484.0020
 21
7920.93164
  0
LINE
  8
1
 10
22334.0000
 20
7949.63184
 11
21434.0000
 21
7949.63184
  0
LINE
  8
1
 10
21434.0000
 20
7949.63184
 11
21434.0000
 21
7965.63086
  0
LINE
  8
1
 10
21434.0000
 20
7965.63086
 11
22334.0000
 21
7965.63086
  0
LINE
  8
1
 10
22334.0000
 20
7949.63184
 11
22334.0000
 21
7965.63086
  0
LINE
  8
1
 10
17993.2930
 20
8716.92188
 11
18112.6973
 21
8704.98047
  0
LINE
  8
1
 10
18112.6973
 20
8704.98047
 11
18002.7441
 21
8811.45117
  0
LINE
  8
1
 10
18002.7441
 20
8811.45117
 11
18002.7441
 21
8811.45117
  0
LINE
  8
1
 10
17993.2930
 20
8716.92188
 11
18002.7441
 21
8811.45117
  0
LINE
  8
1
 10
17962.4004
 20
8408.00391
 11
18081.4629
 21
8392.64648
  0
LINE
  8
1
 10
18081.4629
 20
8392.64648
 11
17952.9941
 21
8313.93164
  0
LINE
  8
1
 10
17952.9941
 20
8313.93164
 11
17952.9941
 21
8313.93164
  0
LINE
  8
1
 10
17962.4004
 20
8408.00391
 11
17952.9941
 21
8313.93164
  0
LINE
  8
1
 10
22238.9980
 20
7965.63086
 11
22238.9980
 21
8085.62988
  0
LINE
  8
1
 10
22238.9980
 20
8085.62988
 11
22334.0000
 21
7965.63086
  0
LINE
  8
1
 10
22334.0000
 20
7965.63086
 11
22334.0000
 21
7965.63086
  0
LINE
  8
1
 10
22238.9980
 20
7965.63086
 11
22334.0000
 21
7965.63086
  0
LINE
  8
1
 10
22234.0000
 20
16.0000000
 11
21834.0020
 21
16.0000000
  0
LINE
  8
1
 10
21834.0020
 20
16.0000000
 11
21534.0000
 21
4250.00000
  0
LINE
  8
1
 10
21534.0000
 20
4250.00000
 11
21534.0000
 21
4250.00000
  0
LINE
  8
1
 10
21534.0000
 20
4250.00000
 11
22234.0000
 21
4250.00000
  0
LINE
  8
1
 10
22234.0000
 20
16.0000000
 11
22234.0000
 21
4250.00000
  0
LINE
  8
1
 10
22234.0000
 20
4250.00000
 11
21534.0000
 21
4250.00000
  0
LINE
  8
1
 10
21534.0000
 20
4250.00000
 11
21534.0000
 21
7933.63184
  0
LINE
  8
1
 10
21534.0000
 20
7933.63184
 11
21534.0000
 21
7933.63184
  0
LINE
  8
1
 10
21534.0000
 20
7933.63184
 11
22234.0000
 21
7933.63184
  0
LINE
  8
1
 10
22234.0000
 20
4250.00000
 11
22234.0000
 21
7933.63184
  0
LINE
  8
1
 10
22133.9980
 20
5474.00000
 11
21534.0000
 21
5474.00000
  0
LINE
  8
1
 10
22133.9980
 20
5468.00000
 11
21534.0000
 21
5468.00000
  0
LINE
  8
1
 10
22133.9980
 20
5474.00000
 11
22133.9980
 21
5468.00000
  0
LINE
  8
1
 10
21534.0000
 20
5474.00000
 11
21534.0000
 21
5468.00000
  0
LINE
  8
1
 10
22133.9980
 20
5834.00000
 11
21534.0000
 21
5834.00000
  0
LINE
  8
1
 10
22133.9980
 20
5828.00000
 11
21534.0000
 21
5828.00000
  0
LINE
  8
1
 10
22133.9980
 20
5834.00000
 11
22133.9980
 21
5828.00000
  0
LINE
  8
1
 10
21534.0000
 20
5834.00000
 11
21534.0000
 21
5828.00000
  0
LINE
  8
1
 10
22234.0000
 20
6050.00000
 11
21634.0000
 21
6050.00000
  0
LINE
  8
1
 10
22234.0000
 20
6044.00000
 11
21634.0000
 21
6044.00000
  0
LINE
  8
1
 10
22234.0000
 20
6050.00000
 11
22234.0000
 21
6044.00000
  0
LINE
  8
1
 10
21634.0000
 20
6050.00000
 11
21634.0000
 21
6044.00000
  0
LINE
  8
1
 10
22234.0000
 20
16.0000000
 11
22234.0000
 21
7933.63184
  0
LINE
  8
1
 10
22234.0000
 20
7933.63184
 11
22240.0000
 21
7933.63184
  0
LINE
  8
1
 10
22240.0000
 20
7933.63184
 11
22240.0000
 21
16.0000000
  0
LINE
  8
1
 10
22234.0000
 20
16.0000000
 11
22240.0000
 21
16.0000000
  0
LINE
  8
1
 10
21833.9707
 20
16.4239979
 11
21534.0000
 21
4250.00000
  0
LINE
  8
1
 10
21534.0000
 20
4250.00000
 11
21528.0137
 21
4249.57617
  0
LINE
  8
1
 10
21528.0137
 20
4249.57617
 11
21827.9844
 21
16.0000000
  0
LINE
  8
1
 10
21833.9707
 20
16.4239979
 11
21827.9844
 21
16.0000000
  0
LINE
  8
1
 10
21534.0000
 20
4250.00000
 11
21534.0000
 21
7933.63184
  0
LINE
  8
1
 10
21534.0000
 20
7933.63184
 11
21528.0000
 21
7933.63184
  0
LINE
  8
1
 10
21528.0000
 20
7933.63184
 11
21528.0000
 21
4250.00000
  0
LINE
  8
1
 10
21534.0000
 20
4250.00000
 11
21528.0000
 21
4250.00000
  0
LINE
  8
1
 10
22311.9980
 20
28.7000008
 11
22311.9980
 21
-28.700001
  0
LINE
  8
1
 10
22161.9980
 20
28.7000008
 11
22161.9980
 21
-28.700001
  0
LINE
  8
1
 10
21907.1270
 20
28.7000008
 11
21907.1270
 21
-28.700001
  0
LINE
  8
1
 10
21757.1250
 20
28.7000008
 11
21757.1250
 21
-28.700001
  0
LINE
  8
1
 10
22387.0000
 20
0.00000000
 11
21682.1250
 21
0.00000000
  0
LINE
  8
1
 10
21682.1250
 20
0.00000000
 11
21682.1250
 21
16.0000000
  0
LINE
  8
1
 10
21682.1250
 20
16.0000000
 11
22387.0000
 21
16.0000000
  0
LINE
  8
1
 10
22387.0000
 20
0.00000000
 11
22387.0000
 21
16.0000000
  0
LINE
  8
1
 10
22284.0000
 20
7978.33154
 11
22284.0000
 21
7920.93164
  0
LINE
  8
1
 10
22184.0000
 20
7978.33154
 11
22184.0000
 21
7920.93164
  0
LINE
  8
1
 10
21884.0000
 20
7978.33154
 11
21884.0000
 21
7920.93164
  0
LINE
  8
1
 10
21584.0000
 20
7978.33154
 11
21584.0000
 21
7920.93164
  0
LINE
  8
1
 10
21484.0020
 20
7978.33154
 11
21484.0020
 21
7920.93164
  0
LINE
  8
1
 10
22334.0000
 20
7949.63184
 11
21434.0000
 21
7949.63184
  0
LINE
  8
1
 10
21434.0000
 20
7949.63184
 11
21434.0000
 21
7933.63184
  0
LINE
  8
1
 10
21434.0000
 20
7933.63184
 11
22334.0000
 21
7933.63184
  0
LINE
  8
1
 10
22334.0000
 20
7949.63184
 11
22334.0000
 21
7933.63184
  0
LINE
  8
1
 10
22240.0000
 20
16.0000000
 11
22240.0000
 21
213.000000
  0
LINE
  8
1
 10
22240.0000
 20
213.000000
 11
22387.0000
 21
66.0000000
  0
LINE
  8
1
 10
22387.0000
 20
66.0000000
 11
22387.0000
 21
16.0000000
  0
LINE
  8
1
 10
22240.0000
 20
16.0000000
 11
22387.0000
 21
16.0000000
  0
LINE
  8
1
 10
21827.9844
 20
16.0000000
 11
21814.1074
 21
211.858002
  0
LINE
  8
1
 10
21814.1074
 20
211.858002
 11
21682.1250
 21
66.0000000
  0
LINE
  8
1
 10
21682.1250
 20
66.0000000
 11
21682.1250
 21
16.0000000
  0
LINE
  8
1
 10
21827.9844
 20
16.0000000
 11
21682.1250
 21
16.0000000
  0
LINE
  8
1
 10
22240.0000
 20
7933.63184
 11
22240.0000
 21
7813.63135
  0
LINE
  8
1
 10
22240.0000
 20
7813.63135
 11
22334.0000
 21
7933.63184
  0
LINE
  8
1
 10
22334.0000
 20
7933.63184
 11
22334.0000
 21
7933.63184
  0
LINE
  8
1
 10
22240.0000
 20
7933.63184
 11
22334.0000
 21
7933.63184
  0
LINE
  8
1
 10
21528.0000
 20
7933.63184
 11
21528.0000
 21
7813.63135
  0
LINE
  8
1
 10
21528.0000
 20
7813.63135
 11
21434.0000
 21
7933.63184
  0
LINE
  8
1
 10
21434.0000
 20
7933.63184
 11
21434.0000
 21
7933.63184
  0
LINE
  8
1
 10
21528.0000
 20
7933.63184
 11
21434.0000
 21
7933.63184
  0
LINE
  8
1
 10
11135.0000
 20
0.00000000
 11
11334.9990
 21
0.00000000
  0
LINE
  8
1
 10
11135.0000
 20
16.0000000
 11
11334.9990
 21
16.0000000
  0
LINE
  8
1
 10
11135.0000
 20
0.00000000
 11
11135.0000
 21
16.0000000
  0
LINE
  8
1
 10
11334.9990
 20
0.00000000
 11
11334.9990
 21
16.0000000
  0
LINE
  8
1
 10
11185.0000
 20
25.3999996
 11
11185.0000
 21
-25.400000
  0
LINE
  8
1
 10
11285.0000
 20
25.3999996
 11
11285.0000
 21
-25.400000
  0
LINE
  8
1
 10
941.999939
 20
5834.00000
 11
1400.00000
 21
5834.00000
  0
LINE
  8
1
 10
941.999939
 20
5825.99951
 11
1400.00000
 21
5825.99951
  0
LINE
  8
1
 10
1400.00000
 20
5834.00000
 11
1400.00000
 21
5468.00000
  0
LINE
  8
1
 10
1400.00000
 20
5468.00000
 11
941.999939
 21
5468.00000
  0
LINE
  8
1
 10
1400.00000
 20
5476.00000
 11
941.999939
 21
5476.00000
  0
LINE
  8
1
 10
21528.0000
 20
5834.00000
 11
21069.9980
 21
5834.00000
  0
LINE
  8
1
 10
21528.0000
 20
5825.99951
 11
21069.9980
 21
5825.99951
  0
LINE
  8
1
 10
21069.9980
 20
5834.00000
 11
21069.9980
 21
5468.00000
  0
LINE
  8
1
 10
21069.9980
 20
5468.00000
 11
21528.0000
 21
5468.00000
  0
LINE
  8
1
 10
21069.9980
 20
5476.00000
 11
21528.0000
 21
5476.00000
  0
LINE
  8
1
 10
336.000000
 20
5474.00000
 11
936.000000
 21
5474.00000
  0
LINE
  8
1
 10
336.000000
 20
5468.00000
 11
936.000000
 21
5468.00000
  0
LINE
  8
1
 10
336.000000
 20
5474.00000
 11
336.000000
 21
5468.00000
  0
LINE
  8
1
 10
936.000000
 20
5474.00000
 11
936.000000
 21
5468.00000
  0
LINE
  8
1
 10
336.000000
 20
5834.00000
 11
936.000000
 21
5834.00000
  0
LINE
  8
1
 10
336.000000
 20
5828.00000
 11
936.000000
 21
5828.00000
  0
LINE
  8
1
 10
336.000000
 20
5834.00000
 11
336.000000
 21
5828.00000
  0
LINE
  8
1
 10
936.000000
 20
5834.00000
 11
936.000000
 21
5828.00000
  0
LINE
  8
1
 10
236.000000
 20
6050.00000
 11
836.000000
 21
6050.00000
  0
LINE
  8
1
 10
236.000000
 20
6044.00000
 11
836.000000
 21
6044.00000
  0
LINE
  8
1
 10
236.000000
 20
6050.00000
 11
236.000000
 21
6044.00000
  0
LINE
  8
1
 10
836.000000
 20
6050.00000
 11
836.000000
 21
6044.00000
  0
LINE
  8
1
 10
906.162964
 20
8324.14258
 11
941.984924
 21
7965.92969
  0
LINE
  8
1
 10
900.193054
 20
8323.54590
 11
936.015015
 21
7965.33301
  0
LINE
  8
1
 10
906.162964
 20
8324.14258
 11
900.193054
 21
8323.54590
  0
LINE
  8
1
 10
941.984924
 20
7965.92969
 11
936.015015
 21
7965.33301
  0
LINE
  8
1
 10
11238.0000
 20
9284.98047
 11
11238.0000
 21
8834.97949
  0
LINE
  8
1
 10
11232.0000
 20
9284.98047
 11
11232.0000
 21
8834.97949
  0
LINE
  8
1
 10
11238.0000
 20
9284.98047
 11
11232.0000
 21
9284.98047
  0
LINE
  8
1
 10
11238.0000
 20
8834.97949
 11
11232.0000
 21
8834.97949
  0
LINE
  8
1
 10
21569.8047
 20
8323.54590
 11
21533.9863
 21
7965.33301
  0
LINE
  8
1
 10
21563.8359
 20
8324.14258
 11
21528.0137
 21
7965.92969
  0
LINE
  8
1
 10
21569.8047
 20
8323.54590
 11
21563.8359
 21
8324.14258
  0
LINE
  8
1
 10
21533.9863
 20
7965.33301
 11
21528.0137
 21
7965.92969
  0
LINE
  8
1
 10
22133.9980
 20
5474.00000
 11
21534.0000
 21
5474.00000
  0
LINE
  8
1
 10
22133.9980
 20
5468.00000
 11
21534.0000
 21
5468.00000
  0
LINE
  8
1
 10
22133.9980
 20
5474.00000
 11
22133.9980
 21
5468.00000
  0
LINE
  8
1
 10
21534.0000
 20
5474.00000
 11
21534.0000
 21
5468.00000
  0
LINE
  8
1
 10
22133.9980
 20
5834.00000
 11
21534.0000
 21
5834.00000
  0
LINE
  8
1
 10
22133.9980
 20
5828.00000
 11
21534.0000
 21
5828.00000
  0
LINE
  8
1
 10
22133.9980
 20
5834.00000
 11
22133.9980
 21
5828.00000
  0
LINE
  8
1
 10
21534.0000
 20
5834.00000
 11
21534.0000
 21
5828.00000
  0
LINE
  8
1
 10
22234.0000
 20
6050.00000
 11
21634.0000
 21
6050.00000
  0
LINE
  8
1
 10
22234.0000
 20
6044.00000
 11
21634.0000
 21
6044.00000
  0
LINE
  8
1
 10
22234.0000
 20
6050.00000
 11
22234.0000
 21
6044.00000
  0
LINE
  8
1
 10
21634.0000
 20
6050.00000
 11
21634.0000
 21
6044.00000
  0
LINE
  8
2
 10
11000.5908
 20
0.00000000
 11
11469.4102
 21
0.00000000
  0
LINE
  8
2
 10
11000.5908
 20
-56.258297
 11
11056.8486
 21
0.00000000
  0
LINE
  8
2
 10
11056.8486
 20
-56.258297
 11
11113.1074
 21
0.00000000
  0
LINE
  8
2
 10
11113.1074
 20
-56.258297
 11
11169.3662
 21
0.00000000
  0
LINE
  8
2
 10
11169.3662
 20
-56.258297
 11
11225.6250
 21
0.00000000
  0
LINE
  8
2
 10
11225.6250
 20
-56.258297
 11
11281.8828
 21
0.00000000
  0
LINE
  8
2
 10
11281.8828
 20
-56.258297
 11
11338.1416
 21
0.00000000
  0
LINE
  8
2
 10
11338.1416
 20
-56.258297
 11
11394.4004
 21
0.00000000
  0
LINE
  8
2
 10
11394.4004
 20
-56.258297
 11
11450.6592
 21
0.00000000
  0
LINE
  8
4
 10
11235.0000
 20
38.0999985
 11
11235.0000
 21
8725.84375
  0
TEXT
  8
3
 7
SIMPLEX
 10
1239.15967
 20
7574.16309
 40
117.204788
  1
SP1
 50
90.0000000
  0
TEXT
  8
3
 7
SIMPLEX
 10
4711.52002
 20
7935.69775
 40
117.204788
  1
SP2
 50
90.0000000
  0
TEXT
  8
3
 7
SIMPLEX
 10
8735.26758
 20
8355.65234
 40
117.204788
  1
SP2
 50
90.0000000
  0
TEXT
  8
3
 7
SIMPLEX
 10
13734.6973
 20
8355.65625
 40
117.204788
  1
SP2
 50
90.0000000
  0
TEXT
  8
3
 7
SIMPLEX
 10
17904.9512
 20
7935.70068
 40
117.204788
  1
SP2
 50
90.0000000
  0
TEXT
  8
3
 7
SIMPLEX
 10
21377.3496
 20
7574.16309
 40
117.204788
  1
SP1
 50
90.0000000
  0
TEXT
  8
3
 7
SIMPLEX
 10
293.768982
 20
-212.52744
 40
117.204788
  1
BP1
 50
0.00000000
  0
TEXT
  8
3
 7
SIMPLEX
 10
21824.6992
 20
-212.52744
 40
117.204788
  1
BP1
 50
0.00000000
  0
TEXT
  8
3
 7
SIMPLEX
 10
11059.1934
 20
-212.52744
 40
117.204788
  1
BP2
 50
0.00000000
  0
INSERT
  8
10
  2
ZCOL
 10
1380.11169
 20
8426.40820
 41
-8.0000000
 42
-4.4055119
 43
-4.4055119
 50
5.71059464
  0
INSERT
  8
10
  2
ZCOL
 10
2747.19336
 20
8563.11719
 41
-8.0000000
 42
-4.4055119
 43
-4.4055119
 50
5.71059464
  0
INSERT
  8
10
  2
ZCOL
 10
4114.17529
 20
8699.81445
 41
-8.0000000
 42
-4.4055119
 43
-4.4055119
 50
5.71059464
  0
INSERT
  8
10
  2
ZCOL
 10
5481.25684
 20
8836.52344
 41
-8.0000000
 42
-4.4055119
 43
-4.4055119
 50
5.71059464
  0
INSERT
  8
10
  2
ZCOL
 10
6848.33838
 20
8973.23145
 41
-8.0000000
 42
-4.4055119
 43
-4.4055119
 50
5.71059464
  0
INSERT
  8
10
  2
ZCOL
 10
8215.41992
 20
9109.93945
 41
-8.0000000
 42
-4.4055119
 43
-4.4055119
 50
5.71059464
  0
INSERT
  8
10
  2
ZCOL
 10
9582.50293
 20
9246.64746
 41
-8.0000000
 42
-4.4055119
 43
-4.4055119
 50
5.71059464
  0
INSERT
  8
10
  2
ZCOL
 10
10949.4844
 20
9383.34570
 41
-8.0000000
 42
-4.4055119
 43
-4.4055119
 50
5.71059464
  0
LINE
  8
1
 10
1398.14172
 20
8503.10352
 11
1448.87622
 21
7995.75635
  0
INSERT
  8
3
  2
MARKER
 10
1361.99268
 20
8607.59766
 41
1.00000000
 42
1.00000000
 43
1.00000000
 50
5.71059464
  0
TEXT
  8
3
 7
SIMPLEX
 10
961.508728
 20
8784.28223
 40
117.204788
  1
FB528A(1)
 50
5.71059464
  0
LINE
  8
1
 10
4132.20557
 20
8776.50879
 11
4176.04346
 21
8338.12598
  0
INSERT
  8
3
  2
MARKER
 10
4096.05664
 20
8881.00391
 41
1.00000000
 42
1.00000000
 43
1.00000000
 50
5.71059464
  0
TEXT
  8
3
 7
SIMPLEX
 10
3578.94922
 20
9046.02637
 40
117.204788
  1
FB464A(1)
 50
5.71059464
  0
LINE
  8
1
 10
6866.36816
 20
9049.92578
 11
6909.32080
 21
8620.39648
  0
INSERT
  8
3
  2
MARKER
 10
6830.21973
 20
9154.42090
 41
1.00000000
 42
1.00000000
 43
1.00000000
 50
5.71059464
  0
TEXT
  8
3
 7
SIMPLEX
 10
6313.11279
 20
9319.44238
 40
117.204788
  1
FB456A(1)
 50
5.71059464
  0
LINE
  8
1
 10
9600.53223
 20
9323.34277
 11
9652.66211
 21
8802.04395
  0
INSERT
  8
3
  2
MARKER
 10
9564.38379
 20
9427.83789
 41
1.00000000
 42
1.00000000
 43
1.00000000
 50
5.71059464
  0
TEXT
  8
3
 7
SIMPLEX
 10
9047.27734
 20
9592.85938
 40
117.204788
  1
FB528A(1)
 50
5.71059464
  0
LINE
  8
1
 10
10967.5137
 20
9460.04004
 11
11033.3145
 21
8802.04395
  0
INSERT
  8
3
  2
MARKER
 10
10931.3652
 20
9564.53516
 41
1.00000000
 42
1.00000000
 43
1.00000000
 50
5.71059464
  0
TEXT
  8
3
 7
SIMPLEX
 10
10297.6357
 20
9717.89551
 40
117.204788
  1
FB848A(1)
 50
5.71059464
  0
INSERT
  8
10
  2
ZCOL
 10
11520.4814
 20
9383.34961
 41
8.00000000
 42
-4.4055119
 43
-4.4055119
 50
-5.7105947
  0
INSERT
  8
10
  2
ZCOL
 10
12887.5625
 20
9246.64063
 41
8.00000000
 42
-4.4055119
 43
-4.4055119
 50
-5.7105947
  0
INSERT
  8
10
  2
ZCOL
 10
14254.6445
 20
9109.93262
 41
8.00000000
 42
-4.4055119
 43
-4.4055119
 50
-5.7105947
  0
INSERT
  8
10
  2
ZCOL
 10
15621.6260
 20
8973.23438
 41
8.00000000
 42
-4.4055119
 43
-4.4055119
 50
-5.7105947
  0
INSERT
  8
10
  2
ZCOL
 10
16988.7090
 20
8836.52637
 41
8.00000000
 42
-4.4055119
 43
-4.4055119
 50
-5.7105947
  0
INSERT
  8
10
  2
ZCOL
 10
18355.7891
 20
8699.81836
 41
8.00000000
 42
-4.4055119
 43
-4.4055119
 50
-5.7105947
  0
INSERT
  8
10
  2
ZCOL
 10
19722.8711
 20
8563.11035
 41
8.00000000
 42
-4.4055119
 43
-4.4055119
 50
-5.7105947
  0
INSERT
  8
10
  2
ZCOL
 10
21089.9531
 20
8426.40137
 41
8.00000000
 42
-4.4055119
 43
-4.4055119
 50
-5.7105947
  0
LINE
  8
1
 10
11502.4512
 20
9460.04395
 11
11436.6514
 21
8802.04395
  0
INSERT
  8
3
  2
MARKER
 10
11538.6006
 20
9564.53906
 41
1.00000000
 42
1.00000000
 43
1.00000000
 50
-5.7105947
  0
TEXT
  8
3
 7
SIMPLEX
 10
11181.0332
 20
9817.02832
 40
117.204788
  1
FB848A(1)
 50
-5.7105947
  0
LINE
  8
1
 10
12869.5332
 20
9323.33594
 11
12817.4033
 21
8802.04590
  0
INSERT
  8
3
  2
MARKER
 10
12905.6816
 20
9427.83105
 41
1.00000000
 42
1.00000000
 43
1.00000000
 50
-5.7105947
  0
TEXT
  8
3
 7
SIMPLEX
 10
12431.4922
 20
9691.98242
 40
117.204788
  1
FB528A(1)
 50
-5.7105947
  0
LINE
  8
1
 10
15603.5947
 20
9049.92969
 11
15560.6436
 21
8620.40039
  0
INSERT
  8
3
  2
MARKER
 10
15639.7451
 20
9154.42383
 41
1.00000000
 42
1.00000000
 43
1.00000000
 50
-5.7105947
  0
TEXT
  8
3
 7
SIMPLEX
 10
15165.5566
 20
9418.57617
 40
117.204788
  1
FB456A(1)
 50
-5.7105947
  0
LINE
  8
1
 10
18337.7598
 20
8776.51270
 11
18293.9219
 21
8338.12891
  0
INSERT
  8
3
  2
MARKER
 10
18373.9102
 20
8881.00781
 41
1.00000000
 42
1.00000000
 43
1.00000000
 50
-5.7105947
  0
TEXT
  8
3
 7
SIMPLEX
 10
17899.7188
 20
9145.16016
 40
117.204788
  1
FB464A(1)
 50
-5.7105947
  0
LINE
  8
1
 10
21071.9219
 20
8503.09668
 11
21021.1875
 21
7995.74805
  0
INSERT
  8
3
  2
MARKER
 10
21108.0723
 20
8607.59180
 41
1.00000000
 42
1.00000000
 43
1.00000000
 50
-5.7105947
  0
TEXT
  8
3
 7
SIMPLEX
 10
20517.2598
 20
8883.40527
 40
117.204788
  1
FB528A(1)
 50
-5.7105947
  0
INSERT
  8
10
  2
ZCOL
 10
180.950806
 20
2580.00000
 41
8.00000000
 42
-6.3740158
 43
-6.3740158
 50
89.9999847
  0
INSERT
  8
10
  2
ZCOL
 10
180.951279
 20
4080.00024
 41
8.00000000
 42
-6.3740158
 43
-6.3740158
 50
89.9999847
  0
INSERT
  8
10
  2
ZCOL
 10
180.951736
 20
5580.00000
 41
8.00000000
 42
-6.3740158
 43
-6.3740158
 50
89.9999847
  0
INSERT
  8
10
  2
ZCOL
 10
180.952225
 20
7080.00049
 41
8.00000000
 42
-6.3740158
 43
-6.3740158
 50
89.9999847
  0
LINE
  8
1
 10
80.4308090
 20
2554.42822
 11
858.919434
 21
2554.42773
  0
INSERT
  8
3
  2
MARKER
 10
-51.143093
 20
2580.00000
 41
1.00000000
 42
1.00000000
 43
1.00000000
 50
89.9999847
  0
TEXT
  8
3
 7
SIMPLEX
 10
-266.80005
 20
2199.08447
 40
117.204788
  1
FB920A(1)
 50
89.9999847
  0
INSERT
  8
10
  2
ZCOL
 10
22289.0488
 20
2580.00000
 41
-8.0000000
 42
-6.3740158
 43
-6.3740158
 50
-89.999985
  0
INSERT
  8
10
  2
ZCOL
 10
22289.0488
 20
4080.00024
 41
-8.0000000
 42
-6.3740158
 43
-6.3740158
 50
-89.999985
  0
INSERT
  8
10
  2
ZCOL
 10
22289.0488
 20
5580.00000
 41
-8.0000000
 42
-6.3740158
 43
-6.3740158
 50
-89.999985
  0
INSERT
  8
10
  2
ZCOL
 10
22289.0488
 20
7080.00049
 41
-8.0000000
 42
-6.3740158
 43
-6.3740158
 50
-89.999985
  0
LINE
  8
1
 10
22389.5723
 20
2554.42773
 11
21621.5879
 21
2554.42773
  0
INSERT
  8
3
  2
MARKER
 10
22521.1426
 20
2580.00000
 41
1.00000000
 42
1.00000000
 43
1.00000000
 50
-89.999985
  0
TEXT
  8
3
 7
SIMPLEX
 10
22854.0039
 20
2199.08472
 40
117.204788
  1
FB920A(1)
 50
90.0000153
  0
TEXT
  8
3
 7
SIMPLEX
 10
989.941772
 20
1699.12427
 40
117.204788
  1
 CL1-6
 50
85.7278595
  0
TEXT
  8
3
 7
SIMPLEX
 10
2472.00098
 20
7928.29932
 40
117.204788
  1
 RF1-2
 50
7.15550613
  0
TEXT
  8
3
 7
SIMPLEX
 10
6330.47021
 20
8367.16992
 40
117.204788
  1
 RF1-3
 50
5.71058608
  0
TEXT
  8
3
 7
SIMPLEX
 10
9642.13867
 20
8607.67285
 40
117.204788
  1
 RF1-4
 50
0.00008850
  0
TEXT
  8
3
 7
SIMPLEX
 10
15509.7275
 20
8430.14941
 40
117.204788
  1
 RF1-3
 50
-5.7105975
  0
TEXT
  8
3
 7
SIMPLEX
 10
19370.0059
 20
8007.13770
 40
117.204788
  1
 RF1-2
 50
-7.1554866
  0
TEXT
  8
3
 7
SIMPLEX
 10
21595.7188
 20
1824.96021
 40
117.204788
  1
 CL1-7
 50
94.0375443
  0
TEXT
  8
3
 7
SIMPLEX
 10
11112.8994
 20
4186.45068
 40
117.204788
  1
EC-2
 50
89.9999847
  0
INSERT
  8
10
  2
ZCOL
 10
122.844048
 20
8290.42676
 41
8.00000000
 42
-4.4054980
 43
-4.4054980
 50
5.71059464
  0
INSERT
  8
10
  2
ZCOL
 10
22347.1543
 20
8290.42676
 41
-8.0000000
 42
-4.4055009
 43
-4.4055009
 50
-5.7105947
  0
LINE
  8
2
 10
230.000015
 20
0.00000000
 11
902.509644
 21
0.00000000
  0
LINE
  8
2
 10
230.000015
 20
-56.258297
 11
286.258301
 21
0.00000000
  0
LINE
  8
2
 10
286.258301
 20
-56.258297
 11
342.516602
 21
0.00000000
  0
LINE
  8
2
 10
342.516602
 20
-56.258297
 11
398.774872
 21
0.00000000
  0
LINE
  8
2
 10
398.774872
 20
-56.258297
 11
455.033173
 21
0.00000000
  0
LINE
  8
2
 10
455.033173
 20
-56.258297
 11
511.291443
 21
0.00000000
  0
LINE
  8
2
 10
511.291443
 20
-56.258297
 11
567.549744
 21
0.00000000
  0
LINE
  8
2
 10
567.549744
 20
-56.258297
 11
623.808044
 21
0.00000000
  0
LINE
  8
2
 10
623.808044
 20
-56.258297
 11
680.066345
 21
0.00000000
  0
LINE
  8
2
 10
680.066345
 20
-56.258297
 11
736.324646
 21
0.00000000
  0
LINE
  8
2
 10
736.324646
 20
-56.258297
 11
792.582886
 21
0.00000000
  0
LINE
  8
2
 10
792.582886
 20
-56.258297
 11
848.841187
 21
0.00000000
  0
LINE
  8
2
 10
21567.4902
 20
0.00000000
 11
22240.0020
 21
0.00000000
  0
LINE
  8
2
 10
21567.4902
 20
-56.258297
 11
21623.7500
 21
0.00000000
  0
LINE
  8
2
 10
21623.7500
 20
-56.258297
 11
21680.0078
 21
0.00000000
  0
LINE
  8
2
 10
21680.0078
 20
-56.258297
 11
21736.2676
 21
0.00000000
  0
LINE
  8
2
 10
21736.2676
 20
-56.258297
 11
21792.5254
 21
0.00000000
  0
LINE
  8
2
 10
21792.5254
 20
-56.258297
 11
21848.7832
 21
0.00000000
  0
LINE
  8
2
 10
21848.7832
 20
-56.258297
 11
21905.0430
 21
0.00000000
  0
LINE
  8
2
 10
21905.0430
 20
-56.258297
 11
21961.3008
 21
0.00000000
  0
LINE
  8
2
 10
21961.3008
 20
-56.258297
 11
22017.5605
 21
0.00000000
  0
LINE
  8
2
 10
22017.5605
 20
-56.258297
 11
22073.8184
 21
0.00000000
  0
LINE
  8
2
 10
22073.8184
 20
-56.258297
 11
22130.0762
 21
0.00000000
  0
LINE
  8
2
 10
22130.0762
 20
-56.258297
 11
22186.3359
 21
0.00000000
  0
LINE
  8
2
 10
0.00000000
 20
0.00000000
 11
22470.0000
 21
0.00000000
  0
LINE
  8
12
 10
1296.01794
 20
0.00000000
 11
1671.07312
 21
0.00000000
  0
LINE
  8
12
 10
1296.01794
 20
7960.70020
 11
1671.07312
 21
7960.70020
  0
LINE
  8
2
 10
1568.78540
 20
0.00000000
 11
1568.78540
 21
7960.70020
  0
INSERT
  8
2
  2
ARROWF
 10
1568.78540
 20
7960.70020
 41
1.00000000
 42
1.00000000
 43
1.00000000
 50
90.0000000
  0
INSERT
  8
2
  2
ARROWF
 10
1568.78540
 20
0.00000000
 41
1.00000000
 42
1.00000000
 43
1.00000000
 50
-90.000000
  0
TEXT
  8
11
 7
SIMPLEX
 10
1539.48438
 20
3775.24170
 40
117.204788
  1
7961
 50
90.0000000
  0
TEXT
  8
11
 7
SIMPLEX
 10
1715.29138
 20
3458.78882
 40
117.204788
  1
CLEAR +/-
 50
90.0000000
  0
LINE
  8
12
 10
21173.9824
 20
0.00000000
 11
20798.9277
 21
0.00000000
  0
LINE
  8
12
 10
21173.9824
 20
7960.70020
 11
20798.9277
 21
7960.70020
  0
LINE
  8
2
 10
20901.2168
 20
0.00000000
 11
20901.2168
 21
7960.70020
  0
INSERT
  8
2
  2
ARROWF
 10
20901.2168
 20
7960.70020
 41
1.00000000
 42
1.00000000
 43
1.00000000
 50
90.0000000
  0
INSERT
  8
2
  2
ARROWF
 10
20901.2168
 20
0.00000000
 41
1.00000000
 42
1.00000000
 43
1.00000000
 50
-90.000000
  0
TEXT
  8
11
 7
SIMPLEX
 10
20871.9160
 20
3775.24170
 40
117.204788
  1
7961
 50
90.0000000
  0
TEXT
  8
11
 7
SIMPLEX
 10
21047.7227
 20
3458.78882
 40
117.204788
  1
CLEAR +/-
 50
90.0000000
  0
LINE
  8
12
 10
10561.6045
 20
0.00000000
 11
10092.7852
 21
0.00000000
  0
LINE
  8
12
 10
10561.6045
 20
8830.00000
 11
10092.7852
 21
8830.00000
  0
LINE
  8
2
 10
10297.3613
 20
0.00000000
 11
10297.3613
 21
8830.00000
  0
INSERT
  8
2
  2
ARROWF
 10
10297.3613
 20
8830.00000
 41
1.00000000
 42
1.00000000
 43
1.00000000
 50
90.0000000
  0
INSERT
  8
2
  2
ARROWF
 10
10297.3613
 20
0.00000000
 41
1.00000000
 42
1.00000000
 43
1.00000000
 50
-90.000000
  0
TEXT
  8
11
 7
SIMPLEX
 10
10268.0596
 20
4180.59033
 40
117.204788
  1
8830
 50
90.0000000
  0
TEXT
  8
11
 7
SIMPLEX
 10
10443.8672
 20
3893.43872
 40
117.204788
  1
CLEAR +/-
 50
90.0000000
  0
LINE
  8
12
 10
230.000015
 20
-204.57562
 11
230.000015
 21
-673.39471
  0
LINE
  8
12
 10
968.102417
 20
-204.57562
 11
968.102417
 21
-673.39471
  0
LINE
  8
2
 10
230.000015
 20
-617.13647
 11
968.102417
 21
-617.13647
  0
INSERT
  8
2
  2
ARROWF
 10
968.102417
 20
-617.13647
 41
1.00000000
 42
1.00000000
 43
1.00000000
 50
0.00000000
  0
INSERT
  8
2
  2
ARROWF
 10
230.000015
 20
-617.13647
 41
1.00000000
 42
1.00000000
 43
1.00000000
 50
180.000000
  0
TEXT
  8
11
 7
SIMPLEX
 10
997.403626
 20
-578.06818
 40
117.204788
  1
712
 50
0.00000000
  0
LINE
  8
12
 10
21501.9004
 20
-204.57562
 11
21501.9004
 21
-673.39471
  0
LINE
  8
12
 10
22240.0000
 20
-204.57562
 11
22240.0000
 21
-673.39471
  0
LINE
  8
2
 10
22240.0000
 20
-617.13647
 11
21501.9004
 21
-617.13647
  0
INSERT
  8
2
  2
ARROWF
 10
21501.9004
 20
-617.13647
 41
1.00000000
 42
1.00000000
 43
1.00000000
 50
180.000000
  0
INSERT
  8
2
  2
ARROWF
 10
22240.0000
 20
-617.13647
 41
1.00000000
 42
1.00000000
 43
1.00000000
 50
0.00000000
  0
TEXT
  8
11
 7
SIMPLEX
 10
21062.3828
 20
-578.06818
 40
117.204788
  1
712
 50
0.00000000
  0
LINE
  8
12
 10
968.102417
 20
-204.57562
 11
968.102417
 21
-673.39471
  0
LINE
  8
12
 10
11235.0000
 20
-204.57562
 11
11235.0000
 21
-673.39471
  0
LINE
  8
2
 10
968.102417
 20
-617.13647
 11
11235.0000
 21
-617.13647
  0
INSERT
  8
2
  2
ARROWF
 10
968.102417
 20
-617.13647
 41
1.00000000
 42
1.00000000
 43
1.00000000
 50
180.000000
  0
INSERT
  8
2
  2
ARROWF
 10
11235.0000
 20
-617.13647
 41
1.00000000
 42
1.00000000
 43
1.00000000
 50
0.00000000
  0
TEXT
  8
11
 7
SIMPLEX
 10
5837.84082
 20
-578.06818
 40
117.204788
  1
10293
 50
0.00000000
  0
TEXT
  8
11
 7
SIMPLEX
 10
5579.98975
 20
-773.40558
 40
117.204788
  1
CLEAR +/-
 50
0.00000000
  0
LINE
  8
12
 10
11235.0000
 20
-204.57562
 11
11235.0000
 21
-673.39471
  0
LINE
  8
12
 10
21501.9004
 20
-204.57562
 11
21501.9004
 21
-673.39471
  0
LINE
  8
2
 10
11235.0000
 20
-617.13647
 11
21501.9004
 21
-617.13647
  0
INSERT
  8
2
  2
ARROWF
 10
11235.0000
 20
-617.13647
 41
1.00000000
 42
1.00000000
 43
1.00000000
 50
180.000000
  0
INSERT
  8
2
  2
ARROWF
 10
21501.9004
 20
-617.13647
 41
1.00000000
 42
1.00000000
 43
1.00000000
 50
0.00000000
  0
TEXT
  8
11
 7
SIMPLEX
 10
16104.7393
 20
-578.06818
 40
117.204788
  1
10293
 50
0.00000000
  0
TEXT
  8
11
 7
SIMPLEX
 10
15846.8877
 20
-773.40558
 40
117.204788
  1
CLEAR +/-
 50
0.00000000
  0
LINE
  8
12
 10
0.00000000
 20
-321.78040
 11
0.00000000
 21
-1784.4960
  0
CIRCLE
  8
13
 10
0.00000000
 20
-2065.7876
 40
140.645737
  0
TEXT
  8
13
 7
SIMPLEX
 10
-63.290588
 20
-2129.0781
 40
126.581177
  1
C
 72
           1
 11
0.00000000
 21
-2065.7876
 73
           2
 50
   0.000
  0
LINE
  8
12
 10
0.00000000
 20
-1925.1420
 11
0.00000000
 21
-617.13647
  0
LINE
  8
12
 10
22470.0000
 20
-321.78040
 11
22470.0000
 21
-1784.4960
  0
CIRCLE
  8
13
 10
22470.0000
 20
-2065.7876
 40
140.645737
  0
TEXT
  8
13
 7
SIMPLEX
 10
22406.7090
 20
-2129.0781
 40
126.581177
  1
A
 72
           1
 11
22470.0000
 21
-2065.7876
 73
           2
 50
   0.000
  0
LINE
  8
12
 10
22470.0000
 20
-1925.1420
 11
22470.0000
 21
-617.13647
  0
LINE
  8
2
 10
0.00000000
 20
-1728.2380
 11
22470.0000
 21
-1728.2380
  0
INSERT
  8
2
  2
ARROWF
 10
0.00000000
 20
-1728.2380
 41
1.00000000
 42
1.00000000
 43
1.00000000
 50
180.000000
  0
INSERT
  8
2
  2
ARROWF
 10
22470.0000
 20
-1728.2380
 41
1.00000000
 42
1.00000000
 43
1.00000000
 50
0.00000000
  0
TEXT
  8
11
 7
SIMPLEX
 10
9857.84375
 20
-1698.9368
 40
117.204788
  1
22470 OUT-TO-OUT OF STEEL
 50
0.00000000
  0
TEXT
  8
15
 7
SIMPLEX
 10
8257.99805
 20
-2487.7249
 40
187.527664
  1
RIGID FRAME ELEVATION: FRAME LINE 7
 72
           1
 11
11235.0000
 21
-2487.7249
 50
   0.000
  0
LINE
  8
2
 10
-175.80717
 20
-617.13647
 11
0.00000000
 21
-617.13647
  0
LINE
  8
2
 10
230.000015
 20
-617.13647
 11
405.807190
 21
-617.13647
  0
LINE
  8
12
 10
0.00000000
 20
-204.57562
 11
0.00000000
 21
-673.39471
  0
LINE
  8
12
 10
230.000015
 20
-204.57562
 11
230.000015
 21
-673.39471
  0
INSERT
  8
2
  2
ARROWF
 10
0.00000000
 20
-617.13647
 41
1.00000000
 42
1.00000000
 43
1.00000000
 50
0.00000000
  0
INSERT
  8
2
  2
ARROWF
 10
230.000015
 20
-617.13647
 41
1.00000000
 42
1.00000000
 43
1.00000000
 50
180.000000
  0
TEXT
  8
11
 7
SIMPLEX
 10
-390.68259
 20
-578.06818
 40
117.204788
  1
230
 50
0.00000000
  0
LINE
  8
2
 10
22240.0000
 20
-617.13647
 11
22064.1934
 21
-617.13647
  0
LINE
  8
2
 10
22645.8086
 20
-617.13647
 11
22470.0000
 21
-617.13647
  0
LINE
  8
12
 10
22470.0000
 20
-204.57562
 11
22470.0000
 21
-673.39471
  0
LINE
  8
12
 10
22240.0000
 20
-204.57562
 11
22240.0000
 21
-673.39471
  0
INSERT
  8
2
  2
ARROWF
 10
22470.0000
 20
-617.13647
 41
1.00000000
 42
1.00000000
 43
1.00000000
 50
180.000000
  0
INSERT
  8
2
  2
ARROWF
 10
22240.0000
 20
-617.13647
 41
1.00000000
 42
1.00000000
 43
1.00000000
 50
0.00000000
  0
TEXT
  8
11
 7
SIMPLEX
 10
22509.0684
 20
-578.06818
 40
117.204788
  1
230
 50
0.00000000
  0
CIRCLE
  8
13
 10
11235.0000
 20
-1339.1179
 40
140.645737
  0
TEXT
  8
13
 7
SIMPLEX
 10
11171.7090
 20
-1402.4086
 40
126.581177
  1
B
 72
           1
 11
11235.0000
 21
-1339.1179
 73
           2
 50
   0.000
  0
LINE
  8
12
 10
0.00000000
 20
-204.57562
 11
0.00000000
 21
-1198.4722
  0
LINE
  8
12
 10
11235.0000
 20
-673.39471
 11
11235.0000
 21
-1198.4722
  0
LINE
  8
2
 10
0.00000000
 20
-1142.2139
 11
11235.0000
 21
-1142.2139
  0
INSERT
  8
2
  2
ARROWF
 10
0.00000000
 20
-1142.2139
 41
1.00000000
 42
1.00000000
 43
1.00000000
 50
180.000000
  0
INSERT
  8
2
  2
ARROWF
 10
11235.0000
 20
-1142.2139
 41
1.00000000
 42
1.00000000
 43
1.00000000
 50
0.00000000
  0
TEXT
  8
11
 7
SIMPLEX
 10
5412.39160
 20
-1103.1456
 40
117.204788
  1
11235
 50
0.00000000
  0
LINE
  8
12
 10
22470.0000
 20
-204.57562
 11
22470.0000
 21
-1198.4722
  0
LINE
  8
2
 10
11235.0000
 20
-1142.2139
 11
22470.0000
 21
-1142.2139
  0
INSERT
  8
2
  2
ARROWF
 10
11235.0000
 20
-1142.2139
 41
1.00000000
 42
1.00000000
 43
1.00000000
 50
180.000000
  0
INSERT
  8
2
  2
ARROWF
 10
22470.0000
 20
-1142.2139
 41
1.00000000
 42
1.00000000
 43
1.00000000
 50
0.00000000
  0
TEXT
  8
11
 7
SIMPLEX
 10
16647.3906
 20
-1103.1456
 40
117.204788
  1
11235
 50
0.00000000
  0
LINE
  8
12
 10
-673.52905
 20
0.00000000
 11
-1650.2318
 21
0.00000000
  0
LINE
  8
2
 10
-1611.1674
 20
0.00000000
 11
-1611.1674
 21
8420.00000
  0
INSERT
  8
2
  2
ARROWF
 10
-1611.1674
 20
0.00000000
 41
1.00000000
 42
1.00000000
 43
1.00000000
 50
270.000000
  0
TEXT
  8
11
 7
SIMPLEX
 10
-1650.2394
 20
1055.59033
 40
117.204788
  1
2580
 50
90.0002060
  0
LINE
  8
12
 10
-673.52905
 20
2580.00000
 11
-1650.2318
 21
2580.00000
  0
INSERT
  8
2
  2
ARROWF
 10
-1611.1674
 20
2580.00000
 41
1.00000000
 42
1.00000000
 43
1.00000000
 50
90.0000000
  0
INSERT
  8
2
  2
ARROWF
 10
-1611.1674
 20
0.00000000
 41
1.00000000
 42
1.00000000
 43
1.00000000
 50
270.000000
  0
TEXT
  8
11
 7
SIMPLEX
 10
-1650.2377
 20
3124.89160
 40
117.204788
  1
1500
 50
90.0002060
  0
LINE
  8
12
 10
-673.52905
 20
4080.00024
 11
-1650.2318
 21
4080.00024
  0
INSERT
  8
2
  2
ARROWF
 10
-1611.1674
 20
4080.00024
 41
1.00000000
 42
1.00000000
 43
1.00000000
 50
90.0000000
  0
INSERT
  8
2
  2
ARROWF
 10
-1611.1674
 20
2580.00000
 41
1.00000000
 42
1.00000000
 43
1.00000000
 50
270.000000
  0
TEXT
  8
11
 7
SIMPLEX
 10
-1650.2377
 20
4624.89160
 40
117.204788
  1
1500
 50
90.0002060
  0
LINE
  8
12
 10
-673.52905
 20
5580.00000
 11
-1650.2318
 21
5580.00000
  0
INSERT
  8
2
  2
ARROWF
 10
-1611.1674
 20
5580.00000
 41
1.00000000
 42
1.00000000
 43
1.00000000
 50
90.0000000
  0
INSERT
  8
2
  2
ARROWF
 10
-1611.1674
 20
4080.00024
 41
1.00000000
 42
1.00000000
 43
1.00000000
 50
270.000000
  0
TEXT
  8
11
 7
SIMPLEX
 10
-1650.2377
 20
6124.89209
 40
117.204788
  1
1500
 50
90.0002060
  0
LINE
  8
12
 10
-673.52905
 20
7080.00049
 11
-1650.2318
 21
7080.00049
  0
INSERT
  8
2
  2
ARROWF
 10
-1611.1674
 20
7080.00049
 41
1.00000000
 42
1.00000000
 43
1.00000000
 50
90.0000000
  0
INSERT
  8
2
  2
ARROWF
 10
-1611.1674
 20
5580.00000
 41
1.00000000
 42
1.00000000
 43
1.00000000
 50
270.000000
  0
TEXT
  8
11
 7
SIMPLEX
 10
-1650.2372
 20
7544.89111
 40
117.204788
  1
1340
 50
90.0002060
  0
LINE
  8
12
 10
-673.52905
 20
8420.00000
 11
-1650.2318
 21
8420.00000
  0
INSERT
  8
2
  2
ARROWF
 10
-1611.1674
 20
8420.00000
 41
1.00000000
 42
1.00000000
 43
1.00000000
 50
90.0000000
  0
INSERT
  8
2
  2
ARROWF
 10
-1611.1674
 20
7080.00049
 41
1.00000000
 42
1.00000000
 43
1.00000000
 50
270.000000
  0
LINE
  8
12
 10
-1943.2438
 20
8420.00000
 11
-673.52905
 21
8420.00000
  0
LINE
  8
2
 10
-1904.1794
 20
0.00000000
 11
-1904.1794
 21
8420.00000
  0
TEXT
  8
11
 7
SIMPLEX
 10
-1943.2478
 20
3897.45386
 40
117.204788
  1
8420
 50
90.0002060
  0
LINE
  8
12
 10
-1943.2438
 20
0.00000000
 11
-673.52905
 21
0.00000000
  0
INSERT
  8
2
  2
ARROWF
 10
-1904.1794
 20
8420.00000
 41
1.00000000
 42
1.00000000
 43
1.00000000
 50
90.0000000
  0
INSERT
  8
2
  2
ARROWF
 10
-1904.1794
 20
0.00000000
 41
1.00000000
 42
1.00000000
 43
1.00000000
 50
270.000000
  0
LINE
  8
12
 10
23143.5293
 20
0.00000000
 11
24120.2324
 21
0.00000000
  0
LINE
  8
2
 10
24081.1680
 20
0.00000000
 11
24081.1680
 21
8420.00000
  0
INSERT
  8
2
  2
ARROWF
 10
24081.1680
 20
0.00000000
 41
1.00000000
 42
1.00000000
 43
1.00000000
 50
270.000000
  0
TEXT
  8
11
 7
SIMPLEX
 10
24042.0957
 20
1055.59033
 40
117.204788
  1
2580
 50
90.0002060
  0
LINE
  8
12
 10
23143.5293
 20
2580.00000
 11
24120.2324
 21
2580.00000
  0
INSERT
  8
2
  2
ARROWF
 10
24081.1680
 20
2580.00000
 41
1.00000000
 42
1.00000000
 43
1.00000000
 50
90.0000000
  0
INSERT
  8
2
  2
ARROWF
 10
24081.1680
 20
0.00000000
 41
1.00000000
 42
1.00000000
 43
1.00000000
 50
270.000000
  0
TEXT
  8
11
 7
SIMPLEX
 10
24042.0977
 20
3124.89160
 40
117.204788
  1
1500
 50
90.0002060
  0
LINE
  8
12
 10
23143.5293
 20
4080.00024
 11
24120.2324
 21
4080.00024
  0
INSERT
  8
2
  2
ARROWF
 10
24081.1680
 20
4080.00024
 41
1.00000000
 42
1.00000000
 43
1.00000000
 50
90.0000000
  0
INSERT
  8
2
  2
ARROWF
 10
24081.1680
 20
2580.00000
 41
1.00000000
 42
1.00000000
 43
1.00000000
 50
270.000000
  0
TEXT
  8
11
 7
SIMPLEX
 10
24042.0977
 20
4624.89160
 40
117.204788
  1
1500
 50
90.0002060
  0
LINE
  8
12
 10
23143.5293
 20
5580.00000
 11
24120.2324
 21
5580.00000
  0
INSERT
  8
2
  2
ARROWF
 10
24081.1680
 20
5580.00000
 41
1.00000000
 42
1.00000000
 43
1.00000000
 50
90.0000000
  0
INSERT
  8
2
  2
ARROWF
 10
24081.1680
 20
4080.00024
 41
1.00000000
 42
1.00000000
 43
1.00000000
 50
270.000000
  0
TEXT
  8
11
 7
SIMPLEX
 10
24042.0977
 20
6124.89209
 40
117.204788
  1
1500
 50
90.0002060
  0
LINE
  8
12
 10
23143.5293
 20
7080.00049
 11
24120.2324
 21
7080.00049
  0
INSERT
  8
2
  2
ARROWF
 10
24081.1680
 20
7080.00049
 41
1.00000000
 42
1.00000000
 43
1.00000000
 50
90.0000000
  0
INSERT
  8
2
  2
ARROWF
 10
24081.1680
 20
5580.00000
 41
1.00000000
 42
1.00000000
 43
1.00000000
 50
270.000000
  0
TEXT
  8
11
 7
SIMPLEX
 10
24042.0977
 20
7544.89111
 40
117.204788
  1
1340
 50
90.0002060
  0
LINE
  8
12
 10
23143.5293
 20
8420.00000
 11
24120.2324
 21
8420.00000
  0
INSERT
  8
2
  2
ARROWF
 10
24081.1680
 20
8420.00000
 41
1.00000000
 42
1.00000000
 43
1.00000000
 50
90.0000000
  0
INSERT
  8
2
  2
ARROWF
 10
24081.1680
 20
7080.00049
 41
1.00000000
 42
1.00000000
 43
1.00000000
 50
270.000000
  0
LINE
  8
12
 10
24413.2441
 20
8420.00000
 11
23143.5293
 21
8420.00000
  0
LINE
  8
2
 10
24374.1797
 20
0.00000000
 11
24374.1797
 21
8420.00000
  0
TEXT
  8
11
 7
SIMPLEX
 10
24335.1113
 20
3897.45386
 40
117.204788
  1
8420
 50
90.0002060
  0
LINE
  8
12
 10
24413.2441
 20
0.00000000
 11
23143.5293
 21
0.00000000
  0
INSERT
  8
2
  2
ARROWF
 10
24374.1797
 20
8420.00000
 41
1.00000000
 42
1.00000000
 43
1.00000000
 50
90.0000000
  0
INSERT
  8
2
  2
ARROWF
 10
24374.1797
 20
0.00000000
 41
1.00000000
 42
1.00000000
 43
1.00000000
 50
270.000000
  0
LINE
  8
12
 10
-44.412216
 20
8864.12207
 11
-147.88876
 21
9898.88672
  0
INSERT
  8
2
  2
ARROWF
 10
-137.71074
 20
9797.10645
 41
1.00000000
 42
1.00000000
 43
1.00000000
 50
185.710602
  0
LINE
  8
12
 10
10892.0420
 20
9957.76758
 11
10788.5654
 21
10992.5332
  0
INSERT
  8
2
  2
ARROWF
 10
10798.7432
 20
10890.7520
 41
1.00000000
 42
1.00000000
 43
1.00000000
 50
5.71059464
  0
TEXT
  8
11
 7
SIMPLEX
 10
4888.99316
 20
10339.0400
 40
117.204788
  1
8 @ 1374
 50
5.71059464
  0
INSERT
  8
2
  2
ARROWF
 10
10798.7432
 20
10890.7520
 41
1.00000000
 42
1.00000000
 43
1.00000000
 50
185.710602
  0
LINE
  8
12
 10
11190.5879
 20
9987.62207
 11
11087.1113
 21
11022.3877
  0
INSERT
  8
2
  2
ARROWF
 10
11097.2891
 20
10920.6064
 41
1.00000000
 42
1.00000000
 43
1.00000000
 50
5.71059464
  0
TEXT
  8
11
 7
SIMPLEX
 10
10704.6582
 20
10920.6064
 40
117.204788
  1
300
 50
5.71059464
  0
LINE
  8
2
 10
-137.71074
 20
9797.10645
 11
11097.2891
 21
10920.6064
  0
LINE
  8
2
 10
-79.399162
 20
9213.99121
 11
-182.87570
 21
10248.7568
  0
INSERT
  8
2
  2
ARROWF
 10
-172.69769
 20
10146.9756
 41
1.00000000
 42
1.00000000
 43
1.00000000
 50
185.710602
  0
LINE
  8
2
 10
11155.6016
 20
10337.4912
 11
11052.1240
 21
11372.2568
  0
INSERT
  8
2
  2
ARROWF
 10
11062.3018
 20
11270.4766
 41
1.00000000
 42
1.00000000
 43
1.00000000
 50
5.71059464
  0
LINE
  8
2
 10
-172.69769
 20
10146.9756
 11
11062.3018
 21
11270.4766
  0
TEXT
  8
11
 7
SIMPLEX
 10
5236.82471
 20
10727.1914
 40
117.204788
  1
11291
 50
5.71059464
  0
LINE
  8
12
 10
11279.4121
 20
9987.62207
 11
11382.8887
 21
11022.3877
  0
INSERT
  8
2
  2
ARROWF
 10
11372.7100
 20
10920.6064
 41
1.00000000
 42
1.00000000
 43
1.00000000
 50
174.289398
  0
LINE
  8
12
 10
11577.9238
 20
9957.77148
 11
11681.4004
 21
10992.5361
  0
INSERT
  8
2
  2
ARROWF
 10
11671.2217
 20
10890.7559
 41
1.00000000
 42
1.00000000
 43
1.00000000
 50
-5.7105947
  0
TEXT
  8
11
 7
SIMPLEX
 10
11415.4717
 20
10955.5938
 40
117.204788
  1
300
 50
-5.7105947
  0
INSERT
  8
2
  2
ARROWF
 10
11671.2217
 20
10890.7559
 41
1.00000000
 42
1.00000000
 43
1.00000000
 50
174.289398
  0
LINE
  8
12
 10
22514.4121
 20
8864.12207
 11
22617.8887
 21
9898.88672
  0
INSERT
  8
2
  2
ARROWF
 10
22607.7109
 20
9797.10645
 41
1.00000000
 42
1.00000000
 43
1.00000000
 50
-5.7105947
  0
TEXT
  8
11
 7
SIMPLEX
 10
16705.8418
 20
10426.5576
 40
117.204788
  1
8 @ 1374
 50
-5.7105947
  0
LINE
  8
2
 10
11372.7100
 20
10920.6064
 11
22607.7109
 21
9797.10645
  0
LINE
  8
2
 10
11314.3994
 20
10337.4912
 11
11417.8760
 21
11372.2568
  0
INSERT
  8
2
  2
ARROWF
 10
11407.6973
 20
11270.4766
 41
1.00000000
 42
1.00000000
 43
1.00000000
 50
174.289398
  0
LINE
  8
2
 10
22549.3984
 20
9213.99121
 11
22652.8750
 21
10248.7568
  0
INSERT
  8
2
  2
ARROWF
 10
22642.6973
 20
10146.9756
 41
1.00000000
 42
1.00000000
 43
1.00000000
 50
-5.7105947
  0
LINE
  8
2
 10
11407.6973
 20
11270.4766
 11
22642.6973
 21
10146.9756
  0
TEXT
  8
11
 7
SIMPLEX
 10
16824.9941
 20
10768.0088
 40
117.204788
  1
11291
 50
-5.7105947
  0
LINE
  8
2
 10
10235.4697
 20
9620.23145
 11
10252.9629
 21
9445.29590
  0
LINE
  8
2
 10
10285.3818
 20
9121.10547
 11
10267.8887
 21
9296.04102
  0
INSERT
  8
2
  2
ARROWF
 10
10252.9629
 20
9445.29590
 41
1.00000000
 42
1.00000000
 43
1.00000000
 50
275.710602
  0
INSERT
  8
2
  2
ARROWF
 10
10267.8887
 20
9296.04102
 41
1.00000000
 42
1.00000000
 43
1.00000000
 50
95.7105942
  0
TEXT
  8
11
 7
SIMPLEX
 10
10210.2012
 20
9480.28320
 40
117.204788
  1
150
 50
95.7105942
  0
LINE
  8
2
 10
12234.5449
 20
9620.23047
 11
12217.0518
 21
9445.29590
  0
LINE
  8
2
 10
12184.6328
 20
9121.10547
 11
12202.1260
 21
9296.04004
  0
INSERT
  8
2
  2
ARROWF
 10
12217.0518
 20
9445.29590
 41
1.00000000
 42
1.00000000
 43
1.00000000
 50
264.289398
  0
INSERT
  8
2
  2
ARROWF
 10
12202.1260
 20
9296.04004
 41
1.00000000
 42
1.00000000
 43
1.00000000
 50
84.2894058
  0
TEXT
  8
11
 7
SIMPLEX
 10
12182.0645
 20
9488.05762
 40
117.204788
  1
150
 50
84.2893982
  0
INSERT
  8
7
  2
CUTFRM
 10
11788.6621
 20
8624.77930
 41
-1.0000000
 42
33.4300118
 43
33.4300118
 50
174.289398
  0
CIRCLE
  8
7
 10
11779.3271
 20
8531.48047
 40
93.7638321
  0
TEXT
  8
7
 7
SIMPLEX
 10
11704.3164
 20
8493.97559
 40
75.0110626
  1
V2
 72
           1
 11
11779.3271
 21
8493.97559
 50
   0.000
  0
INSERT
  8
7
  2
ARROWPF
 10
11695.9297
 20
9487.41797
 41
-1.0000000
 42
1.00000000
 43
1.00000000
 50
354.289398
  0
INSERT
  8
7
  2
CUTFRM
 10
11476.6514
 20
304.804657
 41
-1.0000000
 42
19.0276604
 43
19.0276604
 50
-90.000000
  0
CIRCLE
  8
7
 10
11570.4150
 20
304.807129
 40
93.7638321
  0
TEXT
  8
7
 7
SIMPLEX
 10
11495.4043
 20
267.301605
 40
75.0110626
  1
S2
 72
           1
 11
11570.4150
 21
267.301605
 50
   0.000
  0
INSERT
  8
7
  2
ARROWPF
 10
10993.3535
 20
126.640678
 41
-1.0000000
 42
1.00000000
 43
1.00000000
 50
90.0000000
  0
INSERT
  8
7
  2
CUTFRM
 10
89.9513550
 20
8282.08398
 41
1.00000000
 42
41.5867119
 43
41.5867119
 50
90.0000000
  0
CIRCLE
  8
7
 10
-3.8124793
 20
8282.08691
 40
93.7638321
  0
TEXT
  8
7
 7
SIMPLEX
 10
-78.823540
 20
8244.58105
 40
75.0110626
  1
U5
 72
           1
 11
-3.8124793
 21
8244.58105
 50
   0.000
  0
INSERT
  8
7
  2
ARROWPF
 10
1146.24915
 20
8103.90527
 41
1.00000000
 42
1.00000000
 43
1.00000000
 50
270.000000
  0
INSERT
  8
7
  2
CUTFRM
 10
3836.67212
 20
8116.02832
 41
1.00000000
 42
26.5463600
 43
26.5463600
 50
185.710587
  0
CIRCLE
  8
7
 10
3845.99658
 20
8022.72949
 40
93.7638321
  0
TEXT
  8
7
 7
SIMPLEX
 10
3784.11230
 20
7985.22412
 40
75.0110626
  1
U1
 72
           1
 11
3845.99658
 21
7985.22412
 50
   0.000
  0
INSERT
  8
7
  2
ARROWPF
 10
3946.88354
 20
8804.68066
 41
1.00000000
 42
1.00000000
 43
1.00000000
 50
365.710571
  0
INSERT
  8
7
  2
CUTFRM
 10
22380.0527
 20
8282.06543
 41
-1.0000000
 42
41.5867424
 43
41.5867424
 50
270.000000
  0
CIRCLE
  8
7
 10
22473.8164
 20
8282.05762
 40
93.7638321
  0
TEXT
  8
7
 7
SIMPLEX
 10
22398.8047
 20
8244.55273
 40
75.0110626
  1
U5
 72
           1
 11
22473.8164
 21
8244.55273
 50
   0.000
  0
INSERT
  8
7
  2
ARROWPF
 10
21323.7344
 20
8103.99756
 41
-1.0000000
 42
1.00000000
 43
1.00000000
 50
450.000000
  0
INSERT
  8
7
  2
CUTFRM
 10
846.251221
 20
534.458496
 41
-1.0000000
 42
29.7756920
 43
29.7756920
 50
-90.000000
  0
CIRCLE
  8
7
 10
940.015076
 20
534.460999
 40
93.7638321
  0
TEXT
  8
7
 7
SIMPLEX
 10
860.503357
 20
504.456543
 40
60.0088501
  1
R10
 72
           1
 11
940.015076
 21
504.456543
 50
   0.000
  0
INSERT
  8
7
  2
ARROWPF
 10
89.9533615
 20
356.287354
 41
-1.0000000
 42
1.00000000
 43
1.00000000
 50
90.0000000
  0
INSERT
  8
7
  2
CUTFRM
 10
21623.7480
 20
534.458496
 41
1.00000000
 42
29.7757092
 43
29.7757092
 50
90.0000000
  0
CIRCLE
  8
7
 10
21529.9844
 20
534.460999
 40
93.7638321
  0
TEXT
  8
7
 7
SIMPLEX
 10
21450.4727
 20
504.456543
 40
60.0088501
  1
R10
 72
           1
 11
21529.9844
 21
504.456543
 50
   0.000
  0
INSERT
  8
7
  2
ARROWPF
 10
22380.0469
 20
356.287354
 41
1.00000000
 42
1.00000000
 43
1.00000000
 50
270.000000
  0
ENDBLK
  8
0
  0
BLOCK
  8
0
  2
EPBLK1
 70
     0
 10
0.00000000
 20
0.00000000
  0
LINE
  8
0
 10
0.00000000
 20
0.00000000
 11
0.00000000
 21
1704.79675
  0
LINE
  8
0
 10
0.00000000
 20
1704.79675
 11
838.974854
 21
1704.79675
  0
LINE
  8
0
 10
0.00000000
 20
0.00000000
 11
838.974854
 21
0.00000000
  0
LINE
  8
0
 10
838.974854
 20
1704.79675
 11
838.974854
 21
0.00000000
  0
TEXT
  8
11
 7
SIMPLEX
 10
14.6505986
 20
1660.84509
 40
29.3011971
  1
Bolt Dia=
 50
0.00000000
  0
TEXT
  8
11
 7
SIMPLEX
 10
14.6505986
 20
1624.21851
 40
29.3011971
  1
Plate Thk=
 50
0.00000000
  0
TEXT
  8
11
 7
SIMPLEX
 10
308.932556
 20
1660.84509
 40
29.3011971
  1
20
 50
0.00000000
  0
TEXT
  8
11
 7
SIMPLEX
 10
308.932556
 20
1624.21851
 40
29.3011971
  1
16
 50
0.00000000
  0
TEXT
  8
11
 7
SIMPLEX
 10
29.3011971
 20
14.6505986
 40
29.3011971
  1
SP1
 50
0.00000000
  0
LINE
  8
0
 10
314.615570
 20
494.391144
 11
314.615570
 21
1210.40576
  0
LINE
  8
0
 10
314.615570
 20
1210.40576
 11
524.359253
 21
1210.40576
  0
LINE
  8
0
 10
524.359253
 20
1210.40576
 11
524.359253
 21
494.391144
  0
LINE
  8
0
 10
314.615570
 20
494.391144
 11
524.359253
 21
494.391144
  0
CIRCLE
  8
0
 10
367.051514
 20
1138.80432
 40
7.32529926
  0
CIRCLE
  8
0
 10
471.923370
 20
1138.80432
 40
7.32529926
  0
CIRCLE
  8
0
 10
367.051514
 20
995.601501
 40
7.32529926
  0
CIRCLE
  8
0
 10
471.923370
 20
995.601501
 40
7.32529926
  0
CIRCLE
  8
0
 10
367.051514
 20
709.195557
 40
7.32529926
  0
CIRCLE
  8
0
 10
471.923370
 20
709.195557
 40
7.32529926
  0
CIRCLE
  8
0
 10
367.051514
 20
565.992554
 40
7.32529926
  0
CIRCLE
  8
0
 10
471.923370
 20
565.992554
 40
7.32529926
  0
LINE
  8
0
 10
406.168671
 20
1074.36304
 11
406.168671
 21
1195.85632
  0
LINE
  8
0
 10
406.168671
 20
1195.85632
 11
432.806122
 21
1195.85632
  0
LINE
  8
0
 10
432.806122
 20
1195.85632
 11
432.806122
 21
1074.36304
  0
LINE
  8
0
 10
406.168671
 20
630.433899
 11
406.168671
 21
508.940521
  0
LINE
  8
0
 10
406.168671
 20
508.940521
 11
432.806122
 21
508.940521
  0
LINE
  8
0
 10
432.806122
 20
508.940521
 11
432.806122
 21
630.433899
  0
LINE
  8
2
 10
595.037292
 20
435.847321
 11
595.037292
 21
494.391144
  0
LINE
  8
2
 10
595.037292
 20
565.992554
 11
595.037292
 21
624.536377
  0
INSERT
  8
2
  2
ARROWF
 10
595.037292
 20
494.391144
 41
0.33300000
 42
0.33300000
 43
0.33300000
 50
450.000000
  0
INSERT
  8
2
  2
ARROWF
 10
595.037292
 20
565.992554
 41
0.33300000
 42
0.33300000
 43
0.33300000
 50
270.000000
  0
LINE
  8
2
 10
575.503174
 20
565.992554
 11
604.804382
 21
565.992554
  0
LINE
  8
2
 10
575.503174
 20
494.391144
 11
604.804382
 21
494.391144
  0
TEXT
  8
11
 7
SIMPLEX
 10
609.687927
 20
515.541260
 40
29.3011971
  1
50
 50
0.00000000
  0
LINE
  8
2
 10
595.037292
 20
565.992554
 11
595.037292
 21
709.195557
  0
INSERT
  8
2
  2
ARROWF
 10
595.037292
 20
565.992554
 41
0.33300000
 42
0.33300000
 43
0.33300000
 50
270.000000
  0
INSERT
  8
2
  2
ARROWF
 10
595.037292
 20
709.195557
 41
0.33300000
 42
0.33300000
 43
0.33300000
 50
89.9999847
  0
LINE
  8
2
 10
575.503174
 20
709.195557
 11
604.804382
 21
709.195557
  0
LINE
  8
2
 10
575.503174
 20
565.992554
 11
604.804382
 21
565.992554
  0
TEXT
  8
11
 7
SIMPLEX
 10
609.687927
 20
622.943481
 40
29.3011971
  1
100
 50
0.00000000
  0
LINE
  8
2
 10
595.037292
 20
709.195557
 11
595.037292
 21
995.601501
  0
INSERT
  8
2
  2
ARROWF
 10
595.037292
 20
709.195557
 41
0.33300000
 42
0.33300000
 43
0.33300000
 50
270.000000
  0
INSERT
  8
2
  2
ARROWF
 10
595.037292
 20
995.601501
 41
0.33300000
 42
0.33300000
 43
0.33300000
 50
89.9999847
  0
LINE
  8
2
 10
575.503174
 20
995.601501
 11
604.804382
 21
995.601501
  0
LINE
  8
2
 10
575.503174
 20
709.195557
 11
604.804382
 21
709.195557
  0
TEXT
  8
11
 7
SIMPLEX
 10
609.687927
 20
837.747986
 40
29.3011971
  1
200
 50
0.00000000
  0
LINE
  8
2
 10
595.037292
 20
995.601501
 11
595.037292
 21
1138.80432
  0
INSERT
  8
2
  2
ARROWF
 10
595.037292
 20
995.601501
 41
0.33300000
 42
0.33300000
 43
0.33300000
 50
270.000000
  0
INSERT
  8
2
  2
ARROWF
 10
595.037292
 20
1138.80432
 41
0.33300000
 42
0.33300000
 43
0.33300000
 50
89.9999847
  0
LINE
  8
2
 10
575.503174
 20
1138.80432
 11
604.804382
 21
1138.80432
  0
LINE
  8
2
 10
575.503174
 20
995.601501
 11
604.804382
 21
995.601501
  0
TEXT
  8
11
 7
SIMPLEX
 10
609.687927
 20
1052.55237
 40
29.3011971
  1
100
 50
0.00000000
  0
LINE
  8
2
 10
595.037292
 20
1080.26050
 11
595.037292
 21
1138.80432
  0
LINE
  8
2
 10
595.037292
 20
1210.40576
 11
595.037292
 21
1268.94959
  0
INSERT
  8
2
  2
ARROWF
 10
595.037292
 20
1138.80432
 41
0.33300000
 42
0.33300000
 43
0.33300000
 50
450.000000
  0
INSERT
  8
2
  2
ARROWF
 10
595.037292
 20
1210.40576
 41
0.33300000
 42
0.33300000
 43
0.33300000
 50
270.000000
  0
LINE
  8
2
 10
575.503174
 20
1210.40576
 11
604.804382
 21
1210.40576
  0
LINE
  8
2
 10
575.503174
 20
1138.80432
 11
604.804382
 21
1138.80432
  0
TEXT
  8
11
 7
SIMPLEX
 10
609.687927
 20
1159.95447
 40
29.3011971
  1
50
 50
0.00000000
  0
LINE
  8
2
 10
367.051514
 20
423.713074
 11
471.923309
 21
423.713074
  0
LINE
  8
2
 10
367.051514
 20
443.247223
 11
367.051514
 21
413.945984
  0
LINE
  8
2
 10
471.923309
 20
443.247223
 11
471.923309
 21
413.945984
  0
INSERT
  8
2
  2
ARROWF
 10
367.051514
 20
423.713074
 41
0.33300000
 42
0.33300000
 43
0.33300000
 50
180.000000
  0
INSERT
  8
2
  2
ARROWF
 10
471.923309
 20
423.713074
 41
0.33300000
 42
0.33300000
 43
0.33300000
 50
0.00000000
  0
TEXT
  8
11
 7
SIMPLEX
 10
386.523560
 20
387.086609
 40
29.3011971
  1
100
 50
0.00000000
  0
LINE
  8
2
 10
243.937546
 20
494.391144
 11
243.937546
 21
630.433899
  0
INSERT
  8
2
  2
ARROWF
 10
243.937546
 20
494.391144
 41
0.33300000
 42
0.33300000
 43
0.33300000
 50
270.000000
  0
INSERT
  8
2
  2
ARROWF
 10
243.937546
 20
630.433899
 41
0.33300000
 42
0.33300000
 43
0.33300000
 50
89.9999847
  0
LINE
  8
2
 10
234.170486
 20
630.433899
 11
263.471680
 21
630.433899
  0
LINE
  8
2
 10
234.170486
 20
494.391144
 11
263.471680
 21
494.391144
  0
TEXT
  8
11
 7
SIMPLEX
 10
178.009857
 20
547.761902
 40
29.3011971
  1
95
 72
           2
 11
236.612244
 21
562.412537
 73
           2
 50
   0.000
  0
LINE
  8
2
 10
243.937546
 20
630.433899
 11
243.937546
 21
1074.36304
  0
INSERT
  8
2
  2
ARROWF
 10
243.937546
 20
630.433899
 41
0.33300000
 42
0.33300000
 43
0.33300000
 50
270.000000
  0
INSERT
  8
2
  2
ARROWF
 10
243.937546
 20
1074.36304
 41
0.33300000
 42
0.33300000
 43
0.33300000
 50
89.9999847
  0
LINE
  8
2
 10
234.170486
 20
1074.36304
 11
263.471680
 21
1074.36304
  0
LINE
  8
2
 10
234.170486
 20
630.433899
 11
263.471680
 21
630.433899
  0
TEXT
  8
11
 7
SIMPLEX
 10
207.311066
 20
813.574341
 40
29.3011971
  1
310
 72
           1
 11
236.612244
 21
852.398438
 73
           1
 50
  90.000
  0
LINE
  8
2
 10
243.937546
 20
1074.36304
 11
243.937546
 21
1210.40576
  0
INSERT
  8
2
  2
ARROWF
 10
243.937546
 20
1074.36304
 41
0.33300000
 42
0.33300000
 43
0.33300000
 50
270.000000
  0
INSERT
  8
2
  2
ARROWF
 10
243.937546
 20
1210.40576
 41
0.33300000
 42
0.33300000
 43
0.33300000
 50
89.9999847
  0
LINE
  8
2
 10
234.170486
 20
1210.40576
 11
263.471680
 21
1210.40576
  0
LINE
  8
2
 10
234.170486
 20
1074.36304
 11
263.471680
 21
1074.36304
  0
TEXT
  8
11
 7
SIMPLEX
 10
178.009857
 20
1127.73376
 40
29.3011971
  1
95
 72
           2
 11
236.612244
 21
1142.38428
 73
           2
 50
   0.000
  0
LINE
  8
2
 10
129.041336
 20
494.391144
 11
158.342529
 21
494.391144
  0
LINE
  8
2
 10
129.041336
 20
1210.40576
 11
158.342529
 21
1210.40576
  0
LINE
  8
2
 10
138.808395
 20
494.391144
 11
138.808395
 21
1210.40576
  0
INSERT
  8
2
  2
ARROWF
 10
138.808395
 20
494.391144
 41
0.33300000
 42
0.33300000
 43
0.33300000
 50
270.000000
  0
INSERT
  8
2
  2
ARROWF
 10
138.808395
 20
1210.40576
 41
0.33300000
 42
0.33300000
 43
0.33300000
 50
90.0000000
  0
TEXT
  8
11
 7
SIMPLEX
 10
131.483093
 20
819.434570
 40
29.3011971
  1
500
 50
90.0000000
  0
LINE
  8
2
 10
314.615570
 20
1281.08374
 11
524.359253
 21
1281.08374
  0
LINE
  8
2
 10
314.615570
 20
1290.85083
 11
314.615570
 21
1261.54968
  0
LINE
  8
2
 10
524.359253
 20
1290.85083
 11
524.359253
 21
1261.54968
  0
INSERT
  8
2
  2
ARROWF
 10
314.615570
 20
1281.08374
 41
0.33300000
 42
0.33300000
 43
0.33300000
 50
180.000000
  0
INSERT
  8
2
  2
ARROWF
 10
524.359253
 20
1281.08374
 41
0.33300000
 42
0.33300000
 43
0.33300000
 50
0.00000000
  0
TEXT
  8
11
 7
SIMPLEX
 10
386.523560
 20
1288.40918
 40
29.3011971
  1
200
 50
0.00000000
  0
LINE
  8
0
 10
340.833557
 20
630.433899
 11
498.141327
 21
630.433899
  0
LINE
  8
0
 10
340.833557
 20
657.071350
 11
498.141327
 21
657.071350
  0
LINE
  8
0
 10
340.833557
 20
630.433899
 11
340.833557
 21
657.071350
  0
LINE
  8
0
 10
498.141327
 20
630.433899
 11
498.141327
 21
657.071350
  0
LINE
  8
0
 10
340.833557
 20
1074.36304
 11
498.141327
 21
1074.36304
  0
LINE
  8
0
 10
340.833557
 20
1047.72559
 11
498.141327
 21
1047.72559
  0
LINE
  8
0
 10
340.833557
 20
1074.36304
 11
340.833557
 21
1047.72559
  0
LINE
  8
0
 10
498.141327
 20
1074.36304
 11
498.141327
 21
1047.72559
  0
LINE
  8
0
 10
432.806122
 20
657.071350
 11
432.806122
 21
1047.72559
  0
LINE
  8
0
 10
406.168671
 20
657.071350
 11
406.168671
 21
1047.72559
  0
ENDBLK
  8
0
  0
BLOCK
  8
0
  2
EPBLK2
 70
     0
 10
0.00000000
 20
0.00000000
  0
LINE
  8
0
 10
0.00000000
 20
0.00000000
 11
0.00000000
 21
1704.79675
  0
LINE
  8
0
 10
0.00000000
 20
1704.79675
 11
838.974854
 21
1704.79675
  0
LINE
  8
0
 10
0.00000000
 20
0.00000000
 11
838.974854
 21
0.00000000
  0
LINE
  8
0
 10
838.974854
 20
1704.79675
 11
838.974854
 21
0.00000000
  0
TEXT
  8
11
 7
SIMPLEX
 10
14.6505986
 20
1660.84509
 40
29.3011971
  1
Bolt Dia=
 50
0.00000000
  0
TEXT
  8
11
 7
SIMPLEX
 10
14.6505986
 20
1624.21851
 40
29.3011971
  1
Plate Thk=
 50
0.00000000
  0
TEXT
  8
11
 7
SIMPLEX
 10
308.932556
 20
1660.84509
 40
29.3011971
  1
20
 50
0.00000000
  0
TEXT
  8
11
 7
SIMPLEX
 10
308.932556
 20
1624.21851
 40
29.3011971
  1
16
 50
0.00000000
  0
TEXT
  8
11
 7
SIMPLEX
 10
29.3011971
 20
14.6505986
 40
29.3011971
  1
SP2
 50
0.00000000
  0
LINE
  8
0
 10
314.615570
 20
494.391144
 11
314.615570
 21
1210.40576
  0
LINE
  8
0
 10
314.615570
 20
1210.40576
 11
524.359253
 21
1210.40576
  0
LINE
  8
0
 10
524.359253
 20
1210.40576
 11
524.359253
 21
494.391144
  0
LINE
  8
0
 10
314.615570
 20
494.391144
 11
524.359253
 21
494.391144
  0
CIRCLE
  8
0
 10
367.051514
 20
1138.80432
 40
7.32529926
  0
CIRCLE
  8
0
 10
471.923370
 20
1138.80432
 40
7.32529926
  0
CIRCLE
  8
0
 10
367.051514
 20
995.601501
 40
7.32529926
  0
CIRCLE
  8
0
 10
471.923370
 20
995.601501
 40
7.32529926
  0
CIRCLE
  8
0
 10
367.051514
 20
709.195557
 40
7.32529926
  0
CIRCLE
  8
0
 10
471.923370
 20
709.195557
 40
7.32529926
  0
CIRCLE
  8
0
 10
367.051514
 20
565.992554
 40
7.32529926
  0
CIRCLE
  8
0
 10
471.923370
 20
565.992554
 40
7.32529926
  0
LINE
  8
0
 10
406.168671
 20
1074.36304
 11
406.168671
 21
1195.85632
  0
LINE
  8
0
 10
406.168671
 20
1195.85632
 11
432.806122
 21
1195.85632
  0
LINE
  8
0
 10
432.806122
 20
1195.85632
 11
432.806122
 21
1074.36304
  0
LINE
  8
0
 10
406.168671
 20
630.433899
 11
406.168671
 21
508.940521
  0
LINE
  8
0
 10
406.168671
 20
508.940521
 11
432.806122
 21
508.940521
  0
LINE
  8
0
 10
432.806122
 20
508.940521
 11
432.806122
 21
630.433899
  0
LINE
  8
2
 10
595.037292
 20
435.847321
 11
595.037292
 21
494.391144
  0
LINE
  8
2
 10
595.037292
 20
565.992554
 11
595.037292
 21
624.536377
  0
INSERT
  8
2
  2
ARROWF
 10
595.037292
 20
494.391144
 41
0.33300000
 42
0.33300000
 43
0.33300000
 50
450.000000
  0
INSERT
  8
2
  2
ARROWF
 10
595.037292
 20
565.992554
 41
0.33300000
 42
0.33300000
 43
0.33300000
 50
270.000000
  0
LINE
  8
2
 10
575.503174
 20
565.992554
 11
604.804382
 21
565.992554
  0
LINE
  8
2
 10
575.503174
 20
494.391144
 11
604.804382
 21
494.391144
  0
TEXT
  8
11
 7
SIMPLEX
 10
609.687927
 20
515.541260
 40
29.3011971
  1
50
 50
0.00000000
  0
LINE
  8
2
 10
595.037292
 20
565.992554
 11
595.037292
 21
709.195557
  0
INSERT
  8
2
  2
ARROWF
 10
595.037292
 20
565.992554
 41
0.33300000
 42
0.33300000
 43
0.33300000
 50
270.000000
  0
INSERT
  8
2
  2
ARROWF
 10
595.037292
 20
709.195557
 41
0.33300000
 42
0.33300000
 43
0.33300000
 50
89.9999847
  0
LINE
  8
2
 10
575.503174
 20
709.195557
 11
604.804382
 21
709.195557
  0
LINE
  8
2
 10
575.503174
 20
565.992554
 11
604.804382
 21
565.992554
  0
TEXT
  8
11
 7
SIMPLEX
 10
609.687927
 20
622.943481
 40
29.3011971
  1
100
 50
0.00000000
  0
LINE
  8
2
 10
595.037292
 20
709.195557
 11
595.037292
 21
995.601501
  0
INSERT
  8
2
  2
ARROWF
 10
595.037292
 20
709.195557
 41
0.33300000
 42
0.33300000
 43
0.33300000
 50
270.000000
  0
INSERT
  8
2
  2
ARROWF
 10
595.037292
 20
995.601501
 41
0.33300000
 42
0.33300000
 43
0.33300000
 50
89.9999847
  0
LINE
  8
2
 10
575.503174
 20
995.601501
 11
604.804382
 21
995.601501
  0
LINE
  8
2
 10
575.503174
 20
709.195557
 11
604.804382
 21
709.195557
  0
TEXT
  8
11
 7
SIMPLEX
 10
609.687927
 20
837.747986
 40
29.3011971
  1
200
 50
0.00000000
  0
LINE
  8
2
 10
595.037292
 20
995.601501
 11
595.037292
 21
1138.80432
  0
INSERT
  8
2
  2
ARROWF
 10
595.037292
 20
995.601501
 41
0.33300000
 42
0.33300000
 43
0.33300000
 50
270.000000
  0
INSERT
  8
2
  2
ARROWF
 10
595.037292
 20
1138.80432
 41
0.33300000
 42
0.33300000
 43
0.33300000
 50
89.9999847
  0
LINE
  8
2
 10
575.503174
 20
1138.80432
 11
604.804382
 21
1138.80432
  0
LINE
  8
2
 10
575.503174
 20
995.601501
 11
604.804382
 21
995.601501
  0
TEXT
  8
11
 7
SIMPLEX
 10
609.687927
 20
1052.55237
 40
29.3011971
  1
100
 50
0.00000000
  0
LINE
  8
2
 10
595.037292
 20
1080.26050
 11
595.037292
 21
1138.80432
  0
LINE
  8
2
 10
595.037292
 20
1210.40576
 11
595.037292
 21
1268.94959
  0
INSERT
  8
2
  2
ARROWF
 10
595.037292
 20
1138.80432
 41
0.33300000
 42
0.33300000
 43
0.33300000
 50
450.000000
  0
INSERT
  8
2
  2
ARROWF
 10
595.037292
 20
1210.40576
 41
0.33300000
 42
0.33300000
 43
0.33300000
 50
270.000000
  0
LINE
  8
2
 10
575.503174
 20
1210.40576
 11
604.804382
 21
1210.40576
  0
LINE
  8
2
 10
575.503174
 20
1138.80432
 11
604.804382
 21
1138.80432
  0
TEXT
  8
11
 7
SIMPLEX
 10
609.687927
 20
1159.95447
 40
29.3011971
  1
50
 50
0.00000000
  0
LINE
  8
2
 10
367.051514
 20
423.713074
 11
471.923309
 21
423.713074
  0
LINE
  8
2
 10
367.051514
 20
443.247223
 11
367.051514
 21
413.945984
  0
LINE
  8
2
 10
471.923309
 20
443.247223
 11
471.923309
 21
413.945984
  0
INSERT
  8
2
  2
ARROWF
 10
367.051514
 20
423.713074
 41
0.33300000
 42
0.33300000
 43
0.33300000
 50
180.000000
  0
INSERT
  8
2
  2
ARROWF
 10
471.923309
 20
423.713074
 41
0.33300000
 42
0.33300000
 43
0.33300000
 50
0.00000000
  0
TEXT
  8
11
 7
SIMPLEX
 10
386.523560
 20
387.086609
 40
29.3011971
  1
100
 50
0.00000000
  0
LINE
  8
2
 10
243.937546
 20
494.391144
 11
243.937546
 21
630.433899
  0
INSERT
  8
2
  2
ARROWF
 10
243.937546
 20
494.391144
 41
0.33300000
 42
0.33300000
 43
0.33300000
 50
270.000000
  0
INSERT
  8
2
  2
ARROWF
 10
243.937546
 20
630.433899
 41
0.33300000
 42
0.33300000
 43
0.33300000
 50
89.9999847
  0
LINE
  8
2
 10
234.170486
 20
630.433899
 11
263.471680
 21
630.433899
  0
LINE
  8
2
 10
234.170486
 20
494.391144
 11
263.471680
 21
494.391144
  0
TEXT
  8
11
 7
SIMPLEX
 10
178.009857
 20
547.761902
 40
29.3011971
  1
95
 72
           2
 11
236.612244
 21
562.412537
 73
           2
 50
   0.000
  0
LINE
  8
2
 10
243.937546
 20
630.433899
 11
243.937546
 21
1074.36304
  0
INSERT
  8
2
  2
ARROWF
 10
243.937546
 20
630.433899
 41
0.33300000
 42
0.33300000
 43
0.33300000
 50
270.000000
  0
INSERT
  8
2
  2
ARROWF
 10
243.937546
 20
1074.36304
 41
0.33300000
 42
0.33300000
 43
0.33300000
 50
89.9999847
  0
LINE
  8
2
 10
234.170486
 20
1074.36304
 11
263.471680
 21
1074.36304
  0
LINE
  8
2
 10
234.170486
 20
630.433899
 11
263.471680
 21
630.433899
  0
TEXT
  8
11
 7
SIMPLEX
 10
207.311066
 20
813.574341
 40
29.3011971
  1
310
 72
           1
 11
236.612244
 21
852.398438
 73
           1
 50
  90.000
  0
LINE
  8
2
 10
243.937546
 20
1074.36304
 11
243.937546
 21
1210.40576
  0
INSERT
  8
2
  2
ARROWF
 10
243.937546
 20
1074.36304
 41
0.33300000
 42
0.33300000
 43
0.33300000
 50
270.000000
  0
INSERT
  8
2
  2
ARROWF
 10
243.937546
 20
1210.40576
 41
0.33300000
 42
0.33300000
 43
0.33300000
 50
89.9999847
  0
LINE
  8
2
 10
234.170486
 20
1210.40576
 11
263.471680
 21
1210.40576
  0
LINE
  8
2
 10
234.170486
 20
1074.36304
 11
263.471680
 21
1074.36304
  0
TEXT
  8
11
 7
SIMPLEX
 10
178.009857
 20
1127.73376
 40
29.3011971
  1
95
 72
           2
 11
236.612244
 21
1142.38428
 73
           2
 50
   0.000
  0
LINE
  8
2
 10
129.041336
 20
494.391144
 11
158.342529
 21
494.391144
  0
LINE
  8
2
 10
129.041336
 20
1210.40576
 11
158.342529
 21
1210.40576
  0
LINE
  8
2
 10
138.808395
 20
494.391144
 11
138.808395
 21
1210.40576
  0
INSERT
  8
2
  2
ARROWF
 10
138.808395
 20
494.391144
 41
0.33300000
 42
0.33300000
 43
0.33300000
 50
270.000000
  0
INSERT
  8
2
  2
ARROWF
 10
138.808395
 20
1210.40576
 41
0.33300000
 42
0.33300000
 43
0.33300000
 50
90.0000000
  0
TEXT
  8
11
 7
SIMPLEX
 10
131.483093
 20
819.434570
 40
29.3011971
  1
500
 50
90.0000000
  0
LINE
  8
2
 10
314.615570
 20
1281.08374
 11
524.359253
 21
1281.08374
  0
LINE
  8
2
 10
314.615570
 20
1290.85083
 11
314.615570
 21
1261.54968
  0
LINE
  8
2
 10
524.359253
 20
1290.85083
 11
524.359253
 21
1261.54968
  0
INSERT
  8
2
  2
ARROWF
 10
314.615570
 20
1281.08374
 41
0.33300000
 42
0.33300000
 43
0.33300000
 50
180.000000
  0
INSERT
  8
2
  2
ARROWF
 10
524.359253
 20
1281.08374
 41
0.33300000
 42
0.33300000
 43
0.33300000
 50
0.00000000
  0
TEXT
  8
11
 7
SIMPLEX
 10
386.523560
 20
1288.40918
 40
29.3011971
  1
200
 50
0.00000000
  0
LINE
  8
0
 10
340.833557
 20
630.433899
 11
498.141327
 21
630.433899
  0
LINE
  8
0
 10
340.833557
 20
657.071350
 11
498.141327
 21
657.071350
  0
LINE
  8
0
 10
340.833557
 20
630.433899
 11
340.833557
 21
657.071350
  0
LINE
  8
0
 10
498.141327
 20
630.433899
 11
498.141327
 21
657.071350
  0
LINE
  8
0
 10
340.833557
 20
1074.36304
 11
498.141327
 21
1074.36304
  0
LINE
  8
0
 10
340.833557
 20
1047.72559
 11
498.141327
 21
1047.72559
  0
LINE
  8
0
 10
340.833557
 20
1074.36304
 11
340.833557
 21
1047.72559
  0
LINE
  8
0
 10
498.141327
 20
1074.36304
 11
498.141327
 21
1047.72559
  0
LINE
  8
0
 10
432.806122
 20
657.071350
 11
432.806122
 21
1047.72559
  0
LINE
  8
0
 10
406.168671
 20
657.071350
 11
406.168671
 21
1047.72559
  0
ENDBLK
  8
0
  0
BLOCK
  8
0
  2
EPBLK3
 70
     0
 10
0.00000000
 20
0.00000000
  0
LINE
  8
0
 10
0.00000000
 20
0.00000000
 11
0.00000000
 21
1704.79675
  0
LINE
  8
0
 10
0.00000000
 20
1704.79675
 11
838.974854
 21
1704.79675
  0
LINE
  8
0
 10
0.00000000
 20
0.00000000
 11
838.974854
 21
0.00000000
  0
LINE
  8
0
 10
838.974854
 20
1704.79675
 11
838.974854
 21
0.00000000
  0
TEXT
  8
11
 7
SIMPLEX
 10
14.6505986
 20
1660.84509
 40
29.3011971
  1
Bolt Dia=
 50
0.00000000
  0
TEXT
  8
11
 7
SIMPLEX
 10
14.6505986
 20
1624.21851
 40
29.3011971
  1
Plate Thk=
 50
0.00000000
  0
TEXT
  8
11
 7
SIMPLEX
 10
308.932556
 20
1660.84509
 40
29.3011971
  1
20
 50
0.00000000
  0
TEXT
  8
11
 7
SIMPLEX
 10
308.932556
 20
1624.21851
 40
29.3011971
  1
16
 50
0.00000000
  0
TEXT
  8
11
 7
SIMPLEX
 10
29.3011971
 20
14.6505986
 40
29.3011971
  1
BP1
 50
0.00000000
  0
LINE
  8
0
 10
314.615570
 20
451.879150
 11
314.615570
 21
1252.91772
  0
LINE
  8
0
 10
314.615570
 20
1252.91772
 11
524.359253
 21
1252.91772
  0
LINE
  8
0
 10
524.359253
 20
1252.91772
 11
524.359253
 21
451.879150
  0
LINE
  8
0
 10
314.615570
 20
451.879150
 11
524.359253
 21
451.879150
  0
CIRCLE
  8
0
 10
367.051514
 20
1167.67798
 40
7.32529926
  0
CIRCLE
  8
0
 10
471.923370
 20
1167.67798
 40
7.32529926
  0
CIRCLE
  8
0
 10
367.051514
 20
997.198242
 40
7.32529926
  0
CIRCLE
  8
0
 10
471.923370
 20
997.198242
 40
7.32529926
  0
CIRCLE
  8
0
 10
367.051514
 20
707.598694
 40
7.32529926
  0
CIRCLE
  8
0
 10
471.923370
 20
707.598694
 40
7.32529926
  0
CIRCLE
  8
0
 10
367.051514
 20
537.119019
 40
7.32529926
  0
CIRCLE
  8
0
 10
471.923370
 20
537.119019
 40
7.32529926
  0
LINE
  8
0
 10
406.168671
 20
1085.84753
 11
406.168671
 21
1241.37048
  0
LINE
  8
0
 10
406.168671
 20
1241.37048
 11
432.806122
 21
1241.37048
  0
LINE
  8
0
 10
432.806122
 20
1241.37048
 11
432.806122
 21
1085.84753
  0
LINE
  8
0
 10
406.168671
 20
617.573975
 11
406.168671
 21
463.426300
  0
LINE
  8
0
 10
406.168671
 20
463.426300
 11
432.806122
 21
463.426300
  0
LINE
  8
0
 10
432.806122
 20
463.426300
 11
432.806122
 21
617.573975
  0
LINE
  8
2
 10
595.037292
 20
451.879150
 11
595.037292
 21
537.119019
  0
INSERT
  8
2
  2
ARROWF
 10
595.037292
 20
451.879150
 41
0.33300000
 42
0.33300000
 43
0.33300000
 50
270.000000
  0
INSERT
  8
2
  2
ARROWF
 10
595.037292
 20
537.119019
 41
0.33300000
 42
0.33300000
 43
0.33300000
 50
89.9999847
  0
LINE
  8
2
 10
575.503174
 20
537.119019
 11
604.804382
 21
537.119019
  0
LINE
  8
2
 10
575.503174
 20
451.879150
 11
604.804382
 21
451.879150
  0
TEXT
  8
11
 7
SIMPLEX
 10
609.687927
 20
479.848480
 40
29.3011971
  1
75
 50
0.00000000
  0
LINE
  8
2
 10
595.037292
 20
537.119019
 11
595.037292
 21
707.598694
  0
INSERT
  8
2
  2
ARROWF
 10
595.037292
 20
537.119019
 41
0.33300000
 42
0.33300000
 43
0.33300000
 50
270.000000
  0
INSERT
  8
2
  2
ARROWF
 10
595.037292
 20
707.598694
 41
0.33300000
 42
0.33300000
 43
0.33300000
 50
89.9999847
  0
LINE
  8
2
 10
575.503174
 20
707.598694
 11
604.804382
 21
707.598694
  0
LINE
  8
2
 10
575.503174
 20
537.119019
 11
604.804382
 21
537.119019
  0
TEXT
  8
11
 7
SIMPLEX
 10
609.687927
 20
607.708252
 40
29.3011971
  1
150
 50
0.00000000
  0
LINE
  8
2
 10
595.037292
 20
707.598694
 11
595.037292
 21
997.198242
  0
INSERT
  8
2
  2
ARROWF
 10
595.037292
 20
707.598694
 41
0.33300000
 42
0.33300000
 43
0.33300000
 50
270.000000
  0
INSERT
  8
2
  2
ARROWF
 10
595.037292
 20
997.198242
 41
0.33300000
 42
0.33300000
 43
0.33300000
 50
89.9999847
  0
LINE
  8
2
 10
575.503174
 20
997.198242
 11
604.804382
 21
997.198242
  0
LINE
  8
2
 10
575.503174
 20
707.598694
 11
604.804382
 21
707.598694
  0
TEXT
  8
11
 7
SIMPLEX
 10
609.687927
 20
837.747864
 40
29.3011971
  1
255
 50
0.00000000
  0
LINE
  8
2
 10
595.037292
 20
997.198242
 11
595.037292
 21
1167.67798
  0
INSERT
  8
2
  2
ARROWF
 10
595.037292
 20
997.198242
 41
0.33300000
 42
0.33300000
 43
0.33300000
 50
270.000000
  0
INSERT
  8
2
  2
ARROWF
 10
595.037292
 20
1167.67798
 41
0.33300000
 42
0.33300000
 43
0.33300000
 50
89.9999847
  0
LINE
  8
2
 10
575.503174
 20
1167.67798
 11
604.804382
 21
1167.67798
  0
LINE
  8
2
 10
575.503174
 20
997.198242
 11
604.804382
 21
997.198242
  0
TEXT
  8
11
 7
SIMPLEX
 10
609.687927
 20
1067.78748
 40
29.3011971
  1
150
 50
0.00000000
  0
LINE
  8
2
 10
595.037292
 20
1167.67798
 11
595.037292
 21
1252.91772
  0
INSERT
  8
2
  2
ARROWF
 10
595.037292
 20
1167.67798
 41
0.33300000
 42
0.33300000
 43
0.33300000
 50
270.000000
  0
INSERT
  8
2
  2
ARROWF
 10
595.037292
 20
1252.91772
 41
0.33300000
 42
0.33300000
 43
0.33300000
 50
89.9999847
  0
LINE
  8
2
 10
575.503174
 20
1252.91772
 11
604.804382
 21
1252.91772
  0
LINE
  8
2
 10
575.503174
 20
1167.67798
 11
604.804382
 21
1167.67798
  0
TEXT
  8
11
 7
SIMPLEX
 10
609.687927
 20
1195.64722
 40
29.3011971
  1
75
 50
0.00000000
  0
LINE
  8
2
 10
367.051514
 20
381.201111
 11
471.923309
 21
381.201111
  0
LINE
  8
2
 10
367.051514
 20
400.735260
 11
367.051514
 21
371.434052
  0
LINE
  8
2
 10
471.923309
 20
400.735260
 11
471.923309
 21
371.434052
  0
INSERT
  8
2
  2
ARROWF
 10
367.051514
 20
381.201111
 41
0.33300000
 42
0.33300000
 43
0.33300000
 50
180.000000
  0
INSERT
  8
2
  2
ARROWF
 10
471.923309
 20
381.201111
 41
0.33300000
 42
0.33300000
 43
0.33300000
 50
0.00000000
  0
TEXT
  8
11
 7
SIMPLEX
 10
386.523560
 20
344.574616
 40
29.3011971
  1
100
 50
0.00000000
  0
LINE
  8
2
 10
243.937546
 20
451.879150
 11
243.937546
 21
617.574097
  0
INSERT
  8
2
  2
ARROWF
 10
243.937546
 20
451.879150
 41
0.33300000
 42
0.33300000
 43
0.33300000
 50
270.000000
  0
INSERT
  8
2
  2
ARROWF
 10
243.937546
 20
617.574097
 41
0.33300000
 42
0.33300000
 43
0.33300000
 50
89.9999847
  0
LINE
  8
2
 10
234.170486
 20
617.574097
 11
263.471680
 21
617.574097
  0
LINE
  8
2
 10
234.170486
 20
451.879150
 11
263.471680
 21
451.879150
  0
TEXT
  8
11
 7
SIMPLEX
 10
158.964081
 20
520.075989
 40
29.3011971
  1
146
 72
           2
 11
236.612244
 21
534.726624
 73
           2
 50
   0.000
  0
LINE
  8
2
 10
243.937546
 20
617.574097
 11
243.937546
 21
1085.84766
  0
INSERT
  8
2
  2
ARROWF
 10
243.937546
 20
617.574097
 41
0.33300000
 42
0.33300000
 43
0.33300000
 50
270.000000
  0
INSERT
  8
2
  2
ARROWF
 10
243.937546
 20
1085.84766
 41
0.33300000
 42
0.33300000
 43
0.33300000
 50
89.9999847
  0
LINE
  8
2
 10
234.170486
 20
1085.84766
 11
263.471680
 21
1085.84766
  0
LINE
  8
2
 10
234.170486
 20
617.574097
 11
263.471680
 21
617.574097
  0
TEXT
  8
11
 7
SIMPLEX
 10
207.311066
 20
812.886780
 40
29.3011971
  1
412
 72
           1
 11
236.612244
 21
851.710876
 73
           1
 50
  90.000
  0
LINE
  8
2
 10
243.937546
 20
1085.84766
 11
243.937546
 21
1252.91772
  0
INSERT
  8
2
  2
ARROWF
 10
243.937546
 20
1085.84766
 41
0.33300000
 42
0.33300000
 43
0.33300000
 50
270.000000
  0
INSERT
  8
2
  2
ARROWF
 10
243.937546
 20
1252.91772
 41
0.33300000
 42
0.33300000
 43
0.33300000
 50
89.9999847
  0
LINE
  8
2
 10
234.170486
 20
1252.91772
 11
263.471680
 21
1252.91772
  0
LINE
  8
2
 10
234.170486
 20
1085.84766
 11
263.471680
 21
1085.84766
  0
TEXT
  8
11
 7
SIMPLEX
 10
158.964081
 20
1154.73206
 40
29.3011971
  1
147
 72
           2
 11
236.612244
 21
1169.38269
 73
           2
 50
   0.000
  0
LINE
  8
2
 10
129.041336
 20
451.879150
 11
158.342529
 21
451.879150
  0
LINE
  8
2
 10
129.041336
 20
1252.91772
 11
158.342529
 21
1252.91772
  0
LINE
  8
2
 10
138.808395
 20
451.879150
 11
138.808395
 21
1252.91772
  0
INSERT
  8
2
  2
ARROWF
 10
138.808395
 20
451.879150
 41
0.33300000
 42
0.33300000
 43
0.33300000
 50
270.000000
  0
INSERT
  8
2
  2
ARROWF
 10
138.808395
 20
1252.91772
 41
0.33300000
 42
0.33300000
 43
0.33300000
 50
90.0000000
  0
TEXT
  8
11
 7
SIMPLEX
 10
131.483093
 20
819.434570
 40
29.3011971
  1
705
 50
90.0000000
  0
LINE
  8
2
 10
314.615570
 20
1323.59570
 11
524.359253
 21
1323.59570
  0
LINE
  8
2
 10
314.615570
 20
1333.36279
 11
314.615570
 21
1304.06152
  0
LINE
  8
2
 10
524.359253
 20
1333.36279
 11
524.359253
 21
1304.06152
  0
INSERT
  8
2
  2
ARROWF
 10
314.615570
 20
1323.59570
 41
0.33300000
 42
0.33300000
 43
0.33300000
 50
180.000000
  0
INSERT
  8
2
  2
ARROWF
 10
524.359253
 20
1323.59570
 41
0.33300000
 42
0.33300000
 43
0.33300000
 50
0.00000000
  0
TEXT
  8
11
 7
SIMPLEX
 10
386.523560
 20
1330.92102
 40
29.3011971
  1
200
 50
0.00000000
  0
LINE
  8
0
 10
340.833557
 20
617.574097
 11
498.141327
 21
617.574097
  0
LINE
  8
0
 10
340.833557
 20
644.211548
 11
498.141327
 21
644.211548
  0
LINE
  8
0
 10
340.833557
 20
617.574097
 11
340.833557
 21
644.211548
  0
LINE
  8
0
 10
498.141327
 20
617.574097
 11
498.141327
 21
644.211548
  0
LINE
  8
0
 10
340.833557
 20
1085.84753
 11
498.141327
 21
1085.84753
  0
LINE
  8
0
 10
340.833557
 20
1059.21008
 11
498.141327
 21
1059.21008
  0
LINE
  8
0
 10
340.833557
 20
1085.84753
 11
340.833557
 21
1059.21008
  0
LINE
  8
0
 10
498.141327
 20
1085.84753
 11
498.141327
 21
1059.21008
  0
LINE
  8
0
 10
432.806122
 20
644.211548
 11
432.806122
 21
1059.21008
  0
LINE
  8
0
 10
406.168671
 20
644.211548
 11
406.168671
 21
1059.21008
  0
ENDBLK
  8
0
  0
BLOCK
  8
0
  2
EPBLK4
 70
     0
 10
0.00000000
 20
0.00000000
  0
LINE
  8
0
 10
0.00000000
 20
0.00000000
 11
0.00000000
 21
1704.79675
  0
LINE
  8
0
 10
0.00000000
 20
1704.79675
 11
838.974854
 21
1704.79675
  0
LINE
  8
0
 10
0.00000000
 20
0.00000000
 11
838.974854
 21
0.00000000
  0
LINE
  8
0
 10
838.974854
 20
1704.79675
 11
838.974854
 21
0.00000000
  0
TEXT
  8
11
 7
SIMPLEX
 10
14.6505986
 20
1660.84509
 40
29.3011971
  1
Bolt Dia=
 50
0.00000000
  0
TEXT
  8
11
 7
SIMPLEX
 10
14.6505986
 20
1624.21851
 40
29.3011971
  1
Plate Thk=
 50
0.00000000
  0
TEXT
  8
11
 7
SIMPLEX
 10
308.932556
 20
1660.84509
 40
29.3011971
  1
20
 50
0.00000000
  0
TEXT
  8
11
 7
SIMPLEX
 10
308.932556
 20
1624.21851
 40
29.3011971
  1
16
 50
0.00000000
  0
TEXT
  8
11
 7
SIMPLEX
 10
29.3011971
 20
14.6505986
 40
29.3011971
  1
BP2
 50
0.00000000
  0
LINE
  8
0
 10
314.615570
 20
494.391144
 11
314.615570
 21
1210.40576
  0
LINE
  8
0
 10
314.615570
 20
1210.40576
 11
524.359253
 21
1210.40576
  0
LINE
  8
0
 10
524.359253
 20
1210.40576
 11
524.359253
 21
494.391144
  0
LINE
  8
0
 10
314.615570
 20
494.391144
 11
524.359253
 21
494.391144
  0
CIRCLE
  8
0
 10
367.051514
 20
931.955689
 40
7.32529926
  0
CIRCLE
  8
0
 10
471.923370
 20
931.955689
 40
7.32529926
  0
CIRCLE
  8
0
 10
367.051514
 20
772.841309
 40
7.32529926
  0
CIRCLE
  8
0
 10
471.923370
 20
772.841309
 40
7.32529926
  0
LINE
  8
2
 10
595.037292
 20
494.391144
 11
595.037292
 21
772.841309
  0
INSERT
  8
2
  2
ARROWF
 10
595.037292
 20
494.391144
 41
0.33300000
 42
0.33300000
 43
0.33300000
 50
270.000000
  0
INSERT
  8
2
  2
ARROWF
 10
595.037292
 20
772.841309
 41
0.33300000
 42
0.33300000
 43
0.33300000
 50
89.9999847
  0
LINE
  8
2
 10
575.503174
 20
772.841309
 11
604.804382
 21
772.841309
  0
LINE
  8
2
 10
575.503174
 20
494.391144
 11
604.804382
 21
494.391144
  0
TEXT
  8
11
 7
SIMPLEX
 10
609.687927
 20
618.965576
 40
29.3011971
  1
175
 50
0.00000000
  0
LINE
  8
2
 10
595.037292
 20
772.841309
 11
595.037292
 21
931.955689
  0
INSERT
  8
2
  2
ARROWF
 10
595.037292
 20
772.841309
 41
0.33300000
 42
0.33300000
 43
0.33300000
 50
270.000000
  0
INSERT
  8
2
  2
ARROWF
 10
595.037292
 20
931.955689
 41
0.33300000
 42
0.33300000
 43
0.33300000
 50
89.9999847
  0
LINE
  8
2
 10
575.503174
 20
931.955689
 11
604.804382
 21
931.955689
  0
LINE
  8
2
 10
575.503174
 20
772.841309
 11
604.804382
 21
772.841309
  0
TEXT
  8
11
 7
SIMPLEX
 10
609.687927
 20
837.747986
 40
29.3011971
  1
100
 50
0.00000000
  0
LINE
  8
2
 10
595.037292
 20
931.955689
 11
595.037292
 21
1210.40576
  0
INSERT
  8
2
  2
ARROWF
 10
595.037292
 20
931.955689
 41
0.33300000
 42
0.33300000
 43
0.33300000
 50
270.000000
  0
INSERT
  8
2
  2
ARROWF
 10
595.037292
 20
1210.40576
 41
0.33300000
 42
0.33300000
 43
0.33300000
 50
89.9999847
  0
LINE
  8
2
 10
575.503174
 20
1210.40576
 11
604.804382
 21
1210.40576
  0
LINE
  8
2
 10
575.503174
 20
931.955689
 11
604.804382
 21
931.955689
  0
TEXT
  8
11
 7
SIMPLEX
 10
609.687927
 20
1056.53015
 40
29.3011971
  1
175
 50
0.00000000
  0
LINE
  8
2
 10
367.051514
 20
423.713074
 11
471.923309
 21
423.713074
  0
LINE
  8
2
 10
367.051514
 20
443.247223
 11
367.051514
 21
413.945984
  0
LINE
  8
2
 10
471.923309
 20
443.247223
 11
471.923309
 21
413.945984
  0
INSERT
  8
2
  2
ARROWF
 10
367.051514
 20
423.713074
 41
0.33300000
 42
0.33300000
 43
0.33300000
 50
180.000000
  0
INSERT
  8
2
  2
ARROWF
 10
471.923309
 20
423.713074
 41
0.33300000
 42
0.33300000
 43
0.33300000
 50
0.00000000
  0
TEXT
  8
11
 7
SIMPLEX
 10
386.523560
 20
387.086609
 40
29.3011971
  1
100
 50
0.00000000
  0
LINE
  8
2
 10
243.937531
 20
435.847321
 11
243.937546
 21
494.391144
  0
LINE
  8
2
 10
243.937546
 20
534.169739
 11
243.937592
 21
592.713501
  0
INSERT
  8
2
  2
ARROWF
 10
243.937546
 20
494.391144
 41
0.33300000
 42
0.33300000
 43
0.33300000
 50
450.000000
  0
INSERT
  8
2
  2
ARROWF
 10
243.937546
 20
534.169739
 41
0.33300000
 42
0.33300000
 43
0.33300000
 50
270.000000
  0
LINE
  8
2
 10
234.170486
 20
534.169739
 11
263.471680
 21
534.169739
  0
LINE
  8
2
 10
234.170486
 20
494.391144
 11
263.471680
 21
494.391144
  0
TEXT
  8
11
 7
SIMPLEX
 10
178.009857
 20
499.629822
 40
29.3011971
  1
25
 72
           2
 11
236.612244
 21
514.280396
 73
           2
 50
   0.000
  0
LINE
  8
2
 10
243.937546
 20
534.169739
 11
243.937546
 21
1186.53857
  0
INSERT
  8
2
  2
ARROWF
 10
243.937546
 20
534.169739
 41
0.33300000
 42
0.33300000
 43
0.33300000
 50
270.000000
  0
INSERT
  8
2
  2
ARROWF
 10
243.937546
 20
1186.53857
 41
0.33300000
 42
0.33300000
 43
0.33300000
 50
89.9999847
  0
LINE
  8
2
 10
234.170486
 20
1186.53857
 11
263.471680
 21
1186.53857
  0
LINE
  8
2
 10
234.170486
 20
534.169739
 11
263.471680
 21
534.169739
  0
TEXT
  8
11
 7
SIMPLEX
 10
207.311066
 20
821.530090
 40
29.3011971
  1
410
 72
           1
 11
236.612244
 21
860.354187
 73
           1
 50
  90.000
  0
LINE
  8
2
 10
243.937531
 20
1127.99475
 11
243.937546
 21
1186.53857
  0
LINE
  8
2
 10
243.937546
 20
1210.40576
 11
243.937592
 21
1268.94959
  0
INSERT
  8
2
  2
ARROWF
 10
243.937546
 20
1186.53857
 41
0.33300000
 42
0.33300000
 43
0.33300000
 50
450.000000
  0
INSERT
  8
2
  2
ARROWF
 10
243.937546
 20
1210.40576
 41
0.33300000
 42
0.33300000
 43
0.33300000
 50
270.000000
  0
LINE
  8
2
 10
234.170486
 20
1210.40576
 11
263.471680
 21
1210.40576
  0
LINE
  8
2
 10
234.170486
 20
1186.53857
 11
263.471680
 21
1186.53857
  0
TEXT
  8
11
 7
SIMPLEX
 10
188.265274
 20
1183.82166
 40
29.3011971
  1
15
 72
           2
 11
236.612244
 21
1198.47217
 73
           2
 50
   0.000
  0
LINE
  8
2
 10
129.041336
 20
494.391144
 11
158.342529
 21
494.391144
  0
LINE
  8
2
 10
129.041336
 20
1210.40576
 11
158.342529
 21
1210.40576
  0
LINE
  8
2
 10
138.808395
 20
494.391144
 11
138.808395
 21
1210.40576
  0
INSERT
  8
2
  2
ARROWF
 10
138.808395
 20
494.391144
 41
0.33300000
 42
0.33300000
 43
0.33300000
 50
270.000000
  0
INSERT
  8
2
  2
ARROWF
 10
138.808395
 20
1210.40576
 41
0.33300000
 42
0.33300000
 43
0.33300000
 50
90.0000000
  0
TEXT
  8
11
 7
SIMPLEX
 10
131.483093
 20
819.434570
 40
29.3011971
  1
450
 50
90.0000000
  0
LINE
  8
2
 10
314.615570
 20
1281.08374
 11
524.359253
 21
1281.08374
  0
LINE
  8
2
 10
314.615570
 20
1290.85083
 11
314.615570
 21
1261.54968
  0
LINE
  8
2
 10
524.359253
 20
1290.85083
 11
524.359253
 21
1261.54968
  0
INSERT
  8
2
  2
ARROWF
 10
314.615570
 20
1281.08374
 41
0.33300000
 42
0.33300000
 43
0.33300000
 50
180.000000
  0
INSERT
  8
2
  2
ARROWF
 10
524.359253
 20
1281.08374
 41
0.33300000
 42
0.33300000
 43
0.33300000
 50
0.00000000
  0
TEXT
  8
11
 7
SIMPLEX
 10
386.523560
 20
1288.40918
 40
29.3011971
  1
200
 50
0.00000000
  0
LINE
  8
0
 10
340.833557
 20
534.169739
 11
498.141327
 21
534.169739
  0
LINE
  8
0
 10
340.833557
 20
560.807190
 11
498.141327
 21
560.807190
  0
LINE
  8
0
 10
340.833557
 20
534.169739
 11
340.833557
 21
560.807190
  0
LINE
  8
0
 10
498.141327
 20
534.169739
 11
498.141327
 21
560.807190
  0
LINE
  8
0
 10
340.833557
 20
1186.53857
 11
498.141327
 21
1186.53857
  0
LINE
  8
0
 10
340.833557
 20
1159.90112
 11
498.141327
 21
1159.90112
  0
LINE
  8
0
 10
340.833557
 20
1186.53857
 11
340.833557
 21
1159.90112
  0
LINE
  8
0
 10
498.141327
 20
1186.53857
 11
498.141327
 21
1159.90112
  0
LINE
  8
0
 10
432.806122
 20
560.807190
 11
432.806122
 21
1159.90112
  0
LINE
  8
0
 10
406.168671
 20
560.807190
 11
406.168671
 21
1159.90112
  0
ENDBLK
  8
0
  0
BLOCK
  8
0
  2
EPBLK5
 70
     0
 10
0.00000000
 20
0.00000000
  0
LINE
  8
0
 10
0.00000000
 20
0.00000000
 11
0.00000000
 21
1704.79675
  0
LINE
  8
0
 10
0.00000000
 20
1704.79675
 11
838.974854
 21
1704.79675
  0
LINE
  8
0
 10
0.00000000
 20
0.00000000
 11
838.974854
 21
0.00000000
  0
LINE
  8
0
 10
838.974854
 20
1704.79675
 11
838.974854
 21
0.00000000
  0
TEXT
  8
11
 7
SIMPLEX
 10
14.6505986
 20
1660.84509
 40
29.3011971
  1
Bolt Dia=
 50
0.00000000
  0
TEXT
  8
11
 7
SIMPLEX
 10
14.6505986
 20
1624.21851
 40
29.3011971
  1
Plate Thk=
 50
0.00000000
  0
TEXT
  8
11
 7
SIMPLEX
 10
308.932556
 20
1660.84509
 40
29.3011971
  1
20
 50
0.00000000
  0
TEXT
  8
11
 7
SIMPLEX
 10
308.932556
 20
1624.21851
 40
29.3011971
  1
16
 50
0.00000000
  0
TEXT
  8
11
 7
SIMPLEX
 10
29.3011971
 20
14.6505986
 40
29.3011971
  1
CP-1
 50
0.00000000
  0
LINE
  8
0
 10
314.615570
 20
494.391144
 11
314.615570
 21
1210.40576
  0
LINE
  8
0
 10
314.615570
 20
1210.40576
 11
524.359253
 21
1210.40576
  0
LINE
  8
0
 10
524.359253
 20
1210.40576
 11
524.359253
 21
494.391144
  0
LINE
  8
0
 10
314.615570
 20
494.391144
 11
524.359253
 21
494.391144
  0
CIRCLE
  8
0
 10
367.051514
 20
913.521729
 40
7.32529926
  0
CIRCLE
  8
0
 10
471.923370
 20
913.521729
 40
7.32529926
  0
CIRCLE
  8
0
 10
367.051514
 20
791.275208
 40
7.32529926
  0
CIRCLE
  8
0
 10
471.923370
 20
791.275208
 40
7.32529926
  0
LINE
  8
2
 10
595.037292
 20
494.391144
 11
595.037292
 21
791.275208
  0
INSERT
  8
2
  2
ARROWF
 10
595.037292
 20
494.391144
 41
0.33300000
 42
0.33300000
 43
0.33300000
 50
270.000000
  0
INSERT
  8
2
  2
ARROWF
 10
595.037292
 20
791.275208
 41
0.33300000
 42
0.33300000
 43
0.33300000
 50
89.9999847
  0
LINE
  8
2
 10
575.503174
 20
791.275208
 11
604.804382
 21
791.275208
  0
LINE
  8
2
 10
575.503174
 20
494.391144
 11
604.804382
 21
494.391144
  0
TEXT
  8
11
 7
SIMPLEX
 10
609.687927
 20
628.182556
 40
29.3011971
  1
170
 50
0.00000000
  0
LINE
  8
2
 10
595.037292
 20
791.275208
 11
595.037292
 21
913.521729
  0
INSERT
  8
2
  2
ARROWF
 10
595.037292
 20
791.275208
 41
0.33300000
 42
0.33300000
 43
0.33300000
 50
270.000000
  0
INSERT
  8
2
  2
ARROWF
 10
595.037292
 20
913.521729
 41
0.33300000
 42
0.33300000
 43
0.33300000
 50
89.9999847
  0
LINE
  8
2
 10
575.503174
 20
913.521729
 11
604.804382
 21
913.521729
  0
LINE
  8
2
 10
575.503174
 20
791.275208
 11
604.804382
 21
791.275208
  0
TEXT
  8
11
 7
SIMPLEX
 10
609.687927
 20
837.747986
 40
29.3011971
  1
70
 50
0.00000000
  0
LINE
  8
2
 10
595.037292
 20
913.521729
 11
595.037292
 21
1210.40576
  0
INSERT
  8
2
  2
ARROWF
 10
595.037292
 20
913.521729
 41
0.33300000
 42
0.33300000
 43
0.33300000
 50
270.000000
  0
INSERT
  8
2
  2
ARROWF
 10
595.037292
 20
1210.40576
 41
0.33300000
 42
0.33300000
 43
0.33300000
 50
89.9999847
  0
LINE
  8
2
 10
575.503174
 20
1210.40576
 11
604.804382
 21
1210.40576
  0
LINE
  8
2
 10
575.503174
 20
913.521729
 11
604.804382
 21
913.521729
  0
TEXT
  8
11
 7
SIMPLEX
 10
609.687927
 20
1047.31323
 40
29.3011971
  1
170
 50
0.00000000
  0
LINE
  8
2
 10
367.051514
 20
423.713074
 11
471.923309
 21
423.713074
  0
LINE
  8
2
 10
367.051514
 20
443.247223
 11
367.051514
 21
413.945984
  0
LINE
  8
2
 10
471.923309
 20
443.247223
 11
471.923309
 21
413.945984
  0
INSERT
  8
2
  2
ARROWF
 10
367.051514
 20
423.713074
 41
0.33300000
 42
0.33300000
 43
0.33300000
 50
180.000000
  0
INSERT
  8
2
  2
ARROWF
 10
471.923309
 20
423.713074
 41
0.33300000
 42
0.33300000
 43
0.33300000
 50
0.00000000
  0
TEXT
  8
11
 7
SIMPLEX
 10
386.523560
 20
387.086609
 40
29.3011971
  1
100
 50
0.00000000
  0
LINE
  8
2
 10
129.041336
 20
494.391144
 11
158.342529
 21
494.391144
  0
LINE
  8
2
 10
129.041336
 20
1210.40576
 11
158.342529
 21
1210.40576
  0
LINE
  8
2
 10
138.808395
 20
494.391144
 11
138.808395
 21
1210.40576
  0
INSERT
  8
2
  2
ARROWF
 10
138.808395
 20
494.391144
 41
0.33300000
 42
0.33300000
 43
0.33300000
 50
270.000000
  0
INSERT
  8
2
  2
ARROWF
 10
138.808395
 20
1210.40576
 41
0.33300000
 42
0.33300000
 43
0.33300000
 50
90.0000000
  0
TEXT
  8
11
 7
SIMPLEX
 10
131.483093
 20
819.434570
 40
29.3011971
  1
410
 50
90.0000000
  0
LINE
  8
2
 10
314.615570
 20
1281.08374
 11
524.359253
 21
1281.08374
  0
LINE
  8
2
 10
314.615570
 20
1290.85083
 11
314.615570
 21
1261.54968
  0
LINE
  8
2
 10
524.359253
 20
1290.85083
 11
524.359253
 21
1261.54968
  0
INSERT
  8
2
  2
ARROWF
 10
314.615570
 20
1281.08374
 41
0.33300000
 42
0.33300000
 43
0.33300000
 50
180.000000
  0
INSERT
  8
2
  2
ARROWF
 10
524.359253
 20
1281.08374
 41
0.33300000
 42
0.33300000
 43
0.33300000
 50
0.00000000
  0
TEXT
  8
11
 7
SIMPLEX
 10
386.523560
 20
1288.40918
 40
29.3011971
  1
200
 50
0.00000000
  0
LINE
  8
0
 10
340.833557
 20
503.996216
 11
498.141327
 21
503.996216
  0
LINE
  8
0
 10
340.833557
 20
530.633667
 11
498.141327
 21
530.633667
  0
LINE
  8
0
 10
340.833557
 20
503.996216
 11
340.833557
 21
530.633667
  0
LINE
  8
0
 10
498.141327
 20
503.996216
 11
498.141327
 21
530.633667
  0
LINE
  8
0
 10
340.833557
 20
1210.40576
 11
498.141327
 21
1210.40576
  0
LINE
  8
0
 10
340.833557
 20
1183.76831
 11
498.141327
 21
1183.76831
  0
LINE
  8
0
 10
340.833557
 20
1210.40576
 11
340.833557
 21
1183.76831
  0
LINE
  8
0
 10
498.141327
 20
1210.40576
 11
498.141327
 21
1183.76831
  0
LINE
  8
0
 10
432.806122
 20
530.633667
 11
432.806122
 21
1183.76831
  0
LINE
  8
0
 10
406.168671
 20
530.633667
 11
406.168671
 21
1183.76831
  0
ENDBLK
  8
0
  0
BLOCK
  8
1
  2
RF1TBL
 70
     0
 10
0.00000000
 20
0.00000000
  0
TEXT
  8
14
 7
SIMPLEX
 10
-9727.9971
 20
-146.50598
 40
117.204788
  1
MEMBER TABLE
 50
0.00000000
  0
TEXT
  8
14
 7
SIMPLEX
 10
-9727.9971
 20
-439.51797
 40
117.204788
  1
Mark
 50
0.00000000
  0
TEXT
  8
14
 7
SIMPLEX
 10
-8848.9609
 20
-322.31314
 40
117.204788
  1
Web Depth
 50
0.00000000
  0
TEXT
  8
14
 7
SIMPLEX
 10
-8790.3594
 20
-498.12033
 40
117.204788
  1
Start/End
 50
0.00000000
  0
TEXT
  8
14
 7
SIMPLEX
 10
-7501.1064
 20
-322.31314
 40
117.204788
  1
Web Plate
 50
0.00000000
  0
TEXT
  8
14
 7
SIMPLEX
 10
-7618.3110
 20
-498.12033
 40
117.204788
  1
Thick
 50
0.00000000
  0
TEXT
  8
14
 7
SIMPLEX
 10
-6973.6846
 20
-498.12033
 40
117.204788
  1
Length
 50
0.00000000
  0
TEXT
  8
14
 7
SIMPLEX
 10
-5508.6255
 20
-322.31314
 40
117.204788
  1
Outside Flange
 50
0.00000000
  0
TEXT
  8
14
 7
SIMPLEX
 10
-5508.6255
 20
-498.12033
 40
117.204788
  1
W x Thk x Length
 50
0.00000000
  0
TEXT
  8
14
 7
SIMPLEX
 10
-2695.7102
 20
-322.31314
 40
117.204788
  1
Inside Flange
 50
0.00000000
  0
TEXT
  8
14
 7
SIMPLEX
 10
-2695.7102
 20
-498.12033
 40
117.204788
  1
W x Thk x Length
 50
0.00000000
  0
TEXT
  8
26
 7
SIMPLEX
 10
-9727.9971
 20
-673.92749
 40
117.204788
  1
 CL1-6
 50
0.00000000
  0
TEXT
  8
26
 7
SIMPLEX
 10
-8790.3584
 20
-673.92749
 40
117.204788
  1
 400/ 700
 50
0.00000000
  0
TEXT
  8
26
 7
SIMPLEX
 10
-7676.9136
 20
-673.92749
 40
117.204788
  1
    5
 50
0.00000000
  0
TEXT
  8
26
 7
SIMPLEX
 10
-6973.6846
 20
-673.92749
 40
117.204788
  1
 4000
 50
0.00000000
  0
TEXT
  8
26
 7
SIMPLEX
 10
-8790.3584
 20
-849.73474
 40
117.204788
  1
 700/ 700
 50
0.00000000
  0
TEXT
  8
26
 7
SIMPLEX
 10
-7676.9136
 20
-849.73474
 40
117.204788
  1
    5
 50
0.00000000
  0
TEXT
  8
26
 7
SIMPLEX
 10
-6973.6846
 20
-849.73474
 40
117.204788
  1
 3918
 50
0.00000000
  0
TEXT
  8
26
 7
SIMPLEX
 10
-5450.0225
 20
-673.92749
 40
117.204788
  1
150 x 6 x 7918
 50
0.00000000
  0
TEXT
  8
26
 7
SIMPLEX
 10
-2637.1079
 20
-673.92749
 40
117.204788
  1
150 x 6 x 4011
 50
0.00000000
  0
TEXT
  8
26
 7
SIMPLEX
 10
-2637.1079
 20
-849.73474
 40
117.204788
  1
150 x 6 x 3918
 50
0.00000000
  0
TEXT
  8
26
 7
SIMPLEX
 10
-9727.9971
 20
-1025.5419
 40
117.204788
  1
 RF1-2
 50
0.00000000
  0
TEXT
  8
26
 7
SIMPLEX
 10
-8790.3584
 20
-1025.5419
 40
117.204788
  1
 300/ 401
 50
0.00000000
  0
TEXT
  8
26
 7
SIMPLEX
 10
-7676.9136
 20
-1025.5419
 40
117.204788
  1
    4
 50
0.00000000
  0
TEXT
  8
26
 7
SIMPLEX
 10
-6973.6846
 20
-1025.5419
 40
117.204788
  1
 4294
 50
0.00000000
  0
TEXT
  8
26
 7
SIMPLEX
 10
-5450.0225
 20
-1025.5419
 40
117.204788
  1
125 x 5 x 4489
 50
0.00000000
  0
TEXT
  8
26
 7
SIMPLEX
 10
-5450.0225
 20
-1201.3490
 40
117.204788
  1
125 x 5 x 322
 50
0.00000000
  0
TEXT
  8
26
 7
SIMPLEX
 10
-2637.1079
 20
-1025.5419
 40
117.204788
  1
125 x 5 x 3497
 50
0.00000000
  0
TEXT
  8
26
 7
SIMPLEX
 10
-9727.9971
 20
-1377.1563
 40
117.204788
  1
 RF1-3
 50
0.00000000
  0
TEXT
  8
26
 7
SIMPLEX
 10
-8790.3584
 20
-1377.1563
 40
117.204788
  1
 300/ 300
 50
0.00000000
  0
TEXT
  8
26
 7
SIMPLEX
 10
-7676.9136
 20
-1377.1563
 40
117.204788
  1
    4
 50
0.00000000
  0
TEXT
  8
26
 7
SIMPLEX
 10
-6973.6846
 20
-1377.1563
 40
117.204788
  1
 4189
 50
0.00000000
  0
TEXT
  8
26
 7
SIMPLEX
 10
-5450.0225
 20
-1377.1563
 40
117.204788
  1
125 x 5 x 4189
 50
0.00000000
  0
TEXT
  8
26
 7
SIMPLEX
 10
-2637.1079
 20
-1377.1563
 40
117.204788
  1
125 x 5 x 4189
 50
0.00000000
  0
TEXT
  8
26
 7
SIMPLEX
 10
-9727.9971
 20
-1552.9634
 40
117.204788
  1
 RF1-4
 50
0.00000000
  0
TEXT
  8
26
 7
SIMPLEX
 10
-8790.3584
 20
-1552.9634
 40
117.204788
  1
 302/ 553
 50
0.00000000
  0
TEXT
  8
26
 7
SIMPLEX
 10
-7676.9136
 20
-1552.9634
 40
117.204788
  1
    4
 50
0.00000000
  0
TEXT
  8
26
 7
SIMPLEX
 10
-6973.6846
 20
-1552.9634
 40
117.204788
  1
 5053
 50
0.00000000
  0
TEXT
  8
26
 7
SIMPLEX
 10
-5450.0225
 20
-1552.9634
 40
117.204788
  1
150 x 5 x 2539
 50
0.00000000
  0
TEXT
  8
26
 7
SIMPLEX
 10
-5450.0225
 20
-1728.7706
 40
117.204788
  1
150 x 5 x 2539
 50
0.00000000
  0
TEXT
  8
26
 7
SIMPLEX
 10
-2637.1079
 20
-1552.9634
 40
117.204788
  1
150 x 5 x 4992
 50
0.00000000
  0
TEXT
  8
26
 7
SIMPLEX
 10
-9727.9971
 20
-1904.5778
 40
117.204788
  1
 CL1-7
 50
0.00000000
  0
TEXT
  8
26
 7
SIMPLEX
 10
-8790.3584
 20
-1904.5778
 40
117.204788
  1
 400/ 700
 50
0.00000000
  0
TEXT
  8
26
 7
SIMPLEX
 10
-7676.9136
 20
-1904.5778
 40
117.204788
  1
    5
 50
0.00000000
  0
TEXT
  8
26
 7
SIMPLEX
 10
-6973.6846
 20
-1904.5778
 40
117.204788
  1
 4234
 50
0.00000000
  0
TEXT
  8
26
 7
SIMPLEX
 10
-8790.3584
 20
-2080.3850
 40
117.204788
  1
 700/ 700
 50
0.00000000
  0
TEXT
  8
26
 7
SIMPLEX
 10
-7676.9136
 20
-2080.3850
 40
117.204788
  1
    5
 50
0.00000000
  0
TEXT
  8
26
 7
SIMPLEX
 10
-6973.6846
 20
-2080.3850
 40
117.204788
  1
 3684
 50
0.00000000
  0
TEXT
  8
26
 7
SIMPLEX
 10
-5450.0225
 20
-1904.5778
 40
117.204788
  1
150 x 6 x 7918
 50
0.00000000
  0
TEXT
  8
26
 7
SIMPLEX
 10
-2637.1079
 20
-1904.5778
 40
117.204788
  1
150 x 6 x 4244
 50
0.00000000
  0
TEXT
  8
26
 7
SIMPLEX
 10
-2637.1079
 20
-2080.3850
 40
117.204788
  1
150 x 6 x 3684
 50
0.00000000
  0
TEXT
  8
26
 7
SIMPLEX
 10
-9727.9971
 20
-2256.1921
 40
117.204788
  1
EC-2
 50
0.00000000
  0
TEXT
  8
26
 7
SIMPLEX
 10
-8790.3584
 20
-2256.1921
 40
117.204788
  1
W40b155
 50
0.00000000
  0
LINE
  8
0
 10
-9845.2021
 20
-2285.4934
 11
0.00000000
 21
-2285.4934
  0
LINE
  8
0
 10
-9845.2021
 20
0.00000000
 11
-9845.2021
 21
-2285.4934
  0
LINE
  8
0
 10
0.00000000
 20
0.00000000
 11
0.00000000
 21
-2285.4934
  0
LINE
  8
0
 10
-9845.2021
 20
0.00000000
 11
0.00000000
 21
0.00000000
  0
LINE
  8
0
 10
-9845.2021
 20
-2285.4934
 11
0.00000000
 21
-2285.4934
  0
LINE
  8
0
 10
-9845.2021
 20
-175.80717
 11
0.00000000
 21
-175.80717
  0
LINE
  8
0
 10
-8907.5635
 20
-175.80717
 11
-8907.5635
 21
-2285.4934
  0
LINE
  8
0
 10
-7735.5161
 20
-175.80717
 11
-7735.5161
 21
-2285.4934
  0
LINE
  8
0
 10
-5567.2275
 20
-175.80717
 11
-5567.2275
 21
-2285.4934
  0
LINE
  8
0
 10
-2754.3127
 20
-175.80717
 11
-2754.3127
 21
-2285.4934
  0
LINE
  8
0
 10
-9845.2021
 20
-175.80717
 11
-9845.2021
 21
-2285.4934
  0
LINE
  8
0
 10
-9845.2021
 20
-175.80717
 11
-9845.2021
 21
-2285.4934
  0
LINE
  8
0
 10
-9845.2021
 20
-175.80717
 11
-9845.2021
 21
-2285.4934
  0
LINE
  8
0
 10
-8907.5635
 20
-351.61435
 11
-5567.2275
 21
-351.61435
  0
LINE
  8
0
 10
-7090.8896
 20
-351.61435
 11
-7090.8896
 21
-2285.4934
  0
LINE
  8
0
 10
-9845.2021
 20
-527.42151
 11
0.00000000
 21
-527.42151
  0
ENDBLK
  8
1
  0
BLOCK
  8
1
  2
RF1CPL
 70
     0
 10
0.00000000
 20
11.4299994
  0
LINE
  8
3
 10
0.00000000
 20
11.4299994
 11
80.7719956
 21
11.4299994
  0
LINE
  8
3
 10
0.00000000
 20
8.38199900
 11
80.7719956
 21
8.38199900
  0
LINE
  8
3
 10
0.00000000
 20
3.04799962
 11
80.7719956
 21
3.04799962
  0
LINE
  8
3
 10
0.00000000
 20
-0.0000002
 11
80.7719956
 21
-0.0000002
  0
LINE
  8
3
 10
0.00000000
 20
0.00000000
 11
80.7719956
 21
0.00000000
  0
LINE
  8
3
 10
0.00000000
 20
11.4299994
 11
0.00000000
 21
0.00000000
  0
LINE
  8
3
 10
80.7719956
 20
0.00000000
 11
80.7719956
 21
11.4299994
  0
LINE
  8
3
 10
12.1919994
 20
8.38199900
 11
12.1919994
 21
-0.0000002
  0
LINE
  8
3
 10
47.2439995
 20
8.38199900
 11
47.2439995
 21
-0.0000002
  0
TEXT
  8
1
 7
SIMPLEX
 10
1.52400004
 20
9.14399910
 40
1.52400004
  1
CAP PLATES
 50
0.00000000
  0
TEXT
  8
1
 7
SIMPLEX
 10
1.52400004
 20
6.09599924
 40
1.52400004
  1
Col
 50
0.00000000
  0
TEXT
  8
1
 7
SIMPLEX
 10
1.52400004
 20
3.80999968
 40
1.52400004
  1
Id
 50
0.00000000
  0
TEXT
  8
1
 7
SIMPLEX
 10
13.7159987
 20
3.80999968
 40
1.52400004
  1
Qnt
 50
0.00000000
  0
TEXT
  8
1
 7
SIMPLEX
 10
21.3359985
 20
6.09599924
 40
1.52400004
  1
------Bolt------
 50
0.00000000
  0
TEXT
  8
1
 7
SIMPLEX
 10
21.3359985
 20
3.80999968
 40
1.52400004
  1
Type
 50
0.00000000
  0
TEXT
  8
1
 7
SIMPLEX
 10
30.4799977
 20
3.80999968
 40
1.52400004
  1
Dia
 50
0.00000000
  0
TEXT
  8
1
 7
SIMPLEX
 10
39.6239968
 20
3.80999968
 40
1.52400004
  1
Len
 50
0.00000000
  0
TEXT
  8
1
 7
SIMPLEX
 10
57.9119987
 20
6.09599924
 40
1.52400004
  1
Plate Size
 50
0.00000000
  0
TEXT
  8
1
 7
SIMPLEX
 10
50.2919960
 20
3.80999968
 40
1.52400004
  1
Width
 50
0.00000000
  0
TEXT
  8
1
 7
SIMPLEX
 10
59.4360008
 20
3.80999968
 40
1.52400004
  1
Thick
 50
0.00000000
  0
TEXT
  8
1
 7
SIMPLEX
 10
68.5800019
 20
3.80999968
 40
1.52400004
  1
Length
 50
0.00000000
  0
TEXT
  8
1
 7
SIMPLEX
 10
1.52400004
 20
0.76199984
 40
1.52400004
  1
EC-2
 50
0.00000000
  0
TEXT
  8
1
 7
SIMPLEX
 10
10.6679993
 20
0.76199984
 40
1.52400004
  1
   4
 50
0.00000000
  0
TEXT
  8
1
 7
SIMPLEX
 10
21.3359985
 20
0.76199984
 40
1.52400004
  1
Gr8.8
 50
0.00000000
  0
TEXT
  8
1
 7
SIMPLEX
 10
22.8599987
 20
0.76199984
 40
1.52400004
  1
        20
 50
0.00000000
  0
TEXT
  8
1
 7
SIMPLEX
 10
32.0039978
 20
0.76199984
 40
1.52400004
  1
        90
 50
0.00000000
  0
TEXT
  8
1
 7
SIMPLEX
 10
42.6719971
 20
0.76199984
 40
1.52400004
  1
       200
 50
0.00000000
  0
TEXT
  8
1
 7
SIMPLEX
 10
51.8159981
 20
0.76199984
 40
1.52400004
  1
        16
 50
0.00000000
  0
TEXT
  8
1
 7
SIMPLEX
 10
62.4840012
 20
0.76199984
 40
1.52400004
  1
       410
 50
0.00000000
  0
ENDBLK
  8
1
  0
BLOCK
  8
1
  2
RF1BLT1
 70
     0
 10
0.00000000
 20
22.8599987
  0
LINE
  8
3
 10
0.00000000
 20
22.8599987
 11
134.620010
 21
22.8599987
  0
LINE
  8
3
 10
0.00000000
 20
17.7799988
 11
134.620010
 21
17.7799988
  0
LINE
  8
3
 10
0.00000000
 20
8.88999936
 11
134.620010
 21
8.88999936
  0
LINE
  8
3
 10
0.00000000
 20
0.00000000
 11
134.620010
 21
0.00000000
  0
LINE
  8
3
 10
0.00000000
 20
0.00000000
 11
134.620010
 21
0.00000000
  0
LINE
  8
3
 10
0.00000000
 20
22.8599987
 11
0.00000000
 21
0.00000000
  0
LINE
  8
3
 10
134.620010
 20
0.00000000
 11
134.620010
 21
22.8599987
  0
LINE
  8
3
 10
20.3199997
 20
17.7799988
 11
20.3199997
 21
0.00000000
  0
LINE
  8
3
 10
88.9000015
 20
17.7799988
 11
88.9000015
 21
0.00000000
  0
TEXT
  8
1
 7
SIMPLEX
 10
2.53999996
 20
19.0499992
 40
2.53999996
  1
SPLICE PLATES & BOLTS
 50
0.00000000
  0
TEXT
  8
1
 7
SIMPLEX
 10
2.53999996
 20
13.9699984
 40
2.53999996
  1
Splice
 50
0.00000000
  0
TEXT
  8
1
 7
SIMPLEX
 10
2.53999996
 20
10.1599989
 40
2.53999996
  1
Mark
 50
0.00000000
  0
TEXT
  8
1
 7
SIMPLEX
 10
22.8600006
 20
13.9699984
 40
2.53999996
  1
Quan
 50
0.00000000
  0
TEXT
  8
1
 7
SIMPLEX
 10
21.5900002
 20
10.1599989
 40
2.53999996
  1
Top/Bot/Int
 50
0.00000000
  0
TEXT
  8
1
 7
SIMPLEX
 10
48.2599983
 20
10.1599989
 40
2.53999996
  1
Type
 50
0.00000000
  0
TEXT
  8
1
 7
SIMPLEX
 10
63.5000000
 20
10.1599989
 40
2.53999996
  1
Dia
 50
0.00000000
  0
TEXT
  8
1
 7
SIMPLEX
 10
78.7400055
 20
10.1599989
 40
2.53999996
  1
Len
 50
0.00000000
  0
TEXT
  8
1
 7
SIMPLEX
 10
48.2599983
 20
13.9699984
 40
2.53999996
  1
-----Bolt-----
 50
0.00000000
  0
TEXT
  8
1
 7
SIMPLEX
 10
91.4400025
 20
10.1599989
 40
2.53999996
  1
Wid
 50
0.00000000
  0
TEXT
  8
1
 7
SIMPLEX
 10
105.410004
 20
10.1599989
 40
2.53999996
  1
Thick
 50
0.00000000
  0
TEXT
  8
1
 7
SIMPLEX
 10
119.380005
 20
10.1599989
 40
2.53999996
  1
Length
 50
0.00000000
  0
TEXT
  8
1
 7
SIMPLEX
 10
99.0599976
 20
13.9699984
 40
2.53999996
  1
Plate Size
 50
0.00000000
  0
TEXT
  8
1
 7
SIMPLEX
 10
2.53999996
 20
5.07999945
 40
2.53999996
  1
SP1
 50
0.00000000
  0
TEXT
  8
1
 7
SIMPLEX
 10
22.8600006
 20
5.07999945
 40
2.53999996
  1
   4
 50
0.00000000
  0
TEXT
  8
1
 7
SIMPLEX
 10
31.7500000
 20
5.07999945
 40
2.53999996
  1
   4
 50
0.00000000
  0
TEXT
  8
1
 7
SIMPLEX
 10
40.6399994
 20
5.07999945
 40
2.53999996
  1
   2
 50
0.00000000
  0
TEXT
  8
1
 7
SIMPLEX
 10
48.2599983
 20
5.07999945
 40
2.53999996
  1
Gr8.8
 50
0.00000000
  0
TEXT
  8
1
 7
SIMPLEX
 10
62.2299957
 20
5.07999945
 40
2.53999996
  1
        20
 50
0.00000000
  0
TEXT
  8
1
 7
SIMPLEX
 10
76.1999970
 20
5.07999945
 40
2.53999996
  1
        90
 50
0.00000000
  0
TEXT
  8
1
 7
SIMPLEX
 10
91.4400025
 20
5.07999945
 40
2.53999996
  1
       200
 50
0.00000000
  0
TEXT
  8
1
 7
SIMPLEX
 10
105.410004
 20
5.07999945
 40
2.53999996
  1
        16
 50
0.00000000
  0
TEXT
  8
1
 7
SIMPLEX
 10
119.380005
 20
5.07999945
 40
2.53999996
  1
       900
 50
0.00000000
  0
TEXT
  8
1
 7
SIMPLEX
 10
2.53999996
 20
1.26999950
 40
2.53999996
  1
SP2
 50
0.00000000
  0
TEXT
  8
1
 7
SIMPLEX
 10
22.8600006
 20
1.26999950
 40
2.53999996
  1
   4
 50
0.00000000
  0
TEXT
  8
1
 7
SIMPLEX
 10
31.7500000
 20
1.26999950
 40
2.53999996
  1
   4
 50
0.00000000
  0
TEXT
  8
1
 7
SIMPLEX
 10
40.6399994
 20
1.26999950
 40
2.53999996
  1
   0
 50
0.00000000
  0
TEXT
  8
1
 7
SIMPLEX
 10
48.2599983
 20
1.26999950
 40
2.53999996
  1
Gr8.8
 50
0.00000000
  0
TEXT
  8
1
 7
SIMPLEX
 10
62.2299957
 20
1.26999950
 40
2.53999996
  1
        20
 50
0.00000000
  0
TEXT
  8
1
 7
SIMPLEX
 10
76.1999970
 20
1.26999950
 40
2.53999996
  1
        90
 50
0.00000000
  0
TEXT
  8
1
 7
SIMPLEX
 10
91.4400025
 20
1.26999950
 40
2.53999996
  1
       200
 50
0.00000000
  0
TEXT
  8
1
 7
SIMPLEX
 10
105.410004
 20
1.26999950
 40
2.53999996
  1
        16
 50
0.00000000
  0
TEXT
  8
1
 7
SIMPLEX
 10
119.380005
 20
1.26999950
 40
2.53999996
  1
       500
 50
0.00000000
  0
ENDBLK
  8
1
  0
BLOCK
  8
1
  2
RF1FBR
 70
     0
 10
0.00000000
 20
0.00000000
  0
INSERT
  8
0
  2
MARKER
 10
179.323334
 20
-351.61435
 41
0.80000000
 42
0.80000000
 43
0.80000000
 50
0.00000000
  0
TEXT
  8
14
 7
SIMPLEX
 10
331.689545
 20
-351.61435
 40
117.204788
  1
FLANGE BRACES: FBxx (1 or 2)
 50
0.00000000
  0
TEXT
  8
14
 7
SIMPLEX
 10
331.689545
 20
-527.42151
 40
117.204788
  1
  xx=length(mm)
 50
0.00000000
  0
TEXT
  8
14
 7
SIMPLEX
 10
331.689545
 20
-703.22870
 40
117.204788
  1
  (1) One Side; (2) Two Sides
 50
0.00000000
  0
TEXT
  8
14
 7
SIMPLEX
 10
331.689545
 20
-937.63831
 40
117.204788
  1
A - L40X40X4
 50
0.00000000
  0
ENDBLK
  8
1
  0
ENDSEC
  0
SECTION
  2
ENTITIES
  0
LINE
  8
22
 10
0.00000000
 20
0.00000000
 11
28189.5527
 21
0.00000000
  0
LINE
  8
22
 10
28189.5527
 20
0.00000000
 11
28189.5527
 21
19934.0430
  0
LINE
  8
22
 10
28189.5527
 20
19934.0430
 11
0.00000000
 21
19934.0430
  0
LINE
  8
22
 10
0.00000000
 20
19934.0430
 11
0.00000000
 21
0.00000000
  0
LINE
  8
0
 10
17449.3340
 20
0.00000000
 11
17449.3340
 21
1790.03662
  0
LINE
  8
0
 10
17449.3340
 20
1790.03662
 11
28189.5527
 21
1790.03662
  0
LINE
  8
0
 10
17449.3340
 20
0.00000000
 11
28189.5527
 21
0.00000000
  0
LINE
  8
0
 10
28189.5527
 20
0.00000000
 11
28189.5527
 21
1790.03662
  0
LINE
  8
0
 10
17449.3340
 20
681.918762
 11
28189.5527
 21
681.918762
  0
LINE
  8
0
 10
17449.3340
 20
1022.87805
 11
28189.5527
 21
1022.87805
  0
LINE
  8
0
 10
17449.3340
 20
1363.83765
 11
28189.5527
 21
1363.83765
  0
LINE
  8
0
 10
18983.6504
 20
0.00000000
 11
18983.6504
 21
1363.83765
  0
LINE
  8
0
 10
22819.4434
 20
0.00000000
 11
22819.4434
 21
1363.83765
  0
LINE
  8
0
 10
22819.4434
 20
340.959381
 11
28189.5527
 21
340.959381
  0
LINE
  8
0
 10
24694.7207
 20
1022.87805
 11
24694.7207
 21
681.918762
  0
LINE
  8
0
 10
26399.5176
 20
1022.87805
 11
26399.5176
 21
681.918762
  0
LINE
  8
0
 10
25547.1172
 20
681.918762
 11
25547.1172
 21
340.959381
  0
TEXT
  8
14
 7
SIMPLEX
 10
17619.8125
 20
1108.11792
 40
170.479691
  1
PROJECT
 50
0.00000000
  0
TEXT
  8
14
 7
SIMPLEX
 10
17619.8125
 20
767.158569
 40
170.479691
  1
ID
 50
0.00000000
  0
TEXT
  8
14
 7
SIMPLEX
 10
17619.8125
 20
426.199219
 40
170.479691
  1
PROJECT
 50
0.00000000
  0
TEXT
  8
14
 7
SIMPLEX
 10
17619.8125
 20
85.2398453
 40
170.479691
  1
ADDRESS
 50
0.00000000
  0
TEXT
  8
14
 7
SIMPLEX
 10
19154.1289
 20
1108.11792
 40
170.479691
  1
Proposed Warehouse
 50
0.00000000
  0
TEXT
  8
14
 7
SIMPLEX
 10
19154.1289
 20
767.158569
 40
170.479691
  1
C323-153
 50
0.00000000
  0
TEXT
  8
14
 7
SIMPLEX
 10
19154.1289
 20
426.199219
 40
170.479691
  1
Proposed Warehouse
 50
0.00000000
  0
TEXT
  8
14
 7
SIMPLEX
 10
19154.1289
 20
85.2398453
 40
170.479691
  1
PINE
 50
0.00000000
  0
TEXT
  8
14
 7
SIMPLEX
 10
18770.5508
 20
1449.07727
 40
255.719513
  1
RECLA INTERNATIONAL PRIVATE LIMITED
 50
0.00000000
  0
TEXT
  8
14
 7
SIMPLEX
 10
22989.9238
 20
1108.11792
 40
170.479691
  1
RIGID FRAME ELEVATION
 50
0.00000000
  0
TEXT
  8
14
 7
SIMPLEX
 10
22989.9238
 20
767.158569
 40
170.479691
  1
DESIGN:
 50
0.00000000
  0
TEXT
  8
14
 7
SIMPLEX
 10
22989.9238
 20
426.199219
 40
170.479691
  1
DATE:
 50
0.00000000
  0
TEXT
  8
14
 7
SIMPLEX
 10
23859.3691
 20
426.199219
 40
170.479691
  1
 7/AUG/2025
 50
0.00000000
  0
TEXT
  8
14
 7
SIMPLEX
 10
24865.1992
 20
767.158569
 40
170.479691
  1
DRAFT:
 50
0.00000000
  0
TEXT
  8
14
 7
SIMPLEX
 10
26569.9961
 20
767.158569
 40
170.479691
  1
CHECK:
 50
0.00000000
  0
TEXT
  8
14
 7
SIMPLEX
 10
25632.3574
 20
426.199219
 40
170.479691
  1
SHEET
 50
0.00000000
  0
TEXT
  8
14
 7
SIMPLEX
 10
27166.6758
 20
426.199219
 40
170.479691
  1
OF
 50
0.00000000
  0
TEXT
  8
14
 7
SIMPLEX
 10
26484.7559
 20
426.199219
 40
170.479691
  1
 
 50
0.00000000
999
FIELD:@PAGE_ID
  0
TEXT
  8
14
 7
SIMPLEX
 10
27507.6348
 20
426.199219
 40
170.479691
  1
 
 50
0.00000000
999
FIELD:@PAGE_TOTAL
  0
INSERT
  8
0
  2
EPBLK1
 10
0.00000000
 20
0.00000000
 41
2.00000000
 42
2.00000000
 43
2.00000000
 50
0.00000000
  0
INSERT
  8
0
  2
EPBLK2
 10
1677.94971
 20
0.00000000
 41
2.00000000
 42
2.00000000
 43
2.00000000
 50
0.00000000
  0
INSERT
  8
0
  2
EPBLK3
 10
3355.89941
 20
0.00000000
 41
2.00000000
 42
2.00000000
 43
2.00000000
 50
0.00000000
  0
INSERT
  8
0
  2
EPBLK4
 10
5033.84912
 20
0.00000000
 41
2.00000000
 42
2.00000000
 43
2.00000000
 50
0.00000000
  0
INSERT
  8
0
  2
EPBLK5
 10
6711.79883
 20
0.00000000
 41
2.00000000
 42
2.00000000
 43
2.00000000
 50
0.00000000
  0
INSERT
  8
0
  2
FRAME1
 10
2947.68140
 20
5905.63184
 41
1.00000000
 42
1.00000000
 43
1.00000000
 50
0.00000000
  0
INSERT
  8
0
  2
RF1TBL
 10
28189.5527
 20
19934.0430
 41
1.00000000
 42
1.00000000
 43
1.00000000
 50
0.00000000
  0
INSERT
  8
0
  2
RF1CPL
 10
0.00000000
 20
18761.9961
 41
76.9060287
 42
76.9060287
 43
76.9060287
 50
0.00000000
  0
INSERT
  8
0
  2
RF1BLT1
 10
0.00000000
 20
19934.0430
 41
46.1436157
 42
46.1436157
 43
46.1436157
 50
0.00000000
  0
INSERT
  8
0
  2
RF1FBR
 10
0.00000000
 20
17765.7539
 41
1.00000000
 42
1.00000000
 43
1.00000000
 50
0.00000000
  0
ENDSEC
  0
EOF
