  0
SECTION
  2
HEADER
  9
$ACADVER
  1
AC1009
  9
$EXTMIN
 10
 -1261.624
 20
 -2969.461
  9
$EXTMAX
 10
 21261.627
 20
 13922.978
  9
$LIMMIN
 10
 -1261.624
 20
 -2969.461
  9
$LIMMAX
 10
 21261.627
 20
 13922.978
  9
$FILLMODE
 70
     1
  9
$HANDLING
 70
     0
  0
ENDSEC
  0
SECTION
  2
TABLES
  0
TABLE
  2
LTYPE
 70
1
  0
LTYPE
  2
CONTIN
 70
    64
  3
SOLID LINE
 72
    65
 73
     0
 40
0.0
  0
LTYPE
  2
CONTINUOUS
 70
    64
  3
SOLID LINE
 72
    65
 73
     0
 40
0.0
  0
LTYPE
  2
CENTER
 70
    64
  3
____ _ ____ _ ____ _ ____ _ ____ _ ____ _ ____
 72
    65
 73
     4
 40
  2639.847
 49
  1649.905
 49
  -329.981
 49
   329.981
 49
  -329.981
  0
LTYPE
  2
DASHED
 70
    64
  3
__ __ __ __ __ __ __ __ __ __ __ __ __ __ __ 
 72
    65
 73
     2
 40
   270.27
 49
   180.18
 49
   -90.09
  0
ENDTAB
  0
TABLE
  2
LAYER
 70
30
  0
LAYER
  2
0
 70
     0
 62
     7
  6
CONTIN
  0
LAYER
  2
1
 70
     0
 62
     7
  6
CONTIN
  0
LAYER
  2
2
 70
     0
 62
     7
  6
CONTIN
  0
LAYER
  2
3
 70
     0
 62
     7
  6
CONTIN
  0
LAYER
  2
4
 70
     0
 62
     5
  6
CONTIN
  0
LAYER
  2
5
 70
     0
 62
     5
  6
DASHED
  0
LAYER
  2
6
 70
     0
 62
     5
  6
DASHED
  0
LAYER
  2
7
 70
     0
 62
     5
  6
CONTIN
  0
LAYER
  2
8
 70
     0
 62
     5
  6
DASHED
  0
LAYER
  2
9
 70
     0
 62
     7
  6
CONTIN
  0
LAYER
  2
10
 70
     0
 62
     7
  6
CONTIN
  0
LAYER
  2
11
 70
     0
 62
     6
  6
DASHED
  0
LAYER
  2
12
 70
     0
 62
     7
  6
DASHED
  0
LAYER
  2
13
 70
     0
 62
     5
  6
DASHED
  0
LAYER
  2
14
 70
     0
 62
     7
  6
CONTIN
  0
LAYER
  2
15
 70
     0
 62
     5
  6
CONTIN
  0
LAYER
  2
16
 70
     0
 62
     7
  6
CONTIN
  0
LAYER
  2
17
 70
     0
 62
     7
  6
CONTIN
  0
LAYER
  2
18
 70
     0
 62
     7
  6
CONTIN
  0
LAYER
  2
19
 70
     0
 62
     7
  6
CONTIN
  0
LAYER
  2
20
 70
     0
 62
     1
  6
CONTIN
  0
LAYER
  2
21
 70
     0
 62
     7
  6
CONTIN
  0
LAYER
  2
22
 70
     0
 62
     7
  6
DASHED
  0
LAYER
  2
23
 70
     0
 62
     7
  6
DASHED
  0
LAYER
  2
24
 70
     0
 62
     7
  6
CONTIN
  0
LAYER
  2
25
 70
     0
 62
     7
  6
CONTIN
  0
LAYER
  2
26
 70
     0
 62
     7
  6
CONTIN
  0
LAYER
  2
27
 70
     0
 62
     1
  6
CENTER
  0
LAYER
  2
28
 70
     0
 62
     7
  6
CONTIN
  0
LAYER
  2
29
 70
     0
 62
     3
  6
DASHED
  0
ENDTAB
  0
TABLE
  2
STYLE
 70
  0
  0
ENDTAB
  0
ENDSEC
  0
SECTION
  2
ENTITIES
  0
LINE
  8
1
 10
   236.000
 20
     0.000
 11
   536.000
 21
     0.000
  0
LINE
  8
1
 10
   236.000
 20
     0.000
 11
   236.000
 21
  9617.578
  0
LINE
  8
1
 10
   536.000
 20
     0.000
 11
   886.000
 21
  9079.585
  0
LINE
  8
1
 10
   236.000
 20
  9617.578
 11
 10000.000
 21
 10593.978
  0
LINE
  8
1
 10
   886.000
 20
  9079.585
 11
  4075.075
 21
  9549.240
  0
LINE
  8
1
 10
  4075.075
 20
  9549.240
 11
 10000.000
 21
 10091.483
  0
LINE
  8
1
 10
 10000.000
 20
 10593.978
 11
 19764.000
 21
  9617.578
  0
LINE
  8
1
 10
 10000.000
 20
 10091.483
 11
 15924.948
 21
  9549.237
  0
LINE
  8
1
 10
 15924.948
 20
  9549.237
 11
 19114.000
 21
  9079.585
  0
LINE
  8
1
 10
 19764.000
 20
  9617.578
 11
 19764.000
 21
     0.000
  0
LINE
  8
1
 10
 19114.000
 20
  9079.585
 11
 19464.000
 21
     0.000
  0
LINE
  8
1
 10
   236.000
 20
     0.000
 11
   536.000
 21
     0.000
  0
LINE
  8
1
 10
 19764.000
 20
     0.000
 11
 19464.000
 21
     0.000
  0
TEXT
  8
16
 10
  -237.840
 20
  4808.789
 40
   121.920
  1
M1
 50
     0.000
  0
TEXT
  8
16
 10
  2088.986
 20
 10248.930
 40
   121.920
  1
M2
 50
     0.000
  0
TEXT
  8
16
 10
  6970.985
 20
 10737.129
 40
   121.920
  1
M3
 50
     0.000
  0
TEXT
  8
16
 10
 13029.026
 20
 10737.128
 40
   121.920
  1
M4
 50
     0.000
  0
TEXT
  8
16
 10
 17911.025
 20
 10248.929
 40
   121.920
  1
M5
 50
     0.000
  0
TEXT
  8
16
 10
 20237.840
 20
  4808.789
 40
   121.920
  1
M6
 50
     0.000
  0
TEXT
  8
16
 10
   954.840
 20
  4539.792
 40
   121.920
  1
S1
 50
     0.000
  0
TEXT
  8
16
 10
  2504.800
 20
  9071.782
 40
   121.920
  1
S2
 50
     0.000
  0
TEXT
  8
16
 10
  7061.800
 20
  9577.731
 40
   121.920
  1
S3
 50
     0.000
  0
TEXT
  8
16
 10
 12938.211
 20
  9577.730
 40
   121.920
  1
S4
 50
     0.000
  0
TEXT
  8
16
 10
 17495.211
 20
  9071.781
 40
   121.920
  1
S5
 50
     0.000
  0
TEXT
  8
16
 10
 18898.855
 20
  4539.792
 40
   121.920
  1
S6
 50
     0.000
  0
LINE
  8
9
 10
   236.000
 20
  9079.585
 11
   886.000
 21
  9079.585
  0
LINE
  8
9
 10
   236.000
 20
  9049.104
 11
   236.000
 21
  9110.065
  0
LINE
  8
9
 10
   886.000
 20
  9049.104
 11
   886.000
 21
  9110.065
  0
LINE
  8
9
 10
   886.000
 20
  9049.104
 11
   236.000
 21
  9049.104
  0
LINE
  8
9
 10
   886.000
 20
  9110.065
 11
   236.000
 21
  9110.065
  0
TEXT
  8
16
 10
   904.197
 20
  8896.705
 40
   121.920
  1
SP1
 50
     0.000
  0
LINE
  8
9
 10
 10000.000
 20
 10593.978
 11
 10000.000
 21
 10091.483
  0
LINE
  8
9
 10
  9969.521
 20
 10593.978
 11
 10030.479
 21
 10593.978
  0
LINE
  8
9
 10
  9969.521
 20
 10091.483
 11
 10030.479
 21
 10091.483
  0
LINE
  8
9
 10
  9969.521
 20
 10091.483
 11
  9969.521
 21
 10593.978
  0
LINE
  8
9
 10
 10030.479
 20
 10091.483
 11
 10030.479
 21
 10593.978
  0
TEXT
  8
16
 10
  9981.802
 20
  9908.604
 40
   121.920
  1
SP2
 50
     0.000
  0
LINE
  8
9
 10
 19764.000
 20
  9079.585
 11
 19114.000
 21
  9079.585
  0
LINE
  8
9
 10
 19764.000
 20
  9110.065
 11
 19764.000
 21
  9049.104
  0
LINE
  8
9
 10
 19114.000
 20
  9110.065
 11
 19114.000
 21
  9049.104
  0
LINE
  8
9
 10
 19114.000
 20
  9110.065
 11
 19764.000
 21
  9110.065
  0
LINE
  8
9
 10
 19114.000
 20
  9049.104
 11
 19764.000
 21
  9049.104
  0
TEXT
  8
16
 10
 18748.240
 20
  8896.705
 40
   121.920
  1
SP3
 50
     0.000
  0
LINE
  8
9
 10
   236.000
 20
     0.000
 11
   536.000
 21
     0.000
  0
LINE
  8
9
 10
   236.000
 20
    30.480
 11
   536.000
 21
    30.480
  0
LINE
  8
9
 10
   236.000
 20
     0.000
 11
   236.000
 21
    30.480
  0
LINE
  8
9
 10
   536.000
 20
     0.000
 11
   536.000
 21
    30.480
  0
LINE
  8
9
 10
 19764.000
 20
     0.000
 11
 19464.000
 21
     0.000
  0
LINE
  8
9
 10
 19764.000
 20
    30.480
 11
 19464.000
 21
    30.480
  0
LINE
  8
9
 10
 19764.000
 20
     0.000
 11
 19764.000
 21
    30.480
  0
LINE
  8
9
 10
 19464.000
 20
     0.000
 11
 19464.000
 21
    30.480
  0
LINE
  8
5
 10
    30.001
 20
  3080.000
 11
   230.001
 21
  3080.000
  0
LINE
  8
3
 10
    30.001
 20
  3080.000
 11
  -144.216
 21
  3180.584
  0
LINE
  8
3
 10
    30.001
 20
  3080.000
 11
  -144.225
 21
  2979.433
  0
LINE
  8
3
 10
  -144.216
 20
  3180.584
 11
  -144.225
 21
  2979.433
  0
LINE
  8
5
 10
    30.001
 20
  4580.000
 11
   230.001
 21
  4580.000
  0
LINE
  8
5
 10
    30.002
 20
  6080.000
 11
   230.002
 21
  6080.000
  0
LINE
  8
3
 10
    30.002
 20
  6080.000
 11
  -144.215
 21
  6180.583
  0
LINE
  8
3
 10
    30.002
 20
  6080.000
 11
  -144.224
 21
  5979.433
  0
LINE
  8
3
 10
  -144.215
 20
  6180.583
 11
  -144.224
 21
  5979.433
  0
LINE
  8
5
 10
    30.002
 20
  7580.000
 11
   230.002
 21
  7580.000
  0
LINE
  8
5
 10
    30.003
 20
  9080.000
 11
   230.003
 21
  9080.000
  0
LINE
  8
5
 10
 19969.998
 20
  3080.000
 11
 19770.000
 21
  3080.000
  0
LINE
  8
3
 10
 19969.998
 20
  3080.000
 11
 20144.217
 21
  2979.417
  0
LINE
  8
3
 10
 19969.998
 20
  3080.000
 11
 20144.225
 21
  3180.567
  0
LINE
  8
3
 10
 20144.217
 20
  2979.417
 11
 20144.225
 21
  3180.567
  0
LINE
  8
5
 10
 19969.996
 20
  4580.000
 11
 19769.998
 21
  4580.000
  0
LINE
  8
5
 10
 19969.996
 20
  6080.000
 11
 19769.998
 21
  6080.000
  0
LINE
  8
3
 10
 19969.996
 20
  6080.000
 11
 20144.213
 21
  5979.417
  0
LINE
  8
3
 10
 19969.996
 20
  6080.000
 11
 20144.223
 21
  6180.568
  0
LINE
  8
3
 10
 20144.213
 20
  5979.417
 11
 20144.223
 21
  6180.568
  0
LINE
  8
5
 10
 19969.996
 20
  7150.000
 11
 19769.998
 21
  7150.000
  0
LINE
  8
5
 10
 19969.996
 20
  7580.000
 11
 19769.998
 21
  7580.000
  0
LINE
  8
5
 10
 19969.996
 20
  9080.000
 11
 19769.998
 21
  9080.000
  0
LINE
  8
5
 10
  1385.888
 20
  9938.590
 11
  1406.107
 21
  9736.397
  0
LINE
  8
3
 10
  1385.888
 20
  9938.590
 11
  1468.637
 21
 10121.950
  0
LINE
  8
3
 10
  1385.888
 20
  9938.590
 11
  1268.483
 21
 10101.944
  0
LINE
  8
3
 10
  1468.637
 20
 10121.950
 11
  1268.483
 21
 10101.944
  0
LINE
  8
5
 10
  2771.875
 20
 10077.188
 11
  2792.094
 21
  9874.997
  0
LINE
  8
5
 10
  4157.763
 20
 10215.776
 11
  4177.982
 21
 10013.585
  0
LINE
  8
3
 10
  4157.763
 20
 10215.776
 11
  4240.512
 21
 10399.137
  0
LINE
  8
3
 10
  4157.763
 20
 10215.776
 11
  4040.358
 21
 10379.131
  0
LINE
  8
3
 10
  4240.512
 20
 10399.137
 11
  4040.358
 21
 10379.131
  0
LINE
  8
5
 10
  5543.750
 20
 10354.375
 11
  5563.969
 21
 10152.184
  0
LINE
  8
5
 10
  6929.638
 20
 10492.964
 11
  6949.857
 21
 10290.772
  0
LINE
  8
3
 10
  6929.638
 20
 10492.964
 11
  7012.387
 21
 10676.324
  0
LINE
  8
3
 10
  6929.638
 20
 10492.964
 11
  6812.234
 21
 10656.319
  0
LINE
  8
3
 10
  7012.387
 20
 10676.324
 11
  6812.234
 21
 10656.319
  0
LINE
  8
5
 10
  8315.525
 20
 10631.552
 11
  8335.745
 21
 10429.360
  0
LINE
  8
5
 10
  9701.514
 20
 10770.151
 11
  9721.733
 21
 10567.960
  0
LINE
  8
3
 10
  9701.514
 20
 10770.151
 11
  9784.263
 21
 10953.513
  0
LINE
  8
3
 10
  9701.514
 20
 10770.151
 11
  9584.109
 21
 10933.507
  0
LINE
  8
3
 10
  9784.263
 20
 10953.513
 11
  9584.109
 21
 10933.507
  0
LINE
  8
5
 10
 10298.511
 20
 10770.148
 11
 10278.291
 21
 10567.957
  0
LINE
  8
3
 10
 10298.511
 20
 10770.148
 11
 10415.930
 21
 10933.491
  0
LINE
  8
3
 10
 10298.511
 20
 10770.148
 11
 10215.778
 21
 10953.516
  0
LINE
  8
3
 10
 10415.930
 20
 10933.491
 11
 10215.778
 21
 10953.516
  0
LINE
  8
5
 10
 11684.399
 20
 10631.560
 11
 11664.180
 21
 10429.369
  0
LINE
  8
5
 10
 13070.386
 20
 10492.962
 11
 13050.166
 21
 10290.771
  0
LINE
  8
3
 10
 13070.386
 20
 10492.962
 11
 13187.805
 21
 10656.305
  0
LINE
  8
3
 10
 13070.386
 20
 10492.962
 11
 12987.653
 21
 10676.329
  0
LINE
  8
3
 10
 13187.805
 20
 10656.305
 11
 12987.653
 21
 10676.329
  0
LINE
  8
5
 10
 14456.274
 20
 10354.372
 11
 14436.055
 21
 10152.181
  0
LINE
  8
5
 10
 15842.262
 20
 10215.773
 11
 15822.042
 21
 10013.583
  0
LINE
  8
3
 10
 15842.262
 20
 10215.773
 11
 15959.681
 21
 10379.117
  0
LINE
  8
3
 10
 15842.262
 20
 10215.773
 11
 15759.529
 21
 10399.142
  0
LINE
  8
3
 10
 15959.681
 20
 10379.117
 11
 15759.529
 21
 10399.142
  0
LINE
  8
5
 10
 17228.148
 20
 10077.186
 11
 17207.930
 21
  9874.994
  0
LINE
  8
5
 10
 18614.037
 20
  9938.597
 11
 18593.816
 21
  9736.404
  0
LINE
  8
3
 10
 18614.037
 20
  9938.597
 11
 18731.455
 21
 10101.940
  0
LINE
  8
3
 10
 18614.037
 20
  9938.597
 11
 18531.305
 21
 10121.964
  0
LINE
  8
3
 10
 18731.455
 20
 10101.940
 11
 18531.305
 21
 10121.964
  0
LINE
  8
8
 10
     0.000
 20
     0.000
 11
     0.000
 21
  9800.000
  0
LINE
  8
8
 10
     0.000
 20
  9800.000
 11
 10000.000
 21
 10800.000
  0
LINE
  8
8
 10
 10000.000
 20
 10800.000
 11
 20000.000
 21
  9800.000
  0
LINE
  8
8
 10
 20000.000
 20
  9800.000
 11
 20000.000
 21
     0.000
  0
LINE
  8
10
 10
   886.000
 20
  9079.585
 11
   886.000
 21
  9622.278
  0
LINE
  8
10
 10
 19114.000
 20
  9079.585
 11
 19114.000
 21
  9622.278
  0
LINE
  8
10
 10
  1276.200
 20
  7080.000
 11
   814.924
 21
  7080.000
  0
LINE
  8
10
 10
  1276.200
 20
  7080.000
 11
  1276.200
 21
  6876.800
  0
LINE
  8
10
 10
  1276.200
 20
  6876.800
 11
   807.091
 21
  6876.800
  0
LINE
  8
8
 10
  1200.000
 20
  7474.600
 11
  1200.000
 21
  7080.000
  0
LINE
  8
8
 10
  1312.500
 20
  7474.600
 11
  1087.500
 21
  7474.600
  0
LINE
  8
8
 10
  1200.000
 20
  7500.000
 11
 18800.000
 21
  7500.000
  0
LINE
  8
8
 10
 18800.000
 20
  7500.000
 11
 18800.000
 21
  7500.000
  0
LINE
  8
8
 10
 18800.000
 20
  7500.000
 11
  1200.000
 21
  7500.000
  0
LINE
  8
8
 10
  1200.000
 20
  7500.000
 11
  1200.000
 21
  7500.000
  0
TEXT
  8
21
 10
  9695.199
 20
  7317.120
 40
   121.920
  1
Crane
 50
     0.000
  0
LINE
  8
10
 10
 18723.799
 20
  7080.000
 11
 19185.076
 21
  7080.000
  0
LINE
  8
10
 10
 18723.799
 20
  7080.000
 11
 18723.799
 21
  6876.800
  0
LINE
  8
10
 10
 18723.799
 20
  6876.800
 11
 19192.908
 21
  6876.800
  0
LINE
  8
8
 10
 18800.000
 20
  7474.600
 11
 18800.000
 21
  7080.000
  0
LINE
  8
8
 10
 18912.500
 20
  7474.600
 11
 18687.500
 21
  7474.600
  0
LINE
  8
8
 10
  1200.000
 20
  7500.000
 11
 18800.000
 21
  7500.000
  0
LINE
  8
8
 10
 18800.000
 20
  7500.000
 11
 18800.000
 21
  7500.000
  0
LINE
  8
8
 10
 18800.000
 20
  7500.000
 11
  1200.000
 21
  7500.000
  0
LINE
  8
8
 10
  1200.000
 20
  7500.000
 11
  1200.000
 21
  7500.000
  0
TEXT
  8
21
 10
  9695.199
 20
  7317.120
 40
   121.920
  1
Crane
 50
     0.000
  0
LINE
  8
0
 10
 -1261.624
 20
 -2969.461
 11
 21261.627
 21
 -2969.461
  0
LINE
  8
0
 10
 21261.627
 20
 -2969.461
 11
 21261.627
 21
 13922.978
  0
LINE
  8
0
 10
 21261.627
 20
 13922.978
 11
 -1261.624
 21
 13922.978
  0
LINE
  8
0
 10
 -1261.624
 20
 13922.978
 11
 -1261.624
 21
 -2969.461
  0
LINE
  8
0
 10
 -1261.624
 20
 -2412.010
 11
 21261.627
 21
 -2412.010
  0
TEXT
  8
0
 10
  6283.665
 20
 -2876.553
 40
   371.634
  1
Rigid Frame 3 Design
 50
     0.000
  0
TEXT
  8
0
 10
 -1075.807
 20
 -2876.553
 40
   371.634
  1
C163-027
 50
     0.000
  0
TEXT
  8
0
 10
 16987.840
 20
 -2876.553
 40
   371.634
  1
17/NOV/2025
 50
     0.000
  0
ENDSEC
  0
EOF
