  0
SECTION
  2
HEADER
  9
$ACADVER
  1
AC1009
  9
$EXTMIN
 10
 -1499.912
 20
  -518.176
  9
$EXTMAX
 10
 13699.912
 20
 10881.691
  9
$LIMMIN
 10
 -1499.912
 20
  -518.176
  9
$LIMMAX
 10
 13699.912
 20
 10881.691
  9
$FILLMODE
 70
     1
  9
$HANDLING
 70
     0
  0
ENDSEC
  0
SECTION
  2
TABLES
  0
TABLE
  2
LTYPE
 70
1
  0
LTYPE
  2
CONTIN
 70
    64
  3
SOLID LINE
 72
    65
 73
     0
 40
0.0
  0
LTYPE
  2
CONTINUOUS
 70
    64
  3
SOLID LINE
 72
    65
 73
     0
 40
0.0
  0
LTYPE
  2
CENTER
 70
    64
  3
____ _ ____ _ ____ _ ____ _ ____ _ ____ _ ____
 72
    65
 73
     4
 40
  3911.752
 49
  2444.845
 49
  -488.969
 49
   488.969
 49
  -488.969
  0
LTYPE
  2
DASHED
 70
    64
  3
__ __ __ __ __ __ __ __ __ __ __ __ __ __ __ 
 72
    65
 73
     2
 40
   182.39
 49
   121.59
 49
   -60.79
  0
ENDTAB
  0
TABLE
  2
LAYER
 70
30
  0
LAYER
  2
0
 70
     0
 62
     7
  6
CONTIN
  0
LAYER
  2
1
 70
     0
 62
     7
  6
CONTIN
  0
LAYER
  2
2
 70
     0
 62
     7
  6
CONTIN
  0
LAYER
  2
3
 70
     0
 62
     7
  6
CONTIN
  0
LAYER
  2
4
 70
     0
 62
     5
  6
CONTIN
  0
LAYER
  2
5
 70
     0
 62
     5
  6
DASHED
  0
LAYER
  2
6
 70
     0
 62
     5
  6
DASHED
  0
LAYER
  2
7
 70
     0
 62
     5
  6
CONTIN
  0
LAYER
  2
8
 70
     0
 62
     5
  6
DASHED
  0
LAYER
  2
9
 70
     0
 62
     7
  6
CONTIN
  0
LAYER
  2
10
 70
     0
 62
     7
  6
CONTIN
  0
LAYER
  2
11
 70
     0
 62
     6
  6
DASHED
  0
LAYER
  2
12
 70
     0
 62
     7
  6
DASHED
  0
LAYER
  2
13
 70
     0
 62
     5
  6
DASHED
  0
LAYER
  2
14
 70
     0
 62
     7
  6
CONTIN
  0
LAYER
  2
15
 70
     0
 62
     5
  6
CONTIN
  0
LAYER
  2
16
 70
     0
 62
     7
  6
CONTIN
  0
LAYER
  2
17
 70
     0
 62
     7
  6
CONTIN
  0
LAYER
  2
18
 70
     0
 62
     7
  6
CONTIN
  0
LAYER
  2
19
 70
     0
 62
     7
  6
CONTIN
  0
LAYER
  2
20
 70
     0
 62
     1
  6
CONTIN
  0
LAYER
  2
21
 70
     0
 62
     7
  6
CONTIN
  0
LAYER
  2
22
 70
     0
 62
     7
  6
DASHED
  0
LAYER
  2
23
 70
     0
 62
     7
  6
DASHED
  0
LAYER
  2
24
 70
     0
 62
     7
  6
CONTIN
  0
LAYER
  2
25
 70
     0
 62
     7
  6
CONTIN
  0
LAYER
  2
26
 70
     0
 62
     7
  6
CONTIN
  0
LAYER
  2
27
 70
     0
 62
     1
  6
CENTER
  0
LAYER
  2
28
 70
     0
 62
     7
  6
CONTIN
  0
LAYER
  2
29
 70
     0
 62
     3
  6
DASHED
  0
ENDTAB
  0
TABLE
  2
STYLE
 70
  0
  0
ENDTAB
  0
ENDSEC
  0
SECTION
  2
ENTITIES
  0
LINE
  8
1
 10
   235.000
 20
     0.000
 11
   635.000
 21
     0.000
  0
LINE
  8
1
 10
   235.000
 20
     0.000
 11
   235.000
 21
  9417.478
  0
LINE
  8
1
 10
   635.000
 20
     0.000
 11
   635.000
 21
  9105.732
  0
LINE
  8
1
 10
   235.000
 20
  9417.478
 11
  6100.000
 21
 10003.978
  0
LINE
  8
1
 10
   635.000
 20
  9105.732
 11
  6100.000
 21
  9752.730
  0
LINE
  8
1
 10
  6100.000
 20
 10003.978
 11
 11965.001
 21
  9417.478
  0
LINE
  8
1
 10
  6100.000
 20
  9752.730
 11
 11565.001
 21
  9105.732
  0
LINE
  8
1
 10
 11965.001
 20
  9417.478
 11
 11965.001
 21
     0.000
  0
LINE
  8
1
 10
 11565.001
 20
  9105.732
 11
 11565.001
 21
     0.000
  0
LINE
  8
1
 10
   235.000
 20
     0.000
 11
   635.000
 21
     0.000
  0
LINE
  8
1
 10
 11965.001
 20
     0.000
 11
 11565.001
 21
     0.000
  0
TEXT
  8
16
 10
  -238.840
 20
  4708.739
 40
   121.920
  1
M1
 50
     0.000
  0
TEXT
  8
16
 10
  3123.336
 20
 10152.365
 40
   121.920
  1
M2
 50
     0.000
  0
TEXT
  8
16
 10
  9076.664
 20
 10152.365
 40
   121.920
  1
M3
 50
     0.000
  0
TEXT
  8
16
 10
 12438.840
 20
  4708.739
 40
   121.920
  1
M4
 50
     0.000
  0
TEXT
  8
16
 10
   878.840
 20
  4552.866
 40
   121.920
  1
S1
 50
     0.000
  0
TEXT
  8
16
 10
  3391.763
 20
  9186.602
 40
   121.920
  1
S2
 50
     0.000
  0
TEXT
  8
16
 10
  8808.237
 20
  9186.602
 40
   121.920
  1
S3
 50
     0.000
  0
TEXT
  8
16
 10
 11174.857
 20
  4552.866
 40
   121.920
  1
S4
 50
     0.000
  0
LINE
  8
9
 10
   235.000
 20
  9105.732
 11
   635.000
 21
  9105.732
  0
LINE
  8
9
 10
   235.000
 20
  9075.252
 11
   235.000
 21
  9136.212
  0
LINE
  8
9
 10
   635.000
 20
  9075.252
 11
   635.000
 21
  9136.212
  0
LINE
  8
9
 10
   635.000
 20
  9075.252
 11
   235.000
 21
  9075.252
  0
LINE
  8
9
 10
   635.000
 20
  9136.212
 11
   235.000
 21
  9136.212
  0
TEXT
  8
16
 10
   653.197
 20
  8922.853
 40
   121.920
  1
SP1
 50
     0.000
  0
LINE
  8
9
 10
  6100.000
 20
 10003.978
 11
  6100.000
 21
  9752.730
  0
LINE
  8
9
 10
  6069.520
 20
 10003.978
 11
  6130.480
 21
 10003.978
  0
LINE
  8
9
 10
  6069.520
 20
  9752.730
 11
  6130.480
 21
  9752.730
  0
LINE
  8
9
 10
  6069.520
 20
  9752.730
 11
  6069.520
 21
 10003.978
  0
LINE
  8
9
 10
  6130.480
 20
  9752.730
 11
  6130.480
 21
 10003.978
  0
TEXT
  8
16
 10
  6081.803
 20
  9569.851
 40
   121.920
  1
SP2
 50
     0.000
  0
LINE
  8
9
 10
 11965.001
 20
  9105.732
 11
 11565.001
 21
  9105.732
  0
LINE
  8
9
 10
 11965.001
 20
  9136.212
 11
 11965.001
 21
  9075.252
  0
LINE
  8
9
 10
 11565.001
 20
  9136.212
 11
 11565.001
 21
  9075.252
  0
LINE
  8
9
 10
 11565.001
 20
  9136.212
 11
 11965.001
 21
  9136.212
  0
LINE
  8
9
 10
 11565.001
 20
  9075.252
 11
 11965.001
 21
  9075.252
  0
TEXT
  8
16
 10
 11199.240
 20
  8922.853
 40
   121.920
  1
SP3
 50
     0.000
  0
LINE
  8
9
 10
   235.000
 20
     0.000
 11
   635.000
 21
     0.000
  0
LINE
  8
9
 10
   235.000
 20
    30.480
 11
   635.000
 21
    30.480
  0
LINE
  8
9
 10
   235.000
 20
     0.000
 11
   235.000
 21
    30.480
  0
LINE
  8
9
 10
   635.000
 20
     0.000
 11
   635.000
 21
    30.480
  0
LINE
  8
9
 10
 11965.001
 20
     0.000
 11
 11565.001
 21
     0.000
  0
LINE
  8
9
 10
 11965.001
 20
    30.480
 11
 11565.001
 21
    30.480
  0
LINE
  8
9
 10
 11965.001
 20
     0.000
 11
 11965.001
 21
    30.480
  0
LINE
  8
9
 10
 11565.001
 20
     0.000
 11
 11565.001
 21
    30.480
  0
LINE
  8
5
 10
    30.001
 20
  3080.000
 11
   230.001
 21
  3080.000
  0
LINE
  8
3
 10
    30.001
 20
  3080.000
 11
  -144.216
 21
  3180.584
  0
LINE
  8
3
 10
    30.001
 20
  3080.000
 11
  -144.225
 21
  2979.433
  0
LINE
  8
3
 10
  -144.216
 20
  3180.584
 11
  -144.225
 21
  2979.433
  0
LINE
  8
5
 10
    30.001
 20
  4580.000
 11
   230.001
 21
  4580.000
  0
LINE
  8
5
 10
    30.002
 20
  6080.000
 11
   230.002
 21
  6080.000
  0
LINE
  8
3
 10
    30.002
 20
  6080.000
 11
  -144.215
 21
  6180.583
  0
LINE
  8
3
 10
    30.002
 20
  6080.000
 11
  -144.224
 21
  5979.433
  0
LINE
  8
3
 10
  -144.215
 20
  6180.583
 11
  -144.224
 21
  5979.433
  0
LINE
  8
5
 10
    30.002
 20
  7580.000
 11
   230.002
 21
  7580.000
  0
LINE
  8
5
 10
    30.003
 20
  8980.000
 11
   230.003
 21
  8980.000
  0
LINE
  8
5
 10
 12169.998
 20
  3080.000
 11
 11969.999
 21
  3080.000
  0
LINE
  8
3
 10
 12169.998
 20
  3080.000
 11
 12344.216
 21
  2979.417
  0
LINE
  8
3
 10
 12169.998
 20
  3080.000
 11
 12344.226
 21
  3180.567
  0
LINE
  8
3
 10
 12344.216
 20
  2979.417
 11
 12344.226
 21
  3180.567
  0
LINE
  8
5
 10
 12169.998
 20
  4580.000
 11
 11969.999
 21
  4580.000
  0
LINE
  8
5
 10
 12169.998
 20
  6080.000
 11
 11969.998
 21
  6080.000
  0
LINE
  8
3
 10
 12169.998
 20
  6080.000
 11
 12344.216
 21
  5979.417
  0
LINE
  8
3
 10
 12169.998
 20
  6080.000
 11
 12344.226
 21
  6180.568
  0
LINE
  8
3
 10
 12344.216
 20
  5979.417
 11
 12344.226
 21
  6180.568
  0
LINE
  8
5
 10
 12169.998
 20
  7580.000
 11
 11969.998
 21
  7580.000
  0
LINE
  8
5
 10
 12169.998
 20
  8980.000
 11
 11969.998
 21
  8980.000
  0
LINE
  8
5
 10
  1450.366
 20
  9745.037
 11
  1470.585
 21
  9542.845
  0
LINE
  8
3
 10
  1450.366
 20
  9745.037
 11
  1533.115
 21
  9928.397
  0
LINE
  8
3
 10
  1450.366
 20
  9745.037
 11
  1332.962
 21
  9908.392
  0
LINE
  8
3
 10
  1533.115
 20
  9928.397
 11
  1332.962
 21
  9908.392
  0
LINE
  8
5
 10
  2900.732
 20
  9890.072
 11
  2920.951
 21
  9687.881
  0
LINE
  8
5
 10
  4351.099
 20
 10035.109
 11
  4371.317
 21
  9832.918
  0
LINE
  8
3
 10
  4351.099
 20
 10035.109
 11
  4433.848
 21
 10218.470
  0
LINE
  8
3
 10
  4351.099
 20
 10035.109
 11
  4233.694
 21
 10198.464
  0
LINE
  8
3
 10
  4433.848
 20
 10218.470
 11
  4233.694
 21
 10198.464
  0
LINE
  8
5
 10
  5801.465
 20
 10180.146
 11
  5821.684
 21
  9977.954
  0
LINE
  8
3
 10
  5801.465
 20
 10180.146
 11
  5884.214
 21
 10363.507
  0
LINE
  8
3
 10
  5801.465
 20
 10180.146
 11
  5684.061
 21
 10343.501
  0
LINE
  8
3
 10
  5884.214
 20
 10363.507
 11
  5684.061
 21
 10343.501
  0
LINE
  8
5
 10
  6398.512
 20
 10180.148
 11
  6378.292
 21
  9977.957
  0
LINE
  8
3
 10
  6398.512
 20
 10180.148
 11
  6515.931
 21
 10343.491
  0
LINE
  8
3
 10
  6398.512
 20
 10180.148
 11
  6315.779
 21
 10363.516
  0
LINE
  8
3
 10
  6515.931
 20
 10343.491
 11
  6315.779
 21
 10363.516
  0
LINE
  8
5
 10
  7848.877
 20
 10035.112
 11
  7828.659
 21
  9832.922
  0
LINE
  8
3
 10
  7848.877
 20
 10035.112
 11
  7966.297
 21
 10198.456
  0
LINE
  8
3
 10
  7848.877
 20
 10035.112
 11
  7766.146
 21
 10218.480
  0
LINE
  8
3
 10
  7966.297
 20
 10198.456
 11
  7766.146
 21
 10218.480
  0
LINE
  8
5
 10
  9299.243
 20
  9890.076
 11
  9279.024
 21
  9687.885
  0
LINE
  8
5
 10
 10749.609
 20
  9745.039
 11
 10729.390
 21
  9542.848
  0
LINE
  8
3
 10
 10749.609
 20
  9745.039
 11
 10867.029
 21
  9908.383
  0
LINE
  8
3
 10
 10749.609
 20
  9745.039
 11
 10666.878
 21
  9928.407
  0
LINE
  8
3
 10
 10867.029
 20
  9908.383
 11
 10666.878
 21
  9928.407
  0
LINE
  8
8
 10
     0.000
 20
     0.000
 11
     0.000
 21
  9600.000
  0
LINE
  8
8
 10
     0.000
 20
  9600.000
 11
  6100.000
 21
 10210.000
  0
LINE
  8
8
 10
  6100.000
 20
 10210.000
 11
 12200.000
 21
  9600.000
  0
LINE
  8
8
 10
 12200.000
 20
  9600.000
 11
 12200.000
 21
     0.000
  0
LINE
  8
10
 10
   635.000
 20
  9105.732
 11
   635.000
 21
  9422.303
  0
LINE
  8
10
 10
 11565.001
 20
  9105.732
 11
 11565.001
 21
  9422.303
  0
LINE
  8
0
 10
 -1499.912
 20
  -518.176
 11
 13699.912
 21
  -518.176
  0
LINE
  8
0
 10
 13699.912
 20
  -518.176
 11
 13699.912
 21
 10881.691
  0
LINE
  8
0
 10
 13699.912
 20
 10881.691
 11
 -1499.912
 21
 10881.691
  0
LINE
  8
0
 10
 -1499.912
 20
 10881.691
 11
 -1499.912
 21
  -518.176
  0
LINE
  8
0
 10
 -1499.912
 20
  -141.980
 11
 13699.912
 21
  -141.980
  0
TEXT
  8
0
 10
  3592.029
 20
  -455.477
 40
   250.797
  1
Rigid Frame 1 Design
 50
     0.000
  0
TEXT
  8
0
 10
 -1374.513
 20
  -455.477
 40
   250.797
  1
C163-027
 50
     0.000
  0
TEXT
  8
0
 10
 10815.745
 20
  -455.477
 40
   250.797
  1
19/JAN/2026
 50
     0.000
  0
ENDSEC
  0
EOF
