999
SOURCE:MBS   PROGRAM:ASM_DXF   CELL:ASM_DWG   CLASS:SHOP   MODE:---
  0
SECTION
  2
HEADER
  9
$EXTMIN
 10
   0.000
 20
   0.000
  9
$EXTMAX
 10
 841.000
 20
 594.000
  9
$LIMMIN
 10
   0.000
 20
   0.000
  9
$LIMMAX
 10
 841.000
 20
 594.000
  9
$HANDLING
 70
     0
999
BORDER_EXTENTS: 0.000      0.000      841.000    594.000
  0
ENDSEC
  0
SECTION
  2
TABLES
  0
TABLE
  2
LTYPE
 70
     3
  0
LTYPE
  2
CONTIN
 70
    64
  3
SOLID LINE
 72
    65
 73
     0
 40
0.0
  0
LTYPE
  2
CENTER
 70
    64
  3
____ _ ____ _ ____ _ ____ _ ____ _ ____ _ ____
 72
    65
 73
     4
 40
2.0
 49
1.25
 49
-0.25
 49
0.25
 49
-0.25
  0
LTYPE
  2
DASHED
 70
    64
  3
__ __ __ __ __ __ __ __ __ __ __ __ __ __ __ 
 72
    65
 73
     2
 40
2.3812
 49
1.5875
 49
-0.7937
  0
ENDTAB
  0
TABLE
  2
LAYER
 70
    50
  0
LAYER
  2
0
 70
     0
 62
     7
  6
CONTIN
  0
LAYER
  2
1
 70
     0
 62
     7
  6
CONTIN
  0
LAYER
  2
2
 70
     0
 62
     7
  6
CONTIN
  0
LAYER
  2
3
 70
     0
 62
     1
  6
CONTIN
  0
LAYER
  2
4
 70
     0
 62
     1
  6
CONTIN
  0
LAYER
  2
5
 70
     0
 62
     7
  6
CONTIN
  0
LAYER
  2
6
 70
     0
 62
     6
  6
CONTIN
  0
LAYER
  2
7
 70
     0
 62
     3
  6
DASHED
  0
LAYER
  2
8
 70
     0
 62
     3
  6
DASHED
  0
LAYER
  2
9
 70
     0
 62
     7
  6
CONTIN
  0
LAYER
  2
10
 70
     0
 62
     7
  6
CONTIN
  0
LAYER
  2
11
 70
     0
 62
     7
  6
CONTIN
  0
LAYER
  2
12
 70
     0
 62
     3
  6
CONTIN
  0
LAYER
  2
13
 70
     0
 62
     3
  6
CONTIN
  0
LAYER
  2
14
 70
     0
 62
     7
  6
CONTIN
  0
LAYER
  2
15
 70
     0
 62
     6
  6
CONTIN
  0
LAYER
  2
16
 70
     0
 62
     7
  6
CONTIN
  0
LAYER
  2
17
 70
     0
 62
     7
  6
CONTIN
  0
LAYER
  2
18
 70
     0
 62
     6
  6
CONTIN
  0
LAYER
  2
19
 70
     0
 62
     7
  6
CONTIN
  0
LAYER
  2
20
 70
     0
 62
     7
  6
CONTIN
  0
LAYER
  2
21
 70
     0
 62
     7
  6
CONTIN
  0
LAYER
  2
22
 70
     0
 62
     7
  6
CONTIN
  0
LAYER
  2
23
 70
     0
 62
     7
  6
CONTIN
  0
LAYER
  2
24
 70
     0
 62
     7
  6
CONTIN
  0
LAYER
  2
25
 70
     0
 62
     7
  6
CONTIN
  0
LAYER
  2
26
 70
     0
 62
     7
  6
CONTIN
  0
LAYER
  2
27
 70
     0
 62
     7
  6
CONTIN
  0
LAYER
  2
28
 70
     0
 62
     7
  6
CONTIN
  0
LAYER
  2
29
 70
     0
 62
     7
  6
CONTIN
  0
LAYER
  2
30
 70
     0
 62
     7
  6
CONTIN
  0
LAYER
  2
31
 70
     0
 62
     7
  6
CONTIN
  0
LAYER
  2
32
 70
     0
 62
     7
  6
CONTIN
  0
LAYER
  2
33
 70
     0
 62
     7
  6
CONTIN
  0
LAYER
  2
34
 70
     0
 62
     7
  6
CONTIN
  0
LAYER
  2
35
 70
     0
 62
     7
  6
CONTIN
  0
LAYER
  2
36
 70
     0
 62
     7
  6
CONTIN
  0
LAYER
  2
37
 70
     0
 62
     7
  6
CONTIN
  0
LAYER
  2
38
 70
     0
 62
     7
  6
CONTIN
  0
LAYER
  2
39
 70
     0
 62
     7
  6
CONTIN
  0
LAYER
  2
40
 70
     0
 62
     7
  6
CONTIN
  0
LAYER
  2
41
 70
     0
 62
     7
  6
CONTIN
  0
LAYER
  2
42
 70
     0
 62
     7
  6
CONTIN
  0
LAYER
  2
43
 70
     0
 62
     7
  6
CONTIN
  0
LAYER
  2
44
 70
     0
 62
     7
  6
CONTIN
  0
LAYER
  2
45
 70
     0
 62
     7
  6
CONTIN
  0
LAYER
  2
46
 70
     0
 62
     7
  6
CONTIN
  0
LAYER
  2
47
 70
     0
 62
     7
  6
CONTIN
  0
LAYER
  2
48
 70
     0
 62
     7
  6
CONTIN
  0
LAYER
  2
49
 70
     0
 62
     7
  6
CONTIN
  0
ENDTAB
  0
TABLE
  2
STYLE
 70
  0
  0
STYLE
  2
SIMPLEX
 70
  0
 40
  0.000
 41
  1.000
 42
  1.000
 50
  0.000
 71
  0
  3
SIMPLEX
  0
STYLE
  2
ROMANS
 70
  0
 40
  0.000
 41
  1.000
 42
  1.000
 50
  0.000
 71
  0
  3
ROMANS
  0
STYLE
  2
OPEN
 70
  0
 40
  0.000
 41
  1.000
 42
  1.000
 50
  0.000
 71
  0
  3
SIMPLEX
  0
STYLE
  2
ARIAL
 70
  0
 40
  0.000
 41
  1.000
 42
  1.000
 50
  0.000
 71
  0
  3
ARIAL.TTF
  0
STYLE
  2
VERDANAB
 70
  0
 40
  0.000
 41
  1.000
 42
  1.000
 50
  0.000
 71
  0
  3
VERDANAB.TTF
  0
ENDTAB
  0
ENDSEC
  0
SECTION
  2
BLOCKS
  0
BLOCK
  8
2
  2
ARROW
 70
     0
 10
0.000     
 20
0.000     
  0
LINE
  8
2
 10
-0.635    
 20
-0.635    
 11
0.635     
 21
0.635     
  0
ENDBLK
  8
2
  0
BLOCK
  8
0
  2
ARROWP
 70
     0
 10
0.000     
 20
0.000     
  0
LINE
  8
0
 10
0.000     
 20
0.000     
 11
-1.270    
 21
0.317     
  0
LINE
  8
0
 10
-1.270    
 20
0.317     
 11
-1.270    
 21
-0.317    
  0
LINE
  8
0
 10
-1.270    
 20
-0.317    
 11
0.000     
 21
0.000     
  0
ENDBLK
  8
0
  0
BLOCK
  8
3
  2
CIRCLE
 70
     0
 10
0.000     
 20
0.000     
  0
CIRCLE
  8
1
 10
     0.000
 20
     0.000
 40
    10.160
  0
ENDBLK
  8
3
  0
BLOCK
  8
3
  2
SLOTTD
 70
     0
 10
0.000     
 20
0.000     
  0
ARC
  8
6
 10
-25.400   
 20
0.000     
 40
  12.700
 50
  90.000
 51
 270.000
  0
ARC
  8
6
 10
25.400    
 20
0.000     
 40
  12.700
 50
 270.000
 51
  90.000
  0
LINE
  8
6
 10
-25.400   
 20
-12.700   
 11
25.400    
 21
-12.700   
  0
LINE
  8
6
 10
-25.400   
 20
12.700    
 11
25.400    
 21
12.700    
  0
ENDBLK
  8
3
  0
BLOCK
  8
3
  2
FLGHOL
 70
     0
 10
0.000     
 20
0.000     
  0
SOLID
  8
6
 10
-6.350    
 20
0.000     
 11
6.350     
 21
0.000     
 12
-6.350    
 22
25.400    
 13
6.350     
 23
25.400    
  0
ENDBLK
  8
3
  0
BLOCK
  8
2
  2
BRCCLP
 70
     0
 10
12.700    
 20
0.000     
  0
LINE
  8
2
 10
12.700    
 20
0.000     
 11
12.700    
 21
101.600   
  0
LINE
  8
2
 10
-12.700   
 20
101.600   
 11
12.700    
 21
101.600   
  0
SOLID
  8
1
 10
-12.700   
 20
68.580    
 11
12.700    
 21
68.580    
 12
-12.700   
 22
83.820    
 13
12.700    
 23
83.820    
  0
ENDBLK
  8
3
  0
BLOCK
  8
2
  2
BRCCLPB
 70
     0
 10
12.700    
 20
0.000     
  0
LINE
  8
7
 10
12.700    
 20
0.000     
 11
12.700    
 21
101.600   
  0
LINE
  8
7
 10
-12.700   
 20
101.600   
 11
12.700    
 21
101.600   
  0
SOLID
  8
1
 10
-12.700   
 20
68.580    
 11
12.700    
 21
68.580    
 12
-12.700   
 22
83.820    
 13
12.700    
 23
83.820    
  0
ENDBLK
  8
3
  0
BLOCK
  8
2
  2
GRTANGC
 70
     0
 10
0.000     
 20
0.000     
  0
LINE
  8
13
 10
88.900    
 20
0.000     
 11
-12.700   
 21
0.000     
  0
LINE
  8
13
 10
88.900    
 20
0.000     
 11
88.900    
 21
152.400   
  0
LINE
  8
13
 10
-12.700   
 20
0.000     
 11
-12.700   
 21
152.400   
  0
LINE
  8
13
 10
88.900    
 20
152.400   
 11
-12.700   
 21
152.400   
  0
LINE
  8
13
 10
12.700    
 20
0.000     
 11
12.700    
 21
152.400   
  0
SOLID
  8
6
 10
-12.700   
 20
119.380   
 11
12.700    
 21
119.380   
 12
-12.700   
 22
134.620   
 13
12.700    
 23
134.620   
  0
SOLID
  8
6
 10
-12.700   
 20
68.580    
 11
12.700    
 21
68.580    
 12
-12.700   
 22
83.820    
 13
12.700    
 23
83.820    
  0
ENDBLK
  8
3
  0
BLOCK
  8
2
  2
GRTCLPB
 70
     0
 10
0.000     
 20
0.000     
  0
LINE
  8
13
 10
-12.700   
 20
0.000     
 11
-12.700   
 21
152.400   
  0
LINE
  8
13
 10
-12.700   
 20
0.000     
 11
12.700    
 21
0.000     
  0
LINE
  8
13
 10
-12.700   
 20
152.400   
 11
12.700    
 21
152.400   
  0
LINE
  8
13
 10
12.700    
 20
0.000     
 11
12.700    
 21
152.400   
  0
SOLID
  8
6
 10
-12.700   
 20
119.380   
 11
12.700    
 21
119.380   
 12
-12.700   
 22
134.620   
 13
12.700    
 23
134.620   
  0
SOLID
  8
6
 10
-12.700   
 20
68.580    
 11
12.700    
 21
68.580    
 12
-12.700   
 22
83.820    
 13
12.700    
 23
83.820    
  0
ENDBLK
  8
3
  0
BLOCK
  8
2
  2
GRTCLP1
 70
     0
 10
0.000     
 20
0.000     
  0
LINE
  8
13
 10
-12.700   
 20
0.000     
 11
-12.700   
 21
101.600   
  0
LINE
  8
13
 10
-12.700   
 20
0.000     
 11
12.700    
 21
0.000     
  0
LINE
  8
13
 10
-12.700   
 20
101.600   
 11
12.700    
 21
101.600   
  0
LINE
  8
13
 10
12.700    
 20
0.000     
 11
12.700    
 21
101.600   
  0
SOLID
  8
6
 10
-12.700   
 20
68.580    
 11
12.700    
 21
68.580    
 12
-12.700   
 22
83.820    
 13
12.700    
 23
83.820    
  0
ENDBLK
  8
3
  0
BLOCK
  8
2
  2
GRTCLP0
 70
     0
 10
0.000     
 20
0.000     
  0
LINE
  8
13
 10
-12.700   
 20
0.000     
 11
-12.700   
 21
101.600   
  0
LINE
  8
13
 10
-12.700   
 20
0.000     
 11
12.700    
 21
0.000     
  0
LINE
  8
13
 10
-12.700   
 20
101.600   
 11
12.700    
 21
101.600   
  0
LINE
  8
13
 10
12.700    
 20
0.000     
 11
12.700    
 21
101.600   
  0
ENDBLK
  8
3
  0
BLOCK
  8
2
  2
GRTCLPZ
 70
     0
 10
0.000     
 20
0.000     
  0
LINE
  8
13
 10
-12.700   
 20
0.000     
 11
-12.700   
 21
63.500    
  0
LINE
  8
13
 10
-12.700   
 20
63.500    
 11
38.100    
 21
63.500    
  0
LINE
  8
13
 10
38.100    
 20
63.500    
 11
38.100    
 21
152.400   
  0
LINE
  8
13
 10
38.100    
 20
152.400   
 11
63.500    
 21
152.400   
  0
LINE
  8
13
 10
63.500    
 20
152.400   
 11
63.500    
 21
38.100    
  0
LINE
  8
13
 10
63.500    
 20
38.100    
 11
12.700    
 21
38.100    
  0
LINE
  8
13
 10
12.700    
 20
38.100    
 11
12.700    
 21
0.000     
  0
SOLID
  8
6
 10
38.100    
 20
119.380   
 11
63.500    
 21
119.380   
 12
38.100    
 22
134.620   
 13
63.500    
 23
134.620   
  0
SOLID
  8
6
 10
38.100    
 20
68.580    
 11
63.500    
 21
68.580    
 12
38.100    
 22
83.820    
 13
63.500    
 23
83.820    
  0
ENDBLK
  8
3
  0
BLOCK
  8
2
  2
WEBCLP2
 70
     0
 10
0.000     
 20
152.400   
  0
LINE
  8
13
 10
-12.700   
 20
0.000     
 11
-12.700   
 21
203.200   
  0
LINE
  8
13
 10
-12.700   
 20
0.000     
 11
12.700    
 21
0.000     
  0
LINE
  8
13
 10
-12.700   
 20
203.200   
 11
12.700    
 21
203.200   
  0
LINE
  8
13
 10
12.700    
 20
0.000     
 11
12.700    
 21
203.200   
  0
SOLID
  8
6
 10
-12.700   
 20
43.180    
 11
12.700    
 21
43.180    
 12
-12.700   
 22
58.420    
 13
12.700    
 23
58.420    
  0
SOLID
  8
6
 10
-12.700   
 20
144.780   
 11
12.700    
 21
144.780   
 12
-12.700   
 22
160.020   
 13
12.700    
 23
160.020   
  0
ENDBLK
  8
3
  0
BLOCK
  8
2
  2
WEBCLPL
 70
     0
 10
0.000     
 20
152.400   
  0
LINE
  8
13
 10
0.000     
 20
0.000     
 11
-25.400   
 21
0.000     
  0
LINE
  8
13
 10
0.000     
 20
203.200   
 11
-25.400   
 21
203.200   
  0
LINE
  8
13
 10
-25.400   
 20
0.000     
 11
-25.400   
 21
203.200   
  0
ENDBLK
  8
3
  0
BLOCK
  8
2
  2
WEBCLP3
 70
     0
 10
0.000     
 20
144.780   
  0
LINE
  8
13
 10
-12.700   
 20
0.000     
 11
-12.700   
 21
187.960   
  0
LINE
  8
13
 10
-12.700   
 20
0.000     
 11
12.700    
 21
0.000     
  0
LINE
  8
13
 10
-12.700   
 20
187.960   
 11
12.700    
 21
187.960   
  0
LINE
  8
13
 10
12.700    
 20
0.000     
 11
12.700    
 21
187.960   
  0
SOLID
  8
6
 10
-12.700   
 20
35.560    
 11
12.700    
 21
35.560    
 12
-12.700   
 22
50.800    
 13
12.700    
 23
50.800    
  0
SOLID
  8
6
 10
-12.700   
 20
86.360    
 11
12.700    
 21
86.360    
 12
-12.700   
 22
101.600   
 13
12.700    
 23
101.600   
  0
SOLID
  8
6
 10
-12.700   
 20
137.160   
 11
12.700    
 21
137.160   
 12
-12.700   
 22
152.400   
 13
12.700    
 23
152.400   
  0
ENDBLK
  8
3
  0
BLOCK
  8
2
  2
WEBCLP4
 70
     0
 10
0.000     
 20
195.580   
  0
LINE
  8
13
 10
-12.700   
 20
0.000     
 11
-12.700   
 21
238.760   
  0
LINE
  8
13
 10
-12.700   
 20
0.000     
 11
12.700    
 21
0.000     
  0
LINE
  8
13
 10
-12.700   
 20
238.760   
 11
12.700    
 21
238.760   
  0
LINE
  8
13
 10
12.700    
 20
0.000     
 11
12.700    
 21
238.760   
  0
SOLID
  8
6
 10
-12.700   
 20
35.560    
 11
12.700    
 21
35.560    
 12
-12.700   
 22
50.800    
 13
12.700    
 23
50.800    
  0
SOLID
  8
6
 10
-12.700   
 20
86.360    
 11
12.700    
 21
86.360    
 12
-12.700   
 22
101.600   
 13
12.700    
 23
101.600   
  0
SOLID
  8
6
 10
-12.700   
 20
137.160   
 11
12.700    
 21
137.160   
 12
-12.700   
 22
152.400   
 13
12.700    
 23
152.400   
  0
SOLID
  8
6
 10
-12.700   
 20
187.960   
 11
12.700    
 21
187.960   
 12
-12.700   
 22
203.200   
 13
12.700    
 23
203.200   
  0
ENDBLK
  8
4
  0
BLOCK
  8
2
  2
WEBCLP1
 70
     0
 10
0.000     
 20
76.200    
  0
LINE
  8
13
 10
-12.700   
 20
0.000     
 11
-12.700   
 21
152.400   
  0
LINE
  8
13
 10
-12.700   
 20
0.000     
 11
12.700    
 21
0.000     
  0
LINE
  8
13
 10
-12.700   
 20
152.400   
 11
12.700    
 21
152.400   
  0
LINE
  8
13
 10
12.700    
 20
0.000     
 11
12.700    
 21
152.400   
  0
SOLID
  8
6
 10
-12.700   
 20
68.580    
 11
12.700    
 21
68.580    
 12
-12.700   
 22
83.820    
 13
12.700    
 23
83.820    
  0
ENDBLK
  8
3
  0
BLOCK
  8
2
  2
WEBCLP2B
 70
     0
 10
0.000     
 20
152.400   
  0
LINE
  8
7
 10
-12.700   
 20
0.000     
 11
-12.700   
 21
203.200   
  0
LINE
  8
7
 10
-12.700   
 20
0.000     
 11
12.700    
 21
0.000     
  0
LINE
  8
7
 10
-12.700   
 20
203.200   
 11
12.700    
 21
203.200   
  0
LINE
  8
7
 10
12.700    
 20
0.000     
 11
12.700    
 21
203.200   
  0
SOLID
  8
6
 10
-12.700   
 20
43.180    
 11
12.700    
 21
43.180    
 12
-12.700   
 22
58.420    
 13
12.700    
 23
58.420    
  0
SOLID
  8
6
 10
-12.700   
 20
144.780   
 11
12.700    
 21
144.780   
 12
-12.700   
 22
160.020   
 13
12.700    
 23
160.020   
  0
ENDBLK
  8
3
  0
BLOCK
  8
2
  2
WEBCLPLB
 70
     0
 10
0.000     
 20
152.400   
  0
LINE
  8
7
 10
0.000     
 20
0.000     
 11
-25.400   
 21
0.000     
  0
LINE
  8
7
 10
0.000     
 20
203.200   
 11
-25.400   
 21
203.200   
  0
LINE
  8
7
 10
-25.400   
 20
0.000     
 11
-25.400   
 21
203.200   
  0
ENDBLK
  8
3
  0
BLOCK
  8
2
  2
WEBCLP3B
 70
     0
 10
0.000     
 20
144.780   
  0
LINE
  8
7
 10
-12.700   
 20
0.000     
 11
-12.700   
 21
187.960   
  0
LINE
  8
7
 10
-12.700   
 20
0.000     
 11
12.700    
 21
0.000     
  0
LINE
  8
7
 10
-12.700   
 20
187.960   
 11
12.700    
 21
187.960   
  0
LINE
  8
7
 10
12.700    
 20
0.000     
 11
12.700    
 21
187.960   
  0
SOLID
  8
6
 10
-12.700   
 20
35.560    
 11
12.700    
 21
35.560    
 12
-12.700   
 22
50.800    
 13
12.700    
 23
50.800    
  0
SOLID
  8
6
 10
-12.700   
 20
86.360    
 11
12.700    
 21
86.360    
 12
-12.700   
 22
101.600   
 13
12.700    
 23
101.600   
  0
SOLID
  8
6
 10
-12.700   
 20
137.160   
 11
12.700    
 21
137.160   
 12
-12.700   
 22
152.400   
 13
12.700    
 23
152.400   
  0
ENDBLK
  8
3
  0
BLOCK
  8
2
  2
WEBCLP4B
 70
     0
 10
0.000     
 20
195.580   
  0
LINE
  8
7
 10
-12.700   
 20
0.000     
 11
-12.700   
 21
238.760   
  0
LINE
  8
7
 10
-12.700   
 20
0.000     
 11
12.700    
 21
0.000     
  0
LINE
  8
7
 10
-12.700   
 20
238.760   
 11
12.700    
 21
238.760   
  0
LINE
  8
7
 10
12.700    
 20
0.000     
 11
12.700    
 21
238.760   
  0
SOLID
  8
6
 10
-12.700   
 20
35.560    
 11
12.700    
 21
35.560    
 12
-12.700   
 22
50.800    
 13
12.700    
 23
50.800    
  0
SOLID
  8
6
 10
-12.700   
 20
86.360    
 11
12.700    
 21
86.360    
 12
-12.700   
 22
101.600   
 13
12.700    
 23
101.600   
  0
SOLID
  8
6
 10
-12.700   
 20
137.160   
 11
12.700    
 21
137.160   
 12
-12.700   
 22
152.400   
 13
12.700    
 23
152.400   
  0
SOLID
  8
6
 10
-12.700   
 20
187.960   
 11
12.700    
 21
187.960   
 12
-12.700   
 22
203.200   
 13
12.700    
 23
203.200   
  0
ENDBLK
  8
4
  0
BLOCK
  8
2
  2
WEBCLP1B
 70
     0
 10
0.000     
 20
76.200    
  0
LINE
  8
7
 10
-12.700   
 20
0.000     
 11
-12.700   
 21
152.400   
  0
LINE
  8
7
 10
-12.700   
 20
0.000     
 11
12.700    
 21
0.000     
  0
LINE
  8
7
 10
-12.700   
 20
152.400   
 11
12.700    
 21
152.400   
  0
LINE
  8
7
 10
12.700    
 20
0.000     
 11
12.700    
 21
152.400   
  0
SOLID
  8
6
 10
-12.700   
 20
68.580    
 11
12.700    
 21
68.580    
 12
-12.700   
 22
83.820    
 13
12.700    
 23
83.820    
  0
ENDBLK
  8
3
  0
BLOCK
  8
2
  2
FC_CLIP2
 70
     0
 10
0.000     
 20
0.000     
  0
LINE
  8
2
 10
-50.800   
 20
0.000     
 11
-50.800   
 21
152.400   
  0
LINE
  8
2
 10
-50.800   
 20
0.000     
 11
50.800    
 21
0.000     
  0
LINE
  8
2
 10
-50.800   
 20
152.400   
 11
50.800    
 21
152.400   
  0
LINE
  8
2
 10
50.800    
 20
0.000     
 11
50.800    
 21
152.400   
  0
CIRCLE
  8
1
 10
     0.000
 20
   101.600
 40
    12.700
  0
CIRCLE
  8
1
 10
     0.000
 20
    50.800
 40
    12.700
  0
ENDBLK
  8
3
  0
BLOCK
  8
2
  2
FC_CLIP3
 70
     0
 10
0.000     
 20
0.000     
  0
LINE
  8
2
 10
-50.800   
 20
0.000     
 11
-50.800   
 21
152.400   
  0
LINE
  8
2
 10
-50.800   
 20
0.000     
 11
50.800    
 21
0.000     
  0
LINE
  8
2
 10
-50.800   
 20
152.400   
 11
50.800    
 21
152.400   
  0
LINE
  8
2
 10
50.800    
 20
0.000     
 11
50.800    
 21
152.400   
  0
CIRCLE
  8
1
 10
     0.000
 20
   101.600
 40
    12.700
  0
CIRCLE
  8
1
 10
     0.000
 20
    76.200
 40
    12.700
  0
CIRCLE
  8
1
 10
     0.000
 20
    50.800
 40
    12.700
  0
ENDBLK
  8
3
  0
BLOCK
  8
2
  2
EAVCLP
 70
     0
 10
0.000     
 20
0.000     
  0
LINE
  8
2
 10
-25.400   
 20
0.000     
 11
-25.400   
 21
304.800   
  0
LINE
  8
2
 10
-25.400   
 20
0.000     
 11
0.000     
 21
0.000     
  0
LINE
  8
2
 10
-25.400   
 20
304.800   
 11
0.000     
 21
304.800   
  0
LINE
  8
2
 10
0.000     
 20
0.000     
 11
0.000     
 21
304.800   
  0
SOLID
  8
1
 10
-25.400   
 20
271.780   
 11
0.000     
 21
271.780   
 12
-25.400   
 22
287.020   
 13
0.000     
 23
287.020   
  0
SOLID
  8
1
 10
-25.400   
 20
220.980   
 11
0.000     
 21
220.980   
 12
-25.400   
 22
236.220   
 13
0.000     
 23
236.220   
  0
ENDBLK
  8
3
  0
BLOCK
  8
2
  2
ASMPIECE
 70
     0
 10
216.000   
 20
495.000   
  0
LINE
  8
1
 10
216.000   
 20
495.000   
 11
216.000   
 21
245.000   
  0
LINE
  8
1
 10
6441.053  
 20
-205.000  
 11
6441.053  
 21
495.000   
  0
TEXT
  8
3
 7
SIMPLEX
 10
2023.000  
 20
388.677   
 40
   23.627
  1
WB1
 50
    0.000
  0
LINE
  8
1
 10
216.000   
 20
495.000   
 11
216.000   
 21
504.493   
  0
LINE
  8
1
 10
216.000   
 20
495.000   
 11
6441.053  
 21
495.000   
  0
LINE
  8
1
 10
6441.053  
 20
495.000   
 11
6441.053  
 21
504.493   
  0
LINE
  8
1
 10
216.000   
 20
504.493   
 11
6441.053  
 21
504.493   
  0
TEXT
  8
3
 7
SIMPLEX
 10
3328.527  
 20
510.400   
 40
   23.627
  1
OF1
 50
    0.000
  0
LINE
  8
1
 10
216.577   
 20
244.958   
 11
216.000   
 21
235.482   
  0
LINE
  8
1
 10
216.577   
 20
244.958   
 11
6441.053  
 21
-205.000  
  0
LINE
  8
1
 10
6441.053  
 20
-205.000  
 11
6440.369  
 21
-214.469  
  0
LINE
  8
1
 10
216.000   
 20
235.482   
 11
6440.369  
 21
-214.469  
  0
TEXT
  8
3
 7
SIMPLEX
 10
3325.629  
 20
-24.842   
 40
   23.627
  1
IF1
 50
   -4.135
  0
LINE
  8
12
 10
216.000   
 20
519.493   
 11
205.452   
 21
519.493   
  0
LINE
  8
12
 10
216.000   
 20
519.493   
 11
216.000   
 21
205.507   
  0
LINE
  8
12
 10
216.000   
 20
205.507   
 11
205.452   
 21
205.507   
  0
LINE
  8
12
 10
205.452   
 20
519.493   
 11
205.452   
 21
205.507   
  0
TEXT
  8
3
 7
SIMPLEX
 10
199.546   
 20
332.966   
 40
   23.627
  1
EP1
 50
   90.000
  0
LINE
  8
12
 10
6441.054  
 20
564.721   
 11
6451.602  
 21
564.721   
  0
LINE
  8
12
 10
6441.054  
 20
564.721   
 11
6441.053  
 21
-274.722  
  0
LINE
  8
12
 10
6441.053  
 20
-274.722  
 11
6451.601  
 21
-274.722  
  0
LINE
  8
12
 10
6451.602  
 20
564.721   
 11
6451.601  
 21
-274.722  
  0
TEXT
  8
3
 7
SIMPLEX
 10
6481.136  
 20
109.559   
 40
   23.627
  1
EP2
 50
   90.000
  0
INSERT
  8
6
  2
SLOTTD
 10
466.000   
 20
420.000   
 41
   0.249
 42
   0.249
 43
   0.249
 50
   0.000
  0
TEXT
  8
3
 7
SIMPLEX
 10
454.186   
 20
384.559   
 40
   23.627
  1
S1
 50
    0.000
  0
INSERT
  8
6
  2
SLOTTD
 10
4900.000  
 20
420.000   
 41
   0.249
 42
   0.249
 43
   0.249
 50
   0.000
  0
TEXT
  8
3
 7
SIMPLEX
 10
4888.187  
 20
384.559   
 40
   23.627
  1
S1
 50
    0.000
  0
INSERT
  8
6
  2
SLOTTD
 10
5200.000  
 20
420.000   
 41
   0.249
 42
   0.249
 43
   0.249
 50
   0.000
  0
TEXT
  8
3
 7
SIMPLEX
 10
5188.187  
 20
384.559   
 40
   23.627
  1
S1
 50
    0.000
  0
LINE
  8
2
 10
3567.343  
 20
495.000   
 11
3539.918  
 21
495.000   
  0
LINE
  8
2
 10
3567.343  
 20
30.301    
 11
3539.918  
 21
30.301    
  0
LINE
  8
2
 10
3546.247  
 20
495.000   
 11
3546.247  
 21
30.301    
  0
INSERT
  8
2
  2
ARROW
 10
3546.247  
 20
495.000   
 41
   8.305
 42
   8.305
 43
   8.305
 50
  90.000
  0
INSERT
  8
2
  2
ARROW
 10
3546.247  
 20
30.301    
 41
   8.305
 42
   8.305
 43
   8.305
 50
 -90.000
  0
TEXT
  8
11
 7
SIMPLEX
 10
3554.123  
 20
246.899   
 40
   23.627
  1
443
 50
    0.000
  0
INSERT
  8
6
  2
FLGHOL
 10
205.452   
 20
414.831   
 41
   0.374
 42
   0.415
 43
   0.415
 50
 -90.000
  0
INSERT
  8
6
  2
FLGHOL
 10
205.452   
 20
310.169   
 41
   0.374
 42
   0.415
 43
   0.415
 50
 -90.000
  0
INSERT
  8
6
  2
FLGHOL
 10
6441.054  
 20
529.280   
 41
   0.374
 42
   0.415
 43
   0.415
 50
 -90.000
  0
INSERT
  8
6
  2
FLGHOL
 10
6441.054  
 20
470.212   
 41
   0.374
 42
   0.415
 43
   0.415
 50
 -90.000
  0
INSERT
  8
6
  2
FLGHOL
 10
6441.054  
 20
142.509   
 41
   0.374
 42
   0.415
 43
   0.415
 50
 -90.000
  0
INSERT
  8
6
  2
FLGHOL
 10
6441.054  
 20
-180.213  
 41
   0.374
 42
   0.415
 43
   0.415
 50
 -90.000
  0
INSERT
  8
6
  2
FLGHOL
 10
6441.054  
 20
-239.281  
 41
   0.374
 42
   0.415
 43
   0.415
 50
 -90.000
  0
INSERT
  8
1
  2
WEBCLP2
 10
5087.500  
 20
460.192   
 41
   0.249
 42
   0.249
 43
   0.249
 50
 -90.000
  0
CIRCLE
  8
15
 10
  5087.500
 20
   463.356
 40
     7.088
  0
TEXT
  8
3
 7
SIMPLEX
 10
4806.926  
 20
467.294   
 40
   23.627
  1
CLF2 (typ)
 50
    0.000
  0
TEXT
  8
3
 7
SIMPLEX
 10
4806.926  
 20
431.853   
 40
   23.627
  1
NS/FS
 50
    0.000
  0
LINE
  8
3
 10
5043.199  
 20
463.356   
 11
4990.459  
 21
463.356   
  0
INSERT
  8
3
  2
ARROWP
 10
5043.199  
 20
463.356   
 41
   8.305
 42
   8.305
 43
   8.305
 50
   0.000
  0
INSERT
  8
1
  2
GRTCLPB
 10
3576.836  
 20
504.493   
 41
  -0.249
 42
   0.249
 43
   0.249
 50
   0.000
  0
CIRCLE
  8
15
 10
  3580.000
 20
   504.493
 40
     7.088
  0
INSERT
  8
1
  2
GRTCLPB
 10
4996.836  
 20
504.493   
 41
  -0.249
 42
   0.249
 43
   0.249
 50
   0.000
  0
CIRCLE
  8
15
 10
  5000.000
 20
   504.493
 40
     7.088
  0
TEXT
  8
3
 7
SIMPLEX
 10
4777.862  
 20
536.910   
 40
   23.627
  1
CLF3(typ)
 50
    0.000
  0
LINE
  8
3
 10
4990.507  
 20
532.972   
 11
4937.768  
 21
532.972   
  0
INSERT
  8
3
  2
ARROWP
 10
4990.507  
 20
532.972   
 41
   8.305
 42
   8.305
 43
   8.305
 50
   0.000
  0
INSERT
  8
1
  2
GRTCLPB
 10
6196.836  
 20
504.493   
 41
  -0.249
 42
   0.249
 43
   0.249
 50
   0.000
  0
CIRCLE
  8
15
 10
  6200.000
 20
   504.493
 40
     7.088
  0
INSERT
  8
7
  2
BRCCLP
 10
3580.000  
 20
1.821     
 41
  -0.374
 42
   0.374
 43
   0.374
 50
   0.000
  0
CIRCLE
  8
15
 10
  3580.000
 20
     1.821
 40
     7.088
  0
LINE
  8
1
 10
3589.493  
 20
39.794    
 11
3589.493  
 21
1.135     
  0
TEXT
  8
3
 7
SIMPLEX
 10
3338.999  
 20
61.062    
 40
   23.627
  1
CLF1 (typ)
 50
   -4.135
  0
TEXT
  8
3
 7
SIMPLEX
 10
3336.443  
 20
25.713    
 40
   23.627
  1
NS/FS
 50
   -4.135
  0
LINE
  8
3
 10
3574.372  
 20
40.099    
 11
3521.770  
 21
43.901    
  0
INSERT
  8
3
  2
ARROWP
 10
3574.372  
 20
40.099    
 41
   8.305
 42
   8.305
 43
   8.305
 50
  -4.135
  0
LINE
  8
9
 10
6379.908  
 20
504.493   
 11
6441.054  
 21
564.721   
  0
TEXT
  8
3
 7
SIMPLEX
 10
6306.917  
 20
555.685   
 40
   23.627
  1
SS1
 50
    0.000
  0
LINE
  8
3
 10
6377.799  
 20
551.747   
 11
6325.059  
 21
551.747   
  0
INSERT
  8
3
  2
ARROWP
 10
6377.799  
 20
551.747   
 41
   8.305
 42
   8.305
 43
   8.305
 50
   0.000
  0
LINE
  8
9
 10
6370.829  
 20
-209.442  
 11
6441.053  
 21
-274.722  
  0
TEXT
  8
3
 7
SIMPLEX
 10
6294.904  
 20
-247.383  
 40
   23.627
  1
SS2
 50
   -4.135
  0
LINE
  8
3
 10
6365.317  
 20
-256.421  
 11
6312.715  
 21
-252.619  
  0
INSERT
  8
3
  2
ARROWP
 10
6365.317  
 20
-256.421  
 41
   8.305
 42
   8.305
 43
   8.305
 50
  -4.135
  0
LINE
  8
2
 10
216.000   
 20
567.780   
 11
216.000   
 21
795.615   
  0
INSERT
  8
2
  2
ARROW
 10
216.000   
 20
789.286   
 41
   8.305
 42
   8.305
 43
   8.305
 50
 180.000
  0
LINE
  8
2
 10
216.000   
 20
789.286   
 11
6441.053  
 21
789.286   
  0
LINE
  8
2
 10
6441.053  
 20
567.780   
 11
6441.053  
 21
795.614   
  0
INSERT
  8
2
  2
ARROW
 10
6441.053  
 20
789.286   
 41
   8.305
 42
   8.305
 43
   8.305
 50
   0.000
  0
TEXT
  8
11
 7
SIMPLEX
 10
3277.727  
 20
797.161   
 40
   23.627
  1
6225
 50
    0.000
  0
LINE
  8
3
 10
211.437   
 20
172.359   
 11
204.897   
 21
81.884    
  0
INSERT
  8
3
  2
ARROW
 10
205.353   
 20
88.196    
 41
   8.305
 42
   8.305
 43
   8.305
 50
 175.865
  0
LINE
  8
2
 10
205.353   
 20
88.196    
 11
6429.722  
 21
-361.755  
  0
LINE
  8
2
 10
6435.806  
 20
-277.591  
 11
6429.265  
 21
-368.067  
  0
INSERT
  8
2
  2
ARROW
 10
6429.722  
 20
-361.755  
 41
   8.305
 42
   8.305
 43
   8.305
 50
  -4.135
  0
TEXT
  8
11
 7
SIMPLEX
 10
3267.437  
 20
-125.261  
 40
   23.627
  1
6241
 50
   -4.135
  0
TEXT
  8
21
 7
SIMPLEX
 10
-39.259   
 20
554.934   
 40
   23.627
  1
G=100
 50
    0.000
  0
TEXT
  8
21
 7
SIMPLEX
 10
-39.259   
 20
590.375   
 40
   23.627
  1
D=26
 50
    0.000
  0
LINE
  8
2
 10
175.918   
 20
519.493   
 11
142.165   
 21
519.493   
  0
LINE
  8
2
 10
175.918   
 20
414.831   
 11
142.165   
 21
414.831   
  0
LINE
  8
2
 10
148.494   
 20
519.493   
 11
148.494   
 21
414.831   
  0
INSERT
  8
2
  2
ARROW
 10
148.494   
 20
519.493   
 41
   8.305
 42
   8.305
 43
   8.305
 50
  90.000
  0
INSERT
  8
2
  2
ARROW
 10
148.494   
 20
414.831   
 41
   8.305
 42
   8.305
 43
   8.305
 50
 -90.000
  0
TEXT
  8
11
 7
SIMPLEX
 10
75.221    
 20
451.411   
 40
   23.627
  1
100
 50
    0.000
  0
LINE
  8
2
 10
175.918   
 20
310.169   
 11
142.165   
 21
310.169   
  0
LINE
  8
2
 10
148.494   
 20
331.265   
 11
148.494   
 21
310.169   
  0
INSERT
  8
2
  2
ARROW
 10
148.494   
 20
310.169   
 41
   8.305
 42
   8.305
 43
   8.305
 50
 -90.000
  0
TEXT
  8
11
 7
SIMPLEX
 10
63.407    
 20
318.045   
 40
   23.627
  1
200
 50
    0.000
  0
TEXT
  8
21
 7
SIMPLEX
 10
6535.985  
 20
600.162   
 40
   23.627
  1
G=100
 50
    0.000
  0
TEXT
  8
21
 7
SIMPLEX
 10
6535.985  
 20
635.603   
 40
   23.627
  1
D=22
 50
    0.000
  0
LINE
  8
2
 10
6481.136  
 20
564.721   
 11
6514.889  
 21
564.721   
  0
LINE
  8
2
 10
6481.136  
 20
529.280   
 11
6514.889  
 21
529.280   
  0
LINE
  8
2
 10
6508.560  
 20
564.721   
 11
6508.560  
 21
529.280   
  0
INSERT
  8
2
  2
ARROW
 10
6508.560  
 20
564.721   
 41
   8.305
 42
   8.305
 43
   8.305
 50
  90.000
  0
INSERT
  8
2
  2
ARROW
 10
6508.560  
 20
529.280   
 41
   8.305
 42
   8.305
 43
   8.305
 50
 -90.000
  0
TEXT
  8
11
 7
SIMPLEX
 10
6522.765  
 20
531.249   
 40
   23.627
  1
50
 50
    0.000
  0
LINE
  8
2
 10
6481.136  
 20
470.212   
 11
6514.889  
 21
470.212   
  0
LINE
  8
2
 10
6508.560  
 20
491.308   
 11
6508.560  
 21
470.212   
  0
INSERT
  8
2
  2
ARROW
 10
6508.560  
 20
470.212   
 41
   8.305
 42
   8.305
 43
   8.305
 50
 -90.000
  0
TEXT
  8
11
 7
SIMPLEX
 10
6522.765  
 20
478.088   
 40
   23.627
  1
150
 50
    0.000
  0
LINE
  8
2
 10
6481.136  
 20
142.509   
 11
6514.889  
 21
142.509   
  0
LINE
  8
2
 10
6508.560  
 20
163.604   
 11
6508.560  
 21
142.509   
  0
INSERT
  8
2
  2
ARROW
 10
6508.560  
 20
142.509   
 41
   8.305
 42
   8.305
 43
   8.305
 50
 -90.000
  0
TEXT
  8
11
 7
SIMPLEX
 10
6522.765  
 20
150.384   
 40
   23.627
  1
450
 50
    0.000
  0
LINE
  8
2
 10
6481.136  
 20
-180.213  
 11
6514.889  
 21
-180.213  
  0
LINE
  8
2
 10
6508.560  
 20
-159.117  
 11
6508.560  
 21
-180.213  
  0
INSERT
  8
2
  2
ARROW
 10
6508.560  
 20
-180.213  
 41
   8.305
 42
   8.305
 43
   8.305
 50
 -90.000
  0
TEXT
  8
11
 7
SIMPLEX
 10
6522.765  
 20
-172.337  
 40
   23.627
  1
750
 50
    0.000
  0
LINE
  8
2
 10
6481.136  
 20
-239.281  
 11
6514.889  
 21
-239.281  
  0
LINE
  8
2
 10
6508.560  
 20
-218.185  
 11
6508.560  
 21
-239.281  
  0
INSERT
  8
2
  2
ARROW
 10
6508.560  
 20
-239.281  
 41
   8.305
 42
   8.305
 43
   8.305
 50
 -90.000
  0
TEXT
  8
11
 7
SIMPLEX
 10
6522.765  
 20
-231.405  
 40
   23.627
  1
850
 50
    0.000
  0
LINE
  8
2
 10
228.657   
 20
519.493   
 11
260.301   
 21
519.493   
  0
LINE
  8
2
 10
228.657   
 20
504.493   
 11
260.301   
 21
504.493   
  0
LINE
  8
2
 10
253.972   
 20
519.493   
 11
253.972   
 21
504.493   
  0
INSERT
  8
2
  2
ARROW
 10
253.972   
 20
519.493   
 41
   8.305
 42
   8.305
 43
   8.305
 50
  90.000
  0
INSERT
  8
2
  2
ARROW
 10
253.972   
 20
504.493   
 41
   8.305
 42
   8.305
 43
   8.305
 50
 -90.000
  0
TEXT
  8
11
 7
SIMPLEX
 10
268.177   
 20
506.462   
 40
   23.627
  1
15
 50
    0.000
  0
LINE
  8
2
 10
6428.396  
 20
529.280   
 11
6396.752  
 21
529.280   
  0
LINE
  8
2
 10
6428.396  
 20
504.493   
 11
6396.752  
 21
504.493   
  0
LINE
  8
2
 10
6403.081  
 20
529.280   
 11
6403.081  
 21
504.493   
  0
INSERT
  8
2
  2
ARROW
 10
6403.081  
 20
529.280   
 41
   8.305
 42
   8.305
 43
   8.305
 50
  90.000
  0
INSERT
  8
2
  2
ARROW
 10
6403.081  
 20
504.493   
 41
   8.305
 42
   8.305
 43
   8.305
 50
 -90.000
  0
TEXT
  8
11
 7
SIMPLEX
 10
6341.622  
 20
506.462   
 40
   23.627
  1
45
 50
    0.000
  0
LINE
  8
2
 10
216.000   
 20
621.575   
 11
216.000   
 21
663.766   
  0
LINE
  8
2
 10
466.000   
 20
621.575   
 11
466.000   
 21
663.766   
  0
LINE
  8
2
 10
216.000   
 20
657.437   
 11
466.000   
 21
657.437   
  0
INSERT
  8
2
  2
ARROW
 10
216.000   
 20
657.437   
 41
   8.305
 42
   8.305
 43
   8.305
 50
 180.000
  0
INSERT
  8
2
  2
ARROW
 10
466.000   
 20
657.437   
 41
   8.305
 42
   8.305
 43
   8.305
 50
   0.000
  0
TEXT
  8
11
 7
SIMPLEX
 10
387.242   
 20
665.313   
 40
   23.627
  1
250
 50
    0.000
  0
LINE
  8
2
 10
4887.343  
 20
495.000   
 11
4859.918  
 21
495.000   
  0
LINE
  8
2
 10
4887.343  
 20
420.000   
 11
4859.918  
 21
420.000   
  0
LINE
  8
2
 10
4866.247  
 20
495.000   
 11
4866.247  
 21
420.000   
  0
INSERT
  8
2
  2
ARROW
 10
4866.247  
 20
495.000   
 41
   8.305
 42
   8.305
 43
   8.305
 50
  90.000
  0
INSERT
  8
2
  2
ARROW
 10
4866.247  
 20
420.000   
 41
   8.305
 42
   8.305
 43
   8.305
 50
 -90.000
  0
TEXT
  8
11
 7
SIMPLEX
 10
4804.788  
 20
441.748   
 40
   23.627
  1
75
 50
    0.000
  0
LINE
  8
2
 10
4900.000  
 20
621.574   
 11
4900.000  
 21
663.766   
  0
LINE
  8
2
 10
4874.686  
 20
657.437   
 11
4900.000  
 21
657.437   
  0
INSERT
  8
2
  2
ARROW
 10
4900.000  
 20
657.437   
 41
   8.305
 42
   8.305
 43
   8.305
 50
   0.000
  0
TEXT
  8
11
 7
SIMPLEX
 10
4797.615  
 20
665.313   
 40
   23.627
  1
4684
 50
    0.000
  0
LINE
  8
2
 10
5200.000  
 20
621.574   
 11
5200.000  
 21
663.766   
  0
LINE
  8
2
 10
5174.686  
 20
657.437   
 11
5200.000  
 21
657.437   
  0
INSERT
  8
2
  2
ARROW
 10
5200.000  
 20
657.437   
 41
   8.305
 42
   8.305
 43
   8.305
 50
   0.000
  0
TEXT
  8
11
 7
SIMPLEX
 10
5097.616  
 20
665.313   
 40
   23.627
  1
4984
 50
    0.000
  0
LINE
  8
2
 10
5100.157  
 20
495.000   
 11
5127.582  
 21
495.000   
  0
LINE
  8
2
 10
5100.157  
 20
463.356   
 11
5127.582  
 21
463.356   
  0
LINE
  8
2
 10
5121.253  
 20
495.000   
 11
5121.253  
 21
463.356   
  0
INSERT
  8
2
  2
ARROW
 10
5121.253  
 20
495.000   
 41
   8.305
 42
   8.305
 43
   8.305
 50
  90.000
  0
INSERT
  8
2
  2
ARROW
 10
5121.253  
 20
463.356   
 41
   8.305
 42
   8.305
 43
   8.305
 50
 -90.000
  0
TEXT
  8
11
 7
SIMPLEX
 10
5135.458  
 20
463.426   
 40
   23.627
  1
150
 50
    0.000
  0
LINE
  8
2
 10
216.000   
 20
551.959   
 11
216.000   
 21
574.109   
  0
LINE
  8
2
 10
5087.500  
 20
551.958   
 11
5087.500  
 21
574.109   
  0
LINE
  8
2
 10
216.000   
 20
567.780   
 11
5087.500  
 21
567.780   
  0
INSERT
  8
2
  2
ARROW
 10
216.000   
 20
567.780   
 41
   8.305
 42
   8.305
 43
   8.305
 50
 180.000
  0
INSERT
  8
2
  2
ARROW
 10
5087.500  
 20
567.780   
 41
   8.305
 42
   8.305
 43
   8.305
 50
   0.000
  0
TEXT
  8
11
 7
SIMPLEX
 10
2604.495  
 20
575.656   
 40
   23.627
  1
4872
 50
    0.000
  0
LINE
  8
2
 10
216.000   
 20
618.410   
 11
216.000   
 21
640.561   
  0
LINE
  8
2
 10
3580.000  
 20
618.410   
 11
3580.000  
 21
640.561   
  0
LINE
  8
2
 10
216.000   
 20
634.232   
 11
3580.000  
 21
634.232   
  0
INSERT
  8
2
  2
ARROW
 10
216.000   
 20
634.232   
 41
   8.305
 42
   8.305
 43
   8.305
 50
 180.000
  0
INSERT
  8
2
  2
ARROW
 10
3580.000  
 20
634.232   
 41
   8.305
 42
   8.305
 43
   8.305
 50
   0.000
  0
TEXT
  8
11
 7
SIMPLEX
 10
1850.745  
 20
642.108   
 40
   23.627
  1
3364
 50
    0.000
  0
LINE
  8
2
 10
5000.000  
 20
618.410   
 11
5000.000  
 21
640.560   
  0
LINE
  8
2
 10
4947.261  
 20
634.232   
 11
5000.000  
 21
634.232   
  0
INSERT
  8
2
  2
ARROW
 10
5000.000  
 20
634.232   
 41
   8.305
 42
   8.305
 43
   8.305
 50
   0.000
  0
TEXT
  8
11
 7
SIMPLEX
 10
4897.615  
 20
642.108   
 40
   23.627
  1
4784
 50
    0.000
  0
LINE
  8
2
 10
6200.000  
 20
618.410   
 11
6200.000  
 21
640.560   
  0
LINE
  8
2
 10
6147.261  
 20
634.232   
 11
6200.000  
 21
634.232   
  0
INSERT
  8
2
  2
ARROW
 10
6200.000  
 20
634.232   
 41
   8.305
 42
   8.305
 43
   8.305
 50
   0.000
  0
TEXT
  8
11
 7
SIMPLEX
 10
6097.615  
 20
642.107   
 40
   23.627
  1
5984
 50
    0.000
  0
INSERT
  8
15
  2
CIRCLE
 10
205.452   
 20
504.493   
 41
   0.415
 42
   0.415
 43
   0.415
 50
   0.000
  0
INSERT
  8
15
  2
CIRCLE
 10
205.452   
 20
236.244   
 41
   0.415
 42
   0.415
 43
   0.415
 50
   0.000
  0
INSERT
  8
15
  2
CIRCLE
 10
6451.602  
 20
-215.281  
 41
   0.415
 42
   0.415
 43
   0.415
 50
   0.000
  0
INSERT
  8
15
  2
CIRCLE
 10
6451.602  
 20
504.493   
 41
   0.415
 42
   0.415
 43
   0.415
 50
   0.000
  0
LINE
  8
2
 10
205.452   
 20
567.780   
 11
205.452   
 21
884.217   
  0
LINE
  8
2
 10
6451.602  
 20
567.780   
 11
6451.602  
 21
884.217   
  0
LINE
  8
2
 10
205.452   
 20
877.888   
 11
6451.602  
 21
877.888   
  0
INSERT
  8
2
  2
ARROW
 10
205.452   
 20
877.888   
 41
   8.305
 42
   8.305
 43
   8.305
 50
 180.000
  0
INSERT
  8
2
  2
ARROW
 10
6451.602  
 20
877.888   
 41
   8.305
 42
   8.305
 43
   8.305
 50
   0.000
  0
TEXT
  8
11
 7
SIMPLEX
 10
3281.272  
 20
885.764   
 40
   23.627
  1
6257
 50
    0.000
  0
LINE
  8
3
 10
216.000   
 20
567.780   
 11
216.000   
 21
778.738   
  0
LINE
  8
3
 10
216.000   
 20
715.451   
 11
74.236    
 21
715.451   
  0
INSERT
  8
3
  2
ARROW
 10
216.000   
 20
715.451   
 41
   8.305
 42
   8.305
 43
   8.305
 50
   0.000
  0
TEXT
  8
3
 7
SIMPLEX
 10
97.864    
 20
721.357   
 40
   23.627
  1
Tape
 50
    0.000
  0
TEXT
  8
3
 7
SIMPLEX
 10
97.864    
 20
685.917   
 40
   23.627
  1
(Typ)
 50
    0.000
  0
ENDBLK
  8
2
  0
BLOCK
  8
0
  2
ASMPLATE
 70
     0
 10
0.000     
 20
0.000     
  0
LINE
  8
14
 10
0.000     
 20
0.000     
 11
124.460   
 21
0.000     
  0
LINE
  8
14
 10
0.000     
 20
5.398     
 11
124.460   
 21
5.398     
  0
LINE
  8
14
 10
0.000     
 20
0.000     
 11
0.000     
 21
58.420    
  0
LINE
  8
14
 10
0.000     
 20
58.420    
 11
124.460   
 21
58.420    
  0
LINE
  8
14
 10
30.480    
 20
5.398     
 11
30.480    
 21
58.420    
  0
LINE
  8
14
 10
40.640    
 20
5.398     
 11
40.640    
 21
58.420    
  0
LINE
  8
14
 10
104.140   
 20
5.398     
 11
104.140   
 21
58.420    
  0
LINE
  8
14
 10
104.140   
 20
5.398     
 11
104.140   
 21
58.420    
  0
LINE
  8
14
 10
124.460   
 20
5.398     
 11
124.460   
 21
58.420    
  0
LINE
  8
14
 10
124.460   
 20
0.000     
 11
124.460   
 21
58.420    
  0
LINE
  8
14
 10
0.000     
 20
52.070    
 11
124.460   
 21
52.070    
  0
TEXT
  8
14
 7
SIMPLEX
 10
0.762     
 20
53.594    
 40
    2.540
  1
MARK
 50
    0.000
  0
TEXT
  8
14
 7
SIMPLEX
 10
31.750    
 20
53.594    
 40
    2.540
  1
QNT
 50
    0.000
  0
TEXT
  8
14
 7
SIMPLEX
 10
48.260    
 20
53.594    
 40
    2.540
  1
DESCRIPTION
 50
    0.000
  0
TEXT
  8
14
 7
SIMPLEX
 10
105.410   
 20
53.594    
 40
    2.540
  1
WEIGHT
 50
    0.000
  0
LINE
  8
14
 10
0.000     
 20
47.625    
 11
124.460   
 21
47.625    
  0
TEXT
  8
14
 7
SIMPLEX
 10
1.778     
 20
48.260    
 40
    2.540
  1
WB1
 50
    0.000
  0
TEXT
  8
14
 7
SIMPLEX
 10
30.607    
 20
48.260    
 40
    2.540
  1
  1
 50
    0.000
  0
TEXT
  8
14
 7
SIMPLEX
 10
42.418    
 20
48.260    
 40
    2.540
  1
5    x 250 - 700 x 6225
 50
    0.000
  0
TEXT
  8
14
 7
SIMPLEX
 10
121.920   
 20
48.260    
 40
    2.540
 72
  2
 11
121.920   
 21
48.260    
  1
  118.3
 50
    0.000
  0
LINE
  8
14
 10
0.000     
 20
43.815    
 11
124.460   
 21
43.815    
  0
TEXT
  8
14
 7
SIMPLEX
 10
1.778     
 20
44.450    
 40
    2.540
  1
OF1
 50
    0.000
  0
TEXT
  8
14
 7
SIMPLEX
 10
30.607    
 20
44.450    
 40
    2.540
  1
  1
 50
    0.000
  0
TEXT
  8
14
 7
SIMPLEX
 10
42.418    
 20
44.450    
 40
    2.540
  1
5    x 150 x 6225
 50
    0.000
  0
TEXT
  8
14
 7
SIMPLEX
 10
121.920   
 20
44.450    
 40
    2.540
 72
  2
 11
121.920   
 21
44.450    
  1
   37.3
 50
    0.000
  0
LINE
  8
14
 10
0.000     
 20
40.005    
 11
124.460   
 21
40.005    
  0
TEXT
  8
14
 7
SIMPLEX
 10
1.778     
 20
40.640    
 40
    2.540
  1
IF1
 50
    0.000
  0
TEXT
  8
14
 7
SIMPLEX
 10
30.607    
 20
40.640    
 40
    2.540
  1
  1
 50
    0.000
  0
TEXT
  8
14
 7
SIMPLEX
 10
42.418    
 20
40.640    
 40
    2.540
  1
8    x 150 x 6241
 50
    0.000
  0
TEXT
  8
14
 7
SIMPLEX
 10
121.920   
 20
40.640    
 40
    2.540
 72
  2
 11
121.920   
 21
40.640    
  1
   59.9
 50
    0.000
  0
LINE
  8
14
 10
0.000     
 20
36.195    
 11
124.460   
 21
36.195    
  0
TEXT
  8
14
 7
SIMPLEX
 10
1.778     
 20
36.830    
 40
    2.540
  1
EP1
 50
    0.000
  0
TEXT
  8
14
 7
SIMPLEX
 10
30.607    
 20
36.830    
 40
    2.540
  1
  1
 50
    0.000
  0
TEXT
  8
14
 7
SIMPLEX
 10
42.418    
 20
36.830    
 40
    2.540
  1
16   x 200 x 300
 50
    0.000
  0
TEXT
  8
14
 7
SIMPLEX
 10
121.920   
 20
36.830    
 40
    2.540
 72
  2
 11
121.920   
 21
36.830    
  1
    7.7
 50
    0.000
  0
LINE
  8
14
 10
0.000     
 20
32.385    
 11
124.460   
 21
32.385    
  0
TEXT
  8
14
 7
SIMPLEX
 10
1.778     
 20
33.020    
 40
    2.540
  1
EP2
 50
    0.000
  0
TEXT
  8
14
 7
SIMPLEX
 10
30.607    
 20
33.020    
 40
    2.540
  1
  1
 50
    0.000
  0
TEXT
  8
14
 7
SIMPLEX
 10
42.418    
 20
33.020    
 40
    2.540
  1
16   x 200 x 901
 50
    0.000
  0
TEXT
  8
14
 7
SIMPLEX
 10
121.920   
 20
33.020    
 40
    2.540
 72
  2
 11
121.920   
 21
33.020    
  1
   23.1
 50
    0.000
  0
LINE
  8
14
 10
0.000     
 20
28.575    
 11
124.460   
 21
28.575    
  0
TEXT
  8
14
 7
SIMPLEX
 10
1.778     
 20
29.210    
 40
    2.540
  1
SS1
 50
    0.000
  0
TEXT
  8
14
 7
SIMPLEX
 10
30.607    
 20
29.210    
 40
    2.540
  1
  1
 50
    0.000
  0
TEXT
  8
14
 7
SIMPLEX
 10
42.418    
 20
29.210    
 40
    2.540
  1
5    x 120 x 95
 50
    0.000
  0
TEXT
  8
14
 7
SIMPLEX
 10
121.920   
 20
29.210    
 40
    2.540
 72
  2
 11
121.920   
 21
29.210    
  1
    0.5
 50
    0.000
  0
LINE
  8
14
 10
0.000     
 20
24.765    
 11
124.460   
 21
24.765    
  0
TEXT
  8
14
 7
SIMPLEX
 10
1.778     
 20
25.400    
 40
    2.540
  1
SS2
 50
    0.000
  0
TEXT
  8
14
 7
SIMPLEX
 10
30.607    
 20
25.400    
 40
    2.540
  1
  1
 50
    0.000
  0
TEXT
  8
14
 7
SIMPLEX
 10
42.418    
 20
25.400    
 40
    2.540
  1
5    x 120 x 102
 50
    0.000
  0
TEXT
  8
14
 7
SIMPLEX
 10
121.920   
 20
25.400    
 40
    2.540
 72
  2
 11
121.920   
 21
25.400    
  1
    0.5
 50
    0.000
  0
LINE
  8
14
 10
0.000     
 20
20.955    
 11
124.460   
 21
20.955    
  0
TEXT
  8
14
 7
SIMPLEX
 10
1.778     
 20
21.590    
 40
    2.540
  1
CLF1
 50
    0.000
  0
TEXT
  8
14
 7
SIMPLEX
 10
30.607    
 20
21.590    
 40
    2.540
  1
  2
 50
    0.000
  0
TEXT
  8
14
 7
SIMPLEX
 10
42.418    
 20
21.590    
 40
    2.540
  1
5    x 75  x 75
 50
    0.000
  0
TEXT
  8
14
 7
SIMPLEX
 10
121.920   
 20
21.590    
 40
    2.540
 72
  2
 11
121.920   
 21
21.590    
  1
    0.4
 50
    0.000
  0
LINE
  8
14
 10
0.000     
 20
17.145    
 11
124.460   
 21
17.145    
  0
TEXT
  8
14
 7
SIMPLEX
 10
1.778     
 20
17.780    
 40
    2.540
  1
CLF2
 50
    0.000
  0
TEXT
  8
14
 7
SIMPLEX
 10
30.607    
 20
17.780    
 40
    2.540
  1
  2
 50
    0.000
  0
TEXT
  8
14
 7
SIMPLEX
 10
42.418    
 20
17.780    
 40
    2.540
  1
10   x 150 x 120
 50
    0.000
  0
TEXT
  8
14
 7
SIMPLEX
 10
121.920   
 20
17.780    
 40
    2.540
 72
  2
 11
121.920   
 21
17.780    
  1
    2.9
 50
    0.000
  0
LINE
  8
14
 10
0.000     
 20
13.335    
 11
124.460   
 21
13.335    
  0
TEXT
  8
14
 7
SIMPLEX
 10
1.778     
 20
13.970    
 40
    2.540
  1
CLF3
 50
    0.000
  0
TEXT
  8
14
 7
SIMPLEX
 10
30.607    
 20
13.970    
 40
    2.540
  1
  3
 50
    0.000
  0
TEXT
  8
14
 7
SIMPLEX
 10
42.418    
 20
13.970    
 40
    2.540
  1
5    x 150 x 175
 50
    0.000
  0
TEXT
  8
14
 7
SIMPLEX
 10
121.920   
 20
13.970    
 40
    2.540
 72
  2
 11
121.920   
 21
13.970    
  1
    3.1
 50
    0.000
  0
LINE
  8
14
 10
0.000     
 20
9.525     
 11
124.460   
 21
9.525     
  0
LINE
  8
14
 10
0.000     
 20
5.715     
 11
124.460   
 21
5.715     
  0
TEXT
  8
14
 7
SIMPLEX
 10
42.418    
 20
1.524     
 40
    2.540
  1
Weight Sum
 50
    0.000
  0
TEXT
  8
14
 7
SIMPLEX
 10
121.920   
 20
1.524     
 40
    2.540
 72
  2
 11
121.920   
 21
1.524     
  1
  253.7
 50
    0.000
  0
ENDBLK
  8
0
  0
BLOCK
  8
2
  2
ASMTITLE
 70
     0
 10
0.000     
 20
0.000     
  0
LINE
  8
0
 10
0.000     
 20
10.160    
 11
91.440    
 21
10.160    
  0
LINE
  8
0
 10
0.000     
 20
20.320    
 11
91.440    
 21
20.320    
  0
LINE
  8
0
 10
0.000     
 20
30.480    
 11
91.440    
 21
30.480    
  0
LINE
  8
0
 10
91.440    
 20
0.000     
 11
91.440    
 21
30.480    
  0
LINE
  8
0
 10
0.000     
 20
30.480    
 11
0.000     
 21
0.000     
  0
LINE
  8
0
 10
30.480    
 20
20.320    
 11
30.480    
 21
0.000     
  0
LINE
  8
0
 10
60.960    
 20
20.320    
 11
60.960    
 21
0.000     
  0
LINE
  8
0
 10
0.000     
 20
0.000     
 11
91.440    
 21
0.000     
  0
TEXT
  8
0
 7
SIMPLEX
 10
7.620     
 20
17.780    
 40
    1.143
  1
JOB
 50
    0.000
  0
TEXT
  8
0
 7
SIMPLEX
 10
7.620     
 20
7.620     
 40
    1.143
  1
QUANTITY
 50
    0.000
  0
TEXT
  8
0
 7
SIMPLEX
 10
38.100    
 20
27.940    
 40
    1.143
  1
CUSTOMER
 50
    0.000
  0
TEXT
  8
0
 7
SIMPLEX
 10
38.100    
 20
17.780    
 40
    1.143
  1
CHECKED BY
 50
    0.000
  0
TEXT
  8
0
 7
SIMPLEX
 10
38.100    
 20
7.620     
 40
    1.143
  1
PART
 50
    0.000
  0
TEXT
  8
0
 7
SIMPLEX
 10
68.580    
 20
17.780    
 40
    1.143
  1
DATE
 50
    0.000
  0
TEXT
  8
0
 7
SIMPLEX
 10
68.580    
 20
7.620     
 40
    1.143
  1
DRAWING
 50
    0.000
  0
TEXT
  8
0
 7
SIMPLEX
 10
46.457    
 20
22.860    
 40
    3.607
  1
 
 50
    0.000
  0
TEXT
  8
0
 7
SIMPLEX
 10
2.540     
 20
12.700    
 40
    3.607
  1
Q-1467
 50
    0.000
  0
TEXT
  8
0
 7
SIMPLEX
 10
2.540     
 20
2.540     
 40
    3.607
  1
  4
 50
    0.000
  0
TEXT
  8
0
 7
SIMPLEX
 10
33.020    
 20
2.540     
 40
    3.607
  1
CL1-1
 50
    0.000
  0
TEXT
  8
0
 7
SIMPLEX
 10
62.230    
 20
12.700    
 40
    3.607
  1
15/DEC/2025
 50
    0.000
  0
TEXT
  8
0
 7
SIMPLEX
 10
62.230    
 20
2.540     
 40
    3.607
  1
CL1-1
 50
    0.000
  0
ENDBLK
  8
2
  0
BLOCK
  8
2
  2
ASMSECTN
 70
     0
 10
0.000     
 20
0.000     
  0
LINE
  8
1
 10
-6.350    
 20
0.000     
 11
6.350     
 21
0.000     
  0
LINE
  8
1
 10
-6.350    
 20
0.000     
 11
-6.350    
 21
1.270     
  0
LINE
  8
1
 10
6.350     
 20
0.000     
 11
6.350     
 21
1.270     
  0
LINE
  8
1
 10
-6.350    
 20
1.270     
 11
6.350     
 21
1.270     
  0
LINE
  8
1
 10
-6.350    
 20
27.940    
 11
6.350     
 21
27.940    
  0
LINE
  8
1
 10
-6.350    
 20
27.940    
 11
-6.350    
 21
26.670    
  0
LINE
  8
1
 10
6.350     
 20
27.940    
 11
6.350     
 21
26.670    
  0
LINE
  8
1
 10
-6.350    
 20
26.670    
 11
6.350     
 21
26.670    
  0
LINE
  8
1
 10
-0.508    
 20
1.270     
 11
-0.508    
 21
26.670    
  0
LINE
  8
1
 10
0.508     
 20
1.270     
 11
0.508     
 21
26.670    
  0
TEXT
  8
3
 7
SIMPLEX
 10
-24.841   
 20
6.858     
 40
    2.845
  1
NS
 50
    0.000
  0
TEXT
  8
3
 7
SIMPLEX
 10
21.996    
 20
6.858     
 40
    2.845
  1
FS
 50
    0.000
  0
LINE
  8
13
 10
0.762     
 20
6.604     
 11
5.842     
 21
6.604     
  0
LINE
  8
13
 10
5.842     
 20
6.604     
 11
5.842     
 21
1.524     
  0
LINE
  8
13
 10
5.842     
 20
1.524     
 11
1.524     
 21
1.524     
  0
LINE
  8
13
 10
0.762     
 20
2.286     
 11
0.762     
 21
6.604     
  0
LINE
  8
13
 10
0.762     
 20
2.286     
 11
1.524     
 21
1.524     
  0
LINE
  8
13
 10
-0.762    
 20
6.604     
 11
-5.842    
 21
6.604     
  0
LINE
  8
13
 10
-5.842    
 20
6.604     
 11
-5.842    
 21
1.524     
  0
LINE
  8
13
 10
-5.842    
 20
1.524     
 11
-1.524    
 21
1.524     
  0
LINE
  8
13
 10
-0.762    
 20
2.286     
 11
-0.762    
 21
6.604     
  0
LINE
  8
13
 10
-0.762    
 20
2.286     
 11
-1.524    
 21
1.524     
  0
INSERT
  8
1
  2
CIRCLE
 10
3.302     
 20
4.064     
 41
   0.060
 42
   0.060
 43
   0.060
 50
   0.000
  0
INSERT
  8
1
  2
CIRCLE
 10
-3.302    
 20
4.064     
 41
   0.060
 42
   0.060
 43
   0.060
 50
   0.000
  0
LINE
  8
3
 10
-7.112    
 20
4.064     
 11
-12.192   
 21
4.064     
  0
LINE
  8
3
 10
-7.112    
 20
1.524     
 11
-12.192   
 21
1.524     
  0
LINE
  8
3
 10
-10.922   
 20
1.524     
 11
-10.922   
 21
4.064     
  0
INSERT
  8
1
  2
ARROW
 10
-10.922   
 20
1.524     
 41
   1.000
 42
   1.000
 43
   1.000
 50
  90.000
  0
INSERT
  8
1
  2
ARROW
 10
-10.922   
 20
4.064     
 41
   1.000
 42
   1.000
 43
   1.000
 50
 270.000
  0
TEXT
  8
3
 7
SIMPLEX
 10
-18.068   
 20
1.964     
 40
    2.845
  1
50
 50
    0.000
  0
LINE
  8
3
 10
-3.302    
 20
7.112     
 11
-3.302    
 21
9.144     
  0
LINE
  8
3
 10
-0.508    
 20
7.874     
 11
-0.508    
 21
9.144     
  0
LINE
  8
3
 10
-3.302    
 20
7.874     
 11
-0.508    
 21
7.874     
  0
INSERT
  8
1
  2
ARROW
 10
-3.302    
 20
7.874     
 41
   1.000
 42
   1.000
 43
   1.000
 50
   0.000
  0
INSERT
  8
1
  2
ARROW
 10
-0.508    
 20
7.874     
 41
   1.000
 42
   1.000
 43
   1.000
 50
 180.000
  0
TEXT
  8
3
 7
SIMPLEX
 10
-9.940    
 20
8.568     
 40
    2.845
  1
50
 50
    0.000
  0
LINE
  8
3
 10
7.112     
 20
3.810     
 11
17.272    
 21
3.810     
  0
INSERT
  8
3
  2
ARROWP
 10
7.112     
 20
3.810     
 41
   1.000
 42
   1.000
 43
   1.000
 50
 180.000
  0
TEXT
  8
1
 7
SIMPLEX
 10
10.160    
 20
4.572     
 40
    2.845
  1
CLF1
 50
    0.000
  0
TEXT
  8
21
 7
SIMPLEX
 10
9.550     
 20
-0.457    
 40
    2.845
  1
D=14
 50
    0.000
  0
LINE
  8
13
 10
-5.080    
 20
28.194    
 11
5.080     
 21
28.194    
  0
LINE
  8
13
 10
5.080     
 20
28.194    
 11
5.080     
 21
43.434    
  0
LINE
  8
13
 10
5.080     
 20
43.434    
 11
-5.080    
 21
43.434    
  0
LINE
  8
13
 10
-5.080    
 20
43.434    
 11
-5.080    
 21
28.194    
  0
INSERT
  8
1
  2
CIRCLE
 10
-2.540    
 20
33.274    
 41
   0.060
 42
   0.060
 43
   0.060
 50
   0.000
  0
INSERT
  8
1
  2
CIRCLE
 10
2.540     
 20
33.274    
 41
   0.060
 42
   0.060
 43
   0.060
 50
   0.000
  0
INSERT
  8
1
  2
CIRCLE
 10
-2.540    
 20
40.894    
 41
   0.060
 42
   0.060
 43
   0.060
 50
   0.000
  0
INSERT
  8
1
  2
CIRCLE
 10
2.540     
 20
40.894    
 41
   0.060
 42
   0.060
 43
   0.060
 50
   0.000
  0
LINE
  8
3
 10
-2.540    
 20
44.704    
 11
-2.540    
 21
47.244    
  0
LINE
  8
3
 10
2.540     
 20
44.704    
 11
2.540     
 21
47.244    
  0
LINE
  8
3
 10
-2.540    
 20
45.974    
 11
2.540     
 21
45.974    
  0
INSERT
  8
1
  2
ARROW
 10
-2.540    
 20
45.974    
 41
   1.000
 42
   1.000
 43
   1.000
 50
 180.000
  0
INSERT
  8
1
  2
ARROW
 10
2.540     
 20
45.974    
 41
   1.000
 42
   1.000
 43
   1.000
 50
   0.000
  0
TEXT
  8
3
 7
SIMPLEX
 10
-1.592    
 20
46.922    
 40
    2.845
  1
100
 50
    0.000
  0
LINE
  8
3
 10
7.620     
 20
27.940    
 11
12.700    
 21
27.940    
  0
LINE
  8
3
 10
6.350     
 20
33.274    
 11
12.700    
 21
33.274    
  0
LINE
  8
3
 10
11.430    
 20
27.940    
 11
11.430    
 21
40.894    
  0
LINE
  8
3
 10
6.350     
 20
40.894    
 11
12.700    
 21
40.894    
  0
INSERT
  8
1
  2
ARROW
 10
11.430    
 20
40.894    
 41
   1.000
 42
   1.000
 43
   1.000
 50
  90.000
  0
INSERT
  8
1
  2
ARROW
 10
11.430    
 20
33.274    
 41
   1.000
 42
   1.000
 43
   1.000
 50
 270.000
  0
INSERT
  8
1
  2
ARROW
 10
11.430    
 20
33.274    
 41
   1.000
 42
   1.000
 43
   1.000
 50
  90.000
  0
INSERT
  8
1
  2
ARROW
 10
11.430    
 20
27.940    
 41
   1.000
 42
   1.000
 43
   1.000
 50
 270.000
  0
TEXT
  8
3
 7
SIMPLEX
 10
12.378    
 20
30.158    
 40
    2.845
  1
50
 50
    0.000
  0
TEXT
  8
3
 7
SIMPLEX
 10
12.378    
 20
36.508    
 40
    2.845
  1
100
 50
    0.000
  0
LINE
  8
3
 10
-6.350    
 20
38.100    
 11
-16.510   
 21
38.100    
  0
INSERT
  8
3
  2
ARROWP
 10
-6.350    
 20
38.100    
 41
   1.000
 42
   1.000
 43
   1.000
 50
   0.000
  0
TEXT
  8
1
 7
SIMPLEX
 10
-17.780   
 20
38.862    
 40
    2.845
  1
CLF3
 50
    0.000
  0
TEXT
  8
21
 7
SIMPLEX
 10
-23.571   
 20
33.833    
 40
    2.845
  1
D=14
 50
    0.000
  0
INSERT
  8
4
  2
ARROWP
 10
9.195     
 20
-1.422    
 41
   1.500
 42
   1.500
 43
   1.500
 50
 135.000
  0
LINE
  8
4
 10
9.195     
 20
-1.422    
 11
14.315    
 21
-6.543    
  0
LINE
  8
4
 10
14.315    
 20
-6.543    
 11
33.091    
 21
-6.543    
  0
TEXT
  8
5
 7
SIMPLEX
 10
17.160    
 20
-5.595    
 40
    2.845
  1
4
 50
    0.000
  0
LINE
  8
4
 10
33.091    
 20
-6.543    
 11
33.945    
 21
-6.543    
  0
LINE
  8
4
 10
33.945    
 20
-6.543    
 11
37.358    
 21
-4.552    
  0
LINE
  8
4
 10
33.945    
 20
-6.543    
 11
37.358    
 21
-8.534    
  0
TEXT
  8
4
 7
SIMPLEX
 10
36.647    
 20
-7.965    
 40
    2.845
  1
Clips
 50
    0.000
  0
LINE
  8
4
 10
29.535    
 20
-3.698    
 11
32.380    
 21
-6.543    
  0
LINE
  8
4
 10
29.535    
 20
-6.543    
 11
29.535    
 21
-3.698    
  0
ENDBLK
  8
2
  0
BLOCK
  8
2
  2
ASMBOLT
 70
     0
 10
0.000     
 20
0.000     
  0
TEXT
  8
21
 7
SIMPLEX
 10
0.000     
 20
3.810     
 40
    2.540
  1
D=DIAMETER
 50
    0.000
  0
TEXT
  8
21
 7
SIMPLEX
 10
0.000     
 20
0.000     
 40
    2.540
  1
G=GAGE
 50
    0.000
  0
ENDBLK
  8
2
  0
BLOCK
  8
2
  2
ASMVIEW
 70
     0
 10
0.000     
 20
0.000     
  0
LINE
  8
21
 10
0.000     
 20
0.000     
 11
20.320    
 21
0.000     
  0
INSERT
  8
21
  2
ARROWP
 10
0.000     
 20
0.000     
 41
   1.000
 42
   1.000
 43
   1.000
 50
 180.000
  0
TEXT
  8
21
 7
SIMPLEX
 10
0.000     
 20
0.635     
 40
    2.540
  1
View for
 50
    0.000
  0
TEXT
  8
21
 7
SIMPLEX
 10
0.000     
 20
-3.175    
 40
    2.540
  1
Section
 50
    0.000
  0
ENDBLK
  8
2
  0
BLOCK
  8
0
  2
ASMSLOT
 70
     0
 10
0.000     
 20
0.000     
  0
LINE
  8
0
 10
0.000     
 20
0.000     
 11
38.100    
 21
0.000     
  0
LINE
  8
0
 10
38.100    
 20
0.000     
 11
38.100    
 21
15.240    
  0
LINE
  8
0
 10
38.100    
 20
15.240    
 11
0.000     
 21
15.240    
  0
LINE
  8
0
 10
0.000     
 20
15.240    
 11
0.000     
 21
0.000     
  0
LINE
  8
0
 10
0.000     
 20
10.160    
 11
38.100    
 21
10.160    
  0
LINE
  8
0
 10
0.000     
 20
5.080     
 11
38.100    
 21
5.080     
  0
LINE
  8
0
 10
6.985     
 20
0.000     
 11
6.985     
 21
10.160    
  0
LINE
  8
0
 10
38.100    
 20
0.000     
 11
38.100    
 21
10.160    
  0
TEXT
  8
0
 7
SIMPLEX
 10
0.635     
 20
11.430    
 40
    2.540
  1
SLOT TABLE
 50
    0.000
  0
TEXT
  8
0
 7
SIMPLEX
 10
0.635     
 20
6.350     
 40
    2.540
  1
ID
 50
    0.000
  0
TEXT
  8
0
 7
SIMPLEX
 10
7.620     
 20
6.350     
 40
    2.540
  1
SIZE
 50
    0.000
  0
TEXT
  8
0
 7
SIMPLEX
 10
0.635     
 20
1.270     
 40
    2.540
  1
S1
 50
    0.000
  0
TEXT
  8
0
 7
SIMPLEX
 10
7.620     
 20
1.270     
 40
    2.540
  1
24x50
 50
    0.000
  0
ENDBLK
  8
0
  0
BLOCK
  8
0
  2
ASM_WELD
 70
     0
 10
0.000     
 20
68.580    
  0
LINE
  8
20
 10
0.000     
 20
68.580    
 11
77.978    
 21
68.580    
  0
LINE
  8
20
 10
0.000     
 20
0.000     
 11
77.978    
 21
0.000     
  0
LINE
  8
20
 10
77.978    
 20
0.000     
 11
77.978    
 21
68.580    
  0
LINE
  8
20
 10
0.000     
 20
0.000     
 11
0.000     
 21
68.580    
  0
TEXT
  8
14
 7
SIMPLEX
 10
0.762     
 20
65.405    
 40
    2.540
  1
WELD TABLE
 50
    0.000
  0
LINE
  8
20
 10
0.000     
 20
64.770    
 11
77.978    
 21
64.770    
  0
LINE
  8
20
 10
22.098    
 20
0.000     
 11
22.098    
 21
64.770    
  0
LINE
  8
20
 10
37.338    
 20
0.000     
 11
37.338    
 21
64.770    
  0
LINE
  8
20
 10
52.578    
 20
0.000     
 11
52.578    
 21
64.770    
  0
LINE
  8
20
 10
67.818    
 20
0.000     
 11
67.818    
 21
64.770    
  0
TEXT
  8
14
 7
SIMPLEX
 10
0.762     
 20
61.595    
 40
    2.540
  1
Plate1
 50
    0.000
  0
TEXT
  8
14
 7
SIMPLEX
 10
22.606    
 20
61.595    
 40
    2.540
  1
Plate2
 50
    0.000
  0
TEXT
  8
14
 7
SIMPLEX
 10
37.846    
 20
61.595    
 40
    2.540
  1
Type
 50
    0.000
  0
TEXT
  8
14
 7
SIMPLEX
 10
53.086    
 20
61.595    
 40
    2.540
  1
Size
 50
    0.000
  0
TEXT
  8
14
 7
SIMPLEX
 10
68.326    
 20
61.595    
 40
    2.540
  1
Side
 50
    0.000
  0
LINE
  8
20
 10
0.000     
 20
60.960    
 11
77.978    
 21
60.960    
  0
TEXT
  8
14
 7
SIMPLEX
 10
0.762     
 20
57.785    
 40
    2.540
  1
WB1
 50
    0.000
  0
TEXT
  8
14
 7
SIMPLEX
 10
23.622    
 20
57.785    
 40
    2.540
  1
OF
 50
    0.000
  0
TEXT
  8
14
 7
SIMPLEX
 10
38.354    
 20
57.785    
 40
    2.540
  1
Fillet
 50
    0.000
  0
TEXT
  8
14
 7
SIMPLEX
 10
53.086    
 20
57.785    
 40
    2.540
  1
4
 50
    0.000
  0
TEXT
  8
14
 7
SIMPLEX
 10
69.342    
 20
57.785    
 40
    2.540
  1
  1
 50
    0.000
  0
TEXT
  8
14
 7
SIMPLEX
 10
0.762     
 20
53.975    
 40
    2.540
  1
WB1
 50
    0.000
  0
TEXT
  8
14
 7
SIMPLEX
 10
23.622    
 20
53.975    
 40
    2.540
  1
IF
 50
    0.000
  0
TEXT
  8
14
 7
SIMPLEX
 10
38.354    
 20
53.975    
 40
    2.540
  1
Fillet
 50
    0.000
  0
TEXT
  8
14
 7
SIMPLEX
 10
53.086    
 20
53.975    
 40
    2.540
  1
4
 50
    0.000
  0
TEXT
  8
14
 7
SIMPLEX
 10
69.342    
 20
53.975    
 40
    2.540
  1
  1
 50
    0.000
  0
TEXT
  8
14
 7
SIMPLEX
 10
0.762     
 20
50.165    
 40
    2.540
  1
EP1
 50
    0.000
  0
TEXT
  8
14
 7
SIMPLEX
 10
23.622    
 20
50.165    
 40
    2.540
  1
OF
 50
    0.000
  0
TEXT
  8
14
 7
SIMPLEX
 10
38.354    
 20
50.165    
 40
    2.540
  1
Fillet
 50
    0.000
  0
TEXT
  8
14
 7
SIMPLEX
 10
53.086    
 20
50.165    
 40
    2.540
  1
4
 50
    0.000
  0
TEXT
  8
14
 7
SIMPLEX
 10
69.342    
 20
50.165    
 40
    2.540
  1
  2
 50
    0.000
  0
TEXT
  8
14
 7
SIMPLEX
 10
0.762     
 20
46.355    
 40
    2.540
  1
EP1
 50
    0.000
  0
TEXT
  8
14
 7
SIMPLEX
 10
23.622    
 20
46.355    
 40
    2.540
  1
IF
 50
    0.000
  0
TEXT
  8
14
 7
SIMPLEX
 10
38.354    
 20
46.355    
 40
    2.540
  1
Fillet
 50
    0.000
  0
TEXT
  8
14
 7
SIMPLEX
 10
53.086    
 20
46.355    
 40
    2.540
  1
4
 50
    0.000
  0
TEXT
  8
14
 7
SIMPLEX
 10
69.342    
 20
46.355    
 40
    2.540
  1
  2
 50
    0.000
  0
TEXT
  8
14
 7
SIMPLEX
 10
0.762     
 20
42.545    
 40
    2.540
  1
EP1
 50
    0.000
  0
TEXT
  8
14
 7
SIMPLEX
 10
23.622    
 20
42.545    
 40
    2.540
  1
WB
 50
    0.000
  0
TEXT
  8
14
 7
SIMPLEX
 10
38.354    
 20
42.545    
 40
    2.540
  1
Fillet
 50
    0.000
  0
TEXT
  8
14
 7
SIMPLEX
 10
53.086    
 20
42.545    
 40
    2.540
  1
4
 50
    0.000
  0
TEXT
  8
14
 7
SIMPLEX
 10
69.342    
 20
42.545    
 40
    2.540
  1
  2
 50
    0.000
  0
TEXT
  8
14
 7
SIMPLEX
 10
0.762     
 20
38.735    
 40
    2.540
  1
EP2
 50
    0.000
  0
TEXT
  8
14
 7
SIMPLEX
 10
23.622    
 20
38.735    
 40
    2.540
  1
OF1
 50
    0.000
  0
TEXT
  8
14
 7
SIMPLEX
 10
38.354    
 20
38.735    
 40
    2.540
  1
Fillet
 50
    0.000
  0
TEXT
  8
14
 7
SIMPLEX
 10
53.086    
 20
38.735    
 40
    2.540
  1
4
 50
    0.000
  0
TEXT
  8
14
 7
SIMPLEX
 10
69.342    
 20
38.735    
 40
    2.540
  1
  2
 50
    0.000
  0
TEXT
  8
14
 7
SIMPLEX
 10
0.762     
 20
34.925    
 40
    2.540
  1
EP2
 50
    0.000
  0
TEXT
  8
14
 7
SIMPLEX
 10
23.622    
 20
34.925    
 40
    2.540
  1
IF1
 50
    0.000
  0
TEXT
  8
14
 7
SIMPLEX
 10
38.354    
 20
34.925    
 40
    2.540
  1
Fillet
 50
    0.000
  0
TEXT
  8
14
 7
SIMPLEX
 10
53.086    
 20
34.925    
 40
    2.540
  1
4
 50
    0.000
  0
TEXT
  8
14
 7
SIMPLEX
 10
69.342    
 20
34.925    
 40
    2.540
  1
  2
 50
    0.000
  0
TEXT
  8
14
 7
SIMPLEX
 10
0.762     
 20
31.115    
 40
    2.540
  1
EP2
 50
    0.000
  0
TEXT
  8
14
 7
SIMPLEX
 10
23.622    
 20
31.115    
 40
    2.540
  1
WB1
 50
    0.000
  0
TEXT
  8
14
 7
SIMPLEX
 10
38.354    
 20
31.115    
 40
    2.540
  1
Fillet
 50
    0.000
  0
TEXT
  8
14
 7
SIMPLEX
 10
53.086    
 20
31.115    
 40
    2.540
  1
4
 50
    0.000
  0
TEXT
  8
14
 7
SIMPLEX
 10
69.342    
 20
31.115    
 40
    2.540
  1
  2
 50
    0.000
  0
TEXT
  8
14
 7
SIMPLEX
 10
0.762     
 20
27.305    
 40
    2.540
  1
CLF1
 50
    0.000
  0
TEXT
  8
14
 7
SIMPLEX
 10
23.622    
 20
27.305    
 40
    2.540
  1
WB
 50
    0.000
  0
TEXT
  8
14
 7
SIMPLEX
 10
38.354    
 20
27.305    
 40
    2.540
  1
Fillet
 50
    0.000
  0
TEXT
  8
14
 7
SIMPLEX
 10
53.086    
 20
27.305    
 40
    2.540
  1
4
 50
    0.000
  0
TEXT
  8
14
 7
SIMPLEX
 10
69.342    
 20
27.305    
 40
    2.540
  1
  1
 50
    0.000
  0
TEXT
  8
14
 7
SIMPLEX
 10
0.762     
 20
23.495    
 40
    2.540
  1
CLF1
 50
    0.000
  0
TEXT
  8
14
 7
SIMPLEX
 10
23.622    
 20
23.495    
 40
    2.540
  1
IF
 50
    0.000
  0
TEXT
  8
14
 7
SIMPLEX
 10
38.354    
 20
23.495    
 40
    2.540
  1
Fillet
 50
    0.000
  0
TEXT
  8
14
 7
SIMPLEX
 10
53.086    
 20
23.495    
 40
    2.540
  1
4
 50
    0.000
  0
TEXT
  8
14
 7
SIMPLEX
 10
69.342    
 20
23.495    
 40
    2.540
  1
  1
 50
    0.000
  0
TEXT
  8
14
 7
SIMPLEX
 10
0.762     
 20
19.685    
 40
    2.540
  1
CLF2
 50
    0.000
  0
TEXT
  8
14
 7
SIMPLEX
 10
23.622    
 20
19.685    
 40
    2.540
  1
WB
 50
    0.000
  0
TEXT
  8
14
 7
SIMPLEX
 10
38.354    
 20
19.685    
 40
    2.540
  1
Fillet
 50
    0.000
  0
TEXT
  8
14
 7
SIMPLEX
 10
53.086    
 20
19.685    
 40
    2.540
  1
4
 50
    0.000
  0
TEXT
  8
14
 7
SIMPLEX
 10
69.342    
 20
19.685    
 40
    2.540
  1
  1
 50
    0.000
  0
TEXT
  8
14
 7
SIMPLEX
 10
0.762     
 20
15.875    
 40
    2.540
  1
CLF3
 50
    0.000
  0
TEXT
  8
14
 7
SIMPLEX
 10
23.622    
 20
15.875    
 40
    2.540
  1
OF1
 50
    0.000
  0
TEXT
  8
14
 7
SIMPLEX
 10
38.354    
 20
15.875    
 40
    2.540
  1
Fillet
 50
    0.000
  0
TEXT
  8
14
 7
SIMPLEX
 10
53.086    
 20
15.875    
 40
    2.540
  1
4
 50
    0.000
  0
TEXT
  8
14
 7
SIMPLEX
 10
69.342    
 20
15.875    
 40
    2.540
  1
  1
 50
    0.000
  0
TEXT
  8
14
 7
SIMPLEX
 10
0.762     
 20
12.065    
 40
    2.540
  1
SS1
 50
    0.000
  0
TEXT
  8
14
 7
SIMPLEX
 10
23.622    
 20
12.065    
 40
    2.540
  1
EP
 50
    0.000
  0
TEXT
  8
14
 7
SIMPLEX
 10
38.354    
 20
12.065    
 40
    2.540
  1
Fillet
 50
    0.000
  0
TEXT
  8
14
 7
SIMPLEX
 10
53.086    
 20
12.065    
 40
    2.540
  1
4
 50
    0.000
  0
TEXT
  8
14
 7
SIMPLEX
 10
69.342    
 20
12.065    
 40
    2.540
  1
  1
 50
    0.000
  0
TEXT
  8
14
 7
SIMPLEX
 10
0.762     
 20
8.255     
 40
    2.540
  1
SS1
 50
    0.000
  0
TEXT
  8
14
 7
SIMPLEX
 10
23.622    
 20
8.255     
 40
    2.540
  1
OF1
 50
    0.000
  0
TEXT
  8
14
 7
SIMPLEX
 10
38.354    
 20
8.255     
 40
    2.540
  1
Fillet
 50
    0.000
  0
TEXT
  8
14
 7
SIMPLEX
 10
53.086    
 20
8.255     
 40
    2.540
  1
4
 50
    0.000
  0
TEXT
  8
14
 7
SIMPLEX
 10
69.342    
 20
8.255     
 40
    2.540
  1
  1
 50
    0.000
  0
TEXT
  8
14
 7
SIMPLEX
 10
0.762     
 20
4.445     
 40
    2.540
  1
SS2
 50
    0.000
  0
TEXT
  8
14
 7
SIMPLEX
 10
23.622    
 20
4.445     
 40
    2.540
  1
EP
 50
    0.000
  0
TEXT
  8
14
 7
SIMPLEX
 10
38.354    
 20
4.445     
 40
    2.540
  1
Fillet
 50
    0.000
  0
TEXT
  8
14
 7
SIMPLEX
 10
53.086    
 20
4.445     
 40
    2.540
  1
4
 50
    0.000
  0
TEXT
  8
14
 7
SIMPLEX
 10
69.342    
 20
4.445     
 40
    2.540
  1
  1
 50
    0.000
  0
TEXT
  8
14
 7
SIMPLEX
 10
0.762     
 20
0.635     
 40
    2.540
  1
SS2
 50
    0.000
  0
TEXT
  8
14
 7
SIMPLEX
 10
23.622    
 20
0.635     
 40
    2.540
  1
IF
 50
    0.000
  0
TEXT
  8
14
 7
SIMPLEX
 10
38.354    
 20
0.635     
 40
    2.540
  1
Fillet
 50
    0.000
  0
TEXT
  8
14
 7
SIMPLEX
 10
53.086    
 20
0.635     
 40
    2.540
  1
4
 50
    0.000
  0
TEXT
  8
14
 7
SIMPLEX
 10
69.342    
 20
0.635     
 40
    2.540
  1
  1
 50
    0.000
  0
ENDBLK
  8
0
999
START:   BLOCK=ARROWD
  0
BLOCK
  8
2
  2
ARROWD
 70
     0
 10
    0.000
 20
    0.000
  0
LINE
  8
2
 10
   -0.635
 20
   -0.635
 11
    0.635
 21
    0.635
  0
ENDBLK
  8
2
999
END:     BLOCK=ARROWD
999
START:   BLOCK=PC-21
999
BLOCK_SIZE:   BLOCK=PC-21    Width= 50.8000 Height= 50.8000
  0
BLOCK
  8
2
  2
PC-21
 70
     0
 10
    0.000
 20
    0.000
  0
LINE
  8
1
 10
    0.000
 20
    0.000
 11
   50.800
 21
    0.000
  0
LINE
  8
1
 10
   50.800
 20
    0.000
 11
   50.800
 21
   50.800
  0
LINE
  8
1
 10
   50.800
 20
   50.800
 11
    0.000
 21
   50.800
  0
LINE
  8
1
 10
    0.000
 20
   50.800
 11
    0.000
 21
    0.000
  0
LINE
  8
13
 10
   33.020
 20
   36.830
 11
   12.700
 21
   36.830
  0
LINE
  8
13
 10
   33.020
 20
   36.830
 11
   33.020
 21
   19.050
  0
LINE
  8
13
 10
   12.700
 20
   36.830
 11
   12.700
 21
   19.050
  0
LINE
  8
13
 10
   33.020
 20
   19.050
 11
   12.700
 21
   19.050
  0
CIRCLE
  8
6
 10
    24.553
 20
    32.385
 40
     0.508
  0
CIRCLE
  8
6
 10
    24.553
 20
    23.495
 40
     0.508
  0
LINE
  8
2
 10
   12.700
 20
   16.002
 11
   12.700
 21
   14.478
  0
INSERT
  8
2
  2
ARROWD
 10
   12.700
 20
   15.240
 41
   1.000
 42
   1.000
 43
   1.000
 50
 180.000
  0
LINE
  8
2
 10
   24.553
 20
   16.002
 11
   24.553
 21
   14.478
  0
INSERT
  8
2
  2
ARROWD
 10
   24.553
 20
   15.240
 41
   1.000
 42
   1.000
 43
   1.000
 50
   0.000
  0
LINE
  8
2
 10
   12.700
 20
   15.240
 11
   24.553
 21
   15.240
  0
TEXT
  8
11
 7
SIMPLEX
 10
   17.663
 20
   11.080
 40
    1.927
  1
70
 50
    0.000
  0
INSERT
  8
2
  2
ARROWD
 10
   24.553
 20
   15.240
 41
   1.000
 42
   1.000
 43
   1.000
 50
 180.000
  0
LINE
  8
2
 10
   33.020
 20
   16.002
 11
   33.020
 21
   14.478
  0
INSERT
  8
2
  2
ARROWD
 10
   33.020
 20
   15.240
 41
   1.000
 42
   1.000
 43
   1.000
 50
   0.000
  0
LINE
  8
2
 10
   24.553
 20
   15.240
 11
   33.020
 21
   15.240
  0
TEXT
  8
11
 7
SIMPLEX
 10
   27.823
 20
   11.080
 40
    1.927
  1
50
 50
    0.000
  0
LINE
  8
2
 10
   37.338
 20
   32.385
 11
   38.862
 21
   32.385
  0
INSERT
  8
2
  2
ARROWD
 10
   38.100
 20
   32.385
 41
   1.000
 42
   1.000
 43
   1.000
 50
 -90.000
  0
LINE
  8
2
 10
   37.338
 20
   36.830
 11
   38.862
 21
   36.830
  0
INSERT
  8
2
  2
ARROWD
 10
   38.100
 20
   36.830
 41
   1.000
 42
   1.000
 43
   1.000
 50
  90.000
  0
TEXT
  8
11
 7
SIMPLEX
 10
   39.063
 20
   33.348
 40
    1.927
  1
38
 50
    0.000
  0
LINE
  8
2
 10
   38.100
 20
   36.830
 11
   38.100
 21
   32.385
  0
INSERT
  8
2
  2
ARROWD
 10
   38.100
 20
   32.385
 41
   1.000
 42
   1.000
 43
   1.000
 50
  90.000
  0
LINE
  8
2
 10
   37.338
 20
   23.495
 11
   38.862
 21
   23.495
  0
INSERT
  8
2
  2
ARROWD
 10
   38.100
 20
   23.495
 41
   1.000
 42
   1.000
 43
   1.000
 50
 -90.000
  0
LINE
  8
2
 10
   38.100
 20
   32.385
 11
   38.100
 21
   23.495
  0
TEXT
  8
11
 7
SIMPLEX
 10
   39.063
 20
   27.125
 40
    1.927
  1
75
 50
    0.000
  0
LINE
  8
2
 10
   37.338
 20
   19.050
 11
   38.862
 21
   19.050
  0
INSERT
  8
2
  2
ARROWD
 10
   38.100
 20
   23.495
 41
   1.000
 42
   1.000
 43
   1.000
 50
  90.000
  0
INSERT
  8
2
  2
ARROWD
 10
   38.100
 20
   19.050
 41
   1.000
 42
   1.000
 43
   1.000
 50
 -90.000
  0
LINE
  8
2
 10
   38.100
 20
   19.050
 11
   38.100
 21
   23.495
  0
TEXT
  8
11
 7
SIMPLEX
 10
   39.063
 20
   20.013
 40
    1.927
  1
38
 50
    0.000
  0
LINE
  8
3
 10
   12.446
 20
   39.370
 11
   12.446
 21
   16.510
  0
LINE
  8
3
 10
   10.922
 20
   40.640
 11
   10.922
 21
   15.240
  0
TEXT
  8
2
 7
SIMPLEX
 10
    9.197
 20
   25.400
 40
    1.927
  1
WEB
 50
   90.000
  0
TEXT
  8
21
 7
SIMPLEX
 10
    0.963
 20
   45.019
 40
    1.927
  1
D= 18
 50
    0.000
  0
TEXT
  8
2
 7
SIMPLEX
 10
    0.963
 20
   47.910
 40
    1.927
  1
CLF2
 50
    0.000
  0
TEXT
  8
2
 7
SIMPLEX
 10
    0.963
 20
    0.963
 40
    1.927
  1
10 x 150 x 120
 50
    0.000
  0
ENDBLK
  8
2
999
END:     BLOCK=PC-21
  0
ENDSEC
  0
SECTION
  2
ENTITIES
  0
LINE
  8
22
 10
0.000     
 20
0.000     
 11
841.000   
 21
0.000     
  0
LINE
  8
22
 10
841.000   
 20
0.000     
 11
841.000   
 21
594.000   
  0
LINE
  8
22
 10
841.000   
 20
594.000   
 11
0.000     
 21
594.000   
  0
LINE
  8
22
 10
0.000     
 20
594.000   
 11
0.000     
 21
0.000     
  0
INSERT
  8
0
  2
ASMPIECE
 10
43.000    
 20
292.000   
 41
   0.119
 42
   0.119
 43
   0.119
 50
   0.000
  0
INSERT
  8
0
  2
ASMPLATE
 10
0.000     
 20
0.000     
 41
   1.000
 42
   1.000
 43
   1.000
 50
   0.000
  0
INSERT
  8
0
  2
ASMTITLE
 10
703.840   
 20
0.000     
 41
   1.500
 42
   1.500
 43
   1.500
 50
   0.000
  0
INSERT
  8
0
  2
ASMSECTN
 10
225.000   
 20
430.000   
 41
   1.240
 42
   1.240
 43
   1.240
 50
   0.000
  0
INSERT
  8
0
  2
ASMBOLT
 10
385.000   
 20
40.000    
 41
   0.984
 42
   0.984
 43
   0.984
 50
   0.000
  0
INSERT
  8
0
  2
ASMVIEW
 10
225.000   
 20
385.000   
 41
   0.984
 42
   0.984
 43
   0.984
 50
   0.000
  0
INSERT
  8
0
  2
ASMSLOT
 10
445.000   
 20
0.000     
 41
   0.984
 42
   0.984
 43
   0.984
 50
   0.000
  0
INSERT
  8
0
  2
ASM_WELD
 10
764.269   
 20
594.000   
 41
   0.984
 42
   0.984
 43
   0.984
 50
   0.000
  0
INSERT
  8
0
  2
PC-21
 10
0.000     
 20
519.000   
 41
   1.476
 42
   1.476
 43
   1.476
 50
   0.000
  0
ENDSEC
  0
EOF
