999
SOURCE:MBS   PROGRAM:PLT_DXF   CELL:RF_BEP   CLASS:SCALED   MODE:---
  0
SECTION
  2
HEADER
  9
$EXTMIN
 10
          0.000
 20
          0.000
  9
$EXTMAX
 10
       1161.491
 20
        730.938
  9
$LIMMIN
 10
          0.000
 20
          0.000
  9
$LIMMAX
 10
       1161.491
 20
        730.938
  9
$FILLMODE
 70
     1
  9
$LTSCALE
 40
  0.125
  9
$HANDLING
 70
     0
  0
ENDSEC
  0
SECTION
  2
TABLES
  0
TABLE
  2
LTYPE
 70
     3
  0
LTYPE
  2
CONTINUOUS
 70
    64
  3
SOLID LINE
 72
    65
 73
     0
 40
0.0
  0
LTYPE
  2
CENTER
 70
    64
  3
____ _ ____ _ ____ _ ____ _ ____ _ ____ _ ____
 72
    65
 73
     4
 40
2.0
 49
1.25
 49
-0.25
 49
0.25
 49
-0.25
  0
LTYPE
  2
DASHED
 70
    64
  3
__ __ __ __ __ __ __ __ __ __ __ __ __ __ __ 
 72
    65
 73
     2
 40
0.75
 49
0.5
 49
-0.25
  0
ENDTAB
  0
TABLE
  2
LAYER
 70
    51
  0
LAYER
  2
0
 70
     0
 62
     7
  6
CONTINUOUS
  0
LAYER
  2
1
 70
     0
 62
     7
  6
CONTINUOUS
  0
LAYER
  2
2
 70
     0
 62
     7
  6
CONTINUOUS
  0
LAYER
  2
3
 70
     0
 62
     1
  6
CONTINUOUS
  0
LAYER
  2
4
 70
     0
 62
     1
  6
CONTINUOUS
  0
LAYER
  2
5
 70
     0
 62
     7
  6
CONTINUOUS
  0
LAYER
  2
6
 70
     0
 62
     6
  6
CONTINUOUS
  0
LAYER
  2
7
 70
     0
 62
     3
  6
CONTINUOUS
  0
LAYER
  2
8
 70
     0
 62
     3
  6
CONTINUOUS
  0
LAYER
  2
9
 70
     0
 62
     7
  6
CONTINUOUS
  0
LAYER
  2
10
 70
     0
 62
     7
  6
CONTINUOUS
  0
LAYER
  2
11
 70
     0
 62
     7
  6
CONTINUOUS
  0
LAYER
  2
12
 70
     0
 62
     3
  6
CONTINUOUS
  0
LAYER
  2
13
 70
     0
 62
     3
  6
CONTINUOUS
  0
LAYER
  2
14
 70
     0
 62
     7
  6
CONTINUOUS
  0
LAYER
  2
15
 70
     0
 62
     6
  6
CONTINUOUS
  0
LAYER
  2
16
 70
     0
 62
     7
  6
CONTINUOUS
  0
LAYER
  2
17
 70
     0
 62
     7
  6
CONTINUOUS
  0
LAYER
  2
18
 70
     0
 62
     6
  6
CONTINUOUS
  0
LAYER
  2
19
 70
     0
 62
     7
  6
CONTINUOUS
  0
LAYER
  2
20
 70
     0
 62
     7
  6
CONTINUOUS
  0
LAYER
  2
21
 70
     0
 62
     7
  6
CONTINUOUS
  0
LAYER
  2
22
 70
     0
 62
     7
  6
CONTINUOUS
  0
LAYER
  2
23
 70
     0
 62
     7
  6
CONTINUOUS
  0
LAYER
  2
24
 70
     0
 62
     7
  6
CONTINUOUS
  0
LAYER
  2
25
 70
     0
 62
     7
  6
CONTINUOUS
  0
LAYER
  2
26
 70
     0
 62
     7
  6
CONTINUOUS
  0
LAYER
  2
27
 70
     0
 62
     7
  6
CONTINUOUS
  0
LAYER
  2
28
 70
     0
 62
     7
  6
CONTINUOUS
  0
LAYER
  2
29
 70
     0
 62
     7
  6
CONTINUOUS
  0
LAYER
  2
30
 70
     0
 62
     7
  6
CONTINUOUS
  0
LAYER
  2
31
 70
     0
 62
     7
  6
CONTINUOUS
  0
LAYER
  2
32
 70
     0
 62
     7
  6
CONTINUOUS
  0
LAYER
  2
33
 70
     0
 62
     7
  6
CONTINUOUS
  0
LAYER
  2
34
 70
     0
 62
     7
  6
CONTINUOUS
  0
LAYER
  2
35
 70
     0
 62
     7
  6
CONTINUOUS
  0
LAYER
  2
36
 70
     0
 62
     7
  6
CONTINUOUS
  0
LAYER
  2
37
 70
     0
 62
     7
  6
CONTINUOUS
  0
LAYER
  2
38
 70
     0
 62
     7
  6
CONTINUOUS
  0
LAYER
  2
39
 70
     0
 62
     7
  6
CONTINUOUS
  0
LAYER
  2
40
 70
     0
 62
     7
  6
CONTINUOUS
  0
LAYER
  2
41
 70
     0
 62
     7
  6
CONTINUOUS
  0
LAYER
  2
42
 70
     0
 62
     7
  6
CONTINUOUS
  0
LAYER
  2
43
 70
     0
 62
     7
  6
CONTINUOUS
  0
LAYER
  2
44
 70
     0
 62
     7
  6
CONTINUOUS
  0
LAYER
  2
45
 70
     0
 62
     7
  6
CONTINUOUS
  0
LAYER
  2
46
 70
     0
 62
     7
  6
CONTINUOUS
  0
LAYER
  2
47
 70
     0
 62
     7
  6
CONTINUOUS
  0
LAYER
  2
48
 70
     0
 62
     7
  6
CONTINUOUS
  0
LAYER
  2
49
 70
     0
 62
     7
  6
CONTINUOUS
  0
LAYER
  2
50
 70
     0
 62
     7
  6
CONTINUOUS
  0
ENDTAB
  0
ENDSEC
  0
SECTION
  2
BLOCKS
  0
BLOCK
  8
2
  2
ARROW
 70
     0
 10
  0.000000
 20
  0.000000
  0
LINE
  6
CONTINUOUS
  8
2
 10
  0.000000
 20
  0.000000
 11
 -1.000000
 21
  0.166667
  0
LINE
  6
CONTINUOUS
  8
2
 10
 -1.000000
 20
  0.166667
 11
 -1.000000
 21
 -0.166667
  0
LINE
  6
CONTINUOUS
  8
2
 10
 -1.000000
 20
 -0.166667
 11
  0.000000
 21
  0.000000
  0
ENDBLK
  8
2
  0
BLOCK
  8
3
  2
CIRCLE
 70
     0
 10
  0.000000
 20
  0.000000
  0
CIRCLE
  8
1
 10
   0.000
 20
   0.000
 40
   1.000
  0
ENDBLK
  8
3
  0
BLOCK
  8
2
  2
PLATE
 70
     0
 10
  0.000000
 20
  0.000000
  0
CIRCLE
  6
CONTINUOUS
  8
5
 10
  0.000000
 20
-100.00000
 40
  0.100000
  0
LINE
  6
CONTINUOUS
  8
5
 10
 -0.100000
 20
-100.00000
 11
  0.100000
 21
-100.00000
  0
LINE
  6
CONTINUOUS
  8
5
 10
  0.000000
 20
-100.10000
 11
  0.000000
 21
-99.900002
  0
TEXT
  8
5
 10
  0.000000
 20
-100.00000
 40
   0.015
  1
ZERO
 50
   0.000
  0
LINE
  6
CONTINUOUS
  8
3
 10
  0.000000
 20
  0.000000
 11
  0.000000
 21
-200.00000
  0
LINE
  6
CONTINUOUS
  8
3
 10
  0.000000
 20
-200.00000
 11
 901.15698
 21
-200.00000
  0
LINE
  6
CONTINUOUS
  8
3
 10
 901.15698
 20
-200.00000
 11
 901.15698
 21
  0.000000
  0
LINE
  6
CONTINUOUS
  8
3
 10
 901.15698
 20
  0.000000
 11
  0.000000
 21
  0.000000
  0
CIRCLE
  6
CONTINUOUS
  8
4
 10
 50.000000
 20
-50.000000
 40
 11.000000
  0
CIRCLE
  6
CONTINUOUS
  8
4
 10
 50.000000
 20
-150.00000
 40
 11.000000
  0
CIRCLE
  6
CONTINUOUS
  8
4
 10
 150.00000
 20
-50.000000
 40
 11.000000
  0
CIRCLE
  6
CONTINUOUS
  8
4
 10
 150.00000
 20
-150.00000
 40
 11.000000
  0
CIRCLE
  6
CONTINUOUS
  8
4
 10
 450.00000
 20
-50.000000
 40
 11.000000
  0
CIRCLE
  6
CONTINUOUS
  8
4
 10
 450.00000
 20
-150.00000
 40
 11.000000
  0
CIRCLE
  6
CONTINUOUS
  8
4
 10
 750.00000
 20
-50.000000
 40
 11.000000
  0
CIRCLE
  6
CONTINUOUS
  8
4
 10
 750.00000
 20
-150.00000
 40
 11.000000
  0
CIRCLE
  6
CONTINUOUS
  8
4
 10
 850.00000
 20
-50.000000
 40
 11.000000
  0
CIRCLE
  6
CONTINUOUS
  8
4
 10
 850.00000
 20
-150.00000
 40
 11.000000
  0
LINE
  6
CONTINUOUS
  8
6
 10
 -6.007713
 20
-200.00000
 11
-43.555923
 21
-200.00000
  0
LINE
  6
CONTINUOUS
  8
6
 10
 -6.007698
 20
  0.000000
 11
-43.555908
 21
  0.000003
  0
LINE
  6
CONTINUOUS
  8
6
 10
-43.505924
 20
-200.00000
 11
-43.505909
 21
  0.000003
  0
INSERT
  8
6
  2
ARROW
 10
-43.505924
 20
-200.00000
 41
  4.005142
 42
  4.005142
 43
  4.005142
 50
 270.000
  0
INSERT
  8
6
  2
ARROW
 10
-43.505909
 20
  0.000003
 41
  4.005142
 42
  4.005142
 43
  4.005142
 50
  90.000
  0
TEXT
  8
6
 10
-47.511059
 20
-112.01543
 40
   8.010
  1
200
 50
  90.000
  0
LINE
  6
CONTINUOUS
  8
6
 10
  0.000000
 20
  6.007713
 11
  0.000000
 21
 43.555923
  0
LINE
  6
CONTINUOUS
  8
6
 10
 901.15698
 20
  6.007713
 11
 901.15698
 21
 43.555923
  0
LINE
  6
CONTINUOUS
  8
6
 10
  0.000000
 20
 43.505924
 11
 901.15698
 21
 43.505924
  0
INSERT
  8
6
  2
ARROW
 10
  0.000000
 20
 43.505924
 41
  4.005142
 42
  4.005142
 43
  4.005142
 50
 180.000
  0
INSERT
  8
6
  2
ARROW
 10
 901.15698
 20
 43.505924
 41
  4.005142
 42
  4.005142
 43
  4.005142
 50
   0.000
  0
TEXT
  8
6
 10
 439.56436
 20
 47.511066
 40
   8.010
  1
901
 50
   0.000
  0
LINE
  6
CONTINUOUS
  8
6
 10
 907.16467
 20
-50.000000
 11
 944.71289
 21
-50.000004
  0
LINE
  6
CONTINUOUS
  8
6
 10
 907.16467
 20
  0.000000
 11
 944.71289
 21
 -0.000003
  0
LINE
  6
CONTINUOUS
  8
6
 10
 944.66290
 20
-50.000004
 11
 944.66290
 21
 -0.000003
  0
INSERT
  8
6
  2
ARROW
 10
 944.66290
 20
-50.000004
 41
  4.005142
 42
  4.005142
 43
  4.005142
 50
 270.000
  0
INSERT
  8
6
  2
ARROW
 10
 944.66290
 20
 -0.000003
 41
  4.005142
 42
  4.005142
 43
  4.005142
 50
  90.000
  0
TEXT
  8
6
 10
 940.65778
 20
-33.010288
 40
   8.010
  1
50
 50
  90.000
  0
LINE
  6
CONTINUOUS
  8
6
 10
 907.16467
 20
-150.00000
 11
 944.71289
 21
-150.00000
  0
LINE
  6
CONTINUOUS
  8
6
 10
 907.16467
 20
-50.000000
 11
 944.71289
 21
-50.000004
  0
LINE
  6
CONTINUOUS
  8
6
 10
 944.66290
 20
-150.00000
 11
 944.66290
 21
-50.000004
  0
INSERT
  8
6
  2
ARROW
 10
 944.66290
 20
-150.00000
 41
  4.005142
 42
  4.005142
 43
  4.005142
 50
 270.000
  0
INSERT
  8
6
  2
ARROW
 10
 944.66290
 20
-50.000004
 41
  4.005142
 42
  4.005142
 43
  4.005142
 50
  90.000
  0
TEXT
  8
6
 10
 940.65778
 20
-111.01414
 40
   8.010
  1
100
 50
  90.000
  0
LINE
  6
CONTINUOUS
  8
6
 10
  0.000000
 20
-206.00772
 11
  0.000000
 21
-226.03343
  0
LINE
  6
CONTINUOUS
  8
6
 10
 50.000000
 20
-206.00772
 11
 50.000000
 21
-226.03343
  0
LINE
  6
CONTINUOUS
  8
6
 10
  0.000000
 20
-225.98343
 11
 50.000000
 21
-225.98343
  0
INSERT
  8
6
  2
ARROW
 10
  0.000000
 20
-225.98343
 41
  4.005142
 42
  4.005142
 43
  4.005142
 50
 180.000
  0
INSERT
  8
6
  2
ARROW
 10
 50.000000
 20
-225.98343
 41
  4.005142
 42
  4.005142
 43
  4.005142
 50
   0.000
  0
TEXT
  8
6
 10
 16.989716
 20
-221.97829
 40
   8.010
  1
50
 50
   0.000
  0
LINE
  6
CONTINUOUS
  8
6
 10
 150.00000
 20
-206.00772
 11
 150.00000
 21
-226.03343
  0
LINE
  6
CONTINUOUS
  8
6
 10
 133.97943
 20
-225.98343
 11
 150.00000
 21
-225.98343
  0
INSERT
  8
6
  2
ARROW
 10
 150.00000
 20
-225.98343
 41
  4.005142
 42
  4.005142
 43
  4.005142
 50
   0.000
  0
TEXT
  8
6
 10
 123.96658
 20
-221.97829
 40
   8.010
  1
150
 50
   0.000
  0
LINE
  6
CONTINUOUS
  8
6
 10
 450.00000
 20
-206.00772
 11
 450.00000
 21
-226.03343
  0
LINE
  6
CONTINUOUS
  8
6
 10
 433.97943
 20
-225.98343
 11
 450.00000
 21
-225.98343
  0
INSERT
  8
6
  2
ARROW
 10
 450.00000
 20
-225.98343
 41
  4.005142
 42
  4.005142
 43
  4.005142
 50
   0.000
  0
TEXT
  8
6
 10
 421.96399
 20
-221.97829
 40
   8.010
  1
450
 50
   0.000
  0
LINE
  6
CONTINUOUS
  8
6
 10
 750.00000
 20
-206.00772
 11
 750.00000
 21
-226.03343
  0
LINE
  6
CONTINUOUS
  8
6
 10
 733.97943
 20
-225.98343
 11
 750.00000
 21
-225.98343
  0
INSERT
  8
6
  2
ARROW
 10
 750.00000
 20
-225.98343
 41
  4.005142
 42
  4.005142
 43
  4.005142
 50
   0.000
  0
TEXT
  8
6
 10
 721.96399
 20
-221.97829
 40
   8.010
  1
750
 50
   0.000
  0
LINE
  6
CONTINUOUS
  8
6
 10
 850.00000
 20
-206.00772
 11
 850.00000
 21
-226.03343
  0
LINE
  6
CONTINUOUS
  8
6
 10
 833.97943
 20
-225.98343
 11
 850.00000
 21
-225.98343
  0
INSERT
  8
6
  2
ARROW
 10
 850.00000
 20
-225.98343
 41
  4.005142
 42
  4.005142
 43
  4.005142
 50
   0.000
  0
TEXT
  8
6
 10
 821.96399
 20
-221.97829
 40
   8.010
  1
850
 50
   0.000
  0
TEXT
  8
6
 10
 50.000000
 20
 16.020569
 40
   8.010
  1
DIA:22
 50
   0.000
  0
ENDBLK
  8
2
  0
ENDSEC
  0
SECTION
  2
ENTITIES
  0
LINE
  6
CONTINUOUS
  8
5
 10
  0.000000
 20
  0.000000
 11
 1161.4913
 21
  0.000000
  0
LINE
  6
CONTINUOUS
  8
5
 10
 1161.4913
 20
  0.000000
 11
 1161.4913
 21
 730.93848
  0
LINE
  6
CONTINUOUS
  8
5
 10
 1161.4913
 20
 730.93848
 11
  0.000000
 21
 730.93848
  0
LINE
  6
CONTINUOUS
  8
5
 10
  0.000000
 20
 730.93848
 11
  0.000000
 21
  0.000000
  0
TEXT
  8
5
 10
 16.020569
 20
  8.010284
 40
  16.021
  1
YIELD:345.0
 50
   0.000
  0
TEXT
  8
5
 10
 16.020569
 20
 32.041138
 40
  16.021
  1
THICKNESS:16
 50
   0.000
  0
TEXT
  8
5
 10
 16.020569
 20
 56.071991
 40
  16.021
  1
QUANTITY:20
 50
   0.000
  0
TEXT
  8
5
 10
 16.020569
 20
 80.102844
 40
  16.021
  1
DRAWING:EP2
 50
   0.000
  0
TEXT
  8
5
 10
 16.020569
 20
 104.13370
 40
  16.021
  1
MARK:EP2
 50
   0.000
  0
TEXT
  8
5
 10
 16.020569
 20
 128.16455
 40
  16.021
  1
JOB:Q-1467
 50
   0.000
  0
INSERT
  8
2
  2
PLATE
 10
 130.16718
 20
 465.46924
 41
  1.000000
 42
  1.000000
 43
  1.000000
 50
   0.000
  0
ENDSEC
  0
EOF
