999
SOURCE:MBS   PROGRAM:EWSWDWG   CELL:EwDwg-R   CLASS:ELEVATION   MODE:
  0
SECTION
  2
HEADER
  9
$ACADVER
  1
AC1009
  9
$EXTMIN
 10
0.00000000
 20
0.00000000
  9
$EXTMAX
 10
30925.9688
 20
21869.0781
  9
$LIMMIN
 10
0.00000000
 20
0.00000000
  9
$LIMMAX
 10
30925.9688
 20
21869.0781
  9
$FILLMODE
 70
     1
  9
$HANDLING
 70
     0
  0
ENDSEC
  0
SECTION
  2
TABLES
  0
TABLE
  2
LTYPE
 70
4
  0
LTYPE
  2
CONTIN
 70
   64
  3
SOLID LINE
  72
   65
 73
    0
 40
 0.000
  0
LTYPE
  2
CENTER
 70
   64
  3
____ _ ____ _ _
  72
   65
 73
    4
 40
1870.3
 49
1168.9
 49
-233.8
 49
233.79
 49
-233.8
  0
LTYPE
  2
DASHED
 70
   64
  3
__ __ __ __ __
  72
   65
 73
    2
 40
350.68
 49
233.79
 49
-116.0
  0
LTYPE
  2
CONTINUOUS
 70
   64
  3
SOLID LINE
  72
   65
 73
    0
 40
 0.000
  0
ENDTAB
  0
TABLE
  2
LAYER
 70
27
  0
LAYER
  2
0
 70
     0
 62
     7
  6
CONTIN
  0
LAYER
  2
1
 70
     0
 62
     7
  6
CONTIN
  0
LAYER
  2
2
 70
     0
 62
     6
  6
CONTIN
  0
LAYER
  2
3
 70
     0
 62
     5
  6
CONTIN
  0
LAYER
  2
4
 70
     0
 62
     7
  6
CONTIN
  0
LAYER
  2
5
 70
     0
 62
     5
  6
DASHED
  0
LAYER
  2
6
 70
     0
 62
     4
  6
CONTIN
  0
LAYER
  2
7
 70
     0
 62
     7
  6
CONTIN
  0
LAYER
  2
8
 70
     0
 62
     2
  6
DASHED
  0
LAYER
  2
9
 70
     0
 62
     7
  6
DASHED
  0
LAYER
  2
10
 70
     0
 62
     7
  6
CONTIN
  0
LAYER
  2
11
 70
     0
 62
     6
  6
CONTIN
  0
LAYER
  2
12
 70
     0
 62
     7
  6
CONTIN
  0
LAYER
  2
13
 70
     0
 62
     5
  6
CONTIN
  0
LAYER
  2
14
 70
     0
 62
     1
  6
CONTIN
  0
LAYER
  2
15
 70
     0
 62
     1
  6
CONTIN
  0
LAYER
  2
16
 70
     0
 62
     1
  6
CONTIN
  0
LAYER
  2
17
 70
     0
 62
     6
  6
CONTIN
  0
LAYER
  2
18
 70
     0
 62
     1
  6
CONTIN
  0
LAYER
  2
19
 70
     0
 62
     7
  6
CONTIN
  0
LAYER
  2
20
 70
     0
 62
     7
  6
CONTIN
  0
LAYER
  2
21
 70
     0
 62
     7
  6
CONTIN
  0
LAYER
  2
22
 70
     0
 62
     7
  6
CONTIN
  0
LAYER
  2
23
 70
     0
 62
     7
  6
DASHED
  0
LAYER
  2
24
 70
     0
 62
     7
  6
CONTIN
  0
LAYER
  2
25
 70
     0
 62
     7
  6
CONTIN
  0
LAYER
  2
26
 70
     0
 62
     7
  6
CONTIN
  0
LAYER
  2
27
 70
     0
 62
     7
  6
CENTER
  0
ENDTAB
  0
TABLE
  2
STYLE
 70
  0
  0
STYLE
  2
SIMPLEX
 70
  0
 40
  0.000
 41
  1.000
 42
  1.000
 50
  0.000
 71
  0
  3
SIMPLEX
  0
STYLE
  2
ROMANS
 70
  0
 40
  0.000
 41
  1.000
 42
  1.000
 50
  0.000
 71
  0
  3
ROMANS
  0
STYLE
  2
OPEN
 70
  0
 40
  0.000
 41
  1.000
 42
  1.000
 50
  0.000
 71
  0
  3
SIMPLEX
  0
STYLE
  2
ARIAL
 70
  0
 40
  0.000
 41
  1.000
 42
  1.000
 50
  0.000
 71
  0
  3
ARIAL.TTF
  0
STYLE
  2
VERDANAB
 70
  0
 40
  0.000
 41
  1.000
 42
  1.000
 50
  0.000
 71
  0
  3
VERDANAB.TTF
  0
ENDTAB
  0
ENDSEC
  0
SECTION
  2
BLOCKS
  0
BLOCK
  8
0
  2
ARROWP
 70
     0
 10
0.00000000
 20
0.00000000
  0
LINE
  8
0
 10
0.00000000
 20
0.00000000
 11
-133.72536
 21
-22.287558
  0
LINE
  8
0
 10
0.00000000
 20
0.00000000
 11
-133.72536
 21
22.2875576
  0
LINE
  8
0
 10
-133.72536
 20
22.2875576
 11
-133.72536
 21
-22.287558
  0
ENDBLK
  8
0
  0
BLOCK
  8
0
  2
ARROW
 70
     0
 10
0.00000000
 20
0.00000000
  0
LINE
  8
0
 10
0.00000000
 20
0.00000000
 11
-133.72536
 21
-22.287558
  0
LINE
  8
0
 10
0.00000000
 20
0.00000000
 11
-133.72536
 21
22.2875576
  0
LINE
  8
0
 10
-133.72536
 20
22.2875576
 11
-133.72536
 21
-22.287558
  0
ENDBLK
  8
0
  0
BLOCK
  8
0
  2
MARKER
 70
     0
 10
0.00000000
 20
0.00000000
  0
LINE
  8
0
 10
0.00000000
 20
0.00000000
 11
25.3999996
 21
25.3999996
  0
LINE
  8
0
 10
25.3999996
 20
25.3999996
 11
-25.400000
 21
25.3999996
  0
LINE
  8
0
 10
-25.400000
 20
25.3999996
 11
0.00000000
 21
0.00000000
  0
ENDBLK
  8
0
  0
BLOCK
  8
0
  2
FLGCLP
 70
     0
 10
0.00000000
 20
0.00000000
  0
LINE
  8
0
 10
0.00000000
 20
0.00000000
 11
25.3999996
 21
25.3999996
  0
LINE
  8
0
 10
25.3999996
 20
25.3999996
 11
-25.400000
 21
25.3999996
  0
LINE
  8
0
 10
-25.400000
 20
25.3999996
 11
0.00000000
 21
0.00000000
  0
LINE
  8
0
 10
-8.4666672
 20
8.46666716
 11
8.46666716
 21
8.46666716
  0
LINE
  8
0
 10
-8.4666672
 20
8.46666716
 11
-8.4666672
 21
25.3999996
  0
LINE
  8
0
 10
8.46666716
 20
8.46666716
 11
8.46666716
 21
25.3999996
  0
ENDBLK
  8
0
  0
BLOCK
  8
0
  2
DIAMOND
 70
     0
 10
0.00000000
 20
0.00000000
  0
LINE
  8
0
 10
0.00000000
 20
0.00000000
 11
12.6999998
 21
12.6999998
  0
LINE
  8
0
 10
12.6999998
 20
12.6999998
 11
0.00000000
 21
25.3999996
  0
LINE
  8
0
 10
0.00000000
 20
25.3999996
 11
-12.700000
 21
12.6999998
  0
LINE
  8
0
 10
-12.700000
 20
12.6999998
 11
0.00000000
 21
0.00000000
  0
ENDBLK
  8
0
  0
BLOCK
  8
0
  2
SHIELD
 70
     0
 10
0.00000000
 20
0.00000000
  0
ARC
  8
0
 10
0.00000000
 20
38.0999985
 40
12.6999998
 50
   0.000
 51
 180.000
  0
LINE
  8
0
 10
-12.700000
 20
38.0999985
 11
-12.700000
 21
12.6999998
  0
LINE
  8
0
 10
-12.700000
 20
12.6999998
 11
0.00000000
 21
0.00000000
  0
LINE
  8
0
 10
0.00000000
 20
0.00000000
 11
12.6999998
 21
12.6999998
  0
LINE
  8
0
 10
12.6999998
 20
12.6999998
 11
12.6999998
 21
38.0999985
  0
ENDBLK
  8
0
  0
BLOCK
  8
0
  2
FINFLR
 70
     0
 10
0.00000000
 20
0.00000000
  0
LINE
  8
0
 10
0.00000000
 20
0.00000000
 11
12.6999998
 21
25.3999996
  0
LINE
  8
0
 10
12.6999998
 20
25.3999996
 11
-12.700000
 21
25.3999996
  0
LINE
  8
0
 10
-12.700000
 20
25.3999996
 11
0.00000000
 21
0.00000000
  0
LINE
  8
0
 10
0.00000000
 20
0.00000000
 11
0.00000000
 21
25.3999996
  0
SOLID
  8
0
 10
0.00000000
 20
0.00000000
 11
0.00000000
 21
25.3999996
 12
-12.700000
 22
25.3999996
 13
-12.700000
 23
25.3999996
  0
ENDBLK
  8
0
  0
BLOCK
  8
0
  2
CIRCLE
 70
     0
 10
0.00000000
 20
0.00000000
  0
CIRCLE
  8
1
 10
   0.000
 20
   0.000
 40
  25.400
  0
ENDBLK
  8
0
  0
BLOCK
  8
0
  2
HEXAGON
 70
     0
 10
0.00000000
 20
0.00000000
  0
LINE
  8
0
 10
0.00000000
 20
0.00000000
 11
7.62000084
 21
-10.160000
  0
LINE
  8
0
 10
7.62000084
 20
-10.160000
 11
17.7799988
 21
-10.160000
  0
LINE
  8
0
 10
17.7799988
 20
-10.160000
 11
25.3999996
 21
0.00000000
  0
LINE
  8
0
 10
25.3999996
 20
0.00000000
 11
17.7799988
 21
10.1599999
  0
LINE
  8
0
 10
17.7799988
 20
10.1599999
 11
7.62000084
 21
10.1599999
  0
LINE
  8
0
 10
7.62000084
 20
10.1599999
 11
0.00000000
 21
0.00000000
  0
ENDBLK
  8
0
  0
BLOCK
  8
0
  2
CCOL
 70
     0
 10
0.00000000
 20
0.00000000
  0
LINE
  8
0
 10
10.1599999
 20
-2.5400000
 11
10.1599999
 21
0.00000000
  0
LINE
  8
0
 10
10.1599999
 20
0.00000000
 11
0.00000000
 21
0.00000000
  0
LINE
  8
0
 10
0.00000000
 20
0.00000000
 11
0.00000000
 21
-25.400000
  0
LINE
  8
0
 10
0.00000000
 20
-25.400000
 11
10.1599999
 21
-25.400000
  0
LINE
  8
0
 10
10.1599999
 20
-25.400000
 11
10.1599999
 21
-22.859999
  0
ENDBLK
  8
0
  0
BLOCK
  8
0
  2
DCOL
 70
     0
 10
0.00000000
 20
0.00000000
  0
INSERT
  8
0
  2
CCOL
 10
2.53999996
 20
0.00000000
 41
1.00000000
 42
1.00000000
 43
1.00000000
 50
   0.000
  0
INSERT
  8
0
  2
CCOL
 10
-2.5400000
 20
0.00000000
 41
-1.0000000
 42
1.00000000
 43
1.00000000
 50
   0.000
  0
ENDBLK
  8
0
  0
BLOCK
  8
0
  2
UCOL
 70
     0
 10
0.00000000
 20
0.00000000
  0
LINE
  8
0
 10
10.1599999
 20
0.00000000
 11
0.00000000
 21
0.00000000
  0
LINE
  8
0
 10
0.00000000
 20
0.00000000
 11
0.00000000
 21
-25.400000
  0
LINE
  8
0
 10
0.00000000
 20
-25.400000
 11
10.1599999
 21
-25.400000
  0
ENDBLK
  8
0
  0
BLOCK
  8
0
  2
WCOL
 70
     0
 10
0.00000000
 20
0.00000000
  0
LINE
  8
0
 10
-10.160000
 20
0.00000000
 11
10.1599999
 21
0.00000000
  0
LINE
  8
0
 10
0.00000000
 20
0.00000000
 11
0.00000000
 21
-25.400000
  0
LINE
  8
0
 10
-10.160000
 20
-25.400000
 11
10.1599999
 21
-25.400000
  0
ENDBLK
  8
0
  0
BLOCK
  8
0
  2
ZCOL
 70
     0
 10
0.00000000
 20
0.00000000
  0
LINE
  8
0
 10
10.1599999
 20
-2.5400000
 11
10.1599999
 21
0.00000000
  0
LINE
  8
0
 10
10.1599999
 20
0.00000000
 11
0.00000000
 21
0.00000000
  0
LINE
  8
0
 10
0.00000000
 20
0.00000000
 11
0.00000000
 21
-25.400000
  0
LINE
  8
0
 10
0.00000000
 20
-25.400000
 11
-10.160000
 21
-25.400000
  0
LINE
  8
0
 10
-10.160000
 20
-25.400000
 11
-10.160000
 21
-22.859999
  0
ENDBLK
  8
0
  0
BLOCK
  8
0
  2
TCOL
 70
     0
 10
0.00000000
 20
0.00000000
  0
LINE
  8
0
 10
-12.700000
 20
-12.700000
 11
12.6999998
 21
-12.700000
  0
LINE
  8
0
 10
12.6999998
 20
-12.700000
 11
12.6999998
 21
12.6999998
  0
LINE
  8
0
 10
12.6999998
 20
12.6999998
 11
-12.700000
 21
12.6999998
  0
LINE
  8
0
 10
-12.700000
 20
12.6999998
 11
-12.700000
 21
-12.700000
  0
ENDBLK
  8
0
  0
BLOCK
  8
0
  2
TCOL2
 70
     0
 10
0.00000000
 20
0.00000000
  0
LINE
  8
0
 10
-6.3499999
 20
-12.700000
 11
6.34999992
 21
-12.700000
  0
LINE
  8
0
 10
6.34999992
 20
-12.700000
 11
6.34999992
 21
12.6999998
  0
LINE
  8
0
 10
6.34999992
 20
12.6999998
 11
-6.3499999
 21
12.6999998
  0
LINE
  8
0
 10
-6.3499999
 20
12.6999998
 11
-6.3499999
 21
-12.700000
  0
ENDBLK
  8
0
  0
BLOCK
  8
1
  2
PCOL
 70
     0
 10
0.00000000
 20
0.00000000
  0
CIRCLE
  8
1
 10
0.00000000
 20
0.00000000
 40
12.6999998
  0
ENDBLK
  8
1
  0
BLOCK
  8
0
  2
GCOL
 70
     0
 10
0.00000000
 20
0.00000000
  0
LINE
  8
0
 10
10.1599999
 20
-2.5400000
 11
10.1599999
 21
0.00000000
  0
LINE
  8
0
 10
10.1599999
 20
0.00000000
 11
0.00000000
 21
0.00000000
  0
LINE
  8
0
 10
0.00000000
 20
0.00000000
 11
0.00000000
 21
-25.400000
  0
LINE
  8
0
 10
0.00000000
 20
-25.400000
 11
25.3999996
 21
-25.400000
  0
LINE
  8
0
 10
25.3999996
 20
-25.400000
 11
25.3999996
 21
-15.240001
  0
LINE
  8
0
 10
25.3999996
 20
-15.240001
 11
22.8599987
 21
-15.240001
  0
ENDBLK
  8
0
  0
BLOCK
  8
0
  2
VSECTN
 70
     0
 10
0.00000000
 20
0.00000000
  0
LINE
  8
0
 10
-12.700000
 20
25.3999996
 11
12.6999998
 21
25.3999996
  0
LINE
  8
0
 10
-12.700000
 20
25.3999996
 11
0.00000000
 21
0.00000000
  0
LINE
  8
0
 10
0.00000000
 20
0.00000000
 11
12.6999998
 21
25.3999996
  0
ENDBLK
  8
0
  0
BLOCK
  8
0
  2
XCOL
 70
     0
 10
0.00000000
 20
0.00000000
  0
LINE
  8
0
 10
-14.287499
 20
1.58749996
 11
14.2874994
 21
1.58749996
  0
LINE
  8
0
 10
14.2874994
 20
1.58749996
 11
14.2874994
 21
-26.987499
  0
LINE
  8
0
 10
14.2874994
 20
-26.987499
 11
-14.287499
 21
-26.987499
  0
LINE
  8
0
 10
-14.287499
 20
-26.987499
 11
-14.287499
 21
1.58749996
  0
ENDBLK
  8
0
  0
BLOCK
  8
0
  2
SGUS
 70
     0
 10
0.00000000
 20
0.00000000
  0
LINE
  8
0
 10
0.00000000
 20
0.00000000
 11
7.62000084
 21
0.00000000
  0
LINE
  8
0
 10
7.62000084
 20
0.00000000
 11
17.7799988
 21
-25.400000
  0
LINE
  8
0
 10
17.7799988
 20
-25.400000
 11
25.3999996
 21
-25.400000
  0
ENDBLK
  8
0
  0
BLOCK
  8
7
  2
CUTSEC
 70
     0
 10
0.00000000
 20
0.00000000
  0
LINE
  8
7
 10
-216.01785
 20
0.00000000
 11
-51.432827
 21
0.00000000
  0
LINE
  8
7
 10
51.4328270
 20
0.00000000
 11
216.017868
 21
0.00000000
  0
LINE
  8
7
 10
216.017868
 20
0.00000000
 11
216.017868
 21
61.7193909
  0
INSERT
  8
7
  2
ARROWP
 10
216.017868
 20
195.444748
 41
1.00000000
 42
1.00000000
 43
1.00000000
 50
  90.000
  0
ENDBLK
  8
7
  0
BLOCK
  8
0
  2
WALLLITE
 70
     0
 10
0.00000000
 20
0.00000000
  0
LINE
  8
0
 10
25.3999996
 20
0.00000000
 11
0.00000000
 21
0.00000000
  0
LINE
  8
0
 10
0.00000000
 20
0.00000000
 11
0.00000000
 21
-25.400000
  0
LINE
  8
0
 10
0.00000000
 20
-25.400000
 11
25.3999996
 21
-25.400000
  0
LINE
  8
0
 10
25.3999996
 20
-25.400000
 11
25.3999996
 21
0.00000000
  0
LINE
  8
0
 10
0.00000000
 20
-25.400000
 11
0.00000000
 21
0.00000000
  0
LINE
  8
0
 10
6.34999992
 20
-25.400000
 11
6.34999992
 21
0.00000000
  0
LINE
  8
0
 10
12.6999998
 20
-25.400000
 11
12.6999998
 21
0.00000000
  0
LINE
  8
0
 10
19.0499992
 20
-25.400000
 11
19.0499992
 21
0.00000000
  0
ENDBLK
  8
0
  0
BLOCK
  8
7
  2
DETAIL
 70
     0
 10
0.00000000
 20
0.00000000
  0
CIRCLE
  8
7
 10
0.00000000
 20
0.00000000
 40
51.4328270
  0
LINE
  8
7
 10
51.4328270
 20
0.00000000
 11
226.304443
 21
0.00000000
  0
ENDBLK
  8
7
  0
BLOCK
  8
0
  2
EW2FRM
 70
     0
 10
0.00000000
 20
0.00000000
999
START:   AREA=Surface
  0
LINE
  8
5
 10
0.00000000
 20
0.00000000
 11
22596.0000
 21
0.00000000
  0
LINE
  8
5
 10
0.00000000
 20
0.00000000
 11
0.00000000
 21
7300.00000
  0
LINE
  8
5
 10
0.00000000
 20
7300.00000
 11
11298.0000
 21
10124.5000
  0
LINE
  8
5
 10
11298.0000
 20
10124.5000
 11
22596.0000
 21
7300.00000
  0
LINE
  8
5
 10
22596.0000
 20
7300.00000
 11
22596.0000
 21
0.00000000
999
END:     AREA=Surface
999
START:   AREA=Columns
  0
LINE
  8
4
 10
6335.00049
 20
500.000000
 11
6335.00049
 21
8226.49512
  0
LINE
  8
4
 10
16261.0020
 20
500.000000
 11
16261.0020
 21
8229.19727
  0
INSERT
  8
10
  2
WCOL
 10
6335.00049
 20
-61.719391
 41
5.06228638
 42
5.06228638
 43
5.06228638
 50
   0.000
  0
INSERT
  8
10
  2
WCOL
 10
16261.0020
 20
-61.719391
 41
5.06228638
 42
5.06228638
 43
5.06228638
 50
   0.000
  0
TEXT
  8
3
 7
SIMPLEX
 10
6106.76660
 20
-380.60291
 40
128.582077
  1
EC-1
 50
   0.000
  0
TEXT
  8
3
 7
SIMPLEX
 10
16010.2656
 20
-380.60291
 40
128.582077
  1
EC-2
 50
   0.000
999
END:     AREA=Columns
999
START:   AREA=RF Outline
  0
LINE
  8
5
 10
200.000000
 20
499.399994
 11
199.999970
 21
7143.84424
  0
LINE
  8
5
 10
199.999970
 20
7143.84424
 11
11298.0000
 21
9918.34375
  0
LINE
  8
5
 10
11298.0000
 20
9918.34375
 11
22396.0000
 21
7143.84424
  0
LINE
  8
5
 10
22396.0000
 20
7143.84424
 11
22396.0000
 21
499.399994
  0
LINE
  8
5
 10
461.799988
 20
499.399994
 11
914.099976
 21
6756.50000
  0
LINE
  8
5
 10
914.099976
 20
6756.50000
 11
1011.40009
 21
6765.10010
  0
LINE
  8
5
 10
1011.40009
 20
6765.10010
 11
1012.40002
 21
6765.39990
  0
LINE
  8
5
 10
1012.40002
 20
6765.39990
 11
5532.79980
 21
8102.89990
  0
LINE
  8
5
 10
5532.79980
 20
8102.89990
 11
11299.0996
 21
9444.20020
  0
LINE
  8
5
 10
11299.0996
 20
9444.20020
 11
17064.3008
 21
8105.70068
  0
LINE
  8
5
 10
17064.3008
 20
8105.70068
 11
21583.5996
 21
6765.39990
  0
LINE
  8
5
 10
21583.5996
 20
6765.39990
 11
21583.5996
 21
6765.39990
  0
LINE
  8
5
 10
21583.5996
 20
6765.39990
 11
21688.5996
 21
6749.10059
  0
LINE
  8
5
 10
21688.5996
 20
6749.10059
 11
22134.1992
 21
499.399994
  0
LINE
  8
5
 10
200.000000
 20
499.399994
 11
461.799988
 21
499.399994
  0
LINE
  8
5
 10
22396.0000
 20
499.399994
 11
22134.1992
 21
499.399994
999
START:   AREA=RF Outline
999
START:   AREA=Backbrace Struts
999
END:     AREA=Backbrace Struts
999
START:   AREA=Header Struts
999
END:     AREA=Header Struts
999
START:   AREA=Framed Openings
999
END:     AREA=Framed Openings
999
START:   AREA=Wideopen Outlines
999
END:     AREA=WideOpen Outlines
999
START:   AREA=Wind Frames
999
END:     AREA=Wind Frames
999
START:   AREA=Wall Panel
999
END:     AREA=Wall Panel
999
START:   AREA=Base Angles
999
START:   AREA=Sheeting Angles
  0
TEXT
  8
3
 7
SIMPLEX
 10
2908.80103
 20
8725.62305
 40
128.582077
  1
GA
 50
  14.036
  0
TEXT
  8
3
 7
SIMPLEX
 10
19437.7148
 20
8787.99414
 40
128.582077
  1
GA
 50
 -14.036
999
START:   AREA=Sheeting Angles
999
START:   AREA=Corner Angles
999
END:     AREA=Corner Angles
999
START:   AREA=Partial Wall Angles
  0
LINE
  8
5
 10
0.00000000
 20
0.00000000
 11
0.00000000
 21
3800.00024
  0
LINE
  8
5
 10
22596.0000
 20
0.00000000
 11
22596.0000
 21
3800.00024
  0
LINE
  8
5
 10
0.00000000
 20
3800.00024
 11
22596.0000
 21
3800.00024
999
END:     AREA=Partial Wall Angles
999
START:   AREA=Wide Door Angles
999
END:     AREA=Wide Door Angles
999
START:   AREA=Cables
999
END:     AREA=Cables
999
START:   AREA=Girts
  0
LINE
  8
1
 10
200.000000
 20
3849.14014
 11
6710.00049
 21
3849.14014
  0
TEXT
  8
3
 7
SIMPLEX
 10
2955.33960
 20
3881.28540
 40
128.582077
  1
 G-1
 50
   0.000
  0
LINE
  8
1
 10
200.000000
 20
5269.14014
 11
6710.00049
 21
5269.14014
  0
TEXT
  8
3
 7
SIMPLEX
 10
2955.33960
 20
5301.28564
 40
128.582077
  1
 G-1
 50
   0.000
  0
LINE
  8
1
 10
200.000000
 20
6469.13965
 11
6710.00049
 21
6469.13965
  0
TEXT
  8
3
 7
SIMPLEX
 10
2955.33960
 20
6501.28662
 40
128.582077
  1
 G-1
 50
   0.000
  0
LINE
  8
1
 10
1901.18604
 20
7569.14111
 11
6710.00049
 21
7569.14111
  0
TEXT
  8
3
 7
SIMPLEX
 10
2932.83765
 20
7601.28662
 40
128.582077
  1
 G-2
 50
   0.000
  0
LINE
  8
1
 10
5960.00000
 20
3910.85962
 11
16636.0020
 21
3910.85962
  0
TEXT
  8
3
 7
SIMPLEX
 10
11063.3379
 20
3943.00488
 40
128.582077
  1
 G-3
 50
   0.000
  0
LINE
  8
1
 10
5960.00000
 20
5330.85986
 11
16636.0020
 21
5330.85986
  0
TEXT
  8
3
 7
SIMPLEX
 10
11063.3379
 20
5363.00488
 40
128.582077
  1
 G-3
 50
   0.000
  0
LINE
  8
1
 10
5960.00000
 20
6530.85938
 11
16636.0020
 21
6530.85938
  0
TEXT
  8
3
 7
SIMPLEX
 10
11063.3379
 20
6563.00488
 40
128.582077
  1
 G-3
 50
   0.000
  0
LINE
  8
1
 10
5960.00000
 20
7630.86035
 11
16636.0020
 21
7630.86035
  0
TEXT
  8
3
 7
SIMPLEX
 10
11063.3379
 20
7663.00488
 40
128.582077
  1
 G-3
 50
   0.000
  0
LINE
  8
1
 10
6948.06006
 20
8830.85938
 11
15647.9395
 21
8830.85938
  0
TEXT
  8
3
 7
SIMPLEX
 10
10870.4648
 20
8863.00488
 40
128.582077
  1
(2) G-4
 50
   0.000
  0
LINE
  8
1
 10
15886.0020
 20
3849.14014
 11
22396.0000
 21
3849.14014
  0
TEXT
  8
3
 7
SIMPLEX
 10
19193.8398
 20
3881.28540
 40
128.582077
  1
 G-5
 50
   0.000
  0
LINE
  8
1
 10
15886.0020
 20
5269.14014
 11
22396.0000
 21
5269.14014
  0
TEXT
  8
3
 7
SIMPLEX
 10
19193.8398
 20
5301.28564
 40
128.582077
  1
 G-5
 50
   0.000
  0
LINE
  8
1
 10
15886.0020
 20
6469.13965
 11
22396.0000
 21
6469.13965
  0
TEXT
  8
3
 7
SIMPLEX
 10
19193.8398
 20
6501.28662
 40
128.582077
  1
 G-5
 50
   0.000
  0
LINE
  8
1
 10
15886.0020
 20
7569.14111
 11
20694.8145
 21
7569.14111
  0
TEXT
  8
3
 7
SIMPLEX
 10
19193.8398
 20
7601.28662
 40
128.582077
  1
 G-6
 50
   0.000
999
END:     AREA=Girts
999
START:   AREA=Lap Girts
999
END:     AREA=Lap Girts
999
START:   AREA=Column Flange Brace
  0
INSERT
  8
3
  2
MARKER
 10
6489.29834
 20
3910.85962
 41
5.69507216
 42
5.69507216
 43
5.69507216
 50
   0.000
  0
TEXT
  8
3
 7
SIMPLEX
 10
6199.98828
 20
4087.65942
 40
128.582077
  1
FB424
 50
   0.000
  0
INSERT
  8
3
  2
MARKER
 10
6489.29834
 20
5330.85986
 41
5.69507216
 42
5.69507216
 43
5.69507216
 50
   0.000
  0
TEXT
  8
3
 7
SIMPLEX
 10
6199.98828
 20
5507.65967
 40
128.582077
  1
FB424
 50
   0.000
  0
INSERT
  8
3
  2
MARKER
 10
16106.7021
 20
3910.85962
 41
5.69507216
 42
5.69507216
 43
5.69507216
 50
   0.000
  0
TEXT
  8
3
 7
SIMPLEX
 10
15817.3916
 20
4087.65942
 40
128.582077
  1
FB424
 50
   0.000
  0
INSERT
  8
3
  2
MARKER
 10
16106.7021
 20
5330.85986
 41
5.69507216
 42
5.69507216
 43
5.69507216
 50
   0.000
  0
TEXT
  8
3
 7
SIMPLEX
 10
15817.3916
 20
5507.65967
 40
128.582077
  1
FB424
 50
   0.000
999
END:     AREA=Column Flange Brace
999
START:   AREA=Rafter Flange Brace
999
END:     AREA=Rafter Flange Brace
999
START:   AREA=Wall Struts
999
END:     AREA=Wall Struts
999
START:   AREA=Accessories
999
END:     AREA=Accessories
999
START:   AREA=Cranes
999
END:     AREA=Cranes
999
START:   AREA=JBlocks
  0
TEXT
  8
3
 7
SIMPLEX
 10
2142.52686
 20
4559.14014
 40
128.582077
  1
JB-1
 50
   0.000
  0
LINE
  8
1
 10
2111.66699
 20
3880.00000
 11
2111.66699
 21
5238.28076
  0
TEXT
  8
3
 7
SIMPLEX
 10
2142.52686
 20
5869.13965
 40
128.582077
  1
JB-2
 50
   0.000
  0
LINE
  8
1
 10
2111.66699
 20
5300.00000
 11
2111.66699
 21
6438.28076
  0
TEXT
  8
3
 7
SIMPLEX
 10
2142.52686
 20
7019.14063
 40
128.582077
  1
JB-3
 50
   0.000
  0
LINE
  8
1
 10
2111.66699
 20
6500.00000
 11
2111.66699
 21
7538.28174
  0
LINE
  8
1
 10
4223.33398
 20
3880.00000
 11
4223.33398
 21
5238.28076
  0
LINE
  8
1
 10
4223.33398
 20
5300.00000
 11
4223.33398
 21
6438.28076
  0
LINE
  8
1
 10
4223.33398
 20
6500.00000
 11
4223.33398
 21
7538.28174
  0
LINE
  8
1
 10
8320.20020
 20
3941.71924
 11
8320.20020
 21
5300.00000
  0
LINE
  8
1
 10
8320.20020
 20
5361.71973
 11
8320.20020
 21
6500.00000
  0
LINE
  8
1
 10
8320.20020
 20
6561.71924
 11
8320.20020
 21
7600.00049
  0
TEXT
  8
3
 7
SIMPLEX
 10
8351.05957
 20
8230.85938
 40
128.582077
  1
JB-2
 50
   0.000
  0
LINE
  8
1
 10
8320.20020
 20
7661.71924
 11
8320.20020
 21
8800.00000
  0
LINE
  8
1
 10
10305.4014
 20
3941.71924
 11
10305.4014
 21
5300.00000
  0
LINE
  8
1
 10
10305.4014
 20
5361.71973
 11
10305.4014
 21
6500.00000
  0
LINE
  8
1
 10
10305.4014
 20
6561.71924
 11
10305.4014
 21
7600.00049
  0
LINE
  8
1
 10
10305.4014
 20
7661.71924
 11
10305.4014
 21
8800.00000
  0
LINE
  8
1
 10
12290.6016
 20
3941.71924
 11
12290.6016
 21
5300.00000
  0
LINE
  8
1
 10
12290.6016
 20
5361.71973
 11
12290.6016
 21
6500.00000
  0
LINE
  8
1
 10
12290.6016
 20
6561.71924
 11
12290.6016
 21
7600.00049
  0
LINE
  8
1
 10
12290.6016
 20
7661.71924
 11
12290.6016
 21
8800.00000
  0
LINE
  8
1
 10
14275.8018
 20
3941.71924
 11
14275.8018
 21
5300.00000
  0
LINE
  8
1
 10
14275.8018
 20
5361.71973
 11
14275.8018
 21
6500.00000
  0
LINE
  8
1
 10
14275.8018
 20
6561.71924
 11
14275.8018
 21
7600.00049
  0
LINE
  8
1
 10
14275.8018
 20
7661.71924
 11
14275.8018
 21
8800.00000
  0
LINE
  8
1
 10
18372.6680
 20
3880.00000
 11
18372.6680
 21
5238.28076
  0
LINE
  8
1
 10
18372.6680
 20
5300.00000
 11
18372.6680
 21
6438.28076
  0
LINE
  8
1
 10
18372.6680
 20
6500.00000
 11
18372.6680
 21
7538.28174
  0
LINE
  8
1
 10
20484.3359
 20
3880.00000
 11
20484.3359
 21
5238.28076
  0
LINE
  8
1
 10
20484.3359
 20
5300.00000
 11
20484.3359
 21
6438.28076
  0
LINE
  8
1
 10
20484.3359
 20
6500.00000
 11
20484.3359
 21
7538.28174
999
END:     AREA=JBlocks
999
START:   AREA=Clips
  0
TEXT
  8
3
 7
SIMPLEX
 10
1949.40454
 20
7424.48633
 40
96.4365540
  1
1
 50
   0.000
  0
LINE
  8
3
 10
2069.95020
 20
7400.37695
 11
2069.95020
 21
7545.03223
  0
LINE
  8
3
 10
1925.29541
 20
7400.37695
 11
1925.29541
 21
7545.03223
  0
LINE
  8
3
 10
1925.29541
 20
7545.03223
 11
2069.95020
 21
7545.03223
  0
LINE
  8
3
 10
2069.95020
 20
7400.37695
 11
1925.29541
 21
7400.37695
  0
TEXT
  8
3
 7
SIMPLEX
 10
6996.27881
 20
8686.20410
 40
96.4365540
  1
1
 50
   0.000
  0
LINE
  8
3
 10
7116.82520
 20
8662.09473
 11
7116.82520
 21
8806.75098
  0
LINE
  8
3
 10
6972.16943
 20
8662.09473
 11
6972.16943
 21
8806.75098
  0
LINE
  8
3
 10
6972.16943
 20
8806.75098
 11
7116.82520
 21
8806.75098
  0
LINE
  8
3
 10
7116.82520
 20
8662.09473
 11
6972.16943
 21
8662.09473
  0
TEXT
  8
3
 7
SIMPLEX
 10
15503.2852
 20
8686.20410
 40
96.4365540
  1
1
 50
   0.000
  0
LINE
  8
3
 10
15623.8291
 20
8662.09473
 11
15623.8291
 21
8806.75098
  0
LINE
  8
3
 10
15479.1758
 20
8662.09473
 11
15479.1758
 21
8806.75098
  0
LINE
  8
3
 10
15479.1758
 20
8806.75098
 11
15623.8291
 21
8806.75098
  0
LINE
  8
3
 10
15623.8291
 20
8662.09473
 11
15479.1758
 21
8662.09473
  0
TEXT
  8
3
 7
SIMPLEX
 10
20550.1602
 20
7424.48633
 40
96.4365540
  1
1
 50
   0.000
  0
LINE
  8
3
 10
20670.7031
 20
7400.37695
 11
20670.7031
 21
7545.03223
  0
LINE
  8
3
 10
20526.0508
 20
7400.37695
 11
20526.0508
 21
7545.03223
  0
LINE
  8
3
 10
20526.0508
 20
7545.03223
 11
20670.7031
 21
7545.03223
  0
LINE
  8
3
 10
20670.7031
 20
7400.37695
 11
20526.0508
 21
7400.37695
  0
TEXT
  8
3
 7
SIMPLEX
 10
248.218277
 20
3928.21826
 40
96.4365540
  1
2
 50
   0.000
  0
LINE
  8
3
 10
368.763977
 20
3904.10938
 11
368.763977
 21
4048.76416
  0
LINE
  8
3
 10
224.109131
 20
3904.10938
 11
224.109131
 21
4048.76416
  0
LINE
  8
3
 10
224.109131
 20
4048.76416
 11
368.763977
 21
4048.76416
  0
LINE
  8
3
 10
368.763977
 20
3904.10938
 11
224.109131
 21
3904.10938
  0
TEXT
  8
3
 7
SIMPLEX
 10
248.218277
 20
5348.21826
 40
96.4365540
  1
2
 50
   0.000
  0
LINE
  8
3
 10
368.763977
 20
5324.10938
 11
368.763977
 21
5468.76416
  0
LINE
  8
3
 10
224.109131
 20
5324.10938
 11
224.109131
 21
5468.76416
  0
LINE
  8
3
 10
224.109131
 20
5468.76416
 11
368.763977
 21
5468.76416
  0
LINE
  8
3
 10
368.763977
 20
5324.10938
 11
224.109131
 21
5324.10938
  0
TEXT
  8
3
 7
SIMPLEX
 10
248.218277
 20
6548.21826
 40
96.4365540
  1
2
 50
   0.000
  0
LINE
  8
3
 10
368.763977
 20
6524.10889
 11
368.763977
 21
6668.76416
  0
LINE
  8
3
 10
224.109131
 20
6524.10889
 11
224.109131
 21
6668.76416
  0
LINE
  8
3
 10
224.109131
 20
6668.76416
 11
368.763977
 21
6668.76416
  0
LINE
  8
3
 10
368.763977
 20
6524.10889
 11
224.109131
 21
6524.10889
  0
TEXT
  8
3
 7
SIMPLEX
 10
22251.3457
 20
3928.21826
 40
96.4365540
  1
2
 50
   0.000
  0
LINE
  8
3
 10
22371.8906
 20
3904.10938
 11
22371.8906
 21
4048.76416
  0
LINE
  8
3
 10
22227.2363
 20
3904.10938
 11
22227.2363
 21
4048.76416
  0
LINE
  8
3
 10
22227.2363
 20
4048.76416
 11
22371.8906
 21
4048.76416
  0
LINE
  8
3
 10
22371.8906
 20
3904.10938
 11
22227.2363
 21
3904.10938
  0
TEXT
  8
3
 7
SIMPLEX
 10
22251.3457
 20
5348.21826
 40
96.4365540
  1
2
 50
   0.000
  0
LINE
  8
3
 10
22371.8906
 20
5324.10938
 11
22371.8906
 21
5468.76416
  0
LINE
  8
3
 10
22227.2363
 20
5324.10938
 11
22227.2363
 21
5468.76416
  0
LINE
  8
3
 10
22227.2363
 20
5468.76416
 11
22371.8906
 21
5468.76416
  0
LINE
  8
3
 10
22371.8906
 20
5324.10938
 11
22227.2363
 21
5324.10938
  0
TEXT
  8
3
 7
SIMPLEX
 10
22251.3457
 20
6548.21826
 40
96.4365540
  1
2
 50
   0.000
  0
LINE
  8
3
 10
22371.8906
 20
6524.10889
 11
22371.8906
 21
6668.76416
  0
LINE
  8
3
 10
22227.2363
 20
6524.10889
 11
22227.2363
 21
6668.76416
  0
LINE
  8
3
 10
22227.2363
 20
6668.76416
 11
22371.8906
 21
6668.76416
  0
LINE
  8
3
 10
22371.8906
 20
6524.10889
 11
22227.2363
 21
6524.10889
999
END:     AREA=Clips
999
START:   AREA=Strut Bolts
999
START:   AREA=Strut Bolts
999
START:   AREA=JackBeams
999
END:     AREA=JackBeams
999
START:   AREA=Draw Adjacent Surfaces
999
END:     AREA=Draw Adjacent Surfaces
999
START:   AREA=Dimensions
  0
TEXT
  8
11
 7
SIMPLEX
 10
6383.21875
 20
-924.50507
 40
96.4365540
  1
375
 50
   0.000
  0
LINE
  8
2
 10
6335.00049
 20
-811.99579
 11
6335.00049
 21
-715.55920
  0
LINE
  8
2
 10
6335.00049
 20
-763.77747
 11
6710.00049
 21
-763.77747
  0
TEXT
  8
11
 7
SIMPLEX
 10
5997.47217
 20
-731.63190
 40
96.4365540
  1
375
 50
   0.000
  0
LINE
  8
2
 10
6335.00049
 20
-811.99579
 11
6335.00049
 21
-715.55920
  0
LINE
  8
2
 10
6335.00049
 20
-763.77747
 11
5960.00000
 21
-763.77747
  0
TEXT
  8
11
 7
SIMPLEX
 10
16309.2188
 20
-924.50507
 40
96.4365540
  1
375
 50
   0.000
  0
LINE
  8
2
 10
16261.0020
 20
-811.99579
 11
16261.0020
 21
-715.55920
  0
LINE
  8
2
 10
16261.0020
 20
-763.77747
 11
16636.0020
 21
-763.77747
  0
TEXT
  8
11
 7
SIMPLEX
 10
15923.4717
 20
-731.63190
 40
96.4365540
  1
375
 50
   0.000
  0
LINE
  8
2
 10
16261.0020
 20
-811.99579
 11
16261.0020
 21
-715.55920
  0
LINE
  8
2
 10
16261.0020
 20
-763.77747
 11
15886.0020
 21
-763.77747
  0
TEXT
  8
2
 7
SIMPLEX
 10
-514.32831
 20
-731.63190
 40
128.582077
  1
GIRT
 50
   0.000
  0
TEXT
  8
2
 7
SIMPLEX
 10
-514.32831
 20
-924.50507
 40
128.582077
  1
LAPS
 50
   0.000
999
START:   AREA=Match Line
  0
LINE
  8
12
 10
0.00000000
 20
10186.2188
 11
0.00000000
 21
12114.9502
  0
LINE
  8
12
 10
22596.0000
 20
10186.2188
 11
22596.0000
 21
12114.9502
  0
LINE
  8
2
 10
0.00000000
 20
11986.3682
 11
22596.0000
 21
11986.3682
  0
INSERT
  8
2
  2
ARROW
 10
0.00000000
 20
11986.3682
 41
1.00000000
 42
1.00000000
 43
1.00000000
 50
 180.000
  0
INSERT
  8
2
  2
ARROW
 10
22596.0000
 20
11986.3682
 41
1.00000000
 42
1.00000000
 43
1.00000000
 50
   0.000
  0
LINE
  8
2
 10
0.00000000
 20
11214.8760
 11
22596.0000
 21
11214.8760
  0
LINE
  8
12
 10
6335.00049
 20
10186.2188
 11
6335.00049
 21
11472.0400
  0
LINE
  8
12
 10
16261.0020
 20
10186.2188
 11
16261.0020
 21
11472.0400
  0
INSERT
  8
2
  2
ARROW
 10
0.00000000
 20
11214.8760
 41
1.00000000
 42
1.00000000
 43
1.00000000
 50
 180.000
  0
INSERT
  8
2
  2
ARROW
 10
6335.00049
 20
11214.8760
 41
1.00000000
 42
1.00000000
 43
1.00000000
 50
   0.000
  0
INSERT
  8
2
  2
ARROW
 10
6335.00049
 20
11214.8760
 41
1.00000000
 42
1.00000000
 43
1.00000000
 50
 180.000
  0
INSERT
  8
2
  2
ARROW
 10
16261.0020
 20
11214.8760
 41
1.00000000
 42
1.00000000
 43
1.00000000
 50
   0.000
  0
INSERT
  8
2
  2
ARROW
 10
16261.0020
 20
11214.8760
 41
1.00000000
 42
1.00000000
 43
1.00000000
 50
 180.000
  0
INSERT
  8
2
  2
ARROW
 10
22596.0000
 20
11214.8760
 41
1.00000000
 42
1.00000000
 43
1.00000000
 50
   0.000
  0
TEXT
  8
11
 7
SIMPLEX
 10
2910.33594
 20
11257.7363
 40
128.582077
  1
6335
 50
   0.000
  0
TEXT
  8
11
 7
SIMPLEX
 10
11040.8359
 20
11257.7363
 40
128.582077
  1
9926
 50
   0.000
  0
TEXT
  8
11
 7
SIMPLEX
 10
19171.3359
 20
11257.7363
 40
128.582077
  1
6335
 50
   0.000
  0
CIRCLE
  8
13
 10
0.00000000
 20
12269.2490
 40
154.298477
  0
TEXT
  8
13
 7
SIMPLEX
 10
-69.434311
 20
12199.8145
 40
138.868622
  1
A
 72
           1
 11
0.00000000
 21
12199.8145
 50
   0.000
  0
CIRCLE
  8
13
 10
22596.0000
 20
12269.2490
 40
154.298477
  0
TEXT
  8
13
 7
SIMPLEX
 10
22526.5664
 20
12199.8145
 40
138.868622
  1
D
 72
           1
 11
22596.0000
 21
12199.8145
 50
   0.000
  0
CIRCLE
  8
13
 10
6335.00049
 20
11626.3379
 40
154.298477
  0
TEXT
  8
13
 7
SIMPLEX
 10
6265.56592
 20
11556.9033
 40
138.868622
  1
B
 72
           1
 11
6335.00049
 21
11556.9033
 50
   0.000
  0
CIRCLE
  8
13
 10
16261.0020
 20
11626.3379
 40
154.298477
  0
TEXT
  8
13
 7
SIMPLEX
 10
16191.5664
 20
11556.9033
 40
138.868622
  1
C
 72
           1
 11
16261.0020
 21
11556.9033
 50
   0.000
  0
TEXT
  8
11
 7
SIMPLEX
 10
9751.80078
 20
12048.0879
 40
128.582077
  1
22596
 50
   0.000
  0
TEXT
  8
15
 7
SIMPLEX
 10
10394.7109
 20
12048.0879
 40
128.582077
  1
 OUT-TO-OUT OF STEEL
 50
   0.000
  0
TEXT
  8
15
 7
SIMPLEX
 10
8520.62695
 20
-1387.4005
 40
205.731308
  1
ENDWALL FRAMING: FRAME LINE 5
 72
           1
 11
11298.0000
 21
-1387.4005
 50
   0.000
  0
LINE
  8
2
 10
-1517.3406
 20
10751.9805
 11
-1098.6449
 21
10993.7148
  0
LINE
  8
2
 10
-1463.8901
 20
10782.8398
 11
-1152.0953
 21
10782.8398
  0
LINE
  8
2
 10
-1152.0953
 20
10962.8545
 11
-1152.0953
 21
10782.8398
  0
TEXT
  8
11
 7
SIMPLEX
 10
-1087.8043
 20
10782.8398
 40
128.582077
  1
25.0
 50
   0.000
  0
TEXT
  8
11
 7
SIMPLEX
 10
-1372.2838
 20
10589.9678
 40
128.582077
  1
100
 50
   0.000
  0
LINE
  8
2
 10
24113.3418
 20
10751.9805
 11
23694.6465
 21
10993.7148
  0
LINE
  8
2
 10
24059.8906
 20
10782.8398
 11
23748.0957
 21
10782.8398
  0
LINE
  8
2
 10
23748.0957
 20
10962.8545
 11
23748.0957
 21
10782.8398
  0
TEXT
  8
11
 7
SIMPLEX
 10
23233.7676
 20
10782.8398
 40
128.582077
  1
25.0
 50
   0.000
  0
TEXT
  8
11
 7
SIMPLEX
 10
23839.7031
 20
10589.9678
 40
128.582077
  1
100
 50
   0.000
  0
LINE
  8
12
 10
-216.01785
 20
0.00000000
 11
-1152.0953
 21
0.00000000
  0
LINE
  8
12
 10
-216.01785
 20
3880.00000
 11
-1152.0953
 21
3880.00000
  0
LINE
  8
12
 10
-216.01785
 20
5300.00000
 11
-1152.0953
 21
5300.00000
  0
LINE
  8
12
 10
-216.01785
 20
6500.00000
 11
-1152.0953
 21
6500.00000
  0
LINE
  8
12
 10
-216.01785
 20
7600.00049
 11
-1152.0953
 21
7600.00049
  0
LINE
  8
12
 10
-216.01785
 20
8800.00000
 11
-1152.0953
 21
8800.00000
  0
LINE
  8
12
 10
-1090.3761
 20
0.00000000
 11
-1090.3761
 21
0.00000000
  0
LINE
  8
12
 10
-1090.3757
 20
3880.00000
 11
-1090.3757
 21
3880.00000
  0
LINE
  8
2
 10
-1090.3761
 20
0.00000000
 11
-1090.3757
 21
3880.00000
  0
INSERT
  8
2
  2
ARROW
 10
-1090.3761
 20
0.00000000
 41
1.00000000
 42
1.00000000
 43
1.00000000
 50
 270.000
  0
INSERT
  8
2
  2
ARROW
 10
-1090.3757
 20
3880.00000
 41
1.00000000
 42
1.00000000
 43
1.00000000
 50
  90.000
  0
TEXT
  8
11
 7
SIMPLEX
 10
-1133.2366
 20
1682.83582
 40
128.582077
  1
3880
 50
  90.000
  0
LINE
  8
12
 10
-1090.3761
 20
3880.00000
 11
-1090.3761
 21
3880.00000
  0
LINE
  8
12
 10
-1090.3760
 20
5300.00000
 11
-1090.3760
 21
5300.00000
  0
LINE
  8
2
 10
-1090.3761
 20
3880.00000
 11
-1090.3760
 21
5300.00000
  0
INSERT
  8
2
  2
ARROW
 10
-1090.3761
 20
3880.00000
 41
1.00000000
 42
1.00000000
 43
1.00000000
 50
 270.000
  0
INSERT
  8
2
  2
ARROW
 10
-1090.3760
 20
5300.00000
 41
1.00000000
 42
1.00000000
 43
1.00000000
 50
  90.000
  0
TEXT
  8
11
 7
SIMPLEX
 10
-1133.2367
 20
4355.33740
 40
128.582077
  1
1420
 50
  90.000
  0
LINE
  8
12
 10
-1090.3761
 20
5300.00000
 11
-1090.3761
 21
5300.00000
  0
LINE
  8
12
 10
-1090.3760
 20
6500.00000
 11
-1090.3760
 21
6500.00000
  0
LINE
  8
2
 10
-1090.3761
 20
5300.00000
 11
-1090.3760
 21
6500.00000
  0
INSERT
  8
2
  2
ARROW
 10
-1090.3761
 20
5300.00000
 41
1.00000000
 42
1.00000000
 43
1.00000000
 50
 270.000
  0
INSERT
  8
2
  2
ARROW
 10
-1090.3760
 20
6500.00000
 41
1.00000000
 42
1.00000000
 43
1.00000000
 50
  90.000
  0
TEXT
  8
11
 7
SIMPLEX
 10
-1133.2367
 20
5665.33740
 40
128.582077
  1
1200
 50
  90.000
  0
LINE
  8
12
 10
-1090.3761
 20
6500.00000
 11
-1090.3761
 21
6500.00000
  0
LINE
  8
12
 10
-1090.3760
 20
7600.00049
 11
-1090.3760
 21
7600.00049
  0
LINE
  8
2
 10
-1090.3761
 20
6500.00000
 11
-1090.3760
 21
7600.00049
  0
INSERT
  8
2
  2
ARROW
 10
-1090.3761
 20
6500.00000
 41
1.00000000
 42
1.00000000
 43
1.00000000
 50
 270.000
  0
INSERT
  8
2
  2
ARROW
 10
-1090.3760
 20
7600.00049
 41
1.00000000
 42
1.00000000
 43
1.00000000
 50
  90.000
  0
TEXT
  8
11
 7
SIMPLEX
 10
-1133.2367
 20
6837.83984
 40
128.582077
  1
1100
 50
  90.000
  0
LINE
  8
12
 10
-1090.3761
 20
7600.00049
 11
-1090.3761
 21
7600.00049
  0
LINE
  8
12
 10
-1090.3760
 20
8800.00000
 11
-1090.3760
 21
8800.00000
  0
LINE
  8
2
 10
-1090.3761
 20
7600.00049
 11
-1090.3760
 21
8800.00000
  0
INSERT
  8
2
  2
ARROW
 10
-1090.3761
 20
7600.00049
 41
1.00000000
 42
1.00000000
 43
1.00000000
 50
 270.000
  0
INSERT
  8
2
  2
ARROW
 10
-1090.3760
 20
8800.00000
 41
1.00000000
 42
1.00000000
 43
1.00000000
 50
  90.000
  0
TEXT
  8
11
 7
SIMPLEX
 10
-1133.2367
 20
7965.33740
 40
128.582077
  1
1200
 50
  90.000
999
START:   AREA=Eave Dimension
  0
LINE
  8
12
 10
-1152.0953
 20
0.00000000
 11
-1666.4237
 21
0.00000000
  0
LINE
  8
12
 10
-1152.0953
 20
7300.00000
 11
-1666.4237
 21
7300.00000
  0
LINE
  8
2
 10
-1604.7043
 20
0.00000000
 11
-1604.7043
 21
7300.00000
  0
INSERT
  8
2
  2
ARROW
 10
-1604.7043
 20
0.00000000
 41
1.00000000
 42
1.00000000
 43
1.00000000
 50
 270.000
  0
INSERT
  8
2
  2
ARROW
 10
-1604.7043
 20
7300.00000
 41
1.00000000
 42
1.00000000
 43
1.00000000
 50
  90.000
  0
TEXT
  8
11
 7
SIMPLEX
 10
-1647.5647
 20
3392.83594
 40
128.582077
  1
7300
 50
  90.000
999
END:     AREA=Eave Dimension
999
START:   AREA=Draw Canopy Dimension
999
END:     AREA=Draw Canopy Dimension
999
START:   AREA=Draw Floor and Extension Strut Dimensions
999
END:     AREA=Draw Floor and Extension Strut Dimensions
  0
LINE
  8
2
 10
2111.66650
 20
0.00000000
 11
2111.66650
 21
3800.00024
  0
INSERT
  8
2
  2
ARROW
 10
2111.66650
 20
0.00000000
 41
1.00000000
 42
1.00000000
 43
1.00000000
 50
 270.000
  0
INSERT
  8
2
  2
ARROW
 10
2111.66650
 20
3800.00024
 41
1.00000000
 42
1.00000000
 43
1.00000000
 50
  90.000
  0
TEXT
  8
11
 7
SIMPLEX
 10
2068.80615
 20
1642.83606
 40
128.582077
  1
3800
 50
  90.000
999
END:     AREA=Dimensions
999
START:   AREA=Details
  0
INSERT
  8
7
  2
CUTSEC
 10
8142.81543
 20
9335.70410
 41
1.50000000
 42
-1.0000000
 43
-1.0000000
 50
 -75.964
  0
CIRCLE
  8
7
 10
8034.27881
 20
9769.80664
 40
123.438782
  0
TEXT
  8
7
 7
SIMPLEX
 10
7929.60303
 20
9730.30566
 40
79.0008240
  1
A10
 72
           1
 11
8034.27881
 21
9769.80664
 73
           2
 50
   0.000
  0
CIRCLE
  8
7
 10
16261.0020
 20
8260.05664
 40
51.4328270
  0
LINE
  8
7
 10
16278.5938
 20
8308.38672
 11
16426.3652
 21
8714.36523
  0
CIRCLE
  8
7
 10
16468.5859
 20
8830.35840
 40
123.438782
  0
TEXT
  8
7
 7
SIMPLEX
 10
16363.9102
 20
8790.85742
 40
79.0008240
  1
B19
 72
           1
 11
16468.5859
 21
8830.35840
 73
           2
 50
   0.000
  0
INSERT
  8
7
  2
CUTSEC
 10
6335.00049
 20
4227.84473
 41
1.00000000
 42
-1.0000000
 43
-1.0000000
 50
   0.000
  0
CIRCLE
  8
7
 10
5995.54346
 20
4227.84473
 40
123.438782
  0
TEXT
  8
7
 7
SIMPLEX
 10
5890.86719
 20
4188.34424
 40
79.0008240
  1
C12
 72
           1
 11
5995.54346
 21
4227.84473
 73
           2
 50
   0.000
  0
INSERT
  8
7
  2
CUTSEC
 10
199.999970
 20
4227.84473
 41
-1.0000000
 42
-1.0000000
 43
-1.0000000
 50
   0.000
  0
CIRCLE
  8
7
 10
539.456604
 20
4227.84473
 40
123.438782
  0
TEXT
  8
7
 7
SIMPLEX
 10
434.780518
 20
4188.34424
 40
79.0008240
  1
D16
 72
           1
 11
539.456604
 21
4227.84473
 73
           2
 50
   0.000
  0
INSERT
  8
7
  2
CUTSEC
 10
22396.0000
 20
4227.84473
 41
1.00000000
 42
-1.0000000
 43
-1.0000000
 50
   0.000
  0
CIRCLE
  8
7
 10
22056.5430
 20
4227.84473
 40
123.438782
  0
TEXT
  8
7
 7
SIMPLEX
 10
21951.8672
 20
4188.34424
 40
79.0008240
  1
D16
 72
           1
 11
22056.5430
 21
4227.84473
 73
           2
 50
   0.000
  0
INSERT
  8
7
  2
CUTSEC
 10
6335.00049
 20
847.844727
 41
1.00000000
 42
-1.0000000
 43
-1.0000000
 50
   0.000
  0
CIRCLE
  8
7
 10
5995.54346
 20
847.844727
 40
123.438782
  0
TEXT
  8
7
 7
SIMPLEX
 10
5896.79248
 20
798.469238
 40
98.7510300
  1
E3
 72
           1
 11
5995.54346
 21
847.844727
 73
           2
 50
   0.000
999
START:   AREA=Cables
999
END:     AREA=Cables
  0
CIRCLE
  8
7
 10
1901.18604
 20
7569.14111
 40
51.4328270
  0
LINE
  8
7
 10
1883.59668
 20
7617.47314
 11
1735.84485
 21
8023.45801
  0
CIRCLE
  8
7
 10
1693.62988
 20
8139.45410
 40
123.438782
  0
TEXT
  8
7
 7
SIMPLEX
 10
1594.87891
 20
8090.07959
 40
98.7510300
  1
W8
 72
           1
 11
1693.62988
 21
8139.45410
 73
           2
 50
   0.000
999
END:     AREA=Details
999
START:   AREA=Extensions
999
END:     AREA=Extensions
999
START:   AREA=Eave/Extension Purlins
999
START:   AREA=Eave/Extension Purlins
999
START:   AREA=Eave Extensions
999
END:     AREA=Eave Extensions
999
START:   AREA=Canopy Extensions around corner
999
END:     AREA=Canopy Extensions around corner
999
START:   AREA=Facia Extensions on Endwall
999
END:     AREA=Facia Extensions on Endwall
999
START:   AREA=Draw Facia Detail
999
END:     AREA=Draw Facia Detail
  0
ENDBLK
  8
0
999
START:   AREA=Tables
  0
BLOCK
  8
1
  2
EW2TBL
 70
     0
 10
0.00000000
 20
0.00000000
  0
TEXT
  8
14
 7
SIMPLEX
 10
-3471.7161
 20
-160.72758
 40
128.582077
  1
MEMBER TABLE
 50
   0.000
  0
TEXT
  8
14
 7
SIMPLEX
 10
-3471.7161
 20
-353.60071
 40
128.582077
  1
FRAME LINE 5
 50
   0.000
  0
TEXT
  8
14
 7
SIMPLEX
 10
-3471.7161
 20
-546.47382
 40
128.582077
  1
MARK
 50
   0.000
  0
TEXT
  8
14
 7
SIMPLEX
 10
-2571.6414
 20
-546.47382
 40
128.582077
  1
PART
 50
   0.000
  0
TEXT
  8
14
 7
SIMPLEX
 10
-1285.8207
 20
-546.47382
 40
128.582077
  1
LENGTH
 50
   0.000
  0
TEXT
  8
26
 7
SIMPLEX
 10
-3471.7161
 20
-739.34698
 40
128.582077
  1
EC-1
 50
   0.000
  0
TEXT
  8
26
 7
SIMPLEX
 10
-2571.6414
 20
-739.34698
 40
128.582077
  1
W25a125
 50
   0.000
  0
TEXT
  8
26
 7
SIMPLEX
 10
-1285.8207
 20
-739.34698
 40
128.582077
  1
   7692
 50
   0.000
  0
TEXT
  8
26
 7
SIMPLEX
 10
-3471.7161
 20
-932.21997
 40
128.582077
  1
EC-2
 50
   0.000
  0
TEXT
  8
26
 7
SIMPLEX
 10
-2571.6414
 20
-932.21997
 40
128.582077
  1
W25a125
 50
   0.000
  0
TEXT
  8
26
 7
SIMPLEX
 10
-1285.8207
 20
-932.21997
 40
128.582077
  1
   7692
 50
   0.000
  0
TEXT
  8
26
 7
SIMPLEX
 10
-3471.7161
 20
-1125.0931
 40
128.582077
  1
 G-1
 50
   0.000
  0
TEXT
  8
26
 7
SIMPLEX
 10
-2571.6414
 20
-1125.0931
 40
128.582077
  1
200Z15
 50
   0.000
  0
TEXT
  8
26
 7
SIMPLEX
 10
-1285.8207
 20
-1125.0931
 40
128.582077
  1
   6500
 50
   0.000
  0
TEXT
  8
26
 7
SIMPLEX
 10
-3471.7161
 20
-1317.9662
 40
128.582077
  1
 G-2
 50
   0.000
  0
TEXT
  8
26
 7
SIMPLEX
 10
-2571.6414
 20
-1317.9662
 40
128.582077
  1
200Z15
 50
   0.000
  0
TEXT
  8
26
 7
SIMPLEX
 10
-1285.8207
 20
-1317.9662
 40
128.582077
  1
   4685
 50
   0.000
  0
TEXT
  8
26
 7
SIMPLEX
 10
-3471.7161
 20
-1510.8394
 40
128.582077
  1
 G-3
 50
   0.000
  0
TEXT
  8
26
 7
SIMPLEX
 10
-2571.6414
 20
-1510.8394
 40
128.582077
  1
200Z15
 50
   0.000
  0
TEXT
  8
26
 7
SIMPLEX
 10
-1285.8207
 20
-1510.8394
 40
128.582077
  1
  10676
 50
   0.000
  0
TEXT
  8
26
 7
SIMPLEX
 10
-3471.7161
 20
-1703.7124
 40
128.582077
  1
 G-4
 50
   0.000
  0
TEXT
  8
26
 7
SIMPLEX
 10
-2571.6414
 20
-1703.7124
 40
128.582077
  1
200Z15
 50
   0.000
  0
TEXT
  8
26
 7
SIMPLEX
 10
-1285.8207
 20
-1703.7124
 40
128.582077
  1
   8947
 50
   0.000
  0
TEXT
  8
26
 7
SIMPLEX
 10
-3471.7161
 20
-1896.5856
 40
128.582077
  1
 G-5
 50
   0.000
  0
TEXT
  8
26
 7
SIMPLEX
 10
-2571.6414
 20
-1896.5856
 40
128.582077
  1
200Z15
 50
   0.000
  0
TEXT
  8
26
 7
SIMPLEX
 10
-1285.8207
 20
-1896.5856
 40
128.582077
  1
   6500
 50
   0.000
  0
TEXT
  8
26
 7
SIMPLEX
 10
-3471.7161
 20
-2089.4587
 40
128.582077
  1
 G-6
 50
   0.000
  0
TEXT
  8
26
 7
SIMPLEX
 10
-2571.6414
 20
-2089.4587
 40
128.582077
  1
200Z15
 50
   0.000
  0
TEXT
  8
26
 7
SIMPLEX
 10
-1285.8207
 20
-2089.4587
 40
128.582077
  1
   4685
 50
   0.000
  0
TEXT
  8
26
 7
SIMPLEX
 10
-3471.7161
 20
-2282.3318
 40
128.582077
  1
JB-1
 50
   0.000
  0
TEXT
  8
26
 7
SIMPLEX
 10
-2571.6414
 20
-2282.3318
 40
128.582077
  1
SROD12
 50
   0.000
  0
TEXT
  8
26
 7
SIMPLEX
 10
-1285.8207
 20
-2282.3318
 40
128.582077
  1
   1520
 50
   0.000
  0
TEXT
  8
26
 7
SIMPLEX
 10
-3471.7161
 20
-2475.2048
 40
128.582077
  1
JB-2
 50
   0.000
  0
TEXT
  8
26
 7
SIMPLEX
 10
-2571.6414
 20
-2475.2048
 40
128.582077
  1
SROD12
 50
   0.000
  0
TEXT
  8
26
 7
SIMPLEX
 10
-1285.8207
 20
-2475.2048
 40
128.582077
  1
   1300
 50
   0.000
  0
TEXT
  8
26
 7
SIMPLEX
 10
-3471.7161
 20
-2668.0779
 40
128.582077
  1
JB-3
 50
   0.000
  0
TEXT
  8
26
 7
SIMPLEX
 10
-2571.6414
 20
-2668.0779
 40
128.582077
  1
SROD12
 50
   0.000
  0
TEXT
  8
26
 7
SIMPLEX
 10
-1285.8207
 20
-2668.0779
 40
128.582077
  1
   1200
 50
   0.000
  0
LINE
  8
0
 10
-3600.2981
 20
-2700.2236
 11
0.00000000
 21
-2700.2236
  0
LINE
  8
0
 10
-3600.2981
 20
-578.61932
 11
-3600.2981
 21
-2700.2236
  0
LINE
  8
0
 10
-2700.2236
 20
-578.61932
 11
-2700.2236
 21
-2700.2236
  0
LINE
  8
0
 10
-1414.4028
 20
-578.61932
 11
-1414.4028
 21
-2700.2236
  0
LINE
  8
0
 10
-3600.2981
 20
0.00000000
 11
0.00000000
 21
0.00000000
  0
LINE
  8
0
 10
-3600.2981
 20
0.00000000
 11
-3600.2981
 21
-2700.2236
  0
LINE
  8
0
 10
0.00000000
 20
0.00000000
 11
0.00000000
 21
-2700.2236
  0
LINE
  8
0
 10
-3600.2981
 20
-385.74619
 11
0.00000000
 21
-385.74619
  0
LINE
  8
0
 10
-3600.2981
 20
-385.74619
 11
-3600.2981
 21
-578.61932
  0
LINE
  8
0
 10
-2700.2236
 20
-385.74619
 11
-2700.2236
 21
-578.61932
  0
LINE
  8
0
 10
-1414.4028
 20
-385.74619
 11
-1414.4028
 21
-578.61932
  0
LINE
  8
0
 10
-3600.2981
 20
-578.61932
 11
0.00000000
 21
-578.61932
  0
ENDBLK
  8
1
  0
BLOCK
  8
1
  2
EW2BLT
 70
     0
 10
0.00000000
 20
0.00000000
  0
TEXT
  8
14
 7
SIMPLEX
 10
-4886.1187
 20
-160.72758
 40
128.582077
  1
BOLT TABLE
 50
   0.000
  0
TEXT
  8
14
 7
SIMPLEX
 10
-4886.1187
 20
-353.60071
 40
128.582077
  1
FRAME LINE 5
 50
   0.000
  0
TEXT
  8
14
 7
SIMPLEX
 10
-4886.1187
 20
-546.47382
 40
128.582077
  1
LOCATION
 50
   0.000
  0
TEXT
  8
14
 7
SIMPLEX
 10
-2828.8057
 20
-546.47382
 40
128.582077
  1
QUAN
 50
   0.000
  0
TEXT
  8
14
 7
SIMPLEX
 10
-2185.8953
 20
-546.47382
 40
128.582077
  1
TYPE
 50
   0.000
  0
TEXT
  8
14
 7
SIMPLEX
 10
-1542.9849
 20
-546.47382
 40
128.582077
  1
DIA
 50
   0.000
  0
TEXT
  8
14
 7
SIMPLEX
 10
-771.49237
 20
-546.47382
 40
128.582077
  1
LENGTH
 50
   0.000
  0
TEXT
  8
26
 7
SIMPLEX
 10
-4886.1187
 20
-739.34698
 40
128.582077
  1
Columns/Raf
 50
   0.000
  0
TEXT
  8
26
 7
SIMPLEX
 10
-2571.6414
 20
-739.34698
 40
128.582077
  1
2
 50
   0.000
  0
TEXT
  8
26
 7
SIMPLEX
 10
-2185.8953
 20
-739.34698
 40
128.582077
  1
Gr8.8
 50
   0.000
  0
TEXT
  8
26
 7
SIMPLEX
 10
-1542.9849
 20
-739.34698
 40
128.582077
  1
16
 50
   0.000
  0
TEXT
  8
26
 7
SIMPLEX
 10
-771.49237
 20
-739.34698
 40
128.582077
  1
70
 50
   0.000
  0
LINE
  8
0
 10
-5014.7007
 20
-771.49237
 11
0.00000000
 21
-771.49237
  0
LINE
  8
0
 10
-2957.3877
 20
-578.61932
 11
-2957.3877
 21
-771.49237
  0
LINE
  8
0
 10
-5014.7007
 20
0.00000000
 11
0.00000000
 21
0.00000000
  0
LINE
  8
0
 10
-5014.7007
 20
0.00000000
 11
-5014.7007
 21
-771.49237
  0
LINE
  8
0
 10
0.00000000
 20
0.00000000
 11
0.00000000
 21
-771.49237
  0
LINE
  8
0
 10
-5014.7007
 20
-385.74619
 11
0.00000000
 21
-385.74619
  0
LINE
  8
0
 10
-2957.3877
 20
-385.74619
 11
-2957.3877
 21
-578.61932
  0
LINE
  8
0
 10
-5014.7007
 20
-578.61932
 11
0.00000000
 21
-578.61932
  0
ENDBLK
  8
1
  0
BLOCK
  8
1
  2
EW2CLT
 70
     0
 10
0.00000000
 20
0.00000000
  0
TEXT
  8
14
 7
SIMPLEX
 10
-2121.6042
 20
-160.72758
 40
128.582077
  1
CONNECTION PLATES
 50
   0.000
  0
TEXT
  8
14
 7
SIMPLEX
 10
-2121.6042
 20
-353.60071
 40
128.582077
  1
FRAME LINE 5
 50
   0.000
  0
TEXT
  8
14
 7
SIMPLEX
 10
-1993.0220
 20
-546.47382
 40
128.582077
  1
ID
 50
   0.000
  0
TEXT
  8
14
 7
SIMPLEX
 10
-1671.5669
 20
-546.47382
 40
128.582077
  1
MARK/PART
 50
   0.000
  0
LINE
  8
14
 10
-2153.7498
 20
-417.89172
 11
-2025.1676
 21
-417.89172
  0
LINE
  8
14
 10
-2025.1676
 20
-417.89172
 11
-2025.1676
 21
-546.47382
  0
LINE
  8
14
 10
-2025.1676
 20
-546.47382
 11
-2153.7498
 21
-546.47382
  0
LINE
  8
14
 10
-2153.7498
 20
-546.47382
 11
-2153.7498
 21
-417.89172
  0
TEXT
  8
26
 7
SIMPLEX
 10
-1928.7310
 20
-739.34698
 40
128.582077
  1
1
 50
   0.000
  0
TEXT
  8
26
 7
SIMPLEX
 10
-1671.5669
 20
-739.34698
 40
128.582077
  1
d1
 50
   0.000
  0
TEXT
  8
26
 7
SIMPLEX
 10
-1928.7310
 20
-932.21997
 40
128.582077
  1
2
 50
   0.000
  0
TEXT
  8
26
 7
SIMPLEX
 10
-1671.5669
 20
-932.21997
 40
128.582077
  1
r1
 50
   0.000
  0
LINE
  8
0
 10
-2185.8953
 20
-964.36554
 11
0.00000000
 21
-964.36554
  0
LINE
  8
0
 10
-2185.8953
 20
0.00000000
 11
0.00000000
 21
0.00000000
  0
LINE
  8
0
 10
-2185.8953
 20
0.00000000
 11
-2185.8953
 21
-964.36554
  0
LINE
  8
0
 10
0.00000000
 20
0.00000000
 11
0.00000000
 21
-964.36554
  0
LINE
  8
0
 10
-2185.8953
 20
-385.74619
 11
0.00000000
 21
-385.74619
  0
LINE
  8
0
 10
-1735.8580
 20
-385.74619
 11
-1735.8580
 21
-964.36554
  0
LINE
  8
0
 10
-2185.8953
 20
-578.61932
 11
0.00000000
 21
-578.61932
  0
ENDBLK
  8
1
  0
BLOCK
  8
1
  2
EW2BRACE
 70
     0
 10
0.00000000
 20
0.00000000
  0
TEXT
  8
14
 7
SIMPLEX
 10
-2828.8057
 20
-160.72758
 40
128.582077
  1
FLANGE BRACE TABLE
 50
   0.000
  0
TEXT
  8
14
 7
SIMPLEX
 10
-2828.8057
 20
-353.60071
 40
128.582077
  1
FRAME LINE 5
 50
   0.000
  0
TEXT
  8
14
 7
SIMPLEX
 10
-2764.5146
 20
-546.47382
 40
128.582077
  1
ID
 50
   0.000
  0
TEXT
  8
14
 7
SIMPLEX
 10
-2443.0593
 20
-546.47382
 40
128.582077
  1
MARK
 50
   0.000
  0
TEXT
  8
14
 7
SIMPLEX
 10
-1285.8207
 20
-546.47382
 40
128.582077
  1
LENGTH
 50
   0.000
  0
LINE
  8
14
 10
-2860.9512
 20
-546.47382
 11
-2925.2422
 21
-417.89172
  0
LINE
  8
14
 10
-2860.9512
 20
-546.47382
 11
-2796.6602
 21
-417.89172
  0
LINE
  8
14
 10
-2925.2422
 20
-417.89172
 11
-2796.6602
 21
-417.89172
  0
TEXT
  8
26
 7
SIMPLEX
 10
-2764.5146
 20
-739.34698
 40
128.582077
  1
1
 50
   0.000
  0
TEXT
  8
26
 7
SIMPLEX
 10
-2443.0593
 20
-739.34698
 40
128.582077
  1
FB424
 50
   0.000
  0
TEXT
  8
26
 7
SIMPLEX
 10
-1350.1118
 20
-739.34698
 40
128.582077
  1
    424
 50
   0.000
  0
LINE
  8
0
 10
-2957.3877
 20
0.00000000
 11
-2957.3877
 21
-771.49237
  0
LINE
  8
0
 10
0.00000000
 20
0.00000000
 11
0.00000000
 21
-771.49237
  0
LINE
  8
0
 10
-2957.3877
 20
0.00000000
 11
0.00000000
 21
0.00000000
  0
LINE
  8
0
 10
-2957.3877
 20
-771.49237
 11
0.00000000
 21
-771.49237
  0
LINE
  8
0
 10
-2957.3877
 20
-385.74619
 11
0.00000000
 21
-385.74619
  0
LINE
  8
0
 10
-2571.6414
 20
-385.74619
 11
-2571.6414
 21
-771.49237
  0
LINE
  8
0
 10
-1414.4028
 20
-385.74619
 11
-1414.4028
 21
-771.49237
  0
LINE
  8
0
 10
-2957.3877
 20
-578.61932
 11
0.00000000
 21
-578.61932
  0
ENDBLK
  8
1
999
END:     AREA=Tables
  0
ENDSEC
  0
SECTION
  2
ENTITIES
  0
LINE
  8
22
 10
0.00000000
 20
0.00000000
 11
30925.9688
 21
0.00000000
  0
LINE
  8
22
 10
30925.9688
 20
0.00000000
 11
30925.9688
 21
21869.0781
  0
LINE
  8
22
 10
30925.9688
 20
21869.0781
 11
0.00000000
 21
21869.0781
  0
LINE
  8
22
 10
0.00000000
 20
21869.0781
 11
0.00000000
 21
0.00000000
  0
LINE
  8
0
 10
19143.1719
 20
0.00000000
 11
19143.1719
 21
1963.79883
  0
LINE
  8
0
 10
19143.1719
 20
1963.79883
 11
30925.9688
 21
1963.79883
  0
LINE
  8
0
 10
19143.1719
 20
0.00000000
 11
30925.9688
 21
0.00000000
  0
LINE
  8
0
 10
30925.9688
 20
0.00000000
 11
30925.9688
 21
1963.79883
  0
LINE
  8
0
 10
19143.1719
 20
748.113892
 11
30925.9688
 21
748.113892
  0
LINE
  8
0
 10
19143.1719
 20
1122.17078
 11
30925.9688
 21
1122.17078
  0
LINE
  8
0
 10
19143.1719
 20
1496.22778
 11
30925.9688
 21
1496.22778
  0
LINE
  8
0
 10
20826.4297
 20
0.00000000
 11
20826.4297
 21
1496.22778
  0
LINE
  8
0
 10
25034.5684
 20
0.00000000
 11
25034.5684
 21
1496.22778
  0
LINE
  8
0
 10
25034.5684
 20
374.056946
 11
30925.9688
 21
374.056946
  0
LINE
  8
0
 10
27091.8848
 20
1122.17078
 11
27091.8848
 21
748.113892
  0
LINE
  8
0
 10
28962.1660
 20
1122.17078
 11
28962.1660
 21
748.113892
  0
LINE
  8
0
 10
28027.0234
 20
748.113892
 11
28027.0234
 21
374.056946
  0
TEXT
  8
14
 7
SIMPLEX
 10
19330.2012
 20
1215.68506
 40
187.028473
  1
PROJECT
 50
   0.000
  0
TEXT
  8
14
 7
SIMPLEX
 10
19330.2012
 20
841.628052
 40
187.028473
  1
ID
 50
   0.000
  0
TEXT
  8
14
 7
SIMPLEX
 10
19330.2012
 20
467.571167
 40
187.028473
  1
PROJECT
 50
   0.000
  0
TEXT
  8
14
 7
SIMPLEX
 10
19330.2012
 20
93.5142365
 40
187.028473
  1
ADDRESS
 50
   0.000
  0
TEXT
  8
14
 7
SIMPLEX
 10
21013.4590
 20
1215.68506
 40
187.028473
  1
Proposed Warehouse
 50
   0.000
  0
TEXT
  8
14
 7
SIMPLEX
 10
21013.4590
 20
841.628052
 40
187.028473
  1
Q-1467
 50
   0.000
  0
TEXT
  8
14
 7
SIMPLEX
 10
21013.4590
 20
467.571167
 40
187.028473
  1
Proposed Warehouse
 50
   0.000
  0
TEXT
  8
14
 7
SIMPLEX
 10
21013.4590
 20
93.5142365
 40
187.028473
  1
 
 50
   0.000
  0
TEXT
  8
14
 7
SIMPLEX
 10
21574.5430
 20
1589.74194
 40
280.542694
  1
Sivoko Steel Structures Ltd.
 50
   0.000
  0
TEXT
  8
14
 7
SIMPLEX
 10
25221.5977
 20
1215.68506
 40
187.028473
  1
ENDWALL FRAMING
 50
   0.000
  0
TEXT
  8
14
 7
SIMPLEX
 10
25221.5977
 20
841.628052
 40
187.028473
  1
DESIGN:
 50
   0.000
  0
TEXT
  8
14
 7
SIMPLEX
 10
25221.5977
 20
467.571167
 40
187.028473
  1
DATE:
 50
   0.000
  0
TEXT
  8
14
 7
SIMPLEX
 10
26175.4434
 20
467.571167
 40
187.028473
  1
15/DEC/2025
 50
   0.000
  0
TEXT
  8
14
 7
SIMPLEX
 10
27278.9121
 20
841.628052
 40
187.028473
  1
DRAFT:
 50
   0.000
  0
TEXT
  8
14
 7
SIMPLEX
 10
29149.1973
 20
841.628052
 40
187.028473
  1
CHECK:
 50
   0.000
  0
TEXT
  8
14
 7
SIMPLEX
 10
28120.5410
 20
467.571167
 40
187.028473
  1
SHEET
 50
   0.000
  0
TEXT
  8
14
 7
SIMPLEX
 10
29803.7949
 20
467.571167
 40
187.028473
  1
OF
 50
   0.000
  0
TEXT
  8
14
 7
SIMPLEX
 10
29055.6836
 20
467.571167
 40
187.028473
  1
 
 50
   0.000
999
FIELD:@PAGE_ID
  0
TEXT
  8
14
 7
SIMPLEX
 10
30177.8535
 20
467.571167
 40
187.028473
  1
 
 50
   0.000
999
FIELD:@PAGE_TOTAL
  0
INSERT
  8
0
  2
EW2FRM
 10
2291.75415
 20
6231.65430
 41
1.00000000
 42
1.00000000
 43
1.00000000
 50
   0.000
  0
INSERT
  8
0
  2
EW2TBL
 10
30925.9688
 20
20969.0039
 41
1.00000000
 42
1.00000000
 43
1.00000000
 50
   0.000
  0
INSERT
  8
0
  2
EW2BLT
 10
30925.9688
 20
21869.0781
 41
1.00000000
 42
1.00000000
 43
1.00000000
 50
   0.000
  0
INSERT
  8
0
  2
EW2CLT
 10
30925.9688
 20
17240.1250
 41
1.00000000
 42
1.00000000
 43
1.00000000
 50
   0.000
  0
INSERT
  8
0
  2
EW2BRACE
 10
30925.9688
 20
18140.1973
 41
1.00000000
 42
1.00000000
 43
1.00000000
 50
   0.000
  0
ENDSEC
  0
EOF
