999
SOURCE:MBS   PROGRAM:PLT_DXF   CELL:CWI_FLG   CLASS:SCALED   MODE:---
  0
SECTION
  2
HEADER
  9
$EXTMIN
 10
          0.000
 20
          0.000
  9
$EXTMAX
 10
       9893.641
 20
       6226.170
  9
$LIMMIN
 10
          0.000
 20
          0.000
  9
$LIMMAX
 10
       9893.641
 20
       6226.170
  9
$FILLMODE
 70
     1
  9
$LTSCALE
 40
  0.125
  9
$HANDLING
 70
     0
  0
ENDSEC
  0
SECTION
  2
TABLES
  0
TABLE
  2
LTYPE
 70
     3
  0
LTYPE
  2
CONTINUOUS
 70
    64
  3
SOLID LINE
 72
    65
 73
     0
 40
0.0
  0
LTYPE
  2
CENTER
 70
    64
  3
____ _ ____ _ ____ _ ____ _ ____ _ ____ _ ____
 72
    65
 73
     4
 40
2.0
 49
1.25
 49
-0.25
 49
0.25
 49
-0.25
  0
LTYPE
  2
DASHED
 70
    64
  3
__ __ __ __ __ __ __ __ __ __ __ __ __ __ __ 
 72
    65
 73
     2
 40
0.75
 49
0.5
 49
-0.25
  0
ENDTAB
  0
TABLE
  2
LAYER
 70
    51
  0
LAYER
  2
0
 70
     0
 62
     7
  6
CONTINUOUS
  0
LAYER
  2
1
 70
     0
 62
     7
  6
CONTINUOUS
  0
LAYER
  2
2
 70
     0
 62
     7
  6
CONTINUOUS
  0
LAYER
  2
3
 70
     0
 62
     1
  6
CONTINUOUS
  0
LAYER
  2
4
 70
     0
 62
     1
  6
CONTINUOUS
  0
LAYER
  2
5
 70
     0
 62
     7
  6
CONTINUOUS
  0
LAYER
  2
6
 70
     0
 62
     6
  6
CONTINUOUS
  0
LAYER
  2
7
 70
     0
 62
     3
  6
CONTINUOUS
  0
LAYER
  2
8
 70
     0
 62
     3
  6
CONTINUOUS
  0
LAYER
  2
9
 70
     0
 62
     7
  6
CONTINUOUS
  0
LAYER
  2
10
 70
     0
 62
     7
  6
CONTINUOUS
  0
LAYER
  2
11
 70
     0
 62
     7
  6
CONTINUOUS
  0
LAYER
  2
12
 70
     0
 62
     3
  6
CONTINUOUS
  0
LAYER
  2
13
 70
     0
 62
     3
  6
CONTINUOUS
  0
LAYER
  2
14
 70
     0
 62
     7
  6
CONTINUOUS
  0
LAYER
  2
15
 70
     0
 62
     6
  6
CONTINUOUS
  0
LAYER
  2
16
 70
     0
 62
     7
  6
CONTINUOUS
  0
LAYER
  2
17
 70
     0
 62
     7
  6
CONTINUOUS
  0
LAYER
  2
18
 70
     0
 62
     6
  6
CONTINUOUS
  0
LAYER
  2
19
 70
     0
 62
     7
  6
CONTINUOUS
  0
LAYER
  2
20
 70
     0
 62
     7
  6
CONTINUOUS
  0
LAYER
  2
21
 70
     0
 62
     7
  6
CONTINUOUS
  0
LAYER
  2
22
 70
     0
 62
     7
  6
CONTINUOUS
  0
LAYER
  2
23
 70
     0
 62
     7
  6
CONTINUOUS
  0
LAYER
  2
24
 70
     0
 62
     7
  6
CONTINUOUS
  0
LAYER
  2
25
 70
     0
 62
     7
  6
CONTINUOUS
  0
LAYER
  2
26
 70
     0
 62
     7
  6
CONTINUOUS
  0
LAYER
  2
27
 70
     0
 62
     7
  6
CONTINUOUS
  0
LAYER
  2
28
 70
     0
 62
     7
  6
CONTINUOUS
  0
LAYER
  2
29
 70
     0
 62
     7
  6
CONTINUOUS
  0
LAYER
  2
30
 70
     0
 62
     7
  6
CONTINUOUS
  0
LAYER
  2
31
 70
     0
 62
     7
  6
CONTINUOUS
  0
LAYER
  2
32
 70
     0
 62
     7
  6
CONTINUOUS
  0
LAYER
  2
33
 70
     0
 62
     7
  6
CONTINUOUS
  0
LAYER
  2
34
 70
     0
 62
     7
  6
CONTINUOUS
  0
LAYER
  2
35
 70
     0
 62
     7
  6
CONTINUOUS
  0
LAYER
  2
36
 70
     0
 62
     7
  6
CONTINUOUS
  0
LAYER
  2
37
 70
     0
 62
     7
  6
CONTINUOUS
  0
LAYER
  2
38
 70
     0
 62
     7
  6
CONTINUOUS
  0
LAYER
  2
39
 70
     0
 62
     7
  6
CONTINUOUS
  0
LAYER
  2
40
 70
     0
 62
     7
  6
CONTINUOUS
  0
LAYER
  2
41
 70
     0
 62
     7
  6
CONTINUOUS
  0
LAYER
  2
42
 70
     0
 62
     7
  6
CONTINUOUS
  0
LAYER
  2
43
 70
     0
 62
     7
  6
CONTINUOUS
  0
LAYER
  2
44
 70
     0
 62
     7
  6
CONTINUOUS
  0
LAYER
  2
45
 70
     0
 62
     7
  6
CONTINUOUS
  0
LAYER
  2
46
 70
     0
 62
     7
  6
CONTINUOUS
  0
LAYER
  2
47
 70
     0
 62
     7
  6
CONTINUOUS
  0
LAYER
  2
48
 70
     0
 62
     7
  6
CONTINUOUS
  0
LAYER
  2
49
 70
     0
 62
     7
  6
CONTINUOUS
  0
LAYER
  2
50
 70
     0
 62
     7
  6
CONTINUOUS
  0
ENDTAB
  0
ENDSEC
  0
SECTION
  2
BLOCKS
  0
BLOCK
  8
2
  2
ARROW
 70
     0
 10
  0.000000
 20
  0.000000
  0
LINE
  6
CONTINUOUS
  8
2
 10
  0.000000
 20
  0.000000
 11
 -1.000000
 21
  0.166667
  0
LINE
  6
CONTINUOUS
  8
2
 10
 -1.000000
 20
  0.166667
 11
 -1.000000
 21
 -0.166667
  0
LINE
  6
CONTINUOUS
  8
2
 10
 -1.000000
 20
 -0.166667
 11
  0.000000
 21
  0.000000
  0
ENDBLK
  8
2
  0
BLOCK
  8
3
  2
CIRCLE
 70
     0
 10
  0.000000
 20
  0.000000
  0
CIRCLE
  8
1
 10
   0.000
 20
   0.000
 40
   1.000
  0
ENDBLK
  8
3
  0
BLOCK
  8
2
  2
PLATE
 70
     0
 10
  0.000000
 20
  0.000000
  0
CIRCLE
  6
CONTINUOUS
  8
5
 10
  0.000000
 20
-62.500000
 40
  0.100000
  0
LINE
  6
CONTINUOUS
  8
5
 10
 -0.100000
 20
-62.500000
 11
  0.100000
 21
-62.500000
  0
LINE
  6
CONTINUOUS
  8
5
 10
  0.000000
 20
-62.599998
 11
  0.000000
 21
-62.400002
  0
TEXT
  8
5
 10
  0.000000
 20
-62.500000
 40
   0.015
  1
ZERO
 50
   0.000
  0
LINE
  6
CONTINUOUS
  8
3
 10
  0.000000
 20
  0.000000
 11
  0.000000
 21
-125.00000
  0
LINE
  6
CONTINUOUS
  8
3
 10
  0.000000
 20
-125.00000
 11
 7676.1001
 21
-125.00000
  0
LINE
  6
CONTINUOUS
  8
3
 10
 7676.1001
 20
-125.00000
 11
 7676.1001
 21
  0.000000
  0
LINE
  6
CONTINUOUS
  8
3
 10
 7676.1001
 20
  0.000000
 11
  0.000000
 21
  0.000000
  0
LINE
  6
CONTINUOUS
  8
6
 10
-51.174000
 20
-124.99999
 11
-371.01151
 21
-124.99997
  0
LINE
  6
CONTINUOUS
  8
6
 10
-51.173992
 20
  0.000004
 11
-371.01147
 21
  0.000028
  0
LINE
  6
CONTINUOUS
  8
6
 10
-370.96152
 20
-124.99997
 11
-370.96149
 21
  0.000028
  0
INSERT
  8
6
  2
ARROW
 10
-370.96152
 20
-124.99997
 41
 34.115997
 42
 34.115997
 43
 34.115997
 50
 270.000
  0
INSERT
  8
6
  2
ARROW
 10
-370.96149
 20
  0.000028
 41
 34.115997
 42
 34.115997
 43
 34.115997
 50
  90.000
  0
TEXT
  8
6
 10
-558.59949
 20
-96.615952
 40
  68.232
  1
125
 50
   0.000
  0
LINE
  6
CONTINUOUS
  8
6
 10
  0.000000
 20
 51.174000
 11
  0.000000
 21
 371.01151
  0
LINE
  6
CONTINUOUS
  8
6
 10
 7676.1001
 20
 51.174000
 11
 7676.1001
 21
 371.01151
  0
LINE
  6
CONTINUOUS
  8
6
 10
  0.000000
 20
 370.96152
 11
 7676.1001
 21
 370.96152
  0
INSERT
  8
6
  2
ARROW
 10
  0.000000
 20
 370.96152
 41
 34.115997
 42
 34.115997
 43
 34.115997
 50
 180.000
  0
INSERT
  8
6
  2
ARROW
 10
 7676.1001
 20
 370.96152
 41
 34.115997
 42
 34.115997
 43
 34.115997
 50
   0.000
  0
TEXT
  8
6
 10
 3701.5859
 20
 405.07751
 40
  68.232
  1
7676
 50
   0.000
  0
ENDBLK
  8
2
  0
ENDSEC
  0
SECTION
  2
ENTITIES
  0
LINE
  6
CONTINUOUS
  8
5
 10
  0.000000
 20
  0.000000
 11
 9893.6406
 21
  0.000000
  0
LINE
  6
CONTINUOUS
  8
5
 10
 9893.6406
 20
  0.000000
 11
 9893.6406
 21
 6226.1699
  0
LINE
  6
CONTINUOUS
  8
5
 10
 9893.6406
 20
 6226.1699
 11
  0.000000
 21
 6226.1699
  0
LINE
  6
CONTINUOUS
  8
5
 10
  0.000000
 20
 6226.1699
 11
  0.000000
 21
  0.000000
  0
TEXT
  8
5
 10
 136.46399
 20
 68.231995
 40
 136.464
  1
YIELD:345.0
 50
   0.000
  0
TEXT
  8
5
 10
 136.46399
 20
 272.92798
 40
 136.464
  1
THICKNESS:5
 50
   0.000
  0
TEXT
  8
5
 10
 136.46399
 20
 477.62396
 40
 136.464
  1
QUANTITY:4
 50
   0.000
  0
TEXT
  8
5
 10
 136.46399
 20
 682.31995
 40
 136.464
  1
DRAWING:IFE1
 50
   0.000
  0
TEXT
  8
5
 10
 136.46399
 20
 887.01593
 40
 136.464
  1
MARK:IFE1
 50
   0.000
  0
TEXT
  8
5
 10
 136.46399
 20
 1091.7119
 40
 136.464
  1
JOB:Q-1467
 50
   0.000
  0
INSERT
  8
2
  2
PLATE
 10
 1108.7703
 20
 3175.5850
 41
  1.000000
 42
  1.000000
 43
  1.000000
 50
   0.000
  0
ENDSEC
  0
EOF
