999
SOURCE:MBS   PROGRAM:ASM_DXF   CELL:ASM_DWG   CLASS:SHOP   MODE:---
  0
SECTION
  2
HEADER
  9
$EXTMIN
 10
   0.000
 20
   0.000
  9
$EXTMAX
 10
 841.000
 20
 594.000
  9
$LIMMIN
 10
   0.000
 20
   0.000
  9
$LIMMAX
 10
 841.000
 20
 594.000
  9
$HANDLING
 70
     0
999
BORDER_EXTENTS: 0.000      0.000      841.000    594.000
  0
ENDSEC
  0
SECTION
  2
TABLES
  0
TABLE
  2
LTYPE
 70
     3
  0
LTYPE
  2
CONTIN
 70
    64
  3
SOLID LINE
 72
    65
 73
     0
 40
0.0
  0
LTYPE
  2
CENTER
 70
    64
  3
____ _ ____ _ ____ _ ____ _ ____ _ ____ _ ____
 72
    65
 73
     4
 40
2.0
 49
1.25
 49
-0.25
 49
0.25
 49
-0.25
  0
LTYPE
  2
DASHED
 70
    64
  3
__ __ __ __ __ __ __ __ __ __ __ __ __ __ __ 
 72
    65
 73
     2
 40
2.3812
 49
1.5875
 49
-0.7937
  0
ENDTAB
  0
TABLE
  2
LAYER
 70
    50
  0
LAYER
  2
0
 70
     0
 62
     7
  6
CONTIN
  0
LAYER
  2
1
 70
     0
 62
     7
  6
CONTIN
  0
LAYER
  2
2
 70
     0
 62
     7
  6
CONTIN
  0
LAYER
  2
3
 70
     0
 62
     1
  6
CONTIN
  0
LAYER
  2
4
 70
     0
 62
     1
  6
CONTIN
  0
LAYER
  2
5
 70
     0
 62
     7
  6
CONTIN
  0
LAYER
  2
6
 70
     0
 62
     6
  6
CONTIN
  0
LAYER
  2
7
 70
     0
 62
     3
  6
DASHED
  0
LAYER
  2
8
 70
     0
 62
     3
  6
DASHED
  0
LAYER
  2
9
 70
     0
 62
     7
  6
CONTIN
  0
LAYER
  2
10
 70
     0
 62
     7
  6
CONTIN
  0
LAYER
  2
11
 70
     0
 62
     7
  6
CONTIN
  0
LAYER
  2
12
 70
     0
 62
     3
  6
CONTIN
  0
LAYER
  2
13
 70
     0
 62
     3
  6
CONTIN
  0
LAYER
  2
14
 70
     0
 62
     7
  6
CONTIN
  0
LAYER
  2
15
 70
     0
 62
     6
  6
CONTIN
  0
LAYER
  2
16
 70
     0
 62
     7
  6
CONTIN
  0
LAYER
  2
17
 70
     0
 62
     7
  6
CONTIN
  0
LAYER
  2
18
 70
     0
 62
     6
  6
CONTIN
  0
LAYER
  2
19
 70
     0
 62
     7
  6
CONTIN
  0
LAYER
  2
20
 70
     0
 62
     7
  6
CONTIN
  0
LAYER
  2
21
 70
     0
 62
     7
  6
CONTIN
  0
LAYER
  2
22
 70
     0
 62
     7
  6
CONTIN
  0
LAYER
  2
23
 70
     0
 62
     7
  6
CONTIN
  0
LAYER
  2
24
 70
     0
 62
     7
  6
CONTIN
  0
LAYER
  2
25
 70
     0
 62
     7
  6
CONTIN
  0
LAYER
  2
26
 70
     0
 62
     7
  6
CONTIN
  0
LAYER
  2
27
 70
     0
 62
     7
  6
CONTIN
  0
LAYER
  2
28
 70
     0
 62
     7
  6
CONTIN
  0
LAYER
  2
29
 70
     0
 62
     7
  6
CONTIN
  0
LAYER
  2
30
 70
     0
 62
     7
  6
CONTIN
  0
LAYER
  2
31
 70
     0
 62
     7
  6
CONTIN
  0
LAYER
  2
32
 70
     0
 62
     7
  6
CONTIN
  0
LAYER
  2
33
 70
     0
 62
     7
  6
CONTIN
  0
LAYER
  2
34
 70
     0
 62
     7
  6
CONTIN
  0
LAYER
  2
35
 70
     0
 62
     7
  6
CONTIN
  0
LAYER
  2
36
 70
     0
 62
     7
  6
CONTIN
  0
LAYER
  2
37
 70
     0
 62
     7
  6
CONTIN
  0
LAYER
  2
38
 70
     0
 62
     7
  6
CONTIN
  0
LAYER
  2
39
 70
     0
 62
     7
  6
CONTIN
  0
LAYER
  2
40
 70
     0
 62
     7
  6
CONTIN
  0
LAYER
  2
41
 70
     0
 62
     7
  6
CONTIN
  0
LAYER
  2
42
 70
     0
 62
     7
  6
CONTIN
  0
LAYER
  2
43
 70
     0
 62
     7
  6
CONTIN
  0
LAYER
  2
44
 70
     0
 62
     7
  6
CONTIN
  0
LAYER
  2
45
 70
     0
 62
     7
  6
CONTIN
  0
LAYER
  2
46
 70
     0
 62
     7
  6
CONTIN
  0
LAYER
  2
47
 70
     0
 62
     7
  6
CONTIN
  0
LAYER
  2
48
 70
     0
 62
     7
  6
CONTIN
  0
LAYER
  2
49
 70
     0
 62
     7
  6
CONTIN
  0
ENDTAB
  0
TABLE
  2
STYLE
 70
  0
  0
STYLE
  2
SIMPLEX
 70
  0
 40
  0.000
 41
  1.000
 42
  1.000
 50
  0.000
 71
  0
  3
SIMPLEX
  0
STYLE
  2
ROMANS
 70
  0
 40
  0.000
 41
  1.000
 42
  1.000
 50
  0.000
 71
  0
  3
ROMANS
  0
STYLE
  2
OPEN
 70
  0
 40
  0.000
 41
  1.000
 42
  1.000
 50
  0.000
 71
  0
  3
SIMPLEX
  0
STYLE
  2
ARIAL
 70
  0
 40
  0.000
 41
  1.000
 42
  1.000
 50
  0.000
 71
  0
  3
ARIAL.TTF
  0
STYLE
  2
VERDANAB
 70
  0
 40
  0.000
 41
  1.000
 42
  1.000
 50
  0.000
 71
  0
  3
VERDANAB.TTF
  0
ENDTAB
  0
ENDSEC
  0
SECTION
  2
BLOCKS
  0
BLOCK
  8
2
  2
ARROW
 70
     0
 10
0.000     
 20
0.000     
  0
LINE
  8
2
 10
-0.635    
 20
-0.635    
 11
0.635     
 21
0.635     
  0
ENDBLK
  8
2
  0
BLOCK
  8
0
  2
ARROWP
 70
     0
 10
0.000     
 20
0.000     
  0
LINE
  8
0
 10
0.000     
 20
0.000     
 11
-1.270    
 21
0.317     
  0
LINE
  8
0
 10
-1.270    
 20
0.317     
 11
-1.270    
 21
-0.317    
  0
LINE
  8
0
 10
-1.270    
 20
-0.317    
 11
0.000     
 21
0.000     
  0
ENDBLK
  8
0
  0
BLOCK
  8
3
  2
CIRCLE
 70
     0
 10
0.000     
 20
0.000     
  0
CIRCLE
  8
1
 10
     0.000
 20
     0.000
 40
    10.160
  0
ENDBLK
  8
3
  0
BLOCK
  8
3
  2
SLOTTD
 70
     0
 10
0.000     
 20
0.000     
  0
ARC
  8
6
 10
-25.400   
 20
0.000     
 40
  12.700
 50
  90.000
 51
 270.000
  0
ARC
  8
6
 10
25.400    
 20
0.000     
 40
  12.700
 50
 270.000
 51
  90.000
  0
LINE
  8
6
 10
-25.400   
 20
-12.700   
 11
25.400    
 21
-12.700   
  0
LINE
  8
6
 10
-25.400   
 20
12.700    
 11
25.400    
 21
12.700    
  0
ENDBLK
  8
3
  0
BLOCK
  8
3
  2
FLGHOL
 70
     0
 10
0.000     
 20
0.000     
  0
SOLID
  8
6
 10
-6.350    
 20
0.000     
 11
6.350     
 21
0.000     
 12
-6.350    
 22
25.400    
 13
6.350     
 23
25.400    
  0
ENDBLK
  8
3
  0
BLOCK
  8
2
  2
BRCCLP
 70
     0
 10
12.700    
 20
0.000     
  0
LINE
  8
2
 10
12.700    
 20
0.000     
 11
12.700    
 21
101.600   
  0
LINE
  8
2
 10
-12.700   
 20
101.600   
 11
12.700    
 21
101.600   
  0
SOLID
  8
1
 10
-12.700   
 20
68.580    
 11
12.700    
 21
68.580    
 12
-12.700   
 22
83.820    
 13
12.700    
 23
83.820    
  0
ENDBLK
  8
3
  0
BLOCK
  8
2
  2
BRCCLPB
 70
     0
 10
12.700    
 20
0.000     
  0
LINE
  8
7
 10
12.700    
 20
0.000     
 11
12.700    
 21
101.600   
  0
LINE
  8
7
 10
-12.700   
 20
101.600   
 11
12.700    
 21
101.600   
  0
SOLID
  8
1
 10
-12.700   
 20
68.580    
 11
12.700    
 21
68.580    
 12
-12.700   
 22
83.820    
 13
12.700    
 23
83.820    
  0
ENDBLK
  8
3
  0
BLOCK
  8
2
  2
GRTANGC
 70
     0
 10
0.000     
 20
0.000     
  0
LINE
  8
13
 10
88.900    
 20
0.000     
 11
-12.700   
 21
0.000     
  0
LINE
  8
13
 10
88.900    
 20
0.000     
 11
88.900    
 21
152.400   
  0
LINE
  8
13
 10
-12.700   
 20
0.000     
 11
-12.700   
 21
152.400   
  0
LINE
  8
13
 10
88.900    
 20
152.400   
 11
-12.700   
 21
152.400   
  0
LINE
  8
13
 10
12.700    
 20
0.000     
 11
12.700    
 21
152.400   
  0
SOLID
  8
6
 10
-12.700   
 20
119.380   
 11
12.700    
 21
119.380   
 12
-12.700   
 22
134.620   
 13
12.700    
 23
134.620   
  0
SOLID
  8
6
 10
-12.700   
 20
68.580    
 11
12.700    
 21
68.580    
 12
-12.700   
 22
83.820    
 13
12.700    
 23
83.820    
  0
ENDBLK
  8
3
  0
BLOCK
  8
2
  2
GRTCLPB
 70
     0
 10
0.000     
 20
0.000     
  0
LINE
  8
13
 10
-12.700   
 20
0.000     
 11
-12.700   
 21
152.400   
  0
LINE
  8
13
 10
-12.700   
 20
0.000     
 11
12.700    
 21
0.000     
  0
LINE
  8
13
 10
-12.700   
 20
152.400   
 11
12.700    
 21
152.400   
  0
LINE
  8
13
 10
12.700    
 20
0.000     
 11
12.700    
 21
152.400   
  0
SOLID
  8
6
 10
-12.700   
 20
119.380   
 11
12.700    
 21
119.380   
 12
-12.700   
 22
134.620   
 13
12.700    
 23
134.620   
  0
SOLID
  8
6
 10
-12.700   
 20
68.580    
 11
12.700    
 21
68.580    
 12
-12.700   
 22
83.820    
 13
12.700    
 23
83.820    
  0
ENDBLK
  8
3
  0
BLOCK
  8
2
  2
GRTCLP1
 70
     0
 10
0.000     
 20
0.000     
  0
LINE
  8
13
 10
-12.700   
 20
0.000     
 11
-12.700   
 21
101.600   
  0
LINE
  8
13
 10
-12.700   
 20
0.000     
 11
12.700    
 21
0.000     
  0
LINE
  8
13
 10
-12.700   
 20
101.600   
 11
12.700    
 21
101.600   
  0
LINE
  8
13
 10
12.700    
 20
0.000     
 11
12.700    
 21
101.600   
  0
SOLID
  8
6
 10
-12.700   
 20
68.580    
 11
12.700    
 21
68.580    
 12
-12.700   
 22
83.820    
 13
12.700    
 23
83.820    
  0
ENDBLK
  8
3
  0
BLOCK
  8
2
  2
GRTCLP0
 70
     0
 10
0.000     
 20
0.000     
  0
LINE
  8
13
 10
-12.700   
 20
0.000     
 11
-12.700   
 21
101.600   
  0
LINE
  8
13
 10
-12.700   
 20
0.000     
 11
12.700    
 21
0.000     
  0
LINE
  8
13
 10
-12.700   
 20
101.600   
 11
12.700    
 21
101.600   
  0
LINE
  8
13
 10
12.700    
 20
0.000     
 11
12.700    
 21
101.600   
  0
ENDBLK
  8
3
  0
BLOCK
  8
2
  2
GRTCLPZ
 70
     0
 10
0.000     
 20
0.000     
  0
LINE
  8
13
 10
-12.700   
 20
0.000     
 11
-12.700   
 21
63.500    
  0
LINE
  8
13
 10
-12.700   
 20
63.500    
 11
38.100    
 21
63.500    
  0
LINE
  8
13
 10
38.100    
 20
63.500    
 11
38.100    
 21
152.400   
  0
LINE
  8
13
 10
38.100    
 20
152.400   
 11
63.500    
 21
152.400   
  0
LINE
  8
13
 10
63.500    
 20
152.400   
 11
63.500    
 21
38.100    
  0
LINE
  8
13
 10
63.500    
 20
38.100    
 11
12.700    
 21
38.100    
  0
LINE
  8
13
 10
12.700    
 20
38.100    
 11
12.700    
 21
0.000     
  0
SOLID
  8
6
 10
38.100    
 20
119.380   
 11
63.500    
 21
119.380   
 12
38.100    
 22
134.620   
 13
63.500    
 23
134.620   
  0
SOLID
  8
6
 10
38.100    
 20
68.580    
 11
63.500    
 21
68.580    
 12
38.100    
 22
83.820    
 13
63.500    
 23
83.820    
  0
ENDBLK
  8
3
  0
BLOCK
  8
2
  2
WEBCLP2
 70
     0
 10
0.000     
 20
152.400   
  0
LINE
  8
13
 10
-12.700   
 20
0.000     
 11
-12.700   
 21
203.200   
  0
LINE
  8
13
 10
-12.700   
 20
0.000     
 11
12.700    
 21
0.000     
  0
LINE
  8
13
 10
-12.700   
 20
203.200   
 11
12.700    
 21
203.200   
  0
LINE
  8
13
 10
12.700    
 20
0.000     
 11
12.700    
 21
203.200   
  0
SOLID
  8
6
 10
-12.700   
 20
43.180    
 11
12.700    
 21
43.180    
 12
-12.700   
 22
58.420    
 13
12.700    
 23
58.420    
  0
SOLID
  8
6
 10
-12.700   
 20
144.780   
 11
12.700    
 21
144.780   
 12
-12.700   
 22
160.020   
 13
12.700    
 23
160.020   
  0
ENDBLK
  8
3
  0
BLOCK
  8
2
  2
WEBCLPL
 70
     0
 10
0.000     
 20
152.400   
  0
LINE
  8
13
 10
0.000     
 20
0.000     
 11
-25.400   
 21
0.000     
  0
LINE
  8
13
 10
0.000     
 20
203.200   
 11
-25.400   
 21
203.200   
  0
LINE
  8
13
 10
-25.400   
 20
0.000     
 11
-25.400   
 21
203.200   
  0
ENDBLK
  8
3
  0
BLOCK
  8
2
  2
WEBCLP3
 70
     0
 10
0.000     
 20
144.780   
  0
LINE
  8
13
 10
-12.700   
 20
0.000     
 11
-12.700   
 21
187.960   
  0
LINE
  8
13
 10
-12.700   
 20
0.000     
 11
12.700    
 21
0.000     
  0
LINE
  8
13
 10
-12.700   
 20
187.960   
 11
12.700    
 21
187.960   
  0
LINE
  8
13
 10
12.700    
 20
0.000     
 11
12.700    
 21
187.960   
  0
SOLID
  8
6
 10
-12.700   
 20
35.560    
 11
12.700    
 21
35.560    
 12
-12.700   
 22
50.800    
 13
12.700    
 23
50.800    
  0
SOLID
  8
6
 10
-12.700   
 20
86.360    
 11
12.700    
 21
86.360    
 12
-12.700   
 22
101.600   
 13
12.700    
 23
101.600   
  0
SOLID
  8
6
 10
-12.700   
 20
137.160   
 11
12.700    
 21
137.160   
 12
-12.700   
 22
152.400   
 13
12.700    
 23
152.400   
  0
ENDBLK
  8
3
  0
BLOCK
  8
2
  2
WEBCLP4
 70
     0
 10
0.000     
 20
195.580   
  0
LINE
  8
13
 10
-12.700   
 20
0.000     
 11
-12.700   
 21
238.760   
  0
LINE
  8
13
 10
-12.700   
 20
0.000     
 11
12.700    
 21
0.000     
  0
LINE
  8
13
 10
-12.700   
 20
238.760   
 11
12.700    
 21
238.760   
  0
LINE
  8
13
 10
12.700    
 20
0.000     
 11
12.700    
 21
238.760   
  0
SOLID
  8
6
 10
-12.700   
 20
35.560    
 11
12.700    
 21
35.560    
 12
-12.700   
 22
50.800    
 13
12.700    
 23
50.800    
  0
SOLID
  8
6
 10
-12.700   
 20
86.360    
 11
12.700    
 21
86.360    
 12
-12.700   
 22
101.600   
 13
12.700    
 23
101.600   
  0
SOLID
  8
6
 10
-12.700   
 20
137.160   
 11
12.700    
 21
137.160   
 12
-12.700   
 22
152.400   
 13
12.700    
 23
152.400   
  0
SOLID
  8
6
 10
-12.700   
 20
187.960   
 11
12.700    
 21
187.960   
 12
-12.700   
 22
203.200   
 13
12.700    
 23
203.200   
  0
ENDBLK
  8
4
  0
BLOCK
  8
2
  2
WEBCLP1
 70
     0
 10
0.000     
 20
76.200    
  0
LINE
  8
13
 10
-12.700   
 20
0.000     
 11
-12.700   
 21
152.400   
  0
LINE
  8
13
 10
-12.700   
 20
0.000     
 11
12.700    
 21
0.000     
  0
LINE
  8
13
 10
-12.700   
 20
152.400   
 11
12.700    
 21
152.400   
  0
LINE
  8
13
 10
12.700    
 20
0.000     
 11
12.700    
 21
152.400   
  0
SOLID
  8
6
 10
-12.700   
 20
68.580    
 11
12.700    
 21
68.580    
 12
-12.700   
 22
83.820    
 13
12.700    
 23
83.820    
  0
ENDBLK
  8
3
  0
BLOCK
  8
2
  2
WEBCLP2B
 70
     0
 10
0.000     
 20
152.400   
  0
LINE
  8
7
 10
-12.700   
 20
0.000     
 11
-12.700   
 21
203.200   
  0
LINE
  8
7
 10
-12.700   
 20
0.000     
 11
12.700    
 21
0.000     
  0
LINE
  8
7
 10
-12.700   
 20
203.200   
 11
12.700    
 21
203.200   
  0
LINE
  8
7
 10
12.700    
 20
0.000     
 11
12.700    
 21
203.200   
  0
SOLID
  8
6
 10
-12.700   
 20
43.180    
 11
12.700    
 21
43.180    
 12
-12.700   
 22
58.420    
 13
12.700    
 23
58.420    
  0
SOLID
  8
6
 10
-12.700   
 20
144.780   
 11
12.700    
 21
144.780   
 12
-12.700   
 22
160.020   
 13
12.700    
 23
160.020   
  0
ENDBLK
  8
3
  0
BLOCK
  8
2
  2
WEBCLPLB
 70
     0
 10
0.000     
 20
152.400   
  0
LINE
  8
7
 10
0.000     
 20
0.000     
 11
-25.400   
 21
0.000     
  0
LINE
  8
7
 10
0.000     
 20
203.200   
 11
-25.400   
 21
203.200   
  0
LINE
  8
7
 10
-25.400   
 20
0.000     
 11
-25.400   
 21
203.200   
  0
ENDBLK
  8
3
  0
BLOCK
  8
2
  2
WEBCLP3B
 70
     0
 10
0.000     
 20
144.780   
  0
LINE
  8
7
 10
-12.700   
 20
0.000     
 11
-12.700   
 21
187.960   
  0
LINE
  8
7
 10
-12.700   
 20
0.000     
 11
12.700    
 21
0.000     
  0
LINE
  8
7
 10
-12.700   
 20
187.960   
 11
12.700    
 21
187.960   
  0
LINE
  8
7
 10
12.700    
 20
0.000     
 11
12.700    
 21
187.960   
  0
SOLID
  8
6
 10
-12.700   
 20
35.560    
 11
12.700    
 21
35.560    
 12
-12.700   
 22
50.800    
 13
12.700    
 23
50.800    
  0
SOLID
  8
6
 10
-12.700   
 20
86.360    
 11
12.700    
 21
86.360    
 12
-12.700   
 22
101.600   
 13
12.700    
 23
101.600   
  0
SOLID
  8
6
 10
-12.700   
 20
137.160   
 11
12.700    
 21
137.160   
 12
-12.700   
 22
152.400   
 13
12.700    
 23
152.400   
  0
ENDBLK
  8
3
  0
BLOCK
  8
2
  2
WEBCLP4B
 70
     0
 10
0.000     
 20
195.580   
  0
LINE
  8
7
 10
-12.700   
 20
0.000     
 11
-12.700   
 21
238.760   
  0
LINE
  8
7
 10
-12.700   
 20
0.000     
 11
12.700    
 21
0.000     
  0
LINE
  8
7
 10
-12.700   
 20
238.760   
 11
12.700    
 21
238.760   
  0
LINE
  8
7
 10
12.700    
 20
0.000     
 11
12.700    
 21
238.760   
  0
SOLID
  8
6
 10
-12.700   
 20
35.560    
 11
12.700    
 21
35.560    
 12
-12.700   
 22
50.800    
 13
12.700    
 23
50.800    
  0
SOLID
  8
6
 10
-12.700   
 20
86.360    
 11
12.700    
 21
86.360    
 12
-12.700   
 22
101.600   
 13
12.700    
 23
101.600   
  0
SOLID
  8
6
 10
-12.700   
 20
137.160   
 11
12.700    
 21
137.160   
 12
-12.700   
 22
152.400   
 13
12.700    
 23
152.400   
  0
SOLID
  8
6
 10
-12.700   
 20
187.960   
 11
12.700    
 21
187.960   
 12
-12.700   
 22
203.200   
 13
12.700    
 23
203.200   
  0
ENDBLK
  8
4
  0
BLOCK
  8
2
  2
WEBCLP1B
 70
     0
 10
0.000     
 20
76.200    
  0
LINE
  8
7
 10
-12.700   
 20
0.000     
 11
-12.700   
 21
152.400   
  0
LINE
  8
7
 10
-12.700   
 20
0.000     
 11
12.700    
 21
0.000     
  0
LINE
  8
7
 10
-12.700   
 20
152.400   
 11
12.700    
 21
152.400   
  0
LINE
  8
7
 10
12.700    
 20
0.000     
 11
12.700    
 21
152.400   
  0
SOLID
  8
6
 10
-12.700   
 20
68.580    
 11
12.700    
 21
68.580    
 12
-12.700   
 22
83.820    
 13
12.700    
 23
83.820    
  0
ENDBLK
  8
3
  0
BLOCK
  8
2
  2
FC_CLIP2
 70
     0
 10
0.000     
 20
0.000     
  0
LINE
  8
2
 10
-50.800   
 20
0.000     
 11
-50.800   
 21
152.400   
  0
LINE
  8
2
 10
-50.800   
 20
0.000     
 11
50.800    
 21
0.000     
  0
LINE
  8
2
 10
-50.800   
 20
152.400   
 11
50.800    
 21
152.400   
  0
LINE
  8
2
 10
50.800    
 20
0.000     
 11
50.800    
 21
152.400   
  0
CIRCLE
  8
1
 10
     0.000
 20
   101.600
 40
    12.700
  0
CIRCLE
  8
1
 10
     0.000
 20
    50.800
 40
    12.700
  0
ENDBLK
  8
3
  0
BLOCK
  8
2
  2
FC_CLIP3
 70
     0
 10
0.000     
 20
0.000     
  0
LINE
  8
2
 10
-50.800   
 20
0.000     
 11
-50.800   
 21
152.400   
  0
LINE
  8
2
 10
-50.800   
 20
0.000     
 11
50.800    
 21
0.000     
  0
LINE
  8
2
 10
-50.800   
 20
152.400   
 11
50.800    
 21
152.400   
  0
LINE
  8
2
 10
50.800    
 20
0.000     
 11
50.800    
 21
152.400   
  0
CIRCLE
  8
1
 10
     0.000
 20
   101.600
 40
    12.700
  0
CIRCLE
  8
1
 10
     0.000
 20
    76.200
 40
    12.700
  0
CIRCLE
  8
1
 10
     0.000
 20
    50.800
 40
    12.700
  0
ENDBLK
  8
3
  0
BLOCK
  8
2
  2
EAVCLP
 70
     0
 10
0.000     
 20
0.000     
  0
LINE
  8
2
 10
-25.400   
 20
0.000     
 11
-25.400   
 21
304.800   
  0
LINE
  8
2
 10
-25.400   
 20
0.000     
 11
0.000     
 21
0.000     
  0
LINE
  8
2
 10
-25.400   
 20
304.800   
 11
0.000     
 21
304.800   
  0
LINE
  8
2
 10
0.000     
 20
0.000     
 11
0.000     
 21
304.800   
  0
SOLID
  8
1
 10
-25.400   
 20
271.780   
 11
0.000     
 21
271.780   
 12
-25.400   
 22
287.020   
 13
0.000     
 23
287.020   
  0
SOLID
  8
1
 10
-25.400   
 20
220.980   
 11
0.000     
 21
220.980   
 12
-25.400   
 22
236.220   
 13
0.000     
 23
236.220   
  0
ENDBLK
  8
3
  0
BLOCK
  8
2
  2
ASMPIECE
 70
     0
 10
11315.74  
 20
9913.345  
  0
LINE
  8
1
 10
11315.74  
 20
9913.345  
 11
11428.24  
 21
9463.335  
  0
LINE
  8
1
 10
17315.71  
 20
9563.072  
 11
17315.71  
 21
9913.345  
  0
TEXT
  8
3
 7
SIMPLEX
 10
14220.81  
 20
9810.689  
 40
   22.812
  1
WB3
 50
    0.000
  0
LINE
  8
1
 10
11315.74  
 20
9913.345  
 11
11315.74  
 21
9922.510  
  0
LINE
  8
1
 10
11315.74  
 20
9913.345  
 11
17315.71  
 21
9913.345  
  0
LINE
  8
1
 10
17315.71  
 20
9913.345  
 11
17315.71  
 21
9922.511  
  0
LINE
  8
1
 10
11315.74  
 20
9922.510  
 11
17315.71  
 21
9922.511  
  0
TEXT
  8
3
 7
SIMPLEX
 10
14315.73  
 20
9928.213  
 40
   22.812
  1
OF4
 50
    0.000
  0
LINE
  8
1
 10
11429.40  
 20
9463.354  
 11
11430.53  
 21
9454.206  
  0
LINE
  8
1
 10
11429.40  
 20
9463.354  
 11
17315.63  
 21
9563.072  
  0
LINE
  8
1
 10
17315.63  
 20
9563.072  
 11
17315.71  
 21
9553.906  
  0
LINE
  8
1
 10
11430.53  
 20
9454.206  
 11
17315.71  
 21
9553.906  
  0
TEXT
  8
3
 7
SIMPLEX
 10
14373.70  
 20
9469.844  
 40
   22.812
  1
IF3
 50
    0.971
  0
LINE
  8
12
 10
11299.38  
 20
9978.787  
 11
11289.50  
 21
9976.317  
  0
LINE
  8
12
 10
11299.38  
 20
9978.787  
 11
11444.60  
 21
9397.893  
  0
LINE
  8
12
 10
11444.60  
 20
9397.893  
 11
11434.72  
 21
9395.423  
  0
LINE
  8
12
 10
11289.50  
 20
9976.317  
 11
11434.72  
 21
9395.423  
  0
TEXT
  8
3
 7
SIMPLEX
 10
11364.88  
 20
9651.291  
 40
   22.812
  1
EP4
 50
  104.036
  0
LINE
  8
12
 10
17315.71  
 20
9980.660  
 11
17325.90  
 21
9980.660  
  0
LINE
  8
12
 10
17315.71  
 20
9980.660  
 11
17315.71  
 21
9495.757  
  0
LINE
  8
12
 10
17315.71  
 20
9495.757  
 11
17325.90  
 21
9495.757  
  0
LINE
  8
12
 10
17325.90  
 20
9980.660  
 11
17325.90  
 21
9495.757  
  0
TEXT
  8
3
 7
SIMPLEX
 10
17354.41  
 20
9703.990  
 40
   22.812
  1
EP3
 50
   90.000
  0
INSERT
  8
6
  2
SLOTTD
 10
11499.25  
 20
9838.345  
 41
   0.241
 42
   0.241
 43
   0.241
 50
   0.000
  0
TEXT
  8
3
 7
SIMPLEX
 10
11487.84  
 20
9804.126  
 40
   22.812
  1
S1
 50
    0.000
  0
INSERT
  8
6
  2
SLOTTD
 10
16260.41  
 20
9838.345  
 41
   0.241
 42
   0.241
 43
   0.241
 50
   0.000
  0
TEXT
  8
3
 7
SIMPLEX
 10
16249.01  
 20
9804.126  
 40
   22.812
  1
S1
 50
    0.000
  0
INSERT
  8
6
  2
SLOTTD
 10
16560.41  
 20
9838.345  
 41
   0.241
 42
   0.241
 43
   0.241
 50
   0.000
  0
TEXT
  8
3
 7
SIMPLEX
 10
16549.01  
 20
9804.126  
 40
   22.812
  1
S1
 50
    0.000
  0
LINE
  8
8
 10
15306.10  
 20
9780.172  
 11
15272.80  
 21
9913.345  
  0
INSERT
  8
2
  2
CIRCLE
 10
15349.07  
 20
9814.431  
 41
   0.241
 42
   0.241
 43
   0.241
 50
   0.000
  0
INSERT
  8
2
  2
CIRCLE
 10
15252.06  
 20
9790.175  
 41
   0.241
 42
   0.241
 43
   0.241
 50
   0.000
  0
LINE
  8
2
 10
13156.59  
 20
9913.345  
 11
13130.11  
 21
9913.345  
  0
LINE
  8
2
 10
13156.59  
 20
9520.318  
 11
13130.11  
 21
9520.318  
  0
LINE
  8
2
 10
13136.22  
 20
9913.345  
 11
13136.22  
 21
9520.318  
  0
INSERT
  8
2
  2
ARROW
 10
13136.22  
 20
9913.345  
 41
   8.019
 42
   8.019
 43
   8.019
 50
  90.000
  0
INSERT
  8
2
  2
ARROW
 10
13136.22  
 20
9520.318  
 41
   8.019
 42
   8.019
 43
   8.019
 50
 -90.000
  0
TEXT
  8
11
 7
SIMPLEX
 10
13143.83  
 20
9701.624  
 40
   22.812
  1
371
 50
    0.000
  0
LINE
  8
2
 10
16422.63  
 20
9913.345  
 11
16449.11  
 21
9913.345  
  0
LINE
  8
2
 10
16422.63  
 20
9575.233  
 11
16449.11  
 21
9575.233  
  0
LINE
  8
2
 10
16443.00  
 20
9913.345  
 11
16443.00  
 21
9575.233  
  0
INSERT
  8
2
  2
ARROW
 10
16443.00  
 20
9913.345  
 41
   8.019
 42
   8.019
 43
   8.019
 50
  90.000
  0
INSERT
  8
2
  2
ARROW
 10
16443.00  
 20
9575.233  
 41
   8.019
 42
   8.019
 43
   8.019
 50
 -90.000
  0
TEXT
  8
11
 7
SIMPLEX
 10
16456.72  
 20
9729.081  
 40
   22.812
  1
316
 50
    0.000
  0
INSERT
  8
6
  2
FLGHOL
 10
11297.80  
 20
9943.121  
 41
   0.361
 42
   0.401
 43
   0.401
 50
 -75.964
  0
INSERT
  8
6
  2
FLGHOL
 10
11311.63  
 20
9887.793  
 41
   0.361
 42
   0.401
 43
   0.401
 50
 -75.964
  0
INSERT
  8
6
  2
FLGHOL
 10
11412.59  
 20
9483.946  
 41
   0.361
 42
   0.401
 43
   0.401
 50
 -75.964
  0
INSERT
  8
6
  2
FLGHOL
 10
11426.42  
 20
9428.619  
 41
   0.361
 42
   0.401
 43
   0.401
 50
 -75.964
  0
INSERT
  8
6
  2
FLGHOL
 10
17315.71  
 20
9946.442  
 41
   0.361
 42
   0.401
 43
   0.401
 50
 -90.000
  0
INSERT
  8
6
  2
FLGHOL
 10
17315.71  
 20
9889.412  
 41
   0.361
 42
   0.401
 43
   0.401
 50
 -90.000
  0
INSERT
  8
6
  2
FLGHOL
 10
17315.71  
 20
9587.006  
 41
   0.361
 42
   0.401
 43
   0.401
 50
 -90.000
  0
INSERT
  8
6
  2
FLGHOL
 10
17315.71  
 20
9529.975  
 41
   0.361
 42
   0.401
 43
   0.401
 50
 -90.000
  0
INSERT
  8
1
  2
GRTCLPB
 10
11544.96  
 20
9922.510  
 41
  -0.241
 42
   0.241
 43
   0.241
 50
   0.000
  0
CIRCLE
  8
15
 10
 11548.011
 20
  9922.510
 40
     6.844
  0
INSERT
  8
1
  2
GRTCLPB
 10
13165.76  
 20
9922.510  
 41
  -0.241
 42
   0.241
 43
   0.241
 50
   0.000
  0
CIRCLE
  8
15
 10
 13168.813
 20
  9922.510
 40
     6.844
  0
TEXT
  8
3
 7
SIMPLEX
 10
12954.34  
 20
9953.809  
 40
   22.812
  1
CLF3(typ)
 50
    0.000
  0
LINE
  8
3
 10
13159.65  
 20
9950.007  
 11
13108.73  
 21
9950.007  
  0
INSERT
  8
3
  2
ARROWP
 10
13159.65  
 20
9950.007  
 41
   8.019
 42
   8.019
 43
   8.019
 50
   0.000
  0
INSERT
  8
1
  2
GRTCLPB
 10
14786.56  
 20
9922.511  
 41
  -0.241
 42
   0.241
 43
   0.241
 50
   0.000
  0
CIRCLE
  8
15
 10
 14789.613
 20
  9922.511
 40
     6.844
  0
INSERT
  8
1
  2
GRTCLPB
 10
16407.36  
 20
9922.511  
 41
  -0.241
 42
   0.241
 43
   0.241
 50
   0.000
  0
CIRCLE
  8
15
 10
 16410.412
 20
  9922.511
 40
     6.844
  0
INSERT
  8
7
  2
GRTCLP1
 10
16505.22  
 20
9540.176  
 41
   0.241
 42
   0.241
 43
   0.241
 50
 194.034
  0
CIRCLE
  8
15
 10
 16508.273
 20
  9540.124
 40
     6.844
  0
TEXT
  8
3
 7
SIMPLEX
 10
16537.54  
 20
9520.081  
 40
   22.812
  1
CLF4(typ)
 50
    0.971
  0
LINE
  8
3
 10
16514.80  
 20
9515.893  
 11
16565.71  
 21
9516.756  
  0
INSERT
  8
3
  2
ARROWP
 10
16514.80  
 20
9515.893  
 41
   8.019
 42
   8.019
 43
   8.019
 50
 180.971
  0
LINE
  8
2
 10
16508.75  
 20
9512.245  
 11
16509.05  
 21
9493.916  
  0
LINE
  8
2
 10
16514.27  
 20
9512.339  
 11
16514.58  
 21
9494.011  
  0
LINE
  8
2
 10
16508.95  
 20
9500.026  
 11
16514.47  
 21
9500.120  
  0
INSERT
  8
2
  2
ARROW
 10
16508.95  
 20
9500.026  
 41
   8.019
 42
   8.019
 43
   8.019
 50
 360.971
  0
INSERT
  8
2
  2
ARROW
 10
16514.47  
 20
9500.120  
 41
   8.019
 42
   8.019
 43
   8.019
 50
 180.971
  0
TEXT
  8
11
 7
SIMPLEX
 10
16461.13  
 20
9506.821  
 40
   22.812
  1
48
 50
    0.971
  0
INSERT
  8
7
  2
BRCCLP
 10
13168.81  
 20
9492.822  
 41
  -0.361
 42
   0.361
 43
   0.361
 50
   0.000
  0
CIRCLE
  8
15
 10
 13168.812
 20
  9492.822
 40
     6.844
  0
LINE
  8
1
 10
13177.98  
 20
9529.484  
 11
13177.98  
 21
9492.977  
  0
TEXT
  8
3
 7
SIMPLEX
 10
12934.39  
 20
9529.194  
 40
   22.812
  1
CLF1 (typ)
 50
    0.971
  0
TEXT
  8
3
 7
SIMPLEX
 10
12934.97  
 20
9494.980  
 40
   22.812
  1
NS/FS
 50
    0.971
  0
LINE
  8
3
 10
13162.55  
 20
9529.257  
 11
13111.63  
 21
9528.395  
  0
INSERT
  8
3
  2
ARROWP
 10
13162.55  
 20
9529.257  
 41
   8.019
 42
   8.019
 43
   8.019
 50
   0.971
  0
INSERT
  8
7
  2
BRCCLP
 10
16410.41  
 20
9547.736  
 41
  -0.361
 42
   0.361
 43
   0.361
 50
   0.000
  0
CIRCLE
  8
15
 10
 16410.412
 20
  9547.736
 40
     6.844
  0
LINE
  8
1
 10
16419.58  
 20
9584.398  
 11
16419.58  
 21
9547.892  
  0
LINE
  8
9
 10
11299.38  
 20
9978.787  
 11
11435.74  
 21
9922.510  
  0
TEXT
  8
3
 7
SIMPLEX
 10
11460.59  
 20
9959.777  
 40
   22.812
  1
SS4
 50
    0.000
  0
LINE
  8
3
 10
11437.78  
 20
9955.975  
 11
11488.70  
 21
9955.975  
  0
INSERT
  8
3
  2
ARROWP
 10
11437.78  
 20
9955.975  
 41
   8.019
 42
   8.019
 43
   8.019
 50
 180.000
  0
LINE
  8
9
 10
11550.51  
 20
9456.239  
 11
11444.60  
 21
9397.893  
  0
TEXT
  8
3
 7
SIMPLEX
 10
11575.29  
 20
9402.115  
 40
   22.812
  1
SS5
 50
    0.971
  0
LINE
  8
3
 10
11552.54  
 20
9397.927  
 11
11603.46  
 21
9398.790  
  0
INSERT
  8
3
  2
ARROWP
 10
11552.54  
 20
9397.927  
 41
   8.019
 42
   8.019
 43
   8.019
 50
 180.971
  0
LINE
  8
9
 10
17256.68  
 20
9922.511  
 11
17315.71  
 21
9980.660  
  0
TEXT
  8
3
 7
SIMPLEX
 10
17186.21  
 20
9971.937  
 40
   22.812
  1
SS1
 50
    0.000
  0
LINE
  8
3
 10
17254.64  
 20
9968.135  
 11
17203.72  
 21
9968.135  
  0
INSERT
  8
3
  2
ARROWP
 10
17254.64  
 20
9968.135  
 41
   8.019
 42
   8.019
 43
   8.019
 50
   0.000
  0
LINE
  8
9
 10
17248.41  
 20
9552.767  
 11
17315.71  
 21
9495.757  
  0
TEXT
  8
3
 7
SIMPLEX
 10
17178.65  
 20
9509.757  
 40
   22.812
  1
SS6
 50
    0.971
  0
LINE
  8
3
 10
17247.14  
 20
9507.114  
 11
17196.23  
 21
9506.251  
  0
INSERT
  8
3
  2
ARROWP
 10
17247.14  
 20
9507.114  
 41
   8.019
 42
   8.019
 43
   8.019
 50
   0.971
  0
LINE
  8
2
 10
11315.74  
 20
9983.613  
 11
11315.74  
 21
10203.59  
  0
INSERT
  8
2
  2
ARROW
 10
11315.74  
 20
10197.48  
 41
   8.019
 42
   8.019
 43
   8.019
 50
 180.000
  0
LINE
  8
2
 10
11315.74  
 20
10197.48  
 11
17315.71  
 21
10197.48  
  0
LINE
  8
2
 10
17315.71  
 20
9983.614  
 11
17315.71  
 21
10203.59  
  0
INSERT
  8
2
  2
ARROW
 10
17315.71  
 20
10197.48  
 41
   8.019
 42
   8.019
 43
   8.019
 50
   0.000
  0
TEXT
  8
11
 7
SIMPLEX
 10
14264.93  
 20
10205.08  
 40
   22.812
  1
6000
 50
    0.000
  0
LINE
  8
3
 10
11431.56  
 20
9393.111  
 11
11433.04  
 21
9305.541  
  0
INSERT
  8
3
  2
ARROW
 10
11432.94  
 20
9311.650  
 41
   8.019
 42
   8.019
 43
   8.019
 50
 180.971
  0
LINE
  8
2
 10
11432.94  
 20
9311.650  
 11
17318.13  
 21
9411.351  
  0
LINE
  8
2
 10
17316.75  
 20
9492.812  
 11
17318.23  
 21
9405.241  
  0
INSERT
  8
2
  2
ARROW
 10
17318.13  
 20
9411.351  
 41
   8.019
 42
   8.019
 43
   8.019
 50
   0.971
  0
TEXT
  8
11
 7
SIMPLEX
 10
14324.61  
 20
9368.243  
 40
   22.812
  1
5887
 50
    0.971
  0
TEXT
  8
21
 7
SIMPLEX
 10
11051.99  
 20
9952.210  
 40
   22.812
  1
G=100
 50
   14.036
  0
TEXT
  8
21
 7
SIMPLEX
 10
11043.69  
 20
9985.406  
 40
   22.812
  1
D=22
 50
   14.036
  0
LINE
  8
2
 10
11261.84  
 20
9969.401  
 11
11230.22  
 21
9961.497  
  0
LINE
  8
2
 10
11270.14  
 20
9936.205  
 11
11238.52  
 21
9928.301  
  0
LINE
  8
2
 10
11236.15  
 20
9962.979  
 11
11244.45  
 21
9929.783  
  0
INSERT
  8
2
  2
ARROW
 10
11236.15  
 20
9962.979  
 41
   8.019
 42
   8.019
 43
   8.019
 50
 104.036
  0
INSERT
  8
2
  2
ARROW
 10
11244.45  
 20
9929.783  
 41
   8.019
 42
   8.019
 43
   8.019
 50
 -75.964
  0
TEXT
  8
11
 7
SIMPLEX
 10
11186.42  
 20
9917.234  
 40
   22.812
  1
50
 50
   14.036
  0
LINE
  8
2
 10
11283.97  
 20
9880.877  
 11
11252.35  
 21
9872.974  
  0
LINE
  8
2
 10
11253.34  
 20
9894.215  
 11
11258.28  
 21
9874.455  
  0
INSERT
  8
2
  2
ARROW
 10
11258.28  
 20
9874.455  
 41
   8.019
 42
   8.019
 43
   8.019
 50
 -75.964
  0
TEXT
  8
11
 7
SIMPLEX
 10
11187.80  
 20
9864.674  
 40
   22.812
  1
150
 50
   14.036
  0
LINE
  8
2
 10
11384.93  
 20
9477.030  
 11
11353.31  
 21
9469.127  
  0
LINE
  8
2
 10
11354.30  
 20
9490.368  
 11
11359.24  
 21
9470.608  
  0
INSERT
  8
2
  2
ARROW
 10
11359.24  
 20
9470.608  
 41
   8.019
 42
   8.019
 43
   8.019
 50
 -75.964
  0
TEXT
  8
11
 7
SIMPLEX
 10
11288.76  
 20
9460.827  
 40
   22.812
  1
515
 50
   14.036
  0
LINE
  8
2
 10
11398.76  
 20
9421.703  
 11
11367.15  
 21
9413.799  
  0
LINE
  8
2
 10
11368.13  
 20
9435.041  
 11
11373.07  
 21
9415.281  
  0
INSERT
  8
2
  2
ARROW
 10
11373.07  
 20
9415.281  
 41
   8.019
 42
   8.019
 43
   8.019
 50
 -75.964
  0
TEXT
  8
11
 7
SIMPLEX
 10
11302.60  
 20
9405.499  
 40
   22.812
  1
615
 50
   14.036
  0
TEXT
  8
21
 7
SIMPLEX
 10
17407.37  
 20
10014.88  
 40
   22.812
  1
G=100
 50
    0.000
  0
TEXT
  8
21
 7
SIMPLEX
 10
17407.37  
 20
10049.10  
 40
   22.812
  1
D=22
 50
    0.000
  0
LINE
  8
2
 10
17354.41  
 20
9980.660  
 11
17387.00  
 21
9980.660  
  0
LINE
  8
2
 10
17354.41  
 20
9946.442  
 11
17387.00  
 21
9946.442  
  0
LINE
  8
2
 10
17380.89  
 20
9980.660  
 11
17380.89  
 21
9946.442  
  0
INSERT
  8
2
  2
ARROW
 10
17380.89  
 20
9980.660  
 41
   8.019
 42
   8.019
 43
   8.019
 50
  90.000
  0
INSERT
  8
2
  2
ARROW
 10
17380.89  
 20
9946.442  
 41
   8.019
 42
   8.019
 43
   8.019
 50
 -90.000
  0
TEXT
  8
11
 7
SIMPLEX
 10
17394.61  
 20
9948.344  
 40
   22.812
  1
50
 50
    0.000
  0
LINE
  8
2
 10
17354.41  
 20
9889.412  
 11
17387.00  
 21
9889.412  
  0
LINE
  8
2
 10
17380.89  
 20
9909.779  
 11
17380.89  
 21
9889.412  
  0
INSERT
  8
2
  2
ARROW
 10
17380.89  
 20
9889.412  
 41
   8.019
 42
   8.019
 43
   8.019
 50
 -90.000
  0
TEXT
  8
11
 7
SIMPLEX
 10
17394.61  
 20
9897.016  
 40
   22.812
  1
150
 50
    0.000
  0
LINE
  8
2
 10
17354.41  
 20
9587.006  
 11
17387.00  
 21
9587.006  
  0
LINE
  8
2
 10
17380.89  
 20
9607.373  
 11
17380.89  
 21
9587.006  
  0
INSERT
  8
2
  2
ARROW
 10
17380.89  
 20
9587.006  
 41
   8.019
 42
   8.019
 43
   8.019
 50
 -90.000
  0
TEXT
  8
11
 7
SIMPLEX
 10
17394.61  
 20
9594.609  
 40
   22.812
  1
400
 50
    0.000
  0
LINE
  8
2
 10
17354.41  
 20
9529.975  
 11
17387.00  
 21
9529.975  
  0
LINE
  8
2
 10
17380.89  
 20
9550.343  
 11
17380.89  
 21
9529.975  
  0
INSERT
  8
2
  2
ARROW
 10
17380.89  
 20
9529.975  
 41
   8.019
 42
   8.019
 43
   8.019
 50
 -90.000
  0
TEXT
  8
11
 7
SIMPLEX
 10
17394.61  
 20
9537.579  
 40
   22.812
  1
500
 50
    0.000
  0
LINE
  8
2
 10
11319.54  
 20
9948.555  
 11
11349.18  
 21
9955.964  
  0
LINE
  8
2
 10
11327.60  
 20
9925.474  
 11
11357.24  
 21
9932.884  
  0
LINE
  8
2
 10
11343.25  
 20
9954.482  
 11
11351.31  
 21
9931.401  
  0
INSERT
  8
2
  2
ARROW
 10
11343.25  
 20
9954.482  
 41
   8.019
 42
   8.019
 43
   8.019
 50
 104.036
  0
INSERT
  8
2
  2
ARROW
 10
11351.31  
 20
9931.401  
 41
   8.019
 42
   8.019
 43
   8.019
 50
 -75.964
  0
TEXT
  8
11
 7
SIMPLEX
 10
11362.02  
 20
9935.935  
 40
   22.812
  1
49
 50
   14.036
  0
LINE
  8
2
 10
17303.49  
 20
9946.442  
 11
17272.94  
 21
9946.442  
  0
LINE
  8
2
 10
17303.49  
 20
9922.511  
 11
17272.94  
 21
9922.511  
  0
LINE
  8
2
 10
17279.05  
 20
9946.442  
 11
17279.05  
 21
9922.511  
  0
INSERT
  8
2
  2
ARROW
 10
17279.05  
 20
9946.442  
 41
   8.019
 42
   8.019
 43
   8.019
 50
  90.000
  0
INSERT
  8
2
  2
ARROW
 10
17279.05  
 20
9922.511  
 41
   8.019
 42
   8.019
 43
   8.019
 50
 -90.000
  0
TEXT
  8
11
 7
SIMPLEX
 10
17219.71  
 20
9924.412  
 40
   22.812
  1
45
 50
    0.000
  0
LINE
  8
2
 10
15260.95  
 20
9910.380  
 11
15138.25  
 21
9879.702  
  0
LINE
  8
2
 10
15288.71  
 20
9799.338  
 11
15166.01  
 21
9768.660  
  0
LINE
  8
2
 10
15144.17  
 20
9881.185  
 11
15171.94  
 21
9770.143  
  0
INSERT
  8
2
  2
ARROW
 10
15144.17  
 20
9881.185  
 41
   8.019
 42
   8.019
 43
   8.019
 50
 104.037
  0
INSERT
  8
2
  2
ARROW
 10
15171.94  
 20
9770.143  
 41
   8.019
 42
   8.019
 43
   8.019
 50
 -75.963
  0
TEXT
  8
11
 7
SIMPLEX
 10
15104.18  
 20
9796.517  
 40
   22.812
  1
114
 50
   14.037
  0
TEXT
  8
21
 7
SIMPLEX
 10
15181.55  
 20
10099.10  
 40
   22.812
  1
D=14
 50
    0.000
  0
LINE
  8
2
 10
15255.02  
 20
9778.318  
 11
15261.44  
 21
9752.631  
  0
LINE
  8
2
 10
15352.04  
 20
9802.574  
 11
15358.46  
 21
9776.887  
  0
LINE
  8
2
 10
15259.96  
 20
9758.559  
 11
15356.98  
 21
9782.814  
  0
INSERT
  8
2
  2
ARROW
 10
15259.96  
 20
9758.559  
 41
   8.019
 42
   8.019
 43
   8.019
 50
 194.037
  0
INSERT
  8
2
  2
ARROW
 10
15356.98  
 20
9782.814  
 41
   8.019
 42
   8.019
 43
   8.019
 50
  14.037
  0
TEXT
  8
11
 7
SIMPLEX
 10
15288.18  
 20
9734.263  
 40
   22.812
  1
100
 50
   14.037
  0
LINE
  8
2
 10
11315.74  
 20
10102.77  
 11
11315.74  
 21
10133.32  
  0
LINE
  8
2
 10
11368.70  
 20
10127.21  
 11
11315.74  
 21
10127.21  
  0
INSERT
  8
2
  2
ARROW
 10
11315.74  
 20
10127.21  
 41
   8.019
 42
   8.019
 43
   8.019
 50
 180.000
  0
LINE
  8
2
 10
15272.80  
 20
10102.77  
 11
15272.80  
 21
10133.32  
  0
LINE
  8
2
 10
15219.84  
 20
10127.21  
 11
15272.80  
 21
10127.21  
  0
INSERT
  8
2
  2
ARROW
 10
15272.80  
 20
10127.21  
 41
   8.019
 42
   8.019
 43
   8.019
 50
   0.000
  0
TEXT
  8
11
 7
SIMPLEX
 10
15173.95  
 20
10134.81  
 40
   22.812
  1
3957
 50
    0.000
  0
LINE
  8
2
 10
11315.74  
 20
10035.55  
 11
11315.74  
 21
10076.29  
  0
LINE
  8
2
 10
11499.25  
 20
10035.55  
 11
11499.25  
 21
10076.29  
  0
LINE
  8
2
 10
11315.74  
 20
10070.18  
 11
11499.25  
 21
10070.18  
  0
INSERT
  8
2
  2
ARROW
 10
11315.74  
 20
10070.18  
 41
   8.019
 42
   8.019
 43
   8.019
 50
 180.000
  0
INSERT
  8
2
  2
ARROW
 10
11499.25  
 20
10070.18  
 41
   8.019
 42
   8.019
 43
   8.019
 50
   0.000
  0
TEXT
  8
11
 7
SIMPLEX
 10
11434.62  
 20
10077.78  
 40
   22.812
  1
184
 50
    0.000
  0
LINE
  8
2
 10
16248.19  
 20
9913.345  
 11
16221.71  
 21
9913.345  
  0
LINE
  8
2
 10
16248.19  
 20
9838.345  
 11
16221.71  
 21
9838.345  
  0
LINE
  8
2
 10
16227.82  
 20
9913.345  
 11
16227.82  
 21
9838.345  
  0
INSERT
  8
2
  2
ARROW
 10
16227.82  
 20
9913.345  
 41
   8.019
 42
   8.019
 43
   8.019
 50
  90.000
  0
INSERT
  8
2
  2
ARROW
 10
16227.82  
 20
9838.345  
 41
   8.019
 42
   8.019
 43
   8.019
 50
 -90.000
  0
TEXT
  8
11
 7
SIMPLEX
 10
16168.48  
 20
9860.637  
 40
   22.812
  1
75
 50
    0.000
  0
LINE
  8
2
 10
16260.41  
 20
10035.55  
 11
16260.41  
 21
10076.29  
  0
LINE
  8
2
 10
16235.97  
 20
10070.18  
 11
16260.41  
 21
10070.18  
  0
INSERT
  8
2
  2
ARROW
 10
16260.41  
 20
10070.18  
 41
   8.019
 42
   8.019
 43
   8.019
 50
   0.000
  0
TEXT
  8
11
 7
SIMPLEX
 10
16161.56  
 20
10077.78  
 40
   22.812
  1
4945
 50
    0.000
  0
LINE
  8
2
 10
16560.41  
 20
10035.55  
 11
16560.41  
 21
10076.29  
  0
LINE
  8
2
 10
16535.97  
 20
10070.18  
 11
16560.41  
 21
10070.18  
  0
INSERT
  8
2
  2
ARROW
 10
16560.41  
 20
10070.18  
 41
   8.019
 42
   8.019
 43
   8.019
 50
   0.000
  0
TEXT
  8
11
 7
SIMPLEX
 10
16461.56  
 20
10077.78  
 40
   22.812
  1
5245
 50
    0.000
  0
LINE
  8
2
 10
11431.22  
 20
9413.477  
 11
11431.73  
 21
9382.929  
  0
LINE
  8
2
 10
16508.96  
 20
9499.497  
 11
16509.48  
 21
9468.950  
  0
LINE
  8
2
 10
11431.63  
 20
9389.038  
 11
16509.38  
 21
9475.060  
  0
INSERT
  8
2
  2
ARROW
 10
11431.63  
 20
9389.038  
 41
   8.019
 42
   8.019
 43
   8.019
 50
 180.971
  0
INSERT
  8
2
  2
ARROW
 10
16509.38  
 20
9475.060  
 41
   8.019
 42
   8.019
 43
   8.019
 50
   0.971
  0
TEXT
  8
11
 7
SIMPLEX
 10
13924.76  
 20
9438.879  
 40
   22.812
  1
5078
 50
    0.971
  0
LINE
  8
2
 10
11315.74  
 20
9977.503  
 11
11315.74  
 21
9998.890  
  0
LINE
  8
2
 10
11548.01  
 20
9977.503  
 11
11548.01  
 21
9998.890  
  0
LINE
  8
2
 10
11315.74  
 20
9992.779  
 11
11548.01  
 21
9992.779  
  0
INSERT
  8
2
  2
ARROW
 10
11315.74  
 20
9992.779  
 41
   8.019
 42
   8.019
 43
   8.019
 50
 180.000
  0
INSERT
  8
2
  2
ARROW
 10
11548.01  
 20
9992.779  
 41
   8.019
 42
   8.019
 43
   8.019
 50
   0.000
  0
TEXT
  8
11
 7
SIMPLEX
 10
11397.66  
 20
10000.38  
 40
   22.812
  1
232
 50
    0.000
  0
LINE
  8
2
 10
13168.81  
 20
9977.503  
 11
13168.81  
 21
9998.890  
  0
LINE
  8
2
 10
13117.89  
 20
9992.779  
 11
13168.81  
 21
9992.779  
  0
INSERT
  8
2
  2
ARROW
 10
13168.81  
 20
9992.779  
 41
   8.019
 42
   8.019
 43
   8.019
 50
   0.000
  0
TEXT
  8
11
 7
SIMPLEX
 10
13081.37  
 20
10000.38  
 40
   22.812
  1
1853
 50
    0.000
  0
LINE
  8
2
 10
14789.61  
 20
9977.504  
 11
14789.61  
 21
9998.891  
  0
LINE
  8
2
 10
14738.69  
 20
9992.780  
 11
14789.61  
 21
9992.780  
  0
INSERT
  8
2
  2
ARROW
 10
14789.61  
 20
9992.780  
 41
   8.019
 42
   8.019
 43
   8.019
 50
   0.000
  0
TEXT
  8
11
 7
SIMPLEX
 10
14690.76  
 20
10000.38  
 40
   22.812
  1
3474
 50
    0.000
  0
LINE
  8
2
 10
16410.41  
 20
9977.504  
 11
16410.41  
 21
9998.891  
  0
LINE
  8
2
 10
16359.49  
 20
9992.780  
 11
16410.41  
 21
9992.780  
  0
INSERT
  8
2
  2
ARROW
 10
16410.41  
 20
9992.780  
 41
   8.019
 42
   8.019
 43
   8.019
 50
   0.000
  0
TEXT
  8
11
 7
SIMPLEX
 10
16311.56  
 20
10000.38  
 40
   22.812
  1
5095
 50
    0.000
  0
INSERT
  8
15
  2
CIRCLE
 10
11302.95  
 20
9922.510  
 41
   0.401
 42
   0.401
 43
   0.401
 50
   0.000
  0
INSERT
  8
15
  2
CIRCLE
 10
11420.07  
 20
9454.029  
 41
   0.401
 42
   0.401
 43
   0.401
 50
   0.000
  0
INSERT
  8
15
  2
CIRCLE
 10
17325.90  
 20
9554.079  
 41
   0.401
 42
   0.401
 43
   0.401
 50
   0.000
  0
INSERT
  8
15
  2
CIRCLE
 10
17325.90  
 20
9922.511  
 41
   0.401
 42
   0.401
 43
   0.401
 50
   0.000
  0
LINE
  8
2
 10
11302.95  
 20
9989.084  
 11
11302.95  
 21
10289.13  
  0
LINE
  8
2
 10
17325.90  
 20
9989.085  
 11
17325.90  
 21
10289.13  
  0
LINE
  8
2
 10
11302.95  
 20
10283.02  
 11
17325.90  
 21
10283.02  
  0
INSERT
  8
2
  2
ARROW
 10
11302.95  
 20
10283.02  
 41
   8.019
 42
   8.019
 43
   8.019
 50
 180.000
  0
INSERT
  8
2
  2
ARROW
 10
17325.90  
 20
10283.02  
 41
   8.019
 42
   8.019
 43
   8.019
 50
   0.000
  0
TEXT
  8
11
 7
SIMPLEX
 10
14268.80  
 20
10290.63  
 40
   22.812
  1
6034
 50
    0.000
  0
LINE
  8
3
 10
11315.74  
 20
9983.613  
 11
11315.74  
 21
10187.29  
  0
LINE
  8
3
 10
11315.74  
 20
10126.19  
 11
11178.87  
 21
10126.19  
  0
INSERT
  8
3
  2
ARROW
 10
11315.74  
 20
10126.19  
 41
   8.019
 42
   8.019
 43
   8.019
 50
   0.000
  0
TEXT
  8
3
 7
SIMPLEX
 10
11201.68  
 20
10131.89  
 40
   22.812
  1
Tape
 50
    0.000
  0
TEXT
  8
3
 7
SIMPLEX
 10
11201.68  
 20
10097.67  
 40
   22.812
  1
(Typ)
 50
    0.000
  0
LINE
  8
3
 10
11431.56  
 20
9393.111  
 11
11433.98  
 21
9250.556  
  0
LINE
  8
3
 10
11433.80  
 20
9260.738  
 11
11296.95  
 21
9263.057  
  0
INSERT
  8
3
  2
ARROW
 10
11433.80  
 20
9260.738  
 41
   8.019
 42
   8.019
 43
   8.019
 50
   0.971
  0
TEXT
  8
3
 7
SIMPLEX
 10
11319.66  
 20
9264.509  
 40
   22.812
  1
Tape
 50
    0.971
  0
TEXT
  8
3
 7
SIMPLEX
 10
11320.24  
 20
9230.295  
 40
   22.812
  1
(Typ)
 50
    0.971
  0
ENDBLK
  8
2
  0
BLOCK
  8
0
  2
ASMPLATE
 70
     0
 10
0.000     
 20
0.000     
  0
LINE
  8
14
 10
0.000     
 20
0.000     
 11
124.460   
 21
0.000     
  0
LINE
  8
14
 10
0.000     
 20
5.398     
 11
124.460   
 21
5.398     
  0
LINE
  8
14
 10
0.000     
 20
0.000     
 11
0.000     
 21
66.040    
  0
LINE
  8
14
 10
0.000     
 20
66.040    
 11
124.460   
 21
66.040    
  0
LINE
  8
14
 10
30.480    
 20
5.398     
 11
30.480    
 21
66.040    
  0
LINE
  8
14
 10
40.640    
 20
5.398     
 11
40.640    
 21
66.040    
  0
LINE
  8
14
 10
104.140   
 20
5.398     
 11
104.140   
 21
66.040    
  0
LINE
  8
14
 10
104.140   
 20
5.398     
 11
104.140   
 21
66.040    
  0
LINE
  8
14
 10
124.460   
 20
5.398     
 11
124.460   
 21
66.040    
  0
LINE
  8
14
 10
124.460   
 20
0.000     
 11
124.460   
 21
66.040    
  0
LINE
  8
14
 10
0.000     
 20
59.690    
 11
124.460   
 21
59.690    
  0
TEXT
  8
14
 7
SIMPLEX
 10
0.762     
 20
61.214    
 40
    2.540
  1
MARK
 50
    0.000
  0
TEXT
  8
14
 7
SIMPLEX
 10
31.750    
 20
61.214    
 40
    2.540
  1
QNT
 50
    0.000
  0
TEXT
  8
14
 7
SIMPLEX
 10
48.260    
 20
61.214    
 40
    2.540
  1
DESCRIPTION
 50
    0.000
  0
TEXT
  8
14
 7
SIMPLEX
 10
105.410   
 20
61.214    
 40
    2.540
  1
WEIGHT
 50
    0.000
  0
LINE
  8
14
 10
0.000     
 20
55.245    
 11
124.460   
 21
55.245    
  0
TEXT
  8
14
 7
SIMPLEX
 10
1.778     
 20
55.880    
 40
    2.540
  1
WB3
 50
    0.000
  0
TEXT
  8
14
 7
SIMPLEX
 10
30.607    
 20
55.880    
 40
    2.540
  1
  1
 50
    0.000
  0
TEXT
  8
14
 7
SIMPLEX
 10
42.418    
 20
55.880    
 40
    2.540
  1
4    x 450 x 6000
 50
    0.000
  0
TEXT
  8
14
 7
SIMPLEX
 10
121.920   
 20
55.880    
 40
    2.540
 72
  2
 11
121.920   
 21
55.880    
  1
   76.2
 50
    0.000
  0
LINE
  8
14
 10
0.000     
 20
51.435    
 11
124.460   
 21
51.435    
  0
TEXT
  8
14
 7
SIMPLEX
 10
1.778     
 20
52.070    
 40
    2.540
  1
OF4
 50
    0.000
  0
TEXT
  8
14
 7
SIMPLEX
 10
30.607    
 20
52.070    
 40
    2.540
  1
  1
 50
    0.000
  0
TEXT
  8
14
 7
SIMPLEX
 10
42.418    
 20
52.070    
 40
    2.540
  1
5    x 125 x 6000
 50
    0.000
  0
TEXT
  8
14
 7
SIMPLEX
 10
121.920   
 20
52.070    
 40
    2.540
 72
  2
 11
121.920   
 21
52.070    
  1
   30.0
 50
    0.000
  0
LINE
  8
14
 10
0.000     
 20
47.625    
 11
124.460   
 21
47.625    
  0
TEXT
  8
14
 7
SIMPLEX
 10
1.778     
 20
48.260    
 40
    2.540
  1
IF3
 50
    0.000
  0
TEXT
  8
14
 7
SIMPLEX
 10
30.607    
 20
48.260    
 40
    2.540
  1
  1
 50
    0.000
  0
TEXT
  8
14
 7
SIMPLEX
 10
42.418    
 20
48.260    
 40
    2.540
  1
5    x 125 x 5887
 50
    0.000
  0
TEXT
  8
14
 7
SIMPLEX
 10
121.920   
 20
48.260    
 40
    2.540
 72
  2
 11
121.920   
 21
48.260    
  1
   29.4
 50
    0.000
  0
LINE
  8
14
 10
0.000     
 20
43.815    
 11
124.460   
 21
43.815    
  0
TEXT
  8
14
 7
SIMPLEX
 10
1.778     
 20
44.450    
 40
    2.540
  1
EP4
 50
    0.000
  0
TEXT
  8
14
 7
SIMPLEX
 10
30.607    
 20
44.450    
 40
    2.540
  1
  1
 50
    0.000
  0
TEXT
  8
14
 7
SIMPLEX
 10
42.418    
 20
44.450    
 40
    2.540
  1
16   x 200 x 664
 50
    0.000
  0
TEXT
  8
14
 7
SIMPLEX
 10
121.920   
 20
44.450    
 40
    2.540
 72
  2
 11
121.920   
 21
44.450    
  1
   17.0
 50
    0.000
  0
LINE
  8
14
 10
0.000     
 20
40.005    
 11
124.460   
 21
40.005    
  0
TEXT
  8
14
 7
SIMPLEX
 10
1.778     
 20
40.640    
 40
    2.540
  1
EP3
 50
    0.000
  0
TEXT
  8
14
 7
SIMPLEX
 10
30.607    
 20
40.640    
 40
    2.540
  1
  1
 50
    0.000
  0
TEXT
  8
14
 7
SIMPLEX
 10
42.418    
 20
40.640    
 40
    2.540
  1
16   x 200 x 550
 50
    0.000
  0
TEXT
  8
14
 7
SIMPLEX
 10
121.920   
 20
40.640    
 40
    2.540
 72
  2
 11
121.920   
 21
40.640    
  1
   14.1
 50
    0.000
  0
LINE
  8
14
 10
0.000     
 20
36.195    
 11
124.460   
 21
36.195    
  0
TEXT
  8
14
 7
SIMPLEX
 10
1.778     
 20
36.830    
 40
    2.540
  1
SS4
 50
    0.000
  0
TEXT
  8
14
 7
SIMPLEX
 10
30.607    
 20
36.830    
 40
    2.540
  1
  1
 50
    0.000
  0
TEXT
  8
14
 7
SIMPLEX
 10
42.418    
 20
36.830    
 40
    2.540
  1
5    x 120 x 129
 50
    0.000
  0
TEXT
  8
14
 7
SIMPLEX
 10
121.920   
 20
36.830    
 40
    2.540
 72
  2
 11
121.920   
 21
36.830    
  1
    0.6
 50
    0.000
  0
LINE
  8
14
 10
0.000     
 20
32.385    
 11
124.460   
 21
32.385    
  0
TEXT
  8
14
 7
SIMPLEX
 10
1.778     
 20
33.020    
 40
    2.540
  1
SS5
 50
    0.000
  0
TEXT
  8
14
 7
SIMPLEX
 10
30.607    
 20
33.020    
 40
    2.540
  1
  1
 50
    0.000
  0
TEXT
  8
14
 7
SIMPLEX
 10
42.418    
 20
33.020    
 40
    2.540
  1
5    x 120 x 91
 50
    0.000
  0
TEXT
  8
14
 7
SIMPLEX
 10
121.920   
 20
33.020    
 40
    2.540
 72
  2
 11
121.920   
 21
33.020    
  1
    0.4
 50
    0.000
  0
LINE
  8
14
 10
0.000     
 20
28.575    
 11
124.460   
 21
28.575    
  0
TEXT
  8
14
 7
SIMPLEX
 10
1.778     
 20
29.210    
 40
    2.540
  1
SS1
 50
    0.000
  0
TEXT
  8
14
 7
SIMPLEX
 10
30.607    
 20
29.210    
 40
    2.540
  1
  1
 50
    0.000
  0
TEXT
  8
14
 7
SIMPLEX
 10
42.418    
 20
29.210    
 40
    2.540
  1
5    x 120 x 95
 50
    0.000
  0
TEXT
  8
14
 7
SIMPLEX
 10
121.920   
 20
29.210    
 40
    2.540
 72
  2
 11
121.920   
 21
29.210    
  1
    0.5
 50
    0.000
  0
LINE
  8
14
 10
0.000     
 20
24.765    
 11
124.460   
 21
24.765    
  0
TEXT
  8
14
 7
SIMPLEX
 10
1.778     
 20
25.400    
 40
    2.540
  1
SS6
 50
    0.000
  0
TEXT
  8
14
 7
SIMPLEX
 10
30.607    
 20
25.400    
 40
    2.540
  1
  1
 50
    0.000
  0
TEXT
  8
14
 7
SIMPLEX
 10
42.418    
 20
25.400    
 40
    2.540
  1
5    x 120 x 95
 50
    0.000
  0
TEXT
  8
14
 7
SIMPLEX
 10
121.920   
 20
25.400    
 40
    2.540
 72
  2
 11
121.920   
 21
25.400    
  1
    0.4
 50
    0.000
  0
LINE
  8
14
 10
0.000     
 20
20.955    
 11
124.460   
 21
20.955    
  0
TEXT
  8
14
 7
SIMPLEX
 10
1.778     
 20
21.590    
 40
    2.540
  1
CLF1
 50
    0.000
  0
TEXT
  8
14
 7
SIMPLEX
 10
30.607    
 20
21.590    
 40
    2.540
  1
  4
 50
    0.000
  0
TEXT
  8
14
 7
SIMPLEX
 10
42.418    
 20
21.590    
 40
    2.540
  1
5    x 75  x 75
 50
    0.000
  0
TEXT
  8
14
 7
SIMPLEX
 10
121.920   
 20
21.590    
 40
    2.540
 72
  2
 11
121.920   
 21
21.590    
  1
    0.9
 50
    0.000
  0
LINE
  8
14
 10
0.000     
 20
17.145    
 11
124.460   
 21
17.145    
  0
TEXT
  8
14
 7
SIMPLEX
 10
1.778     
 20
17.780    
 40
    2.540
  1
CLF3
 50
    0.000
  0
TEXT
  8
14
 7
SIMPLEX
 10
30.607    
 20
17.780    
 40
    2.540
  1
  4
 50
    0.000
  0
TEXT
  8
14
 7
SIMPLEX
 10
42.418    
 20
17.780    
 40
    2.540
  1
5    x 150 x 175
 50
    0.000
  0
TEXT
  8
14
 7
SIMPLEX
 10
121.920   
 20
17.780    
 40
    2.540
 72
  2
 11
121.920   
 21
17.780    
  1
    4.2
 50
    0.000
  0
LINE
  8
14
 10
0.000     
 20
13.335    
 11
124.460   
 21
13.335    
  0
TEXT
  8
14
 7
SIMPLEX
 10
1.778     
 20
13.970    
 40
    2.540
  1
CLF4
 50
    0.000
  0
TEXT
  8
14
 7
SIMPLEX
 10
30.607    
 20
13.970    
 40
    2.540
  1
  1
 50
    0.000
  0
TEXT
  8
14
 7
SIMPLEX
 10
42.418    
 20
13.970    
 40
    2.540
  1
10   x 150 x 211
 50
    0.000
  0
TEXT
  8
14
 7
SIMPLEX
 10
121.920   
 20
13.970    
 40
    2.540
 72
  2
 11
121.920   
 21
13.970    
  1
    2.5
 50
    0.000
  0
LINE
  8
14
 10
0.000     
 20
9.525     
 11
124.460   
 21
9.525     
  0
LINE
  8
14
 10
0.000     
 20
5.715     
 11
124.460   
 21
5.715     
  0
TEXT
  8
14
 7
SIMPLEX
 10
42.418    
 20
1.524     
 40
    2.540
  1
Weight Sum
 50
    0.000
  0
TEXT
  8
14
 7
SIMPLEX
 10
121.920   
 20
1.524     
 40
    2.540
 72
  2
 11
121.920   
 21
1.524     
  1
  176.3
 50
    0.000
  0
ENDBLK
  8
0
  0
BLOCK
  8
2
  2
ASMTITLE
 70
     0
 10
0.000     
 20
0.000     
  0
LINE
  8
0
 10
0.000     
 20
10.160    
 11
91.440    
 21
10.160    
  0
LINE
  8
0
 10
0.000     
 20
20.320    
 11
91.440    
 21
20.320    
  0
LINE
  8
0
 10
0.000     
 20
30.480    
 11
91.440    
 21
30.480    
  0
LINE
  8
0
 10
91.440    
 20
0.000     
 11
91.440    
 21
30.480    
  0
LINE
  8
0
 10
0.000     
 20
30.480    
 11
0.000     
 21
0.000     
  0
LINE
  8
0
 10
30.480    
 20
20.320    
 11
30.480    
 21
0.000     
  0
LINE
  8
0
 10
60.960    
 20
20.320    
 11
60.960    
 21
0.000     
  0
LINE
  8
0
 10
0.000     
 20
0.000     
 11
91.440    
 21
0.000     
  0
TEXT
  8
0
 7
SIMPLEX
 10
7.620     
 20
17.780    
 40
    1.143
  1
JOB
 50
    0.000
  0
TEXT
  8
0
 7
SIMPLEX
 10
7.620     
 20
7.620     
 40
    1.143
  1
QUANTITY
 50
    0.000
  0
TEXT
  8
0
 7
SIMPLEX
 10
38.100    
 20
27.940    
 40
    1.143
  1
CUSTOMER
 50
    0.000
  0
TEXT
  8
0
 7
SIMPLEX
 10
38.100    
 20
17.780    
 40
    1.143
  1
CHECKED BY
 50
    0.000
  0
TEXT
  8
0
 7
SIMPLEX
 10
38.100    
 20
7.620     
 40
    1.143
  1
PART
 50
    0.000
  0
TEXT
  8
0
 7
SIMPLEX
 10
68.580    
 20
17.780    
 40
    1.143
  1
DATE
 50
    0.000
  0
TEXT
  8
0
 7
SIMPLEX
 10
68.580    
 20
7.620     
 40
    1.143
  1
DRAWING
 50
    0.000
  0
TEXT
  8
0
 7
SIMPLEX
 10
46.457    
 20
22.860    
 40
    3.607
  1
 
 50
    0.000
  0
TEXT
  8
0
 7
SIMPLEX
 10
2.540     
 20
12.700    
 40
    3.607
  1
Q-1467
 50
    0.000
  0
TEXT
  8
0
 7
SIMPLEX
 10
2.540     
 20
2.540     
 40
    3.607
  1
  4
 50
    0.000
  0
TEXT
  8
0
 7
SIMPLEX
 10
33.020    
 20
2.540     
 40
    3.607
  1
RF1-3
 50
    0.000
  0
TEXT
  8
0
 7
SIMPLEX
 10
62.230    
 20
12.700    
 40
    3.607
  1
15/DEC/2025
 50
    0.000
  0
TEXT
  8
0
 7
SIMPLEX
 10
62.230    
 20
2.540     
 40
    3.607
  1
RF1-3
 50
    0.000
  0
ENDBLK
  8
2
  0
BLOCK
  8
2
  2
ASMSECTN
 70
     0
 10
0.000     
 20
0.000     
  0
LINE
  8
1
 10
-6.350    
 20
0.000     
 11
6.350     
 21
0.000     
  0
LINE
  8
1
 10
-6.350    
 20
0.000     
 11
-6.350    
 21
1.270     
  0
LINE
  8
1
 10
6.350     
 20
0.000     
 11
6.350     
 21
1.270     
  0
LINE
  8
1
 10
-6.350    
 20
1.270     
 11
6.350     
 21
1.270     
  0
LINE
  8
1
 10
-6.350    
 20
27.940    
 11
6.350     
 21
27.940    
  0
LINE
  8
1
 10
-6.350    
 20
27.940    
 11
-6.350    
 21
26.670    
  0
LINE
  8
1
 10
6.350     
 20
27.940    
 11
6.350     
 21
26.670    
  0
LINE
  8
1
 10
-6.350    
 20
26.670    
 11
6.350     
 21
26.670    
  0
LINE
  8
1
 10
-0.508    
 20
1.270     
 11
-0.508    
 21
26.670    
  0
LINE
  8
1
 10
0.508     
 20
1.270     
 11
0.508     
 21
26.670    
  0
TEXT
  8
3
 7
SIMPLEX
 10
-24.841   
 20
6.858     
 40
    2.845
  1
NS
 50
    0.000
  0
TEXT
  8
3
 7
SIMPLEX
 10
21.996    
 20
6.858     
 40
    2.845
  1
FS
 50
    0.000
  0
LINE
  8
13
 10
0.762     
 20
6.604     
 11
5.842     
 21
6.604     
  0
LINE
  8
13
 10
5.842     
 20
6.604     
 11
5.842     
 21
1.524     
  0
LINE
  8
13
 10
5.842     
 20
1.524     
 11
1.524     
 21
1.524     
  0
LINE
  8
13
 10
0.762     
 20
2.286     
 11
0.762     
 21
6.604     
  0
LINE
  8
13
 10
0.762     
 20
2.286     
 11
1.524     
 21
1.524     
  0
LINE
  8
13
 10
-0.762    
 20
6.604     
 11
-5.842    
 21
6.604     
  0
LINE
  8
13
 10
-5.842    
 20
6.604     
 11
-5.842    
 21
1.524     
  0
LINE
  8
13
 10
-5.842    
 20
1.524     
 11
-1.524    
 21
1.524     
  0
LINE
  8
13
 10
-0.762    
 20
2.286     
 11
-0.762    
 21
6.604     
  0
LINE
  8
13
 10
-0.762    
 20
2.286     
 11
-1.524    
 21
1.524     
  0
INSERT
  8
1
  2
CIRCLE
 10
3.302     
 20
4.064     
 41
   0.060
 42
   0.060
 43
   0.060
 50
   0.000
  0
INSERT
  8
1
  2
CIRCLE
 10
-3.302    
 20
4.064     
 41
   0.060
 42
   0.060
 43
   0.060
 50
   0.000
  0
LINE
  8
3
 10
-7.112    
 20
4.064     
 11
-12.192   
 21
4.064     
  0
LINE
  8
3
 10
-7.112    
 20
1.524     
 11
-12.192   
 21
1.524     
  0
LINE
  8
3
 10
-10.922   
 20
1.524     
 11
-10.922   
 21
4.064     
  0
INSERT
  8
1
  2
ARROW
 10
-10.922   
 20
1.524     
 41
   1.000
 42
   1.000
 43
   1.000
 50
  90.000
  0
INSERT
  8
1
  2
ARROW
 10
-10.922   
 20
4.064     
 41
   1.000
 42
   1.000
 43
   1.000
 50
 270.000
  0
TEXT
  8
3
 7
SIMPLEX
 10
-18.068   
 20
1.964     
 40
    2.845
  1
50
 50
    0.000
  0
LINE
  8
3
 10
-3.302    
 20
7.112     
 11
-3.302    
 21
9.144     
  0
LINE
  8
3
 10
-0.508    
 20
7.874     
 11
-0.508    
 21
9.144     
  0
LINE
  8
3
 10
-3.302    
 20
7.874     
 11
-0.508    
 21
7.874     
  0
INSERT
  8
1
  2
ARROW
 10
-3.302    
 20
7.874     
 41
   1.000
 42
   1.000
 43
   1.000
 50
   0.000
  0
INSERT
  8
1
  2
ARROW
 10
-0.508    
 20
7.874     
 41
   1.000
 42
   1.000
 43
   1.000
 50
 180.000
  0
TEXT
  8
3
 7
SIMPLEX
 10
-9.940    
 20
8.568     
 40
    2.845
  1
50
 50
    0.000
  0
LINE
  8
3
 10
7.112     
 20
3.810     
 11
17.272    
 21
3.810     
  0
INSERT
  8
3
  2
ARROWP
 10
7.112     
 20
3.810     
 41
   1.000
 42
   1.000
 43
   1.000
 50
 180.000
  0
TEXT
  8
1
 7
SIMPLEX
 10
10.160    
 20
4.572     
 40
    2.845
  1
CLF1
 50
    0.000
  0
TEXT
  8
21
 7
SIMPLEX
 10
9.550     
 20
-0.457    
 40
    2.845
  1
D=14
 50
    0.000
  0
LINE
  8
13
 10
-5.080    
 20
28.194    
 11
5.080     
 21
28.194    
  0
LINE
  8
13
 10
5.080     
 20
28.194    
 11
5.080     
 21
43.434    
  0
LINE
  8
13
 10
5.080     
 20
43.434    
 11
-5.080    
 21
43.434    
  0
LINE
  8
13
 10
-5.080    
 20
43.434    
 11
-5.080    
 21
28.194    
  0
INSERT
  8
1
  2
CIRCLE
 10
-2.540    
 20
33.274    
 41
   0.060
 42
   0.060
 43
   0.060
 50
   0.000
  0
INSERT
  8
1
  2
CIRCLE
 10
2.540     
 20
33.274    
 41
   0.060
 42
   0.060
 43
   0.060
 50
   0.000
  0
INSERT
  8
1
  2
CIRCLE
 10
-2.540    
 20
40.894    
 41
   0.060
 42
   0.060
 43
   0.060
 50
   0.000
  0
INSERT
  8
1
  2
CIRCLE
 10
2.540     
 20
40.894    
 41
   0.060
 42
   0.060
 43
   0.060
 50
   0.000
  0
LINE
  8
3
 10
-2.540    
 20
44.704    
 11
-2.540    
 21
47.244    
  0
LINE
  8
3
 10
2.540     
 20
44.704    
 11
2.540     
 21
47.244    
  0
LINE
  8
3
 10
-2.540    
 20
45.974    
 11
2.540     
 21
45.974    
  0
INSERT
  8
1
  2
ARROW
 10
-2.540    
 20
45.974    
 41
   1.000
 42
   1.000
 43
   1.000
 50
 180.000
  0
INSERT
  8
1
  2
ARROW
 10
2.540     
 20
45.974    
 41
   1.000
 42
   1.000
 43
   1.000
 50
   0.000
  0
TEXT
  8
3
 7
SIMPLEX
 10
-1.592    
 20
46.922    
 40
    2.845
  1
100
 50
    0.000
  0
LINE
  8
3
 10
7.620     
 20
27.940    
 11
12.700    
 21
27.940    
  0
LINE
  8
3
 10
6.350     
 20
33.274    
 11
12.700    
 21
33.274    
  0
LINE
  8
3
 10
11.430    
 20
27.940    
 11
11.430    
 21
40.894    
  0
LINE
  8
3
 10
6.350     
 20
40.894    
 11
12.700    
 21
40.894    
  0
INSERT
  8
1
  2
ARROW
 10
11.430    
 20
40.894    
 41
   1.000
 42
   1.000
 43
   1.000
 50
  90.000
  0
INSERT
  8
1
  2
ARROW
 10
11.430    
 20
33.274    
 41
   1.000
 42
   1.000
 43
   1.000
 50
 270.000
  0
INSERT
  8
1
  2
ARROW
 10
11.430    
 20
33.274    
 41
   1.000
 42
   1.000
 43
   1.000
 50
  90.000
  0
INSERT
  8
1
  2
ARROW
 10
11.430    
 20
27.940    
 41
   1.000
 42
   1.000
 43
   1.000
 50
 270.000
  0
TEXT
  8
3
 7
SIMPLEX
 10
12.378    
 20
30.158    
 40
    2.845
  1
50
 50
    0.000
  0
TEXT
  8
3
 7
SIMPLEX
 10
12.378    
 20
36.508    
 40
    2.845
  1
100
 50
    0.000
  0
LINE
  8
3
 10
-6.350    
 20
38.100    
 11
-16.510   
 21
38.100    
  0
INSERT
  8
3
  2
ARROWP
 10
-6.350    
 20
38.100    
 41
   1.000
 42
   1.000
 43
   1.000
 50
   0.000
  0
TEXT
  8
1
 7
SIMPLEX
 10
-17.780   
 20
38.862    
 40
    2.845
  1
CLF3
 50
    0.000
  0
TEXT
  8
21
 7
SIMPLEX
 10
-23.571   
 20
33.833    
 40
    2.845
  1
D=14
 50
    0.000
  0
LINE
  8
13
 10
-5.080    
 20
-0.254    
 11
5.080     
 21
-0.254    
  0
LINE
  8
13
 10
5.080     
 20
-0.254    
 11
5.080     
 21
-7.874    
  0
LINE
  8
13
 10
5.080     
 20
-7.874    
 11
-5.080    
 21
-7.874    
  0
LINE
  8
13
 10
-5.080    
 20
-7.874    
 11
-5.080    
 21
-0.254    
  0
INSERT
  8
1
  2
SLOTTD
 10
-2.540    
 20
-5.334    
 41
   0.060
 42
   0.060
 43
   0.060
 50
  90.000
  0
INSERT
  8
1
  2
SLOTTD
 10
2.540     
 20
-5.334    
 41
   0.060
 42
   0.060
 43
   0.060
 50
  90.000
  0
LINE
  8
3
 10
-2.540    
 20
-9.144    
 11
-2.540    
 21
-14.224   
  0
LINE
  8
3
 10
2.540     
 20
-9.144    
 11
2.540     
 21
-14.224   
  0
LINE
  8
3
 10
-2.540    
 20
-12.954   
 11
2.540     
 21
-12.954   
  0
INSERT
  8
1
  2
ARROW
 10
-2.540    
 20
-12.954   
 41
   1.000
 42
   1.000
 43
   1.000
 50
 180.000
  0
INSERT
  8
1
  2
ARROW
 10
2.540     
 20
-12.954   
 41
   1.000
 42
   1.000
 43
   1.000
 50
   0.000
  0
TEXT
  8
3
 7
SIMPLEX
 10
3.488     
 20
-12.006   
 40
    2.845
  1
100
 50
    0.000
  0
LINE
  8
3
 10
7.620     
 20
0.000     
 11
12.700    
 21
0.000     
  0
LINE
  8
3
 10
7.620     
 20
-5.334    
 11
12.700    
 21
-5.334    
  0
LINE
  8
3
 10
11.430    
 20
0.000     
 11
11.430    
 21
-5.334    
  0
INSERT
  8
1
  2
ARROW
 10
11.430    
 20
-5.334    
 41
   1.000
 42
   1.000
 43
   1.000
 50
 270.000
  0
INSERT
  8
1
  2
ARROW
 10
11.430    
 20
0.000     
 41
   1.000
 42
   1.000
 43
   1.000
 50
  90.000
  0
TEXT
  8
3
 7
SIMPLEX
 10
12.378    
 20
-4.386    
 40
    2.845
  1
145
 50
    0.000
  0
LINE
  8
3
 10
-6.350    
 20
-7.620    
 11
-16.510   
 21
-7.620    
  0
INSERT
  8
3
  2
ARROWP
 10
-6.350    
 20
-7.620    
 41
   1.000
 42
   1.000
 43
   1.000
 50
   0.000
  0
TEXT
  8
1
 7
SIMPLEX
 10
-17.780   
 20
-6.858    
 40
    2.845
  1
CLF4
 50
    0.000
  0
TEXT
  8
1
 7
SIMPLEX
 10
-17.780   
 20
-13.310   
 40
    2.845
  1
Slot:S2
 50
    0.000
  0
INSERT
  8
4
  2
ARROWP
 10
9.195     
 20
-1.422    
 41
   1.500
 42
   1.500
 43
   1.500
 50
 135.000
  0
LINE
  8
4
 10
9.195     
 20
-1.422    
 11
14.315    
 21
-6.543    
  0
LINE
  8
4
 10
14.315    
 20
-6.543    
 11
33.091    
 21
-6.543    
  0
TEXT
  8
5
 7
SIMPLEX
 10
17.160    
 20
-5.595    
 40
    2.845
  1
4
 50
    0.000
  0
LINE
  8
4
 10
33.091    
 20
-6.543    
 11
33.945    
 21
-6.543    
  0
LINE
  8
4
 10
33.945    
 20
-6.543    
 11
37.358    
 21
-4.552    
  0
LINE
  8
4
 10
33.945    
 20
-6.543    
 11
37.358    
 21
-8.534    
  0
TEXT
  8
4
 7
SIMPLEX
 10
36.647    
 20
-7.965    
 40
    2.845
  1
Clips
 50
    0.000
  0
LINE
  8
4
 10
29.535    
 20
-3.698    
 11
32.380    
 21
-6.543    
  0
LINE
  8
4
 10
29.535    
 20
-6.543    
 11
29.535    
 21
-3.698    
  0
ENDBLK
  8
2
  0
BLOCK
  8
2
  2
ASMBOLT
 70
     0
 10
0.000     
 20
0.000     
  0
TEXT
  8
21
 7
SIMPLEX
 10
0.000     
 20
3.810     
 40
    2.540
  1
D=DIAMETER
 50
    0.000
  0
TEXT
  8
21
 7
SIMPLEX
 10
0.000     
 20
0.000     
 40
    2.540
  1
G=GAGE
 50
    0.000
  0
ENDBLK
  8
2
  0
BLOCK
  8
2
  2
ASMVIEW
 70
     0
 10
0.000     
 20
0.000     
  0
LINE
  8
21
 10
0.000     
 20
0.000     
 11
20.320    
 21
0.000     
  0
INSERT
  8
21
  2
ARROWP
 10
0.000     
 20
0.000     
 41
   1.000
 42
   1.000
 43
   1.000
 50
 180.000
  0
TEXT
  8
21
 7
SIMPLEX
 10
0.000     
 20
0.635     
 40
    2.540
  1
View for
 50
    0.000
  0
TEXT
  8
21
 7
SIMPLEX
 10
0.000     
 20
-3.175    
 40
    2.540
  1
Section
 50
    0.000
  0
ENDBLK
  8
2
  0
BLOCK
  8
0
  2
ASMSLOT
 70
     0
 10
0.000     
 20
0.000     
  0
LINE
  8
0
 10
0.000     
 20
0.000     
 11
38.100    
 21
0.000     
  0
LINE
  8
0
 10
38.100    
 20
0.000     
 11
38.100    
 21
19.050    
  0
LINE
  8
0
 10
38.100    
 20
19.050    
 11
0.000     
 21
19.050    
  0
LINE
  8
0
 10
0.000     
 20
19.050    
 11
0.000     
 21
0.000     
  0
LINE
  8
0
 10
0.000     
 20
13.970    
 11
38.100    
 21
13.970    
  0
LINE
  8
0
 10
0.000     
 20
8.890     
 11
38.100    
 21
8.890     
  0
LINE
  8
0
 10
6.985     
 20
0.000     
 11
6.985     
 21
13.970    
  0
LINE
  8
0
 10
38.100    
 20
0.000     
 11
38.100    
 21
13.970    
  0
TEXT
  8
0
 7
SIMPLEX
 10
0.635     
 20
15.240    
 40
    2.540
  1
SLOT TABLE
 50
    0.000
  0
TEXT
  8
0
 7
SIMPLEX
 10
0.635     
 20
10.160    
 40
    2.540
  1
ID
 50
    0.000
  0
TEXT
  8
0
 7
SIMPLEX
 10
7.620     
 20
10.160    
 40
    2.540
  1
SIZE
 50
    0.000
  0
TEXT
  8
0
 7
SIMPLEX
 10
0.635     
 20
5.080     
 40
    2.540
  1
S1
 50
    0.000
  0
TEXT
  8
0
 7
SIMPLEX
 10
7.620     
 20
5.080     
 40
    2.540
  1
24x50
 50
    0.000
  0
TEXT
  8
0
 7
SIMPLEX
 10
0.635     
 20
1.270     
 40
    2.540
  1
S2
 50
    0.000
  0
TEXT
  8
0
 7
SIMPLEX
 10
7.620     
 20
1.270     
 40
    2.540
  1
18x100
 50
    0.000
  0
ENDBLK
  8
0
  0
BLOCK
  8
0
  2
ASM_WELD
 70
     0
 10
0.000     
 20
83.820    
  0
LINE
  8
20
 10
0.000     
 20
83.820    
 11
77.978    
 21
83.820    
  0
LINE
  8
20
 10
0.000     
 20
0.000     
 11
77.978    
 21
0.000     
  0
LINE
  8
20
 10
77.978    
 20
0.000     
 11
77.978    
 21
83.820    
  0
LINE
  8
20
 10
0.000     
 20
0.000     
 11
0.000     
 21
83.820    
  0
TEXT
  8
14
 7
SIMPLEX
 10
0.762     
 20
80.645    
 40
    2.540
  1
WELD TABLE
 50
    0.000
  0
LINE
  8
20
 10
0.000     
 20
80.010    
 11
77.978    
 21
80.010    
  0
LINE
  8
20
 10
22.098    
 20
0.000     
 11
22.098    
 21
80.010    
  0
LINE
  8
20
 10
37.338    
 20
0.000     
 11
37.338    
 21
80.010    
  0
LINE
  8
20
 10
52.578    
 20
0.000     
 11
52.578    
 21
80.010    
  0
LINE
  8
20
 10
67.818    
 20
0.000     
 11
67.818    
 21
80.010    
  0
TEXT
  8
14
 7
SIMPLEX
 10
0.762     
 20
76.835    
 40
    2.540
  1
Plate1
 50
    0.000
  0
TEXT
  8
14
 7
SIMPLEX
 10
22.606    
 20
76.835    
 40
    2.540
  1
Plate2
 50
    0.000
  0
TEXT
  8
14
 7
SIMPLEX
 10
37.846    
 20
76.835    
 40
    2.540
  1
Type
 50
    0.000
  0
TEXT
  8
14
 7
SIMPLEX
 10
53.086    
 20
76.835    
 40
    2.540
  1
Size
 50
    0.000
  0
TEXT
  8
14
 7
SIMPLEX
 10
68.326    
 20
76.835    
 40
    2.540
  1
Side
 50
    0.000
  0
LINE
  8
20
 10
0.000     
 20
76.200    
 11
77.978    
 21
76.200    
  0
TEXT
  8
14
 7
SIMPLEX
 10
0.762     
 20
73.025    
 40
    2.540
  1
WB3
 50
    0.000
  0
TEXT
  8
14
 7
SIMPLEX
 10
23.622    
 20
73.025    
 40
    2.540
  1
OF
 50
    0.000
  0
TEXT
  8
14
 7
SIMPLEX
 10
38.354    
 20
73.025    
 40
    2.540
  1
Fillet
 50
    0.000
  0
TEXT
  8
14
 7
SIMPLEX
 10
53.086    
 20
73.025    
 40
    2.540
  1
4
 50
    0.000
  0
TEXT
  8
14
 7
SIMPLEX
 10
69.342    
 20
73.025    
 40
    2.540
  1
  1
 50
    0.000
  0
TEXT
  8
14
 7
SIMPLEX
 10
0.762     
 20
69.215    
 40
    2.540
  1
WB3
 50
    0.000
  0
TEXT
  8
14
 7
SIMPLEX
 10
23.622    
 20
69.215    
 40
    2.540
  1
IF
 50
    0.000
  0
TEXT
  8
14
 7
SIMPLEX
 10
38.354    
 20
69.215    
 40
    2.540
  1
Fillet
 50
    0.000
  0
TEXT
  8
14
 7
SIMPLEX
 10
53.086    
 20
69.215    
 40
    2.540
  1
4
 50
    0.000
  0
TEXT
  8
14
 7
SIMPLEX
 10
69.342    
 20
69.215    
 40
    2.540
  1
  1
 50
    0.000
  0
TEXT
  8
14
 7
SIMPLEX
 10
0.762     
 20
65.405    
 40
    2.540
  1
EP4
 50
    0.000
  0
TEXT
  8
14
 7
SIMPLEX
 10
23.622    
 20
65.405    
 40
    2.540
  1
OF
 50
    0.000
  0
TEXT
  8
14
 7
SIMPLEX
 10
38.354    
 20
65.405    
 40
    2.540
  1
Fillet
 50
    0.000
  0
TEXT
  8
14
 7
SIMPLEX
 10
53.086    
 20
65.405    
 40
    2.540
  1
4
 50
    0.000
  0
TEXT
  8
14
 7
SIMPLEX
 10
69.342    
 20
65.405    
 40
    2.540
  1
  2
 50
    0.000
  0
TEXT
  8
14
 7
SIMPLEX
 10
0.762     
 20
61.595    
 40
    2.540
  1
EP4
 50
    0.000
  0
TEXT
  8
14
 7
SIMPLEX
 10
23.622    
 20
61.595    
 40
    2.540
  1
IF
 50
    0.000
  0
TEXT
  8
14
 7
SIMPLEX
 10
38.354    
 20
61.595    
 40
    2.540
  1
Fillet
 50
    0.000
  0
TEXT
  8
14
 7
SIMPLEX
 10
53.086    
 20
61.595    
 40
    2.540
  1
4
 50
    0.000
  0
TEXT
  8
14
 7
SIMPLEX
 10
69.342    
 20
61.595    
 40
    2.540
  1
  2
 50
    0.000
  0
TEXT
  8
14
 7
SIMPLEX
 10
0.762     
 20
57.785    
 40
    2.540
  1
EP4
 50
    0.000
  0
TEXT
  8
14
 7
SIMPLEX
 10
23.622    
 20
57.785    
 40
    2.540
  1
WB
 50
    0.000
  0
TEXT
  8
14
 7
SIMPLEX
 10
38.354    
 20
57.785    
 40
    2.540
  1
Fillet
 50
    0.000
  0
TEXT
  8
14
 7
SIMPLEX
 10
53.086    
 20
57.785    
 40
    2.540
  1
4
 50
    0.000
  0
TEXT
  8
14
 7
SIMPLEX
 10
69.342    
 20
57.785    
 40
    2.540
  1
  2
 50
    0.000
  0
TEXT
  8
14
 7
SIMPLEX
 10
0.762     
 20
53.975    
 40
    2.540
  1
EP3
 50
    0.000
  0
TEXT
  8
14
 7
SIMPLEX
 10
23.622    
 20
53.975    
 40
    2.540
  1
OF
 50
    0.000
  0
TEXT
  8
14
 7
SIMPLEX
 10
38.354    
 20
53.975    
 40
    2.540
  1
Fillet
 50
    0.000
  0
TEXT
  8
14
 7
SIMPLEX
 10
53.086    
 20
53.975    
 40
    2.540
  1
4
 50
    0.000
  0
TEXT
  8
14
 7
SIMPLEX
 10
69.342    
 20
53.975    
 40
    2.540
  1
  2
 50
    0.000
  0
TEXT
  8
14
 7
SIMPLEX
 10
0.762     
 20
50.165    
 40
    2.540
  1
EP3
 50
    0.000
  0
TEXT
  8
14
 7
SIMPLEX
 10
23.622    
 20
50.165    
 40
    2.540
  1
IF
 50
    0.000
  0
TEXT
  8
14
 7
SIMPLEX
 10
38.354    
 20
50.165    
 40
    2.540
  1
Fillet
 50
    0.000
  0
TEXT
  8
14
 7
SIMPLEX
 10
53.086    
 20
50.165    
 40
    2.540
  1
4
 50
    0.000
  0
TEXT
  8
14
 7
SIMPLEX
 10
69.342    
 20
50.165    
 40
    2.540
  1
  2
 50
    0.000
  0
TEXT
  8
14
 7
SIMPLEX
 10
0.762     
 20
46.355    
 40
    2.540
  1
EP3
 50
    0.000
  0
TEXT
  8
14
 7
SIMPLEX
 10
23.622    
 20
46.355    
 40
    2.540
  1
WB
 50
    0.000
  0
TEXT
  8
14
 7
SIMPLEX
 10
38.354    
 20
46.355    
 40
    2.540
  1
Fillet
 50
    0.000
  0
TEXT
  8
14
 7
SIMPLEX
 10
53.086    
 20
46.355    
 40
    2.540
  1
4
 50
    0.000
  0
TEXT
  8
14
 7
SIMPLEX
 10
69.342    
 20
46.355    
 40
    2.540
  1
  2
 50
    0.000
  0
TEXT
  8
14
 7
SIMPLEX
 10
0.762     
 20
42.545    
 40
    2.540
  1
CLF1
 50
    0.000
  0
TEXT
  8
14
 7
SIMPLEX
 10
23.622    
 20
42.545    
 40
    2.540
  1
WB
 50
    0.000
  0
TEXT
  8
14
 7
SIMPLEX
 10
38.354    
 20
42.545    
 40
    2.540
  1
Fillet
 50
    0.000
  0
TEXT
  8
14
 7
SIMPLEX
 10
53.086    
 20
42.545    
 40
    2.540
  1
4
 50
    0.000
  0
TEXT
  8
14
 7
SIMPLEX
 10
69.342    
 20
42.545    
 40
    2.540
  1
  1
 50
    0.000
  0
TEXT
  8
14
 7
SIMPLEX
 10
0.762     
 20
38.735    
 40
    2.540
  1
CLF1
 50
    0.000
  0
TEXT
  8
14
 7
SIMPLEX
 10
23.622    
 20
38.735    
 40
    2.540
  1
IF
 50
    0.000
  0
TEXT
  8
14
 7
SIMPLEX
 10
38.354    
 20
38.735    
 40
    2.540
  1
Fillet
 50
    0.000
  0
TEXT
  8
14
 7
SIMPLEX
 10
53.086    
 20
38.735    
 40
    2.540
  1
4
 50
    0.000
  0
TEXT
  8
14
 7
SIMPLEX
 10
69.342    
 20
38.735    
 40
    2.540
  1
  1
 50
    0.000
  0
TEXT
  8
14
 7
SIMPLEX
 10
0.762     
 20
34.925    
 40
    2.540
  1
CLF3
 50
    0.000
  0
TEXT
  8
14
 7
SIMPLEX
 10
23.622    
 20
34.925    
 40
    2.540
  1
OF
 50
    0.000
  0
TEXT
  8
14
 7
SIMPLEX
 10
38.354    
 20
34.925    
 40
    2.540
  1
Fillet
 50
    0.000
  0
TEXT
  8
14
 7
SIMPLEX
 10
53.086    
 20
34.925    
 40
    2.540
  1
4
 50
    0.000
  0
TEXT
  8
14
 7
SIMPLEX
 10
69.342    
 20
34.925    
 40
    2.540
  1
  1
 50
    0.000
  0
TEXT
  8
14
 7
SIMPLEX
 10
0.762     
 20
31.115    
 40
    2.540
  1
CLF4
 50
    0.000
  0
TEXT
  8
14
 7
SIMPLEX
 10
23.622    
 20
31.115    
 40
    2.540
  1
IF
 50
    0.000
  0
TEXT
  8
14
 7
SIMPLEX
 10
38.354    
 20
31.115    
 40
    2.540
  1
Fillet
 50
    0.000
  0
TEXT
  8
14
 7
SIMPLEX
 10
53.086    
 20
31.115    
 40
    2.540
  1
4
 50
    0.000
  0
TEXT
  8
14
 7
SIMPLEX
 10
69.342    
 20
31.115    
 40
    2.540
  1
  1
 50
    0.000
  0
TEXT
  8
14
 7
SIMPLEX
 10
0.762     
 20
27.305    
 40
    2.540
  1
SS4
 50
    0.000
  0
TEXT
  8
14
 7
SIMPLEX
 10
23.622    
 20
27.305    
 40
    2.540
  1
EP
 50
    0.000
  0
TEXT
  8
14
 7
SIMPLEX
 10
38.354    
 20
27.305    
 40
    2.540
  1
Fillet
 50
    0.000
  0
TEXT
  8
14
 7
SIMPLEX
 10
53.086    
 20
27.305    
 40
    2.540
  1
4
 50
    0.000
  0
TEXT
  8
14
 7
SIMPLEX
 10
69.342    
 20
27.305    
 40
    2.540
  1
  1
 50
    0.000
  0
TEXT
  8
14
 7
SIMPLEX
 10
0.762     
 20
23.495    
 40
    2.540
  1
SS4
 50
    0.000
  0
TEXT
  8
14
 7
SIMPLEX
 10
23.622    
 20
23.495    
 40
    2.540
  1
OF
 50
    0.000
  0
TEXT
  8
14
 7
SIMPLEX
 10
38.354    
 20
23.495    
 40
    2.540
  1
Fillet
 50
    0.000
  0
TEXT
  8
14
 7
SIMPLEX
 10
53.086    
 20
23.495    
 40
    2.540
  1
4
 50
    0.000
  0
TEXT
  8
14
 7
SIMPLEX
 10
69.342    
 20
23.495    
 40
    2.540
  1
  1
 50
    0.000
  0
TEXT
  8
14
 7
SIMPLEX
 10
0.762     
 20
19.685    
 40
    2.540
  1
SS5
 50
    0.000
  0
TEXT
  8
14
 7
SIMPLEX
 10
23.622    
 20
19.685    
 40
    2.540
  1
EP
 50
    0.000
  0
TEXT
  8
14
 7
SIMPLEX
 10
38.354    
 20
19.685    
 40
    2.540
  1
Fillet
 50
    0.000
  0
TEXT
  8
14
 7
SIMPLEX
 10
53.086    
 20
19.685    
 40
    2.540
  1
4
 50
    0.000
  0
TEXT
  8
14
 7
SIMPLEX
 10
69.342    
 20
19.685    
 40
    2.540
  1
  1
 50
    0.000
  0
TEXT
  8
14
 7
SIMPLEX
 10
0.762     
 20
15.875    
 40
    2.540
  1
SS5
 50
    0.000
  0
TEXT
  8
14
 7
SIMPLEX
 10
23.622    
 20
15.875    
 40
    2.540
  1
IF
 50
    0.000
  0
TEXT
  8
14
 7
SIMPLEX
 10
38.354    
 20
15.875    
 40
    2.540
  1
Fillet
 50
    0.000
  0
TEXT
  8
14
 7
SIMPLEX
 10
53.086    
 20
15.875    
 40
    2.540
  1
4
 50
    0.000
  0
TEXT
  8
14
 7
SIMPLEX
 10
69.342    
 20
15.875    
 40
    2.540
  1
  1
 50
    0.000
  0
TEXT
  8
14
 7
SIMPLEX
 10
0.762     
 20
12.065    
 40
    2.540
  1
SS1
 50
    0.000
  0
TEXT
  8
14
 7
SIMPLEX
 10
23.622    
 20
12.065    
 40
    2.540
  1
EP
 50
    0.000
  0
TEXT
  8
14
 7
SIMPLEX
 10
38.354    
 20
12.065    
 40
    2.540
  1
Fillet
 50
    0.000
  0
TEXT
  8
14
 7
SIMPLEX
 10
53.086    
 20
12.065    
 40
    2.540
  1
4
 50
    0.000
  0
TEXT
  8
14
 7
SIMPLEX
 10
69.342    
 20
12.065    
 40
    2.540
  1
  1
 50
    0.000
  0
TEXT
  8
14
 7
SIMPLEX
 10
0.762     
 20
8.255     
 40
    2.540
  1
SS1
 50
    0.000
  0
TEXT
  8
14
 7
SIMPLEX
 10
23.622    
 20
8.255     
 40
    2.540
  1
OF
 50
    0.000
  0
TEXT
  8
14
 7
SIMPLEX
 10
38.354    
 20
8.255     
 40
    2.540
  1
Fillet
 50
    0.000
  0
TEXT
  8
14
 7
SIMPLEX
 10
53.086    
 20
8.255     
 40
    2.540
  1
4
 50
    0.000
  0
TEXT
  8
14
 7
SIMPLEX
 10
69.342    
 20
8.255     
 40
    2.540
  1
  1
 50
    0.000
  0
TEXT
  8
14
 7
SIMPLEX
 10
0.762     
 20
4.445     
 40
    2.540
  1
SS6
 50
    0.000
  0
TEXT
  8
14
 7
SIMPLEX
 10
23.622    
 20
4.445     
 40
    2.540
  1
EP
 50
    0.000
  0
TEXT
  8
14
 7
SIMPLEX
 10
38.354    
 20
4.445     
 40
    2.540
  1
Fillet
 50
    0.000
  0
TEXT
  8
14
 7
SIMPLEX
 10
53.086    
 20
4.445     
 40
    2.540
  1
4
 50
    0.000
  0
TEXT
  8
14
 7
SIMPLEX
 10
69.342    
 20
4.445     
 40
    2.540
  1
  1
 50
    0.000
  0
TEXT
  8
14
 7
SIMPLEX
 10
0.762     
 20
0.635     
 40
    2.540
  1
SS6
 50
    0.000
  0
TEXT
  8
14
 7
SIMPLEX
 10
23.622    
 20
0.635     
 40
    2.540
  1
IF
 50
    0.000
  0
TEXT
  8
14
 7
SIMPLEX
 10
38.354    
 20
0.635     
 40
    2.540
  1
Fillet
 50
    0.000
  0
TEXT
  8
14
 7
SIMPLEX
 10
53.086    
 20
0.635     
 40
    2.540
  1
4
 50
    0.000
  0
TEXT
  8
14
 7
SIMPLEX
 10
69.342    
 20
0.635     
 40
    2.540
  1
  1
 50
    0.000
  0
ENDBLK
  8
0
  0
ENDSEC
  0
SECTION
  2
ENTITIES
  0
LINE
  8
22
 10
0.000     
 20
0.000     
 11
841.000   
 21
0.000     
  0
LINE
  8
22
 10
841.000   
 20
0.000     
 11
841.000   
 21
594.000   
  0
LINE
  8
22
 10
841.000   
 20
594.000   
 11
0.000     
 21
594.000   
  0
LINE
  8
22
 10
0.000     
 20
594.000   
 11
0.000     
 21
0.000     
  0
INSERT
  8
0
  2
ASMPIECE
 10
43.000    
 20
292.000   
 41
   0.123
 42
   0.123
 43
   0.123
 50
   0.000
  0
INSERT
  8
0
  2
ASMPLATE
 10
0.000     
 20
0.000     
 41
   1.000
 42
   1.000
 43
   1.000
 50
   0.000
  0
INSERT
  8
0
  2
ASMTITLE
 10
703.840   
 20
0.000     
 41
   1.500
 42
   1.500
 43
   1.500
 50
   0.000
  0
INSERT
  8
0
  2
ASMSECTN
 10
225.000   
 20
430.000   
 41
   1.240
 42
   1.240
 43
   1.240
 50
   0.000
  0
INSERT
  8
0
  2
ASMBOLT
 10
385.000   
 20
40.000    
 41
   0.984
 42
   0.984
 43
   0.984
 50
   0.000
  0
INSERT
  8
0
  2
ASMVIEW
 10
225.000   
 20
385.000   
 41
   0.984
 42
   0.984
 43
   0.984
 50
   0.000
  0
INSERT
  8
0
  2
ASMSLOT
 10
445.000   
 20
0.000     
 41
   0.984
 42
   0.984
 43
   0.984
 50
   0.000
  0
INSERT
  8
0
  2
ASM_WELD
 10
764.269   
 20
594.000   
 41
   0.984
 42
   0.984
 43
   0.984
 50
   0.000
  0
ENDSEC
  0
EOF
