999
SOURCE:MBS   PROGRAM:RFDWG   CELL:RFDWG   CLASS:ELEVATION   MODE:---
  0
SECTION
  2
HEADER
 9
$ACADVER
 1
AC1009
  9
$EXTMIN
 10
0.00000000
 20
0.00000000
  9
$EXTMAX
 10
28347.6328
 20
20045.8262
  9
$LIMMIN
 10
0.00000000
 20
0.00000000
  9
$LIMMAX
 10
28347.6328
 20
20045.8262
  9
$FILLMODE
 70
     1
  9
$HANDLING
 70
     0
  0
ENDSEC
  0
SECTION
  2
TABLES
  0
TABLE
  2
LTYPE
 70
 4
  0
LTYPE
  2
CONTIN
 70
   64
  3
SOLID LINE
  72
   65
 73
    0
 40
 0.000
  0
LTYPE
  2
CENTER
 70
   64
  3
____ _ ____ _ _
  72
   65
 73
    4
 40
1714.4
 49
1071.5
 49
-214.3
 49
214.29
 49
-214.3
  0
LTYPE
  2
DASHED
 70
   64
  3
__ __ __ __ __
  72
   65
 73
    2
 40
321.44
 49
214.29
 49
-107.1
  0
LTYPE
  2
CONTINUOUS
 70
   64
  3
SOLID LINE
  72
   65
 73
    0
 40
 0.000
  0
ENDTAB
  0
TABLE
  2
LAYER
 70
    30
  0
LAYER
  2
0
 70
     0
 62
     7
  6
CONTIN
  0
LAYER
  2
1
 70
     0
 62
     7
  6
CONTIN
  0
LAYER
  2
2
 70
     0
 62
     6
  6
CONTIN
  0
LAYER
  2
3
 70
     0
 62
     5
  6
CONTIN
  0
LAYER
  2
4
 70
     0
 62
     7
  6
CENTER
  0
LAYER
  2
5
 70
     0
 62
     5
  6
DASHED
  0
LAYER
  2
6
 70
     0
 62
     4
  6
CONTIN
  0
LAYER
  2
7
 70
     0
 62
     7
  6
CONTIN
  0
LAYER
  2
8
 70
     0
 62
     2
  6
DASHED
  0
LAYER
  2
9
 70
     0
 62
     7
  6
DASHED
  0
LAYER
  2
10
 70
     0
 62
     7
  6
CONTIN
  0
LAYER
  2
11
 70
     0
 62
     6
  6
CONTIN
  0
LAYER
  2
12
 70
     0
 62
     7
  6
CONTIN
  0
LAYER
  2
13
 70
     0
 62
     5
  6
CONTIN
  0
LAYER
  2
14
 70
     0
 62
     1
  6
CONTIN
  0
LAYER
  2
15
 70
     0
 62
     1
  6
CONTIN
  0
LAYER
  2
16
 70
     0
 62
     1
  6
CONTIN
  0
LAYER
  2
17
 70
     0
 62
     6
  6
CONTIN
  0
LAYER
  2
18
 70
     0
 62
     1
  6
CONTIN
  0
LAYER
  2
19
 70
     0
 62
     7
  6
CONTIN
  0
LAYER
  2
20
 70
     0
 62
     7
  6
CONTIN
  0
LAYER
  2
21
 70
     0
 62
     7
  6
CONTIN
  0
LAYER
  2
22
 70
     0
 62
     7
  6
CONTIN
  0
LAYER
  2
23
 70
     0
 62
     7
  6
DASHED
  0
LAYER
  2
24
 70
     0
 62
     7
  6
CONTIN
  0
LAYER
  2
25
 70
     0
 62
     7
  6
CONTIN
  0
LAYER
  2
26
 70
     0
 62
     7
  6
CONTIN
  0
LAYER
  2
27
 70
     0
 62
     7
  6
CENTER
  0
LAYER
  2
28
 70
     0
 62
     7
  6
CONTIN
  0
LAYER
  2
29
 70
     0
 62
     7
  6
CONTIN
  0
ENDTAB
  0
TABLE
  2
STYLE
 70
  0
  0
STYLE
  2
SIMPLEX
 70
  0
 40
  0.000
 41
  1.000
 42
  1.000
 50
  0.000
 71
  0
  3
SIMPLEX
  0
STYLE
  2
ROMANS
 70
  0
 40
  0.000
 41
  1.000
 42
  1.000
 50
  0.000
 71
  0
  3
ROMANS
  0
STYLE
  2
OPEN
 70
  0
 40
  0.000
 41
  1.000
 42
  1.000
 50
  0.000
 71
  0
  3
SIMPLEX
  0
STYLE
  2
ARIAL
 70
  0
 40
  0.000
 41
  1.000
 42
  1.000
 50
  0.000
 71
  0
  3
ARIAL.TTF
  0
STYLE
  2
VERDANAB
 70
  0
 40
  0.000
 41
  1.000
 42
  1.000
 50
  0.000
 71
  0
  3
VERDANAB.TTF
  0
ENDTAB
  0
ENDSEC
  0
SECTION
  2
BLOCKS
  0
BLOCK
  8
0
  2
ARROWPF
 70
     0
 10
0.00000000
 20
0.00000000
  0
LINE
  8
0
 10
0.00000000
 20
0.00000000
 11
-122.57650
 21
20.4294167
  0
LINE
  8
0
 10
-122.57650
 20
20.4294167
 11
-122.57650
 21
-20.429417
  0
LINE
  8
0
 10
-122.57650
 20
-20.429417
 11
0.00000000
 21
0.00000000
  0
ENDBLK
  8
0
  0
BLOCK
  8
0
  2
ARROWF
 70
     0
 10
0.00000000
 20
0.00000000
  0
LINE
  8
0
 10
0.00000000
 20
0.00000000
 11
-183.86476
 21
30.6441250
  0
LINE
  8
0
 10
-183.86476
 20
30.6441250
 11
-183.86476
 21
-30.644123
  0
LINE
  8
0
 10
-183.86476
 20
-30.644123
 11
0.00000000
 21
0.00000000
  0
ENDBLK
  8
0
  0
BLOCK
  8
0
  2
DIAMOND
 70
     0
 10
0.00000000
 20
0.00000000
  0
LINE
  8
0
 10
0.00000000
 20
0.00000000
 11
12.6999998
 21
12.6999998
  0
LINE
  8
0
 10
12.6999998
 20
12.6999998
 11
0.00000000
 21
25.3999996
  0
LINE
  8
0
 10
0.00000000
 20
25.3999996
 11
-12.700000
 21
12.6999998
  0
LINE
  8
0
 10
-12.700000
 20
12.6999998
 11
0.00000000
 21
0.00000000
  0
ENDBLK
  8
0
  0
BLOCK
  8
3
  2
CIRCLE
 70
     0
 10
0.00000000
 20
0.00000000
  0
CIRCLE
  8
1
 10
     0.00
 20
     0.00
 40
    25.40
  0
ENDBLK
  8
3
  0
BLOCK
  8
0
  2
WSECTN
 70
     0
 10
0.00000000
 20
0.00000000
  0
LINE
  8
0
 10
0.00000000
 20
0.00000000
 11
0.00000000
 21
25.3999996
  0
LINE
  8
0
 10
-76.199997
 20
0.00000000
 11
76.1999970
 21
0.00000000
  0
LINE
  8
0
 10
-76.199997
 20
25.3999996
 11
76.1999970
 21
25.3999996
  0
ENDBLK
  8
0
  0
BLOCK
  8
0
  2
WCOL
 70
     0
 10
0.00000000
 20
0.00000000
  0
LINE
  8
0
 10
-10.160000
 20
0.00000000
 11
10.1599999
 21
0.00000000
  0
LINE
  8
0
 10
0.00000000
 20
0.00000000
 11
0.00000000
 21
-25.400000
  0
LINE
  8
0
 10
-10.160000
 20
-25.400000
 11
10.1599999
 21
-25.400000
  0
ENDBLK
  8
0
  0
BLOCK
  8
0
  2
JSECTN
 70
     0
 10
0.00000000
 20
0.00000000
  0
LINE
  8
0
 10
0.00000000
 20
0.00000000
 11
0.00000000
 21
-25.400000
  0
LINE
  8
0
 10
-2.5400000
 20
0.00000000
 11
0.00000000
 21
0.00000000
  0
LINE
  8
0
 10
0.00000000
 20
0.00000000
 11
0.00000000
 21
-25.400000
  0
LINE
  8
0
 10
2.53999996
 20
0.00000000
 11
0.00000000
 21
0.00000000
  0
LINE
  8
0
 10
0.00000000
 20
0.00000000
 11
0.00000000
 21
-25.400000
  0
LINE
  8
0
 10
-2.5400000
 20
-25.400000
 11
0.00000000
 21
-25.400000
  0
LINE
  8
0
 10
0.00000000
 20
-25.400000
 11
0.00000000
 21
0.00000000
  0
LINE
  8
0
 10
2.53999996
 20
-25.400000
 11
0.00000000
 21
-25.400000
  0
LINE
  8
0
 10
0.00000000
 20
-25.400000
 11
0.00000000
 21
0.00000000
  0
ENDBLK
  8
0
  0
BLOCK
  8
0
  2
ZCOL
 70
     0
 10
0.00000000
 20
0.00000000
  0
LINE
  8
0
 10
10.1599999
 20
-2.5400000
 11
10.1599999
 21
0.00000000
  0
LINE
  8
0
 10
10.1599999
 20
0.00000000
 11
0.00000000
 21
0.00000000
  0
LINE
  8
0
 10
0.00000000
 20
0.00000000
 11
0.00000000
 21
-25.400000
  0
LINE
  8
0
 10
0.00000000
 20
-25.400000
 11
-10.160000
 21
-25.400000
  0
LINE
  8
0
 10
-10.160000
 20
-25.400000
 11
-10.160000
 21
-22.859999
  0
ENDBLK
  8
0
  0
BLOCK
  8
0
  2
FINFLR
 70
     0
 10
0.00000000
 20
0.00000000
  0
LINE
  8
0
 10
0.00000000
 20
0.00000000
 11
12.6999998
 21
25.3999996
  0
LINE
  8
0
 10
12.6999998
 20
25.3999996
 11
-12.700000
 21
25.3999996
  0
LINE
  8
0
 10
-12.700000
 20
25.3999996
 11
0.00000000
 21
0.00000000
  0
LINE
  8
0
 10
0.00000000
 20
0.00000000
 11
0.00000000
 21
25.3999996
  0
SOLID
  8
0
 10
0.00000000
 20
0.00000000
 11
0.00000000
 21
25.3999996
 12
-12.700000
 22
25.3999996
 13
-12.700000
 23
25.3999996
  0
ENDBLK
  8
0
  0
BLOCK
  8
0
  2
CCOL
 70
     0
 10
0.00000000
 20
0.00000000
  0
LINE
  8
0
 10
10.1599999
 20
-2.5400000
 11
10.1599999
 21
0.00000000
  0
LINE
  8
0
 10
10.1599999
 20
0.00000000
 11
0.00000000
 21
0.00000000
  0
LINE
  8
0
 10
0.00000000
 20
0.00000000
 11
0.00000000
 21
-25.400000
  0
LINE
  8
0
 10
0.00000000
 20
-25.400000
 11
10.1599999
 21
-25.400000
  0
LINE
  8
0
 10
10.1599999
 20
-25.400000
 11
10.1599999
 21
-22.859999
  0
ENDBLK
  8
0
  0
BLOCK
  8
0
  2
UCOL
 70
     0
 10
0.00000000
 20
0.00000000
  0
LINE
  8
0
 10
10.1599999
 20
0.00000000
 11
0.00000000
 21
0.00000000
  0
LINE
  8
0
 10
0.00000000
 20
0.00000000
 11
0.00000000
 21
-25.400000
  0
LINE
  8
0
 10
0.00000000
 20
-25.400000
 11
10.1599999
 21
-25.400000
  0
ENDBLK
  8
0
  0
BLOCK
  8
0
  2
DCOL
 70
     0
 10
0.00000000
 20
0.00000000
  0
INSERT
  8
0
  2
CCOL
 10
0.00000000
 20
0.00000000
 41
1.00000000
 42
1.00000000
 43
1.00000000
 50
0.00000000
  0
INSERT
  8
0
  2
CCOL
 10
0.00000000
 20
0.00000000
 41
-1.0000000
 42
1.00000000
 43
1.00000000
 50
0.00000000
  0
ENDBLK
  8
0
  0
BLOCK
  8
0
  2
MARKER
 70
     0
 10
0.00000000
 20
0.00000000
  0
LINE
  8
0
 10
0.00000000
 20
0.00000000
 11
188.579239
 21
188.579239
  0
LINE
  8
0
 10
188.579239
 20
188.579239
 11
-188.57924
 21
188.579239
  0
LINE
  8
0
 10
-188.57924
 20
188.579239
 11
0.00000000
 21
0.00000000
  0
ENDBLK
  8
0
  0
BLOCK
  8
0
  2
FLGCLP
 70
     0
 10
0.00000000
 20
0.00000000
  0
LINE
  8
0
 10
0.00000000
 20
0.00000000
 11
25.3999996
 21
25.3999996
  0
LINE
  8
0
 10
25.3999996
 20
25.3999996
 11
-25.400000
 21
25.3999996
  0
LINE
  8
0
 10
-25.400000
 20
25.3999996
 11
0.00000000
 21
0.00000000
  0
LINE
  8
0
 10
-8.4666672
 20
8.46666716
 11
8.46666716
 21
8.46666716
  0
LINE
  8
0
 10
-8.4666672
 20
8.46666716
 11
-8.4666672
 21
25.3999996
  0
LINE
  8
0
 10
8.46666716
 20
8.46666716
 11
8.46666716
 21
25.3999996
  0
ENDBLK
  8
0
  0
BLOCK
  8
0
  2
CUTFRM
 70
     0
 10
0.00000000
 20
0.00000000
  0
LINE
  8
0
 10
0.00000000
 20
0.00000000
 11
0.00000000
 21
-25.400000
  0
LINE
  8
0
 10
0.00000000
 20
-25.400000
 11
-179.15028
 21
-25.400000
  0
ENDBLK
  8
0
  0
BLOCK
  8
0
  2
VSECTN
 70
     0
 10
0.00000000
 20
0.00000000
  0
LINE
  8
0
 10
-12.700000
 20
25.3999996
 11
12.6999998
 21
25.3999996
  0
LINE
  8
0
 10
-12.700000
 20
25.3999996
 11
0.00000000
 21
0.00000000
  0
LINE
  8
0
 10
0.00000000
 20
0.00000000
 11
12.6999998
 21
25.3999996
  0
ENDBLK
  8
0
  0
BLOCK
  8
0
  2
ASECT
 70
     0
 10
0.00000000
 20
0.00000000
  0
LINE
  8
0
 10
0.00000000
 20
0.00000000
 11
25.3999996
 21
0.00000000
  0
LINE
  8
0
 10
0.00000000
 20
0.00000000
 11
0.00000000
 21
-25.400000
  0
ENDBLK
  8
0
  0
BLOCK
  8
0
  2
FRAME2
 70
     0
 10
0.00000000
 20
0.00000000
  0
LINE
  8
5
 10
0.00000000
 20
3800.00024
 11
0.00000000
 21
7300.00000
  0
LINE
  8
5
 10
0.00000000
 20
7300.00000
 11
11298.0000
 21
10124.5000
  0
LINE
  8
5
 10
11298.0000
 20
10124.5000
 11
22596.0000
 21
7300.00000
  0
LINE
  8
5
 10
22596.0000
 20
7300.00000
 11
22596.0000
 21
3800.00024
  0
LINE
  8
3
 10
-1567.5649
 20
8597.21289
 11
-1183.7764
 21
8818.79395
  0
LINE
  8
3
 10
-1518.5707
 20
8625.50000
 11
-1232.7706
 21
8625.50000
  0
LINE
  8
3
 10
-1232.7706
 20
8790.50781
 11
-1232.7706
 21
8625.50000
  0
TEXT
  8
3
 7
SIMPLEX
 10
-1173.8397
 20
8625.50000
 40
117.862030
  1
25.0
 50
0.00000000
  0
TEXT
  8
3
 7
SIMPLEX
 10
-1434.6017
 20
8448.70703
 40
117.862030
  1
100
 50
0.00000000
  0
LINE
  8
3
 10
24116.4199
 20
8597.21289
 11
23732.6309
 21
8818.79395
  0
LINE
  8
3
 10
24067.4258
 20
8625.50000
 11
23781.6250
 21
8625.50000
  0
LINE
  8
3
 10
23781.6250
 20
8790.50781
 11
23781.6250
 21
8625.50000
  0
TEXT
  8
3
 7
SIMPLEX
 10
23192.3164
 20
8625.50000
 40
117.862030
  1
  25.0
 50
0.00000000
  0
TEXT
  8
3
 7
SIMPLEX
 10
23865.5957
 20
8448.70703
 40
117.862030
  1
100
 50
0.00000000
  0
LINE
  8
1
 10
205.000015
 20
516.000000
 11
454.999970
 21
516.000000
  0
LINE
  8
1
 10
454.999970
 20
516.000000
 11
905.000000
 21
6741.05273
  0
LINE
  8
1
 10
905.000000
 20
6741.05273
 11
905.000000
 21
6741.05273
  0
LINE
  8
1
 10
905.000000
 20
6741.05273
 11
205.000015
 21
6741.05273
  0
LINE
  8
1
 10
205.000015
 20
516.000000
 11
205.000015
 21
6741.05273
  0
LINE
  8
1
 10
205.000015
 20
516.000000
 11
205.000015
 21
6741.05273
  0
LINE
  8
1
 10
205.000015
 20
6741.05273
 11
200.000000
 21
6741.05273
  0
LINE
  8
1
 10
200.000000
 20
6741.05273
 11
200.000000
 21
516.000000
  0
LINE
  8
1
 10
205.000015
 20
516.000000
 11
200.000000
 21
516.000000
  0
LINE
  8
1
 10
455.041992
 20
516.577026
 11
905.000000
 21
6741.05273
  0
LINE
  8
1
 10
905.000000
 20
6741.05273
 11
912.978943
 21
6740.47607
  0
LINE
  8
1
 10
912.978943
 20
6740.47607
 11
463.020996
 21
516.000000
  0
LINE
  8
1
 10
455.041992
 20
516.577026
 11
463.020996
 21
516.000000
  0
LINE
  8
1
 10
285.000000
 20
471.299957
 11
285.000000
 21
528.700012
  0
LINE
  8
1
 10
385.000000
 20
471.299957
 11
385.000000
 21
528.700012
  0
LINE
  8
1
 10
185.000000
 20
500.000000
 11
485.000000
 21
500.000000
  0
LINE
  8
1
 10
485.000000
 20
500.000000
 11
485.000000
 21
516.000000
  0
LINE
  8
1
 10
485.000000
 20
516.000000
 11
185.000000
 21
516.000000
  0
LINE
  8
1
 10
185.000000
 20
500.000000
 11
185.000000
 21
516.000000
  0
LINE
  8
1
 10
155.000000
 20
6728.35254
 11
155.000000
 21
6785.75146
  0
LINE
  8
1
 10
254.999985
 20
6728.35254
 11
254.999985
 21
6785.75146
  0
LINE
  8
1
 10
555.000000
 20
6728.35254
 11
555.000000
 21
6785.75146
  0
LINE
  8
1
 10
855.000000
 20
6728.35254
 11
855.000000
 21
6785.75146
  0
LINE
  8
1
 10
955.000000
 20
6728.35254
 11
955.000000
 21
6785.75146
  0
LINE
  8
1
 10
105.000000
 20
6757.05322
 11
1006.15698
 21
6757.05322
  0
LINE
  8
1
 10
1006.15698
 20
6757.05322
 11
1006.15698
 21
6741.05273
  0
LINE
  8
1
 10
1006.15698
 20
6741.05273
 11
105.000000
 21
6741.05273
  0
LINE
  8
1
 10
105.000000
 20
6757.05322
 11
105.000000
 21
6741.05273
  0
LINE
  8
1
 10
200.000000
 20
6741.05273
 11
200.000000
 21
6621.05322
  0
LINE
  8
1
 10
200.000000
 20
6621.05322
 11
105.000000
 21
6741.05273
  0
LINE
  8
1
 10
105.000000
 20
6741.05273
 11
105.000000
 21
6741.05273
  0
LINE
  8
1
 10
200.000000
 20
6741.05273
 11
105.000000
 21
6741.05273
  0
LINE
  8
1
 10
913.020996
 20
6741.05273
 11
904.345947
 21
6621.05322
  0
LINE
  8
1
 10
904.345947
 20
6621.05322
 11
1006.20001
 21
6741.05273
  0
LINE
  8
1
 10
1006.20001
 20
6741.05273
 11
1006.20001
 21
6741.05273
  0
LINE
  8
1
 10
913.020996
 20
6741.05273
 11
1006.20001
 21
6741.05273
  0
LINE
  8
1
 10
5430.12988
 20
8446.22266
 11
5515.18359
 21
8106.00977
  0
LINE
  8
1
 10
5515.18359
 20
8106.00977
 11
1010.16693
 21
6773.05176
  0
LINE
  8
1
 10
1010.16693
 20
6773.05176
 11
1010.16693
 21
6773.05176
  0
LINE
  8
1
 10
1010.16693
 20
6773.05176
 11
876.477966
 21
7307.81104
  0
LINE
  8
1
 10
5430.12988
 20
8446.22266
 11
876.477966
 21
7307.81104
  0
LINE
  8
1
 10
876.477966
 20
7307.81104
 11
1010.16693
 21
6773.05176
  0
LINE
  8
1
 10
1010.16693
 20
6773.05176
 11
1010.16693
 21
6773.05176
  0
LINE
  8
1
 10
1010.16693
 20
6773.05176
 11
205.000015
 21
6773.05176
  0
LINE
  8
1
 10
205.000015
 20
6773.05176
 11
205.000015
 21
7139.94092
  0
LINE
  8
1
 10
876.477966
 20
7307.81104
 11
205.000015
 21
7139.94092
  0
LINE
  8
1
 10
791.809998
 20
7258.85205
 11
913.078003
 21
6773.77930
  0
LINE
  8
1
 10
785.988953
 20
7257.39502
 11
907.257019
 21
6772.32520
  0
LINE
  8
1
 10
791.809998
 20
7258.85205
 11
785.988953
 21
7257.39502
  0
LINE
  8
1
 10
913.078003
 20
6773.77930
 11
907.257019
 21
6772.32520
  0
LINE
  8
1
 10
5430.12988
 20
8446.22266
 11
11.2130003
 21
7091.49463
  0
LINE
  8
1
 10
11.2130003
 20
7091.49463
 11
10.0000000
 21
7096.34473
  0
LINE
  8
1
 10
10.0000000
 20
7096.34473
 11
5428.91699
 21
8451.07422
  0
LINE
  8
1
 10
5430.12988
 20
8446.22266
 11
5428.91699
 21
8451.07422
  0
LINE
  8
1
 10
205.000015
 20
6773.05176
 11
205.000015
 21
7138.68994
  0
LINE
  8
1
 10
205.000015
 20
7138.68994
 11
200.000000
 21
7138.68994
  0
LINE
  8
1
 10
200.000000
 20
7138.68994
 11
200.000000
 21
6773.05176
  0
LINE
  8
1
 10
205.000015
 20
6773.05176
 11
200.000000
 21
6773.05176
  0
LINE
  8
1
 10
200.000000
 20
7138.68994
 11
0.00000000
 21
7088.68945
  0
LINE
  8
1
 10
0.00000000
 20
7088.68945
 11
200.000000
 21
7038.68945
  0
LINE
  8
1
 10
5514.85498
 20
8105.91309
 11
1010.16693
 21
6773.05176
  0
LINE
  8
1
 10
1010.16693
 20
6773.05176
 11
1012.43701
 21
6765.38135
  0
LINE
  8
1
 10
1012.43701
 20
6765.38135
 11
5517.12500
 21
8098.24121
  0
LINE
  8
1
 10
5514.85498
 20
8105.91309
 11
5517.12500
 21
8098.24121
  0
LINE
  8
1
 10
5405.68213
 20
8491.64941
 11
5461.36914
 21
8505.57129
  0
LINE
  8
1
 10
5429.93604
 20
8394.63574
 11
5485.62305
 21
8408.55762
  0
LINE
  8
1
 10
5490.56982
 20
8152.09961
 11
5546.25537
 21
8166.02100
  0
LINE
  8
1
 10
5514.82324
 20
8055.08594
 11
5570.50928
 21
8069.00586
  0
LINE
  8
1
 10
5421.39893
 20
8547.11816
 11
5554.79297
 21
8013.54004
  0
LINE
  8
1
 10
5554.79297
 20
8013.54004
 11
5539.27051
 21
8009.65869
  0
LINE
  8
1
 10
5539.27051
 20
8009.65869
 11
5405.87598
 21
8543.23730
  0
LINE
  8
1
 10
5421.39893
 20
8547.11816
 11
5405.87598
 21
8543.23730
  0
LINE
  8
1
 10
155.000000
 20
6728.35254
 11
155.000000
 21
6785.75146
  0
LINE
  8
1
 10
254.999985
 20
6728.35254
 11
254.999985
 21
6785.75146
  0
LINE
  8
1
 10
555.000000
 20
6728.35254
 11
555.000000
 21
6785.75146
  0
LINE
  8
1
 10
855.000000
 20
6728.35254
 11
855.000000
 21
6785.75146
  0
LINE
  8
1
 10
955.000000
 20
6728.35254
 11
955.000000
 21
6785.75146
  0
LINE
  8
1
 10
105.000000
 20
6757.05322
 11
1006.15698
 21
6757.05322
  0
LINE
  8
1
 10
1006.15698
 20
6757.05322
 11
1006.15698
 21
6773.05176
  0
LINE
  8
1
 10
1006.15698
 20
6773.05176
 11
105.000000
 21
6773.05176
  0
LINE
  8
1
 10
105.000000
 20
6757.05322
 11
105.000000
 21
6773.05176
  0
LINE
  8
1
 10
5428.91699
 20
8451.07422
 11
5312.50000
 21
8421.96973
  0
LINE
  8
1
 10
5312.50000
 20
8421.96973
 11
5405.87598
 21
8543.23730
  0
LINE
  8
1
 10
5405.87598
 20
8543.23730
 11
5405.87598
 21
8543.23730
  0
LINE
  8
1
 10
5428.91699
 20
8451.07422
 11
5405.87598
 21
8543.23730
  0
LINE
  8
1
 10
5517.12500
 20
8098.24121
 11
5401.95215
 21
8064.16406
  0
LINE
  8
1
 10
5401.95215
 20
8064.16406
 11
5539.27051
 21
8009.65869
  0
LINE
  8
1
 10
5539.27051
 20
8009.65869
 11
5539.27051
 21
8009.65869
  0
LINE
  8
1
 10
5517.12500
 20
8098.24121
 11
5539.27051
 21
8009.65869
  0
LINE
  8
1
 10
200.000000
 20
6773.05176
 11
200.000000
 21
6893.05176
  0
LINE
  8
1
 10
200.000000
 20
6893.05176
 11
105.000000
 21
6773.05176
  0
LINE
  8
1
 10
105.000000
 20
6773.05176
 11
105.000000
 21
6773.05176
  0
LINE
  8
1
 10
200.000000
 20
6773.05176
 11
105.000000
 21
6773.05176
  0
LINE
  8
1
 10
11282.0000
 20
9909.19043
 11
11282.0000
 21
9445.33203
  0
LINE
  8
1
 10
11282.0000
 20
9445.33203
 11
5546.12744
 21
8114.17041
  0
LINE
  8
1
 10
5546.12744
 20
8114.17041
 11
5546.12744
 21
8114.17041
  0
LINE
  8
1
 10
5546.12744
 20
8114.17041
 11
5461.17480
 21
8453.98340
  0
LINE
  8
1
 10
11282.0000
 20
9909.19043
 11
5461.17480
 21
8453.98340
  0
LINE
  8
1
 10
11282.0000
 20
9909.19043
 11
5461.17480
 21
8453.98340
  0
LINE
  8
1
 10
5461.17480
 20
8453.98340
 11
5459.96143
 21
8458.83496
  0
LINE
  8
1
 10
5459.96143
 20
8458.83496
 11
11280.7881
 21
9914.04004
  0
LINE
  8
1
 10
11282.0000
 20
9909.19043
 11
11280.7881
 21
9914.04004
  0
LINE
  8
1
 10
11280.8701
 20
9445.06934
 11
5546.20996
 21
8114.18994
  0
LINE
  8
1
 10
5546.20996
 20
8114.18994
 11
5547.34033
 21
8109.31982
  0
LINE
  8
1
 10
5547.34033
 20
8109.31982
 11
11282.0000
 21
9440.19922
  0
LINE
  8
1
 10
11280.8701
 20
9445.06934
 11
11282.0000
 21
9440.19922
  0
LINE
  8
1
 10
11269.3008
 20
9963.19043
 11
11326.7002
 21
9963.19043
  0
LINE
  8
1
 10
11269.3008
 20
9863.19043
 11
11326.7002
 21
9863.19043
  0
LINE
  8
1
 10
11269.3008
 20
9498.18945
 11
11326.7002
 21
9498.18945
  0
LINE
  8
1
 10
11269.3008
 20
9398.19043
 11
11326.7002
 21
9398.19043
  0
LINE
  8
1
 10
11298.0000
 20
10013.1904
 11
11298.0000
 21
9349.04492
  0
LINE
  8
1
 10
11298.0000
 20
9349.04492
 11
11282.0000
 21
9349.04492
  0
LINE
  8
1
 10
11282.0000
 20
9349.04492
 11
11282.0000
 21
10013.1904
  0
LINE
  8
1
 10
11298.0000
 20
10013.1904
 11
11282.0000
 21
10013.1904
  0
LINE
  8
1
 10
5405.68213
 20
8491.64941
 11
5461.36914
 21
8505.57129
  0
LINE
  8
1
 10
5429.93604
 20
8394.63574
 11
5485.62305
 21
8408.55762
  0
LINE
  8
1
 10
5490.56982
 20
8152.09961
 11
5546.25537
 21
8166.02100
  0
LINE
  8
1
 10
5514.82324
 20
8055.08594
 11
5570.50928
 21
8069.00586
  0
LINE
  8
1
 10
5421.39893
 20
8547.11816
 11
5554.79297
 21
8013.54004
  0
LINE
  8
1
 10
5554.79297
 20
8013.54004
 11
5570.31592
 21
8017.41992
  0
LINE
  8
1
 10
5570.31592
 20
8017.41992
 11
5436.92090
 21
8550.99805
  0
LINE
  8
1
 10
5421.39893
 20
8547.11816
 11
5436.92090
 21
8550.99805
  0
LINE
  8
1
 10
11282.0000
 20
9914.34473
 11
11162.0010
 21
9884.34473
  0
LINE
  8
1
 10
11162.0010
 20
9884.34473
 11
11282.0000
 21
10013.5010
  0
LINE
  8
1
 10
11282.0000
 20
10013.5010
 11
11282.0000
 21
10013.5010
  0
LINE
  8
1
 10
11282.0000
 20
9914.34473
 11
11282.0000
 21
10013.5010
  0
LINE
  8
1
 10
11282.0000
 20
9440.19922
 11
11162.0010
 21
9412.34961
  0
LINE
  8
1
 10
11162.0010
 20
9412.34961
 11
11282.0000
 21
9349.04492
  0
LINE
  8
1
 10
11282.0000
 20
9349.04492
 11
11282.0000
 21
9349.04492
  0
LINE
  8
1
 10
11282.0000
 20
9440.19922
 11
11282.0000
 21
9349.04492
  0
LINE
  8
1
 10
5459.96143
 20
8458.83496
 11
5576.37891
 21
8487.93945
  0
LINE
  8
1
 10
5576.37891
 20
8487.93945
 11
5436.92090
 21
8550.99805
  0
LINE
  8
1
 10
5436.92090
 20
8550.99805
 11
5436.92090
 21
8550.99805
  0
LINE
  8
1
 10
5459.96143
 20
8458.83496
 11
5436.92090
 21
8550.99805
  0
LINE
  8
1
 10
5547.34033
 20
8109.31982
 11
5664.25000
 21
8136.45264
  0
LINE
  8
1
 10
5664.25000
 20
8136.45264
 11
5570.31592
 21
8017.41992
  0
LINE
  8
1
 10
5570.31592
 20
8017.41992
 11
5570.31592
 21
8017.41992
  0
LINE
  8
1
 10
5547.34033
 20
8109.31982
 11
5570.31592
 21
8017.41992
  0
LINE
  8
1
 10
11314.0000
 20
9909.19043
 11
11314.0000
 21
9445.33203
  0
LINE
  8
1
 10
11314.0000
 20
9445.33203
 11
17049.8594
 21
8114.17432
  0
LINE
  8
1
 10
17049.8594
 20
8114.17432
 11
17049.8594
 21
8114.17432
  0
LINE
  8
1
 10
17049.8594
 20
8114.17432
 11
17134.8145
 21
8453.98730
  0
LINE
  8
1
 10
11314.0000
 20
9909.19043
 11
17134.8145
 21
8453.98730
  0
LINE
  8
1
 10
11314.0000
 20
9909.19043
 11
17134.8145
 21
8453.98730
  0
LINE
  8
1
 10
17134.8145
 20
8453.98730
 11
17136.0273
 21
8458.83789
  0
LINE
  8
1
 10
17136.0273
 20
8458.83789
 11
11315.2119
 21
9914.04004
  0
LINE
  8
1
 10
11314.0000
 20
9909.19043
 11
11315.2119
 21
9914.04004
  0
LINE
  8
1
 10
11315.1289
 20
9445.06934
 11
17049.7773
 21
8114.19385
  0
LINE
  8
1
 10
17049.7773
 20
8114.19385
 11
17048.6484
 21
8109.32422
  0
LINE
  8
1
 10
17048.6484
 20
8109.32422
 11
11314.0000
 21
9440.19922
  0
LINE
  8
1
 10
11315.1289
 20
9445.06934
 11
11314.0000
 21
9440.19922
  0
LINE
  8
1
 10
11269.3008
 20
9963.19043
 11
11326.7002
 21
9963.19043
  0
LINE
  8
1
 10
11269.3008
 20
9863.19043
 11
11326.7002
 21
9863.19043
  0
LINE
  8
1
 10
11269.3008
 20
9498.18945
 11
11326.7002
 21
9498.18945
  0
LINE
  8
1
 10
11269.3008
 20
9398.19043
 11
11326.7002
 21
9398.19043
  0
LINE
  8
1
 10
11298.0000
 20
10013.1904
 11
11298.0000
 21
9349.04492
  0
LINE
  8
1
 10
11298.0000
 20
9349.04492
 11
11314.0000
 21
9349.04492
  0
LINE
  8
1
 10
11314.0000
 20
9349.04492
 11
11314.0000
 21
10013.1904
  0
LINE
  8
1
 10
11298.0000
 20
10013.1904
 11
11314.0000
 21
10013.1904
  0
LINE
  8
1
 10
17134.6211
 20
8505.57324
 11
17190.3066
 21
8491.65332
  0
LINE
  8
1
 10
17110.3652
 20
8408.56055
 11
17166.0527
 21
8394.63867
  0
LINE
  8
1
 10
17049.7305
 20
8166.02490
 11
17105.4180
 21
8152.10303
  0
LINE
  8
1
 10
17025.4766
 20
8069.00977
 11
17081.1641
 21
8055.08887
  0
LINE
  8
1
 10
17174.5898
 20
8547.12109
 11
17041.1934
 21
8013.54199
  0
LINE
  8
1
 10
17041.1934
 20
8013.54199
 11
17025.6719
 21
8017.42285
  0
LINE
  8
1
 10
17025.6719
 20
8017.42285
 11
17159.0684
 21
8551.00098
  0
LINE
  8
1
 10
17174.5898
 20
8547.12109
 11
17159.0684
 21
8551.00098
  0
LINE
  8
1
 10
11314.0000
 20
9914.34473
 11
11434.0000
 21
9884.34473
  0
LINE
  8
1
 10
11434.0000
 20
9884.34473
 11
11314.0000
 21
10013.5010
  0
LINE
  8
1
 10
11314.0000
 20
10013.5010
 11
11314.0000
 21
10013.5010
  0
LINE
  8
1
 10
11314.0000
 20
9914.34473
 11
11314.0000
 21
10013.5010
  0
LINE
  8
1
 10
11314.0000
 20
9440.19922
 11
11434.0000
 21
9412.34961
  0
LINE
  8
1
 10
11434.0000
 20
9412.34961
 11
11314.0000
 21
9349.04492
  0
LINE
  8
1
 10
11314.0000
 20
9349.04492
 11
11314.0000
 21
9349.04492
  0
LINE
  8
1
 10
11314.0000
 20
9440.19922
 11
11314.0000
 21
9349.04492
  0
LINE
  8
1
 10
17136.0273
 20
8458.83789
 11
17019.6113
 21
8487.94238
  0
LINE
  8
1
 10
17019.6113
 20
8487.94238
 11
17159.0684
 21
8551.00098
  0
LINE
  8
1
 10
17159.0684
 20
8551.00098
 11
17159.0684
 21
8551.00098
  0
LINE
  8
1
 10
17136.0273
 20
8458.83789
 11
17159.0684
 21
8551.00098
  0
LINE
  8
1
 10
17048.6484
 20
8109.32422
 11
16931.7344
 21
8136.45654
  0
LINE
  8
1
 10
16931.7344
 20
8136.45654
 11
17025.6719
 21
8017.42285
  0
LINE
  8
1
 10
17025.6719
 20
8017.42285
 11
17025.6719
 21
8017.42285
  0
LINE
  8
1
 10
17048.6484
 20
8109.32422
 11
17025.6719
 21
8017.42285
  0
LINE
  8
1
 10
17165.8574
 20
8446.22656
 11
17080.8027
 21
8106.01270
  0
LINE
  8
1
 10
17080.8027
 20
8106.01270
 11
21585.8301
 21
6773.05176
  0
LINE
  8
1
 10
21585.8301
 20
6773.05176
 11
21585.8301
 21
6773.05176
  0
LINE
  8
1
 10
21585.8301
 20
6773.05176
 11
21719.5195
 21
7307.81104
  0
LINE
  8
1
 10
17165.8574
 20
8446.22656
 11
21719.5195
 21
7307.81104
  0
LINE
  8
1
 10
21719.5195
 20
7307.81104
 11
21585.8301
 21
6773.05176
  0
LINE
  8
1
 10
21585.8301
 20
6773.05176
 11
21585.8301
 21
6773.05176
  0
LINE
  8
1
 10
21585.8301
 20
6773.05176
 11
22390.9980
 21
6773.05176
  0
LINE
  8
1
 10
22390.9980
 20
6773.05176
 11
22390.9980
 21
7139.94092
  0
LINE
  8
1
 10
21719.5195
 20
7307.81104
 11
22390.9980
 21
7139.94092
  0
LINE
  8
1
 10
21810.0117
 20
7257.39502
 11
21688.7422
 21
6772.32520
  0
LINE
  8
1
 10
21804.1914
 20
7258.85205
 11
21682.9219
 21
6773.77930
  0
LINE
  8
1
 10
21810.0117
 20
7257.39502
 11
21804.1914
 21
7258.85205
  0
LINE
  8
1
 10
21688.7422
 20
6772.32520
 11
21682.9219
 21
6773.77930
  0
LINE
  8
1
 10
17165.8574
 20
8446.22656
 11
22584.7871
 21
7091.49463
  0
LINE
  8
1
 10
22584.7871
 20
7091.49463
 11
22586.0000
 21
7096.34473
  0
LINE
  8
1
 10
22586.0000
 20
7096.34473
 11
17167.0703
 21
8451.07715
  0
LINE
  8
1
 10
17165.8574
 20
8446.22656
 11
17167.0703
 21
8451.07715
  0
LINE
  8
1
 10
22390.9980
 20
7138.68994
 11
22390.9980
 21
6773.05176
  0
LINE
  8
1
 10
22390.9980
 20
6773.05176
 11
22396.0000
 21
6773.05176
  0
LINE
  8
1
 10
22396.0000
 20
6773.05176
 11
22396.0000
 21
7138.68994
  0
LINE
  8
1
 10
22390.9980
 20
7138.68994
 11
22396.0000
 21
7138.68994
  0
LINE
  8
1
 10
22396.0000
 20
7138.69043
 11
22596.0000
 21
7088.69043
  0
LINE
  8
1
 10
22596.0000
 20
7088.69043
 11
22396.0000
 21
7038.69043
  0
LINE
  8
1
 10
17081.1328
 20
8105.91602
 11
21585.8301
 21
6773.05176
  0
LINE
  8
1
 10
21585.8301
 20
6773.05176
 11
21583.5625
 21
6765.38135
  0
LINE
  8
1
 10
21583.5625
 20
6765.38135
 11
17078.8633
 21
8098.24365
  0
LINE
  8
1
 10
17081.1328
 20
8105.91602
 11
17078.8633
 21
8098.24365
  0
LINE
  8
1
 10
17134.6211
 20
8505.57324
 11
17190.3066
 21
8491.65332
  0
LINE
  8
1
 10
17110.3652
 20
8408.56055
 11
17166.0527
 21
8394.63867
  0
LINE
  8
1
 10
17049.7305
 20
8166.02490
 11
17105.4180
 21
8152.10303
  0
LINE
  8
1
 10
17025.4766
 20
8069.00977
 11
17081.1641
 21
8055.08887
  0
LINE
  8
1
 10
17174.5898
 20
8547.12109
 11
17041.1934
 21
8013.54199
  0
LINE
  8
1
 10
17041.1934
 20
8013.54199
 11
17056.7148
 21
8009.66211
  0
LINE
  8
1
 10
17056.7148
 20
8009.66211
 11
17190.1113
 21
8543.24023
  0
LINE
  8
1
 10
17174.5898
 20
8547.12109
 11
17190.1113
 21
8543.24023
  0
LINE
  8
1
 10
22440.9980
 20
6785.75146
 11
22440.9980
 21
6728.35254
  0
LINE
  8
1
 10
22341.0000
 20
6785.75146
 11
22341.0000
 21
6728.35254
  0
LINE
  8
1
 10
22041.0000
 20
6785.75146
 11
22041.0000
 21
6728.35254
  0
LINE
  8
1
 10
21741.0000
 20
6785.75146
 11
21741.0000
 21
6728.35254
  0
LINE
  8
1
 10
21641.0020
 20
6785.75146
 11
21641.0020
 21
6728.35254
  0
LINE
  8
1
 10
22490.9980
 20
6757.05322
 11
21589.8438
 21
6757.05322
  0
LINE
  8
1
 10
21589.8438
 20
6757.05322
 11
21589.8438
 21
6773.05176
  0
LINE
  8
1
 10
21589.8438
 20
6773.05176
 11
22490.9980
 21
6773.05176
  0
LINE
  8
1
 10
22490.9980
 20
6757.05322
 11
22490.9980
 21
6773.05176
  0
LINE
  8
1
 10
17167.0703
 20
8451.07715
 11
17283.4883
 21
8421.97266
  0
LINE
  8
1
 10
17283.4883
 20
8421.97266
 11
17190.1113
 21
8543.24023
  0
LINE
  8
1
 10
17190.1113
 20
8543.24023
 11
17190.1113
 21
8543.24023
  0
LINE
  8
1
 10
17167.0703
 20
8451.07715
 11
17190.1113
 21
8543.24023
  0
LINE
  8
1
 10
17078.8613
 20
8098.24512
 11
17194.0352
 21
8064.16650
  0
LINE
  8
1
 10
17194.0352
 20
8064.16650
 11
17056.7148
 21
8009.66357
  0
LINE
  8
1
 10
17056.7148
 20
8009.66357
 11
17056.7148
 21
8009.66357
  0
LINE
  8
1
 10
17078.8613
 20
8098.24512
 11
17056.7148
 21
8009.66357
  0
LINE
  8
1
 10
22396.0000
 20
6773.05176
 11
22396.0000
 21
6893.05176
  0
LINE
  8
1
 10
22396.0000
 20
6893.05176
 11
22490.9980
 21
6773.05176
  0
LINE
  8
1
 10
22490.9980
 20
6773.05176
 11
22490.9980
 21
6773.05176
  0
LINE
  8
1
 10
22396.0000
 20
6773.05176
 11
22490.9980
 21
6773.05176
  0
LINE
  8
1
 10
22390.9980
 20
516.000000
 11
22141.0000
 21
516.000000
  0
LINE
  8
1
 10
22141.0000
 20
516.000000
 11
21691.0000
 21
6741.05273
  0
LINE
  8
1
 10
21691.0000
 20
6741.05273
 11
21691.0000
 21
6741.05273
  0
LINE
  8
1
 10
21691.0000
 20
6741.05273
 11
22390.9980
 21
6741.05273
  0
LINE
  8
1
 10
22390.9980
 20
516.000000
 11
22390.9980
 21
6741.05273
  0
LINE
  8
1
 10
22390.9980
 20
516.000000
 11
22390.9980
 21
6741.05273
  0
LINE
  8
1
 10
22390.9980
 20
6741.05273
 11
22396.0000
 21
6741.05273
  0
LINE
  8
1
 10
22396.0000
 20
6741.05273
 11
22396.0000
 21
516.000000
  0
LINE
  8
1
 10
22390.9980
 20
516.000000
 11
22396.0000
 21
516.000000
  0
LINE
  8
1
 10
22140.9590
 20
516.577026
 11
21691.0000
 21
6741.05273
  0
LINE
  8
1
 10
21691.0000
 20
6741.05273
 11
21683.0195
 21
6740.47607
  0
LINE
  8
1
 10
21683.0195
 20
6740.47607
 11
22132.9766
 21
516.000000
  0
LINE
  8
1
 10
22140.9590
 20
516.577026
 11
22132.9766
 21
516.000000
  0
LINE
  8
1
 10
22311.0000
 20
528.700012
 11
22311.0000
 21
471.299957
  0
LINE
  8
1
 10
22210.9980
 20
528.700012
 11
22210.9980
 21
471.299957
  0
LINE
  8
1
 10
22411.0000
 20
500.000000
 11
22110.9980
 21
500.000000
  0
LINE
  8
1
 10
22110.9980
 20
500.000000
 11
22110.9980
 21
516.000000
  0
LINE
  8
1
 10
22110.9980
 20
516.000000
 11
22411.0000
 21
516.000000
  0
LINE
  8
1
 10
22411.0000
 20
500.000000
 11
22411.0000
 21
516.000000
  0
LINE
  8
1
 10
22440.9980
 20
6785.75146
 11
22440.9980
 21
6728.35254
  0
LINE
  8
1
 10
22341.0000
 20
6785.75146
 11
22341.0000
 21
6728.35254
  0
LINE
  8
1
 10
22041.0000
 20
6785.75146
 11
22041.0000
 21
6728.35254
  0
LINE
  8
1
 10
21741.0000
 20
6785.75146
 11
21741.0000
 21
6728.35254
  0
LINE
  8
1
 10
21641.0020
 20
6785.75146
 11
21641.0020
 21
6728.35254
  0
LINE
  8
1
 10
22490.9980
 20
6757.05322
 11
21589.8438
 21
6757.05322
  0
LINE
  8
1
 10
21589.8438
 20
6757.05322
 11
21589.8438
 21
6741.05273
  0
LINE
  8
1
 10
21589.8438
 20
6741.05273
 11
22490.9980
 21
6741.05273
  0
LINE
  8
1
 10
22490.9980
 20
6757.05322
 11
22490.9980
 21
6741.05273
  0
LINE
  8
1
 10
22396.0000
 20
6741.05273
 11
22396.0000
 21
6621.05322
  0
LINE
  8
1
 10
22396.0000
 20
6621.05322
 11
22490.9980
 21
6741.05273
  0
LINE
  8
1
 10
22490.9980
 20
6741.05273
 11
22490.9980
 21
6741.05273
  0
LINE
  8
1
 10
22396.0000
 20
6741.05273
 11
22490.9980
 21
6741.05273
  0
LINE
  8
1
 10
21682.9785
 20
6741.05273
 11
21691.6523
 21
6621.05322
  0
LINE
  8
1
 10
21691.6523
 20
6621.05322
 11
21589.7988
 21
6741.05273
  0
LINE
  8
1
 10
21589.7988
 20
6741.05273
 11
21589.7988
 21
6741.05273
  0
LINE
  8
1
 10
21682.9785
 20
6741.05273
 11
21589.7988
 21
6741.05273
  0
LINE
  8
1
 10
791.809998
 20
7258.85205
 11
913.078003
 21
6773.77930
  0
LINE
  8
1
 10
785.988953
 20
7257.39502
 11
907.257019
 21
6772.32520
  0
LINE
  8
1
 10
791.809998
 20
7258.85205
 11
785.988953
 21
7257.39502
  0
LINE
  8
1
 10
913.078003
 20
6773.77930
 11
907.257019
 21
6772.32520
  0
LINE
  8
1
 10
21810.0117
 20
7257.39502
 11
21688.7422
 21
6772.32520
  0
LINE
  8
1
 10
21804.1914
 20
7258.85205
 11
21682.9219
 21
6773.77930
  0
LINE
  8
1
 10
21810.0117
 20
7257.39502
 11
21804.1914
 21
7258.85205
  0
LINE
  8
1
 10
21688.7422
 20
6772.32520
 11
21682.9219
 21
6773.77930
  0
LINE
  8
1
 10
791.809998
 20
7258.85205
 11
913.078003
 21
6773.77930
  0
LINE
  8
1
 10
785.988953
 20
7257.39502
 11
907.257019
 21
6772.32520
  0
LINE
  8
1
 10
791.809998
 20
7258.85205
 11
785.988953
 21
7257.39502
  0
LINE
  8
1
 10
913.078003
 20
6773.77930
 11
907.257019
 21
6772.32520
  0
LINE
  8
1
 10
21810.0117
 20
7257.39502
 11
21688.7422
 21
6772.32520
  0
LINE
  8
1
 10
21804.1914
 20
7258.85205
 11
21682.9219
 21
6773.77930
  0
LINE
  8
1
 10
21810.0117
 20
7257.39502
 11
21804.1914
 21
7258.85205
  0
LINE
  8
1
 10
21688.7422
 20
6772.32520
 11
21682.9219
 21
6773.77930
  0
TEXT
  8
3
 7
SIMPLEX
 10
1210.14319
 20
6368.58350
 40
117.862030
  1
SP1
 50
90.0000000
  0
TEXT
  8
3
 7
SIMPLEX
 10
5738.46289
 20
7632.44971
 40
117.862030
  1
SP2
 50
90.0000000
  0
TEXT
  8
3
 7
SIMPLEX
 10
11298.0000
 20
8964.02344
 40
117.862030
  1
SP3
 50
90.0000000
  0
TEXT
  8
3
 7
SIMPLEX
 10
17004.8555
 20
7632.45361
 40
117.862030
  1
SP2
 50
90.0000000
  0
TEXT
  8
3
 7
SIMPLEX
 10
21533.1855
 20
6368.58496
 40
117.862030
  1
SP1
 50
90.0000000
  0
TEXT
  8
3
 7
SIMPLEX
 10
187.734619
 20
286.280792
 40
117.862030
  1
BP1
 50
0.00000000
  0
TEXT
  8
3
 7
SIMPLEX
 10
22054.6816
 20
286.280792
 40
117.862030
  1
BP1
 50
0.00000000
  0
INSERT
  8
10
  2
ZCOL
 10
1616.29370
 20
7517.55371
 41
-8.0000000
 42
-6.3740158
 43
-6.3740158
 50
14.0362434
  0
INSERT
  8
10
  2
ZCOL
 10
3188.70068
 20
7910.65576
 41
-8.0000000
 42
-6.3740158
 43
-6.3740158
 50
14.0362434
  0
INSERT
  8
10
  2
ZCOL
 10
4761.10791
 20
8303.75781
 41
-8.0000000
 42
-6.3740158
 43
-6.3740158
 50
14.0362434
  0
INSERT
  8
10
  2
ZCOL
 10
6333.61133
 20
8696.88379
 41
-8.0000000
 42
-6.3740158
 43
-6.3740158
 50
14.0362434
  0
INSERT
  8
10
  2
ZCOL
 10
7906.01807
 20
9089.98535
 41
-8.0000000
 42
-6.3740158
 43
-6.3740158
 50
14.0362434
  0
INSERT
  8
10
  2
ZCOL
 10
9478.42480
 20
9483.08691
 41
-8.0000000
 42
-6.3740158
 43
-6.3740158
 50
14.0362434
  0
INSERT
  8
10
  2
ZCOL
 10
11050.8320
 20
9876.18945
 41
-8.0000000
 42
-6.3740158
 43
-6.3740158
 50
14.0362434
  0
LINE
  8
1
 10
1614.67883
 20
7630.04248
 11
1779.36682
 21
6971.28809
  0
INSERT
  8
3
  2
MARKER
 10
1559.93323
 20
7742.99707
 41
1.00000000
 42
1.00000000
 43
1.00000000
 50
14.0362434
  0
TEXT
  8
3
 7
SIMPLEX
 10
1107.13513
 20
7853.33838
 40
117.862030
  1
FB856A(2)
 50
14.0362434
  0
LINE
  8
1
 10
4759.49219
 20
8416.24512
 11
4891.58057
 21
7887.89307
  0
INSERT
  8
3
  2
MARKER
 10
4704.74707
 20
8529.20117
 41
1.00000000
 42
1.00000000
 43
1.00000000
 50
14.0362434
  0
TEXT
  8
3
 7
SIMPLEX
 10
4137.60596
 20
8610.95605
 40
117.862030
  1
FB528A(2)
 50
14.0362434
  0
LINE
  8
1
 10
7904.40430
 20
9202.47266
 11
8040.24951
 21
8659.08984
  0
INSERT
  8
3
  2
MARKER
 10
7849.65771
 20
9315.42773
 41
1.00000000
 42
1.00000000
 43
1.00000000
 50
14.0362434
  0
TEXT
  8
3
 7
SIMPLEX
 10
7282.51758
 20
9397.18359
 40
117.862030
  1
FB536A(2)
 50
14.0362434
  0
LINE
  8
1
 10
9476.81152
 20
9595.57422
 11
9619.30664
 21
9025.59277
  0
INSERT
  8
3
  2
MARKER
 10
9422.06543
 20
9708.52930
 41
1.00000000
 42
1.00000000
 43
1.00000000
 50
14.0362434
  0
TEXT
  8
3
 7
SIMPLEX
 10
8740.58105
 20
9761.69922
 40
117.862030
  1
FB560A(2)
 50
14.0362434
  0
INSERT
  8
10
  2
ZCOL
 10
11545.1563
 20
9876.19141
 41
8.00000000
 42
-6.3740158
 43
-6.3740158
 50
-14.036242
  0
INSERT
  8
10
  2
ZCOL
 10
13117.5615
 20
9483.08984
 41
8.00000000
 42
-6.3740158
 43
-6.3740158
 50
-14.036242
  0
INSERT
  8
10
  2
ZCOL
 10
14689.9697
 20
9089.98828
 41
8.00000000
 42
-6.3740158
 43
-6.3740158
 50
-14.036242
  0
INSERT
  8
10
  2
ZCOL
 10
16262.3760
 20
8696.88574
 41
8.00000000
 42
-6.3740158
 43
-6.3740158
 50
-14.036242
  0
INSERT
  8
10
  2
ZCOL
 10
17834.8809
 20
8303.76074
 41
8.00000000
 42
-6.3740158
 43
-6.3740158
 50
-14.036242
  0
INSERT
  8
10
  2
ZCOL
 10
19407.2871
 20
7910.65869
 41
8.00000000
 42
-6.3740158
 43
-6.3740158
 50
-14.036242
  0
INSERT
  8
10
  2
ZCOL
 10
20979.6934
 20
7517.55664
 41
8.00000000
 42
-6.3740158
 43
-6.3740158
 50
-14.036242
  0
LINE
  8
1
 10
13119.1787
 20
9595.57813
 11
12976.6826
 21
9025.59668
  0
INSERT
  8
3
  2
MARKER
 10
13173.9229
 20
9708.53320
 41
1.00000000
 42
1.00000000
 43
1.00000000
 50
-14.036242
  0
TEXT
  8
3
 7
SIMPLEX
 10
12826.3203
 20
10018.9736
 40
117.862030
  1
FB560A(2)
 50
-14.036242
  0
LINE
  8
1
 10
14691.5859
 20
9202.47559
 11
14555.7393
 21
8659.09277
  0
INSERT
  8
3
  2
MARKER
 10
14746.3311
 20
9315.43164
 41
1.00000000
 42
1.00000000
 43
1.00000000
 50
-14.036242
  0
TEXT
  8
3
 7
SIMPLEX
 10
14284.3838
 20
9654.45801
 40
117.862030
  1
FB536A(2)
 50
-14.036242
  0
LINE
  8
1
 10
17836.4961
 20
8416.24805
 11
17704.4082
 21
7887.89551
  0
INSERT
  8
3
  2
MARKER
 10
17891.2402
 20
8529.20313
 41
1.00000000
 42
1.00000000
 43
1.00000000
 50
-14.036242
  0
TEXT
  8
3
 7
SIMPLEX
 10
17429.2949
 20
8868.22949
 40
117.862030
  1
FB528A(2)
 50
-14.036242
  0
LINE
  8
1
 10
20981.3105
 20
7630.04395
 11
20816.6211
 21
6971.29199
  0
INSERT
  8
3
  2
MARKER
 10
21036.0547
 20
7742.99951
 41
1.00000000
 42
1.00000000
 43
1.00000000
 50
-14.036242
  0
TEXT
  8
3
 7
SIMPLEX
 10
20459.7676
 20
8110.61182
 40
117.862030
  1
FB856A(2)
 50
-14.036242
  0
INSERT
  8
10
  2
ZCOL
 10
180.951218
 20
3880.00000
 41
8.00000000
 42
-6.3740158
 43
-6.3740158
 50
89.9999847
  0
INSERT
  8
10
  2
ZCOL
 10
180.951660
 20
5300.00000
 41
8.00000000
 42
-6.3740158
 43
-6.3740158
 50
89.9999847
  0
INSERT
  8
10
  2
ZCOL
 10
180.952026
 20
6500.00000
 41
8.00000000
 42
-6.3740158
 43
-6.3740158
 50
89.9999847
  0
LINE
  8
10
 10
69.0516739
 20
5440.47510
 11
69.0516129
 21
5259.52539
  0
LINE
  8
10
 10
69.0516739
 20
5440.47510
 11
250.001663
 21
5440.47510
  0
LINE
  8
10
 10
69.0516129
 20
5259.52539
 11
250.001617
 21
5259.52539
  0
LINE
  8
10
 10
250.001663
 20
5440.47510
 11
250.001617
 21
5259.52539
  0
TEXT
  8
3
 7
SIMPLEX
 10
-51.430714
 20
5197.25049
 40
117.862030
  1
Strut
 50
89.9999847
  0
LINE
  8
1
 10
71.4311905
 20
3854.28442
 11
730.688721
 21
3854.28418
  0
INSERT
  8
3
  2
MARKER
 10
-51.429485
 20
3880.00000
 41
1.00000000
 42
1.00000000
 43
1.00000000
 50
89.9999847
  0
TEXT
  8
3
 7
SIMPLEX
 10
-268.29575
 20
3467.48291
 40
117.862030
  1
FB832A(2)
 50
89.9999847
  0
INSERT
  8
10
  2
ZCOL
 10
22415.0488
 20
3880.00000
 41
-8.0000000
 42
-6.3740158
 43
-6.3740158
 50
-89.999985
  0
INSERT
  8
10
  2
ZCOL
 10
22415.0488
 20
5300.00000
 41
-8.0000000
 42
-6.3740158
 43
-6.3740158
 50
-89.999985
  0
INSERT
  8
10
  2
ZCOL
 10
22415.0488
 20
6500.00000
 41
-8.0000000
 42
-6.3740158
 43
-6.3740158
 50
-89.999985
  0
LINE
  8
10
 10
22526.9492
 20
5259.52490
 11
22526.9492
 21
5440.47510
  0
LINE
  8
10
 10
22526.9492
 20
5259.52490
 11
22345.9980
 21
5259.52490
  0
LINE
  8
10
 10
22526.9492
 20
5440.47510
 11
22345.9980
 21
5440.47510
  0
LINE
  8
10
 10
22345.9980
 20
5259.52490
 11
22345.9980
 21
5440.47510
  0
TEXT
  8
3
 7
SIMPLEX
 10
22765.2930
 20
5112.19775
 40
117.862030
  1
Strut
 50
90.0000153
  0
LINE
  8
1
 10
22524.5723
 20
3854.28442
 11
21865.3125
 21
3854.28442
  0
INSERT
  8
3
  2
MARKER
 10
22647.4297
 20
3880.00000
 41
1.00000000
 42
1.00000000
 43
1.00000000
 50
-89.999985
  0
TEXT
  8
3
 7
SIMPLEX
 10
22982.1582
 20
3467.48291
 40
117.862030
  1
FB832A(2)
 50
90.0000153
  0
TEXT
  8
3
 7
SIMPLEX
 10
885.883789
 20
3293.40088
 40
117.862030
  1
 CL2-1
 50
85.8634567
  0
TEXT
  8
3
 7
SIMPLEX
 10
2971.01782
 20
7118.71045
 40
117.862030
  1
 RF2-2
 50
16.4106712
  0
TEXT
  8
3
 7
SIMPLEX
 10
8119.53906
 20
8477.05469
 40
117.862030
  1
 RF2-3
 50
13.0671396
  0
TEXT
  8
3
 7
SIMPLEX
 10
13799.0732
 20
8634.27637
 40
117.862030
  1
 RF2-3
 50
-13.067138
  0
TEXT
  8
3
 7
SIMPLEX
 10
18957.9180
 20
7315.17334
 40
117.862030
  1
 RF2-2
 50
-16.410666
  0
TEXT
  8
3
 7
SIMPLEX
 10
21827.6758
 20
3301.90356
 40
117.862030
  1
 CL2-1
 50
94.1363907
  0
INSERT
  8
10
  2
ZCOL
 10
156.267548
 20
7126.56201
 41
8.00000000
 42
-6.3740149
 43
-6.3740149
 50
14.0362434
  0
INSERT
  8
10
  2
ZCOL
 10
22439.7324
 20
7126.56201
 41
-8.0000000
 42
-6.3740144
 43
-6.3740144
 50
-14.036242
  0
LINE
  8
12
 10
801.505981
 20
0.00000000
 11
889.902527
 21
0.00000000
  0
LINE
  8
12
 10
801.505981
 20
500.000000
 11
889.902527
 21
500.000000
  0
LINE
  8
2
 10
838.471863
 20
0.00000000
 11
838.471863
 21
500.000000
  0
INSERT
  8
2
  2
ARROWF
 10
838.471863
 20
0.00000000
 41
1.00000000
 42
1.00000000
 43
1.00000000
 50
270.000000
  0
INSERT
  8
2
  2
ARROWF
 10
838.471863
 20
500.000000
 41
1.00000000
 42
1.00000000
 43
1.00000000
 50
90.0000000
  0
TEXT
  8
11
 7
SIMPLEX
 10
799.184265
 20
73.2068253
 40
117.862030
  1
500
 50
90.0002060
  0
LINE
  8
2
 10
200.000137
 20
0.00000000
 11
723.824219
 21
0.00000000
  0
LINE
  8
2
 10
200.000137
 20
-56.573769
 11
256.573914
 21
0.00000000
  0
LINE
  8
2
 10
256.573914
 20
-56.573769
 11
313.147705
 21
0.00000000
  0
LINE
  8
2
 10
313.147705
 20
-56.573769
 11
369.721466
 21
0.00000000
  0
LINE
  8
2
 10
369.721466
 20
-56.573769
 11
426.295258
 21
0.00000000
  0
LINE
  8
2
 10
426.295258
 20
-56.573769
 11
482.869019
 21
0.00000000
  0
LINE
  8
2
 10
482.869019
 20
-56.573769
 11
539.442810
 21
0.00000000
  0
LINE
  8
2
 10
539.442810
 20
-56.573769
 11
596.016541
 21
0.00000000
  0
LINE
  8
2
 10
596.016541
 20
-56.573769
 11
652.590332
 21
0.00000000
  0
LINE
  8
2
 10
652.590332
 20
-56.573769
 11
709.164124
 21
0.00000000
  0
LINE
  8
12
 10
21794.4941
 20
0.00000000
 11
21706.0977
 21
0.00000000
  0
LINE
  8
12
 10
21794.4941
 20
500.000000
 11
21706.0977
 21
500.000000
  0
LINE
  8
2
 10
21757.5293
 20
0.00000000
 11
21757.5293
 21
500.000000
  0
INSERT
  8
2
  2
ARROWF
 10
21757.5293
 20
0.00000000
 41
1.00000000
 42
1.00000000
 43
1.00000000
 50
270.000000
  0
INSERT
  8
2
  2
ARROWF
 10
21757.5293
 20
500.000000
 41
1.00000000
 42
1.00000000
 43
1.00000000
 50
90.0000000
  0
TEXT
  8
11
 7
SIMPLEX
 10
21718.2422
 20
73.2068253
 40
117.862030
  1
500
 50
90.0002060
  0
LINE
  8
2
 10
21872.1758
 20
0.00000000
 11
22396.0000
 21
0.00000000
  0
LINE
  8
2
 10
21872.1758
 20
-56.573769
 11
21928.7500
 21
0.00000000
  0
LINE
  8
2
 10
21928.7500
 20
-56.573769
 11
21985.3223
 21
0.00000000
  0
LINE
  8
2
 10
21985.3223
 20
-56.573769
 11
22041.8965
 21
0.00000000
  0
LINE
  8
2
 10
22041.8965
 20
-56.573769
 11
22098.4688
 21
0.00000000
  0
LINE
  8
2
 10
22098.4688
 20
-56.573769
 11
22155.0430
 21
0.00000000
  0
LINE
  8
2
 10
22155.0430
 20
-56.573769
 11
22211.6152
 21
0.00000000
  0
LINE
  8
2
 10
22211.6152
 20
-56.573769
 11
22268.1895
 21
0.00000000
  0
LINE
  8
2
 10
22268.1895
 20
-56.573769
 11
22324.7617
 21
0.00000000
  0
LINE
  8
2
 10
22324.7617
 20
-56.573769
 11
22381.3359
 21
0.00000000
  0
LINE
  8
2
 10
0.00000000
 20
0.00000000
 11
22596.0000
 21
0.00000000
  0
LINE
  8
12
 10
1267.64075
 20
0.00000000
 11
1644.79919
 21
0.00000000
  0
LINE
  8
12
 10
1267.64075
 20
6765.39990
 11
1644.79919
 21
6765.39990
  0
LINE
  8
2
 10
1541.93787
 20
0.00000000
 11
1541.93787
 21
6765.39990
  0
INSERT
  8
2
  2
ARROWF
 10
1541.93787
 20
6765.39990
 41
1.00000000
 42
1.00000000
 43
1.00000000
 50
90.0000000
  0
INSERT
  8
2
  2
ARROWF
 10
1541.93787
 20
0.00000000
 41
1.00000000
 42
1.00000000
 43
1.00000000
 50
-90.000000
  0
TEXT
  8
11
 7
SIMPLEX
 10
1512.47229
 20
3146.97607
 40
117.862030
  1
6765
 50
90.0000000
  0
TEXT
  8
11
 7
SIMPLEX
 10
1689.26538
 20
2858.21411
 40
117.862030
  1
CLEAR +/-
 50
90.0000000
  0
LINE
  8
12
 10
21328.3594
 20
0.00000000
 11
20951.2012
 21
0.00000000
  0
LINE
  8
12
 10
21328.3594
 20
6765.39990
 11
20951.2012
 21
6765.39990
  0
LINE
  8
2
 10
21054.0625
 20
0.00000000
 11
21054.0625
 21
6765.39990
  0
INSERT
  8
2
  2
ARROWF
 10
21054.0625
 20
6765.39990
 41
1.00000000
 42
1.00000000
 43
1.00000000
 50
90.0000000
  0
INSERT
  8
2
  2
ARROWF
 10
21054.0625
 20
0.00000000
 41
1.00000000
 42
1.00000000
 43
1.00000000
 50
-90.000000
  0
TEXT
  8
11
 7
SIMPLEX
 10
21024.5977
 20
3146.97607
 40
117.862030
  1
6765
 50
90.0000000
  0
TEXT
  8
11
 7
SIMPLEX
 10
21201.3906
 20
2858.21411
 40
117.862030
  1
CLEAR +/-
 50
90.0000000
  0
LINE
  8
12
 10
11108.2764
 20
0.00000000
 11
10636.8291
 21
0.00000000
  0
LINE
  8
12
 10
11108.2764
 20
9349.00000
 11
10636.8291
 21
9349.00000
  0
LINE
  8
2
 10
10842.5518
 20
0.00000000
 11
10842.5518
 21
9349.00000
  0
INSERT
  8
2
  2
ARROWF
 10
10842.5518
 20
9349.00000
 41
1.00000000
 42
1.00000000
 43
1.00000000
 50
90.0000000
  0
INSERT
  8
2
  2
ARROWF
 10
10842.5518
 20
0.00000000
 41
1.00000000
 42
1.00000000
 43
1.00000000
 50
-90.000000
  0
TEXT
  8
11
 7
SIMPLEX
 10
10813.0859
 20
4438.77588
 40
117.862030
  1
9349
 50
90.0000000
  0
TEXT
  8
11
 7
SIMPLEX
 10
10989.8799
 20
4150.01416
 40
117.862030
  1
CLEAR +/-
 50
90.0000000
  0
LINE
  8
12
 10
200.000000
 20
-205.72279
 11
200.000000
 21
-677.17090
  0
LINE
  8
12
 10
936.942871
 20
-205.72279
 11
936.942871
 21
-677.17090
  0
LINE
  8
2
 10
200.000000
 20
-620.59717
 11
936.942871
 21
-620.59717
  0
INSERT
  8
2
  2
ARROWF
 10
936.942871
 20
-620.59717
 41
1.00000000
 42
1.00000000
 43
1.00000000
 50
0.00000000
  0
INSERT
  8
2
  2
ARROWF
 10
200.000000
 20
-620.59717
 41
1.00000000
 42
1.00000000
 43
1.00000000
 50
180.000000
  0
TEXT
  8
11
 7
SIMPLEX
 10
966.408447
 20
-581.30981
 40
117.862030
  1
713
 50
0.00000000
  0
LINE
  8
12
 10
21659.0566
 20
-205.72279
 11
21659.0566
 21
-677.17090
  0
LINE
  8
12
 10
22396.0000
 20
-205.72279
 11
22396.0000
 21
-677.17090
  0
LINE
  8
2
 10
22396.0000
 20
-620.59717
 11
21659.0566
 21
-620.59717
  0
INSERT
  8
2
  2
ARROWF
 10
21659.0566
 20
-620.59717
 41
1.00000000
 42
1.00000000
 43
1.00000000
 50
180.000000
  0
INSERT
  8
2
  2
ARROWF
 10
22396.0000
 20
-620.59717
 41
1.00000000
 42
1.00000000
 43
1.00000000
 50
0.00000000
  0
TEXT
  8
11
 7
SIMPLEX
 10
21217.0742
 20
-581.30981
 40
117.862030
  1
713
 50
0.00000000
  0
LINE
  8
12
 10
936.942871
 20
-205.72279
 11
936.942871
 21
-677.17090
  0
LINE
  8
12
 10
21659.0566
 20
-205.72279
 11
21659.0566
 21
-677.17090
  0
LINE
  8
2
 10
936.942871
 20
-620.59717
 11
21659.0566
 21
-620.59717
  0
INSERT
  8
2
  2
ARROWF
 10
936.942871
 20
-620.59717
 41
1.00000000
 42
1.00000000
 43
1.00000000
 50
180.000000
  0
INSERT
  8
2
  2
ARROWF
 10
21659.0566
 20
-620.59717
 41
1.00000000
 42
1.00000000
 43
1.00000000
 50
0.00000000
  0
TEXT
  8
11
 7
SIMPLEX
 10
11003.3457
 20
-581.30981
 40
117.862030
  1
20770
 50
0.00000000
  0
TEXT
  8
11
 7
SIMPLEX
 10
10773.5146
 20
-777.74255
 40
117.862030
  1
CLEAR +/-
 50
0.00000000
  0
LINE
  8
12
 10
0.00000000
 20
-323.58484
 11
0.00000000
 21
-1794.5028
  0
CIRCLE
  8
13
 10
0.00000000
 20
-2077.3716
 40
141.434433
  0
TEXT
  8
13
 7
SIMPLEX
 10
-63.645496
 20
-2141.0171
 40
127.290993
  1
D
 72
           1
 11
0.00000000
 21
-2077.3716
 73
           2
 50
   0.000
  0
LINE
  8
12
 10
0.00000000
 20
-1935.9373
 11
0.00000000
 21
-620.59717
  0
LINE
  8
12
 10
22596.0000
 20
-323.58484
 11
22596.0000
 21
-1794.5028
  0
CIRCLE
  8
13
 10
22596.0000
 20
-2077.3716
 40
141.434433
  0
TEXT
  8
13
 7
SIMPLEX
 10
22532.3555
 20
-2141.0171
 40
127.290993
  1
A
 72
           1
 11
22596.0000
 21
-2077.3716
 73
           2
 50
   0.000
  0
LINE
  8
12
 10
22596.0000
 20
-1935.9373
 11
22596.0000
 21
-620.59717
  0
LINE
  8
2
 10
0.00000000
 20
-1737.9292
 11
22596.0000
 21
-1737.9292
  0
INSERT
  8
2
  2
ARROWF
 10
0.00000000
 20
-1737.9292
 41
1.00000000
 42
1.00000000
 43
1.00000000
 50
180.000000
  0
INSERT
  8
2
  2
ARROWF
 10
22596.0000
 20
-1737.9292
 41
1.00000000
 42
1.00000000
 43
1.00000000
 50
0.00000000
  0
TEXT
  8
11
 7
SIMPLEX
 10
9913.12109
 20
-1708.4637
 40
117.862030
  1
22596 OUT-TO-OUT OF STEEL
 50
0.00000000
  0
TEXT
  8
15
 7
SIMPLEX
 10
7832.85645
 20
-2501.6748
 40
188.579239
  1
RIGID FRAME ELEVATION: FRAME LINE 2  3  4
 72
           1
 11
11298.0000
 21
-2501.6748
 50
   0.000
  0
LINE
  8
2
 10
-176.79301
 20
-620.59717
 11
0.00000000
 21
-620.59717
  0
LINE
  8
2
 10
200.000000
 20
-620.59717
 11
376.793030
 21
-620.59717
  0
LINE
  8
12
 10
0.00000000
 20
-205.72279
 11
0.00000000
 21
-677.17090
  0
LINE
  8
12
 10
200.000000
 20
-205.72279
 11
200.000000
 21
-677.17090
  0
INSERT
  8
2
  2
ARROWF
 10
0.00000000
 20
-620.59717
 41
1.00000000
 42
1.00000000
 43
1.00000000
 50
0.00000000
  0
INSERT
  8
2
  2
ARROWF
 10
200.000000
 20
-620.59717
 41
1.00000000
 42
1.00000000
 43
1.00000000
 50
180.000000
  0
TEXT
  8
11
 7
SIMPLEX
 10
-392.87341
 20
-581.30981
 40
117.862030
  1
200
 50
0.00000000
  0
LINE
  8
2
 10
22396.0000
 20
-620.59717
 11
22219.2070
 21
-620.59717
  0
LINE
  8
2
 10
22772.7930
 20
-620.59717
 11
22596.0000
 21
-620.59717
  0
LINE
  8
12
 10
22596.0000
 20
-205.72279
 11
22596.0000
 21
-677.17090
  0
LINE
  8
12
 10
22396.0000
 20
-205.72279
 11
22396.0000
 21
-677.17090
  0
INSERT
  8
2
  2
ARROWF
 10
22596.0000
 20
-620.59717
 41
1.00000000
 42
1.00000000
 43
1.00000000
 50
180.000000
  0
INSERT
  8
2
  2
ARROWF
 10
22396.0000
 20
-620.59717
 41
1.00000000
 42
1.00000000
 43
1.00000000
 50
0.00000000
  0
TEXT
  8
11
 7
SIMPLEX
 10
22635.2871
 20
-581.30981
 40
117.862030
  1
200
 50
0.00000000
  0
LINE
  8
12
 10
-677.30591
 20
0.00000000
 11
-1659.4855
 21
0.00000000
  0
LINE
  8
2
 10
-1620.2020
 20
0.00000000
 11
-1620.2020
 21
7300.00000
  0
INSERT
  8
2
  2
ARROWF
 10
-1620.2020
 20
0.00000000
 41
1.00000000
 42
1.00000000
 43
1.00000000
 50
270.000000
  0
TEXT
  8
11
 7
SIMPLEX
 10
-1659.4956
 20
1704.27563
 40
117.862030
  1
3880
 50
90.0002060
  0
LINE
  8
12
 10
-677.30591
 20
3880.00000
 11
-1659.4855
 21
3880.00000
  0
INSERT
  8
2
  2
ARROWF
 10
-1620.2020
 20
3880.00000
 41
1.00000000
 42
1.00000000
 43
1.00000000
 50
90.0000000
  0
INSERT
  8
2
  2
ARROWF
 10
-1620.2020
 20
0.00000000
 41
1.00000000
 42
1.00000000
 43
1.00000000
 50
270.000000
  0
TEXT
  8
11
 7
SIMPLEX
 10
-1659.4913
 20
4383.74170
 40
117.862030
  1
1420
 50
90.0002060
  0
LINE
  8
12
 10
-677.30591
 20
5300.00000
 11
-1659.4855
 21
5300.00000
  0
INSERT
  8
2
  2
ARROWF
 10
-1620.2020
 20
5300.00000
 41
1.00000000
 42
1.00000000
 43
1.00000000
 50
90.0000000
  0
INSERT
  8
2
  2
ARROWF
 10
-1620.2020
 20
3880.00000
 41
1.00000000
 42
1.00000000
 43
1.00000000
 50
270.000000
  0
TEXT
  8
11
 7
SIMPLEX
 10
-1659.4910
 20
5693.74121
 40
117.862030
  1
1200
 50
90.0002060
  0
LINE
  8
12
 10
-677.30591
 20
6500.00000
 11
-1659.4855
 21
6500.00000
  0
INSERT
  8
2
  2
ARROWF
 10
-1620.2020
 20
6500.00000
 41
1.00000000
 42
1.00000000
 43
1.00000000
 50
90.0000000
  0
INSERT
  8
2
  2
ARROWF
 10
-1620.2020
 20
5300.00000
 41
1.00000000
 42
1.00000000
 43
1.00000000
 50
270.000000
  0
TEXT
  8
11
 7
SIMPLEX
 10
-1659.4901
 20
6723.20752
 40
117.862030
  1
800
 50
90.0002060
  0
LINE
  8
12
 10
-677.30591
 20
7300.00000
 11
-1659.4855
 21
7300.00000
  0
INSERT
  8
2
  2
ARROWF
 10
-1620.2020
 20
7300.00000
 41
1.00000000
 42
1.00000000
 43
1.00000000
 50
90.0000000
  0
INSERT
  8
2
  2
ARROWF
 10
-1620.2020
 20
6500.00000
 41
1.00000000
 42
1.00000000
 43
1.00000000
 50
270.000000
  0
LINE
  8
12
 10
-1954.1406
 20
7300.00000
 11
-677.30591
 21
7300.00000
  0
LINE
  8
2
 10
-1914.8572
 20
0.00000000
 11
-1914.8572
 21
7300.00000
  0
TEXT
  8
11
 7
SIMPLEX
 10
-1954.1447
 20
3335.70142
 40
117.862030
  1
7300
 50
90.0002060
  0
LINE
  8
12
 10
-1954.1406
 20
0.00000000
 11
-677.30591
 21
0.00000000
  0
INSERT
  8
2
  2
ARROWF
 10
-1914.8572
 20
7300.00000
 41
1.00000000
 42
1.00000000
 43
1.00000000
 50
90.0000000
  0
INSERT
  8
2
  2
ARROWF
 10
-1914.8572
 20
0.00000000
 41
1.00000000
 42
1.00000000
 43
1.00000000
 50
270.000000
  0
LINE
  8
12
 10
23273.3066
 20
0.00000000
 11
24255.4863
 21
0.00000000
  0
LINE
  8
2
 10
24216.2012
 20
0.00000000
 11
24216.2012
 21
7300.00000
  0
INSERT
  8
2
  2
ARROWF
 10
24216.2012
 20
0.00000000
 41
1.00000000
 42
1.00000000
 43
1.00000000
 50
270.000000
  0
TEXT
  8
11
 7
SIMPLEX
 10
24176.9082
 20
1704.27563
 40
117.862030
  1
3880
 50
90.0002060
  0
LINE
  8
12
 10
23273.3066
 20
3880.00000
 11
24255.4863
 21
3880.00000
  0
INSERT
  8
2
  2
ARROWF
 10
24216.2012
 20
3880.00000
 41
1.00000000
 42
1.00000000
 43
1.00000000
 50
90.0000000
  0
INSERT
  8
2
  2
ARROWF
 10
24216.2012
 20
0.00000000
 41
1.00000000
 42
1.00000000
 43
1.00000000
 50
270.000000
  0
TEXT
  8
11
 7
SIMPLEX
 10
24176.9121
 20
4383.74170
 40
117.862030
  1
1420
 50
90.0002060
  0
LINE
  8
12
 10
23273.3066
 20
5300.00000
 11
24255.4863
 21
5300.00000
  0
INSERT
  8
2
  2
ARROWF
 10
24216.2012
 20
5300.00000
 41
1.00000000
 42
1.00000000
 43
1.00000000
 50
90.0000000
  0
INSERT
  8
2
  2
ARROWF
 10
24216.2012
 20
3880.00000
 41
1.00000000
 42
1.00000000
 43
1.00000000
 50
270.000000
  0
TEXT
  8
11
 7
SIMPLEX
 10
24176.9121
 20
5693.74121
 40
117.862030
  1
1200
 50
90.0002060
  0
LINE
  8
12
 10
23273.3066
 20
6500.00000
 11
24255.4863
 21
6500.00000
  0
INSERT
  8
2
  2
ARROWF
 10
24216.2012
 20
6500.00000
 41
1.00000000
 42
1.00000000
 43
1.00000000
 50
90.0000000
  0
INSERT
  8
2
  2
ARROWF
 10
24216.2012
 20
5300.00000
 41
1.00000000
 42
1.00000000
 43
1.00000000
 50
270.000000
  0
TEXT
  8
11
 7
SIMPLEX
 10
24176.9121
 20
6723.20752
 40
117.862030
  1
800
 50
90.0002060
  0
LINE
  8
12
 10
23273.3066
 20
7300.00000
 11
24255.4863
 21
7300.00000
  0
INSERT
  8
2
  2
ARROWF
 10
24216.2012
 20
7300.00000
 41
1.00000000
 42
1.00000000
 43
1.00000000
 50
90.0000000
  0
INSERT
  8
2
  2
ARROWF
 10
24216.2012
 20
6500.00000
 41
1.00000000
 42
1.00000000
 43
1.00000000
 50
270.000000
  0
LINE
  8
12
 10
24550.1406
 20
7300.00000
 11
23273.3066
 21
7300.00000
  0
LINE
  8
2
 10
24510.8574
 20
0.00000000
 11
24510.8574
 21
7300.00000
  0
TEXT
  8
11
 7
SIMPLEX
 10
24471.5703
 20
3335.70142
 40
117.862030
  1
7300
 50
90.0002060
  0
LINE
  8
12
 10
24550.1406
 20
0.00000000
 11
23273.3066
 21
0.00000000
  0
INSERT
  8
2
  2
ARROWF
 10
24510.8574
 20
7300.00000
 41
1.00000000
 42
1.00000000
 43
1.00000000
 50
90.0000000
  0
INSERT
  8
2
  2
ARROWF
 10
24510.8574
 20
0.00000000
 41
1.00000000
 42
1.00000000
 43
1.00000000
 50
270.000000
  0
LINE
  8
12
 10
-108.85970
 20
7735.43848
 11
-362.49316
 21
8749.97266
  0
INSERT
  8
2
  2
ARROWF
 10
-337.54556
 20
8650.18164
 41
1.00000000
 42
1.00000000
 43
1.00000000
 50
194.036240
  0
LINE
  8
12
 10
10898.0859
 20
10487.1748
 11
10644.4521
 21
11501.7090
  0
INSERT
  8
2
  2
ARROWF
 10
10669.4004
 20
11401.9180
 41
1.00000000
 42
1.00000000
 43
1.00000000
 50
14.0362434
  0
TEXT
  8
11
 7
SIMPLEX
 10
4756.15088
 20
9964.10156
 40
117.862030
  1
7 @ 1621
 50
14.0362434
  0
INSERT
  8
2
  2
ARROWF
 10
10669.4004
 20
11401.9180
 41
1.00000000
 42
1.00000000
 43
1.00000000
 50
194.036240
  0
LINE
  8
12
 10
11189.1396
 20
10559.9385
 11
10935.5068
 21
11574.4727
  0
INSERT
  8
2
  2
ARROWF
 10
10960.4551
 20
11474.6816
 41
1.00000000
 42
1.00000000
 43
1.00000000
 50
14.0362434
  0
TEXT
  8
11
 7
SIMPLEX
 10
10569.7822
 20
11417.5098
 40
117.862030
  1
300
 50
14.0362434
  0
LINE
  8
2
 10
-337.54556
 20
8650.18164
 11
10960.4551
 21
11474.6816
  0
LINE
  8
2
 10
-194.61690
 20
8078.46826
 11
-448.25031
 21
9093.00195
  0
INSERT
  8
2
  2
ARROWF
 10
-423.30280
 20
8993.21094
 41
1.00000000
 42
1.00000000
 43
1.00000000
 50
194.036240
  0
LINE
  8
2
 10
11103.3838
 20
10902.9678
 11
10849.7500
 21
11917.5020
  0
INSERT
  8
2
  2
ARROWF
 10
10874.6973
 20
11817.7109
 41
1.00000000
 42
1.00000000
 43
1.00000000
 50
14.0362434
  0
LINE
  8
2
 10
-423.30280
 20
8993.21094
 11
10874.6973
 21
11817.7109
  0
TEXT
  8
11
 7
SIMPLEX
 10
4987.48291
 20
10386.4043
 40
117.862030
  1
11646
 50
14.0362434
  0
LINE
  8
12
 10
11406.8604
 20
10559.9385
 11
11660.4932
 21
11574.4727
  0
INSERT
  8
2
  2
ARROWF
 10
11635.5459
 20
11474.6816
 41
1.00000000
 42
1.00000000
 43
1.00000000
 50
165.963760
  0
LINE
  8
12
 10
11697.9033
 20
10487.1777
 11
11951.5361
 21
11501.7119
  0
INSERT
  8
2
  2
ARROWF
 10
11926.5889
 20
11401.9209
 41
1.00000000
 42
1.00000000
 43
1.00000000
 50
-14.036242
  0
TEXT
  8
11
 7
SIMPLEX
 10
11683.1895
 20
11503.2666
 40
117.862030
  1
300
 50
-14.036242
  0
INSERT
  8
2
  2
ARROWF
 10
11926.5889
 20
11401.9209
 41
1.00000000
 42
1.00000000
 43
1.00000000
 50
165.963760
  0
LINE
  8
12
 10
22704.8594
 20
7735.43848
 11
22958.4922
 21
8749.97266
  0
INSERT
  8
2
  2
ARROWF
 10
22933.5449
 20
8650.18164
 41
1.00000000
 42
1.00000000
 43
1.00000000
 50
-14.036242
  0
TEXT
  8
11
 7
SIMPLEX
 10
17039.3809
 20
10164.2188
 40
117.862030
  1
7 @ 1621
 50
-14.036242
  0
LINE
  8
2
 10
11635.5459
 20
11474.6816
 11
22933.5449
 21
8650.18164
  0
LINE
  8
2
 10
11492.6172
 20
10902.9678
 11
11746.2500
 21
11917.5020
  0
INSERT
  8
2
  2
ARROWF
 10
11721.3027
 20
11817.7109
 41
1.00000000
 42
1.00000000
 43
1.00000000
 50
165.963760
  0
LINE
  8
2
 10
22790.6172
 20
8078.46826
 11
23044.2500
 21
9093.00195
  0
INSERT
  8
2
  2
ARROWF
 10
23019.3027
 20
8993.21094
 41
1.00000000
 42
1.00000000
 43
1.00000000
 50
-14.036242
  0
LINE
  8
2
 10
11721.3027
 20
11817.7109
 11
23019.3027
 21
8993.21094
  0
TEXT
  8
11
 7
SIMPLEX
 10
17151.1445
 20
10500.7461
 40
117.862030
  1
11646
 50
-14.036242
  0
LINE
  8
2
 10
10177.8643
 20
10026.7002
 11
10220.7422
 21
9855.18555
  0
LINE
  8
2
 10
10312.1289
 20
9489.64355
 11
10269.2500
 21
9661.15723
  0
INSERT
  8
2
  2
ARROWF
 10
10220.7422
 20
9855.18555
 41
1.00000000
 42
1.00000000
 43
1.00000000
 50
284.036255
  0
INSERT
  8
2
  2
ARROWF
 10
10269.2500
 20
9661.15723
 41
1.00000000
 42
1.00000000
 43
1.00000000
 50
104.036240
  0
TEXT
  8
11
 7
SIMPLEX
 10
10173.0996
 20
9883.77051
 40
117.862030
  1
200
 50
104.036240
  0
LINE
  8
2
 10
12418.1250
 20
10026.7021
 11
12375.2461
 21
9855.18848
  0
LINE
  8
2
 10
12283.8604
 20
9489.64551
 11
12326.7393
 21
9661.16016
  0
INSERT
  8
2
  2
ARROWF
 10
12375.2461
 20
9855.18848
 41
1.00000000
 42
1.00000000
 43
1.00000000
 50
255.963760
  0
INSERT
  8
2
  2
ARROWF
 10
12326.7393
 20
9661.16016
 41
1.00000000
 42
1.00000000
 43
1.00000000
 50
75.9637604
  0
TEXT
  8
11
 7
SIMPLEX
 10
12346.6611
 20
9902.83105
 40
117.862030
  1
200
 50
75.9637527
  0
INSERT
  8
7
  2
CUTFRM
 10
58.9519501
 20
7080.47559
 41
1.00000000
 42
41.6652985
 43
41.6652985
 50
90.0000000
  0
CIRCLE
  8
7
 10
-35.337673
 20
7080.47803
 40
94.2896195
  0
TEXT
  8
7
 7
SIMPLEX
 10
-110.76938
 20
7042.76221
 40
75.4317017
  1
U5
 72
           1
 11
-35.337673
 21
7042.76221
 50
   0.000
  0
INSERT
  8
7
  2
ARROWPF
 10
1117.24573
 20
6901.29736
 41
1.00000000
 42
1.00000000
 43
1.00000000
 50
270.000000
  0
INSERT
  8
7
  2
CUTFRM
 10
4894.00977
 20
7702.01025
 41
1.00000000
 42
29.0556965
 43
29.0556965
 50
194.036240
  0
CIRCLE
  8
7
 10
4916.87305
 20
7610.53418
 40
94.2896195
  0
TEXT
  8
7
 7
SIMPLEX
 10
4854.64209
 20
7572.81836
 40
75.4317017
  1
U1
 72
           1
 11
4916.87305
 21
7572.81836
 50
   0.000
  0
INSERT
  8
7
  2
ARROWPF
 10
4888.85938
 20
8461.44043
 41
1.00000000
 42
1.00000000
 43
1.00000000
 50
374.036255
  0
INSERT
  8
7
  2
CUTFRM
 10
10752.8984
 20
9104.81641
 41
1.00000000
 42
31.4205513
 43
31.4205513
 50
194.036240
  0
CIRCLE
  8
7
 10
10775.7627
 20
9013.34082
 40
94.2896195
  0
TEXT
  8
7
 7
SIMPLEX
 10
10700.3301
 20
8975.62500
 40
75.4317017
  1
U2
 72
           1
 11
10775.7627
 21
8975.62500
 50
   0.000
  0
INSERT
  8
7
  2
ARROWPF
 10
10733.1836
 20
9922.52148
 41
1.00000000
 42
1.00000000
 43
1.00000000
 50
374.036255
  0
INSERT
  8
7
  2
CUTFRM
 10
22537.0508
 20
7080.45752
 41
-1.0000000
 42
41.6653443
 43
41.6653443
 50
270.000000
  0
CIRCLE
  8
7
 10
22631.3398
 20
7080.44971
 40
94.2896195
  0
TEXT
  8
7
 7
SIMPLEX
 10
22555.9102
 20
7042.73389
 40
75.4317017
  1
U5
 72
           1
 11
22631.3398
 21
7042.73389
 50
   0.000
  0
INSERT
  8
7
  2
ARROWPF
 10
21478.7363
 20
6901.39160
 41
-1.0000000
 42
1.00000000
 43
1.00000000
 50
450.000000
  0
INSERT
  8
7
  2
CUTFRM
 10
667.250427
 20
1037.45557
 41
-1.0000000
 42
23.9488411
 43
23.9488411
 50
-90.000000
  0
CIRCLE
  8
7
 10
761.540100
 20
1037.45813
 40
94.2896195
  0
TEXT
  8
7
 7
SIMPLEX
 10
686.108398
 20
999.742249
 40
75.4317017
  1
R2
 72
           1
 11
761.540100
 21
999.742249
 50
   0.000
  0
INSERT
  8
7
  2
ARROWPF
 10
58.9545975
 20
858.289246
 41
-1.0000000
 42
1.00000000
 43
1.00000000
 50
90.0000000
  0
INSERT
  8
7
  2
CUTFRM
 10
21928.7500
 20
1037.45557
 41
1.00000000
 42
23.9488506
 43
23.9488506
 50
90.0000000
  0
CIRCLE
  8
7
 10
21834.4590
 20
1037.45813
 40
94.2896195
  0
TEXT
  8
7
 7
SIMPLEX
 10
21759.0273
 20
999.742249
 40
75.4317017
  1
R2
 72
           1
 11
21834.4590
 21
999.742249
 50
   0.000
  0
INSERT
  8
7
  2
ARROWPF
 10
22537.0449
 20
858.289246
 41
1.00000000
 42
1.00000000
 43
1.00000000
 50
270.000000
  0
LINE
  8
1
 10
-733.42145
 20
9615.21973
 11
5798.83838
 21
11248.2852
  0
LINE
  8
1
 10
-742.66211
 20
9652.18262
 11
5789.59814
 21
11285.2480
  0
LINE
  8
1
 10
-733.42145
 20
9615.21973
 11
-742.66211
 21
9652.18262
  0
LINE
  8
1
 10
5798.83838
 20
11248.2852
 11
5789.59814
 21
11285.2480
  0
TEXT
  8
15
 7
SIMPLEX
 10
-390.40115
 20
9538.99316
 40
117.862030
  1
0.45mm 4033, NEED ROOF COLOR
 50
14.0362434
  0
TEXT
  8
11
 7
SIMPLEX
 10
2278.88867
 20
10449.2578
 40
117.862030
  1
6730
 50
14.0362434
  0
LINE
  8
12
 10
-755.13586
 20
9702.07715
 11
-792.29730
 21
9850.72363
  0
LINE
  8
12
 10
-609.61444
 20
9738.45801
 11
-646.77588
 21
9887.10449
  0
LINE
  8
2
 10
-951.33789
 20
9757.94922
 11
-779.82355
 21
9800.82813
  0
LINE
  8
2
 10
-634.30212
 20
9837.20898
 11
-462.78769
 21
9880.08789
  0
INSERT
  8
2
  2
ARROWF
 10
-779.82355
 20
9800.82813
 41
1.00000000
 42
1.00000000
 43
1.00000000
 50
374.036255
  0
INSERT
  8
2
  2
ARROWF
 10
-634.30212
 20
9837.20898
 41
1.00000000
 42
1.00000000
 43
1.00000000
 50
194.036240
  0
TEXT
  8
11
 7
SIMPLEX
 10
-643.82971
 20
9875.31934
 40
117.862030
  1
150
 50
14.0362434
  0
LINE
  8
12
 10
5714.29834
 20
11174.1367
 11
5751.45898
 21
11025.4912
  0
LINE
  8
12
 10
5811.31201
 20
11198.3906
 11
5848.47363
 21
11049.7451
  0
LINE
  8
2
 10
5567.47119
 20
11032.5078
 11
5738.98584
 21
11075.3867
  0
LINE
  8
2
 10
5836.00000
 20
11099.6406
 11
6007.51416
 21
11142.5186
  0
INSERT
  8
2
  2
ARROWF
 10
5738.98584
 20
11075.3867
 41
1.00000000
 42
1.00000000
 43
1.00000000
 50
374.036255
  0
INSERT
  8
2
  2
ARROWF
 10
5836.00000
 20
11099.6406
 41
1.00000000
 42
1.00000000
 43
1.00000000
 50
194.036240
  0
TEXT
  8
11
 7
SIMPLEX
 10
5588.25586
 20
10875.7217
 40
117.862030
  1
100
 50
14.0362434
  0
LINE
  8
1
 10
5567.84766
 20
11347.6270
 11
10673.1270
 21
12623.9482
  0
LINE
  8
1
 10
5558.60693
 20
11384.5898
 11
10663.8857
 21
12660.9111
  0
LINE
  8
1
 10
5567.84766
 20
11347.6270
 11
5558.60693
 21
11384.5898
  0
LINE
  8
1
 10
10673.1270
 20
12623.9482
 11
10663.8857
 21
12660.9111
  0
TEXT
  8
11
 7
SIMPLEX
 10
7867.10352
 20
12003.4014
 40
117.862030
  1
5260
 50
14.0362434
  0
LINE
  8
12
 10
5546.13330
 20
11434.4844
 11
5508.97217
 21
11583.1309
  0
LINE
  8
12
 10
5643.14795
 20
11458.7383
 11
5605.98633
 21
11607.3848
  0
LINE
  8
2
 10
5349.93164
 20
11490.3564
 11
5521.44580
 21
11533.2354
  0
LINE
  8
2
 10
5618.45996
 20
11557.4893
 11
5789.97461
 21
11600.3682
  0
INSERT
  8
2
  2
ARROWF
 10
5521.44580
 20
11533.2354
 41
1.00000000
 42
1.00000000
 43
1.00000000
 50
374.036255
  0
INSERT
  8
2
  2
ARROWF
 10
5618.45996
 20
11557.4893
 41
1.00000000
 42
1.00000000
 43
1.00000000
 50
194.036240
  0
TEXT
  8
11
 7
SIMPLEX
 10
5608.93164
 20
11595.5996
 40
117.862030
  1
100
 50
14.0362434
  0
LINE
  8
12
 10
10394.5576
 20
12501.2930
 11
10431.7188
 21
12352.6465
  0
LINE
  8
12
 10
10685.6006
 20
12574.0537
 11
10722.7617
 21
12425.4072
  0
LINE
  8
2
 10
10419.2451
 20
12402.5420
 11
10710.2881
 21
12475.3027
  0
INSERT
  8
2
  2
ARROWF
 10
10419.2451
 20
12402.5420
 41
1.00000000
 42
1.00000000
 43
1.00000000
 50
194.036240
  0
INSERT
  8
2
  2
ARROWF
 10
10710.2881
 20
12475.3027
 41
1.00000000
 42
1.00000000
 43
1.00000000
 50
14.0362434
  0
TEXT
  8
11
 7
SIMPLEX
 10
10405.3721
 20
12237.0918
 40
117.862030
  1
300
 50
14.0362434
  0
LINE
  8
1
 10
11922.8623
 20
12623.9492
 11
17028.1406
 21
11347.6309
  0
LINE
  8
1
 10
11932.1035
 20
12660.9121
 11
17037.3809
 21
11384.5938
  0
LINE
  8
1
 10
11922.8623
 20
12623.9492
 11
11932.1035
 21
12660.9121
  0
LINE
  8
1
 10
17028.1406
 20
11347.6309
 11
17037.3809
 21
11384.5938
  0
TEXT
  8
11
 7
SIMPLEX
 10
14269.1836
 20
12118.3291
 40
117.862030
  1
5260
 50
-14.036242
  0
LINE
  8
12
 10
11910.3887
 20
12574.0547
 11
11873.2275
 21
12425.4092
  0
LINE
  8
12
 10
12201.4316
 20
12501.2939
 11
12164.2705
 21
12352.6484
  0
LINE
  8
2
 10
11885.7012
 20
12475.3047
 11
12176.7441
 21
12402.5439
  0
INSERT
  8
2
  2
ARROWF
 10
11885.7012
 20
12475.3047
 41
1.00000000
 42
1.00000000
 43
1.00000000
 50
165.963760
  0
INSERT
  8
2
  2
ARROWF
 10
12176.7441
 20
12402.5439
 41
1.00000000
 42
1.00000000
 43
1.00000000
 50
-14.036242
  0
TEXT
  8
11
 7
SIMPLEX
 10
11904.7598
 20
12308.5576
 40
117.862030
  1
300
 50
-14.036242
  0
LINE
  8
12
 10
16952.8418
 20
11458.7412
 11
16990.0039
 21
11607.3877
  0
LINE
  8
12
 10
17049.8555
 20
11434.4883
 11
17087.0176
 21
11583.1338
  0
LINE
  8
2
 10
16806.0137
 20
11600.3711
 11
16977.5293
 21
11557.4922
  0
LINE
  8
2
 10
17074.5430
 20
11533.2383
 11
17246.0586
 21
11490.3594
  0
INSERT
  8
2
  2
ARROWF
 10
16977.5293
 20
11557.4922
 41
1.00000000
 42
1.00000000
 43
1.00000000
 50
345.963745
  0
INSERT
  8
2
  2
ARROWF
 10
17074.5430
 20
11533.2383
 41
1.00000000
 42
1.00000000
 43
1.00000000
 50
165.963760
  0
TEXT
  8
11
 7
SIMPLEX
 10
16701.2012
 20
11667.0674
 40
117.862030
  1
100
 50
-14.036242
  0
TEXT
  8
15
 7
SIMPLEX
 10
11038.7031
 20
13133.6338
 40
117.862030
  1
RC-01
 50
0.00000000
  0
LINE
  8
1
 10
11298.0000
 20
13094.3467
 11
10466.4150
 21
12886.4492
  0
LINE
  8
1
 10
10466.4150
 20
12886.4492
 11
10457.1748
 21
12849.4873
  0
LINE
  8
1
 10
11298.0000
 20
13094.3467
 11
12129.5850
 21
12886.4492
  0
LINE
  8
1
 10
12129.5850
 20
12886.4492
 11
12138.8252
 21
12849.4873
  0
LINE
  8
1
 10
10457.1748
 20
12849.4873
 11
11298.0000
 21
13059.6943
  0
LINE
  8
1
 10
12138.8252
 20
12849.4873
 11
11298.0000
 21
13059.6943
  0
LINE
  8
1
 10
16797.1504
 20
11248.2881
 11
23329.4219
 21
9615.21973
  0
LINE
  8
1
 10
16806.3887
 20
11285.2510
 11
23338.6621
 21
9652.18262
  0
LINE
  8
1
 10
16797.1504
 20
11248.2881
 11
16806.3887
 21
11285.2510
  0
LINE
  8
1
 10
23329.4219
 20
9615.21973
 11
23338.6621
 21
9652.18262
  0
TEXT
  8
11
 7
SIMPLEX
 10
19856.5254
 20
10564.4043
 40
117.862030
  1
6730
 50
-14.036242
  0
LINE
  8
12
 10
16784.6738
 20
11198.3936
 11
16747.5117
 21
11049.7480
  0
LINE
  8
12
 10
16881.6895
 20
11174.1406
 11
16844.5273
 21
11025.4941
  0
LINE
  8
2
 10
16588.4707
 20
11142.5225
 11
16759.9863
 21
11099.6436
  0
LINE
  8
2
 10
16857.0000
 20
11075.3896
 11
17028.5156
 21
11032.5107
  0
INSERT
  8
2
  2
ARROWF
 10
16759.9863
 20
11099.6436
 41
1.00000000
 42
1.00000000
 43
1.00000000
 50
345.963745
  0
INSERT
  8
2
  2
ARROWF
 10
16857.0000
 20
11075.3896
 41
1.00000000
 42
1.00000000
 43
1.00000000
 50
165.963760
  0
TEXT
  8
11
 7
SIMPLEX
 10
16779.0430
 20
10932.8965
 40
117.862030
  1
100
 50
-14.036242
  0
LINE
  8
12
 10
23205.6152
 20
9738.45801
 11
23242.7773
 21
9887.10449
  0
LINE
  8
12
 10
23351.1367
 20
9702.07715
 11
23388.2988
 21
9850.72363
  0
LINE
  8
2
 10
23058.7891
 20
9880.08789
 11
23230.3047
 21
9837.20898
  0
LINE
  8
2
 10
23375.8262
 20
9800.82813
 11
23547.3398
 21
9757.94922
  0
INSERT
  8
2
  2
ARROWF
 10
23230.3047
 20
9837.20898
 41
1.00000000
 42
1.00000000
 43
1.00000000
 50
345.963745
  0
INSERT
  8
2
  2
ARROWF
 10
23375.8262
 20
9800.82813
 41
1.00000000
 42
1.00000000
 43
1.00000000
 50
165.963760
  0
TEXT
  8
11
 7
SIMPLEX
 10
22953.9746
 20
9946.78418
 40
117.862030
  1
150
 50
-14.036242
  0
ENDBLK
  8
0
  0
BLOCK
  8
0
  2
EPBLK1
 70
     0
 10
0.00000000
 20
0.00000000
  0
LINE
  8
0
 10
0.00000000
 20
0.00000000
 11
0.00000000
 21
1714.35681
  0
LINE
  8
0
 10
0.00000000
 20
1714.35681
 11
1714.35681
 21
1714.35681
  0
LINE
  8
0
 10
0.00000000
 20
0.00000000
 11
1714.35681
 21
0.00000000
  0
LINE
  8
0
 10
1714.35681
 20
1714.35681
 11
1714.35681
 21
0.00000000
  0
TEXT
  8
11
 7
SIMPLEX
 10
29.4655075
 20
1625.96021
 40
58.9310150
  1
Bolt Dia=
 50
0.00000000
  0
TEXT
  8
11
 7
SIMPLEX
 10
29.4655075
 20
1552.29651
 40
58.9310150
  1
Plate Thk=
 50
0.00000000
  0
TEXT
  8
11
 7
SIMPLEX
 10
620.045593
 20
1625.96021
 40
58.9310150
  1
20
 50
0.00000000
  0
TEXT
  8
11
 7
SIMPLEX
 10
620.045593
 20
1552.29651
 40
58.9310150
  1
16
 50
0.00000000
  0
TEXT
  8
11
 7
SIMPLEX
 10
58.9310150
 20
29.4655075
 40
58.9310150
  1
SP1
 50
0.00000000
  0
LINE
  8
0
 10
642.883789
 20
342.871368
 11
642.883789
 21
1371.48547
  0
LINE
  8
0
 10
642.883789
 20
1371.48547
 11
1071.47290
 21
1371.48547
  0
LINE
  8
0
 10
1071.47290
 20
1371.48547
 11
1071.47290
 21
342.871368
  0
LINE
  8
0
 10
642.883789
 20
342.871368
 11
1071.47290
 21
342.871368
  0
CIRCLE
  8
0
 10
750.031067
 20
1314.41370
 40
14.7327538
  0
CIRCLE
  8
0
 10
964.325745
 20
1314.41370
 40
14.7327538
  0
CIRCLE
  8
0
 10
750.031067
 20
1200.27051
 40
14.7327538
  0
CIRCLE
  8
0
 10
964.325745
 20
1200.27051
 40
14.7327538
  0
CIRCLE
  8
0
 10
750.031067
 20
857.840454
 40
14.7327538
  0
CIRCLE
  8
0
 10
964.325745
 20
857.840454
 40
14.7327538
  0
CIRCLE
  8
0
 10
750.031067
 20
515.410461
 40
14.7327538
  0
CIRCLE
  8
0
 10
964.325745
 20
515.410461
 40
14.7327538
  0
CIRCLE
  8
0
 10
750.031067
 20
401.267059
 40
14.7327538
  0
CIRCLE
  8
0
 10
964.325745
 20
401.267059
 40
14.7327538
  0
LINE
  8
0
 10
843.785034
 20
1263.04919
 11
843.785034
 21
1359.88843
  0
LINE
  8
0
 10
843.785034
 20
1359.88843
 11
870.571777
 21
1359.88843
  0
LINE
  8
0
 10
870.571777
 20
1359.88843
 11
870.571777
 21
1263.04919
  0
LINE
  8
0
 10
843.785034
 20
447.860352
 11
843.785034
 21
354.468323
  0
LINE
  8
0
 10
843.785034
 20
354.468323
 11
870.571777
 21
354.468323
  0
LINE
  8
0
 10
870.571777
 20
354.468323
 11
870.571777
 21
447.860352
  0
LINE
  8
2
 10
1162.19092
 20
283.999268
 11
1162.19092
 21
342.871368
  0
LINE
  8
2
 10
1162.19092
 20
401.267059
 11
1162.19092
 21
460.139160
  0
INSERT
  8
2
  2
ARROWF
 10
1162.19092
 20
342.871368
 41
0.33300000
 42
0.33300000
 43
0.33300000
 50
450.000000
  0
INSERT
  8
2
  2
ARROWF
 10
1162.19092
 20
401.267059
 41
0.33300000
 42
0.33300000
 43
0.33300000
 50
270.000000
  0
LINE
  8
2
 10
1122.90369
 20
401.267059
 11
1181.83459
 21
401.267059
  0
LINE
  8
2
 10
1122.90369
 20
342.871368
 11
1181.83459
 21
342.871368
  0
TEXT
  8
11
 7
SIMPLEX
 10
1191.65649
 20
342.603699
 40
58.9310150
  1
51
 50
0.00000000
  0
LINE
  8
2
 10
1162.19092
 20
401.267059
 11
1162.19092
 21
515.410461
  0
INSERT
  8
2
  2
ARROWF
 10
1162.19092
 20
401.267059
 41
0.33300000
 42
0.33300000
 43
0.33300000
 50
270.000000
  0
INSERT
  8
2
  2
ARROWF
 10
1162.19092
 20
515.410461
 41
0.33300000
 42
0.33300000
 43
0.33300000
 50
89.9999847
  0
LINE
  8
2
 10
1122.90369
 20
515.410461
 11
1181.83459
 21
515.410461
  0
LINE
  8
2
 10
1122.90369
 20
401.267059
 11
1181.83459
 21
401.267059
  0
TEXT
  8
11
 7
SIMPLEX
 10
1191.65649
 20
428.873230
 40
58.9310150
  1
100
 50
0.00000000
  0
LINE
  8
2
 10
1162.19092
 20
515.410461
 11
1162.19092
 21
857.840454
  0
INSERT
  8
2
  2
ARROWF
 10
1162.19092
 20
515.410461
 41
0.33300000
 42
0.33300000
 43
0.33300000
 50
270.000000
  0
INSERT
  8
2
  2
ARROWF
 10
1162.19092
 20
857.840454
 41
0.33300000
 42
0.33300000
 43
0.33300000
 50
89.9999847
  0
LINE
  8
2
 10
1122.90369
 20
857.840454
 11
1181.83459
 21
857.840454
  0
LINE
  8
2
 10
1122.90369
 20
515.410461
 11
1181.83459
 21
515.410461
  0
TEXT
  8
11
 7
SIMPLEX
 10
1191.65649
 20
657.159912
 40
58.9310150
  1
300
 50
0.00000000
  0
LINE
  8
2
 10
1162.19092
 20
857.840454
 11
1162.19092
 21
1200.27051
  0
INSERT
  8
2
  2
ARROWF
 10
1162.19092
 20
857.840454
 41
0.33300000
 42
0.33300000
 43
0.33300000
 50
270.000000
  0
INSERT
  8
2
  2
ARROWF
 10
1162.19092
 20
1200.27051
 41
0.33300000
 42
0.33300000
 43
0.33300000
 50
89.9999847
  0
LINE
  8
2
 10
1122.90369
 20
1200.27051
 11
1181.83459
 21
1200.27051
  0
LINE
  8
2
 10
1122.90369
 20
857.840454
 11
1181.83459
 21
857.840454
  0
TEXT
  8
11
 7
SIMPLEX
 10
1191.65649
 20
999.589966
 40
58.9310150
  1
300
 50
0.00000000
  0
LINE
  8
2
 10
1162.19092
 20
1200.27051
 11
1162.19092
 21
1314.41370
  0
INSERT
  8
2
  2
ARROWF
 10
1162.19092
 20
1200.27051
 41
0.33300000
 42
0.33300000
 43
0.33300000
 50
270.000000
  0
INSERT
  8
2
  2
ARROWF
 10
1162.19092
 20
1314.41370
 41
0.33300000
 42
0.33300000
 43
0.33300000
 50
89.9999847
  0
LINE
  8
2
 10
1122.90369
 20
1314.41370
 11
1181.83459
 21
1314.41370
  0
LINE
  8
2
 10
1122.90369
 20
1200.27051
 11
1181.83459
 21
1200.27051
  0
TEXT
  8
11
 7
SIMPLEX
 10
1191.65649
 20
1227.87659
 40
58.9310150
  1
100
 50
0.00000000
  0
LINE
  8
2
 10
1162.19092
 20
1255.54163
 11
1162.19092
 21
1314.41370
  0
LINE
  8
2
 10
1162.19092
 20
1371.48547
 11
1162.19092
 21
1430.35754
  0
INSERT
  8
2
  2
ARROWF
 10
1162.19092
 20
1314.41370
 41
0.33300000
 42
0.33300000
 43
0.33300000
 50
450.000000
  0
INSERT
  8
2
  2
ARROWF
 10
1162.19092
 20
1371.48547
 41
0.33300000
 42
0.33300000
 43
0.33300000
 50
270.000000
  0
LINE
  8
2
 10
1122.90369
 20
1371.48547
 11
1181.83459
 21
1371.48547
  0
LINE
  8
2
 10
1122.90369
 20
1314.41370
 11
1181.83459
 21
1314.41370
  0
TEXT
  8
11
 7
SIMPLEX
 10
1191.65649
 20
1313.48401
 40
58.9310150
  1
50
 50
0.00000000
  0
LINE
  8
2
 10
750.031067
 20
252.153305
 11
964.325623
 21
252.153305
  0
LINE
  8
2
 10
750.031067
 20
291.440674
 11
750.031067
 21
232.509644
  0
LINE
  8
2
 10
964.325623
 20
291.440674
 11
964.325623
 21
232.509644
  0
INSERT
  8
2
  2
ARROWF
 10
750.031067
 20
252.153305
 41
0.33300000
 42
0.33300000
 43
0.33300000
 50
180.000000
  0
INSERT
  8
2
  2
ARROWF
 10
964.325623
 20
252.153305
 41
0.33300000
 42
0.33300000
 43
0.33300000
 50
0.00000000
  0
TEXT
  8
11
 7
SIMPLEX
 10
790.880981
 20
178.489532
 40
58.9310150
  1
100
 50
0.00000000
  0
LINE
  8
2
 10
552.165833
 20
342.871368
 11
552.165833
 21
447.860413
  0
INSERT
  8
2
  2
ARROWF
 10
552.165833
 20
342.871368
 41
0.33300000
 42
0.33300000
 43
0.33300000
 50
270.000000
  0
INSERT
  8
2
  2
ARROWF
 10
552.165833
 20
447.860413
 41
0.33300000
 42
0.33300000
 43
0.33300000
 50
89.9999847
  0
LINE
  8
2
 10
532.522156
 20
447.860413
 11
591.453125
 21
447.860413
  0
LINE
  8
2
 10
532.522156
 20
342.871368
 11
591.453125
 21
342.871368
  0
TEXT
  8
11
 7
SIMPLEX
 10
419.570984
 20
365.900391
 40
58.9310150
  1
92
 72
           2
 11
537.433044
 21
395.365875
 73
           2
 50
   0.000
  0
LINE
  8
2
 10
552.165833
 20
447.860413
 11
552.165833
 21
1263.04919
  0
INSERT
  8
2
  2
ARROWF
 10
552.165833
 20
447.860413
 41
0.33300000
 42
0.33300000
 43
0.33300000
 50
270.000000
  0
INSERT
  8
2
  2
ARROWF
 10
552.165833
 20
1263.04919
 41
0.33300000
 42
0.33300000
 43
0.33300000
 50
89.9999847
  0
LINE
  8
2
 10
532.522156
 20
1263.04919
 11
591.453125
 21
1263.04919
  0
LINE
  8
2
 10
532.522156
 20
447.860413
 11
591.453125
 21
447.860413
  0
TEXT
  8
11
 7
SIMPLEX
 10
478.502045
 20
777.371216
 40
58.9310150
  1
714
 72
           1
 11
537.433044
 21
855.454834
 73
           1
 50
  90.000
  0
LINE
  8
2
 10
552.165833
 20
1263.04919
 11
552.165833
 21
1371.48547
  0
INSERT
  8
2
  2
ARROWF
 10
552.165833
 20
1263.04919
 41
0.33300000
 42
0.33300000
 43
0.33300000
 50
270.000000
  0
INSERT
  8
2
  2
ARROWF
 10
552.165833
 20
1371.48547
 41
0.33300000
 42
0.33300000
 43
0.33300000
 50
89.9999847
  0
LINE
  8
2
 10
532.522156
 20
1371.48547
 11
591.453125
 21
1371.48547
  0
LINE
  8
2
 10
532.522156
 20
1263.04919
 11
591.453125
 21
1263.04919
  0
TEXT
  8
11
 7
SIMPLEX
 10
419.570984
 20
1287.80176
 40
58.9310150
  1
95
 72
           2
 11
537.433044
 21
1317.26733
 73
           2
 50
   0.000
  0
LINE
  8
2
 10
269.654083
 20
342.871368
 11
328.585083
 21
342.871368
  0
LINE
  8
2
 10
269.654083
 20
1371.48547
 11
328.585083
 21
1371.48547
  0
LINE
  8
2
 10
289.297730
 20
342.871368
 11
289.297730
 21
1371.48547
  0
INSERT
  8
2
  2
ARROWF
 10
289.297730
 20
342.871368
 41
0.33300000
 42
0.33300000
 43
0.33300000
 50
270.000000
  0
INSERT
  8
2
  2
ARROWF
 10
289.297730
 20
1371.48547
 41
0.33300000
 42
0.33300000
 43
0.33300000
 50
90.0000000
  0
TEXT
  8
11
 7
SIMPLEX
 10
274.565002
 20
790.880981
 40
58.9310150
  1
901
 50
90.0000000
  0
LINE
  8
2
 10
642.883789
 20
1462.20349
 11
1071.47290
 21
1462.20349
  0
LINE
  8
2
 10
642.883789
 20
1481.84717
 11
642.883789
 21
1422.91614
  0
LINE
  8
2
 10
1071.47290
 20
1481.84717
 11
1071.47290
 21
1422.91614
  0
INSERT
  8
2
  2
ARROWF
 10
642.883789
 20
1462.20349
 41
0.33300000
 42
0.33300000
 43
0.33300000
 50
180.000000
  0
INSERT
  8
2
  2
ARROWF
 10
1071.47290
 20
1462.20349
 41
0.33300000
 42
0.33300000
 43
0.33300000
 50
0.00000000
  0
TEXT
  8
11
 7
SIMPLEX
 10
790.880981
 20
1476.93616
 40
58.9310150
  1
200
 50
0.00000000
  0
LINE
  8
0
 10
696.457459
 20
447.860291
 11
1017.89929
 21
447.860291
  0
LINE
  8
0
 10
696.457459
 20
474.647125
 11
1017.89929
 21
474.647125
  0
LINE
  8
0
 10
696.457459
 20
447.860291
 11
696.457459
 21
474.647125
  0
LINE
  8
0
 10
1017.89929
 20
447.860291
 11
1017.89929
 21
474.647125
  0
LINE
  8
0
 10
696.457459
 20
1263.04919
 11
1017.89929
 21
1263.04919
  0
LINE
  8
0
 10
696.457459
 20
1236.26245
 11
1017.89929
 21
1236.26245
  0
LINE
  8
0
 10
696.457459
 20
1263.04919
 11
696.457459
 21
1236.26245
  0
LINE
  8
0
 10
1017.89929
 20
1263.04919
 11
1017.89929
 21
1236.26245
  0
LINE
  8
0
 10
870.571777
 20
474.647125
 11
870.571777
 21
1236.26245
  0
LINE
  8
0
 10
843.785034
 20
474.647125
 11
843.785034
 21
1236.26245
  0
ENDBLK
  8
0
  0
BLOCK
  8
0
  2
EPBLK2
 70
     0
 10
0.00000000
 20
0.00000000
  0
LINE
  8
0
 10
0.00000000
 20
0.00000000
 11
0.00000000
 21
1714.35681
  0
LINE
  8
0
 10
0.00000000
 20
1714.35681
 11
1714.35681
 21
1714.35681
  0
LINE
  8
0
 10
0.00000000
 20
0.00000000
 11
1714.35681
 21
0.00000000
  0
LINE
  8
0
 10
1714.35681
 20
1714.35681
 11
1714.35681
 21
0.00000000
  0
TEXT
  8
11
 7
SIMPLEX
 10
29.4655075
 20
1625.96021
 40
58.9310150
  1
Bolt Dia=
 50
0.00000000
  0
TEXT
  8
11
 7
SIMPLEX
 10
29.4655075
 20
1552.29651
 40
58.9310150
  1
Plate Thk=
 50
0.00000000
  0
TEXT
  8
11
 7
SIMPLEX
 10
620.045593
 20
1625.96021
 40
58.9310150
  1
20
 50
0.00000000
  0
TEXT
  8
11
 7
SIMPLEX
 10
620.045593
 20
1552.29651
 40
58.9310150
  1
16
 50
0.00000000
  0
TEXT
  8
11
 7
SIMPLEX
 10
58.9310150
 20
29.4655075
 40
58.9310150
  1
SP2
 50
0.00000000
  0
LINE
  8
0
 10
642.883789
 20
497.163483
 11
642.883789
 21
1217.19336
  0
LINE
  8
0
 10
642.883789
 20
1217.19336
 11
1071.47290
 21
1217.19336
  0
LINE
  8
0
 10
1071.47290
 20
1217.19336
 11
1071.47290
 21
497.163483
  0
LINE
  8
0
 10
642.883789
 20
497.163483
 11
1071.47290
 21
497.163483
  0
CIRCLE
  8
0
 10
750.031067
 20
1151.73608
 40
14.7327538
  0
CIRCLE
  8
0
 10
964.325745
 20
1151.73608
 40
14.7327538
  0
CIRCLE
  8
0
 10
750.031067
 20
1020.82159
 40
14.7327538
  0
CIRCLE
  8
0
 10
964.325745
 20
1020.82159
 40
14.7327538
  0
CIRCLE
  8
0
 10
750.031067
 20
693.535278
 40
14.7327538
  0
CIRCLE
  8
0
 10
964.325745
 20
693.535278
 40
14.7327538
  0
CIRCLE
  8
0
 10
750.031067
 20
562.620728
 40
14.7327538
  0
CIRCLE
  8
0
 10
964.325745
 20
562.620728
 40
14.7327538
  0
LINE
  8
0
 10
843.785034
 20
1092.82459
 11
843.785034
 21
1203.89233
  0
LINE
  8
0
 10
843.785034
 20
1203.89233
 11
870.571777
 21
1203.89233
  0
LINE
  8
0
 10
870.571777
 20
1203.89233
 11
870.571777
 21
1092.82459
  0
LINE
  8
0
 10
843.785034
 20
621.532349
 11
843.785034
 21
510.464417
  0
LINE
  8
0
 10
843.785034
 20
510.464417
 11
870.571777
 21
510.464417
  0
LINE
  8
0
 10
870.571777
 20
510.464417
 11
870.571777
 21
621.532349
  0
LINE
  8
2
 10
1162.19092
 20
438.291412
 11
1162.19092
 21
497.163483
  0
LINE
  8
2
 10
1162.19092
 20
562.620728
 11
1162.19092
 21
621.492798
  0
INSERT
  8
2
  2
ARROWF
 10
1162.19092
 20
497.163483
 41
0.33300000
 42
0.33300000
 43
0.33300000
 50
450.000000
  0
INSERT
  8
2
  2
ARROWF
 10
1162.19092
 20
562.620728
 41
0.33300000
 42
0.33300000
 43
0.33300000
 50
270.000000
  0
LINE
  8
2
 10
1122.90369
 20
562.620728
 11
1181.83459
 21
562.620728
  0
LINE
  8
2
 10
1122.90369
 20
497.163483
 11
1181.83459
 21
497.163483
  0
TEXT
  8
11
 7
SIMPLEX
 10
1191.65649
 20
500.426605
 40
58.9310150
  1
50
 50
0.00000000
  0
LINE
  8
2
 10
1162.19092
 20
562.620728
 11
1162.19092
 21
693.535278
  0
INSERT
  8
2
  2
ARROWF
 10
1162.19092
 20
562.620728
 41
0.33300000
 42
0.33300000
 43
0.33300000
 50
270.000000
  0
INSERT
  8
2
  2
ARROWF
 10
1162.19092
 20
693.535278
 41
0.33300000
 42
0.33300000
 43
0.33300000
 50
89.9999847
  0
LINE
  8
2
 10
1122.90369
 20
693.535278
 11
1181.83459
 21
693.535278
  0
LINE
  8
2
 10
1122.90369
 20
562.620728
 11
1181.83459
 21
562.620728
  0
TEXT
  8
11
 7
SIMPLEX
 10
1191.65649
 20
598.612549
 40
58.9310150
  1
100
 50
0.00000000
  0
LINE
  8
2
 10
1162.19092
 20
693.535278
 11
1162.19092
 21
1020.82159
  0
INSERT
  8
2
  2
ARROWF
 10
1162.19092
 20
693.535278
 41
0.33300000
 42
0.33300000
 43
0.33300000
 50
270.000000
  0
INSERT
  8
2
  2
ARROWF
 10
1162.19092
 20
1020.82159
 41
0.33300000
 42
0.33300000
 43
0.33300000
 50
89.9999847
  0
LINE
  8
2
 10
1122.90369
 20
1020.82159
 11
1181.83459
 21
1020.82159
  0
LINE
  8
2
 10
1122.90369
 20
693.535278
 11
1181.83459
 21
693.535278
  0
TEXT
  8
11
 7
SIMPLEX
 10
1191.65649
 20
827.712952
 40
58.9310150
  1
250
 50
0.00000000
  0
LINE
  8
2
 10
1162.19092
 20
1020.82159
 11
1162.19092
 21
1151.73608
  0
INSERT
  8
2
  2
ARROWF
 10
1162.19092
 20
1020.82159
 41
0.33300000
 42
0.33300000
 43
0.33300000
 50
270.000000
  0
INSERT
  8
2
  2
ARROWF
 10
1162.19092
 20
1151.73608
 41
0.33300000
 42
0.33300000
 43
0.33300000
 50
89.9999847
  0
LINE
  8
2
 10
1122.90369
 20
1151.73608
 11
1181.83459
 21
1151.73608
  0
LINE
  8
2
 10
1122.90369
 20
1020.82159
 11
1181.83459
 21
1020.82159
  0
TEXT
  8
11
 7
SIMPLEX
 10
1191.65649
 20
1056.81323
 40
58.9310150
  1
100
 50
0.00000000
  0
LINE
  8
2
 10
1162.19092
 20
1092.86401
 11
1162.19092
 21
1151.73608
  0
LINE
  8
2
 10
1162.19092
 20
1217.19336
 11
1162.19092
 21
1276.06543
  0
INSERT
  8
2
  2
ARROWF
 10
1162.19092
 20
1151.73608
 41
0.33300000
 42
0.33300000
 43
0.33300000
 50
450.000000
  0
INSERT
  8
2
  2
ARROWF
 10
1162.19092
 20
1217.19336
 41
0.33300000
 42
0.33300000
 43
0.33300000
 50
270.000000
  0
LINE
  8
2
 10
1122.90369
 20
1217.19336
 11
1181.83459
 21
1217.19336
  0
LINE
  8
2
 10
1122.90369
 20
1151.73608
 11
1181.83459
 21
1151.73608
  0
TEXT
  8
11
 7
SIMPLEX
 10
1191.65649
 20
1154.99915
 40
58.9310150
  1
50
 50
0.00000000
  0
LINE
  8
2
 10
750.031067
 20
406.445435
 11
964.325623
 21
406.445435
  0
LINE
  8
2
 10
750.031067
 20
445.732758
 11
750.031067
 21
386.801758
  0
LINE
  8
2
 10
964.325623
 20
445.732758
 11
964.325623
 21
386.801758
  0
INSERT
  8
2
  2
ARROWF
 10
750.031067
 20
406.445435
 41
0.33300000
 42
0.33300000
 43
0.33300000
 50
180.000000
  0
INSERT
  8
2
  2
ARROWF
 10
964.325623
 20
406.445435
 41
0.33300000
 42
0.33300000
 43
0.33300000
 50
0.00000000
  0
TEXT
  8
11
 7
SIMPLEX
 10
790.880981
 20
332.781677
 40
58.9310150
  1
100
 50
0.00000000
  0
LINE
  8
2
 10
552.165833
 20
497.163483
 11
552.165833
 21
621.532227
  0
INSERT
  8
2
  2
ARROWF
 10
552.165833
 20
497.163483
 41
0.33300000
 42
0.33300000
 43
0.33300000
 50
270.000000
  0
INSERT
  8
2
  2
ARROWF
 10
552.165833
 20
621.532227
 41
0.33300000
 42
0.33300000
 43
0.33300000
 50
89.9999847
  0
LINE
  8
2
 10
532.522156
 20
621.532227
 11
591.453125
 21
621.532227
  0
LINE
  8
2
 10
532.522156
 20
497.163483
 11
591.453125
 21
497.163483
  0
TEXT
  8
11
 7
SIMPLEX
 10
419.570984
 20
529.882385
 40
58.9310150
  1
95
 72
           2
 11
537.433044
 21
559.347900
 73
           2
 50
   0.000
  0
LINE
  8
2
 10
552.165833
 20
621.532227
 11
552.165833
 21
1092.82459
  0
INSERT
  8
2
  2
ARROWF
 10
552.165833
 20
621.532227
 41
0.33300000
 42
0.33300000
 43
0.33300000
 50
270.000000
  0
INSERT
  8
2
  2
ARROWF
 10
552.165833
 20
1092.82459
 41
0.33300000
 42
0.33300000
 43
0.33300000
 50
89.9999847
  0
LINE
  8
2
 10
532.522156
 20
1092.82459
 11
591.453125
 21
1092.82459
  0
LINE
  8
2
 10
532.522156
 20
621.532227
 11
591.453125
 21
621.532227
  0
TEXT
  8
11
 7
SIMPLEX
 10
478.502045
 20
768.781860
 40
58.9310150
  1
360
 72
           1
 11
537.433044
 21
857.178406
 73
           1
 50
  90.000
  0
LINE
  8
2
 10
552.165833
 20
1092.82459
 11
552.165833
 21
1217.19336
  0
INSERT
  8
2
  2
ARROWF
 10
552.165833
 20
1092.82459
 41
0.33300000
 42
0.33300000
 43
0.33300000
 50
270.000000
  0
INSERT
  8
2
  2
ARROWF
 10
552.165833
 20
1217.19336
 41
0.33300000
 42
0.33300000
 43
0.33300000
 50
89.9999847
  0
LINE
  8
2
 10
532.522156
 20
1217.19336
 11
591.453125
 21
1217.19336
  0
LINE
  8
2
 10
532.522156
 20
1092.82459
 11
591.453125
 21
1092.82459
  0
TEXT
  8
11
 7
SIMPLEX
 10
419.570984
 20
1125.54333
 40
58.9310150
  1
95
 72
           2
 11
537.433044
 21
1155.00891
 73
           2
 50
   0.000
  0
LINE
  8
2
 10
269.654083
 20
497.163483
 11
328.585083
 21
497.163483
  0
LINE
  8
2
 10
269.654083
 20
1217.19336
 11
328.585083
 21
1217.19336
  0
LINE
  8
2
 10
289.297730
 20
497.163483
 11
289.297730
 21
1217.19336
  0
INSERT
  8
2
  2
ARROWF
 10
289.297730
 20
497.163483
 41
0.33300000
 42
0.33300000
 43
0.33300000
 50
270.000000
  0
INSERT
  8
2
  2
ARROWF
 10
289.297730
 20
1217.19336
 41
0.33300000
 42
0.33300000
 43
0.33300000
 50
90.0000000
  0
TEXT
  8
11
 7
SIMPLEX
 10
274.565002
 20
790.880981
 40
58.9310150
  1
550
 50
90.0000000
  0
LINE
  8
2
 10
642.883789
 20
1307.91138
 11
1071.47290
 21
1307.91138
  0
LINE
  8
2
 10
642.883789
 20
1327.55505
 11
642.883789
 21
1268.62402
  0
LINE
  8
2
 10
1071.47290
 20
1327.55505
 11
1071.47290
 21
1268.62402
  0
INSERT
  8
2
  2
ARROWF
 10
642.883789
 20
1307.91138
 41
0.33300000
 42
0.33300000
 43
0.33300000
 50
180.000000
  0
INSERT
  8
2
  2
ARROWF
 10
1071.47290
 20
1307.91138
 41
0.33300000
 42
0.33300000
 43
0.33300000
 50
0.00000000
  0
TEXT
  8
11
 7
SIMPLEX
 10
790.880981
 20
1322.64404
 40
58.9310150
  1
200
 50
0.00000000
  0
LINE
  8
0
 10
696.457459
 20
621.532288
 11
1017.89929
 21
621.532288
  0
LINE
  8
0
 10
696.457459
 20
648.319153
 11
1017.89929
 21
648.319153
  0
LINE
  8
0
 10
696.457459
 20
621.532288
 11
696.457459
 21
648.319153
  0
LINE
  8
0
 10
1017.89929
 20
621.532288
 11
1017.89929
 21
648.319153
  0
LINE
  8
0
 10
696.457459
 20
1092.82459
 11
1017.89929
 21
1092.82459
  0
LINE
  8
0
 10
696.457459
 20
1066.03772
 11
1017.89929
 21
1066.03772
  0
LINE
  8
0
 10
696.457459
 20
1092.82459
 11
696.457459
 21
1066.03772
  0
LINE
  8
0
 10
1017.89929
 20
1092.82459
 11
1017.89929
 21
1066.03772
  0
LINE
  8
0
 10
870.571777
 20
648.319153
 11
870.571777
 21
1066.03772
  0
LINE
  8
0
 10
843.785034
 20
648.319153
 11
843.785034
 21
1066.03772
  0
ENDBLK
  8
0
  0
BLOCK
  8
0
  2
EPBLK3
 70
     0
 10
0.00000000
 20
0.00000000
  0
LINE
  8
0
 10
0.00000000
 20
0.00000000
 11
0.00000000
 21
1714.35681
  0
LINE
  8
0
 10
0.00000000
 20
1714.35681
 11
1714.35681
 21
1714.35681
  0
LINE
  8
0
 10
0.00000000
 20
0.00000000
 11
1714.35681
 21
0.00000000
  0
LINE
  8
0
 10
1714.35681
 20
1714.35681
 11
1714.35681
 21
0.00000000
  0
TEXT
  8
11
 7
SIMPLEX
 10
29.4655075
 20
1625.96021
 40
58.9310150
  1
Bolt Dia=
 50
0.00000000
  0
TEXT
  8
11
 7
SIMPLEX
 10
29.4655075
 20
1552.29651
 40
58.9310150
  1
Plate Thk=
 50
0.00000000
  0
TEXT
  8
11
 7
SIMPLEX
 10
620.045593
 20
1625.96021
 40
58.9310150
  1
20
 50
0.00000000
  0
TEXT
  8
11
 7
SIMPLEX
 10
620.045593
 20
1552.29651
 40
58.9310150
  1
16
 50
0.00000000
  0
TEXT
  8
11
 7
SIMPLEX
 10
58.9310150
 20
29.4655075
 40
58.9310150
  1
SP3
 50
0.00000000
  0
LINE
  8
0
 10
642.883789
 20
478.136902
 11
642.883789
 21
1236.21985
  0
LINE
  8
0
 10
642.883789
 20
1236.21985
 11
1071.47290
 21
1236.21985
  0
LINE
  8
0
 10
1071.47290
 20
1236.21985
 11
1071.47290
 21
478.136902
  0
LINE
  8
0
 10
642.883789
 20
478.136902
 11
1071.47290
 21
478.136902
  0
CIRCLE
  8
0
 10
750.031067
 20
1179.14819
 40
14.7327538
  0
CIRCLE
  8
0
 10
964.325745
 20
1179.14819
 40
14.7327538
  0
CIRCLE
  8
0
 10
750.031067
 20
1065.00488
 40
14.7327538
  0
CIRCLE
  8
0
 10
964.325745
 20
1065.00488
 40
14.7327538
  0
CIRCLE
  8
0
 10
750.031067
 20
648.381653
 40
14.7327538
  0
CIRCLE
  8
0
 10
964.325745
 20
648.381653
 40
14.7327538
  0
CIRCLE
  8
0
 10
750.031067
 20
534.238342
 40
14.7327538
  0
CIRCLE
  8
0
 10
964.325745
 20
534.238342
 40
14.7327538
  0
LINE
  8
0
 10
843.785034
 20
1127.95496
 11
843.785034
 21
1224.62292
  0
LINE
  8
0
 10
843.785034
 20
1224.62292
 11
870.571777
 21
1224.62292
  0
LINE
  8
0
 10
870.571777
 20
1224.62292
 11
870.571777
 21
1127.95496
  0
LINE
  8
0
 10
843.785034
 20
586.424744
 11
843.785034
 21
489.733856
  0
LINE
  8
0
 10
843.785034
 20
489.733856
 11
870.571777
 21
489.733856
  0
LINE
  8
0
 10
870.571777
 20
489.733856
 11
870.571777
 21
586.424744
  0
LINE
  8
2
 10
1162.19092
 20
419.264801
 11
1162.19092
 21
478.136902
  0
LINE
  8
2
 10
1162.19092
 20
534.238342
 11
1162.19092
 21
593.110474
  0
INSERT
  8
2
  2
ARROWF
 10
1162.19092
 20
478.136902
 41
0.33300000
 42
0.33300000
 43
0.33300000
 50
450.000000
  0
INSERT
  8
2
  2
ARROWF
 10
1162.19092
 20
534.238342
 41
0.33300000
 42
0.33300000
 43
0.33300000
 50
270.000000
  0
LINE
  8
2
 10
1122.90369
 20
534.238342
 11
1181.83459
 21
534.238342
  0
LINE
  8
2
 10
1122.90369
 20
478.136902
 11
1181.83459
 21
478.136902
  0
TEXT
  8
11
 7
SIMPLEX
 10
1191.65649
 20
476.722107
 40
58.9310150
  1
49
 50
0.00000000
  0
LINE
  8
2
 10
1162.19092
 20
534.238342
 11
1162.19092
 21
648.381653
  0
INSERT
  8
2
  2
ARROWF
 10
1162.19092
 20
534.238342
 41
0.33300000
 42
0.33300000
 43
0.33300000
 50
270.000000
  0
INSERT
  8
2
  2
ARROWF
 10
1162.19092
 20
648.381653
 41
0.33300000
 42
0.33300000
 43
0.33300000
 50
89.9999847
  0
LINE
  8
2
 10
1122.90369
 20
648.381653
 11
1181.83459
 21
648.381653
  0
LINE
  8
2
 10
1122.90369
 20
534.238342
 11
1181.83459
 21
534.238342
  0
TEXT
  8
11
 7
SIMPLEX
 10
1191.65649
 20
561.844543
 40
58.9310150
  1
100
 50
0.00000000
  0
LINE
  8
2
 10
1162.19092
 20
648.381653
 11
1162.19092
 21
1065.00488
  0
INSERT
  8
2
  2
ARROWF
 10
1162.19092
 20
648.381653
 41
0.33300000
 42
0.33300000
 43
0.33300000
 50
270.000000
  0
INSERT
  8
2
  2
ARROWF
 10
1162.19092
 20
1065.00488
 41
0.33300000
 42
0.33300000
 43
0.33300000
 50
89.9999847
  0
LINE
  8
2
 10
1122.90369
 20
1065.00488
 11
1181.83459
 21
1065.00488
  0
LINE
  8
2
 10
1122.90369
 20
648.381653
 11
1181.83459
 21
648.381653
  0
TEXT
  8
11
 7
SIMPLEX
 10
1191.65649
 20
827.227722
 40
58.9310150
  1
365
 50
0.00000000
  0
LINE
  8
2
 10
1162.19092
 20
1065.00488
 11
1162.19092
 21
1179.14819
  0
INSERT
  8
2
  2
ARROWF
 10
1162.19092
 20
1065.00488
 41
0.33300000
 42
0.33300000
 43
0.33300000
 50
270.000000
  0
INSERT
  8
2
  2
ARROWF
 10
1162.19092
 20
1179.14819
 41
0.33300000
 42
0.33300000
 43
0.33300000
 50
89.9999847
  0
LINE
  8
2
 10
1122.90369
 20
1179.14819
 11
1181.83459
 21
1179.14819
  0
LINE
  8
2
 10
1122.90369
 20
1065.00488
 11
1181.83459
 21
1065.00488
  0
TEXT
  8
11
 7
SIMPLEX
 10
1191.65649
 20
1092.61096
 40
58.9310150
  1
100
 50
0.00000000
  0
LINE
  8
2
 10
1162.19092
 20
1120.27612
 11
1162.19092
 21
1179.14819
  0
LINE
  8
2
 10
1162.19092
 20
1236.21985
 11
1162.19092
 21
1295.09192
  0
INSERT
  8
2
  2
ARROWF
 10
1162.19092
 20
1179.14819
 41
0.33300000
 42
0.33300000
 43
0.33300000
 50
450.000000
  0
INSERT
  8
2
  2
ARROWF
 10
1162.19092
 20
1236.21985
 41
0.33300000
 42
0.33300000
 43
0.33300000
 50
270.000000
  0
LINE
  8
2
 10
1122.90369
 20
1236.21985
 11
1181.83459
 21
1236.21985
  0
LINE
  8
2
 10
1122.90369
 20
1179.14819
 11
1181.83459
 21
1179.14819
  0
TEXT
  8
11
 7
SIMPLEX
 10
1191.65649
 20
1178.21851
 40
58.9310150
  1
50
 50
0.00000000
  0
LINE
  8
2
 10
750.031067
 20
387.418884
 11
964.325623
 21
387.418884
  0
LINE
  8
2
 10
750.031067
 20
426.706207
 11
750.031067
 21
367.775208
  0
LINE
  8
2
 10
964.325623
 20
426.706207
 11
964.325623
 21
367.775208
  0
INSERT
  8
2
  2
ARROWF
 10
750.031067
 20
387.418884
 41
0.33300000
 42
0.33300000
 43
0.33300000
 50
180.000000
  0
INSERT
  8
2
  2
ARROWF
 10
964.325623
 20
387.418884
 41
0.33300000
 42
0.33300000
 43
0.33300000
 50
0.00000000
  0
TEXT
  8
11
 7
SIMPLEX
 10
790.880981
 20
313.755127
 40
58.9310150
  1
100
 50
0.00000000
  0
LINE
  8
2
 10
552.165833
 20
478.136902
 11
552.165833
 21
586.424683
  0
INSERT
  8
2
  2
ARROWF
 10
552.165833
 20
478.136902
 41
0.33300000
 42
0.33300000
 43
0.33300000
 50
270.000000
  0
INSERT
  8
2
  2
ARROWF
 10
552.165833
 20
586.424683
 41
0.33300000
 42
0.33300000
 43
0.33300000
 50
89.9999847
  0
LINE
  8
2
 10
532.522156
 20
586.424683
 11
591.453125
 21
586.424683
  0
LINE
  8
2
 10
532.522156
 20
478.136902
 11
591.453125
 21
478.136902
  0
TEXT
  8
11
 7
SIMPLEX
 10
419.570984
 20
502.815277
 40
58.9310150
  1
95
 72
           2
 11
537.433044
 21
532.280762
 73
           2
 50
   0.000
  0
LINE
  8
2
 10
552.165833
 20
586.424683
 11
552.165833
 21
1127.95496
  0
INSERT
  8
2
  2
ARROWF
 10
552.165833
 20
586.424683
 41
0.33300000
 42
0.33300000
 43
0.33300000
 50
270.000000
  0
INSERT
  8
2
  2
ARROWF
 10
552.165833
 20
1127.95496
 41
0.33300000
 42
0.33300000
 43
0.33300000
 50
89.9999847
  0
LINE
  8
2
 10
532.522156
 20
1127.95496
 11
591.453125
 21
1127.95496
  0
LINE
  8
2
 10
532.522156
 20
586.424683
 11
591.453125
 21
586.424683
  0
TEXT
  8
11
 7
SIMPLEX
 10
478.502045
 20
768.793274
 40
58.9310150
  1
474
 72
           1
 11
537.433044
 21
857.189819
 73
           1
 50
  90.000
  0
LINE
  8
2
 10
552.165833
 20
1127.95496
 11
552.165833
 21
1236.21985
  0
INSERT
  8
2
  2
ARROWF
 10
552.165833
 20
1127.95496
 41
0.33300000
 42
0.33300000
 43
0.33300000
 50
270.000000
  0
INSERT
  8
2
  2
ARROWF
 10
552.165833
 20
1236.21985
 41
0.33300000
 42
0.33300000
 43
0.33300000
 50
89.9999847
  0
LINE
  8
2
 10
532.522156
 20
1236.21985
 11
591.453125
 21
1236.21985
  0
LINE
  8
2
 10
532.522156
 20
1127.95496
 11
591.453125
 21
1127.95496
  0
TEXT
  8
11
 7
SIMPLEX
 10
419.570984
 20
1152.62183
 40
58.9310150
  1
95
 72
           2
 11
537.433044
 21
1182.08740
 73
           2
 50
   0.000
  0
LINE
  8
2
 10
269.654083
 20
478.136902
 11
328.585083
 21
478.136902
  0
LINE
  8
2
 10
269.654083
 20
1236.21985
 11
328.585083
 21
1236.21985
  0
LINE
  8
2
 10
289.297730
 20
478.136902
 11
289.297730
 21
1236.21985
  0
INSERT
  8
2
  2
ARROWF
 10
289.297730
 20
478.136902
 41
0.33300000
 42
0.33300000
 43
0.33300000
 50
270.000000
  0
INSERT
  8
2
  2
ARROWF
 10
289.297730
 20
1236.21985
 41
0.33300000
 42
0.33300000
 43
0.33300000
 50
90.0000000
  0
TEXT
  8
11
 7
SIMPLEX
 10
274.565002
 20
790.880981
 40
58.9310150
  1
664
 50
90.0000000
  0
LINE
  8
2
 10
642.883789
 20
1326.93787
 11
1071.47290
 21
1326.93787
  0
LINE
  8
2
 10
642.883789
 20
1346.58154
 11
642.883789
 21
1287.65051
  0
LINE
  8
2
 10
1071.47290
 20
1346.58154
 11
1071.47290
 21
1287.65051
  0
INSERT
  8
2
  2
ARROWF
 10
642.883789
 20
1326.93787
 41
0.33300000
 42
0.33300000
 43
0.33300000
 50
180.000000
  0
INSERT
  8
2
  2
ARROWF
 10
1071.47290
 20
1326.93787
 41
0.33300000
 42
0.33300000
 43
0.33300000
 50
0.00000000
  0
TEXT
  8
11
 7
SIMPLEX
 10
790.880981
 20
1341.67065
 40
58.9310150
  1
200
 50
0.00000000
  0
LINE
  8
0
 10
696.457459
 20
586.424683
 11
1017.89929
 21
586.424683
  0
LINE
  8
0
 10
696.457459
 20
613.211548
 11
1017.89929
 21
613.211548
  0
LINE
  8
0
 10
696.457459
 20
586.424683
 11
696.457459
 21
613.211548
  0
LINE
  8
0
 10
1017.89929
 20
586.424683
 11
1017.89929
 21
613.211548
  0
LINE
  8
0
 10
696.457459
 20
1127.95496
 11
1017.89929
 21
1127.95496
  0
LINE
  8
0
 10
696.457459
 20
1101.16809
 11
1017.89929
 21
1101.16809
  0
LINE
  8
0
 10
696.457459
 20
1127.95496
 11
696.457459
 21
1101.16809
  0
LINE
  8
0
 10
1017.89929
 20
1127.95496
 11
1017.89929
 21
1101.16809
  0
LINE
  8
0
 10
870.571777
 20
613.211548
 11
870.571777
 21
1101.16809
  0
LINE
  8
0
 10
843.785034
 20
613.211548
 11
843.785034
 21
1101.16809
  0
ENDBLK
  8
0
  0
BLOCK
  8
0
  2
EPBLK4
 70
     0
 10
0.00000000
 20
0.00000000
  0
LINE
  8
0
 10
0.00000000
 20
0.00000000
 11
0.00000000
 21
1714.35681
  0
LINE
  8
0
 10
0.00000000
 20
1714.35681
 11
1714.35681
 21
1714.35681
  0
LINE
  8
0
 10
0.00000000
 20
0.00000000
 11
1714.35681
 21
0.00000000
  0
LINE
  8
0
 10
1714.35681
 20
1714.35681
 11
1714.35681
 21
0.00000000
  0
TEXT
  8
11
 7
SIMPLEX
 10
29.4655075
 20
1625.96021
 40
58.9310150
  1
Bolt Dia=
 50
0.00000000
  0
TEXT
  8
11
 7
SIMPLEX
 10
29.4655075
 20
1552.29651
 40
58.9310150
  1
Plate Thk=
 50
0.00000000
  0
TEXT
  8
11
 7
SIMPLEX
 10
620.045593
 20
1625.96021
 40
58.9310150
  1
20
 50
0.00000000
  0
TEXT
  8
11
 7
SIMPLEX
 10
620.045593
 20
1552.29651
 40
58.9310150
  1
16
 50
0.00000000
  0
TEXT
  8
11
 7
SIMPLEX
 10
58.9310150
 20
29.4655075
 40
58.9310150
  1
BP1
 50
0.00000000
  0
LINE
  8
0
 10
642.883789
 20
497.163452
 11
642.883789
 21
1217.19336
  0
LINE
  8
0
 10
642.883789
 20
1217.19336
 11
1071.47290
 21
1217.19336
  0
LINE
  8
0
 10
1071.47290
 20
1217.19336
 11
1071.47290
 21
497.163452
  0
LINE
  8
0
 10
642.883789
 20
497.163452
 11
1071.47290
 21
497.163452
  0
CIRCLE
  8
0
 10
750.031067
 20
977.183350
 40
14.7327538
  0
CIRCLE
  8
0
 10
964.325745
 20
977.183350
 40
14.7327538
  0
CIRCLE
  8
0
 10
750.031067
 20
737.173401
 40
14.7327538
  0
CIRCLE
  8
0
 10
964.325745
 20
737.173401
 40
14.7327538
  0
LINE
  8
2
 10
1162.19092
 20
497.163452
 11
1162.19092
 21
737.173401
  0
INSERT
  8
2
  2
ARROWF
 10
1162.19092
 20
497.163452
 41
0.33300000
 42
0.33300000
 43
0.33300000
 50
270.000000
  0
INSERT
  8
2
  2
ARROWF
 10
1162.19092
 20
737.173401
 41
0.33300000
 42
0.33300000
 43
0.33300000
 50
89.9999847
  0
LINE
  8
2
 10
1122.90369
 20
737.173401
 11
1181.83459
 21
737.173401
  0
LINE
  8
2
 10
1122.90369
 20
497.163452
 11
1181.83459
 21
497.163452
  0
TEXT
  8
11
 7
SIMPLEX
 10
1191.65649
 20
587.702942
 40
58.9310150
  1
100
 50
0.00000000
  0
LINE
  8
2
 10
1162.19092
 20
737.173401
 11
1162.19092
 21
977.183350
  0
INSERT
  8
2
  2
ARROWF
 10
1162.19092
 20
737.173401
 41
0.33300000
 42
0.33300000
 43
0.33300000
 50
270.000000
  0
INSERT
  8
2
  2
ARROWF
 10
1162.19092
 20
977.183350
 41
0.33300000
 42
0.33300000
 43
0.33300000
 50
89.9999847
  0
LINE
  8
2
 10
1122.90369
 20
977.183350
 11
1181.83459
 21
977.183350
  0
LINE
  8
2
 10
1122.90369
 20
737.173401
 11
1181.83459
 21
737.173401
  0
TEXT
  8
11
 7
SIMPLEX
 10
1191.65649
 20
827.712830
 40
58.9310150
  1
100
 50
0.00000000
  0
LINE
  8
2
 10
1162.19092
 20
977.183350
 11
1162.19092
 21
1217.19336
  0
INSERT
  8
2
  2
ARROWF
 10
1162.19092
 20
977.183350
 41
0.33300000
 42
0.33300000
 43
0.33300000
 50
270.000000
  0
INSERT
  8
2
  2
ARROWF
 10
1162.19092
 20
1217.19336
 41
0.33300000
 42
0.33300000
 43
0.33300000
 50
89.9999847
  0
LINE
  8
2
 10
1122.90369
 20
1217.19336
 11
1181.83459
 21
1217.19336
  0
LINE
  8
2
 10
1122.90369
 20
977.183350
 11
1181.83459
 21
977.183350
  0
TEXT
  8
11
 7
SIMPLEX
 10
1191.65649
 20
1067.72278
 40
58.9310150
  1
100
 50
0.00000000
  0
LINE
  8
2
 10
750.031067
 20
406.445435
 11
964.325623
 21
406.445435
  0
LINE
  8
2
 10
750.031067
 20
445.732758
 11
750.031067
 21
386.801758
  0
LINE
  8
2
 10
964.325623
 20
445.732758
 11
964.325623
 21
386.801758
  0
INSERT
  8
2
  2
ARROWF
 10
750.031067
 20
406.445435
 41
0.33300000
 42
0.33300000
 43
0.33300000
 50
180.000000
  0
INSERT
  8
2
  2
ARROWF
 10
964.325623
 20
406.445435
 41
0.33300000
 42
0.33300000
 43
0.33300000
 50
0.00000000
  0
TEXT
  8
11
 7
SIMPLEX
 10
790.880981
 20
332.781677
 40
58.9310150
  1
100
 50
0.00000000
  0
LINE
  8
2
 10
552.165833
 20
438.291351
 11
552.165833
 21
497.163452
  0
LINE
  8
2
 10
552.165833
 20
549.917603
 11
552.165833
 21
608.789734
  0
INSERT
  8
2
  2
ARROWF
 10
552.165833
 20
497.163452
 41
0.33300000
 42
0.33300000
 43
0.33300000
 50
450.000000
  0
INSERT
  8
2
  2
ARROWF
 10
552.165833
 20
549.917603
 41
0.33300000
 42
0.33300000
 43
0.33300000
 50
270.000000
  0
LINE
  8
2
 10
532.522156
 20
549.917603
 11
591.453125
 21
549.917603
  0
LINE
  8
2
 10
532.522156
 20
497.163452
 11
591.453125
 21
497.163452
  0
TEXT
  8
11
 7
SIMPLEX
 10
419.570984
 20
494.075012
 40
58.9310150
  1
22
 72
           2
 11
537.433044
 21
523.540527
 73
           2
 50
   0.000
  0
LINE
  8
2
 10
552.165833
 20
549.917603
 11
552.165833
 21
1181.19189
  0
INSERT
  8
2
  2
ARROWF
 10
552.165833
 20
549.917603
 41
0.33300000
 42
0.33300000
 43
0.33300000
 50
270.000000
  0
INSERT
  8
2
  2
ARROWF
 10
552.165833
 20
1181.19189
 41
0.33300000
 42
0.33300000
 43
0.33300000
 50
89.9999847
  0
LINE
  8
2
 10
532.522156
 20
1181.19189
 11
591.453125
 21
1181.19189
  0
LINE
  8
2
 10
532.522156
 20
549.917603
 11
591.453125
 21
549.917603
  0
TEXT
  8
11
 7
SIMPLEX
 10
478.502045
 20
777.158142
 40
58.9310150
  1
263
 72
           1
 11
537.433044
 21
865.554688
 73
           1
 50
  90.000
  0
LINE
  8
2
 10
552.165833
 20
1122.31970
 11
552.165833
 21
1181.19189
  0
LINE
  8
2
 10
552.165833
 20
1217.19336
 11
552.165833
 21
1276.06543
  0
INSERT
  8
2
  2
ARROWF
 10
552.165833
 20
1181.19189
 41
0.33300000
 42
0.33300000
 43
0.33300000
 50
450.000000
  0
INSERT
  8
2
  2
ARROWF
 10
552.165833
 20
1217.19336
 41
0.33300000
 42
0.33300000
 43
0.33300000
 50
270.000000
  0
LINE
  8
2
 10
532.522156
 20
1217.19336
 11
591.453125
 21
1217.19336
  0
LINE
  8
2
 10
532.522156
 20
1181.19189
 11
591.453125
 21
1181.19189
  0
TEXT
  8
11
 7
SIMPLEX
 10
440.196869
 20
1169.72705
 40
58.9310150
  1
15
 72
           2
 11
537.433044
 21
1199.19263
 73
           2
 50
   0.000
  0
LINE
  8
2
 10
269.654083
 20
497.163452
 11
328.585083
 21
497.163452
  0
LINE
  8
2
 10
269.654083
 20
1217.19336
 11
328.585083
 21
1217.19336
  0
LINE
  8
2
 10
289.297730
 20
497.163452
 11
289.297730
 21
1217.19336
  0
INSERT
  8
2
  2
ARROWF
 10
289.297730
 20
497.163452
 41
0.33300000
 42
0.33300000
 43
0.33300000
 50
270.000000
  0
INSERT
  8
2
  2
ARROWF
 10
289.297730
 20
1217.19336
 41
0.33300000
 42
0.33300000
 43
0.33300000
 50
90.0000000
  0
TEXT
  8
11
 7
SIMPLEX
 10
274.565002
 20
790.880981
 40
58.9310150
  1
300
 50
90.0000000
  0
LINE
  8
2
 10
642.883789
 20
1307.91138
 11
1071.47290
 21
1307.91138
  0
LINE
  8
2
 10
642.883789
 20
1327.55505
 11
642.883789
 21
1268.62402
  0
LINE
  8
2
 10
1071.47290
 20
1327.55505
 11
1071.47290
 21
1268.62402
  0
INSERT
  8
2
  2
ARROWF
 10
642.883789
 20
1307.91138
 41
0.33300000
 42
0.33300000
 43
0.33300000
 50
180.000000
  0
INSERT
  8
2
  2
ARROWF
 10
1071.47290
 20
1307.91138
 41
0.33300000
 42
0.33300000
 43
0.33300000
 50
0.00000000
  0
TEXT
  8
11
 7
SIMPLEX
 10
790.880981
 20
1322.64404
 40
58.9310150
  1
200
 50
0.00000000
  0
LINE
  8
0
 10
696.457459
 20
549.917603
 11
1017.89929
 21
549.917603
  0
LINE
  8
0
 10
696.457459
 20
576.704468
 11
1017.89929
 21
576.704468
  0
LINE
  8
0
 10
696.457459
 20
549.917603
 11
696.457459
 21
576.704468
  0
LINE
  8
0
 10
1017.89929
 20
549.917603
 11
1017.89929
 21
576.704468
  0
LINE
  8
0
 10
696.457459
 20
1181.19189
 11
1017.89929
 21
1181.19189
  0
LINE
  8
0
 10
696.457459
 20
1154.40503
 11
1017.89929
 21
1154.40503
  0
LINE
  8
0
 10
696.457459
 20
1181.19189
 11
696.457459
 21
1154.40503
  0
LINE
  8
0
 10
1017.89929
 20
1181.19189
 11
1017.89929
 21
1154.40503
  0
LINE
  8
0
 10
870.571777
 20
576.704468
 11
870.571777
 21
1154.40503
  0
LINE
  8
0
 10
843.785034
 20
576.704468
 11
843.785034
 21
1154.40503
  0
ENDBLK
  8
0
  0
BLOCK
  8
1
  2
RF2TBL
 70
     0
 10
0.00000000
 20
0.00000000
  0
TEXT
  8
14
 7
SIMPLEX
 10
-9782.5488
 20
-147.32753
 40
117.862030
  1
MEMBER TABLE
 50
0.00000000
  0
TEXT
  8
14
 7
SIMPLEX
 10
-9782.5488
 20
-441.98261
 40
117.862030
  1
Mark
 50
0.00000000
  0
TEXT
  8
14
 7
SIMPLEX
 10
-8898.5830
 20
-324.12057
 40
117.862030
  1
Web Depth
 50
0.00000000
  0
TEXT
  8
14
 7
SIMPLEX
 10
-8839.6523
 20
-500.91360
 40
117.862030
  1
Start/End
 50
0.00000000
  0
TEXT
  8
14
 7
SIMPLEX
 10
-7543.1694
 20
-324.12057
 40
117.862030
  1
Web Plate
 50
0.00000000
  0
TEXT
  8
14
 7
SIMPLEX
 10
-7661.0322
 20
-500.91360
 40
117.862030
  1
Thick
 50
0.00000000
  0
TEXT
  8
14
 7
SIMPLEX
 10
-7012.7910
 20
-500.91360
 40
117.862030
  1
Length
 50
0.00000000
  0
TEXT
  8
14
 7
SIMPLEX
 10
-5539.5156
 20
-324.12057
 40
117.862030
  1
Outside Flange
 50
0.00000000
  0
TEXT
  8
14
 7
SIMPLEX
 10
-5539.5156
 20
-500.91360
 40
117.862030
  1
W x Thk x Length
 50
0.00000000
  0
TEXT
  8
14
 7
SIMPLEX
 10
-2710.8269
 20
-324.12057
 40
117.862030
  1
Inside Flange
 50
0.00000000
  0
TEXT
  8
14
 7
SIMPLEX
 10
-2710.8269
 20
-500.91360
 40
117.862030
  1
W x Thk x Length
 50
0.00000000
  0
TEXT
  8
26
 7
SIMPLEX
 10
-9782.5488
 20
-677.70667
 40
117.862030
  1
 CL2-1
 50
0.00000000
  0
TEXT
  8
26
 7
SIMPLEX
 10
-8839.6514
 20
-677.70667
 40
117.862030
  1
 250/ 700
 50
0.00000000
  0
TEXT
  8
26
 7
SIMPLEX
 10
-7719.9634
 20
-677.70667
 40
117.862030
  1
    5
 50
0.00000000
  0
TEXT
  8
26
 7
SIMPLEX
 10
-7012.7905
 20
-677.70667
 40
117.862030
  1
 6225
 50
0.00000000
  0
TEXT
  8
26
 7
SIMPLEX
 10
-5480.5845
 20
-677.70667
 40
117.862030
  1
150 x 5 x 6225
 50
0.00000000
  0
TEXT
  8
26
 7
SIMPLEX
 10
-2651.8958
 20
-677.70667
 40
117.862030
  1
150 x 8 x 6241
 50
0.00000000
  0
TEXT
  8
26
 7
SIMPLEX
 10
-2651.8958
 20
-854.49969
 40
117.862030
  1
125 x 8 x 4698
 50
0.00000000
  0
TEXT
  8
26
 7
SIMPLEX
 10
-5480.5845
 20
-854.49969
 40
117.862030
  1
125 x 5 x 366
 50
0.00000000
  0
TEXT
  8
26
 7
SIMPLEX
 10
-5480.5845
 20
-1031.2927
 40
117.862030
  1
125 x 5 x 5586
 50
0.00000000
  0
TEXT
  8
26
 7
SIMPLEX
 10
-9782.5488
 20
-854.49969
 40
117.862030
  1
 RF2-2
 50
0.00000000
  0
TEXT
  8
26
 7
SIMPLEX
 10
-8839.6514
 20
-854.49969
 40
117.862030
  1
 356/ 551
 50
0.00000000
  0
TEXT
  8
26
 7
SIMPLEX
 10
-7719.9634
 20
-854.49969
 40
117.862030
  1
    5
 50
0.00000000
  0
TEXT
  8
26
 7
SIMPLEX
 10
-7012.7905
 20
-854.49969
 40
117.862030
  1
  781
 50
0.00000000
  0
TEXT
  8
26
 7
SIMPLEX
 10
-8839.6514
 20
-1031.2927
 40
117.862030
  1
 551/ 351
 50
0.00000000
  0
TEXT
  8
26
 7
SIMPLEX
 10
-7719.9634
 20
-1031.2927
 40
117.862030
  1
    4
 50
0.00000000
  0
TEXT
  8
26
 7
SIMPLEX
 10
-7012.7905
 20
-1031.2927
 40
117.862030
  1
 4694
 50
0.00000000
  0
TEXT
  8
26
 7
SIMPLEX
 10
-2651.8958
 20
-1208.0857
 40
117.862030
  1
125 x 5 x 5887
 50
0.00000000
  0
TEXT
  8
26
 7
SIMPLEX
 10
-5480.5845
 20
-1208.0857
 40
117.862030
  1
125 x 5 x 6000
 50
0.00000000
  0
TEXT
  8
26
 7
SIMPLEX
 10
-9782.5488
 20
-1208.0857
 40
117.862030
  1
 RF2-3
 50
0.00000000
  0
TEXT
  8
26
 7
SIMPLEX
 10
-8839.6514
 20
-1208.0857
 40
117.862030
  1
 350/ 450
 50
0.00000000
  0
TEXT
  8
26
 7
SIMPLEX
 10
-7719.9634
 20
-1208.0857
 40
117.862030
  1
    4
 50
0.00000000
  0
TEXT
  8
26
 7
SIMPLEX
 10
-7012.7905
 20
-1208.0857
 40
117.862030
  1
 6000
 50
0.00000000
  0
LINE
  8
0
 10
-9900.4102
 20
-1237.5513
 11
0.00000000
 21
-1237.5513
  0
LINE
  8
0
 10
-9900.4102
 20
0.00000000
 11
-9900.4102
 21
-1237.5513
  0
LINE
  8
0
 10
0.00000000
 20
0.00000000
 11
0.00000000
 21
-1237.5513
  0
LINE
  8
0
 10
-9900.4102
 20
0.00000000
 11
0.00000000
 21
0.00000000
  0
LINE
  8
0
 10
-9900.4102
 20
-1237.5513
 11
0.00000000
 21
-1237.5513
  0
LINE
  8
0
 10
-9900.4102
 20
-176.79301
 11
0.00000000
 21
-176.79301
  0
LINE
  8
0
 10
-8957.5146
 20
-176.79301
 11
-8957.5146
 21
-1237.5513
  0
LINE
  8
0
 10
-7778.8945
 20
-176.79301
 11
-7778.8945
 21
-1237.5513
  0
LINE
  8
0
 10
-5598.4468
 20
-176.79301
 11
-5598.4468
 21
-1237.5513
  0
LINE
  8
0
 10
-2769.7581
 20
-176.79301
 11
-2769.7581
 21
-1237.5513
  0
LINE
  8
0
 10
-9900.4102
 20
-176.79301
 11
-9900.4102
 21
-1237.5513
  0
LINE
  8
0
 10
-9900.4102
 20
-176.79301
 11
-9900.4102
 21
-1237.5513
  0
LINE
  8
0
 10
-9900.4102
 20
-176.79301
 11
-9900.4102
 21
-1237.5513
  0
LINE
  8
0
 10
-8957.5146
 20
-353.58603
 11
-5598.4468
 21
-353.58603
  0
LINE
  8
0
 10
-7130.6528
 20
-353.58603
 11
-7130.6528
 21
-1237.5513
  0
LINE
  8
0
 10
-9900.4102
 20
-530.37909
 11
0.00000000
 21
-530.37909
  0
ENDBLK
  8
1
  0
BLOCK
  8
1
  2
RF2BLT1
 70
     0
 10
0.00000000
 20
26.6699982
  0
LINE
  8
3
 10
0.00000000
 20
26.6699982
 11
134.620010
 21
26.6699982
  0
LINE
  8
3
 10
0.00000000
 20
21.5899983
 11
134.620010
 21
21.5899983
  0
LINE
  8
3
 10
0.00000000
 20
12.6999989
 11
134.620010
 21
12.6999989
  0
LINE
  8
3
 10
0.00000000
 20
-0.0000008
 11
134.620010
 21
-0.0000008
  0
LINE
  8
3
 10
0.00000000
 20
0.00000000
 11
134.620010
 21
0.00000000
  0
LINE
  8
3
 10
0.00000000
 20
26.6699982
 11
0.00000000
 21
0.00000000
  0
LINE
  8
3
 10
134.620010
 20
0.00000000
 11
134.620010
 21
26.6699982
  0
LINE
  8
3
 10
20.3199997
 20
21.5899983
 11
20.3199997
 21
-0.0000008
  0
LINE
  8
3
 10
88.9000015
 20
21.5899983
 11
88.9000015
 21
-0.0000008
  0
TEXT
  8
1
 7
SIMPLEX
 10
2.53999996
 20
22.8599987
 40
2.53999996
  1
SPLICE PLATES & BOLTS
 50
0.00000000
  0
TEXT
  8
1
 7
SIMPLEX
 10
2.53999996
 20
17.7799988
 40
2.53999996
  1
Splice
 50
0.00000000
  0
TEXT
  8
1
 7
SIMPLEX
 10
2.53999996
 20
13.9699984
 40
2.53999996
  1
Mark
 50
0.00000000
  0
TEXT
  8
1
 7
SIMPLEX
 10
22.8600006
 20
17.7799988
 40
2.53999996
  1
Quan
 50
0.00000000
  0
TEXT
  8
1
 7
SIMPLEX
 10
21.5900002
 20
13.9699984
 40
2.53999996
  1
Top/Bot/Int
 50
0.00000000
  0
TEXT
  8
1
 7
SIMPLEX
 10
48.2599983
 20
13.9699984
 40
2.53999996
  1
Type
 50
0.00000000
  0
TEXT
  8
1
 7
SIMPLEX
 10
63.5000000
 20
13.9699984
 40
2.53999996
  1
Dia
 50
0.00000000
  0
TEXT
  8
1
 7
SIMPLEX
 10
78.7400055
 20
13.9699984
 40
2.53999996
  1
Len
 50
0.00000000
  0
TEXT
  8
1
 7
SIMPLEX
 10
48.2599983
 20
17.7799988
 40
2.53999996
  1
-----Bolt-----
 50
0.00000000
  0
TEXT
  8
1
 7
SIMPLEX
 10
91.4400025
 20
13.9699984
 40
2.53999996
  1
Wid
 50
0.00000000
  0
TEXT
  8
1
 7
SIMPLEX
 10
105.410004
 20
13.9699984
 40
2.53999996
  1
Thick
 50
0.00000000
  0
TEXT
  8
1
 7
SIMPLEX
 10
119.380005
 20
13.9699984
 40
2.53999996
  1
Length
 50
0.00000000
  0
TEXT
  8
1
 7
SIMPLEX
 10
99.0599976
 20
17.7799988
 40
2.53999996
  1
Plate Size
 50
0.00000000
  0
TEXT
  8
1
 7
SIMPLEX
 10
2.53999996
 20
8.88999936
 40
2.53999996
  1
SP1
 50
0.00000000
  0
TEXT
  8
1
 7
SIMPLEX
 10
22.8600006
 20
8.88999936
 40
2.53999996
  1
   4
 50
0.00000000
  0
TEXT
  8
1
 7
SIMPLEX
 10
31.7500000
 20
8.88999936
 40
2.53999996
  1
   4
 50
0.00000000
  0
TEXT
  8
1
 7
SIMPLEX
 10
40.6399994
 20
8.88999936
 40
2.53999996
  1
   2
 50
0.00000000
  0
TEXT
  8
1
 7
SIMPLEX
 10
48.2599983
 20
8.88999936
 40
2.53999996
  1
Gr8.8
 50
0.00000000
  0
TEXT
  8
1
 7
SIMPLEX
 10
62.2299957
 20
8.88999936
 40
2.53999996
  1
        20
 50
0.00000000
  0
TEXT
  8
1
 7
SIMPLEX
 10
76.1999970
 20
8.88999936
 40
2.53999996
  1
        90
 50
0.00000000
  0
TEXT
  8
1
 7
SIMPLEX
 10
91.4400025
 20
8.88999936
 40
2.53999996
  1
       200
 50
0.00000000
  0
TEXT
  8
1
 7
SIMPLEX
 10
105.410004
 20
8.88999936
 40
2.53999996
  1
        16
 50
0.00000000
  0
TEXT
  8
1
 7
SIMPLEX
 10
119.380005
 20
8.88999936
 40
2.53999996
  1
       901
 50
0.00000000
  0
TEXT
  8
1
 7
SIMPLEX
 10
2.53999996
 20
5.07999897
 40
2.53999996
  1
SP2
 50
0.00000000
  0
TEXT
  8
1
 7
SIMPLEX
 10
22.8600006
 20
5.07999897
 40
2.53999996
  1
   4
 50
0.00000000
  0
TEXT
  8
1
 7
SIMPLEX
 10
31.7500000
 20
5.07999897
 40
2.53999996
  1
   4
 50
0.00000000
  0
TEXT
  8
1
 7
SIMPLEX
 10
40.6399994
 20
5.07999897
 40
2.53999996
  1
   0
 50
0.00000000
  0
TEXT
  8
1
 7
SIMPLEX
 10
48.2599983
 20
5.07999897
 40
2.53999996
  1
Gr8.8
 50
0.00000000
  0
TEXT
  8
1
 7
SIMPLEX
 10
62.2299957
 20
5.07999897
 40
2.53999996
  1
        20
 50
0.00000000
  0
TEXT
  8
1
 7
SIMPLEX
 10
76.1999970
 20
5.07999897
 40
2.53999996
  1
        90
 50
0.00000000
  0
TEXT
  8
1
 7
SIMPLEX
 10
91.4400025
 20
5.07999897
 40
2.53999996
  1
       200
 50
0.00000000
  0
TEXT
  8
1
 7
SIMPLEX
 10
105.410004
 20
5.07999897
 40
2.53999996
  1
        16
 50
0.00000000
  0
TEXT
  8
1
 7
SIMPLEX
 10
119.380005
 20
5.07999897
 40
2.53999996
  1
       550
 50
0.00000000
  0
TEXT
  8
1
 7
SIMPLEX
 10
2.53999996
 20
1.26999878
 40
2.53999996
  1
SP3
 50
0.00000000
  0
TEXT
  8
1
 7
SIMPLEX
 10
22.8600006
 20
1.26999878
 40
2.53999996
  1
   4
 50
0.00000000
  0
TEXT
  8
1
 7
SIMPLEX
 10
31.7500000
 20
1.26999878
 40
2.53999996
  1
   4
 50
0.00000000
  0
TEXT
  8
1
 7
SIMPLEX
 10
40.6399994
 20
1.26999878
 40
2.53999996
  1
   0
 50
0.00000000
  0
TEXT
  8
1
 7
SIMPLEX
 10
48.2599983
 20
1.26999878
 40
2.53999996
  1
Gr8.8
 50
0.00000000
  0
TEXT
  8
1
 7
SIMPLEX
 10
62.2299957
 20
1.26999878
 40
2.53999996
  1
        20
 50
0.00000000
  0
TEXT
  8
1
 7
SIMPLEX
 10
76.1999970
 20
1.26999878
 40
2.53999996
  1
        90
 50
0.00000000
  0
TEXT
  8
1
 7
SIMPLEX
 10
91.4400025
 20
1.26999878
 40
2.53999996
  1
       200
 50
0.00000000
  0
TEXT
  8
1
 7
SIMPLEX
 10
105.410004
 20
1.26999878
 40
2.53999996
  1
        16
 50
0.00000000
  0
TEXT
  8
1
 7
SIMPLEX
 10
119.380005
 20
1.26999878
 40
2.53999996
  1
       664
 50
0.00000000
  0
ENDBLK
  8
1
  0
BLOCK
  8
1
  2
RF2FBR
 70
     0
 10
0.00000000
 20
0.00000000
  0
INSERT
  8
0
  2
MARKER
 10
180.328918
 20
-353.58603
 41
0.80000000
 42
0.80000000
 43
0.80000000
 50
0.00000000
  0
TEXT
  8
14
 7
SIMPLEX
 10
333.549561
 20
-353.58603
 40
117.862030
  1
FLANGE BRACES: FBxx (1 or 2)
 50
0.00000000
  0
TEXT
  8
14
 7
SIMPLEX
 10
333.549561
 20
-530.37909
 40
117.862030
  1
  xx=length(mm)
 50
0.00000000
  0
TEXT
  8
14
 7
SIMPLEX
 10
333.549561
 20
-707.17206
 40
117.862030
  1
  (1) One Side; (2) Two Sides
 50
0.00000000
  0
TEXT
  8
14
 7
SIMPLEX
 10
333.549561
 20
-942.89606
 40
117.862030
  1
A - L40X40X4
 50
0.00000000
  0
ENDBLK
  8
1
  0
ENDSEC
  0
SECTION
  2
ENTITIES
  0
LINE
  8
22
 10
0.00000000
 20
0.00000000
 11
28347.6328
 21
0.00000000
  0
LINE
  8
22
 10
28347.6328
 20
0.00000000
 11
28347.6328
 21
20045.8262
  0
LINE
  8
22
 10
28347.6328
 20
20045.8262
 11
0.00000000
 21
20045.8262
  0
LINE
  8
22
 10
0.00000000
 20
20045.8262
 11
0.00000000
 21
0.00000000
  0
LINE
  8
0
 10
17547.1836
 20
0.00000000
 11
17547.1836
 21
1800.07458
  0
LINE
  8
0
 10
17547.1836
 20
1800.07458
 11
28347.6328
 21
1800.07458
  0
LINE
  8
0
 10
17547.1836
 20
0.00000000
 11
28347.6328
 21
0.00000000
  0
LINE
  8
0
 10
28347.6328
 20
0.00000000
 11
28347.6328
 21
1800.07458
  0
LINE
  8
0
 10
17547.1836
 20
685.742737
 11
28347.6328
 21
685.742737
  0
LINE
  8
0
 10
17547.1836
 20
1028.61414
 11
28347.6328
 21
1028.61414
  0
LINE
  8
0
 10
17547.1836
 20
1371.48547
 11
28347.6328
 21
1371.48547
  0
LINE
  8
0
 10
19090.1035
 20
0.00000000
 11
19090.1035
 21
1371.48547
  0
LINE
  8
0
 10
22947.4063
 20
0.00000000
 11
22947.4063
 21
1371.48547
  0
LINE
  8
0
 10
22947.4063
 20
342.871368
 11
28347.6328
 21
342.871368
  0
LINE
  8
0
 10
24833.1992
 20
1028.61414
 11
24833.1992
 21
685.742737
  0
LINE
  8
0
 10
26547.5566
 20
1028.61414
 11
26547.5566
 21
685.742737
  0
LINE
  8
0
 10
25690.3770
 20
685.742737
 11
25690.3770
 21
342.871368
  0
TEXT
  8
14
 7
SIMPLEX
 10
17718.6172
 20
1114.33191
 40
171.435684
  1
PROJECT
 50
0.00000000
  0
TEXT
  8
14
 7
SIMPLEX
 10
17718.6172
 20
771.460571
 40
171.435684
  1
ID
 50
0.00000000
  0
TEXT
  8
14
 7
SIMPLEX
 10
17718.6172
 20
428.589203
 40
171.435684
  1
PROJECT
 50
0.00000000
  0
TEXT
  8
14
 7
SIMPLEX
 10
17718.6172
 20
85.7178421
 40
171.435684
  1
ADDRESS
 50
0.00000000
  0
TEXT
  8
14
 7
SIMPLEX
 10
19261.5410
 20
1114.33191
 40
171.435684
  1
Proposed Warehouse
 50
0.00000000
  0
TEXT
  8
14
 7
SIMPLEX
 10
19261.5410
 20
771.460571
 40
171.435684
  1
Q-1467
 50
0.00000000
  0
TEXT
  8
14
 7
SIMPLEX
 10
19261.5410
 20
428.589203
 40
171.435684
  1
Proposed Warehouse
 50
0.00000000
  0
TEXT
  8
14
 7
SIMPLEX
 10
19261.5410
 20
85.7178421
 40
171.435684
  1
 
 50
0.00000000
  0
TEXT
  8
14
 7
SIMPLEX
 10
19775.8477
 20
1457.20325
 40
257.153534
  1
Sivoko Steel Structures Ltd.
 50
0.00000000
  0
TEXT
  8
14
 7
SIMPLEX
 10
23118.8418
 20
1114.33191
 40
171.435684
  1
RIGID FRAME ELEVATION
 50
0.00000000
  0
TEXT
  8
14
 7
SIMPLEX
 10
23118.8418
 20
771.460571
 40
171.435684
  1
DESIGN:
 50
0.00000000
  0
TEXT
  8
14
 7
SIMPLEX
 10
23118.8418
 20
428.589203
 40
171.435684
  1
DATE:
 50
0.00000000
  0
TEXT
  8
14
 7
SIMPLEX
 10
23993.1641
 20
428.589203
 40
171.435684
  1
15/DEC/2025
 50
0.00000000
  0
TEXT
  8
14
 7
SIMPLEX
 10
25004.6348
 20
771.460571
 40
171.435684
  1
DRAFT:
 50
0.00000000
  0
TEXT
  8
14
 7
SIMPLEX
 10
26718.9922
 20
771.460571
 40
171.435684
  1
CHECK:
 50
0.00000000
  0
TEXT
  8
14
 7
SIMPLEX
 10
25776.0938
 20
428.589203
 40
171.435684
  1
SHEET
 50
0.00000000
  0
TEXT
  8
14
 7
SIMPLEX
 10
27319.0137
 20
428.589203
 40
171.435684
  1
OF
 50
0.00000000
  0
TEXT
  8
14
 7
SIMPLEX
 10
26633.2734
 20
428.589203
 40
171.435684
  1
 
 50
0.00000000
999
FIELD:@PAGE_ID
  0
TEXT
  8
14
 7
SIMPLEX
 10
27661.8887
 20
428.589203
 40
171.435684
  1
 
 50
0.00000000
999
FIELD:@PAGE_TOTAL
  0
INSERT
  8
0
  2
EPBLK1
 10
0.00000000
 20
0.00000000
 41
2.00000000
 42
2.00000000
 43
2.00000000
 50
0.00000000
  0
INSERT
  8
0
  2
EPBLK2
 10
3428.71362
 20
0.00000000
 41
2.00000000
 42
2.00000000
 43
2.00000000
 50
0.00000000
  0
INSERT
  8
0
  2
EPBLK3
 10
6857.42725
 20
0.00000000
 41
2.00000000
 42
2.00000000
 43
2.00000000
 50
0.00000000
  0
INSERT
  8
0
  2
EPBLK4
 10
10286.1406
 20
0.00000000
 41
2.00000000
 42
2.00000000
 43
2.00000000
 50
0.00000000
  0
INSERT
  8
0
  2
FRAME2
 10
2964.21045
 20
5675.00684
 41
1.00000000
 42
1.00000000
 43
1.00000000
 50
0.00000000
  0
INSERT
  8
0
  2
RF2TBL
 10
28347.6328
 20
20045.8262
 41
1.00000000
 42
1.00000000
 43
1.00000000
 50
0.00000000
  0
INSERT
  8
0
  2
RF2BLT1
 10
0.00000000
 20
20045.8262
 41
46.4023743
 42
46.4023743
 43
46.4023743
 50
0.00000000
  0
INSERT
  8
0
  2
RF2FBR
 10
0.00000000
 20
18690.4121
 41
1.00000000
 42
1.00000000
 43
1.00000000
 50
0.00000000
  0
ENDSEC
  0
EOF
