  0
SECTION
  2
HEADER
  9
$ACADVER
  1
AC1009
  9
$EXTMIN
 10
 -1385.124
 20
 -4616.584
  9
$EXTMAX
 10
 23855.125
 20
 14313.603
  9
$LIMMIN
 10
 -1385.124
 20
 -4616.584
  9
$LIMMAX
 10
 23855.125
 20
 14313.603
  9
$FILLMODE
 70
     1
  9
$HANDLING
 70
     0
  0
ENDSEC
  0
SECTION
  2
TABLES
  0
TABLE
  2
LTYPE
 70
1
  0
LTYPE
  2
CONTIN
 70
    64
  3
SOLID LINE
 72
    65
 73
     0
 40
0.0
  0
LTYPE
  2
CONTINUOUS
 70
    64
  3
SOLID LINE
 72
    65
 73
     0
 40
0.0
  0
LTYPE
  2
CENTER
 70
    64
  3
____ _ ____ _ ____ _ ____ _ ____ _ ____ _ ____
 72
    65
 73
     4
 40
  2355.680
 49
  1472.300
 49
  -294.460
 49
   294.460
 49
  -294.460
  0
LTYPE
  2
DASHED
 70
    64
  3
__ __ __ __ __ __ __ __ __ __ __ __ __ __ __ 
 72
    65
 73
     2
 40
   302.88
 49
   201.92
 49
  -100.96
  0
ENDTAB
  0
TABLE
  2
LAYER
 70
30
  0
LAYER
  2
0
 70
     0
 62
     7
  6
CONTIN
  0
LAYER
  2
1
 70
     0
 62
     7
  6
CONTIN
  0
LAYER
  2
2
 70
     0
 62
     7
  6
CONTIN
  0
LAYER
  2
3
 70
     0
 62
     7
  6
CONTIN
  0
LAYER
  2
4
 70
     0
 62
     5
  6
CONTIN
  0
LAYER
  2
5
 70
     0
 62
     5
  6
DASHED
  0
LAYER
  2
6
 70
     0
 62
     5
  6
DASHED
  0
LAYER
  2
7
 70
     0
 62
     5
  6
CONTIN
  0
LAYER
  2
8
 70
     0
 62
     5
  6
DASHED
  0
LAYER
  2
9
 70
     0
 62
     7
  6
CONTIN
  0
LAYER
  2
10
 70
     0
 62
     7
  6
CONTIN
  0
LAYER
  2
11
 70
     0
 62
     6
  6
DASHED
  0
LAYER
  2
12
 70
     0
 62
     7
  6
DASHED
  0
LAYER
  2
13
 70
     0
 62
     5
  6
DASHED
  0
LAYER
  2
14
 70
     0
 62
     7
  6
CONTIN
  0
LAYER
  2
15
 70
     0
 62
     5
  6
CONTIN
  0
LAYER
  2
16
 70
     0
 62
     7
  6
CONTIN
  0
LAYER
  2
17
 70
     0
 62
     7
  6
CONTIN
  0
LAYER
  2
18
 70
     0
 62
     7
  6
CONTIN
  0
LAYER
  2
19
 70
     0
 62
     7
  6
CONTIN
  0
LAYER
  2
20
 70
     0
 62
     1
  6
CONTIN
  0
LAYER
  2
21
 70
     0
 62
     7
  6
CONTIN
  0
LAYER
  2
22
 70
     0
 62
     7
  6
DASHED
  0
LAYER
  2
23
 70
     0
 62
     7
  6
DASHED
  0
LAYER
  2
24
 70
     0
 62
     7
  6
CONTIN
  0
LAYER
  2
25
 70
     0
 62
     7
  6
CONTIN
  0
LAYER
  2
26
 70
     0
 62
     7
  6
CONTIN
  0
LAYER
  2
27
 70
     0
 62
     1
  6
CENTER
  0
LAYER
  2
28
 70
     0
 62
     7
  6
CONTIN
  0
LAYER
  2
29
 70
     0
 62
     3
  6
DASHED
  0
ENDTAB
  0
TABLE
  2
STYLE
 70
  0
  0
ENDTAB
  0
ENDSEC
  0
SECTION
  2
ENTITIES
  0
LINE
  8
1
 10
   236.000
 20
     0.000
 11
   636.000
 21
     0.000
  0
LINE
  8
1
 10
   236.000
 20
     0.000
 11
   236.000
 21
  8286.822
  0
LINE
  8
1
 10
   636.000
 20
     0.000
 11
   936.001
 21
  4000.000
  0
LINE
  8
1
 10
   936.001
 20
  4000.000
 11
   936.000
 21
  7753.830
  0
LINE
  8
1
 10
   236.000
 20
  8286.822
 11
 11235.000
 21
  9386.722
  0
LINE
  8
1
 10
   936.000
 20
  7753.830
 11
  4518.066
 21
  8463.782
  0
LINE
  8
1
 10
  4518.066
 20
  8463.782
 11
 11235.000
 21
  8934.478
  0
LINE
  8
1
 10
 11235.000
 20
  9386.722
 11
 22234.000
 21
  8286.822
  0
LINE
  8
1
 10
 11235.000
 20
  8934.478
 11
 18004.635
 21
  8458.512
  0
LINE
  8
1
 10
 18004.635
 20
  8458.512
 11
 21534.002
 21
  7753.830
  0
LINE
  8
1
 10
 22234.000
 20
  8286.822
 11
 22234.000
 21
     0.000
  0
LINE
  8
1
 10
 21534.002
 20
  7753.830
 11
 21534.002
 21
  4250.000
  0
LINE
  8
1
 10
 21534.002
 20
  4250.000
 11
 21834.002
 21
     0.000
  0
LINE
  8
1
 10
   236.000
 20
     0.000
 11
   636.000
 21
     0.000
  0
LINE
  8
1
 10
 22234.000
 20
     0.000
 11
 21834.002
 21
     0.000
  0
TEXT
  8
16
 10
  -237.839
 20
  2000.000
 40
   121.920
  1
M1
 50
     0.000
  0
TEXT
  8
16
 10
  -237.839
 20
  6143.412
 40
   121.920
  1
M2
 50
     0.000
  0
TEXT
  8
16
 10
  2325.406
 20
  8891.567
 40
   121.920
  1
M3
 50
     0.000
  0
TEXT
  8
16
 10
  7824.906
 20
  9441.517
 40
   121.920
  1
M4
 50
     0.000
  0
TEXT
  8
16
 10
 14671.444
 20
  9438.882
 40
   121.920
  1
M5
 50
     0.000
  0
TEXT
  8
16
 10
 20170.945
 20
  8888.932
 40
   121.920
  1
M6
 50
     0.000
  0
TEXT
  8
16
 10
 22707.842
 20
  6268.411
 40
   121.920
  1
M7
 50
     0.000
  0
TEXT
  8
16
 10
 22707.842
 20
  2125.000
 40
   121.920
  1
M8
 50
     0.000
  0
TEXT
  8
16
 10
  1029.841
 20
  2000.000
 40
   121.920
  1
S1
 50
     0.000
  0
TEXT
  8
16
 10
  1179.840
 20
  5876.915
 40
   121.920
  1
S2
 50
     0.000
  0
TEXT
  8
16
 10
  2751.296
 20
  7866.176
 40
   121.920
  1
S3
 50
     0.000
  0
TEXT
  8
16
 10
  7900.796
 20
  8456.500
 40
   121.920
  1
S4
 50
     0.000
  0
TEXT
  8
16
 10
 14595.555
 20
  8453.865
 40
   121.920
  1
S5
 50
     0.000
  0
TEXT
  8
16
 10
 19745.055
 20
  7863.541
 40
   121.920
  1
S6
 50
     0.000
  0
TEXT
  8
16
 10
 21143.857
 20
  6001.915
 40
   121.920
  1
S7
 50
     0.000
  0
TEXT
  8
16
 10
 21293.857
 20
  2125.000
 40
   121.920
  1
S8
 50
     0.000
  0
LINE
  8
9
 10
   236.000
 20
  7753.830
 11
   936.000
 21
  7753.830
  0
LINE
  8
9
 10
   236.000
 20
  7723.350
 11
   236.000
 21
  7784.310
  0
LINE
  8
9
 10
   936.000
 20
  7723.350
 11
   936.000
 21
  7784.310
  0
LINE
  8
9
 10
   936.000
 20
  7723.350
 11
   236.000
 21
  7723.350
  0
LINE
  8
9
 10
   936.000
 20
  7784.310
 11
   236.000
 21
  7784.310
  0
TEXT
  8
16
 10
   954.197
 20
  7570.950
 40
   121.920
  1
SP1
 50
     0.000
  0
LINE
  8
9
 10
  4493.190
 20
  8712.541
 11
  4518.066
 21
  8463.782
  0
LINE
  8
9
 10
  4462.861
 20
  8709.508
 11
  4523.519
 21
  8715.574
  0
LINE
  8
9
 10
  4487.737
 20
  8460.749
 11
  4548.395
 21
  8466.814
  0
LINE
  8
9
 10
  4487.737
 20
  8460.749
 11
  4462.861
 21
  8709.508
  0
LINE
  8
9
 10
  4548.395
 20
  8466.814
 11
  4523.519
 21
  8715.574
  0
TEXT
  8
16
 10
  4536.263
 20
  8280.901
 40
   121.920
  1
SP2
 50
     0.000
  0
LINE
  8
9
 10
 11235.000
 20
  9386.722
 11
 11235.000
 21
  8934.478
  0
LINE
  8
9
 10
 11204.521
 20
  9386.722
 11
 11265.479
 21
  9386.722
  0
LINE
  8
9
 10
 11204.521
 20
  8934.478
 11
 11265.479
 21
  8934.478
  0
LINE
  8
9
 10
 11204.521
 20
  8934.478
 11
 11204.521
 21
  9386.722
  0
LINE
  8
9
 10
 11265.479
 20
  8934.478
 11
 11265.479
 21
  9386.722
  0
TEXT
  8
16
 10
 11216.802
 20
  8751.598
 40
   121.920
  1
SP3
 50
     0.000
  0
LINE
  8
9
 10
 18029.512
 20
  8707.271
 11
 18004.635
 21
  8458.512
  0
LINE
  8
9
 10
 17999.184
 20
  8710.304
 11
 18059.840
 21
  8704.238
  0
LINE
  8
9
 10
 17974.307
 20
  8461.545
 11
 18034.963
 21
  8455.479
  0
LINE
  8
9
 10
 17974.307
 20
  8461.545
 11
 17999.184
 21
  8710.304
  0
LINE
  8
9
 10
 18034.963
 20
  8455.479
 11
 18059.840
 21
  8704.238
  0
TEXT
  8
16
 10
 17986.438
 20
  8275.632
 40
   121.920
  1
SP4
 50
     0.000
  0
LINE
  8
9
 10
 22234.000
 20
  7753.830
 11
 21534.002
 21
  7753.830
  0
LINE
  8
9
 10
 22234.000
 20
  7784.310
 11
 22234.000
 21
  7723.350
  0
LINE
  8
9
 10
 21534.002
 20
  7784.310
 11
 21534.002
 21
  7723.350
  0
LINE
  8
9
 10
 21534.002
 20
  7784.310
 11
 22234.000
 21
  7784.310
  0
LINE
  8
9
 10
 21534.002
 20
  7723.350
 11
 22234.000
 21
  7723.350
  0
TEXT
  8
16
 10
 21168.242
 20
  7570.950
 40
   121.920
  1
SP5
 50
     0.000
  0
LINE
  8
9
 10
   236.000
 20
     0.000
 11
   636.000
 21
     0.000
  0
LINE
  8
9
 10
   236.000
 20
    30.480
 11
   636.000
 21
    30.480
  0
LINE
  8
9
 10
   236.000
 20
     0.000
 11
   236.000
 21
    30.480
  0
LINE
  8
9
 10
   636.000
 20
     0.000
 11
   636.000
 21
    30.480
  0
LINE
  8
9
 10
 22234.000
 20
     0.000
 11
 21834.002
 21
     0.000
  0
LINE
  8
9
 10
 22234.000
 20
    30.480
 11
 21834.002
 21
    30.480
  0
LINE
  8
9
 10
 22234.000
 20
     0.000
 11
 22234.000
 21
    30.480
  0
LINE
  8
9
 10
 21834.002
 20
     0.000
 11
 21834.002
 21
    30.480
  0
LINE
  8
5
 10
    30.001
 20
  2580.000
 11
   230.001
 21
  2580.000
  0
LINE
  8
3
 10
    30.001
 20
  2580.000
 11
  -144.216
 21
  2680.584
  0
LINE
  8
3
 10
    30.001
 20
  2580.000
 11
  -144.225
 21
  2479.433
  0
LINE
  8
3
 10
  -144.216
 20
  2680.584
 11
  -144.225
 21
  2479.433
  0
LINE
  8
5
 10
    30.001
 20
  4080.000
 11
   230.001
 21
  4080.000
  0
LINE
  8
5
 10
    30.002
 20
  5580.000
 11
   230.002
 21
  5580.000
  0
LINE
  8
5
 10
    30.002
 20
  7080.000
 11
   230.002
 21
  7080.000
  0
LINE
  8
5
 10
 22440.000
 20
  2580.000
 11
 22240.000
 21
  2580.000
  0
LINE
  8
3
 10
 22440.000
 20
  2580.000
 11
 22614.217
 21
  2479.417
  0
LINE
  8
3
 10
 22440.000
 20
  2580.000
 11
 22614.227
 21
  2680.567
  0
LINE
  8
3
 10
 22614.217
 20
  2479.417
 11
 22614.227
 21
  2680.567
  0
LINE
  8
5
 10
 22439.996
 20
  4080.000
 11
 22239.998
 21
  4080.000
  0
LINE
  8
5
 10
 22439.996
 20
  5580.000
 11
 22239.998
 21
  5580.000
  0
LINE
  8
5
 10
 22439.996
 20
  7080.000
 11
 22239.998
 21
  7080.000
  0
LINE
  8
5
 10
  1367.082
 20
  8556.708
 11
  1387.301
 21
  8354.517
  0
LINE
  8
3
 10
  1367.082
 20
  8556.708
 11
  1449.831
 21
  8740.069
  0
LINE
  8
3
 10
  1367.082
 20
  8556.708
 11
  1249.677
 21
  8720.062
  0
LINE
  8
3
 10
  1449.831
 20
  8740.069
 11
  1249.677
 21
  8720.062
  0
LINE
  8
5
 10
  2734.164
 20
  8693.417
 11
  2754.383
 21
  8491.225
  0
LINE
  8
5
 10
  4101.146
 20
  8830.114
 11
  4121.365
 21
  8627.923
  0
LINE
  8
3
 10
  4101.146
 20
  8830.114
 11
  4183.895
 21
  9013.476
  0
LINE
  8
3
 10
  4101.146
 20
  8830.114
 11
  3983.741
 21
  8993.470
  0
LINE
  8
3
 10
  4183.895
 20
  9013.476
 11
  3983.741
 21
  8993.470
  0
LINE
  8
5
 10
  5468.227
 20
  8966.822
 11
  5488.446
 21
  8764.631
  0
LINE
  8
5
 10
  6835.309
 20
  9103.531
 11
  6855.528
 21
  8901.340
  0
LINE
  8
3
 10
  6835.309
 20
  9103.531
 11
  6918.058
 21
  9286.892
  0
LINE
  8
3
 10
  6835.309
 20
  9103.531
 11
  6717.904
 21
  9266.886
  0
LINE
  8
3
 10
  6918.058
 20
  9286.892
 11
  6717.904
 21
  9266.886
  0
LINE
  8
5
 10
  8202.391
 20
  9240.239
 11
  8222.609
 21
  9038.048
  0
LINE
  8
5
 10
  9569.472
 20
  9376.947
 11
  9589.691
 21
  9174.756
  0
LINE
  8
3
 10
  9569.472
 20
  9376.947
 11
  9652.221
 21
  9560.309
  0
LINE
  8
3
 10
  9569.472
 20
  9376.947
 11
  9452.067
 21
  9540.302
  0
LINE
  8
3
 10
  9652.221
 20
  9560.309
 11
  9452.067
 21
  9540.302
  0
LINE
  8
5
 10
 10936.453
 20
  9513.646
 11
 10956.673
 21
  9311.454
  0
LINE
  8
3
 10
 10936.453
 20
  9513.646
 11
 11019.202
 21
  9697.007
  0
LINE
  8
3
 10
 10936.453
 20
  9513.646
 11
 10819.049
 21
  9677.000
  0
LINE
  8
3
 10
 11019.202
 20
  9697.007
 11
 10819.049
 21
  9677.000
  0
LINE
  8
5
 10
 11533.511
 20
  9513.649
 11
 11513.291
 21
  9311.457
  0
LINE
  8
3
 10
 11533.511
 20
  9513.649
 11
 11650.931
 21
  9676.992
  0
LINE
  8
3
 10
 11533.511
 20
  9513.649
 11
 11450.778
 21
  9697.018
  0
LINE
  8
3
 10
 11650.931
 20
  9676.992
 11
 11450.778
 21
  9697.018
  0
LINE
  8
5
 10
 12900.592
 20
  9376.941
 11
 12880.373
 21
  9174.749
  0
LINE
  8
3
 10
 12900.592
 20
  9376.941
 11
 13018.012
 21
  9540.285
  0
LINE
  8
3
 10
 12900.592
 20
  9376.941
 11
 12817.860
 21
  9560.310
  0
LINE
  8
3
 10
 13018.012
 20
  9540.285
 11
 12817.860
 21
  9560.310
  0
LINE
  8
5
 10
 14267.674
 20
  9240.232
 11
 14247.454
 21
  9038.041
  0
LINE
  8
5
 10
 15634.656
 20
  9103.534
 11
 15614.437
 21
  8901.343
  0
LINE
  8
3
 10
 15634.656
 20
  9103.534
 11
 15752.076
 21
  9266.878
  0
LINE
  8
3
 10
 15634.656
 20
  9103.534
 11
 15551.925
 21
  9286.903
  0
LINE
  8
3
 10
 15752.076
 20
  9266.878
 11
 15551.925
 21
  9286.903
  0
LINE
  8
5
 10
 17001.738
 20
  8966.826
 11
 16981.520
 21
  8764.635
  0
LINE
  8
5
 10
 18368.820
 20
  8830.118
 11
 18348.600
 21
  8627.927
  0
LINE
  8
3
 10
 18368.820
 20
  8830.118
 11
 18486.240
 21
  8993.462
  0
LINE
  8
3
 10
 18368.820
 20
  8830.118
 11
 18286.088
 21
  9013.486
  0
LINE
  8
3
 10
 18486.240
 20
  8993.462
 11
 18286.088
 21
  9013.486
  0
LINE
  8
5
 10
 19735.902
 20
  8693.410
 11
 19715.682
 21
  8491.219
  0
LINE
  8
5
 10
 21102.982
 20
  8556.702
 11
 21082.764
 21
  8354.510
  0
LINE
  8
3
 10
 21102.982
 20
  8556.702
 11
 21220.404
 21
  8720.045
  0
LINE
  8
3
 10
 21102.982
 20
  8556.702
 11
 21020.252
 21
  8740.070
  0
LINE
  8
3
 10
 21220.404
 20
  8720.045
 11
 21020.252
 21
  8740.070
  0
LINE
  8
8
 10
     0.000
 20
     0.000
 11
     0.000
 21
  8420.000
  0
LINE
  8
8
 10
     0.000
 20
  8420.000
 11
 11235.000
 21
  9543.500
  0
LINE
  8
8
 10
 11235.000
 20
  9543.500
 11
 22470.000
 21
  8420.000
  0
LINE
  8
8
 10
 22470.000
 20
  8420.000
 11
 22470.000
 21
     0.000
  0
LINE
  8
10
 10
   936.000
 20
  7753.830
 11
   936.000
 21
  8296.522
  0
LINE
  8
10
 10
 21534.002
 20
  7753.830
 11
 21534.002
 21
  8296.522
  0
LINE
  8
10
 10
  1276.200
 20
  5834.000
 11
   942.002
 21
  5834.000
  0
LINE
  8
10
 10
  1276.200
 20
  5834.000
 11
  1276.200
 21
  5630.800
  0
LINE
  8
10
 10
  1276.200
 20
  5630.800
 11
   942.002
 21
  5630.800
  0
LINE
  8
8
 10
  1200.000
 20
  6174.600
 11
  1200.000
 21
  5834.000
  0
LINE
  8
8
 10
  1300.000
 20
  6174.600
 11
  1100.000
 21
  6174.600
  0
LINE
  8
8
 10
  1200.000
 20
  6200.000
 11
 21269.998
 21
  6200.000
  0
LINE
  8
8
 10
 21269.998
 20
  6200.000
 11
 21269.998
 21
  6200.000
  0
LINE
  8
8
 10
 21269.998
 20
  6200.000
 11
  1200.000
 21
  6200.000
  0
LINE
  8
8
 10
  1200.000
 20
  6200.000
 11
  1200.000
 21
  6200.000
  0
TEXT
  8
21
 10
 10930.200
 20
  6017.120
 40
   121.920
  1
Crane
 50
     0.000
  0
LINE
  8
10
 10
 21193.799
 20
  5834.000
 11
 21528.002
 21
  5834.000
  0
LINE
  8
10
 10
 21193.799
 20
  5834.000
 11
 21193.799
 21
  5630.800
  0
LINE
  8
10
 10
 21193.799
 20
  5630.800
 11
 21528.002
 21
  5630.800
  0
LINE
  8
8
 10
 21269.998
 20
  6174.600
 11
 21269.998
 21
  5834.000
  0
LINE
  8
8
 10
 21370.000
 20
  6174.600
 11
 21169.998
 21
  6174.600
  0
LINE
  8
8
 10
  1200.000
 20
  6200.000
 11
 21269.998
 21
  6200.000
  0
LINE
  8
8
 10
 21269.998
 20
  6200.000
 11
 21269.998
 21
  6200.000
  0
LINE
  8
8
 10
 21269.998
 20
  6200.000
 11
  1200.000
 21
  6200.000
  0
LINE
  8
8
 10
  1200.000
 20
  6200.000
 11
  1200.000
 21
  6200.000
  0
TEXT
  8
21
 10
 10930.200
 20
  6017.120
 40
   121.920
  1
Crane
 50
     0.000
  0
LINE
  8
0
 10
 -1385.124
 20
 -4616.584
 11
 23855.125
 21
 -4616.584
  0
LINE
  8
0
 10
 23855.125
 20
 -4616.584
 11
 23855.125
 21
 14313.603
  0
LINE
  8
0
 10
 23855.125
 20
 14313.603
 11
 -1385.124
 21
 14313.603
  0
LINE
  8
0
 10
 -1385.124
 20
 14313.603
 11
 -1385.124
 21
 -4616.584
  0
LINE
  8
0
 10
 -1385.124
 20
 -3991.888
 11
 23855.125
 21
 -3991.888
  0
TEXT
  8
0
 10
  7070.358
 20
 -4512.469
 40
   416.464
  1
Rigid Frame 2 Design
 50
     0.000
  0
TEXT
  8
0
 10
 -1176.891
 20
 -4512.469
 40
   416.464
  1
C323-153
 50
     0.000
  0
TEXT
  8
0
 10
 19065.787
 20
 -4512.469
 40
   416.464
  1
 6/AUG/2025
 50
     0.000
  0
ENDSEC
  0
EOF
