  0
SECTION
  2
HEADER
  9
$ACADVER
  1
AC1009
  9
$EXTMIN
 10
-14501.670
 20
-13921.930
  9
$EXTMAX
 10
 52586.668
 20
 36394.324
  9
$LIMMIN
 10
-14501.670
 20
-13921.930
  9
$LIMMAX
 10
 52586.668
 20
 36394.324
  9
$FILLMODE
 70
     1
  9
$HANDLING
 70
     0
  0
ENDSEC
  0
SECTION
  2
TABLES
  0
TABLE
  2
LTYPE
 70
1
  0
LTYPE
  2
CONTIN
 70
    64
  3
SOLID LINE
 72
    65
 73
     0
 40
0.0
  0
LTYPE
  2
CONTINUOUS
 70
    64
  3
SOLID LINE
 72
    65
 73
     0
 40
0.0
  0
LTYPE
  2
CENTER
 70
    64
  3
____ _ ____ _ ____ _ ____ _ ____ _ ____ _ ____
 72
    65
 73
     4
 40
     6.155
 49
     3.847
 49
    -0.769
 49
     0.769
 49
    -0.769
  0
LTYPE
  2
DASHED
 70
    64
  3
__ __ __ __ __ __ __ __ __ __ __ __ __ __ __ 
 72
    65
 73
     2
 40
   805.06
 49
   536.70
 49
  -268.35
  0
ENDTAB
  0
TABLE
  2
LAYER
 70
30
  0
LAYER
  2
0
 70
     0
 62
     7
  6
CONTIN
  0
LAYER
  2
1
 70
     0
 62
     7
  6
CONTIN
  0
LAYER
  2
2
 70
     0
 62
     7
  6
CONTIN
  0
LAYER
  2
3
 70
     0
 62
     7
  6
CONTIN
  0
LAYER
  2
4
 70
     0
 62
     5
  6
CONTIN
  0
LAYER
  2
5
 70
     0
 62
     5
  6
DASHED
  0
LAYER
  2
6
 70
     0
 62
     5
  6
DASHED
  0
LAYER
  2
7
 70
     0
 62
     5
  6
CONTIN
  0
LAYER
  2
8
 70
     0
 62
     5
  6
DASHED
  0
LAYER
  2
9
 70
     0
 62
     7
  6
CONTIN
  0
LAYER
  2
10
 70
     0
 62
     7
  6
CONTIN
  0
LAYER
  2
11
 70
     0
 62
     6
  6
DASHED
  0
LAYER
  2
12
 70
     0
 62
     7
  6
DASHED
  0
LAYER
  2
13
 70
     0
 62
     5
  6
DASHED
  0
LAYER
  2
14
 70
     0
 62
     7
  6
CONTIN
  0
LAYER
  2
15
 70
     0
 62
     5
  6
CONTIN
  0
LAYER
  2
16
 70
     0
 62
     7
  6
CONTIN
  0
LAYER
  2
17
 70
     0
 62
     7
  6
CONTIN
  0
LAYER
  2
18
 70
     0
 62
     7
  6
CONTIN
  0
LAYER
  2
19
 70
     0
 62
     7
  6
CONTIN
  0
LAYER
  2
20
 70
     0
 62
     1
  6
CONTIN
  0
LAYER
  2
21
 70
     0
 62
     7
  6
CONTIN
  0
LAYER
  2
22
 70
     0
 62
     7
  6
DASHED
  0
LAYER
  2
23
 70
     0
 62
     7
  6
DASHED
  0
LAYER
  2
24
 70
     0
 62
     7
  6
CONTIN
  0
LAYER
  2
25
 70
     0
 62
     7
  6
CONTIN
  0
LAYER
  2
26
 70
     0
 62
     7
  6
CONTIN
  0
LAYER
  2
27
 70
     0
 62
     1
  6
CENTER
  0
LAYER
  2
28
 70
     0
 62
     7
  6
CONTIN
  0
LAYER
  2
29
 70
     0
 62
     3
  6
DASHED
  0
ENDTAB
  0
TABLE
  2
STYLE
 70
  0
  0
ENDTAB
  0
ENDSEC
  0
SECTION
  2
ENTITIES
  0
LINE
  8
8
 10
-11452.200
 20
 22470.000
 11
 -3032.200
 21
 22470.000
  0
LINE
  8
8
 10
 -3032.200
 20
 22470.000
 11
 -1908.701
 21
 11234.999
  0
LINE
  8
8
 10
 -1908.701
 20
 11234.999
 11
 -3032.201
 21
     0.000
  0
LINE
  8
8
 10
 -3032.201
 20
     0.000
 11
-11452.201
 21
     0.000
  0
LINE
  8
4
 10
-11452.200
 20
 22470.000
 11
 -3032.200
 21
 22470.000
  0
LINE
  8
4
 10
-11452.201
 20
 11235.000
 11
 -1908.701
 21
 11234.999
  0
LINE
  8
4
 10
-11452.201
 20
     0.000
 11
 -3032.201
 21
     0.000
  0
LINE
  8
8
 10
     0.000
 20
-10328.699
 11
     0.000
 21
 -1908.700
  0
LINE
  8
8
 10
     0.000
 20
 -1908.700
 11
 36285.000
 21
 -1908.700
  0
LINE
  8
8
 10
 36285.000
 20
 -1908.700
 11
 36285.000
 21
-10328.699
  0
LINE
  8
4
 10
     0.000
 20
-10328.699
 11
     0.000
 21
 -1908.700
  0
LINE
  8
4
 10
  6200.000
 20
-10328.699
 11
  6200.000
 21
 -1908.700
  0
LINE
  8
4
 10
 12190.000
 20
-10328.699
 11
 12190.000
 21
 -1908.700
  0
LINE
  8
4
 10
 18335.000
 20
-10328.699
 11
 18335.000
 21
 -1908.700
  0
LINE
  8
4
 10
 24035.000
 20
-10328.699
 11
 24035.000
 21
 -1908.700
  0
LINE
  8
4
 10
 30035.000
 20
-10328.699
 11
 30035.000
 21
 -1908.700
  0
LINE
  8
4
 10
 36285.000
 20
-10328.699
 11
 36285.000
 21
 -1908.700
  0
LINE
  8
3
 10
  6200.000
 20
-10328.699
 11
 12190.000
 21
 -4278.700
  0
LINE
  8
3
 10
 12190.000
 20
-10328.699
 11
  6200.000
 21
 -4278.700
  0
TEXT
  8
16
 10
  7525.940
 20
 -8958.997
 40
   121.920
  1
CB-1
 50
    45.286
  0
TEXT
  8
16
 10
 10520.940
 20
 -8612.441
 40
   121.920
  1
CB-1
 50
   314.714
  0
LINE
  8
3
 10
  6200.000
 20
 -4278.700
 11
 12190.000
 21
 -1908.700
  0
LINE
  8
3
 10
 12190.000
 20
 -4278.700
 11
  6200.000
 21
 -1908.700
  0
TEXT
  8
16
 10
  7470.763
 20
 -3745.430
 40
   121.920
  1
CB-2
 50
    21.587
  0
TEXT
  8
16
 10
 10465.763
 20
 -3566.009
 40
   121.920
  1
CB-2
 50
   338.413
  0
LINE
  8
3
 10
 24035.000
 20
-10328.699
 11
 30035.000
 21
 -4278.700
  0
LINE
  8
3
 10
 30035.000
 20
-10328.699
 11
 24035.000
 21
 -4278.700
  0
TEXT
  8
16
 10
 25363.297
 20
 -8958.854
 40
   121.920
  1
CB-3
 50
    45.238
  0
TEXT
  8
16
 10
 28363.297
 20
 -8612.585
 40
   121.920
  1
CB-3
 50
   314.762
  0
LINE
  8
3
 10
 24035.000
 20
 -4278.700
 11
 30035.000
 21
 -1908.700
  0
LINE
  8
3
 10
 30035.000
 20
 -4278.700
 11
 24035.000
 21
 -1908.700
  0
TEXT
  8
16
 10
 25308.211
 20
 -3745.301
 40
   121.920
  1
CB-2
 50
    21.554
  0
TEXT
  8
16
 10
 28308.213
 20
 -3566.138
 40
   121.920
  1
CB-2
 50
   338.446
  0
LINE
  8
8
 10
 49537.199
 20
     0.000
 11
 41117.199
 21
    -0.000
  0
LINE
  8
8
 10
 41117.199
 20
    -0.000
 11
 39993.699
 21
 11234.999
  0
LINE
  8
8
 10
 39993.699
 20
 11234.999
 11
 41117.199
 21
 22470.000
  0
LINE
  8
8
 10
 41117.199
 20
 22470.000
 11
 49537.199
 21
 22470.000
  0
LINE
  8
4
 10
 49537.199
 20
     0.000
 11
 41117.199
 21
    -0.000
  0
LINE
  8
4
 10
 49537.199
 20
 11235.000
 11
 39993.699
 21
 11234.999
  0
LINE
  8
4
 10
 49537.199
 20
 22470.000
 11
 41117.199
 21
 22470.000
  0
LINE
  8
8
 10
 36285.000
 20
 32798.699
 11
 36284.445
 21
 24378.697
  0
LINE
  8
8
 10
 36284.445
 20
 24378.697
 11
    -0.555
 21
 24381.092
  0
LINE
  8
8
 10
    -0.555
 20
 24381.092
 11
     0.000
 21
 32801.094
  0
LINE
  8
4
 10
 36285.000
 20
 32798.699
 11
 36284.445
 21
 24378.697
  0
LINE
  8
4
 10
 30035.000
 20
 32799.109
 11
 30034.445
 21
 24379.109
  0
LINE
  8
4
 10
 24035.000
 20
 32799.508
 11
 24034.445
 21
 24379.508
  0
LINE
  8
4
 10
 18335.002
 20
 32799.883
 11
 18334.447
 21
 24379.883
  0
LINE
  8
4
 10
 12190.002
 20
 32800.289
 11
 12189.446
 21
 24380.289
  0
LINE
  8
4
 10
  6200.003
 20
 32800.684
 11
  6199.448
 21
 24380.682
  0
LINE
  8
4
 10
     0.003
 20
 32801.094
 11
    -0.552
 21
 24381.092
  0
LINE
  8
3
 10
 30035.000
 20
 32799.109
 11
 24034.602
 21
 26749.504
  0
LINE
  8
3
 10
 24035.000
 20
 32799.508
 11
 30034.600
 21
 26749.111
  0
TEXT
  8
16
 10
 28363.186
 20
 31144.064
 40
   121.920
  1
CB-3
 50
    45.234
  0
TEXT
  8
16
 10
 25363.211
 20
 31490.533
 40
   121.920
  1
CB-3
 50
   314.758
  0
LINE
  8
3
 10
 30034.600
 20
 26749.111
 11
 24034.445
 21
 24379.508
  0
LINE
  8
3
 10
 24034.602
 20
 26749.504
 11
 30034.445
 21
 24379.109
  0
TEXT
  8
16
 10
 28307.770
 20
 26097.625
 40
   121.920
  1
CB-2
 50
    21.550
  0
TEXT
  8
16
 10
 25307.781
 20
 26276.984
 40
   121.920
  1
CB-2
 50
   338.442
  0
LINE
  8
3
 10
 12190.002
 20
 32800.289
 11
  6199.603
 21
 26750.684
  0
LINE
  8
3
 10
  6200.003
 20
 32800.684
 11
 12189.604
 21
 26750.287
  0
TEXT
  8
16
 10
 10520.832
 20
 31145.100
 40
   121.920
  1
CB-1
 50
    45.282
  0
TEXT
  8
16
 10
  7525.857
 20
 31491.854
 40
   121.920
  1
CB-1
 50
   314.711
  0
LINE
  8
3
 10
 12189.604
 20
 26750.287
 11
  6199.448
 21
 24380.682
  0
LINE
  8
3
 10
  6199.603
 20
 26750.684
 11
 12189.446
 21
 24380.289
  0
TEXT
  8
16
 10
 10465.320
 20
 26098.670
 40
   121.920
  1
CB-2
 50
    21.583
  0
TEXT
  8
16
 10
  7470.334
 20
 26278.291
 40
   121.920
  1
CB-2
 50
   338.409
  0
LINE
  8
8
 10
     0.000
 20
 22470.000
 11
     0.000
 21
     0.000
  0
LINE
  8
8
 10
     0.000
 20
     0.000
 11
 36285.000
 21
     0.000
  0
LINE
  8
8
 10
 36285.000
 20
     0.000
 11
 36285.000
 21
 22470.000
  0
LINE
  8
8
 10
 36285.000
 20
 22470.000
 11
     0.000
 21
 22470.000
  0
LINE
  8
8
 10
     0.000
 20
 11235.000
 11
 36285.000
 21
 11235.000
  0
LINE
  8
23
 10
  6200.000
 20
     0.000
 11
  6200.000
 21
 22470.000
  0
LINE
  8
23
 10
 12190.000
 20
     0.000
 11
 12190.000
 21
 22470.000
  0
LINE
  8
23
 10
 18335.000
 20
     0.000
 11
 18335.000
 21
 22470.000
  0
LINE
  8
23
 10
 24035.000
 20
     0.000
 11
 24035.000
 21
 22470.000
  0
LINE
  8
23
 10
 30035.000
 20
     0.000
 11
 30035.000
 21
 22470.000
  0
LINE
  8
3
 10
  6200.000
 20
 22470.000
 11
 12190.000
 21
 17001.799
  0
LINE
  8
3
 10
 12190.000
 20
 22470.000
 11
  6200.000
 21
 17001.799
  0
TEXT
  8
16
 10
  7517.414
 20
 18234.930
 40
   121.920
  1
CB-4
 50
    42.393
  0
TEXT
  8
16
 10
 10512.414
 20
 18563.729
 40
   121.920
  1
CB-4
 50
   -42.393
  0
LINE
  8
3
 10
  6200.000
 20
 17001.799
 11
 12190.000
 21
 11235.000
  0
LINE
  8
3
 10
 12190.000
 20
 17001.799
 11
  6200.000
 21
 11235.000
  0
TEXT
  8
16
 10
  7521.837
 20
 12538.063
 40
   121.920
  1
CB-5
 50
    43.912
  0
TEXT
  8
16
 10
 10516.837
 20
 12876.298
 40
   121.920
  1
CB-5
 50
   -43.912
  0
LINE
  8
3
 10
  6200.000
 20
 11235.000
 11
 12190.000
 21
  5468.200
  0
LINE
  8
3
 10
 12190.000
 20
 11235.000
 11
  6200.000
 21
  5468.200
  0
TEXT
  8
16
 10
  7521.837
 20
  6771.263
 40
   121.920
  1
CB-5
 50
    43.912
  0
TEXT
  8
16
 10
 10516.837
 20
  7109.497
 40
   121.920
  1
CB-5
 50
   -43.912
  0
LINE
  8
3
 10
  6200.000
 20
  5468.200
 11
 12190.000
 21
     0.000
  0
LINE
  8
3
 10
 12190.000
 20
  5468.200
 11
  6200.000
 21
     0.000
  0
TEXT
  8
16
 10
  7517.414
 20
  1233.131
 40
   121.920
  1
CB-4
 50
    42.393
  0
TEXT
  8
16
 10
 10512.414
 20
  1561.928
 40
   121.920
  1
CB-4
 50
   -42.393
  0
LINE
  8
3
 10
 24035.000
 20
 22470.000
 11
 30035.000
 21
 17001.799
  0
LINE
  8
3
 10
 30035.000
 20
 22470.000
 11
 24035.000
 21
 17001.799
  0
TEXT
  8
16
 10
 25354.777
 20
 18235.080
 40
   121.920
  1
CB-6
 50
    42.345
  0
TEXT
  8
16
 10
 28354.781
 20
 18563.578
 40
   121.920
  1
CB-6
 50
   -42.345
  0
LINE
  8
3
 10
 24035.000
 20
 17001.799
 11
 30035.000
 21
 11235.000
  0
LINE
  8
3
 10
 30035.000
 20
 17001.799
 11
 24035.000
 21
 11235.000
  0
TEXT
  8
16
 10
 25359.197
 20
 12538.211
 40
   121.920
  1
CB-7
 50
    43.865
  0
TEXT
  8
16
 10
 28359.199
 20
 12876.151
 40
   121.920
  1
CB-7
 50
   -43.865
  0
LINE
  8
3
 10
 24035.000
 20
 11235.000
 11
 30035.000
 21
  5468.200
  0
LINE
  8
3
 10
 30035.000
 20
 11235.000
 11
 24035.000
 21
  5468.200
  0
TEXT
  8
16
 10
 25359.197
 20
  6771.410
 40
   121.920
  1
CB-7
 50
    43.865
  0
TEXT
  8
16
 10
 28359.199
 20
  7109.351
 40
   121.920
  1
CB-7
 50
   -43.865
  0
LINE
  8
3
 10
 24035.000
 20
  5468.200
 11
 30035.000
 21
     0.000
  0
LINE
  8
3
 10
 30035.000
 20
  5468.200
 11
 24035.000
 21
     0.000
  0
TEXT
  8
16
 10
 25354.777
 20
  1233.281
 40
   121.920
  1
CB-6
 50
    42.345
  0
TEXT
  8
16
 10
 28354.781
 20
  1561.779
 40
   121.920
  1
CB-6
 50
   -42.345
  0
LINE
  8
8
 10
 38085.000
 20
     0.000
 11
 38085.000
 21
 22470.000
  0
LINE
  8
8
 10
 36285.000
 20
     0.000
 11
 38085.000
 21
     0.000
  0
LINE
  8
8
 10
 36285.000
 20
 11235.000
 11
 38085.000
 21
 11235.000
  0
LINE
  8
8
 10
 36285.000
 20
 22470.000
 11
 38085.000
 21
 22470.000
  0
LINE
  8
0
 10
-14501.670
 20
-13921.930
 11
 52586.668
 21
-13921.930
  0
LINE
  8
0
 10
 52586.668
 20
-13921.930
 11
 52586.668
 21
 36394.324
  0
LINE
  8
0
 10
 52586.668
 20
 36394.324
 11
-14501.670
 21
 36394.324
  0
LINE
  8
0
 10
-14501.670
 20
 36394.324
 11
-14501.670
 21
-13921.930
  0
LINE
  8
0
 10
-14501.670
 20
-12261.493
 11
 52586.668
 21
-12261.493
  0
TEXT
  8
0
 10
  9633.360
 20
-13645.190
 40
  1106.958
  1
Wind Frame Layout
 50
     0.000
  0
TEXT
  8
0
 10
-13948.190
 20
-13645.190
 40
  1106.958
  1
C323-153
 50
     0.000
  0
TEXT
  8
0
 10
 39856.656
 20
-13645.190
 40
  1106.958
  1
 7/AUG/2025
 50
     0.000
  0
ENDSEC
  0
EOF
