  0
SECTION
  2
HEADER
  9
$ACADVER
  1
AC1009
  9
$EXTMIN
 10
 -1391.993
 20
 -2552.233
  9
$EXTMAX
 10
  6769.852
 20
  3569.151
  9
$LIMMIN
 10
 -1391.993
 20
 -2552.233
  9
$LIMMAX
 10
  6769.852
 20
  3569.151
  9
$FILLMODE
 70
     1
  9
$HANDLING
 70
     0
  0
ENDSEC
  0
SECTION
  2
TABLES
  0
TABLE
  2
LTYPE
 70
1
  0
LTYPE
  2
CONTIN
 70
    64
  3
SOLID LINE
 72
    65
 73
     0
 40
0.0
  0
LTYPE
  2
CONTINUOUS
 70
    64
  3
SOLID LINE
 72
    65
 73
     0
 40
0.0
  0
LTYPE
  2
CENTER
 70
    64
  3
____ _ ____ _ ____ _ ____ _ ____ _ ____ _ ____
 72
    65
 73
     4
 40
    50.589
 49
    31.618
 49
    -6.324
 49
     6.324
 49
    -6.324
  0
LTYPE
  2
DASHED
 70
    64
  3
__ __ __ __ __ __ __ __ __ __ __ __ __ __ __ 
 72
    65
 73
     2
 40
    97.94
 49
    65.29
 49
   -32.64
  0
ENDTAB
  0
TABLE
  2
LAYER
 70
30
  0
LAYER
  2
0
 70
     0
 62
     7
  6
CONTIN
  0
LAYER
  2
1
 70
     0
 62
     7
  6
CONTIN
  0
LAYER
  2
2
 70
     0
 62
     7
  6
CONTIN
  0
LAYER
  2
3
 70
     0
 62
     7
  6
CONTIN
  0
LAYER
  2
4
 70
     0
 62
     5
  6
CONTIN
  0
LAYER
  2
5
 70
     0
 62
     5
  6
DASHED
  0
LAYER
  2
6
 70
     0
 62
     5
  6
DASHED
  0
LAYER
  2
7
 70
     0
 62
     5
  6
CONTIN
  0
LAYER
  2
8
 70
     0
 62
     5
  6
DASHED
  0
LAYER
  2
9
 70
     0
 62
     7
  6
CONTIN
  0
LAYER
  2
10
 70
     0
 62
     7
  6
CONTIN
  0
LAYER
  2
11
 70
     0
 62
     6
  6
DASHED
  0
LAYER
  2
12
 70
     0
 62
     7
  6
DASHED
  0
LAYER
  2
13
 70
     0
 62
     5
  6
DASHED
  0
LAYER
  2
14
 70
     0
 62
     7
  6
CONTIN
  0
LAYER
  2
15
 70
     0
 62
     5
  6
CONTIN
  0
LAYER
  2
16
 70
     0
 62
     7
  6
CONTIN
  0
LAYER
  2
17
 70
     0
 62
     7
  6
CONTIN
  0
LAYER
  2
18
 70
     0
 62
     7
  6
CONTIN
  0
LAYER
  2
19
 70
     0
 62
     7
  6
CONTIN
  0
LAYER
  2
20
 70
     0
 62
     1
  6
CONTIN
  0
LAYER
  2
21
 70
     0
 62
     7
  6
CONTIN
  0
LAYER
  2
22
 70
     0
 62
     7
  6
DASHED
  0
LAYER
  2
23
 70
     0
 62
     7
  6
DASHED
  0
LAYER
  2
24
 70
     0
 62
     7
  6
CONTIN
  0
LAYER
  2
25
 70
     0
 62
     7
  6
CONTIN
  0
LAYER
  2
26
 70
     0
 62
     7
  6
CONTIN
  0
LAYER
  2
27
 70
     0
 62
     1
  6
CENTER
  0
LAYER
  2
28
 70
     0
 62
     7
  6
CONTIN
  0
LAYER
  2
29
 70
     0
 62
     3
  6
DASHED
  0
ENDTAB
  0
TABLE
  2
STYLE
 70
  0
  0
ENDTAB
  0
ENDSEC
  0
SECTION
  2
ENTITIES
  0
LINE
  8
1
 10
     0.000
 20
     0.000
 11
  3810.833
 21
     0.000
  0
LINE
  8
1
 10
  3810.833
 20
     0.000
 11
  3810.833
 21
  1016.667
  0
LINE
  8
1
 10
  3810.833
 20
  1016.667
 11
     0.000
 21
  1016.667
  0
LINE
  8
1
 10
     0.000
 20
  1016.667
 11
     0.000
 21
     0.000
  0
LINE
  8
8
 10
     0.000
 20
   508.333
 11
  3810.833
 21
   508.333
  0
LINE
  8
1
 10
     0.000
 20
   508.333
 11
  3810.833
 21
   508.333
  0
LINE
  8
1
 10
  3810.833
 20
  1016.667
 11
     0.000
 21
  1016.667
  0
LINE
  8
1
 10
  3810.833
 20
   508.333
 11
  3810.833
 21
  1016.667
  0
LINE
  8
1
 10
     0.000
 20
  1016.667
 11
     0.000
 21
   508.333
  0
TEXT
  8
1
 10
  1863.611
 20
   762.500
 40
    41.806
  1
 1
 50
     0.000
  0
LINE
  8
1
 10
     0.000
 20
     0.000
 11
  3810.833
 21
     0.000
  0
LINE
  8
1
 10
  3810.833
 20
   508.333
 11
     0.000
 21
   508.333
  0
LINE
  8
1
 10
  3810.833
 20
     0.000
 11
  3810.833
 21
   508.333
  0
LINE
  8
1
 10
     0.000
 20
   508.333
 11
     0.000
 21
     0.000
  0
TEXT
  8
1
 10
  1863.611
 20
   254.167
 40
    41.806
  1
 1
 50
     0.000
  0
LINE
  8
1
 10
 -1021.000
 20
  1016.667
 11
  -221.000
 21
  1016.667
  0
LINE
  8
1
 10
  -221.000
 20
  1016.667
 11
  -170.167
 21
   508.333
  0
LINE
  8
1
 10
  -170.167
 20
   508.333
 11
  -221.000
 21
     0.000
  0
LINE
  8
1
 10
  -221.000
 20
     0.000
 11
 -1021.000
 21
     0.000
  0
LINE
  8
1
 10
 -1021.000
 20
  1016.667
 11
 -1021.000
 21
     0.000
  0
TEXT
  8
1
 10
  -679.195
 20
   508.333
 40
    41.806
  1
 2
 50
     0.000
  0
LINE
  8
2
 10
 -1021.000
 20
   915.000
 11
  -221.000
 21
   915.000
  0
TEXT
  8
1
 10
  -704.612
 20
   965.833
 40
    41.806
  1
 3
 50
     0.000
  0
LINE
  8
1
 10
 -1021.000
 20
   101.667
 11
  -210.833
 21
   101.667
  0
TEXT
  8
1
 10
  -699.529
 20
    50.833
 40
    41.806
  1
 3
 50
     0.000
  0
LINE
  8
1
 10
     0.000
 20
  -970.167
 11
     0.000
 21
  -170.167
  0
LINE
  8
1
 10
     0.000
 20
  -170.167
 11
  3810.833
 21
  -170.167
  0
LINE
  8
1
 10
  3810.833
 20
  -170.167
 11
  3810.833
 21
  -970.167
  0
LINE
  8
1
 10
     0.000
 20
  -970.167
 11
  3810.833
 21
  -970.167
  0
TEXT
  8
1
 10
  1863.611
 20
  -570.167
 40
    41.806
  1
 2
 50
     0.000
  0
LINE
  8
2
 10
   101.667
 20
  -970.167
 11
   101.667
 21
  -170.167
  0
TEXT
  8
1
 10
     9.027
 20
  -570.167
 40
    41.806
  1
 3
 50
     0.000
  0
LINE
  8
1
 10
  3709.167
 20
  -970.167
 11
  3709.167
 21
  -170.167
  0
TEXT
  8
1
 10
  3718.194
 20
  -570.167
 40
    41.806
  1
 3
 50
     0.000
  0
LINE
  8
1
 10
  4831.833
 20
     0.000
 11
  4031.834
 21
     0.000
  0
LINE
  8
1
 10
  4031.834
 20
     0.000
 11
  3981.000
 21
   508.333
  0
LINE
  8
1
 10
  3981.000
 20
   508.333
 11
  4031.834
 21
  1016.667
  0
LINE
  8
1
 10
  4031.834
 20
  1016.667
 11
  4831.833
 21
  1016.667
  0
LINE
  8
1
 10
  4831.833
 20
     0.000
 11
  4831.833
 21
  1016.667
  0
TEXT
  8
1
 10
  4322.805
 20
   508.333
 40
    41.806
  1
 2
 50
     0.000
  0
LINE
  8
2
 10
  4831.833
 20
   101.667
 11
  4031.834
 21
   101.667
  0
TEXT
  8
1
 10
  4348.222
 20
    50.833
 40
    41.806
  1
 3
 50
     0.000
  0
LINE
  8
1
 10
  4831.833
 20
   915.000
 11
  4021.667
 21
   915.000
  0
TEXT
  8
1
 10
  4343.138
 20
   965.833
 40
    41.806
  1
 3
 50
     0.000
  0
LINE
  8
1
 10
  3810.833
 20
  1986.833
 11
  3810.781
 21
  1186.833
  0
LINE
  8
1
 10
  3810.781
 20
  1186.833
 11
    -0.053
 21
  1187.085
  0
LINE
  8
1
 10
    -0.053
 20
  1187.085
 11
     0.000
 21
  1987.085
  0
LINE
  8
1
 10
  3810.833
 20
  1986.833
 11
     0.000
 21
  1987.085
  0
TEXT
  8
1
 10
  1863.584
 20
  1586.962
 40
    41.806
  1
 2
 50
     0.000
  0
LINE
  8
2
 10
  3709.167
 20
  1986.840
 11
  3709.114
 21
  1186.840
  0
TEXT
  8
1
 10
  3718.168
 20
  1586.839
 40
    41.806
  1
 3
 50
     0.000
  0
LINE
  8
1
 10
   101.667
 20
  1987.078
 11
   101.614
 21
  1187.078
  0
TEXT
  8
1
 10
     9.001
 20
  1587.084
 40
    41.806
  1
 3
 50
     0.000
  0
TEXT
  8
21
 10
  4961.067
 20
  1986.833
 40
    47.926
  1
Components & Cladding
 50
     0.000
  0
TEXT
  8
21
 10
  4194.245
 20
  1867.017
 40
    47.926
  1
 Width
 50
     0.000
  0
TEXT
  8
21
 10
  4577.656
 20
  1867.017
 40
    47.926
  1
Length
 50
     0.000
  0
TEXT
  8
21
 10
  4961.067
 20
  1867.017
 40
    47.926
  1
Pressure(kN/m2)
 50
     0.000
  0
TEXT
  8
21
 10
  5727.889
 20
  1867.017
 40
    47.926
  1
Suction(kN/m2)
 50
     0.000
  0
TEXT
  8
21
 10
  3906.686
 20
  1795.128
 40
    47.926
  1
Zone
 50
     0.000
  0
TEXT
  8
21
 10
  4338.024
 20
  1795.128
 40
    47.926
  1
(mm)
 50
     0.000
  0
TEXT
  8
21
 10
  4721.435
 20
  1795.128
 40
    47.926
  1
(mm)
 50
     0.000
  0
TEXT
  8
21
 10
  4961.067
 20
  1795.128
 40
    47.926
  1
Member
 50
     0.000
  0
TEXT
  8
21
 10
  5344.478
 20
  1795.128
 40
    47.926
  1
 Panel
 50
     0.000
  0
TEXT
  8
21
 10
  5727.889
 20
  1795.128
 40
    47.926
  1
Member
 50
     0.000
  0
TEXT
  8
21
 10
  6111.300
 20
  1795.128
 40
    47.926
  1
 Panel
 50
     0.000
  0
LINE
  8
21
 10
  3906.686
 20
  1747.201
 11
  4098.392
 21
  1747.201
  0
LINE
  8
21
 10
  4194.245
 20
  1747.201
 11
  4481.803
 21
  1747.201
  0
LINE
  8
21
 10
  4577.656
 20
  1747.201
 11
  4865.214
 21
  1747.201
  0
LINE
  8
21
 10
  4961.067
 20
  1747.201
 11
  5248.625
 21
  1747.201
  0
LINE
  8
21
 10
  5344.478
 20
  1747.201
 11
  5632.036
 21
  1747.201
  0
LINE
  8
21
 10
  5727.889
 20
  1747.201
 11
  6015.447
 21
  1747.201
  0
LINE
  8
21
 10
  6111.300
 20
  1747.201
 11
  6398.858
 21
  1747.201
  0
TEXT
  8
21
 10
  3954.613
 20
  1651.349
 40
    47.926
  1
 1
 50
     0.000
  0
TEXT
  8
21
 10
  4961.067
 20
  1651.349
 40
    47.926
  1
 0.479
 50
     0.000
  0
TEXT
  8
21
 10
  5344.478
 20
  1651.349
 40
    47.926
  1
 0.479
 50
     0.000
  0
TEXT
  8
21
 10
  5727.889
 20
  1651.349
 40
    47.926
  1
-0.610
 50
     0.000
  0
TEXT
  8
21
 10
  6111.300
 20
  1651.349
 40
    47.926
  1
-0.666
 50
     0.000
  0
TEXT
  8
21
 10
  3954.613
 20
  1579.459
 40
    47.926
  1
 2
 50
     0.000
  0
TEXT
  8
21
 10
  4961.067
 20
  1579.459
 40
    47.926
  1
 0.491
 50
     0.000
  0
TEXT
  8
21
 10
  5344.478
 20
  1579.459
 40
    47.926
  1
 0.606
 50
     0.000
  0
TEXT
  8
21
 10
  5727.889
 20
  1579.459
 40
    47.926
  1
-0.541
 50
     0.000
  0
TEXT
  8
21
 10
  6111.300
 20
  1579.459
 40
    47.926
  1
-0.657
 50
     0.000
  0
TEXT
  8
21
 10
  3954.613
 20
  1507.569
 40
    47.926
  1
 3
 50
     0.000
  0
TEXT
  8
21
 10
  4194.245
 20
  1507.569
 40
    47.926
  1
  1220
 50
     0.000
  0
TEXT
  8
21
 10
  4961.067
 20
  1507.569
 40
    47.926
  1
 0.491
 50
     0.000
  0
TEXT
  8
21
 10
  5344.478
 20
  1507.569
 40
    47.926
  1
 0.606
 50
     0.000
  0
TEXT
  8
21
 10
  5727.889
 20
  1507.569
 40
    47.926
  1
-0.579
 50
     0.000
  0
TEXT
  8
21
 10
  6111.300
 20
  1507.569
 40
    47.926
  1
-0.657
 50
     0.000
  0
TEXT
  8
21
 10
  4961.067
 20
  1411.717
 40
    47.926
  1
(+) wind towards surface
 50
     0.000
  0
TEXT
  8
21
 10
  4961.067
 20
  1339.827
 40
    47.926
  1
(-) wind away from surface
 50
     0.000
  0
LINE
  8
0
 10
 -1391.993
 20
 -2552.233
 11
  6769.852
 21
 -2552.233
  0
LINE
  8
0
 10
  6769.852
 20
 -2552.233
 11
  6769.852
 21
  3569.151
  0
LINE
  8
0
 10
  6769.852
 20
  3569.151
 11
 -1391.993
 21
  3569.151
  0
LINE
  8
0
 10
 -1391.993
 20
  3569.151
 11
 -1391.993
 21
 -2552.233
  0
LINE
  8
0
 10
 -1391.993
 20
 -2350.227
 11
  6769.852
 21
 -2350.227
  0
TEXT
  8
0
 10
  1476.896
 20
 -2518.565
 40
   134.670
  1
Panel Zone: Wind 2
 50
     0.000
  0
TEXT
  8
0
 10
 -1324.658
 20
 -2518.565
 40
   134.670
  1
C163-027
 50
     0.000
  0
TEXT
  8
0
 10
  5221.142
 20
 -2518.565
 40
   134.670
  1
19/JAN/2026
 50
     0.000
  0
ENDSEC
  0
EOF
