  0
SECTION
  2
HEADER
  9
$ACADVER
  1
AC1009
  9
$EXTMIN
 10
 0.0000000
 20
 0.0000000
  9
$EXTMAX
 10
420.0000000
 20
297.0000000
  9
$LIMMIN
 10
 0.0000000
 20
 0.0000000
  9
$LIMMAX
 10
420.0000000
 20
297.0000000
  9
$FILLMODE
 70
     1
  9
$HANDLING
 70
     0
  0
ENDSEC
  0
SECTION
  2
TABLES
  0
TABLE
  2
LTYPE
 70
5
  0
LTYPE
  2
CONTINUOUS
 70
    64
  3
Solid Line
 72
    65
 73
     0
 40
0.0
  0
LTYPE
  2
CONTIN
 70
    64
  3
Solid Line
 72
    65
 73
     0
 40
0.0
  0
LTYPE
  2
HIDDEN
 70
    64
  3
- - - 
 72
    65
 73
     2
 40
 3.1750000
 49
 1.5875000
 49
-1.5875000
  0
LTYPE
  2
DASHED
 70
    64
  3
- - - 
 72
    65
 73
     2
 40
 3.1750000
 49
 1.5875000
 49
-1.5875000
  0
LTYPE
  2
CENTER
 70
    64
  3
--- - 
 72
    65
 73
     4
 40
 9.5250000
 49
 4.7625000
 49
-1.5875000
 49
 1.5875000
 49
-1.5875000
  0
ENDTAB
  0
TABLE
  2
LAYER
 70
25
  0
LAYER
  2
0
 70
     0
 62
     7
  6
CONTINUOUS
  0
LAYER
  2
1
 70
     0
 62
     7
  6
CONTINUOUS
  0
LAYER
  2
2
 70
     0
 62
     6
  6
CONTINUOUS
  0
LAYER
  2
3
 70
     0
 62
     7
  6
CONTINUOUS
  0
LAYER
  2
4
 70
     0
 62
     7
  6
CONTINUOUS
  0
LAYER
  2
5
 70
     0
 62
     5
  6
CONTINUOUS
  0
LAYER
  2
6
 70
     0
 62
     6
  6
CONTINUOUS
  0
LAYER
  2
7
 70
     0
 62
     7
  6
CONTINUOUS
  0
LAYER
  2
8
 70
     0
 62
     8
  6
CONTINUOUS
  0
LAYER
  2
9
 70
     0
 62
     9
  6
CONTINUOUS
  0
LAYER
  2
10
 70
     0
 62
    10
  6
CONTINUOUS
  0
LAYER
  2
11
 70
     0
 62
     7
  6
CONTINUOUS
  0
LAYER
  2
12
 70
     0
 62
     6
  6
CONTINUOUS
  0
LAYER
  2
13
 70
     0
 62
     1
  6
CONTINUOUS
  0
LAYER
  2
14
 70
     0
 62
     7
  6
CONTINUOUS
  0
LAYER
  2
15
 70
     0
 62
     7
  6
CONTINUOUS
  0
LAYER
  2
16
 70
     0
 62
     7
  6
CONTINUOUS
  0
LAYER
  2
17
 70
     0
 62
     5
  6
CONTINUOUS
  0
LAYER
  2
18
 70
     0
 62
     7
  6
CONTINUOUS
  0
LAYER
  2
19
 70
     0
 62
     7
  6
CONTINUOUS
  0
LAYER
  2
20
 70
     0
 62
     7
  6
CONTINUOUS
  0
LAYER
  2
21
 70
     0
 62
     7
  6
CONTINUOUS
  0
LAYER
  2
22
 70
     0
 62
     7
  6
CONTINUOUS
  0
LAYER
  2
23
 70
     0
 62
     7
  6
CONTINUOUS
  0
LAYER
  2
24
 70
     0
 62
     7
  6
CONTINUOUS
  0
ENDTAB
  0
TABLE
  2
STYLE
 70
  0
  0
STYLE
  2
SIMPLEX
 70
  0
 40
 0.0000000
 41
 1.0000000
 42
 1.0000000
 50
 0.0000000
 71
  0
  3
SIMPLEX
  0
STYLE
  2
ROMANS
 70
  0
 40
 0.0000000
 41
 1.0000000
 42
 1.0000000
 50
 0.0000000
 71
  0
  3
ROMANS
  0
STYLE
  2
OPEN
 70
  0
 40
 0.0000000
 41
 1.0000000
 42
 1.0000000
 50
 0.0000000
 71
  0
  3
SIMPLEX
  0
STYLE
  2
ARIAL
 70
  0
 40
 0.0000000
 41
 1.0000000
 42
 1.0000000
 50
 0.0000000
 71
  0
  3
ARIAL.TTF
  0
STYLE
  2
VERDANAB
 70
  0
 40
 0.0000000
 41
 1.0000000
 42
 1.0000000
 50
 0.0000000
 71
  0
  3
VERDANAB.TTF
  0
ENDTAB
  0
ENDSEC
  0
SECTION
  2
BLOCKS
  0
BLOCK
  8
1
  2
CCOL
 70
     0
 10
 0.0000000
 20
 0.0000000
  0
LINE
  8
1
 10
 0.4000000
 20
-0.1000000
 11
 0.4000000
 21
 0.0000000
  0
LINE
  8
1
 10
 0.4000000
 20
 0.0000000
 11
 0.0000000
 21
 0.0000000
  0
LINE
  8
1
 10
 0.0000000
 20
 0.0000000
 11
 0.0000000
 21
-1.0000000
  0
LINE
  8
1
 10
 0.0000000
 20
-1.0000000
 11
 0.4000000
 21
-1.0000000
  0
LINE
  8
1
 10
 0.4000000
 20
-1.0000000
 11
 0.4000000
 21
-0.9000000
  0
ENDBLK
  8
1
  0
BLOCK
  8
1
  2
DCOL
 70
     0
 10
 0.0000000
 20
 0.0000000
  0
INSERT
  8
1
  2
CCOL
 10
 0.1000000
 20
 0.0000000
 41
 1.0000000
 42
 1.0000000
 43
 1.0000000
 50
 0.0000000
  0
INSERT
  8
1
  2
CCOL
 10
-0.1000000
 20
 0.0000000
 41
-1.0000000
 42
 1.0000000
 43
 1.0000000
 50
 0.0000000
  0
ENDBLK
  8
1
  0
BLOCK
  8
1
  2
GCOL
 70
     0
 10
 0.0000000
 20
 0.0000000
  0
LINE
  8
1
 10
 0.4000000
 20
-0.1000000
 11
 0.4000000
 21
 0.0000000
  0
LINE
  8
1
 10
 0.4000000
 20
 0.0000000
 11
 0.0000000
 21
 0.0000000
  0
LINE
  8
1
 10
 0.0000000
 20
 0.0000000
 11
 0.0000000
 21
-1.0000000
  0
LINE
  8
1
 10
 0.0000000
 20
-1.0000000
 11
 1.0000000
 21
-1.0000000
  0
LINE
  8
1
 10
 1.0000000
 20
-1.0000000
 11
 1.0000000
 21
-0.6000000
  0
LINE
  8
1
 10
 1.0000000
 20
-0.6000000
 11
 0.9000000
 21
-0.6000000
  0
ENDBLK
  8
1
  0
BLOCK
  8
1
  2
PCOL
 70
     0
 10
 0.0000000
 20
 0.0000000
  0
CIRCLE
  8
1
 10
 0.0000000
 20
 0.0000000
 40
 0.5000000
  0
ENDBLK
  8
1
  0
BLOCK
  8
1
  2
TCOL
 70
     0
 10
 0.0000000
 20
 0.0000000
  0
LINE
  8
1
 10
-0.5000000
 20
-0.5000000
 11
 0.5000000
 21
-0.5000000
  0
LINE
  8
1
 10
 0.5000000
 20
-0.5000000
 11
 0.5000000
 21
 0.5000000
  0
LINE
  8
1
 10
 0.5000000
 20
 0.5000000
 11
-0.5000000
 21
 0.5000000
  0
LINE
  8
1
 10
-0.5000000
 20
 0.5000000
 11
-0.5000000
 21
-0.5000000
  0
ENDBLK
  8
1
  0
BLOCK
  8
1
  2
TCOL2
 70
     0
 10
 0.0000000
 20
 0.0000000
  0
LINE
  8
1
 10
-0.2500000
 20
-0.5000000
 11
 0.2500000
 21
-0.5000000
  0
LINE
  8
1
 10
 0.2500000
 20
-0.5000000
 11
 0.2500000
 21
 0.5000000
  0
LINE
  8
1
 10
 0.2500000
 20
 0.5000000
 11
-0.2500000
 21
 0.5000000
  0
LINE
  8
1
 10
-0.2500000
 20
 0.5000000
 11
-0.2500000
 21
-0.5000000
  0
ENDBLK
  8
1
  0
BLOCK
  8
1
  2
UCOL
 70
     0
 10
 0.0000000
 20
 0.0000000
  0
LINE
  8
1
 10
 0.4000000
 20
 0.0000000
 11
 0.0000000
 21
 0.0000000
  0
LINE
  8
1
 10
 0.0000000
 20
 0.0000000
 11
 0.0000000
 21
-1.0000000
  0
LINE
  8
1
 10
 0.0000000
 20
-1.0000000
 11
 0.4000000
 21
-1.0000000
  0
ENDBLK
  8
1
  0
BLOCK
  8
1
  2
WCOL
 70
     0
 10
 0.0000000
 20
 0.0000000
  0
LINE
  8
1
 10
-0.4000000
 20
 0.0000000
 11
 0.4000000
 21
 0.0000000
  0
LINE
  8
1
 10
 0.0000000
 20
 0.0000000
 11
 0.0000000
 21
-1.0000000
  0
LINE
  8
1
 10
-0.4000000
 20
-1.0000000
 11
 0.4000000
 21
-1.0000000
  0
ENDBLK
  8
1
  0
BLOCK
  8
1
  2
XCOL
 70
     0
 10
 0.0000000
 20
 0.0000000
  0
LINE
  8
1
 10
-0.5625000
 20
 0.0625000
 11
 0.5625000
 21
 0.0625000
  0
LINE
  8
1
 10
 0.5625000
 20
 0.0625000
 11
 0.5625000
 21
-1.0625000
  0
LINE
  8
1
 10
 0.5625000
 20
-1.0625000
 11
-0.5625000
 21
-1.0625000
  0
LINE
  8
1
 10
-0.5625000
 20
-1.0625000
 11
-0.5625000
 21
 0.0625000
  0
ENDBLK
  8
1
  0
BLOCK
  8
1
  2
ZCOL
 70
     0
 10
 0.0000000
 20
 0.0000000
  0
LINE
  8
1
 10
 0.4000000
 20
-0.1000000
 11
 0.4000000
 21
 0.0000000
  0
LINE
  8
1
 10
 0.4000000
 20
 0.0000000
 11
 0.0000000
 21
 0.0000000
  0
LINE
  8
1
 10
 0.0000000
 20
 0.0000000
 11
 0.0000000
 21
-1.0000000
  0
LINE
  8
1
 10
 0.0000000
 20
-1.0000000
 11
-0.4000000
 21
-1.0000000
  0
LINE
  8
1
 10
-0.4000000
 20
-1.0000000
 11
-0.4000000
 21
-0.9000000
  0
ENDBLK
  8
1
  0
BLOCK
  8
1
  2
VSECTN
 70
     0
 10
 0.0000000
 20
 0.0000000
  0
LINE
  8
1
 10
-0.5000000
 20
 1.0000000
 11
 0.5000000
 21
 1.0000000
  0
LINE
  8
1
 10
-0.5000000
 20
 1.0000000
 11
 0.0000000
 21
 0.0000000
  0
LINE
  8
1
 10
 0.0000000
 20
 0.0000000
 11
 0.5000000
 21
 1.0000000
  0
ENDBLK
  8
1
999
C:\MBS\DXF\A10.DXF
  0
BLOCK
  8
0
 62
     7
  2
A10
 70
    64
 10
0.0
 20
0.0
 30
0.0
  0
TEXT
  8
0
 62
     7
 10
1.1
 20
2.2
 30
0.0
 40
1.2
  1
A10
 72
     4
 11
2.4
 21
2.8
 31
0.0
  0
LINE
  8
0
  6
HIDDEN
 62
     1
 10
13.71
 20
18.02
 30
0.0
 11
16.86
 21
18.02
 31
0.0
  0
LINE
  8
0
 62
     1
 10
16.86
 20
18.02
 30
0.0
 11
25.97
 21
18.02
 31
0.0
  0
CIRCLE
  8
0
 62
     4
 10
16.39
 20
18.87
 30
0.0
 40
0.15
  0
CIRCLE
  8
0
 62
     4
 10
14.14
 20
20.82
 30
0.0
 40
0.15
  0
LINE
  8
0
 62
     7
 10
6.97
 20
17.05
 30
0.0
 11
6.58
 21
17.05
 31
0.0
  0
SOLID
  8
0
 62
     7
 10
6.97
 20
17.14
 30
0.0
 11
6.97
 21
16.96
 31
0.0
 12
7.51
 22
17.05
 32
0.0
 13
7.51
 23
17.05
 33
0.0
  0
TEXT
  8
0
 62
     7
 10
0.83
 20
16.61
 30
0.0
 40
0.75
  1
BUILDING
  0
TEXT
  8
0
 62
     7
 10
0.83
 20
17.86
 30
0.0
 40
0.75
  1
END OF
  0
LINE
  8
0
 62
     7
 10
7.58
 20
17.78
 30
0.0
 11
7.58
 21
16.29
 31
0.0
  0
LINE
  8
0
 62
     1
 10
7.58
 20
21.62
 30
0.0
 11
31.03
 21
21.62
 31
0.0
  0
LINE
  8
1
 62
     1
 10
7.58
 20
18.32
 30
0.0
 11
31.45
 21
18.32
 31
0.0
  0
LINE
  8
0
 62
     1
 10
7.58
 20
18.02
 30
0.0
 11
13.71
 21
18.02
 31
0.0
  0
TEXT
  8
0
 62
     7
 10
13.31
 20
1.17
 30
0.0
 40
0.75
  1
RIGID FRAME
 72
     1
 11
17.06
 21
1.17
 31
0.0
  0
TEXT
  8
0
 62
     7
 10
4.81
 20
2.42
 30
0.0
 40
0.75
  1
ROOF PURLIN TO EXPANDABLE ENDWALL
 72
     1
 11
17.06
 21
2.42
 31
0.0
  0
TEXT
  8
0
 62
     7
 10
7.81
 20
22.33
 30
0.0
 40
0.7
  1
x 1.0" (TYP)
  0
CIRCLE
  8
0
 62
     4
 10
14.15
 20
18.87
 30
0.0
 40
0.15
  0
LINE
  8
0
  6
CONTINUOUS
 62
     5
 10
16.86
 20
21.22
 30
0.0
 11
16.86
 21
17.86
 31
0.0
  0
LINE
  8
0
  6
CONTINUOUS
 62
     5
 10
13.71
 20
21.22
 30
0.0
 11
16.86
 21
21.22
 31
0.0
  0
LINE
  8
0
  6
CONTINUOUS
 62
     5
 10
13.71
 20
17.86
 30
0.0
 11
13.71
 21
21.22
 31
0.0
  0
CIRCLE
  8
0
 62
     4
 10
16.35
 20
20.82
 30
0.0
 40
0.15
  0
LINE
  8
0
 10
15.24
 20
23.02
 30
0.0
 11
15.66
 21
23.02
 31
0.0
  0
LINE
  8
0
 10
24.42
 20
12.38
 30
0.0
 11
24.83
 21
12.38
 31
0.0
  0
LINE
  8
0
 62
     4
 10
13.92
 20
6.55
 30
0.0
 11
13.92
 21
5.86
 31
0.0
  0
LINE
  8
1
 62
     4
 10
13.92
 20
6.94
 30
0.0
 11
13.92
 21
6.55
 31
0.0
  0
LINE
  8
1
 62
     4
 10
14.57
 20
6.94
 30
0.0
 11
13.92
 21
6.94
 31
0.0
  0
LINE
  8
0
 62
     4
 10
15.17
 20
6.94
 30
0.0
 11
14.57
 21
6.94
 31
0.0
  0
POINT
  8
0
 10
15.28
 20
5.56
 30
0.0
  0
LINE
  8
0
 62
     4
 10
16.65
 20
6.55
 30
0.0
 11
16.65
 21
5.86
 31
0.0
  0
LINE
  8
1
 62
     4
 10
15.99
 20
6.94
 30
0.0
 11
16.65
 21
6.94
 31
0.0
  0
LINE
  8
0
 62
    10
 10
16.09
 20
5.93
 30
0.0
 11
15.5
 21
6.39
 31
0.0
  0
LINE
  8
1
 62
     4
 10
16.65
 20
6.94
 30
0.0
 11
16.65
 21
6.55
 31
0.0
  0
LINE
  8
0
 62
     4
 10
15.4
 20
6.94
 30
0.0
 11
15.99
 21
6.94
 31
0.0
  0
CIRCLE
  8
0
 62
     4
 10
16.04
 20
6.43
 30
0.0
 40
0.15
  0
LINE
  8
0
 62
     6
 10
13.48
 20
5.56
 30
0.0
 11
17.08
 21
5.56
 31
0.0
  0
LINE
  8
0
 62
     6
 10
17.08
 20
5.56
 30
0.0
 11
17.08
 21
5.86
 31
0.0
  0
LINE
  8
0
 62
     6
 10
17.08
 20
5.86
 30
0.0
 11
15.55
 21
5.86
 31
0.0
  0
LINE
  8
0
 62
     6
 10
13.48
 20
5.86
 30
0.0
 11
13.48
 21
5.56
 31
0.0
  0
LINE
  8
0
 62
     6
 10
13.48
 20
17.86
 30
0.0
 11
13.48
 21
17.56
 31
0.0
  0
LINE
  8
0
 62
     6
 10
17.08
 20
17.86
 30
0.0
 11
13.48
 21
17.86
 31
0.0
  0
LINE
  8
0
 62
     6
 10
17.08
 20
17.56
 30
0.0
 11
17.08
 21
17.86
 31
0.0
  0
LINE
  8
0
 62
     6
 10
13.48
 20
17.56
 30
0.0
 11
15.01
 21
17.56
 31
0.0
  0
LINE
  8
0
 10
15.13
 20
17.56
 30
0.0
 11
15.13
 21
17.56
 31
0.0
  0
LINE
  8
0
 62
     6
 10
15.16
 20
17.41
 30
0.0
 11
15.16
 21
6.01
 31
0.0
  0
LINE
  8
0
 62
     6
 10
15.4
 20
6.01
 30
0.0
 11
15.4
 21
17.41
 31
0.0
  0
LINE
  8
0
 62
     6
 10
15.55
 20
17.56
 30
0.0
 11
17.08
 21
17.56
 31
0.0
  0
LINE
  8
0
 62
     6
 10
15.01
 20
5.86
 30
0.0
 11
13.48
 21
5.86
 31
0.0
  0
ARC
  8
0
 62
     6
 10
15.55
 20
17.41
 30
0.0
 40
0.15
 50
90.0
 51
180.0
  0
ARC
  8
0
 62
     6
 10
15.01
 20
17.41
 30
0.0
 40
0.15
 50
0.0
 51
90.0
  0
ARC
  8
0
 62
     6
 10
15.55
 20
6.01
 30
0.0
 40
0.15
 50
180.0
 51
270.0
  0
ARC
  8
0
 62
     6
 10
15.01
 20
6.01
 30
0.0
 40
0.15
 50
270.0
 51
0.0
  0
LINE
  8
0
 62
     1
 10
30.99
 20
22.05
 30
0.0
 11
31.44
 21
17.55
 31
0.0
  0
LINE
  8
0
 62
     1
 10
31.06
 20
21.31
 30
0.0
 11
7.72
 21
21.31
 31
0.0
  0
LINE
  8
0
 62
     1
 10
7.58
 20
21.65
 30
0.0
 11
7.58
 21
18.04
 31
0.0
  0
LINE
  8
0
 62
    10
 10
16.09
 20
5.93
 30
0.0
 11
27.83
 21
18.97
 31
0.0
  0
LINE
  8
0
 62
    10
 10
15.97
 20
6.02
 30
0.0
 11
27.72
 21
19.07
 31
0.0
  0
LINE
  8
0
 62
    10
 10
15.5
 20
6.39
 30
0.0
 11
27.28
 21
19.47
 31
0.0
  0
LINE
  8
0
 62
    10
 10
27.28
 20
19.47
 30
0.0
 11
27.83
 21
18.97
 31
0.0
  0
CIRCLE
  8
0
 62
     4
 10
27.22
 20
18.92
 30
0.0
 40
0.15
  0
TEXT
  8
0
 10
7.92
 20
23.59
 30
0.0
 40
0.7
  1
BOLTS, 0.5"
  0
TEXT
  8
0
 10
21.74
 20
23.5
 30
0.0
 40
0.7
  1
ROOF
  0
TEXT
  8
0
 10
21.74
 20
22.6
 30
0.0
 40
0.7
  1
PURLIN
  0
TEXT
  8
0
 10
25.14
 20
12.12
 30
0.0
 40
0.7
  1
RAFTER
  0
TEXT
  8
0
 10
25.14
 20
11.22
 30
0.0
 40
0.7
  1
FLANGE
  0
TEXT
  8
0
 10
25.14
 20
10.32
 30
0.0
 40
0.7
  1
BRACE
  0
TEXT
  8
0
 10
0.74
 20
12.03
 30
0.0
 40
0.7
  1
RIGID
  0
TEXT
  8
0
 10
0.74
 20
11.13
 30
0.0
 40
0.7
  1
FRAME
  0
TEXT
  8
0
 10
0.74
 20
10.23
 30
0.0
 40
0.7
  1
RAFTER
  0
LINE
  8
0
 10
20.22
 20
23.68
 30
0.0
 11
20.98
 21
23.68
 31
0.0
  0
LINE
  8
0
 10
5.74
 20
10.55
 30
0.0
 11
5.02
 21
10.55
 31
0.0
  0
CIRCLE
  8
0
 10
2.4
 20
2.8
 30
0.0
 40
1.8
  0
CIRCLE
  8
0
 10
2.4
 20
2.8
 30
0.0
 40
1.83
  0
LINE
  8
0
 62
     1
 10
26.98
 20
18.02
 30
0.0
 11
31.39
 21
18.02
 31
0.0
  0
LINE
  8
0
  6
HIDDEN
 62
     1
 10
25.97
 20
18.02
 30
0.0
 11
26.98
 21
18.02
 31
0.0
  0
SOLID
  8
0
 10
16.22
 20
21.53
 30
0.0
 11
16.01
 21
21.47
 31
0.0
 12
16.3
 22
20.87
 32
0.0
 13
16.3
 23
20.87
 33
0.0
  0
LINE
  8
0
 10
16.11
 20
21.5
 30
0.0
 11
15.66
 21
23.02
 31
0.0
  0
SOLID
  8
0
 10
18.39
 20
21.96
 30
0.0
 11
18.25
 21
22.13
 31
0.0
 12
17.83
 22
21.62
 32
0.0
 13
17.83
 23
21.62
 33
0.0
  0
LINE
  8
0
 10
18.32
 20
22.04
 30
0.0
 11
20.22
 21
23.68
 31
0.0
  0
SOLID
  8
0
 10
23.16
 20
12.8
 30
0.0
 11
23.24
 21
13.0
 31
0.0
 12
22.6
 22
13.16
 32
0.0
 13
22.6
 23
13.16
 33
0.0
  0
LINE
  8
0
 10
23.2
 20
12.9
 30
0.0
 11
24.42
 21
12.38
 31
0.0
  0
SOLID
  8
0
 10
14.5
 20
12.35
 30
0.0
 11
14.53
 21
12.14
 31
0.0
 12
15.16
 22
12.35
 32
0.0
 13
15.16
 23
12.35
 33
0.0
  0
LINE
  8
0
 10
14.51
 20
12.25
 30
0.0
 11
5.74
 21
10.55
 31
0.0
  0
ENDBLK
  8
0
999
C:\MBS\DXF\B19.DXF
  0
BLOCK
  8
0
  2
B19
 70
     0
 10
0.0
 20
0.0
 30
0.0
  3
B19
  1

  0
LINE
  5
3B5
  8
0
 62
     6
 10
17.090107866015071
 20
15.109753876638321
 30
0.0
 11
21.070107866015071
 21
15.109753876638321
 31
0.0
  0
TEXT
  5
3B6
  8
0
 62
     7
 10
5.302999999999999
 20
1.6027849036543591
 30
0.0
 40
1.0
  1
ENDWALL COLUMN
  0
TEXT
  5
3B7
  8
0
 62
     7
 10
5.302999999999999
 20
3.1356515078151821
 30
0.0
 40
1.0
  1
RIGID FRAME RAFTER TO
  0
LINE
  5
3B8
  8
0
 62
     3
 10
7.9481078660150706
 20
22.646753876638321
 30
0.0
 11
26.88010786601507
 21
25.698753876638332
 31
0.0
  0
LINE
  5
3B9
  8
0
 62
     3
 10
7.9981078660150722
 20
22.396753876638321
 30
0.0
 11
26.940107866015069
 21
25.458753876638319
 31
0.0
  0
LINE
  5
3BA
  8
0
 62
     3
 10
9.578107866015074
 20
15.05675387663832
 30
0.0
 11
28.81010786601507
 21
18.16875387663832
 31
0.0
  0
LINE
  5
3BB
  8
0
 62
     3
 10
9.6281078660150712
 20
14.81675387663832
 30
0.0
 11
28.870107866015069
 21
17.91875387663832
 31
0.0
  0
LINE
  5
3BC
  8
0
 62
     6
 10
16.750107866015071
 20
10.778753876638319
 30
0.0
 11
21.440107866015069
 21
10.31875387663832
 31
0.0
  0
POLYLINE
  5
3BD
  8
0
 66
     1
 10
0.0
 20
0.0
 30
0.0
 70
     8
  0
VERTEX
  5
3BE
  8
0
 10
18.86320786601507
 20
14.44059670612439
 30
0.0
 70
    32
  0
VERTEX
  5
3BF
  8
0
 10
14.19880786601507
 20
13.65049670612439
 30
0.0
 70
    32
  0
SEQEND
  5
3C0
  8
0
  0
POLYLINE
  5
3C1
  8
0
 66
     1
 10
0.0
 20
0.0
 30
0.0
 70
     8
  0
VERTEX
  5
3C2
  8
0
 10
18.585007866015069
 20
16.346596706124391
 30
0.0
 70
    32
  0
VERTEX
  5
3C3
  8
0
 10
16.225807866015071
 20
19.28919670612439
 30
0.0
 70
    32
  0
SEQEND
  5
3C4
  8
0
  0
LINE
  5
3C5
  8
0
 62
     3
 10
7.8181078660150716
 20
23.22675387663832
 30
0.0
 11
9.7881078660150713
 21
14.086753876638319
 31
0.0
  0
TEXT
  5
3C6
  8
0
 10
3.3839107433013562
 20
10.2008269249172
 30
0.0
 40
0.7
  1
ENDWALL COLUMN
  0
TEXT
  5
3C7
  8
0
 62
     7
 10
0.2934285714285715
 20
2.0030000000000001
 30
0.0
 40
1.5
  1
B19
 72
     4
 11
2.4719999999999991
 21
2.7530000000000001
 31
0.0
  0
CIRCLE
  5
3C8
  8
0
 10
2.4719999999999991
 20
2.7530000000000001
 30
0.0
 40
2.2106239312664751
  0
CIRCLE
  5
3C9
  8
0
 10
2.4719999999999991
 20
2.7530000000000001
 30
0.0
 40
2.2912195954272319
  0
LINE
  5
3CA
  8
0
 62
     7
 10
14.198841739614201
 20
13.65046160109447
 30
0.0
 11
9.1654164621900591
 21
13.65046160109447
 31
0.0
  0
LINE
  5
3CB
  8
0
 62
     7
 10
12.11217656567301
 20
12.632683276713051
 30
0.0
 11
13.12995489005443
 21
13.65046160109447
 31
0.0
  0
TEXT
  5
3CC
  8
0
 62
     7
 10
9.5125329994029286
 20
12.73925006195665
 30
0.0
 40
0.6
  1
3/16
  0
LINE
  5
3CD
  8
0
 62
     7
 10
12.11217656567301
 20
13.65046160109447
 30
0.0
 11
12.11217656567301
 21
12.632683276713051
 31
0.0
  0
LINE
  5
3CE
  8
0
 62
     6
 10
17.090107866015071
 20
15.109753876638321
 30
0.0
 11
17.090107866015071
 21
10.74875387663832
 31
0.0
  0
POLYLINE
  8
0
  5
41F
  66
     1
 10
0.000000
 20
0.000000
 30
0.000000
  70
     8
  0
VERTEX
  8
0
  5
420
 10
17.0901
 20
12.9293
 30
0.000000
  70
    32
  0
VERTEX
  8
0
  5
421
 10
13.9694
 20
10.5416
 30
0.000000
  70
    32
  0
VERTEX
  8
0
  5
422
 10
13.4553
 20
10.5416
 30
0.000000
  70
    32
  0
SEQEND
  8
0
  5
423
  0
CIRCLE
  5
3D0
  8
0
 10
14.198841739614201
 20
13.65046160109447
 30
0.0
 40
0.5914398560483362
  0
LINE
  5
3D1
  8
0
 62
     0
 10
14.05810090059804
 20
13.702346244612841
 30
0.0
 11
14.146957096095811
 21
13.791202440110609
 31
0.0
  0
LINE
  5
3D2
  8
0
 62
     0
 10
14.05138187074386
 20
13.677949545229
 30
0.0
 11
14.171353795479661
 21
13.7979214699648
 31
0.0
  0
LINE
  5
3D3
  8
0
 62
     0
 10
14.04902713786394
 20
13.657917142819411
 30
0.0
 11
14.191386197889241
 21
13.800276202844721
 31
0.0
  0
LINE
  5
3D4
  8
0
 62
     0
 10
14.04918008268735
 20
13.64039241811316
 30
0.0
 11
14.2089109225955
 21
13.80012325802131
 31
0.0
  0
LINE
  5
3D5
  8
0
 62
     0
 10
14.06408222652432
 20
13.584583883831479
 30
0.0
 11
14.264719456877179
 21
13.785221114184329
 31
0.0
  0
LINE
  5
3D6
  8
0
 62
     0
 10
14.051084595954681
 20
13.62461926185083
 30
0.0
 11
14.22468407885782
 21
13.798218744753971
 31
0.0
  0
LINE
  5
3D7
  8
0
 62
     0
 10
14.05434538843669
 20
13.610202384803181
 30
0.0
 11
14.23910095590548
 21
13.794957952271959
 31
0.0
  0
LINE
  5
3D8
  8
0
 62
     0
 10
14.058727794287201
 20
13.596907121124019
 30
0.0
 11
14.252396219584631
 21
13.790575546421451
 31
0.0
  0
CIRCLE
  5
3D9
  8
0
 62
     7
 10
14.198841739614201
 20
13.65046160109447
 30
0.0
 40
0.1500000000000003
  0
LINE
  5
3DA
  8
0
 62
     0
 10
14.093694105552251
 20
13.54348508474075
 30
0.0
 11
14.3058182559679
 21
13.75560923515641
 31
0.0
  0
LINE
  5
3DB
  8
0
 62
     0
 10
14.102978380428871
 20
13.535091690087709
 30
0.0
 11
14.314211650620949
 21
13.746324960279781
 31
0.0
  0
LINE
  5
3DC
  8
0
 62
     0
 10
14.11301003394199
 20
13.527445674071171
 30
0.0
 11
14.32185766663749
 21
13.73629330676666
 31
0.0
  0
LINE
  5
3DD
  8
0
 62
     0
 10
14.123815165895429
 20
13.520573136494949
 30
0.0
 11
14.32873020421372
 21
13.725488174813229
 31
0.0
  0
LINE
  5
3DE
  8
0
 62
     0
 10
14.07030992196022
 20
13.57313390973771
 30
0.0
 11
14.27616943097094
 21
13.778993418748451
 31
0.0
  0
LINE
  5
3DF
  8
0
 62
     0
 10
14.07734554519701
 20
13.562491863444841
 30
0.0
 11
14.286811477263811
 21
13.771957795511639
 31
0.0
  0
LINE
  5
3E0
  8
0
 62
     0
 10
14.085147766314829
 20
13.55261641503299
 30
0.0
 11
14.29668692567566
 21
13.764155574393831
 31
0.0
  0
LINE
  5
3E1
  8
0
 62
     0
 10
14.07979246384561
 20
13.74171547739007
 30
0.0
 11
14.10758786331858
 21
13.76951087686305
 31
0.0
  0
LINE
  5
3E2
  8
0
 62
     0
 10
14.25675623644017
 20
13.51209285080237
 30
0.0
 11
14.33721048990628
 21
13.59254710426848
 31
0.0
  0
LINE
  5
3E3
  8
0
 62
     0
 10
14.13543954259478
 20
13.51451984366463
 30
0.0
 11
14.334783497044031
 21
13.71386379811387
 31
0.0
  0
LINE
  5
3E4
  8
0
 62
     0
 10
14.1479544543828
 20
13.50935708592298
 30
0.0
 11
14.339946254785669
 21
13.701348886325871
 31
0.0
  0
LINE
  5
3E5
  8
0
 62
     0
 10
14.23091680860777
 20
13.50393109249964
 30
0.0
 11
14.34537224820901
 21
13.61838653210088
 31
0.0
  0
LINE
  5
3E6
  8
0
 62
     0
 10
14.1614673810714
 20
13.505192343081919
 30
0.0
 11
14.344110997626739
 21
13.687835959637271
 31
0.0
  0
LINE
  5
3E7
  8
0
 62
     0
 10
14.17614187038874
 20
13.502189162869589
 30
0.0
 11
14.34711417783906
 21
13.673161470319929
 31
0.0
  0
LINE
  5
3E8
  8
0
 62
     0
 10
14.19223743800435
 20
13.50060706095554
 30
0.0
 11
14.348696279753099
 21
13.6570659027043
 31
0.0
  0
LINE
  5
3E9
  8
0
 62
     0
 10
14.210200324084029
 20
13.50089227750556
 30
0.0
 11
14.3484110632031
 21
13.63910301662462
 31
0.0
  0
TEXT
  5
3EA
  8
0
 10
5.6901078660150723
 20
28.376753876638318
 30
0.0
 40
0.7
  1
RIGID FRAME
  0
TEXT
  5
3EB
  8
0
 10
5.6901078660150723
 20
27.20675387663832
 30
0.0
 40
0.7
  1
RAFTER
  0
POLYLINE
  8
0
  5
424
  66
     1
 10
0.000000
 20
0.000000
 30
0.000000
  70
     8
  0
VERTEX
  8
0
  5
425
 10
13.9149
 20
23.6226
 30
0.000000
  70
    32
  0
VERTEX
  8
0
  5
426
 10
10.7942
 20
27.6368
 30
0.000000
  70
    32
  0
VERTEX
  8
0
  5
427
 10
10.2801
 20
27.6368
 30
0.000000
  70
    32
  0
SEQEND
  8
0
  5
428
  0
LINE
  5
3ED
  8
0
 62
     7
 10
16.225833690558321
 20
19.28919204319347
 30
0.0
 11
11.192408413134171
 21
19.28919204319347
 31
0.0
  0
TEXT
  5
3EE
  8
0
 62
     7
 10
11.53952495034704
 20
18.377980504055671
 30
0.0
 40
0.6
  1
3/16
  0
TEXT
  5
3EF
  8
0
 62
     7
 10
11.53952495034704
 20
19.600403582331271
 30
0.0
 40
0.6
  1
3/16
  0
LINE
  5
3F0
  8
0
 62
     7
 10
14.139168516617129
 20
19.28919204319347
 30
0.0
 11
14.139168516617129
 21
20.30697036757488
 31
0.0
  0
LINE
  5
3F1
  8
0
 62
     7
 10
14.139168516617129
 20
20.30697036757488
 30
0.0
 11
15.15694684099855
 21
19.28919204319347
 31
0.0
  0
LINE
  5
3F2
  8
0
 62
     7
 10
14.139168516617129
 20
18.27141371881206
 30
0.0
 11
15.15694684099855
 21
19.28919204319347
 31
0.0
  0
LINE
  5
3F3
  8
0
 62
     7
 10
14.139168516617129
 20
19.28919204319347
 30
0.0
 11
14.139168516617129
 21
18.27141371881206
 31
0.0
  0
LINE
  5
3F4
  8
0
 62
     0
 10
16.081337339380809
 20
19.248932826902191
 30
0.0
 11
16.2660929068496
 21
19.433688394370972
 31
0.0
  0
LINE
  5
3F5
  8
0
 62
     0
 10
16.085719745231319
 20
19.235637563223019
 30
0.0
 11
16.279388170528762
 21
19.429305988520461
 31
0.0
  0
LINE
  5
3F6
  8
0
 62
     0
 10
16.09107417746845
 20
19.223314325930492
 30
0.0
 11
16.2917114078213
 21
19.423951556283338
 31
0.0
  0
LINE
  5
3F7
  8
0
 62
     0
 10
16.097301872904339
 20
19.21186435183672
 30
0.0
 11
16.303161381915071
 21
19.417723860847438
 31
0.0
  0
LINE
  5
3F8
  8
0
 62
     0
 10
16.078373821687979
 20
19.316679987328001
 30
0.0
 11
16.198345746423769
 21
19.436651912063802
 31
0.0
  0
LINE
  5
3F9
  8
0
 62
     0
 10
16.07601908880806
 20
19.296647584918421
 30
0.0
 11
16.218378148833359
 21
19.439006644943721
 31
0.0
  0
LINE
  5
3FA
  8
0
 62
     0
 10
16.076172033631469
 20
19.279122860212158
 30
0.0
 11
16.235902873539619
 21
19.438853700120308
 31
0.0
  0
LINE
  5
3FB
  8
0
 62
     0
 10
16.07807654689881
 20
19.263349703949832
 30
0.0
 11
16.251676029801949
 21
19.436949186852981
 31
0.0
  0
LINE
  5
3FC
  8
0
 62
     0
 10
16.106784414789718
 20
19.380445919489091
 30
0.0
 11
16.1345798142627
 21
19.408241318962059
 31
0.0
  0
LINE
  5
3FD
  8
0
 62
     0
 10
16.085092851542161
 20
19.341076686711862
 30
0.0
 11
16.17394904703994
 21
19.42993288220962
 31
0.0
  0
LINE
  5
3FE
  8
0
 62
     0
 10
16.104337496141142
 20
19.201222305543851
 30
0.0
 11
16.31380342820793
 21
19.410688237610639
 31
0.0
  0
CIRCLE
  5
3FF
  8
0
 62
     7
 10
16.225833690558321
 20
19.28919204319347
 30
0.0
 40
0.1499999999999986
  0
LINE
  5
400
  8
0
 62
     0
 10
16.120686056496371
 20
19.182215526839752
 30
0.0
 11
16.332810206912029
 21
19.39433967725541
 31
0.0
  0
LINE
  5
401
  8
0
 62
     0
 10
16.112139717258948
 20
19.191346857132011
 30
0.0
 11
16.323678876619791
 21
19.402886016492829
 31
0.0
  0
LINE
  5
402
  8
0
 62
     0
 10
16.150807116839552
 20
19.159303578593939
 30
0.0
 11
16.355722155157839
 21
19.36421861691224
 31
0.0
  0
LINE
  5
403
  8
0
 62
     0
 10
16.1624314935389
 20
19.15325028576363
 30
0.0
 11
16.361775447988151
 21
19.352594240212881
 31
0.0
  0
LINE
  5
404
  8
0
 62
     0
 10
16.174946405326921
 20
19.148087528021989
 30
0.0
 11
16.366938205729799
 21
19.34007932842486
 31
0.0
  0
LINE
  5
405
  8
0
 62
     0
 10
16.188459332015519
 20
19.143922785180919
 30
0.0
 11
16.371102948570861
 21
19.326566401736262
 31
0.0
  0
LINE
  5
406
  8
0
 62
     0
 10
16.203133821332859
 20
19.140919604968591
 30
0.0
 11
16.374106128783179
 21
19.311891912418918
 31
0.0
  0
LINE
  5
407
  8
0
 62
     0
 10
16.219229388948481
 20
19.139337503054549
 30
0.0
 11
16.375688230697222
 21
19.295796344803311
 31
0.0
  0
LINE
  5
408
  8
0
 62
     0
 10
16.23719227502815
 20
19.13962271960456
 30
0.0
 11
16.375403014147221
 21
19.277833458723631
 31
0.0
  0
LINE
  5
409
  8
0
 62
     0
 10
16.129970331372999
 20
19.173822132186721
 30
0.0
 11
16.34120360156507
 21
19.385055402378789
 31
0.0
  0
LINE
  5
40A
  8
0
 62
     0
 10
16.140001984886108
 20
19.16617611617017
 30
0.0
 11
16.34884961758161
 21
19.375023748865669
 31
0.0
  0
LINE
  5
40B
  8
0
 62
     0
 10
16.257908759551899
 20
19.142661534598641
 30
0.0
 11
16.372364199153129
 21
19.257116974199882
 31
0.0
  0
LINE
  5
40C
  8
0
 62
     0
 10
16.28374818738429
 20
19.150823292901379
 30
0.0
 11
16.364202440850391
 21
19.23127754636749
 31
0.0
  0
LINE
  5
40D
  8
0
 62
     3
 10
26.710107866015068
 20
26.34875387663832
 30
0.0
 11
29.04010786601507
 21
17.268753876638328
 31
0.0
  0
TEXT
  5
40E
  8
0
 10
22.94900963175699
 20
13.226646286596839
 30
0.0
 40
0.7
  1
PL 6 X 1/4 X 0'-6"
  0
LINE
  5
40F
  8
0
  6
HIDDEN
 62
     6
 10
19.170107866015069
 20
15.109753876638321
 30
0.0
 11
19.170107866015069
 21
10.538753876638321
 31
0.0
  0
LINE
  5
410
  8
0
  6
HIDDEN
 62
     6
 10
18.970107866015059
 20
15.109753876638321
 30
0.0
 11
18.970107866015059
 21
10.55875387663832
 31
0.0
  0
LINE
  5
411
  8
0
 62
     6
 10
21.070107866015071
 20
15.109753876638321
 30
0.0
 11
21.070107866015071
 21
10.34875387663832
 31
0.0
  0
POLYLINE
  8
0
  5
429
  66
     1
 10
0.000000
 20
0.000000
 30
0.000000
  70
     8
  0
VERTEX
  8
0
  5
42A
 10
18.9281
 20
15.7133
 30
0.000000
  70
    32
  0
VERTEX
  8
0
  5
42B
 10
21.7189
 20
13.6153
 30
0.000000
  70
    32
  0
VERTEX
  8
0
  5
42C
 10
22.5774
 20
13.6161
 30
0.000000
  70
    32
  0
SEQEND
  8
0
  5
42D
  0
LINE
  5
413
  8
0
 62
     5
 10
18.760107866015069
 20
16.288753876638321
 30
0.0
 11
18.760107866015069
 21
15.109753876638321
 31
0.0
  0
LINE
  5
414
  8
0
 62
     5
 10
18.928107866015068
 20
15.109753876638321
 30
0.0
 11
18.928107866015068
 21
16.31675387663832
 31
0.0
  0
LINE
  5
415
  8
0
  6
HIDDEN
 62
     5
 10
18.760107866015069
 20
15.02519255536405
 30
0.0
 11
18.760107866015069
 21
13.958753876638321
 31
0.0
  0
LINE
  5
416
  8
0
  6
HIDDEN
 62
     5
 10
18.928107866015068
 20
13.958753876638321
 30
0.0
 11
18.928107866015068
 21
15.01298153103455
 31
0.0
  0
LINE
  5
417
  8
0
 62
     5
 10
18.760107866015069
 20
13.958753876638321
 30
0.0
 11
18.928107866015068
 21
13.958753876638321
 31
0.0
  0
ENDBLK
  5
3B4
999
C:\MBS\DXF\C12.DXF
  0
BLOCK
  8
0
  2
C12
 70
     0
 10
0.0
 20
0.0
 30
0.0
  3
C12
  1

  0
LINE
  5
A4
  8
0
  6
HIDDEN
 62
     3
 10
10.777177123001881
 20
11.863515798363901
 30
0.0
 11
23.682822876998099
 21
11.863515798363901
 31
0.0
  0
LINE
  5
A5
  8
0
 62
     1
 10
23.682822876998099
 20
12.232448338075271
 30
0.0
 11
8.7130398559489386
 21
12.232448338075271
 31
0.0
  0
LINE
  5
A6
  8
0
 62
     1
 10
23.682822876998099
 20
11.732448338075271
 30
0.0
 11
8.7518556454226228
 21
11.732448338075271
 31
0.0
  0
LINE
  5
A7
  8
0
  6
HIDDEN
 62
     1
 10
23.682822876998099
 20
17.717861682490408
 30
0.0
 11
10.777177123001881
 21
17.717861682490408
 31
0.0
  0
LINE
  5
A8
  8
0
  6
HIDDEN
 62
     1
 10
23.682822876998099
 20
17.217861682490408
 30
0.0
 11
10.777177123001881
 21
17.217861682490408
 31
0.0
  0
LINE
  5
A9
  8
0
  6
HIDDEN
 62
     3
 10
26.499999999999989
 20
17.353515798363901
 30
0.0
 11
10.777177123001881
 21
17.353515798363901
 31
0.0
  0
LINE
  5
AA
  8
0
 62
     3
 10
10.777177123001881
 20
12.363515798363901
 30
0.0
 11
26.999999999999989
 21
12.363515798363901
 31
0.0
  0
TEXT
  5
AB
  8
0
 10
5.8498421657049979
 20
5.8351084265389526
 30
0.0
 40
0.7
  1
NOTE: FLANGE BRACES MAY BE PRESENT
  0
LINE
  5
AC
  8
0
  6
HIDDEN
 62
     3
 10
15.41743406329218
 20
17.863515798363899
 30
0.0
 11
19.009135883738939
 21
17.863515798363899
 31
0.0
  0
LINE
  5
AD
  8
0
 62
     5
 10
19.009135883738939
 20
12.761580663061521
 30
0.0
 11
15.41743406329218
 21
12.761580663061521
 31
0.0
  0
LINE
  5
AE
  8
0
 62
     5
 10
15.41743406329218
 20
17.970787015914091
 30
0.0
 11
19.009135883738939
 21
17.970787015914091
 31
0.0
  0
LINE
  5
AF
  8
0
 62
     6
 10
19.261549122549241
 20
25.793515798363899
 30
0.0
 11
17.53154912254924
 21
25.793515798363899
 31
0.0
  0
LINE
  5
B0
  8
0
 62
     6
 10
19.261549122549241
 20
18.293515798363899
 30
0.0
 11
17.53154912254924
 21
18.293515798363899
 31
0.0
  0
LINE
  5
B1
  8
0
 62
     6
 10
17.261549122549241
 20
18.043515798363899
 30
0.0
 11
19.261549122549241
 21
18.043515798363899
 31
0.0
  0
TEXT
  5
B2
  8
0
 10
5.063142250346913
 20
1.9007625610820249
 30
0.0
 40
1.0
  1
ENDWALL COLUMN TO WALL GIRT
  0
TEXT
  5
B3
  8
0
 10
15.24653526149531
 20
9.9435157983639062
 30
0.0
 40
0.7
  1
ENDWALL GIRT
  0
LINE
  5
B4
  8
0
 62
     6
 10
17.261549122549241
 20
26.043515798363899
 30
0.0
 11
19.261549122549241
 21
26.043515798363899
 31
0.0
  0
SOLID
  5
B5
  8
0
 10
18.021549122549239
 20
22.733515798363911
 30
0.0
 11
17.921549122549241
 21
22.933515798363899
 31
0.0
 12
17.381549122549242
 22
22.543515798363899
 32
0.0
 13
17.381549122549242
 23
22.543515798363899
 33
0.0
  0
LINE
  5
B6
  8
0
 10
17.971549122549241
 20
22.833515798363901
 30
0.0
 11
20.491549122549252
 21
24.063515798363909
 31
0.0
  0
LINE
  5
B7
  8
0
 62
     1
 10
8.2122333031107395
 20
18.683515798363899
 30
0.0
 11
8.8022333031107411
 21
11.0835157983639
 31
0.0
  0
TEXT
  5
B8
  8
0
 10
0.5471428571428579
 20
1.909999999999999
 30
0.0
 40
1.1999999999999991
  1
C12
 72
     4
 11
2.29
 21
2.5099999999999989
 31
0.0
  0
CIRCLE
  5
B9
  8
0
 10
2.29
 20
2.5099999999999989
 30
0.0
 40
1.929999999999999
  0
CIRCLE
  5
BA
  8
0
 10
2.29
 20
2.5099999999999989
 30
0.0
 40
2.0
  0
LINE
  5
BB
  8
0
 62
     3
 10
15.41743406329218
 20
17.863515798363899
 30
0.0
 11
10.777177123001881
 21
17.863515798363899
 31
0.0
  0
LINE
  5
BC
  8
0
 62
     3
 10
10.777177123001881
 20
17.863515798363899
 30
0.0
 11
10.777177123001881
 21
12.232448338075271
 31
0.0
  0
LINE
  5
BD
  8
0
  6
HIDDEN
 62
     3
 10
10.777177123001881
 20
12.232448338075271
 30
0.0
 11
10.777177123001881
 21
11.863515798363901
 31
0.0
  0
LINE
  5
BE
  8
0
  6
HIDDEN
 62
     1
 10
10.777177123001881
 20
17.217861682490408
 30
0.0
 11
8.3260143463167076
 21
17.217861682490408
 31
0.0
  0
LINE
  5
BF
  8
0
 62
     1
 10
10.777177123001881
 20
17.717861682490408
 30
0.0
 11
8.2871985568430269
 21
17.717861682490408
 31
0.0
  0
CIRCLE
  5
C0
  8
0
 62
     4
 10
11.869815906400101
 20
13.259844348265609
 30
0.0
 40
0.2185277321555077
  0
CIRCLE
  5
C1
  8
0
 62
     4
 10
11.869815906400101
 20
16.40718724846219
 30
0.0
 40
0.2185277321555077
  0
LINE
  5
C2
  8
0
 62
     5
 10
15.41743406329218
 20
12.761580663061521
 30
0.0
 11
15.41743406329218
 21
17.970787015914091
 31
0.0
  0
CIRCLE
  5
C3
  8
0
 62
     4
 10
17.231424881699638
 20
13.34239809613219
 30
0.0
 40
0.2539587145770454
  0
CIRCLE
  5
C4
  8
0
 62
     4
 10
17.231424881699638
 20
16.736549970638919
 30
0.0
 40
0.2539587145770454
  0
TEXT
  5
C5
  8
0
 10
7.9515491225492472
 20
22.993515798363909
 30
0.0
 40
0.7
  1
BOLT, 0.5"
  0
TEXT
  5
C6
  8
0
 10
7.9515491225492472
 20
21.833515798363901
 30
0.0
 40
0.7
  1
BY 1.0"
  0
LINE
  5
C7
  8
0
 62
     6
 10
17.381549122549242
 20
25.6435157983639
 30
0.0
 11
17.381549122549242
 21
22.043515798363899
 31
0.0
  0
LINE
  5
C8
  8
0
 62
     6
 10
17.131549122549242
 20
25.6435157983639
 30
0.0
 11
17.131549122549242
 21
22.043515798363899
 31
0.0
  0
LINE
  5
C9
  8
0
 62
     6
 10
17.131549122549242
 20
18.443515798363901
 30
0.0
 11
17.131549122549242
 21
22.043515798363899
 31
0.0
  0
LINE
  5
CA
  8
0
 62
     6
 10
17.381549122549242
 20
18.443515798363901
 30
0.0
 11
17.381549122549242
 21
22.043515798363899
 31
0.0
  0
LINE
  5
CB
  8
0
 62
     6
 10
17.261549122549241
 20
18.043515798363899
 30
0.0
 11
15.261549122549241
 21
18.043515798363899
 31
0.0
  0
LINE
  5
CC
  8
0
 62
     6
 10
15.261549122549241
 20
18.293515798363899
 30
0.0
 11
16.981549122549239
 21
18.293515798363899
 31
0.0
  0
LINE
  5
CD
  8
0
 62
     6
 10
15.261549122549241
 20
18.043515798363899
 30
0.0
 11
15.261549122549241
 21
18.293515798363899
 31
0.0
  0
ARC
  5
CE
  8
0
 62
     6
 10
16.981549122549239
 20
18.443515798363901
 30
0.0
 40
0.15
 50
270.0
 51
0.0
  0
ARC
  5
CF
  8
0
 62
     6
 10
17.53154912254924
 20
18.443515798363901
 30
0.0
 40
0.15
 50
180.0
 51
270.0
  0
LINE
  5
D0
  8
0
 62
     6
 10
15.261549122549241
 20
25.793515798363899
 30
0.0
 11
16.981549122549239
 21
25.793515798363899
 31
0.0
  0
LINE
  5
D1
  8
0
 62
     6
 10
17.261549122549241
 20
26.043515798363899
 30
0.0
 11
15.261549122549241
 21
26.043515798363899
 31
0.0
  0
LINE
  5
D2
  8
0
 62
     6
 10
15.261549122549241
 20
26.043515798363899
 30
0.0
 11
15.261549122549241
 21
25.793515798363899
 31
0.0
  0
ARC
  5
D3
  8
0
 62
     6
 10
16.981549122549239
 20
25.6435157983639
 30
0.0
 40
0.15
 50
0.0
 51
90.0
  0
ARC
  5
D4
  8
0
 62
     6
 10
17.53154912254924
 20
25.6435157983639
 30
0.0
 40
0.15
 50
90.0
 51
180.0
  0
LINE
  5
D5
  8
0
 62
     3
 10
26.379999999999988
 20
18.583515798363901
 30
0.0
 11
27.140000000000001
 21
11.0735157983639
 31
0.0
  0
LINE
  5
D6
  8
0
 10
24.030000000000001
 20
10.363515798363901
 30
0.0
 11
23.100000000000001
 21
10.363515798363901
 31
0.0
  0
LINE
  5
D7
  8
0
 62
     3
 10
19.009135883738939
 20
17.863515798363899
 30
0.0
 11
26.449999999999989
 21
17.863515798363899
 31
0.0
  0
LINE
  5
D8
  8
0
 62
     5
 10
19.009135883738939
 20
17.970787015914091
 30
0.0
 11
19.009135883738939
 21
12.761580663061521
 31
0.0
  0
CIRCLE
  5
D9
  8
0
 62
     4
 10
22.59018409359987
 20
13.259844348265609
 30
0.0
 40
0.2185277321555077
  0
CIRCLE
  5
DA
  8
0
 62
     4
 10
22.59018409359987
 20
16.40718724846219
 30
0.0
 40
0.2185277321555077
  0
LINE
  5
DB
  8
0
  6
HIDDEN
 62
     1
 10
23.682822876998099
 20
17.717861682490408
 30
0.0
 11
23.682822876998099
 21
11.732448338075271
 31
0.0
  0
LINE
  5
DC
  8
0
 62
     3
 10
23.682822876998099
 20
11.863515798363901
 30
0.0
 11
27.059999999999992
 21
11.863515798363901
 31
0.0
  0
SOLID
  5
DD
  8
0
 10
24.949999999999999
 20
11.293515798363901
 30
0.0
 11
24.789999999999999
 21
11.433515798363899
 31
0.0
 12
25.289999999999988
 22
11.863515798363901
 32
0.0
 13
25.289999999999988
 23
11.863515798363901
 33
0.0
  0
LINE
  5
DE
  8
0
 10
24.870000000000001
 20
11.363515798363901
 30
0.0
 11
24.030000000000001
 21
10.363515798363901
 31
0.0
  0
TEXT
  5
DF
  8
0
 10
22.511549122549251
 20
22.59351579836391
 30
0.0
 40
0.7
  1
COLUMN
  0
TEXT
  5
E0
  8
0
 10
22.511549122549251
 20
23.7535157983639
 30
0.0
 40
0.7
  1
ENDWALL
  0
LINE
  5
E1
  8
0
 62
     6
 10
19.261549122549241
 20
18.043515798363899
 30
0.0
 11
19.261549122549241
 21
18.293515798363899
 31
0.0
  0
LINE
  5
E2
  8
0
 10
20.491549122549252
 20
24.063515798363909
 30
0.0
 11
21.671549122549241
 21
24.063515798363909
 31
0.0
  0
LINE
  5
E3
  8
0
 62
     6
 10
19.261549122549241
 20
26.043515798363899
 30
0.0
 11
19.261549122549241
 21
25.793515798363899
 31
0.0
  0
ENDBLK
  5
A3
999
C:\MBS\DXF\D27.DXF
  0
BLOCK
  8
0
 62
     5
  2
D27
 70
     0
 10
0.0
 20
0.0
 30
0.0
  3
D27
  1

  0
LINE
  5
FB
  8
0
 62
     3
 10
21.18836149957146
 20
12.45839372306831
 30
0.0
 11
20.590990473898529
 21
9.2109034475288443
 31
0.0
  0
LINE
  5
FC
  8
0
 62
     3
 10
20.959210078631209
 20
12.773227997281049
 30
0.0
 11
21.188361499571471
 21
12.4583937230683
 31
0.0
  0
LINE
  5
FD
  8
0
 62
     3
 10
21.626547829687929
 20
13.051065722404941
 30
0.0
 11
20.959210078631209
 21
12.773227997281049
 31
0.0
  0
LINE
  5
FE
  8
0
 62
     3
 10
21.405652616786071
 20
13.639654212427679
 30
0.0
 11
21.626547829687929
 21
13.051065722404941
 31
0.0
  0
SOLID
  5
FF
  8
0
 62
     7
 10
12.053246184532989
 20
10.93887446589703
 30
0.0
 11
12.198493790573719
 21
10.85640548421642
 31
0.0
 12
12.372374527952299
 22
11.33208446122579
 32
0.0
 13
12.372374527952299
 23
11.33208446122579
 33
0.0
  0
LINE
  5
100
  8
0
 62
     4
 10
14.34144445769247
 20
19.49690046612907
 30
0.0
 11
14.24144445769247
 21
19.49690046612907
 31
0.0
  0
LINE
  5
101
  8
0
 62
     4
 10
14.34144445769247
 20
18.16327945031906
 30
0.0
 11
14.24144445769247
 21
18.16327945031906
 31
0.0
  0
LINE
  5
102
  8
0
 62
     4
 10
11.894539479484839
 20
18.16327945031906
 30
0.0
 11
11.994539479484841
 21
18.16327945031906
 31
0.0
  0
LINE
  5
103
  8
0
 62
     4
 10
11.894539479484839
 20
19.49690046612907
 30
0.0
 11
11.994539479484841
 21
19.49690046612907
 31
0.0
  0
LINE
  5
104
  8
0
 62
     4
 10
14.241444457692459
 20
19.49690046612907
 30
0.0
 11
14.241444457692459
 21
18.16327945031906
 31
0.0
  0
LINE
  5
105
  8
0
 62
     4
 10
11.994539479484841
 20
19.49690046612907
 30
0.0
 11
11.994539479484841
 21
18.16327945031906
 31
0.0
  0
LINE
  5
106
  8
0
 62
     4
 10
11.894539479484839
 20
19.49690046612907
 30
0.0
 11
11.894539479484839
 21
18.16327945031906
 31
0.0
  0
CIRCLE
  5
107
  8
0
 62
     4
 10
14.32803166224252
 20
12.198
 30
0.0
 40
0.25
  0
CIRCLE
  5
108
  8
0
 62
     4
 10
14.32803166224252
 20
14.875999999999999
 30
0.0
 40
0.25
  0
LINE
  5
109
  8
0
 62
     4
 10
14.341444457692459
 20
19.49690046612907
 30
0.0
 11
14.341444457692459
 21
18.16327945031906
 31
0.0
  0
LINE
  5
10A
  8
0
  6
HIDDEN
 62
     5
 10
15.29149196858865
 20
18.385549666403069
 30
0.0
 11
10.94449196858865
 21
18.385549666403069
 31
0.0
  0
CIRCLE
  5
10B
  8
0
 10
3.0
 20
3.0
 30
0.0
 40
2.4790000000000001
  0
CIRCLE
  5
10C
  8
0
 10
3.0
 20
3.0
 30
0.0
 40
2.391999999999999
  0
LINE
  5
10D
  8
0
 62
     3
 10
5.611990473898536
 20
10.777903447528841
 30
0.0
 11
20.878990473898529
 21
10.777903447528841
 31
0.0
  0
LINE
  5
10E
  8
0
 62
     3
 10
5.611990473898536
 20
10.277903447528841
 30
0.0
 11
20.78699047389853
 21
10.277903447528841
 31
0.0
  0
LINE
  5
10F
  8
0
 62
     3
 10
5.611990473898536
 20
16.277903447528839
 30
0.0
 11
5.611990473898536
 21
10.277903447528841
 31
0.0
  0
LINE
  5
110
  8
1
 62
     3
 10
5.614990473898537
 20
15.79790344752884
 30
0.0
 11
21.801990473898531
 21
15.79790344752884
 31
0.0
  0
TEXT
  5
111
  8
0
 10
6.3300000000000001
 20
2.4590000000000001
 30
0.0
 40
1.0
  1
CORNER COLUMN TO ENDWALL GIRT
  0
POINT
  5
112
  8
DEFPOINTS
  6
BYBLOCK
 62
     0
 10
8.261000000000001
 20
12.069000000000001
 30
0.0
  0
ARC
  5
113
  8
0
 62
     6
 10
9.6910000000000007
 20
18.896999999999998
 30
0.0
 40
0.15
 50
90.0
 51
180.0
  0
ARC
  5
114
  8
0
 62
     6
 10
9.6910000000000007
 20
19.452000000000002
 30
0.0
 40
0.15
 50
180.0
 51
270.0
  0
ARC
  5
115
  8
0
 62
     6
 10
16.628
 20
18.896999999999998
 30
0.0
 40
0.15
 50
0.0
 51
90.0
  0
ARC
  5
116
  8
0
 62
     6
 10
16.628
 20
19.452000000000002
 30
0.0
 40
0.15
 50
270.0
 51
0.0
  0
LINE
  5
117
  8
0
 62
     6
 10
16.777999999999992
 20
17.533999999999999
 30
0.0
 11
17.158000000000001
 21
17.533999999999999
 31
0.0
  0
LINE
  5
118
  8
0
 62
     6
 10
16.777999999999992
 20
18.896999999999998
 30
0.0
 11
16.777999999999992
 21
17.533999999999999
 31
0.0
  0
LINE
  5
119
  8
0
 62
     6
 10
9.6910000000000007
 20
19.047000000000001
 30
0.0
 11
16.628
 21
19.047000000000001
 31
0.0
  0
LINE
  5
11A
  8
0
 62
     6
 10
9.5410000000000004
 20
17.533999999999999
 30
0.0
 11
9.5410000000000004
 21
18.896999999999998
 31
0.0
  0
LINE
  5
11B
  8
0
 62
     6
 10
9.1989999999999998
 20
17.533999999999999
 30
0.0
 11
9.5410000000000004
 21
17.533999999999999
 31
0.0
  0
LINE
  5
11C
  8
0
 62
     6
 10
9.1989999999999998
 20
20.95699999999999
 30
0.0
 11
9.1989999999999998
 21
17.533999999999999
 31
0.0
  0
LINE
  5
11D
  8
0
 62
     6
 10
9.5410000000000004
 20
20.95699999999999
 30
0.0
 11
9.1989999999999998
 21
20.95699999999999
 31
0.0
  0
LINE
  5
11E
  8
0
 62
     6
 10
9.5410000000000004
 20
19.452000000000002
 30
0.0
 11
9.5410000000000004
 21
20.95699999999999
 31
0.0
  0
LINE
  5
11F
  8
0
 62
     6
 10
9.8450000000000006
 20
19.302
 30
0.0
 11
9.6910000000000007
 21
19.302
 31
0.0
  0
LINE
  5
120
  8
0
 62
     6
 10
16.628
 20
19.302
 30
0.0
 11
9.8450000000000006
 21
19.302
 31
0.0
  0
LINE
  5
121
  8
0
 62
     6
 10
16.777999999999992
 20
20.757999999999999
 30
0.0
 11
16.777999999999992
 21
19.452000000000002
 31
0.0
  0
LINE
  5
122
  8
0
 62
     6
 10
17.143999999999998
 20
20.757999999999999
 30
0.0
 11
16.777999999999992
 21
20.757999999999999
 31
0.0
  0
LINE
  5
123
  8
0
 62
     6
 10
9.1999999999999993
 20
20.757999999999999
 30
0.0
 11
9.1999999999999993
 21
17.533999999999999
 31
0.0
  0
LINE
  5
124
  8
0
 62
     6
 10
17.143999999999998
 20
17.533999999999999
 30
0.0
 11
17.143999999999998
 21
20.757999999999999
 31
0.0
  0
LINE
  5
125
  8
0
 62
     3
 10
22.10599047389853
 20
17.44690344752884
 30
0.0
 11
21.405652616786071
 21
13.639654212427679
 31
0.0
  0
POINT
  5
126
  8
DEFPOINTS
  6
BYBLOCK
 62
     0
 10
3.9789999999999992
 20
17.682999999999989
 30
0.0
  0
POINT
  5
127
  8
DEFPOINTS
  6
BYBLOCK
 62
     0
 10
2.6389999999999989
 20
10.804
 30
0.0
  0
POINT
  5
128
  8
DEFPOINTS
  6
BYBLOCK
 62
     0
 10
8.5860000000000003
 20
10.804
 30
0.0
  0
POINT
  5
129
  8
DEFPOINTS
  6
BYBLOCK
 62
     0
 10
2.6389999999999989
 20
10.804
 30
0.0
  0
POINT
  5
12A
  8
DEFPOINTS
  6
BYBLOCK
 62
     0
 10
3.9789999999999992
 20
20.706
 30
0.0
  0
CIRCLE
  5
12B
  8
0
 62
     4
 10
11.907952274934781
 20
14.875999999999999
 30
0.0
 40
0.25
  0
SOLID
  5
12C
  8
0
 62
     7
 10
11.561
 20
19.658000000000001
 30
0.0
 11
11.425999999999989
 21
19.756
 31
0.0
 12
11.20099999999999
 22
19.302
 32
0.0
 13
11.20099999999999
 23
19.302
 33
0.0
  0
LINE
  5
12D
  8
0
 62
     7
 10
11.49299999999999
 20
19.707000000000001
 30
0.0
 11
14.878
 21
24.390000000000001
 31
0.0
  0
LINE
  5
12E
  8
0
 62
     7
 10
14.878
 20
24.390000000000001
 30
0.0
 11
15.378
 21
24.390000000000001
 31
0.0
  0
TEXT
  5
12F
  8
0
 62
     7
 10
15.884999999999989
 20
7.585
 30
0.0
 40
0.75
  1
ENDWALL
  0
TEXT
  5
130
  8
0
 62
     7
 10
15.884999999999989
 20
6.3349999999999991
 30
0.0
 40
0.75
  1
GIRT
  0
SOLID
  5
131
  8
0
 62
     7
 10
14.129
 20
9.8209999999999997
 30
0.0
 11
14.282
 21
9.8879999999999981
 31
0.0
 12
14.005000000000001
 22
10.311999999999999
 32
0.0
 13
14.005000000000001
 23
10.311999999999999
 33
0.0
  0
LINE
  5
132
  8
0
 62
     7
 10
14.205
 20
9.8539999999999992
 30
0.0
 11
15.067
 21
7.8840000000000003
 31
0.0
  0
LINE
  5
133
  8
0
 62
     7
 10
15.067
 20
7.8840000000000003
 30
0.0
 11
15.567
 21
7.8840000000000003
 31
0.0
  0
LINE
  5
134
  8
0
 62
     3
 10
5.611990473898536
 20
16.277903447528839
 30
0.0
 11
21.89099047389853
 21
16.277903447528839
 31
0.0
  0
TEXT
  5
135
  8
0
 62
     7
 10
5.1509999999999989
 20
8.3579999999999988
 30
0.0
 40
0.75
  1
BOLTED
  0
TEXT
  5
136
  8
0
 62
     7
 10
5.1509999999999989
 20
7.1079999999999988
 30
0.0
 40
0.75
  1
CLIP
  0
LINE
  5
137
  8
0
 62
     7
 10
12.1258021003132
 20
10.90266190632569
 30
0.0
 11
9.8149999999999995
 21
7.4610000000000003
 31
0.0
  0
LINE
  5
138
  8
0
 62
     7
 10
9.8149999999999995
 20
7.4610000000000003
 30
0.0
 11
9.3149999999999995
 21
7.4610000000000003
 31
0.0
  0
TEXT
  5
139
  8
0
 62
     7
 10
15.891999999999999
 20
23.914999999999999
 30
0.0
 40
0.7
  1
RIGID
  0
TEXT
  5
13A
  8
0
 62
     7
 10
15.891999999999999
 20
22.748999999999999
 30
0.0
 40
0.7
  1
FRAME
  0
TEXT
  5
13B
  8
0
 62
     7
 10
15.891999999999999
 20
21.58199999999999
 30
0.0
 40
0.7
  1
COLUMN
  0
LINE
  5
13C
  8
0
 62
     5
 10
10.94449196858865
 20
18.830089958224072
 30
0.0
 11
10.94449196858865
 21
11.396000000000001
 31
0.0
  0
LINE
  5
13D
  8
0
 62
     5
 10
10.94449196858865
 20
11.396000000000001
 30
0.0
 11
15.29149196858865
 21
11.396000000000001
 31
0.0
  0
LINE
  5
13E
  8
0
 62
     5
 10
15.29149196858865
 20
11.396000000000001
 30
0.0
 11
15.29149196858865
 21
18.830089958224072
 31
0.0
  0
LINE
  5
13F
  8
0
 62
     5
 10
15.29149196858865
 20
18.830089958224072
 30
0.0
 11
10.94449196858865
 21
18.830089958224072
 31
0.0
  0
CIRCLE
  5
140
  8
0
 62
     4
 10
11.907952274934781
 20
12.198
 30
0.0
 40
0.25
  0
TEXT
  5
141
  8
0
 62
     7
 10
1.3999999999999999
 20
2.399999999999999
 30
0.0
 40
1.1999999999999991
  1
D27
 72
     4
 11
3.0
 21
3.0
 31
0.0
  0
ENDBLK
  5
FA
999
C:\MBS\DXF\E3.DXF
  0
BLOCK
  8
0
  2
E3
 70
     0
 10
0.0
 20
0.0
 30
0.0
  3
E3
  1

  0
LINE
  5
69
  8
0
 10
11.790406422642301
 20
25.987090497718309
 30
0.0
 11
17.260406422642301
 21
28.927090497718311
 31
0.0
  0
LINE
  5
6A
  8
0
 10
12.2204064226423
 20
14.03709049771831
 30
0.0
 11
17.260406422642301
 21
12.38709049771831
 31
0.0
  0
TEXT
  5
6B
  8
0
 10
12.0104064226423
 20
30.017090497718311
 30
0.0
 40
0.75
  1
ENDWALL COLUMN
 72
     1
 11
17.260406422642301
 21
30.017090497718311
 31
0.0
  0
TEXT
  5
6C
  8
0
 10
13.7154064226423
 20
10.747090497718309
 30
0.0
 40
0.75
  1
BASE PLATE
 72
     1
 11
17.3404064226423
 21
10.747090497718309
 31
0.0
  0
TEXT
  5
6D
  8
0
 10
5.4787201965996717
 20
2.2198060001389801
 30
0.0
 40
1.0
  1
BASE PLATE FOR ENDWALL COLUMN
 72
     1
 11
19.97872019659966
 21
2.2198060001389801
 31
0.0
  0
LINE
  5
6E
  8
0
 62
     5
 10
8.3504064226423012
 20
14.19709049771831
 30
0.0
 11
8.3504064226423012
 21
26.19709049771831
 31
0.0
  0
LINE
  5
6F
  8
0
 62
     5
 10
14.350406422642299
 20
26.19709049771831
 30
0.0
 11
14.350406422642299
 21
14.19709049771831
 31
0.0
  0
CIRCLE
  5
70
  8
0
 10
2.5379999999999989
 20
2.79
 30
0.0
 40
2.089999999999999
  0
CIRCLE
  5
71
  8
0
 10
2.5379999999999989
 20
2.79
 30
0.0
 40
2.02
  0
TEXT
  5
72
  8
0
 10
1.3713333333333331
 20
2.089999999999999
 30
0.0
 40
1.399999999999999
  1
E3
 72
     1
 11
2.5379999999999989
 21
2.79
 31
0.0
 73
     2
  0
TEXT
  5
73
  8
0
 10
9.9754064226423012
 20
8.1970904977183121
 30
0.0
 40
0.75
  1
PLAN
 72
     1
 11
11.350406422642299
 21
8.1970904977183121
 31
0.0
  0
LINE
  5
74
  8
0
 62
     5
 10
14.350406422642299
 20
14.19709049771831
 30
0.0
 11
8.3504064226423012
 21
14.19709049771831
 31
0.0
  0
SOLID
  5
75
  8
0
 10
12.190406422642299
 20
13.95709049771831
 30
0.0
 11
12.2404064226423
 21
14.11709049771831
 31
0.0
 12
11.7404064226423
 22
14.19709049771831
 32
0.0
 13
11.7404064226423
 23
14.19709049771831
 33
0.0
  0
LINE
  5
76
  8
0
 62
     6
 10
11.110406422642299
 20
15.167090497718309
 30
0.0
 11
11.110406422642299
 21
25.237090497718309
 31
0.0
  0
LINE
  5
77
  8
0
 62
     6
 10
11.5804064226423
 20
25.237090497718309
 30
0.0
 11
11.5804064226423
 21
15.167090497718309
 31
0.0
  0
LINE
  5
78
  8
0
 62
     6
 10
11.5804064226423
 20
15.167090497718309
 30
0.0
 11
13.360406422642299
 21
15.167090497718309
 31
0.0
  0
LINE
  5
79
  8
0
 62
     6
 10
13.8304064226423
 20
14.64709049771831
 30
0.0
 11
8.9404064226423046
 21
14.64709049771831
 31
0.0
  0
CIRCLE
  5
7A
  8
0
 62
     4
 10
9.3504064226423012
 20
18.003838772906001
 30
0.0
 40
0.33
  0
LINE
  5
7B
  8
0
 62
     6
 10
8.9404064226423046
 20
15.167090497718309
 30
0.0
 11
11.110406422642299
 21
15.167090497718309
 31
0.0
  0
LINE
  5
7C
  8
0
 62
     6
 10
8.9404064226423046
 20
14.64709049771831
 30
0.0
 11
8.9404064226423046
 21
15.167090497718309
 31
0.0
  0
CIRCLE
  5
7D
  8
0
 62
     4
 10
9.3504064226423012
 20
22.39034222253062
 30
0.0
 40
0.33
  0
LINE
  5
7E
  8
0
 62
     6
 10
13.360406422642299
 20
15.167090497718309
 30
0.0
 11
13.8304064226423
 21
15.167090497718309
 31
0.0
  0
LINE
  5
7F
  8
0
 62
     6
 10
13.8304064226423
 20
15.167090497718309
 30
0.0
 11
13.8304064226423
 21
14.64709049771831
 31
0.0
  0
CIRCLE
  5
80
  8
0
 62
     4
 10
13.360406422642299
 20
18.003838772906001
 30
0.0
 40
0.33
  0
CIRCLE
  5
81
  8
0
 62
     4
 10
13.360406422642299
 20
22.39034222253062
 30
0.0
 40
0.33
  0
SOLID
  5
82
  8
0
 10
11.8304064226423
 20
25.907090497718311
 30
0.0
 11
11.7604064226423
 21
26.05709049771831
 31
0.0
 12
11.350406422642299
 22
25.747090497718311
 32
0.0
 13
11.350406422642299
 23
25.747090497718311
 33
0.0
  0
LINE
  5
83
  8
0
 62
     6
 10
8.9404064226423046
 20
25.747090497718311
 30
0.0
 11
13.8304064226423
 21
25.747090497718311
 31
0.0
  0
LINE
  5
84
  8
0
 62
     6
 10
13.8304064226423
 20
25.237090497718309
 30
0.0
 11
11.5804064226423
 21
25.237090497718309
 31
0.0
  0
LINE
  5
85
  8
0
 62
     5
 10
8.3504064226423012
 20
26.19709049771831
 30
0.0
 11
14.350406422642299
 21
26.19709049771831
 31
0.0
  0
LINE
  5
86
  8
0
 62
     6
 10
11.110406422642299
 20
25.237090497718309
 30
0.0
 11
8.9404064226423046
 21
25.237090497718309
 31
0.0
  0
LINE
  5
87
  8
0
 62
     6
 10
8.9404064226423046
 20
25.237090497718309
 30
0.0
 11
8.9404064226423046
 21
25.747090497718311
 31
0.0
  0
LINE
  5
88
  8
0
 62
     6
 10
13.8304064226423
 20
25.747090497718311
 30
0.0
 11
13.8304064226423
 21
25.237090497718309
 31
0.0
  0
LINE
  5
89
  8
0
 62
     5
 10
26.350406422642301
 20
14.19709049771831
 30
0.0
 11
26.350406422642301
 21
14.64709049771831
 31
0.0
  0
LINE
  5
8A
  8
0
 62
     5
 10
20.360406422642299
 20
14.64709049771831
 30
0.0
 11
20.360406422642299
 21
14.237090497718309
 31
0.0
  0
LINE
  5
8B
  8
0
 62
     5
 10
20.350406422642301
 20
14.19709049771831
 30
0.0
 11
26.350406422642301
 21
14.19709049771831
 31
0.0
  0
TEXT
  5
8C
  8
0
 10
20.100406422642301
 20
8.1970904977183121
 30
0.0
 40
0.75
  1
ELEVATION
 72
     1
 11
23.350406422642301
 21
8.1970904977183121
 31
0.0
  0
LINE
  5
8D
  8
0
 10
22.680406422642299
 20
14.04709049771831
 30
0.0
 11
17.260406422642301
 21
12.38709049771831
 31
0.0
  0
LINE
  5
8E
  8
0
 10
17.260406422642301
 20
12.38709049771831
 30
0.0
 11
17.260406422642301
 21
11.87709049771831
 31
0.0
  0
SOLID
  5
8F
  8
0
 10
22.6604064226423
 20
14.12709049771831
 30
0.0
 11
22.710406422642301
 21
13.96709049771831
 31
0.0
 12
23.1604064226423
 22
14.19709049771831
 32
0.0
 13
23.1604064226423
 23
14.19709049771831
 33
0.0
  0
LINE
  5
90
  8
0
  6
HIDDEN
 62
     6
 10
23.5504064226423
 20
14.64709049771831
 30
0.0
 11
23.5504064226423
 21
26.937090497718309
 31
0.0
  0
LINE
  5
91
  8
0
  6
HIDDEN
 62
     6
 10
23.1604064226423
 20
14.64709049771831
 30
0.0
 11
23.1604064226423
 21
26.847090497718309
 31
0.0
  0
LINE
  5
92
  8
0
 62
     6
 10
25.8004064226423
 20
14.64709049771831
 30
0.0
 11
25.8004064226423
 21
27.437090497718309
 31
0.0
  0
LINE
  5
93
  8
0
 62
     6
 10
20.990406422642302
 20
14.64709049771831
 30
0.0
 11
20.990406422642302
 21
26.367090497718308
 31
0.0
  0
LINE
  5
94
  8
0
 62
     5
 10
26.350406422642301
 20
14.64709049771831
 30
0.0
 11
20.360406422642299
 21
14.64709049771831
 31
0.0
  0
LINE
  5
95
  8
0
 62
     6
 10
20.0504064226423
 20
26.157090497718311
 30
0.0
 11
24.3204064226423
 21
27.10709049771831
 31
0.0
  0
LINE
  5
96
  8
0
 10
21.850406422642301
 20
26.867090497718308
 30
0.0
 11
17.260406422642301
 21
28.927090497718311
 31
0.0
  0
SOLID
  5
97
  8
0
 10
21.8904064226423
 20
26.937090497718309
 30
0.0
 11
21.8204064226423
 21
26.78709049771831
 31
0.0
 12
22.310406422642298
 22
26.657090497718311
 32
0.0
 13
22.310406422642298
 23
26.657090497718311
 33
0.0
  0
LINE
  5
98
  8
0
 10
17.260406422642301
 20
28.927090497718311
 30
0.0
 11
17.260406422642301
 21
29.44709049771831
 31
0.0
  0
LINE
  5
99
  8
0
 62
     6
 10
24.950406422642299
 20
27.247090497718311
 30
0.0
 11
27.430406422642299
 21
27.797090497718312
 31
0.0
  0
LINE
  5
9A
  8
0
 62
     6
 10
24.3204064226423
 20
27.10709049771831
 30
0.0
 11
24.400406422642298
 21
27.69709049771831
 31
0.0
  0
LINE
  5
9B
  8
0
 62
     6
 10
24.400406422642298
 20
27.69709049771831
 30
0.0
 11
24.710406422642301
 21
26.777090497718309
 31
0.0
  0
LINE
  5
9C
  8
0
 62
     6
 10
24.710406422642301
 20
26.777090497718309
 30
0.0
 11
24.950406422642299
 21
27.247090497718311
 31
0.0
  0
ENDBLK
  5
68
999
C:\MBS\DXF\E6.DXF
  0
BLOCK
  8
0
  2
E6
 70
    64
 10
0.0
 20
0.0
 30
0.0
  3
E6
  0
TEXT
  8
0
 62
     7
 10
5.446
 20
2.584
 30
0.0
 40
1.0
  1
BASE PLATE FOR DOOR JAMB
 72
     1
 11
17.28
 21
2.584
 31
0.0
  0
TEXT
  8
0
 62
     7
 10
12.595
 20
16.1
 30
0.0
 40
0.7
  1
1/2" x 1"
  0
LINE
  8
0
 10
20.237
 20
20.264
 30
0.0
 11
16.907
 21
22.514
 31
0.0
  0
TEXT
  8
0
 10
10.867
 20
9.674
 30
0.0
 40
0.7
  1
BASE PLATE
  0
LINE
  8
0
 62
     5
 10
7.357
 20
17.814
 30
0.0
 11
7.357
 21
11.814
 31
0.0
  0
LINE
  8
0
 62
     5
 10
5.107
 20
11.814
 30
0.0
 11
5.107
 21
17.814
 31
0.0
  0
LINE
  8
0
 62
     5
 10
7.607
 20
17.814
 30
0.0
 11
7.607
 21
11.814
 31
0.0
  0
LINE
  8
0
 62
     6
 10
7.767
 20
18.704
 30
0.0
 11
7.767
 21
10.904
 31
0.0
  0
SOLID
  8
0
 10
6.737
 20
11.404
 30
0.0
 11
6.857
 21
11.514
 31
0.0
 12
6.457
 22
11.814
 32
0.0
 13
6.457
 23
11.814
 33
0.0
  0
TEXT
  8
0
 10
5.067
 20
6.694
 30
0.0
 40
0.8
  1
PLAN
  0
LINE
  8
0
 62
     5
 10
7.607
 20
11.814
 30
0.0
 11
5.107
 21
11.814
 31
0.0
  0
LINE
  8
0
 62
     6
 10
7.667
 20
10.804
 30
0.0
 11
4.867
 21
10.804
 31
0.0
  0
CIRCLE
  8
0
 10
2.462
 20
2.394
 30
0.0
 40
2.0
  0
TEXT
  8
0
 10
0.962
 20
1.494
 30
0.0
 40
1.8
  1
E6
 72
     4
 11
2.462
 21
2.394
 31
0.0
  0
CIRCLE
  8
0
 10
2.462
 20
2.394
 30
0.0
 40
1.93
  0
LINE
  8
0
 62
     6
 10
4.767
 20
10.904
 30
0.0
 11
4.767
 21
11.554
 31
0.0
  0
ARC
  8
0
 62
     6
 10
4.867
 20
10.904
 30
0.0
 40
0.1
 50
180.0
 51
270.0
  0
LINE
  8
0
 10
8.187
 20
10.024
 30
0.0
 11
10.237
 21
10.024
 31
0.0
  0
LINE
  8
0
 10
6.797
 20
11.454
 30
0.0
 11
8.187
 21
10.024
 31
0.0
  0
ARC
  8
0
 62
     6
 10
7.667
 20
10.904
 30
0.0
 40
0.1
 50
270.0
 51
0.0
  0
LINE
  8
0
 10
9.707
 20
10.024
 30
0.0
 11
10.207
 21
10.024
 31
0.0
  0
CIRCLE
  8
0
 62
     4
 10
6.297
 20
16.13
 30
0.0
 40
0.44
  0
LINE
  8
0
 10
6.477
 20
19.214
 30
0.0
 11
9.617
 21
23.734
 31
0.0
  0
SOLID
  8
0
 10
6.547
 20
19.164
 30
0.0
 11
6.407
 21
19.264
 31
0.0
 12
6.187
 22
18.804
 32
0.0
 13
6.187
 23
18.804
 33
0.0
  0
CIRCLE
  8
0
 62
     4
 10
6.297
 20
13.296
 30
0.0
 40
0.44
  0
LINE
  8
0
 62
     5
 10
5.107
 20
17.814
 30
0.0
 11
7.607
 21
17.814
 31
0.0
  0
LINE
  8
0
 62
     6
 10
4.867
 20
18.804
 30
0.0
 11
7.667
 21
18.804
 31
0.0
  0
LINE
  8
0
 62
     6
 10
4.767
 20
18.054
 30
0.0
 11
4.767
 21
18.704
 31
0.0
  0
ARC
  8
0
 62
     6
 10
4.867
 20
18.704
 30
0.0
 40
0.1
 50
90.0
 51
180.0
  0
LINE
  8
0
 10
11.247
 20
17.654
 30
0.0
 11
11.837
 21
17.654
 31
0.0
  0
LINE
  8
0
 62
     4
 10
7.007
 20
12.784
 30
0.0
 11
8.28
 21
12.784
 31
0.0
  0
LINE
  8
0
 62
     4
 10
7.227
 20
12.974
 30
0.0
 11
7.227
 21
12.594
 31
0.0
  0
LINE
  8
0
 62
     4
 10
8.002
 20
13.014
 30
0.0
 11
8.002
 21
12.634
 31
0.0
  0
LINE
  8
0
 10
8.657
 20
16.961
 30
0.0
 11
11.247
 21
17.654
 31
0.0
  0
LINE
  8
0
 62
     4
 10
7.007
 20
16.844
 30
0.0
 11
8.222
 21
16.844
 31
0.0
  0
LINE
  8
0
 62
     4
 10
7.227
 20
17.034
 30
0.0
 11
7.227
 21
16.654
 31
0.0
  0
SOLID
  8
0
 10
8.676
 20
16.888
 30
0.0
 11
8.637
 21
17.033
 31
0.0
 12
8.222
 22
16.844
 32
0.0
 13
8.222
 23
16.844
 33
0.0
  0
LINE
  8
0
 62
     4
 10
8.002
 20
17.074
 30
0.0
 11
8.002
 21
16.694
 31
0.0
  0
ARC
  8
0
 62
     6
 10
7.667
 20
18.704
 30
0.0
 40
0.1
 50
0.0
 51
90.0
  0
LINE
  8
0
 10
11.247
 20
17.654
 30
0.0
 11
11.697
 21
17.654
 31
0.0
  0
LINE
  8
0
 10
11.247
 20
17.654
 30
0.0
 11
11.747
 21
17.654
 31
0.0
  0
LINE
  8
0
 10
11.247
 20
17.654
 30
0.0
 11
11.427
 21
17.654
 31
0.0
  0
TEXT
  8
0
 62
     7
 10
12.529
 20
15.129
 30
0.0
 40
0.7
  1
A307
  0
TEXT
  8
0
 10
12.467
 20
17.374
 30
0.0
 40
0.7
  1
BOLTS,
  0
TEXT
  8
0
 10
11.127
 20
22.174
 30
0.0
 40
0.7
  1
JAMB
  0
TEXT
  8
0
 10
11.127
 20
23.334
 30
0.0
 40
0.7
  1
DOOR
  0
LINE
  8
0
 10
9.617
 20
23.734
 30
0.0
 11
10.117
 21
23.734
 31
0.0
  0
LINE
  8
0
 10
9.617
 20
23.734
 30
0.0
 11
10.297
 21
23.734
 31
0.0
  0
LINE
  8
0
 10
16.907
 20
22.514
 30
0.0
 11
15.907
 21
22.514
 31
0.0
  0
LINE
  8
0
 62
     4
 10
22.567
 20
11.901
 30
0.0
 11
22.567
 21
12.312
 31
0.0
  0
LINE
  8
1
 62
     4
 10
21.617
 20
12.324
 30
0.0
 11
21.617
 21
11.894
 31
0.0
  0
LINE
  8
1
 62
     5
 10
22.057
 20
13.064
 30
0.0
 11
22.057
 21
11.404
 31
0.0
  0
LINE
  8
1
 62
     5
 10
21.807
 20
11.404
 30
0.0
 11
21.807
 21
13.064
 31
0.0
  0
LINE
  8
0
 62
     6
 10
19.367
 20
11.404
 30
0.0
 11
19.367
 21
20.164
 31
0.0
  0
LINE
  8
0
 62
     6
 10
22.367
 20
11.404
 30
0.0
 11
22.367
 21
19.724
 31
0.0
  0
TEXT
  8
0
 10
17.857
 20
6.694
 30
0.0
 40
0.8
  1
ELEVATION
  0
LINE
  8
0
 10
20.697
 20
10.704
 30
0.0
 11
19.077
 21
10.034
 31
0.0
  0
LINE
  8
0
 62
     5
 10
19.537
 20
11.154
 30
0.0
 11
21.807
 21
11.154
 31
0.0
  0
LINE
  8
0
 62
     5
 10
19.537
 20
10.904
 30
0.0
 11
22.057
 21
10.904
 31
0.0
  0
LINE
  8
0
 62
     6
 10
22.367
 20
11.404
 30
0.0
 11
19.367
 21
11.404
 31
0.0
  0
LINE
  8
0
 10
19.077
 20
10.034
 30
0.0
 11
18.217
 21
10.034
 31
0.0
  0
LINE
  8
1
 62
     5
 10
19.537
 20
10.904
 30
0.0
 11
19.537
 21
11.154
 31
0.0
  0
LINE
  8
0
 10
19.077
 20
10.034
 30
0.0
 11
18.577
 21
10.034
 31
0.0
  0
LINE
  8
0
 10
19.077
 20
10.034
 30
0.0
 11
18.717
 21
10.034
 31
0.0
  0
SOLID
  8
0
 10
20.667
 20
10.784
 30
0.0
 11
20.727
 21
10.624
 31
0.0
 12
21.157
 22
10.894
 32
0.0
 13
21.157
 23
10.894
 33
0.0
  0
LINE
  8
0
 62
     5
 10
22.057
 20
10.904
 30
0.0
 11
22.057
 21
11.154
 31
0.0
  0
LINE
  8
0
 62
     5
 10
21.807
 20
11.154
 30
0.0
 11
21.807
 21
11.414
 31
0.0
  0
LINE
  8
0
 62
     5
 10
22.057
 20
11.144
 30
0.0
 11
22.057
 21
11.404
 31
0.0
  0
LINE
  8
0
 62
     4
 10
22.808
 20
12.084
 30
0.0
 11
22.367
 21
12.084
 31
0.0
  0
LINE
  8
1
 62
     4
 10
22.367
 20
12.084
 30
0.0
 11
21.387
 21
12.084
 31
0.0
  0
LINE
  8
1
 62
     5
 10
21.807
 20
13.064
 30
0.0
 11
22.057
 21
13.064
 31
0.0
  0
LINE
  8
0
 62
     6
 10
18.777
 20
20.254
 30
0.0
 11
22.987
 21
19.634
 31
0.0
  0
SOLID
  8
0
 10
20.287
 20
20.324
 30
0.0
 11
20.197
 21
20.194
 31
0.0
 12
20.657
 22
19.984
 32
0.0
 13
20.657
 23
19.984
 33
0.0
  0
ENDBLK
  8
0
999
C:\MBS\DXF\G2.DXF
  0
BLOCK
  8
0
  2
G2
 70
    64
 10
0.0
 20
0.0
 30
0.0
  3
G2
  0
LINE
  8
0
 62
     5
 10
15.37
 20
16.25
 30
0.0
 11
18.72
 21
16.25
 31
0.0
  0
LINE
  8
0
  6
CONTINUOUS
 62
     5
 10
15.37
 20
19.56
 30
0.0
 11
18.72
 21
19.56
 31
0.0
  0
TEXT
  8
0
 10
6.12
 20
1.71
 30
0.0
 40
0.72
  1
ROOF PURLIN TO INTERIOR FRAME RAFTER
  0
LINE
  8
0
 62
     6
 10
18.84
 20
16.19
 30
0.0
 11
15.24
 21
16.19
 31
0.0
  0
LINE
  8
0
 62
     6
 10
15.24
 20
3.89
 30
0.0
 11
18.84
 21
3.89
 31
0.0
  0
LINE
  8
1
  6
DASHED
 62
     3
 10
1.3
 20
16.65
 30
0.0
 11
31.29
 21
16.65
 31
0.0
  0
LINE
  8
0
 62
     3
 10
30.9
 20
19.64
 30
0.0
 11
1.07
 21
19.64
 31
0.0
  0
LINE
  8
0
 62
     3
 10
1.05
 20
19.95
 30
0.0
 11
30.87
 21
19.95
 31
0.0
  0
LINE
  8
0
  6
DASHED
 62
     3
 10
15.47
 20
16.35
 30
0.0
 11
18.62
 21
16.35
 31
0.0
  0
LINE
  8
0
 62
     6
 10
16.92
 20
15.74
 30
0.0
 11
16.92
 21
4.34
 31
0.0
  0
LINE
  8
0
 62
     1
 10
16.83
 20
4.72
 30
0.0
 11
5.05
 21
17.8
 31
0.0
  0
LINE
  8
0
 62
     1
 10
16.35
 20
4.35
 30
0.0
 11
4.6
 21
17.4
 31
0.0
  0
LINE
  8
0
 62
     1
 10
16.23
 20
4.25
 30
0.0
 11
4.49
 21
17.3
 31
0.0
  0
LINE
  8
0
 10
16.27
 20
10.58
 30
0.0
 11
5.93
 21
8.88
 31
0.0
  0
CIRCLE
  8
0
 10
2.16
 20
2.4
 30
0.0
 40
1.83
  0
CIRCLE
  8
0
 10
2.16
 20
2.4
 30
0.0
 40
1.8
  0
TEXT
  8
0
 62
     7
 10
0.91
 20
1.65
 30
0.0
 40
1.5
  1
G2
 72
     4
 11
2.16
 21
2.4
 31
0.0
  0
TEXT
  8
0
 10
0.93
 20
8.56
 30
0.0
 40
0.7
  1
RAFTER
  0
TEXT
  8
0
 10
0.93
 20
9.46
 30
0.0
 40
0.7
  1
FRAME
  0
TEXT
  8
0
 10
0.93
 20
10.36
 30
0.0
 40
0.7
  1
RIGID
  0
LINE
  8
0
 10
5.93
 20
8.88
 30
0.0
 11
5.21
 21
8.88
 31
0.0
  0
LINE
  8
0
 62
     4
 10
15.68
 20
4.88
 30
0.0
 11
15.68
 21
4.19
 31
0.0
  0
LINE
  8
0
 62
     1
 10
16.23
 20
4.25
 30
0.0
 11
16.83
 21
4.72
 31
0.0
  0
LINE
  8
0
 62
     6
 10
16.77
 20
4.19
 30
0.0
 11
15.24
 21
4.19
 31
0.0
  0
LINE
  8
0
 62
     6
 10
15.24
 20
4.19
 30
0.0
 11
15.24
 21
3.89
 31
0.0
  0
POINT
  8
0
 10
17.04
 20
3.89
 30
0.0
  0
ARC
  8
0
 62
     6
 10
16.77
 20
4.34
 30
0.0
 40
0.15
 50
270.0
 51
0.0
  0
LINE
  8
1
 62
     4
 10
16.33
 20
5.27
 30
0.0
 11
15.68
 21
5.27
 31
0.0
  0
LINE
  8
1
 62
     4
 10
15.68
 20
5.27
 30
0.0
 11
15.68
 21
4.88
 31
0.0
  0
LINE
  8
0
 62
     4
 10
16.93
 20
5.27
 30
0.0
 11
16.33
 21
5.27
 31
0.0
  0
CIRCLE
  8
0
 62
     4
 10
16.28
 20
4.76
 30
0.0
 40
0.15
  0
SOLID
  8
0
 10
16.26
 20
10.68
 30
0.0
 11
16.29
 21
10.47
 31
0.0
 12
16.92
 22
10.68
 32
0.0
 13
16.92
 23
10.68
 33
0.0
  0
TEXT
  8
0
 10
1.31
 20
21.92
 30
0.0
 40
0.7
  1
BOLTS, 0.5"
  0
TEXT
  8
0
 62
     7
 10
1.2
 20
20.66
 30
0.0
 40
0.7
  1
x 1.0" (TYP)
  0
LINE
  8
0
 62
     3
 10
6.35
 20
16.35
 30
0.0
 11
15.47
 21
16.35
 31
0.0
  0
LINE
  8
0
 62
     3
 10
1.01
 20
20.44
 30
0.0
 11
1.36
 21
15.88
 31
0.0
  0
LINE
  8
0
 62
     3
 10
1.33
 20
16.35
 30
0.0
 11
5.34
 21
16.35
 31
0.0
  0
LINE
  8
0
 62
     1
 10
5.05
 20
17.8
 30
0.0
 11
4.49
 21
17.3
 31
0.0
  0
CIRCLE
  8
0
 62
     4
 10
5.1
 20
17.25
 30
0.0
 40
0.15
  0
LINE
  8
0
  6
DASHED
 62
     3
 10
5.34
 20
16.35
 30
0.0
 11
6.35
 21
16.35
 31
0.0
  0
SOLID
  8
0
 10
9.61
 20
19.86
 30
0.0
 11
9.4
 21
19.8
 31
0.0
 12
9.69
 22
19.2
 32
0.0
 13
9.69
 23
19.2
 33
0.0
  0
LINE
  8
0
 62
     3
 10
9.34
 20
19.98
 30
0.0
 11
9.34
 21
16.37
 31
0.0
  0
CIRCLE
  8
0
 62
     4
 10
9.71
 20
17.2
 30
0.0
 40
0.15
  0
CIRCLE
  8
0
 62
     4
 10
9.71
 20
19.05
 30
0.0
 40
0.15
  0
ARC
  8
0
 62
     6
 10
16.77
 20
15.74
 30
0.0
 40
0.15
 50
0.0
 51
90.0
  0
LINE
  8
0
  6
CONTINUOUS
 62
     5
 10
15.37
 20
16.25
 30
0.0
 11
15.37
 21
19.56
 31
0.0
  0
LINE
  8
0
 62
     6
 10
15.24
 20
15.89
 30
0.0
 11
16.77
 21
15.89
 31
0.0
  0
LINE
  8
0
 62
     6
 10
15.24
 20
16.19
 30
0.0
 11
15.24
 21
15.89
 31
0.0
  0
LINE
  8
0
 10
16.89
 20
15.89
 30
0.0
 11
16.89
 21
15.89
 31
0.0
  0
CIRCLE
  8
0
 62
     4
 10
16.07
 20
17.2
 30
0.0
 40
0.15
  0
CIRCLE
  8
0
 62
     4
 10
16.1
 20
19.15
 30
0.0
 40
0.15
  0
LINE
  8
0
 10
9.51
 20
19.83
 30
0.0
 11
9.05
 21
21.35
 31
0.0
  0
LINE
  8
0
 10
8.64
 20
21.35
 30
0.0
 11
9.05
 21
21.35
 31
0.0
  0
POINT
  8
0
 62
     7
 10
16.95
 20
24.13
 30
0.0
  0
LINE
  8
0
 62
     6
 10
17.16
 20
4.34
 30
0.0
 11
17.16
 21
15.74
 31
0.0
  0
LINE
  8
0
 62
     1
 10
17.26
 20
4.72
 30
0.0
 11
29.04
 21
17.8
 31
0.0
  0
LINE
  8
0
 62
     1
 10
17.73
 20
4.35
 30
0.0
 11
29.48
 21
17.4
 31
0.0
  0
LINE
  8
0
 62
     1
 10
17.85
 20
4.26
 30
0.0
 11
29.59
 21
17.3
 31
0.0
  0
TEXT
  8
0
 10
26.9
 20
8.65
 30
0.0
 40
0.7
  1
BRACE
  0
TEXT
  8
0
 10
26.9
 20
9.55
 30
0.0
 40
0.7
  1
FLANGE
  0
TEXT
  8
0
 10
26.9
 20
10.45
 30
0.0
 40
0.7
  1
RAFTER
  0
LINE
  8
0
 62
     4
 10
18.41
 20
4.88
 30
0.0
 11
18.41
 21
4.19
 31
0.0
  0
LINE
  8
0
 62
     1
 10
17.85
 20
4.26
 30
0.0
 11
17.26
 21
4.72
 31
0.0
  0
LINE
  8
0
 62
     6
 10
18.84
 20
4.19
 30
0.0
 11
17.31
 21
4.19
 31
0.0
  0
ARC
  8
0
 62
     6
 10
17.31
 20
4.34
 30
0.0
 40
0.15
 50
180.0
 51
270.0
  0
LINE
  8
0
 62
     6
 10
18.84
 20
3.89
 30
0.0
 11
18.84
 21
4.19
 31
0.0
  0
CIRCLE
  8
0
 62
     4
 10
17.8
 20
4.76
 30
0.0
 40
0.15
  0
LINE
  8
0
 62
     4
 10
17.16
 20
5.27
 30
0.0
 11
17.75
 21
5.27
 31
0.0
  0
LINE
  8
1
 62
     4
 10
18.41
 20
5.27
 30
0.0
 11
18.41
 21
4.88
 31
0.0
  0
LINE
  8
1
 62
     4
 10
17.75
 20
5.27
 30
0.0
 11
18.41
 21
5.27
 31
0.0
  0
LINE
  8
0
 10
24.96
 20
11.23
 30
0.0
 11
26.18
 21
10.71
 31
0.0
  0
SOLID
  8
0
 10
24.92
 20
11.13
 30
0.0
 11
25.0
 21
11.33
 31
0.0
 12
24.36
 22
11.49
 32
0.0
 13
24.36
 23
11.49
 33
0.0
  0
LINE
  8
0
 10
26.18
 20
10.71
 30
0.0
 11
26.59
 21
10.71
 31
0.0
  0
LINE
  8
0
 62
     3
 10
18.62
 20
16.35
 30
0.0
 11
27.73
 21
16.35
 31
0.0
  0
LINE
  8
1
  6
DASHED
 62
     3
 10
24.94
 20
19.98
 30
0.0
 11
24.94
 21
16.37
 31
0.0
  0
ARC
  8
0
 62
     6
 10
17.31
 20
15.74
 30
0.0
 40
0.15
 50
90.0
 51
180.0
  0
LINE
  8
0
  6
CONTINUOUS
 62
     5
 10
18.72
 20
19.56
 30
0.0
 11
18.72
 21
16.25
 31
0.0
  0
LINE
  8
0
 62
     6
 10
17.31
 20
15.89
 30
0.0
 11
18.84
 21
15.89
 31
0.0
  0
CIRCLE
  8
0
 62
     4
 10
18.03
 20
17.2
 30
0.0
 40
0.15
  0
LINE
  8
0
 62
     6
 10
18.84
 20
15.89
 30
0.0
 11
18.84
 21
16.19
 31
0.0
  0
CIRCLE
  8
0
 62
     4
 10
17.99
 20
19.15
 30
0.0
 40
0.15
  0
CIRCLE
  8
0
 62
     4
 10
24.25
 20
17.2
 30
0.0
 40
0.15
  0
CIRCLE
  8
0
 62
     4
 10
24.18
 20
19.15
 30
0.0
 40
0.15
  0
LINE
  8
0
 10
21.98
 20
22.01
 30
0.0
 11
22.74
 21
22.01
 31
0.0
  0
SOLID
  8
0
 10
20.15
 20
20.29
 30
0.0
 11
20.01
 21
20.46
 31
0.0
 12
19.59
 22
19.95
 32
0.0
 13
19.59
 23
19.95
 33
0.0
  0
LINE
  8
0
 10
20.08
 20
20.37
 30
0.0
 11
21.98
 21
22.01
 31
0.0
  0
TEXT
  8
0
 10
23.5
 20
20.93
 30
0.0
 40
0.7
  1
PURLIN
  0
TEXT
  8
0
 10
23.5
 20
21.83
 30
0.0
 40
0.7
  1
ROOF
  0
LINE
  8
0
 62
     3
 10
30.83
 20
20.38
 30
0.0
 11
31.28
 21
15.88
 31
0.0
  0
LINE
  8
0
 62
     3
 10
28.74
 20
16.35
 30
0.0
 11
31.23
 21
16.35
 31
0.0
  0
LINE
  8
0
 62
     1
 10
29.04
 20
17.8
 30
0.0
 11
29.59
 21
17.3
 31
0.0
  0
CIRCLE
  8
0
 62
     4
 10
28.98
 20
17.25
 30
0.0
 40
0.15
  0
LINE
  8
0
  6
DASHED
 62
     3
 10
27.73
 20
16.35
 30
0.0
 11
28.74
 21
16.35
 31
0.0
  0
ENDBLK
  8
0
999
C:\MBS\DXF\H2.DXF
  0
BLOCK
  8
0
 62
     7
  2
H2
 70
     0
 10
0.0
 20
0.0
 30
0.0
  3
H2
  1

  0
LINE
  5
8D
  8
0
  6
HIDDEN
 62
     3
 10
30.068151241471082
 20
11.789999999999999
 30
0.0
 11
0.8664308639465062
 21
11.789999999999999
 31
0.0
  0
TEXT
  5
8E
  8
0
 62
     7
 10
14.523167289096619
 20
5.0059113454482782
 30
0.0
 40
0.7
  1
PLATE
  0
TEXT
  5
8F
  8
0
 62
     7
 10
14.523167289096619
 20
6.1725780121149443
 30
0.0
 40
0.7
  1
WELDED
  0
LINE
  5
90
  8
0
 62
    10
 10
14.348151241471079
 20
21.190000000000001
 30
0.0
 11
23.748151241471081
 21
10.76
 31
0.0
  0
LINE
  5
91
  8
0
 62
    10
 10
14.258151241471079
 20
21.120000000000001
 30
0.0
 11
23.658151241471071
 21
10.68
 31
0.0
  0
LINE
  5
92
  8
0
 62
    10
 10
13.87815124147107
 20
20.82
 30
0.0
 11
23.298151241471079
 21
10.359999999999999
 31
0.0
  0
LINE
  5
93
  8
0
 62
     3
 10
1.246430863946506
 20
8.7899999999999991
 30
0.0
 11
30.298151241471071
 21
8.7899999999999991
 31
0.0
  0
LINE
  5
94
  8
0
 62
     3
 10
30.048151241471071
 20
12.09
 30
0.0
 11
15.30462871702488
 21
12.09
 31
0.0
  0
LINE
  5
95
  8
0
 62
     3
 10
30.318151241471082
 20
8.4900000000000002
 30
0.0
 11
1.2764308639465061
 21
8.4900000000000002
 31
0.0
  0
TEXT
  5
96
  8
0
 10
6.1081512414710799
 20
1.7199999999999991
 30
0.0
 40
0.7800000000000001
  1
WALL GIRT TO FRAME COLUMN
  0
LINE
  5
97
  8
0
 10
15.15815124147108
 20
21.870000000000001
 30
0.0
 11
17.67815124147107
 21
23.280000000000001
 31
0.0
  0
LINE
  5
98
  8
0
  6
HIDDEN
 62
     3
 10
5.818151241471079
 20
8.4600000000000009
 30
0.0
 11
5.818151241471079
 21
12.06
 31
0.0
  0
LINE
  5
99
  8
0
 62
     5
 10
12.06182012646938
 20
8.9671646325659164
 30
0.0
 11
12.06182012646938
 21
12.16425214101926
 31
0.0
  0
LINE
  5
9A
  8
0
 62
     5
 10
15.30462871702488
 20
12.16425214101926
 30
0.0
 11
15.30462871702488
 21
8.9671646325659164
 31
0.0
  0
LINE
  5
9B
  8
0
 62
    10
 10
13.53815124147107
 20
20.82
 30
0.0
 11
4.108151241471079
 21
10.359999999999999
 31
0.0
  0
LINE
  5
9C
  8
0
 62
    10
 10
13.15815124147108
 20
21.120000000000001
 30
0.0
 11
3.7581512414710789
 21
10.68
 31
0.0
  0
LINE
  5
9D
  8
0
 62
    10
 10
13.05815124147108
 20
21.199999999999999
 30
0.0
 11
3.6681512414710791
 21
10.76
 31
0.0
  0
LINE
  5
9E
  8
0
 62
     3
 10
1.3264308639465059
 20
8.0500000000000007
 30
0.0
 11
0.8664308639465062
 21
12.550000000000001
 31
0.0
  0
CIRCLE
  5
9F
  8
0
 62
     4
 10
6.4981512414710787
 20
11.22999999999999
 30
0.0
 40
0.15
  0
TEXT
  5
A0
  8
0
 10
4.7481512414710787
 20
6.339999999999999
 30
0.0
 40
0.7
  1
WALL GIRT
  0
TEXT
  5
A1
  8
0
 62
     7
 10
0.7566666666666664
 20
1.6100000000000001
 30
0.0
 40
1.6000000000000001
  1
H2
 72
     4
 11
2.089999999999999
 21
2.4100000000000001
 31
0.0
  0
CIRCLE
  5
A2
  8
0
 10
2.089999999999999
 20
2.4100000000000001
 30
0.0
 40
1.8
  0
CIRCLE
  5
A3
  8
0
 10
2.089999999999999
 20
2.4100000000000001
 30
0.0
 40
1.8300000000000001
  0
SOLID
  5
A4
  8
0
 10
3.2281512414710791
 20
7.839999999999999
 30
0.0
 11
3.4281512414710789
 21
7.919999999999999
 31
0.0
 12
3.0781512414710801
 22
8.4900000000000002
 32
0.0
 13
3.0781512414710801
 23
8.4900000000000002
 33
0.0
  0
LINE
  5
A5
  8
0
 10
3.3281512414710801
 20
7.879999999999999
 30
0.0
 11
3.838151241471079
 21
6.5800000000000001
 31
0.0
  0
LINE
  5
A6
  8
0
 10
3.838151241471079
 20
6.5800000000000001
 30
0.0
 11
4.318151241471079
 21
6.5800000000000001
 31
0.0
  0
LINE
  5
A7
  8
0
 62
    10
 10
4.108151241471079
 20
10.359999999999999
 30
0.0
 11
3.6681512414710791
 21
10.76
 31
0.0
  0
CIRCLE
  5
A8
  8
0
 62
     4
 10
4.1581512414710788
 20
10.800000000000001
 30
0.0
 40
0.12
  0
CIRCLE
  5
A9
  8
0
 62
     4
 10
6.5781512414710788
 20
9.2899999999999991
 30
0.0
 40
0.15
  0
LINE
  5
AA
  8
0
 62
     7
 10
12.71509019666021
 20
8.4887993088769456
 30
0.0
 11
13.761743275740329
 21
6.490327231256332
 31
0.0
  0
LINE
  5
AB
  8
0
 62
     7
 10
13.761743275740329
 20
6.490327231256332
 30
0.0
 11
14.30174327574033
 21
6.490327231256332
 31
0.0
  0
LINE
  5
AC
  8
0
 62
     5
 10
15.30462871702488
 20
8.9671646325659164
 30
0.0
 11
12.06182012646938
 21
8.9671646325659164
 31
0.0
  0
SOLID
  5
AD
  8
0
 62
     7
 10
12.63536264271205
 20
8.4470438644242396
 30
0.0
 11
12.794817750608379
 21
8.5305547533296497
 31
0.0
 12
12.464557529943979
 22
8.9671646325659164
 32
0.0
 13
12.464557529943979
 23
8.9671646325659164
 33
0.0
  0
CIRCLE
  5
AE
  8
0
 62
     4
 10
12.65354620352044
 20
9.2913613451624268
 30
0.0
 40
0.15
  0
CIRCLE
  5
AF
  8
0
 62
     4
 10
12.64753636131994
 20
11.46220396995297
 30
0.0
 40
0.15
  0
CIRCLE
  5
B0
  8
0
 62
     4
 10
14.761354310638451
 20
9.2913613451624268
 30
0.0
 40
0.15
  0
CIRCLE
  5
B1
  8
0
 62
     4
 10
14.755344468437951
 20
11.46220396995297
 30
0.0
 40
0.15
  0
LINE
  5
B2
  8
0
 62
     3
 10
12.06182012646938
 20
12.09
 30
0.0
 11
0.9164308639465058
 21
12.09
 31
0.0
  0
LINE
  5
B3
  8
0
 10
6.4581512414710804
 20
17.93
 30
0.0
 11
6.0381512414710796
 21
17.93
 31
0.0
  0
LINE
  5
B4
  8
0
 10
6.4581512414710804
 20
17.93
 30
0.0
 11
5.8681512414710797
 21
17.93
 31
0.0
  0
TEXT
  5
B5
  8
0
 10
1.7700774826254031
 20
18.57
 30
0.0
 40
0.7
  1
FLANGE
  0
TEXT
  5
B6
  8
0
 10
1.7700774826254031
 20
17.670000000000002
 30
0.0
 40
0.7
  1
BRACE
  0
TEXT
  5
B7
  8
0
 10
1.7700774826254031
 20
19.469999999999999
 30
0.0
 40
0.7
  1
COLUMN
  0
LINE
  5
B8
  8
0
 62
     6
 10
13.838151241471071
 20
12.699999999999999
 30
0.0
 11
13.838151241471071
 21
21.100000000000001
 31
0.0
  0
LINE
  5
B9
  8
0
 62
     6
 10
13.588151241471079
 20
21.100000000000001
 30
0.0
 11
13.588151241471079
 21
12.699999999999999
 31
0.0
  0
LINE
  5
BA
  8
0
 10
8.4281512414710811
 20
16.98
 30
0.0
 11
6.4581512414710804
 21
17.93
 31
0.0
  0
SOLID
  5
BB
  8
0
 10
8.47815124147108
 20
17.079999999999998
 30
0.0
 11
8.3781512414710804
 21
16.890000000000001
 31
0.0
 12
9.0181512414710792
 22
16.699999999999989
 32
0.0
 13
9.0181512414710792
 23
16.699999999999989
 33
0.0
  0
LINE
  5
BC
  8
0
  6
HIDDEN
 62
     3
 10
15.30462871702488
 20
12.09
 30
0.0
 11
12.06182012646938
 21
12.09
 31
0.0
  0
LINE
  5
BD
  8
0
 62
     5
 10
12.06182012646938
 20
12.16425214101926
 30
0.0
 11
15.30462871702488
 21
12.16425214101926
 31
0.0
  0
LINE
  5
BE
  8
0
 62
     6
 10
11.90815124147108
 20
12.25
 30
0.0
 11
15.508151241471079
 21
12.25
 31
0.0
  0
LINE
  5
BF
  8
0
 62
     6
 10
15.508151241471079
 20
12.550000000000001
 30
0.0
 11
13.98815124147108
 21
12.550000000000001
 31
0.0
  0
LINE
  5
C0
  8
0
 62
     6
 10
13.438151241471081
 20
12.550000000000001
 30
0.0
 11
11.90815124147108
 21
12.550000000000001
 31
0.0
  0
LINE
  5
C1
  8
0
 62
     6
 10
11.90815124147108
 20
12.550000000000001
 30
0.0
 11
11.90815124147108
 21
12.25
 31
0.0
  0
ARC
  5
C2
  8
0
 62
     6
 10
13.438151241471081
 20
12.699999999999999
 30
0.0
 40
0.15
 50
270.0
 51
0.0
  0
ARC
  5
C3
  8
0
 62
     6
 10
13.98815124147108
 20
12.699999999999999
 30
0.0
 40
0.15
 50
180.0
 51
270.0
  0
LINE
  5
C4
  8
0
 62
     6
 10
15.508151241471079
 20
12.25
 30
0.0
 11
15.508151241471079
 21
12.550000000000001
 31
0.0
  0
LINE
  5
C5
  8
0
  6
HIDDEN
 62
     4
 10
14.278151241471081
 20
20.379999999999988
 30
0.0
 11
14.79815124147108
 21
20.379999999999988
 31
0.0
  0
CIRCLE
  5
C6
  8
0
 62
     4
 10
14.318151241471069
 20
20.789999999999999
 30
0.0
 40
0.12
  0
LINE
  5
C7
  8
0
 62
    10
 10
14.348151241471079
 20
21.190000000000001
 30
0.0
 11
13.87815124147107
 21
20.82
 31
0.0
  0
LINE
  5
C8
  8
0
 62
     6
 10
15.508151241471079
 20
21.550000000000001
 30
0.0
 11
11.90815124147108
 21
21.550000000000001
 31
0.0
  0
LINE
  5
C9
  8
0
 62
     6
 10
13.98815124147108
 20
21.25
 30
0.0
 11
15.508151241471079
 21
21.25
 31
0.0
  0
LINE
  5
CA
  8
0
 62
     4
 10
12.618151241471081
 20
20.690000000000001
 30
0.0
 11
12.618151241471081
 21
21.25
 31
0.0
  0
LINE
  5
CB
  8
0
 62
    10
 10
13.05815124147108
 20
21.199999999999999
 30
0.0
 11
13.53815124147107
 21
20.82
 31
0.0
  0
LINE
  5
CC
  8
0
  6
HIDDEN
 62
     4
 10
13.13815124147108
 20
20.379999999999988
 30
0.0
 11
12.618151241471081
 21
20.379999999999988
 31
0.0
  0
CIRCLE
  5
CD
  8
0
 62
     4
 10
13.098151241471079
 20
20.789999999999999
 30
0.0
 40
0.12
  0
LINE
  5
CE
  8
0
  6
HIDDEN
 62
     4
 10
12.618151241471081
 20
20.379999999999988
 30
0.0
 11
12.618151241471081
 21
20.690000000000001
 31
0.0
  0
LINE
  5
CF
  8
0
 62
     4
 10
13.588151241471079
 20
20.379999999999988
 30
0.0
 11
13.13815124147108
 21
20.379999999999988
 31
0.0
  0
LINE
  5
D0
  8
0
 62
     4
 10
13.838151241471071
 20
20.379999999999988
 30
0.0
 11
14.278151241471081
 21
20.379999999999988
 31
0.0
  0
LINE
  5
D1
  8
0
 62
     6
 10
11.90815124147108
 20
21.25
 30
0.0
 11
13.438151241471081
 21
21.25
 31
0.0
  0
LINE
  5
D2
  8
0
 62
     6
 10
11.90815124147108
 20
21.550000000000001
 30
0.0
 11
11.90815124147108
 21
21.25
 31
0.0
  0
ARC
  5
D3
  8
0
 62
     6
 10
13.438151241471081
 20
21.100000000000001
 30
0.0
 40
0.15
 50
0.0
 51
90.0
  0
ARC
  5
D4
  8
0
 62
     6
 10
13.98815124147108
 20
21.100000000000001
 30
0.0
 40
0.15
 50
90.0
 51
180.0
  0
LINE
  5
D5
  8
0
 62
     4
 10
14.79815124147108
 20
20.690000000000001
 30
0.0
 11
14.79815124147108
 21
21.25
 31
0.0
  0
LINE
  5
D6
  8
0
  6
HIDDEN
 62
     4
 10
14.79815124147108
 20
20.379999999999988
 30
0.0
 11
14.79815124147108
 21
20.690000000000001
 31
0.0
  0
SOLID
  5
D7
  8
0
 10
15.21815124147108
 20
21.77
 30
0.0
 11
15.10815124147107
 21
21.960000000000001
 31
0.0
 12
14.598151241471079
 22
21.550000000000001
 32
0.0
 13
14.598151241471079
 23
21.550000000000001
 33
0.0
  0
LINE
  5
D8
  8
0
 10
14.47815124147108
 20
21.59
 30
0.0
 11
14.47815124147108
 21
21.59
 31
0.0
  0
LINE
  5
D9
  8
0
 62
     6
 10
15.508151241471079
 20
21.25
 30
0.0
 11
15.508151241471079
 21
21.550000000000001
 31
0.0
  0
LINE
  5
DA
  8
0
 62
     3
 10
30.358151241471081
 20
7.9900000000000002
 30
0.0
 11
30.008151241471069
 21
12.550000000000001
 31
0.0
  0
LINE
  5
DB
  8
0
 62
     3
 10
21.418151241471069
 20
8.4600000000000009
 30
0.0
 11
21.418151241471069
 21
12.06
 31
0.0
  0
TEXT
  5
DC
  8
0
 10
23.598151241471069
 20
6.339999999999999
 30
0.0
 40
0.7
  1
BOLTS, 0.5"
  0
TEXT
  5
DD
  8
0
 10
23.598151241471069
 20
5.4400000000000004
 30
0.0
 40
0.7
  1
x 1.0" (TYP)
  0
LINE
  5
DE
  8
0
 10
21.35815124147107
 20
8.6600000000000001
 30
0.0
 11
22.48815124147108
 21
6.5800000000000001
 31
0.0
  0
CIRCLE
  5
DF
  8
0
 62
     4
 10
21.03815124147107
 20
9.3800000000000008
 30
0.0
 40
0.15
  0
SOLID
  5
E0
  8
0
 10
21.258151241471069
 20
8.6099999999999994
 30
0.0
 11
21.44815124147107
 21
8.7100000000000009
 31
0.0
 12
21.048151241471079
 22
9.2300000000000004
 32
0.0
 13
21.048151241471079
 23
9.2300000000000004
 33
0.0
  0
CIRCLE
  5
E1
  8
0
 62
     4
 10
21.03815124147107
 20
11.22999999999999
 30
0.0
 40
0.15
  0
LINE
  5
E2
  8
0
 10
22.48815124147108
 20
6.5800000000000001
 30
0.0
 11
23.12815124147107
 21
6.5800000000000001
 31
0.0
  0
LINE
  5
E3
  8
0
 62
    10
 10
23.298151241471079
 20
10.359999999999999
 30
0.0
 11
23.748151241471081
 21
10.76
 31
0.0
  0
CIRCLE
  5
E4
  8
0
 62
     4
 10
23.258151241471079
 20
10.800000000000001
 30
0.0
 40
0.12
  0
TEXT
  5
E5
  8
0
 10
19.28815124147107
 20
22.98
 30
0.0
 40
0.7
  1
FRAME
  0
TEXT
  5
E6
  8
0
 10
19.28815124147107
 20
22.079999999999991
 30
0.0
 40
0.7
  1
COLUMN
  0
LINE
  5
E7
  8
0
 10
17.67815124147107
 20
23.280000000000001
 30
0.0
 11
18.53815124147107
 21
23.280000000000001
 31
0.0
  0
ENDBLK
  5
8C
999
C:\MBS\DXF\J16.DXF
  0
BLOCK
  8
0
  2
J16
 70
     0
 10
0.0
 20
0.0
 30
0.0
  3
J16
  1

  0
LINE
  5
D7
  8
0
 62
     3
 10
9.4203904968612324
 20
15.63239480268215
 30
0.0
 11
9.4813251685638047
 21
15.136121726861489
 31
0.0
  0
CIRCLE
  5
D8
  8
0
 10
2.4719999999999991
 20
2.7530000000000001
 30
0.0
 40
2.0
  0
CIRCLE
  5
D9
  8
0
 10
2.4719999999999991
 20
2.7530000000000001
 30
0.0
 40
1.929999999999999
  0
TEXT
  5
DA
  8
0
 10
1.013666666666666
 20
2.1280000000000001
 30
0.0
 40
1.25
  1
J16
 72
     1
 11
2.4719999999999991
 21
2.7530000000000001
 31
0.0
 73
     2
  0
LINE
  5
DB
  8
0
 62
     3
 10
14.0356036723997
 20
10.15846423700776
 30
0.0
 11
14.0356036723997
 21
15.695316813184521
 31
0.0
  0
LINE
  5
DC
  8
0
 62
     3
 10
9.4203904968612324
 20
15.63239480268215
 30
0.0
 11
24.16244255348462
 21
17.44249119126242
 31
0.0
  0
LINE
  5
DD
  8
0
 62
     3
 10
25.34287759111659
 20
18.294644886712639
 30
0.0
 11
19.062188105217299
 21
13.760627694101069
 31
0.0
  0
LINE
  5
DE
  8
0
 62
     3
 10
9.4813251685638065
 20
15.136121726861489
 30
0.0
 11
23.321608617930931
 21
16.83549485296377
 31
0.0
  0
LINE
  5
DF
  8
0
 62
     3
 10
14.5356036723997
 20
10.51677548247053
 30
0.0
 11
14.5356036723997
 21
15.756709093635971
 31
0.0
  0
LINE
  5
E0
  8
0
 62
     5
 10
13.079812087677279
 20
16.081715275869112
 30
0.0
 11
12.492335288047199
 21
20.86632985045425
 31
0.0
  0
LINE
  5
E1
  8
0
 62
     5
 10
12.492335288047199
 20
20.86632985045425
 30
0.0
 11
12.7259154022379
 21
20.89500988221079
 31
0.0
  0
LINE
  5
E2
  8
0
 62
     5
 10
12.7259154022379
 20
20.89500988221079
 30
0.0
 11
13.31339220186797
 21
16.110395307625669
 31
0.0
  0
LINE
  5
E3
  8
0
 62
     1
 10
13.47654424001535
 20
16.390825954111129
 30
0.0
 11
12.808776424615809
 21
21.82935837617681
 31
0.0
  0
LINE
  5
E4
  8
0
 62
     1
 10
12.739125456175399
 20
21.88377567669156
 30
0.0
 11
10.76097286727558
 21
21.64088907966455
 31
0.0
  0
LINE
  5
E5
  8
0
 62
     1
 10
10.706555566760819
 20
21.571238111224151
 30
0.0
 11
10.707601948341051
 21
21.147477316806508
 31
0.0
  0
LINE
  5
E6
  8
0
 62
     1
 10
15.57876509787034
 20
16.648946219063781
 30
0.0
 11
15.57953375538562
 21
17.06212185157856
 31
0.0
  0
LINE
  5
E7
  8
0
 62
     1
 10
13.54619520845576
 20
16.336408653596369
 30
0.0
 11
15.524347797355579
 21
16.579295250623371
 31
0.0
  0
ARC
  5
E8
  8
0
 62
     1
 10
13.53857837449293
 20
16.39844278807395
 30
0.0
 40
0.0625
 50
187.0
 51
277.0
  0
ARC
  5
E9
  8
0
 62
     1
 10
15.51673096339276
 20
16.64132938510096
 30
0.0
 40
0.0625
 50
277.0
 51
7.0
  0
ARC
  5
EA
  8
0
 62
     1
 10
12.74674229013822
 20
21.821741542213989
 30
0.0
 40
0.0625
 50
7.0
 51
96.999999999999972
  0
ARC
  5
EB
  8
0
 62
     1
 10
10.768589701238399
 20
21.578854945186968
 30
0.0
 40
0.0625
 50
96.999999999999972
 51
187.0
  0
LINE
  5
EC
  8
0
 62
     4
 10
12.30579739786115
 20
20.132682316970548
 30
0.0
 11
13.279047845345501
 21
20.252182445813482
 31
0.0
  0
LINE
  5
ED
  8
0
 62
     4
 10
12.437636279249769
 20
20.346298827161739
 30
0.0
 11
12.48062238361589
 21
19.996205101615001
 31
0.0
  0
LINE
  5
EE
  8
0
 62
     4
 10
13.099446631100269
 20
20.4275589206147
 30
0.0
 11
13.142432735466389
 21
20.077465195067969
 31
0.0
  0
LINE
  5
EF
  8
0
 62
     4
 10
12.66401496021933
 20
17.215234392540928
 30
0.0
 11
13.63726540770368
 21
17.334734521383851
 31
0.0
  0
LINE
  5
F0
  8
0
 62
     4
 10
12.795853841607959
 20
17.428850902732101
 30
0.0
 11
12.83883994597408
 21
17.07875717718537
 31
0.0
  0
LINE
  5
F1
  8
0
 62
     4
 10
13.45766419345845
 20
17.51011099618507
 30
0.0
 11
13.500650297824579
 21
17.160017270638331
 31
0.0
  0
LINE
  5
F2
  8
0
 62
     3
 10
17.385574338310182
 20
12.55912856014003
 30
0.0
 11
17.32643738462308
 21
13.040760397662851
 31
0.0
  0
LINE
  5
F3
  8
0
 62
     3
 10
17.32643738462308
 20
13.040760397662851
 30
0.0
 11
19.123484328423991
 21
13.261410017579349
 31
0.0
  0
LINE
  5
F4
  8
0
 62
     3
 10
19.123484328423991
 20
13.261410017579349
 30
0.0
 11
19.062188105217299
 21
13.760627694101069
 31
0.0
  0
LINE
  5
F5
  8
0
 62
     3
 10
17.385574338310182
 20
12.55912856014003
 30
0.0
 11
13.16801369704153
 21
9.5367297477645554
 31
0.0
  0
TEXT
  5
F6
  8
0
 10
5.7728216965109516
 20
2.321140763407711
 30
0.0
 40
0.875
  1
EAVE STRUT TO RIGID FRAME
  0
ENDBLK
  5
D6
999
C:\MBS\DXF\J24.DXF
  0
BLOCK
  8
0
  2
J24
 70
     0
 10
0.0
 20
0.0
 30
0.0
  3
J24
  1

  0
CIRCLE
  5
107
  8
0
 10
2.4719999999999991
 20
2.7530000000000001
 30
0.0
 40
2.0
  0
CIRCLE
  5
108
  8
0
 10
2.4719999999999991
 20
2.7530000000000001
 30
0.0
 40
1.929999999999999
  0
TEXT
  5
109
  8
0
 62
     7
 10
0.8053333333333334
 20
2.1280000000000001
 30
0.0
 40
1.25
  1
J24
 72
     1
 11
2.4719999999999991
 21
2.7530000000000001
 31
0.0
 73
     2
  0
TEXT
  5
10A
  8
0
 62
     7
 10
6.7663394788154534
 20
2.289291993342359
 30
0.0
 40
1.0
  1
EAVE STRUT TO RIGID FRAME
  0
TEXT
  5
10B
  8
0
 10
4.4535270393178052
 20
10.02669769650694
 30
0.0
 40
0.6666666666666666
  1
SECTION
  0
TEXT
  5
10C
  8
0
 10
22.436823875304128
 20
10.02669769650694
 30
0.0
 40
0.6666666666666666
  1
ELEVATION
  0
LINE
  5
10D
  8
0
 62
     6
 10
7.8554257941561971
 20
13.14053172269365
 30
0.0
 11
7.8554257941561971
 21
22.258483543040121
 31
0.0
  0
LINE
  5
10E
  8
0
 62
     6
 10
7.8554257941561971
 20
22.258483543040128
 30
0.0
 11
8.2802280684925549
 21
22.258483543040128
 31
0.0
  0
LINE
  5
10F
  8
0
 62
     6
 10
8.2802280684925549
 20
22.258483543040128
 30
0.0
 11
8.2802280684925549
 21
13.398231440794881
 31
0.0
  0
LINE
  5
110
  8
0
 62
     2
 10
12.88459125462543
 20
22.918597917585078
 30
0.0
 11
3.1811482875122219
 21
21.727164933621712
 31
0.0
  0
LINE
  5
111
  8
0
 62
     2
 10
3.1811482875122219
 20
21.727164933621712
 30
0.0
 11
3.1293779132618371
 21
22.148800796222741
 31
0.0
  0
LINE
  5
112
  8
0
 62
     2
 10
3.1293779132618371
 20
22.148800796222741
 30
0.0
 11
12.854858317088681
 21
23.342939637176421
 31
0.0
  0
LINE
  5
113
  8
0
 62
     6
 10
8.2802280684925549
 20
17.222461742494389
 30
0.0
 11
12.25834807942085
 21
17.222461742494389
 31
0.0
  0
LINE
  5
114
  8
0
 62
     6
 10
8.2802280684925549
 20
17.035646456669689
 30
0.0
 11
12.105689953914681
 21
17.035646456669699
 31
0.0
  0
LINE
  5
115
  8
0
 62
     6
 10
7.8554257941561971
 20
13.14053172269365
 30
0.0
 11
10.013841227786941
 21
14.44990100434581
 31
0.0
  0
LINE
  5
116
  8
0
 62
     6
 10
10.013841227786941
 20
14.44990100434581
 30
0.0
 11
11.53950618330072
 21
15.54668706529913
 31
0.0
  0
LINE
  5
117
  8
0
 62
     6
 10
11.53950618330072
 20
15.54668706529913
 30
0.0
 11
11.4197714511236
 21
16.196254116913881
 31
0.0
  0
LINE
  5
118
  8
0
 62
     6
 10
11.4197714511236
 20
16.196254116913881
 30
0.0
 11
12.25834807942085
 21
17.222461742494389
 31
0.0
  0
LINE
  5
119
  8
0
 62
     6
 10
12.25834807942085
 20
17.222461742494389
 30
0.0
 11
12.552664711266271
 21
18.35578344382909
 31
0.0
  0
LINE
  5
11A
  8
0
 62
     6
 10
12.552664711266271
 20
18.35578344382909
 30
0.0
 11
12.885761070521511
 21
19.378962529682209
 31
0.0
  0
LINE
  5
11B
  8
0
 62
     6
 10
12.885761070521511
 20
19.378962529682209
 30
0.0
 11
12.31126597866427
 21
20.275054727549879
 31
0.0
  0
LINE
  5
11C
  8
0
 62
     6
 10
12.31126597866427
 20
20.275054727549879
 30
0.0
 11
12.7948867108346
 21
21.8541981899665
 31
0.0
  0
LINE
  5
11D
  8
0
 62
     6
 10
12.7948867108346
 20
21.8541981899665
 30
0.0
 11
12.88998652351893
 21
22.841597867485849
 31
0.0
  0
LINE
  5
11E
  8
0
 62
     6
 10
12.88998652351893
 20
22.841597867485849
 30
0.0
 11
12.854858317088681
 21
23.342939637176421
 31
0.0
  0
LINE
  5
11F
  8
0
 62
     3
 10
3.0415730576320712
 20
22.23693449933215
 30
0.0
 11
6.6957506183699413
 21
22.685611086588601
 31
0.0
  0
LINE
  5
120
  8
0
 62
     3
 10
6.6957506183699413
 20
22.685611086588601
 30
0.0
 11
6.6957506183699413
 21
23.39330067639149
 31
0.0
  0
LINE
  5
121
  8
0
 62
     3
 10
3.0415730576320712
 20
22.23693449933215
 30
0.0
 11
3.0415730576320712
 21
28.323064633744998
 31
0.0
  0
LINE
  5
122
  8
0
 62
     3
 10
3.0415730576320712
 20
28.323064633744998
 30
0.0
 11
5.7119335632030577
 21
28.650943675874
 31
0.0
  0
LINE
  5
123
  8
0
 62
     3
 10
5.7119335632030577
 20
28.650943675874
 30
0.0
 11
5.7119335632030577
 21
28.037612810675508
 31
0.0
  0
LINE
  5
124
  8
0
  6
DASHED
 62
     2
 10
6.2492179834361492
 20
28.716913907492291
 30
0.0
 11
12.8117289830109
 21
29.52268893899555
 31
0.0
  0
LINE
  5
125
  8
0
 62
     4
 10
4.2776590828878787
 20
22.826253209280051
 30
0.0
 11
4.4470765489366917
 21
21.446458674828911
 31
0.0
  0
LINE
  5
126
  8
0
 62
     4
 10
4.186190046541526
 20
21.57010956203467
 30
0.0
 11
4.6702997502284136
 21
21.6295507594307
 31
0.0
  0
LINE
  5
127
  8
0
 62
     4
 10
4.054435881596155
 20
22.643161124678262
 30
0.0
 11
4.5385455852830461
 21
22.702602322074291
 31
0.0
  0
LINE
  5
128
  8
0
 62
     4
 10
5.8081702054521278
 20
23.03639487386361
 30
0.0
 11
5.9775876715009399
 21
21.656600339412471
 31
0.0
  0
LINE
  5
129
  8
0
 62
     4
 10
5.7167011691057743
 20
21.78025122661823
 30
0.0
 11
6.2008108727926627
 21
21.83969242401426
 31
0.0
  0
LINE
  5
12A
  8
0
 62
     4
 10
5.584947004160405
 20
22.853302789261821
 30
0.0
 11
6.0690567078472952
 21
22.912743986657851
 31
0.0
  0
LINE
  5
12B
  8
0
 62
     3
 10
19.368891039648791
 20
28.650943675874
 30
0.0
 11
32.482146311065833
 21
28.650943675874
 31
0.0
  0
LINE
  5
12C
  8
0
  6
DASHED
 62
     3
 10
19.368891039648791
 20
28.037612810675508
 30
0.0
 11
32.406838750094238
 21
28.037612810675508
 31
0.0
  0
LINE
  5
12D
  8
0
  6
DASHED
 62
     3
 10
19.368891039648791
 20
23.39330067639149
 30
0.0
 11
31.836588923990139
 21
23.39330067639149
 31
0.0
  0
LINE
  5
12E
  8
0
 62
     3
 10
19.368891039648791
 20
22.236934499332161
 30
0.0
 11
31.694605010696929
 21
22.23693449933215
 31
0.0
  0
LINE
  5
12F
  8
0
 62
     2
 10
23.80562161351634
 20
21.727164933621712
 30
0.0
 11
27.988215874831042
 21
21.727164933621719
 31
0.0
  0
LINE
  5
130
  8
0
 62
     2
 10
23.80562161351634
 20
22.148800796222741
 30
0.0
 11
27.988215874831042
 21
22.148800796222741
 31
0.0
  0
LINE
  5
131
  8
0
 62
     3
 10
19.368891039648791
 20
28.650943675874
 30
0.0
 11
19.368891039648791
 21
22.236934499332161
 31
0.0
  0
LINE
  5
132
  8
0
 62
     3
 10
32.584039945672167
 20
29.480800734913441
 30
0.0
 11
31.549028851611379
 21
21.051311828085499
 31
0.0
  0
LINE
  5
133
  8
0
 62
     2
 10
23.80562161351634
 20
22.148800796222741
 30
0.0
 11
23.80562161351634
 21
21.727164933621712
 31
0.0
  0
LINE
  5
134
  8
0
 62
     2
 10
27.988215874831042
 20
22.148800796222741
 30
0.0
 11
27.988215874831042
 21
21.727164933621712
 31
0.0
  0
LINE
  5
135
  8
0
 62
     4
 10
27.21626056503132
 20
22.677727538998059
 30
0.0
 11
27.21626056503132
 21
21.287570988424111
 31
0.0
  0
LINE
  5
136
  8
0
 62
     4
 10
26.97238792349907
 20
21.442094267417389
 30
0.0
 11
27.460133206563579
 21
21.442094267417389
 31
0.0
  0
LINE
  5
137
  8
0
 62
     4
 10
26.97238792349907
 20
22.523204260004778
 30
0.0
 11
27.460133206563579
 21
22.523204260004778
 31
0.0
  0
LINE
  5
138
  8
0
 62
     4
 10
24.577576923316059
 20
22.677727538998059
 30
0.0
 11
24.577576923316059
 21
21.287570988424111
 31
0.0
  0
LINE
  5
139
  8
0
 62
     4
 10
24.821449564848319
 20
21.442094267417389
 30
0.0
 11
24.333704281783799
 21
21.442094267417389
 31
0.0
  0
LINE
  5
13A
  8
0
 62
     4
 10
24.821449564848319
 20
22.523204260004778
 30
0.0
 11
24.333704281783799
 21
22.523204260004778
 31
0.0
  0
SOLID
  5
13B
  8
0
 10
4.8056815935873951
 20
28.914115092841499
 30
0.0
 11
4.4891731250488291
 21
28.660606052001111
 31
0.0
 12
4.7063538793397779
 22
29.003063296646431
 32
0.0
 13
4.7063538793397779
 23
29.003063296646431
 33
0.0
  0
POLYLINE
  5
13C
  8
0
 66
     1
 10
0.0
 20
0.0
 30
0.0
  0
VERTEX
  5
160
  8
0
 10
4.7560177364635861
 20
28.958589194743968
 30
0.0
  0
VERTEX
  5
161
  8
0
 10
8.0822741614168407
 20
32.672991887086873
 30
0.0
  0
VERTEX
  5
162
  8
0
 10
9.7103980805444721
 20
32.672991887086873
 30
0.0
  0
SEQEND
  5
163
  8
0
  0
TEXT
  5
13D
  8
0
 10
10.96673291693182
 20
32.485847240971097
 30
0.0
 40
0.55
  1
EAVE STRUT
  0
SOLID
  5
13E
  8
0
 10
22.44663596213001
 20
29.038802276053321
 30
0.0
 11
22.592964566842479
 21
28.660606052001111
 31
0.0
 12
22.33188738161105
 22
28.970901311062669
 32
0.0
 13
22.33188738161105
 23
28.970901311062669
 33
0.0
  0
POLYLINE
  5
13F
  8
0
 66
     1
 10
0.0
 20
0.0
 30
0.0
  0
VERTEX
  5
164
  8
0
 10
22.389261671870528
 20
29.004851793557989
 30
0.0
  0
VERTEX
  5
165
  8
0
 10
20.21868796241753
 20
32.672991887086873
 30
0.0
  0
VERTEX
  5
166
  8
0
 10
18.000000192374099
 20
32.672991887086873
 30
0.0
  0
SEQEND
  5
167
  8
0
  0
LINE
  5
140
  8
0
 10
19.368977736241391
 20
21.72762852153592
 30
0.0
 11
19.368977736241391
 21
18.75496284386287
 31
0.0
  0
SOLID
  5
141
  8
0
 10
18.968977736241388
 20
20.307962349366061
 30
0.0
 11
19.368977736241391
 21
20.241295682699391
 31
0.0
 12
18.968977736241388
 22
20.174629016032728
 32
0.0
 13
18.968977736241388
 23
20.174629016032728
 33
0.0
  0
POLYLINE
  5
142
  8
0
 66
     1
 10
0.0
 20
0.0
 30
0.0
  0
VERTEX
  5
168
  8
0
 10
18.968977736241388
 20
20.241295682699391
 30
0.0
  0
VERTEX
  5
169
  8
0
 10
18.115722573339809
 20
20.241295682699391
 30
0.0
  0
SEQEND
  5
16A
  8
0
  0
TEXT
  5
143
  8
0
 10
14.695335641631001
 20
19.970855109394321
 30
0.0
 40
0.55
  1
END OF
  0
TEXT
  5
144
  8
0
 10
14.695335641631001
 20
19.040639961750269
 30
0.0
 40
0.55
  1
BUILDING
  0
SOLID
  5
145
  8
0
 10
27.81468044328356
 20
20.921178525345379
 30
0.0
 11
27.487830202914239
 21
21.161206367094959
 31
0.0
 12
27.87485973031751
 22
21.04015848664082
 32
0.0
 13
27.87485973031751
 23
21.04015848664082
 33
0.0
  0
POLYLINE
  5
146
  8
0
 66
     1
 10
0.0
 20
0.0
 30
0.0
  0
VERTEX
  5
16B
  8
0
 10
27.844770086800541
 20
20.980668505993101
 30
0.0
  0
VERTEX
  5
16C
  8
0
 10
29.306577865426199
 20
20.241295682699391
 30
0.0
  0
VERTEX
  5
16D
  8
0
 10
29.706577865426201
 20
20.241295682699391
 30
0.0
  0
SEQEND
  5
16E
  8
0
  0
TEXT
  5
147
  8
0
 10
30.225845183117372
 20
19.887406919592891
 30
0.0
 40
0.55
  1
BOLTS,
  0
TEXT
  5
148
  8
0
 10
30.225845183117372
 20
18.957191771948839
 30
0.0
 40
0.55
  1
.5"x1.0"
  0
LINE
  5
149
  8
0
 62
     6
 10
23.80562161351634
 20
21.727164933621712
 30
0.0
 11
23.80562161351634
 21
13.43931973858661
 31
0.0
  0
LINE
  5
14A
  8
0
 62
     6
 10
27.988215874831042
 20
21.727164933621712
 30
0.0
 11
27.988215874831042
 21
13.13612141052325
 31
0.0
  0
LINE
  5
14B
  8
0
 62
     6
 10
23.80562161351634
 20
13.43931973858661
 30
0.0
 11
23.889931847286348
 21
13.3786967651304
 31
0.0
  0
LINE
  5
14C
  8
0
 62
     6
 10
23.889931847286348
 20
13.3786967651304
 30
0.0
 11
25.01154231181269
 21
13.116006767687161
 31
0.0
  0
LINE
  5
14D
  8
0
 62
     6
 10
25.01154231181269
 20
13.116006767687161
 30
0.0
 11
26.045555847639321
 21
12.818240695066949
 31
0.0
  0
LINE
  5
14E
  8
0
 62
     6
 10
26.045555847639321
 20
12.818240695066949
 30
0.0
 11
26.92139262862807
 21
13.42316694736108
 31
0.0
  0
LINE
  5
14F
  8
0
 62
     6
 10
26.92139262862807
 20
13.42316694736108
 30
0.0
 11
27.988215874831042
 21
13.13612141052325
 31
0.0
  0
LINE
  5
150
  8
0
  6
DASHED
 62
     2
 10
3.1293779132618371
 20
21.298396633855731
 30
0.0
 11
3.1293779132618371
 21
12.43250250883727
 31
0.0
  0
ENDBLK
  5
106
999
C:\MBS\DXF\K2.DXF
  0
BLOCK
  8
0
  2
K2
 70
    64
 10
0.0
 20
0.0
 30
0.0
  0
TEXT
  8
0
 10
1.222
 20
2.003
 30
0.0
 40
1.5
  1
K2
 72
     4
 11
2.472
 21
2.753
 31
0.0
  0
LINE
  8
0
 10
19.853
 20
22.23
 30
0.0
 11
20.483
 21
22.23
 31
0.0
  0
LINE
  8
0
 10
16.373
 20
17.69
 30
0.0
 11
19.853
 21
22.23
 31
0.0
  0
SOLID
  8
0
 10
16.456
 20
17.626
 30
0.0
 11
16.29
 21
17.754
 31
0.0
 12
15.99
 22
17.19
 32
0.0
 13
15.99
 23
17.19
 33
0.0
  0
LINE
  8
0
 10
9.052
 20
16.637
 30
0.0
 11
8.498
 21
16.637
 31
0.0
  0
LINE
  8
0
 10
14.322
 20
18.076
 30
0.0
 11
9.052
 21
16.637
 31
0.0
  0
SOLID
  8
0
 10
14.295
 20
18.177
 30
0.0
 11
14.35
 21
17.975
 31
0.0
 12
14.93
 22
18.242
 32
0.0
 13
14.93
 23
18.242
 33
0.0
  0
ARC
  8
0
 62
     6
 10
17.83
 20
18.703
 30
0.0
 40
0.1
 50
0.0
 51
90.0
  0
TEXT
  8
0
 10
6.518
 20
2.251
 30
0.0
 40
1.0
  1
WALL GIRT TO DOOR JAMB
  0
TEXT
  8
0
 10
1.718
 20
16.383
 30
0.0
 40
0.7
  1
DOOR JAMB
  0
LINE
  8
0
 10
13.757
 20
9.117
 30
0.0
 11
12.996
 21
9.117
 31
0.0
  0
LINE
  8
0
 10
16.721
 20
11.445
 30
0.0
 11
13.757
 21
9.117
 31
0.0
  0
SOLID
  8
0
 10
16.656
 20
11.527
 30
0.0
 11
16.786
 21
11.362
 31
0.0
 12
17.216
 22
11.834
 32
0.0
 13
17.216
 23
11.834
 33
0.0
  0
TEXT
  8
0
 10
1.718
 20
8.695
 30
0.0
 40
0.7
  1
CONNECTION PLATE
  0
TEXT
  8
0
 10
16.386
 20
7.343
 30
0.0
 40
0.7
  1
WALL GIRT
  0
LINE
  8
0
 10
23.72
 20
7.633
 30
0.0
 11
23.09
 21
7.633
 31
0.0
  0
LINE
  8
0
 10
27.97
 20
10.446
 30
0.0
 11
23.72
 21
7.633
 31
0.0
  0
SOLID
  8
0
 10
27.912
 20
10.533
 30
0.0
 11
28.028
 21
10.358
 31
0.0
 12
28.496
 22
10.793
 32
0.0
 13
28.496
 23
10.793
 33
0.0
  0
LINE
  8
0
 62
     5
 10
18.449
 20
17.862
 30
0.0
 11
15.23
 21
17.862
 31
0.0
  0
TEXT
  8
0
 10
21.298
 20
20.692
 30
0.0
 40
0.7
  1
BY 1.0"
  0
LINE
  8
0
 62
     5
 10
18.449
 20
11.834
 30
0.0
 11
15.23
 21
11.834
 31
0.0
  0
LINE
  8
0
 62
     6
 10
17.93
 20
18.053
 30
0.0
 11
17.93
 21
18.703
 31
0.0
  0
LINE
  8
0
 62
     6
 10
17.83
 20
18.803
 30
0.0
 11
15.03
 21
18.803
 31
0.0
  0
LINE
  8
0
 62
     6
 10
14.93
 20
18.703
 30
0.0
 11
14.93
 21
10.903
 31
0.0
  0
LINE
  8
0
 62
     6
 10
15.03
 20
10.803
 30
0.0
 11
17.83
 21
10.803
 31
0.0
  0
LINE
  8
0
 62
     6
 10
17.93
 20
10.903
 30
0.0
 11
17.93
 21
11.553
 31
0.0
  0
ARC
  8
0
 62
     6
 10
15.03
 20
18.703
 30
0.0
 40
0.1
 50
90.0
 51
180.0
  0
ARC
  8
0
 62
     6
 10
15.03
 20
10.903
 30
0.0
 40
0.1
 50
180.0
 51
270.0
  0
ARC
  8
0
 62
     6
 10
17.83
 20
10.903
 30
0.0
 40
0.1
 50
270.0
 51
0.0
  0
LINE
  8
0
 10
23.72
 20
7.633
 30
0.0
 11
23.1
 21
7.633
 31
0.0
  0
LINE
  8
0
 10
19.853
 20
22.23
 30
0.0
 11
20.413
 21
22.23
 31
0.0
  0
TEXT
  8
0
 10
20.893
 20
21.79
 30
0.0
 40
0.7
  1
BOLT, 0.5"
  0
LINE
  8
0
 62
     4
 10
15.63
 20
12.908
 30
0.0
 11
15.63
 21
12.298
 31
0.0
  0
LINE
  8
0
 62
     4
 10
14.646
 20
12.908
 30
0.0
 11
14.646
 21
12.298
 31
0.0
  0
LINE
  8
0
 62
     4
 10
15.72
 20
17.49
 30
0.0
 11
15.72
 21
16.88
 31
0.0
  0
LINE
  8
0
 62
     4
 10
14.646
 20
17.49
 30
0.0
 11
14.646
 21
16.88
 31
0.0
  0
LINE
  8
0
 62
     4
 10
14.371
 20
12.568
 30
0.0
 11
15.97
 21
12.568
 31
0.0
  0
LINE
  8
0
 62
     4
 10
14.296
 20
17.19
 30
0.0
 11
15.99
 21
17.19
 31
0.0
  0
LINE
  8
0
 62
     3
 10
31.179
 20
18.616
 30
0.0
 11
30.569
 21
10.253
 31
0.0
  0
LINE
  8
0
 62
     3
 10
20.339
 20
18.821
 30
0.0
 11
31.119
 21
18.821
 31
0.0
  0
CIRCLE
  8
0
 62
     4
 10
19.339
 20
17.129
 30
0.0
 40
0.25
  0
LINE
  8
1
  6
CONTINUOUS
 62
     3
 10
18.449
 20
18.821
 30
0.0
 11
20.339
 21
18.821
 31
0.0
  0
LINE
  8
1
  6
CONTINUOUS
 62
     3
 10
18.459
 20
18.341
 30
0.0
 11
31.079
 21
18.341
 31
0.0
  0
LINE
  8
1
  6
CONTINUOUS
 62
     3
 10
18.449
 20
18.821
 30
0.0
 11
18.449
 21
11.293
 31
0.0
  0
LINE
  8
0
 62
     3
 10
18.449
 20
11.293
 30
0.0
 11
18.449
 21
10.793
 31
0.0
  0
LINE
  8
0
 62
     3
 10
18.449
 20
10.793
 30
0.0
 11
30.609
 21
10.793
 31
0.0
  0
CIRCLE
  8
0
 62
     4
 10
19.339
 20
12.584
 30
0.0
 40
0.25
  0
LINE
  8
0
  6
HIDDEN
 62
     3
 10
18.449
 20
11.293
 30
0.0
 11
30.649
 21
11.293
 31
0.0
  0
LINE
  8
0
  6
HIDDEN
 62
     5
 10
20.358
 20
11.834
 30
0.0
 11
20.351
 21
17.862
 31
0.0
  0
LINE
  8
1
  6
HIDDEN
 62
     5
 10
18.449
 20
11.834
 30
0.0
 11
20.358
 21
11.834
 31
0.0
  0
LINE
  8
0
 62
     5
 10
15.23
 20
17.862
 30
0.0
 11
15.23
 21
11.834
 31
0.0
  0
LINE
  8
0
 62
     5
 10
15.43
 20
17.862
 30
0.0
 11
15.43
 21
11.833
 31
0.0
  0
LINE
  8
0
  6
HIDDEN
 62
     5
 10
20.351
 20
17.862
 30
0.0
 11
18.449
 21
17.862
 31
0.0
  0
CIRCLE
  8
0
 10
2.472
 20
2.753
 30
0.0
 40
1.93
  0
CIRCLE
  8
0
 10
2.472
 20
2.753
 30
0.0
 40
2.0
  0
ENDBLK
  8
0
999
C:\MBS\DXF\L6.DXF
  0
BLOCK
  8
0
 62
     4
  2
L6
 70
    64
 10
0.0
 20
0.0
 30
0.0
  0
LINE
  8
0
 62
     4
 10
23.28
 20
12.07
 30
0.0
 11
23.28
 21
12.52
 31
0.0
  0
LINE
  8
0
 62
     4
 10
24.88
 20
16.89
 30
0.0
 11
25.33
 21
16.89
 31
0.0
  0
CIRCLE
  8
0
 62
     4
 10
11.31
 20
12.46
 30
0.0
 40
0.21
  0
CIRCLE
  8
0
 62
     4
 10
7.82
 20
12.46
 30
0.0
 40
0.21
  0
LINE
  8
0
 62
     4
 10
11.08
 20
16.81
 30
0.0
 11
11.54
 21
16.81
 31
0.0
  0
LINE
  8
0
 62
     4
 10
7.52
 20
16.83
 30
0.0
 11
7.97
 21
16.83
 31
0.0
  0
TEXT
  8
0
 62
     7
 10
14.08
 20
5.23
 30
0.0
 40
0.75
  1
BOLT, 0.5" x 1.5"
 72
     1
 11
19.14
 21
5.23
 31
0.0
  0
TEXT
  8
0
 62
     7
 10
1.06
 20
1.53
 30
0.0
 40
1.6
  1
L6
 72
     4
 11
2.39
 21
2.33
 31
0.0
  0
LINE
  8
0
 62
     7
 10
15.35
 20
24.91
 30
0.0
 11
15.49
 21
24.91
 31
0.0
  0
LINE
  8
0
 62
     7
 10
16.18
 20
18.77
 30
0.0
 11
15.55
 21
18.77
 31
0.0
  0
LINE
  8
0
 62
     7
 10
23.91
 20
16.66
 30
0.0
 11
16.18
 21
18.77
 31
0.0
  0
SOLID
  8
0
 62
     7
 10
23.94
 20
16.76
 30
0.0
 11
23.89
 21
16.56
 31
0.0
 12
24.52
 22
16.5
 32
0.0
 13
24.52
 23
16.5
 33
0.0
  0
LINE
  8
0
 62
     7
 10
10.94
 20
19.77
 30
0.0
 11
11.66
 21
19.77
 31
0.0
  0
LINE
  8
0
 62
     7
 10
8.37
 20
17.1
 30
0.0
 11
10.94
 21
19.77
 31
0.0
  0
SOLID
  8
0
 62
     7
 10
8.45
 20
17.01
 30
0.0
 11
8.28
 21
17.18
 31
0.0
 12
7.87
 22
16.58
 32
0.0
 13
7.87
 23
16.58
 33
0.0
  0
TEXT
  8
0
 62
     7
 10
11.91
 20
18.36
 30
0.0
 40
0.7
  1
PLATE
  0
TEXT
  8
0
 62
     7
 10
11.91
 20
19.53
 30
0.0
 40
0.7
  1
CONNECTION
  0
LINE
  8
0
 62
     4
 10
24.31
 20
12.29
 30
0.0
 11
23.02
 21
12.29
 31
0.0
  0
LINE
  8
0
 62
     4
 10
24.09
 20
12.07
 30
0.0
 11
24.09
 21
12.52
 31
0.0
  0
LINE
  8
0
 62
     4
 10
24.88
 20
16.05
 30
0.0
 11
25.33
 21
16.05
 31
0.0
  0
LINE
  8
0
 62
     4
 10
25.16
 20
15.83
 30
0.0
 11
25.16
 21
17.08
 31
0.0
  0
LINE
  8
0
 62
     5
 10
23.69
 20
13.36
 30
0.0
 11
23.69
 21
16.44
 31
0.0
  0
LINE
  8
0
 62
     5
 10
23.98
 20
13.36
 30
0.0
 11
23.98
 21
16.19
 31
0.0
  0
LINE
  8
1
  6
CONTINUOUS
 62
     3
 10
23.98
 20
13.74
 30
0.0
 11
26.45
 21
13.74
 31
0.0
  0
LINE
  8
0
 62
     5
 10
23.69
 20
11.45
 30
0.0
 11
23.98
 21
11.45
 31
0.0
  0
LINE
  8
0
 62
     5
 10
26.45
 20
16.44
 30
0.0
 11
26.45
 21
16.19
 31
0.0
  0
LINE
  8
0
  6
HIDDEN
 62
     5
 10
23.98
 20
11.45
 30
0.0
 11
23.98
 21
13.36
 31
0.0
  0
LINE
  8
0
  6
HIDDEN
 62
     5
 10
23.69
 20
11.45
 30
0.0
 11
23.69
 21
13.36
 31
0.0
  0
LINE
  8
0
 62
    12
 10
13.5
 20
13.36
 30
0.0
 11
12.1
 21
13.36
 31
0.0
  0
LINE
  8
0
 62
     4
 10
11.06
 20
16.19
 30
0.0
 11
11.51
 21
16.19
 31
0.0
  0
LINE
  8
0
 62
     4
 10
11.34
 20
15.98
 30
0.0
 11
11.34
 21
17.0
 31
0.0
  0
LINE
  8
0
 62
     4
 10
7.54
 20
16.19
 30
0.0
 11
7.99
 21
16.19
 31
0.0
  0
LINE
  8
0
 62
     4
 10
7.75
 20
15.98
 30
0.0
 11
7.75
 21
17.0
 31
0.0
  0
LINE
  8
0
 62
    12
 10
23.45
 20
13.36
 30
0.0
 11
26.45
 21
13.36
 31
0.0
  0
LINE
  8
0
  6
HIDDEN
 62
    12
 10
6.99
 20
13.36
 30
0.0
 11
12.1
 21
13.36
 31
0.0
  0
LINE
  8
0
 62
     5
 10
12.1
 20
16.32
 30
0.0
 11
12.1
 21
11.44
 31
0.0
  0
LINE
  8
0
 62
     5
 10
6.99
 20
11.44
 30
0.0
 11
12.1
 21
11.44
 31
0.0
  0
LINE
  8
0
 62
     5
 10
6.99
 20
16.6
 30
0.0
 11
6.99
 21
11.44
 31
0.0
  0
LINE
  8
0
 62
     5
 10
12.1
 20
16.32
 30
0.0
 11
6.94
 21
16.32
 31
0.0
  0
LINE
  8
0
 62
     5
 10
12.1
 20
16.6
 30
0.0
 11
12.1
 21
16.32
 31
0.0
  0
LINE
  8
0
 62
     5
 10
6.99
 20
16.6
 30
0.0
 11
12.1
 21
16.6
 31
0.0
  0
LINE
  8
0
 62
    12
 10
5.51
 20
13.36
 30
0.0
 11
6.99
 21
13.36
 31
0.0
  0
LINE
  8
0
 10
20.99
 20
22.05
 30
0.0
 11
20.26
 21
22.05
 31
0.0
  0
LINE
  8
0
 10
11.99
 20
22.05
 30
0.0
 11
13.05
 21
22.05
 31
0.0
  0
TEXT
  8
0
 10
13.86
 20
21.75
 30
0.0
 40
0.7
  1
WALL GIRT
  0
TEXT
  8
0
 10
16.39
 20
10.41
 30
0.0
 40
0.7
  1
JAMB
  0
TEXT
  8
0
 10
16.39
 20
11.58
 30
0.0
 40
0.7
  1
DOOR
  0
LINE
  8
0
 62
     3
 10
26.45
 20
13.74
 30
0.0
 11
31.62
 21
13.74
 31
0.0
  0
LINE
  8
1
  6
CONTINUOUS
 62
     3
 10
23.45
 20
13.74
 30
0.0
 11
23.69
 21
13.74
 31
0.0
  0
LINE
  8
0
 62
    12
 10
22.78
 20
10.14
 30
0.0
 11
27.16
 21
10.55
 31
0.0
  0
LINE
  8
0
 62
     3
 10
30.77
 20
20.41
 30
0.0
 11
31.7
 21
13.12
 31
0.0
  0
LINE
  8
0
 62
     3
 10
19.33
 20
20.51
 30
0.0
 11
20.09
 21
13.22
 31
0.0
  0
LINE
  8
0
 62
    12
 10
26.45
 20
13.36
 30
0.0
 11
26.45
 21
10.48
 31
0.0
  0
LINE
  8
0
 62
    12
 10
23.45
 20
13.36
 30
0.0
 11
23.45
 21
10.2
 31
0.0
  0
LINE
  8
0
 62
     5
 10
26.45
 20
16.19
 30
0.0
 11
23.98
 21
16.19
 31
0.0
  0
LINE
  8
0
 62
     5
 10
26.45
 20
16.44
 30
0.0
 11
23.69
 21
16.44
 31
0.0
  0
LINE
  8
0
 62
     3
 10
20.04
 20
13.74
 30
0.0
 11
23.45
 21
13.74
 31
0.0
  0
LINE
  8
0
 62
     3
 10
19.73
 20
16.71
 30
0.0
 11
31.24
 21
16.71
 31
0.0
  0
LINE
  8
0
 62
     3
 10
19.41
 20
19.8
 30
0.0
 11
30.85
 21
19.8
 31
0.0
  0
ARC
  8
0
 62
     3
 10
5.63
 20
19.57
 30
0.0
 40
0.13
 50
90.0
 51
180.0
  0
ARC
  8
0
 62
     3
 10
5.63
 20
16.82
 30
0.0
 40
0.13
 50
180.0
 51
270.0
  0
ARC
  8
0
 62
     3
 10
13.38
 20
16.57
 30
0.0
 40
0.13
 50
0.0
 51
90.0
  0
ARC
  8
0
 62
     3
 10
13.38
 20
13.82
 30
0.0
 40
0.13
 50
270.0
 51
0.0
  0
LINE
  8
0
 62
     3
 10
5.63
 20
19.7
 30
0.0
 11
6.26
 21
19.7
 31
0.0
  0
LINE
  8
0
 62
     3
 10
5.51
 20
16.82
 30
0.0
 11
5.51
 21
19.57
 31
0.0
  0
LINE
  8
0
 62
     3
 10
13.38
 20
13.7
 30
0.0
 11
12.76
 21
13.7
 31
0.0
  0
LINE
  8
0
 62
     3
 10
13.51
 20
16.57
 30
0.0
 11
13.51
 21
13.82
 31
0.0
  0
LINE
  8
0
 62
     3
 10
5.63
 20
16.7
 30
0.0
 11
13.38
 21
16.7
 31
0.0
  0
TEXT
  8
0
 10
8.14
 20
1.49
 30
0.0
 40
1.0
  1
DOOR JAMB TO WALL GIRT
  0
LINE
  8
0
 62
    12
 10
4.78
 20
10.86
 30
0.0
 11
13.28
 21
10.34
 31
0.0
  0
LINE
  8
0
 62
    12
 10
5.51
 20
13.36
 30
0.0
 11
5.51
 21
10.82
 31
0.0
  0
LINE
  8
0
 62
    12
 10
6.26
 20
13.36
 30
0.0
 11
6.26
 21
10.78
 31
0.0
  0
LINE
  8
0
 62
    12
 10
12.75
 20
13.36
 30
0.0
 11
12.75
 21
10.43
 31
0.0
  0
LINE
  8
0
 62
    12
 10
13.5
 20
13.36
 30
0.0
 11
13.5
 21
10.39
 31
0.0
  0
TEXT
  8
0
 10
21.86
 20
7.67
 30
0.0
 40
0.7
  1
ELEVATION
  0
TEXT
  8
0
 10
7.64
 20
7.77
 30
0.0
 40
0.7
  1
SECTION
  0
CIRCLE
  8
0
 10
2.39
 20
2.33
 30
0.0
 40
1.93
  0
CIRCLE
  8
0
 10
2.39
 20
2.33
 30
0.0
 40
2.0
  0
SOLID
  8
0
 10
22.8
 20
10.85
 30
0.0
 11
22.8
 21
10.64
 31
0.0
 12
23.45
 22
10.75
 32
0.0
 13
23.45
 23
10.75
 33
0.0
  0
LINE
  8
0
 10
22.8
 20
10.75
 30
0.0
 11
19.28
 21
10.75
 31
0.0
  0
SOLID
  8
0
 10
14.15
 20
11.92
 30
0.0
 11
14.15
 21
12.14
 31
0.0
 12
13.5
 22
12.03
 32
0.0
 13
13.5
 23
12.03
 33
0.0
  0
LINE
  8
0
 10
13.5
 20
12.03
 30
0.0
 11
15.88
 21
12.03
 31
0.0
  0
SOLID
  8
0
 10
6.13
 20
18.94
 30
0.0
 11
6.03
 21
19.13
 31
0.0
 12
5.51
 22
18.74
 32
0.0
 13
5.51
 23
18.74
 33
0.0
  0
LINE
  8
0
 10
6.08
 20
19.04
 30
0.0
 11
11.99
 21
22.05
 31
0.0
  0
SOLID
  8
0
 10
22.55
 20
20.36
 30
0.0
 11
22.38
 21
20.22
 31
0.0
 12
22.88
 22
19.8
 32
0.0
 13
22.88
 23
19.8
 33
0.0
  0
LINE
  8
0
 10
22.47
 20
20.29
 30
0.0
 11
20.99
 21
22.05
 31
0.0
  0
ENDBLK
  8
0
999
C:\MBS\DXF\M1.DXF
  0
BLOCK
  8
0
 62
     7
  2
M1
 70
     0
 10
0.0
 20
0.0
 30
0.0
  3
M1
  1

  0
LINE
  5
90
  8
0
 10
28.282
 20
23.49218080441408
 30
0.0
 11
24.712
 21
25.032180804414089
 31
0.0
  0
SOLID
  5
91
  8
0
 10
28.321999999999999
 20
23.592180804414081
 30
0.0
 11
28.242000000000001
 21
23.392180804414082
 31
0.0
 12
28.882000000000001
 22
23.232180804414082
 32
0.0
 13
28.882000000000001
 23
23.232180804414082
 33
0.0
  0
LINE
  5
92
  8
0
 10
12.782
 20
21.932180804414081
 30
0.0
 11
15.452
 21
25.032180804414089
 31
0.0
  0
SOLID
  5
93
  8
0
 10
12.862
 20
21.862180804414081
 30
0.0
 11
12.702
 21
22.002180804414081
 31
0.0
 12
12.352
 22
21.442180804414079
 32
0.0
 13
12.352
 23
21.442180804414079
 33
0.0
  0
LINE
  5
94
  8
0
 10
9.9719999999999995
 20
13.14218080441408
 30
0.0
 11
12.762
 21
11.682180804414079
 31
0.0
  0
SOLID
  5
95
  8
0
 10
9.9219999999999988
 20
13.04218080441408
 30
0.0
 11
10.022
 21
13.23218080441408
 31
0.0
 12
9.4019999999999992
 22
13.442180804414081
 32
0.0
 13
9.4019999999999992
 23
13.442180804414081
 33
0.0
  0
CIRCLE
  5
96
  8
0
 10
2.4719999999999991
 20
2.7530000000000001
 30
0.0
 40
2.0
  0
CIRCLE
  5
97
  8
0
 10
2.4719999999999991
 20
2.7530000000000001
 30
0.0
 40
1.929999999999999
  0
TEXT
  5
98
  8
0
 10
7.7119999999999989
 20
9.4921808044140832
 30
0.0
 40
0.7
  1
SECTION
  0
TEXT
  5
99
  8
0
 10
21.931999999999999
 20
9.3921808044140818
 30
0.0
 40
0.7
  1
ELEVATION
  0
LINE
  5
9A
  8
0
 62
     5
 10
10.862
 20
20.230473874770588
 30
0.0
 11
10.862
 21
14.707895085425299
 31
0.0
  0
LINE
  5
9B
  8
0
 62
    14
 10
10.9924077626337
 20
13.442180804414081
 30
0.0
 11
5.032
 21
13.442180804414081
 31
0.0
  0
LINE
  5
9C
  8
0
  6
CONTINUOUS
 62
    14
 10
10.9924077626337
 20
14.192180804414081
 30
0.0
 11
5.0719999999999992
 21
14.192180804414081
 31
0.0
  0
LINE
  5
9D
  8
0
  6
CONTINUOUS
 62
    14
 10
10.9924077626337
 20
20.692180804414079
 30
0.0
 11
5.4219999999999997
 21
20.692180804414079
 31
0.0
  0
LINE
  5
9E
  8
0
 62
    14
 10
10.9924077626337
 20
21.442180804414079
 30
0.0
 11
5.4619999999999989
 21
21.442180804414079
 31
0.0
  0
LINE
  5
9F
  8
0
 62
    14
 10
5.501999999999998
 20
22.17218080441409
 30
0.0
 11
4.9919999999999991
 21
12.66218080441408
 31
0.0
  0
LINE
  5
A0
  8
0
 62
     5
 10
11.112
 20
20.230473874770588
 30
0.0
 11
11.112
 21
14.707895085425299
 31
0.0
  0
LINE
  5
A1
  8
0
 62
    12
 10
11.342000000000001
 20
21.322180804414081
 30
0.0
 11
11.342000000000001
 21
13.57218080441408
 31
0.0
  0
LINE
  5
A2
  8
0
 62
    12
 10
11.472
 20
13.442180804414081
 30
0.0
 11
14.222
 21
13.442180804414081
 31
0.0
  0
LINE
  5
A3
  8
0
 62
    12
 10
14.342000000000001
 20
13.57218080441408
 30
0.0
 11
14.342000000000001
 21
14.192180804414081
 31
0.0
  0
LINE
  5
A4
  8
0
 62
    12
 10
11.472
 20
21.442180804414079
 30
0.0
 11
14.222
 21
21.442180804414079
 31
0.0
  0
LINE
  5
A5
  8
0
 62
    12
 10
14.342000000000001
 20
21.322180804414081
 30
0.0
 11
14.342000000000001
 21
20.692180804414079
 31
0.0
  0
ARC
  5
A6
  8
0
 62
    12
 10
14.222
 20
13.57218080441408
 30
0.0
 40
0.13
 50
270.0
 51
0.0
  0
ARC
  5
A7
  8
0
 62
    12
 10
11.472
 20
13.57218080441408
 30
0.0
 40
0.13
 50
180.0
 51
270.0
  0
ARC
  5
A8
  8
0
 62
    12
 10
11.472
 20
21.322180804414081
 30
0.0
 40
0.13
 50
90.0
 51
180.0
  0
ARC
  5
A9
  8
0
 62
    12
 10
14.222
 20
21.322180804414081
 30
0.0
 40
0.13
 50
0.0
 51
90.0
  0
LINE
  5
AA
  8
0
 62
     4
 10
11.842000000000001
 20
19.432180804414081
 30
0.0
 11
10.292
 21
19.432180804414081
 31
0.0
  0
LINE
  5
AB
  8
0
 62
     4
 10
11.612
 20
19.672180804414079
 30
0.0
 11
11.612
 21
19.192180804414079
 31
0.0
  0
LINE
  5
AC
  8
0
 62
     4
 10
10.582000000000001
 20
19.672180804414079
 30
0.0
 11
10.582000000000001
 21
19.192180804414079
 31
0.0
  0
LINE
  5
AD
  8
0
 62
    12
 10
30.431999999999999
 20
23.522180804414081
 30
0.0
 11
30.431999999999999
 21
14.32218080441408
 31
0.0
  0
LINE
  5
AE
  8
0
 62
    12
 10
27.382000000000001
 20
22.962180804414078
 30
0.0
 11
27.382000000000001
 21
13.90218080441408
 31
0.0
  0
LINE
  5
AF
  8
0
  6
HIDDEN
 62
     5
 10
27.015365293807172
 20
16.841962436200429
 30
0.0
 11
24.606924833959859
 21
16.841962436200429
 31
0.0
  0
LINE
  5
B0
  8
0
 62
    14
 10
27.071999999999999
 20
19.482180804414082
 30
0.0
 11
24.372
 21
19.482180804414082
 31
0.0
  0
LINE
  5
B1
  8
0
 62
    14
 10
27.071999999999999
 20
16.482180804414082
 30
0.0
 11
24.372
 21
16.482180804414082
 31
0.0
  0
LINE
  5
B2
  8
0
  6
HIDDEN
 62
     5
 10
27.271522434642002
 20
16.591962436200429
 30
0.0
 11
24.606924833959859
 21
16.591962436200429
 31
0.0
  0
LINE
  5
B3
  8
0
  6
HIDDEN
 62
     4
 10
27.842063675381059
 20
17.982180804414082
 30
0.0
 11
27.536793055011529
 21
17.982180804414082
 31
0.0
  0
LINE
  5
B4
  8
0
  6
HIDDEN
 62
     4
 10
27.637015918845261
 20
18.20218080441408
 30
0.0
 11
27.637015918845261
 21
17.692180804414079
 31
0.0
  0
LINE
  5
B5
  8
0
  6
HIDDEN
 62
     4
 10
26.81679305501153
 20
18.20218080441408
 30
0.0
 11
26.81679305501153
 21
17.672180804414079
 31
0.0
  0
LINE
  5
B6
  8
0
 62
    14
 10
24.372
 20
19.482180804414082
 30
0.0
 11
20.832000000000001
 21
19.482180804414082
 31
0.0
  0
LINE
  5
B7
  8
0
 62
    14
 10
24.372
 20
16.482180804414082
 30
0.0
 11
21.111999999999998
 21
16.482180804414082
 31
0.0
  0
LINE
  5
B8
  8
0
  6
HIDDEN
 62
     4
 10
27.536793055011529
 20
17.982180804414082
 30
0.0
 11
26.536793055011529
 21
17.982180804414082
 31
0.0
  0
LINE
  5
B9
  8
0
 62
    12
 10
31.152000000000001
 20
23.602180804414079
 30
0.0
 11
26.521999999999998
 21
22.842180804414081
 31
0.0
  0
LINE
  5
BA
  8
0
 62
    14
 10
20.771999999999998
 20
20.15218080441409
 30
0.0
 11
21.181999999999999
 21
15.772180804414081
 31
0.0
  0
LINE
  5
BB
  8
0
 62
     4
 10
11.842000000000001
 20
15.442180804414081
 30
0.0
 11
10.292
 21
15.442180804414081
 31
0.0
  0
LINE
  5
BC
  8
0
 62
     4
 10
10.582000000000001
 20
15.682180804414079
 30
0.0
 11
10.582000000000001
 21
15.21218080441408
 31
0.0
  0
LINE
  5
BD
  8
0
 62
     4
 10
11.612
 20
15.682180804414079
 30
0.0
 11
11.612
 21
15.21218080441408
 31
0.0
  0
LINE
  5
BE
  8
0
 62
    12
 10
26.902000000000001
 20
13.832180804414079
 30
0.0
 11
31.361999999999998
 21
14.45218080441408
 31
0.0
  0
TEXT
  5
BF
  8
0
 10
17.141999999999999
 20
24.72218080441408
 30
0.0
 40
0.7
  1
DOOR JAMB
  0
LINE
  5
C0
  8
0
 10
15.452
 20
25.032180804414089
 30
0.0
 11
16.462
 21
25.032180804414089
 31
0.0
  0
LINE
  5
C1
  8
0
 10
24.712
 20
25.032180804414089
 30
0.0
 11
23.952000000000002
 21
25.032180804414089
 31
0.0
  0
TEXT
  5
C2
  8
0
 10
14.022
 20
11.37218080441408
 30
0.0
 40
0.7
  1
DOOR HEADER
  0
LINE
  5
C3
  8
0
 10
12.762
 20
11.682180804414079
 30
0.0
 11
13.442
 21
11.682180804414079
 31
0.0
  0
LINE
  5
C4
  8
0
 10
23.192
 20
11.682180804414079
 30
0.0
 11
22.192
 21
11.682180804414079
 31
0.0
  0
TEXT
  5
C5
  8
0
 10
6.7219118358063952
 20
2.3206671652034809
 30
0.0
 40
1.0
  1
DOOR HEADER TO DOOR JAMB
  0
LINE
  5
C6
  8
0
  6
HIDDEN
 62
     5
 10
24.606924833959859
 20
16.591962436200429
 30
0.0
 11
24.606924833959859
 21
16.841962436200429
 31
0.0
  0
LINE
  5
C7
  8
0
 62
     5
 10
27.271522434642002
 20
16.591962436200429
 30
0.0
 11
27.271522434642002
 21
18.963809018785629
 31
0.0
  0
LINE
  5
C8
  8
0
  6
HIDDEN
 62
     5
 10
27.015365293807172
 20
16.841962436200429
 30
0.0
 11
27.015365293807172
 21
18.963809018785629
 31
0.0
  0
LINE
  5
C9
  8
0
 62
     5
 10
27.015365293807172
 20
18.963809018785629
 30
0.0
 11
27.271522434642002
 21
18.963809018785629
 31
0.0
  0
LINE
  5
CA
  8
0
  6
HIDDEN
 62
     4
 10
25.759364571145721
 20
16.249477514414831
 30
0.0
 11
25.759364571145721
 21
17.249477514414831
 31
0.0
  0
LINE
  5
CB
  8
0
  6
HIDDEN
 62
     4
 10
25.97936457114573
 20
16.96947751441483
 30
0.0
 11
25.449364571145729
 21
16.96947751441483
 31
0.0
  0
LINE
  5
CC
  8
0
  6
HIDDEN
 62
     4
 10
25.759364571145721
 20
15.94563465524965
 30
0.0
 11
25.759364571145721
 21
16.249477514414831
 31
0.0
  0
LINE
  5
CD
  8
0
  6
HIDDEN
 62
     4
 10
25.97936457114573
 20
16.213931593880709
 30
0.0
 11
25.469364571145721
 21
16.213931593880709
 31
0.0
  0
LINE
  5
CE
  8
0
 62
    14
 10
27.071999999999999
 20
19.482180804414082
 30
0.0
 11
27.071999999999999
 21
16.482180804414082
 31
0.0
  0
LINE
  5
CF
  8
0
 62
     5
 10
11.112
 20
20.230473874770588
 30
0.0
 11
8.340454727555155
 21
20.230473874770588
 31
0.0
  0
LINE
  5
D0
  8
0
 62
     5
 10
8.340454727555155
 20
20.230473874770588
 30
0.0
 11
8.340454727555155
 21
14.707895085425299
 31
0.0
  0
LINE
  5
D1
  8
0
 62
     5
 10
8.340454727555155
 20
14.707895085425299
 30
0.0
 11
11.112
 21
14.707895085425299
 31
0.0
  0
LINE
  5
D2
  8
0
 62
    14
 10
10.9924077626337
 20
13.442180804414081
 30
0.0
 11
10.9924077626337
 21
14.707895085425299
 31
0.0
  0
LINE
  5
D3
  8
0
  6
HIDDEN
 62
    14
 10
10.9924077626337
 20
14.707895085425299
 30
0.0
 11
10.9924077626337
 21
20.230473874770588
 31
0.0
  0
LINE
  5
D4
  8
0
 62
    14
 10
10.9924077626337
 20
20.230473874770588
 30
0.0
 11
10.9924077626337
 21
21.442180804414079
 31
0.0
  0
CIRCLE
  5
D5
  8
0
 62
     4
 10
9.3454053513743922
 20
15.423784928488571
 30
0.0
 40
0.30706824616699
  0
CIRCLE
  5
D6
  8
0
 62
     4
 10
9.3454053513743922
 20
19.412314054126838
 30
0.0
 40
0.30706824616699
  0
SOLID
  5
D7
  8
0
 62
     7
 10
22.166059156796841
 20
15.93544316784463
 30
0.0
 11
22.341871802375628
 21
15.97404256751075
 31
0.0
 12
22.138167280587901
 22
16.482180804414082
 32
0.0
 13
22.138167280587901
 23
16.482180804414082
 33
0.0
  0
LINE
  5
D8
  8
0
 62
     7
 10
22.253965479586238
 20
15.954742867677689
 30
0.0
 11
23.192
 21
11.682180804414079
 31
0.0
  0
TEXT
  5
D9
  8
0
 62
     7
 10
17.193657226554851
 20
21.616829729692181
 30
0.0
 40
0.7
  1
CONNECTION
  0
TEXT
  5
DA
  8
0
 62
     7
 10
17.193657226554851
 20
20.450163063025521
 30
0.0
 40
0.7
  1
PLATE
  0
SOLID
  5
DB
  8
0
 62
     7
 10
11.58448166988939
 20
17.868019182693018
 30
0.0
 11
11.469261270922249
 21
18.006309672828291
 31
0.0
 12
11.112
 22
17.591503230859249
 32
0.0
 13
11.112
 23
17.591503230859249
 33
0.0
  0
LINE
  5
DC
  8
0
 62
     7
 10
11.52687147040581
 20
17.93716442776066
 30
0.0
 11
16.294667840168259
 21
21.909580747789128
 31
0.0
  0
LINE
  5
DD
  8
0
 62
     7
 10
16.294667840168259
 20
21.909580747789128
 30
0.0
 11
16.774128846241108
 21
21.909580747789128
 31
0.0
  0
SOLID
  5
DE
  8
0
 62
     7
 10
24.68866095686489
 20
17.3023354083222
 30
0.0
 11
24.55536364798073
 21
17.181373317383581
 31
0.0
 12
24.98489857523867
 22
16.841962436200429
 32
0.0
 13
24.98489857523867
 23
16.841962436200429
 33
0.0
  0
LINE
  5
DF
  8
0
 62
     7
 10
24.62201230242281
 20
17.241854362852891
 30
0.0
 11
21.448873655451401
 21
20.738576675401369
 31
0.0
  0
LINE
  5
E0
  8
0
 62
     7
 10
21.448873655451401
 20
20.738576675401369
 30
0.0
 11
20.909480023619441
 21
20.738576675401369
 31
0.0
  0
TEXT
  5
E1
  8
0
 62
     7
 10
10.24147263849852
 20
7.7111563700875081
 30
0.0
 40
0.7
  1
BOLTS, 0.50" BY 1.0" (TYP)
  0
TEXT
  5
E2
  8
0
 62
     7
 10
1.338666666666666
 20
1.903
 30
0.0
 40
1.7
  1
M1
 72
     4
 11
2.4719999999999991
 21
2.7530000000000001
 31
0.0
  0
TEXT
  5
E3
  8
0
 10
11.317550729872931
 20
29.132491787401609
 30
0.0
 40
1.25
  1
CL110 CLIPS
  0
ENDBLK
  5
8F
  0
ENDSEC
  0
SECTION
  2
ENTITIES
  0
LINE
  8
22
 10
 0.0000000
 20
 0.0000000
 11
420.0000000
 21
 0.0000000
  0
LINE
  8
22
 10
420.0000000
 20
 0.0000000
 11
420.0000000
 21
297.0000000
  0
LINE
  8
22
 10
420.0000000
 20
297.0000000
 11
 0.0000000
 21
297.0000000
  0
LINE
  8
22
 10
 0.0000000
 20
297.0000000
 11
 0.0000000
 21
 0.0000000
  0
LINE
  8
0
 10
259.9800110
 20
 0.0000000
 11
259.9800110
 21
26.6700001
  0
LINE
  8
0
 10
259.9800110
 20
26.6700001
 11
420.0000000
 21
26.6700001
  0
LINE
  8
0
 10
259.9800110
 20
10.1599998
 11
420.0000000
 21
10.1599998
  0
LINE
  8
0
 10
259.9800110
 20
15.2399998
 11
420.0000000
 21
15.2399998
  0
LINE
  8
0
 10
259.9800110
 20
20.3199997
 11
420.0000000
 21
20.3199997
  0
LINE
  8
0
 10
282.8399963
 20
 0.0000000
 11
282.8399963
 21
20.3199997
  0
LINE
  8
0
 10
339.9899902
 20
 0.0000000
 11
339.9899902
 21
20.3199997
  0
LINE
  8
0
 10
339.9899902
 20
 5.0799999
 11
420.0000000
 21
 5.0799999
  0
LINE
  8
0
 10
367.9299927
 20
15.2399998
 11
367.9299927
 21
10.1599998
  0
LINE
  8
0
 10
393.3299866
 20
15.2399998
 11
393.3299866
 21
10.1599998
  0
LINE
  8
0
 10
375.5499878
 20
10.1599998
 11
375.5499878
 21
 5.0799999
  0
TEXT
  8
1
  7
SIMPLEX
 10
262.5199890
 20
16.5100002
 40
 2.5400000
  1
PROJECT
 50
 0.0000000
  0
TEXT
  8
1
  7
SIMPLEX
 10
262.5199890
 20
11.4300003
 40
 2.5400000
  1
ID
 50
 0.0000000
  0
TEXT
  8
1
  7
SIMPLEX
 10
262.5199890
 20
 6.3499999
 40
 2.5400000
  1
PROJECT
 50
 0.0000000
  0
TEXT
  8
1
  7
SIMPLEX
 10
262.5199890
 20
 1.2700000
 40
 2.5400000
  1
ADDRESS
 50
 0.0000000
  0
TEXT
  8
1
  7
SIMPLEX
 10
285.3800049
 20
16.5100002
 40
 2.5400000
  1
Proposed Warehouse
 50
 0.0000000
  0
TEXT
  8
1
  7
SIMPLEX
 10
285.3800049
 20
11.4300003
 40
 2.5400000
  1
111
 50
 0.0000000
  0
TEXT
  8
1
  7
SIMPLEX
 10
285.3800049
 20
 6.3499999
 40
 2.5400000
  1
Proposed Warehouse
 50
 0.0000000
  0
TEXT
  8
1
  7
SIMPLEX
 10
285.3800049
 20
 1.2700000
 40
 2.5400000
  1
 
 50
 0.0000000
  0
TEXT
  8
1
  7
SIMPLEX
 10
294.9049988
 20
21.5900002
 40
 3.8099999
  1
Sivoko Steel Structures Ltd.
 50
 0.0000000
  0
TEXT
  8
1
  7
SIMPLEX
 10
342.5299988
 20
16.5100002
 40
 2.5400000
  1
STRUCTURAL DETAILS
 50
 0.0000000
  0
TEXT
  8
1
  7
SIMPLEX
 10
342.5299988
 20
11.4300003
 40
 2.5400000
  1
DESIGN:
 50
 0.0000000
  0
TEXT
  8
1
  7
SIMPLEX
 10
342.5299988
 20
 6.3499999
 40
 2.5400000
  1
DATE:
 50
 0.0000000
  0
TEXT
  8
1
  7
SIMPLEX
 10
353.9599915
 20
 6.3499999
 40
 2.5400000
  1
19/JAN/202610:58am
 50
 0.0000000
  0
TEXT
  8
1
  7
SIMPLEX
 10
370.4700012
 20
11.4300003
 40
 2.5400000
  1
DRAFT:
 50
 0.0000000
  0
TEXT
  8
1
  7
SIMPLEX
 10
395.8699951
 20
11.4300003
 40
 2.5400000
  1
CHECK:
 50
 0.0000000
  0
TEXT
  8
1
  7
SIMPLEX
 10
378.0899963
 20
 6.3499999
 40
 2.5400000
  1
SHEET
 50
 0.0000000
  0
TEXT
  8
1
  7
SIMPLEX
 10
403.4899902
 20
 6.3499999
 40
 2.5400000
  1
OF
 50
 0.0000000
  0
TEXT
  8
1
  7
SIMPLEX
 10
392.0599976
 20
 6.3499999
 40
 2.5400000
  1
 
 50
 0.0000000
999
FIELD:@PAGE_ID
  0
TEXT
  8
1
  7
SIMPLEX
 10
409.8399963
 20
 6.3499999
 40
 2.5400000
  1
 
 50
 0.0000000
999
FIELD:@PAGE_TOTAL
  0
INSERT
  8
0
  2
A10
 10
 5.0000000
 20
217.0000000
 41
 2.0833001
 42
 2.0833001
 43
 2.0833001
 50
 0.0000000
  0
LINE
  8
24
 10
 5.0000000
 20
217.0000000
 11
80.0000000
 21
217.0000000
  0
LINE
  8
24
 10
80.0000000
 20
217.0000000
 11
80.0000000
 21
292.0000000
  0
LINE
  8
24
 10
80.0000000
 20
292.0000000
 11
 5.0000000
 21
292.0000000
  0
LINE
  8
24
 10
 5.0000000
 20
292.0000000
 11
 5.0000000
 21
217.0000000
  0
INSERT
  8
0
  2
B19
 10
80.0000000
 20
217.0000000
 41
 2.0833001
 42
 2.0833001
 43
 2.0833001
 50
 0.0000000
  0
LINE
  8
24
 10
80.0000000
 20
217.0000000
 11
155.0000000
 21
217.0000000
  0
LINE
  8
24
 10
155.0000000
 20
217.0000000
 11
155.0000000
 21
292.0000000
  0
LINE
  8
24
 10
155.0000000
 20
292.0000000
 11
80.0000000
 21
292.0000000
  0
LINE
  8
24
 10
80.0000000
 20
292.0000000
 11
80.0000000
 21
217.0000000
  0
INSERT
  8
0
  2
C12
 10
155.0000000
 20
217.0000000
 41
 2.0833001
 42
 2.0833001
 43
 2.0833001
 50
 0.0000000
  0
LINE
  8
24
 10
155.0000000
 20
217.0000000
 11
230.0000000
 21
217.0000000
  0
LINE
  8
24
 10
230.0000000
 20
217.0000000
 11
230.0000000
 21
292.0000000
  0
LINE
  8
24
 10
230.0000000
 20
292.0000000
 11
155.0000000
 21
292.0000000
  0
LINE
  8
24
 10
155.0000000
 20
292.0000000
 11
155.0000000
 21
217.0000000
  0
INSERT
  8
0
  2
D27
 10
305.0000000
 20
217.0000000
 41
 2.0833001
 42
 2.0833001
 43
 2.0833001
 50
 0.0000000
  0
LINE
  8
24
 10
305.0000000
 20
217.0000000
 11
380.0000000
 21
217.0000000
  0
LINE
  8
24
 10
380.0000000
 20
217.0000000
 11
380.0000000
 21
292.0000000
  0
LINE
  8
24
 10
380.0000000
 20
292.0000000
 11
305.0000000
 21
292.0000000
  0
LINE
  8
24
 10
305.0000000
 20
292.0000000
 11
305.0000000
 21
217.0000000
  0
INSERT
  8
0
  2
E3
 10
80.0000000
 20
142.0000000
 41
 2.0833001
 42
 2.0833001
 43
 2.0833001
 50
 0.0000000
  0
LINE
  8
24
 10
80.0000000
 20
142.0000000
 11
155.0000000
 21
142.0000000
  0
LINE
  8
24
 10
155.0000000
 20
142.0000000
 11
155.0000000
 21
217.0000000
  0
LINE
  8
24
 10
155.0000000
 20
217.0000000
 11
80.0000000
 21
217.0000000
  0
LINE
  8
24
 10
80.0000000
 20
217.0000000
 11
80.0000000
 21
142.0000000
  0
INSERT
  8
0
  2
E6
 10
155.0000000
 20
142.0000000
 41
 2.0833001
 42
 2.0833001
 43
 2.0833001
 50
 0.0000000
  0
LINE
  8
24
 10
155.0000000
 20
142.0000000
 11
230.0000000
 21
142.0000000
  0
LINE
  8
24
 10
230.0000000
 20
142.0000000
 11
230.0000000
 21
217.0000000
  0
LINE
  8
24
 10
230.0000000
 20
217.0000000
 11
155.0000000
 21
217.0000000
  0
LINE
  8
24
 10
155.0000000
 20
217.0000000
 11
155.0000000
 21
142.0000000
  0
INSERT
  8
0
  2
G2
 10
230.0000000
 20
142.0000000
 41
 2.0833001
 42
 2.0833001
 43
 2.0833001
 50
 0.0000000
  0
LINE
  8
24
 10
230.0000000
 20
142.0000000
 11
305.0000000
 21
142.0000000
  0
LINE
  8
24
 10
305.0000000
 20
142.0000000
 11
305.0000000
 21
217.0000000
  0
LINE
  8
24
 10
305.0000000
 20
217.0000000
 11
230.0000000
 21
217.0000000
  0
LINE
  8
24
 10
230.0000000
 20
217.0000000
 11
230.0000000
 21
142.0000000
  0
INSERT
  8
0
  2
H2
 10
305.0000000
 20
142.0000000
 41
 2.0833001
 42
 2.0833001
 43
 2.0833001
 50
 0.0000000
  0
LINE
  8
24
 10
305.0000000
 20
142.0000000
 11
380.0000000
 21
142.0000000
  0
LINE
  8
24
 10
380.0000000
 20
142.0000000
 11
380.0000000
 21
217.0000000
  0
LINE
  8
24
 10
380.0000000
 20
217.0000000
 11
305.0000000
 21
217.0000000
  0
LINE
  8
24
 10
305.0000000
 20
217.0000000
 11
305.0000000
 21
142.0000000
  0
INSERT
  8
0
  2
J16
 10
 5.0000000
 20
67.0000000
 41
 2.0833001
 42
 2.0833001
 43
 2.0833001
 50
 0.0000000
  0
LINE
  8
24
 10
 5.0000000
 20
67.0000000
 11
80.0000000
 21
67.0000000
  0
LINE
  8
24
 10
80.0000000
 20
67.0000000
 11
80.0000000
 21
142.0000000
  0
LINE
  8
24
 10
80.0000000
 20
142.0000000
 11
 5.0000000
 21
142.0000000
  0
LINE
  8
24
 10
 5.0000000
 20
142.0000000
 11
 5.0000000
 21
67.0000000
  0
INSERT
  8
0
  2
J24
 10
80.0000000
 20
67.0000000
 41
 2.0833001
 42
 2.0833001
 43
 2.0833001
 50
 0.0000000
  0
LINE
  8
24
 10
80.0000000
 20
67.0000000
 11
155.0000000
 21
67.0000000
  0
LINE
  8
24
 10
155.0000000
 20
67.0000000
 11
155.0000000
 21
142.0000000
  0
LINE
  8
24
 10
155.0000000
 20
142.0000000
 11
80.0000000
 21
142.0000000
  0
LINE
  8
24
 10
80.0000000
 20
142.0000000
 11
80.0000000
 21
67.0000000
  0
INSERT
  8
0
  2
K2
 10
155.0000000
 20
67.0000000
 41
 2.0833001
 42
 2.0833001
 43
 2.0833001
 50
 0.0000000
  0
LINE
  8
24
 10
155.0000000
 20
67.0000000
 11
230.0000000
 21
67.0000000
  0
LINE
  8
24
 10
230.0000000
 20
67.0000000
 11
230.0000000
 21
142.0000000
  0
LINE
  8
24
 10
230.0000000
 20
142.0000000
 11
155.0000000
 21
142.0000000
  0
LINE
  8
24
 10
155.0000000
 20
142.0000000
 11
155.0000000
 21
67.0000000
  0
INSERT
  8
0
  2
L6
 10
230.0000000
 20
67.0000000
 41
 2.0833001
 42
 2.0833001
 43
 2.0833001
 50
 0.0000000
  0
LINE
  8
24
 10
230.0000000
 20
67.0000000
 11
305.0000000
 21
67.0000000
  0
LINE
  8
24
 10
305.0000000
 20
67.0000000
 11
305.0000000
 21
142.0000000
  0
LINE
  8
24
 10
305.0000000
 20
142.0000000
 11
230.0000000
 21
142.0000000
  0
LINE
  8
24
 10
230.0000000
 20
142.0000000
 11
230.0000000
 21
67.0000000
  0
INSERT
  8
0
  2
M1
 10
305.0000000
 20
67.0000000
 41
 2.0833001
 42
 2.0833001
 43
 2.0833001
 50
 0.0000000
  0
LINE
  8
24
 10
305.0000000
 20
67.0000000
 11
380.0000000
 21
67.0000000
  0
LINE
  8
24
 10
380.0000000
 20
67.0000000
 11
380.0000000
 21
142.0000000
  0
LINE
  8
24
 10
380.0000000
 20
142.0000000
 11
305.0000000
 21
142.0000000
  0
LINE
  8
24
 10
305.0000000
 20
142.0000000
 11
305.0000000
 21
67.0000000
  0
ENDSEC
  0
EOF
