999
SOURCE:MBS   PROGRAM:ASM_DXF   CELL:ASM_DWG   CLASS:SHOP   MODE:---
  0
SECTION
  2
HEADER
  9
$EXTMIN
 10
   0.000
 20
   0.000
  9
$EXTMAX
 10
 841.000
 20
 594.000
  9
$LIMMIN
 10
   0.000
 20
   0.000
  9
$LIMMAX
 10
 841.000
 20
 594.000
  9
$HANDLING
 70
     0
999
BORDER_EXTENTS: 0.000      0.000      841.000    594.000
  0
ENDSEC
  0
SECTION
  2
TABLES
  0
TABLE
  2
LTYPE
 70
     3
  0
LTYPE
  2
CONTIN
 70
    64
  3
SOLID LINE
 72
    65
 73
     0
 40
0.0
  0
LTYPE
  2
CENTER
 70
    64
  3
____ _ ____ _ ____ _ ____ _ ____ _ ____ _ ____
 72
    65
 73
     4
 40
2.0
 49
1.25
 49
-0.25
 49
0.25
 49
-0.25
  0
LTYPE
  2
DASHED
 70
    64
  3
__ __ __ __ __ __ __ __ __ __ __ __ __ __ __ 
 72
    65
 73
     2
 40
2.3812
 49
1.5875
 49
-0.7937
  0
ENDTAB
  0
TABLE
  2
LAYER
 70
    50
  0
LAYER
  2
0
 70
     0
 62
     7
  6
CONTIN
  0
LAYER
  2
1
 70
     0
 62
     7
  6
CONTIN
  0
LAYER
  2
2
 70
     0
 62
     7
  6
CONTIN
  0
LAYER
  2
3
 70
     0
 62
     1
  6
CONTIN
  0
LAYER
  2
4
 70
     0
 62
     1
  6
CONTIN
  0
LAYER
  2
5
 70
     0
 62
     7
  6
CONTIN
  0
LAYER
  2
6
 70
     0
 62
     4
  6
CONTIN
  0
LAYER
  2
7
 70
     0
 62
     3
  6
DASHED
  0
LAYER
  2
8
 70
     0
 62
     3
  6
DASHED
  0
LAYER
  2
9
 70
     0
 62
     7
  6
CONTIN
  0
LAYER
  2
10
 70
     0
 62
     7
  6
CONTIN
  0
LAYER
  2
11
 70
     0
 62
     7
  6
CONTIN
  0
LAYER
  2
12
 70
     0
 62
     2
  6
CONTIN
  0
LAYER
  2
13
 70
     0
 62
     2
  6
CONTIN
  0
LAYER
  2
14
 70
     0
 62
     7
  6
CONTIN
  0
LAYER
  2
15
 70
     0
 62
     6
  6
CONTIN
  0
LAYER
  2
16
 70
     0
 62
     7
  6
CONTIN
  0
LAYER
  2
17
 70
     0
 62
     7
  6
CONTIN
  0
LAYER
  2
18
 70
     0
 62
     4
  6
CONTIN
  0
LAYER
  2
19
 70
     0
 62
     7
  6
CONTIN
  0
LAYER
  2
20
 70
     0
 62
     7
  6
CONTIN
  0
LAYER
  2
21
 70
     0
 62
     7
  6
CONTIN
  0
LAYER
  2
22
 70
     0
 62
     7
  6
CONTIN
  0
LAYER
  2
23
 70
     0
 62
     7
  6
CONTIN
  0
LAYER
  2
24
 70
     0
 62
     7
  6
CONTIN
  0
LAYER
  2
25
 70
     0
 62
     7
  6
CONTIN
  0
LAYER
  2
26
 70
     0
 62
     7
  6
CONTIN
  0
LAYER
  2
27
 70
     0
 62
     7
  6
CONTIN
  0
LAYER
  2
28
 70
     0
 62
     7
  6
CONTIN
  0
LAYER
  2
29
 70
     0
 62
     7
  6
CONTIN
  0
LAYER
  2
30
 70
     0
 62
     7
  6
CONTIN
  0
LAYER
  2
31
 70
     0
 62
     7
  6
CONTIN
  0
LAYER
  2
32
 70
     0
 62
     7
  6
CONTIN
  0
LAYER
  2
33
 70
     0
 62
     7
  6
CONTIN
  0
LAYER
  2
34
 70
     0
 62
     7
  6
CONTIN
  0
LAYER
  2
35
 70
     0
 62
     7
  6
CONTIN
  0
LAYER
  2
36
 70
     0
 62
     7
  6
CONTIN
  0
LAYER
  2
37
 70
     0
 62
     7
  6
CONTIN
  0
LAYER
  2
38
 70
     0
 62
     7
  6
CONTIN
  0
LAYER
  2
39
 70
     0
 62
     7
  6
CONTIN
  0
LAYER
  2
40
 70
     0
 62
     7
  6
CONTIN
  0
LAYER
  2
41
 70
     0
 62
     7
  6
CONTIN
  0
LAYER
  2
42
 70
     0
 62
     7
  6
CONTIN
  0
LAYER
  2
43
 70
     0
 62
     7
  6
CONTIN
  0
LAYER
  2
44
 70
     0
 62
     7
  6
CONTIN
  0
LAYER
  2
45
 70
     0
 62
     7
  6
CONTIN
  0
LAYER
  2
46
 70
     0
 62
     7
  6
CONTIN
  0
LAYER
  2
47
 70
     0
 62
     7
  6
CONTIN
  0
LAYER
  2
48
 70
     0
 62
     7
  6
CONTIN
  0
LAYER
  2
49
 70
     0
 62
     7
  6
CONTIN
  0
ENDTAB
  0
TABLE
  2
STYLE
 70
  0
  0
STYLE
  2
SIMPLEX
 70
  0
 40
  0.000
 41
  1.000
 42
  1.000
 50
  0.000
 71
  0
  3
SIMPLEX
  0
STYLE
  2
ROMANS
 70
  0
 40
  0.000
 41
  1.000
 42
  1.000
 50
  0.000
 71
  0
  3
ROMANS
  0
STYLE
  2
OPEN
 70
  0
 40
  0.000
 41
  1.000
 42
  1.000
 50
  0.000
 71
  0
  3
SIMPLEX
  0
STYLE
  2
ARIAL
 70
  0
 40
  0.000
 41
  1.000
 42
  1.000
 50
  0.000
 71
  0
  3
ARIAL.TTF
  0
STYLE
  2
VERDANAB
 70
  0
 40
  0.000
 41
  1.000
 42
  1.000
 50
  0.000
 71
  0
  3
VERDANAB.TTF
  0
ENDTAB
  0
ENDSEC
  0
SECTION
  2
BLOCKS
  0
BLOCK
  8
2
  2
ARROW
 70
     0
 10
0.000     
 20
0.000     
  0
LINE
  8
2
 10
-0.635    
 20
-0.635    
 11
0.635     
 21
0.635     
  0
ENDBLK
  8
2
  0
BLOCK
  8
0
  2
ARROWP
 70
     0
 10
0.000     
 20
0.000     
  0
LINE
  8
0
 10
0.000     
 20
0.000     
 11
-1.270    
 21
0.317     
  0
LINE
  8
0
 10
-1.270    
 20
0.317     
 11
-1.270    
 21
-0.317    
  0
LINE
  8
0
 10
-1.270    
 20
-0.317    
 11
0.000     
 21
0.000     
  0
ENDBLK
  8
0
  0
BLOCK
  8
3
  2
CIRCLE
 70
     0
 10
0.000     
 20
0.000     
  0
CIRCLE
  8
1
 10
     0.000
 20
     0.000
 40
    10.160
  0
ENDBLK
  8
3
  0
BLOCK
  8
3
  2
SLOTTD
 70
     0
 10
0.000     
 20
0.000     
  0
ARC
  8
6
 10
-25.400   
 20
0.000     
 40
  12.700
 50
  90.000
 51
 270.000
  0
ARC
  8
6
 10
25.400    
 20
0.000     
 40
  12.700
 50
 270.000
 51
  90.000
  0
LINE
  8
6
 10
-25.400   
 20
-12.700   
 11
25.400    
 21
-12.700   
  0
LINE
  8
6
 10
-25.400   
 20
12.700    
 11
25.400    
 21
12.700    
  0
ENDBLK
  8
3
  0
BLOCK
  8
3
  2
FLGHOL
 70
     0
 10
0.000     
 20
0.000     
  0
SOLID
  8
6
 10
-6.350    
 20
0.000     
 11
6.350     
 21
0.000     
 12
-6.350    
 22
25.400    
 13
6.350     
 23
25.400    
  0
ENDBLK
  8
3
  0
BLOCK
  8
2
  2
BRCCLP
 70
     0
 10
12.700    
 20
0.000     
  0
LINE
  8
2
 10
12.700    
 20
0.000     
 11
12.700    
 21
101.600   
  0
LINE
  8
2
 10
-12.700   
 20
101.600   
 11
12.700    
 21
101.600   
  0
SOLID
  8
1
 10
-12.700   
 20
68.580    
 11
12.700    
 21
68.580    
 12
-12.700   
 22
83.820    
 13
12.700    
 23
83.820    
  0
ENDBLK
  8
3
  0
BLOCK
  8
2
  2
BRCCLPB
 70
     0
 10
12.700    
 20
0.000     
  0
LINE
  8
7
 10
12.700    
 20
0.000     
 11
12.700    
 21
101.600   
  0
LINE
  8
7
 10
-12.700   
 20
101.600   
 11
12.700    
 21
101.600   
  0
SOLID
  8
1
 10
-12.700   
 20
68.580    
 11
12.700    
 21
68.580    
 12
-12.700   
 22
83.820    
 13
12.700    
 23
83.820    
  0
ENDBLK
  8
3
  0
BLOCK
  8
2
  2
GRTANGC
 70
     0
 10
0.000     
 20
0.000     
  0
LINE
  8
13
 10
88.900    
 20
0.000     
 11
-12.700   
 21
0.000     
  0
LINE
  8
13
 10
88.900    
 20
0.000     
 11
88.900    
 21
152.400   
  0
LINE
  8
13
 10
-12.700   
 20
0.000     
 11
-12.700   
 21
152.400   
  0
LINE
  8
13
 10
88.900    
 20
152.400   
 11
-12.700   
 21
152.400   
  0
LINE
  8
13
 10
12.700    
 20
0.000     
 11
12.700    
 21
152.400   
  0
SOLID
  8
6
 10
-12.700   
 20
119.380   
 11
12.700    
 21
119.380   
 12
-12.700   
 22
134.620   
 13
12.700    
 23
134.620   
  0
SOLID
  8
6
 10
-12.700   
 20
68.580    
 11
12.700    
 21
68.580    
 12
-12.700   
 22
83.820    
 13
12.700    
 23
83.820    
  0
ENDBLK
  8
3
  0
BLOCK
  8
2
  2
GRTCLPB
 70
     0
 10
0.000     
 20
0.000     
  0
LINE
  8
13
 10
-12.700   
 20
0.000     
 11
-12.700   
 21
152.400   
  0
LINE
  8
13
 10
-12.700   
 20
0.000     
 11
12.700    
 21
0.000     
  0
LINE
  8
13
 10
-12.700   
 20
152.400   
 11
12.700    
 21
152.400   
  0
LINE
  8
13
 10
12.700    
 20
0.000     
 11
12.700    
 21
152.400   
  0
SOLID
  8
6
 10
-12.700   
 20
119.380   
 11
12.700    
 21
119.380   
 12
-12.700   
 22
134.620   
 13
12.700    
 23
134.620   
  0
SOLID
  8
6
 10
-12.700   
 20
68.580    
 11
12.700    
 21
68.580    
 12
-12.700   
 22
83.820    
 13
12.700    
 23
83.820    
  0
ENDBLK
  8
3
  0
BLOCK
  8
2
  2
GRTCLP1
 70
     0
 10
0.000     
 20
0.000     
  0
LINE
  8
13
 10
-12.700   
 20
0.000     
 11
-12.700   
 21
101.600   
  0
LINE
  8
13
 10
-12.700   
 20
0.000     
 11
12.700    
 21
0.000     
  0
LINE
  8
13
 10
-12.700   
 20
101.600   
 11
12.700    
 21
101.600   
  0
LINE
  8
13
 10
12.700    
 20
0.000     
 11
12.700    
 21
101.600   
  0
SOLID
  8
6
 10
-12.700   
 20
68.580    
 11
12.700    
 21
68.580    
 12
-12.700   
 22
83.820    
 13
12.700    
 23
83.820    
  0
ENDBLK
  8
3
  0
BLOCK
  8
2
  2
GRTCLP0
 70
     0
 10
0.000     
 20
0.000     
  0
LINE
  8
13
 10
-12.700   
 20
0.000     
 11
-12.700   
 21
101.600   
  0
LINE
  8
13
 10
-12.700   
 20
0.000     
 11
12.700    
 21
0.000     
  0
LINE
  8
13
 10
-12.700   
 20
101.600   
 11
12.700    
 21
101.600   
  0
LINE
  8
13
 10
12.700    
 20
0.000     
 11
12.700    
 21
101.600   
  0
ENDBLK
  8
3
  0
BLOCK
  8
2
  2
GRTCLPZ
 70
     0
 10
0.000     
 20
0.000     
  0
LINE
  8
13
 10
-12.700   
 20
0.000     
 11
-12.700   
 21
63.500    
  0
LINE
  8
13
 10
-12.700   
 20
63.500    
 11
38.100    
 21
63.500    
  0
LINE
  8
13
 10
38.100    
 20
63.500    
 11
38.100    
 21
152.400   
  0
LINE
  8
13
 10
38.100    
 20
152.400   
 11
63.500    
 21
152.400   
  0
LINE
  8
13
 10
63.500    
 20
152.400   
 11
63.500    
 21
38.100    
  0
LINE
  8
13
 10
63.500    
 20
38.100    
 11
12.700    
 21
38.100    
  0
LINE
  8
13
 10
12.700    
 20
38.100    
 11
12.700    
 21
0.000     
  0
SOLID
  8
6
 10
38.100    
 20
119.380   
 11
63.500    
 21
119.380   
 12
38.100    
 22
134.620   
 13
63.500    
 23
134.620   
  0
SOLID
  8
6
 10
38.100    
 20
68.580    
 11
63.500    
 21
68.580    
 12
38.100    
 22
83.820    
 13
63.500    
 23
83.820    
  0
ENDBLK
  8
3
  0
BLOCK
  8
2
  2
WEBCLP2
 70
     0
 10
0.000     
 20
152.400   
  0
LINE
  8
13
 10
-12.700   
 20
0.000     
 11
-12.700   
 21
203.200   
  0
LINE
  8
13
 10
-12.700   
 20
0.000     
 11
12.700    
 21
0.000     
  0
LINE
  8
13
 10
-12.700   
 20
203.200   
 11
12.700    
 21
203.200   
  0
LINE
  8
13
 10
12.700    
 20
0.000     
 11
12.700    
 21
203.200   
  0
SOLID
  8
6
 10
-12.700   
 20
43.180    
 11
12.700    
 21
43.180    
 12
-12.700   
 22
58.420    
 13
12.700    
 23
58.420    
  0
SOLID
  8
6
 10
-12.700   
 20
144.780   
 11
12.700    
 21
144.780   
 12
-12.700   
 22
160.020   
 13
12.700    
 23
160.020   
  0
ENDBLK
  8
3
  0
BLOCK
  8
2
  2
WEBCLPL
 70
     0
 10
0.000     
 20
152.400   
  0
LINE
  8
13
 10
0.000     
 20
0.000     
 11
-25.400   
 21
0.000     
  0
LINE
  8
13
 10
0.000     
 20
203.200   
 11
-25.400   
 21
203.200   
  0
LINE
  8
13
 10
-25.400   
 20
0.000     
 11
-25.400   
 21
203.200   
  0
ENDBLK
  8
3
  0
BLOCK
  8
2
  2
WEBCLP3
 70
     0
 10
0.000     
 20
144.780   
  0
LINE
  8
13
 10
-12.700   
 20
0.000     
 11
-12.700   
 21
187.960   
  0
LINE
  8
13
 10
-12.700   
 20
0.000     
 11
12.700    
 21
0.000     
  0
LINE
  8
13
 10
-12.700   
 20
187.960   
 11
12.700    
 21
187.960   
  0
LINE
  8
13
 10
12.700    
 20
0.000     
 11
12.700    
 21
187.960   
  0
SOLID
  8
6
 10
-12.700   
 20
35.560    
 11
12.700    
 21
35.560    
 12
-12.700   
 22
50.800    
 13
12.700    
 23
50.800    
  0
SOLID
  8
6
 10
-12.700   
 20
86.360    
 11
12.700    
 21
86.360    
 12
-12.700   
 22
101.600   
 13
12.700    
 23
101.600   
  0
SOLID
  8
6
 10
-12.700   
 20
137.160   
 11
12.700    
 21
137.160   
 12
-12.700   
 22
152.400   
 13
12.700    
 23
152.400   
  0
ENDBLK
  8
3
  0
BLOCK
  8
2
  2
WEBCLP4
 70
     0
 10
0.000     
 20
195.580   
  0
LINE
  8
13
 10
-12.700   
 20
0.000     
 11
-12.700   
 21
238.760   
  0
LINE
  8
13
 10
-12.700   
 20
0.000     
 11
12.700    
 21
0.000     
  0
LINE
  8
13
 10
-12.700   
 20
238.760   
 11
12.700    
 21
238.760   
  0
LINE
  8
13
 10
12.700    
 20
0.000     
 11
12.700    
 21
238.760   
  0
SOLID
  8
6
 10
-12.700   
 20
35.560    
 11
12.700    
 21
35.560    
 12
-12.700   
 22
50.800    
 13
12.700    
 23
50.800    
  0
SOLID
  8
6
 10
-12.700   
 20
86.360    
 11
12.700    
 21
86.360    
 12
-12.700   
 22
101.600   
 13
12.700    
 23
101.600   
  0
SOLID
  8
6
 10
-12.700   
 20
137.160   
 11
12.700    
 21
137.160   
 12
-12.700   
 22
152.400   
 13
12.700    
 23
152.400   
  0
SOLID
  8
6
 10
-12.700   
 20
187.960   
 11
12.700    
 21
187.960   
 12
-12.700   
 22
203.200   
 13
12.700    
 23
203.200   
  0
ENDBLK
  8
4
  0
BLOCK
  8
2
  2
WEBCLP1
 70
     0
 10
0.000     
 20
76.200    
  0
LINE
  8
13
 10
-12.700   
 20
0.000     
 11
-12.700   
 21
152.400   
  0
LINE
  8
13
 10
-12.700   
 20
0.000     
 11
12.700    
 21
0.000     
  0
LINE
  8
13
 10
-12.700   
 20
152.400   
 11
12.700    
 21
152.400   
  0
LINE
  8
13
 10
12.700    
 20
0.000     
 11
12.700    
 21
152.400   
  0
SOLID
  8
6
 10
-12.700   
 20
68.580    
 11
12.700    
 21
68.580    
 12
-12.700   
 22
83.820    
 13
12.700    
 23
83.820    
  0
ENDBLK
  8
3
  0
BLOCK
  8
2
  2
WEBCLP2B
 70
     0
 10
0.000     
 20
152.400   
  0
LINE
  8
7
 10
-12.700   
 20
0.000     
 11
-12.700   
 21
203.200   
  0
LINE
  8
7
 10
-12.700   
 20
0.000     
 11
12.700    
 21
0.000     
  0
LINE
  8
7
 10
-12.700   
 20
203.200   
 11
12.700    
 21
203.200   
  0
LINE
  8
7
 10
12.700    
 20
0.000     
 11
12.700    
 21
203.200   
  0
SOLID
  8
6
 10
-12.700   
 20
43.180    
 11
12.700    
 21
43.180    
 12
-12.700   
 22
58.420    
 13
12.700    
 23
58.420    
  0
SOLID
  8
6
 10
-12.700   
 20
144.780   
 11
12.700    
 21
144.780   
 12
-12.700   
 22
160.020   
 13
12.700    
 23
160.020   
  0
ENDBLK
  8
3
  0
BLOCK
  8
2
  2
WEBCLPLB
 70
     0
 10
0.000     
 20
152.400   
  0
LINE
  8
7
 10
0.000     
 20
0.000     
 11
-25.400   
 21
0.000     
  0
LINE
  8
7
 10
0.000     
 20
203.200   
 11
-25.400   
 21
203.200   
  0
LINE
  8
7
 10
-25.400   
 20
0.000     
 11
-25.400   
 21
203.200   
  0
ENDBLK
  8
3
  0
BLOCK
  8
2
  2
WEBCLP3B
 70
     0
 10
0.000     
 20
144.780   
  0
LINE
  8
7
 10
-12.700   
 20
0.000     
 11
-12.700   
 21
187.960   
  0
LINE
  8
7
 10
-12.700   
 20
0.000     
 11
12.700    
 21
0.000     
  0
LINE
  8
7
 10
-12.700   
 20
187.960   
 11
12.700    
 21
187.960   
  0
LINE
  8
7
 10
12.700    
 20
0.000     
 11
12.700    
 21
187.960   
  0
SOLID
  8
6
 10
-12.700   
 20
35.560    
 11
12.700    
 21
35.560    
 12
-12.700   
 22
50.800    
 13
12.700    
 23
50.800    
  0
SOLID
  8
6
 10
-12.700   
 20
86.360    
 11
12.700    
 21
86.360    
 12
-12.700   
 22
101.600   
 13
12.700    
 23
101.600   
  0
SOLID
  8
6
 10
-12.700   
 20
137.160   
 11
12.700    
 21
137.160   
 12
-12.700   
 22
152.400   
 13
12.700    
 23
152.400   
  0
ENDBLK
  8
3
  0
BLOCK
  8
2
  2
WEBCLP4B
 70
     0
 10
0.000     
 20
195.580   
  0
LINE
  8
7
 10
-12.700   
 20
0.000     
 11
-12.700   
 21
238.760   
  0
LINE
  8
7
 10
-12.700   
 20
0.000     
 11
12.700    
 21
0.000     
  0
LINE
  8
7
 10
-12.700   
 20
238.760   
 11
12.700    
 21
238.760   
  0
LINE
  8
7
 10
12.700    
 20
0.000     
 11
12.700    
 21
238.760   
  0
SOLID
  8
6
 10
-12.700   
 20
35.560    
 11
12.700    
 21
35.560    
 12
-12.700   
 22
50.800    
 13
12.700    
 23
50.800    
  0
SOLID
  8
6
 10
-12.700   
 20
86.360    
 11
12.700    
 21
86.360    
 12
-12.700   
 22
101.600   
 13
12.700    
 23
101.600   
  0
SOLID
  8
6
 10
-12.700   
 20
137.160   
 11
12.700    
 21
137.160   
 12
-12.700   
 22
152.400   
 13
12.700    
 23
152.400   
  0
SOLID
  8
6
 10
-12.700   
 20
187.960   
 11
12.700    
 21
187.960   
 12
-12.700   
 22
203.200   
 13
12.700    
 23
203.200   
  0
ENDBLK
  8
4
  0
BLOCK
  8
2
  2
WEBCLP1B
 70
     0
 10
0.000     
 20
76.200    
  0
LINE
  8
7
 10
-12.700   
 20
0.000     
 11
-12.700   
 21
152.400   
  0
LINE
  8
7
 10
-12.700   
 20
0.000     
 11
12.700    
 21
0.000     
  0
LINE
  8
7
 10
-12.700   
 20
152.400   
 11
12.700    
 21
152.400   
  0
LINE
  8
7
 10
12.700    
 20
0.000     
 11
12.700    
 21
152.400   
  0
SOLID
  8
6
 10
-12.700   
 20
68.580    
 11
12.700    
 21
68.580    
 12
-12.700   
 22
83.820    
 13
12.700    
 23
83.820    
  0
ENDBLK
  8
3
  0
BLOCK
  8
2
  2
FC_CLIP2
 70
     0
 10
0.000     
 20
0.000     
  0
LINE
  8
2
 10
-50.800   
 20
0.000     
 11
-50.800   
 21
152.400   
  0
LINE
  8
2
 10
-50.800   
 20
0.000     
 11
50.800    
 21
0.000     
  0
LINE
  8
2
 10
-50.800   
 20
152.400   
 11
50.800    
 21
152.400   
  0
LINE
  8
2
 10
50.800    
 20
0.000     
 11
50.800    
 21
152.400   
  0
CIRCLE
  8
1
 10
     0.000
 20
   101.600
 40
    12.700
  0
CIRCLE
  8
1
 10
     0.000
 20
    50.800
 40
    12.700
  0
ENDBLK
  8
3
  0
BLOCK
  8
2
  2
FC_CLIP3
 70
     0
 10
0.000     
 20
0.000     
  0
LINE
  8
2
 10
-50.800   
 20
0.000     
 11
-50.800   
 21
152.400   
  0
LINE
  8
2
 10
-50.800   
 20
0.000     
 11
50.800    
 21
0.000     
  0
LINE
  8
2
 10
-50.800   
 20
152.400   
 11
50.800    
 21
152.400   
  0
LINE
  8
2
 10
50.800    
 20
0.000     
 11
50.800    
 21
152.400   
  0
CIRCLE
  8
1
 10
     0.000
 20
   101.600
 40
    12.700
  0
CIRCLE
  8
1
 10
     0.000
 20
    76.200
 40
    12.700
  0
CIRCLE
  8
1
 10
     0.000
 20
    50.800
 40
    12.700
  0
ENDBLK
  8
3
  0
BLOCK
  8
2
  2
EAVCLP
 70
     0
 10
0.000     
 20
0.000     
  0
LINE
  8
2
 10
-25.400   
 20
0.000     
 11
-25.400   
 21
304.800   
  0
LINE
  8
2
 10
-25.400   
 20
0.000     
 11
0.000     
 21
0.000     
  0
LINE
  8
2
 10
-25.400   
 20
304.800   
 11
0.000     
 21
304.800   
  0
LINE
  8
2
 10
0.000     
 20
0.000     
 11
0.000     
 21
304.800   
  0
SOLID
  8
1
 10
-25.400   
 20
271.780   
 11
0.000     
 21
271.780   
 12
-25.400   
 22
287.020   
 13
0.000     
 23
287.020   
  0
SOLID
  8
1
 10
-25.400   
 20
220.980   
 11
0.000     
 21
220.980   
 12
-25.400   
 22
236.220   
 13
0.000     
 23
236.220   
  0
ENDBLK
  8
3
  0
BLOCK
  8
2
  2
ASMPIECE
 70
     0
 10
250.000   
 20
-6.000    
  0
LINE
  8
1
 10
250.000   
 20
-6.000    
 11
250.000   
 21
-406.000  
  0
LINE
  8
1
 10
8762.478  
 20
-406.000  
 11
8762.478  
 21
-6.000    
  0
TEXT
  8
3
 7
SIMPLEX
 10
4660.000  
 20
-151.260  
 40
   32.280
  1
WB4
 50
    0.000
  0
LINE
  8
1
 10
250.000   
 20
-6.000    
 11
250.000   
 21
6.970     
  0
LINE
  8
1
 10
250.000   
 20
-6.000    
 11
8762.478  
 21
-6.000    
  0
LINE
  8
1
 10
8762.478  
 20
-6.000    
 11
8762.478  
 21
6.969     
  0
LINE
  8
1
 10
250.000   
 20
6.970     
 11
8762.478  
 21
6.969     
  0
TEXT
  8
3
 7
SIMPLEX
 10
4380.880  
 20
15.039    
 40
   32.280
  1
OF4
 50
    0.000
  0
LINE
  8
1
 10
250.000   
 20
-406.000  
 11
250.000   
 21
-418.970  
  0
LINE
  8
1
 10
250.000   
 20
-406.000  
 11
8762.478  
 21
-406.000  
  0
LINE
  8
1
 10
8762.478  
 20
-406.000  
 11
8762.478  
 21
-418.970  
  0
LINE
  8
1
 10
250.000   
 20
-418.970  
 11
8762.478  
 21
-418.970  
  0
TEXT
  8
3
 7
SIMPLEX
 10
4506.239  
 20
-467.390  
 40
   32.280
  1
IF3
 50
    0.000
  0
LINE
  8
12
 10
250.000   
 20
89.255    
 11
235.589   
 21
89.255    
  0
LINE
  8
12
 10
250.000   
 20
89.255    
 11
250.000   
 21
-501.254  
  0
LINE
  8
12
 10
250.000   
 20
-501.254  
 11
235.589   
 21
-501.254  
  0
LINE
  8
12
 10
235.589   
 20
89.255    
 11
235.589   
 21
-501.254  
  0
TEXT
  8
3
 7
SIMPLEX
 10
227.520   
 20
-254.420  
 40
   32.280
  1
EP4
 50
   90.000
  0
LINE
  8
12
 10
8762.478  
 20
89.254    
 11
8776.888  
 21
89.254    
  0
LINE
  8
12
 10
8762.478  
 20
89.254    
 11
8762.478  
 21
-501.255  
  0
LINE
  8
12
 10
8762.478  
 20
-501.255  
 11
8776.888  
 21
-501.255  
  0
LINE
  8
12
 10
8776.888  
 20
89.254    
 11
8776.888  
 21
-501.255  
  0
TEXT
  8
3
 7
SIMPLEX
 10
8817.238  
 20
-254.420  
 40
   32.280
  1
EP2
 50
   90.000
  0
INSERT
  8
6
  2
SLOTTD
 10
500.000   
 20
-81.000   
 41
   0.340
 42
   0.340
 43
   0.340
 50
   0.000
  0
TEXT
  8
3
 7
SIMPLEX
 10
483.860   
 20
-129.420  
 40
   32.280
  1
S1
 50
    0.000
  0
INSERT
  8
6
  2
SLOTTD
 10
7510.000  
 20
-81.000   
 41
   0.340
 42
   0.340
 43
   0.340
 50
   0.000
  0
TEXT
  8
3
 7
SIMPLEX
 10
7493.859  
 20
-129.420  
 40
   32.280
  1
S1
 50
    0.000
  0
INSERT
  8
6
  2
SLOTTD
 10
7810.000  
 20
-81.000   
 41
   0.340
 42
   0.340
 43
   0.340
 50
   0.000
  0
TEXT
  8
3
 7
SIMPLEX
 10
7793.860  
 20
-129.420  
 40
   32.280
  1
S1
 50
    0.000
  0
INSERT
  8
2
  2
CIRCLE
 10
7984.780  
 20
-262.500  
 41
   0.340
 42
   0.340
 43
   0.340
 50
   0.000
  0
INSERT
  8
2
  2
CIRCLE
 10
7984.780  
 20
-297.086  
 41
   0.340
 42
   0.340
 43
   0.340
 50
   0.000
  0
INSERT
  8
2
  2
CIRCLE
 10
8084.780  
 20
-262.500  
 41
   0.340
 42
   0.340
 43
   0.340
 50
   0.000
  0
INSERT
  8
2
  2
CIRCLE
 10
8084.780  
 20
-297.086  
 41
   0.340
 42
   0.340
 43
   0.340
 50
   0.000
  0
LINE
  8
2
 10
3292.707  
 20
-6.000    
 11
3255.239  
 21
-6.000    
  0
LINE
  8
2
 10
3292.707  
 20
-367.091  
 11
3255.239  
 21
-367.091  
  0
LINE
  8
2
 10
3263.885  
 20
-6.000    
 11
3263.885  
 21
-367.091  
  0
INSERT
  8
2
  2
ARROW
 10
3263.885  
 20
-6.000    
 41
  11.347
 42
  11.347
 43
  11.347
 50
  90.000
  0
INSERT
  8
2
  2
ARROW
 10
3263.885  
 20
-367.091  
 41
  11.347
 42
  11.347
 43
  11.347
 50
 -90.000
  0
TEXT
  8
11
 7
SIMPLEX
 10
3274.646  
 20
-208.066  
 40
   32.280
  1
350
 50
    0.000
  0
LINE
  8
2
 10
6027.292  
 20
-6.000    
 11
6064.760  
 21
-6.000    
  0
LINE
  8
2
 10
6027.292  
 20
-367.091  
 11
6064.760  
 21
-367.091  
  0
LINE
  8
2
 10
6056.114  
 20
-6.000    
 11
6056.114  
 21
-367.091  
  0
INSERT
  8
2
  2
ARROW
 10
6056.114  
 20
-6.000    
 41
  11.347
 42
  11.347
 43
  11.347
 50
  90.000
  0
INSERT
  8
2
  2
ARROW
 10
6056.114  
 20
-367.091  
 41
  11.347
 42
  11.347
 43
  11.347
 50
 -90.000
  0
TEXT
  8
11
 7
SIMPLEX
 10
6075.520  
 20
-208.066  
 40
   32.280
  1
350
 50
    0.000
  0
INSERT
  8
6
  2
FLGHOL
 10
235.589   
 20
40.835    
 41
   0.511
 42
   0.567
 43
   0.567
 50
 -90.000
  0
INSERT
  8
6
  2
FLGHOL
 10
235.589   
 20
-39.865   
 41
   0.511
 42
   0.567
 43
   0.567
 50
 -90.000
  0
INSERT
  8
6
  2
FLGHOL
 10
235.589   
 20
-372.135  
 41
   0.511
 42
   0.567
 43
   0.567
 50
 -90.000
  0
INSERT
  8
6
  2
FLGHOL
 10
235.589   
 20
-452.835  
 41
   0.511
 42
   0.567
 43
   0.567
 50
 -90.000
  0
INSERT
  8
6
  2
FLGHOL
 10
8762.478  
 20
40.834    
 41
   0.511
 42
   0.567
 43
   0.567
 50
 -90.000
  0
INSERT
  8
6
  2
FLGHOL
 10
8762.478  
 20
-39.865   
 41
   0.511
 42
   0.567
 43
   0.567
 50
 -90.000
  0
INSERT
  8
6
  2
FLGHOL
 10
8762.478  
 20
-372.135  
 41
   0.511
 42
   0.567
 43
   0.567
 50
 -90.000
  0
INSERT
  8
6
  2
FLGHOL
 10
8762.478  
 20
-452.835  
 41
   0.511
 42
   0.567
 43
   0.567
 50
 -90.000
  0
INSERT
  8
1
  2
WEBCLP2
 10
7697.500  
 20
-53.556   
 41
   0.340
 42
   0.340
 43
   0.340
 50
 -90.000
  0
CIRCLE
  8
15
 10
  7697.500
 20
   -49.232
 40
     9.684
  0
TEXT
  8
3
 7
SIMPLEX
 10
7314.177  
 20
-43.852   
 40
   32.280
  1
CLF2 (typ)
 50
    0.000
  0
TEXT
  8
3
 7
SIMPLEX
 10
7314.177  
 20
-92.272   
 40
   32.280
  1
NS/FS
 50
    0.000
  0
LINE
  8
3
 10
7636.976  
 20
-49.232   
 11
7564.923  
 21
-49.232   
  0
INSERT
  8
3
  2
ARROWP
 10
7636.976  
 20
-49.232   
 41
  11.347
 42
  11.347
 43
  11.347
 50
   0.000
  0
INSERT
  8
1
  2
GRTCLPB
 10
3305.677  
 20
6.969     
 41
  -0.340
 42
   0.340
 43
   0.340
 50
   0.000
  0
CIRCLE
  8
15
 10
  3310.000
 20
     6.969
 40
     9.684
  0
INSERT
  8
1
  2
GRTCLPB
 10
4505.677  
 20
6.969     
 41
  -0.340
 42
   0.340
 43
   0.340
 50
   0.000
  0
CIRCLE
  8
15
 10
  4510.000
 20
     6.969
 40
     9.684
  0
INSERT
  8
1
  2
GRTCLPB
 10
6005.677  
 20
6.969     
 41
  -0.340
 42
   0.340
 43
   0.340
 50
   0.000
  0
CIRCLE
  8
15
 10
  6010.000
 20
     6.969
 40
     9.684
  0
TEXT
  8
3
 7
SIMPLEX
 10
5706.511  
 20
51.258    
 40
   32.280
  1
CLF3(typ)
 50
    0.000
  0
LINE
  8
3
 10
5997.030  
 20
45.878    
 11
5924.977  
 21
45.878    
  0
INSERT
  8
3
  2
ARROWP
 10
5997.030  
 20
45.878    
 41
  11.347
 42
  11.347
 43
  11.347
 50
   0.000
  0
INSERT
  8
1
  2
GRTCLPB
 10
7505.676  
 20
6.969     
 41
  -0.340
 42
   0.340
 43
   0.340
 50
   0.000
  0
CIRCLE
  8
15
 10
  7509.999
 20
     6.969
 40
     9.684
  0
INSERT
  8
1
  2
GRTCLPB
 10
8505.677  
 20
6.969     
 41
  -0.340
 42
   0.340
 43
   0.340
 50
   0.000
  0
CIRCLE
  8
15
 10
  8510.000
 20
     6.969
 40
     9.684
  0
INSERT
  8
7
  2
GRTCLP1
 10
7080.000  
 20
-418.970  
 41
   0.340
 42
   0.340
 43
   0.340
 50
 180.000
  0
CIRCLE
  8
15
 10
  7084.323
 20
  -418.970
 40
     9.684
  0
TEXT
  8
3
 7
SIMPLEX
 10
7125.250  
 20
-448.175  
 40
   32.280
  1
 GC41-01(typ)
 50
    0.000
  0
LINE
  8
3
 10
7092.969  
 20
-453.555  
 11
7165.022  
 21
-453.555  
  0
INSERT
  8
3
  2
ARROWP
 10
7092.969  
 20
-453.555  
 41
  11.347
 42
  11.347
 43
  11.347
 50
 180.000
  0
INSERT
  8
7
  2
BRCCLP
 10
3310.000  
 20
-406.000  
 41
  -0.511
 42
   0.511
 43
   0.511
 50
   0.000
  0
CIRCLE
  8
15
 10
  3310.000
 20
  -406.000
 40
     9.684
  0
LINE
  8
1
 10
3322.969  
 20
-354.122  
 11
3322.969  
 21
-406.000  
  0
TEXT
  8
3
 7
SIMPLEX
 10
2978.555  
 20
-348.915  
 40
   32.280
  1
CLF1 (typ)
 50
    0.000
  0
TEXT
  8
3
 7
SIMPLEX
 10
2978.555  
 20
-397.334  
 40
   32.280
  1
NS/FS
 50
    0.000
  0
LINE
  8
3
 10
3301.354  
 20
-354.295  
 11
3229.300  
 21
-354.295  
  0
INSERT
  8
3
  2
ARROWP
 10
3301.354  
 20
-354.295  
 41
  11.347
 42
  11.347
 43
  11.347
 50
   0.000
  0
INSERT
  8
7
  2
BRCCLP
 10
6010.000  
 20
-406.000  
 41
  -0.511
 42
   0.511
 43
   0.511
 50
   0.000
  0
CIRCLE
  8
15
 10
  6010.000
 20
  -406.000
 40
     9.684
  0
LINE
  8
1
 10
6022.970  
 20
-354.122  
 11
6022.970  
 21
-406.000  
  0
LINE
  8
9
 10
6344.000  
 20
-406.000  
 11
6344.000  
 21
-106.000  
  0
LINE
  8
9
 10
6344.000  
 20
-106.000  
 11
6352.646  
 21
-106.000  
  0
LINE
  8
9
 10
6352.646  
 20
-106.000  
 11
6352.646  
 21
-406.000  
  0
LINE
  8
9
 10
6344.000  
 20
-406.000  
 11
6352.646  
 21
-406.000  
  0
TEXT
  8
3
 7
SIMPLEX
 10
6188.365  
 20
-352.200  
 40
   32.280
  1
ST1
 50
    0.000
  0
TEXT
  8
3
 7
SIMPLEX
 10
6188.365  
 20
-400.620  
 40
   32.280
  1
NS/FS
 50
    0.000
  0
LINE
  8
3
 10
6349.764  
 20
-357.580  
 11
6277.711  
 21
-357.580  
  0
INSERT
  8
3
  2
ARROWP
 10
6349.764  
 20
-357.580  
 41
  11.347
 42
  11.347
 43
  11.347
 50
   0.000
  0
LINE
  8
9
 10
6701.354  
 20
-406.000  
 11
6701.354  
 21
-106.000  
  0
LINE
  8
9
 10
6701.354  
 20
-106.000  
 11
6710.000  
 21
-106.000  
  0
LINE
  8
9
 10
6710.000  
 20
-106.000  
 11
6710.000  
 21
-406.000  
  0
LINE
  8
9
 10
6701.354  
 20
-406.000  
 11
6710.000  
 21
-406.000  
  0
TEXT
  8
3
 7
SIMPLEX
 10
6745.163  
 20
-255.361  
 40
   32.280
  1
ST1
 50
    0.000
  0
TEXT
  8
3
 7
SIMPLEX
 10
6745.163  
 20
-303.781  
 40
   32.280
  1
NS/FS
 50
    0.000
  0
LINE
  8
3
 10
6712.882  
 20
-260.741  
 11
6784.936  
 21
-260.741  
  0
INSERT
  8
3
  2
ARROWP
 10
6712.882  
 20
-260.741  
 41
  11.347
 42
  11.347
 43
  11.347
 50
 180.000
  0
LINE
  8
9
 10
7080.000  
 20
-406.000  
 11
7080.000  
 21
-106.000  
  0
LINE
  8
9
 10
7080.000  
 20
-106.000  
 11
7088.646  
 21
-106.000  
  0
LINE
  8
9
 10
7088.646  
 20
-106.000  
 11
7088.646  
 21
-406.000  
  0
LINE
  8
9
 10
7080.000  
 20
-406.000  
 11
7088.646  
 21
-406.000  
  0
INSERT
  8
6
  2
FLGHOL
 10
7088.646  
 20
-186.000  
 41
   0.511
 42
   0.340
 43
   0.340
 50
  90.000
  0
TEXT
  8
3
 7
SIMPLEX
 10
6924.365  
 20
-149.040  
 40
   32.280
  1
ST2
 50
    0.000
  0
TEXT
  8
3
 7
SIMPLEX
 10
6924.365  
 20
-197.460  
 40
   32.280
  1
NS/FS
 50
    0.000
  0
LINE
  8
3
 10
7085.764  
 20
-154.420  
 11
7013.711  
 21
-154.420  
  0
INSERT
  8
3
  2
ARROWP
 10
7085.764  
 20
-154.420  
 41
  11.347
 42
  11.347
 43
  11.347
 50
   0.000
  0
LINE
  8
9
 10
447.000   
 20
6.970     
 11
430.320   
 21
89.255    
  0
LINE
  8
9
 10
250.000   
 20
89.255    
 11
430.320   
 21
89.255    
  0
TEXT
  8
3
 7
SIMPLEX
 10
482.162   
 20
62.355    
 40
   32.280
  1
SS2
 50
    0.000
  0
LINE
  8
3
 10
449.882   
 20
56.975    
 11
521.936   
 21
56.975    
  0
INSERT
  8
3
  2
ARROWP
 10
449.882   
 20
56.975    
 41
  11.347
 42
  11.347
 43
  11.347
 50
 180.000
  0
LINE
  8
9
 10
446.000   
 20
-418.970  
 11
429.320   
 21
-501.254  
  0
LINE
  8
9
 10
250.000   
 20
-501.254  
 11
429.320   
 21
-501.254  
  0
TEXT
  8
3
 7
SIMPLEX
 10
481.162   
 20
-495.874  
 40
   32.280
  1
SS3
 50
    0.000
  0
LINE
  8
3
 10
448.882   
 20
-501.254  
 11
520.935   
 21
-501.254  
  0
INSERT
  8
3
  2
ARROWP
 10
448.882   
 20
-501.254  
 41
  11.347
 42
  11.347
 43
  11.347
 50
 180.000
  0
LINE
  8
9
 10
8678.939  
 20
6.969     
 11
8762.478  
 21
89.254    
  0
TEXT
  8
3
 7
SIMPLEX
 10
8579.218  
 20
76.909    
 40
   32.280
  1
SS4
 50
    0.000
  0
LINE
  8
3
 10
8676.058  
 20
71.529    
 11
8604.005  
 21
71.529    
  0
INSERT
  8
3
  2
ARROWP
 10
8676.058  
 20
71.529    
 41
  11.347
 42
  11.347
 43
  11.347
 50
   0.000
  0
LINE
  8
9
 10
8667.223  
 20
-418.970  
 11
8762.478  
 21
-501.255  
  0
TEXT
  8
3
 7
SIMPLEX
 10
8567.501  
 20
-478.150  
 40
   32.280
  1
SS5
 50
    0.000
  0
LINE
  8
3
 10
8664.341  
 20
-483.530  
 11
8592.288  
 21
-483.530  
  0
INSERT
  8
3
  2
ARROWP
 10
8664.341  
 20
-483.530  
 41
  11.347
 42
  11.347
 43
  11.347
 50
   0.000
  0
LINE
  8
2
 10
250.000   
 20
93.434    
 11
250.000   
 21
404.704   
  0
INSERT
  8
2
  2
ARROW
 10
250.000   
 20
396.058   
 41
  11.347
 42
  11.347
 43
  11.347
 50
 180.000
  0
LINE
  8
2
 10
250.000   
 20
396.058   
 11
8762.478  
 21
396.057   
  0
LINE
  8
2
 10
8762.478  
 20
93.433    
 11
8762.478  
 21
404.704   
  0
INSERT
  8
2
  2
ARROW
 10
8762.478  
 20
396.057   
 41
  11.347
 42
  11.347
 43
  11.347
 50
   0.000
  0
TEXT
  8
11
 7
SIMPLEX
 10
4455.439  
 20
406.817   
 40
   32.280
  1
8512
 50
    0.000
  0
LINE
  8
3
 10
250.000   
 20
-505.434  
 11
250.000   
 21
-629.365  
  0
INSERT
  8
3
  2
ARROW
 10
250.000   
 20
-620.719  
 41
  11.347
 42
  11.347
 43
  11.347
 50
 180.000
  0
LINE
  8
2
 10
250.000   
 20
-620.719  
 11
8762.478  
 21
-620.719  
  0
LINE
  8
2
 10
8762.478  
 20
-505.434  
 11
8762.478  
 21
-629.366  
  0
INSERT
  8
2
  2
ARROW
 10
8762.478  
 20
-620.719  
 41
  11.347
 42
  11.347
 43
  11.347
 50
   0.000
  0
TEXT
  8
11
 7
SIMPLEX
 10
4455.439  
 20
-609.959  
 40
   32.280
  1
8512
 50
    0.000
  0
TEXT
  8
21
 7
SIMPLEX
 10
-98.738   
 20
137.674   
 40
   32.280
  1
G=100
 50
    0.000
  0
TEXT
  8
21
 7
SIMPLEX
 10
-98.738   
 20
186.094   
 40
   32.280
  1
D=30
 50
    0.000
  0
LINE
  8
2
 10
195.239   
 20
89.255    
 11
149.125   
 21
89.255    
  0
LINE
  8
2
 10
195.239   
 20
40.835    
 11
149.125   
 21
40.835    
  0
LINE
  8
2
 10
157.772   
 20
89.255    
 11
157.772   
 21
40.835    
  0
INSERT
  8
2
  2
ARROW
 10
157.772   
 20
89.255    
 41
  11.347
 42
  11.347
 43
  11.347
 50
  90.000
  0
INSERT
  8
2
  2
ARROW
 10
157.772   
 20
40.835    
 41
  11.347
 42
  11.347
 43
  11.347
 50
 -90.000
  0
TEXT
  8
11
 7
SIMPLEX
 10
73.806    
 20
43.525    
 40
   32.280
  1
75
 50
    0.000
  0
LINE
  8
2
 10
195.239   
 20
-39.865   
 11
149.125   
 21
-39.865   
  0
LINE
  8
2
 10
157.772   
 20
-11.044   
 11
157.772   
 21
-39.865   
  0
INSERT
  8
2
  2
ARROW
 10
157.772   
 20
-39.865   
 41
  11.347
 42
  11.347
 43
  11.347
 50
 -90.000
  0
TEXT
  8
11
 7
SIMPLEX
 10
41.526    
 20
-29.105   
 40
   32.280
  1
225
 50
    0.000
  0
LINE
  8
2
 10
195.239   
 20
-372.135  
 11
149.125   
 21
-372.135  
  0
LINE
  8
2
 10
157.772   
 20
-343.314  
 11
157.772   
 21
-372.135  
  0
INSERT
  8
2
  2
ARROW
 10
157.772   
 20
-372.135  
 41
  11.347
 42
  11.347
 43
  11.347
 50
 -90.000
  0
TEXT
  8
11
 7
SIMPLEX
 10
41.526    
 20
-361.375  
 40
   32.280
  1
482
 50
    0.000
  0
LINE
  8
2
 10
195.239   
 20
-452.835  
 11
149.125   
 21
-452.835  
  0
LINE
  8
2
 10
157.772   
 20
-424.013  
 11
157.772   
 21
-452.835  
  0
INSERT
  8
2
  2
ARROW
 10
157.772   
 20
-452.835  
 41
  11.347
 42
  11.347
 43
  11.347
 50
 -90.000
  0
TEXT
  8
11
 7
SIMPLEX
 10
41.526    
 20
-442.075  
 40
   32.280
  1
632
 50
    0.000
  0
TEXT
  8
21
 7
SIMPLEX
 10
8892.174  
 20
137.674   
 40
   32.280
  1
G=100
 50
    0.000
  0
TEXT
  8
21
 7
SIMPLEX
 10
8892.174  
 20
186.094   
 40
   32.280
  1
D=22
 50
    0.000
  0
LINE
  8
2
 10
8817.238  
 20
89.254    
 11
8863.353  
 21
89.254    
  0
LINE
  8
2
 10
8817.238  
 20
40.834    
 11
8863.353  
 21
40.834    
  0
LINE
  8
2
 10
8854.706  
 20
89.254    
 11
8854.706  
 21
40.834    
  0
INSERT
  8
2
  2
ARROW
 10
8854.706  
 20
89.254    
 41
  11.347
 42
  11.347
 43
  11.347
 50
  90.000
  0
INSERT
  8
2
  2
ARROW
 10
8854.706  
 20
40.834    
 41
  11.347
 42
  11.347
 43
  11.347
 50
 -90.000
  0
TEXT
  8
11
 7
SIMPLEX
 10
8874.112  
 20
43.524    
 40
   32.280
  1
50
 50
    0.000
  0
LINE
  8
2
 10
8817.238  
 20
-39.865   
 11
8863.353  
 21
-39.865   
  0
LINE
  8
2
 10
8854.706  
 20
-11.044   
 11
8854.706  
 21
-39.865   
  0
INSERT
  8
2
  2
ARROW
 10
8854.706  
 20
-39.865   
 41
  11.347
 42
  11.347
 43
  11.347
 50
 -90.000
  0
TEXT
  8
11
 7
SIMPLEX
 10
8874.112  
 20
-29.105   
 40
   32.280
  1
150
 50
    0.000
  0
LINE
  8
2
 10
8817.238  
 20
-372.135  
 11
8863.353  
 21
-372.135  
  0
LINE
  8
2
 10
8854.706  
 20
-343.314  
 11
8854.706  
 21
-372.135  
  0
INSERT
  8
2
  2
ARROW
 10
8854.706  
 20
-372.135  
 41
  11.347
 42
  11.347
 43
  11.347
 50
 -90.000
  0
TEXT
  8
11
 7
SIMPLEX
 10
8874.112  
 20
-361.375  
 40
   32.280
  1
450
 50
    0.000
  0
LINE
  8
2
 10
8817.238  
 20
-452.835  
 11
8863.353  
 21
-452.835  
  0
LINE
  8
2
 10
8854.706  
 20
-424.014  
 11
8854.706  
 21
-452.835  
  0
INSERT
  8
2
  2
ARROW
 10
8854.706  
 20
-452.835  
 41
  11.347
 42
  11.347
 43
  11.347
 50
 -90.000
  0
TEXT
  8
11
 7
SIMPLEX
 10
8874.112  
 20
-442.075  
 40
   32.280
  1
550
 50
    0.000
  0
LINE
  8
2
 10
267.293   
 20
40.835    
 11
310.525   
 21
40.835    
  0
LINE
  8
2
 10
267.293   
 20
6.970     
 11
310.525   
 21
6.970     
  0
LINE
  8
2
 10
301.878   
 20
40.835    
 11
301.878   
 21
6.970     
  0
INSERT
  8
2
  2
ARROW
 10
301.878   
 20
40.835    
 41
  11.347
 42
  11.347
 43
  11.347
 50
  90.000
  0
INSERT
  8
2
  2
ARROW
 10
301.878   
 20
6.970     
 41
  11.347
 42
  11.347
 43
  11.347
 50
 -90.000
  0
TEXT
  8
11
 7
SIMPLEX
 10
321.285   
 20
9.660     
 40
   32.280
  1
72
 50
    0.000
  0
LINE
  8
2
 10
8745.185  
 20
40.834    
 11
8701.952  
 21
40.834    
  0
LINE
  8
2
 10
8745.185  
 20
6.969     
 11
8701.952  
 21
6.969     
  0
LINE
  8
2
 10
8710.600  
 20
40.834    
 11
8710.600  
 21
6.969     
  0
INSERT
  8
2
  2
ARROW
 10
8710.600  
 20
40.834    
 41
  11.347
 42
  11.347
 43
  11.347
 50
  90.000
  0
INSERT
  8
2
  2
ARROW
 10
8710.600  
 20
6.969     
 41
  11.347
 42
  11.347
 43
  11.347
 50
 -90.000
  0
TEXT
  8
11
 7
SIMPLEX
 10
8626.633  
 20
9.659     
 40
   32.280
  1
44
 50
    0.000
  0
LINE
  8
2
 10
7967.487  
 20
-6.000    
 11
7930.020  
 21
-6.000    
  0
LINE
  8
2
 10
7967.487  
 20
-262.500  
 11
7930.020  
 21
-262.500  
  0
LINE
  8
2
 10
7938.667  
 20
-6.000    
 11
7938.667  
 21
-262.500  
  0
INSERT
  8
2
  2
ARROW
 10
7938.667  
 20
-6.000    
 41
  11.347
 42
  11.347
 43
  11.347
 50
  90.000
  0
INSERT
  8
2
  2
ARROW
 10
7938.667  
 20
-262.500  
 41
  11.347
 42
  11.347
 43
  11.347
 50
 -90.000
  0
TEXT
  8
11
 7
SIMPLEX
 10
7822.420  
 20
-155.770  
 40
   32.280
  1
257
 50
    0.000
  0
TEXT
  8
21
 7
SIMPLEX
 10
7855.661  
 20
256.850   
 40
   32.280
  1
D=18
 50
    0.000
  0
LINE
  8
2
 10
7967.487  
 20
-262.500  
 11
7930.020  
 21
-262.500  
  0
LINE
  8
2
 10
7967.487  
 20
-297.086  
 11
7930.020  
 21
-297.086  
  0
LINE
  8
2
 10
7938.667  
 20
-262.500  
 11
7938.667  
 21
-297.086  
  0
INSERT
  8
2
  2
ARROW
 10
7938.667  
 20
-262.500  
 41
  11.347
 42
  11.347
 43
  11.347
 50
  90.000
  0
INSERT
  8
2
  2
ARROW
 10
7938.667  
 20
-297.086  
 41
  11.347
 42
  11.347
 43
  11.347
 50
 -90.000
  0
TEXT
  8
11
 7
SIMPLEX
 10
7854.700  
 20
-294.396  
 40
   32.280
  1
75
 50
    0.000
  0
LINE
  8
2
 10
250.000   
 20
262.038   
 11
250.000   
 21
305.270   
  0
LINE
  8
2
 10
324.935   
 20
296.624   
 11
250.000   
 21
296.624   
  0
INSERT
  8
2
  2
ARROW
 10
250.000   
 20
296.624   
 41
  11.347
 42
  11.347
 43
  11.347
 50
 180.000
  0
LINE
  8
2
 10
7984.780  
 20
262.038   
 11
7984.780  
 21
305.270   
  0
LINE
  8
2
 10
7909.844  
 20
296.624   
 11
7984.780  
 21
296.624   
  0
INSERT
  8
2
  2
ARROW
 10
7984.780  
 20
296.624   
 41
  11.347
 42
  11.347
 43
  11.347
 50
   0.000
  0
TEXT
  8
11
 7
SIMPLEX
 10
7844.900  
 20
307.384   
 40
   32.280
  1
7735
 50
    0.000
  0
LINE
  8
2
 10
8084.780  
 20
262.038   
 11
8084.780  
 21
350.462   
  0
LINE
  8
2
 10
8047.313  
 20
341.816   
 11
8084.780  
 21
341.816   
  0
INSERT
  8
2
  2
ARROW
 10
8084.780  
 20
341.816   
 41
  11.347
 42
  11.347
 43
  11.347
 50
   0.000
  0
TEXT
  8
11
 7
SIMPLEX
 10
7944.900  
 20
352.576   
 40
   32.280
  1
7835
 50
    0.000
  0
LINE
  8
2
 10
250.000   
 20
166.928   
 11
250.000   
 21
224.571   
  0
LINE
  8
2
 10
500.000   
 20
166.928   
 11
500.000   
 21
224.571   
  0
LINE
  8
2
 10
250.000   
 20
215.924   
 11
500.000   
 21
215.924   
  0
INSERT
  8
2
  2
ARROW
 10
250.000   
 20
215.924   
 41
  11.347
 42
  11.347
 43
  11.347
 50
 180.000
  0
INSERT
  8
2
  2
ARROW
 10
500.000   
 20
215.924   
 41
  11.347
 42
  11.347
 43
  11.347
 50
   0.000
  0
TEXT
  8
11
 7
SIMPLEX
 10
392.400   
 20
226.684   
 40
   32.280
  1
250
 50
    0.000
  0
LINE
  8
2
 10
7492.707  
 20
-6.000    
 11
7455.239  
 21
-6.000    
  0
LINE
  8
2
 10
7492.707  
 20
-81.000   
 11
7455.239  
 21
-81.000   
  0
LINE
  8
2
 10
7463.886  
 20
-6.000    
 11
7463.886  
 21
-81.000   
  0
INSERT
  8
2
  2
ARROW
 10
7463.886  
 20
-6.000    
 41
  11.347
 42
  11.347
 43
  11.347
 50
  90.000
  0
INSERT
  8
2
  2
ARROW
 10
7463.886  
 20
-81.000   
 41
  11.347
 42
  11.347
 43
  11.347
 50
 -90.000
  0
TEXT
  8
11
 7
SIMPLEX
 10
7379.920  
 20
-65.020   
 40
   32.280
  1
75
 50
    0.000
  0
LINE
  8
2
 10
7510.000  
 20
166.928   
 11
7510.000  
 21
224.570   
  0
LINE
  8
2
 10
7475.414  
 20
215.924   
 11
7510.000  
 21
215.924   
  0
INSERT
  8
2
  2
ARROW
 10
7510.000  
 20
215.924   
 41
  11.347
 42
  11.347
 43
  11.347
 50
   0.000
  0
TEXT
  8
11
 7
SIMPLEX
 10
7370.120  
 20
226.684   
 40
   32.280
  1
7260
 50
    0.000
  0
LINE
  8
2
 10
7810.000  
 20
166.928   
 11
7810.000  
 21
269.762   
  0
LINE
  8
2
 10
7775.415  
 20
261.116   
 11
7810.000  
 21
261.116   
  0
INSERT
  8
2
  2
ARROW
 10
7810.000  
 20
261.116   
 41
  11.347
 42
  11.347
 43
  11.347
 50
   0.000
  0
TEXT
  8
11
 7
SIMPLEX
 10
7670.120  
 20
271.876   
 40
   32.280
  1
7560
 50
    0.000
  0
LINE
  8
2
 10
250.000   
 20
-476.612  
 11
250.000   
 21
-1287.949 
  0
LINE
  8
2
 10
7080.000  
 20
-476.613  
 11
7080.000  
 21
-1287.949 
  0
LINE
  8
2
 10
250.000   
 20
-1279.303 
 11
7080.000  
 21
-1279.303 
  0
INSERT
  8
2
  2
ARROW
 10
250.000   
 20
-1279.303 
 41
  11.347
 42
  11.347
 43
  11.347
 50
 180.000
  0
INSERT
  8
2
  2
ARROW
 10
7080.000  
 20
-1279.303 
 41
  11.347
 42
  11.347
 43
  11.347
 50
   0.000
  0
TEXT
  8
11
 7
SIMPLEX
 10
3600.440  
 20
-1268.543 
 40
   32.280
  1
6830
 50
    0.000
  0
LINE
  8
2
 10
7714.793  
 20
-6.000    
 11
7752.261  
 21
-6.000    
  0
LINE
  8
2
 10
7714.793  
 20
-49.232   
 11
7752.261  
 21
-49.232   
  0
LINE
  8
2
 10
7743.614  
 20
-6.000    
 11
7743.614  
 21
-49.232   
  0
INSERT
  8
2
  2
ARROW
 10
7743.614  
 20
-6.000    
 41
  11.347
 42
  11.347
 43
  11.347
 50
  90.000
  0
INSERT
  8
2
  2
ARROW
 10
7743.614  
 20
-49.232   
 41
  11.347
 42
  11.347
 43
  11.347
 50
 -90.000
  0
TEXT
  8
11
 7
SIMPLEX
 10
7763.021  
 20
-49.136   
 40
   32.280
  1
150
 50
    0.000
  0
LINE
  8
2
 10
250.000   
 20
71.818    
 11
250.000   
 21
102.080   
  0
LINE
  8
2
 10
7697.500  
 20
71.817    
 11
7697.500  
 21
102.080   
  0
LINE
  8
2
 10
250.000   
 20
93.434    
 11
7697.500  
 21
93.433    
  0
INSERT
  8
2
  2
ARROW
 10
250.000   
 20
93.434    
 41
  11.347
 42
  11.347
 43
  11.347
 50
 180.000
  0
INSERT
  8
2
  2
ARROW
 10
7697.500  
 20
93.433    
 41
  11.347
 42
  11.347
 43
  11.347
 50
   0.000
  0
TEXT
  8
11
 7
SIMPLEX
 10
3909.190  
 20
104.193   
 40
   32.280
  1
7448
 50
    0.000
  0
LINE
  8
2
 10
250.000   
 20
162.605   
 11
250.000   
 21
192.867   
  0
LINE
  8
2
 10
3310.000  
 20
162.605   
 11
3310.000  
 21
192.867   
  0
LINE
  8
2
 10
250.000   
 20
184.221   
 11
3310.000  
 21
184.221   
  0
INSERT
  8
2
  2
ARROW
 10
250.000   
 20
184.221   
 41
  11.347
 42
  11.347
 43
  11.347
 50
 180.000
  0
INSERT
  8
2
  2
ARROW
 10
3310.000  
 20
184.221   
 41
  11.347
 42
  11.347
 43
  11.347
 50
   0.000
  0
TEXT
  8
11
 7
SIMPLEX
 10
1715.440  
 20
194.981   
 40
   32.280
  1
3060
 50
    0.000
  0
LINE
  8
2
 10
4510.000  
 20
162.605   
 11
4510.000  
 21
192.867   
  0
LINE
  8
2
 10
4437.946  
 20
184.221   
 11
4510.000  
 21
184.221   
  0
INSERT
  8
2
  2
ARROW
 10
4510.000  
 20
184.221   
 41
  11.347
 42
  11.347
 43
  11.347
 50
   0.000
  0
TEXT
  8
11
 7
SIMPLEX
 10
4370.121  
 20
194.981   
 40
   32.280
  1
4260
 50
    0.000
  0
LINE
  8
2
 10
6010.000  
 20
162.605   
 11
6010.000  
 21
192.867   
  0
LINE
  8
2
 10
5937.946  
 20
184.221   
 11
6010.000  
 21
184.221   
  0
INSERT
  8
2
  2
ARROW
 10
6010.000  
 20
184.221   
 41
  11.347
 42
  11.347
 43
  11.347
 50
   0.000
  0
TEXT
  8
11
 7
SIMPLEX
 10
5870.120  
 20
194.981   
 40
   32.280
  1
5760
 50
    0.000
  0
LINE
  8
2
 10
7510.000  
 20
162.605   
 11
7510.000  
 21
192.867   
  0
LINE
  8
2
 10
7437.947  
 20
184.221   
 11
7510.000  
 21
184.221   
  0
INSERT
  8
2
  2
ARROW
 10
7510.000  
 20
184.221   
 41
  11.347
 42
  11.347
 43
  11.347
 50
   0.000
  0
TEXT
  8
11
 7
SIMPLEX
 10
7370.120  
 20
194.980   
 40
   32.280
  1
7260
 50
    0.000
  0
LINE
  8
2
 10
8510.001  
 20
162.604   
 11
8510.001  
 21
192.867   
  0
LINE
  8
2
 10
8437.947  
 20
184.220   
 11
8510.001  
 21
184.220   
  0
INSERT
  8
2
  2
ARROW
 10
8510.001  
 20
184.220   
 41
  11.347
 42
  11.347
 43
  11.347
 50
   0.000
  0
TEXT
  8
11
 7
SIMPLEX
 10
8370.121  
 20
194.980   
 40
   32.280
  1
8260
 50
    0.000
  0
INSERT
  8
15
  2
CIRCLE
 10
235.589   
 20
6.970     
 41
   0.567
 42
   0.567
 43
   0.567
 50
   0.000
  0
INSERT
  8
15
  2
CIRCLE
 10
235.589   
 20
-418.970  
 41
   0.567
 42
   0.567
 43
   0.567
 50
   0.000
  0
INSERT
  8
15
  2
CIRCLE
 10
8776.888  
 20
-418.970  
 41
   0.567
 42
   0.567
 43
   0.567
 50
   0.000
  0
INSERT
  8
15
  2
CIRCLE
 10
8776.888  
 20
6.969     
 41
   0.567
 42
   0.567
 43
   0.567
 50
   0.000
  0
LINE
  8
2
 10
235.589   
 20
104.918   
 11
235.589   
 21
525.754   
  0
LINE
  8
2
 10
8776.888  
 20
104.917   
 11
8776.888  
 21
525.753   
  0
LINE
  8
2
 10
235.589   
 20
517.107   
 11
8776.888  
 21
517.107   
  0
INSERT
  8
2
  2
ARROW
 10
235.589   
 20
517.107   
 41
  11.347
 42
  11.347
 43
  11.347
 50
 180.000
  0
INSERT
  8
2
  2
ARROW
 10
8776.888  
 20
517.107   
 41
  11.347
 42
  11.347
 43
  11.347
 50
   0.000
  0
TEXT
  8
11
 7
SIMPLEX
 10
4441.679  
 20
527.867   
 40
   32.280
  1
8548
 50
    0.000
  0
LINE
  8
2
 10
250.000   
 20
91.948    
 11
250.000   
 21
262.038   
  0
LINE
  8
2
 10
322.053   
 20
253.392   
 11
250.000   
 21
253.392   
  0
INSERT
  8
2
  2
ARROW
 10
250.000   
 20
253.392   
 41
  11.347
 42
  11.347
 43
  11.347
 50
 180.000
  0
LINE
  8
2
 10
6344.000  
 20
66.053    
 11
6344.000  
 21
262.038   
  0
LINE
  8
2
 10
6271.946  
 20
253.392   
 11
6344.000  
 21
253.392   
  0
INSERT
  8
2
  2
ARROW
 10
6344.000  
 20
253.392   
 41
  11.347
 42
  11.347
 43
  11.347
 50
   0.000
  0
TEXT
  8
11
 7
SIMPLEX
 10
6204.121  
 20
264.152   
 40
   32.280
  1
6094
 50
    0.000
  0
LINE
  8
2
 10
6710.000  
 20
66.053    
 11
6710.000  
 21
262.038   
  0
LINE
  8
2
 10
6637.947  
 20
253.392   
 11
6710.000  
 21
253.392   
  0
INSERT
  8
2
  2
ARROW
 10
6710.000  
 20
253.392   
 41
  11.347
 42
  11.347
 43
  11.347
 50
   0.000
  0
TEXT
  8
11
 7
SIMPLEX
 10
6570.121  
 20
264.152   
 40
   32.280
  1
6460
 50
    0.000
  0
LINE
  8
2
 10
7080.000  
 20
66.053    
 11
7080.000  
 21
262.038   
  0
LINE
  8
2
 10
7007.947  
 20
253.392   
 11
7080.000  
 21
253.392   
  0
INSERT
  8
2
  2
ARROW
 10
7080.000  
 20
253.392   
 41
  11.347
 42
  11.347
 43
  11.347
 50
   0.000
  0
TEXT
  8
11
 7
SIMPLEX
 10
6940.120  
 20
264.152   
 40
   32.280
  1
6830
 50
    0.000
  0
LINE
  8
3
 10
250.000   
 20
93.434    
 11
250.000   
 21
381.647   
  0
LINE
  8
3
 10
250.000   
 20
295.183   
 11
56.321    
 21
295.183   
  0
INSERT
  8
3
  2
ARROW
 10
250.000   
 20
295.183   
 41
  11.347
 42
  11.347
 43
  11.347
 50
   0.000
  0
TEXT
  8
3
 7
SIMPLEX
 10
88.601    
 20
303.253   
 40
   32.280
  1
Tape
 50
    0.000
  0
TEXT
  8
3
 7
SIMPLEX
 10
88.601    
 20
254.833   
 40
   32.280
  1
(Typ)
 50
    0.000
  0
LINE
  8
3
 10
250.000   
 20
-505.434  
 11
250.000   
 21
-707.183  
  0
LINE
  8
3
 10
250.000   
 20
-692.772  
 11
56.321    
 21
-692.772  
  0
INSERT
  8
3
  2
ARROW
 10
250.000   
 20
-692.772  
 41
  11.347
 42
  11.347
 43
  11.347
 50
   0.000
  0
TEXT
  8
3
 7
SIMPLEX
 10
88.601    
 20
-684.702  
 40
   32.280
  1
Tape
 50
    0.000
  0
TEXT
  8
3
 7
SIMPLEX
 10
88.601    
 20
-733.122  
 40
   32.280
  1
(Typ)
 50
    0.000
  0
LINE
  8
1
 10
6710.000  
 20
-418.970  
 11
6710.000  
 21
-1174.970 
  0
LINE
  8
1
 10
6344.000  
 20
-1174.970 
 11
6344.000  
 21
-418.970  
  0
LINE
  8
1
 10
6710.000  
 20
-1174.970 
 11
6344.000  
 21
-1174.970 
  0
LINE
  8
1
 10
6710.000  
 20
-418.970  
 11
6344.000  
 21
-418.970  
  0
TEXT
  8
0
 7
SIMPLEX
 10
6494.721  
 20
-829.250  
 40
   32.280
  1
BW1
 50
   -1.571
  0
TEXT
  8
3
 7
SIMPLEX
 10
6745.163  
 20
-633.310  
 40
   32.280
  1
BO1
 50
    0.000
  0
LINE
  8
3
 10
6712.882  
 20
-638.690  
 11
6784.936  
 21
-638.690  
  0
INSERT
  8
3
  2
ARROWP
 10
6712.882  
 20
-638.690  
 41
  11.347
 42
  11.347
 43
  11.347
 50
 180.000
  0
TEXT
  8
3
 7
SIMPLEX
 10
6244.278  
 20
-633.310  
 40
   32.280
  1
BI1
 50
    0.000
  0
LINE
  8
3
 10
6341.118  
 20
-638.690  
 11
6269.065  
 21
-638.690  
  0
INSERT
  8
3
  2
ARROWP
 10
6341.118  
 20
-638.690  
 41
  11.347
 42
  11.347
 43
  11.347
 50
   0.000
  0
LINE
  8
1
 10
6697.031  
 20
-418.970  
 11
6697.031  
 21
-1174.970 
  0
LINE
  8
1
 10
6356.970  
 20
-1174.970 
 11
6356.970  
 21
-418.970  
  0
INSERT
  8
6
  2
FLGHOL
 10
6697.031  
 20
-1024.970 
 41
  -0.511
 42
  -0.511
 43
  -0.511
 50
  90.000
  0
LINE
  8
2
 10
6714.323  
 20
-1024.970 
 11
6748.909  
 21
-1024.970 
  0
LINE
  8
2
 10
6714.323  
 20
-1174.970 
 11
6748.909  
 21
-1174.970 
  0
LINE
  8
2
 10
6740.262  
 20
-1024.970 
 11
6740.262  
 21
-1174.970 
  0
INSERT
  8
2
  2
ARROW
 10
6740.262  
 20
-1024.970 
 41
  11.347
 42
  11.347
 43
  11.347
 50
  90.000
  0
INSERT
  8
2
  2
ARROW
 10
6740.262  
 20
-1174.970 
 41
  11.347
 42
  11.347
 43
  11.347
 50
 -90.000
  0
TEXT
  8
11
 7
SIMPLEX
 10
6759.668  
 20
-1121.490 
 40
   32.280
  1
150
 50
    0.000
  0
TEXT
  8
21
 7
SIMPLEX
 10
6729.311  
 20
-1271.810 
 40
   32.280
  1
G=100
 50
    0.000
  0
TEXT
  8
21
 7
SIMPLEX
 10
6729.311  
 20
-1223.390 
 40
   32.280
  1
Slot=22x56
 50
    0.000
  0
INSERT
  8
6
  2
FLGHOL
 10
6697.031  
 20
-924.970  
 41
  -0.511
 42
  -0.511
 43
  -0.511
 50
  90.000
  0
LINE
  8
2
 10
6714.323  
 20
-924.970  
 11
6766.202  
 21
-924.970  
  0
LINE
  8
2
 10
6757.555  
 20
-950.909  
 11
6757.555  
 21
-924.970  
  0
INSERT
  8
2
  2
ARROW
 10
6757.555  
 20
-924.970  
 41
  11.347
 42
  11.347
 43
  11.347
 50
  90.000
  0
TEXT
  8
11
 7
SIMPLEX
 10
6776.961  
 20
-956.174  
 40
   32.280
  1
250
 50
    0.000
  0
LINE
  8
1
 10
6344.000  
 20
-1174.970 
 11
6293.200  
 21
-1174.970 
  0
LINE
  8
1
 10
5807.523  
 20
-418.970  
 11
6293.200  
 21
-1174.970 
  0
TEXT
  8
3
 7
SIMPLEX
 10
5950.640  
 20
-759.310  
 40
   32.280
  1
SS1
 50
    0.000
  0
LINE
  8
3
 10
6047.479  
 20
-764.690  
 11
5975.426  
 21
-764.690  
  0
INSERT
  8
3
  2
ARROWP
 10
6047.479  
 20
-764.690  
 41
  11.347
 42
  11.347
 43
  11.347
 50
   0.000
  0
ENDBLK
  8
2
  0
BLOCK
  8
0
  2
ASMBASE
 70
     0
 10
0.000     
 20
0.000     
  0
LINE
  8
0
 10
0.000     
 20
0.000     
 11
25.400    
 21
0.000     
  0
LINE
  8
0
 10
25.400    
 20
0.000     
 11
25.400    
 21
25.400    
  0
LINE
  8
0
 10
25.400    
 20
25.400    
 11
0.000     
 21
25.400    
  0
LINE
  8
0
 10
0.000     
 20
25.400    
 11
0.000     
 21
0.000     
  0
LINE
  8
0
 10
5.080     
 20
2.540     
 11
20.320    
 21
2.540     
  0
LINE
  8
0
 10
20.320    
 20
2.540     
 11
20.320    
 21
22.860    
  0
LINE
  8
0
 10
20.320    
 20
22.860    
 11
5.080     
 21
22.860    
  0
LINE
  8
0
 10
5.080     
 20
22.860    
 11
5.080     
 21
2.540     
  0
LINE
  8
0
 10
6.350     
 20
17.628    
 11
19.050    
 21
17.628    
  0
LINE
  8
0
 10
19.050    
 20
17.628    
 11
19.050    
 21
17.882    
  0
LINE
  8
0
 10
19.050    
 20
17.882    
 11
6.350     
 21
17.882    
  0
LINE
  8
0
 10
6.350     
 20
17.882    
 11
6.350     
 21
17.628    
  0
LINE
  8
0
 10
12.573    
 20
17.628    
 11
12.827    
 21
17.628    
  0
LINE
  8
0
 10
12.827    
 20
17.628    
 11
12.827    
 21
7.739     
  0
LINE
  8
0
 10
12.827    
 20
7.739     
 11
12.573    
 21
7.739     
  0
LINE
  8
0
 10
12.573    
 20
7.739     
 11
12.573    
 21
17.628    
  0
LINE
  8
0
 10
6.350     
 20
7.485     
 11
19.050    
 21
7.485     
  0
LINE
  8
0
 10
19.050    
 20
7.485     
 11
19.050    
 21
7.739     
  0
LINE
  8
0
 10
19.050    
 20
7.739     
 11
6.350     
 21
7.739     
  0
LINE
  8
0
 10
6.350     
 20
7.739     
 11
6.350     
 21
7.485     
  0
CIRCLE
  8
1
 10
     9.652
 20
    20.320
 40
     0.254
  0
CIRCLE
  8
1
 10
    15.748
 20
    20.320
 40
     0.254
  0
CIRCLE
  8
1
 10
     9.652
 20
    15.240
 40
     0.254
  0
CIRCLE
  8
1
 10
    15.748
 20
    15.240
 40
     0.254
  0
CIRCLE
  8
1
 10
     9.652
 20
    10.160
 40
     0.254
  0
CIRCLE
  8
1
 10
    15.748
 20
    10.160
 40
     0.254
  0
CIRCLE
  8
1
 10
     9.652
 20
     5.080
 40
     0.254
  0
CIRCLE
  8
1
 10
    15.748
 20
     5.080
 40
     0.254
  0
LINE
  8
0
 10
12.700    
 20
17.882    
 11
12.700    
 21
22.352    
  0
TEXT
  8
1
 7
SIMPLEX
 10
12.459    
 20
18.363    
 40
    0.963
  1
SS2
 50
   90.000
  0
LINE
  8
0
 10
12.700    
 20
7.485     
 11
12.700    
 21
3.048     
  0
TEXT
  8
1
 7
SIMPLEX
 10
12.459    
 20
4.353     
 40
    0.963
  1
SS3
 50
   90.000
  0
TEXT
  8
1
 7
SIMPLEX
 10
0.482     
 20
23.955    
 40
    0.963
  1
EP4
 50
    0.000
  0
TEXT
  8
1
 7
SIMPLEX
 10
0.482     
 20
0.482     
 40
    0.867
  1
CENTER GUSSET BETWEEN HOLES
 50
    0.000
  0
ENDBLK
  8
0
  0
BLOCK
  8
0
  2
ASMPLATE
 70
     0
 10
0.000     
 20
0.000     
  0
LINE
  8
14
 10
0.000     
 20
0.000     
 11
186.690   
 21
0.000     
  0
LINE
  8
14
 10
0.000     
 20
8.096     
 11
186.690   
 21
8.096     
  0
LINE
  8
14
 10
0.000     
 20
0.000     
 11
0.000     
 21
139.065   
  0
LINE
  8
14
 10
0.000     
 20
139.065   
 11
186.690   
 21
139.065   
  0
LINE
  8
14
 10
45.720    
 20
8.096     
 11
45.720    
 21
139.065   
  0
LINE
  8
14
 10
60.960    
 20
8.096     
 11
60.960    
 21
139.065   
  0
LINE
  8
14
 10
156.210   
 20
8.096     
 11
156.210   
 21
139.065   
  0
LINE
  8
14
 10
156.210   
 20
8.096     
 11
156.210   
 21
139.065   
  0
LINE
  8
14
 10
186.690   
 20
8.096     
 11
186.690   
 21
139.065   
  0
LINE
  8
14
 10
186.690   
 20
0.000     
 11
186.690   
 21
139.065   
  0
LINE
  8
14
 10
0.000     
 20
129.540   
 11
186.690   
 21
129.540   
  0
TEXT
  8
14
 7
SIMPLEX
 10
1.143     
 20
131.826   
 40
    3.810
  1
MARK
 50
    0.000
  0
TEXT
  8
14
 7
SIMPLEX
 10
47.625    
 20
131.826   
 40
    3.810
  1
QNT
 50
    0.000
  0
TEXT
  8
14
 7
SIMPLEX
 10
72.390    
 20
131.826   
 40
    3.810
  1
DESCRIPTION
 50
    0.000
  0
TEXT
  8
14
 7
SIMPLEX
 10
158.115   
 20
131.826   
 40
    3.810
  1
WEIGHT
 50
    0.000
  0
LINE
  8
14
 10
0.000     
 20
122.873   
 11
186.690   
 21
122.873   
  0
TEXT
  8
14
 7
SIMPLEX
 10
2.667     
 20
123.825   
 40
    3.810
  1
WB4
 50
    0.000
  0
TEXT
  8
14
 7
SIMPLEX
 10
45.910    
 20
123.825   
 40
    3.810
  1
  1
 50
    0.000
  0
TEXT
  8
14
 7
SIMPLEX
 10
63.627    
 20
123.825   
 40
    3.810
  1
5    x 400 x 8512
 50
    0.000
  0
TEXT
  8
14
 7
SIMPLEX
 10
182.880   
 20
123.825   
 40
    3.810
 72
  2
 11
182.880   
 21
123.825   
  1
  136.2
 50
    0.000
  0
LINE
  8
14
 10
0.000     
 20
117.158   
 11
186.690   
 21
117.158   
  0
TEXT
  8
14
 7
SIMPLEX
 10
2.667     
 20
118.110   
 40
    3.810
  1
BW1
 50
    0.000
  0
TEXT
  8
14
 7
SIMPLEX
 10
45.910    
 20
118.110   
 40
    3.810
  1
  1
 50
    0.000
  0
TEXT
  8
14
 7
SIMPLEX
 10
63.627    
 20
118.110   
 40
    3.810
  1
5    x 350 x 756
 50
    0.000
  0
TEXT
  8
14
 7
SIMPLEX
 10
182.880   
 20
118.110   
 40
    3.810
 72
  2
 11
182.880   
 21
118.110   
  1
   10.6
 50
    0.000
  0
LINE
  8
14
 10
0.000     
 20
111.443   
 11
186.690   
 21
111.443   
  0
TEXT
  8
14
 7
SIMPLEX
 10
2.667     
 20
112.395   
 40
    3.810
  1
OF4
 50
    0.000
  0
TEXT
  8
14
 7
SIMPLEX
 10
45.910    
 20
112.395   
 40
    3.810
  1
  1
 50
    0.000
  0
TEXT
  8
14
 7
SIMPLEX
 10
63.627    
 20
112.395   
 40
    3.810
  1
6    x 150 x 8512
 50
    0.000
  0
TEXT
  8
14
 7
SIMPLEX
 10
182.880   
 20
112.395   
 40
    3.810
 72
  2
 11
182.880   
 21
112.395   
  1
   61.3
 50
    0.000
  0
LINE
  8
14
 10
0.000     
 20
105.728   
 11
186.690   
 21
105.728   
  0
TEXT
  8
14
 7
SIMPLEX
 10
2.667     
 20
106.680   
 40
    3.810
  1
BO1
 50
    0.000
  0
TEXT
  8
14
 7
SIMPLEX
 10
45.910    
 20
106.680   
 40
    3.810
  1
  1
 50
    0.000
  0
TEXT
  8
14
 7
SIMPLEX
 10
63.627    
 20
106.680   
 40
    3.810
  1
8    x 225 x 756
 50
    0.000
  0
TEXT
  8
14
 7
SIMPLEX
 10
182.880   
 20
106.680   
 40
    3.810
 72
  2
 11
182.880   
 21
106.680   
  1
   10.9
 50
    0.000
  0
LINE
  8
14
 10
0.000     
 20
100.013   
 11
186.690   
 21
100.013   
  0
TEXT
  8
14
 7
SIMPLEX
 10
2.667     
 20
100.965   
 40
    3.810
  1
IF3
 50
    0.000
  0
TEXT
  8
14
 7
SIMPLEX
 10
45.910    
 20
100.965   
 40
    3.810
  1
  1
 50
    0.000
  0
TEXT
  8
14
 7
SIMPLEX
 10
63.627    
 20
100.965   
 40
    3.810
  1
8    x 150 x 8512
 50
    0.000
  0
TEXT
  8
14
 7
SIMPLEX
 10
182.880   
 20
100.965   
 40
    3.810
 72
  2
 11
182.880   
 21
100.965   
  1
   81.7
 50
    0.000
  0
LINE
  8
14
 10
0.000     
 20
94.298    
 11
186.690   
 21
94.298    
  0
TEXT
  8
14
 7
SIMPLEX
 10
2.667     
 20
95.250    
 40
    3.810
  1
BI1
 50
    0.000
  0
TEXT
  8
14
 7
SIMPLEX
 10
45.910    
 20
95.250    
 40
    3.810
  1
  1
 50
    0.000
  0
TEXT
  8
14
 7
SIMPLEX
 10
63.627    
 20
95.250    
 40
    3.810
  1
8    x 225 x 756
 50
    0.000
  0
TEXT
  8
14
 7
SIMPLEX
 10
182.880   
 20
95.250    
 40
    3.810
 72
  2
 11
182.880   
 21
95.250    
  1
   10.9
 50
    0.000
  0
LINE
  8
14
 10
0.000     
 20
88.583    
 11
186.690   
 21
88.583    
  0
TEXT
  8
14
 7
SIMPLEX
 10
2.667     
 20
89.535    
 40
    3.810
  1
EP4
 50
    0.000
  0
TEXT
  8
14
 7
SIMPLEX
 10
45.910    
 20
89.535    
 40
    3.810
  1
  1
 50
    0.000
  0
TEXT
  8
14
 7
SIMPLEX
 10
63.627    
 20
89.535    
 40
    3.810
  1
20   x 250 x 707
 50
    0.000
  0
TEXT
  8
14
 7
SIMPLEX
 10
182.880   
 20
89.535    
 40
    3.810
 72
  2
 11
182.880   
 21
89.535    
  1
   28.3
 50
    0.000
  0
LINE
  8
14
 10
0.000     
 20
82.868    
 11
186.690   
 21
82.868    
  0
TEXT
  8
14
 7
SIMPLEX
 10
2.667     
 20
83.820    
 40
    3.810
  1
EP2
 50
    0.000
  0
TEXT
  8
14
 7
SIMPLEX
 10
45.910    
 20
83.820    
 40
    3.810
  1
  1
 50
    0.000
  0
TEXT
  8
14
 7
SIMPLEX
 10
63.627    
 20
83.820    
 40
    3.810
  1
16   x 200 x 600
 50
    0.000
  0
TEXT
  8
14
 7
SIMPLEX
 10
182.880   
 20
83.820    
 40
    3.810
 72
  2
 11
182.880   
 21
83.820    
  1
   15.4
 50
    0.000
  0
LINE
  8
14
 10
0.000     
 20
77.153    
 11
186.690   
 21
77.153    
  0
TEXT
  8
14
 7
SIMPLEX
 10
2.667     
 20
78.105    
 40
    3.810
  1
ST1
 50
    0.000
  0
TEXT
  8
14
 7
SIMPLEX
 10
45.910    
 20
78.105    
 40
    3.810
  1
  4
 50
    0.000
  0
TEXT
  8
14
 7
SIMPLEX
 10
63.627    
 20
78.105    
 40
    3.810
  1
6    x 70  x 300
 50
    0.000
  0
TEXT
  8
14
 7
SIMPLEX
 10
182.880   
 20
78.105    
 40
    3.810
 72
  2
 11
182.880   
 21
78.105    
  1
    4.0
 50
    0.000
  0
LINE
  8
14
 10
0.000     
 20
71.438    
 11
186.690   
 21
71.438    
  0
TEXT
  8
14
 7
SIMPLEX
 10
2.667     
 20
72.390    
 40
    3.810
  1
ST2
 50
    0.000
  0
TEXT
  8
14
 7
SIMPLEX
 10
45.910    
 20
72.390    
 40
    3.810
  1
  2
 50
    0.000
  0
TEXT
  8
14
 7
SIMPLEX
 10
63.627    
 20
72.390    
 40
    3.810
  1
6    x 140 x 300
 50
    0.000
  0
TEXT
  8
14
 7
SIMPLEX
 10
182.880   
 20
72.390    
 40
    3.810
 72
  2
 11
182.880   
 21
72.390    
  1
    4.0
 50
    0.000
  0
LINE
  8
14
 10
0.000     
 20
65.723    
 11
186.690   
 21
65.723    
  0
TEXT
  8
14
 7
SIMPLEX
 10
2.667     
 20
66.675    
 40
    3.810
  1
SS1
 50
    0.000
  0
TEXT
  8
14
 7
SIMPLEX
 10
45.910    
 20
66.675    
 40
    3.810
  1
  1
 50
    0.000
  0
TEXT
  8
14
 7
SIMPLEX
 10
63.627    
 20
66.675    
 40
    3.810
  1
5    x 536 x 756
 50
    0.000
  0
TEXT
  8
14
 7
SIMPLEX
 10
182.880   
 20
66.675    
 40
    3.810
 72
  2
 11
182.880   
 21
66.675    
  1
   16.2
 50
    0.000
  0
LINE
  8
14
 10
0.000     
 20
60.008    
 11
186.690   
 21
60.008    
  0
TEXT
  8
14
 7
SIMPLEX
 10
2.667     
 20
60.960    
 40
    3.810
  1
SS2
 50
    0.000
  0
TEXT
  8
14
 7
SIMPLEX
 10
45.910    
 20
60.960    
 40
    3.810
  1
  1
 50
    0.000
  0
TEXT
  8
14
 7
SIMPLEX
 10
63.627    
 20
60.960    
 40
    3.810
  1
12   x 197 x 147
 50
    0.000
  0
TEXT
  8
14
 7
SIMPLEX
 10
182.880   
 20
60.960    
 40
    3.810
 72
  2
 11
182.880   
 21
60.960    
  1
    2.8
 50
    0.000
  0
LINE
  8
14
 10
0.000     
 20
54.293    
 11
186.690   
 21
54.293    
  0
TEXT
  8
14
 7
SIMPLEX
 10
2.667     
 20
55.245    
 40
    3.810
  1
SS3
 50
    0.000
  0
TEXT
  8
14
 7
SIMPLEX
 10
45.910    
 20
55.245    
 40
    3.810
  1
  1
 50
    0.000
  0
TEXT
  8
14
 7
SIMPLEX
 10
63.627    
 20
55.245    
 40
    3.810
  1
12   x 196 x 146
 50
    0.000
  0
TEXT
  8
14
 7
SIMPLEX
 10
182.880   
 20
55.245    
 40
    3.810
 72
  2
 11
182.880   
 21
55.245    
  1
    2.8
 50
    0.000
  0
LINE
  8
14
 10
0.000     
 20
48.578    
 11
186.690   
 21
48.578    
  0
TEXT
  8
14
 7
SIMPLEX
 10
2.667     
 20
49.530    
 40
    3.810
  1
SS4
 50
    0.000
  0
TEXT
  8
14
 7
SIMPLEX
 10
45.910    
 20
49.530    
 40
    3.810
  1
  1
 50
    0.000
  0
TEXT
  8
14
 7
SIMPLEX
 10
63.627    
 20
49.530    
 40
    3.810
  1
5    x 120 x 94
 50
    0.000
  0
TEXT
  8
14
 7
SIMPLEX
 10
182.880   
 20
49.530    
 40
    3.810
 72
  2
 11
182.880   
 21
49.530    
  1
    0.4
 50
    0.000
  0
LINE
  8
14
 10
0.000     
 20
42.863    
 11
186.690   
 21
42.863    
  0
TEXT
  8
14
 7
SIMPLEX
 10
2.667     
 20
43.815    
 40
    3.810
  1
SS5
 50
    0.000
  0
TEXT
  8
14
 7
SIMPLEX
 10
45.910    
 20
43.815    
 40
    3.810
  1
  1
 50
    0.000
  0
TEXT
  8
14
 7
SIMPLEX
 10
63.627    
 20
43.815    
 40
    3.810
  1
5    x 120 x 92
 50
    0.000
  0
TEXT
  8
14
 7
SIMPLEX
 10
182.880   
 20
43.815    
 40
    3.810
 72
  2
 11
182.880   
 21
43.815    
  1
    0.4
 50
    0.000
  0
LINE
  8
14
 10
0.000     
 20
37.148    
 11
186.690   
 21
37.148    
  0
TEXT
  8
14
 7
SIMPLEX
 10
2.667     
 20
38.100    
 40
    3.810
  1
CLF1
 50
    0.000
  0
TEXT
  8
14
 7
SIMPLEX
 10
45.910    
 20
38.100    
 40
    3.810
  1
  4
 50
    0.000
  0
TEXT
  8
14
 7
SIMPLEX
 10
63.627    
 20
38.100    
 40
    3.810
  1
5    x 75  x 75
 50
    0.000
  0
TEXT
  8
14
 7
SIMPLEX
 10
182.880   
 20
38.100    
 40
    3.810
 72
  2
 11
182.880   
 21
38.100    
  1
    0.9
 50
    0.000
  0
LINE
  8
14
 10
0.000     
 20
31.433    
 11
186.690   
 21
31.433    
  0
TEXT
  8
14
 7
SIMPLEX
 10
2.667     
 20
32.385    
 40
    3.810
  1
CLF2
 50
    0.000
  0
TEXT
  8
14
 7
SIMPLEX
 10
45.910    
 20
32.385    
 40
    3.810
  1
  2
 50
    0.000
  0
TEXT
  8
14
 7
SIMPLEX
 10
63.627    
 20
32.385    
 40
    3.810
  1
10   x 150 x 120
 50
    0.000
  0
TEXT
  8
14
 7
SIMPLEX
 10
182.880   
 20
32.385    
 40
    3.810
 72
  2
 11
182.880   
 21
32.385    
  1
    2.9
 50
    0.000
  0
LINE
  8
14
 10
0.000     
 20
25.718    
 11
186.690   
 21
25.718    
  0
TEXT
  8
14
 7
SIMPLEX
 10
2.667     
 20
26.670    
 40
    3.810
  1
CLF3
 50
    0.000
  0
TEXT
  8
14
 7
SIMPLEX
 10
45.910    
 20
26.670    
 40
    3.810
  1
  5
 50
    0.000
  0
TEXT
  8
14
 7
SIMPLEX
 10
63.627    
 20
26.670    
 40
    3.810
  1
5    x 150 x 205
 50
    0.000
  0
TEXT
  8
14
 7
SIMPLEX
 10
182.880   
 20
26.670    
 40
    3.810
 72
  2
 11
182.880   
 21
26.670    
  1
    6.2
 50
    0.000
  0
LINE
  8
14
 10
0.000     
 20
20.003    
 11
186.690   
 21
20.003    
  0
TEXT
  8
14
 7
SIMPLEX
 10
2.667     
 20
20.955    
 40
    3.810
  1
 GC41-01
 50
    0.000
  0
TEXT
  8
14
 7
SIMPLEX
 10
45.910    
 20
20.955    
 40
    3.810
  1
  1
 50
    0.000
  0
TEXT
  8
14
 7
SIMPLEX
 10
63.627    
 20
20.955    
 40
    3.810
  1
8    x 300 x 150
 50
    0.000
  0
TEXT
  8
14
 7
SIMPLEX
 10
182.880   
 20
20.955    
 40
    3.810
 72
  2
 11
182.880   
 21
20.955    
  1
    2.8
 50
    0.000
  0
LINE
  8
14
 10
0.000     
 20
14.288    
 11
186.690   
 21
14.288    
  0
LINE
  8
14
 10
0.000     
 20
8.573     
 11
186.690   
 21
8.573     
  0
TEXT
  8
14
 7
SIMPLEX
 10
63.627    
 20
2.286     
 40
    3.810
  1
Weight Sum
 50
    0.000
  0
TEXT
  8
14
 7
SIMPLEX
 10
182.880   
 20
2.286     
 40
    3.810
 72
  2
 11
182.880   
 21
2.286     
  1
  398.7
 50
    0.000
  0
ENDBLK
  8
0
  0
BLOCK
  8
2
  2
ASMTITLE
 70
     0
 10
0.000     
 20
0.000     
  0
LINE
  8
0
 10
0.000     
 20
10.160    
 11
91.440    
 21
10.160    
  0
LINE
  8
0
 10
0.000     
 20
20.320    
 11
91.440    
 21
20.320    
  0
LINE
  8
0
 10
0.000     
 20
30.480    
 11
91.440    
 21
30.480    
  0
LINE
  8
0
 10
91.440    
 20
0.000     
 11
91.440    
 21
30.480    
  0
LINE
  8
0
 10
0.000     
 20
30.480    
 11
0.000     
 21
0.000     
  0
LINE
  8
0
 10
30.480    
 20
20.320    
 11
30.480    
 21
0.000     
  0
LINE
  8
0
 10
60.960    
 20
20.320    
 11
60.960    
 21
0.000     
  0
LINE
  8
0
 10
0.000     
 20
0.000     
 11
91.440    
 21
0.000     
  0
TEXT
  8
0
 7
SIMPLEX
 10
7.620     
 20
17.780    
 40
    1.143
  1
JOB
 50
    0.000
  0
TEXT
  8
0
 7
SIMPLEX
 10
7.620     
 20
7.620     
 40
    1.143
  1
QUANTITY
 50
    0.000
  0
TEXT
  8
0
 7
SIMPLEX
 10
38.100    
 20
27.940    
 40
    1.143
  1
CUSTOMER
 50
    0.000
  0
TEXT
  8
0
 7
SIMPLEX
 10
38.100    
 20
17.780    
 40
    1.143
  1
CHECKED BY
 50
    0.000
  0
TEXT
  8
0
 7
SIMPLEX
 10
38.100    
 20
7.620     
 40
    1.143
  1
PART
 50
    0.000
  0
TEXT
  8
0
 7
SIMPLEX
 10
68.580    
 20
17.780    
 40
    1.143
  1
DATE
 50
    0.000
  0
TEXT
  8
0
 7
SIMPLEX
 10
68.580    
 20
7.620     
 40
    1.143
  1
DRAWING
 50
    0.000
  0
TEXT
  8
0
 7
SIMPLEX
 10
46.457    
 20
22.860    
 40
    3.607
  1
 
 50
    0.000
  0
TEXT
  8
0
 7
SIMPLEX
 10
2.540     
 20
12.700    
 40
    3.607
  1
C463-002
 50
    0.000
  0
TEXT
  8
0
 7
SIMPLEX
 10
2.540     
 20
2.540     
 40
    3.607
  1
  1
 50
    0.000
  0
TEXT
  8
0
 7
SIMPLEX
 10
33.020    
 20
2.540     
 40
    3.607
  1
CL2-1
 50
    0.000
  0
TEXT
  8
0
 7
SIMPLEX
 10
62.230    
 20
12.700    
 40
    3.607
  1
18/DEC/2025
 50
    0.000
  0
TEXT
  8
0
 7
SIMPLEX
 10
62.230    
 20
2.540     
 40
    3.607
  1
CL2-1
 50
    0.000
  0
ENDBLK
  8
2
  0
BLOCK
  8
2
  2
ASMSECTN
 70
     0
 10
0.000     
 20
0.000     
  0
LINE
  8
1
 10
-6.350    
 20
0.000     
 11
6.350     
 21
0.000     
  0
LINE
  8
1
 10
-6.350    
 20
0.000     
 11
-6.350    
 21
1.270     
  0
LINE
  8
1
 10
6.350     
 20
0.000     
 11
6.350     
 21
1.270     
  0
LINE
  8
1
 10
-6.350    
 20
1.270     
 11
6.350     
 21
1.270     
  0
LINE
  8
1
 10
-6.350    
 20
27.940    
 11
6.350     
 21
27.940    
  0
LINE
  8
1
 10
-6.350    
 20
27.940    
 11
-6.350    
 21
26.670    
  0
LINE
  8
1
 10
6.350     
 20
27.940    
 11
6.350     
 21
26.670    
  0
LINE
  8
1
 10
-6.350    
 20
26.670    
 11
6.350     
 21
26.670    
  0
LINE
  8
1
 10
-0.508    
 20
1.270     
 11
-0.508    
 21
26.670    
  0
LINE
  8
1
 10
0.508     
 20
1.270     
 11
0.508     
 21
26.670    
  0
TEXT
  8
3
 7
SIMPLEX
 10
-24.841   
 20
6.858     
 40
    2.845
  1
NS
 50
    0.000
  0
TEXT
  8
3
 7
SIMPLEX
 10
21.996    
 20
6.858     
 40
    2.845
  1
FS
 50
    0.000
  0
LINE
  8
13
 10
0.762     
 20
6.604     
 11
5.842     
 21
6.604     
  0
LINE
  8
13
 10
5.842     
 20
6.604     
 11
5.842     
 21
1.524     
  0
LINE
  8
13
 10
5.842     
 20
1.524     
 11
1.524     
 21
1.524     
  0
LINE
  8
13
 10
0.762     
 20
2.286     
 11
0.762     
 21
6.604     
  0
LINE
  8
13
 10
0.762     
 20
2.286     
 11
1.524     
 21
1.524     
  0
LINE
  8
13
 10
-0.762    
 20
6.604     
 11
-5.842    
 21
6.604     
  0
LINE
  8
13
 10
-5.842    
 20
6.604     
 11
-5.842    
 21
1.524     
  0
LINE
  8
13
 10
-5.842    
 20
1.524     
 11
-1.524    
 21
1.524     
  0
LINE
  8
13
 10
-0.762    
 20
2.286     
 11
-0.762    
 21
6.604     
  0
LINE
  8
13
 10
-0.762    
 20
2.286     
 11
-1.524    
 21
1.524     
  0
INSERT
  8
1
  2
CIRCLE
 10
3.302     
 20
4.064     
 41
   0.060
 42
   0.060
 43
   0.060
 50
   0.000
  0
INSERT
  8
1
  2
CIRCLE
 10
-3.302    
 20
4.064     
 41
   0.060
 42
   0.060
 43
   0.060
 50
   0.000
  0
LINE
  8
3
 10
-7.112    
 20
4.064     
 11
-12.192   
 21
4.064     
  0
LINE
  8
3
 10
-7.112    
 20
1.524     
 11
-12.192   
 21
1.524     
  0
LINE
  8
3
 10
-10.922   
 20
1.524     
 11
-10.922   
 21
4.064     
  0
INSERT
  8
1
  2
ARROW
 10
-10.922   
 20
1.524     
 41
   1.000
 42
   1.000
 43
   1.000
 50
  90.000
  0
INSERT
  8
1
  2
ARROW
 10
-10.922   
 20
4.064     
 41
   1.000
 42
   1.000
 43
   1.000
 50
 270.000
  0
TEXT
  8
3
 7
SIMPLEX
 10
-18.068   
 20
1.964     
 40
    2.845
  1
50
 50
    0.000
  0
LINE
  8
3
 10
-3.302    
 20
7.112     
 11
-3.302    
 21
9.144     
  0
LINE
  8
3
 10
-0.508    
 20
7.874     
 11
-0.508    
 21
9.144     
  0
LINE
  8
3
 10
-3.302    
 20
7.874     
 11
-0.508    
 21
7.874     
  0
INSERT
  8
1
  2
ARROW
 10
-3.302    
 20
7.874     
 41
   1.000
 42
   1.000
 43
   1.000
 50
   0.000
  0
INSERT
  8
1
  2
ARROW
 10
-0.508    
 20
7.874     
 41
   1.000
 42
   1.000
 43
   1.000
 50
 180.000
  0
TEXT
  8
3
 7
SIMPLEX
 10
-9.940    
 20
8.568     
 40
    2.845
  1
50
 50
    0.000
  0
LINE
  8
3
 10
7.112     
 20
3.810     
 11
17.272    
 21
3.810     
  0
INSERT
  8
3
  2
ARROWP
 10
7.112     
 20
3.810     
 41
   1.000
 42
   1.000
 43
   1.000
 50
 180.000
  0
TEXT
  8
1
 7
SIMPLEX
 10
10.160    
 20
4.572     
 40
    2.845
  1
CLF1
 50
    0.000
  0
TEXT
  8
21
 7
SIMPLEX
 10
9.550     
 20
-0.457    
 40
    2.845
  1
D=14
 50
    0.000
  0
LINE
  8
13
 10
-5.080    
 20
28.194    
 11
5.080     
 21
28.194    
  0
LINE
  8
13
 10
5.080     
 20
28.194    
 11
5.080     
 21
43.434    
  0
LINE
  8
13
 10
5.080     
 20
43.434    
 11
-5.080    
 21
43.434    
  0
LINE
  8
13
 10
-5.080    
 20
43.434    
 11
-5.080    
 21
28.194    
  0
INSERT
  8
1
  2
CIRCLE
 10
-2.540    
 20
33.274    
 41
   0.060
 42
   0.060
 43
   0.060
 50
   0.000
  0
INSERT
  8
1
  2
CIRCLE
 10
2.540     
 20
33.274    
 41
   0.060
 42
   0.060
 43
   0.060
 50
   0.000
  0
INSERT
  8
1
  2
CIRCLE
 10
-2.540    
 20
40.894    
 41
   0.060
 42
   0.060
 43
   0.060
 50
   0.000
  0
INSERT
  8
1
  2
CIRCLE
 10
2.540     
 20
40.894    
 41
   0.060
 42
   0.060
 43
   0.060
 50
   0.000
  0
LINE
  8
3
 10
-2.540    
 20
44.704    
 11
-2.540    
 21
47.244    
  0
LINE
  8
3
 10
2.540     
 20
44.704    
 11
2.540     
 21
47.244    
  0
LINE
  8
3
 10
-2.540    
 20
45.974    
 11
2.540     
 21
45.974    
  0
INSERT
  8
1
  2
ARROW
 10
-2.540    
 20
45.974    
 41
   1.000
 42
   1.000
 43
   1.000
 50
 180.000
  0
INSERT
  8
1
  2
ARROW
 10
2.540     
 20
45.974    
 41
   1.000
 42
   1.000
 43
   1.000
 50
   0.000
  0
TEXT
  8
3
 7
SIMPLEX
 10
-1.592    
 20
46.922    
 40
    2.845
  1
100
 50
    0.000
  0
LINE
  8
3
 10
7.620     
 20
27.940    
 11
12.700    
 21
27.940    
  0
LINE
  8
3
 10
6.350     
 20
33.274    
 11
12.700    
 21
33.274    
  0
LINE
  8
3
 10
11.430    
 20
27.940    
 11
11.430    
 21
40.894    
  0
LINE
  8
3
 10
6.350     
 20
40.894    
 11
12.700    
 21
40.894    
  0
INSERT
  8
1
  2
ARROW
 10
11.430    
 20
40.894    
 41
   1.000
 42
   1.000
 43
   1.000
 50
  90.000
  0
INSERT
  8
1
  2
ARROW
 10
11.430    
 20
33.274    
 41
   1.000
 42
   1.000
 43
   1.000
 50
 270.000
  0
INSERT
  8
1
  2
ARROW
 10
11.430    
 20
33.274    
 41
   1.000
 42
   1.000
 43
   1.000
 50
  90.000
  0
INSERT
  8
1
  2
ARROW
 10
11.430    
 20
27.940    
 41
   1.000
 42
   1.000
 43
   1.000
 50
 270.000
  0
TEXT
  8
3
 7
SIMPLEX
 10
12.378    
 20
30.158    
 40
    2.845
  1
80
 50
    0.000
  0
TEXT
  8
3
 7
SIMPLEX
 10
12.378    
 20
36.508    
 40
    2.845
  1
100
 50
    0.000
  0
LINE
  8
3
 10
-6.350    
 20
38.100    
 11
-16.510   
 21
38.100    
  0
INSERT
  8
3
  2
ARROWP
 10
-6.350    
 20
38.100    
 41
   1.000
 42
   1.000
 43
   1.000
 50
   0.000
  0
TEXT
  8
1
 7
SIMPLEX
 10
-17.780   
 20
38.862    
 40
    2.845
  1
CLF3
 50
    0.000
  0
TEXT
  8
21
 7
SIMPLEX
 10
-23.571   
 20
33.833    
 40
    2.845
  1
D=14
 50
    0.000
  0
LINE
  8
13
 10
-5.080    
 20
-0.254    
 11
5.080     
 21
-0.254    
  0
LINE
  8
13
 10
5.080     
 20
-0.254    
 11
5.080     
 21
-7.874    
  0
LINE
  8
13
 10
5.080     
 20
-7.874    
 11
-5.080    
 21
-7.874    
  0
LINE
  8
13
 10
-5.080    
 20
-7.874    
 11
-5.080    
 21
-0.254    
  0
INSERT
  8
1
  2
CIRCLE
 10
-2.540    
 20
-5.334    
 41
   0.060
 42
   0.060
 43
   0.060
 50
  90.000
  0
INSERT
  8
1
  2
CIRCLE
 10
2.540     
 20
-5.334    
 41
   0.060
 42
   0.060
 43
   0.060
 50
  90.000
  0
LINE
  8
3
 10
-2.540    
 20
-9.144    
 11
-2.540    
 21
-14.224   
  0
LINE
  8
3
 10
2.540     
 20
-9.144    
 11
2.540     
 21
-14.224   
  0
LINE
  8
3
 10
-2.540    
 20
-12.954   
 11
2.540     
 21
-12.954   
  0
INSERT
  8
1
  2
ARROW
 10
-2.540    
 20
-12.954   
 41
   1.000
 42
   1.000
 43
   1.000
 50
 180.000
  0
INSERT
  8
1
  2
ARROW
 10
2.540     
 20
-12.954   
 41
   1.000
 42
   1.000
 43
   1.000
 50
   0.000
  0
TEXT
  8
3
 7
SIMPLEX
 10
3.488     
 20
-12.006   
 40
    2.845
  1
200
 50
    0.000
  0
LINE
  8
3
 10
7.620     
 20
0.000     
 11
12.700    
 21
0.000     
  0
LINE
  8
3
 10
7.620     
 20
-5.334    
 11
12.700    
 21
-5.334    
  0
LINE
  8
3
 10
11.430    
 20
0.000     
 11
11.430    
 21
-5.334    
  0
INSERT
  8
1
  2
ARROW
 10
11.430    
 20
-5.334    
 41
   1.000
 42
   1.000
 43
   1.000
 50
 270.000
  0
INSERT
  8
1
  2
ARROW
 10
11.430    
 20
0.000     
 41
   1.000
 42
   1.000
 43
   1.000
 50
  90.000
  0
TEXT
  8
3
 7
SIMPLEX
 10
12.378    
 20
-4.386    
 40
    2.845
  1
100
 50
    0.000
  0
LINE
  8
3
 10
-6.350    
 20
-7.620    
 11
-16.510   
 21
-7.620    
  0
INSERT
  8
3
  2
ARROWP
 10
-6.350    
 20
-7.620    
 41
   1.000
 42
   1.000
 43
   1.000
 50
   0.000
  0
TEXT
  8
1
 7
SIMPLEX
 10
-17.780   
 20
-6.858    
 40
    2.845
  1
 GC41-01
 50
    0.000
  0
TEXT
  8
21
 7
SIMPLEX
 10
-17.780   
 20
-11.887   
 40
    2.845
  1
D=22
 50
    0.000
  0
INSERT
  8
4
  2
ARROWP
 10
9.195     
 20
-1.422    
 41
   1.500
 42
   1.500
 43
   1.500
 50
 135.000
  0
LINE
  8
4
 10
9.195     
 20
-1.422    
 11
14.315    
 21
-6.543    
  0
LINE
  8
4
 10
14.315    
 20
-6.543    
 11
33.091    
 21
-6.543    
  0
TEXT
  8
5
 7
SIMPLEX
 10
17.160    
 20
-5.595    
 40
    2.845
  1
4
 50
    0.000
  0
LINE
  8
4
 10
33.091    
 20
-6.543    
 11
33.945    
 21
-6.543    
  0
LINE
  8
4
 10
33.945    
 20
-6.543    
 11
37.358    
 21
-4.552    
  0
LINE
  8
4
 10
33.945    
 20
-6.543    
 11
37.358    
 21
-8.534    
  0
TEXT
  8
4
 7
SIMPLEX
 10
36.647    
 20
-7.965    
 40
    2.845
  1
Clips
 50
    0.000
  0
LINE
  8
4
 10
29.535    
 20
-3.698    
 11
32.380    
 21
-6.543    
  0
LINE
  8
4
 10
29.535    
 20
-6.543    
 11
29.535    
 21
-3.698    
  0
ENDBLK
  8
2
  0
BLOCK
  8
2
  2
ASMSECT2
 70
     0
 10
0.000     
 20
0.000     
  0
LINE
  8
1
 10
-6.350    
 20
0.000     
 11
6.350     
 21
0.000     
  0
LINE
  8
1
 10
-6.350    
 20
0.000     
 11
-6.350    
 21
1.270     
  0
LINE
  8
1
 10
6.350     
 20
0.000     
 11
6.350     
 21
1.270     
  0
LINE
  8
1
 10
-6.350    
 20
1.270     
 11
6.350     
 21
1.270     
  0
LINE
  8
1
 10
-6.350    
 20
27.940    
 11
6.350     
 21
27.940    
  0
LINE
  8
1
 10
-6.350    
 20
27.940    
 11
-6.350    
 21
26.670    
  0
LINE
  8
1
 10
6.350     
 20
27.940    
 11
6.350     
 21
26.670    
  0
LINE
  8
1
 10
-6.350    
 20
26.670    
 11
6.350     
 21
26.670    
  0
LINE
  8
1
 10
-0.508    
 20
1.270     
 11
-0.508    
 21
26.670    
  0
LINE
  8
1
 10
0.508     
 20
1.270     
 11
0.508     
 21
26.670    
  0
TEXT
  8
3
 7
SIMPLEX
 10
-24.841   
 20
6.858     
 40
    2.845
  1
NS
 50
    0.000
  0
TEXT
  8
3
 7
SIMPLEX
 10
21.996    
 20
6.858     
 40
    2.845
  1
FS
 50
    0.000
  0
LINE
  8
13
 10
-5.080    
 20
28.194    
 11
5.080     
 21
28.194    
  0
LINE
  8
13
 10
5.080     
 20
28.194    
 11
5.080     
 21
43.434    
  0
LINE
  8
13
 10
5.080     
 20
43.434    
 11
-5.080    
 21
43.434    
  0
LINE
  8
13
 10
-5.080    
 20
43.434    
 11
-5.080    
 21
28.194    
  0
INSERT
  8
1
  2
CIRCLE
 10
-2.540    
 20
33.274    
 41
   0.060
 42
   0.060
 43
   0.060
 50
   0.000
  0
INSERT
  8
1
  2
CIRCLE
 10
2.540     
 20
33.274    
 41
   0.060
 42
   0.060
 43
   0.060
 50
   0.000
  0
INSERT
  8
1
  2
CIRCLE
 10
-2.540    
 20
40.894    
 41
   0.060
 42
   0.060
 43
   0.060
 50
   0.000
  0
INSERT
  8
1
  2
CIRCLE
 10
2.540     
 20
40.894    
 41
   0.060
 42
   0.060
 43
   0.060
 50
   0.000
  0
LINE
  8
3
 10
-2.540    
 20
44.704    
 11
-2.540    
 21
47.244    
  0
LINE
  8
3
 10
2.540     
 20
44.704    
 11
2.540     
 21
47.244    
  0
LINE
  8
3
 10
-2.540    
 20
45.974    
 11
2.540     
 21
45.974    
  0
INSERT
  8
1
  2
ARROW
 10
-2.540    
 20
45.974    
 41
   1.000
 42
   1.000
 43
   1.000
 50
 180.000
  0
INSERT
  8
1
  2
ARROW
 10
2.540     
 20
45.974    
 41
   1.000
 42
   1.000
 43
   1.000
 50
   0.000
  0
TEXT
  8
3
 7
SIMPLEX
 10
-1.592    
 20
46.922    
 40
    2.845
  1
100
 50
    0.000
  0
LINE
  8
3
 10
7.620     
 20
27.940    
 11
12.700    
 21
27.940    
  0
LINE
  8
3
 10
6.350     
 20
33.274    
 11
12.700    
 21
33.274    
  0
LINE
  8
3
 10
11.430    
 20
27.940    
 11
11.430    
 21
40.894    
  0
LINE
  8
3
 10
6.350     
 20
40.894    
 11
12.700    
 21
40.894    
  0
INSERT
  8
1
  2
ARROW
 10
11.430    
 20
40.894    
 41
   1.000
 42
   1.000
 43
   1.000
 50
  90.000
  0
INSERT
  8
1
  2
ARROW
 10
11.430    
 20
33.274    
 41
   1.000
 42
   1.000
 43
   1.000
 50
 270.000
  0
INSERT
  8
1
  2
ARROW
 10
11.430    
 20
33.274    
 41
   1.000
 42
   1.000
 43
   1.000
 50
  90.000
  0
INSERT
  8
1
  2
ARROW
 10
11.430    
 20
27.940    
 41
   1.000
 42
   1.000
 43
   1.000
 50
 270.000
  0
TEXT
  8
3
 7
SIMPLEX
 10
12.378    
 20
30.158    
 40
    2.845
  1
80
 50
    0.000
  0
TEXT
  8
3
 7
SIMPLEX
 10
12.378    
 20
36.508    
 40
    2.845
  1
100
 50
    0.000
  0
LINE
  8
3
 10
-6.350    
 20
38.100    
 11
-16.510   
 21
38.100    
  0
INSERT
  8
3
  2
ARROWP
 10
-6.350    
 20
38.100    
 41
   1.000
 42
   1.000
 43
   1.000
 50
   0.000
  0
TEXT
  8
1
 7
SIMPLEX
 10
-17.780   
 20
38.862    
 40
    2.845
  1
CLF3
 50
    0.000
  0
TEXT
  8
21
 7
SIMPLEX
 10
-23.571   
 20
33.833    
 40
    2.845
  1
D=14
 50
    0.000
  0
LINE
  8
13
 10
-5.080    
 20
-0.254    
 11
5.080     
 21
-0.254    
  0
LINE
  8
13
 10
5.080     
 20
-0.254    
 11
5.080     
 21
-7.874    
  0
LINE
  8
13
 10
5.080     
 20
-7.874    
 11
-5.080    
 21
-7.874    
  0
LINE
  8
13
 10
-5.080    
 20
-7.874    
 11
-5.080    
 21
-0.254    
  0
INSERT
  8
1
  2
CIRCLE
 10
-2.540    
 20
-5.334    
 41
   0.060
 42
   0.060
 43
   0.060
 50
  90.000
  0
INSERT
  8
1
  2
CIRCLE
 10
2.540     
 20
-5.334    
 41
   0.060
 42
   0.060
 43
   0.060
 50
  90.000
  0
LINE
  8
3
 10
-2.540    
 20
-9.144    
 11
-2.540    
 21
-14.224   
  0
LINE
  8
3
 10
2.540     
 20
-9.144    
 11
2.540     
 21
-14.224   
  0
LINE
  8
3
 10
-2.540    
 20
-12.954   
 11
2.540     
 21
-12.954   
  0
INSERT
  8
1
  2
ARROW
 10
-2.540    
 20
-12.954   
 41
   1.000
 42
   1.000
 43
   1.000
 50
 180.000
  0
INSERT
  8
1
  2
ARROW
 10
2.540     
 20
-12.954   
 41
   1.000
 42
   1.000
 43
   1.000
 50
   0.000
  0
TEXT
  8
3
 7
SIMPLEX
 10
3.488     
 20
-12.006   
 40
    2.845
  1
200
 50
    0.000
  0
LINE
  8
3
 10
7.620     
 20
0.000     
 11
12.700    
 21
0.000     
  0
LINE
  8
3
 10
7.620     
 20
-5.334    
 11
12.700    
 21
-5.334    
  0
LINE
  8
3
 10
11.430    
 20
0.000     
 11
11.430    
 21
-5.334    
  0
INSERT
  8
1
  2
ARROW
 10
11.430    
 20
-5.334    
 41
   1.000
 42
   1.000
 43
   1.000
 50
 270.000
  0
INSERT
  8
1
  2
ARROW
 10
11.430    
 20
0.000     
 41
   1.000
 42
   1.000
 43
   1.000
 50
  90.000
  0
TEXT
  8
3
 7
SIMPLEX
 10
12.378    
 20
-4.386    
 40
    2.845
  1
100
 50
    0.000
  0
LINE
  8
3
 10
-6.350    
 20
-7.620    
 11
-16.510   
 21
-7.620    
  0
INSERT
  8
3
  2
ARROWP
 10
-6.350    
 20
-7.620    
 41
   1.000
 42
   1.000
 43
   1.000
 50
   0.000
  0
TEXT
  8
1
 7
SIMPLEX
 10
-17.780   
 20
-6.858    
 40
    2.845
  1
 GC41-01
 50
    0.000
  0
TEXT
  8
21
 7
SIMPLEX
 10
-17.780   
 20
-11.887   
 40
    2.845
  1
D=22
 50
    0.000
  0
LINE
  8
13
 10
-0.508    
 20
1.270     
 11
-6.350    
 21
1.270     
  0
LINE
  8
13
 10
-6.350    
 20
1.270     
 11
-6.350    
 21
26.670    
  0
LINE
  8
13
 10
-6.350    
 20
26.670    
 11
-0.508    
 21
26.670    
  0
LINE
  8
13
 10
-0.508    
 20
26.670    
 11
-0.508    
 21
1.270     
  0
INSERT
  8
1
  2
CIRCLE
 10
-3.429    
 20
21.590    
 41
   0.060
 42
   0.060
 43
   0.060
 50
   0.000
  0
LINE
  8
3
 10
-3.429    
 20
29.210    
 11
-3.429    
 21
31.750    
  0
LINE
  8
3
 10
-0.508    
 20
29.210    
 11
-0.508    
 21
31.750    
  0
LINE
  8
3
 10
-3.429    
 20
30.988    
 11
-0.508    
 21
30.988    
  0
INSERT
  8
1
  2
ARROW
 10
-3.429    
 20
30.988    
 41
   1.000
 42
   1.000
 43
   1.000
 50
 180.000
  0
INSERT
  8
1
  2
ARROW
 10
-0.508    
 20
30.988    
 41
   1.000
 42
   1.000
 43
   1.000
 50
 360.000
  0
TEXT
  8
3
 7
SIMPLEX
 10
-10.067   
 20
31.936    
 40
    2.845
  1
80
 50
    0.000
  0
LINE
  8
3
 10
7.620     
 20
26.670    
 11
12.700    
 21
26.670    
  0
LINE
  8
3
 10
7.620     
 20
21.590    
 11
12.700    
 21
21.590    
  0
LINE
  8
3
 10
11.430    
 20
26.670    
 11
11.430    
 21
21.590    
  0
INSERT
  8
1
  2
ARROW
 10
11.430    
 20
26.670    
 41
   1.000
 42
   1.000
 43
   1.000
 50
  90.000
  0
INSERT
  8
1
  2
ARROW
 10
11.430    
 20
21.590    
 41
   1.000
 42
   1.000
 43
   1.000
 50
 270.000
  0
TEXT
  8
3
 7
SIMPLEX
 10
12.378    
 20
22.538    
 40
    2.845
  1
80
 50
    0.000
  0
LINE
  8
3
 10
-8.890    
 20
9.737     
 11
-20.269   
 21
9.737     
  0
INSERT
  8
3
  2
ARROWP
 10
-8.890    
 20
9.737     
 41
   1.000
 42
   1.000
 43
   1.000
 50
 360.000
  0
TEXT
  8
1
 7
SIMPLEX
 10
-16.510   
 20
10.499    
 40
    2.845
  1
ST2
 50
    0.000
  0
TEXT
  8
3
 7
SIMPLEX
 10
-13.462   
 20
-4.420    
 40
    2.845
  1
NS
 50
    0.000
  0
TEXT
  8
21
 7
SIMPLEX
 10
-32.360   
 20
-2.997    
 40
    2.845
  1
D=22
 50
    0.000
  0
LINE
  8
13
 10
0.508     
 20
1.270     
 11
6.350     
 21
1.270     
  0
LINE
  8
13
 10
6.350     
 20
1.270     
 11
6.350     
 21
26.670    
  0
LINE
  8
13
 10
6.350     
 20
26.670    
 11
0.508     
 21
26.670    
  0
LINE
  8
13
 10
0.508     
 20
26.670    
 11
0.508     
 21
1.270     
  0
INSERT
  8
1
  2
CIRCLE
 10
3.429     
 20
21.590    
 41
   0.060
 42
   0.060
 43
   0.060
 50
   0.000
  0
LINE
  8
3
 10
3.429     
 20
29.210    
 11
3.429     
 21
31.750    
  0
LINE
  8
3
 10
0.508     
 20
29.210    
 11
0.508     
 21
31.750    
  0
LINE
  8
3
 10
3.429     
 20
30.988    
 11
0.508     
 21
30.988    
  0
INSERT
  8
1
  2
ARROW
 10
3.429     
 20
30.988    
 41
   1.000
 42
   1.000
 43
   1.000
 50
   0.000
  0
INSERT
  8
1
  2
ARROW
 10
0.508     
 20
30.988    
 41
   1.000
 42
   1.000
 43
   1.000
 50
 180.000
  0
TEXT
  8
3
 7
SIMPLEX
 10
4.377     
 20
31.936    
 40
    2.845
  1
80
 50
    0.000
  0
LINE
  8
3
 10
7.620     
 20
26.670    
 11
12.700    
 21
26.670    
  0
LINE
  8
3
 10
7.620     
 20
21.590    
 11
12.700    
 21
21.590    
  0
LINE
  8
3
 10
11.430    
 20
26.670    
 11
11.430    
 21
21.590    
  0
INSERT
  8
1
  2
ARROW
 10
11.430    
 20
26.670    
 41
   1.000
 42
   1.000
 43
   1.000
 50
  90.000
  0
INSERT
  8
1
  2
ARROW
 10
11.430    
 20
21.590    
 41
   1.000
 42
   1.000
 43
   1.000
 50
 270.000
  0
TEXT
  8
3
 7
SIMPLEX
 10
12.378    
 20
22.538    
 40
    2.845
  1
80
 50
    0.000
  0
LINE
  8
3
 10
8.890     
 20
9.737     
 11
20.269    
 21
9.737     
  0
INSERT
  8
3
  2
ARROWP
 10
8.890     
 20
9.737     
 41
   1.000
 42
   1.000
 43
   1.000
 50
 180.000
  0
TEXT
  8
1
 7
SIMPLEX
 10
8.890     
 20
10.499    
 40
    2.845
  1
ST2
 50
    0.000
  0
TEXT
  8
3
 7
SIMPLEX
 10
9.195     
 20
-4.420    
 40
    2.845
  1
FS
 50
    0.000
  0
TEXT
  8
21
 7
SIMPLEX
 10
20.980    
 20
-2.997    
 40
    2.845
  1
D=22
 50
    0.000
  0
ENDBLK
  8
2
  0
BLOCK
  8
2
  2
ASMBOLT
 70
     0
 10
0.000     
 20
0.000     
  0
TEXT
  8
21
 7
SIMPLEX
 10
0.000     
 20
5.715     
 40
    3.810
  1
D=DIAMETER
 50
    0.000
  0
TEXT
  8
21
 7
SIMPLEX
 10
0.000     
 20
0.000     
 40
    3.810
  1
G=GAGE
 50
    0.000
  0
ENDBLK
  8
2
  0
BLOCK
  8
2
  2
ASMVIEW
 70
     0
 10
0.000     
 20
0.000     
  0
LINE
  8
21
 10
0.000     
 20
0.000     
 11
30.480    
 21
0.000     
  0
INSERT
  8
21
  2
ARROWP
 10
0.000     
 20
0.000     
 41
   1.000
 42
   1.000
 43
   1.000
 50
 180.000
  0
TEXT
  8
21
 7
SIMPLEX
 10
0.000     
 20
0.953     
 40
    3.810
  1
View for
 50
    0.000
  0
TEXT
  8
21
 7
SIMPLEX
 10
0.000     
 20
-4.762    
 40
    3.810
  1
Section
 50
    0.000
  0
ENDBLK
  8
2
  0
BLOCK
  8
0
  2
ASMSLOT
 70
     0
 10
0.000     
 20
0.000     
  0
LINE
  8
0
 10
0.000     
 20
0.000     
 11
57.150    
 21
0.000     
  0
LINE
  8
0
 10
57.150    
 20
0.000     
 11
57.150    
 21
22.860    
  0
LINE
  8
0
 10
57.150    
 20
22.860    
 11
0.000     
 21
22.860    
  0
LINE
  8
0
 10
0.000     
 20
22.860    
 11
0.000     
 21
0.000     
  0
LINE
  8
0
 10
0.000     
 20
15.240    
 11
57.150    
 21
15.240    
  0
LINE
  8
0
 10
0.000     
 20
7.620     
 11
57.150    
 21
7.620     
  0
LINE
  8
0
 10
10.478    
 20
0.000     
 11
10.478    
 21
15.240    
  0
LINE
  8
0
 10
57.150    
 20
0.000     
 11
57.150    
 21
15.240    
  0
TEXT
  8
0
 7
SIMPLEX
 10
0.953     
 20
17.145    
 40
    3.810
  1
SLOT TABLE
 50
    0.000
  0
TEXT
  8
0
 7
SIMPLEX
 10
0.953     
 20
9.525     
 40
    3.810
  1
ID
 50
    0.000
  0
TEXT
  8
0
 7
SIMPLEX
 10
11.430    
 20
9.525     
 40
    3.810
  1
SIZE
 50
    0.000
  0
TEXT
  8
0
 7
SIMPLEX
 10
0.953     
 20
1.905     
 40
    3.810
  1
S1
 50
    0.000
  0
TEXT
  8
0
 7
SIMPLEX
 10
11.430    
 20
1.905     
 40
    3.810
  1
24x50
 50
    0.000
  0
ENDBLK
  8
0
  0
BLOCK
  8
0
  2
ASM_WELD
 70
     0
 10
0.000     
 20
182.880   
  0
LINE
  8
20
 10
0.000     
 20
182.880   
 11
116.967   
 21
182.880   
  0
LINE
  8
20
 10
0.000     
 20
0.000     
 11
116.967   
 21
0.000     
  0
LINE
  8
20
 10
116.967   
 20
0.000     
 11
116.967   
 21
182.880   
  0
LINE
  8
20
 10
0.000     
 20
0.000     
 11
0.000     
 21
182.880   
  0
TEXT
  8
14
 7
SIMPLEX
 10
1.143     
 20
178.118   
 40
    3.810
  1
WELD TABLE
 50
    0.000
  0
LINE
  8
20
 10
0.000     
 20
177.165   
 11
116.967   
 21
177.165   
  0
LINE
  8
20
 10
33.147    
 20
0.000     
 11
33.147    
 21
177.165   
  0
LINE
  8
20
 10
56.007    
 20
0.000     
 11
56.007    
 21
177.165   
  0
LINE
  8
20
 10
78.867    
 20
0.000     
 11
78.867    
 21
177.165   
  0
LINE
  8
20
 10
101.727   
 20
0.000     
 11
101.727   
 21
177.165   
  0
TEXT
  8
14
 7
SIMPLEX
 10
1.143     
 20
172.403   
 40
    3.810
  1
Plate1
 50
    0.000
  0
TEXT
  8
14
 7
SIMPLEX
 10
33.909    
 20
172.403   
 40
    3.810
  1
Plate2
 50
    0.000
  0
TEXT
  8
14
 7
SIMPLEX
 10
56.769    
 20
172.403   
 40
    3.810
  1
Type
 50
    0.000
  0
TEXT
  8
14
 7
SIMPLEX
 10
79.629    
 20
172.403   
 40
    3.810
  1
Size
 50
    0.000
  0
TEXT
  8
14
 7
SIMPLEX
 10
102.489   
 20
172.403   
 40
    3.810
  1
Side
 50
    0.000
  0
LINE
  8
20
 10
0.000     
 20
171.450   
 11
116.967   
 21
171.450   
  0
TEXT
  8
14
 7
SIMPLEX
 10
1.143     
 20
166.688   
 40
    3.810
  1
WB4
 50
    0.000
  0
TEXT
  8
14
 7
SIMPLEX
 10
35.433    
 20
166.688   
 40
    3.810
  1
OF
 50
    0.000
  0
TEXT
  8
14
 7
SIMPLEX
 10
57.531    
 20
166.688   
 40
    3.810
  1
Fillet
 50
    0.000
  0
TEXT
  8
14
 7
SIMPLEX
 10
79.629    
 20
166.688   
 40
    3.810
  1
4
 50
    0.000
  0
TEXT
  8
14
 7
SIMPLEX
 10
104.013   
 20
166.688   
 40
    3.810
  1
  1
 50
    0.000
  0
TEXT
  8
14
 7
SIMPLEX
 10
1.143     
 20
160.973   
 40
    3.810
  1
WB4
 50
    0.000
  0
TEXT
  8
14
 7
SIMPLEX
 10
35.433    
 20
160.973   
 40
    3.810
  1
IF
 50
    0.000
  0
TEXT
  8
14
 7
SIMPLEX
 10
57.531    
 20
160.973   
 40
    3.810
  1
Fillet
 50
    0.000
  0
TEXT
  8
14
 7
SIMPLEX
 10
79.629    
 20
160.973   
 40
    3.810
  1
4
 50
    0.000
  0
TEXT
  8
14
 7
SIMPLEX
 10
104.013   
 20
160.973   
 40
    3.810
  1
  1
 50
    0.000
  0
TEXT
  8
14
 7
SIMPLEX
 10
1.143     
 20
155.258   
 40
    3.810
  1
EP4
 50
    0.000
  0
TEXT
  8
14
 7
SIMPLEX
 10
35.433    
 20
155.258   
 40
    3.810
  1
OF
 50
    0.000
  0
TEXT
  8
14
 7
SIMPLEX
 10
57.531    
 20
155.258   
 40
    3.810
  1
Groove
 50
    0.000
  0
TEXT
  8
14
 7
SIMPLEX
 10
79.629    
 20
155.258   
 40
    3.810
  1
4
 50
    0.000
  0
TEXT
  8
14
 7
SIMPLEX
 10
104.013   
 20
155.258   
 40
    3.810
  1
  1
 50
    0.000
  0
TEXT
  8
14
 7
SIMPLEX
 10
1.143     
 20
149.543   
 40
    3.810
  1
EP4
 50
    0.000
  0
TEXT
  8
14
 7
SIMPLEX
 10
35.433    
 20
149.543   
 40
    3.810
  1
IF
 50
    0.000
  0
TEXT
  8
14
 7
SIMPLEX
 10
57.531    
 20
149.543   
 40
    3.810
  1
Groove
 50
    0.000
  0
TEXT
  8
14
 7
SIMPLEX
 10
79.629    
 20
149.543   
 40
    3.810
  1
4
 50
    0.000
  0
TEXT
  8
14
 7
SIMPLEX
 10
104.013   
 20
149.543   
 40
    3.810
  1
  1
 50
    0.000
  0
TEXT
  8
14
 7
SIMPLEX
 10
1.143     
 20
143.828   
 40
    3.810
  1
EP4
 50
    0.000
  0
TEXT
  8
14
 7
SIMPLEX
 10
35.433    
 20
143.828   
 40
    3.810
  1
WB
 50
    0.000
  0
TEXT
  8
14
 7
SIMPLEX
 10
57.531    
 20
143.828   
 40
    3.810
  1
Fillet
 50
    0.000
  0
TEXT
  8
14
 7
SIMPLEX
 10
79.629    
 20
143.828   
 40
    3.810
  1
4
 50
    0.000
  0
TEXT
  8
14
 7
SIMPLEX
 10
104.013   
 20
143.828   
 40
    3.810
  1
  2
 50
    0.000
  0
TEXT
  8
14
 7
SIMPLEX
 10
1.143     
 20
138.113   
 40
    3.810
  1
EP2
 50
    0.000
  0
TEXT
  8
14
 7
SIMPLEX
 10
35.433    
 20
138.113   
 40
    3.810
  1
OF4
 50
    0.000
  0
TEXT
  8
14
 7
SIMPLEX
 10
57.531    
 20
138.113   
 40
    3.810
  1
Fillet
 50
    0.000
  0
TEXT
  8
14
 7
SIMPLEX
 10
79.629    
 20
138.113   
 40
    3.810
  1
4
 50
    0.000
  0
TEXT
  8
14
 7
SIMPLEX
 10
104.013   
 20
138.113   
 40
    3.810
  1
  2
 50
    0.000
  0
TEXT
  8
14
 7
SIMPLEX
 10
1.143     
 20
132.398   
 40
    3.810
  1
EP2
 50
    0.000
  0
TEXT
  8
14
 7
SIMPLEX
 10
35.433    
 20
132.398   
 40
    3.810
  1
IF3
 50
    0.000
  0
TEXT
  8
14
 7
SIMPLEX
 10
57.531    
 20
132.398   
 40
    3.810
  1
Fillet
 50
    0.000
  0
TEXT
  8
14
 7
SIMPLEX
 10
79.629    
 20
132.398   
 40
    3.810
  1
6
 50
    0.000
  0
TEXT
  8
14
 7
SIMPLEX
 10
104.013   
 20
132.398   
 40
    3.810
  1
  2
 50
    0.000
  0
TEXT
  8
14
 7
SIMPLEX
 10
1.143     
 20
126.683   
 40
    3.810
  1
EP2
 50
    0.000
  0
TEXT
  8
14
 7
SIMPLEX
 10
35.433    
 20
126.683   
 40
    3.810
  1
WB4
 50
    0.000
  0
TEXT
  8
14
 7
SIMPLEX
 10
57.531    
 20
126.683   
 40
    3.810
  1
Fillet
 50
    0.000
  0
TEXT
  8
14
 7
SIMPLEX
 10
79.629    
 20
126.683   
 40
    3.810
  1
4
 50
    0.000
  0
TEXT
  8
14
 7
SIMPLEX
 10
104.013   
 20
126.683   
 40
    3.810
  1
  2
 50
    0.000
  0
TEXT
  8
14
 7
SIMPLEX
 10
1.143     
 20
120.968   
 40
    3.810
  1
BO1
 50
    0.000
  0
TEXT
  8
14
 7
SIMPLEX
 10
35.433    
 20
120.968   
 40
    3.810
  1
IF
 50
    0.000
  0
TEXT
  8
14
 7
SIMPLEX
 10
57.531    
 20
120.968   
 40
    3.810
  1
Fillet
 50
    0.000
  0
TEXT
  8
14
 7
SIMPLEX
 10
79.629    
 20
120.968   
 40
    3.810
  1
8
 50
    0.000
  0
TEXT
  8
14
 7
SIMPLEX
 10
104.013   
 20
120.968   
 40
    3.810
  1
  2
 50
    0.000
  0
TEXT
  8
14
 7
SIMPLEX
 10
1.143     
 20
115.253   
 40
    3.810
  1
BI1
 50
    0.000
  0
TEXT
  8
14
 7
SIMPLEX
 10
35.433    
 20
115.253   
 40
    3.810
  1
IF
 50
    0.000
  0
TEXT
  8
14
 7
SIMPLEX
 10
57.531    
 20
115.253   
 40
    3.810
  1
Fillet
 50
    0.000
  0
TEXT
  8
14
 7
SIMPLEX
 10
79.629    
 20
115.253   
 40
    3.810
  1
8
 50
    0.000
  0
TEXT
  8
14
 7
SIMPLEX
 10
104.013   
 20
115.253   
 40
    3.810
  1
  2
 50
    0.000
  0
TEXT
  8
14
 7
SIMPLEX
 10
1.143     
 20
109.538   
 40
    3.810
  1
BW1
 50
    0.000
  0
TEXT
  8
14
 7
SIMPLEX
 10
35.433    
 20
109.538   
 40
    3.810
  1
IF
 50
    0.000
  0
TEXT
  8
14
 7
SIMPLEX
 10
57.531    
 20
109.538   
 40
    3.810
  1
Fillet
 50
    0.000
  0
TEXT
  8
14
 7
SIMPLEX
 10
79.629    
 20
109.538   
 40
    3.810
  1
4
 50
    0.000
  0
TEXT
  8
14
 7
SIMPLEX
 10
104.013   
 20
109.538   
 40
    3.810
  1
  2
 50
    0.000
  0
TEXT
  8
14
 7
SIMPLEX
 10
1.143     
 20
103.823   
 40
    3.810
  1
BW1
 50
    0.000
  0
TEXT
  8
14
 7
SIMPLEX
 10
35.433    
 20
103.823   
 40
    3.810
  1
BO
 50
    0.000
  0
TEXT
  8
14
 7
SIMPLEX
 10
57.531    
 20
103.823   
 40
    3.810
  1
Fillet
 50
    0.000
  0
TEXT
  8
14
 7
SIMPLEX
 10
79.629    
 20
103.823   
 40
    3.810
  1
4
 50
    0.000
  0
TEXT
  8
14
 7
SIMPLEX
 10
104.013   
 20
103.823   
 40
    3.810
  1
  1
 50
    0.000
  0
TEXT
  8
14
 7
SIMPLEX
 10
1.143     
 20
98.108    
 40
    3.810
  1
BW1
 50
    0.000
  0
TEXT
  8
14
 7
SIMPLEX
 10
35.433    
 20
98.108    
 40
    3.810
  1
BI
 50
    0.000
  0
TEXT
  8
14
 7
SIMPLEX
 10
57.531    
 20
98.108    
 40
    3.810
  1
Fillet
 50
    0.000
  0
TEXT
  8
14
 7
SIMPLEX
 10
79.629    
 20
98.108    
 40
    3.810
  1
4
 50
    0.000
  0
TEXT
  8
14
 7
SIMPLEX
 10
104.013   
 20
98.108    
 40
    3.810
  1
  1
 50
    0.000
  0
TEXT
  8
14
 7
SIMPLEX
 10
1.143     
 20
92.393    
 40
    3.810
  1
ST1
 50
    0.000
  0
TEXT
  8
14
 7
SIMPLEX
 10
35.433    
 20
92.393    
 40
    3.810
  1
WB
 50
    0.000
  0
TEXT
  8
14
 7
SIMPLEX
 10
57.531    
 20
92.393    
 40
    3.810
  1
Fillet
 50
    0.000
  0
TEXT
  8
14
 7
SIMPLEX
 10
79.629    
 20
92.393    
 40
    3.810
  1
4
 50
    0.000
  0
TEXT
  8
14
 7
SIMPLEX
 10
104.013   
 20
92.393    
 40
    3.810
  1
  2
 50
    0.000
  0
TEXT
  8
14
 7
SIMPLEX
 10
1.143     
 20
86.678    
 40
    3.810
  1
ST1
 50
    0.000
  0
TEXT
  8
14
 7
SIMPLEX
 10
35.433    
 20
86.678    
 40
    3.810
  1
IF
 50
    0.000
  0
TEXT
  8
14
 7
SIMPLEX
 10
57.531    
 20
86.678    
 40
    3.810
  1
Fillet
 50
    0.000
  0
TEXT
  8
14
 7
SIMPLEX
 10
79.629    
 20
86.678    
 40
    3.810
  1
4
 50
    0.000
  0
TEXT
  8
14
 7
SIMPLEX
 10
104.013   
 20
86.678    
 40
    3.810
  1
  2
 50
    0.000
  0
TEXT
  8
14
 7
SIMPLEX
 10
1.143     
 20
80.963    
 40
    3.810
  1
ST2
 50
    0.000
  0
TEXT
  8
14
 7
SIMPLEX
 10
35.433    
 20
80.963    
 40
    3.810
  1
WB
 50
    0.000
  0
TEXT
  8
14
 7
SIMPLEX
 10
57.531    
 20
80.963    
 40
    3.810
  1
Fillet
 50
    0.000
  0
TEXT
  8
14
 7
SIMPLEX
 10
79.629    
 20
80.963    
 40
    3.810
  1
4
 50
    0.000
  0
TEXT
  8
14
 7
SIMPLEX
 10
104.013   
 20
80.963    
 40
    3.810
  1
  2
 50
    0.000
  0
TEXT
  8
14
 7
SIMPLEX
 10
1.143     
 20
75.248    
 40
    3.810
  1
ST2
 50
    0.000
  0
TEXT
  8
14
 7
SIMPLEX
 10
35.433    
 20
75.248    
 40
    3.810
  1
IF
 50
    0.000
  0
TEXT
  8
14
 7
SIMPLEX
 10
57.531    
 20
75.248    
 40
    3.810
  1
Fillet
 50
    0.000
  0
TEXT
  8
14
 7
SIMPLEX
 10
79.629    
 20
75.248    
 40
    3.810
  1
4
 50
    0.000
  0
TEXT
  8
14
 7
SIMPLEX
 10
104.013   
 20
75.248    
 40
    3.810
  1
  2
 50
    0.000
  0
TEXT
  8
14
 7
SIMPLEX
 10
1.143     
 20
69.533    
 40
    3.810
  1
SS2
 50
    0.000
  0
TEXT
  8
14
 7
SIMPLEX
 10
35.433    
 20
69.533    
 40
    3.810
  1
OF
 50
    0.000
  0
TEXT
  8
14
 7
SIMPLEX
 10
57.531    
 20
69.533    
 40
    3.810
  1
Fillet
 50
    0.000
  0
TEXT
  8
14
 7
SIMPLEX
 10
79.629    
 20
69.533    
 40
    3.810
  1
4
 50
    0.000
  0
TEXT
  8
14
 7
SIMPLEX
 10
104.013   
 20
69.533    
 40
    3.810
  1
  2
 50
    0.000
  0
TEXT
  8
14
 7
SIMPLEX
 10
1.143     
 20
63.818    
 40
    3.810
  1
SS2
 50
    0.000
  0
TEXT
  8
14
 7
SIMPLEX
 10
35.433    
 20
63.818    
 40
    3.810
  1
EP
 50
    0.000
  0
TEXT
  8
14
 7
SIMPLEX
 10
57.531    
 20
63.818    
 40
    3.810
  1
Fillet
 50
    0.000
  0
TEXT
  8
14
 7
SIMPLEX
 10
79.629    
 20
63.818    
 40
    3.810
  1
6
 50
    0.000
  0
TEXT
  8
14
 7
SIMPLEX
 10
104.013   
 20
63.818    
 40
    3.810
  1
  2
 50
    0.000
  0
TEXT
  8
14
 7
SIMPLEX
 10
1.143     
 20
58.103    
 40
    3.810
  1
SS3
 50
    0.000
  0
TEXT
  8
14
 7
SIMPLEX
 10
35.433    
 20
58.103    
 40
    3.810
  1
IF
 50
    0.000
  0
TEXT
  8
14
 7
SIMPLEX
 10
57.531    
 20
58.103    
 40
    3.810
  1
Fillet
 50
    0.000
  0
TEXT
  8
14
 7
SIMPLEX
 10
79.629    
 20
58.103    
 40
    3.810
  1
4
 50
    0.000
  0
TEXT
  8
14
 7
SIMPLEX
 10
104.013   
 20
58.103    
 40
    3.810
  1
  2
 50
    0.000
  0
TEXT
  8
14
 7
SIMPLEX
 10
1.143     
 20
52.388    
 40
    3.810
  1
SS3
 50
    0.000
  0
TEXT
  8
14
 7
SIMPLEX
 10
35.433    
 20
52.388    
 40
    3.810
  1
EP
 50
    0.000
  0
TEXT
  8
14
 7
SIMPLEX
 10
57.531    
 20
52.388    
 40
    3.810
  1
Fillet
 50
    0.000
  0
TEXT
  8
14
 7
SIMPLEX
 10
79.629    
 20
52.388    
 40
    3.810
  1
6
 50
    0.000
  0
TEXT
  8
14
 7
SIMPLEX
 10
104.013   
 20
52.388    
 40
    3.810
  1
  2
 50
    0.000
  0
TEXT
  8
14
 7
SIMPLEX
 10
1.143     
 20
46.673    
 40
    3.810
  1
CLF1
 50
    0.000
  0
TEXT
  8
14
 7
SIMPLEX
 10
35.433    
 20
46.673    
 40
    3.810
  1
WB
 50
    0.000
  0
TEXT
  8
14
 7
SIMPLEX
 10
57.531    
 20
46.673    
 40
    3.810
  1
Fillet
 50
    0.000
  0
TEXT
  8
14
 7
SIMPLEX
 10
79.629    
 20
46.673    
 40
    3.810
  1
4
 50
    0.000
  0
TEXT
  8
14
 7
SIMPLEX
 10
104.013   
 20
46.673    
 40
    3.810
  1
  1
 50
    0.000
  0
TEXT
  8
14
 7
SIMPLEX
 10
1.143     
 20
40.958    
 40
    3.810
  1
CLF1
 50
    0.000
  0
TEXT
  8
14
 7
SIMPLEX
 10
35.433    
 20
40.958    
 40
    3.810
  1
IF
 50
    0.000
  0
TEXT
  8
14
 7
SIMPLEX
 10
57.531    
 20
40.958    
 40
    3.810
  1
Fillet
 50
    0.000
  0
TEXT
  8
14
 7
SIMPLEX
 10
79.629    
 20
40.958    
 40
    3.810
  1
4
 50
    0.000
  0
TEXT
  8
14
 7
SIMPLEX
 10
104.013   
 20
40.958    
 40
    3.810
  1
  1
 50
    0.000
  0
TEXT
  8
14
 7
SIMPLEX
 10
1.143     
 20
35.243    
 40
    3.810
  1
CLF2
 50
    0.000
  0
TEXT
  8
14
 7
SIMPLEX
 10
35.433    
 20
35.243    
 40
    3.810
  1
WB
 50
    0.000
  0
TEXT
  8
14
 7
SIMPLEX
 10
57.531    
 20
35.243    
 40
    3.810
  1
Fillet
 50
    0.000
  0
TEXT
  8
14
 7
SIMPLEX
 10
79.629    
 20
35.243    
 40
    3.810
  1
4
 50
    0.000
  0
TEXT
  8
14
 7
SIMPLEX
 10
104.013   
 20
35.243    
 40
    3.810
  1
  1
 50
    0.000
  0
TEXT
  8
14
 7
SIMPLEX
 10
1.143     
 20
29.528    
 40
    3.810
  1
CLF3
 50
    0.000
  0
TEXT
  8
14
 7
SIMPLEX
 10
35.433    
 20
29.528    
 40
    3.810
  1
OF1
 50
    0.000
  0
TEXT
  8
14
 7
SIMPLEX
 10
57.531    
 20
29.528    
 40
    3.810
  1
Fillet
 50
    0.000
  0
TEXT
  8
14
 7
SIMPLEX
 10
79.629    
 20
29.528    
 40
    3.810
  1
4
 50
    0.000
  0
TEXT
  8
14
 7
SIMPLEX
 10
104.013   
 20
29.528    
 40
    3.810
  1
  1
 50
    0.000
  0
TEXT
  8
14
 7
SIMPLEX
 10
1.143     
 20
23.813    
 40
    3.810
  1
 GC41-01
 50
    0.000
  0
TEXT
  8
14
 7
SIMPLEX
 10
35.433    
 20
23.813    
 40
    3.810
  1
IF
 50
    0.000
  0
TEXT
  8
14
 7
SIMPLEX
 10
57.531    
 20
23.813    
 40
    3.810
  1
Fillet
 50
    0.000
  0
TEXT
  8
14
 7
SIMPLEX
 10
79.629    
 20
23.813    
 40
    3.810
  1
4
 50
    0.000
  0
TEXT
  8
14
 7
SIMPLEX
 10
104.013   
 20
23.813    
 40
    3.810
  1
  1
 50
    0.000
  0
TEXT
  8
14
 7
SIMPLEX
 10
1.143     
 20
18.098    
 40
    3.810
  1
SS4
 50
    0.000
  0
TEXT
  8
14
 7
SIMPLEX
 10
35.433    
 20
18.098    
 40
    3.810
  1
EP
 50
    0.000
  0
TEXT
  8
14
 7
SIMPLEX
 10
57.531    
 20
18.098    
 40
    3.810
  1
Fillet
 50
    0.000
  0
TEXT
  8
14
 7
SIMPLEX
 10
79.629    
 20
18.098    
 40
    3.810
  1
4
 50
    0.000
  0
TEXT
  8
14
 7
SIMPLEX
 10
104.013   
 20
18.098    
 40
    3.810
  1
  1
 50
    0.000
  0
TEXT
  8
14
 7
SIMPLEX
 10
1.143     
 20
12.383    
 40
    3.810
  1
SS4
 50
    0.000
  0
TEXT
  8
14
 7
SIMPLEX
 10
35.433    
 20
12.383    
 40
    3.810
  1
OF1
 50
    0.000
  0
TEXT
  8
14
 7
SIMPLEX
 10
57.531    
 20
12.383    
 40
    3.810
  1
Fillet
 50
    0.000
  0
TEXT
  8
14
 7
SIMPLEX
 10
79.629    
 20
12.383    
 40
    3.810
  1
4
 50
    0.000
  0
TEXT
  8
14
 7
SIMPLEX
 10
104.013   
 20
12.383    
 40
    3.810
  1
  1
 50
    0.000
  0
TEXT
  8
14
 7
SIMPLEX
 10
1.143     
 20
6.668     
 40
    3.810
  1
SS5
 50
    0.000
  0
TEXT
  8
14
 7
SIMPLEX
 10
35.433    
 20
6.668     
 40
    3.810
  1
EP
 50
    0.000
  0
TEXT
  8
14
 7
SIMPLEX
 10
57.531    
 20
6.668     
 40
    3.810
  1
Fillet
 50
    0.000
  0
TEXT
  8
14
 7
SIMPLEX
 10
79.629    
 20
6.668     
 40
    3.810
  1
4
 50
    0.000
  0
TEXT
  8
14
 7
SIMPLEX
 10
104.013   
 20
6.668     
 40
    3.810
  1
  1
 50
    0.000
  0
TEXT
  8
14
 7
SIMPLEX
 10
1.143     
 20
0.953     
 40
    3.810
  1
SS5
 50
    0.000
  0
TEXT
  8
14
 7
SIMPLEX
 10
35.433    
 20
0.953     
 40
    3.810
  1
IF
 50
    0.000
  0
TEXT
  8
14
 7
SIMPLEX
 10
57.531    
 20
0.953     
 40
    3.810
  1
Fillet
 50
    0.000
  0
TEXT
  8
14
 7
SIMPLEX
 10
79.629    
 20
0.953     
 40
    3.810
  1
4
 50
    0.000
  0
TEXT
  8
14
 7
SIMPLEX
 10
104.013   
 20
0.953     
 40
    3.810
  1
  1
 50
    0.000
  0
ENDBLK
  8
0
999
START:   BLOCK=ARROWD
  0
BLOCK
  8
2
  2
ARROWD
 70
     0
 10
    0.000
 20
    0.000
  0
LINE
  8
2
 10
   -0.635
 20
   -0.635
 11
    0.635
 21
    0.635
  0
ENDBLK
  8
2
999
END:     BLOCK=ARROWD
999
START:   BLOCK=PC-21
999
BLOCK_SIZE:   BLOCK=PC-21    Width= 50.8000 Height= 50.8000
  0
BLOCK
  8
2
  2
PC-21
 70
     0
 10
    0.000
 20
    0.000
  0
LINE
  8
1
 10
    0.000
 20
    0.000
 11
   50.800
 21
    0.000
  0
LINE
  8
1
 10
   50.800
 20
    0.000
 11
   50.800
 21
   50.800
  0
LINE
  8
1
 10
   50.800
 20
   50.800
 11
    0.000
 21
   50.800
  0
LINE
  8
1
 10
    0.000
 20
   50.800
 11
    0.000
 21
    0.000
  0
LINE
  8
13
 10
   33.020
 20
   36.830
 11
   12.700
 21
   36.830
  0
LINE
  8
13
 10
   33.020
 20
   36.830
 11
   33.020
 21
   19.050
  0
LINE
  8
13
 10
   12.700
 20
   36.830
 11
   12.700
 21
   19.050
  0
LINE
  8
13
 10
   33.020
 20
   19.050
 11
   12.700
 21
   19.050
  0
CIRCLE
  8
6
 10
    24.553
 20
    32.385
 40
     0.508
  0
CIRCLE
  8
6
 10
    24.553
 20
    23.495
 40
     0.508
  0
LINE
  8
2
 10
   12.700
 20
   16.002
 11
   12.700
 21
   14.478
  0
INSERT
  8
2
  2
ARROWD
 10
   12.700
 20
   15.240
 41
   1.000
 42
   1.000
 43
   1.000
 50
 180.000
  0
LINE
  8
2
 10
   24.553
 20
   16.002
 11
   24.553
 21
   14.478
  0
INSERT
  8
2
  2
ARROWD
 10
   24.553
 20
   15.240
 41
   1.000
 42
   1.000
 43
   1.000
 50
   0.000
  0
LINE
  8
2
 10
   12.700
 20
   15.240
 11
   24.553
 21
   15.240
  0
TEXT
  8
11
 7
SIMPLEX
 10
   17.663
 20
   11.080
 40
    1.927
  1
70
 50
    0.000
  0
INSERT
  8
2
  2
ARROWD
 10
   24.553
 20
   15.240
 41
   1.000
 42
   1.000
 43
   1.000
 50
 180.000
  0
LINE
  8
2
 10
   33.020
 20
   16.002
 11
   33.020
 21
   14.478
  0
INSERT
  8
2
  2
ARROWD
 10
   33.020
 20
   15.240
 41
   1.000
 42
   1.000
 43
   1.000
 50
   0.000
  0
LINE
  8
2
 10
   24.553
 20
   15.240
 11
   33.020
 21
   15.240
  0
TEXT
  8
11
 7
SIMPLEX
 10
   27.823
 20
   11.080
 40
    1.927
  1
50
 50
    0.000
  0
LINE
  8
2
 10
   37.338
 20
   32.385
 11
   38.862
 21
   32.385
  0
INSERT
  8
2
  2
ARROWD
 10
   38.100
 20
   32.385
 41
   1.000
 42
   1.000
 43
   1.000
 50
 -90.000
  0
LINE
  8
2
 10
   37.338
 20
   36.830
 11
   38.862
 21
   36.830
  0
INSERT
  8
2
  2
ARROWD
 10
   38.100
 20
   36.830
 41
   1.000
 42
   1.000
 43
   1.000
 50
  90.000
  0
TEXT
  8
11
 7
SIMPLEX
 10
   39.063
 20
   33.348
 40
    1.927
  1
38
 50
    0.000
  0
LINE
  8
2
 10
   38.100
 20
   36.830
 11
   38.100
 21
   32.385
  0
INSERT
  8
2
  2
ARROWD
 10
   38.100
 20
   32.385
 41
   1.000
 42
   1.000
 43
   1.000
 50
  90.000
  0
LINE
  8
2
 10
   37.338
 20
   23.495
 11
   38.862
 21
   23.495
  0
INSERT
  8
2
  2
ARROWD
 10
   38.100
 20
   23.495
 41
   1.000
 42
   1.000
 43
   1.000
 50
 -90.000
  0
LINE
  8
2
 10
   38.100
 20
   32.385
 11
   38.100
 21
   23.495
  0
TEXT
  8
11
 7
SIMPLEX
 10
   39.063
 20
   27.125
 40
    1.927
  1
75
 50
    0.000
  0
LINE
  8
2
 10
   37.338
 20
   19.050
 11
   38.862
 21
   19.050
  0
INSERT
  8
2
  2
ARROWD
 10
   38.100
 20
   23.495
 41
   1.000
 42
   1.000
 43
   1.000
 50
  90.000
  0
INSERT
  8
2
  2
ARROWD
 10
   38.100
 20
   19.050
 41
   1.000
 42
   1.000
 43
   1.000
 50
 -90.000
  0
LINE
  8
2
 10
   38.100
 20
   19.050
 11
   38.100
 21
   23.495
  0
TEXT
  8
11
 7
SIMPLEX
 10
   39.063
 20
   20.013
 40
    1.927
  1
38
 50
    0.000
  0
LINE
  8
3
 10
   12.446
 20
   39.370
 11
   12.446
 21
   16.510
  0
LINE
  8
3
 10
   10.922
 20
   40.640
 11
   10.922
 21
   15.240
  0
TEXT
  8
2
 7
SIMPLEX
 10
    9.197
 20
   25.400
 40
    1.927
  1
WEB
 50
   90.000
  0
TEXT
  8
21
 7
SIMPLEX
 10
    0.963
 20
   45.019
 40
    1.927
  1
D= 18
 50
    0.000
  0
TEXT
  8
2
 7
SIMPLEX
 10
    0.963
 20
   47.910
 40
    1.927
  1
CLF2
 50
    0.000
  0
TEXT
  8
2
 7
SIMPLEX
 10
    0.963
 20
    0.963
 40
    1.927
  1
10 x 150 x 120
 50
    0.000
  0
ENDBLK
  8
2
999
END:     BLOCK=PC-21
999
START:   BLOCK=GC-1
999
BLOCK_SIZE:   BLOCK=GC-1     Width= 50.8000 Height= 50.8000
  0
BLOCK
  8
2
  2
GC-1
 70
     0
 10
    0.000
 20
    0.000
  0
LINE
  8
1
 10
    0.000
 20
    0.000
 11
   50.800
 21
    0.000
  0
LINE
  8
1
 10
   50.800
 20
    0.000
 11
   50.800
 21
   50.800
  0
LINE
  8
1
 10
   50.800
 20
   50.800
 11
    0.000
 21
   50.800
  0
LINE
  8
1
 10
    0.000
 20
   50.800
 11
    0.000
 21
    0.000
  0
LINE
  8
13
 10
   33.020
 20
   36.830
 11
   12.700
 21
   36.830
  0
LINE
  8
13
 10
   33.020
 20
   36.830
 11
   33.020
 21
   19.050
  0
LINE
  8
13
 10
   12.700
 20
   36.830
 11
   12.700
 21
   19.050
  0
LINE
  8
13
 10
   33.020
 20
   19.050
 11
   12.700
 21
   19.050
  0
CIRCLE
  8
6
 10
    16.087
 20
    34.662
 40
     0.508
  0
CIRCLE
  8
6
 10
    29.633
 20
    34.662
 40
     0.508
  0
LINE
  8
2
 10
   36.068
 20
   36.830
 11
   37.592
 21
   36.830
  0
INSERT
  8
2
  2
ARROWD
 10
   36.830
 20
   36.830
 41
   1.000
 42
   1.000
 43
   1.000
 50
  90.000
  0
LINE
  8
2
 10
   36.068
 20
   34.662
 11
   37.592
 21
   34.662
  0
INSERT
  8
2
  2
ARROWD
 10
   36.830
 20
   34.662
 41
   1.000
 42
   1.000
 43
   1.000
 50
 -90.000
  0
LINE
  8
2
 10
   36.830
 20
   36.830
 11
   36.830
 21
   34.662
  0
TEXT
  8
11
 7
SIMPLEX
 10
   37.793
 20
   34.782
 40
    1.927
  1
25
 50
    0.000
  0
CIRCLE
  8
6
 10
    16.087
 20
    25.989
 40
     0.508
  0
CIRCLE
  8
6
 10
    29.633
 20
    25.989
 40
     0.508
  0
LINE
  8
2
 10
   36.068
 20
   34.662
 11
   37.592
 21
   34.662
  0
INSERT
  8
2
  2
ARROWD
 10
   36.830
 20
   34.662
 41
   1.000
 42
   1.000
 43
   1.000
 50
  90.000
  0
LINE
  8
2
 10
   36.068
 20
   25.989
 11
   37.592
 21
   25.989
  0
INSERT
  8
2
  2
ARROWD
 10
   36.830
 20
   25.989
 41
   1.000
 42
   1.000
 43
   1.000
 50
 -90.000
  0
LINE
  8
2
 10
   36.830
 20
   34.662
 11
   36.830
 21
   25.989
  0
TEXT
  8
11
 7
SIMPLEX
 10
   37.793
 20
   29.362
 40
    1.927
  1
100
 50
    0.000
  0
INSERT
  8
2
  2
ARROWD
 10
   36.830
 20
   25.989
 41
   1.000
 42
   1.000
 43
   1.000
 50
 -90.000
  0
LINE
  8
2
 10
   36.068
 20
   19.050
 11
   37.592
 21
   19.050
  0
INSERT
  8
2
  2
ARROWD
 10
   36.830
 20
   19.050
 41
   1.000
 42
   1.000
 43
   1.000
 50
 -90.000
  0
LINE
  8
2
 10
   36.830
 20
   25.989
 11
   36.830
 21
   19.050
  0
TEXT
  8
11
 7
SIMPLEX
 10
   37.793
 20
   21.556
 40
    1.927
  1
80
 50
    0.000
  0
LINE
  8
2
 10
   12.700
 20
   38.608
 11
   12.700
 21
   40.132
  0
INSERT
  8
2
  2
ARROWD
 10
   12.700
 20
   39.370
 41
   1.000
 42
   1.000
 43
   1.000
 50
 180.000
  0
LINE
  8
2
 10
   16.087
 20
   38.608
 11
   16.087
 21
   40.132
  0
INSERT
  8
2
  2
ARROWD
 10
   16.087
 20
   39.370
 41
   1.000
 42
   1.000
 43
   1.000
 50
   0.000
  0
LINE
  8
2
 10
   12.700
 20
   39.370
 11
   16.087
 21
   39.370
  0
TEXT
  8
11
 7
SIMPLEX
 10
   13.430
 20
   40.333
 40
    1.927
  1
25
 50
    0.000
  0
INSERT
  8
2
  2
ARROWD
 10
   16.087
 20
   39.370
 41
   1.000
 42
   1.000
 43
   1.000
 50
 180.000
  0
LINE
  8
2
 10
   16.087
 20
   38.608
 11
   16.087
 21
   40.132
  0
INSERT
  8
2
  2
ARROWD
 10
   29.633
 20
   39.370
 41
   1.000
 42
   1.000
 43
   1.000
 50
   0.000
  0
LINE
  8
2
 10
   29.633
 20
   39.370
 11
   16.087
 21
   39.370
  0
TEXT
  8
11
 7
SIMPLEX
 10
   21.897
 20
   40.333
 40
    1.927
  1
100
 50
    0.000
  0
LINE
  8
2
 10
   29.633
 20
   39.370
 11
   33.020
 21
   39.370
  0
LINE
  8
2
 10
   29.633
 20
   38.608
 11
   29.633
 21
   40.132
  0
INSERT
  8
2
  2
ARROWD
 10
   29.633
 20
   39.370
 41
   1.000
 42
   1.000
 43
   1.000
 50
 180.000
  0
INSERT
  8
2
  2
ARROWD
 10
   33.020
 20
   39.370
 41
   1.000
 42
   1.000
 43
   1.000
 50
   0.000
  0
LINE
  8
2
 10
   33.020
 20
   38.608
 11
   33.020
 21
   40.132
  0
TEXT
  8
11
 7
SIMPLEX
 10
   30.363
 20
   40.333
 40
    1.927
  1
25
 50
    0.000
  0
LINE
  8
3
 10
   10.160
 20
   18.796
 11
   35.560
 21
   18.796
  0
LINE
  8
3
 10
   10.160
 20
   17.272
 11
   35.560
 21
   17.272
  0
LINE
  8
3
 10
   10.160
 20
   17.272
 11
   10.160
 21
   18.796
  0
LINE
  8
3
 10
   35.560
 20
   17.272
 11
   35.560
 21
   18.796
  0
LINE
  8
3
 10
   22.098
 20
   14.732
 11
   22.098
 21
   17.272
  0
LINE
  8
3
 10
   23.622
 20
   13.462
 11
   23.622
 21
   17.272
  0
TEXT
  8
21
 7
SIMPLEX
 10
    0.963
 20
   45.019
 40
    1.927
  1
D= 14
 50
    0.000
  0
TEXT
  8
2
 7
SIMPLEX
 10
    0.963
 20
   47.910
 40
    1.927
  1
CLF3
 50
    0.000
  0
TEXT
  8
2
 7
SIMPLEX
 10
    0.963
 20
    0.963
 40
    1.927
  1
5 x 150 x 205
 50
    0.000
  0
ENDBLK
  8
2
999
END:     BLOCK=GC-1
999
START:   BLOCK=GC-51
999
BLOCK_SIZE:   BLOCK=GC-51    Width= 50.8000 Height= 50.8000
  0
BLOCK
  8
2
  2
GC-51
 70
     0
 10
    0.000
 20
    0.000
  0
LINE
  8
1
 10
    0.000
 20
    0.000
 11
   50.800
 21
    0.000
  0
LINE
  8
1
 10
   50.800
 20
    0.000
 11
   50.800
 21
   50.800
  0
LINE
  8
1
 10
   50.800
 20
   50.800
 11
    0.000
 21
   50.800
  0
LINE
  8
1
 10
    0.000
 20
   50.800
 11
    0.000
 21
    0.000
  0
LINE
  8
13
 10
   33.020
 20
   36.830
 11
   12.700
 21
   36.830
  0
LINE
  8
13
 10
   33.020
 20
   36.830
 11
   33.020
 21
   19.050
  0
LINE
  8
13
 10
   12.700
 20
   36.830
 11
   12.700
 21
   19.050
  0
LINE
  8
13
 10
   33.020
 20
   19.050
 11
   12.700
 21
   19.050
  0
CIRCLE
  8
6
 10
    16.087
 20
    24.977
 40
     0.508
  0
CIRCLE
  8
6
 10
    29.633
 20
    24.977
 40
     0.508
  0
LINE
  8
2
 10
   36.068
 20
   36.830
 11
   37.592
 21
   36.830
  0
INSERT
  8
2
  2
ARROWD
 10
   36.830
 20
   36.830
 41
   1.000
 42
   1.000
 43
   1.000
 50
  90.000
  0
LINE
  8
2
 10
   36.068
 20
   24.977
 11
   37.592
 21
   24.977
  0
INSERT
  8
2
  2
ARROWD
 10
   36.830
 20
   24.977
 41
   1.000
 42
   1.000
 43
   1.000
 50
 -90.000
  0
LINE
  8
2
 10
   36.830
 20
   36.830
 11
   36.830
 21
   24.977
  0
TEXT
  8
11
 7
SIMPLEX
 10
   37.793
 20
   29.940
 40
    1.927
  1
100
 50
    0.000
  0
INSERT
  8
2
  2
ARROWD
 10
   36.830
 20
   24.977
 41
   1.000
 42
   1.000
 43
   1.000
 50
 -90.000
  0
LINE
  8
2
 10
   36.068
 20
   19.050
 11
   37.592
 21
   19.050
  0
INSERT
  8
2
  2
ARROWD
 10
   36.830
 20
   19.050
 41
   1.000
 42
   1.000
 43
   1.000
 50
 -90.000
  0
LINE
  8
2
 10
   36.830
 20
   24.977
 11
   36.830
 21
   19.050
  0
TEXT
  8
11
 7
SIMPLEX
 10
   37.793
 20
   21.050
 40
    1.927
  1
50
 50
    0.000
  0
LINE
  8
2
 10
   12.700
 20
   17.272
 11
   12.700
 21
   15.748
  0
INSERT
  8
2
  2
ARROWD
 10
   12.700
 20
   16.510
 41
   1.000
 42
   1.000
 43
   1.000
 50
 180.000
  0
LINE
  8
2
 10
   16.087
 20
   17.272
 11
   16.087
 21
   15.748
  0
INSERT
  8
2
  2
ARROWD
 10
   16.087
 20
   16.510
 41
   1.000
 42
   1.000
 43
   1.000
 50
   0.000
  0
LINE
  8
2
 10
   12.700
 20
   16.510
 11
   16.087
 21
   16.510
  0
TEXT
  8
11
 7
SIMPLEX
 10
   13.430
 20
   13.620
 40
    1.927
  1
50
 50
    0.000
  0
INSERT
  8
2
  2
ARROWD
 10
   16.087
 20
   16.510
 41
   1.000
 42
   1.000
 43
   1.000
 50
 180.000
  0
LINE
  8
2
 10
   16.087
 20
   17.272
 11
   16.087
 21
   15.748
  0
INSERT
  8
2
  2
ARROWD
 10
   29.633
 20
   16.510
 41
   1.000
 42
   1.000
 43
   1.000
 50
   0.000
  0
LINE
  8
2
 10
   29.633
 20
   16.510
 11
   16.087
 21
   16.510
  0
TEXT
  8
11
 7
SIMPLEX
 10
   21.897
 20
   13.620
 40
    1.927
  1
200
 50
    0.000
  0
LINE
  8
2
 10
   29.633
 20
   16.510
 11
   33.020
 21
   16.510
  0
LINE
  8
2
 10
   29.633
 20
   17.272
 11
   29.633
 21
   15.748
  0
INSERT
  8
2
  2
ARROWD
 10
   29.633
 20
   16.510
 41
   1.000
 42
   1.000
 43
   1.000
 50
 180.000
  0
INSERT
  8
2
  2
ARROWD
 10
   33.020
 20
   16.510
 41
   1.000
 42
   1.000
 43
   1.000
 50
   0.000
  0
LINE
  8
2
 10
   33.020
 20
   17.272
 11
   33.020
 21
   15.748
  0
TEXT
  8
11
 7
SIMPLEX
 10
   30.363
 20
   13.620
 40
    1.927
  1
50
 50
    0.000
  0
LINE
  8
3
 10
   10.160
 20
   37.084
 11
   35.560
 21
   37.084
  0
LINE
  8
3
 10
   10.160
 20
   38.608
 11
   35.560
 21
   38.608
  0
LINE
  8
3
 10
   10.160
 20
   38.608
 11
   10.160
 21
   37.084
  0
LINE
  8
3
 10
   35.560
 20
   38.608
 11
   35.560
 21
   37.084
  0
LINE
  8
3
 10
   22.098
 20
   41.148
 11
   22.098
 21
   38.608
  0
LINE
  8
3
 10
   23.622
 20
   42.418
 11
   23.622
 21
   38.608
  0
TEXT
  8
21
 7
SIMPLEX
 10
    0.963
 20
   45.019
 40
    1.927
  1
D= 22
 50
    0.000
  0
TEXT
  8
2
 7
SIMPLEX
 10
    0.963
 20
   47.910
 40
    1.927
  1
GC41-01
 50
    0.000
  0
TEXT
  8
2
 7
SIMPLEX
 10
    0.963
 20
    0.963
 40
    1.927
  1
8 x 300 x 150
 50
    0.000
  0
ENDBLK
  8
2
999
END:     BLOCK=GC-51
  0
ENDSEC
  0
SECTION
  2
ENTITIES
  0
LINE
  8
22
 10
0.000     
 20
0.000     
 11
841.000   
 21
0.000     
  0
LINE
  8
22
 10
841.000   
 20
0.000     
 11
841.000   
 21
594.000   
  0
LINE
  8
22
 10
841.000   
 20
594.000   
 11
0.000     
 21
594.000   
  0
LINE
  8
22
 10
0.000     
 20
594.000   
 11
0.000     
 21
0.000     
  0
INSERT
  8
0
  2
ASMPIECE
 10
43.000    
 20
292.000   
 41
   0.087
 42
   0.087
 43
   0.087
 50
   0.000
  0
INSERT
  8
0
  2
ASMBASE
 10
0.000     
 20
519.000   
 41
   2.953
 42
   2.953
 43
   2.953
 50
   0.000
  0
INSERT
  8
0
  2
ASMPLATE
 10
0.000     
 20
0.000     
 41
   1.000
 42
   1.000
 43
   1.000
 50
   0.000
  0
INSERT
  8
0
  2
ASMTITLE
 10
703.840   
 20
0.000     
 41
   1.500
 42
   1.500
 43
   1.500
 50
   0.000
  0
INSERT
  8
0
  2
ASMSECTN
 10
225.000   
 20
430.000   
 41
   1.240
 42
   1.240
 43
   1.240
 50
   0.000
  0
INSERT
  8
0
  2
ASMSECT2
 10
390.020   
 20
19.050    
 41
   0.900
 42
   0.900
 43
   0.900
 50
   0.000
  0
INSERT
  8
0
  2
ASMBOLT
 10
385.000   
 20
40.000    
 41
   0.984
 42
   0.984
 43
   0.984
 50
   0.000
  0
INSERT
  8
0
  2
ASMVIEW
 10
225.000   
 20
385.000   
 41
   0.984
 42
   0.984
 43
   0.984
 50
   0.000
  0
INSERT
  8
0
  2
ASMSLOT
 10
445.000   
 20
0.000     
 41
   0.984
 42
   0.984
 43
   0.984
 50
   0.000
  0
INSERT
  8
0
  2
ASM_WELD
 10
764.269   
 20
594.000   
 41
   0.984
 42
   0.984
 43
   0.984
 50
   0.000
  0
INSERT
  8
0
  2
PC-21
 10
221.457   
 20
519.000   
 41
   1.476
 42
   1.476
 43
   1.476
 50
   0.000
  0
INSERT
  8
0
  2
GC-1
 10
296.457   
 20
519.000   
 41
   1.476
 42
   1.476
 43
   1.476
 50
   0.000
  0
INSERT
  8
0
  2
GC-51
 10
371.457   
 20
519.000   
 41
   1.476
 42
   1.476
 43
   1.476
 50
   0.000
  0
ENDSEC
  0
EOF
