999
SOURCE:MBS   PROGRAM:ASM_DXF   CELL:ASM_DWG   CLASS:SHOP   MODE:---
  0
SECTION
  2
HEADER
  9
$EXTMIN
 10
   0.000
 20
   0.000
  9
$EXTMAX
 10
 841.000
 20
 594.000
  9
$LIMMIN
 10
   0.000
 20
   0.000
  9
$LIMMAX
 10
 841.000
 20
 594.000
  9
$HANDLING
 70
     0
999
BORDER_EXTENTS: 0.000      0.000      841.000    594.000
  0
ENDSEC
  0
SECTION
  2
TABLES
  0
TABLE
  2
LTYPE
 70
     3
  0
LTYPE
  2
CONTIN
 70
    64
  3
SOLID LINE
 72
    65
 73
     0
 40
0.0
  0
LTYPE
  2
CENTER
 70
    64
  3
____ _ ____ _ ____ _ ____ _ ____ _ ____ _ ____
 72
    65
 73
     4
 40
2.0
 49
1.25
 49
-0.25
 49
0.25
 49
-0.25
  0
LTYPE
  2
DASHED
 70
    64
  3
__ __ __ __ __ __ __ __ __ __ __ __ __ __ __ 
 72
    65
 73
     2
 40
2.3812
 49
1.5875
 49
-0.7937
  0
ENDTAB
  0
TABLE
  2
LAYER
 70
    50
  0
LAYER
  2
0
 70
     0
 62
     7
  6
CONTIN
  0
LAYER
  2
1
 70
     0
 62
     7
  6
CONTIN
  0
LAYER
  2
2
 70
     0
 62
     7
  6
CONTIN
  0
LAYER
  2
3
 70
     0
 62
     1
  6
CONTIN
  0
LAYER
  2
4
 70
     0
 62
     1
  6
CONTIN
  0
LAYER
  2
5
 70
     0
 62
     7
  6
CONTIN
  0
LAYER
  2
6
 70
     0
 62
     4
  6
CONTIN
  0
LAYER
  2
7
 70
     0
 62
     3
  6
DASHED
  0
LAYER
  2
8
 70
     0
 62
     3
  6
DASHED
  0
LAYER
  2
9
 70
     0
 62
     7
  6
CONTIN
  0
LAYER
  2
10
 70
     0
 62
     7
  6
CONTIN
  0
LAYER
  2
11
 70
     0
 62
     7
  6
CONTIN
  0
LAYER
  2
12
 70
     0
 62
     2
  6
CONTIN
  0
LAYER
  2
13
 70
     0
 62
     2
  6
CONTIN
  0
LAYER
  2
14
 70
     0
 62
     7
  6
CONTIN
  0
LAYER
  2
15
 70
     0
 62
     6
  6
CONTIN
  0
LAYER
  2
16
 70
     0
 62
     7
  6
CONTIN
  0
LAYER
  2
17
 70
     0
 62
     7
  6
CONTIN
  0
LAYER
  2
18
 70
     0
 62
     4
  6
CONTIN
  0
LAYER
  2
19
 70
     0
 62
     7
  6
CONTIN
  0
LAYER
  2
20
 70
     0
 62
     7
  6
CONTIN
  0
LAYER
  2
21
 70
     0
 62
     7
  6
CONTIN
  0
LAYER
  2
22
 70
     0
 62
     7
  6
CONTIN
  0
LAYER
  2
23
 70
     0
 62
     7
  6
CONTIN
  0
LAYER
  2
24
 70
     0
 62
     7
  6
CONTIN
  0
LAYER
  2
25
 70
     0
 62
     7
  6
CONTIN
  0
LAYER
  2
26
 70
     0
 62
     7
  6
CONTIN
  0
LAYER
  2
27
 70
     0
 62
     7
  6
CONTIN
  0
LAYER
  2
28
 70
     0
 62
     7
  6
CONTIN
  0
LAYER
  2
29
 70
     0
 62
     7
  6
CONTIN
  0
LAYER
  2
30
 70
     0
 62
     7
  6
CONTIN
  0
LAYER
  2
31
 70
     0
 62
     7
  6
CONTIN
  0
LAYER
  2
32
 70
     0
 62
     7
  6
CONTIN
  0
LAYER
  2
33
 70
     0
 62
     7
  6
CONTIN
  0
LAYER
  2
34
 70
     0
 62
     7
  6
CONTIN
  0
LAYER
  2
35
 70
     0
 62
     7
  6
CONTIN
  0
LAYER
  2
36
 70
     0
 62
     7
  6
CONTIN
  0
LAYER
  2
37
 70
     0
 62
     7
  6
CONTIN
  0
LAYER
  2
38
 70
     0
 62
     7
  6
CONTIN
  0
LAYER
  2
39
 70
     0
 62
     7
  6
CONTIN
  0
LAYER
  2
40
 70
     0
 62
     7
  6
CONTIN
  0
LAYER
  2
41
 70
     0
 62
     7
  6
CONTIN
  0
LAYER
  2
42
 70
     0
 62
     7
  6
CONTIN
  0
LAYER
  2
43
 70
     0
 62
     7
  6
CONTIN
  0
LAYER
  2
44
 70
     0
 62
     7
  6
CONTIN
  0
LAYER
  2
45
 70
     0
 62
     7
  6
CONTIN
  0
LAYER
  2
46
 70
     0
 62
     7
  6
CONTIN
  0
LAYER
  2
47
 70
     0
 62
     7
  6
CONTIN
  0
LAYER
  2
48
 70
     0
 62
     7
  6
CONTIN
  0
LAYER
  2
49
 70
     0
 62
     7
  6
CONTIN
  0
ENDTAB
  0
TABLE
  2
STYLE
 70
  0
  0
STYLE
  2
SIMPLEX
 70
  0
 40
  0.000
 41
  1.000
 42
  1.000
 50
  0.000
 71
  0
  3
SIMPLEX
  0
STYLE
  2
ROMANS
 70
  0
 40
  0.000
 41
  1.000
 42
  1.000
 50
  0.000
 71
  0
  3
ROMANS
  0
STYLE
  2
OPEN
 70
  0
 40
  0.000
 41
  1.000
 42
  1.000
 50
  0.000
 71
  0
  3
SIMPLEX
  0
STYLE
  2
ARIAL
 70
  0
 40
  0.000
 41
  1.000
 42
  1.000
 50
  0.000
 71
  0
  3
ARIAL.TTF
  0
STYLE
  2
VERDANAB
 70
  0
 40
  0.000
 41
  1.000
 42
  1.000
 50
  0.000
 71
  0
  3
VERDANAB.TTF
  0
ENDTAB
  0
ENDSEC
  0
SECTION
  2
BLOCKS
  0
BLOCK
  8
2
  2
ARROW
 70
     0
 10
0.000     
 20
0.000     
  0
LINE
  8
2
 10
-0.635    
 20
-0.635    
 11
0.635     
 21
0.635     
  0
ENDBLK
  8
2
  0
BLOCK
  8
0
  2
ARROWP
 70
     0
 10
0.000     
 20
0.000     
  0
LINE
  8
0
 10
0.000     
 20
0.000     
 11
-1.270    
 21
0.317     
  0
LINE
  8
0
 10
-1.270    
 20
0.317     
 11
-1.270    
 21
-0.317    
  0
LINE
  8
0
 10
-1.270    
 20
-0.317    
 11
0.000     
 21
0.000     
  0
ENDBLK
  8
0
  0
BLOCK
  8
3
  2
CIRCLE
 70
     0
 10
0.000     
 20
0.000     
  0
CIRCLE
  8
1
 10
     0.000
 20
     0.000
 40
    10.160
  0
ENDBLK
  8
3
  0
BLOCK
  8
3
  2
SLOTTD
 70
     0
 10
0.000     
 20
0.000     
  0
ARC
  8
6
 10
-25.400   
 20
0.000     
 40
  12.700
 50
  90.000
 51
 270.000
  0
ARC
  8
6
 10
25.400    
 20
0.000     
 40
  12.700
 50
 270.000
 51
  90.000
  0
LINE
  8
6
 10
-25.400   
 20
-12.700   
 11
25.400    
 21
-12.700   
  0
LINE
  8
6
 10
-25.400   
 20
12.700    
 11
25.400    
 21
12.700    
  0
ENDBLK
  8
3
  0
BLOCK
  8
3
  2
FLGHOL
 70
     0
 10
0.000     
 20
0.000     
  0
SOLID
  8
6
 10
-6.350    
 20
0.000     
 11
6.350     
 21
0.000     
 12
-6.350    
 22
25.400    
 13
6.350     
 23
25.400    
  0
ENDBLK
  8
3
  0
BLOCK
  8
2
  2
BRCCLP
 70
     0
 10
12.700    
 20
0.000     
  0
LINE
  8
2
 10
12.700    
 20
0.000     
 11
12.700    
 21
101.600   
  0
LINE
  8
2
 10
-12.700   
 20
101.600   
 11
12.700    
 21
101.600   
  0
SOLID
  8
1
 10
-12.700   
 20
68.580    
 11
12.700    
 21
68.580    
 12
-12.700   
 22
83.820    
 13
12.700    
 23
83.820    
  0
ENDBLK
  8
3
  0
BLOCK
  8
2
  2
BRCCLPB
 70
     0
 10
12.700    
 20
0.000     
  0
LINE
  8
7
 10
12.700    
 20
0.000     
 11
12.700    
 21
101.600   
  0
LINE
  8
7
 10
-12.700   
 20
101.600   
 11
12.700    
 21
101.600   
  0
SOLID
  8
1
 10
-12.700   
 20
68.580    
 11
12.700    
 21
68.580    
 12
-12.700   
 22
83.820    
 13
12.700    
 23
83.820    
  0
ENDBLK
  8
3
  0
BLOCK
  8
2
  2
GRTANGC
 70
     0
 10
0.000     
 20
0.000     
  0
LINE
  8
13
 10
88.900    
 20
0.000     
 11
-12.700   
 21
0.000     
  0
LINE
  8
13
 10
88.900    
 20
0.000     
 11
88.900    
 21
152.400   
  0
LINE
  8
13
 10
-12.700   
 20
0.000     
 11
-12.700   
 21
152.400   
  0
LINE
  8
13
 10
88.900    
 20
152.400   
 11
-12.700   
 21
152.400   
  0
LINE
  8
13
 10
12.700    
 20
0.000     
 11
12.700    
 21
152.400   
  0
SOLID
  8
6
 10
-12.700   
 20
119.380   
 11
12.700    
 21
119.380   
 12
-12.700   
 22
134.620   
 13
12.700    
 23
134.620   
  0
SOLID
  8
6
 10
-12.700   
 20
68.580    
 11
12.700    
 21
68.580    
 12
-12.700   
 22
83.820    
 13
12.700    
 23
83.820    
  0
ENDBLK
  8
3
  0
BLOCK
  8
2
  2
GRTCLPB
 70
     0
 10
0.000     
 20
0.000     
  0
LINE
  8
13
 10
-12.700   
 20
0.000     
 11
-12.700   
 21
152.400   
  0
LINE
  8
13
 10
-12.700   
 20
0.000     
 11
12.700    
 21
0.000     
  0
LINE
  8
13
 10
-12.700   
 20
152.400   
 11
12.700    
 21
152.400   
  0
LINE
  8
13
 10
12.700    
 20
0.000     
 11
12.700    
 21
152.400   
  0
SOLID
  8
6
 10
-12.700   
 20
119.380   
 11
12.700    
 21
119.380   
 12
-12.700   
 22
134.620   
 13
12.700    
 23
134.620   
  0
SOLID
  8
6
 10
-12.700   
 20
68.580    
 11
12.700    
 21
68.580    
 12
-12.700   
 22
83.820    
 13
12.700    
 23
83.820    
  0
ENDBLK
  8
3
  0
BLOCK
  8
2
  2
GRTCLP1
 70
     0
 10
0.000     
 20
0.000     
  0
LINE
  8
13
 10
-12.700   
 20
0.000     
 11
-12.700   
 21
101.600   
  0
LINE
  8
13
 10
-12.700   
 20
0.000     
 11
12.700    
 21
0.000     
  0
LINE
  8
13
 10
-12.700   
 20
101.600   
 11
12.700    
 21
101.600   
  0
LINE
  8
13
 10
12.700    
 20
0.000     
 11
12.700    
 21
101.600   
  0
SOLID
  8
6
 10
-12.700   
 20
68.580    
 11
12.700    
 21
68.580    
 12
-12.700   
 22
83.820    
 13
12.700    
 23
83.820    
  0
ENDBLK
  8
3
  0
BLOCK
  8
2
  2
GRTCLP0
 70
     0
 10
0.000     
 20
0.000     
  0
LINE
  8
13
 10
-12.700   
 20
0.000     
 11
-12.700   
 21
101.600   
  0
LINE
  8
13
 10
-12.700   
 20
0.000     
 11
12.700    
 21
0.000     
  0
LINE
  8
13
 10
-12.700   
 20
101.600   
 11
12.700    
 21
101.600   
  0
LINE
  8
13
 10
12.700    
 20
0.000     
 11
12.700    
 21
101.600   
  0
ENDBLK
  8
3
  0
BLOCK
  8
2
  2
GRTCLPZ
 70
     0
 10
0.000     
 20
0.000     
  0
LINE
  8
13
 10
-12.700   
 20
0.000     
 11
-12.700   
 21
63.500    
  0
LINE
  8
13
 10
-12.700   
 20
63.500    
 11
38.100    
 21
63.500    
  0
LINE
  8
13
 10
38.100    
 20
63.500    
 11
38.100    
 21
152.400   
  0
LINE
  8
13
 10
38.100    
 20
152.400   
 11
63.500    
 21
152.400   
  0
LINE
  8
13
 10
63.500    
 20
152.400   
 11
63.500    
 21
38.100    
  0
LINE
  8
13
 10
63.500    
 20
38.100    
 11
12.700    
 21
38.100    
  0
LINE
  8
13
 10
12.700    
 20
38.100    
 11
12.700    
 21
0.000     
  0
SOLID
  8
6
 10
38.100    
 20
119.380   
 11
63.500    
 21
119.380   
 12
38.100    
 22
134.620   
 13
63.500    
 23
134.620   
  0
SOLID
  8
6
 10
38.100    
 20
68.580    
 11
63.500    
 21
68.580    
 12
38.100    
 22
83.820    
 13
63.500    
 23
83.820    
  0
ENDBLK
  8
3
  0
BLOCK
  8
2
  2
WEBCLP2
 70
     0
 10
0.000     
 20
152.400   
  0
LINE
  8
13
 10
-12.700   
 20
0.000     
 11
-12.700   
 21
203.200   
  0
LINE
  8
13
 10
-12.700   
 20
0.000     
 11
12.700    
 21
0.000     
  0
LINE
  8
13
 10
-12.700   
 20
203.200   
 11
12.700    
 21
203.200   
  0
LINE
  8
13
 10
12.700    
 20
0.000     
 11
12.700    
 21
203.200   
  0
SOLID
  8
6
 10
-12.700   
 20
43.180    
 11
12.700    
 21
43.180    
 12
-12.700   
 22
58.420    
 13
12.700    
 23
58.420    
  0
SOLID
  8
6
 10
-12.700   
 20
144.780   
 11
12.700    
 21
144.780   
 12
-12.700   
 22
160.020   
 13
12.700    
 23
160.020   
  0
ENDBLK
  8
3
  0
BLOCK
  8
2
  2
WEBCLPL
 70
     0
 10
0.000     
 20
152.400   
  0
LINE
  8
13
 10
0.000     
 20
0.000     
 11
-25.400   
 21
0.000     
  0
LINE
  8
13
 10
0.000     
 20
203.200   
 11
-25.400   
 21
203.200   
  0
LINE
  8
13
 10
-25.400   
 20
0.000     
 11
-25.400   
 21
203.200   
  0
ENDBLK
  8
3
  0
BLOCK
  8
2
  2
WEBCLP3
 70
     0
 10
0.000     
 20
144.780   
  0
LINE
  8
13
 10
-12.700   
 20
0.000     
 11
-12.700   
 21
187.960   
  0
LINE
  8
13
 10
-12.700   
 20
0.000     
 11
12.700    
 21
0.000     
  0
LINE
  8
13
 10
-12.700   
 20
187.960   
 11
12.700    
 21
187.960   
  0
LINE
  8
13
 10
12.700    
 20
0.000     
 11
12.700    
 21
187.960   
  0
SOLID
  8
6
 10
-12.700   
 20
35.560    
 11
12.700    
 21
35.560    
 12
-12.700   
 22
50.800    
 13
12.700    
 23
50.800    
  0
SOLID
  8
6
 10
-12.700   
 20
86.360    
 11
12.700    
 21
86.360    
 12
-12.700   
 22
101.600   
 13
12.700    
 23
101.600   
  0
SOLID
  8
6
 10
-12.700   
 20
137.160   
 11
12.700    
 21
137.160   
 12
-12.700   
 22
152.400   
 13
12.700    
 23
152.400   
  0
ENDBLK
  8
3
  0
BLOCK
  8
2
  2
WEBCLP4
 70
     0
 10
0.000     
 20
195.580   
  0
LINE
  8
13
 10
-12.700   
 20
0.000     
 11
-12.700   
 21
238.760   
  0
LINE
  8
13
 10
-12.700   
 20
0.000     
 11
12.700    
 21
0.000     
  0
LINE
  8
13
 10
-12.700   
 20
238.760   
 11
12.700    
 21
238.760   
  0
LINE
  8
13
 10
12.700    
 20
0.000     
 11
12.700    
 21
238.760   
  0
SOLID
  8
6
 10
-12.700   
 20
35.560    
 11
12.700    
 21
35.560    
 12
-12.700   
 22
50.800    
 13
12.700    
 23
50.800    
  0
SOLID
  8
6
 10
-12.700   
 20
86.360    
 11
12.700    
 21
86.360    
 12
-12.700   
 22
101.600   
 13
12.700    
 23
101.600   
  0
SOLID
  8
6
 10
-12.700   
 20
137.160   
 11
12.700    
 21
137.160   
 12
-12.700   
 22
152.400   
 13
12.700    
 23
152.400   
  0
SOLID
  8
6
 10
-12.700   
 20
187.960   
 11
12.700    
 21
187.960   
 12
-12.700   
 22
203.200   
 13
12.700    
 23
203.200   
  0
ENDBLK
  8
4
  0
BLOCK
  8
2
  2
WEBCLP1
 70
     0
 10
0.000     
 20
76.200    
  0
LINE
  8
13
 10
-12.700   
 20
0.000     
 11
-12.700   
 21
152.400   
  0
LINE
  8
13
 10
-12.700   
 20
0.000     
 11
12.700    
 21
0.000     
  0
LINE
  8
13
 10
-12.700   
 20
152.400   
 11
12.700    
 21
152.400   
  0
LINE
  8
13
 10
12.700    
 20
0.000     
 11
12.700    
 21
152.400   
  0
SOLID
  8
6
 10
-12.700   
 20
68.580    
 11
12.700    
 21
68.580    
 12
-12.700   
 22
83.820    
 13
12.700    
 23
83.820    
  0
ENDBLK
  8
3
  0
BLOCK
  8
2
  2
WEBCLP2B
 70
     0
 10
0.000     
 20
152.400   
  0
LINE
  8
7
 10
-12.700   
 20
0.000     
 11
-12.700   
 21
203.200   
  0
LINE
  8
7
 10
-12.700   
 20
0.000     
 11
12.700    
 21
0.000     
  0
LINE
  8
7
 10
-12.700   
 20
203.200   
 11
12.700    
 21
203.200   
  0
LINE
  8
7
 10
12.700    
 20
0.000     
 11
12.700    
 21
203.200   
  0
SOLID
  8
6
 10
-12.700   
 20
43.180    
 11
12.700    
 21
43.180    
 12
-12.700   
 22
58.420    
 13
12.700    
 23
58.420    
  0
SOLID
  8
6
 10
-12.700   
 20
144.780   
 11
12.700    
 21
144.780   
 12
-12.700   
 22
160.020   
 13
12.700    
 23
160.020   
  0
ENDBLK
  8
3
  0
BLOCK
  8
2
  2
WEBCLPLB
 70
     0
 10
0.000     
 20
152.400   
  0
LINE
  8
7
 10
0.000     
 20
0.000     
 11
-25.400   
 21
0.000     
  0
LINE
  8
7
 10
0.000     
 20
203.200   
 11
-25.400   
 21
203.200   
  0
LINE
  8
7
 10
-25.400   
 20
0.000     
 11
-25.400   
 21
203.200   
  0
ENDBLK
  8
3
  0
BLOCK
  8
2
  2
WEBCLP3B
 70
     0
 10
0.000     
 20
144.780   
  0
LINE
  8
7
 10
-12.700   
 20
0.000     
 11
-12.700   
 21
187.960   
  0
LINE
  8
7
 10
-12.700   
 20
0.000     
 11
12.700    
 21
0.000     
  0
LINE
  8
7
 10
-12.700   
 20
187.960   
 11
12.700    
 21
187.960   
  0
LINE
  8
7
 10
12.700    
 20
0.000     
 11
12.700    
 21
187.960   
  0
SOLID
  8
6
 10
-12.700   
 20
35.560    
 11
12.700    
 21
35.560    
 12
-12.700   
 22
50.800    
 13
12.700    
 23
50.800    
  0
SOLID
  8
6
 10
-12.700   
 20
86.360    
 11
12.700    
 21
86.360    
 12
-12.700   
 22
101.600   
 13
12.700    
 23
101.600   
  0
SOLID
  8
6
 10
-12.700   
 20
137.160   
 11
12.700    
 21
137.160   
 12
-12.700   
 22
152.400   
 13
12.700    
 23
152.400   
  0
ENDBLK
  8
3
  0
BLOCK
  8
2
  2
WEBCLP4B
 70
     0
 10
0.000     
 20
195.580   
  0
LINE
  8
7
 10
-12.700   
 20
0.000     
 11
-12.700   
 21
238.760   
  0
LINE
  8
7
 10
-12.700   
 20
0.000     
 11
12.700    
 21
0.000     
  0
LINE
  8
7
 10
-12.700   
 20
238.760   
 11
12.700    
 21
238.760   
  0
LINE
  8
7
 10
12.700    
 20
0.000     
 11
12.700    
 21
238.760   
  0
SOLID
  8
6
 10
-12.700   
 20
35.560    
 11
12.700    
 21
35.560    
 12
-12.700   
 22
50.800    
 13
12.700    
 23
50.800    
  0
SOLID
  8
6
 10
-12.700   
 20
86.360    
 11
12.700    
 21
86.360    
 12
-12.700   
 22
101.600   
 13
12.700    
 23
101.600   
  0
SOLID
  8
6
 10
-12.700   
 20
137.160   
 11
12.700    
 21
137.160   
 12
-12.700   
 22
152.400   
 13
12.700    
 23
152.400   
  0
SOLID
  8
6
 10
-12.700   
 20
187.960   
 11
12.700    
 21
187.960   
 12
-12.700   
 22
203.200   
 13
12.700    
 23
203.200   
  0
ENDBLK
  8
4
  0
BLOCK
  8
2
  2
WEBCLP1B
 70
     0
 10
0.000     
 20
76.200    
  0
LINE
  8
7
 10
-12.700   
 20
0.000     
 11
-12.700   
 21
152.400   
  0
LINE
  8
7
 10
-12.700   
 20
0.000     
 11
12.700    
 21
0.000     
  0
LINE
  8
7
 10
-12.700   
 20
152.400   
 11
12.700    
 21
152.400   
  0
LINE
  8
7
 10
12.700    
 20
0.000     
 11
12.700    
 21
152.400   
  0
SOLID
  8
6
 10
-12.700   
 20
68.580    
 11
12.700    
 21
68.580    
 12
-12.700   
 22
83.820    
 13
12.700    
 23
83.820    
  0
ENDBLK
  8
3
  0
BLOCK
  8
2
  2
FC_CLIP2
 70
     0
 10
0.000     
 20
0.000     
  0
LINE
  8
2
 10
-50.800   
 20
0.000     
 11
-50.800   
 21
152.400   
  0
LINE
  8
2
 10
-50.800   
 20
0.000     
 11
50.800    
 21
0.000     
  0
LINE
  8
2
 10
-50.800   
 20
152.400   
 11
50.800    
 21
152.400   
  0
LINE
  8
2
 10
50.800    
 20
0.000     
 11
50.800    
 21
152.400   
  0
CIRCLE
  8
1
 10
     0.000
 20
   101.600
 40
    12.700
  0
CIRCLE
  8
1
 10
     0.000
 20
    50.800
 40
    12.700
  0
ENDBLK
  8
3
  0
BLOCK
  8
2
  2
FC_CLIP3
 70
     0
 10
0.000     
 20
0.000     
  0
LINE
  8
2
 10
-50.800   
 20
0.000     
 11
-50.800   
 21
152.400   
  0
LINE
  8
2
 10
-50.800   
 20
0.000     
 11
50.800    
 21
0.000     
  0
LINE
  8
2
 10
-50.800   
 20
152.400   
 11
50.800    
 21
152.400   
  0
LINE
  8
2
 10
50.800    
 20
0.000     
 11
50.800    
 21
152.400   
  0
CIRCLE
  8
1
 10
     0.000
 20
   101.600
 40
    12.700
  0
CIRCLE
  8
1
 10
     0.000
 20
    76.200
 40
    12.700
  0
CIRCLE
  8
1
 10
     0.000
 20
    50.800
 40
    12.700
  0
ENDBLK
  8
3
  0
BLOCK
  8
2
  2
EAVCLP
 70
     0
 10
0.000     
 20
0.000     
  0
LINE
  8
2
 10
-25.400   
 20
0.000     
 11
-25.400   
 21
304.800   
  0
LINE
  8
2
 10
-25.400   
 20
0.000     
 11
0.000     
 21
0.000     
  0
LINE
  8
2
 10
-25.400   
 20
304.800   
 11
0.000     
 21
304.800   
  0
LINE
  8
2
 10
0.000     
 20
0.000     
 11
0.000     
 21
304.800   
  0
SOLID
  8
1
 10
-25.400   
 20
271.780   
 11
0.000     
 21
271.780   
 12
-25.400   
 22
287.020   
 13
0.000     
 23
287.020   
  0
SOLID
  8
1
 10
-25.400   
 20
220.980   
 11
0.000     
 21
220.980   
 12
-25.400   
 22
236.220   
 13
0.000     
 23
236.220   
  0
ENDBLK
  8
3
  0
BLOCK
  8
2
  2
ASMPIECE
 70
     0
 10
12586.00  
 20
-5.999    
  0
LINE
  8
1
 10
12586.00  
 20
-5.999    
 11
12586.00  
 21
-405.999  
  0
LINE
  8
1
 10
21103.48  
 20
-406.000  
 11
21103.48  
 21
-5.999    
  0
TEXT
  8
3
 7
SIMPLEX
 10
17000.00  
 20
-151.276  
 40
   32.284
  1
WB6
 50
    0.000
  0
LINE
  8
1
 10
12586.00  
 20
-5.999    
 11
12586.00  
 21
6.972     
  0
LINE
  8
1
 10
12586.00  
 20
-5.999    
 11
21103.48  
 21
-5.999    
  0
LINE
  8
1
 10
21103.48  
 20
-5.999    
 11
21103.48  
 21
6.972     
  0
LINE
  8
1
 10
12586.00  
 20
6.972     
 11
21103.48  
 21
6.972     
  0
TEXT
  8
3
 7
SIMPLEX
 10
16720.87  
 20
15.043    
 40
   32.284
  1
OF1
 50
    0.000
  0
LINE
  8
1
 10
12586.00  
 20
-405.999  
 11
12586.00  
 21
-418.970  
  0
LINE
  8
1
 10
12586.00  
 20
-405.999  
 11
21103.48  
 21
-406.000  
  0
LINE
  8
1
 10
21103.48  
 20
-406.000  
 11
21103.48  
 21
-418.971  
  0
LINE
  8
1
 10
12586.00  
 20
-418.970  
 11
21103.48  
 21
-418.971  
  0
TEXT
  8
3
 7
SIMPLEX
 10
16844.74  
 20
-467.396  
 40
   32.284
  1
IF1
 50
    0.000
  0
LINE
  8
12
 10
12586.00  
 20
89.267    
 11
12571.59  
 21
89.267    
  0
LINE
  8
12
 10
12586.00  
 20
89.267    
 11
12586.00  
 21
-501.265  
  0
LINE
  8
12
 10
12586.00  
 20
-501.265  
 11
12571.59  
 21
-501.265  
  0
LINE
  8
12
 10
12571.59  
 20
89.267    
 11
12571.59  
 21
-501.265  
  0
TEXT
  8
3
 7
SIMPLEX
 10
12563.52  
 20
-246.354  
 40
   32.284
  1
EP1
 50
   90.000
  0
LINE
  8
12
 10
21103.48  
 20
89.266    
 11
21117.90  
 21
89.266    
  0
LINE
  8
12
 10
21103.48  
 20
89.266    
 11
21103.48  
 21
-501.266  
  0
LINE
  8
12
 10
21103.48  
 20
-501.266  
 11
21117.89  
 21
-501.266  
  0
LINE
  8
12
 10
21117.90  
 20
89.266    
 11
21117.89  
 21
-501.266  
  0
TEXT
  8
3
 7
SIMPLEX
 10
21158.25  
 20
-254.425  
 40
   32.284
  1
EP2
 50
   90.000
  0
LINE
  8
2
 10
15632.70  
 20
-5.999    
 11
15595.23  
 21
-5.999    
  0
LINE
  8
2
 10
15632.70  
 20
-367.086  
 11
15595.23  
 21
-367.086  
  0
LINE
  8
2
 10
15603.88  
 20
-5.999    
 11
15603.88  
 21
-367.086  
  0
INSERT
  8
2
  2
ARROW
 10
15603.88  
 20
-5.999    
 41
  11.348
 42
  11.348
 43
  11.348
 50
  90.000
  0
INSERT
  8
2
  2
ARROW
 10
15603.88  
 20
-367.086  
 41
  11.348
 42
  11.348
 43
  11.348
 50
 -90.000
  0
TEXT
  8
11
 7
SIMPLEX
 10
15614.64  
 20
-208.065  
 40
   32.284
  1
350
 50
    0.000
  0
LINE
  8
2
 10
18367.29  
 20
-5.999    
 11
18404.77  
 21
-5.999    
  0
LINE
  8
2
 10
18367.29  
 20
-367.087  
 11
18404.77  
 21
-367.087  
  0
LINE
  8
2
 10
18396.12  
 20
-5.999    
 11
18396.12  
 21
-367.087  
  0
INSERT
  8
2
  2
ARROW
 10
18396.12  
 20
-5.999    
 41
  11.348
 42
  11.348
 43
  11.348
 50
  90.000
  0
INSERT
  8
2
  2
ARROW
 10
18396.12  
 20
-367.087  
 41
  11.348
 42
  11.348
 43
  11.348
 50
 -90.000
  0
TEXT
  8
11
 7
SIMPLEX
 10
18415.53  
 20
-208.065  
 40
   32.284
  1
350
 50
    0.000
  0
INSERT
  8
6
  2
FLGHOL
 10
12571.59  
 20
40.841    
 41
   0.511
 42
   0.567
 43
   0.567
 50
 -90.000
  0
INSERT
  8
6
  2
FLGHOL
 10
12571.59  
 20
-39.868   
 41
   0.511
 42
   0.567
 43
   0.567
 50
 -90.000
  0
INSERT
  8
6
  2
FLGHOL
 10
12571.59  
 20
-372.130  
 41
   0.511
 42
   0.567
 43
   0.567
 50
 -90.000
  0
INSERT
  8
6
  2
FLGHOL
 10
12571.59  
 20
-452.839  
 41
   0.511
 42
   0.567
 43
   0.567
 50
 -90.000
  0
INSERT
  8
6
  2
FLGHOL
 10
21103.48  
 20
40.841    
 41
   0.511
 42
   0.567
 43
   0.567
 50
 -90.000
  0
INSERT
  8
6
  2
FLGHOL
 10
21103.48  
 20
-39.868   
 41
   0.511
 42
   0.567
 43
   0.567
 50
 -90.000
  0
INSERT
  8
6
  2
FLGHOL
 10
21103.48  
 20
-372.131  
 41
   0.511
 42
   0.567
 43
   0.567
 50
 -90.000
  0
INSERT
  8
6
  2
FLGHOL
 10
21103.48  
 20
-452.841  
 41
   0.511
 42
   0.567
 43
   0.567
 50
 -90.000
  0
INSERT
  8
1
  2
GRTCLPB
 10
15645.68  
 20
6.972     
 41
  -0.340
 42
   0.340
 43
   0.340
 50
   0.000
  0
CIRCLE
  8
15
 10
 15650.000
 20
     6.972
 40
     9.685
  0
INSERT
  8
1
  2
GRTCLPB
 10
16845.68  
 20
6.972     
 41
  -0.340
 42
   0.340
 43
   0.340
 50
   0.000
  0
CIRCLE
  8
15
 10
 16850.000
 20
     6.972
 40
     9.685
  0
INSERT
  8
1
  2
GRTCLPB
 10
17845.67  
 20
6.972     
 41
  -0.340
 42
   0.340
 43
   0.340
 50
   0.000
  0
CIRCLE
  8
15
 10
 17849.998
 20
     6.972
 40
     9.685
  0
TEXT
  8
3
 7
SIMPLEX
 10
17546.47  
 20
51.266    
 40
   32.284
  1
CLF3(typ)
 50
    0.000
  0
LINE
  8
3
 10
17837.03  
 20
45.885    
 11
17764.96  
 21
45.885    
  0
INSERT
  8
3
  2
ARROWP
 10
17837.03  
 20
45.885    
 41
  11.348
 42
  11.348
 43
  11.348
 50
   0.000
  0
INSERT
  8
1
  2
GRTCLPB
 10
18345.68  
 20
6.972     
 41
  -0.340
 42
   0.340
 43
   0.340
 50
   0.000
  0
CIRCLE
  8
15
 10
 18350.000
 20
     6.972
 40
     9.685
  0
INSERT
  8
1
  2
GRTCLPB
 10
19845.68  
 20
6.972     
 41
  -0.340
 42
   0.340
 43
   0.340
 50
   0.000
  0
CIRCLE
  8
15
 10
 19849.998
 20
     6.972
 40
     9.685
  0
INSERT
  8
1
  2
GRTCLPB
 10
20845.68  
 20
6.972     
 41
  -0.340
 42
   0.340
 43
   0.340
 50
   0.000
  0
CIRCLE
  8
15
 10
 20850.000
 20
     6.972
 40
     9.685
  0
INSERT
  8
7
  2
GRTCLP1
 10
19420.00  
 20
-418.971  
 41
   0.340
 42
   0.340
 43
   0.340
 50
 180.000
  0
CIRCLE
  8
15
 10
 19424.322
 20
  -418.971
 40
     9.685
  0
TEXT
  8
3
 7
SIMPLEX
 10
19465.25  
 20
-448.180  
 40
   32.284
  1
 GC41-01(typ)
 50
    0.000
  0
LINE
  8
3
 10
19432.97  
 20
-453.560  
 11
19505.03  
 21
-453.560  
  0
INSERT
  8
3
  2
ARROWP
 10
19432.97  
 20
-453.560  
 41
  11.348
 42
  11.348
 43
  11.348
 50
 180.000
  0
INSERT
  8
7
  2
BRCCLP
 10
15650.00  
 20
-406.000  
 41
  -0.511
 42
   0.511
 43
   0.511
 50
   0.000
  0
CIRCLE
  8
15
 10
 15650.000
 20
  -406.000
 40
     9.685
  0
LINE
  8
1
 10
15662.97  
 20
-354.115  
 11
15662.97  
 21
-406.000  
  0
TEXT
  8
3
 7
SIMPLEX
 10
15318.51  
 20
-348.907  
 40
   32.284
  1
CLF1 (typ)
 50
    0.000
  0
TEXT
  8
3
 7
SIMPLEX
 10
15318.51  
 20
-397.333  
 40
   32.284
  1
NS/FS
 50
    0.000
  0
LINE
  8
3
 10
15641.35  
 20
-354.288  
 11
15569.29  
 21
-354.288  
  0
INSERT
  8
3
  2
ARROWP
 10
15641.35  
 20
-354.288  
 41
  11.348
 42
  11.348
 43
  11.348
 50
   0.000
  0
INSERT
  8
7
  2
BRCCLP
 10
18350.00  
 20
-406.000  
 41
  -0.511
 42
   0.511
 43
   0.511
 50
   0.000
  0
CIRCLE
  8
15
 10
 18350.000
 20
  -406.000
 40
     9.685
  0
LINE
  8
1
 10
18362.97  
 20
-354.115  
 11
18362.97  
 21
-406.000  
  0
LINE
  8
9
 10
18684.00  
 20
-406.000  
 11
18684.00  
 21
-106.000  
  0
LINE
  8
9
 10
18684.00  
 20
-106.000  
 11
18692.64  
 21
-106.000  
  0
LINE
  8
9
 10
18692.64  
 20
-106.000  
 11
18692.64  
 21
-406.000  
  0
LINE
  8
9
 10
18684.00  
 20
-406.000  
 11
18692.64  
 21
-406.000  
  0
TEXT
  8
3
 7
SIMPLEX
 10
18528.35  
 20
-352.194  
 40
   32.284
  1
ST1
 50
    0.000
  0
TEXT
  8
3
 7
SIMPLEX
 10
18528.35  
 20
-400.619  
 40
   32.284
  1
NS/FS
 50
    0.000
  0
LINE
  8
3
 10
18689.76  
 20
-357.575  
 11
18617.70  
 21
-357.575  
  0
INSERT
  8
3
  2
ARROWP
 10
18689.76  
 20
-357.575  
 41
  11.348
 42
  11.348
 43
  11.348
 50
   0.000
  0
LINE
  8
9
 10
19041.35  
 20
-406.000  
 11
19041.35  
 21
-106.000  
  0
LINE
  8
9
 10
19041.35  
 20
-106.000  
 11
19050.00  
 21
-106.000  
  0
LINE
  8
9
 10
19050.00  
 20
-106.000  
 11
19050.00  
 21
-406.000  
  0
LINE
  8
9
 10
19041.35  
 20
-406.000  
 11
19050.00  
 21
-406.000  
  0
TEXT
  8
3
 7
SIMPLEX
 10
19085.16  
 20
-255.343  
 40
   32.284
  1
ST1
 50
    0.000
  0
TEXT
  8
3
 7
SIMPLEX
 10
19085.16  
 20
-303.768  
 40
   32.284
  1
NS/FS
 50
    0.000
  0
LINE
  8
3
 10
19052.88  
 20
-260.724  
 11
19124.94  
 21
-260.724  
  0
INSERT
  8
3
  2
ARROWP
 10
19052.88  
 20
-260.724  
 41
  11.348
 42
  11.348
 43
  11.348
 50
 180.000
  0
LINE
  8
9
 10
19420.00  
 20
-406.000  
 11
19420.00  
 21
-106.000  
  0
LINE
  8
9
 10
19420.00  
 20
-106.000  
 11
19428.65  
 21
-106.000  
  0
LINE
  8
9
 10
19428.65  
 20
-106.000  
 11
19428.65  
 21
-406.000  
  0
LINE
  8
9
 10
19420.00  
 20
-406.000  
 11
19428.65  
 21
-406.000  
  0
INSERT
  8
6
  2
FLGHOL
 10
19428.65  
 20
-186.000  
 41
   0.511
 42
   0.340
 43
   0.340
 50
  90.000
  0
TEXT
  8
3
 7
SIMPLEX
 10
19264.35  
 20
-149.045  
 40
   32.284
  1
ST2
 50
    0.000
  0
TEXT
  8
3
 7
SIMPLEX
 10
19264.35  
 20
-197.471  
 40
   32.284
  1
NS/FS
 50
    0.000
  0
LINE
  8
3
 10
19425.76  
 20
-154.426  
 11
19353.70  
 21
-154.426  
  0
INSERT
  8
3
  2
ARROWP
 10
19425.76  
 20
-154.426  
 41
  11.348
 42
  11.348
 43
  11.348
 50
   0.000
  0
LINE
  8
9
 10
12783.00  
 20
6.972     
 11
12766.32  
 21
89.267    
  0
LINE
  8
9
 10
12586.00  
 20
89.267    
 11
12766.32  
 21
89.267    
  0
TEXT
  8
3
 7
SIMPLEX
 10
12818.17  
 20
62.364    
 40
   32.284
  1
SS2
 50
    0.000
  0
LINE
  8
3
 10
12785.88  
 20
56.983    
 11
12857.94  
 21
56.983    
  0
INSERT
  8
3
  2
ARROWP
 10
12785.88  
 20
56.983    
 41
  11.348
 42
  11.348
 43
  11.348
 50
 180.000
  0
LINE
  8
9
 10
12782.00  
 20
-418.970  
 11
12765.32  
 21
-501.265  
  0
LINE
  8
9
 10
12586.00  
 20
-501.265  
 11
12765.32  
 21
-501.265  
  0
TEXT
  8
3
 7
SIMPLEX
 10
12817.17  
 20
-495.884  
 40
   32.284
  1
SS3
 50
    0.000
  0
LINE
  8
3
 10
12784.88  
 20
-501.265  
 11
12856.94  
 21
-501.265  
  0
INSERT
  8
3
  2
ARROWP
 10
12784.88  
 20
-501.265  
 41
  11.348
 42
  11.348
 43
  11.348
 50
 180.000
  0
LINE
  8
9
 10
21019.94  
 20
6.972     
 11
21103.48  
 21
89.266    
  0
TEXT
  8
3
 7
SIMPLEX
 10
20920.20  
 20
76.920    
 40
   32.284
  1
SS4
 50
    0.000
  0
LINE
  8
3
 10
21017.05  
 20
71.539    
 11
20944.99  
 21
71.539    
  0
INSERT
  8
3
  2
ARROWP
 10
21017.05  
 20
71.539    
 41
  11.348
 42
  11.348
 43
  11.348
 50
   0.000
  0
LINE
  8
9
 10
21008.22  
 20
-418.971  
 11
21103.48  
 21
-501.266  
  0
TEXT
  8
3
 7
SIMPLEX
 10
20908.48  
 20
-478.157  
 40
   32.284
  1
SS5
 50
    0.000
  0
LINE
  8
3
 10
21005.33  
 20
-483.538  
 11
20933.27  
 21
-483.538  
  0
INSERT
  8
3
  2
ARROWP
 10
21005.33  
 20
-483.538  
 41
  11.348
 42
  11.348
 43
  11.348
 50
   0.000
  0
LINE
  8
2
 10
12586.00  
 20
93.446    
 11
12586.00  
 21
404.754   
  0
INSERT
  8
2
  2
ARROW
 10
12586.00  
 20
396.106   
 41
  11.348
 42
  11.348
 43
  11.348
 50
 180.000
  0
LINE
  8
2
 10
12586.00  
 20
396.106   
 11
21103.48  
 21
396.106   
  0
LINE
  8
2
 10
21103.48  
 20
93.446    
 11
21103.48  
 21
404.753   
  0
INSERT
  8
2
  2
ARROW
 10
21103.48  
 20
396.106   
 41
  11.348
 42
  11.348
 43
  11.348
 50
   0.000
  0
TEXT
  8
11
 7
SIMPLEX
 10
16793.94  
 20
406.867   
 40
   32.284
  1
8517
 50
    0.000
  0
LINE
  8
3
 10
12586.00  
 20
-505.445  
 11
12586.00  
 21
-629.391  
  0
INSERT
  8
3
  2
ARROW
 10
12586.00  
 20
-620.743  
 41
  11.348
 42
  11.348
 43
  11.348
 50
 180.000
  0
LINE
  8
2
 10
12586.00  
 20
-620.743  
 11
21103.48  
 21
-620.744  
  0
LINE
  8
2
 10
21103.48  
 20
-505.445  
 11
21103.48  
 21
-629.391  
  0
INSERT
  8
2
  2
ARROW
 10
21103.48  
 20
-620.744  
 41
  11.348
 42
  11.348
 43
  11.348
 50
   0.000
  0
TEXT
  8
11
 7
SIMPLEX
 10
16793.94  
 20
-609.982  
 40
   32.284
  1
8517
 50
    0.000
  0
TEXT
  8
21
 7
SIMPLEX
 10
12237.22  
 20
137.693   
 40
   32.284
  1
G=100
 50
    0.000
  0
TEXT
  8
21
 7
SIMPLEX
 10
12237.22  
 20
186.118   
 40
   32.284
  1
D=30
 50
    0.000
  0
LINE
  8
2
 10
12531.23  
 20
89.267    
 11
12485.11  
 21
89.267    
  0
LINE
  8
2
 10
12531.23  
 20
40.841    
 11
12485.11  
 21
40.841    
  0
LINE
  8
2
 10
12493.76  
 20
89.267    
 11
12493.76  
 21
40.841    
  0
INSERT
  8
2
  2
ARROW
 10
12493.76  
 20
89.267    
 41
  11.348
 42
  11.348
 43
  11.348
 50
  90.000
  0
INSERT
  8
2
  2
ARROW
 10
12493.76  
 20
40.841    
 41
  11.348
 42
  11.348
 43
  11.348
 50
 -90.000
  0
TEXT
  8
11
 7
SIMPLEX
 10
12409.78  
 20
43.532    
 40
   32.284
  1
75
 50
    0.000
  0
LINE
  8
2
 10
12531.23  
 20
-39.868   
 11
12485.11  
 21
-39.868   
  0
LINE
  8
2
 10
12493.76  
 20
-11.043   
 11
12493.76  
 21
-39.868   
  0
INSERT
  8
2
  2
ARROW
 10
12493.76  
 20
-39.868   
 41
  11.348
 42
  11.348
 43
  11.348
 50
 -90.000
  0
TEXT
  8
11
 7
SIMPLEX
 10
12377.50  
 20
-29.107   
 40
   32.284
  1
225
 50
    0.000
  0
LINE
  8
2
 10
12531.23  
 20
-372.130  
 11
12485.11  
 21
-372.130  
  0
LINE
  8
2
 10
12493.76  
 20
-343.305  
 11
12493.76  
 21
-372.130  
  0
INSERT
  8
2
  2
ARROW
 10
12493.76  
 20
-372.130  
 41
  11.348
 42
  11.348
 43
  11.348
 50
 -90.000
  0
TEXT
  8
11
 7
SIMPLEX
 10
12377.50  
 20
-361.369  
 40
   32.284
  1
482
 50
    0.000
  0
LINE
  8
2
 10
12531.23  
 20
-452.839  
 11
12485.11  
 21
-452.839  
  0
LINE
  8
2
 10
12493.76  
 20
-424.015  
 11
12493.76  
 21
-452.839  
  0
INSERT
  8
2
  2
ARROW
 10
12493.76  
 20
-452.839  
 41
  11.348
 42
  11.348
 43
  11.348
 50
 -90.000
  0
TEXT
  8
11
 7
SIMPLEX
 10
12377.50  
 20
-442.078  
 40
   32.284
  1
632
 50
    0.000
  0
TEXT
  8
21
 7
SIMPLEX
 10
21233.20  
 20
137.692   
 40
   32.284
  1
G=100
 50
    0.000
  0
TEXT
  8
21
 7
SIMPLEX
 10
21233.20  
 20
186.118   
 40
   32.284
  1
D=22
 50
    0.000
  0
LINE
  8
2
 10
21158.25  
 20
89.266    
 11
21204.37  
 21
89.266    
  0
LINE
  8
2
 10
21158.25  
 20
40.841    
 11
21204.37  
 21
40.841    
  0
LINE
  8
2
 10
21195.72  
 20
89.266    
 11
21195.72  
 21
40.841    
  0
INSERT
  8
2
  2
ARROW
 10
21195.72  
 20
89.266    
 41
  11.348
 42
  11.348
 43
  11.348
 50
  90.000
  0
INSERT
  8
2
  2
ARROW
 10
21195.72  
 20
40.841    
 41
  11.348
 42
  11.348
 43
  11.348
 50
 -90.000
  0
TEXT
  8
11
 7
SIMPLEX
 10
21215.13  
 20
43.531    
 40
   32.284
  1
50
 50
    0.000
  0
LINE
  8
2
 10
21158.25  
 20
-39.868   
 11
21204.37  
 21
-39.868   
  0
LINE
  8
2
 10
21195.72  
 20
-11.044   
 11
21195.72  
 21
-39.868   
  0
INSERT
  8
2
  2
ARROW
 10
21195.72  
 20
-39.868   
 41
  11.348
 42
  11.348
 43
  11.348
 50
 -90.000
  0
TEXT
  8
11
 7
SIMPLEX
 10
21215.13  
 20
-29.107   
 40
   32.284
  1
150
 50
    0.000
  0
LINE
  8
2
 10
21158.25  
 20
-372.131  
 11
21204.37  
 21
-372.131  
  0
LINE
  8
2
 10
21195.72  
 20
-343.307  
 11
21195.72  
 21
-372.131  
  0
INSERT
  8
2
  2
ARROW
 10
21195.72  
 20
-372.131  
 41
  11.348
 42
  11.348
 43
  11.348
 50
 -90.000
  0
TEXT
  8
11
 7
SIMPLEX
 10
21215.13  
 20
-361.370  
 40
   32.284
  1
450
 50
    0.000
  0
LINE
  8
2
 10
21158.25  
 20
-452.841  
 11
21204.37  
 21
-452.841  
  0
LINE
  8
2
 10
21195.72  
 20
-424.016  
 11
21195.72  
 21
-452.841  
  0
INSERT
  8
2
  2
ARROW
 10
21195.72  
 20
-452.841  
 41
  11.348
 42
  11.348
 43
  11.348
 50
 -90.000
  0
TEXT
  8
11
 7
SIMPLEX
 10
21215.13  
 20
-442.079  
 40
   32.284
  1
550
 50
    0.000
  0
LINE
  8
2
 10
12603.29  
 20
40.841    
 11
12646.53  
 21
40.841    
  0
LINE
  8
2
 10
12603.29  
 20
6.972     
 11
12646.53  
 21
6.972     
  0
LINE
  8
2
 10
12637.88  
 20
40.841    
 11
12637.88  
 21
6.972     
  0
INSERT
  8
2
  2
ARROW
 10
12637.88  
 20
40.841    
 41
  11.348
 42
  11.348
 43
  11.348
 50
  90.000
  0
INSERT
  8
2
  2
ARROW
 10
12637.88  
 20
6.972     
 41
  11.348
 42
  11.348
 43
  11.348
 50
 -90.000
  0
TEXT
  8
11
 7
SIMPLEX
 10
12657.29  
 20
9.663     
 40
   32.284
  1
72
 50
    0.000
  0
LINE
  8
2
 10
21086.19  
 20
40.841    
 11
21042.95  
 21
40.841    
  0
LINE
  8
2
 10
21086.19  
 20
6.972     
 11
21042.95  
 21
6.972     
  0
LINE
  8
2
 10
21051.60  
 20
40.841    
 11
21051.60  
 21
6.972     
  0
INSERT
  8
2
  2
ARROW
 10
21051.60  
 20
40.841    
 41
  11.348
 42
  11.348
 43
  11.348
 50
  90.000
  0
INSERT
  8
2
  2
ARROW
 10
21051.60  
 20
6.972     
 41
  11.348
 42
  11.348
 43
  11.348
 50
 -90.000
  0
TEXT
  8
11
 7
SIMPLEX
 10
20967.62  
 20
9.662     
 40
   32.284
  1
44
 50
    0.000
  0
LINE
  8
2
 10
12586.00  
 20
-476.620  
 11
12586.00  
 21
-1287.962 
  0
LINE
  8
2
 10
19420.00  
 20
-476.620  
 11
19420.00  
 21
-1287.963 
  0
LINE
  8
2
 10
12586.00  
 20
-1279.315 
 11
19420.00  
 21
-1279.315 
  0
INSERT
  8
2
  2
ARROW
 10
12586.00  
 20
-1279.315 
 41
  11.348
 42
  11.348
 43
  11.348
 50
 180.000
  0
INSERT
  8
2
  2
ARROW
 10
19420.00  
 20
-1279.315 
 41
  11.348
 42
  11.348
 43
  11.348
 50
   0.000
  0
TEXT
  8
11
 7
SIMPLEX
 10
15938.43  
 20
-1268.554 
 40
   32.284
  1
6834
 50
    0.000
  0
LINE
  8
2
 10
12586.00  
 20
84.799    
 11
12586.00  
 21
115.065   
  0
LINE
  8
2
 10
15650.00  
 20
84.799    
 11
15650.00  
 21
115.065   
  0
LINE
  8
2
 10
12586.00  
 20
106.418   
 11
15650.00  
 21
106.417   
  0
INSERT
  8
2
  2
ARROW
 10
12586.00  
 20
106.418   
 41
  11.348
 42
  11.348
 43
  11.348
 50
 180.000
  0
INSERT
  8
2
  2
ARROW
 10
15650.00  
 20
106.417   
 41
  11.348
 42
  11.348
 43
  11.348
 50
   0.000
  0
TEXT
  8
11
 7
SIMPLEX
 10
14053.43  
 20
117.179   
 40
   32.284
  1
3064
 50
    0.000
  0
LINE
  8
2
 10
16850.00  
 20
84.799    
 11
16850.00  
 21
115.065   
  0
LINE
  8
2
 10
16777.94  
 20
106.417   
 11
16850.00  
 21
106.417   
  0
INSERT
  8
2
  2
ARROW
 10
16850.00  
 20
106.417   
 41
  11.348
 42
  11.348
 43
  11.348
 50
   0.000
  0
TEXT
  8
11
 7
SIMPLEX
 10
16710.10  
 20
117.179   
 40
   32.284
  1
4264
 50
    0.000
  0
LINE
  8
2
 10
17850.00  
 20
84.799    
 11
17850.00  
 21
115.065   
  0
LINE
  8
2
 10
17777.94  
 20
106.417   
 11
17850.00  
 21
106.417   
  0
INSERT
  8
2
  2
ARROW
 10
17850.00  
 20
106.417   
 41
  11.348
 42
  11.348
 43
  11.348
 50
   0.000
  0
TEXT
  8
11
 7
SIMPLEX
 10
17710.10  
 20
117.179   
 40
   32.284
  1
5264
 50
    0.000
  0
LINE
  8
2
 10
18350.00  
 20
84.799    
 11
18350.00  
 21
115.065   
  0
LINE
  8
2
 10
18277.94  
 20
106.417   
 11
18350.00  
 21
106.417   
  0
INSERT
  8
2
  2
ARROW
 10
18350.00  
 20
106.417   
 41
  11.348
 42
  11.348
 43
  11.348
 50
   0.000
  0
TEXT
  8
11
 7
SIMPLEX
 10
18210.10  
 20
117.179   
 40
   32.284
  1
5764
 50
    0.000
  0
LINE
  8
2
 10
19850.00  
 20
84.799    
 11
19850.00  
 21
115.065   
  0
LINE
  8
2
 10
19777.94  
 20
106.417   
 11
19850.00  
 21
106.417   
  0
INSERT
  8
2
  2
ARROW
 10
19850.00  
 20
106.417   
 41
  11.348
 42
  11.348
 43
  11.348
 50
   0.000
  0
TEXT
  8
11
 7
SIMPLEX
 10
19710.10  
 20
117.179   
 40
   32.284
  1
7264
 50
    0.000
  0
LINE
  8
2
 10
20850.00  
 20
84.799    
 11
20850.00  
 21
115.065   
  0
LINE
  8
2
 10
20777.94  
 20
106.417   
 11
20850.00  
 21
106.417   
  0
INSERT
  8
2
  2
ARROW
 10
20850.00  
 20
106.417   
 41
  11.348
 42
  11.348
 43
  11.348
 50
   0.000
  0
TEXT
  8
11
 7
SIMPLEX
 10
20710.10  
 20
117.178   
 40
   32.284
  1
8264
 50
    0.000
  0
INSERT
  8
15
  2
CIRCLE
 10
12571.59  
 20
6.972     
 41
   0.567
 42
   0.567
 43
   0.567
 50
   0.000
  0
INSERT
  8
15
  2
CIRCLE
 10
12571.59  
 20
-418.970  
 41
   0.567
 42
   0.567
 43
   0.567
 50
   0.000
  0
INSERT
  8
15
  2
CIRCLE
 10
21117.90  
 20
-418.971  
 41
   0.567
 42
   0.567
 43
   0.567
 50
   0.000
  0
INSERT
  8
15
  2
CIRCLE
 10
21117.90  
 20
6.972     
 41
   0.567
 42
   0.567
 43
   0.567
 50
   0.000
  0
LINE
  8
2
 10
12571.59  
 20
104.932   
 11
12571.59  
 21
525.817   
  0
LINE
  8
2
 10
21117.90  
 20
104.931   
 11
21117.90  
 21
525.817   
  0
LINE
  8
2
 10
12571.59  
 20
517.170   
 11
21117.90  
 21
517.170   
  0
INSERT
  8
2
  2
ARROW
 10
12571.59  
 20
517.170   
 41
  11.348
 42
  11.348
 43
  11.348
 50
 180.000
  0
INSERT
  8
2
  2
ARROW
 10
21117.90  
 20
517.170   
 41
  11.348
 42
  11.348
 43
  11.348
 50
   0.000
  0
TEXT
  8
11
 7
SIMPLEX
 10
16780.17  
 20
527.931   
 40
   32.284
  1
8549
 50
    0.000
  0
LINE
  8
2
 10
12586.00  
 20
91.961    
 11
12586.00  
 21
262.071   
  0
LINE
  8
2
 10
12658.06  
 20
253.424   
 11
12586.00  
 21
253.424   
  0
INSERT
  8
2
  2
ARROW
 10
12586.00  
 20
253.424   
 41
  11.348
 42
  11.348
 43
  11.348
 50
 180.000
  0
LINE
  8
2
 10
18684.00  
 20
66.063    
 11
18684.00  
 21
262.071   
  0
LINE
  8
2
 10
18611.94  
 20
253.423   
 11
18684.00  
 21
253.423   
  0
INSERT
  8
2
  2
ARROW
 10
18684.00  
 20
253.423   
 41
  11.348
 42
  11.348
 43
  11.348
 50
   0.000
  0
TEXT
  8
11
 7
SIMPLEX
 10
18544.10  
 20
264.185   
 40
   32.284
  1
6098
 50
    0.000
  0
LINE
  8
2
 10
19050.00  
 20
66.063    
 11
19050.00  
 21
262.071   
  0
LINE
  8
2
 10
18977.94  
 20
253.423   
 11
19050.00  
 21
253.423   
  0
INSERT
  8
2
  2
ARROW
 10
19050.00  
 20
253.423   
 41
  11.348
 42
  11.348
 43
  11.348
 50
   0.000
  0
TEXT
  8
11
 7
SIMPLEX
 10
18910.10  
 20
264.185   
 40
   32.284
  1
6464
 50
    0.000
  0
LINE
  8
2
 10
19420.00  
 20
66.063    
 11
19420.00  
 21
262.071   
  0
LINE
  8
2
 10
19347.94  
 20
253.423   
 11
19420.00  
 21
253.423   
  0
INSERT
  8
2
  2
ARROW
 10
19420.00  
 20
253.423   
 41
  11.348
 42
  11.348
 43
  11.348
 50
   0.000
  0
TEXT
  8
11
 7
SIMPLEX
 10
19280.10  
 20
264.185   
 40
   32.284
  1
6834
 50
    0.000
  0
LINE
  8
3
 10
12586.00  
 20
93.446    
 11
12586.00  
 21
381.694   
  0
LINE
  8
3
 10
12586.00  
 20
295.220   
 11
12392.30  
 21
295.220   
  0
INSERT
  8
3
  2
ARROW
 10
12586.00  
 20
295.220   
 41
  11.348
 42
  11.348
 43
  11.348
 50
   0.000
  0
TEXT
  8
3
 7
SIMPLEX
 10
12424.58  
 20
303.290   
 40
   32.284
  1
Tape
 50
    0.000
  0
TEXT
  8
3
 7
SIMPLEX
 10
12424.58  
 20
254.865   
 40
   32.284
  1
(Typ)
 50
    0.000
  0
LINE
  8
3
 10
12586.00  
 20
-505.445  
 11
12586.00  
 21
-707.218  
  0
LINE
  8
3
 10
12586.00  
 20
-692.805  
 11
12392.30  
 21
-692.805  
  0
INSERT
  8
3
  2
ARROW
 10
12586.00  
 20
-692.805  
 41
  11.348
 42
  11.348
 43
  11.348
 50
   0.000
  0
TEXT
  8
3
 7
SIMPLEX
 10
12424.58  
 20
-684.734  
 40
   32.284
  1
Tape
 50
    0.000
  0
TEXT
  8
3
 7
SIMPLEX
 10
12424.58  
 20
-733.160  
 40
   32.284
  1
(Typ)
 50
    0.000
  0
LINE
  8
1
 10
19050.00  
 20
-418.971  
 11
19050.00  
 21
-1174.970 
  0
LINE
  8
1
 10
18684.00  
 20
-1174.970 
 11
18684.00  
 21
-418.971  
  0
LINE
  8
1
 10
19050.00  
 20
-1174.970 
 11
18684.00  
 21
-1174.970 
  0
LINE
  8
1
 10
19050.00  
 20
-418.971  
 11
18684.00  
 21
-418.971  
  0
TEXT
  8
0
 7
SIMPLEX
 10
18834.72  
 20
-829.254  
 40
   32.284
  1
BW1
 50
   -1.571
  0
TEXT
  8
3
 7
SIMPLEX
 10
19085.16  
 20
-633.306  
 40
   32.284
  1
BO1
 50
    0.000
  0
LINE
  8
3
 10
19052.88  
 20
-638.687  
 11
19124.94  
 21
-638.687  
  0
INSERT
  8
3
  2
ARROWP
 10
19052.88  
 20
-638.687  
 41
  11.348
 42
  11.348
 43
  11.348
 50
 180.000
  0
TEXT
  8
3
 7
SIMPLEX
 10
18584.27  
 20
-633.306  
 40
   32.284
  1
BI1
 50
    0.000
  0
LINE
  8
3
 10
18681.12  
 20
-638.687  
 11
18609.06  
 21
-638.687  
  0
INSERT
  8
3
  2
ARROWP
 10
18681.12  
 20
-638.687  
 41
  11.348
 42
  11.348
 43
  11.348
 50
   0.000
  0
LINE
  8
1
 10
19037.03  
 20
-418.971  
 11
19037.03  
 21
-1174.970 
  0
LINE
  8
1
 10
18696.97  
 20
-1174.970 
 11
18696.97  
 21
-418.971  
  0
INSERT
  8
6
  2
FLGHOL
 10
19037.03  
 20
-1024.970 
 41
  -0.511
 42
  -0.511
 43
  -0.511
 50
  90.000
  0
LINE
  8
2
 10
19054.32  
 20
-1024.970 
 11
19088.91  
 21
-1024.970 
  0
LINE
  8
2
 10
19054.32  
 20
-1174.970 
 11
19088.91  
 21
-1174.970 
  0
LINE
  8
2
 10
19080.27  
 20
-1024.970 
 11
19080.27  
 21
-1174.970 
  0
INSERT
  8
2
  2
ARROW
 10
19080.27  
 20
-1024.970 
 41
  11.348
 42
  11.348
 43
  11.348
 50
  90.000
  0
INSERT
  8
2
  2
ARROW
 10
19080.27  
 20
-1174.970 
 41
  11.348
 42
  11.348
 43
  11.348
 50
 -90.000
  0
TEXT
  8
11
 7
SIMPLEX
 10
19099.67  
 20
-1121.492 
 40
   32.284
  1
150
 50
    0.000
  0
TEXT
  8
21
 7
SIMPLEX
 10
19069.31  
 20
-1271.821 
 40
   32.284
  1
G=100
 50
    0.000
  0
TEXT
  8
21
 7
SIMPLEX
 10
19069.31  
 20
-1223.395 
 40
   32.284
  1
Slot=22x56
 50
    0.000
  0
INSERT
  8
6
  2
FLGHOL
 10
19037.03  
 20
-924.970  
 41
  -0.511
 42
  -0.511
 43
  -0.511
 50
  90.000
  0
LINE
  8
2
 10
19054.32  
 20
-924.970  
 11
19106.21  
 21
-924.970  
  0
LINE
  8
2
 10
19097.56  
 20
-950.912  
 11
19097.56  
 21
-924.970  
  0
INSERT
  8
2
  2
ARROW
 10
19097.56  
 20
-924.970  
 41
  11.348
 42
  11.348
 43
  11.348
 50
  90.000
  0
TEXT
  8
11
 7
SIMPLEX
 10
19116.97  
 20
-956.177  
 40
   32.284
  1
250
 50
    0.000
  0
LINE
  8
1
 10
17518.75  
 20
6.972     
 11
17518.75  
 21
220.973   
  0
LINE
  8
1
 10
17163.15  
 20
220.974   
 11
17163.15  
 21
6.972     
  0
LINE
  8
1
 10
17518.75  
 20
220.973   
 11
17163.15  
 21
220.974   
  0
LINE
  8
1
 10
17518.75  
 20
6.972     
 11
17163.15  
 21
6.972     
  0
TEXT
  8
0
 7
SIMPLEX
 10
17308.67  
 20
81.689    
 40
   32.284
  1
BW2
 50
   -1.571
  0
TEXT
  8
3
 7
SIMPLEX
 10
17553.92  
 20
115.970   
 40
   32.284
  1
BO2
 50
    0.000
  0
LINE
  8
3
 10
17521.63  
 20
110.590   
 11
17593.70  
 21
110.590   
  0
INSERT
  8
3
  2
ARROWP
 10
17521.63  
 20
110.590   
 41
  11.348
 42
  11.348
 43
  11.348
 50
 180.000
  0
TEXT
  8
3
 7
SIMPLEX
 10
17063.42  
 20
115.970   
 40
   32.284
  1
BI2
 50
    0.000
  0
LINE
  8
3
 10
17160.27  
 20
110.590   
 11
17088.21  
 21
110.590   
  0
INSERT
  8
3
  2
ARROWP
 10
17160.27  
 20
110.590   
 41
  11.348
 42
  11.348
 43
  11.348
 50
   0.000
  0
LINE
  8
1
 10
17505.78  
 20
6.972     
 11
17505.78  
 21
220.973   
  0
LINE
  8
1
 10
17176.12  
 20
220.974   
 11
17176.12  
 21
6.972     
  0
LINE
  8
1
 10
17614.95  
 20
220.973   
 11
17614.95  
 21
233.945   
  0
LINE
  8
1
 10
17614.95  
 20
233.945   
 11
17066.95  
 21
233.945   
  0
LINE
  8
1
 10
17066.95  
 20
233.945   
 11
17066.95  
 21
220.974   
  0
LINE
  8
1
 10
17614.95  
 20
220.973   
 11
17066.95  
 21
220.974   
  0
TEXT
  8
3
 7
SIMPLEX
 10
17650.12  
 20
239.325   
 40
   32.284
  1
BE1
 50
    0.000
  0
LINE
  8
3
 10
17617.83  
 20
233.945   
 11
17689.90  
 21
233.945   
  0
INSERT
  8
3
  2
ARROWP
 10
17617.83  
 20
233.945   
 41
  11.348
 42
  11.348
 43
  11.348
 50
 180.000
  0
TEXT
  8
2
 7
SIMPLEX
 10
16994.89  
 20
306.007   
 40
   32.284
  1
G=100
 50
  -90.000
  0
TEXT
  8
2
 7
SIMPLEX
 10
17043.31  
 20
306.007   
 40
   32.284
  1
D=22
 50
  -90.000
  0
INSERT
  8
2
  2
FLGHOL
 10
17570.00  
 20
220.973   
 41
  -0.511
 42
  -0.511
 43
  -0.511
 50
-180.000
  0
LINE
  8
2
 10
17614.95  
 20
236.827   
 11
17614.95  
 21
308.889   
  0
LINE
  8
2
 10
17570.00  
 20
236.827   
 11
17570.00  
 21
308.889   
  0
LINE
  8
2
 10
17614.95  
 20
300.242   
 11
17570.00  
 21
300.242   
  0
INSERT
  8
2
  2
ARROW
 10
17614.95  
 20
300.242   
 41
  11.348
 42
  11.348
 43
  11.348
 50
   0.000
  0
INSERT
  8
2
  2
ARROW
 10
17570.00  
 20
300.242   
 41
  11.348
 42
  11.348
 43
  11.348
 50
-180.000
  0
TEXT
  8
11
 7
SIMPLEX
 10
17570.95  
 20
384.218   
 40
   32.284
  1
45
 50
  -90.000
  0
INSERT
  8
2
  2
FLGHOL
 10
17470.00  
 20
220.973   
 41
  -0.511
 42
  -0.511
 43
  -0.511
 50
-180.000
  0
LINE
  8
2
 10
17470.00  
 20
236.827   
 11
17470.00  
 21
308.889   
  0
LINE
  8
2
 10
17502.28  
 20
300.242   
 11
17470.00  
 21
300.242   
  0
INSERT
  8
2
  2
ARROW
 10
17470.00  
 20
300.242   
 41
  11.348
 42
  11.348
 43
  11.348
 50
-180.000
  0
TEXT
  8
11
 7
SIMPLEX
 10
17480.76  
 20
400.359   
 40
   32.284
  1
145
 50
  -90.000
  0
INSERT
  8
2
  2
FLGHOL
 10
17212.78  
 20
220.974   
 41
  -0.511
 42
  -0.511
 43
  -0.511
 50
-180.000
  0
LINE
  8
2
 10
17212.78  
 20
236.827   
 11
17212.78  
 21
308.889   
  0
LINE
  8
2
 10
17245.06  
 20
300.242   
 11
17212.78  
 21
300.242   
  0
INSERT
  8
2
  2
ARROW
 10
17212.78  
 20
300.242   
 41
  11.348
 42
  11.348
 43
  11.348
 50
-180.000
  0
TEXT
  8
11
 7
SIMPLEX
 10
17223.54  
 20
416.501   
 40
   32.284
  1
402
 50
  -90.000
  0
INSERT
  8
2
  2
FLGHOL
 10
17112.78  
 20
220.974   
 41
  -0.511
 42
  -0.511
 43
  -0.511
 50
-180.000
  0
LINE
  8
2
 10
17112.78  
 20
236.827   
 11
17112.78  
 21
308.889   
  0
LINE
  8
2
 10
17145.06  
 20
300.242   
 11
17112.78  
 21
300.242   
  0
INSERT
  8
2
  2
ARROW
 10
17112.78  
 20
300.242   
 41
  11.348
 42
  11.348
 43
  11.348
 50
-180.000
  0
TEXT
  8
11
 7
SIMPLEX
 10
17123.54  
 20
416.501   
 40
   32.284
  1
502
 50
  -90.000
  0
LINE
  8
2
 10
12586.00  
 20
324.044   
 11
12586.00  
 21
396.106   
  0
LINE
  8
2
 10
12730.12  
 20
387.459   
 11
12586.00  
 21
387.459   
  0
INSERT
  8
2
  2
ARROW
 10
12586.00  
 20
387.459   
 41
  11.348
 42
  11.348
 43
  11.348
 50
 180.000
  0
LINE
  8
2
 10
17518.75  
 20
324.045   
 11
17518.75  
 21
396.106   
  0
LINE
  8
2
 10
17446.69  
 20
387.459   
 11
17518.75  
 21
387.459   
  0
INSERT
  8
2
  2
ARROW
 10
17518.75  
 20
387.459   
 41
  11.348
 42
  11.348
 43
  11.348
 50
   0.000
  0
TEXT
  8
11
 7
SIMPLEX
 10
17378.86  
 20
398.220   
 40
   32.284
  1
4933
 50
    0.000
  0
LINE
  8
1
 10
18684.00  
 20
-1174.970 
 11
18633.20  
 21
-1174.970 
  0
LINE
  8
1
 10
18147.53  
 20
-418.971  
 11
18633.20  
 21
-1174.970 
  0
TEXT
  8
3
 7
SIMPLEX
 10
18290.63  
 20
-759.306  
 40
   32.284
  1
SS1
 50
    0.000
  0
LINE
  8
3
 10
18387.48  
 20
-764.687  
 11
18315.42  
 21
-764.687  
  0
INSERT
  8
3
  2
ARROWP
 10
18387.48  
 20
-764.687  
 41
  11.348
 42
  11.348
 43
  11.348
 50
   0.000
  0
ENDBLK
  8
2
  0
BLOCK
  8
0
  2
ASMBASE
 70
     0
 10
0.000     
 20
0.000     
  0
LINE
  8
0
 10
0.000     
 20
0.000     
 11
25.400    
 21
0.000     
  0
LINE
  8
0
 10
25.400    
 20
0.000     
 11
25.400    
 21
25.400    
  0
LINE
  8
0
 10
25.400    
 20
25.400    
 11
0.000     
 21
25.400    
  0
LINE
  8
0
 10
0.000     
 20
25.400    
 11
0.000     
 21
0.000     
  0
LINE
  8
0
 10
5.080     
 20
2.540     
 11
20.320    
 21
2.540     
  0
LINE
  8
0
 10
20.320    
 20
2.540     
 11
20.320    
 21
22.860    
  0
LINE
  8
0
 10
20.320    
 20
22.860    
 11
5.080     
 21
22.860    
  0
LINE
  8
0
 10
5.080     
 20
22.860    
 11
5.080     
 21
2.540     
  0
LINE
  8
0
 10
6.350     
 20
17.628    
 11
19.050    
 21
17.628    
  0
LINE
  8
0
 10
19.050    
 20
17.628    
 11
19.050    
 21
17.882    
  0
LINE
  8
0
 10
19.050    
 20
17.882    
 11
6.350     
 21
17.882    
  0
LINE
  8
0
 10
6.350     
 20
17.882    
 11
6.350     
 21
17.628    
  0
LINE
  8
0
 10
12.573    
 20
17.628    
 11
12.827    
 21
17.628    
  0
LINE
  8
0
 10
12.827    
 20
17.628    
 11
12.827    
 21
7.739     
  0
LINE
  8
0
 10
12.827    
 20
7.739     
 11
12.573    
 21
7.739     
  0
LINE
  8
0
 10
12.573    
 20
7.739     
 11
12.573    
 21
17.628    
  0
LINE
  8
0
 10
6.350     
 20
7.485     
 11
19.050    
 21
7.485     
  0
LINE
  8
0
 10
19.050    
 20
7.485     
 11
19.050    
 21
7.739     
  0
LINE
  8
0
 10
19.050    
 20
7.739     
 11
6.350     
 21
7.739     
  0
LINE
  8
0
 10
6.350     
 20
7.739     
 11
6.350     
 21
7.485     
  0
CIRCLE
  8
1
 10
     9.652
 20
    20.320
 40
     0.254
  0
CIRCLE
  8
1
 10
    15.748
 20
    20.320
 40
     0.254
  0
CIRCLE
  8
1
 10
     9.652
 20
    15.240
 40
     0.254
  0
CIRCLE
  8
1
 10
    15.748
 20
    15.240
 40
     0.254
  0
CIRCLE
  8
1
 10
     9.652
 20
    10.160
 40
     0.254
  0
CIRCLE
  8
1
 10
    15.748
 20
    10.160
 40
     0.254
  0
CIRCLE
  8
1
 10
     9.652
 20
     5.080
 40
     0.254
  0
CIRCLE
  8
1
 10
    15.748
 20
     5.080
 40
     0.254
  0
LINE
  8
0
 10
12.700    
 20
17.882    
 11
12.700    
 21
22.352    
  0
TEXT
  8
1
 7
SIMPLEX
 10
12.459    
 20
18.363    
 40
    0.963
  1
SS2
 50
   90.000
  0
LINE
  8
0
 10
12.700    
 20
7.485     
 11
12.700    
 21
3.048     
  0
TEXT
  8
1
 7
SIMPLEX
 10
12.459    
 20
4.353     
 40
    0.963
  1
SS3
 50
   90.000
  0
TEXT
  8
1
 7
SIMPLEX
 10
0.482     
 20
23.955    
 40
    0.963
  1
EP1
 50
    0.000
  0
TEXT
  8
1
 7
SIMPLEX
 10
0.482     
 20
0.482     
 40
    0.867
  1
CENTER GUSSET BETWEEN HOLES
 50
    0.000
  0
ENDBLK
  8
0
  0
BLOCK
  8
0
  2
ASMPLATE
 70
     0
 10
0.000     
 20
0.000     
  0
LINE
  8
14
 10
0.000     
 20
0.000     
 11
186.690   
 21
0.000     
  0
LINE
  8
14
 10
0.000     
 20
8.096     
 11
186.690   
 21
8.096     
  0
LINE
  8
14
 10
0.000     
 20
0.000     
 11
0.000     
 21
156.210   
  0
LINE
  8
14
 10
0.000     
 20
156.210   
 11
186.690   
 21
156.210   
  0
LINE
  8
14
 10
45.720    
 20
8.096     
 11
45.720    
 21
156.210   
  0
LINE
  8
14
 10
60.960    
 20
8.096     
 11
60.960    
 21
156.210   
  0
LINE
  8
14
 10
156.210   
 20
8.096     
 11
156.210   
 21
156.210   
  0
LINE
  8
14
 10
156.210   
 20
8.096     
 11
156.210   
 21
156.210   
  0
LINE
  8
14
 10
186.690   
 20
8.096     
 11
186.690   
 21
156.210   
  0
LINE
  8
14
 10
186.690   
 20
0.000     
 11
186.690   
 21
156.210   
  0
LINE
  8
14
 10
0.000     
 20
146.685   
 11
186.690   
 21
146.685   
  0
TEXT
  8
14
 7
SIMPLEX
 10
1.143     
 20
148.971   
 40
    3.810
  1
MARK
 50
    0.000
  0
TEXT
  8
14
 7
SIMPLEX
 10
47.625    
 20
148.971   
 40
    3.810
  1
QNT
 50
    0.000
  0
TEXT
  8
14
 7
SIMPLEX
 10
72.390    
 20
148.971   
 40
    3.810
  1
DESCRIPTION
 50
    0.000
  0
TEXT
  8
14
 7
SIMPLEX
 10
158.115   
 20
148.971   
 40
    3.810
  1
WEIGHT
 50
    0.000
  0
LINE
  8
14
 10
0.000     
 20
140.018   
 11
186.690   
 21
140.018   
  0
TEXT
  8
14
 7
SIMPLEX
 10
2.667     
 20
140.970   
 40
    3.810
  1
WB6
 50
    0.000
  0
TEXT
  8
14
 7
SIMPLEX
 10
45.910    
 20
140.970   
 40
    3.810
  1
  1
 50
    0.000
  0
TEXT
  8
14
 7
SIMPLEX
 10
63.627    
 20
140.970   
 40
    3.810
  1
5    x 400 x 8517
 50
    0.000
  0
TEXT
  8
14
 7
SIMPLEX
 10
182.880   
 20
140.970   
 40
    3.810
 72
  2
 11
182.880   
 21
140.970   
  1
  136.3
 50
    0.000
  0
LINE
  8
14
 10
0.000     
 20
134.303   
 11
186.690   
 21
134.303   
  0
TEXT
  8
14
 7
SIMPLEX
 10
2.667     
 20
135.255   
 40
    3.810
  1
BW2
 50
    0.000
  0
TEXT
  8
14
 7
SIMPLEX
 10
45.910    
 20
135.255   
 40
    3.810
  1
  1
 50
    0.000
  0
TEXT
  8
14
 7
SIMPLEX
 10
63.627    
 20
135.255   
 40
    3.810
  1
4    x 346 x 214
 50
    0.000
  0
TEXT
  8
14
 7
SIMPLEX
 10
182.880   
 20
135.255   
 40
    3.810
 72
  2
 11
182.880   
 21
135.255   
  1
    2.4
 50
    0.000
  0
LINE
  8
14
 10
0.000     
 20
128.588   
 11
186.690   
 21
128.588   
  0
TEXT
  8
14
 7
SIMPLEX
 10
2.667     
 20
129.540   
 40
    3.810
  1
BW1
 50
    0.000
  0
TEXT
  8
14
 7
SIMPLEX
 10
45.910    
 20
129.540   
 40
    3.810
  1
  1
 50
    0.000
  0
TEXT
  8
14
 7
SIMPLEX
 10
63.627    
 20
129.540   
 40
    3.810
  1
5    x 350 x 756
 50
    0.000
  0
TEXT
  8
14
 7
SIMPLEX
 10
182.880   
 20
129.540   
 40
    3.810
 72
  2
 11
182.880   
 21
129.540   
  1
   10.6
 50
    0.000
  0
LINE
  8
14
 10
0.000     
 20
122.873   
 11
186.690   
 21
122.873   
  0
TEXT
  8
14
 7
SIMPLEX
 10
2.667     
 20
123.825   
 40
    3.810
  1
OF1
 50
    0.000
  0
TEXT
  8
14
 7
SIMPLEX
 10
45.910    
 20
123.825   
 40
    3.810
  1
  1
 50
    0.000
  0
TEXT
  8
14
 7
SIMPLEX
 10
63.627    
 20
123.825   
 40
    3.810
  1
6    x 150 x 8517
 50
    0.000
  0
TEXT
  8
14
 7
SIMPLEX
 10
182.880   
 20
123.825   
 40
    3.810
 72
  2
 11
182.880   
 21
123.825   
  1
   61.3
 50
    0.000
  0
LINE
  8
14
 10
0.000     
 20
117.158   
 11
186.690   
 21
117.158   
  0
TEXT
  8
14
 7
SIMPLEX
 10
2.667     
 20
118.110   
 40
    3.810
  1
BO2
 50
    0.000
  0
TEXT
  8
14
 7
SIMPLEX
 10
45.910    
 20
118.110   
 40
    3.810
  1
  1
 50
    0.000
  0
TEXT
  8
14
 7
SIMPLEX
 10
63.627    
 20
118.110   
 40
    3.810
  1
5    x 125 x 214
 50
    0.000
  0
TEXT
  8
14
 7
SIMPLEX
 10
182.880   
 20
118.110   
 40
    3.810
 72
  2
 11
182.880   
 21
118.110   
  1
    1.1
 50
    0.000
  0
LINE
  8
14
 10
0.000     
 20
111.443   
 11
186.690   
 21
111.443   
  0
TEXT
  8
14
 7
SIMPLEX
 10
2.667     
 20
112.395   
 40
    3.810
  1
BO1
 50
    0.000
  0
TEXT
  8
14
 7
SIMPLEX
 10
45.910    
 20
112.395   
 40
    3.810
  1
  1
 50
    0.000
  0
TEXT
  8
14
 7
SIMPLEX
 10
63.627    
 20
112.395   
 40
    3.810
  1
8    x 225 x 756
 50
    0.000
  0
TEXT
  8
14
 7
SIMPLEX
 10
182.880   
 20
112.395   
 40
    3.810
 72
  2
 11
182.880   
 21
112.395   
  1
   10.9
 50
    0.000
  0
LINE
  8
14
 10
0.000     
 20
105.728   
 11
186.690   
 21
105.728   
  0
TEXT
  8
14
 7
SIMPLEX
 10
2.667     
 20
106.680   
 40
    3.810
  1
BI2
 50
    0.000
  0
TEXT
  8
14
 7
SIMPLEX
 10
45.910    
 20
106.680   
 40
    3.810
  1
  1
 50
    0.000
  0
TEXT
  8
14
 7
SIMPLEX
 10
63.627    
 20
106.680   
 40
    3.810
  1
5    x 125 x 214
 50
    0.000
  0
TEXT
  8
14
 7
SIMPLEX
 10
182.880   
 20
106.680   
 40
    3.810
 72
  2
 11
182.880   
 21
106.680   
  1
    1.1
 50
    0.000
  0
LINE
  8
14
 10
0.000     
 20
100.013   
 11
186.690   
 21
100.013   
  0
TEXT
  8
14
 7
SIMPLEX
 10
2.667     
 20
100.965   
 40
    3.810
  1
IF1
 50
    0.000
  0
TEXT
  8
14
 7
SIMPLEX
 10
45.910    
 20
100.965   
 40
    3.810
  1
  1
 50
    0.000
  0
TEXT
  8
14
 7
SIMPLEX
 10
63.627    
 20
100.965   
 40
    3.810
  1
8    x 150 x 8517
 50
    0.000
  0
TEXT
  8
14
 7
SIMPLEX
 10
182.880   
 20
100.965   
 40
    3.810
 72
  2
 11
182.880   
 21
100.965   
  1
   81.8
 50
    0.000
  0
LINE
  8
14
 10
0.000     
 20
94.298    
 11
186.690   
 21
94.298    
  0
TEXT
  8
14
 7
SIMPLEX
 10
2.667     
 20
95.250    
 40
    3.810
  1
BI1
 50
    0.000
  0
TEXT
  8
14
 7
SIMPLEX
 10
45.910    
 20
95.250    
 40
    3.810
  1
  1
 50
    0.000
  0
TEXT
  8
14
 7
SIMPLEX
 10
63.627    
 20
95.250    
 40
    3.810
  1
8    x 225 x 756
 50
    0.000
  0
TEXT
  8
14
 7
SIMPLEX
 10
182.880   
 20
95.250    
 40
    3.810
 72
  2
 11
182.880   
 21
95.250    
  1
   10.9
 50
    0.000
  0
LINE
  8
14
 10
0.000     
 20
88.583    
 11
186.690   
 21
88.583    
  0
TEXT
  8
14
 7
SIMPLEX
 10
2.667     
 20
89.535    
 40
    3.810
  1
BE1
 50
    0.000
  0
TEXT
  8
14
 7
SIMPLEX
 10
45.910    
 20
89.535    
 40
    3.810
  1
  1
 50
    0.000
  0
TEXT
  8
14
 7
SIMPLEX
 10
63.627    
 20
89.535    
 40
    3.810
  1
16   x 200 x 548
 50
    0.000
  0
TEXT
  8
14
 7
SIMPLEX
 10
182.880   
 20
89.535    
 40
    3.810
 72
  2
 11
182.880   
 21
89.535    
  1
   14.0
 50
    0.000
  0
LINE
  8
14
 10
0.000     
 20
82.868    
 11
186.690   
 21
82.868    
  0
TEXT
  8
14
 7
SIMPLEX
 10
2.667     
 20
83.820    
 40
    3.810
  1
EP1
 50
    0.000
  0
TEXT
  8
14
 7
SIMPLEX
 10
45.910    
 20
83.820    
 40
    3.810
  1
  1
 50
    0.000
  0
TEXT
  8
14
 7
SIMPLEX
 10
63.627    
 20
83.820    
 40
    3.810
  1
16   x 250 x 707
 50
    0.000
  0
TEXT
  8
14
 7
SIMPLEX
 10
182.880   
 20
83.820    
 40
    3.810
 72
  2
 11
182.880   
 21
83.820    
  1
   22.6
 50
    0.000
  0
LINE
  8
14
 10
0.000     
 20
77.153    
 11
186.690   
 21
77.153    
  0
TEXT
  8
14
 7
SIMPLEX
 10
2.667     
 20
78.105    
 40
    3.810
  1
EP2
 50
    0.000
  0
TEXT
  8
14
 7
SIMPLEX
 10
45.910    
 20
78.105    
 40
    3.810
  1
  1
 50
    0.000
  0
TEXT
  8
14
 7
SIMPLEX
 10
63.627    
 20
78.105    
 40
    3.810
  1
16   x 200 x 600
 50
    0.000
  0
TEXT
  8
14
 7
SIMPLEX
 10
182.880   
 20
78.105    
 40
    3.810
 72
  2
 11
182.880   
 21
78.105    
  1
   15.4
 50
    0.000
  0
LINE
  8
14
 10
0.000     
 20
71.438    
 11
186.690   
 21
71.438    
  0
TEXT
  8
14
 7
SIMPLEX
 10
2.667     
 20
72.390    
 40
    3.810
  1
ST1
 50
    0.000
  0
TEXT
  8
14
 7
SIMPLEX
 10
45.910    
 20
72.390    
 40
    3.810
  1
  4
 50
    0.000
  0
TEXT
  8
14
 7
SIMPLEX
 10
63.627    
 20
72.390    
 40
    3.810
  1
6    x 70  x 300
 50
    0.000
  0
TEXT
  8
14
 7
SIMPLEX
 10
182.880   
 20
72.390    
 40
    3.810
 72
  2
 11
182.880   
 21
72.390    
  1
    4.0
 50
    0.000
  0
LINE
  8
14
 10
0.000     
 20
65.723    
 11
186.690   
 21
65.723    
  0
TEXT
  8
14
 7
SIMPLEX
 10
2.667     
 20
66.675    
 40
    3.810
  1
ST2
 50
    0.000
  0
TEXT
  8
14
 7
SIMPLEX
 10
45.910    
 20
66.675    
 40
    3.810
  1
  2
 50
    0.000
  0
TEXT
  8
14
 7
SIMPLEX
 10
63.627    
 20
66.675    
 40
    3.810
  1
6    x 140 x 300
 50
    0.000
  0
TEXT
  8
14
 7
SIMPLEX
 10
182.880   
 20
66.675    
 40
    3.810
 72
  2
 11
182.880   
 21
66.675    
  1
    4.0
 50
    0.000
  0
LINE
  8
14
 10
0.000     
 20
60.008    
 11
186.690   
 21
60.008    
  0
TEXT
  8
14
 7
SIMPLEX
 10
2.667     
 20
60.960    
 40
    3.810
  1
SS1
 50
    0.000
  0
TEXT
  8
14
 7
SIMPLEX
 10
45.910    
 20
60.960    
 40
    3.810
  1
  1
 50
    0.000
  0
TEXT
  8
14
 7
SIMPLEX
 10
63.627    
 20
60.960    
 40
    3.810
  1
5    x 536 x 756
 50
    0.000
  0
TEXT
  8
14
 7
SIMPLEX
 10
182.880   
 20
60.960    
 40
    3.810
 72
  2
 11
182.880   
 21
60.960    
  1
   16.2
 50
    0.000
  0
LINE
  8
14
 10
0.000     
 20
54.293    
 11
186.690   
 21
54.293    
  0
TEXT
  8
14
 7
SIMPLEX
 10
2.667     
 20
55.245    
 40
    3.810
  1
SS2
 50
    0.000
  0
TEXT
  8
14
 7
SIMPLEX
 10
45.910    
 20
55.245    
 40
    3.810
  1
  1
 50
    0.000
  0
TEXT
  8
14
 7
SIMPLEX
 10
63.627    
 20
55.245    
 40
    3.810
  1
12   x 197 x 147
 50
    0.000
  0
TEXT
  8
14
 7
SIMPLEX
 10
182.880   
 20
55.245    
 40
    3.810
 72
  2
 11
182.880   
 21
55.245    
  1
    2.8
 50
    0.000
  0
LINE
  8
14
 10
0.000     
 20
48.578    
 11
186.690   
 21
48.578    
  0
TEXT
  8
14
 7
SIMPLEX
 10
2.667     
 20
49.530    
 40
    3.810
  1
SS3
 50
    0.000
  0
TEXT
  8
14
 7
SIMPLEX
 10
45.910    
 20
49.530    
 40
    3.810
  1
  1
 50
    0.000
  0
TEXT
  8
14
 7
SIMPLEX
 10
63.627    
 20
49.530    
 40
    3.810
  1
12   x 196 x 146
 50
    0.000
  0
TEXT
  8
14
 7
SIMPLEX
 10
182.880   
 20
49.530    
 40
    3.810
 72
  2
 11
182.880   
 21
49.530    
  1
    2.8
 50
    0.000
  0
LINE
  8
14
 10
0.000     
 20
42.863    
 11
186.690   
 21
42.863    
  0
TEXT
  8
14
 7
SIMPLEX
 10
2.667     
 20
43.815    
 40
    3.810
  1
SS4
 50
    0.000
  0
TEXT
  8
14
 7
SIMPLEX
 10
45.910    
 20
43.815    
 40
    3.810
  1
  1
 50
    0.000
  0
TEXT
  8
14
 7
SIMPLEX
 10
63.627    
 20
43.815    
 40
    3.810
  1
5    x 120 x 94
 50
    0.000
  0
TEXT
  8
14
 7
SIMPLEX
 10
182.880   
 20
43.815    
 40
    3.810
 72
  2
 11
182.880   
 21
43.815    
  1
    0.4
 50
    0.000
  0
LINE
  8
14
 10
0.000     
 20
37.148    
 11
186.690   
 21
37.148    
  0
TEXT
  8
14
 7
SIMPLEX
 10
2.667     
 20
38.100    
 40
    3.810
  1
SS5
 50
    0.000
  0
TEXT
  8
14
 7
SIMPLEX
 10
45.910    
 20
38.100    
 40
    3.810
  1
  1
 50
    0.000
  0
TEXT
  8
14
 7
SIMPLEX
 10
63.627    
 20
38.100    
 40
    3.810
  1
5    x 120 x 92
 50
    0.000
  0
TEXT
  8
14
 7
SIMPLEX
 10
182.880   
 20
38.100    
 40
    3.810
 72
  2
 11
182.880   
 21
38.100    
  1
    0.4
 50
    0.000
  0
LINE
  8
14
 10
0.000     
 20
31.433    
 11
186.690   
 21
31.433    
  0
TEXT
  8
14
 7
SIMPLEX
 10
2.667     
 20
32.385    
 40
    3.810
  1
CLF1
 50
    0.000
  0
TEXT
  8
14
 7
SIMPLEX
 10
45.910    
 20
32.385    
 40
    3.810
  1
  4
 50
    0.000
  0
TEXT
  8
14
 7
SIMPLEX
 10
63.627    
 20
32.385    
 40
    3.810
  1
5    x 75  x 75
 50
    0.000
  0
TEXT
  8
14
 7
SIMPLEX
 10
182.880   
 20
32.385    
 40
    3.810
 72
  2
 11
182.880   
 21
32.385    
  1
    0.9
 50
    0.000
  0
LINE
  8
14
 10
0.000     
 20
25.718    
 11
186.690   
 21
25.718    
  0
TEXT
  8
14
 7
SIMPLEX
 10
2.667     
 20
26.670    
 40
    3.810
  1
CLF3
 50
    0.000
  0
TEXT
  8
14
 7
SIMPLEX
 10
45.910    
 20
26.670    
 40
    3.810
  1
  6
 50
    0.000
  0
TEXT
  8
14
 7
SIMPLEX
 10
63.627    
 20
26.670    
 40
    3.810
  1
5    x 150 x 205
 50
    0.000
  0
TEXT
  8
14
 7
SIMPLEX
 10
182.880   
 20
26.670    
 40
    3.810
 72
  2
 11
182.880   
 21
26.670    
  1
    7.4
 50
    0.000
  0
LINE
  8
14
 10
0.000     
 20
20.003    
 11
186.690   
 21
20.003    
  0
TEXT
  8
14
 7
SIMPLEX
 10
2.667     
 20
20.955    
 40
    3.810
  1
 GC41-01
 50
    0.000
  0
TEXT
  8
14
 7
SIMPLEX
 10
45.910    
 20
20.955    
 40
    3.810
  1
  1
 50
    0.000
  0
TEXT
  8
14
 7
SIMPLEX
 10
63.627    
 20
20.955    
 40
    3.810
  1
8    x 300 x 150
 50
    0.000
  0
TEXT
  8
14
 7
SIMPLEX
 10
182.880   
 20
20.955    
 40
    3.810
 72
  2
 11
182.880   
 21
20.955    
  1
    2.8
 50
    0.000
  0
LINE
  8
14
 10
0.000     
 20
14.288    
 11
186.690   
 21
14.288    
  0
LINE
  8
14
 10
0.000     
 20
8.573     
 11
186.690   
 21
8.573     
  0
TEXT
  8
14
 7
SIMPLEX
 10
63.627    
 20
2.286     
 40
    3.810
  1
Weight Sum
 50
    0.000
  0
TEXT
  8
14
 7
SIMPLEX
 10
182.880   
 20
2.286     
 40
    3.810
 72
  2
 11
182.880   
 21
2.286     
  1
  410.1
 50
    0.000
  0
ENDBLK
  8
0
  0
BLOCK
  8
2
  2
ASMTITLE
 70
     0
 10
0.000     
 20
0.000     
  0
LINE
  8
0
 10
0.000     
 20
10.160    
 11
91.440    
 21
10.160    
  0
LINE
  8
0
 10
0.000     
 20
20.320    
 11
91.440    
 21
20.320    
  0
LINE
  8
0
 10
0.000     
 20
30.480    
 11
91.440    
 21
30.480    
  0
LINE
  8
0
 10
91.440    
 20
0.000     
 11
91.440    
 21
30.480    
  0
LINE
  8
0
 10
0.000     
 20
30.480    
 11
0.000     
 21
0.000     
  0
LINE
  8
0
 10
30.480    
 20
20.320    
 11
30.480    
 21
0.000     
  0
LINE
  8
0
 10
60.960    
 20
20.320    
 11
60.960    
 21
0.000     
  0
LINE
  8
0
 10
0.000     
 20
0.000     
 11
91.440    
 21
0.000     
  0
TEXT
  8
0
 7
SIMPLEX
 10
7.620     
 20
17.780    
 40
    1.143
  1
JOB
 50
    0.000
  0
TEXT
  8
0
 7
SIMPLEX
 10
7.620     
 20
7.620     
 40
    1.143
  1
QUANTITY
 50
    0.000
  0
TEXT
  8
0
 7
SIMPLEX
 10
38.100    
 20
27.940    
 40
    1.143
  1
CUSTOMER
 50
    0.000
  0
TEXT
  8
0
 7
SIMPLEX
 10
38.100    
 20
17.780    
 40
    1.143
  1
CHECKED BY
 50
    0.000
  0
TEXT
  8
0
 7
SIMPLEX
 10
38.100    
 20
7.620     
 40
    1.143
  1
PART
 50
    0.000
  0
TEXT
  8
0
 7
SIMPLEX
 10
68.580    
 20
17.780    
 40
    1.143
  1
DATE
 50
    0.000
  0
TEXT
  8
0
 7
SIMPLEX
 10
68.580    
 20
7.620     
 40
    1.143
  1
DRAWING
 50
    0.000
  0
TEXT
  8
0
 7
SIMPLEX
 10
46.457    
 20
22.860    
 40
    3.607
  1
 
 50
    0.000
  0
TEXT
  8
0
 7
SIMPLEX
 10
2.540     
 20
12.700    
 40
    3.607
  1
C463-002
 50
    0.000
  0
TEXT
  8
0
 7
SIMPLEX
 10
2.540     
 20
2.540     
 40
    3.607
  1
  1
 50
    0.000
  0
TEXT
  8
0
 7
SIMPLEX
 10
33.020    
 20
2.540     
 40
    3.607
  1
CL3-3
 50
    0.000
  0
TEXT
  8
0
 7
SIMPLEX
 10
62.230    
 20
12.700    
 40
    3.607
  1
18/DEC/2025
 50
    0.000
  0
TEXT
  8
0
 7
SIMPLEX
 10
62.230    
 20
2.540     
 40
    3.607
  1
CL3-3
 50
    0.000
  0
ENDBLK
  8
2
  0
BLOCK
  8
2
  2
ASMSECTN
 70
     0
 10
0.000     
 20
0.000     
  0
LINE
  8
1
 10
-6.350    
 20
0.000     
 11
6.350     
 21
0.000     
  0
LINE
  8
1
 10
-6.350    
 20
0.000     
 11
-6.350    
 21
1.270     
  0
LINE
  8
1
 10
6.350     
 20
0.000     
 11
6.350     
 21
1.270     
  0
LINE
  8
1
 10
-6.350    
 20
1.270     
 11
6.350     
 21
1.270     
  0
LINE
  8
1
 10
-6.350    
 20
27.940    
 11
6.350     
 21
27.940    
  0
LINE
  8
1
 10
-6.350    
 20
27.940    
 11
-6.350    
 21
26.670    
  0
LINE
  8
1
 10
6.350     
 20
27.940    
 11
6.350     
 21
26.670    
  0
LINE
  8
1
 10
-6.350    
 20
26.670    
 11
6.350     
 21
26.670    
  0
LINE
  8
1
 10
-0.508    
 20
1.270     
 11
-0.508    
 21
26.670    
  0
LINE
  8
1
 10
0.508     
 20
1.270     
 11
0.508     
 21
26.670    
  0
TEXT
  8
3
 7
SIMPLEX
 10
-24.841   
 20
6.858     
 40
    2.845
  1
NS
 50
    0.000
  0
TEXT
  8
3
 7
SIMPLEX
 10
21.996    
 20
6.858     
 40
    2.845
  1
FS
 50
    0.000
  0
LINE
  8
13
 10
0.762     
 20
6.604     
 11
5.842     
 21
6.604     
  0
LINE
  8
13
 10
5.842     
 20
6.604     
 11
5.842     
 21
1.524     
  0
LINE
  8
13
 10
5.842     
 20
1.524     
 11
1.524     
 21
1.524     
  0
LINE
  8
13
 10
0.762     
 20
2.286     
 11
0.762     
 21
6.604     
  0
LINE
  8
13
 10
0.762     
 20
2.286     
 11
1.524     
 21
1.524     
  0
LINE
  8
13
 10
-0.762    
 20
6.604     
 11
-5.842    
 21
6.604     
  0
LINE
  8
13
 10
-5.842    
 20
6.604     
 11
-5.842    
 21
1.524     
  0
LINE
  8
13
 10
-5.842    
 20
1.524     
 11
-1.524    
 21
1.524     
  0
LINE
  8
13
 10
-0.762    
 20
2.286     
 11
-0.762    
 21
6.604     
  0
LINE
  8
13
 10
-0.762    
 20
2.286     
 11
-1.524    
 21
1.524     
  0
INSERT
  8
1
  2
CIRCLE
 10
3.302     
 20
4.064     
 41
   0.060
 42
   0.060
 43
   0.060
 50
   0.000
  0
INSERT
  8
1
  2
CIRCLE
 10
-3.302    
 20
4.064     
 41
   0.060
 42
   0.060
 43
   0.060
 50
   0.000
  0
LINE
  8
3
 10
-7.112    
 20
4.064     
 11
-12.192   
 21
4.064     
  0
LINE
  8
3
 10
-7.112    
 20
1.524     
 11
-12.192   
 21
1.524     
  0
LINE
  8
3
 10
-10.922   
 20
1.524     
 11
-10.922   
 21
4.064     
  0
INSERT
  8
1
  2
ARROW
 10
-10.922   
 20
1.524     
 41
   1.000
 42
   1.000
 43
   1.000
 50
  90.000
  0
INSERT
  8
1
  2
ARROW
 10
-10.922   
 20
4.064     
 41
   1.000
 42
   1.000
 43
   1.000
 50
 270.000
  0
TEXT
  8
3
 7
SIMPLEX
 10
-18.068   
 20
1.964     
 40
    2.845
  1
50
 50
    0.000
  0
LINE
  8
3
 10
-3.302    
 20
7.112     
 11
-3.302    
 21
9.144     
  0
LINE
  8
3
 10
-0.508    
 20
7.874     
 11
-0.508    
 21
9.144     
  0
LINE
  8
3
 10
-3.302    
 20
7.874     
 11
-0.508    
 21
7.874     
  0
INSERT
  8
1
  2
ARROW
 10
-3.302    
 20
7.874     
 41
   1.000
 42
   1.000
 43
   1.000
 50
   0.000
  0
INSERT
  8
1
  2
ARROW
 10
-0.508    
 20
7.874     
 41
   1.000
 42
   1.000
 43
   1.000
 50
 180.000
  0
TEXT
  8
3
 7
SIMPLEX
 10
-9.940    
 20
8.568     
 40
    2.845
  1
50
 50
    0.000
  0
LINE
  8
3
 10
7.112     
 20
3.810     
 11
17.272    
 21
3.810     
  0
INSERT
  8
3
  2
ARROWP
 10
7.112     
 20
3.810     
 41
   1.000
 42
   1.000
 43
   1.000
 50
 180.000
  0
TEXT
  8
1
 7
SIMPLEX
 10
10.160    
 20
4.572     
 40
    2.845
  1
CLF1
 50
    0.000
  0
TEXT
  8
21
 7
SIMPLEX
 10
9.550     
 20
-0.457    
 40
    2.845
  1
D=14
 50
    0.000
  0
LINE
  8
13
 10
-5.080    
 20
28.194    
 11
5.080     
 21
28.194    
  0
LINE
  8
13
 10
5.080     
 20
28.194    
 11
5.080     
 21
43.434    
  0
LINE
  8
13
 10
5.080     
 20
43.434    
 11
-5.080    
 21
43.434    
  0
LINE
  8
13
 10
-5.080    
 20
43.434    
 11
-5.080    
 21
28.194    
  0
INSERT
  8
1
  2
CIRCLE
 10
-2.540    
 20
33.274    
 41
   0.060
 42
   0.060
 43
   0.060
 50
   0.000
  0
INSERT
  8
1
  2
CIRCLE
 10
2.540     
 20
33.274    
 41
   0.060
 42
   0.060
 43
   0.060
 50
   0.000
  0
INSERT
  8
1
  2
CIRCLE
 10
-2.540    
 20
40.894    
 41
   0.060
 42
   0.060
 43
   0.060
 50
   0.000
  0
INSERT
  8
1
  2
CIRCLE
 10
2.540     
 20
40.894    
 41
   0.060
 42
   0.060
 43
   0.060
 50
   0.000
  0
LINE
  8
3
 10
-2.540    
 20
44.704    
 11
-2.540    
 21
47.244    
  0
LINE
  8
3
 10
2.540     
 20
44.704    
 11
2.540     
 21
47.244    
  0
LINE
  8
3
 10
-2.540    
 20
45.974    
 11
2.540     
 21
45.974    
  0
INSERT
  8
1
  2
ARROW
 10
-2.540    
 20
45.974    
 41
   1.000
 42
   1.000
 43
   1.000
 50
 180.000
  0
INSERT
  8
1
  2
ARROW
 10
2.540     
 20
45.974    
 41
   1.000
 42
   1.000
 43
   1.000
 50
   0.000
  0
TEXT
  8
3
 7
SIMPLEX
 10
-1.592    
 20
46.922    
 40
    2.845
  1
100
 50
    0.000
  0
LINE
  8
3
 10
7.620     
 20
27.940    
 11
12.700    
 21
27.940    
  0
LINE
  8
3
 10
6.350     
 20
33.274    
 11
12.700    
 21
33.274    
  0
LINE
  8
3
 10
11.430    
 20
27.940    
 11
11.430    
 21
40.894    
  0
LINE
  8
3
 10
6.350     
 20
40.894    
 11
12.700    
 21
40.894    
  0
INSERT
  8
1
  2
ARROW
 10
11.430    
 20
40.894    
 41
   1.000
 42
   1.000
 43
   1.000
 50
  90.000
  0
INSERT
  8
1
  2
ARROW
 10
11.430    
 20
33.274    
 41
   1.000
 42
   1.000
 43
   1.000
 50
 270.000
  0
INSERT
  8
1
  2
ARROW
 10
11.430    
 20
33.274    
 41
   1.000
 42
   1.000
 43
   1.000
 50
  90.000
  0
INSERT
  8
1
  2
ARROW
 10
11.430    
 20
27.940    
 41
   1.000
 42
   1.000
 43
   1.000
 50
 270.000
  0
TEXT
  8
3
 7
SIMPLEX
 10
12.378    
 20
30.158    
 40
    2.845
  1
80
 50
    0.000
  0
TEXT
  8
3
 7
SIMPLEX
 10
12.378    
 20
36.508    
 40
    2.845
  1
100
 50
    0.000
  0
LINE
  8
3
 10
-6.350    
 20
38.100    
 11
-16.510   
 21
38.100    
  0
INSERT
  8
3
  2
ARROWP
 10
-6.350    
 20
38.100    
 41
   1.000
 42
   1.000
 43
   1.000
 50
   0.000
  0
TEXT
  8
1
 7
SIMPLEX
 10
-17.780   
 20
38.862    
 40
    2.845
  1
CLF3
 50
    0.000
  0
TEXT
  8
21
 7
SIMPLEX
 10
-23.571   
 20
33.833    
 40
    2.845
  1
D=14
 50
    0.000
  0
LINE
  8
13
 10
-5.080    
 20
-0.254    
 11
5.080     
 21
-0.254    
  0
LINE
  8
13
 10
5.080     
 20
-0.254    
 11
5.080     
 21
-7.874    
  0
LINE
  8
13
 10
5.080     
 20
-7.874    
 11
-5.080    
 21
-7.874    
  0
LINE
  8
13
 10
-5.080    
 20
-7.874    
 11
-5.080    
 21
-0.254    
  0
INSERT
  8
1
  2
CIRCLE
 10
-2.540    
 20
-5.334    
 41
   0.060
 42
   0.060
 43
   0.060
 50
  90.000
  0
INSERT
  8
1
  2
CIRCLE
 10
2.540     
 20
-5.334    
 41
   0.060
 42
   0.060
 43
   0.060
 50
  90.000
  0
LINE
  8
3
 10
-2.540    
 20
-9.144    
 11
-2.540    
 21
-14.224   
  0
LINE
  8
3
 10
2.540     
 20
-9.144    
 11
2.540     
 21
-14.224   
  0
LINE
  8
3
 10
-2.540    
 20
-12.954   
 11
2.540     
 21
-12.954   
  0
INSERT
  8
1
  2
ARROW
 10
-2.540    
 20
-12.954   
 41
   1.000
 42
   1.000
 43
   1.000
 50
 180.000
  0
INSERT
  8
1
  2
ARROW
 10
2.540     
 20
-12.954   
 41
   1.000
 42
   1.000
 43
   1.000
 50
   0.000
  0
TEXT
  8
3
 7
SIMPLEX
 10
3.488     
 20
-12.006   
 40
    2.845
  1
200
 50
    0.000
  0
LINE
  8
3
 10
7.620     
 20
0.000     
 11
12.700    
 21
0.000     
  0
LINE
  8
3
 10
7.620     
 20
-5.334    
 11
12.700    
 21
-5.334    
  0
LINE
  8
3
 10
11.430    
 20
0.000     
 11
11.430    
 21
-5.334    
  0
INSERT
  8
1
  2
ARROW
 10
11.430    
 20
-5.334    
 41
   1.000
 42
   1.000
 43
   1.000
 50
 270.000
  0
INSERT
  8
1
  2
ARROW
 10
11.430    
 20
0.000     
 41
   1.000
 42
   1.000
 43
   1.000
 50
  90.000
  0
TEXT
  8
3
 7
SIMPLEX
 10
12.378    
 20
-4.386    
 40
    2.845
  1
100
 50
    0.000
  0
LINE
  8
3
 10
-6.350    
 20
-7.620    
 11
-16.510   
 21
-7.620    
  0
INSERT
  8
3
  2
ARROWP
 10
-6.350    
 20
-7.620    
 41
   1.000
 42
   1.000
 43
   1.000
 50
   0.000
  0
TEXT
  8
1
 7
SIMPLEX
 10
-17.780   
 20
-6.858    
 40
    2.845
  1
 GC41-01
 50
    0.000
  0
TEXT
  8
21
 7
SIMPLEX
 10
-17.780   
 20
-11.887   
 40
    2.845
  1
D=22
 50
    0.000
  0
INSERT
  8
4
  2
ARROWP
 10
9.195     
 20
-1.422    
 41
   1.500
 42
   1.500
 43
   1.500
 50
 135.000
  0
LINE
  8
4
 10
9.195     
 20
-1.422    
 11
14.315    
 21
-6.543    
  0
LINE
  8
4
 10
14.315    
 20
-6.543    
 11
33.091    
 21
-6.543    
  0
TEXT
  8
5
 7
SIMPLEX
 10
17.160    
 20
-5.595    
 40
    2.845
  1
4
 50
    0.000
  0
LINE
  8
4
 10
33.091    
 20
-6.543    
 11
33.945    
 21
-6.543    
  0
LINE
  8
4
 10
33.945    
 20
-6.543    
 11
37.358    
 21
-4.552    
  0
LINE
  8
4
 10
33.945    
 20
-6.543    
 11
37.358    
 21
-8.534    
  0
TEXT
  8
4
 7
SIMPLEX
 10
36.647    
 20
-7.965    
 40
    2.845
  1
Clips
 50
    0.000
  0
LINE
  8
4
 10
29.535    
 20
-3.698    
 11
32.380    
 21
-6.543    
  0
LINE
  8
4
 10
29.535    
 20
-6.543    
 11
29.535    
 21
-3.698    
  0
ENDBLK
  8
2
  0
BLOCK
  8
2
  2
ASMSECT2
 70
     0
 10
0.000     
 20
0.000     
  0
LINE
  8
1
 10
-6.350    
 20
0.000     
 11
6.350     
 21
0.000     
  0
LINE
  8
1
 10
-6.350    
 20
0.000     
 11
-6.350    
 21
1.270     
  0
LINE
  8
1
 10
6.350     
 20
0.000     
 11
6.350     
 21
1.270     
  0
LINE
  8
1
 10
-6.350    
 20
1.270     
 11
6.350     
 21
1.270     
  0
LINE
  8
1
 10
-6.350    
 20
27.940    
 11
6.350     
 21
27.940    
  0
LINE
  8
1
 10
-6.350    
 20
27.940    
 11
-6.350    
 21
26.670    
  0
LINE
  8
1
 10
6.350     
 20
27.940    
 11
6.350     
 21
26.670    
  0
LINE
  8
1
 10
-6.350    
 20
26.670    
 11
6.350     
 21
26.670    
  0
LINE
  8
1
 10
-0.508    
 20
1.270     
 11
-0.508    
 21
26.670    
  0
LINE
  8
1
 10
0.508     
 20
1.270     
 11
0.508     
 21
26.670    
  0
TEXT
  8
3
 7
SIMPLEX
 10
-24.841   
 20
6.858     
 40
    2.845
  1
NS
 50
    0.000
  0
TEXT
  8
3
 7
SIMPLEX
 10
21.996    
 20
6.858     
 40
    2.845
  1
FS
 50
    0.000
  0
LINE
  8
13
 10
-5.080    
 20
28.194    
 11
5.080     
 21
28.194    
  0
LINE
  8
13
 10
5.080     
 20
28.194    
 11
5.080     
 21
43.434    
  0
LINE
  8
13
 10
5.080     
 20
43.434    
 11
-5.080    
 21
43.434    
  0
LINE
  8
13
 10
-5.080    
 20
43.434    
 11
-5.080    
 21
28.194    
  0
INSERT
  8
1
  2
CIRCLE
 10
-2.540    
 20
33.274    
 41
   0.060
 42
   0.060
 43
   0.060
 50
   0.000
  0
INSERT
  8
1
  2
CIRCLE
 10
2.540     
 20
33.274    
 41
   0.060
 42
   0.060
 43
   0.060
 50
   0.000
  0
INSERT
  8
1
  2
CIRCLE
 10
-2.540    
 20
40.894    
 41
   0.060
 42
   0.060
 43
   0.060
 50
   0.000
  0
INSERT
  8
1
  2
CIRCLE
 10
2.540     
 20
40.894    
 41
   0.060
 42
   0.060
 43
   0.060
 50
   0.000
  0
LINE
  8
3
 10
-2.540    
 20
44.704    
 11
-2.540    
 21
47.244    
  0
LINE
  8
3
 10
2.540     
 20
44.704    
 11
2.540     
 21
47.244    
  0
LINE
  8
3
 10
-2.540    
 20
45.974    
 11
2.540     
 21
45.974    
  0
INSERT
  8
1
  2
ARROW
 10
-2.540    
 20
45.974    
 41
   1.000
 42
   1.000
 43
   1.000
 50
 180.000
  0
INSERT
  8
1
  2
ARROW
 10
2.540     
 20
45.974    
 41
   1.000
 42
   1.000
 43
   1.000
 50
   0.000
  0
TEXT
  8
3
 7
SIMPLEX
 10
-1.592    
 20
46.922    
 40
    2.845
  1
100
 50
    0.000
  0
LINE
  8
3
 10
7.620     
 20
27.940    
 11
12.700    
 21
27.940    
  0
LINE
  8
3
 10
6.350     
 20
33.274    
 11
12.700    
 21
33.274    
  0
LINE
  8
3
 10
11.430    
 20
27.940    
 11
11.430    
 21
40.894    
  0
LINE
  8
3
 10
6.350     
 20
40.894    
 11
12.700    
 21
40.894    
  0
INSERT
  8
1
  2
ARROW
 10
11.430    
 20
40.894    
 41
   1.000
 42
   1.000
 43
   1.000
 50
  90.000
  0
INSERT
  8
1
  2
ARROW
 10
11.430    
 20
33.274    
 41
   1.000
 42
   1.000
 43
   1.000
 50
 270.000
  0
INSERT
  8
1
  2
ARROW
 10
11.430    
 20
33.274    
 41
   1.000
 42
   1.000
 43
   1.000
 50
  90.000
  0
INSERT
  8
1
  2
ARROW
 10
11.430    
 20
27.940    
 41
   1.000
 42
   1.000
 43
   1.000
 50
 270.000
  0
TEXT
  8
3
 7
SIMPLEX
 10
12.378    
 20
30.158    
 40
    2.845
  1
80
 50
    0.000
  0
TEXT
  8
3
 7
SIMPLEX
 10
12.378    
 20
36.508    
 40
    2.845
  1
100
 50
    0.000
  0
LINE
  8
3
 10
-6.350    
 20
38.100    
 11
-16.510   
 21
38.100    
  0
INSERT
  8
3
  2
ARROWP
 10
-6.350    
 20
38.100    
 41
   1.000
 42
   1.000
 43
   1.000
 50
   0.000
  0
TEXT
  8
1
 7
SIMPLEX
 10
-17.780   
 20
38.862    
 40
    2.845
  1
CLF3
 50
    0.000
  0
TEXT
  8
21
 7
SIMPLEX
 10
-23.571   
 20
33.833    
 40
    2.845
  1
D=14
 50
    0.000
  0
LINE
  8
13
 10
-5.080    
 20
-0.254    
 11
5.080     
 21
-0.254    
  0
LINE
  8
13
 10
5.080     
 20
-0.254    
 11
5.080     
 21
-7.874    
  0
LINE
  8
13
 10
5.080     
 20
-7.874    
 11
-5.080    
 21
-7.874    
  0
LINE
  8
13
 10
-5.080    
 20
-7.874    
 11
-5.080    
 21
-0.254    
  0
INSERT
  8
1
  2
CIRCLE
 10
-2.540    
 20
-5.334    
 41
   0.060
 42
   0.060
 43
   0.060
 50
  90.000
  0
INSERT
  8
1
  2
CIRCLE
 10
2.540     
 20
-5.334    
 41
   0.060
 42
   0.060
 43
   0.060
 50
  90.000
  0
LINE
  8
3
 10
-2.540    
 20
-9.144    
 11
-2.540    
 21
-14.224   
  0
LINE
  8
3
 10
2.540     
 20
-9.144    
 11
2.540     
 21
-14.224   
  0
LINE
  8
3
 10
-2.540    
 20
-12.954   
 11
2.540     
 21
-12.954   
  0
INSERT
  8
1
  2
ARROW
 10
-2.540    
 20
-12.954   
 41
   1.000
 42
   1.000
 43
   1.000
 50
 180.000
  0
INSERT
  8
1
  2
ARROW
 10
2.540     
 20
-12.954   
 41
   1.000
 42
   1.000
 43
   1.000
 50
   0.000
  0
TEXT
  8
3
 7
SIMPLEX
 10
3.488     
 20
-12.006   
 40
    2.845
  1
200
 50
    0.000
  0
LINE
  8
3
 10
7.620     
 20
0.000     
 11
12.700    
 21
0.000     
  0
LINE
  8
3
 10
7.620     
 20
-5.334    
 11
12.700    
 21
-5.334    
  0
LINE
  8
3
 10
11.430    
 20
0.000     
 11
11.430    
 21
-5.334    
  0
INSERT
  8
1
  2
ARROW
 10
11.430    
 20
-5.334    
 41
   1.000
 42
   1.000
 43
   1.000
 50
 270.000
  0
INSERT
  8
1
  2
ARROW
 10
11.430    
 20
0.000     
 41
   1.000
 42
   1.000
 43
   1.000
 50
  90.000
  0
TEXT
  8
3
 7
SIMPLEX
 10
12.378    
 20
-4.386    
 40
    2.845
  1
100
 50
    0.000
  0
LINE
  8
3
 10
-6.350    
 20
-7.620    
 11
-16.510   
 21
-7.620    
  0
INSERT
  8
3
  2
ARROWP
 10
-6.350    
 20
-7.620    
 41
   1.000
 42
   1.000
 43
   1.000
 50
   0.000
  0
TEXT
  8
1
 7
SIMPLEX
 10
-17.780   
 20
-6.858    
 40
    2.845
  1
 GC41-01
 50
    0.000
  0
TEXT
  8
21
 7
SIMPLEX
 10
-17.780   
 20
-11.887   
 40
    2.845
  1
D=22
 50
    0.000
  0
LINE
  8
13
 10
-0.508    
 20
1.270     
 11
-6.350    
 21
1.270     
  0
LINE
  8
13
 10
-6.350    
 20
1.270     
 11
-6.350    
 21
26.670    
  0
LINE
  8
13
 10
-6.350    
 20
26.670    
 11
-0.508    
 21
26.670    
  0
LINE
  8
13
 10
-0.508    
 20
26.670    
 11
-0.508    
 21
1.270     
  0
INSERT
  8
1
  2
CIRCLE
 10
-3.429    
 20
21.590    
 41
   0.060
 42
   0.060
 43
   0.060
 50
   0.000
  0
LINE
  8
3
 10
-3.429    
 20
29.210    
 11
-3.429    
 21
31.750    
  0
LINE
  8
3
 10
-0.508    
 20
29.210    
 11
-0.508    
 21
31.750    
  0
LINE
  8
3
 10
-3.429    
 20
30.988    
 11
-0.508    
 21
30.988    
  0
INSERT
  8
1
  2
ARROW
 10
-3.429    
 20
30.988    
 41
   1.000
 42
   1.000
 43
   1.000
 50
 180.000
  0
INSERT
  8
1
  2
ARROW
 10
-0.508    
 20
30.988    
 41
   1.000
 42
   1.000
 43
   1.000
 50
 360.000
  0
TEXT
  8
3
 7
SIMPLEX
 10
-10.067   
 20
31.936    
 40
    2.845
  1
80
 50
    0.000
  0
LINE
  8
3
 10
7.620     
 20
26.670    
 11
12.700    
 21
26.670    
  0
LINE
  8
3
 10
7.620     
 20
21.590    
 11
12.700    
 21
21.590    
  0
LINE
  8
3
 10
11.430    
 20
26.670    
 11
11.430    
 21
21.590    
  0
INSERT
  8
1
  2
ARROW
 10
11.430    
 20
26.670    
 41
   1.000
 42
   1.000
 43
   1.000
 50
  90.000
  0
INSERT
  8
1
  2
ARROW
 10
11.430    
 20
21.590    
 41
   1.000
 42
   1.000
 43
   1.000
 50
 270.000
  0
TEXT
  8
3
 7
SIMPLEX
 10
12.378    
 20
22.538    
 40
    2.845
  1
80
 50
    0.000
  0
LINE
  8
3
 10
-8.890    
 20
9.737     
 11
-20.269   
 21
9.737     
  0
INSERT
  8
3
  2
ARROWP
 10
-8.890    
 20
9.737     
 41
   1.000
 42
   1.000
 43
   1.000
 50
 360.000
  0
TEXT
  8
1
 7
SIMPLEX
 10
-16.510   
 20
10.499    
 40
    2.845
  1
ST2
 50
    0.000
  0
TEXT
  8
3
 7
SIMPLEX
 10
-13.462   
 20
-4.420    
 40
    2.845
  1
NS
 50
    0.000
  0
TEXT
  8
21
 7
SIMPLEX
 10
-32.360   
 20
-2.997    
 40
    2.845
  1
D=22
 50
    0.000
  0
LINE
  8
13
 10
0.508     
 20
1.270     
 11
6.350     
 21
1.270     
  0
LINE
  8
13
 10
6.350     
 20
1.270     
 11
6.350     
 21
26.670    
  0
LINE
  8
13
 10
6.350     
 20
26.670    
 11
0.508     
 21
26.670    
  0
LINE
  8
13
 10
0.508     
 20
26.670    
 11
0.508     
 21
1.270     
  0
INSERT
  8
1
  2
CIRCLE
 10
3.429     
 20
21.590    
 41
   0.060
 42
   0.060
 43
   0.060
 50
   0.000
  0
LINE
  8
3
 10
3.429     
 20
29.210    
 11
3.429     
 21
31.750    
  0
LINE
  8
3
 10
0.508     
 20
29.210    
 11
0.508     
 21
31.750    
  0
LINE
  8
3
 10
3.429     
 20
30.988    
 11
0.508     
 21
30.988    
  0
INSERT
  8
1
  2
ARROW
 10
3.429     
 20
30.988    
 41
   1.000
 42
   1.000
 43
   1.000
 50
   0.000
  0
INSERT
  8
1
  2
ARROW
 10
0.508     
 20
30.988    
 41
   1.000
 42
   1.000
 43
   1.000
 50
 180.000
  0
TEXT
  8
3
 7
SIMPLEX
 10
4.377     
 20
31.936    
 40
    2.845
  1
80
 50
    0.000
  0
LINE
  8
3
 10
7.620     
 20
26.670    
 11
12.700    
 21
26.670    
  0
LINE
  8
3
 10
7.620     
 20
21.590    
 11
12.700    
 21
21.590    
  0
LINE
  8
3
 10
11.430    
 20
26.670    
 11
11.430    
 21
21.590    
  0
INSERT
  8
1
  2
ARROW
 10
11.430    
 20
26.670    
 41
   1.000
 42
   1.000
 43
   1.000
 50
  90.000
  0
INSERT
  8
1
  2
ARROW
 10
11.430    
 20
21.590    
 41
   1.000
 42
   1.000
 43
   1.000
 50
 270.000
  0
TEXT
  8
3
 7
SIMPLEX
 10
12.378    
 20
22.538    
 40
    2.845
  1
80
 50
    0.000
  0
LINE
  8
3
 10
8.890     
 20
9.737     
 11
20.269    
 21
9.737     
  0
INSERT
  8
3
  2
ARROWP
 10
8.890     
 20
9.737     
 41
   1.000
 42
   1.000
 43
   1.000
 50
 180.000
  0
TEXT
  8
1
 7
SIMPLEX
 10
8.890     
 20
10.499    
 40
    2.845
  1
ST2
 50
    0.000
  0
TEXT
  8
3
 7
SIMPLEX
 10
9.195     
 20
-4.420    
 40
    2.845
  1
FS
 50
    0.000
  0
TEXT
  8
21
 7
SIMPLEX
 10
20.980    
 20
-2.997    
 40
    2.845
  1
D=22
 50
    0.000
  0
ENDBLK
  8
2
  0
BLOCK
  8
2
  2
ASMBOLT
 70
     0
 10
0.000     
 20
0.000     
  0
TEXT
  8
21
 7
SIMPLEX
 10
0.000     
 20
5.715     
 40
    3.810
  1
D=DIAMETER
 50
    0.000
  0
TEXT
  8
21
 7
SIMPLEX
 10
0.000     
 20
0.000     
 40
    3.810
  1
G=GAGE
 50
    0.000
  0
ENDBLK
  8
2
  0
BLOCK
  8
2
  2
ASMVIEW
 70
     0
 10
0.000     
 20
0.000     
  0
LINE
  8
21
 10
0.000     
 20
0.000     
 11
30.480    
 21
0.000     
  0
INSERT
  8
21
  2
ARROWP
 10
0.000     
 20
0.000     
 41
   1.000
 42
   1.000
 43
   1.000
 50
 180.000
  0
TEXT
  8
21
 7
SIMPLEX
 10
0.000     
 20
0.953     
 40
    3.810
  1
View for
 50
    0.000
  0
TEXT
  8
21
 7
SIMPLEX
 10
0.000     
 20
-4.762    
 40
    3.810
  1
Section
 50
    0.000
  0
ENDBLK
  8
2
  0
BLOCK
  8
0
  2
ASM_WELD
 70
     0
 10
0.000     
 20
222.885   
  0
LINE
  8
20
 10
0.000     
 20
222.885   
 11
116.967   
 21
222.885   
  0
LINE
  8
20
 10
0.000     
 20
0.000     
 11
116.967   
 21
0.000     
  0
LINE
  8
20
 10
116.967   
 20
0.000     
 11
116.967   
 21
222.885   
  0
LINE
  8
20
 10
0.000     
 20
0.000     
 11
0.000     
 21
222.885   
  0
TEXT
  8
14
 7
SIMPLEX
 10
1.143     
 20
218.123   
 40
    3.810
  1
WELD TABLE
 50
    0.000
  0
LINE
  8
20
 10
0.000     
 20
217.170   
 11
116.967   
 21
217.170   
  0
LINE
  8
20
 10
33.147    
 20
0.000     
 11
33.147    
 21
217.170   
  0
LINE
  8
20
 10
56.007    
 20
0.000     
 11
56.007    
 21
217.170   
  0
LINE
  8
20
 10
78.867    
 20
0.000     
 11
78.867    
 21
217.170   
  0
LINE
  8
20
 10
101.727   
 20
0.000     
 11
101.727   
 21
217.170   
  0
TEXT
  8
14
 7
SIMPLEX
 10
1.143     
 20
212.408   
 40
    3.810
  1
Plate1
 50
    0.000
  0
TEXT
  8
14
 7
SIMPLEX
 10
33.909    
 20
212.408   
 40
    3.810
  1
Plate2
 50
    0.000
  0
TEXT
  8
14
 7
SIMPLEX
 10
56.769    
 20
212.408   
 40
    3.810
  1
Type
 50
    0.000
  0
TEXT
  8
14
 7
SIMPLEX
 10
79.629    
 20
212.408   
 40
    3.810
  1
Size
 50
    0.000
  0
TEXT
  8
14
 7
SIMPLEX
 10
102.489   
 20
212.408   
 40
    3.810
  1
Side
 50
    0.000
  0
LINE
  8
20
 10
0.000     
 20
211.455   
 11
116.967   
 21
211.455   
  0
TEXT
  8
14
 7
SIMPLEX
 10
1.143     
 20
206.692   
 40
    3.810
  1
WB6
 50
    0.000
  0
TEXT
  8
14
 7
SIMPLEX
 10
35.433    
 20
206.692   
 40
    3.810
  1
OF
 50
    0.000
  0
TEXT
  8
14
 7
SIMPLEX
 10
57.531    
 20
206.692   
 40
    3.810
  1
Fillet
 50
    0.000
  0
TEXT
  8
14
 7
SIMPLEX
 10
79.629    
 20
206.692   
 40
    3.810
  1
4
 50
    0.000
  0
TEXT
  8
14
 7
SIMPLEX
 10
104.013   
 20
206.692   
 40
    3.810
  1
  1
 50
    0.000
  0
TEXT
  8
14
 7
SIMPLEX
 10
1.143     
 20
200.977   
 40
    3.810
  1
WB6
 50
    0.000
  0
TEXT
  8
14
 7
SIMPLEX
 10
35.433    
 20
200.977   
 40
    3.810
  1
IF
 50
    0.000
  0
TEXT
  8
14
 7
SIMPLEX
 10
57.531    
 20
200.977   
 40
    3.810
  1
Fillet
 50
    0.000
  0
TEXT
  8
14
 7
SIMPLEX
 10
79.629    
 20
200.977   
 40
    3.810
  1
4
 50
    0.000
  0
TEXT
  8
14
 7
SIMPLEX
 10
104.013   
 20
200.977   
 40
    3.810
  1
  1
 50
    0.000
  0
TEXT
  8
14
 7
SIMPLEX
 10
1.143     
 20
195.262   
 40
    3.810
  1
EP1
 50
    0.000
  0
TEXT
  8
14
 7
SIMPLEX
 10
35.433    
 20
195.262   
 40
    3.810
  1
OF
 50
    0.000
  0
TEXT
  8
14
 7
SIMPLEX
 10
57.531    
 20
195.262   
 40
    3.810
  1
Fillet
 50
    0.000
  0
TEXT
  8
14
 7
SIMPLEX
 10
79.629    
 20
195.262   
 40
    3.810
  1
6
 50
    0.000
  0
TEXT
  8
14
 7
SIMPLEX
 10
104.013   
 20
195.262   
 40
    3.810
  1
  2
 50
    0.000
  0
TEXT
  8
14
 7
SIMPLEX
 10
1.143     
 20
189.548   
 40
    3.810
  1
EP1
 50
    0.000
  0
TEXT
  8
14
 7
SIMPLEX
 10
35.433    
 20
189.548   
 40
    3.810
  1
IF
 50
    0.000
  0
TEXT
  8
14
 7
SIMPLEX
 10
57.531    
 20
189.548   
 40
    3.810
  1
Fillet
 50
    0.000
  0
TEXT
  8
14
 7
SIMPLEX
 10
79.629    
 20
189.548   
 40
    3.810
  1
6
 50
    0.000
  0
TEXT
  8
14
 7
SIMPLEX
 10
104.013   
 20
189.548   
 40
    3.810
  1
  2
 50
    0.000
  0
TEXT
  8
14
 7
SIMPLEX
 10
1.143     
 20
183.833   
 40
    3.810
  1
EP1
 50
    0.000
  0
TEXT
  8
14
 7
SIMPLEX
 10
35.433    
 20
183.833   
 40
    3.810
  1
WB
 50
    0.000
  0
TEXT
  8
14
 7
SIMPLEX
 10
57.531    
 20
183.833   
 40
    3.810
  1
Fillet
 50
    0.000
  0
TEXT
  8
14
 7
SIMPLEX
 10
79.629    
 20
183.833   
 40
    3.810
  1
4
 50
    0.000
  0
TEXT
  8
14
 7
SIMPLEX
 10
104.013   
 20
183.833   
 40
    3.810
  1
  2
 50
    0.000
  0
TEXT
  8
14
 7
SIMPLEX
 10
1.143     
 20
178.118   
 40
    3.810
  1
EP2
 50
    0.000
  0
TEXT
  8
14
 7
SIMPLEX
 10
35.433    
 20
178.118   
 40
    3.810
  1
OF1
 50
    0.000
  0
TEXT
  8
14
 7
SIMPLEX
 10
57.531    
 20
178.118   
 40
    3.810
  1
Fillet
 50
    0.000
  0
TEXT
  8
14
 7
SIMPLEX
 10
79.629    
 20
178.118   
 40
    3.810
  1
4
 50
    0.000
  0
TEXT
  8
14
 7
SIMPLEX
 10
104.013   
 20
178.118   
 40
    3.810
  1
  2
 50
    0.000
  0
TEXT
  8
14
 7
SIMPLEX
 10
1.143     
 20
172.403   
 40
    3.810
  1
EP2
 50
    0.000
  0
TEXT
  8
14
 7
SIMPLEX
 10
35.433    
 20
172.403   
 40
    3.810
  1
IF1
 50
    0.000
  0
TEXT
  8
14
 7
SIMPLEX
 10
57.531    
 20
172.403   
 40
    3.810
  1
Fillet
 50
    0.000
  0
TEXT
  8
14
 7
SIMPLEX
 10
79.629    
 20
172.403   
 40
    3.810
  1
6
 50
    0.000
  0
TEXT
  8
14
 7
SIMPLEX
 10
104.013   
 20
172.403   
 40
    3.810
  1
  2
 50
    0.000
  0
TEXT
  8
14
 7
SIMPLEX
 10
1.143     
 20
166.688   
 40
    3.810
  1
EP2
 50
    0.000
  0
TEXT
  8
14
 7
SIMPLEX
 10
35.433    
 20
166.688   
 40
    3.810
  1
WB6
 50
    0.000
  0
TEXT
  8
14
 7
SIMPLEX
 10
57.531    
 20
166.688   
 40
    3.810
  1
Fillet
 50
    0.000
  0
TEXT
  8
14
 7
SIMPLEX
 10
79.629    
 20
166.688   
 40
    3.810
  1
4
 50
    0.000
  0
TEXT
  8
14
 7
SIMPLEX
 10
104.013   
 20
166.688   
 40
    3.810
  1
  2
 50
    0.000
  0
TEXT
  8
14
 7
SIMPLEX
 10
1.143     
 20
160.973   
 40
    3.810
  1
BO1
 50
    0.000
  0
TEXT
  8
14
 7
SIMPLEX
 10
35.433    
 20
160.973   
 40
    3.810
  1
IF
 50
    0.000
  0
TEXT
  8
14
 7
SIMPLEX
 10
57.531    
 20
160.973   
 40
    3.810
  1
Fillet
 50
    0.000
  0
TEXT
  8
14
 7
SIMPLEX
 10
79.629    
 20
160.973   
 40
    3.810
  1
8
 50
    0.000
  0
TEXT
  8
14
 7
SIMPLEX
 10
104.013   
 20
160.973   
 40
    3.810
  1
  2
 50
    0.000
  0
TEXT
  8
14
 7
SIMPLEX
 10
1.143     
 20
155.258   
 40
    3.810
  1
BI1
 50
    0.000
  0
TEXT
  8
14
 7
SIMPLEX
 10
35.433    
 20
155.258   
 40
    3.810
  1
IF
 50
    0.000
  0
TEXT
  8
14
 7
SIMPLEX
 10
57.531    
 20
155.258   
 40
    3.810
  1
Fillet
 50
    0.000
  0
TEXT
  8
14
 7
SIMPLEX
 10
79.629    
 20
155.258   
 40
    3.810
  1
8
 50
    0.000
  0
TEXT
  8
14
 7
SIMPLEX
 10
104.013   
 20
155.258   
 40
    3.810
  1
  2
 50
    0.000
  0
TEXT
  8
14
 7
SIMPLEX
 10
1.143     
 20
149.543   
 40
    3.810
  1
BW1
 50
    0.000
  0
TEXT
  8
14
 7
SIMPLEX
 10
35.433    
 20
149.543   
 40
    3.810
  1
IF
 50
    0.000
  0
TEXT
  8
14
 7
SIMPLEX
 10
57.531    
 20
149.543   
 40
    3.810
  1
Fillet
 50
    0.000
  0
TEXT
  8
14
 7
SIMPLEX
 10
79.629    
 20
149.543   
 40
    3.810
  1
4
 50
    0.000
  0
TEXT
  8
14
 7
SIMPLEX
 10
104.013   
 20
149.543   
 40
    3.810
  1
  2
 50
    0.000
  0
TEXT
  8
14
 7
SIMPLEX
 10
1.143     
 20
143.828   
 40
    3.810
  1
BW1
 50
    0.000
  0
TEXT
  8
14
 7
SIMPLEX
 10
35.433    
 20
143.828   
 40
    3.810
  1
BO
 50
    0.000
  0
TEXT
  8
14
 7
SIMPLEX
 10
57.531    
 20
143.828   
 40
    3.810
  1
Fillet
 50
    0.000
  0
TEXT
  8
14
 7
SIMPLEX
 10
79.629    
 20
143.828   
 40
    3.810
  1
4
 50
    0.000
  0
TEXT
  8
14
 7
SIMPLEX
 10
104.013   
 20
143.828   
 40
    3.810
  1
  1
 50
    0.000
  0
TEXT
  8
14
 7
SIMPLEX
 10
1.143     
 20
138.113   
 40
    3.810
  1
BW1
 50
    0.000
  0
TEXT
  8
14
 7
SIMPLEX
 10
35.433    
 20
138.113   
 40
    3.810
  1
BI
 50
    0.000
  0
TEXT
  8
14
 7
SIMPLEX
 10
57.531    
 20
138.113   
 40
    3.810
  1
Fillet
 50
    0.000
  0
TEXT
  8
14
 7
SIMPLEX
 10
79.629    
 20
138.113   
 40
    3.810
  1
4
 50
    0.000
  0
TEXT
  8
14
 7
SIMPLEX
 10
104.013   
 20
138.113   
 40
    3.810
  1
  1
 50
    0.000
  0
TEXT
  8
14
 7
SIMPLEX
 10
1.143     
 20
132.398   
 40
    3.810
  1
ST1
 50
    0.000
  0
TEXT
  8
14
 7
SIMPLEX
 10
35.433    
 20
132.398   
 40
    3.810
  1
WB
 50
    0.000
  0
TEXT
  8
14
 7
SIMPLEX
 10
57.531    
 20
132.398   
 40
    3.810
  1
Fillet
 50
    0.000
  0
TEXT
  8
14
 7
SIMPLEX
 10
79.629    
 20
132.398   
 40
    3.810
  1
4
 50
    0.000
  0
TEXT
  8
14
 7
SIMPLEX
 10
104.013   
 20
132.398   
 40
    3.810
  1
  2
 50
    0.000
  0
TEXT
  8
14
 7
SIMPLEX
 10
1.143     
 20
126.683   
 40
    3.810
  1
ST1
 50
    0.000
  0
TEXT
  8
14
 7
SIMPLEX
 10
35.433    
 20
126.683   
 40
    3.810
  1
IF
 50
    0.000
  0
TEXT
  8
14
 7
SIMPLEX
 10
57.531    
 20
126.683   
 40
    3.810
  1
Fillet
 50
    0.000
  0
TEXT
  8
14
 7
SIMPLEX
 10
79.629    
 20
126.683   
 40
    3.810
  1
4
 50
    0.000
  0
TEXT
  8
14
 7
SIMPLEX
 10
104.013   
 20
126.683   
 40
    3.810
  1
  2
 50
    0.000
  0
TEXT
  8
14
 7
SIMPLEX
 10
1.143     
 20
120.968   
 40
    3.810
  1
ST2
 50
    0.000
  0
TEXT
  8
14
 7
SIMPLEX
 10
35.433    
 20
120.968   
 40
    3.810
  1
WB
 50
    0.000
  0
TEXT
  8
14
 7
SIMPLEX
 10
57.531    
 20
120.968   
 40
    3.810
  1
Fillet
 50
    0.000
  0
TEXT
  8
14
 7
SIMPLEX
 10
79.629    
 20
120.968   
 40
    3.810
  1
4
 50
    0.000
  0
TEXT
  8
14
 7
SIMPLEX
 10
104.013   
 20
120.968   
 40
    3.810
  1
  2
 50
    0.000
  0
TEXT
  8
14
 7
SIMPLEX
 10
1.143     
 20
115.253   
 40
    3.810
  1
ST2
 50
    0.000
  0
TEXT
  8
14
 7
SIMPLEX
 10
35.433    
 20
115.253   
 40
    3.810
  1
IF
 50
    0.000
  0
TEXT
  8
14
 7
SIMPLEX
 10
57.531    
 20
115.253   
 40
    3.810
  1
Fillet
 50
    0.000
  0
TEXT
  8
14
 7
SIMPLEX
 10
79.629    
 20
115.253   
 40
    3.810
  1
4
 50
    0.000
  0
TEXT
  8
14
 7
SIMPLEX
 10
104.013   
 20
115.253   
 40
    3.810
  1
  2
 50
    0.000
  0
TEXT
  8
14
 7
SIMPLEX
 10
1.143     
 20
109.538   
 40
    3.810
  1
BO2
 50
    0.000
  0
TEXT
  8
14
 7
SIMPLEX
 10
35.433    
 20
109.538   
 40
    3.810
  1
OF1
 50
    0.000
  0
TEXT
  8
14
 7
SIMPLEX
 10
57.531    
 20
109.538   
 40
    3.810
  1
Fillet
 50
    0.000
  0
TEXT
  8
14
 7
SIMPLEX
 10
79.629    
 20
109.538   
 40
    3.810
  1
6
 50
    0.000
  0
TEXT
  8
14
 7
SIMPLEX
 10
104.013   
 20
109.538   
 40
    3.810
  1
  2
 50
    0.000
  0
TEXT
  8
14
 7
SIMPLEX
 10
1.143     
 20
103.823   
 40
    3.810
  1
BI2
 50
    0.000
  0
TEXT
  8
14
 7
SIMPLEX
 10
35.433    
 20
103.823   
 40
    3.810
  1
OF
 50
    0.000
  0
TEXT
  8
14
 7
SIMPLEX
 10
57.531    
 20
103.823   
 40
    3.810
  1
Fillet
 50
    0.000
  0
TEXT
  8
14
 7
SIMPLEX
 10
79.629    
 20
103.823   
 40
    3.810
  1
6
 50
    0.000
  0
TEXT
  8
14
 7
SIMPLEX
 10
104.013   
 20
103.823   
 40
    3.810
  1
  2
 50
    0.000
  0
TEXT
  8
14
 7
SIMPLEX
 10
1.143     
 20
98.108    
 40
    3.810
  1
BW2
 50
    0.000
  0
TEXT
  8
14
 7
SIMPLEX
 10
35.433    
 20
98.108    
 40
    3.810
  1
OF
 50
    0.000
  0
TEXT
  8
14
 7
SIMPLEX
 10
57.531    
 20
98.108    
 40
    3.810
  1
Fillet
 50
    0.000
  0
TEXT
  8
14
 7
SIMPLEX
 10
79.629    
 20
98.108    
 40
    3.810
  1
3
 50
    0.000
  0
TEXT
  8
14
 7
SIMPLEX
 10
104.013   
 20
98.108    
 40
    3.810
  1
  2
 50
    0.000
  0
TEXT
  8
14
 7
SIMPLEX
 10
1.143     
 20
92.393    
 40
    3.810
  1
BW2
 50
    0.000
  0
TEXT
  8
14
 7
SIMPLEX
 10
35.433    
 20
92.393    
 40
    3.810
  1
BE
 50
    0.000
  0
TEXT
  8
14
 7
SIMPLEX
 10
57.531    
 20
92.393    
 40
    3.810
  1
Fillet
 50
    0.000
  0
TEXT
  8
14
 7
SIMPLEX
 10
79.629    
 20
92.393    
 40
    3.810
  1
4
 50
    0.000
  0
TEXT
  8
14
 7
SIMPLEX
 10
104.013   
 20
92.393    
 40
    3.810
  1
  1
 50
    0.000
  0
TEXT
  8
14
 7
SIMPLEX
 10
1.143     
 20
86.678    
 40
    3.810
  1
BO2
 50
    0.000
  0
TEXT
  8
14
 7
SIMPLEX
 10
35.433    
 20
86.678    
 40
    3.810
  1
BE
 50
    0.000
  0
TEXT
  8
14
 7
SIMPLEX
 10
57.531    
 20
86.678    
 40
    3.810
  1
Fillet
 50
    0.000
  0
TEXT
  8
14
 7
SIMPLEX
 10
79.629    
 20
86.678    
 40
    3.810
  1
4
 50
    0.000
  0
TEXT
  8
14
 7
SIMPLEX
 10
104.013   
 20
86.678    
 40
    3.810
  1
  1
 50
    0.000
  0
TEXT
  8
14
 7
SIMPLEX
 10
1.143     
 20
80.963    
 40
    3.810
  1
BI2
 50
    0.000
  0
TEXT
  8
14
 7
SIMPLEX
 10
35.433    
 20
80.963    
 40
    3.810
  1
BE
 50
    0.000
  0
TEXT
  8
14
 7
SIMPLEX
 10
57.531    
 20
80.963    
 40
    3.810
  1
Fillet
 50
    0.000
  0
TEXT
  8
14
 7
SIMPLEX
 10
79.629    
 20
80.963    
 40
    3.810
  1
4
 50
    0.000
  0
TEXT
  8
14
 7
SIMPLEX
 10
104.013   
 20
80.963    
 40
    3.810
  1
  1
 50
    0.000
  0
TEXT
  8
14
 7
SIMPLEX
 10
1.143     
 20
75.248    
 40
    3.810
  1
BW2
 50
    0.000
  0
TEXT
  8
14
 7
SIMPLEX
 10
35.433    
 20
75.248    
 40
    3.810
  1
BI
 50
    0.000
  0
TEXT
  8
14
 7
SIMPLEX
 10
57.531    
 20
75.248    
 40
    3.810
  1
Fillet
 50
    0.000
  0
TEXT
  8
14
 7
SIMPLEX
 10
79.629    
 20
75.248    
 40
    3.810
  1
4
 50
    0.000
  0
TEXT
  8
14
 7
SIMPLEX
 10
104.013   
 20
75.248    
 40
    3.810
  1
  1
 50
    0.000
  0
TEXT
  8
14
 7
SIMPLEX
 10
1.143     
 20
69.533    
 40
    3.810
  1
BW2
 50
    0.000
  0
TEXT
  8
14
 7
SIMPLEX
 10
35.433    
 20
69.533    
 40
    3.810
  1
BO
 50
    0.000
  0
TEXT
  8
14
 7
SIMPLEX
 10
57.531    
 20
69.533    
 40
    3.810
  1
Fillet
 50
    0.000
  0
TEXT
  8
14
 7
SIMPLEX
 10
79.629    
 20
69.533    
 40
    3.810
  1
4
 50
    0.000
  0
TEXT
  8
14
 7
SIMPLEX
 10
104.013   
 20
69.533    
 40
    3.810
  1
  1
 50
    0.000
  0
TEXT
  8
14
 7
SIMPLEX
 10
1.143     
 20
63.818    
 40
    3.810
  1
SS2
 50
    0.000
  0
TEXT
  8
14
 7
SIMPLEX
 10
35.433    
 20
63.818    
 40
    3.810
  1
OF
 50
    0.000
  0
TEXT
  8
14
 7
SIMPLEX
 10
57.531    
 20
63.818    
 40
    3.810
  1
Fillet
 50
    0.000
  0
TEXT
  8
14
 7
SIMPLEX
 10
79.629    
 20
63.818    
 40
    3.810
  1
4
 50
    0.000
  0
TEXT
  8
14
 7
SIMPLEX
 10
104.013   
 20
63.818    
 40
    3.810
  1
  2
 50
    0.000
  0
TEXT
  8
14
 7
SIMPLEX
 10
1.143     
 20
58.103    
 40
    3.810
  1
SS2
 50
    0.000
  0
TEXT
  8
14
 7
SIMPLEX
 10
35.433    
 20
58.103    
 40
    3.810
  1
EP
 50
    0.000
  0
TEXT
  8
14
 7
SIMPLEX
 10
57.531    
 20
58.103    
 40
    3.810
  1
Fillet
 50
    0.000
  0
TEXT
  8
14
 7
SIMPLEX
 10
79.629    
 20
58.103    
 40
    3.810
  1
6
 50
    0.000
  0
TEXT
  8
14
 7
SIMPLEX
 10
104.013   
 20
58.103    
 40
    3.810
  1
  2
 50
    0.000
  0
TEXT
  8
14
 7
SIMPLEX
 10
1.143     
 20
52.388    
 40
    3.810
  1
SS3
 50
    0.000
  0
TEXT
  8
14
 7
SIMPLEX
 10
35.433    
 20
52.388    
 40
    3.810
  1
IF
 50
    0.000
  0
TEXT
  8
14
 7
SIMPLEX
 10
57.531    
 20
52.388    
 40
    3.810
  1
Fillet
 50
    0.000
  0
TEXT
  8
14
 7
SIMPLEX
 10
79.629    
 20
52.388    
 40
    3.810
  1
4
 50
    0.000
  0
TEXT
  8
14
 7
SIMPLEX
 10
104.013   
 20
52.388    
 40
    3.810
  1
  2
 50
    0.000
  0
TEXT
  8
14
 7
SIMPLEX
 10
1.143     
 20
46.673    
 40
    3.810
  1
SS3
 50
    0.000
  0
TEXT
  8
14
 7
SIMPLEX
 10
35.433    
 20
46.673    
 40
    3.810
  1
EP
 50
    0.000
  0
TEXT
  8
14
 7
SIMPLEX
 10
57.531    
 20
46.673    
 40
    3.810
  1
Fillet
 50
    0.000
  0
TEXT
  8
14
 7
SIMPLEX
 10
79.629    
 20
46.673    
 40
    3.810
  1
6
 50
    0.000
  0
TEXT
  8
14
 7
SIMPLEX
 10
104.013   
 20
46.673    
 40
    3.810
  1
  2
 50
    0.000
  0
TEXT
  8
14
 7
SIMPLEX
 10
1.143     
 20
40.958    
 40
    3.810
  1
CLF1
 50
    0.000
  0
TEXT
  8
14
 7
SIMPLEX
 10
35.433    
 20
40.958    
 40
    3.810
  1
WB
 50
    0.000
  0
TEXT
  8
14
 7
SIMPLEX
 10
57.531    
 20
40.958    
 40
    3.810
  1
Fillet
 50
    0.000
  0
TEXT
  8
14
 7
SIMPLEX
 10
79.629    
 20
40.958    
 40
    3.810
  1
4
 50
    0.000
  0
TEXT
  8
14
 7
SIMPLEX
 10
104.013   
 20
40.958    
 40
    3.810
  1
  1
 50
    0.000
  0
TEXT
  8
14
 7
SIMPLEX
 10
1.143     
 20
35.243    
 40
    3.810
  1
CLF1
 50
    0.000
  0
TEXT
  8
14
 7
SIMPLEX
 10
35.433    
 20
35.243    
 40
    3.810
  1
IF
 50
    0.000
  0
TEXT
  8
14
 7
SIMPLEX
 10
57.531    
 20
35.243    
 40
    3.810
  1
Fillet
 50
    0.000
  0
TEXT
  8
14
 7
SIMPLEX
 10
79.629    
 20
35.243    
 40
    3.810
  1
4
 50
    0.000
  0
TEXT
  8
14
 7
SIMPLEX
 10
104.013   
 20
35.243    
 40
    3.810
  1
  1
 50
    0.000
  0
TEXT
  8
14
 7
SIMPLEX
 10
1.143     
 20
29.528    
 40
    3.810
  1
CLF3
 50
    0.000
  0
TEXT
  8
14
 7
SIMPLEX
 10
35.433    
 20
29.528    
 40
    3.810
  1
OF1
 50
    0.000
  0
TEXT
  8
14
 7
SIMPLEX
 10
57.531    
 20
29.528    
 40
    3.810
  1
Fillet
 50
    0.000
  0
TEXT
  8
14
 7
SIMPLEX
 10
79.629    
 20
29.528    
 40
    3.810
  1
4
 50
    0.000
  0
TEXT
  8
14
 7
SIMPLEX
 10
104.013   
 20
29.528    
 40
    3.810
  1
  1
 50
    0.000
  0
TEXT
  8
14
 7
SIMPLEX
 10
1.143     
 20
23.813    
 40
    3.810
  1
 GC41-01
 50
    0.000
  0
TEXT
  8
14
 7
SIMPLEX
 10
35.433    
 20
23.813    
 40
    3.810
  1
IF
 50
    0.000
  0
TEXT
  8
14
 7
SIMPLEX
 10
57.531    
 20
23.813    
 40
    3.810
  1
Fillet
 50
    0.000
  0
TEXT
  8
14
 7
SIMPLEX
 10
79.629    
 20
23.813    
 40
    3.810
  1
4
 50
    0.000
  0
TEXT
  8
14
 7
SIMPLEX
 10
104.013   
 20
23.813    
 40
    3.810
  1
  1
 50
    0.000
  0
TEXT
  8
14
 7
SIMPLEX
 10
1.143     
 20
18.098    
 40
    3.810
  1
SS4
 50
    0.000
  0
TEXT
  8
14
 7
SIMPLEX
 10
35.433    
 20
18.098    
 40
    3.810
  1
EP
 50
    0.000
  0
TEXT
  8
14
 7
SIMPLEX
 10
57.531    
 20
18.098    
 40
    3.810
  1
Fillet
 50
    0.000
  0
TEXT
  8
14
 7
SIMPLEX
 10
79.629    
 20
18.098    
 40
    3.810
  1
4
 50
    0.000
  0
TEXT
  8
14
 7
SIMPLEX
 10
104.013   
 20
18.098    
 40
    3.810
  1
  1
 50
    0.000
  0
TEXT
  8
14
 7
SIMPLEX
 10
1.143     
 20
12.383    
 40
    3.810
  1
SS4
 50
    0.000
  0
TEXT
  8
14
 7
SIMPLEX
 10
35.433    
 20
12.383    
 40
    3.810
  1
OF1
 50
    0.000
  0
TEXT
  8
14
 7
SIMPLEX
 10
57.531    
 20
12.383    
 40
    3.810
  1
Fillet
 50
    0.000
  0
TEXT
  8
14
 7
SIMPLEX
 10
79.629    
 20
12.383    
 40
    3.810
  1
4
 50
    0.000
  0
TEXT
  8
14
 7
SIMPLEX
 10
104.013   
 20
12.383    
 40
    3.810
  1
  1
 50
    0.000
  0
TEXT
  8
14
 7
SIMPLEX
 10
1.143     
 20
6.668     
 40
    3.810
  1
SS5
 50
    0.000
  0
TEXT
  8
14
 7
SIMPLEX
 10
35.433    
 20
6.668     
 40
    3.810
  1
EP
 50
    0.000
  0
TEXT
  8
14
 7
SIMPLEX
 10
57.531    
 20
6.668     
 40
    3.810
  1
Fillet
 50
    0.000
  0
TEXT
  8
14
 7
SIMPLEX
 10
79.629    
 20
6.668     
 40
    3.810
  1
4
 50
    0.000
  0
TEXT
  8
14
 7
SIMPLEX
 10
104.013   
 20
6.668     
 40
    3.810
  1
  1
 50
    0.000
  0
TEXT
  8
14
 7
SIMPLEX
 10
1.143     
 20
0.953     
 40
    3.810
  1
SS5
 50
    0.000
  0
TEXT
  8
14
 7
SIMPLEX
 10
35.433    
 20
0.953     
 40
    3.810
  1
IF
 50
    0.000
  0
TEXT
  8
14
 7
SIMPLEX
 10
57.531    
 20
0.953     
 40
    3.810
  1
Fillet
 50
    0.000
  0
TEXT
  8
14
 7
SIMPLEX
 10
79.629    
 20
0.953     
 40
    3.810
  1
4
 50
    0.000
  0
TEXT
  8
14
 7
SIMPLEX
 10
104.013   
 20
0.953     
 40
    3.810
  1
  1
 50
    0.000
  0
ENDBLK
  8
0
999
START:   BLOCK=ARROWD
  0
BLOCK
  8
2
  2
ARROWD
 70
     0
 10
    0.000
 20
    0.000
  0
LINE
  8
2
 10
   -0.635
 20
   -0.635
 11
    0.635
 21
    0.635
  0
ENDBLK
  8
2
999
END:     BLOCK=ARROWD
999
START:   BLOCK=GC-1
999
BLOCK_SIZE:   BLOCK=GC-1     Width= 50.8000 Height= 50.8000
  0
BLOCK
  8
2
  2
GC-1
 70
     0
 10
    0.000
 20
    0.000
  0
LINE
  8
1
 10
    0.000
 20
    0.000
 11
   50.800
 21
    0.000
  0
LINE
  8
1
 10
   50.800
 20
    0.000
 11
   50.800
 21
   50.800
  0
LINE
  8
1
 10
   50.800
 20
   50.800
 11
    0.000
 21
   50.800
  0
LINE
  8
1
 10
    0.000
 20
   50.800
 11
    0.000
 21
    0.000
  0
LINE
  8
13
 10
   33.020
 20
   36.830
 11
   12.700
 21
   36.830
  0
LINE
  8
13
 10
   33.020
 20
   36.830
 11
   33.020
 21
   19.050
  0
LINE
  8
13
 10
   12.700
 20
   36.830
 11
   12.700
 21
   19.050
  0
LINE
  8
13
 10
   33.020
 20
   19.050
 11
   12.700
 21
   19.050
  0
CIRCLE
  8
6
 10
    16.087
 20
    34.662
 40
     0.508
  0
CIRCLE
  8
6
 10
    29.633
 20
    34.662
 40
     0.508
  0
LINE
  8
2
 10
   36.068
 20
   36.830
 11
   37.592
 21
   36.830
  0
INSERT
  8
2
  2
ARROWD
 10
   36.830
 20
   36.830
 41
   1.000
 42
   1.000
 43
   1.000
 50
  90.000
  0
LINE
  8
2
 10
   36.068
 20
   34.662
 11
   37.592
 21
   34.662
  0
INSERT
  8
2
  2
ARROWD
 10
   36.830
 20
   34.662
 41
   1.000
 42
   1.000
 43
   1.000
 50
 -90.000
  0
LINE
  8
2
 10
   36.830
 20
   36.830
 11
   36.830
 21
   34.662
  0
TEXT
  8
11
 7
SIMPLEX
 10
   37.793
 20
   34.782
 40
    1.927
  1
25
 50
    0.000
  0
CIRCLE
  8
6
 10
    16.087
 20
    25.989
 40
     0.508
  0
CIRCLE
  8
6
 10
    29.633
 20
    25.989
 40
     0.508
  0
LINE
  8
2
 10
   36.068
 20
   34.662
 11
   37.592
 21
   34.662
  0
INSERT
  8
2
  2
ARROWD
 10
   36.830
 20
   34.662
 41
   1.000
 42
   1.000
 43
   1.000
 50
  90.000
  0
LINE
  8
2
 10
   36.068
 20
   25.989
 11
   37.592
 21
   25.989
  0
INSERT
  8
2
  2
ARROWD
 10
   36.830
 20
   25.989
 41
   1.000
 42
   1.000
 43
   1.000
 50
 -90.000
  0
LINE
  8
2
 10
   36.830
 20
   34.662
 11
   36.830
 21
   25.989
  0
TEXT
  8
11
 7
SIMPLEX
 10
   37.793
 20
   29.362
 40
    1.927
  1
100
 50
    0.000
  0
INSERT
  8
2
  2
ARROWD
 10
   36.830
 20
   25.989
 41
   1.000
 42
   1.000
 43
   1.000
 50
 -90.000
  0
LINE
  8
2
 10
   36.068
 20
   19.050
 11
   37.592
 21
   19.050
  0
INSERT
  8
2
  2
ARROWD
 10
   36.830
 20
   19.050
 41
   1.000
 42
   1.000
 43
   1.000
 50
 -90.000
  0
LINE
  8
2
 10
   36.830
 20
   25.989
 11
   36.830
 21
   19.050
  0
TEXT
  8
11
 7
SIMPLEX
 10
   37.793
 20
   21.556
 40
    1.927
  1
80
 50
    0.000
  0
LINE
  8
2
 10
   12.700
 20
   38.608
 11
   12.700
 21
   40.132
  0
INSERT
  8
2
  2
ARROWD
 10
   12.700
 20
   39.370
 41
   1.000
 42
   1.000
 43
   1.000
 50
 180.000
  0
LINE
  8
2
 10
   16.087
 20
   38.608
 11
   16.087
 21
   40.132
  0
INSERT
  8
2
  2
ARROWD
 10
   16.087
 20
   39.370
 41
   1.000
 42
   1.000
 43
   1.000
 50
   0.000
  0
LINE
  8
2
 10
   12.700
 20
   39.370
 11
   16.087
 21
   39.370
  0
TEXT
  8
11
 7
SIMPLEX
 10
   13.430
 20
   40.333
 40
    1.927
  1
25
 50
    0.000
  0
INSERT
  8
2
  2
ARROWD
 10
   16.087
 20
   39.370
 41
   1.000
 42
   1.000
 43
   1.000
 50
 180.000
  0
LINE
  8
2
 10
   16.087
 20
   38.608
 11
   16.087
 21
   40.132
  0
INSERT
  8
2
  2
ARROWD
 10
   29.633
 20
   39.370
 41
   1.000
 42
   1.000
 43
   1.000
 50
   0.000
  0
LINE
  8
2
 10
   29.633
 20
   39.370
 11
   16.087
 21
   39.370
  0
TEXT
  8
11
 7
SIMPLEX
 10
   21.897
 20
   40.333
 40
    1.927
  1
100
 50
    0.000
  0
LINE
  8
2
 10
   29.633
 20
   39.370
 11
   33.020
 21
   39.370
  0
LINE
  8
2
 10
   29.633
 20
   38.608
 11
   29.633
 21
   40.132
  0
INSERT
  8
2
  2
ARROWD
 10
   29.633
 20
   39.370
 41
   1.000
 42
   1.000
 43
   1.000
 50
 180.000
  0
INSERT
  8
2
  2
ARROWD
 10
   33.020
 20
   39.370
 41
   1.000
 42
   1.000
 43
   1.000
 50
   0.000
  0
LINE
  8
2
 10
   33.020
 20
   38.608
 11
   33.020
 21
   40.132
  0
TEXT
  8
11
 7
SIMPLEX
 10
   30.363
 20
   40.333
 40
    1.927
  1
25
 50
    0.000
  0
LINE
  8
3
 10
   10.160
 20
   18.796
 11
   35.560
 21
   18.796
  0
LINE
  8
3
 10
   10.160
 20
   17.272
 11
   35.560
 21
   17.272
  0
LINE
  8
3
 10
   10.160
 20
   17.272
 11
   10.160
 21
   18.796
  0
LINE
  8
3
 10
   35.560
 20
   17.272
 11
   35.560
 21
   18.796
  0
LINE
  8
3
 10
   22.098
 20
   14.732
 11
   22.098
 21
   17.272
  0
LINE
  8
3
 10
   23.622
 20
   13.462
 11
   23.622
 21
   17.272
  0
TEXT
  8
21
 7
SIMPLEX
 10
    0.963
 20
   45.019
 40
    1.927
  1
D= 14
 50
    0.000
  0
TEXT
  8
2
 7
SIMPLEX
 10
    0.963
 20
   47.910
 40
    1.927
  1
CLF3
 50
    0.000
  0
TEXT
  8
2
 7
SIMPLEX
 10
    0.963
 20
    0.963
 40
    1.927
  1
5 x 150 x 205
 50
    0.000
  0
ENDBLK
  8
2
999
END:     BLOCK=GC-1
999
START:   BLOCK=GC-51
999
BLOCK_SIZE:   BLOCK=GC-51    Width= 50.8000 Height= 50.8000
  0
BLOCK
  8
2
  2
GC-51
 70
     0
 10
    0.000
 20
    0.000
  0
LINE
  8
1
 10
    0.000
 20
    0.000
 11
   50.800
 21
    0.000
  0
LINE
  8
1
 10
   50.800
 20
    0.000
 11
   50.800
 21
   50.800
  0
LINE
  8
1
 10
   50.800
 20
   50.800
 11
    0.000
 21
   50.800
  0
LINE
  8
1
 10
    0.000
 20
   50.800
 11
    0.000
 21
    0.000
  0
LINE
  8
13
 10
   33.020
 20
   36.830
 11
   12.700
 21
   36.830
  0
LINE
  8
13
 10
   33.020
 20
   36.830
 11
   33.020
 21
   19.050
  0
LINE
  8
13
 10
   12.700
 20
   36.830
 11
   12.700
 21
   19.050
  0
LINE
  8
13
 10
   33.020
 20
   19.050
 11
   12.700
 21
   19.050
  0
CIRCLE
  8
6
 10
    16.087
 20
    24.977
 40
     0.508
  0
CIRCLE
  8
6
 10
    29.633
 20
    24.977
 40
     0.508
  0
LINE
  8
2
 10
   36.068
 20
   36.830
 11
   37.592
 21
   36.830
  0
INSERT
  8
2
  2
ARROWD
 10
   36.830
 20
   36.830
 41
   1.000
 42
   1.000
 43
   1.000
 50
  90.000
  0
LINE
  8
2
 10
   36.068
 20
   24.977
 11
   37.592
 21
   24.977
  0
INSERT
  8
2
  2
ARROWD
 10
   36.830
 20
   24.977
 41
   1.000
 42
   1.000
 43
   1.000
 50
 -90.000
  0
LINE
  8
2
 10
   36.830
 20
   36.830
 11
   36.830
 21
   24.977
  0
TEXT
  8
11
 7
SIMPLEX
 10
   37.793
 20
   29.940
 40
    1.927
  1
100
 50
    0.000
  0
INSERT
  8
2
  2
ARROWD
 10
   36.830
 20
   24.977
 41
   1.000
 42
   1.000
 43
   1.000
 50
 -90.000
  0
LINE
  8
2
 10
   36.068
 20
   19.050
 11
   37.592
 21
   19.050
  0
INSERT
  8
2
  2
ARROWD
 10
   36.830
 20
   19.050
 41
   1.000
 42
   1.000
 43
   1.000
 50
 -90.000
  0
LINE
  8
2
 10
   36.830
 20
   24.977
 11
   36.830
 21
   19.050
  0
TEXT
  8
11
 7
SIMPLEX
 10
   37.793
 20
   21.050
 40
    1.927
  1
50
 50
    0.000
  0
LINE
  8
2
 10
   12.700
 20
   17.272
 11
   12.700
 21
   15.748
  0
INSERT
  8
2
  2
ARROWD
 10
   12.700
 20
   16.510
 41
   1.000
 42
   1.000
 43
   1.000
 50
 180.000
  0
LINE
  8
2
 10
   16.087
 20
   17.272
 11
   16.087
 21
   15.748
  0
INSERT
  8
2
  2
ARROWD
 10
   16.087
 20
   16.510
 41
   1.000
 42
   1.000
 43
   1.000
 50
   0.000
  0
LINE
  8
2
 10
   12.700
 20
   16.510
 11
   16.087
 21
   16.510
  0
TEXT
  8
11
 7
SIMPLEX
 10
   13.430
 20
   13.620
 40
    1.927
  1
50
 50
    0.000
  0
INSERT
  8
2
  2
ARROWD
 10
   16.087
 20
   16.510
 41
   1.000
 42
   1.000
 43
   1.000
 50
 180.000
  0
LINE
  8
2
 10
   16.087
 20
   17.272
 11
   16.087
 21
   15.748
  0
INSERT
  8
2
  2
ARROWD
 10
   29.633
 20
   16.510
 41
   1.000
 42
   1.000
 43
   1.000
 50
   0.000
  0
LINE
  8
2
 10
   29.633
 20
   16.510
 11
   16.087
 21
   16.510
  0
TEXT
  8
11
 7
SIMPLEX
 10
   21.897
 20
   13.620
 40
    1.927
  1
200
 50
    0.000
  0
LINE
  8
2
 10
   29.633
 20
   16.510
 11
   33.020
 21
   16.510
  0
LINE
  8
2
 10
   29.633
 20
   17.272
 11
   29.633
 21
   15.748
  0
INSERT
  8
2
  2
ARROWD
 10
   29.633
 20
   16.510
 41
   1.000
 42
   1.000
 43
   1.000
 50
 180.000
  0
INSERT
  8
2
  2
ARROWD
 10
   33.020
 20
   16.510
 41
   1.000
 42
   1.000
 43
   1.000
 50
   0.000
  0
LINE
  8
2
 10
   33.020
 20
   17.272
 11
   33.020
 21
   15.748
  0
TEXT
  8
11
 7
SIMPLEX
 10
   30.363
 20
   13.620
 40
    1.927
  1
50
 50
    0.000
  0
LINE
  8
3
 10
   10.160
 20
   37.084
 11
   35.560
 21
   37.084
  0
LINE
  8
3
 10
   10.160
 20
   38.608
 11
   35.560
 21
   38.608
  0
LINE
  8
3
 10
   10.160
 20
   38.608
 11
   10.160
 21
   37.084
  0
LINE
  8
3
 10
   35.560
 20
   38.608
 11
   35.560
 21
   37.084
  0
LINE
  8
3
 10
   22.098
 20
   41.148
 11
   22.098
 21
   38.608
  0
LINE
  8
3
 10
   23.622
 20
   42.418
 11
   23.622
 21
   38.608
  0
TEXT
  8
21
 7
SIMPLEX
 10
    0.963
 20
   45.019
 40
    1.927
  1
D= 22
 50
    0.000
  0
TEXT
  8
2
 7
SIMPLEX
 10
    0.963
 20
   47.910
 40
    1.927
  1
GC41-01
 50
    0.000
  0
TEXT
  8
2
 7
SIMPLEX
 10
    0.963
 20
    0.963
 40
    1.927
  1
8 x 300 x 150
 50
    0.000
  0
ENDBLK
  8
2
999
END:     BLOCK=GC-51
  0
ENDSEC
  0
SECTION
  2
ENTITIES
  0
LINE
  8
22
 10
0.000     
 20
0.000     
 11
841.000   
 21
0.000     
  0
LINE
  8
22
 10
841.000   
 20
0.000     
 11
841.000   
 21
594.000   
  0
LINE
  8
22
 10
841.000   
 20
594.000   
 11
0.000     
 21
594.000   
  0
LINE
  8
22
 10
0.000     
 20
594.000   
 11
0.000     
 21
0.000     
  0
INSERT
  8
0
  2
ASMPIECE
 10
43.000    
 20
292.000   
 41
   0.087
 42
   0.087
 43
   0.087
 50
   0.000
  0
INSERT
  8
0
  2
ASMBASE
 10
0.000     
 20
519.000   
 41
   2.953
 42
   2.953
 43
   2.953
 50
   0.000
  0
INSERT
  8
0
  2
ASMPLATE
 10
0.000     
 20
0.000     
 41
   1.000
 42
   1.000
 43
   1.000
 50
   0.000
  0
INSERT
  8
0
  2
ASMTITLE
 10
703.840   
 20
0.000     
 41
   1.500
 42
   1.500
 43
   1.500
 50
   0.000
  0
INSERT
  8
0
  2
ASMSECTN
 10
225.000   
 20
430.000   
 41
   1.240
 42
   1.240
 43
   1.240
 50
   0.000
  0
INSERT
  8
0
  2
ASMSECT2
 10
390.020   
 20
19.050    
 41
   0.900
 42
   0.900
 43
   0.900
 50
   0.000
  0
INSERT
  8
0
  2
ASMBOLT
 10
385.000   
 20
40.000    
 41
   0.984
 42
   0.984
 43
   0.984
 50
   0.000
  0
INSERT
  8
0
  2
ASMVIEW
 10
225.000   
 20
385.000   
 41
   0.984
 42
   0.984
 43
   0.984
 50
   0.000
  0
INSERT
  8
0
  2
ASM_WELD
 10
764.269   
 20
594.000   
 41
   0.984
 42
   0.984
 43
   0.984
 50
   0.000
  0
INSERT
  8
0
  2
GC-1
 10
221.457   
 20
519.000   
 41
   1.476
 42
   1.476
 43
   1.476
 50
   0.000
  0
INSERT
  8
0
  2
GC-51
 10
296.457   
 20
519.000   
 41
   1.476
 42
   1.476
 43
   1.476
 50
   0.000
  0
ENDSEC
  0
EOF
