999
SOURCE:MBS   PROGRAM:DETAILDXF   CELL:DETAILDXF   CLASS:SHOP   MODE:---
  0
SECTION
  2
HEADER
  9
$EXTMIN
 10
   0.000
 20
   0.000
  9
$EXTMAX
 10
 841.000
 20
 594.000
  9
$LIMMIN
 10
   0.000
 20
   0.000
  9
$LIMMAX
 10
 841.000
 20
 594.000
  9
$HANDLING
 70
     0
  0
ENDSEC
  0
SECTION
  2
TABLES
  0
TABLE
  2
LTYPE
 70
     3
  0
LTYPE
  2
CONTIN
 70
    64
  3
SOLID LINE
 72
    65
 73
     0
 40
0.0
  0
LTYPE
  2
CENTER
 70
    64
  3
____ _ ____ _ ____ _ ____ _ ____ _ ____ _ ____
 72
    65
 73
     4
 40
2.0
 49
1.25
 49
-0.25
 49
0.25
 49
-0.25
  0
LTYPE
  2
DASHED
 70
    64
  3
__ __ __ __ __ __ __ __ __ __ __ __ __ __ __ 
 72
    65
 73
     2
 40
2.3812
 49
1.5875
 49
-0.7937
  0
ENDTAB
  0
TABLE
  2
LAYER
 70
    26
  0
LAYER
  2
0
 70
     0
 62
     7
  6
7
  0
LAYER
  2
1
 70
     0
 62
     7
  6
CONTIN
  0
LAYER
  2
2
 70
     0
 62
     7
  6
CONTIN
  0
LAYER
  2
3
 70
     0
 62
     1
  6
1
  0
LAYER
  2
4
 70
     0
 62
     1
  6
CONTIN
  0
LAYER
  2
5
 70
     0
 62
     7
  6
CONTIN
  0
LAYER
  2
6
 70
     0
 62
     4
  6
3
  0
LAYER
  2
7
 70
     0
 62
     3
  6
DASHED
  0
LAYER
  2
8
 70
     0
 62
     3
  6
CONTIN
  0
LAYER
  2
9
 70
     0
 62
     7
  6
7
  0
LAYER
  2
10
 70
     0
 62
     7
  6
CONTIN
  0
LAYER
  2
11
 70
     0
 62
     7
  6
CONTIN
  0
LAYER
  2
12
 70
     0
 62
     2
  6
2
  0
LAYER
  2
13
 70
     0
 62
     2
  6
CONTIN
  0
LAYER
  2
14
 70
     0
 62
     7
  6
CONTIN
  0
LAYER
  2
15
 70
     0
 62
     6
  6
7
  0
LAYER
  2
16
 70
     0
 62
     7
  6
CONTIN
  0
LAYER
  2
17
 70
     0
 62
     7
  6
CONTIN
  0
LAYER
  2
18
 70
     0
 62
     4
  6
7
  0
LAYER
  2
19
 70
     0
 62
     7
  6
CONTIN
  0
LAYER
  2
20
 70
     0
 62
     7
  6
CONTIN
  0
LAYER
  2
21
 70
     0
 62
     7
  6
CONTIN
  0
LAYER
  2
22
 70
     0
 62
     7
  6
CONTIN
  0
LAYER
  2
23
 70
     0
 62
     7
  6
CONTIN
  0
LAYER
  2
24
 70
     0
 62
     7
  6
CONTIN
  0
LAYER
  2
25
 70
     0
 62
     7
  6
CONTIN
  0
ENDTAB
  0
TABLE
  2
STYLE
 70
  0
  0
STYLE
  2
SIMPLEX
 70
  0
 40
  0.000
 41
  1.000
 42
  1.000
 50
  0.000
 71
  0
  3
SIMPLEX
  0
STYLE
  2
ROMANS
 70
  0
 40
  0.000
 41
  1.000
 42
  1.000
 50
  0.000
 71
  0
  3
ROMANS
  0
STYLE
  2
OPEN
 70
  0
 40
  0.000
 41
  1.000
 42
  1.000
 50
  0.000
 71
  0
  3
SIMPLEX
  0
STYLE
  2
ARIAL
 70
  0
 40
  0.000
 41
  1.000
 42
  1.000
 50
  0.000
 71
  0
  3
ARIAL.TTF
  0
STYLE
  2
VERDANAB
 70
  0
 40
  0.000
 41
  1.000
 42
  1.000
 50
  0.000
 71
  0
  3
VERDANAB.TTF
  0
ENDTAB
  0
ENDSEC
  0
SECTION
  2
BLOCKS
999
START:   BLOCK=ARROWD
  0
BLOCK
  8
2
  2
ARROWD
 70
     0
 10
    0.000
 20
    0.000
  0
LINE
  8
2
 10
   -0.635
 20
   -0.635
 11
    0.635
 21
    0.635
  0
ENDBLK
  8
2
999
END:     BLOCK=ARROWD
999
START:   BLOCK=PC-21
999
BLOCK_SIZE:   BLOCK=PC-21    Width= 50.8000 Height= 50.8000
  0
BLOCK
  8
2
  2
PC-21
 70
     0
 10
    0.000
 20
    0.000
  0
LINE
  8
1
 10
    0.000
 20
    0.000
 11
   50.800
 21
    0.000
  0
LINE
  8
1
 10
   50.800
 20
    0.000
 11
   50.800
 21
   50.800
  0
LINE
  8
1
 10
   50.800
 20
   50.800
 11
    0.000
 21
   50.800
  0
LINE
  8
1
 10
    0.000
 20
   50.800
 11
    0.000
 21
    0.000
  0
LINE
  8
13
 10
   33.020
 20
   36.830
 11
   12.700
 21
   36.830
  0
LINE
  8
13
 10
   33.020
 20
   36.830
 11
   33.020
 21
   19.050
  0
LINE
  8
13
 10
   12.700
 20
   36.830
 11
   12.700
 21
   19.050
  0
LINE
  8
13
 10
   33.020
 20
   19.050
 11
   12.700
 21
   19.050
  0
CIRCLE
  8
6
 10
    24.553
 20
    32.385
 40
     0.508
  0
CIRCLE
  8
6
 10
    24.553
 20
    23.495
 40
     0.508
  0
LINE
  8
2
 10
   12.700
 20
   16.002
 11
   12.700
 21
   14.478
  0
INSERT
  8
2
  2
ARROWD
 10
   12.700
 20
   15.240
 41
   1.000
 42
   1.000
 43
   1.000
 50
 180.000
  0
LINE
  8
2
 10
   24.553
 20
   16.002
 11
   24.553
 21
   14.478
  0
INSERT
  8
2
  2
ARROWD
 10
   24.553
 20
   15.240
 41
   1.000
 42
   1.000
 43
   1.000
 50
   0.000
  0
LINE
  8
2
 10
   12.700
 20
   15.240
 11
   24.553
 21
   15.240
  0
TEXT
  8
11
 7
SIMPLEX
 10
   17.663
 20
   11.080
 40
    1.927
  1
70
 50
    0.000
  0
INSERT
  8
2
  2
ARROWD
 10
   24.553
 20
   15.240
 41
   1.000
 42
   1.000
 43
   1.000
 50
 180.000
  0
LINE
  8
2
 10
   33.020
 20
   16.002
 11
   33.020
 21
   14.478
  0
INSERT
  8
2
  2
ARROWD
 10
   33.020
 20
   15.240
 41
   1.000
 42
   1.000
 43
   1.000
 50
   0.000
  0
LINE
  8
2
 10
   24.553
 20
   15.240
 11
   33.020
 21
   15.240
  0
TEXT
  8
11
 7
SIMPLEX
 10
   27.823
 20
   11.080
 40
    1.927
  1
50
 50
    0.000
  0
LINE
  8
2
 10
   37.338
 20
   32.385
 11
   38.862
 21
   32.385
  0
INSERT
  8
2
  2
ARROWD
 10
   38.100
 20
   32.385
 41
   1.000
 42
   1.000
 43
   1.000
 50
 -90.000
  0
LINE
  8
2
 10
   37.338
 20
   36.830
 11
   38.862
 21
   36.830
  0
INSERT
  8
2
  2
ARROWD
 10
   38.100
 20
   36.830
 41
   1.000
 42
   1.000
 43
   1.000
 50
  90.000
  0
TEXT
  8
11
 7
SIMPLEX
 10
   39.063
 20
   33.348
 40
    1.927
  1
38
 50
    0.000
  0
LINE
  8
2
 10
   38.100
 20
   36.830
 11
   38.100
 21
   32.385
  0
INSERT
  8
2
  2
ARROWD
 10
   38.100
 20
   32.385
 41
   1.000
 42
   1.000
 43
   1.000
 50
  90.000
  0
LINE
  8
2
 10
   37.338
 20
   23.495
 11
   38.862
 21
   23.495
  0
INSERT
  8
2
  2
ARROWD
 10
   38.100
 20
   23.495
 41
   1.000
 42
   1.000
 43
   1.000
 50
 -90.000
  0
LINE
  8
2
 10
   38.100
 20
   32.385
 11
   38.100
 21
   23.495
  0
TEXT
  8
11
 7
SIMPLEX
 10
   39.063
 20
   27.125
 40
    1.927
  1
75
 50
    0.000
  0
LINE
  8
2
 10
   37.338
 20
   19.050
 11
   38.862
 21
   19.050
  0
INSERT
  8
2
  2
ARROWD
 10
   38.100
 20
   23.495
 41
   1.000
 42
   1.000
 43
   1.000
 50
  90.000
  0
INSERT
  8
2
  2
ARROWD
 10
   38.100
 20
   19.050
 41
   1.000
 42
   1.000
 43
   1.000
 50
 -90.000
  0
LINE
  8
2
 10
   38.100
 20
   19.050
 11
   38.100
 21
   23.495
  0
TEXT
  8
11
 7
SIMPLEX
 10
   39.063
 20
   20.013
 40
    1.927
  1
38
 50
    0.000
  0
LINE
  8
3
 10
   12.446
 20
   39.370
 11
   12.446
 21
   16.510
  0
LINE
  8
3
 10
   10.922
 20
   40.640
 11
   10.922
 21
   15.240
  0
TEXT
  8
2
 7
SIMPLEX
 10
    9.197
 20
   25.400
 40
    1.927
  1
WEB
 50
   90.000
  0
TEXT
  8
21
 7
SIMPLEX
 10
    0.963
 20
   45.019
 40
    1.927
  1
D= 18
 50
    0.000
  0
TEXT
  8
2
 7
SIMPLEX
 10
    0.963
 20
   47.910
 40
    1.927
  1
CLF2
 50
    0.000
  0
TEXT
  8
2
 7
SIMPLEX
 10
    0.963
 20
    0.963
 40
    1.927
  1
10 x 150 x 120
 50
    0.000
  0
ENDBLK
  8
2
999
END:     BLOCK=PC-21
999
START:   BLOCK=GC-1
999
BLOCK_SIZE:   BLOCK=GC-1     Width= 50.8000 Height= 50.8000
  0
BLOCK
  8
2
  2
GC-1
 70
     0
 10
    0.000
 20
    0.000
  0
LINE
  8
1
 10
    0.000
 20
    0.000
 11
   50.800
 21
    0.000
  0
LINE
  8
1
 10
   50.800
 20
    0.000
 11
   50.800
 21
   50.800
  0
LINE
  8
1
 10
   50.800
 20
   50.800
 11
    0.000
 21
   50.800
  0
LINE
  8
1
 10
    0.000
 20
   50.800
 11
    0.000
 21
    0.000
  0
LINE
  8
13
 10
   33.020
 20
   36.830
 11
   12.700
 21
   36.830
  0
LINE
  8
13
 10
   33.020
 20
   36.830
 11
   33.020
 21
   19.050
  0
LINE
  8
13
 10
   12.700
 20
   36.830
 11
   12.700
 21
   19.050
  0
LINE
  8
13
 10
   33.020
 20
   19.050
 11
   12.700
 21
   19.050
  0
CIRCLE
  8
6
 10
    16.087
 20
    34.662
 40
     0.508
  0
CIRCLE
  8
6
 10
    29.633
 20
    34.662
 40
     0.508
  0
LINE
  8
2
 10
   36.068
 20
   36.830
 11
   37.592
 21
   36.830
  0
INSERT
  8
2
  2
ARROWD
 10
   36.830
 20
   36.830
 41
   1.000
 42
   1.000
 43
   1.000
 50
  90.000
  0
LINE
  8
2
 10
   36.068
 20
   34.662
 11
   37.592
 21
   34.662
  0
INSERT
  8
2
  2
ARROWD
 10
   36.830
 20
   34.662
 41
   1.000
 42
   1.000
 43
   1.000
 50
 -90.000
  0
LINE
  8
2
 10
   36.830
 20
   36.830
 11
   36.830
 21
   34.662
  0
TEXT
  8
11
 7
SIMPLEX
 10
   37.793
 20
   34.782
 40
    1.927
  1
25
 50
    0.000
  0
CIRCLE
  8
6
 10
    16.087
 20
    25.989
 40
     0.508
  0
CIRCLE
  8
6
 10
    29.633
 20
    25.989
 40
     0.508
  0
LINE
  8
2
 10
   36.068
 20
   34.662
 11
   37.592
 21
   34.662
  0
INSERT
  8
2
  2
ARROWD
 10
   36.830
 20
   34.662
 41
   1.000
 42
   1.000
 43
   1.000
 50
  90.000
  0
LINE
  8
2
 10
   36.068
 20
   25.989
 11
   37.592
 21
   25.989
  0
INSERT
  8
2
  2
ARROWD
 10
   36.830
 20
   25.989
 41
   1.000
 42
   1.000
 43
   1.000
 50
 -90.000
  0
LINE
  8
2
 10
   36.830
 20
   34.662
 11
   36.830
 21
   25.989
  0
TEXT
  8
11
 7
SIMPLEX
 10
   37.793
 20
   29.362
 40
    1.927
  1
100
 50
    0.000
  0
INSERT
  8
2
  2
ARROWD
 10
   36.830
 20
   25.989
 41
   1.000
 42
   1.000
 43
   1.000
 50
 -90.000
  0
LINE
  8
2
 10
   36.068
 20
   19.050
 11
   37.592
 21
   19.050
  0
INSERT
  8
2
  2
ARROWD
 10
   36.830
 20
   19.050
 41
   1.000
 42
   1.000
 43
   1.000
 50
 -90.000
  0
LINE
  8
2
 10
   36.830
 20
   25.989
 11
   36.830
 21
   19.050
  0
TEXT
  8
11
 7
SIMPLEX
 10
   37.793
 20
   21.556
 40
    1.927
  1
80
 50
    0.000
  0
LINE
  8
2
 10
   12.700
 20
   38.608
 11
   12.700
 21
   40.132
  0
INSERT
  8
2
  2
ARROWD
 10
   12.700
 20
   39.370
 41
   1.000
 42
   1.000
 43
   1.000
 50
 180.000
  0
LINE
  8
2
 10
   16.087
 20
   38.608
 11
   16.087
 21
   40.132
  0
INSERT
  8
2
  2
ARROWD
 10
   16.087
 20
   39.370
 41
   1.000
 42
   1.000
 43
   1.000
 50
   0.000
  0
LINE
  8
2
 10
   12.700
 20
   39.370
 11
   16.087
 21
   39.370
  0
TEXT
  8
11
 7
SIMPLEX
 10
   13.430
 20
   40.333
 40
    1.927
  1
25
 50
    0.000
  0
INSERT
  8
2
  2
ARROWD
 10
   16.087
 20
   39.370
 41
   1.000
 42
   1.000
 43
   1.000
 50
 180.000
  0
LINE
  8
2
 10
   16.087
 20
   38.608
 11
   16.087
 21
   40.132
  0
INSERT
  8
2
  2
ARROWD
 10
   29.633
 20
   39.370
 41
   1.000
 42
   1.000
 43
   1.000
 50
   0.000
  0
LINE
  8
2
 10
   29.633
 20
   39.370
 11
   16.087
 21
   39.370
  0
TEXT
  8
11
 7
SIMPLEX
 10
   21.897
 20
   40.333
 40
    1.927
  1
100
 50
    0.000
  0
LINE
  8
2
 10
   29.633
 20
   39.370
 11
   33.020
 21
   39.370
  0
LINE
  8
2
 10
   29.633
 20
   38.608
 11
   29.633
 21
   40.132
  0
INSERT
  8
2
  2
ARROWD
 10
   29.633
 20
   39.370
 41
   1.000
 42
   1.000
 43
   1.000
 50
 180.000
  0
INSERT
  8
2
  2
ARROWD
 10
   33.020
 20
   39.370
 41
   1.000
 42
   1.000
 43
   1.000
 50
   0.000
  0
LINE
  8
2
 10
   33.020
 20
   38.608
 11
   33.020
 21
   40.132
  0
TEXT
  8
11
 7
SIMPLEX
 10
   30.363
 20
   40.333
 40
    1.927
  1
25
 50
    0.000
  0
LINE
  8
3
 10
   10.160
 20
   18.796
 11
   35.560
 21
   18.796
  0
LINE
  8
3
 10
   10.160
 20
   17.272
 11
   35.560
 21
   17.272
  0
LINE
  8
3
 10
   10.160
 20
   17.272
 11
   10.160
 21
   18.796
  0
LINE
  8
3
 10
   35.560
 20
   17.272
 11
   35.560
 21
   18.796
  0
LINE
  8
3
 10
   22.098
 20
   14.732
 11
   22.098
 21
   17.272
  0
LINE
  8
3
 10
   23.622
 20
   13.462
 11
   23.622
 21
   17.272
  0
TEXT
  8
21
 7
SIMPLEX
 10
    0.963
 20
   45.019
 40
    1.927
  1
D= 14
 50
    0.000
  0
TEXT
  8
2
 7
SIMPLEX
 10
    0.963
 20
   47.910
 40
    1.927
  1
CLF3
 50
    0.000
  0
TEXT
  8
2
 7
SIMPLEX
 10
    0.963
 20
    0.963
 40
    1.927
  1
5 x 150 x 205
 50
    0.000
  0
ENDBLK
  8
2
999
END:     BLOCK=GC-1
999
START:   BLOCK=GC-51
999
BLOCK_SIZE:   BLOCK=GC-51    Width= 50.8000 Height= 50.8000
  0
BLOCK
  8
2
  2
GC-51
 70
     0
 10
    0.000
 20
    0.000
  0
LINE
  8
1
 10
    0.000
 20
    0.000
 11
   50.800
 21
    0.000
  0
LINE
  8
1
 10
   50.800
 20
    0.000
 11
   50.800
 21
   50.800
  0
LINE
  8
1
 10
   50.800
 20
   50.800
 11
    0.000
 21
   50.800
  0
LINE
  8
1
 10
    0.000
 20
   50.800
 11
    0.000
 21
    0.000
  0
LINE
  8
13
 10
   33.020
 20
   36.830
 11
   12.700
 21
   36.830
  0
LINE
  8
13
 10
   33.020
 20
   36.830
 11
   33.020
 21
   19.050
  0
LINE
  8
13
 10
   12.700
 20
   36.830
 11
   12.700
 21
   19.050
  0
LINE
  8
13
 10
   33.020
 20
   19.050
 11
   12.700
 21
   19.050
  0
CIRCLE
  8
6
 10
    16.087
 20
    24.977
 40
     0.508
  0
CIRCLE
  8
6
 10
    29.633
 20
    24.977
 40
     0.508
  0
LINE
  8
2
 10
   36.068
 20
   36.830
 11
   37.592
 21
   36.830
  0
INSERT
  8
2
  2
ARROWD
 10
   36.830
 20
   36.830
 41
   1.000
 42
   1.000
 43
   1.000
 50
  90.000
  0
LINE
  8
2
 10
   36.068
 20
   24.977
 11
   37.592
 21
   24.977
  0
INSERT
  8
2
  2
ARROWD
 10
   36.830
 20
   24.977
 41
   1.000
 42
   1.000
 43
   1.000
 50
 -90.000
  0
LINE
  8
2
 10
   36.830
 20
   36.830
 11
   36.830
 21
   24.977
  0
TEXT
  8
11
 7
SIMPLEX
 10
   37.793
 20
   29.940
 40
    1.927
  1
100
 50
    0.000
  0
INSERT
  8
2
  2
ARROWD
 10
   36.830
 20
   24.977
 41
   1.000
 42
   1.000
 43
   1.000
 50
 -90.000
  0
LINE
  8
2
 10
   36.068
 20
   19.050
 11
   37.592
 21
   19.050
  0
INSERT
  8
2
  2
ARROWD
 10
   36.830
 20
   19.050
 41
   1.000
 42
   1.000
 43
   1.000
 50
 -90.000
  0
LINE
  8
2
 10
   36.830
 20
   24.977
 11
   36.830
 21
   19.050
  0
TEXT
  8
11
 7
SIMPLEX
 10
   37.793
 20
   21.050
 40
    1.927
  1
50
 50
    0.000
  0
LINE
  8
2
 10
   12.700
 20
   17.272
 11
   12.700
 21
   15.748
  0
INSERT
  8
2
  2
ARROWD
 10
   12.700
 20
   16.510
 41
   1.000
 42
   1.000
 43
   1.000
 50
 180.000
  0
LINE
  8
2
 10
   16.087
 20
   17.272
 11
   16.087
 21
   15.748
  0
INSERT
  8
2
  2
ARROWD
 10
   16.087
 20
   16.510
 41
   1.000
 42
   1.000
 43
   1.000
 50
   0.000
  0
LINE
  8
2
 10
   12.700
 20
   16.510
 11
   16.087
 21
   16.510
  0
TEXT
  8
11
 7
SIMPLEX
 10
   13.430
 20
   13.620
 40
    1.927
  1
50
 50
    0.000
  0
INSERT
  8
2
  2
ARROWD
 10
   16.087
 20
   16.510
 41
   1.000
 42
   1.000
 43
   1.000
 50
 180.000
  0
LINE
  8
2
 10
   16.087
 20
   17.272
 11
   16.087
 21
   15.748
  0
INSERT
  8
2
  2
ARROWD
 10
   29.633
 20
   16.510
 41
   1.000
 42
   1.000
 43
   1.000
 50
   0.000
  0
LINE
  8
2
 10
   29.633
 20
   16.510
 11
   16.087
 21
   16.510
  0
TEXT
  8
11
 7
SIMPLEX
 10
   21.897
 20
   13.620
 40
    1.927
  1
200
 50
    0.000
  0
LINE
  8
2
 10
   29.633
 20
   16.510
 11
   33.020
 21
   16.510
  0
LINE
  8
2
 10
   29.633
 20
   17.272
 11
   29.633
 21
   15.748
  0
INSERT
  8
2
  2
ARROWD
 10
   29.633
 20
   16.510
 41
   1.000
 42
   1.000
 43
   1.000
 50
 180.000
  0
INSERT
  8
2
  2
ARROWD
 10
   33.020
 20
   16.510
 41
   1.000
 42
   1.000
 43
   1.000
 50
   0.000
  0
LINE
  8
2
 10
   33.020
 20
   17.272
 11
   33.020
 21
   15.748
  0
TEXT
  8
11
 7
SIMPLEX
 10
   30.363
 20
   13.620
 40
    1.927
  1
50
 50
    0.000
  0
LINE
  8
3
 10
   10.160
 20
   37.084
 11
   35.560
 21
   37.084
  0
LINE
  8
3
 10
   10.160
 20
   38.608
 11
   35.560
 21
   38.608
  0
LINE
  8
3
 10
   10.160
 20
   38.608
 11
   10.160
 21
   37.084
  0
LINE
  8
3
 10
   35.560
 20
   38.608
 11
   35.560
 21
   37.084
  0
LINE
  8
3
 10
   22.098
 20
   41.148
 11
   22.098
 21
   38.608
  0
LINE
  8
3
 10
   23.622
 20
   42.418
 11
   23.622
 21
   38.608
  0
TEXT
  8
21
 7
SIMPLEX
 10
    0.963
 20
   45.019
 40
    1.927
  1
D= 22
 50
    0.000
  0
TEXT
  8
2
 7
SIMPLEX
 10
    0.963
 20
   47.910
 40
    1.927
  1
GC41-01
 50
    0.000
  0
TEXT
  8
2
 7
SIMPLEX
 10
    0.963
 20
    0.963
 40
    1.927
  1
8 x 300 x 150
 50
    0.000
  0
ENDBLK
  8
2
999
END:     BLOCK=GC-51
  0
ENDSEC
  0
SECTION
  2
ENTITIES
  0
LINE
  8
22
 10
    0.000
 20
    0.000
 11
  841.000
 21
    0.000
  0
LINE
  8
22
 10
  841.000
 20
    0.000
 11
  841.000
 21
  594.000
  0
LINE
  8
22
 10
  841.000
 20
  594.000
 11
    0.000
 21
  594.000
  0
LINE
  8
22
 10
    0.000
 20
  594.000
 11
    0.000
 21
    0.000
  0
INSERT
  8
0
  2
PC-21
 10
    0.000
 20
  519.000
 41
   1.476
 42
   1.476
 43
   1.476
 50
   0.000
  0
INSERT
  8
0
  2
GC-1
 10
   75.000
 20
  519.000
 41
   1.476
 42
   1.476
 43
   1.476
 50
   0.000
  0
INSERT
  8
0
  2
GC-51
 10
  150.000
 20
  519.000
 41
   1.476
 42
   1.476
 43
   1.476
 50
   0.000
  0
LINE
  8
0
 10
  703.840
 20
   15.240
 11
  841.000
 21
   15.240
  0
LINE
  8
0
 10
  703.840
 20
   30.480
 11
  841.000
 21
   30.480
  0
LINE
  8
0
 10
  703.840
 20
   45.720
 11
  841.000
 21
   45.720
  0
LINE
  8
0
 10
  841.000
 20
    0.000
 11
  841.000
 21
   45.720
  0
LINE
  8
0
 10
  703.840
 20
   45.720
 11
  703.840
 21
    0.000
  0
LINE
  8
0
 10
  749.560
 20
   30.480
 11
  749.560
 21
    0.000
  0
LINE
  8
0
 10
  795.280
 20
   30.480
 11
  795.280
 21
    0.000
  0
LINE
  8
0
 10
  703.840
 20
    0.000
 11
  841.000
 21
    0.000
  0
TEXT
  8
0
 7
SIMPLEX
 10
  715.270
 20
   26.670
 40
    1.715
  1
JOB
 50
    0.000
  0
TEXT
  8
0
 7
SIMPLEX
 10
  715.270
 20
   11.430
 40
    1.715
  1
QUANTITY
 50
    0.000
  0
TEXT
  8
0
 7
SIMPLEX
 10
  760.990
 20
   41.910
 40
    1.715
  1
CUSTOMER
 50
    0.000
  0
TEXT
  8
0
 7
SIMPLEX
 10
  760.990
 20
   26.670
 40
    1.715
  1
CHECKED BY
 50
    0.000
  0
TEXT
  8
0
 7
SIMPLEX
 10
  760.990
 20
   11.430
 40
    1.715
  1
MARK
 50
    0.000
  0
TEXT
  8
0
 7
SIMPLEX
 10
  806.710
 20
   26.670
 40
    1.715
  1
DATE
 50
    0.000
  0
TEXT
  8
0
 7
SIMPLEX
 10
  806.710
 20
   11.430
 40
    1.715
  1
DRAWING
 50
    0.000
  0
TEXT
  8
0
 7
SIMPLEX
 10
  773.525
 20
   34.290
 40
    5.410
  1
 
 50
    0.000
  0
TEXT
  8
0
 7
SIMPLEX
 10
  707.650
 20
   19.050
 40
    5.410
  1
C463-002
 50
    0.000
  0
TEXT
  8
0
 7
SIMPLEX
 10
  707.650
 20
    3.810
 40
    5.410
  1
  1
 50
    0.000
  0
TEXT
  8
0
 7
SIMPLEX
 10
  753.370
 20
    3.810
 40
    5.072
  1
        
 50
    0.000
  0
TEXT
  8
0
 7
SIMPLEX
 10
  797.185
 20
   19.050
 40
    5.410
  1
18/DEC/2025
 50
    0.000
  0
TEXT
  8
0
 7
SIMPLEX
 10
  797.185
 20
    3.810
 40
    5.410
  1
CL5-4
 50
    0.000
  0
ENDSEC
  0
EOF
