999
SOURCE:MBS   PROGRAM:ASM_DXF   CELL:ASM_DWG   CLASS:SHOP   MODE:---
  0
SECTION
  2
HEADER
  9
$EXTMIN
 10
   0.000
 20
   0.000
  9
$EXTMAX
 10
 841.000
 20
 594.000
  9
$LIMMIN
 10
   0.000
 20
   0.000
  9
$LIMMAX
 10
 841.000
 20
 594.000
  9
$HANDLING
 70
     0
999
BORDER_EXTENTS: 0.000      0.000      841.000    594.000
  0
ENDSEC
  0
SECTION
  2
TABLES
  0
TABLE
  2
LTYPE
 70
     3
  0
LTYPE
  2
CONTIN
 70
    64
  3
SOLID LINE
 72
    65
 73
     0
 40
0.0
  0
LTYPE
  2
CENTER
 70
    64
  3
____ _ ____ _ ____ _ ____ _ ____ _ ____ _ ____
 72
    65
 73
     4
 40
2.0
 49
1.25
 49
-0.25
 49
0.25
 49
-0.25
  0
LTYPE
  2
DASHED
 70
    64
  3
__ __ __ __ __ __ __ __ __ __ __ __ __ __ __ 
 72
    65
 73
     2
 40
2.3812
 49
1.5875
 49
-0.7937
  0
ENDTAB
  0
TABLE
  2
LAYER
 70
    50
  0
LAYER
  2
0
 70
     0
 62
     7
  6
CONTIN
  0
LAYER
  2
1
 70
     0
 62
     7
  6
CONTIN
  0
LAYER
  2
2
 70
     0
 62
     7
  6
CONTIN
  0
LAYER
  2
3
 70
     0
 62
     1
  6
CONTIN
  0
LAYER
  2
4
 70
     0
 62
     1
  6
CONTIN
  0
LAYER
  2
5
 70
     0
 62
     7
  6
CONTIN
  0
LAYER
  2
6
 70
     0
 62
     4
  6
CONTIN
  0
LAYER
  2
7
 70
     0
 62
     3
  6
DASHED
  0
LAYER
  2
8
 70
     0
 62
     3
  6
DASHED
  0
LAYER
  2
9
 70
     0
 62
     7
  6
CONTIN
  0
LAYER
  2
10
 70
     0
 62
     7
  6
CONTIN
  0
LAYER
  2
11
 70
     0
 62
     7
  6
CONTIN
  0
LAYER
  2
12
 70
     0
 62
     2
  6
CONTIN
  0
LAYER
  2
13
 70
     0
 62
     2
  6
CONTIN
  0
LAYER
  2
14
 70
     0
 62
     7
  6
CONTIN
  0
LAYER
  2
15
 70
     0
 62
     6
  6
CONTIN
  0
LAYER
  2
16
 70
     0
 62
     7
  6
CONTIN
  0
LAYER
  2
17
 70
     0
 62
     7
  6
CONTIN
  0
LAYER
  2
18
 70
     0
 62
     4
  6
CONTIN
  0
LAYER
  2
19
 70
     0
 62
     7
  6
CONTIN
  0
LAYER
  2
20
 70
     0
 62
     7
  6
CONTIN
  0
LAYER
  2
21
 70
     0
 62
     7
  6
CONTIN
  0
LAYER
  2
22
 70
     0
 62
     7
  6
CONTIN
  0
LAYER
  2
23
 70
     0
 62
     7
  6
CONTIN
  0
LAYER
  2
24
 70
     0
 62
     7
  6
CONTIN
  0
LAYER
  2
25
 70
     0
 62
     7
  6
CONTIN
  0
LAYER
  2
26
 70
     0
 62
     7
  6
CONTIN
  0
LAYER
  2
27
 70
     0
 62
     7
  6
CONTIN
  0
LAYER
  2
28
 70
     0
 62
     7
  6
CONTIN
  0
LAYER
  2
29
 70
     0
 62
     7
  6
CONTIN
  0
LAYER
  2
30
 70
     0
 62
     7
  6
CONTIN
  0
LAYER
  2
31
 70
     0
 62
     7
  6
CONTIN
  0
LAYER
  2
32
 70
     0
 62
     7
  6
CONTIN
  0
LAYER
  2
33
 70
     0
 62
     7
  6
CONTIN
  0
LAYER
  2
34
 70
     0
 62
     7
  6
CONTIN
  0
LAYER
  2
35
 70
     0
 62
     7
  6
CONTIN
  0
LAYER
  2
36
 70
     0
 62
     7
  6
CONTIN
  0
LAYER
  2
37
 70
     0
 62
     7
  6
CONTIN
  0
LAYER
  2
38
 70
     0
 62
     7
  6
CONTIN
  0
LAYER
  2
39
 70
     0
 62
     7
  6
CONTIN
  0
LAYER
  2
40
 70
     0
 62
     7
  6
CONTIN
  0
LAYER
  2
41
 70
     0
 62
     7
  6
CONTIN
  0
LAYER
  2
42
 70
     0
 62
     7
  6
CONTIN
  0
LAYER
  2
43
 70
     0
 62
     7
  6
CONTIN
  0
LAYER
  2
44
 70
     0
 62
     7
  6
CONTIN
  0
LAYER
  2
45
 70
     0
 62
     7
  6
CONTIN
  0
LAYER
  2
46
 70
     0
 62
     7
  6
CONTIN
  0
LAYER
  2
47
 70
     0
 62
     7
  6
CONTIN
  0
LAYER
  2
48
 70
     0
 62
     7
  6
CONTIN
  0
LAYER
  2
49
 70
     0
 62
     7
  6
CONTIN
  0
ENDTAB
  0
TABLE
  2
STYLE
 70
  0
  0
STYLE
  2
SIMPLEX
 70
  0
 40
  0.000
 41
  1.000
 42
  1.000
 50
  0.000
 71
  0
  3
SIMPLEX
  0
STYLE
  2
ROMANS
 70
  0
 40
  0.000
 41
  1.000
 42
  1.000
 50
  0.000
 71
  0
  3
ROMANS
  0
STYLE
  2
OPEN
 70
  0
 40
  0.000
 41
  1.000
 42
  1.000
 50
  0.000
 71
  0
  3
SIMPLEX
  0
STYLE
  2
ARIAL
 70
  0
 40
  0.000
 41
  1.000
 42
  1.000
 50
  0.000
 71
  0
  3
ARIAL.TTF
  0
STYLE
  2
VERDANAB
 70
  0
 40
  0.000
 41
  1.000
 42
  1.000
 50
  0.000
 71
  0
  3
VERDANAB.TTF
  0
ENDTAB
  0
ENDSEC
  0
SECTION
  2
BLOCKS
  0
BLOCK
  8
2
  2
ARROW
 70
     0
 10
0.000     
 20
0.000     
  0
LINE
  8
2
 10
-0.635    
 20
-0.635    
 11
0.635     
 21
0.635     
  0
ENDBLK
  8
2
  0
BLOCK
  8
0
  2
ARROWP
 70
     0
 10
0.000     
 20
0.000     
  0
LINE
  8
0
 10
0.000     
 20
0.000     
 11
-1.270    
 21
0.317     
  0
LINE
  8
0
 10
-1.270    
 20
0.317     
 11
-1.270    
 21
-0.317    
  0
LINE
  8
0
 10
-1.270    
 20
-0.317    
 11
0.000     
 21
0.000     
  0
ENDBLK
  8
0
  0
BLOCK
  8
3
  2
CIRCLE
 70
     0
 10
0.000     
 20
0.000     
  0
CIRCLE
  8
1
 10
     0.000
 20
     0.000
 40
    10.160
  0
ENDBLK
  8
3
  0
BLOCK
  8
3
  2
SLOTTD
 70
     0
 10
0.000     
 20
0.000     
  0
ARC
  8
6
 10
-25.400   
 20
0.000     
 40
  12.700
 50
  90.000
 51
 270.000
  0
ARC
  8
6
 10
25.400    
 20
0.000     
 40
  12.700
 50
 270.000
 51
  90.000
  0
LINE
  8
6
 10
-25.400   
 20
-12.700   
 11
25.400    
 21
-12.700   
  0
LINE
  8
6
 10
-25.400   
 20
12.700    
 11
25.400    
 21
12.700    
  0
ENDBLK
  8
3
  0
BLOCK
  8
3
  2
FLGHOL
 70
     0
 10
0.000     
 20
0.000     
  0
SOLID
  8
6
 10
-6.350    
 20
0.000     
 11
6.350     
 21
0.000     
 12
-6.350    
 22
25.400    
 13
6.350     
 23
25.400    
  0
ENDBLK
  8
3
  0
BLOCK
  8
2
  2
BRCCLP
 70
     0
 10
12.700    
 20
0.000     
  0
LINE
  8
2
 10
12.700    
 20
0.000     
 11
12.700    
 21
101.600   
  0
LINE
  8
2
 10
-12.700   
 20
101.600   
 11
12.700    
 21
101.600   
  0
SOLID
  8
1
 10
-12.700   
 20
68.580    
 11
12.700    
 21
68.580    
 12
-12.700   
 22
83.820    
 13
12.700    
 23
83.820    
  0
ENDBLK
  8
3
  0
BLOCK
  8
2
  2
BRCCLPB
 70
     0
 10
12.700    
 20
0.000     
  0
LINE
  8
7
 10
12.700    
 20
0.000     
 11
12.700    
 21
101.600   
  0
LINE
  8
7
 10
-12.700   
 20
101.600   
 11
12.700    
 21
101.600   
  0
SOLID
  8
1
 10
-12.700   
 20
68.580    
 11
12.700    
 21
68.580    
 12
-12.700   
 22
83.820    
 13
12.700    
 23
83.820    
  0
ENDBLK
  8
3
  0
BLOCK
  8
2
  2
GRTANGC
 70
     0
 10
0.000     
 20
0.000     
  0
LINE
  8
13
 10
88.900    
 20
0.000     
 11
-12.700   
 21
0.000     
  0
LINE
  8
13
 10
88.900    
 20
0.000     
 11
88.900    
 21
152.400   
  0
LINE
  8
13
 10
-12.700   
 20
0.000     
 11
-12.700   
 21
152.400   
  0
LINE
  8
13
 10
88.900    
 20
152.400   
 11
-12.700   
 21
152.400   
  0
LINE
  8
13
 10
12.700    
 20
0.000     
 11
12.700    
 21
152.400   
  0
SOLID
  8
6
 10
-12.700   
 20
119.380   
 11
12.700    
 21
119.380   
 12
-12.700   
 22
134.620   
 13
12.700    
 23
134.620   
  0
SOLID
  8
6
 10
-12.700   
 20
68.580    
 11
12.700    
 21
68.580    
 12
-12.700   
 22
83.820    
 13
12.700    
 23
83.820    
  0
ENDBLK
  8
3
  0
BLOCK
  8
2
  2
GRTCLPB
 70
     0
 10
0.000     
 20
0.000     
  0
LINE
  8
13
 10
-12.700   
 20
0.000     
 11
-12.700   
 21
152.400   
  0
LINE
  8
13
 10
-12.700   
 20
0.000     
 11
12.700    
 21
0.000     
  0
LINE
  8
13
 10
-12.700   
 20
152.400   
 11
12.700    
 21
152.400   
  0
LINE
  8
13
 10
12.700    
 20
0.000     
 11
12.700    
 21
152.400   
  0
SOLID
  8
6
 10
-12.700   
 20
119.380   
 11
12.700    
 21
119.380   
 12
-12.700   
 22
134.620   
 13
12.700    
 23
134.620   
  0
SOLID
  8
6
 10
-12.700   
 20
68.580    
 11
12.700    
 21
68.580    
 12
-12.700   
 22
83.820    
 13
12.700    
 23
83.820    
  0
ENDBLK
  8
3
  0
BLOCK
  8
2
  2
GRTCLP1
 70
     0
 10
0.000     
 20
0.000     
  0
LINE
  8
13
 10
-12.700   
 20
0.000     
 11
-12.700   
 21
101.600   
  0
LINE
  8
13
 10
-12.700   
 20
0.000     
 11
12.700    
 21
0.000     
  0
LINE
  8
13
 10
-12.700   
 20
101.600   
 11
12.700    
 21
101.600   
  0
LINE
  8
13
 10
12.700    
 20
0.000     
 11
12.700    
 21
101.600   
  0
SOLID
  8
6
 10
-12.700   
 20
68.580    
 11
12.700    
 21
68.580    
 12
-12.700   
 22
83.820    
 13
12.700    
 23
83.820    
  0
ENDBLK
  8
3
  0
BLOCK
  8
2
  2
GRTCLP0
 70
     0
 10
0.000     
 20
0.000     
  0
LINE
  8
13
 10
-12.700   
 20
0.000     
 11
-12.700   
 21
101.600   
  0
LINE
  8
13
 10
-12.700   
 20
0.000     
 11
12.700    
 21
0.000     
  0
LINE
  8
13
 10
-12.700   
 20
101.600   
 11
12.700    
 21
101.600   
  0
LINE
  8
13
 10
12.700    
 20
0.000     
 11
12.700    
 21
101.600   
  0
ENDBLK
  8
3
  0
BLOCK
  8
2
  2
GRTCLPZ
 70
     0
 10
0.000     
 20
0.000     
  0
LINE
  8
13
 10
-12.700   
 20
0.000     
 11
-12.700   
 21
63.500    
  0
LINE
  8
13
 10
-12.700   
 20
63.500    
 11
38.100    
 21
63.500    
  0
LINE
  8
13
 10
38.100    
 20
63.500    
 11
38.100    
 21
152.400   
  0
LINE
  8
13
 10
38.100    
 20
152.400   
 11
63.500    
 21
152.400   
  0
LINE
  8
13
 10
63.500    
 20
152.400   
 11
63.500    
 21
38.100    
  0
LINE
  8
13
 10
63.500    
 20
38.100    
 11
12.700    
 21
38.100    
  0
LINE
  8
13
 10
12.700    
 20
38.100    
 11
12.700    
 21
0.000     
  0
SOLID
  8
6
 10
38.100    
 20
119.380   
 11
63.500    
 21
119.380   
 12
38.100    
 22
134.620   
 13
63.500    
 23
134.620   
  0
SOLID
  8
6
 10
38.100    
 20
68.580    
 11
63.500    
 21
68.580    
 12
38.100    
 22
83.820    
 13
63.500    
 23
83.820    
  0
ENDBLK
  8
3
  0
BLOCK
  8
2
  2
WEBCLP2
 70
     0
 10
0.000     
 20
152.400   
  0
LINE
  8
13
 10
-12.700   
 20
0.000     
 11
-12.700   
 21
203.200   
  0
LINE
  8
13
 10
-12.700   
 20
0.000     
 11
12.700    
 21
0.000     
  0
LINE
  8
13
 10
-12.700   
 20
203.200   
 11
12.700    
 21
203.200   
  0
LINE
  8
13
 10
12.700    
 20
0.000     
 11
12.700    
 21
203.200   
  0
SOLID
  8
6
 10
-12.700   
 20
43.180    
 11
12.700    
 21
43.180    
 12
-12.700   
 22
58.420    
 13
12.700    
 23
58.420    
  0
SOLID
  8
6
 10
-12.700   
 20
144.780   
 11
12.700    
 21
144.780   
 12
-12.700   
 22
160.020   
 13
12.700    
 23
160.020   
  0
ENDBLK
  8
3
  0
BLOCK
  8
2
  2
WEBCLPL
 70
     0
 10
0.000     
 20
152.400   
  0
LINE
  8
13
 10
0.000     
 20
0.000     
 11
-25.400   
 21
0.000     
  0
LINE
  8
13
 10
0.000     
 20
203.200   
 11
-25.400   
 21
203.200   
  0
LINE
  8
13
 10
-25.400   
 20
0.000     
 11
-25.400   
 21
203.200   
  0
ENDBLK
  8
3
  0
BLOCK
  8
2
  2
WEBCLP3
 70
     0
 10
0.000     
 20
144.780   
  0
LINE
  8
13
 10
-12.700   
 20
0.000     
 11
-12.700   
 21
187.960   
  0
LINE
  8
13
 10
-12.700   
 20
0.000     
 11
12.700    
 21
0.000     
  0
LINE
  8
13
 10
-12.700   
 20
187.960   
 11
12.700    
 21
187.960   
  0
LINE
  8
13
 10
12.700    
 20
0.000     
 11
12.700    
 21
187.960   
  0
SOLID
  8
6
 10
-12.700   
 20
35.560    
 11
12.700    
 21
35.560    
 12
-12.700   
 22
50.800    
 13
12.700    
 23
50.800    
  0
SOLID
  8
6
 10
-12.700   
 20
86.360    
 11
12.700    
 21
86.360    
 12
-12.700   
 22
101.600   
 13
12.700    
 23
101.600   
  0
SOLID
  8
6
 10
-12.700   
 20
137.160   
 11
12.700    
 21
137.160   
 12
-12.700   
 22
152.400   
 13
12.700    
 23
152.400   
  0
ENDBLK
  8
3
  0
BLOCK
  8
2
  2
WEBCLP4
 70
     0
 10
0.000     
 20
195.580   
  0
LINE
  8
13
 10
-12.700   
 20
0.000     
 11
-12.700   
 21
238.760   
  0
LINE
  8
13
 10
-12.700   
 20
0.000     
 11
12.700    
 21
0.000     
  0
LINE
  8
13
 10
-12.700   
 20
238.760   
 11
12.700    
 21
238.760   
  0
LINE
  8
13
 10
12.700    
 20
0.000     
 11
12.700    
 21
238.760   
  0
SOLID
  8
6
 10
-12.700   
 20
35.560    
 11
12.700    
 21
35.560    
 12
-12.700   
 22
50.800    
 13
12.700    
 23
50.800    
  0
SOLID
  8
6
 10
-12.700   
 20
86.360    
 11
12.700    
 21
86.360    
 12
-12.700   
 22
101.600   
 13
12.700    
 23
101.600   
  0
SOLID
  8
6
 10
-12.700   
 20
137.160   
 11
12.700    
 21
137.160   
 12
-12.700   
 22
152.400   
 13
12.700    
 23
152.400   
  0
SOLID
  8
6
 10
-12.700   
 20
187.960   
 11
12.700    
 21
187.960   
 12
-12.700   
 22
203.200   
 13
12.700    
 23
203.200   
  0
ENDBLK
  8
4
  0
BLOCK
  8
2
  2
WEBCLP1
 70
     0
 10
0.000     
 20
76.200    
  0
LINE
  8
13
 10
-12.700   
 20
0.000     
 11
-12.700   
 21
152.400   
  0
LINE
  8
13
 10
-12.700   
 20
0.000     
 11
12.700    
 21
0.000     
  0
LINE
  8
13
 10
-12.700   
 20
152.400   
 11
12.700    
 21
152.400   
  0
LINE
  8
13
 10
12.700    
 20
0.000     
 11
12.700    
 21
152.400   
  0
SOLID
  8
6
 10
-12.700   
 20
68.580    
 11
12.700    
 21
68.580    
 12
-12.700   
 22
83.820    
 13
12.700    
 23
83.820    
  0
ENDBLK
  8
3
  0
BLOCK
  8
2
  2
WEBCLP2B
 70
     0
 10
0.000     
 20
152.400   
  0
LINE
  8
7
 10
-12.700   
 20
0.000     
 11
-12.700   
 21
203.200   
  0
LINE
  8
7
 10
-12.700   
 20
0.000     
 11
12.700    
 21
0.000     
  0
LINE
  8
7
 10
-12.700   
 20
203.200   
 11
12.700    
 21
203.200   
  0
LINE
  8
7
 10
12.700    
 20
0.000     
 11
12.700    
 21
203.200   
  0
SOLID
  8
6
 10
-12.700   
 20
43.180    
 11
12.700    
 21
43.180    
 12
-12.700   
 22
58.420    
 13
12.700    
 23
58.420    
  0
SOLID
  8
6
 10
-12.700   
 20
144.780   
 11
12.700    
 21
144.780   
 12
-12.700   
 22
160.020   
 13
12.700    
 23
160.020   
  0
ENDBLK
  8
3
  0
BLOCK
  8
2
  2
WEBCLPLB
 70
     0
 10
0.000     
 20
152.400   
  0
LINE
  8
7
 10
0.000     
 20
0.000     
 11
-25.400   
 21
0.000     
  0
LINE
  8
7
 10
0.000     
 20
203.200   
 11
-25.400   
 21
203.200   
  0
LINE
  8
7
 10
-25.400   
 20
0.000     
 11
-25.400   
 21
203.200   
  0
ENDBLK
  8
3
  0
BLOCK
  8
2
  2
WEBCLP3B
 70
     0
 10
0.000     
 20
144.780   
  0
LINE
  8
7
 10
-12.700   
 20
0.000     
 11
-12.700   
 21
187.960   
  0
LINE
  8
7
 10
-12.700   
 20
0.000     
 11
12.700    
 21
0.000     
  0
LINE
  8
7
 10
-12.700   
 20
187.960   
 11
12.700    
 21
187.960   
  0
LINE
  8
7
 10
12.700    
 20
0.000     
 11
12.700    
 21
187.960   
  0
SOLID
  8
6
 10
-12.700   
 20
35.560    
 11
12.700    
 21
35.560    
 12
-12.700   
 22
50.800    
 13
12.700    
 23
50.800    
  0
SOLID
  8
6
 10
-12.700   
 20
86.360    
 11
12.700    
 21
86.360    
 12
-12.700   
 22
101.600   
 13
12.700    
 23
101.600   
  0
SOLID
  8
6
 10
-12.700   
 20
137.160   
 11
12.700    
 21
137.160   
 12
-12.700   
 22
152.400   
 13
12.700    
 23
152.400   
  0
ENDBLK
  8
3
  0
BLOCK
  8
2
  2
WEBCLP4B
 70
     0
 10
0.000     
 20
195.580   
  0
LINE
  8
7
 10
-12.700   
 20
0.000     
 11
-12.700   
 21
238.760   
  0
LINE
  8
7
 10
-12.700   
 20
0.000     
 11
12.700    
 21
0.000     
  0
LINE
  8
7
 10
-12.700   
 20
238.760   
 11
12.700    
 21
238.760   
  0
LINE
  8
7
 10
12.700    
 20
0.000     
 11
12.700    
 21
238.760   
  0
SOLID
  8
6
 10
-12.700   
 20
35.560    
 11
12.700    
 21
35.560    
 12
-12.700   
 22
50.800    
 13
12.700    
 23
50.800    
  0
SOLID
  8
6
 10
-12.700   
 20
86.360    
 11
12.700    
 21
86.360    
 12
-12.700   
 22
101.600   
 13
12.700    
 23
101.600   
  0
SOLID
  8
6
 10
-12.700   
 20
137.160   
 11
12.700    
 21
137.160   
 12
-12.700   
 22
152.400   
 13
12.700    
 23
152.400   
  0
SOLID
  8
6
 10
-12.700   
 20
187.960   
 11
12.700    
 21
187.960   
 12
-12.700   
 22
203.200   
 13
12.700    
 23
203.200   
  0
ENDBLK
  8
4
  0
BLOCK
  8
2
  2
WEBCLP1B
 70
     0
 10
0.000     
 20
76.200    
  0
LINE
  8
7
 10
-12.700   
 20
0.000     
 11
-12.700   
 21
152.400   
  0
LINE
  8
7
 10
-12.700   
 20
0.000     
 11
12.700    
 21
0.000     
  0
LINE
  8
7
 10
-12.700   
 20
152.400   
 11
12.700    
 21
152.400   
  0
LINE
  8
7
 10
12.700    
 20
0.000     
 11
12.700    
 21
152.400   
  0
SOLID
  8
6
 10
-12.700   
 20
68.580    
 11
12.700    
 21
68.580    
 12
-12.700   
 22
83.820    
 13
12.700    
 23
83.820    
  0
ENDBLK
  8
3
  0
BLOCK
  8
2
  2
FC_CLIP2
 70
     0
 10
0.000     
 20
0.000     
  0
LINE
  8
2
 10
-50.800   
 20
0.000     
 11
-50.800   
 21
152.400   
  0
LINE
  8
2
 10
-50.800   
 20
0.000     
 11
50.800    
 21
0.000     
  0
LINE
  8
2
 10
-50.800   
 20
152.400   
 11
50.800    
 21
152.400   
  0
LINE
  8
2
 10
50.800    
 20
0.000     
 11
50.800    
 21
152.400   
  0
CIRCLE
  8
1
 10
     0.000
 20
   101.600
 40
    12.700
  0
CIRCLE
  8
1
 10
     0.000
 20
    50.800
 40
    12.700
  0
ENDBLK
  8
3
  0
BLOCK
  8
2
  2
FC_CLIP3
 70
     0
 10
0.000     
 20
0.000     
  0
LINE
  8
2
 10
-50.800   
 20
0.000     
 11
-50.800   
 21
152.400   
  0
LINE
  8
2
 10
-50.800   
 20
0.000     
 11
50.800    
 21
0.000     
  0
LINE
  8
2
 10
-50.800   
 20
152.400   
 11
50.800    
 21
152.400   
  0
LINE
  8
2
 10
50.800    
 20
0.000     
 11
50.800    
 21
152.400   
  0
CIRCLE
  8
1
 10
     0.000
 20
   101.600
 40
    12.700
  0
CIRCLE
  8
1
 10
     0.000
 20
    76.200
 40
    12.700
  0
CIRCLE
  8
1
 10
     0.000
 20
    50.800
 40
    12.700
  0
ENDBLK
  8
3
  0
BLOCK
  8
2
  2
EAVCLP
 70
     0
 10
0.000     
 20
0.000     
  0
LINE
  8
2
 10
-25.400   
 20
0.000     
 11
-25.400   
 21
304.800   
  0
LINE
  8
2
 10
-25.400   
 20
0.000     
 11
0.000     
 21
0.000     
  0
LINE
  8
2
 10
-25.400   
 20
304.800   
 11
0.000     
 21
304.800   
  0
LINE
  8
2
 10
0.000     
 20
0.000     
 11
0.000     
 21
304.800   
  0
SOLID
  8
1
 10
-25.400   
 20
271.780   
 11
0.000     
 21
271.780   
 12
-25.400   
 22
287.020   
 13
0.000     
 23
287.020   
  0
SOLID
  8
1
 10
-25.400   
 20
220.980   
 11
0.000     
 21
220.980   
 12
-25.400   
 22
236.220   
 13
0.000     
 23
236.220   
  0
ENDBLK
  8
3
  0
BLOCK
  8
2
  2
ASMPIECE
 70
     0
 10
6416.680  
 20
9533.003  
  0
LINE
  8
1
 10
6416.680  
 20
9533.003  
 11
6446.679  
 21
9233.014  
  0
LINE
  8
1
 10
12630.38  
 20
9182.653  
 11
12595.34  
 21
9533.003  
  0
TEXT
  8
3
 7
SIMPLEX
 10
9878.020  
 20
9423.879  
 40
   24.250
  1
WB2
 50
    0.000
  0
LINE
  8
1
 10
6416.680  
 20
9533.003  
 11
6416.680  
 21
9542.745  
  0
LINE
  8
1
 10
6416.680  
 20
9533.003  
 11
12821.87  
 21
9533.002  
  0
LINE
  8
1
 10
12821.87  
 20
9533.002  
 11
12821.87  
 21
9542.744  
  0
LINE
  8
1
 10
6416.680  
 20
9542.745  
 11
12821.87  
 21
9542.744  
  0
TEXT
  8
3
 7
SIMPLEX
 10
9619.275  
 20
9548.807  
 40
   24.250
  1
OF5
 50
    0.000
  0
LINE
  8
1
 10
12595.44  
 20
9532.032  
 11
12605.13  
 21
9533.002  
  0
LINE
  8
1
 10
12595.44  
 20
9532.032  
 11
12630.38  
 21
9182.653  
  0
LINE
  8
1
 10
12630.38  
 20
9182.653  
 11
12640.07  
 21
9183.623  
  0
LINE
  8
1
 10
12605.13  
 20
9533.002  
 11
12640.07  
 21
9183.623  
  0
TEXT
  8
3
 7
SIMPLEX
 10
12622.82  
 20
9417.021  
 40
   24.250
  1
OF6
 50
  -84.289
  0
LINE
  8
1
 10
6447.385  
 20
9233.002  
 11
6447.654  
 21
9223.253  
  0
LINE
  8
1
 10
6447.385  
 20
9233.002  
 11
12128.88  
 21
9132.505  
  0
LINE
  8
1
 10
12128.88  
 20
9132.505  
 11
12128.71  
 21
9122.764  
  0
LINE
  8
1
 10
6447.654  
 20
9223.253  
 11
12128.71  
 21
9122.764  
  0
TEXT
  8
3
 7
SIMPLEX
 10
9287.538  
 20
9136.640  
 40
   24.250
  1
IF4
 50
   -1.013
  0
LINE
  8
12
 10
6409.557  
 20
9604.229  
 11
6398.785  
 21
9603.152  
  0
LINE
  8
12
 10
6409.557  
 20
9604.229  
 11
6453.801  
 21
9161.786  
  0
LINE
  8
12
 10
6453.801  
 20
9161.786  
 11
6443.029  
 21
9160.709  
  0
LINE
  8
12
 10
6398.785  
 20
9603.152  
 11
6443.029  
 21
9160.709  
  0
TEXT
  8
3
 7
SIMPLEX
 10
6418.495  
 20
9345.134  
 40
   24.250
  1
EP3
 50
   95.710
  0
LINE
  8
12
 10
12701.58  
 20
9189.773  
 11
12702.66  
 21
9179.002  
  0
LINE
  8
12
 10
12701.58  
 20
9189.773  
 11
12132.86  
 21
9132.901  
  0
LINE
  8
12
 10
12132.86  
 20
9132.901  
 11
12133.94  
 21
9122.129  
  0
LINE
  8
12
 10
12702.66  
 20
9179.002  
 11
12133.94  
 21
9122.129  
  0
TEXT
  8
3
 7
SIMPLEX
 10
12385.12  
 20
9116.784  
 40
   24.250
  1
EP2
 50
    5.710
  0
INSERT
  8
6
  2
SLOTTD
 10
6600.599  
 20
9458.002  
 41
   0.256
 42
   0.256
 43
   0.256
 50
   0.000
  0
TEXT
  8
3
 7
SIMPLEX
 10
6588.475  
 20
9421.628  
 40
   24.250
  1
S1
 50
    0.000
  0
INSERT
  8
6
  2
SLOTTD
 10
12420.34  
 20
9458.002  
 41
   0.256
 42
   0.256
 43
   0.256
 50
   0.000
  0
TEXT
  8
3
 7
SIMPLEX
 10
12408.22  
 20
9421.628  
 40
   24.250
  1
S1
 50
    0.000
  0
INSERT
  8
6
  2
SLOTTD
 10
12545.59  
 20
9276.780  
 41
   0.256
 42
   0.256
 43
   0.256
 50
 -84.289
  0
TEXT
  8
3
 7
SIMPLEX
 10
12508.19  
 20
9285.226  
 40
   24.250
  1
S1
 50
  -84.289
  0
LINE
  8
2
 10
8266.028  
 20
9533.003  
 11
8237.882  
 21
9533.003  
  0
LINE
  8
2
 10
8266.028  
 20
9229.832  
 11
8237.882  
 21
9229.832  
  0
LINE
  8
2
 10
8244.377  
 20
9533.003  
 11
8244.377  
 21
9229.832  
  0
INSERT
  8
2
  2
ARROW
 10
8244.377  
 20
9533.003  
 41
   8.524
 42
   8.524
 43
   8.524
 50
  90.000
  0
INSERT
  8
2
  2
ARROW
 10
8244.377  
 20
9229.832  
 41
   8.524
 42
   8.524
 43
   8.524
 50
 -90.000
  0
TEXT
  8
11
 7
SIMPLEX
 10
8252.461  
 20
9365.251  
 40
   24.250
  1
282
 50
    0.000
  0
LINE
  8
2
 10
11490.01  
 20
9533.003  
 11
11518.16  
 21
9533.003  
  0
LINE
  8
2
 10
11490.01  
 20
9173.264  
 11
11518.16  
 21
9173.264  
  0
LINE
  8
2
 10
11511.66  
 20
9533.003  
 11
11511.66  
 21
9173.264  
  0
INSERT
  8
2
  2
ARROW
 10
11511.66  
 20
9533.003  
 41
   8.524
 42
   8.524
 43
   8.524
 50
  90.000
  0
INSERT
  8
2
  2
ARROW
 10
11511.66  
 20
9173.264  
 41
   8.524
 42
   8.524
 43
   8.524
 50
 -90.000
  0
TEXT
  8
11
 7
SIMPLEX
 10
11526.24  
 20
9336.967  
 40
   24.250
  1
339
 50
    0.000
  0
INSERT
  8
6
  2
FLGHOL
 10
6402.404  
 20
9566.959  
 41
   0.384
 42
   0.426
 43
   0.426
 50
 -84.289
  0
INSERT
  8
6
  2
FLGHOL
 10
6408.437  
 20
9506.635  
 41
   0.384
 42
   0.426
 43
   0.426
 50
 -84.289
  0
INSERT
  8
6
  2
FLGHOL
 10
6433.378  
 20
9257.227  
 41
   0.384
 42
   0.426
 43
   0.426
 50
 -84.289
  0
INSERT
  8
6
  2
FLGHOL
 10
6439.410  
 20
9196.903  
 41
   0.384
 42
   0.426
 43
   0.426
 50
 -84.289
  0
INSERT
  8
6
  2
FLGHOL
 10
12665.39  
 20
9186.154  
 41
   0.384
 42
   0.426
 43
   0.426
 50
-174.289
  0
INSERT
  8
6
  2
FLGHOL
 10
12605.06  
 20
9180.122  
 41
   0.384
 42
   0.426
 43
   0.426
 50
-174.289
  0
INSERT
  8
6
  2
FLGHOL
 10
12290.32  
 20
9148.646  
 41
   0.384
 42
   0.426
 43
   0.426
 50
-174.289
  0
INSERT
  8
6
  2
FLGHOL
 10
12191.81  
 20
9138.796  
 41
   0.384
 42
   0.426
 43
   0.426
 50
-174.289
  0
INSERT
  8
1
  2
GRTCLPB
 10
6676.771  
 20
9542.745  
 41
  -0.256
 42
   0.256
 43
   0.256
 50
   0.000
  0
CIRCLE
  8
15
 10
  6680.020
 20
  9542.745
 40
     7.275
  0
INSERT
  8
1
  2
GRTCLPB
 10
8275.771  
 20
9542.745  
 41
  -0.256
 42
   0.256
 43
   0.256
 50
   0.000
  0
CIRCLE
  8
15
 10
  8279.020
 20
  9542.745
 40
     7.275
  0
TEXT
  8
3
 7
SIMPLEX
 10
8306.517  
 20
9576.017  
 40
   24.250
  1
CLF4(typ)
 50
    0.000
  0
LINE
  8
3
 10
8282.268  
 20
9571.976  
 11
8336.396  
 21
9571.976  
  0
INSERT
  8
3
  2
ARROWP
 10
8282.268  
 20
9571.976  
 41
   8.524
 42
   8.524
 43
   8.524
 50
 180.000
  0
INSERT
  8
1
  2
GRTCLPB
 10
9874.772  
 20
9542.744  
 41
  -0.256
 42
   0.256
 43
   0.256
 50
   0.000
  0
CIRCLE
  8
15
 10
  9878.021
 20
  9542.744
 40
     7.275
  0
INSERT
  8
1
  2
GRTCLPB
 10
11473.77  
 20
9542.744  
 41
  -0.256
 42
   0.256
 43
   0.256
 50
   0.000
  0
CIRCLE
  8
15
 10
 11477.020
 20
  9542.744
 40
     7.275
  0
INSERT
  8
1
  2
GRTCLPB
 10
12735.17  
 20
9542.744  
 41
   0.256
 42
   0.256
 43
   0.256
 50
   0.000
  0
CIRCLE
  8
15
 10
 12731.920
 20
  9542.744
 40
     7.275
  0
LINE
  8
1
 10
12821.87  
 20
9533.002  
 11
12620.30  
 21
9381.358  
  0
TEXT
  8
3
 7
SIMPLEX
 10
12651.04  
 20
9385.399  
 40
   24.250
  1
ES1
 50
    0.000
  0
LINE
  8
3
 10
12626.79  
 20
9381.358  
 11
12680.92  
 21
9381.358  
  0
INSERT
  8
3
  2
ARROWP
 10
12626.79  
 20
9381.358  
 41
   8.524
 42
   8.524
 43
   8.524
 50
 180.000
  0
INSERT
  8
7
  2
BRCCLP
 10
8279.020  
 20
9200.603  
 41
  -0.384
 42
   0.384
 43
   0.384
 50
   0.000
  0
CIRCLE
  8
15
 10
  8279.020
 20
  9200.603
 40
     7.275
  0
LINE
  8
1
 10
8288.762  
 20
9239.575  
 11
8288.763  
 21
9200.430  
  0
TEXT
  8
3
 7
SIMPLEX
 10
8030.311  
 20
9247.889  
 40
   24.250
  1
CLF1 (typ)
 50
   -1.013
  0
TEXT
  8
3
 7
SIMPLEX
 10
8029.667  
 20
9211.520  
 40
   24.250
  1
NS/FS
 50
   -1.013
  0
LINE
  8
3
 10
8272.697  
 20
9239.560  
 11
8218.577  
 21
9240.517  
  0
INSERT
  8
3
  2
ARROWP
 10
8272.697  
 20
9239.560  
 41
   8.524
 42
   8.524
 43
   8.524
 50
  -1.013
  0
INSERT
  8
7
  2
BRCCLP
 10
11477.02  
 20
9144.034  
 41
  -0.384
 42
   0.384
 43
   0.384
 50
   0.000
  0
CIRCLE
  8
15
 10
 11477.020
 20
  9144.034
 40
     7.275
  0
LINE
  8
1
 10
11486.76  
 20
9183.007  
 11
11486.76  
 21
9143.862  
  0
LINE
  8
9
 10
12237.81  
 20
9143.722  
 11
12237.83  
 21
9533.003  
  0
LINE
  8
9
 10
12237.83  
 20
9533.003  
 11
12244.32  
 21
9533.003  
  0
LINE
  8
9
 10
12244.32  
 20
9533.003  
 11
12244.31  
 21
9143.722  
  0
CIRCLE
  8
15
 10
 12237.814
 20
  9143.722
 40
     7.275
  0
TEXT
  8
3
 7
SIMPLEX
 10
12114.39  
 20
9284.523  
 40
   24.250
  1
ST4
 50
    0.004
  0
TEXT
  8
3
 7
SIMPLEX
 10
12114.39  
 20
9248.148  
 40
   24.250
  1
NS/FS
 50
    0.004
  0
LINE
  8
3
 10
12235.64  
 20
9280.489  
 11
12181.51  
 21
9280.485  
  0
INSERT
  8
3
  2
ARROWP
 10
12235.64  
 20
9280.489  
 41
   8.524
 42
   8.524
 43
   8.524
 50
   0.004
  0
LINE
  8
9
 10
6409.557  
 20
9604.229  
 11
6536.679  
 21
9542.745  
  0
TEXT
  8
3
 7
SIMPLEX
 10
6563.094  
 20
9584.021  
 40
   24.250
  1
SS9
 50
    0.000
  0
LINE
  8
3
 10
6538.844  
 20
9579.980  
 11
6592.973  
 21
9579.980  
  0
INSERT
  8
3
  2
ARROWP
 10
6538.844  
 20
9579.980  
 41
   8.524
 42
   8.524
 43
   8.524
 50
 180.000
  0
LINE
  8
9
 10
6567.635  
 20
9221.131  
 11
6453.801  
 21
9161.786  
  0
TEXT
  8
3
 7
SIMPLEX
 10
6594.118  
 20
9165.360  
 40
   24.250
  1
SS10
 50
   -1.013
  0
LINE
  8
3
 10
6569.800  
 20
9161.748  
 11
6623.920  
 21
9160.791  
  0
INSERT
  8
3
  2
ARROWP
 10
6569.800  
 20
9161.748  
 41
   8.524
 42
   8.524
 43
   8.524
 50
 178.987
  0
LINE
  8
9
 10
12633.83  
 20
9246.068  
 11
12701.58  
 21
9189.773  
  0
TEXT
  8
3
 7
SIMPLEX
 10
12678.65  
 20
9325.838  
 40
   24.250
  1
SS4
 50
  -84.289
  0
LINE
  8
3
 10
12681.87  
 20
9253.048  
 11
12676.49  
 21
9306.908  
  0
INSERT
  8
3
  2
ARROWP
 10
12681.87  
 20
9253.048  
 41
   8.524
 42
   8.524
 43
   8.524
 50
 -84.289
  0
LINE
  8
2
 10
6416.680  
 20
9615.237  
 11
6416.680  
 21
9878.344  
  0
LINE
  8
2
 10
12821.87  
 20
9615.237  
 11
12821.87  
 21
9878.343  
  0
LINE
  8
2
 10
6416.680  
 20
9871.848  
 11
12821.87  
 21
9871.847  
  0
INSERT
  8
2
  2
ARROW
 10
6416.680  
 20
9871.848  
 41
   8.524
 42
   8.524
 43
   8.524
 50
 180.000
  0
INSERT
  8
2
  2
ARROW
 10
12821.87  
 20
9871.847  
 41
   8.524
 42
   8.524
 43
   8.524
 50
   0.000
  0
TEXT
  8
11
 7
SIMPLEX
 10
9570.776  
 20
9879.930  
 40
   24.250
  1
6405
 50
    0.000
  0
LINE
  8
2
 10
12677.27  
 20
9540.215  
 11
12939.07  
 21
9566.396  
  0
LINE
  8
2
 10
12712.20  
 20
9190.837  
 11
12974.00  
 21
9217.018  
  0
LINE
  8
2
 10
12932.60  
 20
9565.749  
 11
12967.54  
 21
9216.371  
  0
INSERT
  8
2
  2
ARROW
 10
12932.60  
 20
9565.749  
 41
   8.524
 42
   8.524
 43
   8.524
 50
  95.711
  0
INSERT
  8
2
  2
ARROW
 10
12967.54  
 20
9216.371  
 41
   8.524
 42
   8.524
 43
   8.524
 50
 -84.289
  0
TEXT
  8
11
 7
SIMPLEX
 10
12955.10  
 20
9422.025  
 40
   24.250
  1
351
 50
  -84.289
  0
LINE
  8
3
 10
6446.506  
 20
9158.309  
 11
6444.859  
 21
9065.223  
  0
INSERT
  8
3
  2
ARROW
 10
6444.974  
 20
9071.717  
 41
   8.524
 42
   8.524
 43
   8.524
 50
 178.987
  0
LINE
  8
2
 10
6444.974  
 20
9071.717  
 11
12126.03  
 21
8971.228  
  0
LINE
  8
2
 10
12127.56  
 20
9057.820  
 11
12125.91  
 21
8964.733  
  0
INSERT
  8
2
  2
ARROW
 10
12126.03  
 20
8971.228  
 41
   8.524
 42
   8.524
 43
   8.524
 50
  -1.013
  0
TEXT
  8
11
 7
SIMPLEX
 10
9234.852  
 20
9030.452  
 40
   24.250
  1
5682
 50
   -1.013
  0
TEXT
  8
21
 7
SIMPLEX
 10
6145.255  
 20
9614.355  
 40
   24.250
  1
G=100
 50
    5.711
  0
TEXT
  8
21
 7
SIMPLEX
 10
6141.635  
 20
9650.550  
 40
   24.250
  1
D=22
 50
    5.711
  0
LINE
  8
2
 10
6368.623  
 20
9600.137  
 11
6334.153  
 21
9596.689  
  0
LINE
  8
2
 10
6372.243  
 20
9563.942  
 11
6337.772  
 21
9560.495  
  0
LINE
  8
2
 10
6340.616  
 20
9597.336  
 11
6344.235  
 21
9561.142  
  0
INSERT
  8
2
  2
ARROW
 10
6340.616  
 20
9597.336  
 41
   8.524
 42
   8.524
 43
   8.524
 50
  95.711
  0
INSERT
  8
2
  2
ARROW
 10
6344.235  
 20
9561.142  
 41
   8.524
 42
   8.524
 43
   8.524
 50
 -84.289
  0
TEXT
  8
11
 7
SIMPLEX
 10
6281.270  
 20
9556.876  
 40
   24.250
  1
50
 50
    5.711
  0
LINE
  8
2
 10
6378.275  
 20
9503.619  
 11
6343.805  
 21
9500.172  
  0
LINE
  8
2
 10
6348.113  
 20
9522.362  
 11
6350.268  
 21
9500.818  
  0
INSERT
  8
2
  2
ARROW
 10
6350.268  
 20
9500.818  
 41
   8.524
 42
   8.524
 43
   8.524
 50
 -84.289
  0
TEXT
  8
11
 7
SIMPLEX
 10
6274.634  
 20
9501.378  
 40
   24.250
  1
150
 50
    5.711
  0
LINE
  8
2
 10
6403.216  
 20
9254.210  
 11
6368.746  
 21
9250.763  
  0
LINE
  8
2
 10
6373.054  
 20
9272.953  
 11
6375.209  
 21
9251.409  
  0
INSERT
  8
2
  2
ARROW
 10
6375.209  
 20
9251.409  
 41
   8.524
 42
   8.524
 43
   8.524
 50
 -84.289
  0
TEXT
  8
11
 7
SIMPLEX
 10
6287.510  
 20
9250.763  
 40
   24.250
  1
350
 50
    5.711
  0
LINE
  8
2
 10
6409.248  
 20
9193.887  
 11
6374.778  
 21
9190.439  
  0
LINE
  8
2
 10
6379.086  
 20
9212.630  
 11
6381.241  
 21
9191.086  
  0
INSERT
  8
2
  2
ARROW
 10
6381.241  
 20
9191.086  
 41
   8.524
 42
   8.524
 43
   8.524
 50
 -84.289
  0
TEXT
  8
11
 7
SIMPLEX
 10
6293.542  
 20
9190.439  
 40
   24.250
  1
450
 50
    5.711
  0
TEXT
  8
21
 7
SIMPLEX
 10
12747.47  
 20
9096.445  
 40
   24.250
  1
G=100
 50
  -84.289
  0
TEXT
  8
21
 7
SIMPLEX
 10
12783.66  
 20
9100.064  
 40
   24.250
  1
D=22
 50
  -84.289
  0
LINE
  8
2
 10
12705.67  
 20
9148.840  
 11
12709.12  
 21
9114.369  
  0
LINE
  8
2
 10
12669.48  
 20
9145.221  
 11
12672.93  
 21
9110.750  
  0
LINE
  8
2
 10
12708.48  
 20
9120.832  
 11
12672.28  
 21
9117.213  
  0
INSERT
  8
2
  2
ARROW
 10
12708.48  
 20
9120.832  
 41
   8.524
 42
   8.524
 43
   8.524
 50
   5.711
  0
INSERT
  8
2
  2
ARROW
 10
12672.28  
 20
9117.213  
 41
   8.524
 42
   8.524
 43
   8.524
 50
-174.289
  0
TEXT
  8
11
 7
SIMPLEX
 10
12675.74  
 20
9102.907  
 40
   24.250
  1
50
 50
  -84.289
  0
LINE
  8
2
 10
12609.16  
 20
9139.188  
 11
12612.60  
 21
9104.717  
  0
LINE
  8
2
 10
12633.50  
 20
9113.334  
 11
12611.96  
 21
9111.180  
  0
INSERT
  8
2
  2
ARROW
 10
12611.96  
 20
9111.180  
 41
   8.524
 42
   8.524
 43
   8.524
 50
-174.289
  0
TEXT
  8
11
 7
SIMPLEX
 10
12621.45  
 20
9097.478  
 40
   24.250
  1
150
 50
  -84.289
  0
LINE
  8
2
 10
12294.41  
 20
9107.713  
 11
12297.86  
 21
9073.242  
  0
LINE
  8
2
 10
12318.75  
 20
9081.859  
 11
12297.21  
 21
9079.705  
  0
INSERT
  8
2
  2
ARROW
 10
12297.21  
 20
9079.705  
 41
   8.524
 42
   8.524
 43
   8.524
 50
-174.289
  0
TEXT
  8
11
 7
SIMPLEX
 10
12306.71  
 20
9066.003  
 40
   24.250
  1
450
 50
  -84.289
  0
LINE
  8
2
 10
12195.90  
 20
9097.862  
 11
12199.35  
 21
9063.392  
  0
LINE
  8
2
 10
12220.25  
 20
9072.009  
 11
12198.70  
 21
9069.854  
  0
INSERT
  8
2
  2
ARROW
 10
12198.70  
 20
9069.854  
 41
   8.524
 42
   8.524
 43
   8.524
 50
-174.289
  0
TEXT
  8
11
 7
SIMPLEX
 10
12208.20  
 20
9056.152  
 40
   24.250
  1
550
 50
  -84.289
  0
LINE
  8
2
 10
6426.103  
 20
9569.329  
 11
6458.418  
 21
9572.561  
  0
LINE
  8
2
 10
6429.606  
 20
9544.038  
 11
6461.922  
 21
9547.270  
  0
LINE
  8
2
 10
6451.955  
 20
9571.914  
 11
6455.458  
 21
9546.623  
  0
INSERT
  8
2
  2
ARROW
 10
6451.955  
 20
9571.914  
 41
   8.524
 42
   8.524
 43
   8.524
 50
  95.711
  0
INSERT
  8
2
  2
ARROW
 10
6455.458  
 20
9546.623  
 41
   8.524
 42
   8.524
 43
   8.524
 50
 -84.289
  0
TEXT
  8
11
 7
SIMPLEX
 10
6468.801  
 20
9549.971  
 40
   24.250
  1
46
 50
    5.711
  0
LINE
  8
2
 10
12638.78  
 20
9196.550  
 11
12635.55  
 21
9228.865  
  0
LINE
  8
2
 10
12664.09  
 20
9199.081  
 11
12660.86  
 21
9231.396  
  0
LINE
  8
2
 10
12636.19  
 20
9222.402  
 11
12661.51  
 21
9224.934  
  0
INSERT
  8
2
  2
ARROW
 10
12636.19  
 20
9222.402  
 41
   8.524
 42
   8.524
 43
   8.524
 50
 365.711
  0
INSERT
  8
2
  2
ARROW
 10
12661.51  
 20
9224.934  
 41
   8.524
 42
   8.524
 43
   8.524
 50
 185.711
  0
TEXT
  8
11
 7
SIMPLEX
 10
12668.75  
 20
9233.781  
 40
   24.250
  1
44
 50
    5.711
  0
LINE
  8
2
 10
6416.680  
 20
9662.911  
 11
6416.680  
 21
9706.214  
  0
LINE
  8
2
 10
6600.599  
 20
9662.911  
 11
6600.599  
 21
9706.214  
  0
LINE
  8
2
 10
6416.680  
 20
9699.718  
 11
6600.599  
 21
9699.718  
  0
INSERT
  8
2
  2
ARROW
 10
6416.680  
 20
9699.718  
 41
   8.524
 42
   8.524
 43
   8.524
 50
 180.000
  0
INSERT
  8
2
  2
ARROW
 10
6600.599  
 20
9699.718  
 41
   8.524
 42
   8.524
 43
   8.524
 50
   0.000
  0
TEXT
  8
11
 7
SIMPLEX
 10
6531.892  
 20
9707.801  
 40
   24.250
  1
184
 50
    0.000
  0
LINE
  8
2
 10
12407.35  
 20
9533.003  
 11
12379.21  
 21
9533.003  
  0
LINE
  8
2
 10
12407.35  
 20
9458.002  
 11
12379.21  
 21
9458.002  
  0
LINE
  8
2
 10
12385.70  
 20
9533.003  
 11
12385.70  
 21
9458.002  
  0
INSERT
  8
2
  2
ARROW
 10
12385.70  
 20
9533.003  
 41
   8.524
 42
   8.524
 43
   8.524
 50
  90.000
  0
INSERT
  8
2
  2
ARROW
 10
12385.70  
 20
9458.002  
 41
   8.524
 42
   8.524
 43
   8.524
 50
 -90.000
  0
TEXT
  8
11
 7
SIMPLEX
 10
12322.62  
 20
9479.336  
 40
   24.250
  1
75
 50
    0.000
  0
LINE
  8
2
 10
12420.34  
 20
9662.911  
 11
12420.34  
 21
9706.214  
  0
LINE
  8
2
 10
12394.36  
 20
9699.718  
 11
12420.34  
 21
9699.718  
  0
INSERT
  8
2
  2
ARROW
 10
12420.34  
 20
9699.718  
 41
   8.524
 42
   8.524
 43
   8.524
 50
   0.000
  0
TEXT
  8
11
 7
SIMPLEX
 10
12315.26  
 20
9707.801  
 40
   24.250
  1
6004
 50
    0.000
  0
LINE
  8
2
 10
12621.51  
 20
9271.317  
 11
12624.31  
 21
9243.311  
  0
LINE
  8
2
 10
12546.88  
 20
9263.854  
 11
12549.68  
 21
9235.847  
  0
LINE
  8
2
 10
12623.67  
 20
9249.773  
 11
12549.04  
 21
9242.311  
  0
INSERT
  8
2
  2
ARROW
 10
12623.67  
 20
9249.773  
 41
   8.524
 42
   8.524
 43
   8.524
 50
   5.711
  0
INSERT
  8
2
  2
ARROW
 10
12549.04  
 20
9242.311  
 41
   8.524
 42
   8.524
 43
   8.524
 50
-174.289
  0
TEXT
  8
11
 7
SIMPLEX
 10
12571.72  
 20
9229.927  
 40
   24.250
  1
75
 50
  -84.289
  0
LINE
  8
2
 10
12724.61  
 20
9545.929  
 11
12767.70  
 21
9550.238  
  0
LINE
  8
2
 10
12749.48  
 20
9297.170  
 11
12792.57  
 21
9301.479  
  0
LINE
  8
2
 10
12761.23  
 20
9549.592  
 11
12786.11  
 21
9300.832  
  0
INSERT
  8
2
  2
ARROW
 10
12761.23  
 20
9549.592  
 41
   8.524
 42
   8.524
 43
   8.524
 50
  95.711
  0
INSERT
  8
2
  2
ARROW
 10
12786.11  
 20
9300.832  
 41
   8.524
 42
   8.524
 43
   8.524
 50
 -84.289
  0
TEXT
  8
11
 7
SIMPLEX
 10
12786.11  
 20
9382.067  
 40
   24.250
  1
250
 50
  -84.289
  0
LINE
  8
2
 10
6416.680  
 20
9601.204  
 11
6416.680  
 21
9623.938  
  0
LINE
  8
2
 10
6680.020  
 20
9601.204  
 11
6680.020  
 21
9623.938  
  0
LINE
  8
2
 10
6416.680  
 20
9617.443  
 11
6680.020  
 21
9617.443  
  0
INSERT
  8
2
  2
ARROW
 10
6416.680  
 20
9617.443  
 41
   8.524
 42
   8.524
 43
   8.524
 50
 180.000
  0
INSERT
  8
2
  2
ARROW
 10
6680.020  
 20
9617.443  
 41
   8.524
 42
   8.524
 43
   8.524
 50
   0.000
  0
TEXT
  8
11
 7
SIMPLEX
 10
6511.975  
 20
9625.526  
 40
   24.250
  1
263
 50
    0.000
  0
LINE
  8
2
 10
8279.020  
 20
9601.204  
 11
8279.020  
 21
9623.938  
  0
LINE
  8
2
 10
8224.891  
 20
9617.443  
 11
8279.020  
 21
9617.443  
  0
INSERT
  8
2
  2
ARROW
 10
8279.020  
 20
9617.443  
 41
   8.524
 42
   8.524
 43
   8.524
 50
   0.000
  0
TEXT
  8
11
 7
SIMPLEX
 10
8186.062  
 20
9625.526  
 40
   24.250
  1
1862
 50
    0.000
  0
LINE
  8
2
 10
9878.021  
 20
9601.204  
 11
9878.021  
 21
9623.938  
  0
LINE
  8
2
 10
9823.892  
 20
9617.442  
 11
9878.021  
 21
9617.442  
  0
INSERT
  8
2
  2
ARROW
 10
9878.021  
 20
9617.442  
 41
   8.524
 42
   8.524
 43
   8.524
 50
   0.000
  0
TEXT
  8
11
 7
SIMPLEX
 10
9785.063  
 20
9625.525  
 40
   24.250
  1
3461
 50
    0.000
  0
LINE
  8
2
 10
11477.02  
 20
9601.204  
 11
11477.02  
 21
9623.938  
  0
LINE
  8
2
 10
11422.89  
 20
9617.442  
 11
11477.02  
 21
9617.442  
  0
INSERT
  8
2
  2
ARROW
 10
11477.02  
 20
9617.442  
 41
   8.524
 42
   8.524
 43
   8.524
 50
   0.000
  0
TEXT
  8
11
 7
SIMPLEX
 10
11371.94  
 20
9625.525  
 40
   24.250
  1
5060
 50
    0.000
  0
LINE
  8
2
 10
12731.92  
 20
9601.204  
 11
12731.92  
 21
9623.938  
  0
LINE
  8
2
 10
12677.79  
 20
9617.442  
 11
12731.92  
 21
9617.442  
  0
INSERT
  8
2
  2
ARROW
 10
12731.92  
 20
9617.442  
 41
   8.524
 42
   8.524
 43
   8.524
 50
   0.000
  0
TEXT
  8
11
 7
SIMPLEX
 10
12638.96  
 20
9625.525  
 40
   24.250
  1
6315
 50
    0.000
  0
INSERT
  8
15
  2
CIRCLE
 10
6404.826  
 20
9542.745  
 41
   0.426
 42
   0.426
 43
   0.426
 50
   0.000
  0
INSERT
  8
15
  2
CIRCLE
 10
6436.755  
 20
9223.446  
 41
   0.426
 42
   0.426
 43
   0.426
 50
   0.000
  0
INSERT
  8
15
  2
CIRCLE
 10
12133.94  
 20
9122.129  
 41
   0.426
 42
   0.426
 43
   0.426
 50
   0.000
  0
INSERT
  8
15
  2
CIRCLE
 10
12641.15  
 20
9172.851  
 41
   0.426
 42
   0.426
 43
   0.426
 50
   0.000
  0
INSERT
  8
15
  2
CIRCLE
 10
12604.16  
 20
9542.744  
 41
   0.426
 42
   0.426
 43
   0.426
 50
   0.000
  0
LINE
  8
2
 10
6404.826  
 20
9615.237  
 11
6404.826  
 21
9932.472  
  0
LINE
  8
2
 10
12604.16  
 20
9615.237  
 11
12604.16  
 21
9932.471  
  0
LINE
  8
2
 10
6404.826  
 20
9925.977  
 11
12604.16  
 21
9925.976  
  0
INSERT
  8
2
  2
ARROW
 10
6404.826  
 20
9925.977  
 41
   8.524
 42
   8.524
 43
   8.524
 50
 180.000
  0
INSERT
  8
2
  2
ARROW
 10
12604.16  
 20
9925.976  
 41
   8.524
 42
   8.524
 43
   8.524
 50
   0.000
  0
TEXT
  8
11
 7
SIMPLEX
 10
9462.057  
 20
9934.060  
 40
   24.250
  1
6201
 50
    0.000
  0
LINE
  8
2
 10
6416.680  
 20
9605.495  
 11
6416.680  
 21
9734.361  
  0
LINE
  8
2
 10
6470.808  
 20
9727.866  
 11
6416.680  
 21
9727.866  
  0
INSERT
  8
2
  2
ARROW
 10
6416.680  
 20
9727.866  
 41
   8.524
 42
   8.524
 43
   8.524
 50
 180.000
  0
LINE
  8
2
 10
12237.81  
 20
9587.131  
 11
12237.81  
 21
9734.360  
  0
LINE
  8
2
 10
12183.69  
 20
9727.865  
 11
12237.81  
 21
9727.865  
  0
INSERT
  8
2
  2
ARROW
 10
12237.81  
 20
9727.865  
 41
   8.524
 42
   8.524
 43
   8.524
 50
   0.000
  0
TEXT
  8
11
 7
SIMPLEX
 10
12144.86  
 20
9735.948  
 40
   24.250
  1
5812
 50
    0.000
  0
LINE
  8
3
 10
6416.680  
 20
9607.699  
 11
6416.680  
 21
9824.214  
  0
LINE
  8
3
 10
6416.680  
 20
9759.260  
 11
6271.182  
 21
9759.260  
  0
INSERT
  8
3
  2
ARROW
 10
6416.680  
 20
9759.260  
 41
   8.524
 42
   8.524
 43
   8.524
 50
   0.000
  0
TEXT
  8
3
 7
SIMPLEX
 10
6295.432  
 20
9765.322  
 40
   24.250
  1
Tape
 50
    0.000
  0
TEXT
  8
3
 7
SIMPLEX
 10
6295.432  
 20
9728.948  
 40
   24.250
  1
(Typ)
 50
    0.000
  0
ENDBLK
  8
2
  0
BLOCK
  8
0
  2
ASMPLATE
 70
     0
 10
0.000     
 20
0.000     
  0
LINE
  8
14
 10
0.000     
 20
0.000     
 11
186.690   
 21
0.000     
  0
LINE
  8
14
 10
0.000     
 20
8.096     
 11
186.690   
 21
8.096     
  0
LINE
  8
14
 10
0.000     
 20
0.000     
 11
0.000     
 21
104.775   
  0
LINE
  8
14
 10
0.000     
 20
104.775   
 11
186.690   
 21
104.775   
  0
LINE
  8
14
 10
45.720    
 20
8.096     
 11
45.720    
 21
104.775   
  0
LINE
  8
14
 10
60.960    
 20
8.096     
 11
60.960    
 21
104.775   
  0
LINE
  8
14
 10
156.210   
 20
8.096     
 11
156.210   
 21
104.775   
  0
LINE
  8
14
 10
156.210   
 20
8.096     
 11
156.210   
 21
104.775   
  0
LINE
  8
14
 10
186.690   
 20
8.096     
 11
186.690   
 21
104.775   
  0
LINE
  8
14
 10
186.690   
 20
0.000     
 11
186.690   
 21
104.775   
  0
LINE
  8
14
 10
0.000     
 20
95.250    
 11
186.690   
 21
95.250    
  0
TEXT
  8
14
 7
SIMPLEX
 10
1.143     
 20
97.536    
 40
    3.810
  1
MARK
 50
    0.000
  0
TEXT
  8
14
 7
SIMPLEX
 10
47.625    
 20
97.536    
 40
    3.810
  1
QNT
 50
    0.000
  0
TEXT
  8
14
 7
SIMPLEX
 10
72.390    
 20
97.536    
 40
    3.810
  1
DESCRIPTION
 50
    0.000
  0
TEXT
  8
14
 7
SIMPLEX
 10
158.115   
 20
97.536    
 40
    3.810
  1
WEIGHT
 50
    0.000
  0
LINE
  8
14
 10
0.000     
 20
88.583    
 11
186.690   
 21
88.583    
  0
TEXT
  8
14
 7
SIMPLEX
 10
2.667     
 20
89.535    
 40
    3.810
  1
WB2
 50
    0.000
  0
TEXT
  8
14
 7
SIMPLEX
 10
45.910    
 20
89.535    
 40
    3.810
  1
  1
 50
    0.000
  0
TEXT
  8
14
 7
SIMPLEX
 10
63.627    
 20
89.535    
 40
    3.810
  1
4    x 400 x 6214
 50
    0.000
  0
TEXT
  8
14
 7
SIMPLEX
 10
182.880   
 20
89.535    
 40
    3.810
 72
  2
 11
182.880   
 21
89.535    
  1
   69.7
 50
    0.000
  0
LINE
  8
14
 10
0.000     
 20
82.868    
 11
186.690   
 21
82.868    
  0
TEXT
  8
14
 7
SIMPLEX
 10
2.667     
 20
83.820    
 40
    3.810
  1
OF5
 50
    0.000
  0
TEXT
  8
14
 7
SIMPLEX
 10
45.910    
 20
83.820    
 40
    3.810
  1
  1
 50
    0.000
  0
TEXT
  8
14
 7
SIMPLEX
 10
63.627    
 20
83.820    
 40
    3.810
  1
6    x 125 x 6405
 50
    0.000
  0
TEXT
  8
14
 7
SIMPLEX
 10
182.880   
 20
83.820    
 40
    3.810
 72
  2
 11
182.880   
 21
83.820    
  1
   38.4
 50
    0.000
  0
LINE
  8
14
 10
0.000     
 20
77.153    
 11
186.690   
 21
77.153    
  0
TEXT
  8
14
 7
SIMPLEX
 10
2.667     
 20
78.105    
 40
    3.810
  1
OF6
 50
    0.000
  0
TEXT
  8
14
 7
SIMPLEX
 10
45.910    
 20
78.105    
 40
    3.810
  1
  1
 50
    0.000
  0
TEXT
  8
14
 7
SIMPLEX
 10
63.627    
 20
78.105    
 40
    3.810
  1
6    x 125 x 351
 50
    0.000
  0
TEXT
  8
14
 7
SIMPLEX
 10
182.880   
 20
78.105    
 40
    3.810
 72
  2
 11
182.880   
 21
78.105    
  1
    2.1
 50
    0.000
  0
LINE
  8
14
 10
0.000     
 20
71.438    
 11
186.690   
 21
71.438    
  0
TEXT
  8
14
 7
SIMPLEX
 10
2.667     
 20
72.390    
 40
    3.810
  1
IF4
 50
    0.000
  0
TEXT
  8
14
 7
SIMPLEX
 10
45.910    
 20
72.390    
 40
    3.810
  1
  1
 50
    0.000
  0
TEXT
  8
14
 7
SIMPLEX
 10
63.627    
 20
72.390    
 40
    3.810
  1
6    x 125 x 5682
 50
    0.000
  0
TEXT
  8
14
 7
SIMPLEX
 10
182.880   
 20
72.390    
 40
    3.810
 72
  2
 11
182.880   
 21
72.390    
  1
   34.1
 50
    0.000
  0
LINE
  8
14
 10
0.000     
 20
65.723    
 11
186.690   
 21
65.723    
  0
TEXT
  8
14
 7
SIMPLEX
 10
2.667     
 20
66.675    
 40
    3.810
  1
EP3
 50
    0.000
  0
TEXT
  8
14
 7
SIMPLEX
 10
45.910    
 20
66.675    
 40
    3.810
  1
  1
 50
    0.000
  0
TEXT
  8
14
 7
SIMPLEX
 10
63.627    
 20
66.675    
 40
    3.810
  1
16   x 200 x 501
 50
    0.000
  0
TEXT
  8
14
 7
SIMPLEX
 10
182.880   
 20
66.675    
 40
    3.810
 72
  2
 11
182.880   
 21
66.675    
  1
   12.8
 50
    0.000
  0
LINE
  8
14
 10
0.000     
 20
60.008    
 11
186.690   
 21
60.008    
  0
TEXT
  8
14
 7
SIMPLEX
 10
2.667     
 20
60.960    
 40
    3.810
  1
EP2
 50
    0.000
  0
TEXT
  8
14
 7
SIMPLEX
 10
45.910    
 20
60.960    
 40
    3.810
  1
  1
 50
    0.000
  0
TEXT
  8
14
 7
SIMPLEX
 10
63.627    
 20
60.960    
 40
    3.810
  1
16   x 200 x 600
 50
    0.000
  0
TEXT
  8
14
 7
SIMPLEX
 10
182.880   
 20
60.960    
 40
    3.810
 72
  2
 11
182.880   
 21
60.960    
  1
   15.4
 50
    0.000
  0
LINE
  8
14
 10
0.000     
 20
54.293    
 11
186.690   
 21
54.293    
  0
TEXT
  8
14
 7
SIMPLEX
 10
2.667     
 20
55.245    
 40
    3.810
  1
ST4
 50
    0.000
  0
TEXT
  8
14
 7
SIMPLEX
 10
45.910    
 20
55.245    
 40
    3.810
  1
  2
 50
    0.000
  0
TEXT
  8
14
 7
SIMPLEX
 10
63.627    
 20
55.245    
 40
    3.810
  1
10   x 60  x 360
 50
    0.000
  0
TEXT
  8
14
 7
SIMPLEX
 10
182.880   
 20
55.245    
 40
    3.810
 72
  2
 11
182.880   
 21
55.245    
  1
    3.5
 50
    0.000
  0
LINE
  8
14
 10
0.000     
 20
48.578    
 11
186.690   
 21
48.578    
  0
TEXT
  8
14
 7
SIMPLEX
 10
2.667     
 20
49.530    
 40
    3.810
  1
ES1
 50
    0.000
  0
TEXT
  8
14
 7
SIMPLEX
 10
45.910    
 20
49.530    
 40
    3.810
  1
  1
 50
    0.000
  0
TEXT
  8
14
 7
SIMPLEX
 10
63.627    
 20
49.530    
 40
    3.810
  1
5    x 230 x 115
 50
    0.000
  0
TEXT
  8
14
 7
SIMPLEX
 10
182.880   
 20
49.530    
 40
    3.810
 72
  2
 11
182.880   
 21
49.530    
  1
    1.1
 50
    0.000
  0
LINE
  8
14
 10
0.000     
 20
42.863    
 11
186.690   
 21
42.863    
  0
TEXT
  8
14
 7
SIMPLEX
 10
2.667     
 20
43.815    
 40
    3.810
  1
SS9
 50
    0.000
  0
TEXT
  8
14
 7
SIMPLEX
 10
45.910    
 20
43.815    
 40
    3.810
  1
  1
 50
    0.000
  0
TEXT
  8
14
 7
SIMPLEX
 10
63.627    
 20
43.815    
 40
    3.810
  1
5    x 120 x 108
 50
    0.000
  0
TEXT
  8
14
 7
SIMPLEX
 10
182.880   
 20
43.815    
 40
    3.810
 72
  2
 11
182.880   
 21
43.815    
  1
    0.5
 50
    0.000
  0
LINE
  8
14
 10
0.000     
 20
37.148    
 11
186.690   
 21
37.148    
  0
TEXT
  8
14
 7
SIMPLEX
 10
2.667     
 20
38.100    
 40
    3.810
  1
SS10
 50
    0.000
  0
TEXT
  8
14
 7
SIMPLEX
 10
45.910    
 20
38.100    
 40
    3.810
  1
  1
 50
    0.000
  0
TEXT
  8
14
 7
SIMPLEX
 10
63.627    
 20
38.100    
 40
    3.810
  1
5    x 120 x 92
 50
    0.000
  0
TEXT
  8
14
 7
SIMPLEX
 10
182.880   
 20
38.100    
 40
    3.810
 72
  2
 11
182.880   
 21
38.100    
  1
    0.4
 50
    0.000
  0
LINE
  8
14
 10
0.000     
 20
31.433    
 11
186.690   
 21
31.433    
  0
TEXT
  8
14
 7
SIMPLEX
 10
2.667     
 20
32.385    
 40
    3.810
  1
SS4
 50
    0.000
  0
TEXT
  8
14
 7
SIMPLEX
 10
45.910    
 20
32.385    
 40
    3.810
  1
  1
 50
    0.000
  0
TEXT
  8
14
 7
SIMPLEX
 10
63.627    
 20
32.385    
 40
    3.810
  1
5    x 120 x 94
 50
    0.000
  0
TEXT
  8
14
 7
SIMPLEX
 10
182.880   
 20
32.385    
 40
    3.810
 72
  2
 11
182.880   
 21
32.385    
  1
    0.4
 50
    0.000
  0
LINE
  8
14
 10
0.000     
 20
25.718    
 11
186.690   
 21
25.718    
  0
TEXT
  8
14
 7
SIMPLEX
 10
2.667     
 20
26.670    
 40
    3.810
  1
CLF1
 50
    0.000
  0
TEXT
  8
14
 7
SIMPLEX
 10
45.910    
 20
26.670    
 40
    3.810
  1
  4
 50
    0.000
  0
TEXT
  8
14
 7
SIMPLEX
 10
63.627    
 20
26.670    
 40
    3.810
  1
5    x 75  x 75
 50
    0.000
  0
TEXT
  8
14
 7
SIMPLEX
 10
182.880   
 20
26.670    
 40
    3.810
 72
  2
 11
182.880   
 21
26.670    
  1
    0.9
 50
    0.000
  0
LINE
  8
14
 10
0.000     
 20
20.003    
 11
186.690   
 21
20.003    
  0
TEXT
  8
14
 7
SIMPLEX
 10
2.667     
 20
20.955    
 40
    3.810
  1
CLF4
 50
    0.000
  0
TEXT
  8
14
 7
SIMPLEX
 10
45.910    
 20
20.955    
 40
    3.810
  1
  5
 50
    0.000
  0
TEXT
  8
14
 7
SIMPLEX
 10
63.627    
 20
20.955    
 40
    3.810
  1
5    x 150 x 175
 50
    0.000
  0
TEXT
  8
14
 7
SIMPLEX
 10
182.880   
 20
20.955    
 40
    3.810
 72
  2
 11
182.880   
 21
20.955    
  1
    5.2
 50
    0.000
  0
LINE
  8
14
 10
0.000     
 20
14.288    
 11
186.690   
 21
14.288    
  0
LINE
  8
14
 10
0.000     
 20
8.573     
 11
186.690   
 21
8.573     
  0
TEXT
  8
14
 7
SIMPLEX
 10
63.627    
 20
2.286     
 40
    3.810
  1
Weight Sum
 50
    0.000
  0
TEXT
  8
14
 7
SIMPLEX
 10
182.880   
 20
2.286     
 40
    3.810
 72
  2
 11
182.880   
 21
2.286     
  1
  184.5
 50
    0.000
  0
ENDBLK
  8
0
  0
BLOCK
  8
2
  2
ASMTITLE
 70
     0
 10
0.000     
 20
0.000     
  0
LINE
  8
0
 10
0.000     
 20
10.160    
 11
91.440    
 21
10.160    
  0
LINE
  8
0
 10
0.000     
 20
20.320    
 11
91.440    
 21
20.320    
  0
LINE
  8
0
 10
0.000     
 20
30.480    
 11
91.440    
 21
30.480    
  0
LINE
  8
0
 10
91.440    
 20
0.000     
 11
91.440    
 21
30.480    
  0
LINE
  8
0
 10
0.000     
 20
30.480    
 11
0.000     
 21
0.000     
  0
LINE
  8
0
 10
30.480    
 20
20.320    
 11
30.480    
 21
0.000     
  0
LINE
  8
0
 10
60.960    
 20
20.320    
 11
60.960    
 21
0.000     
  0
LINE
  8
0
 10
0.000     
 20
0.000     
 11
91.440    
 21
0.000     
  0
TEXT
  8
0
 7
SIMPLEX
 10
7.620     
 20
17.780    
 40
    1.143
  1
JOB
 50
    0.000
  0
TEXT
  8
0
 7
SIMPLEX
 10
7.620     
 20
7.620     
 40
    1.143
  1
QUANTITY
 50
    0.000
  0
TEXT
  8
0
 7
SIMPLEX
 10
38.100    
 20
27.940    
 40
    1.143
  1
CUSTOMER
 50
    0.000
  0
TEXT
  8
0
 7
SIMPLEX
 10
38.100    
 20
17.780    
 40
    1.143
  1
CHECKED BY
 50
    0.000
  0
TEXT
  8
0
 7
SIMPLEX
 10
38.100    
 20
7.620     
 40
    1.143
  1
PART
 50
    0.000
  0
TEXT
  8
0
 7
SIMPLEX
 10
68.580    
 20
17.780    
 40
    1.143
  1
DATE
 50
    0.000
  0
TEXT
  8
0
 7
SIMPLEX
 10
68.580    
 20
7.620     
 40
    1.143
  1
DRAWING
 50
    0.000
  0
TEXT
  8
0
 7
SIMPLEX
 10
46.457    
 20
22.860    
 40
    3.607
  1
 
 50
    0.000
  0
TEXT
  8
0
 7
SIMPLEX
 10
2.540     
 20
12.700    
 40
    3.607
  1
C463-002
 50
    0.000
  0
TEXT
  8
0
 7
SIMPLEX
 10
2.540     
 20
2.540     
 40
    3.607
  1
  2
 50
    0.000
  0
TEXT
  8
0
 7
SIMPLEX
 10
33.020    
 20
2.540     
 40
    3.607
  1
RF2-2
 50
    0.000
  0
TEXT
  8
0
 7
SIMPLEX
 10
62.230    
 20
12.700    
 40
    3.607
  1
18/DEC/2025
 50
    0.000
  0
TEXT
  8
0
 7
SIMPLEX
 10
62.230    
 20
2.540     
 40
    3.607
  1
RF2-2
 50
    0.000
  0
ENDBLK
  8
2
  0
BLOCK
  8
2
  2
ASMSECTN
 70
     0
 10
0.000     
 20
0.000     
  0
LINE
  8
1
 10
-6.350    
 20
0.000     
 11
6.350     
 21
0.000     
  0
LINE
  8
1
 10
-6.350    
 20
0.000     
 11
-6.350    
 21
1.270     
  0
LINE
  8
1
 10
6.350     
 20
0.000     
 11
6.350     
 21
1.270     
  0
LINE
  8
1
 10
-6.350    
 20
1.270     
 11
6.350     
 21
1.270     
  0
LINE
  8
1
 10
-6.350    
 20
27.940    
 11
6.350     
 21
27.940    
  0
LINE
  8
1
 10
-6.350    
 20
27.940    
 11
-6.350    
 21
26.670    
  0
LINE
  8
1
 10
6.350     
 20
27.940    
 11
6.350     
 21
26.670    
  0
LINE
  8
1
 10
-6.350    
 20
26.670    
 11
6.350     
 21
26.670    
  0
LINE
  8
1
 10
-0.508    
 20
1.270     
 11
-0.508    
 21
26.670    
  0
LINE
  8
1
 10
0.508     
 20
1.270     
 11
0.508     
 21
26.670    
  0
TEXT
  8
3
 7
SIMPLEX
 10
-24.841   
 20
6.858     
 40
    2.845
  1
NS
 50
    0.000
  0
TEXT
  8
3
 7
SIMPLEX
 10
21.996    
 20
6.858     
 40
    2.845
  1
FS
 50
    0.000
  0
LINE
  8
13
 10
0.762     
 20
6.604     
 11
5.842     
 21
6.604     
  0
LINE
  8
13
 10
5.842     
 20
6.604     
 11
5.842     
 21
1.524     
  0
LINE
  8
13
 10
5.842     
 20
1.524     
 11
1.524     
 21
1.524     
  0
LINE
  8
13
 10
0.762     
 20
2.286     
 11
0.762     
 21
6.604     
  0
LINE
  8
13
 10
0.762     
 20
2.286     
 11
1.524     
 21
1.524     
  0
LINE
  8
13
 10
-0.762    
 20
6.604     
 11
-5.842    
 21
6.604     
  0
LINE
  8
13
 10
-5.842    
 20
6.604     
 11
-5.842    
 21
1.524     
  0
LINE
  8
13
 10
-5.842    
 20
1.524     
 11
-1.524    
 21
1.524     
  0
LINE
  8
13
 10
-0.762    
 20
2.286     
 11
-0.762    
 21
6.604     
  0
LINE
  8
13
 10
-0.762    
 20
2.286     
 11
-1.524    
 21
1.524     
  0
INSERT
  8
1
  2
CIRCLE
 10
3.302     
 20
4.064     
 41
   0.060
 42
   0.060
 43
   0.060
 50
   0.000
  0
INSERT
  8
1
  2
CIRCLE
 10
-3.302    
 20
4.064     
 41
   0.060
 42
   0.060
 43
   0.060
 50
   0.000
  0
LINE
  8
3
 10
-7.112    
 20
4.064     
 11
-12.192   
 21
4.064     
  0
LINE
  8
3
 10
-7.112    
 20
1.524     
 11
-12.192   
 21
1.524     
  0
LINE
  8
3
 10
-10.922   
 20
1.524     
 11
-10.922   
 21
4.064     
  0
INSERT
  8
1
  2
ARROW
 10
-10.922   
 20
1.524     
 41
   1.000
 42
   1.000
 43
   1.000
 50
  90.000
  0
INSERT
  8
1
  2
ARROW
 10
-10.922   
 20
4.064     
 41
   1.000
 42
   1.000
 43
   1.000
 50
 270.000
  0
TEXT
  8
3
 7
SIMPLEX
 10
-18.068   
 20
1.964     
 40
    2.845
  1
50
 50
    0.000
  0
LINE
  8
3
 10
-3.302    
 20
7.112     
 11
-3.302    
 21
9.144     
  0
LINE
  8
3
 10
-0.508    
 20
7.874     
 11
-0.508    
 21
9.144     
  0
LINE
  8
3
 10
-3.302    
 20
7.874     
 11
-0.508    
 21
7.874     
  0
INSERT
  8
1
  2
ARROW
 10
-3.302    
 20
7.874     
 41
   1.000
 42
   1.000
 43
   1.000
 50
   0.000
  0
INSERT
  8
1
  2
ARROW
 10
-0.508    
 20
7.874     
 41
   1.000
 42
   1.000
 43
   1.000
 50
 180.000
  0
TEXT
  8
3
 7
SIMPLEX
 10
-9.940    
 20
8.568     
 40
    2.845
  1
50
 50
    0.000
  0
LINE
  8
3
 10
7.112     
 20
3.810     
 11
17.272    
 21
3.810     
  0
INSERT
  8
3
  2
ARROWP
 10
7.112     
 20
3.810     
 41
   1.000
 42
   1.000
 43
   1.000
 50
 180.000
  0
TEXT
  8
1
 7
SIMPLEX
 10
10.160    
 20
4.572     
 40
    2.845
  1
CLF1
 50
    0.000
  0
TEXT
  8
21
 7
SIMPLEX
 10
9.550     
 20
-0.457    
 40
    2.845
  1
D=14
 50
    0.000
  0
LINE
  8
13
 10
-5.080    
 20
28.194    
 11
5.080     
 21
28.194    
  0
LINE
  8
13
 10
5.080     
 20
28.194    
 11
5.080     
 21
43.434    
  0
LINE
  8
13
 10
5.080     
 20
43.434    
 11
-5.080    
 21
43.434    
  0
LINE
  8
13
 10
-5.080    
 20
43.434    
 11
-5.080    
 21
28.194    
  0
INSERT
  8
1
  2
CIRCLE
 10
-2.540    
 20
33.274    
 41
   0.060
 42
   0.060
 43
   0.060
 50
   0.000
  0
INSERT
  8
1
  2
CIRCLE
 10
2.540     
 20
33.274    
 41
   0.060
 42
   0.060
 43
   0.060
 50
   0.000
  0
INSERT
  8
1
  2
CIRCLE
 10
-2.540    
 20
40.894    
 41
   0.060
 42
   0.060
 43
   0.060
 50
   0.000
  0
INSERT
  8
1
  2
CIRCLE
 10
2.540     
 20
40.894    
 41
   0.060
 42
   0.060
 43
   0.060
 50
   0.000
  0
LINE
  8
3
 10
-2.540    
 20
44.704    
 11
-2.540    
 21
47.244    
  0
LINE
  8
3
 10
2.540     
 20
44.704    
 11
2.540     
 21
47.244    
  0
LINE
  8
3
 10
-2.540    
 20
45.974    
 11
2.540     
 21
45.974    
  0
INSERT
  8
1
  2
ARROW
 10
-2.540    
 20
45.974    
 41
   1.000
 42
   1.000
 43
   1.000
 50
 180.000
  0
INSERT
  8
1
  2
ARROW
 10
2.540     
 20
45.974    
 41
   1.000
 42
   1.000
 43
   1.000
 50
   0.000
  0
TEXT
  8
3
 7
SIMPLEX
 10
-1.592    
 20
46.922    
 40
    2.845
  1
100
 50
    0.000
  0
LINE
  8
3
 10
7.620     
 20
27.940    
 11
12.700    
 21
27.940    
  0
LINE
  8
3
 10
6.350     
 20
33.274    
 11
12.700    
 21
33.274    
  0
LINE
  8
3
 10
11.430    
 20
27.940    
 11
11.430    
 21
40.894    
  0
LINE
  8
3
 10
6.350     
 20
40.894    
 11
12.700    
 21
40.894    
  0
INSERT
  8
1
  2
ARROW
 10
11.430    
 20
40.894    
 41
   1.000
 42
   1.000
 43
   1.000
 50
  90.000
  0
INSERT
  8
1
  2
ARROW
 10
11.430    
 20
33.274    
 41
   1.000
 42
   1.000
 43
   1.000
 50
 270.000
  0
INSERT
  8
1
  2
ARROW
 10
11.430    
 20
33.274    
 41
   1.000
 42
   1.000
 43
   1.000
 50
  90.000
  0
INSERT
  8
1
  2
ARROW
 10
11.430    
 20
27.940    
 41
   1.000
 42
   1.000
 43
   1.000
 50
 270.000
  0
TEXT
  8
3
 7
SIMPLEX
 10
12.378    
 20
30.158    
 40
    2.845
  1
50
 50
    0.000
  0
TEXT
  8
3
 7
SIMPLEX
 10
12.378    
 20
36.508    
 40
    2.845
  1
100
 50
    0.000
  0
LINE
  8
3
 10
-6.350    
 20
38.100    
 11
-16.510   
 21
38.100    
  0
INSERT
  8
3
  2
ARROWP
 10
-6.350    
 20
38.100    
 41
   1.000
 42
   1.000
 43
   1.000
 50
   0.000
  0
TEXT
  8
1
 7
SIMPLEX
 10
-17.780   
 20
38.862    
 40
    2.845
  1
CLF4
 50
    0.000
  0
TEXT
  8
21
 7
SIMPLEX
 10
-23.571   
 20
33.833    
 40
    2.845
  1
D=14
 50
    0.000
  0
INSERT
  8
4
  2
ARROWP
 10
9.195     
 20
-1.422    
 41
   1.500
 42
   1.500
 43
   1.500
 50
 135.000
  0
LINE
  8
4
 10
9.195     
 20
-1.422    
 11
14.315    
 21
-6.543    
  0
LINE
  8
4
 10
14.315    
 20
-6.543    
 11
33.091    
 21
-6.543    
  0
TEXT
  8
5
 7
SIMPLEX
 10
17.160    
 20
-5.595    
 40
    2.845
  1
4
 50
    0.000
  0
LINE
  8
4
 10
33.091    
 20
-6.543    
 11
33.945    
 21
-6.543    
  0
LINE
  8
4
 10
33.945    
 20
-6.543    
 11
37.358    
 21
-4.552    
  0
LINE
  8
4
 10
33.945    
 20
-6.543    
 11
37.358    
 21
-8.534    
  0
TEXT
  8
4
 7
SIMPLEX
 10
36.647    
 20
-7.965    
 40
    2.845
  1
Clips
 50
    0.000
  0
LINE
  8
4
 10
29.535    
 20
-3.698    
 11
32.380    
 21
-6.543    
  0
LINE
  8
4
 10
29.535    
 20
-6.543    
 11
29.535    
 21
-3.698    
  0
ENDBLK
  8
2
  0
BLOCK
  8
2
  2
ASMBOLT
 70
     0
 10
0.000     
 20
0.000     
  0
TEXT
  8
21
 7
SIMPLEX
 10
0.000     
 20
5.715     
 40
    3.810
  1
D=DIAMETER
 50
    0.000
  0
TEXT
  8
21
 7
SIMPLEX
 10
0.000     
 20
0.000     
 40
    3.810
  1
G=GAGE
 50
    0.000
  0
ENDBLK
  8
2
  0
BLOCK
  8
2
  2
ASMVIEW
 70
     0
 10
0.000     
 20
0.000     
  0
LINE
  8
21
 10
0.000     
 20
0.000     
 11
30.480    
 21
0.000     
  0
INSERT
  8
21
  2
ARROWP
 10
0.000     
 20
0.000     
 41
   1.000
 42
   1.000
 43
   1.000
 50
 180.000
  0
TEXT
  8
21
 7
SIMPLEX
 10
0.000     
 20
0.953     
 40
    3.810
  1
View for
 50
    0.000
  0
TEXT
  8
21
 7
SIMPLEX
 10
0.000     
 20
-4.762    
 40
    3.810
  1
Section
 50
    0.000
  0
ENDBLK
  8
2
  0
BLOCK
  8
0
  2
ASMSLOT
 70
     0
 10
0.000     
 20
0.000     
  0
LINE
  8
0
 10
0.000     
 20
0.000     
 11
57.150    
 21
0.000     
  0
LINE
  8
0
 10
57.150    
 20
0.000     
 11
57.150    
 21
22.860    
  0
LINE
  8
0
 10
57.150    
 20
22.860    
 11
0.000     
 21
22.860    
  0
LINE
  8
0
 10
0.000     
 20
22.860    
 11
0.000     
 21
0.000     
  0
LINE
  8
0
 10
0.000     
 20
15.240    
 11
57.150    
 21
15.240    
  0
LINE
  8
0
 10
0.000     
 20
7.620     
 11
57.150    
 21
7.620     
  0
LINE
  8
0
 10
10.478    
 20
0.000     
 11
10.478    
 21
15.240    
  0
LINE
  8
0
 10
57.150    
 20
0.000     
 11
57.150    
 21
15.240    
  0
TEXT
  8
0
 7
SIMPLEX
 10
0.953     
 20
17.145    
 40
    3.810
  1
SLOT TABLE
 50
    0.000
  0
TEXT
  8
0
 7
SIMPLEX
 10
0.953     
 20
9.525     
 40
    3.810
  1
ID
 50
    0.000
  0
TEXT
  8
0
 7
SIMPLEX
 10
11.430    
 20
9.525     
 40
    3.810
  1
SIZE
 50
    0.000
  0
TEXT
  8
0
 7
SIMPLEX
 10
0.953     
 20
1.905     
 40
    3.810
  1
S1
 50
    0.000
  0
TEXT
  8
0
 7
SIMPLEX
 10
11.430    
 20
1.905     
 40
    3.810
  1
24x50
 50
    0.000
  0
ENDBLK
  8
0
  0
BLOCK
  8
0
  2
ASM_WELD
 70
     0
 10
0.000     
 20
137.160   
  0
LINE
  8
20
 10
0.000     
 20
137.160   
 11
116.967   
 21
137.160   
  0
LINE
  8
20
 10
0.000     
 20
0.000     
 11
116.967   
 21
0.000     
  0
LINE
  8
20
 10
116.967   
 20
0.000     
 11
116.967   
 21
137.160   
  0
LINE
  8
20
 10
0.000     
 20
0.000     
 11
0.000     
 21
137.160   
  0
TEXT
  8
14
 7
SIMPLEX
 10
1.143     
 20
132.398   
 40
    3.810
  1
WELD TABLE
 50
    0.000
  0
LINE
  8
20
 10
0.000     
 20
131.445   
 11
116.967   
 21
131.445   
  0
LINE
  8
20
 10
33.147    
 20
0.000     
 11
33.147    
 21
131.445   
  0
LINE
  8
20
 10
56.007    
 20
0.000     
 11
56.007    
 21
131.445   
  0
LINE
  8
20
 10
78.867    
 20
0.000     
 11
78.867    
 21
131.445   
  0
LINE
  8
20
 10
101.727   
 20
0.000     
 11
101.727   
 21
131.445   
  0
TEXT
  8
14
 7
SIMPLEX
 10
1.143     
 20
126.683   
 40
    3.810
  1
Plate1
 50
    0.000
  0
TEXT
  8
14
 7
SIMPLEX
 10
33.909    
 20
126.683   
 40
    3.810
  1
Plate2
 50
    0.000
  0
TEXT
  8
14
 7
SIMPLEX
 10
56.769    
 20
126.683   
 40
    3.810
  1
Type
 50
    0.000
  0
TEXT
  8
14
 7
SIMPLEX
 10
79.629    
 20
126.683   
 40
    3.810
  1
Size
 50
    0.000
  0
TEXT
  8
14
 7
SIMPLEX
 10
102.489   
 20
126.683   
 40
    3.810
  1
Side
 50
    0.000
  0
LINE
  8
20
 10
0.000     
 20
125.730   
 11
116.967   
 21
125.730   
  0
TEXT
  8
14
 7
SIMPLEX
 10
1.143     
 20
120.968   
 40
    3.810
  1
WB2
 50
    0.000
  0
TEXT
  8
14
 7
SIMPLEX
 10
35.433    
 20
120.968   
 40
    3.810
  1
OF
 50
    0.000
  0
TEXT
  8
14
 7
SIMPLEX
 10
57.531    
 20
120.968   
 40
    3.810
  1
Fillet
 50
    0.000
  0
TEXT
  8
14
 7
SIMPLEX
 10
79.629    
 20
120.968   
 40
    3.810
  1
4
 50
    0.000
  0
TEXT
  8
14
 7
SIMPLEX
 10
104.013   
 20
120.968   
 40
    3.810
  1
  1
 50
    0.000
  0
TEXT
  8
14
 7
SIMPLEX
 10
1.143     
 20
115.253   
 40
    3.810
  1
WB2
 50
    0.000
  0
TEXT
  8
14
 7
SIMPLEX
 10
35.433    
 20
115.253   
 40
    3.810
  1
IF
 50
    0.000
  0
TEXT
  8
14
 7
SIMPLEX
 10
57.531    
 20
115.253   
 40
    3.810
  1
Fillet
 50
    0.000
  0
TEXT
  8
14
 7
SIMPLEX
 10
79.629    
 20
115.253   
 40
    3.810
  1
4
 50
    0.000
  0
TEXT
  8
14
 7
SIMPLEX
 10
104.013   
 20
115.253   
 40
    3.810
  1
  1
 50
    0.000
  0
TEXT
  8
14
 7
SIMPLEX
 10
1.143     
 20
109.538   
 40
    3.810
  1
EP3
 50
    0.000
  0
TEXT
  8
14
 7
SIMPLEX
 10
35.433    
 20
109.538   
 40
    3.810
  1
OF
 50
    0.000
  0
TEXT
  8
14
 7
SIMPLEX
 10
57.531    
 20
109.538   
 40
    3.810
  1
Fillet
 50
    0.000
  0
TEXT
  8
14
 7
SIMPLEX
 10
79.629    
 20
109.538   
 40
    3.810
  1
4
 50
    0.000
  0
TEXT
  8
14
 7
SIMPLEX
 10
104.013   
 20
109.538   
 40
    3.810
  1
  2
 50
    0.000
  0
TEXT
  8
14
 7
SIMPLEX
 10
1.143     
 20
103.823   
 40
    3.810
  1
EP3
 50
    0.000
  0
TEXT
  8
14
 7
SIMPLEX
 10
35.433    
 20
103.823   
 40
    3.810
  1
IF
 50
    0.000
  0
TEXT
  8
14
 7
SIMPLEX
 10
57.531    
 20
103.823   
 40
    3.810
  1
Fillet
 50
    0.000
  0
TEXT
  8
14
 7
SIMPLEX
 10
79.629    
 20
103.823   
 40
    3.810
  1
4
 50
    0.000
  0
TEXT
  8
14
 7
SIMPLEX
 10
104.013   
 20
103.823   
 40
    3.810
  1
  2
 50
    0.000
  0
TEXT
  8
14
 7
SIMPLEX
 10
1.143     
 20
98.108    
 40
    3.810
  1
EP3
 50
    0.000
  0
TEXT
  8
14
 7
SIMPLEX
 10
35.433    
 20
98.108    
 40
    3.810
  1
WB
 50
    0.000
  0
TEXT
  8
14
 7
SIMPLEX
 10
57.531    
 20
98.108    
 40
    3.810
  1
Fillet
 50
    0.000
  0
TEXT
  8
14
 7
SIMPLEX
 10
79.629    
 20
98.108    
 40
    3.810
  1
4
 50
    0.000
  0
TEXT
  8
14
 7
SIMPLEX
 10
104.013   
 20
98.108    
 40
    3.810
  1
  2
 50
    0.000
  0
TEXT
  8
14
 7
SIMPLEX
 10
1.143     
 20
92.393    
 40
    3.810
  1
EP2
 50
    0.000
  0
TEXT
  8
14
 7
SIMPLEX
 10
35.433    
 20
92.393    
 40
    3.810
  1
OF
 50
    0.000
  0
TEXT
  8
14
 7
SIMPLEX
 10
57.531    
 20
92.393    
 40
    3.810
  1
Fillet
 50
    0.000
  0
TEXT
  8
14
 7
SIMPLEX
 10
79.629    
 20
92.393    
 40
    3.810
  1
5
 50
    0.000
  0
TEXT
  8
14
 7
SIMPLEX
 10
104.013   
 20
92.393    
 40
    3.810
  1
  2
 50
    0.000
  0
TEXT
  8
14
 7
SIMPLEX
 10
1.143     
 20
86.678    
 40
    3.810
  1
EP2
 50
    0.000
  0
TEXT
  8
14
 7
SIMPLEX
 10
35.433    
 20
86.678    
 40
    3.810
  1
WB
 50
    0.000
  0
TEXT
  8
14
 7
SIMPLEX
 10
57.531    
 20
86.678    
 40
    3.810
  1
Fillet
 50
    0.000
  0
TEXT
  8
14
 7
SIMPLEX
 10
79.629    
 20
86.678    
 40
    3.810
  1
4
 50
    0.000
  0
TEXT
  8
14
 7
SIMPLEX
 10
104.013   
 20
86.678    
 40
    3.810
  1
  2
 50
    0.000
  0
TEXT
  8
14
 7
SIMPLEX
 10
1.143     
 20
80.963    
 40
    3.810
  1
EP2
 50
    0.000
  0
TEXT
  8
14
 7
SIMPLEX
 10
35.433    
 20
80.963    
 40
    3.810
  1
IF
 50
    0.000
  0
TEXT
  8
14
 7
SIMPLEX
 10
57.531    
 20
80.963    
 40
    3.810
  1
Groove
 50
    0.000
  0
TEXT
  8
14
 7
SIMPLEX
 10
79.629    
 20
80.963    
 40
    3.810
  1
6
 50
    0.000
  0
TEXT
  8
14
 7
SIMPLEX
 10
104.013   
 20
80.963    
 40
    3.810
  1
  1
 50
    0.000
  0
TEXT
  8
14
 7
SIMPLEX
 10
1.143     
 20
75.248    
 40
    3.810
  1
OF5
 50
    0.000
  0
TEXT
  8
14
 7
SIMPLEX
 10
35.433    
 20
75.248    
 40
    3.810
  1
OF
 50
    0.000
  0
TEXT
  8
14
 7
SIMPLEX
 10
57.531    
 20
75.248    
 40
    3.810
  1
Butt
 50
    0.000
  0
TEXT
  8
14
 7
SIMPLEX
 10
79.629    
 20
75.248    
 40
    3.810
  1
6
 50
    0.000
  0
TEXT
  8
14
 7
SIMPLEX
 10
104.013   
 20
75.248    
 40
    3.810
  1
  1
 50
    0.000
  0
TEXT
  8
14
 7
SIMPLEX
 10
1.143     
 20
69.533    
 40
    3.810
  1
ST4
 50
    0.000
  0
TEXT
  8
14
 7
SIMPLEX
 10
35.433    
 20
69.533    
 40
    3.810
  1
WB
 50
    0.000
  0
TEXT
  8
14
 7
SIMPLEX
 10
57.531    
 20
69.533    
 40
    3.810
  1
Fillet
 50
    0.000
  0
TEXT
  8
14
 7
SIMPLEX
 10
79.629    
 20
69.533    
 40
    3.810
  1
4
 50
    0.000
  0
TEXT
  8
14
 7
SIMPLEX
 10
104.013   
 20
69.533    
 40
    3.810
  1
  2
 50
    0.000
  0
TEXT
  8
14
 7
SIMPLEX
 10
1.143     
 20
63.818    
 40
    3.810
  1
ST4
 50
    0.000
  0
TEXT
  8
14
 7
SIMPLEX
 10
35.433    
 20
63.818    
 40
    3.810
  1
EP
 50
    0.000
  0
TEXT
  8
14
 7
SIMPLEX
 10
57.531    
 20
63.818    
 40
    3.810
  1
Fillet
 50
    0.000
  0
TEXT
  8
14
 7
SIMPLEX
 10
79.629    
 20
63.818    
 40
    3.810
  1
10
 50
    0.000
  0
TEXT
  8
14
 7
SIMPLEX
 10
104.013   
 20
63.818    
 40
    3.810
  1
  2
 50
    0.000
  0
TEXT
  8
14
 7
SIMPLEX
 10
1.143     
 20
58.103    
 40
    3.810
  1
CLF1
 50
    0.000
  0
TEXT
  8
14
 7
SIMPLEX
 10
35.433    
 20
58.103    
 40
    3.810
  1
WB
 50
    0.000
  0
TEXT
  8
14
 7
SIMPLEX
 10
57.531    
 20
58.103    
 40
    3.810
  1
Fillet
 50
    0.000
  0
TEXT
  8
14
 7
SIMPLEX
 10
79.629    
 20
58.103    
 40
    3.810
  1
4
 50
    0.000
  0
TEXT
  8
14
 7
SIMPLEX
 10
104.013   
 20
58.103    
 40
    3.810
  1
  1
 50
    0.000
  0
TEXT
  8
14
 7
SIMPLEX
 10
1.143     
 20
52.388    
 40
    3.810
  1
CLF1
 50
    0.000
  0
TEXT
  8
14
 7
SIMPLEX
 10
35.433    
 20
52.388    
 40
    3.810
  1
IF
 50
    0.000
  0
TEXT
  8
14
 7
SIMPLEX
 10
57.531    
 20
52.388    
 40
    3.810
  1
Fillet
 50
    0.000
  0
TEXT
  8
14
 7
SIMPLEX
 10
79.629    
 20
52.388    
 40
    3.810
  1
4
 50
    0.000
  0
TEXT
  8
14
 7
SIMPLEX
 10
104.013   
 20
52.388    
 40
    3.810
  1
  1
 50
    0.000
  0
TEXT
  8
14
 7
SIMPLEX
 10
1.143     
 20
46.673    
 40
    3.810
  1
CLF4
 50
    0.000
  0
TEXT
  8
14
 7
SIMPLEX
 10
35.433    
 20
46.673    
 40
    3.810
  1
OF
 50
    0.000
  0
TEXT
  8
14
 7
SIMPLEX
 10
57.531    
 20
46.673    
 40
    3.810
  1
Fillet
 50
    0.000
  0
TEXT
  8
14
 7
SIMPLEX
 10
79.629    
 20
46.673    
 40
    3.810
  1
4
 50
    0.000
  0
TEXT
  8
14
 7
SIMPLEX
 10
104.013   
 20
46.673    
 40
    3.810
  1
  1
 50
    0.000
  0
TEXT
  8
14
 7
SIMPLEX
 10
1.143     
 20
40.958    
 40
    3.810
  1
CLF4
 50
    0.000
  0
TEXT
  8
14
 7
SIMPLEX
 10
35.433    
 20
40.958    
 40
    3.810
  1
OF
 50
    0.000
  0
TEXT
  8
14
 7
SIMPLEX
 10
57.531    
 20
40.958    
 40
    3.810
  1
Fillet
 50
    0.000
  0
TEXT
  8
14
 7
SIMPLEX
 10
79.629    
 20
40.958    
 40
    3.810
  1
4
 50
    0.000
  0
TEXT
  8
14
 7
SIMPLEX
 10
104.013   
 20
40.958    
 40
    3.810
  1
  1
 50
    0.000
  0
TEXT
  8
14
 7
SIMPLEX
 10
1.143     
 20
35.243    
 40
    3.810
  1
ES1
 50
    0.000
  0
TEXT
  8
14
 7
SIMPLEX
 10
35.433    
 20
35.243    
 40
    3.810
  1
OF
 50
    0.000
  0
TEXT
  8
14
 7
SIMPLEX
 10
57.531    
 20
35.243    
 40
    3.810
  1
Fillet
 50
    0.000
  0
TEXT
  8
14
 7
SIMPLEX
 10
79.629    
 20
35.243    
 40
    3.810
  1
4
 50
    0.000
  0
TEXT
  8
14
 7
SIMPLEX
 10
104.013   
 20
35.243    
 40
    3.810
  1
  1
 50
    0.000
  0
TEXT
  8
14
 7
SIMPLEX
 10
1.143     
 20
29.528    
 40
    3.810
  1
SS9
 50
    0.000
  0
TEXT
  8
14
 7
SIMPLEX
 10
35.433    
 20
29.528    
 40
    3.810
  1
EP
 50
    0.000
  0
TEXT
  8
14
 7
SIMPLEX
 10
57.531    
 20
29.528    
 40
    3.810
  1
Fillet
 50
    0.000
  0
TEXT
  8
14
 7
SIMPLEX
 10
79.629    
 20
29.528    
 40
    3.810
  1
4
 50
    0.000
  0
TEXT
  8
14
 7
SIMPLEX
 10
104.013   
 20
29.528    
 40
    3.810
  1
  1
 50
    0.000
  0
TEXT
  8
14
 7
SIMPLEX
 10
1.143     
 20
23.813    
 40
    3.810
  1
SS9
 50
    0.000
  0
TEXT
  8
14
 7
SIMPLEX
 10
35.433    
 20
23.813    
 40
    3.810
  1
OF
 50
    0.000
  0
TEXT
  8
14
 7
SIMPLEX
 10
57.531    
 20
23.813    
 40
    3.810
  1
Fillet
 50
    0.000
  0
TEXT
  8
14
 7
SIMPLEX
 10
79.629    
 20
23.813    
 40
    3.810
  1
4
 50
    0.000
  0
TEXT
  8
14
 7
SIMPLEX
 10
104.013   
 20
23.813    
 40
    3.810
  1
  1
 50
    0.000
  0
TEXT
  8
14
 7
SIMPLEX
 10
1.143     
 20
18.098    
 40
    3.810
  1
SS10
 50
    0.000
  0
TEXT
  8
14
 7
SIMPLEX
 10
35.433    
 20
18.098    
 40
    3.810
  1
EP
 50
    0.000
  0
TEXT
  8
14
 7
SIMPLEX
 10
57.531    
 20
18.098    
 40
    3.810
  1
Fillet
 50
    0.000
  0
TEXT
  8
14
 7
SIMPLEX
 10
79.629    
 20
18.098    
 40
    3.810
  1
4
 50
    0.000
  0
TEXT
  8
14
 7
SIMPLEX
 10
104.013   
 20
18.098    
 40
    3.810
  1
  1
 50
    0.000
  0
TEXT
  8
14
 7
SIMPLEX
 10
1.143     
 20
12.383    
 40
    3.810
  1
SS10
 50
    0.000
  0
TEXT
  8
14
 7
SIMPLEX
 10
35.433    
 20
12.383    
 40
    3.810
  1
IF
 50
    0.000
  0
TEXT
  8
14
 7
SIMPLEX
 10
57.531    
 20
12.383    
 40
    3.810
  1
Fillet
 50
    0.000
  0
TEXT
  8
14
 7
SIMPLEX
 10
79.629    
 20
12.383    
 40
    3.810
  1
4
 50
    0.000
  0
TEXT
  8
14
 7
SIMPLEX
 10
104.013   
 20
12.383    
 40
    3.810
  1
  1
 50
    0.000
  0
TEXT
  8
14
 7
SIMPLEX
 10
1.143     
 20
6.668     
 40
    3.810
  1
SS4
 50
    0.000
  0
TEXT
  8
14
 7
SIMPLEX
 10
35.433    
 20
6.668     
 40
    3.810
  1
EP
 50
    0.000
  0
TEXT
  8
14
 7
SIMPLEX
 10
57.531    
 20
6.668     
 40
    3.810
  1
Fillet
 50
    0.000
  0
TEXT
  8
14
 7
SIMPLEX
 10
79.629    
 20
6.668     
 40
    3.810
  1
4
 50
    0.000
  0
TEXT
  8
14
 7
SIMPLEX
 10
104.013   
 20
6.668     
 40
    3.810
  1
  1
 50
    0.000
  0
TEXT
  8
14
 7
SIMPLEX
 10
1.143     
 20
0.953     
 40
    3.810
  1
SS4
 50
    0.000
  0
TEXT
  8
14
 7
SIMPLEX
 10
35.433    
 20
0.953     
 40
    3.810
  1
OF
 50
    0.000
  0
TEXT
  8
14
 7
SIMPLEX
 10
57.531    
 20
0.953     
 40
    3.810
  1
Fillet
 50
    0.000
  0
TEXT
  8
14
 7
SIMPLEX
 10
79.629    
 20
0.953     
 40
    3.810
  1
4
 50
    0.000
  0
TEXT
  8
14
 7
SIMPLEX
 10
104.013   
 20
0.953     
 40
    3.810
  1
  1
 50
    0.000
  0
ENDBLK
  8
0
  0
ENDSEC
  0
SECTION
  2
ENTITIES
  0
LINE
  8
22
 10
0.000     
 20
0.000     
 11
841.000   
 21
0.000     
  0
LINE
  8
22
 10
841.000   
 20
0.000     
 11
841.000   
 21
594.000   
  0
LINE
  8
22
 10
841.000   
 20
594.000   
 11
0.000     
 21
594.000   
  0
LINE
  8
22
 10
0.000     
 20
594.000   
 11
0.000     
 21
0.000     
  0
INSERT
  8
0
  2
ASMPIECE
 10
43.000    
 20
292.000   
 41
   0.115
 42
   0.115
 43
   0.115
 50
   0.000
  0
INSERT
  8
0
  2
ASMPLATE
 10
0.000     
 20
0.000     
 41
   1.000
 42
   1.000
 43
   1.000
 50
   0.000
  0
INSERT
  8
0
  2
ASMTITLE
 10
703.840   
 20
0.000     
 41
   1.500
 42
   1.500
 43
   1.500
 50
   0.000
  0
INSERT
  8
0
  2
ASMSECTN
 10
225.000   
 20
430.000   
 41
   1.240
 42
   1.240
 43
   1.240
 50
   0.000
  0
INSERT
  8
0
  2
ASMBOLT
 10
385.000   
 20
40.000    
 41
   0.984
 42
   0.984
 43
   0.984
 50
   0.000
  0
INSERT
  8
0
  2
ASMVIEW
 10
225.000   
 20
385.000   
 41
   0.984
 42
   0.984
 43
   0.984
 50
   0.000
  0
INSERT
  8
0
  2
ASMSLOT
 10
445.000   
 20
0.000     
 41
   0.984
 42
   0.984
 43
   0.984
 50
   0.000
  0
INSERT
  8
0
  2
ASM_WELD
 10
764.269   
 20
594.000   
 41
   0.984
 42
   0.984
 43
   0.984
 50
   0.000
  0
ENDSEC
  0
EOF
