999
SOURCE:MBS   PROGRAM:CLP_DXF   CELL:CLP_BOLT   CLASS:SHOP   MODE:
  0
SECTION
  2
HEADER
  9
$EXTMIN
 10
   0.000
 20
   0.000
  9
$EXTMAX
 10
 297.000
 20
 210.000
  9
$LIMMIN
 10
   0.000
 20
   0.000
  9
$LIMMAX
 10
 297.000
 20
 210.000
  9
$FILLMODE
 70
     1
  9
$LTSCALE
 40
  0.125
  9
$HANDLING
 70
     0
  0
ENDSEC
  0
SECTION
  2
TABLES
  0
TABLE
  2
LTYPE
 70
     4
  0
LTYPE
  2
CONTIN
 70
    64
  3
SOLID LINE
 72
    65
 73
     0
 40
0.0
  0
LTYPE
  2
CONTINUOUS
 70
    64
  3
SOLID LINE
 72
    65
 73
     0
 40
0.0
  0
LTYPE
  2
CENTER
 70
    64
  3
____ _ ____ _ ____ _ ____ _ ____ _ ____ _ ____
 72
    65
 73
     4
 40
 50.80
 49
 31.75
 49
 -6.35
 49
  6.35
 49
 -6.35
  0
LTYPE
  2
DASHED
 70
    64
  3
__ __ __ __ __ __ __ __ __ __ __ __ __ __ __ 
 72
    65
 73
     2
 40
 38.10
 49
 25.40
 49
-12.70
  0
ENDTAB
  0
TABLE
  2
LAYER
 70
    50
  0
LAYER
  2
0
 70
     0
 62
     7
  6
CONTIN
  0
LAYER
  2
1
 70
     0
 62
     7
  6
CONTIN
  0
LAYER
  2
2
 70
     0
 62
     7
  6
CONTIN
  0
LAYER
  2
3
 70
     0
 62
     1
  6
CONTIN
  0
LAYER
  2
4
 70
     0
 62
     1
  6
CONTIN
  0
LAYER
  2
5
 70
     0
 62
     7
  6
DASHED
  0
LAYER
  2
6
 70
     0
 62
     6
  6
CONTIN
  0
LAYER
  2
7
 70
     0
 62
     3
  6
DASHED
  0
LAYER
  2
8
 70
     0
 62
     3
  6
DASHED
  0
LAYER
  2
9
 70
     0
 62
     7
  6
CONTIN
  0
LAYER
  2
10
 70
     0
 62
     7
  6
CONTIN
  0
LAYER
  2
11
 70
     0
 62
     7
  6
CONTIN
  0
LAYER
  2
12
 70
     0
 62
     3
  6
CONTIN
  0
LAYER
  2
13
 70
     0
 62
     3
  6
CONTIN
  0
LAYER
  2
14
 70
     0
 62
     7
  6
CONTIN
  0
LAYER
  2
15
 70
     0
 62
     6
  6
CONTIN
  0
LAYER
  2
16
 70
     0
 62
     7
  6
CONTIN
  0
LAYER
  2
17
 70
     0
 62
     7
  6
CONTIN
  0
LAYER
  2
18
 70
     0
 62
     6
  6
CONTIN
  0
LAYER
  2
19
 70
     0
 62
     7
  6
CONTIN
  0
LAYER
  2
20
 70
     0
 62
     7
  6
CONTIN
  0
LAYER
  2
21
 70
     0
 62
     7
  6
CONTIN
  0
LAYER
  2
22
 70
     0
 62
     7
  6
CONTIN
  0
LAYER
  2
23
 70
     0
 62
     7
  6
CONTIN
  0
LAYER
  2
24
 70
     0
 62
     7
  6
CONTIN
  0
LAYER
  2
25
 70
     0
 62
     7
  6
CONTIN
  0
LAYER
  2
26
 70
     0
 62
     7
  6
CONTIN
  0
LAYER
  2
27
 70
     0
 62
     7
  6
CONTIN
  0
LAYER
  2
28
 70
     0
 62
     7
  6
CONTIN
  0
LAYER
  2
29
 70
     0
 62
     7
  6
CONTIN
  0
LAYER
  2
30
 70
     0
 62
     7
  6
CONTIN
  0
LAYER
  2
31
 70
     0
 62
     7
  6
DASHED
  0
LAYER
  2
32
 70
     0
 62
     7
  6
CONTIN
  0
LAYER
  2
33
 70
     0
 62
     7
  6
DASHED
  0
LAYER
  2
34
 70
     0
 62
     7
  6
DASHED
  0
LAYER
  2
35
 70
     0
 62
     7
  6
CONTIN
  0
LAYER
  2
36
 70
     0
 62
     7
  6
CONTIN
  0
LAYER
  2
37
 70
     0
 62
     7
  6
CONTIN
  0
LAYER
  2
38
 70
     0
 62
     7
  6
CONTIN
  0
LAYER
  2
39
 70
     0
 62
     7
  6
CONTIN
  0
LAYER
  2
40
 70
     0
 62
     7
  6
CONTIN
  0
LAYER
  2
41
 70
     0
 62
     7
  6
CONTIN
  0
LAYER
  2
42
 70
     0
 62
     7
  6
CONTIN
  0
LAYER
  2
43
 70
     0
 62
     7
  6
CONTIN
  0
LAYER
  2
44
 70
     0
 62
     7
  6
CONTIN
  0
LAYER
  2
45
 70
     0
 62
     7
  6
CONTIN
  0
LAYER
  2
46
 70
     0
 62
     7
  6
CONTIN
  0
LAYER
  2
47
 70
     0
 62
     7
  6
CONTIN
  0
LAYER
  2
48
 70
     0
 62
     7
  6
CONTIN
  0
LAYER
  2
49
 70
     0
 62
     7
  6
CONTIN
  0
LAYER
  2
50
 70
     0
 62
     7
  6
CONTIN
  0
ENDTAB
  0
TABLE
  2
STYLE
 70
  0
  0
STYLE
  2
SIMPLEX
 70
  0
 40
  0.000
 41
  1.000
 42
  1.000
 50
  0.000
 71
  0
  3
SIMPLEX
  0
STYLE
  2
ROMANS
 70
  0
 40
  0.000
 41
  1.000
 42
  1.000
 50
  0.000
 71
  0
  3
ROMANS
  0
STYLE
  2
OPEN
 70
  0
 40
  0.000
 41
  1.000
 42
  1.000
 50
  0.000
 71
  0
  3
SIMPLEX
  0
STYLE
  2
ARIAL
 70
  0
 40
  0.000
 41
  1.000
 42
  1.000
 50
  0.000
 71
  0
  3
ARIAL.TTF
  0
STYLE
  2
VERDANAB
 70
  0
 40
  0.000
 41
  1.000
 42
  1.000
 50
  0.000
 71
  0
  3
VERDANAB.TTF
  0
ENDTAB
  0
ENDSEC
  0
SECTION
  2
BLOCKS
  0
BLOCK
  8
0
  2
ARROWP
 70
     0
 10
   0.000
 20
   0.000
  0
LINE
  8
0
 10
   0.000
 20
   0.000
 11
 -11.585
 21
  -1.931
  0
LINE
  8
0
 10
   0.000
 20
   0.000
 11
 -11.585
 21
   1.931
  0
LINE
  8
0
 10
 -11.585
 20
   1.931
 11
 -11.585
 21
  -1.931
  0
ENDBLK
  8
0
  0
BLOCK
  8
0
  2
ARROW
 70
     0
 10
   0.000
 20
   0.000
  0
LINE
  8
0
 10
   0.000
 20
   0.000
 11
 -11.585
 21
  -1.931
  0
LINE
  8
0
 10
   0.000
 20
   0.000
 11
 -11.585
 21
   1.931
  0
LINE
  8
0
 10
 -11.585
 20
   1.931
 11
 -11.585
 21
  -1.931
  0
ENDBLK
  8
0
  0
BLOCK
  8
3
  2
CIRCLE
 70
     0
 10
   0.000
 20
   0.000
  0
CIRCLE
  8
0
 10
   0.000
 20
   0.000
 40
  25.400
  0
ENDBLK
  8
3
  0
BLOCK
  8
1
  2
PCROSS
 70
     0
 10
   0.000
 20
   0.000
  0
LINE
  8
10
 10
   0.000
 20
   0.000
 11
   0.000
 21
   8.156
  0
LINE
  8
10
 10
  -0.635
 20
   4.990
 11
   0.635
 21
   4.989
  0
LINE
  8
2
 10
   0.000
 20
   2.039
 11
   4.572
 21
   2.039
  0
INSERT
  8
2
  2
ARROWP
 10
   0.000
 20
   2.039
 41
   0.285
 42
   0.285
 43
   0.285
 50
 180.000
  0
LINE
  8
10
 10
   0.000
 20
   0.000
 11
  42.644
 21
   0.000
  0
LINE
  8
10
 10
  25.225
 20
   0.635
 11
  25.225
 21
  -0.635
  0
LINE
  8
10
 10
  39.477
 20
   0.635
 11
  39.477
 21
  -0.635
  0
LINE
  8
2
 10
  -4.579
 20
   0.000
 11
   0.501
 21
   0.000
  0
LINE
  8
2
 10
  -2.039
 20
   0.000
 11
  -2.039
 21
  -4.572
  0
INSERT
  8
2
  2
ARROWP
 10
  -2.039
 20
   0.000
 41
   0.285
 42
   0.285
 43
   0.285
 50
  90.000
  0
ARC
  8
2
 10
   0.000
 20
   0.000
 40
   2.039
 50
  90.000
 51
 180.000
  0
TEXT
  8
21
 7
SIMPLEX
 10
  -18.276
 20
  -12.492
 40
    6.092
  1
 90.0
 50
    0.000
  0
ENDBLK
  8
1
  0
BLOCK
  8
1
  2
PLATE
 70
     0
 10
 148.500
 20
 105.000
  0
LINE
  8
13
 10
 -29.725
 20
 177.225
 11
 -29.725
 21
  32.775
  0
LINE
  8
13
 10
 -29.725
 20
  32.775
 11
 326.725
 21
  32.775
  0
LINE
  8
13
 10
 326.725
 20
  32.775
 11
 326.725
 21
 177.225
  0
LINE
  8
13
 10
 326.725
 20
 177.225
 11
 -29.725
 21
 177.225
  0
LINE
  8
2
 10
 -33.290
 20
  32.775
 11
-122.402
 21
  32.784
  0
LINE
  8
2
 10
 -33.276
 20
 177.225
 11
-122.388
 21
 177.234
  0
LINE
  8
2
 10
-121.132
 20
  32.784
 11
-121.118
 21
 177.234
  0
INSERT
  8
2
  2
ARROW
 10
-121.132
 20
  32.784
 41
   1.000
 42
   1.000
 43
   1.000
 50
 269.994
  0
INSERT
  8
2
  2
ARROW
 10
-121.118
 20
 177.234
 41
   1.000
 42
   1.000
 43
   1.000
 50
  89.994
  0
TEXT
  8
11
 7
SIMPLEX
 10
 -126.473
 20
   90.306
 40
   10.693
  1
144
 50
   89.994
  0
LINE
  8
2
 10
 -29.725
 20
 180.789
 11
 -29.725
 21
 269.902
  0
LINE
  8
2
 10
 326.725
 20
 180.789
 11
 326.725
 21
 269.902
  0
LINE
  8
2
 10
 -29.725
 20
 268.632
 11
 326.725
 21
 268.632
  0
INSERT
  8
2
  2
ARROW
 10
 -29.725
 20
 268.632
 41
   1.000
 42
   1.000
 43
   1.000
 50
 180.000
  0
INSERT
  8
2
  2
ARROW
 10
 326.725
 20
 268.632
 41
   1.000
 42
   1.000
 43
   1.000
 50
   0.000
  0
TEXT
  8
11
 7
SIMPLEX
 10
  132.460
 20
  273.979
 40
   10.693
  1
356
 50
    0.000
  0
LINE
  8
7
 10
  27.505
 20
  32.775
 11
  27.505
 21
 177.225
  0
TEXT
  8
11
 7
SIMPLEX
 10
   22.158
 20
  105.000
 40
   10.693
  1
 
 50
   90.000
  0
LINE
  8
2
 10
 -29.725
 20
   6.932
 11
 -29.725
 21
 -48.763
  0
LINE
  8
2
 10
  27.505
 20
   6.932
 11
  27.505
 21
 -48.763
  0
LINE
  8
2
 10
 -29.725
 20
 -47.493
 11
  27.505
 21
 -47.493
  0
INSERT
  8
2
  2
ARROW
 10
 -29.725
 20
 -47.493
 41
   1.000
 42
   1.000
 43
   1.000
 50
 180.000
  0
INSERT
  8
2
  2
ARROW
 10
  27.505
 20
 -47.493
 41
   1.000
 42
   1.000
 43
   1.000
 50
   0.000
  0
TEXT
  8
11
 7
SIMPLEX
 10
  -11.804
 20
  -42.146
 40
   10.693
  1
57
 50
    0.000
  0
INSERT
  8
6
  2
CIRCLE
 10
  -7.505
 20
  55.005
 41
   0.276
 42
   0.276
 43
   0.276
 50
   0.000
  0
INSERT
  8
6
  2
CIRCLE
 10
  -7.505
 20
 155.005
 41
   0.276
 42
   0.276
 43
   0.276
 50
   0.000
  0
INSERT
  8
6
  2
CIRCLE
 10
 204.505
 20
  55.005
 41
   0.276
 42
   0.276
 43
   0.276
 50
   0.000
  0
INSERT
  8
6
  2
CIRCLE
 10
 204.505
 20
 155.005
 41
   0.276
 42
   0.276
 43
   0.276
 50
   0.000
  0
INSERT
  8
6
  2
CIRCLE
 10
 304.505
 20
  55.005
 41
   0.276
 42
   0.276
 43
   0.276
 50
   0.000
  0
INSERT
  8
6
  2
CIRCLE
 10
 304.505
 20
 155.005
 41
   0.276
 42
   0.276
 43
   0.276
 50
   0.000
  0
LINE
  8
2
 10
 -33.290
 20
  32.775
 11
 -66.707
 21
  32.779
  0
LINE
  8
2
 10
 -33.287
 20
  55.005
 11
 -66.705
 21
  55.009
  0
LINE
  8
2
 10
 -65.437
 20
  32.778
 11
 -65.435
 21
  55.008
  0
INSERT
  8
2
  2
ARROW
 10
 -65.437
 20
  32.778
 41
   1.000
 42
   1.000
 43
   1.000
 50
 269.994
  0
INSERT
  8
2
  2
ARROW
 10
 -65.435
 20
  55.008
 41
   1.000
 42
   1.000
 43
   1.000
 50
  89.994
  0
TEXT
  8
11
 7
SIMPLEX
 10
  -70.783
 20
   33.200
 40
   10.693
  1
22
 50
   89.994
  0
LINE
  8
2
 10
 -33.290
 20
  55.005
 11
 -66.707
 21
  55.009
  0
LINE
  8
2
 10
 -33.280
 20
 155.005
 11
 -66.697
 21
 155.009
  0
LINE
  8
2
 10
 -65.437
 20
  55.008
 11
 -65.427
 21
 155.008
  0
INSERT
  8
2
  2
ARROW
 10
 -65.437
 20
  55.008
 41
   1.000
 42
   1.000
 43
   1.000
 50
 269.994
  0
INSERT
  8
2
  2
ARROW
 10
 -65.427
 20
 155.008
 41
   1.000
 42
   1.000
 43
   1.000
 50
  89.994
  0
TEXT
  8
11
 7
SIMPLEX
 10
  -70.780
 20
   90.305
 40
   10.693
  1
100
 50
   89.994
  0
LINE
  8
2
 10
 -33.290
 20
 155.005
 11
 -66.707
 21
 155.009
  0
LINE
  8
2
 10
 -33.287
 20
 177.225
 11
 -66.705
 21
 177.229
  0
LINE
  8
2
 10
 -65.437
 20
 155.008
 11
 -65.435
 21
 177.228
  0
INSERT
  8
2
  2
ARROW
 10
 -65.437
 20
 155.008
 41
   1.000
 42
   1.000
 43
   1.000
 50
 269.994
  0
INSERT
  8
2
  2
ARROW
 10
 -65.435
 20
 177.228
 41
   1.000
 42
   1.000
 43
   1.000
 50
  89.994
  0
TEXT
  8
11
 7
SIMPLEX
 10
  -70.783
 20
  155.425
 40
   10.693
  1
22
 50
   89.994
  0
LINE
  8
2
 10
 -29.725
 20
 180.789
 11
 -29.725
 21
 198.612
  0
LINE
  8
2
 10
  -7.505
 20
 180.789
 11
  -7.505
 21
 198.612
  0
LINE
  8
2
 10
 -29.725
 20
 197.342
 11
  -7.505
 21
 197.342
  0
INSERT
  8
2
  2
ARROW
 10
 -29.725
 20
 197.342
 41
   1.000
 42
   1.000
 43
   1.000
 50
 180.000
  0
INSERT
  8
2
  2
ARROW
 10
  -7.505
 20
 197.342
 41
   1.000
 42
   1.000
 43
   1.000
 50
   0.000
  0
TEXT
  8
11
 7
SIMPLEX
 10
  -29.309
 20
  202.689
 40
   10.693
  1
22
 50
    0.000
  0
LINE
  8
2
 10
 -29.725
 20
  29.210
 11
 -29.725
 21
  -4.207
  0
LINE
  8
2
 10
  -7.505
 20
  29.210
 11
  -7.505
 21
  -4.207
  0
LINE
  8
2
 10
 -29.725
 20
  -2.937
 11
  -7.505
 21
  -2.937
  0
INSERT
  8
2
  2
ARROW
 10
 -29.725
 20
  -2.937
 41
   1.000
 42
   1.000
 43
   1.000
 50
 180.000
  0
INSERT
  8
2
  2
ARROW
 10
  -7.505
 20
  -2.937
 41
   1.000
 42
   1.000
 43
   1.000
 50
   0.000
  0
TEXT
  8
11
 7
SIMPLEX
 10
  -29.309
 20
    2.410
 40
   10.693
  1
22
 50
    0.000
  0
LINE
  8
2
 10
 204.505
 20
 180.789
 11
 204.505
 21
 198.612
  0
LINE
  8
2
 10
 190.247
 20
 197.342
 11
 204.505
 21
 197.342
  0
INSERT
  8
2
  2
ARROW
 10
 204.505
 20
 197.342
 41
   1.000
 42
   1.000
 43
   1.000
 50
   0.000
  0
TEXT
  8
11
 7
SIMPLEX
 10
  167.078
 20
  202.689
 40
   10.693
  1
234
 50
    0.000
  0
LINE
  8
2
 10
  -7.505
 20
  29.210
 11
  -7.505
 21
  -4.207
  0
LINE
  8
2
 10
 204.505
 20
  29.210
 11
 204.505
 21
  -4.207
  0
LINE
  8
2
 10
  -7.505
 20
  -2.937
 11
 204.505
 21
  -2.937
  0
INSERT
  8
2
  2
ARROW
 10
  -7.505
 20
  -2.937
 41
   1.000
 42
   1.000
 43
   1.000
 50
 180.000
  0
INSERT
  8
2
  2
ARROW
 10
 204.505
 20
  -2.937
 41
   1.000
 42
   1.000
 43
   1.000
 50
   0.000
  0
TEXT
  8
11
 7
SIMPLEX
 10
   83.796
 20
    2.410
 40
   10.693
  1
212
 50
    0.000
  0
LINE
  8
2
 10
 304.505
 20
 180.789
 11
 304.505
 21
 230.693
  0
LINE
  8
2
 10
 290.247
 20
 229.423
 11
 304.505
 21
 229.423
  0
INSERT
  8
2
  2
ARROW
 10
 304.505
 20
 229.423
 41
   1.000
 42
   1.000
 43
   1.000
 50
   0.000
  0
TEXT
  8
11
 7
SIMPLEX
 10
  267.078
 20
  234.769
 40
   10.693
  1
334
 50
    0.000
  0
LINE
  8
2
 10
 204.505
 20
  29.210
 11
 204.505
 21
  -4.207
  0
LINE
  8
2
 10
 304.505
 20
  29.210
 11
 304.505
 21
  -4.207
  0
LINE
  8
2
 10
 204.505
 20
  -2.937
 11
 304.505
 21
  -2.937
  0
INSERT
  8
2
  2
ARROW
 10
 204.505
 20
  -2.937
 41
   1.000
 42
   1.000
 43
   1.000
 50
 180.000
  0
INSERT
  8
2
  2
ARROW
 10
 304.505
 20
  -2.937
 41
   1.000
 42
   1.000
 43
   1.000
 50
   0.000
  0
TEXT
  8
11
 7
SIMPLEX
 10
  239.801
 20
    2.410
 40
   10.693
  1
100
 50
    0.000
  0
LINE
  8
2
 10
 304.505
 20
  29.210
 11
 304.505
 21
  -4.207
  0
LINE
  8
2
 10
 326.725
 20
  29.210
 11
 326.725
 21
  -4.207
  0
LINE
  8
2
 10
 304.505
 20
  -2.937
 11
 326.725
 21
  -2.937
  0
INSERT
  8
2
  2
ARROW
 10
 304.505
 20
  -2.937
 41
   1.000
 42
   1.000
 43
   1.000
 50
 180.000
  0
INSERT
  8
2
  2
ARROW
 10
 326.725
 20
  -2.937
 41
   1.000
 42
   1.000
 43
   1.000
 50
   0.000
  0
TEXT
  8
11
 7
SIMPLEX
 10
  304.922
 20
    2.410
 40
   10.693
  1
22
 50
    0.000
  0
ENDBLK
  8
1
  0
ENDSEC
  0
SECTION
  2
ENTITIES
  0
LINE
  8
22
 10
   0.000
 20
   0.000
 11
 297.000
 21
   0.000
  0
LINE
  8
22
 10
 297.000
 20
   0.000
 11
 297.000
 21
 210.000
  0
LINE
  8
22
 10
 297.000
 20
 210.000
 11
   0.000
 21
 210.000
  0
LINE
  8
22
 10
   0.000
 20
 210.000
 11
   0.000
 21
   0.000
  0
LINE
  8
0
 10
 175.080
 20
  10.160
 11
 297.000
 21
  10.160
  0
LINE
  8
0
 10
 175.080
 20
  20.320
 11
 297.000
 21
  20.320
  0
LINE
  8
0
 10
 175.080
 20
  20.320
 11
 175.080
 21
   0.000
  0
LINE
  8
0
 10
 205.560
 20
  10.160
 11
 205.560
 21
   0.000
  0
LINE
  8
0
 10
 236.040
 20
  10.160
 11
 236.040
 21
   0.000
  0
LINE
  8
0
 10
 266.520
 20
  10.160
 11
 266.520
 21
   0.000
  0
TEXT
  8
0
 10
  182.700
 20
    7.620
 40
    2.286
  1
JOB
 50
    0.000
  0
TEXT
  8
0
 10
  228.420
 20
   17.780
 40
    2.286
  1
CUSTOMER
 50
    0.000
  0
TEXT
  8
0
 10
  213.180
 20
    7.620
 40
    2.286
  1
CHECKED BY
 50
    0.000
  0
TEXT
  8
0
 10
  243.660
 20
    7.620
 40
    2.286
  1
DATE
 50
    0.000
  0
TEXT
  8
0
 10
  271.600
 20
    7.620
 40
    2.286
  1
DRAWING
 50
    0.000
  0
TEXT
  8
0
 10
  215.720
 20
   12.700
 40
    2.857
  1
 
 50
    0.000
  0
TEXT
  8
0
 10
  177.620
 20
    2.540
 40
    2.857
  1
Q-1467
 50
    0.000
  0
TEXT
  8
0
 10
  238.580
 20
    2.540
 40
    2.857
  1
15/DEC/2025
 50
    0.000
  0
TEXT
  8
21
 7
SIMPLEX
 10
    3.048
 20
  203.904
 40
    3.048
  1
MARK
 50
    0.000
  0
TEXT
  8
21
 7
SIMPLEX
 10
   30.480
 20
  203.904
 40
    3.048
  1
:
 50
    0.000
  0
TEXT
  8
21
 7
SIMPLEX
 10
   33.528
 20
  203.904
 40
    3.048
  1
d1
 50
    0.000
  0
TEXT
  8
21
 7
SIMPLEX
 10
    3.048
 20
  197.808
 40
    3.048
  1
QUANTITY
 50
    0.000
  0
TEXT
  8
21
 7
SIMPLEX
 10
   30.480
 20
  197.808
 40
    3.048
  1
:
 50
    0.000
  0
TEXT
  8
21
 7
SIMPLEX
 10
   33.528
 20
  197.808
 40
    3.048
  1
8
 50
    0.000
  0
TEXT
  8
21
 7
SIMPLEX
 10
    3.048
 20
  191.712
 40
    3.048
  1
SIZE
 50
    0.000
  0
TEXT
  8
21
 7
SIMPLEX
 10
   30.480
 20
  191.712
 40
    3.048
  1
:
 50
    0.000
  0
TEXT
  8
21
 7
SIMPLEX
 10
   33.528
 20
  191.712
 40
    3.048
  1
5 x 144 x 356
 50
    0.000
  0
INSERT
  8
6
  2
CIRCLE
 10
 252.731
 20
 205.428
 41
   0.060
 42
   0.060
 43
   0.060
 50
   0.000
  0
TEXT
  8
21
 7
SIMPLEX
 10
  257.147
 20
  203.904
 40
    3.048
  1
Dia=14
 50
    0.000
  0
INSERT
  8
1
  2
PLATE
 10
 148.500
 20
 105.000
 41
   0.428
 42
   0.428
 43
   0.428
 50
   0.000
  0
INSERT
  8
1
  2
PCROSS
 10
 246.635
 20
 182.568
 41
   0.500
 42
   0.500
 43
   0.500
 50
   0.000
  0
ENDSEC
  0
EOF
