  0
SECTION
  2
HEADER
  9
$ACADVER
  1
AC1027
  9
$ACADMAINTVER
 70
105
  9
$DWGCODEPAGE
  3
ANSI_1252
  9
$LASTSAVEDBY
  1
ezdxf
  9
$REQUIREDVERSIONS
160
0
  9
$INSBASE
 10
0.0
 20
0.0
 30
0.0
  9
$EXTMIN
 10
1e+20
 20
1e+20
 30
1e+20
  9
$EXTMAX
 10
-1e+20
 20
-1e+20
 30
-1e+20
  9
$LIMMIN
 10
0.0
 20
0.0
  9
$LIMMAX
 10
420.0
 20
297.0
  9
$ORTHOMODE
 70
0
  9
$REGENMODE
 70
1
  9
$FILLMODE
 70
1
  9
$QTEXTMODE
 70
0
  9
$MIRRTEXT
 70
1
  9
$LTSCALE
 40
1.0
  9
$ATTMODE
 70
1
  9
$TEXTSIZE
 40
2.5
  9
$TRACEWID
 40
1.0
  9
$TEXTSTYLE
  7
Standard
  9
$CLAYER
  8
0
  9
$CELTYPE
  6
ByLayer
  9
$CECOLOR
 62
256
  9
$CELTSCALE
 40
1.0
  9
$DISPSILH
 70
0
  9
$DIMSCALE
 40
1.0
  9
$DIMASZ
 40
2.5
  9
$DIMEXO
 40
0.625
  9
$DIMDLI
 40
3.75
  9
$DIMRND
 40
0.0
  9
$DIMDLE
 40
0.0
  9
$DIMEXE
 40
1.25
  9
$DIMTP
 40
0.0
  9
$DIMTM
 40
0.0
  9
$DIMTXT
 40
2.5
  9
$DIMCEN
 40
2.5
  9
$DIMTSZ
 40
0.0
  9
$DIMTOL
 70
0
  9
$DIMLIM
 70
0
  9
$DIMTIH
 70
0
  9
$DIMTOH
 70
0
  9
$DIMSE1
 70
0
  9
$DIMSE2
 70
0
  9
$DIMTAD
 70
1
  9
$DIMZIN
 70
8
  9
$DIMBLK
  1

  9
$DIMASO
 70
1
  9
$DIMSHO
 70
1
  9
$DIMPOST
  1

  9
$DIMAPOST
  1

  9
$DIMALT
 70
0
  9
$DIMALTD
 70
3
  9
$DIMALTF
 40
0.03937007874
  9
$DIMLFAC
 40
1.0
  9
$DIMTOFL
 70
1
  9
$DIMTVP
 40
0.0
  9
$DIMTIX
 70
0
  9
$DIMSOXD
 70
0
  9
$DIMSAH
 70
0
  9
$DIMBLK1
  1

  9
$DIMBLK2
  1

  9
$DIMSTYLE
  2
ISO-25
  9
$DIMCLRD
 70
0
  9
$DIMCLRE
 70
0
  9
$DIMCLRT
 70
0
  9
$DIMTFAC
 40
1.0
  9
$DIMGAP
 40
0.625
  9
$DIMJUST
 70
0
  9
$DIMSD1
 70
0
  9
$DIMSD2
 70
0
  9
$DIMTOLJ
 70
0
  9
$DIMTZIN
 70
8
  9
$DIMALTZ
 70
0
  9
$DIMALTTZ
 70
0
  9
$DIMUPT
 70
0
  9
$DIMDEC
 70
2
  9
$DIMTDEC
 70
2
  9
$DIMALTU
 70
2
  9
$DIMALTTD
 70
3
  9
$DIMTXSTY
  7
Standard
  9
$DIMAUNIT
 70
0
  9
$DIMADEC
 70
0
  9
$DIMALTRND
 40
0.0
  9
$DIMAZIN
 70
0
  9
$DIMDSEP
 70
44
  9
$DIMATFIT
 70
3
  9
$DIMFRAC
 70
0
  9
$DIMLDRBLK
  1

  9
$DIMLUNIT
 70
2
  9
$DIMLWD
 70
-2
  9
$DIMLWE
 70
-2
  9
$DIMTMOVE
 70
0
  9
$DIMFXL
 40
1.0
  9
$DIMFXLON
 70
0
  9
$DIMJOGANG
 40
0.785398163397
  9
$DIMTFILL
 70
0
  9
$DIMTFILLCLR
 70
0
  9
$DIMARCSYM
 70
0
  9
$DIMLTYPE
  6

  9
$DIMLTEX1
  6

  9
$DIMLTEX2
  6

  9
$DIMTXTDIRECTION
 70
0
  9
$LUNITS
 70
2
  9
$LUPREC
 70
4
  9
$SKETCHINC
 40
1.0
  9
$FILLETRAD
 40
10.0
  9
$AUNITS
 70
0
  9
$AUPREC
 70
2
  9
$MENU
  1
.
  9
$ELEVATION
 40
0.0
  9
$PELEVATION
 40
0.0
  9
$THICKNESS
 40
0.0
  9
$LIMCHECK
 70
0
  9
$CHAMFERA
 40
0.0
  9
$CHAMFERB
 40
0.0
  9
$CHAMFERC
 40
0.0
  9
$CHAMFERD
 40
0.0
  9
$SKPOLY
 70
0
  9
$TDCREATE
 40
2461070.4466435187
  9
$TDUCREATE
 40
2458532.153996898
  9
$TDUPDATE
 40
2461070.4466435187
  9
$TDUUPDATE
 40
2458532.1544311
  9
$TDINDWG
 40
0.0
  9
$TDUSRTIMER
 40
0.0
  9
$USRTIMER
 70
1
  9
$ANGBASE
 50
0.0
  9
$ANGDIR
 70
0
  9
$PDMODE
 70
0
  9
$PDSIZE
 40
0.0
  9
$PLINEWID
 40
0.0
  9
$SPLFRAME
 70
0
  9
$SPLINETYPE
 70
6
  9
$SPLINESEGS
 70
8
  9
$HANDSEED
  5
530
  9
$SURFTAB1
 70
6
  9
$SURFTAB2
 70
6
  9
$SURFTYPE
 70
6
  9
$SURFU
 70
6
  9
$SURFV
 70
6
  9
$UCSBASE
  2

  9
$UCSNAME
  2

  9
$UCSORG
 10
0.0
 20
0.0
 30
0.0
  9
$UCSXDIR
 10
1.0
 20
0.0
 30
0.0
  9
$UCSYDIR
 10
0.0
 20
1.0
 30
0.0
  9
$UCSORTHOREF
  2

  9
$UCSORTHOVIEW
 70
0
  9
$UCSORGTOP
 10
0.0
 20
0.0
 30
0.0
  9
$UCSORGBOTTOM
 10
0.0
 20
0.0
 30
0.0
  9
$UCSORGLEFT
 10
0.0
 20
0.0
 30
0.0
  9
$UCSORGRIGHT
 10
0.0
 20
0.0
 30
0.0
  9
$UCSORGFRONT
 10
0.0
 20
0.0
 30
0.0
  9
$UCSORGBACK
 10
0.0
 20
0.0
 30
0.0
  9
$PUCSBASE
  2

  9
$PUCSNAME
  2

  9
$PUCSORG
 10
0.0
 20
0.0
 30
0.0
  9
$PUCSXDIR
 10
1.0
 20
0.0
 30
0.0
  9
$PUCSYDIR
 10
0.0
 20
1.0
 30
0.0
  9
$PUCSORTHOREF
  2

  9
$PUCSORTHOVIEW
 70
0
  9
$PUCSORGTOP
 10
0.0
 20
0.0
 30
0.0
  9
$PUCSORGBOTTOM
 10
0.0
 20
0.0
 30
0.0
  9
$PUCSORGLEFT
 10
0.0
 20
0.0
 30
0.0
  9
$PUCSORGRIGHT
 10
0.0
 20
0.0
 30
0.0
  9
$PUCSORGFRONT
 10
0.0
 20
0.0
 30
0.0
  9
$PUCSORGBACK
 10
0.0
 20
0.0
 30
0.0
  9
$USERI1
 70
0
  9
$USERI2
 70
0
  9
$USERI3
 70
0
  9
$USERI4
 70
0
  9
$USERI5
 70
0
  9
$USERR1
 40
0.0
  9
$USERR2
 40
0.0
  9
$USERR3
 40
0.0
  9
$USERR4
 40
0.0
  9
$USERR5
 40
0.0
  9
$WORLDVIEW
 70
1
  9
$SHADEDGE
 70
3
  9
$SHADEDIF
 70
70
  9
$TILEMODE
 70
1
  9
$MAXACTVP
 70
64
  9
$PINSBASE
 10
0.0
 20
0.0
 30
0.0
  9
$PLIMCHECK
 70
0
  9
$PEXTMIN
 10
1e+20
 20
1e+20
 30
1e+20
  9
$PEXTMAX
 10
-1e+20
 20
-1e+20
 30
-1e+20
  9
$PLIMMIN
 10
0.0
 20
0.0
  9
$PLIMMAX
 10
420.0
 20
297.0
  9
$UNITMODE
 70
0
  9
$VISRETAIN
 70
1
  9
$PLINEGEN
 70
0
  9
$PSLTSCALE
 70
1
  9
$TREEDEPTH
 70
3020
  9
$CMLSTYLE
  2
Standard
  9
$CMLJUST
 70
0
  9
$CMLSCALE
 40
20.0
  9
$PROXYGRAPHICS
 70
1
  9
$MEASUREMENT
 70
1
  9
$CELWEIGHT
370
-1
  9
$ENDCAPS
280
0
  9
$JOINSTYLE
280
0
  9
$LWDISPLAY
290
0
  9
$INSUNITS
 70
6
  9
$HYPERLINKBASE
  1

  9
$STYLESHEET
  1

  9
$XEDIT
290
1
  9
$CEPSNTYPE
380
0
  9
$PSTYLEMODE
290
1
  9
$FINGERPRINTGUID
  2
{291B6436-2B81-4A58-8EEE-81578CD79009}
  9
$VERSIONGUID
  2
{462B5CA4-B558-4F89-87DE-4F15D22756C1}
  9
$EXTNAMES
290
1
  9
$PSVPSCALE
 40
0.0
  9
$OLESTARTUP
290
0
  9
$SORTENTS
280
127
  9
$INDEXCTL
280
0
  9
$HIDETEXT
280
1
  9
$XCLIPFRAME
280
1
  9
$HALOGAP
280
0
  9
$OBSCOLOR
 70
257
  9
$OBSLTYPE
280
0
  9
$INTERSECTIONDISPLAY
280
0
  9
$INTERSECTIONCOLOR
 70
257
  9
$DIMASSOC
280
2
  9
$PROJECTNAME
  1

  9
$CAMERADISPLAY
290
0
  9
$LENSLENGTH
 40
50.0
  9
$CAMERAHEIGHT
 40
0.0
  9
$STEPSPERSEC
 40
24.0
  9
$STEPSIZE
 40
100.0
  9
$3DDWFPREC
 40
2.0
  9
$PSOLWIDTH
 40
0.005
  9
$PSOLHEIGHT
 40
0.08
  9
$LOFTANG1
 40
1.570796326795
  9
$LOFTANG2
 40
1.570796326795
  9
$LOFTMAG1
 40
0.0
  9
$LOFTMAG2
 40
0.0
  9
$LOFTPARAM
 70
7
  9
$LOFTNORMALS
280
1
  9
$LATITUDE
 40
37.795
  9
$LONGITUDE
 40
-122.394
  9
$NORTHDIRECTION
 40
0.0
  9
$TIMEZONE
 70
-8000
  9
$LIGHTGLYPHDISPLAY
280
1
  9
$TILEMODELIGHTSYNCH
280
1
  9
$CMATERIAL
347
20
  9
$SOLIDHIST
280
0
  9
$SHOWHIST
280
1
  9
$DWFFRAME
280
2
  9
$DGNFRAME
280
2
  9
$REALWORLDSCALE
290
1
  9
$INTERFERECOLOR
 62
256
  9
$CSHADOW
280
0
  9
$SHADOWPLANELOCATION
 40
0.0
  0
ENDSEC
  0
SECTION
  2
CLASSES
  0
CLASS
  1
ACDBDICTIONARYWDFLT
  2
AcDbDictionaryWithDefault
  3
ObjectDBX Classes
 90
0
 91
0
280
0
281
0
  0
CLASS
  1
SUN
  2
AcDbSun
  3
SCENEOE
 90
1153
 91
0
280
0
281
0
  0
CLASS
  1
VISUALSTYLE
  2
AcDbVisualStyle
  3
ObjectDBX Classes
 90
4095
 91
0
280
0
281
0
  0
CLASS
  1
MATERIAL
  2
AcDbMaterial
  3
ObjectDBX Classes
 90
1153
 91
0
280
0
281
0
  0
CLASS
  1
SCALE
  2
AcDbScale
  3
ObjectDBX Classes
 90
1153
 91
0
280
0
281
0
  0
CLASS
  1
TABLESTYLE
  2
AcDbTableStyle
  3
ObjectDBX Classes
 90
4095
 91
0
280
0
281
0
  0
CLASS
  1
MLEADERSTYLE
  2
AcDbMLeaderStyle
  3
ACDB_MLEADERSTYLE_CLASS
 90
4095
 91
0
280
0
281
0
  0
CLASS
  1
DICTIONARYVAR
  2
AcDbDictionaryVar
  3
ObjectDBX Classes
 90
0
 91
0
280
0
281
0
  0
CLASS
  1
CELLSTYLEMAP
  2
AcDbCellStyleMap
  3
ObjectDBX Classes
 90
1152
 91
0
280
0
281
0
  0
CLASS
  1
MENTALRAYRENDERSETTINGS
  2
AcDbMentalRayRenderSettings
  3
SCENEOE
 90
1024
 91
0
280
0
281
0
  0
CLASS
  1
ACDBDETAILVIEWSTYLE
  2
AcDbDetailViewStyle
  3
ObjectDBX Classes
 90
1025
 91
0
280
0
281
0
  0
CLASS
  1
ACDBSECTIONVIEWSTYLE
  2
AcDbSectionViewStyle
  3
ObjectDBX Classes
 90
1025
 91
0
280
0
281
0
  0
CLASS
  1
RASTERVARIABLES
  2
AcDbRasterVariables
  3
ISM
 90
0
 91
0
280
0
281
0
  0
CLASS
  1
IMAGE
  2
AcDbRasterImage
  3
ISM
 90
2175
 91
0
280
0
281
1
  0
CLASS
  1
IMAGEDEF
  2
AcDbRasterImageDef
  3
ISM
 90
0
 91
0
280
0
281
0
  0
CLASS
  1
IMAGEDEF_REACTOR
  2
AcDbRasterImageDefReactor
  3
ISM
 90
1
 91
0
280
0
281
0
  0
CLASS
  1
LAYOUT
  2
AcDbLayout
  3
ObjectDBX Classes
 90
0
 91
0
280
0
281
0
  0
CLASS
  1
ACDBPLACEHOLDER
  2
AcDbPlaceHolder
  3
ObjectDBX Classes
 90
0
 91
0
280
0
281
0
  0
ENDSEC
  0
SECTION
  2
TABLES
  0
TABLE
  2
VPORT
  5
8
330
0
100
AcDbSymbolTable
 70
1
  0
VPORT
  5
52C
330
8
100
AcDbSymbolTableRecord
100
AcDbViewportTableRecord
  2
*Active
 70
0
 10
0.0
 20
0.0
 11
1.0
 21
1.0
 12
5775.011880000001
 22
4084.1668175388972
 13
0.0
 23
0.0
 14
0.5
 24
0.5
 15
0.5
 25
0.5
 16
0.0
 26
0.0
 36
1.0
 17
0.0
 27
0.0
 37
0.0
 40
8168.3336350777945
 41
1.34
 42
50.0
 43
0.0
 44
0.0
 50
0.0
 51
0.0
 71
0
 72
1000
 73
1
 74
3
 75
0
 76
0
 77
0
 78
0
281
0
 65
1
110
0.0
120
0.0
130
0.0
111
1.0
121
0.0
131
0.0
112
0.0
122
1.0
132
0.0
 79
0
146
0.0
  0
ENDTAB
  0
TABLE
  2
LTYPE
  5
2
330
0
100
AcDbSymbolTable
 70
6
  0
LTYPE
  5
24
330
2
100
AcDbSymbolTableRecord
100
AcDbLinetypeTableRecord
  2
ByBlock
 70
0
  3

 72
65
 73
0
 40
0.0
  0
LTYPE
  5
25
330
2
100
AcDbSymbolTableRecord
100
AcDbLinetypeTableRecord
  2
ByLayer
 70
0
  3

 72
65
 73
0
 40
0.0
  0
LTYPE
  5
26
330
2
100
AcDbSymbolTableRecord
100
AcDbLinetypeTableRecord
  2
Continuous
 70
0
  3

 72
65
 73
0
 40
0.0
  0
LTYPE
  5
DC
330
2
100
AcDbSymbolTableRecord
100
AcDbLinetypeTableRecord
  2
CONTIN
 70
0
  3

 72
65
 73
0
 40
0.0
  0
LTYPE
  5
DD
330
2
100
AcDbSymbolTableRecord
100
AcDbLinetypeTableRecord
  2
CENTER
 70
0
  3

 72
65
 73
0
 40
0.0
  0
LTYPE
  5
DE
330
2
100
AcDbSymbolTableRecord
100
AcDbLinetypeTableRecord
  2
DASHED
 70
0
  3

 72
65
 73
0
 40
0.0
  0
ENDTAB
  0
TABLE
  2
LAYER
  5
1
330
0
100
AcDbSymbolTable
 70
52
  0
LAYER
  5
27
330
1
100
AcDbSymbolTableRecord
100
AcDbLayerTableRecord
  2
0
 70
0
 62
7
  6
Continuous
370
-3
390
13
347
21
  0
LAYER
  5
28
330
1
100
AcDbSymbolTableRecord
100
AcDbLayerTableRecord
  2
Defpoints
 70
0
 62
7
  6
Continuous
290
0
370
-3
390
13
347
21
  0
LAYER
  5
A6
330
1
100
AcDbSymbolTableRecord
100
AcDbLayerTableRecord
  2
1
 70
0
 62
7
  6
CONTIN
370
-3
390
13
347
21
  0
LAYER
  5
A7
330
1
100
AcDbSymbolTableRecord
100
AcDbLayerTableRecord
  2
2
 70
0
 62
7
  6
CONTIN
370
-3
390
13
347
21
  0
LAYER
  5
A8
330
1
100
AcDbSymbolTableRecord
100
AcDbLayerTableRecord
  2
3
 70
0
 62
1
  6
CONTIN
370
-3
390
13
347
21
  0
LAYER
  5
A9
330
1
100
AcDbSymbolTableRecord
100
AcDbLayerTableRecord
  2
4
 70
0
 62
1
  6
CONTIN
370
-3
390
13
347
21
  0
LAYER
  5
AA
330
1
100
AcDbSymbolTableRecord
100
AcDbLayerTableRecord
  2
5
 70
0
 62
7
  6
CONTIN
370
-3
390
13
347
21
  0
LAYER
  5
AB
330
1
100
AcDbSymbolTableRecord
100
AcDbLayerTableRecord
  2
6
 70
0
 62
4
  6
CONTIN
370
-3
390
13
347
21
  0
LAYER
  5
AC
330
1
100
AcDbSymbolTableRecord
100
AcDbLayerTableRecord
  2
7
 70
0
 62
3
  6
DASHED
370
-3
390
13
347
21
  0
LAYER
  5
AD
330
1
100
AcDbSymbolTableRecord
100
AcDbLayerTableRecord
  2
8
 70
0
 62
3
  6
DASHED
370
-3
390
13
347
21
  0
LAYER
  5
AE
330
1
100
AcDbSymbolTableRecord
100
AcDbLayerTableRecord
  2
9
 70
0
 62
7
  6
CONTIN
370
-3
390
13
347
21
  0
LAYER
  5
AF
330
1
100
AcDbSymbolTableRecord
100
AcDbLayerTableRecord
  2
10
 70
0
 62
7
  6
CONTIN
370
-3
390
13
347
21
  0
LAYER
  5
B0
330
1
100
AcDbSymbolTableRecord
100
AcDbLayerTableRecord
  2
11
 70
0
 62
7
  6
CONTIN
370
-3
390
13
347
21
  0
LAYER
  5
B1
330
1
100
AcDbSymbolTableRecord
100
AcDbLayerTableRecord
  2
12
 70
0
 62
2
  6
CONTIN
370
-3
390
13
347
21
  0
LAYER
  5
B2
330
1
100
AcDbSymbolTableRecord
100
AcDbLayerTableRecord
  2
13
 70
0
 62
2
  6
CONTIN
370
-3
390
13
347
21
  0
LAYER
  5
B3
330
1
100
AcDbSymbolTableRecord
100
AcDbLayerTableRecord
  2
14
 70
0
 62
7
  6
CONTIN
370
-3
390
13
347
21
  0
LAYER
  5
B4
330
1
100
AcDbSymbolTableRecord
100
AcDbLayerTableRecord
  2
15
 70
0
 62
6
  6
CONTIN
370
-3
390
13
347
21
  0
LAYER
  5
B5
330
1
100
AcDbSymbolTableRecord
100
AcDbLayerTableRecord
  2
16
 70
0
 62
7
  6
CONTIN
370
-3
390
13
347
21
  0
LAYER
  5
B6
330
1
100
AcDbSymbolTableRecord
100
AcDbLayerTableRecord
  2
17
 70
0
 62
7
  6
CONTIN
370
-3
390
13
347
21
  0
LAYER
  5
B7
330
1
100
AcDbSymbolTableRecord
100
AcDbLayerTableRecord
  2
18
 70
0
 62
4
  6
CONTIN
370
-3
390
13
347
21
  0
LAYER
  5
B8
330
1
100
AcDbSymbolTableRecord
100
AcDbLayerTableRecord
  2
19
 70
0
 62
7
  6
CONTIN
370
-3
390
13
347
21
  0
LAYER
  5
B9
330
1
100
AcDbSymbolTableRecord
100
AcDbLayerTableRecord
  2
20
 70
0
 62
7
  6
CONTIN
370
-3
390
13
347
21
  0
LAYER
  5
BA
330
1
100
AcDbSymbolTableRecord
100
AcDbLayerTableRecord
  2
21
 70
0
 62
7
  6
CONTIN
370
-3
390
13
347
21
  0
LAYER
  5
BB
330
1
100
AcDbSymbolTableRecord
100
AcDbLayerTableRecord
  2
22
 70
0
 62
7
  6
CONTIN
370
-3
390
13
347
21
  0
LAYER
  5
BC
330
1
100
AcDbSymbolTableRecord
100
AcDbLayerTableRecord
  2
23
 70
0
 62
7
  6
CONTIN
370
-3
390
13
347
21
  0
LAYER
  5
BD
330
1
100
AcDbSymbolTableRecord
100
AcDbLayerTableRecord
  2
24
 70
0
 62
7
  6
CONTIN
370
-3
390
13
347
21
  0
LAYER
  5
BE
330
1
100
AcDbSymbolTableRecord
100
AcDbLayerTableRecord
  2
25
 70
0
 62
7
  6
CONTIN
370
-3
390
13
347
21
  0
LAYER
  5
BF
330
1
100
AcDbSymbolTableRecord
100
AcDbLayerTableRecord
  2
26
 70
0
 62
7
  6
CONTIN
370
-3
390
13
347
21
  0
LAYER
  5
C0
330
1
100
AcDbSymbolTableRecord
100
AcDbLayerTableRecord
  2
27
 70
0
 62
7
  6
CONTIN
370
-3
390
13
347
21
  0
LAYER
  5
C1
330
1
100
AcDbSymbolTableRecord
100
AcDbLayerTableRecord
  2
28
 70
0
 62
7
  6
CONTIN
370
-3
390
13
347
21
  0
LAYER
  5
C2
330
1
100
AcDbSymbolTableRecord
100
AcDbLayerTableRecord
  2
29
 70
0
 62
7
  6
CONTIN
370
-3
390
13
347
21
  0
LAYER
  5
C3
330
1
100
AcDbSymbolTableRecord
100
AcDbLayerTableRecord
  2
30
 70
0
 62
7
  6
CONTIN
370
-3
390
13
347
21
  0
LAYER
  5
C4
330
1
100
AcDbSymbolTableRecord
100
AcDbLayerTableRecord
  2
31
 70
0
 62
7
  6
CONTIN
370
-3
390
13
347
21
  0
LAYER
  5
C5
330
1
100
AcDbSymbolTableRecord
100
AcDbLayerTableRecord
  2
32
 70
0
 62
7
  6
CONTIN
370
-3
390
13
347
21
  0
LAYER
  5
C6
330
1
100
AcDbSymbolTableRecord
100
AcDbLayerTableRecord
  2
33
 70
0
 62
7
  6
CONTIN
370
-3
390
13
347
21
  0
LAYER
  5
C7
330
1
100
AcDbSymbolTableRecord
100
AcDbLayerTableRecord
  2
34
 70
0
 62
7
  6
CONTIN
370
-3
390
13
347
21
  0
LAYER
  5
C8
330
1
100
AcDbSymbolTableRecord
100
AcDbLayerTableRecord
  2
35
 70
0
 62
7
  6
CONTIN
370
-3
390
13
347
21
  0
LAYER
  5
C9
330
1
100
AcDbSymbolTableRecord
100
AcDbLayerTableRecord
  2
36
 70
0
 62
7
  6
CONTIN
370
-3
390
13
347
21
  0
LAYER
  5
CA
330
1
100
AcDbSymbolTableRecord
100
AcDbLayerTableRecord
  2
37
 70
0
 62
7
  6
CONTIN
370
-3
390
13
347
21
  0
LAYER
  5
CB
330
1
100
AcDbSymbolTableRecord
100
AcDbLayerTableRecord
  2
38
 70
0
 62
7
  6
CONTIN
370
-3
390
13
347
21
  0
LAYER
  5
CC
330
1
100
AcDbSymbolTableRecord
100
AcDbLayerTableRecord
  2
39
 70
0
 62
7
  6
CONTIN
370
-3
390
13
347
21
  0
LAYER
  5
CD
330
1
100
AcDbSymbolTableRecord
100
AcDbLayerTableRecord
  2
40
 70
0
 62
7
  6
CONTIN
370
-3
390
13
347
21
  0
LAYER
  5
CE
330
1
100
AcDbSymbolTableRecord
100
AcDbLayerTableRecord
  2
41
 70
0
 62
7
  6
CONTIN
370
-3
390
13
347
21
  0
LAYER
  5
CF
330
1
100
AcDbSymbolTableRecord
100
AcDbLayerTableRecord
  2
42
 70
0
 62
7
  6
CONTIN
370
-3
390
13
347
21
  0
LAYER
  5
D0
330
1
100
AcDbSymbolTableRecord
100
AcDbLayerTableRecord
  2
43
 70
0
 62
7
  6
CONTIN
370
-3
390
13
347
21
  0
LAYER
  5
D1
330
1
100
AcDbSymbolTableRecord
100
AcDbLayerTableRecord
  2
44
 70
0
 62
7
  6
CONTIN
370
-3
390
13
347
21
  0
LAYER
  5
D2
330
1
100
AcDbSymbolTableRecord
100
AcDbLayerTableRecord
  2
45
 70
0
 62
7
  6
CONTIN
370
-3
390
13
347
21
  0
LAYER
  5
D3
330
1
100
AcDbSymbolTableRecord
100
AcDbLayerTableRecord
  2
46
 70
0
 62
7
  6
CONTIN
370
-3
390
13
347
21
  0
LAYER
  5
D4
330
1
100
AcDbSymbolTableRecord
100
AcDbLayerTableRecord
  2
47
 70
0
 62
7
  6
CONTIN
370
-3
390
13
347
21
  0
LAYER
  5
D5
330
1
100
AcDbSymbolTableRecord
100
AcDbLayerTableRecord
  2
48
 70
0
 62
7
  6
CONTIN
370
-3
390
13
347
21
  0
LAYER
  5
D6
330
1
100
AcDbSymbolTableRecord
100
AcDbLayerTableRecord
  2
49
 70
0
 62
7
  6
CONTIN
370
-3
390
13
347
21
  0
LAYER
  5
2E9
330
1
100
AcDbSymbolTableRecord
100
AcDbLayerTableRecord
  2
50
 70
0
 62
7
  6
CONTINUOUS
370
-3
390
13
347
21
  0
ENDTAB
  0
TABLE
  2
STYLE
  5
5
330
0
100
AcDbSymbolTable
 70
6
  0
STYLE
  5
29
330
5
100
AcDbSymbolTableRecord
100
AcDbTextStyleTableRecord
  2
Standard
 70
0
 40
0.0
 41
1.0
 50
0.0
 71
0
 42
2.5
  3
txt
  4

  0
STYLE
  5
D7
330
5
100
AcDbSymbolTableRecord
100
AcDbTextStyleTableRecord
  2
SIMPLEX
 70
0
 40
0.0
 41
1.0
 50
0.0
 71
0
 42
2.5
  3
txt
  4

  0
STYLE
  5
D8
330
5
100
AcDbSymbolTableRecord
100
AcDbTextStyleTableRecord
  2
ROMANS
 70
0
 40
0.0
 41
1.0
 50
0.0
 71
0
 42
2.5
  3
txt
  4

  0
STYLE
  5
D9
330
5
100
AcDbSymbolTableRecord
100
AcDbTextStyleTableRecord
  2
OPEN
 70
0
 40
0.0
 41
1.0
 50
0.0
 71
0
 42
2.5
  3
txt
  4

  0
STYLE
  5
DA
330
5
100
AcDbSymbolTableRecord
100
AcDbTextStyleTableRecord
  2
ARIAL
 70
0
 40
0.0
 41
1.0
 50
0.0
 71
0
 42
2.5
  3
txt
  4

  0
STYLE
  5
DB
330
5
100
AcDbSymbolTableRecord
100
AcDbTextStyleTableRecord
  2
VERDANAB
 70
0
 40
0.0
 41
1.0
 50
0.0
 71
0
 42
2.5
  3
txt
  4

  0
ENDTAB
  0
TABLE
  2
VIEW
  5
7
330
0
100
AcDbSymbolTable
 70
0
  0
ENDTAB
  0
TABLE
  2
UCS
  5
6
330
0
100
AcDbSymbolTable
 70
0
  0
ENDTAB
  0
TABLE
  2
APPID
  5
3
330
0
100
AcDbSymbolTable
 70
3
  0
APPID
  5
2A
330
3
100
AcDbSymbolTableRecord
100
AcDbRegAppTableRecord
  2
ACAD
 70
0
  0
APPID
  5
52D
330
3
100
AcDbSymbolTableRecord
100
AcDbRegAppTableRecord
  2
HATCHBACKGROUNDCOLOR
 70
0
  0
APPID
  5
52E
330
3
100
AcDbSymbolTableRecord
100
AcDbRegAppTableRecord
  2
EZDXF
 70
0
  0
ENDTAB
  0
TABLE
  2
DIMSTYLE
  5
4
330
0
100
AcDbSymbolTable
 70
1
100
AcDbDimStyleTable
  0
DIMSTYLE
105
2B
330
4
100
AcDbSymbolTableRecord
100
AcDbDimStyleTableRecord
  2
Standard
 70
0
 40
1.0
 41
2.5
 42
0.625
 43
3.75
 44
1.25
 45
0.0
 46
0.0
 47
0.0
 48
0.0
 49
2.5
140
2.5
141
2.5
142
0.0
143
0.03937007874
144
1.0
145
0.0
146
1.0
147
0.625
148
0.0
 69
0
 70
0
 71
0
 72
0
 73
0
 74
0
 75
0
 76
0
 77
1
 78
8
 79
3
170
0
171
3
172
1
173
0
174
0
175
0
176
0
177
0
178
0
179
2
271
2
272
2
273
2
274
3
275
0
276
0
277
2
278
44
279
0
280
0
281
0
282
0
283
0
284
8
285
0
286
0
288
0
289
3
290
0
371
-2
372
-2
  0
ENDTAB
  0
TABLE
  2
BLOCK_RECORD
  5
9
330
0
100
AcDbSymbolTable
 70
26
  0
BLOCK_RECORD
  5
17
330
9
100
AcDbSymbolTableRecord
100
AcDbBlockTableRecord
  2
*Model_Space
340
1A
 70
0
280
1
281
0
  0
BLOCK_RECORD
  5
1B
330
9
100
AcDbSymbolTableRecord
100
AcDbBlockTableRecord
  2
*Paper_Space
340
1E
 70
0
280
1
281
0
  0
BLOCK_RECORD
  5
2F
330
9
100
AcDbSymbolTableRecord
100
AcDbBlockTableRecord
  2
PART_TABLE_BLOCK
340
0
 70
0
280
1
281
0
  0
BLOCK_RECORD
  5
DF
330
9
100
AcDbSymbolTableRecord
100
AcDbBlockTableRecord
  2
SLOTTD
340
0
 70
0
280
1
281
0
  0
BLOCK_RECORD
  5
E6
330
9
100
AcDbSymbolTableRecord
100
AcDbBlockTableRecord
  2
ARROW
340
0
 70
0
280
1
281
0
  0
BLOCK_RECORD
  5
EA
330
9
100
AcDbSymbolTableRecord
100
AcDbBlockTableRecord
  2
FLGHOL
340
0
 70
0
280
1
281
0
  0
BLOCK_RECORD
  5
EE
330
9
100
AcDbSymbolTableRecord
100
AcDbBlockTableRecord
  2
GRTCLPB
340
0
 70
0
280
1
281
0
  0
BLOCK_RECORD
  5
F7
330
9
100
AcDbSymbolTableRecord
100
AcDbBlockTableRecord
  2
ARROWP
340
0
 70
0
280
1
281
0
  0
BLOCK_RECORD
  5
FD
330
9
100
AcDbSymbolTableRecord
100
AcDbBlockTableRecord
  2
BRCCLP
340
0
 70
0
280
1
281
0
  0
BLOCK_RECORD
  5
103
330
9
100
AcDbSymbolTableRecord
100
AcDbBlockTableRecord
  2
CIRCLE
340
0
 70
0
280
1
281
0
  0
BLOCK_RECORD
  5
107
330
9
100
AcDbSymbolTableRecord
100
AcDbBlockTableRecord
  2
FLAT_ASMPIECE
340
0
 70
0
280
1
281
0
  0
BLOCK_RECORD
  5
249
330
9
100
AcDbSymbolTableRecord
100
AcDbBlockTableRecord
  2
FLAT_ASMSECTN
340
0
 70
0
280
1
281
0
  0
BLOCK_RECORD
  5
2AE
330
9
100
AcDbSymbolTableRecord
100
AcDbBlockTableRecord
  2
Title_Block
340
0
 70
0
280
1
281
0
  0
BLOCK_RECORD
  5
2EA
330
9
100
AcDbSymbolTableRecord
100
AcDbBlockTableRecord
  2
WB2
340
0
 70
0
280
1
281
0
  0
BLOCK_RECORD
  5
323
330
9
100
AcDbSymbolTableRecord
100
AcDbBlockTableRecord
  2
CLF1
340
0
 70
0
280
1
281
0
  0
BLOCK_RECORD
  5
352
330
9
100
AcDbSymbolTableRecord
100
AcDbBlockTableRecord
  2
ST4
340
0
 70
0
280
1
281
0
  0
BLOCK_RECORD
  5
36F
330
9
100
AcDbSymbolTableRecord
100
AcDbBlockTableRecord
  2
OF2
340
0
 70
0
280
1
281
0
  0
BLOCK_RECORD
  5
38B
330
9
100
AcDbSymbolTableRecord
100
AcDbBlockTableRecord
  2
OF3
340
0
 70
0
280
1
281
0
  0
BLOCK_RECORD
  5
3A7
330
9
100
AcDbSymbolTableRecord
100
AcDbBlockTableRecord
  2
CLF4
340
0
 70
0
280
1
281
0
  0
BLOCK_RECORD
  5
3E5
330
9
100
AcDbSymbolTableRecord
100
AcDbBlockTableRecord
  2
ES1
340
0
 70
0
280
1
281
0
  0
BLOCK_RECORD
  5
401
330
9
100
AcDbSymbolTableRecord
100
AcDbBlockTableRecord
  2
IF2
340
0
 70
0
280
1
281
0
  0
BLOCK_RECORD
  5
41D
330
9
100
AcDbSymbolTableRecord
100
AcDbBlockTableRecord
  2
EP3
340
0
 70
0
280
1
281
0
  0
BLOCK_RECORD
  5
469
330
9
100
AcDbSymbolTableRecord
100
AcDbBlockTableRecord
  2
EP2
340
0
 70
0
280
1
281
0
  0
BLOCK_RECORD
  5
4B5
330
9
100
AcDbSymbolTableRecord
100
AcDbBlockTableRecord
  2
SS5
340
0
 70
0
280
1
281
0
  0
BLOCK_RECORD
  5
4D0
330
9
100
AcDbSymbolTableRecord
100
AcDbBlockTableRecord
  2
SS6
340
0
 70
0
280
1
281
0
  0
BLOCK_RECORD
  5
4EC
330
9
100
AcDbSymbolTableRecord
100
AcDbBlockTableRecord
  2
SS3
340
0
 70
0
280
1
281
0
  0
ENDTAB
  0
ENDSEC
  0
SECTION
  2
BLOCKS
  0
BLOCK
  5
18
330
17
100
AcDbEntity
  8
0
100
AcDbBlockBegin
  2
*Model_Space
 70
0
 10
0.0
 20
0.0
 30
0.0
  3
*Model_Space
  1

  0
ENDBLK
  5
19
330
17
100
AcDbEntity
  8
0
100
AcDbBlockEnd
  0
BLOCK
  5
1C
330
1B
100
AcDbEntity
  8
0
100
AcDbBlockBegin
  2
*Paper_Space
 70
0
 10
0.0
 20
0.0
 30
0.0
  3
*Paper_Space
  1

  0
ENDBLK
  5
1D
330
1B
100
AcDbEntity
  8
0
100
AcDbBlockEnd
  0
BLOCK
  5
30
330
2F
100
AcDbEntity
  8
0
100
AcDbBlockBegin
  2
PART_TABLE_BLOCK
 70
0
 10
0.0
 20
0.0
 30
0.0
  3
PART_TABLE_BLOCK
  1

  0
LWPOLYLINE
  5
32
330
2F
100
AcDbEntity
  8
0
100
AcDbPolyline
 90
4
 70
1
 10
0.0
 20
2100.0
 10
600.0
 20
2100.0
 10
600.0
 20
1960.0
 10
0.0
 20
1960.0
  0
TEXT
  5
33
330
2F
100
AcDbEntity
  8
0
100
AcDbText
 10
300.0
 20
2030.0
 30
0.0
 40
80.0
  1
MARK
 72
1
 11
300.0
 21
2030.0
 31
0.0
100
AcDbText
 73
2
  0
LWPOLYLINE
  5
34
330
2F
100
AcDbEntity
  8
0
100
AcDbPolyline
 90
4
 70
1
 10
600.0
 20
2100.0
 10
900.0
 20
2100.0
 10
900.0
 20
1960.0
 10
600.0
 20
1960.0
  0
TEXT
  5
35
330
2F
100
AcDbEntity
  8
0
100
AcDbText
 10
750.0
 20
2030.0
 30
0.0
 40
80.0
  1
QNT
 72
1
 11
750.0
 21
2030.0
 31
0.0
100
AcDbText
 73
2
  0
LWPOLYLINE
  5
36
330
2F
100
AcDbEntity
  8
0
100
AcDbPolyline
 90
4
 70
1
 10
900.0
 20
2100.0
 10
2100.0
 20
2100.0
 10
2100.0
 20
1960.0
 10
900.0
 20
1960.0
  0
TEXT
  5
37
330
2F
100
AcDbEntity
  8
0
100
AcDbText
 10
1500.0
 20
2030.0
 30
0.0
 40
80.0
  1
DESCRIPTION
 72
1
 11
1500.0
 21
2030.0
 31
0.0
100
AcDbText
 73
2
  0
LWPOLYLINE
  5
38
330
2F
100
AcDbEntity
  8
0
100
AcDbPolyline
 90
4
 70
1
 10
2100.0
 20
2100.0
 10
2700.0
 20
2100.0
 10
2700.0
 20
1960.0
 10
2100.0
 20
1960.0
  0
TEXT
  5
39
330
2F
100
AcDbEntity
  8
0
100
AcDbText
 10
2400.0
 20
2030.0
 30
0.0
 40
80.0
  1
WEIGHT
 72
1
 11
2400.0
 21
2030.0
 31
0.0
100
AcDbText
 73
2
  0
LWPOLYLINE
  5
3A
330
2F
100
AcDbEntity
  8
0
100
AcDbPolyline
 90
4
 70
1
 10
0.0
 20
1960.0
 10
600.0
 20
1960.0
 10
600.0
 20
1820.0
 10
0.0
 20
1820.0
  0
TEXT
  5
3B
330
2F
100
AcDbEntity
  8
0
100
AcDbText
 10
300.0
 20
1890.0
 30
0.0
 40
60.0
  1
WB2
 72
1
 11
300.0
 21
1890.0
 31
0.0
100
AcDbText
 73
2
  0
LWPOLYLINE
  5
3C
330
2F
100
AcDbEntity
  8
0
100
AcDbPolyline
 90
4
 70
1
 10
600.0
 20
1960.0
 10
900.0
 20
1960.0
 10
900.0
 20
1820.0
 10
600.0
 20
1820.0
  0
TEXT
  5
3D
330
2F
100
AcDbEntity
  8
0
100
AcDbText
 10
750.0
 20
1890.0
 30
0.0
 40
60.0
  1
1
 72
1
 11
750.0
 21
1890.0
 31
0.0
100
AcDbText
 73
2
  0
LWPOLYLINE
  5
3E
330
2F
100
AcDbEntity
  8
0
100
AcDbPolyline
 90
4
 70
1
 10
900.0
 20
1960.0
 10
2100.0
 20
1960.0
 10
2100.0
 20
1820.0
 10
900.0
 20
1820.0
  0
TEXT
  5
3F
330
2F
100
AcDbEntity
  8
0
100
AcDbText
 10
1500.0
 20
1890.0
 30
0.0
 40
60.0
  1
4 X 400 X 5913
 72
1
 11
1500.0
 21
1890.0
 31
0.0
100
AcDbText
 73
2
  0
LWPOLYLINE
  5
40
330
2F
100
AcDbEntity
  8
0
100
AcDbPolyline
 90
4
 70
1
 10
2100.0
 20
1960.0
 10
2700.0
 20
1960.0
 10
2700.0
 20
1820.0
 10
2100.0
 20
1820.0
  0
TEXT
  5
41
330
2F
100
AcDbEntity
  8
0
100
AcDbText
 10
2400.0
 20
1890.0
 30
0.0
 40
60.0
  1
66.29
 72
1
 11
2400.0
 21
1890.0
 31
0.0
100
AcDbText
 73
2
  0
LWPOLYLINE
  5
42
330
2F
100
AcDbEntity
  8
0
100
AcDbPolyline
 90
4
 70
1
 10
0.0
 20
1820.0
 10
600.0
 20
1820.0
 10
600.0
 20
1680.0
 10
0.0
 20
1680.0
  0
TEXT
  5
43
330
2F
100
AcDbEntity
  8
0
100
AcDbText
 10
300.0
 20
1750.0
 30
0.0
 40
60.0
  1
CLF1
 72
1
 11
300.0
 21
1750.0
 31
0.0
100
AcDbText
 73
2
  0
LWPOLYLINE
  5
44
330
2F
100
AcDbEntity
  8
0
100
AcDbPolyline
 90
4
 70
1
 10
600.0
 20
1820.0
 10
900.0
 20
1820.0
 10
900.0
 20
1680.0
 10
600.0
 20
1680.0
  0
TEXT
  5
45
330
2F
100
AcDbEntity
  8
0
100
AcDbText
 10
750.0
 20
1750.0
 30
0.0
 40
60.0
  1
4
 72
1
 11
750.0
 21
1750.0
 31
0.0
100
AcDbText
 73
2
  0
LWPOLYLINE
  5
46
330
2F
100
AcDbEntity
  8
0
100
AcDbPolyline
 90
4
 70
1
 10
900.0
 20
1820.0
 10
2100.0
 20
1820.0
 10
2100.0
 20
1680.0
 10
900.0
 20
1680.0
  0
TEXT
  5
47
330
2F
100
AcDbEntity
  8
0
100
AcDbText
 10
1500.0
 20
1750.0
 30
0.0
 40
60.0
  1
5 X 75 X 75
 72
1
 11
1500.0
 21
1750.0
 31
0.0
100
AcDbText
 73
2
  0
LWPOLYLINE
  5
48
330
2F
100
AcDbEntity
  8
0
100
AcDbPolyline
 90
4
 70
1
 10
2100.0
 20
1820.0
 10
2700.0
 20
1820.0
 10
2700.0
 20
1680.0
 10
2100.0
 20
1680.0
  0
TEXT
  5
49
330
2F
100
AcDbEntity
  8
0
100
AcDbText
 10
2400.0
 20
1750.0
 30
0.0
 40
60.0
  1
0.88
 72
1
 11
2400.0
 21
1750.0
 31
0.0
100
AcDbText
 73
2
  0
LWPOLYLINE
  5
4A
330
2F
100
AcDbEntity
  8
0
100
AcDbPolyline
 90
4
 70
1
 10
0.0
 20
1680.0
 10
600.0
 20
1680.0
 10
600.0
 20
1540.0
 10
0.0
 20
1540.0
  0
TEXT
  5
4B
330
2F
100
AcDbEntity
  8
0
100
AcDbText
 10
300.0
 20
1610.0
 30
0.0
 40
60.0
  1
ST4
 72
1
 11
300.0
 21
1610.0
 31
0.0
100
AcDbText
 73
2
  0
LWPOLYLINE
  5
4C
330
2F
100
AcDbEntity
  8
0
100
AcDbPolyline
 90
4
 70
1
 10
600.0
 20
1680.0
 10
900.0
 20
1680.0
 10
900.0
 20
1540.0
 10
600.0
 20
1540.0
  0
TEXT
  5
4D
330
2F
100
AcDbEntity
  8
0
100
AcDbText
 10
750.0
 20
1610.0
 30
0.0
 40
60.0
  1
2
 72
1
 11
750.0
 21
1610.0
 31
0.0
100
AcDbText
 73
2
  0
LWPOLYLINE
  5
4E
330
2F
100
AcDbEntity
  8
0
100
AcDbPolyline
 90
4
 70
1
 10
900.0
 20
1680.0
 10
2100.0
 20
1680.0
 10
2100.0
 20
1540.0
 10
900.0
 20
1540.0
  0
TEXT
  5
4F
330
2F
100
AcDbEntity
  8
0
100
AcDbText
 10
1500.0
 20
1610.0
 30
0.0
 40
60.0
  1
6 X 60 X 360
 72
1
 11
1500.0
 21
1610.0
 31
0.0
100
AcDbText
 73
2
  0
LWPOLYLINE
  5
50
330
2F
100
AcDbEntity
  8
0
100
AcDbPolyline
 90
4
 70
1
 10
2100.0
 20
1680.0
 10
2700.0
 20
1680.0
 10
2700.0
 20
1540.0
 10
2100.0
 20
1540.0
  0
TEXT
  5
51
330
2F
100
AcDbEntity
  8
0
100
AcDbText
 10
2400.0
 20
1610.0
 30
0.0
 40
60.0
  1
2.08
 72
1
 11
2400.0
 21
1610.0
 31
0.0
100
AcDbText
 73
2
  0
LWPOLYLINE
  5
52
330
2F
100
AcDbEntity
  8
0
100
AcDbPolyline
 90
4
 70
1
 10
0.0
 20
1540.0
 10
600.0
 20
1540.0
 10
600.0
 20
1400.0
 10
0.0
 20
1400.0
  0
TEXT
  5
53
330
2F
100
AcDbEntity
  8
0
100
AcDbText
 10
300.0
 20
1470.0
 30
0.0
 40
60.0
  1
OF2
 72
1
 11
300.0
 21
1470.0
 31
0.0
100
AcDbText
 73
2
  0
LWPOLYLINE
  5
54
330
2F
100
AcDbEntity
  8
0
100
AcDbPolyline
 90
4
 70
1
 10
600.0
 20
1540.0
 10
900.0
 20
1540.0
 10
900.0
 20
1400.0
 10
600.0
 20
1400.0
  0
TEXT
  5
55
330
2F
100
AcDbEntity
  8
0
100
AcDbText
 10
750.0
 20
1470.0
 30
0.0
 40
60.0
  1
1
 72
1
 11
750.0
 21
1470.0
 31
0.0
100
AcDbText
 73
2
  0
LWPOLYLINE
  5
56
330
2F
100
AcDbEntity
  8
0
100
AcDbPolyline
 90
4
 70
1
 10
900.0
 20
1540.0
 10
2100.0
 20
1540.0
 10
2100.0
 20
1400.0
 10
900.0
 20
1400.0
  0
TEXT
  5
57
330
2F
100
AcDbEntity
  8
0
100
AcDbText
 10
1500.0
 20
1470.0
 30
0.0
 40
60.0
  1
5 X 125 X 6103
 72
1
 11
1500.0
 21
1470.0
 31
0.0
100
AcDbText
 73
2
  0
LWPOLYLINE
  5
58
330
2F
100
AcDbEntity
  8
0
100
AcDbPolyline
 90
4
 70
1
 10
2100.0
 20
1540.0
 10
2700.0
 20
1540.0
 10
2700.0
 20
1400.0
 10
2100.0
 20
1400.0
  0
TEXT
  5
59
330
2F
100
AcDbEntity
  8
0
100
AcDbText
 10
2400.0
 20
1470.0
 30
0.0
 40
60.0
  1
30.52
 72
1
 11
2400.0
 21
1470.0
 31
0.0
100
AcDbText
 73
2
  0
LWPOLYLINE
  5
5A
330
2F
100
AcDbEntity
  8
0
100
AcDbPolyline
 90
4
 70
1
 10
0.0
 20
1400.0
 10
600.0
 20
1400.0
 10
600.0
 20
1260.0
 10
0.0
 20
1260.0
  0
TEXT
  5
5B
330
2F
100
AcDbEntity
  8
0
100
AcDbText
 10
300.0
 20
1330.0
 30
0.0
 40
60.0
  1
OF3
 72
1
 11
300.0
 21
1330.0
 31
0.0
100
AcDbText
 73
2
  0
LWPOLYLINE
  5
5C
330
2F
100
AcDbEntity
  8
0
100
AcDbPolyline
 90
4
 70
1
 10
600.0
 20
1400.0
 10
900.0
 20
1400.0
 10
900.0
 20
1260.0
 10
600.0
 20
1260.0
  0
TEXT
  5
5D
330
2F
100
AcDbEntity
  8
0
100
AcDbText
 10
750.0
 20
1330.0
 30
0.0
 40
60.0
  1
1
 72
1
 11
750.0
 21
1330.0
 31
0.0
100
AcDbText
 73
2
  0
LWPOLYLINE
  5
5E
330
2F
100
AcDbEntity
  8
0
100
AcDbPolyline
 90
4
 70
1
 10
900.0
 20
1400.0
 10
2100.0
 20
1400.0
 10
2100.0
 20
1260.0
 10
900.0
 20
1260.0
  0
TEXT
  5
5F
330
2F
100
AcDbEntity
  8
0
100
AcDbText
 10
1500.0
 20
1330.0
 30
0.0
 40
60.0
  1
5 X 125 X 351
 72
1
 11
1500.0
 21
1330.0
 31
0.0
100
AcDbText
 73
2
  0
LWPOLYLINE
  5
60
330
2F
100
AcDbEntity
  8
0
100
AcDbPolyline
 90
4
 70
1
 10
2100.0
 20
1400.0
 10
2700.0
 20
1400.0
 10
2700.0
 20
1260.0
 10
2100.0
 20
1260.0
  0
TEXT
  5
61
330
2F
100
AcDbEntity
  8
0
100
AcDbText
 10
2400.0
 20
1330.0
 30
0.0
 40
60.0
  1
1.76
 72
1
 11
2400.0
 21
1330.0
 31
0.0
100
AcDbText
 73
2
  0
LWPOLYLINE
  5
62
330
2F
100
AcDbEntity
  8
0
100
AcDbPolyline
 90
4
 70
1
 10
0.0
 20
1260.0
 10
600.0
 20
1260.0
 10
600.0
 20
1120.0
 10
0.0
 20
1120.0
  0
TEXT
  5
63
330
2F
100
AcDbEntity
  8
0
100
AcDbText
 10
300.0
 20
1190.0
 30
0.0
 40
60.0
  1
CLF4
 72
1
 11
300.0
 21
1190.0
 31
0.0
100
AcDbText
 73
2
  0
LWPOLYLINE
  5
64
330
2F
100
AcDbEntity
  8
0
100
AcDbPolyline
 90
4
 70
1
 10
600.0
 20
1260.0
 10
900.0
 20
1260.0
 10
900.0
 20
1120.0
 10
600.0
 20
1120.0
  0
TEXT
  5
65
330
2F
100
AcDbEntity
  8
0
100
AcDbText
 10
750.0
 20
1190.0
 30
0.0
 40
60.0
  1
5
 72
1
 11
750.0
 21
1190.0
 31
0.0
100
AcDbText
 73
2
  0
LWPOLYLINE
  5
66
330
2F
100
AcDbEntity
  8
0
100
AcDbPolyline
 90
4
 70
1
 10
900.0
 20
1260.0
 10
2100.0
 20
1260.0
 10
2100.0
 20
1120.0
 10
900.0
 20
1120.0
  0
TEXT
  5
67
330
2F
100
AcDbEntity
  8
0
100
AcDbText
 10
1500.0
 20
1190.0
 30
0.0
 40
60.0
  1
5 X 150 X 175
 72
1
 11
1500.0
 21
1190.0
 31
0.0
100
AcDbText
 73
2
  0
LWPOLYLINE
  5
68
330
2F
100
AcDbEntity
  8
0
100
AcDbPolyline
 90
4
 70
1
 10
2100.0
 20
1260.0
 10
2700.0
 20
1260.0
 10
2700.0
 20
1120.0
 10
2100.0
 20
1120.0
  0
TEXT
  5
69
330
2F
100
AcDbEntity
  8
0
100
AcDbText
 10
2400.0
 20
1190.0
 30
0.0
 40
60.0
  1
5.25
 72
1
 11
2400.0
 21
1190.0
 31
0.0
100
AcDbText
 73
2
  0
LWPOLYLINE
  5
6A
330
2F
100
AcDbEntity
  8
0
100
AcDbPolyline
 90
4
 70
1
 10
0.0
 20
1120.0
 10
600.0
 20
1120.0
 10
600.0
 20
980.0
 10
0.0
 20
980.0
  0
TEXT
  5
6B
330
2F
100
AcDbEntity
  8
0
100
AcDbText
 10
300.0
 20
1050.0
 30
0.0
 40
60.0
  1
ES1
 72
1
 11
300.0
 21
1050.0
 31
0.0
100
AcDbText
 73
2
  0
LWPOLYLINE
  5
6C
330
2F
100
AcDbEntity
  8
0
100
AcDbPolyline
 90
4
 70
1
 10
600.0
 20
1120.0
 10
900.0
 20
1120.0
 10
900.0
 20
980.0
 10
600.0
 20
980.0
  0
TEXT
  5
6D
330
2F
100
AcDbEntity
  8
0
100
AcDbText
 10
750.0
 20
1050.0
 30
0.0
 40
60.0
  1
1
 72
1
 11
750.0
 21
1050.0
 31
0.0
100
AcDbText
 73
2
  0
LWPOLYLINE
  5
6E
330
2F
100
AcDbEntity
  8
0
100
AcDbPolyline
 90
4
 70
1
 10
900.0
 20
1120.0
 10
2100.0
 20
1120.0
 10
2100.0
 20
980.0
 10
900.0
 20
980.0
  0
TEXT
  5
6F
330
2F
100
AcDbEntity
  8
0
100
AcDbText
 10
1500.0
 20
1050.0
 30
0.0
 40
60.0
  1
5 X 230 X 115
 72
1
 11
1500.0
 21
1050.0
 31
0.0
100
AcDbText
 73
2
  0
LWPOLYLINE
  5
70
330
2F
100
AcDbEntity
  8
0
100
AcDbPolyline
 90
4
 70
1
 10
2100.0
 20
1120.0
 10
2700.0
 20
1120.0
 10
2700.0
 20
980.0
 10
2100.0
 20
980.0
  0
TEXT
  5
71
330
2F
100
AcDbEntity
  8
0
100
AcDbText
 10
2400.0
 20
1050.0
 30
0.0
 40
60.0
  1
1.06
 72
1
 11
2400.0
 21
1050.0
 31
0.0
100
AcDbText
 73
2
  0
LWPOLYLINE
  5
72
330
2F
100
AcDbEntity
  8
0
100
AcDbPolyline
 90
4
 70
1
 10
0.0
 20
980.0
 10
600.0
 20
980.0
 10
600.0
 20
840.0
 10
0.0
 20
840.0
  0
TEXT
  5
73
330
2F
100
AcDbEntity
  8
0
100
AcDbText
 10
300.0
 20
910.0
 30
0.0
 40
60.0
  1
IF2
 72
1
 11
300.0
 21
910.0
 31
0.0
100
AcDbText
 73
2
  0
LWPOLYLINE
  5
74
330
2F
100
AcDbEntity
  8
0
100
AcDbPolyline
 90
4
 70
1
 10
600.0
 20
980.0
 10
900.0
 20
980.0
 10
900.0
 20
840.0
 10
600.0
 20
840.0
  0
TEXT
  5
75
330
2F
100
AcDbEntity
  8
0
100
AcDbText
 10
750.0
 20
910.0
 30
0.0
 40
60.0
  1
1
 72
1
 11
750.0
 21
910.0
 31
0.0
100
AcDbText
 73
2
  0
LWPOLYLINE
  5
76
330
2F
100
AcDbEntity
  8
0
100
AcDbPolyline
 90
4
 70
1
 10
900.0
 20
980.0
 10
2100.0
 20
980.0
 10
2100.0
 20
840.0
 10
900.0
 20
840.0
  0
TEXT
  5
77
330
2F
100
AcDbEntity
  8
0
100
AcDbText
 10
1500.0
 20
910.0
 30
0.0
 40
60.0
  1
5 X 125 X 5383
 72
1
 11
1500.0
 21
910.0
 31
0.0
100
AcDbText
 73
2
  0
LWPOLYLINE
  5
78
330
2F
100
AcDbEntity
  8
0
100
AcDbPolyline
 90
4
 70
1
 10
2100.0
 20
980.0
 10
2700.0
 20
980.0
 10
2700.0
 20
840.0
 10
2100.0
 20
840.0
  0
TEXT
  5
79
330
2F
100
AcDbEntity
  8
0
100
AcDbText
 10
2400.0
 20
910.0
 30
0.0
 40
60.0
  1
26.92
 72
1
 11
2400.0
 21
910.0
 31
0.0
100
AcDbText
 73
2
  0
LWPOLYLINE
  5
7A
330
2F
100
AcDbEntity
  8
0
100
AcDbPolyline
 90
4
 70
1
 10
0.0
 20
840.0
 10
600.0
 20
840.0
 10
600.0
 20
700.0
 10
0.0
 20
700.0
  0
TEXT
  5
7B
330
2F
100
AcDbEntity
  8
0
100
AcDbText
 10
300.0
 20
770.0
 30
0.0
 40
60.0
  1
EP3
 72
1
 11
300.0
 21
770.0
 31
0.0
100
AcDbText
 73
2
  0
LWPOLYLINE
  5
7C
330
2F
100
AcDbEntity
  8
0
100
AcDbPolyline
 90
4
 70
1
 10
600.0
 20
840.0
 10
900.0
 20
840.0
 10
900.0
 20
700.0
 10
600.0
 20
700.0
  0
TEXT
  5
7D
330
2F
100
AcDbEntity
  8
0
100
AcDbText
 10
750.0
 20
770.0
 30
0.0
 40
60.0
  1
1
 72
1
 11
750.0
 21
770.0
 31
0.0
100
AcDbText
 73
2
  0
LWPOLYLINE
  5
7E
330
2F
100
AcDbEntity
  8
0
100
AcDbPolyline
 90
4
 70
1
 10
900.0
 20
840.0
 10
2100.0
 20
840.0
 10
2100.0
 20
700.0
 10
900.0
 20
700.0
  0
TEXT
  5
7F
330
2F
100
AcDbEntity
  8
0
100
AcDbText
 10
1500.0
 20
770.0
 30
0.0
 40
60.0
  1
16 X 200 X 501
 72
1
 11
1500.0
 21
770.0
 31
0.0
100
AcDbText
 73
2
  0
LWPOLYLINE
  5
80
330
2F
100
AcDbEntity
  8
0
100
AcDbPolyline
 90
4
 70
1
 10
2100.0
 20
840.0
 10
2700.0
 20
840.0
 10
2700.0
 20
700.0
 10
2100.0
 20
700.0
  0
TEXT
  5
81
330
2F
100
AcDbEntity
  8
0
100
AcDbText
 10
2400.0
 20
770.0
 30
0.0
 40
60.0
  1
12.83
 72
1
 11
2400.0
 21
770.0
 31
0.0
100
AcDbText
 73
2
  0
LWPOLYLINE
  5
82
330
2F
100
AcDbEntity
  8
0
100
AcDbPolyline
 90
4
 70
1
 10
0.0
 20
700.0
 10
600.0
 20
700.0
 10
600.0
 20
560.0
 10
0.0
 20
560.0
  0
TEXT
  5
83
330
2F
100
AcDbEntity
  8
0
100
AcDbText
 10
300.0
 20
630.0
 30
0.0
 40
60.0
  1
EP2
 72
1
 11
300.0
 21
630.0
 31
0.0
100
AcDbText
 73
2
  0
LWPOLYLINE
  5
84
330
2F
100
AcDbEntity
  8
0
100
AcDbPolyline
 90
4
 70
1
 10
600.0
 20
700.0
 10
900.0
 20
700.0
 10
900.0
 20
560.0
 10
600.0
 20
560.0
  0
TEXT
  5
85
330
2F
100
AcDbEntity
  8
0
100
AcDbText
 10
750.0
 20
630.0
 30
0.0
 40
60.0
  1
1
 72
1
 11
750.0
 21
630.0
 31
0.0
100
AcDbText
 73
2
  0
LWPOLYLINE
  5
86
330
2F
100
AcDbEntity
  8
0
100
AcDbPolyline
 90
4
 70
1
 10
900.0
 20
700.0
 10
2100.0
 20
700.0
 10
2100.0
 20
560.0
 10
900.0
 20
560.0
  0
TEXT
  5
87
330
2F
100
AcDbEntity
  8
0
100
AcDbText
 10
1500.0
 20
630.0
 30
0.0
 40
60.0
  1
16 X 200 X 600
 72
1
 11
1500.0
 21
630.0
 31
0.0
100
AcDbText
 73
2
  0
LWPOLYLINE
  5
88
330
2F
100
AcDbEntity
  8
0
100
AcDbPolyline
 90
4
 70
1
 10
2100.0
 20
700.0
 10
2700.0
 20
700.0
 10
2700.0
 20
560.0
 10
2100.0
 20
560.0
  0
TEXT
  5
89
330
2F
100
AcDbEntity
  8
0
100
AcDbText
 10
2400.0
 20
630.0
 30
0.0
 40
60.0
  1
15.36
 72
1
 11
2400.0
 21
630.0
 31
0.0
100
AcDbText
 73
2
  0
LWPOLYLINE
  5
8A
330
2F
100
AcDbEntity
  8
0
100
AcDbPolyline
 90
4
 70
1
 10
0.0
 20
560.0
 10
600.0
 20
560.0
 10
600.0
 20
420.0
 10
0.0
 20
420.0
  0
TEXT
  5
8B
330
2F
100
AcDbEntity
  8
0
100
AcDbText
 10
300.0
 20
490.0
 30
0.0
 40
60.0
  1
SS5
 72
1
 11
300.0
 21
490.0
 31
0.0
100
AcDbText
 73
2
  0
LWPOLYLINE
  5
8C
330
2F
100
AcDbEntity
  8
0
100
AcDbPolyline
 90
4
 70
1
 10
600.0
 20
560.0
 10
900.0
 20
560.0
 10
900.0
 20
420.0
 10
600.0
 20
420.0
  0
TEXT
  5
8D
330
2F
100
AcDbEntity
  8
0
100
AcDbText
 10
750.0
 20
490.0
 30
0.0
 40
60.0
  1
1
 72
1
 11
750.0
 21
490.0
 31
0.0
100
AcDbText
 73
2
  0
LWPOLYLINE
  5
8E
330
2F
100
AcDbEntity
  8
0
100
AcDbPolyline
 90
4
 70
1
 10
900.0
 20
560.0
 10
2100.0
 20
560.0
 10
2100.0
 20
420.0
 10
900.0
 20
420.0
  0
TEXT
  5
8F
330
2F
100
AcDbEntity
  8
0
100
AcDbText
 10
1500.0
 20
490.0
 30
0.0
 40
60.0
  1
5 X 120 X 108
 72
1
 11
1500.0
 21
490.0
 31
0.0
100
AcDbText
 73
2
  0
LWPOLYLINE
  5
90
330
2F
100
AcDbEntity
  8
0
100
AcDbPolyline
 90
4
 70
1
 10
2100.0
 20
560.0
 10
2700.0
 20
560.0
 10
2700.0
 20
420.0
 10
2100.0
 20
420.0
  0
TEXT
  5
91
330
2F
100
AcDbEntity
  8
0
100
AcDbText
 10
2400.0
 20
490.0
 30
0.0
 40
60.0
  1
0.52
 72
1
 11
2400.0
 21
490.0
 31
0.0
100
AcDbText
 73
2
  0
LWPOLYLINE
  5
92
330
2F
100
AcDbEntity
  8
0
100
AcDbPolyline
 90
4
 70
1
 10
0.0
 20
420.0
 10
600.0
 20
420.0
 10
600.0
 20
280.0
 10
0.0
 20
280.0
  0
TEXT
  5
93
330
2F
100
AcDbEntity
  8
0
100
AcDbText
 10
300.0
 20
350.0
 30
0.0
 40
60.0
  1
SS6
 72
1
 11
300.0
 21
350.0
 31
0.0
100
AcDbText
 73
2
  0
LWPOLYLINE
  5
94
330
2F
100
AcDbEntity
  8
0
100
AcDbPolyline
 90
4
 70
1
 10
600.0
 20
420.0
 10
900.0
 20
420.0
 10
900.0
 20
280.0
 10
600.0
 20
280.0
  0
TEXT
  5
95
330
2F
100
AcDbEntity
  8
0
100
AcDbText
 10
750.0
 20
350.0
 30
0.0
 40
60.0
  1
1
 72
1
 11
750.0
 21
350.0
 31
0.0
100
AcDbText
 73
2
  0
LWPOLYLINE
  5
96
330
2F
100
AcDbEntity
  8
0
100
AcDbPolyline
 90
4
 70
1
 10
900.0
 20
420.0
 10
2100.0
 20
420.0
 10
2100.0
 20
280.0
 10
900.0
 20
280.0
  0
TEXT
  5
97
330
2F
100
AcDbEntity
  8
0
100
AcDbText
 10
1500.0
 20
350.0
 30
0.0
 40
60.0
  1
5 X 120 X 93
 72
1
 11
1500.0
 21
350.0
 31
0.0
100
AcDbText
 73
2
  0
LWPOLYLINE
  5
98
330
2F
100
AcDbEntity
  8
0
100
AcDbPolyline
 90
4
 70
1
 10
2100.0
 20
420.0
 10
2700.0
 20
420.0
 10
2700.0
 20
280.0
 10
2100.0
 20
280.0
  0
TEXT
  5
99
330
2F
100
AcDbEntity
  8
0
100
AcDbText
 10
2400.0
 20
350.0
 30
0.0
 40
60.0
  1
0.45
 72
1
 11
2400.0
 21
350.0
 31
0.0
100
AcDbText
 73
2
  0
LWPOLYLINE
  5
9A
330
2F
100
AcDbEntity
  8
0
100
AcDbPolyline
 90
4
 70
1
 10
0.0
 20
280.0
 10
600.0
 20
280.0
 10
600.0
 20
140.0
 10
0.0
 20
140.0
  0
TEXT
  5
9B
330
2F
100
AcDbEntity
  8
0
100
AcDbText
 10
300.0
 20
210.0
 30
0.0
 40
60.0
  1
SS3
 72
1
 11
300.0
 21
210.0
 31
0.0
100
AcDbText
 73
2
  0
LWPOLYLINE
  5
9C
330
2F
100
AcDbEntity
  8
0
100
AcDbPolyline
 90
4
 70
1
 10
600.0
 20
280.0
 10
900.0
 20
280.0
 10
900.0
 20
140.0
 10
600.0
 20
140.0
  0
TEXT
  5
9D
330
2F
100
AcDbEntity
  8
0
100
AcDbText
 10
750.0
 20
210.0
 30
0.0
 40
60.0
  1
1
 72
1
 11
750.0
 21
210.0
 31
0.0
100
AcDbText
 73
2
  0
LWPOLYLINE
  5
9E
330
2F
100
AcDbEntity
  8
0
100
AcDbPolyline
 90
4
 70
1
 10
900.0
 20
280.0
 10
2100.0
 20
280.0
 10
2100.0
 20
140.0
 10
900.0
 20
140.0
  0
TEXT
  5
9F
330
2F
100
AcDbEntity
  8
0
100
AcDbText
 10
1500.0
 20
210.0
 30
0.0
 40
60.0
  1
5 X 120 X 95
 72
1
 11
1500.0
 21
210.0
 31
0.0
100
AcDbText
 73
2
  0
LWPOLYLINE
  5
A0
330
2F
100
AcDbEntity
  8
0
100
AcDbPolyline
 90
4
 70
1
 10
2100.0
 20
280.0
 10
2700.0
 20
280.0
 10
2700.0
 20
140.0
 10
2100.0
 20
140.0
  0
TEXT
  5
A1
330
2F
100
AcDbEntity
  8
0
100
AcDbText
 10
2400.0
 20
210.0
 30
0.0
 40
60.0
  1
0.46
 72
1
 11
2400.0
 21
210.0
 31
0.0
100
AcDbText
 73
2
  0
LWPOLYLINE
  5
A2
330
2F
100
AcDbEntity
  8
0
100
AcDbPolyline
 90
4
 70
1
 10
0.0
 20
140.0
 10
2100.0
 20
140.0
 10
2100.0
 20
0.0
 10
0.0
 20
0.0
  0
TEXT
  5
A3
330
2F
100
AcDbEntity
  8
0
100
AcDbText
 10
1050.0
 20
70.0
 30
0.0
 40
60.0
  1
WEIGHT SUM :
 72
1
 11
1050.0
 21
70.0
 31
0.0
100
AcDbText
 73
2
  0
LWPOLYLINE
  5
A4
330
2F
100
AcDbEntity
  8
0
100
AcDbPolyline
 90
4
 70
1
 10
2100.0
 20
140.0
 10
2700.0
 20
140.0
 10
2700.0
 20
0.0
 10
2100.0
 20
0.0
  0
TEXT
  5
A5
330
2F
100
AcDbEntity
  8
0
100
AcDbText
 10
2400.0
 20
70.0
 30
0.0
 40
60.0
  1
164.38
 72
1
 11
2400.0
 21
70.0
 31
0.0
100
AcDbText
 73
2
  0
ENDBLK
  5
31
330
2F
100
AcDbEntity
  8
0
100
AcDbBlockEnd
  0
BLOCK
  5
E0
330
DF
100
AcDbEntity
  8
0
100
AcDbBlockBegin
  2
SLOTTD
 70
0
 10
0.0
 20
0.0
 30
0.0
  3
SLOTTD
  1

  0
ARC
  5
E2
330
DF
100
AcDbEntity
  8
6
100
AcDbCircle
 10
-25.4
 20
0.0
 30
0.0
 40
12.7
100
AcDbArc
 50
90.0
 51
270.0
  0
ARC
  5
E3
330
DF
100
AcDbEntity
  8
6
100
AcDbCircle
 10
25.4
 20
0.0
 30
0.0
 40
12.7
100
AcDbArc
 50
270.0
 51
90.0
  0
LINE
  5
E4
330
DF
100
AcDbEntity
  8
6
100
AcDbLine
 10
-25.4
 20
-12.7
 30
0.0
 11
25.4
 21
-12.7
 31
0.0
  0
LINE
  5
E5
330
DF
100
AcDbEntity
  8
6
100
AcDbLine
 10
-25.4
 20
12.7
 30
0.0
 11
25.4
 21
12.7
 31
0.0
  0
ENDBLK
  5
E1
330
DF
100
AcDbEntity
  8
0
100
AcDbBlockEnd
  0
BLOCK
  5
E7
330
E6
100
AcDbEntity
  8
0
100
AcDbBlockBegin
  2
ARROW
 70
0
 10
0.0
 20
0.0
 30
0.0
  3
ARROW
  1

  0
LINE
  5
E9
330
E6
100
AcDbEntity
  8
2
100
AcDbLine
 10
-0.635
 20
-0.635
 30
0.0
 11
0.635
 21
0.635
 31
0.0
  0
ENDBLK
  5
E8
330
E6
100
AcDbEntity
  8
0
100
AcDbBlockEnd
  0
BLOCK
  5
EB
330
EA
100
AcDbEntity
  8
0
100
AcDbBlockBegin
  2
FLGHOL
 70
0
 10
0.0
 20
0.0
 30
0.0
  3
FLGHOL
  1

  0
SOLID
  5
ED
330
EA
100
AcDbEntity
  8
6
100
AcDbTrace
 10
-6.35
 20
0.0
 30
0.0
 11
6.35
 21
0.0
 31
0.0
 12
-6.35
 22
25.4
 32
0.0
 13
6.35
 23
25.4
 33
0.0
  0
ENDBLK
  5
EC
330
EA
100
AcDbEntity
  8
0
100
AcDbBlockEnd
  0
BLOCK
  5
EF
330
EE
100
AcDbEntity
  8
0
100
AcDbBlockBegin
  2
GRTCLPB
 70
0
 10
0.0
 20
0.0
 30
0.0
  3
GRTCLPB
  1

  0
LINE
  5
F1
330
EE
100
AcDbEntity
  8
13
100
AcDbLine
 10
-12.7
 20
0.0
 30
0.0
 11
-12.7
 21
152.4
 31
0.0
  0
LINE
  5
F2
330
EE
100
AcDbEntity
  8
13
100
AcDbLine
 10
-12.7
 20
0.0
 30
0.0
 11
12.7
 21
0.0
 31
0.0
  0
LINE
  5
F3
330
EE
100
AcDbEntity
  8
13
100
AcDbLine
 10
-12.7
 20
152.4
 30
0.0
 11
12.7
 21
152.4
 31
0.0
  0
LINE
  5
F4
330
EE
100
AcDbEntity
  8
13
100
AcDbLine
 10
12.7
 20
0.0
 30
0.0
 11
12.7
 21
152.4
 31
0.0
  0
SOLID
  5
F5
330
EE
100
AcDbEntity
  8
6
100
AcDbTrace
 10
-12.7
 20
119.38
 30
0.0
 11
12.7
 21
119.38
 31
0.0
 12
-12.7
 22
134.62
 32
0.0
 13
12.7
 23
134.62
 33
0.0
  0
SOLID
  5
F6
330
EE
100
AcDbEntity
  8
6
100
AcDbTrace
 10
-12.7
 20
68.58
 30
0.0
 11
12.7
 21
68.58
 31
0.0
 12
-12.7
 22
83.82
 32
0.0
 13
12.7
 23
83.82
 33
0.0
  0
ENDBLK
  5
F0
330
EE
100
AcDbEntity
  8
0
100
AcDbBlockEnd
  0
BLOCK
  5
F8
330
F7
100
AcDbEntity
  8
0
100
AcDbBlockBegin
  2
ARROWP
 70
0
 10
0.0
 20
0.0
 30
0.0
  3
ARROWP
  1

  0
LINE
  5
FA
330
F7
100
AcDbEntity
  8
0
100
AcDbLine
 10
0.0
 20
0.0
 30
0.0
 11
-1.27
 21
0.318
 31
0.0
  0
LINE
  5
FB
330
F7
100
AcDbEntity
  8
0
100
AcDbLine
 10
-1.27
 20
0.318
 30
0.0
 11
-1.27
 21
-0.318
 31
0.0
  0
LINE
  5
FC
330
F7
100
AcDbEntity
  8
0
100
AcDbLine
 10
-1.27
 20
-0.318
 30
0.0
 11
0.0
 21
0.0
 31
0.0
  0
ENDBLK
  5
F9
330
F7
100
AcDbEntity
  8
0
100
AcDbBlockEnd
  0
BLOCK
  5
FE
330
FD
100
AcDbEntity
  8
0
100
AcDbBlockBegin
  2
BRCCLP
 70
0
 10
0.0
 20
0.0
 30
0.0
  3
BRCCLP
  1

  0
LINE
  5
100
330
FD
100
AcDbEntity
  8
2
100
AcDbLine
 10
12.7
 20
0.0
 30
0.0
 11
12.7
 21
101.6
 31
0.0
  0
LINE
  5
101
330
FD
100
AcDbEntity
  8
2
100
AcDbLine
 10
-12.7
 20
101.6
 30
0.0
 11
12.7
 21
101.6
 31
0.0
  0
SOLID
  5
102
330
FD
100
AcDbEntity
  8
1
100
AcDbTrace
 10
-12.7
 20
68.58
 30
0.0
 11
12.7
 21
68.58
 31
0.0
 12
-12.7
 22
83.82
 32
0.0
 13
12.7
 23
83.82
 33
0.0
  0
ENDBLK
  5
FF
330
FD
100
AcDbEntity
  8
0
100
AcDbBlockEnd
  0
BLOCK
  5
104
330
103
100
AcDbEntity
  8
0
100
AcDbBlockBegin
  2
CIRCLE
 70
0
 10
0.0
 20
0.0
 30
0.0
  3
CIRCLE
  1

  0
CIRCLE
  5
106
330
103
100
AcDbEntity
  8
1
100
AcDbCircle
 10
0.0
 20
0.0
 30
0.0
 40
10.16
  0
ENDBLK
  5
105
330
103
100
AcDbEntity
  8
0
100
AcDbBlockEnd
  0
BLOCK
  5
108
330
107
100
AcDbEntity
  8
0
100
AcDbBlockBegin
  2
FLAT_ASMPIECE
 70
0
 10
0.0
 20
0.0
 30
0.0
  3
FLAT_ASMPIECE
  1

  0
LINE
  5
10A
330
107
100
AcDbEntity
  8
1
100
AcDbLine
 10
462.130000000001
 20
800.3889999999992
 30
0.0
 11
492.1290000000008
 21
500.4029999999984
 31
0.0
  0
LINE
  5
10B
330
107
100
AcDbEntity
  8
1
100
AcDbLine
 10
6375.35
 20
449.9429999999993
 30
0.0
 11
6340.300000000001
 21
800.3889999999992
 31
0.0
  0
TEXT
  5
10C
330
107
100
AcDbEntity
  8
3
100
AcDbText
 10
3640.7750000000015
 20
696.3909999999996
 30
0.0
 40
23.111
  1
WB2
  7
SIMPLEX
 11
3640.7750000000015
 21
696.3909999999996
 31
0.0
100
AcDbText
  0
LINE
  5
10D
330
107
100
AcDbEntity
  8
1
100
AcDbLine
 10
462.130000000001
 20
800.3889999999992
 30
0.0
 11
462.130000000001
 21
809.6790000000001
 31
0.0
  0
LINE
  5
10E
330
107
100
AcDbEntity
  8
1
100
AcDbLine
 10
462.130000000001
 20
800.3889999999992
 30
0.0
 11
6565.93
 21
800.3889999999992
 31
0.0
  0
LINE
  5
10F
330
107
100
AcDbEntity
  8
1
100
AcDbLine
 10
6565.93
 20
800.3889999999992
 30
0.0
 11
6565.93
 21
809.6790000000001
 31
0.0
  0
LINE
  5
110
330
107
100
AcDbEntity
  8
1
100
AcDbLine
 10
462.130000000001
 20
809.6790000000001
 30
0.0
 11
6565.93
 21
809.6790000000001
 31
0.0
  0
TEXT
  5
111
330
107
100
AcDbEntity
  8
3
100
AcDbText
 10
3514.0280000000002
 20
815.4589999999989
 30
0.0
 40
23.111
  1
OF2
  7
SIMPLEX
 11
3514.0280000000002
 21
815.4589999999989
 31
0.0
100
AcDbText
  0
LINE
  5
112
330
107
100
AcDbEntity
  8
1
100
AcDbLine
 10
6340.4000000000015
 20
799.4689999999991
 30
0.0
 11
6349.630000000001
 21
800.3889999999992
 31
0.0
  0
LINE
  5
113
330
107
100
AcDbEntity
  8
1
100
AcDbLine
 10
6340.4000000000015
 20
799.4689999999991
 30
0.0
 11
6375.35
 21
449.9429999999993
 31
0.0
  0
LINE
  5
114
330
107
100
AcDbEntity
  8
1
100
AcDbLine
 10
6375.35
 20
449.9429999999993
 30
0.0
 11
6384.590000000002
 21
450.86699999999837
 31
0.0
  0
LINE
  5
115
330
107
100
AcDbEntity
  8
1
100
AcDbLine
 10
6349.630000000001
 20
800.3889999999992
 30
0.0
 11
6384.590000000002
 21
450.86699999999837
 31
0.0
  0
TEXT
  5
116
330
107
100
AcDbEntity
  8
3
100
AcDbText
 10
6367.050000000001
 20
684.3159999999989
 30
0.0
 40
23.111
  1
OF3
 50
-84.289
  7
SIMPLEX
 11
6367.050000000001
 21
684.3159999999989
 31
0.0
100
AcDbText
  0
LINE
  5
117
330
107
100
AcDbEntity
  8
1
100
AcDbLine
 10
492.72300000000087
 20
500.39300000000003
 30
0.0
 11
493.0600000000013
 21
491.09899999999834
 31
0.0
  0
LINE
  5
118
330
107
100
AcDbEntity
  8
1
100
AcDbLine
 10
492.72300000000087
 20
500.39300000000003
 30
0.0
 11
5874.840000000002
 21
399.89300000000003
 31
0.0
  0
LINE
  5
119
330
107
100
AcDbEntity
  8
1
100
AcDbLine
 10
5874.840000000002
 20
399.89300000000003
 30
0.0
 11
5874.670000000002
 21
390.60999999999876
 31
0.0
  0
LINE
  5
11A
330
107
100
AcDbEntity
  8
1
100
AcDbLine
 10
493.0600000000013
 20
491.09899999999834
 30
0.0
 11
5874.670000000002
 21
390.60999999999876
 31
0.0
  0
TEXT
  5
11B
330
107
100
AcDbEntity
  8
3
100
AcDbText
 10
3183.2170000000006
 20
406.1939999999995
 30
0.0
 40
23.111
  1
IF2
 50
-1.07
  7
SIMPLEX
 11
3183.2170000000006
 21
406.1939999999995
 31
0.0
100
AcDbText
  0
LINE
  5
11C
330
107
100
AcDbEntity
  8
12
100
AcDbLine
 10
455.34200000000146
 20
868.2789999999986
 30
0.0
 11
445.07600000000093
 21
867.2489999999998
 31
0.0
  0
LINE
  5
11D
330
107
100
AcDbEntity
  8
12
100
AcDbLine
 10
455.34200000000146
 20
868.2789999999986
 30
0.0
 11
498.9170000000013
 21
432.5189999999984
 31
0.0
  0
LINE
  5
11E
330
107
100
AcDbEntity
  8
12
100
AcDbLine
 10
498.9170000000013
 20
432.5189999999984
 30
0.0
 11
488.65100000000075
 21
431.4929999999986
 31
0.0
  0
LINE
  5
11F
330
107
100
AcDbEntity
  8
12
100
AcDbLine
 10
445.07600000000093
 20
867.2489999999998
 30
0.0
 11
488.65100000000075
 21
431.4929999999986
 31
0.0
  0
TEXT
  5
120
330
107
100
AcDbEntity
  8
3
100
AcDbText
 10
464.5640000000012
 20
614.2999999999993
 30
0.0
 40
23.111
  1
EP3
 50
95.71
  7
SIMPLEX
 41
0.9999999999999998
 11
464.5640000000012
 21
614.2999999999993
 31
0.0
100
AcDbText
  0
LINE
  5
121
330
107
100
AcDbEntity
  8
12
100
AcDbLine
 10
6443.210000000001
 20
456.72899999999936
 30
0.0
 11
6444.230000000001
 21
446.46199999999953
 31
0.0
  0
LINE
  5
122
330
107
100
AcDbEntity
  8
12
100
AcDbLine
 10
6443.210000000001
 20
456.72899999999936
 30
0.0
 11
5877.830000000002
 21
400.1909999999989
 31
0.0
  0
LINE
  5
123
330
107
100
AcDbEntity
  8
12
100
AcDbLine
 10
5877.830000000002
 20
400.1909999999989
 30
0.0
 11
5878.860000000001
 21
389.9249999999993
 31
0.0
  0
LINE
  5
124
330
107
100
AcDbEntity
  8
12
100
AcDbLine
 10
6444.230000000001
 20
446.46199999999953
 30
0.0
 11
5878.860000000001
 21
389.9249999999993
 31
0.0
  0
TEXT
  5
125
330
107
100
AcDbEntity
  8
3
100
AcDbText
 10
6129.920000000002
 20
385.9979999999996
 30
0.0
 40
23.110999999999994
  1
EP2
 50
5.710000000000002
  7
SIMPLEX
 11
6129.920000000002
 21
385.9979999999996
 31
0.0
100
AcDbText
  0
INSERT
  5
126
330
107
100
AcDbEntity
  8
6
100
AcDbBlockReference
  2
SLOTTD
 10
646.0500000000011
 20
725.3909999999996
 30
0.0
 41
0.244
 42
0.244
 43
0.244
  0
TEXT
  5
128
330
107
100
AcDbEntity
  8
3
100
AcDbText
 10
634.4950000000008
 20
690.7239999999983
 30
0.0
 40
23.111
  1
S1
  7
SIMPLEX
 11
634.4950000000008
 21
690.7239999999983
 31
0.0
100
AcDbText
  0
INSERT
  5
129
330
107
100
AcDbEntity
  8
6
100
AcDbBlockReference
  2
SLOTTD
 10
6165.300000000001
 20
725.3909999999996
 30
0.0
 41
0.244
 42
0.244
 43
0.244
  0
TEXT
  5
12B
330
107
100
AcDbEntity
  8
3
100
AcDbText
 10
6153.750000000002
 20
690.7239999999983
 30
0.0
 40
23.111
  1
S1
  7
SIMPLEX
 11
6153.750000000002
 21
690.7239999999983
 31
0.0
100
AcDbText
  0
INSERT
  5
12C
330
107
100
AcDbEntity
  8
6
100
AcDbBlockReference
  2
SLOTTD
 10
6290.550000000001
 20
544.1679999999997
 30
0.0
 41
0.244
 42
0.244
 43
0.244
 50
-84.289
  0
TEXT
  5
12E
330
107
100
AcDbEntity
  8
3
100
AcDbText
 10
6254.910000000002
 20
552.2169999999987
 30
0.0
 40
23.111
  1
S1
 50
-84.289
  7
SIMPLEX
 11
6254.910000000002
 21
552.2169999999987
 31
0.0
100
AcDbText
  0
LINE
  5
12F
330
107
100
AcDbEntity
  8
2
100
AcDbLine
 10
2170.795000000001
 20
800.3889999999992
 30
0.0
 11
2143.970000000001
 21
800.3889999999992
 31
0.0
  0
LINE
  5
130
330
107
100
AcDbEntity
  8
2
100
AcDbLine
 10
2170.795000000001
 20
496.6839999999993
 30
0.0
 11
2143.970000000001
 21
496.6839999999993
 31
0.0
  0
LINE
  5
131
330
107
100
AcDbEntity
  8
2
100
AcDbLine
 10
2150.1600000000008
 20
800.3889999999992
 30
0.0
 11
2150.1600000000008
 21
496.6839999999993
 31
0.0
  0
INSERT
  5
132
330
107
100
AcDbEntity
  8
2
100
AcDbBlockReference
  2
ARROW
 10
2150.1600000000008
 20
800.3889999999992
 30
0.0
 41
8.124
 42
8.124
 43
8.124
 50
90.0
  0
INSERT
  5
134
330
107
100
AcDbEntity
  8
2
100
AcDbBlockReference
  2
ARROW
 10
2150.1600000000008
 20
496.6839999999993
 30
0.0
 41
8.124
 42
8.124
 43
8.124
 50
-90.0
  0
TEXT
  5
136
330
107
100
AcDbEntity
  8
11
100
AcDbText
 10
2157.863000000001
 20
633.128999999999
 30
0.0
 40
23.111
  1
282
  7
SIMPLEX
 11
2157.863000000001
 21
633.128999999999
 31
0.0
100
AcDbText
  0
LINE
  5
137
330
107
100
AcDbEntity
  8
2
100
AcDbLine
 10
5110.76
 20
800.3889999999992
 30
0.0
 11
5137.580000000002
 21
800.3889999999992
 31
0.0
  0
LINE
  5
138
330
107
100
AcDbEntity
  8
2
100
AcDbLine
 10
5110.76
 20
442.2489999999998
 30
0.0
 11
5137.580000000002
 21
442.2489999999998
 31
0.0
  0
LINE
  5
139
330
107
100
AcDbEntity
  8
2
100
AcDbLine
 10
5131.390000000001
 20
800.3889999999992
 30
0.0
 11
5131.390000000001
 21
442.2489999999998
 31
0.0
  0
INSERT
  5
13A
330
107
100
AcDbEntity
  8
2
100
AcDbBlockReference
  2
ARROW
 10
5131.390000000001
 20
800.3889999999992
 30
0.0
 41
8.124
 42
8.124
 43
8.124
 50
90.0
  0
INSERT
  5
13C
330
107
100
AcDbEntity
  8
2
100
AcDbBlockReference
  2
ARROW
 10
5131.390000000001
 20
442.2489999999998
 30
0.0
 41
8.124
 42
8.124
 43
8.124
 50
-90.0
  0
TEXT
  5
13E
330
107
100
AcDbEntity
  8
11
100
AcDbText
 10
5145.280000000001
 20
605.9110000000001
 30
0.0
 40
23.111
  1
336
  7
SIMPLEX
 11
5145.280000000001
 21
605.9110000000001
 31
0.0
100
AcDbText
  0
INSERT
  5
13F
330
107
100
AcDbEntity
  8
6
100
AcDbBlockReference
  2
FLGHOL
 10
448.52500000000146
 20
832.7489999999998
 30
0.0
 41
0.366
 42
0.406
 43
0.406
 50
-84.289
  0
INSERT
  5
141
330
107
100
AcDbEntity
  8
6
100
AcDbBlockReference
  2
FLGHOL
 10
454.27400000000125
 20
775.2619999999988
 30
0.0
 41
0.366
 42
0.406
 43
0.406
 50
-84.289
  0
INSERT
  5
143
330
107
100
AcDbEntity
  8
6
100
AcDbBlockReference
  2
FLGHOL
 10
479.45300000000134
 20
523.4789999999994
 30
0.0
 41
0.366
 42
0.406
 43
0.406
 50
-84.289
  0
INSERT
  5
145
330
107
100
AcDbEntity
  8
6
100
AcDbBlockReference
  2
FLGHOL
 10
485.20100000000093
 20
465.9879999999994
 30
0.0
 41
0.366
 42
0.406
 43
0.406
 50
-84.289
  0
INSERT
  5
147
330
107
100
AcDbEntity
  8
6
100
AcDbBlockReference
  2
FLGHOL
 10
6408.710000000001
 20
453.27999999999884
 30
0.0
 41
0.366
 42
0.406
 43
0.406
 50
-174.289
  0
INSERT
  5
149
330
107
100
AcDbEntity
  8
6
100
AcDbBlockReference
  2
FLGHOL
 10
6351.220000000001
 20
447.52999999999884
 30
0.0
 41
0.366
 42
0.406
 43
0.406
 50
-174.289
  0
INSERT
  5
14B
330
107
100
AcDbEntity
  8
6
100
AcDbBlockReference
  2
FLGHOL
 10
6035.080000000002
 20
415.91499999999905
 30
0.0
 41
0.366
 42
0.406
 43
0.406
 50
-174.289
  0
INSERT
  5
14D
330
107
100
AcDbEntity
  8
6
100
AcDbBlockReference
  2
FLGHOL
 10
5936.410000000002
 20
406.04799999999886
 30
0.0
 41
0.366
 42
0.406
 43
0.406
 50
-174.289
  0
INSERT
  5
14F
330
107
100
AcDbEntity
  8
1
100
AcDbBlockReference
  2
GRTCLPB
 10
722.4790000000012
 20
809.6790000000001
 30
0.0
 41
-0.244
 42
0.244
 43
0.244
  0
CIRCLE
  5
151
330
107
100
AcDbEntity
  8
15
100
AcDbCircle
 10
725.5740000000014
 20
809.6759999999995
 30
0.0
 40
6.933
  0
INSERT
  5
152
330
107
100
AcDbEntity
  8
1
100
AcDbBlockReference
  2
GRTCLPB
 10
2180.081000000001
 20
809.6790000000001
 30
0.0
 41
-0.244
 42
0.244
 43
0.244
  0
CIRCLE
  5
154
330
107
100
AcDbEntity
  8
15
100
AcDbCircle
 10
2183.175000000001
 20
809.6759999999995
 30
0.0
 40
6.933
  0
TEXT
  5
155
330
107
100
AcDbEntity
  8
3
100
AcDbText
 10
2209.3820000000014
 20
841.3889999999992
 30
0.0
 40
23.111
  1
CLF4(typ)
  7
SIMPLEX
 11
2209.3820000000014
 21
841.3889999999992
 31
0.0
100
AcDbText
  0
LINE
  5
156
330
107
100
AcDbEntity
  8
3
100
AcDbLine
 10
2186.2710000000006
 20
837.5289999999986
 30
0.0
 11
2237.858000000001
 21
837.5289999999986
 31
0.0
  0
INSERT
  5
157
330
107
100
AcDbEntity
  8
3
100
AcDbBlockReference
  2
ARROWP
 10
2186.2710000000006
 20
837.5289999999986
 30
0.0
 41
8.124
 42
8.124
 43
8.124
 50
180.0
  0
INSERT
  5
159
330
107
100
AcDbEntity
  8
1
100
AcDbBlockReference
  2
GRTCLPB
 10
3637.679000000002
 20
809.6790000000001
 30
0.0
 41
-0.244
 42
0.244
 43
0.244
  0
CIRCLE
  5
15B
330
107
100
AcDbEntity
  8
15
100
AcDbCircle
 10
3640.7740000000013
 20
809.6769999999997
 30
0.0
 40
6.933
  0
INSERT
  5
15C
330
107
100
AcDbEntity
  8
1
100
AcDbBlockReference
  2
GRTCLPB
 10
5095.280000000001
 20
809.6790000000001
 30
0.0
 41
-0.244
 42
0.244
 43
0.244
  0
CIRCLE
  5
15E
330
107
100
AcDbEntity
  8
15
100
AcDbCircle
 10
5098.374000000002
 20
809.6769999999997
 30
0.0
 40
6.933
  0
INSERT
  5
15F
330
107
100
AcDbEntity
  8
1
100
AcDbBlockReference
  2
GRTCLPB
 10
6479.0700000000015
 20
809.6790000000001
 30
0.0
 41
0.244
 42
0.244
 43
0.244
  0
CIRCLE
  5
161
330
107
100
AcDbEntity
  8
15
100
AcDbCircle
 10
6475.975
 20
809.6769999999997
 30
0.0
 40
6.933
  0
LINE
  5
162
330
107
100
AcDbEntity
  8
1
100
AcDbLine
 10
6565.93
 20
800.3889999999992
 30
0.0
 11
6364.800000000001
 21
648.7469999999994
 31
0.0
  0
TEXT
  5
163
330
107
100
AcDbEntity
  8
3
100
AcDbText
 10
6394.1
 20
612.5989999999983
 30
0.0
 40
23.111
  1
ES1
  7
SIMPLEX
 11
6394.1
 21
652.5989999999983
 31
0.0
100
AcDbText
  0
LINE
  5
164
330
107
100
AcDbEntity
  8
3
100
AcDbLine
 10
6370.990000000002
 20
648.7469999999994
 30
0.0
 11
6422.580000000002
 21
648.7469999999994
 31
0.0
  0
INSERT
  5
165
330
107
100
AcDbEntity
  8
3
100
AcDbBlockReference
  2
ARROWP
 10
6370.990000000002
 20
648.7469999999994
 30
0.0
 41
8.124
 42
8.124
 43
8.124
 50
180.0
  0
INSERT
  5
167
330
107
100
AcDbEntity
  8
7
100
AcDbBlockReference
  2
BRCCLP
 10
2183.1760000000013
 20
468.8269999999993
 30
0.0
 41
-0.366
 42
0.366
 43
0.366
  0
CIRCLE
  5
169
330
107
100
AcDbEntity
  8
15
100
AcDbCircle
 10
2183.175000000001
 20
468.8269999999993
 30
0.0
 40
6.933
  0
LINE
  5
16A
330
107
100
AcDbEntity
  8
1
100
AcDbLine
 10
2192.461000000001
 20
505.96899999999914
 30
0.0
 11
2192.461000000001
 21
468.6529999999984
 31
0.0
  0
TEXT
  5
16B
330
107
100
AcDbEntity
  8
3
100
AcDbText
 10
1946.161000000001
 20
514.1239999999998
 30
0.0
 40
23.111
  1
CLF1 (typ)
 50
-1.07
  7
SIMPLEX
 11
1946.161000000001
 21
514.1239999999998
 31
0.0
100
AcDbText
  0
TEXT
  5
16C
330
107
100
AcDbEntity
  8
3
100
AcDbText
 10
1945.5130000000008
 20
479.46299999999974
 30
0.0
 40
23.111
  1
NS/FS
 50
-1.07
  7
SIMPLEX
 11
1945.5130000000008
 21
479.46299999999974
 31
0.0
100
AcDbText
  0
LINE
  5
16D
330
107
100
AcDbEntity
  8
3
100
AcDbLine
 10
2177.1600000000008
 20
505.9589999999989
 30
0.0
 11
2125.581000000001
 21
506.92199999999866
 31
0.0
  0
INSERT
  5
16E
330
107
100
AcDbEntity
  8
3
100
AcDbBlockReference
  2
ARROWP
 10
2177.1600000000008
 20
505.9589999999989
 30
0.0
 41
8.124
 42
8.124
 43
8.124
 50
-1.07
  0
INSERT
  5
170
330
107
100
AcDbEntity
  8
7
100
AcDbBlockReference
  2
BRCCLP
 10
5098.370000000001
 20
414.3919999999998
 30
0.0
 41
-0.366
 42
0.366
 43
0.366
  0
CIRCLE
  5
172
330
107
100
AcDbEntity
  8
15
100
AcDbCircle
 10
5098.374000000002
 20
414.3919999999998
 30
0.0
 40
6.933
  0
LINE
  5
173
330
107
100
AcDbEntity
  8
1
100
AcDbLine
 10
5107.660000000002
 20
451.53499999999985
 30
0.0
 11
5107.660000000002
 21
414.21799999999894
 31
0.0
  0
LINE
  5
174
330
107
100
AcDbEntity
  8
9
100
AcDbLine
 10
5982.6500000000015
 20
410.98199999999997
 30
0.0
 11
5982.660000000002
 21
800.3889999999992
 31
0.0
  0
LINE
  5
175
330
107
100
AcDbEntity
  8
9
100
AcDbLine
 10
5982.660000000002
 20
800.3889999999992
 30
0.0
 11
5988.85
 21
800.3889999999992
 31
0.0
  0
LINE
  5
176
330
107
100
AcDbEntity
  8
9
100
AcDbLine
 10
5988.85
 20
800.3889999999992
 30
0.0
 11
5988.840000000002
 21
410.98199999999997
 31
0.0
  0
CIRCLE
  5
177
330
107
100
AcDbEntity
  8
15
100
AcDbCircle
 10
5982.648000000001
 20
410.98199999999997
 30
0.0
 40
6.933
  0
TEXT
  5
178
330
107
100
AcDbEntity
  8
3
100
AcDbText
 10
5865.02
 20
545.1729999999989
 30
0.0
 40
23.111
  1
ST4
 50
0.004
  7
SIMPLEX
 11
5865.02
 21
545.1729999999989
 31
0.0
100
AcDbText
  0
TEXT
  5
179
330
107
100
AcDbEntity
  8
3
100
AcDbText
 10
5865.02
 20
510.5059999999994
 30
0.0
 40
23.111
  1
NS/FS
 50
0.004
  7
SIMPLEX
 11
5865.02
 21
510.5059999999994
 31
0.0
100
AcDbText
  0
LINE
  5
17A
330
107
100
AcDbEntity
  8
3
100
AcDbLine
 10
5980.580000000002
 20
541.3279999999995
 30
0.0
 11
5928.990000000002
 21
541.3259999999991
 31
0.0
  0
INSERT
  5
17B
330
107
100
AcDbEntity
  8
3
100
AcDbBlockReference
  2
ARROWP
 10
5980.580000000002
 20
541.3279999999995
 30
0.0
 41
8.124
 42
8.124
 43
8.124
 50
0.004
  0
LINE
  5
17D
330
107
100
AcDbEntity
  8
9
100
AcDbLine
 10
455.34200000000146
 20
868.2789999999986
 30
0.0
 11
582.130000000001
 21
809.6790000000001
 31
0.0
  0
TEXT
  5
17E
330
107
100
AcDbEntity
  8
3
100
AcDbText
 10
607.3050000000012
 20
849.0189999999984
 30
0.0
 40
23.111
  1
SS5
  7
SIMPLEX
 11
607.3050000000012
 21
849.0189999999984
 31
0.0
100
AcDbText
  0
LINE
  5
17F
330
107
100
AcDbEntity
  8
3
100
AcDbLine
 10
584.1940000000013
 20
845.1589999999997
 30
0.0
 11
635.7810000000009
 21
845.1589999999997
 31
0.0
  0
INSERT
  5
180
330
107
100
AcDbEntity
  8
3
100
AcDbBlockReference
  2
ARROWP
 10
584.1940000000013
 20
845.1589999999997
 30
0.0
 41
8.124
 42
8.124
 43
8.124
 50
180.0
  0
LINE
  5
182
330
107
100
AcDbEntity
  8
9
100
AcDbLine
 10
613.0390000000007
 20
488.85999999999876
 30
0.0
 11
498.9170000000013
 21
432.5189999999984
 31
0.0
  0
TEXT
  5
183
330
107
100
AcDbEntity
  8
3
100
AcDbText
 10
638.2810000000009
 20
435.89999999999964
 30
0.0
 40
23.111
  1
SS6
 50
-1.07
  7
SIMPLEX
 11
638.2810000000009
 21
435.89999999999964
 31
0.0
100
AcDbText
  0
LINE
  5
184
330
107
100
AcDbEntity
  8
3
100
AcDbLine
 10
615.1020000000008
 20
432.48099999999977
 30
0.0
 11
666.6800000000012
 21
431.51800000000003
 31
0.0
  0
INSERT
  5
185
330
107
100
AcDbEntity
  8
3
100
AcDbBlockReference
  2
ARROWP
 10
615.1020000000008
 20
432.48099999999977
 30
0.0
 41
8.124
 42
8.124
 43
8.124
 50
178.93
  0
LINE
  5
187
330
107
100
AcDbEntity
  8
9
100
AcDbLine
 10
6378.640000000001
 20
510.378999999999
 30
0.0
 11
6443.210000000001
 21
456.72899999999936
 31
0.0
  0
TEXT
  5
188
330
107
100
AcDbEntity
  8
3
100
AcDbText
 10
6421.360000000001
 20
586.4049999999988
 30
0.0
 40
23.111
  1
SS3
 50
-84.289
  7
SIMPLEX
 11
6421.360000000001
 21
586.4049999999988
 31
0.0
100
AcDbText
  0
LINE
  5
189
330
107
100
AcDbEntity
  8
3
100
AcDbLine
 10
6424.420000000002
 20
517.0319999999992
 30
0.0
 11
6419.290000000001
 21
568.3629999999994
 31
0.0
  0
INSERT
  5
18A
330
107
100
AcDbEntity
  8
3
100
AcDbBlockReference
  2
ARROWP
 10
6424.420000000002
 20
517.0319999999992
 30
0.0
 41
8.124
 42
8.124
 43
8.124
 50
-84.289
  0
LINE
  5
18C
330
107
100
AcDbEntity
  8
2
100
AcDbLine
 10
462.130000000001
 20
878.7689999999984
 30
0.0
 11
462.130000000001
 21
1129.5189999999984
 31
0.0
  0
LINE
  5
18D
330
107
100
AcDbEntity
  8
2
100
AcDbLine
 10
6565.93
 20
878.7689999999984
 30
0.0
 11
6565.93
 21
1129.5189999999984
 31
0.0
  0
LINE
  5
18E
330
107
100
AcDbEntity
  8
2
100
AcDbLine
 10
462.130000000001
 20
1123.3289999999997
 30
0.0
 11
6565.93
 21
1123.3289999999997
 31
0.0
  0
INSERT
  5
18F
330
107
100
AcDbEntity
  8
2
100
AcDbBlockReference
  2
ARROW
 10
462.130000000001
 20
1123.3289999999997
 30
0.0
 41
8.124
 42
8.124
 43
8.124
 50
180.0
  0
INSERT
  5
191
330
107
100
AcDbEntity
  8
2
100
AcDbBlockReference
  2
ARROW
 10
6565.93
 20
1123.3289999999997
 30
0.0
 41
8.124
 42
8.124
 43
8.124
  0
TEXT
  5
193
330
107
100
AcDbEntity
  8
11
100
AcDbText
 10
3473.5830000000005
 20
1131.0289999999986
 30
0.0
 40
23.111
  1
6104
  7
SIMPLEX
 11
3473.5830000000005
 21
1131.0289999999986
 31
0.0
100
AcDbText
  0
LINE
  5
194
330
107
100
AcDbEntity
  8
2
100
AcDbLine
 10
6418.380000000001
 20
807.2689999999984
 30
0.0
 11
6667.890000000001
 21
832.2189999999991
 31
0.0
  0
LINE
  5
195
330
107
100
AcDbEntity
  8
2
100
AcDbLine
 10
6453.330000000002
 20
457.74199999999837
 30
0.0
 11
6702.840000000002
 21
482.6919999999991
 31
0.0
  0
LINE
  5
196
330
107
100
AcDbEntity
  8
2
100
AcDbLine
 10
6661.730000000001
 20
831.5989999999983
 30
0.0
 11
6696.68
 21
482.0759999999991
 31
0.0
  0
INSERT
  5
197
330
107
100
AcDbEntity
  8
2
100
AcDbBlockReference
  2
ARROW
 10
6661.730000000001
 20
831.5989999999983
 30
0.0
 41
8.124
 42
8.124
 43
8.124
 50
95.711
  0
INSERT
  5
199
330
107
100
AcDbEntity
  8
2
100
AcDbBlockReference
  2
ARROW
 10
6696.68
 20
482.0759999999991
 30
0.0
 41
8.124
 42
8.124
 43
8.124
 50
-84.289
  0
TEXT
  5
19B
330
107
100
AcDbEntity
  8
11
100
AcDbText
 10
6683.420000000002
 20
692.0989999999983
 30
0.0
 40
23.111
  1
352
 50
-84.289
  7
SIMPLEX
 11
6683.420000000002
 21
692.0989999999983
 31
0.0
100
AcDbText
  0
LINE
  5
19C
330
107
100
AcDbEntity
  8
3
100
AcDbLine
 10
491.90400000000136
 20
429.2049999999999
 30
0.0
 11
490.2470000000012
 21
340.491
 31
0.0
  0
INSERT
  5
19D
330
107
100
AcDbEntity
  8
3
100
AcDbBlockReference
  2
ARROW
 10
490.3630000000012
 20
346.6799999999985
 30
0.0
 41
8.124
 42
8.124
 43
8.124
 50
178.93
  0
LINE
  5
19F
330
107
100
AcDbEntity
  8
2
100
AcDbLine
 10
490.3630000000012
 20
346.6799999999985
 30
0.0
 11
5871.970000000001
 21
246.1909999999989
 31
0.0
  0
LINE
  5
1A0
330
107
100
AcDbEntity
  8
2
100
AcDbLine
 10
5873.52
 20
328.7149999999983
 30
0.0
 11
5871.860000000001
 21
240.0
 31
0.0
  0
INSERT
  5
1A1
330
107
100
AcDbEntity
  8
2
100
AcDbBlockReference
  2
ARROW
 10
5871.970000000001
 20
246.1909999999989
 30
0.0
 41
8.124
 42
8.124
 43
8.124
 50
-1.07
  0
TEXT
  5
1A3
330
107
100
AcDbEntity
  8
11
100
AcDbText
 10
3130.5210000000006
 20
305.08599999999933
 30
0.0
 40
23.111
  1
5383
 50
-1.07
  7
SIMPLEX
 11
3130.5210000000006
 21
305.08599999999933
 31
0.0
100
AcDbText
  0
TEXT
  5
1A4
330
107
100
AcDbEntity
  8
21
100
AcDbText
 10
203.44900000000143
 20
877.9290000000001
 30
0.0
 40
23.111
  1
G=100
 50
5.7109999999999985
  7
SIMPLEX
 11
203.44900000000143
 21
877.9290000000001
 31
0.0
100
AcDbText
  0
TEXT
  5
1A5
330
107
100
AcDbEntity
  8
21
100
AcDbText
 10
200.0000000000009
 20
912.4189999999999
 30
0.0
 40
23.111
  1
D=22
 50
5.7109999999999985
  7
SIMPLEX
 11
200.0000000000009
 21
912.4189999999999
 31
0.0
100
AcDbText
  0
LINE
  5
1A6
330
107
100
AcDbEntity
  8
2
100
AcDbLine
 10
416.33100000000104
 20
864.3689999999988
 30
0.0
 11
383.478000000001
 21
861.0889999999999
 31
0.0
  0
LINE
  5
1A7
330
107
100
AcDbEntity
  8
2
100
AcDbLine
 10
419.78000000000065
 20
829.878999999999
 30
0.0
 11
386.9280000000008
 21
826.5989999999983
 31
0.0
  0
LINE
  5
1A8
330
107
100
AcDbEntity
  8
2
100
AcDbLine
 10
389.63800000000083
 20
861.7089999999989
 30
0.0
 11
393.08700000000135
 21
827.2089999999989
 31
0.0
  0
INSERT
  5
1A9
330
107
100
AcDbEntity
  8
2
100
AcDbBlockReference
  2
ARROW
 10
389.63800000000083
 20
861.7089999999989
 30
0.0
 41
8.124
 42
8.124
 43
8.124
 50
95.711
  0
INSERT
  5
1AB
330
107
100
AcDbEntity
  8
2
100
AcDbBlockReference
  2
ARROW
 10
393.08700000000135
 20
827.2089999999989
 30
0.0
 41
8.124
 42
8.124
 43
8.124
 50
-84.289
  0
TEXT
  5
1AD
330
107
100
AcDbEntity
  8
11
100
AcDbText
 10
333.07700000000114
 20
823.1489999999994
 30
0.0
 40
23.111
  1
50
 50
5.7109999999999985
  7
SIMPLEX
 11
333.07700000000114
 21
823.1489999999994
 31
0.0
100
AcDbText
  0
LINE
  5
1AE
330
107
100
AcDbEntity
  8
2
100
AcDbLine
 10
425.52900000000136
 20
772.387999999999
 30
0.0
 11
392.6770000000015
 21
769.1029999999992
 31
0.0
  0
LINE
  5
1AF
330
107
100
AcDbEntity
  8
2
100
AcDbLine
 10
396.78300000000127
 20
790.2509999999984
 30
0.0
 11
398.83600000000115
 21
769.7189999999991
 31
0.0
  0
INSERT
  5
1B0
330
107
100
AcDbEntity
  8
2
100
AcDbBlockReference
  2
ARROW
 10
398.83600000000115
 20
769.7189999999991
 30
0.0
 41
8.124
 42
8.124
 43
8.124
 50
-84.289
  0
TEXT
  5
1B2
330
107
100
AcDbEntity
  8
11
100
AcDbText
 10
326.7540000000008
 20
770.2519999999986
 30
0.0
 40
23.111
  1
150
 50
5.7109999999999985
  7
SIMPLEX
 11
326.7540000000008
 21
770.2519999999986
 31
0.0
100
AcDbText
  0
LINE
  5
1B3
330
107
100
AcDbEntity
  8
2
100
AcDbLine
 10
450.70700000000124
 20
520.6049999999996
 30
0.0
 11
417.8550000000014
 21
517.3199999999997
 31
0.0
  0
LINE
  5
1B4
330
107
100
AcDbEntity
  8
2
100
AcDbLine
 10
421.96100000000115
 20
538.4689999999991
 30
0.0
 11
424.01500000000124
 21
517.9359999999997
 31
0.0
  0
INSERT
  5
1B5
330
107
100
AcDbEntity
  8
2
100
AcDbBlockReference
  2
ARROW
 10
424.01500000000124
 20
517.9359999999997
 30
0.0
 41
8.124
 42
8.124
 43
8.124
 50
-84.289
  0
TEXT
  5
1B7
330
107
100
AcDbEntity
  8
11
100
AcDbText
 10
340.4330000000009
 20
517.3199999999997
 30
0.0
 40
23.111
  1
350
 50
5.7109999999999985
  7
SIMPLEX
 11
340.4330000000009
 21
517.3199999999997
 31
0.0
100
AcDbText
  0
LINE
  5
1B8
330
107
100
AcDbEntity
  8
2
100
AcDbLine
 10
456.45600000000104
 20
463.1139999999996
 30
0.0
 11
423.603000000001
 21
459.8279999999995
 31
0.0
  0
LINE
  5
1B9
330
107
100
AcDbEntity
  8
2
100
AcDbLine
 10
427.71000000000095
 20
480.97799999999916
 30
0.0
 11
429.76300000000083
 21
460.4449999999997
 31
0.0
  0
INSERT
  5
1BA
330
107
100
AcDbEntity
  8
2
100
AcDbBlockReference
  2
ARROW
 10
429.76300000000083
 20
460.4449999999997
 30
0.0
 41
8.124
 42
8.124
 43
8.124
 50
-84.289
  0
TEXT
  5
1BC
330
107
100
AcDbEntity
  8
11
100
AcDbText
 10
346.1820000000007
 20
459.8279999999995
 30
0.0
 40
23.111
  1
450
 50
5.7109999999999985
  7
SIMPLEX
 11
346.1820000000007
 21
459.8279999999995
 31
0.0
100
AcDbText
  0
TEXT
  5
1BD
330
107
100
AcDbEntity
  8
21
100
AcDbText
 10
6486.9400000000005
 20
367.78299999999945
 30
0.0
 40
23.111
  1
G=100
 50
-84.289
  7
SIMPLEX
 11
6486.9400000000005
 21
367.78299999999945
 31
0.0
100
AcDbText
  0
TEXT
  5
1BE
330
107
100
AcDbEntity
  8
21
100
AcDbText
 10
6521.4400000000005
 20
371.23199999999997
 30
0.0
 40
23.111
  1
D=22
 50
-84.289
  7
SIMPLEX
 11
6521.4400000000005
 21
371.23199999999997
 31
0.0
100
AcDbText
  0
LINE
  5
1BF
330
107
100
AcDbEntity
  8
2
100
AcDbLine
 10
6447.110000000001
 20
417.71699999999873
 30
0.0
 11
6450.390000000001
 21
384.8649999999998
 31
0.0
  0
LINE
  5
1C0
330
107
100
AcDbEntity
  8
2
100
AcDbLine
 10
6412.610000000001
 20
414.26800000000003
 30
0.0
 11
6415.9000000000015
 21
381.41499999999905
 31
0.0
  0
LINE
  5
1C1
330
107
100
AcDbEntity
  8
2
100
AcDbLine
 10
6449.780000000001
 20
391.02499999999964
 30
0.0
 11
6415.280000000001
 21
387.5759999999991
 31
0.0
  0
INSERT
  5
1C2
330
107
100
AcDbEntity
  8
2
100
AcDbBlockReference
  2
ARROW
 10
6449.780000000001
 20
391.02499999999964
 30
0.0
 41
8.124
 42
8.124
 43
8.124
 50
5.7109999999999985
  0
INSERT
  5
1C4
330
107
100
AcDbEntity
  8
2
100
AcDbBlockReference
  2
ARROW
 10
6415.280000000001
 20
387.5759999999991
 30
0.0
 41
8.124
 42
8.124
 43
8.124
 50
-174.289
  0
TEXT
  5
1C6
330
107
100
AcDbEntity
  8
11
100
AcDbText
 10
6418.580000000002
 20
373.9419999999991
 30
0.0
 40
23.111
  1
50
 50
-84.289
  7
SIMPLEX
 11
6418.580000000002
 21
373.9419999999991
 31
0.0
100
AcDbText
  0
LINE
  5
1C7
330
107
100
AcDbEntity
  8
2
100
AcDbLine
 10
6355.120000000001
 20
408.5189999999984
 30
0.0
 11
6358.410000000002
 21
375.66599999999926
 31
0.0
  0
LINE
  5
1C8
330
107
100
AcDbEntity
  8
2
100
AcDbLine
 10
6378.3200000000015
 20
383.878999999999
 30
0.0
 11
6357.790000000001
 21
381.8269999999993
 31
0.0
  0
INSERT
  5
1C9
330
107
100
AcDbEntity
  8
2
100
AcDbBlockReference
  2
ARROW
 10
6357.790000000001
 20
381.8269999999993
 30
0.0
 41
8.124
 42
8.124
 43
8.124
 50
-174.289
  0
TEXT
  5
1CB
330
107
100
AcDbEntity
  8
11
100
AcDbText
 10
6366.840000000002
 20
368.7669999999998
 30
0.0
 40
23.111
  1
150
 50
-84.289
  7
SIMPLEX
 11
6366.840000000002
 21
368.7669999999998
 31
0.0
100
AcDbText
  0
LINE
  5
1CC
330
107
100
AcDbEntity
  8
2
100
AcDbLine
 10
6038.980000000001
 20
376.90399999999863
 30
0.0
 11
6042.27
 21
344.0519999999997
 31
0.0
  0
LINE
  5
1CD
330
107
100
AcDbEntity
  8
2
100
AcDbLine
 10
6062.18
 20
352.2649999999994
 30
0.0
 11
6041.6500000000015
 21
350.21199999999953
 31
0.0
  0
INSERT
  5
1CE
330
107
100
AcDbEntity
  8
2
100
AcDbBlockReference
  2
ARROW
 10
6041.6500000000015
 20
350.21199999999953
 30
0.0
 41
8.124
 42
8.124
 43
8.124
 50
-174.289
  0
TEXT
  5
1D0
330
107
100
AcDbEntity
  8
11
100
AcDbText
 10
6050.700000000001
 20
337.1529999999984
 30
0.0
 40
23.111
  1
450
 50
-84.289
  7
SIMPLEX
 11
6050.700000000001
 21
337.1529999999984
 31
0.0
100
AcDbText
  0
LINE
  5
1D1
330
107
100
AcDbEntity
  8
2
100
AcDbLine
 10
5940.310000000001
 20
367.03600000000006
 30
0.0
 11
5943.590000000002
 21
334.1839999999993
 31
0.0
  0
LINE
  5
1D2
330
107
100
AcDbEntity
  8
2
100
AcDbLine
 10
5963.51
 20
342.39799999999923
 30
0.0
 11
5942.980000000001
 21
340.34399999999914
 31
0.0
  0
INSERT
  5
1D3
330
107
100
AcDbEntity
  8
2
100
AcDbBlockReference
  2
ARROW
 10
5942.980000000001
 20
340.34399999999914
 30
0.0
 41
8.124
 42
8.124
 43
8.124
 50
-174.289
  0
TEXT
  5
1D5
330
107
100
AcDbEntity
  8
11
100
AcDbText
 10
5952.02
 20
327.28499999999985
 30
0.0
 40
23.111
  1
550
 50
-84.289
  7
SIMPLEX
 11
5952.02
 21
327.28499999999985
 31
0.0
100
AcDbText
  0
LINE
  5
1D6
330
107
100
AcDbEntity
  8
2
100
AcDbLine
 10
471.1110000000008
 20
835.009
 30
0.0
 11
501.91000000000076
 21
838.0889999999999
 31
0.0
  0
LINE
  5
1D7
330
107
100
AcDbEntity
  8
2
100
AcDbLine
 10
474.4500000000007
 20
810.9089999999997
 30
0.0
 11
505.2480000000014
 21
813.9889999999996
 31
0.0
  0
LINE
  5
1D8
330
107
100
AcDbEntity
  8
2
100
AcDbLine
 10
495.7500000000009
 20
837.4789999999994
 30
0.0
 11
499.08900000000085
 21
813.3689999999988
 31
0.0
  0
INSERT
  5
1D9
330
107
100
AcDbEntity
  8
2
100
AcDbBlockReference
  2
ARROW
 10
495.7500000000009
 20
837.4789999999994
 30
0.0
 41
8.124
 42
8.124
 43
8.124
 50
95.711
  0
INSERT
  5
1DB
330
107
100
AcDbEntity
  8
2
100
AcDbBlockReference
  2
ARROW
 10
499.08900000000085
 20
813.3689999999988
 30
0.0
 41
8.124
 42
8.124
 43
8.124
 50
-84.289
  0
TEXT
  5
1DD
330
107
100
AcDbEntity
  8
11
100
AcDbText
 10
511.8050000000012
 20
816.5589999999993
 30
0.0
 40
23.111
  1
47
 50
5.7109999999999985
  7
SIMPLEX
 11
511.8050000000012
 21
816.5589999999993
 31
0.0
100
AcDbText
  0
LINE
  5
1DE
330
107
100
AcDbEntity
  8
2
100
AcDbLine
 10
6383.360000000001
 20
463.1869999999999
 30
0.0
 11
6380.280000000001
 21
493.98599999999897
 31
0.0
  0
LINE
  5
1DF
330
107
100
AcDbEntity
  8
2
100
AcDbLine
 10
6407.480000000001
 20
465.59899999999834
 30
0.0
 11
6404.4000000000015
 21
496.39899999999943
 31
0.0
  0
LINE
  5
1E0
330
107
100
AcDbEntity
  8
2
100
AcDbLine
 10
6380.890000000001
 20
487.8259999999991
 30
0.0
 11
6405.02
 21
490.2389999999996
 31
0.0
  0
INSERT
  5
1E1
330
107
100
AcDbEntity
  8
2
100
AcDbBlockReference
  2
ARROW
 10
6380.890000000001
 20
487.8259999999991
 30
0.0
 41
8.124
 42
8.124
 43
8.124
 50
5.7110000000000225
  0
INSERT
  5
1E3
330
107
100
AcDbEntity
  8
2
100
AcDbBlockReference
  2
ARROW
 10
6405.02
 20
490.2389999999996
 30
0.0
 41
8.124
 42
8.124
 43
8.124
 50
-174.28900000000002
  0
TEXT
  5
1E5
330
107
100
AcDbEntity
  8
11
100
AcDbText
 10
6411.920000000002
 20
498.6700000000001
 30
0.0
 40
23.111
  1
45
 50
5.7109999999999985
  7
SIMPLEX
 11
6411.920000000002
 21
498.6700000000001
 31
0.0
100
AcDbText
  0
LINE
  5
1E6
330
107
100
AcDbEntity
  8
2
100
AcDbLine
 10
462.130000000001
 20
924.1989999999987
 30
0.0
 11
462.130000000001
 21
965.4689999999991
 31
0.0
  0
LINE
  5
1E7
330
107
100
AcDbEntity
  8
2
100
AcDbLine
 10
646.0500000000011
 20
924.1989999999987
 30
0.0
 11
646.0500000000011
 21
965.4689999999991
 31
0.0
  0
LINE
  5
1E8
330
107
100
AcDbEntity
  8
2
100
AcDbLine
 10
462.130000000001
 20
959.2789999999986
 30
0.0
 11
646.0500000000011
 21
959.2789999999986
 31
0.0
  0
INSERT
  5
1E9
330
107
100
AcDbEntity
  8
2
100
AcDbBlockReference
  2
ARROW
 10
462.130000000001
 20
959.2789999999986
 30
0.0
 41
8.124
 42
8.124
 43
8.124
 50
180.0
  0
INSERT
  5
1EB
330
107
100
AcDbEntity
  8
2
100
AcDbBlockReference
  2
ARROW
 10
646.0500000000011
 20
959.2789999999986
 30
0.0
 41
8.124
 42
8.124
 43
8.124
  0
TEXT
  5
1ED
330
107
100
AcDbEntity
  8
11
100
AcDbText
 10
580.5680000000011
 20
966.9789999999994
 30
0.0
 40
23.111
  1
184
  7
SIMPLEX
 11
580.5680000000011
 21
966.9789999999994
 31
0.0
100
AcDbText
  0
LINE
  5
1EE
330
107
100
AcDbEntity
  8
2
100
AcDbLine
 10
6152.920000000002
 20
800.3889999999992
 30
0.0
 11
6126.1
 21
800.3889999999992
 31
0.0
  0
LINE
  5
1EF
330
107
100
AcDbEntity
  8
2
100
AcDbLine
 10
6152.920000000002
 20
725.3909999999996
 30
0.0
 11
6126.1
 21
725.3909999999996
 31
0.0
  0
LINE
  5
1F0
330
107
100
AcDbEntity
  8
2
100
AcDbLine
 10
6132.290000000001
 20
800.3889999999992
 30
0.0
 11
6132.290000000001
 21
725.3909999999996
 31
0.0
  0
INSERT
  5
1F1
330
107
100
AcDbEntity
  8
2
100
AcDbBlockReference
  2
ARROW
 10
6132.290000000001
 20
800.3889999999992
 30
0.0
 41
8.124
 42
8.124
 43
8.124
 50
90.0
  0
INSERT
  5
1F3
330
107
100
AcDbEntity
  8
2
100
AcDbBlockReference
  2
ARROW
 10
6132.290000000001
 20
725.3909999999996
 30
0.0
 41
8.124
 42
8.124
 43
8.124
 50
-90.0
  0
TEXT
  5
1F5
330
107
100
AcDbEntity
  8
11
100
AcDbText
 10
6072.170000000002
 20
747.4829999999984
 30
0.0
 40
23.111
  1
75
  7
SIMPLEX
 11
6072.170000000002
 21
747.4829999999984
 31
0.0
100
AcDbText
  0
LINE
  5
1F6
330
107
100
AcDbEntity
  8
2
100
AcDbLine
 10
6165.300000000001
 20
924.1989999999987
 30
0.0
 11
6165.300000000001
 21
965.4689999999991
 31
0.0
  0
LINE
  5
1F7
330
107
100
AcDbEntity
  8
2
100
AcDbLine
 10
6140.540000000001
 20
959.2789999999986
 30
0.0
 11
6165.300000000001
 21
959.2789999999986
 31
0.0
  0
INSERT
  5
1F8
330
107
100
AcDbEntity
  8
2
100
AcDbBlockReference
  2
ARROW
 10
6165.300000000001
 20
959.2789999999986
 30
0.0
 41
8.124
 42
8.124
 43
8.124
  0
TEXT
  5
1FA
330
107
100
AcDbEntity
  8
11
100
AcDbText
 10
6065.1500000000015
 20
966.9789999999994
 30
0.0
 40
23.111
  1
5703
  7
SIMPLEX
 11
6065.1500000000015
 21
966.9789999999994
 31
0.0
100
AcDbText
  0
LINE
  5
1FB
330
107
100
AcDbEntity
  8
2
100
AcDbLine
 10
6366.410000000002
 20
539.3119999999999
 30
0.0
 11
6369.080000000002
 21
512.6189999999988
 31
0.0
  0
LINE
  5
1FC
330
107
100
AcDbEntity
  8
2
100
AcDbLine
 10
6291.780000000001
 20
531.8489999999983
 30
0.0
 11
6294.450000000001
 21
505.15699999999924
 31
0.0
  0
LINE
  5
1FD
330
107
100
AcDbEntity
  8
2
100
AcDbLine
 10
6368.460000000001
 20
518.7799999999988
 30
0.0
 11
6293.830000000002
 21
511.3169999999991
 31
0.0
  0
INSERT
  5
1FE
330
107
100
AcDbEntity
  8
2
100
AcDbBlockReference
  2
ARROW
 10
6368.460000000001
 20
518.7799999999988
 30
0.0
 41
8.124
 42
8.124
 43
8.124
 50
5.7109999999999985
  0
INSERT
  5
200
330
107
100
AcDbEntity
  8
2
100
AcDbBlockReference
  2
ARROW
 10
6293.830000000002
 20
511.3169999999991
 30
0.0
 41
8.124
 42
8.124
 43
8.124
 50
-174.289
  0
TEXT
  5
202
330
107
100
AcDbEntity
  8
11
100
AcDbText
 10
6317.200000000001
 20
499.6909999999989
 30
0.0
 40
23.111
  1
75
 50
-84.289
  7
SIMPLEX
 11
6317.200000000001
 21
499.6909999999989
 31
0.0
100
AcDbText
  0
LINE
  5
203
330
107
100
AcDbEntity
  8
2
100
AcDbLine
 10
6463.500000000002
 20
812.7089999999989
 30
0.0
 11
6504.560000000001
 21
816.8189999999995
 31
0.0
  0
LINE
  5
204
330
107
100
AcDbEntity
  8
2
100
AcDbLine
 10
6488.370000000001
 20
563.9509999999991
 30
0.0
 11
6529.4400000000005
 21
568.0579999999991
 31
0.0
  0
LINE
  5
205
330
107
100
AcDbEntity
  8
2
100
AcDbLine
 10
6498.4000000000015
 20
816.1989999999987
 30
0.0
 11
6523.280000000001
 21
567.4419999999991
 31
0.0
  0
INSERT
  5
206
330
107
100
AcDbEntity
  8
2
100
AcDbBlockReference
  2
ARROW
 10
6498.4000000000015
 20
816.1989999999987
 30
0.0
 41
8.124
 42
8.124
 43
8.124
 50
95.711
  0
INSERT
  5
208
330
107
100
AcDbEntity
  8
2
100
AcDbBlockReference
  2
ARROW
 10
6523.280000000001
 20
567.4419999999991
 30
0.0
 41
8.124
 42
8.124
 43
8.124
 50
-84.289
  0
TEXT
  5
20A
330
107
100
AcDbEntity
  8
11
100
AcDbText
 10
6523.280000000001
 20
644.8629999999994
 30
0.0
 40
23.111
  1
250
 50
-84.289
  7
SIMPLEX
 11
6523.280000000001
 21
644.8629999999994
 31
0.0
100
AcDbText
  0
LINE
  5
20B
330
107
100
AcDbEntity
  8
2
100
AcDbLine
 10
462.130000000001
 20
865.3889999999992
 30
0.0
 11
462.130000000001
 21
887.0589999999993
 31
0.0
  0
LINE
  5
20C
330
107
100
AcDbEntity
  8
2
100
AcDbLine
 10
725.5740000000014
 20
865.3889999999992
 30
0.0
 11
725.5740000000014
 21
887.0589999999993
 31
0.0
  0
LINE
  5
20D
330
107
100
AcDbEntity
  8
2
100
AcDbLine
 10
462.130000000001
 20
880.8689999999988
 30
0.0
 11
725.5740000000014
 21
880.8689999999988
 31
0.0
  0
INSERT
  5
20E
330
107
100
AcDbEntity
  8
2
100
AcDbBlockReference
  2
ARROW
 10
462.130000000001
 20
880.8689999999988
 30
0.0
 41
8.124
 42
8.124
 43
8.124
 50
180.0
  0
INSERT
  5
210
330
107
100
AcDbEntity
  8
2
100
AcDbBlockReference
  2
ARROW
 10
725.5740000000014
 20
880.8689999999988
 30
0.0
 41
8.124
 42
8.124
 43
8.124
  0
TEXT
  5
212
330
107
100
AcDbEntity
  8
11
100
AcDbText
 10
559.1860000000015
 20
888.5689999999995
 30
0.0
 40
23.111
  1
263
  7
SIMPLEX
 11
559.1860000000015
 21
888.5689999999995
 31
0.0
100
AcDbText
  0
LINE
  5
213
330
107
100
AcDbEntity
  8
2
100
AcDbLine
 10
2183.1760000000013
 20
865.3889999999992
 30
0.0
 11
2183.1760000000013
 21
887.0589999999993
 31
0.0
  0
LINE
  5
214
330
107
100
AcDbEntity
  8
2
100
AcDbLine
 10
2131.5880000000006
 20
880.8689999999988
 30
0.0
 11
2183.1760000000013
 21
880.8689999999988
 31
0.0
  0
INSERT
  5
215
330
107
100
AcDbEntity
  8
2
100
AcDbBlockReference
  2
ARROW
 10
2183.1760000000013
 20
880.8689999999988
 30
0.0
 41
8.124
 42
8.124
 43
8.124
  0
TEXT
  5
217
330
107
100
AcDbEntity
  8
11
100
AcDbText
 10
2106.139000000001
 20
888.5689999999995
 30
0.0
 40
23.111
  1
1721
  7
SIMPLEX
 11
2106.139000000001
 21
888.5689999999995
 31
0.0
100
AcDbText
  0
LINE
  5
218
330
107
100
AcDbEntity
  8
2
100
AcDbLine
 10
3640.7740000000013
 20
865.3889999999992
 30
0.0
 11
3640.7740000000013
 21
887.0589999999993
 31
0.0
  0
LINE
  5
219
330
107
100
AcDbEntity
  8
2
100
AcDbLine
 10
3589.1870000000017
 20
880.8689999999988
 30
0.0
 11
3640.7740000000013
 21
880.8689999999988
 31
0.0
  0
INSERT
  5
21A
330
107
100
AcDbEntity
  8
2
100
AcDbBlockReference
  2
ARROW
 10
3640.7740000000013
 20
880.8689999999988
 30
0.0
 41
8.124
 42
8.124
 43
8.124
  0
TEXT
  5
21C
330
107
100
AcDbEntity
  8
11
100
AcDbText
 10
3552.1810000000005
 20
888.5689999999995
 30
0.0
 40
23.111
  1
3179
  7
SIMPLEX
 11
3552.1810000000005
 21
888.5689999999995
 31
0.0
100
AcDbText
  0
LINE
  5
21D
330
107
100
AcDbEntity
  8
2
100
AcDbLine
 10
5098.370000000001
 20
865.3889999999992
 30
0.0
 11
5098.370000000001
 21
887.0589999999993
 31
0.0
  0
LINE
  5
21E
330
107
100
AcDbEntity
  8
2
100
AcDbLine
 10
5046.790000000001
 20
880.8689999999988
 30
0.0
 11
5098.370000000001
 21
880.8689999999988
 31
0.0
  0
INSERT
  5
21F
330
107
100
AcDbEntity
  8
2
100
AcDbBlockReference
  2
ARROW
 10
5098.370000000001
 20
880.8689999999988
 30
0.0
 41
8.124
 42
8.124
 43
8.124
  0
TEXT
  5
221
330
107
100
AcDbEntity
  8
11
100
AcDbText
 10
4998.230000000001
 20
888.5689999999995
 30
0.0
 40
23.111
  1
4636
  7
SIMPLEX
 11
4998.230000000001
 21
888.5689999999995
 31
0.0
100
AcDbText
  0
LINE
  5
222
330
107
100
AcDbEntity
  8
2
100
AcDbLine
 10
6475.970000000001
 20
865.3889999999992
 30
0.0
 11
6475.970000000001
 21
887.0589999999993
 31
0.0
  0
LINE
  5
223
330
107
100
AcDbEntity
  8
2
100
AcDbLine
 10
6424.390000000001
 20
880.8689999999988
 30
0.0
 11
6475.970000000001
 21
880.8689999999988
 31
0.0
  0
INSERT
  5
224
330
107
100
AcDbEntity
  8
2
100
AcDbBlockReference
  2
ARROW
 10
6475.970000000001
 20
880.8689999999988
 30
0.0
 41
8.124
 42
8.124
 43
8.124
  0
TEXT
  5
226
330
107
100
AcDbEntity
  8
11
100
AcDbText
 10
6387.380000000001
 20
888.5689999999995
 30
0.0
 40
23.111
  1
6014
  7
SIMPLEX
 11
6387.380000000001
 21
888.5689999999995
 31
0.0
100
AcDbText
  0
INSERT
  5
227
330
107
100
AcDbEntity
  8
15
100
AcDbBlockReference
  2
CIRCLE
 10
450.83300000000145
 20
809.6790000000001
 30
0.0
 41
0.406
 42
0.406
 43
0.406
  0
INSERT
  5
229
330
107
100
AcDbEntity
  8
15
100
AcDbBlockReference
  2
CIRCLE
 10
482.6710000000012
 20
491.29299999999967
 30
0.0
 41
0.406
 42
0.406
 43
0.406
  0
INSERT
  5
22B
330
107
100
AcDbEntity
  8
15
100
AcDbBlockReference
  2
CIRCLE
 10
5878.860000000001
 20
389.9249999999993
 30
0.0
 41
0.406
 42
0.406
 43
0.406
  0
INSERT
  5
22D
330
107
100
AcDbEntity
  8
15
100
AcDbBlockReference
  2
CIRCLE
 10
6385.610000000001
 20
440.60099999999875
 30
0.0
 41
0.406
 42
0.406
 43
0.406
  0
INSERT
  5
22F
330
107
100
AcDbEntity
  8
15
100
AcDbBlockReference
  2
CIRCLE
 10
6348.710000000001
 20
809.6790000000001
 30
0.0
 41
0.406
 42
0.406
 43
0.406
  0
LINE
  5
231
330
107
100
AcDbEntity
  8
2
100
AcDbLine
 10
450.83300000000145
 20
878.7689999999984
 30
0.0
 11
450.83300000000145
 21
1181.1089999999986
 31
0.0
  0
LINE
  5
232
330
107
100
AcDbEntity
  8
2
100
AcDbLine
 10
6348.710000000001
 20
878.7689999999984
 30
0.0
 11
6348.710000000001
 21
1181.1089999999986
 31
0.0
  0
LINE
  5
233
330
107
100
AcDbEntity
  8
2
100
AcDbLine
 10
450.83300000000145
 20
1174.9189999999999
 30
0.0
 11
6348.710000000001
 21
1174.9189999999999
 31
0.0
  0
INSERT
  5
234
330
107
100
AcDbEntity
  8
2
100
AcDbBlockReference
  2
ARROW
 10
450.83300000000145
 20
1174.9189999999999
 30
0.0
 41
8.124
 42
8.124
 43
8.124
 50
180.0
  0
INSERT
  5
236
330
107
100
AcDbEntity
  8
2
100
AcDbBlockReference
  2
ARROW
 10
6348.710000000001
 20
1174.9189999999999
 30
0.0
 41
8.124
 42
8.124
 43
8.124
  0
TEXT
  5
238
330
107
100
AcDbEntity
  8
11
100
AcDbText
 10
3353.5460000000003
 20
1182.6189999999988
 30
0.0
 40
23.111
  1
5899
  7
SIMPLEX
 11
3353.5460000000003
 21
1182.6189999999988
 31
0.0
100
AcDbText
  0
LINE
  5
239
330
107
100
AcDbEntity
  8
2
100
AcDbLine
 10
462.130000000001
 20
869.4789999999994
 30
0.0
 11
462.130000000001
 21
992.2989999999991
 31
0.0
  0
LINE
  5
23A
330
107
100
AcDbEntity
  8
2
100
AcDbLine
 10
513.7180000000008
 20
986.1089999999986
 30
0.0
 11
462.130000000001
 21
986.1089999999986
 31
0.0
  0
INSERT
  5
23B
330
107
100
AcDbEntity
  8
2
100
AcDbBlockReference
  2
ARROW
 10
462.130000000001
 20
986.1089999999986
 30
0.0
 41
8.124
 42
8.124
 43
8.124
 50
180.0
  0
LINE
  5
23D
330
107
100
AcDbEntity
  8
2
100
AcDbLine
 10
5982.6500000000015
 20
851.9789999999994
 30
0.0
 11
5982.6500000000015
 21
992.2989999999991
 31
0.0
  0
LINE
  5
23E
330
107
100
AcDbEntity
  8
2
100
AcDbLine
 10
5931.060000000001
 20
986.1089999999986
 30
0.0
 11
5982.6500000000015
 21
986.1089999999986
 31
0.0
  0
INSERT
  5
23F
330
107
100
AcDbEntity
  8
2
100
AcDbBlockReference
  2
ARROW
 10
5982.6500000000015
 20
986.1089999999986
 30
0.0
 41
8.124
 42
8.124
 43
8.124
  0
TEXT
  5
241
330
107
100
AcDbEntity
  8
11
100
AcDbText
 10
5894.050000000001
 20
993.8089999999993
 30
0.0
 40
23.111
  1
5512
  7
SIMPLEX
 11
5894.050000000001
 21
993.8089999999993
 31
0.0
100
AcDbText
  0
LINE
  5
242
330
107
100
AcDbEntity
  8
3
100
AcDbLine
 10
462.130000000001
 20
871.5789999999997
 30
0.0
 11
462.130000000001
 21
1077.929
 31
0.0
  0
LINE
  5
243
330
107
100
AcDbEntity
  8
3
100
AcDbLine
 10
462.130000000001
 20
1016.0289999999986
 30
0.0
 11
323.46300000000065
 21
1016.0289999999986
 31
0.0
  0
INSERT
  5
244
330
107
100
AcDbEntity
  8
3
100
AcDbBlockReference
  2
ARROW
 10
462.130000000001
 20
1016.0289999999986
 30
0.0
 41
8.124
 42
8.124
 43
8.124
  0
TEXT
  5
246
330
107
100
AcDbEntity
  8
3
100
AcDbText
 10
346.5750000000007
 20
1021.7989999999991
 30
0.0
 40
23.111
  1
Tape
  7
SIMPLEX
 11
346.5750000000007
 21
1021.7989999999991
 31
0.0
100
AcDbText
  0
TEXT
  5
247
330
107
100
AcDbEntity
  8
3
100
AcDbText
 10
346.5750000000007
 20
987.1389999999992
 30
0.0
 40
23.111
  1
(Typ)
  7
SIMPLEX
 11
346.5750000000007
 21
987.1389999999992
 31
0.0
100
AcDbText
  0
MTEXT
  5
248
330
107
100
AcDbEntity
  8
0
100
AcDbMText
 10
3462.509900000001
 20
140.0
 30
0.0
 40
40.0
 71
5
  1
ASMPIECE\P(SCALE 1:1)
  0
ENDBLK
  5
109
330
107
100
AcDbEntity
  8
0
100
AcDbBlockEnd
  0
BLOCK
  5
24A
330
249
100
AcDbEntity
  8
0
100
AcDbBlockBegin
  2
FLAT_ASMSECTN
 70
0
 10
0.0
 20
0.0
 30
0.0
  3
FLAT_ASMSECTN
  1

  0
LINE
  5
24C
330
249
100
AcDbEntity
  8
1
100
AcDbLine
 10
477.365
 20
368.01
 30
0.0
 11
667.865
 21
368.01
 31
0.0
  0
LINE
  5
24D
330
249
100
AcDbEntity
  8
1
100
AcDbLine
 10
477.365
 20
368.01
 30
0.0
 11
477.365
 21
387.06
 31
0.0
  0
LINE
  5
24E
330
249
100
AcDbEntity
  8
1
100
AcDbLine
 10
667.865
 20
368.01
 30
0.0
 11
667.865
 21
387.06
 31
0.0
  0
LINE
  5
24F
330
249
100
AcDbEntity
  8
1
100
AcDbLine
 10
477.365
 20
387.06
 30
0.0
 11
667.865
 21
387.06
 31
0.0
  0
LINE
  5
250
330
249
100
AcDbEntity
  8
1
100
AcDbLine
 10
477.365
 20
787.11
 30
0.0
 11
667.865
 21
787.11
 31
0.0
  0
LINE
  5
251
330
249
100
AcDbEntity
  8
1
100
AcDbLine
 10
477.365
 20
787.11
 30
0.0
 11
477.365
 21
768.06
 31
0.0
  0
LINE
  5
252
330
249
100
AcDbEntity
  8
1
100
AcDbLine
 10
667.865
 20
787.11
 30
0.0
 11
667.865
 21
768.06
 31
0.0
  0
LINE
  5
253
330
249
100
AcDbEntity
  8
1
100
AcDbLine
 10
477.365
 20
768.06
 30
0.0
 11
667.865
 21
768.06
 31
0.0
  0
LINE
  5
254
330
249
100
AcDbEntity
  8
1
100
AcDbLine
 10
564.995
 20
387.06
 30
0.0
 11
564.995
 21
768.06
 31
0.0
  0
LINE
  5
255
330
249
100
AcDbEntity
  8
1
100
AcDbLine
 10
580.235
 20
387.06
 30
0.0
 11
580.235
 21
768.06
 31
0.0
  0
TEXT
  5
256
330
249
100
AcDbEntity
  8
3
100
AcDbText
 10
200.0
 20
470.88
 30
0.0
 40
42.675000000000004
  1
NS
  7
SIMPLEX
 11
200.0
 21
470.88
 31
0.0
100
AcDbText
  0
TEXT
  5
257
330
249
100
AcDbEntity
  8
3
100
AcDbText
 10
902.5550000000001
 20
470.88
 30
0.0
 40
42.675000000000004
  1
FS
  7
SIMPLEX
 11
902.5550000000001
 21
470.88
 31
0.0
100
AcDbText
  0
LINE
  5
258
330
249
100
AcDbEntity
  8
13
100
AcDbLine
 10
584.045
 20
467.07
 30
0.0
 11
660.245
 21
467.07
 31
0.0
  0
LINE
  5
259
330
249
100
AcDbEntity
  8
13
100
AcDbLine
 10
660.245
 20
467.07
 30
0.0
 11
660.245
 21
390.87
 31
0.0
  0
LINE
  5
25A
330
249
100
AcDbEntity
  8
13
100
AcDbLine
 10
660.245
 20
390.87
 30
0.0
 11
595.475
 21
390.87
 31
0.0
  0
LINE
  5
25B
330
249
100
AcDbEntity
  8
13
100
AcDbLine
 10
584.045
 20
402.3
 30
0.0
 11
584.045
 21
467.07
 31
0.0
  0
LINE
  5
25C
330
249
100
AcDbEntity
  8
13
100
AcDbLine
 10
584.045
 20
402.3
 30
0.0
 11
595.475
 21
390.87
 31
0.0
  0
LINE
  5
25D
330
249
100
AcDbEntity
  8
13
100
AcDbLine
 10
561.1850000000001
 20
467.07
 30
0.0
 11
484.985
 21
467.07
 31
0.0
  0
LINE
  5
25E
330
249
100
AcDbEntity
  8
13
100
AcDbLine
 10
484.985
 20
467.07
 30
0.0
 11
484.985
 21
390.87
 31
0.0
  0
LINE
  5
25F
330
249
100
AcDbEntity
  8
13
100
AcDbLine
 10
484.985
 20
390.87
 30
0.0
 11
549.755
 21
390.87
 31
0.0
  0
LINE
  5
260
330
249
100
AcDbEntity
  8
13
100
AcDbLine
 10
561.1850000000001
 20
402.3
 30
0.0
 11
561.1850000000001
 21
467.07
 31
0.0
  0
LINE
  5
261
330
249
100
AcDbEntity
  8
13
100
AcDbLine
 10
561.1850000000001
 20
402.3
 30
0.0
 11
549.755
 21
390.87
 31
0.0
  0
INSERT
  5
262
330
249
100
AcDbEntity
  8
1
100
AcDbBlockReference
  2
CIRCLE
 10
622.145
 20
428.96999999999997
 30
0.0
 41
0.8999999999999999
 42
0.8999999999999999
 43
0.8999999999999999
  0
INSERT
  5
264
330
249
100
AcDbEntity
  8
1
100
AcDbBlockReference
  2
CIRCLE
 10
523.085
 20
428.96999999999997
 30
0.0
 41
0.8999999999999999
 42
0.8999999999999999
 43
0.8999999999999999
  0
LINE
  5
266
330
249
100
AcDbEntity
  8
3
100
AcDbLine
 10
465.935
 20
428.96999999999997
 30
0.0
 11
389.735
 21
428.96999999999997
 31
0.0
  0
LINE
  5
267
330
249
100
AcDbEntity
  8
3
100
AcDbLine
 10
465.935
 20
390.87
 30
0.0
 11
389.735
 21
390.87
 31
0.0
  0
LINE
  5
268
330
249
100
AcDbEntity
  8
3
100
AcDbLine
 10
408.78499999999997
 20
390.87
 30
0.0
 11
408.78499999999997
 21
428.96999999999997
 31
0.0
  0
INSERT
  5
269
330
249
100
AcDbEntity
  8
1
100
AcDbBlockReference
  2
ARROW
 10
408.78499999999997
 20
390.87
 30
0.0
 41
15.0
 42
15.0
 43
15.0
 50
90.0
  0
INSERT
  5
26B
330
249
100
AcDbEntity
  8
1
100
AcDbBlockReference
  2
ARROW
 10
408.78499999999997
 20
428.96999999999997
 30
0.0
 41
15.0
 42
15.0
 43
15.0
 50
-90.00000000000001
  0
TEXT
  5
26D
330
249
100
AcDbEntity
  8
3
100
AcDbText
 10
301.59499999999997
 20
397.46999999999997
 30
0.0
 40
42.675000000000004
  1
50
  7
SIMPLEX
 11
301.59499999999997
 21
397.46999999999997
 31
0.0
100
AcDbText
  0
LINE
  5
26E
330
249
100
AcDbEntity
  8
3
100
AcDbLine
 10
523.085
 20
474.69
 30
0.0
 11
523.085
 21
505.16999999999996
 31
0.0
  0
LINE
  5
26F
330
249
100
AcDbEntity
  8
3
100
AcDbLine
 10
564.995
 20
486.12
 30
0.0
 11
564.995
 21
505.16999999999996
 31
0.0
  0
LINE
  5
270
330
249
100
AcDbEntity
  8
3
100
AcDbLine
 10
523.085
 20
486.12
 30
0.0
 11
564.995
 21
486.12
 31
0.0
  0
INSERT
  5
271
330
249
100
AcDbEntity
  8
1
100
AcDbBlockReference
  2
ARROW
 10
523.085
 20
486.12
 30
0.0
 41
15.0
 42
15.0
 43
15.0
  0
INSERT
  5
273
330
249
100
AcDbEntity
  8
1
100
AcDbBlockReference
  2
ARROW
 10
564.995
 20
486.12
 30
0.0
 41
15.0
 42
15.0
 43
15.0
 50
180.0
  0
TEXT
  5
275
330
249
100
AcDbEntity
  8
3
100
AcDbText
 10
423.515
 20
496.53
 30
0.0
 40
42.675000000000004
  1
50
  7
SIMPLEX
 11
423.515
 21
496.53
 31
0.0
100
AcDbText
  0
LINE
  5
276
330
249
100
AcDbEntity
  8
3
100
AcDbLine
 10
679.2950000000001
 20
425.15999999999997
 30
0.0
 11
831.6949999999999
 21
425.15999999999997
 31
0.0
  0
INSERT
  5
277
330
249
100
AcDbEntity
  8
3
100
AcDbBlockReference
  2
ARROWP
 10
679.2950000000001
 20
425.15999999999997
 30
0.0
 41
15.0
 42
15.0
 43
15.0
 50
180.0
  0
TEXT
  5
279
330
249
100
AcDbEntity
  8
1
100
AcDbText
 10
725.015
 20
436.59
 30
0.0
 40
42.675000000000004
  1
CLF1
  7
SIMPLEX
 11
725.015
 21
436.59
 31
0.0
100
AcDbText
  0
TEXT
  5
27A
330
249
100
AcDbEntity
  8
21
100
AcDbText
 10
715.865
 20
361.155
 30
0.0
 40
42.675000000000004
  1
D=14
  7
SIMPLEX
 11
715.865
 21
361.155
 31
0.0
100
AcDbText
  0
LINE
  5
27B
330
249
100
AcDbEntity
  8
13
100
AcDbLine
 10
496.415
 20
790.92
 30
0.0
 11
648.815
 21
790.92
 31
0.0
  0
LINE
  5
27C
330
249
100
AcDbEntity
  8
13
100
AcDbLine
 10
648.815
 20
790.92
 30
0.0
 11
648.815
 21
1019.52
 31
0.0
  0
LINE
  5
27D
330
249
100
AcDbEntity
  8
13
100
AcDbLine
 10
648.815
 20
1019.52
 30
0.0
 11
496.415
 21
1019.52
 31
0.0
  0
LINE
  5
27E
330
249
100
AcDbEntity
  8
13
100
AcDbLine
 10
496.415
 20
1019.52
 30
0.0
 11
496.415
 21
790.92
 31
0.0
  0
INSERT
  5
27F
330
249
100
AcDbEntity
  8
1
100
AcDbBlockReference
  2
CIRCLE
 10
534.515
 20
867.12
 30
0.0
 41
0.8999999999999999
 42
0.8999999999999999
 43
0.8999999999999999
  0
INSERT
  5
281
330
249
100
AcDbEntity
  8
1
100
AcDbBlockReference
  2
CIRCLE
 10
610.715
 20
867.12
 30
0.0
 41
0.8999999999999999
 42
0.8999999999999999
 43
0.8999999999999999
  0
INSERT
  5
283
330
249
100
AcDbEntity
  8
1
100
AcDbBlockReference
  2
CIRCLE
 10
534.515
 20
981.42
 30
0.0
 41
0.8999999999999999
 42
0.8999999999999999
 43
0.8999999999999999
  0
INSERT
  5
285
330
249
100
AcDbEntity
  8
1
100
AcDbBlockReference
  2
CIRCLE
 10
610.715
 20
981.42
 30
0.0
 41
0.8999999999999999
 42
0.8999999999999999
 43
0.8999999999999999
  0
LINE
  5
287
330
249
100
AcDbEntity
  8
3
100
AcDbLine
 10
534.515
 20
1038.5700000000002
 30
0.0
 11
534.515
 21
1076.67
 31
0.0
  0
LINE
  5
288
330
249
100
AcDbEntity
  8
3
100
AcDbLine
 10
610.715
 20
1038.5700000000002
 30
0.0
 11
610.715
 21
1076.67
 31
0.0
  0
LINE
  5
289
330
249
100
AcDbEntity
  8
3
100
AcDbLine
 10
534.515
 20
1057.62
 30
0.0
 11
610.715
 21
1057.62
 31
0.0
  0
INSERT
  5
28A
330
249
100
AcDbEntity
  8
1
100
AcDbBlockReference
  2
ARROW
 10
534.515
 20
1057.62
 30
0.0
 41
15.0
 42
15.0
 43
15.0
 50
180.0
  0
INSERT
  5
28C
330
249
100
AcDbEntity
  8
1
100
AcDbBlockReference
  2
ARROW
 10
610.715
 20
1057.62
 30
0.0
 41
15.0
 42
15.0
 43
15.0
  0
TEXT
  5
28E
330
249
100
AcDbEntity
  8
3
100
AcDbText
 10
548.735
 20
971.8399999999999
 30
0.0
 40
42.675000000000004
  1
100
  7
SIMPLEX
 11
548.735
 21
1071.84
 31
0.0
100
AcDbText
  0
LINE
  5
28F
330
249
100
AcDbEntity
  8
3
100
AcDbLine
 10
686.915
 20
787.11
 30
0.0
 11
763.115
 21
787.11
 31
0.0
  0
LINE
  5
290
330
249
100
AcDbEntity
  8
3
100
AcDbLine
 10
667.865
 20
867.12
 30
0.0
 11
763.115
 21
867.12
 31
0.0
  0
LINE
  5
291
330
249
100
AcDbEntity
  8
3
100
AcDbLine
 10
744.065
 20
787.11
 30
0.0
 11
744.065
 21
981.42
 31
0.0
  0
LINE
  5
292
330
249
100
AcDbEntity
  8
3
100
AcDbLine
 10
667.865
 20
981.42
 30
0.0
 11
763.115
 21
981.42
 31
0.0
  0
INSERT
  5
293
330
249
100
AcDbEntity
  8
1
100
AcDbBlockReference
  2
ARROW
 10
744.065
 20
981.42
 30
0.0
 41
15.0
 42
15.0
 43
15.0
 50
90.0
  0
INSERT
  5
295
330
249
100
AcDbEntity
  8
1
100
AcDbBlockReference
  2
ARROW
 10
744.065
 20
867.12
 30
0.0
 41
15.0
 42
15.0
 43
15.0
 50
-90.00000000000001
  0
INSERT
  5
297
330
249
100
AcDbEntity
  8
1
100
AcDbBlockReference
  2
ARROW
 10
744.065
 20
867.12
 30
0.0
 41
15.0
 42
15.0
 43
15.0
 50
90.0
  0
INSERT
  5
299
330
249
100
AcDbEntity
  8
1
100
AcDbBlockReference
  2
ARROW
 10
744.065
 20
787.11
 30
0.0
 41
15.0
 42
15.0
 43
15.0
 50
-90.00000000000001
  0
TEXT
  5
29B
330
249
100
AcDbEntity
  8
3
100
AcDbText
 10
758.2850000000001
 20
820.38
 30
0.0
 40
42.675000000000004
  1
50
  7
SIMPLEX
 11
758.2850000000001
 21
820.38
 31
0.0
100
AcDbText
  0
TEXT
  5
29C
330
249
100
AcDbEntity
  8
3
100
AcDbText
 10
758.2850000000001
 20
915.63
 30
0.0
 40
42.675000000000004
  1
100
  7
SIMPLEX
 11
758.2850000000001
 21
915.63
 31
0.0
100
AcDbText
  0
LINE
  5
29D
330
249
100
AcDbEntity
  8
3
100
AcDbLine
 10
477.365
 20
939.51
 30
0.0
 11
324.965
 21
939.51
 31
0.0
  0
INSERT
  5
29E
330
249
100
AcDbEntity
  8
3
100
AcDbBlockReference
  2
ARROWP
 10
477.365
 20
939.51
 30
0.0
 41
15.0
 42
15.0
 43
15.0
  0
TEXT
  5
2A0
330
249
100
AcDbEntity
  8
1
100
AcDbText
 10
305.91499999999996
 20
950.94
 30
0.0
 40
42.675000000000004
  1
CLF4
  7
SIMPLEX
 11
305.91499999999996
 21
950.94
 31
0.0
100
AcDbText
  0
TEXT
  5
2A1
330
249
100
AcDbEntity
  8
21
100
AcDbText
 10
219.05
 20
875.505
 30
0.0
 40
42.675000000000004
  1
D=14
  7
SIMPLEX
 11
219.05
 21
875.505
 31
0.0
100
AcDbText
  0
INSERT
  5
2A2
330
249
100
AcDbEntity
  8
4
100
AcDbBlockReference
  2
ARROWP
 10
710.54
 20
346.68
 30
0.0
 41
22.5
 42
22.5
 43
22.5
 50
135.0
  0
LINE
  5
2A4
330
249
100
AcDbEntity
  8
4
100
AcDbLine
 10
710.54
 20
346.68
 30
0.0
 11
787.34
 21
269.865
 31
0.0
  0
LINE
  5
2A5
330
249
100
AcDbEntity
  8
4
100
AcDbLine
 10
787.34
 20
269.865
 30
0.0
 11
1068.98
 21
269.865
 31
0.0
  0
TEXT
  5
2A6
330
249
100
AcDbEntity
  8
5
100
AcDbText
 10
830.015
 20
284.085
 30
0.0
 40
42.675000000000004
  1
4
  7
SIMPLEX
 11
830.015
 21
284.085
 31
0.0
100
AcDbText
  0
LINE
  5
2A7
330
249
100
AcDbEntity
  8
4
100
AcDbLine
 10
1068.98
 20
269.865
 30
0.0
 11
1081.79
 21
269.865
 31
0.0
  0
LINE
  5
2A8
330
249
100
AcDbEntity
  8
4
100
AcDbLine
 10
1081.79
 20
269.865
 30
0.0
 11
1132.9850000000001
 21
299.73
 31
0.0
  0
LINE
  5
2A9
330
249
100
AcDbEntity
  8
4
100
AcDbLine
 10
1081.79
 20
269.865
 30
0.0
 11
1132.9850000000001
 21
239.99999999999997
 31
0.0
  0
TEXT
  5
2AA
330
249
100
AcDbEntity
  8
4
100
AcDbText
 10
1122.32
 20
188.535
 30
0.0
 40
42.675000000000004
  1
Clips
  7
SIMPLEX
 11
1122.32
 21
248.535
 31
0.0
100
AcDbText
  0
LINE
  5
2AB
330
249
100
AcDbEntity
  8
4
100
AcDbLine
 10
1015.64
 20
312.53999999999996
 30
0.0
 11
1058.315
 21
269.865
 31
0.0
  0
LINE
  5
2AC
330
249
100
AcDbEntity
  8
4
100
AcDbLine
 10
1015.64
 20
269.865
 30
0.0
 11
1015.64
 21
312.53999999999996
 31
0.0
  0
MTEXT
  5
2AD
330
249
100
AcDbEntity
  8
0
100
AcDbMText
 10
725.1724999999999
 20
139.99999999999997
 30
0.0
 40
40.0
 71
5
  1
ASMSECTN\P(SCALE 1:15)
  0
ENDBLK
  5
24B
330
249
100
AcDbEntity
  8
0
100
AcDbBlockEnd
  0
BLOCK
  5
2AF
330
2AE
100
AcDbEntity
  8
0
100
AcDbBlockBegin
  2
Title_Block
 70
0
 10
0.0
 20
0.0
 30
0.0
  3
Title_Block
  1

  0
LWPOLYLINE
  5
2B1
330
2AE
100
AcDbEntity
  8
0
100
AcDbPolyline
 90
4
 70
1
 10
-6000.0
 20
700.0
 10
-5700.0
 20
700.0
 10
-5700.0
 20
560.0
 10
-6000.0
 20
560.0
  0
LWPOLYLINE
  5
2B2
330
2AE
100
AcDbEntity
  8
0
100
AcDbPolyline
 90
4
 70
1
 10
-6000.0
 20
560.0
 10
-5700.0
 20
560.0
 10
-5700.0
 20
420.0
 10
-6000.0
 20
420.0
  0
LWPOLYLINE
  5
2B3
330
2AE
100
AcDbEntity
  8
0
100
AcDbPolyline
 90
4
 70
1
 10
-6000.0
 20
420.0
 10
-5700.0
 20
420.0
 10
-5700.0
 20
280.0
 10
-6000.0
 20
280.0
  0
LWPOLYLINE
  5
2B4
330
2AE
100
AcDbEntity
  8
0
100
AcDbPolyline
 90
4
 70
1
 10
-6000.0
 20
280.0
 10
-5700.0
 20
280.0
 10
-5700.0
 20
140.0
 10
-6000.0
 20
140.0
  0
LWPOLYLINE
  5
2B5
330
2AE
100
AcDbEntity
  8
0
100
AcDbPolyline
 90
4
 70
1
 10
-6000.0
 20
140.0
 10
-5700.0
 20
140.0
 10
-5700.0
 20
0.0
 10
-6000.0
 20
0.0
  0
LWPOLYLINE
  5
2B6
330
2AE
100
AcDbEntity
  8
0
100
AcDbPolyline
 90
4
 70
1
 10
-5700.0
 20
700.0
 10
-5250.0
 20
700.0
 10
-5250.0
 20
560.0
 10
-5700.0
 20
560.0
  0
LWPOLYLINE
  5
2B7
330
2AE
100
AcDbEntity
  8
0
100
AcDbPolyline
 90
4
 70
1
 10
-5700.0
 20
560.0
 10
-5250.0
 20
560.0
 10
-5250.0
 20
420.0
 10
-5700.0
 20
420.0
  0
LWPOLYLINE
  5
2B8
330
2AE
100
AcDbEntity
  8
0
100
AcDbPolyline
 90
4
 70
1
 10
-5700.0
 20
420.0
 10
-5250.0
 20
420.0
 10
-5250.0
 20
280.0
 10
-5700.0
 20
280.0
  0
LWPOLYLINE
  5
2B9
330
2AE
100
AcDbEntity
  8
0
100
AcDbPolyline
 90
4
 70
1
 10
-5700.0
 20
280.0
 10
-5250.0
 20
280.0
 10
-5250.0
 20
140.0
 10
-5700.0
 20
140.0
  0
LWPOLYLINE
  5
2BA
330
2AE
100
AcDbEntity
  8
0
100
AcDbPolyline
 90
4
 70
1
 10
-5700.0
 20
140.0
 10
-5250.0
 20
140.0
 10
-5250.0
 20
0.0
 10
-5700.0
 20
0.0
  0
LWPOLYLINE
  5
2BB
330
2AE
100
AcDbEntity
  8
0
100
AcDbPolyline
 90
4
 70
1
 10
-5250.0
 20
700.0
 10
-4350.0
 20
700.0
 10
-4350.0
 20
560.0
 10
-5250.0
 20
560.0
  0
LWPOLYLINE
  5
2BC
330
2AE
100
AcDbEntity
  8
0
100
AcDbPolyline
 90
4
 70
1
 10
-5250.0
 20
560.0
 10
-4350.0
 20
560.0
 10
-4350.0
 20
420.0
 10
-5250.0
 20
420.0
  0
LWPOLYLINE
  5
2BD
330
2AE
100
AcDbEntity
  8
0
100
AcDbPolyline
 90
4
 70
1
 10
-5250.0
 20
420.0
 10
-4350.0
 20
420.0
 10
-4350.0
 20
280.0
 10
-5250.0
 20
280.0
  0
LWPOLYLINE
  5
2BE
330
2AE
100
AcDbEntity
  8
0
100
AcDbPolyline
 90
4
 70
1
 10
-5250.0
 20
280.0
 10
-4350.0
 20
280.0
 10
-4350.0
 20
140.0
 10
-5250.0
 20
140.0
  0
LWPOLYLINE
  5
2BF
330
2AE
100
AcDbEntity
  8
0
100
AcDbPolyline
 90
4
 70
1
 10
-5250.0
 20
140.0
 10
-4350.0
 20
140.0
 10
-4350.0
 20
0.0
 10
-5250.0
 20
0.0
  0
LWPOLYLINE
  5
2C0
330
2AE
100
AcDbEntity
  8
0
100
AcDbPolyline
 90
4
 70
1
 10
-4350.0
 20
700.0
 10
-4050.0
 20
700.0
 10
-4050.0
 20
560.0
 10
-4350.0
 20
560.0
  0
LWPOLYLINE
  5
2C1
330
2AE
100
AcDbEntity
  8
0
100
AcDbPolyline
 90
4
 70
1
 10
-4350.0
 20
560.0
 10
-4050.0
 20
560.0
 10
-4050.0
 20
420.0
 10
-4350.0
 20
420.0
  0
LWPOLYLINE
  5
2C2
330
2AE
100
AcDbEntity
  8
0
100
AcDbPolyline
 90
4
 70
1
 10
-4350.0
 20
420.0
 10
-4050.0
 20
420.0
 10
-4050.0
 20
280.0
 10
-4350.0
 20
280.0
  0
LWPOLYLINE
  5
2C3
330
2AE
100
AcDbEntity
  8
0
100
AcDbPolyline
 90
4
 70
1
 10
-4350.0
 20
280.0
 10
-4050.0
 20
280.0
 10
-4050.0
 20
140.0
 10
-4350.0
 20
140.0
  0
LWPOLYLINE
  5
2C4
330
2AE
100
AcDbEntity
  8
0
100
AcDbPolyline
 90
4
 70
1
 10
-4350.0
 20
140.0
 10
-4050.0
 20
140.0
 10
-4050.0
 20
0.0
 10
-4350.0
 20
0.0
  0
LWPOLYLINE
  5
2C5
330
2AE
100
AcDbEntity
  8
0
100
AcDbPolyline
 90
4
 70
1
 10
-4050.0
 20
700.0
 10
-3750.0
 20
700.0
 10
-3750.0
 20
560.0
 10
-4050.0
 20
560.0
  0
LWPOLYLINE
  5
2C6
330
2AE
100
AcDbEntity
  8
0
100
AcDbPolyline
 90
4
 70
1
 10
-4050.0
 20
560.0
 10
-3750.0
 20
560.0
 10
-3750.0
 20
420.0
 10
-4050.0
 20
420.0
  0
LWPOLYLINE
  5
2C7
330
2AE
100
AcDbEntity
  8
0
100
AcDbPolyline
 90
4
 70
1
 10
-4050.0
 20
420.0
 10
-3750.0
 20
420.0
 10
-3750.0
 20
280.0
 10
-4050.0
 20
280.0
  0
LWPOLYLINE
  5
2C8
330
2AE
100
AcDbEntity
  8
0
100
AcDbPolyline
 90
4
 70
1
 10
-4050.0
 20
280.0
 10
-3750.0
 20
280.0
 10
-3750.0
 20
140.0
 10
-4050.0
 20
140.0
  0
LWPOLYLINE
  5
2C9
330
2AE
100
AcDbEntity
  8
0
100
AcDbPolyline
 90
4
 70
1
 10
-4050.0
 20
140.0
 10
-3750.0
 20
140.0
 10
-3750.0
 20
0.0
 10
-4050.0
 20
0.0
  0
TEXT
  5
2CA
330
2AE
100
AcDbEntity
  8
0
100
AcDbText
 10
-5850.0
 20
70.0
 30
0.0
 40
60.0
  1
Rev.
 72
1
 11
-5850.0
 21
70.0
 31
0.0
100
AcDbText
 73
2
  0
TEXT
  5
2CB
330
2AE
100
AcDbEntity
  8
0
100
AcDbText
 10
-5475.0
 20
70.0
 30
0.0
 40
60.0
  1
Date
 72
1
 11
-5475.0
 21
70.0
 31
0.0
100
AcDbText
 73
2
  0
TEXT
  5
2CC
330
2AE
100
AcDbEntity
  8
0
100
AcDbText
 10
-4800.0
 20
70.0
 30
0.0
 40
60.0
  1
Description
 72
1
 11
-4800.0
 21
70.0
 31
0.0
100
AcDbText
 73
2
  0
TEXT
  5
2CD
330
2AE
100
AcDbEntity
  8
0
100
AcDbText
 10
-4200.0
 20
70.0
 30
0.0
 40
60.0
  1
Drw.
 72
1
 11
-4200.0
 21
70.0
 31
0.0
100
AcDbText
 73
2
  0
TEXT
  5
2CE
330
2AE
100
AcDbEntity
  8
0
100
AcDbText
 10
-3900.0
 20
70.0
 30
0.0
 40
60.0
  1
Chk.
 72
1
 11
-3900.0
 21
70.0
 31
0.0
100
AcDbText
 73
2
  0
LWPOLYLINE
  5
2CF
330
2AE
100
AcDbEntity
  8
0
100
AcDbPolyline
 90
4
 70
1
 10
-3750.0
 20
700.0
 10
-3000.0
 20
700.0
 10
-3000.0
 20
0.0
 10
-3750.0
 20
0.0
  0
IMAGE
  5
2D3
330
2AE
100
AcDbEntity
  8
0
100
AcDbRasterImage
 90
0
 10
-3674.2
 20
105.00000000000003
 30
0.0
 11
2.6131004366812225
 21
0.0
 31
0.0
 12
1.0870958905474692e-16
 22
1.7753623188405796
 32
0.0
 13
229.0
 23
276.0
340
2D2
 70
3
280
0
281
50
282
50
283
0
360
2D4
 71
1
 91
2
 14
-0.5
 24
-0.5
 14
228.5
 24
275.5
290
0
  0
LWPOLYLINE
  5
2D5
330
2AE
100
AcDbEntity
  8
0
100
AcDbPolyline
 90
4
 70
1
 10
-3000.0
 20
700.0
 10
0.0
 20
700.0
 10
0.0
 20
560.0
 10
-3000.0
 20
560.0
  0
TEXT
  5
2D6
330
2AE
100
AcDbEntity
  8
0
100
AcDbText
 10
-2996.0
 20
630.0
 30
0.0
 40
60.0
  1
 Project : CHECKED BY
 11
-2996.0
 21
630.0
 31
0.0
100
AcDbText
 73
2
  0
LWPOLYLINE
  5
2D7
330
2AE
100
AcDbEntity
  8
0
100
AcDbPolyline
 90
4
 70
1
 10
-3000.0
 20
560.0
 10
0.0
 20
560.0
 10
0.0
 20
420.0
 10
-3000.0
 20
420.0
  0
TEXT
  5
2D8
330
2AE
100
AcDbEntity
  8
0
100
AcDbText
 10
-2996.0
 20
490.0
 30
0.0
 40
60.0
  1
 NAME    : RF2-2
 11
-2996.0
 21
490.0
 31
0.0
100
AcDbText
 73
2
  0
LWPOLYLINE
  5
2D9
330
2AE
100
AcDbEntity
  8
0
100
AcDbPolyline
 90
4
 70
1
 10
-3000.0
 20
420.0
 10
-1200.0
 20
420.0
 10
-1200.0
 20
280.0
 10
-3000.0
 20
280.0
  0
TEXT
  5
2DA
330
2AE
100
AcDbEntity
  8
0
100
AcDbText
 10
-2996.0
 20
350.0
 30
0.0
 40
60.0
  1
 Job     : C163-127
 11
-2996.0
 21
350.0
 31
0.0
100
AcDbText
 73
2
  0
LWPOLYLINE
  5
2DB
330
2AE
100
AcDbEntity
  8
0
100
AcDbPolyline
 90
4
 70
1
 10
-1200.0
 20
420.0
 10
0.0
 20
420.0
 10
0.0
 20
280.0
 10
-1200.0
 20
280.0
  0
TEXT
  5
2DC
330
2AE
100
AcDbEntity
  8
0
100
AcDbText
 10
-1196.0
 20
350.0
 30
0.0
 40
60.0
  1
 Bldg.No.: Assembly
 11
-1196.0
 21
350.0
 31
0.0
100
AcDbText
 73
2
  0
LWPOLYLINE
  5
2DD
330
2AE
100
AcDbEntity
  8
0
100
AcDbPolyline
 90
4
 70
1
 10
-3000.0
 20
280.0
 10
-2000.0
 20
280.0
 10
-2000.0
 20
140.0
 10
-3000.0
 20
140.0
  0
TEXT
  5
2DE
330
2AE
100
AcDbEntity
  8
0
100
AcDbText
 10
-2996.0
 20
210.0
 30
0.0
 40
60.0
  1
 Qnt: 4
 11
-2996.0
 21
210.0
 31
0.0
100
AcDbText
 73
2
  0
LWPOLYLINE
  5
2DF
330
2AE
100
AcDbEntity
  8
0
100
AcDbPolyline
 90
4
 70
1
 10
-2000.0
 20
280.0
 10
-1000.0
 20
280.0
 10
-1000.0
 20
140.0
 10
-2000.0
 20
140.0
  0
TEXT
  5
2E0
330
2AE
100
AcDbEntity
  8
0
100
AcDbText
 10
-1996.0
 20
210.0
 30
0.0
 40
60.0
  1
 Mark: RF2-2
 11
-1996.0
 21
210.0
 31
0.0
100
AcDbText
 73
2
  0
LWPOLYLINE
  5
2E1
330
2AE
100
AcDbEntity
  8
0
100
AcDbPolyline
 90
4
 70
1
 10
-1000.0
 20
280.0
 10
0.0
 20
280.0
 10
0.0
 20
140.0
 10
-1000.0
 20
140.0
  0
TEXT
  5
2E2
330
2AE
100
AcDbEntity
  8
0
100
AcDbText
 10
-996.0
 20
210.0
 30
0.0
 40
60.0
  1
 Length: 6104
 11
-996.0
 21
210.0
 31
0.0
100
AcDbText
 73
2
  0
LWPOLYLINE
  5
2E3
330
2AE
100
AcDbEntity
  8
0
100
AcDbPolyline
 90
4
 70
1
 10
-3000.0
 20
140.0
 10
-2000.0
 20
140.0
 10
-2000.0
 20
0.0
 10
-3000.0
 20
0.0
  0
TEXT
  5
2E4
330
2AE
100
AcDbEntity
  8
0
100
AcDbText
 10
-2996.0
 20
70.0
 30
0.0
 40
60.0
  1
 WEIGHT: 164.38
 11
-2996.0
 21
70.0
 31
0.0
100
AcDbText
 73
2
  0
LWPOLYLINE
  5
2E5
330
2AE
100
AcDbEntity
  8
0
100
AcDbPolyline
 90
4
 70
1
 10
-2000.0
 20
140.0
 10
-1000.0
 20
140.0
 10
-1000.0
 20
0.0
 10
-2000.0
 20
0.0
  0
TEXT
  5
2E6
330
2AE
100
AcDbEntity
  8
0
100
AcDbText
 10
-1996.0
 20
70.0
 30
0.0
 40
60.0
  1
 Part: NEW
 11
-1996.0
 21
70.0
 31
0.0
100
AcDbText
 73
2
  0
LWPOLYLINE
  5
2E7
330
2AE
100
AcDbEntity
  8
0
100
AcDbPolyline
 90
4
 70
1
 10
-1000.0
 20
140.0
 10
0.0
 20
140.0
 10
0.0
 20
0.0
 10
-1000.0
 20
0.0
  0
TEXT
  5
2E8
330
2AE
100
AcDbEntity
  8
0
100
AcDbText
 10
-996.0
 20
70.0
 30
0.0
 40
60.0
  1
 Fin: Red Oxide
 11
-996.0
 21
70.0
 31
0.0
100
AcDbText
 73
2
  0
ENDBLK
  5
2B0
330
2AE
100
AcDbEntity
  8
0
100
AcDbBlockEnd
  0
BLOCK
  5
2EB
330
2EA
100
AcDbEntity
  8
2
100
AcDbBlockBegin
  2
WB2
 70
0
 10
0.0
 20
0.0
 30
0.0
  3
WB2
  1

  0
CIRCLE
  5
2ED
330
2EA
100
AcDbEntity
  8
5
  6
CONTINUOUS
100
AcDbCircle
 10
434.86113
 20
440.24904000000004
 30
0.0
 40
0.05
  0
LINE
  5
2EE
330
2EA
100
AcDbEntity
  8
5
  6
CONTINUOUS
100
AcDbLine
 10
434.81113
 20
440.24904000000004
 30
0.0
 11
434.91113
 21
440.24904000000004
 31
0.0
  0
LINE
  5
2EF
330
2EA
100
AcDbEntity
  8
5
  6
CONTINUOUS
100
AcDbLine
 10
434.86113
 20
440.19903999999997
 30
0.0
 11
434.86113
 21
440.29904
 31
0.0
  0
TEXT
  5
2F0
330
2EA
100
AcDbEntity
  8
5
100
AcDbText
 10
434.86113
 20
240.24904000000004
 30
0.0
 40
0.0075
  1
ZERO
 11
434.86113
 21
440.24904000000004
 31
0.0
100
AcDbText
  0
LINE
  5
2F1
330
2EA
100
AcDbEntity
  8
3
  6
CONTINUOUS
100
AcDbLine
 10
434.86113
 20
440.24904000000004
 30
0.0
 11
449.8605225
 21
290.2549
 31
0.0
  0
LINE
  5
2F2
330
2EA
100
AcDbEntity
  8
3
  6
CONTINUOUS
100
AcDbLine
 10
449.8605225
 20
290.2549
 30
0.0
 11
3141.2175800000005
 21
240.00001500000002
 31
0.0
  0
LINE
  5
2F3
330
2EA
100
AcDbEntity
  8
3
  6
CONTINUOUS
100
AcDbLine
 10
3141.2175800000005
 20
240.00001500000002
 30
0.0
 11
3391.4695300000003
 21
265.025405
 31
0.0
  0
LINE
  5
2F4
330
2EA
100
AcDbEntity
  8
3
  6
CONTINUOUS
100
AcDbLine
 10
3391.4695300000003
 20
265.025405
 30
0.0
 11
3373.94733
 21
440.24904000000004
 31
0.0
  0
LINE
  5
2F5
330
2EA
100
AcDbEntity
  8
3
  6
CONTINUOUS
100
AcDbLine
 10
3373.94733
 20
440.24904000000004
 30
0.0
 11
434.86113
 21
440.24904000000004
 31
0.0
  0
LINE
  5
2F6
330
2EA
100
AcDbEntity
  8
4
  6
CONTINUOUS
100
AcDbLine
 10
533.3211289999999
 20
408.74904000000004
 30
0.0
 11
520.3211289999999
 21
408.74904000000004
 31
0.0
  0
LINE
  5
2F7
330
2EA
100
AcDbEntity
  8
4
  6
CONTINUOUS
100
AcDbLine
 10
533.3211289999999
 20
396.74904000000004
 30
0.0
 11
520.3211289999999
 21
396.74904000000004
 31
0.0
  0
ARC
  5
2F8
330
2EA
100
AcDbEntity
  8
4
  6
CONTINUOUS
100
AcDbCircle
 10
533.3211289999999
 20
402.74904000000004
 30
0.0
 40
6.0
100
AcDbArc
 50
-90.0
 51
90.0
  0
ARC
  5
2F9
330
2EA
100
AcDbEntity
  8
4
  6
CONTINUOUS
100
AcDbCircle
 10
520.3211289999999
 20
402.74904000000004
 30
0.0
 40
6.0
100
AcDbArc
 50
90.0
 51
-90.0
  0
LINE
  5
2FA
330
2EA
100
AcDbEntity
  8
4
  6
CONTINUOUS
100
AcDbLine
 10
3292.94707
 20
408.74904000000004
 30
0.0
 11
3279.94707
 21
408.74904000000004
 31
0.0
  0
LINE
  5
2FB
330
2EA
100
AcDbEntity
  8
4
  6
CONTINUOUS
100
AcDbLine
 10
3292.94707
 20
396.74904000000004
 30
0.0
 11
3279.94707
 21
396.74904000000004
 31
0.0
  0
ARC
  5
2FC
330
2EA
100
AcDbEntity
  8
4
  6
CONTINUOUS
100
AcDbCircle
 10
3292.94707
 20
402.74904000000004
 30
0.0
 40
6.0
100
AcDbArc
 50
-90.0
 51
90.0
  0
ARC
  5
2FD
330
2EA
100
AcDbEntity
  8
4
  6
CONTINUOUS
100
AcDbCircle
 10
3279.94707
 20
402.74904000000004
 30
0.0
 40
6.0
100
AcDbArc
 50
90.0
 51
-90.0
  0
LINE
  5
2FE
330
2EA
100
AcDbEntity
  8
4
  6
CONTINUOUS
100
AcDbLine
 10
3355.68833
 20
306.267308
 30
0.0
 11
3354.3947900000003
 21
319.2027925
 31
0.0
  0
LINE
  5
2FF
330
2EA
100
AcDbEntity
  8
4
  6
CONTINUOUS
100
AcDbLine
 10
3343.74788
 20
305.07327250000003
 30
0.0
 11
3342.4543400000002
 21
318.008757
 31
0.0
  0
ARC
  5
300
330
2EA
100
AcDbEntity
  8
4
  6
CONTINUOUS
100
AcDbCircle
 10
3349.718105
 20
305.67029
 30
0.0
 40
6.0
100
AcDbArc
 50
-174.289452
 51
5.710547999999998
  0
ARC
  5
301
330
2EA
100
AcDbEntity
  8
4
  6
CONTINUOUS
100
AcDbCircle
 10
3348.4245650000003
 20
318.6057745
 30
0.0
 40
6.0
100
AcDbArc
 50
5.710547999999998
 51
-174.289452
  0
LINE
  5
302
330
2EA
100
AcDbEntity
  8
6
  6
CONTINUOUS
100
AcDbLine
 10
434.86113
 20
459.959764
 30
0.0
 11
434.86113
 21
583.15178
 31
0.0
  0
LINE
  5
303
330
2EA
100
AcDbEntity
  8
6
  6
CONTINUOUS
100
AcDbLine
 10
3391.4695300000003
 20
459.959764
 30
0.0
 11
3391.4695300000003
 21
583.15178
 31
0.0
  0
LINE
  5
304
330
2EA
100
AcDbEntity
  8
6
  6
CONTINUOUS
100
AcDbLine
 10
434.86113
 20
583.126785
 30
0.0
 11
3391.4695300000003
 21
583.126785
 31
0.0
  0
INSERT
  5
305
330
2EA
100
AcDbEntity
  8
6
100
AcDbBlockReference
  2
ARROW
 10
434.86113
 20
583.126785
 30
0.0
 41
13.140481
 42
13.140481
 43
26.280962
 50
180.0
  0
INSERT
  5
307
330
2EA
100
AcDbEntity
  8
6
100
AcDbBlockReference
  2
ARROW
 10
3391.4695300000003
 20
583.126785
 30
0.0
 41
13.140481
 42
13.140481
 43
26.280962
  0
TEXT
  5
309
330
2EA
100
AcDbEntity
  8
6
100
AcDbText
 10
1863.88848
 20
596.267275
 30
0.0
 40
40.0
  1
5913
 11
1863.88848
 21
596.267275
 31
0.0
100
AcDbText
  0
LINE
  5
30A
330
2EA
100
AcDbEntity
  8
6
  6
CONTINUOUS
100
AcDbLine
 10
415.150406
 20
240.00001500000002
 30
0.0
 11
213.115495
 21
240.00003
 31
0.0
  0
LINE
  5
30B
330
2EA
100
AcDbEntity
  8
6
  6
CONTINUOUS
100
AcDbLine
 10
415.1504215
 20
440.2490415
 30
0.0
 11
213.11551
 21
440.2490565
 31
0.0
  0
LINE
  5
30C
330
2EA
100
AcDbEntity
  8
6
  6
CONTINUOUS
100
AcDbLine
 10
213.14049
 20
240.00003
 30
0.0
 11
213.140505
 21
440.2490565
 31
0.0
  0
INSERT
  5
30D
330
2EA
100
AcDbEntity
  8
6
100
AcDbBlockReference
  2
ARROW
 10
213.14049
 20
240.00003
 30
0.0
 41
13.140481
 42
13.140481
 43
26.280962
 50
-90.00000000000001
  0
INSERT
  5
30F
330
2EA
100
AcDbEntity
  8
6
100
AcDbBlockReference
  2
ARROW
 10
213.140505
 20
440.2490565
 30
0.0
 41
13.140481
 42
13.140481
 43
26.280962
 50
90.0
  0
TEXT
  5
311
330
2EA
100
AcDbEntity
  8
6
100
AcDbText
 10
200.0
 20
300.703095
 30
0.0
 40
40.0
  1
400
 50
90.0
 11
200.0
 21
300.703095
 31
0.0
100
AcDbText
  0
LINE
  5
312
330
2EA
100
AcDbEntity
  8
6
  6
CONTINUOUS
100
AcDbLine
 10
415.150406
 20
290.2549
 30
0.0
 11
291.95839
 21
290.254915
 31
0.0
  0
LINE
  5
313
330
2EA
100
AcDbEntity
  8
6
  6
CONTINUOUS
100
AcDbLine
 10
415.1504175
 20
440.2490415
 30
0.0
 11
291.95839
 21
440.249051
 31
0.0
  0
LINE
  5
314
330
2EA
100
AcDbEntity
  8
6
  6
CONTINUOUS
100
AcDbLine
 10
291.983385
 20
290.254915
 30
0.0
 11
291.983385
 21
440.249051
 31
0.0
  0
INSERT
  5
315
330
2EA
100
AcDbEntity
  8
6
100
AcDbBlockReference
  2
ARROW
 10
291.983385
 20
290.254915
 30
0.0
 41
13.140481
 42
13.140481
 43
26.280962
 50
-90.00000000000001
  0
INSERT
  5
317
330
2EA
100
AcDbEntity
  8
6
100
AcDbBlockReference
  2
ARROW
 10
291.983385
 20
440.249051
 30
0.0
 41
13.140481
 42
13.140481
 43
26.280962
 50
90.0
  0
TEXT
  5
319
330
2EA
100
AcDbEntity
  8
6
100
AcDbText
 10
278.842895
 20
325.830535
 30
0.0
 40
40.0
  1
300
 50
90.0
 11
278.842895
 21
325.830535
 31
0.0
100
AcDbText
  0
LINE
  5
31A
330
2EA
100
AcDbEntity
  8
6
  6
CONTINUOUS
100
AcDbLine
 10
3411.18023
 20
240.00001500000002
 30
0.0
 11
3534.37238
 21
240.0
 31
0.0
  0
LINE
  5
31B
330
2EA
100
AcDbEntity
  8
6
  6
CONTINUOUS
100
AcDbLine
 10
3411.18023
 20
440.2490385
 30
0.0
 11
3534.37238
 21
440.249029
 31
0.0
  0
LINE
  5
31C
330
2EA
100
AcDbEntity
  8
6
  6
CONTINUOUS
100
AcDbLine
 10
3534.3474800000004
 20
240.0
 30
0.0
 11
3534.3474800000004
 21
440.249029
 31
0.0
  0
INSERT
  5
31D
330
2EA
100
AcDbEntity
  8
6
100
AcDbBlockReference
  2
ARROW
 10
3534.3474800000004
 20
240.0
 30
0.0
 41
13.140481
 42
13.140481
 43
26.280962
 50
-90.00000000000001
  0
INSERT
  5
31F
330
2EA
100
AcDbEntity
  8
6
100
AcDbBlockReference
  2
ARROW
 10
3534.3474800000004
 20
440.249029
 30
0.0
 41
13.140481
 42
13.140481
 43
26.280962
 50
90.0
  0
TEXT
  5
321
330
2EA
100
AcDbEntity
  8
6
100
AcDbText
 10
3521.20708
 20
300.70306500000004
 30
0.0
 40
40.0
  1
400
 50
90.0
 11
3521.20708
 21
300.70306500000004
 31
0.0
100
AcDbText
  0
MTEXT
  5
322
330
2EA
100
AcDbEntity
  8
0
100
AcDbMText
 10
1884.25644
 20
140.0
 30
0.0
 40
40.0
 71
5
  1
WB2\P(SCALE 2:1)
  0
ENDBLK
  5
2EC
330
2EA
100
AcDbEntity
  8
0
100
AcDbBlockEnd
  0
BLOCK
  5
324
330
323
100
AcDbEntity
  8
2
100
AcDbBlockBegin
  2
CLF1
 70
0
 10
0.0
 20
0.0
 30
0.0
  3
CLF1
  1

  0
CIRCLE
  5
326
330
323
100
AcDbEntity
  8
5
  6
CONTINUOUS
100
AcDbCircle
 10
317.99996
 20
867.5000400000001
 30
0.0
 40
1.5
  0
LINE
  5
327
330
323
100
AcDbEntity
  8
5
  6
CONTINUOUS
100
AcDbLine
 10
316.49996
 20
867.5000400000001
 30
0.0
 11
319.49996
 21
867.5000400000001
 31
0.0
  0
LINE
  5
328
330
323
100
AcDbEntity
  8
5
  6
CONTINUOUS
100
AcDbLine
 10
317.99996
 20
866.0000700000002
 30
0.0
 11
317.99996
 21
869.0000100000001
 31
0.0
  0
TEXT
  5
329
330
323
100
AcDbEntity
  8
5
100
AcDbText
 10
317.99996
 20
667.5000400000001
 30
0.0
 40
0.22499999999999998
  1
ZERO
 11
317.99996
 21
867.5000400000001
 31
0.0
100
AcDbText
  0
LINE
  5
32A
330
323
100
AcDbEntity
  8
3
  6
CONTINUOUS
100
AcDbLine
 10
317.99996
 20
1430.0000400000001
 30
0.0
 11
317.99996
 21
305.0000400000001
 31
0.0
  0
LINE
  5
32B
330
323
100
AcDbEntity
  8
3
  6
CONTINUOUS
100
AcDbLine
 10
317.99996
 20
305.0000400000001
 30
0.0
 11
1442.99996
 21
305.0000400000001
 31
0.0
  0
LINE
  5
32C
330
323
100
AcDbEntity
  8
3
  6
CONTINUOUS
100
AcDbLine
 10
1442.99996
 20
305.0000400000001
 30
0.0
 11
1442.99996
 21
1205.0000400000001
 31
0.0
  0
LINE
  5
32D
330
323
100
AcDbEntity
  8
3
  6
CONTINUOUS
100
AcDbLine
 10
1442.99996
 20
1205.0000400000001
 30
0.0
 11
1217.99996
 21
1430.0000400000001
 31
0.0
  0
LINE
  5
32E
330
323
100
AcDbEntity
  8
3
  6
CONTINUOUS
100
AcDbLine
 10
1217.99996
 20
1430.0000400000001
 30
0.0
 11
317.99996
 21
1430.0000400000001
 31
0.0
  0
CIRCLE
  5
32F
330
323
100
AcDbEntity
  8
4
  6
CONTINUOUS
100
AcDbCircle
 10
692.99996
 20
680.0000400000001
 30
0.0
 40
105.0
  0
LINE
  5
330
330
323
100
AcDbEntity
  8
6
  6
CONTINUOUS
100
AcDbLine
 10
302.99996
 20
305.0000400000001
 30
0.0
 11
209.24996
 21
305.0000400000001
 31
0.0
  0
LINE
  5
331
330
323
100
AcDbEntity
  8
6
  6
CONTINUOUS
100
AcDbLine
 10
303.00005
 20
1430.0000400000001
 30
0.0
 11
209.250035
 21
1430.0000550000002
 31
0.0
  0
LINE
  5
332
330
323
100
AcDbEntity
  8
6
  6
CONTINUOUS
100
AcDbLine
 10
209.99996
 20
305.0000400000001
 30
0.0
 11
210.000035
 21
1430.0000550000002
 31
0.0
  0
INSERT
  5
333
330
323
100
AcDbEntity
  8
6
100
AcDbBlockReference
  2
ARROW
 10
209.99996
 20
305.0000400000001
 30
0.0
 41
10.000005
 42
10.000005
 43
0.666667
 50
-90.00000000000001
  0
INSERT
  5
335
330
323
100
AcDbEntity
  8
6
100
AcDbBlockReference
  2
ARROW
 10
210.000035
 20
1430.0000550000002
 30
0.0
 41
10.000005
 42
10.000005
 43
0.666667
 50
90.0
  0
TEXT
  5
337
330
323
100
AcDbEntity
  8
6
100
AcDbText
 10
200.0
 20
847.5000600000002
 30
0.0
 40
40.0
  1
75
 50
90.0
 11
200.0
 21
847.5000600000002
 31
0.0
100
AcDbText
  0
LINE
  5
338
330
323
100
AcDbEntity
  8
6
  6
CONTINUOUS
100
AcDbLine
 10
317.99996
 20
1445.0000400000001
 30
0.0
 11
317.99996
 21
1538.7500400000001
 31
0.0
  0
LINE
  5
339
330
323
100
AcDbEntity
  8
6
  6
CONTINUOUS
100
AcDbLine
 10
1442.99996
 20
1445.0000400000001
 30
0.0
 11
1442.99996
 21
1538.7500400000001
 31
0.0
  0
LINE
  5
33A
330
323
100
AcDbEntity
  8
6
  6
CONTINUOUS
100
AcDbLine
 10
317.99996
 20
1538.0000400000001
 30
0.0
 11
1442.99996
 21
1538.0000400000001
 31
0.0
  0
INSERT
  5
33B
330
323
100
AcDbEntity
  8
6
100
AcDbBlockReference
  2
ARROW
 10
317.99996
 20
1538.0000400000001
 30
0.0
 41
10.000005
 42
10.000005
 43
0.666667
 50
180.0
  0
INSERT
  5
33D
330
323
100
AcDbEntity
  8
6
100
AcDbBlockReference
  2
ARROW
 10
1442.99996
 20
1538.0000400000001
 30
0.0
 41
10.000005
 42
10.000005
 43
0.666667
  0
TEXT
  5
33F
330
323
100
AcDbEntity
  8
6
100
AcDbText
 10
860.49998
 20
1548.0000450000002
 30
0.0
 40
40.0
  1
75
 11
860.49998
 21
1548.0000450000002
 31
0.0
100
AcDbText
  0
LINE
  5
340
330
323
100
AcDbEntity
  8
6
  6
CONTINUOUS
100
AcDbLine
 10
1457.99996
 20
680.0000400000001
 30
0.0
 11
1551.74996
 21
680.0000400000001
 31
0.0
  0
LINE
  5
341
330
323
100
AcDbEntity
  8
6
  6
CONTINUOUS
100
AcDbLine
 10
1457.99996
 20
1430.0000400000001
 30
0.0
 11
1551.74996
 21
1430.000025
 31
0.0
  0
LINE
  5
342
330
323
100
AcDbEntity
  8
6
  6
CONTINUOUS
100
AcDbLine
 10
1550.999915
 20
680.0000400000001
 30
0.0
 11
1550.999915
 21
1430.000025
 31
0.0
  0
INSERT
  5
343
330
323
100
AcDbEntity
  8
6
100
AcDbBlockReference
  2
ARROW
 10
1550.999915
 20
680.0000400000001
 30
0.0
 41
10.000005
 42
10.000005
 43
0.666667
 50
-90.00000000000001
  0
INSERT
  5
345
330
323
100
AcDbEntity
  8
6
100
AcDbBlockReference
  2
ARROW
 10
1550.999915
 20
1430.000025
 30
0.0
 41
10.000005
 42
10.000005
 43
0.666667
 50
90.0
  0
TEXT
  5
347
330
323
100
AcDbEntity
  8
6
100
AcDbText
 10
1540.999955
 20
1035.0000300000002
 30
0.0
 40
40.0
  1
50
 50
90.0
 11
1540.999955
 21
1035.0000300000002
 31
0.0
100
AcDbText
  0
LINE
  5
348
330
323
100
AcDbEntity
  8
6
  6
CONTINUOUS
100
AcDbLine
 10
317.99996
 20
290.0000400000001
 30
0.0
 11
317.99996
 21
240.0
 31
0.0
  0
LINE
  5
349
330
323
100
AcDbEntity
  8
6
  6
CONTINUOUS
100
AcDbLine
 10
692.99996
 20
290.0000400000001
 30
0.0
 11
692.99996
 21
240.0
 31
0.0
  0
LINE
  5
34A
330
323
100
AcDbEntity
  8
6
  6
CONTINUOUS
100
AcDbLine
 10
317.99996
 20
240.75004500000023
 30
0.0
 11
692.99996
 21
240.75004500000023
 31
0.0
  0
INSERT
  5
34B
330
323
100
AcDbEntity
  8
6
100
AcDbBlockReference
  2
ARROW
 10
317.99996
 20
240.75004500000023
 30
0.0
 41
10.000005
 42
10.000005
 43
0.666667
 50
180.0
  0
INSERT
  5
34D
330
323
100
AcDbEntity
  8
6
100
AcDbBlockReference
  2
ARROW
 10
692.99996
 20
240.75004500000023
 30
0.0
 41
10.000005
 42
10.000005
 43
0.666667
  0
TEXT
  5
34F
330
323
100
AcDbEntity
  8
6
100
AcDbText
 10
485.49996500000003
 20
250.7500050000001
 30
0.0
 40
40.0
  1
25
 11
485.49996500000003
 21
250.7500050000001
 31
0.0
100
AcDbText
  0
TEXT
  5
350
330
323
100
AcDbEntity
  8
6
100
AcDbText
 10
692.99996
 20
1470.0000450000002
 30
0.0
 40
40.0
  1
DIA:14
 11
692.99996
 21
1470.0000450000002
 31
0.0
100
AcDbText
  0
MTEXT
  5
351
330
323
100
AcDbEntity
  8
0
100
AcDbMText
 10
882.4969775
 20
140.0
 30
0.0
 40
40.0
 71
5
  1
CLF1\P(SCALE 1:15)
  0
ENDBLK
  5
325
330
323
100
AcDbEntity
  8
0
100
AcDbBlockEnd
  0
BLOCK
  5
353
330
352
100
AcDbEntity
  8
2
100
AcDbBlockBegin
  2
ST4
 70
0
 10
0.0
 20
0.0
 30
0.0
  3
ST4
  1

  0
CIRCLE
  5
355
330
352
100
AcDbEntity
  8
5
  6
CONTINUOUS
100
AcDbCircle
 10
332.649993
 20
450.0
 30
0.0
 40
0.7000000000000001
  0
LINE
  5
356
330
352
100
AcDbEntity
  8
5
  6
CONTINUOUS
100
AcDbLine
 10
331.949993
 20
450.0
 30
0.0
 11
333.349993
 21
450.0
 31
0.0
  0
LINE
  5
357
330
352
100
AcDbEntity
  8
5
  6
CONTINUOUS
100
AcDbLine
 10
332.649993
 20
449.29999999999995
 30
0.0
 11
332.649993
 21
450.70000000000005
 31
0.0
  0
TEXT
  5
358
330
352
100
AcDbEntity
  8
5
100
AcDbText
 10
332.649993
 20
250.0
 30
0.0
 40
0.105
  1
ZERO
 11
332.649993
 21
450.0
 31
0.0
100
AcDbText
  0
LINE
  5
359
330
352
100
AcDbEntity
  8
3
  6
CONTINUOUS
100
AcDbLine
 10
332.649993
 20
660.0
 30
0.0
 11
332.649993
 21
240.0
 31
0.0
  0
LINE
  5
35A
330
352
100
AcDbEntity
  8
3
  6
CONTINUOUS
100
AcDbLine
 10
332.649993
 20
240.0
 30
0.0
 11
2852.649993
 21
240.0
 31
0.0
  0
LINE
  5
35B
330
352
100
AcDbEntity
  8
3
  6
CONTINUOUS
100
AcDbLine
 10
2852.649993
 20
240.0
 30
0.0
 11
2852.649993
 21
555.0
 31
0.0
  0
LINE
  5
35C
330
352
100
AcDbEntity
  8
3
  6
CONTINUOUS
100
AcDbLine
 10
2852.649993
 20
555.0
 30
0.0
 11
2747.649993
 21
660.0
 31
0.0
  0
LINE
  5
35D
330
352
100
AcDbEntity
  8
3
  6
CONTINUOUS
100
AcDbLine
 10
2747.649993
 20
660.0
 30
0.0
 11
332.649993
 21
660.0
 31
0.0
  0
LINE
  5
35E
330
352
100
AcDbEntity
  8
6
  6
CONTINUOUS
100
AcDbLine
 10
315.849993
 20
240.0
 30
0.0
 11
210.849993
 21
240.0
 31
0.0
  0
LINE
  5
35F
330
352
100
AcDbEntity
  8
6
  6
CONTINUOUS
100
AcDbLine
 10
315.85002099999997
 20
660.0
 30
0.0
 11
210.85002099999997
 21
660.000007
 31
0.0
  0
LINE
  5
360
330
352
100
AcDbEntity
  8
6
  6
CONTINUOUS
100
AcDbLine
 10
211.19999299999998
 20
240.0
 30
0.0
 11
211.200014
 21
660.000007
 31
0.0
  0
INSERT
  5
361
330
352
100
AcDbEntity
  8
6
100
AcDbBlockReference
  2
ARROW
 10
211.19999299999998
 20
240.0
 30
0.0
 41
11.200000000000001
 42
11.200000000000001
 43
1.6
 50
-90.00000000000001
  0
INSERT
  5
363
330
352
100
AcDbEntity
  8
6
100
AcDbBlockReference
  2
ARROW
 10
211.200014
 20
660.000007
 30
0.0
 41
11.200000000000001
 42
11.200000000000001
 43
1.6
 50
90.0
  0
TEXT
  5
365
330
352
100
AcDbEntity
  8
6
100
AcDbText
 10
200.0
 20
427.599993
 30
0.0
 40
40.0
  1
60
 50
90.0
 11
200.0
 21
427.599993
 31
0.0
100
AcDbText
  0
LINE
  5
366
330
352
100
AcDbEntity
  8
6
  6
CONTINUOUS
100
AcDbLine
 10
332.649993
 20
676.8
 30
0.0
 11
332.649993
 21
781.8
 31
0.0
  0
LINE
  5
367
330
352
100
AcDbEntity
  8
6
  6
CONTINUOUS
100
AcDbLine
 10
2852.649993
 20
676.8
 30
0.0
 11
2852.649993
 21
781.8
 31
0.0
  0
LINE
  5
368
330
352
100
AcDbEntity
  8
6
  6
CONTINUOUS
100
AcDbLine
 10
332.649993
 20
781.45
 30
0.0
 11
2852.649993
 21
781.45
 31
0.0
  0
INSERT
  5
369
330
352
100
AcDbEntity
  8
6
100
AcDbBlockReference
  2
ARROW
 10
332.649993
 20
781.45
 30
0.0
 41
11.200000000000001
 42
11.200000000000001
 43
1.6
 50
180.0
  0
INSERT
  5
36B
330
352
100
AcDbEntity
  8
6
100
AcDbBlockReference
  2
ARROW
 10
2852.649993
 20
781.45
 30
0.0
 41
11.200000000000001
 42
11.200000000000001
 43
1.6
  0
TEXT
  5
36D
330
352
100
AcDbEntity
  8
6
100
AcDbText
 10
1559.0499929999999
 20
792.650007
 30
0.0
 40
40.0
  1
360
 11
1559.0499929999999
 21
792.650007
 31
0.0
100
AcDbText
  0
MTEXT
  5
36E
330
352
100
AcDbEntity
  8
0
100
AcDbMText
 10
1526.3249965
 20
140.0
 30
0.0
 40
40.0
 71
5
  1
ST4\P(SCALE 1:7)
  0
ENDBLK
  5
354
330
352
100
AcDbEntity
  8
0
100
AcDbBlockEnd
  0
BLOCK
  5
370
330
36F
100
AcDbEntity
  8
2
100
AcDbBlockBegin
  2
OF2
 70
0
 10
0.0
 20
0.0
 30
0.0
  3
OF2
  1

  0
CIRCLE
  5
372
330
36F
100
AcDbEntity
  8
5
  6
CONTINUOUS
100
AcDbCircle
 10
422.085295
 20
271.25
 30
0.0
 40
0.05
  0
LINE
  5
373
330
36F
100
AcDbEntity
  8
5
  6
CONTINUOUS
100
AcDbLine
 10
422.035295
 20
271.25
 30
0.0
 11
422.13529500000004
 21
271.25
 31
0.0
  0
LINE
  5
374
330
36F
100
AcDbEntity
  8
5
  6
CONTINUOUS
100
AcDbLine
 10
422.085295
 20
271.200001
 30
0.0
 11
422.085295
 21
271.299999
 31
0.0
  0
TEXT
  5
375
330
36F
100
AcDbEntity
  8
5
100
AcDbText
 10
422.085295
 20
231.25
 30
0.0
 40
0.0075
  1
ZERO
 11
422.085295
 21
271.25
 31
0.0
100
AcDbText
  0
LINE
  5
376
330
36F
100
AcDbEntity
  8
3
  6
CONTINUOUS
100
AcDbLine
 10
422.085295
 20
302.5
 30
0.0
 11
422.085295
 21
240.0
 31
0.0
  0
LINE
  5
377
330
36F
100
AcDbEntity
  8
3
  6
CONTINUOUS
100
AcDbLine
 10
422.085295
 20
240.0
 30
0.0
 11
3473.9822449999997
 21
240.0
 31
0.0
  0
LINE
  5
378
330
36F
100
AcDbEntity
  8
3
  6
CONTINUOUS
100
AcDbLine
 10
3473.9822449999997
 20
240.0
 30
0.0
 11
3473.9822449999997
 21
302.5
 31
0.0
  0
LINE
  5
379
330
36F
100
AcDbEntity
  8
3
  6
CONTINUOUS
100
AcDbLine
 10
3473.9822449999997
 20
302.5
 30
0.0
 11
422.085295
 21
302.5
 31
0.0
  0
LINE
  5
37A
330
36F
100
AcDbEntity
  8
6
  6
CONTINUOUS
100
AcDbLine
 10
401.7393135
 20
240.0
 30
0.0
 11
274.576935
 21
240.00001
 31
0.0
  0
LINE
  5
37B
330
36F
100
AcDbEntity
  8
6
  6
CONTINUOUS
100
AcDbLine
 10
401.739317
 20
302.5000015
 30
0.0
 11
274.576935
 21
302.500011
 31
0.0
  0
LINE
  5
37C
330
36F
100
AcDbEntity
  8
6
  6
CONTINUOUS
100
AcDbLine
 10
274.601925
 20
240.00001
 30
0.0
 11
274.601925
 21
302.500011
 31
0.0
  0
INSERT
  5
37D
330
36F
100
AcDbEntity
  8
6
100
AcDbBlockReference
  2
ARROW
 10
274.601925
 20
240.00001
 30
0.0
 41
13.563987
 42
13.563987
 43
27.127974
 50
-90.00000000000001
  0
INSERT
  5
37F
330
36F
100
AcDbEntity
  8
6
100
AcDbBlockReference
  2
ARROW
 10
274.601925
 20
302.500011
 30
0.0
 41
13.563987
 42
13.563987
 43
27.127974
 50
90.0
  0
TEXT
  5
381
330
36F
100
AcDbEntity
  8
6
100
AcDbText
 10
200.0
 20
197.68602750000002
 30
0.0
 40
40.0
  1
125
 11
200.0
 21
257.6860275
 31
0.0
100
AcDbText
  0
LINE
  5
382
330
36F
100
AcDbEntity
  8
6
  6
CONTINUOUS
100
AcDbLine
 10
422.085295
 20
322.8459815
 30
0.0
 11
422.085295
 21
450.00836000000004
 31
0.0
  0
LINE
  5
383
330
36F
100
AcDbEntity
  8
6
  6
CONTINUOUS
100
AcDbLine
 10
3473.9822449999997
 20
322.8459815
 30
0.0
 11
3473.9822449999997
 21
450.00836000000004
 31
0.0
  0
LINE
  5
384
330
36F
100
AcDbEntity
  8
6
  6
CONTINUOUS
100
AcDbLine
 10
422.085295
 20
449.98337000000004
 30
0.0
 11
3473.9822449999997
 21
449.98337000000004
 31
0.0
  0
INSERT
  5
385
330
36F
100
AcDbEntity
  8
6
100
AcDbBlockReference
  2
ARROW
 10
422.085295
 20
449.98337000000004
 30
0.0
 41
13.563987
 42
13.563987
 43
27.127974
 50
180.0
  0
INSERT
  5
387
330
36F
100
AcDbEntity
  8
6
100
AcDbBlockReference
  2
ARROW
 10
3473.9822449999997
 20
449.98337000000004
 30
0.0
 41
13.563987
 42
13.563987
 43
27.127974
  0
TEXT
  5
389
330
36F
100
AcDbEntity
  8
6
100
AcDbText
 10
1897.168795
 20
463.54735
 30
0.0
 40
40.0
  1
6104
 11
1897.168795
 21
463.54735
 31
0.0
100
AcDbText
  0
MTEXT
  5
38A
330
36F
100
AcDbEntity
  8
0
100
AcDbMText
 10
1836.9911224999998
 20
140.0
 30
0.0
 40
40.0
 71
5
  1
OF2\P(SCALE 2:1)
  0
ENDBLK
  5
371
330
36F
100
AcDbEntity
  8
0
100
AcDbBlockEnd
  0
BLOCK
  5
38C
330
38B
100
AcDbEntity
  8
2
100
AcDbBlockBegin
  2
OF3
 70
0
 10
0.0
 20
0.0
 30
0.0
  3
OF3
  1

  0
CIRCLE
  5
38E
330
38B
100
AcDbEntity
  8
5
  6
CONTINUOUS
100
AcDbCircle
 10
329.582124
 20
677.5
 30
0.0
 40
0.7000000000000001
  0
LINE
  5
38F
330
38B
100
AcDbEntity
  8
5
  6
CONTINUOUS
100
AcDbLine
 10
328.882124
 20
677.5
 30
0.0
 11
330.28212399999995
 21
677.5
 31
0.0
  0
LINE
  5
390
330
38B
100
AcDbEntity
  8
5
  6
CONTINUOUS
100
AcDbLine
 10
329.582124
 20
676.800014
 30
0.0
 11
329.582124
 21
678.199986
 31
0.0
  0
TEXT
  5
391
330
38B
100
AcDbEntity
  8
5
100
AcDbText
 10
329.582124
 20
477.5
 30
0.0
 40
0.105
  1
ZERO
 11
329.582124
 21
677.5
 31
0.0
100
AcDbText
  0
LINE
  5
392
330
38B
100
AcDbEntity
  8
3
  6
CONTINUOUS
100
AcDbLine
 10
329.582124
 20
1115.0
 30
0.0
 11
329.582124
 21
240.0
 31
0.0
  0
LINE
  5
393
330
38B
100
AcDbEntity
  8
3
  6
CONTINUOUS
100
AcDbLine
 10
329.582124
 20
240.0
 30
0.0
 11
2791.454194
 21
240.0
 31
0.0
  0
LINE
  5
394
330
38B
100
AcDbEntity
  8
3
  6
CONTINUOUS
100
AcDbLine
 10
2791.454194
 20
240.0
 30
0.0
 11
2791.454194
 21
1115.0
 31
0.0
  0
LINE
  5
395
330
38B
100
AcDbEntity
  8
3
  6
CONTINUOUS
100
AcDbLine
 10
2791.454194
 20
1115.0
 30
0.0
 11
329.582124
 21
1115.0
 31
0.0
  0
LINE
  5
396
330
38B
100
AcDbEntity
  8
6
  6
CONTINUOUS
100
AcDbLine
 10
313.169644
 20
240.0
 30
0.0
 11
210.59163
 21
240.0
 31
0.0
  0
LINE
  5
397
330
38B
100
AcDbEntity
  8
6
  6
CONTINUOUS
100
AcDbLine
 10
313.169707
 20
1115.0
 30
0.0
 11
210.5917
 21
1115.000007
 31
0.0
  0
LINE
  5
398
330
38B
100
AcDbEntity
  8
6
  6
CONTINUOUS
100
AcDbLine
 10
210.941623
 20
240.0
 30
0.0
 11
210.941693
 21
1115.000007
 31
0.0
  0
INSERT
  5
399
330
38B
100
AcDbEntity
  8
6
100
AcDbBlockReference
  2
ARROW
 10
210.941623
 20
240.0
 30
0.0
 41
10.941651
 42
10.941651
 43
1.563093
 50
-90.00000000000001
  0
INSERT
  5
39B
330
38B
100
AcDbEntity
  8
6
100
AcDbBlockReference
  2
ARROW
 10
210.941693
 20
1115.000007
 30
0.0
 41
10.941651
 42
10.941651
 43
1.563093
 50
90.0
  0
TEXT
  5
39D
330
38B
100
AcDbEntity
  8
6
100
AcDbText
 10
200.0
 20
647.410444
 30
0.0
 40
40.0
  1
125
 50
90.0
 11
200.0
 21
647.410444
 31
0.0
100
AcDbText
  0
LINE
  5
39E
330
38B
100
AcDbEntity
  8
6
  6
CONTINUOUS
100
AcDbLine
 10
329.582124
 20
1131.41248
 30
0.0
 11
329.582124
 21
1233.9904940000001
 31
0.0
  0
LINE
  5
39F
330
38B
100
AcDbEntity
  8
6
  6
CONTINUOUS
100
AcDbLine
 10
2791.454194
 20
1131.41248
 30
0.0
 11
2791.454194
 21
1233.9904940000001
 31
0.0
  0
LINE
  5
3A0
330
38B
100
AcDbEntity
  8
6
  6
CONTINUOUS
100
AcDbLine
 10
329.582124
 20
1233.6405009999999
 30
0.0
 11
2791.454194
 21
1233.6405009999999
 31
0.0
  0
INSERT
  5
3A1
330
38B
100
AcDbEntity
  8
6
100
AcDbBlockReference
  2
ARROW
 10
329.582124
 20
1233.6405009999999
 30
0.0
 41
10.941651
 42
10.941651
 43
1.563093
 50
180.0
  0
INSERT
  5
3A3
330
38B
100
AcDbEntity
  8
6
100
AcDbBlockReference
  2
ARROW
 10
2791.454194
 20
1233.6405009999999
 30
0.0
 41
10.941651
 42
10.941651
 43
1.563093
  0
TEXT
  5
3A5
330
38B
100
AcDbEntity
  8
6
100
AcDbText
 10
1527.693164
 20
1244.582152
 30
0.0
 40
40.0
  1
352
 11
1527.693164
 21
1244.582152
 31
0.0
100
AcDbText
  0
MTEXT
  5
3A6
330
38B
100
AcDbEntity
  8
0
100
AcDbMText
 10
1495.727097
 20
140.0
 30
0.0
 40
40.0
 71
5
  1
OF3\P(SCALE 1:7)
  0
ENDBLK
  5
38D
330
38B
100
AcDbEntity
  8
0
100
AcDbBlockEnd
  0
BLOCK
  5
3A8
330
3A7
100
AcDbEntity
  8
2
100
AcDbBlockBegin
  2
CLF4
 70
0
 10
0.0
 20
0.0
 30
0.0
  3
CLF4
  1

  0
CIRCLE
  5
3AA
330
3A7
100
AcDbEntity
  8
5
  6
CONTINUOUS
100
AcDbCircle
 10
310.483296
 20
825.66669
 30
0.0
 40
0.7000000000000001
  0
LINE
  5
3AB
330
3A7
100
AcDbEntity
  8
5
  6
CONTINUOUS
100
AcDbLine
 10
309.783296
 20
825.66669
 30
0.0
 11
311.183296
 21
825.66669
 31
0.0
  0
LINE
  5
3AC
330
3A7
100
AcDbEntity
  8
5
  6
CONTINUOUS
100
AcDbLine
 10
310.483296
 20
824.966704
 30
0.0
 11
310.483296
 21
826.366676
 31
0.0
  0
TEXT
  5
3AD
330
3A7
100
AcDbEntity
  8
5
100
AcDbText
 10
310.483296
 20
625.66669
 30
0.0
 40
0.105
  1
ZERO
 11
310.483296
 21
825.66669
 31
0.0
100
AcDbText
  0
LINE
  5
3AE
330
3A7
100
AcDbEntity
  8
3
  6
CONTINUOUS
100
AcDbLine
 10
310.483296
 20
1350.66669
 30
0.0
 11
310.483296
 21
300.66669
 31
0.0
  0
LINE
  5
3AF
330
3A7
100
AcDbEntity
  8
3
  6
CONTINUOUS
100
AcDbLine
 10
310.483296
 20
300.66669
 30
0.0
 11
1535.4832959999999
 21
300.66669
 31
0.0
  0
LINE
  5
3B0
330
3A7
100
AcDbEntity
  8
3
  6
CONTINUOUS
100
AcDbLine
 10
1535.4832959999999
 20
300.66669
 30
0.0
 11
1535.4832959999999
 21
1350.66669
 31
0.0
  0
LINE
  5
3B1
330
3A7
100
AcDbEntity
  8
3
  6
CONTINUOUS
100
AcDbLine
 10
1535.4832959999999
 20
1350.66669
 30
0.0
 11
310.483296
 21
1350.66669
 31
0.0
  0
CIRCLE
  5
3B2
330
3A7
100
AcDbEntity
  8
4
  6
CONTINUOUS
100
AcDbCircle
 10
485.483296
 20
1175.66669
 30
0.0
 40
49.0
  0
CIRCLE
  5
3B3
330
3A7
100
AcDbEntity
  8
4
  6
CONTINUOUS
100
AcDbCircle
 10
485.483296
 20
475.66669
 30
0.0
 40
49.0
  0
CIRCLE
  5
3B4
330
3A7
100
AcDbEntity
  8
4
  6
CONTINUOUS
100
AcDbCircle
 10
1185.4832959999999
 20
1175.66669
 30
0.0
 40
49.0
  0
CIRCLE
  5
3B5
330
3A7
100
AcDbEntity
  8
4
  6
CONTINUOUS
100
AcDbCircle
 10
1185.4832959999999
 20
475.66669
 30
0.0
 40
49.0
  0
LINE
  5
3B6
330
3A7
100
AcDbEntity
  8
6
  6
CONTINUOUS
100
AcDbLine
 10
296.483296
 20
300.66669
 30
0.0
 11
208.983289
 21
300.66669
 31
0.0
  0
LINE
  5
3B7
330
3A7
100
AcDbEntity
  8
6
  6
CONTINUOUS
100
AcDbLine
 10
296.48337300000003
 20
1350.66669
 30
0.0
 11
208.983366
 21
1350.666697
 31
0.0
  0
LINE
  5
3B8
330
3A7
100
AcDbEntity
  8
6
  6
CONTINUOUS
100
AcDbLine
 10
209.33328899999998
 20
300.66669
 30
0.0
 11
209.333373
 21
1350.666697
 31
0.0
  0
INSERT
  5
3B9
330
3A7
100
AcDbEntity
  8
6
100
AcDbBlockReference
  2
ARROW
 10
209.33328899999998
 20
300.66669
 30
0.0
 41
9.333331000000001
 42
9.333331000000001
 43
1.333333
 50
-90.00000000000001
  0
INSERT
  5
3BB
330
3A7
100
AcDbEntity
  8
6
100
AcDbBlockReference
  2
ARROW
 10
209.333373
 20
1350.666697
 30
0.0
 41
9.333331000000001
 42
9.333331000000001
 43
1.333333
 50
90.0
  0
TEXT
  5
3BD
330
3A7
100
AcDbEntity
  8
6
100
AcDbText
 10
200.0
 20
800.000042
 30
0.0
 40
40.0
  1
150
 50
90.0
 11
200.0
 21
800.000042
 31
0.0
100
AcDbText
  0
LINE
  5
3BE
330
3A7
100
AcDbEntity
  8
6
  6
CONTINUOUS
100
AcDbLine
 10
310.483296
 20
1364.66669
 30
0.0
 11
310.483296
 21
1452.166697
 31
0.0
  0
LINE
  5
3BF
330
3A7
100
AcDbEntity
  8
6
  6
CONTINUOUS
100
AcDbLine
 10
1535.4832959999999
 20
1364.66669
 30
0.0
 11
1535.4832959999999
 21
1452.166697
 31
0.0
  0
LINE
  5
3C0
330
3A7
100
AcDbEntity
  8
6
  6
CONTINUOUS
100
AcDbLine
 10
310.483296
 20
1451.816697
 30
0.0
 11
1535.4832959999999
 21
1451.816697
 31
0.0
  0
INSERT
  5
3C1
330
3A7
100
AcDbEntity
  8
6
100
AcDbBlockReference
  2
ARROW
 10
310.483296
 20
1451.816697
 30
0.0
 41
9.333331000000001
 42
9.333331000000001
 43
1.333333
 50
180.0
  0
INSERT
  5
3C3
330
3A7
100
AcDbEntity
  8
6
100
AcDbBlockReference
  2
ARROW
 10
1535.4832959999999
 20
1451.816697
 30
0.0
 41
9.333331000000001
 42
9.333331000000001
 43
1.333333
  0
TEXT
  5
3C5
330
3A7
100
AcDbEntity
  8
6
100
AcDbText
 10
897.316648
 20
1461.150028
 30
0.0
 40
40.0
  1
175
 11
897.316648
 21
1461.150028
 31
0.0
100
AcDbText
  0
LINE
  5
3C6
330
3A7
100
AcDbEntity
  8
6
  6
CONTINUOUS
100
AcDbLine
 10
1549.4832959999999
 20
1175.66669
 30
0.0
 11
1636.9832959999999
 21
1175.66669
 31
0.0
  0
LINE
  5
3C7
330
3A7
100
AcDbEntity
  8
6
  6
CONTINUOUS
100
AcDbLine
 10
1549.4832959999999
 20
1350.66669
 30
0.0
 11
1636.9832959999999
 21
1350.666683
 31
0.0
  0
LINE
  5
3C8
330
3A7
100
AcDbEntity
  8
6
  6
CONTINUOUS
100
AcDbLine
 10
1636.633296
 20
1175.66669
 30
0.0
 11
1636.633296
 21
1350.666683
 31
0.0
  0
INSERT
  5
3C9
330
3A7
100
AcDbEntity
  8
6
100
AcDbBlockReference
  2
ARROW
 10
1636.633296
 20
1175.66669
 30
0.0
 41
9.333331000000001
 42
9.333331000000001
 43
1.333333
 50
-90.00000000000001
  0
INSERT
  5
3CB
330
3A7
100
AcDbEntity
  8
6
100
AcDbBlockReference
  2
ARROW
 10
1636.633296
 20
1350.666683
 30
0.0
 41
9.333331000000001
 42
9.333331000000001
 43
1.333333
 50
90.0
  0
TEXT
  5
3CD
330
3A7
100
AcDbEntity
  8
6
100
AcDbText
 10
1627.299986
 20
1244.500028
 30
0.0
 40
40.0
  1
25
 50
90.0
 11
1627.299986
 21
1244.500028
 31
0.0
100
AcDbText
  0
LINE
  5
3CE
330
3A7
100
AcDbEntity
  8
6
  6
CONTINUOUS
100
AcDbLine
 10
1549.4832959999999
 20
475.66669
 30
0.0
 11
1636.9832959999999
 21
475.66669
 31
0.0
  0
LINE
  5
3CF
330
3A7
100
AcDbEntity
  8
6
  6
CONTINUOUS
100
AcDbLine
 10
1549.4832959999999
 20
1175.66669
 30
0.0
 11
1636.9832959999999
 21
1175.66669
 31
0.0
  0
LINE
  5
3D0
330
3A7
100
AcDbEntity
  8
6
  6
CONTINUOUS
100
AcDbLine
 10
1636.633296
 20
475.66669
 30
0.0
 11
1636.633296
 21
1175.66669
 31
0.0
  0
INSERT
  5
3D1
330
3A7
100
AcDbEntity
  8
6
100
AcDbBlockReference
  2
ARROW
 10
1636.633296
 20
475.66669
 30
0.0
 41
9.333331000000001
 42
9.333331000000001
 43
1.333333
 50
-90.00000000000001
  0
INSERT
  5
3D3
330
3A7
100
AcDbEntity
  8
6
100
AcDbBlockReference
  2
ARROW
 10
1636.633296
 20
1175.66669
 30
0.0
 41
9.333331000000001
 42
9.333331000000001
 43
1.333333
 50
90.0
  0
TEXT
  5
3D5
330
3A7
100
AcDbEntity
  8
6
100
AcDbText
 10
1627.299986
 20
799.999986
 30
0.0
 40
40.0
  1
100
 50
90.0
 11
1627.299986
 21
799.999986
 31
0.0
100
AcDbText
  0
LINE
  5
3D6
330
3A7
100
AcDbEntity
  8
6
  6
CONTINUOUS
100
AcDbLine
 10
310.483296
 20
286.66669
 30
0.0
 11
310.483296
 21
240.0
 31
0.0
  0
LINE
  5
3D7
330
3A7
100
AcDbEntity
  8
6
  6
CONTINUOUS
100
AcDbLine
 10
485.483296
 20
286.66669
 30
0.0
 11
485.483296
 21
240.0
 31
0.0
  0
LINE
  5
3D8
330
3A7
100
AcDbEntity
  8
6
  6
CONTINUOUS
100
AcDbLine
 10
310.483296
 20
240.3499999999999
 30
0.0
 11
485.483296
 21
240.3499999999999
 31
0.0
  0
INSERT
  5
3D9
330
3A7
100
AcDbEntity
  8
6
100
AcDbBlockReference
  2
ARROW
 10
310.483296
 20
240.3499999999999
 30
0.0
 41
9.333331000000001
 42
9.333331000000001
 43
1.333333
 50
180.0
  0
INSERT
  5
3DB
330
3A7
100
AcDbEntity
  8
6
100
AcDbBlockReference
  2
ARROW
 10
485.483296
 20
240.3499999999999
 30
0.0
 41
9.333331000000001
 42
9.333331000000001
 43
1.333333
  0
TEXT
  5
3DD
330
3A7
100
AcDbEntity
  8
6
100
AcDbText
 10
379.316634
 20
249.6833099999999
 30
0.0
 40
40.0
  1
25
 11
379.316634
 21
249.6833099999999
 31
0.0
100
AcDbText
  0
LINE
  5
3DE
330
3A7
100
AcDbEntity
  8
6
  6
CONTINUOUS
100
AcDbLine
 10
1185.4832959999999
 20
286.66669
 30
0.0
 11
1185.4832959999999
 21
240.0
 31
0.0
  0
LINE
  5
3DF
330
3A7
100
AcDbEntity
  8
6
  6
CONTINUOUS
100
AcDbLine
 10
1148.1499159999998
 20
240.3499999999999
 30
0.0
 11
1185.4832959999999
 21
240.3499999999999
 31
0.0
  0
INSERT
  5
3E0
330
3A7
100
AcDbEntity
  8
6
100
AcDbBlockReference
  2
ARROW
 10
1185.4832959999999
 20
240.3499999999999
 30
0.0
 41
9.333331000000001
 42
9.333331000000001
 43
1.333333
  0
TEXT
  5
3E2
330
3A7
100
AcDbEntity
  8
6
100
AcDbText
 10
1124.816676
 20
189.6833099999999
 30
0.0
 40
40.0
  1
125
 11
1124.816676
 21
249.6833099999999
 31
0.0
100
AcDbText
  0
TEXT
  5
3E3
330
3A7
100
AcDbEntity
  8
6
100
AcDbText
 10
485.483296
 20
1388.000021
 30
0.0
 40
40.0
  1
DIA:14
 11
485.483296
 21
1388.000021
 31
0.0
100
AcDbText
  0
MTEXT
  5
3E4
330
3A7
100
AcDbEntity
  8
0
100
AcDbMText
 10
930.4520930000001
 20
140.0
 30
0.0
 40
40.0
 71
5
  1
CLF4\P(SCALE 1:7)
  0
ENDBLK
  5
3A9
330
3A7
100
AcDbEntity
  8
0
100
AcDbBlockEnd
  0
BLOCK
  5
3E6
330
3E5
100
AcDbEntity
  8
2
100
AcDbBlockBegin
  2
ES1
 70
0
 10
0.0
 20
0.0
 30
0.0
  3
ES1
  1

  0
CIRCLE
  5
3E8
330
3E5
100
AcDbEntity
  8
5
  6
CONTINUOUS
100
AcDbCircle
 10
369.594404
 20
1045.0
 30
0.0
 40
0.7000000000000001
  0
LINE
  5
3E9
330
3E5
100
AcDbEntity
  8
5
  6
CONTINUOUS
100
AcDbLine
 10
368.894404
 20
1045.0
 30
0.0
 11
370.294404
 21
1045.0
 31
0.0
  0
LINE
  5
3EA
330
3E5
100
AcDbEntity
  8
5
  6
CONTINUOUS
100
AcDbLine
 10
369.594404
 20
1044.3000000000002
 30
0.0
 11
369.594404
 21
1045.6999999999998
 31
0.0
  0
TEXT
  5
3EB
330
3E5
100
AcDbEntity
  8
5
100
AcDbText
 10
369.594404
 20
845.0
 30
0.0
 40
0.105
  1
ZERO
 11
369.594404
 21
1045.0
 31
0.0
100
AcDbText
  0
LINE
  5
3EC
330
3E5
100
AcDbEntity
  8
3
  6
CONTINUOUS
100
AcDbLine
 10
530.5944039999999
 20
1850.0
 30
0.0
 11
369.594404
 21
240.0
 31
0.0
  0
LINE
  5
3ED
330
3E5
100
AcDbEntity
  8
3
  6
CONTINUOUS
100
AcDbLine
 10
369.594404
 20
240.0
 30
0.0
 11
1174.594404
 21
240.0
 31
0.0
  0
LINE
  5
3EE
330
3E5
100
AcDbEntity
  8
3
  6
CONTINUOUS
100
AcDbLine
 10
1174.594404
 20
240.0
 30
0.0
 11
530.5944039999999
 21
1850.0
 31
0.0
  0
LINE
  5
3EF
330
3E5
100
AcDbEntity
  8
3
  6
CONTINUOUS
100
AcDbLine
 10
530.5944039999999
 20
1850.0
 30
0.0
 11
530.5944039999999
 21
1850.0
 31
0.0
  0
LINE
  5
3F0
330
3E5
100
AcDbEntity
  8
6
  6
CONTINUOUS
100
AcDbLine
 10
348.12773500000003
 20
240.0
 30
0.0
 11
213.96106600000002
 21
240.0
 31
0.0
  0
LINE
  5
3F1
330
3E5
100
AcDbEntity
  8
6
  6
CONTINUOUS
100
AcDbLine
 10
348.127861
 20
1850.0
 30
0.0
 11
213.961192
 21
1850.000014
 31
0.0
  0
LINE
  5
3F2
330
3E5
100
AcDbEntity
  8
6
  6
CONTINUOUS
100
AcDbLine
 10
214.311066
 20
240.0
 30
0.0
 11
214.311185
 21
1850.000014
 31
0.0
  0
INSERT
  5
3F3
330
3E5
100
AcDbEntity
  8
6
100
AcDbBlockReference
  2
ARROW
 10
214.311066
 20
240.0
 30
0.0
 41
14.311107999999999
 42
14.311107999999999
 43
2.044444
 50
-90.00000000000001
  0
INSERT
  5
3F5
330
3E5
100
AcDbEntity
  8
6
100
AcDbBlockReference
  2
ARROW
 10
214.311185
 20
1850.000014
 30
0.0
 41
14.311107999999999
 42
14.311107999999999
 43
2.044444
 50
90.0
  0
TEXT
  5
3F7
330
3E5
100
AcDbEntity
  8
6
100
AcDbText
 10
200.0
 20
1002.06669
 30
0.0
 40
40.0
  1
230
 50
90.0
 11
200.0
 21
1002.06669
 31
0.0
100
AcDbText
  0
LINE
  5
3F8
330
3E5
100
AcDbEntity
  8
6
  6
CONTINUOUS
100
AcDbLine
 10
369.594404
 20
1871.466669
 30
0.0
 11
369.594404
 21
2005.633338
 31
0.0
  0
LINE
  5
3F9
330
3E5
100
AcDbEntity
  8
6
  6
CONTINUOUS
100
AcDbLine
 10
1174.594404
 20
1871.466669
 30
0.0
 11
1174.594404
 21
2005.633338
 31
0.0
  0
LINE
  5
3FA
330
3E5
100
AcDbEntity
  8
6
  6
CONTINUOUS
100
AcDbLine
 10
369.594404
 20
2005.283338
 30
0.0
 11
1174.594404
 21
2005.283338
 31
0.0
  0
INSERT
  5
3FB
330
3E5
100
AcDbEntity
  8
6
100
AcDbBlockReference
  2
ARROW
 10
369.594404
 20
2005.283338
 30
0.0
 41
14.311107999999999
 42
14.311107999999999
 43
2.044444
 50
180.0
  0
INSERT
  5
3FD
330
3E5
100
AcDbEntity
  8
6
100
AcDbBlockReference
  2
ARROW
 10
1174.594404
 20
2005.283338
 30
0.0
 41
14.311107999999999
 42
14.311107999999999
 43
2.044444
  0
TEXT
  5
3FF
330
3E5
100
AcDbEntity
  8
6
100
AcDbText
 10
736.3166269999999
 20
2019.594453
 30
0.0
 40
40.0
  1
115
 11
736.3166269999999
 21
2019.594453
 31
0.0
100
AcDbText
  0
MTEXT
  5
400
330
3E5
100
AcDbEntity
  8
0
100
AcDbMText
 10
687.2972020000001
 20
140.0
 30
0.0
 40
40.0
 71
5
  1
ES1\P(SCALE 1:7)
  0
ENDBLK
  5
3E7
330
3E5
100
AcDbEntity
  8
0
100
AcDbBlockEnd
  0
BLOCK
  5
402
330
401
100
AcDbEntity
  8
2
100
AcDbBlockBegin
  2
IF2
 70
0
 10
0.0
 20
0.0
 30
0.0
  3
IF2
  1

  0
CIRCLE
  5
404
330
401
100
AcDbEntity
  8
5
  6
CONTINUOUS
100
AcDbCircle
 10
342.02794
 20
271.25
 30
0.0
 40
0.05
  0
LINE
  5
405
330
401
100
AcDbEntity
  8
5
  6
CONTINUOUS
100
AcDbLine
 10
341.97794
 20
271.25
 30
0.0
 11
342.07794
 21
271.25
 31
0.0
  0
LINE
  5
406
330
401
100
AcDbEntity
  8
5
  6
CONTINUOUS
100
AcDbLine
 10
342.02794
 20
271.200001
 30
0.0
 11
342.02794
 21
271.299999
 31
0.0
  0
TEXT
  5
407
330
401
100
AcDbEntity
  8
5
100
AcDbText
 10
342.02794
 20
231.25
 30
0.0
 40
0.0075
  1
ZERO
 11
342.02794
 21
271.25
 31
0.0
100
AcDbText
  0
LINE
  5
408
330
401
100
AcDbEntity
  8
3
  6
CONTINUOUS
100
AcDbLine
 10
342.02794
 20
302.5
 30
0.0
 11
342.02794
 21
240.0
 31
0.0
  0
LINE
  5
409
330
401
100
AcDbEntity
  8
3
  6
CONTINUOUS
100
AcDbLine
 10
342.02794
 20
240.0
 30
0.0
 11
3033.55699
 21
240.0
 31
0.0
  0
LINE
  5
40A
330
401
100
AcDbEntity
  8
3
  6
CONTINUOUS
100
AcDbLine
 10
3033.55699
 20
240.0
 30
0.0
 11
3033.55699
 21
302.5
 31
0.0
  0
LINE
  5
40B
330
401
100
AcDbEntity
  8
3
  6
CONTINUOUS
100
AcDbLine
 10
3033.55699
 20
302.5
 30
0.0
 11
342.02794
 21
302.5
 31
0.0
  0
LINE
  5
40C
330
401
100
AcDbEntity
  8
6
  6
CONTINUOUS
100
AcDbLine
 10
324.084413
 20
240.0
 30
0.0
 11
211.937365
 21
240.00001
 31
0.0
  0
LINE
  5
40D
330
401
100
AcDbEntity
  8
6
  6
CONTINUOUS
100
AcDbLine
 10
324.0844165
 20
302.5000015
 30
0.0
 11
211.93738
 21
302.50001
 31
0.0
  0
LINE
  5
40E
330
401
100
AcDbEntity
  8
6
  6
CONTINUOUS
100
AcDbLine
 10
211.96236
 20
240.00001
 30
0.0
 11
211.962375
 21
302.50001
 31
0.0
  0
INSERT
  5
40F
330
401
100
AcDbEntity
  8
6
100
AcDbBlockReference
  2
ARROW
 10
211.96236
 20
240.00001
 30
0.0
 41
11.962351
 42
11.962351
 43
23.924702
 50
-90.00000000000001
  0
INSERT
  5
411
330
401
100
AcDbEntity
  8
6
100
AcDbBlockReference
  2
ARROW
 10
211.962375
 20
302.50001
 30
0.0
 41
11.962351
 42
11.962351
 43
23.924702
 50
90.0
  0
TEXT
  5
413
330
401
100
AcDbEntity
  8
6
100
AcDbText
 10
200.0
 20
240.00001
 30
0.0
 40
40.0
  1
125
 50
90.0
 11
200.0
 21
240.00001
 31
0.0
100
AcDbText
  0
LINE
  5
414
330
401
100
AcDbEntity
  8
6
  6
CONTINUOUS
100
AcDbLine
 10
342.02794
 20
320.443527
 30
0.0
 11
342.02794
 21
432.590575
 31
0.0
  0
LINE
  5
415
330
401
100
AcDbEntity
  8
6
  6
CONTINUOUS
100
AcDbLine
 10
3033.55699
 20
320.443527
 30
0.0
 11
3033.55699
 21
432.590575
 31
0.0
  0
LINE
  5
416
330
401
100
AcDbEntity
  8
6
  6
CONTINUOUS
100
AcDbLine
 10
342.02794
 20
432.56558
 30
0.0
 11
3033.55699
 21
432.56558
 31
0.0
  0
INSERT
  5
417
330
401
100
AcDbEntity
  8
6
100
AcDbBlockReference
  2
ARROW
 10
342.02794
 20
432.56558
 30
0.0
 41
11.962351
 42
11.962351
 43
23.924702
 50
180.0
  0
INSERT
  5
419
330
401
100
AcDbEntity
  8
6
100
AcDbBlockReference
  2
ARROW
 10
3033.55699
 20
432.56558
 30
0.0
 41
11.962351
 42
11.962351
 43
23.924702
  0
TEXT
  5
41B
330
401
100
AcDbEntity
  8
6
100
AcDbText
 10
1639.94309
 20
444.52794
 30
0.0
 40
40.0
  1
5383
 11
1639.94309
 21
444.52794
 31
0.0
100
AcDbText
  0
MTEXT
  5
41C
330
401
100
AcDbEntity
  8
0
100
AcDbMText
 10
1616.778495
 20
140.0
 30
0.0
 40
40.0
 71
5
  1
IF2\P(SCALE 2:1)
  0
ENDBLK
  5
403
330
401
100
AcDbEntity
  8
0
100
AcDbBlockEnd
  0
BLOCK
  5
41E
330
41D
100
AcDbEntity
  8
2
100
AcDbBlockBegin
  2
EP3
 70
0
 10
0.0
 20
0.0
 30
0.0
  3
EP3
  1

  0
CIRCLE
  5
420
330
41D
100
AcDbEntity
  8
5
  6
CONTINUOUS
100
AcDbCircle
 10
332.00633
 20
812.3929499999999
 30
0.0
 40
0.5
  0
LINE
  5
421
330
41D
100
AcDbEntity
  8
5
  6
CONTINUOUS
100
AcDbLine
 10
331.50633
 20
812.3929499999999
 30
0.0
 11
332.50633
 21
812.3929499999999
 31
0.0
  0
LINE
  5
422
330
41D
100
AcDbEntity
  8
5
  6
CONTINUOUS
100
AcDbLine
 10
332.00633
 20
811.8929499999999
 30
0.0
 11
332.00633
 21
812.89294
 31
0.0
  0
TEXT
  5
423
330
41D
100
AcDbEntity
  8
5
100
AcDbText
 10
332.00633
 20
612.3929499999999
 30
0.0
 40
0.075
  1
ZERO
 11
332.00633
 21
812.3929499999999
 31
0.0
100
AcDbText
  0
LINE
  5
424
330
41D
100
AcDbEntity
  8
3
  6
CONTINUOUS
100
AcDbLine
 10
332.00633
 20
1312.39295
 30
0.0
 11
332.00633
 21
312.3929499999999
 31
0.0
  0
LINE
  5
425
330
41D
100
AcDbEntity
  8
3
  6
CONTINUOUS
100
AcDbLine
 10
332.00633
 20
312.3929499999999
 30
0.0
 11
2837.91638
 21
312.3929499999999
 31
0.0
  0
LINE
  5
426
330
41D
100
AcDbEntity
  8
3
  6
CONTINUOUS
100
AcDbLine
 10
2837.91638
 20
312.3929499999999
 30
0.0
 11
2837.91638
 21
1312.39295
 31
0.0
  0
LINE
  5
427
330
41D
100
AcDbEntity
  8
3
  6
CONTINUOUS
100
AcDbLine
 10
2837.91638
 20
1312.39295
 30
0.0
 11
332.00633
 21
1312.39295
 31
0.0
  0
CIRCLE
  5
428
330
41D
100
AcDbEntity
  8
4
  6
CONTINUOUS
100
AcDbCircle
 10
582.0063299999999
 20
1062.39295
 30
0.0
 40
55.0
  0
CIRCLE
  5
429
330
41D
100
AcDbEntity
  8
4
  6
CONTINUOUS
100
AcDbCircle
 10
582.0063299999999
 20
562.3929499999999
 30
0.0
 40
55.0
  0
CIRCLE
  5
42A
330
41D
100
AcDbEntity
  8
4
  6
CONTINUOUS
100
AcDbCircle
 10
1082.00633
 20
1062.39295
 30
0.0
 40
55.0
  0
CIRCLE
  5
42B
330
41D
100
AcDbEntity
  8
4
  6
CONTINUOUS
100
AcDbCircle
 10
1082.00633
 20
562.3929499999999
 30
0.0
 40
55.0
  0
CIRCLE
  5
42C
330
41D
100
AcDbEntity
  8
4
  6
CONTINUOUS
100
AcDbCircle
 10
2082.00633
 20
1062.39295
 30
0.0
 40
55.0
  0
CIRCLE
  5
42D
330
41D
100
AcDbEntity
  8
4
  6
CONTINUOUS
100
AcDbCircle
 10
2082.00633
 20
562.3929499999999
 30
0.0
 40
55.0
  0
CIRCLE
  5
42E
330
41D
100
AcDbEntity
  8
4
  6
CONTINUOUS
100
AcDbCircle
 10
2582.00633
 20
1062.39295
 30
0.0
 40
55.0
  0
CIRCLE
  5
42F
330
41D
100
AcDbEntity
  8
4
  6
CONTINUOUS
100
AcDbCircle
 10
2582.00633
 20
562.3929499999999
 30
0.0
 40
55.0
  0
LINE
  5
430
330
41D
100
AcDbEntity
  8
6
  6
CONTINUOUS
100
AcDbLine
 10
315.30026499999997
 20
312.3929499999999
 30
0.0
 11
210.88734499999998
 21
312.3929499999999
 31
0.0
  0
LINE
  5
431
330
41D
100
AcDbEntity
  8
6
  6
CONTINUOUS
100
AcDbLine
 10
315.30034
 20
1312.39295
 30
0.0
 11
210.88742
 21
1312.39296
 31
0.0
  0
LINE
  5
432
330
41D
100
AcDbEntity
  8
6
  6
CONTINUOUS
100
AcDbLine
 10
211.13734
 20
312.3929499999999
 30
0.0
 11
211.13742
 21
1312.39296
 31
0.0
  0
INSERT
  5
433
330
41D
100
AcDbEntity
  8
6
100
AcDbBlockReference
  2
ARROW
 10
211.13734
 20
312.3929499999999
 30
0.0
 41
11.137375
 42
11.137375
 43
2.227475
 50
-90.00000000000001
  0
INSERT
  5
435
330
41D
100
AcDbEntity
  8
6
100
AcDbBlockReference
  2
ARROW
 10
211.13742
 20
1312.39296
 30
0.0
 41
11.137375
 42
11.137375
 43
2.227475
 50
90.0
  0
TEXT
  5
437
330
41D
100
AcDbEntity
  8
6
100
AcDbText
 10
200.0
 20
778.9807999999999
 30
0.0
 40
40.0
  1
200
 50
90.0
 11
200.0
 21
778.9807999999999
 31
0.0
100
AcDbText
  0
LINE
  5
438
330
41D
100
AcDbEntity
  8
6
  6
CONTINUOUS
100
AcDbLine
 10
332.00633
 20
1329.099015
 30
0.0
 11
332.00633
 21
1433.511935
 31
0.0
  0
LINE
  5
439
330
41D
100
AcDbEntity
  8
6
  6
CONTINUOUS
100
AcDbLine
 10
2837.91638
 20
1329.099015
 30
0.0
 11
2837.91638
 21
1433.511935
 31
0.0
  0
LINE
  5
43A
330
41D
100
AcDbEntity
  8
6
  6
CONTINUOUS
100
AcDbLine
 10
332.00633
 20
1433.2619399999999
 30
0.0
 11
2837.91638
 21
1433.2619399999999
 31
0.0
  0
INSERT
  5
43B
330
41D
100
AcDbEntity
  8
6
100
AcDbBlockReference
  2
ARROW
 10
332.00633
 20
1433.2619399999999
 30
0.0
 41
11.137375
 42
11.137375
 43
2.227475
 50
180.0
  0
INSERT
  5
43D
330
41D
100
AcDbEntity
  8
6
100
AcDbBlockReference
  2
ARROW
 10
2837.91638
 20
1433.2619399999999
 30
0.0
 41
11.137375
 42
11.137375
 43
2.227475
  0
TEXT
  5
43F
330
41D
100
AcDbEntity
  8
6
100
AcDbText
 10
1554.3335299999999
 20
1444.39932
 30
0.0
 40
40.0
  1
501
 11
1554.3335299999999
 21
1444.39932
 31
0.0
100
AcDbText
  0
LINE
  5
440
330
41D
100
AcDbEntity
  8
6
  6
CONTINUOUS
100
AcDbLine
 10
2854.62243
 20
1062.39295
 30
0.0
 11
2959.03543
 21
1062.39295
 31
0.0
  0
LINE
  5
441
330
41D
100
AcDbEntity
  8
6
  6
CONTINUOUS
100
AcDbLine
 10
2854.62243
 20
1312.39295
 30
0.0
 11
2959.03543
 21
1312.39294
 31
0.0
  0
LINE
  5
442
330
41D
100
AcDbEntity
  8
6
  6
CONTINUOUS
100
AcDbLine
 10
2958.78548
 20
1062.39295
 30
0.0
 11
2958.78548
 21
1312.39294
 31
0.0
  0
INSERT
  5
443
330
41D
100
AcDbEntity
  8
6
100
AcDbBlockReference
  2
ARROW
 10
2958.78548
 20
1062.39295
 30
0.0
 41
11.137375
 42
11.137375
 43
2.227475
 50
-90.00000000000001
  0
INSERT
  5
445
330
41D
100
AcDbEntity
  8
6
100
AcDbBlockReference
  2
ARROW
 10
2958.78548
 20
1312.39294
 30
0.0
 41
11.137375
 42
11.137375
 43
2.227475
 50
90.0
  0
TEXT
  5
447
330
41D
100
AcDbEntity
  8
6
100
AcDbText
 10
2947.6481300000005
 20
1165.1182
 30
0.0
 40
40.0
  1
50
 50
90.0
 11
2947.6481300000005
 21
1165.1182
 31
0.0
100
AcDbText
  0
LINE
  5
448
330
41D
100
AcDbEntity
  8
6
  6
CONTINUOUS
100
AcDbLine
 10
2854.62243
 20
562.3929499999999
 30
0.0
 11
2959.03543
 21
562.3929499999999
 31
0.0
  0
LINE
  5
449
330
41D
100
AcDbEntity
  8
6
  6
CONTINUOUS
100
AcDbLine
 10
2854.62243
 20
1062.39295
 30
0.0
 11
2959.03543
 21
1062.39295
 31
0.0
  0
LINE
  5
44A
330
41D
100
AcDbEntity
  8
6
  6
CONTINUOUS
100
AcDbLine
 10
2958.78548
 20
562.3929499999999
 30
0.0
 11
2958.78548
 21
1062.39295
 31
0.0
  0
INSERT
  5
44B
330
41D
100
AcDbEntity
  8
6
100
AcDbBlockReference
  2
ARROW
 10
2958.78548
 20
562.3929499999999
 30
0.0
 41
11.137375
 42
11.137375
 43
2.227475
 50
-90.00000000000001
  0
INSERT
  5
44D
330
41D
100
AcDbEntity
  8
6
100
AcDbBlockReference
  2
ARROW
 10
2958.78548
 20
1062.39295
 30
0.0
 41
11.137375
 42
11.137375
 43
2.227475
 50
90.0
  0
TEXT
  5
44F
330
41D
100
AcDbEntity
  8
6
100
AcDbText
 10
2947.6481300000005
 20
781.76515
 30
0.0
 40
40.0
  1
100
 50
90.0
 11
2947.6481300000005
 21
781.76515
 31
0.0
100
AcDbText
  0
LINE
  5
450
330
41D
100
AcDbEntity
  8
6
  6
CONTINUOUS
100
AcDbLine
 10
332.00633
 20
295.68684999999994
 30
0.0
 11
332.00633
 21
240.0
 31
0.0
  0
LINE
  5
451
330
41D
100
AcDbEntity
  8
6
  6
CONTINUOUS
100
AcDbLine
 10
582.0063299999999
 20
295.68684999999994
 30
0.0
 11
582.0063299999999
 21
240.0
 31
0.0
  0
LINE
  5
452
330
41D
100
AcDbEntity
  8
6
  6
CONTINUOUS
100
AcDbLine
 10
332.00633
 20
240.24999999999977
 30
0.0
 11
582.0063299999999
 21
240.24999999999977
 31
0.0
  0
INSERT
  5
453
330
41D
100
AcDbEntity
  8
6
100
AcDbBlockReference
  2
ARROW
 10
332.00633
 20
240.24999999999977
 30
0.0
 41
11.137375
 42
11.137375
 43
2.227475
 50
180.0
  0
INSERT
  5
455
330
41D
100
AcDbEntity
  8
6
100
AcDbBlockReference
  2
ARROW
 10
582.0063299999999
 20
240.24999999999977
 30
0.0
 41
11.137375
 42
11.137375
 43
2.227475
  0
TEXT
  5
457
330
41D
100
AcDbEntity
  8
6
100
AcDbText
 10
434.73158
 20
251.38739999999984
 30
0.0
 40
40.0
  1
50
 11
434.73158
 21
251.38739999999984
 31
0.0
100
AcDbText
  0
LINE
  5
458
330
41D
100
AcDbEntity
  8
6
  6
CONTINUOUS
100
AcDbLine
 10
1082.00633
 20
295.68684999999994
 30
0.0
 11
1082.00633
 21
240.0
 31
0.0
  0
LINE
  5
459
330
41D
100
AcDbEntity
  8
6
  6
CONTINUOUS
100
AcDbLine
 10
1037.45683
 20
240.24999999999977
 30
0.0
 11
1082.00633
 21
240.24999999999977
 31
0.0
  0
INSERT
  5
45A
330
41D
100
AcDbEntity
  8
6
100
AcDbBlockReference
  2
ARROW
 10
1082.00633
 20
240.24999999999977
 30
0.0
 41
11.137375
 42
11.137375
 43
2.227475
  0
TEXT
  5
45C
330
41D
100
AcDbEntity
  8
6
100
AcDbText
 10
1009.61338
 20
191.38739999999984
 30
0.0
 40
40.0
  1
150
 11
1009.61338
 21
251.38739999999984
 31
0.0
100
AcDbText
  0
LINE
  5
45D
330
41D
100
AcDbEntity
  8
6
  6
CONTINUOUS
100
AcDbLine
 10
2082.00633
 20
295.68684999999994
 30
0.0
 11
2082.00633
 21
240.0
 31
0.0
  0
LINE
  5
45E
330
41D
100
AcDbEntity
  8
6
  6
CONTINUOUS
100
AcDbLine
 10
2037.4567799999998
 20
240.24999999999977
 30
0.0
 11
2082.00633
 21
240.24999999999977
 31
0.0
  0
INSERT
  5
45F
330
41D
100
AcDbEntity
  8
6
100
AcDbBlockReference
  2
ARROW
 10
2082.00633
 20
240.24999999999977
 30
0.0
 41
11.137375
 42
11.137375
 43
2.227475
  0
TEXT
  5
461
330
41D
100
AcDbEntity
  8
6
100
AcDbText
 10
2004.04473
 20
191.38739999999984
 30
0.0
 40
40.0
  1
350
 11
2004.04473
 21
251.38739999999984
 31
0.0
100
AcDbText
  0
LINE
  5
462
330
41D
100
AcDbEntity
  8
6
  6
CONTINUOUS
100
AcDbLine
 10
2582.00633
 20
295.68684999999994
 30
0.0
 11
2582.00633
 21
240.0
 31
0.0
  0
LINE
  5
463
330
41D
100
AcDbEntity
  8
6
  6
CONTINUOUS
100
AcDbLine
 10
2537.45678
 20
240.24999999999977
 30
0.0
 11
2582.00633
 21
240.24999999999977
 31
0.0
  0
INSERT
  5
464
330
41D
100
AcDbEntity
  8
6
100
AcDbBlockReference
  2
ARROW
 10
2582.00633
 20
240.24999999999977
 30
0.0
 41
11.137375
 42
11.137375
 43
2.227475
  0
TEXT
  5
466
330
41D
100
AcDbEntity
  8
6
100
AcDbText
 10
2504.0447300000005
 20
191.38739999999984
 30
0.0
 40
40.0
  1
450
 11
2504.0447300000005
 21
251.38739999999984
 31
0.0
100
AcDbText
  0
TEXT
  5
467
330
41D
100
AcDbEntity
  8
6
100
AcDbText
 10
582.0063299999999
 20
1356.94246
 30
0.0
 40
40.0
  1
DIA:22
 11
582.0063299999999
 21
1356.94246
 31
0.0
100
AcDbText
  0
MTEXT
  5
468
330
41D
100
AcDbEntity
  8
0
100
AcDbMText
 10
1593.871565
 20
140.0
 30
0.0
 40
40.0
 71
5
  1
EP3\P(SCALE 1:5)
  0
ENDBLK
  5
41F
330
41D
100
AcDbEntity
  8
0
100
AcDbBlockEnd
  0
BLOCK
  5
46A
330
469
100
AcDbEntity
  8
2
100
AcDbBlockBegin
  2
EP2
 70
0
 10
0.0
 20
0.0
 30
0.0
  3
EP2
  1

  0
CIRCLE
  5
46C
330
469
100
AcDbEntity
  8
5
  6
CONTINUOUS
100
AcDbCircle
 10
358.083305
 20
826.6666499999999
 30
0.0
 40
0.5
  0
LINE
  5
46D
330
469
100
AcDbEntity
  8
5
  6
CONTINUOUS
100
AcDbLine
 10
357.583305
 20
826.6666499999999
 30
0.0
 11
358.583305
 21
826.6666499999999
 31
0.0
  0
LINE
  5
46E
330
469
100
AcDbEntity
  8
5
  6
CONTINUOUS
100
AcDbLine
 10
358.083305
 20
826.1666499999999
 30
0.0
 11
358.083305
 21
827.1666399999999
 31
0.0
  0
TEXT
  5
46F
330
469
100
AcDbEntity
  8
5
100
AcDbText
 10
358.083305
 20
626.6666499999999
 30
0.0
 40
0.075
  1
ZERO
 11
358.083305
 21
826.6666499999999
 31
0.0
100
AcDbText
  0
LINE
  5
470
330
469
100
AcDbEntity
  8
3
  6
CONTINUOUS
100
AcDbLine
 10
358.083305
 20
1326.66665
 30
0.0
 11
358.083305
 21
326.6666499999999
 31
0.0
  0
LINE
  5
471
330
469
100
AcDbEntity
  8
3
  6
CONTINUOUS
100
AcDbLine
 10
358.083305
 20
326.6666499999999
 30
0.0
 11
3358.083305
 21
326.6666499999999
 31
0.0
  0
LINE
  5
472
330
469
100
AcDbEntity
  8
3
  6
CONTINUOUS
100
AcDbLine
 10
3358.083305
 20
326.6666499999999
 30
0.0
 11
3358.083305
 21
1326.66665
 31
0.0
  0
LINE
  5
473
330
469
100
AcDbEntity
  8
3
  6
CONTINUOUS
100
AcDbLine
 10
3358.083305
 20
1326.66665
 30
0.0
 11
358.083305
 21
1326.66665
 31
0.0
  0
CIRCLE
  5
474
330
469
100
AcDbEntity
  8
4
  6
CONTINUOUS
100
AcDbCircle
 10
608.083305
 20
1076.66665
 30
0.0
 40
55.0
  0
CIRCLE
  5
475
330
469
100
AcDbEntity
  8
4
  6
CONTINUOUS
100
AcDbCircle
 10
608.083305
 20
576.6666499999999
 30
0.0
 40
55.0
  0
CIRCLE
  5
476
330
469
100
AcDbEntity
  8
4
  6
CONTINUOUS
100
AcDbCircle
 10
1108.083305
 20
1076.66665
 30
0.0
 40
55.0
  0
CIRCLE
  5
477
330
469
100
AcDbEntity
  8
4
  6
CONTINUOUS
100
AcDbCircle
 10
1108.083305
 20
576.6666499999999
 30
0.0
 40
55.0
  0
CIRCLE
  5
478
330
469
100
AcDbEntity
  8
4
  6
CONTINUOUS
100
AcDbCircle
 10
2608.083305
 20
1076.66665
 30
0.0
 40
55.0
  0
CIRCLE
  5
479
330
469
100
AcDbEntity
  8
4
  6
CONTINUOUS
100
AcDbCircle
 10
2608.083305
 20
576.6666499999999
 30
0.0
 40
55.0
  0
CIRCLE
  5
47A
330
469
100
AcDbEntity
  8
4
  6
CONTINUOUS
100
AcDbCircle
 10
3108.083305
 20
1076.66665
 30
0.0
 40
55.0
  0
CIRCLE
  5
47B
330
469
100
AcDbEntity
  8
4
  6
CONTINUOUS
100
AcDbCircle
 10
3108.083305
 20
576.6666499999999
 30
0.0
 40
55.0
  0
LINE
  5
47C
330
469
100
AcDbEntity
  8
6
  6
CONTINUOUS
100
AcDbLine
 10
338.083305
 20
326.6666499999999
 30
0.0
 11
213.083295
 21
326.6666499999999
 31
0.0
  0
LINE
  5
47D
330
469
100
AcDbEntity
  8
6
  6
CONTINUOUS
100
AcDbLine
 10
338.08338000000003
 20
1326.66665
 30
0.0
 11
213.08337
 21
1326.6666599999999
 31
0.0
  0
LINE
  5
47E
330
469
100
AcDbEntity
  8
6
  6
CONTINUOUS
100
AcDbLine
 10
213.33329
 20
326.6666499999999
 30
0.0
 11
213.33337
 21
1326.6666599999999
 31
0.0
  0
INSERT
  5
47F
330
469
100
AcDbEntity
  8
6
100
AcDbBlockReference
  2
ARROW
 10
213.33329
 20
326.6666499999999
 30
0.0
 41
13.333335
 42
13.333335
 43
2.666667
 50
-90.00000000000001
  0
INSERT
  5
481
330
469
100
AcDbEntity
  8
6
100
AcDbBlockReference
  2
ARROW
 10
213.33337
 20
1326.6666599999999
 30
0.0
 41
13.333335
 42
13.333335
 43
2.666667
 50
90.0
  0
TEXT
  5
483
330
469
100
AcDbEntity
  8
6
100
AcDbText
 10
200.0
 20
786.6666499999999
 30
0.0
 40
40.0
  1
200
 50
90.0
 11
200.0
 21
786.6666499999999
 31
0.0
100
AcDbText
  0
LINE
  5
484
330
469
100
AcDbEntity
  8
6
  6
CONTINUOUS
100
AcDbLine
 10
358.083305
 20
1346.66665
 30
0.0
 11
358.083305
 21
1471.6666599999999
 31
0.0
  0
LINE
  5
485
330
469
100
AcDbEntity
  8
6
  6
CONTINUOUS
100
AcDbLine
 10
3358.083305
 20
1346.66665
 30
0.0
 11
3358.083305
 21
1471.6666599999999
 31
0.0
  0
LINE
  5
486
330
469
100
AcDbEntity
  8
6
  6
CONTINUOUS
100
AcDbLine
 10
358.083305
 20
1471.416665
 30
0.0
 11
3358.083305
 21
1471.416665
 31
0.0
  0
INSERT
  5
487
330
469
100
AcDbEntity
  8
6
100
AcDbBlockReference
  2
ARROW
 10
358.083305
 20
1471.416665
 30
0.0
 41
13.333335
 42
13.333335
 43
2.666667
 50
180.0
  0
INSERT
  5
489
330
469
100
AcDbEntity
  8
6
100
AcDbBlockReference
  2
ARROW
 10
3358.083305
 20
1471.416665
 30
0.0
 41
13.333335
 42
13.333335
 43
2.666667
  0
TEXT
  5
48B
330
469
100
AcDbEntity
  8
6
100
AcDbText
 10
1818.083305
 20
1484.749995
 30
0.0
 40
40.0
  1
600
 11
1818.083305
 21
1484.749995
 31
0.0
100
AcDbText
  0
LINE
  5
48C
330
469
100
AcDbEntity
  8
6
  6
CONTINUOUS
100
AcDbLine
 10
3378.083305
 20
1076.66665
 30
0.0
 11
3503.083305
 21
1076.66665
 31
0.0
  0
LINE
  5
48D
330
469
100
AcDbEntity
  8
6
  6
CONTINUOUS
100
AcDbLine
 10
3378.083305
 20
1326.66665
 30
0.0
 11
3503.083305
 21
1326.66664
 31
0.0
  0
LINE
  5
48E
330
469
100
AcDbEntity
  8
6
  6
CONTINUOUS
100
AcDbLine
 10
3502.833355
 20
1076.66665
 30
0.0
 11
3502.833355
 21
1326.66664
 31
0.0
  0
INSERT
  5
48F
330
469
100
AcDbEntity
  8
6
100
AcDbBlockReference
  2
ARROW
 10
3502.833355
 20
1076.66665
 30
0.0
 41
13.333335
 42
13.333335
 43
2.666667
 50
-90.00000000000001
  0
INSERT
  5
491
330
469
100
AcDbEntity
  8
6
100
AcDbBlockReference
  2
ARROW
 10
3502.833355
 20
1326.66664
 30
0.0
 41
13.333335
 42
13.333335
 43
2.666667
 50
90.0
  0
TEXT
  5
493
330
469
100
AcDbEntity
  8
6
100
AcDbText
 10
3489.499955
 20
1174.9999899999998
 30
0.0
 40
40.0
  1
50
 50
90.0
 11
3489.499955
 21
1174.9999899999998
 31
0.0
100
AcDbText
  0
LINE
  5
494
330
469
100
AcDbEntity
  8
6
  6
CONTINUOUS
100
AcDbLine
 10
3378.083305
 20
576.6666499999999
 30
0.0
 11
3503.083305
 21
576.6666499999999
 31
0.0
  0
LINE
  5
495
330
469
100
AcDbEntity
  8
6
  6
CONTINUOUS
100
AcDbLine
 10
3378.083305
 20
1076.66665
 30
0.0
 11
3503.083305
 21
1076.66665
 31
0.0
  0
LINE
  5
496
330
469
100
AcDbEntity
  8
6
  6
CONTINUOUS
100
AcDbLine
 10
3502.833355
 20
576.6666499999999
 30
0.0
 11
3502.833355
 21
1076.66665
 31
0.0
  0
INSERT
  5
497
330
469
100
AcDbEntity
  8
6
100
AcDbBlockReference
  2
ARROW
 10
3502.833355
 20
576.6666499999999
 30
0.0
 41
13.333335
 42
13.333335
 43
2.666667
 50
-90.00000000000001
  0
INSERT
  5
499
330
469
100
AcDbEntity
  8
6
100
AcDbBlockReference
  2
ARROW
 10
3502.833355
 20
1076.66665
 30
0.0
 41
13.333335
 42
13.333335
 43
2.666667
 50
90.0
  0
TEXT
  5
49B
330
469
100
AcDbEntity
  8
6
100
AcDbText
 10
3489.499955
 20
789.9999999999999
 30
0.0
 40
40.0
  1
100
 50
90.0
 11
3489.499955
 21
789.9999999999999
 31
0.0
100
AcDbText
  0
LINE
  5
49C
330
469
100
AcDbEntity
  8
6
  6
CONTINUOUS
100
AcDbLine
 10
358.083305
 20
306.6666499999999
 30
0.0
 11
358.083305
 21
240.0
 31
0.0
  0
LINE
  5
49D
330
469
100
AcDbEntity
  8
6
  6
CONTINUOUS
100
AcDbLine
 10
608.083305
 20
306.6666499999999
 30
0.0
 11
608.083305
 21
240.0
 31
0.0
  0
LINE
  5
49E
330
469
100
AcDbEntity
  8
6
  6
CONTINUOUS
100
AcDbLine
 10
358.083305
 20
240.24999999999977
 30
0.0
 11
608.083305
 21
240.24999999999977
 31
0.0
  0
INSERT
  5
49F
330
469
100
AcDbEntity
  8
6
100
AcDbBlockReference
  2
ARROW
 10
358.083305
 20
240.24999999999977
 30
0.0
 41
13.333335
 42
13.333335
 43
2.666667
 50
180.0
  0
INSERT
  5
4A1
330
469
100
AcDbEntity
  8
6
100
AcDbBlockReference
  2
ARROW
 10
608.083305
 20
240.24999999999977
 30
0.0
 41
13.333335
 42
13.333335
 43
2.666667
  0
TEXT
  5
4A3
330
469
100
AcDbEntity
  8
6
100
AcDbText
 10
456.416645
 20
253.58339999999998
 30
0.0
 40
40.0
  1
50
 11
456.416645
 21
253.58339999999998
 31
0.0
100
AcDbText
  0
LINE
  5
4A4
330
469
100
AcDbEntity
  8
6
  6
CONTINUOUS
100
AcDbLine
 10
1108.083305
 20
306.6666499999999
 30
0.0
 11
1108.083305
 21
240.0
 31
0.0
  0
LINE
  5
4A5
330
469
100
AcDbEntity
  8
6
  6
CONTINUOUS
100
AcDbLine
 10
1054.7499549999998
 20
240.24999999999977
 30
0.0
 11
1108.083305
 21
240.24999999999977
 31
0.0
  0
INSERT
  5
4A6
330
469
100
AcDbEntity
  8
6
100
AcDbBlockReference
  2
ARROW
 10
1108.083305
 20
240.24999999999977
 30
0.0
 41
13.333335
 42
13.333335
 43
2.666667
  0
TEXT
  5
4A8
330
469
100
AcDbEntity
  8
6
100
AcDbText
 10
1021.4166550000001
 20
253.58339999999998
 30
0.0
 40
40.0
  1
150
 11
1021.4166550000001
 21
253.58339999999998
 31
0.0
100
AcDbText
  0
LINE
  5
4A9
330
469
100
AcDbEntity
  8
6
  6
CONTINUOUS
100
AcDbLine
 10
2608.083305
 20
306.6666499999999
 30
0.0
 11
2608.083305
 21
240.0
 31
0.0
  0
LINE
  5
4AA
330
469
100
AcDbEntity
  8
6
  6
CONTINUOUS
100
AcDbLine
 10
2554.7500050000003
 20
240.24999999999977
 30
0.0
 11
2608.083305
 21
240.24999999999977
 31
0.0
  0
INSERT
  5
4AB
330
469
100
AcDbEntity
  8
6
100
AcDbBlockReference
  2
ARROW
 10
2608.083305
 20
240.24999999999977
 30
0.0
 41
13.333335
 42
13.333335
 43
2.666667
  0
TEXT
  5
4AD
330
469
100
AcDbEntity
  8
6
100
AcDbText
 10
2514.7500050000003
 20
253.58339999999998
 30
0.0
 40
40.0
  1
450
 11
2514.7500050000003
 21
253.58339999999998
 31
0.0
100
AcDbText
  0
LINE
  5
4AE
330
469
100
AcDbEntity
  8
6
  6
CONTINUOUS
100
AcDbLine
 10
3108.083305
 20
306.6666499999999
 30
0.0
 11
3108.083305
 21
240.0
 31
0.0
  0
LINE
  5
4AF
330
469
100
AcDbEntity
  8
6
  6
CONTINUOUS
100
AcDbLine
 10
3054.749855
 20
240.24999999999977
 30
0.0
 11
3108.083305
 21
240.24999999999977
 31
0.0
  0
INSERT
  5
4B0
330
469
100
AcDbEntity
  8
6
100
AcDbBlockReference
  2
ARROW
 10
3108.083305
 20
240.24999999999977
 30
0.0
 41
13.333335
 42
13.333335
 43
2.666667
  0
TEXT
  5
4B2
330
469
100
AcDbEntity
  8
6
100
AcDbText
 10
3014.749855
 20
253.58339999999998
 30
0.0
 40
40.0
  1
550
 11
3014.749855
 21
253.58339999999998
 31
0.0
100
AcDbText
  0
TEXT
  5
4B3
330
469
100
AcDbEntity
  8
6
100
AcDbText
 10
608.083305
 20
1379.9999799999998
 30
0.0
 40
40.0
  1
DIA:22
 11
608.083305
 21
1379.9999799999998
 31
0.0
100
AcDbText
  0
MTEXT
  5
4B4
330
469
100
AcDbEntity
  8
0
100
AcDbMText
 10
1868.7484774999998
 20
140.0
 30
0.0
 40
40.0
 71
5
  1
EP2\P(SCALE 1:5)
  0
ENDBLK
  5
46B
330
469
100
AcDbEntity
  8
0
100
AcDbBlockEnd
  0
BLOCK
  5
4B6
330
4B5
100
AcDbEntity
  8
2
100
AcDbBlockBegin
  2
SS5
 70
0
 10
0.0
 20
0.0
 30
0.0
  3
SS5
  1

  0
CIRCLE
  5
4B8
330
4B5
100
AcDbEntity
  8
5
  6
CONTINUOUS
100
AcDbCircle
 10
288.316634
 20
660.0
 30
0.0
 40
0.7000000000000001
  0
LINE
  5
4B9
330
4B5
100
AcDbEntity
  8
5
  6
CONTINUOUS
100
AcDbLine
 10
287.616634
 20
660.0
 30
0.0
 11
289.016634
 21
660.0
 31
0.0
  0
LINE
  5
4BA
330
4B5
100
AcDbEntity
  8
5
  6
CONTINUOUS
100
AcDbLine
 10
288.316634
 20
659.300014
 30
0.0
 11
288.316634
 21
660.699986
 31
0.0
  0
TEXT
  5
4BB
330
4B5
100
AcDbEntity
  8
5
100
AcDbText
 10
288.316634
 20
460.0
 30
0.0
 40
0.105
  1
ZERO
 11
288.316634
 21
660.0
 31
0.0
100
AcDbText
  0
LINE
  5
4BC
330
4B5
100
AcDbEntity
  8
3
  6
CONTINUOUS
100
AcDbLine
 10
288.316634
 20
240.0
 30
0.0
 11
964.698627
 21
240.0
 31
0.0
  0
LINE
  5
4BD
330
4B5
100
AcDbEntity
  8
3
  6
CONTINUOUS
100
AcDbLine
 10
964.698627
 20
240.0
 30
0.0
 11
1048.698634
 21
1080.0
 31
0.0
  0
LINE
  5
4BE
330
4B5
100
AcDbEntity
  8
3
  6
CONTINUOUS
100
AcDbLine
 10
1048.698634
 20
1080.0
 30
0.0
 11
288.316634
 21
240.0
 31
0.0
  0
LINE
  5
4BF
330
4B5
100
AcDbEntity
  8
6
  6
CONTINUOUS
100
AcDbLine
 10
277.116634
 20
240.0
 30
0.0
 11
207.11663399999998
 21
240.0
 31
0.0
  0
LINE
  5
4C0
330
4B5
100
AcDbEntity
  8
6
  6
CONTINUOUS
100
AcDbLine
 10
277.116697
 20
1080.0
 30
0.0
 11
207.116697
 21
1080.000007
 31
0.0
  0
LINE
  5
4C1
330
4B5
100
AcDbEntity
  8
6
  6
CONTINUOUS
100
AcDbLine
 10
207.466634
 20
240.0
 30
0.0
 11
207.466697
 21
1080.000007
 31
0.0
  0
INSERT
  5
4C2
330
4B5
100
AcDbEntity
  8
6
100
AcDbBlockReference
  2
ARROW
 10
207.466634
 20
240.0
 30
0.0
 41
7.4666690000000004
 42
7.4666690000000004
 43
1.066667
 50
-90.00000000000001
  0
INSERT
  5
4C4
330
4B5
100
AcDbEntity
  8
6
100
AcDbBlockReference
  2
ARROW
 10
207.466697
 20
1080.000007
 30
0.0
 41
7.4666690000000004
 42
7.4666690000000004
 43
1.066667
 50
90.0
  0
TEXT
  5
4C6
330
4B5
100
AcDbEntity
  8
6
100
AcDbText
 10
200.0
 20
639.466662
 30
0.0
 40
40.0
  1
120
 50
90.0
 11
200.0
 21
639.466662
 31
0.0
100
AcDbText
  0
LINE
  5
4C7
330
4B5
100
AcDbEntity
  8
6
  6
CONTINUOUS
100
AcDbLine
 10
288.316634
 20
1091.2
 30
0.0
 11
288.316634
 21
1161.2
 31
0.0
  0
LINE
  5
4C8
330
4B5
100
AcDbEntity
  8
6
  6
CONTINUOUS
100
AcDbLine
 10
1048.698634
 20
1091.2
 30
0.0
 11
1048.698634
 21
1161.2
 31
0.0
  0
LINE
  5
4C9
330
4B5
100
AcDbEntity
  8
6
  6
CONTINUOUS
100
AcDbLine
 10
288.316634
 20
1160.85
 30
0.0
 11
1048.698634
 21
1160.85
 31
0.0
  0
INSERT
  5
4CA
330
4B5
100
AcDbEntity
  8
6
100
AcDbBlockReference
  2
ARROW
 10
288.316634
 20
1160.85
 30
0.0
 41
7.4666690000000004
 42
7.4666690000000004
 43
1.066667
 50
180.0
  0
INSERT
  5
4CC
330
4B5
100
AcDbEntity
  8
6
100
AcDbBlockReference
  2
ARROW
 10
1048.698634
 20
1160.85
 30
0.0
 41
7.4666690000000004
 42
7.4666690000000004
 43
1.066667
  0
TEXT
  5
4CE
330
4B5
100
AcDbEntity
  8
6
100
AcDbText
 10
647.974289
 20
1168.316669
 30
0.0
 40
40.0
  1
109
 11
647.974289
 21
1168.316669
 31
0.0
100
AcDbText
  0
MTEXT
  5
4CF
330
4B5
100
AcDbEntity
  8
0
100
AcDbMText
 10
624.349317
 20
140.0
 30
0.0
 40
40.0
 71
5
  1
SS5\P(SCALE 1:7)
  0
ENDBLK
  5
4B7
330
4B5
100
AcDbEntity
  8
0
100
AcDbBlockEnd
  0
BLOCK
  5
4D1
330
4D0
100
AcDbEntity
  8
2
100
AcDbBlockBegin
  2
SS6
 70
0
 10
0.0
 20
0.0
 30
0.0
  3
SS6
  1

  0
CIRCLE
  5
4D3
330
4D0
100
AcDbEntity
  8
5
  6
CONTINUOUS
100
AcDbCircle
 10
288.316634
 20
660.0
 30
0.0
 40
0.7000000000000001
  0
LINE
  5
4D4
330
4D0
100
AcDbEntity
  8
5
  6
CONTINUOUS
100
AcDbLine
 10
287.616634
 20
660.0
 30
0.0
 11
289.016634
 21
660.0
 31
0.0
  0
LINE
  5
4D5
330
4D0
100
AcDbEntity
  8
5
  6
CONTINUOUS
100
AcDbLine
 10
288.316634
 20
659.300014
 30
0.0
 11
288.316634
 21
660.699986
 31
0.0
  0
TEXT
  5
4D6
330
4D0
100
AcDbEntity
  8
5
100
AcDbText
 10
288.316634
 20
460.0
 30
0.0
 40
0.105
  1
ZERO
 11
288.316634
 21
660.0
 31
0.0
100
AcDbText
  0
LINE
  5
4D7
330
4D0
100
AcDbEntity
  8
3
  6
CONTINUOUS
100
AcDbLine
 10
839.8816200000001
 20
1080.0
 30
0.0
 11
288.316634
 21
240.0
 31
0.0
  0
LINE
  5
4D8
330
4D0
100
AcDbEntity
  8
3
  6
CONTINUOUS
100
AcDbLine
 10
288.316634
 20
240.0
 30
0.0
 11
939.7576620000001
 21
240.0
 31
0.0
  0
LINE
  5
4D9
330
4D0
100
AcDbEntity
  8
3
  6
CONTINUOUS
100
AcDbLine
 10
939.7576620000001
 20
240.0
 30
0.0
 11
839.8886689999999
 21
1080.0
 31
0.0
  0
LINE
  5
4DA
330
4D0
100
AcDbEntity
  8
3
  6
CONTINUOUS
100
AcDbLine
 10
839.8886689999999
 20
1080.0
 30
0.0
 11
839.8816200000001
 21
1080.0
 31
0.0
  0
LINE
  5
4DB
330
4D0
100
AcDbEntity
  8
6
  6
CONTINUOUS
100
AcDbLine
 10
277.116634
 20
240.0
 30
0.0
 11
207.11663399999998
 21
240.0
 31
0.0
  0
LINE
  5
4DC
330
4D0
100
AcDbEntity
  8
6
  6
CONTINUOUS
100
AcDbLine
 10
277.116697
 20
1080.0
 30
0.0
 11
207.116697
 21
1080.000007
 31
0.0
  0
LINE
  5
4DD
330
4D0
100
AcDbEntity
  8
6
  6
CONTINUOUS
100
AcDbLine
 10
207.466634
 20
240.0
 30
0.0
 11
207.466697
 21
1080.000007
 31
0.0
  0
INSERT
  5
4DE
330
4D0
100
AcDbEntity
  8
6
100
AcDbBlockReference
  2
ARROW
 10
207.466634
 20
240.0
 30
0.0
 41
7.4666690000000004
 42
7.4666690000000004
 43
1.066667
 50
-90.00000000000001
  0
INSERT
  5
4E0
330
4D0
100
AcDbEntity
  8
6
100
AcDbBlockReference
  2
ARROW
 10
207.466697
 20
1080.000007
 30
0.0
 41
7.4666690000000004
 42
7.4666690000000004
 43
1.066667
 50
90.0
  0
TEXT
  5
4E2
330
4D0
100
AcDbEntity
  8
6
100
AcDbText
 10
200.0
 20
639.466662
 30
0.0
 40
40.0
  1
120
 50
90.0
 11
200.0
 21
639.466662
 31
0.0
100
AcDbText
  0
LINE
  5
4E3
330
4D0
100
AcDbEntity
  8
6
  6
CONTINUOUS
100
AcDbLine
 10
288.316634
 20
1091.2
 30
0.0
 11
288.316634
 21
1161.2
 31
0.0
  0
LINE
  5
4E4
330
4D0
100
AcDbEntity
  8
6
  6
CONTINUOUS
100
AcDbLine
 10
939.7576620000001
 20
1091.2
 30
0.0
 11
939.7576620000001
 21
1161.2
 31
0.0
  0
LINE
  5
4E5
330
4D0
100
AcDbEntity
  8
6
  6
CONTINUOUS
100
AcDbLine
 10
288.316634
 20
1160.85
 30
0.0
 11
939.7576620000001
 21
1160.85
 31
0.0
  0
INSERT
  5
4E6
330
4D0
100
AcDbEntity
  8
6
100
AcDbBlockReference
  2
ARROW
 10
288.316634
 20
1160.85
 30
0.0
 41
7.4666690000000004
 42
7.4666690000000004
 43
1.066667
 50
180.0
  0
INSERT
  5
4E8
330
4D0
100
AcDbEntity
  8
6
100
AcDbBlockReference
  2
ARROW
 10
939.7576620000001
 20
1160.85
 30
0.0
 41
7.4666690000000004
 42
7.4666690000000004
 43
1.066667
  0
TEXT
  5
4EA
330
4D0
100
AcDbEntity
  8
6
100
AcDbText
 10
599.103824
 20
1168.316669
 30
0.0
 40
40.0
  1
93
 11
599.103824
 21
1168.316669
 31
0.0
100
AcDbText
  0
MTEXT
  5
4EB
330
4D0
100
AcDbEntity
  8
0
100
AcDbMText
 10
569.878831
 20
140.0
 30
0.0
 40
40.0
 71
5
  1
SS6\P(SCALE 1:7)
  0
ENDBLK
  5
4D2
330
4D0
100
AcDbEntity
  8
0
100
AcDbBlockEnd
  0
BLOCK
  5
4ED
330
4EC
100
AcDbEntity
  8
2
100
AcDbBlockBegin
  2
SS3
 70
0
 10
0.0
 20
0.0
 30
0.0
  3
SS3
  1

  0
CIRCLE
  5
4EF
330
4EC
100
AcDbEntity
  8
5
  6
CONTINUOUS
100
AcDbCircle
 10
288.316634
 20
660.0
 30
0.0
 40
0.7000000000000001
  0
LINE
  5
4F0
330
4EC
100
AcDbEntity
  8
5
  6
CONTINUOUS
100
AcDbLine
 10
287.616634
 20
660.0
 30
0.0
 11
289.016634
 21
660.0
 31
0.0
  0
LINE
  5
4F1
330
4EC
100
AcDbEntity
  8
5
  6
CONTINUOUS
100
AcDbLine
 10
288.316634
 20
659.300014
 30
0.0
 11
288.316634
 21
660.699986
 31
0.0
  0
TEXT
  5
4F2
330
4EC
100
AcDbEntity
  8
5
100
AcDbText
 10
288.316634
 20
460.0
 30
0.0
 40
0.105
  1
ZERO
 11
288.316634
 21
660.0
 31
0.0
100
AcDbText
  0
LINE
  5
4F3
330
4EC
100
AcDbEntity
  8
3
  6
CONTINUOUS
100
AcDbLine
 10
288.316634
 20
240.0
 30
0.0
 11
953.316634
 21
240.0
 31
0.0
  0
LINE
  5
4F4
330
4EC
100
AcDbEntity
  8
3
  6
CONTINUOUS
100
AcDbLine
 10
953.316634
 20
240.0
 30
0.0
 11
953.316634
 21
1080.0
 31
0.0
  0
LINE
  5
4F5
330
4EC
100
AcDbEntity
  8
3
  6
CONTINUOUS
100
AcDbLine
 10
953.316634
 20
1080.0
 30
0.0
 11
288.316634
 21
240.0
 31
0.0
  0
LINE
  5
4F6
330
4EC
100
AcDbEntity
  8
6
  6
CONTINUOUS
100
AcDbLine
 10
277.116634
 20
240.0
 30
0.0
 11
207.11663399999998
 21
240.0
 31
0.0
  0
LINE
  5
4F7
330
4EC
100
AcDbEntity
  8
6
  6
CONTINUOUS
100
AcDbLine
 10
277.116697
 20
1080.0
 30
0.0
 11
207.116697
 21
1080.000007
 31
0.0
  0
LINE
  5
4F8
330
4EC
100
AcDbEntity
  8
6
  6
CONTINUOUS
100
AcDbLine
 10
207.466634
 20
240.0
 30
0.0
 11
207.466697
 21
1080.000007
 31
0.0
  0
INSERT
  5
4F9
330
4EC
100
AcDbEntity
  8
6
100
AcDbBlockReference
  2
ARROW
 10
207.466634
 20
240.0
 30
0.0
 41
7.4666690000000004
 42
7.4666690000000004
 43
1.066667
 50
-90.00000000000001
  0
INSERT
  5
4FB
330
4EC
100
AcDbEntity
  8
6
100
AcDbBlockReference
  2
ARROW
 10
207.466697
 20
1080.000007
 30
0.0
 41
7.4666690000000004
 42
7.4666690000000004
 43
1.066667
 50
90.0
  0
TEXT
  5
4FD
330
4EC
100
AcDbEntity
  8
6
100
AcDbText
 10
200.0
 20
639.466662
 30
0.0
 40
40.0
  1
120
 50
90.0
 11
200.0
 21
639.466662
 31
0.0
100
AcDbText
  0
LINE
  5
4FE
330
4EC
100
AcDbEntity
  8
6
  6
CONTINUOUS
100
AcDbLine
 10
288.316634
 20
1091.2
 30
0.0
 11
288.316634
 21
1161.2
 31
0.0
  0
LINE
  5
4FF
330
4EC
100
AcDbEntity
  8
6
  6
CONTINUOUS
100
AcDbLine
 10
953.316634
 20
1091.2
 30
0.0
 11
953.316634
 21
1161.2
 31
0.0
  0
LINE
  5
500
330
4EC
100
AcDbEntity
  8
6
  6
CONTINUOUS
100
AcDbLine
 10
288.316634
 20
1160.85
 30
0.0
 11
953.316634
 21
1160.85
 31
0.0
  0
INSERT
  5
501
330
4EC
100
AcDbEntity
  8
6
100
AcDbBlockReference
  2
ARROW
 10
288.316634
 20
1160.85
 30
0.0
 41
7.4666690000000004
 42
7.4666690000000004
 43
1.066667
 50
180.0
  0
INSERT
  5
503
330
4EC
100
AcDbEntity
  8
6
100
AcDbBlockReference
  2
ARROW
 10
953.316634
 20
1160.85
 30
0.0
 41
7.4666690000000004
 42
7.4666690000000004
 43
1.066667
  0
TEXT
  5
505
330
4EC
100
AcDbEntity
  8
6
100
AcDbText
 10
605.883317
 20
1168.316669
 30
0.0
 40
40.0
  1
95
 11
605.883317
 21
1168.316669
 31
0.0
100
AcDbText
  0
MTEXT
  5
506
330
4EC
100
AcDbEntity
  8
0
100
AcDbMText
 10
576.658317
 20
140.0
 30
0.0
 40
40.0
 71
5
  1
SS3\P(SCALE 1:7)
  0
ENDBLK
  5
4EE
330
4EC
100
AcDbEntity
  8
0
100
AcDbBlockEnd
  0
ENDSEC
  0
SECTION
  2
ENTITIES
  0
LWPOLYLINE
  5
507
330
17
100
AcDbEntity
  8
0
100
AcDbPolyline
 90
4
 70
1
 10
0.0
 20
0.0
 10
11550.023760000002
 20
0.0
 10
11550.023760000002
 20
8168.3336350777945
 10
0.0
 20
8168.3336350777945
  0
INSERT
  5
508
330
17
100
AcDbEntity
  8
0
100
AcDbBlockReference
  2
PART_TABLE_BLOCK
 10
0.0
 20
0.0
 30
0.0
  0
INSERT
  5
50A
330
17
100
AcDbEntity
  8
0
100
AcDbBlockReference
  2
Title_Block
 10
11550.023760000002
 20
0.0
 30
0.0
  0
INSERT
  5
50C
330
17
100
AcDbEntity
  8
0
100
AcDbBlockReference
  2
FLAT_ASMPIECE
 10
0.0
 20
6862.603635077795
 30
0.0
  0
LWPOLYLINE
  5
50E
330
17
100
AcDbEntity
  8
0
100
AcDbPolyline
 90
5
 70
0
 10
0.0
 20
6862.603635077795
 10
6925.019800000002
 20
6862.603635077795
 10
6925.019800000002
 20
8168.3336350777945
 10
0.0
 20
8168.3336350777945
 10
0.0
 20
6862.603635077795
  0
INSERT
  5
50F
330
17
100
AcDbEntity
  8
0
100
AcDbBlockReference
  2
FLAT_ASMSECTN
 10
6935.019800000002
 20
6953.818635077794
 30
0.0
  0
LWPOLYLINE
  5
511
330
17
100
AcDbEntity
  8
0
100
AcDbPolyline
 90
5
 70
0
 10
6935.019800000002
 20
6953.818635077794
 10
8385.364800000001
 20
6953.818635077794
 10
8385.364800000001
 20
8168.333635077794
 10
6935.019800000002
 20
8168.333635077794
 10
6935.019800000002
 20
6953.818635077794
  0
INSERT
  5
512
330
17
100
AcDbEntity
  8
0
100
AcDbBlockReference
  2
EP2
 10
6925.0
 20
700.0
 30
0.0
  0
INSERT
  5
514
330
17
100
AcDbEntity
  8
0
100
AcDbBlockReference
  2
EP3
 10
6925.0
 20
2311.0
 30
0.0
  0
INSERT
  5
516
330
17
100
AcDbEntity
  8
0
100
AcDbBlockReference
  2
OF3
 10
8385.0
 20
3878.0
 30
0.0
  0
INSERT
  5
518
330
17
100
AcDbEntity
  8
0
100
AcDbBlockReference
  2
ES1
 10
6925.0
 20
3878.0
 30
0.0
  0
INSERT
  5
51A
330
17
100
AcDbEntity
  8
0
100
AcDbBlockReference
  2
CLF1
 10
8300.0
 20
5244.0
 30
0.0
  0
INSERT
  5
51C
330
17
100
AcDbEntity
  8
0
100
AcDbBlockReference
  2
CLF4
 10
2700.0
 20
0.0
 30
0.0
  0
INSERT
  5
51E
330
17
100
AcDbEntity
  8
0
100
AcDbBlockReference
  2
ST4
 10
8385.0
 20
6912.0
 30
0.0
  0
INSERT
  5
520
330
17
100
AcDbEntity
  8
0
100
AcDbBlockReference
  2
WB2
 10
0.0
 20
6026.0
 30
0.0
  0
INSERT
  5
522
330
17
100
AcDbEntity
  8
0
100
AcDbBlockReference
  2
OF2
 10
3769.0
 20
6026.0
 30
0.0
  0
INSERT
  5
524
330
17
100
AcDbEntity
  8
0
100
AcDbBlockReference
  2
IF2
 10
2700.0
 20
1580.0
 30
0.0
  0
INSERT
  5
526
330
17
100
AcDbEntity
  8
0
100
AcDbBlockReference
  2
SS5
 10
10113.0
 20
2311.0
 30
0.0
  0
INSERT
  5
528
330
17
100
AcDbEntity
  8
0
100
AcDbBlockReference
  2
SS3
 10
10065.0
 20
5244.0
 30
0.0
  0
INSERT
  5
52A
330
17
100
AcDbEntity
  8
0
100
AcDbBlockReference
  2
SS6
 10
0.0
 20
2100.0
 30
0.0
  0
ENDSEC
  0
SECTION
  2
OBJECTS
  0
DICTIONARY
  5
A
330
0
100
AcDbDictionary
281
1
  3
ACAD_COLOR
350
B
  3
ACAD_GROUP
350
C
  3
ACAD_LAYOUT
350
D
  3
ACAD_MATERIAL
350
E
  3
ACAD_MLEADERSTYLE
350
F
  3
ACAD_MLINESTYLE
350
10
  3
ACAD_PLOTSETTINGS
350
11
  3
ACAD_PLOTSTYLENAME
350
12
  3
ACAD_SCALELIST
350
14
  3
ACAD_TABLESTYLE
350
15
  3
ACAD_VISUALSTYLE
350
16
  3
EZDXF_META
350
2D
  3
ACAD_IMAGE_VARS
350
2D0
  3
ACAD_IMAGE_DICT
350
2D1
  0
DICTIONARY
  5
B
330
A
100
AcDbDictionary
281
1
  0
DICTIONARY
  5
C
330
A
100
AcDbDictionary
281
1
  0
DICTIONARY
  5
D
330
A
100
AcDbDictionary
281
1
  3
Model
350
1A
  3
Layout1
350
1E
  0
DICTIONARY
  5
E
330
A
100
AcDbDictionary
281
1
  3
ByBlock
350
1F
  3
ByLayer
350
20
  3
Global
350
21
  0
DICTIONARY
  5
F
330
A
100
AcDbDictionary
281
1
  3
Standard
350
2C
  0
DICTIONARY
  5
10
330
A
100
AcDbDictionary
281
1
  3
Standard
350
22
  0
DICTIONARY
  5
11
330
A
100
AcDbDictionary
281
1
  0
ACDBDICTIONARYWDFLT
  5
12
330
A
100
AcDbDictionary
281
1
  3
Normal
350
13
100
AcDbDictionaryWithDefault
340
13
  0
ACDBPLACEHOLDER
  5
13
330
12
  0
DICTIONARY
  5
14
330
A
100
AcDbDictionary
281
1
  0
DICTIONARY
  5
15
330
A
100
AcDbDictionary
281
1
  0
DICTIONARY
  5
16
330
A
100
AcDbDictionary
281
1
  0
LAYOUT
  5
1A
330
D
100
AcDbPlotSettings
  1

  4
A3
  6

 40
7.5
 41
20.0
 42
7.5
 43
20.0
 44
420.0
 45
297.0
 46
0.0
 47
0.0
 48
0.0
 49
0.0
140
0.0
141
0.0
142
1.0
143
1.0
 70
1024
 72
1
 73
0
 74
5
  7

 75
16
 76
0
 77
2
 78
300
147
1.0
148
0.0
149
0.0
100
AcDbLayout
  1
Model
 70
1
 71
0
 10
0.0
 20
0.0
 11
420.0
 21
297.0
 12
0.0
 22
0.0
 32
0.0
 14
1e+20
 24
1e+20
 34
1e+20
 15
-1e+20
 25
-1e+20
 35
-1e+20
146
0.0
 13
0.0
 23
0.0
 33
0.0
 16
1.0
 26
0.0
 36
0.0
 17
0.0
 27
1.0
 37
0.0
 76
1
330
17
  0
LAYOUT
  5
1E
330
D
100
AcDbPlotSettings
  1

  4
A3
  6

 40
7.5
 41
20.0
 42
7.5
 43
20.0
 44
420.0
 45
297.0
 46
0.0
 47
0.0
 48
0.0
 49
0.0
140
0.0
141
0.0
142
1.0
143
1.0
 70
0
 72
1
 73
0
 74
5
  7

 75
16
 76
0
 77
2
 78
300
147
1.0
148
0.0
149
0.0
100
AcDbLayout
  1
Layout1
 70
1
 71
1
 10
0.0
 20
0.0
 11
420.0
 21
297.0
 12
0.0
 22
0.0
 32
0.0
 14
1e+20
 24
1e+20
 34
1e+20
 15
-1e+20
 25
-1e+20
 35
-1e+20
146
0.0
 13
0.0
 23
0.0
 33
0.0
 16
1.0
 26
0.0
 36
0.0
 17
0.0
 27
1.0
 37
0.0
 76
1
330
1B
  0
MATERIAL
  5
1F
102
{ACAD_REACTORS
330
E
102
}
330
E
100
AcDbMaterial
  1
ByBlock
  2

 70
0
 40
1.0
 71
1
 41
1.0
 91
-1023410177
 42
1.0
 72
1
  3

 73
1
 74
1
 75
1
 44
0.5
 73
0
 45
1.0
 46
1.0
 77
1
  4

 78
1
 79
1
170
1
 48
1.0
171
1
  6

172
1
173
1
174
1
140
1.0
141
1.0
175
1
  7

176
1
177
1
178
1
143
1.0
179
1
  8

270
1
271
1
272
1
145
1.0
146
1.0
273
1
  9

274
1
275
1
276
1
 42
1.0
 72
1
  3

 73
1
 74
1
 75
1
 94
63
  0
MATERIAL
  5
20
102
{ACAD_REACTORS
330
E
102
}
330
E
100
AcDbMaterial
  1
ByLayer
  2

 70
0
 40
1.0
 71
1
 41
1.0
 91
-1023410177
 42
1.0
 72
1
  3

 73
1
 74
1
 75
1
 44
0.5
 73
0
 45
1.0
 46
1.0
 77
1
  4

 78
1
 79
1
170
1
 48
1.0
171
1
  6

172
1
173
1
174
1
140
1.0
141
1.0
175
1
  7

176
1
177
1
178
1
143
1.0
179
1
  8

270
1
271
1
272
1
145
1.0
146
1.0
273
1
  9

274
1
275
1
276
1
 42
1.0
 72
1
  3

 73
1
 74
1
 75
1
 94
63
  0
MATERIAL
  5
21
102
{ACAD_REACTORS
330
E
102
}
330
E
100
AcDbMaterial
  1
Global
  2

 70
0
 40
1.0
 71
1
 41
1.0
 91
-1023410177
 42
1.0
 72
1
  3

 73
1
 74
1
 75
1
 44
0.5
 73
0
 45
1.0
 46
1.0
 77
1
  4

 78
1
 79
1
170
1
 48
1.0
171
1
  6

172
1
173
1
174
1
140
1.0
141
1.0
175
1
  7

176
1
177
1
178
1
143
1.0
179
1
  8

270
1
271
1
272
1
145
1.0
146
1.0
273
1
  9

274
1
275
1
276
1
 42
1.0
 72
1
  3

 73
1
 74
1
 75
1
 94
63
  0
MLINESTYLE
  5
22
102
{ACAD_REACTORS
330
10
102
}
330
10
100
AcDbMlineStyle
  2
Standard
 70
0
  3

 62
256
 51
90.0
 52
90.0
 71
2
 49
0.5
 62
256
  6
BYLAYER
 49
-0.5
 62
256
  6
BYLAYER
  0
MLEADERSTYLE
  5
2C
102
{ACAD_REACTORS
330
F
102
}
330
F
100
AcDbMLeaderStyle
179
2
170
2
171
1
172
0
 90
2
 40
0.0
 41
0.0
173
1
 91
-1056964608
 92
-2
290
1
 42
2.0
291
1
 43
8.0
  3
Standard
 44
4.0
300

342
29
174
1
175
1
176
0
178
1
 93
-1056964608
 45
4.0
292
0
297
0
 46
4.0
 94
-1056964608
 47
1.0
 49
1.0
140
1.0
294
1
141
0.0
177
0
142
1.0
295
0
296
0
143
3.75
271
0
272
9
273
9
  0
DICTIONARY
  5
2D
330
A
100
AcDbDictionary
280
1
281
1
  3
CREATED_BY_EZDXF
350
2E
  3
WRITTEN_BY_EZDXF
350
52F
  0
DICTIONARYVAR
  5
2E
330
2D
100
DictionaryVariables
280
0
  1
1.4.2 @ 2026-01-29T05:13:10.494237+00:00
  0
RASTERVARIABLES
  5
2D0
102
{ACAD_REACTORS
330
A
102
}
330
A
100
AcDbRasterVariables
 90
0
 70
0
 71
1
 72
3
  0
DICTIONARY
  5
2D1
330
A
100
AcDbDictionary
281
1
  3
C:\Users\Design\AppData\Local\Temp\_MEI218962\Images\TitleLogo.PNG
350
2D2
  0
IMAGEDEF
  5
2D2
102
{ACAD_REACTORS
330
2D1
330
2D4
102
}
330
2D1
100
AcDbRasterImageDef
 90
0
  1
C:\Users\Design\AppData\Local\Temp\_MEI218962\Images\TitleLogo.PNG
 10
229.0
 20
276.0
 11
0.01
 21
0.01
280
1
281
0
  0
IMAGEDEF_REACTOR
  5
2D4
330
2D3
100
AcDbRasterImageDefReactor
 90
2
330
2D3
  0
DICTIONARYVAR
  5
52F
330
2D
100
DictionaryVariables
280
0
  1
1.4.2 @ 2026-01-29T05:13:10.978159+00:00
  0
ENDSEC
  0
EOF
