999
SOURCE:MBS   PROGRAM:PLT_DXF   CELL:RF_WEB   CLASS:SCALED   MODE:---
  0
SECTION
  2
HEADER
  9
$EXTMIN
 10
          0.000
 20
          0.000
  9
$EXTMAX
 10
       2906.126
 20
       1828.855
  9
$LIMMIN
 10
          0.000
 20
          0.000
  9
$LIMMAX
 10
       2906.126
 20
       1828.855
  9
$FILLMODE
 70
     1
  9
$LTSCALE
 40
  0.125
  9
$HANDLING
 70
     0
  0
ENDSEC
  0
SECTION
  2
TABLES
  0
TABLE
  2
LTYPE
 70
     3
  0
LTYPE
  2
CONTINUOUS
 70
    64
  3
SOLID LINE
 72
    65
 73
     0
 40
0.0
  0
LTYPE
  2
CENTER
 70
    64
  3
____ _ ____ _ ____ _ ____ _ ____ _ ____ _ ____
 72
    65
 73
     4
 40
2.0
 49
1.25
 49
-0.25
 49
0.25
 49
-0.25
  0
LTYPE
  2
DASHED
 70
    64
  3
__ __ __ __ __ __ __ __ __ __ __ __ __ __ __ 
 72
    65
 73
     2
 40
0.75
 49
0.5
 49
-0.25
  0
ENDTAB
  0
TABLE
  2
LAYER
 70
    51
  0
LAYER
  2
0
 70
     0
 62
     7
  6
CONTINUOUS
  0
LAYER
  2
1
 70
     0
 62
     7
  6
CONTINUOUS
  0
LAYER
  2
2
 70
     0
 62
     7
  6
CONTINUOUS
  0
LAYER
  2
3
 70
     0
 62
     1
  6
CONTINUOUS
  0
LAYER
  2
4
 70
     0
 62
     1
  6
CONTINUOUS
  0
LAYER
  2
5
 70
     0
 62
     7
  6
CONTINUOUS
  0
LAYER
  2
6
 70
     0
 62
     4
  6
CONTINUOUS
  0
LAYER
  2
7
 70
     0
 62
     3
  6
CONTINUOUS
  0
LAYER
  2
8
 70
     0
 62
     3
  6
CONTINUOUS
  0
LAYER
  2
9
 70
     0
 62
     7
  6
CONTINUOUS
  0
LAYER
  2
10
 70
     0
 62
     7
  6
CONTINUOUS
  0
LAYER
  2
11
 70
     0
 62
     7
  6
CONTINUOUS
  0
LAYER
  2
12
 70
     0
 62
     2
  6
CONTINUOUS
  0
LAYER
  2
13
 70
     0
 62
     2
  6
CONTINUOUS
  0
LAYER
  2
14
 70
     0
 62
     7
  6
CONTINUOUS
  0
LAYER
  2
15
 70
     0
 62
     6
  6
CONTINUOUS
  0
LAYER
  2
16
 70
     0
 62
     7
  6
CONTINUOUS
  0
LAYER
  2
17
 70
     0
 62
     7
  6
CONTINUOUS
  0
LAYER
  2
18
 70
     0
 62
     4
  6
CONTINUOUS
  0
LAYER
  2
19
 70
     0
 62
     7
  6
CONTINUOUS
  0
LAYER
  2
20
 70
     0
 62
     7
  6
CONTINUOUS
  0
LAYER
  2
21
 70
     0
 62
     7
  6
CONTINUOUS
  0
LAYER
  2
22
 70
     0
 62
     7
  6
CONTINUOUS
  0
LAYER
  2
23
 70
     0
 62
     7
  6
CONTINUOUS
  0
LAYER
  2
24
 70
     0
 62
     7
  6
CONTINUOUS
  0
LAYER
  2
25
 70
     0
 62
     7
  6
CONTINUOUS
  0
LAYER
  2
26
 70
     0
 62
     7
  6
CONTINUOUS
  0
LAYER
  2
27
 70
     0
 62
     7
  6
CONTINUOUS
  0
LAYER
  2
28
 70
     0
 62
     7
  6
CONTINUOUS
  0
LAYER
  2
29
 70
     0
 62
     7
  6
CONTINUOUS
  0
LAYER
  2
30
 70
     0
 62
     7
  6
CONTINUOUS
  0
LAYER
  2
31
 70
     0
 62
     7
  6
CONTINUOUS
  0
LAYER
  2
32
 70
     0
 62
     7
  6
CONTINUOUS
  0
LAYER
  2
33
 70
     0
 62
     7
  6
CONTINUOUS
  0
LAYER
  2
34
 70
     0
 62
     7
  6
CONTINUOUS
  0
LAYER
  2
35
 70
     0
 62
     7
  6
CONTINUOUS
  0
LAYER
  2
36
 70
     0
 62
     7
  6
CONTINUOUS
  0
LAYER
  2
37
 70
     0
 62
     7
  6
CONTINUOUS
  0
LAYER
  2
38
 70
     0
 62
     7
  6
CONTINUOUS
  0
LAYER
  2
39
 70
     0
 62
     7
  6
CONTINUOUS
  0
LAYER
  2
40
 70
     0
 62
     7
  6
CONTINUOUS
  0
LAYER
  2
41
 70
     0
 62
     7
  6
CONTINUOUS
  0
LAYER
  2
42
 70
     0
 62
     7
  6
CONTINUOUS
  0
LAYER
  2
43
 70
     0
 62
     7
  6
CONTINUOUS
  0
LAYER
  2
44
 70
     0
 62
     7
  6
CONTINUOUS
  0
LAYER
  2
45
 70
     0
 62
     7
  6
CONTINUOUS
  0
LAYER
  2
46
 70
     0
 62
     7
  6
CONTINUOUS
  0
LAYER
  2
47
 70
     0
 62
     7
  6
CONTINUOUS
  0
LAYER
  2
48
 70
     0
 62
     7
  6
CONTINUOUS
  0
LAYER
  2
49
 70
     0
 62
     7
  6
CONTINUOUS
  0
LAYER
  2
50
 70
     0
 62
     7
  6
CONTINUOUS
  0
ENDTAB
  0
ENDSEC
  0
SECTION
  2
BLOCKS
  0
BLOCK
  8
2
  2
ARROW
 70
     0
 10
  0.000000
 20
  0.000000
  0
LINE
  6
CONTINUOUS
  8
2
 10
  0.000000
 20
  0.000000
 11
 -1.000000
 21
  0.166667
  0
LINE
  6
CONTINUOUS
  8
2
 10
 -1.000000
 20
  0.166667
 11
 -1.000000
 21
 -0.166667
  0
LINE
  6
CONTINUOUS
  8
2
 10
 -1.000000
 20
 -0.166667
 11
  0.000000
 21
  0.000000
  0
ENDBLK
  8
2
  0
BLOCK
  8
3
  2
CIRCLE
 70
     0
 10
  0.000000
 20
  0.000000
  0
CIRCLE
  8
1
 10
   0.000
 20
   0.000
 40
   1.000
  0
ENDBLK
  8
3
  0
BLOCK
  8
2
  2
PLATE
 70
     0
 10
  0.000000
 20
  0.000000
  0
CIRCLE
  6
CONTINUOUS
  8
5
 10
  0.000000
 20
  0.000000
 40
  0.100000
  0
LINE
  6
CONTINUOUS
  8
5
 10
 -0.100000
 20
  0.000000
 11
  0.100000
 21
  0.000000
  0
LINE
  6
CONTINUOUS
  8
5
 10
  0.000000
 20
 -0.100000
 11
  0.000000
 21
  0.100000
  0
TEXT
  8
5
 10
  0.000000
 20
  0.000000
 40
   0.015
  1
ZERO
 50
   0.000
  0
LINE
  6
CONTINUOUS
  8
3
 10
  0.000000
 20
  0.000000
 11
 41.294067
 21
-412.94043
  0
LINE
  6
CONTINUOUS
  8
3
 10
 41.294067
 20
-412.94043
 11
 2254.7524
 21
-191.59442
  0
LINE
  6
CONTINUOUS
  8
3
 10
 2254.7524
 20
-191.59442
 11
 2235.5928
 21
 -0.000011
  0
LINE
  6
CONTINUOUS
  8
3
 10
 2235.5928
 20
 -0.000011
 11
  0.000000
 21
  0.000000
  0
LINE
  6
CONTINUOUS
  8
6
 10
  0.000000
 20
 15.031684
 11
  0.000000
 21
 108.97971
  0
LINE
  6
CONTINUOUS
  8
6
 10
 2254.7524
 20
 15.031684
 11
 2254.7524
 21
 108.97971
  0
LINE
  6
CONTINUOUS
  8
6
 10
  0.000000
 20
 108.92970
 11
 2254.7524
 21
 108.92970
  0
INSERT
  8
6
  2
ARROW
 10
  0.000000
 20
 108.92970
 41
 10.021122
 42
 10.021122
 43
 10.021122
 50
 180.000
  0
INSERT
  8
6
  2
ARROW
 10
 2254.7524
 20
 108.92970
 41
 10.021122
 42
 10.021122
 43
 10.021122
 50
   0.000
  0
TEXT
  8
6
 10
 1087.2917
 20
 118.95082
 40
  20.042
  1
2255
 50
   0.000
  0
LINE
  6
CONTINUOUS
  8
6
 10
-15.031684
 20
-412.94043
 11
-169.10643
 21
-412.94043
  0
LINE
  6
CONTINUOUS
  8
6
 10
-15.031652
 20
  0.000001
 11
-169.10640
 21
  0.000013
  0
LINE
  6
CONTINUOUS
  8
6
 10
-169.05643
 20
-412.94043
 11
-169.05640
 21
  0.000013
  0
INSERT
  8
6
  2
ARROW
 10
-169.05643
 20
-412.94043
 41
 10.021122
 42
 10.021122
 43
 10.021122
 50
 270.000
  0
INSERT
  8
6
  2
ARROW
 10
-169.05640
 20
  0.000013
 41
 10.021122
 42
 10.021122
 43
 10.021122
 50
  90.000
  0
TEXT
  8
6
 10
-179.07753
 20
-234.02831
 40
  20.042
  1
413
 50
  90.000
  0
LINE
  6
CONTINUOUS
  8
6
 10
-15.031684
 20
-412.94043
 11
-108.97971
 21
-412.94043
  0
LINE
  6
CONTINUOUS
  8
6
 10
-15.031652
 20
  0.000001
 11
-108.97968
 21
  0.000008
  0
LINE
  6
CONTINUOUS
  8
6
 10
-108.92970
 20
-412.94043
 11
-108.92967
 21
  0.000008
  0
INSERT
  8
6
  2
ARROW
 10
-108.92970
 20
-412.94043
 41
 10.021122
 42
 10.021122
 43
 10.021122
 50
 270.000
  0
INSERT
  8
6
  2
ARROW
 10
-108.92967
 20
  0.000008
 41
 10.021122
 42
 10.021122
 43
 10.021122
 50
  90.000
  0
TEXT
  8
6
 10
-118.95081
 20
-234.02831
 40
  20.042
  1
413
 50
  90.000
  0
LINE
  6
CONTINUOUS
  8
6
 10
 2269.7842
 20
-191.59442
 11
 2363.7322
 21
-191.59442
  0
LINE
  6
CONTINUOUS
  8
6
 10
 2269.7842
 20
 -0.000016
 11
 2363.7322
 21
 -0.000023
  0
LINE
  6
CONTINUOUS
  8
6
 10
 2363.6821
 20
-191.59442
 11
 2363.6821
 21
 -0.000023
  0
INSERT
  8
6
  2
ARROW
 10
 2363.6821
 20
-191.59442
 41
 10.021122
 42
 10.021122
 43
 10.021122
 50
 270.000
  0
INSERT
  8
6
  2
ARROW
 10
 2363.6821
 20
 -0.000023
 41
 10.021122
 42
 10.021122
 43
 10.021122
 50
  90.000
  0
TEXT
  8
6
 10
 2353.6611
 20
-123.35530
 40
  20.042
  1
192
 50
  90.000
  0
ENDBLK
  8
2
  0
ENDSEC
  0
SECTION
  2
ENTITIES
  0
LINE
  6
CONTINUOUS
  8
5
 10
  0.000000
 20
  0.000000
 11
 2906.1257
 21
  0.000000
  0
LINE
  6
CONTINUOUS
  8
5
 10
 2906.1257
 20
  0.000000
 11
 2906.1257
 21
 1828.8549
  0
LINE
  6
CONTINUOUS
  8
5
 10
 2906.1257
 20
 1828.8549
 11
  0.000000
 21
 1828.8549
  0
LINE
  6
CONTINUOUS
  8
5
 10
  0.000000
 20
 1828.8549
 11
  0.000000
 21
  0.000000
  0
TEXT
  8
5
 10
 40.084488
 20
 20.042244
 40
  40.084
  1
YIELD:345.0
 50
   0.000
  0
TEXT
  8
5
 10
 40.084488
 20
 80.168976
 40
  40.084
  1
THICKNESS:4
 50
   0.000
  0
TEXT
  8
5
 10
 40.084488
 20
 140.29572
 40
  40.084
  1
QUANTITY:2
 50
   0.000
  0
TEXT
  8
5
 10
 40.084488
 20
 200.42245
 40
  40.084
  1
DRAWING:WB16
 50
   0.000
  0
TEXT
  8
5
 10
 40.084488
 20
 260.54919
 40
  40.084
  1
MARK:WB16
 50
   0.000
  0
TEXT
  8
5
 10
 40.084488
 20
 320.67593
 40
  40.084
  1
JOB:C323-153-Final
 50
   0.000
  0
INSERT
  8
2
  2
PLATE
 10
 325.68665
 20
 1120.8977
 41
  1.000000
 42
  1.000000
 43
  1.000000
 50
   0.000
  0
ENDSEC
  0
EOF
