999
SOURCE:MBS   PROGRAM:PLT_DXF   CELL:RF_WEB   CLASS:SCALED   MODE:---
  0
SECTION
  2
HEADER
  9
$EXTMIN
 10
          0.000
 20
          0.000
  9
$EXTMAX
 10
       2453.353
 20
       1543.920
  9
$LIMMIN
 10
          0.000
 20
          0.000
  9
$LIMMAX
 10
       2453.353
 20
       1543.920
  9
$FILLMODE
 70
     1
  9
$LTSCALE
 40
  0.125
  9
$HANDLING
 70
     0
  0
ENDSEC
  0
SECTION
  2
TABLES
  0
TABLE
  2
LTYPE
 70
     3
  0
LTYPE
  2
CONTINUOUS
 70
    64
  3
SOLID LINE
 72
    65
 73
     0
 40
0.0
  0
LTYPE
  2
CENTER
 70
    64
  3
____ _ ____ _ ____ _ ____ _ ____ _ ____ _ ____
 72
    65
 73
     4
 40
2.0
 49
1.25
 49
-0.25
 49
0.25
 49
-0.25
  0
LTYPE
  2
DASHED
 70
    64
  3
__ __ __ __ __ __ __ __ __ __ __ __ __ __ __ 
 72
    65
 73
     2
 40
0.75
 49
0.5
 49
-0.25
  0
ENDTAB
  0
TABLE
  2
LAYER
 70
    51
  0
LAYER
  2
0
 70
     0
 62
     7
  6
CONTINUOUS
  0
LAYER
  2
1
 70
     0
 62
     7
  6
CONTINUOUS
  0
LAYER
  2
2
 70
     0
 62
     7
  6
CONTINUOUS
  0
LAYER
  2
3
 70
     0
 62
     1
  6
CONTINUOUS
  0
LAYER
  2
4
 70
     0
 62
     1
  6
CONTINUOUS
  0
LAYER
  2
5
 70
     0
 62
     7
  6
CONTINUOUS
  0
LAYER
  2
6
 70
     0
 62
     4
  6
CONTINUOUS
  0
LAYER
  2
7
 70
     0
 62
     3
  6
CONTINUOUS
  0
LAYER
  2
8
 70
     0
 62
     3
  6
CONTINUOUS
  0
LAYER
  2
9
 70
     0
 62
     7
  6
CONTINUOUS
  0
LAYER
  2
10
 70
     0
 62
     7
  6
CONTINUOUS
  0
LAYER
  2
11
 70
     0
 62
     7
  6
CONTINUOUS
  0
LAYER
  2
12
 70
     0
 62
     2
  6
CONTINUOUS
  0
LAYER
  2
13
 70
     0
 62
     2
  6
CONTINUOUS
  0
LAYER
  2
14
 70
     0
 62
     7
  6
CONTINUOUS
  0
LAYER
  2
15
 70
     0
 62
     6
  6
CONTINUOUS
  0
LAYER
  2
16
 70
     0
 62
     7
  6
CONTINUOUS
  0
LAYER
  2
17
 70
     0
 62
     7
  6
CONTINUOUS
  0
LAYER
  2
18
 70
     0
 62
     4
  6
CONTINUOUS
  0
LAYER
  2
19
 70
     0
 62
     7
  6
CONTINUOUS
  0
LAYER
  2
20
 70
     0
 62
     7
  6
CONTINUOUS
  0
LAYER
  2
21
 70
     0
 62
     7
  6
CONTINUOUS
  0
LAYER
  2
22
 70
     0
 62
     7
  6
CONTINUOUS
  0
LAYER
  2
23
 70
     0
 62
     7
  6
CONTINUOUS
  0
LAYER
  2
24
 70
     0
 62
     7
  6
CONTINUOUS
  0
LAYER
  2
25
 70
     0
 62
     7
  6
CONTINUOUS
  0
LAYER
  2
26
 70
     0
 62
     7
  6
CONTINUOUS
  0
LAYER
  2
27
 70
     0
 62
     7
  6
CONTINUOUS
  0
LAYER
  2
28
 70
     0
 62
     7
  6
CONTINUOUS
  0
LAYER
  2
29
 70
     0
 62
     7
  6
CONTINUOUS
  0
LAYER
  2
30
 70
     0
 62
     7
  6
CONTINUOUS
  0
LAYER
  2
31
 70
     0
 62
     7
  6
CONTINUOUS
  0
LAYER
  2
32
 70
     0
 62
     7
  6
CONTINUOUS
  0
LAYER
  2
33
 70
     0
 62
     7
  6
CONTINUOUS
  0
LAYER
  2
34
 70
     0
 62
     7
  6
CONTINUOUS
  0
LAYER
  2
35
 70
     0
 62
     7
  6
CONTINUOUS
  0
LAYER
  2
36
 70
     0
 62
     7
  6
CONTINUOUS
  0
LAYER
  2
37
 70
     0
 62
     7
  6
CONTINUOUS
  0
LAYER
  2
38
 70
     0
 62
     7
  6
CONTINUOUS
  0
LAYER
  2
39
 70
     0
 62
     7
  6
CONTINUOUS
  0
LAYER
  2
40
 70
     0
 62
     7
  6
CONTINUOUS
  0
LAYER
  2
41
 70
     0
 62
     7
  6
CONTINUOUS
  0
LAYER
  2
42
 70
     0
 62
     7
  6
CONTINUOUS
  0
LAYER
  2
43
 70
     0
 62
     7
  6
CONTINUOUS
  0
LAYER
  2
44
 70
     0
 62
     7
  6
CONTINUOUS
  0
LAYER
  2
45
 70
     0
 62
     7
  6
CONTINUOUS
  0
LAYER
  2
46
 70
     0
 62
     7
  6
CONTINUOUS
  0
LAYER
  2
47
 70
     0
 62
     7
  6
CONTINUOUS
  0
LAYER
  2
48
 70
     0
 62
     7
  6
CONTINUOUS
  0
LAYER
  2
49
 70
     0
 62
     7
  6
CONTINUOUS
  0
LAYER
  2
50
 70
     0
 62
     7
  6
CONTINUOUS
  0
ENDTAB
  0
ENDSEC
  0
SECTION
  2
BLOCKS
  0
BLOCK
  8
2
  2
ARROW
 70
     0
 10
  0.000000
 20
  0.000000
  0
LINE
  6
CONTINUOUS
  8
2
 10
  0.000000
 20
  0.000000
 11
 -1.000000
 21
  0.166667
  0
LINE
  6
CONTINUOUS
  8
2
 10
 -1.000000
 20
  0.166667
 11
 -1.000000
 21
 -0.166667
  0
LINE
  6
CONTINUOUS
  8
2
 10
 -1.000000
 20
 -0.166667
 11
  0.000000
 21
  0.000000
  0
ENDBLK
  8
2
  0
BLOCK
  8
3
  2
CIRCLE
 70
     0
 10
  0.000000
 20
  0.000000
  0
CIRCLE
  8
1
 10
   0.000
 20
   0.000
 40
   1.000
  0
ENDBLK
  8
3
  0
BLOCK
  8
2
  2
PLATE
 70
     0
 10
  0.000000
 20
  0.000000
  0
CIRCLE
  6
CONTINUOUS
  8
5
 10
  0.000000
 20
  0.000000
 40
  0.100000
  0
LINE
  6
CONTINUOUS
  8
5
 10
 -0.100000
 20
  0.000000
 11
  0.100000
 21
  0.000000
  0
LINE
  6
CONTINUOUS
  8
5
 10
  0.000000
 20
 -0.100000
 11
  0.000000
 21
  0.100000
  0
TEXT
  8
5
 10
  0.000000
 20
  0.000000
 40
   0.015
  1
ZERO
 50
   0.000
  0
LINE
  6
CONTINUOUS
  8
3
 10
  0.000000
 20
  0.000000
 11
 38.269196
 21
-382.69131
  0
LINE
  6
CONTINUOUS
  8
3
 10
 38.269196
 20
-382.69131
 11
 1903.4634
 21
-196.17160
  0
LINE
  6
CONTINUOUS
  8
3
 10
 1903.4634
 20
-196.17160
 11
 1883.8462
 21
 -0.000011
  0
LINE
  6
CONTINUOUS
  8
3
 10
 1883.8462
 20
 -0.000011
 11
  0.000000
 21
  0.000000
  0
LINE
  6
CONTINUOUS
  8
6
 10
  0.000000
 20
 12.689756
 11
  0.000000
 21
 92.000732
  0
LINE
  6
CONTINUOUS
  8
6
 10
 1903.4634
 20
 12.689756
 11
 1903.4634
 21
 92.000732
  0
LINE
  6
CONTINUOUS
  8
6
 10
  0.000000
 20
 91.950729
 11
 1903.4634
 21
 91.950729
  0
INSERT
  8
6
  2
ARROW
 10
  0.000000
 20
 91.950729
 41
  8.459837
 42
  8.459837
 43
  8.459837
 50
 180.000
  0
INSERT
  8
6
  2
ARROW
 10
 1903.4634
 20
 91.950729
 41
  8.459837
 42
  8.459837
 43
  8.459837
 50
   0.000
  0
TEXT
  8
6
 10
 920.00732
 20
 100.41057
 40
  16.920
  1
1903
 50
   0.000
  0
LINE
  6
CONTINUOUS
  8
6
 10
-12.689756
 20
-382.69131
 11
-142.75975
 21
-382.69131
  0
LINE
  6
CONTINUOUS
  8
6
 10
-12.689728
 20
  0.000001
 11
-142.75972
 21
  0.000011
  0
LINE
  6
CONTINUOUS
  8
6
 10
-142.70975
 20
-382.69131
 11
-142.70972
 21
  0.000011
  0
INSERT
  8
6
  2
ARROW
 10
-142.70975
 20
-382.69131
 41
  8.459837
 42
  8.459837
 43
  8.459837
 50
 270.000
  0
INSERT
  8
6
  2
ARROW
 10
-142.70972
 20
  0.000011
 41
  8.459837
 42
  8.459837
 43
  8.459837
 50
  90.000
  0
TEXT
  8
6
 10
-151.16957
 20
-216.72517
 40
  16.920
  1
383
 50
  90.000
  0
LINE
  6
CONTINUOUS
  8
6
 10
-12.689756
 20
-382.69131
 11
-92.000732
 21
-382.69131
  0
LINE
  6
CONTINUOUS
  8
6
 10
-12.689728
 20
  0.000001
 11
-92.000702
 21
  0.000007
  0
LINE
  6
CONTINUOUS
  8
6
 10
-91.950729
 20
-382.69131
 11
-91.950699
 21
  0.000007
  0
INSERT
  8
6
  2
ARROW
 10
-91.950729
 20
-382.69131
 41
  8.459837
 42
  8.459837
 43
  8.459837
 50
 270.000
  0
INSERT
  8
6
  2
ARROW
 10
-91.950699
 20
  0.000007
 41
  8.459837
 42
  8.459837
 43
  8.459837
 50
  90.000
  0
TEXT
  8
6
 10
-100.41055
 20
-216.72517
 40
  16.920
  1
383
 50
  90.000
  0
LINE
  6
CONTINUOUS
  8
6
 10
 1916.1531
 20
-196.17160
 11
 1995.4641
 21
-196.17160
  0
LINE
  6
CONTINUOUS
  8
6
 10
 1916.1531
 20
 -0.000016
 11
 1995.4641
 21
 -0.000022
  0
LINE
  6
CONTINUOUS
  8
6
 10
 1995.4141
 20
-196.17160
 11
 1995.4141
 21
 -0.000022
  0
INSERT
  8
6
  2
ARROW
 10
 1995.4141
 20
-196.17160
 41
  8.459837
 42
  8.459837
 43
  8.459837
 50
 270.000
  0
INSERT
  8
6
  2
ARROW
 10
 1995.4141
 20
 -0.000022
 41
  8.459837
 42
  8.459837
 43
  8.459837
 50
  90.000
  0
TEXT
  8
6
 10
 1986.9542
 20
-121.35036
 40
  16.920
  1
196
 50
  90.000
  0
ENDBLK
  8
2
  0
ENDSEC
  0
SECTION
  2
ENTITIES
  0
LINE
  6
CONTINUOUS
  8
5
 10
  0.000000
 20
  0.000000
 11
 2453.3530
 21
  0.000000
  0
LINE
  6
CONTINUOUS
  8
5
 10
 2453.3530
 20
  0.000000
 11
 2453.3530
 21
 1543.9203
  0
LINE
  6
CONTINUOUS
  8
5
 10
 2453.3530
 20
 1543.9203
 11
  0.000000
 21
 1543.9203
  0
LINE
  6
CONTINUOUS
  8
5
 10
  0.000000
 20
 1543.9203
 11
  0.000000
 21
  0.000000
  0
TEXT
  8
5
 10
 33.839348
 20
 16.919674
 40
  33.839
  1
YIELD:345.0
 50
   0.000
  0
TEXT
  8
5
 10
 33.839348
 20
 67.678696
 40
  33.839
  1
THICKNESS:4
 50
   0.000
  0
TEXT
  8
5
 10
 33.839348
 20
 118.43771
 40
  33.839
  1
QUANTITY:2
 50
   0.000
  0
TEXT
  8
5
 10
 33.839348
 20
 169.19673
 40
  33.839
  1
DRAWING:WB10
 50
   0.000
  0
TEXT
  8
5
 10
 33.839348
 20
 219.95575
 40
  33.839
  1
MARK:WB10
 50
   0.000
  0
TEXT
  8
5
 10
 33.839348
 20
 270.71478
 40
  33.839
  1
JOB:C463-002
 50
   0.000
  0
INSERT
  8
2
  2
PLATE
 10
 274.94482
 20
 963.30579
 41
  1.000000
 42
  1.000000
 43
  1.000000
 50
   0.000
  0
ENDSEC
  0
EOF
