999
SOURCE:MBS   PROGRAM:PLT_DXF   CELL:RF_WEB   CLASS:SCALED   MODE:---
  0
SECTION
  2
HEADER
  9
$EXTMIN
 10
          0.000
 20
          0.000
  9
$EXTMAX
 10
      10971.639
 20
       6904.565
  9
$LIMMIN
 10
          0.000
 20
          0.000
  9
$LIMMAX
 10
      10971.639
 20
       6904.565
  9
$FILLMODE
 70
     1
  9
$LTSCALE
 40
  0.125
  9
$HANDLING
 70
     0
  0
ENDSEC
  0
SECTION
  2
TABLES
  0
TABLE
  2
LTYPE
 70
     3
  0
LTYPE
  2
CONTINUOUS
 70
    64
  3
SOLID LINE
 72
    65
 73
     0
 40
0.0
  0
LTYPE
  2
CENTER
 70
    64
  3
____ _ ____ _ ____ _ ____ _ ____ _ ____ _ ____
 72
    65
 73
     4
 40
2.0
 49
1.25
 49
-0.25
 49
0.25
 49
-0.25
  0
LTYPE
  2
DASHED
 70
    64
  3
__ __ __ __ __ __ __ __ __ __ __ __ __ __ __ 
 72
    65
 73
     2
 40
0.75
 49
0.5
 49
-0.25
  0
ENDTAB
  0
TABLE
  2
LAYER
 70
    51
  0
LAYER
  2
0
 70
     0
 62
     7
  6
CONTINUOUS
  0
LAYER
  2
1
 70
     0
 62
     7
  6
CONTINUOUS
  0
LAYER
  2
2
 70
     0
 62
     7
  6
CONTINUOUS
  0
LAYER
  2
3
 70
     0
 62
     1
  6
CONTINUOUS
  0
LAYER
  2
4
 70
     0
 62
     1
  6
CONTINUOUS
  0
LAYER
  2
5
 70
     0
 62
     7
  6
CONTINUOUS
  0
LAYER
  2
6
 70
     0
 62
     4
  6
CONTINUOUS
  0
LAYER
  2
7
 70
     0
 62
     3
  6
CONTINUOUS
  0
LAYER
  2
8
 70
     0
 62
     3
  6
CONTINUOUS
  0
LAYER
  2
9
 70
     0
 62
     7
  6
CONTINUOUS
  0
LAYER
  2
10
 70
     0
 62
     7
  6
CONTINUOUS
  0
LAYER
  2
11
 70
     0
 62
     7
  6
CONTINUOUS
  0
LAYER
  2
12
 70
     0
 62
     2
  6
CONTINUOUS
  0
LAYER
  2
13
 70
     0
 62
     2
  6
CONTINUOUS
  0
LAYER
  2
14
 70
     0
 62
     7
  6
CONTINUOUS
  0
LAYER
  2
15
 70
     0
 62
     6
  6
CONTINUOUS
  0
LAYER
  2
16
 70
     0
 62
     7
  6
CONTINUOUS
  0
LAYER
  2
17
 70
     0
 62
     7
  6
CONTINUOUS
  0
LAYER
  2
18
 70
     0
 62
     4
  6
CONTINUOUS
  0
LAYER
  2
19
 70
     0
 62
     7
  6
CONTINUOUS
  0
LAYER
  2
20
 70
     0
 62
     7
  6
CONTINUOUS
  0
LAYER
  2
21
 70
     0
 62
     7
  6
CONTINUOUS
  0
LAYER
  2
22
 70
     0
 62
     7
  6
CONTINUOUS
  0
LAYER
  2
23
 70
     0
 62
     7
  6
CONTINUOUS
  0
LAYER
  2
24
 70
     0
 62
     7
  6
CONTINUOUS
  0
LAYER
  2
25
 70
     0
 62
     7
  6
CONTINUOUS
  0
LAYER
  2
26
 70
     0
 62
     7
  6
CONTINUOUS
  0
LAYER
  2
27
 70
     0
 62
     7
  6
CONTINUOUS
  0
LAYER
  2
28
 70
     0
 62
     7
  6
CONTINUOUS
  0
LAYER
  2
29
 70
     0
 62
     7
  6
CONTINUOUS
  0
LAYER
  2
30
 70
     0
 62
     7
  6
CONTINUOUS
  0
LAYER
  2
31
 70
     0
 62
     7
  6
CONTINUOUS
  0
LAYER
  2
32
 70
     0
 62
     7
  6
CONTINUOUS
  0
LAYER
  2
33
 70
     0
 62
     7
  6
CONTINUOUS
  0
LAYER
  2
34
 70
     0
 62
     7
  6
CONTINUOUS
  0
LAYER
  2
35
 70
     0
 62
     7
  6
CONTINUOUS
  0
LAYER
  2
36
 70
     0
 62
     7
  6
CONTINUOUS
  0
LAYER
  2
37
 70
     0
 62
     7
  6
CONTINUOUS
  0
LAYER
  2
38
 70
     0
 62
     7
  6
CONTINUOUS
  0
LAYER
  2
39
 70
     0
 62
     7
  6
CONTINUOUS
  0
LAYER
  2
40
 70
     0
 62
     7
  6
CONTINUOUS
  0
LAYER
  2
41
 70
     0
 62
     7
  6
CONTINUOUS
  0
LAYER
  2
42
 70
     0
 62
     7
  6
CONTINUOUS
  0
LAYER
  2
43
 70
     0
 62
     7
  6
CONTINUOUS
  0
LAYER
  2
44
 70
     0
 62
     7
  6
CONTINUOUS
  0
LAYER
  2
45
 70
     0
 62
     7
  6
CONTINUOUS
  0
LAYER
  2
46
 70
     0
 62
     7
  6
CONTINUOUS
  0
LAYER
  2
47
 70
     0
 62
     7
  6
CONTINUOUS
  0
LAYER
  2
48
 70
     0
 62
     7
  6
CONTINUOUS
  0
LAYER
  2
49
 70
     0
 62
     7
  6
CONTINUOUS
  0
LAYER
  2
50
 70
     0
 62
     7
  6
CONTINUOUS
  0
ENDTAB
  0
ENDSEC
  0
SECTION
  2
BLOCKS
  0
BLOCK
  8
2
  2
ARROW
 70
     0
 10
  0.000000
 20
  0.000000
  0
LINE
  6
CONTINUOUS
  8
2
 10
  0.000000
 20
  0.000000
 11
 -1.000000
 21
  0.166667
  0
LINE
  6
CONTINUOUS
  8
2
 10
 -1.000000
 20
  0.166667
 11
 -1.000000
 21
 -0.166667
  0
LINE
  6
CONTINUOUS
  8
2
 10
 -1.000000
 20
 -0.166667
 11
  0.000000
 21
  0.000000
  0
ENDBLK
  8
2
  0
BLOCK
  8
3
  2
CIRCLE
 70
     0
 10
  0.000000
 20
  0.000000
  0
CIRCLE
  8
1
 10
   0.000
 20
   0.000
 40
   1.000
  0
ENDBLK
  8
3
  0
BLOCK
  8
2
  2
PLATE
 70
     0
 10
  0.000000
 20
  0.000000
  0
CIRCLE
  6
CONTINUOUS
  8
5
 10
  0.000015
 20
  0.000000
 40
  0.100000
  0
LINE
  6
CONTINUOUS
  8
5
 10
 -0.099985
 20
  0.000000
 11
  0.100015
 21
  0.000000
  0
LINE
  6
CONTINUOUS
  8
5
 10
  0.000015
 20
 -0.100000
 11
  0.000015
 21
  0.100000
  0
TEXT
  8
5
 10
  0.000015
 20
  0.000000
 40
   0.015
  1
ZERO
 50
   0.000
  0
LINE
  6
CONTINUOUS
  8
3
 10
  0.000015
 20
  0.000000
 11
  0.000000
 21
-400.00000
  0
LINE
  6
CONTINUOUS
  8
3
 10
  0.000000
 20
-400.00000
 11
 8512.4775
 21
-400.00000
  0
LINE
  6
CONTINUOUS
  8
3
 10
 8512.4775
 20
-400.00000
 11
 8512.4775
 21
 -0.000372
  0
LINE
  6
CONTINUOUS
  8
3
 10
 8512.4775
 20
 -0.000372
 11
  0.000015
 21
  0.000000
  0
LINE
  6
CONTINUOUS
  8
4
 10
 263.000016
 20
-63.0000082
 11
 237.000016
 21
-63.0000071
  0
LINE
  6
CONTINUOUS
  8
4
 10
 263.000015
 20
-87.0000082
 11
 237.000015
 21
-87.0000071
  0
ARC
  6
CONTINUOUS
  8
4
 10
 263.000015
 20
-75.0000082
 40
 12.0000000
 50
 -90.000003
 51
  89.999997
  0
ARC
  6
CONTINUOUS
  8
4
 10
 237.000015
 20
-75.0000071
 40
 12.0000000
 50
  89.999997
 51
 -90.000003
  0
LINE
  6
CONTINUOUS
  8
4
 10
 7272.99902
 20
-63.0003210
 11
 7246.99902
 21
-63.0003199
  0
LINE
  6
CONTINUOUS
  8
4
 10
 7272.99902
 20
-87.0003210
 11
 7246.99902
 21
-87.0003199
  0
ARC
  6
CONTINUOUS
  8
4
 10
 7272.99902
 20
-75.0003210
 40
 12.0000000
 50
 -90.000003
 51
  89.999997
  0
ARC
  6
CONTINUOUS
  8
4
 10
 7246.99902
 20
-75.0003199
 40
 12.0000000
 50
  89.999997
 51
 -90.000003
  0
LINE
  6
CONTINUOUS
  8
4
 10
 7573.00000
 20
-63.0003286
 11
 7547.00000
 21
-63.0003275
  0
LINE
  6
CONTINUOUS
  8
4
 10
 7573.00000
 20
-87.0003286
 11
 7547.00000
 21
-87.0003275
  0
ARC
  6
CONTINUOUS
  8
4
 10
 7573.00000
 20
-75.0003286
 40
 12.0000000
 50
 -90.000003
 51
  89.999997
  0
ARC
  6
CONTINUOUS
  8
4
 10
 7547.00000
 20
-75.0003275
 40
 12.0000000
 50
  89.999997
 51
 -90.000003
  0
CIRCLE
  6
CONTINUOUS
  8
4
 10
 7734.7798
 20
-256.50034
 40
  9.000000
  0
CIRCLE
  6
CONTINUOUS
  8
4
 10
 7734.7798
 20
-331.50034
 40
  9.000000
  0
CIRCLE
  6
CONTINUOUS
  8
4
 10
 7834.7798
 20
-256.50034
 40
  9.000000
  0
CIRCLE
  6
CONTINUOUS
  8
4
 10
 7834.7798
 20
-331.50034
 40
  9.000000
  0
LINE
  6
CONTINUOUS
  8
6
 10
  0.000000
 20
 56.749851
 11
  0.000000
 21
 411.43643
  0
LINE
  6
CONTINUOUS
  8
6
 10
 8512.4775
 20
 56.749851
 11
 8512.4775
 21
 411.43643
  0
LINE
  6
CONTINUOUS
  8
6
 10
  0.000000
 20
 411.38644
 11
 8512.4775
 21
 411.38644
  0
INSERT
  8
6
  2
ARROW
 10
  0.000000
 20
 411.38644
 41
 37.833233
 42
 37.833233
 43
 37.833233
 50
 180.000
  0
INSERT
  8
6
  2
ARROW
 10
 8512.4775
 20
 411.38644
 41
 37.833233
 42
 37.833233
 43
 37.833233
 50
   0.000
  0
TEXT
  8
6
 10
 4114.3643
 20
 449.21967
 40
  75.666
  1
8512
 50
   0.000
  0
LINE
  6
CONTINUOUS
  8
6
 10
-56.749851
 20
-400.00000
 11
-638.43585
 21
-399.99997
  0
LINE
  6
CONTINUOUS
  8
6
 10
-56.749821
 20
  0.000004
 11
-638.43579
 21
  0.000048
  0
LINE
  6
CONTINUOUS
  8
6
 10
-638.38586
 20
-399.99997
 11
-638.38580
 21
  0.000048
  0
INSERT
  8
6
  2
ARROW
 10
-638.38586
 20
-399.99997
 41
 37.833233
 42
 37.833233
 43
 37.833233
 50
 270.000
  0
INSERT
  8
6
  2
ARROW
 10
-638.38580
 20
  0.000048
 41
 37.833233
 42
 37.833233
 43
 37.833233
 50
  90.000
  0
TEXT
  8
6
 10
-676.21912
 20
-313.49966
 40
  75.666
  1
400
 50
  90.000
  0
LINE
  6
CONTINUOUS
  8
6
 10
-56.749851
 20
-400.00000
 11
-411.43643
 21
-399.99997
  0
LINE
  6
CONTINUOUS
  8
6
 10
-56.749821
 20
  0.000004
 11
-411.43640
 21
  0.000031
  0
LINE
  6
CONTINUOUS
  8
6
 10
-411.38644
 20
-399.99997
 11
-411.38641
 21
  0.000031
  0
INSERT
  8
6
  2
ARROW
 10
-411.38644
 20
-399.99997
 41
 37.833233
 42
 37.833233
 43
 37.833233
 50
 270.000
  0
INSERT
  8
6
  2
ARROW
 10
-411.38641
 20
  0.000031
 41
 37.833233
 42
 37.833233
 43
 37.833233
 50
  90.000
  0
TEXT
  8
6
 10
-449.21967
 20
-313.49966
 40
  75.666
  1
400
 50
  90.000
  0
LINE
  6
CONTINUOUS
  8
6
 10
 8569.2275
 20
-400.00000
 11
 8923.9141
 21
-400.00003
  0
LINE
  6
CONTINUOUS
  8
6
 10
 8569.2275
 20
 -0.000370
 11
 8923.9141
 21
 -0.000397
  0
LINE
  6
CONTINUOUS
  8
6
 10
 8923.8643
 20
-400.00003
 11
 8923.8643
 21
 -0.000397
  0
INSERT
  8
6
  2
ARROW
 10
 8923.8643
 20
-400.00003
 41
 37.833233
 42
 37.833233
 43
 37.833233
 50
 270.000
  0
INSERT
  8
6
  2
ARROW
 10
 8923.8643
 20
 -0.000397
 41
 37.833233
 42
 37.833233
 43
 37.833233
 50
  90.000
  0
TEXT
  8
6
 10
 8886.0312
 20
-313.49991
 40
  75.666
  1
400
 50
  90.000
  0
ENDBLK
  8
2
  0
ENDSEC
  0
SECTION
  2
ENTITIES
  0
LINE
  6
CONTINUOUS
  8
5
 10
  0.000000
 20
  0.000000
 11
 10971.639
 21
  0.000000
  0
LINE
  6
CONTINUOUS
  8
5
 10
 10971.639
 20
  0.000000
 11
 10971.639
 21
 6904.5654
  0
LINE
  6
CONTINUOUS
  8
5
 10
 10971.639
 20
 6904.5654
 11
  0.000000
 21
 6904.5654
  0
LINE
  6
CONTINUOUS
  8
5
 10
  0.000000
 20
 6904.5654
 11
  0.000000
 21
  0.000000
  0
TEXT
  8
5
 10
 151.33293
 20
 75.666466
 40
 151.333
  1
YIELD:345.0
 50
   0.000
  0
TEXT
  8
5
 10
 151.33293
 20
 302.66586
 40
 151.333
  1
THICKNESS:5
 50
   0.000
  0
TEXT
  8
5
 10
 151.33293
 20
 529.66528
 40
 151.333
  1
QUANTITY:1
 50
   0.000
  0
TEXT
  8
5
 10
 151.33293
 20
 756.66467
 40
 151.333
  1
DRAWING:WB4
 50
   0.000
  0
TEXT
  8
5
 10
 151.33293
 20
 983.66406
 40
 151.333
  1
MARK:WB4
 50
   0.000
  0
TEXT
  8
5
 10
 151.33293
 20
 1210.6635
 40
 151.333
  1
JOB:C463-002
 50
   0.000
  0
INSERT
  8
2
  2
PLATE
 10
 1229.5806
 20
 3652.2827
 41
  1.000000
 42
  1.000000
 43
  1.000000
 50
   0.000
  0
ENDSEC
  0
EOF
