999
SOURCE:MBS   PROGRAM:PLT_DXF   CELL:RF_WEB   CLASS:SCALED   MODE:---
  0
SECTION
  2
HEADER
  9
$EXTMIN
 10
          0.000
 20
          0.000
  9
$EXTMAX
 10
       8008.768
 20
       5040.000
  9
$LIMMIN
 10
          0.000
 20
          0.000
  9
$LIMMAX
 10
       8008.768
 20
       5040.000
  9
$FILLMODE
 70
     1
  9
$LTSCALE
 40
  0.125
  9
$HANDLING
 70
     0
  0
ENDSEC
  0
SECTION
  2
TABLES
  0
TABLE
  2
LTYPE
 70
     3
  0
LTYPE
  2
CONTINUOUS
 70
    64
  3
SOLID LINE
 72
    65
 73
     0
 40
0.0
  0
LTYPE
  2
CENTER
 70
    64
  3
____ _ ____ _ ____ _ ____ _ ____ _ ____ _ ____
 72
    65
 73
     4
 40
2.0
 49
1.25
 49
-0.25
 49
0.25
 49
-0.25
  0
LTYPE
  2
DASHED
 70
    64
  3
__ __ __ __ __ __ __ __ __ __ __ __ __ __ __ 
 72
    65
 73
     2
 40
0.75
 49
0.5
 49
-0.25
  0
ENDTAB
  0
TABLE
  2
LAYER
 70
    51
  0
LAYER
  2
0
 70
     0
 62
     7
  6
CONTINUOUS
  0
LAYER
  2
1
 70
     0
 62
     7
  6
CONTINUOUS
  0
LAYER
  2
2
 70
     0
 62
     7
  6
CONTINUOUS
  0
LAYER
  2
3
 70
     0
 62
     1
  6
CONTINUOUS
  0
LAYER
  2
4
 70
     0
 62
     1
  6
CONTINUOUS
  0
LAYER
  2
5
 70
     0
 62
     7
  6
CONTINUOUS
  0
LAYER
  2
6
 70
     0
 62
     4
  6
CONTINUOUS
  0
LAYER
  2
7
 70
     0
 62
     3
  6
CONTINUOUS
  0
LAYER
  2
8
 70
     0
 62
     3
  6
CONTINUOUS
  0
LAYER
  2
9
 70
     0
 62
     7
  6
CONTINUOUS
  0
LAYER
  2
10
 70
     0
 62
     7
  6
CONTINUOUS
  0
LAYER
  2
11
 70
     0
 62
     7
  6
CONTINUOUS
  0
LAYER
  2
12
 70
     0
 62
     2
  6
CONTINUOUS
  0
LAYER
  2
13
 70
     0
 62
     2
  6
CONTINUOUS
  0
LAYER
  2
14
 70
     0
 62
     7
  6
CONTINUOUS
  0
LAYER
  2
15
 70
     0
 62
     6
  6
CONTINUOUS
  0
LAYER
  2
16
 70
     0
 62
     7
  6
CONTINUOUS
  0
LAYER
  2
17
 70
     0
 62
     7
  6
CONTINUOUS
  0
LAYER
  2
18
 70
     0
 62
     4
  6
CONTINUOUS
  0
LAYER
  2
19
 70
     0
 62
     7
  6
CONTINUOUS
  0
LAYER
  2
20
 70
     0
 62
     7
  6
CONTINUOUS
  0
LAYER
  2
21
 70
     0
 62
     7
  6
CONTINUOUS
  0
LAYER
  2
22
 70
     0
 62
     7
  6
CONTINUOUS
  0
LAYER
  2
23
 70
     0
 62
     7
  6
CONTINUOUS
  0
LAYER
  2
24
 70
     0
 62
     7
  6
CONTINUOUS
  0
LAYER
  2
25
 70
     0
 62
     7
  6
CONTINUOUS
  0
LAYER
  2
26
 70
     0
 62
     7
  6
CONTINUOUS
  0
LAYER
  2
27
 70
     0
 62
     7
  6
CONTINUOUS
  0
LAYER
  2
28
 70
     0
 62
     7
  6
CONTINUOUS
  0
LAYER
  2
29
 70
     0
 62
     7
  6
CONTINUOUS
  0
LAYER
  2
30
 70
     0
 62
     7
  6
CONTINUOUS
  0
LAYER
  2
31
 70
     0
 62
     7
  6
CONTINUOUS
  0
LAYER
  2
32
 70
     0
 62
     7
  6
CONTINUOUS
  0
LAYER
  2
33
 70
     0
 62
     7
  6
CONTINUOUS
  0
LAYER
  2
34
 70
     0
 62
     7
  6
CONTINUOUS
  0
LAYER
  2
35
 70
     0
 62
     7
  6
CONTINUOUS
  0
LAYER
  2
36
 70
     0
 62
     7
  6
CONTINUOUS
  0
LAYER
  2
37
 70
     0
 62
     7
  6
CONTINUOUS
  0
LAYER
  2
38
 70
     0
 62
     7
  6
CONTINUOUS
  0
LAYER
  2
39
 70
     0
 62
     7
  6
CONTINUOUS
  0
LAYER
  2
40
 70
     0
 62
     7
  6
CONTINUOUS
  0
LAYER
  2
41
 70
     0
 62
     7
  6
CONTINUOUS
  0
LAYER
  2
42
 70
     0
 62
     7
  6
CONTINUOUS
  0
LAYER
  2
43
 70
     0
 62
     7
  6
CONTINUOUS
  0
LAYER
  2
44
 70
     0
 62
     7
  6
CONTINUOUS
  0
LAYER
  2
45
 70
     0
 62
     7
  6
CONTINUOUS
  0
LAYER
  2
46
 70
     0
 62
     7
  6
CONTINUOUS
  0
LAYER
  2
47
 70
     0
 62
     7
  6
CONTINUOUS
  0
LAYER
  2
48
 70
     0
 62
     7
  6
CONTINUOUS
  0
LAYER
  2
49
 70
     0
 62
     7
  6
CONTINUOUS
  0
LAYER
  2
50
 70
     0
 62
     7
  6
CONTINUOUS
  0
ENDTAB
  0
ENDSEC
  0
SECTION
  2
BLOCKS
  0
BLOCK
  8
2
  2
ARROW
 70
     0
 10
  0.000000
 20
  0.000000
  0
LINE
  6
CONTINUOUS
  8
2
 10
  0.000000
 20
  0.000000
 11
 -1.000000
 21
  0.166667
  0
LINE
  6
CONTINUOUS
  8
2
 10
 -1.000000
 20
  0.166667
 11
 -1.000000
 21
 -0.166667
  0
LINE
  6
CONTINUOUS
  8
2
 10
 -1.000000
 20
 -0.166667
 11
  0.000000
 21
  0.000000
  0
ENDBLK
  8
2
  0
BLOCK
  8
3
  2
CIRCLE
 70
     0
 10
  0.000000
 20
  0.000000
  0
CIRCLE
  8
1
 10
   0.000
 20
   0.000
 40
   1.000
  0
ENDBLK
  8
3
  0
BLOCK
  8
2
  2
PLATE
 70
     0
 10
  0.000000
 20
  0.000000
  0
CIRCLE
  6
CONTINUOUS
  8
5
 10
  0.000000
 20
  0.000000
 40
  0.100000
  0
LINE
  6
CONTINUOUS
  8
5
 10
 -0.100000
 20
  0.000000
 11
  0.100000
 21
  0.000000
  0
LINE
  6
CONTINUOUS
  8
5
 10
  0.000000
 20
 -0.100000
 11
  0.000000
 21
  0.100000
  0
TEXT
  8
5
 10
  0.000000
 20
  0.000000
 40
   0.015
  1
ZERO
 50
   0.000
  0
LINE
  6
CONTINUOUS
  8
3
 10
  0.000000
 20
  0.000000
 11
 29.998857
 21
-299.98926
  0
LINE
  6
CONTINUOUS
  8
3
 10
 29.998857
 20
-299.98926
 11
 5712.1992
 21
-400.49707
  0
LINE
  6
CONTINUOUS
  8
3
 10
 5712.1992
 20
-400.49707
 11
 6213.6982
 21
-350.34766
  0
LINE
  6
CONTINUOUS
  8
3
 10
 6213.6982
 20
-350.34766
 11
 6178.6636
 21
  0.000000
  0
LINE
  6
CONTINUOUS
  8
3
 10
 6178.6636
 20
  0.000000
 11
  0.000000
 21
  0.000000
  0
LINE
  6
CONTINUOUS
  8
6
 10
  0.000000
 20
 41.424656
 11
  0.000000
 21
 300.32877
  0
LINE
  6
CONTINUOUS
  8
6
 10
 6213.6982
 20
 41.424656
 11
 6213.6982
 21
 300.32877
  0
LINE
  6
CONTINUOUS
  8
6
 10
  0.000000
 20
 300.27878
 11
 6213.6982
 21
 300.27878
  0
INSERT
  8
6
  2
ARROW
 10
  0.000000
 20
 300.27878
 41
 27.616436
 42
 27.616436
 43
 27.616436
 50
 180.000
  0
INSERT
  8
6
  2
ARROW
 10
 6213.6982
 20
 300.27878
 41
 27.616436
 42
 27.616436
 43
 27.616436
 50
   0.000
  0
TEXT
  8
6
 10
 3003.2876
 20
 327.89520
 40
  55.233
  1
6214
 50
   0.000
  0
LINE
  6
CONTINUOUS
  8
6
 10
-41.424656
 20
-400.49707
 11
-466.02737
 21
-400.49704
  0
LINE
  6
CONTINUOUS
  8
6
 10
-41.424625
 20
  0.000003
 11
-466.02734
 21
  0.000035
  0
LINE
  6
CONTINUOUS
  8
6
 10
-465.97739
 20
-400.49704
 11
-465.97736
 21
  0.000035
  0
INSERT
  8
6
  2
ARROW
 10
-465.97739
 20
-400.49704
 41
 27.616436
 42
 27.616436
 43
 27.616436
 50
 270.000
  0
INSERT
  8
6
  2
ARROW
 10
-465.97736
 20
  0.000035
 41
 27.616436
 42
 27.616436
 43
 27.616436
 50
  90.000
  0
TEXT
  8
6
 10
-493.59381
 20
-283.09781
 40
  55.233
  1
400
 50
  90.000
  0
LINE
  6
CONTINUOUS
  8
6
 10
-41.424656
 20
-299.98926
 11
-300.32877
 21
-299.98923
  0
LINE
  6
CONTINUOUS
  8
6
 10
-41.424633
 20
  0.000003
 11
-300.32874
 21
  0.000023
  0
LINE
  6
CONTINUOUS
  8
6
 10
-300.27878
 20
-299.98923
 11
-300.27875
 21
  0.000023
  0
INSERT
  8
6
  2
ARROW
 10
-300.27878
 20
-299.98923
 41
 27.616436
 42
 27.616436
 43
 27.616436
 50
 270.000
  0
INSERT
  8
6
  2
ARROW
 10
-300.27875
 20
  0.000023
 41
 27.616436
 42
 27.616436
 43
 27.616436
 50
  90.000
  0
TEXT
  8
6
 10
-327.89520
 20
-232.84390
 40
  55.233
  1
300
 50
  90.000
  0
LINE
  6
CONTINUOUS
  8
6
 10
 6255.1230
 20
-400.49707
 11
 6514.0273
 21
-400.49710
  0
LINE
  6
CONTINUOUS
  8
6
 10
 6255.1230
 20
 -0.000003
 11
 6514.0273
 21
 -0.000023
  0
LINE
  6
CONTINUOUS
  8
6
 10
 6513.9775
 20
-400.49710
 11
 6513.9775
 21
 -0.000023
  0
INSERT
  8
6
  2
ARROW
 10
 6513.9775
 20
-400.49710
 41
 27.616436
 42
 27.616436
 43
 27.616436
 50
 270.000
  0
INSERT
  8
6
  2
ARROW
 10
 6513.9775
 20
 -0.000023
 41
 27.616436
 42
 27.616436
 43
 27.616436
 50
  90.000
  0
TEXT
  8
6
 10
 6486.3613
 20
-283.09787
 40
  55.233
  1
400
 50
  90.000
  0
ENDBLK
  8
2
  0
ENDSEC
  0
SECTION
  2
ENTITIES
  0
LINE
  6
CONTINUOUS
  8
5
 10
  0.000000
 20
  0.000000
 11
 8008.7676
 21
  0.000000
  0
LINE
  6
CONTINUOUS
  8
5
 10
 8008.7676
 20
  0.000000
 11
 8008.7676
 21
 5040.0000
  0
LINE
  6
CONTINUOUS
  8
5
 10
 8008.7676
 20
 5040.0000
 11
  0.000000
 21
 5040.0000
  0
LINE
  6
CONTINUOUS
  8
5
 10
  0.000000
 20
 5040.0000
 11
  0.000000
 21
  0.000000
  0
TEXT
  8
5
 10
 110.46574
 20
 55.232872
 40
 110.466
  1
YIELD:345.0
 50
   0.000
  0
TEXT
  8
5
 10
 110.46574
 20
 220.93149
 40
 110.466
  1
THICKNESS:4
 50
   0.000
  0
TEXT
  8
5
 10
 110.46574
 20
 386.63010
 40
 110.466
  1
QUANTITY:2
 50
   0.000
  0
TEXT
  8
5
 10
 110.46574
 20
 552.32874
 40
 110.466
  1
DRAWING:WB7
 50
   0.000
  0
TEXT
  8
5
 10
 110.46574
 20
 718.02734
 40
 110.466
  1
MARK:WB7
 50
   0.000
  0
TEXT
  8
5
 10
 110.46574
 20
 883.72595
 40
 110.466
  1
JOB:C463-002
 50
   0.000
  0
INSERT
  8
2
  2
PLATE
 10
 897.53467
 20
 2720.2485
 41
  1.000000
 42
  1.000000
 43
  1.000000
 50
   0.000
  0
ENDSEC
  0
EOF
