999
SOURCE:MBS   PROGRAM:PLT_DXF   CELL:CWI_WEB   CLASS:SCALED   MODE:---
  0
SECTION
  2
HEADER
  9
$EXTMIN
 10
          0.000
 20
          0.000
  9
$EXTMAX
 10
       8770.893
 20
       5519.613
  9
$LIMMIN
 10
          0.000
 20
          0.000
  9
$LIMMAX
 10
       8770.893
 20
       5519.613
  9
$FILLMODE
 70
     1
  9
$LTSCALE
 40
  0.125
  9
$HANDLING
 70
     0
  0
ENDSEC
  0
SECTION
  2
TABLES
  0
TABLE
  2
LTYPE
 70
     3
  0
LTYPE
  2
CONTINUOUS
 70
    64
  3
SOLID LINE
 72
    65
 73
     0
 40
0.0
  0
LTYPE
  2
CENTER
 70
    64
  3
____ _ ____ _ ____ _ ____ _ ____ _ ____ _ ____
 72
    65
 73
     4
 40
2.0
 49
1.25
 49
-0.25
 49
0.25
 49
-0.25
  0
LTYPE
  2
DASHED
 70
    64
  3
__ __ __ __ __ __ __ __ __ __ __ __ __ __ __ 
 72
    65
 73
     2
 40
0.75
 49
0.5
 49
-0.25
  0
ENDTAB
  0
TABLE
  2
LAYER
 70
    51
  0
LAYER
  2
0
 70
     0
 62
     7
  6
CONTINUOUS
  0
LAYER
  2
1
 70
     0
 62
     7
  6
CONTINUOUS
  0
LAYER
  2
2
 70
     0
 62
     7
  6
CONTINUOUS
  0
LAYER
  2
3
 70
     0
 62
     1
  6
CONTINUOUS
  0
LAYER
  2
4
 70
     0
 62
     1
  6
CONTINUOUS
  0
LAYER
  2
5
 70
     0
 62
     7
  6
CONTINUOUS
  0
LAYER
  2
6
 70
     0
 62
     4
  6
CONTINUOUS
  0
LAYER
  2
7
 70
     0
 62
     3
  6
CONTINUOUS
  0
LAYER
  2
8
 70
     0
 62
     3
  6
CONTINUOUS
  0
LAYER
  2
9
 70
     0
 62
     7
  6
CONTINUOUS
  0
LAYER
  2
10
 70
     0
 62
     7
  6
CONTINUOUS
  0
LAYER
  2
11
 70
     0
 62
     7
  6
CONTINUOUS
  0
LAYER
  2
12
 70
     0
 62
     2
  6
CONTINUOUS
  0
LAYER
  2
13
 70
     0
 62
     2
  6
CONTINUOUS
  0
LAYER
  2
14
 70
     0
 62
     7
  6
CONTINUOUS
  0
LAYER
  2
15
 70
     0
 62
     6
  6
CONTINUOUS
  0
LAYER
  2
16
 70
     0
 62
     7
  6
CONTINUOUS
  0
LAYER
  2
17
 70
     0
 62
     7
  6
CONTINUOUS
  0
LAYER
  2
18
 70
     0
 62
     4
  6
CONTINUOUS
  0
LAYER
  2
19
 70
     0
 62
     7
  6
CONTINUOUS
  0
LAYER
  2
20
 70
     0
 62
     7
  6
CONTINUOUS
  0
LAYER
  2
21
 70
     0
 62
     7
  6
CONTINUOUS
  0
LAYER
  2
22
 70
     0
 62
     7
  6
CONTINUOUS
  0
LAYER
  2
23
 70
     0
 62
     7
  6
CONTINUOUS
  0
LAYER
  2
24
 70
     0
 62
     7
  6
CONTINUOUS
  0
LAYER
  2
25
 70
     0
 62
     7
  6
CONTINUOUS
  0
LAYER
  2
26
 70
     0
 62
     7
  6
CONTINUOUS
  0
LAYER
  2
27
 70
     0
 62
     7
  6
CONTINUOUS
  0
LAYER
  2
28
 70
     0
 62
     7
  6
CONTINUOUS
  0
LAYER
  2
29
 70
     0
 62
     7
  6
CONTINUOUS
  0
LAYER
  2
30
 70
     0
 62
     7
  6
CONTINUOUS
  0
LAYER
  2
31
 70
     0
 62
     7
  6
CONTINUOUS
  0
LAYER
  2
32
 70
     0
 62
     7
  6
CONTINUOUS
  0
LAYER
  2
33
 70
     0
 62
     7
  6
CONTINUOUS
  0
LAYER
  2
34
 70
     0
 62
     7
  6
CONTINUOUS
  0
LAYER
  2
35
 70
     0
 62
     7
  6
CONTINUOUS
  0
LAYER
  2
36
 70
     0
 62
     7
  6
CONTINUOUS
  0
LAYER
  2
37
 70
     0
 62
     7
  6
CONTINUOUS
  0
LAYER
  2
38
 70
     0
 62
     7
  6
CONTINUOUS
  0
LAYER
  2
39
 70
     0
 62
     7
  6
CONTINUOUS
  0
LAYER
  2
40
 70
     0
 62
     7
  6
CONTINUOUS
  0
LAYER
  2
41
 70
     0
 62
     7
  6
CONTINUOUS
  0
LAYER
  2
42
 70
     0
 62
     7
  6
CONTINUOUS
  0
LAYER
  2
43
 70
     0
 62
     7
  6
CONTINUOUS
  0
LAYER
  2
44
 70
     0
 62
     7
  6
CONTINUOUS
  0
LAYER
  2
45
 70
     0
 62
     7
  6
CONTINUOUS
  0
LAYER
  2
46
 70
     0
 62
     7
  6
CONTINUOUS
  0
LAYER
  2
47
 70
     0
 62
     7
  6
CONTINUOUS
  0
LAYER
  2
48
 70
     0
 62
     7
  6
CONTINUOUS
  0
LAYER
  2
49
 70
     0
 62
     7
  6
CONTINUOUS
  0
LAYER
  2
50
 70
     0
 62
     7
  6
CONTINUOUS
  0
ENDTAB
  0
ENDSEC
  0
SECTION
  2
BLOCKS
  0
BLOCK
  8
2
  2
ARROW
 70
     0
 10
  0.000000
 20
  0.000000
  0
LINE
  6
CONTINUOUS
  8
2
 10
  0.000000
 20
  0.000000
 11
 -1.000000
 21
  0.166667
  0
LINE
  6
CONTINUOUS
  8
2
 10
 -1.000000
 20
  0.166667
 11
 -1.000000
 21
 -0.166667
  0
LINE
  6
CONTINUOUS
  8
2
 10
 -1.000000
 20
 -0.166667
 11
  0.000000
 21
  0.000000
  0
ENDBLK
  8
2
  0
BLOCK
  8
3
  2
CIRCLE
 70
     0
 10
  0.000000
 20
  0.000000
  0
CIRCLE
  8
1
 10
   0.000
 20
   0.000
 40
   1.000
  0
ENDBLK
  8
3
  0
BLOCK
  8
2
  2
PLATE
 70
     0
 10
  0.000000
 20
  0.000000
  0
CIRCLE
  6
CONTINUOUS
  8
5
 10
  0.000000
 20
  0.000000
 40
  0.100000
  0
LINE
  6
CONTINUOUS
  8
5
 10
 -0.100000
 20
  0.000000
 11
  0.100000
 21
  0.000000
  0
LINE
  6
CONTINUOUS
  8
5
 10
  0.000000
 20
 -0.100000
 11
  0.000000
 21
  0.100000
  0
TEXT
  8
5
 10
  0.000000
 20
  0.000000
 40
   0.015
  1
ZERO
 50
   0.000
  0
LINE
  6
CONTINUOUS
  8
3
 10
  0.000000
 20
  0.000000
 11
  0.000000
 21
-500.00000
  0
LINE
  6
CONTINUOUS
  8
3
 10
  0.000000
 20
-500.00000
 11
 6805.0020
 21
-500.00000
  0
LINE
  6
CONTINUOUS
  8
3
 10
 6805.0020
 20
-500.00000
 11
 6805.0020
 21
  0.000000
  0
LINE
  6
CONTINUOUS
  8
3
 10
 6805.0020
 20
  0.000000
 11
  0.000000
 21
  0.000000
  0
LINE
  6
CONTINUOUS
  8
6
 10
  0.000000
 20
 45.366680
 11
  0.000000
 21
 328.90842
  0
LINE
  6
CONTINUOUS
  8
6
 10
 6805.0020
 20
 45.366680
 11
 6805.0020
 21
 328.90842
  0
LINE
  6
CONTINUOUS
  8
6
 10
  0.000000
 20
 328.85843
 11
 6805.0020
 21
 328.85843
  0
INSERT
  8
6
  2
ARROW
 10
  0.000000
 20
 328.85843
 41
 30.244452
 42
 30.244452
 43
 30.244452
 50
 180.000
  0
INSERT
  8
6
  2
ARROW
 10
 6805.0020
 20
 328.85843
 41
 30.244452
 42
 30.244452
 43
 30.244452
 50
   0.000
  0
TEXT
  8
6
 10
 3281.5232
 20
 359.10287
 40
  60.489
  1
6805
 50
   0.000
  0
LINE
  6
CONTINUOUS
  8
6
 10
-45.366680
 20
-500.00000
 11
-510.37512
 21
-499.99997
  0
LINE
  6
CONTINUOUS
  8
6
 10
-45.366642
 20
  0.000003
 11
-510.37509
 21
  0.000039
  0
LINE
  6
CONTINUOUS
  8
6
 10
-510.32513
 20
-499.99997
 11
-510.32510
 21
  0.000039
  0
INSERT
  8
6
  2
ARROW
 10
-510.32513
 20
-499.99997
 41
 30.244452
 42
 30.244452
 43
 30.244452
 50
 270.000
  0
INSERT
  8
6
  2
ARROW
 10
-510.32510
 20
  0.000039
 41
 30.244452
 42
 30.244452
 43
 30.244452
 50
  90.000
  0
TEXT
  8
6
 10
-540.56958
 20
-340.73331
 40
  60.489
  1
500
 50
  90.000
  0
LINE
  6
CONTINUOUS
  8
6
 10
-45.366680
 20
-500.00000
 11
-328.90842
 21
-499.99997
  0
LINE
  6
CONTINUOUS
  8
6
 10
-45.366642
 20
  0.000003
 11
-328.90839
 21
  0.000025
  0
LINE
  6
CONTINUOUS
  8
6
 10
-328.85843
 20
-499.99997
 11
-328.85840
 21
  0.000025
  0
INSERT
  8
6
  2
ARROW
 10
-328.85843
 20
-499.99997
 41
 30.244452
 42
 30.244452
 43
 30.244452
 50
 270.000
  0
INSERT
  8
6
  2
ARROW
 10
-328.85840
 20
  0.000025
 41
 30.244452
 42
 30.244452
 43
 30.244452
 50
  90.000
  0
TEXT
  8
6
 10
-359.10287
 20
-340.73331
 40
  60.489
  1
500
 50
  90.000
  0
LINE
  6
CONTINUOUS
  8
6
 10
 6850.3687
 20
-500.00000
 11
 7133.9102
 21
-500.00003
  0
LINE
  6
CONTINUOUS
  8
6
 10
 6850.3687
 20
 -0.000003
 11
 7133.9102
 21
 -0.000025
  0
LINE
  6
CONTINUOUS
  8
6
 10
 7133.8604
 20
-500.00003
 11
 7133.8604
 21
 -0.000025
  0
INSERT
  8
6
  2
ARROW
 10
 7133.8604
 20
-500.00003
 41
 30.244452
 42
 30.244452
 43
 30.244452
 50
 270.000
  0
INSERT
  8
6
  2
ARROW
 10
 7133.8604
 20
 -0.000025
 41
 30.244452
 42
 30.244452
 43
 30.244452
 50
  90.000
  0
TEXT
  8
6
 10
 7103.6157
 20
-340.73337
 40
  60.489
  1
500
 50
  90.000
  0
ENDBLK
  8
2
  0
ENDSEC
  0
SECTION
  2
ENTITIES
  0
LINE
  6
CONTINUOUS
  8
5
 10
  0.000000
 20
  0.000000
 11
 8770.8926
 21
  0.000000
  0
LINE
  6
CONTINUOUS
  8
5
 10
 8770.8926
 20
  0.000000
 11
 8770.8926
 21
 5519.6128
  0
LINE
  6
CONTINUOUS
  8
5
 10
 8770.8926
 20
 5519.6128
 11
  0.000000
 21
 5519.6128
  0
LINE
  6
CONTINUOUS
  8
5
 10
  0.000000
 20
 5519.6128
 11
  0.000000
 21
  0.000000
  0
TEXT
  8
5
 10
 120.97781
 20
 60.488903
 40
 120.978
  1
YIELD:345.0
 50
   0.000
  0
TEXT
  8
5
 10
 120.97781
 20
 241.95561
 40
 120.978
  1
THICKNESS:5
 50
   0.000
  0
TEXT
  8
5
 10
 120.97781
 20
 423.42233
 40
 120.978
  1
QUANTITY:2
 50
   0.000
  0
TEXT
  8
5
 10
 120.97781
 20
 604.88904
 40
 120.978
  1
DRAWING:WBE7
 50
   0.000
  0
TEXT
  8
5
 10
 120.97781
 20
 786.35577
 40
 120.978
  1
MARK:WBE7
 50
   0.000
  0
TEXT
  8
5
 10
 120.97781
 20
 967.82251
 40
 120.978
  1
JOB:C463-002
 50
   0.000
  0
INSERT
  8
2
  2
PLATE
 10
 982.94531
 20
 3009.8064
 41
  1.000000
 42
  1.000000
 43
  1.000000
 50
   0.000
  0
ENDSEC
  0
EOF
