  0
SECTION
  2
HEADER
  9
$ACADVER
  1
AC1009
  9
$EXTMIN
 10
 -1779.324
 20
 -1118.681
  9
$EXTMAX
 10
  9010.865
 20
  6973.962
  9
$LIMMIN
 10
 -1779.324
 20
 -1118.681
  9
$LIMMAX
 10
  9010.865
 20
  6973.962
  9
$FILLMODE
 70
     1
  9
$HANDLING
 70
     0
  0
ENDSEC
  0
SECTION
  2
TABLES
  0
TABLE
  2
LTYPE
 70
1
  0
LTYPE
  2
CONTIN
 70
    64
  3
SOLID LINE
 72
    65
 73
     0
 40
0.0
  0
LTYPE
  2
CONTINUOUS
 70
    64
  3
SOLID LINE
 72
    65
 73
     0
 40
0.0
  0
LTYPE
  2
CENTER
 70
    64
  3
____ _ ____ _ ____ _ ____ _ ____ _ ____ _ ____
 72
    65
 73
     4
 40
    38.266
 49
    23.917
 49
    -4.783
 49
     4.783
 49
    -4.783
  0
LTYPE
  2
DASHED
 70
    64
  3
__ __ __ __ __ __ __ __ __ __ __ __ __ __ __ 
 72
    65
 73
     2
 40
   129.48
 49
    86.32
 49
   -43.16
  0
ENDTAB
  0
TABLE
  2
LAYER
 70
30
  0
LAYER
  2
0
 70
     0
 62
     7
  6
CONTIN
  0
LAYER
  2
1
 70
     0
 62
     7
  6
CONTIN
  0
LAYER
  2
2
 70
     0
 62
     7
  6
CONTIN
  0
LAYER
  2
3
 70
     0
 62
     7
  6
CONTIN
  0
LAYER
  2
4
 70
     0
 62
     5
  6
CONTIN
  0
LAYER
  2
5
 70
     0
 62
     5
  6
DASHED
  0
LAYER
  2
6
 70
     0
 62
     5
  6
DASHED
  0
LAYER
  2
7
 70
     0
 62
     5
  6
CONTIN
  0
LAYER
  2
8
 70
     0
 62
     5
  6
DASHED
  0
LAYER
  2
9
 70
     0
 62
     7
  6
CONTIN
  0
LAYER
  2
10
 70
     0
 62
     7
  6
CONTIN
  0
LAYER
  2
11
 70
     0
 62
     6
  6
DASHED
  0
LAYER
  2
12
 70
     0
 62
     7
  6
DASHED
  0
LAYER
  2
13
 70
     0
 62
     5
  6
DASHED
  0
LAYER
  2
14
 70
     0
 62
     7
  6
CONTIN
  0
LAYER
  2
15
 70
     0
 62
     5
  6
CONTIN
  0
LAYER
  2
16
 70
     0
 62
     7
  6
CONTIN
  0
LAYER
  2
17
 70
     0
 62
     7
  6
CONTIN
  0
LAYER
  2
18
 70
     0
 62
     7
  6
CONTIN
  0
LAYER
  2
19
 70
     0
 62
     7
  6
CONTIN
  0
LAYER
  2
20
 70
     0
 62
     1
  6
CONTIN
  0
LAYER
  2
21
 70
     0
 62
     7
  6
CONTIN
  0
LAYER
  2
22
 70
     0
 62
     7
  6
DASHED
  0
LAYER
  2
23
 70
     0
 62
     7
  6
DASHED
  0
LAYER
  2
24
 70
     0
 62
     7
  6
CONTIN
  0
LAYER
  2
25
 70
     0
 62
     7
  6
CONTIN
  0
LAYER
  2
26
 70
     0
 62
     7
  6
CONTIN
  0
LAYER
  2
27
 70
     0
 62
     1
  6
CENTER
  0
LAYER
  2
28
 70
     0
 62
     7
  6
CONTIN
  0
LAYER
  2
29
 70
     0
 62
     3
  6
DASHED
  0
ENDTAB
  0
TABLE
  2
STYLE
 70
  0
  0
ENDTAB
  0
ENDSEC
  0
SECTION
  2
ENTITIES
  0
LINE
  8
1
 10
     0.000
 20
  5083.333
 11
     0.000
 21
     0.000
  0
LINE
  8
1
 10
     0.000
 20
     0.000
 11
  3791.667
 21
     0.000
  0
LINE
  8
1
 10
  3791.667
 20
     0.000
 11
  3791.667
 21
  5083.333
  0
LINE
  8
1
 10
  3791.667
 20
  5083.333
 11
     0.000
 21
  5083.333
  0
LINE
  8
8
 10
     0.000
 20
  2541.667
 11
  3791.667
 21
  2541.667
  0
LINE
  8
1
 10
     0.000
 20
  2541.667
 11
  3791.667
 21
  2541.667
  0
LINE
  8
1
 10
  3791.667
 20
  5083.333
 11
     0.000
 21
  5083.333
  0
LINE
  8
1
 10
  3791.667
 20
  2541.667
 11
  3791.667
 21
  5083.333
  0
LINE
  8
1
 10
     0.000
 20
  5083.333
 11
     0.000
 21
  2541.667
  0
TEXT
  8
1
 10
  1829.983
 20
  3812.500
 40
    65.850
  1
 1
 50
     0.000
  0
LINE
  8
1
 10
     0.000
 20
     0.000
 11
  3791.667
 21
     0.000
  0
LINE
  8
1
 10
  3791.667
 20
  2541.667
 11
     0.000
 21
  2541.667
  0
LINE
  8
1
 10
  3791.667
 20
     0.000
 11
  3791.667
 21
  2541.667
  0
LINE
  8
1
 10
     0.000
 20
  2541.667
 11
     0.000
 21
     0.000
  0
TEXT
  8
1
 10
  1829.983
 20
  1270.833
 40
    65.850
  1
 1
 50
     0.000
  0
LINE
  8
1
 10
 -1005.000
 20
  5083.333
 11
  -421.667
 21
  5083.333
  0
LINE
  8
1
 10
  -421.667
 20
  5083.333
 11
  -167.500
 21
  2541.667
  0
LINE
  8
1
 10
  -167.500
 20
  2541.667
 11
  -421.667
 21
     0.000
  0
LINE
  8
1
 10
  -421.667
 20
     0.000
 11
 -1005.000
 21
     0.000
  0
LINE
  8
1
 10
 -1005.000
 20
  5083.333
 11
 -1005.000
 21
     0.000
  0
TEXT
  8
1
 10
  -717.950
 20
  2541.667
 40
    65.850
  1
 2
 50
     0.000
  0
LINE
  8
2
 10
 -1005.000
 20
  4850.000
 11
  -421.667
 21
  4850.000
  0
TEXT
  8
1
 10
  -845.033
 20
  4966.667
 40
    65.850
  1
 3
 50
     0.000
  0
LINE
  8
1
 10
 -1005.000
 20
   233.333
 11
  -398.334
 21
   233.333
  0
TEXT
  8
1
 10
  -833.367
 20
   116.667
 40
    65.850
  1
 3
 50
     0.000
  0
LINE
  8
1
 10
     0.000
 20
  -750.833
 11
     0.000
 21
  -167.500
  0
LINE
  8
1
 10
     0.000
 20
  -167.500
 11
  3791.667
 21
  -167.500
  0
LINE
  8
1
 10
  3791.667
 20
  -167.500
 11
  3791.667
 21
  -750.833
  0
LINE
  8
1
 10
     0.000
 20
  -750.833
 11
  3791.667
 21
  -750.833
  0
TEXT
  8
1
 10
  1829.983
 20
  -459.167
 40
    65.850
  1
 4
 50
     0.000
  0
LINE
  8
2
 10
   233.333
 20
  -750.833
 11
   233.333
 21
  -167.500
  0
TEXT
  8
1
 10
    50.817
 20
  -459.167
 40
    65.850
  1
 5
 50
     0.000
  0
LINE
  8
1
 10
  3558.333
 20
  -750.833
 11
  3558.333
 21
  -167.500
  0
TEXT
  8
1
 10
  3609.150
 20
  -459.167
 40
    65.850
  1
 5
 50
     0.000
  0
LINE
  8
1
 10
  4796.667
 20
     0.000
 11
  4213.333
 21
    -0.000
  0
LINE
  8
1
 10
  4213.333
 20
    -0.000
 11
  3959.167
 21
  2541.667
  0
LINE
  8
1
 10
  3959.167
 20
  2541.667
 11
  4213.333
 21
  5083.333
  0
LINE
  8
1
 10
  4213.333
 20
  5083.333
 11
  4796.667
 21
  5083.333
  0
LINE
  8
1
 10
  4796.667
 20
     0.000
 11
  4796.667
 21
  5083.333
  0
TEXT
  8
1
 10
  4246.217
 20
  2541.667
 40
    65.850
  1
 2
 50
     0.000
  0
LINE
  8
2
 10
  4796.667
 20
   233.333
 11
  4213.333
 21
   233.333
  0
TEXT
  8
1
 10
  4373.300
 20
   116.667
 40
    65.850
  1
 3
 50
     0.000
  0
LINE
  8
1
 10
  4796.667
 20
  4850.000
 11
  4190.000
 21
  4850.000
  0
TEXT
  8
1
 10
  4361.633
 20
  4966.667
 40
    65.850
  1
 3
 50
     0.000
  0
LINE
  8
1
 10
  3791.667
 20
  5834.167
 11
  3791.628
 21
  5250.833
  0
LINE
  8
1
 10
  3791.628
 20
  5250.833
 11
    -0.038
 21
  5251.083
  0
LINE
  8
1
 10
    -0.038
 20
  5251.083
 11
     0.000
 21
  5834.417
  0
LINE
  8
1
 10
  3791.667
 20
  5834.167
 11
     0.000
 21
  5834.417
  0
TEXT
  8
1
 10
  1829.964
 20
  5542.629
 40
    65.850
  1
 4
 50
     0.000
  0
LINE
  8
2
 10
  3558.333
 20
  5834.182
 11
  3558.295
 21
  5250.849
  0
TEXT
  8
1
 10
  3609.131
 20
  5542.512
 40
    65.850
  1
 5
 50
     0.000
  0
LINE
  8
1
 10
   233.334
 20
  5834.401
 11
   233.295
 21
  5251.068
  0
TEXT
  8
1
 10
    50.798
 20
  5542.747
 40
    65.850
  1
 5
 50
     0.000
  0
TEXT
  8
21
 10
  5767.167
 20
  6606.114
 40
    82.312
  1
Components & Cladding
 50
     0.000
  0
TEXT
  8
21
 10
  4450.167
 20
  6400.333
 40
    82.312
  1
 Width
 50
     0.000
  0
TEXT
  8
21
 10
  5108.667
 20
  6400.333
 40
    82.312
  1
Length
 50
     0.000
  0
TEXT
  8
21
 10
  5767.167
 20
  6400.333
 40
    82.312
  1
Pressure(kN/m2)
 50
     0.000
  0
TEXT
  8
21
 10
  7084.167
 20
  6400.333
 40
    82.312
  1
Suction(kN/m2)
 50
     0.000
  0
TEXT
  8
21
 10
  3956.292
 20
  6276.864
 40
    82.312
  1
Zone
 50
     0.000
  0
TEXT
  8
21
 10
  4697.104
 20
  6276.864
 40
    82.312
  1
(mm)
 50
     0.000
  0
TEXT
  8
21
 10
  5355.604
 20
  6276.864
 40
    82.312
  1
(mm)
 50
     0.000
  0
TEXT
  8
21
 10
  5767.167
 20
  6276.864
 40
    82.312
  1
Member
 50
     0.000
  0
TEXT
  8
21
 10
  6425.667
 20
  6276.864
 40
    82.312
  1
 Panel
 50
     0.000
  0
TEXT
  8
21
 10
  7084.167
 20
  6276.864
 40
    82.312
  1
Member
 50
     0.000
  0
TEXT
  8
21
 10
  7742.667
 20
  6276.864
 40
    82.312
  1
 Panel
 50
     0.000
  0
LINE
  8
21
 10
  3956.292
 20
  6194.552
 11
  4285.542
 21
  6194.552
  0
LINE
  8
21
 10
  4450.167
 20
  6194.552
 11
  4944.042
 21
  6194.552
  0
LINE
  8
21
 10
  5108.667
 20
  6194.552
 11
  5602.542
 21
  6194.552
  0
LINE
  8
21
 10
  5767.167
 20
  6194.552
 11
  6261.042
 21
  6194.552
  0
LINE
  8
21
 10
  6425.667
 20
  6194.552
 11
  6919.542
 21
  6194.552
  0
LINE
  8
21
 10
  7084.167
 20
  6194.552
 11
  7578.042
 21
  6194.552
  0
LINE
  8
21
 10
  7742.667
 20
  6194.552
 11
  8236.542
 21
  6194.552
  0
TEXT
  8
21
 10
  4038.604
 20
  6029.927
 40
    82.312
  1
 1
 50
     0.000
  0
TEXT
  8
21
 10
  5767.167
 20
  6029.927
 40
    82.312
  1
 0.000
 50
     0.000
  0
TEXT
  8
21
 10
  6425.667
 20
  6029.927
 40
    82.312
  1
 0.000
 50
     0.000
  0
TEXT
  8
21
 10
  7084.167
 20
  6029.927
 40
    82.312
  1
-0.599
 50
     0.000
  0
TEXT
  8
21
 10
  7742.667
 20
  6029.927
 40
    82.312
  1
 0.000
 50
     0.000
  0
TEXT
  8
21
 10
  4038.604
 20
  5906.458
 40
    82.312
  1
 2
 50
     0.000
  0
TEXT
  8
21
 10
  5767.167
 20
  5906.458
 40
    82.312
  1
 0.484
 50
     0.000
  0
TEXT
  8
21
 10
  6425.667
 20
  5906.458
 40
    82.312
  1
 0.599
 50
     0.000
  0
TEXT
  8
21
 10
  7084.167
 20
  5906.458
 40
    82.312
  1
-0.534
 50
     0.000
  0
TEXT
  8
21
 10
  7742.667
 20
  5906.458
 40
    82.312
  1
-0.649
 50
     0.000
  0
TEXT
  8
21
 10
  4038.604
 20
  5782.989
 40
    82.312
  1
 3
 50
     0.000
  0
TEXT
  8
21
 10
  4450.167
 20
  5782.989
 40
    82.312
  1
  2800
 50
     0.000
  0
TEXT
  8
21
 10
  5767.167
 20
  5782.989
 40
    82.312
  1
 0.484
 50
     0.000
  0
TEXT
  8
21
 10
  6425.667
 20
  5782.989
 40
    82.312
  1
 0.599
 50
     0.000
  0
TEXT
  8
21
 10
  7084.167
 20
  5782.989
 40
    82.312
  1
-0.571
 50
     0.000
  0
TEXT
  8
21
 10
  7742.667
 20
  5782.989
 40
    82.312
  1
-0.649
 50
     0.000
  0
TEXT
  8
21
 10
  4038.604
 20
  5659.521
 40
    82.312
  1
 4
 50
     0.000
  0
TEXT
  8
21
 10
  5767.167
 20
  5659.521
 40
    82.312
  1
 0.484
 50
     0.000
  0
TEXT
  8
21
 10
  6425.667
 20
  5659.521
 40
    82.312
  1
 0.599
 50
     0.000
  0
TEXT
  8
21
 10
  7084.167
 20
  5659.521
 40
    82.312
  1
-0.534
 50
     0.000
  0
TEXT
  8
21
 10
  7742.667
 20
  5659.521
 40
    82.312
  1
-0.649
 50
     0.000
  0
TEXT
  8
21
 10
  4038.604
 20
  5536.052
 40
    82.312
  1
 5
 50
     0.000
  0
TEXT
  8
21
 10
  4450.167
 20
  5536.052
 40
    82.312
  1
  2800
 50
     0.000
  0
TEXT
  8
21
 10
  5767.167
 20
  5536.052
 40
    82.312
  1
 0.484
 50
     0.000
  0
TEXT
  8
21
 10
  6425.667
 20
  5536.052
 40
    82.312
  1
 0.599
 50
     0.000
  0
TEXT
  8
21
 10
  7084.167
 20
  5536.052
 40
    82.312
  1
-0.572
 50
     0.000
  0
TEXT
  8
21
 10
  7742.667
 20
  5536.052
 40
    82.312
  1
-0.649
 50
     0.000
  0
TEXT
  8
21
 10
  5767.167
 20
  5371.427
 40
    82.312
  1
(+) wind towards surface
 50
     0.000
  0
TEXT
  8
21
 10
  5767.167
 20
  5247.958
 40
    82.312
  1
(-) wind away from surface
 50
     0.000
  0
LINE
  8
0
 10
 -1779.324
 20
 -1118.681
 11
  9010.865
 21
 -1118.681
  0
LINE
  8
0
 10
  9010.865
 20
 -1118.681
 11
  9010.865
 21
  6973.962
  0
LINE
  8
0
 10
  9010.865
 20
  6973.962
 11
 -1779.324
 21
  6973.962
  0
LINE
  8
0
 10
 -1779.324
 20
  6973.962
 11
 -1779.324
 21
 -1118.681
  0
LINE
  8
0
 10
 -1779.324
 20
  -851.623
 11
  9010.865
 21
  -851.623
  0
TEXT
  8
0
 10
  2013.427
 20
 -1074.171
 40
   178.038
  1
Panel Zone: Wind 3
 50
     0.000
  0
TEXT
  8
0
 10
 -1690.305
 20
 -1074.171
 40
   178.038
  1
C08-033
 50
     0.000
  0
TEXT
  8
0
 10
  6963.427
 20
 -1074.171
 40
   178.038
  1
23/APR/2026
 50
     0.000
  0
ENDSEC
  0
EOF
