  0
SECTION
  2
HEADER
  9
$ACADVER
  1
AC1009
  9
$EXTMIN
 10
 -3050.000
 20
-20213.701
  9
$EXTMAX
 10
 64050.000
 20
 30111.301
  9
$LIMMIN
 10
 -3050.000
 20
-20213.701
  9
$LIMMAX
 10
 64050.000
 20
 30111.301
  9
$FILLMODE
 70
     1
  9
$HANDLING
 70
     0
  0
ENDSEC
  0
SECTION
  2
TABLES
  0
TABLE
  2
LTYPE
 70
1
  0
LTYPE
  2
CONTIN
 70
    64
  3
SOLID LINE
 72
    65
 73
     0
 40
0.0
  0
LTYPE
  2
CONTINUOUS
 70
    64
  3
SOLID LINE
 72
    65
 73
     0
 40
0.0
  0
LTYPE
  2
CENTER
 70
    64
  3
____ _ ____ _ ____ _ ____ _ ____ _ ____ _ ____
 72
    65
 73
     4
 40
   886.109
 49
   553.818
 49
  -110.764
 49
   110.764
 49
  -110.764
  0
LTYPE
  2
DASHED
 70
    64
  3
__ __ __ __ __ __ __ __ __ __ __ __ __ __ __ 
 72
    65
 73
     2
 40
   805.20
 49
   536.80
 49
  -268.40
  0
ENDTAB
  0
TABLE
  2
LAYER
 70
30
  0
LAYER
  2
0
 70
     0
 62
     7
  6
CONTIN
  0
LAYER
  2
1
 70
     0
 62
     7
  6
CONTIN
  0
LAYER
  2
2
 70
     0
 62
     7
  6
CONTIN
  0
LAYER
  2
3
 70
     0
 62
     7
  6
CONTIN
  0
LAYER
  2
4
 70
     0
 62
     5
  6
CONTIN
  0
LAYER
  2
5
 70
     0
 62
     5
  6
DASHED
  0
LAYER
  2
6
 70
     0
 62
     5
  6
DASHED
  0
LAYER
  2
7
 70
     0
 62
     5
  6
CONTIN
  0
LAYER
  2
8
 70
     0
 62
     5
  6
DASHED
  0
LAYER
  2
9
 70
     0
 62
     7
  6
CONTIN
  0
LAYER
  2
10
 70
     0
 62
     7
  6
CONTIN
  0
LAYER
  2
11
 70
     0
 62
     6
  6
DASHED
  0
LAYER
  2
12
 70
     0
 62
     7
  6
DASHED
  0
LAYER
  2
13
 70
     0
 62
     5
  6
DASHED
  0
LAYER
  2
14
 70
     0
 62
     7
  6
CONTIN
  0
LAYER
  2
15
 70
     0
 62
     5
  6
CONTIN
  0
LAYER
  2
16
 70
     0
 62
     7
  6
CONTIN
  0
LAYER
  2
17
 70
     0
 62
     7
  6
CONTIN
  0
LAYER
  2
18
 70
     0
 62
     7
  6
CONTIN
  0
LAYER
  2
19
 70
     0
 62
     7
  6
CONTIN
  0
LAYER
  2
20
 70
     0
 62
     1
  6
CONTIN
  0
LAYER
  2
21
 70
     0
 62
     7
  6
CONTIN
  0
LAYER
  2
22
 70
     0
 62
     7
  6
DASHED
  0
LAYER
  2
23
 70
     0
 62
     7
  6
DASHED
  0
LAYER
  2
24
 70
     0
 62
     7
  6
CONTIN
  0
LAYER
  2
25
 70
     0
 62
     7
  6
CONTIN
  0
LAYER
  2
26
 70
     0
 62
     7
  6
CONTIN
  0
LAYER
  2
27
 70
     0
 62
     1
  6
CENTER
  0
LAYER
  2
28
 70
     0
 62
     7
  6
CONTIN
  0
LAYER
  2
29
 70
     0
 62
     3
  6
DASHED
  0
ENDTAB
  0
TABLE
  2
STYLE
 70
  0
  0
ENDTAB
  0
ENDSEC
  0
SECTION
  2
ENTITIES
  0
LINE
  8
1
 10
  7349.200
 20
     0.000
 11
  7349.200
 21
  6834.643
  0
LINE
  8
1
 10
  7450.800
 20
     0.000
 11
  7450.800
 21
  6834.643
  0
LINE
  8
1
 10
  7349.200
 20
     0.000
 11
  7450.800
 21
     0.000
  0
LINE
  8
1
 10
  7349.200
 20
  6834.643
 11
  7450.800
 21
  6834.643
  0
TEXT
  8
16
 10
  7156.160
 20
  -152.400
 40
   121.920
  1
Col2
 50
     0.000
  0
LINE
  8
1
 10
 15049.199
 20
     0.000
 11
 15049.199
 21
  7592.918
  0
LINE
  8
1
 10
 15150.800
 20
     0.000
 11
 15150.800
 21
  7592.918
  0
LINE
  8
1
 10
 15049.199
 20
     0.000
 11
 15150.800
 21
     0.000
  0
LINE
  8
1
 10
 15049.199
 20
  7592.918
 11
 15150.800
 21
  7592.918
  0
TEXT
  8
16
 10
 14856.160
 20
  -152.400
 40
   121.920
  1
Col3
 50
     0.000
  0
LINE
  8
1
 10
 22749.201
 20
     0.000
 11
 22749.201
 21
  8517.996
  0
LINE
  8
1
 10
 22850.799
 20
     0.000
 11
 22850.799
 21
  8517.996
  0
LINE
  8
1
 10
 22749.201
 20
     0.000
 11
 22850.799
 21
     0.000
  0
LINE
  8
1
 10
 22749.201
 20
  8517.996
 11
 22850.799
 21
  8517.996
  0
TEXT
  8
16
 10
 22556.160
 20
  -152.400
 40
   121.920
  1
Col4
 50
     0.000
  0
LINE
  8
1
 10
 30449.201
 20
     0.000
 11
 30449.201
 21
  8794.400
  0
LINE
  8
1
 10
 30550.799
 20
     0.000
 11
 30550.799
 21
  8794.400
  0
LINE
  8
1
 10
 30449.201
 20
     0.000
 11
 30550.799
 21
     0.000
  0
LINE
  8
1
 10
 30449.201
 20
  8794.400
 11
 30550.799
 21
  8794.400
  0
TEXT
  8
16
 10
 30256.158
 20
  -152.400
 40
   121.920
  1
Col5
 50
     0.000
  0
LINE
  8
1
 10
 38149.199
 20
     0.000
 11
 38149.199
 21
  8517.996
  0
LINE
  8
1
 10
 38250.797
 20
     0.000
 11
 38250.797
 21
  8517.996
  0
LINE
  8
1
 10
 38149.199
 20
     0.000
 11
 38250.797
 21
     0.000
  0
LINE
  8
1
 10
 38149.199
 20
  8517.996
 11
 38250.797
 21
  8517.996
  0
TEXT
  8
16
 10
 37956.160
 20
  -152.400
 40
   121.920
  1
Col6
 50
     0.000
  0
LINE
  8
1
 10
 45849.199
 20
     0.000
 11
 45849.199
 21
  7592.918
  0
LINE
  8
1
 10
 45950.801
 20
     0.000
 11
 45950.801
 21
  7592.918
  0
LINE
  8
1
 10
 45849.199
 20
     0.000
 11
 45950.801
 21
     0.000
  0
LINE
  8
1
 10
 45849.199
 20
  7592.918
 11
 45950.801
 21
  7592.918
  0
TEXT
  8
16
 10
 45656.160
 20
  -152.400
 40
   121.920
  1
Col7
 50
     0.000
  0
LINE
  8
1
 10
 53549.199
 20
     0.000
 11
 53549.199
 21
  6834.643
  0
LINE
  8
1
 10
 53650.801
 20
     0.000
 11
 53650.801
 21
  6834.643
  0
LINE
  8
1
 10
 53549.199
 20
     0.000
 11
 53650.801
 21
     0.000
  0
LINE
  8
1
 10
 53549.199
 20
  6834.643
 11
 53650.801
 21
  6834.643
  0
TEXT
  8
16
 10
 53356.160
 20
  -152.400
 40
   121.920
  1
Col8
 50
     0.000
  0
LINE
  8
9
 10
  7349.200
 20
     0.000
 11
  7450.800
 21
     0.000
  0
LINE
  8
9
 10
  7349.200
 20
    25.400
 11
  7450.800
 21
    25.400
  0
LINE
  8
9
 10
  7349.200
 20
     0.000
 11
  7349.200
 21
    25.400
  0
LINE
  8
9
 10
  7450.800
 20
     0.000
 11
  7450.800
 21
    25.400
  0
LINE
  8
9
 10
 15049.199
 20
     0.000
 11
 15150.799
 21
     0.000
  0
LINE
  8
9
 10
 15049.199
 20
    25.400
 11
 15150.799
 21
    25.400
  0
LINE
  8
9
 10
 15049.199
 20
     0.000
 11
 15049.199
 21
    25.400
  0
LINE
  8
9
 10
 15150.799
 20
     0.000
 11
 15150.799
 21
    25.400
  0
LINE
  8
9
 10
 22749.201
 20
     0.000
 11
 22850.803
 21
     0.000
  0
LINE
  8
9
 10
 22749.201
 20
    25.400
 11
 22850.803
 21
    25.400
  0
LINE
  8
9
 10
 22749.201
 20
     0.000
 11
 22749.201
 21
    25.400
  0
LINE
  8
9
 10
 22850.803
 20
     0.000
 11
 22850.803
 21
    25.400
  0
LINE
  8
9
 10
 30449.201
 20
     0.000
 11
 30550.801
 21
     0.000
  0
LINE
  8
9
 10
 30449.201
 20
    25.400
 11
 30550.801
 21
    25.400
  0
LINE
  8
9
 10
 30449.201
 20
     0.000
 11
 30449.201
 21
    25.400
  0
LINE
  8
9
 10
 30550.801
 20
     0.000
 11
 30550.801
 21
    25.400
  0
LINE
  8
9
 10
 38149.199
 20
     0.000
 11
 38250.801
 21
     0.000
  0
LINE
  8
9
 10
 38149.199
 20
    25.400
 11
 38250.801
 21
    25.400
  0
LINE
  8
9
 10
 38149.199
 20
     0.000
 11
 38149.199
 21
    25.400
  0
LINE
  8
9
 10
 38250.801
 20
     0.000
 11
 38250.801
 21
    25.400
  0
LINE
  8
9
 10
 45849.199
 20
     0.000
 11
 45950.797
 21
     0.000
  0
LINE
  8
9
 10
 45849.199
 20
    25.400
 11
 45950.797
 21
    25.400
  0
LINE
  8
9
 10
 45849.199
 20
     0.000
 11
 45849.199
 21
    25.400
  0
LINE
  8
9
 10
 45950.797
 20
     0.000
 11
 45950.797
 21
    25.400
  0
LINE
  8
9
 10
 53549.199
 20
     0.000
 11
 53650.797
 21
     0.000
  0
LINE
  8
9
 10
 53549.199
 20
    25.400
 11
 53650.797
 21
    25.400
  0
LINE
  8
9
 10
 53549.199
 20
     0.000
 11
 53549.199
 21
    25.400
  0
LINE
  8
9
 10
 53650.797
 20
     0.000
 11
 53650.797
 21
    25.400
  0
LINE
  8
8
 10
     0.000
 20
     0.000
 11
     0.000
 21
  7000.000
  0
LINE
  8
8
 10
     0.000
 20
  7000.000
 11
 30500.000
 21
 10050.000
  0
LINE
  8
8
 10
 30500.000
 20
 10050.000
 11
 61000.000
 21
  7000.000
  0
LINE
  8
8
 10
 61000.000
 20
  7000.000
 11
 61000.000
 21
     0.000
  0
LINE
  8
8
 10
   405.000
 20
     0.000
 11
   555.000
 21
  6344.000
  0
LINE
  8
8
 10
   555.000
 20
  6344.000
 11
   555.000
 21
  6344.000
  0
LINE
  8
8
 10
   555.000
 20
  6344.000
 11
  3694.500
 21
  6557.400
  0
LINE
  8
8
 10
  3694.500
 20
  6557.400
 11
  3694.500
 21
  6557.400
  0
LINE
  8
8
 10
  3694.500
 20
  6557.400
 11
  9679.600
 21
  7005.200
  0
LINE
  8
8
 10
  9679.600
 20
  7005.200
 11
  9679.600
 21
  7005.200
  0
LINE
  8
8
 10
  9679.600
 20
  7005.200
 11
 15644.900
 21
  7652.000
  0
LINE
  8
8
 10
 15644.900
 20
  7652.000
 11
 15644.900
 21
  7652.000
  0
LINE
  8
8
 10
 15644.900
 20
  7652.000
 11
 21595.199
 21
  8448.000
  0
LINE
  8
8
 10
 21595.199
 20
  8448.000
 11
 21595.199
 21
  8448.000
  0
LINE
  8
8
 10
 21595.199
 20
  8448.000
 11
 27590.301
 21
  8796.300
  0
LINE
  8
8
 10
 27590.301
 20
  8796.300
 11
 27590.301
 21
  8796.300
  0
LINE
  8
8
 10
 27590.301
 20
  8796.300
 11
 30500.000
 21
  8794.400
  0
LINE
  8
8
 10
 30500.000
 20
  8794.400
 11
 30500.000
 21
  8794.400
  0
LINE
  8
8
 10
 30500.000
 20
  8794.400
 11
 33409.699
 21
  8796.300
  0
LINE
  8
8
 10
 33409.699
 20
  8796.300
 11
 33409.699
 21
  8796.300
  0
LINE
  8
8
 10
 33409.699
 20
  8796.300
 11
 39404.801
 21
  8448.000
  0
LINE
  8
8
 10
 39404.801
 20
  8448.000
 11
 39404.801
 21
  8448.000
  0
LINE
  8
8
 10
 39404.801
 20
  8448.000
 11
 45355.098
 21
  7652.000
  0
LINE
  8
8
 10
 45355.098
 20
  7652.000
 11
 45355.098
 21
  7652.000
  0
LINE
  8
8
 10
 45355.098
 20
  7652.000
 11
 51320.398
 21
  7005.200
  0
LINE
  8
8
 10
 51320.398
 20
  7005.200
 11
 51320.398
 21
  7005.200
  0
LINE
  8
8
 10
 51320.398
 20
  7005.200
 11
 57305.500
 21
  6557.400
  0
LINE
  8
8
 10
 57305.500
 20
  6557.400
 11
 57305.500
 21
  6557.400
  0
LINE
  8
8
 10
 57305.500
 20
  6557.400
 11
 60445.000
 21
  6344.000
  0
LINE
  8
8
 10
 60445.000
 20
  6344.000
 11
 60445.000
 21
  6344.000
  0
LINE
  8
8
 10
 60445.000
 20
  6344.000
 11
 60595.000
 21
     0.000
  0
LINE
  8
2
 10
 16950.000
 20
    91.440
 11
 16950.000
 21
  4458.560
  0
LINE
  8
2
 10
 20950.000
 20
    91.440
 11
 20950.000
 21
  4458.560
  0
LINE
  8
2
 10
 17041.439
 20
  4000.000
 11
 20858.559
 21
  4000.000
  0
TEXT
  8
21
 10
 18828.078
 20
  2000.000
 40
   121.920
  1
  5
 50
     0.000
  0
LINE
  8
2
 10
 24650.002
 20
    91.440
 11
 24650.002
 21
  4458.560
  0
LINE
  8
2
 10
 28649.998
 20
    91.440
 11
 28649.998
 21
  4458.560
  0
LINE
  8
2
 10
 24741.441
 20
  4000.000
 11
 28558.559
 21
  4000.000
  0
TEXT
  8
21
 10
 26528.080
 20
  2000.000
 40
   121.920
  1
  6
 50
     0.000
  0
LINE
  8
2
 10
 32350.000
 20
    91.440
 11
 32350.000
 21
  4458.560
  0
LINE
  8
2
 10
 36350.000
 20
    91.440
 11
 36350.000
 21
  4458.560
  0
LINE
  8
2
 10
 32441.441
 20
  4000.000
 11
 36258.559
 21
  4000.000
  0
TEXT
  8
21
 10
 34228.078
 20
  2000.000
 40
   121.920
  1
  7
 50
     0.000
  0
LINE
  8
2
 10
 40050.000
 20
    91.440
 11
 40050.000
 21
  4458.560
  0
LINE
  8
2
 10
 44050.004
 20
    91.440
 11
 44050.004
 21
  4458.560
  0
LINE
  8
2
 10
 40141.441
 20
  4000.000
 11
 43958.562
 21
  4000.000
  0
TEXT
  8
21
 10
 41928.082
 20
  2000.000
 40
   121.920
  1
  8
 50
     0.000
  0
LINE
  8
2
 10
     0.001
 20
  3680.000
 11
  7400.000
 21
  3680.000
  0
LINE
  8
2
 10
  7400.000
 20
  3680.000
 11
 15008.560
 21
  3680.000
  0
LINE
  8
2
 10
 15100.000
 20
  3680.000
 11
 16858.561
 21
  3680.000
  0
LINE
  8
2
 10
 21041.439
 20
  3680.000
 11
 22800.000
 21
  3680.000
  0
LINE
  8
2
 10
 22891.441
 20
  3680.000
 11
 24558.561
 21
  3680.000
  0
LINE
  8
2
 10
 28741.439
 20
  3680.000
 11
 30500.000
 21
  3680.000
  0
LINE
  8
2
 10
 30591.441
 20
  3680.000
 11
 32258.561
 21
  3680.000
  0
LINE
  8
2
 10
 36441.438
 20
  3680.000
 11
 38200.000
 21
  3680.000
  0
LINE
  8
2
 10
 38291.441
 20
  3680.000
 11
 39958.559
 21
  3680.000
  0
LINE
  8
2
 10
 44141.445
 20
  3680.000
 11
 45900.000
 21
  3680.000
  0
LINE
  8
2
 10
 45991.441
 20
  3680.000
 11
 53600.000
 21
  3680.000
  0
LINE
  8
2
 10
 53600.000
 20
  3680.000
 11
 61000.000
 21
  3680.000
  0
LINE
  8
2
 10
 15100.000
 20
  4550.000
 11
 22800.000
 21
  4550.000
  0
LINE
  8
2
 10
 22800.000
 20
  4550.000
 11
 30500.000
 21
  4550.000
  0
LINE
  8
2
 10
 30500.000
 20
  4550.000
 11
 38200.000
 21
  4550.000
  0
LINE
  8
2
 10
 38200.000
 20
  4550.000
 11
 45900.000
 21
  4550.000
  0
LINE
  8
2
 10
     0.002
 20
  5180.000
 11
  7400.000
 21
  5180.000
  0
LINE
  8
2
 10
  7400.000
 20
  5180.000
 11
 15100.000
 21
  5180.000
  0
LINE
  8
2
 10
 15100.000
 20
  5180.000
 11
 22800.000
 21
  5180.000
  0
LINE
  8
2
 10
 22800.000
 20
  5180.000
 11
 30500.000
 21
  5180.000
  0
LINE
  8
2
 10
 30500.000
 20
  5180.000
 11
 38200.000
 21
  5180.000
  0
LINE
  8
2
 10
 38200.000
 20
  5180.000
 11
 45900.000
 21
  5180.000
  0
LINE
  8
2
 10
 45900.000
 20
  5180.000
 11
 53600.000
 21
  5180.000
  0
LINE
  8
2
 10
 53600.000
 20
  5180.000
 11
 61000.000
 21
  5180.000
  0
LINE
  8
2
 10
     0.002
 20
  6680.000
 11
  7400.000
 21
  6680.000
  0
LINE
  8
2
 10
  7400.000
 20
  6680.000
 11
 15100.000
 21
  6680.000
  0
LINE
  8
2
 10
 15100.000
 20
  6680.000
 11
 22800.000
 21
  6680.000
  0
LINE
  8
2
 10
 22800.000
 20
  6680.000
 11
 30500.000
 21
  6680.000
  0
LINE
  8
2
 10
 30500.000
 20
  6680.000
 11
 38200.000
 21
  6680.000
  0
LINE
  8
2
 10
 38200.000
 20
  6680.000
 11
 45900.000
 21
  6680.000
  0
LINE
  8
2
 10
 45900.000
 20
  6680.000
 11
 53600.000
 21
  6680.000
  0
LINE
  8
2
 10
 53600.000
 20
  6680.000
 11
 61000.000
 21
  6680.000
  0
LINE
  8
2
 10
 22800.000
 20
  8180.000
 11
 30500.000
 21
  8180.000
  0
LINE
  8
2
 10
 30500.000
 20
  8180.000
 11
 38200.000
 21
  8180.000
  0
LINE
  8
8
 10
     0.000
 20
  3600.000
 11
  7400.000
 21
  3600.000
  0
LINE
  8
8
 10
  7400.000
 20
  3600.000
 11
 15100.000
 21
  3600.000
  0
LINE
  8
8
 10
 15100.000
 20
  3600.000
 11
 16950.000
 21
  3600.000
  0
LINE
  8
8
 10
 20950.000
 20
  3600.000
 11
 22800.000
 21
  3600.000
  0
LINE
  8
8
 10
 22800.000
 20
  3600.000
 11
 24650.002
 21
  3600.000
  0
LINE
  8
8
 10
 28649.998
 20
  3600.000
 11
 30500.000
 21
  3600.000
  0
LINE
  8
8
 10
 30500.000
 20
  3600.000
 11
 32350.000
 21
  3600.000
  0
LINE
  8
8
 10
 36350.000
 20
  3600.000
 11
 38200.000
 21
  3600.000
  0
LINE
  8
8
 10
 38200.000
 20
  3600.000
 11
 40050.000
 21
  3600.000
  0
LINE
  8
8
 10
 44050.004
 20
  3600.000
 11
 45900.000
 21
  3600.000
  0
LINE
  8
8
 10
 45900.000
 20
  3600.000
 11
 53600.000
 21
  3600.000
  0
LINE
  8
8
 10
 53600.000
 20
  3600.000
 11
 61000.000
 21
  3600.000
  0
LINE
  8
5
 10
   350.353
 20
  7035.035
 11
   370.253
 21
  6836.027
  0
LINE
  8
5
 10
  1842.908
 20
  7184.291
 11
  1862.809
 21
  6985.283
  0
LINE
  8
5
 10
  3335.464
 20
  7333.546
 11
  3355.365
 21
  7134.539
  0
LINE
  8
5
 10
  4828.020
 20
  7482.802
 11
  4847.921
 21
  7283.794
  0
LINE
  8
5
 10
  6320.576
 20
  7632.057
 11
  6340.476
 21
  7433.049
  0
LINE
  8
5
 10
  7813.131
 20
  7781.313
 11
  7833.032
 21
  7582.306
  0
LINE
  8
5
 10
  9305.687
 20
  7930.568
 11
  9325.587
 21
  7731.561
  0
LINE
  8
5
 10
 10798.243
 20
  8079.824
 11
 10818.144
 21
  7880.816
  0
LINE
  8
5
 10
 12290.798
 20
  8229.080
 11
 12310.699
 21
  8030.072
  0
LINE
  8
5
 10
 13783.354
 20
  8378.335
 11
 13803.255
 21
  8179.328
  0
LINE
  8
5
 10
 15275.910
 20
  8527.591
 11
 15295.812
 21
  8328.583
  0
LINE
  8
5
 10
 16768.467
 20
  8676.847
 11
 16788.367
 21
  8477.839
  0
LINE
  8
5
 10
 18261.021
 20
  8826.103
 11
 18280.924
 21
  8627.095
  0
LINE
  8
5
 10
 19753.578
 20
  8975.357
 11
 19773.479
 21
  8776.350
  0
LINE
  8
5
 10
 21246.135
 20
  9124.613
 11
 21266.035
 21
  8925.606
  0
LINE
  8
5
 10
 22738.689
 20
  9273.869
 11
 22758.592
 21
  9074.861
  0
LINE
  8
5
 10
 24231.244
 20
  9423.124
 11
 24251.145
 21
  9224.117
  0
LINE
  8
5
 10
 25723.801
 20
  9572.381
 11
 25743.701
 21
  9373.373
  0
LINE
  8
5
 10
 27216.355
 20
  9721.636
 11
 27236.258
 21
  9522.628
  0
LINE
  8
5
 10
 28708.914
 20
  9870.892
 11
 28728.814
 21
  9671.884
  0
LINE
  8
5
 10
 30201.469
 20
 10020.146
 11
 30221.371
 21
  9821.139
  0
LINE
  8
5
 10
 30798.512
 20
 10020.148
 11
 30778.611
 21
  9821.141
  0
LINE
  8
5
 10
 32291.066
 20
  9870.894
 11
 32271.166
 21
  9671.886
  0
LINE
  8
5
 10
 33783.621
 20
  9721.638
 11
 33763.723
 21
  9522.630
  0
LINE
  8
5
 10
 35276.180
 20
  9572.382
 11
 35256.277
 21
  9373.375
  0
LINE
  8
5
 10
 36768.734
 20
  9423.127
 11
 36748.836
 21
  9224.119
  0
LINE
  8
5
 10
 38261.289
 20
  9273.871
 11
 38241.391
 21
  9074.863
  0
LINE
  8
5
 10
 39753.848
 20
  9124.615
 11
 39733.945
 21
  8925.607
  0
LINE
  8
5
 10
 41246.402
 20
  8975.360
 11
 41226.500
 21
  8776.353
  0
LINE
  8
5
 10
 42738.957
 20
  8826.104
 11
 42719.055
 21
  8627.097
  0
LINE
  8
5
 10
 44231.512
 20
  8676.849
 11
 44211.609
 21
  8477.841
  0
LINE
  8
5
 10
 45724.066
 20
  8527.593
 11
 45704.168
 21
  8328.586
  0
LINE
  8
5
 10
 47216.621
 20
  8378.338
 11
 47196.723
 21
  8179.330
  0
LINE
  8
5
 10
 48709.184
 20
  8229.082
 11
 48689.281
 21
  8030.075
  0
LINE
  8
5
 10
 50201.734
 20
  8079.826
 11
 50181.832
 21
  7880.819
  0
LINE
  8
5
 10
 51694.293
 20
  7930.571
 11
 51674.395
 21
  7731.563
  0
LINE
  8
5
 10
 53186.848
 20
  7781.315
 11
 53166.949
 21
  7582.308
  0
LINE
  8
5
 10
 54679.406
 20
  7632.060
 11
 54659.504
 21
  7433.052
  0
LINE
  8
5
 10
 56171.961
 20
  7482.804
 11
 56152.059
 21
  7283.796
  0
LINE
  8
5
 10
 57664.516
 20
  7333.549
 11
 57644.613
 21
  7134.541
  0
LINE
  8
5
 10
 59157.070
 20
  7184.292
 11
 59137.168
 21
  6985.285
  0
LINE
  8
5
 10
 60649.625
 20
  7035.037
 11
 60629.727
 21
  6836.030
  0
LINE
  8
6
 10
  1850.000
 20
  3680.000
 11
  1850.000
 21
  6880.200
  0
LINE
  8
6
 10
  3700.000
 20
  3680.000
 11
  3700.000
 21
  7065.200
  0
LINE
  8
6
 10
  5550.000
 20
  3680.000
 11
  5550.000
 21
  7250.200
  0
LINE
  8
6
 10
  9325.000
 20
  3680.000
 11
  9325.000
 21
  7627.700
  0
LINE
  8
6
 10
 11250.000
 20
  3680.000
 11
 11250.000
 21
  7820.200
  0
LINE
  8
6
 10
 13175.000
 20
  3680.000
 11
 13175.000
 21
  8012.700
  0
LINE
  8
6
 10
 17025.000
 20
  4000.000
 11
 17025.000
 21
  8397.700
  0
LINE
  8
6
 10
 18950.000
 20
  4000.000
 11
 18950.000
 21
  8590.200
  0
LINE
  8
6
 10
 20875.000
 20
  4000.000
 11
 20875.000
 21
  8782.699
  0
LINE
  8
6
 10
 24725.002
 20
  4000.000
 11
 24725.002
 21
  9167.700
  0
LINE
  8
6
 10
 26650.000
 20
  4000.000
 11
 26650.000
 21
  9360.200
  0
LINE
  8
6
 10
 28575.002
 20
  4000.000
 11
 28575.002
 21
  9552.700
  0
LINE
  8
6
 10
 32425.000
 20
  4000.000
 11
 32425.000
 21
  9552.700
  0
LINE
  8
6
 10
 34350.000
 20
  4000.000
 11
 34350.000
 21
  9360.200
  0
LINE
  8
6
 10
 36275.000
 20
  4000.000
 11
 36275.000
 21
  9167.700
  0
LINE
  8
6
 10
 40125.000
 20
  4000.000
 11
 40125.000
 21
  8782.700
  0
LINE
  8
6
 10
 42050.000
 20
  4000.000
 11
 42050.000
 21
  8590.200
  0
LINE
  8
6
 10
 43974.996
 20
  4000.000
 11
 43974.996
 21
  8397.700
  0
LINE
  8
6
 10
 47825.000
 20
  3680.000
 11
 47825.000
 21
  8012.700
  0
LINE
  8
6
 10
 49750.004
 20
  3680.000
 11
 49750.004
 21
  7820.200
  0
LINE
  8
6
 10
 51675.000
 20
  3680.000
 11
 51675.000
 21
  7627.700
  0
LINE
  8
6
 10
 55450.000
 20
  3680.000
 11
 55450.000
 21
  7250.200
  0
LINE
  8
6
 10
 57300.004
 20
  3680.000
 11
 57300.004
 21
  7065.200
  0
LINE
  8
6
 10
 59150.000
 20
  3680.000
 11
 59150.000
 21
  6880.200
  0
LINE
  8
3
 10
 15303.200
 20
  3680.000
 11
 15150.800
 21
  3832.400
  0
LINE
  8
3
 10
 15303.200
 20
  3680.000
 11
 15455.601
 21
  3832.400
  0
LINE
  8
3
 10
 15150.800
 20
  3832.400
 11
 15455.601
 21
  3832.400
  0
LINE
  8
3
 10
 23003.199
 20
  4550.000
 11
 22850.799
 21
  4702.400
  0
LINE
  8
3
 10
 23003.199
 20
  4550.000
 11
 23155.600
 21
  4702.400
  0
LINE
  8
3
 10
 22850.799
 20
  4702.400
 11
 23155.600
 21
  4702.400
  0
LINE
  8
3
 10
 30703.199
 20
  4550.000
 11
 30550.799
 21
  4702.400
  0
LINE
  8
3
 10
 30703.199
 20
  4550.000
 11
 30855.600
 21
  4702.400
  0
LINE
  8
3
 10
 30550.799
 20
  4702.400
 11
 30855.600
 21
  4702.400
  0
LINE
  8
3
 10
 37996.801
 20
  4550.000
 11
 38149.199
 21
  4702.400
  0
LINE
  8
3
 10
 37996.801
 20
  4550.000
 11
 37844.398
 21
  4702.400
  0
LINE
  8
3
 10
 38149.199
 20
  4702.400
 11
 37844.398
 21
  4702.400
  0
LINE
  8
3
 10
 45696.801
 20
  3680.000
 11
 45849.199
 21
  3832.400
  0
LINE
  8
3
 10
 45696.801
 20
  3680.000
 11
 45544.398
 21
  3832.400
  0
LINE
  8
3
 10
 45849.199
 20
  3832.400
 11
 45544.398
 21
  3832.400
  0
LINE
  8
0
 10
 -3050.000
 20
-20213.701
 11
 64050.000
 21
-20213.701
  0
LINE
  8
0
 10
 64050.000
 20
-20213.701
 11
 64050.000
 21
 30111.301
  0
LINE
  8
0
 10
 64050.000
 20
 30111.301
 11
 -3050.000
 21
 30111.301
  0
LINE
  8
0
 10
 -3050.000
 20
 30111.301
 11
 -3050.000
 21
-20213.701
  0
LINE
  8
0
 10
 -3050.000
 20
-18552.975
 11
 64050.000
 21
-18552.975
  0
TEXT
  8
0
 10
 19428.500
 20
-19936.912
 40
  1107.150
  1
Right Endwall Design
 50
     0.000
  0
TEXT
  8
0
 10
 -2496.425
 20
-19936.912
 40
  1107.150
  1
C08-033
 50
     0.000
  0
TEXT
  8
0
 10
 51317.773
 20
-19936.912
 40
  1107.150
  1
23/APR/2026
 50
     0.000
  0
ENDSEC
  0
EOF
