  0
SECTION
  2
HEADER
  9
$ACADVER
  1
AC1009
  9
$EXTMIN
 10
 -3050.000
 20
-14686.198
  9
$EXTMAX
 10
 64050.004
 20
 35638.801
  9
$LIMMIN
 10
 -3050.000
 20
-14686.198
  9
$LIMMAX
 10
 64050.004
 20
 35638.801
  9
$FILLMODE
 70
     1
  9
$HANDLING
 70
     0
  0
ENDSEC
  0
SECTION
  2
TABLES
  0
TABLE
  2
LTYPE
 70
1
  0
LTYPE
  2
CONTIN
 70
    64
  3
SOLID LINE
 72
    65
 73
     0
 40
0.0
  0
LTYPE
  2
CONTINUOUS
 70
    64
  3
SOLID LINE
 72
    65
 73
     0
 40
0.0
  0
LTYPE
  2
CENTER
 70
    64
  3
____ _ ____ _ ____ _ ____ _ ____ _ ____ _ ____
 72
    65
 73
     4
 40
     6.154
 49
     3.846
 49
    -0.769
 49
     0.769
 49
    -0.769
  0
LTYPE
  2
DASHED
 70
    64
  3
__ __ __ __ __ __ __ __ __ __ __ __ __ __ __ 
 72
    65
 73
     2
 40
   805.20
 49
   536.80
 49
  -268.40
  0
ENDTAB
  0
TABLE
  2
LAYER
 70
30
  0
LAYER
  2
0
 70
     0
 62
     7
  6
CONTIN
  0
LAYER
  2
1
 70
     0
 62
     7
  6
CONTIN
  0
LAYER
  2
2
 70
     0
 62
     7
  6
CONTIN
  0
LAYER
  2
3
 70
     0
 62
     7
  6
CONTIN
  0
LAYER
  2
4
 70
     0
 62
     5
  6
CONTIN
  0
LAYER
  2
5
 70
     0
 62
     5
  6
DASHED
  0
LAYER
  2
6
 70
     0
 62
     5
  6
DASHED
  0
LAYER
  2
7
 70
     0
 62
     5
  6
CONTIN
  0
LAYER
  2
8
 70
     0
 62
     5
  6
DASHED
  0
LAYER
  2
9
 70
     0
 62
     7
  6
CONTIN
  0
LAYER
  2
10
 70
     0
 62
     7
  6
CONTIN
  0
LAYER
  2
11
 70
     0
 62
     6
  6
DASHED
  0
LAYER
  2
12
 70
     0
 62
     7
  6
DASHED
  0
LAYER
  2
13
 70
     0
 62
     5
  6
DASHED
  0
LAYER
  2
14
 70
     0
 62
     7
  6
CONTIN
  0
LAYER
  2
15
 70
     0
 62
     5
  6
CONTIN
  0
LAYER
  2
16
 70
     0
 62
     7
  6
CONTIN
  0
LAYER
  2
17
 70
     0
 62
     7
  6
CONTIN
  0
LAYER
  2
18
 70
     0
 62
     7
  6
CONTIN
  0
LAYER
  2
19
 70
     0
 62
     7
  6
CONTIN
  0
LAYER
  2
20
 70
     0
 62
     1
  6
CONTIN
  0
LAYER
  2
21
 70
     0
 62
     7
  6
CONTIN
  0
LAYER
  2
22
 70
     0
 62
     7
  6
DASHED
  0
LAYER
  2
23
 70
     0
 62
     7
  6
DASHED
  0
LAYER
  2
24
 70
     0
 62
     7
  6
CONTIN
  0
LAYER
  2
25
 70
     0
 62
     7
  6
CONTIN
  0
LAYER
  2
26
 70
     0
 62
     7
  6
CONTIN
  0
LAYER
  2
27
 70
     0
 62
     1
  6
CENTER
  0
LAYER
  2
28
 70
     0
 62
     7
  6
CONTIN
  0
LAYER
  2
29
 70
     0
 62
     3
  6
DASHED
  0
ENDTAB
  0
TABLE
  2
STYLE
 70
  0
  0
ENDTAB
  0
ENDSEC
  0
SECTION
  2
ENTITIES
  0
LINE
  8
8
 10
     0.000
 20
 11055.001
 11
     0.000
 21
 18055.000
  0
LINE
  8
8
 10
     0.000
 20
 18055.000
 11
 30500.002
 21
 21105.002
  0
LINE
  8
8
 10
 30500.002
 20
 21105.002
 11
 61000.004
 21
 18055.000
  0
LINE
  8
8
 10
 61000.004
 20
 18055.000
 11
 61000.004
 21
 11055.001
  0
LINE
  8
8
 10
     0.000
 20
     0.000
 11
     0.000
 21
  7000.000
  0
LINE
  8
8
 10
     0.000
 20
  7000.000
 11
 30500.002
 21
 10050.000
  0
LINE
  8
8
 10
 30500.002
 20
 10050.000
 11
 61000.004
 21
  7000.000
  0
LINE
  8
8
 10
 61000.004
 20
  7000.000
 11
 61000.004
 21
     0.000
  0
LINE
  8
3
 10
 15155.000
 20
 14735.001
 11
 15330.906
 21
 14836.726
  0
LINE
  8
3
 10
 15155.000
 20
 14735.001
 11
 15331.018
 21
 14633.471
  0
LINE
  8
3
 10
 15331.018
 20
 14633.471
 11
 15330.906
 21
 14836.726
  0
LINE
  8
3
 10
 22855.000
 20
 15605.001
 11
 23030.906
 21
 15706.725
  0
LINE
  8
3
 10
 22855.000
 20
 15605.001
 11
 23031.018
 21
 15503.472
  0
LINE
  8
3
 10
 23031.018
 20
 15503.472
 11
 23030.906
 21
 15706.725
  0
LINE
  8
3
 10
 30555.002
 20
 15605.001
 11
 30730.908
 21
 15706.725
  0
LINE
  8
3
 10
 30555.002
 20
 15605.001
 11
 30731.020
 21
 15503.472
  0
LINE
  8
3
 10
 30731.020
 20
 15503.472
 11
 30730.908
 21
 15706.725
  0
LINE
  8
3
 10
 38145.000
 20
 15605.001
 11
 37969.074
 21
 15503.311
  0
LINE
  8
3
 10
 38145.000
 20
 15605.001
 11
 37969.000
 21
 15706.565
  0
LINE
  8
3
 10
 37969.000
 20
 15706.565
 11
 37969.074
 21
 15503.311
  0
LINE
  8
3
 10
 45845.000
 20
 14735.001
 11
 45669.074
 21
 14633.312
  0
LINE
  8
3
 10
 45845.000
 20
 14735.001
 11
 45669.000
 21
 14836.563
  0
LINE
  8
3
 10
 45669.000
 20
 14836.563
 11
 45669.074
 21
 14633.312
  0
LINE
  8
3
 10
 15155.000
 20
  3680.000
 11
 15330.906
 21
  3781.723
  0
LINE
  8
3
 10
 15155.000
 20
  3680.000
 11
 15331.018
 21
  3578.470
  0
LINE
  8
3
 10
 15331.018
 20
  3578.470
 11
 15330.906
 21
  3781.723
  0
LINE
  8
3
 10
 22855.000
 20
  4550.000
 11
 23030.906
 21
  4651.723
  0
LINE
  8
3
 10
 22855.000
 20
  4550.000
 11
 23031.018
 21
  4448.470
  0
LINE
  8
3
 10
 23031.018
 20
  4448.470
 11
 23030.906
 21
  4651.723
  0
LINE
  8
3
 10
 30555.002
 20
  4550.000
 11
 30730.908
 21
  4651.723
  0
LINE
  8
3
 10
 30555.002
 20
  4550.000
 11
 30731.020
 21
  4448.470
  0
LINE
  8
3
 10
 30731.020
 20
  4448.470
 11
 30730.908
 21
  4651.723
  0
LINE
  8
3
 10
 38145.000
 20
  4550.000
 11
 37969.074
 21
  4448.311
  0
LINE
  8
3
 10
 38145.000
 20
  4550.000
 11
 37969.000
 21
  4651.563
  0
LINE
  8
3
 10
 37969.000
 20
  4651.563
 11
 37969.074
 21
  4448.311
  0
LINE
  8
3
 10
 45845.000
 20
  3680.000
 11
 45669.074
 21
  3578.311
  0
LINE
  8
3
 10
 45845.000
 20
  3680.000
 11
 45669.000
 21
  3781.564
  0
LINE
  8
3
 10
 45669.000
 20
  3781.564
 11
 45669.074
 21
  3578.311
  0
LINE
  8
5
 10
   350.353
 20
 18090.037
 11
   370.253
 21
 17891.029
  0
LINE
  8
5
 10
  1842.908
 20
 18239.293
 11
  1862.809
 21
 18040.285
  0
LINE
  8
5
 10
  3335.464
 20
 18388.547
 11
  3355.365
 21
 18189.541
  0
LINE
  8
5
 10
  4828.021
 20
 18537.803
 11
  4847.921
 21
 18338.797
  0
LINE
  8
5
 10
  6320.576
 20
 18687.057
 11
  6340.477
 21
 18488.051
  0
LINE
  8
5
 10
  7813.132
 20
 18836.314
 11
  7833.033
 21
 18637.307
  0
LINE
  8
5
 10
  9305.687
 20
 18985.570
 11
  9325.588
 21
 18786.562
  0
LINE
  8
5
 10
 10798.242
 20
 19134.826
 11
 10818.144
 21
 18935.818
  0
LINE
  8
5
 10
 12290.799
 20
 19284.082
 11
 12310.699
 21
 19085.074
  0
LINE
  8
5
 10
 13783.355
 20
 19433.338
 11
 13803.257
 21
 19234.330
  0
LINE
  8
5
 10
 15275.911
 20
 19582.592
 11
 15295.812
 21
 19383.586
  0
LINE
  8
5
 10
 16768.467
 20
 19731.848
 11
 16788.367
 21
 19532.842
  0
LINE
  8
5
 10
 18261.021
 20
 19881.102
 11
 18280.922
 21
 19682.096
  0
LINE
  8
5
 10
 19753.576
 20
 20030.359
 11
 19773.479
 21
 19831.350
  0
LINE
  8
5
 10
 21246.135
 20
 20179.615
 11
 21266.035
 21
 19980.607
  0
LINE
  8
5
 10
 22738.689
 20
 20328.871
 11
 22758.590
 21
 20129.863
  0
LINE
  8
5
 10
 24231.244
 20
 20478.127
 11
 24251.146
 21
 20279.119
  0
LINE
  8
5
 10
 25723.801
 20
 20627.381
 11
 25743.701
 21
 20428.375
  0
LINE
  8
5
 10
 27216.357
 20
 20776.637
 11
 27236.256
 21
 20577.631
  0
LINE
  8
5
 10
 28708.910
 20
 20925.891
 11
 28728.811
 21
 20726.885
  0
LINE
  8
5
 10
 30201.467
 20
 21075.146
 11
 30221.367
 21
 20876.141
  0
LINE
  8
5
 10
 30798.514
 20
 21075.150
 11
 30778.613
 21
 20876.143
  0
LINE
  8
5
 10
 32291.066
 20
 20925.895
 11
 32271.168
 21
 20726.887
  0
LINE
  8
5
 10
 33783.625
 20
 20776.639
 11
 33763.727
 21
 20577.633
  0
LINE
  8
5
 10
 35276.180
 20
 20627.383
 11
 35256.281
 21
 20428.377
  0
LINE
  8
5
 10
 36768.734
 20
 20478.129
 11
 36748.836
 21
 20279.121
  0
LINE
  8
5
 10
 38261.293
 20
 20328.871
 11
 38241.391
 21
 20129.865
  0
LINE
  8
5
 10
 39753.848
 20
 20179.617
 11
 39733.945
 21
 19980.609
  0
LINE
  8
5
 10
 41246.402
 20
 20030.361
 11
 41226.504
 21
 19831.354
  0
LINE
  8
5
 10
 42738.961
 20
 19881.105
 11
 42719.059
 21
 19682.098
  0
LINE
  8
5
 10
 44231.512
 20
 19731.850
 11
 44211.613
 21
 19532.842
  0
LINE
  8
5
 10
 45724.074
 20
 19582.594
 11
 45704.176
 21
 19383.588
  0
LINE
  8
5
 10
 47216.629
 20
 19433.338
 11
 47196.727
 21
 19234.332
  0
LINE
  8
5
 10
 48709.180
 20
 19284.084
 11
 48689.281
 21
 19085.076
  0
LINE
  8
5
 10
 50201.738
 20
 19134.826
 11
 50181.840
 21
 18935.820
  0
LINE
  8
5
 10
 51694.297
 20
 18985.572
 11
 51674.395
 21
 18786.564
  0
LINE
  8
5
 10
 53186.848
 20
 18836.316
 11
 53166.949
 21
 18637.309
  0
LINE
  8
5
 10
 54679.402
 20
 18687.061
 11
 54659.504
 21
 18488.053
  0
LINE
  8
5
 10
 56171.961
 20
 18537.805
 11
 56152.062
 21
 18338.797
  0
LINE
  8
5
 10
 57664.523
 20
 18388.549
 11
 57644.625
 21
 18189.543
  0
LINE
  8
5
 10
 59157.070
 20
 18239.295
 11
 59137.172
 21
 18040.287
  0
LINE
  8
5
 10
 60649.629
 20
 18090.039
 11
 60629.730
 21
 17891.031
  0
LINE
  8
5
 10
   350.353
 20
  7035.035
 11
   370.253
 21
  6836.028
  0
LINE
  8
5
 10
  1842.908
 20
  7184.291
 11
  1862.809
 21
  6985.284
  0
LINE
  8
5
 10
  3335.464
 20
  7333.546
 11
  3355.365
 21
  7134.539
  0
LINE
  8
5
 10
  4828.021
 20
  7482.802
 11
  4847.921
 21
  7283.795
  0
LINE
  8
5
 10
  6320.576
 20
  7632.057
 11
  6340.477
 21
  7433.050
  0
LINE
  8
5
 10
  7813.132
 20
  7781.313
 11
  7833.033
 21
  7582.306
  0
LINE
  8
5
 10
  9305.687
 20
  7930.568
 11
  9325.588
 21
  7731.562
  0
LINE
  8
5
 10
 10798.242
 20
  8079.825
 11
 10818.144
 21
  7880.817
  0
LINE
  8
5
 10
 12290.799
 20
  8229.080
 11
 12310.699
 21
  8030.073
  0
LINE
  8
5
 10
 13783.355
 20
  8378.336
 11
 13803.257
 21
  8179.329
  0
LINE
  8
5
 10
 15275.911
 20
  8527.591
 11
 15295.812
 21
  8328.584
  0
LINE
  8
5
 10
 16768.467
 20
  8676.847
 11
 16788.367
 21
  8477.840
  0
LINE
  8
5
 10
 18261.021
 20
  8826.103
 11
 18280.922
 21
  8627.095
  0
LINE
  8
5
 10
 19753.576
 20
  8975.357
 11
 19773.479
 21
  8776.351
  0
LINE
  8
5
 10
 21246.135
 20
  9124.613
 11
 21266.035
 21
  8925.606
  0
LINE
  8
5
 10
 22738.689
 20
  9273.869
 11
 22758.590
 21
  9074.861
  0
LINE
  8
5
 10
 24231.244
 20
  9423.125
 11
 24251.146
 21
  9224.117
  0
LINE
  8
5
 10
 25723.801
 20
  9572.380
 11
 25743.701
 21
  9373.373
  0
LINE
  8
5
 10
 27216.357
 20
  9721.636
 11
 27236.256
 21
  9522.629
  0
LINE
  8
5
 10
 28708.910
 20
  9870.892
 11
 28728.811
 21
  9671.884
  0
LINE
  8
5
 10
 30201.467
 20
 10020.147
 11
 30221.367
 21
  9821.140
  0
LINE
  8
5
 10
 30798.514
 20
 10020.149
 11
 30778.613
 21
  9821.143
  0
LINE
  8
5
 10
 32291.066
 20
  9870.894
 11
 32271.168
 21
  9671.887
  0
LINE
  8
5
 10
 33783.625
 20
  9721.639
 11
 33763.727
 21
  9522.631
  0
LINE
  8
5
 10
 35276.180
 20
  9572.382
 11
 35256.281
 21
  9373.375
  0
LINE
  8
5
 10
 36768.734
 20
  9423.127
 11
 36748.836
 21
  9224.120
  0
LINE
  8
5
 10
 38261.293
 20
  9273.871
 11
 38241.391
 21
  9074.864
  0
LINE
  8
5
 10
 39753.848
 20
  9124.616
 11
 39733.945
 21
  8925.608
  0
LINE
  8
5
 10
 41246.402
 20
  8975.359
 11
 41226.504
 21
  8776.353
  0
LINE
  8
5
 10
 42738.961
 20
  8826.104
 11
 42719.059
 21
  8627.098
  0
LINE
  8
5
 10
 44231.512
 20
  8676.849
 11
 44211.613
 21
  8477.842
  0
LINE
  8
5
 10
 45724.074
 20
  8527.594
 11
 45704.176
 21
  8328.586
  0
LINE
  8
5
 10
 47216.629
 20
  8378.337
 11
 47196.727
 21
  8179.330
  0
LINE
  8
5
 10
 48709.180
 20
  8229.082
 11
 48689.281
 21
  8030.075
  0
LINE
  8
5
 10
 50201.738
 20
  8079.826
 11
 50181.840
 21
  7880.819
  0
LINE
  8
5
 10
 51694.297
 20
  7930.571
 11
 51674.395
 21
  7731.563
  0
LINE
  8
5
 10
 53186.848
 20
  7781.315
 11
 53166.949
 21
  7582.309
  0
LINE
  8
5
 10
 54679.402
 20
  7632.060
 11
 54659.504
 21
  7433.052
  0
LINE
  8
5
 10
 56171.961
 20
  7482.804
 11
 56152.062
 21
  7283.796
  0
LINE
  8
5
 10
 57664.523
 20
  7333.548
 11
 57644.625
 21
  7134.541
  0
LINE
  8
5
 10
 59157.070
 20
  7184.293
 11
 59137.172
 21
  6985.286
  0
LINE
  8
5
 10
 60649.629
 20
  7035.037
 11
 60629.730
 21
  6836.030
  0
LINE
  8
1
 10
  7345.000
 20
 11071.001
 11
  7455.000
 21
 11071.001
  0
LINE
  8
1
 10
  7455.000
 20
 11071.001
 11
  7455.000
 21
 17787.000
  0
LINE
  8
1
 10
  7455.000
 20
 17787.000
 11
  7400.000
 21
 17787.000
  0
LINE
  8
1
 10
  7400.000
 20
 17787.000
 11
  7345.000
 21
 17787.000
  0
LINE
  8
1
 10
  7345.000
 20
 17787.000
 11
  7345.000
 21
 11071.001
  0
LINE
  8
9
 10
  7300.000
 20
 11055.001
 11
  7500.000
 21
 11055.001
  0
LINE
  8
9
 10
  7300.000
 20
 11071.001
 11
  7500.000
 21
 11071.001
  0
LINE
  8
9
 10
  7300.000
 20
 11071.001
 11
  7300.000
 21
 11055.001
  0
LINE
  8
9
 10
  7500.000
 20
 11055.001
 11
  7500.000
 21
 11071.001
  0
LINE
  8
9
 10
  7450.000
 20
 11051.001
 11
  7450.000
 21
 11075.001
  0
LINE
  8
9
 10
  7350.000
 20
 11051.001
 11
  7350.000
 21
 11075.001
  0
LINE
  8
1
 10
 15045.001
 20
 11071.001
 11
 15155.000
 21
 11071.001
  0
LINE
  8
1
 10
 15155.000
 20
 11071.001
 11
 15155.000
 21
 18544.701
  0
LINE
  8
1
 10
 15155.000
 20
 18544.701
 11
 15100.001
 21
 18544.701
  0
LINE
  8
1
 10
 15100.001
 20
 18544.701
 11
 15045.001
 21
 18544.701
  0
LINE
  8
1
 10
 15045.001
 20
 18544.701
 11
 15045.001
 21
 11071.001
  0
LINE
  8
9
 10
 15000.000
 20
 11055.001
 11
 15200.001
 21
 11055.001
  0
LINE
  8
9
 10
 15000.000
 20
 11071.001
 11
 15200.001
 21
 11071.001
  0
LINE
  8
9
 10
 15000.000
 20
 11071.001
 11
 15000.000
 21
 11055.001
  0
LINE
  8
9
 10
 15200.001
 20
 11055.001
 11
 15200.001
 21
 11071.001
  0
LINE
  8
9
 10
 15150.001
 20
 11051.001
 11
 15150.001
 21
 11075.001
  0
LINE
  8
9
 10
 15050.001
 20
 11051.001
 11
 15050.001
 21
 11075.001
  0
LINE
  8
1
 10
 22745.000
 20
 11071.001
 11
 22855.000
 21
 11071.001
  0
LINE
  8
1
 10
 22855.000
 20
 11071.001
 11
 22855.000
 21
 19465.701
  0
LINE
  8
1
 10
 22855.000
 20
 19465.701
 11
 22800.000
 21
 19465.701
  0
LINE
  8
1
 10
 22800.000
 20
 19465.701
 11
 22745.000
 21
 19465.701
  0
LINE
  8
1
 10
 22745.000
 20
 19465.701
 11
 22745.000
 21
 11071.001
  0
LINE
  8
9
 10
 22700.000
 20
 11055.001
 11
 22900.000
 21
 11055.001
  0
LINE
  8
9
 10
 22700.000
 20
 11071.001
 11
 22900.000
 21
 11071.001
  0
LINE
  8
9
 10
 22700.000
 20
 11071.001
 11
 22700.000
 21
 11055.001
  0
LINE
  8
9
 10
 22900.000
 20
 11055.001
 11
 22900.000
 21
 11071.001
  0
LINE
  8
9
 10
 22850.000
 20
 11051.001
 11
 22850.000
 21
 11075.001
  0
LINE
  8
9
 10
 22750.000
 20
 11051.001
 11
 22750.000
 21
 11075.001
  0
LINE
  8
1
 10
 30445.000
 20
 11071.001
 11
 30555.002
 21
 11071.001
  0
LINE
  8
1
 10
 30555.002
 20
 11071.001
 11
 30555.002
 21
 19765.400
  0
LINE
  8
1
 10
 30555.002
 20
 19765.400
 11
 30500.002
 21
 19765.400
  0
LINE
  8
1
 10
 30500.002
 20
 19765.400
 11
 30445.000
 21
 19765.400
  0
LINE
  8
1
 10
 30445.000
 20
 19765.400
 11
 30445.000
 21
 11071.001
  0
LINE
  8
9
 10
 30400.002
 20
 11055.001
 11
 30600.002
 21
 11055.001
  0
LINE
  8
9
 10
 30400.002
 20
 11071.001
 11
 30600.002
 21
 11071.001
  0
LINE
  8
9
 10
 30400.002
 20
 11071.001
 11
 30400.002
 21
 11055.001
  0
LINE
  8
9
 10
 30600.002
 20
 11055.001
 11
 30600.002
 21
 11071.001
  0
LINE
  8
9
 10
 30550.002
 20
 11051.001
 11
 30550.002
 21
 11075.001
  0
LINE
  8
9
 10
 30450.002
 20
 11051.001
 11
 30450.002
 21
 11075.001
  0
LINE
  8
1
 10
 38145.000
 20
 11071.001
 11
 38255.000
 21
 11071.001
  0
LINE
  8
1
 10
 38255.000
 20
 11071.001
 11
 38255.000
 21
 19465.701
  0
LINE
  8
1
 10
 38255.000
 20
 19465.701
 11
 38200.000
 21
 19465.701
  0
LINE
  8
1
 10
 38200.000
 20
 19465.701
 11
 38145.000
 21
 19465.701
  0
LINE
  8
1
 10
 38145.000
 20
 19465.701
 11
 38145.000
 21
 11071.001
  0
LINE
  8
9
 10
 38100.000
 20
 11055.001
 11
 38300.000
 21
 11055.001
  0
LINE
  8
9
 10
 38100.000
 20
 11071.001
 11
 38300.000
 21
 11071.001
  0
LINE
  8
9
 10
 38100.000
 20
 11071.001
 11
 38100.000
 21
 11055.001
  0
LINE
  8
9
 10
 38300.000
 20
 11055.001
 11
 38300.000
 21
 11071.001
  0
LINE
  8
9
 10
 38250.000
 20
 11051.001
 11
 38250.000
 21
 11075.001
  0
LINE
  8
9
 10
 38150.000
 20
 11051.001
 11
 38150.000
 21
 11075.001
  0
LINE
  8
1
 10
 45845.000
 20
 11071.001
 11
 45955.004
 21
 11071.001
  0
LINE
  8
1
 10
 45955.004
 20
 11071.001
 11
 45955.004
 21
 18544.701
  0
LINE
  8
1
 10
 45955.004
 20
 18544.701
 11
 45900.000
 21
 18544.701
  0
LINE
  8
1
 10
 45900.000
 20
 18544.701
 11
 45845.000
 21
 18544.701
  0
LINE
  8
1
 10
 45845.000
 20
 18544.701
 11
 45845.000
 21
 11071.001
  0
LINE
  8
9
 10
 45800.000
 20
 11055.001
 11
 46000.000
 21
 11055.001
  0
LINE
  8
9
 10
 45800.000
 20
 11071.001
 11
 46000.000
 21
 11071.001
  0
LINE
  8
9
 10
 45800.000
 20
 11071.001
 11
 45800.000
 21
 11055.001
  0
LINE
  8
9
 10
 46000.000
 20
 11055.001
 11
 46000.000
 21
 11071.001
  0
LINE
  8
9
 10
 45950.000
 20
 11051.001
 11
 45950.000
 21
 11075.001
  0
LINE
  8
9
 10
 45850.000
 20
 11051.001
 11
 45850.000
 21
 11075.001
  0
LINE
  8
1
 10
 53545.004
 20
 11071.001
 11
 53655.000
 21
 11071.001
  0
LINE
  8
1
 10
 53655.000
 20
 11071.001
 11
 53655.000
 21
 17787.000
  0
LINE
  8
1
 10
 53655.000
 20
 17787.000
 11
 53600.000
 21
 17787.000
  0
LINE
  8
1
 10
 53600.000
 20
 17787.000
 11
 53545.004
 21
 17787.000
  0
LINE
  8
1
 10
 53545.004
 20
 17787.000
 11
 53545.004
 21
 11071.001
  0
LINE
  8
9
 10
 53500.000
 20
 11055.001
 11
 53700.004
 21
 11055.001
  0
LINE
  8
9
 10
 53500.000
 20
 11071.001
 11
 53700.004
 21
 11071.001
  0
LINE
  8
9
 10
 53500.000
 20
 11071.001
 11
 53500.000
 21
 11055.001
  0
LINE
  8
9
 10
 53700.004
 20
 11055.001
 11
 53700.004
 21
 11071.001
  0
LINE
  8
9
 10
 53650.004
 20
 11051.001
 11
 53650.004
 21
 11075.001
  0
LINE
  8
9
 10
 53550.000
 20
 11051.001
 11
 53550.000
 21
 11075.001
  0
LINE
  8
1
 10
  7345.000
 20
    16.000
 11
  7455.000
 21
    16.000
  0
LINE
  8
1
 10
  7455.000
 20
    16.000
 11
  7455.000
 21
  6732.000
  0
LINE
  8
1
 10
  7455.000
 20
  6732.000
 11
  7400.000
 21
  6732.000
  0
LINE
  8
1
 10
  7400.000
 20
  6732.000
 11
  7345.000
 21
  6732.000
  0
LINE
  8
1
 10
  7345.000
 20
  6732.000
 11
  7345.000
 21
    16.000
  0
LINE
  8
9
 10
  7300.000
 20
     0.000
 11
  7500.000
 21
     0.000
  0
LINE
  8
9
 10
  7300.000
 20
    16.000
 11
  7500.000
 21
    16.000
  0
LINE
  8
9
 10
  7300.000
 20
    16.000
 11
  7300.000
 21
     0.000
  0
LINE
  8
9
 10
  7500.000
 20
     0.000
 11
  7500.000
 21
    16.000
  0
LINE
  8
9
 10
  7450.000
 20
    -4.000
 11
  7450.000
 21
    20.000
  0
LINE
  8
9
 10
  7350.000
 20
    -4.000
 11
  7350.000
 21
    20.000
  0
LINE
  8
1
 10
 15045.001
 20
    16.000
 11
 15155.000
 21
    16.000
  0
LINE
  8
1
 10
 15155.000
 20
    16.000
 11
 15155.000
 21
  7489.700
  0
LINE
  8
1
 10
 15155.000
 20
  7489.700
 11
 15100.001
 21
  7489.700
  0
LINE
  8
1
 10
 15100.001
 20
  7489.700
 11
 15045.001
 21
  7489.700
  0
LINE
  8
1
 10
 15045.001
 20
  7489.700
 11
 15045.001
 21
    16.000
  0
LINE
  8
9
 10
 15000.000
 20
     0.000
 11
 15200.001
 21
     0.000
  0
LINE
  8
9
 10
 15000.000
 20
    16.000
 11
 15200.001
 21
    16.000
  0
LINE
  8
9
 10
 15000.000
 20
    16.000
 11
 15000.000
 21
     0.000
  0
LINE
  8
9
 10
 15200.001
 20
     0.000
 11
 15200.001
 21
    16.000
  0
LINE
  8
9
 10
 15150.001
 20
    -4.000
 11
 15150.001
 21
    20.000
  0
LINE
  8
9
 10
 15050.001
 20
    -4.000
 11
 15050.001
 21
    20.000
  0
LINE
  8
1
 10
 22745.000
 20
    16.000
 11
 22855.000
 21
    16.000
  0
LINE
  8
1
 10
 22855.000
 20
    16.000
 11
 22855.000
 21
  8410.700
  0
LINE
  8
1
 10
 22855.000
 20
  8410.700
 11
 22800.000
 21
  8410.700
  0
LINE
  8
1
 10
 22800.000
 20
  8410.700
 11
 22745.000
 21
  8410.700
  0
LINE
  8
1
 10
 22745.000
 20
  8410.700
 11
 22745.000
 21
    16.000
  0
LINE
  8
9
 10
 22700.000
 20
     0.000
 11
 22900.000
 21
     0.000
  0
LINE
  8
9
 10
 22700.000
 20
    16.000
 11
 22900.000
 21
    16.000
  0
LINE
  8
9
 10
 22700.000
 20
    16.000
 11
 22700.000
 21
     0.000
  0
LINE
  8
9
 10
 22900.000
 20
     0.000
 11
 22900.000
 21
    16.000
  0
LINE
  8
9
 10
 22850.000
 20
    -4.000
 11
 22850.000
 21
    20.000
  0
LINE
  8
9
 10
 22750.000
 20
    -4.000
 11
 22750.000
 21
    20.000
  0
LINE
  8
1
 10
 30445.000
 20
    16.000
 11
 30555.002
 21
    16.000
  0
LINE
  8
1
 10
 30555.002
 20
    16.000
 11
 30555.002
 21
  8710.400
  0
LINE
  8
1
 10
 30555.002
 20
  8710.400
 11
 30500.002
 21
  8710.400
  0
LINE
  8
1
 10
 30500.002
 20
  8710.400
 11
 30445.000
 21
  8710.400
  0
LINE
  8
1
 10
 30445.000
 20
  8710.400
 11
 30445.000
 21
    16.000
  0
LINE
  8
9
 10
 30400.002
 20
     0.000
 11
 30600.002
 21
     0.000
  0
LINE
  8
9
 10
 30400.002
 20
    16.000
 11
 30600.002
 21
    16.000
  0
LINE
  8
9
 10
 30400.002
 20
    16.000
 11
 30400.002
 21
     0.000
  0
LINE
  8
9
 10
 30600.002
 20
     0.000
 11
 30600.002
 21
    16.000
  0
LINE
  8
9
 10
 30550.002
 20
    -4.000
 11
 30550.002
 21
    20.000
  0
LINE
  8
9
 10
 30450.002
 20
    -4.000
 11
 30450.002
 21
    20.000
  0
LINE
  8
1
 10
 38145.000
 20
    16.000
 11
 38255.000
 21
    16.000
  0
LINE
  8
1
 10
 38255.000
 20
    16.000
 11
 38255.000
 21
  8410.700
  0
LINE
  8
1
 10
 38255.000
 20
  8410.700
 11
 38200.000
 21
  8410.700
  0
LINE
  8
1
 10
 38200.000
 20
  8410.700
 11
 38145.000
 21
  8410.700
  0
LINE
  8
1
 10
 38145.000
 20
  8410.700
 11
 38145.000
 21
    16.000
  0
LINE
  8
9
 10
 38100.000
 20
     0.000
 11
 38300.000
 21
     0.000
  0
LINE
  8
9
 10
 38100.000
 20
    16.000
 11
 38300.000
 21
    16.000
  0
LINE
  8
9
 10
 38100.000
 20
    16.000
 11
 38100.000
 21
     0.000
  0
LINE
  8
9
 10
 38300.000
 20
     0.000
 11
 38300.000
 21
    16.000
  0
LINE
  8
9
 10
 38250.000
 20
    -4.000
 11
 38250.000
 21
    20.000
  0
LINE
  8
9
 10
 38150.000
 20
    -4.000
 11
 38150.000
 21
    20.000
  0
LINE
  8
1
 10
 45845.000
 20
    16.000
 11
 45955.004
 21
    16.000
  0
LINE
  8
1
 10
 45955.004
 20
    16.000
 11
 45955.004
 21
  7489.700
  0
LINE
  8
1
 10
 45955.004
 20
  7489.700
 11
 45900.000
 21
  7489.700
  0
LINE
  8
1
 10
 45900.000
 20
  7489.700
 11
 45845.000
 21
  7489.700
  0
LINE
  8
1
 10
 45845.000
 20
  7489.700
 11
 45845.000
 21
    16.000
  0
LINE
  8
9
 10
 45800.000
 20
     0.000
 11
 46000.000
 21
     0.000
  0
LINE
  8
9
 10
 45800.000
 20
    16.000
 11
 46000.000
 21
    16.000
  0
LINE
  8
9
 10
 45800.000
 20
    16.000
 11
 45800.000
 21
     0.000
  0
LINE
  8
9
 10
 46000.000
 20
     0.000
 11
 46000.000
 21
    16.000
  0
LINE
  8
9
 10
 45950.000
 20
    -4.000
 11
 45950.000
 21
    20.000
  0
LINE
  8
9
 10
 45850.000
 20
    -4.000
 11
 45850.000
 21
    20.000
  0
LINE
  8
1
 10
 53545.004
 20
    16.000
 11
 53655.000
 21
    16.000
  0
LINE
  8
1
 10
 53655.000
 20
    16.000
 11
 53655.000
 21
  6732.000
  0
LINE
  8
1
 10
 53655.000
 20
  6732.000
 11
 53600.000
 21
  6732.000
  0
LINE
  8
1
 10
 53600.000
 20
  6732.000
 11
 53545.004
 21
  6732.000
  0
LINE
  8
1
 10
 53545.004
 20
  6732.000
 11
 53545.004
 21
    16.000
  0
LINE
  8
9
 10
 53500.000
 20
     0.000
 11
 53700.004
 21
     0.000
  0
LINE
  8
9
 10
 53500.000
 20
    16.000
 11
 53700.004
 21
    16.000
  0
LINE
  8
9
 10
 53500.000
 20
    16.000
 11
 53500.000
 21
     0.000
  0
LINE
  8
9
 10
 53700.004
 20
     0.000
 11
 53700.004
 21
    16.000
  0
LINE
  8
9
 10
 53650.004
 20
    -4.000
 11
 53650.004
 21
    20.000
  0
LINE
  8
9
 10
 53550.000
 20
    -4.000
 11
 53550.000
 21
    20.000
  0
TEXT
  8
16
 10
  7156.160
 20
 10902.601
 40
   121.920
  1
EC-1
 50
     0.000
  0
TEXT
  8
16
 10
 14856.161
 20
 10902.601
 40
   121.920
  1
EC-2
 50
     0.000
  0
TEXT
  8
16
 10
 22556.160
 20
 10902.601
 40
   121.920
  1
EC-3
 50
     0.000
  0
TEXT
  8
16
 10
 30256.162
 20
 10902.601
 40
   121.920
  1
EC-4
 50
     0.000
  0
TEXT
  8
16
 10
 37956.160
 20
 10902.601
 40
   121.920
  1
EC-5
 50
     0.000
  0
TEXT
  8
16
 10
 45656.160
 20
 10902.601
 40
   121.920
  1
EC-6
 50
     0.000
  0
TEXT
  8
16
 10
 53356.160
 20
 10902.601
 40
   121.920
  1
EC-1
 50
     0.000
  0
TEXT
  8
16
 10
  7156.160
 20
  -152.400
 40
   121.920
  1
EC-1
 50
     0.000
  0
TEXT
  8
16
 10
 14856.161
 20
  -152.400
 40
   121.920
  1
EC-2
 50
     0.000
  0
TEXT
  8
16
 10
 22556.160
 20
  -152.400
 40
   121.920
  1
EC-3
 50
     0.000
  0
TEXT
  8
16
 10
 30256.162
 20
  -152.400
 40
   121.920
  1
EC-4
 50
     0.000
  0
TEXT
  8
16
 10
 37956.160
 20
  -152.400
 40
   121.920
  1
EC-5
 50
     0.000
  0
TEXT
  8
16
 10
 45656.160
 20
  -152.400
 40
   121.920
  1
EC-6
 50
     0.000
  0
TEXT
  8
16
 10
 53356.160
 20
  -152.400
 40
   121.920
  1
EC-1
 50
     0.000
  0
LINE
  8
0
 10
 -3050.000
 20
-14686.198
 11
 64050.004
 21
-14686.198
  0
LINE
  8
0
 10
 64050.004
 20
-14686.198
 11
 64050.004
 21
 35638.801
  0
LINE
  8
0
 10
 64050.004
 20
 35638.801
 11
 -3050.000
 21
 35638.801
  0
LINE
  8
0
 10
 -3050.000
 20
 35638.801
 11
 -3050.000
 21
-14686.198
  0
LINE
  8
0
 10
 -3050.000
 20
-13025.473
 11
 64050.004
 21
-13025.473
  0
TEXT
  8
0
 10
 21089.230
 20
-14409.410
 40
  1107.150
  1
Endwall Detailing
 50
     0.000
  0
TEXT
  8
0
 10
 -2496.425
 20
-14409.410
 40
  1107.150
  1
C08-033
 50
     0.000
  0
TEXT
  8
0
 10
 51317.777
 20
-14409.410
 40
  1107.150
  1
23/APR/2026
 50
     0.000
  0
ENDSEC
  0
EOF
