  0
SECTION
  2
HEADER
  9
$ACADVER
  1
AC1009
  9
$EXTMIN
 10
-22206.857
 20
 -3217.642
  9
$EXTMAX
 10
 67706.859
 20
 64217.648
  9
$LIMMIN
 10
-22206.857
 20
 -3217.642
  9
$LIMMAX
 10
 67706.859
 20
 64217.648
  9
$FILLMODE
 70
     1
  9
$HANDLING
 70
     0
  0
ENDSEC
  0
SECTION
  2
TABLES
  0
TABLE
  2
LTYPE
 70
1
  0
LTYPE
  2
CONTIN
 70
    64
  3
SOLID LINE
 72
    65
 73
     0
 40
0.0
  0
LTYPE
  2
CONTINUOUS
 70
    64
  3
SOLID LINE
 72
    65
 73
     0
 40
0.0
  0
LTYPE
  2
CENTER
 70
    64
  3
____ _ ____ _ ____ _ ____ _ ____ _ ____ _ ____
 72
    65
 73
     4
 40
     4.592
 49
     2.870
 49
    -0.574
 49
     0.574
 49
    -0.574
  0
LTYPE
  2
DASHED
 70
    64
  3
__ __ __ __ __ __ __ __ __ __ __ __ __ __ __ 
 72
    65
 73
     2
 40
  1078.96
 49
   719.31
 49
  -359.65
  0
ENDTAB
  0
TABLE
  2
LAYER
 70
30
  0
LAYER
  2
0
 70
     0
 62
     7
  6
CONTIN
  0
LAYER
  2
1
 70
     0
 62
     7
  6
CONTIN
  0
LAYER
  2
2
 70
     0
 62
     7
  6
CONTIN
  0
LAYER
  2
3
 70
     0
 62
     7
  6
CONTIN
  0
LAYER
  2
4
 70
     0
 62
     5
  6
CONTIN
  0
LAYER
  2
5
 70
     0
 62
     5
  6
DASHED
  0
LAYER
  2
6
 70
     0
 62
     5
  6
DASHED
  0
LAYER
  2
7
 70
     0
 62
     5
  6
CONTIN
  0
LAYER
  2
8
 70
     0
 62
     5
  6
DASHED
  0
LAYER
  2
9
 70
     0
 62
     7
  6
CONTIN
  0
LAYER
  2
10
 70
     0
 62
     7
  6
CONTIN
  0
LAYER
  2
11
 70
     0
 62
     6
  6
DASHED
  0
LAYER
  2
12
 70
     0
 62
     7
  6
DASHED
  0
LAYER
  2
13
 70
     0
 62
     5
  6
DASHED
  0
LAYER
  2
14
 70
     0
 62
     7
  6
CONTIN
  0
LAYER
  2
15
 70
     0
 62
     5
  6
CONTIN
  0
LAYER
  2
16
 70
     0
 62
     7
  6
CONTIN
  0
LAYER
  2
17
 70
     0
 62
     7
  6
CONTIN
  0
LAYER
  2
18
 70
     0
 62
     7
  6
CONTIN
  0
LAYER
  2
19
 70
     0
 62
     7
  6
CONTIN
  0
LAYER
  2
20
 70
     0
 62
     1
  6
CONTIN
  0
LAYER
  2
21
 70
     0
 62
     7
  6
CONTIN
  0
LAYER
  2
22
 70
     0
 62
     7
  6
DASHED
  0
LAYER
  2
23
 70
     0
 62
     7
  6
DASHED
  0
LAYER
  2
24
 70
     0
 62
     7
  6
CONTIN
  0
LAYER
  2
25
 70
     0
 62
     7
  6
CONTIN
  0
LAYER
  2
26
 70
     0
 62
     7
  6
CONTIN
  0
LAYER
  2
27
 70
     0
 62
     1
  6
CENTER
  0
LAYER
  2
28
 70
     0
 62
     7
  6
CONTIN
  0
LAYER
  2
29
 70
     0
 62
     3
  6
DASHED
  0
ENDTAB
  0
TABLE
  2
STYLE
 70
  0
  0
ENDTAB
  0
ENDSEC
  0
SECTION
  2
ENTITIES
  0
LINE
  8
7
 10
     0.000
 20
     0.000
 11
 45500.000
 21
     0.000
  0
LINE
  8
7
 10
 45500.000
 20
     0.000
 11
 45500.000
 21
 61000.004
  0
LINE
  8
7
 10
 45500.000
 20
 61000.004
 11
     0.000
 21
 61000.004
  0
LINE
  8
7
 10
     0.000
 20
 61000.004
 11
     0.000
 21
     0.000
  0
LINE
  8
15
 10
  -152.400
 20
   152.400
 11
   152.400
 21
  -152.400
  0
LINE
  8
15
 10
   152.400
 20
   152.400
 11
  -152.400
 21
  -152.400
  0
LINE
  8
15
 10
  7197.600
 20
   152.400
 11
  7502.400
 21
  -152.400
  0
LINE
  8
15
 10
  7502.400
 20
   152.400
 11
  7197.600
 21
  -152.400
  0
LINE
  8
15
 10
 14897.601
 20
   152.400
 11
 15202.400
 21
  -152.400
  0
LINE
  8
15
 10
 15202.400
 20
   152.400
 11
 14897.601
 21
  -152.400
  0
LINE
  8
15
 10
 22597.600
 20
   152.400
 11
 22902.400
 21
  -152.400
  0
LINE
  8
15
 10
 22902.400
 20
   152.400
 11
 22597.600
 21
  -152.400
  0
LINE
  8
15
 10
 30297.602
 20
   152.400
 11
 30602.402
 21
  -152.400
  0
LINE
  8
15
 10
 30602.402
 20
   152.400
 11
 30297.602
 21
  -152.400
  0
LINE
  8
15
 10
 37997.598
 20
   152.400
 11
 38302.398
 21
  -152.400
  0
LINE
  8
15
 10
 38302.398
 20
   152.400
 11
 37997.598
 21
  -152.400
  0
LINE
  8
15
 10
 45347.602
 20
   152.400
 11
 45652.398
 21
  -152.400
  0
LINE
  8
15
 10
 45652.398
 20
   152.400
 11
 45347.602
 21
  -152.400
  0
LINE
  8
15
 10
 45652.398
 20
 60847.602
 11
 45347.602
 21
 61152.402
  0
LINE
  8
15
 10
 45347.602
 20
 60847.602
 11
 45652.398
 21
 61152.402
  0
LINE
  8
15
 10
 38302.398
 20
 60847.602
 11
 37997.598
 21
 61152.402
  0
LINE
  8
15
 10
 37997.598
 20
 60847.602
 11
 38302.398
 21
 61152.402
  0
LINE
  8
15
 10
 30602.398
 20
 60847.602
 11
 30297.598
 21
 61152.402
  0
LINE
  8
15
 10
 30297.598
 20
 60847.602
 11
 30602.398
 21
 61152.402
  0
LINE
  8
15
 10
 22902.400
 20
 60847.602
 11
 22597.600
 21
 61152.402
  0
LINE
  8
15
 10
 22597.600
 20
 60847.602
 11
 22902.400
 21
 61152.402
  0
LINE
  8
15
 10
 15202.399
 20
 60847.602
 11
 14897.599
 21
 61152.402
  0
LINE
  8
15
 10
 14897.599
 20
 60847.602
 11
 15202.399
 21
 61152.402
  0
LINE
  8
15
 10
  7502.401
 20
 60847.602
 11
  7197.601
 21
 61152.402
  0
LINE
  8
15
 10
  7197.601
 20
 60847.602
 11
  7502.401
 21
 61152.402
  0
LINE
  8
15
 10
   152.400
 20
 60847.602
 11
  -152.400
 21
 61152.402
  0
LINE
  8
15
 10
  -152.400
 20
 60847.602
 11
   152.400
 21
 61152.402
  0
LINE
  8
0
 10
-22206.857
 20
 -3217.642
 11
 67706.859
 21
 -3217.642
  0
LINE
  8
0
 10
 67706.859
 20
 -3217.642
 11
 67706.859
 21
 64217.648
  0
LINE
  8
0
 10
 67706.859
 20
 64217.648
 11
-22206.857
 21
 64217.648
  0
LINE
  8
0
 10
-22206.857
 20
 64217.648
 11
-22206.857
 21
 -3217.642
  0
LINE
  8
0
 10
-22206.857
 20
  -992.278
 11
 67706.859
 21
  -992.278
  0
TEXT
  8
0
 10
  8656.026
 20
 -2846.748
 40
  1483.576
  1
Floor System Layout
 50
     0.000
  0
TEXT
  8
0
 10
-21465.068
 20
 -2846.748
 40
  1483.576
  1
C08-033
 50
     0.000
  0
TEXT
  8
0
 10
 50645.734
 20
 -2846.748
 40
  1483.576
  1
23/APR/2026
 50
     0.000
  0
ENDSEC
  0
EOF
