  0
SECTION
  2
HEADER
  9
$ACADVER
  1
AC1009
  9
$EXTMIN
 10
 -573870.8
 20
 -111685.9
  9
$EXTMAX
 10
 1755394.0
 20
 1635262.6
  9
$LIMMIN
 10
 -573870.8
 20
 -111685.9
  9
$LIMMAX
 10
 1755394.0
 20
 1635262.6
  9
$FILLMODE
 70
     1
  9
$HANDLING
 70
     0
  0
ENDSEC
  0
SECTION
  2
TABLES
  0
TABLE
  2
LTYPE
 70
1
  0
LTYPE
  2
CONTIN
 70
    64
  3
SOLID LINE
 72
    65
 73
     0
 40
0.0
  0
LTYPE
  2
CONTINUOUS
 70
    64
  3
SOLID LINE
 72
    65
 73
     0
 40
0.0
  0
LTYPE
  2
CENTER
 70
    64
  3
____ _ ____ _ ____ _ ____ _ ____ _ ____ _ ____
 72
    65
 73
     4
 40
     0.177
 49
     0.111
 49
    -0.022
 49
     0.022
 49
    -0.022
  0
LTYPE
  2
DASHED
 70
    64
  3
__ __ __ __ __ __ __ __ __ __ __ __ __ __ __ 
 72
    65
 73
     2
 40
 27951.17
 49
 18634.11
 49
 -9317.05
  0
ENDTAB
  0
TABLE
  2
LAYER
 70
30
  0
LAYER
  2
0
 70
     0
 62
     7
  6
CONTIN
  0
LAYER
  2
1
 70
     0
 62
     7
  6
CONTIN
  0
LAYER
  2
2
 70
     0
 62
     7
  6
CONTIN
  0
LAYER
  2
3
 70
     0
 62
     7
  6
CONTIN
  0
LAYER
  2
4
 70
     0
 62
     5
  6
CONTIN
  0
LAYER
  2
5
 70
     0
 62
     5
  6
DASHED
  0
LAYER
  2
6
 70
     0
 62
     5
  6
DASHED
  0
LAYER
  2
7
 70
     0
 62
     5
  6
CONTIN
  0
LAYER
  2
8
 70
     0
 62
     5
  6
DASHED
  0
LAYER
  2
9
 70
     0
 62
     7
  6
CONTIN
  0
LAYER
  2
10
 70
     0
 62
     7
  6
CONTIN
  0
LAYER
  2
11
 70
     0
 62
     6
  6
DASHED
  0
LAYER
  2
12
 70
     0
 62
     7
  6
DASHED
  0
LAYER
  2
13
 70
     0
 62
     5
  6
DASHED
  0
LAYER
  2
14
 70
     0
 62
     7
  6
CONTIN
  0
LAYER
  2
15
 70
     0
 62
     5
  6
CONTIN
  0
LAYER
  2
16
 70
     0
 62
     7
  6
CONTIN
  0
LAYER
  2
17
 70
     0
 62
     7
  6
CONTIN
  0
LAYER
  2
18
 70
     0
 62
     7
  6
CONTIN
  0
LAYER
  2
19
 70
     0
 62
     7
  6
CONTIN
  0
LAYER
  2
20
 70
     0
 62
     1
  6
CONTIN
  0
LAYER
  2
21
 70
     0
 62
     7
  6
CONTIN
  0
LAYER
  2
22
 70
     0
 62
     7
  6
DASHED
  0
LAYER
  2
23
 70
     0
 62
     7
  6
DASHED
  0
LAYER
  2
24
 70
     0
 62
     7
  6
CONTIN
  0
LAYER
  2
25
 70
     0
 62
     7
  6
CONTIN
  0
LAYER
  2
26
 70
     0
 62
     7
  6
CONTIN
  0
LAYER
  2
27
 70
     0
 62
     1
  6
CENTER
  0
LAYER
  2
28
 70
     0
 62
     7
  6
CONTIN
  0
LAYER
  2
29
 70
     0
 62
     3
  6
DASHED
  0
ENDTAB
  0
TABLE
  2
STYLE
 70
  0
  0
ENDTAB
  0
ENDSEC
  0
SECTION
  2
ENTITIES
  0
LINE
  8
2
 10
     0.000
 20
 1549400.0
 11
     0.000
 21
     0.000
  0
LINE
  8
2
 10
     0.000
 20
     0.000
 11
 1155700.0
 21
     0.000
  0
LINE
  8
2
 10
 1155700.0
 20
     0.000
 11
 1155700.0
 21
 1549400.0
  0
LINE
  8
2
 10
 1155700.0
 20
 1549400.0
 11
     0.000
 21
 1549400.0
  0
TEXT
  8
2
 10
 -6455.833
 20
768244.188
 40
 25823.334
  1
LEW
 50
  -270.000
  0
TEXT
  8
2
 10
552026.688
 20
-32279.168
 40
 25823.334
  1
FSW
 50
     0.000
  0
TEXT
  8
2
 10
 1187979.1
 20
806979.188
 40
 25823.334
  1
REW
 50
    90.000
  0
TEXT
  8
2
 10
552026.688
 20
 1555855.9
 40
 25823.334
  1
BSW
 50
     0.000
  0
LINE
  8
13
 10
  9652.000
 20
    12.700
 11
  9652.000
 21
 1549387.2
  0
TEXT
  8
2
 10
 41931.168
 20
309887.625
 40
 25823.334
  1
RF 1
 50
    90.000
  0
LINE
  8
13
 10
 1146048.0
 20
    12.700
 11
 1146048.0
 21
 1549387.2
  0
TEXT
  8
2
 10
 1139592.1
 20
309887.625
 40
 25823.334
  1
RF 1
 50
    90.000
  0
LINE
  8
13
 10
186690.000
 20
    12.700
 11
186690.000
 21
 1549387.2
  0
TEXT
  8
2
 10
180234.172
 20
309887.625
 40
 25823.334
  1
RF 2
 50
    90.000
  0
LINE
  8
13
 10
382270.000
 20
    12.700
 11
382270.000
 21
 1549387.2
  0
TEXT
  8
2
 10
375814.156
 20
309887.625
 40
 25823.334
  1
RF 2
 50
    90.000
  0
LINE
  8
13
 10
577850.000
 20
    12.700
 11
577850.000
 21
 1549387.2
  0
TEXT
  8
2
 10
571394.188
 20
309887.625
 40
 25823.334
  1
RF 2
 50
    90.000
  0
LINE
  8
13
 10
773430.000
 20
    12.700
 11
773430.000
 21
 1549387.2
  0
TEXT
  8
2
 10
766974.188
 20
309887.625
 40
 25823.334
  1
RF 2
 50
    90.000
  0
LINE
  8
13
 10
969010.000
 20
    12.700
 11
969010.000
 21
 1549387.2
  0
TEXT
  8
2
 10
962554.125
 20
309887.625
 40
 25823.334
  1
RF 2
 50
    90.000
  0
LINE
  8
0
 10
 -573870.8
 20
 -111685.9
 11
 1755394.0
 21
 -111685.9
  0
LINE
  8
0
 10
 1755394.0
 20
 -111685.9
 11
 1755394.0
 21
 1635262.6
  0
LINE
  8
0
 10
 1755394.0
 20
 1635262.6
 11
 -573870.8
 21
 1635262.6
  0
LINE
  8
0
 10
 -573870.8
 20
 1635262.6
 11
 -573870.8
 21
 -111685.9
  0
LINE
  8
0
 10
 -573870.8
 20
-54036.582
 11
 1755394.0
 21
-54036.582
  0
TEXT
  8
0
 10
360164.438
 20
 -102077.7
 40
 38432.867
  1
Frame Layout
 50
     0.000
  0
TEXT
  8
0
 10
 -554654.3
 20
 -102077.7
 40
 38432.867
  1
C08-033
 50
     0.000
  0
TEXT
  8
0
 10
 1313416.0
 20
 -102077.7
 40
 38432.867
  1
24/APR/2026
 50
     0.000
  0
ENDSEC
  0
EOF
