  0
SECTION
  2
HEADER
  9
$ACADVER
  1
AC1009
  9
$EXTMIN
 10
 -3329.400
 20
-20283.707
  9
$EXTMAX
 10
 64329.406
 20
 30460.391
  9
$LIMMIN
 10
 -3329.400
 20
-20283.707
  9
$LIMMAX
 10
 64329.406
 20
 30460.391
  9
$FILLMODE
 70
     1
  9
$HANDLING
 70
     0
  0
ENDSEC
  0
SECTION
  2
TABLES
  0
TABLE
  2
LTYPE
 70
1
  0
LTYPE
  2
CONTIN
 70
    64
  3
SOLID LINE
 72
    65
 73
     0
 40
0.0
  0
LTYPE
  2
CONTINUOUS
 70
    64
  3
SOLID LINE
 72
    65
 73
     0
 40
0.0
  0
LTYPE
  2
CENTER
 70
    64
  3
____ _ ____ _ ____ _ ____ _ ____ _ ____ _ ____
 72
    65
 73
     4
 40
     6.103
 49
     3.814
 49
    -0.763
 49
     0.763
 49
    -0.763
  0
LTYPE
  2
DASHED
 70
    64
  3
__ __ __ __ __ __ __ __ __ __ __ __ __ __ __ 
 72
    65
 73
     2
 40
   811.90
 49
   541.27
 49
  -270.63
  0
ENDTAB
  0
TABLE
  2
LAYER
 70
30
  0
LAYER
  2
0
 70
     0
 62
     7
  6
CONTIN
  0
LAYER
  2
1
 70
     0
 62
     7
  6
CONTIN
  0
LAYER
  2
2
 70
     0
 62
     7
  6
CONTIN
  0
LAYER
  2
3
 70
     0
 62
     7
  6
CONTIN
  0
LAYER
  2
4
 70
     0
 62
     5
  6
CONTIN
  0
LAYER
  2
5
 70
     0
 62
     5
  6
DASHED
  0
LAYER
  2
6
 70
     0
 62
     5
  6
DASHED
  0
LAYER
  2
7
 70
     0
 62
     5
  6
CONTIN
  0
LAYER
  2
8
 70
     0
 62
     5
  6
DASHED
  0
LAYER
  2
9
 70
     0
 62
     7
  6
CONTIN
  0
LAYER
  2
10
 70
     0
 62
     7
  6
CONTIN
  0
LAYER
  2
11
 70
     0
 62
     6
  6
DASHED
  0
LAYER
  2
12
 70
     0
 62
     7
  6
DASHED
  0
LAYER
  2
13
 70
     0
 62
     5
  6
DASHED
  0
LAYER
  2
14
 70
     0
 62
     7
  6
CONTIN
  0
LAYER
  2
15
 70
     0
 62
     5
  6
CONTIN
  0
LAYER
  2
16
 70
     0
 62
     7
  6
CONTIN
  0
LAYER
  2
17
 70
     0
 62
     7
  6
CONTIN
  0
LAYER
  2
18
 70
     0
 62
     7
  6
CONTIN
  0
LAYER
  2
19
 70
     0
 62
     7
  6
CONTIN
  0
LAYER
  2
20
 70
     0
 62
     1
  6
CONTIN
  0
LAYER
  2
21
 70
     0
 62
     7
  6
CONTIN
  0
LAYER
  2
22
 70
     0
 62
     7
  6
DASHED
  0
LAYER
  2
23
 70
     0
 62
     7
  6
DASHED
  0
LAYER
  2
24
 70
     0
 62
     7
  6
CONTIN
  0
LAYER
  2
25
 70
     0
 62
     7
  6
CONTIN
  0
LAYER
  2
26
 70
     0
 62
     7
  6
CONTIN
  0
LAYER
  2
27
 70
     0
 62
     1
  6
CENTER
  0
LAYER
  2
28
 70
     0
 62
     7
  6
CONTIN
  0
LAYER
  2
29
 70
     0
 62
     3
  6
DASHED
  0
ENDTAB
  0
TABLE
  2
STYLE
 70
  0
  0
ENDTAB
  0
ENDSEC
  0
SECTION
  2
ENTITIES
  0
LINE
  8
5
 10
   350.353
 20
  7035.035
 11
   370.253
 21
  6836.028
  0
LINE
  8
5
 10
  1842.908
 20
  7184.290
 11
  1862.809
 21
  6985.283
  0
LINE
  8
5
 10
  3335.464
 20
  7333.546
 11
  3355.365
 21
  7134.539
  0
LINE
  8
5
 10
  4828.021
 20
  7482.801
 11
  4847.921
 21
  7283.794
  0
LINE
  8
5
 10
  6320.576
 20
  7632.057
 11
  6340.477
 21
  7433.050
  0
LINE
  8
5
 10
  7813.132
 20
  7781.312
 11
  7833.033
 21
  7582.305
  0
LINE
  8
5
 10
  9305.688
 20
  7930.568
 11
  9325.589
 21
  7731.562
  0
LINE
  8
5
 10
 10798.243
 20
  8079.824
 11
 10818.145
 21
  7880.816
  0
LINE
  8
5
 10
 12290.799
 20
  8229.079
 11
 12310.699
 21
  8030.072
  0
LINE
  8
5
 10
 13783.354
 20
  8378.335
 11
 13803.255
 21
  8179.328
  0
LINE
  8
5
 10
 15275.911
 20
  8527.591
 11
 15295.812
 21
  8328.584
  0
LINE
  8
5
 10
 16768.467
 20
  8676.847
 11
 16788.367
 21
  8477.839
  0
LINE
  8
5
 10
 18261.021
 20
  8826.102
 11
 18280.922
 21
  8627.094
  0
LINE
  8
5
 10
 19753.576
 20
  8975.357
 11
 19773.479
 21
  8776.351
  0
LINE
  8
5
 10
 21246.133
 20
  9124.613
 11
 21266.033
 21
  8925.606
  0
LINE
  8
5
 10
 22738.689
 20
  9273.869
 11
 22758.590
 21
  9074.861
  0
LINE
  8
5
 10
 24231.244
 20
  9423.124
 11
 24251.146
 21
  9224.116
  0
LINE
  8
5
 10
 25723.801
 20
  9572.380
 11
 25743.701
 21
  9373.373
  0
LINE
  8
5
 10
 27216.357
 20
  9721.635
 11
 27236.256
 21
  9522.628
  0
LINE
  8
5
 10
 28708.910
 20
  9870.891
 11
 28728.811
 21
  9671.883
  0
LINE
  8
5
 10
 30201.467
 20
 10020.146
 11
 30221.367
 21
  9821.139
  0
LINE
  8
5
 10
 30798.514
 20
 10020.148
 11
 30778.613
 21
  9821.142
  0
LINE
  8
5
 10
 32291.070
 20
  9870.894
 11
 32271.170
 21
  9671.887
  0
LINE
  8
5
 10
 33783.625
 20
  9721.638
 11
 33763.727
 21
  9522.630
  0
LINE
  8
5
 10
 35276.180
 20
  9572.382
 11
 35256.281
 21
  9373.375
  0
LINE
  8
5
 10
 36768.734
 20
  9423.127
 11
 36748.836
 21
  9224.120
  0
LINE
  8
5
 10
 38261.293
 20
  9273.871
 11
 38241.391
 21
  9074.864
  0
LINE
  8
5
 10
 39753.848
 20
  9124.616
 11
 39733.945
 21
  8925.608
  0
LINE
  8
5
 10
 41246.402
 20
  8975.359
 11
 41226.504
 21
  8776.353
  0
LINE
  8
5
 10
 42738.961
 20
  8826.104
 11
 42719.059
 21
  8627.098
  0
LINE
  8
5
 10
 44231.512
 20
  8676.849
 11
 44211.613
 21
  8477.842
  0
LINE
  8
5
 10
 45724.074
 20
  8527.594
 11
 45704.176
 21
  8328.586
  0
LINE
  8
5
 10
 47216.629
 20
  8378.337
 11
 47196.727
 21
  8179.330
  0
LINE
  8
5
 10
 48709.180
 20
  8229.082
 11
 48689.281
 21
  8030.075
  0
LINE
  8
5
 10
 50201.738
 20
  8079.826
 11
 50181.840
 21
  7880.819
  0
LINE
  8
5
 10
 51694.297
 20
  7930.571
 11
 51674.395
 21
  7731.563
  0
LINE
  8
5
 10
 53186.848
 20
  7781.315
 11
 53166.949
 21
  7582.308
  0
LINE
  8
5
 10
 54679.402
 20
  7632.060
 11
 54659.504
 21
  7433.052
  0
LINE
  8
5
 10
 56171.961
 20
  7482.804
 11
 56152.062
 21
  7283.796
  0
LINE
  8
5
 10
 57664.523
 20
  7333.547
 11
 57644.625
 21
  7134.541
  0
LINE
  8
5
 10
 59157.070
 20
  7184.292
 11
 59137.172
 21
  6985.285
  0
LINE
  8
5
 10
 60649.629
 20
  7035.037
 11
 60629.730
 21
  6836.030
  0
LINE
  8
1
 10
 30106.301
 20
  8593.167
 11
 30106.301
 21
    16.000
  0
LINE
  8
1
 10
 30106.301
 20
    16.000
 11
 30090.303
 21
    16.000
  0
LINE
  8
1
 10
 30090.303
 20
    16.000
 11
 30090.303
 21
  8593.167
  0
LINE
  8
1
 10
 30090.303
 20
  8593.167
 11
 30106.301
 21
  8593.167
  0
LINE
  8
1
 10
 30893.701
 20
  8593.167
 11
 30893.701
 21
    16.000
  0
LINE
  8
1
 10
 30893.701
 20
    16.000
 11
 30909.701
 21
    16.000
  0
LINE
  8
1
 10
 30909.701
 20
    16.000
 11
 30909.701
 21
  8593.167
  0
LINE
  8
1
 10
 30909.701
 20
  8593.167
 11
 30893.701
 21
  8593.167
  0
LINE
  8
5
 10
   642.228
 20
  3680.000
 11
   705.728
 21
  3680.000
  0
LINE
  8
5
 10
   642.228
 20
  3680.000
 11
   705.728
 21
  3680.000
  0
LINE
  8
5
 10
  1897.917
 20
  6634.208
 11
  1904.235
 21
  6571.023
  0
LINE
  8
5
 10
  4886.013
 20
  6902.875
 11
  4892.331
 21
  6839.690
  0
LINE
  8
5
 10
  7878.568
 20
  7126.957
 11
  7884.887
 21
  7063.772
  0
LINE
  8
5
 10
 10868.145
 20
  7380.810
 11
 10874.463
 21
  7317.625
  0
LINE
  8
5
 10
 13853.255
 20
  7679.321
 11
 13859.574
 21
  7616.137
  0
LINE
  8
5
 10
 16835.373
 20
  8007.783
 11
 16841.691
 21
  7944.599
  0
LINE
  8
5
 10
 19812.994
 20
  8381.172
 11
 19819.314
 21
  8317.987
  0
LINE
  8
5
 10
 22803.883
 20
  8621.945
 11
 22810.201
 21
  8558.761
  0
LINE
  8
5
 10
 25814.117
 20
  8669.231
 11
 25820.436
 21
  8606.047
  0
LINE
  8
5
 10
 28826.363
 20
  8696.352
 11
 28832.684
 21
  8633.167
  0
LINE
  8
5
 10
 30333.848
 20
  8696.352
 11
 30340.166
 21
  8633.167
  0
LINE
  8
5
 10
  1897.917
 20
  6634.208
 11
  1904.235
 21
  6571.023
  0
LINE
  8
5
 10
  4886.013
 20
  6902.875
 11
  4892.331
 21
  6839.690
  0
LINE
  8
5
 10
  7878.568
 20
  7126.957
 11
  7884.887
 21
  7063.772
  0
LINE
  8
5
 10
 10868.145
 20
  7380.810
 11
 10874.463
 21
  7317.625
  0
LINE
  8
5
 10
 13853.255
 20
  7679.321
 11
 13859.574
 21
  7616.137
  0
LINE
  8
5
 10
 16835.373
 20
  8007.783
 11
 16841.691
 21
  7944.599
  0
LINE
  8
5
 10
 19812.994
 20
  8381.172
 11
 19819.314
 21
  8317.987
  0
LINE
  8
5
 10
 22803.883
 20
  8621.945
 11
 22810.201
 21
  8558.761
  0
LINE
  8
5
 10
 25814.117
 20
  8669.231
 11
 25820.436
 21
  8606.047
  0
LINE
  8
5
 10
 28826.363
 20
  8696.352
 11
 28832.684
 21
  8633.167
  0
LINE
  8
5
 10
 30333.848
 20
  8696.352
 11
 30340.166
 21
  8633.167
  0
LINE
  8
5
 10
 30666.135
 20
  8696.352
 11
 30659.814
 21
  8633.167
  0
LINE
  8
5
 10
 32173.617
 20
  8696.352
 11
 32167.299
 21
  8633.167
  0
LINE
  8
5
 10
 35185.867
 20
  8669.228
 11
 35179.547
 21
  8606.043
  0
LINE
  8
5
 10
 38196.098
 20
  8621.945
 11
 38189.781
 21
  8558.761
  0
LINE
  8
5
 10
 41186.984
 20
  8381.175
 11
 41180.664
 21
  8317.990
  0
LINE
  8
5
 10
 44164.605
 20
  8007.786
 11
 44158.285
 21
  7944.602
  0
LINE
  8
5
 10
 47146.723
 20
  7679.323
 11
 47140.406
 21
  7616.139
  0
LINE
  8
5
 10
 50131.836
 20
  7380.812
 11
 50125.516
 21
  7317.627
  0
LINE
  8
5
 10
 53121.414
 20
  7126.958
 11
 53115.094
 21
  7063.774
  0
LINE
  8
5
 10
 56113.969
 20
  6902.877
 11
 56107.648
 21
  6839.692
  0
LINE
  8
5
 10
 59102.066
 20
  6634.209
 11
 59095.746
 21
  6571.025
  0
LINE
  8
5
 10
 30666.135
 20
  8696.352
 11
 30659.814
 21
  8633.167
  0
LINE
  8
5
 10
 32173.617
 20
  8696.352
 11
 32167.299
 21
  8633.167
  0
LINE
  8
5
 10
 35185.867
 20
  8669.228
 11
 35179.547
 21
  8606.043
  0
LINE
  8
5
 10
 38196.098
 20
  8621.945
 11
 38189.781
 21
  8558.761
  0
LINE
  8
5
 10
 41186.984
 20
  8381.175
 11
 41180.664
 21
  8317.990
  0
LINE
  8
5
 10
 44164.605
 20
  8007.786
 11
 44158.285
 21
  7944.602
  0
LINE
  8
5
 10
 47146.723
 20
  7679.323
 11
 47140.406
 21
  7616.139
  0
LINE
  8
5
 10
 50131.836
 20
  7380.812
 11
 50125.516
 21
  7317.627
  0
LINE
  8
5
 10
 53121.414
 20
  7126.958
 11
 53115.094
 21
  7063.774
  0
LINE
  8
5
 10
 56113.969
 20
  6902.877
 11
 56107.648
 21
  6839.692
  0
LINE
  8
5
 10
 59102.066
 20
  6634.209
 11
 59095.746
 21
  6571.025
  0
LINE
  8
5
 10
 60357.773
 20
  3680.000
 11
 60294.273
 21
  3680.000
  0
LINE
  8
5
 10
 60357.773
 20
  3680.000
 11
 60294.273
 21
  3680.000
  0
LINE
  8
1
 10
 29990.303
 20
  8613.167
 11
 29990.303
 21
  8593.167
  0
LINE
  8
1
 10
 29990.303
 20
  8593.167
 11
 31009.701
 21
  8593.167
  0
LINE
  8
1
 10
 31009.701
 20
  8593.167
 11
 31009.701
 21
  8613.167
  0
LINE
  8
8
 10
     0.000
 20
     0.000
 11
     0.000
 21
  7000.000
  0
LINE
  8
8
 10
     0.000
 20
  7000.000
 11
 30500.002
 21
 10050.000
  0
LINE
  8
8
 10
 30500.002
 20
 10050.000
 11
 61000.004
 21
  7000.000
  0
LINE
  8
8
 10
 61000.004
 20
  7000.000
 11
 61000.004
 21
     0.000
  0
LINE
  8
1
 10
   156.000
 20
    16.000
 11
   506.000
 21
    16.000
  0
LINE
  8
1
 10
   506.000
 20
    16.000
 11
   856.000
 21
  6436.736
  0
LINE
  8
1
 10
   856.000
 20
  6436.736
 11
   856.000
 21
  6436.736
  0
LINE
  8
1
 10
   856.000
 20
  6436.736
 11
   156.000
 21
  6436.736
  0
LINE
  8
1
 10
   156.000
 20
    16.000
 11
   156.000
 21
  6436.736
  0
LINE
  8
5
 10
   219.000
 20
   279.000
 11
   219.000
 21
   253.000
  0
LINE
  8
5
 10
   243.000
 20
   279.000
 11
   243.000
 21
   253.000
  0
ARC
  8
5
 10
   231.000
 20
   279.000
 40
    12.000
 50
     0.000
 51
   180.000
  0
ARC
  8
5
 10
   231.000
 20
   253.000
 40
    12.000
 50
   180.000
 51
     0.000
  0
LINE
  8
1
 10
   156.000
 20
    16.000
 11
   156.000
 21
  6436.736
  0
LINE
  8
1
 10
   156.000
 20
  6436.736
 11
   150.000
 21
  6436.736
  0
LINE
  8
1
 10
   150.000
 20
  6436.736
 11
   150.000
 21
    16.000
  0
LINE
  8
1
 10
   156.000
 20
    16.000
 11
   150.000
 21
    16.000
  0
LINE
  8
5
 10
   130.600
 20
  3680.000
 11
   168.700
 21
  3680.000
  0
LINE
  8
5
 10
   130.600
 20
  5180.000
 11
   168.700
 21
  5180.000
  0
LINE
  8
1
 10
   506.036
 20
    16.653
 11
   856.000
 21
  6436.736
  0
LINE
  8
1
 10
   856.000
 20
  6436.736
 11
   867.982
 21
  6436.083
  0
LINE
  8
1
 10
   867.982
 20
  6436.083
 11
   518.018
 21
    16.000
  0
LINE
  8
1
 10
   506.036
 20
    16.653
 11
   518.018
 21
    16.000
  0
LINE
  8
1
 10
   285.000
 20
   -28.700
 11
   285.000
 21
    28.700
  0
LINE
  8
1
 10
   385.000
 20
   -28.700
 11
   385.000
 21
    28.700
  0
LINE
  8
1
 10
   135.000
 20
     0.000
 11
   535.000
 21
     0.000
  0
LINE
  8
1
 10
   535.000
 20
     0.000
 11
   535.000
 21
    16.000
  0
LINE
  8
1
 10
   535.000
 20
    16.000
 11
   135.000
 21
    16.000
  0
LINE
  8
1
 10
   135.000
 20
     0.000
 11
   135.000
 21
    16.000
  0
LINE
  8
1
 10
   106.000
 20
  6424.036
 11
   106.000
 21
  6489.436
  0
LINE
  8
1
 10
   206.000
 20
  6424.036
 11
   206.000
 21
  6489.436
  0
LINE
  8
1
 10
   506.000
 20
  6424.036
 11
   506.000
 21
  6489.436
  0
LINE
  8
1
 10
   806.000
 20
  6424.036
 11
   806.000
 21
  6489.436
  0
LINE
  8
1
 10
   906.000
 20
  6424.036
 11
   906.000
 21
  6489.436
  0
LINE
  8
1
 10
    56.000
 20
  6456.736
 11
   957.090
 21
  6456.736
  0
LINE
  8
1
 10
   957.090
 20
  6456.736
 11
   957.090
 21
  6436.736
  0
LINE
  8
1
 10
   957.090
 20
  6436.736
 11
    56.000
 21
  6436.736
  0
LINE
  8
1
 10
    56.000
 20
  6456.736
 11
    56.000
 21
  6436.736
  0
LINE
  8
1
 10
   150.000
 20
  6436.736
 11
   150.000
 21
  6316.736
  0
LINE
  8
1
 10
   150.000
 20
  6316.736
 11
    56.000
 21
  6436.736
  0
LINE
  8
1
 10
    56.000
 20
  6436.736
 11
    56.000
 21
  6436.736
  0
LINE
  8
1
 10
   150.000
 20
  6436.736
 11
    56.000
 21
  6436.736
  0
LINE
  8
1
 10
   868.018
 20
  6436.736
 11
   861.477
 21
  6316.736
  0
LINE
  8
1
 10
   861.477
 20
  6316.736
 11
   957.128
 21
  6436.736
  0
LINE
  8
1
 10
   957.128
 20
  6436.736
 11
   957.128
 21
  6436.736
  0
LINE
  8
1
 10
   868.018
 20
  6436.736
 11
   957.128
 21
  6436.736
  0
CIRCLE
  8
1
 10
   150.000
 20
     0.000
 40
     6.350
  0
LINE
  8
17
 10
   143.650
 20
     0.000
 11
   156.350
 21
     0.000
  0
LINE
  8
17
 10
   150.000
 20
    -6.350
 11
   150.000
 21
     6.350
  0
CIRCLE
  8
1
 10
   517.146
 20
     0.000
 40
     6.350
  0
LINE
  8
17
 10
   510.796
 20
     0.000
 11
   523.496
 21
     0.000
  0
LINE
  8
17
 10
   517.146
 20
    -6.350
 11
   517.146
 21
     6.350
  0
CIRCLE
  8
1
 10
   869.108
 20
  6456.736
 40
     6.350
  0
LINE
  8
17
 10
   862.758
 20
  6456.736
 11
   875.458
 21
  6456.736
  0
LINE
  8
17
 10
   869.108
 20
  6450.386
 11
   869.108
 21
  6463.086
  0
CIRCLE
  8
1
 10
   150.000
 20
  6456.736
 40
     6.350
  0
LINE
  8
17
 10
   143.650
 20
  6456.736
 11
   156.350
 21
  6456.736
  0
LINE
  8
17
 10
   150.000
 20
  6450.386
 11
   150.000
 21
  6463.086
  0
LINE
  8
1
 10
  9609.770
 20
  7743.899
 11
  9664.457
 21
  7197.026
  0
LINE
  8
1
 10
  9664.457
 20
  7197.026
 11
  3679.349
 21
  6748.862
  0
LINE
  8
1
 10
  3679.349
 20
  6748.862
 11
  3679.349
 21
  6748.862
  0
LINE
  8
1
 10
  3679.349
 20
  6748.862
 11
  3639.548
 21
  7146.877
  0
LINE
  8
1
 10
  9609.770
 20
  7743.899
 11
  3639.548
 21
  7146.877
  0
LINE
  8
1
 10
  3639.548
 20
  7146.877
 11
  3679.349
 21
  6748.862
  0
LINE
  8
1
 10
  3679.349
 20
  6748.862
 11
   963.099
 21
  6476.736
  0
LINE
  8
1
 10
   963.099
 20
  6476.736
 11
   963.099
 21
  6476.736
  0
LINE
  8
1
 10
   963.099
 20
  6476.736
 11
   923.248
 21
  6875.247
  0
LINE
  8
1
 10
  3639.548
 20
  7146.877
 11
   923.248
 21
  6875.247
  0
LINE
  8
1
 10
   923.248
 20
  6875.247
 11
   963.099
 21
  6476.736
  0
LINE
  8
1
 10
   963.099
 20
  6476.736
 11
   963.099
 21
  6476.736
  0
LINE
  8
1
 10
   963.099
 20
  6476.736
 11
   156.000
 21
  6476.736
  0
LINE
  8
1
 10
   156.000
 20
  6476.736
 11
   156.000
 21
  6798.522
  0
LINE
  8
1
 10
   923.248
 20
  6875.247
 11
   156.000
 21
  6798.522
  0
LINE
  8
5
 10
  8003.086
 20
  7519.916
 11
  7977.214
 21
  7517.329
  0
LINE
  8
5
 10
  8005.474
 20
  7496.035
 11
  7979.603
 21
  7493.448
  0
ARC
  8
5
 10
  8004.279
 20
  7507.976
 40
    12.000
 50
   -84.289
 51
    95.711
  0
ARC
  8
5
 10
  7978.408
 20
  7505.388
 40
    12.000
 50
    95.711
 51
   -84.289
  0
LINE
  8
5
 10
  7704.574
 20
  7490.065
 11
  7678.703
 21
  7487.478
  0
LINE
  8
5
 10
  7706.962
 20
  7466.185
 11
  7681.091
 21
  7463.597
  0
ARC
  8
5
 10
  7705.768
 20
  7478.125
 40
    12.000
 50
   -84.289
 51
    95.711
  0
ARC
  8
5
 10
  7679.896
 20
  7475.538
 40
    12.000
 50
    95.711
 51
   -84.289
  0
LINE
  8
5
 10
   349.336
 20
  6754.541
 11
   323.465
 21
  6751.954
  0
LINE
  8
5
 10
   351.724
 20
  6730.660
 11
   325.853
 21
  6728.073
  0
ARC
  8
5
 10
   350.530
 20
  6742.601
 40
    12.000
 50
   -84.289
 51
    95.711
  0
ARC
  8
5
 10
   324.659
 20
  6740.013
 40
    12.000
 50
    95.711
 51
   -84.289
  0
LINE
  8
5
 10
   219.000
 20
  6561.522
 11
   219.000
 21
  6535.522
  0
LINE
  8
5
 10
   243.000
 20
  6561.522
 11
   243.000
 21
  6535.522
  0
ARC
  8
5
 10
   231.000
 20
  6561.522
 40
    12.000
 50
     0.000
 51
   180.000
  0
ARC
  8
5
 10
   231.000
 20
  6535.522
 40
    12.000
 50
   180.000
 51
     0.000
  0
LINE
  8
1
 10
   831.258
 20
  6835.347
 11
   867.080
 21
  6477.134
  0
LINE
  8
1
 10
   823.298
 20
  6834.552
 11
   859.119
 21
  6476.338
  0
LINE
  8
1
 10
   831.258
 20
  6835.347
 11
   823.298
 21
  6834.552
  0
LINE
  8
1
 10
   867.080
 20
  6477.134
 11
   859.119
 21
  6476.338
  0
LINE
  8
1
 10
  9609.770
 20
  7743.899
 11
  3938.059
 21
  7176.729
  0
LINE
  8
1
 10
  3938.059
 20
  7176.729
 11
  3937.263
 21
  7184.688
  0
LINE
  8
1
 10
  3937.263
 20
  7184.688
 11
  9608.974
 21
  7751.859
  0
LINE
  8
1
 10
  9609.770
 20
  7743.899
 11
  9608.974
 21
  7751.859
  0
LINE
  8
1
 10
  3938.059
 20
  7176.729
 11
    11.592
 21
  6784.081
  0
LINE
  8
1
 10
    11.592
 20
  6784.081
 11
    10.000
 21
  6800.002
  0
LINE
  8
1
 10
    10.000
 20
  6800.002
 11
  3936.467
 21
  7192.649
  0
LINE
  8
1
 10
  3938.059
 20
  7176.729
 11
  3936.467
 21
  7192.649
  0
LINE
  8
5
 10
    98.568
 20
  6818.306
 11
   102.359
 21
  6780.395
  0
LINE
  8
1
 10
   156.000
 20
  6476.736
 11
   156.000
 21
  6796.922
  0
LINE
  8
1
 10
   156.000
 20
  6796.922
 11
   140.000
 21
  6796.922
  0
LINE
  8
1
 10
   140.000
 20
  6796.922
 11
   140.000
 21
  6476.736
  0
LINE
  8
1
 10
   156.000
 20
  6476.736
 11
   140.000
 21
  6476.736
  0
LINE
  8
1
 10
   140.000
 20
  6796.922
 11
   -10.000
 21
  6781.922
  0
LINE
  8
1
 10
   -10.000
 20
  6781.922
 11
   140.000
 21
  6721.922
  0
LINE
  8
1
 10
  9664.457
 20
  7197.026
 11
  3679.449
 21
  6748.870
  0
LINE
  8
1
 10
  3679.449
 20
  6748.870
 11
  3680.046
 21
  6740.892
  0
LINE
  8
1
 10
  3680.046
 20
  6740.892
 11
  9665.055
 21
  7189.048
  0
LINE
  8
1
 10
  9664.457
 20
  7197.026
 11
  9665.055
 21
  7189.048
  0
LINE
  8
1
 10
  3679.149
 20
  6748.842
 11
   963.099
 21
  6476.736
  0
LINE
  8
1
 10
   963.099
 20
  6476.736
 11
   964.694
 21
  6460.815
  0
LINE
  8
1
 10
   964.694
 20
  6460.815
 11
  3680.744
 21
  6732.922
  0
LINE
  8
1
 10
  3679.149
 20
  6748.842
 11
  3680.744
 21
  6732.922
  0
LINE
  8
1
 10
  9592.157
 20
  7792.388
 11
  9649.272
 21
  7798.099
  0
LINE
  8
1
 10
  9602.107
 20
  7692.885
 11
  9659.224
 21
  7698.596
  0
LINE
  8
1
 10
  9646.885
 20
  7245.117
 11
  9704.001
 21
  7250.829
  0
LINE
  8
1
 10
  9656.835
 20
  7145.614
 11
  9713.951
 21
  7151.325
  0
LINE
  8
1
 10
  9615.740
 20
  7844.996
 11
  9690.368
 21
  7098.717
  0
LINE
  8
1
 10
  9690.368
 20
  7098.717
 11
  9674.447
 21
  7097.125
  0
LINE
  8
1
 10
  9674.447
 20
  7097.125
 11
  9599.819
 21
  7843.403
  0
LINE
  8
1
 10
  9615.740
 20
  7844.996
 11
  9599.819
 21
  7843.403
  0
LINE
  8
1
 10
   106.000
 20
  6424.036
 11
   106.000
 21
  6489.436
  0
LINE
  8
1
 10
   206.000
 20
  6424.036
 11
   206.000
 21
  6489.436
  0
LINE
  8
1
 10
   506.000
 20
  6424.036
 11
   506.000
 21
  6489.436
  0
LINE
  8
1
 10
   806.000
 20
  6424.036
 11
   806.000
 21
  6489.436
  0
LINE
  8
1
 10
   906.000
 20
  6424.036
 11
   906.000
 21
  6489.436
  0
LINE
  8
1
 10
    56.000
 20
  6456.736
 11
   957.090
 21
  6456.736
  0
LINE
  8
1
 10
   957.090
 20
  6456.736
 11
   957.090
 21
  6476.736
  0
LINE
  8
1
 10
   957.090
 20
  6476.736
 11
    56.000
 21
  6476.736
  0
LINE
  8
1
 10
    56.000
 20
  6456.736
 11
    56.000
 21
  6476.736
  0
LINE
  8
1
 10
  9608.974
 20
  7751.859
 11
  9489.569
 21
  7739.919
  0
LINE
  8
1
 10
  9489.569
 20
  7739.919
 11
  9599.819
 21
  7843.403
  0
LINE
  8
1
 10
  9599.819
 20
  7843.403
 11
  9599.819
 21
  7843.403
  0
LINE
  8
1
 10
  9608.974
 20
  7751.859
 11
  9599.819
 21
  7843.403
  0
LINE
  8
1
 10
  9665.253
 20
  7189.062
 11
  9545.552
 21
  7180.100
  0
LINE
  8
1
 10
  9545.552
 20
  7180.100
 11
  9674.447
 21
  7097.120
  0
LINE
  8
1
 10
  9674.447
 20
  7097.120
 11
  9674.447
 21
  7097.120
  0
LINE
  8
1
 10
  9665.253
 20
  7189.062
 11
  9674.447
 21
  7097.120
  0
LINE
  8
1
 10
   140.000
 20
  6476.736
 11
   140.000
 21
  6596.736
  0
LINE
  8
1
 10
   140.000
 20
  6596.736
 11
    56.000
 21
  6476.736
  0
LINE
  8
1
 10
    56.000
 20
  6476.736
 11
    56.000
 21
  6476.736
  0
LINE
  8
1
 10
   140.000
 20
  6476.736
 11
    56.000
 21
  6476.736
  0
CIRCLE
  8
1
 10
   140.000
 20
  6456.736
 40
     6.350
  0
LINE
  8
17
 10
   133.650
 20
  6456.736
 11
   146.350
 21
  6456.736
  0
LINE
  8
17
 10
   140.000
 20
  6450.386
 11
   140.000
 21
  6463.086
  0
CIRCLE
  8
1
 10
   957.090
 20
  6456.736
 40
     6.350
  0
LINE
  8
17
 10
   950.740
 20
  6456.736
 11
   963.440
 21
  6456.736
  0
LINE
  8
17
 10
   957.090
 20
  6450.386
 11
   957.090
 21
  6463.086
  0
CIRCLE
  8
1
 10
  9681.214
 20
  7190.258
 40
     6.350
  0
LINE
  8
17
 10
  9674.863
 20
  7190.258
 11
  9687.563
 21
  7190.258
  0
LINE
  8
17
 10
  9681.214
 20
  7183.908
 11
  9681.214
 21
  7196.608
  0
CIRCLE
  8
1
 10
  9624.895
 20
  7753.452
 40
     6.350
  0
LINE
  8
17
 10
  9618.545
 20
  7753.452
 11
  9631.244
 21
  7753.452
  0
LINE
  8
17
 10
  9624.895
 20
  7747.102
 11
  9624.895
 21
  7759.801
  0
CIRCLE
  8
1
 10
   140.000
 20
  6813.002
 40
     6.350
  0
LINE
  8
17
 10
   133.650
 20
  6813.002
 11
   146.350
 21
  6813.002
  0
LINE
  8
17
 10
   140.000
 20
  6806.652
 11
   140.000
 21
  6819.352
  0
LINE
  8
1
 10
 15579.994
 20
  8340.922
 11
 15634.722
 21
  7793.651
  0
LINE
  8
1
 10
 15634.722
 20
  7793.651
 11
  9696.338
 21
  7199.813
  0
LINE
  8
1
 10
  9696.338
 20
  7199.813
 11
  9696.338
 21
  7199.813
  0
LINE
  8
1
 10
  9696.338
 20
  7199.813
 11
  9641.611
 21
  7747.083
  0
LINE
  8
1
 10
 15579.994
 20
  8340.922
 11
  9641.611
 21
  7747.083
  0
LINE
  8
5
 10
 15316.609
 20
  8251.270
 11
 15290.737
 21
  8248.682
  0
LINE
  8
5
 10
 15318.996
 20
  8227.389
 11
 15293.125
 21
  8224.801
  0
ARC
  8
5
 10
 15317.803
 20
  8239.329
 40
    12.000
 50
   -84.289
 51
    95.711
  0
ARC
  8
5
 10
 15291.932
 20
  8236.741
 40
    12.000
 50
    95.711
 51
   -84.289
  0
LINE
  8
5
 10
 15018.097
 20
  8221.418
 11
 14992.226
 21
  8218.831
  0
LINE
  8
5
 10
 15020.484
 20
  8197.537
 11
 14994.613
 21
  8194.950
  0
ARC
  8
5
 10
 15019.291
 20
  8209.478
 40
    12.000
 50
   -84.289
 51
    95.711
  0
ARC
  8
5
 10
 14993.420
 20
  8206.891
 40
    12.000
 50
    95.711
 51
   -84.289
  0
LINE
  8
1
 10
 15579.994
 20
  8340.922
 11
  9641.611
 21
  7747.083
  0
LINE
  8
1
 10
  9641.611
 20
  7747.083
 11
  9640.616
 21
  7757.034
  0
LINE
  8
1
 10
  9640.616
 20
  7757.034
 11
 15578.999
 21
  8350.872
  0
LINE
  8
1
 10
 15579.994
 20
  8340.922
 11
 15578.999
 21
  8350.872
  0
LINE
  8
1
 10
 15634.722
 20
  7793.651
 11
  9696.338
 21
  7199.813
  0
LINE
  8
1
 10
  9696.338
 20
  7199.813
 11
  9696.936
 21
  7193.843
  0
LINE
  8
1
 10
  9696.936
 20
  7193.843
 11
 15635.318
 21
  7787.681
  0
LINE
  8
1
 10
 15634.722
 20
  7793.651
 11
 15635.318
 21
  7787.681
  0
LINE
  8
1
 10
 15562.382
 20
  8389.410
 11
 15619.497
 21
  8395.121
  0
LINE
  8
1
 10
 15572.331
 20
  8289.907
 11
 15629.447
 21
  8295.618
  0
LINE
  8
1
 10
 15617.108
 20
  7842.140
 11
 15674.225
 21
  7847.851
  0
LINE
  8
1
 10
 15627.059
 20
  7742.636
 11
 15684.174
 21
  7748.347
  0
LINE
  8
1
 10
 15585.965
 20
  8442.018
 11
 15660.591
 21
  7695.739
  0
LINE
  8
1
 10
 15660.591
 20
  7695.739
 11
 15644.671
 21
  7694.147
  0
LINE
  8
1
 10
 15644.671
 20
  7694.147
 11
 15570.045
 21
  8440.426
  0
LINE
  8
1
 10
 15585.965
 20
  8442.018
 11
 15570.045
 21
  8440.426
  0
LINE
  8
1
 10
  9592.157
 20
  7792.388
 11
  9649.272
 21
  7798.099
  0
LINE
  8
1
 10
  9602.107
 20
  7692.885
 11
  9659.224
 21
  7698.596
  0
LINE
  8
1
 10
  9646.885
 20
  7245.117
 11
  9704.001
 21
  7250.829
  0
LINE
  8
1
 10
  9656.835
 20
  7145.614
 11
  9713.951
 21
  7151.325
  0
LINE
  8
1
 10
  9615.740
 20
  7844.996
 11
  9690.368
 21
  7098.717
  0
LINE
  8
1
 10
  9690.368
 20
  7098.717
 11
  9706.289
 21
  7100.309
  0
LINE
  8
1
 10
  9706.289
 20
  7100.309
 11
  9631.661
 21
  7846.587
  0
LINE
  8
1
 10
  9615.740
 20
  7844.996
 11
  9631.661
 21
  7846.587
  0
LINE
  8
1
 10
 15578.999
 20
  8350.872
 11
 15459.594
 21
  8338.932
  0
LINE
  8
1
 10
 15459.594
 20
  8338.932
 11
 15570.045
 21
  8440.426
  0
LINE
  8
1
 10
 15570.045
 20
  8440.426
 11
 15570.045
 21
  8440.426
  0
LINE
  8
1
 10
 15578.999
 20
  8350.872
 11
 15570.045
 21
  8440.426
  0
LINE
  8
1
 10
 15635.318
 20
  7787.681
 11
 15515.913
 21
  7775.741
  0
LINE
  8
1
 10
 15515.913
 20
  7775.741
 11
 15644.671
 21
  7694.147
  0
LINE
  8
1
 10
 15644.671
 20
  7694.147
 11
 15644.671
 21
  7694.147
  0
LINE
  8
1
 10
 15635.318
 20
  7787.681
 11
 15644.671
 21
  7694.147
  0
LINE
  8
1
 10
  9640.616
 20
  7757.034
 11
  9760.021
 21
  7768.975
  0
LINE
  8
1
 10
  9760.021
 20
  7768.975
 11
  9631.661
 21
  7846.587
  0
LINE
  8
1
 10
  9631.661
 20
  7846.587
 11
  9631.661
 21
  7846.587
  0
LINE
  8
1
 10
  9640.616
 20
  7757.034
 11
  9631.661
 21
  7846.587
  0
LINE
  8
1
 10
  9696.936
 20
  7193.843
 11
  9816.340
 21
  7205.783
  0
LINE
  8
1
 10
  9816.340
 20
  7205.783
 11
  9706.289
 21
  7100.309
  0
LINE
  8
1
 10
  9706.289
 20
  7100.309
 11
  9706.289
 21
  7100.309
  0
LINE
  8
1
 10
  9696.936
 20
  7193.843
 11
  9706.289
 21
  7100.309
  0
CIRCLE
  8
1
 10
  9624.695
 20
  7755.442
 40
     6.350
  0
LINE
  8
17
 10
  9618.346
 20
  7755.442
 11
  9631.045
 21
  7755.442
  0
LINE
  8
17
 10
  9624.695
 20
  7749.092
 11
  9624.695
 21
  7761.792
  0
CIRCLE
  8
1
 10
  9681.015
 20
  7192.251
 40
     6.350
  0
LINE
  8
17
 10
  9674.664
 20
  7192.251
 11
  9687.364
 21
  7192.251
  0
LINE
  8
17
 10
  9681.015
 20
  7185.901
 11
  9681.015
 21
  7198.601
  0
CIRCLE
  8
1
 10
 15651.238
 20
  7789.273
 40
     6.350
  0
LINE
  8
17
 10
 15644.889
 20
  7789.273
 11
 15657.588
 21
  7789.273
  0
LINE
  8
17
 10
 15651.238
 20
  7782.923
 11
 15651.238
 21
  7795.623
  0
CIRCLE
  8
1
 10
 15594.919
 20
  8352.465
 40
     6.350
  0
LINE
  8
17
 10
 15588.569
 20
  8352.465
 11
 15601.270
 21
  8352.465
  0
LINE
  8
17
 10
 15594.919
 20
  8346.114
 11
 15594.919
 21
  8358.814
  0
LINE
  8
1
 10
 27441.932
 20
  9527.116
 11
 27531.352
 21
  8632.923
  0
LINE
  8
1
 10
 27531.352
 20
  8632.923
 11
 21586.039
 21
  8539.531
  0
LINE
  8
1
 10
 21586.039
 20
  8539.531
 11
 21586.039
 21
  8539.531
  0
LINE
  8
1
 10
 21586.039
 20
  8539.531
 11
 21546.236
 21
  8937.547
  0
LINE
  8
1
 10
 27441.932
 20
  9527.116
 11
 21546.236
 21
  8937.547
  0
LINE
  8
1
 10
 21546.236
 20
  8937.547
 11
 21586.039
 21
  8539.531
  0
LINE
  8
1
 10
 21586.039
 20
  8539.531
 11
 15666.522
 21
  7797.235
  0
LINE
  8
1
 10
 15666.522
 20
  7797.235
 11
 15666.522
 21
  7797.235
  0
LINE
  8
1
 10
 15666.522
 20
  7797.235
 11
 15611.834
 21
  8344.106
  0
LINE
  8
1
 10
 21546.236
 20
  8937.547
 11
 15611.834
 21
  8344.106
  0
LINE
  8
5
 10
 22928.643
 20
  9012.473
 11
 22902.771
 21
  9009.885
  0
LINE
  8
5
 10
 22931.031
 20
  8988.592
 11
 22905.160
 21
  8986.004
  0
ARC
  8
5
 10
 22929.838
 20
  9000.532
 40
    12.000
 50
   -84.289
 51
    95.711
  0
ARC
  8
5
 10
 22903.967
 20
  8997.944
 40
    12.000
 50
    95.711
 51
   -84.289
  0
LINE
  8
5
 10
 22630.131
 20
  8982.621
 11
 22604.260
 21
  8980.034
  0
LINE
  8
5
 10
 22632.520
 20
  8958.740
 11
 22606.648
 21
  8956.153
  0
ARC
  8
5
 10
 22631.326
 20
  8970.681
 40
    12.000
 50
   -84.289
 51
    95.711
  0
ARC
  8
5
 10
 22605.453
 20
  8968.094
 40
    12.000
 50
    95.711
 51
   -84.289
  0
LINE
  8
1
 10
 27441.932
 20
  9527.116
 11
 15611.834
 21
  8344.106
  0
LINE
  8
1
 10
 15611.834
 20
  8344.106
 11
 15611.039
 21
  8352.066
  0
LINE
  8
1
 10
 15611.039
 20
  8352.066
 11
 27441.135
 21
  9535.076
  0
LINE
  8
1
 10
 27441.932
 20
  9527.116
 11
 27441.135
 21
  9535.076
  0
LINE
  8
1
 10
 27531.352
 20
  8632.923
 11
 21586.584
 21
  8539.540
  0
LINE
  8
1
 10
 21586.584
 20
  8539.540
 11
 21586.740
 21
  8529.541
  0
LINE
  8
1
 10
 21586.740
 20
  8529.541
 11
 27531.510
 21
  8622.924
  0
LINE
  8
1
 10
 27531.352
 20
  8632.923
 11
 27531.510
 21
  8622.924
  0
LINE
  8
1
 10
 21585.605
 20
  8539.478
 11
 15666.522
 21
  7797.235
  0
LINE
  8
1
 10
 15666.522
 20
  7797.235
 11
 15667.518
 21
  7789.297
  0
LINE
  8
1
 10
 15667.518
 20
  7789.297
 11
 21586.602
 21
  8531.540
  0
LINE
  8
1
 10
 21585.605
 20
  8539.478
 11
 21586.602
 21
  8531.540
  0
LINE
  8
1
 10
 27424.322
 20
  9575.604
 11
 27481.436
 21
  9581.315
  0
LINE
  8
1
 10
 27434.271
 20
  9476.102
 11
 27491.385
 21
  9481.812
  0
LINE
  8
1
 10
 27474.072
 20
  9078.086
 11
 27531.184
 21
  9083.797
  0
LINE
  8
1
 10
 27513.873
 20
  8680.071
 11
 27570.986
 21
  8685.783
  0
LINE
  8
1
 10
 27523.824
 20
  8580.567
 11
 27580.936
 21
  8586.279
  0
LINE
  8
1
 10
 27447.902
 20
  9628.212
 11
 27557.355
 21
  8533.667
  0
LINE
  8
1
 10
 27557.355
 20
  8533.667
 11
 27541.436
 21
  8532.074
  0
LINE
  8
1
 10
 27541.436
 20
  8532.074
 11
 27431.980
 21
  9626.620
  0
LINE
  8
1
 10
 27447.902
 20
  9628.212
 11
 27431.980
 21
  9626.620
  0
LINE
  8
1
 10
 15562.382
 20
  8389.410
 11
 15619.497
 21
  8395.121
  0
LINE
  8
1
 10
 15572.331
 20
  8289.907
 11
 15629.447
 21
  8295.618
  0
LINE
  8
1
 10
 15617.108
 20
  7842.140
 11
 15674.225
 21
  7847.851
  0
LINE
  8
1
 10
 15627.059
 20
  7742.636
 11
 15684.174
 21
  7748.347
  0
LINE
  8
1
 10
 15585.965
 20
  8442.018
 11
 15660.591
 21
  7695.739
  0
LINE
  8
1
 10
 15660.591
 20
  7695.739
 11
 15676.511
 21
  7697.332
  0
LINE
  8
1
 10
 15676.511
 20
  7697.332
 11
 15601.885
 21
  8443.610
  0
LINE
  8
1
 10
 15585.965
 20
  8442.018
 11
 15601.885
 21
  8443.610
  0
LINE
  8
1
 10
 27441.135
 20
  9535.076
 11
 27321.730
 21
  9523.136
  0
LINE
  8
1
 10
 27321.730
 20
  9523.136
 11
 27431.980
 21
  9626.620
  0
LINE
  8
1
 10
 27431.980
 20
  9626.620
 11
 27431.980
 21
  9626.620
  0
LINE
  8
1
 10
 27441.135
 20
  9535.076
 11
 27431.980
 21
  9626.620
  0
LINE
  8
1
 10
 27532.350
 20
  8622.938
 11
 27411.941
 21
  8621.046
  0
LINE
  8
1
 10
 27411.941
 20
  8621.046
 11
 27541.443
 21
  8532.001
  0
LINE
  8
1
 10
 27541.443
 20
  8532.001
 11
 27541.443
 21
  8532.001
  0
LINE
  8
1
 10
 27532.350
 20
  8622.938
 11
 27541.443
 21
  8532.001
  0
LINE
  8
1
 10
 15611.039
 20
  8352.066
 11
 15730.444
 21
  8364.007
  0
LINE
  8
1
 10
 15730.444
 20
  8364.007
 11
 15601.885
 21
  8443.610
  0
LINE
  8
1
 10
 15601.885
 20
  8443.610
 11
 15601.885
 21
  8443.610
  0
LINE
  8
1
 10
 15611.039
 20
  8352.066
 11
 15601.885
 21
  8443.610
  0
LINE
  8
1
 10
 15667.317
 20
  7789.272
 11
 15786.422
 21
  7804.208
  0
LINE
  8
1
 10
 15786.422
 20
  7804.208
 11
 15676.513
 21
  7697.327
  0
LINE
  8
1
 10
 15676.513
 20
  7697.327
 11
 15676.513
 21
  7697.327
  0
LINE
  8
1
 10
 15667.317
 20
  7789.272
 11
 15676.513
 21
  7697.327
  0
CIRCLE
  8
1
 10
 15595.119
 20
  8350.474
 40
     6.350
  0
LINE
  8
17
 10
 15588.770
 20
  8350.474
 11
 15601.469
 21
  8350.474
  0
LINE
  8
17
 10
 15595.119
 20
  8344.124
 11
 15595.119
 21
  8356.824
  0
CIRCLE
  8
1
 10
 15651.438
 20
  7787.280
 40
     6.350
  0
LINE
  8
17
 10
 15645.088
 20
  7787.280
 11
 15657.788
 21
  7787.280
  0
LINE
  8
17
 10
 15651.438
 20
  7780.930
 11
 15651.438
 21
  7793.630
  0
CIRCLE
  8
1
 10
 27548.404
 20
  8623.189
 40
     6.350
  0
LINE
  8
17
 10
 27542.055
 20
  8623.189
 11
 27554.756
 21
  8623.189
  0
LINE
  8
17
 10
 27548.404
 20
  8616.839
 11
 27548.404
 21
  8629.539
  0
CIRCLE
  8
1
 10
 27457.055
 20
  9536.668
 40
     6.350
  0
LINE
  8
17
 10
 27450.705
 20
  9536.668
 11
 27463.406
 21
  9536.668
  0
LINE
  8
17
 10
 27457.055
 20
  9530.318
 11
 27457.055
 21
  9543.019
  0
LINE
  8
1
 10
 27563.486
 20
  8633.167
 11
 27473.773
 21
  9530.301
  0
LINE
  8
1
 10
 27473.773
 20
  9530.301
 11
 30500.002
 21
  9832.923
  0
LINE
  8
1
 10
 30500.002
 20
  9832.923
 11
 33526.305
 21
  9530.293
  0
LINE
  8
1
 10
 33526.305
 20
  9530.293
 11
 33436.594
 21
  8633.167
  0
LINE
  8
1
 10
 27563.486
 20
  8633.167
 11
 33436.594
 21
  8633.167
  0
LINE
  8
5
 10
 30320.199
 20
  9751.629
 11
 30294.328
 21
  9749.041
  0
LINE
  8
5
 10
 30322.586
 20
  9727.748
 11
 30296.715
 21
  9725.160
  0
ARC
  8
5
 10
 30321.393
 20
  9739.688
 40
    12.000
 50
   -84.289
 51
    95.711
  0
ARC
  8
5
 10
 30295.521
 20
  9737.101
 40
    12.000
 50
    95.711
 51
   -84.289
  0
LINE
  8
5
 10
 30705.676
 20
  9749.040
 11
 30679.805
 21
  9751.628
  0
LINE
  8
5
 10
 30703.289
 20
  9725.160
 11
 30677.416
 21
  9727.747
  0
ARC
  8
5
 10
 30704.482
 20
  9737.100
 40
    12.000
 50
   -95.711
 51
    84.289
  0
ARC
  8
5
 10
 30678.611
 20
  9739.688
 40
    12.000
 50
    84.289
 51
   -95.711
  0
LINE
  8
1
 10
 27473.773
 20
  9530.301
 11
 30500.002
 21
  9832.923
  0
LINE
  8
1
 10
 30500.002
 20
  9832.923
 11
 30499.006
 21
  9842.873
  0
LINE
  8
1
 10
 30499.006
 20
  9842.873
 11
 27472.779
 21
  9540.251
  0
LINE
  8
1
 10
 27473.773
 20
  9530.301
 11
 27472.779
 21
  9540.251
  0
LINE
  8
1
 10
 30500.002
 20
  9832.923
 11
 33526.305
 21
  9530.293
  0
LINE
  8
1
 10
 33526.305
 20
  9530.293
 11
 33527.301
 21
  9540.243
  0
LINE
  8
1
 10
 33527.301
 20
  9540.243
 11
 30500.996
 21
  9842.873
  0
LINE
  8
1
 10
 30500.002
 20
  9832.923
 11
 30500.996
 21
  9842.873
  0
LINE
  8
1
 10
 27564.488
 20
  8633.167
 11
 29990.303
 21
  8633.167
  0
LINE
  8
1
 10
 29990.303
 20
  8633.167
 11
 29990.303
 21
  8623.167
  0
LINE
  8
1
 10
 29990.303
 20
  8623.167
 11
 27564.488
 21
  8623.167
  0
LINE
  8
1
 10
 27564.488
 20
  8633.167
 11
 27564.488
 21
  8623.167
  0
LINE
  8
1
 10
 31009.701
 20
  8633.167
 11
 33435.594
 21
  8633.167
  0
LINE
  8
1
 10
 33435.594
 20
  8633.167
 11
 33435.594
 21
  8623.167
  0
LINE
  8
1
 10
 33435.594
 20
  8623.167
 11
 31009.701
 21
  8623.167
  0
LINE
  8
1
 10
 31009.701
 20
  8633.167
 11
 31009.701
 21
  8623.167
  0
LINE
  8
1
 10
 30094.303
 20
  9683.167
 11
 30094.303
 21
  8633.167
  0
LINE
  8
1
 10
 30086.303
 20
  9683.167
 11
 30086.303
 21
  8633.167
  0
LINE
  8
1
 10
 30094.303
 20
  9683.167
 11
 30086.303
 21
  9683.167
  0
LINE
  8
1
 10
 30094.303
 20
  8633.167
 11
 30086.303
 21
  8633.167
  0
LINE
  8
1
 10
 30913.699
 20
  9683.167
 11
 30913.699
 21
  8633.167
  0
LINE
  8
1
 10
 30905.701
 20
  9683.167
 11
 30905.701
 21
  8633.167
  0
LINE
  8
1
 10
 30913.699
 20
  9683.167
 11
 30905.701
 21
  9683.167
  0
LINE
  8
1
 10
 30913.699
 20
  8633.167
 11
 30905.701
 21
  8633.167
  0
LINE
  8
1
 10
 27424.322
 20
  9575.604
 11
 27481.436
 21
  9581.315
  0
LINE
  8
1
 10
 27434.271
 20
  9476.102
 11
 27491.385
 21
  9481.812
  0
LINE
  8
1
 10
 27474.072
 20
  9078.086
 11
 27531.184
 21
  9083.797
  0
LINE
  8
1
 10
 27513.873
 20
  8680.071
 11
 27570.986
 21
  8685.783
  0
LINE
  8
1
 10
 27523.824
 20
  8580.567
 11
 27580.936
 21
  8586.279
  0
LINE
  8
1
 10
 27447.902
 20
  9628.212
 11
 27557.355
 21
  8533.667
  0
LINE
  8
1
 10
 27557.355
 20
  8533.667
 11
 27573.277
 21
  8535.259
  0
LINE
  8
1
 10
 27573.277
 20
  8535.259
 11
 27463.824
 21
  9629.805
  0
LINE
  8
1
 10
 27447.902
 20
  9628.212
 11
 27463.824
 21
  9629.805
  0
LINE
  8
1
 10
 33518.645
 20
  9581.308
 11
 33575.758
 21
  9575.597
  0
LINE
  8
1
 10
 33508.695
 20
  9481.805
 11
 33565.809
 21
  9476.094
  0
LINE
  8
1
 10
 33468.895
 20
  9083.790
 11
 33526.008
 21
  9078.078
  0
LINE
  8
1
 10
 33429.094
 20
  8685.775
 11
 33486.207
 21
  8680.063
  0
LINE
  8
1
 10
 33419.145
 20
  8586.271
 11
 33476.258
 21
  8580.560
  0
LINE
  8
1
 10
 33552.180
 20
  9628.204
 11
 33442.723
 21
  8533.663
  0
LINE
  8
1
 10
 33442.723
 20
  8533.663
 11
 33426.801
 21
  8535.255
  0
LINE
  8
1
 10
 33426.801
 20
  8535.255
 11
 33536.258
 21
  9629.797
  0
LINE
  8
1
 10
 33552.180
 20
  9628.204
 11
 33536.258
 21
  9629.797
  0
LINE
  8
1
 10
 27472.779
 20
  9540.251
 11
 27592.182
 21
  9552.191
  0
LINE
  8
1
 10
 27592.182
 20
  9552.191
 11
 27463.824
 21
  9629.805
  0
LINE
  8
1
 10
 27463.824
 20
  9629.805
 11
 27463.824
 21
  9629.805
  0
LINE
  8
1
 10
 27472.779
 20
  9540.251
 11
 27463.824
 21
  9629.805
  0
LINE
  8
1
 10
 27564.488
 20
  8623.167
 11
 27685.084
 21
  8623.167
  0
LINE
  8
1
 10
 27685.084
 20
  8623.167
 11
 27573.277
 21
  8535.259
  0
LINE
  8
1
 10
 27573.277
 20
  8535.259
 11
 27573.277
 21
  8535.259
  0
LINE
  8
1
 10
 27564.488
 20
  8623.167
 11
 27573.277
 21
  8535.259
  0
LINE
  8
1
 10
 33527.301
 20
  9540.243
 11
 33407.898
 21
  9552.184
  0
LINE
  8
1
 10
 33407.898
 20
  9552.184
 11
 33536.258
 21
  9629.797
  0
LINE
  8
1
 10
 33536.258
 20
  9629.797
 11
 33536.258
 21
  9629.797
  0
LINE
  8
1
 10
 33527.301
 20
  9540.243
 11
 33536.258
 21
  9629.797
  0
LINE
  8
1
 10
 33435.594
 20
  8623.167
 11
 33314.996
 21
  8623.167
  0
LINE
  8
1
 10
 33314.996
 20
  8623.167
 11
 33426.801
 21
  8535.255
  0
LINE
  8
1
 10
 33426.801
 20
  8535.255
 11
 33426.801
 21
  8535.255
  0
LINE
  8
1
 10
 33435.594
 20
  8623.167
 11
 33426.801
 21
  8535.255
  0
LINE
  8
1
 10
 29990.303
 20
  8633.167
 11
 31009.701
 21
  8633.167
  0
LINE
  8
1
 10
 29990.303
 20
  8633.167
 11
 29990.303
 21
  8613.166
  0
LINE
  8
1
 10
 31009.701
 20
  8633.167
 11
 31009.701
 21
  8613.166
  0
LINE
  8
1
 10
 29990.303
 20
  8613.166
 11
 31009.701
 21
  8613.166
  0
LINE
  8
5
 10
 30040.303
 20
  8658.566
 11
 30040.303
 21
  8620.467
  0
LINE
  8
5
 10
 30140.303
 20
  8658.566
 11
 30140.303
 21
  8620.467
  0
LINE
  8
5
 10
 30859.701
 20
  8658.566
 11
 30859.701
 21
  8620.467
  0
LINE
  8
5
 10
 30959.701
 20
  8658.566
 11
 30959.701
 21
  8620.467
  0
CIRCLE
  8
1
 10
 27456.857
 20
  9538.659
 40
     6.350
  0
LINE
  8
17
 10
 27450.508
 20
  9538.659
 11
 27463.207
 21
  9538.659
  0
LINE
  8
17
 10
 27456.857
 20
  9532.309
 11
 27456.857
 21
  9545.009
  0
CIRCLE
  8
1
 10
 27548.408
 20
  8623.167
 40
     6.350
  0
LINE
  8
17
 10
 27542.059
 20
  8623.167
 11
 27554.758
 21
  8623.167
  0
LINE
  8
17
 10
 27548.408
 20
  8616.816
 11
 27548.408
 21
  8629.517
  0
CIRCLE
  8
1
 10
 33451.672
 20
  8623.167
 40
     6.350
  0
LINE
  8
17
 10
 33445.324
 20
  8623.167
 11
 33458.023
 21
  8623.167
  0
LINE
  8
17
 10
 33451.672
 20
  8616.816
 11
 33451.672
 21
  8629.517
  0
CIRCLE
  8
1
 10
 33543.223
 20
  9538.651
 40
     6.350
  0
LINE
  8
17
 10
 33536.875
 20
  9538.651
 11
 33549.574
 21
  9538.651
  0
LINE
  8
17
 10
 33543.223
 20
  9532.301
 11
 33543.223
 21
  9545.001
  0
LINE
  8
1
 10
 33558.148
 20
  9527.108
 11
 33468.730
 21
  8632.915
  0
LINE
  8
1
 10
 33468.730
 20
  8632.915
 11
 39413.941
 21
  8539.533
  0
LINE
  8
1
 10
 39413.941
 20
  8539.533
 11
 39413.941
 21
  8539.533
  0
LINE
  8
1
 10
 39413.941
 20
  8539.533
 11
 39453.742
 21
  8937.549
  0
LINE
  8
1
 10
 33558.148
 20
  9527.108
 11
 39453.742
 21
  8937.549
  0
LINE
  8
1
 10
 39453.742
 20
  8937.549
 11
 39413.941
 21
  8539.533
  0
LINE
  8
1
 10
 39413.941
 20
  8539.533
 11
 45333.457
 21
  7797.237
  0
LINE
  8
1
 10
 45333.457
 20
  7797.237
 11
 45333.457
 21
  7797.237
  0
LINE
  8
1
 10
 45333.457
 20
  7797.237
 11
 45388.148
 21
  8344.108
  0
LINE
  8
1
 10
 39453.742
 20
  8937.549
 11
 45388.148
 21
  8344.108
  0
LINE
  8
5
 10
 38097.207
 20
  9009.888
 11
 38071.336
 21
  9012.476
  0
LINE
  8
5
 10
 38094.820
 20
  8986.007
 11
 38068.949
 21
  8988.595
  0
ARC
  8
5
 10
 38096.016
 20
  8997.947
 40
    12.000
 50
   -95.711
 51
    84.289
  0
ARC
  8
5
 10
 38070.145
 20
  9000.535
 40
    12.000
 50
    84.289
 51
   -95.711
  0
LINE
  8
5
 10
 38395.723
 20
  8980.036
 11
 38369.852
 21
  8982.624
  0
LINE
  8
5
 10
 38393.332
 20
  8956.155
 11
 38367.461
 21
  8958.743
  0
ARC
  8
5
 10
 38394.527
 20
  8968.096
 40
    12.000
 50
   -95.711
 51
    84.289
  0
ARC
  8
5
 10
 38368.656
 20
  8970.684
 40
    12.000
 50
    84.289
 51
   -95.711
  0
LINE
  8
1
 10
 33558.148
 20
  9527.108
 11
 45388.148
 21
  8344.108
  0
LINE
  8
1
 10
 45388.148
 20
  8344.108
 11
 45388.945
 21
  8352.068
  0
LINE
  8
1
 10
 45388.945
 20
  8352.068
 11
 33558.945
 21
  9535.068
  0
LINE
  8
1
 10
 33558.148
 20
  9527.108
 11
 33558.945
 21
  9535.068
  0
LINE
  8
1
 10
 33468.730
 20
  8632.915
 11
 39413.395
 21
  8539.542
  0
LINE
  8
1
 10
 39413.395
 20
  8539.542
 11
 39413.238
 21
  8529.544
  0
LINE
  8
1
 10
 39413.238
 20
  8529.544
 11
 33468.570
 21
  8622.916
  0
LINE
  8
1
 10
 33468.730
 20
  8632.915
 11
 33468.570
 21
  8622.916
  0
LINE
  8
1
 10
 39414.375
 20
  8539.479
 11
 45333.457
 21
  7797.237
  0
LINE
  8
1
 10
 45333.457
 20
  7797.237
 11
 45332.465
 21
  7789.300
  0
LINE
  8
1
 10
 45332.465
 20
  7789.300
 11
 39413.379
 21
  8531.542
  0
LINE
  8
1
 10
 39414.375
 20
  8539.479
 11
 39413.379
 21
  8531.542
  0
LINE
  8
1
 10
 33518.645
 20
  9581.308
 11
 33575.758
 21
  9575.597
  0
LINE
  8
1
 10
 33508.695
 20
  9481.805
 11
 33565.809
 21
  9476.094
  0
LINE
  8
1
 10
 33468.895
 20
  9083.790
 11
 33526.008
 21
  9078.078
  0
LINE
  8
1
 10
 33429.094
 20
  8685.775
 11
 33486.207
 21
  8680.063
  0
LINE
  8
1
 10
 33419.145
 20
  8586.271
 11
 33476.258
 21
  8580.560
  0
LINE
  8
1
 10
 33552.180
 20
  9628.204
 11
 33442.723
 21
  8533.663
  0
LINE
  8
1
 10
 33442.723
 20
  8533.663
 11
 33458.645
 21
  8532.070
  0
LINE
  8
1
 10
 33458.645
 20
  8532.070
 11
 33568.098
 21
  9626.612
  0
LINE
  8
1
 10
 33552.180
 20
  9628.204
 11
 33568.098
 21
  9626.612
  0
LINE
  8
1
 10
 45380.484
 20
  8395.124
 11
 45437.598
 21
  8389.413
  0
LINE
  8
1
 10
 45370.535
 20
  8295.621
 11
 45427.648
 21
  8289.909
  0
LINE
  8
1
 10
 45325.762
 20
  7847.854
 11
 45382.871
 21
  7842.142
  0
LINE
  8
1
 10
 45315.809
 20
  7748.350
 11
 45372.922
 21
  7742.639
  0
LINE
  8
1
 10
 45414.020
 20
  8442.021
 11
 45339.391
 21
  7695.742
  0
LINE
  8
1
 10
 45339.391
 20
  7695.742
 11
 45323.469
 21
  7697.334
  0
LINE
  8
1
 10
 45323.469
 20
  7697.334
 11
 45398.098
 21
  8443.612
  0
LINE
  8
1
 10
 45414.020
 20
  8442.021
 11
 45398.098
 21
  8443.612
  0
LINE
  8
1
 10
 33558.945
 20
  9535.068
 11
 33678.352
 21
  9523.128
  0
LINE
  8
1
 10
 33678.352
 20
  9523.128
 11
 33568.098
 21
  9626.612
  0
LINE
  8
1
 10
 33568.098
 20
  9626.612
 11
 33568.098
 21
  9626.612
  0
LINE
  8
1
 10
 33558.945
 20
  9535.068
 11
 33568.098
 21
  9626.612
  0
LINE
  8
1
 10
 33467.730
 20
  8622.930
 11
 33588.137
 21
  8621.038
  0
LINE
  8
1
 10
 33588.137
 20
  8621.038
 11
 33458.637
 21
  8531.997
  0
LINE
  8
1
 10
 33458.637
 20
  8531.997
 11
 33458.637
 21
  8531.997
  0
LINE
  8
1
 10
 33467.730
 20
  8622.930
 11
 33458.637
 21
  8531.997
  0
LINE
  8
1
 10
 45388.945
 20
  8352.068
 11
 45269.539
 21
  8364.009
  0
LINE
  8
1
 10
 45269.539
 20
  8364.009
 11
 45398.098
 21
  8443.612
  0
LINE
  8
1
 10
 45398.098
 20
  8443.612
 11
 45398.098
 21
  8443.612
  0
LINE
  8
1
 10
 45388.945
 20
  8352.068
 11
 45398.098
 21
  8443.612
  0
LINE
  8
1
 10
 45332.660
 20
  7789.275
 11
 45213.555
 21
  7804.210
  0
LINE
  8
1
 10
 45213.555
 20
  7804.210
 11
 45323.469
 21
  7697.329
  0
LINE
  8
1
 10
 45323.469
 20
  7697.329
 11
 45323.469
 21
  7697.329
  0
LINE
  8
1
 10
 45332.660
 20
  7789.275
 11
 45323.469
 21
  7697.329
  0
CIRCLE
  8
1
 10
 33543.023
 20
  9536.660
 40
     6.350
  0
LINE
  8
17
 10
 33536.676
 20
  9536.660
 11
 33549.375
 21
  9536.660
  0
LINE
  8
17
 10
 33543.023
 20
  9530.311
 11
 33543.023
 21
  9543.011
  0
CIRCLE
  8
1
 10
 33451.676
 20
  8623.182
 40
     6.350
  0
LINE
  8
17
 10
 33445.324
 20
  8623.182
 11
 33458.027
 21
  8623.182
  0
LINE
  8
17
 10
 33451.676
 20
  8616.831
 11
 33451.676
 21
  8629.531
  0
CIRCLE
  8
1
 10
 45348.543
 20
  7787.283
 40
     6.350
  0
LINE
  8
17
 10
 45342.191
 20
  7787.283
 11
 45354.895
 21
  7787.283
  0
LINE
  8
17
 10
 45348.543
 20
  7780.933
 11
 45348.543
 21
  7793.633
  0
CIRCLE
  8
1
 10
 45404.863
 20
  8350.477
 40
     6.350
  0
LINE
  8
17
 10
 45398.516
 20
  8350.477
 11
 45411.215
 21
  8350.477
  0
LINE
  8
17
 10
 45404.863
 20
  8344.126
 11
 45404.863
 21
  8356.826
  0
LINE
  8
1
 10
 45419.988
 20
  8340.924
 11
 45365.262
 21
  7793.654
  0
LINE
  8
1
 10
 45365.262
 20
  7793.654
 11
 51303.641
 21
  7199.815
  0
LINE
  8
1
 10
 51303.641
 20
  7199.815
 11
 51303.641
 21
  7199.815
  0
LINE
  8
1
 10
 51303.641
 20
  7199.815
 11
 51358.367
 21
  7747.086
  0
LINE
  8
1
 10
 45419.988
 20
  8340.924
 11
 51358.367
 21
  7747.086
  0
LINE
  8
5
 10
 45709.246
 20
  8248.684
 11
 45683.375
 21
  8251.271
  0
LINE
  8
5
 10
 45706.859
 20
  8224.804
 11
 45680.988
 21
  8227.391
  0
ARC
  8
5
 10
 45708.055
 20
  8236.743
 40
    12.000
 50
   -95.711
 51
    84.289
  0
ARC
  8
5
 10
 45682.180
 20
  8239.331
 40
    12.000
 50
    84.289
 51
   -95.711
  0
LINE
  8
5
 10
 46007.758
 20
  8218.832
 11
 45981.887
 21
  8221.420
  0
LINE
  8
5
 10
 46005.371
 20
  8194.951
 11
 45979.500
 21
  8197.539
  0
ARC
  8
5
 10
 46006.566
 20
  8206.892
 40
    12.000
 50
   -95.711
 51
    84.289
  0
ARC
  8
5
 10
 45980.695
 20
  8209.479
 40
    12.000
 50
    84.289
 51
   -95.711
  0
LINE
  8
1
 10
 45419.988
 20
  8340.924
 11
 51358.367
 21
  7747.086
  0
LINE
  8
1
 10
 51358.367
 20
  7747.086
 11
 51359.363
 21
  7757.037
  0
LINE
  8
1
 10
 51359.363
 20
  7757.037
 11
 45420.984
 21
  8350.875
  0
LINE
  8
1
 10
 45419.988
 20
  8340.924
 11
 45420.984
 21
  8350.875
  0
LINE
  8
1
 10
 45365.262
 20
  7793.654
 11
 51303.641
 21
  7199.815
  0
LINE
  8
1
 10
 51303.641
 20
  7199.815
 11
 51303.043
 21
  7193.845
  0
LINE
  8
1
 10
 51303.043
 20
  7193.845
 11
 45364.664
 21
  7787.684
  0
LINE
  8
1
 10
 45365.262
 20
  7793.654
 11
 45364.664
 21
  7787.684
  0
LINE
  8
1
 10
 45380.484
 20
  8395.124
 11
 45437.598
 21
  8389.413
  0
LINE
  8
1
 10
 45370.535
 20
  8295.621
 11
 45427.648
 21
  8289.909
  0
LINE
  8
1
 10
 45325.762
 20
  7847.854
 11
 45382.871
 21
  7842.142
  0
LINE
  8
1
 10
 45315.809
 20
  7748.350
 11
 45372.922
 21
  7742.639
  0
LINE
  8
1
 10
 45414.020
 20
  8442.021
 11
 45339.391
 21
  7695.742
  0
LINE
  8
1
 10
 45339.391
 20
  7695.742
 11
 45355.312
 21
  7694.149
  0
LINE
  8
1
 10
 45355.312
 20
  7694.149
 11
 45429.941
 21
  8440.428
  0
LINE
  8
1
 10
 45414.020
 20
  8442.021
 11
 45429.941
 21
  8440.428
  0
LINE
  8
1
 10
 51350.707
 20
  7798.102
 11
 51407.820
 21
  7792.390
  0
LINE
  8
1
 10
 51340.758
 20
  7698.598
 11
 51397.871
 21
  7692.887
  0
LINE
  8
1
 10
 51295.980
 20
  7250.831
 11
 51353.094
 21
  7245.120
  0
LINE
  8
1
 10
 51286.031
 20
  7151.328
 11
 51343.145
 21
  7145.616
  0
LINE
  8
1
 10
 51384.238
 20
  7844.998
 11
 51309.613
 21
  7098.719
  0
LINE
  8
1
 10
 51309.613
 20
  7098.719
 11
 51293.691
 21
  7100.312
  0
LINE
  8
1
 10
 51293.691
 20
  7100.312
 11
 51368.316
 21
  7846.590
  0
LINE
  8
1
 10
 51384.238
 20
  7844.998
 11
 51368.316
 21
  7846.590
  0
LINE
  8
1
 10
 45420.984
 20
  8350.875
 11
 45540.387
 21
  8338.935
  0
LINE
  8
1
 10
 45540.387
 20
  8338.935
 11
 45429.941
 21
  8440.428
  0
LINE
  8
1
 10
 45429.941
 20
  8440.428
 11
 45429.941
 21
  8440.428
  0
LINE
  8
1
 10
 45420.984
 20
  8350.875
 11
 45429.941
 21
  8440.428
  0
LINE
  8
1
 10
 45364.664
 20
  7787.684
 11
 45484.070
 21
  7775.743
  0
LINE
  8
1
 10
 45484.070
 20
  7775.743
 11
 45355.312
 21
  7694.149
  0
LINE
  8
1
 10
 45355.312
 20
  7694.149
 11
 45355.312
 21
  7694.149
  0
LINE
  8
1
 10
 45364.664
 20
  7787.684
 11
 45355.312
 21
  7694.149
  0
LINE
  8
1
 10
 51359.363
 20
  7757.037
 11
 51239.961
 21
  7768.977
  0
LINE
  8
1
 10
 51239.961
 20
  7768.977
 11
 51368.316
 21
  7846.590
  0
LINE
  8
1
 10
 51368.316
 20
  7846.590
 11
 51368.316
 21
  7846.590
  0
LINE
  8
1
 10
 51359.363
 20
  7757.037
 11
 51368.316
 21
  7846.590
  0
LINE
  8
1
 10
 51303.043
 20
  7193.845
 11
 51183.641
 21
  7205.786
  0
LINE
  8
1
 10
 51183.641
 20
  7205.786
 11
 51293.691
 21
  7100.312
  0
LINE
  8
1
 10
 51293.691
 20
  7100.312
 11
 51293.691
 21
  7100.312
  0
LINE
  8
1
 10
 51303.043
 20
  7193.845
 11
 51293.691
 21
  7100.312
  0
CIRCLE
  8
1
 10
 45405.062
 20
  8352.467
 40
     6.350
  0
LINE
  8
17
 10
 45398.715
 20
  8352.467
 11
 45411.414
 21
  8352.467
  0
LINE
  8
17
 10
 45405.062
 20
  8346.117
 11
 45405.062
 21
  8358.816
  0
CIRCLE
  8
1
 10
 45348.742
 20
  7789.275
 40
     6.350
  0
LINE
  8
17
 10
 45342.391
 20
  7789.275
 11
 45355.090
 21
  7789.275
  0
LINE
  8
17
 10
 45348.742
 20
  7782.926
 11
 45348.742
 21
  7795.625
  0
CIRCLE
  8
1
 10
 51318.965
 20
  7192.253
 40
     6.350
  0
LINE
  8
17
 10
 51312.613
 20
  7192.253
 11
 51325.312
 21
  7192.253
  0
LINE
  8
17
 10
 51318.965
 20
  7185.903
 11
 51318.965
 21
  7198.603
  0
CIRCLE
  8
1
 10
 51375.285
 20
  7755.444
 40
     6.350
  0
LINE
  8
17
 10
 51368.934
 20
  7755.444
 11
 51381.637
 21
  7755.444
  0
LINE
  8
17
 10
 51375.285
 20
  7749.094
 11
 51375.285
 21
  7761.794
  0
LINE
  8
1
 10
 51390.211
 20
  7743.902
 11
 51335.523
 21
  7197.028
  0
LINE
  8
1
 10
 51335.523
 20
  7197.028
 11
 57320.629
 21
  6748.865
  0
LINE
  8
1
 10
 57320.629
 20
  6748.865
 11
 57320.629
 21
  6748.865
  0
LINE
  8
1
 10
 57320.629
 20
  6748.865
 11
 57360.430
 21
  7146.880
  0
LINE
  8
1
 10
 51390.211
 20
  7743.902
 11
 57360.430
 21
  7146.880
  0
LINE
  8
1
 10
 57360.430
 20
  7146.880
 11
 57320.629
 21
  6748.865
  0
LINE
  8
1
 10
 57320.629
 20
  6748.865
 11
 60036.898
 21
  6476.737
  0
LINE
  8
1
 10
 60036.898
 20
  6476.737
 11
 60036.898
 21
  6476.737
  0
LINE
  8
1
 10
 60036.898
 20
  6476.737
 11
 60076.746
 21
  6875.248
  0
LINE
  8
1
 10
 57360.430
 20
  7146.880
 11
 60076.746
 21
  6875.248
  0
LINE
  8
1
 10
 60076.746
 20
  6875.248
 11
 60036.898
 21
  6476.737
  0
LINE
  8
1
 10
 60036.898
 20
  6476.737
 11
 60036.898
 21
  6476.736
  0
LINE
  8
1
 10
 60036.898
 20
  6476.736
 11
 60844.000
 21
  6476.736
  0
LINE
  8
1
 10
 60844.000
 20
  6476.736
 11
 60844.000
 21
  6798.522
  0
LINE
  8
1
 10
 60076.746
 20
  6875.248
 11
 60844.000
 21
  6798.522
  0
LINE
  8
5
 10
 53022.773
 20
  7517.331
 11
 52996.902
 21
  7519.918
  0
LINE
  8
5
 10
 53020.383
 20
  7493.450
 11
 52994.512
 21
  7496.038
  0
ARC
  8
5
 10
 53021.574
 20
  7505.391
 40
    12.000
 50
   -95.711
 51
    84.289
  0
ARC
  8
5
 10
 52995.703
 20
  7507.978
 40
    12.000
 50
    84.289
 51
   -95.711
  0
LINE
  8
5
 10
 53321.285
 20
  7487.480
 11
 53295.414
 21
  7490.067
  0
LINE
  8
5
 10
 53318.898
 20
  7463.599
 11
 53293.023
 21
  7466.187
  0
ARC
  8
5
 10
 53320.086
 20
  7475.540
 40
    12.000
 50
   -95.711
 51
    84.289
  0
ARC
  8
5
 10
 53294.215
 20
  7478.127
 40
    12.000
 50
    84.289
 51
   -95.711
  0
LINE
  8
5
 10
 60676.543
 20
  6751.955
 11
 60650.672
 21
  6754.542
  0
LINE
  8
5
 10
 60674.156
 20
  6728.074
 11
 60648.285
 21
  6730.661
  0
ARC
  8
5
 10
 60675.348
 20
  6740.014
 40
    12.000
 50
   -95.711
 51
    84.289
  0
ARC
  8
5
 10
 60649.477
 20
  6742.602
 40
    12.000
 50
    84.289
 51
   -95.711
  0
LINE
  8
5
 10
 60781.004
 20
  6535.522
 11
 60781.004
 21
  6561.522
  0
LINE
  8
5
 10
 60757.004
 20
  6535.522
 11
 60757.004
 21
  6561.522
  0
ARC
  8
5
 10
 60769.004
 20
  6535.522
 40
    12.000
 50
  -180.000
 51
     0.000
  0
ARC
  8
5
 10
 60769.004
 20
  6561.522
 40
    12.000
 50
     0.000
 51
  -180.000
  0
LINE
  8
1
 10
 60176.703
 20
  6834.552
 11
 60140.879
 21
  6476.338
  0
LINE
  8
1
 10
 60168.742
 20
  6835.347
 11
 60132.918
 21
  6477.134
  0
LINE
  8
1
 10
 60176.703
 20
  6834.552
 11
 60168.742
 21
  6835.347
  0
LINE
  8
1
 10
 60140.879
 20
  6476.338
 11
 60132.918
 21
  6477.134
  0
LINE
  8
1
 10
 51390.211
 20
  7743.902
 11
 57061.918
 21
  7176.731
  0
LINE
  8
1
 10
 57061.918
 20
  7176.731
 11
 57062.711
 21
  7184.691
  0
LINE
  8
1
 10
 57062.711
 20
  7184.691
 11
 51391.008
 21
  7751.862
  0
LINE
  8
1
 10
 51390.211
 20
  7743.902
 11
 51391.008
 21
  7751.862
  0
LINE
  8
1
 10
 57061.918
 20
  7176.731
 11
 60988.406
 21
  6784.081
  0
LINE
  8
1
 10
 60988.406
 20
  6784.081
 11
 60990.000
 21
  6800.002
  0
LINE
  8
1
 10
 60990.000
 20
  6800.002
 11
 57063.512
 21
  7192.651
  0
LINE
  8
1
 10
 57061.918
 20
  7176.731
 11
 57063.512
 21
  7192.651
  0
LINE
  8
5
 10
 60901.434
 20
  6818.306
 11
 60897.641
 21
  6780.395
  0
LINE
  8
1
 10
 60844.000
 20
  6796.922
 11
 60844.000
 21
  6476.736
  0
LINE
  8
1
 10
 60844.000
 20
  6476.736
 11
 60860.000
 21
  6476.736
  0
LINE
  8
1
 10
 60860.000
 20
  6476.736
 11
 60860.000
 21
  6796.922
  0
LINE
  8
1
 10
 60844.000
 20
  6796.922
 11
 60860.000
 21
  6796.922
  0
LINE
  8
1
 10
 60860.000
 20
  6796.922
 11
 61010.000
 21
  6781.922
  0
LINE
  8
1
 10
 61010.000
 20
  6781.922
 11
 60860.000
 21
  6721.922
  0
LINE
  8
1
 10
 51335.523
 20
  7197.028
 11
 57320.531
 21
  6748.873
  0
LINE
  8
1
 10
 57320.531
 20
  6748.873
 11
 57319.938
 21
  6740.895
  0
LINE
  8
1
 10
 57319.938
 20
  6740.895
 11
 51334.926
 21
  7189.050
  0
LINE
  8
1
 10
 51335.523
 20
  7197.028
 11
 51334.926
 21
  7189.050
  0
LINE
  8
1
 10
 57320.828
 20
  6748.845
 11
 60036.898
 21
  6476.736
  0
LINE
  8
1
 10
 60036.898
 20
  6476.736
 11
 60035.305
 21
  6460.816
  0
LINE
  8
1
 10
 60035.305
 20
  6460.816
 11
 57319.234
 21
  6732.925
  0
LINE
  8
1
 10
 57320.828
 20
  6748.845
 11
 57319.234
 21
  6732.925
  0
LINE
  8
1
 10
 51350.707
 20
  7798.102
 11
 51407.820
 21
  7792.390
  0
LINE
  8
1
 10
 51340.758
 20
  7698.598
 11
 51397.871
 21
  7692.887
  0
LINE
  8
1
 10
 51295.980
 20
  7250.831
 11
 51353.094
 21
  7245.120
  0
LINE
  8
1
 10
 51286.031
 20
  7151.328
 11
 51343.145
 21
  7145.616
  0
LINE
  8
1
 10
 51384.238
 20
  7844.998
 11
 51309.613
 21
  7098.719
  0
LINE
  8
1
 10
 51309.613
 20
  7098.719
 11
 51325.531
 21
  7097.127
  0
LINE
  8
1
 10
 51325.531
 20
  7097.127
 11
 51400.160
 21
  7843.406
  0
LINE
  8
1
 10
 51384.238
 20
  7844.998
 11
 51400.160
 21
  7843.406
  0
LINE
  8
1
 10
 60894.000
 20
  6489.437
 11
 60894.000
 21
  6424.037
  0
LINE
  8
1
 10
 60794.000
 20
  6489.437
 11
 60794.000
 21
  6424.037
  0
LINE
  8
1
 10
 60494.000
 20
  6489.437
 11
 60494.000
 21
  6424.037
  0
LINE
  8
1
 10
 60194.000
 20
  6489.437
 11
 60194.000
 21
  6424.037
  0
LINE
  8
1
 10
 60094.000
 20
  6489.437
 11
 60094.000
 21
  6424.037
  0
LINE
  8
1
 10
 60944.000
 20
  6456.736
 11
 60042.906
 21
  6456.736
  0
LINE
  8
1
 10
 60042.906
 20
  6456.736
 11
 60042.906
 21
  6476.736
  0
LINE
  8
1
 10
 60042.906
 20
  6476.736
 11
 60944.000
 21
  6476.736
  0
LINE
  8
1
 10
 60944.000
 20
  6456.736
 11
 60944.000
 21
  6476.736
  0
LINE
  8
1
 10
 51391.008
 20
  7751.862
 11
 51510.410
 21
  7739.921
  0
LINE
  8
1
 10
 51510.410
 20
  7739.921
 11
 51400.160
 21
  7843.406
  0
LINE
  8
1
 10
 51400.160
 20
  7843.406
 11
 51400.160
 21
  7843.406
  0
LINE
  8
1
 10
 51391.008
 20
  7751.862
 11
 51400.160
 21
  7843.406
  0
LINE
  8
1
 10
 51334.727
 20
  7189.065
 11
 51454.426
 21
  7180.102
  0
LINE
  8
1
 10
 51454.426
 20
  7180.102
 11
 51325.531
 21
  7097.122
  0
LINE
  8
1
 10
 51325.531
 20
  7097.122
 11
 51325.531
 21
  7097.122
  0
LINE
  8
1
 10
 51334.727
 20
  7189.065
 11
 51325.531
 21
  7097.122
  0
LINE
  8
1
 10
 60860.000
 20
  6476.736
 11
 60860.000
 21
  6596.736
  0
LINE
  8
1
 10
 60860.000
 20
  6596.736
 11
 60944.000
 21
  6476.736
  0
LINE
  8
1
 10
 60944.000
 20
  6476.736
 11
 60944.000
 21
  6476.736
  0
LINE
  8
1
 10
 60860.000
 20
  6476.736
 11
 60944.000
 21
  6476.736
  0
CIRCLE
  8
1
 10
 51375.086
 20
  7753.454
 40
     6.350
  0
LINE
  8
17
 10
 51368.738
 20
  7753.454
 11
 51381.438
 21
  7753.454
  0
LINE
  8
17
 10
 51375.086
 20
  7747.104
 11
 51375.086
 21
  7759.804
  0
CIRCLE
  8
1
 10
 51318.766
 20
  7190.260
 40
     6.350
  0
LINE
  8
17
 10
 51312.414
 20
  7190.260
 11
 51325.113
 21
  7190.260
  0
LINE
  8
17
 10
 51318.766
 20
  7183.910
 11
 51318.766
 21
  7196.610
  0
CIRCLE
  8
1
 10
 60042.906
 20
  6456.736
 40
     6.350
  0
LINE
  8
17
 10
 60036.559
 20
  6456.736
 11
 60049.258
 21
  6456.736
  0
LINE
  8
17
 10
 60042.906
 20
  6450.386
 11
 60042.906
 21
  6463.086
  0
CIRCLE
  8
1
 10
 60860.000
 20
  6456.736
 40
     6.350
  0
LINE
  8
17
 10
 60853.648
 20
  6456.736
 11
 60866.348
 21
  6456.736
  0
LINE
  8
17
 10
 60860.000
 20
  6450.386
 11
 60860.000
 21
  6463.086
  0
CIRCLE
  8
1
 10
 60860.000
 20
  6813.002
 40
     6.350
  0
LINE
  8
17
 10
 60853.648
 20
  6813.002
 11
 60866.348
 21
  6813.002
  0
LINE
  8
17
 10
 60860.000
 20
  6806.652
 11
 60860.000
 21
  6819.352
  0
LINE
  8
1
 10
 60844.000
 20
    16.000
 11
 60494.000
 21
    16.000
  0
LINE
  8
1
 10
 60494.000
 20
    16.000
 11
 60144.000
 21
  6436.736
  0
LINE
  8
1
 10
 60144.000
 20
  6436.736
 11
 60144.000
 21
  6436.736
  0
LINE
  8
1
 10
 60144.000
 20
  6436.736
 11
 60844.000
 21
  6436.736
  0
LINE
  8
1
 10
 60844.000
 20
    16.000
 11
 60844.000
 21
  6436.736
  0
LINE
  8
5
 10
 60781.004
 20
   253.000
 11
 60781.004
 21
   279.000
  0
LINE
  8
5
 10
 60757.004
 20
   253.000
 11
 60757.004
 21
   279.000
  0
ARC
  8
5
 10
 60769.004
 20
   253.000
 40
    12.000
 50
  -180.000
 51
     0.000
  0
ARC
  8
5
 10
 60769.004
 20
   279.000
 40
    12.000
 50
     0.000
 51
  -180.000
  0
LINE
  8
1
 10
 60844.000
 20
    16.000
 11
 60844.000
 21
  6436.736
  0
LINE
  8
1
 10
 60844.000
 20
  6436.736
 11
 60850.004
 21
  6436.736
  0
LINE
  8
1
 10
 60850.004
 20
  6436.736
 11
 60850.004
 21
    16.000
  0
LINE
  8
1
 10
 60844.000
 20
    16.000
 11
 60850.004
 21
    16.000
  0
LINE
  8
5
 10
 60869.398
 20
  5180.000
 11
 60831.301
 21
  5180.000
  0
LINE
  8
5
 10
 60869.398
 20
  3680.000
 11
 60831.301
 21
  3680.000
  0
LINE
  8
1
 10
 60493.969
 20
    16.653
 11
 60144.000
 21
  6436.736
  0
LINE
  8
1
 10
 60144.000
 20
  6436.736
 11
 60132.020
 21
  6436.083
  0
LINE
  8
1
 10
 60132.020
 20
  6436.083
 11
 60481.988
 21
    16.000
  0
LINE
  8
1
 10
 60493.969
 20
    16.653
 11
 60481.988
 21
    16.000
  0
LINE
  8
1
 10
 60714.996
 20
    28.700
 11
 60714.996
 21
   -28.700
  0
LINE
  8
1
 10
 60614.996
 20
    28.700
 11
 60614.996
 21
   -28.700
  0
LINE
  8
1
 10
 60864.996
 20
    -0.000
 11
 60464.996
 21
     0.000
  0
LINE
  8
1
 10
 60464.996
 20
     0.000
 11
 60464.996
 21
    16.000
  0
LINE
  8
1
 10
 60464.996
 20
    16.000
 11
 60864.996
 21
    16.000
  0
LINE
  8
1
 10
 60864.996
 20
    -0.000
 11
 60864.996
 21
    16.000
  0
LINE
  8
1
 10
 60894.000
 20
  6489.437
 11
 60894.000
 21
  6424.037
  0
LINE
  8
1
 10
 60794.000
 20
  6489.437
 11
 60794.000
 21
  6424.037
  0
LINE
  8
1
 10
 60494.000
 20
  6489.437
 11
 60494.000
 21
  6424.037
  0
LINE
  8
1
 10
 60194.000
 20
  6489.437
 11
 60194.000
 21
  6424.037
  0
LINE
  8
1
 10
 60094.000
 20
  6489.437
 11
 60094.000
 21
  6424.037
  0
LINE
  8
1
 10
 60944.000
 20
  6456.736
 11
 60042.906
 21
  6456.736
  0
LINE
  8
1
 10
 60042.906
 20
  6456.736
 11
 60042.906
 21
  6436.736
  0
LINE
  8
1
 10
 60042.906
 20
  6436.736
 11
 60944.000
 21
  6436.736
  0
LINE
  8
1
 10
 60944.000
 20
  6456.736
 11
 60944.000
 21
  6436.736
  0
LINE
  8
1
 10
 60850.004
 20
  6436.736
 11
 60850.004
 21
  6316.736
  0
LINE
  8
1
 10
 60850.004
 20
  6316.736
 11
 60944.000
 21
  6436.736
  0
LINE
  8
1
 10
 60944.000
 20
  6436.736
 11
 60944.000
 21
  6436.736
  0
LINE
  8
1
 10
 60850.004
 20
  6436.736
 11
 60944.000
 21
  6436.736
  0
LINE
  8
1
 10
 60131.980
 20
  6436.736
 11
 60138.523
 21
  6316.736
  0
LINE
  8
1
 10
 60138.523
 20
  6316.736
 11
 60042.871
 21
  6436.736
  0
LINE
  8
1
 10
 60042.871
 20
  6436.736
 11
 60042.871
 21
  6436.736
  0
LINE
  8
1
 10
 60131.980
 20
  6436.736
 11
 60042.871
 21
  6436.736
  0
CIRCLE
  8
1
 10
 60850.004
 20
  6456.736
 40
     6.350
  0
LINE
  8
17
 10
 60843.652
 20
  6456.736
 11
 60856.352
 21
  6456.736
  0
LINE
  8
17
 10
 60850.004
 20
  6450.386
 11
 60850.004
 21
  6463.086
  0
CIRCLE
  8
1
 10
 60130.891
 20
  6456.736
 40
     6.350
  0
LINE
  8
17
 10
 60124.539
 20
  6456.736
 11
 60137.238
 21
  6456.736
  0
LINE
  8
17
 10
 60130.891
 20
  6450.386
 11
 60130.891
 21
  6463.086
  0
CIRCLE
  8
1
 10
 60482.855
 20
     0.000
 40
     6.350
  0
LINE
  8
17
 10
 60476.508
 20
     0.000
 11
 60489.207
 21
     0.000
  0
LINE
  8
17
 10
 60482.855
 20
    -6.350
 11
 60482.855
 21
     6.350
  0
CIRCLE
  8
1
 10
 60850.004
 20
    -0.000
 40
     6.350
  0
LINE
  8
17
 10
 60843.652
 20
    -0.000
 11
 60856.352
 21
    -0.000
  0
LINE
  8
17
 10
 60850.004
 20
    -6.350
 11
 60850.004
 21
     6.350
  0
LINE
  8
1
 10
 30075.002
 20
     0.000
 11
 30925.002
 21
     0.000
  0
LINE
  8
1
 10
 30075.002
 20
    16.000
 11
 30925.002
 21
    16.000
  0
LINE
  8
1
 10
 30075.002
 20
     0.000
 11
 30075.002
 21
    16.000
  0
LINE
  8
1
 10
 30925.002
 20
     0.000
 11
 30925.002
 21
    16.000
  0
LINE
  8
1
 10
 30450.002
 20
    25.400
 11
 30450.002
 21
   -25.400
  0
LINE
  8
1
 10
 30550.002
 20
    25.400
 11
 30550.002
 21
   -25.400
  0
LINE
  8
1
 10
 30090.303
 20
  8473.167
 11
 29970.303
 21
  8593.167
  0
LINE
  8
1
 10
 29970.303
 20
  8593.167
 11
 29970.303
 21
  8593.167
  0
LINE
  8
1
 10
 30909.701
 20
  8473.167
 11
 31029.699
 21
  8593.167
  0
LINE
  8
1
 10
 31029.699
 20
  8593.167
 11
 31029.699
 21
  8593.167
  0
CIRCLE
  8
1
 10
 30090.303
 20
     0.000
 40
    19.050
  0
CIRCLE
  8
1
 10
 30909.701
 20
     0.000
 40
    19.050
  0
CIRCLE
  8
1
 10
 30909.701
 20
  8613.167
 40
    19.050
  0
CIRCLE
  8
1
 10
 30090.303
 20
  8613.167
 40
    19.050
  0
CIRCLE
  8
1
 10
     0.000
 20
     0.000
 40
    19.050
  0
CIRCLE
  8
1
 10
 30090.303
 20
     0.000
 40
    19.050
  0
CIRCLE
  8
1
 10
 30909.701
 20
     0.000
 40
    19.050
  0
CIRCLE
  8
1
 10
 30909.701
 20
  8613.167
 40
    19.050
  0
CIRCLE
  8
1
 10
 30090.303
 20
  8613.167
 40
    19.050
  0
CIRCLE
  8
1
 10
     0.000
 20
     0.000
 40
    19.050
  0
LINE
  8
3
 10
    -0.000
 20
  3680.000
 11
  -175.915
 21
  3578.293
  0
LINE
  8
3
 10
    -0.000
 20
  3680.000
 11
  -176.007
 21
  3781.547
  0
LINE
  8
3
 10
  -176.007
 20
  3781.547
 11
  -175.915
 21
  3578.293
  0
LINE
  8
3
 10
    -0.000
 20
  3680.000
 11
  -175.915
 21
  3578.293
  0
LINE
  8
3
 10
    -0.000
 20
  3680.000
 11
  -176.007
 21
  3781.547
  0
LINE
  8
3
 10
  -176.007
 20
  3781.547
 11
  -175.915
 21
  3578.293
  0
LINE
  8
3
 10
  1842.908
 20
  7184.290
 11
  1724.202
 21
  7349.212
  0
LINE
  8
3
 10
  1842.908
 20
  7184.290
 11
  1926.438
 21
  7369.527
  0
LINE
  8
3
 10
  1926.438
 20
  7369.527
 11
  1724.202
 21
  7349.212
  0
LINE
  8
3
 10
  4828.021
 20
  7482.801
 11
  4709.314
 21
  7647.723
  0
LINE
  8
3
 10
  4828.021
 20
  7482.801
 11
  4911.550
 21
  7668.039
  0
LINE
  8
3
 10
  4911.550
 20
  7668.039
 11
  4709.314
 21
  7647.723
  0
LINE
  8
3
 10
  7813.132
 20
  7781.312
 11
  7694.426
 21
  7946.234
  0
LINE
  8
3
 10
  7813.132
 20
  7781.312
 11
  7896.662
 21
  7966.550
  0
LINE
  8
3
 10
  7896.662
 20
  7966.550
 11
  7694.426
 21
  7946.234
  0
LINE
  8
3
 10
 10798.243
 20
  8079.824
 11
 10679.537
 21
  8244.745
  0
LINE
  8
3
 10
 10798.243
 20
  8079.824
 11
 10881.772
 21
  8265.062
  0
LINE
  8
3
 10
 10881.772
 20
  8265.062
 11
 10679.537
 21
  8244.745
  0
LINE
  8
3
 10
 13783.354
 20
  8378.335
 11
 13664.647
 21
  8543.257
  0
LINE
  8
3
 10
 13783.354
 20
  8378.335
 11
 13866.884
 21
  8563.572
  0
LINE
  8
3
 10
 13866.884
 20
  8563.572
 11
 13664.647
 21
  8543.257
  0
LINE
  8
3
 10
 16768.467
 20
  8676.847
 11
 16649.760
 21
  8841.768
  0
LINE
  8
3
 10
 16768.467
 20
  8676.847
 11
 16851.996
 21
  8862.084
  0
LINE
  8
3
 10
 16851.996
 20
  8862.084
 11
 16649.760
 21
  8841.768
  0
LINE
  8
3
 10
 19753.576
 20
  8975.357
 11
 19634.871
 21
  9140.279
  0
LINE
  8
3
 10
 19753.576
 20
  8975.357
 11
 19837.107
 21
  9160.595
  0
LINE
  8
3
 10
 19837.107
 20
  9160.595
 11
 19634.871
 21
  9140.279
  0
LINE
  8
3
 10
 22738.689
 20
  9273.869
 11
 22619.982
 21
  9438.790
  0
LINE
  8
3
 10
 22738.689
 20
  9273.869
 11
 22822.219
 21
  9459.106
  0
LINE
  8
3
 10
 22822.219
 20
  9459.106
 11
 22619.982
 21
  9438.790
  0
LINE
  8
3
 10
 25723.801
 20
  9572.380
 11
 25605.094
 21
  9737.302
  0
LINE
  8
3
 10
 25723.801
 20
  9572.380
 11
 25807.330
 21
  9757.617
  0
LINE
  8
3
 10
 25807.330
 20
  9757.617
 11
 25605.094
 21
  9737.302
  0
LINE
  8
3
 10
 28708.910
 20
  9870.891
 11
 28590.205
 21
 10035.812
  0
LINE
  8
3
 10
 28708.910
 20
  9870.891
 11
 28792.441
 21
 10056.128
  0
LINE
  8
3
 10
 28792.441
 20
 10056.128
 11
 28590.205
 21
 10035.812
  0
LINE
  8
3
 10
 30201.467
 20
 10020.146
 11
 30082.762
 21
 10185.068
  0
LINE
  8
3
 10
 30201.467
 20
 10020.146
 11
 30284.998
 21
 10205.384
  0
LINE
  8
3
 10
 30284.998
 20
 10205.384
 11
 30082.762
 21
 10185.068
  0
LINE
  8
3
 10
  1842.908
 20
  7184.290
 11
  1724.202
 21
  7349.212
  0
LINE
  8
3
 10
  1842.908
 20
  7184.290
 11
  1926.438
 21
  7369.527
  0
LINE
  8
3
 10
  1926.438
 20
  7369.527
 11
  1724.202
 21
  7349.212
  0
LINE
  8
3
 10
  4828.021
 20
  7482.801
 11
  4709.314
 21
  7647.723
  0
LINE
  8
3
 10
  4828.021
 20
  7482.801
 11
  4911.550
 21
  7668.039
  0
LINE
  8
3
 10
  4911.550
 20
  7668.039
 11
  4709.314
 21
  7647.723
  0
LINE
  8
3
 10
  7813.132
 20
  7781.312
 11
  7694.426
 21
  7946.234
  0
LINE
  8
3
 10
  7813.132
 20
  7781.312
 11
  7896.662
 21
  7966.550
  0
LINE
  8
3
 10
  7896.662
 20
  7966.550
 11
  7694.426
 21
  7946.234
  0
LINE
  8
3
 10
 10798.243
 20
  8079.824
 11
 10679.537
 21
  8244.745
  0
LINE
  8
3
 10
 10798.243
 20
  8079.824
 11
 10881.772
 21
  8265.062
  0
LINE
  8
3
 10
 10881.772
 20
  8265.062
 11
 10679.537
 21
  8244.745
  0
LINE
  8
3
 10
 13783.354
 20
  8378.335
 11
 13664.647
 21
  8543.257
  0
LINE
  8
3
 10
 13783.354
 20
  8378.335
 11
 13866.884
 21
  8563.572
  0
LINE
  8
3
 10
 13866.884
 20
  8563.572
 11
 13664.647
 21
  8543.257
  0
LINE
  8
3
 10
 16768.467
 20
  8676.847
 11
 16649.760
 21
  8841.768
  0
LINE
  8
3
 10
 16768.467
 20
  8676.847
 11
 16851.996
 21
  8862.084
  0
LINE
  8
3
 10
 16851.996
 20
  8862.084
 11
 16649.760
 21
  8841.768
  0
LINE
  8
3
 10
 19753.576
 20
  8975.357
 11
 19634.871
 21
  9140.279
  0
LINE
  8
3
 10
 19753.576
 20
  8975.357
 11
 19837.107
 21
  9160.595
  0
LINE
  8
3
 10
 19837.107
 20
  9160.595
 11
 19634.871
 21
  9140.279
  0
LINE
  8
3
 10
 22738.689
 20
  9273.869
 11
 22619.982
 21
  9438.790
  0
LINE
  8
3
 10
 22738.689
 20
  9273.869
 11
 22822.219
 21
  9459.106
  0
LINE
  8
3
 10
 22822.219
 20
  9459.106
 11
 22619.982
 21
  9438.790
  0
LINE
  8
3
 10
 25723.801
 20
  9572.380
 11
 25605.094
 21
  9737.302
  0
LINE
  8
3
 10
 25723.801
 20
  9572.380
 11
 25807.330
 21
  9757.617
  0
LINE
  8
3
 10
 25807.330
 20
  9757.617
 11
 25605.094
 21
  9737.302
  0
LINE
  8
3
 10
 28708.910
 20
  9870.891
 11
 28590.205
 21
 10035.812
  0
LINE
  8
3
 10
 28708.910
 20
  9870.891
 11
 28792.441
 21
 10056.128
  0
LINE
  8
3
 10
 28792.441
 20
 10056.128
 11
 28590.205
 21
 10035.812
  0
LINE
  8
3
 10
 30201.467
 20
 10020.146
 11
 30082.762
 21
 10185.068
  0
LINE
  8
3
 10
 30201.467
 20
 10020.146
 11
 30284.998
 21
 10205.384
  0
LINE
  8
3
 10
 30284.998
 20
 10205.384
 11
 30082.762
 21
 10185.068
  0
LINE
  8
3
 10
 30798.514
 20
 10020.148
 11
 30714.816
 21
 10205.311
  0
LINE
  8
3
 10
 30798.514
 20
 10020.148
 11
 30917.070
 21
 10185.178
  0
LINE
  8
3
 10
 30917.070
 20
 10185.178
 11
 30714.816
 21
 10205.311
  0
LINE
  8
3
 10
 32291.070
 20
  9870.894
 11
 32207.373
 21
 10056.056
  0
LINE
  8
3
 10
 32291.070
 20
  9870.894
 11
 32409.627
 21
 10035.923
  0
LINE
  8
3
 10
 32409.627
 20
 10035.923
 11
 32207.373
 21
 10056.056
  0
LINE
  8
3
 10
 35276.180
 20
  9572.382
 11
 35192.484
 21
  9757.545
  0
LINE
  8
3
 10
 35276.180
 20
  9572.382
 11
 35394.738
 21
  9737.412
  0
LINE
  8
3
 10
 35394.738
 20
  9737.412
 11
 35192.484
 21
  9757.545
  0
LINE
  8
3
 10
 38261.293
 20
  9273.871
 11
 38177.594
 21
  9459.033
  0
LINE
  8
3
 10
 38261.293
 20
  9273.871
 11
 38379.848
 21
  9438.900
  0
LINE
  8
3
 10
 38379.848
 20
  9438.900
 11
 38177.594
 21
  9459.033
  0
LINE
  8
3
 10
 41246.402
 20
  8975.359
 11
 41162.707
 21
  9160.522
  0
LINE
  8
3
 10
 41246.402
 20
  8975.359
 11
 41364.961
 21
  9140.390
  0
LINE
  8
3
 10
 41364.961
 20
  9140.390
 11
 41162.707
 21
  9160.522
  0
LINE
  8
3
 10
 44231.512
 20
  8676.849
 11
 44147.816
 21
  8862.011
  0
LINE
  8
3
 10
 44231.512
 20
  8676.849
 11
 44350.070
 21
  8841.878
  0
LINE
  8
3
 10
 44350.070
 20
  8841.878
 11
 44147.816
 21
  8862.011
  0
LINE
  8
3
 10
 47216.629
 20
  8378.337
 11
 47132.930
 21
  8563.500
  0
LINE
  8
3
 10
 47216.629
 20
  8378.337
 11
 47335.184
 21
  8543.367
  0
LINE
  8
3
 10
 47335.184
 20
  8543.367
 11
 47132.930
 21
  8563.500
  0
LINE
  8
3
 10
 50201.738
 20
  8079.826
 11
 50118.039
 21
  8264.988
  0
LINE
  8
3
 10
 50201.738
 20
  8079.826
 11
 50320.297
 21
  8244.855
  0
LINE
  8
3
 10
 50320.297
 20
  8244.855
 11
 50118.039
 21
  8264.988
  0
LINE
  8
3
 10
 53186.848
 20
  7781.315
 11
 53103.152
 21
  7966.477
  0
LINE
  8
3
 10
 53186.848
 20
  7781.315
 11
 53305.402
 21
  7946.344
  0
LINE
  8
3
 10
 53305.402
 20
  7946.344
 11
 53103.152
 21
  7966.477
  0
LINE
  8
3
 10
 56171.961
 20
  7482.804
 11
 56088.266
 21
  7667.966
  0
LINE
  8
3
 10
 56171.961
 20
  7482.804
 11
 56290.516
 21
  7647.833
  0
LINE
  8
3
 10
 56290.516
 20
  7647.833
 11
 56088.266
 21
  7667.966
  0
LINE
  8
3
 10
 59157.070
 20
  7184.292
 11
 59073.375
 21
  7369.455
  0
LINE
  8
3
 10
 59157.070
 20
  7184.292
 11
 59275.625
 21
  7349.322
  0
LINE
  8
3
 10
 59275.625
 20
  7349.322
 11
 59073.375
 21
  7369.455
  0
LINE
  8
3
 10
 30798.514
 20
 10020.148
 11
 30714.816
 21
 10205.311
  0
LINE
  8
3
 10
 30798.514
 20
 10020.148
 11
 30917.070
 21
 10185.178
  0
LINE
  8
3
 10
 30917.070
 20
 10185.178
 11
 30714.816
 21
 10205.311
  0
LINE
  8
3
 10
 32291.070
 20
  9870.894
 11
 32207.373
 21
 10056.056
  0
LINE
  8
3
 10
 32291.070
 20
  9870.894
 11
 32409.627
 21
 10035.923
  0
LINE
  8
3
 10
 32409.627
 20
 10035.923
 11
 32207.373
 21
 10056.056
  0
LINE
  8
3
 10
 35276.180
 20
  9572.382
 11
 35192.484
 21
  9757.545
  0
LINE
  8
3
 10
 35276.180
 20
  9572.382
 11
 35394.738
 21
  9737.412
  0
LINE
  8
3
 10
 35394.738
 20
  9737.412
 11
 35192.484
 21
  9757.545
  0
LINE
  8
3
 10
 38261.293
 20
  9273.871
 11
 38177.594
 21
  9459.033
  0
LINE
  8
3
 10
 38261.293
 20
  9273.871
 11
 38379.848
 21
  9438.900
  0
LINE
  8
3
 10
 38379.848
 20
  9438.900
 11
 38177.594
 21
  9459.033
  0
LINE
  8
3
 10
 41246.402
 20
  8975.359
 11
 41162.707
 21
  9160.522
  0
LINE
  8
3
 10
 41246.402
 20
  8975.359
 11
 41364.961
 21
  9140.390
  0
LINE
  8
3
 10
 41364.961
 20
  9140.390
 11
 41162.707
 21
  9160.522
  0
LINE
  8
3
 10
 44231.512
 20
  8676.849
 11
 44147.816
 21
  8862.011
  0
LINE
  8
3
 10
 44231.512
 20
  8676.849
 11
 44350.070
 21
  8841.878
  0
LINE
  8
3
 10
 44350.070
 20
  8841.878
 11
 44147.816
 21
  8862.011
  0
LINE
  8
3
 10
 47216.629
 20
  8378.337
 11
 47132.930
 21
  8563.500
  0
LINE
  8
3
 10
 47216.629
 20
  8378.337
 11
 47335.184
 21
  8543.367
  0
LINE
  8
3
 10
 47335.184
 20
  8543.367
 11
 47132.930
 21
  8563.500
  0
LINE
  8
3
 10
 50201.738
 20
  8079.826
 11
 50118.039
 21
  8264.988
  0
LINE
  8
3
 10
 50201.738
 20
  8079.826
 11
 50320.297
 21
  8244.855
  0
LINE
  8
3
 10
 50320.297
 20
  8244.855
 11
 50118.039
 21
  8264.988
  0
LINE
  8
3
 10
 53186.848
 20
  7781.315
 11
 53103.152
 21
  7966.477
  0
LINE
  8
3
 10
 53186.848
 20
  7781.315
 11
 53305.402
 21
  7946.344
  0
LINE
  8
3
 10
 53305.402
 20
  7946.344
 11
 53103.152
 21
  7966.477
  0
LINE
  8
3
 10
 56171.961
 20
  7482.804
 11
 56088.266
 21
  7667.966
  0
LINE
  8
3
 10
 56171.961
 20
  7482.804
 11
 56290.516
 21
  7647.833
  0
LINE
  8
3
 10
 56290.516
 20
  7647.833
 11
 56088.266
 21
  7667.966
  0
LINE
  8
3
 10
 59157.070
 20
  7184.292
 11
 59073.375
 21
  7369.455
  0
LINE
  8
3
 10
 59157.070
 20
  7184.292
 11
 59275.625
 21
  7349.322
  0
LINE
  8
3
 10
 59275.625
 20
  7349.322
 11
 59073.375
 21
  7369.455
  0
LINE
  8
3
 10
 61000.004
 20
  3680.000
 11
 61175.918
 21
  3781.707
  0
LINE
  8
3
 10
 61000.004
 20
  3680.000
 11
 61176.012
 21
  3578.453
  0
LINE
  8
3
 10
 61176.012
 20
  3578.453
 11
 61175.918
 21
  3781.707
  0
LINE
  8
3
 10
 61000.004
 20
  3680.000
 11
 61175.918
 21
  3781.707
  0
LINE
  8
3
 10
 61000.004
 20
  3680.000
 11
 61176.012
 21
  3578.453
  0
LINE
  8
3
 10
 61176.012
 20
  3578.453
 11
 61175.918
 21
  3781.707
  0
LINE
  8
5
 10
   350.353
 20
  7035.035
 11
   370.253
 21
  6836.028
  0
LINE
  8
5
 10
  1842.908
 20
  7184.290
 11
  1862.809
 21
  6985.283
  0
LINE
  8
5
 10
  3335.464
 20
  7333.546
 11
  3355.365
 21
  7134.539
  0
LINE
  8
5
 10
  4828.021
 20
  7482.801
 11
  4847.921
 21
  7283.794
  0
LINE
  8
5
 10
  6320.576
 20
  7632.057
 11
  6340.477
 21
  7433.050
  0
LINE
  8
5
 10
  7813.132
 20
  7781.312
 11
  7833.033
 21
  7582.305
  0
LINE
  8
5
 10
  9305.688
 20
  7930.568
 11
  9325.589
 21
  7731.562
  0
LINE
  8
5
 10
 10798.243
 20
  8079.824
 11
 10818.145
 21
  7880.816
  0
LINE
  8
5
 10
 12290.799
 20
  8229.079
 11
 12310.699
 21
  8030.072
  0
LINE
  8
5
 10
 13783.354
 20
  8378.335
 11
 13803.255
 21
  8179.328
  0
LINE
  8
5
 10
 15275.911
 20
  8527.591
 11
 15295.812
 21
  8328.584
  0
LINE
  8
5
 10
 16768.467
 20
  8676.847
 11
 16788.367
 21
  8477.839
  0
LINE
  8
5
 10
 18261.021
 20
  8826.102
 11
 18280.922
 21
  8627.094
  0
LINE
  8
5
 10
 19753.576
 20
  8975.357
 11
 19773.479
 21
  8776.351
  0
LINE
  8
5
 10
 21246.133
 20
  9124.613
 11
 21266.033
 21
  8925.606
  0
LINE
  8
5
 10
 22738.689
 20
  9273.869
 11
 22758.590
 21
  9074.861
  0
LINE
  8
5
 10
 24231.244
 20
  9423.124
 11
 24251.146
 21
  9224.116
  0
LINE
  8
5
 10
 25723.801
 20
  9572.380
 11
 25743.701
 21
  9373.373
  0
LINE
  8
5
 10
 27216.357
 20
  9721.635
 11
 27236.256
 21
  9522.628
  0
LINE
  8
5
 10
 28708.910
 20
  9870.891
 11
 28728.811
 21
  9671.883
  0
LINE
  8
5
 10
 30201.467
 20
 10020.146
 11
 30221.367
 21
  9821.139
  0
LINE
  8
5
 10
 30798.514
 20
 10020.148
 11
 30778.613
 21
  9821.142
  0
LINE
  8
5
 10
 32291.070
 20
  9870.894
 11
 32271.170
 21
  9671.887
  0
LINE
  8
5
 10
 33783.625
 20
  9721.638
 11
 33763.727
 21
  9522.630
  0
LINE
  8
5
 10
 35276.180
 20
  9572.382
 11
 35256.281
 21
  9373.375
  0
LINE
  8
5
 10
 36768.734
 20
  9423.127
 11
 36748.836
 21
  9224.120
  0
LINE
  8
5
 10
 38261.293
 20
  9273.871
 11
 38241.391
 21
  9074.864
  0
LINE
  8
5
 10
 39753.848
 20
  9124.616
 11
 39733.945
 21
  8925.608
  0
LINE
  8
5
 10
 41246.402
 20
  8975.359
 11
 41226.504
 21
  8776.353
  0
LINE
  8
5
 10
 42738.961
 20
  8826.104
 11
 42719.059
 21
  8627.098
  0
LINE
  8
5
 10
 44231.512
 20
  8676.849
 11
 44211.613
 21
  8477.842
  0
LINE
  8
5
 10
 45724.074
 20
  8527.594
 11
 45704.176
 21
  8328.586
  0
LINE
  8
5
 10
 47216.629
 20
  8378.337
 11
 47196.727
 21
  8179.330
  0
LINE
  8
5
 10
 48709.180
 20
  8229.082
 11
 48689.281
 21
  8030.075
  0
LINE
  8
5
 10
 50201.738
 20
  8079.826
 11
 50181.840
 21
  7880.819
  0
LINE
  8
5
 10
 51694.297
 20
  7930.571
 11
 51674.395
 21
  7731.563
  0
LINE
  8
5
 10
 53186.848
 20
  7781.315
 11
 53166.949
 21
  7582.308
  0
LINE
  8
5
 10
 54679.402
 20
  7632.060
 11
 54659.504
 21
  7433.052
  0
LINE
  8
5
 10
 56171.961
 20
  7482.804
 11
 56152.062
 21
  7283.796
  0
LINE
  8
5
 10
 57664.523
 20
  7333.547
 11
 57644.625
 21
  7134.541
  0
LINE
  8
5
 10
 59157.070
 20
  7184.292
 11
 59137.172
 21
  6985.285
  0
LINE
  8
5
 10
 60649.629
 20
  7035.037
 11
 60629.730
 21
  6836.030
  0
LINE
  8
5
 10
   642.228
 20
  3680.000
 11
   705.728
 21
  3680.000
  0
LINE
  8
5
 10
   642.228
 20
  3680.000
 11
   705.728
 21
  3680.000
  0
LINE
  8
5
 10
  1897.917
 20
  6634.208
 11
  1904.235
 21
  6571.023
  0
LINE
  8
5
 10
  4886.013
 20
  6902.875
 11
  4892.331
 21
  6839.690
  0
LINE
  8
5
 10
  7878.568
 20
  7126.957
 11
  7884.887
 21
  7063.772
  0
LINE
  8
5
 10
 10868.145
 20
  7380.810
 11
 10874.463
 21
  7317.625
  0
LINE
  8
5
 10
 13853.255
 20
  7679.321
 11
 13859.574
 21
  7616.137
  0
LINE
  8
5
 10
 16835.373
 20
  8007.783
 11
 16841.691
 21
  7944.599
  0
LINE
  8
5
 10
 19812.994
 20
  8381.172
 11
 19819.314
 21
  8317.987
  0
LINE
  8
5
 10
 22803.883
 20
  8621.945
 11
 22810.201
 21
  8558.761
  0
LINE
  8
5
 10
 25814.117
 20
  8669.231
 11
 25820.436
 21
  8606.047
  0
LINE
  8
5
 10
 28826.363
 20
  8696.352
 11
 28832.684
 21
  8633.167
  0
LINE
  8
5
 10
 30333.848
 20
  8696.352
 11
 30340.166
 21
  8633.167
  0
LINE
  8
5
 10
  1897.917
 20
  6634.208
 11
  1904.235
 21
  6571.023
  0
LINE
  8
5
 10
  4886.013
 20
  6902.875
 11
  4892.331
 21
  6839.690
  0
LINE
  8
5
 10
  7878.568
 20
  7126.957
 11
  7884.887
 21
  7063.772
  0
LINE
  8
5
 10
 10868.145
 20
  7380.810
 11
 10874.463
 21
  7317.625
  0
LINE
  8
5
 10
 13853.255
 20
  7679.321
 11
 13859.574
 21
  7616.137
  0
LINE
  8
5
 10
 16835.373
 20
  8007.783
 11
 16841.691
 21
  7944.599
  0
LINE
  8
5
 10
 19812.994
 20
  8381.172
 11
 19819.314
 21
  8317.987
  0
LINE
  8
5
 10
 22803.883
 20
  8621.945
 11
 22810.201
 21
  8558.761
  0
LINE
  8
5
 10
 25814.117
 20
  8669.231
 11
 25820.436
 21
  8606.047
  0
LINE
  8
5
 10
 28826.363
 20
  8696.352
 11
 28832.684
 21
  8633.167
  0
LINE
  8
5
 10
 30333.848
 20
  8696.352
 11
 30340.166
 21
  8633.167
  0
LINE
  8
5
 10
 30666.135
 20
  8696.352
 11
 30659.814
 21
  8633.167
  0
LINE
  8
5
 10
 32173.617
 20
  8696.352
 11
 32167.299
 21
  8633.167
  0
LINE
  8
5
 10
 35185.867
 20
  8669.228
 11
 35179.547
 21
  8606.043
  0
LINE
  8
5
 10
 38196.098
 20
  8621.945
 11
 38189.781
 21
  8558.761
  0
LINE
  8
5
 10
 41186.984
 20
  8381.175
 11
 41180.664
 21
  8317.990
  0
LINE
  8
5
 10
 44164.605
 20
  8007.786
 11
 44158.285
 21
  7944.602
  0
LINE
  8
5
 10
 47146.723
 20
  7679.323
 11
 47140.406
 21
  7616.139
  0
LINE
  8
5
 10
 50131.836
 20
  7380.812
 11
 50125.516
 21
  7317.627
  0
LINE
  8
5
 10
 53121.414
 20
  7126.958
 11
 53115.094
 21
  7063.774
  0
LINE
  8
5
 10
 56113.969
 20
  6902.877
 11
 56107.648
 21
  6839.692
  0
LINE
  8
5
 10
 59102.066
 20
  6634.209
 11
 59095.746
 21
  6571.025
  0
LINE
  8
5
 10
 30666.135
 20
  8696.352
 11
 30659.814
 21
  8633.167
  0
LINE
  8
5
 10
 32173.617
 20
  8696.352
 11
 32167.299
 21
  8633.167
  0
LINE
  8
5
 10
 35185.867
 20
  8669.228
 11
 35179.547
 21
  8606.043
  0
LINE
  8
5
 10
 38196.098
 20
  8621.945
 11
 38189.781
 21
  8558.761
  0
LINE
  8
5
 10
 41186.984
 20
  8381.175
 11
 41180.664
 21
  8317.990
  0
LINE
  8
5
 10
 44164.605
 20
  8007.786
 11
 44158.285
 21
  7944.602
  0
LINE
  8
5
 10
 47146.723
 20
  7679.323
 11
 47140.406
 21
  7616.139
  0
LINE
  8
5
 10
 50131.836
 20
  7380.812
 11
 50125.516
 21
  7317.627
  0
LINE
  8
5
 10
 53121.414
 20
  7126.958
 11
 53115.094
 21
  7063.774
  0
LINE
  8
5
 10
 56113.969
 20
  6902.877
 11
 56107.648
 21
  6839.692
  0
LINE
  8
5
 10
 59102.066
 20
  6634.209
 11
 59095.746
 21
  6571.025
  0
LINE
  8
5
 10
 60357.773
 20
  3680.000
 11
 60294.273
 21
  3680.000
  0
LINE
  8
5
 10
 60357.773
 20
  3680.000
 11
 60294.273
 21
  3680.000
  0
LINE
  8
17
 10
   143.650
 20
     0.000
 11
   156.350
 21
     0.000
  0
LINE
  8
17
 10
   150.000
 20
    -6.350
 11
   150.000
 21
     6.350
  0
LINE
  8
17
 10
   510.796
 20
     0.000
 11
   523.496
 21
     0.000
  0
LINE
  8
17
 10
   517.146
 20
    -6.350
 11
   517.146
 21
     6.350
  0
LINE
  8
17
 10
   862.758
 20
  6456.736
 11
   875.458
 21
  6456.736
  0
LINE
  8
17
 10
   869.108
 20
  6450.386
 11
   869.108
 21
  6463.086
  0
LINE
  8
17
 10
   143.650
 20
  6456.736
 11
   156.350
 21
  6456.736
  0
LINE
  8
17
 10
   150.000
 20
  6450.386
 11
   150.000
 21
  6463.086
  0
LINE
  8
1
 10
   831.258
 20
  6835.347
 11
   867.080
 21
  6477.134
  0
LINE
  8
1
 10
   823.298
 20
  6834.552
 11
   859.119
 21
  6476.338
  0
LINE
  8
1
 10
   831.258
 20
  6835.347
 11
   823.298
 21
  6834.552
  0
LINE
  8
1
 10
   867.080
 20
  6477.134
 11
   859.119
 21
  6476.338
  0
LINE
  8
17
 10
   133.650
 20
  6456.736
 11
   146.350
 21
  6456.736
  0
LINE
  8
17
 10
   140.000
 20
  6450.386
 11
   140.000
 21
  6463.086
  0
LINE
  8
17
 10
   950.740
 20
  6456.736
 11
   963.440
 21
  6456.736
  0
LINE
  8
17
 10
   957.090
 20
  6450.386
 11
   957.090
 21
  6463.086
  0
LINE
  8
17
 10
  9674.863
 20
  7190.258
 11
  9687.563
 21
  7190.258
  0
LINE
  8
17
 10
  9681.214
 20
  7183.908
 11
  9681.214
 21
  7196.608
  0
LINE
  8
17
 10
  9618.545
 20
  7753.452
 11
  9631.244
 21
  7753.452
  0
LINE
  8
17
 10
  9624.895
 20
  7747.102
 11
  9624.895
 21
  7759.801
  0
LINE
  8
17
 10
   133.650
 20
  6813.002
 11
   146.350
 21
  6813.002
  0
LINE
  8
17
 10
   140.000
 20
  6806.652
 11
   140.000
 21
  6819.352
  0
LINE
  8
17
 10
  9618.346
 20
  7755.442
 11
  9631.045
 21
  7755.442
  0
LINE
  8
17
 10
  9624.695
 20
  7749.092
 11
  9624.695
 21
  7761.792
  0
LINE
  8
17
 10
  9674.664
 20
  7192.251
 11
  9687.364
 21
  7192.251
  0
LINE
  8
17
 10
  9681.015
 20
  7185.901
 11
  9681.015
 21
  7198.601
  0
LINE
  8
17
 10
 15644.889
 20
  7789.273
 11
 15657.588
 21
  7789.273
  0
LINE
  8
17
 10
 15651.238
 20
  7782.923
 11
 15651.238
 21
  7795.623
  0
LINE
  8
17
 10
 15588.569
 20
  8352.465
 11
 15601.270
 21
  8352.465
  0
LINE
  8
17
 10
 15594.919
 20
  8346.114
 11
 15594.919
 21
  8358.814
  0
LINE
  8
17
 10
 15588.770
 20
  8350.474
 11
 15601.469
 21
  8350.474
  0
LINE
  8
17
 10
 15595.119
 20
  8344.124
 11
 15595.119
 21
  8356.824
  0
LINE
  8
17
 10
 15645.088
 20
  7787.280
 11
 15657.788
 21
  7787.280
  0
LINE
  8
17
 10
 15651.438
 20
  7780.930
 11
 15651.438
 21
  7793.630
  0
LINE
  8
17
 10
 27542.055
 20
  8623.189
 11
 27554.756
 21
  8623.189
  0
LINE
  8
17
 10
 27548.404
 20
  8616.839
 11
 27548.404
 21
  8629.539
  0
LINE
  8
17
 10
 27450.705
 20
  9536.668
 11
 27463.406
 21
  9536.668
  0
LINE
  8
17
 10
 27457.055
 20
  9530.318
 11
 27457.055
 21
  9543.019
  0
LINE
  8
1
 10
 30094.303
 20
  9683.167
 11
 30094.303
 21
  8633.167
  0
LINE
  8
1
 10
 30086.303
 20
  9683.167
 11
 30086.303
 21
  8633.167
  0
LINE
  8
1
 10
 30094.303
 20
  9683.167
 11
 30086.303
 21
  9683.167
  0
LINE
  8
1
 10
 30094.303
 20
  8633.167
 11
 30086.303
 21
  8633.167
  0
LINE
  8
1
 10
 30913.699
 20
  9683.167
 11
 30913.699
 21
  8633.167
  0
LINE
  8
1
 10
 30905.701
 20
  9683.167
 11
 30905.701
 21
  8633.167
  0
LINE
  8
1
 10
 30913.699
 20
  9683.167
 11
 30905.701
 21
  9683.167
  0
LINE
  8
1
 10
 30913.699
 20
  8633.167
 11
 30905.701
 21
  8633.167
  0
LINE
  8
17
 10
 27450.508
 20
  9538.659
 11
 27463.207
 21
  9538.659
  0
LINE
  8
17
 10
 27456.857
 20
  9532.309
 11
 27456.857
 21
  9545.009
  0
LINE
  8
17
 10
 27542.059
 20
  8623.167
 11
 27554.758
 21
  8623.167
  0
LINE
  8
17
 10
 27548.408
 20
  8616.816
 11
 27548.408
 21
  8629.517
  0
LINE
  8
17
 10
 33445.324
 20
  8623.167
 11
 33458.023
 21
  8623.167
  0
LINE
  8
17
 10
 33451.672
 20
  8616.816
 11
 33451.672
 21
  8629.517
  0
LINE
  8
17
 10
 33536.875
 20
  9538.651
 11
 33549.574
 21
  9538.651
  0
LINE
  8
17
 10
 33543.223
 20
  9532.301
 11
 33543.223
 21
  9545.001
  0
LINE
  8
17
 10
 33536.676
 20
  9536.660
 11
 33549.375
 21
  9536.660
  0
LINE
  8
17
 10
 33543.023
 20
  9530.311
 11
 33543.023
 21
  9543.011
  0
LINE
  8
17
 10
 33445.324
 20
  8623.182
 11
 33458.027
 21
  8623.182
  0
LINE
  8
17
 10
 33451.676
 20
  8616.831
 11
 33451.676
 21
  8629.531
  0
LINE
  8
17
 10
 45342.191
 20
  7787.283
 11
 45354.895
 21
  7787.283
  0
LINE
  8
17
 10
 45348.543
 20
  7780.933
 11
 45348.543
 21
  7793.633
  0
LINE
  8
17
 10
 45398.516
 20
  8350.477
 11
 45411.215
 21
  8350.477
  0
LINE
  8
17
 10
 45404.863
 20
  8344.126
 11
 45404.863
 21
  8356.826
  0
LINE
  8
17
 10
 45398.715
 20
  8352.467
 11
 45411.414
 21
  8352.467
  0
LINE
  8
17
 10
 45405.062
 20
  8346.117
 11
 45405.062
 21
  8358.816
  0
LINE
  8
17
 10
 45342.391
 20
  7789.275
 11
 45355.090
 21
  7789.275
  0
LINE
  8
17
 10
 45348.742
 20
  7782.926
 11
 45348.742
 21
  7795.625
  0
LINE
  8
17
 10
 51312.613
 20
  7192.253
 11
 51325.312
 21
  7192.253
  0
LINE
  8
17
 10
 51318.965
 20
  7185.903
 11
 51318.965
 21
  7198.603
  0
LINE
  8
17
 10
 51368.934
 20
  7755.444
 11
 51381.637
 21
  7755.444
  0
LINE
  8
17
 10
 51375.285
 20
  7749.094
 11
 51375.285
 21
  7761.794
  0
LINE
  8
1
 10
 60176.703
 20
  6834.552
 11
 60140.879
 21
  6476.338
  0
LINE
  8
1
 10
 60168.742
 20
  6835.347
 11
 60132.918
 21
  6477.134
  0
LINE
  8
1
 10
 60176.703
 20
  6834.552
 11
 60168.742
 21
  6835.347
  0
LINE
  8
1
 10
 60140.879
 20
  6476.338
 11
 60132.918
 21
  6477.134
  0
LINE
  8
17
 10
 51368.738
 20
  7753.454
 11
 51381.438
 21
  7753.454
  0
LINE
  8
17
 10
 51375.086
 20
  7747.104
 11
 51375.086
 21
  7759.804
  0
LINE
  8
17
 10
 51312.414
 20
  7190.260
 11
 51325.113
 21
  7190.260
  0
LINE
  8
17
 10
 51318.766
 20
  7183.910
 11
 51318.766
 21
  7196.610
  0
LINE
  8
17
 10
 60036.559
 20
  6456.736
 11
 60049.258
 21
  6456.736
  0
LINE
  8
17
 10
 60042.906
 20
  6450.386
 11
 60042.906
 21
  6463.086
  0
LINE
  8
17
 10
 60853.648
 20
  6456.736
 11
 60866.348
 21
  6456.736
  0
LINE
  8
17
 10
 60860.000
 20
  6450.386
 11
 60860.000
 21
  6463.086
  0
LINE
  8
17
 10
 60853.648
 20
  6813.002
 11
 60866.348
 21
  6813.002
  0
LINE
  8
17
 10
 60860.000
 20
  6806.652
 11
 60860.000
 21
  6819.352
  0
LINE
  8
17
 10
 60843.652
 20
  6456.736
 11
 60856.352
 21
  6456.736
  0
LINE
  8
17
 10
 60850.004
 20
  6450.386
 11
 60850.004
 21
  6463.086
  0
LINE
  8
17
 10
 60124.539
 20
  6456.736
 11
 60137.238
 21
  6456.736
  0
LINE
  8
17
 10
 60130.891
 20
  6450.386
 11
 60130.891
 21
  6463.086
  0
LINE
  8
17
 10
 60476.508
 20
     0.000
 11
 60489.207
 21
     0.000
  0
LINE
  8
17
 10
 60482.855
 20
    -6.350
 11
 60482.855
 21
     6.350
  0
LINE
  8
17
 10
 60843.652
 20
    -0.000
 11
 60856.352
 21
    -0.000
  0
LINE
  8
17
 10
 60850.004
 20
    -6.350
 11
 60850.004
 21
     6.350
  0
LINE
  8
1
 10
 30090.303
 20
  8473.167
 11
 29970.303
 21
  8593.167
  0
LINE
  8
1
 10
 29970.303
 20
  8593.167
 11
 29970.303
 21
  8593.167
  0
LINE
  8
1
 10
 30909.701
 20
  8473.167
 11
 31029.699
 21
  8593.167
  0
LINE
  8
1
 10
 31029.699
 20
  8593.167
 11
 31029.699
 21
  8593.167
  0
LINE
  8
5
 10
   350.353
 20
  7035.035
 11
   370.253
 21
  6836.028
  0
LINE
  8
5
 10
  1842.908
 20
  7184.290
 11
  1862.809
 21
  6985.283
  0
LINE
  8
5
 10
  3335.464
 20
  7333.546
 11
  3355.365
 21
  7134.539
  0
LINE
  8
5
 10
  4828.021
 20
  7482.801
 11
  4847.921
 21
  7283.794
  0
LINE
  8
5
 10
  6320.576
 20
  7632.057
 11
  6340.477
 21
  7433.050
  0
LINE
  8
5
 10
  7813.132
 20
  7781.312
 11
  7833.033
 21
  7582.305
  0
LINE
  8
5
 10
  9305.688
 20
  7930.568
 11
  9325.589
 21
  7731.562
  0
LINE
  8
5
 10
 10798.243
 20
  8079.824
 11
 10818.145
 21
  7880.816
  0
LINE
  8
5
 10
 12290.799
 20
  8229.079
 11
 12310.699
 21
  8030.072
  0
LINE
  8
5
 10
 13783.354
 20
  8378.335
 11
 13803.255
 21
  8179.328
  0
LINE
  8
5
 10
 15275.911
 20
  8527.591
 11
 15295.812
 21
  8328.584
  0
LINE
  8
5
 10
 16768.467
 20
  8676.847
 11
 16788.367
 21
  8477.839
  0
LINE
  8
5
 10
 18261.021
 20
  8826.102
 11
 18280.922
 21
  8627.094
  0
LINE
  8
5
 10
 19753.576
 20
  8975.357
 11
 19773.479
 21
  8776.351
  0
LINE
  8
5
 10
 21246.133
 20
  9124.613
 11
 21266.033
 21
  8925.606
  0
LINE
  8
5
 10
 22738.689
 20
  9273.869
 11
 22758.590
 21
  9074.861
  0
LINE
  8
5
 10
 24231.244
 20
  9423.124
 11
 24251.146
 21
  9224.116
  0
LINE
  8
5
 10
 25723.801
 20
  9572.380
 11
 25743.701
 21
  9373.373
  0
LINE
  8
5
 10
 27216.357
 20
  9721.635
 11
 27236.256
 21
  9522.628
  0
LINE
  8
5
 10
 28708.910
 20
  9870.891
 11
 28728.811
 21
  9671.883
  0
LINE
  8
5
 10
 30201.467
 20
 10020.146
 11
 30221.367
 21
  9821.139
  0
LINE
  8
5
 10
 30798.514
 20
 10020.148
 11
 30778.613
 21
  9821.142
  0
LINE
  8
5
 10
 32291.070
 20
  9870.894
 11
 32271.170
 21
  9671.887
  0
LINE
  8
5
 10
 33783.625
 20
  9721.638
 11
 33763.727
 21
  9522.630
  0
LINE
  8
5
 10
 35276.180
 20
  9572.382
 11
 35256.281
 21
  9373.375
  0
LINE
  8
5
 10
 36768.734
 20
  9423.127
 11
 36748.836
 21
  9224.120
  0
LINE
  8
5
 10
 38261.293
 20
  9273.871
 11
 38241.391
 21
  9074.864
  0
LINE
  8
5
 10
 39753.848
 20
  9124.616
 11
 39733.945
 21
  8925.608
  0
LINE
  8
5
 10
 41246.402
 20
  8975.359
 11
 41226.504
 21
  8776.353
  0
LINE
  8
5
 10
 42738.961
 20
  8826.104
 11
 42719.059
 21
  8627.098
  0
LINE
  8
5
 10
 44231.512
 20
  8676.849
 11
 44211.613
 21
  8477.842
  0
LINE
  8
5
 10
 45724.074
 20
  8527.594
 11
 45704.176
 21
  8328.586
  0
LINE
  8
5
 10
 47216.629
 20
  8378.337
 11
 47196.727
 21
  8179.330
  0
LINE
  8
5
 10
 48709.180
 20
  8229.082
 11
 48689.281
 21
  8030.075
  0
LINE
  8
5
 10
 50201.738
 20
  8079.826
 11
 50181.840
 21
  7880.819
  0
LINE
  8
5
 10
 51694.297
 20
  7930.571
 11
 51674.395
 21
  7731.563
  0
LINE
  8
5
 10
 53186.848
 20
  7781.315
 11
 53166.949
 21
  7582.308
  0
LINE
  8
5
 10
 54679.402
 20
  7632.060
 11
 54659.504
 21
  7433.052
  0
LINE
  8
5
 10
 56171.961
 20
  7482.804
 11
 56152.062
 21
  7283.796
  0
LINE
  8
5
 10
 57664.523
 20
  7333.547
 11
 57644.625
 21
  7134.541
  0
LINE
  8
5
 10
 59157.070
 20
  7184.292
 11
 59137.172
 21
  6985.285
  0
LINE
  8
5
 10
 60649.629
 20
  7035.037
 11
 60629.730
 21
  6836.030
  0
LINE
  8
5
 10
   642.228
 20
  3680.000
 11
   705.728
 21
  3680.000
  0
LINE
  8
5
 10
   642.228
 20
  3680.000
 11
   705.728
 21
  3680.000
  0
LINE
  8
5
 10
  1897.917
 20
  6634.208
 11
  1904.235
 21
  6571.023
  0
LINE
  8
5
 10
  4886.013
 20
  6902.875
 11
  4892.331
 21
  6839.690
  0
LINE
  8
5
 10
  7878.568
 20
  7126.957
 11
  7884.887
 21
  7063.772
  0
LINE
  8
5
 10
 10868.145
 20
  7380.810
 11
 10874.463
 21
  7317.625
  0
LINE
  8
5
 10
 13853.255
 20
  7679.321
 11
 13859.574
 21
  7616.137
  0
LINE
  8
5
 10
 16835.373
 20
  8007.783
 11
 16841.691
 21
  7944.599
  0
LINE
  8
5
 10
 19812.994
 20
  8381.172
 11
 19819.314
 21
  8317.987
  0
LINE
  8
5
 10
 22803.883
 20
  8621.945
 11
 22810.201
 21
  8558.761
  0
LINE
  8
5
 10
 25814.117
 20
  8669.231
 11
 25820.436
 21
  8606.047
  0
LINE
  8
5
 10
 28826.363
 20
  8696.352
 11
 28832.684
 21
  8633.167
  0
LINE
  8
5
 10
 30333.848
 20
  8696.352
 11
 30340.166
 21
  8633.167
  0
LINE
  8
5
 10
  1897.917
 20
  6634.208
 11
  1904.235
 21
  6571.023
  0
LINE
  8
5
 10
  4886.013
 20
  6902.875
 11
  4892.331
 21
  6839.690
  0
LINE
  8
5
 10
  7878.568
 20
  7126.957
 11
  7884.887
 21
  7063.772
  0
LINE
  8
5
 10
 10868.145
 20
  7380.810
 11
 10874.463
 21
  7317.625
  0
LINE
  8
5
 10
 13853.255
 20
  7679.321
 11
 13859.574
 21
  7616.137
  0
LINE
  8
5
 10
 16835.373
 20
  8007.783
 11
 16841.691
 21
  7944.599
  0
LINE
  8
5
 10
 19812.994
 20
  8381.172
 11
 19819.314
 21
  8317.987
  0
LINE
  8
5
 10
 22803.883
 20
  8621.945
 11
 22810.201
 21
  8558.761
  0
LINE
  8
5
 10
 25814.117
 20
  8669.231
 11
 25820.436
 21
  8606.047
  0
LINE
  8
5
 10
 28826.363
 20
  8696.352
 11
 28832.684
 21
  8633.167
  0
LINE
  8
5
 10
 30333.848
 20
  8696.352
 11
 30340.166
 21
  8633.167
  0
LINE
  8
5
 10
 30666.135
 20
  8696.352
 11
 30659.814
 21
  8633.167
  0
LINE
  8
5
 10
 32173.617
 20
  8696.352
 11
 32167.299
 21
  8633.167
  0
LINE
  8
5
 10
 35185.867
 20
  8669.228
 11
 35179.547
 21
  8606.043
  0
LINE
  8
5
 10
 38196.098
 20
  8621.945
 11
 38189.781
 21
  8558.761
  0
LINE
  8
5
 10
 41186.984
 20
  8381.175
 11
 41180.664
 21
  8317.990
  0
LINE
  8
5
 10
 44164.605
 20
  8007.786
 11
 44158.285
 21
  7944.602
  0
LINE
  8
5
 10
 47146.723
 20
  7679.323
 11
 47140.406
 21
  7616.139
  0
LINE
  8
5
 10
 50131.836
 20
  7380.812
 11
 50125.516
 21
  7317.627
  0
LINE
  8
5
 10
 53121.414
 20
  7126.958
 11
 53115.094
 21
  7063.774
  0
LINE
  8
5
 10
 56113.969
 20
  6902.877
 11
 56107.648
 21
  6839.692
  0
LINE
  8
5
 10
 59102.066
 20
  6634.209
 11
 59095.746
 21
  6571.025
  0
LINE
  8
5
 10
 30666.135
 20
  8696.352
 11
 30659.814
 21
  8633.167
  0
LINE
  8
5
 10
 32173.617
 20
  8696.352
 11
 32167.299
 21
  8633.167
  0
LINE
  8
5
 10
 35185.867
 20
  8669.228
 11
 35179.547
 21
  8606.043
  0
LINE
  8
5
 10
 38196.098
 20
  8621.945
 11
 38189.781
 21
  8558.761
  0
LINE
  8
5
 10
 41186.984
 20
  8381.175
 11
 41180.664
 21
  8317.990
  0
LINE
  8
5
 10
 44164.605
 20
  8007.786
 11
 44158.285
 21
  7944.602
  0
LINE
  8
5
 10
 47146.723
 20
  7679.323
 11
 47140.406
 21
  7616.139
  0
LINE
  8
5
 10
 50131.836
 20
  7380.812
 11
 50125.516
 21
  7317.627
  0
LINE
  8
5
 10
 53121.414
 20
  7126.958
 11
 53115.094
 21
  7063.774
  0
LINE
  8
5
 10
 56113.969
 20
  6902.877
 11
 56107.648
 21
  6839.692
  0
LINE
  8
5
 10
 59102.066
 20
  6634.209
 11
 59095.746
 21
  6571.025
  0
LINE
  8
5
 10
 60357.773
 20
  3680.000
 11
 60294.273
 21
  3680.000
  0
LINE
  8
5
 10
 60357.773
 20
  3680.000
 11
 60294.273
 21
  3680.000
  0
LINE
  8
17
 10
   143.650
 20
     0.000
 11
   156.350
 21
     0.000
  0
LINE
  8
17
 10
   150.000
 20
    -6.350
 11
   150.000
 21
     6.350
  0
LINE
  8
17
 10
   510.796
 20
     0.000
 11
   523.496
 21
     0.000
  0
LINE
  8
17
 10
   517.146
 20
    -6.350
 11
   517.146
 21
     6.350
  0
LINE
  8
17
 10
   862.758
 20
  6456.736
 11
   875.458
 21
  6456.736
  0
LINE
  8
17
 10
   869.108
 20
  6450.386
 11
   869.108
 21
  6463.086
  0
LINE
  8
17
 10
   143.650
 20
  6456.736
 11
   156.350
 21
  6456.736
  0
LINE
  8
17
 10
   150.000
 20
  6450.386
 11
   150.000
 21
  6463.086
  0
LINE
  8
1
 10
   831.258
 20
  6835.347
 11
   867.080
 21
  6477.134
  0
LINE
  8
1
 10
   823.298
 20
  6834.552
 11
   859.119
 21
  6476.338
  0
LINE
  8
1
 10
   831.258
 20
  6835.347
 11
   823.298
 21
  6834.552
  0
LINE
  8
1
 10
   867.080
 20
  6477.134
 11
   859.119
 21
  6476.338
  0
LINE
  8
17
 10
   133.650
 20
  6456.736
 11
   146.350
 21
  6456.736
  0
LINE
  8
17
 10
   140.000
 20
  6450.386
 11
   140.000
 21
  6463.086
  0
LINE
  8
17
 10
   950.740
 20
  6456.736
 11
   963.440
 21
  6456.736
  0
LINE
  8
17
 10
   957.090
 20
  6450.386
 11
   957.090
 21
  6463.086
  0
LINE
  8
17
 10
  9674.863
 20
  7190.258
 11
  9687.563
 21
  7190.258
  0
LINE
  8
17
 10
  9681.214
 20
  7183.908
 11
  9681.214
 21
  7196.608
  0
LINE
  8
17
 10
  9618.545
 20
  7753.452
 11
  9631.244
 21
  7753.452
  0
LINE
  8
17
 10
  9624.895
 20
  7747.102
 11
  9624.895
 21
  7759.801
  0
LINE
  8
17
 10
   133.650
 20
  6813.002
 11
   146.350
 21
  6813.002
  0
LINE
  8
17
 10
   140.000
 20
  6806.652
 11
   140.000
 21
  6819.352
  0
LINE
  8
17
 10
  9618.346
 20
  7755.442
 11
  9631.045
 21
  7755.442
  0
LINE
  8
17
 10
  9624.695
 20
  7749.092
 11
  9624.695
 21
  7761.792
  0
LINE
  8
17
 10
  9674.664
 20
  7192.251
 11
  9687.364
 21
  7192.251
  0
LINE
  8
17
 10
  9681.015
 20
  7185.901
 11
  9681.015
 21
  7198.601
  0
LINE
  8
17
 10
 15644.889
 20
  7789.273
 11
 15657.588
 21
  7789.273
  0
LINE
  8
17
 10
 15651.238
 20
  7782.923
 11
 15651.238
 21
  7795.623
  0
LINE
  8
17
 10
 15588.569
 20
  8352.465
 11
 15601.270
 21
  8352.465
  0
LINE
  8
17
 10
 15594.919
 20
  8346.114
 11
 15594.919
 21
  8358.814
  0
LINE
  8
17
 10
 15588.770
 20
  8350.474
 11
 15601.469
 21
  8350.474
  0
LINE
  8
17
 10
 15595.119
 20
  8344.124
 11
 15595.119
 21
  8356.824
  0
LINE
  8
17
 10
 15645.088
 20
  7787.280
 11
 15657.788
 21
  7787.280
  0
LINE
  8
17
 10
 15651.438
 20
  7780.930
 11
 15651.438
 21
  7793.630
  0
LINE
  8
17
 10
 27542.055
 20
  8623.189
 11
 27554.756
 21
  8623.189
  0
LINE
  8
17
 10
 27548.404
 20
  8616.839
 11
 27548.404
 21
  8629.539
  0
LINE
  8
17
 10
 27450.705
 20
  9536.668
 11
 27463.406
 21
  9536.668
  0
LINE
  8
17
 10
 27457.055
 20
  9530.318
 11
 27457.055
 21
  9543.019
  0
LINE
  8
1
 10
 30094.303
 20
  9683.167
 11
 30094.303
 21
  8633.167
  0
LINE
  8
1
 10
 30086.303
 20
  9683.167
 11
 30086.303
 21
  8633.167
  0
LINE
  8
1
 10
 30094.303
 20
  9683.167
 11
 30086.303
 21
  9683.167
  0
LINE
  8
1
 10
 30094.303
 20
  8633.167
 11
 30086.303
 21
  8633.167
  0
LINE
  8
1
 10
 30913.699
 20
  9683.167
 11
 30913.699
 21
  8633.167
  0
LINE
  8
1
 10
 30905.701
 20
  9683.167
 11
 30905.701
 21
  8633.167
  0
LINE
  8
1
 10
 30913.699
 20
  9683.167
 11
 30905.701
 21
  9683.167
  0
LINE
  8
1
 10
 30913.699
 20
  8633.167
 11
 30905.701
 21
  8633.167
  0
LINE
  8
17
 10
 27450.508
 20
  9538.659
 11
 27463.207
 21
  9538.659
  0
LINE
  8
17
 10
 27456.857
 20
  9532.309
 11
 27456.857
 21
  9545.009
  0
LINE
  8
17
 10
 27542.059
 20
  8623.167
 11
 27554.758
 21
  8623.167
  0
LINE
  8
17
 10
 27548.408
 20
  8616.816
 11
 27548.408
 21
  8629.517
  0
LINE
  8
17
 10
 33445.324
 20
  8623.167
 11
 33458.023
 21
  8623.167
  0
LINE
  8
17
 10
 33451.672
 20
  8616.816
 11
 33451.672
 21
  8629.517
  0
LINE
  8
17
 10
 33536.875
 20
  9538.651
 11
 33549.574
 21
  9538.651
  0
LINE
  8
17
 10
 33543.223
 20
  9532.301
 11
 33543.223
 21
  9545.001
  0
LINE
  8
17
 10
 33536.676
 20
  9536.660
 11
 33549.375
 21
  9536.660
  0
LINE
  8
17
 10
 33543.023
 20
  9530.311
 11
 33543.023
 21
  9543.011
  0
LINE
  8
17
 10
 33445.324
 20
  8623.182
 11
 33458.027
 21
  8623.182
  0
LINE
  8
17
 10
 33451.676
 20
  8616.831
 11
 33451.676
 21
  8629.531
  0
LINE
  8
17
 10
 45342.191
 20
  7787.283
 11
 45354.895
 21
  7787.283
  0
LINE
  8
17
 10
 45348.543
 20
  7780.933
 11
 45348.543
 21
  7793.633
  0
LINE
  8
17
 10
 45398.516
 20
  8350.477
 11
 45411.215
 21
  8350.477
  0
LINE
  8
17
 10
 45404.863
 20
  8344.126
 11
 45404.863
 21
  8356.826
  0
LINE
  8
17
 10
 45398.715
 20
  8352.467
 11
 45411.414
 21
  8352.467
  0
LINE
  8
17
 10
 45405.062
 20
  8346.117
 11
 45405.062
 21
  8358.816
  0
LINE
  8
17
 10
 45342.391
 20
  7789.275
 11
 45355.090
 21
  7789.275
  0
LINE
  8
17
 10
 45348.742
 20
  7782.926
 11
 45348.742
 21
  7795.625
  0
LINE
  8
17
 10
 51312.613
 20
  7192.253
 11
 51325.312
 21
  7192.253
  0
LINE
  8
17
 10
 51318.965
 20
  7185.903
 11
 51318.965
 21
  7198.603
  0
LINE
  8
17
 10
 51368.934
 20
  7755.444
 11
 51381.637
 21
  7755.444
  0
LINE
  8
17
 10
 51375.285
 20
  7749.094
 11
 51375.285
 21
  7761.794
  0
LINE
  8
1
 10
 60176.703
 20
  6834.552
 11
 60140.879
 21
  6476.338
  0
LINE
  8
1
 10
 60168.742
 20
  6835.347
 11
 60132.918
 21
  6477.134
  0
LINE
  8
1
 10
 60176.703
 20
  6834.552
 11
 60168.742
 21
  6835.347
  0
LINE
  8
1
 10
 60140.879
 20
  6476.338
 11
 60132.918
 21
  6477.134
  0
LINE
  8
17
 10
 51368.738
 20
  7753.454
 11
 51381.438
 21
  7753.454
  0
LINE
  8
17
 10
 51375.086
 20
  7747.104
 11
 51375.086
 21
  7759.804
  0
LINE
  8
17
 10
 51312.414
 20
  7190.260
 11
 51325.113
 21
  7190.260
  0
LINE
  8
17
 10
 51318.766
 20
  7183.910
 11
 51318.766
 21
  7196.610
  0
LINE
  8
17
 10
 60036.559
 20
  6456.736
 11
 60049.258
 21
  6456.736
  0
LINE
  8
17
 10
 60042.906
 20
  6450.386
 11
 60042.906
 21
  6463.086
  0
LINE
  8
17
 10
 60853.648
 20
  6456.736
 11
 60866.348
 21
  6456.736
  0
LINE
  8
17
 10
 60860.000
 20
  6450.386
 11
 60860.000
 21
  6463.086
  0
LINE
  8
17
 10
 60853.648
 20
  6813.002
 11
 60866.348
 21
  6813.002
  0
LINE
  8
17
 10
 60860.000
 20
  6806.652
 11
 60860.000
 21
  6819.352
  0
LINE
  8
17
 10
 60843.652
 20
  6456.736
 11
 60856.352
 21
  6456.736
  0
LINE
  8
17
 10
 60850.004
 20
  6450.386
 11
 60850.004
 21
  6463.086
  0
LINE
  8
17
 10
 60124.539
 20
  6456.736
 11
 60137.238
 21
  6456.736
  0
LINE
  8
17
 10
 60130.891
 20
  6450.386
 11
 60130.891
 21
  6463.086
  0
LINE
  8
17
 10
 60476.508
 20
     0.000
 11
 60489.207
 21
     0.000
  0
LINE
  8
17
 10
 60482.855
 20
    -6.350
 11
 60482.855
 21
     6.350
  0
LINE
  8
17
 10
 60843.652
 20
    -0.000
 11
 60856.352
 21
    -0.000
  0
LINE
  8
17
 10
 60850.004
 20
    -6.350
 11
 60850.004
 21
     6.350
  0
LINE
  8
1
 10
 30090.303
 20
  8473.167
 11
 29970.303
 21
  8593.167
  0
LINE
  8
1
 10
 29970.303
 20
  8593.167
 11
 29970.303
 21
  8593.167
  0
LINE
  8
1
 10
 30909.701
 20
  8473.167
 11
 31029.699
 21
  8593.167
  0
LINE
  8
1
 10
 31029.699
 20
  8593.167
 11
 31029.699
 21
  8593.167
  0
LINE
  8
5
 10
   350.353
 20
  7035.035
 11
   370.253
 21
  6836.028
  0
LINE
  8
5
 10
  1842.908
 20
  7184.290
 11
  1862.809
 21
  6985.283
  0
LINE
  8
5
 10
  3335.464
 20
  7333.546
 11
  3355.365
 21
  7134.539
  0
LINE
  8
5
 10
  4828.021
 20
  7482.801
 11
  4847.921
 21
  7283.794
  0
LINE
  8
5
 10
  6320.576
 20
  7632.057
 11
  6340.477
 21
  7433.050
  0
LINE
  8
5
 10
  7813.132
 20
  7781.312
 11
  7833.033
 21
  7582.305
  0
LINE
  8
5
 10
  9305.688
 20
  7930.568
 11
  9325.589
 21
  7731.562
  0
LINE
  8
5
 10
 10798.243
 20
  8079.824
 11
 10818.145
 21
  7880.816
  0
LINE
  8
5
 10
 12290.799
 20
  8229.079
 11
 12310.699
 21
  8030.072
  0
LINE
  8
5
 10
 13783.354
 20
  8378.335
 11
 13803.255
 21
  8179.328
  0
LINE
  8
5
 10
 15275.911
 20
  8527.591
 11
 15295.812
 21
  8328.584
  0
LINE
  8
5
 10
 16768.467
 20
  8676.847
 11
 16788.367
 21
  8477.839
  0
LINE
  8
5
 10
 18261.021
 20
  8826.102
 11
 18280.922
 21
  8627.094
  0
LINE
  8
5
 10
 19753.576
 20
  8975.357
 11
 19773.479
 21
  8776.351
  0
LINE
  8
5
 10
 21246.133
 20
  9124.613
 11
 21266.033
 21
  8925.606
  0
LINE
  8
5
 10
 22738.689
 20
  9273.869
 11
 22758.590
 21
  9074.861
  0
LINE
  8
5
 10
 24231.244
 20
  9423.124
 11
 24251.146
 21
  9224.116
  0
LINE
  8
5
 10
 25723.801
 20
  9572.380
 11
 25743.701
 21
  9373.373
  0
LINE
  8
5
 10
 27216.357
 20
  9721.635
 11
 27236.256
 21
  9522.628
  0
LINE
  8
5
 10
 28708.910
 20
  9870.891
 11
 28728.811
 21
  9671.883
  0
LINE
  8
5
 10
 30201.467
 20
 10020.146
 11
 30221.367
 21
  9821.139
  0
LINE
  8
5
 10
 30798.514
 20
 10020.148
 11
 30778.613
 21
  9821.142
  0
LINE
  8
5
 10
 32291.070
 20
  9870.894
 11
 32271.170
 21
  9671.887
  0
LINE
  8
5
 10
 33783.625
 20
  9721.638
 11
 33763.727
 21
  9522.630
  0
LINE
  8
5
 10
 35276.180
 20
  9572.382
 11
 35256.281
 21
  9373.375
  0
LINE
  8
5
 10
 36768.734
 20
  9423.127
 11
 36748.836
 21
  9224.120
  0
LINE
  8
5
 10
 38261.293
 20
  9273.871
 11
 38241.391
 21
  9074.864
  0
LINE
  8
5
 10
 39753.848
 20
  9124.616
 11
 39733.945
 21
  8925.608
  0
LINE
  8
5
 10
 41246.402
 20
  8975.359
 11
 41226.504
 21
  8776.353
  0
LINE
  8
5
 10
 42738.961
 20
  8826.104
 11
 42719.059
 21
  8627.098
  0
LINE
  8
5
 10
 44231.512
 20
  8676.849
 11
 44211.613
 21
  8477.842
  0
LINE
  8
5
 10
 45724.074
 20
  8527.594
 11
 45704.176
 21
  8328.586
  0
LINE
  8
5
 10
 47216.629
 20
  8378.337
 11
 47196.727
 21
  8179.330
  0
LINE
  8
5
 10
 48709.180
 20
  8229.082
 11
 48689.281
 21
  8030.075
  0
LINE
  8
5
 10
 50201.738
 20
  8079.826
 11
 50181.840
 21
  7880.819
  0
LINE
  8
5
 10
 51694.297
 20
  7930.571
 11
 51674.395
 21
  7731.563
  0
LINE
  8
5
 10
 53186.848
 20
  7781.315
 11
 53166.949
 21
  7582.308
  0
LINE
  8
5
 10
 54679.402
 20
  7632.060
 11
 54659.504
 21
  7433.052
  0
LINE
  8
5
 10
 56171.961
 20
  7482.804
 11
 56152.062
 21
  7283.796
  0
LINE
  8
5
 10
 57664.523
 20
  7333.547
 11
 57644.625
 21
  7134.541
  0
LINE
  8
5
 10
 59157.070
 20
  7184.292
 11
 59137.172
 21
  6985.285
  0
LINE
  8
5
 10
 60649.629
 20
  7035.037
 11
 60629.730
 21
  6836.030
  0
LINE
  8
5
 10
   642.228
 20
  3680.000
 11
   705.728
 21
  3680.000
  0
LINE
  8
5
 10
   642.228
 20
  3680.000
 11
   705.728
 21
  3680.000
  0
LINE
  8
5
 10
  1897.917
 20
  6634.208
 11
  1904.235
 21
  6571.023
  0
LINE
  8
5
 10
  4886.013
 20
  6902.875
 11
  4892.331
 21
  6839.690
  0
LINE
  8
5
 10
  7878.568
 20
  7126.957
 11
  7884.887
 21
  7063.772
  0
LINE
  8
5
 10
 10868.145
 20
  7380.810
 11
 10874.463
 21
  7317.625
  0
LINE
  8
5
 10
 13853.255
 20
  7679.321
 11
 13859.574
 21
  7616.137
  0
LINE
  8
5
 10
 16835.373
 20
  8007.783
 11
 16841.691
 21
  7944.599
  0
LINE
  8
5
 10
 19812.994
 20
  8381.172
 11
 19819.314
 21
  8317.987
  0
LINE
  8
5
 10
 22803.883
 20
  8621.945
 11
 22810.201
 21
  8558.761
  0
LINE
  8
5
 10
 25814.117
 20
  8669.231
 11
 25820.436
 21
  8606.047
  0
LINE
  8
5
 10
 28826.363
 20
  8696.352
 11
 28832.684
 21
  8633.167
  0
LINE
  8
5
 10
 30333.848
 20
  8696.352
 11
 30340.166
 21
  8633.167
  0
LINE
  8
5
 10
  1897.917
 20
  6634.208
 11
  1904.235
 21
  6571.023
  0
LINE
  8
5
 10
  4886.013
 20
  6902.875
 11
  4892.331
 21
  6839.690
  0
LINE
  8
5
 10
  7878.568
 20
  7126.957
 11
  7884.887
 21
  7063.772
  0
LINE
  8
5
 10
 10868.145
 20
  7380.810
 11
 10874.463
 21
  7317.625
  0
LINE
  8
5
 10
 13853.255
 20
  7679.321
 11
 13859.574
 21
  7616.137
  0
LINE
  8
5
 10
 16835.373
 20
  8007.783
 11
 16841.691
 21
  7944.599
  0
LINE
  8
5
 10
 19812.994
 20
  8381.172
 11
 19819.314
 21
  8317.987
  0
LINE
  8
5
 10
 22803.883
 20
  8621.945
 11
 22810.201
 21
  8558.761
  0
LINE
  8
5
 10
 25814.117
 20
  8669.231
 11
 25820.436
 21
  8606.047
  0
LINE
  8
5
 10
 28826.363
 20
  8696.352
 11
 28832.684
 21
  8633.167
  0
LINE
  8
5
 10
 30333.848
 20
  8696.352
 11
 30340.166
 21
  8633.167
  0
LINE
  8
5
 10
 30666.135
 20
  8696.352
 11
 30659.814
 21
  8633.167
  0
LINE
  8
5
 10
 32173.617
 20
  8696.352
 11
 32167.299
 21
  8633.167
  0
LINE
  8
5
 10
 35185.867
 20
  8669.228
 11
 35179.547
 21
  8606.043
  0
LINE
  8
5
 10
 38196.098
 20
  8621.945
 11
 38189.781
 21
  8558.761
  0
LINE
  8
5
 10
 41186.984
 20
  8381.175
 11
 41180.664
 21
  8317.990
  0
LINE
  8
5
 10
 44164.605
 20
  8007.786
 11
 44158.285
 21
  7944.602
  0
LINE
  8
5
 10
 47146.723
 20
  7679.323
 11
 47140.406
 21
  7616.139
  0
LINE
  8
5
 10
 50131.836
 20
  7380.812
 11
 50125.516
 21
  7317.627
  0
LINE
  8
5
 10
 53121.414
 20
  7126.958
 11
 53115.094
 21
  7063.774
  0
LINE
  8
5
 10
 56113.969
 20
  6902.877
 11
 56107.648
 21
  6839.692
  0
LINE
  8
5
 10
 59102.066
 20
  6634.209
 11
 59095.746
 21
  6571.025
  0
LINE
  8
5
 10
 30666.135
 20
  8696.352
 11
 30659.814
 21
  8633.167
  0
LINE
  8
5
 10
 32173.617
 20
  8696.352
 11
 32167.299
 21
  8633.167
  0
LINE
  8
5
 10
 35185.867
 20
  8669.228
 11
 35179.547
 21
  8606.043
  0
LINE
  8
5
 10
 38196.098
 20
  8621.945
 11
 38189.781
 21
  8558.761
  0
LINE
  8
5
 10
 41186.984
 20
  8381.175
 11
 41180.664
 21
  8317.990
  0
LINE
  8
5
 10
 44164.605
 20
  8007.786
 11
 44158.285
 21
  7944.602
  0
LINE
  8
5
 10
 47146.723
 20
  7679.323
 11
 47140.406
 21
  7616.139
  0
LINE
  8
5
 10
 50131.836
 20
  7380.812
 11
 50125.516
 21
  7317.627
  0
LINE
  8
5
 10
 53121.414
 20
  7126.958
 11
 53115.094
 21
  7063.774
  0
LINE
  8
5
 10
 56113.969
 20
  6902.877
 11
 56107.648
 21
  6839.692
  0
LINE
  8
5
 10
 59102.066
 20
  6634.209
 11
 59095.746
 21
  6571.025
  0
LINE
  8
5
 10
 60357.773
 20
  3680.000
 11
 60294.273
 21
  3680.000
  0
LINE
  8
5
 10
 60357.773
 20
  3680.000
 11
 60294.273
 21
  3680.000
  0
LINE
  8
17
 10
   143.650
 20
     0.000
 11
   156.350
 21
     0.000
  0
LINE
  8
17
 10
   150.000
 20
    -6.350
 11
   150.000
 21
     6.350
  0
LINE
  8
17
 10
   510.796
 20
     0.000
 11
   523.496
 21
     0.000
  0
LINE
  8
17
 10
   517.146
 20
    -6.350
 11
   517.146
 21
     6.350
  0
LINE
  8
17
 10
   862.758
 20
  6456.736
 11
   875.458
 21
  6456.736
  0
LINE
  8
17
 10
   869.108
 20
  6450.386
 11
   869.108
 21
  6463.086
  0
LINE
  8
17
 10
   143.650
 20
  6456.736
 11
   156.350
 21
  6456.736
  0
LINE
  8
17
 10
   150.000
 20
  6450.386
 11
   150.000
 21
  6463.086
  0
LINE
  8
1
 10
   831.258
 20
  6835.347
 11
   867.080
 21
  6477.134
  0
LINE
  8
1
 10
   823.298
 20
  6834.552
 11
   859.119
 21
  6476.338
  0
LINE
  8
1
 10
   831.258
 20
  6835.347
 11
   823.298
 21
  6834.552
  0
LINE
  8
1
 10
   867.080
 20
  6477.134
 11
   859.119
 21
  6476.338
  0
LINE
  8
17
 10
   133.650
 20
  6456.736
 11
   146.350
 21
  6456.736
  0
LINE
  8
17
 10
   140.000
 20
  6450.386
 11
   140.000
 21
  6463.086
  0
LINE
  8
17
 10
   950.740
 20
  6456.736
 11
   963.440
 21
  6456.736
  0
LINE
  8
17
 10
   957.090
 20
  6450.386
 11
   957.090
 21
  6463.086
  0
LINE
  8
17
 10
  9674.863
 20
  7190.258
 11
  9687.563
 21
  7190.258
  0
LINE
  8
17
 10
  9681.214
 20
  7183.908
 11
  9681.214
 21
  7196.608
  0
LINE
  8
17
 10
  9618.545
 20
  7753.452
 11
  9631.244
 21
  7753.452
  0
LINE
  8
17
 10
  9624.895
 20
  7747.102
 11
  9624.895
 21
  7759.801
  0
LINE
  8
17
 10
   133.650
 20
  6813.002
 11
   146.350
 21
  6813.002
  0
LINE
  8
17
 10
   140.000
 20
  6806.652
 11
   140.000
 21
  6819.352
  0
LINE
  8
17
 10
  9618.346
 20
  7755.442
 11
  9631.045
 21
  7755.442
  0
LINE
  8
17
 10
  9624.695
 20
  7749.092
 11
  9624.695
 21
  7761.792
  0
LINE
  8
17
 10
  9674.664
 20
  7192.251
 11
  9687.364
 21
  7192.251
  0
LINE
  8
17
 10
  9681.015
 20
  7185.901
 11
  9681.015
 21
  7198.601
  0
LINE
  8
17
 10
 15644.889
 20
  7789.273
 11
 15657.588
 21
  7789.273
  0
LINE
  8
17
 10
 15651.238
 20
  7782.923
 11
 15651.238
 21
  7795.623
  0
LINE
  8
17
 10
 15588.569
 20
  8352.465
 11
 15601.270
 21
  8352.465
  0
LINE
  8
17
 10
 15594.919
 20
  8346.114
 11
 15594.919
 21
  8358.814
  0
LINE
  8
17
 10
 15588.770
 20
  8350.474
 11
 15601.469
 21
  8350.474
  0
LINE
  8
17
 10
 15595.119
 20
  8344.124
 11
 15595.119
 21
  8356.824
  0
LINE
  8
17
 10
 15645.088
 20
  7787.280
 11
 15657.788
 21
  7787.280
  0
LINE
  8
17
 10
 15651.438
 20
  7780.930
 11
 15651.438
 21
  7793.630
  0
LINE
  8
17
 10
 27542.055
 20
  8623.189
 11
 27554.756
 21
  8623.189
  0
LINE
  8
17
 10
 27548.404
 20
  8616.839
 11
 27548.404
 21
  8629.539
  0
LINE
  8
17
 10
 27450.705
 20
  9536.668
 11
 27463.406
 21
  9536.668
  0
LINE
  8
17
 10
 27457.055
 20
  9530.318
 11
 27457.055
 21
  9543.019
  0
LINE
  8
1
 10
 30094.303
 20
  9683.167
 11
 30094.303
 21
  8633.167
  0
LINE
  8
1
 10
 30086.303
 20
  9683.167
 11
 30086.303
 21
  8633.167
  0
LINE
  8
1
 10
 30094.303
 20
  9683.167
 11
 30086.303
 21
  9683.167
  0
LINE
  8
1
 10
 30094.303
 20
  8633.167
 11
 30086.303
 21
  8633.167
  0
LINE
  8
1
 10
 30913.699
 20
  9683.167
 11
 30913.699
 21
  8633.167
  0
LINE
  8
1
 10
 30905.701
 20
  9683.167
 11
 30905.701
 21
  8633.167
  0
LINE
  8
1
 10
 30913.699
 20
  9683.167
 11
 30905.701
 21
  9683.167
  0
LINE
  8
1
 10
 30913.699
 20
  8633.167
 11
 30905.701
 21
  8633.167
  0
LINE
  8
17
 10
 27450.508
 20
  9538.659
 11
 27463.207
 21
  9538.659
  0
LINE
  8
17
 10
 27456.857
 20
  9532.309
 11
 27456.857
 21
  9545.009
  0
LINE
  8
17
 10
 27542.059
 20
  8623.167
 11
 27554.758
 21
  8623.167
  0
LINE
  8
17
 10
 27548.408
 20
  8616.816
 11
 27548.408
 21
  8629.517
  0
LINE
  8
17
 10
 33445.324
 20
  8623.167
 11
 33458.023
 21
  8623.167
  0
LINE
  8
17
 10
 33451.672
 20
  8616.816
 11
 33451.672
 21
  8629.517
  0
LINE
  8
17
 10
 33536.875
 20
  9538.651
 11
 33549.574
 21
  9538.651
  0
LINE
  8
17
 10
 33543.223
 20
  9532.301
 11
 33543.223
 21
  9545.001
  0
LINE
  8
17
 10
 33536.676
 20
  9536.660
 11
 33549.375
 21
  9536.660
  0
LINE
  8
17
 10
 33543.023
 20
  9530.311
 11
 33543.023
 21
  9543.011
  0
LINE
  8
17
 10
 33445.324
 20
  8623.182
 11
 33458.027
 21
  8623.182
  0
LINE
  8
17
 10
 33451.676
 20
  8616.831
 11
 33451.676
 21
  8629.531
  0
LINE
  8
17
 10
 45342.191
 20
  7787.283
 11
 45354.895
 21
  7787.283
  0
LINE
  8
17
 10
 45348.543
 20
  7780.933
 11
 45348.543
 21
  7793.633
  0
LINE
  8
17
 10
 45398.516
 20
  8350.477
 11
 45411.215
 21
  8350.477
  0
LINE
  8
17
 10
 45404.863
 20
  8344.126
 11
 45404.863
 21
  8356.826
  0
LINE
  8
17
 10
 45398.715
 20
  8352.467
 11
 45411.414
 21
  8352.467
  0
LINE
  8
17
 10
 45405.062
 20
  8346.117
 11
 45405.062
 21
  8358.816
  0
LINE
  8
17
 10
 45342.391
 20
  7789.275
 11
 45355.090
 21
  7789.275
  0
LINE
  8
17
 10
 45348.742
 20
  7782.926
 11
 45348.742
 21
  7795.625
  0
LINE
  8
17
 10
 51312.613
 20
  7192.253
 11
 51325.312
 21
  7192.253
  0
LINE
  8
17
 10
 51318.965
 20
  7185.903
 11
 51318.965
 21
  7198.603
  0
LINE
  8
17
 10
 51368.934
 20
  7755.444
 11
 51381.637
 21
  7755.444
  0
LINE
  8
17
 10
 51375.285
 20
  7749.094
 11
 51375.285
 21
  7761.794
  0
LINE
  8
1
 10
 60176.703
 20
  6834.552
 11
 60140.879
 21
  6476.338
  0
LINE
  8
1
 10
 60168.742
 20
  6835.347
 11
 60132.918
 21
  6477.134
  0
LINE
  8
1
 10
 60176.703
 20
  6834.552
 11
 60168.742
 21
  6835.347
  0
LINE
  8
1
 10
 60140.879
 20
  6476.338
 11
 60132.918
 21
  6477.134
  0
LINE
  8
17
 10
 51368.738
 20
  7753.454
 11
 51381.438
 21
  7753.454
  0
LINE
  8
17
 10
 51375.086
 20
  7747.104
 11
 51375.086
 21
  7759.804
  0
LINE
  8
17
 10
 51312.414
 20
  7190.260
 11
 51325.113
 21
  7190.260
  0
LINE
  8
17
 10
 51318.766
 20
  7183.910
 11
 51318.766
 21
  7196.610
  0
LINE
  8
17
 10
 60036.559
 20
  6456.736
 11
 60049.258
 21
  6456.736
  0
LINE
  8
17
 10
 60042.906
 20
  6450.386
 11
 60042.906
 21
  6463.086
  0
LINE
  8
17
 10
 60853.648
 20
  6456.736
 11
 60866.348
 21
  6456.736
  0
LINE
  8
17
 10
 60860.000
 20
  6450.386
 11
 60860.000
 21
  6463.086
  0
LINE
  8
17
 10
 60853.648
 20
  6813.002
 11
 60866.348
 21
  6813.002
  0
LINE
  8
17
 10
 60860.000
 20
  6806.652
 11
 60860.000
 21
  6819.352
  0
LINE
  8
17
 10
 60843.652
 20
  6456.736
 11
 60856.352
 21
  6456.736
  0
LINE
  8
17
 10
 60850.004
 20
  6450.386
 11
 60850.004
 21
  6463.086
  0
LINE
  8
17
 10
 60124.539
 20
  6456.736
 11
 60137.238
 21
  6456.736
  0
LINE
  8
17
 10
 60130.891
 20
  6450.386
 11
 60130.891
 21
  6463.086
  0
LINE
  8
17
 10
 60476.508
 20
     0.000
 11
 60489.207
 21
     0.000
  0
LINE
  8
17
 10
 60482.855
 20
    -6.350
 11
 60482.855
 21
     6.350
  0
LINE
  8
17
 10
 60843.652
 20
    -0.000
 11
 60856.352
 21
    -0.000
  0
LINE
  8
17
 10
 60850.004
 20
    -6.350
 11
 60850.004
 21
     6.350
  0
LINE
  8
1
 10
 30090.303
 20
  8473.167
 11
 29970.303
 21
  8593.167
  0
LINE
  8
1
 10
 29970.303
 20
  8593.167
 11
 29970.303
 21
  8593.167
  0
LINE
  8
1
 10
 30909.701
 20
  8473.167
 11
 31029.699
 21
  8593.167
  0
LINE
  8
1
 10
 31029.699
 20
  8593.167
 11
 31029.699
 21
  8593.167
  0
LINE
  8
5
 10
   350.353
 20
  7035.035
 11
   370.253
 21
  6836.028
  0
LINE
  8
5
 10
  1842.908
 20
  7184.290
 11
  1862.809
 21
  6985.283
  0
LINE
  8
5
 10
  3335.464
 20
  7333.546
 11
  3355.365
 21
  7134.539
  0
LINE
  8
5
 10
  4828.021
 20
  7482.801
 11
  4847.921
 21
  7283.794
  0
LINE
  8
5
 10
  6320.576
 20
  7632.057
 11
  6340.477
 21
  7433.050
  0
LINE
  8
5
 10
  7813.132
 20
  7781.312
 11
  7833.033
 21
  7582.305
  0
LINE
  8
5
 10
  9305.688
 20
  7930.568
 11
  9325.589
 21
  7731.562
  0
LINE
  8
5
 10
 10798.243
 20
  8079.824
 11
 10818.145
 21
  7880.816
  0
LINE
  8
5
 10
 12290.799
 20
  8229.079
 11
 12310.699
 21
  8030.072
  0
LINE
  8
5
 10
 13783.354
 20
  8378.335
 11
 13803.255
 21
  8179.328
  0
LINE
  8
5
 10
 15275.911
 20
  8527.591
 11
 15295.812
 21
  8328.584
  0
LINE
  8
5
 10
 16768.467
 20
  8676.847
 11
 16788.367
 21
  8477.839
  0
LINE
  8
5
 10
 18261.021
 20
  8826.102
 11
 18280.922
 21
  8627.094
  0
LINE
  8
5
 10
 19753.576
 20
  8975.357
 11
 19773.479
 21
  8776.351
  0
LINE
  8
5
 10
 21246.133
 20
  9124.613
 11
 21266.033
 21
  8925.606
  0
LINE
  8
5
 10
 22738.689
 20
  9273.869
 11
 22758.590
 21
  9074.861
  0
LINE
  8
5
 10
 24231.244
 20
  9423.124
 11
 24251.146
 21
  9224.116
  0
LINE
  8
5
 10
 25723.801
 20
  9572.380
 11
 25743.701
 21
  9373.373
  0
LINE
  8
5
 10
 27216.357
 20
  9721.635
 11
 27236.256
 21
  9522.628
  0
LINE
  8
5
 10
 28708.910
 20
  9870.891
 11
 28728.811
 21
  9671.883
  0
LINE
  8
5
 10
 30201.467
 20
 10020.146
 11
 30221.367
 21
  9821.139
  0
LINE
  8
5
 10
 30798.514
 20
 10020.148
 11
 30778.613
 21
  9821.142
  0
LINE
  8
5
 10
 32291.070
 20
  9870.894
 11
 32271.170
 21
  9671.887
  0
LINE
  8
5
 10
 33783.625
 20
  9721.638
 11
 33763.727
 21
  9522.630
  0
LINE
  8
5
 10
 35276.180
 20
  9572.382
 11
 35256.281
 21
  9373.375
  0
LINE
  8
5
 10
 36768.734
 20
  9423.127
 11
 36748.836
 21
  9224.120
  0
LINE
  8
5
 10
 38261.293
 20
  9273.871
 11
 38241.391
 21
  9074.864
  0
LINE
  8
5
 10
 39753.848
 20
  9124.616
 11
 39733.945
 21
  8925.608
  0
LINE
  8
5
 10
 41246.402
 20
  8975.359
 11
 41226.504
 21
  8776.353
  0
LINE
  8
5
 10
 42738.961
 20
  8826.104
 11
 42719.059
 21
  8627.098
  0
LINE
  8
5
 10
 44231.512
 20
  8676.849
 11
 44211.613
 21
  8477.842
  0
LINE
  8
5
 10
 45724.074
 20
  8527.594
 11
 45704.176
 21
  8328.586
  0
LINE
  8
5
 10
 47216.629
 20
  8378.337
 11
 47196.727
 21
  8179.330
  0
LINE
  8
5
 10
 48709.180
 20
  8229.082
 11
 48689.281
 21
  8030.075
  0
LINE
  8
5
 10
 50201.738
 20
  8079.826
 11
 50181.840
 21
  7880.819
  0
LINE
  8
5
 10
 51694.297
 20
  7930.571
 11
 51674.395
 21
  7731.563
  0
LINE
  8
5
 10
 53186.848
 20
  7781.315
 11
 53166.949
 21
  7582.308
  0
LINE
  8
5
 10
 54679.402
 20
  7632.060
 11
 54659.504
 21
  7433.052
  0
LINE
  8
5
 10
 56171.961
 20
  7482.804
 11
 56152.062
 21
  7283.796
  0
LINE
  8
5
 10
 57664.523
 20
  7333.547
 11
 57644.625
 21
  7134.541
  0
LINE
  8
5
 10
 59157.070
 20
  7184.292
 11
 59137.172
 21
  6985.285
  0
LINE
  8
5
 10
 60649.629
 20
  7035.037
 11
 60629.730
 21
  6836.030
  0
LINE
  8
5
 10
   642.228
 20
  3680.000
 11
   705.728
 21
  3680.000
  0
LINE
  8
5
 10
   642.228
 20
  3680.000
 11
   705.728
 21
  3680.000
  0
LINE
  8
5
 10
  1897.917
 20
  6634.208
 11
  1904.235
 21
  6571.023
  0
LINE
  8
5
 10
  4886.013
 20
  6902.875
 11
  4892.331
 21
  6839.690
  0
LINE
  8
5
 10
  7878.568
 20
  7126.957
 11
  7884.887
 21
  7063.772
  0
LINE
  8
5
 10
 10868.145
 20
  7380.810
 11
 10874.463
 21
  7317.625
  0
LINE
  8
5
 10
 13853.255
 20
  7679.321
 11
 13859.574
 21
  7616.137
  0
LINE
  8
5
 10
 16835.373
 20
  8007.783
 11
 16841.691
 21
  7944.599
  0
LINE
  8
5
 10
 19812.994
 20
  8381.172
 11
 19819.314
 21
  8317.987
  0
LINE
  8
5
 10
 22803.883
 20
  8621.945
 11
 22810.201
 21
  8558.761
  0
LINE
  8
5
 10
 25814.117
 20
  8669.231
 11
 25820.436
 21
  8606.047
  0
LINE
  8
5
 10
 28826.363
 20
  8696.352
 11
 28832.684
 21
  8633.167
  0
LINE
  8
5
 10
 30333.848
 20
  8696.352
 11
 30340.166
 21
  8633.167
  0
LINE
  8
5
 10
  1897.917
 20
  6634.208
 11
  1904.235
 21
  6571.023
  0
LINE
  8
5
 10
  4886.013
 20
  6902.875
 11
  4892.331
 21
  6839.690
  0
LINE
  8
5
 10
  7878.568
 20
  7126.957
 11
  7884.887
 21
  7063.772
  0
LINE
  8
5
 10
 10868.145
 20
  7380.810
 11
 10874.463
 21
  7317.625
  0
LINE
  8
5
 10
 13853.255
 20
  7679.321
 11
 13859.574
 21
  7616.137
  0
LINE
  8
5
 10
 16835.373
 20
  8007.783
 11
 16841.691
 21
  7944.599
  0
LINE
  8
5
 10
 19812.994
 20
  8381.172
 11
 19819.314
 21
  8317.987
  0
LINE
  8
5
 10
 22803.883
 20
  8621.945
 11
 22810.201
 21
  8558.761
  0
LINE
  8
5
 10
 25814.117
 20
  8669.231
 11
 25820.436
 21
  8606.047
  0
LINE
  8
5
 10
 28826.363
 20
  8696.352
 11
 28832.684
 21
  8633.167
  0
LINE
  8
5
 10
 30333.848
 20
  8696.352
 11
 30340.166
 21
  8633.167
  0
LINE
  8
5
 10
 30666.135
 20
  8696.352
 11
 30659.814
 21
  8633.167
  0
LINE
  8
5
 10
 32173.617
 20
  8696.352
 11
 32167.299
 21
  8633.167
  0
LINE
  8
5
 10
 35185.867
 20
  8669.228
 11
 35179.547
 21
  8606.043
  0
LINE
  8
5
 10
 38196.098
 20
  8621.945
 11
 38189.781
 21
  8558.761
  0
LINE
  8
5
 10
 41186.984
 20
  8381.175
 11
 41180.664
 21
  8317.990
  0
LINE
  8
5
 10
 44164.605
 20
  8007.786
 11
 44158.285
 21
  7944.602
  0
LINE
  8
5
 10
 47146.723
 20
  7679.323
 11
 47140.406
 21
  7616.139
  0
LINE
  8
5
 10
 50131.836
 20
  7380.812
 11
 50125.516
 21
  7317.627
  0
LINE
  8
5
 10
 53121.414
 20
  7126.958
 11
 53115.094
 21
  7063.774
  0
LINE
  8
5
 10
 56113.969
 20
  6902.877
 11
 56107.648
 21
  6839.692
  0
LINE
  8
5
 10
 59102.066
 20
  6634.209
 11
 59095.746
 21
  6571.025
  0
LINE
  8
5
 10
 30666.135
 20
  8696.352
 11
 30659.814
 21
  8633.167
  0
LINE
  8
5
 10
 32173.617
 20
  8696.352
 11
 32167.299
 21
  8633.167
  0
LINE
  8
5
 10
 35185.867
 20
  8669.228
 11
 35179.547
 21
  8606.043
  0
LINE
  8
5
 10
 38196.098
 20
  8621.945
 11
 38189.781
 21
  8558.761
  0
LINE
  8
5
 10
 41186.984
 20
  8381.175
 11
 41180.664
 21
  8317.990
  0
LINE
  8
5
 10
 44164.605
 20
  8007.786
 11
 44158.285
 21
  7944.602
  0
LINE
  8
5
 10
 47146.723
 20
  7679.323
 11
 47140.406
 21
  7616.139
  0
LINE
  8
5
 10
 50131.836
 20
  7380.812
 11
 50125.516
 21
  7317.627
  0
LINE
  8
5
 10
 53121.414
 20
  7126.958
 11
 53115.094
 21
  7063.774
  0
LINE
  8
5
 10
 56113.969
 20
  6902.877
 11
 56107.648
 21
  6839.692
  0
LINE
  8
5
 10
 59102.066
 20
  6634.209
 11
 59095.746
 21
  6571.025
  0
LINE
  8
5
 10
 60357.773
 20
  3680.000
 11
 60294.273
 21
  3680.000
  0
LINE
  8
5
 10
 60357.773
 20
  3680.000
 11
 60294.273
 21
  3680.000
  0
LINE
  8
17
 10
   143.650
 20
     0.000
 11
   156.350
 21
     0.000
  0
LINE
  8
17
 10
   150.000
 20
    -6.350
 11
   150.000
 21
     6.350
  0
LINE
  8
17
 10
   510.796
 20
     0.000
 11
   523.496
 21
     0.000
  0
LINE
  8
17
 10
   517.146
 20
    -6.350
 11
   517.146
 21
     6.350
  0
LINE
  8
17
 10
   862.758
 20
  6456.736
 11
   875.458
 21
  6456.736
  0
LINE
  8
17
 10
   869.108
 20
  6450.386
 11
   869.108
 21
  6463.086
  0
LINE
  8
17
 10
   143.650
 20
  6456.736
 11
   156.350
 21
  6456.736
  0
LINE
  8
17
 10
   150.000
 20
  6450.386
 11
   150.000
 21
  6463.086
  0
LINE
  8
1
 10
   831.258
 20
  6835.347
 11
   867.080
 21
  6477.134
  0
LINE
  8
1
 10
   823.298
 20
  6834.552
 11
   859.119
 21
  6476.338
  0
LINE
  8
1
 10
   831.258
 20
  6835.347
 11
   823.298
 21
  6834.552
  0
LINE
  8
1
 10
   867.080
 20
  6477.134
 11
   859.119
 21
  6476.338
  0
LINE
  8
17
 10
   133.650
 20
  6456.736
 11
   146.350
 21
  6456.736
  0
LINE
  8
17
 10
   140.000
 20
  6450.386
 11
   140.000
 21
  6463.086
  0
LINE
  8
17
 10
   950.740
 20
  6456.736
 11
   963.440
 21
  6456.736
  0
LINE
  8
17
 10
   957.090
 20
  6450.386
 11
   957.090
 21
  6463.086
  0
LINE
  8
17
 10
  9674.863
 20
  7190.258
 11
  9687.563
 21
  7190.258
  0
LINE
  8
17
 10
  9681.214
 20
  7183.908
 11
  9681.214
 21
  7196.608
  0
LINE
  8
17
 10
  9618.545
 20
  7753.452
 11
  9631.244
 21
  7753.452
  0
LINE
  8
17
 10
  9624.895
 20
  7747.102
 11
  9624.895
 21
  7759.801
  0
LINE
  8
17
 10
   133.650
 20
  6813.002
 11
   146.350
 21
  6813.002
  0
LINE
  8
17
 10
   140.000
 20
  6806.652
 11
   140.000
 21
  6819.352
  0
LINE
  8
17
 10
  9618.346
 20
  7755.442
 11
  9631.045
 21
  7755.442
  0
LINE
  8
17
 10
  9624.695
 20
  7749.092
 11
  9624.695
 21
  7761.792
  0
LINE
  8
17
 10
  9674.664
 20
  7192.251
 11
  9687.364
 21
  7192.251
  0
LINE
  8
17
 10
  9681.015
 20
  7185.901
 11
  9681.015
 21
  7198.601
  0
LINE
  8
17
 10
 15644.889
 20
  7789.273
 11
 15657.588
 21
  7789.273
  0
LINE
  8
17
 10
 15651.238
 20
  7782.923
 11
 15651.238
 21
  7795.623
  0
LINE
  8
17
 10
 15588.569
 20
  8352.465
 11
 15601.270
 21
  8352.465
  0
LINE
  8
17
 10
 15594.919
 20
  8346.114
 11
 15594.919
 21
  8358.814
  0
LINE
  8
17
 10
 15588.770
 20
  8350.474
 11
 15601.469
 21
  8350.474
  0
LINE
  8
17
 10
 15595.119
 20
  8344.124
 11
 15595.119
 21
  8356.824
  0
LINE
  8
17
 10
 15645.088
 20
  7787.280
 11
 15657.788
 21
  7787.280
  0
LINE
  8
17
 10
 15651.438
 20
  7780.930
 11
 15651.438
 21
  7793.630
  0
LINE
  8
17
 10
 27542.055
 20
  8623.189
 11
 27554.756
 21
  8623.189
  0
LINE
  8
17
 10
 27548.404
 20
  8616.839
 11
 27548.404
 21
  8629.539
  0
LINE
  8
17
 10
 27450.705
 20
  9536.668
 11
 27463.406
 21
  9536.668
  0
LINE
  8
17
 10
 27457.055
 20
  9530.318
 11
 27457.055
 21
  9543.019
  0
LINE
  8
1
 10
 30094.303
 20
  9683.167
 11
 30094.303
 21
  8633.167
  0
LINE
  8
1
 10
 30086.303
 20
  9683.167
 11
 30086.303
 21
  8633.167
  0
LINE
  8
1
 10
 30094.303
 20
  9683.167
 11
 30086.303
 21
  9683.167
  0
LINE
  8
1
 10
 30094.303
 20
  8633.167
 11
 30086.303
 21
  8633.167
  0
LINE
  8
1
 10
 30913.699
 20
  9683.167
 11
 30913.699
 21
  8633.167
  0
LINE
  8
1
 10
 30905.701
 20
  9683.167
 11
 30905.701
 21
  8633.167
  0
LINE
  8
1
 10
 30913.699
 20
  9683.167
 11
 30905.701
 21
  9683.167
  0
LINE
  8
1
 10
 30913.699
 20
  8633.167
 11
 30905.701
 21
  8633.167
  0
LINE
  8
17
 10
 27450.508
 20
  9538.659
 11
 27463.207
 21
  9538.659
  0
LINE
  8
17
 10
 27456.857
 20
  9532.309
 11
 27456.857
 21
  9545.009
  0
LINE
  8
17
 10
 27542.059
 20
  8623.167
 11
 27554.758
 21
  8623.167
  0
LINE
  8
17
 10
 27548.408
 20
  8616.816
 11
 27548.408
 21
  8629.517
  0
LINE
  8
17
 10
 33445.324
 20
  8623.167
 11
 33458.023
 21
  8623.167
  0
LINE
  8
17
 10
 33451.672
 20
  8616.816
 11
 33451.672
 21
  8629.517
  0
LINE
  8
17
 10
 33536.875
 20
  9538.651
 11
 33549.574
 21
  9538.651
  0
LINE
  8
17
 10
 33543.223
 20
  9532.301
 11
 33543.223
 21
  9545.001
  0
LINE
  8
17
 10
 33536.676
 20
  9536.660
 11
 33549.375
 21
  9536.660
  0
LINE
  8
17
 10
 33543.023
 20
  9530.311
 11
 33543.023
 21
  9543.011
  0
LINE
  8
17
 10
 33445.324
 20
  8623.182
 11
 33458.027
 21
  8623.182
  0
LINE
  8
17
 10
 33451.676
 20
  8616.831
 11
 33451.676
 21
  8629.531
  0
LINE
  8
17
 10
 45342.191
 20
  7787.283
 11
 45354.895
 21
  7787.283
  0
LINE
  8
17
 10
 45348.543
 20
  7780.933
 11
 45348.543
 21
  7793.633
  0
LINE
  8
17
 10
 45398.516
 20
  8350.477
 11
 45411.215
 21
  8350.477
  0
LINE
  8
17
 10
 45404.863
 20
  8344.126
 11
 45404.863
 21
  8356.826
  0
LINE
  8
17
 10
 45398.715
 20
  8352.467
 11
 45411.414
 21
  8352.467
  0
LINE
  8
17
 10
 45405.062
 20
  8346.117
 11
 45405.062
 21
  8358.816
  0
LINE
  8
17
 10
 45342.391
 20
  7789.275
 11
 45355.090
 21
  7789.275
  0
LINE
  8
17
 10
 45348.742
 20
  7782.926
 11
 45348.742
 21
  7795.625
  0
LINE
  8
17
 10
 51312.613
 20
  7192.253
 11
 51325.312
 21
  7192.253
  0
LINE
  8
17
 10
 51318.965
 20
  7185.903
 11
 51318.965
 21
  7198.603
  0
LINE
  8
17
 10
 51368.934
 20
  7755.444
 11
 51381.637
 21
  7755.444
  0
LINE
  8
17
 10
 51375.285
 20
  7749.094
 11
 51375.285
 21
  7761.794
  0
LINE
  8
1
 10
 60176.703
 20
  6834.552
 11
 60140.879
 21
  6476.338
  0
LINE
  8
1
 10
 60168.742
 20
  6835.347
 11
 60132.918
 21
  6477.134
  0
LINE
  8
1
 10
 60176.703
 20
  6834.552
 11
 60168.742
 21
  6835.347
  0
LINE
  8
1
 10
 60140.879
 20
  6476.338
 11
 60132.918
 21
  6477.134
  0
LINE
  8
17
 10
 51368.738
 20
  7753.454
 11
 51381.438
 21
  7753.454
  0
LINE
  8
17
 10
 51375.086
 20
  7747.104
 11
 51375.086
 21
  7759.804
  0
LINE
  8
17
 10
 51312.414
 20
  7190.260
 11
 51325.113
 21
  7190.260
  0
LINE
  8
17
 10
 51318.766
 20
  7183.910
 11
 51318.766
 21
  7196.610
  0
LINE
  8
17
 10
 60036.559
 20
  6456.736
 11
 60049.258
 21
  6456.736
  0
LINE
  8
17
 10
 60042.906
 20
  6450.386
 11
 60042.906
 21
  6463.086
  0
LINE
  8
17
 10
 60853.648
 20
  6456.736
 11
 60866.348
 21
  6456.736
  0
LINE
  8
17
 10
 60860.000
 20
  6450.386
 11
 60860.000
 21
  6463.086
  0
LINE
  8
17
 10
 60853.648
 20
  6813.002
 11
 60866.348
 21
  6813.002
  0
LINE
  8
17
 10
 60860.000
 20
  6806.652
 11
 60860.000
 21
  6819.352
  0
LINE
  8
17
 10
 60843.652
 20
  6456.736
 11
 60856.352
 21
  6456.736
  0
LINE
  8
17
 10
 60850.004
 20
  6450.386
 11
 60850.004
 21
  6463.086
  0
LINE
  8
17
 10
 60124.539
 20
  6456.736
 11
 60137.238
 21
  6456.736
  0
LINE
  8
17
 10
 60130.891
 20
  6450.386
 11
 60130.891
 21
  6463.086
  0
LINE
  8
17
 10
 60476.508
 20
     0.000
 11
 60489.207
 21
     0.000
  0
LINE
  8
17
 10
 60482.855
 20
    -6.350
 11
 60482.855
 21
     6.350
  0
LINE
  8
17
 10
 60843.652
 20
    -0.000
 11
 60856.352
 21
    -0.000
  0
LINE
  8
17
 10
 60850.004
 20
    -6.350
 11
 60850.004
 21
     6.350
  0
LINE
  8
1
 10
 30090.303
 20
  8473.167
 11
 29970.303
 21
  8593.167
  0
LINE
  8
1
 10
 29970.303
 20
  8593.167
 11
 29970.303
 21
  8593.167
  0
LINE
  8
1
 10
 30909.701
 20
  8473.167
 11
 31029.699
 21
  8593.167
  0
LINE
  8
1
 10
 31029.699
 20
  8593.167
 11
 31029.699
 21
  8593.167
  0
TEXT
  8
16
 10
  -254.000
 20
  2910.868
 40
   127.000
  1
RF2-1
 50
    90.000
  0
TEXT
  8
16
 10
  4521.701
 20
  7703.684
 40
   127.000
  1
RF2-2
 50
     5.663
  0
TEXT
  8
16
 10
 12248.708
 20
  8474.107
 40
   127.000
  1
RF2-3
 50
     5.711
  0
TEXT
  8
16
 10
 21164.988
 20
  9363.726
 40
   127.000
  1
RF2-4
 50
     5.711
  0
TEXT
  8
16
 10
 30182.541
 20
  9992.656
 40
   127.000
  1
RF2-5
 50
    -0.000
  0
TEXT
  8
16
 10
 39203.195
 20
  9426.908
 40
   127.000
  1
RF2-4
 50
    -5.711
  0
TEXT
  8
16
 10
 48119.426
 20
  8537.295
 40
   127.000
  1
RF2-3
 50
    -5.711
  0
TEXT
  8
16
 10
 55846.391
 20
  7766.340
 40
   127.000
  1
RF2-2
 50
    -5.663
  0
TEXT
  8
16
 10
 61254.004
 20
  3545.868
 40
   127.000
  1
RF2-1
 50
   -90.000
  0
TEXT
  8
16
 10
 29836.303
 20
  3989.083
 40
   127.000
  1
RF2-6
 50
    90.000
  0
LINE
  8
0
 10
 -3329.400
 20
-20283.707
 11
 64329.406
 21
-20283.707
  0
LINE
  8
0
 10
 64329.406
 20
-20283.707
 11
 64329.406
 21
 30460.391
  0
LINE
  8
0
 10
 64329.406
 20
 30460.391
 11
 -3329.400
 21
 30460.391
  0
LINE
  8
0
 10
 -3329.400
 20
 30460.391
 11
 -3329.400
 21
-20283.707
  0
LINE
  8
0
 10
 -3329.400
 20
-18609.152
 11
 64329.406
 21
-18609.152
  0
TEXT
  8
0
 10
 17661.746
 20
-20004.615
 40
  1116.370
  1
Rigid Frame Detailing 2
 50
     0.000
  0
TEXT
  8
0
 10
 -2771.215
 20
-20004.615
 40
  1116.370
  1
C08-033
 50
     0.000
  0
TEXT
  8
0
 10
 51491.148
 20
-20004.615
 40
  1116.370
  1
23/APR/2026
 50
     0.000
  0
ENDSEC
  0
EOF
