  0
SECTION
  2
HEADER
  9
$ACADVER
  1
AC1009
  9
$EXTMIN
 10
 -3329.400
 20
-20283.707
  9
$EXTMAX
 10
 64329.406
 20
 30460.391
  9
$LIMMIN
 10
 -3329.400
 20
-20283.707
  9
$LIMMAX
 10
 64329.406
 20
 30460.391
  9
$FILLMODE
 70
     1
  9
$HANDLING
 70
     0
  0
ENDSEC
  0
SECTION
  2
TABLES
  0
TABLE
  2
LTYPE
 70
1
  0
LTYPE
  2
CONTIN
 70
    64
  3
SOLID LINE
 72
    65
 73
     0
 40
0.0
  0
LTYPE
  2
CONTINUOUS
 70
    64
  3
SOLID LINE
 72
    65
 73
     0
 40
0.0
  0
LTYPE
  2
CENTER
 70
    64
  3
____ _ ____ _ ____ _ ____ _ ____ _ ____ _ ____
 72
    65
 73
     4
 40
     6.103
 49
     3.814
 49
    -0.763
 49
     0.763
 49
    -0.763
  0
LTYPE
  2
DASHED
 70
    64
  3
__ __ __ __ __ __ __ __ __ __ __ __ __ __ __ 
 72
    65
 73
     2
 40
   811.90
 49
   541.27
 49
  -270.63
  0
ENDTAB
  0
TABLE
  2
LAYER
 70
30
  0
LAYER
  2
0
 70
     0
 62
     7
  6
CONTIN
  0
LAYER
  2
1
 70
     0
 62
     7
  6
CONTIN
  0
LAYER
  2
2
 70
     0
 62
     7
  6
CONTIN
  0
LAYER
  2
3
 70
     0
 62
     7
  6
CONTIN
  0
LAYER
  2
4
 70
     0
 62
     5
  6
CONTIN
  0
LAYER
  2
5
 70
     0
 62
     5
  6
DASHED
  0
LAYER
  2
6
 70
     0
 62
     5
  6
DASHED
  0
LAYER
  2
7
 70
     0
 62
     5
  6
CONTIN
  0
LAYER
  2
8
 70
     0
 62
     5
  6
DASHED
  0
LAYER
  2
9
 70
     0
 62
     7
  6
CONTIN
  0
LAYER
  2
10
 70
     0
 62
     7
  6
CONTIN
  0
LAYER
  2
11
 70
     0
 62
     6
  6
DASHED
  0
LAYER
  2
12
 70
     0
 62
     7
  6
DASHED
  0
LAYER
  2
13
 70
     0
 62
     5
  6
DASHED
  0
LAYER
  2
14
 70
     0
 62
     7
  6
CONTIN
  0
LAYER
  2
15
 70
     0
 62
     5
  6
CONTIN
  0
LAYER
  2
16
 70
     0
 62
     7
  6
CONTIN
  0
LAYER
  2
17
 70
     0
 62
     7
  6
CONTIN
  0
LAYER
  2
18
 70
     0
 62
     7
  6
CONTIN
  0
LAYER
  2
19
 70
     0
 62
     7
  6
CONTIN
  0
LAYER
  2
20
 70
     0
 62
     1
  6
CONTIN
  0
LAYER
  2
21
 70
     0
 62
     7
  6
CONTIN
  0
LAYER
  2
22
 70
     0
 62
     7
  6
DASHED
  0
LAYER
  2
23
 70
     0
 62
     7
  6
DASHED
  0
LAYER
  2
24
 70
     0
 62
     7
  6
CONTIN
  0
LAYER
  2
25
 70
     0
 62
     7
  6
CONTIN
  0
LAYER
  2
26
 70
     0
 62
     7
  6
CONTIN
  0
LAYER
  2
27
 70
     0
 62
     1
  6
CENTER
  0
LAYER
  2
28
 70
     0
 62
     7
  6
CONTIN
  0
LAYER
  2
29
 70
     0
 62
     3
  6
DASHED
  0
ENDTAB
  0
TABLE
  2
STYLE
 70
  0
  0
ENDTAB
  0
ENDSEC
  0
SECTION
  2
ENTITIES
  0
LINE
  8
5
 10
   350.353
 20
  7035.035
 11
   370.253
 21
  6836.028
  0
LINE
  8
5
 10
  1842.908
 20
  7184.291
 11
  1862.809
 21
  6985.284
  0
LINE
  8
5
 10
  3335.464
 20
  7333.546
 11
  3355.365
 21
  7134.539
  0
LINE
  8
5
 10
  4828.021
 20
  7482.802
 11
  4847.921
 21
  7283.795
  0
LINE
  8
5
 10
  6320.576
 20
  7632.057
 11
  6340.477
 21
  7433.050
  0
LINE
  8
5
 10
  7813.131
 20
  7781.313
 11
  7833.033
 21
  7582.306
  0
LINE
  8
5
 10
  9305.687
 20
  7930.568
 11
  9325.588
 21
  7731.562
  0
LINE
  8
5
 10
 10798.242
 20
  8079.825
 11
 10818.144
 21
  7880.817
  0
LINE
  8
5
 10
 12290.798
 20
  8229.080
 11
 12310.699
 21
  8030.073
  0
LINE
  8
5
 10
 13783.354
 20
  8378.336
 11
 13803.255
 21
  8179.329
  0
LINE
  8
5
 10
 15275.911
 20
  8527.591
 11
 15295.812
 21
  8328.584
  0
LINE
  8
5
 10
 16768.467
 20
  8676.847
 11
 16788.367
 21
  8477.840
  0
LINE
  8
5
 10
 18261.021
 20
  8826.103
 11
 18280.922
 21
  8627.095
  0
LINE
  8
5
 10
 19753.576
 20
  8975.358
 11
 19773.479
 21
  8776.351
  0
LINE
  8
5
 10
 21246.133
 20
  9124.613
 11
 21266.033
 21
  8925.606
  0
LINE
  8
5
 10
 22738.689
 20
  9273.869
 11
 22758.590
 21
  9074.861
  0
LINE
  8
5
 10
 24231.244
 20
  9423.125
 11
 24251.146
 21
  9224.117
  0
LINE
  8
5
 10
 25723.801
 20
  9572.381
 11
 25743.701
 21
  9373.373
  0
LINE
  8
5
 10
 27216.359
 20
  9721.636
 11
 27236.260
 21
  9522.629
  0
LINE
  8
5
 10
 28708.914
 20
  9870.892
 11
 28728.812
 21
  9671.884
  0
LINE
  8
5
 10
 30201.471
 20
 10020.147
 11
 30221.371
 21
  9821.140
  0
LINE
  8
5
 10
 30798.514
 20
 10020.148
 11
 30778.613
 21
  9821.142
  0
LINE
  8
5
 10
 32291.066
 20
  9870.894
 11
 32271.168
 21
  9671.887
  0
LINE
  8
5
 10
 33783.625
 20
  9721.638
 11
 33763.727
 21
  9522.630
  0
LINE
  8
5
 10
 35276.180
 20
  9572.382
 11
 35256.281
 21
  9373.375
  0
LINE
  8
5
 10
 36768.734
 20
  9423.126
 11
 36748.836
 21
  9224.119
  0
LINE
  8
5
 10
 38261.293
 20
  9273.871
 11
 38241.391
 21
  9074.864
  0
LINE
  8
5
 10
 39753.848
 20
  9124.615
 11
 39733.949
 21
  8925.607
  0
LINE
  8
5
 10
 41246.402
 20
  8975.359
 11
 41226.504
 21
  8776.353
  0
LINE
  8
5
 10
 42738.961
 20
  8826.104
 11
 42719.059
 21
  8627.097
  0
LINE
  8
5
 10
 44231.512
 20
  8676.849
 11
 44211.613
 21
  8477.842
  0
LINE
  8
5
 10
 45724.070
 20
  8527.593
 11
 45704.172
 21
  8328.585
  0
LINE
  8
5
 10
 47216.629
 20
  8378.337
 11
 47196.727
 21
  8179.330
  0
LINE
  8
5
 10
 48709.184
 20
  8229.081
 11
 48689.285
 21
  8030.074
  0
LINE
  8
5
 10
 50201.738
 20
  8079.826
 11
 50181.840
 21
  7880.819
  0
LINE
  8
5
 10
 51694.293
 20
  7930.570
 11
 51674.391
 21
  7731.563
  0
LINE
  8
5
 10
 53186.848
 20
  7781.315
 11
 53166.949
 21
  7582.308
  0
LINE
  8
5
 10
 54679.402
 20
  7632.059
 11
 54659.504
 21
  7433.052
  0
LINE
  8
5
 10
 56171.957
 20
  7482.804
 11
 56152.059
 21
  7283.796
  0
LINE
  8
5
 10
 57664.516
 20
  7333.547
 11
 57644.617
 21
  7134.541
  0
LINE
  8
5
 10
 59157.070
 20
  7184.292
 11
 59137.172
 21
  6985.285
  0
LINE
  8
5
 10
 60649.625
 20
  7035.036
 11
 60629.727
 21
  6836.029
  0
LINE
  8
1
 10
 30398.402
 20
  8764.391
 11
 30398.402
 21
    16.000
  0
LINE
  8
1
 10
 30398.402
 20
    16.000
 11
 30386.402
 21
    16.000
  0
LINE
  8
1
 10
 30386.402
 20
    16.000
 11
 30386.402
 21
  8764.391
  0
LINE
  8
1
 10
 30386.402
 20
  8764.391
 11
 30398.402
 21
  8764.391
  0
LINE
  8
1
 10
 30601.602
 20
  8764.391
 11
 30601.602
 21
    16.000
  0
LINE
  8
1
 10
 30601.602
 20
    16.000
 11
 30613.602
 21
    16.000
  0
LINE
  8
1
 10
 30613.602
 20
    16.000
 11
 30613.602
 21
  8764.391
  0
LINE
  8
1
 10
 30613.602
 20
  8764.391
 11
 30601.602
 21
  8764.391
  0
LINE
  8
5
 10
   428.629
 20
  3680.000
 11
   492.129
 21
  3680.000
  0
LINE
  8
5
 10
  1910.987
 20
  6503.500
 11
  1917.306
 21
  6440.316
  0
LINE
  8
5
 10
  4904.918
 20
  6713.818
 11
  4911.237
 21
  6650.633
  0
LINE
  8
5
 10
  6401.195
 20
  6825.859
 11
  6407.514
 21
  6762.675
  0
LINE
  8
5
 10
  7897.474
 20
  6937.900
 11
  7903.792
 21
  6874.715
  0
LINE
  8
5
 10
 10886.055
 20
  7201.704
 11
 10892.373
 21
  7138.519
  0
LINE
  8
5
 10
 13868.678
 20
  7525.091
 11
 13874.996
 21
  7461.906
  0
LINE
  8
5
 10
 15359.991
 20
  7686.784
 11
 15366.310
 21
  7623.600
  0
LINE
  8
5
 10
 18335.814
 20
  8078.160
 11
 18342.135
 21
  8014.975
  0
LINE
  8
5
 10
 21310.887
 20
  8477.089
 11
 21317.205
 21
  8413.904
  0
LINE
  8
5
 10
 22807.807
 20
  8582.681
 11
 22814.127
 21
  8519.496
  0
LINE
  8
5
 10
 25805.326
 20
  8757.143
 11
 25811.645
 21
  8693.958
  0
LINE
  8
5
 10
 28810.043
 20
  8859.575
 11
 28816.361
 21
  8796.391
  0
LINE
  8
5
 10
 30317.525
 20
  8859.575
 11
 30323.846
 21
  8796.391
  0
LINE
  8
5
 10
 30682.455
 20
  8859.575
 11
 30676.137
 21
  8796.391
  0
LINE
  8
5
 10
 32189.936
 20
  8859.575
 11
 32183.617
 21
  8796.391
  0
LINE
  8
5
 10
 35194.656
 20
  8757.146
 11
 35188.340
 21
  8693.961
  0
LINE
  8
5
 10
 38192.172
 20
  8582.683
 11
 38185.855
 21
  8519.498
  0
LINE
  8
5
 10
 39689.094
 20
  8477.090
 11
 39682.773
 21
  8413.905
  0
LINE
  8
5
 10
 42664.164
 20
  8078.162
 11
 42657.844
 21
  8014.978
  0
LINE
  8
5
 10
 45639.988
 20
  7686.787
 11
 45633.668
 21
  7623.603
  0
LINE
  8
5
 10
 47131.301
 20
  7525.093
 11
 47124.984
 21
  7461.909
  0
LINE
  8
5
 10
 50113.926
 20
  7201.706
 11
 50107.605
 21
  7138.521
  0
LINE
  8
5
 10
 53102.512
 20
  6937.902
 11
 53096.195
 21
  6874.717
  0
LINE
  8
5
 10
 54598.789
 20
  6825.861
 11
 54592.469
 21
  6762.676
  0
LINE
  8
5
 10
 56095.062
 20
  6713.820
 11
 56088.742
 21
  6650.636
  0
LINE
  8
5
 10
 59088.992
 20
  6503.502
 11
 59082.676
 21
  6440.318
  0
LINE
  8
5
 10
 60571.379
 20
  3680.000
 11
 60507.879
 21
  3680.000
  0
LINE
  8
8
 10
  7345.000
 20
  6831.978
 11
  7345.000
 21
     0.000
  0
LINE
  8
8
 10
  7455.000
 20
  6831.978
 11
  7455.000
 21
     0.000
  0
LINE
  8
8
 10
 15045.001
 20
  7589.696
 11
 15045.001
 21
     0.000
  0
LINE
  8
8
 10
 15155.000
 20
  7589.696
 11
 15155.000
 21
     0.000
  0
LINE
  8
8
 10
 22745.000
 20
  8510.660
 11
 22745.000
 21
     0.000
  0
LINE
  8
8
 10
 22855.000
 20
  8510.660
 11
 22855.000
 21
     0.000
  0
LINE
  8
8
 10
 30445.000
 20
  8788.391
 11
 30445.000
 21
     0.000
  0
LINE
  8
8
 10
 30555.002
 20
  8788.391
 11
 30555.002
 21
     0.000
  0
LINE
  8
8
 10
 38145.000
 20
  8510.661
 11
 38145.000
 21
     0.000
  0
LINE
  8
8
 10
 38255.000
 20
  8510.661
 11
 38255.000
 21
     0.000
  0
LINE
  8
8
 10
 45845.000
 20
  7589.697
 11
 45845.000
 21
     0.000
  0
LINE
  8
8
 10
 45955.004
 20
  7589.697
 11
 45955.004
 21
     0.000
  0
LINE
  8
8
 10
 53545.004
 20
  6831.978
 11
 53545.004
 21
     0.000
  0
LINE
  8
8
 10
 53655.000
 20
  6831.978
 11
 53655.000
 21
     0.000
  0
LINE
  8
8
 10
  7345.000
 20
  6831.978
 11
  7345.000
 21
     0.000
  0
LINE
  8
8
 10
  7455.000
 20
  6831.978
 11
  7455.000
 21
     0.000
  0
LINE
  8
8
 10
 15045.001
 20
  7589.696
 11
 15045.001
 21
     0.000
  0
LINE
  8
8
 10
 15155.000
 20
  7589.696
 11
 15155.000
 21
     0.000
  0
LINE
  8
8
 10
 22745.000
 20
  8510.660
 11
 22745.000
 21
     0.000
  0
LINE
  8
8
 10
 22855.000
 20
  8510.660
 11
 22855.000
 21
     0.000
  0
LINE
  8
8
 10
 30445.000
 20
  8788.391
 11
 30445.000
 21
     0.000
  0
LINE
  8
8
 10
 30555.002
 20
  8788.391
 11
 30555.002
 21
     0.000
  0
LINE
  8
8
 10
 38145.000
 20
  8510.661
 11
 38145.000
 21
     0.000
  0
LINE
  8
8
 10
 38255.000
 20
  8510.661
 11
 38255.000
 21
     0.000
  0
LINE
  8
8
 10
 45845.000
 20
  7589.697
 11
 45845.000
 21
     0.000
  0
LINE
  8
8
 10
 45955.004
 20
  7589.697
 11
 45955.004
 21
     0.000
  0
LINE
  8
8
 10
 53545.004
 20
  6831.978
 11
 53545.004
 21
     0.000
  0
LINE
  8
8
 10
 53655.000
 20
  6831.978
 11
 53655.000
 21
     0.000
  0
LINE
  8
1
 10
 30286.402
 20
  8780.391
 11
 30286.402
 21
  8764.391
  0
LINE
  8
1
 10
 30286.402
 20
  8764.391
 11
 30713.602
 21
  8764.391
  0
LINE
  8
1
 10
 30713.602
 20
  8764.391
 11
 30713.602
 21
  8780.391
  0
LINE
  8
8
 10
     0.000
 20
     0.000
 11
     0.000
 21
  7000.000
  0
LINE
  8
8
 10
     0.000
 20
  7000.000
 11
 30500.002
 21
 10050.000
  0
LINE
  8
8
 10
 30500.002
 20
 10050.000
 11
 61000.004
 21
  7000.000
  0
LINE
  8
8
 10
 61000.004
 20
  7000.000
 11
 61000.004
 21
     0.000
  0
LINE
  8
1
 10
   155.000
 20
    16.000
 11
   405.000
 21
    16.000
  0
LINE
  8
1
 10
   405.000
 20
    16.000
 11
   555.000
 21
  6323.917
  0
LINE
  8
1
 10
   555.000
 20
  6323.917
 11
   555.000
 21
  6323.917
  0
LINE
  8
1
 10
   555.000
 20
  6323.917
 11
   155.000
 21
  6323.917
  0
LINE
  8
1
 10
   155.000
 20
    16.000
 11
   155.000
 21
  6323.917
  0
LINE
  8
5
 10
   218.000
 20
   279.000
 11
   218.000
 21
   253.000
  0
LINE
  8
5
 10
   242.000
 20
   279.000
 11
   242.000
 21
   253.000
  0
ARC
  8
5
 10
   230.000
 20
   279.000
 40
    12.000
 50
     0.000
 51
   180.000
  0
ARC
  8
5
 10
   230.000
 20
   253.000
 40
    12.000
 50
   180.000
 51
     0.000
  0
LINE
  8
1
 10
   155.000
 20
    16.000
 11
   155.000
 21
  6323.917
  0
LINE
  8
1
 10
   155.000
 20
  6323.917
 11
   150.000
 21
  6323.917
  0
LINE
  8
1
 10
   150.000
 20
  6323.917
 11
   150.000
 21
    16.000
  0
LINE
  8
1
 10
   155.000
 20
    16.000
 11
   150.000
 21
    16.000
  0
LINE
  8
5
 10
   129.600
 20
  3680.000
 11
   167.700
 21
  3680.000
  0
LINE
  8
5
 10
   129.600
 20
  5180.000
 11
   167.700
 21
  5180.000
  0
LINE
  8
1
 10
   405.005
 20
    16.190
 11
   555.000
 21
  6323.917
  0
LINE
  8
1
 10
   555.000
 20
  6323.917
 11
   562.998
 21
  6323.726
  0
LINE
  8
1
 10
   562.998
 20
  6323.726
 11
   413.002
 21
    16.000
  0
LINE
  8
1
 10
   405.005
 20
    16.190
 11
   413.002
 21
    16.000
  0
LINE
  8
1
 10
   235.000
 20
   -28.700
 11
   235.000
 21
    28.700
  0
LINE
  8
1
 10
   335.000
 20
   -28.700
 11
   335.000
 21
    28.700
  0
LINE
  8
1
 10
   135.000
 20
     0.000
 11
   435.000
 21
     0.000
  0
LINE
  8
1
 10
   435.000
 20
     0.000
 11
   435.000
 21
    16.000
  0
LINE
  8
1
 10
   435.000
 20
    16.000
 11
   135.000
 21
    16.000
  0
LINE
  8
1
 10
   135.000
 20
     0.000
 11
   135.000
 21
    16.000
  0
LINE
  8
1
 10
   105.000
 20
  6311.217
 11
   105.000
 21
  6368.617
  0
LINE
  8
1
 10
   205.000
 20
  6311.217
 11
   205.000
 21
  6368.617
  0
LINE
  8
1
 10
   505.000
 20
  6311.217
 11
   505.000
 21
  6368.617
  0
LINE
  8
1
 10
   605.000
 20
  6311.217
 11
   605.000
 21
  6368.617
  0
LINE
  8
1
 10
    55.000
 20
  6339.917
 11
   655.381
 21
  6339.917
  0
LINE
  8
1
 10
   655.381
 20
  6339.917
 11
   655.381
 21
  6323.917
  0
LINE
  8
1
 10
   655.381
 20
  6323.917
 11
    55.000
 21
  6323.917
  0
LINE
  8
1
 10
    55.000
 20
  6339.917
 11
    55.000
 21
  6323.917
  0
LINE
  8
1
 10
   150.000
 20
  6323.917
 11
   150.000
 21
  6203.917
  0
LINE
  8
1
 10
   150.000
 20
  6203.917
 11
    55.000
 21
  6323.917
  0
LINE
  8
1
 10
    55.000
 20
  6323.917
 11
    55.000
 21
  6323.917
  0
LINE
  8
1
 10
   150.000
 20
  6323.917
 11
    55.000
 21
  6323.917
  0
LINE
  8
1
 10
   563.002
 20
  6323.917
 11
   560.149
 21
  6203.917
  0
LINE
  8
1
 10
   560.149
 20
  6203.917
 11
   655.385
 21
  6323.917
  0
LINE
  8
1
 10
   655.385
 20
  6323.917
 11
   655.385
 21
  6323.917
  0
LINE
  8
1
 10
   563.002
 20
  6323.917
 11
   655.385
 21
  6323.917
  0
CIRCLE
  8
1
 10
   150.000
 20
     0.000
 40
     6.350
  0
LINE
  8
17
 10
   143.650
 20
     0.000
 11
   156.350
 21
     0.000
  0
LINE
  8
17
 10
   150.000
 20
    -6.350
 11
   150.000
 21
     6.350
  0
CIRCLE
  8
1
 10
   412.622
 20
     0.000
 40
     6.350
  0
LINE
  8
17
 10
   406.272
 20
     0.000
 11
   418.972
 21
     0.000
  0
LINE
  8
17
 10
   412.622
 20
    -6.350
 11
   412.622
 21
     6.350
  0
CIRCLE
  8
1
 10
   563.383
 20
  6339.917
 40
     6.350
  0
LINE
  8
17
 10
   557.033
 20
  6339.917
 11
   569.733
 21
  6339.917
  0
LINE
  8
17
 10
   563.383
 20
  6333.567
 11
   563.383
 21
  6346.267
  0
CIRCLE
  8
1
 10
   150.000
 20
  6339.917
 40
     6.350
  0
LINE
  8
17
 10
   143.650
 20
  6339.917
 11
   156.350
 21
  6339.917
  0
LINE
  8
17
 10
   150.000
 20
  6333.567
 11
   150.000
 21
  6346.267
  0
LINE
  8
1
 10
  9608.775
 20
  7753.850
 11
  9683.364
 21
  7007.969
  0
LINE
  8
1
 10
  9683.364
 20
  7007.969
 11
  3698.254
 21
  6559.806
  0
LINE
  8
1
 10
  3698.254
 20
  6559.806
 11
  3698.254
 21
  6559.806
  0
LINE
  8
1
 10
  3698.254
 20
  6559.806
 11
  3638.552
 21
  7156.828
  0
LINE
  8
1
 10
  9608.775
 20
  7753.850
 11
  3638.552
 21
  7156.828
  0
LINE
  8
1
 10
  3638.552
 20
  7156.828
 11
  3698.254
 21
  6559.806
  0
LINE
  8
1
 10
  3698.254
 20
  6559.806
 11
   659.382
 21
  6355.917
  0
LINE
  8
1
 10
   659.382
 20
  6355.917
 11
   155.000
 21
  6355.917
  0
LINE
  8
1
 10
   155.000
 20
  6355.917
 11
   155.000
 21
  6808.473
  0
LINE
  8
1
 10
  3638.552
 20
  7156.828
 11
   155.000
 21
  6808.473
  0
LINE
  8
5
 10
  8002.090
 20
  7529.867
 11
  7976.219
 21
  7527.280
  0
LINE
  8
5
 10
  8004.479
 20
  7505.987
 11
  7978.607
 21
  7503.399
  0
ARC
  8
5
 10
  8003.284
 20
  7517.927
 40
    12.000
 50
   -84.289
 51
    95.711
  0
ARC
  8
5
 10
  7977.413
 20
  7515.340
 40
    12.000
 50
    95.711
 51
   -84.289
  0
LINE
  8
5
 10
  7703.579
 20
  7500.017
 11
  7677.707
 21
  7497.429
  0
LINE
  8
5
 10
  7705.967
 20
  7476.136
 11
  7680.095
 21
  7473.548
  0
ARC
  8
5
 10
  7704.772
 20
  7488.076
 40
    12.000
 50
   -84.289
 51
    95.711
  0
ARC
  8
5
 10
  7678.901
 20
  7485.489
 40
    12.000
 50
    95.711
 51
   -84.289
  0
LINE
  8
5
 10
   348.336
 20
  6764.492
 11
   322.465
 21
  6761.904
  0
LINE
  8
5
 10
   350.724
 20
  6740.611
 11
   324.853
 21
  6738.023
  0
ARC
  8
5
 10
   349.530
 20
  6752.551
 40
    12.000
 50
   -84.289
 51
    95.711
  0
ARC
  8
5
 10
   323.659
 20
  6749.964
 40
    12.000
 50
    95.711
 51
   -84.289
  0
CIRCLE
  8
1
 10
   267.454
 20
  6715.000
 40
     7.000
  0
CIRCLE
  8
1
 10
   367.454
 20
  6715.000
 40
     7.000
  0
CIRCLE
  8
1
 10
   317.454
 20
  6824.718
 40
     7.000
  0
CIRCLE
  8
1
 10
   267.454
 20
  6715.000
 40
     7.000
  0
CIRCLE
  8
1
 10
   367.454
 20
  6715.000
 40
     7.000
  0
CIRCLE
  8
1
 10
   317.454
 20
  6824.718
 40
     7.000
  0
LINE
  8
5
 10
   218.000
 20
  6571.473
 11
   218.000
 21
  6545.473
  0
LINE
  8
5
 10
   242.000
 20
  6571.473
 11
   242.000
 21
  6545.473
  0
ARC
  8
5
 10
   230.000
 20
  6571.473
 40
    12.000
 50
     0.000
 51
   180.000
  0
ARC
  8
5
 10
   230.000
 20
  6545.473
 40
    12.000
 50
   180.000
 51
     0.000
  0
LINE
  8
1
 10
   517.590
 20
  6814.032
 11
   563.362
 21
  6356.315
  0
LINE
  8
1
 10
   509.630
 20
  6813.237
 11
   555.402
 21
  6355.519
  0
LINE
  8
1
 10
   517.590
 20
  6814.032
 11
   509.630
 21
  6813.237
  0
LINE
  8
1
 10
   563.362
 20
  6356.315
 11
   555.402
 21
  6355.519
  0
LINE
  8
1
 10
  9608.775
 20
  7753.850
 11
  3340.041
 21
  7126.977
  0
LINE
  8
1
 10
  3340.041
 20
  7126.977
 11
  3339.444
 21
  7132.947
  0
LINE
  8
1
 10
  3339.444
 20
  7132.947
 11
  9608.179
 21
  7759.820
  0
LINE
  8
1
 10
  9608.775
 20
  7753.850
 11
  9608.179
 21
  7759.820
  0
LINE
  8
1
 10
  3340.041
 20
  7126.977
 11
    10.498
 21
  6794.022
  0
LINE
  8
1
 10
    10.498
 20
  6794.022
 11
    10.000
 21
  6798.997
  0
LINE
  8
1
 10
    10.000
 20
  6798.997
 11
  3339.543
 21
  7131.952
  0
LINE
  8
1
 10
  3340.041
 20
  7126.977
 11
  3339.543
 21
  7131.952
  0
LINE
  8
5
 10
    97.573
 20
  6828.257
 11
   101.364
 21
  6790.346
  0
LINE
  8
1
 10
   155.000
 20
  6355.917
 11
   155.000
 21
  6807.973
  0
LINE
  8
1
 10
   155.000
 20
  6807.973
 11
   150.000
 21
  6807.973
  0
LINE
  8
1
 10
   150.000
 20
  6807.973
 11
   150.000
 21
  6355.917
  0
LINE
  8
1
 10
   155.000
 20
  6355.917
 11
   150.000
 21
  6355.917
  0
LINE
  8
1
 10
   150.000
 20
  6807.973
 11
    -0.000
 21
  6792.973
  0
LINE
  8
1
 10
    -0.000
 20
  6792.973
 11
   150.000
 21
  6732.973
  0
LINE
  8
1
 10
  9683.364
 20
  7007.969
 11
  3698.254
 21
  6559.806
  0
LINE
  8
1
 10
  3698.254
 20
  6559.806
 11
  3698.628
 21
  6554.820
  0
LINE
  8
1
 10
  3698.628
 20
  6554.820
 11
  9683.737
 21
  7002.983
  0
LINE
  8
1
 10
  9683.364
 20
  7007.969
 11
  9683.737
 21
  7002.983
  0
LINE
  8
1
 10
  3698.254
 20
  6559.806
 11
   659.382
 21
  6355.917
  0
LINE
  8
1
 10
   659.382
 20
  6355.917
 11
   659.716
 21
  6350.928
  0
LINE
  8
1
 10
   659.716
 20
  6350.928
 11
  3698.589
 21
  6554.817
  0
LINE
  8
1
 10
  3698.254
 20
  6559.806
 11
  3698.589
 21
  6554.817
  0
LINE
  8
1
 10
  9591.162
 20
  7802.338
 11
  9648.278
 21
  7808.050
  0
LINE
  8
1
 10
  9601.113
 20
  7702.835
 11
  9658.229
 21
  7708.546
  0
LINE
  8
1
 10
  9633.452
 20
  7379.448
 11
  9690.568
 21
  7385.159
  0
LINE
  8
1
 10
  9665.791
 20
  7056.061
 11
  9722.907
 21
  7061.772
  0
LINE
  8
1
 10
  9675.742
 20
  6956.557
 11
  9732.857
 21
  6962.268
  0
LINE
  8
1
 10
  9614.745
 20
  7854.946
 11
  9709.274
 21
  6909.660
  0
LINE
  8
1
 10
  9709.274
 20
  6909.660
 11
  9693.354
 21
  6908.068
  0
LINE
  8
1
 10
  9693.354
 20
  6908.068
 11
  9598.825
 21
  7853.354
  0
LINE
  8
1
 10
  9614.745
 20
  7854.946
 11
  9598.825
 21
  7853.354
  0
LINE
  8
1
 10
   105.000
 20
  6311.217
 11
   105.000
 21
  6368.617
  0
LINE
  8
1
 10
   205.000
 20
  6311.217
 11
   205.000
 21
  6368.617
  0
LINE
  8
1
 10
   505.000
 20
  6311.217
 11
   505.000
 21
  6368.617
  0
LINE
  8
1
 10
   605.000
 20
  6311.217
 11
   605.000
 21
  6368.617
  0
LINE
  8
1
 10
    55.000
 20
  6339.917
 11
   655.381
 21
  6339.917
  0
LINE
  8
1
 10
   655.381
 20
  6339.917
 11
   655.381
 21
  6355.917
  0
LINE
  8
1
 10
   655.381
 20
  6355.917
 11
    55.000
 21
  6355.917
  0
LINE
  8
1
 10
    55.000
 20
  6339.917
 11
    55.000
 21
  6355.917
  0
LINE
  8
1
 10
  9608.179
 20
  7759.820
 11
  9488.774
 21
  7747.880
  0
LINE
  8
1
 10
  9488.774
 20
  7747.880
 11
  9598.825
 21
  7853.354
  0
LINE
  8
1
 10
  9598.825
 20
  7853.354
 11
  9598.825
 21
  7853.354
  0
LINE
  8
1
 10
  9608.179
 20
  7759.820
 11
  9598.825
 21
  7853.354
  0
LINE
  8
1
 10
  9683.861
 20
  7002.993
 11
  9564.159
 21
  6994.030
  0
LINE
  8
1
 10
  9564.159
 20
  6994.030
 11
  9693.354
 21
  6908.065
  0
LINE
  8
1
 10
  9693.354
 20
  6908.065
 11
  9693.354
 21
  6908.065
  0
LINE
  8
1
 10
  9683.861
 20
  7002.993
 11
  9693.354
 21
  6908.065
  0
LINE
  8
1
 10
   150.000
 20
  6355.917
 11
   150.000
 21
  6475.917
  0
LINE
  8
1
 10
   150.000
 20
  6475.917
 11
    55.000
 21
  6355.917
  0
LINE
  8
1
 10
    55.000
 20
  6355.917
 11
    55.000
 21
  6355.917
  0
LINE
  8
1
 10
   150.000
 20
  6355.917
 11
    55.000
 21
  6355.917
  0
CIRCLE
  8
1
 10
   150.000
 20
  6339.917
 40
     6.350
  0
LINE
  8
17
 10
   143.650
 20
  6339.917
 11
   156.350
 21
  6339.917
  0
LINE
  8
17
 10
   150.000
 20
  6333.567
 11
   150.000
 21
  6346.267
  0
CIRCLE
  8
1
 10
   655.381
 20
  6339.917
 40
     6.350
  0
LINE
  8
17
 10
   649.031
 20
  6339.917
 11
   661.731
 21
  6339.917
  0
LINE
  8
17
 10
   655.381
 20
  6333.567
 11
   655.381
 21
  6346.267
  0
CIRCLE
  8
1
 10
  9699.821
 20
  7004.188
 40
     6.350
  0
LINE
  8
17
 10
  9693.472
 20
  7004.188
 11
  9706.172
 21
  7004.188
  0
LINE
  8
17
 10
  9699.821
 20
  6997.838
 11
  9699.821
 21
  7010.538
  0
CIRCLE
  8
1
 10
  9624.100
 20
  7761.412
 40
     6.350
  0
LINE
  8
17
 10
  9617.749
 20
  7761.412
 11
  9630.449
 21
  7761.412
  0
LINE
  8
17
 10
  9624.100
 20
  7755.062
 11
  9624.100
 21
  7767.762
  0
CIRCLE
  8
1
 10
   150.000
 20
  6812.998
 40
     6.350
  0
LINE
  8
17
 10
   143.650
 20
  6812.998
 11
   156.350
 21
  6812.998
  0
LINE
  8
17
 10
   150.000
 20
  6806.648
 11
   150.000
 21
  6819.348
  0
LINE
  8
1
 10
 15578.999
 20
  8350.872
 11
 15648.665
 21
  7654.214
  0
LINE
  8
1
 10
 15648.665
 20
  7654.214
 11
  9715.231
 21
  7010.889
  0
LINE
  8
1
 10
  9715.231
 20
  7010.889
 11
  9715.231
 21
  7010.889
  0
LINE
  8
1
 10
  9715.231
 20
  7010.889
 11
  9640.617
 21
  7757.034
  0
LINE
  8
1
 10
 15578.999
 20
  8350.872
 11
  9640.617
 21
  7757.034
  0
LINE
  8
5
 10
 15315.612
 20
  8261.220
 11
 15289.741
 21
  8258.632
  0
LINE
  8
5
 10
 15318.000
 20
  8237.339
 11
 15292.128
 21
  8234.752
  0
ARC
  8
5
 10
 15316.806
 20
  8249.279
 40
    12.000
 50
   -84.289
 51
    95.711
  0
ARC
  8
5
 10
 15290.935
 20
  8246.691
 40
    12.000
 50
    95.711
 51
   -84.289
  0
LINE
  8
5
 10
 15017.102
 20
  8231.368
 11
 14991.230
 21
  8228.780
  0
LINE
  8
5
 10
 15019.489
 20
  8207.487
 11
 14993.618
 21
  8204.899
  0
ARC
  8
5
 10
 15018.296
 20
  8219.428
 40
    12.000
 50
   -84.289
 51
    95.711
  0
ARC
  8
5
 10
 14992.424
 20
  8216.840
 40
    12.000
 50
    95.711
 51
   -84.289
  0
LINE
  8
1
 10
 15578.999
 20
  8350.872
 11
  9640.617
 21
  7757.034
  0
LINE
  8
1
 10
  9640.617
 20
  7757.034
 11
  9639.820
 21
  7764.994
  0
LINE
  8
1
 10
  9639.820
 20
  7764.994
 11
 15578.204
 21
  8358.832
  0
LINE
  8
1
 10
 15578.999
 20
  8350.872
 11
 15578.204
 21
  8358.832
  0
LINE
  8
1
 10
 15648.623
 20
  7654.209
 11
  9715.231
 21
  7010.889
  0
LINE
  8
1
 10
  9715.231
 20
  7010.889
 11
  9715.771
 21
  7005.918
  0
LINE
  8
1
 10
  9715.771
 20
  7005.918
 11
 15649.162
 21
  7649.238
  0
LINE
  8
1
 10
 15648.623
 20
  7654.209
 11
 15649.162
 21
  7649.238
  0
LINE
  8
1
 10
 15561.387
 20
  8399.360
 11
 15618.502
 21
  8405.072
  0
LINE
  8
1
 10
 15571.338
 20
  8299.857
 11
 15628.453
 21
  8305.569
  0
LINE
  8
1
 10
 15601.188
 20
  8001.346
 11
 15658.305
 21
  8007.058
  0
LINE
  8
1
 10
 15631.039
 20
  7702.835
 11
 15688.155
 21
  7708.546
  0
LINE
  8
1
 10
 15640.989
 20
  7603.331
 11
 15698.105
 21
  7609.042
  0
LINE
  8
1
 10
 15584.970
 20
  8451.969
 11
 15674.522
 21
  7556.435
  0
LINE
  8
1
 10
 15674.522
 20
  7556.435
 11
 15658.603
 21
  7554.843
  0
LINE
  8
1
 10
 15658.603
 20
  7554.843
 11
 15569.050
 21
  8450.376
  0
LINE
  8
1
 10
 15584.970
 20
  8451.969
 11
 15569.050
 21
  8450.376
  0
LINE
  8
1
 10
  9591.162
 20
  7802.338
 11
  9648.278
 21
  7808.050
  0
LINE
  8
1
 10
  9601.113
 20
  7702.835
 11
  9658.229
 21
  7708.546
  0
LINE
  8
1
 10
  9633.452
 20
  7379.448
 11
  9690.568
 21
  7385.159
  0
LINE
  8
1
 10
  9665.791
 20
  7056.061
 11
  9722.907
 21
  7061.772
  0
LINE
  8
1
 10
  9675.742
 20
  6956.557
 11
  9732.857
 21
  6962.268
  0
LINE
  8
1
 10
  9614.745
 20
  7854.946
 11
  9709.274
 21
  6909.660
  0
LINE
  8
1
 10
  9709.274
 20
  6909.660
 11
  9725.195
 21
  6911.252
  0
LINE
  8
1
 10
  9725.195
 20
  6911.252
 11
  9630.666
 21
  7856.538
  0
LINE
  8
1
 10
  9614.745
 20
  7854.946
 11
  9630.666
 21
  7856.538
  0
LINE
  8
1
 10
 15578.204
 20
  8358.832
 11
 15458.799
 21
  8346.892
  0
LINE
  8
1
 10
 15458.799
 20
  8346.892
 11
 15569.050
 21
  8450.376
  0
LINE
  8
1
 10
 15569.050
 20
  8450.376
 11
 15569.050
 21
  8450.376
  0
LINE
  8
1
 10
 15578.204
 20
  8358.832
 11
 15569.050
 21
  8450.376
  0
LINE
  8
1
 10
 15649.162
 20
  7649.238
 11
 15529.858
 21
  7636.303
  0
LINE
  8
1
 10
 15529.858
 20
  7636.303
 11
 15658.603
 21
  7554.843
  0
LINE
  8
1
 10
 15658.603
 20
  7554.843
 11
 15658.603
 21
  7554.843
  0
LINE
  8
1
 10
 15649.162
 20
  7649.238
 11
 15658.603
 21
  7554.843
  0
LINE
  8
1
 10
  9639.820
 20
  7764.994
 11
  9759.225
 21
  7776.935
  0
LINE
  8
1
 10
  9759.225
 20
  7776.935
 11
  9630.666
 21
  7856.538
  0
LINE
  8
1
 10
  9630.666
 20
  7856.538
 11
  9630.666
 21
  7856.538
  0
LINE
  8
1
 10
  9639.820
 20
  7764.994
 11
  9630.666
 21
  7856.538
  0
LINE
  8
1
 10
  9715.729
 20
  7005.914
 11
  9835.034
 21
  7018.849
  0
LINE
  8
1
 10
  9835.034
 20
  7018.849
 11
  9725.195
 21
  6911.251
  0
LINE
  8
1
 10
  9725.195
 20
  6911.251
 11
  9725.195
 21
  6911.251
  0
LINE
  8
1
 10
  9715.729
 20
  7005.914
 11
  9725.195
 21
  6911.251
  0
CIRCLE
  8
1
 10
  9623.900
 20
  7763.402
 40
     6.350
  0
LINE
  8
17
 10
  9617.550
 20
  7763.402
 11
  9630.250
 21
  7763.402
  0
LINE
  8
17
 10
  9623.900
 20
  7757.052
 11
  9623.900
 21
  7769.752
  0
CIRCLE
  8
1
 10
  9699.821
 20
  7004.188
 40
     6.350
  0
LINE
  8
17
 10
  9693.472
 20
  7004.188
 11
  9706.172
 21
  7004.188
  0
LINE
  8
17
 10
  9699.821
 20
  6997.839
 11
  9699.821
 21
  7010.539
  0
CIRCLE
  8
1
 10
 15665.070
 20
  7650.963
 40
     6.350
  0
LINE
  8
17
 10
 15658.720
 20
  7650.963
 11
 15671.420
 21
  7650.963
  0
LINE
  8
17
 10
 15665.070
 20
  7644.613
 11
 15665.070
 21
  7657.313
  0
CIRCLE
  8
1
 10
 15594.124
 20
  8360.425
 40
     6.350
  0
LINE
  8
17
 10
 15587.773
 20
  8360.425
 11
 15600.474
 21
  8360.425
  0
LINE
  8
17
 10
 15594.124
 20
  8354.074
 11
 15594.124
 21
  8366.774
  0
LINE
  8
1
 10
 27481.035
 20
  9541.076
 11
 27555.598
 21
  8795.461
  0
LINE
  8
1
 10
 27555.598
 20
  8795.461
 11
 21560.566
 21
  8446.536
  0
LINE
  8
1
 10
 21560.566
 20
  8446.536
 11
 21560.566
 21
  8446.536
  0
LINE
  8
1
 10
 21560.566
 20
  8446.536
 11
 21510.814
 21
  8944.055
  0
LINE
  8
1
 10
 27481.035
 20
  9541.076
 11
 21510.814
 21
  8944.055
  0
LINE
  8
1
 10
 21510.814
 20
  8944.055
 11
 21560.566
 21
  8446.536
  0
LINE
  8
1
 10
 21560.566
 20
  8446.536
 11
 15680.439
 21
  7658.066
  0
LINE
  8
1
 10
 15680.439
 20
  7658.066
 11
 15680.439
 21
  7658.066
  0
LINE
  8
1
 10
 15680.439
 20
  7658.066
 11
 15610.839
 21
  8354.057
  0
LINE
  8
1
 10
 21510.814
 20
  8944.055
 11
 15610.839
 21
  8354.057
  0
LINE
  8
5
 10
 22927.648
 20
  9022.423
 11
 22901.777
 21
  9019.835
  0
LINE
  8
5
 10
 22930.035
 20
  8998.542
 11
 22904.164
 21
  8995.955
  0
ARC
  8
5
 10
 22928.842
 20
  9010.482
 40
    12.000
 50
   -84.289
 51
    95.711
  0
ARC
  8
5
 10
 22902.971
 20
  9007.895
 40
    12.000
 50
    95.711
 51
   -84.289
  0
LINE
  8
5
 10
 22629.137
 20
  8992.572
 11
 22603.266
 21
  8989.984
  0
LINE
  8
5
 10
 22631.523
 20
  8968.691
 11
 22605.652
 21
  8966.104
  0
ARC
  8
5
 10
 22630.330
 20
  8980.632
 40
    12.000
 50
   -84.289
 51
    95.711
  0
ARC
  8
5
 10
 22604.459
 20
  8978.044
 40
    12.000
 50
    95.711
 51
   -84.289
  0
LINE
  8
1
 10
 27481.035
 20
  9541.076
 11
 21809.324
 21
  8973.905
  0
LINE
  8
1
 10
 21809.324
 20
  8973.905
 11
 21808.727
 21
  8979.876
  0
LINE
  8
1
 10
 21808.727
 20
  8979.876
 11
 27480.438
 21
  9547.047
  0
LINE
  8
1
 10
 27481.035
 20
  9541.076
 11
 27480.438
 21
  9547.047
  0
LINE
  8
1
 10
 21809.324
 20
  8973.905
 11
 15610.839
 21
  8354.057
  0
LINE
  8
1
 10
 15610.839
 20
  8354.057
 11
 15610.044
 21
  8362.017
  0
LINE
  8
1
 10
 15610.044
 20
  8362.017
 11
 21808.529
 21
  8981.865
  0
LINE
  8
1
 10
 21809.324
 20
  8973.905
 11
 21808.529
 21
  8981.865
  0
LINE
  8
1
 10
 27555.598
 20
  8795.461
 11
 21560.867
 21
  8446.554
  0
LINE
  8
1
 10
 21560.867
 20
  8446.554
 11
 21561.332
 21
  8438.567
  0
LINE
  8
1
 10
 21561.332
 20
  8438.567
 11
 27556.062
 21
  8787.475
  0
LINE
  8
1
 10
 27555.598
 20
  8795.461
 11
 27556.062
 21
  8787.475
  0
LINE
  8
1
 10
 21560.342
 20
  8446.506
 11
 15680.439
 21
  7658.066
  0
LINE
  8
1
 10
 15680.439
 20
  7658.066
 11
 15681.236
 21
  7652.120
  0
LINE
  8
1
 10
 15681.236
 20
  7652.120
 11
 21561.139
 21
  8440.560
  0
LINE
  8
1
 10
 21560.342
 20
  8446.506
 11
 21561.139
 21
  8440.560
  0
LINE
  8
1
 10
 27463.428
 20
  9589.564
 11
 27520.539
 21
  9595.276
  0
LINE
  8
1
 10
 27473.377
 20
  9490.062
 11
 27530.490
 21
  9495.773
  0
LINE
  8
1
 10
 27505.717
 20
  9166.675
 11
 27562.828
 21
  9172.386
  0
LINE
  8
1
 10
 27538.053
 20
  8843.287
 11
 27595.164
 21
  8848.998
  0
LINE
  8
1
 10
 27548.002
 20
  8743.783
 11
 27605.115
 21
  8749.494
  0
LINE
  8
1
 10
 27487.008
 20
  9642.173
 11
 27581.535
 21
  8696.887
  0
LINE
  8
1
 10
 27581.535
 20
  8696.887
 11
 27565.613
 21
  8695.295
  0
LINE
  8
1
 10
 27565.613
 20
  8695.295
 11
 27471.086
 21
  9640.580
  0
LINE
  8
1
 10
 27487.008
 20
  9642.173
 11
 27471.086
 21
  9640.580
  0
LINE
  8
1
 10
 15561.387
 20
  8399.360
 11
 15618.502
 21
  8405.072
  0
LINE
  8
1
 10
 15571.338
 20
  8299.857
 11
 15628.453
 21
  8305.569
  0
LINE
  8
1
 10
 15601.188
 20
  8001.346
 11
 15658.305
 21
  8007.058
  0
LINE
  8
1
 10
 15631.039
 20
  7702.835
 11
 15688.155
 21
  7708.546
  0
LINE
  8
1
 10
 15640.989
 20
  7603.331
 11
 15698.105
 21
  7609.042
  0
LINE
  8
1
 10
 15584.970
 20
  8451.969
 11
 15674.522
 21
  7556.435
  0
LINE
  8
1
 10
 15674.522
 20
  7556.435
 11
 15690.442
 21
  7558.027
  0
LINE
  8
1
 10
 15690.442
 20
  7558.027
 11
 15600.890
 21
  8453.561
  0
LINE
  8
1
 10
 15584.970
 20
  8451.969
 11
 15600.890
 21
  8453.561
  0
LINE
  8
1
 10
 27480.439
 20
  9547.047
 11
 27361.037
 21
  9535.106
  0
LINE
  8
1
 10
 27361.037
 20
  9535.106
 11
 27471.086
 21
  9640.580
  0
LINE
  8
1
 10
 27471.086
 20
  9640.580
 11
 27471.086
 21
  9640.580
  0
LINE
  8
1
 10
 27480.439
 20
  9547.047
 11
 27471.086
 21
  9640.580
  0
LINE
  8
1
 10
 27556.393
 20
  8787.494
 11
 27436.492
 21
  8780.515
  0
LINE
  8
1
 10
 27436.492
 20
  8780.515
 11
 27565.613
 21
  8695.280
  0
LINE
  8
1
 10
 27565.613
 20
  8695.280
 11
 27565.613
 21
  8695.280
  0
LINE
  8
1
 10
 27556.393
 20
  8787.494
 11
 27565.613
 21
  8695.280
  0
LINE
  8
1
 10
 15610.044
 20
  8362.017
 11
 15729.449
 21
  8373.957
  0
LINE
  8
1
 10
 15729.449
 20
  8373.957
 11
 15600.890
 21
  8453.561
  0
LINE
  8
1
 10
 15600.890
 20
  8453.561
 11
 15600.890
 21
  8453.561
  0
LINE
  8
1
 10
 15610.044
 20
  8362.017
 11
 15600.890
 21
  8453.561
  0
LINE
  8
1
 10
 15681.035
 20
  7652.092
 11
 15800.037
 21
  7668.050
  0
LINE
  8
1
 10
 15800.037
 20
  7668.050
 11
 15690.442
 21
  7558.020
  0
LINE
  8
1
 10
 15690.442
 20
  7558.020
 11
 15690.442
 21
  7558.020
  0
LINE
  8
1
 10
 15681.035
 20
  7652.092
 11
 15690.442
 21
  7558.020
  0
CIRCLE
  8
1
 10
 15594.124
 20
  8360.425
 40
     6.350
  0
LINE
  8
17
 10
 15587.773
 20
  8360.425
 11
 15600.474
 21
  8360.425
  0
LINE
  8
17
 10
 15594.124
 20
  8354.074
 11
 15594.124
 21
  8366.774
  0
CIRCLE
  8
1
 10
 15665.169
 20
  7649.965
 40
     6.350
  0
LINE
  8
17
 10
 15658.819
 20
  7649.965
 11
 15671.520
 21
  7649.965
  0
LINE
  8
17
 10
 15665.169
 20
  7643.616
 11
 15665.169
 21
  7656.315
  0
CIRCLE
  8
1
 10
 27572.381
 20
  8788.424
 40
     6.350
  0
LINE
  8
17
 10
 27566.031
 20
  8788.424
 11
 27578.732
 21
  8788.424
  0
LINE
  8
17
 10
 27572.381
 20
  8782.074
 11
 27572.381
 21
  8794.773
  0
CIRCLE
  8
1
 10
 27496.359
 20
  9548.639
 40
     6.350
  0
LINE
  8
17
 10
 27490.008
 20
  9548.639
 11
 27502.709
 21
  9548.639
  0
LINE
  8
17
 10
 27496.359
 20
  9542.289
 11
 27496.359
 21
  9554.988
  0
LINE
  8
1
 10
 27587.664
 20
  8796.391
 11
 27512.879
 21
  9544.261
  0
LINE
  8
1
 10
 27512.879
 20
  9544.261
 11
 30500.002
 21
  9842.973
  0
LINE
  8
1
 10
 30500.002
 20
  9842.973
 11
 33487.102
 21
  9544.263
  0
LINE
  8
1
 10
 33487.102
 20
  9544.263
 11
 33412.316
 21
  8796.391
  0
LINE
  8
1
 10
 27587.664
 20
  8796.391
 11
 33412.316
 21
  8796.391
  0
LINE
  8
5
 10
 30320.201
 20
  9761.679
 11
 30294.330
 21
  9759.091
  0
LINE
  8
5
 10
 30322.590
 20
  9737.798
 11
 30296.717
 21
  9735.210
  0
ARC
  8
5
 10
 30321.395
 20
  9749.738
 40
    12.000
 50
   -84.289
 51
    95.711
  0
ARC
  8
5
 10
 30295.523
 20
  9747.150
 40
    12.000
 50
    95.711
 51
   -84.289
  0
LINE
  8
5
 10
 30705.676
 20
  9759.090
 11
 30679.805
 21
  9761.678
  0
LINE
  8
5
 10
 30703.289
 20
  9735.210
 11
 30677.416
 21
  9737.797
  0
ARC
  8
5
 10
 30704.482
 20
  9747.149
 40
    12.000
 50
   -95.711
 51
    84.289
  0
ARC
  8
5
 10
 30678.611
 20
  9749.737
 40
    12.000
 50
    84.289
 51
   -95.711
  0
LINE
  8
1
 10
 27512.879
 20
  9544.261
 11
 30500.002
 21
  9842.973
  0
LINE
  8
1
 10
 30500.002
 20
  9842.973
 11
 30499.205
 21
  9850.933
  0
LINE
  8
1
 10
 30499.205
 20
  9850.933
 11
 27512.082
 21
  9552.221
  0
LINE
  8
1
 10
 27512.879
 20
  9544.261
 11
 27512.082
 21
  9552.221
  0
LINE
  8
1
 10
 30500.002
 20
  9842.973
 11
 33487.102
 21
  9544.263
  0
LINE
  8
1
 10
 33487.102
 20
  9544.263
 11
 33487.898
 21
  9552.223
  0
LINE
  8
1
 10
 33487.898
 20
  9552.223
 11
 30500.799
 21
  9850.933
  0
LINE
  8
1
 10
 30500.002
 20
  9842.973
 11
 30500.799
 21
  9850.933
  0
LINE
  8
1
 10
 27588.465
 20
  8796.391
 11
 30286.402
 21
  8796.391
  0
LINE
  8
1
 10
 30286.402
 20
  8796.391
 11
 30286.402
 21
  8788.391
  0
LINE
  8
1
 10
 30286.402
 20
  8788.391
 11
 27588.465
 21
  8788.391
  0
LINE
  8
1
 10
 27588.465
 20
  8796.391
 11
 27588.465
 21
  8788.391
  0
LINE
  8
1
 10
 30713.602
 20
  8796.391
 11
 33411.516
 21
  8796.391
  0
LINE
  8
1
 10
 33411.516
 20
  8796.391
 11
 33411.516
 21
  8788.391
  0
LINE
  8
1
 10
 33411.516
 20
  8788.391
 11
 30713.602
 21
  8788.391
  0
LINE
  8
1
 10
 30713.602
 20
  8796.391
 11
 30713.602
 21
  8788.391
  0
LINE
  8
1
 10
 30391.404
 20
  9726.391
 11
 30391.404
 21
  8796.391
  0
LINE
  8
1
 10
 30381.400
 20
  9726.391
 11
 30381.400
 21
  8796.391
  0
LINE
  8
1
 10
 30391.404
 20
  9726.391
 11
 30381.400
 21
  9726.391
  0
LINE
  8
1
 10
 30391.404
 20
  8796.391
 11
 30381.400
 21
  8796.391
  0
LINE
  8
1
 10
 30618.602
 20
  9726.391
 11
 30618.602
 21
  8796.391
  0
LINE
  8
1
 10
 30608.600
 20
  9726.391
 11
 30608.600
 21
  8796.391
  0
LINE
  8
1
 10
 30618.602
 20
  9726.391
 11
 30608.600
 21
  9726.391
  0
LINE
  8
1
 10
 30618.602
 20
  8796.391
 11
 30608.600
 21
  8796.391
  0
LINE
  8
1
 10
 27463.428
 20
  9589.564
 11
 27520.539
 21
  9595.276
  0
LINE
  8
1
 10
 27473.377
 20
  9490.062
 11
 27530.490
 21
  9495.773
  0
LINE
  8
1
 10
 27505.717
 20
  9166.675
 11
 27562.828
 21
  9172.386
  0
LINE
  8
1
 10
 27538.053
 20
  8843.287
 11
 27595.164
 21
  8848.998
  0
LINE
  8
1
 10
 27548.002
 20
  8743.783
 11
 27605.115
 21
  8749.494
  0
LINE
  8
1
 10
 27487.008
 20
  9642.173
 11
 27581.535
 21
  8696.887
  0
LINE
  8
1
 10
 27581.535
 20
  8696.887
 11
 27597.457
 21
  8698.479
  0
LINE
  8
1
 10
 27597.457
 20
  8698.479
 11
 27502.928
 21
  9643.765
  0
LINE
  8
1
 10
 27487.008
 20
  9642.173
 11
 27502.928
 21
  9643.765
  0
LINE
  8
1
 10
 33479.441
 20
  9595.278
 11
 33536.555
 21
  9589.567
  0
LINE
  8
1
 10
 33469.492
 20
  9495.775
 11
 33526.605
 21
  9490.064
  0
LINE
  8
1
 10
 33437.156
 20
  9172.388
 11
 33494.270
 21
  9166.677
  0
LINE
  8
1
 10
 33404.816
 20
  8849.001
 11
 33461.930
 21
  8843.289
  0
LINE
  8
1
 10
 33394.867
 20
  8749.497
 11
 33451.980
 21
  8743.785
  0
LINE
  8
1
 10
 33512.973
 20
  9642.175
 11
 33418.445
 21
  8696.888
  0
LINE
  8
1
 10
 33418.445
 20
  8696.888
 11
 33402.523
 21
  8698.479
  0
LINE
  8
1
 10
 33402.523
 20
  8698.479
 11
 33497.051
 21
  9643.767
  0
LINE
  8
1
 10
 33512.973
 20
  9642.175
 11
 33497.051
 21
  9643.767
  0
LINE
  8
1
 10
 27512.082
 20
  9552.221
 11
 27631.484
 21
  9564.161
  0
LINE
  8
1
 10
 27631.484
 20
  9564.161
 11
 27502.928
 21
  9643.765
  0
LINE
  8
1
 10
 27502.928
 20
  9643.765
 11
 27502.928
 21
  9643.765
  0
LINE
  8
1
 10
 27512.082
 20
  9552.221
 11
 27502.928
 21
  9643.765
  0
LINE
  8
1
 10
 27588.465
 20
  8788.391
 11
 27709.062
 21
  8788.391
  0
LINE
  8
1
 10
 27709.062
 20
  8788.391
 11
 27597.457
 21
  8698.479
  0
LINE
  8
1
 10
 27597.457
 20
  8698.479
 11
 27597.457
 21
  8698.479
  0
LINE
  8
1
 10
 27588.465
 20
  8788.391
 11
 27597.457
 21
  8698.479
  0
LINE
  8
1
 10
 33487.898
 20
  9552.223
 11
 33368.496
 21
  9564.163
  0
LINE
  8
1
 10
 33368.496
 20
  9564.163
 11
 33497.051
 21
  9643.767
  0
LINE
  8
1
 10
 33497.051
 20
  9643.767
 11
 33497.051
 21
  9643.767
  0
LINE
  8
1
 10
 33487.898
 20
  9552.223
 11
 33497.051
 21
  9643.767
  0
LINE
  8
1
 10
 33411.516
 20
  8788.391
 11
 33290.918
 21
  8788.391
  0
LINE
  8
1
 10
 33290.918
 20
  8788.391
 11
 33402.523
 21
  8698.479
  0
LINE
  8
1
 10
 33402.523
 20
  8698.479
 11
 33402.523
 21
  8698.479
  0
LINE
  8
1
 10
 33411.516
 20
  8788.391
 11
 33402.523
 21
  8698.479
  0
LINE
  8
1
 10
 30286.402
 20
  8796.391
 11
 30713.602
 21
  8796.391
  0
LINE
  8
1
 10
 30286.402
 20
  8796.391
 11
 30286.402
 21
  8780.391
  0
LINE
  8
1
 10
 30713.602
 20
  8796.391
 11
 30713.602
 21
  8780.391
  0
LINE
  8
1
 10
 30286.402
 20
  8780.391
 11
 30713.602
 21
  8780.391
  0
LINE
  8
5
 10
 30336.402
 20
  8821.791
 11
 30336.402
 21
  8783.690
  0
LINE
  8
5
 10
 30436.402
 20
  8821.791
 11
 30436.402
 21
  8783.690
  0
LINE
  8
5
 10
 30563.602
 20
  8821.791
 11
 30563.602
 21
  8783.690
  0
LINE
  8
5
 10
 30663.602
 20
  8821.791
 11
 30663.602
 21
  8783.690
  0
CIRCLE
  8
1
 10
 27496.160
 20
  9550.629
 40
     6.350
  0
LINE
  8
17
 10
 27489.811
 20
  9550.629
 11
 27502.510
 21
  9550.629
  0
LINE
  8
17
 10
 27496.160
 20
  9544.278
 11
 27496.160
 21
  9556.979
  0
CIRCLE
  8
1
 10
 27572.385
 20
  8788.391
 40
     6.350
  0
LINE
  8
17
 10
 27566.035
 20
  8788.391
 11
 27578.734
 21
  8788.391
  0
LINE
  8
17
 10
 27572.385
 20
  8782.041
 11
 27572.385
 21
  8794.740
  0
CIRCLE
  8
1
 10
 33427.598
 20
  8788.391
 40
     6.350
  0
LINE
  8
17
 10
 33421.246
 20
  8788.391
 11
 33433.945
 21
  8788.391
  0
LINE
  8
17
 10
 33427.598
 20
  8782.041
 11
 33427.598
 21
  8794.740
  0
CIRCLE
  8
1
 10
 33503.820
 20
  9550.631
 40
     6.350
  0
LINE
  8
17
 10
 33497.473
 20
  9550.631
 11
 33510.172
 21
  9550.631
  0
LINE
  8
17
 10
 33503.820
 20
  9544.281
 11
 33503.820
 21
  9556.980
  0
LINE
  8
1
 10
 33518.945
 20
  9541.079
 11
 33444.383
 21
  8795.463
  0
LINE
  8
1
 10
 33444.383
 20
  8795.463
 11
 39439.414
 21
  8446.538
  0
LINE
  8
1
 10
 39439.414
 20
  8446.538
 11
 39439.414
 21
  8446.538
  0
LINE
  8
1
 10
 39439.414
 20
  8446.538
 11
 39489.168
 21
  8944.057
  0
LINE
  8
1
 10
 33518.945
 20
  9541.079
 11
 39489.168
 21
  8944.057
  0
LINE
  8
1
 10
 39489.168
 20
  8944.057
 11
 39439.414
 21
  8446.538
  0
LINE
  8
1
 10
 39439.414
 20
  8446.538
 11
 45319.547
 21
  7658.069
  0
LINE
  8
1
 10
 45319.547
 20
  7658.069
 11
 45319.547
 21
  7658.069
  0
LINE
  8
1
 10
 45319.547
 20
  7658.069
 11
 45389.141
 21
  8354.059
  0
LINE
  8
1
 10
 39489.168
 20
  8944.057
 11
 45389.141
 21
  8354.059
  0
LINE
  8
5
 10
 38098.203
 20
  9019.839
 11
 38072.332
 21
  9022.426
  0
LINE
  8
5
 10
 38095.816
 20
  8995.958
 11
 38069.945
 21
  8998.545
  0
ARC
  8
5
 10
 38097.012
 20
  9007.898
 40
    12.000
 50
   -95.711
 51
    84.289
  0
ARC
  8
5
 10
 38071.141
 20
  9010.485
 40
    12.000
 50
    84.289
 51
   -95.711
  0
LINE
  8
5
 10
 38396.715
 20
  8989.986
 11
 38370.844
 21
  8992.574
  0
LINE
  8
5
 10
 38394.328
 20
  8966.106
 11
 38368.457
 21
  8968.693
  0
ARC
  8
5
 10
 38395.523
 20
  8978.047
 40
    12.000
 50
   -95.711
 51
    84.289
  0
ARC
  8
5
 10
 38369.652
 20
  8980.634
 40
    12.000
 50
    84.289
 51
   -95.711
  0
LINE
  8
1
 10
 33518.945
 20
  9541.079
 11
 39190.656
 21
  8973.908
  0
LINE
  8
1
 10
 39190.656
 20
  8973.908
 11
 39191.254
 21
  8979.878
  0
LINE
  8
1
 10
 39191.254
 20
  8979.878
 11
 33519.543
 21
  9547.049
  0
LINE
  8
1
 10
 33518.945
 20
  9541.079
 11
 33519.543
 21
  9547.049
  0
LINE
  8
1
 10
 39190.656
 20
  8973.908
 11
 45389.141
 21
  8354.059
  0
LINE
  8
1
 10
 45389.141
 20
  8354.059
 11
 45389.938
 21
  8362.019
  0
LINE
  8
1
 10
 45389.938
 20
  8362.019
 11
 39191.453
 21
  8981.868
  0
LINE
  8
1
 10
 39190.656
 20
  8973.908
 11
 39191.453
 21
  8981.868
  0
LINE
  8
1
 10
 33444.383
 20
  8795.463
 11
 39439.113
 21
  8446.556
  0
LINE
  8
1
 10
 39439.113
 20
  8446.556
 11
 39438.648
 21
  8438.569
  0
LINE
  8
1
 10
 39438.648
 20
  8438.569
 11
 33443.918
 21
  8787.477
  0
LINE
  8
1
 10
 33444.383
 20
  8795.463
 11
 33443.918
 21
  8787.477
  0
LINE
  8
1
 10
 39439.637
 20
  8446.508
 11
 45319.547
 21
  7658.069
  0
LINE
  8
1
 10
 45319.547
 20
  7658.069
 11
 45318.750
 21
  7652.122
  0
LINE
  8
1
 10
 45318.750
 20
  7652.122
 11
 39438.840
 21
  8440.561
  0
LINE
  8
1
 10
 39439.637
 20
  8446.508
 11
 39438.840
 21
  8440.561
  0
LINE
  8
1
 10
 33479.441
 20
  9595.278
 11
 33536.555
 21
  9589.567
  0
LINE
  8
1
 10
 33469.492
 20
  9495.775
 11
 33526.605
 21
  9490.064
  0
LINE
  8
1
 10
 33437.156
 20
  9172.388
 11
 33494.270
 21
  9166.677
  0
LINE
  8
1
 10
 33404.816
 20
  8849.001
 11
 33461.930
 21
  8843.289
  0
LINE
  8
1
 10
 33394.867
 20
  8749.497
 11
 33451.980
 21
  8743.785
  0
LINE
  8
1
 10
 33512.973
 20
  9642.175
 11
 33418.445
 21
  8696.888
  0
LINE
  8
1
 10
 33418.445
 20
  8696.888
 11
 33434.367
 21
  8695.296
  0
LINE
  8
1
 10
 33434.367
 20
  8695.296
 11
 33528.895
 21
  9640.583
  0
LINE
  8
1
 10
 33512.973
 20
  9642.175
 11
 33528.895
 21
  9640.583
  0
LINE
  8
1
 10
 45381.480
 20
  8405.074
 11
 45438.594
 21
  8399.363
  0
LINE
  8
1
 10
 45371.531
 20
  8305.570
 11
 45428.645
 21
  8299.859
  0
LINE
  8
1
 10
 45341.680
 20
  8007.060
 11
 45398.793
 21
  8001.349
  0
LINE
  8
1
 10
 45311.832
 20
  7708.548
 11
 45368.945
 21
  7702.837
  0
LINE
  8
1
 10
 45301.883
 20
  7609.045
 11
 45358.996
 21
  7603.333
  0
LINE
  8
1
 10
 45415.012
 20
  8451.971
 11
 45325.461
 21
  7556.437
  0
LINE
  8
1
 10
 45325.461
 20
  7556.437
 11
 45309.539
 21
  7558.029
  0
LINE
  8
1
 10
 45309.539
 20
  7558.029
 11
 45399.090
 21
  8453.562
  0
LINE
  8
1
 10
 45415.012
 20
  8451.971
 11
 45399.090
 21
  8453.562
  0
LINE
  8
1
 10
 33519.543
 20
  9547.049
 11
 33638.945
 21
  9535.108
  0
LINE
  8
1
 10
 33638.945
 20
  9535.108
 11
 33528.895
 21
  9640.583
  0
LINE
  8
1
 10
 33528.895
 20
  9640.583
 11
 33528.895
 21
  9640.583
  0
LINE
  8
1
 10
 33519.543
 20
  9547.049
 11
 33528.895
 21
  9640.583
  0
LINE
  8
1
 10
 33443.590
 20
  8787.496
 11
 33563.488
 21
  8780.518
  0
LINE
  8
1
 10
 33563.488
 20
  8780.518
 11
 33434.367
 21
  8695.281
  0
LINE
  8
1
 10
 33434.367
 20
  8695.281
 11
 33434.367
 21
  8695.281
  0
LINE
  8
1
 10
 33443.590
 20
  8787.496
 11
 33434.367
 21
  8695.281
  0
LINE
  8
1
 10
 45389.938
 20
  8362.019
 11
 45270.535
 21
  8373.959
  0
LINE
  8
1
 10
 45270.535
 20
  8373.959
 11
 45399.090
 21
  8453.562
  0
LINE
  8
1
 10
 45399.090
 20
  8453.562
 11
 45399.090
 21
  8453.562
  0
LINE
  8
1
 10
 45389.938
 20
  8362.019
 11
 45399.090
 21
  8453.562
  0
LINE
  8
1
 10
 45318.949
 20
  7652.096
 11
 45199.945
 21
  7668.053
  0
LINE
  8
1
 10
 45199.945
 20
  7668.053
 11
 45309.539
 21
  7558.022
  0
LINE
  8
1
 10
 45309.539
 20
  7558.022
 11
 45309.539
 21
  7558.022
  0
LINE
  8
1
 10
 45318.949
 20
  7652.096
 11
 45309.539
 21
  7558.022
  0
CIRCLE
  8
1
 10
 33503.621
 20
  9548.641
 40
     6.350
  0
LINE
  8
17
 10
 33497.273
 20
  9548.641
 11
 33509.973
 21
  9548.641
  0
LINE
  8
17
 10
 33503.621
 20
  9542.291
 11
 33503.621
 21
  9554.991
  0
CIRCLE
  8
1
 10
 33427.598
 20
  8788.426
 40
     6.350
  0
LINE
  8
17
 10
 33421.250
 20
  8788.426
 11
 33433.949
 21
  8788.426
  0
LINE
  8
17
 10
 33427.598
 20
  8782.076
 11
 33427.598
 21
  8794.776
  0
CIRCLE
  8
1
 10
 45334.812
 20
  7649.968
 40
     6.350
  0
LINE
  8
17
 10
 45328.465
 20
  7649.968
 11
 45341.164
 21
  7649.968
  0
LINE
  8
17
 10
 45334.812
 20
  7643.618
 11
 45334.812
 21
  7656.318
  0
CIRCLE
  8
1
 10
 45405.859
 20
  8360.427
 40
     6.350
  0
LINE
  8
17
 10
 45399.512
 20
  8360.427
 11
 45412.211
 21
  8360.427
  0
LINE
  8
17
 10
 45405.859
 20
  8354.077
 11
 45405.859
 21
  8366.776
  0
LINE
  8
1
 10
 45420.984
 20
  8350.875
 11
 45351.316
 21
  7654.216
  0
LINE
  8
1
 10
 45351.316
 20
  7654.216
 11
 51284.750
 21
  7010.891
  0
LINE
  8
1
 10
 51284.750
 20
  7010.891
 11
 51284.750
 21
  7010.891
  0
LINE
  8
1
 10
 51284.750
 20
  7010.891
 11
 51359.363
 21
  7757.037
  0
LINE
  8
1
 10
 45420.984
 20
  8350.875
 11
 51359.363
 21
  7757.037
  0
LINE
  8
5
 10
 45710.238
 20
  8258.635
 11
 45684.367
 21
  8261.222
  0
LINE
  8
5
 10
 45707.852
 20
  8234.754
 11
 45681.980
 21
  8237.341
  0
ARC
  8
5
 10
 45709.047
 20
  8246.694
 40
    12.000
 50
   -95.711
 51
    84.289
  0
ARC
  8
5
 10
 45683.172
 20
  8249.281
 40
    12.000
 50
    84.289
 51
   -95.711
  0
LINE
  8
5
 10
 46008.750
 20
  8228.783
 11
 45982.879
 21
  8231.370
  0
LINE
  8
5
 10
 46006.363
 20
  8204.902
 11
 45980.492
 21
  8207.489
  0
ARC
  8
5
 10
 46007.559
 20
  8216.843
 40
    12.000
 50
   -95.711
 51
    84.289
  0
ARC
  8
5
 10
 45981.688
 20
  8219.430
 40
    12.000
 50
    84.289
 51
   -95.711
  0
LINE
  8
1
 10
 45420.984
 20
  8350.875
 11
 51359.363
 21
  7757.037
  0
LINE
  8
1
 10
 51359.363
 20
  7757.037
 11
 51360.160
 21
  7764.997
  0
LINE
  8
1
 10
 51360.160
 20
  7764.997
 11
 45421.781
 21
  8358.835
  0
LINE
  8
1
 10
 45420.984
 20
  8350.875
 11
 45421.781
 21
  8358.835
  0
LINE
  8
1
 10
 45351.363
 20
  7654.212
 11
 51284.750
 21
  7010.891
  0
LINE
  8
1
 10
 51284.750
 20
  7010.891
 11
 51284.211
 21
  7005.920
  0
LINE
  8
1
 10
 51284.211
 20
  7005.920
 11
 45350.820
 21
  7649.241
  0
LINE
  8
1
 10
 45351.363
 20
  7654.212
 11
 45350.820
 21
  7649.241
  0
LINE
  8
1
 10
 45381.480
 20
  8405.074
 11
 45438.594
 21
  8399.363
  0
LINE
  8
1
 10
 45371.531
 20
  8305.570
 11
 45428.645
 21
  8299.859
  0
LINE
  8
1
 10
 45341.680
 20
  8007.060
 11
 45398.793
 21
  8001.349
  0
LINE
  8
1
 10
 45311.832
 20
  7708.548
 11
 45368.945
 21
  7702.837
  0
LINE
  8
1
 10
 45301.883
 20
  7609.045
 11
 45358.996
 21
  7603.333
  0
LINE
  8
1
 10
 45415.012
 20
  8451.971
 11
 45325.461
 21
  7556.437
  0
LINE
  8
1
 10
 45325.461
 20
  7556.437
 11
 45341.383
 21
  7554.845
  0
LINE
  8
1
 10
 45341.383
 20
  7554.845
 11
 45430.934
 21
  8450.379
  0
LINE
  8
1
 10
 45415.012
 20
  8451.971
 11
 45430.934
 21
  8450.379
  0
LINE
  8
1
 10
 51351.703
 20
  7808.052
 11
 51408.816
 21
  7802.341
  0
LINE
  8
1
 10
 51341.754
 20
  7708.549
 11
 51398.863
 21
  7702.837
  0
LINE
  8
1
 10
 51309.418
 20
  7385.162
 11
 51366.527
 21
  7379.450
  0
LINE
  8
1
 10
 51277.078
 20
  7061.774
 11
 51334.191
 21
  7056.063
  0
LINE
  8
1
 10
 51267.129
 20
  6962.271
 11
 51324.238
 21
  6956.559
  0
LINE
  8
1
 10
 51385.234
 20
  7854.948
 11
 51290.707
 21
  6909.663
  0
LINE
  8
1
 10
 51290.707
 20
  6909.663
 11
 51274.785
 21
  6911.255
  0
LINE
  8
1
 10
 51274.785
 20
  6911.255
 11
 51369.312
 21
  7856.541
  0
LINE
  8
1
 10
 51385.234
 20
  7854.948
 11
 51369.312
 21
  7856.541
  0
LINE
  8
1
 10
 45421.781
 20
  8358.835
 11
 45541.184
 21
  8346.895
  0
LINE
  8
1
 10
 45541.184
 20
  8346.895
 11
 45430.934
 21
  8450.379
  0
LINE
  8
1
 10
 45430.934
 20
  8450.379
 11
 45430.934
 21
  8450.379
  0
LINE
  8
1
 10
 45421.781
 20
  8358.835
 11
 45430.934
 21
  8450.379
  0
LINE
  8
1
 10
 45350.820
 20
  7649.241
 11
 45470.125
 21
  7636.305
  0
LINE
  8
1
 10
 45470.125
 20
  7636.305
 11
 45341.383
 21
  7554.845
  0
LINE
  8
1
 10
 45341.383
 20
  7554.845
 11
 45341.383
 21
  7554.845
  0
LINE
  8
1
 10
 45350.820
 20
  7649.241
 11
 45341.383
 21
  7554.845
  0
LINE
  8
1
 10
 51360.160
 20
  7764.997
 11
 51240.758
 21
  7776.937
  0
LINE
  8
1
 10
 51240.758
 20
  7776.937
 11
 51369.312
 21
  7856.541
  0
LINE
  8
1
 10
 51369.312
 20
  7856.541
 11
 51369.312
 21
  7856.541
  0
LINE
  8
1
 10
 51360.160
 20
  7764.997
 11
 51369.312
 21
  7856.541
  0
LINE
  8
1
 10
 51284.250
 20
  7005.916
 11
 51164.949
 21
  7018.851
  0
LINE
  8
1
 10
 51164.949
 20
  7018.851
 11
 51274.785
 21
  6911.254
  0
LINE
  8
1
 10
 51274.785
 20
  6911.254
 11
 51274.785
 21
  6911.254
  0
LINE
  8
1
 10
 51284.250
 20
  7005.916
 11
 51274.785
 21
  6911.254
  0
CIRCLE
  8
1
 10
 45405.859
 20
  8360.427
 40
     6.350
  0
LINE
  8
17
 10
 45399.512
 20
  8360.427
 11
 45412.211
 21
  8360.427
  0
LINE
  8
17
 10
 45405.859
 20
  8354.077
 11
 45405.859
 21
  8366.776
  0
CIRCLE
  8
1
 10
 45334.914
 20
  7650.965
 40
     6.350
  0
LINE
  8
17
 10
 45328.566
 20
  7650.965
 11
 45341.266
 21
  7650.965
  0
LINE
  8
17
 10
 45334.914
 20
  7644.615
 11
 45334.914
 21
  7657.315
  0
CIRCLE
  8
1
 10
 51300.160
 20
  7004.191
 40
     6.350
  0
LINE
  8
17
 10
 51293.812
 20
  7004.191
 11
 51306.512
 21
  7004.191
  0
LINE
  8
17
 10
 51300.160
 20
  6997.841
 11
 51300.160
 21
  7010.541
  0
CIRCLE
  8
1
 10
 51376.082
 20
  7763.404
 40
     6.350
  0
LINE
  8
17
 10
 51369.730
 20
  7763.404
 11
 51382.434
 21
  7763.404
  0
LINE
  8
17
 10
 51376.082
 20
  7757.054
 11
 51376.082
 21
  7769.754
  0
LINE
  8
1
 10
 51391.207
 20
  7753.852
 11
 51316.617
 21
  7007.971
  0
LINE
  8
1
 10
 51316.617
 20
  7007.971
 11
 57301.723
 21
  6559.808
  0
LINE
  8
1
 10
 57301.723
 20
  6559.808
 11
 57301.723
 21
  6559.808
  0
LINE
  8
1
 10
 57301.723
 20
  6559.808
 11
 57361.430
 21
  7156.831
  0
LINE
  8
1
 10
 51391.207
 20
  7753.852
 11
 57361.430
 21
  7156.831
  0
LINE
  8
1
 10
 57361.430
 20
  7156.831
 11
 57301.723
 21
  6559.808
  0
LINE
  8
1
 10
 57301.723
 20
  6559.808
 11
 60340.625
 21
  6355.917
  0
LINE
  8
1
 10
 60340.625
 20
  6355.917
 11
 60845.004
 21
  6355.917
  0
LINE
  8
1
 10
 60845.004
 20
  6355.917
 11
 60845.004
 21
  6808.473
  0
LINE
  8
1
 10
 57361.430
 20
  7156.831
 11
 60845.004
 21
  6808.473
  0
LINE
  8
5
 10
 53023.770
 20
  7527.282
 11
 52997.898
 21
  7529.870
  0
LINE
  8
5
 10
 53021.383
 20
  7503.401
 11
 52995.512
 21
  7505.989
  0
ARC
  8
5
 10
 53022.574
 20
  7515.342
 40
    12.000
 50
   -95.711
 51
    84.289
  0
ARC
  8
5
 10
 52996.703
 20
  7517.929
 40
    12.000
 50
    84.289
 51
   -95.711
  0
LINE
  8
5
 10
 53322.277
 20
  7497.431
 11
 53296.406
 21
  7500.018
  0
LINE
  8
5
 10
 53319.891
 20
  7473.550
 11
 53294.016
 21
  7476.137
  0
ARC
  8
5
 10
 53321.078
 20
  7485.490
 40
    12.000
 50
   -95.711
 51
    84.289
  0
ARC
  8
5
 10
 53295.207
 20
  7488.078
 40
    12.000
 50
    84.289
 51
   -95.711
  0
LINE
  8
5
 10
 60677.543
 20
  6761.904
 11
 60651.672
 21
  6764.492
  0
LINE
  8
5
 10
 60675.156
 20
  6738.023
 11
 60649.281
 21
  6740.611
  0
ARC
  8
5
 10
 60676.344
 20
  6749.964
 40
    12.000
 50
   -95.711
 51
    84.289
  0
ARC
  8
5
 10
 60650.473
 20
  6752.551
 40
    12.000
 50
    84.289
 51
   -95.711
  0
CIRCLE
  8
1
 10
 60632.559
 20
  6715.000
 40
     7.000
  0
CIRCLE
  8
1
 10
 60732.559
 20
  6715.000
 40
     7.000
  0
CIRCLE
  8
1
 10
 60682.559
 20
  6824.718
 40
     7.000
  0
CIRCLE
  8
1
 10
 60632.559
 20
  6715.000
 40
     7.000
  0
CIRCLE
  8
1
 10
 60732.559
 20
  6715.000
 40
     7.000
  0
CIRCLE
  8
1
 10
 60682.559
 20
  6824.718
 40
     7.000
  0
LINE
  8
5
 10
 60782.008
 20
  6545.473
 11
 60782.008
 21
  6571.473
  0
LINE
  8
5
 10
 60758.008
 20
  6545.473
 11
 60758.008
 21
  6571.473
  0
ARC
  8
5
 10
 60770.008
 20
  6545.473
 40
    12.000
 50
  -180.000
 51
     0.000
  0
ARC
  8
5
 10
 60770.008
 20
  6571.473
 40
    12.000
 50
     0.000
 51
  -180.000
  0
LINE
  8
1
 10
 60490.379
 20
  6813.237
 11
 60444.605
 21
  6355.519
  0
LINE
  8
1
 10
 60482.414
 20
  6814.032
 11
 60436.645
 21
  6356.315
  0
LINE
  8
1
 10
 60490.379
 20
  6813.237
 11
 60482.414
 21
  6814.032
  0
LINE
  8
1
 10
 60444.605
 20
  6355.519
 11
 60436.645
 21
  6356.315
  0
LINE
  8
1
 10
 51391.207
 20
  7753.852
 11
 57659.941
 21
  7126.979
  0
LINE
  8
1
 10
 57659.941
 20
  7126.979
 11
 57660.535
 21
  7132.949
  0
LINE
  8
1
 10
 57660.535
 20
  7132.949
 11
 51391.805
 21
  7759.822
  0
LINE
  8
1
 10
 51391.207
 20
  7753.852
 11
 51391.805
 21
  7759.822
  0
LINE
  8
1
 10
 57659.941
 20
  7126.979
 11
 60989.504
 21
  6794.022
  0
LINE
  8
1
 10
 60989.504
 20
  6794.022
 11
 60990.000
 21
  6798.997
  0
LINE
  8
1
 10
 60990.000
 20
  6798.997
 11
 57660.438
 21
  7131.954
  0
LINE
  8
1
 10
 57659.941
 20
  7126.979
 11
 57660.438
 21
  7131.954
  0
LINE
  8
5
 10
 60902.434
 20
  6828.255
 11
 60898.637
 21
  6790.344
  0
LINE
  8
1
 10
 60845.004
 20
  6807.973
 11
 60845.004
 21
  6355.917
  0
LINE
  8
1
 10
 60845.004
 20
  6355.917
 11
 60850.004
 21
  6355.917
  0
LINE
  8
1
 10
 60850.004
 20
  6355.917
 11
 60850.004
 21
  6807.973
  0
LINE
  8
1
 10
 60845.004
 20
  6807.973
 11
 60850.004
 21
  6807.973
  0
LINE
  8
1
 10
 60850.004
 20
  6807.973
 11
 61000.004
 21
  6792.973
  0
LINE
  8
1
 10
 61000.004
 20
  6792.973
 11
 60850.004
 21
  6732.973
  0
LINE
  8
1
 10
 51316.617
 20
  7007.971
 11
 57301.723
 21
  6559.808
  0
LINE
  8
1
 10
 57301.723
 20
  6559.808
 11
 57301.352
 21
  6554.822
  0
LINE
  8
1
 10
 57301.352
 20
  6554.822
 11
 51316.246
 21
  7002.986
  0
LINE
  8
1
 10
 51316.617
 20
  7007.971
 11
 51316.246
 21
  7002.986
  0
LINE
  8
1
 10
 57301.723
 20
  6559.808
 11
 60340.625
 21
  6355.917
  0
LINE
  8
1
 10
 60340.625
 20
  6355.917
 11
 60340.293
 21
  6350.928
  0
LINE
  8
1
 10
 60340.293
 20
  6350.928
 11
 57301.387
 21
  6554.819
  0
LINE
  8
1
 10
 57301.723
 20
  6559.808
 11
 57301.387
 21
  6554.819
  0
LINE
  8
1
 10
 51351.703
 20
  7808.052
 11
 51408.816
 21
  7802.341
  0
LINE
  8
1
 10
 51341.754
 20
  7708.549
 11
 51398.863
 21
  7702.837
  0
LINE
  8
1
 10
 51309.418
 20
  7385.162
 11
 51366.527
 21
  7379.450
  0
LINE
  8
1
 10
 51277.078
 20
  7061.774
 11
 51334.191
 21
  7056.063
  0
LINE
  8
1
 10
 51267.129
 20
  6962.271
 11
 51324.238
 21
  6956.559
  0
LINE
  8
1
 10
 51385.234
 20
  7854.948
 11
 51290.707
 21
  6909.663
  0
LINE
  8
1
 10
 51290.707
 20
  6909.663
 11
 51306.629
 21
  6908.070
  0
LINE
  8
1
 10
 51306.629
 20
  6908.070
 11
 51401.156
 21
  7853.356
  0
LINE
  8
1
 10
 51385.234
 20
  7854.948
 11
 51401.156
 21
  7853.356
  0
LINE
  8
1
 10
 60895.004
 20
  6368.617
 11
 60895.004
 21
  6311.217
  0
LINE
  8
1
 10
 60795.004
 20
  6368.617
 11
 60795.004
 21
  6311.217
  0
LINE
  8
1
 10
 60495.004
 20
  6368.617
 11
 60495.004
 21
  6311.217
  0
LINE
  8
1
 10
 60395.004
 20
  6368.617
 11
 60395.004
 21
  6311.217
  0
LINE
  8
1
 10
 60945.004
 20
  6339.917
 11
 60344.625
 21
  6339.917
  0
LINE
  8
1
 10
 60344.625
 20
  6339.917
 11
 60344.625
 21
  6355.917
  0
LINE
  8
1
 10
 60344.625
 20
  6355.917
 11
 60945.004
 21
  6355.917
  0
LINE
  8
1
 10
 60945.004
 20
  6339.917
 11
 60945.004
 21
  6355.917
  0
LINE
  8
1
 10
 51391.801
 20
  7759.822
 11
 51511.207
 21
  7747.882
  0
LINE
  8
1
 10
 51511.207
 20
  7747.882
 11
 51401.156
 21
  7853.356
  0
LINE
  8
1
 10
 51401.156
 20
  7853.356
 11
 51401.156
 21
  7853.356
  0
LINE
  8
1
 10
 51391.801
 20
  7759.822
 11
 51401.156
 21
  7853.356
  0
LINE
  8
1
 10
 51316.121
 20
  7002.995
 11
 51435.820
 21
  6994.032
  0
LINE
  8
1
 10
 51435.820
 20
  6994.032
 11
 51306.625
 21
  6908.067
  0
LINE
  8
1
 10
 51306.625
 20
  6908.067
 11
 51306.625
 21
  6908.067
  0
LINE
  8
1
 10
 51316.121
 20
  7002.995
 11
 51306.625
 21
  6908.067
  0
LINE
  8
1
 10
 60850.004
 20
  6355.917
 11
 60850.004
 21
  6475.917
  0
LINE
  8
1
 10
 60850.004
 20
  6475.917
 11
 60945.004
 21
  6355.917
  0
LINE
  8
1
 10
 60945.004
 20
  6355.917
 11
 60945.004
 21
  6355.917
  0
LINE
  8
1
 10
 60850.004
 20
  6355.917
 11
 60945.004
 21
  6355.917
  0
CIRCLE
  8
1
 10
 51375.883
 20
  7761.415
 40
     6.350
  0
LINE
  8
17
 10
 51369.535
 20
  7761.415
 11
 51382.234
 21
  7761.415
  0
LINE
  8
17
 10
 51375.883
 20
  7755.064
 11
 51375.883
 21
  7767.765
  0
CIRCLE
  8
1
 10
 51300.156
 20
  7004.190
 40
     6.350
  0
LINE
  8
17
 10
 51293.809
 20
  7004.190
 11
 51306.508
 21
  7004.190
  0
LINE
  8
17
 10
 51300.156
 20
  6997.840
 11
 51300.156
 21
  7010.540
  0
CIRCLE
  8
1
 10
 60344.625
 20
  6339.917
 40
     6.350
  0
LINE
  8
17
 10
 60338.277
 20
  6339.917
 11
 60350.977
 21
  6339.917
  0
LINE
  8
17
 10
 60344.625
 20
  6333.567
 11
 60344.625
 21
  6346.267
  0
CIRCLE
  8
1
 10
 60850.004
 20
  6339.917
 40
     6.350
  0
LINE
  8
17
 10
 60843.652
 20
  6339.917
 11
 60856.352
 21
  6339.917
  0
LINE
  8
17
 10
 60850.004
 20
  6333.567
 11
 60850.004
 21
  6346.267
  0
CIRCLE
  8
1
 10
 60850.004
 20
  6812.998
 40
     6.350
  0
LINE
  8
17
 10
 60843.652
 20
  6812.998
 11
 60856.352
 21
  6812.998
  0
LINE
  8
17
 10
 60850.004
 20
  6806.648
 11
 60850.004
 21
  6819.348
  0
LINE
  8
1
 10
 60845.004
 20
    16.000
 11
 60595.004
 21
    16.000
  0
LINE
  8
1
 10
 60595.004
 20
    16.000
 11
 60445.004
 21
  6323.917
  0
LINE
  8
1
 10
 60445.004
 20
  6323.917
 11
 60445.004
 21
  6323.917
  0
LINE
  8
1
 10
 60445.004
 20
  6323.917
 11
 60845.004
 21
  6323.917
  0
LINE
  8
1
 10
 60845.004
 20
    16.000
 11
 60845.004
 21
  6323.917
  0
LINE
  8
5
 10
 60782.008
 20
   253.000
 11
 60782.008
 21
   279.000
  0
LINE
  8
5
 10
 60758.008
 20
   253.000
 11
 60758.008
 21
   279.000
  0
ARC
  8
5
 10
 60770.008
 20
   253.000
 40
    12.000
 50
  -180.000
 51
     0.000
  0
ARC
  8
5
 10
 60770.008
 20
   279.000
 40
    12.000
 50
     0.000
 51
  -180.000
  0
LINE
  8
1
 10
 60845.004
 20
    16.000
 11
 60845.004
 21
  6323.917
  0
LINE
  8
1
 10
 60845.004
 20
  6323.917
 11
 60850.004
 21
  6323.917
  0
LINE
  8
1
 10
 60850.004
 20
  6323.917
 11
 60850.004
 21
    16.000
  0
LINE
  8
1
 10
 60845.004
 20
    16.000
 11
 60850.004
 21
    16.000
  0
LINE
  8
5
 10
 60870.406
 20
  5180.000
 11
 60832.305
 21
  5180.000
  0
LINE
  8
5
 10
 60870.406
 20
  3680.000
 11
 60832.305
 21
  3680.000
  0
LINE
  8
1
 10
 60595.000
 20
    16.190
 11
 60445.004
 21
  6323.917
  0
LINE
  8
1
 10
 60445.004
 20
  6323.917
 11
 60437.004
 21
  6323.726
  0
LINE
  8
1
 10
 60437.004
 20
  6323.726
 11
 60587.000
 21
    16.000
  0
LINE
  8
1
 10
 60595.000
 20
    16.190
 11
 60587.000
 21
    16.000
  0
LINE
  8
1
 10
 60765.004
 20
    28.700
 11
 60765.004
 21
   -28.700
  0
LINE
  8
1
 10
 60665.004
 20
    28.700
 11
 60665.004
 21
   -28.700
  0
LINE
  8
1
 10
 60865.004
 20
    -0.000
 11
 60565.004
 21
     0.000
  0
LINE
  8
1
 10
 60565.004
 20
     0.000
 11
 60565.004
 21
    16.000
  0
LINE
  8
1
 10
 60565.004
 20
    16.000
 11
 60865.004
 21
    16.000
  0
LINE
  8
1
 10
 60865.004
 20
    -0.000
 11
 60865.004
 21
    16.000
  0
LINE
  8
1
 10
 60895.004
 20
  6368.617
 11
 60895.004
 21
  6311.217
  0
LINE
  8
1
 10
 60795.004
 20
  6368.617
 11
 60795.004
 21
  6311.217
  0
LINE
  8
1
 10
 60495.004
 20
  6368.617
 11
 60495.004
 21
  6311.217
  0
LINE
  8
1
 10
 60395.004
 20
  6368.617
 11
 60395.004
 21
  6311.217
  0
LINE
  8
1
 10
 60945.004
 20
  6339.917
 11
 60344.625
 21
  6339.917
  0
LINE
  8
1
 10
 60344.625
 20
  6339.917
 11
 60344.625
 21
  6323.917
  0
LINE
  8
1
 10
 60344.625
 20
  6323.917
 11
 60945.004
 21
  6323.917
  0
LINE
  8
1
 10
 60945.004
 20
  6339.917
 11
 60945.004
 21
  6323.917
  0
LINE
  8
1
 10
 60850.004
 20
  6323.917
 11
 60850.004
 21
  6203.917
  0
LINE
  8
1
 10
 60850.004
 20
  6203.917
 11
 60945.004
 21
  6323.917
  0
LINE
  8
1
 10
 60945.004
 20
  6323.917
 11
 60945.004
 21
  6323.917
  0
LINE
  8
1
 10
 60850.004
 20
  6323.917
 11
 60945.004
 21
  6323.917
  0
LINE
  8
1
 10
 60437.000
 20
  6323.917
 11
 60439.852
 21
  6203.917
  0
LINE
  8
1
 10
 60439.852
 20
  6203.917
 11
 60344.621
 21
  6323.917
  0
LINE
  8
1
 10
 60344.621
 20
  6323.917
 11
 60344.621
 21
  6323.917
  0
LINE
  8
1
 10
 60437.000
 20
  6323.917
 11
 60344.621
 21
  6323.917
  0
CIRCLE
  8
1
 10
 60850.004
 20
  6339.917
 40
     6.350
  0
LINE
  8
17
 10
 60843.652
 20
  6339.917
 11
 60856.352
 21
  6339.917
  0
LINE
  8
17
 10
 60850.004
 20
  6333.567
 11
 60850.004
 21
  6346.267
  0
CIRCLE
  8
1
 10
 60436.625
 20
  6339.917
 40
     6.350
  0
LINE
  8
17
 10
 60430.277
 20
  6339.917
 11
 60442.977
 21
  6339.917
  0
LINE
  8
17
 10
 60436.625
 20
  6333.567
 11
 60436.625
 21
  6346.267
  0
CIRCLE
  8
1
 10
 60587.383
 20
     0.000
 40
     6.350
  0
LINE
  8
17
 10
 60581.031
 20
     0.000
 11
 60593.734
 21
     0.000
  0
LINE
  8
17
 10
 60587.383
 20
    -6.350
 11
 60587.383
 21
     6.350
  0
CIRCLE
  8
1
 10
 60850.004
 20
    -0.000
 40
     6.350
  0
LINE
  8
17
 10
 60843.652
 20
    -0.000
 11
 60856.352
 21
    -0.000
  0
LINE
  8
17
 10
 60850.004
 20
    -6.350
 11
 60850.004
 21
     6.350
  0
LINE
  8
1
 10
 30350.002
 20
     0.000
 11
 30650.002
 21
     0.000
  0
LINE
  8
1
 10
 30350.002
 20
    16.000
 11
 30650.002
 21
    16.000
  0
LINE
  8
1
 10
 30350.002
 20
     0.000
 11
 30350.002
 21
    16.000
  0
LINE
  8
1
 10
 30650.002
 20
     0.000
 11
 30650.002
 21
    16.000
  0
LINE
  8
1
 10
 30450.002
 20
    25.400
 11
 30450.002
 21
   -25.400
  0
LINE
  8
1
 10
 30550.002
 20
    25.400
 11
 30550.002
 21
   -25.400
  0
LINE
  8
1
 10
 30386.402
 20
  8644.391
 11
 30266.402
 21
  8764.391
  0
LINE
  8
1
 10
 30266.402
 20
  8764.391
 11
 30266.402
 21
  8764.391
  0
LINE
  8
1
 10
 30613.602
 20
  8644.391
 11
 30733.600
 21
  8764.391
  0
LINE
  8
1
 10
 30733.600
 20
  8764.391
 11
 30733.600
 21
  8764.391
  0
CIRCLE
  8
1
 10
 30386.402
 20
     0.000
 40
    19.050
  0
CIRCLE
  8
1
 10
 30613.602
 20
     0.000
 40
    19.050
  0
CIRCLE
  8
1
 10
 30613.602
 20
  8780.391
 40
    19.050
  0
CIRCLE
  8
1
 10
 30386.402
 20
  8780.391
 40
    19.050
  0
CIRCLE
  8
1
 10
     0.000
 20
     0.000
 40
    19.050
  0
CIRCLE
  8
1
 10
 30386.402
 20
     0.000
 40
    19.050
  0
CIRCLE
  8
1
 10
 30613.602
 20
     0.000
 40
    19.050
  0
CIRCLE
  8
1
 10
 30613.602
 20
  8780.391
 40
    19.050
  0
CIRCLE
  8
1
 10
 30386.402
 20
  8780.391
 40
    19.050
  0
CIRCLE
  8
1
 10
     0.000
 20
     0.000
 40
    19.050
  0
LINE
  8
3
 10
    -0.000
 20
  3680.000
 11
  -175.915
 21
  3578.293
  0
LINE
  8
3
 10
    -0.000
 20
  3680.000
 11
  -176.007
 21
  3781.547
  0
LINE
  8
3
 10
  -176.007
 20
  3781.547
 11
  -175.915
 21
  3578.293
  0
LINE
  8
3
 10
  1842.908
 20
  7184.291
 11
  1724.202
 21
  7349.212
  0
LINE
  8
3
 10
  1842.908
 20
  7184.291
 11
  1926.438
 21
  7369.528
  0
LINE
  8
3
 10
  1926.438
 20
  7369.528
 11
  1724.202
 21
  7349.212
  0
LINE
  8
3
 10
  4828.021
 20
  7482.802
 11
  4709.314
 21
  7647.724
  0
LINE
  8
3
 10
  4828.021
 20
  7482.802
 11
  4911.550
 21
  7668.040
  0
LINE
  8
3
 10
  4911.550
 20
  7668.040
 11
  4709.314
 21
  7647.724
  0
LINE
  8
3
 10
  6320.576
 20
  7632.057
 11
  6201.870
 21
  7796.979
  0
LINE
  8
3
 10
  6320.576
 20
  7632.057
 11
  6404.105
 21
  7817.295
  0
LINE
  8
3
 10
  6404.105
 20
  7817.295
 11
  6201.870
 21
  7796.979
  0
LINE
  8
3
 10
  7813.131
 20
  7781.313
 11
  7694.426
 21
  7946.235
  0
LINE
  8
3
 10
  7813.131
 20
  7781.313
 11
  7896.661
 21
  7966.551
  0
LINE
  8
3
 10
  7896.661
 20
  7966.551
 11
  7694.426
 21
  7946.235
  0
LINE
  8
3
 10
 10798.242
 20
  8079.825
 11
 10679.536
 21
  8244.746
  0
LINE
  8
3
 10
 10798.242
 20
  8079.825
 11
 10881.772
 21
  8265.062
  0
LINE
  8
3
 10
 10881.772
 20
  8265.062
 11
 10679.536
 21
  8244.746
  0
LINE
  8
3
 10
 13783.354
 20
  8378.336
 11
 13664.647
 21
  8543.258
  0
LINE
  8
3
 10
 13783.354
 20
  8378.336
 11
 13866.884
 21
  8563.573
  0
LINE
  8
3
 10
 13866.884
 20
  8563.573
 11
 13664.647
 21
  8543.258
  0
LINE
  8
3
 10
 15275.911
 20
  8527.591
 11
 15157.205
 21
  8692.513
  0
LINE
  8
3
 10
 15275.911
 20
  8527.591
 11
 15359.440
 21
  8712.828
  0
LINE
  8
3
 10
 15359.440
 20
  8712.828
 11
 15157.205
 21
  8692.513
  0
LINE
  8
3
 10
 18261.021
 20
  8826.103
 11
 18142.316
 21
  8991.024
  0
LINE
  8
3
 10
 18261.021
 20
  8826.103
 11
 18344.551
 21
  9011.340
  0
LINE
  8
3
 10
 18344.551
 20
  9011.340
 11
 18142.316
 21
  8991.024
  0
LINE
  8
3
 10
 21246.133
 20
  9124.613
 11
 21127.426
 21
  9289.535
  0
LINE
  8
3
 10
 21246.133
 20
  9124.613
 11
 21329.662
 21
  9309.851
  0
LINE
  8
3
 10
 21329.662
 20
  9309.851
 11
 21127.426
 21
  9289.535
  0
LINE
  8
3
 10
 22738.689
 20
  9273.869
 11
 22619.982
 21
  9438.790
  0
LINE
  8
3
 10
 22738.689
 20
  9273.869
 11
 22822.219
 21
  9459.106
  0
LINE
  8
3
 10
 22822.219
 20
  9459.106
 11
 22619.982
 21
  9438.790
  0
LINE
  8
3
 10
 25723.801
 20
  9572.381
 11
 25605.094
 21
  9737.303
  0
LINE
  8
3
 10
 25723.801
 20
  9572.381
 11
 25807.330
 21
  9757.618
  0
LINE
  8
3
 10
 25807.330
 20
  9757.618
 11
 25605.094
 21
  9737.303
  0
LINE
  8
3
 10
 28708.914
 20
  9870.892
 11
 28590.207
 21
 10035.812
  0
LINE
  8
3
 10
 28708.914
 20
  9870.892
 11
 28792.443
 21
 10056.129
  0
LINE
  8
3
 10
 28792.443
 20
 10056.129
 11
 28590.207
 21
 10035.812
  0
LINE
  8
3
 10
 30201.471
 20
 10020.147
 11
 30082.766
 21
 10185.069
  0
LINE
  8
3
 10
 30201.471
 20
 10020.147
 11
 30285.000
 21
 10205.385
  0
LINE
  8
3
 10
 30285.000
 20
 10205.385
 11
 30082.766
 21
 10185.069
  0
LINE
  8
3
 10
 30798.514
 20
 10020.148
 11
 30714.816
 21
 10205.311
  0
LINE
  8
3
 10
 30798.514
 20
 10020.148
 11
 30917.070
 21
 10185.178
  0
LINE
  8
3
 10
 30917.070
 20
 10185.178
 11
 30714.816
 21
 10205.311
  0
LINE
  8
3
 10
 32291.066
 20
  9870.894
 11
 32207.369
 21
 10056.056
  0
LINE
  8
3
 10
 32291.066
 20
  9870.894
 11
 32409.625
 21
 10035.923
  0
LINE
  8
3
 10
 32409.625
 20
 10035.923
 11
 32207.369
 21
 10056.056
  0
LINE
  8
3
 10
 35276.180
 20
  9572.382
 11
 35192.484
 21
  9757.545
  0
LINE
  8
3
 10
 35276.180
 20
  9572.382
 11
 35394.738
 21
  9737.412
  0
LINE
  8
3
 10
 35394.738
 20
  9737.412
 11
 35192.484
 21
  9757.545
  0
LINE
  8
3
 10
 38261.293
 20
  9273.871
 11
 38177.594
 21
  9459.033
  0
LINE
  8
3
 10
 38261.293
 20
  9273.871
 11
 38379.848
 21
  9438.900
  0
LINE
  8
3
 10
 38379.848
 20
  9438.900
 11
 38177.594
 21
  9459.033
  0
LINE
  8
3
 10
 39753.848
 20
  9124.615
 11
 39670.152
 21
  9309.777
  0
LINE
  8
3
 10
 39753.848
 20
  9124.615
 11
 39872.406
 21
  9289.645
  0
LINE
  8
3
 10
 39872.406
 20
  9289.645
 11
 39670.152
 21
  9309.777
  0
LINE
  8
3
 10
 42738.961
 20
  8826.104
 11
 42655.262
 21
  9011.266
  0
LINE
  8
3
 10
 42738.961
 20
  8826.104
 11
 42857.516
 21
  8991.133
  0
LINE
  8
3
 10
 42857.516
 20
  8991.133
 11
 42655.262
 21
  9011.266
  0
LINE
  8
3
 10
 45724.070
 20
  8527.593
 11
 45640.375
 21
  8712.755
  0
LINE
  8
3
 10
 45724.070
 20
  8527.593
 11
 45842.629
 21
  8692.622
  0
LINE
  8
3
 10
 45842.629
 20
  8692.622
 11
 45640.375
 21
  8712.755
  0
LINE
  8
3
 10
 47216.629
 20
  8378.337
 11
 47132.930
 21
  8563.500
  0
LINE
  8
3
 10
 47216.629
 20
  8378.337
 11
 47335.184
 21
  8543.367
  0
LINE
  8
3
 10
 47335.184
 20
  8543.367
 11
 47132.930
 21
  8563.500
  0
LINE
  8
3
 10
 50201.738
 20
  8079.826
 11
 50118.039
 21
  8264.988
  0
LINE
  8
3
 10
 50201.738
 20
  8079.826
 11
 50320.297
 21
  8244.855
  0
LINE
  8
3
 10
 50320.297
 20
  8244.855
 11
 50118.039
 21
  8264.988
  0
LINE
  8
3
 10
 53186.848
 20
  7781.315
 11
 53103.152
 21
  7966.477
  0
LINE
  8
3
 10
 53186.848
 20
  7781.315
 11
 53305.402
 21
  7946.344
  0
LINE
  8
3
 10
 53305.402
 20
  7946.344
 11
 53103.152
 21
  7966.477
  0
LINE
  8
3
 10
 54679.402
 20
  7632.059
 11
 54595.707
 21
  7817.221
  0
LINE
  8
3
 10
 54679.402
 20
  7632.059
 11
 54797.957
 21
  7797.088
  0
LINE
  8
3
 10
 54797.957
 20
  7797.088
 11
 54595.707
 21
  7817.221
  0
LINE
  8
3
 10
 56171.957
 20
  7482.804
 11
 56088.258
 21
  7667.966
  0
LINE
  8
3
 10
 56171.957
 20
  7482.804
 11
 56290.512
 21
  7647.833
  0
LINE
  8
3
 10
 56290.512
 20
  7647.833
 11
 56088.258
 21
  7667.966
  0
LINE
  8
3
 10
 59157.070
 20
  7184.292
 11
 59073.375
 21
  7369.455
  0
LINE
  8
3
 10
 59157.070
 20
  7184.292
 11
 59275.625
 21
  7349.322
  0
LINE
  8
3
 10
 59275.625
 20
  7349.322
 11
 59073.375
 21
  7369.455
  0
LINE
  8
3
 10
 61000.004
 20
  3680.000
 11
 61175.918
 21
  3781.707
  0
LINE
  8
3
 10
 61000.004
 20
  3680.000
 11
 61176.012
 21
  3578.453
  0
LINE
  8
3
 10
 61176.012
 20
  3578.453
 11
 61175.918
 21
  3781.707
  0
LINE
  8
5
 10
   350.353
 20
  7035.035
 11
   370.253
 21
  6836.028
  0
LINE
  8
5
 10
  1842.908
 20
  7184.291
 11
  1862.809
 21
  6985.284
  0
LINE
  8
5
 10
  3335.464
 20
  7333.546
 11
  3355.365
 21
  7134.539
  0
LINE
  8
5
 10
  4828.021
 20
  7482.802
 11
  4847.921
 21
  7283.795
  0
LINE
  8
5
 10
  6320.576
 20
  7632.057
 11
  6340.477
 21
  7433.050
  0
LINE
  8
5
 10
  7813.131
 20
  7781.313
 11
  7833.033
 21
  7582.306
  0
LINE
  8
5
 10
  9305.687
 20
  7930.568
 11
  9325.588
 21
  7731.562
  0
LINE
  8
5
 10
 10798.242
 20
  8079.825
 11
 10818.144
 21
  7880.817
  0
LINE
  8
5
 10
 12290.798
 20
  8229.080
 11
 12310.699
 21
  8030.073
  0
LINE
  8
5
 10
 13783.354
 20
  8378.336
 11
 13803.255
 21
  8179.329
  0
LINE
  8
5
 10
 15275.911
 20
  8527.591
 11
 15295.812
 21
  8328.584
  0
LINE
  8
5
 10
 16768.467
 20
  8676.847
 11
 16788.367
 21
  8477.840
  0
LINE
  8
5
 10
 18261.021
 20
  8826.103
 11
 18280.922
 21
  8627.095
  0
LINE
  8
5
 10
 19753.576
 20
  8975.358
 11
 19773.479
 21
  8776.351
  0
LINE
  8
5
 10
 21246.133
 20
  9124.613
 11
 21266.033
 21
  8925.606
  0
LINE
  8
5
 10
 22738.689
 20
  9273.869
 11
 22758.590
 21
  9074.861
  0
LINE
  8
5
 10
 24231.244
 20
  9423.125
 11
 24251.146
 21
  9224.117
  0
LINE
  8
5
 10
 25723.801
 20
  9572.381
 11
 25743.701
 21
  9373.373
  0
LINE
  8
5
 10
 27216.359
 20
  9721.636
 11
 27236.260
 21
  9522.629
  0
LINE
  8
5
 10
 28708.914
 20
  9870.892
 11
 28728.812
 21
  9671.884
  0
LINE
  8
5
 10
 30201.471
 20
 10020.147
 11
 30221.371
 21
  9821.140
  0
LINE
  8
5
 10
 30798.514
 20
 10020.148
 11
 30778.613
 21
  9821.142
  0
LINE
  8
5
 10
 32291.066
 20
  9870.894
 11
 32271.168
 21
  9671.887
  0
LINE
  8
5
 10
 33783.625
 20
  9721.638
 11
 33763.727
 21
  9522.630
  0
LINE
  8
5
 10
 35276.180
 20
  9572.382
 11
 35256.281
 21
  9373.375
  0
LINE
  8
5
 10
 36768.734
 20
  9423.126
 11
 36748.836
 21
  9224.119
  0
LINE
  8
5
 10
 38261.293
 20
  9273.871
 11
 38241.391
 21
  9074.864
  0
LINE
  8
5
 10
 39753.848
 20
  9124.615
 11
 39733.949
 21
  8925.607
  0
LINE
  8
5
 10
 41246.402
 20
  8975.359
 11
 41226.504
 21
  8776.353
  0
LINE
  8
5
 10
 42738.961
 20
  8826.104
 11
 42719.059
 21
  8627.097
  0
LINE
  8
5
 10
 44231.512
 20
  8676.849
 11
 44211.613
 21
  8477.842
  0
LINE
  8
5
 10
 45724.070
 20
  8527.593
 11
 45704.172
 21
  8328.585
  0
LINE
  8
5
 10
 47216.629
 20
  8378.337
 11
 47196.727
 21
  8179.330
  0
LINE
  8
5
 10
 48709.184
 20
  8229.081
 11
 48689.285
 21
  8030.074
  0
LINE
  8
5
 10
 50201.738
 20
  8079.826
 11
 50181.840
 21
  7880.819
  0
LINE
  8
5
 10
 51694.293
 20
  7930.570
 11
 51674.391
 21
  7731.563
  0
LINE
  8
5
 10
 53186.848
 20
  7781.315
 11
 53166.949
 21
  7582.308
  0
LINE
  8
5
 10
 54679.402
 20
  7632.059
 11
 54659.504
 21
  7433.052
  0
LINE
  8
5
 10
 56171.957
 20
  7482.804
 11
 56152.059
 21
  7283.796
  0
LINE
  8
5
 10
 57664.516
 20
  7333.547
 11
 57644.617
 21
  7134.541
  0
LINE
  8
5
 10
 59157.070
 20
  7184.292
 11
 59137.172
 21
  6985.285
  0
LINE
  8
5
 10
 60649.625
 20
  7035.036
 11
 60629.727
 21
  6836.029
  0
LINE
  8
5
 10
   428.629
 20
  3680.000
 11
   492.129
 21
  3680.000
  0
LINE
  8
5
 10
  1910.987
 20
  6503.500
 11
  1917.306
 21
  6440.316
  0
LINE
  8
5
 10
  4904.918
 20
  6713.818
 11
  4911.237
 21
  6650.633
  0
LINE
  8
5
 10
  6401.195
 20
  6825.859
 11
  6407.514
 21
  6762.675
  0
LINE
  8
5
 10
  7897.474
 20
  6937.900
 11
  7903.792
 21
  6874.715
  0
LINE
  8
5
 10
 10886.055
 20
  7201.704
 11
 10892.373
 21
  7138.519
  0
LINE
  8
5
 10
 13868.678
 20
  7525.091
 11
 13874.996
 21
  7461.906
  0
LINE
  8
5
 10
 15359.991
 20
  7686.784
 11
 15366.310
 21
  7623.600
  0
LINE
  8
5
 10
 18335.814
 20
  8078.160
 11
 18342.135
 21
  8014.975
  0
LINE
  8
5
 10
 21310.887
 20
  8477.089
 11
 21317.205
 21
  8413.904
  0
LINE
  8
5
 10
 22807.807
 20
  8582.681
 11
 22814.127
 21
  8519.496
  0
LINE
  8
5
 10
 25805.326
 20
  8757.143
 11
 25811.645
 21
  8693.958
  0
LINE
  8
5
 10
 28810.043
 20
  8859.575
 11
 28816.361
 21
  8796.391
  0
LINE
  8
5
 10
 30317.525
 20
  8859.575
 11
 30323.846
 21
  8796.391
  0
LINE
  8
5
 10
 30682.455
 20
  8859.575
 11
 30676.137
 21
  8796.391
  0
LINE
  8
5
 10
 32189.936
 20
  8859.575
 11
 32183.617
 21
  8796.391
  0
LINE
  8
5
 10
 35194.656
 20
  8757.146
 11
 35188.340
 21
  8693.961
  0
LINE
  8
5
 10
 38192.172
 20
  8582.683
 11
 38185.855
 21
  8519.498
  0
LINE
  8
5
 10
 39689.094
 20
  8477.090
 11
 39682.773
 21
  8413.905
  0
LINE
  8
5
 10
 42664.164
 20
  8078.162
 11
 42657.844
 21
  8014.978
  0
LINE
  8
5
 10
 45639.988
 20
  7686.787
 11
 45633.668
 21
  7623.603
  0
LINE
  8
5
 10
 47131.301
 20
  7525.093
 11
 47124.984
 21
  7461.909
  0
LINE
  8
5
 10
 50113.926
 20
  7201.706
 11
 50107.605
 21
  7138.521
  0
LINE
  8
5
 10
 53102.512
 20
  6937.902
 11
 53096.195
 21
  6874.717
  0
LINE
  8
5
 10
 54598.789
 20
  6825.861
 11
 54592.469
 21
  6762.676
  0
LINE
  8
5
 10
 56095.062
 20
  6713.820
 11
 56088.742
 21
  6650.636
  0
LINE
  8
5
 10
 59088.992
 20
  6503.502
 11
 59082.676
 21
  6440.318
  0
LINE
  8
5
 10
 60571.379
 20
  3680.000
 11
 60507.879
 21
  3680.000
  0
LINE
  8
17
 10
   143.650
 20
     0.000
 11
   156.350
 21
     0.000
  0
LINE
  8
17
 10
   150.000
 20
    -6.350
 11
   150.000
 21
     6.350
  0
LINE
  8
17
 10
   406.272
 20
     0.000
 11
   418.972
 21
     0.000
  0
LINE
  8
17
 10
   412.622
 20
    -6.350
 11
   412.622
 21
     6.350
  0
LINE
  8
17
 10
   557.033
 20
  6339.917
 11
   569.733
 21
  6339.917
  0
LINE
  8
17
 10
   563.383
 20
  6333.567
 11
   563.383
 21
  6346.267
  0
LINE
  8
17
 10
   143.650
 20
  6339.917
 11
   156.350
 21
  6339.917
  0
LINE
  8
17
 10
   150.000
 20
  6333.567
 11
   150.000
 21
  6346.267
  0
LINE
  8
1
 10
   517.590
 20
  6814.032
 11
   563.362
 21
  6356.315
  0
LINE
  8
1
 10
   509.630
 20
  6813.237
 11
   555.402
 21
  6355.519
  0
LINE
  8
1
 10
   517.590
 20
  6814.032
 11
   509.630
 21
  6813.237
  0
LINE
  8
1
 10
   563.362
 20
  6356.315
 11
   555.402
 21
  6355.519
  0
LINE
  8
17
 10
   143.650
 20
  6339.917
 11
   156.350
 21
  6339.917
  0
LINE
  8
17
 10
   150.000
 20
  6333.567
 11
   150.000
 21
  6346.267
  0
LINE
  8
17
 10
   649.031
 20
  6339.917
 11
   661.731
 21
  6339.917
  0
LINE
  8
17
 10
   655.381
 20
  6333.567
 11
   655.381
 21
  6346.267
  0
LINE
  8
17
 10
  9693.472
 20
  7004.188
 11
  9706.172
 21
  7004.188
  0
LINE
  8
17
 10
  9699.821
 20
  6997.838
 11
  9699.821
 21
  7010.538
  0
LINE
  8
17
 10
  9617.749
 20
  7761.412
 11
  9630.449
 21
  7761.412
  0
LINE
  8
17
 10
  9624.100
 20
  7755.062
 11
  9624.100
 21
  7767.762
  0
LINE
  8
17
 10
   143.650
 20
  6812.998
 11
   156.350
 21
  6812.998
  0
LINE
  8
17
 10
   150.000
 20
  6806.648
 11
   150.000
 21
  6819.348
  0
LINE
  8
17
 10
  9617.550
 20
  7763.402
 11
  9630.250
 21
  7763.402
  0
LINE
  8
17
 10
  9623.900
 20
  7757.052
 11
  9623.900
 21
  7769.752
  0
LINE
  8
17
 10
  9693.472
 20
  7004.188
 11
  9706.172
 21
  7004.188
  0
LINE
  8
17
 10
  9699.821
 20
  6997.839
 11
  9699.821
 21
  7010.539
  0
LINE
  8
17
 10
 15658.720
 20
  7650.963
 11
 15671.420
 21
  7650.963
  0
LINE
  8
17
 10
 15665.070
 20
  7644.613
 11
 15665.070
 21
  7657.313
  0
LINE
  8
17
 10
 15587.773
 20
  8360.425
 11
 15600.474
 21
  8360.425
  0
LINE
  8
17
 10
 15594.124
 20
  8354.074
 11
 15594.124
 21
  8366.774
  0
LINE
  8
17
 10
 15587.773
 20
  8360.425
 11
 15600.474
 21
  8360.425
  0
LINE
  8
17
 10
 15594.124
 20
  8354.074
 11
 15594.124
 21
  8366.774
  0
LINE
  8
17
 10
 15658.819
 20
  7649.965
 11
 15671.520
 21
  7649.965
  0
LINE
  8
17
 10
 15665.169
 20
  7643.616
 11
 15665.169
 21
  7656.315
  0
LINE
  8
17
 10
 27566.031
 20
  8788.424
 11
 27578.732
 21
  8788.424
  0
LINE
  8
17
 10
 27572.381
 20
  8782.074
 11
 27572.381
 21
  8794.773
  0
LINE
  8
17
 10
 27490.008
 20
  9548.639
 11
 27502.709
 21
  9548.639
  0
LINE
  8
17
 10
 27496.359
 20
  9542.289
 11
 27496.359
 21
  9554.988
  0
LINE
  8
1
 10
 30391.404
 20
  9726.391
 11
 30391.404
 21
  8796.391
  0
LINE
  8
1
 10
 30381.400
 20
  9726.391
 11
 30381.400
 21
  8796.391
  0
LINE
  8
1
 10
 30391.404
 20
  9726.391
 11
 30381.400
 21
  9726.391
  0
LINE
  8
1
 10
 30391.404
 20
  8796.391
 11
 30381.400
 21
  8796.391
  0
LINE
  8
1
 10
 30618.602
 20
  9726.391
 11
 30618.602
 21
  8796.391
  0
LINE
  8
1
 10
 30608.600
 20
  9726.391
 11
 30608.600
 21
  8796.391
  0
LINE
  8
1
 10
 30618.602
 20
  9726.391
 11
 30608.600
 21
  9726.391
  0
LINE
  8
1
 10
 30618.602
 20
  8796.391
 11
 30608.600
 21
  8796.391
  0
LINE
  8
17
 10
 27489.811
 20
  9550.629
 11
 27502.510
 21
  9550.629
  0
LINE
  8
17
 10
 27496.160
 20
  9544.278
 11
 27496.160
 21
  9556.979
  0
LINE
  8
17
 10
 27566.035
 20
  8788.391
 11
 27578.734
 21
  8788.391
  0
LINE
  8
17
 10
 27572.385
 20
  8782.041
 11
 27572.385
 21
  8794.740
  0
LINE
  8
17
 10
 33421.246
 20
  8788.391
 11
 33433.945
 21
  8788.391
  0
LINE
  8
17
 10
 33427.598
 20
  8782.041
 11
 33427.598
 21
  8794.740
  0
LINE
  8
17
 10
 33497.473
 20
  9550.631
 11
 33510.172
 21
  9550.631
  0
LINE
  8
17
 10
 33503.820
 20
  9544.281
 11
 33503.820
 21
  9556.980
  0
LINE
  8
17
 10
 33497.273
 20
  9548.641
 11
 33509.973
 21
  9548.641
  0
LINE
  8
17
 10
 33503.621
 20
  9542.291
 11
 33503.621
 21
  9554.991
  0
LINE
  8
17
 10
 33421.250
 20
  8788.426
 11
 33433.949
 21
  8788.426
  0
LINE
  8
17
 10
 33427.598
 20
  8782.076
 11
 33427.598
 21
  8794.776
  0
LINE
  8
17
 10
 45328.465
 20
  7649.968
 11
 45341.164
 21
  7649.968
  0
LINE
  8
17
 10
 45334.812
 20
  7643.618
 11
 45334.812
 21
  7656.318
  0
LINE
  8
17
 10
 45399.512
 20
  8360.427
 11
 45412.211
 21
  8360.427
  0
LINE
  8
17
 10
 45405.859
 20
  8354.077
 11
 45405.859
 21
  8366.776
  0
LINE
  8
17
 10
 45399.512
 20
  8360.427
 11
 45412.211
 21
  8360.427
  0
LINE
  8
17
 10
 45405.859
 20
  8354.077
 11
 45405.859
 21
  8366.776
  0
LINE
  8
17
 10
 45328.566
 20
  7650.965
 11
 45341.266
 21
  7650.965
  0
LINE
  8
17
 10
 45334.914
 20
  7644.615
 11
 45334.914
 21
  7657.315
  0
LINE
  8
17
 10
 51293.812
 20
  7004.191
 11
 51306.512
 21
  7004.191
  0
LINE
  8
17
 10
 51300.160
 20
  6997.841
 11
 51300.160
 21
  7010.541
  0
LINE
  8
17
 10
 51369.730
 20
  7763.404
 11
 51382.434
 21
  7763.404
  0
LINE
  8
17
 10
 51376.082
 20
  7757.054
 11
 51376.082
 21
  7769.754
  0
LINE
  8
1
 10
 60490.379
 20
  6813.237
 11
 60444.605
 21
  6355.519
  0
LINE
  8
1
 10
 60482.414
 20
  6814.032
 11
 60436.645
 21
  6356.315
  0
LINE
  8
1
 10
 60490.379
 20
  6813.237
 11
 60482.414
 21
  6814.032
  0
LINE
  8
1
 10
 60444.605
 20
  6355.519
 11
 60436.645
 21
  6356.315
  0
LINE
  8
17
 10
 51369.535
 20
  7761.415
 11
 51382.234
 21
  7761.415
  0
LINE
  8
17
 10
 51375.883
 20
  7755.064
 11
 51375.883
 21
  7767.765
  0
LINE
  8
17
 10
 51293.809
 20
  7004.190
 11
 51306.508
 21
  7004.190
  0
LINE
  8
17
 10
 51300.156
 20
  6997.840
 11
 51300.156
 21
  7010.540
  0
LINE
  8
17
 10
 60338.277
 20
  6339.917
 11
 60350.977
 21
  6339.917
  0
LINE
  8
17
 10
 60344.625
 20
  6333.567
 11
 60344.625
 21
  6346.267
  0
LINE
  8
17
 10
 60843.652
 20
  6339.917
 11
 60856.352
 21
  6339.917
  0
LINE
  8
17
 10
 60850.004
 20
  6333.567
 11
 60850.004
 21
  6346.267
  0
LINE
  8
17
 10
 60843.652
 20
  6812.998
 11
 60856.352
 21
  6812.998
  0
LINE
  8
17
 10
 60850.004
 20
  6806.648
 11
 60850.004
 21
  6819.348
  0
LINE
  8
17
 10
 60843.652
 20
  6339.917
 11
 60856.352
 21
  6339.917
  0
LINE
  8
17
 10
 60850.004
 20
  6333.567
 11
 60850.004
 21
  6346.267
  0
LINE
  8
17
 10
 60430.277
 20
  6339.917
 11
 60442.977
 21
  6339.917
  0
LINE
  8
17
 10
 60436.625
 20
  6333.567
 11
 60436.625
 21
  6346.267
  0
LINE
  8
17
 10
 60581.031
 20
     0.000
 11
 60593.734
 21
     0.000
  0
LINE
  8
17
 10
 60587.383
 20
    -6.350
 11
 60587.383
 21
     6.350
  0
LINE
  8
17
 10
 60843.652
 20
    -0.000
 11
 60856.352
 21
    -0.000
  0
LINE
  8
17
 10
 60850.004
 20
    -6.350
 11
 60850.004
 21
     6.350
  0
LINE
  8
1
 10
 30386.402
 20
  8644.391
 11
 30266.402
 21
  8764.391
  0
LINE
  8
1
 10
 30266.402
 20
  8764.391
 11
 30266.402
 21
  8764.391
  0
LINE
  8
1
 10
 30613.602
 20
  8644.391
 11
 30733.600
 21
  8764.391
  0
LINE
  8
1
 10
 30733.600
 20
  8764.391
 11
 30733.600
 21
  8764.391
  0
TEXT
  8
16
 10
  -254.000
 20
  2852.458
 40
   127.000
  1
RF1-1
 50
    90.000
  0
TEXT
  8
16
 10
  4525.907
 20
  7707.322
 40
   127.000
  1
RF1-2
 50
     5.717
  0
TEXT
  8
16
 10
 12247.913
 20
  8482.067
 40
   127.000
  1
RF1-3
 50
     5.711
  0
TEXT
  8
16
 10
 21184.213
 20
  9374.746
 40
   127.000
  1
RF1-4
 50
     5.701
  0
TEXT
  8
16
 10
 30182.492
 20
 10004.630
 40
   127.000
  1
RF1-5
 50
     0.000
  0
TEXT
  8
16
 10
 39183.910
 20
  9437.828
 40
   127.000
  1
RF1-4
 50
    -5.701
  0
TEXT
  8
16
 10
 48120.223
 20
  8545.255
 40
   127.000
  1
RF1-3
 50
    -5.711
  0
TEXT
  8
16
 10
 55842.246
 20
  7770.574
 40
   127.000
  1
RF1-2
 50
    -5.717
  0
TEXT
  8
16
 10
 61254.004
 20
  3487.458
 40
   127.000
  1
RF1-1
 50
   -90.000
  0
TEXT
  8
16
 10
 30132.402
 20
  4072.695
 40
   127.000
  1
RF1-6
 50
    90.000
  0
LINE
  8
0
 10
 -3329.400
 20
-20283.707
 11
 64329.406
 21
-20283.707
  0
LINE
  8
0
 10
 64329.406
 20
-20283.707
 11
 64329.406
 21
 30460.391
  0
LINE
  8
0
 10
 64329.406
 20
 30460.391
 11
 -3329.400
 21
 30460.391
  0
LINE
  8
0
 10
 -3329.400
 20
 30460.391
 11
 -3329.400
 21
-20283.707
  0
LINE
  8
0
 10
 -3329.400
 20
-18609.152
 11
 64329.406
 21
-18609.152
  0
TEXT
  8
0
 10
 17661.746
 20
-20004.615
 40
  1116.370
  1
Rigid Frame Detailing 1
 50
     0.000
  0
TEXT
  8
0
 10
 -2771.215
 20
-20004.615
 40
  1116.370
  1
C08-033
 50
     0.000
  0
TEXT
  8
0
 10
 51491.148
 20
-20004.615
 40
  1116.370
  1
23/APR/2026
 50
     0.000
  0
ENDSEC
  0
EOF
