999
SOURCE:MBS   PROGRAM:RFDWG   CELL:RFDWG   CLASS:ELEVATION   MODE:---
  0
SECTION
  2
HEADER
 9
$ACADVER
 1
AC1009
  9
$EXTMIN
 10
0.00000000
 20
0.00000000
  9
$EXTMAX
 10
76527.0625
 20
54115.5664
  9
$LIMMIN
 10
0.00000000
 20
0.00000000
  9
$LIMMAX
 10
76527.0625
 20
54115.5664
  9
$FILLMODE
 70
     1
  9
$HANDLING
 70
     0
  0
ENDSEC
  0
SECTION
  2
TABLES
  0
TABLE
  2
LTYPE
 70
 4
  0
LTYPE
  2
CONTIN
 70
   64
  3
SOLID LINE
  72
   65
 73
    0
 40
 0.000
  0
LTYPE
  2
CENTER
 70
   64
  3
____ _ ____ _ _
  72
   65
 73
    4
 40
4628.1
 49
2892.5
 49
-578.5
 49
578.51
 49
-578.5
  0
LTYPE
  2
DASHED
 70
   64
  3
__ __ __ __ __
  72
   65
 73
    2
 40
867.76
 49
578.51
 49
-289.3
  0
LTYPE
  2
CONTINUOUS
 70
   64
  3
SOLID LINE
  72
   65
 73
    0
 40
 0.000
  0
ENDTAB
  0
TABLE
  2
LAYER
 70
    30
  0
LAYER
  2
0
 70
     0
 62
     7
  6
CONTIN
  0
LAYER
  2
1
 70
     0
 62
     7
  6
CONTIN
  0
LAYER
  2
2
 70
     0
 62
     6
  6
CONTIN
  0
LAYER
  2
3
 70
     0
 62
     7
  6
CONTIN
  0
LAYER
  2
4
 70
     0
 62
     7
  6
CENTER
  0
LAYER
  2
5
 70
     0
 62
     5
  6
DASHED
  0
LAYER
  2
6
 70
     0
 62
     6
  6
CONTIN
  0
LAYER
  2
7
 70
     0
 62
     7
  6
CONTIN
  0
LAYER
  2
8
 70
     0
 62
     8
  6
DASHED
  0
LAYER
  2
9
 70
     0
 62
     9
  6
DASHED
  0
LAYER
  2
10
 70
     0
 62
    10
  6
CONTIN
  0
LAYER
  2
11
 70
     0
 62
     7
  6
CONTIN
  0
LAYER
  2
12
 70
     0
 62
     6
  6
CONTIN
  0
LAYER
  2
13
 70
     0
 62
     1
  6
CONTIN
  0
LAYER
  2
14
 70
     0
 62
     7
  6
CONTIN
  0
LAYER
  2
15
 70
     0
 62
     7
  6
CONTIN
  0
LAYER
  2
16
 70
     0
 62
     7
  6
CONTIN
  0
LAYER
  2
17
 70
     0
 62
     5
  6
CONTIN
  0
LAYER
  2
18
 70
     0
 62
     7
  6
CONTIN
  0
LAYER
  2
19
 70
     0
 62
     7
  6
CONTIN
  0
LAYER
  2
20
 70
     0
 62
     7
  6
CONTIN
  0
LAYER
  2
21
 70
     0
 62
     7
  6
CONTIN
  0
LAYER
  2
22
 70
     0
 62
     7
  6
CONTIN
  0
LAYER
  2
23
 70
     0
 62
     7
  6
DASHED
  0
LAYER
  2
24
 70
     0
 62
     7
  6
CONTIN
  0
LAYER
  2
25
 70
     0
 62
     7
  6
CONTIN
  0
LAYER
  2
26
 70
     0
 62
     7
  6
CONTIN
  0
LAYER
  2
27
 70
     0
 62
     1
  6
CENTER
  0
LAYER
  2
28
 70
     0
 62
     7
  6
CONTIN
  0
LAYER
  2
29
 70
     0
 62
     7
  6
CONTIN
  0
ENDTAB
  0
TABLE
  2
STYLE
 70
  0
  0
STYLE
  2
SIMPLEX
 70
  0
 40
  0.000
 41
  1.000
 42
  1.000
 50
  0.000
 71
  0
  3
SIMPLEX
  0
STYLE
  2
ROMANS
 70
  0
 40
  0.000
 41
  1.000
 42
  1.000
 50
  0.000
 71
  0
  3
ROMANS
  0
STYLE
  2
OPEN
 70
  0
 40
  0.000
 41
  1.000
 42
  1.000
 50
  0.000
 71
  0
  3
SIMPLEX
  0
STYLE
  2
ARIAL
 70
  0
 40
  0.000
 41
  1.000
 42
  1.000
 50
  0.000
 71
  0
  3
ARIAL.TTF
  0
STYLE
  2
VERDANAB
 70
  0
 40
  0.000
 41
  1.000
 42
  1.000
 50
  0.000
 71
  0
  3
VERDANAB.TTF
  0
ENDTAB
  0
ENDSEC
  0
SECTION
  2
BLOCKS
  0
BLOCK
  8
0
  2
ARROWPF
 70
     0
 10
0.00000000
 20
0.00000000
  0
LINE
  8
0
 10
0.00000000
 20
0.00000000
 11
-330.90668
 21
55.1511116
  0
LINE
  8
0
 10
-330.90668
 20
55.1511116
 11
-330.90668
 21
-55.151108
  0
LINE
  8
0
 10
-330.90668
 20
-55.151108
 11
0.00000000
 21
0.00000000
  0
ENDBLK
  8
0
  0
BLOCK
  8
0
  2
ARROWF
 70
     0
 10
0.00000000
 20
0.00000000
  0
LINE
  8
0
 10
0.00000000
 20
0.00000000
 11
-496.35999
 21
82.7266617
  0
LINE
  8
0
 10
-496.35999
 20
82.7266617
 11
-496.35999
 21
-82.726662
  0
LINE
  8
0
 10
-496.35999
 20
-82.726662
 11
0.00000000
 21
0.00000000
  0
ENDBLK
  8
0
  0
BLOCK
  8
0
  2
DIAMOND
 70
     0
 10
0.00000000
 20
0.00000000
  0
LINE
  8
0
 10
0.00000000
 20
0.00000000
 11
12.6999998
 21
12.6999998
  0
LINE
  8
0
 10
12.6999998
 20
12.6999998
 11
0.00000000
 21
25.3999996
  0
LINE
  8
0
 10
0.00000000
 20
25.3999996
 11
-12.700000
 21
12.6999998
  0
LINE
  8
0
 10
-12.700000
 20
12.6999998
 11
0.00000000
 21
0.00000000
  0
ENDBLK
  8
0
  0
BLOCK
  8
3
  2
CIRCLE
 70
     0
 10
0.00000000
 20
0.00000000
  0
CIRCLE
  8
1
 10
     0.00
 20
     0.00
 40
    25.40
  0
ENDBLK
  8
3
  0
BLOCK
  8
0
  2
WSECTN
 70
     0
 10
0.00000000
 20
0.00000000
  0
LINE
  8
0
 10
0.00000000
 20
0.00000000
 11
0.00000000
 21
25.3999996
  0
LINE
  8
0
 10
-76.199997
 20
0.00000000
 11
76.1999970
 21
0.00000000
  0
LINE
  8
0
 10
-76.199997
 20
25.3999996
 11
76.1999970
 21
25.3999996
  0
ENDBLK
  8
0
  0
BLOCK
  8
0
  2
WCOL
 70
     0
 10
0.00000000
 20
0.00000000
  0
LINE
  8
0
 10
-10.160000
 20
0.00000000
 11
10.1599999
 21
0.00000000
  0
LINE
  8
0
 10
0.00000000
 20
0.00000000
 11
0.00000000
 21
-25.400000
  0
LINE
  8
0
 10
-10.160000
 20
-25.400000
 11
10.1599999
 21
-25.400000
  0
ENDBLK
  8
0
  0
BLOCK
  8
0
  2
JSECTN
 70
     0
 10
0.00000000
 20
0.00000000
  0
LINE
  8
0
 10
0.00000000
 20
0.00000000
 11
0.00000000
 21
-25.400000
  0
LINE
  8
0
 10
-2.5400000
 20
0.00000000
 11
0.00000000
 21
0.00000000
  0
LINE
  8
0
 10
0.00000000
 20
0.00000000
 11
0.00000000
 21
-25.400000
  0
LINE
  8
0
 10
2.53999996
 20
0.00000000
 11
0.00000000
 21
0.00000000
  0
LINE
  8
0
 10
0.00000000
 20
0.00000000
 11
0.00000000
 21
-25.400000
  0
LINE
  8
0
 10
-2.5400000
 20
-25.400000
 11
0.00000000
 21
-25.400000
  0
LINE
  8
0
 10
0.00000000
 20
-25.400000
 11
0.00000000
 21
0.00000000
  0
LINE
  8
0
 10
2.53999996
 20
-25.400000
 11
0.00000000
 21
-25.400000
  0
LINE
  8
0
 10
0.00000000
 20
-25.400000
 11
0.00000000
 21
0.00000000
  0
ENDBLK
  8
0
  0
BLOCK
  8
0
  2
ZCOL
 70
     0
 10
0.00000000
 20
0.00000000
  0
LINE
  8
0
 10
10.1599999
 20
-2.5400000
 11
10.1599999
 21
0.00000000
  0
LINE
  8
0
 10
10.1599999
 20
0.00000000
 11
0.00000000
 21
0.00000000
  0
LINE
  8
0
 10
0.00000000
 20
0.00000000
 11
0.00000000
 21
-25.400000
  0
LINE
  8
0
 10
0.00000000
 20
-25.400000
 11
-10.160000
 21
-25.400000
  0
LINE
  8
0
 10
-10.160000
 20
-25.400000
 11
-10.160000
 21
-22.859999
  0
ENDBLK
  8
0
  0
BLOCK
  8
0
  2
FINFLR
 70
     0
 10
0.00000000
 20
0.00000000
  0
LINE
  8
0
 10
0.00000000
 20
0.00000000
 11
12.6999998
 21
25.3999996
  0
LINE
  8
0
 10
12.6999998
 20
25.3999996
 11
-12.700000
 21
25.3999996
  0
LINE
  8
0
 10
-12.700000
 20
25.3999996
 11
0.00000000
 21
0.00000000
  0
LINE
  8
0
 10
0.00000000
 20
0.00000000
 11
0.00000000
 21
25.3999996
  0
SOLID
  8
0
 10
0.00000000
 20
0.00000000
 11
0.00000000
 21
25.3999996
 12
-12.700000
 22
25.3999996
 13
-12.700000
 23
25.3999996
  0
ENDBLK
  8
0
  0
BLOCK
  8
0
  2
CCOL
 70
     0
 10
0.00000000
 20
0.00000000
  0
LINE
  8
0
 10
10.1599999
 20
-2.5400000
 11
10.1599999
 21
0.00000000
  0
LINE
  8
0
 10
10.1599999
 20
0.00000000
 11
0.00000000
 21
0.00000000
  0
LINE
  8
0
 10
0.00000000
 20
0.00000000
 11
0.00000000
 21
-25.400000
  0
LINE
  8
0
 10
0.00000000
 20
-25.400000
 11
10.1599999
 21
-25.400000
  0
LINE
  8
0
 10
10.1599999
 20
-25.400000
 11
10.1599999
 21
-22.859999
  0
ENDBLK
  8
0
  0
BLOCK
  8
0
  2
UCOL
 70
     0
 10
0.00000000
 20
0.00000000
  0
LINE
  8
0
 10
10.1599999
 20
0.00000000
 11
0.00000000
 21
0.00000000
  0
LINE
  8
0
 10
0.00000000
 20
0.00000000
 11
0.00000000
 21
-25.400000
  0
LINE
  8
0
 10
0.00000000
 20
-25.400000
 11
10.1599999
 21
-25.400000
  0
ENDBLK
  8
0
  0
BLOCK
  8
0
  2
DCOL
 70
     0
 10
0.00000000
 20
0.00000000
  0
INSERT
  8
0
  2
CCOL
 10
0.00000000
 20
0.00000000
 41
1.00000000
 42
1.00000000
 43
1.00000000
 50
0.00000000
  0
INSERT
  8
0
  2
CCOL
 10
0.00000000
 20
0.00000000
 41
-1.0000000
 42
1.00000000
 43
1.00000000
 50
0.00000000
  0
ENDBLK
  8
0
  0
BLOCK
  8
0
  2
MARKER
 70
     0
 10
0.00000000
 20
0.00000000
  0
LINE
  8
0
 10
0.00000000
 20
0.00000000
 11
509.087189
 21
509.087189
  0
LINE
  8
0
 10
509.087189
 20
509.087189
 11
-509.08719
 21
509.087189
  0
LINE
  8
0
 10
-509.08719
 20
509.087189
 11
0.00000000
 21
0.00000000
  0
ENDBLK
  8
0
  0
BLOCK
  8
0
  2
FLGCLP
 70
     0
 10
0.00000000
 20
0.00000000
  0
LINE
  8
0
 10
0.00000000
 20
0.00000000
 11
25.3999996
 21
25.3999996
  0
LINE
  8
0
 10
25.3999996
 20
25.3999996
 11
-25.400000
 21
25.3999996
  0
LINE
  8
0
 10
-25.400000
 20
25.3999996
 11
0.00000000
 21
0.00000000
  0
LINE
  8
0
 10
-8.4666672
 20
8.46666716
 11
8.46666716
 21
8.46666716
  0
LINE
  8
0
 10
-8.4666672
 20
8.46666716
 11
-8.4666672
 21
25.3999996
  0
LINE
  8
0
 10
8.46666716
 20
8.46666716
 11
8.46666716
 21
25.3999996
  0
ENDBLK
  8
0
  0
BLOCK
  8
0
  2
CUTFRM
 70
     0
 10
0.00000000
 20
0.00000000
  0
LINE
  8
0
 10
0.00000000
 20
0.00000000
 11
0.00000000
 21
-25.400000
  0
LINE
  8
0
 10
0.00000000
 20
-25.400000
 11
-483.63281
 21
-25.400000
  0
ENDBLK
  8
0
  0
BLOCK
  8
0
  2
VSECTN
 70
     0
 10
0.00000000
 20
0.00000000
  0
LINE
  8
0
 10
-12.700000
 20
25.3999996
 11
12.6999998
 21
25.3999996
  0
LINE
  8
0
 10
-12.700000
 20
25.3999996
 11
0.00000000
 21
0.00000000
  0
LINE
  8
0
 10
0.00000000
 20
0.00000000
 11
12.6999998
 21
25.3999996
  0
ENDBLK
  8
0
  0
BLOCK
  8
0
  2
ASECT
 70
     0
 10
0.00000000
 20
0.00000000
  0
LINE
  8
0
 10
0.00000000
 20
0.00000000
 11
25.3999996
 21
0.00000000
  0
LINE
  8
0
 10
0.00000000
 20
0.00000000
 11
0.00000000
 21
-25.400000
  0
ENDBLK
  8
0
  0
BLOCK
  8
0
  2
FRAME1
 70
     0
 10
0.00000000
 20
0.00000000
  0
LINE
  8
5
 10
0.00000000
 20
3600.00000
 11
0.00000000
 21
6999.99951
  0
LINE
  8
5
 10
0.00000000
 20
6999.99951
 11
30500.0039
 21
10050.0000
  0
LINE
  8
5
 10
30500.0039
 20
10050.0000
 11
61000.0078
 21
6999.99951
  0
LINE
  8
5
 10
61000.0078
 20
6999.99951
 11
61000.0078
 21
3600.00000
  0
LINE
  8
3
 10
-4231.7876
 20
10579.8896
 11
-3195.7144
 21
11178.0684
  0
LINE
  8
3
 10
-4099.5225
 20
10656.2529
 11
-3327.9790
 21
10656.2529
  0
LINE
  8
3
 10
-3327.9790
 20
11101.7051
 11
-3327.9790
 21
10656.2529
  0
TEXT
  8
3
 7
SIMPLEX
 10
-3168.8892
 20
10656.2529
 40
318.179474
  1
10.0
 50
0.00000000
  0
TEXT
  8
3
 7
SIMPLEX
 10
-3872.8403
 20
10178.9844
 40
318.179474
  1
100
 50
0.00000000
  0
LINE
  8
3
 10
65104.5195
 20
10579.8896
 11
64068.4414
 21
11178.0684
  0
LINE
  8
3
 10
64972.2500
 20
10656.2529
 11
64200.7031
 21
10656.2529
  0
LINE
  8
3
 10
64200.7031
 20
11101.7051
 11
64200.7031
 21
10656.2529
  0
TEXT
  8
3
 7
SIMPLEX
 10
62609.8125
 20
10656.2529
 40
318.179474
  1
  10.0
 50
0.00000000
  0
TEXT
  8
3
 7
SIMPLEX
 10
64427.3906
 20
10178.9844
 40
318.179474
  1
100
 50
0.00000000
  0
LINE
  8
1
 10
30398.4023
 20
8764.39063
 11
30398.4023
 21
16.0000000
  0
LINE
  8
1
 10
30398.4023
 20
16.0000000
 11
30386.4023
 21
16.0000000
  0
LINE
  8
1
 10
30386.4023
 20
16.0000000
 11
30386.4023
 21
8764.39063
  0
LINE
  8
1
 10
30386.4023
 20
8764.39063
 11
30398.4023
 21
8764.39063
  0
LINE
  8
1
 10
30601.5996
 20
8764.39063
 11
30601.5996
 21
16.0000000
  0
LINE
  8
1
 10
30601.5996
 20
16.0000000
 11
30613.5996
 21
16.0000000
  0
LINE
  8
1
 10
30613.5996
 20
16.0000000
 11
30613.5996
 21
8764.39063
  0
LINE
  8
1
 10
30613.5996
 20
8764.39063
 11
30601.5996
 21
8764.39063
  0
LINE
  8
1
 10
30286.4023
 20
8780.39063
 11
30286.4023
 21
8764.39063
  0
LINE
  8
1
 10
30286.4023
 20
8764.39063
 11
30713.5996
 21
8764.39063
  0
LINE
  8
1
 10
30713.5996
 20
8764.39063
 11
30713.5996
 21
8780.39063
  0
LINE
  8
1
 10
155.000000
 20
16.0000000
 11
404.999970
 21
16.0000000
  0
LINE
  8
1
 10
404.999970
 20
16.0000000
 11
555.000000
 21
6323.91699
  0
LINE
  8
1
 10
555.000000
 20
6323.91699
 11
555.000000
 21
6323.91699
  0
LINE
  8
1
 10
555.000000
 20
6323.91699
 11
155.000000
 21
6323.91699
  0
LINE
  8
1
 10
155.000000
 20
16.0000000
 11
155.000000
 21
6323.91699
  0
LINE
  8
1
 10
155.000000
 20
16.0000000
 11
155.000000
 21
6323.91699
  0
LINE
  8
1
 10
155.000000
 20
6323.91699
 11
150.000000
 21
6323.91699
  0
LINE
  8
1
 10
150.000000
 20
6323.91699
 11
150.000000
 21
16.0000000
  0
LINE
  8
1
 10
155.000000
 20
16.0000000
 11
150.000000
 21
16.0000000
  0
LINE
  8
1
 10
405.005005
 20
16.1900005
 11
555.000000
 21
6323.91699
  0
LINE
  8
1
 10
555.000000
 20
6323.91699
 11
562.997986
 21
6323.72607
  0
LINE
  8
1
 10
562.997986
 20
6323.72607
 11
413.002014
 21
16.0000000
  0
LINE
  8
1
 10
405.005005
 20
16.1900005
 11
413.002014
 21
16.0000000
  0
LINE
  8
1
 10
235.000000
 20
-28.700001
 11
235.000000
 21
28.7000008
  0
LINE
  8
1
 10
335.000000
 20
-28.700001
 11
335.000000
 21
28.7000008
  0
LINE
  8
1
 10
135.000000
 20
0.00000000
 11
435.000000
 21
0.00000000
  0
LINE
  8
1
 10
435.000000
 20
0.00000000
 11
435.000000
 21
16.0000000
  0
LINE
  8
1
 10
435.000000
 20
16.0000000
 11
135.000000
 21
16.0000000
  0
LINE
  8
1
 10
135.000000
 20
0.00000000
 11
135.000000
 21
16.0000000
  0
LINE
  8
1
 10
105.000000
 20
6311.21680
 11
105.000000
 21
6368.61719
  0
LINE
  8
1
 10
205.000015
 20
6311.21680
 11
205.000015
 21
6368.61719
  0
LINE
  8
1
 10
504.999970
 20
6311.21680
 11
504.999970
 21
6368.61719
  0
LINE
  8
1
 10
605.000000
 20
6311.21680
 11
605.000000
 21
6368.61719
  0
LINE
  8
1
 10
54.9999924
 20
6339.91699
 11
655.380981
 21
6339.91699
  0
LINE
  8
1
 10
655.380981
 20
6339.91699
 11
655.380981
 21
6323.91699
  0
LINE
  8
1
 10
655.380981
 20
6323.91699
 11
54.9999924
 21
6323.91699
  0
LINE
  8
1
 10
54.9999924
 20
6339.91699
 11
54.9999924
 21
6323.91699
  0
LINE
  8
1
 10
150.000000
 20
6323.91699
 11
150.000000
 21
6203.91699
  0
LINE
  8
1
 10
150.000000
 20
6203.91699
 11
54.9999924
 21
6323.91699
  0
LINE
  8
1
 10
54.9999924
 20
6323.91699
 11
54.9999924
 21
6323.91699
  0
LINE
  8
1
 10
150.000000
 20
6323.91699
 11
54.9999924
 21
6323.91699
  0
LINE
  8
1
 10
563.002014
 20
6323.91699
 11
560.148987
 21
6203.91699
  0
LINE
  8
1
 10
560.148987
 20
6203.91699
 11
655.385010
 21
6323.91699
  0
LINE
  8
1
 10
655.385010
 20
6323.91699
 11
655.385010
 21
6323.91699
  0
LINE
  8
1
 10
563.002014
 20
6323.91699
 11
655.385010
 21
6323.91699
  0
LINE
  8
1
 10
9608.77539
 20
7753.84961
 11
9683.36426
 21
7007.96924
  0
LINE
  8
1
 10
9683.36426
 20
7007.96924
 11
3698.25366
 21
6559.80566
  0
LINE
  8
1
 10
3698.25366
 20
6559.80566
 11
3698.25366
 21
6559.80566
  0
LINE
  8
1
 10
3698.25366
 20
6559.80566
 11
3638.55200
 21
7156.82813
  0
LINE
  8
1
 10
9608.77539
 20
7753.84961
 11
3638.55200
 21
7156.82813
  0
LINE
  8
1
 10
3638.55200
 20
7156.82813
 11
3698.25366
 21
6559.80566
  0
LINE
  8
1
 10
3698.25366
 20
6559.80566
 11
659.382019
 21
6355.91699
  0
LINE
  8
1
 10
659.382019
 20
6355.91699
 11
155.000000
 21
6355.91699
  0
LINE
  8
1
 10
155.000000
 20
6355.91699
 11
155.000000
 21
6808.47314
  0
LINE
  8
1
 10
3638.55200
 20
7156.82813
 11
155.000000
 21
6808.47314
  0
LINE
  8
1
 10
517.590027
 20
6814.03223
 11
563.362000
 21
6356.31445
  0
LINE
  8
1
 10
509.629974
 20
6813.23730
 11
555.401917
 21
6355.51953
  0
LINE
  8
1
 10
517.590027
 20
6814.03223
 11
509.629974
 21
6813.23730
  0
LINE
  8
1
 10
563.362000
 20
6356.31445
 11
555.401917
 21
6355.51953
  0
LINE
  8
1
 10
9608.77539
 20
7753.84961
 11
3340.04102
 21
7126.97705
  0
LINE
  8
1
 10
3340.04102
 20
7126.97705
 11
3339.44409
 21
7132.94678
  0
LINE
  8
1
 10
3339.44409
 20
7132.94678
 11
9608.17871
 21
7759.81934
  0
LINE
  8
1
 10
9608.77539
 20
7753.84961
 11
9608.17871
 21
7759.81934
  0
LINE
  8
1
 10
3340.04102
 20
7126.97705
 11
10.4980002
 21
6794.02197
  0
LINE
  8
1
 10
10.4980002
 20
6794.02197
 11
10.0000000
 21
6798.99707
  0
LINE
  8
1
 10
10.0000000
 20
6798.99707
 11
3339.54297
 21
7131.95215
  0
LINE
  8
1
 10
3340.04102
 20
7126.97705
 11
3339.54297
 21
7131.95215
  0
LINE
  8
1
 10
155.000000
 20
6355.91699
 11
155.000000
 21
6807.97266
  0
LINE
  8
1
 10
155.000000
 20
6807.97266
 11
150.000000
 21
6807.97266
  0
LINE
  8
1
 10
150.000000
 20
6807.97266
 11
150.000000
 21
6355.91699
  0
LINE
  8
1
 10
155.000000
 20
6355.91699
 11
150.000000
 21
6355.91699
  0
LINE
  8
1
 10
150.000000
 20
6807.97266
 11
0.00000000
 21
6792.97266
  0
LINE
  8
1
 10
0.00000000
 20
6792.97266
 11
150.000000
 21
6732.97266
  0
LINE
  8
1
 10
9683.36426
 20
7007.96924
 11
3698.25366
 21
6559.80566
  0
LINE
  8
1
 10
3698.25366
 20
6559.80566
 11
3698.62793
 21
6554.81982
  0
LINE
  8
1
 10
3698.62793
 20
6554.81982
 11
9683.73730
 21
7002.98242
  0
LINE
  8
1
 10
9683.36426
 20
7007.96924
 11
9683.73730
 21
7002.98242
  0
LINE
  8
1
 10
3698.25366
 20
6559.80566
 11
659.382019
 21
6355.91699
  0
LINE
  8
1
 10
659.382019
 20
6355.91699
 11
659.715942
 21
6350.92822
  0
LINE
  8
1
 10
659.715942
 20
6350.92822
 11
3698.58887
 21
6554.81641
  0
LINE
  8
1
 10
3698.25366
 20
6559.80566
 11
3698.58887
 21
6554.81641
  0
LINE
  8
1
 10
9591.16211
 20
7802.33740
 11
9648.27832
 21
7808.04980
  0
LINE
  8
1
 10
9601.11328
 20
7702.83496
 11
9658.22852
 21
7708.54541
  0
LINE
  8
1
 10
9633.45215
 20
7379.44775
 11
9690.56836
 21
7385.15918
  0
LINE
  8
1
 10
9665.79004
 20
7056.06104
 11
9722.90723
 21
7061.77197
  0
LINE
  8
1
 10
9675.74219
 20
6956.55664
 11
9732.85742
 21
6962.26807
  0
LINE
  8
1
 10
9614.74512
 20
7854.94580
 11
9709.27344
 21
6909.66016
  0
LINE
  8
1
 10
9709.27344
 20
6909.66016
 11
9693.35352
 21
6908.06738
  0
LINE
  8
1
 10
9693.35352
 20
6908.06738
 11
9598.82520
 21
7853.35400
  0
LINE
  8
1
 10
9614.74512
 20
7854.94580
 11
9598.82520
 21
7853.35400
  0
LINE
  8
1
 10
105.000000
 20
6311.21680
 11
105.000000
 21
6368.61719
  0
LINE
  8
1
 10
205.000015
 20
6311.21680
 11
205.000015
 21
6368.61719
  0
LINE
  8
1
 10
504.999970
 20
6311.21680
 11
504.999970
 21
6368.61719
  0
LINE
  8
1
 10
605.000000
 20
6311.21680
 11
605.000000
 21
6368.61719
  0
LINE
  8
1
 10
54.9999924
 20
6339.91699
 11
655.380981
 21
6339.91699
  0
LINE
  8
1
 10
655.380981
 20
6339.91699
 11
655.380981
 21
6355.91699
  0
LINE
  8
1
 10
655.380981
 20
6355.91699
 11
54.9999924
 21
6355.91699
  0
LINE
  8
1
 10
54.9999924
 20
6339.91699
 11
54.9999924
 21
6355.91699
  0
LINE
  8
1
 10
9608.17871
 20
7759.81934
 11
9488.77441
 21
7747.87988
  0
LINE
  8
1
 10
9488.77441
 20
7747.87988
 11
9598.82520
 21
7853.35400
  0
LINE
  8
1
 10
9598.82520
 20
7853.35400
 11
9598.82520
 21
7853.35400
  0
LINE
  8
1
 10
9608.17871
 20
7759.81934
 11
9598.82520
 21
7853.35400
  0
LINE
  8
1
 10
9683.86133
 20
7002.99316
 11
9564.15918
 21
6994.03027
  0
LINE
  8
1
 10
9564.15918
 20
6994.03027
 11
9693.35352
 21
6908.06445
  0
LINE
  8
1
 10
9693.35352
 20
6908.06445
 11
9693.35352
 21
6908.06445
  0
LINE
  8
1
 10
9683.86133
 20
7002.99316
 11
9693.35352
 21
6908.06445
  0
LINE
  8
1
 10
150.000000
 20
6355.91699
 11
150.000000
 21
6475.91699
  0
LINE
  8
1
 10
150.000000
 20
6475.91699
 11
54.9999924
 21
6355.91699
  0
LINE
  8
1
 10
54.9999924
 20
6355.91699
 11
54.9999924
 21
6355.91699
  0
LINE
  8
1
 10
150.000000
 20
6355.91699
 11
54.9999924
 21
6355.91699
  0
LINE
  8
1
 10
15578.9980
 20
8350.87109
 11
15648.6660
 21
7654.21387
  0
LINE
  8
1
 10
15648.6660
 20
7654.21387
 11
9715.23047
 21
7010.88916
  0
LINE
  8
1
 10
9715.23047
 20
7010.88916
 11
9715.23047
 21
7010.88916
  0
LINE
  8
1
 10
9715.23047
 20
7010.88916
 11
9640.61719
 21
7757.03418
  0
LINE
  8
1
 10
15578.9980
 20
8350.87109
 11
9640.61719
 21
7757.03418
  0
LINE
  8
1
 10
15578.9980
 20
8350.87109
 11
9640.61719
 21
7757.03418
  0
LINE
  8
1
 10
9640.61719
 20
7757.03418
 11
9639.82031
 21
7764.99414
  0
LINE
  8
1
 10
9639.82031
 20
7764.99414
 11
15578.2051
 21
8358.83105
  0
LINE
  8
1
 10
15578.9980
 20
8350.87109
 11
15578.2051
 21
8358.83105
  0
LINE
  8
1
 10
15648.6221
 20
7654.20850
 11
9715.23047
 21
7010.88916
  0
LINE
  8
1
 10
9715.23047
 20
7010.88916
 11
9715.77148
 21
7005.91797
  0
LINE
  8
1
 10
9715.77148
 20
7005.91797
 11
15649.1611
 21
7649.23779
  0
LINE
  8
1
 10
15648.6221
 20
7654.20850
 11
15649.1611
 21
7649.23779
  0
LINE
  8
1
 10
15561.3867
 20
8399.36035
 11
15618.5020
 21
8405.07227
  0
LINE
  8
1
 10
15571.3379
 20
8299.85742
 11
15628.4531
 21
8305.56934
  0
LINE
  8
1
 10
15601.1885
 20
8001.34570
 11
15658.3037
 21
8007.05811
  0
LINE
  8
1
 10
15631.0381
 20
7702.83496
 11
15688.1553
 21
7708.54541
  0
LINE
  8
1
 10
15640.9893
 20
7603.33105
 11
15698.1055
 21
7609.04150
  0
LINE
  8
1
 10
15584.9697
 20
8451.96875
 11
15674.5234
 21
7556.43457
  0
LINE
  8
1
 10
15674.5234
 20
7556.43457
 11
15658.6035
 21
7554.84277
  0
LINE
  8
1
 10
15658.6035
 20
7554.84277
 11
15569.0498
 21
8450.37598
  0
LINE
  8
1
 10
15584.9697
 20
8451.96875
 11
15569.0498
 21
8450.37598
  0
LINE
  8
1
 10
9591.16211
 20
7802.33740
 11
9648.27832
 21
7808.04980
  0
LINE
  8
1
 10
9601.11328
 20
7702.83496
 11
9658.22852
 21
7708.54541
  0
LINE
  8
1
 10
9633.45215
 20
7379.44775
 11
9690.56836
 21
7385.15918
  0
LINE
  8
1
 10
9665.79004
 20
7056.06104
 11
9722.90723
 21
7061.77197
  0
LINE
  8
1
 10
9675.74219
 20
6956.55664
 11
9732.85742
 21
6962.26807
  0
LINE
  8
1
 10
9614.74512
 20
7854.94580
 11
9709.27344
 21
6909.66016
  0
LINE
  8
1
 10
9709.27344
 20
6909.66016
 11
9725.19531
 21
6911.25098
  0
LINE
  8
1
 10
9725.19531
 20
6911.25098
 11
9630.66504
 21
7856.53809
  0
LINE
  8
1
 10
9614.74512
 20
7854.94580
 11
9630.66504
 21
7856.53809
  0
LINE
  8
1
 10
15578.2051
 20
8358.83105
 11
15458.7988
 21
8346.89160
  0
LINE
  8
1
 10
15458.7988
 20
8346.89160
 11
15569.0498
 21
8450.37598
  0
LINE
  8
1
 10
15569.0498
 20
8450.37598
 11
15569.0498
 21
8450.37598
  0
LINE
  8
1
 10
15578.2051
 20
8358.83105
 11
15569.0498
 21
8450.37598
  0
LINE
  8
1
 10
15649.1611
 20
7649.23779
 11
15529.8574
 21
7636.30273
  0
LINE
  8
1
 10
15529.8574
 20
7636.30273
 11
15658.6035
 21
7554.84277
  0
LINE
  8
1
 10
15658.6035
 20
7554.84277
 11
15658.6035
 21
7554.84277
  0
LINE
  8
1
 10
15649.1611
 20
7649.23779
 11
15658.6035
 21
7554.84277
  0
LINE
  8
1
 10
9639.82031
 20
7764.99414
 11
9759.22461
 21
7776.93506
  0
LINE
  8
1
 10
9759.22461
 20
7776.93506
 11
9630.66504
 21
7856.53809
  0
LINE
  8
1
 10
9630.66504
 20
7856.53809
 11
9630.66504
 21
7856.53809
  0
LINE
  8
1
 10
9639.82031
 20
7764.99414
 11
9630.66504
 21
7856.53809
  0
LINE
  8
1
 10
9715.72852
 20
7005.91406
 11
9835.03320
 21
7018.84912
  0
LINE
  8
1
 10
9835.03320
 20
7018.84912
 11
9725.19531
 21
6911.25098
  0
LINE
  8
1
 10
9725.19531
 20
6911.25098
 11
9725.19531
 21
6911.25098
  0
LINE
  8
1
 10
9715.72852
 20
7005.91406
 11
9725.19531
 21
6911.25098
  0
LINE
  8
1
 10
27481.0332
 20
9541.07520
 11
27555.5977
 21
8795.46094
  0
LINE
  8
1
 10
27555.5977
 20
8795.46094
 11
21560.5664
 21
8446.53613
  0
LINE
  8
1
 10
21560.5664
 20
8446.53613
 11
21560.5664
 21
8446.53613
  0
LINE
  8
1
 10
21560.5664
 20
8446.53613
 11
21510.8145
 21
8944.05469
  0
LINE
  8
1
 10
27481.0332
 20
9541.07520
 11
21510.8145
 21
8944.05469
  0
LINE
  8
1
 10
21510.8145
 20
8944.05469
 11
21560.5664
 21
8446.53613
  0
LINE
  8
1
 10
21560.5664
 20
8446.53613
 11
15680.4404
 21
7658.06592
  0
LINE
  8
1
 10
15680.4404
 20
7658.06592
 11
15680.4404
 21
7658.06592
  0
LINE
  8
1
 10
15680.4404
 20
7658.06592
 11
15610.8389
 21
8354.05664
  0
LINE
  8
1
 10
21510.8145
 20
8944.05469
 11
15610.8389
 21
8354.05664
  0
LINE
  8
1
 10
27481.0332
 20
9541.07520
 11
21809.3242
 21
8973.90527
  0
LINE
  8
1
 10
21809.3242
 20
8973.90527
 11
21808.7266
 21
8979.87598
  0
LINE
  8
1
 10
21808.7266
 20
8979.87598
 11
27480.4375
 21
9547.04688
  0
LINE
  8
1
 10
27481.0332
 20
9541.07520
 11
27480.4375
 21
9547.04688
  0
LINE
  8
1
 10
21809.3242
 20
8973.90527
 11
15610.8389
 21
8354.05664
  0
LINE
  8
1
 10
15610.8389
 20
8354.05664
 11
15610.0430
 21
8362.01660
  0
LINE
  8
1
 10
15610.0430
 20
8362.01660
 11
21808.5293
 21
8981.86523
  0
LINE
  8
1
 10
21809.3242
 20
8973.90527
 11
21808.5293
 21
8981.86523
  0
LINE
  8
1
 10
27555.5977
 20
8795.46094
 11
21560.8672
 21
8446.55371
  0
LINE
  8
1
 10
21560.8672
 20
8446.55371
 11
21561.3320
 21
8438.56738
  0
LINE
  8
1
 10
21561.3320
 20
8438.56738
 11
27556.0645
 21
8787.47461
  0
LINE
  8
1
 10
27555.5977
 20
8795.46094
 11
27556.0645
 21
8787.47461
  0
LINE
  8
1
 10
21560.3418
 20
8446.50586
 11
15680.4404
 21
7658.06592
  0
LINE
  8
1
 10
15680.4404
 20
7658.06592
 11
15681.2363
 21
7652.11963
  0
LINE
  8
1
 10
15681.2363
 20
7652.11963
 11
21561.1387
 21
8440.55957
  0
LINE
  8
1
 10
21560.3418
 20
8446.50586
 11
21561.1387
 21
8440.55957
  0
LINE
  8
1
 10
27463.4277
 20
9589.56445
 11
27520.5371
 21
9595.27637
  0
LINE
  8
1
 10
27473.3770
 20
9490.06152
 11
27530.4902
 21
9495.77344
  0
LINE
  8
1
 10
27505.7148
 20
9166.67480
 11
27562.8281
 21
9172.38574
  0
LINE
  8
1
 10
27538.0508
 20
8843.28711
 11
27595.1641
 21
8848.99805
  0
LINE
  8
1
 10
27548.0039
 20
8743.78320
 11
27605.1172
 21
8749.49414
  0
LINE
  8
1
 10
27487.0078
 20
9642.17285
 11
27581.5352
 21
8696.88672
  0
LINE
  8
1
 10
27581.5352
 20
8696.88672
 11
27565.6133
 21
8695.29492
  0
LINE
  8
1
 10
27565.6133
 20
8695.29492
 11
27471.0840
 21
9640.58008
  0
LINE
  8
1
 10
27487.0078
 20
9642.17285
 11
27471.0840
 21
9640.58008
  0
LINE
  8
1
 10
15561.3867
 20
8399.36035
 11
15618.5020
 21
8405.07227
  0
LINE
  8
1
 10
15571.3379
 20
8299.85742
 11
15628.4531
 21
8305.56934
  0
LINE
  8
1
 10
15601.1885
 20
8001.34570
 11
15658.3037
 21
8007.05811
  0
LINE
  8
1
 10
15631.0381
 20
7702.83496
 11
15688.1553
 21
7708.54541
  0
LINE
  8
1
 10
15640.9893
 20
7603.33105
 11
15698.1055
 21
7609.04150
  0
LINE
  8
1
 10
15584.9697
 20
8451.96875
 11
15674.5234
 21
7556.43457
  0
LINE
  8
1
 10
15674.5234
 20
7556.43457
 11
15690.4414
 21
7558.02686
  0
LINE
  8
1
 10
15690.4414
 20
7558.02686
 11
15600.8896
 21
8453.56055
  0
LINE
  8
1
 10
15584.9697
 20
8451.96875
 11
15600.8896
 21
8453.56055
  0
LINE
  8
1
 10
27480.4375
 20
9547.04688
 11
27361.0371
 21
9535.10645
  0
LINE
  8
1
 10
27361.0371
 20
9535.10645
 11
27471.0840
 21
9640.58008
  0
LINE
  8
1
 10
27471.0840
 20
9640.58008
 11
27471.0840
 21
9640.58008
  0
LINE
  8
1
 10
27480.4375
 20
9547.04688
 11
27471.0840
 21
9640.58008
  0
LINE
  8
1
 10
27556.3945
 20
8787.49414
 11
27436.4922
 21
8780.51465
  0
LINE
  8
1
 10
27436.4922
 20
8780.51465
 11
27565.6133
 21
8695.28027
  0
LINE
  8
1
 10
27565.6133
 20
8695.28027
 11
27565.6133
 21
8695.28027
  0
LINE
  8
1
 10
27556.3945
 20
8787.49414
 11
27565.6133
 21
8695.28027
  0
LINE
  8
1
 10
15610.0430
 20
8362.01660
 11
15729.4492
 21
8373.95703
  0
LINE
  8
1
 10
15729.4492
 20
8373.95703
 11
15600.8896
 21
8453.56055
  0
LINE
  8
1
 10
15600.8896
 20
8453.56055
 11
15600.8896
 21
8453.56055
  0
LINE
  8
1
 10
15610.0430
 20
8362.01660
 11
15600.8896
 21
8453.56055
  0
LINE
  8
1
 10
15681.0352
 20
7652.09131
 11
15800.0371
 21
7668.04980
  0
LINE
  8
1
 10
15800.0371
 20
7668.04980
 11
15690.4414
 21
7558.02002
  0
LINE
  8
1
 10
15690.4414
 20
7558.02002
 11
15690.4414
 21
7558.02002
  0
LINE
  8
1
 10
15681.0352
 20
7652.09131
 11
15690.4414
 21
7558.02002
  0
LINE
  8
1
 10
27587.6641
 20
8796.38965
 11
27512.8809
 21
9544.26074
  0
LINE
  8
1
 10
27512.8809
 20
9544.26074
 11
30500.0039
 21
9842.97266
  0
LINE
  8
1
 10
30500.0039
 20
9842.97266
 11
33487.1016
 21
9544.26270
  0
LINE
  8
1
 10
33487.1016
 20
9544.26270
 11
33412.3164
 21
8796.38965
  0
LINE
  8
1
 10
27587.6641
 20
8796.38965
 11
33412.3164
 21
8796.38965
  0
LINE
  8
1
 10
27512.8809
 20
9544.26074
 11
30500.0039
 21
9842.97266
  0
LINE
  8
1
 10
30500.0039
 20
9842.97266
 11
30499.2070
 21
9850.93262
  0
LINE
  8
1
 10
30499.2070
 20
9850.93262
 11
27512.0840
 21
9552.22070
  0
LINE
  8
1
 10
27512.8809
 20
9544.26074
 11
27512.0840
 21
9552.22070
  0
LINE
  8
1
 10
30500.0039
 20
9842.97266
 11
33487.1016
 21
9544.26270
  0
LINE
  8
1
 10
33487.1016
 20
9544.26270
 11
33487.8984
 21
9552.22266
  0
LINE
  8
1
 10
33487.8984
 20
9552.22266
 11
30500.8008
 21
9850.93262
  0
LINE
  8
1
 10
30500.0039
 20
9842.97266
 11
30500.8008
 21
9850.93262
  0
LINE
  8
1
 10
27588.4648
 20
8796.38965
 11
30286.4023
 21
8796.38965
  0
LINE
  8
1
 10
30286.4023
 20
8796.38965
 11
30286.4023
 21
8788.39063
  0
LINE
  8
1
 10
30286.4023
 20
8788.39063
 11
27588.4648
 21
8788.39063
  0
LINE
  8
1
 10
27588.4648
 20
8796.38965
 11
27588.4648
 21
8788.39063
  0
LINE
  8
1
 10
30713.5996
 20
8796.38965
 11
33411.5117
 21
8796.38965
  0
LINE
  8
1
 10
33411.5117
 20
8796.38965
 11
33411.5117
 21
8788.39063
  0
LINE
  8
1
 10
33411.5117
 20
8788.39063
 11
30713.5996
 21
8788.39063
  0
LINE
  8
1
 10
30713.5996
 20
8796.38965
 11
30713.5996
 21
8788.39063
  0
LINE
  8
1
 10
30391.4043
 20
9726.39063
 11
30391.4043
 21
8796.38965
  0
LINE
  8
1
 10
30381.4023
 20
9726.39063
 11
30381.4023
 21
8796.38965
  0
LINE
  8
1
 10
30391.4043
 20
9726.39063
 11
30381.4023
 21
9726.39063
  0
LINE
  8
1
 10
30391.4043
 20
8796.38965
 11
30381.4023
 21
8796.38965
  0
LINE
  8
1
 10
30618.6016
 20
9726.39063
 11
30618.6016
 21
8796.38965
  0
LINE
  8
1
 10
30608.5977
 20
9726.39063
 11
30608.5977
 21
8796.38965
  0
LINE
  8
1
 10
30618.6016
 20
9726.39063
 11
30608.5977
 21
9726.39063
  0
LINE
  8
1
 10
30618.6016
 20
8796.38965
 11
30608.5977
 21
8796.38965
  0
LINE
  8
1
 10
27463.4277
 20
9589.56445
 11
27520.5371
 21
9595.27637
  0
LINE
  8
1
 10
27473.3770
 20
9490.06152
 11
27530.4902
 21
9495.77344
  0
LINE
  8
1
 10
27505.7148
 20
9166.67480
 11
27562.8281
 21
9172.38574
  0
LINE
  8
1
 10
27538.0508
 20
8843.28711
 11
27595.1641
 21
8848.99805
  0
LINE
  8
1
 10
27548.0039
 20
8743.78320
 11
27605.1172
 21
8749.49414
  0
LINE
  8
1
 10
27487.0078
 20
9642.17285
 11
27581.5352
 21
8696.88672
  0
LINE
  8
1
 10
27581.5352
 20
8696.88672
 11
27597.4551
 21
8698.47852
  0
LINE
  8
1
 10
27597.4551
 20
8698.47852
 11
27502.9277
 21
9643.76465
  0
LINE
  8
1
 10
27487.0078
 20
9642.17285
 11
27502.9277
 21
9643.76465
  0
LINE
  8
1
 10
33479.4414
 20
9595.27832
 11
33536.5547
 21
9589.56738
  0
LINE
  8
1
 10
33469.4922
 20
9495.77539
 11
33526.6055
 21
9490.06445
  0
LINE
  8
1
 10
33437.1563
 20
9172.38770
 11
33494.2695
 21
9166.67676
  0
LINE
  8
1
 10
33404.8164
 20
8849.00098
 11
33461.9297
 21
8843.28906
  0
LINE
  8
1
 10
33394.8672
 20
8749.49707
 11
33451.9805
 21
8743.78516
  0
LINE
  8
1
 10
33512.9727
 20
9642.17480
 11
33418.4453
 21
8696.88770
  0
LINE
  8
1
 10
33418.4453
 20
8696.88770
 11
33402.5234
 21
8698.47852
  0
LINE
  8
1
 10
33402.5234
 20
8698.47852
 11
33497.0508
 21
9643.76660
  0
LINE
  8
1
 10
33512.9727
 20
9642.17480
 11
33497.0508
 21
9643.76660
  0
LINE
  8
1
 10
27512.0840
 20
9552.22070
 11
27631.4844
 21
9564.16113
  0
LINE
  8
1
 10
27631.4844
 20
9564.16113
 11
27502.9277
 21
9643.76465
  0
LINE
  8
1
 10
27502.9277
 20
9643.76465
 11
27502.9277
 21
9643.76465
  0
LINE
  8
1
 10
27512.0840
 20
9552.22070
 11
27502.9277
 21
9643.76465
  0
LINE
  8
1
 10
27588.4648
 20
8788.39063
 11
27709.0625
 21
8788.39063
  0
LINE
  8
1
 10
27709.0625
 20
8788.39063
 11
27597.4551
 21
8698.47852
  0
LINE
  8
1
 10
27597.4551
 20
8698.47852
 11
27597.4551
 21
8698.47852
  0
LINE
  8
1
 10
27588.4648
 20
8788.39063
 11
27597.4551
 21
8698.47852
  0
LINE
  8
1
 10
33487.8984
 20
9552.22266
 11
33368.4961
 21
9564.16211
  0
LINE
  8
1
 10
33368.4961
 20
9564.16211
 11
33497.0508
 21
9643.76660
  0
LINE
  8
1
 10
33497.0508
 20
9643.76660
 11
33497.0508
 21
9643.76660
  0
LINE
  8
1
 10
33487.8984
 20
9552.22266
 11
33497.0508
 21
9643.76660
  0
LINE
  8
1
 10
33411.5117
 20
8788.39063
 11
33290.9180
 21
8788.39063
  0
LINE
  8
1
 10
33290.9180
 20
8788.39063
 11
33402.5234
 21
8698.47852
  0
LINE
  8
1
 10
33402.5234
 20
8698.47852
 11
33402.5234
 21
8698.47852
  0
LINE
  8
1
 10
33411.5117
 20
8788.39063
 11
33402.5234
 21
8698.47852
  0
LINE
  8
1
 10
30286.4023
 20
8796.38965
 11
30713.5996
 21
8796.38965
  0
LINE
  8
1
 10
30286.4023
 20
8796.38965
 11
30286.4023
 21
8780.39063
  0
LINE
  8
1
 10
30713.5996
 20
8796.38965
 11
30713.5996
 21
8780.39063
  0
LINE
  8
1
 10
30286.4023
 20
8780.39063
 11
30713.5996
 21
8780.39063
  0
LINE
  8
1
 10
33518.9453
 20
9541.07910
 11
33444.3828
 21
8795.46289
  0
LINE
  8
1
 10
33444.3828
 20
8795.46289
 11
39439.4141
 21
8446.53809
  0
LINE
  8
1
 10
39439.4141
 20
8446.53809
 11
39439.4141
 21
8446.53809
  0
LINE
  8
1
 10
39439.4141
 20
8446.53809
 11
39489.1680
 21
8944.05664
  0
LINE
  8
1
 10
33518.9453
 20
9541.07910
 11
39489.1680
 21
8944.05664
  0
LINE
  8
1
 10
39489.1680
 20
8944.05664
 11
39439.4141
 21
8446.53809
  0
LINE
  8
1
 10
39439.4141
 20
8446.53809
 11
45319.5469
 21
7658.06934
  0
LINE
  8
1
 10
45319.5469
 20
7658.06934
 11
45319.5469
 21
7658.06934
  0
LINE
  8
1
 10
45319.5469
 20
7658.06934
 11
45389.1406
 21
8354.05859
  0
LINE
  8
1
 10
39489.1680
 20
8944.05664
 11
45389.1406
 21
8354.05859
  0
LINE
  8
1
 10
33518.9453
 20
9541.07910
 11
39190.6563
 21
8973.90820
  0
LINE
  8
1
 10
39190.6563
 20
8973.90820
 11
39191.2539
 21
8979.87793
  0
LINE
  8
1
 10
39191.2539
 20
8979.87793
 11
33519.5430
 21
9547.04883
  0
LINE
  8
1
 10
33518.9453
 20
9541.07910
 11
33519.5430
 21
9547.04883
  0
LINE
  8
1
 10
39190.6563
 20
8973.90820
 11
45389.1406
 21
8354.05859
  0
LINE
  8
1
 10
45389.1406
 20
8354.05859
 11
45389.9375
 21
8362.01855
  0
LINE
  8
1
 10
45389.9375
 20
8362.01855
 11
39191.4531
 21
8981.86816
  0
LINE
  8
1
 10
39190.6563
 20
8973.90820
 11
39191.4531
 21
8981.86816
  0
LINE
  8
1
 10
33444.3828
 20
8795.46289
 11
39439.1133
 21
8446.55566
  0
LINE
  8
1
 10
39439.1133
 20
8446.55566
 11
39438.6445
 21
8438.56934
  0
LINE
  8
1
 10
39438.6445
 20
8438.56934
 11
33443.9180
 21
8787.47656
  0
LINE
  8
1
 10
33444.3828
 20
8795.46289
 11
33443.9180
 21
8787.47656
  0
LINE
  8
1
 10
39439.6367
 20
8446.50781
 11
45319.5469
 21
7658.06934
  0
LINE
  8
1
 10
45319.5469
 20
7658.06934
 11
45318.7500
 21
7652.12207
  0
LINE
  8
1
 10
45318.7500
 20
7652.12207
 11
39438.8398
 21
8440.56055
  0
LINE
  8
1
 10
39439.6367
 20
8446.50781
 11
39438.8398
 21
8440.56055
  0
LINE
  8
1
 10
33479.4414
 20
9595.27832
 11
33536.5547
 21
9589.56738
  0
LINE
  8
1
 10
33469.4922
 20
9495.77539
 11
33526.6055
 21
9490.06445
  0
LINE
  8
1
 10
33437.1563
 20
9172.38770
 11
33494.2695
 21
9166.67676
  0
LINE
  8
1
 10
33404.8164
 20
8849.00098
 11
33461.9297
 21
8843.28906
  0
LINE
  8
1
 10
33394.8672
 20
8749.49707
 11
33451.9805
 21
8743.78516
  0
LINE
  8
1
 10
33512.9727
 20
9642.17480
 11
33418.4453
 21
8696.88770
  0
LINE
  8
1
 10
33418.4453
 20
8696.88770
 11
33434.3672
 21
8695.29590
  0
LINE
  8
1
 10
33434.3672
 20
8695.29590
 11
33528.8906
 21
9640.58301
  0
LINE
  8
1
 10
33512.9727
 20
9642.17480
 11
33528.8906
 21
9640.58301
  0
LINE
  8
1
 10
45381.4805
 20
8405.07422
 11
45438.5938
 21
8399.36328
  0
LINE
  8
1
 10
45371.5313
 20
8305.57031
 11
45428.6445
 21
8299.85938
  0
LINE
  8
1
 10
45341.6797
 20
8007.06006
 11
45398.7930
 21
8001.34863
  0
LINE
  8
1
 10
45311.8320
 20
7708.54785
 11
45368.9453
 21
7702.83691
  0
LINE
  8
1
 10
45301.8828
 20
7609.04492
 11
45358.9961
 21
7603.33252
  0
LINE
  8
1
 10
45415.0117
 20
8451.97070
 11
45325.4609
 21
7556.43701
  0
LINE
  8
1
 10
45325.4609
 20
7556.43701
 11
45309.5391
 21
7558.02832
  0
LINE
  8
1
 10
45309.5391
 20
7558.02832
 11
45399.0898
 21
8453.56152
  0
LINE
  8
1
 10
45415.0117
 20
8451.97070
 11
45399.0898
 21
8453.56152
  0
LINE
  8
1
 10
33519.5430
 20
9547.04883
 11
33638.9453
 21
9535.10840
  0
LINE
  8
1
 10
33638.9453
 20
9535.10840
 11
33528.8906
 21
9640.58301
  0
LINE
  8
1
 10
33528.8906
 20
9640.58301
 11
33528.8906
 21
9640.58301
  0
LINE
  8
1
 10
33519.5430
 20
9547.04883
 11
33528.8906
 21
9640.58301
  0
LINE
  8
1
 10
33443.5898
 20
8787.49609
 11
33563.4883
 21
8780.51758
  0
LINE
  8
1
 10
33563.4883
 20
8780.51758
 11
33434.3672
 21
8695.28027
  0
LINE
  8
1
 10
33434.3672
 20
8695.28027
 11
33434.3672
 21
8695.28027
  0
LINE
  8
1
 10
33443.5898
 20
8787.49609
 11
33434.3672
 21
8695.28027
  0
LINE
  8
1
 10
45389.9375
 20
8362.01855
 11
45270.5352
 21
8373.95898
  0
LINE
  8
1
 10
45270.5352
 20
8373.95898
 11
45399.0898
 21
8453.56152
  0
LINE
  8
1
 10
45399.0898
 20
8453.56152
 11
45399.0898
 21
8453.56152
  0
LINE
  8
1
 10
45389.9375
 20
8362.01855
 11
45399.0898
 21
8453.56152
  0
LINE
  8
1
 10
45318.9492
 20
7652.09619
 11
45199.9453
 21
7668.05225
  0
LINE
  8
1
 10
45199.9453
 20
7668.05225
 11
45309.5391
 21
7558.02197
  0
LINE
  8
1
 10
45309.5391
 20
7558.02197
 11
45309.5391
 21
7558.02197
  0
LINE
  8
1
 10
45318.9492
 20
7652.09619
 11
45309.5391
 21
7558.02197
  0
LINE
  8
1
 10
45420.9844
 20
8350.87500
 11
45351.3164
 21
7654.21582
  0
LINE
  8
1
 10
45351.3164
 20
7654.21582
 11
51284.7461
 21
7010.89111
  0
LINE
  8
1
 10
51284.7461
 20
7010.89111
 11
51284.7461
 21
7010.89111
  0
LINE
  8
1
 10
51284.7461
 20
7010.89111
 11
51359.3633
 21
7757.03662
  0
LINE
  8
1
 10
45420.9844
 20
8350.87500
 11
51359.3633
 21
7757.03662
  0
LINE
  8
1
 10
45420.9844
 20
8350.87500
 11
51359.3633
 21
7757.03662
  0
LINE
  8
1
 10
51359.3633
 20
7757.03662
 11
51360.1602
 21
7764.99707
  0
LINE
  8
1
 10
51360.1602
 20
7764.99707
 11
45421.7813
 21
8358.83496
  0
LINE
  8
1
 10
45420.9844
 20
8350.87500
 11
45421.7813
 21
8358.83496
  0
LINE
  8
1
 10
45351.3633
 20
7654.21191
 11
51284.7461
 21
7010.89111
  0
LINE
  8
1
 10
51284.7461
 20
7010.89111
 11
51284.2070
 21
7005.91943
  0
LINE
  8
1
 10
51284.2070
 20
7005.91943
 11
45350.8203
 21
7649.24072
  0
LINE
  8
1
 10
45351.3633
 20
7654.21191
 11
45350.8203
 21
7649.24072
  0
LINE
  8
1
 10
45381.4805
 20
8405.07422
 11
45438.5938
 21
8399.36328
  0
LINE
  8
1
 10
45371.5313
 20
8305.57031
 11
45428.6445
 21
8299.85938
  0
LINE
  8
1
 10
45341.6797
 20
8007.06006
 11
45398.7930
 21
8001.34863
  0
LINE
  8
1
 10
45311.8320
 20
7708.54785
 11
45368.9453
 21
7702.83691
  0
LINE
  8
1
 10
45301.8828
 20
7609.04492
 11
45358.9961
 21
7603.33252
  0
LINE
  8
1
 10
45415.0117
 20
8451.97070
 11
45325.4609
 21
7556.43701
  0
LINE
  8
1
 10
45325.4609
 20
7556.43701
 11
45341.3789
 21
7554.84473
  0
LINE
  8
1
 10
45341.3789
 20
7554.84473
 11
45430.9336
 21
8450.37891
  0
LINE
  8
1
 10
45415.0117
 20
8451.97070
 11
45430.9336
 21
8450.37891
  0
LINE
  8
1
 10
51351.7031
 20
7808.05176
 11
51408.8164
 21
7802.34131
  0
LINE
  8
1
 10
51341.7539
 20
7708.54932
 11
51398.8633
 21
7702.83691
  0
LINE
  8
1
 10
51309.4180
 20
7385.16211
 11
51366.5273
 21
7379.45020
  0
LINE
  8
1
 10
51277.0781
 20
7061.77344
 11
51334.1914
 21
7056.06250
  0
LINE
  8
1
 10
51267.1289
 20
6962.27051
 11
51324.2383
 21
6956.55957
  0
LINE
  8
1
 10
51385.2344
 20
7854.94824
 11
51290.7070
 21
6909.66260
  0
LINE
  8
1
 10
51290.7070
 20
6909.66260
 11
51274.7813
 21
6911.25488
  0
LINE
  8
1
 10
51274.7813
 20
6911.25488
 11
51369.3086
 21
7856.54102
  0
LINE
  8
1
 10
51385.2344
 20
7854.94824
 11
51369.3086
 21
7856.54102
  0
LINE
  8
1
 10
45421.7813
 20
8358.83496
 11
45541.1836
 21
8346.89453
  0
LINE
  8
1
 10
45541.1836
 20
8346.89453
 11
45430.9336
 21
8450.37891
  0
LINE
  8
1
 10
45430.9336
 20
8450.37891
 11
45430.9336
 21
8450.37891
  0
LINE
  8
1
 10
45421.7813
 20
8358.83496
 11
45430.9336
 21
8450.37891
  0
LINE
  8
1
 10
45350.8203
 20
7649.24072
 11
45470.1250
 21
7636.30518
  0
LINE
  8
1
 10
45470.1250
 20
7636.30518
 11
45341.3789
 21
7554.84473
  0
LINE
  8
1
 10
45341.3789
 20
7554.84473
 11
45341.3789
 21
7554.84473
  0
LINE
  8
1
 10
45350.8203
 20
7649.24072
 11
45341.3789
 21
7554.84473
  0
LINE
  8
1
 10
51360.1602
 20
7764.99707
 11
51240.7578
 21
7776.93701
  0
LINE
  8
1
 10
51240.7578
 20
7776.93701
 11
51369.3086
 21
7856.54102
  0
LINE
  8
1
 10
51369.3086
 20
7856.54102
 11
51369.3086
 21
7856.54102
  0
LINE
  8
1
 10
51360.1602
 20
7764.99707
 11
51369.3086
 21
7856.54102
  0
LINE
  8
1
 10
51284.2500
 20
7005.91553
 11
51164.9492
 21
7018.85107
  0
LINE
  8
1
 10
51164.9492
 20
7018.85107
 11
51274.7813
 21
6911.25391
  0
LINE
  8
1
 10
51274.7813
 20
6911.25391
 11
51274.7813
 21
6911.25391
  0
LINE
  8
1
 10
51284.2500
 20
7005.91553
 11
51274.7813
 21
6911.25391
  0
LINE
  8
1
 10
51391.2070
 20
7753.85205
 11
51316.6172
 21
7007.97119
  0
LINE
  8
1
 10
51316.6172
 20
7007.97119
 11
57301.7227
 21
6559.80811
  0
LINE
  8
1
 10
57301.7227
 20
6559.80811
 11
57301.7227
 21
6559.80811
  0
LINE
  8
1
 10
57301.7227
 20
6559.80811
 11
57361.4258
 21
7156.83154
  0
LINE
  8
1
 10
51391.2070
 20
7753.85205
 11
57361.4258
 21
7156.83154
  0
LINE
  8
1
 10
57361.4258
 20
7156.83154
 11
57301.7227
 21
6559.80811
  0
LINE
  8
1
 10
57301.7227
 20
6559.80811
 11
60340.6289
 21
6355.91699
  0
LINE
  8
1
 10
60340.6289
 20
6355.91699
 11
60845.0039
 21
6355.91699
  0
LINE
  8
1
 10
60845.0039
 20
6355.91699
 11
60845.0039
 21
6808.47314
  0
LINE
  8
1
 10
57361.4258
 20
7156.83154
 11
60845.0039
 21
6808.47314
  0
LINE
  8
1
 10
60490.3789
 20
6813.23730
 11
60444.6094
 21
6355.51953
  0
LINE
  8
1
 10
60482.4141
 20
6814.03223
 11
60436.6445
 21
6356.31445
  0
LINE
  8
1
 10
60490.3789
 20
6813.23730
 11
60482.4141
 21
6814.03223
  0
LINE
  8
1
 10
60444.6094
 20
6355.51953
 11
60436.6445
 21
6356.31445
  0
LINE
  8
1
 10
51391.2070
 20
7753.85205
 11
57659.9414
 21
7126.97900
  0
LINE
  8
1
 10
57659.9414
 20
7126.97900
 11
57660.5391
 21
7132.94922
  0
LINE
  8
1
 10
57660.5391
 20
7132.94922
 11
51391.8047
 21
7759.82227
  0
LINE
  8
1
 10
51391.2070
 20
7753.85205
 11
51391.8047
 21
7759.82227
  0
LINE
  8
1
 10
57659.9414
 20
7126.97900
 11
60989.5039
 21
6794.02197
  0
LINE
  8
1
 10
60989.5039
 20
6794.02197
 11
60990.0039
 21
6798.99707
  0
LINE
  8
1
 10
60990.0039
 20
6798.99707
 11
57660.4336
 21
7131.95410
  0
LINE
  8
1
 10
57659.9414
 20
7126.97900
 11
57660.4336
 21
7131.95410
  0
LINE
  8
1
 10
60845.0039
 20
6807.97266
 11
60845.0039
 21
6355.91699
  0
LINE
  8
1
 10
60845.0039
 20
6355.91699
 11
60850.0039
 21
6355.91699
  0
LINE
  8
1
 10
60850.0039
 20
6355.91699
 11
60850.0039
 21
6807.97266
  0
LINE
  8
1
 10
60845.0039
 20
6807.97266
 11
60850.0039
 21
6807.97266
  0
LINE
  8
1
 10
60850.0039
 20
6807.97266
 11
61000.0078
 21
6792.97266
  0
LINE
  8
1
 10
61000.0078
 20
6792.97266
 11
60850.0039
 21
6732.97266
  0
LINE
  8
1
 10
51316.6172
 20
7007.97119
 11
57301.7227
 21
6559.80811
  0
LINE
  8
1
 10
57301.7227
 20
6559.80811
 11
57301.3516
 21
6554.82129
  0
LINE
  8
1
 10
57301.3516
 20
6554.82129
 11
51316.2422
 21
7002.98584
  0
LINE
  8
1
 10
51316.6172
 20
7007.97119
 11
51316.2422
 21
7002.98584
  0
LINE
  8
1
 10
57301.7227
 20
6559.80811
 11
60340.6289
 21
6355.91699
  0
LINE
  8
1
 10
60340.6289
 20
6355.91699
 11
60340.2930
 21
6350.92822
  0
LINE
  8
1
 10
60340.2930
 20
6350.92822
 11
57301.3906
 21
6554.81836
  0
LINE
  8
1
 10
57301.7227
 20
6559.80811
 11
57301.3906
 21
6554.81836
  0
LINE
  8
1
 10
51351.7031
 20
7808.05176
 11
51408.8164
 21
7802.34131
  0
LINE
  8
1
 10
51341.7539
 20
7708.54932
 11
51398.8633
 21
7702.83691
  0
LINE
  8
1
 10
51309.4180
 20
7385.16211
 11
51366.5273
 21
7379.45020
  0
LINE
  8
1
 10
51277.0781
 20
7061.77344
 11
51334.1914
 21
7056.06250
  0
LINE
  8
1
 10
51267.1289
 20
6962.27051
 11
51324.2383
 21
6956.55957
  0
LINE
  8
1
 10
51385.2344
 20
7854.94824
 11
51290.7070
 21
6909.66260
  0
LINE
  8
1
 10
51290.7070
 20
6909.66260
 11
51306.6289
 21
6908.06982
  0
LINE
  8
1
 10
51306.6289
 20
6908.06982
 11
51401.1563
 21
7853.35596
  0
LINE
  8
1
 10
51385.2344
 20
7854.94824
 11
51401.1563
 21
7853.35596
  0
LINE
  8
1
 10
60895.0000
 20
6368.61719
 11
60895.0000
 21
6311.21680
  0
LINE
  8
1
 10
60795.0000
 20
6368.61719
 11
60795.0000
 21
6311.21680
  0
LINE
  8
1
 10
60495.0000
 20
6368.61719
 11
60495.0000
 21
6311.21680
  0
LINE
  8
1
 10
60395.0000
 20
6368.61719
 11
60395.0000
 21
6311.21680
  0
LINE
  8
1
 10
60945.0039
 20
6339.91699
 11
60344.6289
 21
6339.91699
  0
LINE
  8
1
 10
60344.6289
 20
6339.91699
 11
60344.6289
 21
6355.91699
  0
LINE
  8
1
 10
60344.6289
 20
6355.91699
 11
60945.0039
 21
6355.91699
  0
LINE
  8
1
 10
60945.0039
 20
6339.91699
 11
60945.0039
 21
6355.91699
  0
LINE
  8
1
 10
51391.7969
 20
7759.82227
 11
51511.2070
 21
7747.88184
  0
LINE
  8
1
 10
51511.2070
 20
7747.88184
 11
51401.1563
 21
7853.35596
  0
LINE
  8
1
 10
51401.1563
 20
7853.35596
 11
51401.1563
 21
7853.35596
  0
LINE
  8
1
 10
51391.7969
 20
7759.82227
 11
51401.1563
 21
7853.35596
  0
LINE
  8
1
 10
51316.1211
 20
7002.99512
 11
51435.8203
 21
6994.03223
  0
LINE
  8
1
 10
51435.8203
 20
6994.03223
 11
51306.6211
 21
6908.06641
  0
LINE
  8
1
 10
51306.6211
 20
6908.06641
 11
51306.6211
 21
6908.06641
  0
LINE
  8
1
 10
51316.1211
 20
7002.99512
 11
51306.6211
 21
6908.06641
  0
LINE
  8
1
 10
60850.0039
 20
6355.91699
 11
60850.0039
 21
6475.91699
  0
LINE
  8
1
 10
60850.0039
 20
6475.91699
 11
60945.0039
 21
6355.91699
  0
LINE
  8
1
 10
60945.0039
 20
6355.91699
 11
60945.0039
 21
6355.91699
  0
LINE
  8
1
 10
60850.0039
 20
6355.91699
 11
60945.0039
 21
6355.91699
  0
LINE
  8
1
 10
60845.0039
 20
16.0000000
 11
60595.0000
 21
16.0000000
  0
LINE
  8
1
 10
60595.0000
 20
16.0000000
 11
60445.0039
 21
6323.91699
  0
LINE
  8
1
 10
60445.0039
 20
6323.91699
 11
60445.0039
 21
6323.91699
  0
LINE
  8
1
 10
60445.0039
 20
6323.91699
 11
60845.0039
 21
6323.91699
  0
LINE
  8
1
 10
60845.0039
 20
16.0000000
 11
60845.0039
 21
6323.91699
  0
LINE
  8
1
 10
60845.0039
 20
16.0000000
 11
60845.0039
 21
6323.91699
  0
LINE
  8
1
 10
60845.0039
 20
6323.91699
 11
60850.0039
 21
6323.91699
  0
LINE
  8
1
 10
60850.0039
 20
6323.91699
 11
60850.0039
 21
16.0000000
  0
LINE
  8
1
 10
60845.0039
 20
16.0000000
 11
60850.0039
 21
16.0000000
  0
LINE
  8
1
 10
60595.0000
 20
16.1900005
 11
60445.0039
 21
6323.91699
  0
LINE
  8
1
 10
60445.0039
 20
6323.91699
 11
60437.0039
 21
6323.72607
  0
LINE
  8
1
 10
60437.0039
 20
6323.72607
 11
60587.0000
 21
16.0000000
  0
LINE
  8
1
 10
60595.0000
 20
16.1900005
 11
60587.0000
 21
16.0000000
  0
LINE
  8
1
 10
60765.0039
 20
28.7000008
 11
60765.0039
 21
-28.700001
  0
LINE
  8
1
 10
60665.0039
 20
28.7000008
 11
60665.0039
 21
-28.700001
  0
LINE
  8
1
 10
60865.0039
 20
0.00000000
 11
60565.0039
 21
0.00000000
  0
LINE
  8
1
 10
60565.0039
 20
0.00000000
 11
60565.0039
 21
16.0000000
  0
LINE
  8
1
 10
60565.0039
 20
16.0000000
 11
60865.0039
 21
16.0000000
  0
LINE
  8
1
 10
60865.0039
 20
0.00000000
 11
60865.0039
 21
16.0000000
  0
LINE
  8
1
 10
60895.0000
 20
6368.61719
 11
60895.0000
 21
6311.21680
  0
LINE
  8
1
 10
60795.0000
 20
6368.61719
 11
60795.0000
 21
6311.21680
  0
LINE
  8
1
 10
60495.0000
 20
6368.61719
 11
60495.0000
 21
6311.21680
  0
LINE
  8
1
 10
60395.0000
 20
6368.61719
 11
60395.0000
 21
6311.21680
  0
LINE
  8
1
 10
60945.0039
 20
6339.91699
 11
60344.6289
 21
6339.91699
  0
LINE
  8
1
 10
60344.6289
 20
6339.91699
 11
60344.6289
 21
6323.91699
  0
LINE
  8
1
 10
60344.6289
 20
6323.91699
 11
60945.0039
 21
6323.91699
  0
LINE
  8
1
 10
60945.0039
 20
6339.91699
 11
60945.0039
 21
6323.91699
  0
LINE
  8
1
 10
60850.0039
 20
6323.91699
 11
60850.0039
 21
6203.91699
  0
LINE
  8
1
 10
60850.0039
 20
6203.91699
 11
60945.0039
 21
6323.91699
  0
LINE
  8
1
 10
60945.0039
 20
6323.91699
 11
60945.0039
 21
6323.91699
  0
LINE
  8
1
 10
60850.0039
 20
6323.91699
 11
60945.0039
 21
6323.91699
  0
LINE
  8
1
 10
60437.0000
 20
6323.91699
 11
60439.8516
 21
6203.91699
  0
LINE
  8
1
 10
60439.8516
 20
6203.91699
 11
60344.6211
 21
6323.91699
  0
LINE
  8
1
 10
60344.6211
 20
6323.91699
 11
60344.6211
 21
6323.91699
  0
LINE
  8
1
 10
60437.0000
 20
6323.91699
 11
60344.6211
 21
6323.91699
  0
LINE
  8
1
 10
30350.0039
 20
0.00000000
 11
30650.0039
 21
0.00000000
  0
LINE
  8
1
 10
30350.0039
 20
16.0000000
 11
30650.0039
 21
16.0000000
  0
LINE
  8
1
 10
30350.0039
 20
0.00000000
 11
30350.0039
 21
16.0000000
  0
LINE
  8
1
 10
30650.0039
 20
0.00000000
 11
30650.0039
 21
16.0000000
  0
LINE
  8
1
 10
30450.0039
 20
25.3999996
 11
30450.0039
 21
-25.400000
  0
LINE
  8
1
 10
30550.0039
 20
25.3999996
 11
30550.0039
 21
-25.400000
  0
LINE
  8
1
 10
30386.4023
 20
8644.39063
 11
30266.4023
 21
8764.39063
  0
LINE
  8
1
 10
30266.4023
 20
8764.39063
 11
30266.4023
 21
8764.39063
  0
LINE
  8
1
 10
30613.5996
 20
8644.39063
 11
30733.5996
 21
8764.39063
  0
LINE
  8
1
 10
30733.5996
 20
8764.39063
 11
30733.5996
 21
8764.39063
  0
LINE
  8
1
 10
517.590027
 20
6814.03223
 11
563.362000
 21
6356.31445
  0
LINE
  8
1
 10
509.629974
 20
6813.23730
 11
555.401917
 21
6355.51953
  0
LINE
  8
1
 10
517.590027
 20
6814.03223
 11
509.629974
 21
6813.23730
  0
LINE
  8
1
 10
563.362000
 20
6356.31445
 11
555.401917
 21
6355.51953
  0
LINE
  8
1
 10
30391.4043
 20
9726.39063
 11
30391.4043
 21
8796.38965
  0
LINE
  8
1
 10
30381.4023
 20
9726.39063
 11
30381.4023
 21
8796.38965
  0
LINE
  8
1
 10
30391.4043
 20
9726.39063
 11
30381.4023
 21
9726.39063
  0
LINE
  8
1
 10
30391.4043
 20
8796.38965
 11
30381.4023
 21
8796.38965
  0
LINE
  8
1
 10
30618.6016
 20
9726.39063
 11
30618.6016
 21
8796.38965
  0
LINE
  8
1
 10
30608.5977
 20
9726.39063
 11
30608.5977
 21
8796.38965
  0
LINE
  8
1
 10
30618.6016
 20
9726.39063
 11
30608.5977
 21
9726.39063
  0
LINE
  8
1
 10
30618.6016
 20
8796.38965
 11
30608.5977
 21
8796.38965
  0
LINE
  8
1
 10
60490.3789
 20
6813.23730
 11
60444.6094
 21
6355.51953
  0
LINE
  8
1
 10
60482.4141
 20
6814.03223
 11
60436.6445
 21
6356.31445
  0
LINE
  8
1
 10
60490.3789
 20
6813.23730
 11
60482.4141
 21
6814.03223
  0
LINE
  8
1
 10
60444.6094
 20
6355.51953
 11
60436.6445
 21
6356.31445
  0
LINE
  8
1
 10
30386.4023
 20
8644.39063
 11
30266.4023
 21
8764.39063
  0
LINE
  8
1
 10
30266.4023
 20
8764.39063
 11
30266.4023
 21
8764.39063
  0
LINE
  8
1
 10
30613.5996
 20
8644.39063
 11
30733.5996
 21
8764.39063
  0
LINE
  8
1
 10
30733.5996
 20
8764.39063
 11
30733.5996
 21
8764.39063
  0
LINE
  8
2
 10
29863.6406
 20
0.00000000
 11
31136.3594
 21
0.00000000
  0
LINE
  8
2
 10
29863.6406
 20
-152.72615
 11
30016.3672
 21
0.00000000
  0
LINE
  8
2
 10
30016.3672
 20
-152.72615
 11
30169.0938
 21
0.00000000
  0
LINE
  8
2
 10
30169.0938
 20
-152.72615
 11
30321.8203
 21
0.00000000
  0
LINE
  8
2
 10
30321.8203
 20
-152.72615
 11
30474.5449
 21
0.00000000
  0
LINE
  8
2
 10
30474.5449
 20
-152.72615
 11
30627.2695
 21
0.00000000
  0
LINE
  8
2
 10
30627.2695
 20
-152.72615
 11
30779.9961
 21
0.00000000
  0
LINE
  8
2
 10
30779.9961
 20
-152.72615
 11
30932.7227
 21
0.00000000
  0
LINE
  8
2
 10
30932.7227
 20
-152.72615
 11
31085.4473
 21
0.00000000
  0
LINE
  8
5
 10
7345.00049
 20
0.00000000
 11
7455.00049
 21
0.00000000
  0
LINE
  8
5
 10
7455.00049
 20
0.00000000
 11
7455.00049
 21
6724.28027
  0
LINE
  8
5
 10
7455.00049
 20
6724.28027
 11
7345.00098
 21
6724.28027
  0
LINE
  8
5
 10
7345.00098
 20
6724.28027
 11
7345.00049
 21
0.00000000
  0
LINE
  8
5
 10
15045.0020
 20
0.00000000
 11
15155.0000
 21
0.00000000
  0
LINE
  8
5
 10
15155.0000
 20
0.00000000
 11
15155.0000
 21
7479.82959
  0
LINE
  8
5
 10
15155.0000
 20
7479.82959
 11
15045.0020
 21
7479.82959
  0
LINE
  8
5
 10
15045.0020
 20
7479.82959
 11
15045.0020
 21
0.00000000
  0
LINE
  8
5
 10
22745.0000
 20
0.00000000
 11
22855.0000
 21
0.00000000
  0
LINE
  8
5
 10
22855.0000
 20
0.00000000
 11
22855.0000
 21
8407.01758
  0
LINE
  8
5
 10
22855.0000
 20
8407.01758
 11
22745.0000
 21
8407.01758
  0
LINE
  8
5
 10
22745.0000
 20
8407.01758
 11
22745.0000
 21
0.00000000
  0
LINE
  8
5
 10
38145.0000
 20
0.00000000
 11
38255.0000
 21
0.00000000
  0
LINE
  8
5
 10
38255.0000
 20
0.00000000
 11
38255.0000
 21
8407.01855
  0
LINE
  8
5
 10
38255.0000
 20
8407.01855
 11
38145.0000
 21
8407.01855
  0
LINE
  8
5
 10
38145.0000
 20
8407.01855
 11
38145.0000
 21
0.00000000
  0
LINE
  8
5
 10
45845.0000
 20
0.00000000
 11
45955.0039
 21
0.00000000
  0
LINE
  8
5
 10
45955.0039
 20
0.00000000
 11
45955.0039
 21
7479.82959
  0
LINE
  8
5
 10
45955.0039
 20
7479.82959
 11
45845.0000
 21
7479.82959
  0
LINE
  8
5
 10
45845.0000
 20
7479.82959
 11
45845.0000
 21
0.00000000
  0
LINE
  8
5
 10
53545.0039
 20
0.00000000
 11
53655.0000
 21
0.00000000
  0
LINE
  8
5
 10
53655.0000
 20
0.00000000
 11
53655.0000
 21
6724.28027
  0
LINE
  8
5
 10
53655.0000
 20
6724.28027
 11
53545.0039
 21
6724.28027
  0
LINE
  8
5
 10
53545.0039
 20
6724.28027
 11
53545.0039
 21
0.00000000
  0
LINE
  8
5
 10
53545.0039
 20
0.00000000
 11
53655.0000
 21
0.00000000
  0
LINE
  8
5
 10
53655.0000
 20
0.00000000
 11
53655.0000
 21
6724.28027
  0
LINE
  8
5
 10
53655.0000
 20
6724.28027
 11
53545.0039
 21
6724.28027
  0
LINE
  8
5
 10
53545.0039
 20
6724.28027
 11
53545.0039
 21
0.00000000
  0
LINE
  8
5
 10
45845.0000
 20
0.00000000
 11
45955.0039
 21
0.00000000
  0
LINE
  8
5
 10
45955.0039
 20
0.00000000
 11
45955.0039
 21
7479.82959
  0
LINE
  8
5
 10
45955.0039
 20
7479.82959
 11
45845.0000
 21
7479.82959
  0
LINE
  8
5
 10
45845.0000
 20
7479.82959
 11
45845.0000
 21
0.00000000
  0
LINE
  8
5
 10
38145.0000
 20
0.00000000
 11
38255.0000
 21
0.00000000
  0
LINE
  8
5
 10
38255.0000
 20
0.00000000
 11
38255.0000
 21
8407.01855
  0
LINE
  8
5
 10
38255.0000
 20
8407.01855
 11
38145.0000
 21
8407.01855
  0
LINE
  8
5
 10
38145.0000
 20
8407.01855
 11
38145.0000
 21
0.00000000
  0
LINE
  8
5
 10
22745.0000
 20
0.00000000
 11
22855.0000
 21
0.00000000
  0
LINE
  8
5
 10
22855.0000
 20
0.00000000
 11
22855.0000
 21
8407.01758
  0
LINE
  8
5
 10
22855.0000
 20
8407.01758
 11
22745.0000
 21
8407.01758
  0
LINE
  8
5
 10
22745.0000
 20
8407.01758
 11
22745.0000
 21
0.00000000
  0
LINE
  8
5
 10
15045.0020
 20
0.00000000
 11
15155.0000
 21
0.00000000
  0
LINE
  8
5
 10
15155.0000
 20
0.00000000
 11
15155.0000
 21
7479.82959
  0
LINE
  8
5
 10
15155.0000
 20
7479.82959
 11
15045.0020
 21
7479.82959
  0
LINE
  8
5
 10
15045.0020
 20
7479.82959
 11
15045.0020
 21
0.00000000
  0
LINE
  8
5
 10
7345.00049
 20
0.00000000
 11
7455.00049
 21
0.00000000
  0
LINE
  8
5
 10
7455.00049
 20
0.00000000
 11
7455.00049
 21
6724.28027
  0
LINE
  8
5
 10
7455.00049
 20
6724.28027
 11
7345.00098
 21
6724.28027
  0
LINE
  8
5
 10
7345.00098
 20
6724.28027
 11
7345.00049
 21
0.00000000
  0
TEXT
  8
3
 7
SIMPLEX
 10
1160.61902
 20
5362.49023
 40
318.179474
  1
SP1
 50
90.0000000
  0
TEXT
  8
3
 7
SIMPLEX
 10
9711.99512
 20
5927.90771
 40
318.179474
  1
SP2
 50
90.0000000
  0
TEXT
  8
3
 7
SIMPLEX
 10
15677.2451
 20
6574.68213
 40
318.179474
  1
SP3
 50
90.0000000
  0
TEXT
  8
3
 7
SIMPLEX
 10
27584.2598
 20
7715.13428
 40
318.179474
  1
SP4
 50
90.0000000
  0
TEXT
  8
3
 7
SIMPLEX
 10
33415.7227
 20
7715.13672
 40
318.179474
  1
SP4
 50
90.0000000
  0
TEXT
  8
3
 7
SIMPLEX
 10
45322.7383
 20
6574.68457
 40
318.179474
  1
SP3
 50
90.0000000
  0
TEXT
  8
3
 7
SIMPLEX
 10
51287.9844
 20
5927.91016
 40
318.179474
  1
SP2
 50
90.0000000
  0
TEXT
  8
3
 7
SIMPLEX
 10
60237.1055
 20
5362.49023
 40
318.179474
  1
SP1
 50
90.0000000
  0
TEXT
  8
3
 7
SIMPLEX
 10
-163.71147
 20
-576.95483
 40
318.179474
  1
BP1
 50
0.00000000
  0
TEXT
  8
3
 7
SIMPLEX
 10
60209.1719
 20
-576.95483
 40
318.179474
  1
BP1
 50
0.00000000
  0
TEXT
  8
3
 7
SIMPLEX
 10
30022.7305
 20
-576.95483
 40
318.179474
  1
BP1
 50
0.00000000
  0
INSERT
  8
10
  2
ZCOL
 10
368.357819
 20
6854.98291
 41
-8.0000000
 42
-6.3740158
 43
-6.3740158
 50
5.71059368
  0
INSERT
  8
10
  2
ZCOL
 10
1860.91357
 20
7004.23926
 41
-8.0000000
 42
-6.3740158
 43
-6.3740158
 50
5.71059368
  0
INSERT
  8
10
  2
ZCOL
 10
3353.46924
 20
7153.49463
 41
-8.0000000
 42
-6.3740158
 43
-6.3740158
 50
5.71059368
  0
INSERT
  8
10
  2
ZCOL
 10
4846.02539
 20
7302.75049
 41
-8.0000000
 42
-6.3740158
 43
-6.3740158
 50
5.71059368
  0
INSERT
  8
10
  2
ZCOL
 10
6338.58105
 20
7452.00488
 41
-8.0000000
 42
-6.3740158
 43
-6.3740158
 50
5.71059368
  0
INSERT
  8
10
  2
ZCOL
 10
7831.13721
 20
7601.26123
 41
-8.0000000
 42
-6.3740158
 43
-6.3740158
 50
5.71059368
  0
INSERT
  8
10
  2
ZCOL
 10
9323.69238
 20
7750.51660
 41
-8.0000000
 42
-6.3740158
 43
-6.3740158
 50
5.71059368
  0
INSERT
  8
10
  2
ZCOL
 10
10816.2471
 20
7899.77295
 41
-8.0000000
 42
-6.3740158
 43
-6.3740158
 50
5.71059368
  0
INSERT
  8
10
  2
ZCOL
 10
12308.8037
 20
8049.02783
 41
-8.0000000
 42
-6.3740158
 43
-6.3740158
 50
5.71059368
  0
INSERT
  8
10
  2
ZCOL
 10
13801.3604
 20
8198.28418
 41
-8.0000000
 42
-6.3740158
 43
-6.3740158
 50
5.71059368
  0
INSERT
  8
10
  2
ZCOL
 10
15293.9170
 20
8347.53906
 41
-8.0000000
 42
-6.3740158
 43
-6.3740158
 50
5.71059368
  0
INSERT
  8
10
  2
ZCOL
 10
16786.4707
 20
8496.79492
 41
-8.0000000
 42
-6.3740158
 43
-6.3740158
 50
5.71059368
  0
INSERT
  8
10
  2
ZCOL
 10
18279.0273
 20
8646.05078
 41
-8.0000000
 42
-6.3740158
 43
-6.3740158
 50
5.71059368
  0
INSERT
  8
10
  2
ZCOL
 10
19771.5820
 20
8795.30566
 41
-8.0000000
 42
-6.3740158
 43
-6.3740158
 50
5.71059368
  0
INSERT
  8
10
  2
ZCOL
 10
21264.1387
 20
8944.56152
 41
-8.0000000
 42
-6.3740158
 43
-6.3740158
 50
5.71059368
  0
INSERT
  8
10
  2
ZCOL
 10
22756.6953
 20
9093.81641
 41
-8.0000000
 42
-6.3740158
 43
-6.3740158
 50
5.71059368
  0
INSERT
  8
10
  2
ZCOL
 10
24249.2500
 20
9243.07324
 41
-8.0000000
 42
-6.3740158
 43
-6.3740158
 50
5.71059368
  0
INSERT
  8
10
  2
ZCOL
 10
25741.8047
 20
9392.32813
 41
-8.0000000
 42
-6.3740158
 43
-6.3740158
 50
5.71059368
  0
INSERT
  8
10
  2
ZCOL
 10
27234.3613
 20
9541.58398
 41
-8.0000000
 42
-6.3740158
 43
-6.3740158
 50
5.71059368
  0
INSERT
  8
10
  2
ZCOL
 10
28726.9160
 20
9690.83887
 41
-8.0000000
 42
-6.3740158
 43
-6.3740158
 50
5.71059368
  0
INSERT
  8
10
  2
ZCOL
 10
30219.4727
 20
9840.09570
 41
-8.0000000
 42
-6.3740158
 43
-6.3740158
 50
5.71059368
  0
LINE
  8
1
 10
1919.09229
 20
7120.12207
 11
1989.20972
 21
6418.94727
  0
INSERT
  8
3
  2
MARKER
 10
1829.09302
 20
7322.44434
 41
1.00000000
 42
1.00000000
 43
1.00000000
 50
5.71059368
  0
TEXT
  8
3
 7
SIMPLEX
 10
741.887085
 20
7802.09326
 40
318.179474
  1
FB864A(1)
 50
5.71059368
  0
LINE
  8
1
 10
4904.20410
 20
7418.63379
 11
4983.67969
 21
6623.87793
  0
INSERT
  8
3
  2
MARKER
 10
4814.20508
 20
7620.95508
 41
1.00000000
 42
1.00000000
 43
1.00000000
 50
5.71059368
  0
TEXT
  8
3
 7
SIMPLEX
 10
3410.39868
 20
8068.94482
 40
318.179474
  1
FB928A(1)
 50
5.71059368
  0
LINE
  8
1
 10
6396.75928
 20
7567.89014
 11
6479.95654
 21
6735.91895
  0
INSERT
  8
3
  2
MARKER
 10
6306.76074
 20
7770.20996
 41
1.00000000
 42
1.00000000
 43
1.00000000
 50
5.71059368
  0
TEXT
  8
3
 7
SIMPLEX
 10
4863.37891
 20
8613.95020
 40
318.179474
  1
FB960A(1)
 50
5.71059368
  0
LINE
  8
1
 10
7889.31689
 20
7717.14502
 11
7976.23486
 21
6847.95947
  0
INSERT
  8
3
  2
MARKER
 10
7799.31689
 20
7919.46631
 41
1.00000000
 42
1.00000000
 43
1.00000000
 50
5.71059368
  0
TEXT
  8
3
 7
SIMPLEX
 10
6395.51025
 20
8367.45605
 40
318.179474
  1
FB984A(1)
 50
5.71059368
  0
LINE
  8
1
 10
10874.4277
 20
8015.65625
 11
10964.5859
 21
7114.06201
  0
INSERT
  8
3
  2
MARKER
 10
10784.4268
 20
8217.97754
 41
1.00000000
 42
1.00000000
 43
1.00000000
 50
5.71059368
  0
TEXT
  8
3
 7
SIMPLEX
 10
9380.62012
 20
8665.96680
 40
318.179474
  1
FB1016A(1)
 50
5.71059368
  0
LINE
  8
1
 10
13859.5381
 20
8314.16797
 11
13947.2100
 21
7437.44873
  0
INSERT
  8
3
  2
MARKER
 10
13769.5410
 20
8516.48828
 41
1.00000000
 42
1.00000000
 43
1.00000000
 50
5.71059368
  0
TEXT
  8
3
 7
SIMPLEX
 10
12365.7354
 20
8964.47852
 40
318.179474
  1
FB992A(1)
 50
5.71059368
  0
LINE
  8
1
 10
15352.0947
 20
8463.42285
 11
15438.5234
 21
7599.14307
  0
INSERT
  8
3
  2
MARKER
 10
15262.0957
 20
8665.74414
 41
1.00000000
 42
1.00000000
 43
1.00000000
 50
5.71059368
  0
TEXT
  8
3
 7
SIMPLEX
 10
13818.7148
 20
9509.48340
 40
318.179474
  1
FB984A(1)
 50
5.71059368
  0
LINE
  8
1
 10
18337.2051
 20
8761.93359
 11
18414.1719
 21
7992.26563
  0
INSERT
  8
3
  2
MARKER
 10
18247.2070
 20
8964.25488
 41
1.00000000
 42
1.00000000
 43
1.00000000
 50
5.71059368
  0
TEXT
  8
3
 7
SIMPLEX
 10
16843.4004
 20
9412.24512
 40
318.179474
  1
FB920A(1)
 50
5.71059368
  0
LINE
  8
1
 10
21322.3145
 20
9060.44531
 11
21389.2422
 21
8391.19434
  0
INSERT
  8
3
  2
MARKER
 10
21232.3184
 20
9262.76660
 41
1.00000000
 42
1.00000000
 43
1.00000000
 50
5.71059368
  0
TEXT
  8
3
 7
SIMPLEX
 10
19828.5137
 20
9710.75586
 40
318.179474
  1
FB848A(1)
 50
5.71059368
  0
LINE
  8
1
 10
22814.8711
 20
9209.70117
 11
22886.6816
 21
8491.59277
  0
INSERT
  8
3
  2
MARKER
 10
22724.8750
 20
9412.02148
 41
1.00000000
 42
1.00000000
 43
1.00000000
 50
5.71059368
  0
TEXT
  8
3
 7
SIMPLEX
 10
21281.4922
 20
10255.7617
 40
318.179474
  1
FB872A(1)
 50
5.71059368
  0
LINE
  8
1
 10
25799.9824
 20
9508.21191
 11
25884.1992
 21
8666.05469
  0
INSERT
  8
3
  2
MARKER
 10
25709.9844
 20
9710.53320
 41
1.00000000
 42
1.00000000
 43
1.00000000
 50
5.71059368
  0
TEXT
  8
3
 7
SIMPLEX
 10
24306.1797
 20
10158.5225
 40
318.179474
  1
FB960A(1)
 50
5.71059368
  0
LINE
  8
1
 10
28785.0977
 20
9806.72363
 11
28889.3242
 21
8764.45020
  0
INSERT
  8
3
  2
MARKER
 10
28695.0938
 20
10009.0439
 41
1.00000000
 42
1.00000000
 43
1.00000000
 50
5.71059368
  0
TEXT
  8
3
 7
SIMPLEX
 10
27291.2891
 20
10457.0332
 40
318.179474
  1
FB1120A(1)
 50
5.71059368
  0
LINE
  8
1
 10
30277.6582
 20
9955.97949
 11
30396.8105
 21
8764.45020
  0
INSERT
  8
3
  2
MARKER
 10
30187.6504
 20
10158.2998
 41
1.00000000
 42
1.00000000
 43
1.00000000
 50
5.71059368
  0
TEXT
  8
3
 7
SIMPLEX
 10
28348.5176
 20
10962.4648
 40
318.179474
  1
FB1424B(1)
 50
5.71059368
  0
INSERT
  8
10
  2
ZCOL
 10
30780.5098
 20
9840.09766
 41
8.00000000
 42
-6.3740158
 43
-6.3740158
 50
-5.7105942
  0
INSERT
  8
10
  2
ZCOL
 10
32273.0625
 20
9690.84180
 41
8.00000000
 42
-6.3740158
 43
-6.3740158
 50
-5.7105942
  0
INSERT
  8
10
  2
ZCOL
 10
33765.6172
 20
9541.58691
 41
8.00000000
 42
-6.3740158
 43
-6.3740158
 50
-5.7105942
  0
INSERT
  8
10
  2
ZCOL
 10
35258.1758
 20
9392.33008
 41
8.00000000
 42
-6.3740158
 43
-6.3740158
 50
-5.7105942
  0
INSERT
  8
10
  2
ZCOL
 10
36750.7305
 20
9243.07520
 41
8.00000000
 42
-6.3740158
 43
-6.3740158
 50
-5.7105942
  0
INSERT
  8
10
  2
ZCOL
 10
38243.2852
 20
9093.81934
 41
8.00000000
 42
-6.3740158
 43
-6.3740158
 50
-5.7105942
  0
INSERT
  8
10
  2
ZCOL
 10
39735.8398
 20
8944.56445
 41
8.00000000
 42
-6.3740158
 43
-6.3740158
 50
-5.7105942
  0
INSERT
  8
10
  2
ZCOL
 10
41228.3984
 20
8795.30762
 41
8.00000000
 42
-6.3740158
 43
-6.3740158
 50
-5.7105942
  0
INSERT
  8
10
  2
ZCOL
 10
42720.9531
 20
8646.05273
 41
8.00000000
 42
-6.3740158
 43
-6.3740158
 50
-5.7105942
  0
INSERT
  8
10
  2
ZCOL
 10
44213.5078
 20
8496.79688
 41
8.00000000
 42
-6.3740158
 43
-6.3740158
 50
-5.7105942
  0
INSERT
  8
10
  2
ZCOL
 10
45706.0703
 20
8347.54199
 41
8.00000000
 42
-6.3740158
 43
-6.3740158
 50
-5.7105942
  0
INSERT
  8
10
  2
ZCOL
 10
47198.6211
 20
8198.28516
 41
8.00000000
 42
-6.3740158
 43
-6.3740158
 50
-5.7105942
  0
INSERT
  8
10
  2
ZCOL
 10
48691.1758
 20
8049.03027
 41
8.00000000
 42
-6.3740158
 43
-6.3740158
 50
-5.7105942
  0
INSERT
  8
10
  2
ZCOL
 10
50183.7344
 20
7899.77490
 41
8.00000000
 42
-6.3740158
 43
-6.3740158
 50
-5.7105942
  0
INSERT
  8
10
  2
ZCOL
 10
51676.2891
 20
7750.51904
 41
8.00000000
 42
-6.3740158
 43
-6.3740158
 50
-5.7105942
  0
INSERT
  8
10
  2
ZCOL
 10
53168.8398
 20
7601.26318
 41
8.00000000
 42
-6.3740158
 43
-6.3740158
 50
-5.7105942
  0
INSERT
  8
10
  2
ZCOL
 10
54661.3945
 20
7452.00781
 41
8.00000000
 42
-6.3740158
 43
-6.3740158
 50
-5.7105942
  0
INSERT
  8
10
  2
ZCOL
 10
56153.9531
 20
7302.75195
 41
8.00000000
 42
-6.3740158
 43
-6.3740158
 50
-5.7105942
  0
INSERT
  8
10
  2
ZCOL
 10
57646.5156
 20
7153.49609
 41
8.00000000
 42
-6.3740158
 43
-6.3740158
 50
-5.7105942
  0
INSERT
  8
10
  2
ZCOL
 10
59139.0664
 20
7004.24121
 41
8.00000000
 42
-6.3740158
 43
-6.3740158
 50
-5.7105942
  0
INSERT
  8
10
  2
ZCOL
 10
60631.6211
 20
6854.98584
 41
8.00000000
 42
-6.3740158
 43
-6.3740158
 50
-5.7105942
  0
LINE
  8
1
 10
30722.3301
 20
9955.98145
 11
30603.1738
 21
8764.45020
  0
INSERT
  8
3
  2
MARKER
 10
30812.3301
 20
10158.3027
 41
1.00000000
 42
1.00000000
 43
1.00000000
 50
-5.7105942
  0
TEXT
  8
3
 7
SIMPLEX
 10
29762.4805
 20
10851.6572
 40
318.179474
  1
FB1424B(1)
 50
-5.7105942
  0
LINE
  8
1
 10
32214.8867
 20
9806.72559
 11
32110.6563
 21
8764.45215
  0
INSERT
  8
3
  2
MARKER
 10
32304.8828
 20
10009.0459
 41
1.00000000
 42
1.00000000
 43
1.00000000
 50
-5.7105942
  0
TEXT
  8
3
 7
SIMPLEX
 10
31057.1621
 20
11121.8965
 40
318.179474
  1
FB1120A(1)
 50
-5.7105942
  0
LINE
  8
1
 10
35199.9961
 20
9508.21387
 11
35115.7773
 21
8666.05664
  0
INSERT
  8
3
  2
MARKER
 10
35289.9961
 20
9710.53516
 41
1.00000000
 42
1.00000000
 43
1.00000000
 50
-5.7105942
  0
TEXT
  8
3
 7
SIMPLEX
 10
34002.6992
 20
10427.6357
 40
318.179474
  1
FB960A(1)
 50
-5.7105942
  0
LINE
  8
1
 10
38185.1055
 20
9209.70313
 11
38113.2930
 21
8491.59473
  0
INSERT
  8
3
  2
MARKER
 10
38275.1094
 20
9412.02344
 41
1.00000000
 42
1.00000000
 43
1.00000000
 50
-5.7105942
  0
TEXT
  8
3
 7
SIMPLEX
 10
36987.8086
 20
10129.1240
 40
318.179474
  1
FB872A(1)
 50
-5.7105942
  0
LINE
  8
1
 10
39677.6641
 20
9060.44727
 11
39610.7383
 21
8391.19629
  0
INSERT
  8
3
  2
MARKER
 10
39767.6602
 20
9262.76855
 41
1.00000000
 42
1.00000000
 43
1.00000000
 50
-5.7105942
  0
TEXT
  8
3
 7
SIMPLEX
 10
38519.9414
 20
10375.6191
 40
318.179474
  1
FB848A(1)
 50
-5.7105942
  0
LINE
  8
1
 10
42662.7734
 20
8761.93652
 11
42585.8047
 21
7992.26807
  0
INSERT
  8
3
  2
MARKER
 10
42752.7773
 20
8964.25781
 41
1.00000000
 42
1.00000000
 43
1.00000000
 50
-5.7105942
  0
TEXT
  8
3
 7
SIMPLEX
 10
41465.4766
 20
9681.35742
 40
318.179474
  1
FB920A(1)
 50
-5.7105942
  0
LINE
  8
1
 10
45647.8906
 20
8463.42480
 11
45561.4609
 21
7599.14551
  0
INSERT
  8
3
  2
MARKER
 10
45737.8906
 20
8665.74609
 41
1.00000000
 42
1.00000000
 43
1.00000000
 50
-5.7105942
  0
TEXT
  8
3
 7
SIMPLEX
 10
44450.5898
 20
9382.84668
 40
318.179474
  1
FB984A(1)
 50
-5.7105942
  0
LINE
  8
1
 10
47140.4414
 20
8314.16895
 11
47052.7695
 21
7437.45068
  0
INSERT
  8
3
  2
MARKER
 10
47230.4453
 20
8516.49023
 41
1.00000000
 42
1.00000000
 43
1.00000000
 50
-5.7105942
  0
TEXT
  8
3
 7
SIMPLEX
 10
45982.7227
 20
9629.34082
 40
318.179474
  1
FB992A(1)
 50
-5.7105942
  0
LINE
  8
1
 10
50125.5586
 20
8015.65771
 11
50035.3945
 21
7114.06396
  0
INSERT
  8
3
  2
MARKER
 10
50215.5547
 20
8217.97852
 41
1.00000000
 42
1.00000000
 43
1.00000000
 50
-5.7105942
  0
TEXT
  8
3
 7
SIMPLEX
 10
48928.2578
 20
8935.07910
 40
318.179474
  1
FB1016A(1)
 50
-5.7105942
  0
LINE
  8
1
 10
53110.6680
 20
7717.14600
 11
53023.7500
 21
6847.96143
  0
INSERT
  8
3
  2
MARKER
 10
53200.6641
 20
7919.46826
 41
1.00000000
 42
1.00000000
 43
1.00000000
 50
-5.7105942
  0
TEXT
  8
3
 7
SIMPLEX
 10
51913.3672
 20
8636.56836
 40
318.179474
  1
FB984A(1)
 50
-5.7105942
  0
LINE
  8
1
 10
54603.2266
 20
7567.89160
 11
54520.0273
 21
6735.92041
  0
INSERT
  8
3
  2
MARKER
 10
54693.2148
 20
7770.21240
 41
1.00000000
 42
1.00000000
 43
1.00000000
 50
-5.7105942
  0
TEXT
  8
3
 7
SIMPLEX
 10
53445.5000
 20
8883.06348
 40
318.179474
  1
FB960A(1)
 50
-5.7105942
  0
LINE
  8
1
 10
56095.7773
 20
7418.63574
 11
56016.3008
 21
6623.87988
  0
INSERT
  8
3
  2
MARKER
 10
56185.7773
 20
7620.95703
 41
1.00000000
 42
1.00000000
 43
1.00000000
 50
-5.7105942
  0
TEXT
  8
3
 7
SIMPLEX
 10
54898.4844
 20
8338.05664
 40
318.179474
  1
FB928A(1)
 50
-5.7105942
  0
LINE
  8
1
 10
59080.8828
 20
7120.12500
 11
59010.7656
 21
6418.94922
  0
INSERT
  8
3
  2
MARKER
 10
59170.8867
 20
7322.44629
 41
1.00000000
 42
1.00000000
 43
1.00000000
 50
-5.7105942
  0
TEXT
  8
3
 7
SIMPLEX
 10
57566.9961
 20
8071.20654
 40
318.179474
  1
FB864A(1)
 50
-5.7105942
  0
INSERT
  8
10
  2
ZCOL
 10
130.951157
 20
3680.00024
 41
8.00000000
 42
-4.4055119
 43
-4.4055119
 50
89.9999847
  0
INSERT
  8
10
  2
ZCOL
 10
130.951630
 20
5180.00000
 41
8.00000000
 42
-4.4055119
 43
-4.4055119
 50
89.9999847
  0
LINE
  8
1
 10
56.4311371
 20
3610.57910
 11
523.834290
 21
3610.57886
  0
INSERT
  8
3
  2
MARKER
 10
-138.84079
 20
3680.00024
 41
1.00000000
 42
1.00000000
 43
1.00000000
 50
89.9999847
  0
TEXT
  8
3
 7
SIMPLEX
 10
-724.29138
 20
2645.91675
 40
318.179474
  1
FB480A(1)
 50
89.9999847
  0
INSERT
  8
10
  2
ZCOL
 10
60869.0508
 20
3680.00024
 41
-8.0000000
 42
-4.4055119
 43
-4.4055119
 50
-89.999985
  0
INSERT
  8
10
  2
ZCOL
 10
60869.0508
 20
5180.00000
 41
-8.0000000
 42
-4.4055119
 43
-4.4055119
 50
-89.999985
  0
LINE
  8
1
 10
60943.5703
 20
3610.57886
 11
60476.1680
 21
3610.57886
  0
INSERT
  8
3
  2
MARKER
 10
61138.8477
 20
3680.00024
 41
1.00000000
 42
1.00000000
 43
1.00000000
 50
-89.999985
  0
TEXT
  8
3
 7
SIMPLEX
 10
62042.4766
 20
2645.91724
 40
318.179474
  1
FB480A(1)
 50
90.0000153
  0
TEXT
  8
3
 7
SIMPLEX
 10
957.087646
 20
2380.17310
 40
318.179474
  1
 CL1-1
 50
88.6397476
  0
TEXT
  8
3
 7
SIMPLEX
 10
5872.20752
 20
6226.77783
 40
318.179474
  1
 RF1-2
 50
4.28230286
  0
TEXT
  8
3
 7
SIMPLEX
 10
11880.5840
 20
6748.32910
 40
318.179474
  1
 RF1-3
 50
6.18804932
  0
TEXT
  8
3
 7
SIMPLEX
 10
23732.0117
 20
8077.67188
 40
318.179474
  1
 RF1-4
 50
3.33098292
  0
TEXT
  8
3
 7
SIMPLEX
 10
28099.3496
 20
8302.11133
 40
318.179474
  1
 RF1-5
 50
0.00004555
  0
TEXT
  8
3
 7
SIMPLEX
 10
35552.6992
 20
8177.50635
 40
318.179474
  1
 RF1-4
 50
-3.3309906
  0
TEXT
  8
3
 7
SIMPLEX
 10
47411.2383
 20
6933.53516
 40
318.179474
  1
 RF1-3
 50
-6.1880527
  0
TEXT
  8
3
 7
SIMPLEX
 10
53414.4023
 20
6355.07666
 40
318.179474
  1
 RF1-2
 50
-4.2823086
  0
TEXT
  8
3
 7
SIMPLEX
 10
60361.0000
 20
2387.72656
 40
318.179474
  1
 CL1-1
 50
91.3601074
  0
TEXT
  8
3
 7
SIMPLEX
 10
30239.3125
 20
3531.11011
 40
318.179474
  1
 CL1-6
 50
89.9999847
  0
INSERT
  8
10
  2
ZCOL
 10
127.819229
 20
6820.67432
 41
8.00000000
 42
-6.3740077
 43
-6.3740077
 50
5.71059368
  0
INSERT
  8
10
  2
ZCOL
 10
60872.1875
 20
6820.67432
 41
-8.0000000
 42
-6.3740029
 43
-6.3740029
 50
-5.7105942
  0
LINE
  8
2
 10
150.000015
 20
0.00000000
 11
1074.45898
 21
0.00000000
  0
LINE
  8
2
 10
150.000015
 20
-152.72615
 11
302.726166
 21
0.00000000
  0
LINE
  8
2
 10
302.726166
 20
-152.72615
 11
455.452332
 21
0.00000000
  0
LINE
  8
2
 10
455.452332
 20
-152.72615
 11
608.178467
 21
0.00000000
  0
LINE
  8
2
 10
608.178467
 20
-152.72615
 11
760.904602
 21
0.00000000
  0
LINE
  8
2
 10
760.904602
 20
-152.72615
 11
913.630737
 21
0.00000000
  0
LINE
  8
2
 10
913.630737
 20
-152.72615
 11
1066.35693
 21
0.00000000
  0
LINE
  8
2
 10
59925.5430
 20
0.00000000
 11
60850.0039
 21
0.00000000
  0
LINE
  8
2
 10
59925.5430
 20
-152.72615
 11
60078.2734
 21
0.00000000
  0
LINE
  8
2
 10
60078.2734
 20
-152.72615
 11
60231.0000
 21
0.00000000
  0
LINE
  8
2
 10
60231.0000
 20
-152.72615
 11
60383.7305
 21
0.00000000
  0
LINE
  8
2
 10
60383.7305
 20
-152.72615
 11
60536.4609
 21
0.00000000
  0
LINE
  8
2
 10
60536.4609
 20
-152.72615
 11
60689.1914
 21
0.00000000
  0
LINE
  8
2
 10
60689.1914
 20
-152.72615
 11
60841.9219
 21
0.00000000
  0
LINE
  8
2
 10
0.00000000
 20
0.00000000
 11
61000.0078
 21
0.00000000
  0
LINE
  8
12
 10
1412.97083
 20
0.00000000
 11
2431.14526
 21
0.00000000
  0
LINE
  8
12
 10
1412.97083
 20
6350.89990
 11
2431.14526
 21
6350.89990
  0
LINE
  8
2
 10
2153.46143
 20
0.00000000
 11
2153.46143
 21
6350.89990
  0
INSERT
  8
2
  2
ARROWF
 10
2153.46143
 20
6350.89990
 41
1.00000000
 42
1.00000000
 43
1.00000000
 50
90.0000000
  0
INSERT
  8
2
  2
ARROWF
 10
2153.46143
 20
0.00000000
 41
1.00000000
 42
1.00000000
 43
1.00000000
 50
-90.000000
  0
TEXT
  8
11
 7
SIMPLEX
 10
2073.91650
 20
2618.63574
 40
318.179474
  1
6351
 50
90.0000000
  0
TEXT
  8
11
 7
SIMPLEX
 10
2551.18579
 20
1759.55115
 40
318.179474
  1
CLEAR +/-
 50
90.0000000
  0
LINE
  8
12
 10
59587.0352
 20
0.00000000
 11
58568.8594
 21
0.00000000
  0
LINE
  8
12
 10
59587.0352
 20
6350.89990
 11
58568.8594
 21
6350.89990
  0
LINE
  8
2
 10
58846.5391
 20
0.00000000
 11
58846.5391
 21
6350.89990
  0
INSERT
  8
2
  2
ARROWF
 10
58846.5391
 20
6350.89990
 41
1.00000000
 42
1.00000000
 43
1.00000000
 50
90.0000000
  0
INSERT
  8
2
  2
ARROWF
 10
58846.5391
 20
0.00000000
 41
1.00000000
 42
1.00000000
 43
1.00000000
 50
-90.000000
  0
TEXT
  8
11
 7
SIMPLEX
 10
58767.0000
 20
2618.63574
 40
318.179474
  1
6351
 50
90.0000000
  0
TEXT
  8
11
 7
SIMPLEX
 10
59244.2695
 20
1759.55115
 40
318.179474
  1
CLEAR +/-
 50
90.0000000
  0
LINE
  8
12
 10
28671.9141
 20
0.00000000
 11
27399.1973
 21
0.00000000
  0
LINE
  8
12
 10
28671.9141
 20
8788.40039
 11
27399.1973
 21
8788.40039
  0
LINE
  8
2
 10
27954.5625
 20
0.00000000
 11
27954.5625
 21
8788.40039
  0
INSERT
  8
2
  2
ARROWF
 10
27954.5625
 20
8788.40039
 41
1.00000000
 42
1.00000000
 43
1.00000000
 50
90.0000000
  0
INSERT
  8
2
  2
ARROWF
 10
27954.5625
 20
0.00000000
 41
1.00000000
 42
1.00000000
 43
1.00000000
 50
-90.000000
  0
TEXT
  8
11
 7
SIMPLEX
 10
27875.0176
 20
3757.84155
 40
318.179474
  1
8788
 50
90.0000000
  0
TEXT
  8
11
 7
SIMPLEX
 10
28352.2871
 20
2978.30176
 40
318.179474
  1
CLEAR +/-
 50
90.0000000
  0
LINE
  8
12
 10
150.000000
 20
-555.36780
 11
150.000000
 21
-1828.0856
  0
LINE
  8
12
 10
587.719910
 20
-555.36780
 11
587.719910
 21
-1828.0856
  0
LINE
  8
2
 10
150.000000
 20
-1675.3595
 11
587.719910
 21
-1675.3595
  0
INSERT
  8
2
  2
ARROWF
 10
587.719910
 20
-1675.3595
 41
1.00000000
 42
1.00000000
 43
1.00000000
 50
0.00000000
  0
INSERT
  8
2
  2
ARROWF
 10
150.000000
 20
-1675.3595
 41
1.00000000
 42
1.00000000
 43
1.00000000
 50
180.000000
  0
TEXT
  8
11
 7
SIMPLEX
 10
667.264709
 20
-1569.2997
 40
318.179474
  1
413
 50
0.00000000
  0
LINE
  8
12
 10
60412.2813
 20
-555.36780
 11
60412.2813
 21
-1828.0856
  0
LINE
  8
12
 10
60850.0039
 20
-555.36780
 11
60850.0039
 21
-1828.0856
  0
LINE
  8
2
 10
60850.0039
 20
-1675.3595
 11
60412.2813
 21
-1675.3595
  0
INSERT
  8
2
  2
ARROWF
 10
60412.2813
 20
-1675.3595
 41
1.00000000
 42
1.00000000
 43
1.00000000
 50
180.000000
  0
INSERT
  8
2
  2
ARROWF
 10
60850.0039
 20
-1675.3595
 41
1.00000000
 42
1.00000000
 43
1.00000000
 50
0.00000000
  0
TEXT
  8
11
 7
SIMPLEX
 10
59219.1055
 20
-1569.2997
 40
318.179474
  1
413
 50
0.00000000
  0
LINE
  8
12
 10
587.719910
 20
-555.36780
 11
587.719910
 21
-1828.0856
  0
LINE
  8
12
 10
30500.0039
 20
-555.36780
 11
30500.0039
 21
-1828.0856
  0
LINE
  8
2
 10
587.719910
 20
-1675.3595
 11
30500.0039
 21
-1675.3595
  0
INSERT
  8
2
  2
ARROWF
 10
587.719910
 20
-1675.3595
 41
1.00000000
 42
1.00000000
 43
1.00000000
 50
180.000000
  0
INSERT
  8
2
  2
ARROWF
 10
30500.0039
 20
-1675.3595
 41
1.00000000
 42
1.00000000
 43
1.00000000
 50
0.00000000
  0
TEXT
  8
11
 7
SIMPLEX
 10
14748.4111
 20
-1569.2997
 40
318.179474
  1
29937
 50
0.00000000
  0
TEXT
  8
11
 7
SIMPLEX
 10
14127.9619
 20
-2099.5884
 40
318.179474
  1
CLEAR +/-
 50
0.00000000
  0
LINE
  8
12
 10
30500.0039
 20
-555.36780
 11
30500.0039
 21
-1828.0856
  0
LINE
  8
12
 10
60412.2813
 20
-555.36780
 11
60412.2813
 21
-1828.0856
  0
LINE
  8
2
 10
30500.0039
 20
-1675.3595
 11
60412.2813
 21
-1675.3595
  0
INSERT
  8
2
  2
ARROWF
 10
30500.0039
 20
-1675.3595
 41
1.00000000
 42
1.00000000
 43
1.00000000
 50
180.000000
  0
INSERT
  8
2
  2
ARROWF
 10
60412.2813
 20
-1675.3595
 41
1.00000000
 42
1.00000000
 43
1.00000000
 50
0.00000000
  0
TEXT
  8
11
 7
SIMPLEX
 10
44660.6914
 20
-1569.2997
 40
318.179474
  1
29937
 50
0.00000000
  0
TEXT
  8
11
 7
SIMPLEX
 10
44040.2422
 20
-2099.5884
 40
318.179474
  1
CLEAR +/-
 50
0.00000000
  0
LINE
  8
12
 10
0.00000000
 20
-873.54730
 11
0.00000000
 21
-4844.4268
  0
CIRCLE
  8
13
 10
0.00000000
 20
-5608.0576
 40
381.815399
  0
TEXT
  8
13
 7
SIMPLEX
 10
-85.908463
 20
-5779.8745
 40
343.633850
  1
I
 72
           1
 11
0.00000000
 21
-5608.0576
 73
           2
 50
   0.000
  0
LINE
  8
12
 10
0.00000000
 20
-5226.2422
 11
0.00000000
 21
-1675.3595
  0
LINE
  8
12
 10
61000.0078
 20
-873.54730
 11
61000.0078
 21
-4844.4268
  0
CIRCLE
  8
13
 10
61000.0078
 20
-5608.0576
 40
381.815399
  0
TEXT
  8
13
 7
SIMPLEX
 10
60828.1875
 20
-5779.8745
 40
343.633850
  1
A
 72
           1
 11
61000.0078
 21
-5608.0576
 73
           2
 50
   0.000
  0
LINE
  8
12
 10
61000.0078
 20
-5226.2422
 11
61000.0078
 21
-1675.3595
  0
LINE
  8
2
 10
0.00000000
 20
-4691.7012
 11
61000.0078
 21
-4691.7012
  0
INSERT
  8
2
  2
ARROWF
 10
0.00000000
 20
-4691.7012
 41
1.00000000
 42
1.00000000
 43
1.00000000
 50
180.000000
  0
INSERT
  8
2
  2
ARROWF
 10
61000.0078
 20
-4691.7012
 41
1.00000000
 42
1.00000000
 43
1.00000000
 50
0.00000000
  0
TEXT
  8
11
 7
SIMPLEX
 10
26761.3926
 20
-4612.1563
 40
318.179474
  1
61000 OUT-TO-OUT OF STEEL
 50
0.00000000
  0
TEXT
  8
15
 7
SIMPLEX
 10
21870.9727
 20
-6753.5039
 40
509.087189
  1
RIGID FRAME ELEVATION: FRAME LINE 1  7
 72
           1
 11
30500.0039
 21
-6753.5039
 50
   0.000
  0
LINE
  8
2
 10
-477.26923
 20
-1675.3595
 11
0.00000000
 21
-1675.3595
  0
LINE
  8
2
 10
150.000000
 20
-1675.3595
 11
627.269226
 21
-1675.3595
  0
LINE
  8
12
 10
0.00000000
 20
-555.36780
 11
0.00000000
 21
-1828.0856
  0
LINE
  8
12
 10
150.000000
 20
-555.36780
 11
150.000000
 21
-1828.0856
  0
INSERT
  8
2
  2
ARROWF
 10
0.00000000
 20
-1675.3595
 41
1.00000000
 42
1.00000000
 43
1.00000000
 50
0.00000000
  0
INSERT
  8
2
  2
ARROWF
 10
150.000000
 20
-1675.3595
 41
1.00000000
 42
1.00000000
 43
1.00000000
 50
180.000000
  0
TEXT
  8
11
 7
SIMPLEX
 10
-901.50854
 20
-1569.2997
 40
318.179474
  1
150
 50
0.00000000
  0
LINE
  8
2
 10
60850.0039
 20
-1675.3595
 11
60372.7344
 21
-1675.3595
  0
LINE
  8
2
 10
61477.2656
 20
-1675.3595
 11
61000.0078
 21
-1675.3595
  0
LINE
  8
12
 10
61000.0078
 20
-555.36780
 11
61000.0078
 21
-1828.0856
  0
LINE
  8
12
 10
60850.0039
 20
-555.36780
 11
60850.0039
 21
-1828.0856
  0
INSERT
  8
2
  2
ARROWF
 10
61000.0078
 20
-1675.3595
 41
1.00000000
 42
1.00000000
 43
1.00000000
 50
180.000000
  0
INSERT
  8
2
  2
ARROWF
 10
60850.0039
 20
-1675.3595
 41
1.00000000
 42
1.00000000
 43
1.00000000
 50
0.00000000
  0
TEXT
  8
11
 7
SIMPLEX
 10
61106.0625
 20
-1569.2997
 40
318.179474
  1
150
 50
0.00000000
  0
CIRCLE
  8
13
 10
30500.0039
 20
-3635.3452
 40
381.815399
  0
TEXT
  8
13
 7
SIMPLEX
 10
30328.1855
 20
-3807.1621
 40
343.633850
  1
E
 72
           1
 11
30500.0039
 21
-3635.3452
 73
           2
 50
   0.000
  0
LINE
  8
12
 10
0.00000000
 20
-555.36780
 11
0.00000000
 21
-3253.5295
  0
LINE
  8
12
 10
30500.0039
 20
-1828.0856
 11
30500.0039
 21
-3253.5295
  0
LINE
  8
2
 10
0.00000000
 20
-3100.8037
 11
30500.0039
 21
-3100.8037
  0
INSERT
  8
2
  2
ARROWF
 10
0.00000000
 20
-3100.8037
 41
1.00000000
 42
1.00000000
 43
1.00000000
 50
180.000000
  0
INSERT
  8
2
  2
ARROWF
 10
30500.0039
 20
-3100.8037
 41
1.00000000
 42
1.00000000
 43
1.00000000
 50
0.00000000
  0
TEXT
  8
11
 7
SIMPLEX
 10
14693.1875
 20
-2994.7439
 40
318.179474
  1
30500
 50
0.00000000
  0
LINE
  8
12
 10
61000.0078
 20
-555.36780
 11
61000.0078
 21
-3253.5295
  0
LINE
  8
2
 10
30500.0039
 20
-3100.8037
 11
61000.0078
 21
-3100.8037
  0
INSERT
  8
2
  2
ARROWF
 10
30500.0039
 20
-3100.8037
 41
1.00000000
 42
1.00000000
 43
1.00000000
 50
180.000000
  0
INSERT
  8
2
  2
ARROWF
 10
61000.0078
 20
-3100.8037
 41
1.00000000
 42
1.00000000
 43
1.00000000
 50
0.00000000
  0
TEXT
  8
11
 7
SIMPLEX
 10
45193.1875
 20
-2994.7439
 40
318.179474
  1
30500
 50
0.00000000
  0
LINE
  8
12
 10
-1828.4502
 20
0.00000000
 11
-4479.9351
 21
0.00000000
  0
LINE
  8
2
 10
-4373.8862
 20
0.00000000
 11
-4373.8862
 21
6999.99951
  0
INSERT
  8
2
  2
ARROWF
 10
-4373.8862
 20
0.00000000
 41
1.00000000
 42
1.00000000
 43
1.00000000
 50
270.000000
  0
TEXT
  8
11
 7
SIMPLEX
 10
-4479.9502
 20
1203.64063
 40
318.179474
  1
3680
 50
90.0002060
  0
LINE
  8
12
 10
-1828.4502
 20
3680.00024
 11
-4479.9351
 21
3680.00024
  0
INSERT
  8
2
  2
ARROWF
 10
-4373.8862
 20
3680.00024
 41
1.00000000
 42
1.00000000
 43
1.00000000
 50
90.0000000
  0
INSERT
  8
2
  2
ARROWF
 10
-4373.8862
 20
0.00000000
 41
1.00000000
 42
1.00000000
 43
1.00000000
 50
270.000000
  0
TEXT
  8
11
 7
SIMPLEX
 10
-4479.9468
 20
3873.18555
 40
318.179474
  1
1500
 50
90.0002060
  0
LINE
  8
12
 10
-1828.4502
 20
5180.00000
 11
-4479.9351
 21
5180.00000
  0
INSERT
  8
2
  2
ARROWF
 10
-4373.8862
 20
5180.00000
 41
1.00000000
 42
1.00000000
 43
1.00000000
 50
90.0000000
  0
INSERT
  8
2
  2
ARROWF
 10
-4373.8862
 20
3680.00024
 41
1.00000000
 42
1.00000000
 43
1.00000000
 50
270.000000
  0
TEXT
  8
11
 7
SIMPLEX
 10
-4479.9473
 20
5533.18506
 40
318.179474
  1
1820
 50
90.0002060
  0
LINE
  8
12
 10
-1828.4502
 20
6999.99951
 11
-4479.9351
 21
6999.99951
  0
INSERT
  8
2
  2
ARROWF
 10
-4373.8862
 20
6999.99951
 41
1.00000000
 42
1.00000000
 43
1.00000000
 50
90.0000000
  0
INSERT
  8
2
  2
ARROWF
 10
-4373.8862
 20
5180.00000
 41
1.00000000
 42
1.00000000
 43
1.00000000
 50
270.000000
  0
LINE
  8
12
 10
-5275.3838
 20
6999.99951
 11
-1828.4502
 21
6999.99951
  0
LINE
  8
2
 10
-5169.3350
 20
0.00000000
 11
-5169.3350
 21
6999.99951
  0
TEXT
  8
11
 7
SIMPLEX
 10
-5275.3950
 20
2651.52075
 40
318.179474
  1
7000
 50
90.0002060
  0
LINE
  8
12
 10
-5275.3838
 20
0.00000000
 11
-1828.4502
 21
0.00000000
  0
INSERT
  8
2
  2
ARROWF
 10
-5169.3350
 20
6999.99951
 41
1.00000000
 42
1.00000000
 43
1.00000000
 50
90.0000000
  0
INSERT
  8
2
  2
ARROWF
 10
-5169.3350
 20
0.00000000
 41
1.00000000
 42
1.00000000
 43
1.00000000
 50
270.000000
  0
LINE
  8
12
 10
62828.4531
 20
0.00000000
 11
65479.9414
 21
0.00000000
  0
LINE
  8
2
 10
65373.8945
 20
0.00000000
 11
65373.8945
 21
6999.99951
  0
INSERT
  8
2
  2
ARROWF
 10
65373.8945
 20
0.00000000
 41
1.00000000
 42
1.00000000
 43
1.00000000
 50
270.000000
  0
TEXT
  8
11
 7
SIMPLEX
 10
65267.8281
 20
1203.64063
 40
318.179474
  1
3680
 50
90.0002060
  0
LINE
  8
12
 10
62828.4531
 20
3680.00024
 11
65479.9414
 21
3680.00024
  0
INSERT
  8
2
  2
ARROWF
 10
65373.8945
 20
3680.00024
 41
1.00000000
 42
1.00000000
 43
1.00000000
 50
90.0000000
  0
INSERT
  8
2
  2
ARROWF
 10
65373.8945
 20
0.00000000
 41
1.00000000
 42
1.00000000
 43
1.00000000
 50
270.000000
  0
TEXT
  8
11
 7
SIMPLEX
 10
65267.8320
 20
3873.18555
 40
318.179474
  1
1500
 50
90.0002060
  0
LINE
  8
12
 10
62828.4531
 20
5180.00000
 11
65479.9414
 21
5180.00000
  0
INSERT
  8
2
  2
ARROWF
 10
65373.8945
 20
5180.00000
 41
1.00000000
 42
1.00000000
 43
1.00000000
 50
90.0000000
  0
INSERT
  8
2
  2
ARROWF
 10
65373.8945
 20
3680.00024
 41
1.00000000
 42
1.00000000
 43
1.00000000
 50
270.000000
  0
TEXT
  8
11
 7
SIMPLEX
 10
65267.8320
 20
5533.18506
 40
318.179474
  1
1820
 50
90.0002060
  0
LINE
  8
12
 10
62828.4531
 20
6999.99951
 11
65479.9414
 21
6999.99951
  0
INSERT
  8
2
  2
ARROWF
 10
65373.8945
 20
6999.99951
 41
1.00000000
 42
1.00000000
 43
1.00000000
 50
90.0000000
  0
INSERT
  8
2
  2
ARROWF
 10
65373.8945
 20
5180.00000
 41
1.00000000
 42
1.00000000
 43
1.00000000
 50
270.000000
  0
LINE
  8
12
 10
66275.3906
 20
6999.99951
 11
62828.4531
 21
6999.99951
  0
LINE
  8
2
 10
66169.3438
 20
0.00000000
 11
66169.3438
 21
6999.99951
  0
TEXT
  8
11
 7
SIMPLEX
 10
66063.2813
 20
2651.52075
 40
318.179474
  1
7000
 50
90.0002060
  0
LINE
  8
12
 10
66275.3906
 20
0.00000000
 11
62828.4531
 21
0.00000000
  0
INSERT
  8
2
  2
ARROWF
 10
66169.3438
 20
6999.99951
 41
1.00000000
 42
1.00000000
 43
1.00000000
 50
90.0000000
  0
INSERT
  8
2
  2
ARROWF
 10
66169.3438
 20
0.00000000
 41
1.00000000
 42
1.00000000
 43
1.00000000
 50
270.000000
  0
LINE
  8
12
 10
-120.56721
 20
8205.67188
 11
-401.47815
 21
11014.7813
  0
INSERT
  8
2
  2
ARROWF
 10
-373.84756
 20
10738.4756
 41
1.00000000
 42
1.00000000
 43
1.00000000
 50
185.710602
  0
LINE
  8
12
 10
229.785385
 20
8240.70703
 11
-51.125538
 21
11049.8164
  0
INSERT
  8
2
  2
ARROWF
 10
-23.494955
 20
10773.5107
 41
1.00000000
 42
1.00000000
 43
1.00000000
 50
5.71059368
  0
TEXT
  8
11
 7
SIMPLEX
 10
-278.86743
 20
10854.5625
 40
318.179474
  1
352
 50
5.71059368
  0
INSERT
  8
2
  2
ARROWF
 10
-23.494955
 20
10773.5107
 41
1.00000000
 42
1.00000000
 43
1.00000000
 50
185.710602
  0
LINE
  8
12
 10
30080.9023
 20
11225.8193
 11
29799.9863
 21
14034.9277
  0
INSERT
  8
2
  2
ARROWF
 10
29827.6230
 20
13758.6240
 41
1.00000000
 42
1.00000000
 43
1.00000000
 50
5.71059368
  0
TEXT
  8
11
 7
SIMPLEX
 10
13545.9727
 20
12237.0469
 40
318.179474
  1
20 @ 1500
 50
5.71059368
  0
INSERT
  8
2
  2
ARROWF
 10
29827.6230
 20
13758.6240
 41
1.00000000
 42
1.00000000
 43
1.00000000
 50
185.710602
  0
LINE
  8
12
 10
30379.4375
 20
11255.6729
 11
30098.5215
 21
14064.7813
  0
INSERT
  8
2
  2
ARROWF
 10
30126.1543
 20
13788.4756
 41
1.00000000
 42
1.00000000
 43
1.00000000
 50
5.71059368
  0
TEXT
  8
11
 7
SIMPLEX
 10
29060.2656
 20
13788.4756
 40
318.179474
  1
300
 50
5.71059368
  0
LINE
  8
2
 10
-373.84756
 20
10738.4756
 11
30126.1543
 21
13788.4756
  0
LINE
  8
2
 10
-215.54733
 20
9155.47266
 11
-496.45831
 21
11964.5820
  0
INSERT
  8
2
  2
ARROWF
 10
-468.82773
 20
11688.2764
 41
1.00000000
 42
1.00000000
 43
1.00000000
 50
185.710602
  0
LINE
  8
2
 10
30284.4551
 20
12205.4736
 11
30003.5430
 21
15014.5820
  0
INSERT
  8
2
  2
ARROWF
 10
30031.1738
 20
14738.2764
 41
1.00000000
 42
1.00000000
 43
1.00000000
 50
5.71059368
  0
LINE
  8
2
 10
-468.82773
 20
11688.2764
 11
30031.1738
 21
14738.2764
  0
TEXT
  8
11
 7
SIMPLEX
 10
13979.1201
 20
13239.6602
 40
318.179474
  1
30652
 50
5.71059368
  0
LINE
  8
12
 10
30620.5703
 20
11255.6729
 11
30901.4785
 21
14064.7813
  0
INSERT
  8
2
  2
ARROWF
 10
30873.8457
 20
13788.4756
 41
1.00000000
 42
1.00000000
 43
1.00000000
 50
174.289398
  0
LINE
  8
12
 10
30919.0820
 20
11225.8213
 11
31199.9902
 21
14034.9316
  0
INSERT
  8
2
  2
ARROWF
 10
31172.3613
 20
13758.6260
 41
1.00000000
 42
1.00000000
 43
1.00000000
 50
-5.7105942
  0
TEXT
  8
11
 7
SIMPLEX
 10
30989.9355
 20
13883.4561
 40
318.179474
  1
300
 50
-5.7105942
  0
INSERT
  8
2
  2
ARROWF
 10
31172.3613
 20
13758.6260
 41
1.00000000
 42
1.00000000
 43
1.00000000
 50
174.289398
  0
LINE
  8
12
 10
60770.1953
 20
8240.70898
 11
61051.1055
 21
11049.8184
  0
INSERT
  8
2
  2
ARROWF
 10
61023.4766
 20
10773.5127
 41
1.00000000
 42
1.00000000
 43
1.00000000
 50
-5.7105942
  0
TEXT
  8
11
 7
SIMPLEX
 10
44762.9336
 20
12506.1563
 40
318.179474
  1
20 @ 1500
 50
-5.7105942
  0
INSERT
  8
2
  2
ARROWF
 10
61023.4766
 20
10773.5127
 41
1.00000000
 42
1.00000000
 43
1.00000000
 50
174.289398
  0
LINE
  8
12
 10
61120.5703
 20
8205.67188
 11
61401.4766
 21
11014.7813
  0
INSERT
  8
2
  2
ARROWF
 10
61373.8477
 20
10738.4756
 41
1.00000000
 42
1.00000000
 43
1.00000000
 50
-5.7105942
  0
TEXT
  8
11
 7
SIMPLEX
 10
60368.6445
 20
10949.5420
 40
318.179474
  1
352
 50
-5.7105942
  0
LINE
  8
2
 10
30873.8457
 20
13788.4756
 11
61373.8477
 21
10738.4756
  0
LINE
  8
2
 10
30715.5488
 20
12205.4736
 11
30996.4570
 21
15014.5820
  0
INSERT
  8
2
  2
ARROWF
 10
30968.8281
 20
14738.2764
 41
1.00000000
 42
1.00000000
 43
1.00000000
 50
174.289398
  0
LINE
  8
2
 10
61215.5508
 20
9155.47266
 11
61496.4609
 21
11964.5820
  0
INSERT
  8
2
  2
ARROWF
 10
61468.8242
 20
11688.2764
 41
1.00000000
 42
1.00000000
 43
1.00000000
 50
-5.7105942
  0
LINE
  8
2
 10
30968.8281
 20
14738.2764
 11
61468.8242
 21
11688.2764
  0
TEXT
  8
11
 7
SIMPLEX
 10
45437.8828
 20
13397.9600
 40
318.179474
  1
30652
 50
-5.7105942
  0
LINE
  8
2
 10
29407.7031
 20
10420.4199
 11
29455.1895
 21
9945.51953
  0
LINE
  8
2
 10
29522.5801
 20
9271.61133
 11
29475.0918
 21
9746.51172
  0
INSERT
  8
2
  2
ARROWF
 10
29455.1895
 20
9945.51953
 41
1.00000000
 42
1.00000000
 43
1.00000000
 50
275.710602
  0
INSERT
  8
2
  2
ARROWF
 10
29475.0918
 20
9746.51172
 41
1.00000000
 42
1.00000000
 43
1.00000000
 50
95.7105942
  0
TEXT
  8
11
 7
SIMPLEX
 10
29339.1016
 20
10040.4990
 40
318.179474
  1
200
 50
95.7105866
  0
LINE
  8
2
 10
31592.2793
 20
10420.4219
 11
31544.7910
 21
9945.52148
  0
LINE
  8
2
 10
31477.4023
 20
9271.61426
 11
31524.8887
 21
9746.51465
  0
INSERT
  8
2
  2
ARROWF
 10
31544.7910
 20
9945.52148
 41
1.00000000
 42
1.00000000
 43
1.00000000
 50
264.289398
  0
INSERT
  8
2
  2
ARROWF
 10
31524.8887
 20
9746.51465
 41
1.00000000
 42
1.00000000
 43
1.00000000
 50
84.2894058
  0
TEXT
  8
11
 7
SIMPLEX
 10
31449.8105
 20
10061.6084
 40
318.179474
  1
200
 50
84.2894058
  0
INSERT
  8
7
  2
CUTFRM
 10
32048.3848
 20
8283.22168
 41
-1.0000000
 42
72.8139420
 43
72.8139420
 50
174.289413
  0
CIRCLE
  8
7
 10
32023.0430
 20
8029.94238
 40
254.543594
  0
TEXT
  8
7
 7
SIMPLEX
 10
31855.0469
 20
7928.12500
 40
203.634872
  1
V1
 72
           1
 11
32023.0430
 21
7928.12500
 50
   0.000
  0
INSERT
  8
7
  2
ARROWPF
 10
31751.2773
 20
10171.6553
 41
-1.0000000
 42
1.00000000
 43
1.00000000
 50
354.289429
  0
INSERT
  8
7
  2
CUTFRM
 10
31085.2344
 20
304.812714
 41
-1.0000000
 42
49.0813255
 43
49.0813255
 50
-90.000000
  0
CIRCLE
  8
7
 10
31339.7754
 20
304.819397
 40
254.543594
  0
TEXT
  8
7
 7
SIMPLEX
 10
31171.7754
 20
203.001953
 40
203.634872
  1
S1
 72
           1
 11
31339.7754
 21
203.001953
 50
   0.000
  0
INSERT
  8
7
  2
ARROWPF
 10
29838.5801
 20
-178.85291
 41
-1.0000000
 42
1.00000000
 43
1.00000000
 50
90.0000000
  0
INSERT
  8
7
  2
CUTFRM
 10
-295.53055
 20
7284.30664
 41
1.00000000
 42
53.8292656
 43
53.8292656
 50
90.0000000
  0
CIRCLE
  8
7
 10
-550.07416
 20
7284.31348
 40
254.543594
  0
TEXT
  8
7
 7
SIMPLEX
 10
-753.70905
 20
7182.49512
 40
203.634872
  1
U5
 72
           1
 11
-550.07416
 21
7182.49512
 50
   0.000
  0
INSERT
  8
7
  2
ARROWPF
 10
1071.72009
 20
6800.63818
 41
1.00000000
 42
1.00000000
 43
1.00000000
 50
270.000000
  0
INSERT
  8
7
  2
CUTFRM
 10
7820.88428
 20
6351.48975
 41
1.00000000
 42
65.7098999
 43
65.7098999
 50
185.710587
  0
CIRCLE
  8
7
 10
7846.19824
 20
6098.20850
 40
254.543594
  0
TEXT
  8
7
 7
SIMPLEX
 10
7678.19922
 20
5996.39111
 40
203.634872
  1
U1
 72
           1
 11
7846.19824
 21
5996.39111
 50
   0.000
  0
INSERT
  8
7
  2
ARROWPF
 10
8136.13525
 20
8060.34424
 41
1.00000000
 42
1.00000000
 43
1.00000000
 50
365.710571
  0
INSERT
  8
7
  2
CUTFRM
 10
61295.5391
 20
7284.25586
 41
-1.0000000
 42
53.8293686
 43
53.8293686
 50
270.000000
  0
CIRCLE
  8
7
 10
61550.0859
 20
7284.23535
 40
254.543594
  0
TEXT
  8
7
 7
SIMPLEX
 10
61346.4531
 20
7182.41797
 40
203.634872
  1
U5
 72
           1
 11
61550.0859
 21
7182.41797
 50
   0.000
  0
INSERT
  8
7
  2
ARROWPF
 10
59928.2383
 20
6800.73193
 41
-1.0000000
 42
1.00000000
 43
1.00000000
 50
450.000000
  0
INSERT
  8
7
  2
CUTFRM
 10
921.732849
 20
1450.91125
 41
-1.0000000
 42
47.9238434
 43
47.9238434
 50
-90.000000
  0
CIRCLE
  8
7
 10
1176.27649
 20
1450.91797
 40
254.543594
  0
TEXT
  8
7
 7
SIMPLEX
 10
972.641602
 20
1349.10034
 40
203.634872
  1
R2
 72
           1
 11
1176.27649
 21
1349.10034
 50
   0.000
  0
INSERT
  8
7
  2
ARROWPF
 10
-295.52002
 20
967.246155
 41
-1.0000000
 42
1.00000000
 43
1.00000000
 50
90.0000000
  0
INSERT
  8
7
  2
CUTFRM
 10
60078.2656
 20
1450.91125
 41
1.00000000
 42
47.9238548
 43
47.9238548
 50
90.0000000
  0
CIRCLE
  8
7
 10
59823.7266
 20
1450.91797
 40
254.543594
  0
TEXT
  8
7
 7
SIMPLEX
 10
59620.0820
 20
1349.10034
 40
203.634872
  1
R2
 72
           1
 11
59823.7266
 21
1349.10034
 50
   0.000
  0
INSERT
  8
7
  2
ARROWPF
 10
61295.5195
 20
967.246155
 41
1.00000000
 42
1.00000000
 43
1.00000000
 50
270.000000
  0
LINE
  8
1
 10
-825.62817
 20
13748.7998
 11
5743.70703
 21
14405.7324
  0
LINE
  8
1
 10
-829.41925
 20
13786.7100
 11
5739.91602
 21
14443.6436
  0
LINE
  8
1
 10
-825.62817
 20
13748.7998
 11
-829.41925
 21
13786.7100
  0
LINE
  8
1
 10
5743.70703
 20
14405.7324
 11
5739.91602
 21
14443.6436
  0
TEXT
  8
15
 7
SIMPLEX
 10
60.8308792
 20
13411.1006
 40
318.179474
  1
0.50mm 4525
 50
5.71059368
  0
TEXT
  8
11
 7
SIMPLEX
 10
1805.17236
 20
14157.2861
 40
318.179474
  1
6600
 50
5.71059368
  0
LINE
  8
12
 10
-843.23456
 20
13924.8643
 11
-884.39264
 21
14336.4443
  0
LINE
  8
12
 10
-693.97906
 20
13939.7891
 11
-735.13702
 21
14351.3691
  0
LINE
  8
2
 10
-1345.4779
 20
14150.7998
 11
-870.57727
 21
14198.2910
  0
LINE
  8
2
 10
-721.32178
 20
14213.2178
 11
-246.42114
 21
14260.7090
  0
INSERT
  8
2
  2
ARROWF
 10
-870.57727
 20
14198.2910
 41
1.00000000
 42
1.00000000
 43
1.00000000
 50
365.710602
  0
INSERT
  8
2
  2
ARROWF
 10
-721.32178
 20
14213.2178
 41
1.00000000
 42
1.00000000
 43
1.00000000
 50
185.710602
  0
TEXT
  8
11
 7
SIMPLEX
 10
-731.87408
 20
14318.7393
 40
318.179474
  1
150
 50
5.71059368
  0
LINE
  8
1
 10
5529.53516
 20
14537.4756
 11
11698.7656
 21
15154.3984
  0
LINE
  8
1
 10
5525.74414
 20
14575.3857
 11
11694.9746
 21
15192.3086
  0
LINE
  8
1
 10
5529.53516
 20
14537.4756
 11
5525.74414
 21
14575.3857
  0
LINE
  8
1
 10
11698.7656
 20
15154.3984
 11
11694.9746
 21
15192.3086
  0
TEXT
  8
11
 7
SIMPLEX
 10
7961.32813
 20
14926.0605
 40
318.179474
  1
6200
 50
5.71059368
  0
LINE
  8
12
 10
5511.92920
 20
14713.5391
 11
5470.77051
 21
15125.1201
  0
LINE
  8
12
 10
5611.43213
 20
14723.4883
 11
5570.27441
 21
15135.0684
  0
LINE
  8
2
 10
5009.68555
 20
14939.4766
 11
5484.58643
 21
14986.9668
  0
LINE
  8
2
 10
5584.08984
 20
14996.9170
 11
6058.99072
 21
15044.4082
  0
INSERT
  8
2
  2
ARROWF
 10
5484.58643
 20
14986.9668
 41
1.00000000
 42
1.00000000
 43
1.00000000
 50
365.710602
  0
INSERT
  8
2
  2
ARROWF
 10
5584.08984
 20
14996.9170
 41
1.00000000
 42
1.00000000
 43
1.00000000
 50
185.710602
  0
TEXT
  8
11
 7
SIMPLEX
 10
5573.53711
 20
15102.4404
 40
318.179474
  1
100
 50
5.71059368
  0
LINE
  8
1
 10
11484.5938
 20
15286.1426
 11
17653.8242
 21
15903.0674
  0
LINE
  8
1
 10
11480.8018
 20
15324.0547
 11
17650.0332
 21
15940.9775
  0
LINE
  8
1
 10
11484.5938
 20
15286.1426
 11
11480.8018
 21
15324.0547
  0
LINE
  8
1
 10
17653.8242
 20
15903.0674
 11
17650.0332
 21
15940.9775
  0
TEXT
  8
11
 7
SIMPLEX
 10
13916.3857
 20
15674.7275
 40
318.179474
  1
6200
 50
5.71059368
  0
LINE
  8
12
 10
11466.9863
 20
15462.2061
 11
11425.8291
 21
15873.7871
  0
LINE
  8
12
 10
11566.4902
 20
15472.1572
 11
11525.3330
 21
15883.7373
  0
LINE
  8
2
 10
10964.7441
 20
15688.1436
 11
11439.6445
 21
15735.6348
  0
LINE
  8
2
 10
11539.1484
 20
15745.5840
 11
12014.0488
 21
15793.0732
  0
INSERT
  8
2
  2
ARROWF
 10
11439.6445
 20
15735.6348
 41
1.00000000
 42
1.00000000
 43
1.00000000
 50
365.710602
  0
INSERT
  8
2
  2
ARROWF
 10
11539.1484
 20
15745.5840
 41
1.00000000
 42
1.00000000
 43
1.00000000
 50
185.710602
  0
TEXT
  8
11
 7
SIMPLEX
 10
11528.5957
 20
15851.1074
 40
318.179474
  1
100
 50
5.71059368
  0
LINE
  8
1
 10
17439.6523
 20
16034.8066
 11
23608.8828
 21
16651.7305
  0
LINE
  8
1
 10
17435.8594
 20
16072.7188
 11
23605.0898
 21
16689.6406
  0
LINE
  8
1
 10
17439.6523
 20
16034.8066
 11
17435.8594
 21
16072.7188
  0
LINE
  8
1
 10
23608.8828
 20
16651.7305
 11
23605.0898
 21
16689.6406
  0
TEXT
  8
11
 7
SIMPLEX
 10
19871.4434
 20
16423.3926
 40
318.179474
  1
6200
 50
5.71059368
  0
LINE
  8
12
 10
17422.0469
 20
16210.8701
 11
17380.8867
 21
16622.4512
  0
LINE
  8
12
 10
17521.5508
 20
16220.8203
 11
17480.3926
 21
16632.4023
  0
LINE
  8
2
 10
16919.8008
 20
16436.8086
 11
17394.7031
 21
16484.2988
  0
LINE
  8
2
 10
17494.2070
 20
16494.2480
 11
17969.1074
 21
16541.7383
  0
INSERT
  8
2
  2
ARROWF
 10
17394.7031
 20
16484.2988
 41
1.00000000
 42
1.00000000
 43
1.00000000
 50
365.710602
  0
INSERT
  8
2
  2
ARROWF
 10
17494.2070
 20
16494.2480
 41
1.00000000
 42
1.00000000
 43
1.00000000
 50
185.710602
  0
TEXT
  8
11
 7
SIMPLEX
 10
17483.6543
 20
16599.7715
 40
318.179474
  1
100
 50
5.71059368
  0
LINE
  8
1
 10
23394.7109
 20
16783.4746
 11
29762.9512
 21
17420.2969
  0
LINE
  8
1
 10
23390.9199
 20
16821.3848
 11
29759.1621
 21
17458.2090
  0
LINE
  8
1
 10
23394.7109
 20
16783.4746
 11
23390.9199
 21
16821.3848
  0
LINE
  8
1
 10
29762.9512
 20
17420.2969
 11
29759.1621
 21
17458.2090
  0
TEXT
  8
11
 7
SIMPLEX
 10
25926.0078
 20
17182.0098
 40
318.179474
  1
6400
 50
5.71059368
  0
LINE
  8
12
 10
23377.1055
 20
16959.5391
 11
23335.9473
 21
17371.1191
  0
LINE
  8
12
 10
23476.6094
 20
16969.4883
 11
23435.4512
 21
17381.0684
  0
LINE
  8
2
 10
22874.8613
 20
17185.4766
 11
23349.7617
 21
17232.9668
  0
LINE
  8
2
 10
23449.2656
 20
17242.9160
 11
23924.1680
 21
17290.4063
  0
INSERT
  8
2
  2
ARROWF
 10
23349.7617
 20
17232.9668
 41
1.00000000
 42
1.00000000
 43
1.00000000
 50
365.710602
  0
INSERT
  8
2
  2
ARROWF
 10
23449.2656
 20
17242.9160
 41
1.00000000
 42
1.00000000
 43
1.00000000
 50
185.710602
  0
TEXT
  8
11
 7
SIMPLEX
 10
23438.7129
 20
17348.4395
 40
318.179474
  1
100
 50
5.71059368
  0
LINE
  8
1
 10
31237.0332
 20
17420.3008
 11
37605.2695
 21
16783.4766
  0
LINE
  8
1
 10
31240.8223
 20
17458.2109
 11
37609.0586
 21
16821.3867
  0
LINE
  8
1
 10
31237.0332
 20
17420.3008
 11
31240.8223
 21
17458.2109
  0
LINE
  8
1
 10
37605.2695
 20
16783.4766
 11
37609.0586
 21
16821.3867
  0
TEXT
  8
11
 7
SIMPLEX
 10
33807.5664
 20
17308.6523
 40
318.179474
  1
6400
 50
-5.7105942
  0
LINE
  8
12
 10
37523.3750
 20
16969.4902
 11
37564.5313
 21
17381.0703
  0
LINE
  8
12
 10
37622.8789
 20
16959.5391
 11
37664.0352
 21
17371.1211
  0
LINE
  8
2
 10
37075.8125
 20
17290.4082
 11
37550.7148
 21
17242.9180
  0
LINE
  8
2
 10
37650.2188
 20
17232.9688
 11
38125.1211
 21
17185.4785
  0
INSERT
  8
2
  2
ARROWF
 10
37550.7148
 20
17242.9180
 41
1.00000000
 42
1.00000000
 43
1.00000000
 50
354.289398
  0
INSERT
  8
2
  2
ARROWF
 10
37650.2188
 20
17232.9688
 41
1.00000000
 42
1.00000000
 43
1.00000000
 50
174.289398
  0
TEXT
  8
11
 7
SIMPLEX
 10
36769.7656
 20
17427.5898
 40
318.179474
  1
100
 50
-5.7105942
  0
TEXT
  8
15
 7
SIMPLEX
 10
29800.0098
 20
17906.3848
 40
318.179474
  1
RC-01
 50
0.00000000
  0
LINE
  8
1
 10
30500.0039
 20
17800.3242
 11
28197.4551
 21
17570.0703
  0
LINE
  8
1
 10
28197.4551
 20
17570.0703
 11
28193.6641
 21
17532.1582
  0
LINE
  8
1
 10
30500.0039
 20
17800.3242
 11
32802.5508
 21
17570.0703
  0
LINE
  8
1
 10
32802.5508
 20
17570.0703
 11
32806.3438
 21
17532.1582
  0
LINE
  8
1
 10
28193.6641
 20
17532.1582
 11
30500.0039
 21
17762.7930
  0
LINE
  8
1
 10
32806.3438
 20
17532.1582
 11
30500.0039
 21
17762.7930
  0
LINE
  8
1
 10
37391.0977
 20
16651.7344
 11
43560.3281
 21
16034.8115
  0
LINE
  8
1
 10
37394.8867
 20
16689.6445
 11
43564.1172
 21
16072.7197
  0
LINE
  8
1
 10
37391.0977
 20
16651.7344
 11
37394.8867
 21
16689.6445
  0
LINE
  8
1
 10
43560.3281
 20
16034.8115
 11
43564.1172
 21
16072.7197
  0
TEXT
  8
11
 7
SIMPLEX
 10
39862.1289
 20
16550.0352
 40
318.179474
  1
6200
 50
-5.7105942
  0
LINE
  8
12
 10
43478.4336
 20
16220.8242
 11
43519.5898
 21
16632.4043
  0
LINE
  8
12
 10
43577.9375
 20
16210.8740
 11
43619.0938
 21
16622.4551
  0
LINE
  8
2
 10
43030.8750
 20
16541.7422
 11
43505.7734
 21
16494.2520
  0
LINE
  8
2
 10
43605.2773
 20
16484.3027
 11
44080.1797
 21
16436.8125
  0
INSERT
  8
2
  2
ARROWF
 10
43505.7734
 20
16494.2520
 41
1.00000000
 42
1.00000000
 43
1.00000000
 50
354.289398
  0
INSERT
  8
2
  2
ARROWF
 10
43605.2773
 20
16484.3027
 41
1.00000000
 42
1.00000000
 43
1.00000000
 50
174.289398
  0
TEXT
  8
11
 7
SIMPLEX
 10
42724.8242
 20
16678.9238
 40
318.179474
  1
100
 50
-5.7105942
  0
LINE
  8
1
 10
43346.1602
 20
15903.0674
 11
49515.3906
 21
15286.1436
  0
LINE
  8
1
 10
43349.9492
 20
15940.9795
 11
49519.1797
 21
15324.0547
  0
LINE
  8
1
 10
43346.1602
 20
15903.0674
 11
43349.9492
 21
15940.9795
  0
LINE
  8
1
 10
49515.3906
 20
15286.1436
 11
49519.1797
 21
15324.0547
  0
TEXT
  8
11
 7
SIMPLEX
 10
45817.1914
 20
15801.3691
 40
318.179474
  1
6200
 50
-5.7105942
  0
LINE
  8
12
 10
49433.4922
 20
15472.1572
 11
49474.6523
 21
15883.7373
  0
LINE
  8
12
 10
49532.9961
 20
15462.2080
 11
49574.1563
 21
15873.7891
  0
LINE
  8
2
 10
48985.9336
 20
15793.0771
 11
49460.8359
 21
15745.5859
  0
LINE
  8
2
 10
49560.3398
 20
15735.6348
 11
50035.2383
 21
15688.1475
  0
INSERT
  8
2
  2
ARROWF
 10
49460.8359
 20
15745.5859
 41
1.00000000
 42
1.00000000
 43
1.00000000
 50
354.289398
  0
INSERT
  8
2
  2
ARROWF
 10
49560.3398
 20
15735.6348
 41
1.00000000
 42
1.00000000
 43
1.00000000
 50
174.289398
  0
TEXT
  8
11
 7
SIMPLEX
 10
48679.8828
 20
15930.2588
 40
318.179474
  1
100
 50
-5.7105942
  0
LINE
  8
1
 10
49301.2148
 20
15154.4014
 11
55470.4375
 21
14537.4785
  0
LINE
  8
1
 10
49305.0039
 20
15192.3115
 11
55474.2383
 21
14575.3906
  0
LINE
  8
1
 10
49301.2148
 20
15154.4014
 11
49305.0039
 21
15192.3115
  0
LINE
  8
1
 10
55470.4375
 20
14537.4785
 11
55474.2383
 21
14575.3906
  0
TEXT
  8
11
 7
SIMPLEX
 10
51772.2461
 20
15052.7041
 40
318.179474
  1
6200
 50
-5.7105942
  0
LINE
  8
12
 10
55388.5430
 20
14723.4932
 11
55429.7031
 21
15135.0732
  0
LINE
  8
12
 10
55488.0430
 20
14713.5420
 11
55529.2031
 21
15125.1230
  0
LINE
  8
2
 10
54940.9844
 20
15044.4092
 11
55415.8867
 21
14996.9199
  0
LINE
  8
2
 10
55515.3906
 20
14986.9717
 11
55990.2852
 21
14939.4805
  0
INSERT
  8
2
  2
ARROWF
 10
55415.8867
 20
14996.9199
 41
1.00000000
 42
1.00000000
 43
1.00000000
 50
354.289398
  0
INSERT
  8
2
  2
ARROWF
 10
55515.3906
 20
14986.9717
 41
1.00000000
 42
1.00000000
 43
1.00000000
 50
174.289398
  0
TEXT
  8
11
 7
SIMPLEX
 10
54634.9453
 20
15181.5918
 40
318.179474
  1
100
 50
-5.7105942
  0
LINE
  8
1
 10
55256.2695
 20
14405.7344
 11
61825.6250
 21
13748.7998
  0
LINE
  8
1
 10
55260.0625
 20
14443.6445
 11
61829.4219
 21
13786.7100
  0
LINE
  8
1
 10
55256.2695
 20
14405.7344
 11
55260.0625
 21
14443.6445
  0
LINE
  8
1
 10
61825.6250
 20
13748.7998
 11
61829.4219
 21
13786.7100
  0
TEXT
  8
11
 7
SIMPLEX
 10
57926.3164
 20
14284.1357
 40
318.179474
  1
6600
 50
-5.7105942
  0
LINE
  8
12
 10
61693.9766
 20
13939.7891
 11
61735.1367
 21
14351.3691
  0
LINE
  8
12
 10
61843.2305
 20
13924.8643
 11
61884.3906
 21
14336.4443
  0
LINE
  8
2
 10
61246.4180
 20
14260.7090
 11
61721.3203
 21
14213.2178
  0
LINE
  8
2
 10
61870.5742
 20
14198.2910
 11
62345.4727
 21
14150.7998
  0
INSERT
  8
2
  2
ARROWF
 10
61721.3203
 20
14213.2178
 41
1.00000000
 42
1.00000000
 43
1.00000000
 50
354.289398
  0
INSERT
  8
2
  2
ARROWF
 10
61870.5742
 20
14198.2910
 41
1.00000000
 42
1.00000000
 43
1.00000000
 50
174.289398
  0
TEXT
  8
11
 7
SIMPLEX
 10
60940.3711
 20
14397.8896
 40
318.179474
  1
150
 50
-5.7105942
  0
ENDBLK
  8
0
  0
BLOCK
  8
0
  2
EPBLK1
 70
     0
 10
0.00000000
 20
0.00000000
  0
LINE
  8
0
 10
0.00000000
 20
0.00000000
 11
0.00000000
 21
4628.06494
  0
LINE
  8
0
 10
0.00000000
 20
4628.06494
 11
2277.59106
 21
4628.06494
  0
LINE
  8
0
 10
0.00000000
 20
0.00000000
 11
2277.59106
 21
0.00000000
  0
LINE
  8
0
 10
2277.59106
 20
4628.06494
 11
2277.59106
 21
0.00000000
  0
TEXT
  8
11
 7
SIMPLEX
 10
39.7724343
 20
4508.74805
 40
79.5448685
  1
Bolt Dia=
 50
0.00000000
  0
TEXT
  8
11
 7
SIMPLEX
 10
39.7724343
 20
4409.31689
 40
79.5448685
  1
Plate Thk=
 50
0.00000000
  0
TEXT
  8
11
 7
SIMPLEX
 10
836.491150
 20
4508.74805
 40
79.5448685
  1
20
 50
0.00000000
  0
TEXT
  8
11
 7
SIMPLEX
 10
836.491150
 20
4409.31689
 40
79.5448685
  1
16
 50
0.00000000
  0
TEXT
  8
11
 7
SIMPLEX
 10
79.5448685
 20
39.7724343
 40
79.5448685
  1
SP1
 50
0.00000000
  0
LINE
  8
0
 10
854.096680
 20
1342.13892
 11
854.096680
 21
3285.92603
  0
LINE
  8
0
 10
854.096680
 20
3285.92603
 11
1423.49451
 21
3285.92603
  0
LINE
  8
0
 10
1423.49451
 20
3285.92603
 11
1423.49451
 21
1342.13892
  0
LINE
  8
0
 10
854.096680
 20
1342.13892
 11
1423.49451
 21
1342.13892
  0
CIRCLE
  8
0
 10
996.446167
 20
3124.04639
 40
19.8862171
  0
CIRCLE
  8
0
 10
1281.14502
 20
3124.04639
 40
19.8862171
  0
CIRCLE
  8
0
 10
996.446167
 20
2800.28662
 40
19.8862171
  0
CIRCLE
  8
0
 10
1281.14502
 20
2800.28662
 40
19.8862171
  0
CIRCLE
  8
0
 10
996.446167
 20
1829.00842
 40
19.8862171
  0
CIRCLE
  8
0
 10
1281.14502
 20
1829.00842
 40
19.8862171
  0
CIRCLE
  8
0
 10
996.446167
 20
1505.24890
 40
19.8862171
  0
CIRCLE
  8
0
 10
1281.14502
 20
1505.24890
 40
19.8862171
  0
LINE
  8
0
 10
1102.63879
 20
2978.35449
 11
1102.63879
 21
3253.03198
  0
LINE
  8
0
 10
1102.63879
 20
3253.03198
 11
1174.95239
 21
3253.03198
  0
LINE
  8
0
 10
1174.95239
 20
3253.03198
 11
1174.95239
 21
2978.35449
  0
LINE
  8
0
 10
1102.63879
 20
1639.99756
 11
1102.63879
 21
1375.03284
  0
LINE
  8
0
 10
1102.63879
 20
1375.03284
 11
1174.95239
 21
1375.03284
  0
LINE
  8
0
 10
1174.95239
 20
1375.03284
 11
1174.95239
 21
1639.99756
  0
LINE
  8
2
 10
1615.36621
 20
1183.20813
 11
1615.36646
 21
1342.13892
  0
LINE
  8
2
 10
1615.36646
 20
1505.24890
 11
1615.36646
 21
1664.17957
  0
INSERT
  8
2
  2
ARROWF
 10
1615.36646
 20
1342.13892
 41
0.33300000
 42
0.33300000
 43
0.33300000
 50
450.000000
  0
INSERT
  8
2
  2
ARROWF
 10
1615.36646
 20
1505.24890
 41
0.33300000
 42
0.33300000
 43
0.33300000
 50
270.000000
  0
LINE
  8
2
 10
1562.33643
 20
1505.24890
 11
1641.88123
 21
1505.24890
  0
LINE
  8
2
 10
1562.33643
 20
1342.13892
 11
1641.88123
 21
1342.13892
  0
TEXT
  8
11
 7
SIMPLEX
 10
1655.13867
 20
1383.92139
 40
79.5448685
  1
50
 50
0.00000000
  0
LINE
  8
2
 10
1615.36646
 20
1505.24890
 11
1615.36646
 21
1829.00842
  0
INSERT
  8
2
  2
ARROWF
 10
1615.36646
 20
1505.24890
 41
0.33300000
 42
0.33300000
 43
0.33300000
 50
270.000000
  0
INSERT
  8
2
  2
ARROWF
 10
1615.36646
 20
1829.00842
 41
0.33300000
 42
0.33300000
 43
0.33300000
 50
89.9999847
  0
LINE
  8
2
 10
1562.33643
 20
1829.00842
 11
1641.88123
 21
1829.00842
  0
LINE
  8
2
 10
1562.33643
 20
1505.24890
 11
1641.88123
 21
1505.24890
  0
TEXT
  8
11
 7
SIMPLEX
 10
1655.13867
 20
1627.35645
 40
79.5448685
  1
100
 50
0.00000000
  0
LINE
  8
2
 10
1615.36646
 20
1829.00842
 11
1615.36646
 21
2800.28662
  0
INSERT
  8
2
  2
ARROWF
 10
1615.36646
 20
1829.00842
 41
0.33300000
 42
0.33300000
 43
0.33300000
 50
270.000000
  0
INSERT
  8
2
  2
ARROWF
 10
1615.36646
 20
2800.28662
 41
0.33300000
 42
0.33300000
 43
0.33300000
 50
89.9999847
  0
LINE
  8
2
 10
1562.33643
 20
2800.28662
 11
1641.88123
 21
2800.28662
  0
LINE
  8
2
 10
1562.33643
 20
1829.00842
 11
1641.88123
 21
1829.00842
  0
TEXT
  8
11
 7
SIMPLEX
 10
1655.13867
 20
2274.87549
 40
79.5448685
  1
300
 50
0.00000000
  0
LINE
  8
2
 10
1615.36646
 20
2800.28662
 11
1615.36646
 21
3124.04639
  0
INSERT
  8
2
  2
ARROWF
 10
1615.36646
 20
2800.28662
 41
0.33300000
 42
0.33300000
 43
0.33300000
 50
270.000000
  0
INSERT
  8
2
  2
ARROWF
 10
1615.36646
 20
3124.04639
 41
0.33300000
 42
0.33300000
 43
0.33300000
 50
89.9999847
  0
LINE
  8
2
 10
1562.33643
 20
3124.04639
 11
1641.88123
 21
3124.04639
  0
LINE
  8
2
 10
1562.33643
 20
2800.28662
 11
1641.88123
 21
2800.28662
  0
TEXT
  8
11
 7
SIMPLEX
 10
1655.13867
 20
2922.39453
 40
79.5448685
  1
100
 50
0.00000000
  0
LINE
  8
2
 10
1615.36621
 20
2965.11572
 11
1615.36646
 21
3124.04639
  0
LINE
  8
2
 10
1615.36646
 20
3285.92603
 11
1615.36646
 21
3444.85669
  0
INSERT
  8
2
  2
ARROWF
 10
1615.36646
 20
3124.04639
 41
0.33300000
 42
0.33300000
 43
0.33300000
 50
450.000000
  0
INSERT
  8
2
  2
ARROWF
 10
1615.36646
 20
3285.92603
 41
0.33300000
 42
0.33300000
 43
0.33300000
 50
270.000000
  0
LINE
  8
2
 10
1562.33643
 20
3285.92603
 11
1641.88123
 21
3285.92603
  0
LINE
  8
2
 10
1562.33643
 20
3124.04639
 11
1641.88123
 21
3124.04639
  0
TEXT
  8
11
 7
SIMPLEX
 10
1655.13867
 20
3165.21387
 40
79.5448685
  1
50
 50
0.00000000
  0
LINE
  8
2
 10
996.446167
 20
1150.26709
 11
1281.14502
 21
1150.26709
  0
LINE
  8
2
 10
996.446167
 20
1203.29700
 11
996.446167
 21
1123.75208
  0
LINE
  8
2
 10
1281.14502
 20
1203.29700
 11
1281.14502
 21
1123.75208
  0
INSERT
  8
2
  2
ARROWF
 10
996.446167
 20
1150.26709
 41
0.33300000
 42
0.33300000
 43
0.33300000
 50
180.000000
  0
INSERT
  8
2
  2
ARROWF
 10
1281.14502
 20
1150.26709
 41
0.33300000
 42
0.33300000
 43
0.33300000
 50
0.00000000
  0
TEXT
  8
11
 7
SIMPLEX
 10
1049.30762
 20
1050.83606
 40
79.5448685
  1
100
 50
0.00000000
  0
LINE
  8
2
 10
662.224854
 20
1342.13892
 11
662.224854
 21
1639.99756
  0
INSERT
  8
2
  2
ARROWF
 10
662.224854
 20
1342.13892
 41
0.33300000
 42
0.33300000
 43
0.33300000
 50
270.000000
  0
INSERT
  8
2
  2
ARROWF
 10
662.224854
 20
1639.99756
 41
0.33300000
 42
0.33300000
 43
0.33300000
 50
89.9999847
  0
LINE
  8
2
 10
635.709900
 20
1639.99756
 11
715.254761
 21
1639.99756
  0
LINE
  8
2
 10
635.709900
 20
1342.13892
 11
715.254761
 21
1342.13892
  0
TEXT
  8
11
 7
SIMPLEX
 10
483.248840
 20
1451.29590
 40
79.5448685
  1
92
 72
           2
 11
642.338623
 21
1491.06812
 73
           2
 50
   0.000
  0
LINE
  8
2
 10
662.224854
 20
1639.99756
 11
662.224854
 21
2978.35449
  0
INSERT
  8
2
  2
ARROWF
 10
662.224854
 20
1639.99756
 41
0.33300000
 42
0.33300000
 43
0.33300000
 50
270.000000
  0
INSERT
  8
2
  2
ARROWF
 10
662.224854
 20
2978.35449
 41
0.33300000
 42
0.33300000
 43
0.33300000
 50
89.9999847
  0
LINE
  8
2
 10
635.709900
 20
2978.35449
 11
715.254761
 21
2978.35449
  0
LINE
  8
2
 10
635.709900
 20
1639.99756
 11
715.254761
 21
1639.99756
  0
TEXT
  8
11
 7
SIMPLEX
 10
562.793762
 20
2203.77905
 40
79.5448685
  1
413
 72
           1
 11
642.338623
 21
2309.17603
 73
           1
 50
  90.000
  0
LINE
  8
2
 10
662.224854
 20
2978.35449
 11
662.224854
 21
3285.92603
  0
INSERT
  8
2
  2
ARROWF
 10
662.224854
 20
2978.35449
 41
0.33300000
 42
0.33300000
 43
0.33300000
 50
270.000000
  0
INSERT
  8
2
  2
ARROWF
 10
662.224854
 20
3285.92603
 41
0.33300000
 42
0.33300000
 43
0.33300000
 50
89.9999847
  0
LINE
  8
2
 10
635.709900
 20
3285.92603
 11
715.254761
 21
3285.92603
  0
LINE
  8
2
 10
635.709900
 20
2978.35449
 11
715.254761
 21
2978.35449
  0
TEXT
  8
11
 7
SIMPLEX
 10
483.248840
 20
3092.36792
 40
79.5448685
  1
95
 72
           2
 11
642.338623
 21
3132.14038
 73
           2
 50
   0.000
  0
LINE
  8
2
 10
350.312531
 20
1342.13892
 11
429.857361
 21
1342.13892
  0
LINE
  8
2
 10
350.312531
 20
3285.92603
 11
429.857361
 21
3285.92603
  0
LINE
  8
2
 10
376.827484
 20
1342.13892
 11
376.827484
 21
3285.92603
  0
INSERT
  8
2
  2
ARROWF
 10
376.827484
 20
1342.13892
 41
0.33300000
 42
0.33300000
 43
0.33300000
 50
270.000000
  0
INSERT
  8
2
  2
ARROWF
 10
376.827484
 20
3285.92603
 41
0.33300000
 42
0.33300000
 43
0.33300000
 50
90.0000000
  0
TEXT
  8
11
 7
SIMPLEX
 10
356.941254
 20
2224.54468
 40
79.5448685
  1
600
 50
90.0000000
  0
LINE
  8
2
 10
854.096680
 20
3477.79810
 11
1423.49451
 21
3477.79810
  0
LINE
  8
2
 10
854.096680
 20
3504.31323
 11
854.096680
 21
3424.76807
  0
LINE
  8
2
 10
1423.49451
 20
3504.31323
 11
1423.49451
 21
3424.76807
  0
INSERT
  8
2
  2
ARROWF
 10
854.096680
 20
3477.79810
 41
0.33300000
 42
0.33300000
 43
0.33300000
 50
180.000000
  0
INSERT
  8
2
  2
ARROWF
 10
1423.49451
 20
3477.79810
 41
0.33300000
 42
0.33300000
 43
0.33300000
 50
0.00000000
  0
TEXT
  8
11
 7
SIMPLEX
 10
1049.30762
 20
3497.68457
 40
79.5448685
  1
200
 50
0.00000000
  0
LINE
  8
0
 10
925.271423
 20
1639.99756
 11
1352.31970
 21
1639.99756
  0
LINE
  8
0
 10
925.271423
 20
1712.31116
 11
1352.31970
 21
1712.31116
  0
LINE
  8
0
 10
925.271423
 20
1639.99756
 11
925.271423
 21
1712.31116
  0
LINE
  8
0
 10
1352.31970
 20
1639.99756
 11
1352.31970
 21
1712.31116
  0
LINE
  8
0
 10
925.271423
 20
2978.35449
 11
1352.31970
 21
2978.35449
  0
LINE
  8
0
 10
925.271423
 20
2906.04102
 11
1352.31970
 21
2906.04102
  0
LINE
  8
0
 10
925.271423
 20
2978.35449
 11
925.271423
 21
2906.04102
  0
LINE
  8
0
 10
1352.31970
 20
2978.35449
 11
1352.31970
 21
2906.04102
  0
LINE
  8
0
 10
1174.95239
 20
1712.31116
 11
1174.95239
 21
2906.04102
  0
LINE
  8
0
 10
1102.63879
 20
1712.31116
 11
1102.63879
 21
2906.04102
  0
ENDBLK
  8
0
  0
BLOCK
  8
0
  2
EPBLK2
 70
     0
 10
0.00000000
 20
0.00000000
  0
LINE
  8
0
 10
0.00000000
 20
0.00000000
 11
0.00000000
 21
4628.06494
  0
LINE
  8
0
 10
0.00000000
 20
4628.06494
 11
2277.59106
 21
4628.06494
  0
LINE
  8
0
 10
0.00000000
 20
0.00000000
 11
2277.59106
 21
0.00000000
  0
LINE
  8
0
 10
2277.59106
 20
4628.06494
 11
2277.59106
 21
0.00000000
  0
TEXT
  8
11
 7
SIMPLEX
 10
39.7724343
 20
4508.74805
 40
79.5448685
  1
Bolt Dia=
 50
0.00000000
  0
TEXT
  8
11
 7
SIMPLEX
 10
39.7724343
 20
4409.31689
 40
79.5448685
  1
Plate Thk=
 50
0.00000000
  0
TEXT
  8
11
 7
SIMPLEX
 10
836.491150
 20
4508.74805
 40
79.5448685
  1
20
 50
0.00000000
  0
TEXT
  8
11
 7
SIMPLEX
 10
836.491150
 20
4409.31689
 40
79.5448685
  1
16
 50
0.00000000
  0
TEXT
  8
11
 7
SIMPLEX
 10
79.5448685
 20
39.7724343
 40
79.5448685
  1
SP2
 50
0.00000000
  0
LINE
  8
0
 10
854.096680
 20
925.612976
 11
854.096680
 21
3702.45215
  0
LINE
  8
0
 10
854.096680
 20
3702.45215
 11
1423.49451
 21
3702.45215
  0
LINE
  8
0
 10
1423.49451
 20
3702.45215
 11
1423.49451
 21
925.612976
  0
LINE
  8
0
 10
854.096680
 20
925.612976
 11
1423.49451
 21
925.612976
  0
CIRCLE
  8
0
 10
996.446167
 20
3556.30273
 40
19.8862171
  0
CIRCLE
  8
0
 10
1281.14502
 20
3556.30273
 40
19.8862171
  0
CIRCLE
  8
0
 10
996.446167
 20
3264.00391
 40
19.8862171
  0
CIRCLE
  8
0
 10
1281.14502
 20
3264.00391
 40
19.8862171
  0
CIRCLE
  8
0
 10
996.446167
 20
2314.03247
 40
19.8862171
  0
CIRCLE
  8
0
 10
1281.14502
 20
2314.03247
 40
19.8862171
  0
CIRCLE
  8
0
 10
996.446167
 20
1364.06128
 40
19.8862171
  0
CIRCLE
  8
0
 10
1281.14502
 20
1364.06128
 40
19.8862171
  0
CIRCLE
  8
0
 10
996.446167
 20
1071.76245
 40
19.8862171
  0
CIRCLE
  8
0
 10
1281.14502
 20
1071.76245
 40
19.8862171
  0
LINE
  8
0
 10
1102.63879
 20
3427.69141
 11
1102.63879
 21
3672.75488
  0
LINE
  8
0
 10
1102.63879
 20
3672.75488
 11
1174.95239
 21
3672.75488
  0
LINE
  8
0
 10
1174.95239
 20
3672.75488
 11
1174.95239
 21
3427.69141
  0
LINE
  8
0
 10
1102.63879
 20
1203.29724
 11
1102.63879
 21
955.310547
  0
LINE
  8
0
 10
1102.63879
 20
955.310547
 11
1174.95239
 21
955.310547
  0
LINE
  8
0
 10
1174.95239
 20
955.310547
 11
1174.95239
 21
1203.29724
  0
LINE
  8
2
 10
1615.36621
 20
766.682312
 11
1615.36646
 21
925.612976
  0
LINE
  8
2
 10
1615.36646
 20
1071.76245
 11
1615.36646
 21
1230.69312
  0
INSERT
  8
2
  2
ARROWF
 10
1615.36646
 20
925.612976
 41
0.33300000
 42
0.33300000
 43
0.33300000
 50
450.000000
  0
INSERT
  8
2
  2
ARROWF
 10
1615.36646
 20
1071.76245
 41
0.33300000
 42
0.33300000
 43
0.33300000
 50
270.000000
  0
LINE
  8
2
 10
1562.33643
 20
1071.76245
 11
1641.88123
 21
1071.76245
  0
LINE
  8
2
 10
1562.33643
 20
925.612976
 11
1641.88123
 21
925.612976
  0
TEXT
  8
11
 7
SIMPLEX
 10
1655.13867
 20
958.915222
 40
79.5448685
  1
50
 50
0.00000000
  0
LINE
  8
2
 10
1615.36646
 20
1071.76245
 11
1615.36646
 21
1364.06128
  0
INSERT
  8
2
  2
ARROWF
 10
1615.36646
 20
1071.76245
 41
0.33300000
 42
0.33300000
 43
0.33300000
 50
270.000000
  0
INSERT
  8
2
  2
ARROWF
 10
1615.36646
 20
1364.06128
 41
0.33300000
 42
0.33300000
 43
0.33300000
 50
89.9999847
  0
LINE
  8
2
 10
1562.33643
 20
1364.06128
 11
1641.88123
 21
1364.06128
  0
LINE
  8
2
 10
1562.33643
 20
1071.76245
 11
1641.88123
 21
1071.76245
  0
TEXT
  8
11
 7
SIMPLEX
 10
1655.13867
 20
1178.13940
 40
79.5448685
  1
100
 50
0.00000000
  0
LINE
  8
2
 10
1615.36646
 20
1364.06128
 11
1615.36646
 21
2314.03247
  0
INSERT
  8
2
  2
ARROWF
 10
1615.36646
 20
1364.06128
 41
0.33300000
 42
0.33300000
 43
0.33300000
 50
270.000000
  0
INSERT
  8
2
  2
ARROWF
 10
1615.36646
 20
2314.03247
 41
0.33300000
 42
0.33300000
 43
0.33300000
 50
89.9999847
  0
LINE
  8
2
 10
1562.33643
 20
2314.03247
 11
1641.88123
 21
2314.03247
  0
LINE
  8
2
 10
1562.33643
 20
1364.06128
 11
1641.88123
 21
1364.06128
  0
TEXT
  8
11
 7
SIMPLEX
 10
1655.13867
 20
1799.27478
 40
79.5448685
  1
325
 50
0.00000000
  0
LINE
  8
2
 10
1615.36646
 20
2314.03247
 11
1615.36646
 21
3264.00391
  0
INSERT
  8
2
  2
ARROWF
 10
1615.36646
 20
2314.03247
 41
0.33300000
 42
0.33300000
 43
0.33300000
 50
270.000000
  0
INSERT
  8
2
  2
ARROWF
 10
1615.36646
 20
3264.00391
 41
0.33300000
 42
0.33300000
 43
0.33300000
 50
89.9999847
  0
LINE
  8
2
 10
1562.33643
 20
3264.00391
 11
1641.88123
 21
3264.00391
  0
LINE
  8
2
 10
1562.33643
 20
2314.03247
 11
1641.88123
 21
2314.03247
  0
TEXT
  8
11
 7
SIMPLEX
 10
1655.13867
 20
2749.24585
 40
79.5448685
  1
325
 50
0.00000000
  0
LINE
  8
2
 10
1615.36646
 20
3264.00391
 11
1615.36646
 21
3556.30273
  0
INSERT
  8
2
  2
ARROWF
 10
1615.36646
 20
3264.00391
 41
0.33300000
 42
0.33300000
 43
0.33300000
 50
270.000000
  0
INSERT
  8
2
  2
ARROWF
 10
1615.36646
 20
3556.30273
 41
0.33300000
 42
0.33300000
 43
0.33300000
 50
89.9999847
  0
LINE
  8
2
 10
1562.33643
 20
3556.30273
 11
1641.88123
 21
3556.30273
  0
LINE
  8
2
 10
1562.33643
 20
3264.00391
 11
1641.88123
 21
3264.00391
  0
TEXT
  8
11
 7
SIMPLEX
 10
1655.13867
 20
3370.38037
 40
79.5448685
  1
100
 50
0.00000000
  0
LINE
  8
2
 10
1615.36621
 20
3397.37207
 11
1615.36646
 21
3556.30273
  0
LINE
  8
2
 10
1615.36646
 20
3702.45215
 11
1615.36646
 21
3861.38281
  0
INSERT
  8
2
  2
ARROWF
 10
1615.36646
 20
3556.30273
 41
0.33300000
 42
0.33300000
 43
0.33300000
 50
450.000000
  0
INSERT
  8
2
  2
ARROWF
 10
1615.36646
 20
3702.45215
 41
0.33300000
 42
0.33300000
 43
0.33300000
 50
270.000000
  0
LINE
  8
2
 10
1562.33643
 20
3702.45215
 11
1641.88123
 21
3702.45215
  0
LINE
  8
2
 10
1562.33643
 20
3556.30273
 11
1641.88123
 21
3556.30273
  0
TEXT
  8
11
 7
SIMPLEX
 10
1655.13867
 20
3589.60522
 40
79.5448685
  1
50
 50
0.00000000
  0
LINE
  8
2
 10
996.446167
 20
733.741150
 11
1281.14502
 21
733.741150
  0
LINE
  8
2
 10
996.446167
 20
786.770996
 11
996.446167
 21
707.226135
  0
LINE
  8
2
 10
1281.14502
 20
786.770996
 11
1281.14502
 21
707.226135
  0
INSERT
  8
2
  2
ARROWF
 10
996.446167
 20
733.741150
 41
0.33300000
 42
0.33300000
 43
0.33300000
 50
180.000000
  0
INSERT
  8
2
  2
ARROWF
 10
1281.14502
 20
733.741150
 41
0.33300000
 42
0.33300000
 43
0.33300000
 50
0.00000000
  0
TEXT
  8
11
 7
SIMPLEX
 10
1049.30762
 20
634.309998
 40
79.5448685
  1
100
 50
0.00000000
  0
LINE
  8
2
 10
662.224854
 20
925.612976
 11
662.224854
 21
1203.29712
  0
INSERT
  8
2
  2
ARROWF
 10
662.224854
 20
925.612976
 41
0.33300000
 42
0.33300000
 43
0.33300000
 50
270.000000
  0
INSERT
  8
2
  2
ARROWF
 10
662.224854
 20
1203.29712
 41
0.33300000
 42
0.33300000
 43
0.33300000
 50
89.9999847
  0
LINE
  8
2
 10
635.709900
 20
1203.29712
 11
715.254761
 21
1203.29712
  0
LINE
  8
2
 10
635.709900
 20
925.612976
 11
715.254761
 21
925.612976
  0
TEXT
  8
11
 7
SIMPLEX
 10
483.248840
 20
1024.68250
 40
79.5448685
  1
95
 72
           2
 11
642.338623
 21
1064.45496
 73
           2
 50
   0.000
  0
LINE
  8
2
 10
662.224854
 20
1203.29712
 11
662.224854
 21
3427.69116
  0
INSERT
  8
2
  2
ARROWF
 10
662.224854
 20
1203.29712
 41
0.33300000
 42
0.33300000
 43
0.33300000
 50
270.000000
  0
INSERT
  8
2
  2
ARROWF
 10
662.224854
 20
3427.69116
 41
0.33300000
 42
0.33300000
 43
0.33300000
 50
89.9999847
  0
LINE
  8
2
 10
635.709900
 20
3427.69116
 11
715.254761
 21
3427.69116
  0
LINE
  8
2
 10
635.709900
 20
1203.29712
 11
715.254761
 21
1203.29712
  0
TEXT
  8
11
 7
SIMPLEX
 10
562.793762
 20
2210.09717
 40
79.5448685
  1
761
 72
           1
 11
642.338623
 21
2315.49414
 73
           1
 50
  90.000
  0
LINE
  8
2
 10
662.224854
 20
3427.69116
 11
662.224854
 21
3702.45215
  0
INSERT
  8
2
  2
ARROWF
 10
662.224854
 20
3427.69116
 41
0.33300000
 42
0.33300000
 43
0.33300000
 50
270.000000
  0
INSERT
  8
2
  2
ARROWF
 10
662.224854
 20
3702.45215
 41
0.33300000
 42
0.33300000
 43
0.33300000
 50
89.9999847
  0
LINE
  8
2
 10
635.709900
 20
3702.45215
 11
715.254761
 21
3702.45215
  0
LINE
  8
2
 10
635.709900
 20
3427.69116
 11
715.254761
 21
3427.69116
  0
TEXT
  8
11
 7
SIMPLEX
 10
483.248840
 20
3525.29932
 40
79.5448685
  1
94
 72
           2
 11
642.338623
 21
3565.07178
 73
           2
 50
   0.000
  0
LINE
  8
2
 10
350.312531
 20
925.612976
 11
429.857361
 21
925.612976
  0
LINE
  8
2
 10
350.312531
 20
3702.45215
 11
429.857361
 21
3702.45215
  0
LINE
  8
2
 10
376.827484
 20
925.612976
 11
376.827484
 21
3702.45215
  0
INSERT
  8
2
  2
ARROWF
 10
376.827484
 20
925.612976
 41
0.33300000
 42
0.33300000
 43
0.33300000
 50
270.000000
  0
INSERT
  8
2
  2
ARROWF
 10
376.827484
 20
3702.45215
 41
0.33300000
 42
0.33300000
 43
0.33300000
 50
90.0000000
  0
TEXT
  8
11
 7
SIMPLEX
 10
356.941254
 20
2224.54468
 40
79.5448685
  1
950
 50
90.0000000
  0
LINE
  8
2
 10
854.096680
 20
3894.32422
 11
1423.49451
 21
3894.32422
  0
LINE
  8
2
 10
854.096680
 20
3920.83936
 11
854.096680
 21
3841.29419
  0
LINE
  8
2
 10
1423.49451
 20
3920.83936
 11
1423.49451
 21
3841.29419
  0
INSERT
  8
2
  2
ARROWF
 10
854.096680
 20
3894.32422
 41
0.33300000
 42
0.33300000
 43
0.33300000
 50
180.000000
  0
INSERT
  8
2
  2
ARROWF
 10
1423.49451
 20
3894.32422
 41
0.33300000
 42
0.33300000
 43
0.33300000
 50
0.00000000
  0
TEXT
  8
11
 7
SIMPLEX
 10
1049.30762
 20
3914.21045
 40
79.5448685
  1
200
 50
0.00000000
  0
LINE
  8
0
 10
925.271423
 20
1203.29700
 11
1352.31970
 21
1203.29700
  0
LINE
  8
0
 10
925.271423
 20
1275.61047
 11
1352.31970
 21
1275.61047
  0
LINE
  8
0
 10
925.271423
 20
1203.29700
 11
925.271423
 21
1275.61047
  0
LINE
  8
0
 10
1352.31970
 20
1203.29700
 11
1352.31970
 21
1275.61047
  0
LINE
  8
0
 10
925.271423
 20
3427.69141
 11
1352.31970
 21
3427.69141
  0
LINE
  8
0
 10
925.271423
 20
3355.37817
 11
1352.31970
 21
3355.37817
  0
LINE
  8
0
 10
925.271423
 20
3427.69141
 11
925.271423
 21
3355.37817
  0
LINE
  8
0
 10
1352.31970
 20
3427.69141
 11
1352.31970
 21
3355.37817
  0
LINE
  8
0
 10
1174.95239
 20
1275.61047
 11
1174.95239
 21
3355.37817
  0
LINE
  8
0
 10
1102.63879
 20
1275.61047
 11
1102.63879
 21
3355.37817
  0
ENDBLK
  8
0
  0
BLOCK
  8
0
  2
EPBLK3
 70
     0
 10
0.00000000
 20
0.00000000
  0
LINE
  8
0
 10
0.00000000
 20
0.00000000
 11
0.00000000
 21
4628.06494
  0
LINE
  8
0
 10
0.00000000
 20
4628.06494
 11
2277.59106
 21
4628.06494
  0
LINE
  8
0
 10
0.00000000
 20
0.00000000
 11
2277.59106
 21
0.00000000
  0
LINE
  8
0
 10
2277.59106
 20
4628.06494
 11
2277.59106
 21
0.00000000
  0
TEXT
  8
11
 7
SIMPLEX
 10
39.7724343
 20
4508.74805
 40
79.5448685
  1
Bolt Dia=
 50
0.00000000
  0
TEXT
  8
11
 7
SIMPLEX
 10
39.7724343
 20
4409.31689
 40
79.5448685
  1
Plate Thk=
 50
0.00000000
  0
TEXT
  8
11
 7
SIMPLEX
 10
836.491150
 20
4508.74805
 40
79.5448685
  1
20
 50
0.00000000
  0
TEXT
  8
11
 7
SIMPLEX
 10
836.491150
 20
4409.31689
 40
79.5448685
  1
16
 50
0.00000000
  0
TEXT
  8
11
 7
SIMPLEX
 10
79.5448685
 20
39.7724343
 40
79.5448685
  1
SP3
 50
0.00000000
  0
LINE
  8
0
 10
854.096680
 20
998.687683
 11
854.096680
 21
3629.37769
  0
LINE
  8
0
 10
854.096680
 20
3629.37769
 11
1423.49451
 21
3629.37769
  0
LINE
  8
0
 10
1423.49451
 20
3629.37769
 11
1423.49451
 21
998.687683
  0
LINE
  8
0
 10
854.096680
 20
998.687683
 11
1423.49451
 21
998.687683
  0
CIRCLE
  8
0
 10
996.446167
 20
3483.22852
 40
19.8862171
  0
CIRCLE
  8
0
 10
1281.14502
 20
3483.22852
 40
19.8862171
  0
CIRCLE
  8
0
 10
996.446167
 20
3190.92920
 40
19.8862171
  0
CIRCLE
  8
0
 10
1281.14502
 20
3190.92920
 40
19.8862171
  0
CIRCLE
  8
0
 10
996.446167
 20
2314.03247
 40
19.8862171
  0
CIRCLE
  8
0
 10
1281.14502
 20
2314.03247
 40
19.8862171
  0
CIRCLE
  8
0
 10
996.446167
 20
1437.13586
 40
19.8862171
  0
CIRCLE
  8
0
 10
1281.14502
 20
1437.13586
 40
19.8862171
  0
CIRCLE
  8
0
 10
996.446167
 20
1144.83704
 40
19.8862171
  0
CIRCLE
  8
0
 10
1281.14502
 20
1144.83704
 40
19.8862171
  0
LINE
  8
0
 10
1102.63879
 20
3360.46265
 11
1102.63879
 21
3599.68042
  0
LINE
  8
0
 10
1102.63879
 20
3599.68042
 11
1174.95239
 21
3599.68042
  0
LINE
  8
0
 10
1174.95239
 20
3599.68042
 11
1174.95239
 21
3360.46265
  0
LINE
  8
0
 10
1102.63879
 20
1276.37183
 11
1102.63879
 21
1028.38525
  0
LINE
  8
0
 10
1102.63879
 20
1028.38525
 11
1174.95239
 21
1028.38525
  0
LINE
  8
0
 10
1174.95239
 20
1028.38525
 11
1174.95239
 21
1276.37183
  0
LINE
  8
2
 10
1615.36621
 20
839.757080
 11
1615.36646
 21
998.687683
  0
LINE
  8
2
 10
1615.36646
 20
1144.83704
 11
1615.36646
 21
1303.76770
  0
INSERT
  8
2
  2
ARROWF
 10
1615.36646
 20
998.687683
 41
0.33300000
 42
0.33300000
 43
0.33300000
 50
450.000000
  0
INSERT
  8
2
  2
ARROWF
 10
1615.36646
 20
1144.83704
 41
0.33300000
 42
0.33300000
 43
0.33300000
 50
270.000000
  0
LINE
  8
2
 10
1562.33643
 20
1144.83704
 11
1641.88123
 21
1144.83704
  0
LINE
  8
2
 10
1562.33643
 20
998.687683
 11
1641.88123
 21
998.687683
  0
TEXT
  8
11
 7
SIMPLEX
 10
1655.13867
 20
1031.98975
 40
79.5448685
  1
50
 50
0.00000000
  0
LINE
  8
2
 10
1615.36646
 20
1144.83704
 11
1615.36646
 21
1437.13586
  0
INSERT
  8
2
  2
ARROWF
 10
1615.36646
 20
1144.83704
 41
0.33300000
 42
0.33300000
 43
0.33300000
 50
270.000000
  0
INSERT
  8
2
  2
ARROWF
 10
1615.36646
 20
1437.13586
 41
0.33300000
 42
0.33300000
 43
0.33300000
 50
89.9999847
  0
LINE
  8
2
 10
1562.33643
 20
1437.13586
 11
1641.88123
 21
1437.13586
  0
LINE
  8
2
 10
1562.33643
 20
1144.83704
 11
1641.88123
 21
1144.83704
  0
TEXT
  8
11
 7
SIMPLEX
 10
1655.13867
 20
1251.21399
 40
79.5448685
  1
100
 50
0.00000000
  0
LINE
  8
2
 10
1615.36646
 20
1437.13586
 11
1615.36646
 21
2314.03247
  0
INSERT
  8
2
  2
ARROWF
 10
1615.36646
 20
1437.13586
 41
0.33300000
 42
0.33300000
 43
0.33300000
 50
270.000000
  0
INSERT
  8
2
  2
ARROWF
 10
1615.36646
 20
2314.03247
 41
0.33300000
 42
0.33300000
 43
0.33300000
 50
89.9999847
  0
LINE
  8
2
 10
1562.33643
 20
2314.03247
 11
1641.88123
 21
2314.03247
  0
LINE
  8
2
 10
1562.33643
 20
1437.13586
 11
1641.88123
 21
1437.13586
  0
TEXT
  8
11
 7
SIMPLEX
 10
1655.13867
 20
1835.81189
 40
79.5448685
  1
300
 50
0.00000000
  0
LINE
  8
2
 10
1615.36646
 20
2314.03247
 11
1615.36646
 21
3190.92920
  0
INSERT
  8
2
  2
ARROWF
 10
1615.36646
 20
2314.03247
 41
0.33300000
 42
0.33300000
 43
0.33300000
 50
270.000000
  0
INSERT
  8
2
  2
ARROWF
 10
1615.36646
 20
3190.92920
 41
0.33300000
 42
0.33300000
 43
0.33300000
 50
89.9999847
  0
LINE
  8
2
 10
1562.33643
 20
3190.92920
 11
1641.88123
 21
3190.92920
  0
LINE
  8
2
 10
1562.33643
 20
2314.03247
 11
1641.88123
 21
2314.03247
  0
TEXT
  8
11
 7
SIMPLEX
 10
1655.13867
 20
2712.70850
 40
79.5448685
  1
300
 50
0.00000000
  0
LINE
  8
2
 10
1615.36646
 20
3190.92920
 11
1615.36646
 21
3483.22852
  0
INSERT
  8
2
  2
ARROWF
 10
1615.36646
 20
3190.92920
 41
0.33300000
 42
0.33300000
 43
0.33300000
 50
270.000000
  0
INSERT
  8
2
  2
ARROWF
 10
1615.36646
 20
3483.22852
 41
0.33300000
 42
0.33300000
 43
0.33300000
 50
89.9999847
  0
LINE
  8
2
 10
1562.33643
 20
3483.22852
 11
1641.88123
 21
3483.22852
  0
LINE
  8
2
 10
1562.33643
 20
3190.92920
 11
1641.88123
 21
3190.92920
  0
TEXT
  8
11
 7
SIMPLEX
 10
1655.13867
 20
3297.30615
 40
79.5448685
  1
100
 50
0.00000000
  0
LINE
  8
2
 10
1615.36621
 20
3324.29785
 11
1615.36646
 21
3483.22852
  0
LINE
  8
2
 10
1615.36646
 20
3629.37769
 11
1615.36646
 21
3788.30859
  0
INSERT
  8
2
  2
ARROWF
 10
1615.36646
 20
3483.22852
 41
0.33300000
 42
0.33300000
 43
0.33300000
 50
450.000000
  0
INSERT
  8
2
  2
ARROWF
 10
1615.36646
 20
3629.37769
 41
0.33300000
 42
0.33300000
 43
0.33300000
 50
270.000000
  0
LINE
  8
2
 10
1562.33643
 20
3629.37769
 11
1641.88123
 21
3629.37769
  0
LINE
  8
2
 10
1562.33643
 20
3483.22852
 11
1641.88123
 21
3483.22852
  0
TEXT
  8
11
 7
SIMPLEX
 10
1655.13867
 20
3516.53076
 40
79.5448685
  1
50
 50
0.00000000
  0
LINE
  8
2
 10
996.446167
 20
806.815857
 11
1281.14502
 21
806.815857
  0
LINE
  8
2
 10
996.446167
 20
859.845764
 11
996.446167
 21
780.300903
  0
LINE
  8
2
 10
1281.14502
 20
859.845764
 11
1281.14502
 21
780.300903
  0
INSERT
  8
2
  2
ARROWF
 10
996.446167
 20
806.815857
 41
0.33300000
 42
0.33300000
 43
0.33300000
 50
180.000000
  0
INSERT
  8
2
  2
ARROWF
 10
1281.14502
 20
806.815857
 41
0.33300000
 42
0.33300000
 43
0.33300000
 50
0.00000000
  0
TEXT
  8
11
 7
SIMPLEX
 10
1049.30762
 20
707.384766
 40
79.5448685
  1
100
 50
0.00000000
  0
LINE
  8
2
 10
662.224854
 20
998.687683
 11
662.224854
 21
1276.37170
  0
INSERT
  8
2
  2
ARROWF
 10
662.224854
 20
998.687683
 41
0.33300000
 42
0.33300000
 43
0.33300000
 50
270.000000
  0
INSERT
  8
2
  2
ARROWF
 10
662.224854
 20
1276.37170
 41
0.33300000
 42
0.33300000
 43
0.33300000
 50
89.9999847
  0
LINE
  8
2
 10
635.709900
 20
1276.37170
 11
715.254761
 21
1276.37170
  0
LINE
  8
2
 10
635.709900
 20
998.687683
 11
715.254761
 21
998.687683
  0
TEXT
  8
11
 7
SIMPLEX
 10
483.248840
 20
1097.75720
 40
79.5448685
  1
95
 72
           2
 11
642.338623
 21
1137.52966
 73
           2
 50
   0.000
  0
LINE
  8
2
 10
662.224854
 20
1276.37170
 11
662.224854
 21
3360.46216
  0
INSERT
  8
2
  2
ARROWF
 10
662.224854
 20
1276.37170
 41
0.33300000
 42
0.33300000
 43
0.33300000
 50
270.000000
  0
INSERT
  8
2
  2
ARROWF
 10
662.224854
 20
3360.46216
 41
0.33300000
 42
0.33300000
 43
0.33300000
 50
89.9999847
  0
LINE
  8
2
 10
635.709900
 20
3360.46216
 11
715.254761
 21
3360.46216
  0
LINE
  8
2
 10
635.709900
 20
1276.37170
 11
715.254761
 21
1276.37170
  0
TEXT
  8
11
 7
SIMPLEX
 10
562.793762
 20
2213.02002
 40
79.5448685
  1
713
 72
           1
 11
642.338623
 21
2318.41699
 73
           1
 50
  90.000
  0
LINE
  8
2
 10
662.224854
 20
3360.46216
 11
662.224854
 21
3629.37769
  0
INSERT
  8
2
  2
ARROWF
 10
662.224854
 20
3360.46216
 41
0.33300000
 42
0.33300000
 43
0.33300000
 50
270.000000
  0
INSERT
  8
2
  2
ARROWF
 10
662.224854
 20
3629.37769
 41
0.33300000
 42
0.33300000
 43
0.33300000
 50
89.9999847
  0
LINE
  8
2
 10
635.709900
 20
3629.37769
 11
715.254761
 21
3629.37769
  0
LINE
  8
2
 10
635.709900
 20
3360.46216
 11
715.254761
 21
3360.46216
  0
TEXT
  8
11
 7
SIMPLEX
 10
483.248840
 20
3455.14746
 40
79.5448685
  1
92
 72
           2
 11
642.338623
 21
3494.91992
 73
           2
 50
   0.000
  0
LINE
  8
2
 10
350.312531
 20
998.687683
 11
429.857361
 21
998.687683
  0
LINE
  8
2
 10
350.312531
 20
3629.37769
 11
429.857361
 21
3629.37769
  0
LINE
  8
2
 10
376.827484
 20
998.687683
 11
376.827484
 21
3629.37769
  0
INSERT
  8
2
  2
ARROWF
 10
376.827484
 20
998.687683
 41
0.33300000
 42
0.33300000
 43
0.33300000
 50
270.000000
  0
INSERT
  8
2
  2
ARROWF
 10
376.827484
 20
3629.37769
 41
0.33300000
 42
0.33300000
 43
0.33300000
 50
90.0000000
  0
TEXT
  8
11
 7
SIMPLEX
 10
356.941254
 20
2224.54492
 40
79.5448685
  1
900
 50
90.0000000
  0
LINE
  8
2
 10
854.096680
 20
3821.24951
 11
1423.49451
 21
3821.24951
  0
LINE
  8
2
 10
854.096680
 20
3847.76489
 11
854.096680
 21
3768.21948
  0
LINE
  8
2
 10
1423.49451
 20
3847.76489
 11
1423.49451
 21
3768.21948
  0
INSERT
  8
2
  2
ARROWF
 10
854.096680
 20
3821.24951
 41
0.33300000
 42
0.33300000
 43
0.33300000
 50
180.000000
  0
INSERT
  8
2
  2
ARROWF
 10
1423.49451
 20
3821.24951
 41
0.33300000
 42
0.33300000
 43
0.33300000
 50
0.00000000
  0
TEXT
  8
11
 7
SIMPLEX
 10
1049.30762
 20
3841.13599
 40
79.5448685
  1
200
 50
0.00000000
  0
LINE
  8
0
 10
925.271423
 20
1276.37170
 11
1352.31970
 21
1276.37170
  0
LINE
  8
0
 10
925.271423
 20
1348.68518
 11
1352.31970
 21
1348.68518
  0
LINE
  8
0
 10
925.271423
 20
1276.37170
 11
925.271423
 21
1348.68518
  0
LINE
  8
0
 10
1352.31970
 20
1276.37170
 11
1352.31970
 21
1348.68518
  0
LINE
  8
0
 10
925.271423
 20
3360.46265
 11
1352.31970
 21
3360.46265
  0
LINE
  8
0
 10
925.271423
 20
3288.14917
 11
1352.31970
 21
3288.14917
  0
LINE
  8
0
 10
925.271423
 20
3360.46265
 11
925.271423
 21
3288.14917
  0
LINE
  8
0
 10
1352.31970
 20
3360.46265
 11
1352.31970
 21
3288.14917
  0
LINE
  8
0
 10
1174.95239
 20
1348.68518
 11
1174.95239
 21
3288.14917
  0
LINE
  8
0
 10
1102.63879
 20
1348.68518
 11
1102.63879
 21
3288.14917
  0
ENDBLK
  8
0
  0
BLOCK
  8
0
  2
EPBLK4
 70
     0
 10
0.00000000
 20
0.00000000
  0
LINE
  8
0
 10
0.00000000
 20
0.00000000
 11
0.00000000
 21
4628.06494
  0
LINE
  8
0
 10
0.00000000
 20
4628.06494
 11
2277.59106
 21
4628.06494
  0
LINE
  8
0
 10
0.00000000
 20
0.00000000
 11
2277.59106
 21
0.00000000
  0
LINE
  8
0
 10
2277.59106
 20
4628.06494
 11
2277.59106
 21
0.00000000
  0
TEXT
  8
11
 7
SIMPLEX
 10
39.7724343
 20
4508.74805
 40
79.5448685
  1
Bolt Dia=
 50
0.00000000
  0
TEXT
  8
11
 7
SIMPLEX
 10
39.7724343
 20
4409.31689
 40
79.5448685
  1
Plate Thk=
 50
0.00000000
  0
TEXT
  8
11
 7
SIMPLEX
 10
836.491150
 20
4508.74805
 40
79.5448685
  1
20
 50
0.00000000
  0
TEXT
  8
11
 7
SIMPLEX
 10
836.491150
 20
4409.31689
 40
79.5448685
  1
16
 50
0.00000000
  0
TEXT
  8
11
 7
SIMPLEX
 10
79.5448685
 20
39.7724343
 40
79.5448685
  1
SP4
 50
0.00000000
  0
LINE
  8
0
 10
854.096680
 20
925.612976
 11
854.096680
 21
3702.45215
  0
LINE
  8
0
 10
854.096680
 20
3702.45215
 11
1423.49451
 21
3702.45215
  0
LINE
  8
0
 10
1423.49451
 20
3702.45215
 11
1423.49451
 21
925.612976
  0
LINE
  8
0
 10
854.096680
 20
925.612976
 11
1423.49451
 21
925.612976
  0
CIRCLE
  8
0
 10
1012.26270
 20
3556.30273
 40
19.8862171
  0
CIRCLE
  8
0
 10
1265.32837
 20
3556.30273
 40
19.8862171
  0
CIRCLE
  8
0
 10
1012.26270
 20
3264.00391
 40
19.8862171
  0
CIRCLE
  8
0
 10
1265.32837
 20
3264.00391
 40
19.8862171
  0
CIRCLE
  8
0
 10
1012.26270
 20
2314.03247
 40
19.8862171
  0
CIRCLE
  8
0
 10
1265.32837
 20
2314.03247
 40
19.8862171
  0
CIRCLE
  8
0
 10
1012.26270
 20
1364.06128
 40
19.8862171
  0
CIRCLE
  8
0
 10
1265.32837
 20
1364.06128
 40
19.8862171
  0
CIRCLE
  8
0
 10
1012.26270
 20
1071.76245
 40
19.8862171
  0
CIRCLE
  8
0
 10
1265.32837
 20
1071.76245
 40
19.8862171
  0
LINE
  8
0
 10
1102.63879
 20
3427.69141
 11
1102.63879
 21
3672.75488
  0
LINE
  8
0
 10
1102.63879
 20
3672.75488
 11
1174.95239
 21
3672.75488
  0
LINE
  8
0
 10
1174.95239
 20
3672.75488
 11
1174.95239
 21
3427.69141
  0
LINE
  8
0
 10
1102.63879
 20
1194.49915
 11
1102.63879
 21
955.310547
  0
LINE
  8
0
 10
1102.63879
 20
955.310547
 11
1174.95239
 21
955.310547
  0
LINE
  8
0
 10
1174.95239
 20
955.310547
 11
1174.95239
 21
1194.49915
  0
LINE
  8
2
 10
1615.36621
 20
766.682312
 11
1615.36646
 21
925.612976
  0
LINE
  8
2
 10
1615.36646
 20
1071.76245
 11
1615.36646
 21
1230.69312
  0
INSERT
  8
2
  2
ARROWF
 10
1615.36646
 20
925.612976
 41
0.33300000
 42
0.33300000
 43
0.33300000
 50
450.000000
  0
INSERT
  8
2
  2
ARROWF
 10
1615.36646
 20
1071.76245
 41
0.33300000
 42
0.33300000
 43
0.33300000
 50
270.000000
  0
LINE
  8
2
 10
1562.33643
 20
1071.76245
 11
1641.88123
 21
1071.76245
  0
LINE
  8
2
 10
1562.33643
 20
925.612976
 11
1641.88123
 21
925.612976
  0
TEXT
  8
11
 7
SIMPLEX
 10
1655.13867
 20
958.915222
 40
79.5448685
  1
50
 50
0.00000000
  0
LINE
  8
2
 10
1615.36646
 20
1071.76245
 11
1615.36646
 21
1364.06128
  0
INSERT
  8
2
  2
ARROWF
 10
1615.36646
 20
1071.76245
 41
0.33300000
 42
0.33300000
 43
0.33300000
 50
270.000000
  0
INSERT
  8
2
  2
ARROWF
 10
1615.36646
 20
1364.06128
 41
0.33300000
 42
0.33300000
 43
0.33300000
 50
89.9999847
  0
LINE
  8
2
 10
1562.33643
 20
1364.06128
 11
1641.88123
 21
1364.06128
  0
LINE
  8
2
 10
1562.33643
 20
1071.76245
 11
1641.88123
 21
1071.76245
  0
TEXT
  8
11
 7
SIMPLEX
 10
1655.13867
 20
1178.13940
 40
79.5448685
  1
100
 50
0.00000000
  0
LINE
  8
2
 10
1615.36646
 20
1364.06128
 11
1615.36646
 21
2314.03247
  0
INSERT
  8
2
  2
ARROWF
 10
1615.36646
 20
1364.06128
 41
0.33300000
 42
0.33300000
 43
0.33300000
 50
270.000000
  0
INSERT
  8
2
  2
ARROWF
 10
1615.36646
 20
2314.03247
 41
0.33300000
 42
0.33300000
 43
0.33300000
 50
89.9999847
  0
LINE
  8
2
 10
1562.33643
 20
2314.03247
 11
1641.88123
 21
2314.03247
  0
LINE
  8
2
 10
1562.33643
 20
1364.06128
 11
1641.88123
 21
1364.06128
  0
TEXT
  8
11
 7
SIMPLEX
 10
1655.13867
 20
1799.27478
 40
79.5448685
  1
325
 50
0.00000000
  0
LINE
  8
2
 10
1615.36646
 20
2314.03247
 11
1615.36646
 21
3264.00391
  0
INSERT
  8
2
  2
ARROWF
 10
1615.36646
 20
2314.03247
 41
0.33300000
 42
0.33300000
 43
0.33300000
 50
270.000000
  0
INSERT
  8
2
  2
ARROWF
 10
1615.36646
 20
3264.00391
 41
0.33300000
 42
0.33300000
 43
0.33300000
 50
89.9999847
  0
LINE
  8
2
 10
1562.33643
 20
3264.00391
 11
1641.88123
 21
3264.00391
  0
LINE
  8
2
 10
1562.33643
 20
2314.03247
 11
1641.88123
 21
2314.03247
  0
TEXT
  8
11
 7
SIMPLEX
 10
1655.13867
 20
2749.24585
 40
79.5448685
  1
325
 50
0.00000000
  0
LINE
  8
2
 10
1615.36646
 20
3264.00391
 11
1615.36646
 21
3556.30273
  0
INSERT
  8
2
  2
ARROWF
 10
1615.36646
 20
3264.00391
 41
0.33300000
 42
0.33300000
 43
0.33300000
 50
270.000000
  0
INSERT
  8
2
  2
ARROWF
 10
1615.36646
 20
3556.30273
 41
0.33300000
 42
0.33300000
 43
0.33300000
 50
89.9999847
  0
LINE
  8
2
 10
1562.33643
 20
3556.30273
 11
1641.88123
 21
3556.30273
  0
LINE
  8
2
 10
1562.33643
 20
3264.00391
 11
1641.88123
 21
3264.00391
  0
TEXT
  8
11
 7
SIMPLEX
 10
1655.13867
 20
3370.38037
 40
79.5448685
  1
100
 50
0.00000000
  0
LINE
  8
2
 10
1615.36621
 20
3397.37207
 11
1615.36646
 21
3556.30273
  0
LINE
  8
2
 10
1615.36646
 20
3702.45215
 11
1615.36646
 21
3861.38281
  0
INSERT
  8
2
  2
ARROWF
 10
1615.36646
 20
3556.30273
 41
0.33300000
 42
0.33300000
 43
0.33300000
 50
450.000000
  0
INSERT
  8
2
  2
ARROWF
 10
1615.36646
 20
3702.45215
 41
0.33300000
 42
0.33300000
 43
0.33300000
 50
270.000000
  0
LINE
  8
2
 10
1562.33643
 20
3702.45215
 11
1641.88123
 21
3702.45215
  0
LINE
  8
2
 10
1562.33643
 20
3556.30273
 11
1641.88123
 21
3556.30273
  0
TEXT
  8
11
 7
SIMPLEX
 10
1655.13867
 20
3589.60522
 40
79.5448685
  1
50
 50
0.00000000
  0
LINE
  8
2
 10
1012.26270
 20
733.741150
 11
1265.32849
 21
733.741150
  0
LINE
  8
2
 10
1012.26270
 20
786.770996
 11
1012.26270
 21
707.226135
  0
LINE
  8
2
 10
1265.32849
 20
786.770996
 11
1265.32849
 21
707.226135
  0
INSERT
  8
2
  2
ARROWF
 10
1012.26270
 20
733.741150
 41
0.33300000
 42
0.33300000
 43
0.33300000
 50
180.000000
  0
INSERT
  8
2
  2
ARROWF
 10
1265.32849
 20
733.741150
 41
0.33300000
 42
0.33300000
 43
0.33300000
 50
0.00000000
  0
TEXT
  8
11
 7
SIMPLEX
 10
1049.30762
 20
634.309998
 40
79.5448685
  1
100
 50
0.00000000
  0
LINE
  8
2
 10
662.224854
 20
925.612976
 11
662.224854
 21
1194.49890
  0
INSERT
  8
2
  2
ARROWF
 10
662.224854
 20
925.612976
 41
0.33300000
 42
0.33300000
 43
0.33300000
 50
270.000000
  0
INSERT
  8
2
  2
ARROWF
 10
662.224854
 20
1194.49890
 41
0.33300000
 42
0.33300000
 43
0.33300000
 50
89.9999847
  0
LINE
  8
2
 10
635.709900
 20
1194.49890
 11
715.254761
 21
1194.49890
  0
LINE
  8
2
 10
635.709900
 20
925.612976
 11
715.254761
 21
925.612976
  0
TEXT
  8
11
 7
SIMPLEX
 10
483.248840
 20
1020.28345
 40
79.5448685
  1
92
 72
           2
 11
642.338623
 21
1060.05591
 73
           2
 50
   0.000
  0
LINE
  8
2
 10
662.224854
 20
1194.49890
 11
662.224854
 21
3427.69116
  0
INSERT
  8
2
  2
ARROWF
 10
662.224854
 20
1194.49890
 41
0.33300000
 42
0.33300000
 43
0.33300000
 50
270.000000
  0
INSERT
  8
2
  2
ARROWF
 10
662.224854
 20
3427.69116
 41
0.33300000
 42
0.33300000
 43
0.33300000
 50
89.9999847
  0
LINE
  8
2
 10
635.709900
 20
3427.69116
 11
715.254761
 21
3427.69116
  0
LINE
  8
2
 10
635.709900
 20
1194.49890
 11
715.254761
 21
1194.49890
  0
TEXT
  8
11
 7
SIMPLEX
 10
562.793762
 20
2191.77759
 40
79.5448685
  1
764
 72
           1
 11
642.338623
 21
2311.09497
 73
           1
 50
  90.000
  0
LINE
  8
2
 10
662.224854
 20
3427.69116
 11
662.224854
 21
3702.45215
  0
INSERT
  8
2
  2
ARROWF
 10
662.224854
 20
3427.69116
 41
0.33300000
 42
0.33300000
 43
0.33300000
 50
270.000000
  0
INSERT
  8
2
  2
ARROWF
 10
662.224854
 20
3702.45215
 41
0.33300000
 42
0.33300000
 43
0.33300000
 50
89.9999847
  0
LINE
  8
2
 10
635.709900
 20
3702.45215
 11
715.254761
 21
3702.45215
  0
LINE
  8
2
 10
635.709900
 20
3427.69116
 11
715.254761
 21
3427.69116
  0
TEXT
  8
11
 7
SIMPLEX
 10
483.248840
 20
3525.29932
 40
79.5448685
  1
94
 72
           2
 11
642.338623
 21
3565.07178
 73
           2
 50
   0.000
  0
LINE
  8
2
 10
350.312531
 20
925.612976
 11
429.857361
 21
925.612976
  0
LINE
  8
2
 10
350.312531
 20
3702.45215
 11
429.857361
 21
3702.45215
  0
LINE
  8
2
 10
376.827484
 20
925.612976
 11
376.827484
 21
3702.45215
  0
INSERT
  8
2
  2
ARROWF
 10
376.827484
 20
925.612976
 41
0.33300000
 42
0.33300000
 43
0.33300000
 50
270.000000
  0
INSERT
  8
2
  2
ARROWF
 10
376.827484
 20
3702.45215
 41
0.33300000
 42
0.33300000
 43
0.33300000
 50
90.0000000
  0
TEXT
  8
11
 7
SIMPLEX
 10
356.941254
 20
2224.54468
 40
79.5448685
  1
950
 50
90.0000000
  0
LINE
  8
2
 10
854.096680
 20
3894.32422
 11
1423.49451
 21
3894.32422
  0
LINE
  8
2
 10
854.096680
 20
3920.83936
 11
854.096680
 21
3841.29419
  0
LINE
  8
2
 10
1423.49451
 20
3920.83936
 11
1423.49451
 21
3841.29419
  0
INSERT
  8
2
  2
ARROWF
 10
854.096680
 20
3894.32422
 41
0.33300000
 42
0.33300000
 43
0.33300000
 50
180.000000
  0
INSERT
  8
2
  2
ARROWF
 10
1423.49451
 20
3894.32422
 41
0.33300000
 42
0.33300000
 43
0.33300000
 50
0.00000000
  0
TEXT
  8
11
 7
SIMPLEX
 10
1049.30762
 20
3914.21045
 40
79.5448685
  1
225
 50
0.00000000
  0
LINE
  8
0
 10
933.179749
 20
1194.49890
 11
1344.41138
 21
1194.49890
  0
LINE
  8
0
 10
933.179749
 20
1266.81238
 11
1344.41138
 21
1266.81238
  0
LINE
  8
0
 10
933.179749
 20
1194.49890
 11
933.179749
 21
1266.81238
  0
LINE
  8
0
 10
1344.41138
 20
1194.49890
 11
1344.41138
 21
1266.81238
  0
LINE
  8
0
 10
933.179749
 20
3427.69141
 11
1344.41138
 21
3427.69141
  0
LINE
  8
0
 10
933.179749
 20
3355.37817
 11
1344.41138
 21
3355.37817
  0
LINE
  8
0
 10
933.179749
 20
3427.69141
 11
933.179749
 21
3355.37817
  0
LINE
  8
0
 10
1344.41138
 20
3427.69141
 11
1344.41138
 21
3355.37817
  0
LINE
  8
0
 10
1174.95239
 20
1266.81238
 11
1174.95239
 21
3355.37817
  0
LINE
  8
0
 10
1102.63879
 20
1266.81238
 11
1102.63879
 21
3355.37817
  0
ENDBLK
  8
0
  0
BLOCK
  8
0
  2
EPBLK5
 70
     0
 10
0.00000000
 20
0.00000000
  0
LINE
  8
0
 10
0.00000000
 20
0.00000000
 11
0.00000000
 21
4628.06494
  0
LINE
  8
0
 10
0.00000000
 20
4628.06494
 11
2277.59106
 21
4628.06494
  0
LINE
  8
0
 10
0.00000000
 20
0.00000000
 11
2277.59106
 21
0.00000000
  0
LINE
  8
0
 10
2277.59106
 20
4628.06494
 11
2277.59106
 21
0.00000000
  0
TEXT
  8
11
 7
SIMPLEX
 10
39.7724343
 20
4508.74805
 40
79.5448685
  1
Bolt Dia=
 50
0.00000000
  0
TEXT
  8
11
 7
SIMPLEX
 10
39.7724343
 20
4409.31689
 40
79.5448685
  1
Plate Thk=
 50
0.00000000
  0
TEXT
  8
11
 7
SIMPLEX
 10
836.491150
 20
4508.74805
 40
79.5448685
  1
20
 50
0.00000000
  0
TEXT
  8
11
 7
SIMPLEX
 10
836.491150
 20
4409.31689
 40
79.5448685
  1
16
 50
0.00000000
  0
TEXT
  8
11
 7
SIMPLEX
 10
79.5448685
 20
39.7724343
 40
79.5448685
  1
BP1
 50
0.00000000
  0
LINE
  8
0
 10
854.096680
 20
1342.13892
 11
854.096680
 21
3285.92603
  0
LINE
  8
0
 10
854.096680
 20
3285.92603
 11
1423.49451
 21
3285.92603
  0
LINE
  8
0
 10
1423.49451
 20
3285.92603
 11
1423.49451
 21
1342.13892
  0
LINE
  8
0
 10
854.096680
 20
1342.13892
 11
1423.49451
 21
1342.13892
  0
CIRCLE
  8
0
 10
996.446167
 20
2637.99707
 40
19.8862171
  0
CIRCLE
  8
0
 10
1281.14502
 20
2637.99707
 40
19.8862171
  0
CIRCLE
  8
0
 10
996.446167
 20
1990.06799
 40
19.8862171
  0
CIRCLE
  8
0
 10
1281.14502
 20
1990.06799
 40
19.8862171
  0
LINE
  8
2
 10
1615.36646
 20
1342.13892
 11
1615.36646
 21
1990.06799
  0
INSERT
  8
2
  2
ARROWF
 10
1615.36646
 20
1342.13892
 41
0.33300000
 42
0.33300000
 43
0.33300000
 50
270.000000
  0
INSERT
  8
2
  2
ARROWF
 10
1615.36646
 20
1990.06799
 41
0.33300000
 42
0.33300000
 43
0.33300000
 50
89.9999847
  0
LINE
  8
2
 10
1562.33643
 20
1990.06799
 11
1641.88123
 21
1990.06799
  0
LINE
  8
2
 10
1562.33643
 20
1342.13892
 11
1641.88123
 21
1342.13892
  0
TEXT
  8
11
 7
SIMPLEX
 10
1655.13867
 20
1626.33118
 40
79.5448685
  1
100
 50
0.00000000
  0
LINE
  8
2
 10
1615.36646
 20
1990.06799
 11
1615.36646
 21
2637.99707
  0
INSERT
  8
2
  2
ARROWF
 10
1615.36646
 20
1990.06799
 41
0.33300000
 42
0.33300000
 43
0.33300000
 50
270.000000
  0
INSERT
  8
2
  2
ARROWF
 10
1615.36646
 20
2637.99707
 41
0.33300000
 42
0.33300000
 43
0.33300000
 50
89.9999847
  0
LINE
  8
2
 10
1562.33643
 20
2637.99707
 11
1641.88123
 21
2637.99707
  0
LINE
  8
2
 10
1562.33643
 20
1990.06799
 11
1641.88123
 21
1990.06799
  0
TEXT
  8
11
 7
SIMPLEX
 10
1655.13867
 20
2274.26025
 40
79.5448685
  1
100
 50
0.00000000
  0
LINE
  8
2
 10
1615.36646
 20
2637.99707
 11
1615.36646
 21
3285.92603
  0
INSERT
  8
2
  2
ARROWF
 10
1615.36646
 20
2637.99707
 41
0.33300000
 42
0.33300000
 43
0.33300000
 50
270.000000
  0
INSERT
  8
2
  2
ARROWF
 10
1615.36646
 20
3285.92603
 41
0.33300000
 42
0.33300000
 43
0.33300000
 50
89.9999847
  0
LINE
  8
2
 10
1562.33643
 20
3285.92603
 11
1641.88123
 21
3285.92603
  0
LINE
  8
2
 10
1562.33643
 20
2637.99707
 11
1641.88123
 21
2637.99707
  0
TEXT
  8
11
 7
SIMPLEX
 10
1655.13867
 20
2922.18921
 40
79.5448685
  1
100
 50
0.00000000
  0
LINE
  8
2
 10
996.446167
 20
1150.26709
 11
1281.14502
 21
1150.26709
  0
LINE
  8
2
 10
996.446167
 20
1203.29700
 11
996.446167
 21
1123.75208
  0
LINE
  8
2
 10
1281.14502
 20
1203.29700
 11
1281.14502
 21
1123.75208
  0
INSERT
  8
2
  2
ARROWF
 10
996.446167
 20
1150.26709
 41
0.33300000
 42
0.33300000
 43
0.33300000
 50
180.000000
  0
INSERT
  8
2
  2
ARROWF
 10
1281.14502
 20
1150.26709
 41
0.33300000
 42
0.33300000
 43
0.33300000
 50
0.00000000
  0
TEXT
  8
11
 7
SIMPLEX
 10
1049.30762
 20
1050.83606
 40
79.5448685
  1
100
 50
0.00000000
  0
LINE
  8
2
 10
662.224792
 20
1183.20813
 11
662.224854
 21
1342.13892
  0
LINE
  8
2
 10
662.224854
 20
1484.68323
 11
662.224854
 21
1643.61377
  0
INSERT
  8
2
  2
ARROWF
 10
662.224854
 20
1342.13892
 41
0.33300000
 42
0.33300000
 43
0.33300000
 50
450.000000
  0
INSERT
  8
2
  2
ARROWF
 10
662.224854
 20
1484.68323
 41
0.33300000
 42
0.33300000
 43
0.33300000
 50
270.000000
  0
LINE
  8
2
 10
635.709900
 20
1484.68323
 11
715.254761
 21
1484.68323
  0
LINE
  8
2
 10
635.709900
 20
1342.13892
 11
715.254761
 21
1342.13892
  0
TEXT
  8
11
 7
SIMPLEX
 10
483.248840
 20
1373.63855
 40
79.5448685
  1
22
 72
           2
 11
642.338623
 21
1413.41101
 73
           2
 50
   0.000
  0
LINE
  8
2
 10
662.224854
 20
1484.68323
 11
662.224854
 21
3188.73706
  0
INSERT
  8
2
  2
ARROWF
 10
662.224854
 20
1484.68323
 41
0.33300000
 42
0.33300000
 43
0.33300000
 50
270.000000
  0
INSERT
  8
2
  2
ARROWF
 10
662.224854
 20
3188.73706
 41
0.33300000
 42
0.33300000
 43
0.33300000
 50
89.9999847
  0
LINE
  8
2
 10
635.709900
 20
3188.73706
 11
715.254761
 21
3188.73706
  0
LINE
  8
2
 10
635.709900
 20
1484.68323
 11
715.254761
 21
1484.68323
  0
TEXT
  8
11
 7
SIMPLEX
 10
562.793762
 20
2217.39282
 40
79.5448685
  1
263
 72
           1
 11
642.338623
 21
2336.70996
 73
           1
 50
  90.000
  0
LINE
  8
2
 10
662.224792
 20
3029.80615
 11
662.224854
 21
3188.73706
  0
LINE
  8
2
 10
662.224854
 20
3285.92603
 11
662.224854
 21
3444.85669
  0
INSERT
  8
2
  2
ARROWF
 10
662.224854
 20
3188.73706
 41
0.33300000
 42
0.33300000
 43
0.33300000
 50
450.000000
  0
INSERT
  8
2
  2
ARROWF
 10
662.224854
 20
3285.92603
 41
0.33300000
 42
0.33300000
 43
0.33300000
 50
270.000000
  0
LINE
  8
2
 10
635.709900
 20
3285.92603
 11
715.254761
 21
3285.92603
  0
LINE
  8
2
 10
635.709900
 20
3188.73706
 11
715.254761
 21
3188.73706
  0
TEXT
  8
11
 7
SIMPLEX
 10
511.089539
 20
3197.55908
 40
79.5448685
  1
15
 72
           2
 11
642.338623
 21
3237.33130
 73
           2
 50
   0.000
  0
LINE
  8
2
 10
350.312531
 20
1342.13892
 11
429.857361
 21
1342.13892
  0
LINE
  8
2
 10
350.312531
 20
3285.92603
 11
429.857361
 21
3285.92603
  0
LINE
  8
2
 10
376.827484
 20
1342.13892
 11
376.827484
 21
3285.92603
  0
INSERT
  8
2
  2
ARROWF
 10
376.827484
 20
1342.13892
 41
0.33300000
 42
0.33300000
 43
0.33300000
 50
270.000000
  0
INSERT
  8
2
  2
ARROWF
 10
376.827484
 20
3285.92603
 41
0.33300000
 42
0.33300000
 43
0.33300000
 50
90.0000000
  0
TEXT
  8
11
 7
SIMPLEX
 10
356.941254
 20
2224.54468
 40
79.5448685
  1
300
 50
90.0000000
  0
LINE
  8
2
 10
854.096680
 20
3477.79810
 11
1423.49451
 21
3477.79810
  0
LINE
  8
2
 10
854.096680
 20
3504.31323
 11
854.096680
 21
3424.76807
  0
LINE
  8
2
 10
1423.49451
 20
3504.31323
 11
1423.49451
 21
3424.76807
  0
INSERT
  8
2
  2
ARROWF
 10
854.096680
 20
3477.79810
 41
0.33300000
 42
0.33300000
 43
0.33300000
 50
180.000000
  0
INSERT
  8
2
  2
ARROWF
 10
1423.49451
 20
3477.79810
 41
0.33300000
 42
0.33300000
 43
0.33300000
 50
0.00000000
  0
TEXT
  8
11
 7
SIMPLEX
 10
1049.30762
 20
3497.68457
 40
79.5448685
  1
200
 50
0.00000000
  0
LINE
  8
0
 10
925.271423
 20
1484.68323
 11
1352.31970
 21
1484.68323
  0
LINE
  8
0
 10
925.271423
 20
1556.99683
 11
1352.31970
 21
1556.99683
  0
LINE
  8
0
 10
925.271423
 20
1484.68323
 11
925.271423
 21
1556.99683
  0
LINE
  8
0
 10
1352.31970
 20
1484.68323
 11
1352.31970
 21
1556.99683
  0
LINE
  8
0
 10
925.271423
 20
3188.73706
 11
1352.31970
 21
3188.73706
  0
LINE
  8
0
 10
925.271423
 20
3116.42310
 11
1352.31970
 21
3116.42310
  0
LINE
  8
0
 10
925.271423
 20
3188.73706
 11
925.271423
 21
3116.42310
  0
LINE
  8
0
 10
1352.31970
 20
3188.73706
 11
1352.31970
 21
3116.42310
  0
LINE
  8
0
 10
1174.95239
 20
1556.99683
 11
1174.95239
 21
3116.42310
  0
LINE
  8
0
 10
1102.63879
 20
1556.99683
 11
1102.63879
 21
3116.42310
  0
ENDBLK
  8
0
  0
BLOCK
  8
0
  2
EPBLK6
 70
     0
 10
0.00000000
 20
0.00000000
  0
LINE
  8
0
 10
0.00000000
 20
0.00000000
 11
0.00000000
 21
4628.06494
  0
LINE
  8
0
 10
0.00000000
 20
4628.06494
 11
2277.59106
 21
4628.06494
  0
LINE
  8
0
 10
0.00000000
 20
0.00000000
 11
2277.59106
 21
0.00000000
  0
LINE
  8
0
 10
2277.59106
 20
4628.06494
 11
2277.59106
 21
0.00000000
  0
TEXT
  8
11
 7
SIMPLEX
 10
39.7724343
 20
4508.74805
 40
79.5448685
  1
Bolt Dia=
 50
0.00000000
  0
TEXT
  8
11
 7
SIMPLEX
 10
39.7724343
 20
4409.31689
 40
79.5448685
  1
Plate Thk=
 50
0.00000000
  0
TEXT
  8
11
 7
SIMPLEX
 10
836.491150
 20
4508.74805
 40
79.5448685
  1
20
 50
0.00000000
  0
TEXT
  8
11
 7
SIMPLEX
 10
836.491150
 20
4409.31689
 40
79.5448685
  1
16
 50
0.00000000
  0
TEXT
  8
11
 7
SIMPLEX
 10
79.5448685
 20
39.7724343
 40
79.5448685
  1
CP-1
 50
0.00000000
  0
LINE
  8
0
 10
854.096680
 20
1342.13892
 11
854.096680
 21
3285.92603
  0
LINE
  8
0
 10
854.096680
 20
3285.92603
 11
1423.49451
 21
3285.92603
  0
LINE
  8
0
 10
1423.49451
 20
3285.92603
 11
1423.49451
 21
1342.13892
  0
LINE
  8
0
 10
854.096680
 20
1342.13892
 11
1423.49451
 21
1342.13892
  0
CIRCLE
  8
0
 10
996.446167
 20
3058.42261
 40
19.8862171
  0
CIRCLE
  8
0
 10
1281.14502
 20
3058.42261
 40
19.8862171
  0
CIRCLE
  8
0
 10
996.446167
 20
2603.41675
 40
19.8862171
  0
CIRCLE
  8
0
 10
1281.14502
 20
2603.41675
 40
19.8862171
  0
CIRCLE
  8
0
 10
996.446167
 20
2024.64844
 40
19.8862171
  0
CIRCLE
  8
0
 10
1281.14502
 20
2024.64844
 40
19.8862171
  0
CIRCLE
  8
0
 10
996.446167
 20
1569.64221
 40
19.8862171
  0
CIRCLE
  8
0
 10
1281.14502
 20
1569.64221
 40
19.8862171
  0
LINE
  8
0
 10
1102.63879
 20
2830.91968
 11
1102.63879
 21
3239.69751
  0
LINE
  8
0
 10
1102.63879
 20
3239.69751
 11
1174.95239
 21
3239.69751
  0
LINE
  8
0
 10
1174.95239
 20
3239.69751
 11
1174.95239
 21
2830.91968
  0
LINE
  8
0
 10
1102.63879
 20
1797.14526
 11
1102.63879
 21
1388.36755
  0
LINE
  8
0
 10
1102.63879
 20
1388.36755
 11
1174.95239
 21
1388.36755
  0
LINE
  8
0
 10
1174.95239
 20
1388.36755
 11
1174.95239
 21
1797.14526
  0
LINE
  8
2
 10
1615.36646
 20
1342.13892
 11
1615.36646
 21
1569.64221
  0
INSERT
  8
2
  2
ARROWF
 10
1615.36646
 20
1342.13892
 41
0.33300000
 42
0.33300000
 43
0.33300000
 50
270.000000
  0
INSERT
  8
2
  2
ARROWF
 10
1615.36646
 20
1569.64221
 41
0.33300000
 42
0.33300000
 43
0.33300000
 50
89.9999847
  0
LINE
  8
2
 10
1562.33643
 20
1569.64221
 11
1641.88123
 21
1569.64221
  0
LINE
  8
2
 10
1562.33643
 20
1342.13892
 11
1641.88123
 21
1342.13892
  0
TEXT
  8
11
 7
SIMPLEX
 10
1655.13867
 20
1416.11804
 40
79.5448685
  1
50
 50
0.00000000
  0
LINE
  8
2
 10
1615.36646
 20
1569.64221
 11
1615.36646
 21
2024.64844
  0
INSERT
  8
2
  2
ARROWF
 10
1615.36646
 20
1569.64221
 41
0.33300000
 42
0.33300000
 43
0.33300000
 50
270.000000
  0
INSERT
  8
2
  2
ARROWF
 10
1615.36646
 20
2024.64844
 41
0.33300000
 42
0.33300000
 43
0.33300000
 50
89.9999847
  0
LINE
  8
2
 10
1562.33643
 20
2024.64844
 11
1641.88123
 21
2024.64844
  0
LINE
  8
2
 10
1562.33643
 20
1569.64221
 11
1641.88123
 21
1569.64221
  0
TEXT
  8
11
 7
SIMPLEX
 10
1655.13867
 20
1757.37292
 40
79.5448685
  1
100
 50
0.00000000
  0
LINE
  8
2
 10
1615.36646
 20
2024.64844
 11
1615.36646
 21
2603.41675
  0
INSERT
  8
2
  2
ARROWF
 10
1615.36646
 20
2024.64844
 41
0.33300000
 42
0.33300000
 43
0.33300000
 50
270.000000
  0
INSERT
  8
2
  2
ARROWF
 10
1615.36646
 20
2603.41675
 41
0.33300000
 42
0.33300000
 43
0.33300000
 50
89.9999847
  0
LINE
  8
2
 10
1562.33643
 20
2603.41675
 11
1641.88123
 21
2603.41675
  0
LINE
  8
2
 10
1562.33643
 20
2024.64844
 11
1641.88123
 21
2024.64844
  0
TEXT
  8
11
 7
SIMPLEX
 10
1655.13867
 20
2274.26025
 40
79.5448685
  1
127
 50
0.00000000
  0
LINE
  8
2
 10
1615.36646
 20
2603.41675
 11
1615.36646
 21
3058.42261
  0
INSERT
  8
2
  2
ARROWF
 10
1615.36646
 20
2603.41675
 41
0.33300000
 42
0.33300000
 43
0.33300000
 50
270.000000
  0
INSERT
  8
2
  2
ARROWF
 10
1615.36646
 20
3058.42261
 41
0.33300000
 42
0.33300000
 43
0.33300000
 50
89.9999847
  0
LINE
  8
2
 10
1562.33643
 20
3058.42261
 11
1641.88123
 21
3058.42261
  0
LINE
  8
2
 10
1562.33643
 20
2603.41675
 11
1641.88123
 21
2603.41675
  0
TEXT
  8
11
 7
SIMPLEX
 10
1655.13867
 20
2791.14746
 40
79.5448685
  1
100
 50
0.00000000
  0
LINE
  8
2
 10
1615.36646
 20
3058.42261
 11
1615.36646
 21
3285.92603
  0
INSERT
  8
2
  2
ARROWF
 10
1615.36646
 20
3058.42261
 41
0.33300000
 42
0.33300000
 43
0.33300000
 50
270.000000
  0
INSERT
  8
2
  2
ARROWF
 10
1615.36646
 20
3285.92603
 41
0.33300000
 42
0.33300000
 43
0.33300000
 50
89.9999847
  0
LINE
  8
2
 10
1562.33643
 20
3285.92603
 11
1641.88123
 21
3285.92603
  0
LINE
  8
2
 10
1562.33643
 20
3058.42261
 11
1641.88123
 21
3058.42261
  0
TEXT
  8
11
 7
SIMPLEX
 10
1655.13867
 20
3132.40234
 40
79.5448685
  1
50
 50
0.00000000
  0
LINE
  8
2
 10
996.446167
 20
1150.26709
 11
1281.14502
 21
1150.26709
  0
LINE
  8
2
 10
996.446167
 20
1203.29700
 11
996.446167
 21
1123.75208
  0
LINE
  8
2
 10
1281.14502
 20
1203.29700
 11
1281.14502
 21
1123.75208
  0
INSERT
  8
2
  2
ARROWF
 10
996.446167
 20
1150.26709
 41
0.33300000
 42
0.33300000
 43
0.33300000
 50
180.000000
  0
INSERT
  8
2
  2
ARROWF
 10
1281.14502
 20
1150.26709
 41
0.33300000
 42
0.33300000
 43
0.33300000
 50
0.00000000
  0
TEXT
  8
11
 7
SIMPLEX
 10
1049.30762
 20
1050.83606
 40
79.5448685
  1
100
 50
0.00000000
  0
LINE
  8
2
 10
662.224854
 20
1342.13892
 11
662.224854
 21
1797.14539
  0
INSERT
  8
2
  2
ARROWF
 10
662.224854
 20
1342.13892
 41
0.33300000
 42
0.33300000
 43
0.33300000
 50
270.000000
  0
INSERT
  8
2
  2
ARROWF
 10
662.224854
 20
1797.14539
 41
0.33300000
 42
0.33300000
 43
0.33300000
 50
89.9999847
  0
LINE
  8
2
 10
635.709900
 20
1797.14539
 11
715.254761
 21
1797.14539
  0
LINE
  8
2
 10
635.709900
 20
1342.13892
 11
715.254761
 21
1342.13892
  0
TEXT
  8
11
 7
SIMPLEX
 10
431.544678
 20
1529.86963
 40
79.5448685
  1
100
 72
           2
 11
642.338623
 21
1569.64221
 73
           2
 50
   0.000
  0
LINE
  8
2
 10
662.224854
 20
1797.14539
 11
662.224854
 21
2830.91968
  0
INSERT
  8
2
  2
ARROWF
 10
662.224854
 20
1797.14539
 41
0.33300000
 42
0.33300000
 43
0.33300000
 50
270.000000
  0
INSERT
  8
2
  2
ARROWF
 10
662.224854
 20
2830.91968
 41
0.33300000
 42
0.33300000
 43
0.33300000
 50
89.9999847
  0
LINE
  8
2
 10
635.709900
 20
2830.91968
 11
715.254761
 21
2830.91968
  0
LINE
  8
2
 10
635.709900
 20
1797.14539
 11
715.254761
 21
1797.14539
  0
TEXT
  8
11
 7
SIMPLEX
 10
562.793762
 20
2194.71533
 40
79.5448685
  1
227
 72
           1
 11
642.338623
 21
2314.03271
 73
           1
 50
  90.000
  0
LINE
  8
2
 10
662.224854
 20
2830.91968
 11
662.224854
 21
3285.92603
  0
INSERT
  8
2
  2
ARROWF
 10
662.224854
 20
2830.91968
 41
0.33300000
 42
0.33300000
 43
0.33300000
 50
270.000000
  0
INSERT
  8
2
  2
ARROWF
 10
662.224854
 20
3285.92603
 41
0.33300000
 42
0.33300000
 43
0.33300000
 50
89.9999847
  0
LINE
  8
2
 10
635.709900
 20
3285.92603
 11
715.254761
 21
3285.92603
  0
LINE
  8
2
 10
635.709900
 20
2830.91968
 11
715.254761
 21
2830.91968
  0
TEXT
  8
11
 7
SIMPLEX
 10
431.544678
 20
3018.65063
 40
79.5448685
  1
100
 72
           2
 11
642.338623
 21
3058.42261
 73
           2
 50
   0.000
  0
LINE
  8
2
 10
350.312531
 20
1342.13892
 11
429.857361
 21
1342.13892
  0
LINE
  8
2
 10
350.312531
 20
3285.92603
 11
429.857361
 21
3285.92603
  0
LINE
  8
2
 10
376.827484
 20
1342.13892
 11
376.827484
 21
3285.92603
  0
INSERT
  8
2
  2
ARROWF
 10
376.827484
 20
1342.13892
 41
0.33300000
 42
0.33300000
 43
0.33300000
 50
270.000000
  0
INSERT
  8
2
  2
ARROWF
 10
376.827484
 20
3285.92603
 41
0.33300000
 42
0.33300000
 43
0.33300000
 50
90.0000000
  0
TEXT
  8
11
 7
SIMPLEX
 10
356.941254
 20
2224.54468
 40
79.5448685
  1
427
 50
90.0000000
  0
LINE
  8
2
 10
854.096680
 20
3477.79810
 11
1423.49451
 21
3477.79810
  0
LINE
  8
2
 10
854.096680
 20
3504.31323
 11
854.096680
 21
3424.76807
  0
LINE
  8
2
 10
1423.49451
 20
3504.31323
 11
1423.49451
 21
3424.76807
  0
INSERT
  8
2
  2
ARROWF
 10
854.096680
 20
3477.79810
 41
0.33300000
 42
0.33300000
 43
0.33300000
 50
180.000000
  0
INSERT
  8
2
  2
ARROWF
 10
1423.49451
 20
3477.79810
 41
0.33300000
 42
0.33300000
 43
0.33300000
 50
0.00000000
  0
TEXT
  8
11
 7
SIMPLEX
 10
1049.30762
 20
3497.68457
 40
79.5448685
  1
200
 50
0.00000000
  0
LINE
  8
0
 10
925.271423
 20
1797.14539
 11
1352.31970
 21
1797.14539
  0
LINE
  8
0
 10
925.271423
 20
1869.45898
 11
1352.31970
 21
1869.45898
  0
LINE
  8
0
 10
925.271423
 20
1797.14539
 11
925.271423
 21
1869.45898
  0
LINE
  8
0
 10
1352.31970
 20
1797.14539
 11
1352.31970
 21
1869.45898
  0
LINE
  8
0
 10
925.271423
 20
2830.91968
 11
1352.31970
 21
2830.91968
  0
LINE
  8
0
 10
925.271423
 20
2758.60620
 11
1352.31970
 21
2758.60620
  0
LINE
  8
0
 10
925.271423
 20
2830.91968
 11
925.271423
 21
2758.60620
  0
LINE
  8
0
 10
1352.31970
 20
2830.91968
 11
1352.31970
 21
2758.60620
  0
LINE
  8
0
 10
1174.95239
 20
1869.45898
 11
1174.95239
 21
2758.60620
  0
LINE
  8
0
 10
1102.63879
 20
1869.45898
 11
1102.63879
 21
2758.60620
  0
ENDBLK
  8
0
  0
BLOCK
  8
1
  2
RF1TBL
 70
     0
 10
0.00000000
 20
0.00000000
  0
TEXT
  8
14
 7
SIMPLEX
 10
-26408.896
 20
-397.72433
 40
318.179474
  1
MEMBER TABLE
 50
0.00000000
  0
TEXT
  8
14
 7
SIMPLEX
 10
-26408.896
 20
-1193.1731
 40
318.179474
  1
Mark
 50
0.00000000
  0
TEXT
  8
14
 7
SIMPLEX
 10
-24022.551
 20
-874.99359
 40
318.179474
  1
Web Depth
 50
0.00000000
  0
TEXT
  8
14
 7
SIMPLEX
 10
-23863.461
 20
-1352.2628
 40
318.179474
  1
Start/End
 50
0.00000000
  0
TEXT
  8
14
 7
SIMPLEX
 10
-20363.486
 20
-874.99359
 40
318.179474
  1
Web Plate
 50
0.00000000
  0
TEXT
  8
14
 7
SIMPLEX
 10
-20681.666
 20
-1352.2628
 40
318.179474
  1
Thick
 50
0.00000000
  0
TEXT
  8
14
 7
SIMPLEX
 10
-18931.678
 20
-1352.2628
 40
318.179474
  1
Length
 50
0.00000000
  0
TEXT
  8
14
 7
SIMPLEX
 10
-14954.435
 20
-874.99359
 40
318.179474
  1
Outside Flange
 50
0.00000000
  0
TEXT
  8
14
 7
SIMPLEX
 10
-14954.435
 20
-1352.2628
 40
318.179474
  1
W x Thk x Length
 50
0.00000000
  0
TEXT
  8
14
 7
SIMPLEX
 10
-7318.1274
 20
-874.99359
 40
318.179474
  1
Inside Flange
 50
0.00000000
  0
TEXT
  8
14
 7
SIMPLEX
 10
-7318.1274
 20
-1352.2628
 40
318.179474
  1
W x Thk x Length
 50
0.00000000
  0
TEXT
  8
26
 7
SIMPLEX
 10
-26408.896
 20
-1829.5322
 40
318.179474
  1
 CL1-1
 50
0.00000000
  0
TEXT
  8
26
 7
SIMPLEX
 10
-23863.461
 20
-1829.5322
 40
318.179474
  1
 250/ 400
 50
0.00000000
  0
TEXT
  8
26
 7
SIMPLEX
 10
-20840.756
 20
-1829.5322
 40
318.179474
  1
    4
 50
0.00000000
  0
TEXT
  8
26
 7
SIMPLEX
 10
-18931.680
 20
-1829.5322
 40
318.179474
  1
 6308
 50
0.00000000
  0
TEXT
  8
26
 7
SIMPLEX
 10
-14795.347
 20
-1829.5322
 40
318.179474
  1
140 x 5 x 6308
 50
0.00000000
  0
TEXT
  8
26
 7
SIMPLEX
 10
-7159.0386
 20
-1829.5322
 40
318.179474
  1
140 x 8 x 6310
 50
0.00000000
  0
TEXT
  8
26
 7
SIMPLEX
 10
-7159.0386
 20
-2306.8013
 40
318.179474
  1
160 x 5 x 3046
 50
0.00000000
  0
TEXT
  8
26
 7
SIMPLEX
 10
-7159.0386
 20
-2784.0706
 40
318.179474
  1
160 x 5 x 6002
 50
0.00000000
  0
TEXT
  8
26
 7
SIMPLEX
 10
-14795.347
 20
-2306.8013
 40
318.179474
  1
160 x 5 x 452
 50
0.00000000
  0
TEXT
  8
26
 7
SIMPLEX
 10
-14795.347
 20
-2784.0706
 40
318.179474
  1
160 x 5 x 3346
 50
0.00000000
  0
TEXT
  8
26
 7
SIMPLEX
 10
-14795.347
 20
-3261.3396
 40
318.179474
  1
160 x 6 x 6300
 50
0.00000000
  0
TEXT
  8
26
 7
SIMPLEX
 10
-26408.896
 20
-2306.8013
 40
318.179474
  1
 RF1-2
 50
0.00000000
  0
TEXT
  8
26
 7
SIMPLEX
 10
-23863.461
 20
-2306.8013
 40
318.179474
  1
 501/ 600
 50
0.00000000
  0
TEXT
  8
26
 7
SIMPLEX
 10
-20840.756
 20
-2306.8013
 40
318.179474
  1
    5
 50
0.00000000
  0
TEXT
  8
26
 7
SIMPLEX
 10
-18931.680
 20
-2306.8013
 40
318.179474
  1
 3546
 50
0.00000000
  0
TEXT
  8
26
 7
SIMPLEX
 10
-23863.461
 20
-2784.0706
 40
318.179474
  1
 600/ 750
 50
0.00000000
  0
TEXT
  8
26
 7
SIMPLEX
 10
-20840.756
 20
-2784.0706
 40
318.179474
  1
    5
 50
0.00000000
  0
TEXT
  8
26
 7
SIMPLEX
 10
-18931.680
 20
-2784.0706
 40
318.179474
  1
 6000
 50
0.00000000
  0
TEXT
  8
26
 7
SIMPLEX
 10
-7159.0386
 20
-3738.6089
 40
318.179474
  1
140 x 5 x 5968
 50
0.00000000
  0
TEXT
  8
26
 7
SIMPLEX
 10
-14795.347
 20
-3738.6089
 40
318.179474
  1
140 x 8 x 5968
 50
0.00000000
  0
TEXT
  8
26
 7
SIMPLEX
 10
-26408.896
 20
-3738.6089
 40
318.179474
  1
 RF1-3
 50
0.00000000
  0
TEXT
  8
26
 7
SIMPLEX
 10
-23863.461
 20
-3738.6089
 40
318.179474
  1
 750/ 700
 50
0.00000000
  0
TEXT
  8
26
 7
SIMPLEX
 10
-20840.756
 20
-3738.6089
 40
318.179474
  1
    5
 50
0.00000000
  0
TEXT
  8
26
 7
SIMPLEX
 10
-18931.680
 20
-3738.6089
 40
318.179474
  1
 5968
 50
0.00000000
  0
TEXT
  8
26
 7
SIMPLEX
 10
-7159.0386
 20
-4215.8784
 40
318.179474
  1
185 x 6 x 5933
 50
0.00000000
  0
TEXT
  8
26
 7
SIMPLEX
 10
-7159.0386
 20
-4693.1475
 40
318.179474
  1
185 x 8 x 6005
 50
0.00000000
  0
TEXT
  8
26
 7
SIMPLEX
 10
-14795.347
 20
-4215.8784
 40
318.179474
  1
185 x 8 x 6229
 50
0.00000000
  0
TEXT
  8
26
 7
SIMPLEX
 10
-14795.347
 20
-4693.1475
 40
318.179474
  1
185 x 6 x 5700
 50
0.00000000
  0
TEXT
  8
26
 7
SIMPLEX
 10
-26408.896
 20
-4215.8784
 40
318.179474
  1
 RF1-4
 50
0.00000000
  0
TEXT
  8
26
 7
SIMPLEX
 10
-23863.461
 20
-4215.8784
 40
318.179474
  1
 699/ 500
 50
0.00000000
  0
TEXT
  8
26
 7
SIMPLEX
 10
-20840.756
 20
-4215.8784
 40
318.179474
  1
    5
 50
0.00000000
  0
TEXT
  8
26
 7
SIMPLEX
 10
-18931.680
 20
-4215.8784
 40
318.179474
  1
 5929
 50
0.00000000
  0
TEXT
  8
26
 7
SIMPLEX
 10
-23863.461
 20
-4693.1475
 40
318.179474
  1
 500/ 749
 50
0.00000000
  0
TEXT
  8
26
 7
SIMPLEX
 10
-20840.756
 20
-4693.1475
 40
318.179474
  1
    5
 50
0.00000000
  0
TEXT
  8
26
 7
SIMPLEX
 10
-18931.680
 20
-4693.1475
 40
318.179474
  1
 6000
 50
0.00000000
  0
TEXT
  8
26
 7
SIMPLEX
 10
-26408.896
 20
-5170.4165
 40
318.179474
  1
 RF1-5
 50
0.00000000
  0
TEXT
  8
26
 7
SIMPLEX
 10
-23863.461
 20
-5170.4165
 40
318.179474
  1
 752/1047
 50
0.00000000
  0
TEXT
  8
26
 7
SIMPLEX
 10
-20840.756
 20
-5170.4165
 40
318.179474
  1
    6
 50
0.00000000
  0
TEXT
  8
26
 7
SIMPLEX
 10
-18931.680
 20
-5170.4165
 40
318.179474
  1
 5974
 50
0.00000000
  0
TEXT
  8
26
 7
SIMPLEX
 10
-14795.347
 20
-5170.4165
 40
318.179474
  1
225 x 8 x 3002
 50
0.00000000
  0
TEXT
  8
26
 7
SIMPLEX
 10
-14795.347
 20
-5647.6860
 40
318.179474
  1
225 x 8 x 3002
 50
0.00000000
  0
TEXT
  8
26
 7
SIMPLEX
 10
-7159.0386
 20
-5170.4165
 40
318.179474
  1
225 x 8 x 2698
 50
0.00000000
  0
TEXT
  8
26
 7
SIMPLEX
 10
-7159.0386
 20
-5647.6860
 40
318.179474
  1
225 x 8 x 2698
 50
0.00000000
  0
TEXT
  8
26
 7
SIMPLEX
 10
-26408.896
 20
-6124.9551
 40
318.179474
  1
 CL1-6
 50
0.00000000
  0
TEXT
  8
26
 7
SIMPLEX
 10
-23863.461
 20
-6124.9551
 40
318.179474
  1
 203/ 203
 50
0.00000000
  0
TEXT
  8
26
 7
SIMPLEX
 10
-20840.756
 20
-6124.9551
 40
318.179474
  1
    5
 50
0.00000000
  0
TEXT
  8
26
 7
SIMPLEX
 10
-18931.680
 20
-6124.9551
 40
318.179474
  1
 8748
 50
0.00000000
  0
TEXT
  8
26
 7
SIMPLEX
 10
-14795.347
 20
-6124.9551
 40
318.179474
  1
200 x 12 x 8748
 50
0.00000000
  0
TEXT
  8
26
 7
SIMPLEX
 10
-7159.0386
 20
-6124.9551
 40
318.179474
  1
200 x 12 x 8748
 50
0.00000000
  0
LINE
  8
0
 10
-26727.074
 20
-6204.5000
 11
0.00000000
 21
-6204.5000
  0
LINE
  8
0
 10
-26727.074
 20
0.00000000
 11
-26727.074
 21
-6204.5000
  0
LINE
  8
0
 10
0.00000000
 20
0.00000000
 11
0.00000000
 21
-6204.5000
  0
LINE
  8
0
 10
-26727.074
 20
0.00000000
 11
0.00000000
 21
0.00000000
  0
LINE
  8
0
 10
-26727.074
 20
-6204.5000
 11
0.00000000
 21
-6204.5000
  0
LINE
  8
0
 10
-26727.074
 20
-477.26923
 11
0.00000000
 21
-477.26923
  0
LINE
  8
0
 10
-24181.641
 20
-477.26923
 11
-24181.641
 21
-6204.5000
  0
LINE
  8
0
 10
-20999.846
 20
-477.26923
 11
-20999.846
 21
-6204.5000
  0
LINE
  8
0
 10
-15113.523
 20
-477.26923
 11
-15113.523
 21
-6204.5000
  0
LINE
  8
0
 10
-7477.2158
 20
-477.26923
 11
-7477.2158
 21
-6204.5000
  0
LINE
  8
0
 10
-26727.074
 20
-477.26923
 11
-26727.074
 21
-6204.5000
  0
LINE
  8
0
 10
-26727.074
 20
-477.26923
 11
-26727.074
 21
-6204.5000
  0
LINE
  8
0
 10
-26727.074
 20
-477.26923
 11
-26727.074
 21
-6204.5000
  0
LINE
  8
0
 10
-24181.641
 20
-954.53845
 11
-15113.523
 21
-954.53845
  0
LINE
  8
0
 10
-19249.857
 20
-954.53845
 11
-19249.857
 21
-6204.5000
  0
LINE
  8
0
 10
-26727.074
 20
-1431.8076
 11
0.00000000
 21
-1431.8076
  0
ENDBLK
  8
1
  0
BLOCK
  8
1
  2
RF1CPL
 70
     0
 10
0.00000000
 20
11.4299994
  0
LINE
  8
3
 10
0.00000000
 20
11.4299994
 11
80.7719956
 21
11.4299994
  0
LINE
  8
3
 10
0.00000000
 20
8.38199900
 11
80.7719956
 21
8.38199900
  0
LINE
  8
3
 10
0.00000000
 20
3.04799962
 11
80.7719956
 21
3.04799962
  0
LINE
  8
3
 10
0.00000000
 20
-0.0000002
 11
80.7719956
 21
-0.0000002
  0
LINE
  8
3
 10
0.00000000
 20
0.00000000
 11
80.7719956
 21
0.00000000
  0
LINE
  8
3
 10
0.00000000
 20
11.4299994
 11
0.00000000
 21
0.00000000
  0
LINE
  8
3
 10
80.7719956
 20
0.00000000
 11
80.7719956
 21
11.4299994
  0
LINE
  8
3
 10
12.1919994
 20
8.38199900
 11
12.1919994
 21
-0.0000002
  0
LINE
  8
3
 10
47.2439995
 20
8.38199900
 11
47.2439995
 21
-0.0000002
  0
TEXT
  8
1
 7
SIMPLEX
 10
1.52400004
 20
9.14399910
 40
1.52400004
  1
CAP PLATES
 50
0.00000000
  0
TEXT
  8
1
 7
SIMPLEX
 10
1.52400004
 20
6.09599924
 40
1.52400004
  1
Col
 50
0.00000000
  0
TEXT
  8
1
 7
SIMPLEX
 10
1.52400004
 20
3.80999968
 40
1.52400004
  1
Id
 50
0.00000000
  0
TEXT
  8
1
 7
SIMPLEX
 10
13.7159987
 20
3.80999968
 40
1.52400004
  1
Qnt
 50
0.00000000
  0
TEXT
  8
1
 7
SIMPLEX
 10
21.3359985
 20
6.09599924
 40
1.52400004
  1
------Bolt------
 50
0.00000000
  0
TEXT
  8
1
 7
SIMPLEX
 10
21.3359985
 20
3.80999968
 40
1.52400004
  1
Type
 50
0.00000000
  0
TEXT
  8
1
 7
SIMPLEX
 10
30.4799977
 20
3.80999968
 40
1.52400004
  1
Dia
 50
0.00000000
  0
TEXT
  8
1
 7
SIMPLEX
 10
39.6239968
 20
3.80999968
 40
1.52400004
  1
Len
 50
0.00000000
  0
TEXT
  8
1
 7
SIMPLEX
 10
57.9119987
 20
6.09599924
 40
1.52400004
  1
Plate Size
 50
0.00000000
  0
TEXT
  8
1
 7
SIMPLEX
 10
50.2919960
 20
3.80999968
 40
1.52400004
  1
Width
 50
0.00000000
  0
TEXT
  8
1
 7
SIMPLEX
 10
59.4360008
 20
3.80999968
 40
1.52400004
  1
Thick
 50
0.00000000
  0
TEXT
  8
1
 7
SIMPLEX
 10
68.5800019
 20
3.80999968
 40
1.52400004
  1
Length
 50
0.00000000
  0
TEXT
  8
1
 7
SIMPLEX
 10
1.52400004
 20
0.76199984
 40
1.52400004
  1
 CL1-6
 50
0.00000000
  0
TEXT
  8
1
 7
SIMPLEX
 10
10.6679993
 20
0.76199984
 40
1.52400004
  1
   8
 50
0.00000000
  0
TEXT
  8
1
 7
SIMPLEX
 10
21.3359985
 20
0.76199984
 40
1.52400004
  1
Gr8.8
 50
0.00000000
  0
TEXT
  8
1
 7
SIMPLEX
 10
22.8599987
 20
0.76199984
 40
1.52400004
  1
        20
 50
0.00000000
  0
TEXT
  8
1
 7
SIMPLEX
 10
32.0039978
 20
0.76199984
 40
1.52400004
  1
        90
 50
0.00000000
  0
TEXT
  8
1
 7
SIMPLEX
 10
42.6719971
 20
0.76199984
 40
1.52400004
  1
       200
 50
0.00000000
  0
TEXT
  8
1
 7
SIMPLEX
 10
51.8159981
 20
0.76199984
 40
1.52400004
  1
        16
 50
0.00000000
  0
TEXT
  8
1
 7
SIMPLEX
 10
62.4840012
 20
0.76199984
 40
1.52400004
  1
       427
 50
0.00000000
  0
ENDBLK
  8
1
  0
BLOCK
  8
1
  2
RF1BLT1
 70
     0
 10
0.00000000
 20
30.4799996
  0
LINE
  8
3
 10
0.00000000
 20
30.4799996
 11
134.620010
 21
30.4799996
  0
LINE
  8
3
 10
0.00000000
 20
25.3999996
 11
134.620010
 21
25.3999996
  0
LINE
  8
3
 10
0.00000000
 20
16.5099983
 11
134.620010
 21
16.5099983
  0
LINE
  8
3
 10
0.00000000
 20
-0.0000015
 11
134.620010
 21
-0.0000015
  0
LINE
  8
3
 10
0.00000000
 20
0.00000000
 11
134.620010
 21
0.00000000
  0
LINE
  8
3
 10
0.00000000
 20
30.4799996
 11
0.00000000
 21
0.00000000
  0
LINE
  8
3
 10
134.620010
 20
0.00000000
 11
134.620010
 21
30.4799996
  0
LINE
  8
3
 10
20.3199997
 20
25.3999996
 11
20.3199997
 21
-0.0000015
  0
LINE
  8
3
 10
88.9000015
 20
25.3999996
 11
88.9000015
 21
-0.0000015
  0
TEXT
  8
1
 7
SIMPLEX
 10
2.53999996
 20
26.6700020
 40
2.53999996
  1
SPLICE PLATES & BOLTS
 50
0.00000000
  0
TEXT
  8
1
 7
SIMPLEX
 10
2.53999996
 20
21.5900002
 40
2.53999996
  1
Splice
 50
0.00000000
  0
TEXT
  8
1
 7
SIMPLEX
 10
2.53999996
 20
17.7799988
 40
2.53999996
  1
Mark
 50
0.00000000
  0
TEXT
  8
1
 7
SIMPLEX
 10
22.8600006
 20
21.5900002
 40
2.53999996
  1
Quan
 50
0.00000000
  0
TEXT
  8
1
 7
SIMPLEX
 10
21.5900002
 20
17.7799988
 40
2.53999996
  1
Top/Bot/Int
 50
0.00000000
  0
TEXT
  8
1
 7
SIMPLEX
 10
48.2599983
 20
17.7799988
 40
2.53999996
  1
Type
 50
0.00000000
  0
TEXT
  8
1
 7
SIMPLEX
 10
63.5000000
 20
17.7799988
 40
2.53999996
  1
Dia
 50
0.00000000
  0
TEXT
  8
1
 7
SIMPLEX
 10
78.7400055
 20
17.7799988
 40
2.53999996
  1
Len
 50
0.00000000
  0
TEXT
  8
1
 7
SIMPLEX
 10
48.2599983
 20
21.5900002
 40
2.53999996
  1
-----Bolt-----
 50
0.00000000
  0
TEXT
  8
1
 7
SIMPLEX
 10
91.4400025
 20
17.7799988
 40
2.53999996
  1
Wid
 50
0.00000000
  0
TEXT
  8
1
 7
SIMPLEX
 10
105.410004
 20
17.7799988
 40
2.53999996
  1
Thick
 50
0.00000000
  0
TEXT
  8
1
 7
SIMPLEX
 10
119.380005
 20
17.7799988
 40
2.53999996
  1
Length
 50
0.00000000
  0
TEXT
  8
1
 7
SIMPLEX
 10
99.0599976
 20
21.5900002
 40
2.53999996
  1
Plate Size
 50
0.00000000
  0
TEXT
  8
1
 7
SIMPLEX
 10
2.53999996
 20
12.6999989
 40
2.53999996
  1
SP1
 50
0.00000000
  0
TEXT
  8
1
 7
SIMPLEX
 10
22.8600006
 20
12.6999989
 40
2.53999996
  1
   4
 50
0.00000000
  0
TEXT
  8
1
 7
SIMPLEX
 10
31.7500000
 20
12.6999989
 40
2.53999996
  1
   4
 50
0.00000000
  0
TEXT
  8
1
 7
SIMPLEX
 10
40.6399994
 20
12.6999989
 40
2.53999996
  1
   0
 50
0.00000000
  0
TEXT
  8
1
 7
SIMPLEX
 10
48.2599983
 20
12.6999989
 40
2.53999996
  1
Gr8.8
 50
0.00000000
  0
TEXT
  8
1
 7
SIMPLEX
 10
62.2299957
 20
12.6999989
 40
2.53999996
  1
        20
 50
0.00000000
  0
TEXT
  8
1
 7
SIMPLEX
 10
76.1999970
 20
12.6999989
 40
2.53999996
  1
        90
 50
0.00000000
  0
TEXT
  8
1
 7
SIMPLEX
 10
91.4400025
 20
12.6999989
 40
2.53999996
  1
       200
 50
0.00000000
  0
TEXT
  8
1
 7
SIMPLEX
 10
105.410004
 20
12.6999989
 40
2.53999996
  1
        16
 50
0.00000000
  0
TEXT
  8
1
 7
SIMPLEX
 10
119.380005
 20
12.6999989
 40
2.53999996
  1
       600
 50
0.00000000
  0
TEXT
  8
1
 7
SIMPLEX
 10
2.53999996
 20
8.88999936
 40
2.53999996
  1
SP2
 50
0.00000000
  0
TEXT
  8
1
 7
SIMPLEX
 10
22.8600006
 20
8.88999936
 40
2.53999996
  1
   4
 50
0.00000000
  0
TEXT
  8
1
 7
SIMPLEX
 10
31.7500000
 20
8.88999936
 40
2.53999996
  1
   4
 50
0.00000000
  0
TEXT
  8
1
 7
SIMPLEX
 10
40.6399994
 20
8.88999936
 40
2.53999996
  1
   2
 50
0.00000000
  0
TEXT
  8
1
 7
SIMPLEX
 10
48.2599983
 20
8.88999936
 40
2.53999996
  1
Gr8.8
 50
0.00000000
  0
TEXT
  8
1
 7
SIMPLEX
 10
62.2299957
 20
8.88999936
 40
2.53999996
  1
        20
 50
0.00000000
  0
TEXT
  8
1
 7
SIMPLEX
 10
76.1999970
 20
8.88999936
 40
2.53999996
  1
        90
 50
0.00000000
  0
TEXT
  8
1
 7
SIMPLEX
 10
91.4400025
 20
8.88999936
 40
2.53999996
  1
       200
 50
0.00000000
  0
TEXT
  8
1
 7
SIMPLEX
 10
105.410004
 20
8.88999936
 40
2.53999996
  1
        16
 50
0.00000000
  0
TEXT
  8
1
 7
SIMPLEX
 10
119.380005
 20
8.88999936
 40
2.53999996
  1
       950
 50
0.00000000
  0
TEXT
  8
1
 7
SIMPLEX
 10
2.53999996
 20
5.07999897
 40
2.53999996
  1
SP3
 50
0.00000000
  0
TEXT
  8
1
 7
SIMPLEX
 10
22.8600006
 20
5.07999897
 40
2.53999996
  1
   4
 50
0.00000000
  0
TEXT
  8
1
 7
SIMPLEX
 10
31.7500000
 20
5.07999897
 40
2.53999996
  1
   4
 50
0.00000000
  0
TEXT
  8
1
 7
SIMPLEX
 10
40.6399994
 20
5.07999897
 40
2.53999996
  1
   2
 50
0.00000000
  0
TEXT
  8
1
 7
SIMPLEX
 10
48.2599983
 20
5.07999897
 40
2.53999996
  1
Gr8.8
 50
0.00000000
  0
TEXT
  8
1
 7
SIMPLEX
 10
62.2299957
 20
5.07999897
 40
2.53999996
  1
        20
 50
0.00000000
  0
TEXT
  8
1
 7
SIMPLEX
 10
76.1999970
 20
5.07999897
 40
2.53999996
  1
        90
 50
0.00000000
  0
TEXT
  8
1
 7
SIMPLEX
 10
91.4400025
 20
5.07999897
 40
2.53999996
  1
       200
 50
0.00000000
  0
TEXT
  8
1
 7
SIMPLEX
 10
105.410004
 20
5.07999897
 40
2.53999996
  1
        16
 50
0.00000000
  0
TEXT
  8
1
 7
SIMPLEX
 10
119.380005
 20
5.07999897
 40
2.53999996
  1
       900
 50
0.00000000
  0
TEXT
  8
1
 7
SIMPLEX
 10
2.53999996
 20
1.26999878
 40
2.53999996
  1
SP4
 50
0.00000000
  0
TEXT
  8
1
 7
SIMPLEX
 10
22.8600006
 20
1.26999878
 40
2.53999996
  1
   4
 50
0.00000000
  0
TEXT
  8
1
 7
SIMPLEX
 10
31.7500000
 20
1.26999878
 40
2.53999996
  1
   4
 50
0.00000000
  0
TEXT
  8
1
 7
SIMPLEX
 10
40.6399994
 20
1.26999878
 40
2.53999996
  1
   2
 50
0.00000000
  0
TEXT
  8
1
 7
SIMPLEX
 10
48.2599983
 20
1.26999878
 40
2.53999996
  1
Gr8.8
 50
0.00000000
  0
TEXT
  8
1
 7
SIMPLEX
 10
62.2299957
 20
1.26999878
 40
2.53999996
  1
        20
 50
0.00000000
  0
TEXT
  8
1
 7
SIMPLEX
 10
76.1999970
 20
1.26999878
 40
2.53999996
  1
        90
 50
0.00000000
  0
TEXT
  8
1
 7
SIMPLEX
 10
91.4400025
 20
1.26999878
 40
2.53999996
  1
       225
 50
0.00000000
  0
TEXT
  8
1
 7
SIMPLEX
 10
105.410004
 20
1.26999878
 40
2.53999996
  1
        16
 50
0.00000000
  0
TEXT
  8
1
 7
SIMPLEX
 10
119.380005
 20
1.26999878
 40
2.53999996
  1
       950
 50
0.00000000
  0
ENDBLK
  8
1
  0
BLOCK
  8
1
  2
RF1FBR
 70
     0
 10
0.00000000
 20
0.00000000
  0
INSERT
  8
0
  2
MARKER
 10
486.814606
 20
-954.53845
 41
0.80000000
 42
0.80000000
 43
0.80000000
 50
0.00000000
  0
TEXT
  8
14
 7
SIMPLEX
 10
900.447937
 20
-954.53845
 40
318.179474
  1
FLANGE BRACES: FBxx (1 or 2)
 50
0.00000000
  0
TEXT
  8
14
 7
SIMPLEX
 10
900.447937
 20
-1431.8076
 40
318.179474
  1
  xx=length(mm)
 50
0.00000000
  0
TEXT
  8
14
 7
SIMPLEX
 10
900.447937
 20
-1909.0770
 40
318.179474
  1
  (1) One Side; (2) Two Sides
 50
0.00000000
  0
TEXT
  8
14
 7
SIMPLEX
 10
900.447937
 20
-2545.4358
 40
318.179474
  1
A - L40X40X4
 50
0.00000000
  0
TEXT
  8
14
 7
SIMPLEX
 10
900.447937
 20
-3022.7051
 40
318.179474
  1
B - L50X50X5
 50
0.00000000
  0
ENDBLK
  8
1
  0
ENDSEC
  0
SECTION
  2
ENTITIES
  0
LINE
  8
22
 10
0.00000000
 20
0.00000000
 11
76527.0625
 21
0.00000000
  0
LINE
  8
22
 10
76527.0625
 20
0.00000000
 11
76527.0625
 21
54115.5664
  0
LINE
  8
22
 10
76527.0625
 20
54115.5664
 11
0.00000000
 21
54115.5664
  0
LINE
  8
22
 10
0.00000000
 20
54115.5664
 11
0.00000000
 21
0.00000000
  0
LINE
  8
0
 10
47370.2500
 20
0.00000000
 11
47370.2500
 21
4859.46826
  0
LINE
  8
0
 10
47370.2500
 20
4859.46826
 11
76527.0625
 21
4859.46826
  0
LINE
  8
0
 10
47370.2500
 20
0.00000000
 11
76527.0625
 21
0.00000000
  0
LINE
  8
0
 10
76527.0625
 20
0.00000000
 11
76527.0625
 21
4859.46826
  0
LINE
  8
0
 10
47370.2500
 20
1851.22607
 11
76527.0625
 21
1851.22607
  0
LINE
  8
0
 10
47370.2500
 20
2776.83911
 11
76527.0625
 21
2776.83911
  0
LINE
  8
0
 10
47370.2500
 20
3702.45215
 11
76527.0625
 21
3702.45215
  0
LINE
  8
0
 10
51535.5078
 20
0.00000000
 11
51535.5078
 21
3702.45215
  0
LINE
  8
0
 10
61948.6523
 20
0.00000000
 11
61948.6523
 21
3702.45215
  0
LINE
  8
0
 10
61948.6523
 20
925.613037
 11
76527.0625
 21
925.613037
  0
LINE
  8
0
 10
67039.5313
 20
2776.83911
 11
67039.5313
 21
1851.22607
  0
LINE
  8
0
 10
71667.5938
 20
2776.83911
 11
71667.5938
 21
1851.22607
  0
LINE
  8
0
 10
69353.5547
 20
1851.22607
 11
69353.5547
 21
925.613037
  0
TEXT
  8
14
 7
SIMPLEX
 10
47833.0547
 20
3008.24268
 40
462.806519
  1
PROJECT
 50
0.00000000
  0
TEXT
  8
14
 7
SIMPLEX
 10
47833.0547
 20
2082.62939
 40
462.806519
  1
ID
 50
0.00000000
  0
TEXT
  8
14
 7
SIMPLEX
 10
47833.0547
 20
1157.01636
 40
462.806519
  1
PROJECT
 50
0.00000000
  0
TEXT
  8
14
 7
SIMPLEX
 10
47833.0547
 20
231.403259
 40
462.806519
  1
ADDRESS
 50
0.00000000
  0
TEXT
  8
14
 7
SIMPLEX
 10
51998.3125
 20
3008.24268
 40
462.806519
  1
Proposed Warehouse
 50
0.00000000
  0
TEXT
  8
14
 7
SIMPLEX
 10
51998.3125
 20
2082.62939
 40
462.806519
  1
C08-033
 50
0.00000000
  0
TEXT
  8
14
 7
SIMPLEX
 10
51998.3125
 20
1157.01636
 40
462.806519
  1
Proposed Warehouse
 50
0.00000000
  0
TEXT
  8
14
 7
SIMPLEX
 10
51998.3125
 20
231.403259
 40
462.806519
  1
 
 50
0.00000000
  0
TEXT
  8
14
 7
SIMPLEX
 10
53386.7383
 20
3933.85547
 40
694.209778
  1
Sivoko Steel Structures Ltd.
 50
0.00000000
  0
TEXT
  8
14
 7
SIMPLEX
 10
62411.4609
 20
3008.24268
 40
462.806519
  1
RIGID FRAME ELEVATION
 50
0.00000000
  0
TEXT
  8
14
 7
SIMPLEX
 10
62411.4609
 20
2082.62939
 40
462.806519
  1
DESIGN:
 50
0.00000000
  0
TEXT
  8
14
 7
SIMPLEX
 10
62411.4609
 20
1157.01636
 40
462.806519
  1
DATE:
 50
0.00000000
  0
TEXT
  8
14
 7
SIMPLEX
 10
64771.7773
 20
1157.01636
 40
462.806519
  1
23/APR/2026
 50
0.00000000
  0
TEXT
  8
14
 7
SIMPLEX
 10
67502.3359
 20
2082.62939
 40
462.806519
  1
DRAFT:
 50
0.00000000
  0
TEXT
  8
14
 7
SIMPLEX
 10
72130.3984
 20
2082.62939
 40
462.806519
  1
CHECK:
 50
0.00000000
  0
TEXT
  8
14
 7
SIMPLEX
 10
69584.9609
 20
1157.01636
 40
462.806519
  1
SHEET
 50
0.00000000
  0
TEXT
  8
14
 7
SIMPLEX
 10
73750.2188
 20
1157.01636
 40
462.806519
  1
OF
 50
0.00000000
  0
TEXT
  8
14
 7
SIMPLEX
 10
71899.0000
 20
1157.01636
 40
462.806519
  1
 
 50
0.00000000
999
FIELD:@PAGE_ID
  0
TEXT
  8
14
 7
SIMPLEX
 10
74675.8281
 20
1157.01636
 40
462.806519
  1
 
 50
0.00000000
999
FIELD:@PAGE_TOTAL
  0
INSERT
  8
0
  2
EPBLK1
 10
0.00000000
 20
0.00000000
 41
2.00000000
 42
2.00000000
 43
2.00000000
 50
0.00000000
  0
INSERT
  8
0
  2
EPBLK2
 10
4555.18213
 20
0.00000000
 41
2.00000000
 42
2.00000000
 43
2.00000000
 50
0.00000000
  0
INSERT
  8
0
  2
EPBLK3
 10
9110.36426
 20
0.00000000
 41
2.00000000
 42
2.00000000
 43
2.00000000
 50
0.00000000
  0
INSERT
  8
0
  2
EPBLK4
 10
13665.5469
 20
0.00000000
 41
2.00000000
 42
2.00000000
 43
2.00000000
 50
0.00000000
  0
INSERT
  8
0
  2
EPBLK5
 10
18220.7285
 20
0.00000000
 41
2.00000000
 42
2.00000000
 43
2.00000000
 50
0.00000000
  0
INSERT
  8
0
  2
EPBLK6
 10
22775.9121
 20
0.00000000
 41
2.00000000
 42
2.00000000
 43
2.00000000
 50
0.00000000
  0
INSERT
  8
0
  2
FRAME1
 10
8002.16211
 20
22529.4121
 41
1.00000000
 42
1.00000000
 43
1.00000000
 50
0.00000000
  0
INSERT
  8
0
  2
RF1TBL
 10
76527.0625
 20
54115.5664
 41
1.00000000
 42
1.00000000
 43
1.00000000
 50
0.00000000
  0
INSERT
  8
0
  2
RF1CPL
 10
0.00000000
 20
49979.2344
 41
208.779190
 42
208.779190
 43
208.779190
 50
0.00000000
  0
INSERT
  8
0
  2
RF1BLT1
 10
0.00000000
 20
54115.5664
 41
125.267517
 42
125.267517
 43
125.267517
 50
0.00000000
  0
INSERT
  8
0
  2
RF1FBR
 10
0.00000000
 20
47274.7070
 41
1.00000000
 42
1.00000000
 43
1.00000000
 50
0.00000000
  0
ENDSEC
  0
EOF
