999
SOURCE:MBS   PROGRAM:RFDWG   CELL:RFDWG   CLASS:ELEVATION   MODE:---
  0
SECTION
  2
HEADER
 9
$ACADVER
 1
AC1009
  9
$EXTMIN
 10
0.00000000
 20
0.00000000
  9
$EXTMAX
 10
28389.8633
 20
20075.6895
  9
$LIMMIN
 10
0.00000000
 20
0.00000000
  9
$LIMMAX
 10
28389.8633
 20
20075.6895
  9
$FILLMODE
 70
     1
  9
$HANDLING
 70
     0
  0
ENDSEC
  0
SECTION
  2
TABLES
  0
TABLE
  2
LTYPE
 70
 4
  0
LTYPE
  2
CONTIN
 70
   64
  3
SOLID LINE
  72
   65
 73
    0
 40
 0.000
  0
LTYPE
  2
CENTER
 70
   64
  3
____ _ ____ _ _
  72
   65
 73
    4
 40
1716.9
 49
1073.1
 49
-214.6
 49
214.61
 49
-214.6
  0
LTYPE
  2
DASHED
 70
   64
  3
__ __ __ __ __
  72
   65
 73
    2
 40
321.92
 49
214.61
 49
-107.3
  0
LTYPE
  2
CONTINUOUS
 70
   64
  3
SOLID LINE
  72
   65
 73
    0
 40
 0.000
  0
ENDTAB
  0
TABLE
  2
LAYER
 70
    30
  0
LAYER
  2
0
 70
     0
 62
     7
  6
CONTIN
  0
LAYER
  2
1
 70
     0
 62
     7
  6
CONTIN
  0
LAYER
  2
2
 70
     0
 62
     6
  6
CONTIN
  0
LAYER
  2
3
 70
     0
 62
     7
  6
CONTIN
  0
LAYER
  2
4
 70
     0
 62
     7
  6
CENTER
  0
LAYER
  2
5
 70
     0
 62
     5
  6
DASHED
  0
LAYER
  2
6
 70
     0
 62
     6
  6
CONTIN
  0
LAYER
  2
7
 70
     0
 62
     7
  6
CONTIN
  0
LAYER
  2
8
 70
     0
 62
     8
  6
DASHED
  0
LAYER
  2
9
 70
     0
 62
     9
  6
DASHED
  0
LAYER
  2
10
 70
     0
 62
    10
  6
CONTIN
  0
LAYER
  2
11
 70
     0
 62
     7
  6
CONTIN
  0
LAYER
  2
12
 70
     0
 62
     6
  6
CONTIN
  0
LAYER
  2
13
 70
     0
 62
     1
  6
CONTIN
  0
LAYER
  2
14
 70
     0
 62
     7
  6
CONTIN
  0
LAYER
  2
15
 70
     0
 62
     7
  6
CONTIN
  0
LAYER
  2
16
 70
     0
 62
     7
  6
CONTIN
  0
LAYER
  2
17
 70
     0
 62
     5
  6
CONTIN
  0
LAYER
  2
18
 70
     0
 62
     7
  6
CONTIN
  0
LAYER
  2
19
 70
     0
 62
     7
  6
CONTIN
  0
LAYER
  2
20
 70
     0
 62
     7
  6
CONTIN
  0
LAYER
  2
21
 70
     0
 62
     7
  6
CONTIN
  0
LAYER
  2
22
 70
     0
 62
     7
  6
CONTIN
  0
LAYER
  2
23
 70
     0
 62
     7
  6
DASHED
  0
LAYER
  2
24
 70
     0
 62
     7
  6
CONTIN
  0
LAYER
  2
25
 70
     0
 62
     7
  6
CONTIN
  0
LAYER
  2
26
 70
     0
 62
     7
  6
CONTIN
  0
LAYER
  2
27
 70
     0
 62
     1
  6
CENTER
  0
LAYER
  2
28
 70
     0
 62
     7
  6
CONTIN
  0
LAYER
  2
29
 70
     0
 62
     7
  6
CONTIN
  0
ENDTAB
  0
TABLE
  2
STYLE
 70
  0
  0
STYLE
  2
SIMPLEX
 70
  0
 40
  0.000
 41
  1.000
 42
  1.000
 50
  0.000
 71
  0
  3
SIMPLEX
  0
STYLE
  2
ROMANS
 70
  0
 40
  0.000
 41
  1.000
 42
  1.000
 50
  0.000
 71
  0
  3
ROMANS
  0
STYLE
  2
OPEN
 70
  0
 40
  0.000
 41
  1.000
 42
  1.000
 50
  0.000
 71
  0
  3
SIMPLEX
  0
STYLE
  2
ARIAL
 70
  0
 40
  0.000
 41
  1.000
 42
  1.000
 50
  0.000
 71
  0
  3
ARIAL.TTF
  0
STYLE
  2
VERDANAB
 70
  0
 40
  0.000
 41
  1.000
 42
  1.000
 50
  0.000
 71
  0
  3
VERDANAB.TTF
  0
ENDTAB
  0
ENDSEC
  0
SECTION
  2
BLOCKS
  0
BLOCK
  8
0
  2
ARROWPF
 70
     0
 10
0.00000000
 20
0.00000000
  0
LINE
  8
0
 10
0.00000000
 20
0.00000000
 11
-122.75911
 21
20.4598522
  0
LINE
  8
0
 10
-122.75911
 20
20.4598522
 11
-122.75911
 21
-20.459852
  0
LINE
  8
0
 10
-122.75911
 20
-20.459852
 11
0.00000000
 21
0.00000000
  0
ENDBLK
  8
0
  0
BLOCK
  8
0
  2
ARROWF
 70
     0
 10
0.00000000
 20
0.00000000
  0
LINE
  8
0
 10
0.00000000
 20
0.00000000
 11
-184.13866
 21
30.6897755
  0
LINE
  8
0
 10
-184.13866
 20
30.6897755
 11
-184.13866
 21
-30.689777
  0
LINE
  8
0
 10
-184.13866
 20
-30.689777
 11
0.00000000
 21
0.00000000
  0
ENDBLK
  8
0
  0
BLOCK
  8
0
  2
DIAMOND
 70
     0
 10
0.00000000
 20
0.00000000
  0
LINE
  8
0
 10
0.00000000
 20
0.00000000
 11
12.6999998
 21
12.6999998
  0
LINE
  8
0
 10
12.6999998
 20
12.6999998
 11
0.00000000
 21
25.3999996
  0
LINE
  8
0
 10
0.00000000
 20
25.3999996
 11
-12.700000
 21
12.6999998
  0
LINE
  8
0
 10
-12.700000
 20
12.6999998
 11
0.00000000
 21
0.00000000
  0
ENDBLK
  8
0
  0
BLOCK
  8
3
  2
CIRCLE
 70
     0
 10
0.00000000
 20
0.00000000
  0
CIRCLE
  8
1
 10
     0.00
 20
     0.00
 40
    25.40
  0
ENDBLK
  8
3
  0
BLOCK
  8
0
  2
WSECTN
 70
     0
 10
0.00000000
 20
0.00000000
  0
LINE
  8
0
 10
0.00000000
 20
0.00000000
 11
0.00000000
 21
25.3999996
  0
LINE
  8
0
 10
-76.199997
 20
0.00000000
 11
76.1999970
 21
0.00000000
  0
LINE
  8
0
 10
-76.199997
 20
25.3999996
 11
76.1999970
 21
25.3999996
  0
ENDBLK
  8
0
  0
BLOCK
  8
0
  2
WCOL
 70
     0
 10
0.00000000
 20
0.00000000
  0
LINE
  8
0
 10
-10.160000
 20
0.00000000
 11
10.1599999
 21
0.00000000
  0
LINE
  8
0
 10
0.00000000
 20
0.00000000
 11
0.00000000
 21
-25.400000
  0
LINE
  8
0
 10
-10.160000
 20
-25.400000
 11
10.1599999
 21
-25.400000
  0
ENDBLK
  8
0
  0
BLOCK
  8
0
  2
JSECTN
 70
     0
 10
0.00000000
 20
0.00000000
  0
LINE
  8
0
 10
0.00000000
 20
0.00000000
 11
0.00000000
 21
-25.400000
  0
LINE
  8
0
 10
-2.5400000
 20
0.00000000
 11
0.00000000
 21
0.00000000
  0
LINE
  8
0
 10
0.00000000
 20
0.00000000
 11
0.00000000
 21
-25.400000
  0
LINE
  8
0
 10
2.53999996
 20
0.00000000
 11
0.00000000
 21
0.00000000
  0
LINE
  8
0
 10
0.00000000
 20
0.00000000
 11
0.00000000
 21
-25.400000
  0
LINE
  8
0
 10
-2.5400000
 20
-25.400000
 11
0.00000000
 21
-25.400000
  0
LINE
  8
0
 10
0.00000000
 20
-25.400000
 11
0.00000000
 21
0.00000000
  0
LINE
  8
0
 10
2.53999996
 20
-25.400000
 11
0.00000000
 21
-25.400000
  0
LINE
  8
0
 10
0.00000000
 20
-25.400000
 11
0.00000000
 21
0.00000000
  0
ENDBLK
  8
0
  0
BLOCK
  8
0
  2
ZCOL
 70
     0
 10
0.00000000
 20
0.00000000
  0
LINE
  8
0
 10
10.1599999
 20
-2.5400000
 11
10.1599999
 21
0.00000000
  0
LINE
  8
0
 10
10.1599999
 20
0.00000000
 11
0.00000000
 21
0.00000000
  0
LINE
  8
0
 10
0.00000000
 20
0.00000000
 11
0.00000000
 21
-25.400000
  0
LINE
  8
0
 10
0.00000000
 20
-25.400000
 11
-10.160000
 21
-25.400000
  0
LINE
  8
0
 10
-10.160000
 20
-25.400000
 11
-10.160000
 21
-22.859999
  0
ENDBLK
  8
0
  0
BLOCK
  8
0
  2
FINFLR
 70
     0
 10
0.00000000
 20
0.00000000
  0
LINE
  8
0
 10
0.00000000
 20
0.00000000
 11
12.6999998
 21
25.3999996
  0
LINE
  8
0
 10
12.6999998
 20
25.3999996
 11
-12.700000
 21
25.3999996
  0
LINE
  8
0
 10
-12.700000
 20
25.3999996
 11
0.00000000
 21
0.00000000
  0
LINE
  8
0
 10
0.00000000
 20
0.00000000
 11
0.00000000
 21
25.3999996
  0
SOLID
  8
0
 10
0.00000000
 20
0.00000000
 11
0.00000000
 21
25.3999996
 12
-12.700000
 22
25.3999996
 13
-12.700000
 23
25.3999996
  0
ENDBLK
  8
0
  0
BLOCK
  8
0
  2
CCOL
 70
     0
 10
0.00000000
 20
0.00000000
  0
LINE
  8
0
 10
10.1599999
 20
-2.5400000
 11
10.1599999
 21
0.00000000
  0
LINE
  8
0
 10
10.1599999
 20
0.00000000
 11
0.00000000
 21
0.00000000
  0
LINE
  8
0
 10
0.00000000
 20
0.00000000
 11
0.00000000
 21
-25.400000
  0
LINE
  8
0
 10
0.00000000
 20
-25.400000
 11
10.1599999
 21
-25.400000
  0
LINE
  8
0
 10
10.1599999
 20
-25.400000
 11
10.1599999
 21
-22.859999
  0
ENDBLK
  8
0
  0
BLOCK
  8
0
  2
UCOL
 70
     0
 10
0.00000000
 20
0.00000000
  0
LINE
  8
0
 10
10.1599999
 20
0.00000000
 11
0.00000000
 21
0.00000000
  0
LINE
  8
0
 10
0.00000000
 20
0.00000000
 11
0.00000000
 21
-25.400000
  0
LINE
  8
0
 10
0.00000000
 20
-25.400000
 11
10.1599999
 21
-25.400000
  0
ENDBLK
  8
0
  0
BLOCK
  8
0
  2
DCOL
 70
     0
 10
0.00000000
 20
0.00000000
  0
INSERT
  8
0
  2
CCOL
 10
0.00000000
 20
0.00000000
 41
1.00000000
 42
1.00000000
 43
1.00000000
 50
0.00000000
  0
INSERT
  8
0
  2
CCOL
 10
0.00000000
 20
0.00000000
 41
-1.0000000
 42
1.00000000
 43
1.00000000
 50
0.00000000
  0
ENDBLK
  8
0
  0
BLOCK
  8
0
  2
MARKER
 70
     0
 10
0.00000000
 20
0.00000000
  0
LINE
  8
0
 10
0.00000000
 20
0.00000000
 11
188.860168
 21
188.860168
  0
LINE
  8
0
 10
188.860168
 20
188.860168
 11
-188.86015
 21
188.860168
  0
LINE
  8
0
 10
-188.86015
 20
188.860168
 11
0.00000000
 21
0.00000000
  0
ENDBLK
  8
0
  0
BLOCK
  8
0
  2
FLGCLP
 70
     0
 10
0.00000000
 20
0.00000000
  0
LINE
  8
0
 10
0.00000000
 20
0.00000000
 11
25.3999996
 21
25.3999996
  0
LINE
  8
0
 10
25.3999996
 20
25.3999996
 11
-25.400000
 21
25.3999996
  0
LINE
  8
0
 10
-25.400000
 20
25.3999996
 11
0.00000000
 21
0.00000000
  0
LINE
  8
0
 10
-8.4666672
 20
8.46666716
 11
8.46666716
 21
8.46666716
  0
LINE
  8
0
 10
-8.4666672
 20
8.46666716
 11
-8.4666672
 21
25.3999996
  0
LINE
  8
0
 10
8.46666716
 20
8.46666716
 11
8.46666716
 21
25.3999996
  0
ENDBLK
  8
0
  0
BLOCK
  8
0
  2
CUTFRM
 70
     0
 10
0.00000000
 20
0.00000000
  0
LINE
  8
0
 10
0.00000000
 20
0.00000000
 11
0.00000000
 21
-25.400000
  0
LINE
  8
0
 10
0.00000000
 20
-25.400000
 11
-179.41716
 21
-25.400000
  0
ENDBLK
  8
0
  0
BLOCK
  8
0
  2
VSECTN
 70
     0
 10
0.00000000
 20
0.00000000
  0
LINE
  8
0
 10
-12.700000
 20
25.3999996
 11
12.6999998
 21
25.3999996
  0
LINE
  8
0
 10
-12.700000
 20
25.3999996
 11
0.00000000
 21
0.00000000
  0
LINE
  8
0
 10
0.00000000
 20
0.00000000
 11
12.6999998
 21
25.3999996
  0
ENDBLK
  8
0
  0
BLOCK
  8
0
  2
ASECT
 70
     0
 10
0.00000000
 20
0.00000000
  0
LINE
  8
0
 10
0.00000000
 20
0.00000000
 11
25.3999996
 21
0.00000000
  0
LINE
  8
0
 10
0.00000000
 20
0.00000000
 11
0.00000000
 21
-25.400000
  0
ENDBLK
  8
0
  0
BLOCK
  8
0
  2
FRAME2
 70
     0
 10
0.00000000
 20
0.00000000
  0
LINE
  8
5
 10
0.00000000
 20
3000.00000
 11
0.00000000
 21
9600.00000
  0
LINE
  8
5
 10
0.00000000
 20
9600.00000
 11
6100.00000
 21
10210.0000
  0
LINE
  8
5
 10
6100.00000
 20
10210.0000
 11
12200.0000
 21
9600.00000
  0
LINE
  8
5
 10
12200.0000
 20
9600.00000
 11
12200.0000
 21
3000.00000
  0
LINE
  8
3
 10
-1569.9001
 20
10928.0605
 11
-1185.5398
 21
11149.9717
  0
LINE
  8
3
 10
-1520.8329
 20
10956.3896
 11
-1234.6071
 21
10956.3896
  0
LINE
  8
3
 10
-1234.6071
 20
11121.6426
 11
-1234.6071
 21
10956.3896
  0
TEXT
  8
3
 7
SIMPLEX
 10
-1175.5883
 20
10956.3896
 40
118.037613
  1
10.0
 50
0.00000000
  0
TEXT
  8
3
 7
SIMPLEX
 10
-1436.7388
 20
10779.3330
 40
118.037613
  1
100
 50
0.00000000
  0
LINE
  8
3
 10
13722.6846
 20
10928.0605
 11
13338.3232
 21
11149.9717
  0
LINE
  8
3
 10
13673.6172
 20
10956.3896
 11
13387.3916
 21
10956.3896
  0
LINE
  8
3
 10
13387.3916
 20
11121.6426
 11
13387.3916
 21
10956.3896
  0
TEXT
  8
3
 7
SIMPLEX
 10
12797.2041
 20
10956.3896
 40
118.037613
  1
  10.0
 50
0.00000000
  0
TEXT
  8
3
 7
SIMPLEX
 10
13471.4863
 20
10779.3330
 40
118.037613
  1
100
 50
0.00000000
  0
LINE
  8
1
 10
641.000000
 20
6980.00000
 11
1200.00000
 21
6980.00000
  0
LINE
  8
1
 10
641.000000
 20
6974.99951
 11
1200.00000
 21
6974.99951
  0
LINE
  8
1
 10
1200.00000
 20
6980.00000
 11
1200.00000
 21
6820.00000
  0
LINE
  8
1
 10
1200.00000
 20
6820.00000
 11
641.000000
 21
6820.00000
  0
LINE
  8
1
 10
1200.00000
 20
6824.99951
 11
641.000000
 21
6824.99951
  0
LINE
  8
1
 10
1200.00000
 20
6820.00000
 11
1200.00000
 21
6720.00000
  0
LINE
  8
1
 10
1200.00000
 20
6720.00000
 11
641.000000
 21
6397.26074
  0
LINE
  8
1
 10
11559.0000
 20
6980.00000
 11
11000.0000
 21
6980.00000
  0
LINE
  8
1
 10
11559.0000
 20
6974.99951
 11
11000.0000
 21
6974.99951
  0
LINE
  8
1
 10
11000.0000
 20
6980.00000
 11
11000.0000
 21
6820.00000
  0
LINE
  8
1
 10
11000.0000
 20
6820.00000
 11
11559.0000
 21
6820.00000
  0
LINE
  8
1
 10
11000.0000
 20
6824.99951
 11
11559.0000
 21
6824.99951
  0
LINE
  8
1
 10
11000.0000
 20
6820.00000
 11
11000.0000
 21
6720.00000
  0
LINE
  8
1
 10
11000.0000
 20
6720.00000
 11
11559.0000
 21
6397.26074
  0
LINE
  8
1
 10
235.000000
 20
16.0000000
 11
635.000000
 21
16.0000000
  0
LINE
  8
1
 10
635.000000
 20
16.0000000
 11
635.000000
 21
9033.28223
  0
LINE
  8
1
 10
635.000000
 20
9033.28223
 11
635.000000
 21
9033.28223
  0
LINE
  8
1
 10
635.000000
 20
9033.28223
 11
235.000000
 21
9033.28223
  0
LINE
  8
1
 10
235.000000
 20
16.0000000
 11
235.000000
 21
9033.28223
  0
LINE
  8
1
 10
335.000000
 20
6825.99951
 11
635.000000
 21
6825.99951
  0
LINE
  8
1
 10
335.000000
 20
6820.00000
 11
635.000000
 21
6820.00000
  0
LINE
  8
1
 10
335.000000
 20
6825.99951
 11
335.000000
 21
6820.00000
  0
LINE
  8
1
 10
635.000000
 20
6825.99951
 11
635.000000
 21
6820.00000
  0
LINE
  8
1
 10
335.000000
 20
6980.00000
 11
635.000000
 21
6980.00000
  0
LINE
  8
1
 10
335.000000
 20
6972.00000
 11
635.000000
 21
6972.00000
  0
LINE
  8
1
 10
335.000000
 20
6980.00000
 11
335.000000
 21
6972.00000
  0
LINE
  8
1
 10
635.000000
 20
6980.00000
 11
635.000000
 21
6972.00000
  0
LINE
  8
1
 10
235.000000
 20
7250.00000
 11
535.000000
 21
7250.00000
  0
LINE
  8
1
 10
235.000000
 20
7243.99951
 11
535.000000
 21
7243.99951
  0
LINE
  8
1
 10
235.000000
 20
7250.00000
 11
235.000000
 21
7243.99951
  0
LINE
  8
1
 10
535.000000
 20
7250.00000
 11
535.000000
 21
7243.99951
  0
LINE
  8
1
 10
235.000000
 20
16.0000000
 11
235.000000
 21
9033.28223
  0
LINE
  8
1
 10
235.000000
 20
9033.28223
 11
229.999985
 21
9033.28223
  0
LINE
  8
1
 10
229.999985
 20
9033.28223
 11
229.999985
 21
16.0000000
  0
LINE
  8
1
 10
235.000000
 20
16.0000000
 11
229.999985
 21
16.0000000
  0
LINE
  8
1
 10
635.000000
 20
16.0000000
 11
635.000000
 21
9033.28223
  0
LINE
  8
1
 10
635.000000
 20
9033.28223
 11
641.000000
 21
9033.28223
  0
LINE
  8
1
 10
641.000000
 20
9033.28223
 11
641.000000
 21
16.0000000
  0
LINE
  8
1
 10
635.000000
 20
16.0000000
 11
641.000000
 21
16.0000000
  0
LINE
  8
1
 10
157.500000
 20
-28.700001
 11
157.500000
 21
28.7000008
  0
LINE
  8
1
 10
307.500000
 20
-28.700001
 11
307.500000
 21
28.7000008
  0
LINE
  8
1
 10
563.000000
 20
-28.700001
 11
563.000000
 21
28.7000008
  0
LINE
  8
1
 10
713.000000
 20
-28.700001
 11
713.000000
 21
28.7000008
  0
LINE
  8
1
 10
82.4999924
 20
0.00000000
 11
788.000000
 21
0.00000000
  0
LINE
  8
1
 10
788.000000
 20
0.00000000
 11
788.000000
 21
16.0000000
  0
LINE
  8
1
 10
788.000000
 20
16.0000000
 11
82.4999924
 21
16.0000000
  0
LINE
  8
1
 10
82.4999924
 20
0.00000000
 11
82.4999924
 21
16.0000000
  0
LINE
  8
1
 10
185.000000
 20
9020.58301
 11
185.000000
 21
9077.98242
  0
LINE
  8
1
 10
285.000000
 20
9020.58301
 11
285.000000
 21
9077.98242
  0
LINE
  8
1
 10
585.000000
 20
9020.58301
 11
585.000000
 21
9077.98242
  0
LINE
  8
1
 10
685.000000
 20
9020.58301
 11
685.000000
 21
9077.98242
  0
LINE
  8
1
 10
135.000000
 20
9049.28223
 11
735.000000
 21
9049.28223
  0
LINE
  8
1
 10
735.000000
 20
9049.28223
 11
735.000000
 21
9033.28223
  0
LINE
  8
1
 10
735.000000
 20
9033.28223
 11
135.000000
 21
9033.28223
  0
LINE
  8
1
 10
135.000000
 20
9049.28223
 11
135.000000
 21
9033.28223
  0
LINE
  8
1
 10
229.999985
 20
16.0000000
 11
229.999985
 21
213.500000
  0
LINE
  8
1
 10
229.999985
 20
213.500000
 11
82.4999924
 21
66.0000000
  0
LINE
  8
1
 10
82.4999924
 20
66.0000000
 11
82.4999924
 21
16.0000000
  0
LINE
  8
1
 10
229.999985
 20
16.0000000
 11
82.4999924
 21
16.0000000
  0
LINE
  8
1
 10
641.000000
 20
16.0000000
 11
641.000000
 21
213.000000
  0
LINE
  8
1
 10
641.000000
 20
213.000000
 11
788.000000
 21
66.0000000
  0
LINE
  8
1
 10
788.000000
 20
66.0000000
 11
788.000000
 21
16.0000000
  0
LINE
  8
1
 10
641.000000
 20
16.0000000
 11
788.000000
 21
16.0000000
  0
LINE
  8
1
 10
229.999985
 20
9033.28223
 11
229.999985
 21
8913.28320
  0
LINE
  8
1
 10
229.999985
 20
8913.28320
 11
135.000000
 21
9033.28223
  0
LINE
  8
1
 10
135.000000
 20
9033.28223
 11
135.000000
 21
9033.28223
  0
LINE
  8
1
 10
229.999985
 20
9033.28223
 11
135.000000
 21
9033.28223
  0
LINE
  8
1
 10
641.000000
 20
9033.28223
 11
641.000000
 21
8913.28320
  0
LINE
  8
1
 10
641.000000
 20
8913.28320
 11
735.000000
 21
9033.28223
  0
LINE
  8
1
 10
735.000000
 20
9033.28223
 11
735.000000
 21
9033.28223
  0
LINE
  8
1
 10
641.000000
 20
9033.28223
 11
735.000000
 21
9033.28223
  0
LINE
  8
1
 10
6084.00000
 20
10002.3770
 11
6084.00000
 21
9700.89258
  0
LINE
  8
1
 10
6084.00000
 20
9700.89258
 11
738.000000
 21
9065.28223
  0
LINE
  8
1
 10
738.000000
 20
9065.28223
 11
235.000000
 21
9065.28223
  0
LINE
  8
1
 10
235.000000
 20
9065.28223
 11
235.000000
 21
9417.47754
  0
LINE
  8
1
 10
6084.00000
 20
10002.3770
 11
235.000000
 21
9417.47754
  0
LINE
  8
1
 10
605.163025
 20
9423.79395
 11
640.984985
 21
9065.58105
  0
LINE
  8
1
 10
599.193054
 20
9423.19629
 11
635.015015
 21
9064.98340
  0
LINE
  8
1
 10
605.163025
 20
9423.79395
 11
599.193054
 21
9423.19629
  0
LINE
  8
1
 10
640.984985
 20
9065.58105
 11
635.015015
 21
9064.98340
  0
LINE
  8
1
 10
6084.00000
 20
10002.3770
 11
10.4980002
 21
9395.02734
  0
LINE
  8
1
 10
10.4980002
 20
9395.02734
 11
10.0000000
 21
9400.00195
  0
LINE
  8
1
 10
10.0000000
 20
9400.00195
 11
6083.50195
 21
10007.3506
  0
LINE
  8
1
 10
6084.00000
 20
10002.3770
 11
6083.50195
 21
10007.3506
  0
LINE
  8
1
 10
235.000000
 20
9065.28223
 11
235.000000
 21
9416.97656
  0
LINE
  8
1
 10
235.000000
 20
9416.97656
 11
229.999985
 21
9416.97656
  0
LINE
  8
1
 10
229.999985
 20
9416.97656
 11
229.999985
 21
9065.28223
  0
LINE
  8
1
 10
235.000000
 20
9065.28223
 11
229.999985
 21
9065.28223
  0
LINE
  8
1
 10
229.999985
 20
9416.97656
 11
0.00000000
 21
9393.97754
  0
LINE
  8
1
 10
0.00000000
 20
9393.97754
 11
229.999985
 21
9301.97656
  0
LINE
  8
1
 10
6083.41016
 20
9700.82227
 11
738.000000
 21
9065.28223
  0
LINE
  8
1
 10
738.000000
 20
9065.28223
 11
738.590027
 21
9060.31738
  0
LINE
  8
1
 10
738.590027
 20
9060.31738
 11
6084.00000
 21
9695.85645
  0
LINE
  8
1
 10
6083.41016
 20
9700.82227
 11
6084.00000
 21
9695.85645
  0
LINE
  8
1
 10
6071.29980
 20
10053.9766
 11
6128.70020
 21
10053.9766
  0
LINE
  8
1
 10
6071.29980
 20
9953.97559
 11
6128.70020
 21
9953.97559
  0
LINE
  8
1
 10
6071.29980
 20
9753.97656
 11
6128.70020
 21
9753.97656
  0
LINE
  8
1
 10
6071.29980
 20
9653.97754
 11
6128.70020
 21
9653.97754
  0
LINE
  8
1
 10
6100.00000
 20
10103.9766
 11
6100.00000
 21
9602.79492
  0
LINE
  8
1
 10
6100.00000
 20
9602.79492
 11
6084.00000
 21
9602.79492
  0
LINE
  8
1
 10
6084.00000
 20
9602.79492
 11
6084.00000
 21
10103.9766
  0
LINE
  8
1
 10
6100.00000
 20
10103.9766
 11
6084.00000
 21
10103.9766
  0
LINE
  8
1
 10
185.000000
 20
9020.58301
 11
185.000000
 21
9077.98242
  0
LINE
  8
1
 10
285.000000
 20
9020.58301
 11
285.000000
 21
9077.98242
  0
LINE
  8
1
 10
585.000000
 20
9020.58301
 11
585.000000
 21
9077.98242
  0
LINE
  8
1
 10
685.000000
 20
9020.58301
 11
685.000000
 21
9077.98242
  0
LINE
  8
1
 10
135.000000
 20
9049.28223
 11
735.000000
 21
9049.28223
  0
LINE
  8
1
 10
735.000000
 20
9049.28223
 11
735.000000
 21
9065.28223
  0
LINE
  8
1
 10
735.000000
 20
9065.28223
 11
135.000000
 21
9065.28223
  0
LINE
  8
1
 10
135.000000
 20
9049.28223
 11
135.000000
 21
9065.28223
  0
LINE
  8
1
 10
6084.00000
 20
10007.4014
 11
5964.00000
 21
9995.40137
  0
LINE
  8
1
 10
5964.00000
 20
9995.40137
 11
6084.00000
 21
10104.0283
  0
LINE
  8
1
 10
6084.00000
 20
10104.0283
 11
6084.00000
 21
10104.0283
  0
LINE
  8
1
 10
6084.00000
 20
10007.4014
 11
6084.00000
 21
10104.0283
  0
LINE
  8
1
 10
6084.00000
 20
9695.85645
 11
5964.00000
 21
9681.58984
  0
LINE
  8
1
 10
5964.00000
 20
9681.58984
 11
6084.00000
 21
9602.79492
  0
LINE
  8
1
 10
6084.00000
 20
9602.79492
 11
6084.00000
 21
9602.79492
  0
LINE
  8
1
 10
6084.00000
 20
9695.85645
 11
6084.00000
 21
9602.79492
  0
LINE
  8
1
 10
229.999985
 20
9065.28223
 11
229.999985
 21
9185.28223
  0
LINE
  8
1
 10
229.999985
 20
9185.28223
 11
135.000000
 21
9065.28223
  0
LINE
  8
1
 10
135.000000
 20
9065.28223
 11
135.000000
 21
9065.28223
  0
LINE
  8
1
 10
229.999985
 20
9065.28223
 11
135.000000
 21
9065.28223
  0
LINE
  8
1
 10
6116.00000
 20
10002.3770
 11
6116.00000
 21
9700.89258
  0
LINE
  8
1
 10
6116.00000
 20
9700.89258
 11
11461.9990
 21
9065.28320
  0
LINE
  8
1
 10
11461.9990
 20
9065.28320
 11
11965.0000
 21
9065.28320
  0
LINE
  8
1
 10
11965.0000
 20
9065.28320
 11
11965.0000
 21
9417.47754
  0
LINE
  8
1
 10
6116.00000
 20
10002.3770
 11
11965.0000
 21
9417.47754
  0
LINE
  8
1
 10
11600.8066
 20
9423.19629
 11
11564.9834
 21
9064.98438
  0
LINE
  8
1
 10
11594.8359
 20
9423.79395
 11
11559.0146
 21
9065.58105
  0
LINE
  8
1
 10
11600.8066
 20
9423.19629
 11
11594.8359
 21
9423.79395
  0
LINE
  8
1
 10
11564.9834
 20
9064.98438
 11
11559.0146
 21
9065.58105
  0
LINE
  8
1
 10
6116.00000
 20
10002.3770
 11
12189.5020
 21
9395.02734
  0
LINE
  8
1
 10
12189.5020
 20
9395.02734
 11
12190.0000
 21
9400.00195
  0
LINE
  8
1
 10
12190.0000
 20
9400.00195
 11
6116.49805
 21
10007.3506
  0
LINE
  8
1
 10
6116.00000
 20
10002.3770
 11
6116.49805
 21
10007.3506
  0
LINE
  8
1
 10
11965.0000
 20
9416.97656
 11
11965.0000
 21
9065.28320
  0
LINE
  8
1
 10
11965.0000
 20
9065.28320
 11
11969.9990
 21
9065.28320
  0
LINE
  8
1
 10
11969.9990
 20
9065.28320
 11
11969.9990
 21
9416.97656
  0
LINE
  8
1
 10
11965.0000
 20
9416.97656
 11
11969.9990
 21
9416.97656
  0
LINE
  8
1
 10
11969.9990
 20
9416.97656
 11
12199.9990
 21
9393.97754
  0
LINE
  8
1
 10
12199.9990
 20
9393.97754
 11
11969.9990
 21
9301.97656
  0
LINE
  8
1
 10
6116.58984
 20
9700.82227
 11
11461.9990
 21
9065.28320
  0
LINE
  8
1
 10
11461.9990
 20
9065.28320
 11
11461.4092
 21
9060.31836
  0
LINE
  8
1
 10
11461.4092
 20
9060.31836
 11
6116.00000
 21
9695.85645
  0
LINE
  8
1
 10
6116.58984
 20
9700.82227
 11
6116.00000
 21
9695.85645
  0
LINE
  8
1
 10
6071.29980
 20
10053.9766
 11
6128.70020
 21
10053.9766
  0
LINE
  8
1
 10
6071.29980
 20
9953.97559
 11
6128.70020
 21
9953.97559
  0
LINE
  8
1
 10
6071.29980
 20
9753.97656
 11
6128.70020
 21
9753.97656
  0
LINE
  8
1
 10
6071.29980
 20
9653.97754
 11
6128.70020
 21
9653.97754
  0
LINE
  8
1
 10
6100.00000
 20
10103.9766
 11
6100.00000
 21
9602.79492
  0
LINE
  8
1
 10
6100.00000
 20
9602.79492
 11
6116.00000
 21
9602.79492
  0
LINE
  8
1
 10
6116.00000
 20
9602.79492
 11
6116.00000
 21
10103.9766
  0
LINE
  8
1
 10
6100.00000
 20
10103.9766
 11
6116.00000
 21
10103.9766
  0
LINE
  8
1
 10
12015.0000
 20
9077.98340
 11
12015.0000
 21
9020.58301
  0
LINE
  8
1
 10
11915.0000
 20
9077.98340
 11
11915.0000
 21
9020.58301
  0
LINE
  8
1
 10
11615.0000
 20
9077.98340
 11
11615.0000
 21
9020.58301
  0
LINE
  8
1
 10
11515.0000
 20
9077.98340
 11
11515.0000
 21
9020.58301
  0
LINE
  8
1
 10
12065.0000
 20
9049.28320
 11
11464.9980
 21
9049.28320
  0
LINE
  8
1
 10
11464.9980
 20
9049.28320
 11
11464.9980
 21
9065.28320
  0
LINE
  8
1
 10
11464.9980
 20
9065.28320
 11
12065.0000
 21
9065.28320
  0
LINE
  8
1
 10
12065.0000
 20
9049.28320
 11
12065.0000
 21
9065.28320
  0
LINE
  8
1
 10
6116.00000
 20
10007.4014
 11
6236.00000
 21
9995.40137
  0
LINE
  8
1
 10
6236.00000
 20
9995.40137
 11
6116.00000
 21
10104.0283
  0
LINE
  8
1
 10
6116.00000
 20
10104.0283
 11
6116.00000
 21
10104.0283
  0
LINE
  8
1
 10
6116.00000
 20
10007.4014
 11
6116.00000
 21
10104.0283
  0
LINE
  8
1
 10
6116.00000
 20
9695.85645
 11
6236.00000
 21
9681.58984
  0
LINE
  8
1
 10
6236.00000
 20
9681.58984
 11
6116.00000
 21
9602.79492
  0
LINE
  8
1
 10
6116.00000
 20
9602.79492
 11
6116.00000
 21
9602.79492
  0
LINE
  8
1
 10
6116.00000
 20
9695.85645
 11
6116.00000
 21
9602.79492
  0
LINE
  8
1
 10
11969.9990
 20
9065.28320
 11
11969.9990
 21
9185.28223
  0
LINE
  8
1
 10
11969.9990
 20
9185.28223
 11
12065.0000
 21
9065.28320
  0
LINE
  8
1
 10
12065.0000
 20
9065.28320
 11
12065.0000
 21
9065.28320
  0
LINE
  8
1
 10
11969.9990
 20
9065.28320
 11
12065.0000
 21
9065.28320
  0
LINE
  8
1
 10
11965.0000
 20
16.0000000
 11
11564.9990
 21
16.0000000
  0
LINE
  8
1
 10
11564.9990
 20
16.0000000
 11
11564.9990
 21
9033.28320
  0
LINE
  8
1
 10
11564.9990
 20
9033.28320
 11
11564.9990
 21
9033.28320
  0
LINE
  8
1
 10
11564.9990
 20
9033.28320
 11
11965.0000
 21
9033.28320
  0
LINE
  8
1
 10
11965.0000
 20
16.0000000
 11
11965.0000
 21
9033.28320
  0
LINE
  8
1
 10
11865.0000
 20
6825.99951
 11
11564.9990
 21
6825.99951
  0
LINE
  8
1
 10
11865.0000
 20
6820.00000
 11
11564.9990
 21
6820.00000
  0
LINE
  8
1
 10
11865.0000
 20
6825.99951
 11
11865.0000
 21
6820.00000
  0
LINE
  8
1
 10
11564.9990
 20
6825.99951
 11
11564.9990
 21
6820.00000
  0
LINE
  8
1
 10
11865.0000
 20
6980.00000
 11
11564.9990
 21
6980.00000
  0
LINE
  8
1
 10
11865.0000
 20
6972.00000
 11
11564.9990
 21
6972.00000
  0
LINE
  8
1
 10
11865.0000
 20
6980.00000
 11
11865.0000
 21
6972.00000
  0
LINE
  8
1
 10
11564.9990
 20
6980.00000
 11
11564.9990
 21
6972.00000
  0
LINE
  8
1
 10
11965.0000
 20
7250.00000
 11
11664.9990
 21
7250.00000
  0
LINE
  8
1
 10
11965.0000
 20
7243.99951
 11
11664.9990
 21
7243.99951
  0
LINE
  8
1
 10
11965.0000
 20
7250.00000
 11
11965.0000
 21
7243.99951
  0
LINE
  8
1
 10
11664.9990
 20
7250.00000
 11
11664.9990
 21
7243.99951
  0
LINE
  8
1
 10
11965.0000
 20
16.0000000
 11
11965.0000
 21
9033.28320
  0
LINE
  8
1
 10
11965.0000
 20
9033.28320
 11
11969.9990
 21
9033.28320
  0
LINE
  8
1
 10
11969.9990
 20
9033.28320
 11
11969.9990
 21
16.0000000
  0
LINE
  8
1
 10
11965.0000
 20
16.0000000
 11
11969.9990
 21
16.0000000
  0
LINE
  8
1
 10
11564.9990
 20
16.0000000
 11
11564.9990
 21
9033.28320
  0
LINE
  8
1
 10
11564.9990
 20
9033.28320
 11
11559.0000
 21
9033.28320
  0
LINE
  8
1
 10
11559.0000
 20
9033.28320
 11
11559.0000
 21
16.0000000
  0
LINE
  8
1
 10
11564.9990
 20
16.0000000
 11
11559.0000
 21
16.0000000
  0
LINE
  8
1
 10
12042.5000
 20
28.7000008
 11
12042.5000
 21
-28.700001
  0
LINE
  8
1
 10
11892.4990
 20
28.7000008
 11
11892.4990
 21
-28.700001
  0
LINE
  8
1
 10
11637.0000
 20
28.7000008
 11
11637.0000
 21
-28.700001
  0
LINE
  8
1
 10
11486.9990
 20
28.7000008
 11
11486.9990
 21
-28.700001
  0
LINE
  8
1
 10
12117.5000
 20
0.00000000
 11
11411.9990
 21
0.00000000
  0
LINE
  8
1
 10
11411.9990
 20
0.00000000
 11
11411.9990
 21
16.0000000
  0
LINE
  8
1
 10
11411.9990
 20
16.0000000
 11
12117.5000
 21
16.0000000
  0
LINE
  8
1
 10
12117.5000
 20
0.00000000
 11
12117.5000
 21
16.0000000
  0
LINE
  8
1
 10
12015.0000
 20
9077.98340
 11
12015.0000
 21
9020.58301
  0
LINE
  8
1
 10
11915.0000
 20
9077.98340
 11
11915.0000
 21
9020.58301
  0
LINE
  8
1
 10
11615.0000
 20
9077.98340
 11
11615.0000
 21
9020.58301
  0
LINE
  8
1
 10
11515.0000
 20
9077.98340
 11
11515.0000
 21
9020.58301
  0
LINE
  8
1
 10
12065.0000
 20
9049.28320
 11
11464.9980
 21
9049.28320
  0
LINE
  8
1
 10
11464.9980
 20
9049.28320
 11
11464.9980
 21
9033.28320
  0
LINE
  8
1
 10
11464.9980
 20
9033.28320
 11
12065.0000
 21
9033.28320
  0
LINE
  8
1
 10
12065.0000
 20
9049.28320
 11
12065.0000
 21
9033.28320
  0
LINE
  8
1
 10
11969.9990
 20
16.0000000
 11
11969.9990
 21
213.500000
  0
LINE
  8
1
 10
11969.9990
 20
213.500000
 11
12117.5000
 21
66.0000000
  0
LINE
  8
1
 10
12117.5000
 20
66.0000000
 11
12117.5000
 21
16.0000000
  0
LINE
  8
1
 10
11969.9990
 20
16.0000000
 11
12117.5000
 21
16.0000000
  0
LINE
  8
1
 10
11559.0000
 20
16.0000000
 11
11559.0000
 21
213.000000
  0
LINE
  8
1
 10
11559.0000
 20
213.000000
 11
11411.9990
 21
66.0000000
  0
LINE
  8
1
 10
11411.9990
 20
66.0000000
 11
11411.9990
 21
16.0000000
  0
LINE
  8
1
 10
11559.0000
 20
16.0000000
 11
11411.9990
 21
16.0000000
  0
LINE
  8
1
 10
11969.9990
 20
9033.28320
 11
11969.9990
 21
8913.28418
  0
LINE
  8
1
 10
11969.9990
 20
8913.28418
 11
12065.0000
 21
9033.28320
  0
LINE
  8
1
 10
12065.0000
 20
9033.28320
 11
12065.0000
 21
9033.28320
  0
LINE
  8
1
 10
11969.9990
 20
9033.28320
 11
12065.0000
 21
9033.28320
  0
LINE
  8
1
 10
11559.0000
 20
9033.28320
 11
11559.0000
 21
8913.28418
  0
LINE
  8
1
 10
11559.0000
 20
8913.28418
 11
11464.9980
 21
9033.28320
  0
LINE
  8
1
 10
11464.9980
 20
9033.28320
 11
11464.9980
 21
9033.28320
  0
LINE
  8
1
 10
11559.0000
 20
9033.28320
 11
11464.9980
 21
9033.28320
  0
LINE
  8
1
 10
641.000000
 20
6980.00000
 11
1200.00000
 21
6980.00000
  0
LINE
  8
1
 10
641.000000
 20
6974.99951
 11
1200.00000
 21
6974.99951
  0
LINE
  8
1
 10
1200.00000
 20
6980.00000
 11
1200.00000
 21
6820.00000
  0
LINE
  8
1
 10
1200.00000
 20
6820.00000
 11
641.000000
 21
6820.00000
  0
LINE
  8
1
 10
1200.00000
 20
6824.99951
 11
641.000000
 21
6824.99951
  0
LINE
  8
1
 10
11559.0000
 20
6980.00000
 11
11000.0000
 21
6980.00000
  0
LINE
  8
1
 10
11559.0000
 20
6974.99951
 11
11000.0000
 21
6974.99951
  0
LINE
  8
1
 10
11000.0000
 20
6980.00000
 11
11000.0000
 21
6820.00000
  0
LINE
  8
1
 10
11000.0000
 20
6820.00000
 11
11559.0000
 21
6820.00000
  0
LINE
  8
1
 10
11000.0000
 20
6824.99951
 11
11559.0000
 21
6824.99951
  0
LINE
  8
1
 10
335.000000
 20
6825.99951
 11
635.000000
 21
6825.99951
  0
LINE
  8
1
 10
335.000000
 20
6820.00000
 11
635.000000
 21
6820.00000
  0
LINE
  8
1
 10
335.000000
 20
6825.99951
 11
335.000000
 21
6820.00000
  0
LINE
  8
1
 10
635.000000
 20
6825.99951
 11
635.000000
 21
6820.00000
  0
LINE
  8
1
 10
335.000000
 20
6980.00000
 11
635.000000
 21
6980.00000
  0
LINE
  8
1
 10
335.000000
 20
6972.00000
 11
635.000000
 21
6972.00000
  0
LINE
  8
1
 10
335.000000
 20
6980.00000
 11
335.000000
 21
6972.00000
  0
LINE
  8
1
 10
635.000000
 20
6980.00000
 11
635.000000
 21
6972.00000
  0
LINE
  8
1
 10
235.000000
 20
7250.00000
 11
535.000000
 21
7250.00000
  0
LINE
  8
1
 10
235.000000
 20
7243.99951
 11
535.000000
 21
7243.99951
  0
LINE
  8
1
 10
235.000000
 20
7250.00000
 11
235.000000
 21
7243.99951
  0
LINE
  8
1
 10
535.000000
 20
7250.00000
 11
535.000000
 21
7243.99951
  0
LINE
  8
1
 10
605.163025
 20
9423.79395
 11
640.984985
 21
9065.58105
  0
LINE
  8
1
 10
599.193054
 20
9423.19629
 11
635.015015
 21
9064.98340
  0
LINE
  8
1
 10
605.163025
 20
9423.79395
 11
599.193054
 21
9423.19629
  0
LINE
  8
1
 10
640.984985
 20
9065.58105
 11
635.015015
 21
9064.98340
  0
LINE
  8
1
 10
11600.8066
 20
9423.19629
 11
11564.9834
 21
9064.98438
  0
LINE
  8
1
 10
11594.8359
 20
9423.79395
 11
11559.0146
 21
9065.58105
  0
LINE
  8
1
 10
11600.8066
 20
9423.19629
 11
11594.8359
 21
9423.79395
  0
LINE
  8
1
 10
11564.9834
 20
9064.98438
 11
11559.0146
 21
9065.58105
  0
LINE
  8
1
 10
11865.0000
 20
6825.99951
 11
11564.9990
 21
6825.99951
  0
LINE
  8
1
 10
11865.0000
 20
6820.00000
 11
11564.9990
 21
6820.00000
  0
LINE
  8
1
 10
11865.0000
 20
6825.99951
 11
11865.0000
 21
6820.00000
  0
LINE
  8
1
 10
11564.9990
 20
6825.99951
 11
11564.9990
 21
6820.00000
  0
LINE
  8
1
 10
11865.0000
 20
6980.00000
 11
11564.9990
 21
6980.00000
  0
LINE
  8
1
 10
11865.0000
 20
6972.00000
 11
11564.9990
 21
6972.00000
  0
LINE
  8
1
 10
11865.0000
 20
6980.00000
 11
11865.0000
 21
6972.00000
  0
LINE
  8
1
 10
11564.9990
 20
6980.00000
 11
11564.9990
 21
6972.00000
  0
LINE
  8
1
 10
11965.0000
 20
7250.00000
 11
11664.9990
 21
7250.00000
  0
LINE
  8
1
 10
11965.0000
 20
7243.99951
 11
11664.9990
 21
7243.99951
  0
LINE
  8
1
 10
11965.0000
 20
7250.00000
 11
11965.0000
 21
7243.99951
  0
LINE
  8
1
 10
11664.9990
 20
7250.00000
 11
11664.9990
 21
7243.99951
  0
TEXT
  8
3
 7
SIMPLEX
 10
940.409241
 20
8671.41504
 40
118.037613
  1
SP1
 50
90.0000000
  0
TEXT
  8
3
 7
SIMPLEX
 10
6277.05615
 20
9218.79102
 40
118.037613
  1
SP2
 50
90.0000000
  0
TEXT
  8
3
 7
SIMPLEX
 10
11407.1416
 20
8671.41602
 40
118.037613
  1
SP1
 50
90.0000000
  0
TEXT
  8
3
 7
SIMPLEX
 10
291.043579
 20
-214.03758
 40
118.037613
  1
BP1
 50
0.00000000
  0
TEXT
  8
3
 7
SIMPLEX
 10
11554.8438
 20
-214.03758
 40
118.037613
  1
BP1
 50
0.00000000
  0
INSERT
  8
1
  2
WSECTN
 10
1000.00000
 20
7400.00000
 41
1.00000000
 42
16.5354328
 43
16.5354328
 50
180.000000
  0
INSERT
  8
1
  2
WSECTN
 10
11200.0000
 20
7400.00000
 41
1.00000000
 42
16.5354328
 43
16.5354328
 50
180.000000
  0
TEXT
  8
11
 7
SIMPLEX
 10
5155.69922
 20
7788.73779
 40
118.037613
  1
10200 Crane Span
 50
0.00000000
  0
LINE
  8
2
 10
1000.00000
 20
7513.31641
 11
1000.00000
 21
7800.89941
  0
LINE
  8
2
 10
11200.0000
 20
7513.31641
 11
11200.0000
 21
7800.89941
  0
LINE
  8
2
 10
1000.00000
 20
7749.39209
 11
11200.0000
 21
7749.39209
  0
INSERT
  8
2
  2
ARROWF
 10
1000.00000
 20
7749.39209
 41
1.00000000
 42
1.00000000
 43
1.00000000
 50
180.000000
  0
INSERT
  8
2
  2
ARROWF
 10
11200.0000
 20
7749.39209
 41
1.00000000
 42
1.00000000
 43
1.00000000
 50
0.00000000
  0
LINE
  8
12
 10
10957.9932
 20
0.00007597
 11
10736.9404
 21
0.00014536
  0
LINE
  8
12
 10
10957.9932
 20
7400.00000
 11
10736.9404
 21
7400.00000
  0
LINE
  8
2
 10
10839.9551
 20
0.00011302
 11
10839.9551
 21
7400.00000
  0
INSERT
  8
2
  2
ARROWF
 10
10839.9551
 20
0.00011302
 41
1.00000000
 42
1.00000000
 43
1.00000000
 50
270.000000
  0
INSERT
  8
2
  2
ARROWF
 10
10839.9551
 20
7400.00000
 41
1.00000000
 42
1.00000000
 43
1.00000000
 50
89.9999847
  0
TEXT
  8
11
 7
SIMPLEX
 10
10810.4463
 20
3493.43433
 40
118.037613
  1
7400
 50
89.9999847
  0
INSERT
  8
10
  2
ZCOL
 10
1468.37134
 20
9564.98535
 41
-8.0000000
 42
-6.3740158
 43
-6.3740158
 50
5.71059272
  0
INSERT
  8
10
  2
ZCOL
 10
2918.73755
 20
9710.02148
 41
-8.0000000
 42
-6.3740158
 43
-6.3740158
 50
5.71059272
  0
INSERT
  8
10
  2
ZCOL
 10
4369.10352
 20
9855.05762
 41
-8.0000000
 42
-6.3740158
 43
-6.3740158
 50
5.71059272
  0
INSERT
  8
10
  2
ZCOL
 10
5819.46924
 20
10000.0947
 41
-8.0000000
 42
-6.3740158
 43
-6.3740158
 50
5.71059272
  0
LINE
  8
1
 10
1483.09973
 20
9676.52344
 11
1537.05554
 21
9136.96191
  0
INSERT
  8
3
  2
MARKER
 10
1445.24097
 20
9796.28906
 41
1.00000000
 42
1.00000000
 43
1.00000000
 50
5.71059272
  0
TEXT
  8
3
 7
SIMPLEX
 10
1012.54865
 20
9971.29199
 40
118.037613
  1
FB528A(2)
 50
5.71059272
  0
LINE
  8
1
 10
4383.83203
 20
9966.59570
 11
4433.01465
 21
9474.76758
  0
INSERT
  8
3
  2
MARKER
 10
4345.97314
 20
10086.3613
 41
1.00000000
 42
1.00000000
 43
1.00000000
 50
5.71059272
  0
TEXT
  8
3
 7
SIMPLEX
 10
3678.37695
 20
10237.8750
 40
118.037613
  1
FB488A(2)
 50
5.71059272
  0
INSERT
  8
10
  2
ZCOL
 10
6380.50635
 20
10000.0977
 41
8.00000000
 42
-6.3740158
 43
-6.3740158
 50
-5.7105928
  0
INSERT
  8
10
  2
ZCOL
 10
7830.87256
 20
9855.06055
 41
8.00000000
 42
-6.3740158
 43
-6.3740158
 50
-5.7105928
  0
INSERT
  8
10
  2
ZCOL
 10
9281.23926
 20
9710.02344
 41
8.00000000
 42
-6.3740158
 43
-6.3740158
 50
-5.7105928
  0
INSERT
  8
10
  2
ZCOL
 10
10731.6055
 20
9564.98730
 41
8.00000000
 42
-6.3740158
 43
-6.3740158
 50
-5.7105928
  0
LINE
  8
1
 10
7816.14355
 20
9966.59863
 11
7766.96045
 21
9474.77051
  0
INSERT
  8
3
  2
MARKER
 10
7854.00244
 20
10086.3643
 41
1.00000000
 42
1.00000000
 43
1.00000000
 50
-5.7105928
  0
TEXT
  8
3
 7
SIMPLEX
 10
7464.53271
 20
10343.5840
 40
118.037613
  1
FB488A(2)
 50
-5.7105928
  0
LINE
  8
1
 10
10716.8770
 20
9676.52539
 11
10662.9199
 21
9136.96582
  0
INSERT
  8
3
  2
MARKER
 10
10754.7354
 20
9796.29102
 41
1.00000000
 42
1.00000000
 43
1.00000000
 50
-5.7105928
  0
TEXT
  8
3
 7
SIMPLEX
 10
10130.3623
 20
10077.0010
 40
118.037613
  1
FB528A(2)
 50
-5.7105928
  0
INSERT
  8
10
  2
ZCOL
 10
180.950974
 20
3080.00000
 41
8.00000000
 42
-6.3740158
 43
-6.3740158
 50
89.9999847
  0
INSERT
  8
10
  2
ZCOL
 10
180.951447
 20
4580.00000
 41
8.00000000
 42
-6.3740158
 43
-6.3740158
 50
89.9999847
  0
INSERT
  8
10
  2
ZCOL
 10
180.951935
 20
6180.00000
 41
8.00000000
 42
-6.3740158
 43
-6.3740158
 50
89.9999847
  0
INSERT
  8
10
  2
ZCOL
 10
180.952377
 20
7580.00000
 41
8.00000000
 42
-6.3740158
 43
-6.3740158
 50
89.9999847
  0
INSERT
  8
10
  2
ZCOL
 10
180.952744
 20
8680.00000
 41
8.00000000
 42
-6.3740158
 43
-6.3740158
 50
89.9999847
  0
LINE
  8
10
 10
19.0524941
 20
8020.47559
 11
19.0524368
 21
7839.52490
  0
LINE
  8
10
 10
19.0524941
 20
8020.47559
 11
200.002487
 21
8020.47559
  0
LINE
  8
10
 10
19.0524368
 20
7839.52490
 11
200.002426
 21
7839.52490
  0
LINE
  8
10
 10
200.002487
 20
8020.47559
 11
200.002426
 21
7839.52490
  0
TEXT
  8
3
 7
SIMPLEX
 10
-51.507351
 20
7776.88818
 40
118.037613
  1
Strut
 50
89.9999847
  0
LINE
  8
1
 10
80.4309769
 20
3054.24634
 11
668.100952
 21
3054.24609
  0
INSERT
  8
3
  2
MARKER
 10
-51.506351
 20
3080.00000
 41
1.00000000
 42
1.00000000
 43
1.00000000
 50
89.9999847
  0
TEXT
  8
3
 7
SIMPLEX
 10
-268.69568
 20
2666.86841
 40
118.037613
  1
FB568A(2)
 50
89.9999847
  0
LINE
  8
1
 10
80.4319458
 20
6154.24658
 11
668.101929
 21
6154.24561
  0
INSERT
  8
3
  2
MARKER
 10
-51.505383
 20
6180.00000
 41
1.00000000
 42
1.00000000
 43
1.00000000
 50
89.9999847
  0
TEXT
  8
3
 7
SIMPLEX
 10
-268.69479
 20
5530.79297
 40
118.037613
  1
FB568A(2)
 50
89.9999847
  0
INSERT
  8
10
  2
ZCOL
 10
12019.0488
 20
3080.00000
 41
-8.0000000
 42
-6.3740158
 43
-6.3740158
 50
-89.999985
  0
INSERT
  8
10
  2
ZCOL
 10
12019.0488
 20
4580.00000
 41
-8.0000000
 42
-6.3740158
 43
-6.3740158
 50
-89.999985
  0
INSERT
  8
10
  2
ZCOL
 10
12019.0479
 20
6180.00000
 41
-8.0000000
 42
-6.3740158
 43
-6.3740158
 50
-89.999985
  0
INSERT
  8
10
  2
ZCOL
 10
12019.0479
 20
7580.00000
 41
-8.0000000
 42
-6.3740158
 43
-6.3740158
 50
-89.999985
  0
INSERT
  8
10
  2
ZCOL
 10
12019.0469
 20
8680.00000
 41
-8.0000000
 42
-6.3740158
 43
-6.3740158
 50
-89.999985
  0
LINE
  8
10
 10
12180.9482
 20
7839.52490
 11
12180.9482
 21
8020.47559
  0
LINE
  8
10
 10
12180.9482
 20
7839.52490
 11
11999.9980
 21
7839.52490
  0
LINE
  8
10
 10
12180.9482
 20
8020.47559
 11
11999.9980
 21
8020.47559
  0
LINE
  8
10
 10
11999.9980
 20
7839.52490
 11
11999.9980
 21
8020.47559
  0
TEXT
  8
3
 7
SIMPLEX
 10
12369.5459
 20
7691.97803
 40
118.037613
  1
Strut
 50
90.0000153
  0
LINE
  8
1
 10
12119.5723
 20
3054.24536
 11
11531.9023
 21
3054.24536
  0
INSERT
  8
3
  2
MARKER
 10
12251.5059
 20
3080.00000
 41
1.00000000
 42
1.00000000
 43
1.00000000
 50
-89.999985
  0
TEXT
  8
3
 7
SIMPLEX
 10
12586.7334
 20
2666.86865
 40
118.037613
  1
FB568A(2)
 50
90.0000153
  0
LINE
  8
1
 10
12119.5713
 20
6154.24658
 11
11531.9014
 21
6154.24658
  0
INSERT
  8
3
  2
MARKER
 10
12251.5049
 20
6180.00000
 41
1.00000000
 42
1.00000000
 43
1.00000000
 50
-89.999985
  0
TEXT
  8
3
 7
SIMPLEX
 10
12586.7314
 20
5530.79297
 40
118.037613
  1
FB568A(2)
 50
90.0000153
  0
TEXT
  8
3
 7
SIMPLEX
 10
863.584412
 20
2924.02612
 40
118.037613
  1
A
 50
89.9999847
  0
CIRCLE
  8
3
 10
804.565613
 20
2971.24097
 40
82.6263275
  0
TEXT
  8
3
 7
SIMPLEX
 10
863.584473
 20
3160.10132
 40
118.037613
  1
 CL2-1
 50
89.9999847
  0
TEXT
  8
3
 7
SIMPLEX
 10
3073.81836
 20
9119.41309
 40
118.037613
  1
 RF2-2
 50
6.65330936
  0
TEXT
  8
3
 7
SIMPLEX
 10
8434.45020
 20
9200.10156
 40
118.037613
  1
 RF2-2
 50
-6.6533094
  0
TEXT
  8
3
 7
SIMPLEX
 10
11454.4561
 20
2894.51685
 40
118.037613
  1
B
 50
89.9998703
  0
CIRCLE
  8
3
 10
11395.4375
 20
2941.73218
 40
82.6263275
  0
TEXT
  8
3
 7
SIMPLEX
 10
11454.4570
 20
3130.59229
 40
118.037613
  1
 CL2-3
 50
89.9998703
  0
INSERT
  8
10
  2
ZCOL
 10
127.819229
 20
9420.67480
 41
8.00000000
 42
-6.3740077
 43
-6.3740077
 50
5.71059272
  0
INSERT
  8
10
  2
ZCOL
 10
12072.1807
 20
9420.67480
 41
-8.0000000
 42
-6.3740091
 43
-6.3740091
 50
-5.7105928
  0
LINE
  8
2
 10
230.000015
 20
0.00000000
 11
1208.97522
 21
0.00000000
  0
LINE
  8
2
 10
230.000015
 20
-56.658054
 11
286.658051
 21
0.00000000
  0
LINE
  8
2
 10
286.658051
 20
-56.658054
 11
343.316101
 21
0.00000000
  0
LINE
  8
2
 10
343.316101
 20
-56.658054
 11
399.974152
 21
0.00000000
  0
LINE
  8
2
 10
399.974152
 20
-56.658054
 11
456.632202
 21
0.00000000
  0
LINE
  8
2
 10
456.632202
 20
-56.658054
 11
513.290283
 21
0.00000000
  0
LINE
  8
2
 10
513.290283
 20
-56.658054
 11
569.948364
 21
0.00000000
  0
LINE
  8
2
 10
569.948364
 20
-56.658054
 11
626.606384
 21
0.00000000
  0
LINE
  8
2
 10
626.606384
 20
-56.658054
 11
683.264465
 21
0.00000000
  0
LINE
  8
2
 10
683.264465
 20
-56.658054
 11
739.922546
 21
0.00000000
  0
LINE
  8
2
 10
739.922546
 20
-56.658054
 11
796.580627
 21
0.00000000
  0
LINE
  8
2
 10
796.580627
 20
-56.658054
 11
853.238709
 21
0.00000000
  0
LINE
  8
2
 10
853.238709
 20
-56.658054
 11
909.896790
 21
0.00000000
  0
LINE
  8
2
 10
909.896790
 20
-56.658054
 11
966.554871
 21
0.00000000
  0
LINE
  8
2
 10
966.554871
 20
-56.658054
 11
1023.21289
 21
0.00000000
  0
LINE
  8
2
 10
1023.21289
 20
-56.658054
 11
1079.87097
 21
0.00000000
  0
LINE
  8
2
 10
1079.87097
 20
-56.658054
 11
1136.52905
 21
0.00000000
  0
LINE
  8
2
 10
1136.52905
 20
-56.658054
 11
1193.18713
 21
0.00000000
  0
LINE
  8
2
 10
10991.0254
 20
0.00000000
 11
11970.0000
 21
0.00000000
  0
LINE
  8
2
 10
10991.0254
 20
-56.658054
 11
11047.6826
 21
0.00000000
  0
LINE
  8
2
 10
11047.6826
 20
-56.658054
 11
11104.3408
 21
0.00000000
  0
LINE
  8
2
 10
11104.3408
 20
-56.658054
 11
11160.9980
 21
0.00000000
  0
LINE
  8
2
 10
11160.9980
 20
-56.658054
 11
11217.6563
 21
0.00000000
  0
LINE
  8
2
 10
11217.6563
 20
-56.658054
 11
11274.3145
 21
0.00000000
  0
LINE
  8
2
 10
11274.3145
 20
-56.658054
 11
11330.9717
 21
0.00000000
  0
LINE
  8
2
 10
11330.9717
 20
-56.658054
 11
11387.6299
 21
0.00000000
  0
LINE
  8
2
 10
11387.6299
 20
-56.658054
 11
11444.2871
 21
0.00000000
  0
LINE
  8
2
 10
11444.2871
 20
-56.658054
 11
11500.9453
 21
0.00000000
  0
LINE
  8
2
 10
11500.9453
 20
-56.658054
 11
11557.6025
 21
0.00000000
  0
LINE
  8
2
 10
11557.6025
 20
-56.658054
 11
11614.2607
 21
0.00000000
  0
LINE
  8
2
 10
11614.2607
 20
-56.658054
 11
11670.9180
 21
0.00000000
  0
LINE
  8
2
 10
11670.9180
 20
-56.658054
 11
11727.5762
 21
0.00000000
  0
LINE
  8
2
 10
11727.5762
 20
-56.658054
 11
11784.2344
 21
0.00000000
  0
LINE
  8
2
 10
11784.2344
 20
-56.658054
 11
11840.8916
 21
0.00000000
  0
LINE
  8
2
 10
11840.8916
 20
-56.658054
 11
11897.5498
 21
0.00000000
  0
LINE
  8
2
 10
11897.5498
 20
-56.658054
 11
11954.2070
 21
0.00000000
  0
LINE
  8
2
 10
0.00000000
 20
0.00000000
 11
12200.0000
 21
0.00000000
  0
LINE
  8
12
 10
1375.79797
 20
0.00000000
 11
1753.51819
 21
0.00000000
  0
LINE
  8
12
 10
1375.79797
 20
9060.29980
 11
1753.51819
 21
9060.29980
  0
LINE
  8
2
 10
1650.50366
 20
0.00000000
 11
1650.50366
 21
9060.29980
  0
INSERT
  8
2
  2
ARROWF
 10
1650.50366
 20
9060.29980
 41
1.00000000
 42
1.00000000
 43
1.00000000
 50
90.0000000
  0
INSERT
  8
2
  2
ARROWF
 10
1650.50366
 20
0.00000000
 41
1.00000000
 42
1.00000000
 43
1.00000000
 50
-90.000000
  0
TEXT
  8
11
 7
SIMPLEX
 10
1620.99426
 20
4294.07471
 40
118.037613
  1
9060
 50
90.0000000
  0
TEXT
  8
11
 7
SIMPLEX
 10
1798.05066
 20
4004.88257
 40
118.037613
  1
CLEAR +/-
 50
90.0000000
  0
LINE
  8
12
 10
10824.2061
 20
0.00000000
 11
10446.4854
 21
0.00000000
  0
LINE
  8
12
 10
10824.2061
 20
9060.29980
 11
10446.4854
 21
9060.29980
  0
LINE
  8
2
 10
10549.5000
 20
0.00000000
 11
10549.5000
 21
9060.29980
  0
INSERT
  8
2
  2
ARROWF
 10
10549.5000
 20
9060.29980
 41
1.00000000
 42
1.00000000
 43
1.00000000
 50
90.0000000
  0
INSERT
  8
2
  2
ARROWF
 10
10549.5000
 20
0.00000000
 41
1.00000000
 42
1.00000000
 43
1.00000000
 50
-90.000000
  0
TEXT
  8
11
 7
SIMPLEX
 10
10519.9912
 20
4294.07471
 40
118.037613
  1
9060
 50
90.0000000
  0
TEXT
  8
11
 7
SIMPLEX
 10
10697.0469
 20
4004.88257
 40
118.037613
  1
CLEAR +/-
 50
90.0000000
  0
LINE
  8
12
 10
5909.97119
 20
0.00000000
 11
5437.82080
 21
0.00000000
  0
LINE
  8
12
 10
5909.97119
 20
9602.79980
 11
5437.82080
 21
9602.79980
  0
LINE
  8
2
 10
5643.85010
 20
0.00000000
 11
5643.85010
 21
9602.79980
  0
INSERT
  8
2
  2
ARROWF
 10
5643.85010
 20
9602.79980
 41
1.00000000
 42
1.00000000
 43
1.00000000
 50
90.0000000
  0
INSERT
  8
2
  2
ARROWF
 10
5643.85010
 20
0.00000000
 41
1.00000000
 42
1.00000000
 43
1.00000000
 50
-90.000000
  0
TEXT
  8
11
 7
SIMPLEX
 10
5614.34033
 20
4565.32471
 40
118.037613
  1
9603
 50
90.0000000
  0
TEXT
  8
11
 7
SIMPLEX
 10
5791.39697
 20
4276.13281
 40
118.037613
  1
CLEAR +/-
 50
90.0000000
  0
LINE
  8
12
 10
230.000015
 20
-206.02928
 11
230.000015
 21
-678.17975
  0
LINE
  8
12
 10
668.102844
 20
-206.02928
 11
668.102844
 21
-678.17975
  0
LINE
  8
2
 10
230.000015
 20
-621.52167
 11
668.102844
 21
-621.52167
  0
INSERT
  8
2
  2
ARROWF
 10
668.102844
 20
-621.52167
 41
1.00000000
 42
1.00000000
 43
1.00000000
 50
0.00000000
  0
INSERT
  8
2
  2
ARROWF
 10
230.000015
 20
-621.52167
 41
1.00000000
 42
1.00000000
 43
1.00000000
 50
180.000000
  0
TEXT
  8
11
 7
SIMPLEX
 10
697.612183
 20
-582.17578
 40
118.037613
  1
411
 50
0.00000000
  0
LINE
  8
12
 10
11531.9004
 20
-206.02928
 11
11531.9004
 21
-678.17975
  0
LINE
  8
12
 10
11970.0000
 20
-206.02928
 11
11970.0000
 21
-678.17975
  0
LINE
  8
2
 10
11970.0000
 20
-621.52167
 11
11531.9004
 21
-621.52167
  0
INSERT
  8
2
  2
ARROWF
 10
11531.9004
 20
-621.52167
 41
1.00000000
 42
1.00000000
 43
1.00000000
 50
180.000000
  0
INSERT
  8
2
  2
ARROWF
 10
11970.0000
 20
-621.52167
 41
1.00000000
 42
1.00000000
 43
1.00000000
 50
0.00000000
  0
TEXT
  8
11
 7
SIMPLEX
 10
11148.2783
 20
-582.17578
 40
118.037613
  1
411
 50
0.00000000
  0
LINE
  8
12
 10
668.102844
 20
-206.02928
 11
668.102844
 21
-678.17975
  0
LINE
  8
12
 10
11531.9004
 20
-206.02928
 11
11531.9004
 21
-678.17975
  0
LINE
  8
2
 10
668.102844
 20
-621.52167
 11
11531.9004
 21
-621.52167
  0
INSERT
  8
2
  2
ARROWF
 10
668.102844
 20
-621.52167
 41
1.00000000
 42
1.00000000
 43
1.00000000
 50
180.000000
  0
INSERT
  8
2
  2
ARROWF
 10
11531.9004
 20
-621.52167
 41
1.00000000
 42
1.00000000
 43
1.00000000
 50
0.00000000
  0
TEXT
  8
11
 7
SIMPLEX
 10
5863.92627
 20
-582.17578
 40
118.037613
  1
10918
 50
0.00000000
  0
TEXT
  8
11
 7
SIMPLEX
 10
5574.73389
 20
-778.90118
 40
118.037613
  1
CLEAR +/-
 50
0.00000000
  0
LINE
  8
12
 10
0.00000000
 20
-324.06689
 11
0.00000000
 21
-1797.1761
  0
CIRCLE
  8
13
 10
0.00000000
 20
-2080.4663
 40
141.645126
  0
TEXT
  8
13
 7
SIMPLEX
 10
-63.740307
 20
-2144.2068
 40
127.480614
  1
C
 72
           1
 11
0.00000000
 21
-2080.4663
 73
           2
 50
   0.000
  0
LINE
  8
12
 10
0.00000000
 20
-1938.8212
 11
0.00000000
 21
-621.52167
  0
LINE
  8
12
 10
12200.0000
 20
-324.06689
 11
12200.0000
 21
-1797.1761
  0
CIRCLE
  8
13
 10
12200.0000
 20
-2080.4663
 40
141.645126
  0
TEXT
  8
13
 7
SIMPLEX
 10
12136.2598
 20
-2144.2068
 40
127.480614
  1
A
 72
           1
 11
12200.0000
 21
-2080.4663
 73
           2
 50
   0.000
  0
LINE
  8
12
 10
12200.0000
 20
-1938.8212
 11
12200.0000
 21
-621.52167
  0
LINE
  8
2
 10
0.00000000
 20
-1740.5182
 11
12200.0000
 21
-1740.5182
  0
INSERT
  8
2
  2
ARROWF
 10
0.00000000
 20
-1740.5182
 41
1.00000000
 42
1.00000000
 43
1.00000000
 50
180.000000
  0
INSERT
  8
2
  2
ARROWF
 10
12200.0000
 20
-1740.5182
 41
1.00000000
 42
1.00000000
 43
1.00000000
 50
0.00000000
  0
TEXT
  8
11
 7
SIMPLEX
 10
4713.05811
 20
-1711.0085
 40
118.037613
  1
12200 OUT-TO-OUT OF STEEL
 50
0.00000000
  0
TEXT
  8
15
 7
SIMPLEX
 10
2865.76953
 20
-2505.4019
 40
188.860168
  1
RIGID FRAME ELEVATION: FRAME LINE 2  6
 72
           1
 11
6100.00000
 21
-2505.4019
 50
   0.000
  0
LINE
  8
2
 10
-177.05643
 20
-621.52167
 11
0.00000000
 21
-621.52167
  0
LINE
  8
2
 10
230.000015
 20
-621.52167
 11
407.056458
 21
-621.52167
  0
LINE
  8
12
 10
0.00000000
 20
-206.02928
 11
0.00000000
 21
-678.17975
  0
LINE
  8
12
 10
230.000015
 20
-206.02928
 11
230.000015
 21
-678.17975
  0
INSERT
  8
2
  2
ARROWF
 10
0.00000000
 20
-621.52167
 41
1.00000000
 42
1.00000000
 43
1.00000000
 50
0.00000000
  0
INSERT
  8
2
  2
ARROWF
 10
230.000015
 20
-621.52167
 41
1.00000000
 42
1.00000000
 43
1.00000000
 50
180.000000
  0
TEXT
  8
11
 7
SIMPLEX
 10
-393.45871
 20
-582.17578
 40
118.037613
  1
230
 50
0.00000000
  0
LINE
  8
2
 10
11970.0000
 20
-621.52167
 11
11792.9434
 21
-621.52167
  0
LINE
  8
2
 10
12377.0566
 20
-621.52167
 11
12200.0000
 21
-621.52167
  0
LINE
  8
12
 10
12200.0000
 20
-206.02928
 11
12200.0000
 21
-678.17975
  0
LINE
  8
12
 10
11970.0000
 20
-206.02928
 11
11970.0000
 21
-678.17975
  0
INSERT
  8
2
  2
ARROWF
 10
12200.0000
 20
-621.52167
 41
1.00000000
 42
1.00000000
 43
1.00000000
 50
180.000000
  0
INSERT
  8
2
  2
ARROWF
 10
11970.0000
 20
-621.52167
 41
1.00000000
 42
1.00000000
 43
1.00000000
 50
0.00000000
  0
TEXT
  8
11
 7
SIMPLEX
 10
12239.3457
 20
-582.17578
 40
118.037613
  1
230
 50
0.00000000
  0
LINE
  8
12
 10
-678.31488
 20
0.00000000
 11
-1661.9579
 21
0.00000000
  0
LINE
  8
2
 10
-1622.6157
 20
0.00000000
 11
-1622.6157
 21
9600.00000
  0
INSERT
  8
2
  2
ARROWF
 10
-1622.6157
 20
0.00000000
 41
1.00000000
 42
1.00000000
 43
1.00000000
 50
270.000000
  0
TEXT
  8
11
 7
SIMPLEX
 10
-1661.9663
 20
1303.92468
 40
118.037613
  1
3080
 50
90.0002060
  0
LINE
  8
12
 10
-678.31488
 20
3080.00000
 11
-1661.9579
 21
3080.00000
  0
INSERT
  8
2
  2
ARROWF
 10
-1622.6157
 20
3080.00000
 41
1.00000000
 42
1.00000000
 43
1.00000000
 50
90.0000000
  0
INSERT
  8
2
  2
ARROWF
 10
-1622.6157
 20
0.00000000
 41
1.00000000
 42
1.00000000
 43
1.00000000
 50
270.000000
  0
TEXT
  8
11
 7
SIMPLEX
 10
-1661.9636
 20
3623.43433
 40
118.037613
  1
1500
 50
90.0002060
  0
LINE
  8
12
 10
-678.31488
 20
4580.00000
 11
-1661.9579
 21
4580.00000
  0
INSERT
  8
2
  2
ARROWF
 10
-1622.6157
 20
4580.00000
 41
1.00000000
 42
1.00000000
 43
1.00000000
 50
90.0000000
  0
INSERT
  8
2
  2
ARROWF
 10
-1622.6157
 20
3080.00000
 41
1.00000000
 42
1.00000000
 43
1.00000000
 50
270.000000
  0
TEXT
  8
11
 7
SIMPLEX
 10
-1661.9639
 20
5173.43408
 40
118.037613
  1
1600
 50
90.0002060
  0
LINE
  8
12
 10
-678.31488
 20
6180.00000
 11
-1661.9579
 21
6180.00000
  0
INSERT
  8
2
  2
ARROWF
 10
-1622.6157
 20
6180.00000
 41
1.00000000
 42
1.00000000
 43
1.00000000
 50
90.0000000
  0
INSERT
  8
2
  2
ARROWF
 10
-1622.6157
 20
4580.00000
 41
1.00000000
 42
1.00000000
 43
1.00000000
 50
270.000000
  0
TEXT
  8
11
 7
SIMPLEX
 10
-1661.9635
 20
6673.43506
 40
118.037613
  1
1400
 50
90.0002060
  0
LINE
  8
12
 10
-678.31488
 20
7580.00000
 11
-1661.9579
 21
7580.00000
  0
INSERT
  8
2
  2
ARROWF
 10
-1622.6157
 20
7580.00000
 41
1.00000000
 42
1.00000000
 43
1.00000000
 50
90.0000000
  0
INSERT
  8
2
  2
ARROWF
 10
-1622.6157
 20
6180.00000
 41
1.00000000
 42
1.00000000
 43
1.00000000
 50
270.000000
  0
TEXT
  8
11
 7
SIMPLEX
 10
-1661.9630
 20
7952.94385
 40
118.037613
  1
1100
 50
90.0002060
  0
LINE
  8
12
 10
-678.31488
 20
8680.00000
 11
-1661.9579
 21
8680.00000
  0
INSERT
  8
2
  2
ARROWF
 10
-1622.6157
 20
8680.00000
 41
1.00000000
 42
1.00000000
 43
1.00000000
 50
90.0000000
  0
INSERT
  8
2
  2
ARROWF
 10
-1622.6157
 20
7580.00000
 41
1.00000000
 42
1.00000000
 43
1.00000000
 50
270.000000
  0
TEXT
  8
11
 7
SIMPLEX
 10
-1661.9626
 20
8962.94336
 40
118.037613
  1
920
 50
90.0002060
  0
LINE
  8
12
 10
-678.31488
 20
9600.00000
 11
-1661.9579
 21
9600.00000
  0
INSERT
  8
2
  2
ARROWF
 10
-1622.6157
 20
9600.00000
 41
1.00000000
 42
1.00000000
 43
1.00000000
 50
90.0000000
  0
INSERT
  8
2
  2
ARROWF
 10
-1622.6157
 20
8680.00000
 41
1.00000000
 42
1.00000000
 43
1.00000000
 50
270.000000
  0
LINE
  8
12
 10
-1957.0518
 20
9600.00000
 11
-678.31488
 21
9600.00000
  0
LINE
  8
2
 10
-1917.7098
 20
0.00000000
 11
-1917.7098
 21
9600.00000
  0
TEXT
  8
11
 7
SIMPLEX
 10
-1957.0560
 20
4485.23291
 40
118.037613
  1
9600
 50
90.0002060
  0
LINE
  8
12
 10
-1957.0518
 20
0.00000000
 11
-678.31488
 21
0.00000000
  0
INSERT
  8
2
  2
ARROWF
 10
-1917.7098
 20
9600.00000
 41
1.00000000
 42
1.00000000
 43
1.00000000
 50
90.0000000
  0
INSERT
  8
2
  2
ARROWF
 10
-1917.7098
 20
0.00000000
 41
1.00000000
 42
1.00000000
 43
1.00000000
 50
270.000000
  0
LINE
  8
12
 10
12878.3145
 20
0.00000000
 11
13861.9570
 21
0.00000000
  0
LINE
  8
2
 10
13822.6162
 20
0.00000000
 11
13822.6162
 21
9600.00000
  0
INSERT
  8
2
  2
ARROWF
 10
13822.6162
 20
0.00000000
 41
1.00000000
 42
1.00000000
 43
1.00000000
 50
270.000000
  0
TEXT
  8
11
 7
SIMPLEX
 10
13783.2637
 20
1303.92468
 40
118.037613
  1
3080
 50
90.0002060
  0
LINE
  8
12
 10
12878.3145
 20
3080.00000
 11
13861.9570
 21
3080.00000
  0
INSERT
  8
2
  2
ARROWF
 10
13822.6162
 20
3080.00000
 41
1.00000000
 42
1.00000000
 43
1.00000000
 50
90.0000000
  0
INSERT
  8
2
  2
ARROWF
 10
13822.6162
 20
0.00000000
 41
1.00000000
 42
1.00000000
 43
1.00000000
 50
270.000000
  0
TEXT
  8
11
 7
SIMPLEX
 10
13783.2676
 20
3623.43433
 40
118.037613
  1
1500
 50
90.0002060
  0
LINE
  8
12
 10
12878.3145
 20
4580.00000
 11
13861.9570
 21
4580.00000
  0
INSERT
  8
2
  2
ARROWF
 10
13822.6162
 20
4580.00000
 41
1.00000000
 42
1.00000000
 43
1.00000000
 50
90.0000000
  0
INSERT
  8
2
  2
ARROWF
 10
13822.6162
 20
3080.00000
 41
1.00000000
 42
1.00000000
 43
1.00000000
 50
270.000000
  0
TEXT
  8
11
 7
SIMPLEX
 10
13783.2676
 20
5173.43408
 40
118.037613
  1
1600
 50
90.0002060
  0
LINE
  8
12
 10
12878.3145
 20
6180.00000
 11
13861.9570
 21
6180.00000
  0
INSERT
  8
2
  2
ARROWF
 10
13822.6162
 20
6180.00000
 41
1.00000000
 42
1.00000000
 43
1.00000000
 50
90.0000000
  0
INSERT
  8
2
  2
ARROWF
 10
13822.6162
 20
4580.00000
 41
1.00000000
 42
1.00000000
 43
1.00000000
 50
270.000000
  0
TEXT
  8
11
 7
SIMPLEX
 10
13783.2676
 20
6673.43506
 40
118.037613
  1
1400
 50
90.0002060
  0
LINE
  8
12
 10
12878.3145
 20
7580.00000
 11
13861.9570
 21
7580.00000
  0
INSERT
  8
2
  2
ARROWF
 10
13822.6162
 20
7580.00000
 41
1.00000000
 42
1.00000000
 43
1.00000000
 50
90.0000000
  0
INSERT
  8
2
  2
ARROWF
 10
13822.6162
 20
6180.00000
 41
1.00000000
 42
1.00000000
 43
1.00000000
 50
270.000000
  0
TEXT
  8
11
 7
SIMPLEX
 10
13783.2676
 20
7952.94385
 40
118.037613
  1
1100
 50
90.0002060
  0
LINE
  8
12
 10
12878.3145
 20
8680.00000
 11
13861.9570
 21
8680.00000
  0
INSERT
  8
2
  2
ARROWF
 10
13822.6162
 20
8680.00000
 41
1.00000000
 42
1.00000000
 43
1.00000000
 50
90.0000000
  0
INSERT
  8
2
  2
ARROWF
 10
13822.6162
 20
7580.00000
 41
1.00000000
 42
1.00000000
 43
1.00000000
 50
270.000000
  0
TEXT
  8
11
 7
SIMPLEX
 10
13783.2676
 20
8962.94336
 40
118.037613
  1
920
 50
90.0002060
  0
LINE
  8
12
 10
12878.3145
 20
9600.00000
 11
13861.9570
 21
9600.00000
  0
INSERT
  8
2
  2
ARROWF
 10
13822.6162
 20
9600.00000
 41
1.00000000
 42
1.00000000
 43
1.00000000
 50
90.0000000
  0
INSERT
  8
2
  2
ARROWF
 10
13822.6162
 20
8680.00000
 41
1.00000000
 42
1.00000000
 43
1.00000000
 50
270.000000
  0
LINE
  8
12
 10
14157.0508
 20
9600.00000
 11
12878.3145
 21
9600.00000
  0
LINE
  8
2
 10
14117.7090
 20
0.00000000
 11
14117.7090
 21
9600.00000
  0
TEXT
  8
11
 7
SIMPLEX
 10
14078.3613
 20
4485.23291
 40
118.037613
  1
9600
 50
90.0002060
  0
LINE
  8
12
 10
14157.0508
 20
0.00000000
 11
12878.3145
 21
0.00000000
  0
INSERT
  8
2
  2
ARROWF
 10
14117.7090
 20
9600.00000
 41
1.00000000
 42
1.00000000
 43
1.00000000
 50
90.0000000
  0
INSERT
  8
2
  2
ARROWF
 10
14117.7090
 20
0.00000000
 41
1.00000000
 42
1.00000000
 43
1.00000000
 50
270.000000
  0
LINE
  8
12
 10
-44.727783
 20
10047.2783
 11
-148.93956
 21
11089.3955
  0
INSERT
  8
2
  2
ARROWF
 10
-138.68922
 20
10986.8926
 41
1.00000000
 42
1.00000000
 43
1.00000000
 50
185.710587
  0
LINE
  8
12
 10
5756.73682
 20
10627.4248
 11
5652.52490
 21
11669.5430
  0
INSERT
  8
2
  2
ARROWF
 10
5662.77588
 20
11567.0391
 41
1.00000000
 42
1.00000000
 43
1.00000000
 50
5.71059272
  0
TEXT
  8
11
 7
SIMPLEX
 10
2317.68433
 20
11272.0723
 40
118.037613
  1
4 @ 1458
 50
5.71059272
  0
INSERT
  8
2
  2
ARROWF
 10
5662.77588
 20
11567.0391
 41
1.00000000
 42
1.00000000
 43
1.00000000
 50
185.710587
  0
LINE
  8
12
 10
6055.27148
 20
10657.2783
 11
5951.06055
 21
11699.3955
  0
INSERT
  8
2
  2
ARROWF
 10
5961.31055
 20
11596.8926
 41
1.00000000
 42
1.00000000
 43
1.00000000
 50
5.71059272
  0
TEXT
  8
11
 7
SIMPLEX
 10
5565.89014
 20
11596.8926
 40
118.037613
  1
300
 50
5.71059272
  0
LINE
  8
2
 10
-138.68922
 20
10986.8926
 11
5961.31055
 21
11596.8926
  0
LINE
  8
2
 10
-79.963326
 20
10399.6328
 11
-184.17509
 21
11441.7510
  0
INSERT
  8
2
  2
ARROWF
 10
-173.92476
 20
11339.2480
 41
1.00000000
 42
1.00000000
 43
1.00000000
 50
185.710587
  0
LINE
  8
2
 10
6020.03662
 20
11009.6328
 11
5915.82471
 21
12051.7510
  0
INSERT
  8
2
  2
ARROWF
 10
5926.07471
 20
11949.2480
 41
1.00000000
 42
1.00000000
 43
1.00000000
 50
5.71059272
  0
LINE
  8
2
 10
-173.92476
 20
11339.2480
 11
5926.07471
 21
11949.2480
  0
TEXT
  8
11
 7
SIMPLEX
 10
2666.61938
 20
11662.8447
 40
118.037613
  1
6130
 50
5.71059272
  0
LINE
  8
12
 10
6144.72852
 20
10657.2783
 11
6248.93994
 21
11699.3955
  0
INSERT
  8
2
  2
ARROWF
 10
6238.68945
 20
11596.8926
 41
1.00000000
 42
1.00000000
 43
1.00000000
 50
174.289413
  0
LINE
  8
12
 10
6443.23926
 20
10627.4268
 11
6547.45068
 21
11669.5449
  0
INSERT
  8
2
  2
ARROWF
 10
6537.20020
 20
11567.0420
 41
1.00000000
 42
1.00000000
 43
1.00000000
 50
-5.7105928
  0
TEXT
  8
11
 7
SIMPLEX
 10
6281.75488
 20
11632.1279
 40
118.037613
  1
300
 50
-5.7105928
  0
INSERT
  8
2
  2
ARROWF
 10
6537.20020
 20
11567.0420
 41
1.00000000
 42
1.00000000
 43
1.00000000
 50
174.289413
  0
LINE
  8
12
 10
12244.7285
 20
10047.2783
 11
12348.9395
 21
11089.3955
  0
INSERT
  8
2
  2
ARROWF
 10
12338.6895
 20
10986.8926
 41
1.00000000
 42
1.00000000
 43
1.00000000
 50
-5.7105928
  0
TEXT
  8
11
 7
SIMPLEX
 10
9001.45117
 20
11360.1582
 40
118.037613
  1
4 @ 1458
 50
-5.7105928
  0
LINE
  8
2
 10
6238.68945
 20
11596.8926
 11
12338.6895
 21
10986.8926
  0
LINE
  8
2
 10
6179.96338
 20
11009.6328
 11
6284.17529
 21
12051.7510
  0
INSERT
  8
2
  2
ARROWF
 10
6273.92529
 20
11949.2480
 41
1.00000000
 42
1.00000000
 43
1.00000000
 50
174.289413
  0
LINE
  8
2
 10
12279.9639
 20
10399.6328
 11
12384.1758
 21
11441.7510
  0
INSERT
  8
2
  2
ARROWF
 10
12373.9248
 20
11339.2480
 41
1.00000000
 42
1.00000000
 43
1.00000000
 50
-5.7105928
  0
LINE
  8
2
 10
6273.92529
 20
11949.2480
 11
12373.9248
 21
11339.2480
  0
TEXT
  8
11
 7
SIMPLEX
 10
9122.29980
 20
11703.9521
 40
118.037613
  1
6130
 50
-5.7105928
  0
LINE
  8
2
 10
5058.66357
 20
10283.8057
 11
5076.28174
 21
10107.6279
  0
LINE
  8
2
 10
5113.80029
 20
9732.44336
 11
5096.18213
 21
9908.62109
  0
INSERT
  8
2
  2
ARROWF
 10
5076.28174
 20
10107.6279
 41
1.00000000
 42
1.00000000
 43
1.00000000
 50
275.710602
  0
INSERT
  8
2
  2
ARROWF
 10
5096.18213
 20
9908.62109
 41
1.00000000
 42
1.00000000
 43
1.00000000
 50
95.7105942
  0
TEXT
  8
11
 7
SIMPLEX
 10
5033.21582
 20
10142.8633
 40
118.037613
  1
200
 50
95.7105866
  0
LINE
  8
2
 10
7141.31201
 20
10283.8076
 11
7123.69385
 21
10107.6299
  0
LINE
  8
2
 10
7086.17578
 20
9732.44531
 11
7103.79346
 21
9908.62305
  0
INSERT
  8
2
  2
ARROWF
 10
7123.69385
 20
10107.6299
 41
1.00000000
 42
1.00000000
 43
1.00000000
 50
264.289398
  0
INSERT
  8
2
  2
ARROWF
 10
7103.79346
 20
9908.62305
 41
1.00000000
 42
1.00000000
 43
1.00000000
 50
84.2894058
  0
TEXT
  8
11
 7
SIMPLEX
 10
7088.45947
 20
10150.6953
 40
118.037613
  1
200
 50
84.2894058
  0
INSERT
  8
7
  2
CUTFRM
 10
88.6858063
 20
9384.36621
 41
1.00000000
 42
29.8753662
 43
29.8753662
 50
90.0000000
  0
CIRCLE
  8
7
 10
-5.7442837
 20
9384.36914
 40
94.4300843
  0
TEXT
  8
7
 7
SIMPLEX
 10
-81.288361
 20
9346.59668
 40
75.5440750
  1
U5
 72
           1
 11
-5.7442837
 21
9346.59668
 50
   0.000
  0
INSERT
  8
7
  2
ARROWPF
 10
847.515320
 20
9204.92969
 41
1.00000000
 42
1.00000000
 43
1.00000000
 50
270.000000
  0
INSERT
  8
7
  2
CUTFRM
 10
5434.71338
 20
9411.00293
 41
1.00000000
 42
26.3838730
 43
26.3838730
 50
185.710587
  0
CIRCLE
  8
7
 10
5444.10449
 20
9317.04102
 40
94.4300843
  0
TEXT
  8
7
 7
SIMPLEX
 10
5368.56006
 20
9279.26953
 40
75.5440750
  1
U2
 72
           1
 11
5444.10449
 21
9279.26953
 50
   0.000
  0
INSERT
  8
7
  2
ARROWPF
 10
5546.59473
 20
10095.6748
 41
1.00000000
 42
1.00000000
 43
1.00000000
 50
365.710571
  0
INSERT
  8
7
  2
CUTFRM
 10
12111.3174
 20
9384.34863
 41
-1.0000000
 42
29.8753510
 43
29.8753510
 50
270.000000
  0
CIRCLE
  8
7
 10
12205.7471
 20
9384.34082
 40
94.4300843
  0
TEXT
  8
7
 7
SIMPLEX
 10
12130.2031
 20
9346.56934
 40
75.5440750
  1
U5
 72
           1
 11
12205.7471
 21
9346.56934
 50
   0.000
  0
INSERT
  8
7
  2
ARROWPF
 10
11352.4688
 20
9204.99121
 41
-1.0000000
 42
1.00000000
 43
1.00000000
 50
450.000000
  0
INSERT
  8
7
  2
CUTFRM
 10
847.517090
 20
538.256165
 41
-1.0000000
 42
29.8753662
 43
29.8753662
 50
-90.000000
  0
CIRCLE
  8
7
 10
941.947266
 20
538.258667
 40
94.4300843
  0
TEXT
  8
7
 7
SIMPLEX
 10
861.870544
 20
508.041016
 40
60.4352494
  1
R10
 72
           1
 11
941.947266
 21
508.041016
 50
   0.000
  0
INSERT
  8
7
  2
ARROWPF
 10
88.6875763
 20
358.819092
 41
-1.0000000
 42
1.00000000
 43
1.00000000
 50
90.0000000
  0
INSERT
  8
7
  2
CUTFRM
 10
11352.4834
 20
538.256165
 41
1.00000000
 42
29.8753510
 43
29.8753510
 50
90.0000000
  0
CIRCLE
  8
7
 10
11258.0537
 20
538.258667
 40
94.4300843
  0
TEXT
  8
7
 7
SIMPLEX
 10
11177.9775
 20
508.041016
 40
60.4352494
  1
R10
 72
           1
 11
11258.0537
 21
508.041016
 50
   0.000
  0
INSERT
  8
7
  2
ARROWPF
 10
12111.3135
 20
358.819092
 41
1.00000000
 42
1.00000000
 43
1.00000000
 50
270.000000
  0
LINE
  8
1
 10
-395.40555
 20
12046.5742
 11
5853.82568
 21
12671.4980
  0
LINE
  8
1
 10
-399.19662
 20
12084.4854
 11
5850.03467
 21
12709.4082
  0
LINE
  8
1
 10
-395.40555
 20
12046.5742
 11
-399.19662
 21
12084.4854
  0
LINE
  8
1
 10
5853.82568
 20
12671.4980
 11
5850.03467
 21
12709.4082
  0
TEXT
  8
15
 7
SIMPLEX
 10
-66.548721
 20
11921.2959
 40
118.037613
  1
0.45mm 4033
 50
5.71059272
  0
TEXT
  8
11
 7
SIMPLEX
 10
2484.44409
 20
12412.5869
 40
118.037613
  1
6280
 50
5.71059272
  0
LINE
  8
12
 10
-404.32184
 20
12135.7373
 11
-419.59055
 21
12288.4248
  0
LINE
  8
12
 10
-255.06625
 20
12150.6631
 11
-270.33499
 21
12303.3506
  0
LINE
  8
2
 10
-590.64313
 20
12219.5557
 11
-414.46539
 21
12237.1729
  0
LINE
  8
2
 10
-265.20984
 20
12252.0986
 11
-89.032097
 21
12269.7158
  0
INSERT
  8
2
  2
ARROWF
 10
-414.46539
 20
12237.1729
 41
1.00000000
 42
1.00000000
 43
1.00000000
 50
365.710571
  0
INSERT
  8
2
  2
ARROWF
 10
-265.20984
 20
12252.0986
 41
1.00000000
 42
1.00000000
 43
1.00000000
 50
185.710587
  0
TEXT
  8
11
 7
SIMPLEX
 10
-269.12448
 20
12291.2451
 40
118.037613
  1
150
 50
5.71059272
  0
LINE
  8
1
 10
6346.14990
 20
12671.5000
 11
12595.4043
 21
12046.5742
  0
LINE
  8
1
 10
6349.94092
 20
12709.4111
 11
12599.1963
 21
12084.4854
  0
LINE
  8
1
 10
6346.14990
 20
12671.5000
 11
6349.94092
 21
12709.4111
  0
LINE
  8
1
 10
12595.4043
 20
12046.5742
 11
12599.1963
 21
12084.4854
  0
TEXT
  8
11
 7
SIMPLEX
 10
9245.32715
 20
12459.6094
 40
118.037613
  1
6280
 50
-5.7105928
  0
LINE
  8
12
 10
12455.0654
 20
12150.6631
 11
12470.3340
 21
12303.3506
  0
LINE
  8
12
 10
12604.3213
 20
12135.7373
 11
12619.5898
 21
12288.4248
  0
LINE
  8
2
 10
12289.0313
 20
12269.7158
 11
12465.2090
 21
12252.0986
  0
LINE
  8
2
 10
12614.4648
 20
12237.1729
 11
12790.6426
 21
12219.5557
  0
INSERT
  8
2
  2
ARROWF
 10
12465.2090
 20
12252.0986
 41
1.00000000
 42
1.00000000
 43
1.00000000
 50
354.289429
  0
INSERT
  8
2
  2
ARROWF
 10
12614.4648
 20
12237.1729
 41
1.00000000
 42
1.00000000
 43
1.00000000
 50
174.289413
  0
TEXT
  8
11
 7
SIMPLEX
 10
12175.4941
 20
12320.6084
 40
118.037613
  1
150
 50
-5.7105928
  0
TEXT
  8
15
 7
SIMPLEX
 10
5840.31738
 20
13041.7822
 40
118.037613
  1
RC-01
 50
0.00000000
  0
LINE
  8
1
 10
6100.00000
 20
13002.4355
 11
5245.80469
 21
12917.0156
  0
LINE
  8
1
 10
5245.80469
 20
12917.0156
 11
5242.01367
 21
12879.1055
  0
LINE
  8
1
 10
6100.00000
 20
13002.4355
 11
6954.19434
 21
12917.0156
  0
LINE
  8
1
 10
6954.19434
 20
12917.0156
 11
6957.98584
 21
12879.1055
  0
LINE
  8
1
 10
5242.01367
 20
12879.1055
 11
6099.99951
 21
12964.9033
  0
LINE
  8
1
 10
6957.98584
 20
12879.1055
 11
6099.99951
 21
12964.9033
  0
ENDBLK
  8
0
  0
BLOCK
  8
0
  2
EPBLK1
 70
     0
 10
0.00000000
 20
0.00000000
  0
LINE
  8
0
 10
0.00000000
 20
0.00000000
 11
0.00000000
 21
1716.91077
  0
LINE
  8
0
 10
0.00000000
 20
1716.91077
 11
844.936401
 21
1716.91077
  0
LINE
  8
0
 10
0.00000000
 20
0.00000000
 11
844.936401
 21
0.00000000
  0
LINE
  8
0
 10
844.936401
 20
1716.91077
 11
844.936401
 21
0.00000000
  0
TEXT
  8
11
 7
SIMPLEX
 10
14.7547026
 20
1672.64661
 40
29.5094052
  1
Bolt Dia=
 50
0.00000000
  0
TEXT
  8
11
 7
SIMPLEX
 10
14.7547026
 20
1635.75989
 40
29.5094052
  1
Plate Thk=
 50
0.00000000
  0
TEXT
  8
11
 7
SIMPLEX
 10
311.118713
 20
1672.64661
 40
29.5094052
  1
20
 50
0.00000000
  0
TEXT
  8
11
 7
SIMPLEX
 10
311.118713
 20
1635.75989
 40
29.5094052
  1
16
 50
0.00000000
  0
TEXT
  8
11
 7
SIMPLEX
 10
29.5094052
 20
14.7547026
 40
29.5094052
  1
SP1
 50
0.00000000
  0
LINE
  8
0
 10
316.851135
 20
343.382141
 11
316.851135
 21
1373.52869
  0
LINE
  8
0
 10
316.851135
 20
1373.52869
 11
528.085266
 21
1373.52869
  0
LINE
  8
0
 10
528.085266
 20
1373.52869
 11
528.085266
 21
343.382141
  0
LINE
  8
0
 10
316.851135
 20
343.382141
 11
528.085266
 21
343.382141
  0
CIRCLE
  8
0
 10
369.659668
 20
1287.68298
 40
7.37735080
  0
CIRCLE
  8
0
 10
475.276703
 20
1287.68298
 40
7.37735080
  0
CIRCLE
  8
0
 10
369.659668
 20
1115.99194
 40
7.37735080
  0
CIRCLE
  8
0
 10
475.276703
 20
1115.99194
 40
7.37735080
  0
CIRCLE
  8
0
 10
369.659668
 20
600.918762
 40
7.37735080
  0
CIRCLE
  8
0
 10
475.276703
 20
600.918762
 40
7.37735080
  0
CIRCLE
  8
0
 10
369.659668
 20
429.227661
 40
7.37735080
  0
CIRCLE
  8
0
 10
475.276703
 20
429.227661
 40
7.37735080
  0
LINE
  8
0
 10
409.054810
 20
1210.42200
 11
409.054810
 21
1356.08459
  0
LINE
  8
0
 10
409.054810
 20
1356.08459
 11
435.881561
 21
1356.08459
  0
LINE
  8
0
 10
435.881561
 20
1356.08459
 11
435.881561
 21
1210.42200
  0
LINE
  8
0
 10
409.054810
 20
504.771698
 11
409.054810
 21
360.825958
  0
LINE
  8
0
 10
409.054810
 20
360.825958
 11
435.881561
 21
360.825958
  0
LINE
  8
0
 10
435.881561
 20
360.825958
 11
435.881561
 21
504.771698
  0
LINE
  8
2
 10
599.265442
 20
343.382141
 11
599.265442
 21
429.227661
  0
INSERT
  8
2
  2
ARROWF
 10
599.265442
 20
343.382141
 41
0.33300000
 42
0.33300000
 43
0.33300000
 50
270.000000
  0
INSERT
  8
2
  2
ARROWF
 10
599.265442
 20
429.227661
 41
0.33300000
 42
0.33300000
 43
0.33300000
 50
89.9999847
  0
LINE
  8
2
 10
579.592590
 20
429.227661
 11
609.101990
 21
429.227661
  0
LINE
  8
2
 10
579.592590
 20
343.382141
 11
609.101990
 21
343.382141
  0
TEXT
  8
11
 7
SIMPLEX
 10
614.020203
 20
371.550201
 40
29.5094052
  1
50
 50
0.00000000
  0
LINE
  8
2
 10
599.265442
 20
429.227661
 11
599.265442
 21
600.918762
  0
INSERT
  8
2
  2
ARROWF
 10
599.265442
 20
429.227661
 41
0.33300000
 42
0.33300000
 43
0.33300000
 50
270.000000
  0
INSERT
  8
2
  2
ARROWF
 10
599.265442
 20
600.918762
 41
0.33300000
 42
0.33300000
 43
0.33300000
 50
89.9999847
  0
LINE
  8
2
 10
579.592590
 20
600.918762
 11
609.101990
 21
600.918762
  0
LINE
  8
2
 10
579.592590
 20
429.227661
 11
609.101990
 21
429.227661
  0
TEXT
  8
11
 7
SIMPLEX
 10
614.020203
 20
500.318481
 40
29.5094052
  1
100
 50
0.00000000
  0
LINE
  8
2
 10
599.265442
 20
600.918762
 11
599.265442
 21
1115.99194
  0
INSERT
  8
2
  2
ARROWF
 10
599.265442
 20
600.918762
 41
0.33300000
 42
0.33300000
 43
0.33300000
 50
270.000000
  0
INSERT
  8
2
  2
ARROWF
 10
599.265442
 20
1115.99194
 41
0.33300000
 42
0.33300000
 43
0.33300000
 50
89.9999847
  0
LINE
  8
2
 10
579.592590
 20
1115.99194
 11
609.101990
 21
1115.99194
  0
LINE
  8
2
 10
579.592590
 20
600.918762
 11
609.101990
 21
600.918762
  0
TEXT
  8
11
 7
SIMPLEX
 10
614.020203
 20
843.700623
 40
29.5094052
  1
300
 50
0.00000000
  0
LINE
  8
2
 10
599.265442
 20
1115.99194
 11
599.265442
 21
1287.68298
  0
INSERT
  8
2
  2
ARROWF
 10
599.265442
 20
1115.99194
 41
0.33300000
 42
0.33300000
 43
0.33300000
 50
270.000000
  0
INSERT
  8
2
  2
ARROWF
 10
599.265442
 20
1287.68298
 41
0.33300000
 42
0.33300000
 43
0.33300000
 50
89.9999847
  0
LINE
  8
2
 10
579.592590
 20
1287.68298
 11
609.101990
 21
1287.68298
  0
LINE
  8
2
 10
579.592590
 20
1115.99194
 11
609.101990
 21
1115.99194
  0
TEXT
  8
11
 7
SIMPLEX
 10
614.020203
 20
1187.08276
 40
29.5094052
  1
100
 50
0.00000000
  0
LINE
  8
2
 10
599.265442
 20
1287.68298
 11
599.265442
 21
1373.52869
  0
INSERT
  8
2
  2
ARROWF
 10
599.265442
 20
1287.68298
 41
0.33300000
 42
0.33300000
 43
0.33300000
 50
270.000000
  0
INSERT
  8
2
  2
ARROWF
 10
599.265442
 20
1373.52869
 41
0.33300000
 42
0.33300000
 43
0.33300000
 50
89.9999847
  0
LINE
  8
2
 10
579.592590
 20
1373.52869
 11
609.101990
 21
1373.52869
  0
LINE
  8
2
 10
579.592590
 20
1287.68298
 11
609.101990
 21
1287.68298
  0
TEXT
  8
11
 7
SIMPLEX
 10
614.020203
 20
1315.85107
 40
29.5094052
  1
50
 50
0.00000000
  0
LINE
  8
2
 10
369.659668
 20
272.201874
 11
475.276703
 21
272.201874
  0
LINE
  8
2
 10
369.659668
 20
291.874817
 11
369.659668
 21
262.365417
  0
LINE
  8
2
 10
475.276703
 20
291.874817
 11
475.276703
 21
262.365417
  0
INSERT
  8
2
  2
ARROWF
 10
369.659668
 20
272.201874
 41
0.33300000
 42
0.33300000
 43
0.33300000
 50
180.000000
  0
INSERT
  8
2
  2
ARROWF
 10
475.276703
 20
272.201874
 41
0.33300000
 42
0.33300000
 43
0.33300000
 50
0.00000000
  0
TEXT
  8
11
 7
SIMPLEX
 10
389.270142
 20
235.315140
 40
29.5094052
  1
100
 50
0.00000000
  0
LINE
  8
2
 10
245.670898
 20
343.382141
 11
245.670898
 21
504.771698
  0
INSERT
  8
2
  2
ARROWF
 10
245.670898
 20
343.382141
 41
0.33300000
 42
0.33300000
 43
0.33300000
 50
270.000000
  0
INSERT
  8
2
  2
ARROWF
 10
245.670898
 20
504.771698
 41
0.33300000
 42
0.33300000
 43
0.33300000
 50
89.9999847
  0
LINE
  8
2
 10
235.834442
 20
504.771698
 11
265.343842
 21
504.771698
  0
LINE
  8
2
 10
235.834442
 20
343.382141
 11
265.343842
 21
343.382141
  0
TEXT
  8
11
 7
SIMPLEX
 10
179.274735
 20
409.322205
 40
29.5094052
  1
94
 72
           2
 11
238.293549
 21
424.076904
 73
           2
 50
   0.000
  0
LINE
  8
2
 10
245.670898
 20
504.771698
 11
245.670898
 21
1210.42200
  0
INSERT
  8
2
  2
ARROWF
 10
245.670898
 20
504.771698
 41
0.33300000
 42
0.33300000
 43
0.33300000
 50
270.000000
  0
INSERT
  8
2
  2
ARROWF
 10
245.670898
 20
1210.42200
 41
0.33300000
 42
0.33300000
 43
0.33300000
 50
89.9999847
  0
LINE
  8
2
 10
235.834442
 20
1210.42200
 11
265.343842
 21
1210.42200
  0
LINE
  8
2
 10
235.834442
 20
504.771698
 11
265.343842
 21
504.771698
  0
TEXT
  8
11
 7
SIMPLEX
 10
208.784149
 20
823.661072
 40
29.5094052
  1
411
 72
           1
 11
238.293549
 21
857.596863
 73
           1
 50
  90.000
  0
LINE
  8
2
 10
245.670898
 20
1210.42200
 11
245.670898
 21
1373.52869
  0
INSERT
  8
2
  2
ARROWF
 10
245.670898
 20
1210.42200
 41
0.33300000
 42
0.33300000
 43
0.33300000
 50
270.000000
  0
INSERT
  8
2
  2
ARROWF
 10
245.670898
 20
1373.52869
 41
0.33300000
 42
0.33300000
 43
0.33300000
 50
89.9999847
  0
LINE
  8
2
 10
235.834442
 20
1373.52869
 11
265.343842
 21
1373.52869
  0
LINE
  8
2
 10
235.834442
 20
1210.42200
 11
265.343842
 21
1210.42200
  0
TEXT
  8
11
 7
SIMPLEX
 10
179.274735
 20
1277.22058
 40
29.5094052
  1
95
 72
           2
 11
238.293549
 21
1291.97534
 73
           2
 50
   0.000
  0
LINE
  8
2
 10
129.958267
 20
343.382141
 11
159.467667
 21
343.382141
  0
LINE
  8
2
 10
129.958267
 20
1373.52869
 11
159.467667
 21
1373.52869
  0
LINE
  8
2
 10
139.794739
 20
343.382141
 11
139.794739
 21
1373.52869
  0
INSERT
  8
2
  2
ARROWF
 10
139.794739
 20
343.382141
 41
0.33300000
 42
0.33300000
 43
0.33300000
 50
270.000000
  0
INSERT
  8
2
  2
ARROWF
 10
139.794739
 20
1373.52869
 41
0.33300000
 42
0.33300000
 43
0.33300000
 50
90.0000000
  0
TEXT
  8
11
 7
SIMPLEX
 10
132.417389
 20
825.257263
 40
29.5094052
  1
600
 50
90.0000000
  0
LINE
  8
2
 10
316.851135
 20
1444.70874
 11
528.085266
 21
1444.70874
  0
LINE
  8
2
 10
316.851135
 20
1454.54529
 11
316.851135
 21
1425.03589
  0
LINE
  8
2
 10
528.085266
 20
1454.54529
 11
528.085266
 21
1425.03589
  0
INSERT
  8
2
  2
ARROWF
 10
316.851135
 20
1444.70874
 41
0.33300000
 42
0.33300000
 43
0.33300000
 50
180.000000
  0
INSERT
  8
2
  2
ARROWF
 10
528.085266
 20
1444.70874
 41
0.33300000
 42
0.33300000
 43
0.33300000
 50
0.00000000
  0
TEXT
  8
11
 7
SIMPLEX
 10
389.270142
 20
1452.08618
 40
29.5094052
  1
200
 50
0.00000000
  0
LINE
  8
0
 10
343.255402
 20
504.771698
 11
501.681000
 21
504.771698
  0
LINE
  8
0
 10
343.255402
 20
531.598450
 11
501.681000
 21
531.598450
  0
LINE
  8
0
 10
343.255402
 20
504.771698
 11
343.255402
 21
531.598450
  0
LINE
  8
0
 10
501.681000
 20
504.771698
 11
501.681000
 21
531.598450
  0
LINE
  8
0
 10
343.255402
 20
1210.42200
 11
501.681000
 21
1210.42200
  0
LINE
  8
0
 10
343.255402
 20
1183.59521
 11
501.681000
 21
1183.59521
  0
LINE
  8
0
 10
343.255402
 20
1210.42200
 11
343.255402
 21
1183.59521
  0
LINE
  8
0
 10
501.681000
 20
1210.42200
 11
501.681000
 21
1183.59521
  0
LINE
  8
0
 10
435.881561
 20
531.598450
 11
435.881561
 21
1183.59521
  0
LINE
  8
0
 10
409.054810
 20
531.598450
 11
409.054810
 21
1183.59521
  0
ENDBLK
  8
0
  0
BLOCK
  8
0
  2
EPBLK2
 70
     0
 10
0.00000000
 20
0.00000000
  0
LINE
  8
0
 10
0.00000000
 20
0.00000000
 11
0.00000000
 21
1716.91077
  0
LINE
  8
0
 10
0.00000000
 20
1716.91077
 11
844.936401
 21
1716.91077
  0
LINE
  8
0
 10
0.00000000
 20
0.00000000
 11
844.936401
 21
0.00000000
  0
LINE
  8
0
 10
844.936401
 20
1716.91077
 11
844.936401
 21
0.00000000
  0
TEXT
  8
11
 7
SIMPLEX
 10
14.7547026
 20
1672.64661
 40
29.5094052
  1
Bolt Dia=
 50
0.00000000
  0
TEXT
  8
11
 7
SIMPLEX
 10
14.7547026
 20
1635.75989
 40
29.5094052
  1
Plate Thk=
 50
0.00000000
  0
TEXT
  8
11
 7
SIMPLEX
 10
311.118713
 20
1672.64661
 40
29.5094052
  1
20
 50
0.00000000
  0
TEXT
  8
11
 7
SIMPLEX
 10
311.118713
 20
1635.75989
 40
29.5094052
  1
16
 50
0.00000000
  0
TEXT
  8
11
 7
SIMPLEX
 10
29.5094052
 20
14.7547026
 40
29.5094052
  1
SP2
 50
0.00000000
  0
LINE
  8
0
 10
316.851135
 20
428.214661
 11
316.851135
 21
1288.69604
  0
LINE
  8
0
 10
316.851135
 20
1288.69604
 11
528.085266
 21
1288.69604
  0
LINE
  8
0
 10
528.085266
 20
1288.69604
 11
528.085266
 21
428.214661
  0
LINE
  8
0
 10
316.851135
 20
428.214661
 11
528.085266
 21
428.214661
  0
CIRCLE
  8
0
 10
369.659668
 20
1202.85046
 40
7.37735080
  0
CIRCLE
  8
0
 10
475.276703
 20
1202.85046
 40
7.37735080
  0
CIRCLE
  8
0
 10
369.659668
 20
1031.15942
 40
7.37735080
  0
CIRCLE
  8
0
 10
475.276703
 20
1031.15942
 40
7.37735080
  0
CIRCLE
  8
0
 10
369.659668
 20
687.777283
 40
7.37735080
  0
CIRCLE
  8
0
 10
475.276703
 20
687.777283
 40
7.37735080
  0
CIRCLE
  8
0
 10
369.659668
 20
516.086182
 40
7.37735080
  0
CIRCLE
  8
0
 10
475.276703
 20
516.086182
 40
7.37735080
  0
LINE
  8
0
 10
409.054810
 20
1125.64099
 11
409.054810
 21
1271.25220
  0
LINE
  8
0
 10
409.054810
 20
1271.25220
 11
435.881561
 21
1271.25220
  0
LINE
  8
0
 10
435.881561
 20
1271.25220
 11
435.881561
 21
1125.64099
  0
LINE
  8
0
 10
409.054810
 20
591.269653
 11
409.054810
 21
445.658417
  0
LINE
  8
0
 10
409.054810
 20
445.658417
 11
435.881561
 21
445.658417
  0
LINE
  8
0
 10
435.881561
 20
445.658417
 11
435.881561
 21
591.269653
  0
LINE
  8
2
 10
599.265442
 20
428.214661
 11
599.265442
 21
516.086182
  0
INSERT
  8
2
  2
ARROWF
 10
599.265442
 20
428.214661
 41
0.33300000
 42
0.33300000
 43
0.33300000
 50
270.000000
  0
INSERT
  8
2
  2
ARROWF
 10
599.265442
 20
516.086182
 41
0.33300000
 42
0.33300000
 43
0.33300000
 50
89.9999847
  0
LINE
  8
2
 10
579.592590
 20
516.086182
 11
609.101990
 21
516.086182
  0
LINE
  8
2
 10
579.592590
 20
428.214661
 11
609.101990
 21
428.214661
  0
TEXT
  8
11
 7
SIMPLEX
 10
614.020203
 20
457.395721
 40
29.5094052
  1
51
 50
0.00000000
  0
LINE
  8
2
 10
599.265442
 20
516.086182
 11
599.265442
 21
687.777283
  0
INSERT
  8
2
  2
ARROWF
 10
599.265442
 20
516.086182
 41
0.33300000
 42
0.33300000
 43
0.33300000
 50
270.000000
  0
INSERT
  8
2
  2
ARROWF
 10
599.265442
 20
687.777283
 41
0.33300000
 42
0.33300000
 43
0.33300000
 50
89.9999847
  0
LINE
  8
2
 10
579.592590
 20
687.777283
 11
609.101990
 21
687.777283
  0
LINE
  8
2
 10
579.592590
 20
516.086182
 11
609.101990
 21
516.086182
  0
TEXT
  8
11
 7
SIMPLEX
 10
614.020203
 20
587.177063
 40
29.5094052
  1
100
 50
0.00000000
  0
LINE
  8
2
 10
599.265442
 20
687.777283
 11
599.265442
 21
1031.15942
  0
INSERT
  8
2
  2
ARROWF
 10
599.265442
 20
687.777283
 41
0.33300000
 42
0.33300000
 43
0.33300000
 50
270.000000
  0
INSERT
  8
2
  2
ARROWF
 10
599.265442
 20
1031.15942
 41
0.33300000
 42
0.33300000
 43
0.33300000
 50
89.9999847
  0
LINE
  8
2
 10
579.592590
 20
1031.15942
 11
609.101990
 21
1031.15942
  0
LINE
  8
2
 10
579.592590
 20
687.777283
 11
609.101990
 21
687.777283
  0
TEXT
  8
11
 7
SIMPLEX
 10
614.020203
 20
844.713623
 40
29.5094052
  1
200
 50
0.00000000
  0
LINE
  8
2
 10
599.265442
 20
1031.15942
 11
599.265442
 21
1202.85046
  0
INSERT
  8
2
  2
ARROWF
 10
599.265442
 20
1031.15942
 41
0.33300000
 42
0.33300000
 43
0.33300000
 50
270.000000
  0
INSERT
  8
2
  2
ARROWF
 10
599.265442
 20
1202.85046
 41
0.33300000
 42
0.33300000
 43
0.33300000
 50
89.9999847
  0
LINE
  8
2
 10
579.592590
 20
1202.85046
 11
609.101990
 21
1202.85046
  0
LINE
  8
2
 10
579.592590
 20
1031.15942
 11
609.101990
 21
1031.15942
  0
TEXT
  8
11
 7
SIMPLEX
 10
614.020203
 20
1102.25024
 40
29.5094052
  1
100
 50
0.00000000
  0
LINE
  8
2
 10
599.265442
 20
1202.85046
 11
599.265442
 21
1288.69604
  0
INSERT
  8
2
  2
ARROWF
 10
599.265442
 20
1202.85046
 41
0.33300000
 42
0.33300000
 43
0.33300000
 50
270.000000
  0
INSERT
  8
2
  2
ARROWF
 10
599.265442
 20
1288.69604
 41
0.33300000
 42
0.33300000
 43
0.33300000
 50
89.9999847
  0
LINE
  8
2
 10
579.592590
 20
1288.69604
 11
609.101990
 21
1288.69604
  0
LINE
  8
2
 10
579.592590
 20
1202.85046
 11
609.101990
 21
1202.85046
  0
TEXT
  8
11
 7
SIMPLEX
 10
614.020203
 20
1231.01855
 40
29.5094052
  1
50
 50
0.00000000
  0
LINE
  8
2
 10
369.659668
 20
357.034393
 11
475.276703
 21
357.034393
  0
LINE
  8
2
 10
369.659668
 20
376.707336
 11
369.659668
 21
347.197937
  0
LINE
  8
2
 10
475.276703
 20
376.707336
 11
475.276703
 21
347.197937
  0
INSERT
  8
2
  2
ARROWF
 10
369.659668
 20
357.034393
 41
0.33300000
 42
0.33300000
 43
0.33300000
 50
180.000000
  0
INSERT
  8
2
  2
ARROWF
 10
475.276703
 20
357.034393
 41
0.33300000
 42
0.33300000
 43
0.33300000
 50
0.00000000
  0
TEXT
  8
11
 7
SIMPLEX
 10
389.270142
 20
320.147644
 40
29.5094052
  1
100
 50
0.00000000
  0
LINE
  8
2
 10
245.670898
 20
428.214661
 11
245.670898
 21
591.269714
  0
INSERT
  8
2
  2
ARROWF
 10
245.670898
 20
428.214661
 41
0.33300000
 42
0.33300000
 43
0.33300000
 50
270.000000
  0
INSERT
  8
2
  2
ARROWF
 10
245.670898
 20
591.269714
 41
0.33300000
 42
0.33300000
 43
0.33300000
 50
89.9999847
  0
LINE
  8
2
 10
235.834442
 20
591.269714
 11
265.343842
 21
591.269714
  0
LINE
  8
2
 10
235.834442
 20
428.214661
 11
265.343842
 21
428.214661
  0
TEXT
  8
11
 7
SIMPLEX
 10
179.274735
 20
494.987457
 40
29.5094052
  1
95
 72
           2
 11
238.293549
 21
509.742188
 73
           2
 50
   0.000
  0
LINE
  8
2
 10
245.670898
 20
591.269714
 11
245.670898
 21
1125.64099
  0
INSERT
  8
2
  2
ARROWF
 10
245.670898
 20
591.269714
 41
0.33300000
 42
0.33300000
 43
0.33300000
 50
270.000000
  0
INSERT
  8
2
  2
ARROWF
 10
245.670898
 20
1125.64099
 41
0.33300000
 42
0.33300000
 43
0.33300000
 50
89.9999847
  0
LINE
  8
2
 10
235.834442
 20
1125.64099
 11
265.343842
 21
1125.64099
  0
LINE
  8
2
 10
235.834442
 20
591.269714
 11
265.343842
 21
591.269714
  0
TEXT
  8
11
 7
SIMPLEX
 10
208.784149
 20
824.519531
 40
29.5094052
  1
311
 72
           1
 11
238.293549
 21
858.455322
 73
           1
 50
  90.000
  0
LINE
  8
2
 10
245.670898
 20
1125.64099
 11
245.670898
 21
1288.69604
  0
INSERT
  8
2
  2
ARROWF
 10
245.670898
 20
1125.64099
 41
0.33300000
 42
0.33300000
 43
0.33300000
 50
270.000000
  0
INSERT
  8
2
  2
ARROWF
 10
245.670898
 20
1288.69604
 41
0.33300000
 42
0.33300000
 43
0.33300000
 50
89.9999847
  0
LINE
  8
2
 10
235.834442
 20
1288.69604
 11
265.343842
 21
1288.69604
  0
LINE
  8
2
 10
235.834442
 20
1125.64099
 11
265.343842
 21
1125.64099
  0
TEXT
  8
11
 7
SIMPLEX
 10
179.274735
 20
1192.41382
 40
29.5094052
  1
95
 72
           2
 11
238.293549
 21
1207.16858
 73
           2
 50
   0.000
  0
LINE
  8
2
 10
129.958267
 20
428.214661
 11
159.467667
 21
428.214661
  0
LINE
  8
2
 10
129.958267
 20
1288.69604
 11
159.467667
 21
1288.69604
  0
LINE
  8
2
 10
139.794739
 20
428.214661
 11
139.794739
 21
1288.69604
  0
INSERT
  8
2
  2
ARROWF
 10
139.794739
 20
428.214661
 41
0.33300000
 42
0.33300000
 43
0.33300000
 50
270.000000
  0
INSERT
  8
2
  2
ARROWF
 10
139.794739
 20
1288.69604
 41
0.33300000
 42
0.33300000
 43
0.33300000
 50
90.0000000
  0
TEXT
  8
11
 7
SIMPLEX
 10
132.417389
 20
825.257263
 40
29.5094052
  1
501
 50
90.0000000
  0
LINE
  8
2
 10
316.851135
 20
1359.87622
 11
528.085266
 21
1359.87622
  0
LINE
  8
2
 10
316.851135
 20
1369.71277
 11
316.851135
 21
1340.20337
  0
LINE
  8
2
 10
528.085266
 20
1369.71277
 11
528.085266
 21
1340.20337
  0
INSERT
  8
2
  2
ARROWF
 10
316.851135
 20
1359.87622
 41
0.33300000
 42
0.33300000
 43
0.33300000
 50
180.000000
  0
INSERT
  8
2
  2
ARROWF
 10
528.085266
 20
1359.87622
 41
0.33300000
 42
0.33300000
 43
0.33300000
 50
0.00000000
  0
TEXT
  8
11
 7
SIMPLEX
 10
389.270142
 20
1367.25354
 40
29.5094052
  1
200
 50
0.00000000
  0
LINE
  8
0
 10
343.255402
 20
591.269714
 11
501.681000
 21
591.269714
  0
LINE
  8
0
 10
343.255402
 20
618.096497
 11
501.681000
 21
618.096497
  0
LINE
  8
0
 10
343.255402
 20
591.269714
 11
343.255402
 21
618.096497
  0
LINE
  8
0
 10
501.681000
 20
591.269714
 11
501.681000
 21
618.096497
  0
LINE
  8
0
 10
343.255402
 20
1125.64099
 11
501.681000
 21
1125.64099
  0
LINE
  8
0
 10
343.255402
 20
1098.81421
 11
501.681000
 21
1098.81421
  0
LINE
  8
0
 10
343.255402
 20
1125.64099
 11
343.255402
 21
1098.81421
  0
LINE
  8
0
 10
501.681000
 20
1125.64099
 11
501.681000
 21
1098.81421
  0
LINE
  8
0
 10
435.881561
 20
618.096497
 11
435.881561
 21
1098.81421
  0
LINE
  8
0
 10
409.054810
 20
618.096497
 11
409.054810
 21
1098.81421
  0
ENDBLK
  8
0
  0
BLOCK
  8
0
  2
EPBLK3
 70
     0
 10
0.00000000
 20
0.00000000
  0
LINE
  8
0
 10
0.00000000
 20
0.00000000
 11
0.00000000
 21
1716.91077
  0
LINE
  8
0
 10
0.00000000
 20
1716.91077
 11
844.936401
 21
1716.91077
  0
LINE
  8
0
 10
0.00000000
 20
0.00000000
 11
844.936401
 21
0.00000000
  0
LINE
  8
0
 10
844.936401
 20
1716.91077
 11
844.936401
 21
0.00000000
  0
TEXT
  8
11
 7
SIMPLEX
 10
14.7547026
 20
1672.64661
 40
29.5094052
  1
Bolt Dia=
 50
0.00000000
  0
TEXT
  8
11
 7
SIMPLEX
 10
14.7547026
 20
1635.75989
 40
29.5094052
  1
Plate Thk=
 50
0.00000000
  0
TEXT
  8
11
 7
SIMPLEX
 10
311.118713
 20
1672.64661
 40
29.5094052
  1
24
 50
0.00000000
  0
TEXT
  8
11
 7
SIMPLEX
 10
311.118713
 20
1635.75989
 40
29.5094052
  1
16
 50
0.00000000
  0
TEXT
  8
11
 7
SIMPLEX
 10
29.5094052
 20
14.7547026
 40
29.5094052
  1
BP1
 50
0.00000000
  0
LINE
  8
0
 10
316.851135
 20
252.815094
 11
316.851135
 21
1464.09546
  0
LINE
  8
0
 10
316.851135
 20
1464.09546
 11
528.085266
 21
1464.09546
  0
LINE
  8
0
 10
528.085266
 20
1464.09546
 11
528.085266
 21
252.815094
  0
LINE
  8
0
 10
316.851135
 20
252.815094
 11
528.085266
 21
252.815094
  0
CIRCLE
  8
0
 10
369.659668
 20
1335.32727
 40
7.37735080
  0
CIRCLE
  8
0
 10
475.276703
 20
1335.32727
 40
7.37735080
  0
CIRCLE
  8
0
 10
369.659668
 20
1077.79065
 40
7.37735080
  0
CIRCLE
  8
0
 10
475.276703
 20
1077.79065
 40
7.37735080
  0
CIRCLE
  8
0
 10
369.659668
 20
639.119995
 40
7.37735080
  0
CIRCLE
  8
0
 10
475.276703
 20
639.119995
 40
7.37735080
  0
CIRCLE
  8
0
 10
369.659668
 20
381.583313
 40
7.37735080
  0
CIRCLE
  8
0
 10
475.276703
 20
381.583313
 40
7.37735080
  0
LINE
  8
0
 10
409.054810
 20
1210.85132
 11
409.054810
 21
1446.65173
  0
LINE
  8
0
 10
409.054810
 20
1446.65173
 11
435.881561
 21
1446.65173
  0
LINE
  8
0
 10
435.881561
 20
1446.65173
 11
435.881561
 21
1210.85132
  0
LINE
  8
0
 10
409.054810
 20
505.200928
 11
409.054810
 21
270.258911
  0
LINE
  8
0
 10
409.054810
 20
270.258911
 11
435.881561
 21
270.258911
  0
LINE
  8
0
 10
435.881561
 20
270.258911
 11
435.881561
 21
505.200928
  0
LINE
  8
2
 10
599.265442
 20
252.815094
 11
599.265442
 21
381.583313
  0
INSERT
  8
2
  2
ARROWF
 10
599.265442
 20
252.815094
 41
0.33300000
 42
0.33300000
 43
0.33300000
 50
270.000000
  0
INSERT
  8
2
  2
ARROWF
 10
599.265442
 20
381.583313
 41
0.33300000
 42
0.33300000
 43
0.33300000
 50
89.9999847
  0
LINE
  8
2
 10
579.592590
 20
381.583313
 11
609.101990
 21
381.583313
  0
LINE
  8
2
 10
579.592590
 20
252.815094
 11
609.101990
 21
252.815094
  0
TEXT
  8
11
 7
SIMPLEX
 10
614.020203
 20
302.444519
 40
29.5094052
  1
75
 50
0.00000000
  0
LINE
  8
2
 10
599.265442
 20
381.583313
 11
599.265442
 21
639.119995
  0
INSERT
  8
2
  2
ARROWF
 10
599.265442
 20
381.583313
 41
0.33300000
 42
0.33300000
 43
0.33300000
 50
270.000000
  0
INSERT
  8
2
  2
ARROWF
 10
599.265442
 20
639.119995
 41
0.33300000
 42
0.33300000
 43
0.33300000
 50
89.9999847
  0
LINE
  8
2
 10
579.592590
 20
639.119995
 11
609.101990
 21
639.119995
  0
LINE
  8
2
 10
579.592590
 20
381.583313
 11
609.101990
 21
381.583313
  0
TEXT
  8
11
 7
SIMPLEX
 10
614.020203
 20
495.596985
 40
29.5094052
  1
150
 50
0.00000000
  0
LINE
  8
2
 10
599.265442
 20
639.119995
 11
599.265442
 21
1077.79065
  0
INSERT
  8
2
  2
ARROWF
 10
599.265442
 20
639.119995
 41
0.33300000
 42
0.33300000
 43
0.33300000
 50
270.000000
  0
INSERT
  8
2
  2
ARROWF
 10
599.265442
 20
1077.79065
 41
0.33300000
 42
0.33300000
 43
0.33300000
 50
89.9999847
  0
LINE
  8
2
 10
579.592590
 20
1077.79065
 11
609.101990
 21
1077.79065
  0
LINE
  8
2
 10
579.592590
 20
639.119995
 11
609.101990
 21
639.119995
  0
TEXT
  8
11
 7
SIMPLEX
 10
614.020203
 20
843.700623
 40
29.5094052
  1
256
 50
0.00000000
  0
LINE
  8
2
 10
599.265442
 20
1077.79065
 11
599.265442
 21
1335.32727
  0
INSERT
  8
2
  2
ARROWF
 10
599.265442
 20
1077.79065
 41
0.33300000
 42
0.33300000
 43
0.33300000
 50
270.000000
  0
INSERT
  8
2
  2
ARROWF
 10
599.265442
 20
1335.32727
 41
0.33300000
 42
0.33300000
 43
0.33300000
 50
89.9999847
  0
LINE
  8
2
 10
579.592590
 20
1335.32727
 11
609.101990
 21
1335.32727
  0
LINE
  8
2
 10
579.592590
 20
1077.79065
 11
609.101990
 21
1077.79065
  0
TEXT
  8
11
 7
SIMPLEX
 10
614.020203
 20
1191.80432
 40
29.5094052
  1
150
 50
0.00000000
  0
LINE
  8
2
 10
599.265442
 20
1335.32727
 11
599.265442
 21
1464.09546
  0
INSERT
  8
2
  2
ARROWF
 10
599.265442
 20
1335.32727
 41
0.33300000
 42
0.33300000
 43
0.33300000
 50
270.000000
  0
INSERT
  8
2
  2
ARROWF
 10
599.265442
 20
1464.09546
 41
0.33300000
 42
0.33300000
 43
0.33300000
 50
89.9999847
  0
LINE
  8
2
 10
579.592590
 20
1464.09546
 11
609.101990
 21
1464.09546
  0
LINE
  8
2
 10
579.592590
 20
1335.32727
 11
609.101990
 21
1335.32727
  0
TEXT
  8
11
 7
SIMPLEX
 10
614.020203
 20
1384.95667
 40
29.5094052
  1
75
 50
0.00000000
  0
LINE
  8
2
 10
369.659668
 20
181.634827
 11
475.276703
 21
181.634827
  0
LINE
  8
2
 10
369.659668
 20
201.307770
 11
369.659668
 21
171.798370
  0
LINE
  8
2
 10
475.276703
 20
201.307770
 11
475.276703
 21
171.798370
  0
INSERT
  8
2
  2
ARROWF
 10
369.659668
 20
181.634827
 41
0.33300000
 42
0.33300000
 43
0.33300000
 50
180.000000
  0
INSERT
  8
2
  2
ARROWF
 10
475.276703
 20
181.634827
 41
0.33300000
 42
0.33300000
 43
0.33300000
 50
0.00000000
  0
TEXT
  8
11
 7
SIMPLEX
 10
389.270142
 20
144.748077
 40
29.5094052
  1
100
 50
0.00000000
  0
LINE
  8
2
 10
245.670898
 20
252.815094
 11
245.670898
 21
505.200928
  0
INSERT
  8
2
  2
ARROWF
 10
245.670898
 20
252.815094
 41
0.33300000
 42
0.33300000
 43
0.33300000
 50
270.000000
  0
INSERT
  8
2
  2
ARROWF
 10
245.670898
 20
505.200928
 41
0.33300000
 42
0.33300000
 43
0.33300000
 50
89.9999847
  0
LINE
  8
2
 10
235.834442
 20
505.200928
 11
265.343842
 21
505.200928
  0
LINE
  8
2
 10
235.834442
 20
252.815094
 11
265.343842
 21
252.815094
  0
TEXT
  8
11
 7
SIMPLEX
 10
160.093613
 20
364.253326
 40
29.5094052
  1
147
 72
           2
 11
238.293549
 21
379.008026
 73
           2
 50
   0.000
  0
LINE
  8
2
 10
245.670898
 20
505.200928
 11
245.670898
 21
1210.85132
  0
INSERT
  8
2
  2
ARROWF
 10
245.670898
 20
505.200928
 41
0.33300000
 42
0.33300000
 43
0.33300000
 50
270.000000
  0
INSERT
  8
2
  2
ARROWF
 10
245.670898
 20
1210.85132
 41
0.33300000
 42
0.33300000
 43
0.33300000
 50
89.9999847
  0
LINE
  8
2
 10
235.834442
 20
1210.85132
 11
265.343842
 21
1210.85132
  0
LINE
  8
2
 10
235.834442
 20
505.200928
 11
265.343842
 21
505.200928
  0
TEXT
  8
11
 7
SIMPLEX
 10
208.784149
 20
824.090210
 40
29.5094052
  1
411
 72
           1
 11
238.293549
 21
858.026123
 73
           1
 50
  90.000
  0
LINE
  8
2
 10
245.670898
 20
1210.85132
 11
245.670898
 21
1464.09546
  0
INSERT
  8
2
  2
ARROWF
 10
245.670898
 20
1210.85132
 41
0.33300000
 42
0.33300000
 43
0.33300000
 50
270.000000
  0
INSERT
  8
2
  2
ARROWF
 10
245.670898
 20
1464.09546
 41
0.33300000
 42
0.33300000
 43
0.33300000
 50
89.9999847
  0
LINE
  8
2
 10
235.834442
 20
1464.09546
 11
265.343842
 21
1464.09546
  0
LINE
  8
2
 10
235.834442
 20
1210.85132
 11
265.343842
 21
1210.85132
  0
TEXT
  8
11
 7
SIMPLEX
 10
160.093613
 20
1322.71863
 40
29.5094052
  1
148
 72
           2
 11
238.293549
 21
1337.47339
 73
           2
 50
   0.000
  0
LINE
  8
2
 10
129.958267
 20
252.815094
 11
159.467667
 21
252.815094
  0
LINE
  8
2
 10
129.958267
 20
1464.09546
 11
159.467667
 21
1464.09546
  0
LINE
  8
2
 10
139.794739
 20
252.815094
 11
139.794739
 21
1464.09546
  0
INSERT
  8
2
  2
ARROWF
 10
139.794739
 20
252.815094
 41
0.33300000
 42
0.33300000
 43
0.33300000
 50
270.000000
  0
INSERT
  8
2
  2
ARROWF
 10
139.794739
 20
1464.09546
 41
0.33300000
 42
0.33300000
 43
0.33300000
 50
90.0000000
  0
TEXT
  8
11
 7
SIMPLEX
 10
132.417389
 20
825.257263
 40
29.5094052
  1
706
 50
90.0000000
  0
LINE
  8
2
 10
316.851135
 20
1535.27588
 11
528.085266
 21
1535.27588
  0
LINE
  8
2
 10
316.851135
 20
1545.11230
 11
316.851135
 21
1515.60291
  0
LINE
  8
2
 10
528.085266
 20
1545.11230
 11
528.085266
 21
1515.60291
  0
INSERT
  8
2
  2
ARROWF
 10
316.851135
 20
1535.27588
 41
0.33300000
 42
0.33300000
 43
0.33300000
 50
180.000000
  0
INSERT
  8
2
  2
ARROWF
 10
528.085266
 20
1535.27588
 41
0.33300000
 42
0.33300000
 43
0.33300000
 50
0.00000000
  0
TEXT
  8
11
 7
SIMPLEX
 10
389.270142
 20
1542.65308
 40
29.5094052
  1
200
 50
0.00000000
  0
LINE
  8
0
 10
343.255402
 20
505.200928
 11
501.681000
 21
505.200928
  0
LINE
  8
0
 10
343.255402
 20
532.027710
 11
501.681000
 21
532.027710
  0
LINE
  8
0
 10
343.255402
 20
505.200928
 11
343.255402
 21
532.027710
  0
LINE
  8
0
 10
501.681000
 20
505.200928
 11
501.681000
 21
532.027710
  0
LINE
  8
0
 10
343.255402
 20
1210.85132
 11
501.681000
 21
1210.85132
  0
LINE
  8
0
 10
343.255402
 20
1184.02454
 11
501.681000
 21
1184.02454
  0
LINE
  8
0
 10
343.255402
 20
1210.85132
 11
343.255402
 21
1184.02454
  0
LINE
  8
0
 10
501.681000
 20
1210.85132
 11
501.681000
 21
1184.02454
  0
LINE
  8
0
 10
435.881561
 20
532.027710
 11
435.881561
 21
1184.02454
  0
LINE
  8
0
 10
409.054810
 20
532.027710
 11
409.054810
 21
1184.02454
  0
ENDBLK
  8
0
  0
BLOCK
  8
1
  2
RF2TBL
 70
     0
 10
0.00000000
 20
0.00000000
  0
TEXT
  8
14
 7
SIMPLEX
 10
-9797.1211
 20
-147.54701
 40
118.037613
  1
MEMBER TABLE
 50
0.00000000
  0
TEXT
  8
14
 7
SIMPLEX
 10
-9797.1211
 20
-442.64099
 40
118.037613
  1
Mark
 50
0.00000000
  0
TEXT
  8
14
 7
SIMPLEX
 10
-8911.8398
 20
-324.60339
 40
118.037613
  1
Web Depth
 50
0.00000000
  0
TEXT
  8
14
 7
SIMPLEX
 10
-8852.8203
 20
-501.65985
 40
118.037613
  1
Start/End
 50
0.00000000
  0
TEXT
  8
14
 7
SIMPLEX
 10
-7554.4072
 20
-324.60339
 40
118.037613
  1
Web Plate
 50
0.00000000
  0
TEXT
  8
14
 7
SIMPLEX
 10
-7672.4448
 20
-501.65985
 40
118.037613
  1
Thick
 50
0.00000000
  0
TEXT
  8
14
 7
SIMPLEX
 10
-7023.2378
 20
-501.65985
 40
118.037613
  1
Length
 50
0.00000000
  0
TEXT
  8
14
 7
SIMPLEX
 10
-5547.7681
 20
-324.60339
 40
118.037613
  1
Outside Flange
 50
0.00000000
  0
TEXT
  8
14
 7
SIMPLEX
 10
-5547.7681
 20
-501.65985
 40
118.037613
  1
W x Thk x Length
 50
0.00000000
  0
TEXT
  8
14
 7
SIMPLEX
 10
-2714.8652
 20
-324.60339
 40
118.037613
  1
Inside Flange
 50
0.00000000
  0
TEXT
  8
14
 7
SIMPLEX
 10
-2714.8652
 20
-501.65985
 40
118.037613
  1
W x Thk x Length
 50
0.00000000
  0
TEXT
  8
26
 7
SIMPLEX
 10
-9797.1211
 20
-678.71625
 40
118.037613
  1
 CL2-1
 50
0.00000000
  0
TEXT
  8
26
 7
SIMPLEX
 10
-8852.8203
 20
-678.71625
 40
118.037613
  1
 400/ 400
 50
0.00000000
  0
TEXT
  8
26
 7
SIMPLEX
 10
-7731.4634
 20
-678.71625
 40
118.037613
  1
    5
 50
0.00000000
  0
TEXT
  8
26
 7
SIMPLEX
 10
-7023.2378
 20
-678.71625
 40
118.037613
  1
 9017
 50
0.00000000
  0
TEXT
  8
26
 7
SIMPLEX
 10
-5488.7490
 20
-678.71625
 40
118.037613
  1
150 x 5 x 9017
 50
0.00000000
  0
TEXT
  8
26
 7
SIMPLEX
 10
-2655.8462
 20
-678.71625
 40
118.037613
  1
150 x 6 x 9017
 50
0.00000000
  0
TEXT
  8
26
 7
SIMPLEX
 10
-2655.8462
 20
-855.77264
 40
118.037613
  1
125 x 5 x 5383
 50
0.00000000
  0
TEXT
  8
26
 7
SIMPLEX
 10
-5488.7490
 20
-855.77264
 40
118.037613
  1
125 x 5 x 352
 50
0.00000000
  0
TEXT
  8
26
 7
SIMPLEX
 10
-5488.7490
 20
-1032.8291
 40
118.037613
  1
125 x 5 x 6104
 50
0.00000000
  0
TEXT
  8
26
 7
SIMPLEX
 10
-9797.1211
 20
-855.77264
 40
118.037613
  1
 RF2-2
 50
0.00000000
  0
TEXT
  8
26
 7
SIMPLEX
 10
-8852.8203
 20
-855.77264
 40
118.037613
  1
 401/ 300
 50
0.00000000
  0
TEXT
  8
26
 7
SIMPLEX
 10
-7731.4634
 20
-855.77264
 40
118.037613
  1
    4
 50
0.00000000
  0
TEXT
  8
26
 7
SIMPLEX
 10
-7023.2378
 20
-855.77264
 40
118.037613
  1
 5913
 50
0.00000000
  0
TEXT
  8
26
 7
SIMPLEX
 10
-2655.8462
 20
-1209.8855
 40
118.037613
  1
150 x 6 x 9017
 50
0.00000000
  0
TEXT
  8
26
 7
SIMPLEX
 10
-5488.7490
 20
-1209.8855
 40
118.037613
  1
150 x 5 x 9017
 50
0.00000000
  0
TEXT
  8
26
 7
SIMPLEX
 10
-9797.1211
 20
-1209.8855
 40
118.037613
  1
 CL2-3
 50
0.00000000
  0
TEXT
  8
26
 7
SIMPLEX
 10
-8852.8203
 20
-1209.8855
 40
118.037613
  1
 400/ 400
 50
0.00000000
  0
TEXT
  8
26
 7
SIMPLEX
 10
-7731.4634
 20
-1209.8855
 40
118.037613
  1
    5
 50
0.00000000
  0
TEXT
  8
26
 7
SIMPLEX
 10
-7023.2378
 20
-1209.8855
 40
118.037613
  1
 9017
 50
0.00000000
  0
LINE
  8
0
 10
-9915.1592
 20
-1239.3949
 11
0.00000000
 21
-1239.3949
  0
LINE
  8
0
 10
-9915.1592
 20
0.00000000
 11
-9915.1592
 21
-1239.3949
  0
LINE
  8
0
 10
0.00000000
 20
0.00000000
 11
0.00000000
 21
-1239.3949
  0
LINE
  8
0
 10
-9915.1592
 20
0.00000000
 11
0.00000000
 21
0.00000000
  0
LINE
  8
0
 10
-9915.1592
 20
-1239.3949
 11
0.00000000
 21
-1239.3949
  0
LINE
  8
0
 10
-9915.1592
 20
-177.05643
 11
0.00000000
 21
-177.05643
  0
LINE
  8
0
 10
-8970.8584
 20
-177.05643
 11
-8970.8584
 21
-1239.3949
  0
LINE
  8
0
 10
-7790.4824
 20
-177.05643
 11
-7790.4824
 21
-1239.3949
  0
LINE
  8
0
 10
-5606.7866
 20
-177.05643
 11
-5606.7866
 21
-1239.3949
  0
LINE
  8
0
 10
-2773.8840
 20
-177.05643
 11
-2773.8840
 21
-1239.3949
  0
LINE
  8
0
 10
-9915.1592
 20
-177.05643
 11
-9915.1592
 21
-1239.3949
  0
LINE
  8
0
 10
-9915.1592
 20
-177.05643
 11
-9915.1592
 21
-1239.3949
  0
LINE
  8
0
 10
-9915.1592
 20
-177.05643
 11
-9915.1592
 21
-1239.3949
  0
LINE
  8
0
 10
-8970.8584
 20
-354.11285
 11
-5606.7866
 21
-354.11285
  0
LINE
  8
0
 10
-7141.2754
 20
-354.11285
 11
-7141.2754
 21
-1239.3949
  0
LINE
  8
0
 10
-9915.1592
 20
-531.16919
 11
0.00000000
 21
-531.16919
  0
ENDBLK
  8
1
  0
BLOCK
  8
1
  2
RF2BLT1
 70
     0
 10
0.00000000
 20
22.8599987
  0
LINE
  8
3
 10
0.00000000
 20
22.8599987
 11
134.620010
 21
22.8599987
  0
LINE
  8
3
 10
0.00000000
 20
17.7799988
 11
134.620010
 21
17.7799988
  0
LINE
  8
3
 10
0.00000000
 20
8.88999936
 11
134.620010
 21
8.88999936
  0
LINE
  8
3
 10
0.00000000
 20
0.00000000
 11
134.620010
 21
0.00000000
  0
LINE
  8
3
 10
0.00000000
 20
0.00000000
 11
134.620010
 21
0.00000000
  0
LINE
  8
3
 10
0.00000000
 20
22.8599987
 11
0.00000000
 21
0.00000000
  0
LINE
  8
3
 10
134.620010
 20
0.00000000
 11
134.620010
 21
22.8599987
  0
LINE
  8
3
 10
20.3199997
 20
17.7799988
 11
20.3199997
 21
0.00000000
  0
LINE
  8
3
 10
88.9000015
 20
17.7799988
 11
88.9000015
 21
0.00000000
  0
TEXT
  8
1
 7
SIMPLEX
 10
2.53999996
 20
19.0499992
 40
2.53999996
  1
SPLICE PLATES & BOLTS
 50
0.00000000
  0
TEXT
  8
1
 7
SIMPLEX
 10
2.53999996
 20
13.9699984
 40
2.53999996
  1
Splice
 50
0.00000000
  0
TEXT
  8
1
 7
SIMPLEX
 10
2.53999996
 20
10.1599989
 40
2.53999996
  1
Mark
 50
0.00000000
  0
TEXT
  8
1
 7
SIMPLEX
 10
22.8600006
 20
13.9699984
 40
2.53999996
  1
Quan
 50
0.00000000
  0
TEXT
  8
1
 7
SIMPLEX
 10
21.5900002
 20
10.1599989
 40
2.53999996
  1
Top/Bot/Int
 50
0.00000000
  0
TEXT
  8
1
 7
SIMPLEX
 10
48.2599983
 20
10.1599989
 40
2.53999996
  1
Type
 50
0.00000000
  0
TEXT
  8
1
 7
SIMPLEX
 10
63.5000000
 20
10.1599989
 40
2.53999996
  1
Dia
 50
0.00000000
  0
TEXT
  8
1
 7
SIMPLEX
 10
78.7400055
 20
10.1599989
 40
2.53999996
  1
Len
 50
0.00000000
  0
TEXT
  8
1
 7
SIMPLEX
 10
48.2599983
 20
13.9699984
 40
2.53999996
  1
-----Bolt-----
 50
0.00000000
  0
TEXT
  8
1
 7
SIMPLEX
 10
91.4400025
 20
10.1599989
 40
2.53999996
  1
Wid
 50
0.00000000
  0
TEXT
  8
1
 7
SIMPLEX
 10
105.410004
 20
10.1599989
 40
2.53999996
  1
Thick
 50
0.00000000
  0
TEXT
  8
1
 7
SIMPLEX
 10
119.380005
 20
10.1599989
 40
2.53999996
  1
Length
 50
0.00000000
  0
TEXT
  8
1
 7
SIMPLEX
 10
99.0599976
 20
13.9699984
 40
2.53999996
  1
Plate Size
 50
0.00000000
  0
TEXT
  8
1
 7
SIMPLEX
 10
2.53999996
 20
5.07999945
 40
2.53999996
  1
SP1
 50
0.00000000
  0
TEXT
  8
1
 7
SIMPLEX
 10
22.8600006
 20
5.07999945
 40
2.53999996
  1
   4
 50
0.00000000
  0
TEXT
  8
1
 7
SIMPLEX
 10
31.7500000
 20
5.07999945
 40
2.53999996
  1
   4
 50
0.00000000
  0
TEXT
  8
1
 7
SIMPLEX
 10
40.6399994
 20
5.07999945
 40
2.53999996
  1
   0
 50
0.00000000
  0
TEXT
  8
1
 7
SIMPLEX
 10
48.2599983
 20
5.07999945
 40
2.53999996
  1
Gr8.8
 50
0.00000000
  0
TEXT
  8
1
 7
SIMPLEX
 10
62.2299957
 20
5.07999945
 40
2.53999996
  1
        20
 50
0.00000000
  0
TEXT
  8
1
 7
SIMPLEX
 10
76.1999970
 20
5.07999945
 40
2.53999996
  1
        90
 50
0.00000000
  0
TEXT
  8
1
 7
SIMPLEX
 10
91.4400025
 20
5.07999945
 40
2.53999996
  1
       200
 50
0.00000000
  0
TEXT
  8
1
 7
SIMPLEX
 10
105.410004
 20
5.07999945
 40
2.53999996
  1
        16
 50
0.00000000
  0
TEXT
  8
1
 7
SIMPLEX
 10
119.380005
 20
5.07999945
 40
2.53999996
  1
       600
 50
0.00000000
  0
TEXT
  8
1
 7
SIMPLEX
 10
2.53999996
 20
1.26999950
 40
2.53999996
  1
SP2
 50
0.00000000
  0
TEXT
  8
1
 7
SIMPLEX
 10
22.8600006
 20
1.26999950
 40
2.53999996
  1
   4
 50
0.00000000
  0
TEXT
  8
1
 7
SIMPLEX
 10
31.7500000
 20
1.26999950
 40
2.53999996
  1
   4
 50
0.00000000
  0
TEXT
  8
1
 7
SIMPLEX
 10
40.6399994
 20
1.26999950
 40
2.53999996
  1
   0
 50
0.00000000
  0
TEXT
  8
1
 7
SIMPLEX
 10
48.2599983
 20
1.26999950
 40
2.53999996
  1
Gr8.8
 50
0.00000000
  0
TEXT
  8
1
 7
SIMPLEX
 10
62.2299957
 20
1.26999950
 40
2.53999996
  1
        20
 50
0.00000000
  0
TEXT
  8
1
 7
SIMPLEX
 10
76.1999970
 20
1.26999950
 40
2.53999996
  1
        90
 50
0.00000000
  0
TEXT
  8
1
 7
SIMPLEX
 10
91.4400025
 20
1.26999950
 40
2.53999996
  1
       200
 50
0.00000000
  0
TEXT
  8
1
 7
SIMPLEX
 10
105.410004
 20
1.26999950
 40
2.53999996
  1
        16
 50
0.00000000
  0
TEXT
  8
1
 7
SIMPLEX
 10
119.380005
 20
1.26999950
 40
2.53999996
  1
       501
 50
0.00000000
  0
ENDBLK
  8
1
  0
BLOCK
  8
1
  2
RF2ID
 70
     0
 10
0.00000000
 20
0.00000000
  0
TEXT
  8
14
 7
SIMPLEX
 10
118.037613
 20
-147.54701
 40
118.037613
  1
ALTERNATE MEMBER
 50
0.00000000
  0
TEXT
  8
14
 7
SIMPLEX
 10
118.037613
 20
-324.60342
 40
118.037613
  1
Frame
 50
0.00000000
  0
TEXT
  8
14
 7
SIMPLEX
 10
118.037613
 20
-501.65985
 40
118.037613
  1
Line
 50
0.00000000
  0
CIRCLE
  8
14
 10
1003.31976
 20
-442.64099
 40
59.0188103
  0
TEXT
  8
14
 7
SIMPLEX
 10
1091.84790
 20
-501.65985
 40
118.037613
  1
ID
 50
0.00000000
  0
TEXT
  8
14
 7
SIMPLEX
 10
1416.45142
 20
-501.65985
 40
118.037613
  1
Mark
 50
0.00000000
  0
LINE
  8
0
 10
0.00000000
 20
-531.16919
 11
2478.78979
 21
-531.16919
  0
LINE
  8
0
 10
0.00000000
 20
0.00000000
 11
2478.78979
 21
0.00000000
  0
LINE
  8
0
 10
0.00000000
 20
-531.16919
 11
2478.78979
 21
-531.16919
  0
TEXT
  8
26
 7
SIMPLEX
 10
118.037613
 20
-678.71625
 40
118.037613
  1
6
 50
0.00000000
  0
TEXT
  8
26
 7
SIMPLEX
 10
944.300903
 20
-678.71625
 40
118.037613
  1
A
 50
0.00000000
  0
TEXT
  8
26
 7
SIMPLEX
 10
1416.45142
 20
-678.71625
 40
118.037613
  1
 CL2-3
 50
0.00000000
  0
TEXT
  8
26
 7
SIMPLEX
 10
944.300903
 20
-855.77264
 40
118.037613
  1
B
 50
0.00000000
  0
TEXT
  8
26
 7
SIMPLEX
 10
1416.45142
 20
-855.77264
 40
118.037613
  1
 CL2-1
 50
0.00000000
  0
LINE
  8
0
 10
0.00000000
 20
-885.28210
 11
2478.78979
 21
-885.28210
  0
LINE
  8
0
 10
0.00000000
 20
-885.28210
 11
2478.78979
 21
-885.28210
  0
LINE
  8
0
 10
0.00000000
 20
0.00000000
 11
0.00000000
 21
-885.28210
  0
LINE
  8
0
 10
2478.78979
 20
0.00000000
 11
2478.78979
 21
-885.28210
  0
LINE
  8
0
 10
0.00000000
 20
-177.05643
 11
2478.78979
 21
-177.05643
  0
LINE
  8
0
 10
0.00000000
 20
-885.28210
 11
2478.78979
 21
-885.28210
  0
LINE
  8
0
 10
0.00000000
 20
-177.05643
 11
2478.78979
 21
-177.05643
  0
LINE
  8
0
 10
826.263306
 20
-177.05643
 11
826.263306
 21
-885.28210
  0
LINE
  8
0
 10
1298.41370
 20
-177.05643
 11
1298.41370
 21
-885.28210
  0
ENDBLK
  8
1
  0
BLOCK
  8
1
  2
RF2FBR
 70
     0
 10
0.00000000
 20
0.00000000
  0
INSERT
  8
0
  2
MARKER
 10
180.597549
 20
-354.11285
 41
0.80000000
 42
0.80000000
 43
0.80000000
 50
0.00000000
  0
TEXT
  8
14
 7
SIMPLEX
 10
334.046417
 20
-354.11285
 40
118.037613
  1
FLANGE BRACES: FBxx (1 or 2)
 50
0.00000000
  0
TEXT
  8
14
 7
SIMPLEX
 10
334.046417
 20
-531.16919
 40
118.037613
  1
  xx=length(mm)
 50
0.00000000
  0
TEXT
  8
14
 7
SIMPLEX
 10
334.046417
 20
-708.22571
 40
118.037613
  1
  (1) One Side; (2) Two Sides
 50
0.00000000
  0
TEXT
  8
14
 7
SIMPLEX
 10
334.046417
 20
-944.30090
 40
118.037613
  1
A - L40X40X4
 50
0.00000000
  0
ENDBLK
  8
1
  0
ENDSEC
  0
SECTION
  2
ENTITIES
  0
LINE
  8
22
 10
0.00000000
 20
0.00000000
 11
28389.8633
 21
0.00000000
  0
LINE
  8
22
 10
28389.8633
 20
0.00000000
 11
28389.8633
 21
20075.6895
  0
LINE
  8
22
 10
28389.8633
 20
20075.6895
 11
0.00000000
 21
20075.6895
  0
LINE
  8
22
 10
0.00000000
 20
20075.6895
 11
0.00000000
 21
0.00000000
  0
LINE
  8
0
 10
17573.3223
 20
0.00000000
 11
17573.3223
 21
1802.75635
  0
LINE
  8
0
 10
17573.3223
 20
1802.75635
 11
28389.8633
 21
1802.75635
  0
LINE
  8
0
 10
17573.3223
 20
0.00000000
 11
28389.8633
 21
0.00000000
  0
LINE
  8
0
 10
28389.8633
 20
0.00000000
 11
28389.8633
 21
1802.75635
  0
LINE
  8
0
 10
17573.3223
 20
686.764343
 11
28389.8633
 21
686.764343
  0
LINE
  8
0
 10
17573.3223
 20
1030.14648
 11
28389.8633
 21
1030.14648
  0
LINE
  8
0
 10
17573.3223
 20
1373.52869
 11
28389.8633
 21
1373.52869
  0
LINE
  8
0
 10
19118.5410
 20
0.00000000
 11
19118.5410
 21
1373.52869
  0
LINE
  8
0
 10
22981.5918
 20
0.00000000
 11
22981.5918
 21
1373.52869
  0
LINE
  8
0
 10
22981.5918
 20
343.382172
 11
28389.8633
 21
343.382172
  0
LINE
  8
0
 10
24870.1934
 20
1030.14648
 11
24870.1934
 21
686.764343
  0
LINE
  8
0
 10
26587.1055
 20
1030.14648
 11
26587.1055
 21
686.764343
  0
LINE
  8
0
 10
25728.6484
 20
686.764343
 11
25728.6484
 21
343.382172
  0
TEXT
  8
14
 7
SIMPLEX
 10
17745.0137
 20
1115.99207
 40
171.691086
  1
PROJECT
 50
0.00000000
  0
TEXT
  8
14
 7
SIMPLEX
 10
17745.0137
 20
772.609863
 40
171.691086
  1
ID
 50
0.00000000
  0
TEXT
  8
14
 7
SIMPLEX
 10
17745.0137
 20
429.227722
 40
171.691086
  1
PROJECT
 50
0.00000000
  0
TEXT
  8
14
 7
SIMPLEX
 10
17745.0137
 20
85.8455429
 40
171.691086
  1
ADDRESS
 50
0.00000000
  0
TEXT
  8
14
 7
SIMPLEX
 10
19290.2324
 20
1115.99207
 40
171.691086
  1
Proposed Warehouse
 50
0.00000000
  0
TEXT
  8
14
 7
SIMPLEX
 10
19290.2324
 20
772.609863
 40
171.691086
  1
C163-127
 50
0.00000000
  0
TEXT
  8
14
 7
SIMPLEX
 10
19290.2324
 20
429.227722
 40
171.691086
  1
Proposed Warehouse
 50
0.00000000
  0
TEXT
  8
14
 7
SIMPLEX
 10
19290.2324
 20
85.8455429
 40
171.691086
  1
 
 50
0.00000000
  0
TEXT
  8
14
 7
SIMPLEX
 10
19805.3047
 20
1459.37402
 40
257.536621
  1
Sivoko Steel Structures Ltd.
 50
0.00000000
  0
TEXT
  8
14
 7
SIMPLEX
 10
23153.2832
 20
1115.99207
 40
171.691086
  1
RIGID FRAME ELEVATION
 50
0.00000000
  0
TEXT
  8
14
 7
SIMPLEX
 10
23153.2832
 20
772.609863
 40
171.691086
  1
DESIGN:
 50
0.00000000
  0
TEXT
  8
14
 7
SIMPLEX
 10
23153.2832
 20
429.227722
 40
171.691086
  1
DATE:
 50
0.00000000
  0
TEXT
  8
14
 7
SIMPLEX
 10
24028.9063
 20
429.227722
 40
171.691086
  1
29/JAN/2026
 50
0.00000000
  0
TEXT
  8
14
 7
SIMPLEX
 10
25041.8848
 20
772.609863
 40
171.691086
  1
DRAFT:
 50
0.00000000
  0
TEXT
  8
14
 7
SIMPLEX
 10
26758.7949
 20
772.609863
 40
171.691086
  1
CHECK:
 50
0.00000000
  0
TEXT
  8
14
 7
SIMPLEX
 10
25814.4941
 20
429.227722
 40
171.691086
  1
SHEET
 50
0.00000000
  0
TEXT
  8
14
 7
SIMPLEX
 10
27359.7129
 20
429.227722
 40
171.691086
  1
OF
 50
0.00000000
  0
TEXT
  8
14
 7
SIMPLEX
 10
26672.9492
 20
429.227722
 40
171.691086
  1
 
 50
0.00000000
999
FIELD:@PAGE_ID
  0
TEXT
  8
14
 7
SIMPLEX
 10
27703.0938
 20
429.227722
 40
171.691086
  1
 
 50
0.00000000
999
FIELD:@PAGE_TOTAL
  0
INSERT
  8
0
  2
EPBLK1
 10
0.00000000
 20
0.00000000
 41
2.00000000
 42
2.00000000
 43
2.00000000
 50
0.00000000
  0
INSERT
  8
0
  2
EPBLK2
 10
1689.87280
 20
0.00000000
 41
2.00000000
 42
2.00000000
 43
2.00000000
 50
0.00000000
  0
INSERT
  8
0
  2
EPBLK3
 10
3379.74561
 20
0.00000000
 41
2.00000000
 42
2.00000000
 43
2.00000000
 50
0.00000000
  0
INSERT
  8
0
  2
FRAME2
 10
8183.45605
 20
5648.24902
 41
1.00000000
 42
1.00000000
 43
1.00000000
 50
0.00000000
  0
INSERT
  8
0
  2
RF2TBL
 10
28389.8633
 20
20075.6895
 41
1.00000000
 42
1.00000000
 43
1.00000000
 50
0.00000000
  0
INSERT
  8
0
  2
RF2BLT1
 10
0.00000000
 20
20075.6895
 41
46.4715004
 42
46.4715004
 43
46.4715004
 50
0.00000000
  0
INSERT
  8
0
  2
RF2ID
 10
0.00000000
 20
18895.3125
 41
1.00000000
 42
1.00000000
 43
1.00000000
 50
0.00000000
  0
INSERT
  8
0
  2
RF2FBR
 10
0.00000000
 20
17891.9922
 41
1.00000000
 42
1.00000000
 43
1.00000000
 50
0.00000000
  0
ENDSEC
  0
EOF
