999
SOURCE:MBS   PROGRAM:ROOFDWG   CELL:RoofDwg   CLASS:PLAN   MODE:
  0
SECTION
  2
HEADER
  9
$ACADVER
  1
AC1009
  9
$EXTMIN
 10
0.00000000
 20
0.00000000
  9
$EXTMAX
 10
77588.3828
 20
54866.0664
  9
$LIMMIN
 10
0.00000000
 20
0.00000000
  9
$LIMMAX
 10
77588.3828
 20
54866.0664
  9
$FILLMODE
 70
     1
  9
$HANDLING
 70
     0
  0
ENDSEC
  0
SECTION
  2
TABLES
  0
TABLE
  2
LTYPE
 70
4
  0
LTYPE
  2
CONTIN
 70
   64
  3
SOLID LINE
  72
   65
 73
    0
 40
 0.000
  0
LTYPE
  2
CENTER
 70
   64
  3
____ _ ____ _ _
  72
   65
 73
    4
 40
4692.2
 49
2932.7
 49
-586.5
 49
586.53
 49
-586.5
  0
LTYPE
  2
DASHED
 70
   64
  3
__ __ __ __ __
  72
   65
 73
    2
 40
879.80
 49
586.53
 49
-290.9
  0
LTYPE
  2
CONTINUOUS
 70
   64
  3
SOLID LINE
  72
   65
 73
    0
 40
 0.000
  0
ENDTAB
  0
TABLE
  2
LAYER
 70
27
  0
LAYER
  2
0
 70
     0
 62
     7
  6
CONTIN
  0
LAYER
  2
1
 70
     0
 62
     7
  6
CONTIN
  0
LAYER
  2
2
 70
     0
 62
     6
  6
CONTIN
  0
LAYER
  2
3
 70
     0
 62
     7
  6
CONTIN
  0
LAYER
  2
4
 70
     0
 62
     7
  6
CONTIN
  0
LAYER
  2
5
 70
     0
 62
     5
  6
DASHED
  0
LAYER
  2
6
 70
     0
 62
     6
  6
CONTIN
  0
LAYER
  2
7
 70
     0
 62
     7
  6
CONTIN
  0
LAYER
  2
8
 70
     0
 62
     8
  6
DASHED
  0
LAYER
  2
9
 70
     0
 62
     9
  6
DASHED
  0
LAYER
  2
10
 70
     0
 62
    10
  6
CONTIN
  0
LAYER
  2
11
 70
     0
 62
     7
  6
CONTIN
  0
LAYER
  2
12
 70
     0
 62
     6
  6
CONTIN
  0
LAYER
  2
13
 70
     0
 62
     1
  6
CONTIN
  0
LAYER
  2
14
 70
     0
 62
     7
  6
CONTIN
  0
LAYER
  2
15
 70
     0
 62
     7
  6
CONTIN
  0
LAYER
  2
16
 70
     0
 62
     7
  6
CONTIN
  0
LAYER
  2
17
 70
     0
 62
     5
  6
CONTIN
  0
LAYER
  2
18
 70
     0
 62
     7
  6
CONTIN
  0
LAYER
  2
19
 70
     0
 62
     7
  6
CONTIN
  0
LAYER
  2
20
 70
     0
 62
     7
  6
CONTIN
  0
LAYER
  2
21
 70
     0
 62
     7
  6
CONTIN
  0
LAYER
  2
22
 70
     0
 62
     7
  6
CONTIN
  0
LAYER
  2
23
 70
     0
 62
     7
  6
DASHED
  0
LAYER
  2
24
 70
     0
 62
     7
  6
CONTIN
  0
LAYER
  2
25
 70
     0
 62
     7
  6
CONTIN
  0
LAYER
  2
26
 70
     0
 62
     7
  6
CONTIN
  0
LAYER
  2
27
 70
     0
 62
     1
  6
CENTER
  0
ENDTAB
  0
TABLE
  2
STYLE
 70
  0
  0
STYLE
  2
SIMPLEX
 70
  0
 40
  0.000
 41
  1.000
 42
  1.000
 50
  0.000
 71
  0
  3
SIMPLEX
  0
STYLE
  2
ROMANS
 70
  0
 40
  0.000
 41
  1.000
 42
  1.000
 50
  0.000
 71
  0
  3
ROMANS
  0
STYLE
  2
OPEN
 70
  0
 40
  0.000
 41
  1.000
 42
  1.000
 50
  0.000
 71
  0
  3
SIMPLEX
  0
STYLE
  2
ARIAL
 70
  0
 40
  0.000
 41
  1.000
 42
  1.000
 50
  0.000
 71
  0
  3
ARIAL.TTF
  0
STYLE
  2
VERDANAB
 70
  0
 40
  0.000
 41
  1.000
 42
  1.000
 50
  0.000
 71
  0
  3
VERDANAB.TTF
  0
ENDTAB
  0
ENDSEC
  0
SECTION
  2
BLOCKS
  0
BLOCK
  8
0
  2
ARROWP
 70
     0
 10
0.00000000
 20
0.00000000
  0
LINE
  8
0
 10
0.00000000
 20
0.00000000
 11
-335.49585
 21
-55.915974
  0
LINE
  8
0
 10
0.00000000
 20
0.00000000
 11
-335.49585
 21
55.9159737
  0
LINE
  8
0
 10
-335.49585
 20
55.9159737
 11
-335.49585
 21
-55.915974
  0
ENDBLK
  8
0
  0
BLOCK
  8
0
  2
ARROW
 70
     0
 10
0.00000000
 20
0.00000000
  0
LINE
  8
0
 10
0.00000000
 20
0.00000000
 11
-335.49585
 21
-55.915974
  0
LINE
  8
0
 10
0.00000000
 20
0.00000000
 11
-335.49585
 21
55.9159737
  0
LINE
  8
0
 10
-335.49585
 20
55.9159737
 11
-335.49585
 21
-55.915974
  0
ENDBLK
  8
0
  0
BLOCK
  8
0
  2
HEXAGON
 70
     0
 10
0.00000000
 20
0.00000000
  0
LINE
  8
0
 10
0.00000000
 20
0.00000000
 11
7.62000084
 21
-10.160000
  0
LINE
  8
0
 10
7.62000084
 20
-10.160000
 11
17.7799988
 21
-10.160000
  0
LINE
  8
0
 10
17.7799988
 20
-10.160000
 11
25.3999996
 21
0.00000000
  0
LINE
  8
0
 10
25.3999996
 20
0.00000000
 11
17.7799988
 21
10.1599999
  0
LINE
  8
0
 10
17.7799988
 20
10.1599999
 11
7.62000084
 21
10.1599999
  0
LINE
  8
0
 10
7.62000084
 20
10.1599999
 11
0.00000000
 21
0.00000000
  0
ENDBLK
  8
0
  0
BLOCK
  8
0
  2
DIAMOND
 70
     0
 10
0.00000000
 20
0.00000000
  0
LINE
  8
0
 10
0.00000000
 20
0.00000000
 11
12.6999998
 21
12.6999998
  0
LINE
  8
0
 10
12.6999998
 20
12.6999998
 11
0.00000000
 21
25.3999996
  0
LINE
  8
0
 10
0.00000000
 20
25.3999996
 11
-12.700000
 21
12.6999998
  0
LINE
  8
0
 10
-12.700000
 20
12.6999998
 11
0.00000000
 21
0.00000000
  0
ENDBLK
  8
0
  0
BLOCK
  8
0
  2
SKYLITE
 70
     0
 10
0.00000000
 20
0.00000000
  0
LINE
  8
0
 10
25.3999996
 20
0.00000000
 11
0.00000000
 21
0.00000000
  0
LINE
  8
0
 10
0.00000000
 20
0.00000000
 11
0.00000000
 21
-25.400000
  0
LINE
  8
0
 10
0.00000000
 20
-25.400000
 11
25.3999996
 21
-25.400000
  0
LINE
  8
0
 10
25.3999996
 20
-25.400000
 11
25.3999996
 21
0.00000000
  0
LINE
  8
0
 10
0.00000000
 20
-25.400000
 11
0.00000000
 21
0.00000000
  0
LINE
  8
0
 10
6.34999992
 20
-25.400000
 11
6.34999992
 21
0.00000000
  0
LINE
  8
0
 10
12.6999998
 20
-25.400000
 11
12.6999998
 21
0.00000000
  0
LINE
  8
0
 10
19.0499992
 20
-25.400000
 11
19.0499992
 21
0.00000000
  0
ENDBLK
  8
0
  0
BLOCK
  8
0
  2
CIRCLE
 70
     0
 10
0.00000000
 20
0.00000000
  0
CIRCLE
  8
1
 10
   0.000
 20
   0.000
 40
  25.400
  0
ENDBLK
  8
0
  0
BLOCK
  8
0
  2
CCOL
 70
     0
 10
0.00000000
 20
0.00000000
  0
LINE
  8
0
 10
10.1599999
 20
-2.5400000
 11
10.1599999
 21
0.00000000
  0
LINE
  8
0
 10
10.1599999
 20
0.00000000
 11
0.00000000
 21
0.00000000
  0
LINE
  8
0
 10
0.00000000
 20
0.00000000
 11
0.00000000
 21
-25.400000
  0
LINE
  8
0
 10
0.00000000
 20
-25.400000
 11
10.1599999
 21
-25.400000
  0
LINE
  8
0
 10
10.1599999
 20
-25.400000
 11
10.1599999
 21
-22.859999
  0
ENDBLK
  8
0
  0
BLOCK
  8
0
  2
UCOL
 70
     0
 10
0.00000000
 20
0.00000000
  0
LINE
  8
0
 10
10.1599999
 20
0.00000000
 11
0.00000000
 21
0.00000000
  0
LINE
  8
0
 10
0.00000000
 20
0.00000000
 11
0.00000000
 21
-25.400000
  0
LINE
  8
0
 10
0.00000000
 20
-25.400000
 11
10.1599999
 21
-25.400000
  0
ENDBLK
  8
0
  0
BLOCK
  8
0
  2
WCOL
 70
     0
 10
0.00000000
 20
0.00000000
  0
LINE
  8
0
 10
-10.160000
 20
0.00000000
 11
10.1599999
 21
0.00000000
  0
LINE
  8
0
 10
0.00000000
 20
0.00000000
 11
0.00000000
 21
-25.400000
  0
LINE
  8
0
 10
-10.160000
 20
-25.400000
 11
10.1599999
 21
-25.400000
  0
ENDBLK
  8
0
  0
BLOCK
  8
0
  2
TCOL
 70
     0
 10
0.00000000
 20
0.00000000
  0
LINE
  8
0
 10
-12.700000
 20
-12.700000
 11
12.6999998
 21
-12.700000
  0
LINE
  8
0
 10
12.6999998
 20
-12.700000
 11
12.6999998
 21
12.6999998
  0
LINE
  8
0
 10
12.6999998
 20
12.6999998
 11
-12.700000
 21
12.6999998
  0
LINE
  8
0
 10
-12.700000
 20
12.6999998
 11
-12.700000
 21
-12.700000
  0
ENDBLK
  8
0
  0
BLOCK
  8
0
  2
TCOL2
 70
     0
 10
0.00000000
 20
0.00000000
  0
LINE
  8
0
 10
-6.3499999
 20
-12.700000
 11
6.34999992
 21
-12.700000
  0
LINE
  8
0
 10
6.34999992
 20
-12.700000
 11
6.34999992
 21
12.6999998
  0
LINE
  8
0
 10
6.34999992
 20
12.6999998
 11
-6.3499999
 21
12.6999998
  0
LINE
  8
0
 10
-6.3499999
 20
12.6999998
 11
-6.3499999
 21
-12.700000
  0
ENDBLK
  8
0
  0
BLOCK
  8
1
  2
PCOL
 70
     0
 10
0.00000000
 20
0.00000000
  0
CIRCLE
  8
1
 10
0.00000000
 20
0.00000000
 40
12.6999998
  0
ENDBLK
  8
1
  0
BLOCK
  8
0
  2
DCOL
 70
     0
 10
0.00000000
 20
0.00000000
  0
INSERT
  8
0
  2
CCOL
 10
2.53999996
 20
0.00000000
 41
1.00000000
 42
1.00000000
 43
1.00000000
 50
   0.000
  0
INSERT
  8
0
  2
CCOL
 10
-2.5400000
 20
0.00000000
 41
-1.0000000
 42
1.00000000
 43
1.00000000
 50
   0.000
  0
ENDBLK
  8
0
  0
BLOCK
  8
0
  2
GCOL
 70
     0
 10
0.00000000
 20
0.00000000
  0
LINE
  8
0
 10
10.1599999
 20
-2.5400000
 11
10.1599999
 21
0.00000000
  0
LINE
  8
0
 10
10.1599999
 20
0.00000000
 11
0.00000000
 21
0.00000000
  0
LINE
  8
0
 10
0.00000000
 20
0.00000000
 11
0.00000000
 21
-25.400000
  0
LINE
  8
0
 10
0.00000000
 20
-25.400000
 11
25.3999996
 21
-25.400000
  0
LINE
  8
0
 10
25.3999996
 20
-25.400000
 11
25.3999996
 21
-15.240001
  0
LINE
  8
0
 10
25.3999996
 20
-15.240001
 11
22.8599987
 21
-15.240001
  0
ENDBLK
  8
0
  0
BLOCK
  8
0
  2
ZCOL
 70
     0
 10
0.00000000
 20
0.00000000
  0
LINE
  8
0
 10
10.1599999
 20
-2.5400000
 11
10.1599999
 21
0.00000000
  0
LINE
  8
0
 10
10.1599999
 20
0.00000000
 11
0.00000000
 21
0.00000000
  0
LINE
  8
0
 10
0.00000000
 20
0.00000000
 11
0.00000000
 21
-25.400000
  0
LINE
  8
0
 10
0.00000000
 20
-25.400000
 11
-10.160000
 21
-25.400000
  0
LINE
  8
0
 10
-10.160000
 20
-25.400000
 11
-10.160000
 21
-22.859999
  0
ENDBLK
  8
0
  0
BLOCK
  8
0
  2
XCOL
 70
     0
 10
0.00000000
 20
0.00000000
  0
LINE
  8
0
 10
-14.287499
 20
1.58749996
 11
14.2874994
 21
1.58749996
  0
LINE
  8
0
 10
14.2874994
 20
1.58749996
 11
14.2874994
 21
-26.987499
  0
LINE
  8
0
 10
14.2874994
 20
-26.987499
 11
-14.287499
 21
-26.987499
  0
LINE
  8
0
 10
-14.287499
 20
-26.987499
 11
-14.287499
 21
1.58749996
  0
ENDBLK
  8
0
  0
BLOCK
  8
0
  2
SHIELD
 70
     0
 10
0.00000000
 20
0.00000000
  0
ARC
  8
0
 10
0.00000000
 20
38.0999985
 40
12.6999998
 50
   0.000
 51
 180.000
  0
LINE
  8
0
 10
-12.700000
 20
38.0999985
 11
-12.700000
 21
12.6999998
  0
LINE
  8
0
 10
-12.700000
 20
12.6999998
 11
0.00000000
 21
0.00000000
  0
LINE
  8
0
 10
0.00000000
 20
0.00000000
 11
12.6999998
 21
12.6999998
  0
LINE
  8
0
 10
12.6999998
 20
12.6999998
 11
12.6999998
 21
38.0999985
  0
ENDBLK
  8
0
  0
BLOCK
  8
7
  2
CUTSEC
 70
     0
 10
0.00000000
 20
0.00000000
  0
LINE
  8
7
 10
-387.11063
 20
0.00000000
 11
-129.03688
 21
0.00000000
  0
LINE
  8
7
 10
129.036880
 20
0.00000000
 11
387.110626
 21
0.00000000
  0
LINE
  8
7
 10
387.110626
 20
0.00000000
 11
387.110626
 21
154.844284
  0
INSERT
  8
7
  2
ARROWP
 10
387.110626
 20
490.340179
 41
1.00000000
 42
1.00000000
 43
1.00000000
 50
  90.000
  0
ENDBLK
  8
7
  0
BLOCK
  8
7
  2
DETAIL
 70
     0
 10
0.00000000
 20
0.00000000
  0
CIRCLE
  8
7
 10
0.00000000
 20
0.00000000
 40
129.036880
  0
LINE
  8
7
 10
129.036880
 20
0.00000000
 11
567.762146
 21
0.00000000
  0
ENDBLK
  8
7
  0
BLOCK
  8
0
  2
ROFFRM
 70
     0
 10
0.00000000
 20
0.00000000
999
START:   AREA=Match Line
999
END:     AREA=Match Line
999
START:   AREA=Extension OutLines
  0
LINE
  8
5
 10
-967.77655
 20
6100.00000
 11
-967.77655
 21
0.00000000
  0
LINE
  8
5
 10
-3967.7764
 20
6100.00000
 11
-967.77655
 21
6100.00000
  0
LINE
  8
5
 10
-3967.7764
 20
0.00000000
 11
-3967.7764
 21
6100.00000
  0
LINE
  8
5
 10
-967.77655
 20
0.00000000
 11
-3967.7764
 21
0.00000000
  0
LINE
  8
5
 10
46697.7734
 20
6100.00000
 11
46697.7734
 21
12200.0000
  0
LINE
  8
5
 10
49697.7734
 20
6100.00000
 11
46697.7734
 21
6100.00000
  0
LINE
  8
5
 10
49697.7734
 20
12200.0000
 11
49697.7734
 21
6100.00000
  0
LINE
  8
5
 10
46697.7734
 20
12200.0000
 11
49697.7734
 21
12200.0000
999
END:     AREA=Extension OutLines
999
START:   AREA=Sheet Angle
  0
LINE
  8
5
 10
0.00000000
 20
12200.0000
 11
0.00000000
 21
6100.00000
  0
LINE
  8
5
 10
0.00000000
 20
6100.00000
 11
0.00000000
 21
0.00000000
  0
LINE
  8
5
 10
45730.0000
 20
12200.0000
 11
45730.0000
 21
6100.00000
  0
LINE
  8
5
 10
45730.0000
 20
6100.00000
 11
45730.0000
 21
0.00000000
  0
LINE
  8
5
 10
0.00000000
 20
0.00000000
 11
45730.0000
 21
0.00000000
  0
LINE
  8
5
 10
0.00000000
 20
12200.0000
 11
45730.0000
 21
12200.0000
999
END:     AREA=Sheet Angle
999
START:   AREA=Soffit Angle
999
END:     AREA=Soffit Angle
999
START:   AREA=Frame Lines
  0
LINE
  8
4
 10
645.184326
 20
0.00000000
 11
645.184326
 21
12200.0000
  0
LINE
  8
4
 10
7804.99951
 20
0.00000000
 11
7804.99951
 21
12200.0000
  0
LINE
  8
4
 10
15335.0000
 20
0.00000000
 11
15335.0000
 21
12200.0000
  0
LINE
  8
4
 10
22865.0000
 20
0.00000000
 11
22865.0000
 21
12200.0000
  0
LINE
  8
4
 10
30395.0020
 20
0.00000000
 11
30395.0020
 21
12200.0000
  0
LINE
  8
4
 10
37925.0000
 20
0.00000000
 11
37925.0000
 21
12200.0000
  0
LINE
  8
4
 10
45084.8125
 20
0.00000000
 11
45084.8125
 21
12200.0000
999
END:     AREA=Frame Lines
999
START:   AREA=Eaves
  0
LINE
  8
1
 10
0.00000000
 20
80.6480408
 11
8180.00049
 21
80.6480408
  0
TEXT
  8
3
 7
SIMPLEX
 10
3557.72314
 20
-403.24020
 40
322.592163
  1
 E-1
 50
   0.000
  0
LINE
  8
1
 10
7430.00000
 20
0.00000000
 11
15710.0020
 21
0.00000000
  0
TEXT
  8
3
 7
SIMPLEX
 10
10981.2695
 20
-403.24020
 40
322.592163
  1
 E-2
 50
   0.000
  0
LINE
  8
1
 10
14960.0000
 20
80.6480408
 11
23240.0020
 21
80.6480408
  0
TEXT
  8
3
 7
SIMPLEX
 10
18511.2695
 20
-403.24020
 40
322.592163
  1
 E-2
 50
   0.000
  0
LINE
  8
1
 10
22490.0000
 20
0.00000000
 11
30770.0000
 21
0.00000000
  0
TEXT
  8
3
 7
SIMPLEX
 10
26041.2695
 20
-403.24020
 40
322.592163
  1
 E-2
 50
   0.000
  0
LINE
  8
1
 10
30020.0000
 20
80.6480408
 11
38300.0000
 21
80.6480408
  0
TEXT
  8
3
 7
SIMPLEX
 10
33571.2695
 20
-403.24020
 40
322.592163
  1
 E-2
 50
   0.000
  0
LINE
  8
1
 10
37550.0000
 20
0.00000000
 11
45730.0000
 21
0.00000000
  0
TEXT
  8
3
 7
SIMPLEX
 10
41051.2656
 20
-403.24020
 40
322.592163
  1
 E-3
 50
   0.000
  0
LINE
  8
1
 10
45730.0000
 20
12119.3525
 11
37550.0000
 21
12119.3525
  0
TEXT
  8
3
 7
SIMPLEX
 10
41107.7227
 20
12280.6475
 40
322.592163
  1
 E-1
 50
   0.000
  0
LINE
  8
1
 10
38300.0000
 20
12200.0000
 11
30019.9961
 21
12200.0000
  0
TEXT
  8
3
 7
SIMPLEX
 10
33571.2695
 20
12280.6475
 40
322.592163
  1
 E-2
 50
   0.000
  0
LINE
  8
1
 10
30769.9961
 20
12119.3525
 11
22489.9980
 21
12119.3525
  0
TEXT
  8
3
 7
SIMPLEX
 10
26041.2656
 20
12280.6475
 40
322.592163
  1
 E-2
 50
   0.000
  0
LINE
  8
1
 10
23239.9980
 20
12200.0000
 11
14959.9980
 21
12200.0000
  0
TEXT
  8
3
 7
SIMPLEX
 10
18511.2676
 20
12280.6475
 40
322.592163
  1
 E-2
 50
   0.000
  0
LINE
  8
1
 10
15709.9980
 20
12119.3525
 11
7429.99854
 21
12119.3525
  0
TEXT
  8
3
 7
SIMPLEX
 10
10981.2686
 20
12280.6475
 40
322.592163
  1
 E-2
 50
   0.000
  0
LINE
  8
1
 10
8180.00000
 20
12200.0000
 11
0.00000000
 21
12200.0000
  0
TEXT
  8
3
 7
SIMPLEX
 10
3501.26953
 20
12280.6475
 40
322.592163
  1
 E-3
 50
   0.000
999
END:     AREA=Eaves
999
START:   AREA=Purlins
  0
LINE
  8
1
 10
0.00000000
 20
10672.2109
 11
8180.00049
 21
10672.2109
  0
LINE
  8
1
 10
0.00000000
 20
9221.84570
 11
8180.00049
 21
9221.84570
  0
LINE
  8
1
 10
0.00000000
 20
7771.47949
 11
8180.00049
 21
7771.47949
  0
LINE
  8
1
 10
0.00000000
 20
6321.11377
 11
8180.00049
 21
6321.11377
  0
LINE
  8
1
 10
7430.00000
 20
10827.0557
 11
15710.0020
 21
10827.0557
  0
LINE
  8
1
 10
7430.00000
 20
9376.69043
 11
15710.0020
 21
9376.69043
  0
LINE
  8
1
 10
7430.00000
 20
7926.32471
 11
15710.0020
 21
7926.32471
  0
LINE
  8
1
 10
7430.00000
 20
6475.95752
 11
15710.0020
 21
6475.95752
  0
LINE
  8
1
 10
14960.0000
 20
10672.2109
 11
23240.0020
 21
10672.2109
  0
LINE
  8
1
 10
14960.0000
 20
9221.84570
 11
23240.0020
 21
9221.84570
  0
LINE
  8
1
 10
14960.0000
 20
7771.47949
 11
23240.0020
 21
7771.47949
  0
LINE
  8
1
 10
14960.0000
 20
6321.11377
 11
23240.0020
 21
6321.11377
  0
LINE
  8
1
 10
22490.0000
 20
10827.0557
 11
30770.0000
 21
10827.0557
  0
LINE
  8
1
 10
22490.0000
 20
9376.69043
 11
30770.0000
 21
9376.69043
  0
LINE
  8
1
 10
22490.0000
 20
7926.32471
 11
30770.0000
 21
7926.32471
  0
LINE
  8
1
 10
22490.0000
 20
6475.95752
 11
30770.0000
 21
6475.95752
  0
LINE
  8
1
 10
30020.0000
 20
10672.2109
 11
38300.0000
 21
10672.2109
  0
LINE
  8
1
 10
30020.0000
 20
9221.84570
 11
38300.0000
 21
9221.84570
  0
LINE
  8
1
 10
30020.0000
 20
7771.47949
 11
38300.0000
 21
7771.47949
  0
LINE
  8
1
 10
30020.0000
 20
6321.11377
 11
38300.0000
 21
6321.11377
  0
LINE
  8
1
 10
37550.0000
 20
10827.0557
 11
45730.0000
 21
10827.0557
  0
LINE
  8
1
 10
37550.0000
 20
9376.69043
 11
45730.0000
 21
9376.69043
  0
LINE
  8
1
 10
37550.0000
 20
7926.32471
 11
45730.0000
 21
7926.32471
  0
LINE
  8
1
 10
37550.0000
 20
6475.95752
 11
45730.0000
 21
6475.95752
  0
LINE
  8
1
 10
0.00000000
 20
5878.91064
 11
8180.00049
 21
5878.91064
  0
LINE
  8
1
 10
0.00000000
 20
4428.54492
 11
8180.00049
 21
4428.54492
  0
LINE
  8
1
 10
0.00000000
 20
2978.17847
 11
8180.00049
 21
2978.17847
  0
LINE
  8
1
 10
0.00000000
 20
1527.81238
 11
8180.00049
 21
1527.81238
  0
LINE
  8
1
 10
7430.00000
 20
5724.06738
 11
15710.0020
 21
5724.06738
  0
LINE
  8
1
 10
7430.00000
 20
4273.70068
 11
15710.0020
 21
4273.70068
  0
LINE
  8
1
 10
7430.00000
 20
2823.33398
 11
15710.0020
 21
2823.33398
  0
LINE
  8
1
 10
7430.00000
 20
1372.96802
 11
15710.0020
 21
1372.96802
  0
LINE
  8
1
 10
14960.0000
 20
5878.91064
 11
23240.0020
 21
5878.91064
  0
LINE
  8
1
 10
14960.0000
 20
4428.54492
 11
23240.0020
 21
4428.54492
  0
LINE
  8
1
 10
14960.0000
 20
2978.17847
 11
23240.0020
 21
2978.17847
  0
LINE
  8
1
 10
14960.0000
 20
1527.81238
 11
23240.0020
 21
1527.81238
  0
LINE
  8
1
 10
22490.0000
 20
5724.06738
 11
30770.0000
 21
5724.06738
  0
LINE
  8
1
 10
22490.0000
 20
4273.70068
 11
30770.0000
 21
4273.70068
  0
LINE
  8
1
 10
22490.0000
 20
2823.33398
 11
30770.0000
 21
2823.33398
  0
LINE
  8
1
 10
22490.0000
 20
1372.96802
 11
30770.0000
 21
1372.96802
  0
LINE
  8
1
 10
30020.0000
 20
5878.91064
 11
38300.0000
 21
5878.91064
  0
LINE
  8
1
 10
30020.0000
 20
4428.54492
 11
38300.0000
 21
4428.54492
  0
LINE
  8
1
 10
30020.0000
 20
2978.17847
 11
38300.0000
 21
2978.17847
  0
LINE
  8
1
 10
30020.0000
 20
1527.81238
 11
38300.0000
 21
1527.81238
  0
LINE
  8
1
 10
37550.0000
 20
5724.06738
 11
45730.0000
 21
5724.06738
  0
LINE
  8
1
 10
37550.0000
 20
4273.70068
 11
45730.0000
 21
4273.70068
  0
LINE
  8
1
 10
37550.0000
 20
2823.33398
 11
45730.0000
 21
2823.33398
  0
LINE
  8
1
 10
37550.0000
 20
1372.96802
 11
45730.0000
 21
1372.96802
999
END:     AREA=Purlins
999
START:   AREA=Purlin Strut
999
END:     AREA=Purlin Strut
999
END:     AREA=Purlin Strut
999
START:   AREA=Purlin Stub
999
END:     AREA=Purlin Stub
999
START:   AREA=Strut Bolts
999
END:     AREA=Strut Bolts
999
START:   AREA=Purlin Clips
999
END:     AREA=Purlin Clips
  0
TEXT
  8
3
 7
SIMPLEX
 10
2563.74268
 20
10752.8594
 40
322.592163
  1
 P-1(Typ)
 50
   0.000
  0
TEXT
  8
3
 7
SIMPLEX
 10
10174.7900
 20
10907.7041
 40
322.592163
  1
 P-2(Typ)
 50
   0.000
  0
TEXT
  8
3
 7
SIMPLEX
 10
17704.7891
 20
10752.8594
 40
322.592163
  1
 P-2(Typ)
 50
   0.000
  0
TEXT
  8
3
 7
SIMPLEX
 10
25234.7910
 20
10907.7041
 40
322.592163
  1
 P-2(Typ)
 50
   0.000
  0
TEXT
  8
3
 7
SIMPLEX
 10
32764.7871
 20
10752.8594
 40
322.592163
  1
 P-2(Typ)
 50
   0.000
  0
TEXT
  8
3
 7
SIMPLEX
 10
40432.2891
 20
10907.7041
 40
322.592163
  1
 P-3(Typ)
 50
   0.000
  0
TEXT
  8
3
 7
SIMPLEX
 10
2507.28906
 20
5475.67090
 40
322.592163
  1
 P-3(Typ)
 50
   0.000
  0
TEXT
  8
3
 7
SIMPLEX
 10
10174.7900
 20
5320.82666
 40
322.592163
  1
 P-2(Typ)
 50
   0.000
  0
TEXT
  8
3
 7
SIMPLEX
 10
17704.7891
 20
5475.67090
 40
322.592163
  1
 P-2(Typ)
 50
   0.000
  0
TEXT
  8
3
 7
SIMPLEX
 10
25234.7910
 20
5320.82666
 40
322.592163
  1
 P-2(Typ)
 50
   0.000
  0
TEXT
  8
3
 7
SIMPLEX
 10
32764.7871
 20
5475.67090
 40
322.592163
  1
 P-2(Typ)
 50
   0.000
  0
TEXT
  8
3
 7
SIMPLEX
 10
40488.7422
 20
5320.82666
 40
322.592163
  1
 P-1(Typ)
 50
   0.000
999
START:   AREA=Cable
  0
LINE
  8
1
 10
645.184326
 20
6300.00000
 11
7804.99951
 21
12119.3525
  0
LINE
  8
1
 10
645.184326
 20
12119.3525
 11
7804.99951
 21
6300.00000
  0
TEXT
  8
3
 7
SIMPLEX
 10
1896.12012
 20
7420.66260
 40
322.592163
  1
CB-3
 50
  39.104
  0
TEXT
  8
3
 7
SIMPLEX
 10
5577.76172
 20
8214.18164
 40
322.592163
  1
CB-3
 50
 -39.104
  0
LINE
  8
1
 10
645.184326
 20
80.6480408
 11
7804.99951
 21
5900.00049
  0
LINE
  8
1
 10
645.184326
 20
5900.00049
 11
7804.99951
 21
80.6480408
  0
TEXT
  8
3
 7
SIMPLEX
 10
1896.12012
 20
1201.31006
 40
322.592163
  1
CB-3
 50
  39.104
  0
TEXT
  8
3
 7
SIMPLEX
 10
5577.76172
 20
1994.82922
 40
322.592163
  1
CB-3
 50
 -39.104
  0
LINE
  8
1
 10
37925.0000
 20
6300.00000
 11
45084.8125
 21
12119.3525
  0
LINE
  8
1
 10
37925.0000
 20
12119.3525
 11
45084.8125
 21
6300.00000
  0
TEXT
  8
3
 7
SIMPLEX
 10
39175.9375
 20
7420.66260
 40
322.592163
  1
CB-3
 50
  39.104
  0
TEXT
  8
3
 7
SIMPLEX
 10
42857.5742
 20
8214.18164
 40
322.592163
  1
CB-3
 50
 -39.104
  0
LINE
  8
1
 10
37925.0000
 20
80.6480408
 11
45084.8125
 21
5900.00049
  0
LINE
  8
1
 10
37925.0000
 20
5900.00049
 11
45084.8125
 21
80.6480408
  0
TEXT
  8
3
 7
SIMPLEX
 10
39175.9375
 20
1201.31006
 40
322.592163
  1
CB-3
 50
  39.104
  0
TEXT
  8
3
 7
SIMPLEX
 10
42857.5742
 20
1994.82922
 40
322.592163
  1
CB-3
 50
 -39.104
999
END:     AREA=Cable
999
START:   AREA=Wall Bracing
999
END:     AREA=Wall Bracing
999
START:   AREA=Wide Open Strapping
999
END:     AREA=Wide Open Strapping
999
START:   AREA=Accessories
999
END:     AREA=Accessories
999
START:   AREA=Extend Beam
  0
LINE
  8
4
 10
-967.77655
 20
6100.00000
 11
-3967.7764
 21
6100.00000
  0
TEXT
  8
3
 7
SIMPLEX
 10
-4451.6650
 20
5527.39893
 40
322.592163
  1
EB-1
 50
  90.000
  0
INSERT
  8
10
  2
WCOL
 10
-4048.4243
 20
6100.00000
 41
12.7004795
 42
12.7004795
 43
12.7004795
 50
 270.000
  0
LINE
  8
4
 10
-967.77655
 20
430.000092
 11
-3967.7764
 21
430.000092
  0
TEXT
  8
3
 7
SIMPLEX
 10
-4451.6655
 20
-199.05464
 40
322.592163
  1
EB-2
 50
  90.000
  0
INSERT
  8
10
  2
WCOL
 10
-4048.4243
 20
430.000092
 41
12.7004795
 42
12.7004795
 43
12.7004795
 50
 270.000
  0
LINE
  8
4
 10
46697.7734
 20
6100.00000
 11
49697.7734
 21
6100.00000
  0
TEXT
  8
3
 7
SIMPLEX
 10
50504.2578
 20
5527.39893
 40
322.592163
  1
EB-1
 50
  90.000
  0
INSERT
  8
10
  2
WCOL
 10
49778.4258
 20
6100.00000
 41
12.7004795
 42
12.7004795
 43
12.7004795
 50
  90.000
  0
LINE
  8
4
 10
46697.7734
 20
11770.0000
 11
49697.7734
 21
11770.0000
  0
TEXT
  8
3
 7
SIMPLEX
 10
50504.2578
 20
11140.9453
 40
322.592163
  1
EB-2
 50
  90.000
  0
INSERT
  8
10
  2
WCOL
 10
49778.4258
 20
11770.0000
 41
12.7004795
 42
12.7004795
 43
12.7004795
 50
  90.000
999
END:     AREA=Extend Beam
999
START:   AREA=Extend Hip/Stub Beam
999
END:     AREA=Extend Hip/Stub Beam
999
START:   AREA=Extend Support Column
999
START:   AREA=Extend Support Column
999
START:   AREA=Extend Facia
999
END:     AREA=Extend Facia
999
START:   AREA=Extend Purlin
  0
LINE
  8
1
 10
-1267.7766
 20
6100.00000
 11
-1267.7766
 21
0.00000000
  0
LINE
  8
1
 10
-2617.7766
 20
6100.00000
 11
-2617.7766
 21
0.00000000
  0
TEXT
  8
3
 7
SIMPLEX
 10
-2698.4243
 20
1869.78894
 40
322.592163
  1
 P-4(Typ)
 50
  90.000
  0
LINE
  8
1
 10
46997.7773
 20
6100.00000
 11
46997.7773
 21
12200.0000
  0
TEXT
  8
3
 7
SIMPLEX
 10
47401.0156
 20
7539.78857
 40
322.592163
  1
 P-4(Typ)
 50
  90.000
  0
LINE
  8
1
 10
48347.7773
 20
6100.00000
 11
48347.7773
 21
12200.0000
999
END:     AREA=Extend Purlin
999
START:   AREA=Extend Eave
  0
LINE
  8
1
 10
-3967.7764
 20
6100.00000
 11
-3967.7764
 21
0.00000000
  0
TEXT
  8
3
 7
SIMPLEX
 10
-4048.4241
 20
2461.26929
 40
322.592163
  1
 E-4
 50
  90.000
  0
LINE
  8
1
 10
49697.7734
 20
6100.00000
 11
49697.7734
 21
12200.0000
  0
TEXT
  8
3
 7
SIMPLEX
 10
50101.0156
 20
8561.26953
 40
322.592163
  1
 E-4
 50
  90.000
999
END:     AREA=Extend Eave
999
START:   AREA=Extend Brace
  0
LINE
  8
1
 10
-3967.7764
 20
6100.00000
 11
-967.77655
 21
0.00000000
  0
TEXT
  8
3
 7
SIMPLEX
 10
-3012.5315
 20
3974.92651
 40
322.592163
  1
CB-4
 50
 116.188
  0
LINE
  8
1
 10
-3967.7764
 20
0.00000000
 11
-967.77655
 21
6100.00000
  0
TEXT
  8
3
 7
SIMPLEX
 10
-3567.7600
 20
996.109131
 40
322.592163
  1
CB-4
 50
  63.812
  0
LINE
  8
1
 10
46697.7734
 20
12200.0000
 11
49697.7734
 21
6100.00000
  0
TEXT
  8
3
 7
SIMPLEX
 10
49153.0195
 20
7024.92627
 40
322.592163
  1
CB-4
 50
 116.188
  0
LINE
  8
1
 10
46697.7734
 20
6100.00000
 11
49697.7734
 21
12200.0000
  0
TEXT
  8
3
 7
SIMPLEX
 10
48597.7930
 20
10146.1094
 40
322.592163
  1
CB-4
 50
  63.812
999
END:     AREA=Extend Brace
999
START:   AREA=Extension Angle
  0
TEXT
  8
3
 7
SIMPLEX
 10
-2306.4802
 20
6906.47998
 40
322.592163
  1
GA
 50
   0.000
  0
LINE
  8
3
 10
-2467.7764
 20
6100.00000
 11
-2790.3687
 21
7067.77686
  0
LINE
  8
3
 10
-2790.3687
 20
7067.77686
 11
-2467.7764
 21
7067.77686
  0
INSERT
  8
3
  2
ARROWP
 10
-2467.7764
 20
6100.00000
 41
1.00000000
 42
1.00000000
 43
1.00000000
 50
 288.435
  0
LINE
  8
6
 10
-967.77655
 20
6100.00000
 11
-3967.7764
 21
6100.00000
  0
TEXT
  8
3
 7
SIMPLEX
 10
-2306.4802
 20
-1129.0726
 40
322.592163
  1
GA
 50
   0.000
  0
LINE
  8
3
 10
-2467.7764
 20
0.00000000
 11
-2790.3687
 21
-967.77655
  0
LINE
  8
3
 10
-2790.3687
 20
-967.77655
 11
-2467.7764
 21
-967.77655
  0
INSERT
  8
3
  2
ARROWP
 10
-2467.7764
 20
0.00000000
 41
1.00000000
 42
1.00000000
 43
1.00000000
 50
 431.565
  0
LINE
  8
6
 10
-967.77655
 20
0.00000000
 11
-3967.7764
 21
0.00000000
  0
TEXT
  8
3
 7
SIMPLEX
 10
47391.2969
 20
6261.29590
 40
322.592163
  1
GA
 50
  90.000
  0
LINE
  8
3
 10
47230.0000
 20
6100.00000
 11
47230.0000
 21
5777.40820
  0
LINE
  8
3
 10
48197.7773
 20
6100.00000
 11
47230.0000
 21
5777.40820
  0
INSERT
  8
3
  2
ARROWP
 10
48197.7773
 20
6100.00000
 41
1.00000000
 42
1.00000000
 43
1.00000000
 50
 378.435
  0
LINE
  8
6
 10
46697.7734
 20
6100.00000
 11
49697.7734
 21
6100.00000
  0
TEXT
  8
3
 7
SIMPLEX
 10
49326.8477
 20
12361.2969
 40
322.592163
  1
GA
 50
  90.000
  0
LINE
  8
3
 10
49165.5547
 20
12200.0000
 11
49165.5547
 21
11877.4082
  0
LINE
  8
3
 10
48197.7773
 20
12200.0000
 11
49165.5547
 21
11877.4082
  0
INSERT
  8
3
  2
ARROWP
 10
48197.7773
 20
12200.0000
 41
1.00000000
 42
1.00000000
 43
1.00000000
 50
 161.565
  0
LINE
  8
6
 10
46697.7734
 20
12200.0000
 11
49697.7734
 21
12200.0000
999
END:     AREA=Extension Angle
999
START:   AREA=Alternate Angle
  0
LINE
  8
1
 10
2048.74878
 20
6321.11377
 11
2048.74878
 21
5878.91064
  0
TEXT
  8
3
 7
SIMPLEX
 10
748.702271
 20
5938.71631
 40
322.592163
  1
SP-1
 50
   0.000
  0
LINE
  8
1
 10
4092.49854
 20
6321.11377
 11
4092.49854
 21
5878.91064
  0
LINE
  8
1
 10
6136.25146
 20
6321.11377
 11
6136.25146
 21
5878.91064
  0
LINE
  8
1
 10
9500.00098
 20
6321.11279
 11
9500.00098
 21
5878.91113
  0
LINE
  8
1
 10
11569.9990
 20
6321.11279
 11
11569.9990
 21
5878.91113
  0
LINE
  8
1
 10
13640.0000
 20
6321.11279
 11
13640.0000
 21
5878.91113
  0
LINE
  8
1
 10
17030.0000
 20
6321.11377
 11
17030.0000
 21
5878.91064
  0
LINE
  8
1
 10
19100.0000
 20
6321.11377
 11
19100.0000
 21
5878.91064
  0
LINE
  8
1
 10
21170.0000
 20
6321.11377
 11
21170.0000
 21
5878.91064
  0
LINE
  8
1
 10
24560.0020
 20
6321.11279
 11
24560.0020
 21
5878.91113
  0
LINE
  8
1
 10
26629.9980
 20
6321.11279
 11
26629.9980
 21
5878.91113
  0
LINE
  8
1
 10
28700.0000
 20
6321.11279
 11
28700.0000
 21
5878.91113
  0
LINE
  8
1
 10
32090.0000
 20
6321.11377
 11
32090.0000
 21
5878.91064
  0
LINE
  8
1
 10
34160.0000
 20
6321.11377
 11
34160.0000
 21
5878.91064
  0
LINE
  8
1
 10
36230.0000
 20
6321.11377
 11
36230.0000
 21
5878.91064
  0
LINE
  8
1
 10
39593.7500
 20
6321.11279
 11
39593.7500
 21
5878.91113
  0
LINE
  8
1
 10
41637.5000
 20
6321.11279
 11
41637.5000
 21
5878.91113
  0
LINE
  8
1
 10
43681.2500
 20
6321.11279
 11
43681.2500
 21
5878.91113
  0
LINE
  8
1
 10
2048.74878
 20
10517.3672
 11
2048.74878
 21
9376.68945
  0
TEXT
  8
3
 7
SIMPLEX
 10
909.998291
 20
9785.73242
 40
322.592163
  1
SI-1
 50
   0.000
  0
LINE
  8
1
 10
4092.49854
 20
10517.3672
 11
4092.49854
 21
9376.68945
  0
LINE
  8
1
 10
6136.25146
 20
10517.3672
 11
6136.25146
 21
9376.68945
  0
LINE
  8
1
 10
9500.00098
 20
10672.2119
 11
9500.00098
 21
9531.53418
  0
LINE
  8
1
 10
11569.9990
 20
10672.2119
 11
11569.9990
 21
9531.53418
  0
LINE
  8
1
 10
13640.0000
 20
10672.2119
 11
13640.0000
 21
9531.53418
  0
LINE
  8
1
 10
17030.0000
 20
10517.3672
 11
17030.0000
 21
9376.68945
  0
LINE
  8
1
 10
19100.0000
 20
10517.3672
 11
19100.0000
 21
9376.68945
  0
LINE
  8
1
 10
21170.0000
 20
10517.3672
 11
21170.0000
 21
9376.68945
  0
LINE
  8
1
 10
24560.0020
 20
10672.2119
 11
24560.0020
 21
9531.53418
  0
LINE
  8
1
 10
26629.9980
 20
10672.2119
 11
26629.9980
 21
9531.53418
  0
LINE
  8
1
 10
28700.0000
 20
10672.2119
 11
28700.0000
 21
9531.53418
  0
LINE
  8
1
 10
32090.0000
 20
10517.3672
 11
32090.0000
 21
9376.68945
  0
LINE
  8
1
 10
34160.0000
 20
10517.3672
 11
34160.0000
 21
9376.68945
  0
LINE
  8
1
 10
36230.0000
 20
10517.3672
 11
36230.0000
 21
9376.68945
  0
LINE
  8
1
 10
39593.7500
 20
10672.2119
 11
39593.7500
 21
9531.53418
  0
LINE
  8
1
 10
41637.5000
 20
10672.2119
 11
41637.5000
 21
9531.53418
  0
LINE
  8
1
 10
43681.2500
 20
10672.2119
 11
43681.2500
 21
9531.53418
  0
LINE
  8
1
 10
2048.74878
 20
9067.00098
 11
2048.74878
 21
7926.32373
  0
TEXT
  8
3
 7
SIMPLEX
 10
909.998291
 20
8335.36621
 40
322.592163
  1
SI-1
 50
   0.000
  0
LINE
  8
1
 10
4092.49854
 20
9067.00098
 11
4092.49854
 21
7926.32373
  0
LINE
  8
1
 10
6136.25146
 20
9067.00098
 11
6136.25146
 21
7926.32373
  0
LINE
  8
1
 10
9500.00098
 20
9221.84668
 11
9500.00098
 21
8081.16846
  0
LINE
  8
1
 10
11569.9990
 20
9221.84668
 11
11569.9990
 21
8081.16846
  0
LINE
  8
1
 10
13640.0000
 20
9221.84668
 11
13640.0000
 21
8081.16846
  0
LINE
  8
1
 10
17030.0000
 20
9067.00098
 11
17030.0000
 21
7926.32373
  0
LINE
  8
1
 10
19100.0000
 20
9067.00098
 11
19100.0000
 21
7926.32373
  0
LINE
  8
1
 10
21170.0000
 20
9067.00098
 11
21170.0000
 21
7926.32373
  0
LINE
  8
1
 10
24560.0020
 20
9221.84668
 11
24560.0020
 21
8081.16846
  0
LINE
  8
1
 10
26629.9980
 20
9221.84668
 11
26629.9980
 21
8081.16846
  0
LINE
  8
1
 10
28700.0000
 20
9221.84668
 11
28700.0000
 21
8081.16846
  0
LINE
  8
1
 10
32090.0000
 20
9067.00098
 11
32090.0000
 21
7926.32373
  0
LINE
  8
1
 10
34160.0000
 20
9067.00098
 11
34160.0000
 21
7926.32373
  0
LINE
  8
1
 10
36230.0000
 20
9067.00098
 11
36230.0000
 21
7926.32373
  0
LINE
  8
1
 10
39593.7500
 20
9221.84668
 11
39593.7500
 21
8081.16846
  0
LINE
  8
1
 10
41637.5000
 20
9221.84668
 11
41637.5000
 21
8081.16846
  0
LINE
  8
1
 10
43681.2500
 20
9221.84668
 11
43681.2500
 21
8081.16846
  0
LINE
  8
1
 10
2048.74878
 20
7616.63574
 11
2048.74878
 21
6475.95752
  0
TEXT
  8
3
 7
SIMPLEX
 10
909.998291
 20
6885.00049
 40
322.592163
  1
SI-1
 50
   0.000
  0
LINE
  8
1
 10
4092.49854
 20
7616.63574
 11
4092.49854
 21
6475.95752
  0
LINE
  8
1
 10
6136.25146
 20
7616.63574
 11
6136.25146
 21
6475.95752
  0
LINE
  8
1
 10
9500.00098
 20
7771.48047
 11
9500.00098
 21
6630.80127
  0
LINE
  8
1
 10
11569.9990
 20
7771.48047
 11
11569.9990
 21
6630.80127
  0
LINE
  8
1
 10
13640.0000
 20
7771.48047
 11
13640.0000
 21
6630.80127
  0
LINE
  8
1
 10
17030.0000
 20
7616.63574
 11
17030.0000
 21
6475.95752
  0
LINE
  8
1
 10
19100.0000
 20
7616.63574
 11
19100.0000
 21
6475.95752
  0
LINE
  8
1
 10
21170.0000
 20
7616.63574
 11
21170.0000
 21
6475.95752
  0
LINE
  8
1
 10
24560.0020
 20
7771.48047
 11
24560.0020
 21
6630.80127
  0
LINE
  8
1
 10
26629.9980
 20
7771.48047
 11
26629.9980
 21
6630.80127
  0
LINE
  8
1
 10
28700.0000
 20
7771.48047
 11
28700.0000
 21
6630.80127
  0
LINE
  8
1
 10
32090.0000
 20
7616.63574
 11
32090.0000
 21
6475.95752
  0
LINE
  8
1
 10
34160.0000
 20
7616.63574
 11
34160.0000
 21
6475.95752
  0
LINE
  8
1
 10
36230.0000
 20
7616.63574
 11
36230.0000
 21
6475.95752
  0
LINE
  8
1
 10
39593.7500
 20
7771.48047
 11
39593.7500
 21
6630.80127
  0
LINE
  8
1
 10
41637.5000
 20
7771.48047
 11
41637.5000
 21
6630.80127
  0
LINE
  8
1
 10
43681.2500
 20
7771.48047
 11
43681.2500
 21
6630.80127
  0
LINE
  8
1
 10
2048.74878
 20
5724.06641
 11
2048.74878
 21
4583.38916
  0
TEXT
  8
3
 7
SIMPLEX
 10
909.998291
 20
4992.43213
 40
322.592163
  1
SI-1
 50
   0.000
  0
LINE
  8
1
 10
4092.49854
 20
5724.06641
 11
4092.49854
 21
4583.38916
  0
LINE
  8
1
 10
6136.25146
 20
5724.06641
 11
6136.25146
 21
4583.38916
  0
LINE
  8
1
 10
9500.00098
 20
5569.22217
 11
9500.00098
 21
4428.54492
  0
LINE
  8
1
 10
11569.9990
 20
5569.22217
 11
11569.9990
 21
4428.54492
  0
LINE
  8
1
 10
13640.0000
 20
5569.22217
 11
13640.0000
 21
4428.54492
  0
LINE
  8
1
 10
17030.0000
 20
5724.06641
 11
17030.0000
 21
4583.38916
  0
LINE
  8
1
 10
19100.0000
 20
5724.06641
 11
19100.0000
 21
4583.38916
  0
LINE
  8
1
 10
21170.0000
 20
5724.06641
 11
21170.0000
 21
4583.38916
  0
LINE
  8
1
 10
24560.0020
 20
5569.22217
 11
24560.0020
 21
4428.54492
  0
LINE
  8
1
 10
26629.9980
 20
5569.22217
 11
26629.9980
 21
4428.54492
  0
LINE
  8
1
 10
28700.0000
 20
5569.22217
 11
28700.0000
 21
4428.54492
  0
LINE
  8
1
 10
32090.0000
 20
5724.06641
 11
32090.0000
 21
4583.38916
  0
LINE
  8
1
 10
34160.0000
 20
5724.06641
 11
34160.0000
 21
4583.38916
  0
LINE
  8
1
 10
36230.0000
 20
5724.06641
 11
36230.0000
 21
4583.38916
  0
LINE
  8
1
 10
39593.7500
 20
5569.22217
 11
39593.7500
 21
4428.54492
  0
LINE
  8
1
 10
41637.5000
 20
5569.22217
 11
41637.5000
 21
4428.54492
  0
LINE
  8
1
 10
43681.2500
 20
5569.22217
 11
43681.2500
 21
4428.54492
  0
LINE
  8
1
 10
2048.74878
 20
4273.70020
 11
2048.74878
 21
3133.02295
  0
TEXT
  8
3
 7
SIMPLEX
 10
909.998291
 20
3542.06519
 40
322.592163
  1
SI-1
 50
   0.000
  0
LINE
  8
1
 10
4092.49854
 20
4273.70020
 11
4092.49854
 21
3133.02295
  0
LINE
  8
1
 10
6136.25146
 20
4273.70020
 11
6136.25146
 21
3133.02295
  0
LINE
  8
1
 10
9500.00098
 20
4118.85645
 11
9500.00098
 21
2978.17847
  0
LINE
  8
1
 10
11569.9990
 20
4118.85645
 11
11569.9990
 21
2978.17847
  0
LINE
  8
1
 10
13640.0000
 20
4118.85645
 11
13640.0000
 21
2978.17847
  0
LINE
  8
1
 10
17030.0000
 20
4273.70020
 11
17030.0000
 21
3133.02295
  0
LINE
  8
1
 10
19100.0000
 20
4273.70020
 11
19100.0000
 21
3133.02295
  0
LINE
  8
1
 10
21170.0000
 20
4273.70020
 11
21170.0000
 21
3133.02295
  0
LINE
  8
1
 10
24560.0020
 20
4118.85645
 11
24560.0020
 21
2978.17847
  0
LINE
  8
1
 10
26629.9980
 20
4118.85645
 11
26629.9980
 21
2978.17847
  0
LINE
  8
1
 10
28700.0000
 20
4118.85645
 11
28700.0000
 21
2978.17847
  0
LINE
  8
1
 10
32090.0000
 20
4273.70020
 11
32090.0000
 21
3133.02295
  0
LINE
  8
1
 10
34160.0000
 20
4273.70020
 11
34160.0000
 21
3133.02295
  0
LINE
  8
1
 10
36230.0000
 20
4273.70020
 11
36230.0000
 21
3133.02295
  0
LINE
  8
1
 10
39593.7500
 20
4118.85645
 11
39593.7500
 21
2978.17847
  0
LINE
  8
1
 10
41637.5000
 20
4118.85645
 11
41637.5000
 21
2978.17847
  0
LINE
  8
1
 10
43681.2500
 20
4118.85645
 11
43681.2500
 21
2978.17847
  0
LINE
  8
1
 10
2048.74878
 20
2823.33447
 11
2048.74878
 21
1682.65662
  0
TEXT
  8
3
 7
SIMPLEX
 10
909.998291
 20
2091.69922
 40
322.592163
  1
SI-1
 50
   0.000
  0
LINE
  8
1
 10
4092.49854
 20
2823.33447
 11
4092.49854
 21
1682.65662
  0
LINE
  8
1
 10
6136.25146
 20
2823.33447
 11
6136.25146
 21
1682.65662
  0
LINE
  8
1
 10
9500.00098
 20
2668.48999
 11
9500.00098
 21
1527.81238
  0
LINE
  8
1
 10
11569.9990
 20
2668.48999
 11
11569.9990
 21
1527.81238
  0
LINE
  8
1
 10
13640.0000
 20
2668.48999
 11
13640.0000
 21
1527.81238
  0
LINE
  8
1
 10
17030.0000
 20
2823.33447
 11
17030.0000
 21
1682.65662
  0
LINE
  8
1
 10
19100.0000
 20
2823.33447
 11
19100.0000
 21
1682.65662
  0
LINE
  8
1
 10
21170.0000
 20
2823.33447
 11
21170.0000
 21
1682.65662
  0
LINE
  8
1
 10
24560.0020
 20
2668.48999
 11
24560.0020
 21
1527.81238
  0
LINE
  8
1
 10
26629.9980
 20
2668.48999
 11
26629.9980
 21
1527.81238
  0
LINE
  8
1
 10
28700.0000
 20
2668.48999
 11
28700.0000
 21
1527.81238
  0
LINE
  8
1
 10
32090.0000
 20
2823.33447
 11
32090.0000
 21
1682.65662
  0
LINE
  8
1
 10
34160.0000
 20
2823.33447
 11
34160.0000
 21
1682.65662
  0
LINE
  8
1
 10
36230.0000
 20
2823.33447
 11
36230.0000
 21
1682.65662
  0
LINE
  8
1
 10
39593.7500
 20
2668.48999
 11
39593.7500
 21
1527.81238
  0
LINE
  8
1
 10
41637.5000
 20
2668.48999
 11
41637.5000
 21
1527.81238
  0
LINE
  8
1
 10
43681.2500
 20
2668.48999
 11
43681.2500
 21
1527.81238
  0
LINE
  8
1
 10
-1422.6208
 20
4066.66650
 11
-2462.9324
 21
4066.66650
  0
LINE
  8
1
 10
-1422.6208
 20
2033.33325
 11
-2462.9324
 21
2033.33325
  0
TEXT
  8
3
 7
SIMPLEX
 10
-1781.4808
 20
781.675598
 40
322.592163
  1
SI-2
 50
  90.000
  0
LINE
  8
1
 10
47152.6172
 20
8133.33398
 11
48192.9336
 21
8133.33398
  0
TEXT
  8
3
 7
SIMPLEX
 10
47834.0703
 20
6881.67529
 40
322.592163
  1
SI-2
 50
  90.000
  0
LINE
  8
1
 10
47152.6172
 20
10166.6670
 11
48192.9336
 21
10166.6670
  0
LINE
  8
1
 10
2048.74878
 20
12045.1563
 11
2048.74878
 21
10827.0557
  0
TEXT
  8
3
 7
SIMPLEX
 10
748.702271
 20
11274.8096
 40
322.592163
  1
SE-1
 50
   0.000
  0
LINE
  8
1
 10
4092.49854
 20
12045.1563
 11
4092.49854
 21
10827.0557
  0
LINE
  8
1
 10
6136.25146
 20
12045.1563
 11
6136.25146
 21
10827.0557
  0
LINE
  8
1
 10
9500.00098
 20
11964.5078
 11
9500.00098
 21
10981.9004
  0
LINE
  8
1
 10
11569.9990
 20
11964.5078
 11
11569.9990
 21
10981.9004
  0
LINE
  8
1
 10
13640.0000
 20
11964.5078
 11
13640.0000
 21
10981.9004
  0
LINE
  8
1
 10
17030.0000
 20
12045.1563
 11
17030.0000
 21
10827.0557
  0
LINE
  8
1
 10
19100.0000
 20
12045.1563
 11
19100.0000
 21
10827.0557
  0
LINE
  8
1
 10
21170.0000
 20
12045.1563
 11
21170.0000
 21
10827.0557
  0
LINE
  8
1
 10
24560.0020
 20
11964.5078
 11
24560.0020
 21
10981.9004
  0
LINE
  8
1
 10
26629.9980
 20
11964.5078
 11
26629.9980
 21
10981.9004
  0
LINE
  8
1
 10
28700.0000
 20
11964.5078
 11
28700.0000
 21
10981.9004
  0
LINE
  8
1
 10
32090.0000
 20
12045.1563
 11
32090.0000
 21
10827.0557
  0
LINE
  8
1
 10
34160.0000
 20
12045.1563
 11
34160.0000
 21
10827.0557
  0
LINE
  8
1
 10
36230.0000
 20
12045.1563
 11
36230.0000
 21
10827.0557
  0
LINE
  8
1
 10
39593.7500
 20
11964.5078
 11
39593.7500
 21
10981.9004
  0
LINE
  8
1
 10
41637.5000
 20
11964.5078
 11
41637.5000
 21
10981.9004
  0
LINE
  8
1
 10
43681.2500
 20
11964.5078
 11
43681.2500
 21
10981.9004
  0
LINE
  8
1
 10
2048.74878
 20
1372.96802
 11
2048.74878
 21
235.492279
  0
TEXT
  8
3
 7
SIMPLEX
 10
748.702271
 20
642.934021
 40
322.592163
  1
SE-1
 50
   0.000
  0
LINE
  8
1
 10
4092.49854
 20
1372.96802
 11
4092.49854
 21
235.492279
  0
LINE
  8
1
 10
6136.25146
 20
1372.96802
 11
6136.25146
 21
235.492279
  0
LINE
  8
1
 10
9500.00098
 20
1218.12378
 11
9500.00098
 21
154.844238
  0
LINE
  8
1
 10
11569.9990
 20
1218.12378
 11
11569.9990
 21
154.844238
  0
LINE
  8
1
 10
13640.0000
 20
1218.12378
 11
13640.0000
 21
154.844238
  0
LINE
  8
1
 10
17030.0000
 20
1372.96802
 11
17030.0000
 21
235.492279
  0
LINE
  8
1
 10
19100.0000
 20
1372.96802
 11
19100.0000
 21
235.492279
  0
LINE
  8
1
 10
21170.0000
 20
1372.96802
 11
21170.0000
 21
235.492279
  0
LINE
  8
1
 10
24560.0020
 20
1218.12378
 11
24560.0020
 21
154.844238
  0
LINE
  8
1
 10
26629.9980
 20
1218.12378
 11
26629.9980
 21
154.844238
  0
LINE
  8
1
 10
28700.0000
 20
1218.12378
 11
28700.0000
 21
154.844238
  0
LINE
  8
1
 10
32090.0000
 20
1372.96802
 11
32090.0000
 21
235.492279
  0
LINE
  8
1
 10
34160.0000
 20
1372.96802
 11
34160.0000
 21
235.492279
  0
LINE
  8
1
 10
36230.0000
 20
1372.96802
 11
36230.0000
 21
235.492279
  0
LINE
  8
1
 10
39593.7500
 20
1218.12378
 11
39593.7500
 21
154.844238
  0
LINE
  8
1
 10
41637.5000
 20
1218.12378
 11
41637.5000
 21
154.844238
  0
LINE
  8
1
 10
43681.2500
 20
1218.12378
 11
43681.2500
 21
154.844238
  0
LINE
  8
1
 10
-2772.6208
 20
4066.66650
 11
-3812.9319
 21
4066.66650
  0
LINE
  8
1
 10
-2772.6208
 20
2033.33325
 11
-3812.9319
 21
2033.33325
  0
TEXT
  8
3
 7
SIMPLEX
 10
-3131.4805
 20
1104.26770
 40
322.592163
  1
SI-
 50
  90.000
  0
LINE
  8
1
 10
48502.6211
 20
8133.33398
 11
49542.9336
 21
8133.33398
  0
TEXT
  8
3
 7
SIMPLEX
 10
49184.0703
 20
7204.26904
 40
322.592163
  1
SI-
 50
  90.000
  0
LINE
  8
1
 10
48502.6211
 20
10166.6670
 11
49542.9336
 21
10166.6670
  0
LINE
  8
1
 10
-2772.6208
 20
4066.66650
 11
-3812.9319
 21
4066.66650
  0
LINE
  8
1
 10
-2772.6208
 20
2033.33325
 11
-3812.9319
 21
2033.33325
  0
TEXT
  8
3
 7
SIMPLEX
 10
-3131.4805
 20
1104.26770
 40
322.592163
  1
SI-
 50
  90.000
  0
LINE
  8
1
 10
48502.6211
 20
8133.33398
 11
49542.9336
 21
8133.33398
  0
TEXT
  8
3
 7
SIMPLEX
 10
49184.0703
 20
7204.26904
 40
322.592163
  1
SI-
 50
  90.000
  0
LINE
  8
1
 10
48502.6211
 20
10166.6670
 11
49542.9336
 21
10166.6670
999
END:     AREA=Alternate Angle
999
START:   AREA=Purlin Stabilizers
999
END:     AREA=Purlin Stabilizers
999
START:   AREA=Soldier Rafter/Cable
999
END:     AREA=Soldier Rafter/Cable
999
START:   AREA=JackBeams
999
END:     AREA=JackBeams
999
START:   AREA=JackBeams
999
END:     AREA=JackBeams
999
START:   AREA=Endwall Pieces
  0
INSERT
  8
10
  2
WCOL
 10
483.888275
 20
6100.00000
 41
12.7004795
 42
12.7004795
 43
12.7004795
 50
  90.000
  0
INSERT
  8
10
  2
WCOL
 10
44923.5195
 20
6100.00000
 41
12.7004795
 42
12.7004795
 43
12.7004795
 50
  90.000
999
END:     AREA=Endwall Pieces
999
START:   AREA=Sidewall Pieces
  0
INSERT
  8
10
  2
WCOL
 10
645.184326
 20
362.916199
 41
12.7004795
 42
12.7004795
 43
12.7004795
 50
   0.000
  0
INSERT
  8
10
  2
WCOL
 10
7804.99951
 20
362.916199
 41
12.7004795
 42
12.7004795
 43
12.7004795
 50
   0.000
  0
INSERT
  8
10
  2
WCOL
 10
15335.0000
 20
362.916199
 41
12.7004795
 42
12.7004795
 43
12.7004795
 50
   0.000
  0
INSERT
  8
10
  2
WCOL
 10
22865.0000
 20
362.916199
 41
12.7004795
 42
12.7004795
 43
12.7004795
 50
   0.000
  0
INSERT
  8
10
  2
WCOL
 10
30395.0020
 20
362.916199
 41
12.7004795
 42
12.7004795
 43
12.7004795
 50
   0.000
  0
INSERT
  8
10
  2
WCOL
 10
37925.0000
 20
362.916199
 41
12.7004795
 42
12.7004795
 43
12.7004795
 50
   0.000
  0
INSERT
  8
10
  2
WCOL
 10
45084.8125
 20
362.916199
 41
12.7004795
 42
12.7004795
 43
12.7004795
 50
   0.000
  0
INSERT
  8
10
  2
WCOL
 10
45084.8125
 20
12159.6758
 41
-12.700480
 42
12.7004795
 43
12.7004795
 50
   0.000
  0
INSERT
  8
10
  2
WCOL
 10
37925.0000
 20
12159.6758
 41
-12.700480
 42
12.7004795
 43
12.7004795
 50
   0.000
  0
INSERT
  8
10
  2
WCOL
 10
30395.0020
 20
12159.6758
 41
-12.700480
 42
12.7004795
 43
12.7004795
 50
   0.000
  0
INSERT
  8
10
  2
WCOL
 10
22864.9980
 20
12159.6758
 41
-12.700480
 42
12.7004795
 43
12.7004795
 50
   0.000
  0
INSERT
  8
10
  2
WCOL
 10
15334.9980
 20
12159.6758
 41
-12.700480
 42
12.7004795
 43
12.7004795
 50
   0.000
  0
INSERT
  8
10
  2
WCOL
 10
7804.99951
 20
12159.6758
 41
-12.700480
 42
12.7004795
 43
12.7004795
 50
   0.000
  0
INSERT
  8
10
  2
WCOL
 10
645.185425
 20
12159.6758
 41
-12.700480
 42
12.7004795
 43
12.7004795
 50
   0.000
  0
TEXT
  8
3
 7
SIMPLEX
 10
1290.36865
 20
9557.34180
 40
322.592163
  1
 RF1-2
 50
  90.000
  0
TEXT
  8
3
 7
SIMPLEX
 10
1290.36865
 20
3158.83032
 40
322.592163
  1
 RF1-3
 50
  90.000
  0
TEXT
  8
3
 7
SIMPLEX
 10
8450.18457
 20
9557.34180
 40
322.592163
  1
 RF2-2
 50
  90.000
  0
TEXT
  8
3
 7
SIMPLEX
 10
8450.18457
 20
3158.83032
 40
322.592163
  1
 RF2-2
 50
  90.000
  0
TEXT
  8
3
 7
SIMPLEX
 10
15980.1836
 20
9557.34180
 40
322.592163
  1
 RF3-2
 50
  90.000
  0
TEXT
  8
3
 7
SIMPLEX
 10
15980.1836
 20
3158.83032
 40
322.592163
  1
 RF3-2
 50
  90.000
  0
TEXT
  8
3
 7
SIMPLEX
 10
23510.1855
 20
9557.34180
 40
322.592163
  1
 RF3-2
 50
  90.000
  0
TEXT
  8
3
 7
SIMPLEX
 10
23510.1855
 20
3158.83032
 40
322.592163
  1
 RF3-2
 50
  90.000
  0
TEXT
  8
3
 7
SIMPLEX
 10
31040.1855
 20
9557.34180
 40
322.592163
  1
 RF3-2
 50
  90.000
  0
TEXT
  8
3
 7
SIMPLEX
 10
31040.1855
 20
3158.83032
 40
322.592163
  1
 RF3-2
 50
  90.000
  0
TEXT
  8
3
 7
SIMPLEX
 10
38570.1836
 20
9557.34180
 40
322.592163
  1
 RF2-2
 50
  90.000
  0
TEXT
  8
3
 7
SIMPLEX
 10
38570.1836
 20
3158.83032
 40
322.592163
  1
 RF2-2
 50
  90.000
  0
TEXT
  8
3
 7
SIMPLEX
 10
45730.0000
 20
9557.34180
 40
322.592163
  1
 RF4-2
 50
  90.000
  0
TEXT
  8
3
 7
SIMPLEX
 10
45730.0000
 20
3158.83032
 40
322.592163
  1
 RF4-3
 50
  90.000
999
END:     AREA=Sidewall Pieces
999
START:   AREA=Additional Columns
999
END:     AREA=Additional Columns
999
START:   AREA=Roof Pieces
999
END:     AREA=Roof Pieces
999
START:   AREA=EndWall Rafter
999
END:     AREA=EndWall Rafter
999
START:   AREA=Section Cuts
  0
INSERT
  8
7
  2
CUTSEC
 10
-3967.7764
 20
7624.99951
 41
1.00000000
 42
-1.0000000
 43
-1.0000000
 50
   0.000
  0
CIRCLE
  8
7
 10
-4664.5757
 20
7624.99951
 40
309.688477
  0
TEXT
  8
7
 7
SIMPLEX
 10
-4868.9702
 20
7501.12402
 40
247.750793
  1
X1
 72
           1
 11
-4664.5757
 21
7624.99951
 73
           2
 50
   0.000
  0
INSERT
  8
7
  2
CUTSEC
 10
-3967.7764
 20
1524.99988
 41
1.00000000
 42
-1.0000000
 43
-1.0000000
 50
   0.000
  0
CIRCLE
  8
7
 10
-4664.5757
 20
1524.99988
 40
309.688477
  0
TEXT
  8
7
 7
SIMPLEX
 10
-4912.3267
 20
1401.12451
 40
247.750793
  1
X2
 72
           1
 11
-4664.5757
 21
1524.99988
 73
           2
 50
   0.000
  0
INSERT
  8
7
  2
CUTSEC
 10
49697.7734
 20
4575.00000
 41
1.00000000
 42
-1.0000000
 43
-1.0000000
 50
-180.000
  0
CIRCLE
  8
7
 10
50394.5742
 20
4575.00000
 40
309.688477
  0
TEXT
  8
7
 7
SIMPLEX
 10
50190.1797
 20
4451.12451
 40
247.750793
  1
X1
 72
           1
 11
50394.5742
 21
4575.00000
 73
           2
 50
   0.000
  0
INSERT
  8
7
  2
CUTSEC
 10
49697.7734
 20
10675.0000
 41
1.00000000
 42
-1.0000000
 43
-1.0000000
 50
-180.000
  0
CIRCLE
  8
7
 10
50394.5742
 20
10675.0000
 40
309.688477
  0
TEXT
  8
7
 7
SIMPLEX
 10
50146.8203
 20
10551.1250
 40
247.750793
  1
X2
 72
           1
 11
50394.5742
 21
10675.0000
 73
           2
 50
   0.000
999
END:     AREA=Section Cuts
999
START:   AREA=Section Detail
  0
INSERT
  8
7
  2
CUTSEC
 10
7804.99951
 20
10024.4512
 41
1.00000000
 42
1.00000000
 43
1.00000000
 50
   0.000
  0
CIRCLE
  8
7
 10
7108.20117
 20
10024.4512
 40
309.688477
  0
TEXT
  8
7
 7
SIMPLEX
 10
6860.44971
 20
9900.57520
 40
247.750793
  1
G2
 72
           1
 11
7108.20117
 21
10024.4512
 73
           2
 50
   0.000
  0
CIRCLE
  8
7
 10
645.184326
 20
12119.3525
 40
129.036880
  0
LINE
  8
7
 10
769.824585
 20
12152.7490
 11
1193.60120
 21
12266.2979
  0
CIRCLE
  8
7
 10
1492.73755
 20
12346.4492
 40
309.688477
  0
TEXT
  8
7
 7
SIMPLEX
 10
1244.98682
 20
12222.5742
 40
247.750793
  1
Q3
 72
           1
 11
1492.73755
 21
12346.4492
 73
           2
 50
   0.000
999
END:     AREA=Section Detail
999
START:   AREA=AntiRoll Details
999
END:     AREA=AntiRoll Details
999
START:   AREA=User Details
999
END:     AREA=User Details
999
START:   AREA=Dimensions
  0
LINE
  8
12
 10
-5863.0054
 20
12200.0000
 11
-9953.4746
 21
12200.0000
  0
LINE
  8
12
 10
-5863.0054
 20
0.00000000
 11
-9953.4746
 21
0.00000000
  0
LINE
  8
2
 10
-9630.8818
 20
12200.0000
 11
-9630.8818
 21
0.00000000
  0
INSERT
  8
2
  2
ARROW
 10
-9630.8818
 20
12200.0000
 41
1.00000000
 42
1.00000000
 43
1.00000000
 50
  90.000
  0
INSERT
  8
2
  2
ARROW
 10
-9630.8818
 20
0.00000000
 41
1.00000000
 42
1.00000000
 43
1.00000000
 50
 270.000
  0
CIRCLE
  8
13
 10
-10340.585
 20
12200.0000
 40
387.110626
  0
TEXT
  8
13
 7
SIMPLEX
 10
-10514.784
 20
12025.8008
 40
348.399567
  1
C
 72
           1
 11
-10340.585
 21
12200.0000
 73
           2
 50
   0.000
  0
CIRCLE
  8
13
 10
-10340.585
 20
0.00000000
 40
387.110626
  0
TEXT
  8
13
 7
SIMPLEX
 10
-10514.784
 20
-174.19975
 40
348.399567
  1
A
 72
           1
 11
-10340.585
 21
0.00000000
 73
           2
 50
   0.000
  0
LINE
  8
12
 10
-9953.4746
 20
6100.00000
 11
-5863.0054
 21
6100.00000
  0
INSERT
  8
2
  2
ARROW
 10
-9630.8818
 20
6100.00000
 41
1.00000000
 42
1.00000000
 43
1.00000000
 50
  90.000
  0
INSERT
  8
2
  2
ARROW
 10
-9630.8818
 20
6100.00000
 41
1.00000000
 42
1.00000000
 43
1.00000000
 50
 270.000
  0
TEXT
  8
15
 7
SIMPLEX
 10
-9146.9932
 20
7053.15088
 40
322.592163
  1
ROOF SURFACE 2
 50
  90.000
  0
TEXT
  8
11
 7
SIMPLEX
 10
-9738.4121
 20
8561.26953
 40
322.592163
  1
6100
 50
  90.000
  0
TEXT
  8
15
 7
SIMPLEX
 10
-9146.9932
 20
953.150940
 40
322.592163
  1
ROOF SURFACE 3
 50
  90.000
  0
TEXT
  8
11
 7
SIMPLEX
 10
-9738.4121
 20
2461.26929
 40
322.592163
  1
6100
 50
  90.000
  0
LINE
  8
12
 10
0.00000000
 20
13450.0430
 11
0.00000000
 21
17540.5137
  0
LINE
  8
12
 10
45730.0000
 20
13450.0430
 11
45730.0000
 21
17540.5137
  0
LINE
  8
2
 10
0.00000000
 20
17217.9199
 11
45730.0000
 21
17217.9199
  0
LINE
  8
2
 10
0.00000000
 20
15282.3682
 11
45730.0000
 21
15282.3682
  0
INSERT
  8
2
  2
ARROW
 10
0.00000000
 20
15282.3682
 41
1.00000000
 42
1.00000000
 43
1.00000000
 50
 180.000
  0
INSERT
  8
2
  2
ARROW
 10
0.00000000
 20
17217.9199
 41
1.00000000
 42
1.00000000
 43
1.00000000
 50
 180.000
  0
INSERT
  8
2
  2
ARROW
 10
45730.0000
 20
15282.3682
 41
1.00000000
 42
1.00000000
 43
1.00000000
 50
   0.000
  0
INSERT
  8
2
  2
ARROW
 10
45730.0000
 20
17217.9199
 41
1.00000000
 42
1.00000000
 43
1.00000000
 50
   0.000
  0
CIRCLE
  8
13
 10
0.00000000
 20
17927.6250
 40
387.110626
  0
TEXT
  8
13
 7
SIMPLEX
 10
-113.22985
 20
17753.4238
 40
348.399567
  1
1
 72
           1
 11
0.00000000
 21
17927.6250
 73
           2
 50
   0.000
  0
CIRCLE
  8
13
 10
45730.0000
 20
17927.6250
 40
387.110626
  0
TEXT
  8
13
 7
SIMPLEX
 10
45555.7969
 20
17753.4238
 40
348.399567
  1
7
 72
           1
 11
45730.0000
 21
17927.6250
 73
           2
 50
   0.000
  0
INSERT
  8
2
  2
ARROW
 10
7804.99951
 20
15282.3682
 41
1.00000000
 42
1.00000000
 43
1.00000000
 50
   0.000
  0
INSERT
  8
2
  2
ARROW
 10
7804.99951
 20
15282.3682
 41
1.00000000
 42
1.00000000
 43
1.00000000
 50
 180.000
  0
CIRCLE
  8
13
 10
7804.99951
 20
16314.6621
 40
387.110626
  0
TEXT
  8
13
 7
SIMPLEX
 10
7630.79980
 20
16140.4619
 40
348.399567
  1
2
 72
           1
 11
7804.99951
 21
16314.6621
 73
           2
 50
   0.000
  0
LINE
  8
12
 10
7804.99951
 20
15927.5518
 11
7804.99951
 21
14508.1475
  0
INSERT
  8
2
  2
ARROW
 10
15334.9980
 20
15282.3682
 41
1.00000000
 42
1.00000000
 43
1.00000000
 50
   0.000
  0
INSERT
  8
2
  2
ARROW
 10
15334.9980
 20
15282.3682
 41
1.00000000
 42
1.00000000
 43
1.00000000
 50
 180.000
  0
CIRCLE
  8
13
 10
15334.9980
 20
16314.6621
 40
387.110626
  0
TEXT
  8
13
 7
SIMPLEX
 10
15160.7988
 20
16140.4619
 40
348.399567
  1
3
 72
           1
 11
15334.9980
 21
16314.6621
 73
           2
 50
   0.000
  0
LINE
  8
12
 10
15334.9980
 20
15927.5518
 11
15334.9980
 21
14508.1475
  0
INSERT
  8
2
  2
ARROW
 10
22864.9980
 20
15282.3682
 41
1.00000000
 42
1.00000000
 43
1.00000000
 50
   0.000
  0
INSERT
  8
2
  2
ARROW
 10
22864.9980
 20
15282.3682
 41
1.00000000
 42
1.00000000
 43
1.00000000
 50
 180.000
  0
CIRCLE
  8
13
 10
22864.9980
 20
16314.6621
 40
387.110626
  0
TEXT
  8
13
 7
SIMPLEX
 10
22690.7969
 20
16140.4619
 40
348.399567
  1
4
 72
           1
 11
22864.9980
 21
16314.6621
 73
           2
 50
   0.000
  0
LINE
  8
12
 10
22864.9980
 20
15927.5518
 11
22864.9980
 21
14508.1475
  0
INSERT
  8
2
  2
ARROW
 10
30395.0020
 20
15282.3682
 41
1.00000000
 42
1.00000000
 43
1.00000000
 50
   0.000
  0
INSERT
  8
2
  2
ARROW
 10
30395.0020
 20
15282.3682
 41
1.00000000
 42
1.00000000
 43
1.00000000
 50
 180.000
  0
CIRCLE
  8
13
 10
30395.0020
 20
16314.6621
 40
387.110626
  0
TEXT
  8
13
 7
SIMPLEX
 10
30220.8008
 20
16140.4619
 40
348.399567
  1
5
 72
           1
 11
30395.0020
 21
16314.6621
 73
           2
 50
   0.000
  0
LINE
  8
12
 10
30395.0020
 20
15927.5518
 11
30395.0020
 21
14508.1475
  0
INSERT
  8
2
  2
ARROW
 10
37925.0000
 20
15282.3682
 41
1.00000000
 42
1.00000000
 43
1.00000000
 50
   0.000
  0
INSERT
  8
2
  2
ARROW
 10
37925.0000
 20
15282.3682
 41
1.00000000
 42
1.00000000
 43
1.00000000
 50
 180.000
  0
CIRCLE
  8
13
 10
37925.0000
 20
16314.6621
 40
387.110626
  0
TEXT
  8
13
 7
SIMPLEX
 10
37750.8008
 20
16140.4619
 40
348.399567
  1
6
 72
           1
 11
37925.0000
 21
16314.6621
 73
           2
 50
   0.000
  0
LINE
  8
12
 10
37925.0000
 20
15927.5518
 11
37925.0000
 21
14508.1475
  0
TEXT
  8
11
 7
SIMPLEX
 10
3257.31543
 20
15389.8994
 40
322.592163
  1
7805
 50
   0.000
  0
TEXT
  8
11
 7
SIMPLEX
 10
10924.8154
 20
15389.8994
 40
322.592163
  1
7530
 50
   0.000
  0
TEXT
  8
11
 7
SIMPLEX
 10
18454.8145
 20
15389.8994
 40
322.592163
  1
7530
 50
   0.000
  0
TEXT
  8
11
 7
SIMPLEX
 10
25984.8145
 20
15389.8994
 40
322.592163
  1
7530
 50
   0.000
  0
TEXT
  8
11
 7
SIMPLEX
 10
33514.8164
 20
15389.8994
 40
322.592163
  1
7530
 50
   0.000
  0
TEXT
  8
11
 7
SIMPLEX
 10
41182.3164
 20
15389.8994
 40
322.592163
  1
7805
 50
   0.000
  0
LINE
  8
12
 10
645.184326
 20
13450.0430
 11
645.184326
 21
14127.4863
  0
LINE
  8
12
 10
0.00000000
 20
13450.0430
 11
0.00000000
 21
14127.4863
  0
LINE
  8
2
 10
0.00000000
 20
13966.1904
 11
-645.18433
 21
13966.1904
  0
LINE
  8
2
 10
645.184326
 20
13966.1904
 11
1290.36865
 21
13966.1904
  0
INSERT
  8
2
  2
ARROW
 10
0.00000000
 20
13966.1904
 41
1.00000000
 42
1.00000000
 43
1.00000000
 50
   0.000
  0
INSERT
  8
2
  2
ARROW
 10
645.184326
 20
13966.1904
 41
1.00000000
 42
1.00000000
 43
1.00000000
 50
 180.000
  0
TEXT
  8
11
 7
SIMPLEX
 10
806.480408
 20
14073.7217
 40
322.592163
  1
415
 50
   0.000
  0
LINE
  8
12
 10
45084.8125
 20
13450.0430
 11
45084.8125
 21
14127.4863
  0
LINE
  8
12
 10
45730.0000
 20
13450.0430
 11
45730.0000
 21
14127.4863
  0
LINE
  8
2
 10
45084.8125
 20
13966.1904
 11
44439.6289
 21
13966.1904
  0
LINE
  8
2
 10
45730.0000
 20
13966.1904
 11
46375.1836
 21
13966.1904
  0
INSERT
  8
2
  2
ARROW
 10
45084.8125
 20
13966.1904
 41
1.00000000
 42
1.00000000
 43
1.00000000
 50
   0.000
  0
INSERT
  8
2
  2
ARROW
 10
45730.0000
 20
13966.1904
 41
1.00000000
 42
1.00000000
 43
1.00000000
 50
 180.000
  0
TEXT
  8
11
 7
SIMPLEX
 10
44068.6484
 20
14073.7217
 40
322.592163
  1
415
 50
   0.000
  0
TEXT
  8
11
 7
SIMPLEX
 10
18985.8281
 20
17372.7656
 40
322.592163
  1
45730
 50
   0.000
  0
TEXT
  8
15
 7
SIMPLEX
 10
20598.7891
 20
17372.7656
 40
322.592163
  1
 OUT-TO-OUT OF STEEL
 50
   0.000
  0
TEXT
  8
15
 7
SIMPLEX
 10
15509.8965
 20
-4008.2080
 40
516.147522
  1
COLUMNS & RAFTERS MARKING PLAN
 72
           1
 11
22865.0000
 21
-4008.2080
 50
   0.000
  0
LINE
  8
12
 10
-3967.7764
 20
13450.0430
 11
-3967.7764
 21
17540.5137
  0
LINE
  8
12
 10
-967.77643
 20
13450.0430
 11
-967.77643
 21
17540.5137
  0
LINE
  8
2
 10
-3967.7764
 20
17217.9199
 11
-967.77655
 21
17217.9199
  0
INSERT
  8
2
  2
ARROW
 10
-3967.7764
 20
17217.9199
 41
1.00000000
 42
1.00000000
 43
1.00000000
 50
 180.000
  0
INSERT
  8
2
  2
ARROW
 10
-967.77655
 20
17217.9199
 41
1.00000000
 42
1.00000000
 43
1.00000000
 50
   0.000
  0
TEXT
  8
11
 7
SIMPLEX
 10
-3112.9607
 20
17325.4531
 40
322.592163
  1
3000
 50
   0.000
  0
LINE
  8
12
 10
46697.7734
 20
13450.0430
 11
46697.7734
 21
17540.5137
  0
LINE
  8
12
 10
49697.7734
 20
13450.0430
 11
49697.7734
 21
17540.5137
  0
LINE
  8
2
 10
46697.7734
 20
17217.9199
 11
49697.7734
 21
17217.9199
  0
INSERT
  8
2
  2
ARROW
 10
46697.7734
 20
17217.9199
 41
1.00000000
 42
1.00000000
 43
1.00000000
 50
 180.000
  0
INSERT
  8
2
  2
ARROW
 10
49697.7734
 20
17217.9199
 41
1.00000000
 42
1.00000000
 43
1.00000000
 50
   0.000
  0
TEXT
  8
11
 7
SIMPLEX
 10
47552.5898
 20
17325.4531
 40
322.592163
  1
3000
 50
   0.000
  0
TEXT
  8
11
 7
SIMPLEX
 10
7925.97168
 20
-1895.2290
 40
241.944138
  1
375
 50
   0.000
  0
LINE
  8
2
 10
7804.99951
 20
-1612.9608
 11
7804.99951
 21
-1371.0167
  0
LINE
  8
2
 10
7804.99951
 20
-1491.9888
 11
8180.00049
 21
-1491.9888
  0
TEXT
  8
11
 7
SIMPLEX
 10
6958.19531
 20
-1411.3407
 40
241.944138
  1
375
 50
   0.000
  0
LINE
  8
2
 10
7804.99951
 20
-1612.9608
 11
7804.99951
 21
-1371.0167
  0
LINE
  8
2
 10
7804.99951
 20
-1491.9888
 11
7430.00000
 21
-1491.9888
  0
TEXT
  8
11
 7
SIMPLEX
 10
15455.9727
 20
-1895.2290
 40
241.944138
  1
375
 50
   0.000
  0
LINE
  8
2
 10
15335.0000
 20
-1612.9608
 11
15335.0000
 21
-1371.0167
  0
LINE
  8
2
 10
15335.0000
 20
-1491.9888
 11
15710.0020
 21
-1491.9888
  0
TEXT
  8
11
 7
SIMPLEX
 10
14488.1973
 20
-1411.3407
 40
241.944138
  1
375
 50
   0.000
  0
LINE
  8
2
 10
15335.0000
 20
-1612.9608
 11
15335.0000
 21
-1371.0167
  0
LINE
  8
2
 10
15335.0000
 20
-1491.9888
 11
14960.0000
 21
-1491.9888
  0
TEXT
  8
11
 7
SIMPLEX
 10
22985.9727
 20
-1895.2290
 40
241.944138
  1
375
 50
   0.000
  0
LINE
  8
2
 10
22865.0000
 20
-1612.9608
 11
22865.0000
 21
-1371.0167
  0
LINE
  8
2
 10
22865.0000
 20
-1491.9888
 11
23240.0020
 21
-1491.9888
  0
TEXT
  8
11
 7
SIMPLEX
 10
22018.1973
 20
-1411.3407
 40
241.944138
  1
375
 50
   0.000
  0
LINE
  8
2
 10
22865.0000
 20
-1612.9608
 11
22865.0000
 21
-1371.0167
  0
LINE
  8
2
 10
22865.0000
 20
-1491.9888
 11
22490.0000
 21
-1491.9888
  0
TEXT
  8
11
 7
SIMPLEX
 10
30515.9707
 20
-1895.2290
 40
241.944138
  1
375
 50
   0.000
  0
LINE
  8
2
 10
30395.0020
 20
-1612.9608
 11
30395.0020
 21
-1371.0167
  0
LINE
  8
2
 10
30395.0020
 20
-1491.9888
 11
30770.0000
 21
-1491.9888
  0
TEXT
  8
11
 7
SIMPLEX
 10
29548.1953
 20
-1411.3407
 40
241.944138
  1
375
 50
   0.000
  0
LINE
  8
2
 10
30395.0020
 20
-1612.9608
 11
30395.0020
 21
-1371.0167
  0
LINE
  8
2
 10
30395.0020
 20
-1491.9888
 11
30020.0000
 21
-1491.9888
  0
TEXT
  8
11
 7
SIMPLEX
 10
38045.9727
 20
-1895.2290
 40
241.944138
  1
375
 50
   0.000
  0
LINE
  8
2
 10
37925.0000
 20
-1612.9608
 11
37925.0000
 21
-1371.0167
  0
LINE
  8
2
 10
37925.0000
 20
-1491.9888
 11
38300.0000
 21
-1491.9888
  0
TEXT
  8
11
 7
SIMPLEX
 10
37078.1953
 20
-1411.3407
 40
241.944138
  1
375
 50
   0.000
  0
LINE
  8
2
 10
37925.0000
 20
-1612.9608
 11
37925.0000
 21
-1371.0167
  0
LINE
  8
2
 10
37925.0000
 20
-1491.9888
 11
37550.0000
 21
-1491.9888
  0
TEXT
  8
2
 7
SIMPLEX
 10
-2016.2012
 20
-1330.6926
 40
322.592163
  1
PURLIN
 72
           2
 11
-241.94414
 21
-1330.6926
 50
   0.000
  0
TEXT
  8
2
 7
SIMPLEX
 10
-1209.7207
 20
-1814.5811
 40
322.592163
  1
LAP
 72
           2
 11
-241.94414
 21
-1814.5811
 50
   0.000
999
END:     AREA=Dimensions
  0
ENDBLK
  8
0
  0
BLOCK
  8
1
  2
RW1BLT
 70
     0
 10
0.00000000
 20
0.00000000
  0
TEXT
  8
14
 7
SIMPLEX
 10
-11774.614
 20
-403.24026
 40
322.592163
  1
EXTENSION/CANOPY BOLTS
 50
   0.000
  0
TEXT
  8
14
 7
SIMPLEX
 10
-11774.614
 20
-887.12866
 40
322.592163
  1
ROOF PLAN
 50
   0.000
  0
TEXT
  8
14
 7
SIMPLEX
 10
-11774.614
 20
-1371.0167
 40
322.592163
  1
MARK
 50
   0.000
  0
TEXT
  8
14
 7
SIMPLEX
 10
-7258.3242
 20
-1371.0167
 40
322.592163
  1
QUAN
 50
   0.000
  0
TEXT
  8
14
 7
SIMPLEX
 10
-5645.3633
 20
-1371.0167
 40
322.592163
  1
TYPE
 50
   0.000
  0
TEXT
  8
14
 7
SIMPLEX
 10
-4032.4023
 20
-1371.0167
 40
322.592163
  1
DIA
 50
   0.000
  0
TEXT
  8
14
 7
SIMPLEX
 10
-2096.8496
 20
-1371.0167
 40
322.592163
  1
LENGTH
 50
   0.000
  0
TEXT
  8
26
 7
SIMPLEX
 10
-11774.614
 20
-1854.9050
 40
322.592163
  1
 EB-1
 50
   0.000
  0
TEXT
  8
26
 7
SIMPLEX
 10
-6613.1387
 20
-1854.9050
 40
322.592163
  1
8
 50
   0.000
  0
TEXT
  8
26
 7
SIMPLEX
 10
-5645.3633
 20
-1854.9050
 40
322.592163
  1
Gr8.8
 50
   0.000
  0
TEXT
  8
26
 7
SIMPLEX
 10
-4032.4023
 20
-1854.9050
 40
322.592163
  1
20
 50
   0.000
  0
TEXT
  8
26
 7
SIMPLEX
 10
-2096.8496
 20
-1854.9050
 40
322.592163
  1
90
 50
   0.000
  0
TEXT
  8
26
 7
SIMPLEX
 10
-11774.614
 20
-2338.7932
 40
322.592163
  1
 EB-2
 50
   0.000
  0
TEXT
  8
26
 7
SIMPLEX
 10
-6613.1387
 20
-2338.7932
 40
322.592163
  1
8
 50
   0.000
  0
TEXT
  8
26
 7
SIMPLEX
 10
-5645.3633
 20
-2338.7932
 40
322.592163
  1
Gr8.8
 50
   0.000
  0
TEXT
  8
26
 7
SIMPLEX
 10
-4032.4023
 20
-2338.7932
 40
322.592163
  1
20
 50
   0.000
  0
TEXT
  8
26
 7
SIMPLEX
 10
-2096.8496
 20
-2338.7932
 40
322.592163
  1
90
 50
   0.000
  0
LINE
  8
0
 10
-11935.911
 20
0.00000000
 11
0.00000000
 21
0.00000000
  0
LINE
  8
0
 10
-11935.911
 20
-2419.4412
 11
0.00000000
 21
-2419.4412
  0
LINE
  8
0
 10
-11935.911
 20
0.00000000
 11
-11935.911
 21
-2419.4412
  0
LINE
  8
0
 10
0.00000000
 20
0.00000000
 11
0.00000000
 21
-2419.4412
  0
LINE
  8
0
 10
-11935.911
 20
-967.77655
 11
0.00000000
 21
-967.77655
  0
LINE
  8
0
 10
-7419.6201
 20
-967.77655
 11
-7419.6201
 21
-2419.4412
  0
LINE
  8
0
 10
-11935.911
 20
-1451.6649
 11
0.00000000
 21
-1451.6649
  0
ENDBLK
  8
1
  0
BLOCK
  8
1
  2
RW1TBL
 70
     0
 10
0.00000000
 20
0.00000000
  0
TEXT
  8
14
 7
SIMPLEX
 10
-8709.9893
 20
-403.24026
 40
322.592163
  1
MEMBER TABLE
 50
   0.000
  0
TEXT
  8
14
 7
SIMPLEX
 10
-8709.9893
 20
-887.12866
 40
322.592163
  1
ROOF PLAN
 50
   0.000
  0
TEXT
  8
14
 7
SIMPLEX
 10
-8709.9893
 20
-1371.0167
 40
322.592163
  1
MARK
 50
   0.000
  0
TEXT
  8
14
 7
SIMPLEX
 10
-6451.8438
 20
-1371.0167
 40
322.592163
  1
PART
 50
   0.000
  0
TEXT
  8
14
 7
SIMPLEX
 10
-3225.9221
 20
-1371.0167
 40
322.592163
  1
LENGTH
 50
   0.000
  0
TEXT
  8
26
 7
SIMPLEX
 10
-8709.9893
 20
-1854.9052
 40
322.592163
  1
EB-1
 50
   0.000
  0
TEXT
  8
26
 7
SIMPLEX
 10
-6451.8438
 20
-1854.9052
 40
322.592163
  1
BEAM
 50
   0.000
  0
TEXT
  8
26
 7
SIMPLEX
 10
-3225.9221
 20
-1854.9052
 40
322.592163
  1
   3036
 50
   0.000
  0
TEXT
  8
26
 7
SIMPLEX
 10
-8709.9893
 20
-2338.7935
 40
322.592163
  1
EB-2
 50
   0.000
  0
TEXT
  8
26
 7
SIMPLEX
 10
-6451.8438
 20
-2338.7935
 40
322.592163
  1
BEAM
 50
   0.000
  0
TEXT
  8
26
 7
SIMPLEX
 10
-3225.9221
 20
-2338.7935
 40
322.592163
  1
   3453
 50
   0.000
  0
TEXT
  8
26
 7
SIMPLEX
 10
-8709.9893
 20
-2822.6816
 40
322.592163
  1
 P-1
 50
   0.000
  0
TEXT
  8
26
 7
SIMPLEX
 10
-6451.8438
 20
-2822.6816
 40
322.592163
  1
200Z18
 50
   0.000
  0
TEXT
  8
26
 7
SIMPLEX
 10
-3225.9221
 20
-2822.6816
 40
322.592163
  1
   8175
 50
   0.000
  0
TEXT
  8
26
 7
SIMPLEX
 10
-8709.9893
 20
-3306.5698
 40
322.592163
  1
 P-2
 50
   0.000
  0
TEXT
  8
26
 7
SIMPLEX
 10
-6451.8438
 20
-3306.5698
 40
322.592163
  1
200Z18
 50
   0.000
  0
TEXT
  8
26
 7
SIMPLEX
 10
-3225.9221
 20
-3306.5698
 40
322.592163
  1
   8280
 50
   0.000
  0
TEXT
  8
26
 7
SIMPLEX
 10
-8709.9893
 20
-3790.4580
 40
322.592163
  1
 P-3
 50
   0.000
  0
TEXT
  8
26
 7
SIMPLEX
 10
-6451.8438
 20
-3790.4580
 40
322.592163
  1
200Z18
 50
   0.000
  0
TEXT
  8
26
 7
SIMPLEX
 10
-3225.9221
 20
-3790.4580
 40
322.592163
  1
   8175
 50
   0.000
  0
TEXT
  8
26
 7
SIMPLEX
 10
-8709.9893
 20
-4274.3462
 40
322.592163
  1
 P-4
 50
   0.000
  0
TEXT
  8
26
 7
SIMPLEX
 10
-6451.8438
 20
-4274.3462
 40
322.592163
  1
200Z18
 50
   0.000
  0
TEXT
  8
26
 7
SIMPLEX
 10
-3225.9221
 20
-4274.3462
 40
322.592163
  1
   6295
 50
   0.000
  0
TEXT
  8
26
 7
SIMPLEX
 10
-8709.9893
 20
-4758.2349
 40
322.592163
  1
 E-1
 50
   0.000
  0
TEXT
  8
26
 7
SIMPLEX
 10
-6451.8438
 20
-4758.2349
 40
322.592163
  1
200Z18
 50
   0.000
  0
TEXT
  8
26
 7
SIMPLEX
 10
-3225.9221
 20
-4758.2349
 40
322.592163
  1
   8175
 50
   0.000
  0
TEXT
  8
26
 7
SIMPLEX
 10
-8709.9893
 20
-5242.1230
 40
322.592163
  1
 E-2
 50
   0.000
  0
TEXT
  8
26
 7
SIMPLEX
 10
-6451.8438
 20
-5242.1230
 40
322.592163
  1
200Z18
 50
   0.000
  0
TEXT
  8
26
 7
SIMPLEX
 10
-3225.9221
 20
-5242.1230
 40
322.592163
  1
   8280
 50
   0.000
  0
TEXT
  8
26
 7
SIMPLEX
 10
-8709.9893
 20
-5726.0112
 40
322.592163
  1
 E-3
 50
   0.000
  0
TEXT
  8
26
 7
SIMPLEX
 10
-6451.8438
 20
-5726.0112
 40
322.592163
  1
200Z18
 50
   0.000
  0
TEXT
  8
26
 7
SIMPLEX
 10
-3225.9221
 20
-5726.0112
 40
322.592163
  1
   8175
 50
   0.000
  0
TEXT
  8
26
 7
SIMPLEX
 10
-8709.9893
 20
-6209.8994
 40
322.592163
  1
 E-4
 50
   0.000
  0
TEXT
  8
26
 7
SIMPLEX
 10
-6451.8438
 20
-6209.8994
 40
322.592163
  1
200Z15
 50
   0.000
  0
TEXT
  8
26
 7
SIMPLEX
 10
-3225.9221
 20
-6209.8994
 40
322.592163
  1
   6300
 50
   0.000
  0
TEXT
  8
26
 7
SIMPLEX
 10
-8709.9893
 20
-6693.7881
 40
322.592163
  1
CB-3
 50
   0.000
  0
TEXT
  8
26
 7
SIMPLEX
 10
-6451.8438
 20
-6693.7881
 40
322.592163
  1
ROD20
 50
   0.000
  0
TEXT
  8
26
 7
SIMPLEX
 10
-3225.9221
 20
-6693.7881
 40
322.592163
  1
   9220
 50
   0.000
  0
TEXT
  8
26
 7
SIMPLEX
 10
-8709.9893
 20
-7177.6758
 40
322.592163
  1
CB-4
 50
   0.000
  0
TEXT
  8
26
 7
SIMPLEX
 10
-6451.8438
 20
-7177.6758
 40
322.592163
  1
ROD20
 50
   0.000
  0
TEXT
  8
26
 7
SIMPLEX
 10
-3225.9221
 20
-7177.6758
 40
322.592163
  1
   6220
 50
   0.000
  0
TEXT
  8
26
 7
SIMPLEX
 10
-8709.9893
 20
-7661.5649
 40
322.592163
  1
SP-1
 50
   0.000
  0
TEXT
  8
26
 7
SIMPLEX
 10
-6451.8438
 20
-7661.5649
 40
322.592163
  1
SROD12
 50
   0.000
  0
TEXT
  8
26
 7
SIMPLEX
 10
-3225.9221
 20
-7661.5649
 40
322.592163
  1
    697
 50
   0.000
  0
TEXT
  8
26
 7
SIMPLEX
 10
-8709.9893
 20
-8145.4526
 40
322.592163
  1
SI-1
 50
   0.000
  0
TEXT
  8
26
 7
SIMPLEX
 10
-6451.8438
 20
-8145.4526
 40
322.592163
  1
SROD12
 50
   0.000
  0
TEXT
  8
26
 7
SIMPLEX
 10
-3225.9221
 20
-8145.4526
 40
322.592163
  1
   1557
 50
   0.000
  0
TEXT
  8
26
 7
SIMPLEX
 10
-8709.9893
 20
-8629.3418
 40
322.592163
  1
SI-2
 50
   0.000
  0
TEXT
  8
26
 7
SIMPLEX
 10
-6451.8438
 20
-8629.3418
 40
322.592163
  1
SROD12
 50
   0.000
  0
TEXT
  8
26
 7
SIMPLEX
 10
-3225.9221
 20
-8629.3418
 40
322.592163
  1
   1457
 50
   0.000
  0
TEXT
  8
26
 7
SIMPLEX
 10
-8709.9893
 20
-9113.2295
 40
322.592163
  1
SE-1
 50
   0.000
  0
TEXT
  8
26
 7
SIMPLEX
 10
-6451.8438
 20
-9113.2295
 40
322.592163
  1
SROD12
 50
   0.000
  0
TEXT
  8
26
 7
SIMPLEX
 10
-3225.9221
 20
-9113.2295
 40
322.592163
  1
   1478
 50
   0.000
  0
TEXT
  8
26
 7
SIMPLEX
 10
-8709.9893
 20
-9597.1182
 40
322.592163
  1
SI-
 50
   0.000
  0
TEXT
  8
26
 7
SIMPLEX
 10
-6451.8438
 20
-9597.1182
 40
322.592163
  1
SROD12
 50
   0.000
  0
TEXT
  8
26
 7
SIMPLEX
 10
-3225.9221
 20
-9597.1182
 40
322.592163
  1
   1387
 50
   0.000
  0
LINE
  8
0
 10
-9032.5811
 20
-9677.7656
 11
0.00000000
 21
-9677.7656
  0
LINE
  8
0
 10
-9032.5811
 20
-1451.6649
 11
-9032.5811
 21
-9677.7656
  0
LINE
  8
0
 10
-6774.4360
 20
-1451.6649
 11
-6774.4360
 21
-9677.7656
  0
LINE
  8
0
 10
-3548.5144
 20
-1451.6649
 11
-3548.5144
 21
-9677.7656
  0
LINE
  8
0
 10
-9032.5811
 20
0.00000000
 11
0.00000000
 21
0.00000000
  0
LINE
  8
0
 10
-9032.5811
 20
0.00000000
 11
-9032.5811
 21
-9677.7656
  0
LINE
  8
0
 10
0.00000000
 20
0.00000000
 11
0.00000000
 21
-9677.7656
  0
LINE
  8
0
 10
-9032.5811
 20
-967.77655
 11
0.00000000
 21
-967.77655
  0
LINE
  8
0
 10
-9032.5811
 20
-967.77655
 11
-9032.5811
 21
-1451.6649
  0
LINE
  8
0
 10
-6774.4360
 20
-967.77655
 11
-6774.4360
 21
-1451.6649
  0
LINE
  8
0
 10
-3548.5144
 20
-967.77655
 11
-3548.5144
 21
-1451.6649
  0
LINE
  8
0
 10
-9032.5811
 20
-1451.6649
 11
0.00000000
 21
-1451.6649
  0
ENDBLK
  8
1
  0
BLOCK
  8
1
  2
RW1ANGL
 70
     0
 10
0.00000000
 20
0.00000000
  0
TEXT
  8
14
 7
SIMPLEX
 10
-6935.7310
 20
-403.24026
 40
322.592163
  1
ANGLE TABLE
 50
   0.000
  0
TEXT
  8
14
 7
SIMPLEX
 10
-6935.7310
 20
-887.12866
 40
322.592163
  1
ROOF PLAN
 50
   0.000
  0
TEXT
  8
14
 7
SIMPLEX
 10
-6613.1396
 20
-1371.0167
 40
322.592163
  1
ID
 50
   0.000
  0
TEXT
  8
14
 7
SIMPLEX
 10
-5806.6597
 20
-1371.0167
 40
322.592163
  1
MARK
 50
   0.000
  0
TEXT
  8
14
 7
SIMPLEX
 10
-3548.5139
 20
-1371.0167
 40
322.592163
  1
LENGTH
 50
   0.000
  0
LINE
  8
14
 10
-7016.3799
 20
-1209.7207
 11
-6855.0840
 21
-1048.4247
  0
LINE
  8
14
 10
-6855.0840
 20
-1048.4247
 11
-6693.7876
 21
-1209.7207
  0
LINE
  8
14
 10
-6693.7876
 20
-1209.7207
 11
-6855.0840
 21
-1371.0167
  0
LINE
  8
14
 10
-6855.0840
 20
-1371.0167
 11
-7016.3799
 21
-1209.7207
  0
TEXT
  8
26
 7
SIMPLEX
 10
-5806.6597
 20
-1854.9052
 40
322.592163
  1
GA
 50
   0.000
  0
TEXT
  8
26
 7
SIMPLEX
 10
-3548.5139
 20
-1854.9052
 40
322.592163
  1
   3000
 50
   0.000
  0
LINE
  8
0
 10
-7097.0278
 20
0.00000000
 11
-7097.0278
 21
-1935.5532
  0
LINE
  8
0
 10
0.00000000
 20
0.00000000
 11
0.00000000
 21
-1935.5532
  0
LINE
  8
0
 10
-7097.0278
 20
0.00000000
 11
0.00000000
 21
0.00000000
  0
LINE
  8
0
 10
-7097.0278
 20
-1935.5532
 11
0.00000000
 21
-1935.5532
  0
LINE
  8
0
 10
-7097.0278
 20
-967.77655
 11
0.00000000
 21
-967.77655
  0
LINE
  8
0
 10
-5967.9556
 20
-967.77655
 11
-5967.9556
 21
-1935.5532
  0
LINE
  8
0
 10
-3709.8101
 20
-967.77655
 11
-3709.8101
 21
-1935.5532
  0
LINE
  8
0
 10
-7097.0278
 20
-1451.6649
 11
0.00000000
 21
-1451.6649
  0
ENDBLK
  8
1
  0
ENDSEC
  0
SECTION
  2
ENTITIES
  0
LINE
  8
22
 10
0.00000000
 20
0.00000000
 11
77588.3828
 21
0.00000000
  0
LINE
  8
22
 10
77588.3828
 20
0.00000000
 11
77588.3828
 21
54866.0664
  0
LINE
  8
22
 10
77588.3828
 20
54866.0664
 11
0.00000000
 21
54866.0664
  0
LINE
  8
22
 10
0.00000000
 20
54866.0664
 11
0.00000000
 21
0.00000000
  0
LINE
  8
0
 10
48027.2031
 20
0.00000000
 11
48027.2031
 21
4926.86230
  0
LINE
  8
0
 10
48027.2031
 20
4926.86230
 11
77588.3828
 21
4926.86230
  0
LINE
  8
0
 10
48027.2031
 20
0.00000000
 11
77588.3828
 21
0.00000000
  0
LINE
  8
0
 10
77588.3828
 20
0.00000000
 11
77588.3828
 21
4926.86230
  0
LINE
  8
0
 10
48027.2031
 20
1876.89978
 11
77588.3828
 21
1876.89978
  0
LINE
  8
0
 10
48027.2031
 20
2815.34985
 11
77588.3828
 21
2815.34985
  0
LINE
  8
0
 10
48027.2031
 20
3753.79956
 11
77588.3828
 21
3753.79956
  0
LINE
  8
0
 10
52250.2305
 20
0.00000000
 11
52250.2305
 21
3753.79956
  0
LINE
  8
0
 10
62807.7969
 20
0.00000000
 11
62807.7969
 21
3753.79956
  0
LINE
  8
0
 10
62807.7969
 20
938.449890
 11
77588.3828
 21
938.449890
  0
LINE
  8
0
 10
67969.2734
 20
2815.34985
 11
67969.2734
 21
1876.89978
  0
LINE
  8
0
 10
72661.5156
 20
2815.34985
 11
72661.5156
 21
1876.89978
  0
LINE
  8
0
 10
70315.3906
 20
1876.89978
 11
70315.3906
 21
938.449890
  0
TEXT
  8
14
 7
SIMPLEX
 10
48496.4297
 20
3049.96216
 40
469.224945
  1
PROJECT
 50
   0.000
  0
TEXT
  8
14
 7
SIMPLEX
 10
48496.4297
 20
2111.51245
 40
469.224945
  1
ID
 50
   0.000
  0
TEXT
  8
14
 7
SIMPLEX
 10
48496.4297
 20
1173.06250
 40
469.224945
  1
PROJECT
 50
   0.000
  0
TEXT
  8
14
 7
SIMPLEX
 10
48496.4297
 20
234.612473
 40
469.224945
  1
ADDRESS
 50
   0.000
  0
TEXT
  8
14
 7
SIMPLEX
 10
52719.4531
 20
3049.96216
 40
469.224945
  1
Proposed Warehouse
 50
   0.000
  0
TEXT
  8
14
 7
SIMPLEX
 10
52719.4531
 20
2111.51245
 40
469.224945
  1
C163-127
 50
   0.000
  0
TEXT
  8
14
 7
SIMPLEX
 10
52719.4531
 20
1173.06250
 40
469.224945
  1
Proposed Warehouse
 50
   0.000
  0
TEXT
  8
14
 7
SIMPLEX
 10
52719.4531
 20
234.612473
 40
469.224945
  1
 
 50
   0.000
  0
TEXT
  8
14
 7
SIMPLEX
 10
54127.1367
 20
3988.41260
 40
703.837463
  1
Sivoko Steel Structures Ltd.
 50
   0.000
  0
TEXT
  8
14
 7
SIMPLEX
 10
63277.0195
 20
3049.96216
 40
469.224945
  1
ROOF FRAMING
 50
   0.000
  0
TEXT
  8
14
 7
SIMPLEX
 10
63277.0195
 20
2111.51245
 40
469.224945
  1
DESIGN:
 50
   0.000
  0
TEXT
  8
14
 7
SIMPLEX
 10
63277.0195
 20
1173.06250
 40
469.224945
  1
DATE:
 50
   0.000
  0
TEXT
  8
14
 7
SIMPLEX
 10
65670.0625
 20
1173.06250
 40
469.224945
  1
29/JAN/2026
 50
   0.000
  0
TEXT
  8
14
 7
SIMPLEX
 10
68438.4922
 20
2111.51245
 40
469.224945
  1
DRAFT:
 50
   0.000
  0
TEXT
  8
14
 7
SIMPLEX
 10
73130.7422
 20
2111.51245
 40
469.224945
  1
CHECK:
 50
   0.000
  0
TEXT
  8
14
 7
SIMPLEX
 10
70550.0078
 20
1173.06250
 40
469.224945
  1
SHEET
 50
   0.000
  0
TEXT
  8
14
 7
SIMPLEX
 10
74773.0313
 20
1173.06250
 40
469.224945
  1
OF
 50
   0.000
  0
TEXT
  8
14
 7
SIMPLEX
 10
72896.1328
 20
1173.06250
 40
469.224945
  1
 
 50
   0.000
999
FIELD:@PAGE_ID
  0
TEXT
  8
14
 7
SIMPLEX
 10
75711.4844
 20
1173.06250
 40
469.224945
  1
 
 50
   0.000
999
FIELD:@PAGE_TOTAL
  0
INSERT
  8
0
  2
ROFFRM
 10
12575.0381
 20
23050.7871
 41
1.00000000
 42
1.00000000
 43
1.00000000
 50
   0.000
  0
INSERT
  8
0
  2
RW1BLT
 10
77588.3828
 20
54866.0664
 41
1.00000000
 42
1.00000000
 43
1.00000000
 50
   0.000
  0
INSERT
  8
0
  2
RW1TBL
 10
77588.3828
 20
52124.0352
 41
1.00000000
 42
1.00000000
 43
1.00000000
 50
   0.000
  0
INSERT
  8
0
  2
RW1ANGL
 10
77588.3828
 20
42123.6797
 41
1.00000000
 42
1.00000000
 43
1.00000000
 50
   0.000
  0
ENDSEC
  0
EOF
