999
SOURCE:MBS   PROGRAM:ASM_DXF   CELL:ASM_DWG   CLASS:SHOP   MODE:---
  0
SECTION
  2
HEADER
  9
$EXTMIN
 10
   0.000
 20
   0.000
  9
$EXTMAX
 10
 841.000
 20
 594.000
  9
$LIMMIN
 10
   0.000
 20
   0.000
  9
$LIMMAX
 10
 841.000
 20
 594.000
  9
$HANDLING
 70
     0
999
BORDER_EXTENTS: 0.000      0.000      841.000    594.000
  0
ENDSEC
  0
SECTION
  2
TABLES
  0
TABLE
  2
LTYPE
 70
     3
  0
LTYPE
  2
CONTIN
 70
    64
  3
SOLID LINE
 72
    65
 73
     0
 40
0.0
  0
LTYPE
  2
CENTER
 70
    64
  3
____ _ ____ _ ____ _ ____ _ ____ _ ____ _ ____
 72
    65
 73
     4
 40
2.0
 49
1.25
 49
-0.25
 49
0.25
 49
-0.25
  0
LTYPE
  2
DASHED
 70
    64
  3
__ __ __ __ __ __ __ __ __ __ __ __ __ __ __ 
 72
    65
 73
     2
 40
2.3812
 49
1.5875
 49
-0.7937
  0
ENDTAB
  0
TABLE
  2
LAYER
 70
    50
  0
LAYER
  2
0
 70
     0
 62
     7
  6
CONTIN
  0
LAYER
  2
1
 70
     0
 62
     7
  6
CONTIN
  0
LAYER
  2
2
 70
     0
 62
     7
  6
CONTIN
  0
LAYER
  2
3
 70
     0
 62
     1
  6
CONTIN
  0
LAYER
  2
4
 70
     0
 62
     1
  6
CONTIN
  0
LAYER
  2
5
 70
     0
 62
     7
  6
CONTIN
  0
LAYER
  2
6
 70
     0
 62
     4
  6
CONTIN
  0
LAYER
  2
7
 70
     0
 62
     3
  6
DASHED
  0
LAYER
  2
8
 70
     0
 62
     3
  6
DASHED
  0
LAYER
  2
9
 70
     0
 62
     7
  6
CONTIN
  0
LAYER
  2
10
 70
     0
 62
     7
  6
CONTIN
  0
LAYER
  2
11
 70
     0
 62
     7
  6
CONTIN
  0
LAYER
  2
12
 70
     0
 62
     2
  6
CONTIN
  0
LAYER
  2
13
 70
     0
 62
     2
  6
CONTIN
  0
LAYER
  2
14
 70
     0
 62
     7
  6
CONTIN
  0
LAYER
  2
15
 70
     0
 62
     6
  6
CONTIN
  0
LAYER
  2
16
 70
     0
 62
     7
  6
CONTIN
  0
LAYER
  2
17
 70
     0
 62
     7
  6
CONTIN
  0
LAYER
  2
18
 70
     0
 62
     4
  6
CONTIN
  0
LAYER
  2
19
 70
     0
 62
     7
  6
CONTIN
  0
LAYER
  2
20
 70
     0
 62
     7
  6
CONTIN
  0
LAYER
  2
21
 70
     0
 62
     7
  6
CONTIN
  0
LAYER
  2
22
 70
     0
 62
     7
  6
CONTIN
  0
LAYER
  2
23
 70
     0
 62
     7
  6
CONTIN
  0
LAYER
  2
24
 70
     0
 62
     7
  6
CONTIN
  0
LAYER
  2
25
 70
     0
 62
     7
  6
CONTIN
  0
LAYER
  2
26
 70
     0
 62
     7
  6
CONTIN
  0
LAYER
  2
27
 70
     0
 62
     7
  6
CONTIN
  0
LAYER
  2
28
 70
     0
 62
     7
  6
CONTIN
  0
LAYER
  2
29
 70
     0
 62
     7
  6
CONTIN
  0
LAYER
  2
30
 70
     0
 62
     7
  6
CONTIN
  0
LAYER
  2
31
 70
     0
 62
     7
  6
CONTIN
  0
LAYER
  2
32
 70
     0
 62
     7
  6
CONTIN
  0
LAYER
  2
33
 70
     0
 62
     7
  6
CONTIN
  0
LAYER
  2
34
 70
     0
 62
     7
  6
CONTIN
  0
LAYER
  2
35
 70
     0
 62
     7
  6
CONTIN
  0
LAYER
  2
36
 70
     0
 62
     7
  6
CONTIN
  0
LAYER
  2
37
 70
     0
 62
     7
  6
CONTIN
  0
LAYER
  2
38
 70
     0
 62
     7
  6
CONTIN
  0
LAYER
  2
39
 70
     0
 62
     7
  6
CONTIN
  0
LAYER
  2
40
 70
     0
 62
     7
  6
CONTIN
  0
LAYER
  2
41
 70
     0
 62
     7
  6
CONTIN
  0
LAYER
  2
42
 70
     0
 62
     7
  6
CONTIN
  0
LAYER
  2
43
 70
     0
 62
     7
  6
CONTIN
  0
LAYER
  2
44
 70
     0
 62
     7
  6
CONTIN
  0
LAYER
  2
45
 70
     0
 62
     7
  6
CONTIN
  0
LAYER
  2
46
 70
     0
 62
     7
  6
CONTIN
  0
LAYER
  2
47
 70
     0
 62
     7
  6
CONTIN
  0
LAYER
  2
48
 70
     0
 62
     7
  6
CONTIN
  0
LAYER
  2
49
 70
     0
 62
     7
  6
CONTIN
  0
ENDTAB
  0
TABLE
  2
STYLE
 70
  0
  0
STYLE
  2
SIMPLEX
 70
  0
 40
  0.000
 41
  1.000
 42
  1.000
 50
  0.000
 71
  0
  3
SIMPLEX
  0
STYLE
  2
ROMANS
 70
  0
 40
  0.000
 41
  1.000
 42
  1.000
 50
  0.000
 71
  0
  3
ROMANS
  0
STYLE
  2
OPEN
 70
  0
 40
  0.000
 41
  1.000
 42
  1.000
 50
  0.000
 71
  0
  3
SIMPLEX
  0
STYLE
  2
ARIAL
 70
  0
 40
  0.000
 41
  1.000
 42
  1.000
 50
  0.000
 71
  0
  3
ARIAL.TTF
  0
STYLE
  2
VERDANAB
 70
  0
 40
  0.000
 41
  1.000
 42
  1.000
 50
  0.000
 71
  0
  3
VERDANAB.TTF
  0
ENDTAB
  0
ENDSEC
  0
SECTION
  2
BLOCKS
  0
BLOCK
  8
2
  2
ARROW
 70
     0
 10
0.000     
 20
0.000     
  0
LINE
  8
2
 10
-0.635    
 20
-0.635    
 11
0.635     
 21
0.635     
  0
ENDBLK
  8
2
  0
BLOCK
  8
0
  2
ARROWP
 70
     0
 10
0.000     
 20
0.000     
  0
LINE
  8
0
 10
0.000     
 20
0.000     
 11
-1.270    
 21
0.317     
  0
LINE
  8
0
 10
-1.270    
 20
0.317     
 11
-1.270    
 21
-0.317    
  0
LINE
  8
0
 10
-1.270    
 20
-0.317    
 11
0.000     
 21
0.000     
  0
ENDBLK
  8
0
  0
BLOCK
  8
3
  2
CIRCLE
 70
     0
 10
0.000     
 20
0.000     
  0
CIRCLE
  8
1
 10
     0.000
 20
     0.000
 40
    10.160
  0
ENDBLK
  8
3
  0
BLOCK
  8
3
  2
SLOTTD
 70
     0
 10
0.000     
 20
0.000     
  0
ARC
  8
6
 10
-25.400   
 20
0.000     
 40
  12.700
 50
  90.000
 51
 270.000
  0
ARC
  8
6
 10
25.400    
 20
0.000     
 40
  12.700
 50
 270.000
 51
  90.000
  0
LINE
  8
6
 10
-25.400   
 20
-12.700   
 11
25.400    
 21
-12.700   
  0
LINE
  8
6
 10
-25.400   
 20
12.700    
 11
25.400    
 21
12.700    
  0
ENDBLK
  8
3
  0
BLOCK
  8
3
  2
FLGHOL
 70
     0
 10
0.000     
 20
0.000     
  0
SOLID
  8
6
 10
-6.350    
 20
0.000     
 11
6.350     
 21
0.000     
 12
-6.350    
 22
25.400    
 13
6.350     
 23
25.400    
  0
ENDBLK
  8
3
  0
BLOCK
  8
2
  2
BRCCLP
 70
     0
 10
12.700    
 20
0.000     
  0
LINE
  8
2
 10
12.700    
 20
0.000     
 11
12.700    
 21
101.600   
  0
LINE
  8
2
 10
-12.700   
 20
101.600   
 11
12.700    
 21
101.600   
  0
SOLID
  8
1
 10
-12.700   
 20
68.580    
 11
12.700    
 21
68.580    
 12
-12.700   
 22
83.820    
 13
12.700    
 23
83.820    
  0
ENDBLK
  8
3
  0
BLOCK
  8
2
  2
BRCCLPB
 70
     0
 10
12.700    
 20
0.000     
  0
LINE
  8
7
 10
12.700    
 20
0.000     
 11
12.700    
 21
101.600   
  0
LINE
  8
7
 10
-12.700   
 20
101.600   
 11
12.700    
 21
101.600   
  0
SOLID
  8
1
 10
-12.700   
 20
68.580    
 11
12.700    
 21
68.580    
 12
-12.700   
 22
83.820    
 13
12.700    
 23
83.820    
  0
ENDBLK
  8
3
  0
BLOCK
  8
2
  2
GRTANGC
 70
     0
 10
0.000     
 20
0.000     
  0
LINE
  8
13
 10
88.900    
 20
0.000     
 11
-12.700   
 21
0.000     
  0
LINE
  8
13
 10
88.900    
 20
0.000     
 11
88.900    
 21
152.400   
  0
LINE
  8
13
 10
-12.700   
 20
0.000     
 11
-12.700   
 21
152.400   
  0
LINE
  8
13
 10
88.900    
 20
152.400   
 11
-12.700   
 21
152.400   
  0
LINE
  8
13
 10
12.700    
 20
0.000     
 11
12.700    
 21
152.400   
  0
SOLID
  8
6
 10
-12.700   
 20
119.380   
 11
12.700    
 21
119.380   
 12
-12.700   
 22
134.620   
 13
12.700    
 23
134.620   
  0
SOLID
  8
6
 10
-12.700   
 20
68.580    
 11
12.700    
 21
68.580    
 12
-12.700   
 22
83.820    
 13
12.700    
 23
83.820    
  0
ENDBLK
  8
3
  0
BLOCK
  8
2
  2
GRTCLPB
 70
     0
 10
0.000     
 20
0.000     
  0
LINE
  8
13
 10
-12.700   
 20
0.000     
 11
-12.700   
 21
152.400   
  0
LINE
  8
13
 10
-12.700   
 20
0.000     
 11
12.700    
 21
0.000     
  0
LINE
  8
13
 10
-12.700   
 20
152.400   
 11
12.700    
 21
152.400   
  0
LINE
  8
13
 10
12.700    
 20
0.000     
 11
12.700    
 21
152.400   
  0
SOLID
  8
6
 10
-12.700   
 20
119.380   
 11
12.700    
 21
119.380   
 12
-12.700   
 22
134.620   
 13
12.700    
 23
134.620   
  0
SOLID
  8
6
 10
-12.700   
 20
68.580    
 11
12.700    
 21
68.580    
 12
-12.700   
 22
83.820    
 13
12.700    
 23
83.820    
  0
ENDBLK
  8
3
  0
BLOCK
  8
2
  2
GRTCLP1
 70
     0
 10
0.000     
 20
0.000     
  0
LINE
  8
13
 10
-12.700   
 20
0.000     
 11
-12.700   
 21
101.600   
  0
LINE
  8
13
 10
-12.700   
 20
0.000     
 11
12.700    
 21
0.000     
  0
LINE
  8
13
 10
-12.700   
 20
101.600   
 11
12.700    
 21
101.600   
  0
LINE
  8
13
 10
12.700    
 20
0.000     
 11
12.700    
 21
101.600   
  0
SOLID
  8
6
 10
-12.700   
 20
68.580    
 11
12.700    
 21
68.580    
 12
-12.700   
 22
83.820    
 13
12.700    
 23
83.820    
  0
ENDBLK
  8
3
  0
BLOCK
  8
2
  2
GRTCLP0
 70
     0
 10
0.000     
 20
0.000     
  0
LINE
  8
13
 10
-12.700   
 20
0.000     
 11
-12.700   
 21
101.600   
  0
LINE
  8
13
 10
-12.700   
 20
0.000     
 11
12.700    
 21
0.000     
  0
LINE
  8
13
 10
-12.700   
 20
101.600   
 11
12.700    
 21
101.600   
  0
LINE
  8
13
 10
12.700    
 20
0.000     
 11
12.700    
 21
101.600   
  0
ENDBLK
  8
3
  0
BLOCK
  8
2
  2
GRTCLPZ
 70
     0
 10
0.000     
 20
0.000     
  0
LINE
  8
13
 10
-12.700   
 20
0.000     
 11
-12.700   
 21
63.500    
  0
LINE
  8
13
 10
-12.700   
 20
63.500    
 11
38.100    
 21
63.500    
  0
LINE
  8
13
 10
38.100    
 20
63.500    
 11
38.100    
 21
152.400   
  0
LINE
  8
13
 10
38.100    
 20
152.400   
 11
63.500    
 21
152.400   
  0
LINE
  8
13
 10
63.500    
 20
152.400   
 11
63.500    
 21
38.100    
  0
LINE
  8
13
 10
63.500    
 20
38.100    
 11
12.700    
 21
38.100    
  0
LINE
  8
13
 10
12.700    
 20
38.100    
 11
12.700    
 21
0.000     
  0
SOLID
  8
6
 10
38.100    
 20
119.380   
 11
63.500    
 21
119.380   
 12
38.100    
 22
134.620   
 13
63.500    
 23
134.620   
  0
SOLID
  8
6
 10
38.100    
 20
68.580    
 11
63.500    
 21
68.580    
 12
38.100    
 22
83.820    
 13
63.500    
 23
83.820    
  0
ENDBLK
  8
3
  0
BLOCK
  8
2
  2
WEBCLP2
 70
     0
 10
0.000     
 20
152.400   
  0
LINE
  8
13
 10
-12.700   
 20
0.000     
 11
-12.700   
 21
203.200   
  0
LINE
  8
13
 10
-12.700   
 20
0.000     
 11
12.700    
 21
0.000     
  0
LINE
  8
13
 10
-12.700   
 20
203.200   
 11
12.700    
 21
203.200   
  0
LINE
  8
13
 10
12.700    
 20
0.000     
 11
12.700    
 21
203.200   
  0
SOLID
  8
6
 10
-12.700   
 20
43.180    
 11
12.700    
 21
43.180    
 12
-12.700   
 22
58.420    
 13
12.700    
 23
58.420    
  0
SOLID
  8
6
 10
-12.700   
 20
144.780   
 11
12.700    
 21
144.780   
 12
-12.700   
 22
160.020   
 13
12.700    
 23
160.020   
  0
ENDBLK
  8
3
  0
BLOCK
  8
2
  2
WEBCLPL
 70
     0
 10
0.000     
 20
152.400   
  0
LINE
  8
13
 10
0.000     
 20
0.000     
 11
-25.400   
 21
0.000     
  0
LINE
  8
13
 10
0.000     
 20
203.200   
 11
-25.400   
 21
203.200   
  0
LINE
  8
13
 10
-25.400   
 20
0.000     
 11
-25.400   
 21
203.200   
  0
ENDBLK
  8
3
  0
BLOCK
  8
2
  2
WEBCLP3
 70
     0
 10
0.000     
 20
144.780   
  0
LINE
  8
13
 10
-12.700   
 20
0.000     
 11
-12.700   
 21
187.960   
  0
LINE
  8
13
 10
-12.700   
 20
0.000     
 11
12.700    
 21
0.000     
  0
LINE
  8
13
 10
-12.700   
 20
187.960   
 11
12.700    
 21
187.960   
  0
LINE
  8
13
 10
12.700    
 20
0.000     
 11
12.700    
 21
187.960   
  0
SOLID
  8
6
 10
-12.700   
 20
35.560    
 11
12.700    
 21
35.560    
 12
-12.700   
 22
50.800    
 13
12.700    
 23
50.800    
  0
SOLID
  8
6
 10
-12.700   
 20
86.360    
 11
12.700    
 21
86.360    
 12
-12.700   
 22
101.600   
 13
12.700    
 23
101.600   
  0
SOLID
  8
6
 10
-12.700   
 20
137.160   
 11
12.700    
 21
137.160   
 12
-12.700   
 22
152.400   
 13
12.700    
 23
152.400   
  0
ENDBLK
  8
3
  0
BLOCK
  8
2
  2
WEBCLP4
 70
     0
 10
0.000     
 20
195.580   
  0
LINE
  8
13
 10
-12.700   
 20
0.000     
 11
-12.700   
 21
238.760   
  0
LINE
  8
13
 10
-12.700   
 20
0.000     
 11
12.700    
 21
0.000     
  0
LINE
  8
13
 10
-12.700   
 20
238.760   
 11
12.700    
 21
238.760   
  0
LINE
  8
13
 10
12.700    
 20
0.000     
 11
12.700    
 21
238.760   
  0
SOLID
  8
6
 10
-12.700   
 20
35.560    
 11
12.700    
 21
35.560    
 12
-12.700   
 22
50.800    
 13
12.700    
 23
50.800    
  0
SOLID
  8
6
 10
-12.700   
 20
86.360    
 11
12.700    
 21
86.360    
 12
-12.700   
 22
101.600   
 13
12.700    
 23
101.600   
  0
SOLID
  8
6
 10
-12.700   
 20
137.160   
 11
12.700    
 21
137.160   
 12
-12.700   
 22
152.400   
 13
12.700    
 23
152.400   
  0
SOLID
  8
6
 10
-12.700   
 20
187.960   
 11
12.700    
 21
187.960   
 12
-12.700   
 22
203.200   
 13
12.700    
 23
203.200   
  0
ENDBLK
  8
4
  0
BLOCK
  8
2
  2
WEBCLP1
 70
     0
 10
0.000     
 20
76.200    
  0
LINE
  8
13
 10
-12.700   
 20
0.000     
 11
-12.700   
 21
152.400   
  0
LINE
  8
13
 10
-12.700   
 20
0.000     
 11
12.700    
 21
0.000     
  0
LINE
  8
13
 10
-12.700   
 20
152.400   
 11
12.700    
 21
152.400   
  0
LINE
  8
13
 10
12.700    
 20
0.000     
 11
12.700    
 21
152.400   
  0
SOLID
  8
6
 10
-12.700   
 20
68.580    
 11
12.700    
 21
68.580    
 12
-12.700   
 22
83.820    
 13
12.700    
 23
83.820    
  0
ENDBLK
  8
3
  0
BLOCK
  8
2
  2
WEBCLP2B
 70
     0
 10
0.000     
 20
152.400   
  0
LINE
  8
7
 10
-12.700   
 20
0.000     
 11
-12.700   
 21
203.200   
  0
LINE
  8
7
 10
-12.700   
 20
0.000     
 11
12.700    
 21
0.000     
  0
LINE
  8
7
 10
-12.700   
 20
203.200   
 11
12.700    
 21
203.200   
  0
LINE
  8
7
 10
12.700    
 20
0.000     
 11
12.700    
 21
203.200   
  0
SOLID
  8
6
 10
-12.700   
 20
43.180    
 11
12.700    
 21
43.180    
 12
-12.700   
 22
58.420    
 13
12.700    
 23
58.420    
  0
SOLID
  8
6
 10
-12.700   
 20
144.780   
 11
12.700    
 21
144.780   
 12
-12.700   
 22
160.020   
 13
12.700    
 23
160.020   
  0
ENDBLK
  8
3
  0
BLOCK
  8
2
  2
WEBCLPLB
 70
     0
 10
0.000     
 20
152.400   
  0
LINE
  8
7
 10
0.000     
 20
0.000     
 11
-25.400   
 21
0.000     
  0
LINE
  8
7
 10
0.000     
 20
203.200   
 11
-25.400   
 21
203.200   
  0
LINE
  8
7
 10
-25.400   
 20
0.000     
 11
-25.400   
 21
203.200   
  0
ENDBLK
  8
3
  0
BLOCK
  8
2
  2
WEBCLP3B
 70
     0
 10
0.000     
 20
144.780   
  0
LINE
  8
7
 10
-12.700   
 20
0.000     
 11
-12.700   
 21
187.960   
  0
LINE
  8
7
 10
-12.700   
 20
0.000     
 11
12.700    
 21
0.000     
  0
LINE
  8
7
 10
-12.700   
 20
187.960   
 11
12.700    
 21
187.960   
  0
LINE
  8
7
 10
12.700    
 20
0.000     
 11
12.700    
 21
187.960   
  0
SOLID
  8
6
 10
-12.700   
 20
35.560    
 11
12.700    
 21
35.560    
 12
-12.700   
 22
50.800    
 13
12.700    
 23
50.800    
  0
SOLID
  8
6
 10
-12.700   
 20
86.360    
 11
12.700    
 21
86.360    
 12
-12.700   
 22
101.600   
 13
12.700    
 23
101.600   
  0
SOLID
  8
6
 10
-12.700   
 20
137.160   
 11
12.700    
 21
137.160   
 12
-12.700   
 22
152.400   
 13
12.700    
 23
152.400   
  0
ENDBLK
  8
3
  0
BLOCK
  8
2
  2
WEBCLP4B
 70
     0
 10
0.000     
 20
195.580   
  0
LINE
  8
7
 10
-12.700   
 20
0.000     
 11
-12.700   
 21
238.760   
  0
LINE
  8
7
 10
-12.700   
 20
0.000     
 11
12.700    
 21
0.000     
  0
LINE
  8
7
 10
-12.700   
 20
238.760   
 11
12.700    
 21
238.760   
  0
LINE
  8
7
 10
12.700    
 20
0.000     
 11
12.700    
 21
238.760   
  0
SOLID
  8
6
 10
-12.700   
 20
35.560    
 11
12.700    
 21
35.560    
 12
-12.700   
 22
50.800    
 13
12.700    
 23
50.800    
  0
SOLID
  8
6
 10
-12.700   
 20
86.360    
 11
12.700    
 21
86.360    
 12
-12.700   
 22
101.600   
 13
12.700    
 23
101.600   
  0
SOLID
  8
6
 10
-12.700   
 20
137.160   
 11
12.700    
 21
137.160   
 12
-12.700   
 22
152.400   
 13
12.700    
 23
152.400   
  0
SOLID
  8
6
 10
-12.700   
 20
187.960   
 11
12.700    
 21
187.960   
 12
-12.700   
 22
203.200   
 13
12.700    
 23
203.200   
  0
ENDBLK
  8
4
  0
BLOCK
  8
2
  2
WEBCLP1B
 70
     0
 10
0.000     
 20
76.200    
  0
LINE
  8
7
 10
-12.700   
 20
0.000     
 11
-12.700   
 21
152.400   
  0
LINE
  8
7
 10
-12.700   
 20
0.000     
 11
12.700    
 21
0.000     
  0
LINE
  8
7
 10
-12.700   
 20
152.400   
 11
12.700    
 21
152.400   
  0
LINE
  8
7
 10
12.700    
 20
0.000     
 11
12.700    
 21
152.400   
  0
SOLID
  8
6
 10
-12.700   
 20
68.580    
 11
12.700    
 21
68.580    
 12
-12.700   
 22
83.820    
 13
12.700    
 23
83.820    
  0
ENDBLK
  8
3
  0
BLOCK
  8
2
  2
FC_CLIP2
 70
     0
 10
0.000     
 20
0.000     
  0
LINE
  8
2
 10
-50.800   
 20
0.000     
 11
-50.800   
 21
152.400   
  0
LINE
  8
2
 10
-50.800   
 20
0.000     
 11
50.800    
 21
0.000     
  0
LINE
  8
2
 10
-50.800   
 20
152.400   
 11
50.800    
 21
152.400   
  0
LINE
  8
2
 10
50.800    
 20
0.000     
 11
50.800    
 21
152.400   
  0
CIRCLE
  8
1
 10
     0.000
 20
   101.600
 40
    12.700
  0
CIRCLE
  8
1
 10
     0.000
 20
    50.800
 40
    12.700
  0
ENDBLK
  8
3
  0
BLOCK
  8
2
  2
FC_CLIP3
 70
     0
 10
0.000     
 20
0.000     
  0
LINE
  8
2
 10
-50.800   
 20
0.000     
 11
-50.800   
 21
152.400   
  0
LINE
  8
2
 10
-50.800   
 20
0.000     
 11
50.800    
 21
0.000     
  0
LINE
  8
2
 10
-50.800   
 20
152.400   
 11
50.800    
 21
152.400   
  0
LINE
  8
2
 10
50.800    
 20
0.000     
 11
50.800    
 21
152.400   
  0
CIRCLE
  8
1
 10
     0.000
 20
   101.600
 40
    12.700
  0
CIRCLE
  8
1
 10
     0.000
 20
    76.200
 40
    12.700
  0
CIRCLE
  8
1
 10
     0.000
 20
    50.800
 40
    12.700
  0
ENDBLK
  8
3
  0
BLOCK
  8
2
  2
EAVCLP
 70
     0
 10
0.000     
 20
0.000     
  0
LINE
  8
2
 10
-25.400   
 20
0.000     
 11
-25.400   
 21
304.800   
  0
LINE
  8
2
 10
-25.400   
 20
0.000     
 11
0.000     
 21
0.000     
  0
LINE
  8
2
 10
-25.400   
 20
304.800   
 11
0.000     
 21
304.800   
  0
LINE
  8
2
 10
0.000     
 20
0.000     
 11
0.000     
 21
304.800   
  0
SOLID
  8
1
 10
-25.400   
 20
271.780   
 11
0.000     
 21
271.780   
 12
-25.400   
 22
287.020   
 13
0.000     
 23
287.020   
  0
SOLID
  8
1
 10
-25.400   
 20
220.980   
 11
0.000     
 21
220.980   
 12
-25.400   
 22
236.220   
 13
0.000     
 23
236.220   
  0
ENDBLK
  8
3
  0
BLOCK
  8
2
  2
ASMPIECE
 70
     0
 10
246.000   
 20
-6.000    
  0
LINE
  8
1
 10
246.000   
 20
-6.000    
 11
246.000   
 21
-406.000  
  0
LINE
  8
1
 10
4246.000  
 20
-6.000    
 11
4246.000  
 21
-706.000  
  0
LINE
  8
1
 10
8163.632  
 20
-706.000  
 11
8163.632  
 21
-6.000    
  0
TEXT
  8
3
 7
SIMPLEX
 10
1528.000  
 20
-141.084  
 40
   30.019
  1
WB1
 50
    0.000
  0
TEXT
  8
3
 7
SIMPLEX
 10
6204.816  
 20
-141.084  
 40
   30.019
  1
WB15
 50
    0.000
  0
LINE
  8
1
 10
246.000   
 20
-6.000    
 11
246.000   
 21
6.061     
  0
LINE
  8
1
 10
246.000   
 20
-6.000    
 11
8163.632  
 21
-6.000    
  0
LINE
  8
1
 10
8163.632  
 20
-6.000    
 11
8163.632  
 21
6.061     
  0
LINE
  8
1
 10
246.000   
 20
6.061     
 11
8163.632  
 21
6.061     
  0
TEXT
  8
3
 7
SIMPLEX
 10
4204.816  
 20
13.566    
 40
   30.019
  1
OF1
 50
    0.000
  0
LINE
  8
1
 10
246.449   
 20
-406.034  
 11
246.000   
 21
-418.095  
  0
LINE
  8
1
 10
246.449   
 20
-406.034  
 11
4246.000  
 21
-706.000  
  0
LINE
  8
1
 10
4246.000  
 20
-706.000  
 11
4245.098  
 21
-718.027  
  0
LINE
  8
1
 10
246.000   
 20
-418.095  
 11
4245.098  
 21
-718.027  
  0
TEXT
  8
3
 7
SIMPLEX
 10
2242.181  
 20
-612.963  
 40
   30.019
  1
IF1
 50
   -4.289
  0
LINE
  8
1
 10
4246.000  
 20
-706.000  
 11
4246.000  
 21
-718.061  
  0
LINE
  8
1
 10
4246.000  
 20
-706.000  
 11
8163.632  
 21
-706.000  
  0
LINE
  8
1
 10
8163.632  
 20
-706.000  
 11
8163.632  
 21
-718.061  
  0
LINE
  8
1
 10
4246.000  
 20
-718.061  
 11
8163.632  
 21
-718.061  
  0
TEXT
  8
3
 7
SIMPLEX
 10
6204.816  
 20
-763.089  
 40
   30.019
  1
IF2
 50
    0.000
  0
LINE
  8
12
 10
246.000   
 20
82.582    
 11
232.599   
 21
82.582    
  0
LINE
  8
12
 10
246.000   
 20
82.582    
 11
246.000   
 21
-494.582  
  0
LINE
  8
12
 10
246.000   
 20
-494.582  
 11
232.599   
 21
-494.582  
  0
LINE
  8
12
 10
232.599   
 20
82.582    
 11
232.599   
 21
-494.582  
  0
TEXT
  8
3
 7
SIMPLEX
 10
225.095   
 20
-243.523  
 40
   30.019
  1
EP1
 50
   90.000
  0
LINE
  8
12
 10
8163.632  
 20
82.581    
 11
8177.033  
 21
82.581    
  0
LINE
  8
12
 10
8163.632  
 20
82.581    
 11
8163.632  
 21
-794.582  
  0
LINE
  8
12
 10
8163.632  
 20
-794.582  
 11
8177.033  
 21
-794.582  
  0
LINE
  8
12
 10
8177.033  
 20
82.581    
 11
8177.033  
 21
-794.582  
  0
TEXT
  8
3
 7
SIMPLEX
 10
8214.558  
 20
-401.028  
 40
   30.019
  1
EP2
 50
   90.000
  0
INSERT
  8
2
  2
CIRCLE
 10
5246.180  
 20
-250.000  
 41
   0.317
 42
   0.317
 43
   0.317
 50
   0.000
  0
INSERT
  8
2
  2
CIRCLE
 10
5246.180  
 20
-350.000  
 41
   0.317
 42
   0.317
 43
   0.317
 50
   0.000
  0
INSERT
  8
2
  2
CIRCLE
 10
5346.180  
 20
-250.000  
 41
   0.317
 42
   0.317
 43
   0.317
 50
   0.000
  0
INSERT
  8
2
  2
CIRCLE
 10
5346.180  
 20
-350.000  
 41
   0.317
 42
   0.317
 43
   0.317
 50
   0.000
  0
INSERT
  8
2
  2
CIRCLE
 10
5672.800  
 20
-250.000  
 41
   0.317
 42
   0.317
 43
   0.317
 50
   0.000
  0
INSERT
  8
2
  2
CIRCLE
 10
5672.800  
 20
-350.000  
 41
   0.317
 42
   0.317
 43
   0.317
 50
   0.000
  0
INSERT
  8
2
  2
CIRCLE
 10
5772.800  
 20
-250.000  
 41
   0.317
 42
   0.317
 43
   0.317
 50
   0.000
  0
INSERT
  8
2
  2
CIRCLE
 10
5772.800  
 20
-350.000  
 41
   0.317
 42
   0.317
 43
   0.317
 50
   0.000
  0
LINE
  8
2
 10
3793.918  
 20
-6.000    
 11
3759.075  
 21
-6.000    
  0
LINE
  8
2
 10
3793.918  
 20
-637.117  
 11
3759.075  
 21
-637.117  
  0
LINE
  8
2
 10
3767.116  
 20
-6.000    
 11
3767.116  
 21
-637.117  
  0
INSERT
  8
2
  2
ARROW
 10
3767.116  
 20
-6.000    
 41
  10.552
 42
  10.552
 43
  10.552
 50
  90.000
  0
INSERT
  8
2
  2
ARROW
 10
3767.116  
 20
-637.117  
 41
  10.552
 42
  10.552
 43
  10.552
 50
 -90.000
  0
TEXT
  8
11
 7
SIMPLEX
 10
3777.123  
 20
-341.571  
 40
   30.019
  1
617
 50
    0.000
  0
INSERT
  8
6
  2
FLGHOL
 10
232.599   
 20
37.554    
 41
   0.475
 42
   0.528
 43
   0.528
 50
 -90.000
  0
INSERT
  8
6
  2
FLGHOL
 10
232.599   
 20
-37.493   
 41
   0.475
 42
   0.528
 43
   0.528
 50
 -90.000
  0
INSERT
  8
6
  2
FLGHOL
 10
232.599   
 20
-374.507  
 41
   0.475
 42
   0.528
 43
   0.528
 50
 -90.000
  0
INSERT
  8
6
  2
FLGHOL
 10
232.599   
 20
-449.554  
 41
   0.475
 42
   0.528
 43
   0.528
 50
 -90.000
  0
INSERT
  8
6
  2
FLGHOL
 10
8163.632  
 20
37.553    
 41
   0.475
 42
   0.528
 43
   0.528
 50
 -90.000
  0
INSERT
  8
6
  2
FLGHOL
 10
8163.632  
 20
-37.493   
 41
   0.475
 42
   0.528
 43
   0.528
 50
 -90.000
  0
INSERT
  8
6
  2
FLGHOL
 10
8163.632  
 20
-359.000  
 41
   0.475
 42
   0.528
 43
   0.528
 50
 -90.000
  0
INSERT
  8
6
  2
FLGHOL
 10
8163.632  
 20
-674.508  
 41
   0.475
 42
   0.528
 43
   0.528
 50
 -90.000
  0
INSERT
  8
6
  2
FLGHOL
 10
8163.632  
 20
-749.554  
 41
   0.475
 42
   0.528
 43
   0.528
 50
 -90.000
  0
INSERT
  8
1
  2
WEBCLP2B
 10
2805.979  
 20
-46.204   
 41
   0.317
 42
   0.317
 43
   0.317
 50
   0.000
  0
CIRCLE
  8
15
 10
  2810.000
 20
   -46.204
 40
     9.006
  0
TEXT
  8
3
 7
SIMPLEX
 10
2852.080  
 20
-81.404   
 40
   30.019
  1
CLF2 (typ)
 50
    0.000
  0
TEXT
  8
3
 7
SIMPLEX
 10
2852.080  
 20
-126.432  
 40
   30.019
  1
FS
 50
    0.000
  0
LINE
  8
3
 10
2822.061  
 20
-86.407   
 11
2889.067  
 21
-86.407   
  0
INSERT
  8
3
  2
ARROWP
 10
2822.061  
 20
-86.407   
 41
  10.552
 42
  10.552
 43
  10.552
 50
 180.000
  0
INSERT
  8
1
  2
WEBCLP2B
 10
3805.980  
 20
-46.204   
 41
   0.317
 42
   0.317
 43
   0.317
 50
   0.000
  0
CIRCLE
  8
15
 10
  3810.000
 20
   -46.204
 40
     9.006
  0
INSERT
  8
1
  2
WEBCLP2B
 10
4805.980  
 20
-46.204   
 41
   0.317
 42
   0.317
 43
   0.317
 50
   0.000
  0
CIRCLE
  8
15
 10
  4810.000
 20
   -46.204
 40
     9.006
  0
INSERT
  8
1
  2
WEBCLP2B
 10
6005.980  
 20
-46.204   
 41
   0.317
 42
   0.317
 43
   0.317
 50
   0.000
  0
CIRCLE
  8
15
 10
  6010.000
 20
   -46.204
 40
     9.006
  0
INSERT
  8
1
  2
WEBCLP2B
 10
7505.979  
 20
-46.204   
 41
   0.317
 42
   0.317
 43
   0.317
 50
   0.000
  0
CIRCLE
  8
15
 10
  7510.000
 20
   -46.204
 40
     9.006
  0
INSERT
  8
1
  2
GRTCLPB
 10
2805.980  
 20
6.061     
 41
  -0.317
 42
   0.317
 43
   0.317
 50
   0.000
  0
CIRCLE
  8
15
 10
  2810.000
 20
     6.061
 40
     9.006
  0
INSERT
  8
1
  2
GRTCLPB
 10
3805.980  
 20
6.061     
 41
  -0.317
 42
   0.317
 43
   0.317
 50
   0.000
  0
CIRCLE
  8
15
 10
  3810.000
 20
     6.061
 40
     9.006
  0
INSERT
  8
1
  2
GRTCLPB
 10
4805.980  
 20
6.061     
 41
  -0.317
 42
   0.317
 43
   0.317
 50
   0.000
  0
CIRCLE
  8
15
 10
  4810.000
 20
     6.061
 40
     9.006
  0
TEXT
  8
3
 7
SIMPLEX
 10
4527.772  
 20
47.247    
 40
   30.019
  1
CLF3(typ)
 50
    0.000
  0
LINE
  8
3
 10
4797.939  
 20
42.244    
 11
4730.933  
 21
42.244    
  0
INSERT
  8
3
  2
ARROWP
 10
4797.939  
 20
42.244    
 41
  10.552
 42
  10.552
 43
  10.552
 50
   0.000
  0
INSERT
  8
1
  2
GRTCLPB
 10
6005.980  
 20
6.061     
 41
  -0.317
 42
   0.317
 43
   0.317
 50
   0.000
  0
CIRCLE
  8
15
 10
  6010.000
 20
     6.061
 40
     9.006
  0
INSERT
  8
1
  2
GRTCLPB
 10
7505.979  
 20
6.061     
 41
  -0.317
 42
   0.317
 43
   0.317
 50
   0.000
  0
CIRCLE
  8
15
 10
  7510.000
 20
     6.061
 40
     9.006
  0
INSERT
  8
7
  2
GRTCLP1
 10
6649.999  
 20
-718.061  
 41
   0.317
 42
   0.317
 43
   0.317
 50
 180.000
  0
CIRCLE
  8
15
 10
  6654.020
 20
  -718.061
 40
     9.006
  0
TEXT
  8
3
 7
SIMPLEX
 10
6692.078  
 20
-745.221  
 40
   30.019
  1
 GC41-01(typ)
 50
    0.000
  0
LINE
  8
3
 10
6662.060  
 20
-750.224  
 11
6729.066  
 21
-750.224  
  0
INSERT
  8
3
  2
ARROWP
 10
6662.060  
 20
-750.224  
 41
  10.552
 42
  10.552
 43
  10.552
 50
 180.000
  0
INSERT
  8
7
  2
BRCCLP
 10
3810.000  
 20
-673.300  
 41
  -0.475
 42
   0.475
 43
   0.475
 50
   0.000
  0
CIRCLE
  8
15
 10
  3810.000
 20
  -673.300
 40
     9.006
  0
LINE
  8
1
 10
3822.061  
 20
-625.056  
 11
3822.061  
 21
-674.205  
  0
TEXT
  8
3
 7
SIMPLEX
 10
3503.913  
 20
-597.209  
 40
   30.019
  1
CLF1 (typ)
 50
   -4.289
  0
TEXT
  8
3
 7
SIMPLEX
 10
3500.545  
 20
-642.111  
 40
   30.019
  1
NS/FS
 50
   -4.289
  0
LINE
  8
3
 10
3802.884  
 20
-624.649  
 11
3736.066  
 21
-619.638  
  0
INSERT
  8
3
  2
ARROWP
 10
3802.884  
 20
-624.649  
 41
  10.552
 42
  10.552
 43
  10.552
 50
  -4.289
  0
LINE
  8
9
 10
6068.000  
 20
-706.000  
 11
6068.000  
 21
-106.000  
  0
LINE
  8
9
 10
6068.000  
 20
-106.000  
 11
6076.040  
 21
-106.000  
  0
LINE
  8
9
 10
6076.040  
 20
-106.000  
 11
6076.040  
 21
-706.000  
  0
LINE
  8
9
 10
6068.000  
 20
-706.000  
 11
6076.040  
 21
-706.000  
  0
TEXT
  8
3
 7
SIMPLEX
 10
5923.267  
 20
-655.969  
 40
   30.019
  1
ST1
 50
    0.000
  0
TEXT
  8
3
 7
SIMPLEX
 10
5923.267  
 20
-700.997  
 40
   30.019
  1
NS/FS
 50
    0.000
  0
LINE
  8
3
 10
6073.360  
 20
-660.972  
 11
6006.354  
 21
-660.972  
  0
INSERT
  8
3
  2
ARROWP
 10
6073.360  
 20
-660.972  
 41
  10.552
 42
  10.552
 43
  10.552
 50
   0.000
  0
LINE
  8
9
 10
6425.958  
 20
-706.000  
 11
6425.958  
 21
-106.000  
  0
LINE
  8
9
 10
6425.958  
 20
-106.000  
 11
6433.999  
 21
-106.000  
  0
LINE
  8
9
 10
6433.999  
 20
-106.000  
 11
6433.999  
 21
-706.000  
  0
LINE
  8
9
 10
6425.958  
 20
-706.000  
 11
6433.999  
 21
-706.000  
  0
TEXT
  8
3
 7
SIMPLEX
 10
6466.698  
 20
-565.914  
 40
   30.019
  1
ST1
 50
    0.000
  0
TEXT
  8
3
 7
SIMPLEX
 10
6466.698  
 20
-610.941  
 40
   30.019
  1
NS/FS
 50
    0.000
  0
LINE
  8
3
 10
6436.679  
 20
-570.917  
 11
6503.685  
 21
-570.917  
  0
INSERT
  8
3
  2
ARROWP
 10
6436.679  
 20
-570.917  
 41
  10.552
 42
  10.552
 43
  10.552
 50
 180.000
  0
LINE
  8
9
 10
6649.999  
 20
-706.000  
 11
6649.999  
 21
-106.000  
  0
LINE
  8
9
 10
6649.999  
 20
-106.000  
 11
6658.039  
 21
-106.000  
  0
LINE
  8
9
 10
6658.039  
 20
-106.000  
 11
6658.039  
 21
-706.000  
  0
LINE
  8
9
 10
6649.999  
 20
-706.000  
 11
6658.039  
 21
-706.000  
  0
INSERT
  8
6
  2
FLGHOL
 10
6658.039  
 20
-186.000  
 41
   0.475
 42
   0.317
 43
   0.317
 50
  90.000
  0
TEXT
  8
3
 7
SIMPLEX
 10
6505.266  
 20
-146.025  
 40
   30.019
  1
ST2
 50
    0.000
  0
TEXT
  8
3
 7
SIMPLEX
 10
6505.266  
 20
-191.053  
 40
   30.019
  1
NS/FS
 50
    0.000
  0
LINE
  8
3
 10
6655.359  
 20
-151.028  
 11
6588.353  
 21
-151.028  
  0
INSERT
  8
3
  2
ARROWP
 10
6655.359  
 20
-151.028  
 41
  10.552
 42
  10.552
 43
  10.552
 50
   0.000
  0
LINE
  8
9
 10
443.000   
 20
6.061     
 11
427.489   
 21
82.582    
  0
LINE
  8
9
 10
246.000   
 20
82.582    
 11
427.489   
 21
82.582    
  0
TEXT
  8
3
 7
SIMPLEX
 10
475.699   
 20
57.566    
 40
   30.019
  1
SS2
 50
    0.000
  0
LINE
  8
3
 10
445.680   
 20
52.563    
 11
512.686   
 21
52.563    
  0
INSERT
  8
3
  2
ARROWP
 10
445.680   
 20
52.563    
 41
  10.552
 42
  10.552
 43
  10.552
 50
 180.000
  0
LINE
  8
9
 10
441.244   
 20
-432.738  
 11
428.707   
 21
-494.582  
  0
LINE
  8
9
 10
246.000   
 20
-494.582  
 11
428.707   
 21
-494.582  
  0
TEXT
  8
3
 7
SIMPLEX
 10
474.225   
 20
-492.038  
 40
   30.019
  1
SS3
 50
   -4.289
  0
LINE
  8
3
 10
443.916   
 20
-494.782  
 11
510.735   
 21
-499.794  
  0
INSERT
  8
3
  2
ARROWP
 10
443.916   
 20
-494.782  
 41
  10.552
 42
  10.552
 43
  10.552
 50
 175.711
  0
LINE
  8
9
 10
8085.947  
 20
6.061     
 11
8163.632  
 21
82.581    
  0
TEXT
  8
3
 7
SIMPLEX
 10
7993.210  
 20
71.101    
 40
   30.019
  1
SS4
 50
    0.000
  0
LINE
  8
3
 10
8083.266  
 20
66.098    
 11
8016.260  
 21
66.098    
  0
INSERT
  8
3
  2
ARROWP
 10
8083.266  
 20
66.098    
 41
  10.552
 42
  10.552
 43
  10.552
 50
   0.000
  0
LINE
  8
9
 10
8075.050  
 20
-718.061  
 11
8163.632  
 21
-794.582  
  0
TEXT
  8
3
 7
SIMPLEX
 10
7982.314  
 20
-773.095  
 40
   30.019
  1
SS4
 50
    0.000
  0
LINE
  8
3
 10
8072.370  
 20
-778.099  
 11
8005.364  
 21
-778.099  
  0
INSERT
  8
3
  2
ARROWP
 10
8072.370  
 20
-778.099  
 41
  10.552
 42
  10.552
 43
  10.552
 50
   0.000
  0
LINE
  8
2
 10
246.000   
 20
86.468    
 11
246.000   
 21
375.933   
  0
INSERT
  8
2
  2
ARROW
 10
246.000   
 20
367.892   
 41
  10.552
 42
  10.552
 43
  10.552
 50
 180.000
  0
LINE
  8
2
 10
246.000   
 20
367.892   
 11
8163.632  
 21
367.892   
  0
LINE
  8
2
 10
8163.632  
 20
86.468    
 11
8163.632  
 21
375.933   
  0
INSERT
  8
2
  2
ARROW
 10
8163.632  
 20
367.892   
 41
  10.552
 42
  10.552
 43
  10.552
 50
   0.000
  0
TEXT
  8
11
 7
SIMPLEX
 10
4154.016  
 20
377.898   
 40
   30.019
  1
7918
 50
    0.000
  0
LINE
  8
3
 10
239.986   
 20
-498.277  
 11
231.367   
 21
-613.204  
  0
INSERT
  8
3
  2
ARROW
 10
231.968   
 20
-605.186  
 41
  10.552
 42
  10.552
 43
  10.552
 50
 175.711
  0
LINE
  8
2
 10
231.968   
 20
-605.186  
 11
4238.072  
 21
-905.644  
  0
LINE
  8
2
 10
4238.072  
 20
-905.644  
 11
8163.632  
 21
-905.678  
  0
LINE
  8
2
 10
8163.632  
 20
-798.468  
 11
8163.632  
 21
-913.718  
  0
INSERT
  8
2
  2
ARROW
 10
8163.632  
 20
-905.678  
 41
  10.552
 42
  10.552
 43
  10.552
 50
   0.000
  0
TEXT
  8
11
 7
SIMPLEX
 10
2185.111  
 20
-741.637  
 40
   30.019
  1
7928
 50
   -4.289
  0
TEXT
  8
21
 7
SIMPLEX
 10
-78.308   
 20
127.610   
 40
   30.019
  1
G=100
 50
    0.000
  0
TEXT
  8
21
 7
SIMPLEX
 10
-78.308   
 20
172.638   
 40
   30.019
  1
D=26
 50
    0.000
  0
LINE
  8
2
 10
195.076   
 20
82.582    
 11
152.192   
 21
82.582    
  0
LINE
  8
2
 10
195.076   
 20
37.554    
 11
152.192   
 21
37.554    
  0
LINE
  8
2
 10
160.233   
 20
82.582    
 11
160.233   
 21
37.554    
  0
INSERT
  8
2
  2
ARROW
 10
160.233   
 20
82.582    
 41
  10.552
 42
  10.552
 43
  10.552
 50
  90.000
  0
INSERT
  8
2
  2
ARROW
 10
160.233   
 20
37.554    
 41
  10.552
 42
  10.552
 43
  10.552
 50
 -90.000
  0
TEXT
  8
11
 7
SIMPLEX
 10
82.148    
 20
40.055    
 40
   30.019
  1
75
 50
    0.000
  0
LINE
  8
2
 10
195.076   
 20
-37.493   
 11
152.192   
 21
-37.493   
  0
LINE
  8
2
 10
160.233   
 20
-10.690   
 11
160.233   
 21
-37.493   
  0
INSERT
  8
2
  2
ARROW
 10
160.233   
 20
-37.493   
 41
  10.552
 42
  10.552
 43
  10.552
 50
 -90.000
  0
TEXT
  8
11
 7
SIMPLEX
 10
52.130    
 20
-27.487   
 40
   30.019
  1
225
 50
    0.000
  0
LINE
  8
2
 10
195.076   
 20
-374.507  
 11
152.192   
 21
-374.507  
  0
LINE
  8
2
 10
160.233   
 20
-347.705  
 11
160.233   
 21
-374.507  
  0
INSERT
  8
2
  2
ARROW
 10
160.233   
 20
-374.507  
 41
  10.552
 42
  10.552
 43
  10.552
 50
 -90.000
  0
TEXT
  8
11
 7
SIMPLEX
 10
52.130    
 20
-364.501  
 40
   30.019
  1
480
 50
    0.000
  0
LINE
  8
2
 10
195.076   
 20
-449.554  
 11
152.192   
 21
-449.554  
  0
LINE
  8
2
 10
160.233   
 20
-422.751  
 11
160.233   
 21
-449.554  
  0
INSERT
  8
2
  2
ARROW
 10
160.233   
 20
-449.554  
 41
  10.552
 42
  10.552
 43
  10.552
 50
 -90.000
  0
TEXT
  8
11
 7
SIMPLEX
 10
52.130    
 20
-439.548  
 40
   30.019
  1
630
 50
    0.000
  0
TEXT
  8
21
 7
SIMPLEX
 10
8284.242  
 20
127.609   
 40
   30.019
  1
G=100
 50
    0.000
  0
TEXT
  8
21
 7
SIMPLEX
 10
8284.242  
 20
172.637   
 40
   30.019
  1
D=22
 50
    0.000
  0
LINE
  8
2
 10
8214.557  
 20
82.581    
 11
8257.440  
 21
82.581    
  0
LINE
  8
2
 10
8214.557  
 20
37.553    
 11
8257.440  
 21
37.553    
  0
LINE
  8
2
 10
8249.399  
 20
82.581    
 11
8249.399  
 21
37.553    
  0
INSERT
  8
2
  2
ARROW
 10
8249.399  
 20
82.581    
 41
  10.552
 42
  10.552
 43
  10.552
 50
  90.000
  0
INSERT
  8
2
  2
ARROW
 10
8249.399  
 20
37.553    
 41
  10.552
 42
  10.552
 43
  10.552
 50
 -90.000
  0
TEXT
  8
11
 7
SIMPLEX
 10
8267.446  
 20
40.055    
 40
   30.019
  1
50
 50
    0.000
  0
LINE
  8
2
 10
8214.557  
 20
-37.493   
 11
8257.440  
 21
-37.493   
  0
LINE
  8
2
 10
8249.399  
 20
-10.691   
 11
8249.399  
 21
-37.493   
  0
INSERT
  8
2
  2
ARROW
 10
8249.399  
 20
-37.493   
 41
  10.552
 42
  10.552
 43
  10.552
 50
 -90.000
  0
TEXT
  8
11
 7
SIMPLEX
 10
8267.446  
 20
-27.487   
 40
   30.019
  1
150
 50
    0.000
  0
LINE
  8
2
 10
8214.557  
 20
-359.000  
 11
8257.440  
 21
-359.000  
  0
LINE
  8
2
 10
8249.399  
 20
-332.198  
 11
8249.399  
 21
-359.000  
  0
INSERT
  8
2
  2
ARROW
 10
8249.399  
 20
-359.000  
 41
  10.552
 42
  10.552
 43
  10.552
 50
 -90.000
  0
TEXT
  8
11
 7
SIMPLEX
 10
8267.446  
 20
-348.994  
 40
   30.019
  1
450
 50
    0.000
  0
LINE
  8
2
 10
8214.557  
 20
-674.508  
 11
8257.440  
 21
-674.508  
  0
LINE
  8
2
 10
8249.399  
 20
-647.705  
 11
8249.399  
 21
-674.508  
  0
INSERT
  8
2
  2
ARROW
 10
8249.399  
 20
-674.508  
 41
  10.552
 42
  10.552
 43
  10.552
 50
 -90.000
  0
TEXT
  8
11
 7
SIMPLEX
 10
8267.446  
 20
-664.502  
 40
   30.019
  1
750
 50
    0.000
  0
LINE
  8
2
 10
8214.557  
 20
-749.554  
 11
8257.440  
 21
-749.554  
  0
LINE
  8
2
 10
8249.399  
 20
-722.752  
 11
8249.399  
 21
-749.554  
  0
INSERT
  8
2
  2
ARROW
 10
8249.399  
 20
-749.554  
 41
  10.552
 42
  10.552
 43
  10.552
 50
 -90.000
  0
TEXT
  8
11
 7
SIMPLEX
 10
8267.446  
 20
-739.548  
 40
   30.019
  1
850
 50
    0.000
  0
LINE
  8
2
 10
262.081   
 20
37.554    
 11
302.285   
 21
37.554    
  0
LINE
  8
2
 10
262.081   
 20
6.061     
 11
302.285   
 21
6.061     
  0
LINE
  8
2
 10
294.244   
 20
37.554    
 11
294.244   
 21
6.061     
  0
INSERT
  8
2
  2
ARROW
 10
294.244   
 20
37.554    
 41
  10.552
 42
  10.552
 43
  10.552
 50
  90.000
  0
INSERT
  8
2
  2
ARROW
 10
294.244   
 20
6.061     
 41
  10.552
 42
  10.552
 43
  10.552
 50
 -90.000
  0
TEXT
  8
11
 7
SIMPLEX
 10
312.291   
 20
8.563     
 40
   30.019
  1
72
 50
    0.000
  0
LINE
  8
2
 10
8147.551  
 20
37.553    
 11
8107.347  
 21
37.553    
  0
LINE
  8
2
 10
8147.551  
 20
6.061     
 11
8107.347  
 21
6.061     
  0
LINE
  8
2
 10
8115.388  
 20
37.553    
 11
8115.388  
 21
6.061     
  0
INSERT
  8
2
  2
ARROW
 10
8115.388  
 20
37.553    
 41
  10.552
 42
  10.552
 43
  10.552
 50
  90.000
  0
INSERT
  8
2
  2
ARROW
 10
8115.388  
 20
6.061     
 41
  10.552
 42
  10.552
 43
  10.552
 50
 -90.000
  0
TEXT
  8
11
 7
SIMPLEX
 10
8037.303  
 20
8.562     
 40
   30.019
  1
44
 50
    0.000
  0
LINE
  8
2
 10
5330.098  
 20
-6.000    
 11
5295.255  
 21
-6.000    
  0
LINE
  8
2
 10
5330.098  
 20
-250.000  
 11
5295.255  
 21
-250.000  
  0
LINE
  8
2
 10
5303.296  
 20
-6.000    
 11
5303.296  
 21
-250.000  
  0
INSERT
  8
2
  2
ARROW
 10
5303.296  
 20
-6.000    
 41
  10.552
 42
  10.552
 43
  10.552
 50
  90.000
  0
INSERT
  8
2
  2
ARROW
 10
5303.296  
 20
-250.000  
 41
  10.552
 42
  10.552
 43
  10.552
 50
 -90.000
  0
TEXT
  8
11
 7
SIMPLEX
 10
5195.193  
 20
-148.013  
 40
   30.019
  1
244
 50
    0.000
  0
TEXT
  8
21
 7
SIMPLEX
 10
5226.105  
 20
238.437   
 40
   30.019
  1
D=22
 50
    0.000
  0
LINE
  8
2
 10
5330.098  
 20
-250.000  
 11
5295.255  
 21
-250.000  
  0
LINE
  8
2
 10
5330.098  
 20
-350.000  
 11
5295.255  
 21
-350.000  
  0
LINE
  8
2
 10
5303.296  
 20
-250.000  
 11
5303.296  
 21
-350.000  
  0
INSERT
  8
2
  2
ARROW
 10
5303.296  
 20
-250.000  
 41
  10.552
 42
  10.552
 43
  10.552
 50
  90.000
  0
INSERT
  8
2
  2
ARROW
 10
5303.296  
 20
-350.000  
 41
  10.552
 42
  10.552
 43
  10.552
 50
 -90.000
  0
TEXT
  8
11
 7
SIMPLEX
 10
5210.203  
 20
-320.013  
 40
   30.019
  1
100
 50
    0.000
  0
LINE
  8
2
 10
246.000   
 20
243.262   
 11
246.000   
 21
283.465   
  0
LINE
  8
2
 10
315.686   
 20
275.424   
 11
246.000   
 21
275.424   
  0
INSERT
  8
2
  2
ARROW
 10
246.000   
 20
275.424   
 41
  10.552
 42
  10.552
 43
  10.552
 50
 180.000
  0
LINE
  8
2
 10
5246.180  
 20
243.261   
 11
5246.180  
 21
283.465   
  0
LINE
  8
2
 10
5176.494  
 20
275.424   
 11
5246.180  
 21
275.424   
  0
INSERT
  8
2
  2
ARROW
 10
5246.180  
 20
275.424   
 41
  10.552
 42
  10.552
 43
  10.552
 50
   0.000
  0
TEXT
  8
11
 7
SIMPLEX
 10
5116.099  
 20
285.430   
 40
   30.019
  1
5000
 50
    0.000
  0
LINE
  8
2
 10
5346.180  
 20
243.261   
 11
5346.180  
 21
325.491   
  0
LINE
  8
2
 10
5311.337  
 20
317.450   
 11
5346.180  
 21
317.450   
  0
INSERT
  8
2
  2
ARROW
 10
5346.180  
 20
317.450   
 41
  10.552
 42
  10.552
 43
  10.552
 50
   0.000
  0
TEXT
  8
11
 7
SIMPLEX
 10
5231.108  
 20
327.456   
 40
   30.019
  1
5100
 50
    0.000
  0
LINE
  8
2
 10
5672.800  
 20
243.261   
 11
5672.800  
 21
367.517   
  0
LINE
  8
2
 10
5637.957  
 20
359.476   
 11
5672.800  
 21
359.476   
  0
INSERT
  8
2
  2
ARROW
 10
5672.800  
 20
359.476   
 41
  10.552
 42
  10.552
 43
  10.552
 50
   0.000
  0
TEXT
  8
11
 7
SIMPLEX
 10
5542.719  
 20
369.482   
 40
   30.019
  1
5427
 50
    0.000
  0
LINE
  8
2
 10
5772.800  
 20
243.261   
 11
5772.800  
 21
409.543   
  0
LINE
  8
2
 10
5737.957  
 20
401.502   
 11
5772.800  
 21
401.502   
  0
INSERT
  8
2
  2
ARROW
 10
5772.800  
 20
401.502   
 41
  10.552
 42
  10.552
 43
  10.552
 50
   0.000
  0
TEXT
  8
11
 7
SIMPLEX
 10
5642.719  
 20
411.508   
 40
   30.019
  1
5527
 50
    0.000
  0
LINE
  8
2
 10
4246.000  
 20
-771.666  
 11
4246.000  
 21
-1611.126 
  0
LINE
  8
2
 10
6649.999  
 20
-771.666  
 11
6649.999  
 21
-1611.126 
  0
LINE
  8
2
 10
4246.000  
 20
-1603.086 
 11
6649.999  
 21
-1603.086 
  0
INSERT
  8
2
  2
ARROW
 10
4246.000  
 20
-1603.086 
 41
  10.552
 42
  10.552
 43
  10.552
 50
 180.000
  0
INSERT
  8
2
  2
ARROW
 10
6649.999  
 20
-1603.086 
 41
  10.552
 42
  10.552
 43
  10.552
 50
   0.000
  0
TEXT
  8
11
 7
SIMPLEX
 10
5387.962  
 20
-1593.079 
 40
   30.019
  1
2404
 50
    0.000
  0
LINE
  8
2
 10
2826.082  
 20
-6.000    
 11
2860.925  
 21
-6.000    
  0
LINE
  8
2
 10
2826.082  
 20
-46.204   
 11
2860.925  
 21
-46.204   
  0
LINE
  8
2
 10
2852.884  
 20
-6.000    
 11
2852.884  
 21
-46.204   
  0
INSERT
  8
2
  2
ARROW
 10
2852.884  
 20
-6.000    
 41
  10.552
 42
  10.552
 43
  10.552
 50
  90.000
  0
INSERT
  8
2
  2
ARROW
 10
2852.884  
 20
-46.204   
 41
  10.552
 42
  10.552
 43
  10.552
 50
 -90.000
  0
TEXT
  8
11
 7
SIMPLEX
 10
2870.931  
 20
-46.114   
 40
   30.019
  1
144
 50
    0.000
  0
LINE
  8
2
 10
246.000   
 20
66.366    
 11
246.000   
 21
94.509    
  0
LINE
  8
2
 10
2810.000  
 20
66.366    
 11
2810.000  
 21
94.509    
  0
LINE
  8
2
 10
246.000   
 20
86.468    
 11
2810.000  
 21
86.468    
  0
INSERT
  8
2
  2
ARROW
 10
246.000   
 20
86.468    
 41
  10.552
 42
  10.552
 43
  10.552
 50
 180.000
  0
INSERT
  8
2
  2
ARROW
 10
2810.000  
 20
86.468    
 41
  10.552
 42
  10.552
 43
  10.552
 50
   0.000
  0
TEXT
  8
11
 7
SIMPLEX
 10
1467.963  
 20
96.474    
 40
   30.019
  1
2564
 50
    0.000
  0
LINE
  8
2
 10
3810.000  
 20
66.366    
 11
3810.000  
 21
94.509    
  0
LINE
  8
2
 10
3742.994  
 20
86.468    
 11
3810.000  
 21
86.468    
  0
INSERT
  8
2
  2
ARROW
 10
3810.000  
 20
86.468    
 41
  10.552
 42
  10.552
 43
  10.552
 50
   0.000
  0
TEXT
  8
11
 7
SIMPLEX
 10
3679.919  
 20
96.474    
 40
   30.019
  1
3564
 50
    0.000
  0
LINE
  8
2
 10
4810.000  
 20
66.366    
 11
4810.000  
 21
94.509    
  0
LINE
  8
2
 10
4742.994  
 20
86.468    
 11
4810.000  
 21
86.468    
  0
INSERT
  8
2
  2
ARROW
 10
4810.000  
 20
86.468    
 41
  10.552
 42
  10.552
 43
  10.552
 50
   0.000
  0
TEXT
  8
11
 7
SIMPLEX
 10
4679.920  
 20
96.474    
 40
   30.019
  1
4564
 50
    0.000
  0
LINE
  8
2
 10
6010.000  
 20
66.366    
 11
6010.000  
 21
94.508    
  0
LINE
  8
2
 10
5942.994  
 20
86.468    
 11
6010.000  
 21
86.468    
  0
INSERT
  8
2
  2
ARROW
 10
6010.000  
 20
86.468    
 41
  10.552
 42
  10.552
 43
  10.552
 50
   0.000
  0
TEXT
  8
11
 7
SIMPLEX
 10
5879.920  
 20
96.474    
 40
   30.019
  1
5764
 50
    0.000
  0
LINE
  8
2
 10
7510.000  
 20
66.366    
 11
7510.000  
 21
94.508    
  0
LINE
  8
2
 10
7442.994  
 20
86.468    
 11
7510.000  
 21
86.468    
  0
INSERT
  8
2
  2
ARROW
 10
7510.000  
 20
86.468    
 41
  10.552
 42
  10.552
 43
  10.552
 50
   0.000
  0
TEXT
  8
11
 7
SIMPLEX
 10
7379.919  
 20
96.474    
 40
   30.019
  1
7264
 50
    0.000
  0
LINE
  8
2
 10
246.000   
 20
150.794   
 11
246.000   
 21
178.936   
  0
LINE
  8
2
 10
2810.000  
 20
150.793   
 11
2810.000  
 21
178.936   
  0
LINE
  8
2
 10
246.000   
 20
170.895   
 11
2810.000  
 21
170.895   
  0
INSERT
  8
2
  2
ARROW
 10
246.000   
 20
170.895   
 41
  10.552
 42
  10.552
 43
  10.552
 50
 180.000
  0
INSERT
  8
2
  2
ARROW
 10
2810.000  
 20
170.895   
 41
  10.552
 42
  10.552
 43
  10.552
 50
   0.000
  0
TEXT
  8
11
 7
SIMPLEX
 10
1467.963  
 20
180.901   
 40
   30.019
  1
2564
 50
    0.000
  0
LINE
  8
2
 10
3810.000  
 20
150.793   
 11
3810.000  
 21
178.936   
  0
LINE
  8
2
 10
3742.994  
 20
170.895   
 11
3810.000  
 21
170.895   
  0
INSERT
  8
2
  2
ARROW
 10
3810.000  
 20
170.895   
 41
  10.552
 42
  10.552
 43
  10.552
 50
   0.000
  0
TEXT
  8
11
 7
SIMPLEX
 10
3679.919  
 20
180.901   
 40
   30.019
  1
3564
 50
    0.000
  0
LINE
  8
2
 10
4810.000  
 20
150.793   
 11
4810.000  
 21
178.936   
  0
LINE
  8
2
 10
4742.994  
 20
170.895   
 11
4810.000  
 21
170.895   
  0
INSERT
  8
2
  2
ARROW
 10
4810.000  
 20
170.895   
 41
  10.552
 42
  10.552
 43
  10.552
 50
   0.000
  0
TEXT
  8
11
 7
SIMPLEX
 10
4679.920  
 20
180.901   
 40
   30.019
  1
4564
 50
    0.000
  0
LINE
  8
2
 10
6010.000  
 20
150.793   
 11
6010.000  
 21
178.936   
  0
LINE
  8
2
 10
5942.994  
 20
170.895   
 11
6010.000  
 21
170.895   
  0
INSERT
  8
2
  2
ARROW
 10
6010.000  
 20
170.895   
 41
  10.552
 42
  10.552
 43
  10.552
 50
   0.000
  0
TEXT
  8
11
 7
SIMPLEX
 10
5879.920  
 20
180.901   
 40
   30.019
  1
5764
 50
    0.000
  0
LINE
  8
2
 10
7510.000  
 20
150.793   
 11
7510.000  
 21
178.936   
  0
LINE
  8
2
 10
7442.994  
 20
170.895   
 11
7510.000  
 21
170.895   
  0
INSERT
  8
2
  2
ARROW
 10
7510.000  
 20
170.895   
 41
  10.552
 42
  10.552
 43
  10.552
 50
   0.000
  0
TEXT
  8
11
 7
SIMPLEX
 10
7379.919  
 20
180.901   
 40
   30.019
  1
7264
 50
    0.000
  0
INSERT
  8
15
  2
CIRCLE
 10
232.599   
 20
6.061     
 41
   0.528
 42
   0.528
 43
   0.528
 50
   0.000
  0
INSERT
  8
15
  2
CIRCLE
 10
232.599   
 20
-417.090  
 41
   0.528
 42
   0.528
 43
   0.528
 50
   0.000
  0
INSERT
  8
15
  2
CIRCLE
 10
8177.033  
 20
-718.061  
 41
   0.528
 42
   0.528
 43
   0.528
 50
   0.000
  0
INSERT
  8
15
  2
CIRCLE
 10
8177.033  
 20
6.061     
 41
   0.528
 42
   0.528
 43
   0.528
 50
   0.000
  0
LINE
  8
2
 10
232.599   
 20
97.147    
 11
232.599   
 21
488.503   
  0
LINE
  8
2
 10
8177.033  
 20
97.147    
 11
8177.033  
 21
488.503   
  0
LINE
  8
2
 10
232.599   
 20
480.462   
 11
8177.033  
 21
480.462   
  0
INSERT
  8
2
  2
ARROW
 10
232.599   
 20
480.462   
 41
  10.552
 42
  10.552
 43
  10.552
 50
 180.000
  0
INSERT
  8
2
  2
ARROW
 10
8177.033  
 20
480.462   
 41
  10.552
 42
  10.552
 43
  10.552
 50
   0.000
  0
TEXT
  8
11
 7
SIMPLEX
 10
4144.779  
 20
490.468   
 40
   30.019
  1
7950
 50
    0.000
  0
LINE
  8
2
 10
246.000   
 20
85.086    
 11
246.000   
 21
243.262   
  0
LINE
  8
2
 10
313.006   
 20
235.221   
 11
246.000   
 21
235.221   
  0
INSERT
  8
2
  2
ARROW
 10
246.000   
 20
235.221   
 41
  10.552
 42
  10.552
 43
  10.552
 50
 180.000
  0
LINE
  8
2
 10
6068.000  
 20
61.006    
 11
6068.000  
 21
243.261   
  0
LINE
  8
2
 10
6000.993  
 20
235.221   
 11
6068.000  
 21
235.221   
  0
INSERT
  8
2
  2
ARROW
 10
6068.000  
 20
235.221   
 41
  10.552
 42
  10.552
 43
  10.552
 50
   0.000
  0
TEXT
  8
11
 7
SIMPLEX
 10
5937.919  
 20
245.227   
 40
   30.019
  1
5822
 50
    0.000
  0
LINE
  8
2
 10
6433.999  
 20
61.006    
 11
6433.999  
 21
243.261   
  0
LINE
  8
2
 10
6366.993  
 20
235.221   
 11
6433.999  
 21
235.221   
  0
INSERT
  8
2
  2
ARROW
 10
6433.999  
 20
235.221   
 41
  10.552
 42
  10.552
 43
  10.552
 50
   0.000
  0
TEXT
  8
11
 7
SIMPLEX
 10
6318.928  
 20
245.227   
 40
   30.019
  1
6188
 50
    0.000
  0
LINE
  8
2
 10
6649.999  
 20
61.006    
 11
6649.999  
 21
243.261   
  0
LINE
  8
2
 10
6582.993  
 20
235.221   
 11
6649.999  
 21
235.221   
  0
INSERT
  8
2
  2
ARROW
 10
6649.999  
 20
235.221   
 41
  10.552
 42
  10.552
 43
  10.552
 50
   0.000
  0
TEXT
  8
11
 7
SIMPLEX
 10
6519.918  
 20
245.227   
 40
   30.019
  1
6404
 50
    0.000
  0
LINE
  8
3
 10
246.000   
 20
86.468    
 11
246.000   
 21
354.491   
  0
LINE
  8
3
 10
246.000   
 20
274.084   
 11
65.888    
 21
274.084   
  0
INSERT
  8
3
  2
ARROW
 10
246.000   
 20
274.084   
 41
  10.552
 42
  10.552
 43
  10.552
 50
   0.000
  0
TEXT
  8
3
 7
SIMPLEX
 10
95.907    
 20
281.589   
 40
   30.019
  1
Tape
 50
    0.000
  0
TEXT
  8
3
 7
SIMPLEX
 10
95.907    
 20
236.561   
 40
   30.019
  1
(Typ)
 50
    0.000
  0
LINE
  8
1
 10
6433.999  
 20
-718.061  
 11
6433.999  
 21
-1506.061 
  0
LINE
  8
1
 10
6067.999  
 20
-1506.061 
 11
6067.999  
 21
-718.061  
  0
LINE
  8
1
 10
6433.999  
 20
-1506.061 
 11
6067.999  
 21
-1506.061 
  0
LINE
  8
1
 10
6433.999  
 20
-718.061  
 11
6067.999  
 21
-718.061  
  0
TEXT
  8
0
 7
SIMPLEX
 10
6220.980  
 20
-1142.080 
 40
   30.019
  1
BW1
 50
   -1.571
  0
TEXT
  8
3
 7
SIMPLEX
 10
6466.698  
 20
-945.706  
 40
   30.019
  1
BO1
 50
    0.000
  0
LINE
  8
3
 10
6436.679  
 20
-950.709  
 11
6503.685  
 21
-950.709  
  0
INSERT
  8
3
  2
ARROWP
 10
6436.679  
 20
-950.709  
 41
  10.552
 42
  10.552
 43
  10.552
 50
 180.000
  0
TEXT
  8
3
 7
SIMPLEX
 10
5975.263  
 20
-945.706  
 40
   30.019
  1
BI1
 50
    0.000
  0
LINE
  8
3
 10
6065.319  
 20
-950.709  
 11
5998.313  
 21
-950.709  
  0
INSERT
  8
3
  2
ARROWP
 10
6065.319  
 20
-950.709  
 41
  10.552
 42
  10.552
 43
  10.552
 50
   0.000
  0
LINE
  8
1
 10
6421.938  
 20
-718.061  
 11
6421.938  
 21
-1506.061 
  0
LINE
  8
1
 10
6080.060  
 20
-1506.061 
 11
6080.060  
 21
-718.061  
  0
INSERT
  8
6
  2
FLGHOL
 10
6421.938  
 20
-1356.061 
 41
  -0.475
 42
  -0.475
 43
  -0.475
 50
  90.000
  0
LINE
  8
2
 10
6438.020  
 20
-1356.061 
 11
6470.183  
 21
-1356.061 
  0
LINE
  8
2
 10
6438.020  
 20
-1506.061 
 11
6470.183  
 21
-1506.061 
  0
LINE
  8
2
 10
6462.142  
 20
-1356.061 
 11
6462.142  
 21
-1506.061 
  0
INSERT
  8
2
  2
ARROW
 10
6462.142  
 20
-1356.061 
 41
  10.552
 42
  10.552
 43
  10.552
 50
  90.000
  0
INSERT
  8
2
  2
ARROW
 10
6462.142  
 20
-1506.061 
 41
  10.552
 42
  10.552
 43
  10.552
 50
 -90.000
  0
TEXT
  8
11
 7
SIMPLEX
 10
6480.189  
 20
-1451.074 
 40
   30.019
  1
150
 50
    0.000
  0
TEXT
  8
21
 7
SIMPLEX
 10
6451.957  
 20
-1596.117 
 40
   30.019
  1
G=100
 50
    0.000
  0
TEXT
  8
21
 7
SIMPLEX
 10
6451.957  
 20
-1551.089 
 40
   30.019
  1
Slot=22x56
 50
    0.000
  0
INSERT
  8
6
  2
FLGHOL
 10
6421.938  
 20
-1256.061 
 41
  -0.475
 42
  -0.475
 43
  -0.475
 50
  90.000
  0
LINE
  8
2
 10
6438.020  
 20
-1256.061 
 11
6486.264  
 21
-1256.061 
  0
LINE
  8
2
 10
6478.224  
 20
-1280.183 
 11
6478.224  
 21
-1256.061 
  0
INSERT
  8
2
  2
ARROW
 10
6478.224  
 20
-1256.061 
 41
  10.552
 42
  10.552
 43
  10.552
 50
  90.000
  0
TEXT
  8
11
 7
SIMPLEX
 10
6496.271  
 20
-1285.079 
 40
   30.019
  1
250
 50
    0.000
  0
LINE
  8
1
 10
6067.999  
 20
-1506.061 
 11
6017.199  
 21
-1506.061 
  0
LINE
  8
1
 10
5513.047  
 20
-718.061  
 11
6017.199  
 21
-1506.061 
  0
TEXT
  8
3
 7
SIMPLEX
 10
5672.387  
 20
-1077.040 
 40
   30.019
  1
SS1
 50
    0.000
  0
LINE
  8
3
 10
5762.443  
 20
-1082.043 
 11
5695.437  
 21
-1082.043 
  0
INSERT
  8
3
  2
ARROWP
 10
5762.443  
 20
-1082.043 
 41
  10.552
 42
  10.552
 43
  10.552
 50
   0.000
  0
ENDBLK
  8
2
  0
BLOCK
  8
0
  2
ASMBASE
 70
     0
 10
0.000     
 20
0.000     
  0
LINE
  8
0
 10
0.000     
 20
0.000     
 11
25.400    
 21
0.000     
  0
LINE
  8
0
 10
25.400    
 20
0.000     
 11
25.400    
 21
25.400    
  0
LINE
  8
0
 10
25.400    
 20
25.400    
 11
0.000     
 21
25.400    
  0
LINE
  8
0
 10
0.000     
 20
25.400    
 11
0.000     
 21
0.000     
  0
LINE
  8
0
 10
5.080     
 20
2.540     
 11
20.320    
 21
2.540     
  0
LINE
  8
0
 10
20.320    
 20
2.540     
 11
20.320    
 21
22.860    
  0
LINE
  8
0
 10
20.320    
 20
22.860    
 11
5.080     
 21
22.860    
  0
LINE
  8
0
 10
5.080     
 20
22.860    
 11
5.080     
 21
2.540     
  0
LINE
  8
0
 10
6.350     
 20
17.628    
 11
19.050    
 21
17.628    
  0
LINE
  8
0
 10
19.050    
 20
17.628    
 11
19.050    
 21
17.882    
  0
LINE
  8
0
 10
19.050    
 20
17.882    
 11
6.350     
 21
17.882    
  0
LINE
  8
0
 10
6.350     
 20
17.882    
 11
6.350     
 21
17.628    
  0
LINE
  8
0
 10
12.573    
 20
17.628    
 11
12.827    
 21
17.628    
  0
LINE
  8
0
 10
12.827    
 20
17.628    
 11
12.827    
 21
7.772     
  0
LINE
  8
0
 10
12.827    
 20
7.772     
 11
12.573    
 21
7.772     
  0
LINE
  8
0
 10
12.573    
 20
7.772     
 11
12.573    
 21
17.628    
  0
LINE
  8
0
 10
6.350     
 20
7.518     
 11
19.050    
 21
7.518     
  0
LINE
  8
0
 10
19.050    
 20
7.518     
 11
19.050    
 21
7.772     
  0
LINE
  8
0
 10
19.050    
 20
7.772     
 11
6.350     
 21
7.772     
  0
LINE
  8
0
 10
6.350     
 20
7.772     
 11
6.350     
 21
7.518     
  0
CIRCLE
  8
1
 10
     8.890
 20
    20.320
 40
     0.254
  0
CIRCLE
  8
1
 10
    16.510
 20
    20.320
 40
     0.254
  0
CIRCLE
  8
1
 10
     8.890
 20
    15.240
 40
     0.254
  0
CIRCLE
  8
1
 10
    16.510
 20
    15.240
 40
     0.254
  0
CIRCLE
  8
1
 10
     8.890
 20
    10.160
 40
     0.254
  0
CIRCLE
  8
1
 10
    16.510
 20
    10.160
 40
     0.254
  0
CIRCLE
  8
1
 10
     8.890
 20
     5.080
 40
     0.254
  0
CIRCLE
  8
1
 10
    16.510
 20
     5.080
 40
     0.254
  0
LINE
  8
0
 10
12.700    
 20
17.882    
 11
12.700    
 21
22.352    
  0
TEXT
  8
1
 7
SIMPLEX
 10
12.459    
 20
18.363    
 40
    0.963
  1
SS2
 50
   90.000
  0
LINE
  8
0
 10
12.700    
 20
7.518     
 11
12.700    
 21
3.048     
  0
TEXT
  8
1
 7
SIMPLEX
 10
12.459    
 20
4.387     
 40
    0.963
  1
SS3
 50
   90.000
  0
TEXT
  8
1
 7
SIMPLEX
 10
0.482     
 20
23.955    
 40
    0.963
  1
EP1
 50
    0.000
  0
TEXT
  8
1
 7
SIMPLEX
 10
0.482     
 20
0.482     
 40
    0.867
  1
CENTER GUSSET BETWEEN HOLES
 50
    0.000
  0
ENDBLK
  8
0
  0
BLOCK
  8
0
  2
ASMPLATE
 70
     0
 10
0.000     
 20
0.000     
  0
LINE
  8
14
 10
0.000     
 20
0.000     
 11
124.460   
 21
0.000     
  0
LINE
  8
14
 10
0.000     
 20
5.398     
 11
124.460   
 21
5.398     
  0
LINE
  8
14
 10
0.000     
 20
0.000     
 11
0.000     
 21
96.520    
  0
LINE
  8
14
 10
0.000     
 20
96.520    
 11
124.460   
 21
96.520    
  0
LINE
  8
14
 10
30.480    
 20
5.398     
 11
30.480    
 21
96.520    
  0
LINE
  8
14
 10
40.640    
 20
5.398     
 11
40.640    
 21
96.520    
  0
LINE
  8
14
 10
104.140   
 20
5.398     
 11
104.140   
 21
96.520    
  0
LINE
  8
14
 10
104.140   
 20
5.398     
 11
104.140   
 21
96.520    
  0
LINE
  8
14
 10
124.460   
 20
5.398     
 11
124.460   
 21
96.520    
  0
LINE
  8
14
 10
124.460   
 20
0.000     
 11
124.460   
 21
96.520    
  0
LINE
  8
14
 10
0.000     
 20
90.170    
 11
124.460   
 21
90.170    
  0
TEXT
  8
14
 7
SIMPLEX
 10
0.762     
 20
91.694    
 40
    2.540
  1
MARK
 50
    0.000
  0
TEXT
  8
14
 7
SIMPLEX
 10
31.750    
 20
91.694    
 40
    2.540
  1
QNT
 50
    0.000
  0
TEXT
  8
14
 7
SIMPLEX
 10
48.260    
 20
91.694    
 40
    2.540
  1
DESCRIPTION
 50
    0.000
  0
TEXT
  8
14
 7
SIMPLEX
 10
105.410   
 20
91.694    
 40
    2.540
  1
WEIGHT
 50
    0.000
  0
LINE
  8
14
 10
0.000     
 20
85.725    
 11
124.460   
 21
85.725    
  0
TEXT
  8
14
 7
SIMPLEX
 10
1.778     
 20
86.360    
 40
    2.540
  1
WB1
 50
    0.000
  0
TEXT
  8
14
 7
SIMPLEX
 10
30.607    
 20
86.360    
 40
    2.540
  1
  1
 50
    0.000
  0
TEXT
  8
14
 7
SIMPLEX
 10
42.418    
 20
86.360    
 40
    2.540
  1
5    x 400 - 700 x 4000
 50
    0.000
  0
TEXT
  8
14
 7
SIMPLEX
 10
121.920   
 20
86.360    
 40
    2.540
 72
  2
 11
121.920   
 21
86.360    
  1
   88.0
 50
    0.000
  0
LINE
  8
14
 10
0.000     
 20
81.915    
 11
124.460   
 21
81.915    
  0
TEXT
  8
14
 7
SIMPLEX
 10
1.778     
 20
82.550    
 40
    2.540
  1
WB15
 50
    0.000
  0
TEXT
  8
14
 7
SIMPLEX
 10
30.607    
 20
82.550    
 40
    2.540
  1
  1
 50
    0.000
  0
TEXT
  8
14
 7
SIMPLEX
 10
42.418    
 20
82.550    
 40
    2.540
  1
5    x 700 x 3918
 50
    0.000
  0
TEXT
  8
14
 7
SIMPLEX
 10
121.920   
 20
82.550    
 40
    2.540
 72
  2
 11
121.920   
 21
82.550    
  1
  109.7
 50
    0.000
  0
LINE
  8
14
 10
0.000     
 20
78.105    
 11
124.460   
 21
78.105    
  0
TEXT
  8
14
 7
SIMPLEX
 10
1.778     
 20
78.740    
 40
    2.540
  1
BW1
 50
    0.000
  0
TEXT
  8
14
 7
SIMPLEX
 10
30.607    
 20
78.740    
 40
    2.540
  1
  1
 50
    0.000
  0
TEXT
  8
14
 7
SIMPLEX
 10
42.418    
 20
78.740    
 40
    2.540
  1
5    x 350 x 788
 50
    0.000
  0
TEXT
  8
14
 7
SIMPLEX
 10
121.920   
 20
78.740    
 40
    2.540
 72
  2
 11
121.920   
 21
78.740    
  1
   11.0
 50
    0.000
  0
LINE
  8
14
 10
0.000     
 20
74.295    
 11
124.460   
 21
74.295    
  0
TEXT
  8
14
 7
SIMPLEX
 10
1.778     
 20
74.930    
 40
    2.540
  1
OF1
 50
    0.000
  0
TEXT
  8
14
 7
SIMPLEX
 10
30.607    
 20
74.930    
 40
    2.540
  1
  1
 50
    0.000
  0
TEXT
  8
14
 7
SIMPLEX
 10
42.418    
 20
74.930    
 40
    2.540
  1
6    x 150 x 7918
 50
    0.000
  0
TEXT
  8
14
 7
SIMPLEX
 10
121.920   
 20
74.930    
 40
    2.540
 72
  2
 11
121.920   
 21
74.930    
  1
   57.0
 50
    0.000
  0
LINE
  8
14
 10
0.000     
 20
70.485    
 11
124.460   
 21
70.485    
  0
TEXT
  8
14
 7
SIMPLEX
 10
1.778     
 20
71.120    
 40
    2.540
  1
BO1
 50
    0.000
  0
TEXT
  8
14
 7
SIMPLEX
 10
30.607    
 20
71.120    
 40
    2.540
  1
  1
 50
    0.000
  0
TEXT
  8
14
 7
SIMPLEX
 10
42.418    
 20
71.120    
 40
    2.540
  1
8    x 225 x 788
 50
    0.000
  0
TEXT
  8
14
 7
SIMPLEX
 10
121.920   
 20
71.120    
 40
    2.540
 72
  2
 11
121.920   
 21
71.120    
  1
   11.4
 50
    0.000
  0
LINE
  8
14
 10
0.000     
 20
66.675    
 11
124.460   
 21
66.675    
  0
TEXT
  8
14
 7
SIMPLEX
 10
1.778     
 20
67.310    
 40
    2.540
  1
IF1
 50
    0.000
  0
TEXT
  8
14
 7
SIMPLEX
 10
30.607    
 20
67.310    
 40
    2.540
  1
  1
 50
    0.000
  0
TEXT
  8
14
 7
SIMPLEX
 10
42.418    
 20
67.310    
 40
    2.540
  1
6    x 150 x 4011
 50
    0.000
  0
TEXT
  8
14
 7
SIMPLEX
 10
121.920   
 20
67.310    
 40
    2.540
 72
  2
 11
121.920   
 21
67.310    
  1
   28.9
 50
    0.000
  0
LINE
  8
14
 10
0.000     
 20
62.865    
 11
124.460   
 21
62.865    
  0
TEXT
  8
14
 7
SIMPLEX
 10
1.778     
 20
63.500    
 40
    2.540
  1
IF2
 50
    0.000
  0
TEXT
  8
14
 7
SIMPLEX
 10
30.607    
 20
63.500    
 40
    2.540
  1
  1
 50
    0.000
  0
TEXT
  8
14
 7
SIMPLEX
 10
42.418    
 20
63.500    
 40
    2.540
  1
6    x 150 x 3918
 50
    0.000
  0
TEXT
  8
14
 7
SIMPLEX
 10
121.920   
 20
63.500    
 40
    2.540
 72
  2
 11
121.920   
 21
63.500    
  1
   28.2
 50
    0.000
  0
LINE
  8
14
 10
0.000     
 20
59.055    
 11
124.460   
 21
59.055    
  0
TEXT
  8
14
 7
SIMPLEX
 10
1.778     
 20
59.690    
 40
    2.540
  1
BI1
 50
    0.000
  0
TEXT
  8
14
 7
SIMPLEX
 10
30.607    
 20
59.690    
 40
    2.540
  1
  1
 50
    0.000
  0
TEXT
  8
14
 7
SIMPLEX
 10
42.418    
 20
59.690    
 40
    2.540
  1
8    x 225 x 788
 50
    0.000
  0
TEXT
  8
14
 7
SIMPLEX
 10
121.920   
 20
59.690    
 40
    2.540
 72
  2
 11
121.920   
 21
59.690    
  1
   11.4
 50
    0.000
  0
LINE
  8
14
 10
0.000     
 20
55.245    
 11
124.460   
 21
55.245    
  0
TEXT
  8
14
 7
SIMPLEX
 10
1.778     
 20
55.880    
 40
    2.540
  1
EP1
 50
    0.000
  0
TEXT
  8
14
 7
SIMPLEX
 10
30.607    
 20
55.880    
 40
    2.540
  1
  1
 50
    0.000
  0
TEXT
  8
14
 7
SIMPLEX
 10
42.418    
 20
55.880    
 40
    2.540
  1
16   x 200 x 705
 50
    0.000
  0
TEXT
  8
14
 7
SIMPLEX
 10
121.920   
 20
55.880    
 40
    2.540
 72
  2
 11
121.920   
 21
55.880    
  1
   18.0
 50
    0.000
  0
LINE
  8
14
 10
0.000     
 20
51.435    
 11
124.460   
 21
51.435    
  0
TEXT
  8
14
 7
SIMPLEX
 10
1.778     
 20
52.070    
 40
    2.540
  1
EP2
 50
    0.000
  0
TEXT
  8
14
 7
SIMPLEX
 10
30.607    
 20
52.070    
 40
    2.540
  1
  1
 50
    0.000
  0
TEXT
  8
14
 7
SIMPLEX
 10
42.418    
 20
52.070    
 40
    2.540
  1
16   x 200 x 900
 50
    0.000
  0
TEXT
  8
14
 7
SIMPLEX
 10
121.920   
 20
52.070    
 40
    2.540
 72
  2
 11
121.920   
 21
52.070    
  1
   23.0
 50
    0.000
  0
LINE
  8
14
 10
0.000     
 20
47.625    
 11
124.460   
 21
47.625    
  0
TEXT
  8
14
 7
SIMPLEX
 10
1.778     
 20
48.260    
 40
    2.540
  1
ST1
 50
    0.000
  0
TEXT
  8
14
 7
SIMPLEX
 10
30.607    
 20
48.260    
 40
    2.540
  1
  4
 50
    0.000
  0
TEXT
  8
14
 7
SIMPLEX
 10
42.418    
 20
48.260    
 40
    2.540
  1
6    x 70  x 600
 50
    0.000
  0
TEXT
  8
14
 7
SIMPLEX
 10
121.920   
 20
48.260    
 40
    2.540
 72
  2
 11
121.920   
 21
48.260    
  1
    8.1
 50
    0.000
  0
LINE
  8
14
 10
0.000     
 20
43.815    
 11
124.460   
 21
43.815    
  0
TEXT
  8
14
 7
SIMPLEX
 10
1.778     
 20
44.450    
 40
    2.540
  1
ST2
 50
    0.000
  0
TEXT
  8
14
 7
SIMPLEX
 10
30.607    
 20
44.450    
 40
    2.540
  1
  2
 50
    0.000
  0
TEXT
  8
14
 7
SIMPLEX
 10
42.418    
 20
44.450    
 40
    2.540
  1
6    x 140 x 600
 50
    0.000
  0
TEXT
  8
14
 7
SIMPLEX
 10
121.920   
 20
44.450    
 40
    2.540
 72
  2
 11
121.920   
 21
44.450    
  1
    8.1
 50
    0.000
  0
LINE
  8
14
 10
0.000     
 20
40.005    
 11
124.460   
 21
40.005    
  0
TEXT
  8
14
 7
SIMPLEX
 10
1.778     
 20
40.640    
 40
    2.540
  1
SS1
 50
    0.000
  0
TEXT
  8
14
 7
SIMPLEX
 10
30.607    
 20
40.640    
 40
    2.540
  1
  1
 50
    0.000
  0
TEXT
  8
14
 7
SIMPLEX
 10
42.418    
 20
40.640    
 40
    2.540
  1
5    x 555 x 788
 50
    0.000
  0
TEXT
  8
14
 7
SIMPLEX
 10
121.920   
 20
40.640    
 40
    2.540
 72
  2
 11
121.920   
 21
40.640    
  1
   17.5
 50
    0.000
  0
LINE
  8
14
 10
0.000     
 20
36.195    
 11
124.460   
 21
36.195    
  0
TEXT
  8
14
 7
SIMPLEX
 10
1.778     
 20
36.830    
 40
    2.540
  1
SS2
 50
    0.000
  0
TEXT
  8
14
 7
SIMPLEX
 10
30.607    
 20
36.830    
 40
    2.540
  1
  1
 50
    0.000
  0
TEXT
  8
14
 7
SIMPLEX
 10
42.418    
 20
36.830    
 40
    2.540
  1
10   x 197 x 147
 50
    0.000
  0
TEXT
  8
14
 7
SIMPLEX
 10
121.920   
 20
36.830    
 40
    2.540
 72
  2
 11
121.920   
 21
36.830    
  1
    2.3
 50
    0.000
  0
LINE
  8
14
 10
0.000     
 20
32.385    
 11
124.460   
 21
32.385    
  0
TEXT
  8
14
 7
SIMPLEX
 10
1.778     
 20
33.020    
 40
    2.540
  1
SS3
 50
    0.000
  0
TEXT
  8
14
 7
SIMPLEX
 10
30.607    
 20
33.020    
 40
    2.540
  1
  1
 50
    0.000
  0
TEXT
  8
14
 7
SIMPLEX
 10
42.418    
 20
33.020    
 40
    2.540
  1
10   x 196 x 146
 50
    0.000
  0
TEXT
  8
14
 7
SIMPLEX
 10
121.920   
 20
33.020    
 40
    2.540
 72
  2
 11
121.920   
 21
33.020    
  1
    2.3
 50
    0.000
  0
LINE
  8
14
 10
0.000     
 20
28.575    
 11
124.460   
 21
28.575    
  0
TEXT
  8
14
 7
SIMPLEX
 10
1.778     
 20
29.210    
 40
    2.540
  1
SS4
 50
    0.000
  0
TEXT
  8
14
 7
SIMPLEX
 10
30.607    
 20
29.210    
 40
    2.540
  1
  2
 50
    0.000
  0
TEXT
  8
14
 7
SIMPLEX
 10
42.418    
 20
29.210    
 40
    2.540
  1
5    x 120 x 94
 50
    0.000
  0
TEXT
  8
14
 7
SIMPLEX
 10
121.920   
 20
29.210    
 40
    2.540
 72
  2
 11
121.920   
 21
29.210    
  1
    0.9
 50
    0.000
  0
LINE
  8
14
 10
0.000     
 20
24.765    
 11
124.460   
 21
24.765    
  0
TEXT
  8
14
 7
SIMPLEX
 10
1.778     
 20
25.400    
 40
    2.540
  1
CLF1
 50
    0.000
  0
TEXT
  8
14
 7
SIMPLEX
 10
30.607    
 20
25.400    
 40
    2.540
  1
  2
 50
    0.000
  0
TEXT
  8
14
 7
SIMPLEX
 10
42.418    
 20
25.400    
 40
    2.540
  1
5    x 75  x 75
 50
    0.000
  0
TEXT
  8
14
 7
SIMPLEX
 10
121.920   
 20
25.400    
 40
    2.540
 72
  2
 11
121.920   
 21
25.400    
  1
    0.4
 50
    0.000
  0
LINE
  8
14
 10
0.000     
 20
20.955    
 11
124.460   
 21
20.955    
  0
TEXT
  8
14
 7
SIMPLEX
 10
1.778     
 20
21.590    
 40
    2.540
  1
CLF2
 50
    0.000
  0
TEXT
  8
14
 7
SIMPLEX
 10
30.607    
 20
21.590    
 40
    2.540
  1
  5
 50
    0.000
  0
TEXT
  8
14
 7
SIMPLEX
 10
42.418    
 20
21.590    
 40
    2.540
  1
5    x 150 x 173
 50
    0.000
  0
TEXT
  8
14
 7
SIMPLEX
 10
121.920   
 20
21.590    
 40
    2.540
 72
  2
 11
121.920   
 21
21.590    
  1
    5.1
 50
    0.000
  0
LINE
  8
14
 10
0.000     
 20
17.145    
 11
124.460   
 21
17.145    
  0
TEXT
  8
14
 7
SIMPLEX
 10
1.778     
 20
17.780    
 40
    2.540
  1
CLF3
 50
    0.000
  0
TEXT
  8
14
 7
SIMPLEX
 10
30.607    
 20
17.780    
 40
    2.540
  1
  5
 50
    0.000
  0
TEXT
  8
14
 7
SIMPLEX
 10
42.418    
 20
17.780    
 40
    2.540
  1
5    x 150 x 205
 50
    0.000
  0
TEXT
  8
14
 7
SIMPLEX
 10
121.920   
 20
17.780    
 40
    2.540
 72
  2
 11
121.920   
 21
17.780    
  1
    6.2
 50
    0.000
  0
LINE
  8
14
 10
0.000     
 20
13.335    
 11
124.460   
 21
13.335    
  0
TEXT
  8
14
 7
SIMPLEX
 10
1.778     
 20
13.970    
 40
    2.540
  1
 GC41-01
 50
    0.000
  0
TEXT
  8
14
 7
SIMPLEX
 10
30.607    
 20
13.970    
 40
    2.540
  1
  1
 50
    0.000
  0
TEXT
  8
14
 7
SIMPLEX
 10
42.418    
 20
13.970    
 40
    2.540
  1
8    x 300 x 150
 50
    0.000
  0
TEXT
  8
14
 7
SIMPLEX
 10
121.920   
 20
13.970    
 40
    2.540
 72
  2
 11
121.920   
 21
13.970    
  1
    2.8
 50
    0.000
  0
LINE
  8
14
 10
0.000     
 20
9.525     
 11
124.460   
 21
9.525     
  0
LINE
  8
14
 10
0.000     
 20
5.715     
 11
124.460   
 21
5.715     
  0
TEXT
  8
14
 7
SIMPLEX
 10
42.418    
 20
1.524     
 40
    2.540
  1
Weight Sum
 50
    0.000
  0
TEXT
  8
14
 7
SIMPLEX
 10
121.920   
 20
1.524     
 40
    2.540
 72
  2
 11
121.920   
 21
1.524     
  1
  440.3
 50
    0.000
  0
ENDBLK
  8
0
  0
BLOCK
  8
2
  2
ASMTITLE
 70
     0
 10
0.000     
 20
0.000     
  0
LINE
  8
0
 10
0.000     
 20
10.160    
 11
91.440    
 21
10.160    
  0
LINE
  8
0
 10
0.000     
 20
20.320    
 11
91.440    
 21
20.320    
  0
LINE
  8
0
 10
0.000     
 20
30.480    
 11
91.440    
 21
30.480    
  0
LINE
  8
0
 10
91.440    
 20
0.000     
 11
91.440    
 21
30.480    
  0
LINE
  8
0
 10
0.000     
 20
30.480    
 11
0.000     
 21
0.000     
  0
LINE
  8
0
 10
30.480    
 20
20.320    
 11
30.480    
 21
0.000     
  0
LINE
  8
0
 10
60.960    
 20
20.320    
 11
60.960    
 21
0.000     
  0
LINE
  8
0
 10
0.000     
 20
0.000     
 11
91.440    
 21
0.000     
  0
TEXT
  8
0
 7
SIMPLEX
 10
7.620     
 20
17.780    
 40
    1.143
  1
JOB
 50
    0.000
  0
TEXT
  8
0
 7
SIMPLEX
 10
7.620     
 20
7.620     
 40
    1.143
  1
QUANTITY
 50
    0.000
  0
TEXT
  8
0
 7
SIMPLEX
 10
38.100    
 20
27.940    
 40
    1.143
  1
CUSTOMER
 50
    0.000
  0
TEXT
  8
0
 7
SIMPLEX
 10
38.100    
 20
17.780    
 40
    1.143
  1
CHECKED BY
 50
    0.000
  0
TEXT
  8
0
 7
SIMPLEX
 10
38.100    
 20
7.620     
 40
    1.143
  1
PART
 50
    0.000
  0
TEXT
  8
0
 7
SIMPLEX
 10
68.580    
 20
17.780    
 40
    1.143
  1
DATE
 50
    0.000
  0
TEXT
  8
0
 7
SIMPLEX
 10
68.580    
 20
7.620     
 40
    1.143
  1
DRAWING
 50
    0.000
  0
TEXT
  8
0
 7
SIMPLEX
 10
46.457    
 20
22.860    
 40
    3.607
  1
 
 50
    0.000
  0
TEXT
  8
0
 7
SIMPLEX
 10
2.540     
 20
12.700    
 40
    3.607
  1
C323-153-F
 50
    0.000
  0
TEXT
  8
0
 7
SIMPLEX
 10
2.540     
 20
2.540     
 40
    3.607
  1
  1
 50
    0.000
  0
TEXT
  8
0
 7
SIMPLEX
 10
33.020    
 20
2.540     
 40
    3.607
  1
CL5-1
 50
    0.000
  0
TEXT
  8
0
 7
SIMPLEX
 10
62.230    
 20
12.700    
 40
    3.607
  1
11/AUG/2025
 50
    0.000
  0
TEXT
  8
0
 7
SIMPLEX
 10
62.230    
 20
2.540     
 40
    3.607
  1
CL5-1
 50
    0.000
  0
ENDBLK
  8
2
  0
BLOCK
  8
2
  2
ASMSECTN
 70
     0
 10
0.000     
 20
0.000     
  0
LINE
  8
1
 10
-6.350    
 20
0.000     
 11
6.350     
 21
0.000     
  0
LINE
  8
1
 10
-6.350    
 20
0.000     
 11
-6.350    
 21
1.270     
  0
LINE
  8
1
 10
6.350     
 20
0.000     
 11
6.350     
 21
1.270     
  0
LINE
  8
1
 10
-6.350    
 20
1.270     
 11
6.350     
 21
1.270     
  0
LINE
  8
1
 10
-6.350    
 20
27.940    
 11
6.350     
 21
27.940    
  0
LINE
  8
1
 10
-6.350    
 20
27.940    
 11
-6.350    
 21
26.670    
  0
LINE
  8
1
 10
6.350     
 20
27.940    
 11
6.350     
 21
26.670    
  0
LINE
  8
1
 10
-6.350    
 20
26.670    
 11
6.350     
 21
26.670    
  0
LINE
  8
1
 10
-0.508    
 20
1.270     
 11
-0.508    
 21
26.670    
  0
LINE
  8
1
 10
0.508     
 20
1.270     
 11
0.508     
 21
26.670    
  0
TEXT
  8
3
 7
SIMPLEX
 10
-24.841   
 20
6.858     
 40
    2.845
  1
NS
 50
    0.000
  0
TEXT
  8
3
 7
SIMPLEX
 10
21.996    
 20
6.858     
 40
    2.845
  1
FS
 50
    0.000
  0
LINE
  8
13
 10
0.762     
 20
6.604     
 11
5.842     
 21
6.604     
  0
LINE
  8
13
 10
5.842     
 20
6.604     
 11
5.842     
 21
1.524     
  0
LINE
  8
13
 10
5.842     
 20
1.524     
 11
1.524     
 21
1.524     
  0
LINE
  8
13
 10
0.762     
 20
2.286     
 11
0.762     
 21
6.604     
  0
LINE
  8
13
 10
0.762     
 20
2.286     
 11
1.524     
 21
1.524     
  0
LINE
  8
13
 10
-0.762    
 20
6.604     
 11
-5.842    
 21
6.604     
  0
LINE
  8
13
 10
-5.842    
 20
6.604     
 11
-5.842    
 21
1.524     
  0
LINE
  8
13
 10
-5.842    
 20
1.524     
 11
-1.524    
 21
1.524     
  0
LINE
  8
13
 10
-0.762    
 20
2.286     
 11
-0.762    
 21
6.604     
  0
LINE
  8
13
 10
-0.762    
 20
2.286     
 11
-1.524    
 21
1.524     
  0
INSERT
  8
1
  2
CIRCLE
 10
3.302     
 20
4.064     
 41
   0.060
 42
   0.060
 43
   0.060
 50
   0.000
  0
INSERT
  8
1
  2
CIRCLE
 10
-3.302    
 20
4.064     
 41
   0.060
 42
   0.060
 43
   0.060
 50
   0.000
  0
LINE
  8
3
 10
-7.112    
 20
4.064     
 11
-12.192   
 21
4.064     
  0
LINE
  8
3
 10
-7.112    
 20
1.524     
 11
-12.192   
 21
1.524     
  0
LINE
  8
3
 10
-10.922   
 20
1.524     
 11
-10.922   
 21
4.064     
  0
INSERT
  8
1
  2
ARROW
 10
-10.922   
 20
1.524     
 41
   1.000
 42
   1.000
 43
   1.000
 50
  90.000
  0
INSERT
  8
1
  2
ARROW
 10
-10.922   
 20
4.064     
 41
   1.000
 42
   1.000
 43
   1.000
 50
 270.000
  0
TEXT
  8
3
 7
SIMPLEX
 10
-18.068   
 20
1.964     
 40
    2.845
  1
50
 50
    0.000
  0
LINE
  8
3
 10
-3.302    
 20
7.112     
 11
-3.302    
 21
9.144     
  0
LINE
  8
3
 10
-0.508    
 20
7.874     
 11
-0.508    
 21
9.144     
  0
LINE
  8
3
 10
-3.302    
 20
7.874     
 11
-0.508    
 21
7.874     
  0
INSERT
  8
1
  2
ARROW
 10
-3.302    
 20
7.874     
 41
   1.000
 42
   1.000
 43
   1.000
 50
   0.000
  0
INSERT
  8
1
  2
ARROW
 10
-0.508    
 20
7.874     
 41
   1.000
 42
   1.000
 43
   1.000
 50
 180.000
  0
TEXT
  8
3
 7
SIMPLEX
 10
-9.940    
 20
8.568     
 40
    2.845
  1
50
 50
    0.000
  0
LINE
  8
3
 10
7.112     
 20
3.810     
 11
17.272    
 21
3.810     
  0
INSERT
  8
3
  2
ARROWP
 10
7.112     
 20
3.810     
 41
   1.000
 42
   1.000
 43
   1.000
 50
 180.000
  0
TEXT
  8
1
 7
SIMPLEX
 10
10.160    
 20
4.572     
 40
    2.845
  1
CLF1
 50
    0.000
  0
TEXT
  8
21
 7
SIMPLEX
 10
9.550     
 20
-0.457    
 40
    2.845
  1
D=14
 50
    0.000
  0
LINE
  8
13
 10
0.762     
 20
15.240    
 11
0.762     
 21
15.240    
  0
LINE
  8
13
 10
0.762     
 20
15.240    
 11
0.762     
 21
15.240    
  0
LINE
  8
13
 10
0.762     
 20
15.240    
 11
13.462    
 21
15.240    
  0
LINE
  8
13
 10
13.462    
 20
15.240    
 11
13.462    
 21
25.400    
  0
LINE
  8
13
 10
13.462    
 20
25.400    
 11
13.462    
 21
25.400    
  0
LINE
  8
13
 10
13.462    
 20
25.400    
 11
0.762     
 21
25.400    
  0
LINE
  8
13
 10
0.762     
 20
25.400    
 11
0.762     
 21
25.400    
  0
LINE
  8
13
 10
0.762     
 20
25.400    
 11
0.762     
 21
15.240    
  0
INSERT
  8
1
  2
CIRCLE
 10
10.922    
 20
22.860    
 41
   0.060
 42
   0.060
 43
   0.060
 50
   0.000
  0
INSERT
  8
1
  2
CIRCLE
 10
10.922    
 20
17.780    
 41
   0.060
 42
   0.060
 43
   0.060
 50
   0.000
  0
TEXT
  8
3
 7
SIMPLEX
 10
19.490    
 20
25.078    
 40
    2.845
  1
144
 50
    0.000
  0
LINE
  8
3
 10
14.732    
 20
22.860    
 11
19.812    
 21
22.860    
  0
LINE
  8
3
 10
14.732    
 20
22.860    
 11
19.812    
 21
22.860    
  0
LINE
  8
3
 10
7.620     
 20
26.670    
 11
19.812    
 21
26.670    
  0
LINE
  8
3
 10
18.542    
 20
17.780    
 11
18.542    
 21
29.515    
  0
INSERT
  8
1
  2
ARROW
 10
18.542    
 20
22.860    
 41
   1.000
 42
   1.000
 43
   1.000
 50
  90.000
  0
INSERT
  8
1
  2
ARROW
 10
18.542    
 20
26.670    
 41
   1.000
 42
   1.000
 43
   1.000
 50
 270.000
  0
LINE
  8
3
 10
14.732    
 20
17.780    
 11
19.812    
 21
17.780    
  0
INSERT
  8
1
  2
ARROW
 10
18.542    
 20
17.780    
 41
   1.000
 42
   1.000
 43
   1.000
 50
 270.000
  0
TEXT
  8
3
 7
SIMPLEX
 10
19.490    
 20
18.907    
 40
    2.845
  1
100
 50
    0.000
  0
LINE
  8
3
 10
0.000     
 20
12.700    
 11
10.922    
 21
12.700    
  0
LINE
  8
3
 10
0.000     
 20
13.970    
 11
0.000     
 21
11.430    
  0
LINE
  8
3
 10
10.922    
 20
13.970    
 11
10.922    
 21
11.430    
  0
INSERT
  8
1
  2
ARROW
 10
0.000     
 20
12.700    
 41
   1.000
 42
   1.000
 43
   1.000
 50
 180.000
  0
INSERT
  8
1
  2
ARROW
 10
10.922    
 20
12.700    
 41
   1.000
 42
   1.000
 43
   1.000
 50
   0.000
  0
TEXT
  8
3
 7
SIMPLEX
 10
1.456     
 20
9.381     
 40
    2.845
  1
148
 50
    0.000
  0
LINE
  8
3
 10
13.970    
 20
15.240    
 11
24.130    
 21
15.240    
  0
INSERT
  8
3
  2
ARROWP
 10
13.970    
 20
15.240    
 41
   1.000
 42
   1.000
 43
   1.000
 50
 180.000
  0
TEXT
  8
1
 7
SIMPLEX
 10
26.670    
 20
16.002    
 40
    2.845
  1
CLF2
 50
    0.000
  0
TEXT
  8
21
 7
SIMPLEX
 10
20.980    
 20
10.973    
 40
    2.845
  1
D=14
 50
    0.000
  0
LINE
  8
13
 10
-5.080    
 20
28.194    
 11
5.080     
 21
28.194    
  0
LINE
  8
13
 10
5.080     
 20
28.194    
 11
5.080     
 21
43.434    
  0
LINE
  8
13
 10
5.080     
 20
43.434    
 11
-5.080    
 21
43.434    
  0
LINE
  8
13
 10
-5.080    
 20
43.434    
 11
-5.080    
 21
28.194    
  0
INSERT
  8
1
  2
CIRCLE
 10
-2.540    
 20
33.274    
 41
   0.060
 42
   0.060
 43
   0.060
 50
   0.000
  0
INSERT
  8
1
  2
CIRCLE
 10
2.540     
 20
33.274    
 41
   0.060
 42
   0.060
 43
   0.060
 50
   0.000
  0
INSERT
  8
1
  2
CIRCLE
 10
-2.540    
 20
40.894    
 41
   0.060
 42
   0.060
 43
   0.060
 50
   0.000
  0
INSERT
  8
1
  2
CIRCLE
 10
2.540     
 20
40.894    
 41
   0.060
 42
   0.060
 43
   0.060
 50
   0.000
  0
LINE
  8
3
 10
-2.540    
 20
44.704    
 11
-2.540    
 21
47.244    
  0
LINE
  8
3
 10
2.540     
 20
44.704    
 11
2.540     
 21
47.244    
  0
LINE
  8
3
 10
-2.540    
 20
45.974    
 11
2.540     
 21
45.974    
  0
INSERT
  8
1
  2
ARROW
 10
-2.540    
 20
45.974    
 41
   1.000
 42
   1.000
 43
   1.000
 50
 180.000
  0
INSERT
  8
1
  2
ARROW
 10
2.540     
 20
45.974    
 41
   1.000
 42
   1.000
 43
   1.000
 50
   0.000
  0
TEXT
  8
3
 7
SIMPLEX
 10
-1.592    
 20
46.922    
 40
    2.845
  1
100
 50
    0.000
  0
LINE
  8
3
 10
7.620     
 20
27.940    
 11
12.700    
 21
27.940    
  0
LINE
  8
3
 10
6.350     
 20
33.274    
 11
12.700    
 21
33.274    
  0
LINE
  8
3
 10
11.430    
 20
27.940    
 11
11.430    
 21
40.894    
  0
LINE
  8
3
 10
6.350     
 20
40.894    
 11
12.700    
 21
40.894    
  0
INSERT
  8
1
  2
ARROW
 10
11.430    
 20
40.894    
 41
   1.000
 42
   1.000
 43
   1.000
 50
  90.000
  0
INSERT
  8
1
  2
ARROW
 10
11.430    
 20
33.274    
 41
   1.000
 42
   1.000
 43
   1.000
 50
 270.000
  0
INSERT
  8
1
  2
ARROW
 10
11.430    
 20
33.274    
 41
   1.000
 42
   1.000
 43
   1.000
 50
  90.000
  0
INSERT
  8
1
  2
ARROW
 10
11.430    
 20
27.940    
 41
   1.000
 42
   1.000
 43
   1.000
 50
 270.000
  0
TEXT
  8
3
 7
SIMPLEX
 10
12.378    
 20
30.158    
 40
    2.845
  1
80
 50
    0.000
  0
TEXT
  8
3
 7
SIMPLEX
 10
12.378    
 20
36.508    
 40
    2.845
  1
100
 50
    0.000
  0
LINE
  8
3
 10
-6.350    
 20
38.100    
 11
-16.510   
 21
38.100    
  0
INSERT
  8
3
  2
ARROWP
 10
-6.350    
 20
38.100    
 41
   1.000
 42
   1.000
 43
   1.000
 50
   0.000
  0
TEXT
  8
1
 7
SIMPLEX
 10
-17.780   
 20
38.862    
 40
    2.845
  1
CLF3
 50
    0.000
  0
TEXT
  8
21
 7
SIMPLEX
 10
-23.571   
 20
33.833    
 40
    2.845
  1
D=14
 50
    0.000
  0
LINE
  8
13
 10
-5.080    
 20
-0.254    
 11
5.080     
 21
-0.254    
  0
LINE
  8
13
 10
5.080     
 20
-0.254    
 11
5.080     
 21
-7.874    
  0
LINE
  8
13
 10
5.080     
 20
-7.874    
 11
-5.080    
 21
-7.874    
  0
LINE
  8
13
 10
-5.080    
 20
-7.874    
 11
-5.080    
 21
-0.254    
  0
INSERT
  8
1
  2
CIRCLE
 10
-2.540    
 20
-5.334    
 41
   0.060
 42
   0.060
 43
   0.060
 50
  90.000
  0
INSERT
  8
1
  2
CIRCLE
 10
2.540     
 20
-5.334    
 41
   0.060
 42
   0.060
 43
   0.060
 50
  90.000
  0
LINE
  8
3
 10
-2.540    
 20
-9.144    
 11
-2.540    
 21
-14.224   
  0
LINE
  8
3
 10
2.540     
 20
-9.144    
 11
2.540     
 21
-14.224   
  0
LINE
  8
3
 10
-2.540    
 20
-12.954   
 11
2.540     
 21
-12.954   
  0
INSERT
  8
1
  2
ARROW
 10
-2.540    
 20
-12.954   
 41
   1.000
 42
   1.000
 43
   1.000
 50
 180.000
  0
INSERT
  8
1
  2
ARROW
 10
2.540     
 20
-12.954   
 41
   1.000
 42
   1.000
 43
   1.000
 50
   0.000
  0
TEXT
  8
3
 7
SIMPLEX
 10
3.488     
 20
-12.006   
 40
    2.845
  1
200
 50
    0.000
  0
LINE
  8
3
 10
7.620     
 20
0.000     
 11
12.700    
 21
0.000     
  0
LINE
  8
3
 10
7.620     
 20
-5.334    
 11
12.700    
 21
-5.334    
  0
LINE
  8
3
 10
11.430    
 20
0.000     
 11
11.430    
 21
-5.334    
  0
INSERT
  8
1
  2
ARROW
 10
11.430    
 20
-5.334    
 41
   1.000
 42
   1.000
 43
   1.000
 50
 270.000
  0
INSERT
  8
1
  2
ARROW
 10
11.430    
 20
0.000     
 41
   1.000
 42
   1.000
 43
   1.000
 50
  90.000
  0
TEXT
  8
3
 7
SIMPLEX
 10
12.378    
 20
-4.386    
 40
    2.845
  1
100
 50
    0.000
  0
LINE
  8
3
 10
-6.350    
 20
-7.620    
 11
-16.510   
 21
-7.620    
  0
INSERT
  8
3
  2
ARROWP
 10
-6.350    
 20
-7.620    
 41
   1.000
 42
   1.000
 43
   1.000
 50
   0.000
  0
TEXT
  8
1
 7
SIMPLEX
 10
-17.780   
 20
-6.858    
 40
    2.845
  1
 GC41-01
 50
    0.000
  0
TEXT
  8
21
 7
SIMPLEX
 10
-17.780   
 20
-11.887   
 40
    2.845
  1
D=22
 50
    0.000
  0
INSERT
  8
4
  2
ARROWP
 10
9.195     
 20
-1.422    
 41
   1.500
 42
   1.500
 43
   1.500
 50
 135.000
  0
LINE
  8
4
 10
9.195     
 20
-1.422    
 11
14.315    
 21
-6.543    
  0
LINE
  8
4
 10
14.315    
 20
-6.543    
 11
33.091    
 21
-6.543    
  0
TEXT
  8
5
 7
SIMPLEX
 10
17.160    
 20
-5.595    
 40
    2.845
  1
4
 50
    0.000
  0
LINE
  8
4
 10
33.091    
 20
-6.543    
 11
33.945    
 21
-6.543    
  0
LINE
  8
4
 10
33.945    
 20
-6.543    
 11
37.358    
 21
-4.552    
  0
LINE
  8
4
 10
33.945    
 20
-6.543    
 11
37.358    
 21
-8.534    
  0
TEXT
  8
4
 7
SIMPLEX
 10
36.647    
 20
-7.965    
 40
    2.845
  1
Clips
 50
    0.000
  0
LINE
  8
4
 10
29.535    
 20
-3.698    
 11
32.380    
 21
-6.543    
  0
LINE
  8
4
 10
29.535    
 20
-6.543    
 11
29.535    
 21
-3.698    
  0
ENDBLK
  8
2
  0
BLOCK
  8
2
  2
ASMSECT2
 70
     0
 10
0.000     
 20
0.000     
  0
LINE
  8
1
 10
-6.350    
 20
0.000     
 11
6.350     
 21
0.000     
  0
LINE
  8
1
 10
-6.350    
 20
0.000     
 11
-6.350    
 21
1.270     
  0
LINE
  8
1
 10
6.350     
 20
0.000     
 11
6.350     
 21
1.270     
  0
LINE
  8
1
 10
-6.350    
 20
1.270     
 11
6.350     
 21
1.270     
  0
LINE
  8
1
 10
-6.350    
 20
27.940    
 11
6.350     
 21
27.940    
  0
LINE
  8
1
 10
-6.350    
 20
27.940    
 11
-6.350    
 21
26.670    
  0
LINE
  8
1
 10
6.350     
 20
27.940    
 11
6.350     
 21
26.670    
  0
LINE
  8
1
 10
-6.350    
 20
26.670    
 11
6.350     
 21
26.670    
  0
LINE
  8
1
 10
-0.508    
 20
1.270     
 11
-0.508    
 21
26.670    
  0
LINE
  8
1
 10
0.508     
 20
1.270     
 11
0.508     
 21
26.670    
  0
TEXT
  8
3
 7
SIMPLEX
 10
-24.841   
 20
6.858     
 40
    2.845
  1
NS
 50
    0.000
  0
TEXT
  8
3
 7
SIMPLEX
 10
21.996    
 20
6.858     
 40
    2.845
  1
FS
 50
    0.000
  0
LINE
  8
13
 10
0.762     
 20
15.240    
 11
0.762     
 21
15.240    
  0
LINE
  8
13
 10
0.762     
 20
15.240    
 11
0.762     
 21
15.240    
  0
LINE
  8
13
 10
0.762     
 20
15.240    
 11
13.462    
 21
15.240    
  0
LINE
  8
13
 10
13.462    
 20
15.240    
 11
13.462    
 21
25.400    
  0
LINE
  8
13
 10
13.462    
 20
25.400    
 11
13.462    
 21
25.400    
  0
LINE
  8
13
 10
13.462    
 20
25.400    
 11
0.762     
 21
25.400    
  0
LINE
  8
13
 10
0.762     
 20
25.400    
 11
0.762     
 21
25.400    
  0
LINE
  8
13
 10
0.762     
 20
25.400    
 11
0.762     
 21
15.240    
  0
INSERT
  8
1
  2
CIRCLE
 10
10.922    
 20
22.860    
 41
   0.060
 42
   0.060
 43
   0.060
 50
   0.000
  0
INSERT
  8
1
  2
CIRCLE
 10
10.922    
 20
17.780    
 41
   0.060
 42
   0.060
 43
   0.060
 50
   0.000
  0
TEXT
  8
3
 7
SIMPLEX
 10
19.490    
 20
25.078    
 40
    2.845
  1
144
 50
    0.000
  0
LINE
  8
3
 10
14.732    
 20
22.860    
 11
19.812    
 21
22.860    
  0
LINE
  8
3
 10
14.732    
 20
22.860    
 11
19.812    
 21
22.860    
  0
LINE
  8
3
 10
7.620     
 20
26.670    
 11
19.812    
 21
26.670    
  0
LINE
  8
3
 10
18.542    
 20
17.780    
 11
18.542    
 21
29.515    
  0
INSERT
  8
1
  2
ARROW
 10
18.542    
 20
22.860    
 41
   1.000
 42
   1.000
 43
   1.000
 50
  90.000
  0
INSERT
  8
1
  2
ARROW
 10
18.542    
 20
26.670    
 41
   1.000
 42
   1.000
 43
   1.000
 50
 270.000
  0
LINE
  8
3
 10
14.732    
 20
17.780    
 11
19.812    
 21
17.780    
  0
INSERT
  8
1
  2
ARROW
 10
18.542    
 20
17.780    
 41
   1.000
 42
   1.000
 43
   1.000
 50
 270.000
  0
TEXT
  8
3
 7
SIMPLEX
 10
19.490    
 20
18.907    
 40
    2.845
  1
100
 50
    0.000
  0
LINE
  8
3
 10
0.000     
 20
12.700    
 11
10.922    
 21
12.700    
  0
LINE
  8
3
 10
0.000     
 20
13.970    
 11
0.000     
 21
11.430    
  0
LINE
  8
3
 10
10.922    
 20
13.970    
 11
10.922    
 21
11.430    
  0
INSERT
  8
1
  2
ARROW
 10
0.000     
 20
12.700    
 41
   1.000
 42
   1.000
 43
   1.000
 50
 180.000
  0
INSERT
  8
1
  2
ARROW
 10
10.922    
 20
12.700    
 41
   1.000
 42
   1.000
 43
   1.000
 50
   0.000
  0
TEXT
  8
3
 7
SIMPLEX
 10
1.456     
 20
9.381     
 40
    2.845
  1
148
 50
    0.000
  0
LINE
  8
3
 10
13.970    
 20
15.240    
 11
24.130    
 21
15.240    
  0
INSERT
  8
3
  2
ARROWP
 10
13.970    
 20
15.240    
 41
   1.000
 42
   1.000
 43
   1.000
 50
 180.000
  0
TEXT
  8
1
 7
SIMPLEX
 10
26.670    
 20
16.002    
 40
    2.845
  1
CLF2
 50
    0.000
  0
TEXT
  8
21
 7
SIMPLEX
 10
20.980    
 20
10.973    
 40
    2.845
  1
D=14
 50
    0.000
  0
LINE
  8
13
 10
-5.080    
 20
28.194    
 11
5.080     
 21
28.194    
  0
LINE
  8
13
 10
5.080     
 20
28.194    
 11
5.080     
 21
43.434    
  0
LINE
  8
13
 10
5.080     
 20
43.434    
 11
-5.080    
 21
43.434    
  0
LINE
  8
13
 10
-5.080    
 20
43.434    
 11
-5.080    
 21
28.194    
  0
INSERT
  8
1
  2
CIRCLE
 10
-2.540    
 20
33.274    
 41
   0.060
 42
   0.060
 43
   0.060
 50
   0.000
  0
INSERT
  8
1
  2
CIRCLE
 10
2.540     
 20
33.274    
 41
   0.060
 42
   0.060
 43
   0.060
 50
   0.000
  0
INSERT
  8
1
  2
CIRCLE
 10
-2.540    
 20
40.894    
 41
   0.060
 42
   0.060
 43
   0.060
 50
   0.000
  0
INSERT
  8
1
  2
CIRCLE
 10
2.540     
 20
40.894    
 41
   0.060
 42
   0.060
 43
   0.060
 50
   0.000
  0
LINE
  8
3
 10
-2.540    
 20
44.704    
 11
-2.540    
 21
47.244    
  0
LINE
  8
3
 10
2.540     
 20
44.704    
 11
2.540     
 21
47.244    
  0
LINE
  8
3
 10
-2.540    
 20
45.974    
 11
2.540     
 21
45.974    
  0
INSERT
  8
1
  2
ARROW
 10
-2.540    
 20
45.974    
 41
   1.000
 42
   1.000
 43
   1.000
 50
 180.000
  0
INSERT
  8
1
  2
ARROW
 10
2.540     
 20
45.974    
 41
   1.000
 42
   1.000
 43
   1.000
 50
   0.000
  0
TEXT
  8
3
 7
SIMPLEX
 10
-1.592    
 20
46.922    
 40
    2.845
  1
100
 50
    0.000
  0
LINE
  8
3
 10
7.620     
 20
27.940    
 11
12.700    
 21
27.940    
  0
LINE
  8
3
 10
6.350     
 20
33.274    
 11
12.700    
 21
33.274    
  0
LINE
  8
3
 10
11.430    
 20
27.940    
 11
11.430    
 21
40.894    
  0
LINE
  8
3
 10
6.350     
 20
40.894    
 11
12.700    
 21
40.894    
  0
INSERT
  8
1
  2
ARROW
 10
11.430    
 20
40.894    
 41
   1.000
 42
   1.000
 43
   1.000
 50
  90.000
  0
INSERT
  8
1
  2
ARROW
 10
11.430    
 20
33.274    
 41
   1.000
 42
   1.000
 43
   1.000
 50
 270.000
  0
INSERT
  8
1
  2
ARROW
 10
11.430    
 20
33.274    
 41
   1.000
 42
   1.000
 43
   1.000
 50
  90.000
  0
INSERT
  8
1
  2
ARROW
 10
11.430    
 20
27.940    
 41
   1.000
 42
   1.000
 43
   1.000
 50
 270.000
  0
TEXT
  8
3
 7
SIMPLEX
 10
12.378    
 20
30.158    
 40
    2.845
  1
80
 50
    0.000
  0
TEXT
  8
3
 7
SIMPLEX
 10
12.378    
 20
36.508    
 40
    2.845
  1
100
 50
    0.000
  0
LINE
  8
3
 10
-6.350    
 20
38.100    
 11
-16.510   
 21
38.100    
  0
INSERT
  8
3
  2
ARROWP
 10
-6.350    
 20
38.100    
 41
   1.000
 42
   1.000
 43
   1.000
 50
   0.000
  0
TEXT
  8
1
 7
SIMPLEX
 10
-17.780   
 20
38.862    
 40
    2.845
  1
CLF3
 50
    0.000
  0
TEXT
  8
21
 7
SIMPLEX
 10
-23.571   
 20
33.833    
 40
    2.845
  1
D=14
 50
    0.000
  0
LINE
  8
13
 10
-5.080    
 20
-0.254    
 11
5.080     
 21
-0.254    
  0
LINE
  8
13
 10
5.080     
 20
-0.254    
 11
5.080     
 21
-7.874    
  0
LINE
  8
13
 10
5.080     
 20
-7.874    
 11
-5.080    
 21
-7.874    
  0
LINE
  8
13
 10
-5.080    
 20
-7.874    
 11
-5.080    
 21
-0.254    
  0
INSERT
  8
1
  2
CIRCLE
 10
-2.540    
 20
-5.334    
 41
   0.060
 42
   0.060
 43
   0.060
 50
  90.000
  0
INSERT
  8
1
  2
CIRCLE
 10
2.540     
 20
-5.334    
 41
   0.060
 42
   0.060
 43
   0.060
 50
  90.000
  0
LINE
  8
3
 10
-2.540    
 20
-9.144    
 11
-2.540    
 21
-14.224   
  0
LINE
  8
3
 10
2.540     
 20
-9.144    
 11
2.540     
 21
-14.224   
  0
LINE
  8
3
 10
-2.540    
 20
-12.954   
 11
2.540     
 21
-12.954   
  0
INSERT
  8
1
  2
ARROW
 10
-2.540    
 20
-12.954   
 41
   1.000
 42
   1.000
 43
   1.000
 50
 180.000
  0
INSERT
  8
1
  2
ARROW
 10
2.540     
 20
-12.954   
 41
   1.000
 42
   1.000
 43
   1.000
 50
   0.000
  0
TEXT
  8
3
 7
SIMPLEX
 10
3.488     
 20
-12.006   
 40
    2.845
  1
200
 50
    0.000
  0
LINE
  8
3
 10
7.620     
 20
0.000     
 11
12.700    
 21
0.000     
  0
LINE
  8
3
 10
7.620     
 20
-5.334    
 11
12.700    
 21
-5.334    
  0
LINE
  8
3
 10
11.430    
 20
0.000     
 11
11.430    
 21
-5.334    
  0
INSERT
  8
1
  2
ARROW
 10
11.430    
 20
-5.334    
 41
   1.000
 42
   1.000
 43
   1.000
 50
 270.000
  0
INSERT
  8
1
  2
ARROW
 10
11.430    
 20
0.000     
 41
   1.000
 42
   1.000
 43
   1.000
 50
  90.000
  0
TEXT
  8
3
 7
SIMPLEX
 10
12.378    
 20
-4.386    
 40
    2.845
  1
100
 50
    0.000
  0
LINE
  8
3
 10
-6.350    
 20
-7.620    
 11
-16.510   
 21
-7.620    
  0
INSERT
  8
3
  2
ARROWP
 10
-6.350    
 20
-7.620    
 41
   1.000
 42
   1.000
 43
   1.000
 50
   0.000
  0
TEXT
  8
1
 7
SIMPLEX
 10
-17.780   
 20
-6.858    
 40
    2.845
  1
 GC41-01
 50
    0.000
  0
TEXT
  8
21
 7
SIMPLEX
 10
-17.780   
 20
-11.887   
 40
    2.845
  1
D=22
 50
    0.000
  0
LINE
  8
13
 10
-0.508    
 20
1.270     
 11
-6.350    
 21
1.270     
  0
LINE
  8
13
 10
-6.350    
 20
1.270     
 11
-6.350    
 21
26.670    
  0
LINE
  8
13
 10
-6.350    
 20
26.670    
 11
-0.508    
 21
26.670    
  0
LINE
  8
13
 10
-0.508    
 20
26.670    
 11
-0.508    
 21
1.270     
  0
INSERT
  8
1
  2
CIRCLE
 10
-3.429    
 20
21.590    
 41
   0.060
 42
   0.060
 43
   0.060
 50
   0.000
  0
LINE
  8
3
 10
-3.429    
 20
29.210    
 11
-3.429    
 21
31.750    
  0
LINE
  8
3
 10
-0.508    
 20
29.210    
 11
-0.508    
 21
31.750    
  0
LINE
  8
3
 10
-3.429    
 20
30.988    
 11
-0.508    
 21
30.988    
  0
INSERT
  8
1
  2
ARROW
 10
-3.429    
 20
30.988    
 41
   1.000
 42
   1.000
 43
   1.000
 50
 180.000
  0
INSERT
  8
1
  2
ARROW
 10
-0.508    
 20
30.988    
 41
   1.000
 42
   1.000
 43
   1.000
 50
 360.000
  0
TEXT
  8
3
 7
SIMPLEX
 10
-10.067   
 20
31.936    
 40
    2.845
  1
80
 50
    0.000
  0
LINE
  8
3
 10
7.620     
 20
26.670    
 11
12.700    
 21
26.670    
  0
LINE
  8
3
 10
7.620     
 20
21.590    
 11
12.700    
 21
21.590    
  0
LINE
  8
3
 10
11.430    
 20
26.670    
 11
11.430    
 21
21.590    
  0
INSERT
  8
1
  2
ARROW
 10
11.430    
 20
26.670    
 41
   1.000
 42
   1.000
 43
   1.000
 50
  90.000
  0
INSERT
  8
1
  2
ARROW
 10
11.430    
 20
21.590    
 41
   1.000
 42
   1.000
 43
   1.000
 50
 270.000
  0
TEXT
  8
3
 7
SIMPLEX
 10
12.378    
 20
22.538    
 40
    2.845
  1
80
 50
    0.000
  0
LINE
  8
3
 10
-8.890    
 20
9.737     
 11
-20.269   
 21
9.737     
  0
INSERT
  8
3
  2
ARROWP
 10
-8.890    
 20
9.737     
 41
   1.000
 42
   1.000
 43
   1.000
 50
 360.000
  0
TEXT
  8
1
 7
SIMPLEX
 10
-16.510   
 20
10.499    
 40
    2.845
  1
ST2
 50
    0.000
  0
TEXT
  8
3
 7
SIMPLEX
 10
-13.462   
 20
-4.420    
 40
    2.845
  1
NS
 50
    0.000
  0
TEXT
  8
21
 7
SIMPLEX
 10
-32.360   
 20
-2.997    
 40
    2.845
  1
D=22
 50
    0.000
  0
LINE
  8
13
 10
0.508     
 20
1.270     
 11
6.350     
 21
1.270     
  0
LINE
  8
13
 10
6.350     
 20
1.270     
 11
6.350     
 21
26.670    
  0
LINE
  8
13
 10
6.350     
 20
26.670    
 11
0.508     
 21
26.670    
  0
LINE
  8
13
 10
0.508     
 20
26.670    
 11
0.508     
 21
1.270     
  0
INSERT
  8
1
  2
CIRCLE
 10
3.429     
 20
21.590    
 41
   0.060
 42
   0.060
 43
   0.060
 50
   0.000
  0
LINE
  8
3
 10
3.429     
 20
29.210    
 11
3.429     
 21
31.750    
  0
LINE
  8
3
 10
0.508     
 20
29.210    
 11
0.508     
 21
31.750    
  0
LINE
  8
3
 10
3.429     
 20
30.988    
 11
0.508     
 21
30.988    
  0
INSERT
  8
1
  2
ARROW
 10
3.429     
 20
30.988    
 41
   1.000
 42
   1.000
 43
   1.000
 50
   0.000
  0
INSERT
  8
1
  2
ARROW
 10
0.508     
 20
30.988    
 41
   1.000
 42
   1.000
 43
   1.000
 50
 180.000
  0
TEXT
  8
3
 7
SIMPLEX
 10
4.377     
 20
31.936    
 40
    2.845
  1
80
 50
    0.000
  0
LINE
  8
3
 10
7.620     
 20
26.670    
 11
12.700    
 21
26.670    
  0
LINE
  8
3
 10
7.620     
 20
21.590    
 11
12.700    
 21
21.590    
  0
LINE
  8
3
 10
11.430    
 20
26.670    
 11
11.430    
 21
21.590    
  0
INSERT
  8
1
  2
ARROW
 10
11.430    
 20
26.670    
 41
   1.000
 42
   1.000
 43
   1.000
 50
  90.000
  0
INSERT
  8
1
  2
ARROW
 10
11.430    
 20
21.590    
 41
   1.000
 42
   1.000
 43
   1.000
 50
 270.000
  0
TEXT
  8
3
 7
SIMPLEX
 10
12.378    
 20
22.538    
 40
    2.845
  1
80
 50
    0.000
  0
LINE
  8
3
 10
8.890     
 20
9.737     
 11
20.269    
 21
9.737     
  0
INSERT
  8
3
  2
ARROWP
 10
8.890     
 20
9.737     
 41
   1.000
 42
   1.000
 43
   1.000
 50
 180.000
  0
TEXT
  8
1
 7
SIMPLEX
 10
8.890     
 20
10.499    
 40
    2.845
  1
ST2
 50
    0.000
  0
TEXT
  8
3
 7
SIMPLEX
 10
9.195     
 20
-4.420    
 40
    2.845
  1
FS
 50
    0.000
  0
TEXT
  8
21
 7
SIMPLEX
 10
20.980    
 20
-2.997    
 40
    2.845
  1
D=22
 50
    0.000
  0
ENDBLK
  8
2
  0
BLOCK
  8
2
  2
ASMBOLT
 70
     0
 10
0.000     
 20
0.000     
  0
TEXT
  8
21
 7
SIMPLEX
 10
0.000     
 20
3.810     
 40
    2.540
  1
D=DIAMETER
 50
    0.000
  0
TEXT
  8
21
 7
SIMPLEX
 10
0.000     
 20
0.000     
 40
    2.540
  1
G=GAGE
 50
    0.000
  0
ENDBLK
  8
2
  0
BLOCK
  8
2
  2
ASMVIEW
 70
     0
 10
0.000     
 20
0.000     
  0
LINE
  8
21
 10
0.000     
 20
0.000     
 11
20.320    
 21
0.000     
  0
INSERT
  8
21
  2
ARROWP
 10
0.000     
 20
0.000     
 41
   1.000
 42
   1.000
 43
   1.000
 50
 180.000
  0
TEXT
  8
21
 7
SIMPLEX
 10
0.000     
 20
0.635     
 40
    2.540
  1
View for
 50
    0.000
  0
TEXT
  8
21
 7
SIMPLEX
 10
0.000     
 20
-3.175    
 40
    2.540
  1
Section
 50
    0.000
  0
ENDBLK
  8
2
  0
BLOCK
  8
0
  2
ASM_WELD
 70
     0
 10
0.000     
 20
133.350   
  0
LINE
  8
20
 10
0.000     
 20
133.350   
 11
77.978    
 21
133.350   
  0
LINE
  8
20
 10
0.000     
 20
0.000     
 11
77.978    
 21
0.000     
  0
LINE
  8
20
 10
77.978    
 20
0.000     
 11
77.978    
 21
133.350   
  0
LINE
  8
20
 10
0.000     
 20
0.000     
 11
0.000     
 21
133.350   
  0
TEXT
  8
14
 7
SIMPLEX
 10
0.762     
 20
130.175   
 40
    2.540
  1
WELD TABLE
 50
    0.000
  0
LINE
  8
20
 10
0.000     
 20
129.540   
 11
77.978    
 21
129.540   
  0
LINE
  8
20
 10
22.098    
 20
0.000     
 11
22.098    
 21
129.540   
  0
LINE
  8
20
 10
37.338    
 20
0.000     
 11
37.338    
 21
129.540   
  0
LINE
  8
20
 10
52.578    
 20
0.000     
 11
52.578    
 21
129.540   
  0
LINE
  8
20
 10
67.818    
 20
0.000     
 11
67.818    
 21
129.540   
  0
TEXT
  8
14
 7
SIMPLEX
 10
0.762     
 20
126.365   
 40
    2.540
  1
Plate1
 50
    0.000
  0
TEXT
  8
14
 7
SIMPLEX
 10
22.606    
 20
126.365   
 40
    2.540
  1
Plate2
 50
    0.000
  0
TEXT
  8
14
 7
SIMPLEX
 10
37.846    
 20
126.365   
 40
    2.540
  1
Type
 50
    0.000
  0
TEXT
  8
14
 7
SIMPLEX
 10
53.086    
 20
126.365   
 40
    2.540
  1
Size
 50
    0.000
  0
TEXT
  8
14
 7
SIMPLEX
 10
68.326    
 20
126.365   
 40
    2.540
  1
Side
 50
    0.000
  0
LINE
  8
20
 10
0.000     
 20
125.730   
 11
77.978    
 21
125.730   
  0
TEXT
  8
14
 7
SIMPLEX
 10
0.762     
 20
122.555   
 40
    2.540
  1
WB1
 50
    0.000
  0
TEXT
  8
14
 7
SIMPLEX
 10
23.622    
 20
122.555   
 40
    2.540
  1
OF
 50
    0.000
  0
TEXT
  8
14
 7
SIMPLEX
 10
38.354    
 20
122.555   
 40
    2.540
  1
Fillet
 50
    0.000
  0
TEXT
  8
14
 7
SIMPLEX
 10
53.086    
 20
122.555   
 40
    2.540
  1
4
 50
    0.000
  0
TEXT
  8
14
 7
SIMPLEX
 10
69.342    
 20
122.555   
 40
    2.540
  1
  1
 50
    0.000
  0
TEXT
  8
14
 7
SIMPLEX
 10
0.762     
 20
118.745   
 40
    2.540
  1
WB15
 50
    0.000
  0
TEXT
  8
14
 7
SIMPLEX
 10
23.622    
 20
118.745   
 40
    2.540
  1
OF
 50
    0.000
  0
TEXT
  8
14
 7
SIMPLEX
 10
38.354    
 20
118.745   
 40
    2.540
  1
Fillet
 50
    0.000
  0
TEXT
  8
14
 7
SIMPLEX
 10
53.086    
 20
118.745   
 40
    2.540
  1
4
 50
    0.000
  0
TEXT
  8
14
 7
SIMPLEX
 10
69.342    
 20
118.745   
 40
    2.540
  1
  1
 50
    0.000
  0
TEXT
  8
14
 7
SIMPLEX
 10
0.762     
 20
114.935   
 40
    2.540
  1
WB1
 50
    0.000
  0
TEXT
  8
14
 7
SIMPLEX
 10
23.622    
 20
114.935   
 40
    2.540
  1
IF
 50
    0.000
  0
TEXT
  8
14
 7
SIMPLEX
 10
38.354    
 20
114.935   
 40
    2.540
  1
Fillet
 50
    0.000
  0
TEXT
  8
14
 7
SIMPLEX
 10
53.086    
 20
114.935   
 40
    2.540
  1
4
 50
    0.000
  0
TEXT
  8
14
 7
SIMPLEX
 10
69.342    
 20
114.935   
 40
    2.540
  1
  1
 50
    0.000
  0
TEXT
  8
14
 7
SIMPLEX
 10
0.762     
 20
111.125   
 40
    2.540
  1
WB15
 50
    0.000
  0
TEXT
  8
14
 7
SIMPLEX
 10
23.622    
 20
111.125   
 40
    2.540
  1
IF
 50
    0.000
  0
TEXT
  8
14
 7
SIMPLEX
 10
38.354    
 20
111.125   
 40
    2.540
  1
Fillet
 50
    0.000
  0
TEXT
  8
14
 7
SIMPLEX
 10
53.086    
 20
111.125   
 40
    2.540
  1
4
 50
    0.000
  0
TEXT
  8
14
 7
SIMPLEX
 10
69.342    
 20
111.125   
 40
    2.540
  1
  1
 50
    0.000
  0
TEXT
  8
14
 7
SIMPLEX
 10
0.762     
 20
107.315   
 40
    2.540
  1
EP1
 50
    0.000
  0
TEXT
  8
14
 7
SIMPLEX
 10
23.622    
 20
107.315   
 40
    2.540
  1
OF
 50
    0.000
  0
TEXT
  8
14
 7
SIMPLEX
 10
38.354    
 20
107.315   
 40
    2.540
  1
Fillet
 50
    0.000
  0
TEXT
  8
14
 7
SIMPLEX
 10
53.086    
 20
107.315   
 40
    2.540
  1
4
 50
    0.000
  0
TEXT
  8
14
 7
SIMPLEX
 10
69.342    
 20
107.315   
 40
    2.540
  1
  2
 50
    0.000
  0
TEXT
  8
14
 7
SIMPLEX
 10
0.762     
 20
103.505   
 40
    2.540
  1
EP1
 50
    0.000
  0
TEXT
  8
14
 7
SIMPLEX
 10
23.622    
 20
103.505   
 40
    2.540
  1
IF
 50
    0.000
  0
TEXT
  8
14
 7
SIMPLEX
 10
38.354    
 20
103.505   
 40
    2.540
  1
Fillet
 50
    0.000
  0
TEXT
  8
14
 7
SIMPLEX
 10
53.086    
 20
103.505   
 40
    2.540
  1
4
 50
    0.000
  0
TEXT
  8
14
 7
SIMPLEX
 10
69.342    
 20
103.505   
 40
    2.540
  1
  2
 50
    0.000
  0
TEXT
  8
14
 7
SIMPLEX
 10
0.762     
 20
99.695    
 40
    2.540
  1
EP1
 50
    0.000
  0
TEXT
  8
14
 7
SIMPLEX
 10
23.622    
 20
99.695    
 40
    2.540
  1
WB
 50
    0.000
  0
TEXT
  8
14
 7
SIMPLEX
 10
38.354    
 20
99.695    
 40
    2.540
  1
Fillet
 50
    0.000
  0
TEXT
  8
14
 7
SIMPLEX
 10
53.086    
 20
99.695    
 40
    2.540
  1
4
 50
    0.000
  0
TEXT
  8
14
 7
SIMPLEX
 10
69.342    
 20
99.695    
 40
    2.540
  1
  2
 50
    0.000
  0
TEXT
  8
14
 7
SIMPLEX
 10
0.762     
 20
95.885    
 40
    2.540
  1
EP2
 50
    0.000
  0
TEXT
  8
14
 7
SIMPLEX
 10
23.622    
 20
95.885    
 40
    2.540
  1
OF1
 50
    0.000
  0
TEXT
  8
14
 7
SIMPLEX
 10
38.354    
 20
95.885    
 40
    2.540
  1
Fillet
 50
    0.000
  0
TEXT
  8
14
 7
SIMPLEX
 10
53.086    
 20
95.885    
 40
    2.540
  1
4
 50
    0.000
  0
TEXT
  8
14
 7
SIMPLEX
 10
69.342    
 20
95.885    
 40
    2.540
  1
  2
 50
    0.000
  0
TEXT
  8
14
 7
SIMPLEX
 10
0.762     
 20
92.075    
 40
    2.540
  1
EP2
 50
    0.000
  0
TEXT
  8
14
 7
SIMPLEX
 10
23.622    
 20
92.075    
 40
    2.540
  1
IF2
 50
    0.000
  0
TEXT
  8
14
 7
SIMPLEX
 10
38.354    
 20
92.075    
 40
    2.540
  1
Fillet
 50
    0.000
  0
TEXT
  8
14
 7
SIMPLEX
 10
53.086    
 20
92.075    
 40
    2.540
  1
4
 50
    0.000
  0
TEXT
  8
14
 7
SIMPLEX
 10
69.342    
 20
92.075    
 40
    2.540
  1
  2
 50
    0.000
  0
TEXT
  8
14
 7
SIMPLEX
 10
0.762     
 20
88.265    
 40
    2.540
  1
EP2
 50
    0.000
  0
TEXT
  8
14
 7
SIMPLEX
 10
23.622    
 20
88.265    
 40
    2.540
  1
WB15
 50
    0.000
  0
TEXT
  8
14
 7
SIMPLEX
 10
38.354    
 20
88.265    
 40
    2.540
  1
Fillet
 50
    0.000
  0
TEXT
  8
14
 7
SIMPLEX
 10
53.086    
 20
88.265    
 40
    2.540
  1
4
 50
    0.000
  0
TEXT
  8
14
 7
SIMPLEX
 10
69.342    
 20
88.265    
 40
    2.540
  1
  2
 50
    0.000
  0
TEXT
  8
14
 7
SIMPLEX
 10
0.762     
 20
84.455    
 40
    2.540
  1
WB1
 50
    0.000
  0
TEXT
  8
14
 7
SIMPLEX
 10
23.622    
 20
84.455    
 40
    2.540
  1
WB
 50
    0.000
  0
TEXT
  8
14
 7
SIMPLEX
 10
38.354    
 20
84.455    
 40
    2.540
  1
Butt
 50
    0.000
  0
TEXT
  8
14
 7
SIMPLEX
 10
53.086    
 20
84.455    
 40
    2.540
  1
4
 50
    0.000
  0
TEXT
  8
14
 7
SIMPLEX
 10
69.342    
 20
84.455    
 40
    2.540
  1
  1
 50
    0.000
  0
TEXT
  8
14
 7
SIMPLEX
 10
0.762     
 20
80.645    
 40
    2.540
  1
IF1
 50
    0.000
  0
TEXT
  8
14
 7
SIMPLEX
 10
23.622    
 20
80.645    
 40
    2.540
  1
IF
 50
    0.000
  0
TEXT
  8
14
 7
SIMPLEX
 10
38.354    
 20
80.645    
 40
    2.540
  1
Butt
 50
    0.000
  0
TEXT
  8
14
 7
SIMPLEX
 10
53.086    
 20
80.645    
 40
    2.540
  1
6
 50
    0.000
  0
TEXT
  8
14
 7
SIMPLEX
 10
69.342    
 20
80.645    
 40
    2.540
  1
  1
 50
    0.000
  0
TEXT
  8
14
 7
SIMPLEX
 10
0.762     
 20
76.835    
 40
    2.540
  1
BO1
 50
    0.000
  0
TEXT
  8
14
 7
SIMPLEX
 10
23.622    
 20
76.835    
 40
    2.540
  1
IF
 50
    0.000
  0
TEXT
  8
14
 7
SIMPLEX
 10
38.354    
 20
76.835    
 40
    2.540
  1
Fillet
 50
    0.000
  0
TEXT
  8
14
 7
SIMPLEX
 10
53.086    
 20
76.835    
 40
    2.540
  1
8
 50
    0.000
  0
TEXT
  8
14
 7
SIMPLEX
 10
69.342    
 20
76.835    
 40
    2.540
  1
  2
 50
    0.000
  0
TEXT
  8
14
 7
SIMPLEX
 10
0.762     
 20
73.025    
 40
    2.540
  1
BI1
 50
    0.000
  0
TEXT
  8
14
 7
SIMPLEX
 10
23.622    
 20
73.025    
 40
    2.540
  1
IF
 50
    0.000
  0
TEXT
  8
14
 7
SIMPLEX
 10
38.354    
 20
73.025    
 40
    2.540
  1
Fillet
 50
    0.000
  0
TEXT
  8
14
 7
SIMPLEX
 10
53.086    
 20
73.025    
 40
    2.540
  1
8
 50
    0.000
  0
TEXT
  8
14
 7
SIMPLEX
 10
69.342    
 20
73.025    
 40
    2.540
  1
  2
 50
    0.000
  0
TEXT
  8
14
 7
SIMPLEX
 10
0.762     
 20
69.215    
 40
    2.540
  1
BW1
 50
    0.000
  0
TEXT
  8
14
 7
SIMPLEX
 10
23.622    
 20
69.215    
 40
    2.540
  1
IF
 50
    0.000
  0
TEXT
  8
14
 7
SIMPLEX
 10
38.354    
 20
69.215    
 40
    2.540
  1
Fillet
 50
    0.000
  0
TEXT
  8
14
 7
SIMPLEX
 10
53.086    
 20
69.215    
 40
    2.540
  1
4
 50
    0.000
  0
TEXT
  8
14
 7
SIMPLEX
 10
69.342    
 20
69.215    
 40
    2.540
  1
  2
 50
    0.000
  0
TEXT
  8
14
 7
SIMPLEX
 10
0.762     
 20
65.405    
 40
    2.540
  1
BW1
 50
    0.000
  0
TEXT
  8
14
 7
SIMPLEX
 10
23.622    
 20
65.405    
 40
    2.540
  1
BO
 50
    0.000
  0
TEXT
  8
14
 7
SIMPLEX
 10
38.354    
 20
65.405    
 40
    2.540
  1
Fillet
 50
    0.000
  0
TEXT
  8
14
 7
SIMPLEX
 10
53.086    
 20
65.405    
 40
    2.540
  1
4
 50
    0.000
  0
TEXT
  8
14
 7
SIMPLEX
 10
69.342    
 20
65.405    
 40
    2.540
  1
  1
 50
    0.000
  0
TEXT
  8
14
 7
SIMPLEX
 10
0.762     
 20
61.595    
 40
    2.540
  1
BW1
 50
    0.000
  0
TEXT
  8
14
 7
SIMPLEX
 10
23.622    
 20
61.595    
 40
    2.540
  1
BI
 50
    0.000
  0
TEXT
  8
14
 7
SIMPLEX
 10
38.354    
 20
61.595    
 40
    2.540
  1
Fillet
 50
    0.000
  0
TEXT
  8
14
 7
SIMPLEX
 10
53.086    
 20
61.595    
 40
    2.540
  1
4
 50
    0.000
  0
TEXT
  8
14
 7
SIMPLEX
 10
69.342    
 20
61.595    
 40
    2.540
  1
  1
 50
    0.000
  0
TEXT
  8
14
 7
SIMPLEX
 10
0.762     
 20
57.785    
 40
    2.540
  1
ST1
 50
    0.000
  0
TEXT
  8
14
 7
SIMPLEX
 10
23.622    
 20
57.785    
 40
    2.540
  1
WB
 50
    0.000
  0
TEXT
  8
14
 7
SIMPLEX
 10
38.354    
 20
57.785    
 40
    2.540
  1
Fillet
 50
    0.000
  0
TEXT
  8
14
 7
SIMPLEX
 10
53.086    
 20
57.785    
 40
    2.540
  1
4
 50
    0.000
  0
TEXT
  8
14
 7
SIMPLEX
 10
69.342    
 20
57.785    
 40
    2.540
  1
  2
 50
    0.000
  0
TEXT
  8
14
 7
SIMPLEX
 10
0.762     
 20
53.975    
 40
    2.540
  1
ST1
 50
    0.000
  0
TEXT
  8
14
 7
SIMPLEX
 10
23.622    
 20
53.975    
 40
    2.540
  1
IF
 50
    0.000
  0
TEXT
  8
14
 7
SIMPLEX
 10
38.354    
 20
53.975    
 40
    2.540
  1
Fillet
 50
    0.000
  0
TEXT
  8
14
 7
SIMPLEX
 10
53.086    
 20
53.975    
 40
    2.540
  1
4
 50
    0.000
  0
TEXT
  8
14
 7
SIMPLEX
 10
69.342    
 20
53.975    
 40
    2.540
  1
  2
 50
    0.000
  0
TEXT
  8
14
 7
SIMPLEX
 10
0.762     
 20
50.165    
 40
    2.540
  1
ST2
 50
    0.000
  0
TEXT
  8
14
 7
SIMPLEX
 10
23.622    
 20
50.165    
 40
    2.540
  1
WB
 50
    0.000
  0
TEXT
  8
14
 7
SIMPLEX
 10
38.354    
 20
50.165    
 40
    2.540
  1
Fillet
 50
    0.000
  0
TEXT
  8
14
 7
SIMPLEX
 10
53.086    
 20
50.165    
 40
    2.540
  1
4
 50
    0.000
  0
TEXT
  8
14
 7
SIMPLEX
 10
69.342    
 20
50.165    
 40
    2.540
  1
  2
 50
    0.000
  0
TEXT
  8
14
 7
SIMPLEX
 10
0.762     
 20
46.355    
 40
    2.540
  1
ST2
 50
    0.000
  0
TEXT
  8
14
 7
SIMPLEX
 10
23.622    
 20
46.355    
 40
    2.540
  1
IF
 50
    0.000
  0
TEXT
  8
14
 7
SIMPLEX
 10
38.354    
 20
46.355    
 40
    2.540
  1
Fillet
 50
    0.000
  0
TEXT
  8
14
 7
SIMPLEX
 10
53.086    
 20
46.355    
 40
    2.540
  1
4
 50
    0.000
  0
TEXT
  8
14
 7
SIMPLEX
 10
69.342    
 20
46.355    
 40
    2.540
  1
  2
 50
    0.000
  0
TEXT
  8
14
 7
SIMPLEX
 10
0.762     
 20
42.545    
 40
    2.540
  1
SS2
 50
    0.000
  0
TEXT
  8
14
 7
SIMPLEX
 10
23.622    
 20
42.545    
 40
    2.540
  1
OF
 50
    0.000
  0
TEXT
  8
14
 7
SIMPLEX
 10
38.354    
 20
42.545    
 40
    2.540
  1
Fillet
 50
    0.000
  0
TEXT
  8
14
 7
SIMPLEX
 10
53.086    
 20
42.545    
 40
    2.540
  1
4
 50
    0.000
  0
TEXT
  8
14
 7
SIMPLEX
 10
69.342    
 20
42.545    
 40
    2.540
  1
  2
 50
    0.000
  0
TEXT
  8
14
 7
SIMPLEX
 10
0.762     
 20
38.735    
 40
    2.540
  1
SS2
 50
    0.000
  0
TEXT
  8
14
 7
SIMPLEX
 10
23.622    
 20
38.735    
 40
    2.540
  1
EP
 50
    0.000
  0
TEXT
  8
14
 7
SIMPLEX
 10
38.354    
 20
38.735    
 40
    2.540
  1
Fillet
 50
    0.000
  0
TEXT
  8
14
 7
SIMPLEX
 10
53.086    
 20
38.735    
 40
    2.540
  1
6
 50
    0.000
  0
TEXT
  8
14
 7
SIMPLEX
 10
69.342    
 20
38.735    
 40
    2.540
  1
  2
 50
    0.000
  0
TEXT
  8
14
 7
SIMPLEX
 10
0.762     
 20
34.925    
 40
    2.540
  1
SS3
 50
    0.000
  0
TEXT
  8
14
 7
SIMPLEX
 10
23.622    
 20
34.925    
 40
    2.540
  1
IF
 50
    0.000
  0
TEXT
  8
14
 7
SIMPLEX
 10
38.354    
 20
34.925    
 40
    2.540
  1
Fillet
 50
    0.000
  0
TEXT
  8
14
 7
SIMPLEX
 10
53.086    
 20
34.925    
 40
    2.540
  1
4
 50
    0.000
  0
TEXT
  8
14
 7
SIMPLEX
 10
69.342    
 20
34.925    
 40
    2.540
  1
  2
 50
    0.000
  0
TEXT
  8
14
 7
SIMPLEX
 10
0.762     
 20
31.115    
 40
    2.540
  1
SS3
 50
    0.000
  0
TEXT
  8
14
 7
SIMPLEX
 10
23.622    
 20
31.115    
 40
    2.540
  1
EP
 50
    0.000
  0
TEXT
  8
14
 7
SIMPLEX
 10
38.354    
 20
31.115    
 40
    2.540
  1
Fillet
 50
    0.000
  0
TEXT
  8
14
 7
SIMPLEX
 10
53.086    
 20
31.115    
 40
    2.540
  1
6
 50
    0.000
  0
TEXT
  8
14
 7
SIMPLEX
 10
69.342    
 20
31.115    
 40
    2.540
  1
  2
 50
    0.000
  0
TEXT
  8
14
 7
SIMPLEX
 10
0.762     
 20
27.305    
 40
    2.540
  1
CLF1
 50
    0.000
  0
TEXT
  8
14
 7
SIMPLEX
 10
23.622    
 20
27.305    
 40
    2.540
  1
WB
 50
    0.000
  0
TEXT
  8
14
 7
SIMPLEX
 10
38.354    
 20
27.305    
 40
    2.540
  1
Fillet
 50
    0.000
  0
TEXT
  8
14
 7
SIMPLEX
 10
53.086    
 20
27.305    
 40
    2.540
  1
4
 50
    0.000
  0
TEXT
  8
14
 7
SIMPLEX
 10
69.342    
 20
27.305    
 40
    2.540
  1
  1
 50
    0.000
  0
TEXT
  8
14
 7
SIMPLEX
 10
0.762     
 20
23.495    
 40
    2.540
  1
CLF1
 50
    0.000
  0
TEXT
  8
14
 7
SIMPLEX
 10
23.622    
 20
23.495    
 40
    2.540
  1
IF
 50
    0.000
  0
TEXT
  8
14
 7
SIMPLEX
 10
38.354    
 20
23.495    
 40
    2.540
  1
Fillet
 50
    0.000
  0
TEXT
  8
14
 7
SIMPLEX
 10
53.086    
 20
23.495    
 40
    2.540
  1
4
 50
    0.000
  0
TEXT
  8
14
 7
SIMPLEX
 10
69.342    
 20
23.495    
 40
    2.540
  1
  1
 50
    0.000
  0
TEXT
  8
14
 7
SIMPLEX
 10
0.762     
 20
19.685    
 40
    2.540
  1
CLF2
 50
    0.000
  0
TEXT
  8
14
 7
SIMPLEX
 10
23.622    
 20
19.685    
 40
    2.540
  1
WB
 50
    0.000
  0
TEXT
  8
14
 7
SIMPLEX
 10
38.354    
 20
19.685    
 40
    2.540
  1
Fillet
 50
    0.000
  0
TEXT
  8
14
 7
SIMPLEX
 10
53.086    
 20
19.685    
 40
    2.540
  1
4
 50
    0.000
  0
TEXT
  8
14
 7
SIMPLEX
 10
69.342    
 20
19.685    
 40
    2.540
  1
  1
 50
    0.000
  0
TEXT
  8
14
 7
SIMPLEX
 10
0.762     
 20
15.875    
 40
    2.540
  1
CLF3
 50
    0.000
  0
TEXT
  8
14
 7
SIMPLEX
 10
23.622    
 20
15.875    
 40
    2.540
  1
OF1
 50
    0.000
  0
TEXT
  8
14
 7
SIMPLEX
 10
38.354    
 20
15.875    
 40
    2.540
  1
Fillet
 50
    0.000
  0
TEXT
  8
14
 7
SIMPLEX
 10
53.086    
 20
15.875    
 40
    2.540
  1
4
 50
    0.000
  0
TEXT
  8
14
 7
SIMPLEX
 10
69.342    
 20
15.875    
 40
    2.540
  1
  1
 50
    0.000
  0
TEXT
  8
14
 7
SIMPLEX
 10
0.762     
 20
12.065    
 40
    2.540
  1
 GC41-01
 50
    0.000
  0
TEXT
  8
14
 7
SIMPLEX
 10
23.622    
 20
12.065    
 40
    2.540
  1
IF
 50
    0.000
  0
TEXT
  8
14
 7
SIMPLEX
 10
38.354    
 20
12.065    
 40
    2.540
  1
Fillet
 50
    0.000
  0
TEXT
  8
14
 7
SIMPLEX
 10
53.086    
 20
12.065    
 40
    2.540
  1
4
 50
    0.000
  0
TEXT
  8
14
 7
SIMPLEX
 10
69.342    
 20
12.065    
 40
    2.540
  1
  1
 50
    0.000
  0
TEXT
  8
14
 7
SIMPLEX
 10
0.762     
 20
8.255     
 40
    2.540
  1
SS4
 50
    0.000
  0
TEXT
  8
14
 7
SIMPLEX
 10
23.622    
 20
8.255     
 40
    2.540
  1
EP
 50
    0.000
  0
TEXT
  8
14
 7
SIMPLEX
 10
38.354    
 20
8.255     
 40
    2.540
  1
Fillet
 50
    0.000
  0
TEXT
  8
14
 7
SIMPLEX
 10
53.086    
 20
8.255     
 40
    2.540
  1
4
 50
    0.000
  0
TEXT
  8
14
 7
SIMPLEX
 10
69.342    
 20
8.255     
 40
    2.540
  1
  1
 50
    0.000
  0
TEXT
  8
14
 7
SIMPLEX
 10
0.762     
 20
4.445     
 40
    2.540
  1
SS4
 50
    0.000
  0
TEXT
  8
14
 7
SIMPLEX
 10
23.622    
 20
4.445     
 40
    2.540
  1
OF1
 50
    0.000
  0
TEXT
  8
14
 7
SIMPLEX
 10
38.354    
 20
4.445     
 40
    2.540
  1
Fillet
 50
    0.000
  0
TEXT
  8
14
 7
SIMPLEX
 10
53.086    
 20
4.445     
 40
    2.540
  1
4
 50
    0.000
  0
TEXT
  8
14
 7
SIMPLEX
 10
69.342    
 20
4.445     
 40
    2.540
  1
  1
 50
    0.000
  0
TEXT
  8
14
 7
SIMPLEX
 10
0.762     
 20
0.635     
 40
    2.540
  1
SS4
 50
    0.000
  0
TEXT
  8
14
 7
SIMPLEX
 10
23.622    
 20
0.635     
 40
    2.540
  1
IF
 50
    0.000
  0
TEXT
  8
14
 7
SIMPLEX
 10
38.354    
 20
0.635     
 40
    2.540
  1
Fillet
 50
    0.000
  0
TEXT
  8
14
 7
SIMPLEX
 10
53.086    
 20
0.635     
 40
    2.540
  1
4
 50
    0.000
  0
TEXT
  8
14
 7
SIMPLEX
 10
69.342    
 20
0.635     
 40
    2.540
  1
  1
 50
    0.000
  0
ENDBLK
  8
0
999
START:   BLOCK=ARROWD
  0
BLOCK
  8
2
  2
ARROWD
 70
     0
 10
    0.000
 20
    0.000
  0
LINE
  8
2
 10
   -0.635
 20
   -0.635
 11
    0.635
 21
    0.635
  0
ENDBLK
  8
2
999
END:     BLOCK=ARROWD
999
START:   BLOCK=GC-1
999
BLOCK_SIZE:   BLOCK=GC-1     Width= 50.8000 Height= 50.8000
  0
BLOCK
  8
2
  2
GC-1
 70
     0
 10
    0.000
 20
    0.000
  0
LINE
  8
1
 10
    0.000
 20
    0.000
 11
   50.800
 21
    0.000
  0
LINE
  8
1
 10
   50.800
 20
    0.000
 11
   50.800
 21
   50.800
  0
LINE
  8
1
 10
   50.800
 20
   50.800
 11
    0.000
 21
   50.800
  0
LINE
  8
1
 10
    0.000
 20
   50.800
 11
    0.000
 21
    0.000
  0
LINE
  8
13
 10
   33.020
 20
   36.830
 11
   12.700
 21
   36.830
  0
LINE
  8
13
 10
   33.020
 20
   36.830
 11
   33.020
 21
   19.050
  0
LINE
  8
13
 10
   12.700
 20
   36.830
 11
   12.700
 21
   19.050
  0
LINE
  8
13
 10
   33.020
 20
   19.050
 11
   12.700
 21
   19.050
  0
CIRCLE
  8
6
 10
    16.087
 20
    34.662
 40
     0.508
  0
CIRCLE
  8
6
 10
    29.633
 20
    34.662
 40
     0.508
  0
LINE
  8
2
 10
   36.068
 20
   36.830
 11
   37.592
 21
   36.830
  0
INSERT
  8
2
  2
ARROWD
 10
   36.830
 20
   36.830
 41
   1.000
 42
   1.000
 43
   1.000
 50
  90.000
  0
LINE
  8
2
 10
   36.068
 20
   34.662
 11
   37.592
 21
   34.662
  0
INSERT
  8
2
  2
ARROWD
 10
   36.830
 20
   34.662
 41
   1.000
 42
   1.000
 43
   1.000
 50
 -90.000
  0
LINE
  8
2
 10
   36.830
 20
   36.830
 11
   36.830
 21
   34.662
  0
TEXT
  8
11
 7
SIMPLEX
 10
   37.793
 20
   34.782
 40
    1.927
  1
25
 50
    0.000
  0
CIRCLE
  8
6
 10
    16.087
 20
    25.989
 40
     0.508
  0
CIRCLE
  8
6
 10
    29.633
 20
    25.989
 40
     0.508
  0
LINE
  8
2
 10
   36.068
 20
   34.662
 11
   37.592
 21
   34.662
  0
INSERT
  8
2
  2
ARROWD
 10
   36.830
 20
   34.662
 41
   1.000
 42
   1.000
 43
   1.000
 50
  90.000
  0
LINE
  8
2
 10
   36.068
 20
   25.989
 11
   37.592
 21
   25.989
  0
INSERT
  8
2
  2
ARROWD
 10
   36.830
 20
   25.989
 41
   1.000
 42
   1.000
 43
   1.000
 50
 -90.000
  0
LINE
  8
2
 10
   36.830
 20
   34.662
 11
   36.830
 21
   25.989
  0
TEXT
  8
11
 7
SIMPLEX
 10
   37.793
 20
   29.362
 40
    1.927
  1
100
 50
    0.000
  0
INSERT
  8
2
  2
ARROWD
 10
   36.830
 20
   25.989
 41
   1.000
 42
   1.000
 43
   1.000
 50
 -90.000
  0
LINE
  8
2
 10
   36.068
 20
   19.050
 11
   37.592
 21
   19.050
  0
INSERT
  8
2
  2
ARROWD
 10
   36.830
 20
   19.050
 41
   1.000
 42
   1.000
 43
   1.000
 50
 -90.000
  0
LINE
  8
2
 10
   36.830
 20
   25.989
 11
   36.830
 21
   19.050
  0
TEXT
  8
11
 7
SIMPLEX
 10
   37.793
 20
   21.556
 40
    1.927
  1
80
 50
    0.000
  0
LINE
  8
2
 10
   12.700
 20
   38.608
 11
   12.700
 21
   40.132
  0
INSERT
  8
2
  2
ARROWD
 10
   12.700
 20
   39.370
 41
   1.000
 42
   1.000
 43
   1.000
 50
 180.000
  0
LINE
  8
2
 10
   16.087
 20
   38.608
 11
   16.087
 21
   40.132
  0
INSERT
  8
2
  2
ARROWD
 10
   16.087
 20
   39.370
 41
   1.000
 42
   1.000
 43
   1.000
 50
   0.000
  0
LINE
  8
2
 10
   12.700
 20
   39.370
 11
   16.087
 21
   39.370
  0
TEXT
  8
11
 7
SIMPLEX
 10
   13.430
 20
   40.333
 40
    1.927
  1
25
 50
    0.000
  0
INSERT
  8
2
  2
ARROWD
 10
   16.087
 20
   39.370
 41
   1.000
 42
   1.000
 43
   1.000
 50
 180.000
  0
LINE
  8
2
 10
   16.087
 20
   38.608
 11
   16.087
 21
   40.132
  0
INSERT
  8
2
  2
ARROWD
 10
   29.633
 20
   39.370
 41
   1.000
 42
   1.000
 43
   1.000
 50
   0.000
  0
LINE
  8
2
 10
   29.633
 20
   39.370
 11
   16.087
 21
   39.370
  0
TEXT
  8
11
 7
SIMPLEX
 10
   21.897
 20
   40.333
 40
    1.927
  1
100
 50
    0.000
  0
LINE
  8
2
 10
   29.633
 20
   39.370
 11
   33.020
 21
   39.370
  0
LINE
  8
2
 10
   29.633
 20
   38.608
 11
   29.633
 21
   40.132
  0
INSERT
  8
2
  2
ARROWD
 10
   29.633
 20
   39.370
 41
   1.000
 42
   1.000
 43
   1.000
 50
 180.000
  0
INSERT
  8
2
  2
ARROWD
 10
   33.020
 20
   39.370
 41
   1.000
 42
   1.000
 43
   1.000
 50
   0.000
  0
LINE
  8
2
 10
   33.020
 20
   38.608
 11
   33.020
 21
   40.132
  0
TEXT
  8
11
 7
SIMPLEX
 10
   30.363
 20
   40.333
 40
    1.927
  1
25
 50
    0.000
  0
LINE
  8
3
 10
   10.160
 20
   18.796
 11
   35.560
 21
   18.796
  0
LINE
  8
3
 10
   10.160
 20
   17.272
 11
   35.560
 21
   17.272
  0
LINE
  8
3
 10
   10.160
 20
   17.272
 11
   10.160
 21
   18.796
  0
LINE
  8
3
 10
   35.560
 20
   17.272
 11
   35.560
 21
   18.796
  0
LINE
  8
3
 10
   22.098
 20
   14.732
 11
   22.098
 21
   17.272
  0
LINE
  8
3
 10
   23.622
 20
   13.462
 11
   23.622
 21
   17.272
  0
TEXT
  8
21
 7
SIMPLEX
 10
    0.963
 20
   45.019
 40
    1.927
  1
D= 14
 50
    0.000
  0
TEXT
  8
2
 7
SIMPLEX
 10
    0.963
 20
   47.910
 40
    1.927
  1
CLF3
 50
    0.000
  0
TEXT
  8
2
 7
SIMPLEX
 10
    0.963
 20
    0.963
 40
    1.927
  1
5 x 150 x 205
 50
    0.000
  0
ENDBLK
  8
2
999
END:     BLOCK=GC-1
999
START:   BLOCK=GC-51
999
BLOCK_SIZE:   BLOCK=GC-51    Width= 50.8000 Height= 50.8000
  0
BLOCK
  8
2
  2
GC-51
 70
     0
 10
    0.000
 20
    0.000
  0
LINE
  8
1
 10
    0.000
 20
    0.000
 11
   50.800
 21
    0.000
  0
LINE
  8
1
 10
   50.800
 20
    0.000
 11
   50.800
 21
   50.800
  0
LINE
  8
1
 10
   50.800
 20
   50.800
 11
    0.000
 21
   50.800
  0
LINE
  8
1
 10
    0.000
 20
   50.800
 11
    0.000
 21
    0.000
  0
LINE
  8
13
 10
   33.020
 20
   36.830
 11
   12.700
 21
   36.830
  0
LINE
  8
13
 10
   33.020
 20
   36.830
 11
   33.020
 21
   19.050
  0
LINE
  8
13
 10
   12.700
 20
   36.830
 11
   12.700
 21
   19.050
  0
LINE
  8
13
 10
   33.020
 20
   19.050
 11
   12.700
 21
   19.050
  0
CIRCLE
  8
6
 10
    16.087
 20
    24.977
 40
     0.508
  0
CIRCLE
  8
6
 10
    29.633
 20
    24.977
 40
     0.508
  0
LINE
  8
2
 10
   36.068
 20
   36.830
 11
   37.592
 21
   36.830
  0
INSERT
  8
2
  2
ARROWD
 10
   36.830
 20
   36.830
 41
   1.000
 42
   1.000
 43
   1.000
 50
  90.000
  0
LINE
  8
2
 10
   36.068
 20
   24.977
 11
   37.592
 21
   24.977
  0
INSERT
  8
2
  2
ARROWD
 10
   36.830
 20
   24.977
 41
   1.000
 42
   1.000
 43
   1.000
 50
 -90.000
  0
LINE
  8
2
 10
   36.830
 20
   36.830
 11
   36.830
 21
   24.977
  0
TEXT
  8
11
 7
SIMPLEX
 10
   37.793
 20
   29.940
 40
    1.927
  1
100
 50
    0.000
  0
INSERT
  8
2
  2
ARROWD
 10
   36.830
 20
   24.977
 41
   1.000
 42
   1.000
 43
   1.000
 50
 -90.000
  0
LINE
  8
2
 10
   36.068
 20
   19.050
 11
   37.592
 21
   19.050
  0
INSERT
  8
2
  2
ARROWD
 10
   36.830
 20
   19.050
 41
   1.000
 42
   1.000
 43
   1.000
 50
 -90.000
  0
LINE
  8
2
 10
   36.830
 20
   24.977
 11
   36.830
 21
   19.050
  0
TEXT
  8
11
 7
SIMPLEX
 10
   37.793
 20
   21.050
 40
    1.927
  1
50
 50
    0.000
  0
LINE
  8
2
 10
   12.700
 20
   17.272
 11
   12.700
 21
   15.748
  0
INSERT
  8
2
  2
ARROWD
 10
   12.700
 20
   16.510
 41
   1.000
 42
   1.000
 43
   1.000
 50
 180.000
  0
LINE
  8
2
 10
   16.087
 20
   17.272
 11
   16.087
 21
   15.748
  0
INSERT
  8
2
  2
ARROWD
 10
   16.087
 20
   16.510
 41
   1.000
 42
   1.000
 43
   1.000
 50
   0.000
  0
LINE
  8
2
 10
   12.700
 20
   16.510
 11
   16.087
 21
   16.510
  0
TEXT
  8
11
 7
SIMPLEX
 10
   13.430
 20
   13.620
 40
    1.927
  1
50
 50
    0.000
  0
INSERT
  8
2
  2
ARROWD
 10
   16.087
 20
   16.510
 41
   1.000
 42
   1.000
 43
   1.000
 50
 180.000
  0
LINE
  8
2
 10
   16.087
 20
   17.272
 11
   16.087
 21
   15.748
  0
INSERT
  8
2
  2
ARROWD
 10
   29.633
 20
   16.510
 41
   1.000
 42
   1.000
 43
   1.000
 50
   0.000
  0
LINE
  8
2
 10
   29.633
 20
   16.510
 11
   16.087
 21
   16.510
  0
TEXT
  8
11
 7
SIMPLEX
 10
   21.897
 20
   13.620
 40
    1.927
  1
200
 50
    0.000
  0
LINE
  8
2
 10
   29.633
 20
   16.510
 11
   33.020
 21
   16.510
  0
LINE
  8
2
 10
   29.633
 20
   17.272
 11
   29.633
 21
   15.748
  0
INSERT
  8
2
  2
ARROWD
 10
   29.633
 20
   16.510
 41
   1.000
 42
   1.000
 43
   1.000
 50
 180.000
  0
INSERT
  8
2
  2
ARROWD
 10
   33.020
 20
   16.510
 41
   1.000
 42
   1.000
 43
   1.000
 50
   0.000
  0
LINE
  8
2
 10
   33.020
 20
   17.272
 11
   33.020
 21
   15.748
  0
TEXT
  8
11
 7
SIMPLEX
 10
   30.363
 20
   13.620
 40
    1.927
  1
50
 50
    0.000
  0
LINE
  8
3
 10
   10.160
 20
   37.084
 11
   35.560
 21
   37.084
  0
LINE
  8
3
 10
   10.160
 20
   38.608
 11
   35.560
 21
   38.608
  0
LINE
  8
3
 10
   10.160
 20
   38.608
 11
   10.160
 21
   37.084
  0
LINE
  8
3
 10
   35.560
 20
   38.608
 11
   35.560
 21
   37.084
  0
LINE
  8
3
 10
   22.098
 20
   41.148
 11
   22.098
 21
   38.608
  0
LINE
  8
3
 10
   23.622
 20
   42.418
 11
   23.622
 21
   38.608
  0
TEXT
  8
21
 7
SIMPLEX
 10
    0.963
 20
   45.019
 40
    1.927
  1
D= 22
 50
    0.000
  0
TEXT
  8
2
 7
SIMPLEX
 10
    0.963
 20
   47.910
 40
    1.927
  1
GC41-01
 50
    0.000
  0
TEXT
  8
2
 7
SIMPLEX
 10
    0.963
 20
    0.963
 40
    1.927
  1
8 x 300 x 150
 50
    0.000
  0
ENDBLK
  8
2
999
END:     BLOCK=GC-51
  0
ENDSEC
  0
SECTION
  2
ENTITIES
  0
LINE
  8
22
 10
0.000     
 20
0.000     
 11
841.000   
 21
0.000     
  0
LINE
  8
22
 10
841.000   
 20
0.000     
 11
841.000   
 21
594.000   
  0
LINE
  8
22
 10
841.000   
 20
594.000   
 11
0.000     
 21
594.000   
  0
LINE
  8
22
 10
0.000     
 20
594.000   
 11
0.000     
 21
0.000     
  0
INSERT
  8
0
  2
ASMPIECE
 10
43.000    
 20
292.000   
 41
   0.093
 42
   0.093
 43
   0.093
 50
   0.000
  0
INSERT
  8
0
  2
ASMBASE
 10
0.000     
 20
519.000   
 41
   2.953
 42
   2.953
 43
   2.953
 50
   0.000
  0
INSERT
  8
0
  2
ASMPLATE
 10
0.000     
 20
0.000     
 41
   1.000
 42
   1.000
 43
   1.000
 50
   0.000
  0
INSERT
  8
0
  2
ASMTITLE
 10
703.840   
 20
0.000     
 41
   1.500
 42
   1.500
 43
   1.500
 50
   0.000
  0
INSERT
  8
0
  2
ASMSECTN
 10
225.000   
 20
430.000   
 41
   1.240
 42
   1.240
 43
   1.240
 50
   0.000
  0
INSERT
  8
0
  2
ASMSECT2
 10
390.020   
 20
19.050    
 41
   0.900
 42
   0.900
 43
   0.900
 50
   0.000
  0
INSERT
  8
0
  2
ASMBOLT
 10
385.000   
 20
40.000    
 41
   0.984
 42
   0.984
 43
   0.984
 50
   0.000
  0
INSERT
  8
0
  2
ASMVIEW
 10
225.000   
 20
385.000   
 41
   0.984
 42
   0.984
 43
   0.984
 50
   0.000
  0
INSERT
  8
0
  2
ASM_WELD
 10
764.269   
 20
594.000   
 41
   0.984
 42
   0.984
 43
   0.984
 50
   0.000
  0
INSERT
  8
0
  2
GC-1
 10
221.457   
 20
519.000   
 41
   1.476
 42
   1.476
 43
   1.476
 50
   0.000
  0
INSERT
  8
0
  2
GC-51
 10
296.457   
 20
519.000   
 41
   1.476
 42
   1.476
 43
   1.476
 50
   0.000
  0
ENDSEC
  0
EOF
