999
SOURCE:MBS   PROGRAM:ANDWG   CELL:ANDWG-1   CLASS:PLAN   MODE:---
  0
SECTION
  2
HEADER
  9
$ACADVER
  1
AC1009
  9
$EXTMIN
 10
 0.00     
 20
 0.00     
  9
$EXTMAX
 10
 56585.512
 20
 40014.043
  9
$LIMMIN
 10
 0.00     
 20
 0.00     
  9
$LIMMAX
 10
 56585.512
 20
 40014.043
  9
$FILLMODE
 70
     1
  9
$HANDLING
 70
     0
  0
ENDSEC
  0
SECTION
  2
TABLES
  0
TABLE
  2
LTYPE
 70
1
  0
LTYPE
  2
CONTIN
 70
    64
  3
SOLID LINE
 72
    65
 73
     0
 40
0.0
  0
LTYPE
  2
CONTINUOUS
 70
    64
  3
SOLID LINE
 72
    65
 73
     0
 40
0.0
  0
LTYPE
  2
CENTER
 70
    64
  3
____ _ ____ _ ____ _ ____ _ ____ _ ____ _ ____
 72
    65
 73
     4
 40
   684.415
 49
   427.760
 49
   -85.552
 49
    85.552
 49
   -85.552
  0
LTYPE
  2
DASHED
 70
    64
  3
__ __ __ __ __ __ __ __ __ __ __ __ __ __ __ 
 72
    65
 73
     2
 40
  641.639
 49
  427.760
 49
 -213.880
  0
ENDTAB
  0
TABLE
  2
LAYER
 70
50
  0
LAYER
  2
0
 70
     0
 62
     7
  6
CONTIN
  0
LAYER
  2
1
 70
     0
 62
     7
  6
CONTIN
  0
LAYER
  2
2
 70
     0
 62
     6
  6
CONTIN
  0
LAYER
  2
3
 70
     0
 62
     7
  6
CONTIN
  0
LAYER
  2
4
 70
     0
 62
     7
  6
CENTER
  0
LAYER
  2
5
 70
     0
 62
     5
  6
DASHED
  0
LAYER
  2
6
 70
     0
 62
     6
  6
CONTIN
  0
LAYER
  2
7
 70
     0
 62
     7
  6
CONTIN
  0
LAYER
  2
8
 70
     0
 62
     8
  6
CENTER
  0
LAYER
  2
9
 70
     0
 62
     9
  6
DASHED
  0
LAYER
  2
10
 70
     0
 62
    10
  6
CONTIN
  0
LAYER
  2
11
 70
     0
 62
     7
  6
CONTIN
  0
LAYER
  2
12
 70
     0
 62
     6
  6
CONTIN
  0
LAYER
  2
13
 70
     0
 62
     1
  6
CONTIN
  0
LAYER
  2
14
 70
     0
 62
     7
  6
CONTIN
  0
LAYER
  2
15
 70
     0
 62
     7
  6
CONTIN
  0
LAYER
  2
16
 70
     0
 62
     7
  6
CONTIN
  0
LAYER
  2
17
 70
     0
 62
     5
  6
CONTIN
  0
LAYER
  2
18
 70
     0
 62
     7
  6
CONTIN
  0
LAYER
  2
19
 70
     0
 62
     7
  6
CONTIN
  0
LAYER
  2
20
 70
     0
 62
     7
  6
CONTIN
  0
LAYER
  2
21
 70
     0
 62
     7
  6
CONTIN
  0
LAYER
  2
22
 70
     0
 62
     7
  6
CONTIN
  0
LAYER
  2
23
 70
     0
 62
     7
  6
DASHED
  0
LAYER
  2
24
 70
     0
 62
     7
  6
CONTIN
  0
LAYER
  2
25
 70
     0
 62
     7
  6
CONTIN
  0
LAYER
  2
26
 70
     0
 62
     7
  6
CONTIN
  0
LAYER
  2
27
 70
     0
 62
     1
  6
CENTER
  0
LAYER
  2
28
 70
     0
 62
     7
  6
CONTIN
  0
LAYER
  2
29
 70
     0
 62
     7
  6
CONTIN
  0
LAYER
  2
30
 70
     0
 62
     7
  6
CONTIN
  0
LAYER
  2
31
 70
     0
 62
     7
  6
CONTIN
  0
LAYER
  2
32
 70
     0
 62
     7
  6
CONTIN
  0
LAYER
  2
33
 70
     0
 62
     7
  6
CONTIN
  0
LAYER
  2
34
 70
     0
 62
     7
  6
CONTIN
  0
LAYER
  2
35
 70
     0
 62
     7
  6
CONTIN
  0
LAYER
  2
36
 70
     0
 62
     7
  6
CONTIN
  0
LAYER
  2
37
 70
     0
 62
     7
  6
CONTIN
  0
LAYER
  2
38
 70
     0
 62
     7
  6
CONTIN
  0
LAYER
  2
39
 70
     0
 62
     7
  6
CONTIN
  0
LAYER
  2
40
 70
     0
 62
     7
  6
CONTIN
  0
LAYER
  2
41
 70
     0
 62
     7
  6
CONTIN
  0
LAYER
  2
42
 70
     0
 62
     7
  6
CONTIN
  0
LAYER
  2
43
 70
     0
 62
     7
  6
CONTIN
  0
LAYER
  2
44
 70
     0
 62
     7
  6
CONTIN
  0
LAYER
  2
45
 70
     0
 62
     7
  6
CONTIN
  0
LAYER
  2
46
 70
     0
 62
     7
  6
CONTIN
  0
LAYER
  2
47
 70
     0
 62
     7
  6
CONTIN
  0
LAYER
  2
48
 70
     0
 62
     7
  6
CONTIN
  0
LAYER
  2
49
 70
     0
 62
     7
  6
CONTIN
  0
ENDTAB
  0
TABLE
  2
STYLE
 70
  0
  0
STYLE
  2
SIMPLEX
 70
  0
 40
  0.000
 41
  1.000
 42
  1.000
 50
  0.000
 71
  0
  3
SIMPLEX
  0
STYLE
  2
ROMANS
 70
  0
 40
  0.000
 41
  1.000
 42
  1.000
 50
  0.000
 71
  0
  3
ROMANS
  0
STYLE
  2
OPEN
 70
  0
 40
  0.000
 41
  1.000
 42
  1.000
 50
  0.000
 71
  0
  3
SIMPLEX
  0
STYLE
  2
ARIAL
 70
  0
 40
  0.000
 41
  1.000
 42
  1.000
 50
  0.000
 71
  0
  3
ARIAL.TTF
  0
STYLE
  2
VERDANAB
 70
  0
 40
  0.000
 41
  1.000
 42
  1.000
 50
  0.000
 71
  0
  3
VERDANAB.TTF
  0
ENDTAB
  0
ENDSEC
  0
SECTION
  2
BLOCKS
  0
BLOCK
  8
2
  2
ARROW
 70
     0
 10
 0.00     
 20
 0.00     
  0
LINE
  8
2
 10
 0.00     
 20
 0.00     
 11
  -367.018
 21
   -61.170
  0
LINE
  8
2
 10
 0.00     
 20
 0.00     
 11
  -367.018
 21
    61.170
  0
LINE
  8
2
 10
  -367.018
 20
    61.170
 11
  -367.018
 21
   -61.170
  0
LINE
  8
2
 10
 0.00     
 20
 0.00     
 11
  -513.825
 21
 0.00     
  0
ENDBLK
  8
2
  0
BLOCK
  8
2
  2
ARROWP
 70
     0
 10
 0.00     
 20
 0.00     
  0
LINE
  8
2
 10
 0.00     
 20
 0.00     
 11
  -244.678
 21
   -40.780
  0
LINE
  8
2
 10
 0.00     
 20
 0.00     
 11
  -244.678
 21
    40.780
  0
LINE
  8
2
 10
  -244.678
 20
    40.780
 11
  -244.678
 21
   -40.780
  0
ENDBLK
  8
2
  0
BLOCK
  8
2
  2
ARROWA
 70
     0
 10
 0.00     
 20
 0.00     
  0
LINE
  8
3
 10
   244.678
 20
 0.00     
 11
 0.00     
 21
   -40.780
  0
LINE
  8
3
 10
   244.678
 20
 0.00     
 11
 0.00     
 21
    40.780
  0
LINE
  8
3
 10
 0.00     
 20
    40.780
 11
 0.00     
 21
   -40.780
  0
ENDBLK
  8
2
  0
BLOCK
  8
0
  2
ARROWB
 70
     0
 10
 0.00     
 20
 0.00     
  0
LINE
  8
0
 10
 0.00     
 20
 0.00     
 11
   -25.400
 21
    -4.233
  0
LINE
  8
0
 10
 0.00     
 20
 0.00     
 11
   -25.400
 21
     4.233
  0
LINE
  8
0
 10
   -25.400
 20
     4.233
 11
   -25.400
 21
    -4.233
  0
LINE
  8
0
 10
 0.00     
 20
 0.00     
 11
   -43.180
 21
 0.00     
  0
ENDBLK
  8
0
  0
BLOCK
  8
2
  2
TICK
 70
     0
 10
 0.00     
 20
 0.00     
  0
LINE
  8
2
 10
   -47.054
 20
   -47.054
 11
    47.054
 21
    47.054
  0
ENDBLK
  8
2
  0
BLOCK
  8
0
  2
CIRCLE
 70
     0
 10
 0.00     
 20
 0.00     
  0
CIRCLE
  8
1
 10
    0.000
 20
    0.000
 40
   25.400
  0
ENDBLK
  8
3
  0
BLOCK
  8
1
  2
BRACE
 70
     0
 10
 0.00     
 20
 0.00     
  0
LINE
  8
1
 10
   -12.700
 20
   -12.700
 11
   -12.700
 21
    12.700
  0
LINE
  8
1
 10
   -12.700
 20
    12.700
 11
    12.700
 21
    12.700
  0
LINE
  8
1
 10
    12.700
 20
    12.700
 11
    12.700
 21
   -12.700
  0
LINE
  8
1
 10
    12.700
 20
   -12.700
 11
   -12.700
 21
   -12.700
  0
ENDBLK
  8
1
  0
BLOCK
  8
0
  2
WCOL
 70
     0
 10
 0.00     
 20
 0.00     
  0
LINE
  8
0
 10
  -225.857
 20
   440.421
 11
   225.857
 21
   440.421
  0
LINE
  8
0
 10
 0.00     
 20
   440.421
 11
 0.00     
 21
 0.00     
  0
LINE
  8
0
 10
  -225.857
 20
 0.00     
 11
   225.857
 21
 0.00     
  0
ENDBLK
  8
0
  0
BLOCK
  8
0
  2
WCOL2
 70
     0
 10
 0.00     
 20
 0.00     
  0
LINE
  8
0
 10
  -225.857
 20
 0.00     
 11
   225.857
 21
 0.00     
  0
LINE
  8
0
 10
 0.00     
 20
   440.421
 11
 0.00     
 21
 0.00     
  0
ENDBLK
  8
0
  0
BLOCK
  8
0
  2
PCOL
 70
     0
 10
 0.00     
 20
 0.00     
  0
CIRCLE
  8
0
 10
 0.00     
 20
 0.00     
 40
   150.571
  0
ENDBLK
  8
0
  0
BLOCK
  8
0
  2
ZCOL
 70
     0
 10
 0.00     
 20
 0.00     
  0
LINE
  8
0
 10
   225.857
 20
   402.778
 11
   225.857
 21
   440.421
  0
LINE
  8
0
 10
   225.857
 20
   440.421
 11
 0.00     
 21
   440.421
  0
LINE
  8
0
 10
 0.00     
 20
   440.421
 11
 0.00     
 21
 0.00     
  0
LINE
  8
0
 10
 0.00     
 20
 0.00     
 11
  -225.857
 21
 0.00     
  0
LINE
  8
0
 10
  -225.857
 20
 0.00     
 11
  -225.857
 21
    37.643
  0
ENDBLK
  8
0
  0
BLOCK
  8
0
  2
TCOL
 70
     0
 10
 0.00     
 20
 0.00     
  0
LINE
  8
0
 10
  -131.750
 20
  -131.750
 11
   131.750
 21
  -131.750
  0
LINE
  8
0
 10
   131.750
 20
  -131.750
 11
   131.750
 21
   131.750
  0
LINE
  8
0
 10
   131.750
 20
   131.750
 11
  -131.750
 21
   131.750
  0
LINE
  8
0
 10
  -131.750
 20
   131.750
 11
  -131.750
 21
  -131.750
  0
ENDBLK
  8
0
  0
BLOCK
  8
0
  2
TCOL2
 70
     0
 10
 0.00     
 20
 0.00     
  0
LINE
  8
0
 10
  -169.393
 20
 0.00     
 11
   169.393
 21
 0.00     
  0
LINE
  8
0
 10
   169.393
 20
 0.00     
 11
   169.393
 21
   440.421
  0
LINE
  8
0
 10
   169.393
 20
   440.421
 11
  -169.393
 21
   440.421
  0
LINE
  8
0
 10
  -169.393
 20
   440.421
 11
  -169.393
 21
 0.00     
  0
ENDBLK
  8
0
  0
BLOCK
  8
0
  2
SCCOL
 70
     0
 10
 0.00     
 20
 0.00     
  0
LINE
  8
0
 10
   225.857
 20
   402.778
 11
   225.857
 21
   440.421
  0
LINE
  8
0
 10
   225.857
 20
   440.421
 11
 0.00     
 21
   440.421
  0
LINE
  8
0
 10
 0.00     
 20
   440.421
 11
 0.00     
 21
 0.00     
  0
LINE
  8
0
 10
 0.00     
 20
 0.00     
 11
   225.857
 21
 0.00     
  0
LINE
  8
0
 10
   225.857
 20
 0.00     
 11
   225.857
 21
    37.643
  0
ENDBLK
  8
0
  0
BLOCK
  8
0
  2
GCOL
 70
     0
 10
 0.00     
 20
 0.00     
  0
LINE
  8
0
 10
   338.786
 20
   214.564
 11
   301.143
 21
   214.564
  0
LINE
  8
0
 10
   338.786
 20
   440.421
 11
   338.786
 21
   214.564
  0
LINE
  8
0
 10
   338.786
 20
   440.421
 11
 0.00     
 21
   440.421
  0
LINE
  8
0
 10
 0.00     
 20
   440.421
 11
 0.00     
 21
 0.00     
  0
LINE
  8
0
 10
 0.00     
 20
 0.00     
 11
   225.857
 21
 0.00     
  0
LINE
  8
0
 10
   225.857
 20
 0.00     
 11
   225.857
 21
    37.643
  0
ENDBLK
  8
0
  0
BLOCK
  8
0
  2
UCOL
 70
     0
 10
 0.00     
 20
 0.00     
  0
LINE
  8
0
 10
   225.857
 20
   440.421
 11
 0.00     
 21
   440.421
  0
LINE
  8
0
 10
 0.00     
 20
   440.421
 11
 0.00     
 21
 0.00     
  0
LINE
  8
0
 10
 0.00     
 20
 0.00     
 11
   225.857
 21
 0.00     
  0
ENDBLK
  8
0
  0
BLOCK
  8
0
  2
DCCOL
 70
     0
 10
 0.00     
 20
 0.00     
  0
INSERT
  8
0
  2
SCCOL
 10
 0.00     
 20
 0.00     
 41
     1.000
 42
     1.000
 43
     1.000
 50
    0.000
  0
INSERT
  8
0
  2
SCCOL
 10
 0.00     
 20
 0.00     
 41
    -1.000
 42
     1.000
 43
     1.000
 50
    0.000
  0
ENDBLK
  8
0
  0
BLOCK
  8
0
  2
XCOL
 70
     0
 10
 0.00     
 20
 0.00     
  0
LINE
  8
0
 10
  -225.857
 20
   440.421
 11
   225.857
 21
   440.421
  0
LINE
  8
0
 10
  -225.857
 20
   440.421
 11
  -225.857
 21
 0.00     
  0
LINE
  8
0
 10
   225.857
 20
   440.421
 11
   225.857
 21
 0.00     
  0
LINE
  8
0
 10
  -225.857
 20
 0.00     
 11
   225.857
 21
 0.00     
  0
ENDBLK
  8
0
  0
BLOCK
  8
1
  2
BOLT_0
 70
     0
 10
 0.00     
 20
 0.00     
  0
CIRCLE
  8
1
 10
 0.00     
 20
 0.00     
 40
    25.400
  0
ENDBLK
  8
1
  0
BLOCK
  8
1
  2
BOLT_1
 70
     0
 10
 0.00     
 20
 0.00     
  0
CIRCLE
  8
1
 10
 0.00     
 20
 0.00     
 40
    25.400
  0
ENDBLK
  8
1
  0
BLOCK
  8
1
  2
BOLT_2
 70
     0
 10
 0.00     
 20
 0.00     
  0
CIRCLE
  8
1
 10
 0.00     
 20
 0.00     
 40
    25.400
  0
LINE
  8
1
 10
    25.400
 20
    25.400
 11
   -25.400
 21
   -25.400
  0
LINE
  8
1
 10
   -25.400
 20
    25.400
 11
    25.400
 21
   -25.400
  0
ENDBLK
  8
1
  0
BLOCK
  8
1
  2
BOLT_3
 70
     0
 10
 0.00     
 20
 0.00     
  0
CIRCLE
  8
1
 10
 0.00     
 20
 0.00     
 40
    25.400
  0
LINE
  8
1
 10
    31.750
 20
 0.00     
 11
   -31.750
 21
 0.00     
  0
LINE
  8
1
 10
 0.00     
 20
    25.400
 11
 0.00     
 21
   -25.400
  0
ENDBLK
  8
1
  0
BLOCK
  8
1
  2
BOLT_4
 70
     0
 10
 0.00     
 20
 0.00     
  0
LINE
  8
1
 10
    25.400
 20
    25.400
 11
   -25.400
 21
   -25.400
  0
LINE
  8
1
 10
   -25.400
 20
    25.400
 11
    25.400
 21
   -25.400
  0
ENDBLK
  8
1
  0
BLOCK
  8
1
  2
BOLT_5
 70
     0
 10
 0.00     
 20
 0.00     
  0
LINE
  8
1
 10
    31.750
 20
 0.00     
 11
   -31.750
 21
 0.00     
  0
LINE
  8
1
 10
 0.00     
 20
    25.400
 11
 0.00     
 21
   -25.400
  0
ENDBLK
  8
1
  0
BLOCK
  8
1
  2
BOLT_6
 70
     0
 10
 0.00     
 20
 0.00     
  0
CIRCLE
  8
1
 10
 0.00     
 20
 0.00     
 40
    25.400
  0
LINE
  8
1
 10
    31.750
 20
 0.00     
 11
   -31.750
 21
 0.00     
  0
LINE
  8
1
 10
 0.00     
 20
    31.750
 11
 0.00     
 21
 0.00     
  0
ENDBLK
  8
1
  0
BLOCK
  8
1
  2
BOLT_7
 70
     0
 10
 0.00     
 20
 0.00     
  0
CIRCLE
  8
1
 10
 0.00     
 20
 0.00     
 40
    25.400
  0
LINE
  8
1
 10
    25.400
 20
    25.400
 11
 0.00     
 21
 0.00     
  0
LINE
  8
1
 10
   -25.400
 20
    25.400
 11
 0.00     
 21
 0.00     
  0
ENDBLK
  8
1
  0
BLOCK
  8
9
  2
HILIGHT
 70
     0
 10
 0.00     
 20
 0.00     
  0
LINE
  8
9
 10
  -414.071
 20
  -188.214
 11
   414.071
 21
  -188.214
  0
LINE
  8
9
 10
  -414.071
 20
   628.635
 11
   414.071
 21
   628.635
  0
LINE
  8
9
 10
  -414.071
 20
  -188.214
 11
  -414.071
 21
   628.635
  0
LINE
  8
9
 10
   414.071
 20
  -188.214
 11
   414.071
 21
   628.635
  0
ENDBLK
  8
9
  0
BLOCK
  8
9
  2
HILIGHT2
 70
     0
 10
 0.00     
 20
 0.00     
  0
LINE
  8
9
 10
  -414.071
 20
  -282.321
 11
   414.071
 21
  -282.321
  0
LINE
  8
9
 10
  -414.071
 20
   722.743
 11
   414.071
 21
   722.743
  0
LINE
  8
9
 10
  -414.071
 20
  -282.321
 11
  -414.071
 21
   722.743
  0
LINE
  8
9
 10
   414.071
 20
  -282.321
 11
   414.071
 21
   722.743
  0
ENDBLK
  8
9
  0
BLOCK
  8
0
  2
ANCHOR
 70
     0
 10
 0.00     
 20
 0.00     
  0
LINE
  8
0
 10
 0.00     
 20
 12200.000
 11
 0.00     
 21
 0.00     
  0
LINE
  8
0
 10
 45730.000
 20
 0.00     
 11
 45730.000
 21
 12200.000
  0
LINE
  8
0
 10
 0.00     
 20
 0.00     
 11
 45730.000
 21
 0.00     
  0
LINE
  8
0
 10
 45730.000
 20
 12200.000
 11
 0.00     
 21
 12200.000
  0
INSERT
  8
10
  2
WCOL
 10
   230.000
 20
  6100.000
 41
0.27672372
 42
0.81739920
 43
0.81739920
 50
  -90.000
  0
LINE
  8
10
 10
   615.000
 20
  6200.000
 11
   215.000
 21
  6200.000
  0
LINE
  8
10
 10
   215.000
 20
  6200.000
 11
   215.000
 21
  6000.000
  0
LINE
  8
10
 10
   215.000
 20
  6000.000
 11
   615.000
 21
  6000.000
  0
LINE
  8
10
 10
   615.000
 20
  6000.000
 11
   615.000
 21
  6200.000
  0
TEXT
  8
16
 7
SIMPLEX
 10
   707.634
 20
  6158.817
 40
  235.268
  1
A
 50
    0.000
  0
CIRCLE
  8
16
 10
   801.741
 20
  6276.451
 40
   164.687
  0
TEXT
  8
16
 7
SIMPLEX
 10
   989.955
 20
  6005.893
 40
  188.214
  1
Dia=
 50
    0.000
  0
TEXT
  8
11
 7
SIMPLEX
 10
  1742.812
 20
  6005.893
 40
  188.214
  1
20
 50
    0.000
  0
INSERT
  8
10
  2
BOLT_0
 10
   365.000
 20
  6050.000
 41
0.39370080
 42
0.39370080
 43
0.39370080
 50
    0.000
  0
INSERT
  8
10
  2
BOLT_0
 10
   465.000
 20
  6050.000
 41
0.39370080
 42
0.39370080
 43
0.39370080
 50
    0.000
  0
INSERT
  8
10
  2
BOLT_0
 10
   365.000
 20
  6150.000
 41
0.39370080
 42
0.39370080
 43
0.39370080
 50
    0.000
  0
INSERT
  8
10
  2
BOLT_0
 10
   465.000
 20
  6150.000
 41
0.39370080
 42
0.39370080
 43
0.39370080
 50
    0.000
  0
INSERT
  8
10
  2
WCOL
 10
 45499.996
 20
  6100.000
 41
0.27672372
 42
0.81739920
 43
0.81739920
 50
   90.000
  0
LINE
  8
10
 10
 45114.996
 20
  6000.000
 11
 45514.996
 21
  6000.000
  0
LINE
  8
10
 10
 45514.996
 20
  6000.000
 11
 45514.996
 21
  6200.000
  0
LINE
  8
10
 10
 45514.996
 20
  6200.000
 11
 45114.996
 21
  6200.000
  0
LINE
  8
10
 10
 45114.996
 20
  6200.000
 11
 45114.996
 21
  6000.000
  0
TEXT
  8
16
 7
SIMPLEX
 10
 44787.098
 20
  6041.183
 40
  235.268
  1
A
 50
    0.000
  0
CIRCLE
  8
16
 10
 44881.199
 20
  6158.817
 40
   164.687
  0
TEXT
  8
16
 7
SIMPLEX
 10
 43526.059
 20
  6005.893
 40
  188.214
  1
Dia=
 50
    0.000
  0
TEXT
  8
11
 7
SIMPLEX
 10
 44278.910
 20
  6005.893
 40
  188.214
  1
20
 50
    0.000
  0
INSERT
  8
10
  2
BOLT_0
 10
 45364.996
 20
  6150.000
 41
0.39370080
 42
0.39370080
 43
0.39370080
 50
    0.000
  0
INSERT
  8
10
  2
BOLT_0
 10
 45264.996
 20
  6150.000
 41
0.39370080
 42
0.39370080
 43
0.39370080
 50
    0.000
  0
INSERT
  8
10
  2
BOLT_0
 10
 45364.996
 20
  6050.000
 41
0.39370080
 42
0.39370080
 43
0.39370080
 50
    0.000
  0
INSERT
  8
10
  2
BOLT_0
 10
 45264.996
 20
  6050.000
 41
0.39370080
 42
0.39370080
 43
0.39370080
 50
    0.000
  0
INSERT
  8
10
  2
WCOL
 10
   415.000
 20
   230.000
 41
0.33206844
 42
0.93319744
 43
0.93319744
 50
    0.000
  0
LINE
  8
10
 10
   315.000
 20
   788.000
 11
   315.000
 21
    82.500
  0
LINE
  8
10
 10
   315.000
 20
    82.500
 11
   515.000
 21
    82.500
  0
LINE
  8
10
 10
   515.000
 20
    82.500
 11
   515.000
 21
   788.000
  0
LINE
  8
10
 10
   515.000
 20
   788.000
 11
   315.000
 21
   788.000
  0
TEXT
  8
16
 7
SIMPLEX
 10
   415.000
 20
   719.423
 40
  235.268
  1
B
 50
    0.000
  0
CIRCLE
  8
16
 10
   509.107
 20
   837.056
 40
   164.687
  0
TEXT
  8
16
 7
SIMPLEX
 10
   509.107
 20
  1189.958
 40
  188.214
  1
Dia=
 50
   90.000
  0
TEXT
  8
11
 7
SIMPLEX
 10
   509.107
 20
  1942.815
 40
  188.214
  1
24
 50
   90.000
  0
INSERT
  8
10
  2
BOLT_0
 10
   465.000
 20
   157.500
 41
0.47244096
 42
0.47244096
 43
0.47244096
 50
    0.000
  0
INSERT
  8
10
  2
BOLT_0
 10
   465.000
 20
   307.500
 41
0.47244096
 42
0.47244096
 43
0.47244096
 50
    0.000
  0
INSERT
  8
10
  2
BOLT_0
 10
   465.000
 20
   563.000
 41
0.47244096
 42
0.47244096
 43
0.47244096
 50
    0.000
  0
INSERT
  8
10
  2
BOLT_0
 10
   465.000
 20
   713.000
 41
0.47244096
 42
0.47244096
 43
0.47244096
 50
    0.000
  0
INSERT
  8
10
  2
BOLT_0
 10
   365.000
 20
   157.500
 41
0.47244096
 42
0.47244096
 43
0.47244096
 50
    0.000
  0
INSERT
  8
10
  2
BOLT_0
 10
   365.000
 20
   307.500
 41
0.47244096
 42
0.47244096
 43
0.47244096
 50
    0.000
  0
INSERT
  8
10
  2
BOLT_0
 10
   365.000
 20
   563.000
 41
0.47244096
 42
0.47244096
 43
0.47244096
 50
    0.000
  0
INSERT
  8
10
  2
BOLT_0
 10
   365.000
 20
   713.000
 41
0.47244096
 42
0.47244096
 43
0.47244096
 50
    0.000
  0
INSERT
  8
10
  2
WCOL
 10
  7805.000
 20
   230.000
 41
0.33206844
 42
0.93319744
 43
0.93319744
 50
    0.000
  0
LINE
  8
10
 10
  7705.000
 20
   788.000
 11
  7705.000
 21
    82.500
  0
LINE
  8
10
 10
  7705.000
 20
    82.500
 11
  7905.000
 21
    82.500
  0
LINE
  8
10
 10
  7905.000
 20
    82.500
 11
  7905.000
 21
   788.000
  0
LINE
  8
10
 10
  7905.000
 20
   788.000
 11
  7705.000
 21
   788.000
  0
TEXT
  8
16
 7
SIMPLEX
 10
  7863.817
 20
   719.423
 40
  235.268
  1
C
 50
    0.000
  0
CIRCLE
  8
16
 10
  7957.924
 20
   837.056
 40
   164.687
  0
TEXT
  8
16
 7
SIMPLEX
 10
  7899.107
 20
  1189.958
 40
  188.214
  1
Dia=
 50
   90.000
  0
TEXT
  8
11
 7
SIMPLEX
 10
  7899.107
 20
  1942.815
 40
  188.214
  1
24
 50
   90.000
  0
INSERT
  8
10
  2
BOLT_0
 10
  7855.000
 20
   157.500
 41
0.47244096
 42
0.47244096
 43
0.47244096
 50
    0.000
  0
INSERT
  8
10
  2
BOLT_0
 10
  7855.000
 20
   307.500
 41
0.47244096
 42
0.47244096
 43
0.47244096
 50
    0.000
  0
INSERT
  8
10
  2
BOLT_0
 10
  7855.000
 20
   563.000
 41
0.47244096
 42
0.47244096
 43
0.47244096
 50
    0.000
  0
INSERT
  8
10
  2
BOLT_0
 10
  7855.000
 20
   713.000
 41
0.47244096
 42
0.47244096
 43
0.47244096
 50
    0.000
  0
INSERT
  8
10
  2
BOLT_0
 10
  7755.000
 20
   157.500
 41
0.47244096
 42
0.47244096
 43
0.47244096
 50
    0.000
  0
INSERT
  8
10
  2
BOLT_0
 10
  7755.000
 20
   307.500
 41
0.47244096
 42
0.47244096
 43
0.47244096
 50
    0.000
  0
INSERT
  8
10
  2
BOLT_0
 10
  7755.000
 20
   563.000
 41
0.47244096
 42
0.47244096
 43
0.47244096
 50
    0.000
  0
INSERT
  8
10
  2
BOLT_0
 10
  7755.000
 20
   713.000
 41
0.47244096
 42
0.47244096
 43
0.47244096
 50
    0.000
  0
INSERT
  8
10
  2
WCOL
 10
 15335.000
 20
   230.000
 41
0.33206844
 42
0.93319744
 43
0.93319744
 50
    0.000
  0
LINE
  8
10
 10
 15235.000
 20
   788.000
 11
 15235.000
 21
    82.500
  0
LINE
  8
10
 10
 15235.000
 20
    82.500
 11
 15435.000
 21
    82.500
  0
LINE
  8
10
 10
 15435.000
 20
    82.500
 11
 15435.000
 21
   788.000
  0
LINE
  8
10
 10
 15435.000
 20
   788.000
 11
 15235.000
 21
   788.000
  0
TEXT
  8
16
 7
SIMPLEX
 10
 15393.818
 20
   719.423
 40
  235.268
  1
C
 50
    0.000
  0
CIRCLE
  8
16
 10
 15487.926
 20
   837.056
 40
   164.687
  0
TEXT
  8
16
 7
SIMPLEX
 10
 15429.107
 20
  1189.958
 40
  188.214
  1
Dia=
 50
   90.000
  0
TEXT
  8
11
 7
SIMPLEX
 10
 15429.107
 20
  1942.815
 40
  188.214
  1
24
 50
   90.000
  0
INSERT
  8
10
  2
BOLT_0
 10
 15385.000
 20
   157.500
 41
0.47244096
 42
0.47244096
 43
0.47244096
 50
    0.000
  0
INSERT
  8
10
  2
BOLT_0
 10
 15385.000
 20
   307.500
 41
0.47244096
 42
0.47244096
 43
0.47244096
 50
    0.000
  0
INSERT
  8
10
  2
BOLT_0
 10
 15385.000
 20
   563.000
 41
0.47244096
 42
0.47244096
 43
0.47244096
 50
    0.000
  0
INSERT
  8
10
  2
BOLT_0
 10
 15385.000
 20
   713.000
 41
0.47244096
 42
0.47244096
 43
0.47244096
 50
    0.000
  0
INSERT
  8
10
  2
BOLT_0
 10
 15285.000
 20
   157.500
 41
0.47244096
 42
0.47244096
 43
0.47244096
 50
    0.000
  0
INSERT
  8
10
  2
BOLT_0
 10
 15285.000
 20
   307.500
 41
0.47244096
 42
0.47244096
 43
0.47244096
 50
    0.000
  0
INSERT
  8
10
  2
BOLT_0
 10
 15285.000
 20
   563.000
 41
0.47244096
 42
0.47244096
 43
0.47244096
 50
    0.000
  0
INSERT
  8
10
  2
BOLT_0
 10
 15285.000
 20
   713.000
 41
0.47244096
 42
0.47244096
 43
0.47244096
 50
    0.000
  0
INSERT
  8
10
  2
WCOL
 10
 22865.000
 20
   230.000
 41
0.33206844
 42
0.93319744
 43
0.93319744
 50
    0.000
  0
LINE
  8
10
 10
 22765.000
 20
   788.000
 11
 22765.000
 21
    82.500
  0
LINE
  8
10
 10
 22765.000
 20
    82.500
 11
 22965.002
 21
    82.500
  0
LINE
  8
10
 10
 22965.002
 20
    82.500
 11
 22965.002
 21
   788.000
  0
LINE
  8
10
 10
 22965.002
 20
   788.000
 11
 22765.000
 21
   788.000
  0
TEXT
  8
16
 7
SIMPLEX
 10
 22923.818
 20
   719.423
 40
  235.268
  1
C
 50
    0.000
  0
CIRCLE
  8
16
 10
 23017.926
 20
   837.056
 40
   164.687
  0
TEXT
  8
16
 7
SIMPLEX
 10
 22959.107
 20
  1189.958
 40
  188.214
  1
Dia=
 50
   90.000
  0
TEXT
  8
11
 7
SIMPLEX
 10
 22959.107
 20
  1942.815
 40
  188.214
  1
24
 50
   90.000
  0
INSERT
  8
10
  2
BOLT_0
 10
 22915.000
 20
   157.500
 41
0.47244096
 42
0.47244096
 43
0.47244096
 50
    0.000
  0
INSERT
  8
10
  2
BOLT_0
 10
 22915.000
 20
   307.500
 41
0.47244096
 42
0.47244096
 43
0.47244096
 50
    0.000
  0
INSERT
  8
10
  2
BOLT_0
 10
 22915.000
 20
   563.000
 41
0.47244096
 42
0.47244096
 43
0.47244096
 50
    0.000
  0
INSERT
  8
10
  2
BOLT_0
 10
 22915.000
 20
   713.000
 41
0.47244096
 42
0.47244096
 43
0.47244096
 50
    0.000
  0
INSERT
  8
10
  2
BOLT_0
 10
 22815.000
 20
   157.500
 41
0.47244096
 42
0.47244096
 43
0.47244096
 50
    0.000
  0
INSERT
  8
10
  2
BOLT_0
 10
 22815.000
 20
   307.500
 41
0.47244096
 42
0.47244096
 43
0.47244096
 50
    0.000
  0
INSERT
  8
10
  2
BOLT_0
 10
 22815.000
 20
   563.000
 41
0.47244096
 42
0.47244096
 43
0.47244096
 50
    0.000
  0
INSERT
  8
10
  2
BOLT_0
 10
 22815.000
 20
   713.000
 41
0.47244096
 42
0.47244096
 43
0.47244096
 50
    0.000
  0
INSERT
  8
10
  2
WCOL
 10
 30395.000
 20
   230.000
 41
0.33206844
 42
0.93319744
 43
0.93319744
 50
    0.000
  0
LINE
  8
10
 10
 30295.000
 20
   788.000
 11
 30295.000
 21
    82.500
  0
LINE
  8
10
 10
 30295.000
 20
    82.500
 11
 30495.000
 21
    82.500
  0
LINE
  8
10
 10
 30495.000
 20
    82.500
 11
 30495.000
 21
   788.000
  0
LINE
  8
10
 10
 30495.000
 20
   788.000
 11
 30295.000
 21
   788.000
  0
TEXT
  8
16
 7
SIMPLEX
 10
 30453.818
 20
   719.423
 40
  235.268
  1
C
 50
    0.000
  0
CIRCLE
  8
16
 10
 30547.924
 20
   837.056
 40
   164.687
  0
TEXT
  8
16
 7
SIMPLEX
 10
 30489.104
 20
  1189.958
 40
  188.214
  1
Dia=
 50
   90.000
  0
TEXT
  8
11
 7
SIMPLEX
 10
 30489.104
 20
  1942.815
 40
  188.214
  1
24
 50
   90.000
  0
INSERT
  8
10
  2
BOLT_0
 10
 30445.000
 20
   157.500
 41
0.47244096
 42
0.47244096
 43
0.47244096
 50
    0.000
  0
INSERT
  8
10
  2
BOLT_0
 10
 30445.000
 20
   307.500
 41
0.47244096
 42
0.47244096
 43
0.47244096
 50
    0.000
  0
INSERT
  8
10
  2
BOLT_0
 10
 30445.000
 20
   563.000
 41
0.47244096
 42
0.47244096
 43
0.47244096
 50
    0.000
  0
INSERT
  8
10
  2
BOLT_0
 10
 30445.000
 20
   713.000
 41
0.47244096
 42
0.47244096
 43
0.47244096
 50
    0.000
  0
INSERT
  8
10
  2
BOLT_0
 10
 30345.000
 20
   157.500
 41
0.47244096
 42
0.47244096
 43
0.47244096
 50
    0.000
  0
INSERT
  8
10
  2
BOLT_0
 10
 30345.000
 20
   307.500
 41
0.47244096
 42
0.47244096
 43
0.47244096
 50
    0.000
  0
INSERT
  8
10
  2
BOLT_0
 10
 30345.000
 20
   563.000
 41
0.47244096
 42
0.47244096
 43
0.47244096
 50
    0.000
  0
INSERT
  8
10
  2
BOLT_0
 10
 30345.000
 20
   713.000
 41
0.47244096
 42
0.47244096
 43
0.47244096
 50
    0.000
  0
INSERT
  8
10
  2
WCOL
 10
 37925.000
 20
   230.000
 41
0.33206844
 42
0.93319744
 43
0.93319744
 50
    0.000
  0
LINE
  8
10
 10
 37825.000
 20
   788.000
 11
 37825.000
 21
    82.500
  0
LINE
  8
10
 10
 37825.000
 20
    82.500
 11
 38025.000
 21
    82.500
  0
LINE
  8
10
 10
 38025.000
 20
    82.500
 11
 38025.000
 21
   788.000
  0
LINE
  8
10
 10
 38025.000
 20
   788.000
 11
 37825.000
 21
   788.000
  0
TEXT
  8
16
 7
SIMPLEX
 10
 37983.816
 20
   719.423
 40
  235.268
  1
C
 50
    0.000
  0
CIRCLE
  8
16
 10
 38077.922
 20
   837.056
 40
   164.687
  0
TEXT
  8
16
 7
SIMPLEX
 10
 38019.105
 20
  1189.958
 40
  188.214
  1
Dia=
 50
   90.000
  0
TEXT
  8
11
 7
SIMPLEX
 10
 38019.105
 20
  1942.815
 40
  188.214
  1
24
 50
   90.000
  0
INSERT
  8
10
  2
BOLT_0
 10
 37975.000
 20
   157.500
 41
0.47244096
 42
0.47244096
 43
0.47244096
 50
    0.000
  0
INSERT
  8
10
  2
BOLT_0
 10
 37975.000
 20
   307.500
 41
0.47244096
 42
0.47244096
 43
0.47244096
 50
    0.000
  0
INSERT
  8
10
  2
BOLT_0
 10
 37975.000
 20
   563.000
 41
0.47244096
 42
0.47244096
 43
0.47244096
 50
    0.000
  0
INSERT
  8
10
  2
BOLT_0
 10
 37975.000
 20
   713.000
 41
0.47244096
 42
0.47244096
 43
0.47244096
 50
    0.000
  0
INSERT
  8
10
  2
BOLT_0
 10
 37875.000
 20
   157.500
 41
0.47244096
 42
0.47244096
 43
0.47244096
 50
    0.000
  0
INSERT
  8
10
  2
BOLT_0
 10
 37875.000
 20
   307.500
 41
0.47244096
 42
0.47244096
 43
0.47244096
 50
    0.000
  0
INSERT
  8
10
  2
BOLT_0
 10
 37875.000
 20
   563.000
 41
0.47244096
 42
0.47244096
 43
0.47244096
 50
    0.000
  0
INSERT
  8
10
  2
BOLT_0
 10
 37875.000
 20
   713.000
 41
0.47244096
 42
0.47244096
 43
0.47244096
 50
    0.000
  0
INSERT
  8
10
  2
WCOL
 10
 45314.996
 20
   230.000
 41
0.33206844
 42
0.93319744
 43
0.93319744
 50
    0.000
  0
LINE
  8
10
 10
 45214.996
 20
   788.000
 11
 45214.996
 21
    82.500
  0
LINE
  8
10
 10
 45214.996
 20
    82.500
 11
 45414.996
 21
    82.500
  0
LINE
  8
10
 10
 45414.996
 20
    82.500
 11
 45414.996
 21
   788.000
  0
LINE
  8
10
 10
 45414.996
 20
   788.000
 11
 45214.996
 21
   788.000
  0
TEXT
  8
16
 7
SIMPLEX
 10
 45079.727
 20
   719.423
 40
  235.268
  1
B
 50
    0.000
  0
CIRCLE
  8
16
 10
 45173.836
 20
   837.056
 40
   164.687
  0
TEXT
  8
16
 7
SIMPLEX
 10
 45409.105
 20
  1189.958
 40
  188.214
  1
Dia=
 50
   90.000
  0
TEXT
  8
11
 7
SIMPLEX
 10
 45409.105
 20
  1942.815
 40
  188.214
  1
24
 50
   90.000
  0
INSERT
  8
10
  2
BOLT_0
 10
 45364.996
 20
   157.500
 41
0.47244096
 42
0.47244096
 43
0.47244096
 50
    0.000
  0
INSERT
  8
10
  2
BOLT_0
 10
 45364.996
 20
   307.500
 41
0.47244096
 42
0.47244096
 43
0.47244096
 50
    0.000
  0
INSERT
  8
10
  2
BOLT_0
 10
 45364.996
 20
   563.000
 41
0.47244096
 42
0.47244096
 43
0.47244096
 50
    0.000
  0
INSERT
  8
10
  2
BOLT_0
 10
 45364.996
 20
   713.000
 41
0.47244096
 42
0.47244096
 43
0.47244096
 50
    0.000
  0
INSERT
  8
10
  2
BOLT_0
 10
 45264.996
 20
   157.500
 41
0.47244096
 42
0.47244096
 43
0.47244096
 50
    0.000
  0
INSERT
  8
10
  2
BOLT_0
 10
 45264.996
 20
   307.500
 41
0.47244096
 42
0.47244096
 43
0.47244096
 50
    0.000
  0
INSERT
  8
10
  2
BOLT_0
 10
 45264.996
 20
   563.000
 41
0.47244096
 42
0.47244096
 43
0.47244096
 50
    0.000
  0
INSERT
  8
10
  2
BOLT_0
 10
 45264.996
 20
   713.000
 41
0.47244096
 42
0.47244096
 43
0.47244096
 50
    0.000
  0
INSERT
  8
10
  2
WCOL
 10
   415.000
 20
 11970.000
 41
0.33206844
 42
0.93319744
 43
0.93319744
 50
  180.000
  0
LINE
  8
10
 10
   515.000
 20
 11412.000
 11
   515.000
 21
 12117.501
  0
LINE
  8
10
 10
   515.000
 20
 12117.501
 11
   315.000
 21
 12117.501
  0
LINE
  8
10
 10
   315.000
 20
 12117.501
 11
   315.000
 21
 11412.000
  0
LINE
  8
10
 10
   315.000
 20
 11412.000
 11
   515.000
 21
 11412.000
  0
TEXT
  8
16
 7
SIMPLEX
 10
   415.000
 20
 11253.152
 40
  235.268
  1
B
 50
    0.000
  0
CIRCLE
  8
16
 10
   509.107
 20
 11370.786
 40
   164.687
  0
TEXT
  8
16
 7
SIMPLEX
 10
   509.107
 20
  9898.011
 40
  188.214
  1
Dia=
 50
   90.000
  0
TEXT
  8
11
 7
SIMPLEX
 10
   509.107
 20
 10650.867
 40
  188.214
  1
24
 50
   90.000
  0
INSERT
  8
10
  2
BOLT_0
 10
   365.000
 20
 12042.500
 41
0.47244096
 42
0.47244096
 43
0.47244096
 50
    0.000
  0
INSERT
  8
10
  2
BOLT_0
 10
   365.000
 20
 11892.500
 41
0.47244096
 42
0.47244096
 43
0.47244096
 50
    0.000
  0
INSERT
  8
10
  2
BOLT_0
 10
   365.000
 20
 11637.000
 41
0.47244096
 42
0.47244096
 43
0.47244096
 50
    0.000
  0
INSERT
  8
10
  2
BOLT_0
 10
   365.000
 20
 11487.000
 41
0.47244096
 42
0.47244096
 43
0.47244096
 50
    0.000
  0
INSERT
  8
10
  2
BOLT_0
 10
   465.000
 20
 12042.500
 41
0.47244096
 42
0.47244096
 43
0.47244096
 50
    0.000
  0
INSERT
  8
10
  2
BOLT_0
 10
   465.000
 20
 11892.500
 41
0.47244096
 42
0.47244096
 43
0.47244096
 50
    0.000
  0
INSERT
  8
10
  2
BOLT_0
 10
   465.000
 20
 11637.000
 41
0.47244096
 42
0.47244096
 43
0.47244096
 50
    0.000
  0
INSERT
  8
10
  2
BOLT_0
 10
   465.000
 20
 11487.000
 41
0.47244096
 42
0.47244096
 43
0.47244096
 50
    0.000
  0
INSERT
  8
10
  2
WCOL
 10
  7805.000
 20
 11970.000
 41
0.33206844
 42
0.93319744
 43
0.93319744
 50
  180.000
  0
LINE
  8
10
 10
  7905.000
 20
 11412.000
 11
  7905.000
 21
 12117.501
  0
LINE
  8
10
 10
  7905.000
 20
 12117.501
 11
  7705.000
 21
 12117.501
  0
LINE
  8
10
 10
  7705.000
 20
 12117.501
 11
  7705.000
 21
 11412.000
  0
LINE
  8
10
 10
  7705.000
 20
 11412.000
 11
  7905.000
 21
 11412.000
  0
TEXT
  8
16
 7
SIMPLEX
 10
  7863.817
 20
 11253.152
 40
  235.268
  1
C
 50
    0.000
  0
CIRCLE
  8
16
 10
  7957.924
 20
 11370.786
 40
   164.687
  0
TEXT
  8
16
 7
SIMPLEX
 10
  7899.107
 20
  9898.011
 40
  188.214
  1
Dia=
 50
   90.000
  0
TEXT
  8
11
 7
SIMPLEX
 10
  7899.107
 20
 10650.867
 40
  188.214
  1
24
 50
   90.000
  0
INSERT
  8
10
  2
BOLT_0
 10
  7755.000
 20
 12042.500
 41
0.47244096
 42
0.47244096
 43
0.47244096
 50
    0.000
  0
INSERT
  8
10
  2
BOLT_0
 10
  7755.000
 20
 11892.500
 41
0.47244096
 42
0.47244096
 43
0.47244096
 50
    0.000
  0
INSERT
  8
10
  2
BOLT_0
 10
  7755.000
 20
 11637.000
 41
0.47244096
 42
0.47244096
 43
0.47244096
 50
    0.000
  0
INSERT
  8
10
  2
BOLT_0
 10
  7755.000
 20
 11487.000
 41
0.47244096
 42
0.47244096
 43
0.47244096
 50
    0.000
  0
INSERT
  8
10
  2
BOLT_0
 10
  7855.000
 20
 12042.500
 41
0.47244096
 42
0.47244096
 43
0.47244096
 50
    0.000
  0
INSERT
  8
10
  2
BOLT_0
 10
  7855.000
 20
 11892.500
 41
0.47244096
 42
0.47244096
 43
0.47244096
 50
    0.000
  0
INSERT
  8
10
  2
BOLT_0
 10
  7855.000
 20
 11637.000
 41
0.47244096
 42
0.47244096
 43
0.47244096
 50
    0.000
  0
INSERT
  8
10
  2
BOLT_0
 10
  7855.000
 20
 11487.000
 41
0.47244096
 42
0.47244096
 43
0.47244096
 50
    0.000
  0
INSERT
  8
10
  2
WCOL
 10
 15335.000
 20
 11970.000
 41
0.33206844
 42
0.93319744
 43
0.93319744
 50
  180.000
  0
LINE
  8
10
 10
 15435.000
 20
 11412.000
 11
 15435.000
 21
 12117.501
  0
LINE
  8
10
 10
 15435.000
 20
 12117.501
 11
 15235.000
 21
 12117.501
  0
LINE
  8
10
 10
 15235.000
 20
 12117.501
 11
 15235.000
 21
 11412.000
  0
LINE
  8
10
 10
 15235.000
 20
 11412.000
 11
 15435.000
 21
 11412.000
  0
TEXT
  8
16
 7
SIMPLEX
 10
 15393.818
 20
 11253.152
 40
  235.268
  1
C
 50
    0.000
  0
CIRCLE
  8
16
 10
 15487.926
 20
 11370.786
 40
   164.687
  0
TEXT
  8
16
 7
SIMPLEX
 10
 15429.107
 20
  9898.011
 40
  188.214
  1
Dia=
 50
   90.000
  0
TEXT
  8
11
 7
SIMPLEX
 10
 15429.107
 20
 10650.867
 40
  188.214
  1
24
 50
   90.000
  0
INSERT
  8
10
  2
BOLT_0
 10
 15285.000
 20
 12042.500
 41
0.47244096
 42
0.47244096
 43
0.47244096
 50
    0.000
  0
INSERT
  8
10
  2
BOLT_0
 10
 15285.000
 20
 11892.500
 41
0.47244096
 42
0.47244096
 43
0.47244096
 50
    0.000
  0
INSERT
  8
10
  2
BOLT_0
 10
 15285.000
 20
 11637.000
 41
0.47244096
 42
0.47244096
 43
0.47244096
 50
    0.000
  0
INSERT
  8
10
  2
BOLT_0
 10
 15285.000
 20
 11487.000
 41
0.47244096
 42
0.47244096
 43
0.47244096
 50
    0.000
  0
INSERT
  8
10
  2
BOLT_0
 10
 15385.000
 20
 12042.500
 41
0.47244096
 42
0.47244096
 43
0.47244096
 50
    0.000
  0
INSERT
  8
10
  2
BOLT_0
 10
 15385.000
 20
 11892.500
 41
0.47244096
 42
0.47244096
 43
0.47244096
 50
    0.000
  0
INSERT
  8
10
  2
BOLT_0
 10
 15385.000
 20
 11637.000
 41
0.47244096
 42
0.47244096
 43
0.47244096
 50
    0.000
  0
INSERT
  8
10
  2
BOLT_0
 10
 15385.000
 20
 11487.000
 41
0.47244096
 42
0.47244096
 43
0.47244096
 50
    0.000
  0
INSERT
  8
10
  2
WCOL
 10
 22865.000
 20
 11970.000
 41
0.33206844
 42
0.93319744
 43
0.93319744
 50
  180.000
  0
LINE
  8
10
 10
 22965.002
 20
 11412.000
 11
 22965.002
 21
 12117.501
  0
LINE
  8
10
 10
 22965.002
 20
 12117.501
 11
 22765.000
 21
 12117.501
  0
LINE
  8
10
 10
 22765.000
 20
 12117.501
 11
 22765.000
 21
 11412.000
  0
LINE
  8
10
 10
 22765.000
 20
 11412.000
 11
 22965.002
 21
 11412.000
  0
TEXT
  8
16
 7
SIMPLEX
 10
 22923.818
 20
 11253.152
 40
  235.268
  1
C
 50
    0.000
  0
CIRCLE
  8
16
 10
 23017.926
 20
 11370.786
 40
   164.687
  0
TEXT
  8
16
 7
SIMPLEX
 10
 22959.107
 20
  9898.011
 40
  188.214
  1
Dia=
 50
   90.000
  0
TEXT
  8
11
 7
SIMPLEX
 10
 22959.107
 20
 10650.867
 40
  188.214
  1
24
 50
   90.000
  0
INSERT
  8
10
  2
BOLT_0
 10
 22815.000
 20
 12042.500
 41
0.47244096
 42
0.47244096
 43
0.47244096
 50
    0.000
  0
INSERT
  8
10
  2
BOLT_0
 10
 22815.000
 20
 11892.500
 41
0.47244096
 42
0.47244096
 43
0.47244096
 50
    0.000
  0
INSERT
  8
10
  2
BOLT_0
 10
 22815.000
 20
 11637.000
 41
0.47244096
 42
0.47244096
 43
0.47244096
 50
    0.000
  0
INSERT
  8
10
  2
BOLT_0
 10
 22815.000
 20
 11487.000
 41
0.47244096
 42
0.47244096
 43
0.47244096
 50
    0.000
  0
INSERT
  8
10
  2
BOLT_0
 10
 22915.000
 20
 12042.500
 41
0.47244096
 42
0.47244096
 43
0.47244096
 50
    0.000
  0
INSERT
  8
10
  2
BOLT_0
 10
 22915.000
 20
 11892.500
 41
0.47244096
 42
0.47244096
 43
0.47244096
 50
    0.000
  0
INSERT
  8
10
  2
BOLT_0
 10
 22915.000
 20
 11637.000
 41
0.47244096
 42
0.47244096
 43
0.47244096
 50
    0.000
  0
INSERT
  8
10
  2
BOLT_0
 10
 22915.000
 20
 11487.000
 41
0.47244096
 42
0.47244096
 43
0.47244096
 50
    0.000
  0
INSERT
  8
10
  2
WCOL
 10
 30395.000
 20
 11970.000
 41
0.33206844
 42
0.93319744
 43
0.93319744
 50
  180.000
  0
LINE
  8
10
 10
 30495.000
 20
 11412.000
 11
 30495.000
 21
 12117.501
  0
LINE
  8
10
 10
 30495.000
 20
 12117.501
 11
 30295.000
 21
 12117.501
  0
LINE
  8
10
 10
 30295.000
 20
 12117.501
 11
 30295.000
 21
 11412.000
  0
LINE
  8
10
 10
 30295.000
 20
 11412.000
 11
 30495.000
 21
 11412.000
  0
TEXT
  8
16
 7
SIMPLEX
 10
 30453.818
 20
 11253.152
 40
  235.268
  1
C
 50
    0.000
  0
CIRCLE
  8
16
 10
 30547.924
 20
 11370.786
 40
   164.687
  0
TEXT
  8
16
 7
SIMPLEX
 10
 30489.104
 20
  9898.011
 40
  188.214
  1
Dia=
 50
   90.000
  0
TEXT
  8
11
 7
SIMPLEX
 10
 30489.104
 20
 10650.867
 40
  188.214
  1
24
 50
   90.000
  0
INSERT
  8
10
  2
BOLT_0
 10
 30345.000
 20
 12042.500
 41
0.47244096
 42
0.47244096
 43
0.47244096
 50
    0.000
  0
INSERT
  8
10
  2
BOLT_0
 10
 30345.000
 20
 11892.500
 41
0.47244096
 42
0.47244096
 43
0.47244096
 50
    0.000
  0
INSERT
  8
10
  2
BOLT_0
 10
 30345.000
 20
 11637.000
 41
0.47244096
 42
0.47244096
 43
0.47244096
 50
    0.000
  0
INSERT
  8
10
  2
BOLT_0
 10
 30345.000
 20
 11487.000
 41
0.47244096
 42
0.47244096
 43
0.47244096
 50
    0.000
  0
INSERT
  8
10
  2
BOLT_0
 10
 30445.000
 20
 12042.500
 41
0.47244096
 42
0.47244096
 43
0.47244096
 50
    0.000
  0
INSERT
  8
10
  2
BOLT_0
 10
 30445.000
 20
 11892.500
 41
0.47244096
 42
0.47244096
 43
0.47244096
 50
    0.000
  0
INSERT
  8
10
  2
BOLT_0
 10
 30445.000
 20
 11637.000
 41
0.47244096
 42
0.47244096
 43
0.47244096
 50
    0.000
  0
INSERT
  8
10
  2
BOLT_0
 10
 30445.000
 20
 11487.000
 41
0.47244096
 42
0.47244096
 43
0.47244096
 50
    0.000
  0
INSERT
  8
10
  2
WCOL
 10
 37925.000
 20
 11970.000
 41
0.33206844
 42
0.93319744
 43
0.93319744
 50
  180.000
  0
LINE
  8
10
 10
 38025.000
 20
 11412.000
 11
 38025.000
 21
 12117.501
  0
LINE
  8
10
 10
 38025.000
 20
 12117.501
 11
 37825.000
 21
 12117.501
  0
LINE
  8
10
 10
 37825.000
 20
 12117.501
 11
 37825.000
 21
 11412.000
  0
LINE
  8
10
 10
 37825.000
 20
 11412.000
 11
 38025.000
 21
 11412.000
  0
TEXT
  8
16
 7
SIMPLEX
 10
 37983.816
 20
 11253.152
 40
  235.268
  1
C
 50
    0.000
  0
CIRCLE
  8
16
 10
 38077.922
 20
 11370.786
 40
   164.687
  0
TEXT
  8
16
 7
SIMPLEX
 10
 38019.105
 20
  9898.011
 40
  188.214
  1
Dia=
 50
   90.000
  0
TEXT
  8
11
 7
SIMPLEX
 10
 38019.105
 20
 10650.867
 40
  188.214
  1
24
 50
   90.000
  0
INSERT
  8
10
  2
BOLT_0
 10
 37875.000
 20
 12042.500
 41
0.47244096
 42
0.47244096
 43
0.47244096
 50
    0.000
  0
INSERT
  8
10
  2
BOLT_0
 10
 37875.000
 20
 11892.500
 41
0.47244096
 42
0.47244096
 43
0.47244096
 50
    0.000
  0
INSERT
  8
10
  2
BOLT_0
 10
 37875.000
 20
 11637.000
 41
0.47244096
 42
0.47244096
 43
0.47244096
 50
    0.000
  0
INSERT
  8
10
  2
BOLT_0
 10
 37875.000
 20
 11487.000
 41
0.47244096
 42
0.47244096
 43
0.47244096
 50
    0.000
  0
INSERT
  8
10
  2
BOLT_0
 10
 37975.000
 20
 12042.500
 41
0.47244096
 42
0.47244096
 43
0.47244096
 50
    0.000
  0
INSERT
  8
10
  2
BOLT_0
 10
 37975.000
 20
 11892.500
 41
0.47244096
 42
0.47244096
 43
0.47244096
 50
    0.000
  0
INSERT
  8
10
  2
BOLT_0
 10
 37975.000
 20
 11637.000
 41
0.47244096
 42
0.47244096
 43
0.47244096
 50
    0.000
  0
INSERT
  8
10
  2
BOLT_0
 10
 37975.000
 20
 11487.000
 41
0.47244096
 42
0.47244096
 43
0.47244096
 50
    0.000
  0
INSERT
  8
10
  2
WCOL
 10
 45314.996
 20
 11970.000
 41
0.33206844
 42
0.93319744
 43
0.93319744
 50
  180.000
  0
LINE
  8
10
 10
 45414.996
 20
 11412.000
 11
 45414.996
 21
 12117.501
  0
LINE
  8
10
 10
 45414.996
 20
 12117.501
 11
 45214.996
 21
 12117.501
  0
LINE
  8
10
 10
 45214.996
 20
 12117.501
 11
 45214.996
 21
 11412.000
  0
LINE
  8
10
 10
 45214.996
 20
 11412.000
 11
 45414.996
 21
 11412.000
  0
TEXT
  8
16
 7
SIMPLEX
 10
 45079.727
 20
 11253.152
 40
  235.268
  1
B
 50
    0.000
  0
CIRCLE
  8
16
 10
 45173.836
 20
 11370.786
 40
   164.687
  0
TEXT
  8
16
 7
SIMPLEX
 10
 45409.105
 20
  9898.011
 40
  188.214
  1
Dia=
 50
   90.000
  0
TEXT
  8
11
 7
SIMPLEX
 10
 45409.105
 20
 10650.867
 40
  188.214
  1
24
 50
   90.000
  0
INSERT
  8
10
  2
BOLT_0
 10
 45264.996
 20
 12042.500
 41
0.47244096
 42
0.47244096
 43
0.47244096
 50
    0.000
  0
INSERT
  8
10
  2
BOLT_0
 10
 45264.996
 20
 11892.500
 41
0.47244096
 42
0.47244096
 43
0.47244096
 50
    0.000
  0
INSERT
  8
10
  2
BOLT_0
 10
 45264.996
 20
 11637.000
 41
0.47244096
 42
0.47244096
 43
0.47244096
 50
    0.000
  0
INSERT
  8
10
  2
BOLT_0
 10
 45264.996
 20
 11487.000
 41
0.47244096
 42
0.47244096
 43
0.47244096
 50
    0.000
  0
INSERT
  8
10
  2
BOLT_0
 10
 45364.996
 20
 12042.500
 41
0.47244096
 42
0.47244096
 43
0.47244096
 50
    0.000
  0
INSERT
  8
10
  2
BOLT_0
 10
 45364.996
 20
 11892.500
 41
0.47244096
 42
0.47244096
 43
0.47244096
 50
    0.000
  0
INSERT
  8
10
  2
BOLT_0
 10
 45364.996
 20
 11637.000
 41
0.47244096
 42
0.47244096
 43
0.47244096
 50
    0.000
  0
INSERT
  8
10
  2
BOLT_0
 10
 45364.996
 20
 11487.000
 41
0.47244096
 42
0.47244096
 43
0.47244096
 50
    0.000
  0
INSERT
  8
10
  2
SCCOL
 10
 0.00     
 20
  1050.000
 41
0.56230260
 42
0.46137644
 43
0.46137644
 50
  -90.000
  0
INSERT
  8
10
  2
SCCOL
 10
 0.00     
 20
  5050.000
 41
-0.5623026
 42
0.46137644
 43
0.46137644
 50
  -90.000
  0
INSERT
  8
10
  2
SCCOL
 10
 45730.000
 20
  7150.000
 41
-0.5623026
 42
0.46137644
 43
0.46137644
 50
   90.000
  0
INSERT
  8
10
  2
SCCOL
 10
 45730.000
 20
 11150.000
 41
0.56230260
 42
0.46137644
 43
0.46137644
 50
   90.000
  0
TEXT
  8
11
 7
SIMPLEX
 10
 14754.316
 20
   552.884
 40
  235.268
  1
435
 50
   90.000
  0
INSERT
  8
2
  2
ARROW
 10
 14813.133
 20
 0.00     
 41
     1.000
 42
     1.000
 43
     1.000
 50
   90.000
  0
LINE
  8
2
 10
 14932.907
 20
 0.00     
 11
 14753.246
 21
 0.00     
  0
TEXT
  8
11
 7
SIMPLEX
 10
 14754.316
 20
 10941.313
 40
  235.268
  1
435
 50
   90.000
  0
INSERT
  8
2
  2
ARROW
 10
 14813.133
 20
 12200.000
 41
     1.000
 42
     1.000
 43
     1.000
 50
  270.000
  0
LINE
  8
2
 10
 14932.907
 20
 12200.000
 11
 14753.246
 21
 12200.000
  0
LINE
  8
2
 10
 14932.907
 20
   435.250
 11
 14753.246
 21
   435.250
  0
LINE
  8
2
 10
 14932.907
 20
 11764.750
 11
 14753.246
 21
 11764.750
  0
INSERT
  8
2
  2
ARROW
 10
 14813.133
 20
   435.250
 41
     1.000
 42
     1.000
 43
     1.000
 50
  270.000
  0
INSERT
  8
2
  2
ARROW
 10
 14813.133
 20
 11764.750
 41
     1.000
 42
     1.000
 43
     1.000
 50
   90.000
  0
TEXT
  8
11
 7
SIMPLEX
 10
 14754.316
 20
  5511.831
 40
  235.268
  1
11330
 50
   90.000
  0
LINE
  8
2
 10
 14813.133
 20
   435.250
 11
 14813.133
 21
 11764.750
  0
TEXT
  8
15
 7
SIMPLEX
 10
 14295.544
 20
  3629.688
 40
  235.268
  1
(Hold This Dimension)
 50
   90.000
  0
LINE
  8
12
 10
 0.00     
 20
  -205.325
 11
 0.00     
 21
 -3499.073
  0
LINE
  8
2
 10
 0.00     
 20
 -3199.641
 11
 45730.000
 21
 -3199.641
  0
LINE
  8
12
 10
 45730.000
 20
  -205.325
 11
 45730.000
 21
 -3499.073
  0
LINE
  8
12
 10
  7805.000
 20
 -1403.051
 11
  7805.000
 21
 -3499.073
  0
LINE
  8
12
 10
 15335.000
 20
 -1403.051
 11
 15335.000
 21
 -3499.073
  0
LINE
  8
12
 10
 22865.000
 20
 -1403.051
 11
 22865.000
 21
 -3499.073
  0
LINE
  8
12
 10
 30395.000
 20
 -1403.051
 11
 30395.000
 21
 -3499.073
  0
LINE
  8
12
 10
 37925.000
 20
 -1403.051
 11
 37925.000
 21
 -3499.073
  0
INSERT
  8
2
  2
ARROW
 10
 0.00     
 20
 -3199.641
 41
     1.000
 42
     1.000
 43
     1.000
 50
  180.000
  0
INSERT
  8
2
  2
ARROW
 10
  7805.000
 20
 -3199.641
 41
     1.000
 42
     1.000
 43
     1.000
 50
    0.000
  0
INSERT
  8
2
  2
ARROW
 10
  7805.000
 20
 -3199.641
 41
     1.000
 42
     1.000
 43
     1.000
 50
  180.000
  0
INSERT
  8
2
  2
ARROW
 10
 15335.000
 20
 -3199.641
 41
     1.000
 42
     1.000
 43
     1.000
 50
    0.000
  0
INSERT
  8
2
  2
ARROW
 10
 15335.000
 20
 -3199.641
 41
     1.000
 42
     1.000
 43
     1.000
 50
  180.000
  0
INSERT
  8
2
  2
ARROW
 10
 22865.000
 20
 -3199.641
 41
     1.000
 42
     1.000
 43
     1.000
 50
    0.000
  0
INSERT
  8
2
  2
ARROW
 10
 22865.000
 20
 -3199.641
 41
     1.000
 42
     1.000
 43
     1.000
 50
  180.000
  0
INSERT
  8
2
  2
ARROW
 10
 30395.000
 20
 -3199.641
 41
     1.000
 42
     1.000
 43
     1.000
 50
    0.000
  0
INSERT
  8
2
  2
ARROW
 10
 30395.000
 20
 -3199.641
 41
     1.000
 42
     1.000
 43
     1.000
 50
  180.000
  0
INSERT
  8
2
  2
ARROW
 10
 37925.000
 20
 -3199.641
 41
     1.000
 42
     1.000
 43
     1.000
 50
    0.000
  0
INSERT
  8
2
  2
ARROW
 10
 37925.000
 20
 -3199.641
 41
     1.000
 42
     1.000
 43
     1.000
 50
  180.000
  0
INSERT
  8
2
  2
ARROW
 10
 45730.000
 20
 -3199.641
 41
     1.000
 42
     1.000
 43
     1.000
 50
    0.000
  0
CIRCLE
  8
13
 10
 0.00     
 20
 -3781.395
 40
   282.321
  0
TEXT
  8
13
 7
SIMPLEX
 10
   -63.522
 20
 -3908.439
 40
  254.089
  1
1
 50
    0.000
  0
CIRCLE
  8
13
 10
 45730.000
 20
 -3781.395
 40
   282.321
  0
TEXT
  8
13
 7
SIMPLEX
 10
 45666.477
 20
 -3908.439
 40
  254.089
  1
7
 50
    0.000
  0
CIRCLE
  8
13
 10
  7805.000
 20
 -3781.395
 40
   282.321
  0
TEXT
  8
13
 7
SIMPLEX
 10
  7741.478
 20
 -3908.439
 40
  254.089
  1
2
 50
    0.000
  0
CIRCLE
  8
13
 10
 15335.000
 20
 -3781.395
 40
   282.321
  0
TEXT
  8
13
 7
SIMPLEX
 10
 15271.479
 20
 -3908.439
 40
  254.089
  1
3
 50
    0.000
  0
CIRCLE
  8
13
 10
 22865.000
 20
 -3781.395
 40
   282.321
  0
TEXT
  8
13
 7
SIMPLEX
 10
 22801.480
 20
 -3908.439
 40
  254.089
  1
4
 50
    0.000
  0
CIRCLE
  8
13
 10
 30395.000
 20
 -3781.395
 40
   282.321
  0
TEXT
  8
13
 7
SIMPLEX
 10
 30331.480
 20
 -3908.439
 40
  254.089
  1
5
 50
    0.000
  0
CIRCLE
  8
13
 10
 37925.000
 20
 -3781.395
 40
   282.321
  0
TEXT
  8
13
 7
SIMPLEX
 10
 37861.477
 20
 -3908.439
 40
  254.089
  1
6
 50
    0.000
  0
TEXT
  8
11
 7
SIMPLEX
 10
  3639.464
 20
 -3140.824
 40
  235.268
  1
7805
 50
    0.000
  0
TEXT
  8
11
 7
SIMPLEX
 10
 11099.465
 20
 -3140.824
 40
  235.268
  1
7530
 50
    0.000
  0
TEXT
  8
11
 7
SIMPLEX
 10
 18629.465
 20
 -3140.824
 40
  235.268
  1
7530
 50
    0.000
  0
TEXT
  8
11
 7
SIMPLEX
 10
 26159.465
 20
 -3140.824
 40
  235.268
  1
7530
 50
    0.000
  0
TEXT
  8
11
 7
SIMPLEX
 10
 33689.465
 20
 -3140.824
 40
  235.268
  1
7530
 50
    0.000
  0
TEXT
  8
11
 7
SIMPLEX
 10
 41149.461
 20
 -3140.824
 40
  235.268
  1
7805
 50
    0.000
  0
TEXT
  8
15
 7
SIMPLEX
 10
 19853.572
 20
 -5169.474
 40
  376.428
  1
ANCHOR BOLT PLAN
 50
    0.000
  0
LINE
  8
15
 10
 19147.770
 20
 -5294.950
 11
 25923.480
 21
 -5294.950
  0
TEXT
  8
15
 7
SIMPLEX
 10
 19147.770
 20
 -5694.905
 40
  235.268
  1
NOTE: All Base Plates @ 0 (U.N.)
 50
    0.000
  0
TEXT
  8
15
 7
SIMPLEX
 10
 21688.660
 20
 -4416.618
 40
  235.268
  1
FRONT SIDEWALL
 50
    0.000
  0
LINE
  8
12
 10
 0.00     
 20
 12405.325
 11
 0.00     
 21
 16589.668
  0
LINE
  8
2
 10
 0.00     
 20
 15459.527
 11
 45730.000
 21
 15459.527
  0
LINE
  8
12
 10
 45730.000
 20
 12405.325
 11
 45730.000
 21
 16589.668
  0
LINE
  8
12
 10
  7805.000
 20
 13603.052
 11
  7805.000
 21
 15758.959
  0
LINE
  8
12
 10
 15335.000
 20
 13603.052
 11
 15335.000
 21
 15758.959
  0
LINE
  8
12
 10
 22865.000
 20
 13603.052
 11
 22865.000
 21
 15758.959
  0
LINE
  8
12
 10
 30395.000
 20
 13603.052
 11
 30395.000
 21
 15758.959
  0
LINE
  8
12
 10
 37925.000
 20
 13603.052
 11
 37925.000
 21
 15758.959
  0
INSERT
  8
2
  2
ARROW
 10
 0.00     
 20
 15459.527
 41
     1.000
 42
     1.000
 43
     1.000
 50
  180.000
  0
INSERT
  8
2
  2
ARROW
 10
  7805.000
 20
 15459.527
 41
     1.000
 42
     1.000
 43
     1.000
 50
    0.000
  0
INSERT
  8
2
  2
ARROW
 10
  7805.000
 20
 15459.527
 41
     1.000
 42
     1.000
 43
     1.000
 50
  180.000
  0
INSERT
  8
2
  2
ARROW
 10
 15335.000
 20
 15459.527
 41
     1.000
 42
     1.000
 43
     1.000
 50
    0.000
  0
INSERT
  8
2
  2
ARROW
 10
 15335.000
 20
 15459.527
 41
     1.000
 42
     1.000
 43
     1.000
 50
  180.000
  0
INSERT
  8
2
  2
ARROW
 10
 22865.000
 20
 15459.527
 41
     1.000
 42
     1.000
 43
     1.000
 50
    0.000
  0
INSERT
  8
2
  2
ARROW
 10
 22865.000
 20
 15459.527
 41
     1.000
 42
     1.000
 43
     1.000
 50
  180.000
  0
INSERT
  8
2
  2
ARROW
 10
 30395.000
 20
 15459.527
 41
     1.000
 42
     1.000
 43
     1.000
 50
    0.000
  0
INSERT
  8
2
  2
ARROW
 10
 30395.000
 20
 15459.527
 41
     1.000
 42
     1.000
 43
     1.000
 50
  180.000
  0
INSERT
  8
2
  2
ARROW
 10
 37925.000
 20
 15459.527
 41
     1.000
 42
     1.000
 43
     1.000
 50
    0.000
  0
INSERT
  8
2
  2
ARROW
 10
 37925.000
 20
 15459.527
 41
     1.000
 42
     1.000
 43
     1.000
 50
  180.000
  0
INSERT
  8
2
  2
ARROW
 10
 45730.000
 20
 15459.527
 41
     1.000
 42
     1.000
 43
     1.000
 50
    0.000
  0
CIRCLE
  8
13
 10
 0.00     
 20
 16871.988
 40
   282.321
  0
TEXT
  8
13
 7
SIMPLEX
 10
   -63.522
 20
 16744.943
 40
  254.089
  1
1
 50
    0.000
  0
CIRCLE
  8
13
 10
 45730.000
 20
 16871.988
 40
   282.321
  0
TEXT
  8
13
 7
SIMPLEX
 10
 45666.477
 20
 16744.943
 40
  254.089
  1
7
 50
    0.000
  0
CIRCLE
  8
13
 10
  7805.000
 20
 16041.279
 40
   282.321
  0
TEXT
  8
13
 7
SIMPLEX
 10
  7741.478
 20
 15914.234
 40
  254.089
  1
2
 50
    0.000
  0
CIRCLE
  8
13
 10
 15335.000
 20
 16041.279
 40
   282.321
  0
TEXT
  8
13
 7
SIMPLEX
 10
 15271.479
 20
 15914.234
 40
  254.089
  1
3
 50
    0.000
  0
CIRCLE
  8
13
 10
 22865.000
 20
 16041.279
 40
   282.321
  0
TEXT
  8
13
 7
SIMPLEX
 10
 22801.480
 20
 15914.234
 40
  254.089
  1
4
 50
    0.000
  0
CIRCLE
  8
13
 10
 30395.000
 20
 16041.279
 40
   282.321
  0
TEXT
  8
13
 7
SIMPLEX
 10
 30331.480
 20
 15914.234
 40
  254.089
  1
5
 50
    0.000
  0
CIRCLE
  8
13
 10
 37925.000
 20
 16041.279
 40
   282.321
  0
TEXT
  8
13
 7
SIMPLEX
 10
 37861.477
 20
 15914.234
 40
  254.089
  1
6
 50
    0.000
  0
TEXT
  8
11
 7
SIMPLEX
 10
  3639.464
 20
 15518.344
 40
  235.268
  1
7805
 50
    0.000
  0
TEXT
  8
11
 7
SIMPLEX
 10
 11099.465
 20
 15518.344
 40
  235.268
  1
7530
 50
    0.000
  0
TEXT
  8
11
 7
SIMPLEX
 10
 18629.465
 20
 15518.344
 40
  235.268
  1
7530
 50
    0.000
  0
TEXT
  8
11
 7
SIMPLEX
 10
 26159.465
 20
 15518.344
 40
  235.268
  1
7530
 50
    0.000
  0
TEXT
  8
11
 7
SIMPLEX
 10
 33689.465
 20
 15518.344
 40
  235.268
  1
7530
 50
    0.000
  0
TEXT
  8
11
 7
SIMPLEX
 10
 41149.461
 20
 15518.344
 40
  235.268
  1
7805
 50
    0.000
  0
LINE
  8
2
 10
 0.00     
 20
 16451.930
 11
 45730.000
 21
 16451.930
  0
INSERT
  8
2
  2
ARROW
 10
 0.00     
 20
 16451.930
 41
     1.000
 42
     1.000
 43
     1.000
 50
  180.000
  0
INSERT
  8
2
  2
ARROW
 10
 45730.000
 20
 16451.930
 41
     1.000
 42
     1.000
 43
     1.000
 50
    0.000
  0
TEXT
  8
11
 7
SIMPLEX
 10
 20448.820
 20
 16523.795
 40
  235.268
  1
45730
 50
    0.000
  0
TEXT
  8
15
 7
SIMPLEX
 10
 21625.160
 20
 16523.795
 40
  235.268
  1
 OUT-TO-OUT OF STEEL
 50
    0.000
  0
TEXT
  8
15
 7
SIMPLEX
 10
 21688.660
 20
 16876.695
 40
  235.268
  1
BACK SIDEWALL
 50
    0.000
  0
LINE
  8
12
 10
  -205.325
 20
 0.00     
 11
 -4329.782
 21
 0.00     
  0
LINE
  8
12
 10
  -205.325
 20
 12200.000
 11
 -4329.782
 21
 12200.000
  0
CIRCLE
  8
13
 10
 -4612.103
 20
 0.00     
 40
   282.321
  0
TEXT
  8
13
 7
SIMPLEX
 10
 -4675.625
 20
  -127.045
 40
  254.089
  1
A
 50
    0.000
  0
CIRCLE
  8
13
 10
 -4612.103
 20
 12200.000
 40
   282.321
  0
TEXT
  8
13
 7
SIMPLEX
 10
 -4675.625
 20
 12072.955
 40
  254.089
  1
C
 50
    0.000
  0
CIRCLE
  8
13
 10
 -3781.395
 20
  6100.000
 40
   282.321
  0
TEXT
  8
13
 7
SIMPLEX
 10
 -3844.917
 20
  5972.956
 40
  254.089
  1
B
 50
    0.000
  0
LINE
  8
2
 10
 -3199.641
 20
 0.00     
 11
 -3199.641
 21
 12200.000
  0
LINE
  8
12
 10
 -1403.051
 20
  6100.000
 11
 -3499.073
 21
  6100.000
  0
INSERT
  8
2
  2
ARROW
 10
 -3199.641
 20
 0.00     
 41
     1.000
 42
     1.000
 43
     1.000
 50
  270.000
  0
INSERT
  8
2
  2
ARROW
 10
 -3199.641
 20
  6100.000
 41
     1.000
 42
     1.000
 43
     1.000
 50
  270.000
  0
INSERT
  8
2
  2
ARROW
 10
 -3199.641
 20
  6100.000
 41
     1.000
 42
     1.000
 43
     1.000
 50
   90.000
  0
INSERT
  8
2
  2
ARROW
 10
 -3199.641
 20
 12200.000
 41
     1.000
 42
     1.000
 43
     1.000
 50
   90.000
  0
TEXT
  8
11
 7
SIMPLEX
 10
 -3258.458
 20
  2579.465
 40
  235.268
  1
6100
 50
   90.000
  0
TEXT
  8
11
 7
SIMPLEX
 10
 -3258.458
 20
  8679.465
 40
  235.268
  1
6100
 50
   90.000
  0
LINE
  8
2
 10
 -4192.043
 20
 0.00     
 11
 -4192.043
 21
 12200.000
  0
INSERT
  8
2
  2
ARROW
 10
 -4192.043
 20
 0.00     
 41
     1.000
 42
     1.000
 43
     1.000
 50
  270.000
  0
INSERT
  8
2
  2
ARROW
 10
 -4192.043
 20
 12200.000
 41
     1.000
 42
     1.000
 43
     1.000
 50
   90.000
  0
TEXT
  8
11
 7
SIMPLEX
 10
 -4263.907
 20
  3159.153
 40
  235.268
  1
12200
 50
   90.000
  0
TEXT
  8
15
 7
SIMPLEX
 10
 -4263.907
 20
  4335.492
 40
  235.268
  1
 OUT-TO-OUT OF STEEL
 50
   90.000
  0
TEXT
  8
15
 7
SIMPLEX
 10
 -4616.809
 20
  4923.662
 40
  235.268
  1
LEFT ENDWALL
 50
   90.000
  0
LINE
  8
12
 10
 45935.324
 20
 0.00     
 11
 49229.070
 21
 0.00     
  0
LINE
  8
12
 10
 45935.324
 20
 12200.000
 11
 49229.070
 21
 12200.000
  0
CIRCLE
  8
13
 10
 49511.395
 20
 0.00     
 40
   282.321
  0
TEXT
  8
13
 7
SIMPLEX
 10
 49447.871
 20
  -127.045
 40
  254.089
  1
A
 50
    0.000
  0
CIRCLE
  8
13
 10
 49511.395
 20
 12200.000
 40
   282.321
  0
TEXT
  8
13
 7
SIMPLEX
 10
 49447.871
 20
 12072.955
 40
  254.089
  1
C
 50
    0.000
  0
CIRCLE
  8
13
 10
 49511.395
 20
  6100.000
 40
   282.321
  0
TEXT
  8
13
 7
SIMPLEX
 10
 49447.871
 20
  5972.956
 40
  254.089
  1
B
 50
    0.000
  0
LINE
  8
2
 10
 48929.641
 20
 0.00     
 11
 48929.641
 21
 12200.000
  0
LINE
  8
12
 10
 47133.047
 20
  6100.000
 11
 49229.070
 21
  6100.000
  0
INSERT
  8
2
  2
ARROW
 10
 48929.641
 20
 0.00     
 41
     1.000
 42
     1.000
 43
     1.000
 50
  270.000
  0
INSERT
  8
2
  2
ARROW
 10
 48929.641
 20
  6100.000
 41
     1.000
 42
     1.000
 43
     1.000
 50
  270.000
  0
INSERT
  8
2
  2
ARROW
 10
 48929.641
 20
  6100.000
 41
     1.000
 42
     1.000
 43
     1.000
 50
   90.000
  0
INSERT
  8
2
  2
ARROW
 10
 48929.641
 20
 12200.000
 41
     1.000
 42
     1.000
 43
     1.000
 50
   90.000
  0
TEXT
  8
11
 7
SIMPLEX
 10
 48870.820
 20
  2579.465
 40
  235.268
  1
6100
 50
   90.000
  0
TEXT
  8
11
 7
SIMPLEX
 10
 48870.820
 20
  8679.465
 40
  235.268
  1
6100
 50
   90.000
  0
TEXT
  8
15
 7
SIMPLEX
 10
 50146.617
 20
  4923.662
 40
  235.268
  1
RIGHT ENDWALL
 50
   90.000
  0
LINE
  8
27
 10
  7805.000
 20
   -47.054
 11
  7805.000
 21
 12247.054
  0
LINE
  8
27
 10
 15335.000
 20
   -47.054
 11
 15335.000
 21
 12247.054
  0
LINE
  8
27
 10
 22865.000
 20
   -47.054
 11
 22865.000
 21
 12247.054
  0
LINE
  8
27
 10
 30395.000
 20
   -47.054
 11
 30395.000
 21
 12247.054
  0
LINE
  8
27
 10
 37925.000
 20
   -47.054
 11
 37925.000
 21
 12247.054
  0
LINE
  8
27
 10
   -47.054
 20
  6100.000
 11
 45777.055
 21
  6100.000
  0
LINE
  8
2
 10
 0.00     
 20
 -1398.774
 11
  7805.000
 21
 -1398.774
  0
LINE
  8
12
 10
 0.00     
 20
  -440.592
 11
 0.00     
 21
 -1474.059
  0
LINE
  8
12
 10
   415.000
 20
  -440.592
 11
   415.000
 21
 -1474.059
  0
LINE
  8
12
 10
  7805.000
 20
  -440.592
 11
  7805.000
 21
 -1474.059
  0
INSERT
  8
2
  2
ARROW
 10
 0.00     
 20
 -1398.774
 41
     1.000
 42
     1.000
 43
     1.000
 50
  360.000
  0
INSERT
  8
2
  2
ARROW
 10
   415.000
 20
 -1398.774
 41
     1.000
 42
     1.000
 43
     1.000
 50
  180.000
  0
TEXT
  8
11
 7
SIMPLEX
 10
  -823.437
 20
 -1339.957
 40
  235.268
  1
415
 50
    0.000
  0
INSERT
  8
2
  2
ARROW
 10
   415.000
 20
 -1398.774
 41
     1.000
 42
     1.000
 43
     1.000
 50
  180.000
  0
INSERT
  8
2
  2
ARROW
 10
  7805.000
 20
 -1398.774
 41
     1.000
 42
     1.000
 43
     1.000
 50
    0.000
  0
TEXT
  8
11
 7
SIMPLEX
 10
  3639.464
 20
 -1339.957
 40
  235.268
  1
7390
 50
    0.000
  0
LINE
  8
2
 10
 37925.000
 20
 -1398.774
 11
 45730.000
 21
 -1398.774
  0
LINE
  8
12
 10
 37925.000
 20
  -440.592
 11
 37925.000
 21
 -1474.059
  0
LINE
  8
12
 10
 45314.996
 20
  -440.592
 11
 45314.996
 21
 -1474.059
  0
LINE
  8
12
 10
 45730.000
 20
  -440.592
 11
 45730.000
 21
 -1474.059
  0
INSERT
  8
2
  2
ARROW
 10
 37925.000
 20
 -1398.774
 41
     1.000
 42
     1.000
 43
     1.000
 50
  180.000
  0
INSERT
  8
2
  2
ARROW
 10
 45314.996
 20
 -1398.774
 41
     1.000
 42
     1.000
 43
     1.000
 50
    0.000
  0
TEXT
  8
11
 7
SIMPLEX
 10
 41149.461
 20
 -1339.957
 40
  235.268
  1
7390
 50
    0.000
  0
INSERT
  8
2
  2
ARROW
 10
 45314.996
 20
 -1398.774
 41
     1.000
 42
     1.000
 43
     1.000
 50
  360.000
  0
INSERT
  8
2
  2
ARROW
 10
 45730.000
 20
 -1398.774
 41
     1.000
 42
     1.000
 43
     1.000
 50
  180.000
  0
TEXT
  8
11
 7
SIMPLEX
 10
 45847.633
 20
 -1339.957
 40
  235.268
  1
415
 50
    0.000
  0
LINE
  8
2
 10
 0.00     
 20
 13598.774
 11
  7805.000
 21
 13598.774
  0
LINE
  8
12
 10
 0.00     
 20
 12640.593
 11
 0.00     
 21
 13674.060
  0
LINE
  8
12
 10
   415.000
 20
 12640.593
 11
   415.000
 21
 13674.060
  0
LINE
  8
12
 10
  7805.000
 20
 12640.593
 11
  7805.000
 21
 13674.060
  0
INSERT
  8
2
  2
ARROW
 10
 0.00     
 20
 13598.774
 41
     1.000
 42
     1.000
 43
     1.000
 50
  360.000
  0
INSERT
  8
2
  2
ARROW
 10
   415.000
 20
 13598.774
 41
     1.000
 42
     1.000
 43
     1.000
 50
  180.000
  0
TEXT
  8
11
 7
SIMPLEX
 10
  -823.437
 20
 13657.591
 40
  235.268
  1
415
 50
    0.000
  0
INSERT
  8
2
  2
ARROW
 10
   415.000
 20
 13598.774
 41
     1.000
 42
     1.000
 43
     1.000
 50
  180.000
  0
INSERT
  8
2
  2
ARROW
 10
  7805.000
 20
 13598.774
 41
     1.000
 42
     1.000
 43
     1.000
 50
    0.000
  0
TEXT
  8
11
 7
SIMPLEX
 10
  3639.464
 20
 13657.591
 40
  235.268
  1
7390
 50
    0.000
  0
LINE
  8
2
 10
 37925.000
 20
 13598.774
 11
 45730.000
 21
 13598.774
  0
LINE
  8
12
 10
 37925.000
 20
 12640.593
 11
 37925.000
 21
 13674.060
  0
LINE
  8
12
 10
 45314.996
 20
 12640.593
 11
 45314.996
 21
 13674.060
  0
LINE
  8
12
 10
 45730.000
 20
 12640.593
 11
 45730.000
 21
 13674.060
  0
INSERT
  8
2
  2
ARROW
 10
 37925.000
 20
 13598.774
 41
     1.000
 42
     1.000
 43
     1.000
 50
  180.000
  0
INSERT
  8
2
  2
ARROW
 10
 45314.996
 20
 13598.774
 41
     1.000
 42
     1.000
 43
     1.000
 50
    0.000
  0
TEXT
  8
11
 7
SIMPLEX
 10
 41149.461
 20
 13657.591
 40
  235.268
  1
7390
 50
    0.000
  0
INSERT
  8
2
  2
ARROW
 10
 45314.996
 20
 13598.774
 41
     1.000
 42
     1.000
 43
     1.000
 50
  360.000
  0
INSERT
  8
2
  2
ARROW
 10
 45730.000
 20
 13598.774
 41
     1.000
 42
     1.000
 43
     1.000
 50
  180.000
  0
TEXT
  8
11
 7
SIMPLEX
 10
 45847.633
 20
 13657.591
 40
  235.268
  1
415
 50
    0.000
  0
LINE
  8
2
 10
 -1638.319
 20
 0.00     
 11
 -1638.319
 21
  6100.000
  0
LINE
  8
12
 10
  -440.592
 20
 0.00     
 11
 -1843.644
 21
 0.00     
  0
LINE
  8
12
 10
  -440.592
 20
  1050.000
 11
 -1843.644
 21
  1050.000
  0
LINE
  8
12
 10
  -440.592
 20
  5050.000
 11
 -1843.644
 21
  5050.000
  0
LINE
  8
12
 10
  -440.592
 20
  6100.000
 11
 -1843.644
 21
  6100.000
  0
INSERT
  8
2
  2
ARROW
 10
 -1638.319
 20
 0.00     
 41
     1.000
 42
     1.000
 43
     1.000
 50
  270.000
  0
INSERT
  8
2
  2
ARROW
 10
 -1638.319
 20
  1050.000
 41
     1.000
 42
     1.000
 43
     1.000
 50
   90.000
  0
TEXT
  8
11
 7
SIMPLEX
 10
 -1697.136
 20
    54.465
 40
  235.268
  1
1050
 50
   90.000
  0
INSERT
  8
2
  2
ARROW
 10
 -1638.319
 20
  1050.000
 41
     1.000
 42
     1.000
 43
     1.000
 50
  270.000
  0
INSERT
  8
2
  2
ARROW
 10
 -1638.319
 20
  5050.000
 41
     1.000
 42
     1.000
 43
     1.000
 50
   90.000
  0
TEXT
  8
11
 7
SIMPLEX
 10
 -1697.136
 20
  2579.465
 40
  235.268
  1
4000
 50
   90.000
  0
INSERT
  8
2
  2
ARROW
 10
 -1638.319
 20
  5050.000
 41
     1.000
 42
     1.000
 43
     1.000
 50
  270.000
  0
INSERT
  8
2
  2
ARROW
 10
 -1638.319
 20
  6100.000
 41
     1.000
 42
     1.000
 43
     1.000
 50
   90.000
  0
TEXT
  8
11
 7
SIMPLEX
 10
 -1697.136
 20
  5104.465
 40
  235.268
  1
1050
 50
   90.000
  0
LINE
  8
2
 10
 47368.316
 20
  6100.000
 11
 47368.316
 21
 12200.000
  0
LINE
  8
12
 10
 46170.594
 20
  6100.000
 11
 47573.641
 21
  6100.000
  0
LINE
  8
12
 10
 46170.594
 20
  7150.000
 11
 47573.641
 21
  7150.000
  0
LINE
  8
12
 10
 46170.594
 20
 11150.000
 11
 47573.641
 21
 11150.000
  0
LINE
  8
12
 10
 46170.594
 20
 12200.000
 11
 47573.641
 21
 12200.000
  0
INSERT
  8
2
  2
ARROW
 10
 47368.316
 20
  6100.000
 41
     1.000
 42
     1.000
 43
     1.000
 50
  270.000
  0
INSERT
  8
2
  2
ARROW
 10
 47368.316
 20
  7150.000
 41
     1.000
 42
     1.000
 43
     1.000
 50
   90.000
  0
TEXT
  8
11
 7
SIMPLEX
 10
 47309.500
 20
  6154.464
 40
  235.268
  1
1050
 50
   90.000
  0
INSERT
  8
2
  2
ARROW
 10
 47368.316
 20
  7150.000
 41
     1.000
 42
     1.000
 43
     1.000
 50
  270.000
  0
INSERT
  8
2
  2
ARROW
 10
 47368.316
 20
 11150.000
 41
     1.000
 42
     1.000
 43
     1.000
 50
   90.000
  0
TEXT
  8
11
 7
SIMPLEX
 10
 47309.500
 20
  8679.465
 40
  235.268
  1
4000
 50
   90.000
  0
INSERT
  8
2
  2
ARROW
 10
 47368.316
 20
 11150.000
 41
     1.000
 42
     1.000
 43
     1.000
 50
  270.000
  0
INSERT
  8
2
  2
ARROW
 10
 47368.316
 20
 12200.000
 41
     1.000
 42
     1.000
 43
     1.000
 50
   90.000
  0
TEXT
  8
11
 7
SIMPLEX
 10
 47309.500
 20
 11204.465
 40
  235.268
  1
1050
 50
   90.000
  0
TEXT
  8
2
 7
SIMPLEX
 10
  2961.429
 20
  -352.902
 40
  235.268
  1
X-Bracing
 50
    0.000
  0
TEXT
  8
2
 7
SIMPLEX
 10
 40886.434
 20
  -352.902
 40
  235.268
  1
X-Bracing
 50
    0.000
  0
TEXT
  8
2
 7
SIMPLEX
 10
 40886.434
 20
 12317.634
 40
  235.268
  1
X-Bracing
 50
    0.000
  0
TEXT
  8
2
 7
SIMPLEX
 10
  2961.429
 20
 12317.634
 40
  235.268
  1
X-Bracing
 50
    0.000
  0
ENDBLK
  8
0
  0
ENDSEC
  0
SECTION
  2
ENTITIES
  0
LINE
  8
22
 10
 0.00     
 20
 0.00     
 11
 56585.512
 21
 0.00     
  0
LINE
  8
22
 10
 56585.512
 20
 0.00     
 11
 56585.512
 21
 40014.043
  0
LINE
  8
22
 10
 56585.512
 20
 40014.043
 11
 0.00     
 21
 40014.043
  0
LINE
  8
22
 10
 0.00     
 20
 40014.043
 11
 0.00     
 21
 0.00     
  0
LINE
  8
0
 10
 35026.434
 20
 0.00     
 11
 35026.434
 21
  3593.180
  0
LINE
  8
0
 10
 35026.434
 20
  3593.180
 11
 56585.512
 21
  3593.180
  0
LINE
  8
0
 10
 35026.434
 20
  1368.831
 11
 56585.512
 21
  1368.831
  0
LINE
  8
0
 10
 35026.434
 20
  2053.246
 11
 56585.512
 21
  2053.246
  0
LINE
  8
0
 10
 35026.434
 20
  2737.661
 11
 56585.512
 21
  2737.661
  0
LINE
  8
0
 10
 38106.301
 20
 0.00     
 11
 38106.301
 21
  2737.661
  0
LINE
  8
0
 10
 45805.973
 20
 0.00     
 11
 45805.973
 21
  2737.661
  0
LINE
  8
0
 10
 45805.973
 20
   684.415
 11
 56585.512
 21
   684.415
  0
LINE
  8
0
 10
 49570.258
 20
  2053.246
 11
 49570.258
 21
  1368.831
  0
LINE
  8
0
 10
 52992.332
 20
  2053.246
 11
 52992.332
 21
  1368.831
  0
LINE
  8
0
 10
 51281.293
 20
  1368.831
 11
 51281.293
 21
   684.415
  0
TEXT
  8
14
 7
SIMPLEX
 10
 38790.715
 20
  2908.765
 40
  513.311
  1
Sivoko Steel Structures Ltd.
 50
    0.000
  0
TEXT
  8
14
 7
SIMPLEX
 10
 35368.637
 20
  2224.350
 40
  342.208
  1
PROJECT
 50
    0.000
  0
TEXT
  8
14
 7
SIMPLEX
 10
 35368.637
 20
  1539.934
 40
  342.208
  1
ID
 50
    0.000
  0
TEXT
  8
14
 7
SIMPLEX
 10
 35368.637
 20
   855.519
 40
  342.208
  1
PROJECT
 50
    0.000
  0
TEXT
  8
14
 7
SIMPLEX
 10
 35368.637
 20
   171.104
 40
  342.208
  1
ADDRESS
 50
    0.000
  0
TEXT
  8
14
 7
SIMPLEX
 10
 38448.508
 20
  2224.350
 40
  342.208
  1
Proposed Warehouse
 50
    0.000
  0
TEXT
  8
14
 7
SIMPLEX
 10
 38448.508
 20
  1539.934
 40
  342.208
  1
111
 50
    0.000
  0
TEXT
  8
14
 7
SIMPLEX
 10
 38448.508
 20
   855.519
 40
  342.208
  1
Proposed Warehouse
 50
    0.000
  0
TEXT
  8
14
 7
SIMPLEX
 10
 38448.508
 20
   171.104
 40
  342.208
  1
 
 50
    0.000
  0
TEXT
  8
14
 7
SIMPLEX
 10
 46148.180
 20
  2224.350
 40
  342.208
  1
ANCHOR BOLT PLAN
 50
    0.000
  0
TEXT
  8
14
 7
SIMPLEX
 10
 46148.180
 20
  1539.934
 40
  342.208
  1
DESIGN:
 50
    0.000
  0
TEXT
  8
14
 7
SIMPLEX
 10
 46148.180
 20
   855.519
 40
  342.208
  1
DATE:
 50
    0.000
  0
TEXT
  8
14
 7
SIMPLEX
 10
 47893.441
 20
   855.519
 40
  342.208
  1
19/JAN/2026
 50
    0.000
  0
TEXT
  8
14
 7
SIMPLEX
 10
 49912.461
 20
  1539.934
 40
  342.208
  1
DRAFT:
 50
    0.000
  0
TEXT
  8
14
 7
SIMPLEX
 10
 53334.543
 20
  1539.934
 40
  342.208
  1
CHECK:
 50
    0.000
  0
TEXT
  8
14
 7
SIMPLEX
 10
 51452.398
 20
   855.519
 40
  342.208
  1
SHEET
 50
    0.000
  0
TEXT
  8
14
 7
SIMPLEX
 10
 54532.266
 20
   855.519
 40
  342.208
  1
OF
 50
    0.000
  0
TEXT
  8
14
 7
SIMPLEX
 10
 53163.434
 20
   855.519
 40
  342.208
  1
 
 50
    0.000
999
FIELD:@PAGE_ID
  0
TEXT
  8
14
 7
SIMPLEX
 10
 55216.680
 20
   855.519
 40
  342.208
  1
 
 50
    0.000
999
FIELD:@PAGE_TOTAL
  0
INSERT
  8
0
  2
ANCHOR
 10
  5632.737
 20
 15826.767
 41
     1.000
 42
     1.000
 43
     1.000
 50
    0.000
  0
ENDSEC
  0
EOF
