  0
SECTION
  2
HEADER
  9
$ACADVER
  1
AC1009
  9
$EXTMIN
 10
  -634.839
 20
 -1238.181
  9
$EXTMAX
 10
  4022.532
 20
  2254.847
  9
$LIMMIN
 10
  -634.839
 20
 -1238.181
  9
$LIMMAX
 10
  4022.532
 20
  2254.847
  9
$FILLMODE
 70
     1
  9
$HANDLING
 70
     0
  0
ENDSEC
  0
SECTION
  2
TABLES
  0
TABLE
  2
LTYPE
 70
1
  0
LTYPE
  2
CONTIN
 70
    64
  3
SOLID LINE
 72
    65
 73
     0
 40
0.0
  0
LTYPE
  2
CONTINUOUS
 70
    64
  3
SOLID LINE
 72
    65
 73
     0
 40
0.0
  0
LTYPE
  2
CENTER
 70
    64
  3
____ _ ____ _ ____ _ ____ _ ____ _ ____ _ ____
 72
    65
 73
     4
 40
    88.656
 49
    55.410
 49
   -11.082
 49
    11.082
 49
   -11.082
  0
LTYPE
  2
DASHED
 70
    64
  3
__ __ __ __ __ __ __ __ __ __ __ __ __ __ __ 
 72
    65
 73
     2
 40
    55.88
 49
    37.25
 49
   -18.62
  0
ENDTAB
  0
TABLE
  2
LAYER
 70
30
  0
LAYER
  2
0
 70
     0
 62
     7
  6
CONTIN
  0
LAYER
  2
1
 70
     0
 62
     7
  6
CONTIN
  0
LAYER
  2
2
 70
     0
 62
     7
  6
CONTIN
  0
LAYER
  2
3
 70
     0
 62
     7
  6
CONTIN
  0
LAYER
  2
4
 70
     0
 62
     5
  6
CONTIN
  0
LAYER
  2
5
 70
     0
 62
     5
  6
DASHED
  0
LAYER
  2
6
 70
     0
 62
     5
  6
DASHED
  0
LAYER
  2
7
 70
     0
 62
     5
  6
CONTIN
  0
LAYER
  2
8
 70
     0
 62
     5
  6
DASHED
  0
LAYER
  2
9
 70
     0
 62
     7
  6
CONTIN
  0
LAYER
  2
10
 70
     0
 62
     7
  6
CONTIN
  0
LAYER
  2
11
 70
     0
 62
     6
  6
DASHED
  0
LAYER
  2
12
 70
     0
 62
     7
  6
DASHED
  0
LAYER
  2
13
 70
     0
 62
     5
  6
DASHED
  0
LAYER
  2
14
 70
     0
 62
     7
  6
CONTIN
  0
LAYER
  2
15
 70
     0
 62
     5
  6
CONTIN
  0
LAYER
  2
16
 70
     0
 62
     7
  6
CONTIN
  0
LAYER
  2
17
 70
     0
 62
     7
  6
CONTIN
  0
LAYER
  2
18
 70
     0
 62
     7
  6
CONTIN
  0
LAYER
  2
19
 70
     0
 62
     7
  6
CONTIN
  0
LAYER
  2
20
 70
     0
 62
     1
  6
CONTIN
  0
LAYER
  2
21
 70
     0
 62
     7
  6
CONTIN
  0
LAYER
  2
22
 70
     0
 62
     7
  6
DASHED
  0
LAYER
  2
23
 70
     0
 62
     7
  6
DASHED
  0
LAYER
  2
24
 70
     0
 62
     7
  6
CONTIN
  0
LAYER
  2
25
 70
     0
 62
     7
  6
CONTIN
  0
LAYER
  2
26
 70
     0
 62
     7
  6
CONTIN
  0
LAYER
  2
27
 70
     0
 62
     1
  6
CENTER
  0
LAYER
  2
28
 70
     0
 62
     7
  6
CONTIN
  0
LAYER
  2
29
 70
     0
 62
     3
  6
DASHED
  0
ENDTAB
  0
TABLE
  2
STYLE
 70
  0
  0
ENDTAB
  0
ENDSEC
  0
SECTION
  2
ENTITIES
  0
LINE
  8
22
 10
     0.000
 20
   508.333
 11
  3810.833
 21
   508.333
  0
LINE
  8
23
 10
     0.000
 20
     0.000
 11
     0.000
 21
  1016.667
  0
LINE
  8
23
 10
   650.417
 20
     0.000
 11
   650.417
 21
  1016.667
  0
LINE
  8
23
 10
  1277.917
 20
     0.000
 11
  1277.917
 21
  1016.667
  0
LINE
  8
23
 10
  1905.417
 20
     0.000
 11
  1905.417
 21
  1016.667
  0
LINE
  8
23
 10
  2532.917
 20
     0.000
 11
  2532.917
 21
  1016.667
  0
LINE
  8
23
 10
  3160.417
 20
     0.000
 11
  3160.417
 21
  1016.667
  0
LINE
  8
23
 10
  3810.833
 20
     0.000
 11
  3810.833
 21
  1016.667
  0
LINE
  8
22
 10
  -341.473
 20
  1016.667
 11
  -290.640
 21
   508.333
  0
LINE
  8
22
 10
  -290.640
 20
   508.333
 11
  -341.473
 21
     0.000
  0
LINE
  8
22
 10
  -423.140
 20
  1016.667
 11
  -341.473
 21
  1016.667
  0
LINE
  8
22
 10
  -423.140
 20
     0.000
 11
  -341.473
 21
     0.000
  0
LINE
  8
22
 10
     0.000
 20
   895.802
 11
   650.417
 21
   895.802
  0
LINE
  8
22
 10
   650.417
 20
   895.802
 11
  1277.917
 21
   895.802
  0
LINE
  8
22
 10
  1277.917
 20
   895.802
 11
  1905.417
 21
   895.802
  0
LINE
  8
22
 10
  1905.417
 20
   895.802
 11
  2532.917
 21
   895.802
  0
LINE
  8
22
 10
  2532.917
 20
   895.802
 11
  3160.417
 21
   895.802
  0
LINE
  8
22
 10
  3160.417
 20
   895.802
 11
  3810.833
 21
   895.802
  0
LINE
  8
22
 10
     0.000
 20
   774.938
 11
   650.417
 21
   774.938
  0
LINE
  8
22
 10
   650.417
 20
   774.938
 11
  1277.917
 21
   774.938
  0
LINE
  8
22
 10
  1277.917
 20
   774.938
 11
  1905.417
 21
   774.938
  0
LINE
  8
22
 10
  1905.417
 20
   774.938
 11
  2532.917
 21
   774.938
  0
LINE
  8
22
 10
  2532.917
 20
   774.938
 11
  3160.417
 21
   774.938
  0
LINE
  8
22
 10
  3160.417
 20
   774.938
 11
  3810.833
 21
   774.938
  0
LINE
  8
22
 10
     0.000
 20
   654.074
 11
   650.417
 21
   654.074
  0
LINE
  8
22
 10
   650.417
 20
   654.074
 11
  1277.917
 21
   654.074
  0
LINE
  8
22
 10
  1277.917
 20
   654.074
 11
  1905.417
 21
   654.074
  0
LINE
  8
22
 10
  1905.417
 20
   654.074
 11
  2532.917
 21
   654.074
  0
LINE
  8
22
 10
  2532.917
 20
   654.074
 11
  3160.417
 21
   654.074
  0
LINE
  8
22
 10
  3160.417
 20
   654.074
 11
  3810.833
 21
   654.074
  0
LINE
  8
22
 10
     0.000
 20
   533.209
 11
   650.417
 21
   533.209
  0
LINE
  8
22
 10
   650.417
 20
   533.209
 11
  1277.917
 21
   533.209
  0
LINE
  8
22
 10
  1277.917
 20
   533.209
 11
  1905.417
 21
   533.209
  0
LINE
  8
22
 10
  1905.417
 20
   533.209
 11
  2532.917
 21
   533.209
  0
LINE
  8
22
 10
  2532.917
 20
   533.209
 11
  3160.417
 21
   533.209
  0
LINE
  8
22
 10
  3160.417
 20
   533.209
 11
  3810.833
 21
   533.209
  0
LINE
  8
22
 10
     0.000
 20
   483.457
 11
   650.417
 21
   483.457
  0
LINE
  8
22
 10
   650.417
 20
   483.457
 11
  1277.917
 21
   483.457
  0
LINE
  8
22
 10
  1277.917
 20
   483.457
 11
  1905.417
 21
   483.457
  0
LINE
  8
22
 10
  1905.417
 20
   483.457
 11
  2532.917
 21
   483.457
  0
LINE
  8
22
 10
  2532.917
 20
   483.457
 11
  3160.417
 21
   483.457
  0
LINE
  8
22
 10
  3160.417
 20
   483.457
 11
  3810.833
 21
   483.457
  0
LINE
  8
22
 10
     0.000
 20
   362.593
 11
   650.417
 21
   362.593
  0
LINE
  8
22
 10
   650.417
 20
   362.593
 11
  1277.917
 21
   362.593
  0
LINE
  8
22
 10
  1277.917
 20
   362.593
 11
  1905.417
 21
   362.593
  0
LINE
  8
22
 10
  1905.417
 20
   362.593
 11
  2532.917
 21
   362.593
  0
LINE
  8
22
 10
  2532.917
 20
   362.593
 11
  3160.417
 21
   362.593
  0
LINE
  8
22
 10
  3160.417
 20
   362.593
 11
  3810.833
 21
   362.593
  0
LINE
  8
22
 10
     0.000
 20
   241.729
 11
   650.417
 21
   241.729
  0
LINE
  8
22
 10
   650.417
 20
   241.729
 11
  1277.917
 21
   241.729
  0
LINE
  8
22
 10
  1277.917
 20
   241.729
 11
  1905.417
 21
   241.729
  0
LINE
  8
22
 10
  1905.417
 20
   241.729
 11
  2532.917
 21
   241.729
  0
LINE
  8
22
 10
  2532.917
 20
   241.729
 11
  3160.417
 21
   241.729
  0
LINE
  8
22
 10
  3160.417
 20
   241.729
 11
  3810.833
 21
   241.729
  0
LINE
  8
22
 10
     0.000
 20
   120.864
 11
   650.417
 21
   120.864
  0
LINE
  8
22
 10
   650.417
 20
   120.864
 11
  1277.917
 21
   120.864
  0
LINE
  8
22
 10
  1277.917
 20
   120.864
 11
  1905.417
 21
   120.864
  0
LINE
  8
22
 10
  1905.417
 20
   120.864
 11
  2532.917
 21
   120.864
  0
LINE
  8
22
 10
  2532.917
 20
   120.864
 11
  3160.417
 21
   120.864
  0
LINE
  8
22
 10
  3160.417
 20
   120.864
 11
  3810.833
 21
   120.864
  0
LINE
  8
20
 10
     0.000
 20
  1016.667
 11
     0.000
 21
   508.333
  0
LINE
  8
20
 10
     0.000
 20
   508.333
 11
  3810.833
 21
   508.333
  0
LINE
  8
20
 10
  3810.833
 20
   508.333
 11
  3810.833
 21
  1016.667
  0
LINE
  8
20
 10
  3810.833
 20
  1016.667
 11
     0.000
 21
  1016.667
  0
TEXT
  8
20
 10
  1895.257
 20
   757.420
 40
    10.160
  1
 1
 50
     0.000
  0
LINE
  8
20
 10
     0.000
 20
   508.333
 11
     0.000
 21
     0.000
  0
LINE
  8
20
 10
     0.000
 20
     0.000
 11
  3810.833
 21
     0.000
  0
LINE
  8
20
 10
  3810.833
 20
     0.000
 11
  3810.833
 21
   508.333
  0
LINE
  8
20
 10
  3810.833
 20
   508.333
 11
     0.000
 21
   508.333
  0
TEXT
  8
20
 10
  1895.257
 20
   249.087
 40
    10.160
  1
 1
 50
     0.000
  0
LINE
  8
0
 10
  -634.839
 20
 -1238.181
 11
  4022.532
 21
 -1238.181
  0
LINE
  8
0
 10
  4022.532
 20
 -1238.181
 11
  4022.532
 21
  2254.847
  0
LINE
  8
0
 10
  4022.532
 20
  2254.847
 11
  -634.839
 21
  2254.847
  0
LINE
  8
0
 10
  -634.839
 20
  2254.847
 11
  -634.839
 21
 -1238.181
  0
LINE
  8
0
 10
  -634.839
 20
 -1122.911
 11
  4022.532
 21
 -1122.911
  0
TEXT
  8
0
 10
  1271.190
 20
 -1218.969
 40
    76.847
  1
Roof Design
 50
     0.000
  0
TEXT
  8
0
 10
  -596.415
 20
 -1218.969
 40
    76.847
  1
C163-027
 50
     0.000
  0
TEXT
  8
0
 10
  3138.796
 20
 -1218.969
 40
    76.847
  1
19/JAN/2026
 50
     0.000
  0
ENDSEC
  0
EOF
