999
SOURCE:MBS   PROGRAM:ANDWG   CELL:ANDWG-1   CLASS:PLAN   MODE:---
  0
SECTION
  2
HEADER
  9
$ACADVER
  1
AC1009
  9
$EXTMIN
 10
 0.00     
 20
 0.00     
  9
$EXTMAX
 10
 63437.855
 20
 44859.633
  9
$LIMMIN
 10
 0.00     
 20
 0.00     
  9
$LIMMAX
 10
 63437.855
 20
 44859.633
  9
$FILLMODE
 70
     1
  9
$HANDLING
 70
     0
  0
ENDSEC
  0
SECTION
  2
TABLES
  0
TABLE
  2
LTYPE
 70
1
  0
LTYPE
  2
CONTIN
 70
    64
  3
SOLID LINE
 72
    65
 73
     0
 40
0.0
  0
LTYPE
  2
CONTINUOUS
 70
    64
  3
SOLID LINE
 72
    65
 73
     0
 40
0.0
  0
LTYPE
  2
CENTER
 70
    64
  3
____ _ ____ _ ____ _ ____ _ ____ _ ____ _ ____
 72
    65
 73
     4
 40
     5.080
 49
     3.175
 49
    -0.635
 49
     0.635
 49
    -0.635
  0
LTYPE
  2
DASHED
 70
    64
  3
__ __ __ __ __ __ __ __ __ __ __ __ __ __ __ 
 72
    65
 73
     2
 40
    4.762
 49
    3.175
 49
   -1.587
  0
ENDTAB
  0
TABLE
  2
LAYER
 70
50
  0
LAYER
  2
0
 70
     0
 62
     7
  6
CONTIN
  0
LAYER
  2
1
 70
     0
 62
     7
  6
CONTIN
  0
LAYER
  2
2
 70
     0
 62
     6
  6
CONTIN
  0
LAYER
  2
3
 70
     0
 62
     7
  6
CONTIN
  0
LAYER
  2
4
 70
     0
 62
     7
  6
CENTER
  0
LAYER
  2
5
 70
     0
 62
     5
  6
DASHED
  0
LAYER
  2
6
 70
     0
 62
     6
  6
CONTIN
  0
LAYER
  2
7
 70
     0
 62
     7
  6
CONTIN
  0
LAYER
  2
8
 70
     0
 62
     8
  6
CENTER
  0
LAYER
  2
9
 70
     0
 62
     9
  6
DASHED
  0
LAYER
  2
10
 70
     0
 62
    10
  6
CONTIN
  0
LAYER
  2
11
 70
     0
 62
     7
  6
CONTIN
  0
LAYER
  2
12
 70
     0
 62
     6
  6
CONTIN
  0
LAYER
  2
13
 70
     0
 62
     1
  6
CONTIN
  0
LAYER
  2
14
 70
     0
 62
     7
  6
CONTIN
  0
LAYER
  2
15
 70
     0
 62
     7
  6
CONTIN
  0
LAYER
  2
16
 70
     0
 62
     7
  6
CONTIN
  0
LAYER
  2
17
 70
     0
 62
     5
  6
CONTIN
  0
LAYER
  2
18
 70
     0
 62
     7
  6
CONTIN
  0
LAYER
  2
19
 70
     0
 62
     7
  6
CONTIN
  0
LAYER
  2
20
 70
     0
 62
     7
  6
CONTIN
  0
LAYER
  2
21
 70
     0
 62
     7
  6
CONTIN
  0
LAYER
  2
22
 70
     0
 62
     7
  6
CONTIN
  0
LAYER
  2
23
 70
     0
 62
     7
  6
DASHED
  0
LAYER
  2
24
 70
     0
 62
     7
  6
CONTIN
  0
LAYER
  2
25
 70
     0
 62
     7
  6
CONTIN
  0
LAYER
  2
26
 70
     0
 62
     7
  6
CONTIN
  0
LAYER
  2
27
 70
     0
 62
     1
  6
CENTER
  0
LAYER
  2
28
 70
     0
 62
     7
  6
CONTIN
  0
LAYER
  2
29
 70
     0
 62
     7
  6
CONTIN
  0
LAYER
  2
30
 70
     0
 62
     7
  6
CONTIN
  0
LAYER
  2
31
 70
     0
 62
     7
  6
CONTIN
  0
LAYER
  2
32
 70
     0
 62
     7
  6
CONTIN
  0
LAYER
  2
33
 70
     0
 62
     7
  6
CONTIN
  0
LAYER
  2
34
 70
     0
 62
     7
  6
CONTIN
  0
LAYER
  2
35
 70
     0
 62
     7
  6
CONTIN
  0
LAYER
  2
36
 70
     0
 62
     7
  6
CONTIN
  0
LAYER
  2
37
 70
     0
 62
     7
  6
CONTIN
  0
LAYER
  2
38
 70
     0
 62
     7
  6
CONTIN
  0
LAYER
  2
39
 70
     0
 62
     7
  6
CONTIN
  0
LAYER
  2
40
 70
     0
 62
     7
  6
CONTIN
  0
LAYER
  2
41
 70
     0
 62
     7
  6
CONTIN
  0
LAYER
  2
42
 70
     0
 62
     7
  6
CONTIN
  0
LAYER
  2
43
 70
     0
 62
     7
  6
CONTIN
  0
LAYER
  2
44
 70
     0
 62
     7
  6
CONTIN
  0
LAYER
  2
45
 70
     0
 62
     7
  6
CONTIN
  0
LAYER
  2
46
 70
     0
 62
     7
  6
CONTIN
  0
LAYER
  2
47
 70
     0
 62
     7
  6
CONTIN
  0
LAYER
  2
48
 70
     0
 62
     7
  6
CONTIN
  0
LAYER
  2
49
 70
     0
 62
     7
  6
CONTIN
  0
ENDTAB
  0
TABLE
  2
STYLE
 70
  0
  0
STYLE
  2
SIMPLEX
 70
  0
 40
  0.000
 41
  1.000
 42
  1.000
 50
  0.000
 71
  0
  3
SIMPLEX
  0
STYLE
  2
ROMANS
 70
  0
 40
  0.000
 41
  1.000
 42
  1.000
 50
  0.000
 71
  0
  3
ROMANS
  0
STYLE
  2
OPEN
 70
  0
 40
  0.000
 41
  1.000
 42
  1.000
 50
  0.000
 71
  0
  3
SIMPLEX
  0
STYLE
  2
ARIAL
 70
  0
 40
  0.000
 41
  1.000
 42
  1.000
 50
  0.000
 71
  0
  3
ARIAL.TTF
  0
STYLE
  2
VERDANAB
 70
  0
 40
  0.000
 41
  1.000
 42
  1.000
 50
  0.000
 71
  0
  3
VERDANAB.TTF
  0
ENDTAB
  0
ENDSEC
  0
SECTION
  2
BLOCKS
  0
BLOCK
  8
2
  2
ARROW
 70
     0
 10
 0.00     
 20
 0.00     
  0
LINE
  8
2
 10
 0.00     
 20
 0.00     
 11
  -299.245
 21
   -49.874
  0
LINE
  8
2
 10
 0.00     
 20
 0.00     
 11
  -299.245
 21
    49.874
  0
LINE
  8
2
 10
  -299.245
 20
    49.874
 11
  -299.245
 21
   -49.874
  0
LINE
  8
2
 10
 0.00     
 20
 0.00     
 11
  -418.944
 21
 0.00     
  0
ENDBLK
  8
2
  0
BLOCK
  8
2
  2
ARROWP
 70
     0
 10
 0.00     
 20
 0.00     
  0
LINE
  8
2
 10
 0.00     
 20
 0.00     
 11
  -199.497
 21
   -33.249
  0
LINE
  8
2
 10
 0.00     
 20
 0.00     
 11
  -199.497
 21
    33.249
  0
LINE
  8
2
 10
  -199.497
 20
    33.249
 11
  -199.497
 21
   -33.249
  0
ENDBLK
  8
2
  0
BLOCK
  8
2
  2
ARROWA
 70
     0
 10
 0.00     
 20
 0.00     
  0
LINE
  8
3
 10
   199.497
 20
 0.00     
 11
 0.00     
 21
   -33.249
  0
LINE
  8
3
 10
   199.497
 20
 0.00     
 11
 0.00     
 21
    33.249
  0
LINE
  8
3
 10
 0.00     
 20
    33.249
 11
 0.00     
 21
   -33.249
  0
ENDBLK
  8
2
  0
BLOCK
  8
0
  2
ARROWB
 70
     0
 10
 0.00     
 20
 0.00     
  0
LINE
  8
0
 10
 0.00     
 20
 0.00     
 11
   -25.400
 21
    -4.233
  0
LINE
  8
0
 10
 0.00     
 20
 0.00     
 11
   -25.400
 21
     4.233
  0
LINE
  8
0
 10
   -25.400
 20
     4.233
 11
   -25.400
 21
    -4.233
  0
LINE
  8
0
 10
 0.00     
 20
 0.00     
 11
   -43.180
 21
 0.00     
  0
ENDBLK
  8
0
  0
BLOCK
  8
2
  2
TICK
 70
     0
 10
 0.00     
 20
 0.00     
  0
LINE
  8
2
 10
   -38.365
 20
   -38.365
 11
    38.365
 21
    38.365
  0
ENDBLK
  8
2
  0
BLOCK
  8
0
  2
CIRCLE
 70
     0
 10
 0.00     
 20
 0.00     
  0
CIRCLE
  8
1
 10
    0.000
 20
    0.000
 40
   25.400
  0
ENDBLK
  8
3
  0
BLOCK
  8
1
  2
BRACE
 70
     0
 10
 0.00     
 20
 0.00     
  0
LINE
  8
1
 10
   -12.700
 20
   -12.700
 11
   -12.700
 21
    12.700
  0
LINE
  8
1
 10
   -12.700
 20
    12.700
 11
    12.700
 21
    12.700
  0
LINE
  8
1
 10
    12.700
 20
    12.700
 11
    12.700
 21
   -12.700
  0
LINE
  8
1
 10
    12.700
 20
   -12.700
 11
   -12.700
 21
   -12.700
  0
ENDBLK
  8
1
  0
BLOCK
  8
0
  2
WCOL
 70
     0
 10
 0.00     
 20
 0.00     
  0
LINE
  8
0
 10
  -184.151
 20
   414.340
 11
   184.151
 21
   414.340
  0
LINE
  8
0
 10
 0.00     
 20
   414.340
 11
 0.00     
 21
 0.00     
  0
LINE
  8
0
 10
  -184.151
 20
 0.00     
 11
   184.151
 21
 0.00     
  0
ENDBLK
  8
0
  0
BLOCK
  8
0
  2
WCOL2
 70
     0
 10
 0.00     
 20
 0.00     
  0
LINE
  8
0
 10
  -184.151
 20
 0.00     
 11
   184.151
 21
 0.00     
  0
LINE
  8
0
 10
 0.00     
 20
   414.340
 11
 0.00     
 21
 0.00     
  0
ENDBLK
  8
0
  0
BLOCK
  8
0
  2
PCOL
 70
     0
 10
 0.00     
 20
 0.00     
  0
CIRCLE
  8
0
 10
 0.00     
 20
 0.00     
 40
   122.767
  0
ENDBLK
  8
0
  0
BLOCK
  8
0
  2
ZCOL
 70
     0
 10
 0.00     
 20
 0.00     
  0
LINE
  8
0
 10
   184.151
 20
   383.648
 11
   184.151
 21
   414.340
  0
LINE
  8
0
 10
   184.151
 20
   414.340
 11
 0.00     
 21
   414.340
  0
LINE
  8
0
 10
 0.00     
 20
   414.340
 11
 0.00     
 21
 0.00     
  0
LINE
  8
0
 10
 0.00     
 20
 0.00     
 11
  -184.151
 21
 0.00     
  0
LINE
  8
0
 10
  -184.151
 20
 0.00     
 11
  -184.151
 21
    30.692
  0
ENDBLK
  8
0
  0
BLOCK
  8
0
  2
TCOL
 70
     0
 10
 0.00     
 20
 0.00     
  0
LINE
  8
0
 10
  -107.421
 20
  -107.421
 11
   107.421
 21
  -107.421
  0
LINE
  8
0
 10
   107.421
 20
  -107.421
 11
   107.421
 21
   107.421
  0
LINE
  8
0
 10
   107.421
 20
   107.421
 11
  -107.421
 21
   107.421
  0
LINE
  8
0
 10
  -107.421
 20
   107.421
 11
  -107.421
 21
  -107.421
  0
ENDBLK
  8
0
  0
BLOCK
  8
0
  2
TCOL2
 70
     0
 10
 0.00     
 20
 0.00     
  0
LINE
  8
0
 10
  -138.113
 20
 0.00     
 11
   138.113
 21
 0.00     
  0
LINE
  8
0
 10
   138.113
 20
 0.00     
 11
   138.113
 21
   414.340
  0
LINE
  8
0
 10
   138.113
 20
   414.340
 11
  -138.113
 21
   414.340
  0
LINE
  8
0
 10
  -138.113
 20
   414.340
 11
  -138.113
 21
 0.00     
  0
ENDBLK
  8
0
  0
BLOCK
  8
0
  2
SCCOL
 70
     0
 10
 0.00     
 20
 0.00     
  0
LINE
  8
0
 10
   184.151
 20
   383.648
 11
   184.151
 21
   414.340
  0
LINE
  8
0
 10
   184.151
 20
   414.340
 11
 0.00     
 21
   414.340
  0
LINE
  8
0
 10
 0.00     
 20
   414.340
 11
 0.00     
 21
 0.00     
  0
LINE
  8
0
 10
 0.00     
 20
 0.00     
 11
   184.151
 21
 0.00     
  0
LINE
  8
0
 10
   184.151
 20
 0.00     
 11
   184.151
 21
    30.692
  0
ENDBLK
  8
0
  0
BLOCK
  8
0
  2
GCOL
 70
     0
 10
 0.00     
 20
 0.00     
  0
LINE
  8
0
 10
   276.227
 20
   230.189
 11
   245.535
 21
   230.189
  0
LINE
  8
0
 10
   276.227
 20
   414.340
 11
   276.227
 21
   230.189
  0
LINE
  8
0
 10
   276.227
 20
   414.340
 11
 0.00     
 21
   414.340
  0
LINE
  8
0
 10
 0.00     
 20
   414.340
 11
 0.00     
 21
 0.00     
  0
LINE
  8
0
 10
 0.00     
 20
 0.00     
 11
   184.151
 21
 0.00     
  0
LINE
  8
0
 10
   184.151
 20
 0.00     
 11
   184.151
 21
    30.692
  0
ENDBLK
  8
0
  0
BLOCK
  8
0
  2
UCOL
 70
     0
 10
 0.00     
 20
 0.00     
  0
LINE
  8
0
 10
   184.151
 20
   414.340
 11
 0.00     
 21
   414.340
  0
LINE
  8
0
 10
 0.00     
 20
   414.340
 11
 0.00     
 21
 0.00     
  0
LINE
  8
0
 10
 0.00     
 20
 0.00     
 11
   184.151
 21
 0.00     
  0
ENDBLK
  8
0
  0
BLOCK
  8
0
  2
DCCOL
 70
     0
 10
 0.00     
 20
 0.00     
  0
INSERT
  8
0
  2
SCCOL
 10
 0.00     
 20
 0.00     
 41
     1.000
 42
     1.000
 43
     1.000
 50
    0.000
  0
INSERT
  8
0
  2
SCCOL
 10
 0.00     
 20
 0.00     
 41
    -1.000
 42
     1.000
 43
     1.000
 50
    0.000
  0
ENDBLK
  8
0
  0
BLOCK
  8
0
  2
XCOL
 70
     0
 10
 0.00     
 20
 0.00     
  0
LINE
  8
0
 10
  -184.151
 20
   414.340
 11
   184.151
 21
   414.340
  0
LINE
  8
0
 10
  -184.151
 20
   414.340
 11
  -184.151
 21
 0.00     
  0
LINE
  8
0
 10
   184.151
 20
   414.340
 11
   184.151
 21
 0.00     
  0
LINE
  8
0
 10
  -184.151
 20
 0.00     
 11
   184.151
 21
 0.00     
  0
ENDBLK
  8
0
  0
BLOCK
  8
1
  2
BOLT_0
 70
     0
 10
 0.00     
 20
 0.00     
  0
CIRCLE
  8
1
 10
 0.00     
 20
 0.00     
 40
    25.400
  0
ENDBLK
  8
1
  0
BLOCK
  8
1
  2
BOLT_1
 70
     0
 10
 0.00     
 20
 0.00     
  0
CIRCLE
  8
1
 10
 0.00     
 20
 0.00     
 40
    25.400
  0
ENDBLK
  8
1
  0
BLOCK
  8
1
  2
BOLT_2
 70
     0
 10
 0.00     
 20
 0.00     
  0
CIRCLE
  8
1
 10
 0.00     
 20
 0.00     
 40
    25.400
  0
LINE
  8
1
 10
    25.400
 20
    25.400
 11
   -25.400
 21
   -25.400
  0
LINE
  8
1
 10
   -25.400
 20
    25.400
 11
    25.400
 21
   -25.400
  0
ENDBLK
  8
1
  0
BLOCK
  8
1
  2
BOLT_3
 70
     0
 10
 0.00     
 20
 0.00     
  0
CIRCLE
  8
1
 10
 0.00     
 20
 0.00     
 40
    25.400
  0
LINE
  8
1
 10
    31.750
 20
 0.00     
 11
   -31.750
 21
 0.00     
  0
LINE
  8
1
 10
 0.00     
 20
    25.400
 11
 0.00     
 21
   -25.400
  0
ENDBLK
  8
1
  0
BLOCK
  8
1
  2
BOLT_4
 70
     0
 10
 0.00     
 20
 0.00     
  0
LINE
  8
1
 10
    25.400
 20
    25.400
 11
   -25.400
 21
   -25.400
  0
LINE
  8
1
 10
   -25.400
 20
    25.400
 11
    25.400
 21
   -25.400
  0
ENDBLK
  8
1
  0
BLOCK
  8
1
  2
BOLT_5
 70
     0
 10
 0.00     
 20
 0.00     
  0
LINE
  8
1
 10
    31.750
 20
 0.00     
 11
   -31.750
 21
 0.00     
  0
LINE
  8
1
 10
 0.00     
 20
    25.400
 11
 0.00     
 21
   -25.400
  0
ENDBLK
  8
1
  0
BLOCK
  8
1
  2
BOLT_6
 70
     0
 10
 0.00     
 20
 0.00     
  0
CIRCLE
  8
1
 10
 0.00     
 20
 0.00     
 40
    25.400
  0
LINE
  8
1
 10
    31.750
 20
 0.00     
 11
   -31.750
 21
 0.00     
  0
LINE
  8
1
 10
 0.00     
 20
    31.750
 11
 0.00     
 21
 0.00     
  0
ENDBLK
  8
1
  0
BLOCK
  8
1
  2
BOLT_7
 70
     0
 10
 0.00     
 20
 0.00     
  0
CIRCLE
  8
1
 10
 0.00     
 20
 0.00     
 40
    25.400
  0
LINE
  8
1
 10
    25.400
 20
    25.400
 11
 0.00     
 21
 0.00     
  0
LINE
  8
1
 10
   -25.400
 20
    25.400
 11
 0.00     
 21
 0.00     
  0
ENDBLK
  8
1
  0
BLOCK
  8
9
  2
HILIGHT
 70
     0
 10
 0.00     
 20
 0.00     
  0
LINE
  8
9
 10
  -337.610
 20
  -153.459
 11
   337.610
 21
  -153.459
  0
LINE
  8
9
 10
  -337.610
 20
   567.799
 11
   337.610
 21
   567.799
  0
LINE
  8
9
 10
  -337.610
 20
  -153.459
 11
  -337.610
 21
   567.799
  0
LINE
  8
9
 10
   337.610
 20
  -153.459
 11
   337.610
 21
   567.799
  0
ENDBLK
  8
9
  0
BLOCK
  8
9
  2
HILIGHT2
 70
     0
 10
 0.00     
 20
 0.00     
  0
LINE
  8
9
 10
  -337.610
 20
  -230.189
 11
   337.610
 21
  -230.189
  0
LINE
  8
9
 10
  -337.610
 20
   644.529
 11
   337.610
 21
   644.529
  0
LINE
  8
9
 10
  -337.610
 20
  -230.189
 11
  -337.610
 21
   644.529
  0
LINE
  8
9
 10
   337.610
 20
  -230.189
 11
   337.610
 21
   644.529
  0
ENDBLK
  8
9
  0
BLOCK
  8
0
  2
MARROW
 70
     0
 10
 0.00     
 20
 0.00     
  0
LINE
  8
0
 10
 0.00     
 20
 0.00     
 11
    -2.540
 21
-0.4233333
  0
LINE
  8
0
 10
 0.00     
 20
 0.00     
 11
    -2.540
 21
0.42333336
  0
LINE
  8
0
 10
    -2.540
 20
0.42333336
 11
    -2.540
 21
-0.4233333
  0
ENDBLK
  8
0
  0
BLOCK
  8
0
  2
RFRM-1
 70
     0
 10
 -4833.298
 20
  6138.369
  0
LINE
  8
1
 10
 0.00     
 20
 0.00     
 11
 0.00     
 21
  4277.796
  0
LINE
  8
1
 10
 0.00     
 20
  4277.796
 11
  2718.183
 21
  4549.614
  0
LINE
  8
1
 10
  2718.183
 20
  4549.614
 11
  5436.365
 21
  4277.796
  0
LINE
  8
1
 10
  5436.365
 20
  4277.796
 11
  5436.365
 21
 0.00     
  0
LINE
  8
1
 10
 0.00     
 20
 0.00     
 11
 0.00     
 21
  4277.796
  0
LINE
  8
1
 10
  5436.365
 20
 0.00     
 11
  5436.365
 21
  4277.796
  0
LINE
  8
1
 10
 0.00     
 20
  4730.154
 11
 0.00     
 21
  5181.505
  0
INSERT
  8
1
  2
MARROW
 10
 0.00     
 20
  5000.965
 41
    71.079
 42
    71.079
 43
    71.079
 50
  180.000
  0
LINE
  8
1
 10
  5436.365
 20
  4730.154
 11
  5436.365
 21
  5181.505
  0
INSERT
  8
1
  2
MARROW
 10
  5436.365
 20
  5000.965
 41
    71.079
 42
    71.079
 43
    71.079
 50
  180.000
  0
LINE
  8
1
 10
 0.00     
 20
  5000.965
 11
  5977.986
 21
  5000.965
  0
CIRCLE
  8
13
 10
 0.00     
 20
  5362.045
 40
   180.540
  0
TEXT
  8
13
 7
SIMPLEX
 10
   -40.622
 20
  5280.802
 40
  162.486
  1
C
 50
    0.000
  0
CIRCLE
  8
13
 10
  5436.365
 20
  5362.045
 40
   180.540
  0
TEXT
  8
13
 7
SIMPLEX
 10
  5395.744
 20
  5280.802
 40
  162.486
  1
A
 50
    0.000
  0
TEXT
  8
14
 7
SIMPLEX
 10
  5977.986
 20
  5000.965
 40
  180.540
  1
COLUMN LINE
 50
    0.000
  0
LINE
  8
1
 10
 0.00     
 20
   -90.270
 11
 0.00     
 21
  -631.891
  0
INSERT
  8
1
  2
MARROW
 10
 0.00     
 20
   -90.270
 41
    71.079
 42
    71.079
 43
    71.079
 50
   90.000
  0
TEXT
  8
14
 7
SIMPLEX
 10
    90.270
 20
  -541.621
 40
  180.540
  1
V
 50
    0.000
  0
LINE
  8
1
 10
  -631.891
 20
 0.00     
 11
   -90.270
 21
 0.00     
  0
INSERT
  8
1
  2
MARROW
 10
   -90.270
 20
 0.00     
 41
    71.079
 42
    71.079
 43
    71.079
 50
    0.000
  0
TEXT
  8
14
 7
SIMPLEX
 10
  -541.621
 20
    90.270
 40
  180.540
  1
H
 50
    0.000
  0
ARC
  8
1
 10
 0.00     
 20
   180.540
 40
   361.081
 50
  30.000
 51
 150.000
  0
INSERT
  8
1
  2
MARROW
 10
  -312.705
 20
   361.080
 41
    71.079
 42
    71.079
 43
    71.079
 50
 -135.000
  0
TEXT
  8
14
 7
SIMPLEX
 10
   361.081
 20
   361.081
 40
  180.540
  1
M
 50
    0.000
  0
LINE
  8
1
 10
  5436.365
 20
   -90.270
 11
  5436.365
 21
  -631.891
  0
INSERT
  8
1
  2
MARROW
 10
  5436.365
 20
   -90.270
 41
    71.079
 42
    71.079
 43
    71.079
 50
   90.000
  0
TEXT
  8
14
 7
SIMPLEX
 10
  5526.635
 20
  -541.621
 40
  180.540
  1
V
 50
    0.000
  0
LINE
  8
1
 10
  4804.475
 20
 0.00     
 11
  5346.095
 21
 0.00     
  0
INSERT
  8
1
  2
MARROW
 10
  5346.095
 20
 0.00     
 41
    71.079
 42
    71.079
 43
    71.079
 50
    0.000
  0
TEXT
  8
14
 7
SIMPLEX
 10
  4894.745
 20
    90.270
 40
  180.540
  1
H
 50
    0.000
  0
ARC
  8
1
 10
  5436.365
 20
   180.540
 40
   361.081
 50
  30.000
 51
 150.000
  0
INSERT
  8
1
  2
MARROW
 10
  5123.661
 20
   361.080
 41
    71.079
 42
    71.079
 43
    71.079
 50
 -135.000
  0
TEXT
  8
14
 7
SIMPLEX
 10
  5797.446
 20
   361.081
 40
  180.540
  1
M
 50
    0.000
  0
TEXT
  8
14
 7
SIMPLEX
 10
 -4652.757
 20
  5867.559
 40
  180.540
  1
FRAME LINES:
 50
    0.000
  0
TEXT
  8
14
 7
SIMPLEX
 10
 -2486.274
 20
  5867.559
 40
  180.540
  1
1 2 3 4 5 6 7
 50
    0.000
  0
LINE
  8
0
 10
 -4833.298
 20
 -1083.242
 11
 13581.807
 21
 -1083.242
  0
LINE
  8
0
 10
 13581.807
 20
 -1083.242
 11
 13581.807
 21
  6138.369
  0
LINE
  8
0
 10
 13581.807
 20
  6138.369
 11
 -4833.298
 21
  6138.369
  0
LINE
  8
0
 10
 -4833.298
 20
  6138.369
 11
 -4833.298
 21
 -1083.242
  0
ENDBLK
  8
0
  0
BLOCK
  8
1
  2
EWTABL
 70
     0
 10
 0.00     
 20
 0.00     
  0
TEXT
  8
20
 7
SIMPLEX
 10
   180.540
 20
  -406.216
 40
  270.810
  1
ENDWALL COLUMN:
 50
    0.000
  0
TEXT
  8
20
 7
SIMPLEX
 10
  4603.776
 20
  -406.216
 40
  180.540
  1
BASIC COLUMN REACTIONS (kN)
 50
    0.000
  0
TEXT
  8
14
 7
SIMPLEX
 10
  1985.943
 20
  -767.296
 40
  180.540
  1
 
 50
    0.000
  0
TEXT
  8
14
 7
SIMPLEX
 10
  9839.444
 20
  -767.296
 40
  180.540
  1
Seis
 50
    0.000
  0
TEXT
  8
14
 7
SIMPLEX
 10
   270.810
 20
 -1038.106
 40
  180.540
  1
Frm
 50
    0.000
  0
TEXT
  8
14
 7
SIMPLEX
 10
  1128.377
 20
 -1038.106
 40
  180.540
  1
Col
 50
    0.000
  0
TEXT
  8
14
 7
SIMPLEX
 10
   270.810
 20
 -1308.917
 40
  180.540
  1
Line
 50
    0.000
  0
TEXT
  8
14
 7
SIMPLEX
 10
  1128.377
 20
 -1308.917
 40
  180.540
  1
Line
 50
    0.000
  0
TEXT
  8
14
 7
SIMPLEX
 10
  1985.943
 20
 -1038.106
 40
  180.540
  1
Dead
 50
    0.000
  0
TEXT
  8
14
 7
SIMPLEX
 10
  1985.943
 20
 -1308.917
 40
  180.540
  1
Vert
 50
    0.000
  0
TEXT
  8
14
 7
SIMPLEX
 10
  3339.995
 20
 -1038.106
 40
  180.540
  1
---Live---
 50
    0.000
  0
TEXT
  8
14
 7
SIMPLEX
 10
  3339.995
 20
 -1308.917
 40
  180.540
  1
Horz
 50
    0.000
  0
TEXT
  8
14
 7
SIMPLEX
 10
  4423.236
 20
 -1308.917
 40
  180.540
  1
Vert
 50
    0.000
  0
TEXT
  8
14
 7
SIMPLEX
 10
  5506.478
 20
 -1038.106
 40
  180.540
  1
Wind_Press
 50
    0.000
  0
TEXT
  8
14
 7
SIMPLEX
 10
  5506.478
 20
 -1308.917
 40
  180.540
  1
Horz
 50
    0.000
  0
TEXT
  8
14
 7
SIMPLEX
 10
  6589.719
 20
 -1308.917
 40
  180.540
  1
Vert
 50
    0.000
  0
TEXT
  8
14
 7
SIMPLEX
 10
  7672.961
 20
 -1038.106
 40
  180.540
  1
 Wind_Suct
 50
    0.000
  0
TEXT
  8
14
 7
SIMPLEX
 10
  7672.961
 20
 -1308.917
 40
  180.540
  1
Horz
 50
    0.000
  0
TEXT
  8
14
 7
SIMPLEX
 10
  8756.202
 20
 -1308.917
 40
  180.540
  1
Vert
 50
    0.000
  0
TEXT
  8
14
 7
SIMPLEX
 10
  9839.444
 20
 -1038.106
 40
  180.540
  1
Long
 50
    0.000
  0
TEXT
  8
14
 7
SIMPLEX
 10
  9839.444
 20
 -1308.917
 40
  180.540
  1
Vert
 50
    0.000
  0
TEXT
  8
13
 7
SIMPLEX
 10
   270.810
 20
 -1579.727
 40
  180.540
  1
1
 50
    0.000
  0
TEXT
  8
13
 7
SIMPLEX
 10
  1128.377
 20
 -1579.727
 40
  180.540
  1
B
 50
    0.000
  0
TEXT
  8
26
 7
SIMPLEX
 10
  1471.403
 20
 -1579.727
 40
  180.540
  1
    2.9
 50
    0.000
  0
TEXT
  8
26
 7
SIMPLEX
 10
  2825.455
 20
 -1579.727
 40
  180.540
  1
   -0.8a
 50
    0.000
  0
TEXT
  8
26
 7
SIMPLEX
 10
  3908.696
 20
 -1579.727
 40
  180.540
  1
    5.2
 50
    0.000
  0
TEXT
  8
26
 7
SIMPLEX
 10
  4991.938
 20
 -1579.727
 40
  180.540
  1
  -16.8
 50
    0.000
  0
TEXT
  8
26
 7
SIMPLEX
 10
  6075.180
 20
 -1579.727
 40
  180.540
  1
   -7.7
 50
    0.000
  0
TEXT
  8
26
 7
SIMPLEX
 10
  7158.421
 20
 -1579.727
 40
  180.540
  1
   20.5
 50
    0.000
  0
TEXT
  8
26
 7
SIMPLEX
 10
  8241.663
 20
 -1579.727
 40
  180.540
  1
   -1.9
 50
    0.000
  0
TEXT
  8
26
 7
SIMPLEX
 10
  9324.904
 20
 -1579.727
 40
  180.540
  1
    0.1
 50
    0.000
  0
TEXT
  8
13
 7
SIMPLEX
 10
   270.810
 20
 -1850.538
 40
  180.540
  1
7
 50
    0.000
  0
TEXT
  8
13
 7
SIMPLEX
 10
  1128.377
 20
 -1850.538
 40
  180.540
  1
B
 50
    0.000
  0
TEXT
  8
26
 7
SIMPLEX
 10
  1471.403
 20
 -1850.538
 40
  180.540
  1
    2.9
 50
    0.000
  0
TEXT
  8
26
 7
SIMPLEX
 10
  2825.455
 20
 -1850.538
 40
  180.540
  1
   -0.8a
 50
    0.000
  0
TEXT
  8
26
 7
SIMPLEX
 10
  3908.696
 20
 -1850.538
 40
  180.540
  1
    5.2
 50
    0.000
  0
TEXT
  8
26
 7
SIMPLEX
 10
  4991.938
 20
 -1850.538
 40
  180.540
  1
  -16.8
 50
    0.000
  0
TEXT
  8
26
 7
SIMPLEX
 10
  6075.180
 20
 -1850.538
 40
  180.540
  1
   -7.7
 50
    0.000
  0
TEXT
  8
26
 7
SIMPLEX
 10
  7158.421
 20
 -1850.538
 40
  180.540
  1
   20.5
 50
    0.000
  0
TEXT
  8
26
 7
SIMPLEX
 10
  8241.663
 20
 -1850.538
 40
  180.540
  1
   -1.9
 50
    0.000
  0
TEXT
  8
26
 7
SIMPLEX
 10
  9324.904
 20
 -1850.538
 40
  180.540
  1
    0.1
 50
    0.000
  0
TEXT
  8
26
 7
SIMPLEX
 10
  1489.457
 20
 -2392.158
 40
  180.540
  1
a - Out-of-Plane to column web reaction
 50
    0.000
  0
LINE
  8
0
 10
 0.00     
 20
 -2662.969
 11
 18415.104
 21
 -2662.969
  0
LINE
  8
0
 10
 18415.104
 20
 -2662.969
 11
 18415.104
 21
 0.00     
  0
LINE
  8
0
 10
 18415.104
 20
 0.00     
 11
 0.00     
 21
 0.00     
  0
LINE
  8
0
 10
 0.00     
 20
 0.00     
 11
 0.00     
 21
 -2662.969
  0
ENDBLK
  8
0
  0
BLOCK
  8
1
  2
EWBASE
 70
     0
 10
 0.00     
 20
 0.00     
  0
TEXT
  8
20
 7
SIMPLEX
 10
   180.540
 20
  -406.216
 40
  270.810
  1
ENDWALL COLUMN:
 50
    0.000
  0
TEXT
  8
20
 7
SIMPLEX
 10
  4513.506
 20
  -406.216
 40
  180.540
  1
ANCHOR BOLTS & BASE PLATES
 50
    0.000
  0
TEXT
  8
14
 7
SIMPLEX
 10
   270.810
 20
  -947.836
 40
  180.540
  1
Frm
 50
    0.000
  0
TEXT
  8
14
 7
SIMPLEX
 10
  1128.377
 20
  -947.836
 40
  180.540
  1
Col
 50
    0.000
  0
TEXT
  8
14
 7
SIMPLEX
 10
  2328.969
 20
  -947.836
 40
  180.540
  1
Anc._Bolt
 50
    0.000
  0
TEXT
  8
14
 7
SIMPLEX
 10
  4387.127
 20
  -947.836
 40
  180.540
  1
Base_Plate (mm)
 50
    0.000
  0
TEXT
  8
14
 7
SIMPLEX
 10
  7474.366
 20
  -947.836
 40
  180.540
  1
Grout
 50
    0.000
  0
TEXT
  8
14
 7
SIMPLEX
 10
   270.810
 20
 -1218.647
 40
  180.540
  1
Line
 50
    0.000
  0
TEXT
  8
14
 7
SIMPLEX
 10
  1128.377
 20
 -1218.647
 40
  180.540
  1
Line
 50
    0.000
  0
TEXT
  8
14
 7
SIMPLEX
 10
  2328.969
 20
 -1218.647
 40
  180.540
  1
Qty
 50
    0.000
  0
TEXT
  8
14
 7
SIMPLEX
 10
  3015.022
 20
 -1218.647
 40
  180.540
  1
Dia
 50
    0.000
  0
TEXT
  8
14
 7
SIMPLEX
 10
  4215.614
 20
 -1218.647
 40
  180.540
  1
Width
 50
    0.000
  0
TEXT
  8
14
 7
SIMPLEX
 10
  5244.693
 20
 -1218.647
 40
  180.540
  1
Length
 50
    0.000
  0
TEXT
  8
14
 7
SIMPLEX
 10
  6445.285
 20
 -1218.647
 40
  180.540
  1
Thick
 50
    0.000
  0
TEXT
  8
14
 7
SIMPLEX
 10
  7645.880
 20
 -1218.647
 40
  180.540
  1
(mm)
 50
    0.000
  0
LINE
  8
14
 10
   270.810
 20
 -1399.187
 11
   812.431
 21
 -1399.187
  0
LINE
  8
14
 10
  1128.377
 20
 -1399.187
 11
  2031.078
 21
 -1399.187
  0
LINE
  8
14
 10
  2328.969
 20
 -1399.187
 11
  2870.590
 21
 -1399.187
  0
LINE
  8
14
 10
  3015.022
 20
 -1399.187
 11
  3917.723
 21
 -1399.187
  0
LINE
  8
14
 10
  4215.614
 20
 -1399.187
 11
  5118.315
 21
 -1399.187
  0
LINE
  8
14
 10
  5244.693
 20
 -1399.187
 11
  6327.935
 21
 -1399.187
  0
LINE
  8
14
 10
  6445.285
 20
 -1399.187
 11
  7347.986
 21
 -1399.187
  0
LINE
  8
14
 10
  7474.366
 20
 -1399.187
 11
  8377.067
 21
 -1399.187
  0
TEXT
  8
13
 7
SIMPLEX
 10
   270.810
 20
 -1850.538
 40
  180.540
  1
1
 50
    0.000
  0
TEXT
  8
13
 7
SIMPLEX
 10
  1299.890
 20
 -1850.538
 40
  180.540
  1
B
 50
    0.000
  0
TEXT
  8
26
 7
SIMPLEX
 10
  2500.482
 20
 -1850.538
 40
  180.540
  1
4
 50
    0.000
  0
TEXT
  8
26
 7
SIMPLEX
 10
  3015.022
 20
 -1850.538
 40
  180.540
  1
   20
 50
    0.000
  0
TEXT
  8
26
 7
SIMPLEX
 10
  4215.614
 20
 -1850.538
 40
  180.540
  1
  200
 50
    0.000
  0
TEXT
  8
26
 7
SIMPLEX
 10
  5244.693
 20
 -1850.538
 40
  180.540
  1
  400
 50
    0.000
  0
TEXT
  8
26
 7
SIMPLEX
 10
  6445.285
 20
 -1850.538
 40
  180.540
  1
   16
 50
    0.000
  0
TEXT
  8
26
 7
SIMPLEX
 10
  7474.366
 20
 -1850.538
 40
  180.540
  1
    0
 50
    0.000
  0
TEXT
  8
13
 7
SIMPLEX
 10
   270.810
 20
 -2211.618
 40
  180.540
  1
7
 50
    0.000
  0
TEXT
  8
13
 7
SIMPLEX
 10
  1299.890
 20
 -2211.618
 40
  180.540
  1
B
 50
    0.000
  0
TEXT
  8
26
 7
SIMPLEX
 10
  2500.482
 20
 -2211.618
 40
  180.540
  1
4
 50
    0.000
  0
TEXT
  8
26
 7
SIMPLEX
 10
  3015.022
 20
 -2211.618
 40
  180.540
  1
   20
 50
    0.000
  0
TEXT
  8
26
 7
SIMPLEX
 10
  4215.614
 20
 -2211.618
 40
  180.540
  1
  200
 50
    0.000
  0
TEXT
  8
26
 7
SIMPLEX
 10
  5244.693
 20
 -2211.618
 40
  180.540
  1
  400
 50
    0.000
  0
TEXT
  8
26
 7
SIMPLEX
 10
  6445.285
 20
 -2211.618
 40
  180.540
  1
   16
 50
    0.000
  0
TEXT
  8
26
 7
SIMPLEX
 10
  7474.366
 20
 -2211.618
 40
  180.540
  1
    0
 50
    0.000
  0
LINE
  8
0
 10
 0.00     
 20
 -2392.158
 11
  9388.093
 21
 -2392.158
  0
LINE
  8
0
 10
  9388.093
 20
 -2392.158
 11
  9388.093
 21
 0.00     
  0
LINE
  8
0
 10
  9388.093
 20
 0.00     
 11
 0.00     
 21
 0.00     
  0
LINE
  8
0
 10
 0.00     
 20
 0.00     
 11
 0.00     
 21
 -2392.158
  0
ENDBLK
  8
0
  0
BLOCK
  8
1
  2
BOLT01
 70
     0
 10
 0.00     
 20
 0.00     
  0
TEXT
  8
20
 7
SIMPLEX
 10
   180.540
 20
  -541.621
 40
  270.810
  1
RIGID FRAME:
 50
    0.000
  0
TEXT
  8
20
 7
SIMPLEX
 10
  3430.265
 20
  -541.621
 40
  180.540
  1
ANCHOR BOLTS & BASE PLATES
 50
    0.000
  0
TEXT
  8
14
 7
SIMPLEX
 10
   270.810
 20
 -1263.782
 40
  180.540
  1
Frm
 50
    0.000
  0
TEXT
  8
14
 7
SIMPLEX
 10
  1128.377
 20
 -1263.782
 40
  180.540
  1
Col
 50
    0.000
  0
TEXT
  8
14
 7
SIMPLEX
 10
  2157.456
 20
 -1263.782
 40
  180.540
  1
Anc._Bolt
 50
    0.000
  0
TEXT
  8
14
 7
SIMPLEX
 10
  4044.101
 20
 -1263.782
 40
  180.540
  1
Base_Plate (mm)
 50
    0.000
  0
TEXT
  8
14
 7
SIMPLEX
 10
  7131.339
 20
 -1263.782
 40
  180.540
  1
Grout
 50
    0.000
  0
TEXT
  8
14
 7
SIMPLEX
 10
   270.810
 20
 -1534.592
 40
  180.540
  1
Line
 50
    0.000
  0
TEXT
  8
14
 7
SIMPLEX
 10
  1128.377
 20
 -1534.592
 40
  180.540
  1
Line
 50
    0.000
  0
TEXT
  8
14
 7
SIMPLEX
 10
  2157.456
 20
 -1534.592
 40
  180.540
  1
Qty
 50
    0.000
  0
TEXT
  8
14
 7
SIMPLEX
 10
  2843.509
 20
 -1534.592
 40
  180.540
  1
Dia
 50
    0.000
  0
TEXT
  8
14
 7
SIMPLEX
 10
  3872.588
 20
 -1534.592
 40
  180.540
  1
Width
 50
    0.000
  0
TEXT
  8
14
 7
SIMPLEX
 10
  4901.667
 20
 -1534.592
 40
  180.540
  1
Length
 50
    0.000
  0
TEXT
  8
14
 7
SIMPLEX
 10
  6102.259
 20
 -1534.592
 40
  180.540
  1
Thick
 50
    0.000
  0
TEXT
  8
14
 7
SIMPLEX
 10
  7302.853
 20
 -1534.592
 40
  180.540
  1
(mm)
 50
    0.000
  0
LINE
  8
14
 10
   270.810
 20
 -1715.132
 11
   992.971
 21
 -1715.132
  0
LINE
  8
14
 10
  1128.377
 20
 -1715.132
 11
  2031.078
 21
 -1715.132
  0
LINE
  8
14
 10
  2157.456
 20
 -1715.132
 11
  2699.077
 21
 -1715.132
  0
LINE
  8
14
 10
  2843.509
 20
 -1715.132
 11
  3746.210
 21
 -1715.132
  0
LINE
  8
14
 10
  3872.588
 20
 -1715.132
 11
  4775.289
 21
 -1715.132
  0
LINE
  8
14
 10
  4901.667
 20
 -1715.132
 11
  5984.908
 21
 -1715.132
  0
LINE
  8
14
 10
  6102.259
 20
 -1715.132
 11
  7004.960
 21
 -1715.132
  0
LINE
  8
14
 10
  7131.339
 20
 -1715.132
 11
  8034.041
 21
 -1715.132
  0
TEXT
  8
13
 7
SIMPLEX
 10
   270.810
 20
 -2166.483
 40
  180.540
  1
1*
 50
    0.000
  0
TEXT
  8
13
 7
SIMPLEX
 10
  1128.377
 20
 -2166.483
 40
  180.540
  1
C
 50
    0.000
  0
TEXT
  8
14
 7
SIMPLEX
 10
  8846.475
 20
 -2166.483
 40
  180.540
  1
Moment connection. See table.
 50
    0.000
  0
TEXT
  8
26
 7
SIMPLEX
 10
  2328.969
 20
 -2166.483
 40
  180.540
  1
8
 50
    0.000
  0
TEXT
  8
26
 7
SIMPLEX
 10
  2843.509
 20
 -2166.483
 40
  180.540
  1
   24
 50
    0.000
  0
TEXT
  8
26
 7
SIMPLEX
 10
  3872.588
 20
 -2166.483
 40
  180.540
  1
  200
 50
    0.000
  0
TEXT
  8
26
 7
SIMPLEX
 10
  4901.667
 20
 -2166.483
 40
  180.540
  1
  706
 50
    0.000
  0
TEXT
  8
26
 7
SIMPLEX
 10
  6102.259
 20
 -2166.483
 40
  180.540
  1
   16
 50
    0.000
  0
TEXT
  8
26
 7
SIMPLEX
 10
  7131.339
 20
 -2166.483
 40
  180.540
  1
    0
 50
    0.000
  0
TEXT
  8
13
 7
SIMPLEX
 10
   270.810
 20
 -2437.293
 40
  180.540
  1
1*
 50
    0.000
  0
TEXT
  8
13
 7
SIMPLEX
 10
  1128.377
 20
 -2437.293
 40
  180.540
  1
A
 50
    0.000
  0
TEXT
  8
14
 7
SIMPLEX
 10
  8846.475
 20
 -2437.293
 40
  180.540
  1
Moment connection. See table.
 50
    0.000
  0
TEXT
  8
26
 7
SIMPLEX
 10
  2328.969
 20
 -2437.293
 40
  180.540
  1
8
 50
    0.000
  0
TEXT
  8
26
 7
SIMPLEX
 10
  2843.509
 20
 -2437.293
 40
  180.540
  1
   24
 50
    0.000
  0
TEXT
  8
26
 7
SIMPLEX
 10
  3872.588
 20
 -2437.293
 40
  180.540
  1
  200
 50
    0.000
  0
TEXT
  8
26
 7
SIMPLEX
 10
  4901.667
 20
 -2437.293
 40
  180.540
  1
  706
 50
    0.000
  0
TEXT
  8
26
 7
SIMPLEX
 10
  6102.259
 20
 -2437.293
 40
  180.540
  1
   16
 50
    0.000
  0
TEXT
  8
26
 7
SIMPLEX
 10
  7131.339
 20
 -2437.293
 40
  180.540
  1
    0
 50
    0.000
  0
TEXT
  8
13
 7
SIMPLEX
 10
   270.810
 20
 -3249.725
 40
  180.540
  1
1*
 50
    0.000
  0
TEXT
  8
14
 7
SIMPLEX
 10
  1128.377
 20
 -3249.725
 40
  180.540
  1
Frame lines:
 50
    0.000
  0
TEXT
  8
13
 7
SIMPLEX
 10
  3701.074
 20
 -3249.725
 40
  180.540
  1
1
 50
    0.000
  0
TEXT
  8
13
 7
SIMPLEX
 10
  4215.614
 20
 -3249.725
 40
  180.540
  1
7
 50
    0.000
  0
LINE
  8
0
 10
 0.00     
 20
 -3610.805
 11
 18415.104
 21
 -3610.805
  0
LINE
  8
0
 10
 18415.104
 20
 -3610.805
 11
 18415.104
 21
 0.00     
  0
LINE
  8
0
 10
 18415.104
 20
 0.00     
 11
 0.00     
 21
 0.00     
  0
LINE
  8
0
 10
 0.00     
 20
 0.00     
 11
 0.00     
 21
 -3610.805
  0
ENDBLK
  8
0
  0
BLOCK
  8
1
  2
BOLT02
 70
     0
 10
 0.00     
 20
 0.00     
  0
TEXT
  8
20
 7
SIMPLEX
 10
   180.540
 20
  -541.621
 40
  270.810
  1
RIGID FRAME:
 50
    0.000
  0
TEXT
  8
20
 7
SIMPLEX
 10
  3430.265
 20
  -541.621
 40
  180.540
  1
ANCHOR BOLTS & BASE PLATES
 50
    0.000
  0
TEXT
  8
14
 7
SIMPLEX
 10
   270.810
 20
 -1263.782
 40
  180.540
  1
Frm
 50
    0.000
  0
TEXT
  8
14
 7
SIMPLEX
 10
  1128.377
 20
 -1263.782
 40
  180.540
  1
Col
 50
    0.000
  0
TEXT
  8
14
 7
SIMPLEX
 10
  2157.456
 20
 -1263.782
 40
  180.540
  1
Anc._Bolt
 50
    0.000
  0
TEXT
  8
14
 7
SIMPLEX
 10
  4044.101
 20
 -1263.782
 40
  180.540
  1
Base_Plate (mm)
 50
    0.000
  0
TEXT
  8
14
 7
SIMPLEX
 10
  7131.339
 20
 -1263.782
 40
  180.540
  1
Grout
 50
    0.000
  0
TEXT
  8
14
 7
SIMPLEX
 10
   270.810
 20
 -1534.592
 40
  180.540
  1
Line
 50
    0.000
  0
TEXT
  8
14
 7
SIMPLEX
 10
  1128.377
 20
 -1534.592
 40
  180.540
  1
Line
 50
    0.000
  0
TEXT
  8
14
 7
SIMPLEX
 10
  2157.456
 20
 -1534.592
 40
  180.540
  1
Qty
 50
    0.000
  0
TEXT
  8
14
 7
SIMPLEX
 10
  2843.509
 20
 -1534.592
 40
  180.540
  1
Dia
 50
    0.000
  0
TEXT
  8
14
 7
SIMPLEX
 10
  3872.588
 20
 -1534.592
 40
  180.540
  1
Width
 50
    0.000
  0
TEXT
  8
14
 7
SIMPLEX
 10
  4901.667
 20
 -1534.592
 40
  180.540
  1
Length
 50
    0.000
  0
TEXT
  8
14
 7
SIMPLEX
 10
  6102.259
 20
 -1534.592
 40
  180.540
  1
Thick
 50
    0.000
  0
TEXT
  8
14
 7
SIMPLEX
 10
  7302.853
 20
 -1534.592
 40
  180.540
  1
(mm)
 50
    0.000
  0
LINE
  8
14
 10
   270.810
 20
 -1715.132
 11
   992.971
 21
 -1715.132
  0
LINE
  8
14
 10
  1128.377
 20
 -1715.132
 11
  2031.078
 21
 -1715.132
  0
LINE
  8
14
 10
  2157.456
 20
 -1715.132
 11
  2699.077
 21
 -1715.132
  0
LINE
  8
14
 10
  2843.509
 20
 -1715.132
 11
  3746.210
 21
 -1715.132
  0
LINE
  8
14
 10
  3872.588
 20
 -1715.132
 11
  4775.289
 21
 -1715.132
  0
LINE
  8
14
 10
  4901.667
 20
 -1715.132
 11
  5984.908
 21
 -1715.132
  0
LINE
  8
14
 10
  6102.259
 20
 -1715.132
 11
  7004.960
 21
 -1715.132
  0
LINE
  8
14
 10
  7131.339
 20
 -1715.132
 11
  8034.041
 21
 -1715.132
  0
TEXT
  8
13
 7
SIMPLEX
 10
   270.810
 20
 -2166.483
 40
  180.540
  1
2*
 50
    0.000
  0
TEXT
  8
13
 7
SIMPLEX
 10
  1128.377
 20
 -2166.483
 40
  180.540
  1
C
 50
    0.000
  0
TEXT
  8
14
 7
SIMPLEX
 10
  8846.475
 20
 -2166.483
 40
  180.540
  1
Moment connection. See table.
 50
    0.000
  0
TEXT
  8
26
 7
SIMPLEX
 10
  2328.969
 20
 -2166.483
 40
  180.540
  1
8
 50
    0.000
  0
TEXT
  8
26
 7
SIMPLEX
 10
  2843.509
 20
 -2166.483
 40
  180.540
  1
   24
 50
    0.000
  0
TEXT
  8
26
 7
SIMPLEX
 10
  3872.588
 20
 -2166.483
 40
  180.540
  1
  200
 50
    0.000
  0
TEXT
  8
26
 7
SIMPLEX
 10
  4901.667
 20
 -2166.483
 40
  180.540
  1
  706
 50
    0.000
  0
TEXT
  8
26
 7
SIMPLEX
 10
  6102.259
 20
 -2166.483
 40
  180.540
  1
   16
 50
    0.000
  0
TEXT
  8
26
 7
SIMPLEX
 10
  7131.339
 20
 -2166.483
 40
  180.540
  1
    0
 50
    0.000
  0
TEXT
  8
13
 7
SIMPLEX
 10
   270.810
 20
 -2437.293
 40
  180.540
  1
2*
 50
    0.000
  0
TEXT
  8
13
 7
SIMPLEX
 10
  1128.377
 20
 -2437.293
 40
  180.540
  1
A
 50
    0.000
  0
TEXT
  8
14
 7
SIMPLEX
 10
  8846.475
 20
 -2437.293
 40
  180.540
  1
Moment connection. See table.
 50
    0.000
  0
TEXT
  8
26
 7
SIMPLEX
 10
  2328.969
 20
 -2437.293
 40
  180.540
  1
8
 50
    0.000
  0
TEXT
  8
26
 7
SIMPLEX
 10
  2843.509
 20
 -2437.293
 40
  180.540
  1
   24
 50
    0.000
  0
TEXT
  8
26
 7
SIMPLEX
 10
  3872.588
 20
 -2437.293
 40
  180.540
  1
  200
 50
    0.000
  0
TEXT
  8
26
 7
SIMPLEX
 10
  4901.667
 20
 -2437.293
 40
  180.540
  1
  706
 50
    0.000
  0
TEXT
  8
26
 7
SIMPLEX
 10
  6102.259
 20
 -2437.293
 40
  180.540
  1
   16
 50
    0.000
  0
TEXT
  8
26
 7
SIMPLEX
 10
  7131.339
 20
 -2437.293
 40
  180.540
  1
    0
 50
    0.000
  0
TEXT
  8
13
 7
SIMPLEX
 10
   270.810
 20
 -3249.725
 40
  180.540
  1
2*
 50
    0.000
  0
TEXT
  8
14
 7
SIMPLEX
 10
  1128.377
 20
 -3249.725
 40
  180.540
  1
Frame lines:
 50
    0.000
  0
TEXT
  8
13
 7
SIMPLEX
 10
  3701.074
 20
 -3249.725
 40
  180.540
  1
2
 50
    0.000
  0
TEXT
  8
13
 7
SIMPLEX
 10
  4215.614
 20
 -3249.725
 40
  180.540
  1
3
 50
    0.000
  0
TEXT
  8
13
 7
SIMPLEX
 10
  4730.153
 20
 -3249.725
 40
  180.540
  1
4
 50
    0.000
  0
TEXT
  8
13
 7
SIMPLEX
 10
  5244.693
 20
 -3249.725
 40
  180.540
  1
5
 50
    0.000
  0
TEXT
  8
13
 7
SIMPLEX
 10
  5759.232
 20
 -3249.725
 40
  180.540
  1
6
 50
    0.000
  0
LINE
  8
0
 10
 0.00     
 20
 -3610.805
 11
 18415.104
 21
 -3610.805
  0
LINE
  8
0
 10
 18415.104
 20
 -3610.805
 11
 18415.104
 21
 0.00     
  0
LINE
  8
0
 10
 18415.104
 20
 0.00     
 11
 0.00     
 21
 0.00     
  0
LINE
  8
0
 10
 0.00     
 20
 0.00     
 11
 0.00     
 21
 -3610.805
  0
ENDBLK
  8
0
  0
BLOCK
  8
1
  2
BRACET
 70
     0
 10
 0.00     
 20
 0.00     
  0
TEXT
  8
20
 7
SIMPLEX
 10
    90.270
 20
  -406.216
 40
  270.810
  1
BUILDING BRACING REACTIONS
 50
    0.000
  0
TEXT
  8
14
 7
SIMPLEX
 10
  3701.076
 20
  -947.836
 40
  180.540
  1
Reactions in plane of wall
 50
    0.000
  0
TEXT
  8
14
 7
SIMPLEX
 10
  3881.616
 20
 -1218.647
 40
  180.540
  1
Reactions(kN)
 50
    0.000
  0
TEXT
  8
14
 7
SIMPLEX
 10
  6589.718
 20
 -1218.647
 40
  180.540
  1
Panel_Shear
 50
    0.000
  0
LINE
  8
14
 10
    90.270
 20
 -1399.187
 11
   586.756
 21
 -1399.187
  0
TEXT
  8
14
 7
SIMPLEX
 10
   631.891
 20
 -1489.457
 40
  180.540
  1
Wall
 50
    0.000
  0
LINE
  8
14
 10
  1354.052
 20
 -1399.187
 11
  1715.132
 21
 -1399.187
  0
TEXT
  8
14
 7
SIMPLEX
 10
  1895.673
 20
 -1489.457
 40
  180.540
  1
Col
 50
    0.000
  0
TEXT
  8
14
 7
SIMPLEX
 10
  3701.076
 20
 -1489.457
 40
  180.540
  1
Wind
 50
    0.000
  0
TEXT
  8
14
 7
SIMPLEX
 10
  5145.396
 20
 -1489.457
 40
  180.540
  1
Seismic
 50
    0.000
  0
TEXT
  8
14
 7
SIMPLEX
 10
  6950.798
 20
 -1489.457
 40
  180.540
  1
( N/m )
 50
    0.000
  0
TEXT
  8
14
 7
SIMPLEX
 10
    90.270
 20
 -1760.268
 40
  180.540
  1
Loc
 50
    0.000
  0
TEXT
  8
14
 7
SIMPLEX
 10
   992.971
 20
 -1760.268
 40
  180.540
  1
Line
 50
    0.000
  0
TEXT
  8
14
 7
SIMPLEX
 10
  1895.673
 20
 -1760.268
 40
  180.540
  1
Line
 50
    0.000
  0
TEXT
  8
14
 7
SIMPLEX
 10
  3701.076
 20
 -1760.268
 40
  180.540
  1
Horz
 50
    0.000
  0
TEXT
  8
14
 7
SIMPLEX
 10
  5506.477
 20
 -1760.268
 40
  180.540
  1
Horz
 50
    0.000
  0
TEXT
  8
14
 7
SIMPLEX
 10
  6589.718
 20
 -1760.268
 40
  180.540
  1
Wind
 50
    0.000
  0
TEXT
  8
14
 7
SIMPLEX
 10
  7492.418
 20
 -1760.268
 40
  180.540
  1
Seis
 50
    0.000
  0
LINE
  8
14
 10
    90.270
 20
 -1940.808
 11
   812.431
 21
 -1940.808
  0
LINE
  8
14
 10
   992.971
 20
 -1940.808
 11
  1715.132
 21
 -1940.808
  0
LINE
  8
14
 10
  1895.673
 20
 -1940.808
 11
  2798.374
 21
 -1940.808
  0
LINE
  8
14
 10
  3701.076
 20
 -1940.808
 11
  4423.236
 21
 -1940.808
  0
LINE
  8
14
 10
  5506.477
 20
 -1940.808
 11
  6228.638
 21
 -1940.808
  0
LINE
  8
14
 10
  6589.718
 20
 -1940.808
 11
  7311.879
 21
 -1940.808
  0
LINE
  8
14
 10
  7492.418
 20
 -1940.808
 11
  8214.580
 21
 -1940.808
  0
TEXT
  8
13
 7
SIMPLEX
 10
    90.270
 20
 -2392.158
 40
  180.540
  1
L_EW
 50
    0.000
  0
TEXT
  8
13
 7
SIMPLEX
 10
  1173.512
 20
 -2392.158
 40
  180.540
  1
1
 50
    0.000
  0
TEXT
  8
26
 7
SIMPLEX
 10
  8575.659
 20
 -2392.158
 40
  180.540
  1
(h)
 50
    0.000
  0
TEXT
  8
13
 7
SIMPLEX
 10
    90.270
 20
 -2662.969
 40
  180.540
  1
F_SW
 50
    0.000
  0
TEXT
  8
13
 7
SIMPLEX
 10
  1173.512
 20
 -2662.969
 40
  180.540
  1
A
 50
    0.000
  0
TEXT
  8
13
 7
SIMPLEX
 10
  1895.673
 20
 -2662.969
 40
  180.540
  1
1,2
 50
    0.000
  0
TEXT
  8
26
 7
SIMPLEX
 10
  2978.915
 20
 -2662.969
 40
  180.540
  1
*
 50
    0.000
  0
TEXT
  8
26
 7
SIMPLEX
 10
  3701.076
 20
 -2662.969
 40
  180.540
  1
  7.9
 50
    0.000
  0
TEXT
  8
26
 7
SIMPLEX
 10
  5325.937
 20
 -2662.969
 40
  180.540
  1
  1.6
 50
    0.000
  0
TEXT
  8
13
 7
SIMPLEX
 10
  1895.673
 20
 -2933.779
 40
  180.540
  1
6,7
 50
    0.000
  0
TEXT
  8
26
 7
SIMPLEX
 10
  2978.915
 20
 -2933.779
 40
  180.540
  1
*
 50
    0.000
  0
TEXT
  8
26
 7
SIMPLEX
 10
  3701.076
 20
 -2933.779
 40
  180.540
  1
  7.9
 50
    0.000
  0
TEXT
  8
26
 7
SIMPLEX
 10
  5325.937
 20
 -2933.779
 40
  180.540
  1
  1.6
 50
    0.000
  0
TEXT
  8
13
 7
SIMPLEX
 10
    90.270
 20
 -3204.590
 40
  180.540
  1
R_EW
 50
    0.000
  0
TEXT
  8
13
 7
SIMPLEX
 10
  1173.512
 20
 -3204.590
 40
  180.540
  1
7
 50
    0.000
  0
TEXT
  8
26
 7
SIMPLEX
 10
  8575.659
 20
 -3204.590
 40
  180.540
  1
(h)
 50
    0.000
  0
TEXT
  8
13
 7
SIMPLEX
 10
    90.270
 20
 -3475.400
 40
  180.540
  1
B_SW
 50
    0.000
  0
TEXT
  8
13
 7
SIMPLEX
 10
  1173.512
 20
 -3475.400
 40
  180.540
  1
C
 50
    0.000
  0
TEXT
  8
13
 7
SIMPLEX
 10
  1895.673
 20
 -3475.400
 40
  180.540
  1
7,6
 50
    0.000
  0
TEXT
  8
26
 7
SIMPLEX
 10
  2978.915
 20
 -3475.400
 40
  180.540
  1
*
 50
    0.000
  0
TEXT
  8
26
 7
SIMPLEX
 10
  3701.076
 20
 -3475.400
 40
  180.540
  1
  7.9
 50
    0.000
  0
TEXT
  8
26
 7
SIMPLEX
 10
  5325.937
 20
 -3475.400
 40
  180.540
  1
  1.6
 50
    0.000
  0
TEXT
  8
13
 7
SIMPLEX
 10
  1895.673
 20
 -3746.210
 40
  180.540
  1
2,1
 50
    0.000
  0
TEXT
  8
26
 7
SIMPLEX
 10
  2978.915
 20
 -3746.210
 40
  180.540
  1
*
 50
    0.000
  0
TEXT
  8
26
 7
SIMPLEX
 10
  3701.076
 20
 -3746.210
 40
  180.540
  1
  7.9
 50
    0.000
  0
TEXT
  8
26
 7
SIMPLEX
 10
  5325.937
 20
 -3746.210
 40
  180.540
  1
  1.6
 50
    0.000
  0
TEXT
  8
14
 7
SIMPLEX
 10
  8395.119
 20
 -1760.268
 40
  180.540
  1
Note
 50
    0.000
  0
LINE
  8
14
 10
  8395.119
 20
 -1940.808
 11
  9117.280
 21
 -1940.808
  0
TEXT
  8
26
 7
SIMPLEX
 10
    90.270
 20
 -4287.831
 40
  180.540
  1
(h)Rigid frame at endwall
 50
    0.000
  0
TEXT
  8
26
 7
SIMPLEX
 10
    90.270
 20
 -5100.261
 40
  180.540
  1
*See RF reactions table for vertical and
 50
    0.000
  0
TEXT
  8
26
 7
SIMPLEX
 10
    90.270
 20
 -5371.071
 40
  180.540
  1
 horizontal reactions in plane of the rigid frame.
 50
    0.000
  0
TEXT
  8
1
 7
SIMPLEX
 10
    90.270
 20
 -5912.692
 40
  180.540
  1
Reactions for seismic represent shear force, Eh
 50
    0.000
  0
TEXT
  8
1
 7
SIMPLEX
 10
    90.270
 20
 -6183.502
 40
  180.540
  1
Reaction values shown are unfactored
 50
    0.000
  0
LINE
  8
0
 10
 0.00     
 20
 -6364.042
 11
  9207.553
 21
 -6364.042
  0
LINE
  8
0
 10
  9207.553
 20
 -6364.042
 11
  9207.553
 21
 0.00     
  0
LINE
  8
0
 10
  9207.553
 20
 0.00     
 11
 0.00     
 21
 0.00     
  0
LINE
  8
0
 10
 0.00     
 20
 0.00     
 11
 0.00     
 21
 -6364.042
  0
ENDBLK
  8
0
  0
BLOCK
  8
1
  2
RFBASE
 70
     0
 10
 0.00     
 20
 0.00     
  0
LINE
  8
1
 10
 18415.104
 20
 0.00     
 11
 0.00     
 21
 0.00     
  0
TEXT
  8
20
 7
SIMPLEX
 10
   180.540
 20
  -451.351
 40
  270.810
  1
RIGID FRAME:
 50
    0.000
  0
TEXT
  8
20
 7
SIMPLEX
 10
  3430.265
 20
  -451.351
 40
  180.540
  1
BASIC COLUMN REACTIONS (kN,kN-m)
 50
    0.000
  0
TEXT
  8
14
 7
SIMPLEX
 10
   180.540
 20
  -902.701
 40
  180.540
  1
Frame
 50
    0.000
  0
TEXT
  8
14
 7
SIMPLEX
 10
   180.540
 20
 -1173.512
 40
  180.540
  1
Line
 50
    0.000
  0
TEXT
  8
14
 7
SIMPLEX
 10
  1263.782
 20
  -902.701
 40
  180.540
  1
Column
 50
    0.000
  0
TEXT
  8
14
 7
SIMPLEX
 10
  1263.782
 20
 -1173.512
 40
  180.540
  1
Line
 50
    0.000
  0
TEXT
  8
14
 7
SIMPLEX
 10
  2527.563
 20
  -902.701
 40
  180.540
  1
---------Dead--------
 50
    0.000
  0
TEXT
  8
14
 7
SIMPLEX
 10
  2527.563
 20
 -1173.512
 40
  180.540
  1
Horz
 50
    0.000
  0
TEXT
  8
14
 7
SIMPLEX
 10
  3791.345
 20
 -1173.512
 40
  180.540
  1
Vert
 50
    0.000
  0
TEXT
  8
14
 7
SIMPLEX
 10
  5055.127
 20
 -1173.512
 40
  180.540
  1
Mom
 50
    0.000
  0
TEXT
  8
14
 7
SIMPLEX
 10
  6318.909
 20
  -902.701
 40
  180.540
  1
------Collateral-----
 50
    0.000
  0
TEXT
  8
14
 7
SIMPLEX
 10
  6318.909
 20
 -1173.512
 40
  180.540
  1
Horz
 50
    0.000
  0
TEXT
  8
14
 7
SIMPLEX
 10
  7582.690
 20
 -1173.512
 40
  180.540
  1
Vert
 50
    0.000
  0
TEXT
  8
14
 7
SIMPLEX
 10
  8846.473
 20
 -1173.512
 40
  180.540
  1
Mom
 50
    0.000
  0
TEXT
  8
14
 7
SIMPLEX
 10
 10110.254
 20
  -902.701
 40
  180.540
  1
---------Live--------
 50
    0.000
  0
TEXT
  8
14
 7
SIMPLEX
 10
 10110.254
 20
 -1173.512
 40
  180.540
  1
Horz
 50
    0.000
  0
TEXT
  8
14
 7
SIMPLEX
 10
 11374.036
 20
 -1173.512
 40
  180.540
  1
Vert
 50
    0.000
  0
TEXT
  8
14
 7
SIMPLEX
 10
 12637.817
 20
 -1173.512
 40
  180.540
  1
Mom
 50
    0.000
  0
TEXT
  8
14
 7
SIMPLEX
 10
 13901.600
 20
  -902.701
 40
  180.540
  1
------Wind_Left1-----
 50
    0.000
  0
TEXT
  8
14
 7
SIMPLEX
 10
 13901.600
 20
 -1173.512
 40
  180.540
  1
Horz
 50
    0.000
  0
TEXT
  8
14
 7
SIMPLEX
 10
 15165.381
 20
 -1173.512
 40
  180.540
  1
Vert
 50
    0.000
  0
TEXT
  8
14
 7
SIMPLEX
 10
 16429.162
 20
 -1173.512
 40
  180.540
  1
Mom
 50
    0.000
  0
TEXT
  8
13
 7
SIMPLEX
 10
   180.540
 20
 -1444.322
 40
  180.540
  1
1*
 50
    0.000
  0
TEXT
  8
13
 7
SIMPLEX
 10
  1263.782
 20
 -1444.322
 40
  180.540
  1
C
 50
    0.000
  0
TEXT
  8
26
 7
SIMPLEX
 10
  2166.483
 20
 -1444.322
 40
  180.540
  1
    1.0
 50
    0.000
  0
TEXT
  8
26
 7
SIMPLEX
 10
  3430.265
 20
 -1444.322
 40
  180.540
  1
    6.2
 50
    0.000
  0
TEXT
  8
26
 7
SIMPLEX
 10
  4694.047
 20
 -1444.322
 40
  180.540
  1
  -3.29
 50
    0.000
  0
TEXT
  8
26
 7
SIMPLEX
 10
  5957.829
 20
 -1444.322
 40
  180.540
  1
    0.3
 50
    0.000
  0
TEXT
  8
26
 7
SIMPLEX
 10
  7221.610
 20
 -1444.322
 40
  180.540
  1
    1.3
 50
    0.000
  0
TEXT
  8
26
 7
SIMPLEX
 10
  8485.392
 20
 -1444.322
 40
  180.540
  1
  -1.14
 50
    0.000
  0
TEXT
  8
26
 7
SIMPLEX
 10
  9749.174
 20
 -1444.322
 40
  180.540
  1
    3.9
 50
    0.000
  0
TEXT
  8
26
 7
SIMPLEX
 10
 11012.955
 20
 -1444.322
 40
  180.540
  1
   14.3
 50
    0.000
  0
TEXT
  8
26
 7
SIMPLEX
 10
 12276.737
 20
 -1444.322
 40
  180.540
  1
 -12.94
 50
    0.000
  0
TEXT
  8
26
 7
SIMPLEX
 10
 13540.519
 20
 -1444.322
 40
  180.540
  1
  -14.0
 50
    0.000
  0
TEXT
  8
26
 7
SIMPLEX
 10
 14804.301
 20
 -1444.322
 40
  180.540
  1
  -18.3
 50
    0.000
  0
TEXT
  8
26
 7
SIMPLEX
 10
 16068.083
 20
 -1444.322
 40
  180.540
  1
  50.31
 50
    0.000
  0
TEXT
  8
13
 7
SIMPLEX
 10
   180.540
 20
 -1715.132
 40
  180.540
  1
1*
 50
    0.000
  0
TEXT
  8
13
 7
SIMPLEX
 10
  1263.782
 20
 -1715.132
 40
  180.540
  1
A
 50
    0.000
  0
TEXT
  8
26
 7
SIMPLEX
 10
  2166.483
 20
 -1715.132
 40
  180.540
  1
   -1.0
 50
    0.000
  0
TEXT
  8
26
 7
SIMPLEX
 10
  3430.265
 20
 -1715.132
 40
  180.540
  1
    6.2
 50
    0.000
  0
TEXT
  8
26
 7
SIMPLEX
 10
  4694.047
 20
 -1715.132
 40
  180.540
  1
   3.29
 50
    0.000
  0
TEXT
  8
26
 7
SIMPLEX
 10
  5957.829
 20
 -1715.132
 40
  180.540
  1
   -0.3
 50
    0.000
  0
TEXT
  8
26
 7
SIMPLEX
 10
  7221.610
 20
 -1715.132
 40
  180.540
  1
    1.3
 50
    0.000
  0
TEXT
  8
26
 7
SIMPLEX
 10
  8485.392
 20
 -1715.132
 40
  180.540
  1
   1.14
 50
    0.000
  0
TEXT
  8
26
 7
SIMPLEX
 10
  9749.174
 20
 -1715.132
 40
  180.540
  1
   -3.9
 50
    0.000
  0
TEXT
  8
26
 7
SIMPLEX
 10
 11012.955
 20
 -1715.132
 40
  180.540
  1
   14.3
 50
    0.000
  0
TEXT
  8
26
 7
SIMPLEX
 10
 12276.737
 20
 -1715.132
 40
  180.540
  1
  12.95
 50
    0.000
  0
TEXT
  8
26
 7
SIMPLEX
 10
 13540.519
 20
 -1715.132
 40
  180.540
  1
   -9.0
 50
    0.000
  0
TEXT
  8
26
 7
SIMPLEX
 10
 14804.301
 20
 -1715.132
 40
  180.540
  1
   -9.4
 50
    0.000
  0
TEXT
  8
26
 7
SIMPLEX
 10
 16068.083
 20
 -1715.132
 40
  180.540
  1
  30.06
 50
    0.000
  0
TEXT
  8
14
 7
SIMPLEX
 10
   180.540
 20
 -2256.753
 40
  180.540
  1
Frame
 50
    0.000
  0
TEXT
  8
14
 7
SIMPLEX
 10
   180.540
 20
 -2527.564
 40
  180.540
  1
Line
 50
    0.000
  0
TEXT
  8
14
 7
SIMPLEX
 10
  1263.782
 20
 -2256.753
 40
  180.540
  1
Column
 50
    0.000
  0
TEXT
  8
14
 7
SIMPLEX
 10
  1263.782
 20
 -2527.564
 40
  180.540
  1
Line
 50
    0.000
  0
TEXT
  8
14
 7
SIMPLEX
 10
  2527.563
 20
 -2256.753
 40
  180.540
  1
-----Wind_Right1-----
 50
    0.000
  0
TEXT
  8
14
 7
SIMPLEX
 10
  2527.563
 20
 -2527.564
 40
  180.540
  1
Horz
 50
    0.000
  0
TEXT
  8
14
 7
SIMPLEX
 10
  3791.345
 20
 -2527.564
 40
  180.540
  1
Vert
 50
    0.000
  0
TEXT
  8
14
 7
SIMPLEX
 10
  5055.127
 20
 -2527.564
 40
  180.540
  1
Mom
 50
    0.000
  0
TEXT
  8
14
 7
SIMPLEX
 10
  6318.909
 20
 -2256.753
 40
  180.540
  1
------Wind_Left2-----
 50
    0.000
  0
TEXT
  8
14
 7
SIMPLEX
 10
  6318.909
 20
 -2527.564
 40
  180.540
  1
Horz
 50
    0.000
  0
TEXT
  8
14
 7
SIMPLEX
 10
  7582.690
 20
 -2527.564
 40
  180.540
  1
Vert
 50
    0.000
  0
TEXT
  8
14
 7
SIMPLEX
 10
  8846.473
 20
 -2527.564
 40
  180.540
  1
Mom
 50
    0.000
  0
TEXT
  8
14
 7
SIMPLEX
 10
 10110.254
 20
 -2256.753
 40
  180.540
  1
-----Wind_Right2-----
 50
    0.000
  0
TEXT
  8
14
 7
SIMPLEX
 10
 10110.254
 20
 -2527.564
 40
  180.540
  1
Horz
 50
    0.000
  0
TEXT
  8
14
 7
SIMPLEX
 10
 11374.036
 20
 -2527.564
 40
  180.540
  1
Vert
 50
    0.000
  0
TEXT
  8
14
 7
SIMPLEX
 10
 12637.817
 20
 -2527.564
 40
  180.540
  1
Mom
 50
    0.000
  0
TEXT
  8
14
 7
SIMPLEX
 10
 13901.600
 20
 -2256.753
 40
  180.540
  1
------Wind_Long1-----
 50
    0.000
  0
TEXT
  8
14
 7
SIMPLEX
 10
 13901.600
 20
 -2527.564
 40
  180.540
  1
Horz
 50
    0.000
  0
TEXT
  8
14
 7
SIMPLEX
 10
 15165.381
 20
 -2527.564
 40
  180.540
  1
Vert
 50
    0.000
  0
TEXT
  8
14
 7
SIMPLEX
 10
 16429.162
 20
 -2527.564
 40
  180.540
  1
Mom
 50
    0.000
  0
TEXT
  8
13
 7
SIMPLEX
 10
   180.540
 20
 -2798.374
 40
  180.540
  1
1*
 50
    0.000
  0
TEXT
  8
13
 7
SIMPLEX
 10
  1263.782
 20
 -2798.374
 40
  180.540
  1
C
 50
    0.000
  0
TEXT
  8
26
 7
SIMPLEX
 10
  2166.483
 20
 -2798.374
 40
  180.540
  1
    9.0
 50
    0.000
  0
TEXT
  8
26
 7
SIMPLEX
 10
  3430.265
 20
 -2798.374
 40
  180.540
  1
   -9.4
 50
    0.000
  0
TEXT
  8
26
 7
SIMPLEX
 10
  4694.047
 20
 -2798.374
 40
  180.540
  1
 -30.07
 50
    0.000
  0
TEXT
  8
26
 7
SIMPLEX
 10
  5957.829
 20
 -2798.374
 40
  180.540
  1
  -17.5
 50
    0.000
  0
TEXT
  8
26
 7
SIMPLEX
 10
  7221.610
 20
 -2798.374
 40
  180.540
  1
  -13.2
 50
    0.000
  0
TEXT
  8
26
 7
SIMPLEX
 10
  8485.392
 20
 -2798.374
 40
  180.540
  1
  54.96
 50
    0.000
  0
TEXT
  8
26
 7
SIMPLEX
 10
  9749.174
 20
 -2798.374
 40
  180.540
  1
    5.5
 50
    0.000
  0
TEXT
  8
26
 7
SIMPLEX
 10
 11012.955
 20
 -2798.374
 40
  180.540
  1
   -4.3
 50
    0.000
  0
TEXT
  8
26
 7
SIMPLEX
 10
 12276.737
 20
 -2798.374
 40
  180.540
  1
 -25.42
 50
    0.000
  0
TEXT
  8
26
 7
SIMPLEX
 10
 13540.519
 20
 -2798.374
 40
  180.540
  1
    5.2
 50
    0.000
  0
TEXT
  8
26
 7
SIMPLEX
 10
 14804.301
 20
 -2798.374
 40
  180.540
  1
  -22.0
 50
    0.000
  0
TEXT
  8
26
 7
SIMPLEX
 10
 16068.083
 20
 -2798.374
 40
  180.540
  1
  -5.12
 50
    0.000
  0
TEXT
  8
13
 7
SIMPLEX
 10
   180.540
 20
 -3069.185
 40
  180.540
  1
1*
 50
    0.000
  0
TEXT
  8
13
 7
SIMPLEX
 10
  1263.782
 20
 -3069.185
 40
  180.540
  1
A
 50
    0.000
  0
TEXT
  8
26
 7
SIMPLEX
 10
  2166.483
 20
 -3069.185
 40
  180.540
  1
   14.0
 50
    0.000
  0
TEXT
  8
26
 7
SIMPLEX
 10
  3430.265
 20
 -3069.185
 40
  180.540
  1
  -18.3
 50
    0.000
  0
TEXT
  8
26
 7
SIMPLEX
 10
  4694.047
 20
 -3069.185
 40
  180.540
  1
 -50.32
 50
    0.000
  0
TEXT
  8
26
 7
SIMPLEX
 10
  5957.829
 20
 -3069.185
 40
  180.540
  1
   -5.5
 50
    0.000
  0
TEXT
  8
26
 7
SIMPLEX
 10
  7221.610
 20
 -3069.185
 40
  180.540
  1
   -4.3
 50
    0.000
  0
TEXT
  8
26
 7
SIMPLEX
 10
  8485.392
 20
 -3069.185
 40
  180.540
  1
  25.41
 50
    0.000
  0
TEXT
  8
26
 7
SIMPLEX
 10
  9749.174
 20
 -3069.185
 40
  180.540
  1
   17.5
 50
    0.000
  0
TEXT
  8
26
 7
SIMPLEX
 10
 11012.955
 20
 -3069.185
 40
  180.540
  1
  -13.2
 50
    0.000
  0
TEXT
  8
26
 7
SIMPLEX
 10
 12276.737
 20
 -3069.185
 40
  180.540
  1
 -54.97
 50
    0.000
  0
TEXT
  8
26
 7
SIMPLEX
 10
 13540.519
 20
 -3069.185
 40
  180.540
  1
   -5.2
 50
    0.000
  0
TEXT
  8
26
 7
SIMPLEX
 10
 14804.301
 20
 -3069.185
 40
  180.540
  1
  -22.0
 50
    0.000
  0
TEXT
  8
26
 7
SIMPLEX
 10
 16068.083
 20
 -3069.185
 40
  180.540
  1
   5.11
 50
    0.000
  0
TEXT
  8
14
 7
SIMPLEX
 10
   180.540
 20
 -3610.805
 40
  180.540
  1
Frame
 50
    0.000
  0
TEXT
  8
14
 7
SIMPLEX
 10
   180.540
 20
 -3881.615
 40
  180.540
  1
Line
 50
    0.000
  0
TEXT
  8
14
 7
SIMPLEX
 10
  1263.782
 20
 -3610.805
 40
  180.540
  1
Column
 50
    0.000
  0
TEXT
  8
14
 7
SIMPLEX
 10
  1263.782
 20
 -3881.615
 40
  180.540
  1
Line
 50
    0.000
  0
TEXT
  8
14
 7
SIMPLEX
 10
  2527.563
 20
 -3610.805
 40
  180.540
  1
------Wind_Long2-----
 50
    0.000
  0
TEXT
  8
14
 7
SIMPLEX
 10
  2527.563
 20
 -3881.615
 40
  180.540
  1
Horz
 50
    0.000
  0
TEXT
  8
14
 7
SIMPLEX
 10
  3791.345
 20
 -3881.615
 40
  180.540
  1
Vert
 50
    0.000
  0
TEXT
  8
14
 7
SIMPLEX
 10
  5055.127
 20
 -3881.615
 40
  180.540
  1
Mom
 50
    0.000
  0
TEXT
  8
14
 7
SIMPLEX
 10
  6318.909
 20
 -3610.805
 40
  180.540
  1
-----Seismic_Left----
 50
    0.000
  0
TEXT
  8
14
 7
SIMPLEX
 10
  6318.909
 20
 -3881.615
 40
  180.540
  1
Horz
 50
    0.000
  0
TEXT
  8
14
 7
SIMPLEX
 10
  7582.690
 20
 -3881.615
 40
  180.540
  1
Vert
 50
    0.000
  0
TEXT
  8
14
 7
SIMPLEX
 10
  8846.473
 20
 -3881.615
 40
  180.540
  1
Mom
 50
    0.000
  0
TEXT
  8
14
 7
SIMPLEX
 10
 10110.254
 20
 -3610.805
 40
  180.540
  1
----Seismic_Right----
 50
    0.000
  0
TEXT
  8
14
 7
SIMPLEX
 10
 10110.254
 20
 -3881.615
 40
  180.540
  1
Horz
 50
    0.000
  0
TEXT
  8
14
 7
SIMPLEX
 10
 11374.036
 20
 -3881.615
 40
  180.540
  1
Vert
 50
    0.000
  0
TEXT
  8
14
 7
SIMPLEX
 10
 12637.817
 20
 -3881.615
 40
  180.540
  1
Mom
 50
    0.000
  0
TEXT
  8
14
 7
SIMPLEX
 10
 13901.600
 20
 -3610.805
 40
  180.540
  1
----Seismic_Long1----
 50
    0.000
  0
TEXT
  8
14
 7
SIMPLEX
 10
 13901.600
 20
 -3881.615
 40
  180.540
  1
Horz
 50
    0.000
  0
TEXT
  8
14
 7
SIMPLEX
 10
 15165.381
 20
 -3881.615
 40
  180.540
  1
Vert
 50
    0.000
  0
TEXT
  8
14
 7
SIMPLEX
 10
 16429.162
 20
 -3881.615
 40
  180.540
  1
Mom
 50
    0.000
  0
TEXT
  8
13
 7
SIMPLEX
 10
   180.540
 20
 -4152.426
 40
  180.540
  1
1*
 50
    0.000
  0
TEXT
  8
13
 7
SIMPLEX
 10
  1263.782
 20
 -4152.426
 40
  180.540
  1
C
 50
    0.000
  0
TEXT
  8
26
 7
SIMPLEX
 10
  2166.483
 20
 -4152.426
 40
  180.540
  1
    1.7
 50
    0.000
  0
TEXT
  8
26
 7
SIMPLEX
 10
  3430.265
 20
 -4152.426
 40
  180.540
  1
  -16.9
 50
    0.000
  0
TEXT
  8
26
 7
SIMPLEX
 10
  4694.047
 20
 -4152.426
 40
  180.540
  1
  -0.46
 50
    0.000
  0
TEXT
  8
26
 7
SIMPLEX
 10
  5957.829
 20
 -4152.426
 40
  180.540
  1
   -0.4
 50
    0.000
  0
TEXT
  8
26
 7
SIMPLEX
 10
  7221.610
 20
 -4152.426
 40
  180.540
  1
   -0.2
 50
    0.000
  0
TEXT
  8
26
 7
SIMPLEX
 10
  8485.392
 20
 -4152.426
 40
  180.540
  1
   2.14
 50
    0.000
  0
TEXT
  8
26
 7
SIMPLEX
 10
  9749.174
 20
 -4152.426
 40
  180.540
  1
    0.4
 50
    0.000
  0
TEXT
  8
26
 7
SIMPLEX
 10
 11012.955
 20
 -4152.426
 40
  180.540
  1
    0.2
 50
    0.000
  0
TEXT
  8
26
 7
SIMPLEX
 10
 12276.737
 20
 -4152.426
 40
  180.540
  1
  -2.14
 50
    0.000
  0
TEXT
  8
26
 7
SIMPLEX
 10
 13540.519
 20
 -4152.426
 40
  180.540
  1
    0.0
 50
    0.000
  0
TEXT
  8
26
 7
SIMPLEX
 10
 14804.301
 20
 -4152.426
 40
  180.540
  1
   -1.3
 50
    0.000
  0
TEXT
  8
26
 7
SIMPLEX
 10
 16068.083
 20
 -4152.426
 40
  180.540
  1
   0.00
 50
    0.000
  0
TEXT
  8
13
 7
SIMPLEX
 10
   180.540
 20
 -4423.236
 40
  180.540
  1
1*
 50
    0.000
  0
TEXT
  8
13
 7
SIMPLEX
 10
  1263.782
 20
 -4423.236
 40
  180.540
  1
A
 50
    0.000
  0
TEXT
  8
26
 7
SIMPLEX
 10
  2166.483
 20
 -4423.236
 40
  180.540
  1
   -1.7
 50
    0.000
  0
TEXT
  8
26
 7
SIMPLEX
 10
  3430.265
 20
 -4423.236
 40
  180.540
  1
  -16.9
 50
    0.000
  0
TEXT
  8
26
 7
SIMPLEX
 10
  4694.047
 20
 -4423.236
 40
  180.540
  1
   0.46
 50
    0.000
  0
TEXT
  8
26
 7
SIMPLEX
 10
  5957.829
 20
 -4423.236
 40
  180.540
  1
   -0.4
 50
    0.000
  0
TEXT
  8
26
 7
SIMPLEX
 10
  7221.610
 20
 -4423.236
 40
  180.540
  1
    0.2
 50
    0.000
  0
TEXT
  8
26
 7
SIMPLEX
 10
  8485.392
 20
 -4423.236
 40
  180.540
  1
   2.14
 50
    0.000
  0
TEXT
  8
26
 7
SIMPLEX
 10
  9749.174
 20
 -4423.236
 40
  180.540
  1
    0.4
 50
    0.000
  0
TEXT
  8
26
 7
SIMPLEX
 10
 11012.955
 20
 -4423.236
 40
  180.540
  1
   -0.2
 50
    0.000
  0
TEXT
  8
26
 7
SIMPLEX
 10
 12276.737
 20
 -4423.236
 40
  180.540
  1
  -2.14
 50
    0.000
  0
TEXT
  8
26
 7
SIMPLEX
 10
 13540.519
 20
 -4423.236
 40
  180.540
  1
    0.0
 50
    0.000
  0
TEXT
  8
26
 7
SIMPLEX
 10
 14804.301
 20
 -4423.236
 40
  180.540
  1
   -1.3
 50
    0.000
  0
TEXT
  8
26
 7
SIMPLEX
 10
 16068.083
 20
 -4423.236
 40
  180.540
  1
   0.00
 50
    0.000
  0
TEXT
  8
14
 7
SIMPLEX
 10
   180.540
 20
 -4964.856
 40
  180.540
  1
Frame
 50
    0.000
  0
TEXT
  8
14
 7
SIMPLEX
 10
   180.540
 20
 -5235.667
 40
  180.540
  1
Line
 50
    0.000
  0
TEXT
  8
14
 7
SIMPLEX
 10
  1263.782
 20
 -4964.856
 40
  180.540
  1
Column
 50
    0.000
  0
TEXT
  8
14
 7
SIMPLEX
 10
  1263.782
 20
 -5235.667
 40
  180.540
  1
Line
 50
    0.000
  0
TEXT
  8
14
 7
SIMPLEX
 10
  2527.563
 20
 -4964.856
 40
  180.540
  1
----Seismic_Long2----
 50
    0.000
  0
TEXT
  8
14
 7
SIMPLEX
 10
  2527.563
 20
 -5235.667
 40
  180.540
  1
Horz
 50
    0.000
  0
TEXT
  8
14
 7
SIMPLEX
 10
  3791.345
 20
 -5235.667
 40
  180.540
  1
Vert
 50
    0.000
  0
TEXT
  8
14
 7
SIMPLEX
 10
  5055.127
 20
 -5235.667
 40
  180.540
  1
Mom
 50
    0.000
  0
TEXT
  8
14
 7
SIMPLEX
 10
  6318.909
 20
 -4964.856
 40
  180.540
  1
---------Temp--------
 50
    0.000
  0
TEXT
  8
14
 7
SIMPLEX
 10
  6318.909
 20
 -5235.667
 40
  180.540
  1
Horz
 50
    0.000
  0
TEXT
  8
14
 7
SIMPLEX
 10
  7582.690
 20
 -5235.667
 40
  180.540
  1
Vert
 50
    0.000
  0
TEXT
  8
14
 7
SIMPLEX
 10
  8846.473
 20
 -5235.667
 40
  180.540
  1
Mom
 50
    0.000
  0
TEXT
  8
14
 7
SIMPLEX
 10
 10110.254
 20
 -4964.856
 40
  180.540
  1
----LWIND1_L2E-  ----
 50
    0.000
  0
TEXT
  8
14
 7
SIMPLEX
 10
 10110.254
 20
 -5235.667
 40
  180.540
  1
Horz
 50
    0.000
  0
TEXT
  8
14
 7
SIMPLEX
 10
 11374.036
 20
 -5235.667
 40
  180.540
  1
Vert
 50
    0.000
  0
TEXT
  8
14
 7
SIMPLEX
 10
 12637.817
 20
 -5235.667
 40
  180.540
  1
Mom
 50
    0.000
  0
TEXT
  8
14
 7
SIMPLEX
 10
 13901.600
 20
 -4964.856
 40
  180.540
  1
----LWIND1_R2E-  ----
 50
    0.000
  0
TEXT
  8
14
 7
SIMPLEX
 10
 13901.600
 20
 -5235.667
 40
  180.540
  1
Horz
 50
    0.000
  0
TEXT
  8
14
 7
SIMPLEX
 10
 15165.381
 20
 -5235.667
 40
  180.540
  1
Vert
 50
    0.000
  0
TEXT
  8
14
 7
SIMPLEX
 10
 16429.162
 20
 -5235.667
 40
  180.540
  1
Mom
 50
    0.000
  0
TEXT
  8
13
 7
SIMPLEX
 10
   180.540
 20
 -5506.478
 40
  180.540
  1
1*
 50
    0.000
  0
TEXT
  8
13
 7
SIMPLEX
 10
  1263.782
 20
 -5506.478
 40
  180.540
  1
C
 50
    0.000
  0
TEXT
  8
26
 7
SIMPLEX
 10
  2166.483
 20
 -5506.478
 40
  180.540
  1
    0.0
 50
    0.000
  0
TEXT
  8
26
 7
SIMPLEX
 10
  3430.265
 20
 -5506.478
 40
  180.540
  1
    1.3
 50
    0.000
  0
TEXT
  8
26
 7
SIMPLEX
 10
  4694.047
 20
 -5506.478
 40
  180.540
  1
   0.00
 50
    0.000
  0
TEXT
  8
26
 7
SIMPLEX
 10
  5957.829
 20
 -5506.478
 40
  180.540
  1
    0.1
 50
    0.000
  0
TEXT
  8
26
 7
SIMPLEX
 10
  7221.610
 20
 -5506.478
 40
  180.540
  1
    0.0
 50
    0.000
  0
TEXT
  8
26
 7
SIMPLEX
 10
  8485.392
 20
 -5506.478
 40
  180.540
  1
  -0.93
 50
    0.000
  0
TEXT
  8
26
 7
SIMPLEX
 10
  9749.174
 20
 -5506.478
 40
  180.540
  1
    0.0
 50
    0.000
  0
TEXT
  8
26
 7
SIMPLEX
 10
 11012.955
 20
 -5506.478
 40
  180.540
  1
   -2.0
 50
    0.000
  0
TEXT
  8
26
 7
SIMPLEX
 10
 12276.737
 20
 -5506.478
 40
  180.540
  1
  -0.48
 50
    0.000
  0
TEXT
  8
26
 7
SIMPLEX
 10
 13540.519
 20
 -5506.478
 40
  180.540
  1
   -0.2
 50
    0.000
  0
TEXT
  8
26
 7
SIMPLEX
 10
 14804.301
 20
 -5506.478
 40
  180.540
  1
   -0.2
 50
    0.000
  0
TEXT
  8
26
 7
SIMPLEX
 10
 16068.083
 20
 -5506.478
 40
  180.540
  1
   1.16
 50
    0.000
  0
TEXT
  8
13
 7
SIMPLEX
 10
   180.540
 20
 -5777.288
 40
  180.540
  1
1*
 50
    0.000
  0
TEXT
  8
13
 7
SIMPLEX
 10
  1263.782
 20
 -5777.288
 40
  180.540
  1
A
 50
    0.000
  0
TEXT
  8
26
 7
SIMPLEX
 10
  2166.483
 20
 -5777.288
 40
  180.540
  1
    0.0
 50
    0.000
  0
TEXT
  8
26
 7
SIMPLEX
 10
  3430.265
 20
 -5777.288
 40
  180.540
  1
    1.3
 50
    0.000
  0
TEXT
  8
26
 7
SIMPLEX
 10
  4694.047
 20
 -5777.288
 40
  180.540
  1
   0.00
 50
    0.000
  0
TEXT
  8
26
 7
SIMPLEX
 10
  5957.829
 20
 -5777.288
 40
  180.540
  1
   -0.1
 50
    0.000
  0
TEXT
  8
26
 7
SIMPLEX
 10
  7221.610
 20
 -5777.288
 40
  180.540
  1
    0.0
 50
    0.000
  0
TEXT
  8
26
 7
SIMPLEX
 10
  8485.392
 20
 -5777.288
 40
  180.540
  1
   0.93
 50
    0.000
  0
TEXT
  8
26
 7
SIMPLEX
 10
  9749.174
 20
 -5777.288
 40
  180.540
  1
    0.2
 50
    0.000
  0
TEXT
  8
26
 7
SIMPLEX
 10
 11012.955
 20
 -5777.288
 40
  180.540
  1
   -0.2
 50
    0.000
  0
TEXT
  8
26
 7
SIMPLEX
 10
 12276.737
 20
 -5777.288
 40
  180.540
  1
  -1.16
 50
    0.000
  0
TEXT
  8
26
 7
SIMPLEX
 10
 13540.519
 20
 -5777.288
 40
  180.540
  1
    0.0
 50
    0.000
  0
TEXT
  8
26
 7
SIMPLEX
 10
 14804.301
 20
 -5777.288
 40
  180.540
  1
   -2.0
 50
    0.000
  0
TEXT
  8
26
 7
SIMPLEX
 10
 16068.083
 20
 -5777.288
 40
  180.540
  1
   0.48
 50
    0.000
  0
TEXT
  8
14
 7
SIMPLEX
 10
   180.540
 20
 -6318.908
 40
  180.540
  1
Frame
 50
    0.000
  0
TEXT
  8
14
 7
SIMPLEX
 10
   180.540
 20
 -6589.719
 40
  180.540
  1
Line
 50
    0.000
  0
TEXT
  8
14
 7
SIMPLEX
 10
  1263.782
 20
 -6318.908
 40
  180.540
  1
Column
 50
    0.000
  0
TEXT
  8
14
 7
SIMPLEX
 10
  1263.782
 20
 -6589.719
 40
  180.540
  1
Line
 50
    0.000
  0
TEXT
  8
14
 7
SIMPLEX
 10
  2527.563
 20
 -6318.908
 40
  180.540
  1
----LWIND2_L2E-  ----
 50
    0.000
  0
TEXT
  8
14
 7
SIMPLEX
 10
  2527.563
 20
 -6589.719
 40
  180.540
  1
Horz
 50
    0.000
  0
TEXT
  8
14
 7
SIMPLEX
 10
  3791.345
 20
 -6589.719
 40
  180.540
  1
Vert
 50
    0.000
  0
TEXT
  8
14
 7
SIMPLEX
 10
  5055.127
 20
 -6589.719
 40
  180.540
  1
Mom
 50
    0.000
  0
TEXT
  8
14
 7
SIMPLEX
 10
  6318.909
 20
 -6318.908
 40
  180.540
  1
----LWIND2_R2E-  ----
 50
    0.000
  0
TEXT
  8
14
 7
SIMPLEX
 10
  6318.909
 20
 -6589.719
 40
  180.540
  1
Horz
 50
    0.000
  0
TEXT
  8
14
 7
SIMPLEX
 10
  7582.690
 20
 -6589.719
 40
  180.540
  1
Vert
 50
    0.000
  0
TEXT
  8
14
 7
SIMPLEX
 10
  8846.473
 20
 -6589.719
 40
  180.540
  1
Mom
 50
    0.000
  0
TEXT
  8
13
 7
SIMPLEX
 10
   180.540
 20
 -6860.528
 40
  180.540
  1
1*
 50
    0.000
  0
TEXT
  8
13
 7
SIMPLEX
 10
  1263.782
 20
 -6860.528
 40
  180.540
  1
C
 50
    0.000
  0
TEXT
  8
26
 7
SIMPLEX
 10
  2166.483
 20
 -6860.528
 40
  180.540
  1
    0.0
 50
    0.000
  0
TEXT
  8
26
 7
SIMPLEX
 10
  3430.265
 20
 -6860.528
 40
  180.540
  1
   -2.0
 50
    0.000
  0
TEXT
  8
26
 7
SIMPLEX
 10
  4694.047
 20
 -6860.528
 40
  180.540
  1
  -0.48
 50
    0.000
  0
TEXT
  8
26
 7
SIMPLEX
 10
  5957.829
 20
 -6860.528
 40
  180.540
  1
   -0.2
 50
    0.000
  0
TEXT
  8
26
 7
SIMPLEX
 10
  7221.610
 20
 -6860.528
 40
  180.540
  1
   -0.2
 50
    0.000
  0
TEXT
  8
26
 7
SIMPLEX
 10
  8485.392
 20
 -6860.528
 40
  180.540
  1
   1.16
 50
    0.000
  0
TEXT
  8
13
 7
SIMPLEX
 10
   180.540
 20
 -7131.339
 40
  180.540
  1
1*
 50
    0.000
  0
TEXT
  8
13
 7
SIMPLEX
 10
  1263.782
 20
 -7131.339
 40
  180.540
  1
A
 50
    0.000
  0
TEXT
  8
26
 7
SIMPLEX
 10
  2166.483
 20
 -7131.339
 40
  180.540
  1
    0.2
 50
    0.000
  0
TEXT
  8
26
 7
SIMPLEX
 10
  3430.265
 20
 -7131.339
 40
  180.540
  1
   -0.2
 50
    0.000
  0
TEXT
  8
26
 7
SIMPLEX
 10
  4694.047
 20
 -7131.339
 40
  180.540
  1
  -1.16
 50
    0.000
  0
TEXT
  8
26
 7
SIMPLEX
 10
  5957.829
 20
 -7131.339
 40
  180.540
  1
    0.0
 50
    0.000
  0
TEXT
  8
26
 7
SIMPLEX
 10
  7221.610
 20
 -7131.339
 40
  180.540
  1
   -2.0
 50
    0.000
  0
TEXT
  8
26
 7
SIMPLEX
 10
  8485.392
 20
 -7131.339
 40
  180.540
  1
   0.48
 50
    0.000
  0
TEXT
  8
14
 7
SIMPLEX
 10
   180.540
 20
 -7672.960
 40
  180.540
  1
Frame
 50
    0.000
  0
TEXT
  8
14
 7
SIMPLEX
 10
   180.540
 20
 -7943.771
 40
  180.540
  1
Line
 50
    0.000
  0
TEXT
  8
14
 7
SIMPLEX
 10
  1263.782
 20
 -7672.960
 40
  180.540
  1
Column
 50
    0.000
  0
TEXT
  8
14
 7
SIMPLEX
 10
  1263.782
 20
 -7943.771
 40
  180.540
  1
Line
 50
    0.000
  0
TEXT
  8
14
 7
SIMPLEX
 10
  2527.563
 20
 -7672.960
 40
  180.540
  1
---------Dead--------
 50
    0.000
  0
TEXT
  8
14
 7
SIMPLEX
 10
  2527.563
 20
 -7943.771
 40
  180.540
  1
Horz
 50
    0.000
  0
TEXT
  8
14
 7
SIMPLEX
 10
  3791.345
 20
 -7943.771
 40
  180.540
  1
Vert
 50
    0.000
  0
TEXT
  8
14
 7
SIMPLEX
 10
  5055.127
 20
 -7943.771
 40
  180.540
  1
Mom
 50
    0.000
  0
TEXT
  8
14
 7
SIMPLEX
 10
  6318.909
 20
 -7672.960
 40
  180.540
  1
------Collateral-----
 50
    0.000
  0
TEXT
  8
14
 7
SIMPLEX
 10
  6318.909
 20
 -7943.771
 40
  180.540
  1
Horz
 50
    0.000
  0
TEXT
  8
14
 7
SIMPLEX
 10
  7582.690
 20
 -7943.771
 40
  180.540
  1
Vert
 50
    0.000
  0
TEXT
  8
14
 7
SIMPLEX
 10
  8846.473
 20
 -7943.771
 40
  180.540
  1
Mom
 50
    0.000
  0
TEXT
  8
14
 7
SIMPLEX
 10
 10110.254
 20
 -7672.960
 40
  180.540
  1
---------Live--------
 50
    0.000
  0
TEXT
  8
14
 7
SIMPLEX
 10
 10110.254
 20
 -7943.771
 40
  180.540
  1
Horz
 50
    0.000
  0
TEXT
  8
14
 7
SIMPLEX
 10
 11374.036
 20
 -7943.771
 40
  180.540
  1
Vert
 50
    0.000
  0
TEXT
  8
14
 7
SIMPLEX
 10
 12637.817
 20
 -7943.771
 40
  180.540
  1
Mom
 50
    0.000
  0
TEXT
  8
14
 7
SIMPLEX
 10
 13901.600
 20
 -7672.960
 40
  180.540
  1
------Wind_Left1-----
 50
    0.000
  0
TEXT
  8
14
 7
SIMPLEX
 10
 13901.600
 20
 -7943.771
 40
  180.540
  1
Horz
 50
    0.000
  0
TEXT
  8
14
 7
SIMPLEX
 10
 15165.381
 20
 -7943.771
 40
  180.540
  1
Vert
 50
    0.000
  0
TEXT
  8
14
 7
SIMPLEX
 10
 16429.162
 20
 -7943.771
 40
  180.540
  1
Mom
 50
    0.000
  0
TEXT
  8
13
 7
SIMPLEX
 10
   180.540
 20
 -8214.581
 40
  180.540
  1
2*
 50
    0.000
  0
TEXT
  8
13
 7
SIMPLEX
 10
  1263.782
 20
 -8214.581
 40
  180.540
  1
C
 50
    0.000
  0
TEXT
  8
26
 7
SIMPLEX
 10
  2166.483
 20
 -8214.581
 40
  180.540
  1
    1.6
 50
    0.000
  0
TEXT
  8
26
 7
SIMPLEX
 10
  3430.265
 20
 -8214.581
 40
  180.540
  1
    8.3
 50
    0.000
  0
TEXT
  8
26
 7
SIMPLEX
 10
  4694.047
 20
 -8214.581
 40
  180.540
  1
  -5.19
 50
    0.000
  0
TEXT
  8
26
 7
SIMPLEX
 10
  5957.829
 20
 -8214.581
 40
  180.540
  1
    0.6
 50
    0.000
  0
TEXT
  8
26
 7
SIMPLEX
 10
  7221.610
 20
 -8214.581
 40
  180.540
  1
    2.3
 50
    0.000
  0
TEXT
  8
26
 7
SIMPLEX
 10
  8485.392
 20
 -8214.581
 40
  180.540
  1
  -2.09
 50
    0.000
  0
TEXT
  8
26
 7
SIMPLEX
 10
  9749.174
 20
 -8214.581
 40
  180.540
  1
    7.2
 50
    0.000
  0
TEXT
  8
26
 7
SIMPLEX
 10
 11012.955
 20
 -8214.581
 40
  180.540
  1
   26.2
 50
    0.000
  0
TEXT
  8
26
 7
SIMPLEX
 10
 12276.737
 20
 -8214.581
 40
  180.540
  1
 -23.71
 50
    0.000
  0
TEXT
  8
26
 7
SIMPLEX
 10
 13540.519
 20
 -8214.581
 40
  180.540
  1
  -19.4
 50
    0.000
  0
TEXT
  8
26
 7
SIMPLEX
 10
 14804.301
 20
 -8214.581
 40
  180.540
  1
  -24.4
 50
    0.000
  0
TEXT
  8
26
 7
SIMPLEX
 10
 16068.083
 20
 -8214.581
 40
  180.540
  1
  73.70
 50
    0.000
  0
TEXT
  8
13
 7
SIMPLEX
 10
   180.540
 20
 -8485.392
 40
  180.540
  1
2*
 50
    0.000
  0
TEXT
  8
13
 7
SIMPLEX
 10
  1263.782
 20
 -8485.392
 40
  180.540
  1
A
 50
    0.000
  0
TEXT
  8
26
 7
SIMPLEX
 10
  2166.483
 20
 -8485.392
 40
  180.540
  1
   -1.6
 50
    0.000
  0
TEXT
  8
26
 7
SIMPLEX
 10
  3430.265
 20
 -8485.392
 40
  180.540
  1
    8.3
 50
    0.000
  0
TEXT
  8
26
 7
SIMPLEX
 10
  4694.047
 20
 -8485.392
 40
  180.540
  1
   5.19
 50
    0.000
  0
TEXT
  8
26
 7
SIMPLEX
 10
  5957.829
 20
 -8485.392
 40
  180.540
  1
   -0.6
 50
    0.000
  0
TEXT
  8
26
 7
SIMPLEX
 10
  7221.610
 20
 -8485.392
 40
  180.540
  1
    2.3
 50
    0.000
  0
TEXT
  8
26
 7
SIMPLEX
 10
  8485.392
 20
 -8485.392
 40
  180.540
  1
   2.09
 50
    0.000
  0
TEXT
  8
26
 7
SIMPLEX
 10
  9749.174
 20
 -8485.392
 40
  180.540
  1
   -7.2
 50
    0.000
  0
TEXT
  8
26
 7
SIMPLEX
 10
 11012.955
 20
 -8485.392
 40
  180.540
  1
   26.2
 50
    0.000
  0
TEXT
  8
26
 7
SIMPLEX
 10
 12276.737
 20
 -8485.392
 40
  180.540
  1
  23.73
 50
    0.000
  0
TEXT
  8
26
 7
SIMPLEX
 10
 13540.519
 20
 -8485.392
 40
  180.540
  1
  -17.6
 50
    0.000
  0
TEXT
  8
26
 7
SIMPLEX
 10
 14804.301
 20
 -8485.392
 40
  180.540
  1
  -12.4
 50
    0.000
  0
TEXT
  8
26
 7
SIMPLEX
 10
 16068.083
 20
 -8485.392
 40
  180.540
  1
  56.11
 50
    0.000
  0
TEXT
  8
14
 7
SIMPLEX
 10
   180.540
 20
 -9027.013
 40
  180.540
  1
Frame
 50
    0.000
  0
TEXT
  8
14
 7
SIMPLEX
 10
   180.540
 20
 -9297.823
 40
  180.540
  1
Line
 50
    0.000
  0
TEXT
  8
14
 7
SIMPLEX
 10
  1263.782
 20
 -9027.013
 40
  180.540
  1
Column
 50
    0.000
  0
TEXT
  8
14
 7
SIMPLEX
 10
  1263.782
 20
 -9297.823
 40
  180.540
  1
Line
 50
    0.000
  0
TEXT
  8
14
 7
SIMPLEX
 10
  2527.563
 20
 -9027.013
 40
  180.540
  1
-----Wind_Right1-----
 50
    0.000
  0
TEXT
  8
14
 7
SIMPLEX
 10
  2527.563
 20
 -9297.823
 40
  180.540
  1
Horz
 50
    0.000
  0
TEXT
  8
14
 7
SIMPLEX
 10
  3791.345
 20
 -9297.823
 40
  180.540
  1
Vert
 50
    0.000
  0
TEXT
  8
14
 7
SIMPLEX
 10
  5055.127
 20
 -9297.823
 40
  180.540
  1
Mom
 50
    0.000
  0
TEXT
  8
14
 7
SIMPLEX
 10
  6318.909
 20
 -9027.013
 40
  180.540
  1
------Wind_Left2-----
 50
    0.000
  0
TEXT
  8
14
 7
SIMPLEX
 10
  6318.909
 20
 -9297.823
 40
  180.540
  1
Horz
 50
    0.000
  0
TEXT
  8
14
 7
SIMPLEX
 10
  7582.690
 20
 -9297.823
 40
  180.540
  1
Vert
 50
    0.000
  0
TEXT
  8
14
 7
SIMPLEX
 10
  8846.473
 20
 -9297.823
 40
  180.540
  1
Mom
 50
    0.000
  0
TEXT
  8
14
 7
SIMPLEX
 10
 10110.254
 20
 -9027.013
 40
  180.540
  1
-----Wind_Right2-----
 50
    0.000
  0
TEXT
  8
14
 7
SIMPLEX
 10
 10110.254
 20
 -9297.823
 40
  180.540
  1
Horz
 50
    0.000
  0
TEXT
  8
14
 7
SIMPLEX
 10
 11374.036
 20
 -9297.823
 40
  180.540
  1
Vert
 50
    0.000
  0
TEXT
  8
14
 7
SIMPLEX
 10
 12637.817
 20
 -9297.823
 40
  180.540
  1
Mom
 50
    0.000
  0
TEXT
  8
14
 7
SIMPLEX
 10
 13901.600
 20
 -9027.013
 40
  180.540
  1
------Wind_Long1-----
 50
    0.000
  0
TEXT
  8
14
 7
SIMPLEX
 10
 13901.600
 20
 -9297.823
 40
  180.540
  1
Horz
 50
    0.000
  0
TEXT
  8
14
 7
SIMPLEX
 10
 15165.381
 20
 -9297.823
 40
  180.540
  1
Vert
 50
    0.000
  0
TEXT
  8
14
 7
SIMPLEX
 10
 16429.162
 20
 -9297.823
 40
  180.540
  1
Mom
 50
    0.000
  0
TEXT
  8
13
 7
SIMPLEX
 10
   180.540
 20
 -9568.633
 40
  180.540
  1
2*
 50
    0.000
  0
TEXT
  8
13
 7
SIMPLEX
 10
  1263.782
 20
 -9568.633
 40
  180.540
  1
C
 50
    0.000
  0
TEXT
  8
26
 7
SIMPLEX
 10
  2166.483
 20
 -9568.633
 40
  180.540
  1
   17.6
 50
    0.000
  0
TEXT
  8
26
 7
SIMPLEX
 10
  3430.265
 20
 -9568.633
 40
  180.540
  1
  -12.4
 50
    0.000
  0
TEXT
  8
26
 7
SIMPLEX
 10
  4694.047
 20
 -9568.633
 40
  180.540
  1
 -56.13
 50
    0.000
  0
TEXT
  8
26
 7
SIMPLEX
 10
  5957.829
 20
 -9568.633
 40
  180.540
  1
  -28.4
 50
    0.000
  0
TEXT
  8
26
 7
SIMPLEX
 10
  7221.610
 20
 -9568.633
 40
  180.540
  1
  -15.1
 50
    0.000
  0
TEXT
  8
26
 7
SIMPLEX
 10
  8485.392
 20
 -9568.633
 40
  180.540
  1
  86.89
 50
    0.000
  0
TEXT
  8
26
 7
SIMPLEX
 10
  9749.174
 20
 -9568.633
 40
  180.540
  1
    8.1
 50
    0.000
  0
TEXT
  8
26
 7
SIMPLEX
 10
 11012.955
 20
 -9568.633
 40
  180.540
  1
   -3.2
 50
    0.000
  0
TEXT
  8
26
 7
SIMPLEX
 10
 12276.737
 20
 -9568.633
 40
  180.540
  1
 -41.47
 50
    0.000
  0
TEXT
  8
26
 7
SIMPLEX
 10
 13540.519
 20
 -9568.633
 40
  180.540
  1
    9.5
 50
    0.000
  0
TEXT
  8
26
 7
SIMPLEX
 10
 14804.301
 20
 -9568.633
 40
  180.540
  1
  -32.2
 50
    0.000
  0
TEXT
  8
26
 7
SIMPLEX
 10
 16068.083
 20
 -9568.633
 40
  180.540
  1
  -9.38
 50
    0.000
  0
TEXT
  8
13
 7
SIMPLEX
 10
   180.540
 20
 -9839.443
 40
  180.540
  1
2*
 50
    0.000
  0
TEXT
  8
13
 7
SIMPLEX
 10
  1263.782
 20
 -9839.443
 40
  180.540
  1
A
 50
    0.000
  0
TEXT
  8
26
 7
SIMPLEX
 10
  2166.483
 20
 -9839.443
 40
  180.540
  1
   19.4
 50
    0.000
  0
TEXT
  8
26
 7
SIMPLEX
 10
  3430.265
 20
 -9839.443
 40
  180.540
  1
  -24.4
 50
    0.000
  0
TEXT
  8
26
 7
SIMPLEX
 10
  4694.047
 20
 -9839.443
 40
  180.540
  1
 -73.71
 50
    0.000
  0
TEXT
  8
26
 7
SIMPLEX
 10
  5957.829
 20
 -9839.443
 40
  180.540
  1
   -8.1
 50
    0.000
  0
TEXT
  8
26
 7
SIMPLEX
 10
  7221.610
 20
 -9839.443
 40
  180.540
  1
   -3.2
 50
    0.000
  0
TEXT
  8
26
 7
SIMPLEX
 10
  8485.392
 20
 -9839.443
 40
  180.540
  1
  41.46
 50
    0.000
  0
TEXT
  8
26
 7
SIMPLEX
 10
  9749.174
 20
 -9839.443
 40
  180.540
  1
   28.4
 50
    0.000
  0
TEXT
  8
26
 7
SIMPLEX
 10
 11012.955
 20
 -9839.443
 40
  180.540
  1
  -15.1
 50
    0.000
  0
TEXT
  8
26
 7
SIMPLEX
 10
 12276.737
 20
 -9839.443
 40
  180.540
  1
 -86.89
 50
    0.000
  0
TEXT
  8
26
 7
SIMPLEX
 10
 13540.519
 20
 -9839.443
 40
  180.540
  1
   -9.5
 50
    0.000
  0
TEXT
  8
26
 7
SIMPLEX
 10
 14804.301
 20
 -9839.443
 40
  180.540
  1
  -32.2
 50
    0.000
  0
TEXT
  8
26
 7
SIMPLEX
 10
 16068.083
 20
 -9839.443
 40
  180.540
  1
   9.36
 50
    0.000
  0
TEXT
  8
14
 7
SIMPLEX
 10
   180.540
 20
-10381.064
 40
  180.540
  1
Frame
 50
    0.000
  0
TEXT
  8
14
 7
SIMPLEX
 10
   180.540
 20
-10651.875
 40
  180.540
  1
Line
 50
    0.000
  0
TEXT
  8
14
 7
SIMPLEX
 10
  1263.782
 20
-10381.064
 40
  180.540
  1
Column
 50
    0.000
  0
TEXT
  8
14
 7
SIMPLEX
 10
  1263.782
 20
-10651.875
 40
  180.540
  1
Line
 50
    0.000
  0
TEXT
  8
14
 7
SIMPLEX
 10
  2527.563
 20
-10381.064
 40
  180.540
  1
------Wind_Long2-----
 50
    0.000
  0
TEXT
  8
14
 7
SIMPLEX
 10
  2527.563
 20
-10651.875
 40
  180.540
  1
Horz
 50
    0.000
  0
TEXT
  8
14
 7
SIMPLEX
 10
  3791.345
 20
-10651.875
 40
  180.540
  1
Vert
 50
    0.000
  0
TEXT
  8
14
 7
SIMPLEX
 10
  5055.127
 20
-10651.875
 40
  180.540
  1
Mom
 50
    0.000
  0
TEXT
  8
14
 7
SIMPLEX
 10
  6318.909
 20
-10381.064
 40
  180.540
  1
-----Seismic_Left----
 50
    0.000
  0
TEXT
  8
14
 7
SIMPLEX
 10
  6318.909
 20
-10651.875
 40
  180.540
  1
Horz
 50
    0.000
  0
TEXT
  8
14
 7
SIMPLEX
 10
  7582.690
 20
-10651.875
 40
  180.540
  1
Vert
 50
    0.000
  0
TEXT
  8
14
 7
SIMPLEX
 10
  8846.473
 20
-10651.875
 40
  180.540
  1
Mom
 50
    0.000
  0
TEXT
  8
14
 7
SIMPLEX
 10
 10110.254
 20
-10381.064
 40
  180.540
  1
----Seismic_Right----
 50
    0.000
  0
TEXT
  8
14
 7
SIMPLEX
 10
 10110.254
 20
-10651.875
 40
  180.540
  1
Horz
 50
    0.000
  0
TEXT
  8
14
 7
SIMPLEX
 10
 11374.036
 20
-10651.875
 40
  180.540
  1
Vert
 50
    0.000
  0
TEXT
  8
14
 7
SIMPLEX
 10
 12637.817
 20
-10651.875
 40
  180.540
  1
Mom
 50
    0.000
  0
TEXT
  8
14
 7
SIMPLEX
 10
 13901.600
 20
-10381.064
 40
  180.540
  1
----Seismic_Long1----
 50
    0.000
  0
TEXT
  8
14
 7
SIMPLEX
 10
 13901.600
 20
-10651.875
 40
  180.540
  1
Horz
 50
    0.000
  0
TEXT
  8
14
 7
SIMPLEX
 10
 15165.381
 20
-10651.875
 40
  180.540
  1
Vert
 50
    0.000
  0
TEXT
  8
14
 7
SIMPLEX
 10
 16429.162
 20
-10651.875
 40
  180.540
  1
Mom
 50
    0.000
  0
TEXT
  8
13
 7
SIMPLEX
 10
   180.540
 20
-10922.686
 40
  180.540
  1
2*
 50
    0.000
  0
TEXT
  8
13
 7
SIMPLEX
 10
  1263.782
 20
-10922.686
 40
  180.540
  1
C
 50
    0.000
  0
TEXT
  8
26
 7
SIMPLEX
 10
  2166.483
 20
-10922.686
 40
  180.540
  1
    3.1
 50
    0.000
  0
TEXT
  8
26
 7
SIMPLEX
 10
  3430.265
 20
-10922.686
 40
  180.540
  1
  -22.9
 50
    0.000
  0
TEXT
  8
26
 7
SIMPLEX
 10
  4694.047
 20
-10922.686
 40
  180.540
  1
  -0.85
 50
    0.000
  0
TEXT
  8
26
 7
SIMPLEX
 10
  5957.829
 20
-10922.686
 40
  180.540
  1
   -0.5
 50
    0.000
  0
TEXT
  8
26
 7
SIMPLEX
 10
  7221.610
 20
-10922.686
 40
  180.540
  1
   -0.3
 50
    0.000
  0
TEXT
  8
26
 7
SIMPLEX
 10
  8485.392
 20
-10922.686
 40
  180.540
  1
   2.67
 50
    0.000
  0
TEXT
  8
26
 7
SIMPLEX
 10
  9749.174
 20
-10922.686
 40
  180.540
  1
    0.5
 50
    0.000
  0
TEXT
  8
26
 7
SIMPLEX
 10
 11012.955
 20
-10922.686
 40
  180.540
  1
    0.3
 50
    0.000
  0
TEXT
  8
26
 7
SIMPLEX
 10
 12276.737
 20
-10922.686
 40
  180.540
  1
  -2.67
 50
    0.000
  0
TEXT
  8
26
 7
SIMPLEX
 10
 13540.519
 20
-10922.686
 40
  180.540
  1
    0.0
 50
    0.000
  0
TEXT
  8
26
 7
SIMPLEX
 10
 14804.301
 20
-10922.686
 40
  180.540
  1
   -1.3
 50
    0.000
  0
TEXT
  8
26
 7
SIMPLEX
 10
 16068.083
 20
-10922.686
 40
  180.540
  1
   0.00
 50
    0.000
  0
TEXT
  8
13
 7
SIMPLEX
 10
   180.540
 20
-11193.496
 40
  180.540
  1
2*
 50
    0.000
  0
TEXT
  8
13
 7
SIMPLEX
 10
  1263.782
 20
-11193.496
 40
  180.540
  1
A
 50
    0.000
  0
TEXT
  8
26
 7
SIMPLEX
 10
  2166.483
 20
-11193.496
 40
  180.540
  1
   -3.1
 50
    0.000
  0
TEXT
  8
26
 7
SIMPLEX
 10
  3430.265
 20
-11193.496
 40
  180.540
  1
  -22.9
 50
    0.000
  0
TEXT
  8
26
 7
SIMPLEX
 10
  4694.047
 20
-11193.496
 40
  180.540
  1
   0.84
 50
    0.000
  0
TEXT
  8
26
 7
SIMPLEX
 10
  5957.829
 20
-11193.496
 40
  180.540
  1
   -0.4
 50
    0.000
  0
TEXT
  8
26
 7
SIMPLEX
 10
  7221.610
 20
-11193.496
 40
  180.540
  1
    0.3
 50
    0.000
  0
TEXT
  8
26
 7
SIMPLEX
 10
  8485.392
 20
-11193.496
 40
  180.540
  1
   2.67
 50
    0.000
  0
TEXT
  8
26
 7
SIMPLEX
 10
  9749.174
 20
-11193.496
 40
  180.540
  1
    0.4
 50
    0.000
  0
TEXT
  8
26
 7
SIMPLEX
 10
 11012.955
 20
-11193.496
 40
  180.540
  1
   -0.3
 50
    0.000
  0
TEXT
  8
26
 7
SIMPLEX
 10
 12276.737
 20
-11193.496
 40
  180.540
  1
  -2.67
 50
    0.000
  0
TEXT
  8
26
 7
SIMPLEX
 10
 13540.519
 20
-11193.496
 40
  180.540
  1
    0.0
 50
    0.000
  0
TEXT
  8
26
 7
SIMPLEX
 10
 14804.301
 20
-11193.496
 40
  180.540
  1
   -1.3
 50
    0.000
  0
TEXT
  8
26
 7
SIMPLEX
 10
 16068.083
 20
-11193.496
 40
  180.540
  1
   0.00
 50
    0.000
  0
TEXT
  8
14
 7
SIMPLEX
 10
   180.540
 20
-11735.117
 40
  180.540
  1
Frame
 50
    0.000
  0
TEXT
  8
14
 7
SIMPLEX
 10
   180.540
 20
-12005.928
 40
  180.540
  1
Line
 50
    0.000
  0
TEXT
  8
14
 7
SIMPLEX
 10
  1263.782
 20
-11735.117
 40
  180.540
  1
Column
 50
    0.000
  0
TEXT
  8
14
 7
SIMPLEX
 10
  1263.782
 20
-12005.928
 40
  180.540
  1
Line
 50
    0.000
  0
TEXT
  8
14
 7
SIMPLEX
 10
  2527.563
 20
-11735.117
 40
  180.540
  1
----Seismic_Long2----
 50
    0.000
  0
TEXT
  8
14
 7
SIMPLEX
 10
  2527.563
 20
-12005.928
 40
  180.540
  1
Horz
 50
    0.000
  0
TEXT
  8
14
 7
SIMPLEX
 10
  3791.345
 20
-12005.928
 40
  180.540
  1
Vert
 50
    0.000
  0
TEXT
  8
14
 7
SIMPLEX
 10
  5055.127
 20
-12005.928
 40
  180.540
  1
Mom
 50
    0.000
  0
TEXT
  8
14
 7
SIMPLEX
 10
  6318.909
 20
-11735.117
 40
  180.540
  1
---------Temp--------
 50
    0.000
  0
TEXT
  8
14
 7
SIMPLEX
 10
  6318.909
 20
-12005.928
 40
  180.540
  1
Horz
 50
    0.000
  0
TEXT
  8
14
 7
SIMPLEX
 10
  7582.690
 20
-12005.928
 40
  180.540
  1
Vert
 50
    0.000
  0
TEXT
  8
14
 7
SIMPLEX
 10
  8846.473
 20
-12005.928
 40
  180.540
  1
Mom
 50
    0.000
  0
TEXT
  8
14
 7
SIMPLEX
 10
 10110.254
 20
-11735.117
 40
  180.540
  1
----LWIND1_L2E-  ----
 50
    0.000
  0
TEXT
  8
14
 7
SIMPLEX
 10
 10110.254
 20
-12005.928
 40
  180.540
  1
Horz
 50
    0.000
  0
TEXT
  8
14
 7
SIMPLEX
 10
 11374.036
 20
-12005.928
 40
  180.540
  1
Vert
 50
    0.000
  0
TEXT
  8
14
 7
SIMPLEX
 10
 12637.817
 20
-12005.928
 40
  180.540
  1
Mom
 50
    0.000
  0
TEXT
  8
14
 7
SIMPLEX
 10
 13901.600
 20
-11735.117
 40
  180.540
  1
----LWIND1_R2E-  ----
 50
    0.000
  0
TEXT
  8
14
 7
SIMPLEX
 10
 13901.600
 20
-12005.928
 40
  180.540
  1
Horz
 50
    0.000
  0
TEXT
  8
14
 7
SIMPLEX
 10
 15165.381
 20
-12005.928
 40
  180.540
  1
Vert
 50
    0.000
  0
TEXT
  8
14
 7
SIMPLEX
 10
 16429.162
 20
-12005.928
 40
  180.540
  1
Mom
 50
    0.000
  0
TEXT
  8
13
 7
SIMPLEX
 10
   180.540
 20
-12276.737
 40
  180.540
  1
2*
 50
    0.000
  0
TEXT
  8
13
 7
SIMPLEX
 10
  1263.782
 20
-12276.737
 40
  180.540
  1
C
 50
    0.000
  0
TEXT
  8
26
 7
SIMPLEX
 10
  2166.483
 20
-12276.737
 40
  180.540
  1
    0.0
 50
    0.000
  0
TEXT
  8
26
 7
SIMPLEX
 10
  3430.265
 20
-12276.737
 40
  180.540
  1
    1.3
 50
    0.000
  0
TEXT
  8
26
 7
SIMPLEX
 10
  4694.047
 20
-12276.737
 40
  180.540
  1
   0.00
 50
    0.000
  0
TEXT
  8
26
 7
SIMPLEX
 10
  5957.829
 20
-12276.737
 40
  180.540
  1
    0.1
 50
    0.000
  0
TEXT
  8
26
 7
SIMPLEX
 10
  7221.610
 20
-12276.737
 40
  180.540
  1
    0.0
 50
    0.000
  0
TEXT
  8
26
 7
SIMPLEX
 10
  8485.392
 20
-12276.737
 40
  180.540
  1
  -0.93
 50
    0.000
  0
TEXT
  8
26
 7
SIMPLEX
 10
  9749.174
 20
-12276.737
 40
  180.540
  1
    0.0
 50
    0.000
  0
TEXT
  8
26
 7
SIMPLEX
 10
 11012.955
 20
-12276.737
 40
  180.540
  1
   -3.6
 50
    0.000
  0
TEXT
  8
26
 7
SIMPLEX
 10
 12276.737
 20
-12276.737
 40
  180.540
  1
  -0.87
 50
    0.000
  0
TEXT
  8
26
 7
SIMPLEX
 10
 13540.519
 20
-12276.737
 40
  180.540
  1
   -0.4
 50
    0.000
  0
TEXT
  8
26
 7
SIMPLEX
 10
 14804.301
 20
-12276.737
 40
  180.540
  1
   -0.3
 50
    0.000
  0
TEXT
  8
26
 7
SIMPLEX
 10
 16068.083
 20
-12276.737
 40
  180.540
  1
   2.12
 50
    0.000
  0
TEXT
  8
13
 7
SIMPLEX
 10
   180.540
 20
-12547.548
 40
  180.540
  1
2*
 50
    0.000
  0
TEXT
  8
13
 7
SIMPLEX
 10
  1263.782
 20
-12547.548
 40
  180.540
  1
A
 50
    0.000
  0
TEXT
  8
26
 7
SIMPLEX
 10
  2166.483
 20
-12547.548
 40
  180.540
  1
    0.0
 50
    0.000
  0
TEXT
  8
26
 7
SIMPLEX
 10
  3430.265
 20
-12547.548
 40
  180.540
  1
    1.3
 50
    0.000
  0
TEXT
  8
26
 7
SIMPLEX
 10
  4694.047
 20
-12547.548
 40
  180.540
  1
   0.00
 50
    0.000
  0
TEXT
  8
26
 7
SIMPLEX
 10
  5957.829
 20
-12547.548
 40
  180.540
  1
   -0.1
 50
    0.000
  0
TEXT
  8
26
 7
SIMPLEX
 10
  7221.610
 20
-12547.548
 40
  180.540
  1
    0.0
 50
    0.000
  0
TEXT
  8
26
 7
SIMPLEX
 10
  8485.392
 20
-12547.548
 40
  180.540
  1
   0.93
 50
    0.000
  0
TEXT
  8
26
 7
SIMPLEX
 10
  9749.174
 20
-12547.548
 40
  180.540
  1
    0.4
 50
    0.000
  0
TEXT
  8
26
 7
SIMPLEX
 10
 11012.955
 20
-12547.548
 40
  180.540
  1
   -0.3
 50
    0.000
  0
TEXT
  8
26
 7
SIMPLEX
 10
 12276.737
 20
-12547.548
 40
  180.540
  1
  -2.12
 50
    0.000
  0
TEXT
  8
26
 7
SIMPLEX
 10
 13540.519
 20
-12547.548
 40
  180.540
  1
    0.0
 50
    0.000
  0
TEXT
  8
26
 7
SIMPLEX
 10
 14804.301
 20
-12547.548
 40
  180.540
  1
   -3.6
 50
    0.000
  0
TEXT
  8
26
 7
SIMPLEX
 10
 16068.083
 20
-12547.548
 40
  180.540
  1
   0.87
 50
    0.000
  0
TEXT
  8
14
 7
SIMPLEX
 10
   180.540
 20
-13089.168
 40
  180.540
  1
Frame
 50
    0.000
  0
TEXT
  8
14
 7
SIMPLEX
 10
   180.540
 20
-13359.979
 40
  180.540
  1
Line
 50
    0.000
  0
TEXT
  8
14
 7
SIMPLEX
 10
  1263.782
 20
-13089.168
 40
  180.540
  1
Column
 50
    0.000
  0
TEXT
  8
14
 7
SIMPLEX
 10
  1263.782
 20
-13359.979
 40
  180.540
  1
Line
 50
    0.000
  0
TEXT
  8
14
 7
SIMPLEX
 10
  2527.563
 20
-13089.168
 40
  180.540
  1
----LWIND2_L2E-  ----
 50
    0.000
  0
TEXT
  8
14
 7
SIMPLEX
 10
  2527.563
 20
-13359.979
 40
  180.540
  1
Horz
 50
    0.000
  0
TEXT
  8
14
 7
SIMPLEX
 10
  3791.345
 20
-13359.979
 40
  180.540
  1
Vert
 50
    0.000
  0
TEXT
  8
14
 7
SIMPLEX
 10
  5055.127
 20
-13359.979
 40
  180.540
  1
Mom
 50
    0.000
  0
TEXT
  8
14
 7
SIMPLEX
 10
  6318.909
 20
-13089.168
 40
  180.540
  1
----LWIND2_R2E-  ----
 50
    0.000
  0
TEXT
  8
14
 7
SIMPLEX
 10
  6318.909
 20
-13359.979
 40
  180.540
  1
Horz
 50
    0.000
  0
TEXT
  8
14
 7
SIMPLEX
 10
  7582.690
 20
-13359.979
 40
  180.540
  1
Vert
 50
    0.000
  0
TEXT
  8
14
 7
SIMPLEX
 10
  8846.473
 20
-13359.979
 40
  180.540
  1
Mom
 50
    0.000
  0
TEXT
  8
13
 7
SIMPLEX
 10
   180.540
 20
-13630.789
 40
  180.540
  1
2*
 50
    0.000
  0
TEXT
  8
13
 7
SIMPLEX
 10
  1263.782
 20
-13630.789
 40
  180.540
  1
C
 50
    0.000
  0
TEXT
  8
26
 7
SIMPLEX
 10
  2166.483
 20
-13630.789
 40
  180.540
  1
    0.0
 50
    0.000
  0
TEXT
  8
26
 7
SIMPLEX
 10
  3430.265
 20
-13630.789
 40
  180.540
  1
   -3.6
 50
    0.000
  0
TEXT
  8
26
 7
SIMPLEX
 10
  4694.047
 20
-13630.789
 40
  180.540
  1
  -0.87
 50
    0.000
  0
TEXT
  8
26
 7
SIMPLEX
 10
  5957.829
 20
-13630.789
 40
  180.540
  1
   -0.4
 50
    0.000
  0
TEXT
  8
26
 7
SIMPLEX
 10
  7221.610
 20
-13630.789
 40
  180.540
  1
   -0.3
 50
    0.000
  0
TEXT
  8
26
 7
SIMPLEX
 10
  8485.392
 20
-13630.789
 40
  180.540
  1
   2.12
 50
    0.000
  0
TEXT
  8
13
 7
SIMPLEX
 10
   180.540
 20
-13901.600
 40
  180.540
  1
2*
 50
    0.000
  0
TEXT
  8
13
 7
SIMPLEX
 10
  1263.782
 20
-13901.600
 40
  180.540
  1
A
 50
    0.000
  0
TEXT
  8
26
 7
SIMPLEX
 10
  2166.483
 20
-13901.600
 40
  180.540
  1
    0.4
 50
    0.000
  0
TEXT
  8
26
 7
SIMPLEX
 10
  3430.265
 20
-13901.600
 40
  180.540
  1
   -0.3
 50
    0.000
  0
TEXT
  8
26
 7
SIMPLEX
 10
  4694.047
 20
-13901.600
 40
  180.540
  1
  -2.12
 50
    0.000
  0
TEXT
  8
26
 7
SIMPLEX
 10
  5957.829
 20
-13901.600
 40
  180.540
  1
    0.0
 50
    0.000
  0
TEXT
  8
26
 7
SIMPLEX
 10
  7221.610
 20
-13901.600
 40
  180.540
  1
   -3.6
 50
    0.000
  0
TEXT
  8
26
 7
SIMPLEX
 10
  8485.392
 20
-13901.600
 40
  180.540
  1
   0.87
 50
    0.000
  0
TEXT
  8
13
 7
SIMPLEX
 10
   180.540
 20
-14443.219
 40
  180.540
  1
1*
 50
    0.000
  0
TEXT
  8
14
 7
SIMPLEX
 10
  1083.242
 20
-14443.219
 40
  180.540
  1
Frame lines:
 50
    0.000
  0
TEXT
  8
13
 7
SIMPLEX
 10
  3971.885
 20
-14443.219
 40
  180.540
  1
1
 50
    0.000
  0
TEXT
  8
13
 7
SIMPLEX
 10
  4332.966
 20
-14443.219
 40
  180.540
  1
7
 50
    0.000
  0
TEXT
  8
13
 7
SIMPLEX
 10
   180.540
 20
-14714.028
 40
  180.540
  1
2*
 50
    0.000
  0
TEXT
  8
14
 7
SIMPLEX
 10
  1083.242
 20
-14714.028
 40
  180.540
  1
Frame lines:
 50
    0.000
  0
TEXT
  8
13
 7
SIMPLEX
 10
  3971.885
 20
-14714.028
 40
  180.540
  1
2
 50
    0.000
  0
TEXT
  8
13
 7
SIMPLEX
 10
  4332.966
 20
-14714.028
 40
  180.540
  1
3
 50
    0.000
  0
TEXT
  8
13
 7
SIMPLEX
 10
  4694.047
 20
-14714.028
 40
  180.540
  1
4
 50
    0.000
  0
TEXT
  8
13
 7
SIMPLEX
 10
  5055.127
 20
-14714.028
 40
  180.540
  1
5
 50
    0.000
  0
TEXT
  8
13
 7
SIMPLEX
 10
  5416.208
 20
-14714.028
 40
  180.540
  1
6
 50
    0.000
  0
LINE
  8
1
 10
 0.00     
 20
 0.00     
 11
 0.00     
 21
-14849.433
  0
LINE
  8
1
 10
 0.00     
 20
-14849.433
 11
 18415.104
 21
-14849.433
  0
LINE
  8
1
 10
 18415.104
 20
-14849.433
 11
 18415.104
 21
 0.00     
  0
ENDBLK
  8
1
  0
BLOCK
  8
1
  2
RNOTES
 70
     0
 10
 0.00     
 20
 0.00     
  0
TEXT
  8
20
 7
SIMPLEX
 10
   180.540
 20
  -406.216
 40
  270.810
  1
NOTES FOR REACTIONS
 50
    0.000
  0
TEXT
  8
1
 7
SIMPLEX
 10
   541.621
 20
  -947.836
 40
  180.540
  1
1.
 50
    0.000
  0
TEXT
  8
1
 7
SIMPLEX
 10
   902.701
 20
  -947.836
 40
  180.540
  1
All loading conditions are examined and only maximum/minimum H or V and the
 50
    0.000
  0
TEXT
  8
1
 7
SIMPLEX
 10
   902.701
 20
 -1218.647
 40
  180.540
  1
corresponding H or V are reported.
 50
    0.000
  0
TEXT
  8
1
 7
SIMPLEX
 10
   541.621
 20
 -1579.727
 40
  180.540
  1
2.
 50
    0.000
  0
TEXT
  8
1
 7
SIMPLEX
 10
   902.701
 20
 -1579.727
 40
  180.540
  1
Positive reactions are as shown in the sketch.  Foundation loads are in
 50
    0.000
  0
TEXT
  8
1
 7
SIMPLEX
 10
   902.701
 20
 -1850.538
 40
  180.540
  1
opposite directions.
 50
    0.000
  0
TEXT
  8
1
 7
SIMPLEX
 10
   541.621
 20
 -2211.618
 40
  180.540
  1
3.
 50
    0.000
  0
TEXT
  8
1
 7
SIMPLEX
 10
   902.701
 20
 -2211.618
 40
  180.540
  1
Bracing reactions are in the plane of the brace with the H pointing away
 50
    0.000
  0
TEXT
  8
1
 7
SIMPLEX
 10
   902.701
 20
 -2482.428
 40
  180.540
  1
from the braced bay.  The vertical reaction is downward.
 50
    0.000
  0
TEXT
  8
1
 7
SIMPLEX
 10
   541.621
 20
 -2843.509
 40
  180.540
  1
4.
 50
    0.000
  0
TEXT
  8
1
 7
SIMPLEX
 10
   902.701
 20
 -2843.509
 40
  180.540
  1
Building reactions are based on the following building data:
 50
    0.000
  0
TEXT
  8
1
 7
SIMPLEX
 10
  1444.322
 20
 -3114.319
 40
  180.540
  1
Width
 50
    0.000
  0
TEXT
  8
1
 7
SIMPLEX
 10
  4874.587
 20
 -3114.319
 40
  180.540
  1
(mm)
 50
    0.000
  0
TEXT
  8
1
 7
SIMPLEX
 10
  5596.748
 20
 -3114.319
 40
  180.540
  1
=
 50
    0.000
  0
TEXT
  8
1
 7
SIMPLEX
 10
  5687.018
 20
 -3114.319
 40
  180.540
  1
  12200
 50
    0.000
  0
TEXT
  8
1
 7
SIMPLEX
 10
  1444.322
 20
 -3385.130
 40
  180.540
  1
Length
 50
    0.000
  0
TEXT
  8
1
 7
SIMPLEX
 10
  4874.587
 20
 -3385.130
 40
  180.540
  1
(mm)
 50
    0.000
  0
TEXT
  8
1
 7
SIMPLEX
 10
  5596.748
 20
 -3385.130
 40
  180.540
  1
=
 50
    0.000
  0
TEXT
  8
1
 7
SIMPLEX
 10
  5687.018
 20
 -3385.130
 40
  180.540
  1
  45730
 50
    0.000
  0
TEXT
  8
1
 7
SIMPLEX
 10
  1444.322
 20
 -3655.940
 40
  180.540
  1
Eave Height
 50
    0.000
  0
TEXT
  8
1
 7
SIMPLEX
 10
  4874.587
 20
 -3655.940
 40
  180.540
  1
(mm)
 50
    0.000
  0
TEXT
  8
1
 7
SIMPLEX
 10
  5596.748
 20
 -3655.940
 40
  180.540
  1
=
 50
    0.000
  0
TEXT
  8
1
 7
SIMPLEX
 10
  5687.018
 20
 -3655.940
 40
  180.540
  1
   9600/  9600
 50
    0.000
  0
TEXT
  8
1
 7
SIMPLEX
 10
  1444.322
 20
 -3926.750
 40
  180.540
  1
Roof Slope
 50
    0.000
  0
TEXT
  8
1
 7
SIMPLEX
 10
  3791.345
 20
 -3926.750
 40
  180.540
  1
(rise/100)
 50
    0.000
  0
TEXT
  8
1
 7
SIMPLEX
 10
  5596.748
 20
 -3926.750
 40
  180.540
  1
=
 50
    0.000
  0
TEXT
  8
1
 7
SIMPLEX
 10
  5687.018
 20
 -3926.750
 40
  180.540
  1
 10.00/10.00
 50
    0.000
  0
TEXT
  8
1
 7
SIMPLEX
 10
  1444.322
 20
 -4197.561
 40
  180.540
  1
Roof Dead Load
 50
    0.000
  0
TEXT
  8
1
 7
SIMPLEX
 10
  4332.966
 20
 -4197.561
 40
  180.540
  1
(kN/m2)
 50
    0.000
  0
TEXT
  8
1
 7
SIMPLEX
 10
  5596.748
 20
 -4197.561
 40
  180.540
  1
=
 50
    0.000
  0
TEXT
  8
1
 7
SIMPLEX
 10
  5687.018
 20
 -4197.561
 40
  180.540
  1
  0.10
 50
    0.000
  0
TEXT
  8
1
 7
SIMPLEX
 10
  1444.322
 20
 -4468.371
 40
  180.540
  1
Wall Dead Load
 50
    0.000
  0
TEXT
  8
1
 7
SIMPLEX
 10
  1444.322
 20
 -4739.181
 40
  180.540
  1
  Left  Endwall
 50
    0.000
  0
TEXT
  8
1
 7
SIMPLEX
 10
  4332.966
 20
 -4739.181
 40
  180.540
  1
(kN/m2)
 50
    0.000
  0
TEXT
  8
1
 7
SIMPLEX
 10
  5596.748
 20
 -4739.181
 40
  180.540
  1
=
 50
    0.000
  0
TEXT
  8
1
 7
SIMPLEX
 10
  5687.018
 20
 -4739.181
 40
  180.540
  1
  0.10
 50
    0.000
  0
TEXT
  8
1
 7
SIMPLEX
 10
  1444.322
 20
 -5009.991
 40
  180.540
  1
  Right Endwall
 50
    0.000
  0
TEXT
  8
1
 7
SIMPLEX
 10
  4332.966
 20
 -5009.991
 40
  180.540
  1
(kN/m2)
 50
    0.000
  0
TEXT
  8
1
 7
SIMPLEX
 10
  5596.748
 20
 -5009.991
 40
  180.540
  1
=
 50
    0.000
  0
TEXT
  8
1
 7
SIMPLEX
 10
  5687.018
 20
 -5009.991
 40
  180.540
  1
  0.10
 50
    0.000
  0
TEXT
  8
1
 7
SIMPLEX
 10
  1444.322
 20
 -5280.801
 40
  180.540
  1
  Front Sidewall
 50
    0.000
  0
TEXT
  8
1
 7
SIMPLEX
 10
  4332.966
 20
 -5280.801
 40
  180.540
  1
(kN/m2)
 50
    0.000
  0
TEXT
  8
1
 7
SIMPLEX
 10
  5596.748
 20
 -5280.801
 40
  180.540
  1
=
 50
    0.000
  0
TEXT
  8
1
 7
SIMPLEX
 10
  5687.018
 20
 -5280.801
 40
  180.540
  1
  0.10
 50
    0.000
  0
TEXT
  8
1
 7
SIMPLEX
 10
  1444.322
 20
 -5551.611
 40
  180.540
  1
  Back  Sidewall
 50
    0.000
  0
TEXT
  8
1
 7
SIMPLEX
 10
  4332.966
 20
 -5551.611
 40
  180.540
  1
(kN/m2)
 50
    0.000
  0
TEXT
  8
1
 7
SIMPLEX
 10
  5596.748
 20
 -5551.611
 40
  180.540
  1
=
 50
    0.000
  0
TEXT
  8
1
 7
SIMPLEX
 10
  5687.018
 20
 -5551.611
 40
  180.540
  1
  0.10
 50
    0.000
  0
TEXT
  8
1
 7
SIMPLEX
 10
  1444.322
 20
 -5822.422
 40
  180.540
  1
Live Load
 50
    0.000
  0
TEXT
  8
1
 7
SIMPLEX
 10
  4332.966
 20
 -5822.422
 40
  180.540
  1
(kN/m2)
 50
    0.000
  0
TEXT
  8
1
 7
SIMPLEX
 10
  5596.748
 20
 -5822.422
 40
  180.540
  1
=
 50
    0.000
  0
TEXT
  8
1
 7
SIMPLEX
 10
  5687.018
 20
 -5822.422
 40
  180.540
  1
  0.57
 50
    0.000
  0
TEXT
  8
1
 7
SIMPLEX
 10
  1444.322
 20
 -6093.232
 40
  180.540
  1
Collateral Load
 50
    0.000
  0
TEXT
  8
1
 7
SIMPLEX
 10
  4332.966
 20
 -6093.232
 40
  180.540
  1
(kN/m2)
 50
    0.000
  0
TEXT
  8
1
 7
SIMPLEX
 10
  5596.748
 20
 -6093.232
 40
  180.540
  1
=
 50
    0.000
  0
TEXT
  8
1
 7
SIMPLEX
 10
  5687.018
 20
 -6093.232
 40
  180.540
  1
  0.05
 50
    0.000
  0
TEXT
  8
1
 7
SIMPLEX
 10
  1444.322
 20
 -6364.042
 40
  180.540
  1
Wind Speed
 50
    0.000
  0
TEXT
  8
1
 7
SIMPLEX
 10
  4694.047
 20
 -6364.042
 40
  180.540
  1
(m/s)
 50
    0.000
  0
TEXT
  8
1
 7
SIMPLEX
 10
  5596.748
 20
 -6364.042
 40
  180.540
  1
=
 50
    0.000
  0
TEXT
  8
1
 7
SIMPLEX
 10
  5687.018
 20
 -6364.042
 40
  180.540
  1
  39.0
 50
    0.000
  0
TEXT
  8
1
 7
SIMPLEX
 10
  1444.322
 20
 -6634.852
 40
  180.540
  1
Wind Code
 50
    0.000
  0
TEXT
  8
1
 7
SIMPLEX
 10
  5596.748
 20
 -6634.852
 40
  180.540
  1
=
 50
    0.000
  0
TEXT
  8
1
 7
SIMPLEX
 10
  5687.018
 20
 -6634.852
 40
  180.540
  1
 MBMA10
 50
    0.000
  0
TEXT
  8
1
 7
SIMPLEX
 10
  1444.322
 20
 -6905.663
 40
  180.540
  1
Exposure
 50
    0.000
  0
TEXT
  8
1
 7
SIMPLEX
 10
  5596.748
 20
 -6905.663
 40
  180.540
  1
=
 50
    0.000
  0
TEXT
  8
1
 7
SIMPLEX
 10
  5687.018
 20
 -6905.663
 40
  180.540
  1
 B
 50
    0.000
  0
TEXT
  8
1
 7
SIMPLEX
 10
  1444.322
 20
 -7176.474
 40
  180.540
  1
Closure
 50
    0.000
  0
TEXT
  8
1
 7
SIMPLEX
 10
  5596.748
 20
 -7176.474
 40
  180.540
  1
=
 50
    0.000
  0
TEXT
  8
1
 7
SIMPLEX
 10
  5687.018
 20
 -7176.474
 40
  180.540
  1
 Enclosed
 50
    0.000
  0
TEXT
  8
1
 7
SIMPLEX
 10
  1444.322
 20
 -7447.284
 40
  180.540
  1
Internal Wind Coeff
 50
    0.000
  0
TEXT
  8
1
 7
SIMPLEX
 10
  5596.748
 20
 -7447.284
 40
  180.540
  1
=
 50
    0.000
  0
TEXT
  8
1
 7
SIMPLEX
 10
  5687.018
 20
 -7447.284
 40
  180.540
  1
 -0.18, +0.18
 50
    0.000
  0
TEXT
  8
1
 7
SIMPLEX
 10
  1444.322
 20
 -7718.095
 40
  180.540
  1
Risk Category
 50
    0.000
  0
TEXT
  8
1
 7
SIMPLEX
 10
  5596.748
 20
 -7718.095
 40
  180.540
  1
=
 50
    0.000
  0
TEXT
  8
1
 7
SIMPLEX
 10
  5687.018
 20
 -7718.095
 40
  180.540
  1
 -
 50
    0.000
  0
TEXT
  8
1
 7
SIMPLEX
 10
  1444.322
 20
 -7988.905
 40
  180.540
  1
Importance - Wind
 50
    0.000
  0
TEXT
  8
1
 7
SIMPLEX
 10
  5596.748
 20
 -7988.905
 40
  180.540
  1
=
 50
    0.000
  0
TEXT
  8
1
 7
SIMPLEX
 10
  5687.018
 20
 -7988.905
 40
  180.540
  1
  1.00
 50
    0.000
  0
TEXT
  8
1
 7
SIMPLEX
 10
  1444.322
 20
 -8259.716
 40
  180.540
  1
Importance - Seismic
 50
    0.000
  0
TEXT
  8
1
 7
SIMPLEX
 10
  5596.748
 20
 -8259.716
 40
  180.540
  1
=
 50
    0.000
  0
TEXT
  8
1
 7
SIMPLEX
 10
  5687.018
 20
 -8259.716
 40
  180.540
  1
  1.00
 50
    0.000
  0
TEXT
  8
1
 7
SIMPLEX
 10
  1444.322
 20
 -8530.526
 40
  180.540
  1
Seismic Design Category
 50
    0.000
  0
TEXT
  8
1
 7
SIMPLEX
 10
  5596.748
 20
 -8530.526
 40
  180.540
  1
=
 50
    0.000
  0
TEXT
  8
1
 7
SIMPLEX
 10
  5687.018
 20
 -8530.526
 40
  180.540
  1
 B
 50
    0.000
  0
TEXT
  8
1
 7
SIMPLEX
 10
  1444.322
 20
 -8801.337
 40
  180.540
  1
Seismic Coeff
 50
    0.000
  0
TEXT
  8
1
 7
SIMPLEX
 10
  4694.047
 20
 -8801.337
 40
  180.540
  1
(Sms)
 50
    0.000
  0
TEXT
  8
1
 7
SIMPLEX
 10
  5596.748
 20
 -8801.337
 40
  180.540
  1
=
 50
    0.000
  0
TEXT
  8
1
 7
SIMPLEX
 10
  5687.018
 20
 -8801.337
 40
  180.540
  1
  0.16
 50
    0.000
  0
TEXT
  8
1
 7
SIMPLEX
 10
  1444.322
 20
 -9072.147
 40
  180.540
  1
Temperature Change
 50
    0.000
  0
TEXT
  8
1
 7
SIMPLEX
 10
  5596.748
 20
 -9072.147
 40
  180.540
  1
=
 50
    0.000
  0
TEXT
  8
1
 7
SIMPLEX
 10
  5687.018
 20
 -9072.147
 40
  180.540
  1
   20
 50
    0.000
  0
TEXT
  8
1
 7
SIMPLEX
 10
   541.621
 20
 -9433.228
 40
  180.540
  1
5.
 50
    0.000
  0
TEXT
  8
1
 7
SIMPLEX
 10
   902.701
 20
 -9433.228
 40
  180.540
  1
Loading conditions are:
 50
    0.000
  0
TEXT
  8
1
 7
SIMPLEX
 10
   902.701
 20
 -9794.309
 40
  180.540
  1
1
 50
    0.000
  0
TEXT
  8
1
 7
SIMPLEX
 10
  1444.322
 20
 -9794.309
 40
  180.540
  1
Dead+Collateral+Live
 50
    0.000
  0
TEXT
  8
1
 7
SIMPLEX
 10
   902.701
 20
-10065.119
 40
  180.540
  1
2
 50
    0.000
  0
TEXT
  8
1
 7
SIMPLEX
 10
  1444.322
 20
-10065.119
 40
  180.540
  1
Dead+Collateral+0.75Live+0.75Wind_Left1+0.75Floor_Live
 50
    0.000
  0
TEXT
  8
1
 7
SIMPLEX
 10
   902.701
 20
-10335.930
 40
  180.540
  1
3
 50
    0.000
  0
TEXT
  8
1
 7
SIMPLEX
 10
  1444.322
 20
-10335.930
 40
  180.540
  1
Dead+Collateral+0.75Live+0.75Wind_Right1+0.75Floor_Live
 50
    0.000
  0
TEXT
  8
1
 7
SIMPLEX
 10
   902.701
 20
-10606.740
 40
  180.540
  1
4
 50
    0.000
  0
TEXT
  8
1
 7
SIMPLEX
 10
  1444.322
 20
-10606.740
 40
  180.540
  1
0.6Dead+Wind_Left2
 50
    0.000
  0
TEXT
  8
1
 7
SIMPLEX
 10
   902.701
 20
-10877.551
 40
  180.540
  1
5
 50
    0.000
  0
TEXT
  8
1
 7
SIMPLEX
 10
  1444.322
 20
-10877.551
 40
  180.540
  1
0.6Dead+Wind_Right2
 50
    0.000
  0
TEXT
  8
1
 7
SIMPLEX
 10
   902.701
 20
-11148.361
 40
  180.540
  1
6
 50
    0.000
  0
TEXT
  8
1
 7
SIMPLEX
 10
  1444.322
 20
-11148.361
 40
  180.540
  1
0.6Dead+Wind_Long1L+LWIND1_L2E
 50
    0.000
  0
TEXT
  8
1
 7
SIMPLEX
 10
   902.701
 20
-11419.172
 40
  180.540
  1
7
 50
    0.000
  0
TEXT
  8
1
 7
SIMPLEX
 10
  1444.322
 20
-11419.172
 40
  180.540
  1
0.6Dead+Wind_Long1L+LWIND1_R2E
 50
    0.000
  0
TEXT
  8
1
 7
SIMPLEX
 10
   902.701
 20
-11689.982
 40
  180.540
  1
8
 50
    0.000
  0
TEXT
  8
1
 7
SIMPLEX
 10
  1444.322
 20
-11689.982
 40
  180.540
  1
0.6Dead+Wind_Right2+Wind_Suction
 50
    0.000
  0
TEXT
  8
1
 7
SIMPLEX
 10
   902.701
 20
-11960.793
 40
  180.540
  1
9
 50
    0.000
  0
TEXT
  8
1
 7
SIMPLEX
 10
  1444.322
 20
-11960.793
 40
  180.540
  1
0.6Dead+Wind_Pressure+Wind_Long2L
 50
    0.000
  0
LINE
  8
0
 10
 0.00     
 20
-12141.333
 11
 18415.104
 21
-12141.333
  0
LINE
  8
0
 10
 18415.104
 20
-12141.333
 11
 18415.104
 21
 0.00     
  0
LINE
  8
0
 10
 18415.104
 20
 0.00     
 11
 0.00     
 21
 0.00     
  0
LINE
  8
0
 10
 0.00     
 20
 0.00     
 11
 0.00     
 21
-12141.333
  0
ENDBLK
  8
0
  0
ENDSEC
  0
SECTION
  2
ENTITIES
  0
LINE
  8
22
 10
 0.00     
 20
 0.00     
 11
 63437.855
 21
 0.00     
  0
LINE
  8
22
 10
 63437.855
 20
 0.00     
 11
 63437.855
 21
 44859.633
  0
LINE
  8
22
 10
 63437.855
 20
 44859.633
 11
 0.00     
 21
 44859.633
  0
LINE
  8
22
 10
 0.00     
 20
 44859.633
 11
 0.00     
 21
 0.00     
  0
LINE
  8
0
 10
 39268.035
 20
 0.00     
 11
 39268.035
 21
  4028.304
  0
LINE
  8
0
 10
 39268.035
 20
  4028.304
 11
 63437.855
 21
  4028.304
  0
LINE
  8
0
 10
 39268.035
 20
  1534.592
 11
 63437.855
 21
  1534.592
  0
LINE
  8
0
 10
 39268.035
 20
  2301.888
 11
 63437.855
 21
  2301.888
  0
LINE
  8
0
 10
 39268.035
 20
  3069.184
 11
 63437.855
 21
  3069.184
  0
LINE
  8
0
 10
 42720.863
 20
 0.00     
 11
 42720.863
 21
  3069.184
  0
LINE
  8
0
 10
 51352.945
 20
 0.00     
 11
 51352.945
 21
  3069.184
  0
LINE
  8
0
 10
 51352.945
 20
   767.296
 11
 63437.855
 21
   767.296
  0
LINE
  8
0
 10
 55573.070
 20
  2301.888
 11
 55573.070
 21
  1534.592
  0
LINE
  8
0
 10
 59409.551
 20
  2301.888
 11
 59409.551
 21
  1534.592
  0
LINE
  8
0
 10
 57491.313
 20
  1534.592
 11
 57491.313
 21
   767.296
  0
TEXT
  8
14
 7
SIMPLEX
 10
 43488.160
 20
  3261.008
 40
  575.472
  1
Sivoko Steel Structures Ltd.
 50
    0.000
  0
TEXT
  8
14
 7
SIMPLEX
 10
 39651.680
 20
  2493.712
 40
  383.648
  1
PROJECT
 50
    0.000
  0
TEXT
  8
14
 7
SIMPLEX
 10
 39651.680
 20
  1726.416
 40
  383.648
  1
ID
 50
    0.000
  0
TEXT
  8
14
 7
SIMPLEX
 10
 39651.680
 20
   959.120
 40
  383.648
  1
PROJECT
 50
    0.000
  0
TEXT
  8
14
 7
SIMPLEX
 10
 39651.680
 20
   191.824
 40
  383.648
  1
ADDRESS
 50
    0.000
  0
TEXT
  8
14
 7
SIMPLEX
 10
 43104.512
 20
  2493.712
 40
  383.648
  1
Proposed Warehouse
 50
    0.000
  0
TEXT
  8
14
 7
SIMPLEX
 10
 43104.512
 20
  1726.416
 40
  383.648
  1
111
 50
    0.000
  0
TEXT
  8
14
 7
SIMPLEX
 10
 43104.512
 20
   959.120
 40
  383.648
  1
Proposed Warehouse
 50
    0.000
  0
TEXT
  8
14
 7
SIMPLEX
 10
 43104.512
 20
   191.824
 40
  383.648
  1
 
 50
    0.000
  0
TEXT
  8
14
 7
SIMPLEX
 10
 51736.594
 20
  2493.712
 40
  383.648
  1
ANCHOR BOLT REACTIONS
 50
    0.000
  0
TEXT
  8
14
 7
SIMPLEX
 10
 51736.594
 20
  1726.416
 40
  383.648
  1
DESIGN:
 50
    0.000
  0
TEXT
  8
14
 7
SIMPLEX
 10
 51736.594
 20
   959.120
 40
  383.648
  1
DATE:
 50
    0.000
  0
TEXT
  8
14
 7
SIMPLEX
 10
 53693.199
 20
   959.120
 40
  383.648
  1
19/JAN/2026
 50
    0.000
  0
TEXT
  8
14
 7
SIMPLEX
 10
 55956.719
 20
  1726.416
 40
  383.648
  1
DRAFT:
 50
    0.000
  0
TEXT
  8
14
 7
SIMPLEX
 10
 59793.199
 20
  1726.416
 40
  383.648
  1
CHECK:
 50
    0.000
  0
TEXT
  8
14
 7
SIMPLEX
 10
 57683.141
 20
   959.120
 40
  383.648
  1
SHEET
 50
    0.000
  0
TEXT
  8
14
 7
SIMPLEX
 10
 61135.969
 20
   959.120
 40
  383.648
  1
OF
 50
    0.000
  0
TEXT
  8
14
 7
SIMPLEX
 10
 59601.379
 20
   959.120
 40
  383.648
  1
 
 50
    0.000
999
FIELD:@PAGE_ID
  0
TEXT
  8
14
 7
SIMPLEX
 10
 61903.266
 20
   959.120
 40
  383.648
  1
 
 50
    0.000
999
FIELD:@PAGE_TOTAL
  0
INSERT
  8
1
  2
RFRM-1
 10
 45022.754
 20
 44859.633
 41
     1.000
 42
     1.000
 43
     1.000
 50
    0.000
  0
INSERT
  8
1
  2
BOLT01
 10
 45022.754
 20
 37638.023
 41
     1.000
 42
     1.000
 43
     1.000
 50
    0.000
  0
INSERT
  8
1
  2
BOLT02
 10
 45022.754
 20
 34027.219
 41
     1.000
 42
     1.000
 43
     1.000
 50
    0.000
  0
INSERT
  8
1
  2
RFBASE
 10
 45022.754
 20
 30416.412
 41
     1.000
 42
     1.000
 43
     1.000
 50
    0.000
  0
INSERT
  8
1
  2
EWTABL
 10
 45022.754
 20
 15566.979
 41
     1.000
 42
     1.000
 43
     1.000
 50
    0.000
  0
INSERT
  8
1
  2
EWBASE
 10
 45022.754
 20
 12904.011
 41
     1.000
 42
     1.000
 43
     1.000
 50
    0.000
  0
INSERT
  8
1
  2
RNOTES
 10
 26607.646
 20
 44859.633
 41
     1.000
 42
     1.000
 43
     1.000
 50
    0.000
  0
INSERT
  8
1
  2
BRACET
 10
 35815.199
 20
 32718.301
 41
     1.000
 42
     1.000
 43
     1.000
 50
    0.000
  0
ENDSEC
  0
EOF
