  0
SECTION
  2
HEADER
  9
$ACADVER
  1
AC1009
  9
$EXTMIN
 10
 -2454.140
 20
-12889.354
  9
$EXTMAX
 10
 48184.141
 20
 25089.355
  9
$LIMMIN
 10
 -2454.140
 20
-12889.354
  9
$LIMMAX
 10
 48184.141
 20
 25089.355
  9
$FILLMODE
 70
     1
  9
$HANDLING
 70
     0
  0
ENDSEC
  0
SECTION
  2
TABLES
  0
TABLE
  2
LTYPE
 70
1
  0
LTYPE
  2
CONTIN
 70
    64
  3
SOLID LINE
 72
    65
 73
     0
 40
0.0
  0
LTYPE
  2
CONTINUOUS
 70
    64
  3
SOLID LINE
 72
    65
 73
     0
 40
0.0
  0
LTYPE
  2
CENTER
 70
    64
  3
____ _ ____ _ ____ _ ____ _ ____ _ ____ _ ____
 72
    65
 73
     4
 40
     8.154
 49
     5.096
 49
    -1.019
 49
     1.019
 49
    -1.019
  0
LTYPE
  2
DASHED
 70
    64
  3
__ __ __ __ __ __ __ __ __ __ __ __ __ __ __ 
 72
    65
 73
     2
 40
   607.65
 49
   405.10
 49
  -202.55
  0
ENDTAB
  0
TABLE
  2
LAYER
 70
30
  0
LAYER
  2
0
 70
     0
 62
     7
  6
CONTIN
  0
LAYER
  2
1
 70
     0
 62
     7
  6
CONTIN
  0
LAYER
  2
2
 70
     0
 62
     7
  6
CONTIN
  0
LAYER
  2
3
 70
     0
 62
     7
  6
CONTIN
  0
LAYER
  2
4
 70
     0
 62
     5
  6
CONTIN
  0
LAYER
  2
5
 70
     0
 62
     5
  6
DASHED
  0
LAYER
  2
6
 70
     0
 62
     5
  6
DASHED
  0
LAYER
  2
7
 70
     0
 62
     5
  6
CONTIN
  0
LAYER
  2
8
 70
     0
 62
     5
  6
DASHED
  0
LAYER
  2
9
 70
     0
 62
     7
  6
CONTIN
  0
LAYER
  2
10
 70
     0
 62
     7
  6
CONTIN
  0
LAYER
  2
11
 70
     0
 62
     6
  6
DASHED
  0
LAYER
  2
12
 70
     0
 62
     7
  6
DASHED
  0
LAYER
  2
13
 70
     0
 62
     5
  6
DASHED
  0
LAYER
  2
14
 70
     0
 62
     7
  6
CONTIN
  0
LAYER
  2
15
 70
     0
 62
     5
  6
CONTIN
  0
LAYER
  2
16
 70
     0
 62
     7
  6
CONTIN
  0
LAYER
  2
17
 70
     0
 62
     7
  6
CONTIN
  0
LAYER
  2
18
 70
     0
 62
     7
  6
CONTIN
  0
LAYER
  2
19
 70
     0
 62
     7
  6
CONTIN
  0
LAYER
  2
20
 70
     0
 62
     1
  6
CONTIN
  0
LAYER
  2
21
 70
     0
 62
     7
  6
CONTIN
  0
LAYER
  2
22
 70
     0
 62
     7
  6
DASHED
  0
LAYER
  2
23
 70
     0
 62
     7
  6
DASHED
  0
LAYER
  2
24
 70
     0
 62
     7
  6
CONTIN
  0
LAYER
  2
25
 70
     0
 62
     7
  6
CONTIN
  0
LAYER
  2
26
 70
     0
 62
     7
  6
CONTIN
  0
LAYER
  2
27
 70
     0
 62
     1
  6
CENTER
  0
LAYER
  2
28
 70
     0
 62
     7
  6
CONTIN
  0
LAYER
  2
29
 70
     0
 62
     3
  6
DASHED
  0
ENDTAB
  0
TABLE
  2
STYLE
 70
  0
  0
ENDTAB
  0
ENDSEC
  0
SECTION
  2
ENTITIES
  0
LINE
  8
7
 10
     0.000
 20
     0.000
 11
 45730.000
 21
     0.000
  0
LINE
  8
7
 10
 45730.000
 20
     0.000
 11
 45730.000
 21
 12200.001
  0
LINE
  8
7
 10
 45730.000
 20
 12200.001
 11
     0.000
 21
 12200.001
  0
LINE
  8
7
 10
     0.000
 20
 12200.001
 11
     0.000
 21
     0.000
  0
LINE
  8
15
 10
   152.400
 20
 12352.400
 11
  -152.400
 21
 12047.601
  0
LINE
  8
15
 10
   152.400
 20
 12047.601
 11
  -152.400
 21
 12352.400
  0
LINE
  8
15
 10
   152.400
 20
  6252.401
 11
  -152.400
 21
  5947.601
  0
LINE
  8
15
 10
   152.400
 20
  5947.601
 11
  -152.400
 21
  6252.401
  0
LINE
  8
15
 10
  -152.400
 20
   152.400
 11
   152.400
 21
  -152.400
  0
LINE
  8
15
 10
   152.400
 20
   152.400
 11
  -152.400
 21
  -152.400
  0
LINE
  8
15
 10
  7652.600
 20
   152.400
 11
  7957.400
 21
  -152.400
  0
LINE
  8
15
 10
  7957.400
 20
   152.400
 11
  7652.600
 21
  -152.400
  0
LINE
  8
15
 10
 15182.601
 20
   152.400
 11
 15487.400
 21
  -152.400
  0
LINE
  8
15
 10
 15487.400
 20
   152.400
 11
 15182.601
 21
  -152.400
  0
LINE
  8
15
 10
 22712.600
 20
   152.400
 11
 23017.398
 21
  -152.400
  0
LINE
  8
15
 10
 23017.398
 20
   152.400
 11
 22712.600
 21
  -152.400
  0
LINE
  8
15
 10
 30242.600
 20
   152.400
 11
 30547.400
 21
  -152.400
  0
LINE
  8
15
 10
 30547.400
 20
   152.400
 11
 30242.600
 21
  -152.400
  0
LINE
  8
15
 10
 37772.598
 20
   152.400
 11
 38077.398
 21
  -152.400
  0
LINE
  8
15
 10
 38077.398
 20
   152.400
 11
 37772.598
 21
  -152.400
  0
LINE
  8
15
 10
 45577.598
 20
  -152.400
 11
 45882.398
 21
   152.400
  0
LINE
  8
15
 10
 45577.598
 20
   152.400
 11
 45882.398
 21
  -152.400
  0
LINE
  8
15
 10
 45577.598
 20
  5947.600
 11
 45882.398
 21
  6252.400
  0
LINE
  8
15
 10
 45577.598
 20
  6252.400
 11
 45882.398
 21
  5947.600
  0
LINE
  8
15
 10
 45882.398
 20
 12047.601
 11
 45577.598
 21
 12352.400
  0
LINE
  8
15
 10
 45577.598
 20
 12047.601
 11
 45882.398
 21
 12352.400
  0
LINE
  8
15
 10
 38077.398
 20
 12047.601
 11
 37772.598
 21
 12352.400
  0
LINE
  8
15
 10
 37772.598
 20
 12047.601
 11
 38077.398
 21
 12352.400
  0
LINE
  8
15
 10
 30547.400
 20
 12047.601
 11
 30242.600
 21
 12352.400
  0
LINE
  8
15
 10
 30242.600
 20
 12047.601
 11
 30547.400
 21
 12352.400
  0
LINE
  8
15
 10
 23017.398
 20
 12047.601
 11
 22712.600
 21
 12352.400
  0
LINE
  8
15
 10
 22712.600
 20
 12047.601
 11
 23017.398
 21
 12352.400
  0
LINE
  8
15
 10
 15487.398
 20
 12047.601
 11
 15182.599
 21
 12352.400
  0
LINE
  8
15
 10
 15182.599
 20
 12047.601
 11
 15487.398
 21
 12352.400
  0
LINE
  8
15
 10
  7957.399
 20
 12047.601
 11
  7652.600
 21
 12352.400
  0
LINE
  8
15
 10
  7652.600
 20
 12047.601
 11
  7957.399
 21
 12352.400
  0
LINE
  8
0
 10
 -2454.140
 20
-12889.354
 11
 48184.141
 21
-12889.354
  0
LINE
  8
0
 10
 48184.141
 20
-12889.354
 11
 48184.141
 21
 25089.355
  0
LINE
  8
0
 10
 48184.141
 20
 25089.355
 11
 -2454.140
 21
 25089.355
  0
LINE
  8
0
 10
 -2454.140
 20
 25089.355
 11
 -2454.140
 21
-12889.354
  0
LINE
  8
0
 10
 -2454.140
 20
-11636.057
 11
 48184.141
 21
-11636.057
  0
TEXT
  8
0
 10
 16598.514
 20
-12680.473
 40
   835.532
  1
Crane Detailing
 50
     0.000
  0
TEXT
  8
0
 10
 -2036.374
 20
-12680.473
 40
   835.532
  1
C163-027
 50
     0.000
  0
TEXT
  8
0
 10
 38575.527
 20
-12680.473
 40
   835.532
  1
19/JAN/2026
 50
     0.000
  0
ENDSEC
  0
EOF
